mtllib 3.mtl
o 3_part_0
v -2.0184332E-09 -6.14675236 -1.0438292
v -2.0184312E-09 -6.79646 -2.22098827
v -1.7451129 -6.968136 -1.57501245
v -1.98745346 -14.5305309 -1.9961338
v -2.57641387 -12.7934723 -2.32227349
v -2.01842631E-09 -12.037509 -4.020166
v -2.01842476E-09 -15.3932476 -3.79393029
v -2.21948242 -11.08302 0.6177451
v -2.97813725 -12.9461451 0.6121037
v -2.01843475E-09 -12.19256 2.8783884
v -2.018434E-09 -10.2814026 1.63692129
v -2.05617261 -14.8063278 0.454827279
v -2.01842565E-09 -16.7684574 -2.47243237
v -1.04151237 -15.98719 -0.755794466
v -2.0184332E-09 -14.2553654 2.56619525
v -2.01843E-09 -15.65729 0.6106895
v -2.01842565E-09 -16.7684574 -2.47243237
v 2.21296825E-09 -21.07736 -1.53779018
v -0.76135397 -21.08309 -0.832284
v -1.04151237 -15.98719 -0.755794466
v -2.01842565E-09 -16.7684574 -2.47243237
v -1.04151237 -15.98719 -0.755794466
v 1.3308703E-09 -21.0529728 -0.246431917
v -2.01843E-09 -15.65729 0.6106895
v -1.04151237 -15.98719 -0.755794466
v -1.99566507 -7.37507153 0.6272094
v -2.0184352E-09 -6.69063044 0.885316968
v -2.01843542E-09 -8.094975 1.756164
v -1.78769839 -11.0703936 -2.25253367
v -2.0184292E-09 -9.872932 -2.57816076
v 1.78309456E-09 -28.9424629 -0.8746696
v -0.558706164 -28.9508362 -0.5368574
v 1.78309578E-09 -28.9412918 0.132576481
v 1.35311817E-09 -39.70129 -0.8332135
v 1.35311973E-09 -35.8945 -0.147326261
v -5.94968176 -14.8162928 -1.23900318
v -5.58984137 -16.01845 -1.04409552
v -7.693763 -14.5685177 -0.38194862
v -4.4619627 -10.5493708 -1.02739513
v -3.94180512 -10.8053379 -0.868515134
v -5.719567 -16.1086826 0.3759955
v -5.58984137 -16.01845 -1.04409552
v -5.94968176 -14.8162928 -1.23900318
v -5.94968176 -14.8162928 -1.23900318
v -5.985205 -14.8160276 1.11330569
v -1.6520946 -8.608924 -1.45736933
v -2.75497484 -7.38893461 -1.28985739
v -1.26888955 -6.97372532 -1.66509414
v -2.16112328 -8.577511 0.5328898
v -3.86053872 -10.8453274 -0.119297765
v -3.94180512 -10.8053379 -0.868515134
v -3.94180512 -10.8053379 -0.868515134
v -1.6520946 -8.608924 -1.45736933
v -2.612044 -7.615742 0.271845132
v -1.621819 -7.3008666 0.486415
v -4.518337 -10.5216312 -0.02609403
v -5.94968176 -14.8162928 -1.23900318
v -5.94968176 -14.8162928 -1.23900318
v -3.94180512 -10.8053379 -0.868515134
v -7.46993828 0.7016116 -1.06550777
v -6.88976 2.38829327 0.684337854
v -10.355216 4.010516 -0.296271622
v -11.815362 3.548926 -1.38537955
v -8.566873 4.42299175 -0.6395803
v -7.46993828 0.7016116 -1.06550777
v -3.89602733 3.38194 -0.218336836
v -3.89602733 -0.01683319 -0.7803904
v -7.46993828 0.7016116 -1.06550777
v -3.89602733 -0.01683319 -0.7803904
v -3.767808 1.918195 1.08894515
v -3.89602733 -0.01683319 -0.7803904
v -11.815362 3.548926 -1.38537955
v -13.9764709 7.78645754 -1.457505
v -7.46993828 0.7016116 -1.06550777
v -11.815362 3.548926 -1.38537955
v -7.82306337 -3.548047 -3.046076
v -5.20428467 -3.54804659 2.7369082
v -5.20428467 2.8002522 2.73690772
v -7.82306337 2.800252 -3.046076
v -2.01844474E-09 4.27951527 3.991587
v -4.29242563 3.79197979 0.03612804
v -3.305626 0.640160739 2.06741476
v -2.0184443E-09 1.05471933 4.99277163
v -1.90526783 5.930812 0.03612754
v -4.18055964 0.0235702135 0.0361287966
v -2.018445E-09 -1.08683062 6.49577236
v -4.29604626 -2.457753 4.50364
v -2.018444E-09 -3.670424 6.886264
v -2.018441E-09 -5.710974 5.34337
v -2.65373445 -5.38451052 3.44969726
v -2.01843542E-09 -6.26669741 1.00576818
v -2.01843076E-09 0.0235680621 -5.557734
v -3.03007126 0.0235681329 -3.91933
v -2.0184352E-09 4.27951527 -3.91933084
v -2.018431E-09 -3.490527 -3.9193294
v -2.01843542E-09 -6.26669741 1.00576818
v -4.729009 -3.9318893 -0.313589126
v -2.018441E-09 6.137677 0.0361281559
v -2.018441E-09 6.137677 0.0361281559
v -2.22348857 10.9756689 0.122110359
v -2.018441E-09 6.114016 0.0371080935
v -2.01844474E-09 4.248775 3.97300172
v -3.12163258 9.571429 10.06779
v -1.99012959 8.37237549 -5.9371233
v 0.0006980741 4.278466 -3.91960239
v -1.96794462 1.39989924 -9.687325
v -2.01843076E-09 0.02964869 -5.564547
v 1.7451129 -6.96813631 -1.57501245
v 1.98745346 -14.5305338 -1.9961338
v 2.57641387 -12.7934752 -2.32227349
v 2.21948242 -11.0830212 0.6177451
v 2.97813725 -12.9461479 0.6121037
v 2.05617261 -14.8063278 0.454827279
v 1.04151237 -15.9871922 -0.755794466
v -2.01842565E-09 -16.7684574 -2.47243237
v 1.04151237 -15.9871922 -0.755794466
v 0.76135397 -21.0830917 -0.832284
v -2.01842565E-09 -16.7684574 -2.47243237
v 1.04151237 -15.9871922 -0.755794466
v -2.01843E-09 -15.65729 0.6106895
v 1.04151237 -15.9871922 -0.755794466
v 1.99566507 -7.375072 0.6272094
v 1.78769839 -11.0703945 -2.25253367
v 0.558706164 -28.9508362 -0.5368574
v 5.94968176 -14.8162937 -1.23900318
v 7.693763 -14.5685177 -0.38194862
v 5.58984137 -16.0184517 -1.04409552
v 4.452648 -10.553956 -1.00930929
v 3.95068455 -10.80097 -0.855986536
v 5.719567 -16.1086845 0.3759955
v 5.985205 -14.8160305 1.11330569
v 5.94968176 -14.8162937 -1.23900318
v 5.94968176 -14.8162937 -1.23900318
v 5.58984137 -16.0184517 -1.04409552
v 1.6520946 -8.608926 -1.45736933
v 1.26888955 -6.973726 -1.66509414
v 2.75497484 -7.384817 -1.28985739
v 2.16112328 -8.577511 0.5328898
v 1.6520946 -8.608926 -1.45736933
v 3.95068455 -10.80097 -0.855986536
v 3.95068455 -10.80097 -0.855986536
v 3.87226033 -10.8395615 -0.132974938
v 2.612044 -7.615743 0.271845132
v 1.621819 -7.300868 0.486415
v 4.507051 -10.5271854 -0.0430312529
v 3.95068455 -10.80097 -0.855986536
v 5.94968176 -14.8162937 -1.23900318
v 5.94968176 -14.8162937 -1.23900318
v 7.46993828 0.7016097 -1.06550777
v 11.815362 3.54892445 -1.38537955
v 10.355216 4.01051426 -0.296271622
v 6.88976 2.38829136 0.684337854
v 8.566873 4.42299 -0.6395803
v 7.46993828 0.7016097 -1.06550777
v 3.89602733 -0.0168350954 -0.7803904
v 3.89602733 3.381938 -0.218336836
v 7.46993828 0.7016097 -1.06550777
v 3.89602733 -0.0168350954 -0.7803904
v 3.767808 1.918193 1.08894515
v 3.89602733 -0.0168350954 -0.7803904
v 11.815362 3.54892445 -1.38537955
v 13.9764709 7.78645754 -1.457505
v 11.815362 3.54892445 -1.38537955
v 7.46993828 0.7016097 -1.06550777
v 6.985131 -3.548047 -3.2935257
v 6.985131 2.800252 -3.2935257
v 6.0422163 2.8002522 2.98435736
v 6.0422163 -3.54804659 2.98435736
v 3.305626 0.640160739 2.06741476
v 4.29242563 3.79197812 0.03612804
v 1.90526783 5.93081 0.03612754
v 4.18055964 0.023568308 0.0361287966
v 4.29604626 -2.45775461 4.50364
v 2.65373445 -5.38451242 3.44969726
v -2.01843076E-09 0.0235680621 -5.557734
v -2.0184352E-09 4.27951527 -3.91933084
v 3.03007126 0.0235681329 -3.91933
v -2.0184352E-09 4.27951527 -3.91933084
v -2.0184352E-09 4.27951527 -3.91933084
v -2.01843076E-09 0.0235680621 -5.557734
v -2.018431E-09 -3.490527 -3.9193294
v -2.018431E-09 -3.490527 -3.9193294
v 4.729009 -3.9318893 -0.313589126
v -2.01843542E-09 -6.26669741 1.00576818
v -2.018431E-09 -3.490527 -3.9193294
v -2.0184352E-09 4.27951527 -3.91933084
v -2.018441E-09 6.137677 0.0361281559
v 2.22348857 10.9756689 0.122110359
v 3.12163258 9.571425 10.06779
v 1.99012959 8.372374 -5.9371233
v 1.96794462 1.39989924 -9.687325
v 0.857143342 -5.3617425 0.362678766
v 0.017890038 -5.977126 1.22756457
v -2.018435E-09 -6.82134533 0.8429902
v 0.95258 -6.986033 -0.2107476
v -2.01843431E-09 -5.315268 -0.514225543
v -2.018433E-09 -6.259776 -1.0678339
v -0.857143342 -5.3617425 0.362678766
v -0.95258 -6.986033 -0.2107476
v -0.0178900417 -5.977126 1.22756457
v -4.87485 -3.54804659 2.7369082
v -7.4936285 -3.54804659 -3.046076
v -4.87485 2.800252 2.73690772
v -7.4936285 2.800252 -3.046076
v 6.77311754 2.800252 -3.2935257
v 6.77311754 -3.54804659 -3.2935257
v 5.830203 2.800252 2.98435736
v 5.830203 -3.54804659 2.98435736
v 0.37528193 6.114016 0.0371080451
v -1.84820664 10.975668 0.122110344
v 0.37528193 4.248775 3.97300172
v -2.74635053 9.571429 10.06779
v -1.61484766 8.37237549 -5.9371233
v 0.37598 4.278466 -3.91960216
v -1.59266269 1.3998996 -9.687325
v 0.37528193 0.0296488758 -5.56454659
v 2.86792779 9.57142448 10.06779
v 1.969784 10.975668 0.122110344
v -0.253704578 4.24877453 3.97300172
v -0.253704578 6.11401558 0.0371080451
v -0.253006458 4.27846575 -3.91960216
v 1.736425 8.372374 -5.9371233
v -0.253704578 0.0296485 -5.56454659
v 1.71424007 1.39989913 -9.687325
vt 0.120288514 0.5178708
vt 0.032764107 0.46437037
vt 0.102059849 0.475519836
vt 0.11102403 0.21625042
vt 0.103555448 0.276642978
vt 0.0162381828 0.280780315
vt 0.0233758911 0.22452575
vt 0.178299218 0.342079282
vt 0.185330153 0.282749534
vt 0.289745361 0.302310467
vt 0.262791425 0.3626284
vt 0.204005718 0.21773994
vt 0.09855057 0.143583179
vt 0.161748618 0.178889751
vt 0.288682759 0.2430991
vt 0.220451623 0.180071414
vt 0.86396426 0.927819669
vt 0.842094541 0.812848449
vt 0.7915448 0.812604368
vt 0.7860642 0.967969656
vt 0.86396426 0.927819669
vt 0.7860642 0.967969656
vt 0.7495682 0.813887
vt 0.688155234 0.9751387
vt 0.7860642 0.967969656
vt 0.179170251 0.464102626
vt 0.207906008 0.504757345
vt 0.248239011 0.443274438
vt 0.09060356 0.3271504
vt 0.03886636 0.355557919
vt 0.804654 0.6036399
vt 0.770377338 0.603283167
vt 0.722412169 0.6036896
vt 0.7916114 0.2668475
vt 0.742467344 0.369472623
vt 0.6374116 0.28100574
vt 0.7092329 0.311628878
vt 0.649772644 0.344692
vt 0.5017022 0.317652822
vt 0.5030903 0.295727
vt 0.710539341 0.374174058
vt 0.710714638 0.4278242
vt 0.643094063 0.466802061
vt 0.643094063 0.466802061
vt 0.6335194 0.406859636
vt 0.383910984 0.2747872
vt 0.374674052 0.3085366
vt 0.33663702 0.305534244
vt 0.378006756 0.413446248
vt 0.5015248 0.381063819
vt 0.499178678 0.4196546
vt 0.499178678 0.4196546
vt 0.3787328 0.4682563
vt 0.3748809 0.369440138
vt 0.333877176 0.37888515
vt 0.5004528 0.360503554
vt 0.643094063 0.466802061
vt 0.643094063 0.466802061
vt 0.499178678 0.4196546
vt 0.80832684 0.04480654
vt 0.8235823 0.09995341
vt 0.687771 0.134515643
vt 0.6349227 0.113447487
vt 0.741404355 0.16169709
vt 0.83654356 0.2220208
vt 0.974888861 0.150026739
vt 0.974888861 0.217154264
vt 0.83654356 0.2220208
vt 0.974888861 0.0388641953
vt 0.974888861 0.09966296
vt 0.974888861 0.0388641953
vt 0.6878891 0.228078842
vt 0.537904143 0.235377133
vt 0.83654356 0.2220208
vt 0.6878891 0.228078842
vt 0.822499454 0.274638236
vt 0.972222 0.274638236
vt 0.972222 0.424360752
vt 0.822499454 0.424360752
vt 0.3690279 0.8465835
vt 0.5186825 0.8465835
vt 0.471119583 0.769334733
vt 0.3690279 0.7609926
vt 0.501103 0.9223055
vt 0.5541764 0.7516115
vt 0.3690279 0.699830353
vt 0.4843021 0.6828256
vt 0.3690279 0.640394449
vt 0.369027972 0.588552058
vt 0.4665246 0.601121545
vt 0.369027972 0.520506144
vt 0.7222814 0.7397545
vt 0.62736243 0.7530116
vt 0.6518357 0.8691542
vt 0.682367861 0.60969
vt 0.6500567 0.512424231
vt 0.5847379 0.590481162
vt 0.369027972 0.920912445
vt 0.5243778 0.972047865
vt 0.359603822 0.196930766
vt 0.358448744 0.0617710948
vt 0.4714412 0.0286263824
vt 0.587528169 0.136642337
vt 0.240515277 0.1645205
vt 0.253047019 0.0563544035
vt 0.120709941 0.1155265
vt 0.14592813 0.0131545663
vt 0.102059849 0.475519836
vt 0.11102403 0.21625042
vt 0.103555448 0.276642978
vt 0.178299218 0.342079282
vt 0.185330153 0.282749534
vt 0.204005718 0.21773994
vt 0.161748618 0.178889751
vt 0.86396426 0.927819669
vt 0.7860642 0.967969656
vt 0.7915448 0.812604368
vt 0.86396426 0.927819669
vt 0.7860642 0.967969656
vt 0.688155234 0.9751387
vt 0.7860642 0.967969656
vt 0.179170251 0.464102626
vt 0.09060356 0.3271504
vt 0.770377338 0.603283167
vt 0.6374116 0.28100574
vt 0.649772644 0.344692
vt 0.7092329 0.311628878
vt 0.5017022 0.317652822
vt 0.5030903 0.295727
vt 0.710539341 0.374174058
vt 0.6335194 0.406859636
vt 0.643094063 0.466802061
vt 0.643094063 0.466802061
vt 0.710714638 0.4278242
vt 0.383910984 0.2747872
vt 0.33663702 0.305534244
vt 0.374674052 0.3085366
vt 0.378006756 0.413446248
vt 0.3787328 0.4682563
vt 0.499178678 0.4196546
vt 0.499178678 0.4196546
vt 0.5015248 0.381063819
vt 0.3748809 0.369440138
vt 0.333877176 0.37888515
vt 0.5004528 0.360503554
vt 0.499178678 0.4196546
vt 0.643094063 0.466802061
vt 0.643094063 0.466802061
vt 0.80832684 0.04480654
vt 0.6349227 0.113447487
vt 0.687771 0.134515643
vt 0.8235823 0.09995341
vt 0.741404355 0.16169709
vt 0.83654356 0.2220208
vt 0.974888861 0.217154264
vt 0.974888861 0.150026739
vt 0.83654356 0.2220208
vt 0.974888861 0.0388641953
vt 0.974888861 0.09966296
vt 0.974888861 0.0388641953
vt 0.6878891 0.228078842
vt 0.537904143 0.235377133
vt 0.6878891 0.228078842
vt 0.83654356 0.2220208
vt 0.822499454 0.274638236
vt 0.822499454 0.424360752
vt 0.972222 0.424360752
vt 0.972222 0.274638236
vt 0.2669363 0.769334733
vt 0.222013041 0.8492231
vt 0.234367728 0.9265076
vt 0.186521292 0.7488441
vt 0.253753662 0.6828256
vt 0.271531165 0.601121545
vt 0.0183054656 0.7382054
vt 0.08697894 0.867455661
vt 0.114038676 0.751576364
vt 0.08697894 0.867455661
vt 0.08697894 0.867455661
vt 0.0183054656 0.7382054
vt 0.0526227 0.6205185
vt 0.0526227 0.6205185
vt 0.1555486 0.590481162
vt 0.08693993 0.521268547
vt 0.0526227 0.6205185
vt 0.08697894 0.867455661
vt 0.205897123 0.9794974
vt 0.359603822 0.196930766
vt 0.587528169 0.136642337
vt 0.240515277 0.1645205
vt 0.120709941 0.1155265
vt 0.901765 0.571575761
vt 0.96562463 0.5717495
vt 0.9654286 0.486509562
vt 0.901564837 0.486706376
vt 0.8379053 0.5714021
vt 0.8377011 0.4869032
vt 0.901765 0.571575761
vt 0.901564837 0.486706376
vt 0.96562463 0.5717495
vt 0.972222 0.274638236
vt 0.822499454 0.274638236
vt 0.972222 0.424360752
vt 0.822499454 0.424360752
vt 0.822499454 0.424360752
vt 0.822499454 0.274638236
vt 0.972222 0.424360752
vt 0.972222 0.274638236
vt 0.358448744 0.0617710948
vt 0.359603822 0.196930766
vt 0.4714412 0.0286263824
vt 0.587528169 0.136642337
vt 0.240515277 0.1645205
vt 0.253047019 0.0563544035
vt 0.120709941 0.1155265
vt 0.14592813 0.0131545663
vt 0.587528169 0.136642337
vt 0.359603822 0.196930766
vt 0.4714412 0.0286263824
vt 0.358448744 0.0617710948
vt 0.253047019 0.0563544035
vt 0.240515277 0.1645205
vt 0.14592813 0.0131545663
vt 0.120709941 0.1155265
vn 1.42832121E-07 0.9963579 -0.08526962
vn 7.441021E-08 0.5323394 -0.846531034
vn -0.7175156 0.529618 -0.452411443
vn -0.8064978 -0.422805429 -0.4132758
vn -0.8525813 -0.00541446451 -0.5225665
vn 3.823079E-08 0.188116208 -0.9821468
vn -1.22100289E-07 -0.408039838 -0.9129641
vn -0.8694593 0.2668183 0.415750653
vn -0.9293279 -0.05334515 0.3653819
vn 1.883335E-08 0.1465207 0.9892076
vn 3.483287E-08 0.246589959 0.9691199
vn -0.7080352 -0.5948127 0.380636424
vn -8.65785239E-08 -0.826795161 -0.5625031
vn -0.69481 -0.715438664 0.07339357
vn -4.13710524E-08 -0.432293445 0.901733
vn -3.781524E-07 -0.8127229 0.582650363
vn -0.6705994 -0.157250986 -0.7249611
vn -8.28261548E-08 -0.142669573 -0.989770353
vn -0.9953929 -0.07811831 0.05559194
vn -0.8622056 -0.03982175 -0.5049908
vn -0.8622056 -0.03982175 -0.5049908
vn -0.608084738 -0.0453274064 0.792577
vn -4.38207444E-08 -0.0280101262 0.9996076
vn -0.779909968 -0.09819369 0.6181411
vn -0.779909968 -0.09819369 0.6181411
vn -0.775705755 0.442096 0.4503684
vn 1.15073121E-07 0.8108489 0.585255563
vn 1.725331E-09 0.177783191 0.9840697
vn -0.761630952 0.318458945 -0.564359963
vn 4.99389863E-08 0.2960977 -0.955157638
vn -5.728177E-09 -0.0448942669 -0.9989917
vn -0.989057958 -0.0268510915 -0.145063475
vn -3.28602E-09 0.004104898 0.9999916
vn 3.20393184E-07 -0.9977268 -0.06738911
vn -8.267258E-08 -0.1667129 0.9860055
vn -0.424244285 -0.05465732 -0.903896749
vn -0.599939644 -0.67294395 -0.432687968
vn -0.994540632 -0.0523225069 -0.09028469
vn -0.5279945 0.2917381 -0.79756546
vn 0.183955565 -0.220711336 -0.9578345
vn 0.409644157 -0.7979417 0.442132026
vn 0.947799 0.3008407 0.105696954
vn 0.947799 0.3008407 0.105696954
vn 0.981054366 0.193167016 0.0147935143
vn 0.1826377 -0.210709572 0.960335851
vn -0.163840592 -0.05112291 -0.985161245
vn -0.5621843 0.6495534 -0.511887848
vn -0.37383008 0.702565849 -0.6055182
vn 0.102649719 -0.2474005 0.963460445
vn 0.7091761 -0.425670952 0.5620262
vn 0.810662031 -0.573390245 -0.118535809
vn 0.7046452 -0.683367968 0.191006139
vn 0.7046452 -0.683367968 0.191006139
vn -0.529916 0.607503951 0.5917161
vn -0.358834684 0.7932667 0.491900027
vn -0.592687666 0.422175348 0.685922265
vn 0.883354843 -0.468513459 0.013392658
vn 0.892143 -0.435519546 -0.12001507
vn 0.892143 -0.435519546 -0.120015055
vn -0.321535617 -0.617977 0.717439353
vn -0.2225845 -0.107099257 0.969012856
vn -0.250007659 -0.06313007 0.9661836
vn -0.483825147 -0.3559415 0.7995117
vn 0.29489243 0.9376791 -0.183837682
vn 0.121536151 0.148157671 -0.9814674
vn 0.223898038 0.9476976 -0.227462
vn 0.110819578 0.162148744 -0.980523765
vn 0.110819571 0.162148744 -0.980523765
vn -0.1938991 -0.6749308 0.7119491
vn -0.108958207 -0.100113437 0.9889921
vn -0.192377359 -0.673888564 0.713347852
vn 0.200932041 0.08586452 -0.975834846
vn -0.67573303 0.7269217 -0.122351162
vn 0.178689271 0.163713634 -0.9701897
vn 0.178689271 0.163713634 -0.9701897
vn -0.910950065 1.622466E-08 0.4125166
vn -0.9109501 3.24493179E-08 0.412516564
vn -0.910950065 1.62246643E-08 0.4125166
vn -0.910950065 0 0.4125166
vn 6.84305448E-08 0.556980252 0.830525756
vn -0.8878055 0.460216016 0.00161646318
vn -0.7864179 0.3486906 0.50986445
vn 7.466058E-08 0.5155729 0.856845737
vn -0.46566093 0.884496748 -0.0287301857
vn -0.9930611 0.116972707 -0.012121994
vn 6.14728961E-08 0.385056376 0.922893047
vn -0.828846931 0.008398259 0.5594124
vn -5.27627328E-08 -0.269606829 0.9629705
vn -1.65783163E-07 -0.814691246 0.57989496
vn -0.540721 -0.7926777 0.281572133
vn -1.81570982E-07 -0.9999534 -0.009654239
vn -0.475459635 -0.0272002239 -0.8793169
vn -0.710947454 0.0217918232 -0.7029074
vn -0.565241337 0.536299 -0.626805842
vn -0.430793315 -0.5795342 -0.6917783
vn -0.281268567 -0.835968 -0.471216977
vn -0.8370029 -0.4730607 -0.275026828
vn 4.54080066E-07 0.9051033 0.425191671
vn -0.09780073 0.9007642 -0.42315346
vn -0.917828262 -0.396513879 -0.01918348
vn -7.473598E-05 -0.9999994 0.00109465048
vn 1.388206E-07 -0.9287419 -0.3707271
vn -0.914727747 -0.380384535 -0.136311263
vn -0.918043554 -0.311603844 0.245151132
vn 0.0002971871 -0.6215567 0.7833691
vn -0.9083869 -0.200301424 0.36703217
vn -7.06846868E-06 -0.44041422 0.897794664
vn 0.717515647 0.529617965 -0.452411443
vn 0.8064977 -0.422805667 -0.413275719
vn 0.8525813 -0.00541470759 -0.5225665
vn 0.8694593 0.266818166 0.415750653
vn 0.929327846 -0.0533455648 0.365382
vn 0.708035 -0.594812632 0.380636752
vn 0.6948098 -0.7154388 0.07339383
vn 0.8622056 -0.03982175 -0.5049908
vn 0.8622056 -0.0398217477 -0.5049908
vn 0.9953929 -0.07811827 0.05559189
vn 0.6705992 -0.15725103 -0.7249612
vn 0.7799099 -0.09819369 0.618141234
vn 0.7799099 -0.09819369 0.618141234
vn 0.608084738 -0.0453274027 0.792577
vn 0.7757058 0.442095876 0.4503684
vn 0.761631131 0.318458736 -0.564359844
vn 0.989057958 -0.0268510915 -0.145063475
vn 0.424768746 -0.0523890331 -0.903784752
vn 0.994650364 -0.04992184 -0.09043459
vn 0.599939942 -0.67294383 -0.432687759
vn 0.5288528 0.291024983 -0.797257245
vn -0.1834874 -0.22159256 -0.9577208
vn -0.409643978 -0.797941864 0.442131877
vn -0.183695838 -0.2070974 0.9609196
vn -0.9810543 0.19316718 0.014793626
vn -0.947799 0.3008407 0.105696954
vn -0.947799 0.3008407 0.105696954
vn 0.1668822 -0.0526598319 -0.9845696
vn 0.372844756 0.702716231 -0.6059511
vn 0.5634868 0.6491726 -0.51093787
vn -0.09725344 -0.249698818 0.963427365
vn -0.703141749 -0.6850146 0.190648034
vn -0.703141749 -0.6850146 0.190648034
vn -0.8083738 -0.576627 -0.118461236
vn -0.708772838 -0.4270199 0.561511457
vn 0.5314247 0.605768 0.592142642
vn 0.3588347 0.793266654 0.491900027
vn 0.5936798 0.421488941 0.685486257
vn -0.893248141 -0.43324852 -0.120014533
vn -0.893248141 -0.4332485 -0.120014548
vn -0.8847311 -0.465908736 0.0134128854
vn 0.321535647 -0.617976964 0.7174394
vn 0.483825177 -0.3559415 0.7995116
vn 0.250007659 -0.063130185 0.9661836
vn 0.222584486 -0.107099205 0.969012856
vn -0.2948925 0.9376791 -0.183837652
vn -0.110819571 0.162148774 -0.980523765
vn -0.110819593 0.162148774 -0.9805237
vn -0.223898038 0.9476976 -0.227461934
vn -0.121536151 0.148157671 -0.9814674
vn 0.192377374 -0.6738885 0.7133479
vn 0.108958222 -0.100113459 0.9889921
vn 0.193899125 -0.6749308 0.7119491
vn -0.200932041 0.0858644843 -0.975834846
vn 0.6757322 0.72692275 -0.12234918
vn -0.1786893 0.163713679 -0.970189631
vn -0.178689286 0.163713664 -0.970189631
vn 0.9889079 0 0.14853026
vn 0.9889079 0 0.14853026
vn 0.9889079 0 0.14853026
vn 0.9889079 0 0.14853026
vn 0.786418 0.34869042 0.5098644
vn 0.8982236 0.4375318 0.0419563837
vn 0.442653149 0.896692932 -1.23133447E-07
vn 0.9930611 0.116972737 -0.0121220173
vn 0.828846931 0.008398078 0.5594124
vn 0.540720761 -0.7926779 0.281572
vn 0.450506032 0.320742816 -0.8331677
vn 0.450506032 0.320742816 -0.8331677
vn 0.708866954 0.00721431 -0.705305338
vn 0.564002633 0.6294852 -0.5344618
vn 0.632232 0.45012483 -0.630611062
vn 0.440063864 -0.3794504 -0.813855767
vn 0.440063834 -0.3794504 -0.813855767
vn 0.2812685 -0.8359681 -0.471216947
vn 0.837002933 -0.473060519 -0.275026917
vn 0.281268567 -0.835968 -0.471216977
vn 0.5162892 -0.4451767 -0.731616855
vn 0.09780166 0.900764167 -0.423153341
vn 0.09780166 0.900764167 -0.423153341
vn 0.917851865 -0.3964611 -0.0191460662
vn 0.9147277 -0.380384624 -0.136311427
vn 0.9181276 -0.31148234 0.244990766
vn 0.9083869 -0.200301468 0.36703217
vn 0.9989575 0.03591652 -0.0281762555
vn 0.780186057 -0.272938639 0.5628625
vn -2.16183382E-09 -0.344188184 0.9389007
vn 0.9963034 0.08570836 0.005805045
vn 1.827583E-08 0.435405582 -0.9002344
vn 1.23871331E-08 0.5056728 -0.8627253
vn -0.9989575 0.0359165035 -0.0281762555
vn -0.9963034 0.08570836 0.005805049
vn -0.780186057 -0.272938639 0.5628625
vn 0.9109501 -3.24493179E-08 -0.412516534
vn 0.9109501 -1.62246572E-08 -0.412516534
vn 0.9109501 -1.62246589E-08 -0.412516534
vn 0.9109501 0 -0.412516534
vn -0.9889079 0 -0.14853026
vn -0.9889079 0 -0.14853026
vn -0.9889079 0 -0.14853026
vn -0.9889079 0 -0.14853026
vn 0.9093998 0.4159229 -0.000380671641
vn 0.917828262 0.396513939 0.019183483
vn 0.9080374 0.389039755 0.15529345
vn 0.914727747 0.380384564 0.136311233
vn 0.918043554 0.311603844 -0.245151132
vn 0.8957538 0.276249081 -0.3482981
vn 0.9083869 0.200301409 -0.36703214
vn 0.895663261 0.195825219 -0.3992991
vn -0.9147277 0.3803846 0.136311412
vn -0.917851865 0.3964611 0.01914606
vn -0.9080374 0.389039755 0.155293539
vn -0.9093988 0.415924966 -0.000529944431
vn -0.895874858 0.276225984 -0.348005
vn -0.9181276 0.31148234 -0.244990766
vn -0.895730436 0.195848525 -0.399137
vn -0.9083869 0.200301468 -0.3670321
usemtl 3_part_0_material_0
f 1/1/1 2/2/2 3/3/3
f 4/4/4 5/5/5 6/6/6
f 6/6/6 7/7/7 4/4/4
f 8/8/8 9/9/9 10/10/10
f 10/10/10 11/11/11 8/8/8
f 4/4/4 12/12/12 9/9/9
f 9/9/9 5/5/5 4/4/4
f 4/4/4 7/7/7 13/13/13
f 13/13/13 14/14/14 4/4/4
f 15/15/15 12/12/12 14/14/14
f 14/14/14 16/16/16 15/15/15
f 12/12/12 4/4/4 14/14/14
f 17/17/17 18/18/18 19/19/19
f 19/19/19 20/20/20 21/21/21
f 22/22/22 19/19/19 23/23/23
f 23/23/23 24/24/24 25/25/25
f 26/26/26 27/27/27 1/1/1
f 1/1/1 3/3/3 26/26/26
f 26/26/26 28/28/28 27/27/27
f 12/12/12 15/15/15 10/10/10
f 10/10/10 9/9/9 12/12/12
f 8/8/8 29/29/29 5/5/5
f 5/5/5 9/9/9 8/8/8
f 29/29/29 30/30/30 6/6/6
f 6/6/6 5/5/5 29/29/29
f 18/18/18 31/31/31 32/32/32
f 32/32/32 19/19/19 18/18/18
f 32/32/32 33/33/33 23/23/23
f 23/23/23 19/19/19 32/32/32
f 31/31/31 34/34/34 32/32/32
f 32/32/32 35/35/35 33/33/33
f 30/30/30 29/29/29 3/3/3
f 3/3/3 2/2/2 30/30/30
f 29/29/29 8/8/8 26/26/26
f 26/26/26 3/3/3 29/29/29
f 26/26/26 8/8/8 11/11/11
f 11/11/11 28/28/28 26/26/26
f 36/36/36 37/37/37 38/38/38
f 39/39/39 40/40/40 36/36/36
f 41/41/41 42/42/42 43/43/43
f 44/44/44 45/45/45 41/41/41
f 36/36/36 38/38/38 39/39/39
f 46/46/46 47/47/47 48/48/48
f 49/49/49 50/50/50 51/51/51
f 52/52/52 53/53/53 49/49/49
f 54/54/54 49/49/49 55/55/55
f 48/48/48 47/47/47 54/54/54
f 54/54/54 55/55/55 48/48/48
f 45/45/45 50/50/50 56/56/56
f 50/50/50 45/45/45 57/57/57
f 58/58/58 59/59/59 50/50/50
f 56/56/56 38/38/38 45/45/45
f 38/38/38 41/41/41 45/45/45
f 41/41/41 38/38/38 37/37/37
f 39/39/39 38/38/38 56/56/56
f 49/49/49 54/54/54 56/56/56
f 56/56/56 50/50/50 49/49/49
f 56/56/56 54/54/54 47/47/47
f 47/47/47 39/39/39 56/56/56
f 46/46/46 40/40/40 39/39/39
f 39/39/39 47/47/47 46/46/46
f 32/32/32 34/34/34 35/35/35
f 60/60/60 61/61/61 62/62/62
f 62/62/62 63/63/63 60/60/60
f 62/62/62 61/61/61 64/64/64
f 65/65/65 64/64/64 66/66/66
f 66/66/66 67/67/67 68/68/68
f 69/69/69 70/70/70 61/61/61
f 61/61/61 60/60/60 71/71/71
f 70/70/70 66/66/66 64/64/64
f 64/64/64 61/61/61 70/70/70
f 72/72/72 73/73/73 64/64/64
f 64/64/64 73/73/73 62/62/62
f 62/62/62 73/73/73 63/63/63
f 64/64/64 74/74/74 75/75/75
f 76/76/76 77/77/77 78/78/78
f 78/78/78 79/79/79 76/76/76
f 80/80/80 81/81/81 82/82/82
f 82/82/82 83/83/83 80/80/80
f 80/80/80 84/84/84 81/81/81
f 82/82/82 81/81/81 85/85/85
f 86/86/86 87/87/87 88/88/88
f 89/89/89 90/90/90 91/91/91
f 92/92/92 93/93/93 94/94/94
f 93/93/93 85/85/85 81/81/81
f 93/93/93 81/81/81 84/84/84
f 84/84/84 94/94/94 93/93/93
f 92/92/92 95/95/95 93/93/93
f 95/95/95 96/96/96 97/97/97
f 95/95/95 97/97/97 93/93/93
f 93/93/93 97/97/97 85/85/85
f 87/87/87 97/97/97 90/90/90
f 90/90/90 97/97/97 91/91/91
f 80/80/80 98/98/98 84/84/84
f 84/84/84 99/99/99 94/94/94
f 85/85/85 97/97/97 87/87/87
f 87/87/87 82/82/82 85/85/85
f 87/87/87 86/86/86 83/83/83
f 83/83/83 82/82/82 87/87/87
f 89/89/89 88/88/88 87/87/87
f 87/87/87 90/90/90 89/89/89
f 100/100/100 101/101/101 102/102/102
f 102/102/102 103/103/103 100/100/100
f 100/100/100 104/104/104 105/105/105
f 105/105/105 101/101/101 100/100/100
f 104/104/104 106/106/106 107/107/107
f 107/107/107 105/105/105 104/104/104
f 1/1/1 108/108/108 2/2/2
f 109/109/109 7/7/7 6/6/6
f 6/6/6 110/110/110 109/109/109
f 111/111/111 11/11/11 10/10/10
f 10/10/10 112/112/112 111/111/111
f 109/109/109 110/110/110 112/112/112
f 112/112/112 113/113/113 109/109/109
f 109/109/109 114/114/114 13/13/13
f 13/13/13 7/7/7 109/109/109
f 15/15/15 16/16/16 114/114/114
f 114/114/114 113/113/113 15/15/15
f 113/113/113 114/114/114 109/109/109
f 115/115/115 116/116/116 117/117/117
f 117/117/117 18/18/18 118/118/118
f 119/119/119 120/120/120 23/23/23
f 23/23/23 117/117/117 121/121/121
f 122/122/122 108/108/108 1/1/1
f 1/1/1 27/27/27 122/122/122
f 122/122/122 27/27/27 28/28/28
f 113/113/113 112/112/112 10/10/10
f 10/10/10 15/15/15 113/113/113
f 111/111/111 112/112/112 110/110/110
f 110/110/110 123/123/123 111/111/111
f 123/123/123 110/110/110 6/6/6
f 6/6/6 30/30/30 123/123/123
f 18/18/18 117/117/117 124/124/124
f 124/124/124 31/31/31 18/18/18
f 124/124/124 117/117/117 23/23/23
f 23/23/23 33/33/33 124/124/124
f 31/31/31 124/124/124 34/34/34
f 124/124/124 33/33/33 35/35/35
f 30/30/30 2/2/2 108/108/108
f 108/108/108 123/123/123 30/30/30
f 123/123/123 108/108/108 122/122/122
f 122/122/122 111/111/111 123/123/123
f 122/122/122 28/28/28 11/11/11
f 11/11/11 111/111/111 122/122/122
f 125/125/125 126/126/126 127/127/127
f 128/128/128 125/125/125 129/129/129
f 130/130/130 131/131/131 132/132/132
f 133/133/133 134/134/134 130/130/130
f 125/125/125 128/128/128 126/126/126
f 135/135/135 136/136/136 137/137/137
f 138/138/138 139/139/139 140/140/140
f 141/141/141 142/142/142 138/138/138
f 143/143/143 144/144/144 138/138/138
f 136/136/136 144/144/144 143/143/143
f 143/143/143 137/137/137 136/136/136
f 131/131/131 145/145/145 142/142/142
f 142/142/142 146/146/146 147/147/147
f 148/148/148 131/131/131 142/142/142
f 145/145/145 131/131/131 126/126/126
f 126/126/126 131/131/131 130/130/130
f 130/130/130 127/127/127 126/126/126
f 128/128/128 145/145/145 126/126/126
f 138/138/138 142/142/142 145/145/145
f 145/145/145 143/143/143 138/138/138
f 145/145/145 128/128/128 137/137/137
f 137/137/137 143/143/143 145/145/145
f 135/135/135 137/137/137 128/128/128
f 128/128/128 129/129/129 135/135/135
f 124/124/124 35/35/35 34/34/34
f 149/149/149 150/150/150 151/151/151
f 151/151/151 152/152/152 149/149/149
f 151/151/151 153/153/153 152/152/152
f 154/154/154 155/155/155 156/156/156
f 156/156/156 153/153/153 157/157/157
f 158/158/158 149/149/149 152/152/152
f 152/152/152 159/159/159 160/160/160
f 159/159/159 152/152/152 153/153/153
f 153/153/153 156/156/156 159/159/159
f 161/161/161 153/153/153 162/162/162
f 153/153/153 151/151/151 162/162/162
f 151/151/151 150/150/150 162/162/162
f 153/153/153 163/163/163 164/164/164
f 165/165/165 166/166/166 167/167/167
f 167/167/167 168/168/168 165/165/165
f 80/80/80 83/83/83 169/169/169
f 169/169/169 170/170/170 80/80/80
f 80/80/80 170/170/170 171/171/171
f 169/169/169 172/172/172 170/170/170
f 86/86/86 88/88/88 173/173/173
f 89/89/89 91/91/91 174/174/174
f 175/175/175 176/176/176 177/177/177
f 177/177/177 170/170/170 172/172/172
f 178/178/178 171/171/171 170/170/170
f 170/170/170 177/177/177 179/179/179
f 180/180/180 177/177/177 181/181/181
f 182/182/182 183/183/183 184/184/184
f 185/185/185 177/177/177 183/183/183
f 177/177/177 172/172/172 183/183/183
f 173/173/173 174/174/174 183/183/183
f 174/174/174 91/91/91 183/183/183
f 80/80/80 171/171/171 98/98/98
f 171/171/171 186/186/186 187/187/187
f 172/172/172 169/169/169 173/173/173
f 173/173/173 183/183/183 172/172/172
f 173/173/173 169/169/169 83/83/83
f 83/83/83 86/86/86 173/173/173
f 89/89/89 174/174/174 173/173/173
f 173/173/173 88/88/88 89/89/89
f 188/188/188 189/189/189 102/102/102
f 102/102/102 101/101/101 188/188/188
f 188/188/188 101/101/101 105/105/105
f 105/105/105 190/190/190 188/188/188
f 190/190/190 105/105/105 107/107/107
f 107/107/107 191/191/191 190/190/190
f 192/192/192 193/193/193 194/194/194
f 194/194/194 195/195/195 192/192/192
f 196/196/196 192/192/192 195/195/195
f 195/195/195 197/197/197 196/196/196
f 198/198/198 199/199/199 194/194/194
f 194/194/194 200/200/200 198/198/198
f 196/196/196 197/197/197 199/199/199
f 199/199/199 198/198/198 196/196/196
f 201/201/201 202/202/202 203/203/203
f 204/204/204 203/203/203 202/202/202
f 205/205/205 206/206/206 207/207/207
f 208/208/208 207/207/207 206/206/206
f 209/209/209 210/210/210 211/211/211
f 212/212/212 211/211/211 210/210/210
f 213/213/213 210/210/210 214/214/214
f 209/209/209 214/214/214 210/210/210
f 215/215/215 213/213/213 216/216/216
f 214/214/214 216/216/216 213/213/213
f 217/217/217 218/218/218 219/219/219
f 220/220/220 219/219/219 218/218/218
f 220/220/220 218/218/218 221/221/221
f 222/222/222 221/221/221 218/218/218
f 221/221/221 222/222/222 223/223/223
f 224/224/224 223/223/223 222/222/222
