mtllib h206_xlaa1.mtl
o h206_xlaa1_part_0
v 2.81576657 -0.133839741 7.23571469E-09
v 2.645955 -0.133839741 -0.9630488
v 2.645955 0.188240841 -0.9630488
v 2.81576657 0.188240841 7.23571469E-09
v 2.15700173 -0.133839741 -1.80993974
v 2.15700173 0.188240841 -1.80993974
v 1.407883 -0.133839741 -2.43852544
v 1.407883 0.188240841 -2.43852544
v 0.488952518 -0.133839741 -2.7729888
v 0.488952518 0.188240841 -2.7729888
v -0.488953024 -0.133839741 -2.77298856
v -0.488953024 0.188240841 -2.77298856
v -1.40788329 -0.133839741 -2.438525
v -1.40788329 0.188240841 -2.438525
v -2.15700221 -0.133839741 -1.8099395
v -2.15700221 0.188240841 -1.8099395
v -2.645955 -0.133839741 -0.9630485
v -2.645955 0.188240841 -0.9630485
v -2.81576657 -0.133839741 5.05146943E-07
v -2.81576657 0.188240841 5.05146943E-07
v -2.64595485 -0.133839741 0.963049352
v -2.64595485 0.188240841 0.963049352
v -2.157002 -0.133839741 1.80994034
v -2.157002 0.188240841 1.80994034
v -1.40788245 -0.133839741 2.43852568
v -1.40788245 0.188240841 2.43852568
v -0.488951981 -0.133839741 2.7729888
v -0.488951981 0.188240841 2.7729888
v 0.488953441 -0.133839741 2.77298832
v 0.488953441 0.188240841 2.77298832
v 1.407884 -0.133839741 2.43852472
v 1.407884 0.188240841 2.43852472
v 2.15700316 -0.133839741 1.80993915
v 2.15700316 0.188240841 1.80993915
v 2.64595532 -0.133839741 0.963048
v 2.64595532 0.188240841 0.963048
v -3.81599975 0 3.81602788
v 3.81599975 0 3.81602788
v 3.81599975 0 -3.81602788
v -3.81599975 0 -3.81602788
vt 0.843418837 0.5
vt 0.8227082 0.61926806
vt 0.877568543 0.6395437
vt 0.901800036 0.5
vt 0.7630741 0.7241507
vt 0.8077967 0.7622563
vt 0.6717094 0.8019975
vt 0.7009 0.853337049
vt 0.55963403 0.843418837
vt 0.569771767 0.901800036
vt 0.4403659 0.843418837
vt 0.4302281 0.9018
vt 0.328290522 0.8019974
vt 0.299099922 0.853337
vt 0.23692587 0.7241507
vt 0.192203283 0.762256265
vt 0.177291825 0.61926806
vt 0.122431435 0.639543653
vt 0.156581149 0.49999994
vt 0.09819995 0.49999994
vt 0.17729187 0.380731821
vt 0.122431487 0.360456228
vt 0.236925945 0.275849223
vt 0.192203358 0.237743616
vt 0.328290641 0.198002517
vt 0.299100071 0.146662951
vt 0.44036603 0.156581163
vt 0.430228233 0.09819996
vt 0.559634149 0.156581163
vt 0.569771945 0.09819996
vt 0.671709538 0.198002577
vt 0.700900137 0.14666307
vt 0.76307416 0.275849342
vt 0.8077968 0.237743735
vt 0.8227082 0.38073194
vt 0.8775686 0.3604564
vt 0 0
vt 1 0
vt 1 1
vt 0 1
vn 1 0 -3.4594283E-08
vn 0.9396925 0 -0.342020422
vn 0.9396925 0 -0.342020452
vn 1 0 -3.61275241E-08
vn 0.7660443 0 -0.642787755
vn 0.7660443 0 -0.642787755
vn 0.5000001 0 -0.8660253
vn 0.5000001 0 -0.8660253
vn 0.173648074 0 -0.9848078
vn 0.173648074 0 -0.9848078
vn -0.1736484 0 -0.9848077
vn -0.173648417 0 -0.9848077
vn -0.5000001 0 -0.8660253
vn -0.5000002 0 -0.8660253
vn -0.766044438 0 -0.642787635
vn -0.7660444 0 -0.6427877
vn -0.939692557 0 -0.342020243
vn -0.939692557 0 -0.342020273
vn -1 0 1.16833867E-07
vn -1 0 1.18783269E-07
vn -0.939692557 0 0.342020333
vn -0.939692557 0 0.342020363
vn -0.7660442 0 0.6427879
vn -0.7660442 0 0.6427879
vn -0.499999672 0 0.866025567
vn -0.499999672 0 0.866025567
vn -0.173647881 0 0.9848078
vn -0.173647866 0 0.9848078
vn 0.173648477 0 0.98480767
vn 0.173648492 0 0.98480767
vn 0.50000006 0 0.8660253
vn 0.5000001 0 0.8660253
vn 0.7660446 0 0.642787457
vn 0.7660446 0 0.642787457
vn 0.939692736 0 0.3420199
vn 0.939692736 0 0.3420199
vn 0 1 0
vn 0 1 0
vn 0 1 0
vn 0 1 0
usemtl h206_xlaa1_part_0_material_0
f 1/1/1 2/2/2 3/3/3
f 3/3/3 4/4/4 1/1/1
f 2/2/2 5/5/5 6/6/6
f 6/6/6 3/3/3 2/2/2
f 5/5/5 7/7/7 8/8/8
f 8/8/8 6/6/6 5/5/5
f 7/7/7 9/9/9 10/10/10
f 10/10/10 8/8/8 7/7/7
f 9/9/9 11/11/11 12/12/12
f 12/12/12 10/10/10 9/9/9
f 11/11/11 13/13/13 14/14/14
f 14/14/14 12/12/12 11/11/11
f 13/13/13 15/15/15 16/16/16
f 16/16/16 14/14/14 13/13/13
f 15/15/15 17/17/17 18/18/18
f 18/18/18 16/16/16 15/15/15
f 17/17/17 19/19/19 20/20/20
f 20/20/20 18/18/18 17/17/17
f 19/19/19 21/21/21 22/22/22
f 22/22/22 20/20/20 19/19/19
f 21/21/21 23/23/23 24/24/24
f 24/24/24 22/22/22 21/21/21
f 23/23/23 25/25/25 26/26/26
f 26/26/26 24/24/24 23/23/23
f 25/25/25 27/27/27 28/28/28
f 28/28/28 26/26/26 25/25/25
f 27/27/27 29/29/29 30/30/30
f 30/30/30 28/28/28 27/27/27
f 29/29/29 31/31/31 32/32/32
f 32/32/32 30/30/30 29/29/29
f 31/31/31 33/33/33 34/34/34
f 34/34/34 32/32/32 31/31/31
f 33/33/33 35/35/35 36/36/36
f 36/36/36 34/34/34 33/33/33
f 35/35/35 1/1/1 4/4/4
f 4/4/4 36/36/36 35/35/35
f 37/37/37 38/38/38 39/39/39
f 39/39/39 40/40/40 37/37/37
