mtllib toil.mtl
o toil_part_0
v 0.755189836 0.413238466 1.0055927
v 0.322012573 0.8947397 0.0009804192
v 0.514620543 0.6521245 1.28948808
v 1.12211573 0.05911076 1.5186044
v 0.7599551 0.271111131 2.12700939
v 2.476631E-07 1.013295 0.01724894
v 3.929074E-07 0.840300262 1.607857
v 5.26716235E-07 0.4017645 2.7336998
v 1.70307982 -0.331071615 1.87058592
v 1.26829541 -0.334264755 2.77945232
v 6.18934E-07 -0.3214923 3.634862
v -0.7551889 0.413238466 1.00559258
v -0.5146196 0.652124465 1.28948784
v -0.322011977 0.8947396 0.0009802592
v -1.1221149 0.05911076 1.51860416
v -0.7599541 0.271111131 2.12700915
v -1.70307887 -0.3310715 1.87058568
v -1.2682941 -0.334264755 2.779452
vt 0.7973188 0.5723876
vt 0.625359535 0.937992752
vt 0.692397654 0.536877334
vt 0.9084412 0.343921661
vt 0.7639815 0.240337253
vt 0.492638826 0.9385187
vt 0.4929944 0.486503839
vt 0.4929944 0.118640363
vt 1.06438446 0.167210937
vt 0.930099 -0.06228888
vt 0.4929944 -0.254130721
vt 0.7973188 0.5723876
vt 0.692397654 0.536877334
vt 0.625359535 0.937992752
vt 0.9084412 0.343921661
vt 0.7639815 0.240337253
vt 1.06438446 0.167210937
vt 0.930099 -0.06228888
vn 0.7093969 0.7047626 0.008105661
vn 0.4146294 0.90354085 0.108149759
vn 0.556105852 0.8214937 0.1260731
vn 0.6139603 0.7866786 0.0647260249
vn 0.50224936 0.824318051 0.261238039
vn -2.70104181E-07 0.992117763 0.125309154
vn -1.75574712E-07 0.9626992 0.270574033
vn -6.45054143E-08 0.874449551 0.4851165
vn 0.5632976 0.8073051 0.175938353
vn 0.492592871 0.7737914 0.398245126
vn -3.486324E-08 0.7798854 0.625922263
vn -0.7093969 0.704762638 0.008105735
vn -0.5561059 0.8214936 0.126073152
vn -0.4146298 0.9035407 0.108149767
vn -0.6139602 0.786678731 0.06472609
vn -0.5022494 0.824318 0.2612381
vn -0.5632975 0.8073051 0.175938517
vn -0.492592871 0.7737913 0.398245245
usemtl toil_part_0_material_0
f 1/1/1 2/2/2 3/3/3
f 4/4/4 3/3/3 5/5/5
f 3/3/3 4/4/4 1/1/1
f 6/6/6 3/3/3 2/2/2
f 3/3/3 6/6/6 7/7/7
f 3/3/3 8/8/8 5/5/5
f 8/8/8 3/3/3 7/7/7
f 9/9/9 5/5/5 10/10/10
f 5/5/5 9/9/9 4/4/4
f 10/10/10 8/8/8 11/11/11
f 8/8/8 10/10/10 5/5/5
f 12/12/12 13/13/13 14/14/14
f 15/15/15 16/16/16 13/13/13
f 13/13/13 12/12/12 15/15/15
f 6/6/6 14/14/14 13/13/13
f 13/13/13 7/7/7 6/6/6
f 13/13/13 16/16/16 8/8/8
f 8/8/8 7/7/7 13/13/13
f 17/17/17 18/18/18 16/16/16
f 16/16/16 15/15/15 17/17/17
f 18/18/18 11/11/11 8/8/8
f 8/8/8 16/16/16 18/18/18
