mtllib 01010002.mtl
o 01010002_part_0
v 0.0316098444 -0.05673746 1.43157256
v 0.0213277433 -0.0406772122 0.278629452
v 0.0177329872 0.0297084413 0.304718643
v 0.0177329872 0.0297084413 0.304718643
v 0.0200050753 0.03156763 1.43269181
v 0.0316098444 -0.05673746 1.43157256
v 0.0200050753 0.03156763 1.43269181
v 0.008055133 -0.05595304 1.63095737
v 0.0316098444 -0.05673746 1.43157256
v 0.03670359 0.0341158174 0.233854637
v -0.0120957382 0.06239013 0.234212846
v 0.0004651274 0.0392100923 0.233919039
v 0.04827649 0.0151002984 0.175242186
v 0.05516935 0.0538356751 0.162976891
v 0.05516941 0.0529341958 0.234093174
v 0.04827649 0.0151002984 0.175242186
v -0.0161067322 0.02415108 0.1753569
v 0.05516935 0.0538356751 0.162976891
v -0.0161067322 0.02415108 0.1753569
v 0.04827649 0.0151002984 0.175242186
v 0.0150578767 0.0123179322 0.175465524
v 0.04827649 0.0151002984 0.175242186
v 0.0343210772 -0.0412224419 0.177522838
v 0.0150578767 0.0123179322 0.175465524
v 0.0348960347 -0.0351958722 -0.304292142
v 0.0147283245 0.0160487853 -0.3036426
v 0.0150578767 0.0123179322 0.175465524
v 0.0150578767 0.0123179322 0.175465524
v 0.0343210772 -0.0412224419 0.177522838
v 0.0348960347 -0.0351958722 -0.304292142
v -0.0120957382 0.06239013 0.234212846
v 0.05516941 0.0529341958 0.234093174
v 0.009482205 0.09407898 0.219948515
v 0.0431147851 0.08935102 0.219888583
v 0.0431147851 0.08935102 0.219888583
v 0.05516941 0.0529341958 0.234093174
v 0.05516935 0.0538356751 0.162976891
v 0.0431147479 0.08987039 0.178918555
v 0.05516935 0.0538356751 0.162976891
v -0.0120957894 0.06329159 0.16309683
v 0.0431147479 0.08987039 0.178918555
v 0.009482189 0.0945983455 0.178978458
v 0.0543311536 0.110127613 0.2343198
v 0.004479257 0.117135569 0.234408677
v 0.009482205 0.09407898 0.219948515
v 0.0431147851 0.08935102 0.219888583
v 0.05433112 0.110968515 0.167977318
v 0.0543311536 0.110127613 0.2343198
v 0.0431147851 0.08935102 0.219888583
v 0.0431147479 0.08987039 0.178918555
v 0.004479226 0.1179766 0.168066189
v 0.05433112 0.110968515 0.167977318
v 0.0431147479 0.08987039 0.178918555
v 0.009482189 0.0945983455 0.178978458
v 0.004479257 0.117135569 0.234408677
v 0.0543311536 0.110127613 0.2343198
v 0.0597285032 0.148515716 0.234806433
v 0.05972845 0.1493567 0.168463871
v 0.0597285032 0.148515716 0.234806433
v 0.0543311536 0.110127613 0.2343198
v 0.05433112 0.110968515 0.167977318
v 0.009876573 0.156364754 0.168552846
v 0.05972845 0.1493567 0.168463871
v 0.05433112 0.110968515 0.167977318
v 0.004479226 0.1179766 0.168066189
v 0.05972845 0.1493567 0.168463871
v 0.009876573 0.156364754 0.168552846
v 0.0161080733 0.155387968 0.176486909
v 0.009876607 0.155523777 0.234895453
v 0.009876607 0.155523777 0.234895453
v 0.0534970425 0.149497464 0.226475179
v 0.0161080677 0.154753521 0.226541951
v 0.0597285032 0.148515716 0.234806433
v 0.05349698 0.150131986 0.176420137
v 0.0545326024 0.156862825 0.22656852
v 0.0171436314 0.1621189 0.226635322
v 0.0161080677 0.154753521 0.226541951
v 0.0534970425 0.149497464 0.226475179
v 0.05453254 0.157497346 0.176513508
v 0.0545326024 0.156862825 0.22656852
v 0.0534970425 0.149497464 0.226475179
v 0.05349698 0.150131986 0.176420137
v 0.0171436369 0.162753344 0.17658028
v 0.05453254 0.157497346 0.176513508
v 0.05349698 0.150131986 0.176420137
v 0.0161080733 0.155387968 0.176486909
v 0.05453254 0.157497346 0.176513508
v 0.0171436369 0.162753344 0.17658028
v 0.0171436314 0.1621189 0.226635322
v 0.0545326024 0.156862825 0.22656852
v 0.04827649 0.0151002984 0.175242186
v 0.04009758 -0.04203449 0.177512541
v 0.0343210772 -0.0412224419 0.177522838
v 0.04009758 -0.04203449 0.177512541
v 0.04827649 0.0151002984 0.175242186
v 0.05516941 0.0529341958 0.234093174
v 0.05516941 0.0529341958 0.234093174
v 0.0177329872 0.0297084413 0.304718643
v 0.0213277433 -0.0406772122 0.278629452
v 0.014677912 0.008298987 0.279250383
v 0.014677912 0.008298987 0.279250383
v 0.0213277433 -0.0406772122 0.278629452
v 0.0213277321 -0.0402499065 0.24492009
v 0.014677885 0.008726247 0.245540872
v 0.014677885 0.008726247 0.245540872
v 0.0213277321 -0.0402499065 0.24492009
v 0.0367036052 0.0339636244 0.245860711
v 0.000465135556 0.03905791 0.245925277
v 0.03670359 0.0341158174 0.233854637
v 0.0004651274 0.0392100923 0.233919039
v 0.0367036052 0.0339636244 0.245860711
v 0.000465135556 0.03905791 0.245925277
v 0.0213277433 -0.0406772122 0.278629452
v 0.0316098444 -0.05673746 1.43157256
v -0.00162447547 -0.107969768 0.3029735
v -0.003895073 -0.138419971 1.43053722
v -0.00162447547 -0.107969768 0.3029735
v 0.0316098444 -0.05673746 1.43157256
v 0.008055133 -0.05595304 1.63095737
v -0.003895073 -0.138419971 1.43053722
v 0.0316098444 -0.05673746 1.43157256
v -0.039061 -0.12939781 0.231781974
v 0.0156432856 -0.115673736 0.231955975
v -0.020595178 -0.110579446 0.232020363
v 0.0282041114 -0.137952268 0.160545871
v 0.03221507 -0.09913514 0.173794091
v 0.0282041486 -0.138853773 0.231662154
v -0.0390610248 -0.128496364 0.16066581
v -0.03216816 -0.09008437 0.173908949
v 0.0282041114 -0.137952268 0.160545871
v 0.03221507 -0.09913514 0.173794091
v 0.0343210772 -0.0412224419 0.177522838
v 0.03221507 -0.09913514 0.173794091
v 0.00105046935 -0.08730847 0.1742027
v 0.00137945742 -0.07889382 -0.304846048
v 0.0348960347 -0.0351958722 -0.304292142
v 0.00105046935 -0.08730847 0.1742027
v 0.0343210772 -0.0412224419 0.177522838
v 0.00105046935 -0.08730847 0.1742027
v 0.0348960347 -0.0351958722 -0.304292142
v 0.04009758 -0.04203449 0.177512541
v 0.03221507 -0.09913514 0.173794091
v 0.0343210772 -0.0412224419 0.177522838
v 0.03221507 -0.09913514 0.173794091
v 0.04009758 -0.04203449 0.177512541
v 0.0282041486 -0.138853773 0.231662154
v 0.03670359 0.0341158174 0.233854637
v 0.0156432875 -0.115825959 0.243962049
v 0.0156432856 -0.115673736 0.231955975
v 0.0282041486 -0.138853773 0.231662154
v 0.05516941 0.0529341958 0.234093174
v 0.0282041486 -0.138853773 0.231662154
v 0.04009758 -0.04203449 0.177512541
v 0.0213277433 -0.0406772122 0.278629452
v -0.00162447547 -0.107969768 0.3029735
v 0.001430561 -0.08592158 0.2780561
v 0.0213277433 -0.0406772122 0.278629452
v 0.001430561 -0.08592158 0.2780561
v 0.0213277321 -0.0402499065 0.24492009
v 0.00143054721 -0.0854942352 0.244346559
v 0.00143054721 -0.0854942352 0.244346559
v 0.0156432875 -0.115825959 0.243962049
v -0.02059518 -0.110731669 0.244026631
v 0.0367036052 0.0339636244 0.245860711
v -0.020595178 -0.110579446 0.232020363
v 0.0156432856 -0.115673736 0.231955975
v 0.0156432875 -0.115825959 0.243962049
v -0.02059518 -0.110731669 0.244026631
v -0.00521926768 -0.03694531 0.278676748
v -0.0154998433 -0.0501149632 1.43165648
v 0.0177329872 0.0297084413 0.304718643
v 0.0200050753 0.03156763 1.43269181
v 0.0177329872 0.0297084413 0.304718643
v -0.0154998433 -0.0501149632 1.43165648
v 0.008055133 -0.05595304 1.63095737
v 0.0200050753 0.03156763 1.43269181
v -0.0154998433 -0.0501149632 1.43165648
v -0.0120957894 0.06329159 0.16309683
v -0.0161067322 0.02415108 0.1753569
v -0.0120957382 0.06239013 0.234212846
v -0.0120957894 0.06329159 0.16309683
v -0.0182127133 -0.0338374265 0.177616417
v -0.0161067322 0.02415108 0.1753569
v 0.0150578767 0.0123179322 0.175465524
v 0.0147283245 0.0160487853 -0.3036426
v -0.0187882576 -0.0276491176 -0.304196477
v 0.0150578767 0.0123179322 0.175465524
v -0.0182127133 -0.0338374265 0.177616417
v 0.0150578767 0.0123179322 0.175465524
v -0.0187882576 -0.0276491176 -0.304196477
v -0.0120957382 0.06239013 0.234212846
v 0.009482205 0.09407898 0.219948515
v -0.0120957894 0.06329159 0.16309683
v 0.009482189 0.0945983455 0.178978458
v 0.004479257 0.117135569 0.234408677
v 0.004479226 0.1179766 0.168066189
v 0.009482205 0.09407898 0.219948515
v 0.009482189 0.0945983455 0.178978458
v 0.009876607 0.155523777 0.234895453
v 0.009876573 0.156364754 0.168552846
v 0.004479257 0.117135569 0.234408677
v 0.004479226 0.1179766 0.168066189
v 0.0171436314 0.1621189 0.226635322
v 0.0171436369 0.162753344 0.17658028
v 0.0161080677 0.154753521 0.226541951
v 0.0161080733 0.155387968 0.176486909
v -0.02398922 -0.0330253839 0.177626729
v -0.0161067322 0.02415108 0.1753569
v -0.0182127133 -0.0338374265 0.177616417
v -0.0161067322 0.02415108 0.1753569
v -0.02398922 -0.0330253839 0.177626729
v -0.0120957382 0.06239013 0.234212846
v -0.020595178 -0.110579446 0.232020363
v 0.000465135556 0.03905791 0.245925277
v 0.0004651274 0.0392100923 0.233919039
v -0.039061 -0.12939781 0.231781974
v -0.0120957382 0.06239013 0.234212846
v -0.02398922 -0.0330253839 0.177626729
v -0.00521926768 -0.03694531 0.278676748
v 0.0177329872 0.0297084413 0.304718643
v 0.014677912 0.008298987 0.279250383
v -0.00521926768 -0.03694531 0.278676748
v 0.014677912 0.008298987 0.279250383
v -0.005219287 -0.03651803 0.244967386
v 0.014677885 0.008726247 0.245540872
v -0.005219287 -0.03651803 0.244967386
v -0.02059518 -0.110731669 0.244026631
v -0.0154998433 -0.0501149632 1.43165648
v -0.00521926768 -0.03694531 0.278676748
v -0.00162447547 -0.107969768 0.3029735
v -0.00162447547 -0.107969768 0.3029735
v -0.003895073 -0.138419971 1.43053722
v -0.0154998433 -0.0501149632 1.43165648
v -0.003895073 -0.138419971 1.43053722
v 0.008055133 -0.05595304 1.63095737
v -0.0154998433 -0.0501149632 1.43165648
v -0.03216816 -0.09008437 0.173908949
v -0.0390610248 -0.128496364 0.16066581
v -0.039061 -0.12939781 0.231781974
v 0.03221507 -0.09913514 0.173794091
v -0.03216816 -0.09008437 0.173908949
v 0.00105046935 -0.08730847 0.1742027
v -0.03216816 -0.09008437 0.173908949
v -0.0182127133 -0.0338374265 0.177616417
v 0.00105046935 -0.08730847 0.1742027
v -0.0187882576 -0.0276491176 -0.304196477
v 0.00137945742 -0.07889382 -0.304846048
v 0.00105046935 -0.08730847 0.1742027
v 0.00105046935 -0.08730847 0.1742027
v -0.0182127133 -0.0338374265 0.177616417
v -0.0187882576 -0.0276491176 -0.304196477
v -0.03216816 -0.09008437 0.173908949
v -0.02398922 -0.0330253839 0.177626729
v -0.0182127133 -0.0338374265 0.177616417
v -0.02398922 -0.0330253839 0.177626729
v -0.03216816 -0.09008437 0.173908949
v -0.039061 -0.12939781 0.231781974
v -0.00162447547 -0.107969768 0.3029735
v -0.00521926768 -0.03694531 0.278676748
v 0.001430561 -0.08592158 0.2780561
v 0.001430561 -0.08592158 0.2780561
v -0.00521926768 -0.03694531 0.278676748
v -0.005219287 -0.03651803 0.244967386
v 0.00143054721 -0.0854942352 0.244346559
v 0.0282041486 -0.138853773 0.231662154
v -0.039061 -0.12939781 0.231781974
v 0.00662620366 -0.170170859 0.216599211
v -0.02700639 -0.165442839 0.216659114
v -0.02700639 -0.165442839 0.216659114
v -0.039061 -0.12939781 0.231781974
v -0.0390610248 -0.128496364 0.16066581
v -0.0270063989 -0.1649236 0.175688967
v -0.0390610248 -0.128496364 0.16066581
v 0.0282041114 -0.137952268 0.160545871
v -0.0270063989 -0.1649236 0.175688967
v 0.006626166 -0.169651508 0.17562905
v -0.0382227339 -0.186578542 0.230559081
v 0.0116291735 -0.1935866 0.230470076
v 0.00662620366 -0.170170859 0.216599211
v -0.02700639 -0.165442839 0.216659114
v -0.0382227637 -0.185737655 0.1642164
v -0.0382227339 -0.186578542 0.230559081
v -0.02700639 -0.165442839 0.216659114
v -0.0270063989 -0.1649236 0.175688967
v 0.0116291251 -0.192745626 0.164127588
v -0.0382227637 -0.185737655 0.1642164
v -0.0270063989 -0.1649236 0.175688967
v 0.006626166 -0.169651508 0.17562905
v 0.0116291735 -0.1935866 0.230470076
v -0.0382227339 -0.186578542 0.230559081
v -0.04362008 -0.22496669 0.230072483
v -0.0436201058 -0.224125817 0.163729832
v -0.04362008 -0.22496669 0.230072483
v -0.0382227339 -0.186578542 0.230559081
v -0.0382227637 -0.185737655 0.1642164
v 0.006231781 -0.231133774 0.163641021
v -0.0436201058 -0.224125817 0.163729832
v -0.0382227637 -0.185737655 0.1642164
v 0.0116291251 -0.192745626 0.164127588
v -0.0436201058 -0.224125817 0.163729832
v 0.006231781 -0.231133774 0.163641021
v 2.93271967E-07 -0.230358481 0.171597287
v 0.006231831 -0.231974751 0.229983509
v 0.006231831 -0.231974751 0.229983509
v -0.03738861 -0.225736946 0.221719027
v 3.57379E-07 -0.230993032 0.221652254
v -0.04362008 -0.22496669 0.230072483
v -0.0373886 -0.225102514 0.17166391
v -0.0384241864 -0.233102322 0.221625656
v -0.00103521114 -0.238358408 0.221558884
v 3.57379E-07 -0.230993032 0.221652254
v -0.03738861 -0.225736946 0.221719027
v -0.0384241827 -0.23246789 0.171570554
v -0.0384241864 -0.233102322 0.221625656
v -0.03738861 -0.225736946 0.221719027
v -0.0373886 -0.225102514 0.17166391
v -0.00103527436 -0.237723857 0.171503931
v -0.0384241827 -0.23246789 0.171570554
v -0.0373886 -0.225102514 0.17166391
v 2.93271967E-07 -0.230358481 0.171597287
v -0.0384241827 -0.23246789 0.171570554
v -0.00103527436 -0.237723857 0.171503931
v -0.00103521114 -0.238358408 0.221558884
v -0.0384241864 -0.233102322 0.221625656
v 0.0282041486 -0.138853773 0.231662154
v 0.00662620366 -0.170170859 0.216599211
v 0.0282041114 -0.137952268 0.160545871
v 0.006626166 -0.169651508 0.17562905
v 0.0116291735 -0.1935866 0.230470076
v 0.0116291251 -0.192745626 0.164127588
v 0.00662620366 -0.170170859 0.216599211
v 0.006626166 -0.169651508 0.17562905
v 0.006231831 -0.231974751 0.229983509
v 0.006231781 -0.231133774 0.163641021
v 0.0116291735 -0.1935866 0.230470076
v 0.0116291251 -0.192745626 0.164127588
v -0.00103521114 -0.238358408 0.221558884
v -0.00103527436 -0.237723857 0.171503931
v 3.57379E-07 -0.230993032 0.221652254
v 2.93271967E-07 -0.230358481 0.171597287
v 0.0454434827 -0.0362931974 -0.334714085
v 0.01745387 0.0358194523 -0.3338001
v 0.0147283245 0.0160487853 -0.3036426
v 0.03656496 -0.03485326 -0.349831939
v 0.0156685933 0.0233137254 -0.349094868
v 0.01745387 0.0358194523 -0.3338001
v 0.042484533 -0.0352008268 -0.388071328
v 0.01740717 0.0361639559 -0.387166739
v 0.0156685933 0.0233137254 -0.349094868
v 0.01740717 0.0361639559 -0.387166739
v 0.042484533 -0.0352008268 -0.388071328
v 0.008053827 -0.0299323536 -0.42180118
v -0.00134610687 -0.09789368 -0.335494876
v 0.0454434827 -0.0362931974 -0.334714085
v 0.00137945742 -0.07889382 -0.304846048
v 0.000439148163 -0.08500432 -0.350467831
v 0.03656496 -0.03485326 -0.349831939
v -0.00134610687 -0.09789368 -0.335494876
v -0.00129948335 -0.0968853757 -0.388853163
v 0.042484533 -0.0352008268 -0.388071328
v 0.000439148163 -0.08500432 -0.350467831
v 0.042484533 -0.0352008268 -0.388071328
v -0.00129948335 -0.0968853757 -0.388853163
v 0.008053827 -0.0299323536 -0.42180118
v 0.0147283245 0.0160487853 -0.3036426
v 0.0348960347 -0.0351958722 -0.304292142
v 0.0454434827 -0.0362931974 -0.334714085
v 0.01745387 0.0358194523 -0.3338001
v 0.0454434827 -0.0362931974 -0.334714085
v 0.03656496 -0.03485326 -0.349831939
v 0.0156685933 0.0233137254 -0.349094868
v 0.03656496 -0.03485326 -0.349831939
v 0.042484533 -0.0352008268 -0.388071328
v 0.0348960347 -0.0351958722 -0.304292142
v 0.00137945742 -0.07889382 -0.304846048
v 0.0454434827 -0.0362931974 -0.334714085
v 0.0454434827 -0.0362931974 -0.334714085
v -0.00134610687 -0.09789368 -0.335494876
v 0.03656496 -0.03485326 -0.349831939
v 0.03656496 -0.03485326 -0.349831939
v 0.000439148163 -0.08500432 -0.350467831
v 0.042484533 -0.0352008268 -0.388071328
v 0.01745387 0.0358194523 -0.3338001
v -0.0293357223 -0.0257809963 -0.3345809
v 0.0147283245 0.0160487853 -0.3036426
v 0.0156685933 0.0233137254 -0.349094868
v -0.0204572249 -0.0268372837 -0.349730343
v 0.01745387 0.0358194523 -0.3338001
v 0.01740717 0.0361639559 -0.387166739
v -0.0263768174 -0.0255205426 -0.3879486
v 0.0156685933 0.0233137254 -0.349094868
v -0.0263768174 -0.0255205426 -0.3879486
v 0.01740717 0.0361639559 -0.387166739
v 0.008053827 -0.0299323536 -0.42180118
v -0.0293357223 -0.0257809963 -0.3345809
v -0.00134610687 -0.09789368 -0.335494876
v 0.00137945742 -0.07889382 -0.304846048
v -0.0204572249 -0.0268372837 -0.349730343
v 0.000439148163 -0.08500432 -0.350467831
v -0.00134610687 -0.09789368 -0.335494876
v -0.0263768174 -0.0255205426 -0.3879486
v -0.00129948335 -0.0968853757 -0.388853163
v 0.000439148163 -0.08500432 -0.350467831
v -0.00129948335 -0.0968853757 -0.388853163
v -0.0263768174 -0.0255205426 -0.3879486
v 0.008053827 -0.0299323536 -0.42180118
v -0.0187882576 -0.0276491176 -0.304196477
v 0.0147283245 0.0160487853 -0.3036426
v -0.0293357223 -0.0257809963 -0.3345809
v -0.0293357223 -0.0257809963 -0.3345809
v 0.01745387 0.0358194523 -0.3338001
v -0.0204572249 -0.0268372837 -0.349730343
v -0.0204572249 -0.0268372837 -0.349730343
v 0.0156685933 0.0233137254 -0.349094868
v -0.0263768174 -0.0255205426 -0.3879486
v 0.00137945742 -0.07889382 -0.304846048
v -0.0187882576 -0.0276491176 -0.304196477
v -0.0293357223 -0.0257809963 -0.3345809
v -0.00134610687 -0.09789368 -0.335494876
v -0.0293357223 -0.0257809963 -0.3345809
v -0.0204572249 -0.0268372837 -0.349730343
v 0.000439148163 -0.08500432 -0.350467831
v -0.0204572249 -0.0268372837 -0.349730343
v -0.0263768174 -0.0255205426 -0.3879486
v 0.061269857 -0.0609285347 1.43321908
v 0.0510221347 -0.04484012 0.277674615
v 0.021702012 0.05805609 0.295737684
v 0.021702012 0.05805609 0.295737684
v 0.0241178013 0.0607539 1.43828166
v 0.061269857 -0.0609285347 1.43321908
v 0.0241178013 0.0607539 1.43828166
v 0.008055017 -0.05633329 1.68030488
v 0.061269857 -0.0609285347 1.43321908
v 0.021702012 0.05805609 0.295737684
v 0.0510221347 -0.04484012 0.277674615
v 0.018668564 0.03679439 0.27076
v 0.018668564 0.03679439 0.27076
v 0.0510221347 -0.04484012 0.277674615
v 0.0510355569 -0.044426132 0.244867131
v 0.018668564 0.03679439 0.27076
v 0.0510355569 -0.044426132 0.244867131
v 0.0188544244 0.03843171 0.24591738
v 0.0510221347 -0.04484012 0.277674615
v 0.061269857 -0.0609285347 1.43321908
v -0.005593488 -0.136080667 0.293276876
v -0.008008078 -0.167738542 1.43538547
v -0.005593488 -0.136080667 0.293276876
v 0.061269857 -0.0609285347 1.43321908
v 0.008055017 -0.05633329 1.68030488
v -0.008008078 -0.167738542 1.43538547
v 0.061269857 -0.0609285347 1.43321908
v 0.0510221347 -0.04484012 0.277674615
v -0.005593488 -0.136080667 0.293276876
v -0.00256010029 -0.11419262 0.268846154
v 0.0510221347 -0.04484012 0.277674615
v -0.00256010029 -0.11419262 0.268846154
v 0.0510355569 -0.044426132 0.244867131
v 0.0510355569 -0.044426132 0.244867131
v -0.00256010029 -0.11419262 0.268846154
v -0.00274604117 -0.1151997 0.243969962
v -0.0349137075 -0.03275953 0.27782768
v -0.04516011 -0.04596699 1.43340874
v 0.021702012 0.05805609 0.295737684
v 0.0241178013 0.0607539 1.43828166
v 0.021702012 0.05805609 0.295737684
v -0.04516011 -0.04596699 1.43340874
v 0.008055017 -0.05633329 1.68030488
v 0.0241178013 0.0607539 1.43828166
v -0.04516011 -0.04596699 1.43340874
v -0.0349137075 -0.03275953 0.27782768
v 0.021702012 0.05805609 0.295737684
v 0.018668564 0.03679439 0.27076
v -0.0349137075 -0.03275953 0.27782768
v 0.018668564 0.03679439 0.27076
v -0.0349271558 -0.0323417932 0.24502033
v -0.0349271558 -0.0323417932 0.24502033
v 0.018668564 0.03679439 0.27076
v 0.0188544244 0.03843171 0.24591738
v -0.04516011 -0.04596699 1.43340874
v -0.0349137075 -0.03275953 0.27782768
v -0.005593488 -0.136080667 0.293276876
v -0.005593488 -0.136080667 0.293276876
v -0.008008078 -0.167738542 1.43538547
v -0.04516011 -0.04596699 1.43340874
v -0.008008078 -0.167738542 1.43538547
v 0.008055017 -0.05633329 1.68030488
v -0.04516011 -0.04596699 1.43340874
v -0.005593488 -0.136080667 0.293276876
v -0.0349137075 -0.03275953 0.27782768
v -0.00256010029 -0.11419262 0.268846154
v -0.00256010029 -0.11419262 0.268846154
v -0.0349137075 -0.03275953 0.27782768
v -0.0349271558 -0.0323417932 0.24502033
v -0.00256010029 -0.11419262 0.268846154
v -0.0349271558 -0.0323417932 0.24502033
v -0.00274604117 -0.1151997 0.243969962
vt 0.0752795 0.853330255
vt 0.07527951 0.0317137837
vt 0.12202584 0.0496666431
vt 0.12202584 0.0496666431
vt 0.142019182 0.853330255
vt 0.0752795 0.853330255
vt 0.142019182 0.853330255
vt 0.0752795041 0.995384753
vt 0.0752795 0.853330255
vt 0.467027128 0.8549356
vt 0.527989566 0.9504613
vt 0.467027128 0.9218262
vt 0.438981742 0.719801366
vt 0.52732265 0.696531
vt 0.527656138 0.826292336
vt 0.439145356 0.6730415
vt 0.439145356 0.556573749
vt 0.525887251 0.675648153
vt 0.439145356 0.556573749
vt 0.439145356 0.6730415
vt 0.4076669 0.6148076
vt 0.439145356 0.6730415
vt 0.352403343 0.662323833
vt 0.4076669 0.6148076
vt 0.272482842 0.0206089616
vt 0.352880776 0.0209505558
vt 0.352880836 0.525525331
vt 0.352880836 0.525525331
vt 0.2711075 0.530666947
vt 0.272482842 0.0206089616
vt 0.605026662 0.9070748
vt 0.605026543 0.7780323
vt 0.675723433 0.874814153
vt 0.675723433 0.810292959
vt 0.676018953 0.7471888
vt 0.605278 0.777519941
vt 0.605278 0.630419731
vt 0.676019 0.662444353
vt 0.605351448 0.6292361
vt 0.605351448 0.500012636
vt 0.676775634 0.5969304
vt 0.676775634 0.5323187
vt 0.821934044 0.5493997
vt 0.821911037 0.6952488
vt 0.7521305 0.671901345
vt 0.7521305 0.573613942
vt 0.8219276 0.3569845
vt 0.821934044 0.5493997
vt 0.7520919 0.5086107
vt 0.752092063 0.389840961
vt 0.8219059 0.211334586
vt 0.8219276 0.3569845
vt 0.752143 0.3336439
vt 0.752143 0.235404611
vt 0.821911037 0.6952488
vt 0.821934044 0.5493997
vt 0.9342994 0.5493044
vt 0.9342993 0.356964469
vt 0.9342994 0.5493044
vt 0.821934044 0.5493997
vt 0.8219276 0.3569845
vt 0.9342993 0.211024523
vt 0.9342993 0.356964469
vt 0.8219276 0.3569845
vt 0.8219059 0.211334586
vt 0.62790525 0.215718508
vt 0.57430476 0.215718508
vt 0.5810049 0.224178791
vt 0.9342994 0.695244431
vt 0.57430476 0.286360621
vt 0.6212056 0.27747798
vt 0.5810049 0.27747798
vt 0.62790525 0.286360621
vt 0.6212056 0.224178791
vt 0.5535867 0.481934667
vt 0.5535867 0.3404957
vt 0.5814515 0.3404957
vt 0.5814515 0.481934667
vt 0.5535867 0.6694592
vt 0.5535867 0.481934667
vt 0.5814515 0.481934667
vt 0.5814515 0.6694592
vt 0.5535867 0.8108979
vt 0.5535867 0.6694592
vt 0.5814515 0.6694592
vt 0.5814515 0.8108979
vt 0.609626949 0.464479446
vt 0.609626949 0.365895569
vt 0.740333 0.365895569
vt 0.740333 0.464479446
vt 0.439145356 0.6730415
vt 0.352403343 0.6727734
vt 0.352403343 0.662323833
vt 0.350640982 0.725264132
vt 0.438981742 0.719801366
vt 0.527656138 0.826292336
vt 0.527656138 0.826292336
vt 0.12202584 0.0496666431
vt 0.07527951 0.0317137837
vt 0.10375338 0.0317138433
vt 0.10375338 0.0317138433
vt 0.07527951 0.0317137837
vt 0.07527951 0.00769197941
vt 0.103753313 0.00769197941
vt 0.749770463 0.7687628
vt 0.8186287 0.7947277
vt 0.695637643 0.8042064
vt 0.695637643 0.7333193
vt 0.955681264 0.5012525
vt 0.9556808 0.392265677
vt 0.9868586 0.5012525
vt 0.9868586 0.392265677
vt 0.07527951 0.0317137837
vt 0.0752795 0.853330255
vt 0.0285331439 0.0496666431
vt 0.00853988 0.853330255
vt 0.0285331439 0.0496666431
vt 0.0752795 0.853330255
vt 0.0752795041 0.995384753
vt 0.00853988 0.853330255
vt 0.0752795 0.853330255
vt 0.173950464 0.9504612
vt 0.234912679 0.854935467
vt 0.234912679 0.921825945
vt 0.173959389 0.696531
vt 0.262300134 0.719801366
vt 0.173954934 0.826292336
vt 0.1789195 0.553967059
vt 0.265661418 0.556573749
vt 0.1789195 0.675648153
vt 0.265661418 0.6730415
vt 0.352403343 0.662323833
vt 0.265661418 0.6730415
vt 0.297139883 0.6148076
vt 0.192084387 0.020516932
vt 0.272482842 0.0206089616
vt 0.189363167 0.5250845
vt 0.2711075 0.530666947
vt 0.189363167 0.5250845
vt 0.272482842 0.0206089616
vt 0.352403343 0.6727734
vt 0.265661418 0.6730415
vt 0.352403343 0.662323833
vt 0.262300134 0.719801366
vt 0.350640982 0.725264132
vt 0.173954934 0.826292336
vt 0.955681264 0.5012525
vt 0.986858666 0.879443765
vt 0.955681264 0.879443765
vt 0.173954934 0.826292336
vt 0.527656138 0.826292336
vt 0.173954934 0.826292336
vt 0.350640982 0.725264132
vt 0.07527951 0.0317137837
vt 0.0285331439 0.0496666431
vt 0.04680567 0.0317138433
vt 0.07527951 0.0317137837
vt 0.04680567 0.0317138433
vt 0.07527951 0.00769197941
vt 0.0468057021 0.00769197941
vt 0.887486935 0.7687628
vt 0.9416198 0.8042064
vt 0.9416198 0.7333193
vt 0.9868586 0.5012525
vt 0.9556808 0.9884307
vt 0.955681264 0.879443765
vt 0.986858666 0.879443765
vt 0.9868586 0.9884307
vt 0.07527951 0.0317137837
vt 0.0752795 0.853330255
vt 0.12202584 0.0496666431
vt 0.142019182 0.853330255
vt 0.12202584 0.0496666431
vt 0.0752795 0.853330255
vt 0.0752795041 0.995384753
vt 0.142019182 0.853330255
vt 0.0752795 0.853330255
vt 0.52732265 0.696531
vt 0.438981742 0.719801366
vt 0.527656138 0.826292336
vt 0.525887251 0.553967059
vt 0.352403343 0.5672914
vt 0.439145356 0.556573749
vt 0.4076669 0.6148076
vt 0.352880776 0.0209505558
vt 0.4332787 0.0206089616
vt 0.352880836 0.525525331
vt 0.434654117 0.530666947
vt 0.352880836 0.525525331
vt 0.4332787 0.0206089616
vt 0.605278 0.777519941
vt 0.676018953 0.7471888
vt 0.605278 0.630419731
vt 0.676019 0.662444353
vt 0.821912348 0.0186550617
vt 0.8219059 0.211334586
vt 0.751804 0.060180068
vt 0.7518041 0.1793583
vt 0.9342993 0.0186843276
vt 0.9342993 0.211024523
vt 0.821912348 0.0186550617
vt 0.8219059 0.211334586
vt 0.5535867 0.9984225
vt 0.5535867 0.8108979
vt 0.5814515 0.9984225
vt 0.5814515 0.8108979
vt 0.352403343 0.55684185
vt 0.439145356 0.556573749
vt 0.352403343 0.5672914
vt 0.438981742 0.719801366
vt 0.350640982 0.725264132
vt 0.527656138 0.826292336
vt 0.955680847 0.0140743256
vt 0.9868586 0.392265677
vt 0.9556808 0.392265677
vt 0.173954934 0.826292336
vt 0.527656138 0.826292336
vt 0.350640982 0.725264132
vt 0.07527951 0.0317137837
vt 0.12202584 0.0496666431
vt 0.10375338 0.0317138433
vt 0.07527951 0.0317137837
vt 0.10375338 0.0317138433
vt 0.07527951 0.00769197941
vt 0.103753313 0.00769197941
vt 0.8186287 0.742798
vt 0.9868587 0.0140743256
vt 0.0752795 0.853330255
vt 0.07527951 0.0317137837
vt 0.0285331439 0.0496666431
vt 0.0285331439 0.0496666431
vt 0.00853988 0.853330255
vt 0.0752795 0.853330255
vt 0.00853988 0.853330255
vt 0.0752795041 0.995384753
vt 0.0752795 0.853330255
vt 0.262300134 0.719801366
vt 0.173959389 0.696531
vt 0.173954934 0.826292336
vt 0.265661418 0.6730415
vt 0.265661418 0.556573749
vt 0.297139883 0.6148076
vt 0.265661418 0.556573749
vt 0.352403343 0.5672914
vt 0.297139883 0.6148076
vt 0.4332787 0.0206089616
vt 0.513677239 0.020516932
vt 0.5163986 0.5250845
vt 0.5163986 0.5250845
vt 0.434654117 0.530666947
vt 0.4332787 0.0206089616
vt 0.265661418 0.556573749
vt 0.352403343 0.55684185
vt 0.352403343 0.5672914
vt 0.350640982 0.725264132
vt 0.262300134 0.719801366
vt 0.173954934 0.826292336
vt 0.0285331439 0.0496666431
vt 0.07527951 0.0317137837
vt 0.04680567 0.0317138433
vt 0.04680567 0.0317138433
vt 0.07527951 0.0317137837
vt 0.07527951 0.00769197941
vt 0.0468057021 0.00769197941
vt 0.605026662 0.9070748
vt 0.605026543 0.7780323
vt 0.675723433 0.874814153
vt 0.675723433 0.810292959
vt 0.676018953 0.7471888
vt 0.605278 0.777519941
vt 0.605278 0.630419731
vt 0.676019 0.662444353
vt 0.605351448 0.6292361
vt 0.605351448 0.500012636
vt 0.676775634 0.5969304
vt 0.676775634 0.5323187
vt 0.821934044 0.5493997
vt 0.821911037 0.6952488
vt 0.7521305 0.671901345
vt 0.7521305 0.573613942
vt 0.8219276 0.3569845
vt 0.821934044 0.5493997
vt 0.7520919 0.5086107
vt 0.752092063 0.389840961
vt 0.8219059 0.211334586
vt 0.8219276 0.3569845
vt 0.752143 0.3336439
vt 0.752143 0.235404611
vt 0.821911037 0.6952488
vt 0.821934044 0.5493997
vt 0.9342994 0.5493044
vt 0.9342993 0.356964469
vt 0.9342994 0.5493044
vt 0.821934044 0.5493997
vt 0.8219276 0.3569845
vt 0.9342993 0.211024523
vt 0.9342993 0.356964469
vt 0.8219276 0.3569845
vt 0.8219059 0.211334586
vt 0.62790525 0.215718508
vt 0.57430476 0.215718508
vt 0.5810049 0.224178791
vt 0.9342994 0.695244431
vt 0.57430476 0.286360621
vt 0.6212056 0.27747798
vt 0.5810049 0.27747798
vt 0.62790525 0.286360621
vt 0.6212056 0.224178791
vt 0.5535867 0.481934667
vt 0.5535867 0.3404957
vt 0.5814515 0.3404957
vt 0.5814515 0.481934667
vt 0.5535867 0.6694592
vt 0.5535867 0.481934667
vt 0.5814515 0.481934667
vt 0.5814515 0.6694592
vt 0.5535867 0.8108979
vt 0.5535867 0.6694592
vt 0.5814515 0.6694592
vt 0.5814515 0.8108979
vt 0.609626949 0.464479446
vt 0.609626949 0.365895569
vt 0.740333 0.365895569
vt 0.740333 0.464479446
vt 0.605278 0.777519941
vt 0.676018953 0.7471888
vt 0.605278 0.630419731
vt 0.676019 0.662444353
vt 0.821912348 0.0186550617
vt 0.8219059 0.211334586
vt 0.751804 0.060180068
vt 0.7518041 0.1793583
vt 0.9342993 0.0186843276
vt 0.9342993 0.211024523
vt 0.821912348 0.0186550617
vt 0.8219059 0.211334586
vt 0.5535867 0.9984225
vt 0.5535867 0.8108979
vt 0.5814515 0.9984225
vt 0.5814515 0.8108979
vt 0.539406061 0.245242655
vt 0.6660055 0.245027065
vt 0.646084666 0.316144943
vt 0.5529913 0.207893372
vt 0.6528535 0.208806276
vt 0.666005433 0.245027
vt 0.544983149 0.120839536
vt 0.6667767 0.121822357
vt 0.652853549 0.208806217
vt 0.6667767 0.121822357
vt 0.544983149 0.120839536
vt 0.5964278 0.0241274238
vt 0.6660055 0.245027065
vt 0.539406061 0.245242655
vt 0.6460846 0.316144943
vt 0.6528535 0.208806276
vt 0.5529913 0.207893372
vt 0.666005433 0.245027
vt 0.6667767 0.121822357
vt 0.544983149 0.120839536
vt 0.652853549 0.208806217
vt 0.544983149 0.120839536
vt 0.6667767 0.121822357
vt 0.5964278 0.0241274238
vt 0.646084666 0.316145
vt 0.555741251 0.316171467
vt 0.539406061 0.245242655
vt 0.6660055 0.245027065
vt 0.539406061 0.245242655
vt 0.5529913 0.207893372
vt 0.6528535 0.208806276
vt 0.5529913 0.207893372
vt 0.544983149 0.120839536
vt 0.555741251 0.316171467
vt 0.6460846 0.316144943
vt 0.539406061 0.245242655
vt 0.539406061 0.245242655
vt 0.666005433 0.245027
vt 0.5529913 0.207893372
vt 0.5529913 0.207893372
vt 0.652853549 0.208806217
vt 0.544983149 0.120839536
vt 0.6660055 0.245027065
vt 0.539406061 0.245242655
vt 0.646084666 0.316144943
vt 0.6528535 0.208806276
vt 0.5529913 0.207893372
vt 0.666005433 0.245027
vt 0.6667767 0.121822357
vt 0.544983149 0.120839536
vt 0.652853549 0.208806217
vt 0.544983149 0.120839536
vt 0.6667767 0.121822357
vt 0.5964278 0.0241274238
vt 0.539406061 0.245242655
vt 0.6660055 0.245027065
vt 0.6460846 0.316144943
vt 0.5529913 0.207893372
vt 0.6528535 0.208806276
vt 0.666005433 0.245027
vt 0.544983149 0.120839536
vt 0.6667767 0.121822357
vt 0.652853549 0.208806217
vt 0.6667767 0.121822357
vt 0.544983149 0.120839536
vt 0.5964278 0.0241274238
vt 0.555741251 0.316171467
vt 0.646084666 0.316145
vt 0.539406061 0.245242655
vt 0.539406061 0.245242655
vt 0.6660055 0.245027065
vt 0.5529913 0.207893372
vt 0.5529913 0.207893372
vt 0.6528535 0.208806276
vt 0.544983149 0.120839536
vt 0.6460846 0.316144943
vt 0.555741251 0.316171467
vt 0.539406061 0.245242655
vt 0.666005433 0.245027
vt 0.539406061 0.245242655
vt 0.5529913 0.207893372
vt 0.652853549 0.208806217
vt 0.5529913 0.207893372
vt 0.544983149 0.120839536
vt 0.467487872 0.172352791
vt 0.5378282 0.9760581
vt 0.9877049 0.9634949
vt 0.9877049 0.9634949
vt 0.9995005 0.1688317
vt 0.467487872 0.172352791
vt 0.9995005 0.1688317
vt 0.487579018 0.0004994869
vt 0.467487872 0.172352791
vt 0.9877049 0.9634949
vt 0.5378282 0.9760581
vt 0.8947457 0.980867445
vt 0.8947457 0.980867445
vt 0.5378282 0.9760581
vt 0.5396382 0.998876452
vt 0.8947457 0.980867445
vt 0.5396382 0.998876452
vt 0.9019043 0.998145938
vt 0.5378282 0.9760581
vt 0.467487872 0.172352791
vt 0.138911784 0.965206444
vt 0.0004995167 0.1708461
vt 0.138911784 0.965206444
vt 0.467487872 0.172352791
vt 0.487579018 0.0004994869
vt 0.0004995167 0.1708461
vt 0.467487872 0.172352791
vt 0.5378282 0.9760581
vt 0.138911784 0.965206444
vt 0.234609365 0.982198536
vt 0.5378282 0.9760581
vt 0.234609365 0.982198536
vt 0.5396382 0.998876452
vt 0.5396382 0.998876452
vt 0.234609365 0.982198536
vt 0.230206281 0.999500453
vt 0.590646267 0.975951731
vt 0.5329018 0.172220945
vt 0.9877049 0.9634949
vt 0.9995005 0.1688317
vt 0.9877049 0.9634949
vt 0.5329018 0.172220945
vt 0.487579018 0.0004994869
vt 0.9995005 0.1688317
vt 0.5329018 0.172220945
vt 0.590646267 0.975951731
vt 0.9877049 0.9634949
vt 0.8947457 0.980867445
vt 0.590646267 0.975951731
vt 0.8947457 0.980867445
vt 0.5924726 0.9987699
vt 0.5924726 0.9987699
vt 0.8947457 0.980867445
vt 0.9019043 0.998145938
vt 0.5329018 0.172220945
vt 0.590646267 0.975951731
vt 0.138911784 0.965206444
vt 0.138911784 0.965206444
vt 0.0004995167 0.1708461
vt 0.5329018 0.172220945
vt 0.0004995167 0.1708461
vt 0.487579018 0.0004994869
vt 0.5329018 0.172220945
vt 0.138911784 0.965206444
vt 0.590646267 0.975951731
vt 0.234609365 0.982198536
vt 0.234609365 0.982198536
vt 0.590646267 0.975951731
vt 0.5924726 0.9987699
vt 0.234609365 0.982198536
vt 0.5924726 0.9987699
vt 0.230206281 0.999500453
vn 0.998506665 0.0540178753 -0.008152278
vn 0.998506665 0.0540178753 -0.008152278
vn 0.998506665 0.0540178753 -0.008152278
vn 0.991469 0.1303238 -0.00221185782
vn 0.991469 0.1303238 -0.00221185782
vn 0.991469 0.1303238 -0.00221185782
vn 0.9849867 0.12797536 0.115859918
vn 0.9849867 0.12797536 0.115859918
vn 0.9849867 0.12797536 0.115859918
vn -4.88875958E-06 -0.0126759559 0.999919653
vn -4.88875958E-06 -0.0126759559 0.999919653
vn -4.88875958E-06 -0.0126759559 0.999919653
vn 0.9844092 -0.175879151 -0.00223017065
vn 0.9844092 -0.175879151 -0.00223017065
vn 0.9844092 -0.175879151 -0.00223017065
vn -0.0431160443 -0.294609368 -0.9546446
vn -0.0431160443 -0.294609368 -0.9546446
vn -0.0431160443 -0.294609368 -0.9546446
vn -0.00487701874 -0.0220222268 -0.9997456
vn -0.00487701874 -0.0220222268 -0.9997456
vn -0.00487701874 -0.0220222268 -0.9997456
vn -0.00339958421 -0.03961821 -0.9992091
vn -0.00339958421 -0.03961821 -0.9992091
vn -0.00339958421 -0.03961821 -0.9992091
vn 0.9305368 0.366191655 0.002211547
vn 0.9305368 0.366191655 0.002211547
vn 0.9305368 0.366191655 0.002211547
vn 0.9408717 0.338720679 0.00535954675
vn 0.9408717 0.338720679 0.00535954675
vn 0.9408717 0.338720679 0.00535954675
vn 0.0548590571 0.3785505 0.9239535
vn 0.0548590571 0.3785505 0.9239535
vn 0.0548590571 0.3785505 0.9239535
vn 0.05486183 0.378553152 0.9239522
vn 0.9488665 0.31565237 0.00400052173
vn 0.9488665 0.31565237 0.00400052173
vn 0.9488665 0.31565237 0.00400052173
vn 0.948866546 0.3156521 0.00400071032
vn 0.05741438 0.4199076 -0.905748963
vn 0.05741438 0.4199076 -0.905748963
vn 0.05741438 0.4199076 -0.905748963
vn 0.05741592 0.419905037 -0.905750036
vn -0.0746153146 -0.5414027 0.8374459
vn -0.0746153146 -0.5414027 0.8374459
vn -0.0746153146 -0.5414027 0.8374459
vn -0.07461642 -0.5414007 0.8374471
vn 0.8816734 -0.4718223 -0.005980824
vn 0.8816734 -0.4718223 -0.005980824
vn 0.8816734 -0.4718223 -0.005980824
vn 0.8816722 -0.4718245 -0.00598198874
vn -0.0624851845 -0.433087081 -0.899183631
vn -0.0624851845 -0.433087081 -0.899183631
vn -0.0624851845 -0.433087081 -0.899183631
vn -0.06248254 -0.4330841 -0.89918524
vn 4.31195559E-07 -0.0126751633 0.999919653
vn 4.31195559E-07 -0.0126751633 0.999919653
vn 4.31195559E-07 -0.0126751633 0.999919653
vn 0.9902616 -0.139207825 -0.00176527328
vn 0.9902616 -0.139207825 -0.00176527328
vn 0.9902616 -0.139207825 -0.00176527328
vn 0.9902617 -0.139207244 -0.00176492042
vn -3.02016656E-06 0.012673567 -0.9999197
vn -3.02016656E-06 0.012673567 -0.9999197
vn -3.02016656E-06 0.012673567 -0.9999197
vn -2.429892E-07 0.0126762856 -0.999919653
vn 0.139219865 0.990181863 0.0125594335
vn 0.139219865 0.990181863 0.0125594335
vn 0.139219865 0.990181863 0.0125594335
vn 3.048415E-06 -0.0126797706 0.9999196
vn 0.139219552 0.990182 0.01255135
vn 0.139219552 0.990182 0.01255135
vn 0.139219552 0.990182 0.01255135
vn 0.139219537 0.990182 0.0125513161
vn 0.1392197 0.990182 0.0125515517
vn 4.484827E-06 -0.0126765855 0.999919653
vn 4.484827E-06 -0.0126765855 0.999919653
vn 4.484827E-06 -0.0126765855 0.999919653
vn 4.26241559E-06 -0.0126725351 0.9999197
vn 0.990261734 -0.1392071 -0.00176579342
vn 0.990261734 -0.1392071 -0.00176579342
vn 0.990261734 -0.1392071 -0.00176579342
vn 0.990261734 -0.1392071 -0.00176579226
vn -3.719539E-06 0.0126765035 -0.999919653
vn -3.719539E-06 0.0126765035 -0.999919653
vn -3.719539E-06 0.0126765035 -0.999919653
vn -3.728028E-06 0.0126764793 -0.999919653
vn 0.139218643 0.9901821 0.0125505663
vn 0.139218643 0.9901821 0.0125505663
vn 0.139218643 0.9901821 0.0125505663
vn 0.139219955 0.9901819 0.0125515591
vn -0.007217669 -0.03867286 -0.999225855
vn -0.007217669 -0.03867286 -0.999225855
vn -0.007217669 -0.03867286 -0.999225855
vn 0.989483058 -0.142607778 -0.0242138151
vn 0.989483058 -0.142607778 -0.0242138151
vn 0.989483058 -0.142607778 -0.0242138151
vn -2.67773316E-06 -0.0126721412 0.9999197
vn 0.964375257 0.133832738 -0.228186786
vn 0.964375257 0.133832738 -0.228186786
vn 0.964375257 0.133832738 -0.228186786
vn 0.9909093 0.134520963 0.0017049216
vn 0.9909093 0.134520963 0.0017049216
vn 0.9909093 0.134520963 0.0017049216
vn 0.9909092 0.1345214 0.0017043046
vn 1.973441E-06 -0.0126739107 0.9999197
vn 1.973441E-06 -0.0126739107 0.9999197
vn 1.973441E-06 -0.0126739107 0.9999197
vn 1.43575534E-07 -0.0126723135 0.9999197
vn 0.1392186 0.9901821 0.0125514427
vn 0.1392186 0.9901821 0.0125514427
vn 0.1392186 0.9901821 0.0125514427
vn 0.139218837 0.9901821 0.0125507042
vn 0.944936454 -0.326996326 -0.0129819484
vn 0.944936454 -0.326996326 -0.0129819484
vn 0.944936454 -0.326996326 -0.0129819484
vn 0.917112768 -0.3985281 -0.008915454
vn 0.917112768 -0.3985281 -0.008915454
vn 0.917112768 -0.3985281 -0.008915454
vn 0.91111666 -0.3974189 0.109200172
vn 0.91111666 -0.3974189 0.109200172
vn 0.91111666 -0.3974189 0.109200172
vn -3.897672E-06 -0.01266304 0.999919832
vn -3.897672E-06 -0.01266304 0.999919832
vn -3.897672E-06 -0.01266304 0.999919832
vn 0.994748235 -0.102343865 -0.00129778311
vn 0.994748235 -0.102343865 -0.00129778311
vn 0.994748235 -0.102343865 -0.00129778311
vn 0.0431152619 0.318711668 -0.9468706
vn 0.0431152619 0.318711668 -0.9468706
vn 0.0431152619 0.318711668 -0.9468706
vn 0.04311424 0.3187105 -0.946871042
vn 0.0111453347 0.06384474 -0.9978976
vn 0.0111453347 0.06384474 -0.9978976
vn 0.0111453347 0.06384474 -0.9978976
vn 0.793497741 -0.6084886 -0.0101432409
vn 0.793497741 -0.6084886 -0.0101432409
vn 0.793497741 -0.6084886 -0.0101432409
vn 0.810994744 -0.585019 -0.00634956034
vn 0.810994744 -0.585019 -0.00634956034
vn 0.810994744 -0.585019 -0.00634956034
vn 0.0072166454 0.0639893338 -0.9979245
vn 0.0072166454 0.0639893338 -0.9979245
vn 0.0072166454 0.0639893338 -0.9979245
vn 0.9905291 -0.135167718 -0.0241193641
vn 0.9905291 -0.135167718 -0.0241193641
vn 0.9905291 -0.135167718 -0.0241193641
vn 0.9902616 -0.139207631 -0.00176514173
vn 0.9902616 -0.139207631 -0.00176514173
vn 0.9902616 -0.139207631 -0.00176514173
vn -8.788358E-07 -0.0126750711 0.999919653
vn 0.989846 -0.138782069 -0.0307318345
vn 0.989846 -0.138782069 -0.0307318345
vn 0.989846 -0.138782069 -0.0307318345
vn 0.890891552 -0.388812929 -0.234812066
vn 0.890891552 -0.388812929 -0.234812066
vn 0.890891552 -0.388812929 -0.234812066
vn 0.9154041 -0.402503848 -0.00510241464
vn 0.9154041 -0.402503848 -0.00510241464
vn 0.9154041 -0.402503848 -0.00510241464
vn 0.915403962 -0.402504146 -0.005102924
vn 2.04541255E-08 -0.0126752928 0.999919653
vn 2.04541255E-08 -0.0126752928 0.999919653
vn -2.989614E-07 -0.0126754427 0.999919653
vn 0.9902616 -0.139207661 -0.00176552148
vn -0.139218792 -0.990182042 -0.0125543149
vn -0.139218792 -0.990182042 -0.0125543149
vn -0.139218792 -0.990182042 -0.0125543149
vn -0.139219046 -0.990182042 -0.012553541
vn -0.9449363 0.3272208 -0.004688054
vn -0.9449363 0.3272208 -0.004688054
vn -0.9449363 0.3272208 -0.004688054
vn -0.917112947 0.3986257 0.00119019789
vn -0.917112947 0.3986257 0.00119019789
vn -0.917112947 0.3986257 0.00119019789
vn -0.91111666 0.394523 0.119239628
vn -0.91111666 0.394523 0.119239628
vn -0.91111666 0.394523 0.119239628
vn -0.994748235 0.10234379 0.00129791594
vn -0.994748235 0.10234379 0.00129791594
vn -0.994748235 0.10234379 0.00129791594
vn -0.04311693 -0.29460746 -0.954645157
vn -0.01114647 -0.03852885 -0.999195337
vn -0.01114647 -0.03852885 -0.999195337
vn -0.01114647 -0.03852885 -0.999195337
vn -0.7934974 0.608550668 0.005284512
vn -0.7934974 0.608550668 0.005284512
vn -0.7934974 0.608550668 0.005284512
vn -0.810994744 0.584991932 0.008482161
vn -0.810994744 0.584991932 0.008482161
vn -0.810994744 0.584991932 0.008482161
vn -0.8250442 0.5650228 0.00716264127
vn -0.8250442 0.5650228 0.00716264127
vn -0.8250442 0.5650228 0.00716264127
vn -0.8250443 0.565022647 0.00716276327
vn -0.977600455 -0.210452378 -0.00266752741
vn -0.977600455 -0.210452378 -0.00266752741
vn -0.977600455 -0.210452378 -0.00266752741
vn -0.977600455 -0.210452363 -0.002667514
vn -0.9902617 0.139207512 0.00176504918
vn -0.9902617 0.139207512 0.00176504918
vn -0.9902617 0.139207512 0.00176504918
vn -0.9902617 0.1392076 0.00176510564
vn -0.9902617 0.139207333 0.001764266
vn -0.9902617 0.139207333 0.001764266
vn -0.9902617 0.139207333 0.001764266
vn -0.9902617 0.139207333 0.001764266
vn -0.00722018443 -0.03867263 -0.999225855
vn -0.00722018443 -0.03867263 -0.999225855
vn -0.00722018443 -0.03867263 -0.999225855
vn -0.9905292 0.135735556 -0.0206844416
vn -0.9905292 0.135735556 -0.0206844416
vn -0.9905292 0.135735556 -0.0206844416
vn -0.9902616 0.139207631 0.00176507456
vn -0.9902616 0.139207631 0.00176507456
vn -0.9902616 0.139207631 0.00176507456
vn -0.989846051 0.139516413 -0.0272032917
vn -0.989846051 0.139516413 -0.0272032917
vn -0.989846051 0.139516413 -0.0272032917
vn -0.8908918 0.394640267 -0.224879771
vn -0.8908918 0.394640267 -0.224879771
vn -0.8908918 0.394640267 -0.224879771
vn -0.9154039 0.4025043 0.00510233035
vn -0.9154039 0.4025043 0.00510233035
vn -0.9154039 0.4025043 0.00510233035
vn -0.915403843 0.402504325 0.00510227354
vn -2.12463624E-06 -0.0126733761 0.9999197
vn -0.9902616 0.139207676 0.00176472
vn -0.9985067 -0.05379385 -0.009517742
vn -0.9985067 -0.05379385 -0.009517742
vn -0.9985067 -0.05379385 -0.009517742
vn -0.991469 -0.130225986 -0.00551340729
vn -0.991469 -0.130225986 -0.00551340729
vn -0.991469 -0.130225986 -0.00551340729
vn -0.9849866 -0.130870908 0.112579964
vn -0.9849866 -0.130870908 0.112579964
vn -0.9849866 -0.130870908 0.112579964
vn -0.9844093 0.175879091 0.00222969637
vn -0.9844093 0.175879091 0.00222969637
vn -0.9844093 0.175879091 0.00222969637
vn 0.004875481 0.0473564342 -0.998866141
vn 0.004875481 0.0473564342 -0.998866141
vn 0.004875481 0.0473564342 -0.998866141
vn 0.003398139 0.06493154 -0.9978839
vn 0.003398139 0.06493154 -0.9978839
vn 0.003398139 0.06493154 -0.9978839
vn -0.9305369 -0.366129845 -0.00707028527
vn -0.9305369 -0.366129845 -0.00707028527
vn -0.9305369 -0.366129845 -0.00707028527
vn -0.940871835 -0.338747382 -0.00322694913
vn -0.940871835 -0.338747382 -0.00322694913
vn -0.940871835 -0.338747382 -0.00322694913
vn 0.007213771 0.06398753 -0.9979246
vn 0.007213771 0.06398753 -0.9979246
vn 0.007213771 0.06398753 -0.9979246
vn -0.989483058 0.143175855 -0.0205900837
vn -0.989483058 0.143175855 -0.0205900837
vn -0.989483058 0.143175855 -0.0205900837
vn -0.9643755 -0.128005862 -0.231504649
vn -0.9643755 -0.128005862 -0.231504649
vn -0.9643755 -0.128005862 -0.231504649
vn -0.990909338 -0.134520739 -0.00170463789
vn -0.990909338 -0.134520739 -0.00170463789
vn -0.990909338 -0.134520739 -0.00170463789
vn -0.9909093 -0.134521 -0.00170503277
vn -0.0548623763 -0.401846 0.9140623
vn -0.0548623763 -0.401846 0.9140623
vn -0.0548623763 -0.401846 0.9140623
vn -0.0548629574 -0.401846558 0.914062
vn -0.948866367 -0.315652758 -0.004000815
vn -0.948866367 -0.315652758 -0.004000815
vn -0.948866367 -0.315652758 -0.004000815
vn -0.948866546 -0.315652072 -0.00400032662
vn -0.0574162 -0.3968151 -0.916101038
vn -0.0574162 -0.3968151 -0.916101038
vn -0.0574162 -0.3968151 -0.916101038
vn -0.05741486 -0.396817327 -0.9161002
vn 0.0746189058 0.51999557 0.850903451
vn 0.0746189058 0.51999557 0.850903451
vn 0.0746189058 0.51999557 0.850903451
vn 0.07461638 0.5200002 0.850900769
vn -0.881673634 0.4718218 0.005980645
vn -0.881673634 0.4718218 0.005980645
vn -0.881673634 0.4718218 0.005980645
vn -0.881672859 0.471823245 0.00597993564
vn 0.06248443 0.455741525 -0.8879163
vn 0.06248443 0.455741525 -0.8879163
vn 0.06248443 0.455741525 -0.8879163
vn 0.0624842048 0.4557413 -0.887916446
vn 3.39130588E-06 -0.0126751782 0.999919653
vn 3.39130588E-06 -0.0126751782 0.999919653
vn 3.39130588E-06 -0.0126751782 0.999919653
vn -0.9902617 0.1392076 0.00176474685
vn -0.9902617 0.1392076 0.00176474685
vn -0.9902617 0.1392076 0.00176474685
vn -0.9902617 0.139207453 0.001764831
vn 2.85189543E-07 0.0126738809 -0.9999197
vn 2.85189543E-07 0.0126738809 -0.9999197
vn 2.85189543E-07 0.0126738809 -0.9999197
vn 2.895826E-07 0.0126738846 -0.9999197
vn -0.139217764 -0.9901823 -0.0125502357
vn -0.139217764 -0.9901823 -0.0125502357
vn -0.139217764 -0.9901823 -0.0125502357
vn 2.912135E-06 -0.0126743354 0.999919653
vn -0.139220729 -0.990181863 -0.0125466716
vn -0.139220729 -0.990181863 -0.0125466716
vn -0.139220729 -0.990181863 -0.0125466716
vn -0.139219776 -0.990182 -0.0125517044
vn -0.139217228 -0.99018234 -0.0125502711
vn 3.69334134E-06 -0.0126764746 0.999919653
vn 3.69334134E-06 -0.0126764746 0.999919653
vn 3.69334134E-06 -0.0126764746 0.999919653
vn 3.69334157E-06 -0.0126764746 0.999919653
vn -0.9902615 0.1392088 0.001764278
vn -0.9902615 0.1392088 0.001764278
vn -0.9902615 0.1392088 0.001764278
vn -0.9902613 0.139209792 0.00176414265
vn -1.03960126E-07 0.012673947 -0.999919653
vn -1.03960126E-07 0.012673947 -0.999919653
vn -1.03960126E-07 0.012673947 -0.999919653
vn -1.039602E-07 0.012673947 -0.999919653
vn -0.1392178 -0.9901822 -0.0125524634
vn -0.1392178 -0.9901822 -0.0125524634
vn -0.1392178 -0.9901822 -0.0125524634
vn -0.1392207 -0.990181863 -0.0125502478
vn 0.8250444 -0.5650225 -0.00716275536
vn 0.8250444 -0.5650225 -0.00716275536
vn 0.8250444 -0.5650225 -0.00716275536
vn 0.8250441 -0.565022945 -0.00716308644
vn 0.977600455 0.210452482 0.00266713975
vn 0.977600455 0.210452482 0.00266713975
vn 0.977600455 0.210452482 0.00266713975
vn 0.977600336 0.2104529 0.00266695349
vn 0.9902617 -0.139207512 -0.00176529563
vn 0.9902617 -0.139207512 -0.00176529563
vn 0.9902617 -0.139207512 -0.00176529563
vn 0.9902617 -0.139207572 -0.00176526164
vn 0.9902616 -0.139207855 -0.00176591566
vn 0.9902616 -0.139207855 -0.00176591566
vn 0.9902616 -0.139207855 -0.00176591566
vn 0.9902616 -0.139207751 -0.00176593114
vn 0.889367759 0.3413421 0.3041556
vn 0.889367759 0.3413421 0.3041556
vn 0.889367759 0.3413421 0.3041556
vn 0.875413537 0.3190913 -0.363086641
vn 0.875413537 0.3190913 -0.363086641
vn 0.875413537 0.3190913 -0.363086641
vn 0.9329988 0.3259186 0.152611867
vn 0.9329988 0.3259186 0.152611867
vn 0.9329988 0.3259186 0.152611867
vn 0.6964829 0.2532521 -0.671397746
vn 0.6964829 0.2532521 -0.671397746
vn 0.6964829 0.2532521 -0.671397746
vn 0.7597207 -0.5807645 0.292467266
vn 0.7597207 -0.5807645 0.292467266
vn 0.7597207 -0.5807645 0.292467266
vn 0.7547744 -0.5389524 -0.373959839
vn 0.7547744 -0.5389524 -0.373959839
vn 0.7547744 -0.5389524 -0.373959839
vn 0.8064422 -0.5742065 0.141201839
vn 0.8064422 -0.5742065 0.141201839
vn 0.8064422 -0.5742065 0.141201839
vn 0.6020082 -0.418690771 -0.679914832
vn 0.6020082 -0.418690771 -0.679914832
vn 0.6020082 -0.418690771 -0.679914832
vn 0.890076339 0.346543252 0.296094358
vn 0.890076339 0.346543252 0.296094358
vn 0.890076339 0.346543252 0.296094358
vn 0.828108847 0.327188879 -0.4551738
vn 0.828108847 0.327188879 -0.4551738
vn 0.828108847 0.327188879 -0.4551738
vn 0.932240546 0.3331153 0.141285926
vn 0.932240546 0.3331153 0.141285926
vn 0.932240546 0.3331153 0.141285926
vn 0.758996 -0.5857576 0.284276456
vn 0.758996 -0.5857576 0.284276456
vn 0.758996 -0.5857576 0.284276456
vn 0.7073914 -0.5314026 -0.4660566
vn 0.7073914 -0.5314026 -0.4660566
vn 0.7073914 -0.5314026 -0.4660566
vn 0.8037688 -0.580631256 0.129703432
vn 0.8037688 -0.580631256 0.129703432
vn 0.8037688 -0.580631256 0.129703432
vn -0.7597203 0.573165 0.3070944
vn -0.7597203 0.573165 0.3070944
vn -0.7597203 0.573165 0.3070944
vn -0.7547733 0.5482578 -0.360181332
vn -0.7547733 0.5482578 -0.360181332
vn -0.7547733 0.5482578 -0.360181332
vn -0.806441844 0.570443 0.155712321
vn -0.806441844 0.570443 0.155712321
vn -0.806441844 0.570443 0.155712321
vn -0.6020089 0.4357898 -0.6690834
vn -0.6020089 0.4357898 -0.6690834
vn -0.6020089 0.4357898 -0.6690834
vn -0.889368 -0.348940849 0.2954062
vn -0.889368 -0.348940849 0.2954062
vn -0.889368 -0.348940849 0.2954062
vn -0.8754146 -0.3097864 -0.3710547
vn -0.8754146 -0.3097864 -0.3710547
vn -0.8754146 -0.3097864 -0.3710547
vn -0.9329989 -0.3296814 0.144302562
vn -0.9329989 -0.3296814 0.144302562
vn -0.9329989 -0.3296814 0.144302562
vn -0.6964833 -0.236153275 -0.6776006
vn -0.6964833 -0.236153275 -0.6776006
vn -0.6964833 -0.236153275 -0.6776006
vn -0.7589956 0.5783643 0.299032539
vn -0.7589956 0.5783643 0.299032539
vn -0.7589956 0.5783643 0.299032539
vn -0.7073912 0.543044746 -0.452437967
vn -0.7073912 0.543044746 -0.452437967
vn -0.7073912 0.543044746 -0.452437967
vn -0.8037684 0.577157557 0.1443798
vn -0.8037684 0.577157557 0.1443798
vn -0.8037684 0.577157557 0.1443798
vn -0.8900767 -0.353936583 0.287214816
vn -0.8900767 -0.353936583 0.287214816
vn -0.8900767 -0.353936583 0.287214816
vn -0.82810843 -0.3155477 -0.4633207
vn -0.82810843 -0.3155477 -0.4633207
vn -0.82810843 -0.3155477 -0.4633207
vn -0.932240665 -0.336589 0.13279736
vn -0.932240665 -0.336589 0.13279736
vn -0.932240665 -0.336589 0.13279736
vn 0.9614898 0.27480042 -0.00470073475
vn 0.9614898 0.27480042 -0.00470073475
vn 0.9614898 0.27480042 -0.00470073475
vn 0.956379533 0.292114526 -0.002711857
vn 0.956379533 0.292114526 -0.002711857
vn 0.956379533 0.292114526 -0.002711857
vn 0.939887941 0.278760374 0.1972393
vn 0.939887941 0.278760374 0.1972393
vn 0.939887941 0.278760374 0.1972393
vn 0.8727734 0.314262867 -0.373504221
vn 0.8727734 0.314262867 -0.373504221
vn 0.8727734 0.314262867 -0.373504221
vn 0.92949307 0.368805259 0.00503407326
vn 0.92949307 0.368805259 0.00503407326
vn 0.92949307 0.368805259 0.00503407326
vn 0.9318512 0.361531079 0.030799387
vn 0.9318512 0.361531079 0.030799387
vn 0.9318512 0.361531079 0.030799387
vn 0.8484719 -0.529031 -0.0148899807
vn 0.8484719 -0.529031 -0.0148899807
vn 0.8484719 -0.529031 -0.0148899807
vn 0.838778853 -0.544309437 -0.0133141838
vn 0.838778853 -0.544309437 -0.0133141838
vn 0.838778853 -0.544309437 -0.0133141838
vn 0.8257924 -0.5318084 0.187741369
vn 0.8257924 -0.5318084 0.187741369
vn 0.8257924 -0.5318084 0.187741369
vn 0.75360316 -0.5333249 -0.384248376
vn 0.75360316 -0.5333249 -0.384248376
vn 0.75360316 -0.5333249 -0.384248376
vn 0.791764 -0.6107825 -0.007383281
vn 0.791764 -0.6107825 -0.007383281
vn 0.791764 -0.6107825 -0.007383281
vn 0.79594624 -0.6050831 0.0185466446
vn 0.79594624 -0.6050831 0.0185466446
vn 0.79594624 -0.6050831 0.0185466446
vn -0.8484712 0.5292395 -0.001474589
vn -0.8484712 0.5292395 -0.001474589
vn -0.8484712 0.5292395 -0.001474589
vn -0.8387792 0.5444715 0.000487766927
vn -0.8387792 0.5444715 0.000487766927
vn -0.8387792 0.5444715 0.000487766927
vn -0.825945556 0.527024 0.200149164
vn -0.825945556 0.527024 0.200149164
vn -0.825945556 0.527024 0.200149164
vn -0.7536031 0.542894542 -0.370604783
vn -0.7536031 0.542894542 -0.370604783
vn -0.7536031 0.542894542 -0.370604783
vn -0.7917634 0.610774159 0.008101379
vn -0.7917634 0.610774159 0.008101379
vn -0.7917634 0.610774159 0.008101379
vn -0.795946 0.604418755 0.0338808671
vn -0.795946 0.604418755 0.0338808671
vn -0.795946 0.604418755 0.0338808671
vn -0.9614897 -0.274593353 -0.0116638821
vn -0.9614897 -0.274593353 -0.0116638821
vn -0.9614897 -0.274593353 -0.0116638821
vn -0.9563795 -0.291951984 -0.0101145459
vn -0.9563795 -0.291951984 -0.0101145459
vn -0.9563795 -0.291951984 -0.0101145459
vn -0.9397902 -0.283631623 0.190650329
vn -0.9397902 -0.283631623 0.190650329
vn -0.9397902 -0.283631623 0.190650329
vn -0.872773349 -0.304695338 -0.381349534
vn -0.872773349 -0.304695338 -0.381349534
vn -0.872773349 -0.304695338 -0.381349534
vn -0.929493 -0.368814468 -0.004315159
vn -0.929493 -0.368814468 -0.004315159
vn -0.929493 -0.368814468 -0.004315159
vn -0.931851268 -0.362195224 0.0216281861
vn -0.931851268 -0.362195224 0.0216281861
vn -0.931851268 -0.362195224 0.0216281861
usemtl 01010002_part_0_material_0
f 1/1/1 2/2/2 3/3/3
f 4/4/4 5/5/5 6/6/6
f 7/7/7 8/8/8 9/9/9
f 10/10/10 11/11/11 12/12/12
f 13/13/13 14/14/14 15/15/15
f 16/16/16 17/17/17 18/18/18
f 19/19/19 20/20/20 21/21/21
f 22/22/22 23/23/23 24/24/24
f 25/25/25 26/26/26 27/27/27
f 28/28/28 29/29/29 30/30/30
f 31/31/31 32/32/32 33/33/33
f 33/33/33 32/32/32 34/34/34
f 35/35/35 36/36/36 37/37/37
f 38/38/38 35/35/35 37/37/37
f 39/39/39 40/40/40 41/41/41
f 41/41/41 40/40/40 42/42/42
f 43/43/43 44/44/44 45/45/45
f 45/45/45 46/46/46 43/43/43
f 47/47/47 48/48/48 49/49/49
f 49/49/49 50/50/50 47/47/47
f 51/51/51 52/52/52 53/53/53
f 53/53/53 54/54/54 51/51/51
f 55/55/55 56/56/56 57/57/57
f 58/58/58 59/59/59 60/60/60
f 60/60/60 61/61/61 58/58/58
f 62/62/62 63/63/63 64/64/64
f 64/64/64 65/65/65 62/62/62
f 66/66/66 67/67/67 68/68/68
f 57/57/57 69/69/69 55/55/55
f 70/70/70 71/71/71 72/72/72
f 70/70/70 73/73/73 71/71/71
f 73/73/73 66/66/66 71/71/71
f 71/71/71 66/66/66 74/74/74
f 68/68/68 74/74/74 66/66/66
f 75/75/75 76/76/76 77/77/77
f 77/77/77 78/78/78 75/75/75
f 79/79/79 80/80/80 81/81/81
f 81/81/81 82/82/82 79/79/79
f 83/83/83 84/84/84 85/85/85
f 85/85/85 86/86/86 83/83/83
f 87/87/87 88/88/88 89/89/89
f 89/89/89 90/90/90 87/87/87
f 91/91/91 92/92/92 93/93/93
f 94/94/94 95/95/95 96/96/96
f 97/97/97 11/11/11 10/10/10
f 98/98/98 99/99/99 100/100/100
f 101/101/101 102/102/102 103/103/103
f 101/101/101 103/103/103 104/104/104
f 105/105/105 106/106/106 107/107/107
f 107/107/107 108/108/108 105/105/105
f 109/109/109 110/110/110 111/111/111
f 111/111/111 110/110/110 112/112/112
f 113/113/113 114/114/114 115/115/115
f 116/116/116 117/117/117 118/118/118
f 119/119/119 120/120/120 121/121/121
f 122/122/122 123/123/123 124/124/124
f 125/125/125 126/126/126 127/127/127
f 128/128/128 129/129/129 130/130/130
f 131/131/131 130/130/130 129/129/129
f 132/132/132 133/133/133 134/134/134
f 135/135/135 136/136/136 137/137/137
f 138/138/138 139/139/139 140/140/140
f 141/141/141 142/142/142 143/143/143
f 144/144/144 145/145/145 146/146/146
f 147/147/147 148/148/148 149/149/149
f 122/122/122 150/150/150 123/123/123
f 10/10/10 123/123/123 97/97/97
f 150/150/150 97/97/97 123/123/123
f 151/151/151 152/152/152 153/153/153
f 154/154/154 155/155/155 156/156/156
f 157/157/157 158/158/158 159/159/159
f 159/159/159 158/158/158 160/160/160
f 106/106/106 161/161/161 162/162/162
f 163/163/163 162/162/162 161/161/161
f 107/107/107 106/106/106 162/162/162
f 164/164/164 148/148/148 147/147/147
f 165/165/165 166/166/166 167/167/167
f 165/165/165 167/167/167 168/168/168
f 169/169/169 170/170/170 171/171/171
f 172/172/172 173/173/173 174/174/174
f 175/175/175 176/176/176 177/177/177
f 178/178/178 179/179/179 180/180/180
f 17/17/17 181/181/181 18/18/18
f 182/182/182 183/183/183 184/184/184
f 185/185/185 186/186/186 187/187/187
f 188/188/188 189/189/189 190/190/190
f 191/191/191 192/192/192 193/193/193
f 192/192/192 194/194/194 193/193/193
f 195/195/195 196/196/196 197/197/197
f 198/198/198 197/197/197 196/196/196
f 199/199/199 200/200/200 201/201/201
f 202/202/202 201/201/201 200/200/200
f 67/67/67 70/70/70 72/72/72
f 67/67/67 72/72/72 68/68/68
f 203/203/203 204/204/204 205/205/205
f 206/206/206 205/205/205 204/204/204
f 207/207/207 208/208/208 209/209/209
f 210/210/210 211/211/211 212/212/212
f 213/213/213 214/214/214 215/215/215
f 124/124/124 12/12/12 122/122/122
f 11/11/11 122/122/122 12/12/12
f 216/216/216 217/217/217 218/218/218
f 219/219/219 220/220/220 221/221/221
f 222/222/222 223/223/223 224/224/224
f 224/224/224 223/223/223 225/225/225
f 226/226/226 105/105/105 108/108/108
f 163/163/163 226/226/226 108/108/108
f 227/227/227 214/214/214 213/213/213
f 228/228/228 229/229/229 230/230/230
f 231/231/231 232/232/232 233/233/233
f 234/234/234 235/235/235 236/236/236
f 237/237/237 238/238/238 239/239/239
f 240/240/240 241/241/241 242/242/242
f 243/243/243 244/244/244 245/245/245
f 246/246/246 247/247/247 248/248/248
f 249/249/249 250/250/250 251/251/251
f 252/252/252 253/253/253 254/254/254
f 255/255/255 256/256/256 257/257/257
f 258/258/258 259/259/259 260/260/260
f 261/261/261 262/262/262 263/263/263
f 261/261/261 263/263/263 264/264/264
f 161/161/161 226/226/226 163/163/163
f 265/265/265 266/266/266 267/267/267
f 267/267/267 266/266/266 268/268/268
f 269/269/269 270/270/270 271/271/271
f 272/272/272 269/269/269 271/271/271
f 273/273/273 274/274/274 275/275/275
f 275/275/275 274/274/274 276/276/276
f 277/277/277 278/278/278 279/279/279
f 279/279/279 280/280/280 277/277/277
f 281/281/281 282/282/282 283/283/283
f 283/283/283 284/284/284 281/281/281
f 285/285/285 286/286/286 287/287/287
f 287/287/287 288/288/288 285/285/285
f 289/289/289 290/290/290 291/291/291
f 292/292/292 293/293/293 294/294/294
f 294/294/294 295/295/295 292/292/292
f 296/296/296 297/297/297 298/298/298
f 298/298/298 299/299/299 296/296/296
f 300/300/300 301/301/301 302/302/302
f 291/291/291 303/303/303 289/289/289
f 304/304/304 305/305/305 306/306/306
f 304/304/304 307/307/307 305/305/305
f 307/307/307 300/300/300 305/305/305
f 305/305/305 300/300/300 308/308/308
f 302/302/302 308/308/308 300/300/300
f 309/309/309 310/310/310 311/311/311
f 311/311/311 312/312/312 309/309/309
f 313/313/313 314/314/314 315/315/315
f 315/315/315 316/316/316 313/313/313
f 317/317/317 318/318/318 319/319/319
f 319/319/319 320/320/320 317/317/317
f 321/321/321 322/322/322 323/323/323
f 323/323/323 324/324/324 321/321/321
f 325/325/325 326/326/326 327/327/327
f 326/326/326 328/328/328 327/327/327
f 329/329/329 330/330/330 331/331/331
f 332/332/332 331/331/331 330/330/330
f 333/333/333 334/334/334 335/335/335
f 336/336/336 335/335/335 334/334/334
f 301/301/301 304/304/304 306/306/306
f 301/301/301 306/306/306 302/302/302
f 337/337/337 338/338/338 339/339/339
f 340/340/340 339/339/339 338/338/338
f 341/341/341 342/342/342 343/343/343
f 344/344/344 345/345/345 346/346/346
f 347/347/347 348/348/348 349/349/349
f 350/350/350 351/351/351 352/352/352
f 353/353/353 354/354/354 355/355/355
f 356/356/356 357/357/357 358/358/358
f 359/359/359 360/360/360 361/361/361
f 362/362/362 363/363/363 364/364/364
f 365/365/365 366/366/366 367/367/367
f 368/368/368 369/369/369 370/370/370
f 371/371/371 372/372/372 373/373/373
f 374/374/374 375/375/375 376/376/376
f 377/377/377 378/378/378 379/379/379
f 380/380/380 381/381/381 382/382/382
f 383/383/383 384/384/384 385/385/385
f 386/386/386 387/387/387 388/388/388
f 389/389/389 390/390/390 391/391/391
f 392/392/392 393/393/393 394/394/394
f 395/395/395 396/396/396 397/397/397
f 398/398/398 399/399/399 400/400/400
f 401/401/401 402/402/402 403/403/403
f 404/404/404 405/405/405 406/406/406
f 407/407/407 408/408/408 409/409/409
f 410/410/410 411/411/411 412/412/412
f 413/413/413 414/414/414 415/415/415
f 416/416/416 417/417/417 418/418/418
f 419/419/419 420/420/420 421/421/421
f 422/422/422 423/423/423 424/424/424
usemtl 01010002_part_0_material_1
f 425/425/425 426/426/426 427/427/427
f 428/428/428 429/429/429 430/430/430
f 431/431/431 432/432/432 433/433/433
f 434/434/434 435/435/435 436/436/436
f 437/437/437 438/438/438 439/439/439
f 440/440/440 441/441/441 442/442/442
f 443/443/443 444/444/444 445/445/445
f 446/446/446 447/447/447 448/448/448
f 449/449/449 450/450/450 451/451/451
f 452/452/452 453/453/453 454/454/454
f 455/455/455 456/456/456 457/457/457
f 458/458/458 459/459/459 460/460/460
f 461/461/461 462/462/462 463/463/463
f 464/464/464 465/465/465 466/466/466
f 467/467/467 468/468/468 469/469/469
f 470/470/470 471/471/471 472/472/472
f 473/473/473 474/474/474 475/475/475
f 476/476/476 477/477/477 478/478/478
f 479/479/479 480/480/480 481/481/481
f 482/482/482 483/483/483 484/484/484
f 485/485/485 486/486/486 487/487/487
f 488/488/488 489/489/489 490/490/490
f 491/491/491 492/492/492 493/493/493
f 494/494/494 495/495/495 496/496/496
