mtllib 02010063.mtl
o 02010063_part_0
v -0.04893243 -0.02512693 -0.1916799
v -0.04893243 0.0697395653 -0.1916799
v 0.0459340736 0.0697395653 -0.1916799
v 0.0459340736 -0.02512693 -0.1916799
v -0.0306253172 -0.006819887 1.34031928
v 0.02762695 -0.006819887 1.34031928
v 0.02762695 0.0514323823 1.34031928
v -0.0306253172 0.0514323823 1.34031928
v -0.04893243 -0.02512693 -0.1916799
v 0.0459340736 -0.02512693 -0.1916799
v 0.02762695 -0.006819887 1.34031928
v -0.0306253172 -0.006819887 1.34031928
v 0.0459340736 -0.02512693 -0.1916799
v 0.0459340736 0.0697395653 -0.1916799
v 0.02762695 0.0514323823 1.34031928
v 0.02762695 -0.006819887 1.34031928
v 0.0459340736 0.0697395653 -0.1916799
v -0.04893243 0.0697395653 -0.1916799
v -0.0306253172 0.0514323823 1.34031928
v 0.02762695 0.0514323823 1.34031928
v -0.04893243 0.0697395653 -0.1916799
v -0.04893243 -0.02512693 -0.1916799
v -0.0306253172 -0.006819887 1.34031928
v -0.0306253172 0.0514323823 1.34031928
vt 0.686026 0.284280658
vt 0.686026 0.438259482
vt 0.8400048 0.438259482
vt 0.8400048 0.284280658
vt 0.7078582 0.676904
vt 0.7919846 0.676904
vt 0.7919846 0.761030436
vt 0.7078582 0.761030436
vt 0.4578449 0.0195045471
vt 0.5 0.01905173
vt 0.5 0.979841053
vt 0.457587242 0.9803877
vt 0.5 0.01905173
vt 0.542155147 0.0195045471
vt 0.542412758 0.9803877
vt 0.5 0.979841053
vt 0.4578449 0.0195045471
vt 0.5 0.01905173
vt 0.5 0.979841053
vt 0.457587242 0.9803877
vt 0.5 0.01905173
vt 0.542155147 0.0195045471
vt 0.542412758 0.9803877
vt 0.5 0.979841053
vn 0 0 -1
vn 0 0 -1
vn 0 0 -1
vn 0 0 -1
vn 0 0 1
vn 0 0 1
vn 0 0 1
vn 0 0 1
vn 0 -0.9999286 0.01194892
vn 0 -0.9999286 0.0119489217
vn 0 -0.9999286 0.0119489208
vn 0 -0.9999286 0.0119489217
vn 0.9999286 0 0.0119489739
vn 0.9999286 0 0.0119489729
vn 0.9999286 0 0.0119489729
vn 0.9999286 0 0.0119489729
vn 0 0.9999286 0.0119490121
vn 0 0.9999286 0.011949013
vn 0 0.9999286 0.011949013
vn 0 0.9999286 0.0119490121
vn -0.9999286 0 0.0119489664
vn -0.9999286 0 0.0119489655
vn -0.9999286 0 0.0119489655
vn -0.9999286 0 0.0119489664
usemtl 02010063_part_0_material_0
f 1/1/1 2/2/2 3/3/3
f 3/3/3 4/4/4 1/1/1
f 5/5/5 6/6/6 7/7/7
f 7/7/7 8/8/8 5/5/5
f 9/9/9 10/10/10 11/11/11
f 11/11/11 12/12/12 9/9/9
f 13/13/13 14/14/14 15/15/15
f 15/15/15 16/16/16 13/13/13
f 17/17/17 18/18/18 19/19/19
f 19/19/19 20/20/20 17/17/17
f 21/21/21 22/22/22 23/23/23
f 23/23/23 24/24/24 21/21/21
