mtllib 02020003.mtl
o 02020003_part_0
v -0.0054048025 0.0255085975 -0.5928172
v 0.08397327 0.02558075 -0.473041236
v -0.00534557551 -0.0630497038 -0.472943157
v -0.005744046 -0.1037379 2.3557446
v -0.00559278 0.0274774581 2.658646
v -0.07712956 0.02729432 2.35570121
v -0.04336095 -0.115835972 0.478120834
v -0.00537855737 -0.115836151 0.478101969
v -0.06618248 0.02678491 0.4797123
v -0.0433892757 -0.07762911 0.4208235
v -0.09066235 0.0266876351 0.318900883
v -0.0433724821 -0.07347938 0.35713473
v 0.0332079232 -0.529400349 0.291501343
v 0.03327063 -0.589215755 0.4181176
v -0.0433750041 -0.589215457 0.41815576
v -0.04343771 -0.5294 0.2915395
v -0.00506658 -0.122964039 0.8088932
v -0.07015983 0.026358122 0.8096683
v -0.09466368 0.0255815573 -0.4729524
v 0.06564257 0.0272936672 2.35563
v 0.0326038338 -0.11583633 0.478083044
v 0.0554273874 0.026783349 0.477985382
v 0.0325755142 -0.0758041 0.420784563
v -0.00587979658 -0.137509778 2.08314776
v 0.06903127 0.0271285754 2.08301067
v -0.00537855737 -0.115836151 0.478101969
v -0.0414360948 -0.427335262 0.480985522
v 0.0313957073 -0.4273356 0.480949253
v -0.0433892757 -0.07762911 0.4208235
v -0.0424038842 -0.47715053 0.418087423
v -0.04336095 -0.115835972 0.478120834
v -0.00539017143 -0.09301687 0.357127726
v 0.0313331 -0.427411824 0.355092019
v -0.0414987 -0.427411467 0.355128229
v 0.0325755142 -0.0758041 0.420784563
v 0.0323004574 -0.477150857 0.4180503
v 0.0313331 -0.427411824 0.355092019
v 0.0325923041 -0.07347972 0.3570969
v 0.0325923041 -0.07347972 0.3570969
v -0.00539017143 -0.09301687 0.357127726
v -0.00511865458 -0.03959324 0.2795025
v 0.0362872966 -0.00743883057 0.237593681
v 0.07974809 0.0266868658 0.3188161
v -0.0465659946 -0.00743846 0.2376349
v -0.0433724821 -0.07347938 0.35713473
v -0.09066235 0.0266876351 0.318900883
v -0.0432986543 -0.4969311 0.5016613
v 0.0332782045 -0.4969315 0.5016233
v -0.0433117747 -0.529246747 0.54469955
v 0.0331950746 -0.497032642 0.3345003
v -0.04338179 -0.4970323 0.33453837
v 0.0332079232 -0.529400349 0.291501343
v 0.0331950746 -0.497032642 0.3345003
v 0.03327063 -0.589215755 0.4181176
v -0.005285828 -0.02874899 -0.353143573
v -0.00516023627 -0.0228367578 0.195754871
v 0.04387043 0.0266379919 0.237846673
v -0.0541911833 0.0266381931 0.237498119
v -0.0602324754 0.0256539546 -0.353149176
v 0.0333338529 -0.529247046 0.5446615
v -0.0433724821 -0.07347938 0.35713473
v 0.0325923041 -0.07347972 0.3570969
v 0.07974809 0.0266868658 0.3188161
v 0.0326038338 -0.11583633 0.478083044
v 0.0313957073 -0.4273356 0.480949253
v 0.0332782045 -0.4969315 0.5016233
v 0.04966128 0.025653461 -0.353203863
v -0.005285828 -0.02874899 -0.353143573
v -0.0602324754 0.0256539546 -0.353149176
v -0.08078947 0.0271292571 2.0830853
v -0.00506658 -0.122964039 0.8088932
v 0.0600323565 0.0263570286 0.808770359
v 0.0333338529 -0.529247046 0.5446615
v 0.0332079232 -0.529400349 0.291501343
v 0.0333338529 -0.529247046 0.5446615
v 0.0326038338 -0.11583633 0.478083044
v -0.04336095 -0.115835972 0.478120834
v 0.0325923041 -0.07347972 0.3570969
v 0.04966128 0.025653461 -0.353203863
v -0.07015983 0.026358122 0.8096683
v 0.0600323565 0.0263570286 0.808770359
v -0.00534482952 0.114212014 -0.4730505
v -0.00574293826 0.1583259 2.35558581
v -0.0433597527 0.169403583 0.4779481
v -0.00537735363 0.169403419 0.477929264
v -0.0433883928 0.131127357 0.4206971
v -0.0433716327 0.126900479 0.3570134
v 0.0332126133 0.582741 0.29082796
v -0.043433018 0.5827414 0.2908661
v -0.0433697961 0.64271003 0.417409867
v 0.0332758352 0.6427097 0.4173717
v -0.005065315 0.175678685 0.808712363
v 0.0326050334 0.16940324 0.47791034
v 0.0325763822 0.129301652 0.4206604
v -0.005878404 0.191767633 2.08294845
v -0.00537735363 0.169403419 0.477929264
v 0.03139954 0.480905741 0.48039934
v -0.04143226 0.480906069 0.48043558
v -0.0433883928 0.131127357 0.4206971
v -0.0433597527 0.169403583 0.4779481
v -0.04239962 0.530645132 0.41747725
v -0.00538916327 0.146437645 0.356982738
v -0.041494865 0.480829865 0.354578316
v 0.0313369371 0.480829537 0.354542077
v 0.0325763822 0.129301652 0.4206604
v 0.032593146 0.126900136 0.3569756
v 0.0313369371 0.480829537 0.354542077
v 0.0323047154 0.530644834 0.4174401
v 0.032593146 0.126900136 0.3569756
v 0.0362875871 0.0607145429 0.237552434
v -0.00511809625 0.09292003 0.279422283
v -0.00538916327 0.146437645 0.356982738
v -0.0465657 0.06071492 0.237593636
v -0.0433716327 0.126900479 0.3570134
v -0.0432942361 0.550526857 0.501027167
v 0.03328263 0.550526559 0.500989
v -0.0433070846 0.5828947 0.5440262
v 0.0331995 0.550425351 0.3338661
v -0.04337737 0.5504257 0.333904177
v 0.0332126133 0.582741 0.29082796
v 0.0332758352 0.6427097 0.4173717
v 0.0331995 0.550425351 0.3338661
v -0.00528537063 0.08005641 -0.353209466
v -0.00515982136 0.07606214 0.195694983
v 0.033338543 0.582894266 0.543988168
v -0.0433716327 0.126900479 0.3570134
v 0.032593146 0.126900136 0.3569756
v 0.0326050334 0.16940324 0.47791034
v 0.03139954 0.480905741 0.48039934
v 0.03328263 0.550526559 0.500989
v -0.00528537063 0.08005641 -0.353209466
v -0.005065315 0.175678685 0.808712363
v 0.033338543 0.582894266 0.543988168
v 0.0332126133 0.582741 0.29082796
v 0.033338543 0.582894266 0.543988168
v 0.0326050334 0.16940324 0.47791034
v -0.0433597527 0.169403583 0.4779481
v 0.032593146 0.126900136 0.3569756
v -0.005739983 -0.142821163 2.36425924
v -0.005572881 0.0275016818 2.698646
v -0.116845593 0.0272973 2.360459
v -0.004926681 -0.162956238 0.8081156
v -0.11015819 0.02634853 0.809305966
v -0.106180869 0.0268041044 0.479354143
v -0.00453976868 -0.155814663 0.477094263
v 0.105363324 0.0272963569 2.36034822
v -0.005905541 -0.1774541 2.08525729
v 0.109024487 0.027128851 2.08374715
v -0.120783523 0.027129842 2.083775
v 0.100030735 0.0263471417 0.8084104
v 0.0954235047 0.02676419 0.477428555
v -0.00573854428 0.19741945 2.364053
v -0.00492524169 0.21567139 0.8079613
v -0.004744262 0.209388182 0.477024972
v -0.005903733 0.231714487 2.08500957
vt 0.698751032 0.186662912
vt 0.6988343 0.324591279
vt 0.844174564 0.324591279
vt 0.03955315 0.776299
vt 0.144257382 0.9818976
vt 0.144257382 0.776299
vt 0.313802153 0.501650631
vt 0.313802153 0.501650631
vt 0.496258885 0.5038064
vt 0.3627254 0.427558482
vt 0.496258885 0.2957586
vt 0.3666493 0.353466272
vt 0.923553944 0.188057244
vt 0.9910548 0.0112802982
vt 0.9192595 0.0115386248
vt 0.8498089 0.158702552
vt 0.305228621 0.9548115
vt 0.496258885 0.9558894
vt 0.6988343 0.324591279
vt 0.144257382 0.776299
vt 0.313802153 0.501650631
vt 0.496258885 0.501650631
vt 0.365060627 0.427558482
vt 0.0126988245 0.5864345
vt 0.144257382 0.5864345
vt 0.332874477 0.123351216
vt 0.7316725 0.08612913
vt 0.731651247 0.1576562
vt 0.31689927 0.0112992525
vt 0.7903881 0.0112993717
vt 0.333800077 0.08636224
vt 0.332874477 0.123351216
vt 0.731651247 0.1576562
vt 0.7316725 0.08612913
vt 0.31689927 0.0112992525
vt 0.7903881 0.0112993717
vt 0.7316725 0.08612913
vt 0.316548318 0.0863422751
vt 0.7741809 0.9888124
vt 0.693956256 0.9888124
vt 0.7859335 0.883374631
vt 0.8969524 0.8320903
vt 0.9860257 0.938991964
vt 0.8969524 0.8320903
vt 0.7741809 0.9888124
vt 0.9860257 0.938991964
vt 0.810880661 0.105113387
vt 0.792796552 0.1847074
vt 0.8498089 0.158702552
vt 0.792796552 0.1847074
vt 0.810880661 0.105113387
vt 0.8498089 0.158702552
vt 0.810880661 0.105113387
vt 0.9192595 0.0115386248
vt 0.8828821 0.2312904
vt 0.821372032 0.780805767
vt 0.986034036 0.832430065
vt 0.9860337 0.8319432
vt 0.9860724 0.2312904
vt 0.923553944 0.188057244
vt 0.316548318 0.0863422751
vt 0.3666493 0.353466272
vt 0.496258885 0.2957586
vt 0.333800077 0.08636224
vt 0.7316725 0.08612913
vt 0.810880661 0.105113387
vt 0.6984902 0.4625194
vt 0.8047737 0.4625194
vt 0.6984902 0.4625194
vt 0.144257382 0.5864345
vt 0.0249384977 0.0203592181
vt 0.144257382 0.0203592181
vt 0.8334153 0.234697819
vt 0.8334153 0.234697819
vt 0.8498089 0.158702552
vt 0.33125928 0.157765269
vt 0.3337294 0.08634472
vt 0.314737529 0.157694459
vt 0.9860724 0.2312904
vt 0.144257382 0.0208423138
vt 0.496258885 0.9548115
vt 0.844174564 0.324591279
vt 0.248961657 0.776299
vt 0.678715646 0.501650631
vt 0.678715646 0.501650631
vt 0.6297924 0.427558482
vt 0.6258685 0.353466272
vt 0.923553944 0.188057244
vt 0.8498089 0.158702552
vt 0.9192595 0.0115386248
vt 0.9910548 0.0112802982
vt 0.6872892 0.9548115
vt 0.678715646 0.501650631
vt 0.627457142 0.427558482
vt 0.275815934 0.5864345
vt 0.332874477 0.123351216
vt 0.731651247 0.1576562
vt 0.7316725 0.08612913
vt 0.31689927 0.0112992525
vt 0.333800077 0.08636224
vt 0.7903881 0.0112993717
vt 0.332874477 0.123351216
vt 0.7316725 0.08612913
vt 0.731651247 0.1576562
vt 0.31689927 0.0112992525
vt 0.316548318 0.0863422751
vt 0.7316725 0.08612913
vt 0.7903881 0.0112993717
vt 0.7741809 0.9888124
vt 0.8969524 0.8320903
vt 0.7859335 0.883374631
vt 0.693956256 0.9888124
vt 0.8969524 0.8320903
vt 0.7741809 0.9888124
vt 0.810880661 0.105113387
vt 0.792796552 0.1847074
vt 0.8498089 0.158702552
vt 0.792796552 0.1847074
vt 0.810880661 0.105113387
vt 0.8498089 0.158702552
vt 0.9192595 0.0115386248
vt 0.810880661 0.105113387
vt 0.8828821 0.2312904
vt 0.821372032 0.780805767
vt 0.923553944 0.188057244
vt 0.316548318 0.0863422751
vt 0.6258685 0.353466272
vt 0.333800077 0.08636224
vt 0.7316725 0.08612913
vt 0.810880661 0.105113387
vt 0.8047737 0.4625194
vt 0.263576239 0.0203592181
vt 0.8334153 0.234697819
vt 0.8334153 0.234697819
vt 0.8498089 0.158702552
vt 0.33125928 0.157765269
vt 0.3337294 0.08634472
vt 0.314737529 0.157694459
vt 0.0850572 0.150863945
vt 0.500907 0.0004995465
vt 0.500408 0.152572751
vt 0.03589663 0.850618243
vt 0.498091519 0.850083
vt 0.499203831 0.9984531
vt 0.0533330739 0.9994693
vt 0.500405669 0.152622581
vt 0.0004995465 0.276323318
vt 0.4999967 0.2770024
vt 0.499999136 0.276989877
vt 0.498088121 0.8504857
vt 0.499106348 0.999318957
vt 0.9157678 0.15095669
vt 0.9603306 0.8506876
vt 0.9449899 0.9995004
vt 0.9995004 0.27643472
vn -0.0004973453 -0.000605519861 -0.9999997
vn 0.988344431 -9.63258353E-05 -0.152234167
vn -7.933968E-05 -0.9885988 -0.150573552
vn 0.000101553938 -0.977081656 0.212864861
vn 0.0004971668 0.0006055118 0.9999997
vn -0.992952049 7.60036637E-05 0.118516631
vn -0.7030301 -0.0389529429 0.7100925
vn 0.0019147417 -0.22039856 0.975408
vn -0.9936326 0.000305492926 0.112668328
vn -0.987744 -0.156067654 -0.00217759749
vn -0.9891923 -8.459615E-05 -0.146624058
vn -0.7921069 -0.464357525 -0.39615497
vn 0.557545066 -0.08407881 -0.8258779
vn 0.624941349 -0.780671656 0.000161710472
vn -0.6249475 -0.7806664 0.000783558
vn -0.5583673 -0.0840735957 -0.8253227
vn -0.0004974826 -0.9998111 -0.01942891
vn -0.999958932 -0.000239115485 -0.009058706
vn -0.9884954 -8.739135E-05 -0.151250929
vn 0.9930695 6.698414E-05 0.117528535
vn 0.7013948 -0.03098647 0.712099135
vn 0.994007051 0.000290779746 0.109315686
vn 0.9874413 -0.157954872 -0.00314773526
vn -0.000642638 -0.9986081 0.0527397431
vn 0.999830544 6.88720638E-06 0.0184098687
vn 0.0019147417 -0.22039856 0.975408
vn -0.7326475 0.10565047 0.6723582
vn 0.733018637 0.105186142 0.672026455
vn -0.987744 -0.156067654 -0.00217759749
vn -0.999963939 0.008472709 0.000606949558
vn -0.7030301 -0.0389529429 0.7100925
vn -0.000732101 -0.338204622 -0.941072345
vn 0.733422637 0.105189927 -0.671584964
vn -0.7328786 0.102938093 -0.6725271
vn 0.9874413 -0.157954872 -0.00314773526
vn 0.999959469 0.008980538 -0.0006427514
vn 0.733422637 0.105189927 -0.671584964
vn 0.795771062 -0.462301761 -0.391184777
vn 0.795771062 -0.462301761 -0.391184777
vn -0.000732101 -0.338204622 -0.941072345
vn 0.0004119147 -0.901492834 -0.4327938
vn 0.7616207 -0.6141006 -0.206916466
vn 0.989813566 -9.038947E-05 -0.142369449
vn -0.7598428 -0.6155985 -0.208991453
vn -0.7921069 -0.464357525 -0.39615497
vn -0.9891923 -8.459615E-05 -0.146624058
vn -0.7927404 0.3501013 0.498990744
vn 0.793239534 0.350094736 0.498201519
vn -0.55754596 -0.083073765 0.825979
vn 0.792742968 0.349490762 -0.4994144
vn -0.7932361 0.349498183 -0.4986257
vn 0.557545066 -0.08407881 -0.8258779
vn 0.792742968 0.349490762 -0.4994144
vn 0.624941349 -0.780671656 0.000161710472
vn 0.0001155691 -0.9911615 0.132660627
vn -0.000119576827 -0.999043047 -0.04373699
vn 0.977838933 -5.87376E-05 -0.209358647
vn -0.977742851 -4.89586564E-05 -0.20980683
vn -0.9911542 -0.000147759114 0.13271527
vn 0.558366 -0.08307777 0.825424433
vn -0.7921069 -0.464357525 -0.39615497
vn 0.795771062 -0.462301761 -0.391184777
vn 0.989813566 -9.038947E-05 -0.142369449
vn 0.7013948 -0.03098647 0.712099135
vn 0.733018637 0.105186142 0.672026455
vn 0.793239534 0.350094736 0.498201519
vn 0.991252244 -0.000156268667 0.131980732
vn 0.0001155691 -0.9911615 0.132660627
vn -0.9911542 -0.000147759114 0.13271527
vn -0.999851346 1.46545317E-05 0.0172420423
vn -0.0004974826 -0.9998111 -0.01942891
vn 0.9999595 -0.00024833018 -0.008995343
vn 0.558366 -0.08307777 0.825424433
vn 0.557545066 -0.08407881 -0.8258779
vn 0.558366 -0.08307777 0.825424433
vn 0.7013948 -0.03098647 0.712099135
vn -0.7030301 -0.0389529429 0.7100925
vn 0.795771062 -0.462301761 -0.391184777
vn 0.991252244 -0.000156268667 0.131980732
vn -0.999958932 -0.000239115485 -0.009058706
vn 0.9999595 -0.00024833018 -0.008995343
vn -7.101322E-05 0.9884157 -0.151770741
vn 0.000109807625 0.977338731 0.211681351
vn -0.703030169 0.039818842 0.7100444
vn 0.00191891158 0.22093603 0.9752864
vn -0.987742662 0.156073213 -0.00236670114
vn -0.792103052 0.463884056 -0.396716982
vn 0.557545841 0.08307441 -0.825979
vn -0.5583666 0.08307969 -0.825423837
vn -0.6249411 0.7806719 -0.000161787466
vn 0.6249478 0.7806661 -0.000783842348
vn -0.000487572048 0.999823749 -0.0187691748
vn 0.7013951 0.0318428278 0.7120611
vn 0.9874427 0.157942623 -0.00333903986
vn -0.000634257565 0.998671234 0.0515304
vn 0.00191891158 0.22093603 0.9752864
vn 0.7330177 -0.104378663 0.6721534
vn -0.7326488 -0.104830474 0.6724852
vn -0.987742662 0.156073213 -0.00236670114
vn -0.703030169 0.039818842 0.7100444
vn -0.999964 -0.008463518 0.000617194339
vn -0.0007292957 0.337064564 -0.941481233
vn -0.7328797 -0.103746206 -0.6724017
vn 0.733421564 -0.106009275 -0.671457231
vn 0.9874427 0.157942623 -0.00333903986
vn 0.795774937 0.4618209 -0.3917444
vn 0.733421564 -0.106009275 -0.671457231
vn 0.9999594 -0.008989745 -0.00063185906
vn 0.795774937 0.4618209 -0.3917444
vn 0.7615563 0.6137874 -0.208079308
vn 0.00041954167 0.900968 -0.433885276
vn -0.0007292957 0.337064564 -0.941481233
vn -0.759767056 0.6152957 -0.21015504
vn -0.792103052 0.463884056 -0.396716982
vn -0.7927427 -0.3494903 0.4994152
vn 0.7932369 -0.3494971 0.49862507
vn -0.557545245 0.08407936 0.825877666
vn 0.7927399 -0.350101739 -0.498991162
vn -0.793239 -0.350094825 -0.498202264
vn 0.557545841 0.08307441 -0.825979
vn 0.6249478 0.7806661 -0.000783842348
vn 0.7927399 -0.350101739 -0.498991162
vn 0.000123454447 0.99146235 0.1303933
vn -0.000112487272 0.998910069 -0.04667612
vn 0.558366656 0.08407262 0.8253232
vn -0.792103052 0.463884056 -0.396716982
vn 0.795774937 0.4618209 -0.3917444
vn 0.7013951 0.0318428278 0.7120611
vn 0.7330177 -0.104378663 0.6721534
vn 0.7932369 -0.3494971 0.49862507
vn 0.000123454447 0.99146235 0.1303933
vn -0.000487572048 0.999823749 -0.0187691748
vn 0.558366656 0.08407262 0.8253232
vn 0.557545841 0.08307441 -0.825979
vn 0.558366656 0.08407262 0.8253232
vn 0.7013951 0.0318428278 0.7120611
vn -0.703030169 0.039818842 0.7100444
vn 0.795774937 0.4618209 -0.3917444
vn 0.00012162338 -0.9697662 0.244035929
vn 0.0004976114 0.0006056704 0.9999997
vn -0.9878038 9.824466E-05 0.155703649
vn 0.000307091017 -0.9998588 -0.0168030821
vn -0.9999522 -0.0003251299 -0.009770977
vn -0.999926746 0.0002391652 -0.0121019306
vn 0.008381921 -0.999680758 -0.02383649
vn 0.9879584 8.951507E-05 0.154719934
vn -0.0005713735 -0.998541534 0.05398599
vn 0.9997972 7.795771E-06 0.0201382358
vn -0.999809146 1.73236986E-05 0.019537352
vn 0.9999563 -0.000244631956 -0.009343
vn 0.9999028 0.0008240905 -0.0139174964
vn 0.000129661814 0.970061064 0.242861167
vn 0.0004205457 0.9998673 -0.0162841957
vn 0.007426776 0.999753833 -0.020907905
vn -0.0005637943 0.9986063 0.05277351
usemtl 02020003_part_0_material_0
f 1/1/1 2/2/2 3/3/3
f 4/4/4 5/5/5 6/6/6
f 7/7/7 8/8/8 9/9/9
f 10/10/10 9/9/9 11/11/11
f 11/11/11 12/12/12 10/10/10
f 13/13/13 14/14/14 15/15/15
f 15/15/15 16/16/16 13/13/13
f 17/17/17 18/18/18 9/9/9
f 9/9/9 8/8/8 17/17/17
f 1/1/1 3/3/3 19/19/19
f 5/5/5 4/4/4 20/20/20
f 8/8/8 21/21/21 22/22/22
f 21/21/21 23/23/23 22/22/22
f 4/4/4 24/24/24 25/25/25
f 25/25/25 20/20/20 4/4/4
f 26/26/26 27/27/27 28/28/28
f 29/29/29 30/30/30 27/27/27
f 27/27/27 31/31/31 29/29/29
f 32/32/32 33/33/33 34/34/34
f 35/35/35 36/36/36 37/37/37
f 37/37/37 38/38/38 35/35/35
f 39/39/39 40/40/40 41/41/41
f 41/41/41 42/42/42 39/39/39
f 43/43/43 39/39/39 42/42/42
f 44/44/44 45/45/45 46/46/46
f 47/47/47 48/48/48 28/28/28
f 28/28/28 27/27/27 47/47/47
f 49/49/49 47/47/47 30/30/30
f 30/30/30 15/15/15 49/49/49
f 50/50/50 51/51/51 34/34/34
f 34/34/34 33/33/33 50/50/50
f 52/52/52 53/53/53 36/36/36
f 36/36/36 54/54/54 52/52/52
f 55/55/55 42/42/42 56/56/56
f 57/57/57 43/43/43 42/42/42
f 44/44/44 58/58/58 59/59/59
f 59/59/59 55/55/55 44/44/44
f 14/14/14 60/60/60 49/49/49
f 49/49/49 15/15/15 14/14/14
f 45/45/45 44/44/44 41/41/41
f 41/41/41 40/40/40 45/45/45
f 41/41/41 44/44/44 56/56/56
f 10/10/10 7/7/7 9/9/9
f 61/61/61 34/34/34 30/30/30
f 30/30/30 29/29/29 61/61/61
f 30/30/30 34/34/34 51/51/51
f 23/23/23 62/62/62 63/63/63
f 63/63/63 22/22/22 23/23/23
f 64/64/64 65/65/65 36/36/36
f 36/36/36 35/35/35 64/64/64
f 36/36/36 65/65/65 66/66/66
f 2/2/2 67/67/67 68/68/68
f 68/68/68 3/3/3 2/2/2
f 68/68/68 69/69/69 19/19/19
f 19/19/19 3/3/3 68/68/68
f 42/42/42 41/41/41 56/56/56
f 44/44/44 55/55/55 56/56/56
f 4/4/4 6/6/6 70/70/70
f 70/70/70 24/24/24 4/4/4
f 71/71/71 72/72/72 25/25/25
f 25/25/25 24/24/24 71/71/71
f 49/49/49 73/73/73 48/48/48
f 48/48/48 47/47/47 49/49/49
f 47/47/47 27/27/27 30/30/30
f 74/74/74 16/16/16 51/51/51
f 51/51/51 50/50/50 74/74/74
f 53/53/53 37/37/37 36/36/36
f 16/16/16 15/15/15 30/30/30
f 30/30/30 51/51/51 16/16/16
f 75/75/75 54/54/54 36/36/36
f 36/36/36 66/66/66 75/75/75
f 28/28/28 76/76/76 26/26/26
f 26/26/26 77/77/77 27/27/27
f 34/34/34 61/61/61 32/32/32
f 32/32/32 78/78/78 33/33/33
f 44/44/44 46/46/46 58/58/58
f 42/42/42 55/55/55 79/79/79
f 79/79/79 57/57/57 42/42/42
f 24/24/24 70/70/70 80/80/80
f 80/80/80 71/71/71 24/24/24
f 8/8/8 22/22/22 81/81/81
f 81/81/81 17/17/17 8/8/8
f 1/1/1 82/82/82 2/2/2
f 83/83/83 6/6/6 5/5/5
f 84/84/84 9/9/9 85/85/85
f 86/86/86 87/87/87 11/11/11
f 11/11/11 9/9/9 86/86/86
f 88/88/88 89/89/89 90/90/90
f 90/90/90 91/91/91 88/88/88
f 92/92/92 85/85/85 9/9/9
f 9/9/9 18/18/18 92/92/92
f 1/1/1 19/19/19 82/82/82
f 5/5/5 20/20/20 83/83/83
f 85/85/85 22/22/22 93/93/93
f 93/93/93 22/22/22 94/94/94
f 83/83/83 20/20/20 25/25/25
f 25/25/25 95/95/95 83/83/83
f 96/96/96 97/97/97 98/98/98
f 99/99/99 100/100/100 98/98/98
f 98/98/98 101/101/101 99/99/99
f 102/102/102 103/103/103 104/104/104
f 105/105/105 106/106/106 107/107/107
f 107/107/107 108/108/108 105/105/105
f 109/109/109 110/110/110 111/111/111
f 111/111/111 112/112/112 109/109/109
f 43/43/43 110/110/110 109/109/109
f 113/113/113 46/46/46 114/114/114
f 115/115/115 98/98/98 97/97/97
f 97/97/97 116/116/116 115/115/115
f 117/117/117 90/90/90 101/101/101
f 101/101/101 115/115/115 117/117/117
f 118/118/118 104/104/104 103/103/103
f 103/103/103 119/119/119 118/118/118
f 120/120/120 121/121/121 108/108/108
f 108/108/108 122/122/122 120/120/120
f 123/123/123 124/124/124 110/110/110
f 57/57/57 110/110/110 43/43/43
f 113/113/113 123/123/123 59/59/59
f 59/59/59 58/58/58 113/113/113
f 91/91/91 90/90/90 117/117/117
f 117/117/117 125/125/125 91/91/91
f 114/114/114 112/112/112 111/111/111
f 111/111/111 113/113/113 114/114/114
f 111/111/111 124/124/124 113/113/113
f 86/86/86 9/9/9 84/84/84
f 126/126/126 99/99/99 101/101/101
f 101/101/101 103/103/103 126/126/126
f 101/101/101 119/119/119 103/103/103
f 94/94/94 22/22/22 63/63/63
f 63/63/63 127/127/127 94/94/94
f 128/128/128 105/105/105 108/108/108
f 108/108/108 129/129/129 128/128/128
f 108/108/108 130/130/130 129/129/129
f 2/2/2 82/82/82 131/131/131
f 131/131/131 67/67/67 2/2/2
f 131/131/131 82/82/82 19/19/19
f 19/19/19 69/69/69 131/131/131
f 110/110/110 124/124/124 111/111/111
f 113/113/113 124/124/124 123/123/123
f 83/83/83 95/95/95 70/70/70
f 70/70/70 6/6/6 83/83/83
f 132/132/132 95/95/95 25/25/25
f 25/25/25 72/72/72 132/132/132
f 117/117/117 115/115/115 116/116/116
f 116/116/116 133/133/133 117/117/117
f 115/115/115 101/101/101 98/98/98
f 134/134/134 118/118/118 119/119/119
f 119/119/119 89/89/89 134/134/134
f 122/122/122 108/108/108 107/107/107
f 89/89/89 119/119/119 101/101/101
f 101/101/101 90/90/90 89/89/89
f 135/135/135 130/130/130 108/108/108
f 108/108/108 121/121/121 135/135/135
f 97/97/97 96/96/96 136/136/136
f 96/96/96 98/98/98 137/137/137
f 103/103/103 102/102/102 126/126/126
f 102/102/102 104/104/104 138/138/138
f 113/113/113 58/58/58 46/46/46
f 110/110/110 57/57/57 79/79/79
f 79/79/79 123/123/123 110/110/110
f 95/95/95 132/132/132 80/80/80
f 80/80/80 70/70/70 95/95/95
f 85/85/85 92/92/92 81/81/81
f 81/81/81 22/22/22 85/85/85
usemtl 02020003_part_0_material_1
f 139/139/139 140/140/140 141/141/141
f 142/142/142 143/143/143 144/144/144
f 144/144/144 145/145/145 142/142/142
f 140/140/140 139/139/139 146/146/146
f 139/139/139 147/147/147 148/148/148
f 148/148/148 146/146/146 139/139/139
f 139/139/139 141/141/141 149/149/149
f 149/149/149 147/147/147 139/139/139
f 142/142/142 150/150/150 148/148/148
f 148/148/148 147/147/147 142/142/142
f 147/147/147 149/149/149 143/143/143
f 143/143/143 142/142/142 147/147/147
f 145/145/145 151/151/151 150/150/150
f 150/150/150 142/142/142 145/145/145
f 152/152/152 141/141/141 140/140/140
f 153/153/153 154/154/154 144/144/144
f 144/144/144 143/143/143 153/153/153
f 140/140/140 146/146/146 152/152/152
f 152/152/152 146/146/146 148/148/148
f 148/148/148 155/155/155 152/152/152
f 152/152/152 155/155/155 149/149/149
f 149/149/149 141/141/141 152/152/152
f 153/153/153 155/155/155 148/148/148
f 148/148/148 150/150/150 153/153/153
f 155/155/155 153/153/153 143/143/143
f 143/143/143 149/149/149 155/155/155
f 154/154/154 153/153/153 150/150/150
f 150/150/150 151/151/151 154/154/154
