mtllib 02050002.mtl
o 02050002_part_0
v 0.006525185 0.157262713 1.679551
v 0.0197768938 -0.06386262 1.75312126
v 0.0197769254 0.243889451 2.166079
v 0.00351875462 0.102834463 1.234658
v 0.0197768733 -0.1421807 1.28117669
v 0.000229839236 0.07369749 0.7933555
v 0.0197768547 -0.151319 0.794086456
v -0.00116586254 0.07566996 0.365536243
v 0.0197768435 -0.105006814 0.3641463
v 0.0197769254 0.243889451 2.166079
v 0.0197768938 -0.06386262 1.75312126
v 0.033028625 0.157262713 1.679551
v 0.0197768733 -0.1421807 1.28117669
v 0.03603502 0.102834463 1.234658
v 0.0197768547 -0.151319 0.794086456
v 0.0393239036 0.07369749 0.7933555
v 0.0197768435 -0.105006814 0.3641463
v 0.0407195874 0.07566996 0.365536243
v -0.00116586254 0.07566996 0.365536243
v 0.000229839236 0.07369749 0.7933555
v 0.0393239036 0.07369749 0.7933555
v 0.0407195874 0.07566996 0.365536243
v 0.00351875462 0.102834463 1.234658
v 0.03603502 0.102834463 1.234658
v 0.006525185 0.157262713 1.679551
v 0.033028625 0.157262713 1.679551
v 0.0197769254 0.243889451 2.166079
v 0.0615430959 -0.23631683 0.381168157
v 0.0872115344 -0.00827928 0.3933071
v -0.0437181443 -0.00827928 0.3933071
v -0.0180576835 -0.23631683 0.381168157
v 0.06478314 0.215314373 0.3861158
v -0.0212977286 0.215314373 0.3861158
v 0.06383385 -0.218155622 0.216691464
v -0.0205200966 -0.218155608 0.216691464
v -0.047725 -0.008279285 0.206685349
v 0.09102281 -0.008279286 0.206685334
v -0.0239536073 0.201597 0.216691464
v 0.0672673658 0.201597 0.216691375
v 0.0615430959 -0.23631683 0.381168157
v -0.0180576835 -0.23631683 0.381168157
v -0.0330842026 -0.2609593 0.304699
v 0.0765696 -0.2609593 0.304699
v -0.0180576835 -0.23631683 0.381168157
v -0.0437181443 -0.00827928 0.3933071
v -0.06843419 -0.008279279 0.304699
v -0.0330842026 -0.2609593 0.304699
v -0.0212977286 0.215314373 0.3861158
v -0.03754751 0.244400755 0.304699
v -0.0212977286 0.215314373 0.3861158
v 0.06478314 0.215314373 0.3861158
v 0.08103292 0.24440074 0.304699
v -0.03754751 0.244400755 0.304699
v 0.06478314 0.215314373 0.3861158
v 0.0872115344 -0.00827928 0.3933071
v 0.111927576 -0.008279281 0.304699
v 0.08103292 0.24440074 0.304699
v 0.0615430959 -0.23631683 0.381168157
v 0.0765696 -0.2609593 0.304699
v 0.0765696 -0.2609593 0.304699
v -0.0330842026 -0.2609593 0.304699
v -0.0205200966 -0.218155608 0.216691464
v 0.06383385 -0.218155622 0.216691464
v -0.0330842026 -0.2609593 0.304699
v -0.06843419 -0.008279279 0.304699
v -0.047725 -0.008279285 0.206685349
v -0.0205200966 -0.218155608 0.216691464
v 0.111927576 -0.008279281 0.304699
v 0.0765696 -0.2609593 0.304699
v 0.06383385 -0.218155622 0.216691464
v 0.09102281 -0.008279286 0.206685334
v -0.06843419 -0.008279279 0.304699
v -0.03754751 0.244400755 0.304699
v -0.0239536073 0.201597 0.216691464
v -0.0239536073 0.201597 0.216691464
v -0.047725 -0.008279285 0.206685349
v -0.06843419 -0.008279279 0.304699
v -0.03754751 0.244400755 0.304699
v 0.08103292 0.24440074 0.304699
v 0.0672673658 0.201597 0.216691375
v -0.0239536073 0.201597 0.216691464
v 0.08103292 0.24440074 0.304699
v 0.111927576 -0.008279281 0.304699
v 0.09102281 -0.008279286 0.206685334
v 0.09102281 -0.008279286 0.206685334
v 0.0672673658 0.201597 0.216691375
v 0.08103292 0.24440074 0.304699
v -0.0460075028 -0.012914923 0.2152824
v 0.0146897864 0.0893066 -0.0422128439
v -0.05103783 0.0118561871 -0.04221284
v 0.0239115618 0.09721593 0.2152824
v 0.0239115618 0.09721593 0.2152824
v 0.0804174244 0.0118561815 -0.0422128476
v 0.0146897864 0.0893066 -0.0422128439
v 0.09383063 -0.0129149351 0.2152824
v 0.0146897752 -0.07041105 -0.0416179858
v 0.0239115488 -0.109431684 0.2152824
v 0.0239115488 -0.109431684 0.2152824
v 0.0146897752 -0.07041105 -0.0416179858
v 0.0146897491 0.109493531 -0.488330454
v 0.07870752 0.0381083451 -0.490071684
v 0.014689737 -0.0440950841 -0.492840379
v -0.04932804 0.03810835 -0.490071654
v 0.0146897677 0.104546063 -0.295852065
v -0.06803191 0.0277911257 -0.30031994
v 0.09741144 0.0277911182 -0.30031994
v 0.0146897677 0.104546063 -0.295852065
v 0.014689751 -0.05001822 -0.299816757
v 0.014689751 -0.05001822 -0.299816757
v 0.126404867 0.0392534062 -0.4190018
v 0.0146897575 0.1481987 -0.4151938
v 0.0146897361 -0.107637689 -0.4212392
v -0.09702537 0.0392534137 -0.4190018
v 0.0146897361 -0.107637689 -0.4212392
v 0.0146897575 0.1481987 -0.4151938
v 0.07870752 0.0381083451 -0.490071684
v 0.0146897491 0.109493531 -0.488330454
v 0.014689737 -0.0440950841 -0.492840379
v -0.04932804 0.03810835 -0.490071654
v 0.014689737 -0.0440950841 -0.492840379
v 0.0146897491 0.109493531 -0.488330454
v -0.0346782953 0.200493813 1.67377651
v 0.0197768938 -0.11881265 1.77721477
v 0.0197769254 0.263443559 2.22280335
v -0.03897269 0.145031154 1.23092759
v 0.0197768919 -0.201576173 1.28967237
v -0.04438679 0.113797091 0.7921812
v 0.0197768416 -0.2113187 0.7942775
v -0.0458745025 0.115683936 0.365396321
v 0.0197769273 -0.16466172 0.3577204
v 0.0197769254 0.263443559 2.22280335
v 0.0197768938 -0.11881265 1.77721477
v 0.07413335 0.200586364 1.67376626
v 0.0197768919 -0.201576173 1.28967237
v 0.07841951 0.145138174 1.23092294
v 0.0197768416 -0.2113187 0.7942775
v 0.08389488 0.113847882 0.7921828
v 0.0197769273 -0.16466172 0.3577204
v 0.0854284 0.115683742 0.365396321
v -0.0458745025 0.115683936 0.365396321
v -0.04438679 0.113797091 0.7921812
v 0.08389488 0.113847882 0.7921828
v 0.0854284 0.115683742 0.365396321
v -0.03897269 0.145031154 1.23092759
v 0.07841951 0.145138174 1.23092294
v -0.0346782953 0.200493813 1.67377651
v 0.07413335 0.200586364 1.67376626
v 0.0197769254 0.263443559 2.22280335
vt 0.2527338 0.722737253
vt 0.113118835 0.6178584
vt 0.027538484 0.9832009
vt 0.478600681 0.511963546
vt 0.333057582 0.3674122
vt 0.716312349 0.321584463
vt 0.611959934 0.17993629
vt 0.975574255 0.139210224
vt 0.887964368 0.02373439
vt 0.0274790172 0.983139336
vt 0.113059394 0.6177969
vt 0.252674371 0.72267586
vt 0.332998157 0.3673507
vt 0.478541255 0.511902034
vt 0.6119005 0.179874718
vt 0.7162529 0.321522832
vt 0.887904942 0.0236728787
vt 0.9755148 0.139148653
vt 0.9550192 0.260427
vt 0.7489453 0.39983356
vt 0.7222215 0.362368226
vt 0.92112416 0.212907851
vt 0.5635565 0.54328233
vt 0.5413292 0.512120843
vt 0.36349985 0.70108813
vt 0.34538272 0.675688863
vt 0.189612582 0.851414561
vt 0.9893138 0.7835661
vt 0.864308536 0.8977879
vt 0.807549357 0.8196657
vt 0.9548061 0.7360704
vt 0.7212257 0.981297
vt 0.6839088 0.929935
vt 0.649272263 0.890313268
vt 0.609924555 0.8361558
vt 0.73198086 0.7207904
vt 0.7967012 0.809870362
vt 0.8778156 0.638153434
vt 0.920366466 0.696719766
vt 0.507491231 0.9523197
vt 0.507491231 0.837137461
vt 0.3996255 0.8153941
vt 0.3996255 0.9740631
vt 0.395823479 0.043804884
vt 0.207642645 0.167377651
vt 0.2593329 0.238361239
vt 0.459983051 0.0905866
vt 0.0339405872 0.302618146
vt 0.058273524 0.384608626
vt 0.510546863 0.8330928
vt 0.510546863 0.9542988
vt 0.398322433 0.977179348
vt 0.398322433 0.8102124
vt 0.0341280773 0.3019271
vt 0.208082512 0.167180181
vt 0.259557664 0.23823607
vt 0.0582337528 0.383922458
vt 0.396488369 0.0441823
vt 0.4604907 0.09109074
vt 0.3996255 0.9740631
vt 0.3996255 0.8153941
vt 0.268233865 0.8335744
vt 0.268233865 0.955634534
vt 0.459983051 0.0905866
vt 0.2593329 0.238361239
vt 0.3162131 0.3157717
vt 0.4770667 0.1851281
vt 0.259557664 0.23823607
vt 0.4604907 0.09109074
vt 0.4773238 0.185638487
vt 0.316212177 0.315772116
vt 0.2593329 0.238361239
vt 0.058273524 0.384608626
vt 0.143404692 0.429336846
vt 0.143404692 0.429336846
vt 0.3162131 0.3157717
vt 0.2593329 0.238361239
vt 0.398322433 0.8102124
vt 0.398322433 0.977179348
vt 0.2712895 0.957796752
vt 0.271289676 0.8293532
vt 0.0582337528 0.383922458
vt 0.259557664 0.23823607
vt 0.316212177 0.315772116
vt 0.316212177 0.315772116
vt 0.1432072 0.428858876
vt 0.0582337528 0.383922458
vt 0.4788172 0.755215347
vt 0.6924724 0.6872932
vt 0.649708569 0.6406989
vt 0.5383066 0.821936965
vt 0.537414 0.8217455
vt 0.649363637 0.6407013
vt 0.692504048 0.687111855
vt 0.477567226 0.755222142
vt 0.611792 0.588651955
vt 0.433460027 0.6939682
vt 0.4340317 0.6941389
vt 0.6115119 0.5888184
vt 0.13497217 0.167872071
vt 0.0575755835 0.105971813
vt 0.133330777 0.02611059
vt 0.19807592 0.1064595
vt 0.8564597 0.5687281
vt 0.8158479 0.5206467
vt 0.815158248 0.521094
vt 0.856279433 0.5689394
vt 0.7809661 0.471372247
vt 0.78090924 0.4711396
vt 0.8921269 0.469130158
vt 0.951691 0.5358953
vt 0.826713443 0.374661446
vt 0.893141568 0.4684223
vt 0.826657057 0.374234617
vt 0.9520275 0.535503
vt 0.938325346 0.431596041
vt 0.977234364 0.475170374
vt 0.902747333 0.377932549
vt 0.9390304 0.430904984
vt 0.902843 0.377400517
vt 0.977565 0.474660754
vt 0.867040753 0.294576764
vt 0.195151985 0.239171743
vt 0.999500453 0.0004995465
vt 0.7503356 0.531781435
vt 0.0209999084 0.5003158
vt 0.6846124 0.7667887
vt 0.0004995465 0.7656659
vt 0.6885828 0.995389
vt 0.09867576 0.9995005
vt 0.999500453 0.0004995465
vt 0.195151985 0.239171743
vt 0.867235541 0.294582248
vt 0.0209999084 0.5003158
vt 0.75056076 0.531783938
vt 0.0004995465 0.7656659
vt 0.684719265 0.7667879
vt 0.09867576 0.9995005
vt 0.6885823 0.995389
vt 0.6885828 0.995389
vt 0.6846124 0.7667887
vt 0.684719265 0.7667879
vt 0.6885823 0.995389
vt 0.7503356 0.531781435
vt 0.75056076 0.531783938
vt 0.867040753 0.294576764
vt 0.867235541 0.294582248
vt 0.999500453 0.0004995465
vn -0.9983704 -0.05203884 0.0234199185
vn -0.998295665 -0.0534473248 0.0234346334
vn -0.9982114 -0.04793575 0.03572365
vn -0.9979533 -0.06289065 0.0115755023
vn -0.9976799 -0.06739086 0.00966212247
vn -0.996530235 -0.0831475854 0.003737948
vn -0.99592793 -0.09015241 0.0002870267
vn -0.9943059 -0.106284328 -0.00770481676
vn -0.9932837 -0.11503873 -0.0123916855
vn 0.9982114 -0.0479358733 0.03572359
vn 0.998295665 -0.0534474477 0.02343457
vn 0.9983704 -0.05203896 0.0234198552
vn 0.9976798 -0.06739099 0.009662057
vn 0.9979533 -0.06289077 0.0115754381
vn 0.99592793 -0.09015256 0.000286964147
vn 0.996530235 -0.08314772 0.00373789086
vn 0.9932837 -0.115038924 -0.0123917591
vn 0.9943059 -0.106284514 -0.00770488055
vn 0 0.9999894 0.004610465
vn 0 0.9995337 -0.0305343214
vn 0 0.9995337 -0.030534314
vn 0 0.9999894 0.004610465
vn 0 0.995612741 -0.0935695
vn 0 0.995612741 -0.0935694948
vn 0 0.9889679 -0.1481301
vn 0 0.9889679 -0.148130089
vn 0 0.984516144 -0.175293952
vn 0 -0.0531569049 0.9985862
vn 0 -0.0103401411 0.999946535
vn 0 -0.0103401374 0.999946535
vn 0 -0.0531569 0.9985862
vn 0 0.0321457423 0.999483168
vn 0 0.0321457423 0.999483168
vn -4.440811E-08 -0.04762217 -0.9988654
vn -8.412474E-09 -0.04762215 -0.9988654
vn -9.50928936E-08 0.000264718983 -0.99999994
vn -2.24223683E-07 0.000264641974 -0.99999994
vn -6.612786E-07 0.0476218648 -0.9988654
vn -9.790022E-07 0.0476216935 -0.9988654
vn 0 -0.9517995 0.3067209
vn 0 -0.9517995 0.3067209
vn 0 -0.9517995 0.3067209
vn 0 -0.9517995 0.3067209
vn -0.961845636 -0.132151365 0.239559963
vn -0.9642541 -0.00304976478 0.264961749
vn -0.964210868 -0.00365259335 0.265111417
vn -0.963170946 -0.1347478 0.23269023
vn -0.9674767 0.104422085 0.230401471
vn -0.9646136 0.107918195 0.240570545
vn 7.107838E-08 0.9417091 0.3364282
vn 0 0.941709161 0.336428136
vn 5.993834E-08 0.9417091 0.336428165
vn 1.183379E-07 0.9417091 0.336428255
vn 0.9635691 0.115290269 0.241335332
vn 0.9641388 -0.0127133252 0.265093774
vn 0.96417284 -0.012829544 0.264964342
vn 0.9648767 0.117973462 0.2347237
vn 0.965941966 -0.12090683 0.228774279
vn 0.9630342 -0.124355428 0.238957733
vn 0 -0.899278462 -0.437376559
vn 0 -0.899278462 -0.437376559
vn 0 -0.899278462 -0.437376559
vn -1.58857944E-07 -0.8992785 -0.43737644
vn -0.9693605 -0.135613725 -0.204815
vn -0.9693605 -0.135613725 -0.204815
vn -0.9693605 -0.135613725 -0.204815
vn -0.969504833 -0.135409251 -0.204266325
vn 0.969070554 -0.1356038 -0.206188992
vn 0.969070554 -0.1356038 -0.206188992
vn 0.969070554 -0.1356038 -0.206188992
vn 0.968998253 -0.135384709 -0.206672
vn -0.970964849 0.11868716 -0.2077033
vn -0.970964849 0.11868716 -0.2077033
vn -0.970964849 0.11868716 -0.2077033
vn -0.9713523 0.119803958 -0.205235854
vn -0.9713523 0.119803958 -0.205235854
vn -0.9713523 0.119803958 -0.205235854
vn 1.13005946E-07 0.899278462 -0.4373766
vn 1.13005946E-07 0.899278462 -0.4373766
vn 1.13005946E-07 0.899278462 -0.4373766
vn -4.286795E-07 0.899278164 -0.437377125
vn 0.971084535 0.118732482 -0.207116961
vn 0.971084535 0.118732482 -0.207116961
vn 0.971084535 0.118732482 -0.207116961
vn 0.970316231 0.119842686 -0.210057378
vn 0.970316231 0.119842686 -0.210057378
vn 0.970316231 0.119842686 -0.210057378
vn -0.9987516 -0.0491138622 -0.009115308
vn -0.0268923771 0.9983566 0.05060602
vn -0.999069035 0.03191066 0.0290302318
vn 0.0027244552 0.99996984 0.00727529358
vn 0.0027244552 0.99996984 0.00727529358
vn 0.9996757 0.002083097 -0.0253816936
vn -0.0268923771 0.9983566 0.05060602
vn 0.9953221 -0.06877969 -0.06784692
vn 0.00201288378 -0.9957109 -0.09249714
vn 0.0215267651 -0.990038 -0.1391454
vn 0.0215267651 -0.990038 -0.1391454
vn 0.00201288378 -0.9957109 -0.09249714
vn 0.0234942846 0.6645869 -0.74684155
vn 0.6073769 0.0594286062 -0.79218787
vn 0.00144471158 -0.5535518 -0.8328135
vn -0.600907564 0.0386902168 -0.7983816
vn -0.0026393733 0.975162148 0.221476361
vn -0.988908768 -0.0101372926 0.148178026
vn 0.9825808 0.013343378 0.185356155
vn -0.0026393733 0.975162148 0.221476361
vn -0.0261791386 -0.9829113 0.182208836
vn -0.0261791386 -0.9829113 0.182208836
vn 0.985287547 0.08800006 -0.146507487
vn 0.008527467 0.9978894 -0.06437399
vn -0.0154805258 -0.990686238 -0.135281622
vn -0.99059993 0.06171745 -0.122076944
vn -0.0154805258 -0.990686238 -0.135281622
vn 0.008527467 0.9978894 -0.06437399
vn 0.6073769 0.0594286062 -0.79218787
vn 0.0234942846 0.6645869 -0.74684155
vn 0.00144471158 -0.5535518 -0.8328135
vn -0.600907564 0.0386902168 -0.7983816
vn 0.00144471158 -0.5535518 -0.8328135
vn 0.0234942846 0.6645869 -0.74684155
vn -0.9869449 -0.146989584 0.06583196
vn -0.9868148 -0.147436321 0.06677642
vn -0.9848908 -0.131438181 0.112756692
vn -0.986423135 -0.162162036 0.0259406436
vn -0.985397756 -0.168863818 0.0218226463
vn -0.9822305 -0.187541172 0.00718558626
vn -0.97982496 -0.199849963 -0.00175036653
vn -0.9768575 -0.213481173 -0.0132365394
vn -0.9735185 -0.227313668 -0.02429431
vn 0.9849517 -0.131175429 0.112531133
vn 0.9868687 -0.147137731 0.06663877
vn 0.9869981 -0.146692574 0.06569699
vn 0.985450566 -0.168554544 0.0218287241
vn 0.9864795 -0.161811784 0.0259821732
vn 0.979851842 -0.199718252 -0.00171335484
vn 0.9822688 -0.187336683 0.00727590173
vn 0.973518431 -0.227314 -0.0242939629
vn 0.976873 -0.21341376 -0.01318217
vn -7.2495015E-05 0.999990642 0.004324046
vn -0.000438319839 0.999449253 -0.033180777
vn -0.000357363373 0.9994486 -0.0332025625
vn 1.47531625E-06 0.999990761 0.004301555
vn -0.0009070794 0.9952378 -0.09747258
vn -0.000864235859 0.9952366 -0.09748526
vn -0.0008557285 0.9928663 -0.119230174
vn -0.000860273431 0.992866457 -0.119228624
vn -0.00085575867 0.993500233 -0.113826841
usemtl 02050002_part_0_material_0
f 1/1/1 2/2/2 3/3/3
f 2/2/2 1/1/1 4/4/4
f 4/4/4 5/5/5 2/2/2
f 5/5/5 4/4/4 6/6/6
f 6/6/6 7/7/7 5/5/5
f 7/7/7 6/6/6 8/8/8
f 8/8/8 9/9/9 7/7/7
f 10/10/10 11/11/11 12/12/12
f 11/11/11 13/13/13 14/14/14
f 14/14/14 12/12/12 11/11/11
f 13/13/13 15/15/15 16/16/16
f 16/16/16 14/14/14 13/13/13
f 15/15/15 17/17/17 18/18/18
f 18/18/18 16/16/16 15/15/15
f 19/19/19 20/20/20 21/21/21
f 21/21/21 22/22/22 19/19/19
f 20/20/20 23/23/23 24/24/24
f 24/24/24 21/21/21 20/20/20
f 23/23/23 25/25/25 26/26/26
f 26/26/26 24/24/24 23/23/23
f 27/27/27 26/26/26 25/25/25
f 28/28/28 29/29/29 30/30/30
f 30/30/30 31/31/31 28/28/28
f 29/29/29 32/32/32 33/33/33
f 33/33/33 30/30/30 29/29/29
f 34/34/34 35/35/35 36/36/36
f 36/36/36 37/37/37 34/34/34
f 37/37/37 36/36/36 38/38/38
f 38/38/38 39/39/39 37/37/37
f 40/40/40 41/41/41 42/42/42
f 42/42/42 43/43/43 40/40/40
f 44/44/44 45/45/45 46/46/46
f 46/46/46 47/47/47 44/44/44
f 45/45/45 48/48/48 49/49/49
f 49/49/49 46/46/46 45/45/45
f 50/50/50 51/51/51 52/52/52
f 52/52/52 53/53/53 50/50/50
f 54/54/54 55/55/55 56/56/56
f 56/56/56 57/57/57 54/54/54
f 55/55/55 58/58/58 59/59/59
f 59/59/59 56/56/56 55/55/55
f 60/60/60 61/61/61 62/62/62
f 62/62/62 63/63/63 60/60/60
f 64/64/64 65/65/65 66/66/66
f 66/66/66 67/67/67 64/64/64
f 68/68/68 69/69/69 70/70/70
f 70/70/70 71/71/71 68/68/68
f 72/72/72 73/73/73 74/74/74
f 75/75/75 76/76/76 77/77/77
f 78/78/78 79/79/79 80/80/80
f 80/80/80 81/81/81 78/78/78
f 82/82/82 83/83/83 84/84/84
f 85/85/85 86/86/86 87/87/87
f 88/88/88 89/89/89 90/90/90
f 88/88/88 91/91/91 89/89/89
f 92/92/92 93/93/93 94/94/94
f 92/92/92 95/95/95 93/93/93
f 95/95/95 96/96/96 93/93/93
f 95/95/95 97/97/97 96/96/96
f 98/98/98 90/90/90 99/99/99
f 98/98/98 88/88/88 90/90/90
f 100/100/100 101/101/101 102/102/102
f 100/100/100 102/102/102 103/103/103
f 90/90/90 89/89/89 104/104/104
f 104/104/104 105/105/105 90/90/90
f 94/94/94 93/93/93 106/106/106
f 106/106/106 107/107/107 94/94/94
f 93/93/93 96/96/96 108/108/108
f 108/108/108 106/106/106 93/93/93
f 99/99/99 90/90/90 105/105/105
f 105/105/105 109/109/109 99/99/99
f 107/107/107 106/106/106 110/110/110
f 110/110/110 111/111/111 107/107/107
f 106/106/106 108/108/108 112/112/112
f 112/112/112 110/110/110 106/106/106
f 109/109/109 105/105/105 113/113/113
f 113/113/113 114/114/114 109/109/109
f 105/105/105 104/104/104 115/115/115
f 115/115/115 113/113/113 105/105/105
f 111/111/111 110/110/110 116/116/116
f 116/116/116 117/117/117 111/111/111
f 110/110/110 112/112/112 118/118/118
f 118/118/118 116/116/116 110/110/110
f 114/114/114 113/113/113 119/119/119
f 119/119/119 120/120/120 114/114/114
f 113/113/113 115/115/115 121/121/121
f 121/121/121 119/119/119 113/113/113
usemtl 02050002_part_0_material_1
f 122/122/122 123/123/123 124/124/124
f 123/123/123 122/122/122 125/125/125
f 125/125/125 126/126/126 123/123/123
f 126/126/126 125/125/125 127/127/127
f 127/127/127 128/128/128 126/126/126
f 128/128/128 127/127/127 129/129/129
f 129/129/129 130/130/130 128/128/128
f 131/131/131 132/132/132 133/133/133
f 132/132/132 134/134/134 135/135/135
f 135/135/135 133/133/133 132/132/132
f 134/134/134 136/136/136 137/137/137
f 137/137/137 135/135/135 134/134/134
f 136/136/136 138/138/138 139/139/139
f 139/139/139 137/137/137 136/136/136
f 140/140/140 141/141/141 142/142/142
f 142/142/142 143/143/143 140/140/140
f 141/141/141 144/144/144 145/145/145
f 145/145/145 142/142/142 141/141/141
f 144/144/144 146/146/146 147/147/147
f 147/147/147 145/145/145 144/144/144
f 148/148/148 147/147/147 146/146/146
