mtllib 03010120.mtl
o 03010120_part_0
v -0.0149513157 -0.008761257 1.90698671
v 0.00720475 -0.0318578668 2.00388432
v 0.007204768 0.0148042766 1.91200173
v -0.0515142 0.16428718 0.257692724
v 0.00720512867 0.201621 0.330682784
v 0.00720513426 0.221234888 0.301262021
v 0.00720516359 0.147683114 0.2031929
v -0.05151419 0.126545429 0.241171032
v 0.00720518641 0.02264502 0.154158264
v -0.0292226542 -0.03185687 -0.355801046
v 0.00720526977 0.069227986 -0.2111491
v 0.007205309 0.0152900256 -0.355801046
v -0.02922269 -0.03185693 -0.208273083
v -0.04781139 -0.0318570063 -0.03158952
v 0.00720522925 0.03245195 -0.0297212284
v 0.007205244 0.007934695 -0.08120753
v -0.0292228367 -0.0318572 0.422850847
v -0.02922285 0.103426896 0.421711922
v -0.0292228386 0.103551865 0.374813735
v -0.02922281 -0.03185714 0.283452779
v -0.0292228218 0.108455375 0.284099847
v -0.05151418 0.0660729557 0.2279686
v -0.0292228274 -0.03185718 0.3786046
v -0.0292228386 0.103551865 0.374813735
v -0.0292228274 -0.03185718 0.3786046
v -0.02922274 -0.03185702 0.001169427
v 0.007205224 0.0103863981 0.00215114444
v 0.00720526837 0.0103864754 -0.184180111
v -0.02922272 -0.0318569839 -0.08013448
v -0.0292226952 -0.03185694 -0.184002832
v -0.0515141748 -0.0318571143 0.2243244
v -0.0292227771 -0.0318570845 0.158230469
v 0.00720511144 0.15205884 0.4213967
v -0.0149513241 -0.03185785 1.94914341
v 0.007205145 0.1550382 0.279196441
v 0.0436330959 0.103551872 0.374813765
v 0.04363312 0.108455382 0.284099877
v 0.0436330959 0.103551872 0.374813765
v -0.014951312 -0.05495441 1.90698671
v 0.007204776 -0.07851994 1.91200173
v -0.0515141673 -0.22800146 0.257692546
v 0.0072051785 -0.284949183 0.301261783
v 0.00720516965 -0.2653353 0.330682546
v 0.00720519526 -0.21139732 0.203192726
v -0.05151416 -0.19025968 0.241170883
v 0.00720519572 -0.08635919 0.154158235
v 0.00720531726 -0.07900376 -0.355801046
v 0.00720528746 -0.132941857 -0.211149186
v 0.007205251 -0.07164866 -0.081207566
v 0.007205241 -0.09616596 -0.0297212843
v -0.0292228162 -0.1672662 0.374813676
v -0.0292228255 -0.167141289 0.421711862
v -0.05151416 -0.129787192 0.227968559
v -0.0292227976 -0.172169656 0.284099758
v -0.0292228162 -0.1672662 0.374813676
v 0.00720523158 -0.07410043 0.00215110974
v 0.00720527535 -0.07410035 -0.184180126
v 0.00720514357 -0.2157732 0.421396554
v 0.007205178 -0.218752474 0.279196233
v 0.04363312 -0.1672662 0.374813735
v 0.04363314 -0.172169641 0.284099817
v 0.04363312 -0.1672662 0.374813735
v 0.0293608587 -0.008761253 1.90698671
v 0.0659244955 0.1642872 0.257692754
v 0.06592451 0.126545444 0.241171047
v 0.04363328 -0.0318568647 -0.355801046
v 0.0436332449 -0.0318569243 -0.208273083
v 0.06222186 -0.031857 -0.0315894932
v 0.0436330922 -0.0318571925 0.4228509
v 0.04363308 0.1034269 0.421711922
v 0.04363313 -0.0318571366 0.2834528
v 0.06592451 0.06607296 0.227968648
v 0.04363312 0.108455382 0.284099877
v 0.0436331034 -0.0318571739 0.3786046
v 0.0436330959 0.103551872 0.374813765
v 0.0436331034 -0.0318571739 0.3786046
v 0.0436331965 -0.0318570137 0.00116944592
v 0.0436332151 -0.0318569764 -0.08013447
v 0.0436332375 -0.0318569355 -0.184002817
v 0.0659245253 -0.0318571068 0.224324435
v 0.0436331555 -0.03185708 0.158230484
v 0.0293608513 -0.0318578444 1.94914341
v 0.0293608624 -0.0549544059 1.90698671
v 0.06592453 -0.228001446 0.257692575
v 0.06592453 -0.190259665 0.241170883
v 0.0436331034 -0.167141274 0.4217119
v 0.04363312 -0.1672662 0.374813735
v 0.04363314 -0.172169641 0.284099817
v 0.0659245253 -0.129787177 0.2279686
v 0.04363312 -0.1672662 0.374813735
v 0.00720531726 -0.07900376 -0.355801046
v -0.0292226542 -0.03185687 -0.355801046
v 0.007205309 0.0152900256 -0.355801046
v 0.04363328 -0.0318568647 -0.355801046
v -0.0432323925 0.0109283905 1.91310954
v 0.00720491866 -0.031857878 2.0388844
v 0.00720493635 0.0485127829 1.92142177
v -0.082919 -0.0318571962 0.423019946
v -0.0623784736 0.114621744 0.422326
v -0.05678944 0.166877791 0.343268663
v -0.08291951 -0.0318571776 0.3786046
v -0.05357312 0.133559555 0.280562669
v -0.0829195 -0.03185714 0.283452779
v 0.00720516173 0.186573923 0.415590763
v -0.0492593572 -0.03185785 1.9560678
v 0.07119861 0.166879877 0.34326908
v 0.06798348 0.13355957 0.280562729
v -0.0432323962 -0.07464405 1.91310954
v 0.00720493961 -0.112228453 1.92142177
v -0.05678827 -0.23059395 0.343268961
v -0.0623784736 -0.178336129 0.4223259
v -0.0535731241 -0.197273836 0.28056258
v 0.00720516127 -0.250288278 0.415590525
v 0.07119861 -0.230593979 0.34326902
v 0.06798624 -0.197271153 0.2805625
v 0.0576422662 0.0109283887 1.91310954
v 0.09732931 -0.0318571962 0.423020035
v 0.07678879 0.114621751 0.422326028
v 0.09732984 -0.0318571776 0.3786046
v 0.09732987 -0.0318571366 0.2834528
v 0.06366921 -0.03185785 1.9560678
v 0.05764227 -0.07464406 1.91310954
v 0.07678878 -0.178336143 0.422325969
vt 0.7949219 0.953125
vt 0.8574219 0.98828125
vt 0.7871094 0.96875
vt 0.6660156 0.5644531
vt 0.6640625 0.62890625
vt 0.6347656 0.625
vt 0.6464844 0.53125
vt 0.6816406 0.5371094
vt 0.703125 0.4375
vt 0.484375 0.109375
vt 0.49609375 0.24609375
vt 0.45703125 0.1328125
vt 0.5566406 0.1953125
vt 0.6386719 0.30078125
vt 0.60546875 0.333984375
vt 0.59375 0.29296875
vt 0.12890625 0.259765625
vt 0.0546875 0.328125
vt 0.03125 0.3046875
vt 0.79296875 0.484375
vt 0.7089844 0.5644531
vt 0.7089844 0.5
vt 0.8417969 0.54296875
vt 0.7597656 0.6035156
vt 0.107421875 0.236328125
vt 0.6582031 0.318359375
vt 0.6347656 0.34375
vt 0.5449219 0.23046875
vt 0.6171875 0.271484375
vt 0.5683594 0.208984375
vt 0.765625 0.44921875
vt 0.7363281 0.4140625
vt 0.029296875 0.34765625
vt 0.828125 0.9609375
vt 0.68359375 0.5839844
vt 0.74609375 0.6152344
vt 0.7109375 0.5800781
vt 0.03125 0.3046875
vt 0.8183594 0.9296875
vt 0.8359375 0.91015625
vt 0.8964844 0.373046875
vt 0.96484375 0.357421875
vt 0.96484375 0.38671875
vt 0.86328125 0.353515625
vt 0.8671875 0.384765625
vt 0.7636719 0.38671875
vt 0.515625 0.087890625
vt 0.6152344 0.146484375
vt 0.6425781 0.25390625
vt 0.6796875 0.271484375
vt 0.169921875 0.16796875
vt 0.193359375 0.1875
vt 0.8222656 0.404296875
vt 0.8984375 0.41796875
vt 0.91796875 0.47265625
vt 0.6875 0.30078125
vt 0.5957031 0.19140625
vt 0.21484375 0.158203125
vt 0.9121094 0.396484375
vt 0.9316406 0.470703125
vt 0.90234375 0.416015625
vt 0.171875 0.16796875
vt 0.7949219 0.953125
vt 0.6660156 0.5644531
vt 0.6816406 0.5371094
vt 0.484375 0.109375
vt 0.5566406 0.1953125
vt 0.6386719 0.30078125
vt 0.12890625 0.259765625
vt 0.0546875 0.328125
vt 0.79296875 0.484375
vt 0.7089844 0.5
vt 0.7089844 0.5644531
vt 0.8417969 0.54296875
vt 0.7597656 0.6035156
vt 0.107421875 0.236328125
vt 0.6582031 0.318359375
vt 0.6171875 0.271484375
vt 0.5683594 0.208984375
vt 0.765625 0.44921875
vt 0.7363281 0.4140625
vt 0.828125 0.9609375
vt 0.8183594 0.9296875
vt 0.8964844 0.373046875
vt 0.8671875 0.384765625
vt 0.193359375 0.1875
vt 0.169921875 0.16796875
vt 0.8984375 0.41796875
vt 0.8222656 0.404296875
vt 0.91796875 0.47265625
vt 0.515625 0.087890625
vt 0.484375 0.109375
vt 0.45703125 0.1328125
vt 0.484375 0.109375
vt 0.597840846 0.07195926
vt 0.499998748 0.0004995465
vt 0.683787465 0.06723666
vt 0.5 0.9185625
vt 0.834962845 0.918956757
vt 0.954460144 0.9638736
vt 0.5 0.9437973
vt 0.878269136 0.9995004
vt 0.50000006 0.9978584
vt 0.9995005 0.9227834
vt 0.4999988 0.0475522876
vt 0.954464853 0.9638734
vt 0.878269136 0.9995004
vt 0.4021568 0.07195926
vt 0.316210121 0.06723666
vt 0.0455358028 0.9638734
vt 0.165037155 0.918956757
vt 0.121731043 0.9995004
vt 0.0004994869 0.9227835
vt 0.0455357134 0.9638734
vt 0.121737123 0.9995005
vt 0.597840846 0.07195926
vt 0.49999997 0.9185624
vt 0.834962845 0.9189567
vt 0.5 0.9437973
vt 0.50000006 0.9978583
vt 0.499998778 0.0475522876
vt 0.4021568 0.07195926
vt 0.165037066 0.918956757
vn -0.9121476 0.392517626 0.117969193
vn -3.9562277E-08 6.329239E-08 1
vn -3.50148568E-08 0.9631002 0.269143164
vn -0.8976688 0.438786745 0.0407059565
vn -5.8600147E-08 0.175532609 0.984473646
vn -8.859899E-10 0.994073331 0.108711362
vn 5.01014377E-08 0.53378886 -0.8456178
vn -0.9650774 0.10539823 -0.239826739
vn 1.22497951E-07 0.6969443 -0.717125237
vn -0.9875048 1.312583E-07 -0.157589138
vn -1.762284E-07 0.9526191 0.30416593
vn 4.02797653E-08 0.9369803 -0.3493822
vn -1 3.68307873E-08 -1.52517146E-07
vn -0.9985133 3.85937238E-09 0.0545089133
vn -6.654931E-08 0.997564554 0.06974925
vn 6.03774453E-08 0.9750909 -0.221805438
vn -0.9999883 -9.079027E-09 0.00483166147
vn -0.9463977 0.32250303 0.0179757439
vn -0.8001018 0.5832299 -0.140285268
vn -0.983107567 -3.108078E-08 0.183028609
vn -0.769683361 0.328011781 0.547718763
vn -0.9804814 0.0490633734 -0.190391839
vn -1 1.54954784E-14 -1.13226534E-07
vn -0.8001018 0.5832299 -0.140285268
vn -1 1.54954784E-14 -1.13226534E-07
vn -0.95650816 -1.3246418E-07 0.291705638
vn -3.738956E-08 0.940811157 0.338931262
vn -1.24090278E-07 0.703278065 0.71091485
vn -0.9812263 6.5050564E-08 -0.192859679
vn -0.9908312 -2.51480081E-08 0.1351055
vn -0.9940912 2.070016E-08 -0.108547769
vn -0.980116367 7.28809155E-08 -0.198423639
vn 2.34891768E-08 0.9861451 -0.1658853
vn -0.9515521 -1.57890074E-08 0.307487637
vn -9.017375E-08 -0.2701904 0.96280694
vn 0.800101936 0.58322984 -0.140285045
vn 0.7696831 0.328012079 0.5477189
vn 0.800101936 0.58322984 -0.140285045
vn -0.9121476 -0.3925177 0.117968932
vn -9.112456E-08 -0.9631003 0.269142628
vn -0.8976686 -0.438787073 0.04070569
vn 3.992562E-09 -0.9940734 0.108711116
vn -9.16188938E-08 -0.175532743 0.9844736
vn 2.586721E-08 -0.5337882 -0.8456182
vn -0.9650773 -0.105398186 -0.239827141
vn 8.67767653E-08 -0.69694376 -0.717125833
vn 1.02154459E-07 -0.93698 -0.349383026
vn -6.25180547E-08 -0.9526193 0.304165155
vn 6.682845E-08 -0.9750908 -0.221806109
vn 5.125933E-09 -0.9975646 0.0697485954
vn -0.8001018 -0.5832298 -0.140285671
vn -0.946397662 -0.3225032 0.0179755278
vn -0.980481446 -0.0490629561 -0.190391451
vn -0.7696832 -0.3280128 0.547718346
vn -0.8001018 -0.5832298 -0.140285671
vn -5.83131552E-08 -0.940811336 0.338930726
vn -1.91966947E-07 -0.703278661 0.7109143
vn 4.17430641E-08 -0.9861449 -0.165886223
vn -9.02404764E-08 0.270189077 0.9628073
vn 0.800101936 -0.5832297 -0.140285462
vn 0.769682944 -0.3280131 0.5477185
vn 0.800101936 -0.5832297 -0.140285462
vn 0.9121475 0.392517656 0.117969446
vn 0.89766866 0.438786983 0.0407060273
vn 0.9650774 0.105398394 -0.2398266
vn 0.98750484 1.58906587E-07 -0.157588854
vn 1 3.27164642E-08 1.52517117E-07
vn 0.9985133 -6.1651555E-08 0.0545092039
vn 0.9999883 1.33234479E-09 0.00483197
vn 0.9463977 0.322502971 0.01797605
vn 0.9831075 -3.1126703E-08 0.1830289
vn 0.980481446 0.0490631834 -0.1903914
vn 0.7696831 0.328012079 0.5477189
vn 1 -2.50607454E-14 1.75944379E-07
vn 0.800101936 0.58322984 -0.140285045
vn 1 -2.50607454E-14 1.75944379E-07
vn 0.95650804 -1.29826077E-07 0.291705936
vn 0.9812264 7.94412855E-08 -0.1928594
vn 0.9908312 -1.1709921E-08 0.135105819
vn 0.9940913 1.793454E-08 -0.108547449
vn 0.9801164 8.713676E-08 -0.198423356
vn 0.951552 1.55479061E-08 0.307487875
vn 0.9121475 -0.3925177 0.117969222
vn 0.89766854 -0.438787222 0.04070578
vn 0.965077341 -0.10539832 -0.239826977
vn 0.946397662 -0.322503179 0.0179758333
vn 0.800101936 -0.5832297 -0.140285462
vn 0.769682944 -0.3280131 0.5477185
vn 0.980481565 -0.0490627661 -0.190390989
vn 0.800101936 -0.5832297 -0.140285462
vn 0 0 -1
vn 0 0 -1
vn 0 0 -1
vn 0 0 -1
vn -0.823781669 0.5331831 0.192612469
vn 1.667653E-07 -2.354189E-07 1
vn 8.493799E-08 0.9462808 0.323346049
vn -0.9999028 -7.685581E-07 0.0139426058
vn -0.9132235 0.395083338 0.09965943
vn -0.650791 0.743894339 -0.151961356
vn -0.9999216 -1.57639988E-06 -0.0125221014
vn -0.7216725 0.6068407 -0.333066225
vn -1 1.19141731E-07 3.66327621E-14
vn -2.607548E-06 0.9921841 0.124782816
vn -0.911618054 3.714769E-08 0.4110383
vn 0.650776744 0.7439063 -0.151963726
vn 0.7216768 0.6068357 -0.333065957
vn -0.8237818 -0.533183038 0.192612156
vn -9.693982E-08 -0.9462809 0.323345661
vn -0.650779843 -0.7439036 -0.151964054
vn -0.913224757 -0.39508146 0.0996551
vn -0.7216726 -0.6068375 -0.3330719
vn -1.64393683E-07 -0.992183566 0.124787129
vn 0.650775 -0.7439079 -0.1519635
vn 0.7217013 -0.606813133 -0.3330541
vn 0.8237817 0.533183 0.192612574
vn 0.9999028 -1.08504921E-07 0.0139420824
vn 0.9132249 0.3950811 0.09965587
vn 0.9999216 1.80684708E-06 -0.01251941
vn 1 6.572575E-06 2.34908242E-07
vn 0.911618054 -1.06926009E-07 0.4110383
vn 0.823781669 -0.533183157 0.192612246
vn 0.9132247 -0.3950816 0.0996552557
usemtl 03010120_part_0_material_0
f 1/1/1 2/2/2 3/3/3
f 4/4/4 5/5/5 6/6/6
f 4/4/4 6/6/6 7/7/7
f 8/8/8 4/4/4 7/7/7
f 8/8/8 7/7/7 9/9/9
f 10/10/10 11/11/11 12/12/12
f 13/13/13 11/11/11 10/10/10
f 14/14/14 15/15/15 16/16/16
f 17/17/17 18/18/18 19/19/19
f 20/20/20 21/21/21 22/22/22
f 23/23/23 24/24/24 21/21/21
f 25/25/25 17/17/17 19/19/19
f 15/15/15 26/26/26 27/27/27
f 28/28/28 29/29/29 16/16/16
f 28/28/28 11/11/11 30/30/30
f 18/18/18 1/1/1 3/3/3
f 18/18/18 17/17/17 1/1/1
f 20/20/20 23/23/23 21/21/21
f 31/31/31 20/20/20 22/22/22
f 27/27/27 32/32/32 9/9/9
f 27/27/27 26/26/26 32/32/32
f 15/15/15 14/14/14 26/26/26
f 16/16/16 29/29/29 14/14/14
f 28/28/28 30/30/30 29/29/29
f 11/11/11 13/13/13 30/30/30
f 33/33/33 18/18/18 3/3/3
f 18/18/18 33/33/33 19/19/19
f 17/17/17 34/34/34 1/1/1
f 34/34/34 2/2/2 1/1/1
f 32/32/32 31/31/31 9/9/9
f 21/21/21 8/8/8 22/22/22
f 21/21/21 35/35/35 4/4/4
f 22/22/22 8/8/8 9/9/9
f 31/31/31 22/22/22 9/9/9
f 8/8/8 21/21/21 4/4/4
f 35/35/35 5/5/5 4/4/4
f 36/36/36 37/37/37 21/21/21
f 21/21/21 24/24/24 36/36/36
f 38/38/38 19/19/19 33/33/33
f 21/21/21 37/37/37 35/35/35
f 39/39/39 40/40/40 2/2/2
f 41/41/41 42/42/42 43/43/43
f 41/41/41 44/44/44 42/42/42
f 45/45/45 44/44/44 41/41/41
f 45/45/45 46/46/46 44/44/44
f 10/10/10 47/47/47 48/48/48
f 13/13/13 10/10/10 48/48/48
f 14/14/14 49/49/49 50/50/50
f 17/17/17 51/51/51 52/52/52
f 20/20/20 53/53/53 54/54/54
f 23/23/23 54/54/54 55/55/55
f 25/25/25 51/51/51 17/17/17
f 50/50/50 56/56/56 26/26/26
f 57/57/57 49/49/49 29/29/29
f 57/57/57 30/30/30 48/48/48
f 52/52/52 40/40/40 39/39/39
f 52/52/52 39/39/39 17/17/17
f 20/20/20 54/54/54 23/23/23
f 31/31/31 53/53/53 20/20/20
f 56/56/56 46/46/46 32/32/32
f 56/56/56 32/32/32 26/26/26
f 50/50/50 26/26/26 14/14/14
f 49/49/49 14/14/14 29/29/29
f 57/57/57 29/29/29 30/30/30
f 48/48/48 30/30/30 13/13/13
f 58/58/58 40/40/40 52/52/52
f 52/52/52 51/51/51 58/58/58
f 17/17/17 39/39/39 34/34/34
f 34/34/34 39/39/39 2/2/2
f 32/32/32 46/46/46 31/31/31
f 54/54/54 53/53/53 45/45/45
f 54/54/54 41/41/41 59/59/59
f 53/53/53 46/46/46 45/45/45
f 31/31/31 46/46/46 53/53/53
f 45/45/45 41/41/41 54/54/54
f 59/59/59 41/41/41 43/43/43
f 60/60/60 54/54/54 61/61/61
f 54/54/54 60/60/60 55/55/55
f 62/62/62 58/58/58 51/51/51
f 54/54/54 59/59/59 61/61/61
f 63/63/63 3/3/3 2/2/2
f 64/64/64 6/6/6 5/5/5
f 64/64/64 7/7/7 6/6/6
f 65/65/65 7/7/7 64/64/64
f 65/65/65 9/9/9 7/7/7
f 66/66/66 12/12/12 11/11/11
f 67/67/67 66/66/66 11/11/11
f 68/68/68 16/16/16 15/15/15
f 69/69/69 38/38/38 70/70/70
f 71/71/71 72/72/72 73/73/73
f 74/74/74 73/73/73 75/75/75
f 76/76/76 38/38/38 69/69/69
f 15/15/15 27/27/27 77/77/77
f 28/28/28 16/16/16 78/78/78
f 28/28/28 79/79/79 11/11/11
f 70/70/70 3/3/3 63/63/63
f 70/70/70 63/63/63 69/69/69
f 71/71/71 73/73/73 74/74/74
f 80/80/80 72/72/72 71/71/71
f 27/27/27 9/9/9 81/81/81
f 27/27/27 81/81/81 77/77/77
f 15/15/15 77/77/77 68/68/68
f 16/16/16 68/68/68 78/78/78
f 28/28/28 78/78/78 79/79/79
f 11/11/11 79/79/79 67/67/67
f 33/33/33 3/3/3 70/70/70
f 70/70/70 38/38/38 33/33/33
f 69/69/69 63/63/63 82/82/82
f 82/82/82 63/63/63 2/2/2
f 81/81/81 9/9/9 80/80/80
f 73/73/73 72/72/72 65/65/65
f 73/73/73 64/64/64 35/35/35
f 72/72/72 9/9/9 65/65/65
f 80/80/80 9/9/9 72/72/72
f 65/65/65 64/64/64 73/73/73
f 35/35/35 64/64/64 5/5/5
f 83/83/83 2/2/2 40/40/40
f 84/84/84 43/43/43 42/42/42
f 84/84/84 42/42/42 44/44/44
f 85/85/85 84/84/84 44/44/44
f 85/85/85 44/44/44 46/46/46
f 66/66/66 48/48/48 47/47/47
f 67/67/67 48/48/48 66/66/66
f 68/68/68 50/50/50 49/49/49
f 69/69/69 86/86/86 87/87/87
f 71/71/71 88/88/88 89/89/89
f 74/74/74 90/90/90 88/88/88
f 76/76/76 69/69/69 87/87/87
f 50/50/50 77/77/77 56/56/56
f 57/57/57 78/78/78 49/49/49
f 57/57/57 48/48/48 79/79/79
f 86/86/86 83/83/83 40/40/40
f 86/86/86 69/69/69 83/83/83
f 71/71/71 74/74/74 88/88/88
f 80/80/80 71/71/71 89/89/89
f 56/56/56 81/81/81 46/46/46
f 56/56/56 77/77/77 81/81/81
f 50/50/50 68/68/68 77/77/77
f 49/49/49 78/78/78 68/68/68
f 57/57/57 79/79/79 78/78/78
f 48/48/48 67/67/67 79/79/79
f 58/58/58 86/86/86 40/40/40
f 86/86/86 58/58/58 87/87/87
f 69/69/69 82/82/82 83/83/83
f 82/82/82 2/2/2 83/83/83
f 81/81/81 80/80/80 46/46/46
f 88/88/88 85/85/85 89/89/89
f 88/88/88 59/59/59 84/84/84
f 89/89/89 85/85/85 46/46/46
f 80/80/80 89/89/89 46/46/46
f 85/85/85 88/88/88 84/84/84
f 59/59/59 43/43/43 84/84/84
f 91/91/91 92/92/92 93/93/93
f 91/91/91 93/93/93 94/94/94
usemtl 03010120_part_0_material_1
f 95/95/95 96/96/96 97/97/97
f 98/98/98 99/99/99 100/100/100
f 101/101/101 100/100/100 102/102/102
f 101/101/101 98/98/98 100/100/100
f 99/99/99 95/95/95 97/97/97
f 99/99/99 98/98/98 95/95/95
f 103/103/103 101/101/101 102/102/102
f 104/104/104 99/99/99 97/97/97
f 99/99/99 104/104/104 100/100/100
f 98/98/98 105/105/105 95/95/95
f 105/105/105 96/96/96 95/95/95
f 106/106/106 107/107/107 102/102/102
f 102/102/102 100/100/100 106/106/106
f 106/106/106 100/100/100 104/104/104
f 108/108/108 109/109/109 96/96/96
f 98/98/98 110/110/110 111/111/111
f 101/101/101 112/112/112 110/110/110
f 101/101/101 110/110/110 98/98/98
f 111/111/111 109/109/109 108/108/108
f 111/111/111 108/108/108 98/98/98
f 103/103/103 112/112/112 101/101/101
f 113/113/113 109/109/109 111/111/111
f 111/111/111 110/110/110 113/113/113
f 98/98/98 108/108/108 105/105/105
f 105/105/105 108/108/108 96/96/96
f 114/114/114 112/112/112 115/115/115
f 112/112/112 114/114/114 110/110/110
f 114/114/114 113/113/113 110/110/110
f 116/116/116 97/97/97 96/96/96
f 117/117/117 106/106/106 118/118/118
f 119/119/119 107/107/107 106/106/106
f 119/119/119 106/106/106 117/117/117
f 118/118/118 97/97/97 116/116/116
f 118/118/118 116/116/116 117/117/117
f 120/120/120 107/107/107 119/119/119
f 104/104/104 97/97/97 118/118/118
f 118/118/118 106/106/106 104/104/104
f 117/117/117 116/116/116 121/121/121
f 121/121/121 116/116/116 96/96/96
f 122/122/122 96/96/96 109/109/109
f 117/117/117 123/123/123 114/114/114
f 119/119/119 114/114/114 115/115/115
f 119/119/119 117/117/117 114/114/114
f 123/123/123 122/122/122 109/109/109
f 123/123/123 117/117/117 122/122/122
f 120/120/120 119/119/119 115/115/115
f 113/113/113 123/123/123 109/109/109
f 123/123/123 113/113/113 114/114/114
f 117/117/117 121/121/121 122/122/122
f 121/121/121 96/96/96 122/122/122
