mtllib 03070015.mtl
o 03070015_part_0
v 0.0449303538 -0.06739798 -0.1467003
v 0.0210932121 -0.0817380548 -0.142277613
v 0.0210932065 -0.03890094 -0.172777042
v 0.0627697855 -0.026812043 -0.159217492
v 0.0600247532 -0.0164112784 -0.09143088
v 0.0433791652 -0.05572904 -0.0864658356
v 0.0449303463 0.0137738772 -0.1717347
v 0.021093199 0.027735237 -0.17534329
v 0.021093199 0.0367984548 -0.098150216
v 0.0433791578 0.022906471 -0.09639593
v 0.0210932121 -0.06962103 -0.0847115442
v 0.0210932121 -0.08796486 -0.166415721
v 0.0210932139 -0.09371467 -0.157066673
v 0.040448308 -0.08980334 -0.166147456
v 0.0527809 -0.0312113333 0.104022451
v 0.0392324962 -0.06346202 0.10342633
v 0.03452225 -0.04764377 0.05789399
v 0.0445525274 -0.0238732379 0.0601799265
v 0.0210932046 0.0124343485 0.104829207
v 0.03923249 0.00103934109 0.104618579
v 0.0345222428 -0.000102704391 0.06246582
v 0.0210932046 0.008296039 0.06327352
v 0.0210932158 -0.07485703 0.103215672
v 0.0210932121 -0.0560425147 0.0570862927
v 0.0454520434 -0.0196204837 0.015957078
v 0.0350371674 -0.04430247 0.0135834916
v 0.0350371636 0.0050615 0.01833066
v 0.0210932028 0.0137822814 0.0191693064
v 0.02109321 -0.0530232564 0.0127448533
v 0.0210932177 -0.0918673 0.109362483
v 0.06504403 -0.0309168585 0.0880917758
v 0.0210932121 -0.0330586359 0.203958958
v 0.0210932028 0.0292058326 0.111600533
v 0.0603701733 -0.0313439444 0.111196727
v 0.0368501879 -0.03326946 0.215364337
v 0.0210932158 -0.06253509 0.214899153
v 0.0210932177 -0.09583256 0.1337022
v 0.0210932028 0.0322688669 0.136070147
v 0.0210932083 -0.004006641 0.215980977
v 0.0210932028 0.0322688669 0.136070147
v 0.0603701733 -0.0313439444 0.111196727
v 0.02109321 -0.0313439481 0.111196727
v 0.0210932177 -0.09583256 0.1337022
v 0.047817044 -0.06883631 0.148214087
v 0.0579438955 -0.0323028639 0.1630728
v 0.06342624 -0.032518357 0.174730852
v 0.0478170365 0.00475475565 0.149574369
v 0.0210932121 -0.0329323336 0.197126135
v 0.02109322 -0.09426505 0.186695918
v 0.0210932046 0.0287439413 0.188969746
v 0.0210932028 0.0412987247 0.163863555
v 0.02109322 -0.10588339 0.161142945
v 0.0210932028 0.0292058326 0.111600533
v 0.06504403 -0.0309168585 0.0880917758
v 0.0210932083 -0.0309168641 0.0880917758
v 0.0210932177 -0.0918673 0.109362483
v 0.022441484 -0.03225623 0.160549641
v 0.06320095 -0.03214017 0.154271424
v 0.045726452 -0.05857987 0.149392337
v 0.04991664 -0.0585313179 0.128653243
v 0.0675301254 -0.0316573419 0.128151029
v 0.0457264446 -0.005538225 0.150372788
v 0.0499166325 -0.00482028536 0.129646078
v 0.0485286377 -0.03259376 0.178809881
v 0.04876491 -0.0476061031 0.173434183
v 0.0598007962 -0.04692109 0.10502886
v 0.0615161657 -0.03114527 0.100448646
v 0.04876491 -0.0173930079 0.173992649
v 0.0533394851 -0.0155495042 0.105608754
v 0.0389048867 -0.04333839 0.2443318
v 0.0210932177 -0.07685119 0.243799135
v 0.02109321 -0.009828804 0.245038033
v 0.03912843 -0.0136229722 0.324481964
v 0.0210932177 -0.04713577 0.323949218
v 0.0210932083 0.01988661 0.32518813
v 0.0392402075 -0.04631475 0.405349076
v 0.0210932214 -0.07982755 0.404816449
v 0.0210932139 -0.012805162 0.406055361
v 0.03929609 -0.0154756019 0.489464253
v 0.0210932214 -0.0489883944 0.4889316
v 0.0210932121 0.0180339813 0.490170479
v 0.0347167626 -0.0539460629 0.589431167
v 0.021093227 -0.07890397 0.5930623
v 0.0210932214 -0.028969679 0.5859293
v 0.0278908256 -0.0538572 0.6201258
v 0.0210932251 -0.06633616 0.6219414
v 0.0210932214 -0.041369006 0.618374944
v 0.0210932326 -0.122564457 0.703813434
v 0.0210932214 -0.122172922 0.1562106
v 0.0210932 0.05916986 0.1595626
v 0.0210932121 0.0587783232 0.707165539
v 0.0210932232 -0.03817764 0.6605006
v 0.0210932 0.00469527 -0.178342685
v 0.021093199 0.027735237 -0.17534329
v 0.0449303463 0.0137738772 -0.1717347
v 0.03257022 0.0112104081 -0.180875987
v 0.021093199 0.0221894942 -0.189632863
v 0.0210932 0.00469527 -0.178342685
v 0.0368412547 -0.0230548251 -0.215709329
v 0.0210932 -0.00466525 -0.232173115
v 0.0210932046 -0.033935044 -0.197694868
v 0.04025609 -0.0564374477 -0.222959638
v 0.0210932046 -0.0376628935 -0.248115093
v 0.0210932065 -0.05124122 -0.190828964
v 0.02109321 -0.0782275945 -0.238216266
v 0.02109321 -0.06154944 -0.1488281
v 0.0308651328 -0.0737869 -0.1689201
v 0.0210932158 -0.121537894 -0.177321047
v 0.02109321 -0.0728676543 -0.16905424
v 0.0210932065 -0.0494891629 -0.241436183
v 0.04485702 -0.05482696 -0.237684324
v 0.03586731 -0.07333202 -0.2581887
v 0.0210932083 -0.07123734 -0.2614518
v 0.0440257825 -0.114702314 -0.190257654
v 0.0210932121 -0.09338132 -0.198929742
v 0.0210932158 -0.114702314 -0.185122326
v 0.0454485752 -0.07898839 -0.202969283
v 0.05798411 -0.114702314 -0.205717489
v 0.0565477572 -0.07799839 -0.219884619
v 0.0210932065 -0.0494891666 -0.203843892
v 0.0351573 -0.0565415025 -0.203268424
v 0.04640436 -0.05025792 -0.220619783
v 0.0210932046 -0.0398665257 -0.221097812
v 0.03891764 -0.135661542 -0.189350054
v 0.02109322 -0.146831527 -0.19450675
v 0.02109322 -0.147459745 -0.209945738
v 0.0482065231 -0.1346758 -0.206358284
v 0.0210932121 -0.104252733 -0.265003234
v 0.0556749925 -0.105805121 -0.2570103
v 0.0482065156 -0.133031949 -0.2651177
v 0.0210932158 -0.129195154 -0.2700881
v 0.0601257123 -0.111529931 -0.225834057
v 0.0482065156 -0.138400942 -0.22866568
v 0.0210932139 -0.111803159 -0.2244273
v 0.02109322 -0.1495021 -0.230300769
v 0.0210932177 -0.134232014 -0.18837364
v 0.0210932158 -0.114702314 -0.20300357
v 0.0210932177 -0.149036318 -0.252709121
v 0.0210932177 -0.144133091 -0.2667528
v 0.0568254068 -0.07898839 -0.23559384
v 0.031426847 -0.138702333 -0.207793951
v 0.0210932177 -0.143526673 -0.208986461
v 0.0278360974 -0.141559184 -0.214903921
v 0.04769667 -0.122723989 -0.205804154
v 0.0446275845 -0.131057 -0.205405459
v 0.0472980849 -0.125841081 -0.213109538
v 0.02476715 -0.145272851 -0.217069387
v 0.0210932177 -0.143874124 -0.231160432
v 0.02873631 -0.142040581 -0.230406463
v 0.0392781571 -0.136794984 -0.22915931
v 0.0443092622 -0.134891331 -0.228545934
v 0.04569696 -0.1324041 -0.211851746
v 0.03316898 -0.14200601 -0.215518624
v 0.03734377 -0.136631459 -0.229583949
v 0.0478677936 -0.12935546 -0.228408977
v 0.0490206145 -0.1279391 -0.21492295
v 0.0513614 -0.121534616 -0.227762163
v 0.0539448634 -0.116920233 -0.21723187
v 0.0576161556 -0.109043345 -0.225650325
v 0.0376531854 -0.1357947 -0.213226318
v 0.0509318672 -0.118318215 -0.211326763
v 0.05305686 -0.111306369 -0.201876387
v -0.00274393428 -0.06739798 -0.146700278
v -0.0205833782 -0.02681205 -0.159217492
v -0.00119274668 -0.05572904 -0.08646584
v -0.0178383421 -0.0164112933 -0.09143089
v -0.00274394546 0.01377387 -0.1717347
v -0.001192756 0.0229064636 -0.0963959247
v 0.00173811638 -0.0898033455 -0.166147456
v -0.0105944816 -0.03121134 0.104022451
v -0.00236611022 -0.0238732435 0.0601799265
v 0.00766417244 -0.0476437733 0.0578940026
v 0.00295393122 -0.06346202 0.10342633
v 0.00766416732 -0.000102708116 0.06246582
v 0.00295392424 0.00103933737 0.104618579
v -0.00326562952 -0.0196204912 0.015957078
v 0.00714925 -0.04430247 0.0135835009
v 0.00714924466 0.0050615 0.01833066
v -0.022857612 -0.03091687 0.0880917758
v -0.018183751 -0.0313439555 0.111196727
v 0.005336237 -0.033269465 0.215364337
v -0.018183751 -0.0313439555 0.111196727
v -0.00563061424 -0.06883631 0.148214087
v -0.021239819 -0.03251837 0.174730852
v -0.0157574732 -0.0323028751 0.1630728
v -0.00563062169 0.004754748 0.149574369
v -0.022857612 -0.03091687 0.0880917758
v 0.0197449364 -0.03225623 0.160549641
v -0.02101453 -0.03214018 0.154271424
v -0.0253437068 -0.031657353 0.128151029
v -0.007730212 -0.05853132 0.128653243
v -0.0035400223 -0.058579877 0.149392337
v -0.00354002975 -0.00553823076 0.150372788
v -0.00773021858 -0.004820293 0.129646078
v -0.00634221267 -0.0325937681 0.178809881
v -0.00657848548 -0.04760611 0.173434183
v -0.0176143758 -0.0469211042 0.10502886
v -0.0193297453 -0.0311452784 0.100448646
v -0.00657848828 -0.0173930116 0.173992649
v -0.0111530684 -0.0155495116 0.105608754
v 0.00328154163 -0.0433383919 0.2443318
v 0.00305799651 -0.0136229759 0.324481964
v 0.00294622942 -0.0463147536 0.405349076
v 0.00289034285 -0.0154756047 0.489464253
v 0.007469684 -0.0539460629 0.589431167
v 0.0142956236 -0.0538572073 0.6201258
v 0.009616179 0.0112104081 -0.180875972
v -0.00274394546 0.01377387 -0.1717347
v 0.00534515362 -0.0230548251 -0.215709329
v 0.00193032366 -0.0564374551 -0.222959638
v 0.01132129 -0.0737869 -0.1689201
v 0.00631910842 -0.07333202 -0.2581887
v -0.00267061032 -0.0548269674 -0.237684324
v -0.00183935184 -0.114702329 -0.190257654
v -0.00326215848 -0.0789884 -0.202969268
v -0.0143613387 -0.0779984 -0.219884619
v -0.015797684 -0.114702329 -0.205717489
v -0.004217948 -0.05025793 -0.220619783
v 0.00702911336 -0.05654151 -0.203268424
v 0.00326879276 -0.135661542 -0.189350054
v -0.006020086 -0.1346758 -0.206358284
v -0.00602008868 -0.133031949 -0.2651177
v -0.0134885721 -0.105805129 -0.2570103
v -0.0179392938 -0.111529931 -0.225834057
v -0.006020086 -0.138400972 -0.22866568
v -0.01463899 -0.07898839 -0.235593811
v 0.0107595883 -0.138702333 -0.207793951
v 0.0143503388 -0.141559213 -0.214903921
v -0.005510237 -0.122723989 -0.205804154
v -0.00511165243 -0.125841111 -0.213109538
v -0.0024411506 -0.131057009 -0.205405459
v 0.0174192861 -0.145272851 -0.217069387
v 0.0134501243 -0.142040581 -0.230406463
v 0.00290827756 -0.136794984 -0.22915931
v -0.00351052638 -0.132404119 -0.211851746
v -0.00212283153 -0.134891361 -0.228545934
v 0.009017456 -0.142006025 -0.215518624
v 0.004842661 -0.136631459 -0.229583949
v -0.005681359 -0.12935549 -0.228408948
v -0.00683418 -0.1279391 -0.21492295
v -0.009174969 -0.121534616 -0.227762163
v -0.0117584281 -0.116920233 -0.21723187
v -0.0154297277 -0.109043352 -0.225650325
v 0.004533247 -0.135794729 -0.213226318
v -0.008745436 -0.118318222 -0.211326763
v -0.0108704288 -0.111306369 -0.201876387
v 0.05548035 -0.0333179571 0.189183936
v 0.0575726554 -0.04338134 0.243604779
v 0.02109322 -0.09551368 0.242946133
v 0.02109322 -0.0797582045 0.186824143
v 0.0210932083 0.0146801434 0.189780518
v 0.0210932083 0.00881231949 0.243803322
v 0.05777053 -0.012483133 0.3249164
v 0.0210932251 -0.06573261 0.322167754
v 0.0210932046 0.03856667 0.325455219
v 0.057881508 -0.04745367 0.404879242
v 0.0210932251 -0.0985069349 0.404506
v 0.02109321 0.00579518452 0.4077998
v 0.0579272062 -0.0144509394 0.4903849
v 0.0210932232 -0.06766386 0.4884387
v 0.02109321 0.0366954 0.4910465
v 0.05327634 -0.05449298 0.591494858
v 0.021093227 -0.09753043 0.5945014
v 0.0210932232 -0.0118376873 0.593379855
v 0.0462150872 -0.0532348752 0.623710454
v 0.0210932288 -0.0827321261 0.6308962
v 0.0210932251 -0.0230141766 0.621855736
v 0.0210932232 -0.0316179134 0.677993059
v -0.01329392 -0.03331796 0.189183936
v -0.0153862257 -0.0433813445 0.243604779
v -0.0155841075 -0.01248314 0.3249164
v -0.01569507 -0.04745368 0.404879242
v -0.0157407746 -0.0144509692 0.4903849
v -0.0110898968 -0.0544929877 0.591494858
v -0.00402864162 -0.0532348938 0.623710454
v 0.02825983 0.06993542 0.3157294
v 0.0282598361 0.0334026478 0.264048934
v 0.028259838 0.07082646 0.2159326
v 0.0282598417 -0.0957986042 0.200784847
v 0.02825984 -0.121638872 0.24177283
v 0.0282598455 -0.13856867 0.183855012
v 0.0282598212 -0.084215045 0.500175357
v 0.0282598156 -0.114510529 0.568785667
v 0.0282598212 -0.105600081 0.48770076
v 0.02825981 -0.0868881941 0.638287
v 0.0282598119 -0.0022390876 0.59462595
v 0.0282598082 -0.0378808156 0.658781052
v 0.0282598156 0.0378578529 0.530470848
v 0.0282598212 0.0396399572 0.458296359
v 0.028259825 0.02092804 0.401269585
v 0.0282598231 -0.100253835 0.459187359
v 0.0282598287 -0.127876163 0.397705376
v 0.0282598343 -0.117183648 0.310383171
v 0.0282598361 -0.09847174 0.2827608
v 0.0282598343 0.0155817866 0.273850381
v 0.0282598417 -0.0574837551 0.2061311
v 0.0140589876 0.06993542 0.3157294
v 0.0140589951 0.07082646 0.2159326
v 0.0140589923 0.0334026478 0.264048934
v 0.014059 -0.09579861 0.200784847
v 0.0140590016 -0.13856867 0.183855012
v 0.0140589969 -0.121638872 0.24177283
v 0.0140589774 -0.08421506 0.500175357
v 0.0140589783 -0.105600081 0.48770076
v 0.0140589727 -0.114510529 0.568785667
v 0.0140589671 -0.0868881941 0.638287
v 0.0140589643 -0.03788082 0.658781052
v 0.0140589681 -0.00223908946 0.59462595
v 0.0140589727 0.0378578529 0.530470848
v 0.0140589774 0.03963995 0.458296359
v 0.014058982 0.0209280364 0.401269585
v 0.01405898 -0.100253835 0.459187359
v 0.0140589857 -0.127876163 0.397705376
v 0.0140589913 -0.117183648 0.310383171
v 0.0140589932 -0.09847174 0.2827608
v 0.0140589913 0.0155817866 0.273850381
v 0.0140589979 -0.0574837551 0.2061311
vt 0.440632761 0.09997344
vt 0.411163747 0.109062016
vt 0.499193728 0.0463858843
vt 0.5240366 0.07425058
vt 0.539229 0.180322766
vt 0.458431184 0.19052577
vt 0.607440531 0.0485278964
vt 0.636131 0.0411121845
vt 0.64857465 0.166514456
vt 0.620026648 0.170119643
vt 0.429883182 0.194131017
vt 0.3161799 0.962677956
vt 0.2863 0.969723
vt 0.305095226 0.9199974
vt 0.508815 0.554948449
vt 0.44254 0.553723454
vt 0.475046456 0.4601547
vt 0.5238946 0.4648522
vt 0.598506749 0.5566062
vt 0.57509 0.556173444
vt 0.572743 0.469549716
vt 0.5900026 0.4712096
vt 0.419123352 0.553290546
vt 0.4577871 0.458494842
vt 0.53263396 0.373974562
vt 0.4819128 0.369096875
vt 0.5833555 0.378852
vt 0.6012767 0.380575657
vt 0.463991463 0.3673734
vt 0.07753467 0.428908229
vt 0.205008417 0.3554089
vt 0.199910581 0.6132764
vt 0.329477668 0.433889031
vt 0.842131257 0.0125723481
vt 0.838973761 0.18339324
vt 0.7909819 0.18263042
vt 0.7363785 0.0494783521
vt 0.9464477 0.0533614159
vt 0.8869608 0.184404492
vt 0.36157456 0.360943079
vt 0.273035228 0.2165333
vt 0.360604733 0.2165333
vt 0.36157456 0.07212353
vt 0.787460148 0.0834928155
vt 0.8405588 0.09764218
vt 0.840205431 0.116759837
vt 0.894516945 0.08061504
vt 0.839526534 0.15348506
vt 0.73894906 0.136380911
vt 0.9406673 0.140109658
vt 0.95444417 0.104047418
vt 0.7267079 0.104694486
vt 0.36157456 0.353020072
vt 0.2624992 0.2165333
vt 0.361528963 0.2165333
vt 0.36157456 0.0800465941
vt 0.8406353 0.09350455
vt 0.114767782 0.2258178
vt 0.0136507684 0.218969762
vt 0.0129598137 0.135038257
vt 0.1157689 0.120709062
vt 0.223895937 0.220977545
vt 0.225858271 0.137071311
vt 0.1160631 0.331445575
vt 0.0565077551 0.310760736
vt 0.05689635 0.03571272
vt 0.119066514 0.0161191821
vt 0.176265642 0.311904371
vt 0.182608455 0.04109478
vt 0.8224621 0.230896
vt 0.7675055 0.23002249
vt 0.8774132 0.232054114
vt 0.871191263 0.3623315
vt 0.816234767 0.361457944
vt 0.9261425 0.3634895
vt 0.817581236 0.494942784
vt 0.762624741 0.494069338
vt 0.872532368 0.496100962
vt 0.8681532 0.6328804
vt 0.8131968 0.6320069
vt 0.9231046 0.634038568
vt 0.8050669 0.7968127
vt 0.7641393 0.802767336
vt 0.8460248 0.7910701
vt 0.8052126 0.847147763
vt 0.784748852 0.8501252
vt 0.8256916 0.8442766
vt 0.690920353 0.985957265
vt 0.6931839 0.08796203
vt 0.990561843 0.08825606
vt 0.988298237 0.9862514
vt 0.830925 0.9133569
vt 0.5887839 0.03494847
vt 0.6155983 0.8811303
vt 0.578217447 0.89547354
vt 0.568272233 0.8710614
vt 0.59580785 0.8434528
vt 0.551095366 0.8800976
vt 0.462796539 0.7857369
vt 0.5083528 0.7345381
vt 0.4384435 0.838852763
vt 0.36842525 0.776228
vt 0.4095753 0.676912367
vt 0.3928593 0.8632334
vt 0.348740458 0.7493258
vt 0.3776234 0.982340753
vt 0.347908646 0.929002047
vt 0.203178078 0.9225929
vt 0.3418898 0.958563566
vt 0.389129668 0.7139858
vt 0.373879731 0.727526665
vt 0.3091538 0.6703949
vt 0.314504623 0.6595196
vt 0.204708755 0.889959455
vt 0.267855942 0.86152786
vt 0.206525847 0.9059078
vt 0.311126173 0.8393553
vt 0.19923836 0.8479919
vt 0.30821535 0.79100585
vt 0.376737982 0.83275
vt 0.376702547 0.831994832
vt 0.3855435 0.778906643
vt 0.415631175 0.7752565
vt 0.139478847 0.891563952
vt 0.103422485 0.8941772
vt 0.09600848 0.8464514
vt 0.136980429 0.8530691
vt 0.210713163 0.660172164
vt 0.208720177 0.685545146
vt 0.121293955 0.670000136
vt 0.131451115 0.6532063
vt 0.201972529 0.784393847
vt 0.117518023 0.7851079
vt 0.17492047 0.810018837
vt 0.08246307 0.7839581
vt 0.1383018 0.912206
vt 0.173497468 0.830222666
vt 0.0759805143 0.7142003
vt 0.086239 0.668850243
vt 0.299582124 0.742568433
vt 0.513998151 0.6793439
vt 0.47317 0.681307435
vt 0.494160831 0.6549619
vt 0.600396335 0.677399158
vt 0.569764555 0.6803429
vt 0.587937832 0.6502577
vt 0.490034252 0.63815546
vt 0.478390485 0.590692937
vt 0.5025792 0.59135294
vt 0.54133004 0.592051268
vt 0.5584685 0.592658937
vt 0.5735153 0.6479271
vt 0.5190412 0.6409166
vt 0.5367067 0.590862036
vt 0.5799973 0.590598345
vt 0.590886 0.6354511
vt 0.6067325 0.5894577
vt 0.627415836 0.622970462
vt 0.651506 0.591172755
vt 0.5358113 0.655341864
vt 0.6186399 0.6550368
vt 0.6470755 0.6893026
vt 0.440632761 0.09997344
vt 0.5240366 0.07425058
vt 0.458431184 0.19052577
vt 0.539229 0.180322766
vt 0.607440531 0.0485278964
vt 0.620026648 0.170119643
vt 0.305095226 0.9199974
vt 0.508815 0.554948449
vt 0.5238946 0.4648522
vt 0.475046456 0.4601547
vt 0.44254 0.553723454
vt 0.572743 0.469549716
vt 0.57509 0.556173444
vt 0.53263396 0.373974562
vt 0.4819128 0.369096875
vt 0.5833555 0.378852
vt 0.205008417 0.3554089
vt 0.842131257 0.0125723481
vt 0.838973761 0.18339324
vt 0.273035228 0.2165333
vt 0.787460148 0.0834928155
vt 0.840205431 0.116759837
vt 0.8405588 0.09764218
vt 0.894516945 0.08061504
vt 0.2624992 0.2165333
vt 0.8406353 0.09350455
vt 0.114767782 0.2258178
vt 0.1157689 0.120709062
vt 0.0129598137 0.135038257
vt 0.0136507684 0.218969762
vt 0.223895937 0.220977545
vt 0.225858271 0.137071311
vt 0.1160631 0.331445575
vt 0.0565077551 0.310760736
vt 0.05689635 0.03571272
vt 0.119066514 0.0161191821
vt 0.176265642 0.311904371
vt 0.182608455 0.04109478
vt 0.8224621 0.230896
vt 0.871191263 0.3623315
vt 0.817581236 0.494942784
vt 0.8681532 0.6328804
vt 0.8050669 0.7968127
vt 0.8052126 0.847147763
vt 0.568272233 0.8710614
vt 0.578217447 0.89547354
vt 0.462796539 0.7857369
vt 0.36842525 0.776228
vt 0.347908646 0.929002047
vt 0.3091538 0.6703949
vt 0.373879731 0.727526665
vt 0.204708755 0.889959455
vt 0.311126173 0.8393553
vt 0.30821535 0.79100585
vt 0.19923836 0.8479919
vt 0.3855435 0.778906643
vt 0.376702547 0.831994832
vt 0.139478847 0.891563952
vt 0.136980429 0.8530691
vt 0.121293955 0.670000136
vt 0.208720177 0.685545146
vt 0.201972529 0.784393847
vt 0.117518023 0.7851079
vt 0.299582124 0.742568433
vt 0.513998151 0.6793439
vt 0.494160831 0.6549619
vt 0.600396335 0.677399158
vt 0.587937832 0.6502577
vt 0.569764555 0.6803429
vt 0.490034252 0.63815546
vt 0.5025792 0.59135294
vt 0.54133004 0.592051268
vt 0.5735153 0.6479271
vt 0.5584685 0.592658937
vt 0.5190412 0.6409166
vt 0.5367067 0.590862036
vt 0.5799973 0.590598345
vt 0.590886 0.6354511
vt 0.6067325 0.5894577
vt 0.627415836 0.622970462
vt 0.651506 0.591172755
vt 0.5358113 0.655341864
vt 0.6186399 0.6550368
vt 0.6470755 0.6893026
vt 0.502639 0.988727
vt 0.454627723 0.8787042
vt 0.205910146 0.880035758
vt 0.281077743 0.993497849
vt 0.7316326 0.987520933
vt 0.7036379 0.8783028
vt 0.602039635 0.7143161
vt 0.3479923 0.7198731
vt 0.8455926 0.7132268
vt 0.435199082 0.552654862
vt 0.191629648 0.5534095
vt 0.689243436 0.546750367
vt 0.5926514 0.379787743
vt 0.3387785 0.383722425
vt 0.8366649 0.3784502
vt 0.401615322 0.175373316
vt 0.196288437 0.169295073
vt 0.605119 0.171562433
vt 0.4076176 0.1102429
vt 0.2668895 0.09571546
vt 0.5517972 0.113992631
vt 0.510749757 0.0004995465
vt 0.502639 0.988727033
vt 0.454627723 0.8787042
vt 0.602039635 0.7143161
vt 0.435199052 0.5526549
vt 0.5926513 0.3797878
vt 0.4016153 0.175373316
vt 0.4076175 0.110242963
vt 0.9952494 0.7328895
vt 0.820955634 0.8373721
vt 0.999500453 0.9346491
vt 0.2045508 0.9652734
vt 0.08126974 0.8824078
vt 0.00049957633 0.9995005
vt 0.25981468 0.359994352
vt 0.115278274 0.221284628
vt 0.157789022 0.385214329
vt 0.247061372 0.08077347
vt 0.6509128 0.169043183
vt 0.480870128 0.0393405557
vt 0.8422109 0.2987458
vt 0.850713134 0.44466126
vt 0.761440635 0.559952557
vt 0.183295369 0.442859948
vt 0.05151233 0.567158341
vt 0.102525115 0.743698
vt 0.191797554 0.7995423
vt 0.735934258 0.8175565
vt 0.387346685 0.954464853
vt 0.9952494 0.732889533
vt 0.999500453 0.9346491
vt 0.820955634 0.8373721
vt 0.204550773 0.9652734
vt 0.00049957633 0.9995005
vt 0.08126974 0.8824078
vt 0.2598146 0.359994352
vt 0.157789022 0.385214329
vt 0.115278274 0.221284628
vt 0.247061372 0.08077347
vt 0.4808701 0.0393405557
vt 0.6509128 0.169043183
vt 0.8422109 0.2987458
vt 0.8507131 0.44466126
vt 0.761440635 0.559952557
vt 0.183295369 0.442859948
vt 0.05151233 0.567158341
vt 0.102525115 0.743698
vt 0.191797554 0.7995423
vt 0.735934258 0.8175565
vt 0.387346685 0.954464853
vn 0.646624446 -0.6765913 -0.3522799
vn -4.83739448E-09 -0.9620418 -0.272902042
vn -2.62178155E-08 -0.345190138 -0.93853277
vn 0.8730926 -0.1145928 -0.4738964
vn 0.9959136 0.0311183035 0.0847800151
vn 0.7667278 -0.6267388 0.13902165
vn 0.7190177 0.408942521 -0.5619427
vn -1.41906952E-07 0.9382453 -0.34597072
vn -1.22535752E-07 0.99942416 0.0339317173
vn 0.746713 0.663672268 0.04425887
vn 3.566274E-08 -0.982307553 0.187274978
vn -9.69137659E-08 0.542443633 0.8400922
vn 2.177176E-08 0.09901002 0.995086432
vn 0.841013 -0.0630824 0.5373246
vn 0.982272744 -0.0271349475 -0.185483
vn 0.712838233 -0.637100637 -0.293196857
vn 0.7651535 -0.6217596 -0.167197734
vn 0.9964052 0.0160624944 -0.08317875
vn -1.33033282E-07 0.9952589 -0.0972607955
vn 0.761034667 0.6408962 -0.100390881
vn 0.762569 0.646815062 -0.0108974641
vn -1.07023226E-07 0.999960244 0.008916555
vn 5.25709538E-08 -0.925944567 -0.37765944
vn 1.66021152E-08 -0.9718652 -0.235537916
vn 0.996905148 0.00105393073 0.07860664
vn 0.765256166 -0.64193815 0.04794194
vn 0.759346962 0.6392241 0.121592395
vn -5.501672E-08 0.98691386 0.161248192
vn 2.86535862E-08 -0.9985224 0.0543411262
vn 9.714967E-08 -0.9865047 -0.163733214
vn 0.839518249 0.01004181 -0.5432387
vn 2.64698E-09 -0.0184816644 0.9998292
vn -1.11917679E-07 0.991881847 -0.127162829
vn 0.7979738 0.0111388955 -0.6025892
vn 0.994298458 0.04643473 0.0959915146
vn 8.85773446E-08 -0.9989027 -0.04683436
vn 1.0323167E-07 -0.973913848 -0.226918086
vn -1.08214564E-07 0.9816348 -0.190769836
vn -1.29988265E-07 0.945695937 0.32505253
vn -1.08214564E-07 0.9816348 -0.190769836
vn 0.7979738 0.0111388955 -0.6025892
vn -2.629402E-09 0.0184817668 -0.9998292
vn 1.0323167E-07 -0.973913848 -0.226918086
vn 0.524363 -0.345113 -0.77842176
vn 0.676332951 0.0136132473 -0.7364703
vn 0.94562757 -0.00643757358 0.325187683
vn 0.5236497 0.371322781 -0.766753137
vn 2.41872158E-08 -0.01848186 0.9998292
vn 6.47407E-08 -0.710102856 0.704098
vn -1.031006E-07 0.68212086 0.731239438
vn -7.69424062E-08 0.9645038 -0.264068931
vn 4.02091231E-08 -0.954346955 -0.298700273
vn -1.11917679E-07 0.991881847 -0.127162829
vn 0.839518249 0.01004181 -0.5432387
vn -2.34980124E-09 0.01848191 -0.9998292
vn 9.714967E-08 -0.9865047 -0.163733214
vn -0.1448288 0.0182864629 -0.989287734
vn 0.953929067 -0.03637189 0.2978195
vn 0.833436131 -0.5106561 0.21122165
vn 0.824900448 -0.5517428 0.12295977
vn 0.998900533 0.0356444456 0.0304501876
vn 0.8179593 0.549254358 0.171062022
vn 0.8359733 0.545157552 0.06286409
vn 0.9133576 -0.116762318 0.390056938
vn 0.984943032 0.071813345 -0.157257944
vn 0.929069757 -0.3630435 -0.07091385
vn 0.9597837 0.192008942 -0.204811886
vn 0.8602601 0.362077683 0.35896
vn 0.836768866 0.5264443 -0.150579572
vn 0.99458015 -0.09920727 -0.03111575
vn 1.065015E-08 -0.9989571 -0.0456592441
vn -7.131E-08 0.9951611 -0.0982563943
vn 0.993855357 0.110685818 -0.000402856036
vn 1.51620839E-07 -0.99988234 -0.015340114
vn -2.1333706E-07 0.9998978 0.014297328
vn 0.9939364 -0.109933861 -0.00223410176
vn 7.34601358E-08 -0.9998619 -0.016617626
vn -1.52341144E-07 0.99990356 0.0138899293
vn 0.9938748 0.10786356 0.0240502842
vn 1.10616121E-07 -0.999126434 0.0417902172
vn -1.48884354E-07 0.9989 0.0468917862
vn 0.9937293 -0.0476381 0.101157032
vn 1.46441536E-07 -0.9970284 0.0770344138
vn 4.17419557E-08 0.916131 0.400878936
vn 0.979541957 -0.0248279665 0.19970265
vn 1.01280094E-07 -0.877636 0.479327649
vn -3.40214825E-07 0.982489049 0.186320364
vn 1 1.13361196E-07 -2.03276631E-08
vn 1 1.13361196E-07 -2.03276631E-08
vn 1 1.13361196E-07 -2.03276631E-08
vn 1 1.1336121E-07 -2.032766E-08
vn -6.75818853E-07 0.351126134 0.9363282
vn 6.37212452E-07 -0.9691462 -0.246486679
vn -1.41906952E-07 0.9382453 -0.34597072
vn 0.7190177 0.408942521 -0.5619427
vn 0.92448 -0.0576672256 -0.376843661
vn -1.56604017E-07 0.8712134 -0.49090448
vn 6.37212452E-07 -0.9691462 -0.246486679
vn 0.9896188 0.136671945 -0.0444464274
vn -1.36517372E-07 0.663438141 -0.7482311
vn 5.69143843E-10 0.0240492485 0.9997108
vn 0.9738574 -0.0607034154 -0.218899086
vn -1.52361643E-08 0.1818061 -0.9833344
vn -1.64188961E-07 0.8486109 0.529017568
vn 1.08828438E-07 -0.6239006 -0.781503737
vn -2.22043024E-08 0.209155649 0.9778824
vn 0.654553831 0.203211412 0.7281925
vn 1.97814884E-07 -0.9993222 0.0368133821
vn 8.332857E-09 -0.454666227 0.8906619
vn -1.01352377E-07 0.822844 -0.5682673
vn 0.5888582 0.667142749 -0.456252843
vn 0.422461361 0.388410062 -0.8189408
vn -2.44195633E-08 0.41901955 -0.9079772
vn 0.506677747 0.09193932 0.8572193
vn 5.9954175E-08 0.311801 0.95014745
vn -7.434246E-08 0.2335078 0.972354949
vn 0.5241522 0.252196044 0.813425839
vn 0.875089765 -0.446778566 0.186029
vn 0.933662057 0.249509245 0.25694406
vn -1.18671572E-07 0.626073539 0.779764
vn 0.3748334 0.422648549 0.825147331
vn 0.683438957 0.7144922 0.149706617
vn -1.70537348E-07 0.999666 0.0258441344
vn 0.4912005 -0.5071182 0.7082042
vn 7.407705E-08 -0.9049294 0.4255617
vn 2.85354158E-08 -0.7331426 -0.68007493
vn 0.7197409 -0.493165463 -0.488631546
vn -3.12542681E-09 0.159924254 -0.9871293
vn 0.774620831 0.09273777 -0.62558955
vn 0.6320333 -0.396556735 -0.66579026
vn 1.74379267E-08 0.008696523 -0.9999622
vn 0.9177204 -0.363342941 0.160534278
vn 0.556052148 -0.6159398 0.5580539
vn 2.65170712E-08 -0.8032435 0.5956508
vn 4.540983E-07 -0.8287796 0.5595752
vn 4.85534368E-09 -0.296041429 0.9551751
vn 3.71973279E-08 -0.580348969 -0.8143679
vn 2.565167E-07 -0.984639764 -0.174598277
vn 5.45827881E-08 -0.713632 -0.7005208
vn 0.924192846 0.277630478 -0.2622764
vn 0.443150818 -0.88732934 0.127530336
vn -3.03549363E-09 -0.98481077 0.173631087
vn 0.402531743 -0.9015021 0.158941031
vn 0.909408331 -0.3986153 0.1186689
vn 0.802363634 -0.5885044 0.09937407
vn 0.9356687 -0.3401103 0.09406937
vn 0.245104268 -0.9563961 -0.158840865
vn 1.56451367E-08 -0.98648715 -0.163838476
vn 0.390492231 -0.9065373 -0.160330683
vn 0.339853227 -0.93391794 0.11089208
vn 0.587374568 -0.806169748 0.07128407
vn 0.6660714 -0.7438237 0.0554536469
vn 0.536182344 -0.8292371 -0.157716051
vn 0.536182344 -0.8292371 -0.157716051
vn 0.880084753 -0.4746537 -0.0124398684
vn 0.913558543 -0.405151218 -0.0355427973
vn 0.9056506 -0.4229035 -0.0308156125
vn 0.895575166 -0.444203556 -0.0250667259
vn 0.895575166 -0.444203526 -0.0250667259
vn 0.4864375 -0.8688038 0.09251241
vn 0.8754819 -0.460939556 0.145141929
vn 0.8754819 -0.460939527 0.145141929
vn -0.646624446 -0.676591337 -0.3522797
vn -0.8730926 -0.114593044 -0.473896384
vn -0.7667277 -0.6267389 0.13902168
vn -0.9959137 0.031117985 0.08478004
vn -0.7190177 0.408942342 -0.5619428
vn -0.746713161 0.66367203 0.0442589149
vn -0.841012955 -0.0630826652 0.5373246
vn -0.982272744 -0.0271351859 -0.185483024
vn -0.9964052 0.0160622261 -0.0831787139
vn -0.765153348 -0.6217598 -0.167197749
vn -0.7128382 -0.637100756 -0.293196827
vn -0.7625692 0.6468149 -0.0108974157
vn -0.7610348 0.640896 -0.100390866
vn -0.996905148 0.00105368253 0.07860667
vn -0.765256 -0.6419383 0.0479419343
vn -0.7593471 0.639223933 0.121592425
vn -0.839518249 0.0100416215 -0.54323864
vn -0.7979738 0.011138685 -0.6025892
vn -0.994298458 0.046434477 0.09599153
vn -0.7979738 0.011138685 -0.6025892
vn -0.524363 -0.3451131 -0.77842176
vn -0.94562757 -0.00643780828 0.325187683
vn -0.676332951 0.0136131262 -0.7364703
vn -0.5236498 0.371322662 -0.766753137
vn -0.839518249 0.0100416215 -0.54323864
vn 0.144828811 0.0182864964 -0.989287734
vn -0.953929 -0.03637216 0.2978196
vn -0.998900533 0.03564423 0.0304502435
vn -0.82490027 -0.5517431 0.122959867
vn -0.833436 -0.5106563 0.2112216
vn -0.8179595 0.5492541 0.171062082
vn -0.8359734 0.545157433 0.06286408
vn -0.913357556 -0.116762489 0.390057027
vn -0.984943 0.07181343 -0.157258168
vn -0.929069757 -0.363043636 -0.07091375
vn -0.9597836 0.192008927 -0.204811946
vn -0.8602601 0.3620775 0.358960122
vn -0.836769 0.5264442 -0.150579572
vn -0.99458015 -0.09920746 -0.0311157033
vn -0.9938554 0.110685565 -0.000402806327
vn -0.99393636 -0.109934062 -0.00223406334
vn -0.9938748 0.107863307 0.0240503345
vn -0.993729234 -0.04763829 0.101157039
vn -0.9795419 -0.0248284787 0.19970271
vn -0.924479663 -0.05766762 -0.3768445
vn -0.7190177 0.408942342 -0.5619428
vn -0.9896188 0.136671752 -0.0444464572
vn -0.9738574 -0.06070373 -0.218899146
vn -0.65455395 0.203211188 0.7281925
vn -0.42246148 0.388410032 -0.818940759
vn -0.5888584 0.6671425 -0.456252784
vn -0.5066777 0.09193899 0.8572193
vn -0.5241521 0.252195954 0.813425958
vn -0.9336621 0.2495091 0.256944031
vn -0.8750896 -0.446779072 0.186028779
vn -0.6834391 0.714492142 0.149706632
vn -0.3748334 0.422648519 0.825147331
vn -0.491200566 -0.5071183 0.7082041
vn -0.719740748 -0.493165582 -0.4886317
vn -0.6320332 -0.396556675 -0.6657904
vn -0.774620831 0.09273772 -0.62558955
vn -0.9177204 -0.3633429 0.1605342
vn -0.55605197 -0.615940154 0.5580537
vn -0.924192965 0.277630359 -0.262276083
vn -0.443149865 -0.88732934 0.127533868
vn -0.402531117 -0.901501656 0.15894492
vn -0.9094083 -0.398615271 0.118669696
vn -0.935668766 -0.3401099 0.0940704644
vn -0.8023635 -0.5885042 0.0993761644
vn -0.245104223 -0.9563961 -0.15884085
vn -0.390492171 -0.9065373 -0.160331041
vn -0.339847863 -0.9339197 0.110893644
vn -0.6660701 -0.74382484 0.05545466
vn -0.5873716 -0.806171834 0.07128541
vn -0.536182165 -0.829237044 -0.157716811
vn -0.536182165 -0.829237044 -0.157716811
vn -0.880085 -0.474653184 -0.0124392388
vn -0.9135589 -0.4051504 -0.0355421081
vn -0.905650735 -0.4229033 -0.0308149531
vn -0.8955749 -0.444204032 -0.0250661243
vn -0.8955749 -0.444204062 -0.0250661243
vn -0.486436129 -0.8688042 0.0925156251
vn -0.8754817 -0.460939765 0.1451423
vn -0.8754817 -0.460939765 0.1451423
vn 0.9977374 0.05775768 -0.03441182
vn 0.9953945 -0.09586163 -0.0005670248
vn -1.65055685E-08 -0.9990663 0.0432032421
vn 1.0567819E-07 -0.96277976 -0.270287126
vn -9.42676763E-08 0.9930011 0.118105218
vn -8.568009E-08 0.990431666 -0.138003886
vn 0.989222646 0.14637658 -0.00352516468
vn 2.20678928E-07 -0.9999152 -0.0130232312
vn -1.12124432E-07 0.999948442 0.01015307
vn 0.9892311 -0.146334529 0.002837322
vn 1.24321545E-07 -0.999962 -0.008718107
vn -1.926563E-07 0.9999099 0.0134252021
vn 0.9897303 0.141418889 0.02084912
vn 1.99531286E-07 -0.999348462 0.0360924751
vn -1.901947E-07 0.9993628 0.0356915146
vn 0.9901894 -0.0767876655 0.116741739
vn 1.30728182E-07 -0.9983356 0.05767187
vn -6.763528E-08 0.917392552 0.3979835
vn 0.953329 -0.008634103 0.3018099
vn 1.91448677E-07 -0.8475646 0.5306922
vn -4.730327E-08 0.96959877 0.244700179
vn 5.75722474E-08 0.342447847 0.9395368
vn -0.9977374 0.0577574968 -0.0344118625
vn -0.995394468 -0.09586181 -0.0005670518
vn -0.9892227 0.1463763 -0.003525111
vn -0.98923105 -0.146334782 0.0028372854
vn -0.989730358 0.141418427 0.0208492447
vn -0.9901894 -0.07678779 0.116741814
vn -0.953329 -0.008634605 0.301809967
vn 1 1.95191809E-08 7.94934962E-08
vn 1 9.186699E-09 1.01630633E-07
vn 1 4.67532821E-08 7.507494E-08
vn 1 1.92286542E-08 5.756611E-08
vn 1 2.38544811E-08 7.439947E-08
vn 1 5.53098332E-08 8.031296E-08
vn 1 -3.94827282E-10 6.676935E-08
vn 1 8.340671E-09 7.981252E-08
vn 1 -3.77784666E-08 6.476312E-08
vn 1 1.42880037E-08 7.0362745E-08
vn 1 1.90158236E-08 7.5225806E-08
vn 1 1.1137371E-08 6.42543654E-08
vn 1 2.67621036E-08 7.661232E-08
vn 1 2.272218E-08 6.719969E-08
vn 1 1.88243625E-08 6.762611E-08
vn 1 1.39591076E-08 6.13669258E-08
vn 1 2.32918591E-08 7.276904E-08
vn 1 2.007498E-08 7.33641059E-08
vn 1 1.88141573E-08 8.01554E-08
vn 1 7.3426305E-09 8.432919E-08
vn 1 1.41370151E-08 7.33355137E-08
vn -1 -1.70101888E-08 -7.49416742E-08
vn -1 -2.15784581E-08 -7.485016E-08
vn -1 -1.04190061E-08 -8.273874E-08
vn -1 -2.66450932E-08 -8.496353E-08
vn -1 -1.32591911E-08 -7.652459E-08
vn -1 -2.47458374E-08 -7.838887E-08
vn -1 -1.47736827E-08 -7.10843651E-08
vn -1 -3.148223E-09 -6.926058E-08
vn -1 -2.17847429E-08 -7.432798E-08
vn -1 -2.57582382E-08 -7.127025E-08
vn -1 -2.65584177E-08 -7.28216136E-08
vn -1 -2.202833E-08 -7.759505E-08
vn -1 -1.97990957E-08 -7.3927815E-08
vn -1 -2.36095588E-08 -6.982407E-08
vn -1 -2.09502353E-08 -7.32986152E-08
vn -1 -1.86717291E-08 -7.122719E-08
vn -1 -2.32918591E-08 -7.276904E-08
vn -1 -2.00749781E-08 -7.33641059E-08
vn -1 -2.11938449E-08 -7.569008E-08
vn -1 -1.52057549E-08 -7.149841E-08
vn -1 -2.676919E-08 -7.78477656E-08
usemtl 03070015_part_0_material_0
f 1/1/1 2/2/2 3/3/3
f 3/3/3 4/4/4 1/1/1
f 1/1/1 4/4/4 5/5/5
f 5/5/5 6/6/6 1/1/1
f 7/7/7 8/8/8 9/9/9
f 9/9/9 10/10/10 7/7/7
f 1/1/1 6/6/6 11/11/11
f 11/11/11 2/2/2 1/1/1
f 12/12/12 13/13/13 14/14/14
f 7/7/7 10/10/10 5/5/5
f 5/5/5 4/4/4 7/7/7
f 15/15/15 16/16/16 17/17/17
f 17/17/17 18/18/18 15/15/15
f 19/19/19 20/20/20 21/21/21
f 21/21/21 22/22/22 19/19/19
f 16/16/16 23/23/23 24/24/24
f 24/24/24 17/17/17 16/16/16
f 20/20/20 15/15/15 18/18/18
f 18/18/18 21/21/21 20/20/20
f 25/25/25 18/18/18 17/17/17
f 17/17/17 26/26/26 25/25/25
f 22/22/22 21/21/21 27/27/27
f 27/27/27 28/28/28 22/22/22
f 26/26/26 17/17/17 24/24/24
f 24/24/24 29/29/29 26/26/26
f 21/21/21 18/18/18 25/25/25
f 25/25/25 27/27/27 21/21/21
f 5/5/5 25/25/25 26/26/26
f 26/26/26 6/6/6 5/5/5
f 28/28/28 27/27/27 10/10/10
f 10/10/10 9/9/9 28/28/28
f 6/6/6 26/26/26 29/29/29
f 29/29/29 11/11/11 6/6/6
f 27/27/27 25/25/25 5/5/5
f 5/5/5 10/10/10 27/27/27
f 30/30/30 31/31/31 32/32/32
f 31/31/31 33/33/33 32/32/32
f 34/34/34 35/35/35 36/36/36
f 36/36/36 37/37/37 34/34/34
f 34/34/34 38/38/38 39/39/39
f 39/39/39 35/35/35 34/34/34
f 40/40/40 41/41/41 42/42/42
f 41/41/41 43/43/43 42/42/42
f 44/44/44 45/45/45 46/46/46
f 45/45/45 47/47/47 46/46/46
f 46/46/46 48/48/48 49/49/49
f 50/50/50 48/48/48 46/46/46
f 51/51/51 50/50/50 46/46/46
f 46/46/46 47/47/47 51/51/51
f 44/44/44 46/46/46 49/49/49
f 49/49/49 52/52/52 44/44/44
f 53/53/53 54/54/54 55/55/55
f 55/55/55 54/54/54 56/56/56
f 57/57/57 51/51/51 47/47/47
f 47/47/47 45/45/45 57/57/57
f 44/44/44 52/52/52 57/57/57
f 57/57/57 45/45/45 44/44/44
f 58/58/58 59/59/59 60/60/60
f 60/60/60 61/61/61 58/58/58
f 62/62/62 58/58/58 61/61/61
f 61/61/61 63/63/63 62/62/62
f 64/64/64 65/65/65 59/59/59
f 59/59/59 58/58/58 64/64/64
f 66/66/66 67/67/67 61/61/61
f 61/61/61 60/60/60 66/66/66
f 68/68/68 64/64/64 58/58/58
f 58/58/58 62/62/62 68/68/68
f 61/61/61 67/67/67 69/69/69
f 69/69/69 63/63/63 61/61/61
f 35/35/35 70/70/70 71/71/71
f 71/71/71 36/36/36 35/35/35
f 39/39/39 72/72/72 70/70/70
f 70/70/70 35/35/35 39/39/39
f 73/73/73 74/74/74 71/71/71
f 71/71/71 70/70/70 73/73/73
f 75/75/75 73/73/73 70/70/70
f 70/70/70 72/72/72 75/75/75
f 76/76/76 77/77/77 74/74/74
f 74/74/74 73/73/73 76/76/76
f 78/78/78 76/76/76 73/73/73
f 73/73/73 75/75/75 78/78/78
f 79/79/79 80/80/80 77/77/77
f 77/77/77 76/76/76 79/79/79
f 81/81/81 79/79/79 76/76/76
f 76/76/76 78/78/78 81/81/81
f 82/82/82 83/83/83 80/80/80
f 80/80/80 79/79/79 82/82/82
f 84/84/84 82/82/82 79/79/79
f 79/79/79 81/81/81 84/84/84
f 82/82/82 85/85/85 86/86/86
f 86/86/86 83/83/83 82/82/82
f 82/82/82 84/84/84 87/87/87
f 87/87/87 85/85/85 82/82/82
f 88/88/88 89/89/89 90/90/90
f 90/90/90 91/91/91 88/88/88
f 85/85/85 92/92/92 86/86/86
f 87/87/87 92/92/92 85/85/85
f 3/3/3 93/93/93 7/7/7
f 7/7/7 4/4/4 3/3/3
f 94/94/94 95/95/95 96/96/96
f 96/96/96 97/97/97 94/94/94
f 95/95/95 98/98/98 96/96/96
f 97/97/97 96/96/96 99/99/99
f 99/99/99 100/100/100 97/97/97
f 96/96/96 98/98/98 101/101/101
f 101/101/101 99/99/99 96/96/96
f 98/98/98 97/97/97 100/100/100
f 100/100/100 101/101/101 98/98/98
f 100/100/100 99/99/99 102/102/102
f 102/102/102 103/103/103 100/100/100
f 99/99/99 101/101/101 104/104/104
f 104/104/104 102/102/102 99/99/99
f 103/103/103 102/102/102 105/105/105
f 102/102/102 104/104/104 106/106/106
f 102/102/102 106/106/106 107/107/107
f 102/102/102 107/107/107 14/14/14
f 13/13/13 108/108/108 14/14/14
f 12/12/12 14/14/14 107/107/107
f 107/107/107 109/109/109 12/12/12
f 110/110/110 111/111/111 112/112/112
f 112/112/112 113/113/113 110/110/110
f 114/114/114 115/115/115 116/116/116
f 117/117/117 114/114/114 118/118/118
f 118/118/118 119/119/119 117/117/117
f 120/120/120 121/121/121 122/122/122
f 122/122/122 123/123/123 120/120/120
f 124/124/124 125/125/125 126/126/126
f 126/126/126 127/127/127 124/124/124
f 128/128/128 129/129/129 130/130/130
f 130/130/130 131/131/131 128/128/128
f 132/132/132 133/133/133 130/130/130
f 130/130/130 129/129/129 132/132/132
f 134/134/134 135/135/135 133/133/133
f 133/133/133 132/132/132 134/134/134
f 114/114/114 124/124/124 127/127/127
f 127/127/127 118/118/118 114/114/114
f 136/136/136 125/125/125 124/124/124
f 132/132/132 118/118/118 137/137/137
f 137/137/137 134/134/134 132/132/132
f 137/137/137 118/118/118 127/127/127
f 127/127/127 126/126/126 137/137/137
f 130/130/130 133/133/133 138/138/138
f 138/138/138 139/139/139 130/130/130
f 124/124/124 114/114/114 116/116/116
f 116/116/116 136/136/136 124/124/124
f 130/130/130 139/139/139 131/131/131
f 132/132/132 129/129/129 140/140/140
f 140/140/140 119/119/119 132/132/132
f 119/119/119 118/118/118 132/132/132
f 110/110/110 123/123/123 122/122/122
f 122/122/122 111/111/111 110/110/110
f 121/121/121 120/120/120 115/115/115
f 117/117/117 121/121/121 115/115/115
f 115/115/115 114/114/114 117/117/117
f 117/117/117 119/119/119 122/122/122
f 122/122/122 121/121/121 117/117/117
f 122/122/122 119/119/119 140/140/140
f 140/140/140 111/111/111 122/122/122
f 111/111/111 140/140/140 112/112/112
f 141/141/141 142/142/142 143/143/143
f 144/144/144 145/145/145 146/146/146
f 147/147/147 148/148/148 149/149/149
f 150/150/150 151/151/151 152/152/152
f 153/153/153 149/149/149 154/154/154
f 152/152/152 151/151/151 155/155/155
f 156/156/156 155/155/155 157/157/157
f 158/158/158 157/157/157 159/159/159
f 160/160/160 145/145/145 141/141/141
f 161/161/161 162/162/162 144/144/144
f 129/129/129 128/128/128 112/112/112
f 112/112/112 140/140/140 129/129/129
f 112/112/112 128/128/128 113/113/113
f 133/133/133 135/135/135 138/138/138
f 14/14/14 108/108/108 105/105/105
f 105/105/105 102/102/102 14/14/14
f 107/107/107 106/106/106 109/109/109
f 163/163/163 164/164/164 3/3/3
f 3/3/3 2/2/2 163/163/163
f 163/163/163 165/165/165 166/166/166
f 166/166/166 164/164/164 163/163/163
f 167/167/167 168/168/168 9/9/9
f 9/9/9 8/8/8 167/167/167
f 163/163/163 2/2/2 11/11/11
f 11/11/11 165/165/165 163/163/163
f 12/12/12 169/169/169 13/13/13
f 167/167/167 164/164/164 166/166/166
f 166/166/166 168/168/168 167/167/167
f 170/170/170 171/171/171 172/172/172
f 172/172/172 173/173/173 170/170/170
f 19/19/19 22/22/22 174/174/174
f 174/174/174 175/175/175 19/19/19
f 173/173/173 172/172/172 24/24/24
f 24/24/24 23/23/23 173/173/173
f 175/175/175 174/174/174 171/171/171
f 171/171/171 170/170/170 175/175/175
f 176/176/176 177/177/177 172/172/172
f 172/172/172 171/171/171 176/176/176
f 22/22/22 28/28/28 178/178/178
f 178/178/178 174/174/174 22/22/22
f 177/177/177 29/29/29 24/24/24
f 24/24/24 172/172/172 177/177/177
f 174/174/174 178/178/178 176/176/176
f 176/176/176 171/171/171 174/174/174
f 166/166/166 165/165/165 177/177/177
f 177/177/177 176/176/176 166/166/166
f 28/28/28 9/9/9 168/168/168
f 168/168/168 178/178/178 28/28/28
f 165/165/165 11/11/11 29/29/29
f 29/29/29 177/177/177 165/165/165
f 178/178/178 168/168/168 166/166/166
f 166/166/166 176/176/176 178/178/178
f 30/30/30 32/32/32 179/179/179
f 179/179/179 32/32/32 33/33/33
f 180/180/180 37/37/37 36/36/36
f 36/36/36 181/181/181 180/180/180
f 180/180/180 181/181/181 39/39/39
f 39/39/39 38/38/38 180/180/180
f 40/40/40 42/42/42 182/182/182
f 182/182/182 42/42/42 43/43/43
f 183/183/183 184/184/184 185/185/185
f 185/185/185 184/184/184 186/186/186
f 184/184/184 49/49/49 48/48/48
f 50/50/50 184/184/184 48/48/48
f 51/51/51 186/186/186 184/184/184
f 184/184/184 50/50/50 51/51/51
f 183/183/183 52/52/52 49/49/49
f 49/49/49 184/184/184 183/183/183
f 53/53/53 55/55/55 187/187/187
f 55/55/55 56/56/56 187/187/187
f 188/188/188 185/185/185 186/186/186
f 186/186/186 51/51/51 188/188/188
f 183/183/183 185/185/185 188/188/188
f 188/188/188 52/52/52 183/183/183
f 189/189/189 190/190/190 191/191/191
f 191/191/191 192/192/192 189/189/189
f 193/193/193 194/194/194 190/190/190
f 190/190/190 189/189/189 193/193/193
f 195/195/195 189/189/189 192/192/192
f 192/192/192 196/196/196 195/195/195
f 197/197/197 191/191/191 190/190/190
f 190/190/190 198/198/198 197/197/197
f 199/199/199 193/193/193 189/189/189
f 189/189/189 195/195/195 199/199/199
f 190/190/190 194/194/194 200/200/200
f 200/200/200 198/198/198 190/190/190
f 181/181/181 36/36/36 71/71/71
f 71/71/71 201/201/201 181/181/181
f 39/39/39 181/181/181 201/201/201
f 201/201/201 72/72/72 39/39/39
f 202/202/202 201/201/201 71/71/71
f 71/71/71 74/74/74 202/202/202
f 75/75/75 72/72/72 201/201/201
f 201/201/201 202/202/202 75/75/75
f 203/203/203 202/202/202 74/74/74
f 74/74/74 77/77/77 203/203/203
f 78/78/78 75/75/75 202/202/202
f 202/202/202 203/203/203 78/78/78
f 204/204/204 203/203/203 77/77/77
f 77/77/77 80/80/80 204/204/204
f 81/81/81 78/78/78 203/203/203
f 203/203/203 204/204/204 81/81/81
f 205/205/205 204/204/204 80/80/80
f 80/80/80 83/83/83 205/205/205
f 84/84/84 81/81/81 204/204/204
f 204/204/204 205/205/205 84/84/84
f 205/205/205 83/83/83 86/86/86
f 86/86/86 206/206/206 205/205/205
f 205/205/205 206/206/206 87/87/87
f 87/87/87 84/84/84 205/205/205
f 206/206/206 86/86/86 92/92/92
f 87/87/87 206/206/206 92/92/92
f 3/3/3 164/164/164 167/167/167
f 167/167/167 93/93/93 3/3/3
f 94/94/94 97/97/97 207/207/207
f 207/207/207 208/208/208 94/94/94
f 208/208/208 207/207/207 98/98/98
f 97/97/97 100/100/100 209/209/209
f 209/209/209 207/207/207 97/97/97
f 207/207/207 209/209/209 101/101/101
f 101/101/101 98/98/98 207/207/207
f 98/98/98 101/101/101 100/100/100
f 100/100/100 97/97/97 98/98/98
f 100/100/100 103/103/103 210/210/210
f 210/210/210 209/209/209 100/100/100
f 209/209/209 210/210/210 104/104/104
f 104/104/104 101/101/101 209/209/209
f 103/103/103 105/105/105 210/210/210
f 210/210/210 169/169/169 211/211/211
f 210/210/210 211/211/211 106/106/106
f 210/210/210 106/106/106 104/104/104
f 13/13/13 169/169/169 108/108/108
f 12/12/12 109/109/109 211/211/211
f 211/211/211 169/169/169 12/12/12
f 110/110/110 113/113/113 212/212/212
f 212/212/212 213/213/213 110/110/110
f 214/214/214 116/116/116 115/115/115
f 215/215/215 216/216/216 217/217/217
f 217/217/217 214/214/214 215/215/215
f 120/120/120 123/123/123 218/218/218
f 218/218/218 219/219/219 120/120/120
f 220/220/220 221/221/221 126/126/126
f 126/126/126 125/125/125 220/220/220
f 128/128/128 131/131/131 222/222/222
f 222/222/222 223/223/223 128/128/128
f 224/224/224 223/223/223 222/222/222
f 222/222/222 225/225/225 224/224/224
f 134/134/134 224/224/224 225/225/225
f 225/225/225 135/135/135 134/134/134
f 214/214/214 217/217/217 221/221/221
f 221/221/221 220/220/220 214/214/214
f 136/136/136 220/220/220 125/125/125
f 224/224/224 134/134/134 137/137/137
f 137/137/137 217/217/217 224/224/224
f 137/137/137 126/126/126 221/221/221
f 221/221/221 217/217/217 137/137/137
f 222/222/222 139/139/139 138/138/138
f 138/138/138 225/225/225 222/222/222
f 220/220/220 136/136/136 116/116/116
f 116/116/116 214/214/214 220/220/220
f 222/222/222 131/131/131 139/139/139
f 224/224/224 216/216/216 226/226/226
f 226/226/226 223/223/223 224/224/224
f 216/216/216 224/224/224 217/217/217
f 110/110/110 213/213/213 218/218/218
f 218/218/218 123/123/123 110/110/110
f 219/219/219 115/115/115 120/120/120
f 215/215/215 214/214/214 115/115/115
f 115/115/115 219/219/219 215/215/215
f 215/215/215 219/219/219 218/218/218
f 218/218/218 216/216/216 215/215/215
f 218/218/218 213/213/213 226/226/226
f 226/226/226 216/216/216 218/218/218
f 213/213/213 212/212/212 226/226/226
f 227/227/227 228/228/228 142/142/142
f 229/229/229 230/230/230 231/231/231
f 232/232/232 233/233/233 148/148/148
f 234/234/234 235/235/235 236/236/236
f 237/237/237 238/238/238 233/233/233
f 235/235/235 239/239/239 236/236/236
f 240/240/240 241/241/241 239/239/239
f 242/242/242 243/243/243 241/241/241
f 244/244/244 227/227/227 231/231/231
f 245/245/245 229/229/229 246/246/246
f 223/223/223 226/226/226 212/212/212
f 212/212/212 128/128/128 223/223/223
f 212/212/212 113/113/113 128/128/128
f 225/225/225 138/138/138 135/135/135
f 169/169/169 210/210/210 105/105/105
f 105/105/105 108/108/108 169/169/169
f 211/211/211 109/109/109 106/106/106
usemtl 03070015_part_0_material_1
f 247/247/247 248/248/248 249/249/249
f 249/249/249 250/250/250 247/247/247
f 251/251/251 252/252/252 248/248/248
f 248/248/248 247/247/247 251/251/251
f 253/253/253 254/254/254 249/249/249
f 249/249/249 248/248/248 253/253/253
f 255/255/255 253/253/253 248/248/248
f 248/248/248 252/252/252 255/255/255
f 256/256/256 257/257/257 254/254/254
f 254/254/254 253/253/253 256/256/256
f 258/258/258 256/256/256 253/253/253
f 253/253/253 255/255/255 258/258/258
f 259/259/259 260/260/260 257/257/257
f 257/257/257 256/256/256 259/259/259
f 261/261/261 259/259/259 256/256/256
f 256/256/256 258/258/258 261/261/261
f 262/262/262 263/263/263 260/260/260
f 260/260/260 259/259/259 262/262/262
f 264/264/264 262/262/262 259/259/259
f 259/259/259 261/261/261 264/264/264
f 262/262/262 265/265/265 266/266/266
f 266/266/266 263/263/263 262/262/262
f 262/262/262 264/264/264 267/267/267
f 267/267/267 265/265/265 262/262/262
f 265/265/265 268/268/268 266/266/266
f 267/267/267 268/268/268 265/265/265
f 269/269/269 250/250/250 249/249/249
f 249/249/249 270/270/270 269/269/269
f 251/251/251 269/269/269 270/270/270
f 270/270/270 252/252/252 251/251/251
f 271/271/271 270/270/270 249/249/249
f 249/249/249 254/254/254 271/271/271
f 255/255/255 252/252/252 270/270/270
f 270/270/270 271/271/271 255/255/255
f 272/272/272 271/271/271 254/254/254
f 254/254/254 257/257/257 272/272/272
f 258/258/258 255/255/255 271/271/271
f 271/271/271 272/272/272 258/258/258
f 273/273/273 272/272/272 257/257/257
f 257/257/257 260/260/260 273/273/273
f 261/261/261 258/258/258 272/272/272
f 272/272/272 273/273/273 261/261/261
f 274/274/274 273/273/273 260/260/260
f 260/260/260 263/263/263 274/274/274
f 264/264/264 261/261/261 273/273/273
f 273/273/273 274/274/274 264/264/264
f 274/274/274 263/263/263 266/266/266
f 266/266/266 275/275/275 274/274/274
f 274/274/274 275/275/275 267/267/267
f 267/267/267 264/264/264 274/274/274
f 275/275/275 266/266/266 268/268/268
f 267/267/267 275/275/275 268/268/268
f 276/276/276 277/277/277 278/278/278
f 279/279/279 280/280/280 281/281/281
f 282/282/282 283/283/283 284/284/284
f 285/285/285 286/286/286 287/287/287
f 283/283/283 286/286/286 285/285/285
f 282/282/282 286/286/286 283/283/283
f 282/282/282 288/288/288 286/286/286
f 282/282/282 289/289/289 288/288/288
f 282/282/282 290/290/290 289/289/289
f 291/291/291 290/290/290 282/282/282
f 292/292/292 290/290/290 291/291/291
f 293/293/293 290/290/290 292/292/292
f 293/293/293 276/276/276 290/290/290
f 294/294/294 276/276/276 293/293/293
f 276/276/276 295/295/295 277/277/277
f 294/294/294 295/295/295 276/276/276
f 294/294/294 296/296/296 295/295/295
f 280/280/280 296/296/296 294/294/294
f 279/279/279 296/296/296 280/280/280
f 297/297/297 298/298/298 299/299/299
f 300/300/300 301/301/301 302/302/302
f 303/303/303 304/304/304 305/305/305
f 306/306/306 307/307/307 308/308/308
f 305/305/305 306/306/306 308/308/308
f 303/303/303 305/305/305 308/308/308
f 303/303/303 308/308/308 309/309/309
f 303/303/303 309/309/309 310/310/310
f 303/303/303 310/310/310 311/311/311
f 312/312/312 303/303/303 311/311/311
f 313/313/313 312/312/312 311/311/311
f 314/314/314 313/313/313 311/311/311
f 314/314/314 311/311/311 297/297/297
f 315/315/315 314/314/314 297/297/297
f 297/297/297 299/299/299 316/316/316
f 315/315/315 297/297/297 316/316/316
f 315/315/315 316/316/316 317/317/317
f 302/302/302 315/315/315 317/317/317
f 300/300/300 302/302/302 317/317/317
