mtllib 03090022.mtl
o 03090022_part_0
v -0.0264939517 -9.323258E-09 -0.535980761
v 0.00103920558 -4.80288653E-09 -0.5643427
v -1.42370848E-09 -0.0502423942 -0.5147372
v -5.93351E-09 -0.02649395 -0.3991808
v 0.026493948 8.555163E-09 -0.3991808
v 0.0264939349 4.5307214E-08 0.289252281
v -1.78125976E-08 -0.0264939126 0.289252281
v 0.026493948 8.555163E-09 -0.3991808
v -1.10784493E-08 0.0264939629 -0.3991808
v -2.29575381E-08 0.0264939982 0.289252251
v 0.0264939349 4.5307214E-08 0.289252281
v -0.026493961 1.09404863E-09 -0.3991808
v -0.026493974 3.78461E-08 0.289252281
v -1.35709035E-08 -0.0193666257 0.751626551
v 0.01936665 5.591909E-08 0.751626551
v -1.73317733E-08 0.0193667337 0.751626551
v -0.0193666816 5.04651325E-08 0.751626551
v 0.0264939237 5.99768839E-08 0.564042032
v -3.028069E-08 -0.0264939 0.564042032
v -1.78125976E-08 -0.0264939126 0.289252281
v 0.0264939349 4.5307214E-08 0.289252281
v -3.542563E-08 0.0264940131 0.564042032
v 0.0264939237 5.99768839E-08 0.564042032
v 0.0264939349 4.5307214E-08 0.289252281
v -2.29575381E-08 0.0264939982 0.289252251
v -0.0264939852 5.251577E-08 0.564042032
v -0.026493974 3.78461E-08 0.289252281
v -5.93351E-09 -0.02649395 -0.3991808
v -4.31251523E-09 -0.0264939535 -0.456958979
v 0.0264939461 5.4706697E-09 -0.456958979
v 0.026493948 8.555163E-09 -0.3991808
v -0.026493961 1.09404863E-09 -0.3991808
v -0.0264939573 -1.99044425E-09 -0.456958979
v -4.31251523E-09 -0.0264939535 -0.456958979
v -5.93351E-09 -0.02649395 -0.3991808
v -1.10784493E-08 0.0264939629 -0.3991808
v -9.457454E-09 0.02649396 -0.456958979
v -0.0264939573 -1.99044425E-09 -0.456958979
v -0.026493961 1.09404863E-09 -0.3991808
v 0.026493948 8.555163E-09 -0.3991808
v 0.0264939461 5.4706697E-09 -0.456958979
v -9.457454E-09 0.02649396 -0.456958979
v -1.10784493E-08 0.0264939629 -0.3991808
v -1.42370848E-09 -0.0502423942 -0.5147372
v 0.0264939442 2.29016472E-09 -0.535980761
v 0.0264939461 5.4706697E-09 -0.456958979
v 0.0264939461 5.4706697E-09 -0.456958979
v -4.31251523E-09 -0.0264939535 -0.456958979
v -1.42370848E-09 -0.0502423942 -0.5147372
v -0.0264939517 -9.323258E-09 -0.535980761
v -1.42370848E-09 -0.0502423942 -0.5147372
v -4.31251523E-09 -0.0264939535 -0.456958979
v -0.0264939517 -9.323258E-09 -0.535980761
v -9.104271E-09 0.0502423942 -0.5147372
v -0.0264939517 -9.323258E-09 -0.535980761
v -0.0264939573 -1.99044425E-09 -0.456958979
v -0.0264939573 -1.99044425E-09 -0.456958979
v -9.457454E-09 0.02649396 -0.456958979
v -9.104271E-09 0.0502423942 -0.5147372
v 0.0264939442 2.29016472E-09 -0.535980761
v -9.104271E-09 0.0502423942 -0.5147372
v -9.457454E-09 0.02649396 -0.456958979
v 0.0264939442 2.29016472E-09 -0.535980761
v -9.104271E-09 0.0502423942 -0.5147372
v 0.0264939442 2.29016472E-09 -0.535980761
v 0.0377291329 5.47815056E-08 0.696919739
v -3.54378855E-08 -0.03772914 0.696919739
v -1.27692177E-08 -0.0160238557 0.6103212
v 0.0160238948 6.14308959E-08 0.6103212
v -4.276463E-08 0.03772924 0.696919739
v 0.0377291329 5.47815056E-08 0.696919739
v 0.0160238948 6.14308959E-08 0.6103212
v -1.58809481E-08 0.0160239749 0.6103212
v -0.0377292149 4.41563728E-08 0.696919739
v -4.276463E-08 0.03772924 0.696919739
v -1.58809481E-08 0.0160239749 0.6103212
v -0.0160239227 5.69183136E-08 0.6103212
v -3.54378855E-08 -0.03772914 0.696919739
v -0.0377292149 4.41563728E-08 0.696919739
v -0.0160239227 5.69183136E-08 0.6103212
v -1.27692177E-08 -0.0160238557 0.6103212
v 0.01936665 5.591909E-08 0.751626551
v -1.35709035E-08 -0.0193666257 0.751626551
v -3.54378855E-08 -0.03772914 0.696919739
v 0.0377291329 5.47815056E-08 0.696919739
v -3.028069E-08 -0.0264939 0.564042032
v 0.0264939237 5.99768839E-08 0.564042032
v 0.0160238948 6.14308959E-08 0.6103212
v -1.27692177E-08 -0.0160238557 0.6103212
v -1.73317733E-08 0.0193667337 0.751626551
v 0.01936665 5.591909E-08 0.751626551
v 0.0377291329 5.47815056E-08 0.696919739
v -4.276463E-08 0.03772924 0.696919739
v 0.0264939237 5.99768839E-08 0.564042032
v -3.542563E-08 0.0264940131 0.564042032
v -1.58809481E-08 0.0160239749 0.6103212
v 0.0160238948 6.14308959E-08 0.6103212
v -0.0193666816 5.04651325E-08 0.751626551
v -1.73317733E-08 0.0193667337 0.751626551
v -4.276463E-08 0.03772924 0.696919739
v -0.0377292149 4.41563728E-08 0.696919739
v -3.542563E-08 0.0264940131 0.564042032
v -0.0264939852 5.251577E-08 0.564042032
v -0.0160239227 5.69183136E-08 0.6103212
v -1.58809481E-08 0.0160239749 0.6103212
v -1.35709035E-08 -0.0193666257 0.751626551
v -0.0193666816 5.04651325E-08 0.751626551
v -0.0377292149 4.41563728E-08 0.696919739
v -3.54378855E-08 -0.03772914 0.696919739
v -0.0264939852 5.251577E-08 0.564042032
v -3.028069E-08 -0.0264939 0.564042032
v -1.27692177E-08 -0.0160238557 0.6103212
v -0.0160239227 5.69183136E-08 0.6103212
v -2.2162272E-08 0.137364864 0.748984754
v -7.495791E-09 -0.137365147 0.748984754
v -4.563741E-08 -0.137365118 1.33070385
v -6.030389E-08 0.1373649 1.33070385
v -1.06034822E-05 -0.22494331 0.7073969
v -1.05985246E-05 -0.411752 0.936868668
v -1.06663092E-05 -0.170742959 1.13306963
v -1.06712669E-05 0.0160657018 0.9035979
v -1.06853631E-05 0.186170369 1.13306963
v -1.06433108E-05 0.427179337 0.9368686
v -1.06283233E-05 0.240370691 0.7073969
v -1.06703746E-05 -0.0006383267 0.9035979
v -0.0447745174 -1.52657265E-08 -0.5440938
v 0.00143670454 -5.41089662E-09 -0.5843387
v -1.68807965E-05 -0.07019459 -0.5161191
v -4.32361924E-09 -0.0464939475 -0.3991808
v 0.0464939475 1.069311E-08 -0.3991808
v 0.0464939326 4.69085322E-08 0.289252281
v -1.62027067E-08 -0.04649391 0.289252281
v -1.48348613E-08 0.0464939624 -0.3991808
v -2.564069E-08 0.046494 0.289252251
v -0.0464939624 -1.5304662E-09 -0.3991808
v -0.0464939736 3.517152E-08 0.289252281
v -8.037746E-09 -0.0337187424 0.765555561
v 0.03371777 5.62448257E-08 0.7655566
v -1.52569832E-08 0.03371785 0.7655566
v -0.0337167941 4.9693E-08 0.7655576
v 0.046381522 6.19677536E-08 0.5661594
v -3.028069E-08 -0.0463814959 0.5661594
v -3.938051E-08 0.04638161 0.5661594
v -0.0463815853 5.14943181E-08 0.5661594
v -4.32361924E-09 -0.0464939475 -0.3991808
v -1.84692772E-09 -0.0460360125 -0.452703655
v 0.0464939475 7.608617E-09 -0.456958979
v 0.0464939475 7.608617E-09 -0.456958979
v 0.0464939475 1.069311E-08 -0.3991808
v -4.32361924E-09 -0.0464939475 -0.3991808
v -0.0464939624 -1.5304662E-09 -0.3991808
v -0.046493955 -5.29478239E-09 -0.456958979
v -1.84692772E-09 -0.0460360125 -0.452703655
v -1.84692772E-09 -0.0460360125 -0.452703655
v -4.32361924E-09 -0.0464939475 -0.3991808
v -0.0464939624 -1.5304662E-09 -0.3991808
v -1.48348613E-08 0.0464939624 -0.3991808
v -1.34023947E-08 0.04603602 -0.452703655
v -0.046493955 -5.29478239E-09 -0.456958979
v -0.046493955 -5.29478239E-09 -0.456958979
v -0.0464939624 -1.5304662E-09 -0.3991808
v -1.48348613E-08 0.0464939624 -0.3991808
v 0.0464939475 1.069311E-08 -0.3991808
v 0.0464939475 7.608617E-09 -0.456958979
v -1.34023947E-08 0.04603602 -0.452703655
v -1.34023947E-08 0.04603602 -0.452703655
v -1.48348613E-08 0.0464939624 -0.3991808
v 0.0464939475 1.069311E-08 -0.3991808
v -1.68807965E-05 -0.07019459 -0.5161191
v 0.0449240543 4.32600444E-09 -0.5437481
v 0.0464939475 7.608617E-09 -0.456958979
v 0.0464939475 7.608617E-09 -0.456958979
v -1.84692772E-09 -0.0460360125 -0.452703655
v -1.68807965E-05 -0.07019459 -0.5161191
v -0.0447745174 -1.52657265E-08 -0.5440938
v -1.68807965E-05 -0.07019459 -0.5161191
v -1.84692772E-09 -0.0460360125 -0.452703655
v -1.84692772E-09 -0.0460360125 -0.452703655
v -0.046493955 -5.29478239E-09 -0.456958979
v -0.0447745174 -1.52657265E-08 -0.5440938
v -1.69545037E-05 0.07019459 -0.5161191
v -0.0447745174 -1.52657265E-08 -0.5440938
v -0.046493955 -5.29478239E-09 -0.456958979
v -0.046493955 -5.29478239E-09 -0.456958979
v -1.34023947E-08 0.04603602 -0.452703655
v -1.69545037E-05 0.07019459 -0.5161191
v 0.0449240543 4.32600444E-09 -0.5437481
v -1.69545037E-05 0.07019459 -0.5161191
v -1.34023947E-08 0.04603602 -0.452703655
v -1.34023947E-08 0.04603602 -0.452703655
v 0.0464939475 7.608617E-09 -0.456958979
v 0.0449240543 4.32600444E-09 -0.5437481
v -1.69545037E-05 0.07019459 -0.5161191
v 0.0449240543 4.32600444E-09 -0.5437481
v 0.0577169172 5.55523272E-08 0.6976186
v -3.60656E-08 -0.05771693 0.6976186
v -6.366314E-09 -0.03602217 0.6100618
v 0.0360222124 6.39693738E-08 0.6100618
v -4.8414055E-08 0.0577170253 0.6976186
v 0.0577169172 5.55523272E-08 0.6976186
v 0.0360222124 6.39693738E-08 0.6100618
v -1.8343604E-08 0.03602229 0.6100618
v -0.057717 4.24364437E-08 0.6976186
v -4.8414055E-08 0.0577170253 0.6976186
v -1.8343604E-08 0.03602229 0.6100618
v -0.03602224 5.721134E-08 0.6100618
v -3.60656E-08 -0.05771693 0.6976186
v -0.057717 4.24364437E-08 0.6976186
v -0.03602224 5.721134E-08 0.6100618
v -6.366314E-09 -0.03602217 0.6100618
v 0.03371777 5.62448257E-08 0.7655566
v -8.037746E-09 -0.0337187424 0.765555561
v -3.60656E-08 -0.05771693 0.6976186
v 0.0577169172 5.55523272E-08 0.6976186
v -3.028069E-08 -0.0463814959 0.5661594
v 0.046381522 6.19677536E-08 0.5661594
v 0.0360222124 6.39693738E-08 0.6100618
v -6.366314E-09 -0.03602217 0.6100618
v -1.52569832E-08 0.03371785 0.7655566
v 0.03371777 5.62448257E-08 0.7655566
v 0.0577169172 5.55523272E-08 0.6976186
v -4.8414055E-08 0.0577170253 0.6976186
v 0.046381522 6.19677536E-08 0.5661594
v -3.938051E-08 0.04638161 0.5661594
v -1.8343604E-08 0.03602229 0.6100618
v 0.0360222124 6.39693738E-08 0.6100618
v -0.0337167941 4.9693E-08 0.7655576
v -1.52569832E-08 0.03371785 0.7655566
v -4.8414055E-08 0.0577170253 0.6976186
v -0.057717 4.24364437E-08 0.6976186
v -3.938051E-08 0.04638161 0.5661594
v -0.0463815853 5.14943181E-08 0.5661594
v -0.03602224 5.721134E-08 0.6100618
v -1.8343604E-08 0.03602229 0.6100618
v -8.037746E-09 -0.0337187424 0.765555561
v -0.0337167941 4.9693E-08 0.7655576
v -0.057717 4.24364437E-08 0.6976186
v -3.60656E-08 -0.05771693 0.6976186
v -0.0463815853 5.14943181E-08 0.5661594
v -3.028069E-08 -0.0463814959 0.5661594
v -6.366314E-09 -0.03602217 0.6100618
v -0.03602224 5.721134E-08 0.6100618
v 0.0103599513 -0.170397013 1.12890983
v 0.010359956 -0.226649389 1.11592841
v 0.0103599653 -0.229534119 1.05679131
v 0.010359955 -0.125607669 1.09127736
v 0.0103600034 -0.4184844 0.8779377
v 0.0103600034 -0.318335027 0.8507015
v 0.0103599979 -0.239703909 0.8453706
v 0.0103599867 -0.192597941 0.8896155
v 0.0103599811 -0.171588913 0.946257234
v 0.01035999 -0.164449558 0.8808991
v 0.0103599876 -0.131858781 0.8842407
v 0.0103599848 -0.101685569 0.891809464
v 0.0103599867 -0.0588262528 0.8730201
v 0.010359969 -0.035731215 1.13512313
v 0.0103599653 -0.04083076 1.16266072
v 0.0103599448 -0.163185179 1.16929615
v 0.0103599532 0.006085028 1.22385514
v 0.0103599047 0.00412955275 1.36690056
v 0.0103599606 0.0570804551 1.16470051
v 0.0103599289 0.17288667 1.17506564
v 0.01035994 0.1399402 1.1039449
v 0.0103599653 0.0448415577 1.13716292
v 0.0103599653 0.003025304 1.15042174
v 0.0103599988 -0.101163328 0.820242941
v 0.0103600072 -0.04635332 0.753894
v 0.0103600025 0.04595826 0.753894
v 0.0103599913 0.102210626 0.811588764
v 0.010359982 0.0694980845 0.866301358
v 0.0103599774 0.115595751 0.8915046
v 0.0103599792 0.175771415 0.8706123
v 0.0103599709 0.1885914 0.92815876
v 0.0103599755 0.340201437 0.8447632
v 0.0103599671 0.442609578 0.8692835
v 0.0103599438 0.234908521 1.066888
v 0.0103599811 0.260964721 0.836103737
v 0.0103599764 0.215333432 0.8700091
v 0.0103599355 0.203864485 1.12750375
v 0.0103599336 0.24459058 1.11719847
v -0.009640064 0.203864485 1.12750375
v -0.009640066 0.24459058 1.11719847
v -0.009640056 0.234908521 1.066888
v -0.009640032 0.442609578 0.8692835
v -0.009640024 0.340201437 0.8447632
v -0.00964001752 0.260964721 0.836103737
v -0.009640023 0.215333432 0.8700091
v -0.00964003 0.1885914 0.92815876
v -0.009640021 0.175771415 0.8706123
v -0.009640022 0.115595751 0.8915046
v -0.009639992 -0.0463533252 0.753894
v -0.009640001 -0.101163335 0.820242941
v -0.009640013 -0.0588262565 0.8730201
v -0.009639997 0.0459582545 0.753894
v -0.009640008 0.102210619 0.811588764
v -0.00964001752 0.0694980845 0.866301358
v -0.009640031 -0.03573122 1.13512313
v -0.009640035 0.00302530336 1.15042174
v -0.009640034 0.044841554 1.13716292
v -0.009640012 -0.131858781 0.8842407
v -0.009640008 -0.164449558 0.8808991
v -0.009640018 -0.171588913 0.946257234
v -0.009639996 -0.318335027 0.8507015
v -0.009639996 -0.4184844 0.8779377
v -0.009640034 -0.229534119 1.05679131
v -0.009640003 -0.239703909 0.8453706
v -0.009640014 -0.192597941 0.8896155
v -0.009640044 -0.226649389 1.11592841
v -0.009640048 -0.170397013 1.12890983
v -0.009640044 -0.125607669 1.09127736
v -0.009640015 -0.101685569 0.891809464
v -0.009640035 -0.04083076 1.16266072
v -0.009640055 -0.163185179 1.16929615
v -0.009640047 0.00608502747 1.22385514
v -0.009640095 0.004129552 1.36690056
v -0.00964004 0.0570804551 1.16470051
v -0.009640071 0.172886655 1.17506564
v -0.009640059 0.1399402 1.1039449
vt 0.495612562 0.4605372
vt 0.463845462 0.460536659
vt 0.5138583 0.548305333
vt 0.957179666 0.004190862
vt 0.9967584 0.004190862
vt 0.9967584 0.482128143
vt 0.957179666 0.482128143
vt 0.839551 0.004190862
vt 0.8826134 0.004190862
vt 0.8826134 0.482128143
vt 0.839551 0.482128143
vt 0.9198966 0.004190862
vt 0.9198966 0.482128143
vt 0.6175758 0.317154169
vt 0.6451293 0.317154169
vt 0.6726829 0.317154169
vt 0.6451293 0.317154169
vt 0.998876452 0.528686643
vt 0.959847867 0.528686643
vt 0.959847867 0.5188203
vt 0.998876452 0.5188203
vt 0.8817909 0.528686643
vt 0.8427623 0.528686643
vt 0.8427623 0.5188203
vt 0.8817909 0.5188203
vt 0.9208193 0.528686643
vt 0.9208193 0.5188203
vt 0.6682532 0.5017915
vt 0.6181009 0.5017903
vt 0.618101239 0.4605388
vt 0.6682535 0.460539937
vt 0.6682535 0.46054
vt 0.618101239 0.4605388
vt 0.6181009 0.5017903
vt 0.6682532 0.5017915
vt 0.668253839 0.410967
vt 0.618101537 0.4109658
vt 0.618101239 0.4605388
vt 0.6682535 0.46054
vt 0.6682535 0.460539937
vt 0.618101239 0.4605388
vt 0.618101537 0.4109658
vt 0.668253839 0.410967
vt 0.5138583 0.548305333
vt 0.495612562 0.4605372
vt 0.618101239 0.4605388
vt 0.618101239 0.4605388
vt 0.6181009 0.5017903
vt 0.5138583 0.548305333
vt 0.495612562 0.4605372
vt 0.5138583 0.548305333
vt 0.6181009 0.5017903
vt 0.495612562 0.4605372
vt 0.522181 0.3672222
vt 0.495612562 0.4605372
vt 0.618101239 0.4605388
vt 0.618101239 0.4605388
vt 0.618101537 0.4109658
vt 0.522181 0.3672222
vt 0.495612562 0.4605372
vt 0.522181 0.3672222
vt 0.618101537 0.4109658
vt 0.495612562 0.4605372
vt 0.522181 0.3672222
vt 0.495612562 0.4605372
vt 0.6451293 0.236675024
vt 0.591451 0.236675024
vt 0.6174792 0.09689784
vt 0.6451293 0.09689784
vt 0.698807657 0.236675024
vt 0.6451293 0.236675024
vt 0.6451293 0.09689784
vt 0.6727795 0.09689784
vt 0.6451293 0.236675024
vt 0.698807657 0.236675024
vt 0.6727795 0.09689784
vt 0.6451293 0.09689784
vt 0.591451 0.236675024
vt 0.6451293 0.236675024
vt 0.6451293 0.09689784
vt 0.6174792 0.09689784
vt 0.6451293 0.317154169
vt 0.6175758 0.317154169
vt 0.591451 0.236675024
vt 0.6451293 0.236675024
vt 0.59941256 0.00168019533
vt 0.6451293 0.00168019533
vt 0.6451293 0.09689784
vt 0.6174792 0.09689784
vt 0.6726829 0.317154169
vt 0.6451293 0.317154169
vt 0.6451293 0.236675024
vt 0.698807657 0.236675024
vt 0.6451293 0.00168019533
vt 0.690846145 0.00168019533
vt 0.6727795 0.09689784
vt 0.6451293 0.09689784
vt 0.6451293 0.317154169
vt 0.6726829 0.317154169
vt 0.698807657 0.236675024
vt 0.6451293 0.236675024
vt 0.690846145 0.00168019533
vt 0.6451293 0.00168019533
vt 0.6451293 0.09689784
vt 0.6727795 0.09689784
vt 0.6175758 0.317154169
vt 0.6451293 0.317154169
vt 0.6451293 0.236675024
vt 0.591451 0.236675024
vt 0.6451293 0.00168019533
vt 0.59941256 0.00168019533
vt 0.6174792 0.09689784
vt 0.6451293 0.09689784
vt 0.0110741854 0.01476562
vt 0.376153558 0.01476562
vt 0.376153558 0.9907715
vt 0.0110741854 0.9907715
vt 0.4817276 0.577704
vt 0.97046876 0.577704
vt 0.97046876 0.9796973
vt 0.4817276 0.9796973
vt 0.97046876 0.9796973
vt 0.97046876 0.577704
vt 0.4817276 0.577704
vt 0.4817276 0.9796973
vt 0.4860055 0.9788958
vt 0.486005545 0.9995005
vt 0.4045691 0.964573264
vt 0.432065427 0.9047028
vt 0.486005545 0.9047028
vt 0.4860056 0.5522369
vt 0.4320655 0.5522369
vt 0.539945662 0.9047028
vt 0.5399457 0.5522369
vt 0.486005545 0.9047028
vt 0.486005574 0.5522369
vt 0.446886629 0.308377862
vt 0.4860056 0.308377326
vt 0.5251234 0.308377326
vt 0.4860056 0.3083768
vt 0.4860056 0.41046524
vt 0.4321959 0.41046524
vt 0.5398153 0.41046524
vt 0.4860056 0.41046524
vt 0.432065427 0.9047028
vt 0.4325967 0.9321056
vt 0.486005545 0.9342842
vt 0.486005545 0.9342842
vt 0.486005545 0.9047028
vt 0.432065427 0.9047028
vt 0.486005545 0.9047028
vt 0.486005545 0.9342842
vt 0.4325967 0.9321056
vt 0.4325967 0.9321056
vt 0.432065427 0.9047028
vt 0.486005545 0.9047028
vt 0.539945662 0.9047028
vt 0.5394144 0.9321056
vt 0.486005545 0.9342842
vt 0.486005545 0.9342842
vt 0.486005545 0.9047028
vt 0.539945662 0.9047028
vt 0.486005545 0.9047028
vt 0.486005545 0.9342842
vt 0.5394144 0.9321056
vt 0.5394144 0.9321056
vt 0.539945662 0.9047028
vt 0.486005545 0.9047028
vt 0.4045691 0.964573264
vt 0.486005545 0.978718758
vt 0.486005545 0.9342842
vt 0.486005545 0.9342842
vt 0.4325967 0.9321056
vt 0.4045691 0.964573264
vt 0.4860055 0.9788958
vt 0.4045691 0.964573264
vt 0.4325967 0.9321056
vt 0.4325967 0.9321056
vt 0.486005545 0.9342842
vt 0.4860055 0.9788958
vt 0.567442 0.964573264
vt 0.4860055 0.9788958
vt 0.486005545 0.9342842
vt 0.486005545 0.9342842
vt 0.5394144 0.9321056
vt 0.567442 0.964573264
vt 0.486005545 0.978718758
vt 0.567442 0.964573264
vt 0.5394144 0.9321056
vt 0.5394144 0.9321056
vt 0.486005545 0.9342842
vt 0.486005545 0.978718758
vt 0.567442 0.964573264
vt 0.486005545 0.978718758
vt 0.4860056 0.3431604
vt 0.419045061 0.3431604
vt 0.4442143 0.387987971
vt 0.4860056 0.387987971
vt 0.5529661 0.3431604
vt 0.4860056 0.3431604
vt 0.4860056 0.387987971
vt 0.5277969 0.387987971
vt 0.4860056 0.3431604
vt 0.5529661 0.3431604
vt 0.5277969 0.387987971
vt 0.4860056 0.387987971
vt 0.419045061 0.3431604
vt 0.4860056 0.3431604
vt 0.4860056 0.387987971
vt 0.4442143 0.387987971
vt 0.4860056 0.308377326
vt 0.446886629 0.308377862
vt 0.419045061 0.3431604
vt 0.4860056 0.3431604
vt 0.4321959 0.41046524
vt 0.4860056 0.41046524
vt 0.4860056 0.387987971
vt 0.4442143 0.387987971
vt 0.5251234 0.308377326
vt 0.4860056 0.308377326
vt 0.4860056 0.3431604
vt 0.5529661 0.3431604
vt 0.4860056 0.41046524
vt 0.5398153 0.41046524
vt 0.5277969 0.387987971
vt 0.4860056 0.387987971
vt 0.4860056 0.3083768
vt 0.5251234 0.308377326
vt 0.5529661 0.3431604
vt 0.4860056 0.3431604
vt 0.5398153 0.41046524
vt 0.4860056 0.41046524
vt 0.4860056 0.387987971
vt 0.5277969 0.387987971
vt 0.446886629 0.308377862
vt 0.4860056 0.3083768
vt 0.4860056 0.3431604
vt 0.419045061 0.3431604
vt 0.4860056 0.41046524
vt 0.4321959 0.41046524
vt 0.4442143 0.387987971
vt 0.4860056 0.387987971
vt 0.288318932 0.1223467
vt 0.223057538 0.128992915
vt 0.2197108 0.159270167
vt 0.340281427 0.141613841
vt 0.0004995465 0.250840127
vt 0.116688162 0.264784575
vt 0.2079123 0.267513871
vt 0.262562454 0.244861245
vt 0.2869361 0.215861678
vt 0.295218885 0.249323964
vt 0.333029151 0.247613072
vt 0.36803472 0.243738
vt 0.417758077 0.253357828
vt 0.444551855 0.1191656
vt 0.438635617 0.105066776
vt 0.296685755 0.10166961
vt 0.493065119 0.07373631
vt 0.490796447 0.0004995465
vt 0.5522276 0.1040225
vt 0.686580539 0.09871572
vt 0.6483576 0.135128319
vt 0.5380286 0.118121266
vt 0.489515364 0.111332953
vt 0.3686406 0.280378819
vt 0.4322286 0.31434834
vt 0.539324164 0.31434834
vt 0.6045855 0.2848096
vt 0.56663394 0.256797731
vt 0.6201143 0.2438941
vt 0.68992734 0.254590571
vt 0.7048005 0.225127816
vt 0.8806913 0.2678249
vt 0.999500453 0.2552709
vt 0.7585354 0.154100776
vt 0.7887646 0.2722584
vt 0.7358253 0.254899383
vt 0.7225196 0.123066545
vt 0.7697681 0.128342748
vt 0.7225196 0.123066545
vt 0.7697681 0.128342748
vt 0.7585354 0.154100776
vt 0.999500453 0.2552709
vt 0.8806913 0.2678249
vt 0.7887646 0.2722584
vt 0.7358253 0.254899383
vt 0.7048005 0.225127816
vt 0.68992734 0.254590571
vt 0.6201143 0.2438941
vt 0.4322286 0.31434834
vt 0.3686406 0.280378819
vt 0.417758077 0.253357828
vt 0.539324164 0.31434834
vt 0.6045855 0.2848096
vt 0.56663394 0.256797731
vt 0.444551855 0.1191656
vt 0.489515364 0.111333013
vt 0.5380286 0.118121266
vt 0.333029151 0.247613072
vt 0.295218885 0.249323964
vt 0.2869361 0.215861678
vt 0.116688162 0.264784575
vt 0.0004995465 0.250840127
vt 0.2197108 0.159270167
vt 0.2079123 0.267513931
vt 0.262562454 0.2448613
vt 0.223057538 0.128992975
vt 0.288318932 0.1223467
vt 0.340281427 0.141613841
vt 0.36803472 0.243738
vt 0.438635617 0.105066836
vt 0.296685755 0.10166961
vt 0.493065119 0.07373631
vt 0.490796447 0.0004995465
vt 0.5522276 0.1040225
vt 0.686580539 0.09871572
vt 0.6483576 0.135128319
vn -0.7175122 -1.6576179E-07 -0.696545959
vn 0.01987496 -5.46583934E-08 -0.9998025
vn -0.00176847575 -0.702562451 -0.7116199
vn 1.29042007E-07 -1 5.457436E-08
vn 1 9.752176E-08 1.9081293E-08
vn 1 3.0551643E-08 3.045592E-08
vn 4.01039628E-08 -1 5.04805335E-08
vn 1 9.752176E-08 1.9081293E-08
vn -2.26918274E-07 1 -5.317472E-08
vn -7.932302E-08 1 -5.16215266E-08
vn 1 3.0551643E-08 3.045592E-08
vn -1 -2.18740411E-07 -1.77752977E-08
vn -1 -1.321227E-07 -3.13513375E-08
vn 0 0 1
vn 0 0 1
vn 0 0 1
vn 0 0 1
vn 1 1.95621013E-07 4.01071141E-08
vn 3.28638938E-09 -1 5.23094528E-08
vn 4.01039628E-08 -1 5.04805335E-08
vn 1 3.0551643E-08 3.045592E-08
vn -2.14604981E-07 1 -5.5991066E-08
vn 1 1.95621013E-07 4.01071141E-08
vn 1 3.0551643E-08 3.045592E-08
vn -7.932302E-08 1 -5.16215266E-08
vn -1 -1.11134213E-07 -4.32039258E-08
vn -1 -1.321227E-07 -3.13513375E-08
vn 0.7071069 -0.70710665 6.542945E-08
vn 0.7071069 -0.70710665 6.542945E-08
vn 0.7071069 -0.70710665 6.542945E-08
vn 0.7071068 -0.7071067 1.49533381E-08
vn -0.707106769 -0.7071068 -7.84227E-09
vn -0.707106769 -0.7071068 -7.84227E-09
vn -0.707106769 -0.7071068 -7.84227E-09
vn -0.7071067 -0.7071068 2.57530068E-08
vn -0.707106948 0.7071066 -6.542945E-08
vn -0.707106948 0.7071066 -6.542945E-08
vn -0.707106948 0.7071066 -6.542945E-08
vn -0.707106948 0.70710665 -8.334018E-08
vn 0.707106769 0.7071068 -6.054457E-08
vn 0.707106769 0.7071068 -6.054457E-08
vn 0.707106769 0.7071068 -6.054457E-08
vn 0.7071067 0.7071068 -2.57530068E-08
vn 0.8845509 -0.4664436 -2.07636819E-09
vn 0.8845509 -0.4664436 -2.07636819E-09
vn 0.8845509 -0.4664436 -2.07636819E-09
vn 0.6790096 -0.6790094 0.279091656
vn 0.6790096 -0.6790094 0.279091656
vn 0.6790096 -0.6790094 0.279091656
vn -0.8995076 -0.404101431 0.1660968
vn -0.8995076 -0.404101431 0.1660968
vn -0.8995076 -0.404101431 0.1660968
vn -0.707106769 -0.7071068 1.561361E-08
vn -0.884551 0.466443539 -1.05833571E-07
vn -0.884551 0.466443539 -1.05833571E-07
vn -0.884551 0.466443539 -1.05833571E-07
vn -0.679009736 0.6790094 0.279091537
vn -0.679009736 0.6790094 0.279091537
vn -0.679009736 0.6790094 0.279091537
vn 0.8995076 0.404101431 0.166096821
vn 0.8995076 0.404101431 0.166096821
vn 0.8995076 0.404101431 0.166096821
vn 0.707106769 0.7071068 -4.51273756E-08
vn -0.00176879042 0.702562332 -0.71162
vn 0.744219661 1.23367158E-07 -0.667934954
vn 0.6962566 -0.6962561 -0.174511313
vn 0.6962566 -0.6962561 -0.174511313
vn 0.6962566 -0.6962561 -0.174511313
vn 0.6962566 -0.696256161 -0.1745113
vn 0.696256459 0.6962563 -0.174511164
vn 0.696256459 0.6962563 -0.174511164
vn 0.696256459 0.6962563 -0.174511164
vn 0.6962564 0.6962563 -0.174511179
vn -0.6962565 0.6962561 -0.174511567
vn -0.6962565 0.6962561 -0.174511567
vn -0.6962565 0.6962561 -0.174511567
vn -0.6962566 0.6962561 -0.174511567
vn -0.69625634 -0.6962562 -0.174511731
vn -0.69625634 -0.6962562 -0.174511731
vn -0.69625634 -0.6962562 -0.174511731
vn -0.69625634 -0.6962562 -0.174511716
vn 0.6879948 -0.6879941 0.230927125
vn 0.6879948 -0.6879941 0.230927125
vn 0.6879948 -0.6879941 0.230927125
vn 0.687994659 -0.6879942 0.2309272
vn 0.698228955 -0.698228836 0.157964692
vn 0.698228955 -0.698228836 0.157964692
vn 0.698228955 -0.698228836 0.157964692
vn 0.698229134 -0.6982287 0.157964572
vn 0.6879946 0.687994242 0.230927154
vn 0.6879946 0.687994242 0.230927154
vn 0.6879946 0.687994242 0.230927154
vn 0.68799454 0.687994361 0.230927065
vn 0.698228836 0.698228955 0.157964528
vn 0.698228836 0.698228955 0.157964528
vn 0.698228836 0.698228955 0.157964528
vn 0.698228955 0.698228836 0.157964647
vn -0.687994659 0.687994 0.2309276
vn -0.687994659 0.687994 0.2309276
vn -0.687994659 0.687994 0.2309276
vn -0.68799454 0.6879941 0.2309277
vn -0.698228955 0.6982287 0.157965124
vn -0.698228955 0.6982287 0.157965124
vn -0.698228955 0.6982287 0.157965124
vn -0.6982291 0.6982286 0.157965034
vn -0.6879945 -0.6879942 0.230927825
vn -0.6879945 -0.6879942 0.230927825
vn -0.6879945 -0.6879942 0.230927825
vn -0.687994361 -0.6879943 0.230927736
vn -0.6982288 -0.6982289 0.157965139
vn -0.6982288 -0.6982289 0.157965139
vn -0.6982288 -0.6982289 0.157965139
vn -0.6982289 -0.6982288 0.157965228
vn -1 -5.33850759E-08 -6.556707E-08
vn -1 -5.33850724E-08 -6.556707E-08
vn -1 -5.33850653E-08 -6.556707E-08
vn -1 -5.33850653E-08 -6.556707E-08
vn -1 -1.79729582E-07 -1.24709842E-07
vn -1 -1.79729568E-07 -1.24709842E-07
vn -1 -1.79729568E-07 -1.24709842E-07
vn -1 -1.79729582E-07 -1.24709842E-07
vn -1 7.295862E-08 -1.24709644E-07
vn -1 7.296078E-08 -1.24709373E-07
vn -1 7.295875E-08 -1.24709615E-07
vn -1 7.295659E-08 -1.247099E-07
vn -0.6567478 -1.96372326E-07 -0.7541103
vn 0.0180762149 -5.36538369E-09 -0.9998366
vn 0.001323892 -0.696959853 -0.7171089
vn 7.537898E-08 -1 5.54666073E-08
vn 1 9.023638E-08 1.81431243E-08
vn 1 3.271638E-08 0.000202971874
vn 1.03047789E-07 -1 0.000202988493
vn -1.44981783E-07 1 -5.39891971E-08
vn -8.90159058E-08 1 0.000202889074
vn -1 -2.15713271E-07 -1.63376779E-08
vn -1 -1.35097082E-07 0.00020290495
vn 1.502627E-05 -1.50256528E-05 1
vn -1.5025661E-05 -1.50256574E-05 1
vn 1.50262686E-05 -1.50256528E-05 1
vn 4.50787666E-05 -1.502565E-05 1
vn 0.99999994 1.27386585E-07 0.000405954866
vn 3.906704E-08 -0.99999994 0.0004059707
vn -2.57592859E-07 0.99999994 0.0004058599
vn -0.99999994 -1.37360217E-07 0.000405873783
vn 0.7033045 -0.710862637 -0.00608202163
vn 0.7033045 -0.710862637 -0.00608202163
vn 0.7033045 -0.710862637 -0.00608202163
vn 0.7071068 -0.7071067 3.77489577E-08
vn 0.7071068 -0.7071067 3.77489577E-08
vn 0.7071068 -0.7071067 3.77489577E-08
vn -0.703598559 -0.7105977 -4.443379E-08
vn -0.703598559 -0.7105977 -4.443379E-08
vn -0.703598559 -0.7105977 -4.443379E-08
vn -0.7070938 -0.707093954 -0.00604984257
vn -0.7070938 -0.707093954 -0.00604984257
vn -0.7070938 -0.707093954 -0.00604984257
vn -0.703304648 0.7108626 -0.00608217157
vn -0.703304648 0.7108626 -0.00608217157
vn -0.703304648 0.7108626 -0.00608217157
vn -0.7071069 0.70710665 -1.37251291E-07
vn -0.7071069 0.70710665 -1.37251291E-07
vn -0.7071069 0.70710665 -1.37251291E-07
vn 0.703598559 0.7105977 -3.7935326E-08
vn 0.703598559 0.7105977 -3.7935326E-08
vn 0.703598559 0.7105977 -3.7935326E-08
vn 0.7070938 0.7070939 -0.006049889
vn 0.7070938 0.7070939 -0.006049889
vn 0.7070938 0.7070939 -0.006049889
vn 0.8393606 -0.5433629 -0.0151828369
vn 0.8393606 -0.5433629 -0.0151828369
vn 0.8393606 -0.5433629 -0.0151828369
vn 0.6917529 -0.67488575 0.25691843
vn 0.6917529 -0.67488575 0.25691843
vn 0.6917529 -0.67488575 0.25691843
vn -0.8603708 -0.476202071 0.181641579
vn -0.8603708 -0.476202071 0.181641579
vn -0.8603708 -0.476202071 0.181641579
vn -0.7028896 -0.7111637 -0.01387009
vn -0.7028896 -0.7111637 -0.01387009
vn -0.7028896 -0.7111637 -0.01387009
vn -0.840057135 0.5422446 -0.01657697
vn -0.840057135 0.5422446 -0.01657697
vn -0.840057135 0.5422446 -0.01657697
vn -0.691705048 0.674805939 0.257256836
vn -0.691705048 0.674805939 0.257256836
vn -0.691705048 0.674805939 0.257256836
vn 0.8590858 0.478375971 0.182011187
vn 0.8590858 0.478375971 0.182011187
vn 0.8590858 0.478375971 0.182011187
vn 0.7029538 0.711121857 -0.0127154756
vn 0.7029538 0.711121857 -0.0127154756
vn 0.7029538 0.711121857 -0.0127154756
vn 0.00132339518 0.6969598 -0.717108965
vn 0.6823403 1.77327252E-07 -0.7310347
vn 0.6964975 -0.696497142 -0.172577336
vn 0.6964975 -0.696497142 -0.172577336
vn 0.6964975 -0.696497142 -0.172577336
vn 0.6964975 -0.6964972 -0.1725773
vn 0.6964974 0.6964973 -0.172577143
vn 0.6964974 0.6964973 -0.172577143
vn 0.6964974 0.6964973 -0.172577143
vn 0.6964973 0.6964974 -0.172577217
vn -0.6964975 0.6964971 -0.17257762
vn -0.6964975 0.6964971 -0.17257762
vn -0.6964975 0.6964971 -0.17257762
vn -0.69649744 0.6964972 -0.17257756
vn -0.6964973 -0.6964972 -0.172577769
vn -0.6964973 -0.6964972 -0.172577769
vn -0.6964973 -0.6964972 -0.172577769
vn -0.696497262 -0.6964973 -0.172577843
vn 0.686037064 -0.6860236 0.242332056
vn 0.686037064 -0.6860236 0.242332056
vn 0.686037064 -0.6860236 0.242332056
vn 0.686029 -0.686028659 0.242340356
vn 0.697465062 -0.697465 0.164575472
vn 0.697465062 -0.697465 0.164575472
vn 0.697465062 -0.697465 0.164575472
vn 0.6974652 -0.6974649 0.164575264
vn 0.6860289 0.6860288 0.242340311
vn 0.6860289 0.6860288 0.242340311
vn 0.6860289 0.6860288 0.242340311
vn 0.6860289 0.686028838 0.242340252
vn 0.697464943 0.6974651 0.164575309
vn 0.697464943 0.6974651 0.164575309
vn 0.697464943 0.6974651 0.164575309
vn 0.697465 0.697465062 0.1645754
vn -0.6860359 0.6860224 0.242338657
vn -0.6860359 0.6860224 0.242338657
vn -0.6860359 0.6860224 0.242338657
vn -0.6860279 0.686027467 0.242346942
vn -0.697465062 0.6974649 0.164575949
vn -0.697465062 0.6974649 0.164575949
vn -0.697465062 0.6974649 0.164575949
vn -0.6974651 0.6974648 0.1645759
vn -0.686040044 -0.686013758 0.242351383
vn -0.686040044 -0.686013758 0.242351383
vn -0.686040044 -0.686013758 0.242351383
vn -0.686029851 -0.6860298 0.242334813
vn -0.6974649 -0.697465 0.164576054
vn -0.6974649 -0.697465 0.164576054
vn -0.6974649 -0.697465 0.164576054
vn -0.697464943 -0.697465 0.1645761
vn 1 4.707295E-08 1.551069E-07
vn 1 4.69664E-08 1.55194272E-07
vn 1 4.550008E-08 1.56766049E-07
vn 1 -8.268667E-08 1.10445725E-07
vn 1 4.51025919E-08 1.65845535E-07
vn 1 6.022763E-08 1.593284E-07
vn 1 8.640771E-08 1.50020966E-07
vn 1 6.548428E-08 1.42599319E-07
vn 1 2.2112296E-08 1.41156931E-07
vn 1 7.033068E-08 1.5017774E-07
vn 1 6.45991349E-08 1.53599913E-07
vn 1 3.677076E-08 1.53819016E-07
vn 1 2.36935911E-08 1.3139676E-07
vn 1 -8.76801636E-08 7.98428843E-08
vn 1 -1.67093575E-07 2.066096E-07
vn 1 -1.60160525E-07 1.79553766E-07
vn 1 4.59964937E-08 3.363193E-07
vn 1 4.26328164E-08 3.38522E-07
vn 1 2.60225733E-07 1.94325423E-07
vn 1 2.575504E-07 1.77424781E-07
vn 1 1.92698693E-07 1.18567868E-07
vn 1 1.69661746E-07 7.63524E-08
vn 1 4.235065E-08 6.777525E-08
vn 1 6.33011652E-08 1.78622827E-07
vn 1 5.377701E-08 1.77625623E-07
vn 1 3.91846733E-08 1.6737242E-07
vn 1 3.78456519E-08 1.75010953E-07
vn 1 4.881086E-08 1.26393857E-07
vn 1 6.3884805E-08 1.1649216E-07
vn 1 1.82077677E-08 1.41598335E-07
vn 1 5.93621152E-08 1.61501148E-07
vn 1 4.670151E-08 1.646926E-07
vn 1 4.28515143E-08 1.62867607E-07
vn 1 4.645368E-08 1.719577E-07
vn 1 4.104096E-08 1.66052388E-07
vn 1 4.05419733E-08 1.6153426E-07
vn 1 4.32684857E-08 1.60438958E-07
vn 1 9.27449761E-08 1.85778063E-07
vn -1 -4.32684857E-08 -1.60438958E-07
vn -1 -9.27449761E-08 -1.85778063E-07
vn -1 -4.392465E-08 -1.70306038E-07
vn -1 -4.28515143E-08 -1.62867607E-07
vn -1 -5.128564E-08 -1.668656E-07
vn -1 -4.1885265E-08 -1.701832E-07
vn -1 -1.96032257E-08 -1.63616136E-07
vn -1 -5.34821041E-08 -1.61093936E-07
vn -1 -3.25733858E-08 -1.38398022E-07
vn -1 -7.014876E-08 -1.15461845E-07
vn -1 -5.377701E-08 -1.77625623E-07
vn -1 -6.330116E-08 -1.78622827E-07
vn -1 -2.41997462E-08 -1.30654016E-07
vn -1 -3.91846733E-08 -1.6737242E-07
vn -1 -3.784565E-08 -1.75010939E-07
vn -1 -4.881086E-08 -1.26393857E-07
vn -1 7.71951036E-08 -9.10385154E-08
vn -1 -4.0279815E-08 -7.15942861E-08
vn -1 -1.66496449E-07 -8.836448E-08
vn -1 -7.36156736E-08 -1.57103983E-07
vn -1 -9.714557E-08 -1.67356376E-07
vn -1 -1.33192124E-08 -1.36490812E-07
vn -1 -6.50425E-08 -1.57253737E-07
vn -1 -4.51025919E-08 -1.65845535E-07
vn -1 -4.10746175E-08 -1.55356332E-07
vn -1 -9.55384749E-08 -1.451767E-07
vn -1 -6.496707E-08 -1.36914124E-07
vn -1 -4.69664E-08 -1.55194272E-07
vn -1 -3.84127041E-08 -1.622083E-07
vn -1 8.154379E-08 -1.15792311E-07
vn -1 -3.60828452E-08 -1.49067475E-07
vn -1 1.62990531E-07 -2.15272792E-07
vn -1 1.52150974E-07 -1.85328162E-07
vn -1 -4.59576981E-08 -3.299075E-07
vn -1 -4.269609E-08 -3.3202997E-07
vn -1 -2.58203841E-07 -2.00905319E-07
vn -1 -2.496022E-07 -1.763759E-07
vn -1 -1.91711337E-07 -1.2000514E-07
usemtl 03090022_part_0_material_0
f 1/1/1 2/2/2 3/3/3
f 4/4/4 5/5/5 6/6/6
f 6/6/6 7/7/7 4/4/4
f 8/8/8 9/9/9 10/10/10
f 10/10/10 11/11/11 8/8/8
f 9/9/9 12/12/12 13/13/13
f 13/13/13 10/10/10 9/9/9
f 12/12/12 4/4/4 7/7/7
f 7/7/7 13/13/13 12/12/12
f 14/14/14 15/15/15 16/16/16
f 16/16/16 17/17/17 14/14/14
f 18/18/18 19/19/19 20/20/20
f 20/20/20 21/21/21 18/18/18
f 22/22/22 23/23/23 24/24/24
f 24/24/24 25/25/25 22/22/22
f 26/26/26 22/22/22 25/25/25
f 25/25/25 27/27/27 26/26/26
f 19/19/19 26/26/26 27/27/27
f 27/27/27 20/20/20 19/19/19
f 28/28/28 29/29/29 30/30/30
f 30/30/30 31/31/31 28/28/28
f 32/32/32 33/33/33 34/34/34
f 34/34/34 35/35/35 32/32/32
f 36/36/36 37/37/37 38/38/38
f 38/38/38 39/39/39 36/36/36
f 40/40/40 41/41/41 42/42/42
f 42/42/42 43/43/43 40/40/40
f 44/44/44 45/45/45 46/46/46
f 47/47/47 48/48/48 49/49/49
f 50/50/50 51/51/51 52/52/52
f 34/34/34 33/33/33 53/53/53
f 54/54/54 55/55/55 56/56/56
f 57/57/57 58/58/58 59/59/59
f 60/60/60 61/61/61 62/62/62
f 42/42/42 41/41/41 63/63/63
f 1/1/1 64/64/64 2/2/2
f 64/64/64 65/65/65 2/2/2
f 2/2/2 65/65/65 3/3/3
f 66/66/66 67/67/67 68/68/68
f 68/68/68 69/69/69 66/66/66
f 70/70/70 71/71/71 72/72/72
f 72/72/72 73/73/73 70/70/70
f 74/74/74 75/75/75 76/76/76
f 76/76/76 77/77/77 74/74/74
f 78/78/78 79/79/79 80/80/80
f 80/80/80 81/81/81 78/78/78
f 82/82/82 83/83/83 84/84/84
f 84/84/84 85/85/85 82/82/82
f 86/86/86 87/87/87 88/88/88
f 88/88/88 89/89/89 86/86/86
f 90/90/90 91/91/91 92/92/92
f 92/92/92 93/93/93 90/90/90
f 94/94/94 95/95/95 96/96/96
f 96/96/96 97/97/97 94/94/94
f 98/98/98 99/99/99 100/100/100
f 100/100/100 101/101/101 98/98/98
f 102/102/102 103/103/103 104/104/104
f 104/104/104 105/105/105 102/102/102
f 106/106/106 107/107/107 108/108/108
f 108/108/108 109/109/109 106/106/106
f 110/110/110 111/111/111 112/112/112
f 112/112/112 113/113/113 110/110/110
f 114/114/114 115/115/115 116/116/116
f 116/116/116 117/117/117 114/114/114
f 118/118/118 119/119/119 120/120/120
f 120/120/120 121/121/121 118/118/118
f 122/122/122 123/123/123 124/124/124
f 124/124/124 125/125/125 122/122/122
usemtl 03090022_part_0_material_1
f 126/126/126 127/127/127 128/128/128
f 129/129/129 130/130/130 131/131/131
f 131/131/131 132/132/132 129/129/129
f 130/130/130 133/133/133 134/134/134
f 134/134/134 131/131/131 130/130/130
f 133/133/133 135/135/135 136/136/136
f 136/136/136 134/134/134 133/133/133
f 135/135/135 129/129/129 132/132/132
f 132/132/132 136/136/136 135/135/135
f 137/137/137 138/138/138 139/139/139
f 139/139/139 140/140/140 137/137/137
f 141/141/141 142/142/142 132/132/132
f 132/132/132 131/131/131 141/141/141
f 143/143/143 141/141/141 131/131/131
f 131/131/131 134/134/134 143/143/143
f 144/144/144 143/143/143 134/134/134
f 134/134/134 136/136/136 144/144/144
f 142/142/142 144/144/144 136/136/136
f 136/136/136 132/132/132 142/142/142
f 145/145/145 146/146/146 147/147/147
f 148/148/148 149/149/149 150/150/150
f 151/151/151 152/152/152 153/153/153
f 154/154/154 155/155/155 156/156/156
f 157/157/157 158/158/158 159/159/159
f 160/160/160 161/161/161 162/162/162
f 163/163/163 164/164/164 165/165/165
f 166/166/166 167/167/167 168/168/168
f 169/169/169 170/170/170 171/171/171
f 172/172/172 173/173/173 174/174/174
f 175/175/175 176/176/176 177/177/177
f 178/178/178 179/179/179 180/180/180
f 181/181/181 182/182/182 183/183/183
f 184/184/184 185/185/185 186/186/186
f 187/187/187 188/188/188 189/189/189
f 190/190/190 191/191/191 192/192/192
f 126/126/126 193/193/193 127/127/127
f 193/193/193 194/194/194 127/127/127
f 127/127/127 194/194/194 128/128/128
f 195/195/195 196/196/196 197/197/197
f 197/197/197 198/198/198 195/195/195
f 199/199/199 200/200/200 201/201/201
f 201/201/201 202/202/202 199/199/199
f 203/203/203 204/204/204 205/205/205
f 205/205/205 206/206/206 203/203/203
f 207/207/207 208/208/208 209/209/209
f 209/209/209 210/210/210 207/207/207
f 211/211/211 212/212/212 213/213/213
f 213/213/213 214/214/214 211/211/211
f 215/215/215 216/216/216 217/217/217
f 217/217/217 218/218/218 215/215/215
f 219/219/219 220/220/220 221/221/221
f 221/221/221 222/222/222 219/219/219
f 223/223/223 224/224/224 225/225/225
f 225/225/225 226/226/226 223/223/223
f 227/227/227 228/228/228 229/229/229
f 229/229/229 230/230/230 227/227/227
f 231/231/231 232/232/232 233/233/233
f 233/233/233 234/234/234 231/231/231
f 235/235/235 236/236/236 237/237/237
f 237/237/237 238/238/238 235/235/235
f 239/239/239 240/240/240 241/241/241
f 241/241/241 242/242/242 239/239/239
f 243/243/243 244/244/244 245/245/245
f 246/246/246 243/243/243 245/245/245
f 245/245/245 247/247/247 248/248/248
f 245/245/245 248/248/248 249/249/249
f 245/245/245 249/249/249 250/250/250
f 245/245/245 250/250/250 251/251/251
f 246/246/246 245/245/245 251/251/251
f 251/251/251 252/252/252 253/253/253
f 246/246/246 251/251/251 253/253/253
f 246/246/246 253/253/253 254/254/254
f 246/246/246 254/254/254 255/255/255
f 246/246/246 255/255/255 256/256/256
f 246/246/246 256/256/256 257/257/257
f 258/258/258 246/246/246 257/257/257
f 258/258/258 257/257/257 259/259/259
f 260/260/260 258/258/258 259/259/259
f 260/260/260 259/259/259 261/261/261
f 262/262/262 260/260/260 261/261/261
f 263/263/263 262/262/262 261/261/261
f 263/263/263 261/261/261 264/264/264
f 265/265/265 256/256/256 255/255/255
f 264/264/264 265/265/265 255/255/255
f 255/255/255 266/266/266 267/267/267
f 255/255/255 267/267/267 268/268/268
f 255/255/255 268/268/268 269/269/269
f 255/255/255 269/269/269 270/270/270
f 264/264/264 255/255/255 270/270/270
f 264/264/264 270/270/270 271/271/271
f 263/263/263 264/264/264 271/271/271
f 271/271/271 272/272/272 273/273/273
f 263/263/263 271/271/271 273/273/273
f 274/274/274 275/275/275 276/276/276
f 277/277/277 274/274/274 276/276/276
f 278/278/278 277/277/277 276/276/276
f 273/273/273 278/278/278 276/276/276
f 263/263/263 273/273/273 276/276/276
f 279/279/279 263/263/263 276/276/276
f 279/279/279 276/276/276 280/280/280
f 281/281/281 282/282/282 283/283/283
f 283/283/283 284/284/284 285/285/285
f 283/283/283 285/285/285 286/286/286
f 283/283/283 286/286/286 287/287/287
f 283/283/283 287/287/287 288/288/288
f 288/288/288 289/289/289 290/290/290
f 291/291/291 292/292/292 293/293/293
f 294/294/294 291/291/291 293/293/293
f 295/295/295 294/294/294 293/293/293
f 296/296/296 295/295/295 293/293/293
f 293/293/293 297/297/297 298/298/298
f 293/293/293 298/298/298 299/299/299
f 296/296/296 293/293/293 299/299/299
f 290/290/290 296/296/296 299/299/299
f 300/300/300 301/301/301 302/302/302
f 303/303/303 304/304/304 305/305/305
f 306/306/306 303/303/303 305/305/305
f 307/307/307 306/306/306 305/305/305
f 302/302/302 307/307/307 305/305/305
f 305/305/305 308/308/308 309/309/309
f 305/305/305 309/309/309 310/310/310
f 302/302/302 305/305/305 310/310/310
f 300/300/300 302/302/302 310/310/310
f 311/311/311 300/300/300 310/310/310
f 293/293/293 311/311/311 310/310/310
f 297/297/297 293/293/293 310/310/310
f 312/312/312 297/297/297 310/310/310
f 312/312/312 310/310/310 313/313/313
f 314/314/314 312/312/312 313/313/313
f 314/314/314 313/313/313 315/315/315
f 316/316/316 314/314/314 315/315/315
f 316/316/316 315/315/315 317/317/317
f 316/316/316 317/317/317 318/318/318
f 299/299/299 316/316/316 318/318/318
f 290/290/290 299/299/299 318/318/318
f 288/288/288 290/290/290 318/318/318
f 283/283/283 288/288/288 318/318/318
f 281/281/281 283/283/283 318/318/318
