mtllib 03090016.mtl
o 03090016_part_0
v -1.18845769E-08 -0.03555919 -0.7477201
v 0.0355592035 3.45788145E-08 -0.7477201
v 0.0355592 4.43333548E-08 -0.564999759
v -1.74064922E-08 -0.0355591774 -0.564999759
v -1.87899261E-08 0.0355592519 -0.7477201
v -2.431184E-08 0.03555926 -0.564999759
v -0.03555923 2.456478E-08 -0.7477201
v -0.0355592333 3.431932E-08 -0.564999759
v 0.0355592 4.43333548E-08 -0.564999759
v 0.0355591364 1.05530518E-07 0.5813349
v -8.59405347E-08 -0.0355591178 0.5813349
v -1.74064922E-08 -0.0355591774 -0.564999759
v -2.431184E-08 0.03555926 -0.564999759
v -9.284588E-08 0.0355593227 0.5813349
v -0.0355592333 3.431932E-08 -0.564999759
v -0.0355592966 9.55164836E-08 0.5813349
v 0.0307384413 -0.0307384282 0.7040985
v 0.041147273 1.04898895E-07 0.7040985
v 0.0727741942 1.22489212E-07 0.890902758
v 0.05397475 -0.0539747365 0.890902758
v 0.03073844 0.03073864 0.7040985
v -9.75604948E-08 0.0411474742 0.7040985
v -1.06906342E-07 0.07277442 0.890902758
v 0.05397475 0.05397498 0.890902758
v -0.0307386313 0.030738635 0.7040985
v -0.04114746 1.03470256E-07 0.7040985
v -0.0727743953 1.11383208E-07 0.89090246
v -0.0539749674 0.0539749674 0.8909026
v -0.0307386182 -0.0307384245 0.7040985
v -8.723783E-08 -0.04114726 0.7040985
v -9.580036E-08 -0.07277418 0.890902758
v -0.0539749451 -0.05397474 0.8909026
v 0.06340493 1.38322434E-07 1.06861413
v 0.0463604629 -0.04636044 1.06861413
v -1.15933595E-07 0.06197568 1.06861413
v 0.0463604666 0.0463607162 1.06861413
v -0.06340515 1.24706389E-07 1.06861389
v -0.0463606939 0.0463606976 1.06861413
v -1.09316453E-07 -0.06197541 1.06861389
v -0.04636068 -0.046360448 1.06861389
v -1.87899261E-08 0.0355592519 -0.7477201
v 0.0355592035 3.45788145E-08 -0.7477201
v -1.18845769E-08 -0.03555919 -0.7477201
v -0.03555923 2.456478E-08 -0.7477201
v 0.0463604666 0.0463607162 1.06861413
v -1.15168618E-07 1.37235659E-07 1.16802883
v -1.15168618E-07 1.37235659E-07 1.16802883
v -0.04636068 -0.046360448 1.06861389
v 0.0355591364 1.05530518E-07 0.5813349
v 0.0307384413 -0.0307384282 0.7040985
v -8.59405347E-08 -0.0355591178 0.5813349
v -9.284588E-08 0.0355593227 0.5813349
v 0.03073844 0.03073864 0.7040985
v -0.0355592966 9.55164836E-08 0.5813349
v -0.0307386313 0.030738635 0.7040985
v -0.0307386182 -0.0307384245 0.7040985
v -0.0355592966 9.55164836E-08 0.5813349
v -9.284588E-08 0.0355593227 0.5813349
v 0.0355591364 1.05530518E-07 0.5813349
v -8.59405347E-08 -0.0355591178 0.5813349
v 0.05397475 0.05397498 0.890902758
v -0.0539749451 -0.05397474 0.8909026
v -1.35568911E-07 -0.1359755 1.14849615
v -1.31267072E-07 -0.0375754423 1.00276864
v -1.20204817E-07 -0.0375754535 0.8340519
v -1.03619421E-07 -0.34825018 0.8340519
v -1.242366E-07 -0.348250151 1.14849615
v -1.24216669E-07 0.03757386 0.834051847
v -1.35278924E-07 0.03757387 1.00276864
v -1.50086947E-07 0.13597393 1.14849615
v -1.61419251E-07 0.348248571 1.14849615
v -1.40802058E-07 0.348248541 0.834051847
v -1.24677356E-07 -0.12947014 0.9770895
v -1.38191851E-07 -0.290125579 1.31401324
v -1.58311764E-07 -0.290125549 1.62087309
v -1.31013508E-07 -0.0107823648 0.9770895
v -1.73224521E-07 -0.01078233 1.62087309
v -1.32164658E-07 0.0107807871 0.9770895
v -1.74375671E-07 0.0107808216 1.62087309
v -1.89288428E-07 0.290124059 1.62087309
v -1.6916853E-07 0.290124029 1.31401312
v -1.38500823E-07 0.129468575 0.9770895
v -6.297811E-09 -8.91152752E-07 -0.9337699
v 1.27920963E-09 -0.1419314 -0.9337706
v -1.08985709E-08 -0.141931385 -0.7480405
v -1.84755429E-08 -8.812376E-07 -0.7480405
v -2.6052513E-08 0.141929626 -0.7480405
v -1.38747334E-08 0.141929626 -0.9337706
v -0.117758371 0.06798915 1.14849615
v -0.0325414129 0.0187891163 1.00276864
v -0.0325414129 0.0187891033 0.834051847
v -0.301593661 0.174126431 0.834051847
v -0.301593661 0.174126446 1.14849615
v 0.03253981 -0.0187855419 0.8340519
v 0.03253981 -0.0187855288 1.00276864
v 0.117756769 -0.0679855347 1.14849615
v 0.301592022 -0.17412281 1.14849615
v 0.301592022 -0.174122855 0.8340519
v -0.11212457 0.0647364557 0.9770895
v -0.2512563 0.145064175 1.31401312
v -0.2512563 0.1450642 1.62087309
v -0.00933792 0.005392579 0.9770895
v -0.00933792 0.00539263757 1.62087309
v 0.00933632 -0.005388994 0.9770895
v 0.00933632 -0.00538893556 1.62087309
v 0.251254678 -0.145060509 1.62087309
v 0.251254678 -0.145060539 1.31401324
v 0.112122975 -0.0647328645 0.9770895
v 0.117758326 0.06798902 1.14849615
v 0.0325413831 0.018788984 1.00276864
v 0.0325413868 0.0187889822 0.834051847
v 0.301593572 0.174126372 0.834051847
v 0.301593572 0.174126387 1.14849615
v -0.0325398259 -0.0187856834 0.8340519
v -0.0325398259 -0.01878568 1.00276864
v -0.117756762 -0.06798571 1.14849615
v -0.301592 -0.174123064 1.14849615
v -0.301592 -0.174123064 0.8340519
v 0.112124532 0.0647363439 0.9770895
v 0.2512562 0.145064086 1.31401312
v 0.251256227 0.145064086 1.62087309
v 0.009337898 0.005392441 0.9770895
v 0.009337898 0.005392451 1.62087309
v -0.009336338 -0.005389137 0.9770895
v -0.009336337 -0.005389127 1.62087309
v -0.251254648 -0.145060778 1.62087309
v -0.251254648 -0.145060763 1.31401324
v -0.112122968 -0.06473304 0.9770895
v 9.239438E-09 0.03391835 -0.7489279
v -0.0339184 -6.94594E-08 -0.7489279
v -0.0339183956 -8.9537906E-08 -0.5746388
v 1.45065551E-08 0.0339183323 -0.5746388
v 2.001964E-08 -0.0339184776 -0.7489279
v 2.52867576E-08 -0.0339185 -0.5746388
v 0.0339184254 -5.57139543E-08 -0.7489279
v 0.03391843 -7.57924639E-08 -0.5746388
v -0.0339183956 -8.9537906E-08 -0.5746388
v -0.033918336 -2.15504656E-07 0.5188006
v 7.98782338E-08 0.0339182056 0.5188006
v 1.45065551E-08 0.0339183323 -0.5746388
v 2.52867576E-08 -0.0339185 -0.5746388
v 9.065844E-08 -0.0339186266 0.5188006
v 0.03391843 -7.57924639E-08 -0.5746388
v 0.033918485 -2.01759221E-07 0.5188006
v -0.0293200817 0.0293199476 0.6358996
v -0.03924862 -2.22470419E-07 0.6358996
v -0.06941618 -2.521288E-07 0.8140842
v -0.0514842048 0.0514840521 0.8140842
v -0.029320078 -0.0293203928 0.6358996
v 9.548501E-08 -0.0392489322 0.6358996
v 1.06264487E-07 -0.06941653 0.8140842
v -0.0514841974 -0.05148455 0.8140842
v 0.0293202642 -0.0293203834 0.6358996
v 0.039248798 -2.16255216E-07 0.6358996
v 0.069416374 -2.32953013E-07 0.8140839
v 0.05148441 -0.0514845327 0.814084
v 0.0293202475 0.0293199476 0.6358996
v 8.078617E-08 0.03924849 0.6358996
v 8.708872E-08 0.06941604 0.8140842
v 0.0514843836 0.0514840633 0.814084053
v -0.0604792424 -2.771577E-07 0.983595431
v -0.04422126 0.044221092 0.983595431
v 1.14238453E-07 -0.0591160841 0.983595431
v -0.04422126 -0.0442216434 0.983595431
v 0.0604794547 -2.566926E-07 0.983595133
v 0.04422148 -0.04422162 0.983595431
v 1.00617889E-07 0.059115544 0.983595133
v 0.04422146 0.0442211032 0.983595133
v 2.001964E-08 -0.0339184776 -0.7489279
v -0.0339184 -6.94594E-08 -0.7489279
v 9.239438E-09 0.03391835 -0.7489279
v 0.0339184254 -5.57139543E-08 -0.7489279
v -0.04422126 -0.0442216434 0.983595431
v 1.0985439E-07 -2.78244386E-07 1.0784229
v 1.0985439E-07 -2.78244386E-07 1.0784229
v 0.04422146 0.0442211032 0.983595133
v -0.033918336 -2.15504656E-07 0.5188006
v -0.0293200817 0.0293199476 0.6358996
v 7.98782338E-08 0.0339182056 0.5188006
v 9.065844E-08 -0.0339186266 0.5188006
v -0.029320078 -0.0293203928 0.6358996
v 0.033918485 -2.01759221E-07 0.5188006
v 0.0293202642 -0.0293203834 0.6358996
v 0.0293202475 0.0293199476 0.6358996
v 0.033918485 -2.01759221E-07 0.5188006
v 9.065844E-08 -0.0339186266 0.5188006
v -0.033918336 -2.15504656E-07 0.5188006
v 7.98782338E-08 0.0339182056 0.5188006
v -0.0514841974 -0.05148455 0.8140842
v 0.0514843836 0.0514840633 0.814084053
v 1.21295585E-07 0.129701048 1.05979156
v 1.22994379E-07 0.03584147 0.9207882
v 1.12442571E-07 0.0358414873 0.7598566
v 7.83036E-08 0.3321808 0.7598566
v 9.796945E-08 0.332180738 1.05979156
v 1.20700477E-07 -0.03584022 0.7598566
v 1.31252278E-07 -0.03584024 0.9207882
v 1.51179165E-07 -0.129699841 1.05979145
v 1.74505288E-07 -0.332179517 1.05979145
v 1.54839441E-07 -0.3321795 0.7598565
v 1.11290184E-07 0.123495884 0.896294057
v 1.14708065E-07 0.2767382 1.21767116
v 1.33899576E-07 0.276738137 1.51037157
v 1.24332374E-07 0.0102846995 0.896294
v 1.64595647E-07 0.0102846287 1.51037157
v 1.26701877E-07 -0.0102834664 0.896294
v 1.66965137E-07 -0.0102835372 1.51037157
v 1.97661208E-07 -0.276737064 1.51037157
v 1.78469691E-07 -0.276737034 1.217671
v 1.3974406E-07 -0.123494647 0.896294
v 6.00715078E-09 8.26623364E-07 -0.9263928
v -9.58915E-09 0.13538225 -0.926393449
v 2.02671213E-09 0.135382235 -0.7492335
v 1.76229662E-08 8.06214246E-07 -0.749233544
v 3.321922E-08 -0.135380626 -0.749233544
v 2.16033573E-08 -0.1353806 -0.9263935
v 5.734183E-09 0.05024828 -0.7604749
v -0.0502483323 -7.1431856E-08 -0.7604749
v -0.0539183952 -9.289231E-08 -0.5746388
v 1.18234036E-08 0.05391833 -0.5746388
v 2.3524894E-08 -0.0502484068 -0.7604749
v 3.0116432E-08 -0.0539185 -0.5746388
v 0.05024836 -5.241076E-08 -0.7604749
v 0.05391843 -7.05498948E-08 -0.5746388
v -0.053833738 -2.18959642E-07 0.516963
v 7.731406E-08 0.0538336076 0.516963
v 9.66521938E-08 -0.05383403 0.516963
v 0.053833887 -1.97981052E-07 0.516963
v -0.04336034 0.0433602072 0.6335033
v -0.0591321923 -2.23411774E-07 0.6337447
v -0.0893845558 -2.49726043E-07 0.812959969
v -0.06560492 0.06560477 0.8129838
v -0.0433603376 -0.04336065 0.6335033
v 9.914929E-08 -0.0591325052 0.6337447
v 1.08334348E-07 -0.089389205 0.813039064
v -0.06560491 -0.06560527 0.812983751
v 0.0433605276 -0.04336064 0.6335033
v 0.05913237 -2.09409407E-07 0.6337447
v 0.08938475 -2.266274E-07 0.8129597
v 0.06560513 -0.0656052455 0.8129836
v 0.0433605053 0.04336021 0.6335033
v 8.019197E-08 0.0591320619 0.6337447
v 8.108613E-08 0.08938871 0.813039064
v 0.0656051 0.0656047761 0.8129837
v -0.07961912 -2.76947048E-07 0.9893976
v -0.0575478636 0.0579026341 0.989529848
v 1.18761932E-07 -0.07825301 0.9894073
v -0.05754788 -0.0579031743 0.989529848
v 0.07961934 -2.37316812E-07 0.9893973
v 0.05754811 -0.0579031371 0.989529848
v 1.15049943E-07 0.07825247 0.989407
v 0.0575480759 0.05790264 0.9895295
v 2.3524894E-08 -0.0502484068 -0.7604749
v -0.0502483323 -7.1431856E-08 -0.7604749
v 5.734183E-09 0.05024828 -0.7604749
v 0.05024836 -5.241076E-08 -0.7604749
v 1.21875729E-07 -2.68943637E-07 1.09842288
v 0.00999998 -0.0005675484 -0.7037662
v 0.0100000007 -0.157064527 -0.7867024
v 0.0100000147 -0.10369689 -0.889110565
v 0.0100000193 0.00520193158 -0.9453629
v 0.0100000044 0.107610084 -0.8826199
v 0.00999998953 0.160256535 -0.8018473
v -0.0100000193 -0.000567549258 -0.7037662
v -0.01000001 0.160256535 -0.8018473
v -0.009999995 0.107610084 -0.8826199
v -0.00999998 0.00520193065 -0.9453629
v -0.009999985 -0.10369689 -0.889110565
v -0.009999999 -0.157064527 -0.7867024
v 0.009999969 -0.150862545 1.42963445
v 0.009999973 -0.214096859 1.42759466
v 0.009999983 -0.238574669 1.36843991
v 0.009999999 -0.07538932 1.27256858
v 0.009999976 -0.00195590872 1.39291775
v 0.0100000268 -0.04275224 1.08694518
v 0.0100000184 -0.0876282156 1.1522193
v 0.0100000091 -0.142703265 1.00331271
v 0.0100000156 -0.09170784 0.950277448
v 0.0100000212 -0.0039957203 1.1155026
v 0.010000024 0.0368006229 1.08490539
v 0.009999988 -0.2916099 1.35212135
v 0.0100000119 -0.279371023 1.201175
v 0.0100000314 -0.224295944 1.066547
v 0.0100000417 -0.2630525 1.01759148
v 0.0100000221 -0.1692209 0.933958948
v 0.0100000463 -0.312008083 0.999233067
v 0.0100000557 -0.318127543 0.942118168
v 0.010000064 -0.3487248 0.899282038
v 0.0100000277 -0.14066343 0.891122758
v 0.0100000808 -0.297729373 0.7850523
v 0.0100000845 -0.16922088 0.7279374
v 0.010000024 -0.09986711 0.9013219
v 0.01000002 0.2530212 1.0094322
v 0.0100000119 0.220384166 1.06858683
v 0.0100000137 0.1653091 0.968635857
v 0.0100000184 0.31421572 1.00127292
v 0.0100000277 0.31421572 0.946197867
v 0.0100000221 0.1755082 0.911520958
v 0.0100000305 0.363171339 0.9135608
v 0.0100000594 0.27749902 0.7626143
v 0.0100000277 0.130632222 0.8870432
v 0.0100000706 0.116353489 0.7360967
v 0.0100000268 0.0857562348 0.9074413
v 0.0100000668 8.39261338E-05 0.7911717
v 0.0100000193 0.08983588 0.9543571
v 0.0100000072 0.136751652 1.01351178
v 0.01000001 0.079636775 1.16037869
v 0.009999987 0.29177773 1.20321476
v 0.009999993 0.07555714 1.26236951
v 0.009999962 0.2897379 1.35824084
v 0.009999963 0.218344346 1.36436033
v 0.009999954 0.187747076 1.42963445
v 0.009999957 0.140831292 1.42555487
v 0.009999943 0.0735173151 1.53162539
v 0.009999954 0.00416353764 1.47859
v 0.009999949 -0.0733495057 1.53774476
v -0.0100000305 -0.15086256 1.42963445
v -0.010000051 -0.07334951 1.53774476
v -0.0100000454 0.00416353671 1.47859
v -0.0100000566 0.07351731 1.53162539
v -0.0100000426 0.140831277 1.42555487
v -0.009999986 0.1653091 0.968635857
v -0.009999988 0.220384166 1.06858683
v -0.009999979 0.2530212 1.0094322
v -0.009999981 0.31421572 1.00127292
v -0.009999972 0.31421572 0.946197867
v -0.00999997649 0.175508186 0.911520958
v -0.009999969 0.363171339 0.9135608
v -0.00999994 0.27749902 0.7626143
v -0.009999971 0.130632222 0.8870432
v -0.009999929 0.116353489 0.7360967
v -0.009999972 0.0857562348 0.9074413
v -0.009999933 8.392525E-05 0.7911717
v -0.009999915 -0.16922088 0.7279374
v -0.0100000119 -0.2916099 1.35212135
v -0.0100000165 -0.238574669 1.36843991
v -0.0100000007 -0.07538932 1.27256858
v -0.009999988 -0.279371023 1.201175
v -0.00999998 -0.0876282156 1.1522193
v -0.009999968 -0.224295944 1.066547
v -0.00999999 -0.142703265 1.00331271
v -0.009999958 -0.2630525 1.01759148
v -0.009999978 -0.1692209 0.933958948
v -0.009999953 -0.312008083 0.999233067
v -0.009999944 -0.318127543 0.942118168
v -0.00999993552 -0.3487248 0.899282038
v -0.009999973 -0.14066343 0.891122758
v -0.009999919 -0.297729373 0.7850523
v -0.00999997649 -0.09986711 0.9013219
v -0.009999985 -0.09170784 0.950277448
v -0.00999998 0.08983588 0.9543571
v -0.009999991 0.136751652 1.01351178
v -0.009999972 -0.04275224 1.08694518
v -0.009999978 -0.00399572076 1.1155026
v -0.009999975 0.0368006229 1.08490539
v -0.009999989 0.079636775 1.16037869
v -0.0100000128 0.29177773 1.20321476
v -0.0100000054 0.07555714 1.26236951
v -0.010000038 0.2897379 1.35824084
v -0.0100000361 0.218344346 1.36436033
v -0.0100000231 -0.00195590965 1.39291775
v -0.0100000454 0.187747061 1.42963445
v -0.0100000268 -0.214096874 1.42759466
v -0.125570446 -0.0842114538 1.42963445
v -0.180302754 -0.115880892 1.42759466
v -0.201489463 -0.128140047 1.36843991
v -0.0602447726 -0.0464124642 1.27256858
v 0.0033153235 -0.009635026 1.39291775
v -0.0319958143 -0.0300669651 1.08694518
v -0.07083811 -0.05254205 1.1522193
v -0.11850819 -0.0801251 1.00331271
v -0.07436922 -0.05458523 0.950277448
v 0.00154979248 -0.0106566576 1.1155026
v 0.03686097 0.009775241 1.08490539
v -0.247393981 -0.154701516 1.35212135
v -0.236800626 -0.148571968 1.201175
v -0.189130515 -0.12098892 1.066547
v -0.222676143 -0.140399247 1.01759148
v -0.141460449 -0.09340585 0.933958948
v -0.265049547 -0.164917514 0.999233067
v -0.270346224 -0.16798231 0.942118168
v -0.2968296 -0.183306247 0.899282038
v -0.1167426 -0.0791035146 0.891122758
v -0.2526906 -0.157766387 0.7850523
v -0.1414604 -0.0934058949 0.7279374
v -0.0814314559 -0.05867162 0.9013219
v 0.22401017 0.118064307 1.0094322
v 0.195761248 0.101718806 1.06858683
v 0.148091167 0.0741357356 0.968635857
v 0.2769769 0.148712158 1.00127292
v 0.2769769 0.148712143 0.946197867
v 0.156918973 0.07924371 0.911520958
v 0.319350332 0.173230425 0.9135608
v 0.2451969 0.13032341 0.7626143
v 0.118076682 0.0567686148 0.8870432
v 0.105717778 0.049617406 0.7360967
v 0.07923438 0.03429352 0.9074413
v 0.00508094346 -0.008613501 0.7911717
v 0.0827655047 0.0363367237 0.9543571
v 0.12337333 0.0598334074 1.01351178
v 0.0739376843 0.0312287454 1.16037869
v 0.257555753 0.137474641 1.20321476
v 0.07040656 0.02918557 1.26236951
v 0.255790174 0.136453062 1.35824084
v 0.193995655 0.100697249 1.36436033
v 0.167512268 0.08537333 1.42963445
v 0.126904428 0.0618766434 1.42555487
v 0.06864097 0.0281640142 1.53162539
v 0.008611985 -0.00657022465 1.47859
v -0.058479242 -0.0453908257 1.53774476
v -0.135587 -0.06690051 1.42963445
v -0.06849578 -0.02807988 1.53774476
v -0.00140455156 0.0107407253 1.47859
v 0.0586244278 0.04547496 1.53162539
v 0.116887875 0.07918759 1.42555487
v 0.138074622 0.09144669 0.968635857
v 0.185744718 0.119029753 1.06858683
v 0.213993624 0.135375261 1.0094322
v 0.266960382 0.1660231 1.00127292
v 0.266960382 0.16602309 0.946197867
v 0.146902427 0.09655465 0.911520958
v 0.3093338 0.190541387 0.9135608
v 0.235180363 0.147634357 0.7626143
v 0.108060144 0.0740795657 0.8870432
v 0.09570125 0.06692836 0.7360967
v 0.0692178458 0.05160447 0.9074413
v -0.004935593 0.008697449 0.7911717
v -0.151476935 -0.07609495 0.7279374
v -0.257410526 -0.137390569 1.35212135
v -0.211506 -0.110829093 1.36843991
v -0.07026131 -0.0291015133 1.27256858
v -0.246817157 -0.131261021 1.201175
v -0.08085465 -0.0352311 1.1522193
v -0.199147061 -0.103677966 1.066547
v -0.128524721 -0.06281415 1.00331271
v -0.232692689 -0.123088293 1.01759148
v -0.151476979 -0.0760948956 0.933958948
v -0.275066078 -0.147606567 0.999233067
v -0.280362755 -0.150671363 0.942118168
v -0.306846142 -0.1659953 0.899282038
v -0.126759142 -0.06179256 0.891122758
v -0.262707144 -0.14045544 0.7850523
v -0.09144799 -0.04136067 0.9013219
v -0.08438575 -0.03727428 0.950277448
v 0.07274897 0.0536476746 0.9543571
v 0.113356791 0.0771443546 1.01351178
v -0.04201235 -0.0127560152 1.08694518
v -0.008466743 0.006654293 1.1155026
v 0.0268444344 0.02708619 1.08490539
v 0.06392115 0.0485396944 1.16037869
v 0.247539222 0.154785588 1.20321476
v 0.06039003 0.04649652 1.26236951
v 0.245773643 0.153764009 1.35824084
v 0.183979124 0.118008204 1.36436033
v -0.006701212 0.00767592341 1.39291775
v 0.157495722 0.102684267 1.42963445
v -0.1903193 -0.09856995 1.42759466
v -0.13557376 0.066927284 1.42963445
v -0.190299824 0.09860751 1.42759466
v -0.211484119 0.110870823 1.36843991
v -0.07025557 0.0291153677 1.27256858
v -0.00670270063 -0.00767456135 1.39291775
v -0.04200986 0.0127642509 1.08694518
v -0.08084772 0.0352470055 1.1522193
v -0.128512338 0.06283947 1.00331271
v -0.08437842 0.03729089 0.950277448
v -0.008468076 -0.00665266067 1.1155026
v 0.0268390682 -0.0270915255 1.08490539
v -0.2573834 0.137441337 1.35212135
v -0.246791288 0.131309658 1.201175
v -0.199126646 0.103717178 1.066547
v -0.232668459 0.1231341 1.01759148
v -0.151462 0.07612473 0.933958948
v -0.27503702 0.147660717 0.999233067
v -0.2803331 0.150726542 0.942118168
v -0.306813478 0.1660557 0.899282038
v -0.126746982 0.0618175045 0.891122758
v -0.262679547 0.140507087 0.7850523
v -0.151462018 0.07612466 0.7279374
v -0.09143986 0.04137866 0.9013219
v 0.2139669 -0.135417476 1.0094322
v 0.185721219 -0.119066395 1.06858683
v 0.138056576 -0.09147394 0.968635857
v 0.26692763 -0.166075766 1.00127292
v 0.26692763 -0.166075781 0.946197867
v 0.146883368 -0.0965836644 0.911520958
v 0.3092962 -0.190602422 0.9135608
v 0.235151187 -0.147680834 0.7626143
v 0.108045511 -0.07410092 0.8870432
v 0.09568798 -0.06694735 0.7360967
v 0.06920764 -0.0516181625 0.9074413
v -0.004937374 -0.008696592 0.7911717
v 0.07273837 -0.05366205 0.9543571
v 0.11334157 -0.07716672 1.01351178
v 0.06391157 -0.0485523157 1.16037869
v 0.2475087 -0.154834375 1.20321476
v 0.0603808649 -0.0465084165 1.26236951
v 0.245743364 -0.153812408 1.35824084
v 0.1839559 -0.118044414 1.36436033
v 0.157475531 -0.102715246 1.42963445
v 0.116872318 -0.0792105645 1.42555487
v 0.0586155243 -0.0454864241 1.53162539
v -0.0014066227 -0.01074037 1.47859
v -0.0684901848 0.02809347 1.53774476
v -0.125553831 0.0842362642 1.42963445
v -0.0584702455 0.04540245 1.53774476
v 0.008613325 0.006568606 1.47859
v 0.06863546 -0.0281774458 1.53162539
v 0.126892254 -0.06190158 1.42555487
v 0.148076519 -0.07416496 0.968635857
v 0.195741177 -0.101757422 1.06858683
v 0.223986864 -0.1181085 1.0094322
v 0.2769476 -0.1487668 1.00127292
v 0.276947558 -0.1487668 0.946197867
v 0.156903312 -0.0792746842 0.911520958
v 0.319316149 -0.173293442 0.9135608
v 0.24517113 -0.130371854 0.7626143
v 0.118065454 -0.0567919426 0.8870432
v 0.105707921 -0.0496383719 0.7360967
v 0.07922759 -0.03430919 0.9074413
v 0.00508257374 0.008612383 0.7911717
v -0.141442075 0.09343364 0.7279374
v -0.247363463 0.154750317 1.35212135
v -0.201464176 0.1281798 1.36843991
v -0.06023562 0.0464243442 1.27256858
v -0.236771345 0.148618639 1.201175
v -0.07082777 0.052555982 1.1522193
v -0.189106688 0.121026151 1.066547
v -0.118492395 0.08014845 1.00331271
v -0.2226485 0.140443072 1.01759148
v -0.141442046 0.0934337 0.933958948
v -0.265017062 0.1649697 0.999233067
v -0.270313144 0.168035522 0.942118168
v -0.29679352 0.18336466 0.899282038
v -0.116727032 0.07912648 0.891122758
v -0.2526596 0.157816067 0.7850523
v -0.08141991 0.0586876348 0.9013219
v -0.07435847 0.0545998663 0.950277448
v 0.0827583149 -0.036353074 0.9543571
v 0.12336152 -0.0598577447 1.01351178
v -0.0319899134 0.0300732255 1.08694518
v 0.00155187177 0.0106563149 1.1155026
v 0.0368590169 -0.009782552 1.08490539
v 0.0739315152 -0.031243341 1.16037869
v 0.257528663 -0.1375254 1.20321476
v 0.07040081 -0.0291994419 1.26236951
v 0.255763322 -0.136503428 1.35824084
v 0.193975836 -0.100735433 1.36436033
v 0.00331724621 0.009634414 1.39291775
v 0.167495459 -0.0854062662 1.42963445
v -0.1802799 0.115916491 1.42759466
vt 0.925433755 0.212255478
vt 0.9788478 0.212255478
vt 0.9788478 0.521963835
vt 0.925433755 0.521963835
vt 0.925433755 0.212255478
vt 0.925433755 0.521963835
vt 0.8720197 0.212255478
vt 0.8720197 0.521963835
vt 0.9254337 0.5426357
vt 0.9254337 0.990771532
vt 0.875034 0.990771532
vt 0.875034 0.5426357
vt 0.9758335 0.5426357
vt 0.9758335 0.990771532
vt 0.9254337 0.5426357
vt 0.9254337 0.990771532
vt 0.778975248 0.355877757
vt 0.7579907 0.355877757
vt 0.7579907 0.592449963
vt 0.815300047 0.5924499
vt 0.778975248 0.355877757
vt 0.756914 0.355877757
vt 0.756914 0.5924497
vt 0.814223349 0.5924498
vt 0.778975248 0.355877757
vt 0.756914 0.355877757
vt 0.756914 0.5924497
vt 0.814223349 0.5924498
vt 0.778975248 0.355877757
vt 0.7579907 0.355877757
vt 0.7579907 0.592449963
vt 0.815300047 0.5924499
vt 0.7579907 0.8600562
vt 0.8085393 0.860056341
vt 0.756914 0.8600562
vt 0.807462633 0.860056341
vt 0.756914 0.8600562
vt 0.807462633 0.860056341
vt 0.7579907 0.8600562
vt 0.8085393 0.860056341
vt 0.925433755 0.212255478
vt 0.9788478 0.212255478
vt 0.925433755 0.212255478
vt 0.8720197 0.212255478
vt 0.8085393 0.860056341
vt 0.7579907 1
vt 0.756914 1
vt 0.807462633 0.860056341
vt 0.8481021 0.00738281
vt 0.800422 0.211530626
vt 0.757883 0.00738281
vt 0.757883 0.00738281
vt 0.800422 0.211530626
vt 0.8481021 0.00738281
vt 0.800422 0.211530626
vt 0.800422 0.211530626
vt 0.757452369 0
vt 0.757452369 0
vt 0.757452369 0
vt 0.757452369 0
vt 0.815300047 0.5924499
vt 0.814223349 0.5924498
vt 0.463260949 0.4610557
vt 0.319306046 0.278401256
vt 0.319306046 0.00184589624
vt 0.71391654 0.00184589624
vt 0.71391654 0.4610557
vt 0.319306046 0.00184589624
vt 0.319306046 0.278401256
vt 0.463260949 0.4610557
vt 0.71391654 0.4610557
vt 0.71391654 0.00184589624
vt 0.19659169 0.0166114569
vt 0.43521592 0.5254714
vt 0.43521592 0.9889258
vt 0.0203027222 0.0166114569
vt 0.0203027222 0.9889258
vt 0.0203027222 0.0166114569
vt 0.0203027222 0.9889258
vt 0.43521592 0.9889258
vt 0.43521592 0.5254714
vt 0.19659169 0.0166114569
vt 0.454044163 0.693985462
vt 0.71391654 0.6939831
vt 0.71391654 0.9926172
vt 0.454044163 0.9926172
vt 0.71391654 0.9926172
vt 0.71391654 0.6939831
vt 0.463260949 0.4610557
vt 0.319306046 0.278401256
vt 0.319306046 0.00184589624
vt 0.71391654 0.00184589624
vt 0.71391654 0.4610557
vt 0.319306046 0.00184589624
vt 0.319306046 0.278401256
vt 0.463260949 0.4610557
vt 0.71391654 0.4610557
vt 0.71391654 0.00184589624
vt 0.19659169 0.0166114569
vt 0.43521592 0.5254714
vt 0.43521592 0.9889258
vt 0.0203027222 0.0166114569
vt 0.0203027222 0.9889258
vt 0.0203027222 0.0166114569
vt 0.0203027222 0.9889258
vt 0.43521592 0.9889258
vt 0.43521592 0.5254714
vt 0.19659169 0.0166114569
vt 0.463260949 0.4610557
vt 0.319306046 0.278401256
vt 0.319306046 0.00184589624
vt 0.71391654 0.00184589624
vt 0.71391654 0.4610557
vt 0.319306046 0.00184589624
vt 0.319306046 0.278401256
vt 0.463260949 0.4610557
vt 0.71391654 0.4610557
vt 0.71391654 0.00184589624
vt 0.19659169 0.0166114569
vt 0.43521592 0.5254714
vt 0.43521592 0.9889258
vt 0.0203027222 0.0166114569
vt 0.0203027222 0.9889258
vt 0.0203027222 0.0166114569
vt 0.0203027222 0.9889258
vt 0.43521592 0.9889258
vt 0.43521592 0.5254714
vt 0.19659169 0.0166114569
vt 0.925433755 0.212255478
vt 0.9788478 0.212255478
vt 0.9788478 0.521963835
vt 0.925433755 0.521963835
vt 0.925433755 0.212255478
vt 0.925433755 0.521963835
vt 0.8720197 0.212255478
vt 0.8720197 0.521963835
vt 0.9254337 0.5426357
vt 0.9254337 0.990771532
vt 0.875034 0.990771532
vt 0.875034 0.5426357
vt 0.9758335 0.5426357
vt 0.9758335 0.990771532
vt 0.9254337 0.5426357
vt 0.9254337 0.990771532
vt 0.778975248 0.355877757
vt 0.7579907 0.355877757
vt 0.7579907 0.592449963
vt 0.815300047 0.5924499
vt 0.778975248 0.355877757
vt 0.756914 0.355877757
vt 0.756914 0.5924497
vt 0.814223349 0.5924498
vt 0.778975248 0.355877757
vt 0.756914 0.355877757
vt 0.756914 0.5924497
vt 0.814223349 0.5924498
vt 0.778975248 0.355877757
vt 0.7579907 0.355877757
vt 0.7579907 0.592449963
vt 0.815300047 0.5924499
vt 0.7579907 0.8600562
vt 0.8085393 0.860056341
vt 0.756914 0.8600562
vt 0.807462633 0.860056341
vt 0.756914 0.8600562
vt 0.807462633 0.860056341
vt 0.7579907 0.8600562
vt 0.8085393 0.860056341
vt 0.925433755 0.212255478
vt 0.9788478 0.212255478
vt 0.925433755 0.212255478
vt 0.8720197 0.212255478
vt 0.8085393 0.860056341
vt 0.7579907 1
vt 0.756914 1
vt 0.807462633 0.860056341
vt 0.8481021 0.00738281
vt 0.800422 0.211530626
vt 0.757883 0.00738281
vt 0.757883 0.00738281
vt 0.800422 0.211530626
vt 0.8481021 0.00738281
vt 0.800422 0.211530626
vt 0.800422 0.211530626
vt 0.757452369 0
vt 0.757452369 0
vt 0.757452369 0
vt 0.757452369 0
vt 0.815300047 0.5924499
vt 0.814223349 0.5924498
vt 0.463260949 0.4610557
vt 0.319306046 0.278401256
vt 0.319306046 0.00184589624
vt 0.71391654 0.00184589624
vt 0.71391654 0.4610557
vt 0.319306046 0.00184589624
vt 0.319306046 0.278401256
vt 0.463260949 0.4610557
vt 0.71391654 0.4610557
vt 0.71391654 0.00184589624
vt 0.19659169 0.0166114569
vt 0.43521592 0.5254714
vt 0.43521592 0.9889258
vt 0.0203027222 0.0166114569
vt 0.0203027222 0.9889258
vt 0.0203027222 0.0166114569
vt 0.0203027222 0.9889258
vt 0.43521592 0.9889258
vt 0.43521592 0.5254714
vt 0.19659169 0.0166114569
vt 0.454044163 0.693985462
vt 0.71391654 0.6939831
vt 0.71391654 0.9926172
vt 0.454044163 0.9926172
vt 0.71391654 0.9926172
vt 0.71391654 0.6939831
vt 0.5603768 0.925116539
vt 0.4898635 0.925116539
vt 0.489863485 0.8503512
vt 0.565527 0.8503512
vt 0.419350237 0.925116539
vt 0.4142 0.8503512
vt 0.489863545 0.925116539
vt 0.4898635 0.8503512
vt 0.4898633 0.411179245
vt 0.5654081 0.411179245
vt 0.414318562 0.411179245
vt 0.489863336 0.411179245
vt 0.5507108 0.36429286
vt 0.4898633 0.364195764
vt 0.489863276 0.2920941
vt 0.5819265 0.292084455
vt 0.429015815 0.36429286
vt 0.40688324 0.364195764
vt 0.3644241 0.292062283
vt 0.397800028 0.292084515
vt 0.429015815 0.36429286
vt 0.489863336 0.364195764
vt 0.4898633 0.292094171
vt 0.397800058 0.292084575
vt 0.5507108 0.36429286
vt 0.572843432 0.364195764
vt 0.615302444 0.292062283
vt 0.5819265 0.292084515
vt 0.489863247 0.221109867
vt 0.5711182 0.2210567
vt 0.3800515 0.221106
vt 0.408608347 0.2210567
vt 0.489863276 0.221109986
vt 0.408608377 0.2210567
vt 0.599675 0.221106112
vt 0.5711182 0.221056819
vt 0.419350237 0.925116539
vt 0.4898635 0.925116539
vt 0.5603768 0.925116539
vt 0.489863545 0.925116539
vt 0.489863247 0.177246928
vt 0.4890672 0.90230155
vt 0.2694556 0.935668349
vt 0.344346225 0.9768691
vt 0.497163475 0.9995005
vt 0.6408724 0.9742578
vt 0.714750946 0.941761434
vt 0.4890672 0.9023016
vt 0.714750946 0.9417615
vt 0.6408724 0.9742578
vt 0.497163475 0.9995005
vt 0.344346225 0.9768691
vt 0.2694556 0.935668349
vt 0.278158844 0.0439943075
vt 0.1894224 0.0448149443
vt 0.155072778 0.068614006
vt 0.3840701 0.107184887
vt 0.4871189 0.0587661266
vt 0.4298696 0.181864679
vt 0.366895318 0.155603647
vt 0.289608717 0.21551156
vt 0.3611704 0.236848712
vt 0.484256446 0.170375466
vt 0.5415058 0.182685316
vt 0.08064863 0.07517934
vt 0.09782341 0.135907888
vt 0.175110042 0.190071225
vt 0.120723158 0.209766984
vt 0.252396643 0.243413925
vt 0.052023977 0.2171529
vt 0.0434365571 0.240131259
vt 0.0004995465 0.2573651
vt 0.29247123 0.2606477
vt 0.07206121 0.303321838
vt 0.252396643 0.326300263
vt 0.349720538 0.2565444
vt 0.844927251 0.213049591
vt 0.7991278 0.189250588
vt 0.7218412 0.229462743
vt 0.9308013 0.2163322
vt 0.9308013 0.238489985
vt 0.736153543 0.252441168
vt 0.999500453 0.251620471
vt 0.8792769 0.312349081
vt 0.673179269 0.262289
vt 0.653142 0.3230176
vt 0.610205 0.254082441
vt 0.489981383 0.300859928
vt 0.615929961 0.235207319
vt 0.6817666 0.211408317
vt 0.6016176 0.152320981
vt 0.8993141 0.135087252
vt 0.595892668 0.11128819
vt 0.8964516 0.07271731
vt 0.796265364 0.07025534
vt 0.7533283 0.0439943075
vt 0.6874916 0.04563558
vt 0.593030155 0.00296139717
vt 0.4957063 0.0242985487
vt 0.386932552 0.0004994869
vt 0.2781588 0.0439943075
vt 0.386932552 0.0004994869
vt 0.4957063 0.0242985487
vt 0.593030155 0.00296145678
vt 0.6874916 0.04563558
vt 0.7218412 0.229462743
vt 0.7991278 0.189250588
vt 0.844927251 0.213049591
vt 0.9308013 0.2163322
vt 0.9308013 0.238489985
vt 0.736153543 0.252441168
vt 0.999500453 0.251620471
vt 0.8792769 0.312349081
vt 0.673179269 0.262289
vt 0.653142 0.3230176
vt 0.610205 0.254082441
vt 0.489981383 0.300859928
vt 0.252396643 0.326300263
vt 0.08064863 0.07517934
vt 0.155072778 0.068614006
vt 0.3840701 0.107184887
vt 0.09782341 0.135907888
vt 0.366895318 0.155603647
vt 0.175110042 0.190071225
vt 0.289608717 0.21551156
vt 0.120723158 0.209766984
vt 0.252396643 0.243413925
vt 0.052023977 0.2171529
vt 0.0434365571 0.240131259
vt 0.0004995465 0.2573651
vt 0.29247123 0.2606477
vt 0.07206121 0.303321838
vt 0.349720538 0.2565444
vt 0.3611704 0.236848712
vt 0.615929961 0.235207319
vt 0.6817666 0.211408317
vt 0.4298696 0.181864679
vt 0.484256446 0.170375466
vt 0.5415058 0.182685316
vt 0.6016176 0.152320981
vt 0.8993141 0.135087252
vt 0.595892668 0.11128819
vt 0.896451652 0.07271731
vt 0.796265364 0.07025534
vt 0.4871189 0.0587661266
vt 0.7533283 0.0439943075
vt 0.189422369 0.0448149443
vt 0.278158844 0.0439943075
vt 0.1894224 0.0448149443
vt 0.155072778 0.068614006
vt 0.3840701 0.107184887
vt 0.4871189 0.0587661266
vt 0.4298696 0.181864679
vt 0.366895318 0.155603647
vt 0.289608717 0.21551156
vt 0.3611704 0.236848712
vt 0.484256446 0.170375466
vt 0.5415058 0.182685316
vt 0.08064863 0.07517934
vt 0.09782341 0.135907888
vt 0.175110042 0.190071225
vt 0.120723158 0.209766984
vt 0.252396643 0.243413925
vt 0.052023977 0.2171529
vt 0.0434365571 0.240131259
vt 0.0004995465 0.2573651
vt 0.29247123 0.2606477
vt 0.07206121 0.303321838
vt 0.252396643 0.326300263
vt 0.349720538 0.2565444
vt 0.844927251 0.213049591
vt 0.7991278 0.189250588
vt 0.7218412 0.229462743
vt 0.9308013 0.2163322
vt 0.9308013 0.238489985
vt 0.736153543 0.252441168
vt 0.999500453 0.251620471
vt 0.8792769 0.312349081
vt 0.673179269 0.262289
vt 0.653142 0.3230176
vt 0.610205 0.254082441
vt 0.489981383 0.300859928
vt 0.615929961 0.235207319
vt 0.6817666 0.211408317
vt 0.6016176 0.152320981
vt 0.8993141 0.135087252
vt 0.595892668 0.11128819
vt 0.8964516 0.07271731
vt 0.796265364 0.07025534
vt 0.7533283 0.0439943075
vt 0.6874916 0.04563558
vt 0.593030155 0.00296139717
vt 0.4957063 0.0242985487
vt 0.386932552 0.0004994869
vt 0.2781588 0.0439943075
vt 0.386932552 0.0004994869
vt 0.4957063 0.0242985487
vt 0.593030155 0.00296145678
vt 0.6874916 0.04563558
vt 0.7218412 0.229462743
vt 0.7991278 0.189250588
vt 0.844927251 0.213049591
vt 0.9308013 0.2163322
vt 0.9308013 0.238489985
vt 0.736153543 0.252441168
vt 0.999500453 0.251620471
vt 0.8792769 0.312349081
vt 0.673179269 0.262289
vt 0.653142 0.3230176
vt 0.610205 0.254082441
vt 0.489981383 0.300859928
vt 0.252396643 0.326300263
vt 0.08064863 0.07517934
vt 0.155072778 0.068614006
vt 0.3840701 0.107184887
vt 0.09782341 0.135907888
vt 0.366895318 0.155603647
vt 0.175110042 0.190071225
vt 0.289608717 0.21551156
vt 0.120723158 0.209766984
vt 0.252396643 0.243413925
vt 0.052023977 0.2171529
vt 0.0434365571 0.240131259
vt 0.0004995465 0.2573651
vt 0.29247123 0.2606477
vt 0.07206121 0.303321838
vt 0.349720538 0.2565444
vt 0.3611704 0.236848712
vt 0.615929961 0.235207319
vt 0.6817666 0.211408317
vt 0.4298696 0.181864679
vt 0.484256446 0.170375466
vt 0.5415058 0.182685316
vt 0.6016176 0.152320981
vt 0.8993141 0.135087252
vt 0.595892668 0.11128819
vt 0.896451652 0.07271731
vt 0.796265364 0.07025534
vt 0.4871189 0.0587661266
vt 0.7533283 0.0439943075
vt 0.189422369 0.0448149443
vt 0.278158844 0.0439943075
vt 0.1894224 0.0448149443
vt 0.155072778 0.068614006
vt 0.3840701 0.107184887
vt 0.4871189 0.0587661266
vt 0.4298696 0.181864679
vt 0.366895318 0.155603647
vt 0.289608717 0.21551156
vt 0.3611704 0.236848712
vt 0.484256446 0.170375466
vt 0.5415058 0.182685316
vt 0.08064863 0.07517934
vt 0.09782341 0.135907888
vt 0.175110042 0.190071225
vt 0.120723158 0.209766984
vt 0.252396643 0.243413925
vt 0.052023977 0.2171529
vt 0.0434365571 0.240131259
vt 0.0004995465 0.2573651
vt 0.29247123 0.2606477
vt 0.07206121 0.303321838
vt 0.252396643 0.326300263
vt 0.349720538 0.2565444
vt 0.844927251 0.213049591
vt 0.7991278 0.189250588
vt 0.7218412 0.229462743
vt 0.9308013 0.2163322
vt 0.9308013 0.238489985
vt 0.736153543 0.252441168
vt 0.999500453 0.251620471
vt 0.8792769 0.312349081
vt 0.673179269 0.262289
vt 0.653142 0.3230176
vt 0.610205 0.254082441
vt 0.489981383 0.300859928
vt 0.615929961 0.235207319
vt 0.6817666 0.211408317
vt 0.6016176 0.152320981
vt 0.8993141 0.135087252
vt 0.595892668 0.11128819
vt 0.8964516 0.07271731
vt 0.796265364 0.07025534
vt 0.7533283 0.0439943075
vt 0.6874916 0.04563558
vt 0.593030155 0.00296139717
vt 0.4957063 0.0242985487
vt 0.386932552 0.0004994869
vt 0.2781588 0.0439943075
vt 0.386932552 0.0004994869
vt 0.4957063 0.0242985487
vt 0.593030155 0.00296145678
vt 0.6874916 0.04563558
vt 0.7218412 0.229462743
vt 0.7991278 0.189250588
vt 0.844927251 0.213049591
vt 0.9308013 0.2163322
vt 0.9308013 0.238489985
vt 0.736153543 0.252441168
vt 0.999500453 0.251620471
vt 0.8792769 0.312349081
vt 0.673179269 0.262289
vt 0.653142 0.3230176
vt 0.610205 0.254082441
vt 0.489981383 0.300859928
vt 0.252396643 0.326300263
vt 0.08064863 0.07517934
vt 0.155072778 0.068614006
vt 0.3840701 0.107184887
vt 0.09782341 0.135907888
vt 0.366895318 0.155603647
vt 0.175110042 0.190071225
vt 0.289608717 0.21551156
vt 0.120723158 0.209766984
vt 0.252396643 0.243413925
vt 0.052023977 0.2171529
vt 0.0434365571 0.240131259
vt 0.0004995465 0.2573651
vt 0.29247123 0.2606477
vt 0.07206121 0.303321838
vt 0.349720538 0.2565444
vt 0.3611704 0.236848712
vt 0.615929961 0.235207319
vt 0.6817666 0.211408317
vt 0.4298696 0.181864679
vt 0.484256446 0.170375466
vt 0.5415058 0.182685316
vt 0.6016176 0.152320981
vt 0.8993141 0.135087252
vt 0.595892668 0.11128819
vt 0.896451652 0.07271731
vt 0.796265364 0.07025534
vt 0.4871189 0.0587661266
vt 0.7533283 0.0439943075
vt 0.189422369 0.0448149443
vn 1.335473E-07 -1 5.38636868E-08
vn 1 7.019056E-08 2.96903249E-08
vn 1 2.09157875E-07 4.223246E-08
vn 1.61809012E-07 -1 5.84464068E-08
vn -1.902876E-07 1 -4.19267856E-08
vn -2.15114127E-07 1 -5.331306E-08
vn -1 -1.789753E-07 -2.12392965E-08
vn -1 -1.85703414E-07 -3.87967027E-08
vn 1 2.09157875E-07 4.223246E-08
vn 0.9957701 1.57648348E-08 -0.09187975
vn -1.40893377E-07 -0.9957701 -0.09187975
vn 1.61809012E-07 -1 5.84464068E-08
vn -2.15114127E-07 1 -5.331306E-08
vn -1.65393956E-07 0.9957701 -0.09187987
vn -1 -1.85703414E-07 -3.87967027E-08
vn -0.9957701 -8.255792E-08 -0.0918798447
vn 0.701907933 -0.701907933 -0.12103907
vn 0.9941787 8.202443E-10 -0.107743628
vn 0.99856776 9.904759E-10 -0.0535014644
vn 0.706035733 -0.7060357 -0.05501945
vn 0.701907933 0.701907933 -0.121039137
vn -1.0125023E-07 0.9941787 -0.107743748
vn -2.17216272E-08 0.998604834 -0.0528054237
vn 0.7060357 0.706035733 -0.0550195761
vn -0.701908052 0.7019078 -0.121039309
vn -0.994178653 -2.06556791E-07 -0.107743904
vn -0.99856776 -1.89104284E-07 -0.0535018
vn -0.706035733 0.7060357 -0.0550197661
vn -0.7019079 -0.701908 -0.1210392
vn -3.472066E-08 -0.9941787 -0.107743636
vn 9.51167038E-08 -0.998604834 -0.0528052561
vn -0.706035554 -0.706035852 -0.0550196469
vn 0.956993759 -1.89140916E-08 0.290108472
vn 0.667537868 -0.683099568 0.2962568
vn -1.84470935E-07 0.956846237 0.290594667
vn 0.667538345 0.6830993 0.296256423
vn -0.956994057 -7.25614768E-07 0.2901076
vn -0.6675389 0.6830987 0.296256661
vn -5.6778174E-07 -0.9568464 0.290594
vn -0.6675384 -0.683099449 0.296255976
vn 0 0 -1
vn 0 0 -1
vn 0 0 -1
vn 0 0 -1
vn 0.667538345 0.6830993 0.296256423
vn -5.39514645E-07 -4.58674037E-07 1
vn -5.39514645E-07 -4.58674037E-07 1
vn -0.6675384 -0.683099449 0.296255976
vn 0.9957701 1.57648348E-08 -0.09187975
vn 0.701907933 -0.701907933 -0.12103907
vn -1.40893377E-07 -0.9957701 -0.09187975
vn -1.65393956E-07 0.9957701 -0.09187987
vn 0.701907933 0.701907933 -0.121039137
vn -0.9957701 -8.255792E-08 -0.0918798447
vn -0.701908052 0.7019078 -0.121039309
vn -0.7019079 -0.701908 -0.1210392
vn -0.9957701 -8.255792E-08 -0.0918798447
vn -1.65393956E-07 0.9957701 -0.09187987
vn 0.9957701 1.57648348E-08 -0.09187975
vn -1.40893377E-07 -0.9957701 -0.09187975
vn 0.7060357 0.706035733 -0.0550195761
vn -0.706035554 -0.706035852 -0.0550196469
vn -1 -5.338508E-08 -6.556708E-08
vn -1 -5.33849445E-08 -6.556703E-08
vn -1 -5.338506E-08 -6.556706E-08
vn -1 -5.3385083E-08 -6.556706E-08
vn -1 -5.33850937E-08 -6.556707E-08
vn -1 -5.33851E-08 -6.556704E-08
vn -1 -5.33852E-08 -6.556701E-08
vn -1 -5.3385115E-08 -6.556703E-08
vn -1 -5.33850866E-08 -6.556705E-08
vn -1 -5.338507E-08 -6.556707E-08
vn -1 -5.338505E-08 -6.556707E-08
vn -1 -5.338517E-08 -6.55671E-08
vn -1 -5.3385083E-08 -6.5567086E-08
vn -1 -5.33850439E-08 -6.556707E-08
vn -1 -5.338507E-08 -6.5567086E-08
vn -1 -5.338513E-08 -6.556706E-08
vn -1 -5.33850653E-08 -6.5567086E-08
vn -1 -5.33851E-08 -6.556707E-08
vn -1 -5.338522E-08 -6.556703E-08
vn -1 -5.338516E-08 -6.556705E-08
vn -1 -5.338508E-08 -6.556707E-08
vn -1 -5.33850937E-08 -6.556708E-08
vn -1 -5.338509E-08 -6.556707E-08
vn -1 -5.33850759E-08 -6.55670647E-08
vn -1 -5.33850653E-08 -6.556707E-08
vn -1 -5.33850582E-08 -6.556708E-08
vn 0.4999998 0.8660255 -9.810087E-08
vn 0.499999881 0.866025448 -6.692687E-08
vn 0.499999851 0.8660255 -6.479775E-08
vn 0.499999851 0.8660255 -4.103997E-08
vn 0.499999821 0.8660255 -7.222525E-08
vn 0.499999821 0.8660255 -8.696498E-08
vn 0.499999881 0.866025448 -6.69268942E-08
vn 0.499999821 0.8660255 -4.329256E-08
vn 0.499999821 0.8660255 -8.105312E-08
vn 0.499999851 0.8660255 -1.23119932E-07
vn 0.499999821 0.8660255 -6.435432E-08
vn 0.4999998 0.8660255 -8.41086347E-08
vn 0.499999851 0.8660255 -7.797643E-08
vn 0.499999821 0.8660255 -6.654037E-08
vn 0.4999998 0.8660255 -7.892806E-08
vn 0.4999998 0.8660255 -5.713393E-08
vn 0.499999821 0.8660255 -7.830165E-08
vn 0.499999851 0.8660255 -7.620141E-08
vn 0.499999881 0.866025448 -8.4108656E-08
vn 0.4999998 0.8660255 -5.309571E-08
vn 0.5000001 -0.8660253 1.55745461E-09
vn 0.50000006 -0.8660254 2.06010515E-08
vn 0.5000001 -0.8660253 2.42319977E-08
vn 0.5000001 -0.8660253 4.10399643E-08
vn 0.5000001 -0.8660253 1.965917E-08
vn 0.5000001 -0.8660253 7.656835E-09
vn 0.5000001 -0.8660253 1.9121968E-08
vn 0.5000001 -0.8660253 1.389262E-08
vn 0.5000001 -0.8660253 6.59104726E-09
vn 0.5000001 -0.8660253 0
vn 0.50000006 -0.8660254 2.07798587E-11
vn 0.500000238 -0.866025269 -4.856016E-08
vn 0.5000001 -0.8660253 2.73091061E-09
vn 0.50000006 -0.8660254 7.40877937E-09
vn 0.50000006 -0.8660254 1.31546756E-08
vn 0.5000001 -0.8660253 6.2844876E-09
vn 0.5000001 -0.8660253 1.30577682E-08
vn 0.5000001 -0.8660253 3.516153E-09
vn 0.4999999 -0.866025448 -4.2054328E-08
vn 0.5000001 -0.8660253 -6.71140254E-10
vn -1.43835067E-07 1 1.06657509E-07
vn -1 -7.61784236E-08 1.96346885E-08
vn -1 -2.29115173E-07 3.94852E-08
vn -2.42797057E-07 1 1.16869472E-07
vn 2.3059701E-07 -1 -1.19171865E-07
vn 3.23500956E-07 -1 -1.22298673E-07
vn 1 2.26650442E-07 -2.84945241E-08
vn 1 2.45857251E-07 -4.30396163E-08
vn -1 -2.29115173E-07 3.94852E-08
vn -0.9957701 -9.172229E-08 -0.09187973
vn 7.19906055E-08 0.9957701 -0.0918796659
vn -2.42797057E-07 1 1.16869472E-07
vn 3.23500956E-07 -1 -1.22298673E-07
vn 2.5199742E-07 -0.9957701 -0.09187991
vn 1 2.45857251E-07 -4.30396163E-08
vn 0.9957701 1.20471952E-07 -0.09187982
vn -0.701908052 0.7019079 -0.121039
vn -0.9941787 -4.16751575E-08 -0.107743621
vn -0.99856776 -8.73044641E-08 -0.05350144
vn -0.7060358 0.7060357 -0.0550194
vn -0.701907933 -0.701907933 -0.121039152
vn 1.67904631E-07 -0.9941787 -0.107743792
vn 9.460024E-08 -0.998604834 -0.0528054647
vn -0.7060357 -0.706035733 -0.0550196171
vn 0.7019081 -0.701907754 -0.121039331
vn 0.994178653 2.83199768E-07 -0.107743911
vn 0.99856776 2.7002767E-07 -0.05350183
vn 0.7060358 -0.7060356 -0.0550198
vn 0.7019079 0.701908052 -0.121039152
vn -3.643018E-08 0.9941787 -0.107743569
vn -1.242379E-07 0.998604834 -0.0528051965
vn 0.706035554 0.7060359 -0.0550194755
vn -0.9569938 -3.09669375E-08 0.290108383
vn -0.6675378 0.6830996 0.29625687
vn 2.46596471E-07 -0.9568463 0.290594548
vn -0.667538345 -0.6830994 0.2962563
vn 0.9569942 9.576352E-07 0.2901072
vn 0.66753906 -0.683098555 0.296256661
vn 7.0422584E-07 0.956846535 0.290593773
vn 0.6675384 0.6830995 0.2962558
vn 0 0 -1
vn 0 0 -1
vn 0 0 -1
vn 0 0 -1
vn -0.667538345 -0.6830994 0.2962563
vn 6.32267358E-07 5.530773E-07 1
vn 6.32267358E-07 5.530773E-07 1
vn 0.6675384 0.6830995 0.2962558
vn -0.9957701 -9.172229E-08 -0.09187973
vn -0.701908052 0.7019079 -0.121039
vn 7.19906055E-08 0.9957701 -0.0918796659
vn 2.5199742E-07 -0.9957701 -0.09187991
vn -0.701907933 -0.701907933 -0.121039152
vn 0.9957701 1.20471952E-07 -0.09187982
vn 0.7019081 -0.701907754 -0.121039331
vn 0.7019079 0.701908052 -0.121039152
vn 0.9957701 1.20471952E-07 -0.09187982
vn 2.5199742E-07 -0.9957701 -0.09187991
vn -0.9957701 -9.172229E-08 -0.09187973
vn 7.19906055E-08 0.9957701 -0.0918796659
vn -0.7060357 -0.706035733 -0.0550196171
vn 0.706035554 0.7060359 -0.0550194755
vn 1 1.15202333E-07 -6.556706E-08
vn 1 1.15202155E-07 -6.556701E-08
vn 1 1.15202305E-07 -6.556703E-08
vn 1 1.15202305E-07 -6.55670149E-08
vn 1 1.15202333E-07 -6.556704E-08
vn 1 1.15202361E-07 -6.556703E-08
vn 1 1.15202589E-07 -6.55669652E-08
vn 1 1.15202333E-07 -6.556704E-08
vn 1 1.15202305E-07 -6.556704E-08
vn 1 1.15202312E-07 -6.55670362E-08
vn 1 1.15202333E-07 -6.55670647E-08
vn 1 1.15202312E-07 -6.556706E-08
vn 1 1.1520234E-07 -6.556706E-08
vn 1 1.15202347E-07 -6.55670647E-08
vn 1 1.15202347E-07 -6.55670647E-08
vn 1 1.15202276E-07 -6.556707E-08
vn 1 1.1520234E-07 -6.556704E-08
vn 1 1.1520234E-07 -6.556706E-08
vn 1 1.15202333E-07 -6.55670647E-08
vn 1 1.15202255E-07 -6.5567086E-08
vn 1 1.15202326E-07 -6.556707E-08
vn 1 1.15202347E-07 -6.556707E-08
vn 1 1.15202347E-07 -6.556707E-08
vn 1 1.15202333E-07 -6.556707E-08
vn 1 1.15202312E-07 -6.55670647E-08
vn 1 1.15202319E-07 -6.55670647E-08
vn -1.90434164E-07 0.999805033 -0.0197450016
vn -0.999805033 -1.49809338E-07 -0.0197450761
vn -0.9999521 -2.28675958E-07 -0.009790651
vn -2.4064866E-07 0.9999521 -0.009790582
vn 2.13309121E-07 -0.999805033 -0.01974521
vn 2.69511332E-07 -0.9999521 -0.009790814
vn 0.999805033 2.02264829E-07 -0.0197451245
vn 0.9999521 2.668869E-07 -0.009790733
vn -0.993757367 -1.173957E-07 -0.111562714
vn 2.43326372E-08 0.9937574 -0.111562662
vn 2.42091E-07 -0.993757367 -0.111562878
vn 0.993757367 1.39447565E-07 -0.111562818
vn -0.701316 0.7013269 -0.127657384
vn -0.9941819 -4.28444444E-08 -0.107714325
vn -0.9986289 -1.43689887E-08 -0.052347634
vn -0.7062284 0.705956042 -0.0535493381
vn -0.701315939 -0.7013269 -0.127657533
vn 1.41778926E-07 -0.9941846 -0.107689142
vn 1.02963668E-07 -0.998651743 -0.0519103147
vn -0.706228256 -0.705956161 -0.0535496548
vn 0.7013162 -0.7013267 -0.127657712
vn 0.9941819 2.889909E-07 -0.107714631
vn 0.9986289 2.98430137E-07 -0.0523479879
vn 0.7062284 -0.705956042 -0.0535498224
vn 0.7013158 0.7013271 -0.127657518
vn -3.4889645E-08 0.9941846 -0.107688904
vn -9.49143839E-08 0.998651743 -0.0519101061
vn 0.706228137 0.7059563 -0.0535494164
vn -0.9483592 3.24666836E-08 0.317198366
vn -0.6623478 0.676030755 0.32292074
vn 2.776965E-07 -0.947889268 0.3186
vn -0.66234833 -0.676030457 0.322920263
vn 0.948359549 1.05949835E-06 0.3171974
vn 0.662349 -0.676029742 0.3229205
vn 8.222271E-07 0.947889447 0.318599343
vn 0.662348449 0.676030755 0.322919458
vn 0 0 -1
vn 0 0 -1
vn 0 0 -1
vn 0 0 -1
vn 6.273977E-07 5.3009245E-07 1
vn 1 4.315489E-08 1.61342825E-07
vn 1 4.59424427E-08 1.60355157E-07
vn 1 4.31647678E-08 1.61900715E-07
vn 1 4.34882281E-08 1.6294284E-07
vn 1 4.2911676E-08 1.61341219E-07
vn 1 3.90699242E-08 1.5901756E-07
vn -1 -4.31548948E-08 -1.61342825E-07
vn -1 -3.90699242E-08 -1.5901756E-07
vn -1 -4.2911676E-08 -1.61341219E-07
vn -1 -4.34882246E-08 -1.62942825E-07
vn -1 -4.31647678E-08 -1.619007E-07
vn -1 -4.59424427E-08 -1.60355157E-07
vn 1 2.52165488E-08 1.90531722E-07
vn 1 5.40474545E-08 1.50817726E-07
vn 1 2.73167071E-08 1.96588744E-07
vn 1 9.232769E-09 1.7827837E-07
vn 1 4.243869E-08 2.19564456E-07
vn 1 6.854059E-08 -9.883872E-08
vn 1 -1.15743264E-08 7.003579E-08
vn 1 8.0062776E-08 -1.82430284E-08
vn 1 -3.80180722E-08 5.73010581E-08
vn 1 1.5754642E-08 -4.21837E-08
vn 1 7.96468456E-08 -2.41061624E-08
vn 1 1.36447333E-08 1.77569476E-07
vn 1 6.15456441E-09 1.56462491E-07
vn 1 1.53790168E-07 1.01198179E-08
vn 1 1.92979726E-07 -3.78446E-08
vn 1 2.156807E-07 1.53730824E-07
vn 1 1.92484961E-07 5.00964177E-08
vn 1 2.29377463E-07 7.699468E-08
vn 1 1.99356279E-07 1.60849837E-07
vn 1 8.993689E-08 3.062691E-07
vn 1 1.55439466E-07 2.703028E-07
vn 1 5.5604378E-08 3.41749853E-07
vn 1 -1.80708746E-08 2.980516E-07
vn 1 -3.664337E-08 -8.10168359E-08
vn 1 1.371882E-09 7.870422E-08
vn 1 -8.03123044E-08 6.150938E-08
vn 1 -5.291005E-08 9.872348E-08
vn 1 -5.57088455E-08 8.130075E-08
vn 1 -4.143666E-08 1.88440012E-07
vn 1 -4.62425831E-08 1.451701E-07
vn 1 -1.5522108E-08 2.45588382E-07
vn 1 5.143428E-08 2.670042E-07
vn 1 5.947789E-08 2.77511759E-07
vn 1 2.58539252E-08 2.49311228E-07
vn 1 1.233467E-08 3.353425E-07
vn 1 -2.50105465E-08 1.99825863E-07
vn 1 -3.53319336E-07 -1.49708455E-07
vn 1 8.817098E-08 1.08769228E-07
vn 1 7.69685E-08 1.5750804E-07
vn 1 7.51446E-08 1.75989371E-07
vn 1 6.59581E-08 1.82932823E-07
vn 1 5.934337E-08 2.08315029E-07
vn 1 7.4826545E-08 1.967933E-07
vn 1 2.79404944E-08 4.13189241E-07
vn 1 4.06844158E-08 1.57522265E-07
vn 1 4.549123E-08 2.06609513E-07
vn 1 4.68880472E-08 1.55902455E-07
vn -1 -2.3202114E-08 -1.9129233E-07
vn -1 -4.68880366E-08 -1.55902455E-07
vn -1 -4.572263E-08 -2.12620989E-07
vn -1 -4.068442E-08 -1.57522265E-07
vn -1 -2.56759147E-08 -4.47351482E-07
vn -1 7.466967E-08 -6.8066015E-08
vn -1 -5.070252E-09 -7.67028254E-08
vn -1 3.664337E-08 8.10168359E-08
vn -1 5.291005E-08 -9.872348E-08
vn -1 5.273399E-08 -8.70037E-08
vn -1 3.824992E-08 -1.92198527E-07
vn -1 4.12893E-08 -1.460398E-07
vn -1 1.23516877E-08 -2.412286E-07
vn -1 -5.11542737E-08 -2.61408047E-07
vn -1 -5.86692046E-08 -2.714057E-07
vn -1 -2.12295461E-08 -2.54059273E-07
vn -1 -1.40356287E-08 -3.260791E-07
vn -1 -5.47158869E-08 -3.46363521E-07
vn -1 -1.36447333E-08 -1.77569476E-07
vn -1 -2.73167089E-08 -1.96588772E-07
vn -1 -6.37705044E-09 -1.7986541E-07
vn -1 -3.788759E-09 -1.57393387E-07
vn -1 1.58701567E-08 -7.06945045E-08
vn -1 -1.5088942E-07 -7.969291E-09
vn -1 -7.90172052E-08 2.74314065E-08
vn -1 -1.94366876E-07 4.43431958E-08
vn -1 -2.18583793E-07 -1.50522425E-07
vn -1 -1.97434844E-07 -4.665644E-08
vn -1 -2.35478993E-07 -7.42051043E-08
vn -1 -2.04445513E-07 -1.60707E-07
vn -1 -9.134333E-08 -3.10916334E-07
vn -1 -1.59069955E-07 -2.73707116E-07
vn -1 2.63907243E-08 -3.04285948E-07
vn -1 4.20139372E-08 -5.2643113E-08
vn -1 3.015754E-08 -2.00581312E-07
vn -1 3.06007138E-07 1.33606065E-07
vn -1 -9.167176E-08 1.18141287E-07
vn -1 -1.21785115E-08 4.592195E-08
vn -1 -7.17609439E-08 2.56263046E-08
vn -1 -9.273869E-08 -1.08307191E-07
vn -1 -8.149575E-08 -1.56693886E-07
vn -1 -7.93850461E-08 -1.77618759E-07
vn -1 -6.918171E-08 -1.854454E-07
vn -1 -6.164738E-08 -2.14048313E-07
vn -1 -4.182282E-08 -2.25224568E-07
vn -1 -7.88654262E-08 -2.012909E-07
vn -1 -5.40474581E-08 -1.50817741E-07
vn 0.500826836 -0.8655475 1.830301E-07
vn 0.5008268 -0.865547538 1.88387489E-07
vn 0.5008268 -0.865547538 1.606065E-07
vn 0.5008268 -0.865547538 1.62693937E-07
vn 0.5008268 -0.865547538 2.1020476E-07
vn 0.5008269 -0.8655475 -1.21027838E-07
vn 0.5008268 -0.865547538 8.158371E-08
vn 0.500826836 -0.8655475 -3.412581E-08
vn 0.5008268 -0.865547538 4.91314971E-08
vn 0.5008268 -0.865547538 -5.369426E-08
vn 0.500826836 -0.8655475 -2.08045847E-08
vn 0.5008268 -0.865547538 1.4348629E-07
vn 0.5008268 -0.865547538 1.68511974E-07
vn 0.500826955 -0.8655474 2.20059082E-08
vn 0.5008269 -0.8655475 -1.9822339E-07
vn 0.5008269 -0.8655475 1.30409575E-07
vn 0.500826836 -0.8655475 -5.78505244E-08
vn 0.5008269 -0.8655475 8.264112E-08
vn 0.5008269 -0.8655475 2.05020456E-07
vn 0.5008269 -0.8655475 2.95843449E-07
vn 0.5008269 -0.8655475 3.08322967E-07
vn 0.500826836 -0.8655475 3.324556E-07
vn 0.5008268 -0.865547538 2.967954E-07
vn 0.500826836 -0.865547538 -1.51517611E-07
vn 0.5008268 -0.865547538 1.13450668E-07
vn 0.5008267 -0.865547538 5.02374178E-08
vn 0.5008268 -0.865547538 1.260481E-07
vn 0.5008268 -0.865547538 1.40548465E-07
vn 0.5008268 -0.865547538 1.85904582E-07
vn 0.5008267 -0.865547538 1.87846325E-07
vn 0.5008268 -0.865547538 2.56213269E-07
vn 0.5008268 -0.865547538 2.68617242E-07
vn 0.500826836 -0.865547538 2.77938483E-07
vn 0.500826836 -0.865547538 2.40973634E-07
vn 0.5008268 -0.865547538 3.58876349E-07
vn 0.5008268 -0.865547538 1.732046E-07
vn 0.500826359 -0.8655478 -1.90584174E-07
vn 0.500826836 -0.8655475 1.23323787E-07
vn 0.500826836 -0.8655475 1.68673054E-07
vn 0.500826836 -0.8655475 1.67967045E-07
vn 0.5008269 -0.8655475 1.598641E-07
vn 0.500826836 -0.8655475 1.6180131E-07
vn 0.500826836 -0.865547538 1.42095786E-07
vn 0.500826836 -0.8655475 2.91439875E-07
vn 0.5008268 -0.865547538 1.79318917E-07
vn 0.500826836 -0.865547538 2.211803E-07
vn 0.500826836 -0.8655475 2.0668611E-07
vn -0.500826836 0.8655475 -1.79276768E-07
vn -0.5008268 0.865547538 -1.1229934E-07
vn -0.5008268 0.865547538 -2.06375375E-07
vn -0.500826836 0.865547538 -1.673193E-07
vn -0.500826657 0.8655476 -1.17527986E-06
vn -0.5008267 0.8655476 -1.0379452E-07
vn -0.5008268 0.865547538 -3.053312E-08
vn -0.5008267 0.865547538 -1.93950722E-08
vn -0.5008267 0.8655476 -2.03728845E-07
vn -0.5008267 0.865547538 4.23159641E-09
vn -0.500826657 0.8655476 -2.31588842E-07
vn -0.5008268 0.865547538 -1.11802237E-07
vn -0.5008268 0.865547538 -2.84083768E-07
vn -0.500826836 0.865547538 -2.61475833E-07
vn -0.500826836 0.8655475 -2.8400035E-07
vn -0.500826836 0.8655475 -2.83098046E-07
vn -0.5008268 0.865547538 -2.8988697E-07
vn -0.500826836 0.865547538 -3.69566322E-07
vn -0.5008268 0.865547538 -1.7092222E-07
vn -0.500826836 0.865547538 -1.50591958E-07
vn -0.5008268 0.865547538 -1.87828078E-07
vn -0.5008268 0.865547538 -1.55347649E-07
vn -0.5008267 0.865547538 -6.29059542E-08
vn -0.5008269 0.8655475 -1.43812944E-08
vn -0.500826836 0.865547538 8.350684E-09
vn -0.500826955 0.8655474 2.18495444E-08
vn -0.500826955 0.8655474 -1.28990223E-07
vn -0.5008269 0.8655475 -5.04032727E-08
vn -0.500826955 0.8655474 -6.332506E-08
vn -0.500826955 0.8655474 -1.99895311E-07
vn -0.500826836 0.865547538 -3.41529358E-07
vn -0.5008269 0.8655475 -3.45535454E-07
vn -0.5008267 0.865547538 -3.30854078E-07
vn -0.5008267 0.8655476 -6.332881E-08
vn -0.5008268 0.865547538 -1.86974916E-07
vn -0.500826836 0.865547538 1.43978163E-08
vn -0.5008269 0.8655475 1.1295819E-07
vn -0.5008268 0.865547538 4.12952446E-08
vn -0.500826836 0.8655475 2.10485531E-08
vn -0.500826836 0.8655475 -1.206824E-07
vn -0.500826836 0.8655475 -1.75951527E-07
vn -0.500826836 0.8655475 -1.85499886E-07
vn -0.500826836 0.8655475 -1.97502942E-07
vn -0.500826836 0.865547538 -2.14108255E-07
vn -0.500826836 0.865547538 -2.28075365E-07
vn -0.500826836 0.865547538 -1.31328335E-07
vn -0.500826955 0.8655474 -3.00375813E-09
vn -0.5009974 -0.8654488 1.92377357E-07
vn -0.500997365 -0.865448833 1.14406369E-07
vn -0.5009974 -0.8654488 2.21292453E-07
vn -0.5009974 -0.8654488 1.94086439E-07
vn -0.500997365 -0.8654488 2.26721426E-07
vn -0.500997365 -0.865448833 -9.777803E-08
vn -0.5009974 -0.8654488 5.23219938E-08
vn -0.500997365 -0.865448833 -2.046761E-08
vn -0.5009975 -0.8654487 5.75796477E-08
vn -0.5009974 -0.8654488 -3.625411E-08
vn -0.5009973 -0.865448833 -9.08475E-09
vn -0.5009974 -0.8654488 2.20890428E-07
vn -0.5009974 -0.8654488 1.657241E-07
vn -0.500997245 -0.8654489 -6.69531275E-09
vn -0.500997245 -0.8654489 -1.88051139E-08
vn -0.5009972 -0.8654489 1.64799246E-07
vn -0.500997245 -0.8654489 5.62681954E-08
vn -0.5009972 -0.8654489 4.683956E-09
vn -0.5009972 -0.8654489 1.60819468E-07
vn -0.5009973 -0.865448833 3.29273234E-07
vn -0.5009973 -0.865448833 3.13371856E-07
vn -0.500997365 -0.865448833 3.44915065E-07
vn -0.5009974 -0.8654488 2.99232454E-07
vn -0.5009974 -0.8654488 -1.18547504E-07
vn -0.5009974 -0.8654488 7.410804E-08
vn -0.5009975 -0.8654487 6.547193E-08
vn -0.5009974 -0.8654488 1.38598622E-07
vn -0.5009975 -0.8654488 2.25903037E-07
vn -0.5009975 -0.8654488 1.63359928E-07
vn -0.5009975 -0.8654488 1.98749618E-07
vn -0.5009974 -0.8654488 2.18461167E-07
vn -0.5009974 -0.8654488 2.50822069E-07
vn -0.5009974 -0.8654488 2.77747432E-07
vn -0.5009974 -0.8654488 2.51419578E-07
vn -0.500997365 -0.8654488 3.25662171E-07
vn -0.5009974 -0.8654488 1.68815234E-07
vn -0.5009978 -0.8654486 -1.43196459E-07
vn -0.5009974 -0.8654488 1.00495086E-07
vn -0.500997365 -0.8654488 1.51126812E-07
vn -0.500997365 -0.8654488 1.80013927E-07
vn -0.500997365 -0.8654488 2.25034867E-07
vn -0.500997365 -0.865448833 2.87582253E-07
vn -0.500997365 -0.8654488 2.65239578E-07
vn -0.5009973 -0.865448833 3.75763731E-09
vn -0.500997365 -0.8654488 1.4434238E-07
vn -0.500997365 -0.865448833 2.07271754E-07
vn -0.500997365 -0.8654488 1.72932872E-07
vn 0.5009974 0.8654488 -1.44754409E-07
vn 0.500997365 0.865448833 -1.871663E-07
vn 0.500997365 0.865448833 -2.07301269E-07
vn 0.500997365 0.865448833 -1.15596684E-07
vn 0.5009975 0.8654488 -8.155214E-07
vn 0.5009975 0.8654488 -7.204247E-08
vn 0.5009974 0.8654488 -7.849772E-08
vn 0.5009974 0.8654488 -6.75340273E-09
vn 0.5009975 0.8654488 -2.0795629E-07
vn 0.5009975 0.8654488 -1.86526545E-08
vn 0.5009974 0.8654488 -1.59025319E-07
vn 0.500997365 0.8654488 -7.322186E-08
vn 0.5009974 0.8654488 -2.35401487E-07
vn 0.500997365 0.865448833 -2.61436583E-07
vn 0.500997365 0.865448833 -2.77117323E-07
vn 0.500997365 0.865448833 -2.501952E-07
vn 0.500997365 0.8654488 -3.24669543E-07
vn 0.500997365 0.865448833 -3.409947E-07
vn 0.5009974 0.8654488 -2.19747832E-07
vn 0.5009974 0.8654488 -1.81716857E-07
vn 0.5009974 0.8654488 -1.71540265E-07
vn 0.5009974 0.8654488 -1.63383334E-07
vn 0.5009975 0.8654488 -5.69576244E-08
vn 0.500997245 0.8654489 4.9882023E-09
vn 0.500997365 0.865448833 2.51620413E-08
vn 0.500997245 0.865448833 7.69400543E-08
vn 0.5009972 0.8654489 -2.20850012E-07
vn 0.5009973 0.865448833 -1.88690343E-08
vn 0.500997245 0.8654489 -1.933307E-07
vn 0.500997245 0.8654489 -2.294391E-07
vn 0.5009973 0.865448833 -3.191244E-07
vn 0.500997245 0.8654489 -2.476612E-07
vn 0.5009975 0.8654488 -2.977782E-07
vn 0.5009975 0.8654488 -5.09547426E-08
vn 0.5009975 0.8654488 -2.14385139E-07
vn 0.500997841 0.865448534 2.078103E-07
vn 0.500997365 0.865448833 1.188059E-07
vn 0.5009974 0.8654488 4.884399E-08
vn 0.5009973 0.865448833 3.26289644E-08
vn 0.5009973 0.865448833 -1.01644275E-07
vn 0.500997365 0.865448833 -1.61476748E-07
vn 0.500997365 0.865448833 -1.85930361E-07
vn 0.500997365 0.8654488 -1.93717923E-07
vn 0.5009973 0.865448833 -2.008441E-07
vn 0.5009974 0.8654488 -2.22521209E-07
vn 0.500997365 0.865448833 -2.18003308E-07
vn 0.500997365 0.865448833 1.35028762E-08
usemtl 03090016_part_0_material_0
f 1/1/1 2/2/2 3/3/3
f 3/3/3 4/4/4 1/1/1
f 2/2/2 5/5/5 6/6/6
f 6/6/6 3/3/3 2/2/2
f 5/5/5 7/7/7 8/8/8
f 8/8/8 6/6/6 5/5/5
f 7/7/7 1/1/1 4/4/4
f 4/4/4 8/8/8 7/7/7
f 9/9/9 10/10/10 11/11/11
f 11/11/11 12/12/12 9/9/9
f 13/13/13 14/14/14 10/10/10
f 10/10/10 9/9/9 13/13/13
f 15/15/15 16/16/16 14/14/14
f 14/14/14 13/13/13 15/15/15
f 12/12/12 11/11/11 16/16/16
f 16/16/16 15/15/15 12/12/12
f 17/17/17 18/18/18 19/19/19
f 19/19/19 20/20/20 17/17/17
f 21/21/21 22/22/22 23/23/23
f 23/23/23 24/24/24 21/21/21
f 25/25/25 26/26/26 27/27/27
f 27/27/27 28/28/28 25/25/25
f 29/29/29 30/30/30 31/31/31
f 31/31/31 32/32/32 29/29/29
f 19/19/19 33/33/33 34/34/34
f 34/34/34 20/20/20 19/19/19
f 23/23/23 35/35/35 36/36/36
f 36/36/36 24/24/24 23/23/23
f 27/27/27 37/37/37 38/38/38
f 38/38/38 28/28/28 27/27/27
f 31/31/31 39/39/39 40/40/40
f 40/40/40 32/32/32 31/31/31
f 41/41/41 42/42/42 43/43/43
f 43/43/43 44/44/44 41/41/41
f 45/45/45 46/46/46 33/33/33
f 38/38/38 47/47/47 35/35/35
f 48/48/48 47/47/47 37/37/37
f 34/34/34 46/46/46 39/39/39
f 49/49/49 50/50/50 51/51/51
f 52/52/52 53/53/53 49/49/49
f 54/54/54 55/55/55 52/52/52
f 51/51/51 56/56/56 54/54/54
f 57/57/57 26/26/26 25/25/25
f 58/58/58 22/22/22 21/21/21
f 59/59/59 18/18/18 17/17/17
f 60/60/60 30/30/30 29/29/29
f 21/21/21 61/61/61 19/19/19
f 19/19/19 18/18/18 21/21/21
f 25/25/25 28/28/28 23/23/23
f 23/23/23 22/22/22 25/25/25
f 29/29/29 62/62/62 27/27/27
f 27/27/27 26/26/26 29/29/29
f 17/17/17 20/20/20 31/31/31
f 31/31/31 30/30/30 17/17/17
f 19/19/19 61/61/61 45/45/45
f 45/45/45 33/33/33 19/19/19
f 23/23/23 28/28/28 38/38/38
f 38/38/38 35/35/35 23/23/23
f 27/27/27 62/62/62 48/48/48
f 48/48/48 37/37/37 27/27/27
f 31/31/31 20/20/20 34/34/34
f 34/34/34 39/39/39 31/31/31
f 46/46/46 34/34/34 33/33/33
f 47/47/47 36/36/36 35/35/35
f 47/47/47 38/38/38 37/37/37
f 46/46/46 40/40/40 39/39/39
f 57/57/57 29/29/29 26/26/26
f 58/58/58 25/25/25 22/22/22
f 59/59/59 21/21/21 18/18/18
f 60/60/60 17/17/17 30/30/30
f 63/63/63 64/64/64 65/65/65
f 65/65/65 66/66/66 67/67/67
f 63/63/63 65/65/65 67/67/67
f 68/68/68 69/69/69 70/70/70
f 68/68/68 70/70/70 71/71/71
f 68/68/68 71/71/71 72/72/72
f 73/73/73 74/74/74 75/75/75
f 76/76/76 73/73/73 75/75/75
f 77/77/77 76/76/76 75/75/75
f 78/78/78 79/79/79 80/80/80
f 80/80/80 81/81/81 82/82/82
f 78/78/78 80/80/80 82/82/82
f 83/83/83 84/84/84 85/85/85
f 85/85/85 86/86/86 83/83/83
f 87/87/87 88/88/88 83/83/83
f 83/83/83 86/86/86 87/87/87
f 89/89/89 90/90/90 91/91/91
f 91/91/91 92/92/92 93/93/93
f 89/89/89 91/91/91 93/93/93
f 94/94/94 95/95/95 96/96/96
f 94/94/94 96/96/96 97/97/97
f 94/94/94 97/97/97 98/98/98
f 99/99/99 100/100/100 101/101/101
f 102/102/102 99/99/99 101/101/101
f 103/103/103 102/102/102 101/101/101
f 104/104/104 105/105/105 106/106/106
f 106/106/106 107/107/107 108/108/108
f 104/104/104 106/106/106 108/108/108
f 109/109/109 110/110/110 111/111/111
f 111/111/111 112/112/112 113/113/113
f 109/109/109 111/111/111 113/113/113
f 114/114/114 115/115/115 116/116/116
f 114/114/114 116/116/116 117/117/117
f 114/114/114 117/117/117 118/118/118
f 119/119/119 120/120/120 121/121/121
f 122/122/122 119/119/119 121/121/121
f 123/123/123 122/122/122 121/121/121
f 124/124/124 125/125/125 126/126/126
f 126/126/126 127/127/127 128/128/128
f 124/124/124 126/126/126 128/128/128
usemtl 03090016_part_0_material_1
f 129/129/129 130/130/130 131/131/131
f 131/131/131 132/132/132 129/129/129
f 130/130/130 133/133/133 134/134/134
f 134/134/134 131/131/131 130/130/130
f 133/133/133 135/135/135 136/136/136
f 136/136/136 134/134/134 133/133/133
f 135/135/135 129/129/129 132/132/132
f 132/132/132 136/136/136 135/135/135
f 137/137/137 138/138/138 139/139/139
f 139/139/139 140/140/140 137/137/137
f 141/141/141 142/142/142 138/138/138
f 138/138/138 137/137/137 141/141/141
f 143/143/143 144/144/144 142/142/142
f 142/142/142 141/141/141 143/143/143
f 140/140/140 139/139/139 144/144/144
f 144/144/144 143/143/143 140/140/140
f 145/145/145 146/146/146 147/147/147
f 147/147/147 148/148/148 145/145/145
f 149/149/149 150/150/150 151/151/151
f 151/151/151 152/152/152 149/149/149
f 153/153/153 154/154/154 155/155/155
f 155/155/155 156/156/156 153/153/153
f 157/157/157 158/158/158 159/159/159
f 159/159/159 160/160/160 157/157/157
f 147/147/147 161/161/161 162/162/162
f 162/162/162 148/148/148 147/147/147
f 151/151/151 163/163/163 164/164/164
f 164/164/164 152/152/152 151/151/151
f 155/155/155 165/165/165 166/166/166
f 166/166/166 156/156/156 155/155/155
f 159/159/159 167/167/167 168/168/168
f 168/168/168 160/160/160 159/159/159
f 169/169/169 170/170/170 171/171/171
f 171/171/171 172/172/172 169/169/169
f 173/173/173 174/174/174 161/161/161
f 166/166/166 175/175/175 163/163/163
f 176/176/176 175/175/175 165/165/165
f 162/162/162 174/174/174 167/167/167
f 177/177/177 178/178/178 179/179/179
f 180/180/180 181/181/181 177/177/177
f 182/182/182 183/183/183 180/180/180
f 179/179/179 184/184/184 182/182/182
f 185/185/185 154/154/154 153/153/153
f 186/186/186 150/150/150 149/149/149
f 187/187/187 146/146/146 145/145/145
f 188/188/188 158/158/158 157/157/157
f 149/149/149 189/189/189 147/147/147
f 147/147/147 146/146/146 149/149/149
f 153/153/153 156/156/156 151/151/151
f 151/151/151 150/150/150 153/153/153
f 157/157/157 190/190/190 155/155/155
f 155/155/155 154/154/154 157/157/157
f 145/145/145 148/148/148 159/159/159
f 159/159/159 158/158/158 145/145/145
f 147/147/147 189/189/189 173/173/173
f 173/173/173 161/161/161 147/147/147
f 151/151/151 156/156/156 166/166/166
f 166/166/166 163/163/163 151/151/151
f 155/155/155 190/190/190 176/176/176
f 176/176/176 165/165/165 155/155/155
f 159/159/159 148/148/148 162/162/162
f 162/162/162 167/167/167 159/159/159
f 174/174/174 162/162/162 161/161/161
f 175/175/175 164/164/164 163/163/163
f 175/175/175 166/166/166 165/165/165
f 174/174/174 168/168/168 167/167/167
f 185/185/185 157/157/157 154/154/154
f 186/186/186 153/153/153 150/150/150
f 187/187/187 149/149/149 146/146/146
f 188/188/188 145/145/145 158/158/158
f 191/191/191 192/192/192 193/193/193
f 193/193/193 194/194/194 195/195/195
f 191/191/191 193/193/193 195/195/195
f 196/196/196 197/197/197 198/198/198
f 196/196/196 198/198/198 199/199/199
f 196/196/196 199/199/199 200/200/200
f 201/201/201 202/202/202 203/203/203
f 204/204/204 201/201/201 203/203/203
f 205/205/205 204/204/204 203/203/203
f 206/206/206 207/207/207 208/208/208
f 208/208/208 209/209/209 210/210/210
f 206/206/206 208/208/208 210/210/210
f 211/211/211 212/212/212 213/213/213
f 213/213/213 214/214/214 211/211/211
f 215/215/215 216/216/216 211/211/211
f 211/211/211 214/214/214 215/215/215
f 217/217/217 218/218/218 219/219/219
f 219/219/219 220/220/220 217/217/217
f 218/218/218 221/221/221 222/222/222
f 222/222/222 219/219/219 218/218/218
f 221/221/221 223/223/223 224/224/224
f 224/224/224 222/222/222 221/221/221
f 223/223/223 217/217/217 220/220/220
f 220/220/220 224/224/224 223/223/223
f 219/219/219 225/225/225 226/226/226
f 226/226/226 220/220/220 219/219/219
f 222/222/222 227/227/227 225/225/225
f 225/225/225 219/219/219 222/222/222
f 224/224/224 228/228/228 227/227/227
f 227/227/227 222/222/222 224/224/224
f 220/220/220 226/226/226 228/228/228
f 228/228/228 224/224/224 220/220/220
f 229/229/229 230/230/230 231/231/231
f 231/231/231 232/232/232 229/229/229
f 233/233/233 234/234/234 235/235/235
f 235/235/235 236/236/236 233/233/233
f 237/237/237 238/238/238 239/239/239
f 239/239/239 240/240/240 237/237/237
f 241/241/241 242/242/242 243/243/243
f 243/243/243 244/244/244 241/241/241
f 231/231/231 245/245/245 246/246/246
f 246/246/246 232/232/232 231/231/231
f 235/235/235 247/247/247 248/248/248
f 248/248/248 236/236/236 235/235/235
f 239/239/239 249/249/249 250/250/250
f 250/250/250 240/240/240 239/239/239
f 243/243/243 251/251/251 252/252/252
f 252/252/252 244/244/244 243/243/243
f 253/253/253 254/254/254 255/255/255
f 255/255/255 256/256/256 253/253/253
f 248/248/248 257/257/257 245/245/245
f 250/250/250 257/257/257 247/247/247
f 252/252/252 257/257/257 249/249/249
f 246/246/246 257/257/257 251/251/251
f 225/225/225 229/229/229 226/226/226
f 227/227/227 233/233/233 225/225/225
f 228/228/228 237/237/237 227/227/227
f 226/226/226 241/241/241 228/228/228
f 228/228/228 238/238/238 237/237/237
f 227/227/227 234/234/234 233/233/233
f 225/225/225 230/230/230 229/229/229
f 226/226/226 242/242/242 241/241/241
f 233/233/233 236/236/236 231/231/231
f 231/231/231 230/230/230 233/233/233
f 237/237/237 240/240/240 235/235/235
f 235/235/235 234/234/234 237/237/237
f 241/241/241 244/244/244 239/239/239
f 239/239/239 238/238/238 241/241/241
f 229/229/229 232/232/232 243/243/243
f 243/243/243 242/242/242 229/229/229
f 231/231/231 236/236/236 248/248/248
f 248/248/248 245/245/245 231/231/231
f 235/235/235 240/240/240 250/250/250
f 250/250/250 247/247/247 235/235/235
f 239/239/239 244/244/244 252/252/252
f 252/252/252 249/249/249 239/239/239
f 243/243/243 232/232/232 246/246/246
f 246/246/246 251/251/251 243/243/243
f 257/257/257 246/246/246 245/245/245
f 257/257/257 248/248/248 247/247/247
f 257/257/257 250/250/250 249/249/249
f 257/257/257 252/252/252 251/251/251
f 228/228/228 241/241/241 238/238/238
f 227/227/227 237/237/237 234/234/234
f 225/225/225 233/233/233 230/230/230
f 226/226/226 229/229/229 242/242/242
f 258/258/258 259/259/259 260/260/260
f 258/258/258 260/260/260 261/261/261
f 258/258/258 261/261/261 262/262/262
f 258/258/258 262/262/262 263/263/263
f 264/264/264 265/265/265 266/266/266
f 264/264/264 266/266/266 267/267/267
f 264/264/264 267/267/267 268/268/268
f 264/264/264 268/268/268 269/269/269
f 270/270/270 271/271/271 272/272/272
f 270/270/270 272/272/272 273/273/273
f 270/270/270 273/273/273 274/274/274
f 275/275/275 276/276/276 277/277/277
f 275/275/275 277/277/277 278/278/278
f 279/279/279 275/275/275 278/278/278
f 280/280/280 279/279/279 278/278/278
f 273/273/273 272/272/272 281/281/281
f 273/273/273 281/281/281 282/282/282
f 276/276/276 273/273/273 282/282/282
f 276/276/276 282/282/282 283/283/283
f 277/277/277 276/276/276 283/283/283
f 277/277/277 283/283/283 284/284/284
f 285/285/285 277/277/277 284/284/284
f 285/285/285 284/284/284 286/286/286
f 285/285/285 286/286/286 287/287/287
f 285/285/285 287/287/287 288/288/288
f 289/289/289 285/285/285 288/288/288
f 289/289/289 288/288/288 290/290/290
f 289/289/289 290/290/290 291/291/291
f 292/292/292 289/289/289 291/291/291
f 293/293/293 294/294/294 295/295/295
f 296/296/296 293/293/293 295/295/295
f 297/297/297 296/296/296 295/295/295
f 297/297/297 295/295/295 298/298/298
f 299/299/299 297/297/297 298/298/298
f 300/300/300 299/299/299 298/298/298
f 300/300/300 298/298/298 301/301/301
f 302/302/302 300/300/300 301/301/301
f 302/302/302 301/301/301 303/303/303
f 304/304/304 302/302/302 303/303/303
f 291/291/291 304/304/304 303/303/303
f 292/292/292 291/291/291 303/303/303
f 278/278/278 292/292/292 303/303/303
f 278/278/278 303/303/303 305/305/305
f 278/278/278 305/305/305 306/306/306
f 280/280/280 278/278/278 306/306/306
f 307/307/307 280/280/280 306/306/306
f 307/307/307 306/306/306 295/295/295
f 307/307/307 295/295/295 294/294/294
f 307/307/307 294/294/294 308/308/308
f 309/309/309 307/307/307 308/308/308
f 309/309/309 308/308/308 310/310/310
f 309/309/309 310/310/310 311/311/311
f 274/274/274 309/309/309 311/311/311
f 274/274/274 311/311/311 312/312/312
f 274/274/274 312/312/312 313/313/313
f 313/313/313 314/314/314 315/315/315
f 274/274/274 313/313/313 315/315/315
f 270/270/270 274/274/274 315/315/315
f 270/270/270 315/315/315 316/316/316
f 317/317/317 318/318/318 319/319/319
f 319/319/319 320/320/320 321/321/321
f 322/322/322 323/323/323 324/324/324
f 322/322/322 324/324/324 325/325/325
f 322/322/322 325/325/325 326/326/326
f 327/327/327 322/322/322 326/326/326
f 327/327/327 326/326/326 328/328/328
f 327/327/327 328/328/328 329/329/329
f 330/330/330 327/327/327 329/329/329
f 330/330/330 329/329/329 331/331/331
f 332/332/332 330/330/330 331/331/331
f 332/332/332 331/331/331 333/333/333
f 332/332/332 333/333/333 334/334/334
f 335/335/335 336/336/336 337/337/337
f 338/338/338 335/335/335 337/337/337
f 338/338/338 337/337/337 339/339/339
f 340/340/340 338/338/338 339/339/339
f 340/340/340 339/339/339 341/341/341
f 342/342/342 340/340/340 341/341/341
f 342/342/342 341/341/341 343/343/343
f 344/344/344 342/342/342 343/343/343
f 345/345/345 344/344/344 343/343/343
f 346/346/346 345/345/345 343/343/343
f 346/346/346 343/343/343 347/347/347
f 348/348/348 346/346/346 347/347/347
f 334/334/334 348/348/348 347/347/347
f 334/334/334 347/347/347 349/349/349
f 332/332/332 334/334/334 349/349/349
f 332/332/332 349/349/349 350/350/350
f 351/351/351 332/332/332 350/350/350
f 352/352/352 351/351/351 350/350/350
f 341/341/341 339/339/339 353/353/353
f 350/350/350 341/341/341 353/353/353
f 350/350/350 353/353/353 354/354/354
f 350/350/350 354/354/354 355/355/355
f 352/352/352 350/350/350 355/355/355
f 352/352/352 355/355/355 356/356/356
f 322/322/322 352/352/352 356/356/356
f 323/323/323 322/322/322 356/356/356
f 357/357/357 323/323/323 356/356/356
f 357/357/357 356/356/356 358/358/358
f 359/359/359 357/357/357 358/358/358
f 360/360/360 359/359/359 358/358/358
f 360/360/360 358/358/358 361/361/361
f 362/362/362 360/360/360 361/361/361
f 321/321/321 362/362/362 361/361/361
f 319/319/319 321/321/321 361/361/361
f 317/317/317 319/319/319 361/361/361
f 317/317/317 361/361/361 337/337/337
f 317/317/317 337/337/337 336/336/336
f 317/317/317 336/336/336 363/363/363
f 364/364/364 365/365/365 366/366/366
f 364/364/364 366/366/366 367/367/367
f 364/364/364 367/367/367 368/368/368
f 369/369/369 370/370/370 371/371/371
f 369/369/369 371/371/371 372/372/372
f 373/373/373 369/369/369 372/372/372
f 374/374/374 373/373/373 372/372/372
f 367/367/367 366/366/366 375/375/375
f 367/367/367 375/375/375 376/376/376
f 370/370/370 367/367/367 376/376/376
f 370/370/370 376/376/376 377/377/377
f 371/371/371 370/370/370 377/377/377
f 371/371/371 377/377/377 378/378/378
f 379/379/379 371/371/371 378/378/378
f 379/379/379 378/378/378 380/380/380
f 379/379/379 380/380/380 381/381/381
f 379/379/379 381/381/381 382/382/382
f 383/383/383 379/379/379 382/382/382
f 383/383/383 382/382/382 384/384/384
f 383/383/383 384/384/384 385/385/385
f 386/386/386 383/383/383 385/385/385
f 387/387/387 388/388/388 389/389/389
f 390/390/390 387/387/387 389/389/389
f 391/391/391 390/390/390 389/389/389
f 391/391/391 389/389/389 392/392/392
f 393/393/393 391/391/391 392/392/392
f 394/394/394 393/393/393 392/392/392
f 394/394/394 392/392/392 395/395/395
f 396/396/396 394/394/394 395/395/395
f 396/396/396 395/395/395 397/397/397
f 398/398/398 396/396/396 397/397/397
f 385/385/385 398/398/398 397/397/397
f 386/386/386 385/385/385 397/397/397
f 372/372/372 386/386/386 397/397/397
f 372/372/372 397/397/397 399/399/399
f 372/372/372 399/399/399 400/400/400
f 374/374/374 372/372/372 400/400/400
f 401/401/401 374/374/374 400/400/400
f 401/401/401 400/400/400 389/389/389
f 401/401/401 389/389/389 388/388/388
f 401/401/401 388/388/388 402/402/402
f 403/403/403 401/401/401 402/402/402
f 403/403/403 402/402/402 404/404/404
f 403/403/403 404/404/404 405/405/405
f 368/368/368 403/403/403 405/405/405
f 368/368/368 405/405/405 406/406/406
f 368/368/368 406/406/406 407/407/407
f 407/407/407 408/408/408 409/409/409
f 368/368/368 407/407/407 409/409/409
f 364/364/364 368/368/368 409/409/409
f 364/364/364 409/409/409 410/410/410
f 411/411/411 412/412/412 413/413/413
f 413/413/413 414/414/414 415/415/415
f 416/416/416 417/417/417 418/418/418
f 416/416/416 418/418/418 419/419/419
f 416/416/416 419/419/419 420/420/420
f 421/421/421 416/416/416 420/420/420
f 421/421/421 420/420/420 422/422/422
f 421/421/421 422/422/422 423/423/423
f 424/424/424 421/421/421 423/423/423
f 424/424/424 423/423/423 425/425/425
f 426/426/426 424/424/424 425/425/425
f 426/426/426 425/425/425 427/427/427
f 426/426/426 427/427/427 428/428/428
f 429/429/429 430/430/430 431/431/431
f 432/432/432 429/429/429 431/431/431
f 432/432/432 431/431/431 433/433/433
f 434/434/434 432/432/432 433/433/433
f 434/434/434 433/433/433 435/435/435
f 436/436/436 434/434/434 435/435/435
f 436/436/436 435/435/435 437/437/437
f 438/438/438 436/436/436 437/437/437
f 439/439/439 438/438/438 437/437/437
f 440/440/440 439/439/439 437/437/437
f 440/440/440 437/437/437 441/441/441
f 442/442/442 440/440/440 441/441/441
f 428/428/428 442/442/442 441/441/441
f 428/428/428 441/441/441 443/443/443
f 426/426/426 428/428/428 443/443/443
f 426/426/426 443/443/443 444/444/444
f 445/445/445 426/426/426 444/444/444
f 446/446/446 445/445/445 444/444/444
f 435/435/435 433/433/433 447/447/447
f 444/444/444 435/435/435 447/447/447
f 444/444/444 447/447/447 448/448/448
f 444/444/444 448/448/448 449/449/449
f 446/446/446 444/444/444 449/449/449
f 446/446/446 449/449/449 450/450/450
f 416/416/416 446/446/446 450/450/450
f 417/417/417 416/416/416 450/450/450
f 451/451/451 417/417/417 450/450/450
f 451/451/451 450/450/450 452/452/452
f 453/453/453 451/451/451 452/452/452
f 454/454/454 453/453/453 452/452/452
f 454/454/454 452/452/452 455/455/455
f 456/456/456 454/454/454 455/455/455
f 415/415/415 456/456/456 455/455/455
f 413/413/413 415/415/415 455/455/455
f 411/411/411 413/413/413 455/455/455
f 411/411/411 455/455/455 431/431/431
f 411/411/411 431/431/431 430/430/430
f 411/411/411 430/430/430 457/457/457
f 458/458/458 459/459/459 460/460/460
f 458/458/458 460/460/460 461/461/461
f 458/458/458 461/461/461 462/462/462
f 463/463/463 464/464/464 465/465/465
f 463/463/463 465/465/465 466/466/466
f 467/467/467 463/463/463 466/466/466
f 468/468/468 467/467/467 466/466/466
f 461/461/461 460/460/460 469/469/469
f 461/461/461 469/469/469 470/470/470
f 464/464/464 461/461/461 470/470/470
f 464/464/464 470/470/470 471/471/471
f 465/465/465 464/464/464 471/471/471
f 465/465/465 471/471/471 472/472/472
f 473/473/473 465/465/465 472/472/472
f 473/473/473 472/472/472 474/474/474
f 473/473/473 474/474/474 475/475/475
f 473/473/473 475/475/475 476/476/476
f 477/477/477 473/473/473 476/476/476
f 477/477/477 476/476/476 478/478/478
f 477/477/477 478/478/478 479/479/479
f 480/480/480 477/477/477 479/479/479
f 481/481/481 482/482/482 483/483/483
f 484/484/484 481/481/481 483/483/483
f 485/485/485 484/484/484 483/483/483
f 485/485/485 483/483/483 486/486/486
f 487/487/487 485/485/485 486/486/486
f 488/488/488 487/487/487 486/486/486
f 488/488/488 486/486/486 489/489/489
f 490/490/490 488/488/488 489/489/489
f 490/490/490 489/489/489 491/491/491
f 492/492/492 490/490/490 491/491/491
f 479/479/479 492/492/492 491/491/491
f 480/480/480 479/479/479 491/491/491
f 466/466/466 480/480/480 491/491/491
f 466/466/466 491/491/491 493/493/493
f 466/466/466 493/493/493 494/494/494
f 468/468/468 466/466/466 494/494/494
f 495/495/495 468/468/468 494/494/494
f 495/495/495 494/494/494 483/483/483
f 495/495/495 483/483/483 482/482/482
f 495/495/495 482/482/482 496/496/496
f 497/497/497 495/495/495 496/496/496
f 497/497/497 496/496/496 498/498/498
f 497/497/497 498/498/498 499/499/499
f 462/462/462 497/497/497 499/499/499
f 462/462/462 499/499/499 500/500/500
f 462/462/462 500/500/500 501/501/501
f 501/501/501 502/502/502 503/503/503
f 462/462/462 501/501/501 503/503/503
f 458/458/458 462/462/462 503/503/503
f 458/458/458 503/503/503 504/504/504
f 505/505/505 506/506/506 507/507/507
f 507/507/507 508/508/508 509/509/509
f 510/510/510 511/511/511 512/512/512
f 510/510/510 512/512/512 513/513/513
f 510/510/510 513/513/513 514/514/514
f 515/515/515 510/510/510 514/514/514
f 515/515/515 514/514/514 516/516/516
f 515/515/515 516/516/516 517/517/517
f 518/518/518 515/515/515 517/517/517
f 518/518/518 517/517/517 519/519/519
f 520/520/520 518/518/518 519/519/519
f 520/520/520 519/519/519 521/521/521
f 520/520/520 521/521/521 522/522/522
f 523/523/523 524/524/524 525/525/525
f 526/526/526 523/523/523 525/525/525
f 526/526/526 525/525/525 527/527/527
f 528/528/528 526/526/526 527/527/527
f 528/528/528 527/527/527 529/529/529
f 530/530/530 528/528/528 529/529/529
f 530/530/530 529/529/529 531/531/531
f 532/532/532 530/530/530 531/531/531
f 533/533/533 532/532/532 531/531/531
f 534/534/534 533/533/533 531/531/531
f 534/534/534 531/531/531 535/535/535
f 536/536/536 534/534/534 535/535/535
f 522/522/522 536/536/536 535/535/535
f 522/522/522 535/535/535 537/537/537
f 520/520/520 522/522/522 537/537/537
f 520/520/520 537/537/537 538/538/538
f 539/539/539 520/520/520 538/538/538
f 540/540/540 539/539/539 538/538/538
f 529/529/529 527/527/527 541/541/541
f 538/538/538 529/529/529 541/541/541
f 538/538/538 541/541/541 542/542/542
f 538/538/538 542/542/542 543/543/543
f 540/540/540 538/538/538 543/543/543
f 540/540/540 543/543/543 544/544/544
f 510/510/510 540/540/540 544/544/544
f 511/511/511 510/510/510 544/544/544
f 545/545/545 511/511/511 544/544/544
f 545/545/545 544/544/544 546/546/546
f 547/547/547 545/545/545 546/546/546
f 548/548/548 547/547/547 546/546/546
f 548/548/548 546/546/546 549/549/549
f 550/550/550 548/548/548 549/549/549
f 509/509/509 550/550/550 549/549/549
f 507/507/507 509/509/509 549/549/549
f 505/505/505 507/507/507 549/549/549
f 505/505/505 549/549/549 525/525/525
f 505/505/505 525/525/525 524/524/524
f 505/505/505 524/524/524 551/551/551
