mtllib 04070025.mtl
o 04070025_part_0
v 0.03721062 0.1527824 0.6150282
v 0.0421778932 0.065878354 0.552932858
v 0.0372106247 0.101312004 0.537095547
v 0.04818681 0.0152426185 0.4483121
v 0.0372106433 -0.009007667 0.53903687
v 0.0372106433 -0.0464927442 0.458523721
v 0.0372106321 0.06989705 0.5985034
v 0.03224337 0.065878354 0.552932858
v 0.0262344629 0.0152426148 0.4483121
v 0.0586563945 0.00491738459 0.355849057
v 0.04818681 0.0152426185 0.4483121
v 0.0372106433 -0.0464927442 0.458523721
v 0.0372106433 -0.059941154 0.3582843
v 0.05024665 -0.0258183256 0.26740694
v 0.0372106433 -0.07668046 0.2934962
v 0.0241746139 -0.02581833 0.26740697
v 0.015764866 0.004917378 0.3558491
v 0.0241746046 0.043364808 0.2648094
v 0.0502466373 0.043364808 0.2648094
v 0.0511225648 -0.03061197 0.220318526
v 0.0511225536 0.0451312959 0.217474714
v 0.023298692 0.043688558 0.21752888
v 0.0232987069 -0.0291692447 0.220264375
v 0.0262344629 0.0152426148 0.4483121
v 0.0178760458 0.0448374152 0.146616474
v -0.00100322638 0.0234020259 0.152575865
v 0.0372106358 -0.0389568545 0.246703163
v 0.03721064 -0.06258663 0.237924471
v 0.0274757482 -0.0731706 0.1741204
v 0.01787606 -0.035272304 0.149624243
v 0.05654521 -0.0352722928 0.149624243
v 0.04694552 -0.0731706 0.1741204
v 0.0372106358 -0.0526268147 0.1944108
v -0.00100322987 -0.013146461 0.153948113
v 0.0243337881 -0.01778803 0.104764216
v 0.0372106321 -0.07228226 0.148608983
v 0.0307722148 -0.06987829 0.107944176
v 0.0500874743 -0.0177880265 0.104764216
v 0.0436490476 -0.06987829 0.107944176
v 0.03399143 -0.106332123 0.130920768
v 0.0404298455 -0.106332123 0.130920768
v 0.0372106433 -0.122285984 0.172338769
v 0.0243337825 0.0239697825 0.103196353
v 0.03721064 -0.08914762 0.198920116
v 0.0372106172 0.0553497039 0.243162334
v 0.0372106135 0.0782546848 0.2326365
v 0.027475724 0.08402449 0.168218419
v 0.0469454937 0.0840245 0.168218419
v 0.0565451942 0.0448374264 0.146616429
v 0.0372106135 0.06506003 0.189992219
v 0.03721061 0.081225656 0.1428454
v 0.0307721887 0.07577917 0.10247539
v 0.0436490253 0.07577917 0.10247539
v 0.0500874668 0.0239697862 0.103196353
v 0.0339913927 0.113853283 0.122653775
v 0.0404298119 0.113853283 0.122653775
v 0.0372106023 0.132867992 0.162758887
v 0.03721061 0.101816125 0.191750258
v 0.0754245 0.023402039 0.15257585
v 0.07542451 -0.0131464442 0.153948113
v 0.0372106135 0.0959864259 0.287013322
v 0.03721062 0.0697759241 0.3534139
v 0.0243337825 0.0239697825 0.103196353
v 0.0500874668 0.0239697862 0.103196353
v 0.0500874743 -0.0177880265 0.104764216
v 0.0243337881 -0.01778803 0.104764216
v 0.0638895854 0.000443500438 0.0500291735
v 0.03721061 0.0354577936 0.0418260545
v 0.0372106172 0.0183540657 0.106280357
v 0.0465216264 0.004793779 0.106737465
v 0.0372106247 -0.0328639559 0.0565826334
v 0.0372106247 -0.0109376386 0.107476771
v 0.0278996136 0.00479377573 0.106737465
v 0.0105316518 0.0004434936 0.0500291772
v 0.07815467 0.00529209 -0.0620435141
v 0.0372106023 0.0472991765 -0.07621469
v 0.0372106135 -0.0353900157 -0.0401640944
v -0.003733444 0.00529207941 -0.0620435141
v 0.037210606 0.0281717367 -0.1299941
v 0.05621193 0.009302185 -0.127369225
v 0.037210606 -0.0203376841 -0.125588834
v 0.0182092842 0.0093021905 -0.127369225
v 0.0372106023 0.05058456 -0.179210782
v 0.037210606 0.000905341469 -0.158213273
v 0.0295661632 0.0247086342 -0.102280244
v -0.04247012 0.07070801 -0.08794944
v 0.0270420127 0.03237239 -0.05354309
v 0.007795985 0.00410972955 -0.07513217
v 0.0448550619 0.0247086361 -0.102280252
v 0.04737921 0.0323723964 -0.0535430945
v 0.116891317 0.07070805 -0.08794945
v 0.0666252449 0.004109752 -0.07513214
v 0.0372106247 0.0769779757 0.438100547
v 0.0372106247 0.0769779757 0.438100547
v 0.03721062 0.197436392 0.6353591
v 0.06714507 0.06616331 0.554181337
v 0.037210647 0.124226667 0.5270996
v 0.0730865151 0.0151466895 0.4505472
v 0.0372106545 -0.03005101 0.5525342
v 0.0372106 -0.070556514 0.465301245
v 0.0372106321 0.0610544235 0.6218873
v 0.007276192 0.0661633 0.554181337
v 0.00133476069 0.01514668 0.4505472
v 0.08361365 0.004619871 0.3572798
v 0.0372106545 -0.08475171 0.3613561
v 0.07233207 -0.0372034237 0.264647663
v 0.03721064 -0.101208188 0.288659751
v 0.00210621278 -0.03721854 0.2645749
v -0.009192388 0.004619856 0.357279837
v 0.00204988453 0.05457088 0.261659682
v 0.0723872 0.05455994 0.261733
v 0.0722686052 -0.0572700538 0.219587326
v 0.0722514838 0.0639633462 0.213448912
v 0.00172189274 0.0617560335 0.213617131
v 0.00170611229 -0.0550569221 0.219591081
v -0.00308077014 0.057871528 0.143650219
v -0.0239472464 0.03119614 0.1524263
v 0.0368400253 -0.0612287819 0.2580532
v 0.0370983072 -0.0870885 0.2428889
v 0.008740281 -0.08755913 0.165937945
v 0.00033486943 -0.0521353148 0.14388442
v 0.07399654 -0.0521595143 0.143685117
v 0.06568099 -0.08755913 0.16593793
v 0.03696163 -0.0707005 0.211681589
v -0.02399256 -0.020343069 0.154334217
v 0.0372106433 -0.108339064 0.214941621
v 0.0368446931 0.0782972053 0.253075868
v 0.03709788 0.103057958 0.235764548
v 0.07749182 0.05796518 0.1433881
v 0.07005228 0.0902547762 0.161684692
v 0.0369581655 0.0844319239 0.205793023
v 0.004368939 0.09025476 0.161684692
v 0.03721061 0.122154914 0.206287563
v 0.0984327346 0.0310913846 0.152317286
v 0.0984762758 -0.02024761 0.1542203
v 0.0372105353 0.120576166 0.2825028
v 0.0372106 0.09471906 0.355099142
v 0.03721062 0.101647072 0.434046477
vt 0.7194888 0.298874974
vt 0.835235238 0.537584662
vt 0.7408497 0.5294703
vt 0.8240855 0.826267838
vt 0.981735945 0.6542818
vt 0.9760237 0.877874434
vt 0.8775055 0.437116385
vt 0.835235238 0.537584662
vt 0.8240855 0.826267838
vt 0.5156847 0.657408834
vt 0.4987024 0.88747853
vt 0.6526232 0.907037735
vt 0.6766208 0.6574088
vt 0.5842382 0.445994616
vt 0.7064636 0.499677837
vt 0.5842382 0.445994616
vt 0.5156847 0.657408834
vt 0.4125712 0.445994616
vt 0.412571251 0.445994616
vt 0.58935076 0.3182795
vt 0.4045675 0.3182795
vt 0.405347466 0.3182795
vt 0.5892939 0.3182795
vt 0.4987024 0.88747853
vt 0.397303551 0.142676234
vt 0.452337325 0.139059544
vt 0.6142442 0.3828801
vt 0.6719784 0.3589297
vt 0.692268252 0.1998483
vt 0.5960831 0.142676234
vt 0.5960831 0.142676234
vt 0.692268252 0.1998483
vt 0.6432515 0.2520361
vt 0.5430267 0.139059544
vt 0.5507168 0.0075789094
vt 0.6876936 0.136717558
vt 0.6779537 0.03618008
vt 0.5507168 0.0075789094
vt 0.6779537 0.03618008
vt 0.7704182 0.0897212
vt 0.7704182 0.0897212
vt 0.8138028 0.190864384
vt 0.447101563 0.0075789094
vt 0.7341639 0.259811759
vt 0.380237639 0.3828801
vt 0.322503328 0.3589297
vt 0.3022137 0.1998483
vt 0.3022137 0.1998483
vt 0.397303551 0.142676234
vt 0.351230472 0.2520361
vt 0.306788325 0.136717558
vt 0.3165281 0.03618008
vt 0.3165281 0.03618008
vt 0.447101563 0.0075789094
vt 0.224063531 0.0897212
vt 0.224063531 0.0897212
vt 0.180679128 0.190864384
vt 0.260317981 0.259811759
vt 0.452337325 0.139059544
vt 0.5430267 0.139059544
vt 0.283625633 0.4965626
vt 0.3547486 0.6574089
vt 0.447101563 0.0075789094
vt 0.447101563 0.0075789094
vt 0.5507168 0.0075789094
vt 0.5507168 0.0075789094
vt 0.117948674 0.333503246
vt 0.225365117 0.344033241
vt 0.138711363 0.1903876
vt 0.100591913 0.189203143
vt 0.0162636023 0.327204823
vt 0.05636777 0.1872412
vt 0.100591913 0.189203143
vt 0.117948674 0.333503246
vt 0.176780745 0.6649939
vt 0.307365179 0.69050765
vt 0.03237546 0.616023242
vt 0.176780745 0.6649939
vt 0.2717715 0.858078241
vt 0.214595243 0.8577462
vt 0.134116992 0.863143444
vt 0.214595243 0.8577462
vt 0.3579503 0.995615244
vt 0.212342381 0.92866987
vt 0.105578206 0.7907416
vt 0.255219042 0.944583654
vt 0.102430232 0.790483952
vt 0.151210964 0.77226907
vt 0.105588578 0.7907681
vt 0.1024406 0.7905103
vt 0.255229652 0.9446101
vt 0.151221335 0.7722954
vt 0.6721473 0.7746613
vt 0.344781637 0.8679193
vt 0.9995005 0.000499606133
vt 0.6192539 0.154798746
vt 0.825136065 0.210526347
vt 0.438358 0.368052721
vt 0.278095156 0.1581881
vt 0.134469837 0.33769244
vt 0.6011387 0.0154762268
vt 0.6192539 0.154798746
vt 0.438358 0.368052721
vt 0.401031733 0.5599744
vt 0.08413613 0.5515864
vt 0.252733767 0.7505889
vt 0.0257844031 0.701177835
vt 0.252680182 0.75073874
vt 0.4010317 0.5599744
vt 0.578149 0.7567375
vt 0.5781102 0.7565866
vt 0.230017632 0.8356689
vt 0.5914991 0.8434391
vt 0.5836724 0.843093
vt 0.237865 0.8356612
vt 0.589852452 0.985257268
vt 0.495266318 0.968550146
vt 0.167544186 0.7641587
vt 0.07585025 0.7953632
vt 0.07418144 0.9537096
vt 0.199787915 0.999090433
vt 0.199702114 0.9995005
vt 0.07418144 0.9537096
vt 0.133959144 0.8595803
vt 0.312517524 0.964624166
vt 0.0004995465 0.8528719
vt 0.6622783 0.7744009
vt 0.750075459 0.8100234
vt 0.590184569 0.9857966
vt 0.714553356 0.9425758
vt 0.6840309 0.871697545
vt 0.714553356 0.9425758
vt 0.817789853 0.87068
vt 0.494894862 0.968774438
vt 0.312856 0.964858532
vt 0.812191963 0.713847458
vt 0.7205073 0.564461768
vt 0.745072842 0.402007282
vn -1.02718013E-06 0.824754536 0.565490842
vn 0.9989199 0.0129297953 0.04462964
vn -2.9495277E-07 0.9165862 -0.399837047
vn 0.99815017 0.0137997121 0.0592094734
vn 2.16786646E-07 -0.7427749 0.6695412
vn 1.84753233E-07 -0.913929343 0.405873328
vn 1.251598E-07 -0.35370484 0.9353571
vn -0.9989199 0.0129294768 0.0446297079
vn -0.9971325 0.00221951422 0.07564307
vn 0.9992552 0.0014488172 0.0385607667
vn 0.99815017 0.0137997121 0.0592094734
vn 1.84753233E-07 -0.913929343 0.405873328
vn 1.206238E-07 -0.9924225 0.122872092
vn 0.883416951 -0.455403864 -0.110371068
vn 2.08027274E-07 -0.981108963 -0.193456009
vn -0.8827361 -0.456008554 -0.1132838
vn -0.9995968 -0.0114955315 0.0259631574
vn -0.884988844 0.448242843 -0.125988662
vn 0.88562274 0.4478052 -0.123056367
vn 0.8458417 -0.5199161 0.119327396
vn 0.8451572 0.528184652 0.0820381
vn -0.863071859 0.497601658 0.08660013
vn -0.8637037 -0.48909992 0.121643312
vn -0.9971325 0.00221951422 0.07564307
vn -0.783097863 0.604080439 -0.147798926
vn -0.9548167 0.2859811 -0.08086978
vn -0.0148138767 -0.890879035 0.453999
vn -0.00449318346 -0.980075061 0.198576763
vn -0.749418736 -0.57554096 -0.327298284
vn -0.7864063 -0.6092078 -0.102132365
vn 0.7850844 -0.6102039 -0.106271304
vn 0.7494187 -0.57554096 -0.327298462
vn -0.009960287 -0.7229472 0.6908315
vn -0.9560232 -0.2871737 -0.0595888421
vn -0.752122 -0.200067416 -0.6279216
vn -8.110152E-09 -0.487511 0.873116851
vn -0.6856173 -0.2839655 -0.6702928
vn 0.752122 -0.200067326 -0.627921641
vn 0.6856174 -0.2839654 -0.670292854
vn -0.6724948 -0.5947594 -0.440467954
vn 0.6724949 -0.5947592 -0.440468
vn 4.938272E-07 -0.5856295 0.8105789
vn -0.751746356 0.152782142 -0.64150995
vn 1.68080035E-07 -0.7676577 0.6408601
vn -0.0146381231 0.917899966 0.3965418
vn -0.004509399 0.9921311 0.1251218
vn -0.749397 0.5508607 -0.367364466
vn 0.7493967 0.550861061 -0.367364466
vn 0.7817597 0.60476774 -0.152012616
vn -0.0100979879 0.774876237 0.6320323
vn -8.39753E-08 0.5559024 0.831247568
vn -0.685432851 0.233284518 -0.689753652
vn 0.6854327 0.233284816 -0.6897537
vn 0.7517462 0.1527825 -0.641510069
vn -0.672494948 0.5600558 -0.483826429
vn 0.6724948 0.560056 -0.4838265
vn -2.22061573E-07 0.644763649 0.764382
vn -2.85471327E-08 0.8135519 0.581492364
vn 0.955410242 0.2833654 -0.08303799
vn 0.9565988 -0.284759462 -0.0618934333
vn -1.37314146E-07 0.9835893 -0.180422038
vn 0.0124191539 0.992450535 0.12201494
vn 5.427343E-09 -0.03752032 -0.9992959
vn 5.427343E-09 -0.03752032 -0.9992959
vn 5.427343E-09 -0.03752032 -0.9992959
vn 5.42734258E-09 -0.03752032 -0.9992959
vn 0.984635 -0.0192512646 0.1735607
vn -0.0147875361 0.9829309 0.18338
vn -1.09674737E-07 0.951420665 0.307894
vn 0.9556789 0.0610565133 0.2880104
vn 0.003427356 -0.971727 0.23608236
vn -0.0298489 -0.900072038 0.434717536
vn -0.9639505 0.0351174437 0.2637539
vn -0.983204365 -0.00233767834 0.182493076
vn 0.992424 -0.0382124744 -0.116766468
vn -0.004846927 0.9916963 -0.128510445
vn 0.01926414 -0.9983147 -0.054741893
vn -0.99733 0.00234624883 -0.0729883239
vn 5.25288577E-08 0.994657 0.103235185
vn 0.970452964 0.0143565675 -0.240862831
vn 0.0438171476 -0.924787045 -0.377953678
vn -0.958524942 0.04891273 -0.2807801
vn -1.85765686E-07 0.6884572 -0.725277
vn -6.17938944E-09 -0.597921 -0.801555037
vn 0.06514213 0.388382554 -0.919192851
vn -0.7780397 0.613792539 -0.133839473
vn -0.0170329362 0.6505583 0.7592653
vn -0.801817536 -0.595404267 0.0508178063
vn -0.06514199 0.388382226 -0.91919297
vn 0.0170326177 0.6505585 0.7592652
vn 0.778039 0.6137934 -0.133839667
vn 0.801817834 -0.595403731 0.0508185849
vn 0.018764263 0.999235868 -0.0342875347
vn 0.018764263 0.999235868 -0.0342875347
vn -2.98264581E-07 0.856429 0.516264856
vn 0.990461767 0.035212703 0.1332126
vn 4.35463278E-07 0.9155565 -0.4021894
vn 0.997200131 -0.0117968824 0.07384244
vn 3.333496E-07 -0.8025722 0.596555
vn -3.98544472E-07 -0.9466986 0.322120756
vn 3.054113E-08 -0.329673 0.9440952
vn -0.990461767 0.0352125466 0.1332126
vn -0.99612993 -0.0203947742 0.08549403
vn 0.9976326 -0.008026041 0.0682989955
vn -2.6604459E-05 -0.9840364 0.177967474
vn 0.9159452 -0.401294649 0.00264545716
vn -1.53361761E-05 -0.9594727 -0.281801552
vn -0.9141016 -0.405479 0.002241821
vn -0.998082936 -0.0173279382 0.0594152436
vn -0.903049 0.428663045 -0.0273947548
vn 0.9049077 0.4248573 -0.025266001
vn 0.7627673 -0.6325167 0.1345683
vn 0.805023849 0.584347844 0.102343462
vn -0.8214885 0.5601636 0.106645711
vn -0.7819499 -0.608010232 0.1373973
vn -0.830066144 0.528363943 0.178386435
vn -0.929058969 0.266369075 0.256704062
vn -0.012268926 -0.603691041 0.797123969
vn -0.006868625 -0.97905153 0.203496829
vn -0.760238767 -0.6048525 -0.237045228
vn -0.6786602 -0.676454663 -0.2860584
vn 0.6730908 -0.67798 -0.295452029
vn 0.763240159 -0.6024326 -0.23353681
vn -0.0203621164 -0.6323448 0.7744194
vn -0.940355539 -0.232003108 0.2488092
vn 0.00248144264 -0.7088492 0.7053557
vn -0.0121573089 0.6884585 0.725173831
vn -0.00476903562 0.9954101 0.0955826044
vn 0.8306844 0.5312852 0.166431427
vn 0.889030039 0.2289938 0.396468669
vn -0.0150826387 0.5024211 0.8644915
vn -0.889685452 0.238977522 0.389036715
vn 0.00235281 0.81604135 0.577988744
vn 0.9303067 0.260186 0.258520335
vn 0.9410992 -0.226859525 0.250733018
vn -2.7291042E-05 0.965722442 -0.259576827
vn 0.0103351595 0.9879232 0.154599383
vn 0.0131074851 0.986905336 -0.160767019
usemtl 04070025_part_0_material_0
f 1/1/1 2/2/2 3/3/3
f 4/4/4 2/2/2 5/5/5
f 5/5/5 6/6/6 4/4/4
f 5/5/5 7/7/7 8/8/8
f 5/5/5 8/8/8 9/9/9
f 9/9/9 6/6/6 5/5/5
f 10/10/10 11/11/11 12/12/12
f 12/12/12 13/13/13 10/10/10
f 7/7/7 5/5/5 2/2/2
f 7/7/7 1/1/1 8/8/8
f 14/14/14 15/15/15 16/16/16
f 16/16/16 15/15/15 13/13/13
f 16/16/16 17/17/17 18/18/18
f 19/19/19 14/14/14 20/20/20
f 20/20/20 21/21/21 19/19/19
f 18/18/18 22/22/22 23/23/23
f 23/23/23 16/16/16 18/18/18
f 14/14/14 10/10/10 13/13/13
f 13/13/13 15/15/15 14/14/14
f 12/12/12 24/24/24 17/17/17
f 17/17/17 13/13/13 12/12/12
f 22/22/22 25/25/25 26/26/26
f 14/14/14 16/16/16 27/27/27
f 16/16/16 23/23/23 27/27/27
f 23/23/23 20/20/20 28/28/28
f 20/20/20 27/27/27 28/28/28
f 29/29/29 30/30/30 31/31/31
f 31/31/31 32/32/32 29/29/29
f 31/31/31 33/33/33 32/32/32
f 20/20/20 23/23/23 33/33/33
f 23/23/23 30/30/30 33/33/33
f 30/30/30 29/29/29 33/33/33
f 23/23/23 28/28/28 27/27/27
f 20/20/20 14/14/14 27/27/27
f 31/31/31 20/20/20 33/33/33
f 30/30/30 34/34/34 35/35/35
f 31/31/31 30/30/30 36/36/36
f 36/36/36 30/30/30 35/35/35
f 35/35/35 37/37/37 36/36/36
f 37/37/37 35/35/35 38/38/38
f 38/38/38 39/39/39 37/37/37
f 36/36/36 39/39/39 38/38/38
f 38/38/38 31/31/31 36/36/36
f 37/37/37 40/40/40 36/36/36
f 40/40/40 37/37/37 39/39/39
f 39/39/39 41/41/41 40/40/40
f 36/36/36 41/41/41 39/39/39
f 41/41/41 42/42/42 40/40/40
f 40/40/40 42/42/42 36/36/36
f 36/36/36 42/42/42 41/41/41
f 34/34/34 30/30/30 23/23/23
f 22/22/22 26/26/26 34/34/34
f 34/34/34 23/23/23 22/22/22
f 43/43/43 35/35/35 34/34/34
f 34/34/34 26/26/26 43/43/43
f 26/26/26 25/25/25 43/43/43
f 32/32/32 44/44/44 29/29/29
f 33/33/33 44/44/44 32/32/32
f 29/29/29 44/44/44 33/33/33
f 19/19/19 45/45/45 18/18/18
f 18/18/18 45/45/45 22/22/22
f 22/22/22 46/46/46 21/21/21
f 21/21/21 46/46/46 45/45/45
f 47/47/47 48/48/48 49/49/49
f 49/49/49 25/25/25 47/47/47
f 49/49/49 48/48/48 50/50/50
f 21/21/21 50/50/50 22/22/22
f 22/22/22 50/50/50 25/25/25
f 25/25/25 50/50/50 47/47/47
f 22/22/22 45/45/45 46/46/46
f 21/21/21 45/45/45 19/19/19
f 49/49/49 50/50/50 21/21/21
f 49/49/49 51/51/51 25/25/25
f 51/51/51 52/52/52 43/43/43
f 43/43/43 25/25/25 51/51/51
f 52/52/52 53/53/53 54/54/54
f 54/54/54 43/43/43 52/52/52
f 51/51/51 49/49/49 54/54/54
f 54/54/54 53/53/53 51/51/51
f 52/52/52 51/51/51 55/55/55
f 55/55/55 56/56/56 53/53/53
f 53/53/53 52/52/52 55/55/55
f 51/51/51 53/53/53 56/56/56
f 56/56/56 55/55/55 57/57/57
f 55/55/55 51/51/51 57/57/57
f 51/51/51 56/56/56 57/57/57
f 48/48/48 47/47/47 58/58/58
f 50/50/50 48/48/48 58/58/58
f 47/47/47 50/50/50 58/58/58
f 21/21/21 59/59/59 49/49/49
f 31/31/31 38/38/38 60/60/60
f 60/60/60 20/20/20 31/31/31
f 60/60/60 59/59/59 21/21/21
f 21/21/21 20/20/20 60/60/60
f 54/54/54 59/59/59 60/60/60
f 60/60/60 38/38/38 54/54/54
f 59/59/59 54/54/54 49/49/49
f 19/19/19 18/18/18 61/61/61
f 18/18/18 62/62/62 61/61/61
f 62/62/62 19/19/19 61/61/61
f 63/63/63 64/64/64 65/65/65
f 65/65/65 66/66/66 63/63/63
f 67/67/67 68/68/68 69/69/69
f 69/69/69 70/70/70 67/67/67
f 71/71/71 72/72/72 73/73/73
f 73/73/73 74/74/74 71/71/71
f 74/74/74 73/73/73 69/69/69
f 69/69/69 68/68/68 74/74/74
f 72/72/72 71/71/71 67/67/67
f 67/67/67 70/70/70 72/72/72
f 75/75/75 76/76/76 68/68/68
f 68/68/68 67/67/67 75/75/75
f 77/77/77 75/75/75 67/67/67
f 67/67/67 71/71/71 77/77/77
f 78/78/78 77/77/77 71/71/71
f 71/71/71 74/74/74 78/78/78
f 76/76/76 78/78/78 74/74/74
f 74/74/74 68/68/68 76/76/76
f 79/79/79 76/76/76 75/75/75
f 75/75/75 80/80/80 79/79/79
f 80/80/80 75/75/75 77/77/77
f 77/77/77 81/81/81 80/80/80
f 81/81/81 77/77/77 78/78/78
f 78/78/78 82/82/82 81/81/81
f 79/79/79 82/82/82 78/78/78
f 78/78/78 76/76/76 79/79/79
f 80/80/80 83/83/83 79/79/79
f 81/81/81 84/84/84 80/80/80
f 82/82/82 84/84/84 81/81/81
f 79/79/79 83/83/83 82/82/82
f 84/84/84 83/83/83 80/80/80
f 82/82/82 83/83/83 84/84/84
f 85/85/85 86/86/86 87/87/87
f 88/88/88 86/86/86 85/85/85
f 87/87/87 86/86/86 88/88/88
f 89/89/89 90/90/90 91/91/91
f 92/92/92 89/89/89 91/91/91
f 90/90/90 92/92/92 91/91/91
f 93/93/93 3/3/3 2/2/2
f 2/2/2 4/4/4 93/93/93
f 8/8/8 3/3/3 93/93/93
f 93/93/93 9/9/9 8/8/8
f 62/62/62 94/94/94 11/11/11
f 11/11/11 10/10/10 62/62/62
f 94/94/94 62/62/62 17/17/17
f 17/17/17 24/24/24 94/94/94
f 14/14/14 19/19/19 10/10/10
f 19/19/19 62/62/62 10/10/10
f 16/16/16 13/13/13 17/17/17
f 17/17/17 62/62/62 18/18/18
f 1/1/1 7/7/7 2/2/2
f 1/1/1 3/3/3 8/8/8
usemtl 04070025_part_0_material_1
f 95/95/95 96/96/96 97/97/97
f 98/98/98 96/96/96 99/99/99
f 99/99/99 100/100/100 98/98/98
f 99/99/99 101/101/101 102/102/102
f 99/99/99 102/102/102 103/103/103
f 103/103/103 100/100/100 99/99/99
f 104/104/104 98/98/98 100/100/100
f 100/100/100 105/105/105 104/104/104
f 101/101/101 99/99/99 96/96/96
f 101/101/101 95/95/95 102/102/102
f 106/106/106 107/107/107 108/108/108
f 108/108/108 107/107/107 105/105/105
f 108/108/108 109/109/109 110/110/110
f 111/111/111 106/106/106 112/112/112
f 112/112/112 113/113/113 111/111/111
f 110/110/110 114/114/114 115/115/115
f 115/115/115 108/108/108 110/110/110
f 106/106/106 104/104/104 105/105/105
f 105/105/105 107/107/107 106/106/106
f 100/100/100 103/103/103 109/109/109
f 109/109/109 105/105/105 100/100/100
f 114/114/114 116/116/116 117/117/117
f 106/106/106 108/108/108 118/118/118
f 108/108/108 115/115/115 118/118/118
f 115/115/115 112/112/112 119/119/119
f 112/112/112 118/118/118 119/119/119
f 120/120/120 121/121/121 122/122/122
f 122/122/122 123/123/123 120/120/120
f 122/122/122 124/124/124 123/123/123
f 112/112/112 115/115/115 124/124/124
f 115/115/115 121/121/121 124/124/124
f 121/121/121 120/120/120 124/124/124
f 115/115/115 119/119/119 118/118/118
f 112/112/112 106/106/106 118/118/118
f 122/122/122 112/112/112 124/124/124
f 125/125/125 121/121/121 115/115/115
f 114/114/114 117/117/117 125/125/125
f 125/125/125 115/115/115 114/114/114
f 123/123/123 126/126/126 120/120/120
f 124/124/124 126/126/126 123/123/123
f 120/120/120 126/126/126 124/124/124
f 111/111/111 127/127/127 110/110/110
f 110/110/110 127/127/127 114/114/114
f 114/114/114 128/128/128 113/113/113
f 113/113/113 128/128/128 127/127/127
f 129/129/129 130/130/130 131/131/131
f 113/113/113 131/131/131 114/114/114
f 114/114/114 131/131/131 116/116/116
f 116/116/116 131/131/131 132/132/132
f 114/114/114 127/127/127 128/128/128
f 113/113/113 127/127/127 111/111/111
f 129/129/129 131/131/131 113/113/113
f 130/130/130 132/132/132 133/133/133
f 131/131/131 130/130/130 133/133/133
f 132/132/132 131/131/131 133/133/133
f 113/113/113 134/134/134 129/129/129
f 135/135/135 112/112/112 122/122/122
f 135/135/135 134/134/134 113/113/113
f 113/113/113 112/112/112 135/135/135
f 111/111/111 110/110/110 136/136/136
f 110/110/110 137/137/137 136/136/136
f 137/137/137 111/111/111 136/136/136
f 138/138/138 97/97/97 96/96/96
f 96/96/96 98/98/98 138/138/138
f 102/102/102 97/97/97 138/138/138
f 138/138/138 103/103/103 102/102/102
f 137/137/137 138/138/138 98/98/98
f 98/98/98 104/104/104 137/137/137
f 138/138/138 137/137/137 109/109/109
f 109/109/109 103/103/103 138/138/138
f 106/106/106 111/111/111 104/104/104
f 111/111/111 137/137/137 104/104/104
f 108/108/108 105/105/105 109/109/109
f 109/109/109 137/137/137 110/110/110
f 95/95/95 101/101/101 96/96/96
f 95/95/95 97/97/97 102/102/102
