mtllib 04070007.mtl
o 04070007_part_0
v 0.0374470353 -0.0643266439 0.296603769
v 0.0374470055 -0.007269317 0.5670333
v 0.02312908 -0.00726935873 0.229246646
v 0.0374470428 -0.04741516 0.189905912
v 0.030570671 -0.07658213 0.238517523
v 0.0374470763 -0.0778358 -0.1919877
v 0.03744707 -0.0454903655 -0.121657342
v 0.0077805873 -0.007269422 -0.121657349
v 0.0374470428 -0.119708173 0.2380076
v 0.0374470241 -0.1388916 0.471621841
v 0.030570671 -0.07658213 0.238517538
v 0.0374470241 0.0491422042 0.299801916
v 0.01775744 -0.00726938155 0.100108281
v 0.0374470577 -0.0342079476 -0.00853986852
v 0.0374470465 -0.0330979265 0.103864364
v 0.0374470465 -0.05847669 0.13375847
v 0.0374470465 -0.06026732 0.163419679
v 0.0142878182 -0.00726937363 0.151182547
v 0.0374470465 -0.0330979265 0.103864364
v 0.01775744 -0.00726938155 0.100108281
v 0.0374470428 0.0244633518 0.106613204
v 0.03744704 0.04448767 0.116162218
v 0.0374470353 0.04695857 0.168024272
v 0.0374470651 0.06291416 -0.194791734
v 0.0374470651 0.04109033 -0.184277862
v 0.0374470539 0.02546424 -0.01396533
v 0.03744706 0.03043677 -0.119791143
v 0.0374470726 0.008761457 -0.207408845
v 0.0374470763 -0.00726942252 -0.237876117
v 0.0374470353 0.0292671341 0.1865207
v 0.0305706635 0.062253844 0.237689734
v 0.0305706635 0.062253844 0.237689734
v 0.0374470241 0.10480044 0.240819573
v 0.0374470726 -0.02587505 -0.208151683
v 0.0374470428 -0.04741516 0.189905912
v 0.02312908 -0.00726935873 0.229246646
v 0.0374470353 0.0292671341 0.1865207
v 0.0374470428 0.0244633518 0.106613204
v 0.037447 0.124102041 0.466533422
v 0.0374470763 -0.0537684858 -0.184830934
v 0.0517649949 -0.007269356 0.229246646
v 0.04432341 -0.07658213 0.238517523
v 0.06711355 -0.007269417 -0.121657342
v 0.0443234071 -0.07658213 0.238517538
v 0.0571366549 -0.007269378 0.100108288
v 0.0606062673 -0.00726936944 0.151182547
v 0.0571366549 -0.007269378 0.100108288
v 0.0443233959 0.0622538477 0.237689734
v 0.0443233922 0.0622538477 0.237689734
v 0.0517649949 -0.007269356 0.229246646
v 0.05662379 -0.131675273 0.153177172
v 0.06765952 -0.167792559 0.0961691961
v 0.06765951 -0.164083 0.130491748
v 0.0566237867 -0.146348208 0.0614559837
v 0.0429749526 -0.114610568 0.09875289
v 0.0566237867 -0.102581672 0.0548923
v 0.03744704 -0.07766239 0.153177157
v 0.03744704 -0.09003179 0.125693142
v 0.0374470428 -0.06026732 0.163419679
v 0.0374470353 -0.05847669 0.13375847
v 0.0374470353 -0.0330979265 0.103864364
v 0.03416267 0.08074581 0.1436868
v 0.0302579626 0.08977063 0.110771991
v 0.03744704 0.04695857 0.168024272
v 0.0240731072 0.12060684 0.10976816
v 0.0350545049 0.106000036 0.153576434
v 0.0174486749 0.151347578 0.12299557
v 0.0174486749 0.151347578 0.12299557
v 0.0174486768 0.163201377 0.156165749
v 0.0350545049 0.106317669 0.163129881
v 0.0350545049 0.106317669 0.163129881
v 0.0374470353 0.05680121 0.122034192
v 0.03744703 0.04448767 0.116162218
v 0.03862941 0.08908168 0.176006392
v 0.03862941 0.0810914859 0.2014695
v 0.03862941 0.092549 0.208250031
v 0.0174486823 0.151669472 0.192128077
v 0.0348594971 0.100687616 0.218461871
v 0.0480610281 -0.0949424952 0.09740578
v 0.0566237867 -0.07334138 0.06783681
v 0.056623783 -0.0906255 0.0462316424
v 0.0566237867 -0.0799274 0.08717415
v 0.0374470539 -0.06872037 0.351393163
v 0.0374470539 -0.00727023743 0.592033267
v -0.00185811892 -0.007235787 0.228447974
v 0.03744705 -0.0607001074 0.168727845
v 0.00572622567 -0.0791604742 0.2374663
v 0.0374470539 -0.142215163 0.227124721
v 0.0374470539 -0.14504239 0.495853364
v 0.0374470539 0.05408367 0.3455124
v 0.00573833659 0.0649413243 0.23662594
v 0.0374470539 0.127342612 0.2300099
v 0.0374470465 0.04267509 0.165420309
v 0.03744709 0.13046208 0.490710884
v 0.07675223 -0.00723578734 0.228447974
v 0.06916788 -0.0791604742 0.2374663
v 0.069155775 0.0649413243 0.23662594
vt 0.373694 0.198727727
vt 0.268358916 0.697975159
vt 0.268358916 0.0743778348
vt 0.342473269 0.0138251185
vt 0.396319181 0.09149295
vt 0.97074616 0.1105634
vt 0.90021354 0.293778181
vt 0.796484768 0.293778181
vt 0.47593537 0.0905516148
vt 0.511350453 0.5218334
vt 0.396319181 0.09149301
vt 0.164216012 0.2046318
vt 0.796484649 0.895633757
vt 0.869594 0.6007707
vt 0.8665815 0.9058276
vt 0.46008715 0.7794239
vt 0.463631958 0.838142335
vt 0.358715266 0.8139173
vt 0.4098464 0.720244467
vt 0.358715326 0.7128087
vt 0.295896024 0.725686133
vt 0.25625512 0.7445897
vt 0.251363724 0.847257733
vt 0.6232623 0.103855968
vt 0.677141 0.129005909
vt 0.7076481 0.586046457
vt 0.694153 0.298843026
vt 0.7569546 0.07367492
vt 0.7965317 0.0145952106
vt 0.2009079 0.007575631
vt 0.140010223 0.08996481
vt 0.140010223 0.08996481
vt 0.06146378 0.09574288
vt 0.842465341 0.0718978643
vt 0.438189358 0.8905754
vt 0.358715266 0.9684558
vt 0.286386281 0.883874
vt 0.7103645 0.91328764
vt 0.0258305967 0.5124394
vt 0.9113286 0.127682924
vt 0.268358916 0.0743778348
vt 0.396319181 0.09149295
vt 0.796484768 0.293778181
vt 0.396319181 0.09149301
vt 0.796484649 0.895633757
vt 0.358715266 0.8139173
vt 0.358715326 0.7128087
vt 0.140010223 0.08996481
vt 0.140010223 0.08996481
vt 0.358715266 0.9684558
vt 0.6049938 0.817865849
vt 0.6764929 0.7050108
vt 0.6691493 0.772956967
vt 0.634040833 0.6362912
vt 0.571211934 0.710125566
vt 0.547399044 0.6232975
vt 0.498067945 0.817865849
vt 0.5225549 0.7634575
vt 0.463631958 0.838142335
vt 0.46008715 0.7794239
vt 0.4098464 0.720244467
vt 0.18447721 0.799078345
vt 0.166611344 0.7339191
vt 0.251363724 0.847257733
vt 0.105566859 0.7319318
vt 0.13448301 0.818656266
vt 0.04471135 0.7581173
vt 0.04471135 0.7581173
vt 0.0212451816 0.823782265
vt 0.13385424 0.837568641
vt 0.13385424 0.837568641
vt 0.231878847 0.756214142
vt 0.25625512 0.7445897
vt 0.167975217 0.863059461
vt 0.183792919 0.913467169
vt 0.1611112 0.926890135
vt 0.0440741479 0.8949746
vt 0.144999713 0.9471059
vt 0.5322763 0.707458735
vt 0.489513844 0.648923
vt 0.523730159 0.6061526
vt 0.5025518 0.6872039
vt 0.24082616 0.644515753
vt 0.500072241 0.000499606133
vt 0.5001972 0.8519085
vt 0.3063313 0.991755366
vt 0.239392549 0.8307903
vt 0.0107512772 0.8550072
vt 0.0004995465 0.225724339
vt 0.7594142 0.638177037
vt 0.761917055 0.8327581
vt 0.988189 0.8482509
vt 0.6811779 0.999500632
vt 0.999500453 0.2377665
vt 0.5001971 0.851908445
vt 0.239392549 0.8307902
vt 0.761917 0.832758069
vn -3.408072E-07 -0.137778386 0.9904631
vn -7.91887544E-07 -3.49456277E-05 1
vn -0.9999951 0.0008559894 0.00300170155
vn -4.05239575E-08 -0.999919534 -0.0126834353
vn -0.9845026 -0.1366866 -0.109869607
vn 3.39889645E-08 -0.741267264 -0.671209931
vn -2.93720923E-08 -0.9582037 0.2860869
vn -0.999888659 -0.002633711 0.0146865863
vn -9.10989257E-08 -0.908964932 -0.4168726
vn -4.47706014E-07 -0.246029317 0.969262362
vn -0.995879233 -0.08213656 0.0384459347
vn -1.69891887E-08 0.267787129 0.9634781
vn -0.998582363 -0.0475907177 -0.0238403417
vn -2.1009412E-09 -0.9986472 0.0519972146
vn -7.209416E-09 -0.980856 -0.194734365
vn 1.38641942E-08 -0.930800557 -0.3655275
vn -1.56913127E-09 -0.9801578 0.1982189
vn -0.99995935 -0.007744296 -0.004617167
vn -7.209416E-09 -0.980856 -0.194734365
vn -0.998582363 -0.0475907177 -0.0238403417
vn 3.92336439E-08 0.9209168 -0.389759272
vn -7.665291E-08 0.8318041 -0.5550693
vn -1.07946825E-07 0.9400815 0.340949833
vn 6.537508E-08 0.692617357 -0.7213052
vn 2.890992E-08 -0.203855723 -0.9790009
vn -4.07234744E-08 0.998590648 0.0530724376
vn -7.79040055E-10 0.9698324 0.243772656
vn -6.390267E-08 0.8231171 -0.5678717
vn -8.476413E-08 0.0261161588 -0.999658942
vn -1.66652882E-07 0.9859933 0.166784644
vn -0.998047531 0.06124739 0.012241656
vn -0.972758532 0.168897882 -0.158790156
vn -9.81878046E-08 0.919756353 -0.392489731
vn -1.69437939E-08 -0.7975044 -0.6033131
vn -4.05239575E-08 -0.999919534 -0.0126834353
vn -0.9999951 0.0008559894 0.00300170155
vn -1.66652882E-07 0.9859933 0.166784644
vn 3.92336439E-08 0.9209168 -0.389759272
vn 2.29761227E-07 0.2544028 0.967098355
vn 2.73440346E-08 -0.00280970451 -0.999996066
vn 0.9999951 0.000857518229 0.00300893746
vn 0.9953539 -0.09036215 -0.0332472734
vn 0.999888659 -0.00263367 0.0146866161
vn 0.941317 0.277210236 0.192553356
vn 0.998582363 -0.04759068 -0.0238403417
vn 0.99995935 -0.0077443 -0.00461717648
vn 0.998582363 -0.04759068 -0.0238403417
vn 0.671731949 0.687568 -0.275728941
vn 0.636862457 0.6815219 -0.3604638
vn 0.9999951 0.000857518229 0.00300893746
vn -0.9228542 -0.373136163 0.09544384
vn -0.9268118 -0.371349245 0.0558534637
vn -0.9376957 -0.345445871 0.03733551
vn -0.958834767 -0.265993744 -0.0994143039
vn -0.971551836 -0.233311117 -0.040656995
vn -0.922329843 -0.186803952 -0.338248283
vn -0.9931508 -0.106546581 0.0479523055
vn -0.9706503 -0.222895265 0.09030886
vn -1 6.397889E-08 2.550518E-07
vn -1 1.38069067E-09 9.060173E-08
vn -1 0 0
vn -0.989327848 -0.0509133041 0.136522114
vn -0.98281306 -0.178738877 0.04616113
vn -0.994285047 -0.10595987 0.0130303418
vn -0.9670677 -0.210014164 0.143784791
vn -0.9704849 -0.207731083 0.12250232
vn -0.951552 -0.2690829 0.148805961
vn -0.9489985 -0.296892047 0.106098443
vn -0.9532794 -0.302026659 0.00618913257
vn -0.974793255 -0.22159189 -0.0259825215
vn -0.949383557 -0.3128392 -0.0283273961
vn -0.99195087 -0.123819582 -0.0264992975
vn -1 2.0441837E-07 2.05753039E-07
vn -0.9786842 -0.20472078 -0.0163304582
vn -1 -7.302073E-08 1.23387949E-07
vn -0.9349627 -0.3527125 0.0379290655
vn -0.9445003 -0.320469141 -0.07224051
vn -0.936887264 -0.349342644 -0.0142126139
vn -0.9546518 0.282201618 -0.0948802456
vn -0.9618839 0.2582669 -0.08987545
vn -0.9742014 0.0503153466 -0.220000014
vn -0.786775053 0.5842814 0.198998213
vn 2.49259557E-07 0.0490406379 0.998796761
vn 1.21228766E-06 0.002018902 0.999998
vn -0.998503745 0.002997365 -0.05460081
vn -2.333729E-07 -0.4593159 -0.888273
vn -0.9653934 -0.226448014 -0.129370824
vn -1.78879791E-08 -0.91299516 -0.407970339
vn -2.11915767E-06 -0.2461751 0.969225347
vn -7.559188E-07 -0.055708915 0.998447061
vn -0.9638163 0.232296735 -0.130753
vn -8.737729E-08 0.921198845 -0.389092058
vn -2.25374535E-07 0.4683187 -0.883559644
vn 3.00212969E-06 0.246922031 0.9690353
vn 0.998503745 0.00299718045 -0.0546010062
vn 0.965393364 -0.226448253 -0.129371092
vn 0.963816345 0.232296541 -0.130753279
usemtl 04070007_part_0_material_0
f 1/1/1 2/2/2 3/3/3
f 3/3/3 4/4/4 5/5/5
f 6/6/6 7/7/7 8/8/8
f 5/5/5 9/9/9 10/10/10
f 10/10/10 11/11/11 5/5/5
f 9/9/9 5/5/5 4/4/4
f 12/12/12 3/3/3 2/2/2
f 13/13/13 14/14/14 15/15/15
f 16/16/16 17/17/17 18/18/18
f 18/18/18 19/19/19 16/16/16
f 20/20/20 19/19/19 18/18/18
f 20/20/20 18/18/18 21/21/21
f 22/22/22 21/21/21 18/18/18
f 22/22/22 18/18/18 23/23/23
f 24/24/24 25/25/25 8/8/8
f 8/8/8 26/26/26 27/27/27
f 28/28/28 8/8/8 25/25/25
f 28/28/28 29/29/29 8/8/8
f 30/30/30 31/31/31 32/32/32
f 32/32/32 33/33/33 30/30/30
f 8/8/8 29/29/29 34/34/34
f 35/35/35 36/36/36 18/18/18
f 18/18/18 36/36/36 37/37/37
f 17/17/17 35/35/35 18/18/18
f 18/18/18 37/37/37 23/23/23
f 8/8/8 7/7/7 14/14/14
f 14/14/14 13/13/13 8/8/8
f 13/13/13 38/38/38 26/26/26
f 26/26/26 8/8/8 13/13/13
f 31/31/31 30/30/30 3/3/3
f 3/3/3 5/5/5 11/11/11
f 11/11/11 1/1/1 3/3/3
f 3/3/3 12/12/12 31/31/31
f 39/39/39 32/32/32 31/31/31
f 31/31/31 12/12/12 39/39/39
f 39/39/39 33/33/33 32/32/32
f 10/10/10 1/1/1 11/11/11
f 8/8/8 34/34/34 40/40/40
f 8/8/8 27/27/27 24/24/24
f 8/8/8 40/40/40 6/6/6
f 2/2/2 1/1/1 41/41/41
f 4/4/4 41/41/41 42/42/42
f 7/7/7 6/6/6 43/43/43
f 9/9/9 42/42/42 10/10/10
f 44/44/44 10/10/10 42/42/42
f 42/42/42 9/9/9 4/4/4
f 41/41/41 12/12/12 2/2/2
f 14/14/14 45/45/45 15/15/15
f 17/17/17 16/16/16 46/46/46
f 19/19/19 46/46/46 16/16/16
f 19/19/19 47/47/47 46/46/46
f 46/46/46 47/47/47 21/21/21
f 21/21/21 22/22/22 46/46/46
f 46/46/46 22/22/22 23/23/23
f 25/25/25 24/24/24 43/43/43
f 26/26/26 43/43/43 27/27/27
f 43/43/43 28/28/28 25/25/25
f 29/29/29 28/28/28 43/43/43
f 48/48/48 30/30/30 49/49/49
f 33/33/33 49/49/49 30/30/30
f 29/29/29 43/43/43 34/34/34
f 50/50/50 35/35/35 46/46/46
f 50/50/50 46/46/46 37/37/37
f 35/35/35 17/17/17 46/46/46
f 37/37/37 46/46/46 23/23/23
f 7/7/7 43/43/43 14/14/14
f 45/45/45 14/14/14 43/43/43
f 38/38/38 45/45/45 26/26/26
f 43/43/43 26/26/26 45/45/45
f 30/30/30 48/48/48 41/41/41
f 42/42/42 41/41/41 44/44/44
f 1/1/1 44/44/44 41/41/41
f 12/12/12 41/41/41 48/48/48
f 49/49/49 39/39/39 48/48/48
f 12/12/12 48/48/48 39/39/39
f 33/33/33 39/39/39 49/49/49
f 1/1/1 10/10/10 44/44/44
f 34/34/34 43/43/43 40/40/40
f 27/27/27 43/43/43 24/24/24
f 40/40/40 43/43/43 6/6/6
f 51/51/51 52/52/52 53/53/53
f 54/54/54 55/55/55 56/56/56
f 51/51/51 57/57/57 58/58/58
f 57/57/57 59/59/59 60/60/60
f 60/60/60 58/58/58 57/57/57
f 54/54/54 51/51/51 55/55/55
f 55/55/55 51/51/51 58/58/58
f 58/58/58 60/60/60 61/61/61
f 62/62/62 63/63/63 64/64/64
f 65/65/65 62/62/62 66/66/66
f 67/67/67 65/65/65 66/66/66
f 67/67/67 66/66/66 68/68/68
f 69/69/69 67/67/67 68/68/68
f 69/69/69 68/68/68 66/66/66
f 66/66/66 70/70/70 71/71/71
f 69/69/69 66/66/66 71/71/71
f 72/72/72 64/64/64 63/63/63
f 73/73/73 64/64/64 72/72/72
f 51/51/51 54/54/54 52/52/52
f 62/62/62 65/65/65 63/63/63
f 74/74/74 75/75/75 76/76/76
f 77/77/77 69/69/69 71/71/71
f 78/78/78 77/77/77 71/71/71
f 78/78/78 71/71/71 70/70/70
f 78/78/78 70/70/70 74/74/74
f 76/76/76 78/78/78 74/74/74
f 79/79/79 80/80/80 81/81/81
f 81/81/81 55/55/55 79/79/79
f 55/55/55 81/81/81 56/56/56
f 79/79/79 82/82/82 80/80/80
usemtl 04070007_part_0_material_1
f 83/83/83 84/84/84 85/85/85
f 85/85/85 86/86/86 87/87/87
f 87/87/87 88/88/88 89/89/89
f 88/88/88 87/87/87 86/86/86
f 90/90/90 85/85/85 84/84/84
f 91/91/91 92/92/92 93/93/93
f 91/91/91 93/93/93 85/85/85
f 87/87/87 83/83/83 85/85/85
f 85/85/85 90/90/90 91/91/91
f 91/91/91 90/90/90 94/94/94
f 94/94/94 92/92/92 91/91/91
f 89/89/89 83/83/83 87/87/87
f 84/84/84 83/83/83 95/95/95
f 86/86/86 95/95/95 96/96/96
f 88/88/88 96/96/96 89/89/89
f 96/96/96 88/88/88 86/86/86
f 95/95/95 90/90/90 84/84/84
f 92/92/92 97/97/97 93/93/93
f 93/93/93 97/97/97 95/95/95
f 83/83/83 96/96/96 95/95/95
f 90/90/90 95/95/95 97/97/97
f 90/90/90 97/97/97 94/94/94
f 92/92/92 94/94/94 97/97/97
f 83/83/83 89/89/89 96/96/96
