mtllib JESSSKPYTH.mtl
o JESSSKPYTH_part_0
v 0.2408 0.0443 1.3292
v 0.2717 -0.007 1.3385
v 0.2746 0.034 1.3754
v 0.2497 0.0921 1.3612
v 0.2573 -0.1789 1.5883
v 0.2457 -0.2113 1.5826
v 0.2473 -0.2284 1.5944
v 0.2615 -0.1836 1.6097
v 0.303 0.046 1.7153
v 0.2948 0.0476 1.6941
v 0.3398 0.0004 1.6871
v 0.2799 -0.0299 1.6209
v 0.2622 -0.0495 1.6036
v 0.2762 -0.1039 1.6129
v 0.3001 -0.0903 1.6335
v 0.2902 -0.1307 1.6356
v 0.3323 -0.068 1.6914
v 0.3092 -0.0451 1.7145
v 0.3184 -0.1286 1.6981
v 0.3061 -0.1195 1.7262
v 0.3373 -0.0726 1.6591
v 0.3175 0.0025 1.6581
v 0.313 -0.078 1.6521
v 0.2964 -0.1218 1.6569
v 0.3163 -0.1308 1.6679
v 0.288 -0.162 1.7194
v 0.3031 -0.1702 1.698
v 0.2771 -0.277 1.7141
v 0.257 -0.3081 1.6674
v 0.2682 -0.3044 1.7028
v 0.2747 -0.2848 1.6814
v 0.2549 -0.293 1.6544
v 0.1303 -0.1284 0.9185
v 0.1375 -0.1066 0.9715
v 0.2036 -0.0703 0.9502
v 0.2112 -0.0802 0.9037
v 0.1422 -0.0278 1.0057
v 0.1922 0.0019 0.992
v 0.1459 -0.0081 1.0324
v 0.1959 0.0163 1.0259
v 0.154 -0.0111 1.0921
v 0.1579 -0.0307 1.1205
v 0.2111 -0.0128 1.1337
v 0.201 0.0166 1.0901
v 0.2448 -0.0547 1.1625
v 0.1582 -0.0677 1.1227
v 0.1667 -0.1441 1.1847
v 0.2197 -0.1165 1.1949
v 0.2222 -0.0862 1.1571
v 0.1611 -0.1148 1.1436
v 0.2369 -0.0277 1.3835
v 0.2318 -0.0859 1.3377
v 0.188 -0.1236 1.3408
v 0.1928 -0.0837 1.376
v 0.2024 -0.0091 1.4459
v 0.2055 0.0512 1.4684
v 0.2461 0.0829 1.4551
v 0.2453 0.0264 1.4316
v 0.255 0.0991 1.505
v 0.2115 0.0756 1.5127
v 0.2178 0.067 1.5587
v 0.2578 0.0848 1.5599
v 0.2238 0.0226 1.6025
v 0.2656 0.0306 1.6088
v 0.2368 -0.0133 1.5951
v 0.2225 -0.006 1.5928
v 0.2218 -0.0254 1.5878
v 0.239 -0.0225 1.5925
v 0.2233 -0.055 1.5993
v 0.225 -0.1041 1.6114
v 0.2218 -0.1795 1.588
v 0.2208 -0.2185 1.5808
v 0.2235 -0.2461 1.6001
v 0.2236 -0.2218 1.6012
v 0.2254 -0.1836 1.6143
v 0.2886 -0.1339 1.6677
v 0.2748 -0.1294 1.6576
v 0.2877 -0.1792 1.6777
v 0.2659 -0.1822 1.675
v 0.2362 -0.2536 1.693
v 0.2798 -0.256 1.6905
v 0.2318 -0.2888 1.661
v 0.2291 -0.2872 1.6413
v 0.2326 -0.3188 1.6669
v 0.2396 -0.3124 1.7179
v 0.2412 -0.2877 1.7301
v 0.2414 -0.1623 1.7315
v 0.2432 -0.1169 1.7443
v 0.2411 -0.0418 1.7294
v 0.2414 0.0672 1.731
v 0.2384 0.065 1.7092
v 0.2332 0.151 1.6713
v 0.2932 0.1291 1.6593
v 0.2195 0.2347 1.5711
v 0.288 0.2147 1.5668
v 0.2026 0.2484 1.4473
v 0.2678 0.2242 1.4538
v 0.2446 0.2043 1.3731
v 0.1901 0.2148 1.3562
v 0.1939 0.1893 1.3841
v 0.1962 0.1679 1.4004
v 0.1933 0.1434 1.3791
v 0.2678 0.1151 1.3984
v 0.2625 0.1434 1.4208
v 0.1906 0.1129 1.3594
v 0.1865 0.0653 1.33
v 0.1724 0.0308 1.2268
v 0.1667 0.0794 1.1848
v 0.2265 0.0409 1.1719
v 0.2466 -0.0396 1.2133
v 0.1567 0.1543 1.1119
v 0.2127 0.1142 1.1048
v 0.1454 0.1704 1.0292
v 0.1363 0.1404 0.9621
v 0.1976 0.1071 0.9634
v 0.2047 0.128 1.0278
v 0.1291 0.0718 0.9096
v 0.1886 0.0471 0.9064
v 0.1463 -0.0448 0.6331
v 0.0919 -0.0668 0.6379
v 0.1005 -0.0915 0.7005
v 0.1717 -0.0546 0.7005
v 0.1039 0.0693 0.7258
v 0.0918 0.0453 0.6372
v 0.1475 0.0242 0.632
v 0.1705 0.0405 0.7176
v 0.1778 -0.0398 0.8639
v 0.1243 -0.0711 0.8748
v 0.1785 0.0388 0.8596
v 0.1232 0.0586 0.8668
v 0.1578 -0.0481 0.7321
v 0.1047 -0.0781 0.7315
v 0.1087 0.0562 0.7604
v 0.1579 0.0344 0.7476
v 0.1047 -0.0781 0.7315
v 0.1578 -0.0481 0.7321
v 0.1579 0.0344 0.7476
v 0.1087 0.0562 0.7604
v 0.1343 0.0224 0.5166
v 0.1268 -0.0429 0.5196
v 0.0764 0.0427 0.5244
v 0.0767 -0.0636 0.5268
v 0.0621 -0.034 0.0051
v 0.0936 -0.0422 0.3354
v 0.0941 0.0214 0.3355
v 0.0566 0.0168 0.0054
v 0.0514 0.0402 0.3416
v 0.0064 0.039 0.0119
v 0.0065 -0.0566 0.0129
v 0.0514 -0.0616 0.3413
v 0.0621 -0.034 0.0051
v 0.0566 0.0168 0.0054
v -0.0247 0.0176 -0.5335
v -0.027 -0.0394 -0.5325
v -0.0673 0.0348 -0.5271
v 0.0064 0.039 0.0119
v -0.0673 -0.0579 -0.5271
v 0.0065 -0.0566 0.0129
v -0.0443 0.0254 -0.8166
v -0.0443 -0.0393 -0.8164
v -0.1057 0.0464 -0.8079
v -0.1057 -0.063 -0.8079
v 0.1281 0.035 0.4172
v 0.1195 -0.057 0.417
v 0.0629 0.0583 0.4258
v 0.0628 -0.0829 0.4246
v 0.2347 -0.2835 1.6826
v 0.2156 0.0051 1.2516
v 0.2316 0.0152 1.2991
v 0.1828 0.0436 1.3026
v 0.1768 0.027 1.2585
v 0.2648 -0.0493 1.2445
v 0.2649 -0.0331 1.2937
v 0.1745 -0.1631 1.2419
v 0.1811 -0.1399 1.2902
v 0.2233 -0.1097 1.2901
v 0.2188 -0.1326 1.2421
v 0.2909 0.0351 1.3813
v 0.2497 0.0921 1.3612
v 0.2746 0.034 1.3754
v 0.2366 -0.1471 1.1986
v 0.1673 -0.177 1.1895
v 0.253 -0.0537 1.392
v 0.2369 -0.0277 1.3835
v 0.1928 -0.0837 1.376
v 0.1942 -0.1074 1.3858
v 0.1906 0.1129 1.3594
v 0.2352 0.0994 1.3684
v 0.2608 -0.0479 1.22
v 0.1738 0.0342 1.2367
v 0.184 0.0578 1.3118
v 0.2409 0.0309 1.3102
v 0.2839 -0.0333 1.3152
v 0.1852 -0.1609 1.3203
v 0.2439 -0.1335 1.3141
v 0.2372 -0.1584 1.2146
v 0.1708 -0.1888 1.2148
v 0.2746 -0.0645 1.229
v 0.2524 -0.0399 1.4054
v 0.1975 -0.0882 1.4104
v 0.2821 0.0615 1.3902
v 0.2814 -0.0426 1.3008
v 0.1817 -0.1702 1.2947
v 0.2438 -0.1358 1.2987
v 0.2982 0.1463 1.5684
v 0.296 0.155 1.485
v 0.3112 0.0755 1.636
v 0.2627 -0.137 1.6382
v 0.295 0.1435 1.4229
v 0.2629 0.0818 1.4616
v 0.2066 0.0456 1.4767
v 0.2008 -0.1929 1.1923
v 0.1678 -0.2021 1.1928
v 0.1695 -0.2083 1.2054
v 0.2043 -0.1987 1.2022
v 0.2206 -0.1137 1.3899
v 0.1952 -0.1302 1.3932
v 0.1966 -0.125 1.4033
v 0.222 -0.1084 1.3998
v 0.1839 -0.2049 1.3106
v 0.2126 -0.1878 1.3079
v 0.2118 -0.1855 1.2989
v 0.1822 -0.1995 1.2984
v 0.2357 -0.169 1.6894
v 0.2334 -0.1192 1.6725
v 0.2291 -0.1291 1.6417
v 0.1845 -0.0882 1.1106
v 0.1559 -0.0886 1.1059
v 0.1569 -0.1078 1.1131
v 0.1869 -0.1006 1.1151
v 0.225 -0.0066 1.6117
v -0.1057 -0.0078 -0.8079
v 0.1338 0.0466 1.342
v 0.1339 0.0939 1.3757
v 0.1138 0.0361 1.3961
v 0.1065 -0.0042 1.3589
v 0.1877 -0.1789 1.5978
v 0.1894 -0.1836 1.6195
v 0.199 -0.2284 1.601
v 0.1974 -0.2113 1.5892
v 0.1775 0.0481 1.7312
v 0.1347 0.0016 1.7146
v 0.1799 0.0478 1.7095
v 0.1747 -0.0299 1.6352
v 0.1585 -0.0903 1.6528
v 0.1761 -0.1039 1.6265
v 0.1871 -0.0495 1.6139
v 0.1687 -0.1307 1.6522
v 0.1716 -0.0451 1.7333
v 0.1432 -0.068 1.7173
v 0.1583 -0.1286 1.72
v 0.1777 -0.1195 1.7438
v 0.1297 -0.0726 1.6875
v 0.1512 -0.078 1.6742
v 0.1484 0.0025 1.6811
v 0.1522 -0.1308 1.6904
v 0.1684 -0.1218 1.6744
v 0.1933 -0.162 1.7324
v 0.173 -0.1703 1.7157
v 0.2024 -0.277 1.7243
v 0.2092 -0.3081 1.674
v 0.2077 -0.293 1.6608
v 0.1959 -0.2848 1.6921
v 0.2079 -0.3044 1.7111
v 0.0484 -0.0808 0.9262
v 0.0688 -0.0826 0.9737
v 0.0904 0.0015 1.0061
v 0.0959 0.0163 1.0396
v 0.1082 0.0166 1.1028
v 0.1102 -0.0127 1.1475
v 0.0855 -0.0545 1.1843
v 0.1058 -0.0861 1.173
v 0.1183 -0.1164 1.2088
v 0.1522 -0.0268 1.3943
v 0.1449 -0.0852 1.349
v 0.1572 0.0265 1.4437
v 0.1627 0.0829 1.4665
v 0.1675 0.0991 1.5169
v 0.1796 0.0848 1.5706
v 0.1852 0.0306 1.6198
v 0.2093 -0.0133 1.5989
v 0.2064 -0.0225 1.597
v 0.1788 -0.134 1.6827
v 0.1894 -0.1294 1.6693
v 0.1824 -0.1797 1.6914
v 0.2026 -0.1827 1.6831
v 0.1934 -0.256 1.7023
v 0.1722 0.1291 1.6757
v 0.1523 0.2147 1.5854
v 0.1415 0.2242 1.4711
v 0.1422 0.2044 1.3871
v 0.1377 0.1434 1.4379
v 0.1265 0.1156 1.4173
v 0.0973 -0.039 1.2335
v 0.1056 0.041 1.1884
v 0.1009 0.1142 1.12
v 0.0879 0.128 1.0438
v 0.0776 0.1063 0.9802
v 0.071 0.0457 0.9231
v 0.0383 -0.0448 0.6478
v 0.0319 -0.0546 0.7197
v 0.0377 0.0405 0.7358
v 0.0368 0.0242 0.6471
v 0.0699 -0.0404 0.879
v 0.0681 0.0378 0.8751
v 0.0537 -0.0481 0.7463
v 0.0579 0.0344 0.7613
v 0.0537 -0.0481 0.7463
v 0.0579 0.0344 0.7613
v 0.0267 -0.0429 0.5333
v 0.0186 0.0224 0.5324
v -0.0492 -0.034 0.0203
v -0.0438 0.0168 0.0191
v 0.0087 0.0214 0.3472
v 0.0092 -0.0422 0.3469
v -0.0492 -0.034 0.0203
v -0.1076 -0.0394 -0.5215
v -0.1101 0.0176 -0.5218
v -0.0438 0.0168 0.0191
v -0.1672 0.0254 -0.7998
v -0.1671 -0.0393 -0.7996
v -0.0021 0.035 0.435
v 0.0061 -0.057 0.4325
v 0.1374 0.0065 1.2612
v 0.1346 0.0172 1.3104
v 0.0881 -0.0479 1.2677
v 0.1011 -0.0308 1.3142
v 0.1319 -0.1324 1.254
v 0.1404 -0.1095 1.3013
v 0.0996 0.037 1.4064
v 0.1138 0.0361 1.3961
v 0.1339 0.0939 1.3757
v 0.103 -0.1471 1.2168
v 0.1391 -0.0531 1.4071
v 0.1522 -0.0268 1.3943
v 0.1253 0.1135 1.387
v 0.0855 -0.0472 1.2437
v 0.1286 0.0334 1.3234
v 0.0885 -0.0306 1.3397
v 0.127 -0.1335 1.3301
v 0.1067 -0.1583 1.2324
v 0.0746 -0.0639 1.2561
v 0.1029 0.0548 1.4192
v 0.1433 -0.0394 1.42
v 0.087 -0.0402 1.3255
v 0.123 -0.1358 1.3152
v 0.143 0.1463 1.5896
v 0.1226 0.155 1.5087
v 0.1485 0.0755 1.6583
v 0.1959 -0.137 1.6473
v 0.107 0.1435 1.4486
v 0.1483 0.0818 1.4772
v 0.1358 -0.1929 1.2012
v 0.1351 -0.1986 1.2116
v 0.1698 -0.1137 1.3968
v 0.1711 -0.1084 1.4068
v 0.1539 -0.1855 1.3068
v 0.1555 -0.1878 1.3157
v 0.1296 -0.0882 1.1181
v 0.1285 -0.1006 1.1231
v 0.2781 -0.2407 1.7061
v 0.2583 -0.2489 1.6792
v 0.2604 -0.264 1.6922
v 0.2352 -0.2447 1.6858
v 0.2325 -0.243 1.666
v 0.236 -0.2746 1.6916
v 0.2381 -0.2394 1.7074
v 0.2126 -0.264 1.6987
v 0.2111 -0.2489 1.6856
v 0.1993 -0.2407 1.7169
v 0.2755 -0.1773 1.687
v 0.2571 -0.2113 1.6704
v 0.2597 -0.2104 1.687
v 0.2336 -0.2048 1.6745
v 0.2315 -0.2223 1.6586
v 0.236 -0.2222 1.6919
v 0.2356 -0.1802 1.6887
v 0.2119 -0.2104 1.6935
v 0.2099 -0.2113 1.6769
v 0.1967 -0.1773 1.6978
v 0.2755 -0.1255 1.687
v 0.2571 -0.1595 1.6704
v 0.2597 -0.1586 1.687
v 0.2336 -0.153 1.6745
v 0.2315 -0.1705 1.6586
v 0.236 -0.1704 1.6919
v 0.2356 -0.1284 1.6887
v 0.2119 -0.1586 1.6935
v 0.2099 -0.1595 1.6769
v 0.1967 -0.1255 1.6978
v 0.2646 -0.161 1.6073
v 0.2528 -0.154 1.6387
v 0.2513 -0.1383 1.6259
v 0.2287 -0.158 1.6384
v 0.2314 -0.1605 1.6582
v 0.228 -0.1279 1.6332
v 0.2257 -0.1624 1.6168
v 0.2035 -0.1383 1.6324
v 0.2056 -0.154 1.6452
v 0.1858 -0.161 1.618
v 0.2537 -0.1891 1.5976
v 0.2457 -0.1821 1.6285
v 0.2442 -0.1665 1.6157
v 0.2272 -0.1861 1.6275
v 0.2299 -0.1886 1.6472
v 0.2265 -0.156 1.6222
v 0.2242 -0.1906 1.6058
v 0.2077 -0.1665 1.6207
v 0.2097 -0.1821 1.6335
v 0.1936 -0.1891 1.6058
v 0.1961 -0.2033 1.5936
v 0.2156 -0.223 1.6165
v 0.2159 -0.2296 1.6002
v 0.2243 -0.214 1.6131
v 0.2303 -0.2226 1.6315
v 0.2317 -0.2373 1.599
v 0.2156 -0.1984 1.5952
v 0.2384 -0.2224 1.5972
v 0.2379 -0.2159 1.6135
v 0.2332 -0.1915 1.5885
v -0.0188 -0.0507 -0.4735
v -0.0297 -0.0899 -0.432
v -0.0277 -0.0546 -0.4203
v -0.0552 -0.0883 -0.4383
v -0.0531 -0.1218 -0.423
v -0.0495 -0.0508 -0.3968
v -0.059 -0.0585 -0.4662
v -0.0768 -0.0546 -0.4136
v -0.078 -0.0899 -0.4253
v -0.0996 -0.0507 -0.4624
v 0.0158 -0.0507 -0.2432
v 0.0037 -0.0899 -0.2015
v 0.0057 -0.0546 -0.1898
v -0.0236 -0.0883 -0.2076
v -0.0215 -0.1218 -0.1923
v -0.018 -0.0508 -0.1661
v -0.0274 -0.0585 -0.2355
v -0.0471 -0.0546 -0.1826
v -0.0484 -0.0899 -0.1944
v -0.0712 -0.0507 -0.2313
v 0.0504 -0.0507 -0.0084
v 0.0373 -0.0899 0.0334
v 0.0393 -0.0546 0.0451
v 0.0085 -0.0883 0.0275
v 0.0106 -0.1218 0.0429
v 0.0142 -0.0508 0.069
v 0.0047 -0.0585 -0.0003
v -0.0164 -0.0546 0.0527
v -0.0177 -0.0899 0.041
v -0.0415 -0.0507 0.0042
v 0.0741 -0.0507 0.1823
v 0.062 -0.0899 0.224
v 0.0639 -0.0546 0.2357
v 0.0345 -0.0883 0.2179
v 0.0366 -0.1218 0.2333
v 0.0402 -0.0508 0.2594
v 0.0307 -0.0585 0.1901
v 0.011 -0.0546 0.2429
v 0.0097 -0.0899 0.2312
v -0.0131 -0.0507 0.1943
v -0.0399 0.0248 0
v -0.0188 0.0657 0.0372
v -0.0153 0.0304 0.0486
v 0.0074 0.0666 0.0237
v 0.0073 0.1 0.0394
v 0.0154 0.0292 0.0649
v 0.0054 0.0369 -0.0044
v 0.0401 0.0356 0.041
v 0.0359 0.0708 0.0297
v 0.0513 0.0334 -0.0125
v 0.1023 -0.0639 0.3887
v 0.0902 -0.1031 0.4304
v 0.0921 -0.0678 0.4421
v 0.0627 -0.1015 0.4243
v 0.0648 -0.135 0.4397
v 0.0684 -0.064 0.4658
v 0.0589 -0.0717 0.3965
v 0.0392 -0.0678 0.4493
v 0.0379 -0.1031 0.4376
v 0.0151 -0.0639 0.4006
v 0.1218 -0.0578 0.5317
v 0.1097 -0.0971 0.5734
v 0.1117 -0.0618 0.5851
v 0.0823 -0.0955 0.5673
v 0.0844 -0.129 0.5826
v 0.088 -0.0579 0.6088
v 0.0785 -0.0657 0.5394
v 0.0587 -0.0618 0.5923
v 0.0575 -0.0971 0.5805
v 0.0346 -0.0578 0.5436
vt 0.8437 0.9105
vt 0.7978 0.930500031
vt 0.8199 0.9793
vt 0.8602 0.9518
vt 0.3573 0.6339
vt 0.3348 0.6606
vt 0.3405 0.6787
vt 0.3687 0.645599961
vt 0.6266 0.5747
vt 0.6206 0.533
vt 0.5777 0.5756
vt 0.4814 0.4964
vt 0.4554 0.486599982
vt 0.416 0.5816
vt 0.4563 0.5777
vt 0.4291 0.624
vt 0.5377 0.6479
vt 0.5719 0.656
vt 0.5028 0.7223
vt 0.5278 0.7465
vt 0.5088 0.604
vt 0.5519 0.5247
vt 0.4888 0.593600035
vt 0.4595 0.6501
vt 0.4749 0.6825
vt 0.5001 0.7868
vt 0.4773 0.770300031
vt 0.419 0.8977
vt 0.3426 0.8931
vt 0.3897 0.9094
vt 0.3752 0.8788
vt 0.3312 0.874799967
vt 0.7266 0.2824
vt 0.7586 0.34859997
vt 0.7985 0.333500028
vt 0.7864 0.2702
vt 0.8148 0.4245
vt 0.8517 0.412199974
vt 0.825 0.4655
vt 0.8607 0.4655
vt 0.8216 0.5495
vt 0.8038 0.5808
vt 0.8309 0.6223
vt 0.8572 0.5553
vt 0.7917 0.681
vt 0.7681 0.5796
vt 0.6883 0.674
vt 0.7284 0.708600044
vt 0.76 0.6642
vt 0.7185 0.6221
vt 0.7644 0.9924
vt 0.7312 0.9368
vt 0.6873 0.9457
vt 0.7153 0.9938
vt 0.4004 0.210200012
vt 0.454 0.229700029
vt 0.4771 0.19599998
vt 0.4276 0.176199973
vt 0.5268 0.2654
vt 0.498 0.2885
vt 0.5146 0.352
vt 0.5438 0.3473
vt 0.494 0.424799979
vt 0.522 0.438000023
vt 0.4515 0.450900018
vt 0.4519 0.43809998
vt 0.4359 0.444100022
vt 0.4446 0.453800023
vt 0.4323 0.475000024
vt 0.3885 0.5631
vt 0.3385 0.622599959
vt 0.32 0.6641
vt 0.3397 0.7043
vt 0.3544 0.679
vt 0.3832 0.6613
vt 0.4563 0.6864
vt 0.4447 0.6594
vt 0.4519 0.7544
vt 0.4382 0.7514
vt 0.3854 0.839599967
vt 0.4078 0.8624
vt 0.33 0.8612
vt 0.3005 0.8653
vt 0.3311 0.9072
vt 0.3974 0.9311
vt 0.426 0.9224
vt 0.5227 0.807999969
vt 0.5573 0.7701
vt 0.6079 0.676200032
vt 0.6654 0.5809
vt 0.6656 0.53610003
vt 0.696 0.4278
vt 0.6473 0.432299972
vt 0.7104 0.256200016
vt 0.6622 0.2748
vt 0.6713 0.12379998
vt 0.632 0.1595
vt 0.5878 0.07679999
vt 0.6008 0.0413
vt 0.563 0.06099999
vt 0.5378 0.07120001
vt 0.5244 0.0536000133
vt 0.4905 0.106000006
vt 0.5214 0.1279
vt 0.89 0.9273
vt 0.8772 0.8969
vt 0.8882 0.7919
vt 0.9367 0.7195
vt 0.8859 0.700700045
vt 0.8064 0.7606
vt 0.9926 0.5546
vt 0.9418 0.5614
vt 0.9917 0.463100016
vt 0.9727 0.374
vt 0.9307 0.387700021
vt 0.9436 0.470700026
vt 0.937 0.2769
vt 0.8946 0.285399973
vt 0.1815 0.8303
vt 0.1471 0.8269
vt 0.138 0.9086
vt 0.1815 0.9197
vt 0.2834 0.9388
vt 0.2743 0.825
vt 0.2402 0.828500032
vt 0.2476 0.94
vt 0.7949 0.2069
vt 0.7408 0.210300028
vt 0.8828 0.204999983
vt 0.9243 0.203199983
vt 0.7882 0.0146999955
vt 0.7425 0.00489997864
vt 0.9045 0.03979999
vt 0.8643 0.0335000157
vt 0.1316 0.9532
vt 0.1773 0.963
vt 0.2534 0.9818
vt 0.2935 0.9881
vt 0.2363 0.6818
vt 0.1826 0.6828
vt 0.2696 0.6818
vt 0.1528 0.6826
vt 0.1963 0.0253999829
vt 0.1846 0.449500024
vt 0.2397 0.4494
vt 0.2367 0.02490002
vt 0.2656 0.4494
vt 0.2643 0.0243999958
vt 0.168 0.0256999731
vt 0.1585 0.449599981
vt 0.0417 0.9944
vt 0.0821 0.9939
vt 0.0853 0.305
vt 0.0328 0.306
vt 0.1118 0.305800021
vt 0.1097 0.9934
vt 0.0081 0.306
vt 0.0134 0.9946
vt 0.089 0.0421000123
vt 0.0327 0.0404999852
vt 0.1142 0.0210000277
vt 0.0062 0.0189999938
vt 0.2399 0.56
vt 0.1791 0.559399962
vt 0.2716 0.5588
vt 0.1513 0.559100032
vt 0.3553 0.8553
vt 0.8477 0.8197
vt 0.8368 0.8703
vt 0.87 0.8713
vt 0.8775 0.8254
vt 0.7851 0.8086
vt 0.7872 0.8698
vt 0.6671 0.7726
vt 0.6676 0.8429
vt 0.7105 0.8548
vt 0.706 0.7823
vt 0.4368 0.0959
vt 0.4751 0.05159998
vt 0.4348 0.07910001
vt 0.7033 0.721500039
vt 0.6589 0.6839
vt 0.3679 0.118799984
vt 0.3793 0.09219998
vt 0.3302 0.0935999751
vt 0.3158 0.118200004
vt 0.5085 0.0309000015
vt 0.4902 0.0544999838
vt 0.795 0.7727
vt 0.8867 0.804399967
vt 0.8739 0.8783
vt 0.8393 0.8881
vt 0.7803 0.9046
vt 0.6565 0.9153
vt 0.6963 0.8985
vt 0.6951 0.7403
vt 0.6467 0.7339
vt 0.7755 0.7835
vt 0.3792 0.137399971
vt 0.338 0.166199982
vt 0.4525 0.1031
vt 0.7751 0.887400031
vt 0.6461 0.8564
vt 0.6936 0.8778
vt 0.6005 0.316999972
vt 0.5781 0.21509999
vt 0.5848 0.440500021
vt 0.4213 0.6443
vt 0.5406 0.1498
vt 0.4929 0.211399972
vt 0.4607 0.246699989
vt 0.6565 0.7044
vt 0.6372 0.6979
vt 0.6339 0.714599967
vt 0.6546 0.714599967
vt 0.3234 0.1351
vt 0.3047 0.141300023
vt 0.3109 0.157100022
vt 0.3282 0.1476
vt 0.626 0.8923
vt 0.647 0.8891
vt 0.6476 0.8779
vt 0.6274 0.8736
vt 0.4164 0.7473
vt 0.4272 0.6781
vt 0.4123 0.6618
vt 0.7465 0.586699963
vt 0.7383 0.5686
vt 0.725 0.5819
vt 0.7403 0.5937
vt 0.4738 0.4537
vt 0.0594 0.006099999
vt 0.8437 0.9105
vt 0.8602 0.9518
vt 0.8199 0.9793
vt 0.7978 0.930500031
vt 0.3573 0.6339
vt 0.3687 0.645599961
vt 0.3405 0.6787
vt 0.3348 0.6606
vt 0.6266 0.5747
vt 0.5777 0.5756
vt 0.6206 0.533
vt 0.4814 0.4964
vt 0.4563 0.5777
vt 0.416 0.5816
vt 0.4554 0.486599982
vt 0.4291 0.624
vt 0.5719 0.656
vt 0.5377 0.6479
vt 0.5028 0.7223
vt 0.5278 0.7465
vt 0.5088 0.604
vt 0.4888 0.593600035
vt 0.5519 0.5247
vt 0.4749 0.6825
vt 0.4595 0.6501
vt 0.5001 0.7868
vt 0.4773 0.770300031
vt 0.419 0.8977
vt 0.3426 0.8931
vt 0.3312 0.874799967
vt 0.3752 0.8788
vt 0.3897 0.9094
vt 0.7864 0.2702
vt 0.7985 0.333500028
vt 0.8517 0.412199974
vt 0.8607 0.4655
vt 0.8572 0.5553
vt 0.8309 0.6223
vt 0.7917 0.681
vt 0.76 0.6642
vt 0.7284 0.708600044
vt 0.7644 0.9924
vt 0.7312 0.9368
vt 0.4276 0.176199973
vt 0.4771 0.19599998
vt 0.5268 0.2654
vt 0.5438 0.3473
vt 0.522 0.438000023
vt 0.4515 0.450900018
vt 0.4446 0.453800023
vt 0.4563 0.6864
vt 0.4447 0.6594
vt 0.4519 0.7544
vt 0.4382 0.7514
vt 0.4078 0.8624
vt 0.6473 0.432299972
vt 0.6622 0.2748
vt 0.632 0.1595
vt 0.5878 0.07679999
vt 0.5214 0.1279
vt 0.4905 0.106000006
vt 0.8064 0.7606
vt 0.8859 0.700700045
vt 0.9418 0.5614
vt 0.9436 0.470700026
vt 0.9307 0.387700021
vt 0.8946 0.285399973
vt 0.1815 0.8303
vt 0.1815 0.9197
vt 0.2476 0.94
vt 0.2402 0.828500032
vt 0.7949 0.2069
vt 0.8828 0.204999983
vt 0.7882 0.0146999955
vt 0.8643 0.0335000157
vt 0.1773 0.963
vt 0.2534 0.9818
vt 0.1826 0.6828
vt 0.2363 0.6818
vt 0.1963 0.0253999829
vt 0.2367 0.02490002
vt 0.2397 0.4494
vt 0.1846 0.449500024
vt 0.0417 0.9944
vt 0.0328 0.306
vt 0.0853 0.305
vt 0.0821 0.9939
vt 0.089 0.0421000123
vt 0.0327 0.0404999852
vt 0.2399 0.56
vt 0.1791 0.559399962
vt 0.8477 0.8197
vt 0.8368 0.8703
vt 0.7851 0.8086
vt 0.7872 0.8698
vt 0.706 0.7823
vt 0.7105 0.8548
vt 0.4368 0.0959
vt 0.4348 0.07910001
vt 0.4751 0.05159998
vt 0.7033 0.721500039
vt 0.3679 0.118799984
vt 0.3793 0.09219998
vt 0.4838 0.0669000149
vt 0.795 0.7727
vt 0.8393 0.8881
vt 0.7803 0.9046
vt 0.6963 0.8985
vt 0.6951 0.7403
vt 0.7755 0.7835
vt 0.447 0.112500012
vt 0.3792 0.137399971
vt 0.7751 0.887400031
vt 0.6936 0.8778
vt 0.6005 0.316999972
vt 0.5781 0.21509999
vt 0.5848 0.440500021
vt 0.4213 0.6443
vt 0.5406 0.1498
vt 0.4929 0.211399972
vt 0.6565 0.7044
vt 0.6546 0.714599967
vt 0.3234 0.1351
vt 0.3282 0.1476
vt 0.6476 0.8779
vt 0.647 0.8891
vt 0.7465 0.586699963
vt 0.7403 0.5937
vt 0.3752 0.8788
vt 0.3312 0.874799967
vt 0.3426 0.8931
vt 0.33 0.8612
vt 0.3005 0.8653
vt 0.3311 0.9072
vt 0.3553 0.8553
vt 0.3426 0.8931
vt 0.3312 0.874799967
vt 0.3752 0.8788
vt 0.3752 0.8788
vt 0.3312 0.874799967
vt 0.3426 0.8931
vt 0.33 0.8612
vt 0.3005 0.8653
vt 0.3311 0.9072
vt 0.3553 0.8553
vt 0.3426 0.8931
vt 0.3312 0.874799967
vt 0.3752 0.8788
vt 0.3752 0.8788
vt 0.3312 0.874799967
vt 0.3426 0.8931
vt 0.33 0.8612
vt 0.3005 0.8653
vt 0.3311 0.9072
vt 0.3553 0.8553
vt 0.3426 0.8931
vt 0.3312 0.874799967
vt 0.3752 0.8788
vt 0.3752 0.8788
vt 0.3312 0.874799967
vt 0.3426 0.8931
vt 0.33 0.8612
vt 0.3005 0.8653
vt 0.3311 0.9072
vt 0.3553 0.8553
vt 0.3426 0.8931
vt 0.3312 0.874799967
vt 0.3752 0.8788
vt 0.3752 0.8788
vt 0.3312 0.874799967
vt 0.3426 0.8931
vt 0.33 0.8612
vt 0.3005 0.8653
vt 0.3311 0.9072
vt 0.3553 0.8553
vt 0.3426 0.8931
vt 0.3312 0.874799967
vt 0.3752 0.8788
vt 0.3752 0.8788
vt 0.3312 0.874799967
vt 0.3426 0.8931
vt 0.33 0.8612
vt 0.3005 0.8653
vt 0.3311 0.9072
vt 0.3553 0.8553
vt 0.3426 0.8931
vt 0.3312 0.874799967
vt 0.3752 0.8788
vt 0.3752 0.8788
vt 0.3312 0.874799967
vt 0.3426 0.8931
vt 0.33 0.8612
vt 0.3005 0.8653
vt 0.3311 0.9072
vt 0.3553 0.8553
vt 0.3426 0.8931
vt 0.3312 0.874799967
vt 0.3752 0.8788
vt 0.3752 0.8788
vt 0.3312 0.874799967
vt 0.3426 0.8931
vt 0.33 0.8612
vt 0.3005 0.8653
vt 0.3311 0.9072
vt 0.3553 0.8553
vt 0.3426 0.8931
vt 0.3312 0.874799967
vt 0.3752 0.8788
vt 0.3752 0.8788
vt 0.3312 0.874799967
vt 0.3426 0.8931
vt 0.33 0.8612
vt 0.3005 0.8653
vt 0.3311 0.9072
vt 0.3553 0.8553
vt 0.3426 0.8931
vt 0.3312 0.874799967
vt 0.3752 0.8788
vt 0.3752 0.8788
vt 0.3312 0.874799967
vt 0.3426 0.8931
vt 0.33 0.8612
vt 0.3005 0.8653
vt 0.3311 0.9072
vt 0.3553 0.8553
vt 0.3426 0.8931
vt 0.3312 0.874799967
vt 0.3752 0.8788
vt 0.3752 0.8788
vt 0.3312 0.874799967
vt 0.3426 0.8931
vt 0.33 0.8612
vt 0.3005 0.8653
vt 0.3311 0.9072
vt 0.3553 0.8553
vt 0.3426 0.8931
vt 0.3312 0.874799967
vt 0.3752 0.8788
vt 0.3752 0.8788
vt 0.3312 0.874799967
vt 0.3426 0.8931
vt 0.33 0.8612
vt 0.3005 0.8653
vt 0.3311 0.9072
vt 0.3553 0.8553
vt 0.3426 0.8931
vt 0.3312 0.874799967
vt 0.3752 0.8788
vt 0.3752 0.8788
vt 0.3312 0.874799967
vt 0.3426 0.8931
vt 0.33 0.8612
vt 0.3005 0.8653
vt 0.3311 0.9072
vt 0.3553 0.8553
vt 0.3426 0.8931
vt 0.3312 0.874799967
vt 0.3752 0.8788
vn 0 0 0
vn 0 0 0
vn 0 0 0
vn 0 0 0
vn 0 0 0
vn 0 0 0
vn 0 0 0
vn 0 0 0
vn 0 0 0
vn 0 0 0
vn 0 0 0
vn 0 0 0
vn 0 0 0
vn 0 0 0
vn 0 0 0
vn 0 0 0
vn 0 0 0
vn 0 0 0
vn 0 0 0
vn 0 0 0
vn 0 0 0
vn 0 0 0
vn 0 0 0
vn 0 0 0
vn 0 0 0
vn 0 0 0
vn 0 0 0
vn 0 0 0
vn 0 0 0
vn 0 0 0
vn 0 0 0
vn 0 0 0
vn 0 0 0
vn 0 0 0
vn 0 0 0
vn 0 0 0
vn 0 0 0
vn 0 0 0
vn 0 0 0
vn 0 0 0
vn 0 0 0
vn 0 0 0
vn 0 0 0
vn 0 0 0
vn 0 0 0
vn 0 0 0
vn 0 0 0
vn 0 0 0
vn 0 0 0
vn 0 0 0
vn 0 0 0
vn 0 0 0
vn 0 0 0
vn 0 0 0
vn 0 0 0
vn 0 0 0
vn 0 0 0
vn 0 0 0
vn 0 0 0
vn 0 0 0
vn 0 0 0
vn 0 0 0
vn 0 0 0
vn 0 0 0
vn 0 0 0
vn 0 0 0
vn 0 0 0
vn 0 0 0
vn 0 0 0
vn 0 0 0
vn 0 0 0
vn 0 0 0
vn 0 0 0
vn 0 0 0
vn 0 0 0
vn 0 0 0
vn 0 0 0
vn 0 0 0
vn 0 0 0
vn 0 0 0
vn 0 0 0
vn 0 0 0
vn 0 0 0
vn 0 0 0
vn 0 0 0
vn 0 0 0
vn 0 0 0
vn 0 0 0
vn 0 0 0
vn 0 0 0
vn 0 0 0
vn 0 0 0
vn 0 0 0
vn 0 0 0
vn 0 0 0
vn 0 0 0
vn 0 0 0
vn 0 0 0
vn 0 0 0
vn 0 0 0
vn 0 0 0
vn 0 0 0
vn 0 0 0
vn 0 0 0
vn 0 0 0
vn 0 0 0
vn 0 0 0
vn 0 0 0
vn 0 0 0
vn 0 0 0
vn 0 0 0
vn 0 0 0
vn 0 0 0
vn 0 0 0
vn 0 0 0
vn 0 0 0
vn 0 0 0
vn 0 0 0
vn 0 0 0
vn 0 0 0
vn 0 0 0
vn 0 0 0
vn 0 0 0
vn 0 0 0
vn 0 0 0
vn 0 0 0
vn 0 0 0
vn 0 0 0
vn 0 0 0
vn 0 0 0
vn 0 0 0
vn 0 0 0
vn 0 0 0
vn 0 0 0
vn 0 0 0
vn 0 0 0
vn 0 0 0
vn 0 0 0
vn 0 0 0
vn 0 0 0
vn 0 0 0
vn 0 0 0
vn 0 0 0
vn 0 0 0
vn 0 0 0
vn 0 0 0
vn 0 0 0
vn 0 0 0
vn 0 0 0
vn 0 0 0
vn 0 0 0
vn 0 0 0
vn 0 0 0
vn 0 0 0
vn 0 0 0
vn 0 0 0
vn 0 0 0
vn 0 0 0
vn 0 0 0
vn 0 0 0
vn 0 0 0
vn 0 0 0
vn 0 0 0
vn 0 0 0
vn 0 0 0
vn 0 0 0
vn 0 0 0
vn 0 0 0
vn 0 0 0
vn 0 0 0
vn 0 0 0
vn 0 0 0
vn 0 0 0
vn 0 0 0
vn 0 0 0
vn 0 0 0
vn 0 0 0
vn 0 0 0
vn 0 0 0
vn 0 0 0
vn 0 0 0
vn 0 0 0
vn 0 0 0
vn 0 0 0
vn 0 0 0
vn 0 0 0
vn 0 0 0
vn 0 0 0
vn 0 0 0
vn 0 0 0
vn 0 0 0
vn 0 0 0
vn 0 0 0
vn 0 0 0
vn 0 0 0
vn 0 0 0
vn 0 0 0
vn 0 0 0
vn 0 0 0
vn 0 0 0
vn 0 0 0
vn 0 0 0
vn 0 0 0
vn 0 0 0
vn 0 0 0
vn 0 0 0
vn 0 0 0
vn 0 0 0
vn 0 0 0
vn 0 0 0
vn 0 0 0
vn 0 0 0
vn 0 0 0
vn 0 0 0
vn 0 0 0
vn 0 0 0
vn 0 0 0
vn 0 0 0
vn 0 0 0
vn 0 0 0
vn 0 0 0
vn 0 0 0
vn 0 0 0
vn 0 0 0
vn 0 0 0
vn 0 0 0
vn 0 0 0
vn 0 0 0
vn 0 0 0
vn 0 0 0
vn 0 0 0
vn 0 0 0
vn 0 0 0
vn 0 0 0
vn 0 0 0
vn 0 0 0
vn 0 0 0
vn 0 0 0
vn 0 0 0
vn 0 0 0
vn 0 0 0
vn 0 0 0
vn 0 0 0
vn 0 0 0
vn 0 0 0
vn 0 0 0
vn 0 0 0
vn 0 0 0
vn 0 0 0
vn 0 0 0
vn 0 0 0
vn 0 0 0
vn 0 0 0
vn 0 0 0
vn 0 0 0
vn 0 0 0
vn 0 0 0
vn 0 0 0
vn 0 0 0
vn 0 0 0
vn 0 0 0
vn 0 0 0
vn 0 0 0
vn 0 0 0
vn 0 0 0
vn 0 0 0
vn 0 0 0
vn 0 0 0
vn 0 0 0
vn 0 0 0
vn 0 0 0
vn 0 0 0
vn 0 0 0
vn 0 0 0
vn 0 0 0
vn 0 0 0
vn 0 0 0
vn 0 0 0
vn 0 0 0
vn 0 0 0
vn 0 0 0
vn 0 0 0
vn 0 0 0
vn 0 0 0
vn 0 0 0
vn 0 0 0
vn 0 0 0
vn 0 0 0
vn 0 0 0
vn 0 0 0
vn 0 0 0
vn 0 0 0
vn 0 0 0
vn 0 0 0
vn 0 0 0
vn 0 0 0
vn 0 0 0
vn 0 0 0
vn 0 0 0
vn 0 0 0
vn 0 0 0
vn 0 0 0
vn 0 0 0
vn 0 0 0
vn 0 0 0
vn 0 0 0
vn 0 0 0
vn 0 0 0
vn 0 0 0
vn 0 0 0
vn 0 0 0
vn 0 0 0
vn 0 0 0
vn 0 0 0
vn 0 0 0
vn 0 0 0
vn 0 0 0
vn 0 0 0
vn 0 0 0
vn 0 0 0
vn 0 0 0
vn 0 0 0
vn 0 0 0
vn 0 0 0
vn 0 0 0
vn 0 0 0
vn 0 0 0
vn 0 0 0
vn 0 0 0
vn 0 0 0
vn 0 0 0
vn 0 0 0
vn 0 0 0
vn 0 0 0
vn 0 0 0
vn 0 0 0
vn 0 0 0
vn 0 0 0
vn 0 0 0
vn 0 0 0
vn 0 0 0
vn 0 0 0
vn 0 0 0
vn 0 0 0
vn 0 0 0
vn 0 0 0
vn 0 0 0
vn 0 0 0
vn 0 0 0
vn 0 0 0
vn 0 0 0
vn 0 0 0
vn 0 0 0
vn 0 0 0
vn 0 0 0
vn 0 0 0
vn 0 0 0
vn 0 0 0
vn 0 0 0
vn 0 0 0
vn 0 0 0
vn 0 0 0
vn 0 0 0
vn 0 0 0
vn 0 0 0
vn 0 0 0
vn 0 0 0
vn 0 0 0
vn 0 0 0
vn 0 0 0
vn 0 0 0
vn 0 0 0
vn 0 0 0
vn 0 0 0
vn 0 0 0
vn 0 0 0
vn 0 0 0
vn 0 0 0
vn 0 0 0
vn 0 0 0
vn 0 0 0
vn 0 0 0
vn 0 0 0
vn 0 0 0
vn 0 0 0
vn 0 0 0
vn 0 0 0
vn 0 0 0
vn 0 0 0
vn 0 0 0
vn 0 0 0
vn 0 0 0
vn 0 0 0
vn 0 0 0
vn 0 0 0
vn 0 0 0
vn 0 0 0
vn 0 0 0
vn 0 0 0
vn 0 0 0
vn 0 0 0
vn 0 0 0
vn 0 0 0
vn 0 0 0
vn 0 0 0
vn 0 0 0
vn 0 0 0
vn 0 0 0
vn 0 0 0
vn 0 0 0
vn 0 0 0
vn 0 0 0
vn 0 0 0
vn 0 0 0
vn 0 0 0
vn 0 0 0
vn 0 0 0
vn 0 0 0
vn 0 0 0
vn 0 0 0
vn 0 0 0
vn 0 0 0
vn 0 0 0
vn 0 0 0
vn 0 0 0
vn 0 0 0
vn 0 0 0
vn 0 0 0
vn 0 0 0
vn 0 0 0
vn 0 0 0
vn 0 0 0
vn 0 0 0
vn 0 0 0
vn 0 0 0
vn 0 0 0
vn 0 0 0
vn 0 0 0
vn 0 0 0
vn 0 0 0
vn 0 0 0
vn 0 0 0
vn 0 0 0
vn 0 0 0
vn 0 0 0
vn 0 0 0
vn 0 0 0
vn 0 0 0
vn 0 0 0
vn 0 0 0
vn 0 0 0
vn 0 0 0
vn 0 0 0
vn 0 0 0
vn 0 0 0
vn 0 0 0
vn 0 0 0
vn 0 0 0
vn 0 0 0
vn 0 0 0
vn 0 0 0
vn 0 0 0
vn 0 0 0
vn 0 0 0
vn 0 0 0
vn 0 0 0
vn 0 0 0
vn 0 0 0
vn 0 0 0
vn 0 0 0
vn 0 0 0
vn 0 0 0
vn 0 0 0
vn 0 0 0
vn 0 0 0
vn 0 0 0
vn 0 0 0
vn 0 0 0
vn 0 0 0
vn 0 0 0
vn 0 0 0
vn 0 0 0
vn 0 0 0
vn 0 0 0
vn 0 0 0
vn 0 0 0
vn 0 0 0
vn 0 0 0
vn 0 0 0
vn 0 0 0
usemtl JESSSKPYTH_part_0_material_0
f 1/1/1 3/3/3 2/2/2
f 3/3/3 1/1/1 4/4/4
f 5/5/5 7/7/7 6/6/6
f 7/7/7 5/5/5 8/8/8
f 9/9/9 11/11/11 10/10/10
f 12/12/12 14/14/14 13/13/13
f 14/14/14 12/12/12 15/15/15
f 16/16/16 14/14/14 15/15/15
f 9/9/9 17/17/17 11/11/11
f 17/17/17 9/9/9 18/18/18
f 19/19/19 18/18/18 20/20/20
f 18/18/18 19/19/19 17/17/17
f 21/21/21 23/23/23 22/22/22
f 21/21/21 24/24/24 23/23/23
f 24/24/24 21/21/21 25/25/25
f 26/26/26 19/19/19 20/20/20
f 19/19/19 26/26/26 27/27/27
f 28/28/28 27/27/27 26/26/26
f 29/29/29 31/31/31 30/30/30
f 31/31/31 29/29/29 32/32/32
f 33/33/33 35/35/35 34/34/34
f 35/35/35 33/33/33 36/36/36
f 34/34/34 38/38/38 37/37/37
f 38/38/38 34/34/34 35/35/35
f 37/37/37 40/40/40 39/39/39
f 40/40/40 37/37/37 38/38/38
f 41/41/41 43/43/43 42/42/42
f 43/43/43 41/41/41 44/44/44
f 45/45/45 42/42/42 43/43/43
f 42/42/42 45/45/45 46/46/46
f 47/47/47 49/49/49 48/48/48
f 49/49/49 47/47/47 50/50/50
f 51/51/51 53/53/53 52/52/52
f 53/53/53 51/51/51 54/54/54
f 55/55/55 57/57/57 56/56/56
f 57/57/57 55/55/55 58/58/58
f 59/59/59 61/61/61 60/60/60
f 61/61/61 59/59/59 62/62/62
f 61/61/61 64/64/64 63/63/63
f 64/64/64 61/61/61 62/62/62
f 65/65/65 67/67/67 66/66/66
f 67/67/67 65/65/65 68/68/68
f 69/69/69 14/14/14 70/70/70
f 14/14/14 69/69/69 13/13/13
f 5/5/5 72/72/72 71/71/71
f 72/72/72 5/5/5 6/6/6
f 72/72/72 7/7/7 73/73/73
f 7/7/7 72/72/72 6/6/6
f 8/8/8 74/74/74 7/7/7
f 74/74/74 8/8/8 75/75/75
f 76/76/76 24/24/24 25/25/25
f 24/24/24 76/76/76 77/77/77
f 78/78/78 76/76/76 25/25/25
f 76/76/76 78/78/78 79/79/79
f 78/78/78 80/80/80 79/79/79
f 80/80/80 78/78/78 81/81/81
f 32/32/32 83/83/83 82/82/82
f 83/83/83 29/29/29 84/84/84
f 29/29/29 83/83/83 32/32/32
f 84/84/84 30/30/30 85/85/85
f 30/30/30 84/84/84 29/29/29
f 86/86/86 26/26/26 87/87/87
f 26/26/26 86/86/86 28/28/28
f 87/87/87 20/20/20 88/88/88
f 20/20/20 87/87/87 26/26/26
f 88/88/88 18/18/18 89/89/89
f 18/18/18 88/88/88 20/20/20
f 89/89/89 9/9/9 90/90/90
f 9/9/9 89/89/89 18/18/18
f 90/90/90 10/10/10 91/91/91
f 10/10/10 90/90/90 9/9/9
f 91/91/91 93/93/93 92/92/92
f 93/93/93 91/91/91 10/10/10
f 92/92/92 95/95/95 94/94/94
f 95/95/95 92/92/92 93/93/93
f 94/94/94 97/97/97 96/96/96
f 97/97/97 94/94/94 95/95/95
f 98/98/98 100/100/100 99/99/99
f 101/101/101 103/103/103 102/102/102
f 103/103/103 101/101/101 104/104/104
f 4/4/4 106/106/106 105/105/105
f 106/106/106 4/4/4 1/1/1
f 107/107/107 109/109/109 108/108/108
f 109/109/109 107/107/107 110/110/110
f 108/108/108 112/112/112 111/111/111
f 112/112/112 108/108/108 109/109/109
f 113/113/113 115/115/115 114/114/114
f 115/115/115 113/113/113 116/116/116
f 114/114/114 118/118/118 117/117/117
f 118/118/118 114/114/114 115/115/115
f 119/119/119 121/121/121 120/120/120
f 121/121/121 119/119/119 122/122/122
f 123/123/123 125/125/125 124/124/124
f 125/125/125 123/123/123 126/126/126
f 33/33/33 127/127/127 36/36/36
f 127/127/127 33/33/33 128/128/128
f 129/129/129 117/117/117 118/118/118
f 117/117/117 129/129/129 130/130/130
f 128/128/128 131/131/131 127/127/127
f 131/131/131 128/128/128 132/132/132
f 129/129/129 133/133/133 130/130/130
f 133/133/133 129/129/129 134/134/134
f 135/135/135 122/122/122 136/136/136
f 122/122/122 135/135/135 121/121/121
f 137/137/137 123/123/123 138/138/138
f 123/123/123 137/137/137 126/126/126
f 119/119/119 139/139/139 125/125/125
f 139/139/139 119/119/119 140/140/140
f 139/139/139 124/124/124 125/125/125
f 124/124/124 139/139/139 141/141/141
f 120/120/120 140/140/140 119/119/119
f 140/140/140 120/120/120 142/142/142
f 143/143/143 145/145/145 144/144/144
f 145/145/145 143/143/143 146/146/146
f 146/146/146 147/147/147 145/145/145
f 147/147/147 146/146/146 148/148/148
f 149/149/149 144/144/144 150/150/150
f 144/144/144 149/149/149 143/143/143
f 151/151/151 153/153/153 152/152/152
f 153/153/153 151/151/151 154/154/154
f 155/155/155 152/152/152 153/153/153
f 152/152/152 155/155/155 156/156/156
f 154/154/154 158/158/158 157/157/157
f 158/158/158 154/154/154 151/151/151
f 159/159/159 154/154/154 160/160/160
f 154/154/154 159/159/159 153/153/153
f 153/153/153 161/161/161 155/155/155
f 161/161/161 153/153/153 159/159/159
f 157/157/157 160/160/160 154/154/154
f 160/160/160 157/157/157 162/162/162
f 35/35/35 36/36/36 118/118/118
f 118/118/118 38/38/38 35/35/35
f 38/38/38 118/118/118 115/115/115
f 115/115/115 40/40/40 38/38/38
f 40/40/40 115/115/115 116/116/116
f 112/112/112 43/43/43 44/44/44
f 43/43/43 112/112/112 109/109/109
f 109/109/109 45/45/45 43/43/43
f 109/109/109 110/110/110 45/45/45
f 103/103/103 57/57/57 58/58/58
f 57/57/57 103/103/103 104/104/104
f 36/36/36 129/129/129 118/118/118
f 129/129/129 36/36/36 127/127/127
f 127/127/127 134/134/134 129/129/129
f 134/134/134 127/127/127 131/131/131
f 136/136/136 126/126/126 137/137/137
f 126/126/126 136/136/136 122/122/122
f 122/122/122 125/125/125 126/126/126
f 125/125/125 122/122/122 119/119/119
f 163/163/163 140/140/140 164/164/164
f 140/140/140 163/163/163 139/139/139
f 165/165/165 139/139/139 163/163/163
f 139/139/139 165/165/165 141/141/141
f 164/164/164 142/142/142 166/166/166
f 142/142/142 164/164/164 140/140/140
f 164/164/164 145/145/145 163/163/163
f 145/145/145 164/164/164 144/144/144
f 163/163/163 147/147/147 165/165/165
f 147/147/147 163/163/163 145/145/145
f 166/166/166 144/144/144 164/164/164
f 144/144/144 166/166/166 150/150/150
f 28/28/28 31/31/31 81/81/81
f 31/31/31 28/28/28 30/30/30
f 80/80/80 31/31/31 167/167/167
f 31/31/31 80/80/80 81/81/81
f 30/30/30 86/86/86 85/85/85
f 86/86/86 30/30/30 28/28/28
f 168/168/168 170/170/170 169/169/169
f 170/170/170 168/168/168 171/171/171
f 172/172/172 169/169/169 173/173/173
f 169/169/169 172/172/172 168/168/168
f 174/174/174 176/176/176 175/175/175
f 176/176/176 174/174/174 177/177/177
f 178/178/178 180/180/180 179/179/179
f 181/181/181 47/47/47 48/48/48
f 47/47/47 181/181/181 182/182/182
f 183/183/183 185/185/185 184/184/184
f 185/185/185 183/183/183 186/186/186
f 103/103/103 187/187/187 102/102/102
f 103/103/103 188/188/188 187/187/187
f 110/110/110 190/190/190 189/189/189
f 190/190/190 110/110/110 107/107/107
f 191/191/191 1/1/1 192/192/192
f 1/1/1 191/191/191 106/106/106
f 2/2/2 192/192/192 1/1/1
f 192/192/192 2/2/2 193/193/193
f 194/194/194 52/52/52 53/53/53
f 52/52/52 194/194/194 195/195/195
f 177/177/177 197/197/197 196/196/196
f 197/197/197 177/177/177 174/174/174
f 189/189/189 172/172/172 198/198/198
f 172/172/172 189/189/189 168/168/168
f 171/171/171 189/189/189 190/190/190
f 189/189/189 171/171/171 168/168/168
f 55/55/55 199/199/199 58/58/58
f 199/199/199 55/55/55 200/200/200
f 201/201/201 58/58/58 199/199/199
f 103/103/103 58/58/58 201/201/201
f 169/169/169 191/191/191 192/192/192
f 191/191/191 169/169/169 170/170/170
f 192/192/192 173/173/173 169/169/169
f 173/173/173 192/192/192 202/202/202
f 175/175/175 204/204/204 203/203/203
f 204/204/204 175/175/175 176/176/176
f 205/205/205 97/97/97 95/95/95
f 97/97/97 205/205/205 206/206/206
f 207/207/207 95/95/95 93/93/93
f 95/95/95 207/207/207 205/205/205
f 207/207/207 10/10/10 22/22/22
f 10/10/10 207/207/207 93/93/93
f 22/22/22 11/11/11 21/21/21
f 11/11/11 22/22/22 10/10/10
f 11/11/11 17/17/17 21/21/21
f 25/25/25 17/17/17 19/19/19
f 17/17/17 25/25/25 21/21/21
f 25/25/25 27/27/27 78/78/78
f 27/27/27 25/25/25 19/19/19
f 28/28/28 78/78/78 27/27/27
f 78/78/78 28/28/28 81/81/81
f 99/99/99 97/97/97 98/98/98
f 97/97/97 99/99/99 96/96/96
f 8/8/8 208/208/208 75/75/75
f 208/208/208 8/8/8 16/16/16
f 16/16/16 5/5/5 14/14/14
f 5/5/5 16/16/16 8/8/8
f 14/14/14 71/71/71 70/70/70
f 71/71/71 14/14/14 5/5/5
f 209/209/209 57/57/57 104/104/104
f 57/57/57 209/209/209 210/210/210
f 210/210/210 56/56/56 57/57/57
f 56/56/56 210/210/210 211/211/211
f 98/98/98 104/104/104 100/100/100
f 104/104/104 98/98/98 209/209/209
f 209/209/209 97/97/97 206/206/206
f 97/97/97 209/209/209 98/98/98
f 193/193/193 202/202/202 192/192/192
f 212/212/212 214/214/214 213/213/213
f 214/214/214 212/212/212 215/215/215
f 216/216/216 218/218/218 217/217/217
f 218/218/218 216/216/216 219/219/219
f 220/220/220 222/222/222 221/221/221
f 222/222/222 220/220/220 223/223/223
f 31/31/31 82/82/82 167/167/167
f 82/82/82 31/31/31 32/32/32
f 79/79/79 80/80/80 224/224/224
f 79/79/79 225/225/225 76/76/76
f 225/225/225 79/79/79 224/224/224
f 77/77/77 76/76/76 225/225/225
f 75/75/75 208/208/208 226/226/226
f 7/7/7 74/74/74 73/73/73
f 104/104/104 101/101/101 100/100/100
f 227/227/227 229/229/229 228/228/228
f 229/229/229 227/227/227 230/230/230
f 46/46/46 227/227/227 228/228/228
f 227/227/227 46/46/46 45/45/45
f 45/45/45 230/230/230 227/227/227
f 230/230/230 45/45/45 49/49/49
f 49/49/49 229/229/229 230/230/230
f 229/229/229 49/49/49 50/50/50
f 182/182/182 212/212/212 213/213/213
f 212/212/212 182/182/182 181/181/181
f 181/181/181 215/215/215 212/212/212
f 215/215/215 181/181/181 196/196/196
f 196/196/196 214/214/214 215/215/215
f 214/214/214 196/196/196 197/197/197
f 186/186/186 216/216/216 217/217/217
f 216/216/216 186/186/186 183/183/183
f 183/183/183 219/219/219 216/216/216
f 219/219/219 183/183/183 199/199/199
f 199/199/199 218/218/218 219/219/219
f 218/218/218 199/199/199 200/200/200
f 195/195/195 220/220/220 221/221/221
f 220/220/220 195/195/195 194/194/194
f 203/203/203 222/222/222 223/223/223
f 222/222/222 203/203/203 204/204/204
f 204/204/204 221/221/221 222/222/222
f 221/221/221 204/204/204 195/195/195
f 225/225/225 208/208/208 77/77/77
f 208/208/208 225/225/225 226/226/226
f 208/208/208 24/24/24 77/77/77
f 24/24/24 208/208/208 16/16/16
f 16/16/16 23/23/23 24/24/24
f 23/23/23 16/16/16 15/15/15
f 23/23/23 12/12/12 22/22/22
f 12/12/12 23/23/23 15/15/15
f 22/22/22 64/64/64 207/207/207
f 64/64/64 22/22/22 12/12/12
f 207/207/207 62/62/62 205/205/205
f 62/62/62 207/207/207 64/64/64
f 205/205/205 59/59/59 206/206/206
f 59/59/59 205/205/205 62/62/62
f 209/209/209 59/59/59 210/210/210
f 59/59/59 209/209/209 206/206/206
f 210/210/210 60/60/60 211/211/211
f 60/60/60 210/210/210 59/59/59
f 41/41/41 40/40/40 44/44/44
f 40/40/40 41/41/41 39/39/39
f 113/113/113 112/112/112 116/116/116
f 112/112/112 113/113/113 111/111/111
f 44/44/44 116/116/116 112/112/112
f 116/116/116 44/44/44 40/40/40
f 64/64/64 231/231/231 63/63/63
f 231/231/231 64/64/64 12/12/12
f 13/13/13 67/67/67 68/68/68
f 67/67/67 13/13/13 69/69/69
f 12/12/12 68/68/68 65/65/65
f 68/68/68 12/12/12 13/13/13
f 231/231/231 65/65/65 66/66/66
f 65/65/65 231/231/231 12/12/12
f 110/110/110 49/49/49 45/45/45
f 49/49/49 110/110/110 48/48/48
f 3/3/3 52/52/52 2/2/2
f 52/52/52 3/3/3 51/51/51
f 177/177/177 173/173/173 176/176/176
f 173/173/173 177/177/177 172/172/172
f 189/189/189 48/48/48 110/110/110
f 48/48/48 189/189/189 181/181/181
f 178/178/178 184/184/184 180/180/180
f 184/184/184 178/178/178 183/183/183
f 195/195/195 2/2/2 52/52/52
f 2/2/2 195/195/195 193/193/193
f 172/172/172 196/196/196 198/198/198
f 196/196/196 172/172/172 177/177/177
f 176/176/176 202/202/202 204/204/204
f 202/202/202 176/176/176 173/173/173
f 198/198/198 181/181/181 189/189/189
f 181/181/181 198/198/198 196/196/196
f 201/201/201 183/183/183 178/178/178
f 183/183/183 201/201/201 199/199/199
f 204/204/204 193/193/193 195/195/195
f 193/193/193 204/204/204 202/202/202
f 232/232/232 159/159/159 160/160/160
f 160/160/160 162/162/162 232/232/232
f 232/232/232 161/161/161 159/159/159
f 233/233/233 235/235/235 234/234/234
f 235/235/235 233/233/233 236/236/236
f 237/237/237 239/239/239 238/238/238
f 239/239/239 237/237/237 240/240/240
f 241/241/241 243/243/243 242/242/242
f 244/244/244 246/246/246 245/245/245
f 246/246/246 244/244/244 247/247/247
f 246/246/246 248/248/248 245/245/245
f 241/241/241 250/250/250 249/249/249
f 250/250/250 241/241/241 242/242/242
f 251/251/251 249/249/249 250/250/250
f 249/249/249 251/251/251 252/252/252
f 253/253/253 255/255/255 254/254/254
f 253/253/253 257/257/257 256/256/256
f 257/257/257 253/253/253 254/254/254
f 258/258/258 251/251/251 259/259/259
f 251/251/251 258/258/258 252/252/252
f 259/259/259 260/260/260 258/258/258
f 261/261/261 263/263/263 262/262/262
f 263/263/263 261/261/261 264/264/264
f 33/33/33 266/266/266 265/265/265
f 266/266/266 33/33/33 34/34/34
f 34/34/34 267/267/267 266/266/266
f 267/267/267 34/34/34 37/37/37
f 37/37/37 268/268/268 267/267/267
f 268/268/268 37/37/37 39/39/39
f 41/41/41 270/270/270 269/269/269
f 270/270/270 41/41/41 42/42/42
f 271/271/271 42/42/42 46/46/46
f 42/42/42 271/271/271 270/270/270
f 47/47/47 272/272/272 50/50/50
f 272/272/272 47/47/47 273/273/273
f 274/274/274 53/53/53 54/54/54
f 53/53/53 274/274/274 275/275/275
f 55/55/55 277/277/277 276/276/276
f 277/277/277 55/55/55 56/56/56
f 278/278/278 61/61/61 279/279/279
f 61/61/61 278/278/278 60/60/60
f 61/61/61 280/280/280 279/279/279
f 280/280/280 61/61/61 63/63/63
f 281/281/281 67/67/67 282/282/282
f 67/67/67 281/281/281 66/66/66
f 69/69/69 246/246/246 247/247/247
f 246/246/246 69/69/69 70/70/70
f 237/237/237 72/72/72 240/240/240
f 72/72/72 237/237/237 71/71/71
f 72/72/72 239/239/239 240/240/240
f 239/239/239 72/72/72 73/73/73
f 238/238/238 74/74/74 75/75/75
f 74/74/74 238/238/238 239/239/239
f 283/283/283 257/257/257 284/284/284
f 257/257/257 283/283/283 256/256/256
f 285/285/285 283/283/283 286/286/286
f 283/283/283 285/285/285 256/256/256
f 80/80/80 285/285/285 286/286/286
f 285/285/285 80/80/80 287/287/287
f 262/262/262 82/82/82 83/83/83
f 83/83/83 261/261/261 262/262/262
f 261/261/261 83/83/83 84/84/84
f 84/84/84 264/264/264 261/261/261
f 264/264/264 84/84/84 85/85/85
f 258/258/258 86/86/86 87/87/87
f 86/86/86 258/258/258 260/260/260
f 87/87/87 252/252/252 258/258/258
f 252/252/252 87/87/87 88/88/88
f 88/88/88 249/249/249 252/252/252
f 249/249/249 88/88/88 89/89/89
f 89/89/89 241/241/241 249/249/249
f 241/241/241 89/89/89 90/90/90
f 90/90/90 243/243/243 241/241/241
f 243/243/243 90/90/90 91/91/91
f 91/91/91 288/288/288 243/243/243
f 288/288/288 91/91/91 92/92/92
f 92/92/92 289/289/289 288/288/288
f 289/289/289 92/92/92 94/94/94
f 94/94/94 290/290/290 289/289/289
f 290/290/290 94/94/94 96/96/96
f 100/100/100 291/291/291 99/99/99
f 101/101/101 293/293/293 292/292/292
f 293/293/293 101/101/101 102/102/102
f 234/234/234 106/106/106 233/233/233
f 106/106/106 234/234/234 105/105/105
f 107/107/107 295/295/295 294/294/294
f 295/295/295 107/107/107 108/108/108
f 108/108/108 296/296/296 295/295/295
f 296/296/296 108/108/108 111/111/111
f 113/113/113 298/298/298 297/297/297
f 298/298/298 113/113/113 114/114/114
f 114/114/114 299/299/299 298/298/298
f 299/299/299 114/114/114 117/117/117
f 300/300/300 121/121/121 301/301/301
f 121/121/121 300/300/300 120/120/120
f 123/123/123 303/303/303 302/302/302
f 303/303/303 123/123/123 124/124/124
f 33/33/33 304/304/304 128/128/128
f 304/304/304 33/33/33 265/265/265
f 305/305/305 117/117/117 130/130/130
f 117/117/117 305/305/305 299/299/299
f 128/128/128 306/306/306 132/132/132
f 306/306/306 128/128/128 304/304/304
f 305/305/305 133/133/133 307/307/307
f 133/133/133 305/305/305 130/130/130
f 135/135/135 301/301/301 121/121/121
f 301/301/301 135/135/135 308/308/308
f 309/309/309 123/123/123 302/302/302
f 123/123/123 309/309/309 138/138/138
f 300/300/300 311/311/311 310/310/310
f 311/311/311 300/300/300 303/303/303
f 311/311/311 124/124/124 141/141/141
f 124/124/124 311/311/311 303/303/303
f 120/120/120 310/310/310 142/142/142
f 310/310/310 120/120/120 300/300/300
f 312/312/312 314/314/314 313/313/313
f 314/314/314 312/312/312 315/315/315
f 313/313/313 147/147/147 148/148/148
f 147/147/147 313/313/313 314/314/314
f 149/149/149 315/315/315 312/312/312
f 315/315/315 149/149/149 150/150/150
f 316/316/316 318/318/318 317/317/317
f 318/318/318 316/316/316 319/319/319
f 319/319/319 155/155/155 318/318/318
f 155/155/155 319/319/319 156/156/156
f 158/158/158 317/317/317 157/157/157
f 317/317/317 158/158/158 316/316/316
f 320/320/320 317/317/317 318/318/318
f 317/317/317 320/320/320 321/321/321
f 318/318/318 161/161/161 320/320/320
f 161/161/161 318/318/318 155/155/155
f 157/157/157 321/321/321 162/162/162
f 321/321/321 157/157/157 317/317/317
f 266/266/266 299/299/299 265/265/265
f 299/299/299 267/267/267 298/298/298
f 267/267/267 299/299/299 266/266/266
f 298/298/298 268/268/268 297/297/297
f 268/268/268 298/298/298 267/267/267
f 296/296/296 270/270/270 295/295/295
f 270/270/270 296/296/296 269/269/269
f 295/295/295 270/270/270 271/271/271
f 295/295/295 271/271/271 294/294/294
f 293/293/293 277/277/277 292/292/292
f 277/277/277 293/293/293 276/276/276
f 265/265/265 305/305/305 304/304/304
f 305/305/305 265/265/265 299/299/299
f 304/304/304 307/307/307 306/306/306
f 307/307/307 304/304/304 305/305/305
f 308/308/308 302/302/302 301/301/301
f 302/302/302 308/308/308 309/309/309
f 301/301/301 303/303/303 300/300/300
f 303/303/303 301/301/301 302/302/302
f 322/322/322 310/310/310 311/311/311
f 310/310/310 322/322/322 323/323/323
f 165/165/165 311/311/311 141/141/141
f 311/311/311 165/165/165 322/322/322
f 323/323/323 142/142/142 310/310/310
f 142/142/142 323/323/323 166/166/166
f 323/323/323 314/314/314 315/315/315
f 314/314/314 323/323/323 322/322/322
f 322/322/322 147/147/147 314/314/314
f 147/147/147 322/322/322 165/165/165
f 166/166/166 315/315/315 150/150/150
f 315/315/315 166/166/166 323/323/323
f 260/260/260 263/263/263 264/264/264
f 263/263/263 260/260/260 287/287/287
f 80/80/80 263/263/263 287/287/287
f 263/263/263 80/80/80 167/167/167
f 264/264/264 86/86/86 260/260/260
f 86/86/86 264/264/264 85/85/85
f 324/324/324 170/170/170 171/171/171
f 170/170/170 324/324/324 325/325/325
f 326/326/326 325/325/325 324/324/324
f 325/325/325 326/326/326 327/327/327
f 174/174/174 329/329/329 328/328/328
f 329/329/329 174/174/174 175/175/175
f 330/330/330 332/332/332 331/331/331
f 333/333/333 47/47/47 182/182/182
f 47/47/47 333/333/333 273/273/273
f 334/334/334 185/185/185 186/186/186
f 185/185/185 334/334/334 335/335/335
f 187/187/187 293/293/293 102/102/102
f 293/293/293 187/187/187 336/336/336
f 294/294/294 190/190/190 107/107/107
f 190/190/190 294/294/294 337/337/337
f 191/191/191 233/233/233 106/106/106
f 233/233/233 191/191/191 338/338/338
f 236/236/236 338/338/338 339/339/339
f 338/338/338 236/236/236 233/233/233
f 194/194/194 275/275/275 340/340/340
f 275/275/275 194/194/194 53/53/53
f 328/328/328 197/197/197 174/174/174
f 197/197/197 328/328/328 341/341/341
f 337/337/337 326/326/326 324/324/324
f 326/326/326 337/337/337 342/342/342
f 171/171/171 337/337/337 324/324/324
f 337/337/337 171/171/171 190/190/190
f 336/336/336 343/343/343 293/293/293
f 55/55/55 344/344/344 200/200/200
f 344/344/344 55/55/55 276/276/276
f 336/336/336 187/187/187 332/332/332
f 276/276/276 343/343/343 344/344/344
f 343/343/343 276/276/276 293/293/293
f 325/325/325 191/191/191 170/170/170
f 191/191/191 325/325/325 338/338/338
f 338/338/338 327/327/327 345/345/345
f 327/327/327 338/338/338 325/325/325
f 175/175/175 346/346/346 329/329/329
f 346/346/346 175/175/175 203/203/203
f 347/347/347 290/290/290 348/348/348
f 290/290/290 347/347/347 289/289/289
f 349/349/349 289/289/289 347/347/347
f 289/289/289 349/349/349 288/288/288
f 349/349/349 243/243/243 288/288/288
f 243/243/243 349/349/349 255/255/255
f 255/255/255 242/242/242 243/243/243
f 242/242/242 255/255/255 253/253/253
f 242/242/242 253/253/253 250/250/250
f 256/256/256 250/250/250 253/253/253
f 250/250/250 256/256/256 251/251/251
f 256/256/256 259/259/259 251/251/251
f 259/259/259 256/256/256 285/285/285
f 260/260/260 285/285/285 287/287/287
f 285/285/285 260/260/260 259/259/259
f 99/99/99 290/290/290 96/96/96
f 290/290/290 99/99/99 291/291/291
f 238/238/238 350/350/350 248/248/248
f 350/350/350 238/238/238 75/75/75
f 248/248/248 237/237/237 238/238/238
f 237/237/237 248/248/248 246/246/246
f 246/246/246 71/71/71 237/237/237
f 71/71/71 246/246/246 70/70/70
f 351/351/351 277/277/277 352/352/352
f 277/277/277 351/351/351 292/292/292
f 352/352/352 56/56/56 211/211/211
f 56/56/56 352/352/352 277/277/277
f 291/291/291 292/292/292 351/351/351
f 292/292/292 291/291/291 100/100/100
f 351/351/351 290/290/290 291/291/291
f 290/290/290 351/351/351 348/348/348
f 339/339/339 338/338/338 345/345/345
f 353/353/353 214/214/214 354/354/354
f 214/214/214 353/353/353 213/213/213
f 355/355/355 218/218/218 356/356/356
f 218/218/218 355/355/355 217/217/217
f 220/220/220 357/357/357 223/223/223
f 357/357/357 220/220/220 358/358/358
f 263/263/263 82/82/82 262/262/262
f 82/82/82 263/263/263 167/167/167
f 80/80/80 286/286/286 224/224/224
f 286/286/286 225/225/225 224/224/224
f 225/225/225 286/286/286 283/283/283
f 284/284/284 225/225/225 283/283/283
f 350/350/350 75/75/75 226/226/226
f 239/239/239 73/73/73 74/74/74
f 292/292/292 100/100/100 101/101/101
f 359/359/359 229/229/229 360/360/360
f 229/229/229 359/359/359 228/228/228
f 46/46/46 359/359/359 271/271/271
f 359/359/359 46/46/46 228/228/228
f 271/271/271 360/360/360 272/272/272
f 360/360/360 271/271/271 359/359/359
f 272/272/272 229/229/229 50/50/50
f 229/229/229 272/272/272 360/360/360
f 182/182/182 353/353/353 333/333/333
f 353/353/353 182/182/182 213/213/213
f 333/333/333 354/354/354 341/341/341
f 354/354/354 333/333/333 353/353/353
f 341/341/341 214/214/214 197/197/197
f 214/214/214 341/341/341 354/354/354
f 186/186/186 355/355/355 334/334/334
f 355/355/355 186/186/186 217/217/217
f 334/334/334 356/356/356 344/344/344
f 356/356/356 334/334/334 355/355/355
f 344/344/344 218/218/218 200/200/200
f 218/218/218 344/344/344 356/356/356
f 340/340/340 220/220/220 194/194/194
f 220/220/220 340/340/340 358/358/358
f 203/203/203 357/357/357 346/346/346
f 357/357/357 203/203/203 223/223/223
f 346/346/346 358/358/358 340/340/340
f 358/358/358 346/346/346 357/357/357
f 225/225/225 350/350/350 226/226/226
f 350/350/350 225/225/225 284/284/284
f 350/350/350 257/257/257 248/248/248
f 257/257/257 350/350/350 284/284/284
f 248/248/248 254/254/254 245/245/245
f 254/254/254 248/248/248 257/257/257
f 254/254/254 244/244/244 245/245/245
f 244/244/244 254/254/254 255/255/255
f 255/255/255 280/280/280 244/244/244
f 280/280/280 255/255/255 349/349/349
f 349/349/349 279/279/279 280/280/280
f 279/279/279 349/349/349 347/347/347
f 347/347/347 278/278/278 279/279/279
f 278/278/278 347/347/347 348/348/348
f 351/351/351 278/278/278 348/348/348
f 278/278/278 351/351/351 352/352/352
f 352/352/352 60/60/60 278/278/278
f 60/60/60 352/352/352 211/211/211
f 41/41/41 268/268/268 39/39/39
f 268/268/268 41/41/41 269/269/269
f 113/113/113 296/296/296 111/111/111
f 296/296/296 113/113/113 297/297/297
f 269/269/269 297/297/297 268/268/268
f 297/297/297 269/269/269 296/296/296
f 280/280/280 231/231/231 244/244/244
f 231/231/231 280/280/280 63/63/63
f 247/247/247 67/67/67 69/69/69
f 67/67/67 247/247/247 282/282/282
f 244/244/244 282/282/282 247/247/247
f 282/282/282 244/244/244 281/281/281
f 231/231/231 281/281/281 244/244/244
f 281/281/281 231/231/231 66/66/66
f 294/294/294 272/272/272 273/273/273
f 272/272/272 294/294/294 271/271/271
f 235/235/235 275/275/275 274/274/274
f 275/275/275 235/235/235 236/236/236
f 328/328/328 327/327/327 326/326/326
f 327/327/327 328/328/328 329/329/329
f 337/337/337 273/273/273 333/333/333
f 273/273/273 337/337/337 294/294/294
f 330/330/330 335/335/335 334/334/334
f 335/335/335 330/330/330 331/331/331
f 340/340/340 236/236/236 339/339/339
f 236/236/236 340/340/340 275/275/275
f 326/326/326 341/341/341 328/328/328
f 341/341/341 326/326/326 342/342/342
f 329/329/329 345/345/345 327/327/327
f 345/345/345 329/329/329 346/346/346
f 342/342/342 333/333/333 341/341/341
f 333/333/333 342/342/342 337/337/337
f 343/343/343 334/334/334 344/344/344
f 334/334/334 343/343/343 330/330/330
f 346/346/346 339/339/339 345/345/345
f 339/339/339 346/346/346 340/340/340
f 232/232/232 321/321/321 320/320/320
f 321/321/321 232/232/232 162/162/162
f 232/232/232 320/320/320 161/161/161
f 188/188/188 179/179/179 187/187/187
f 336/336/336 330/330/330 343/343/343
f 332/332/332 330/330/330 336/336/336
f 201/201/201 179/179/179 188/188/188
f 179/179/179 201/201/201 178/178/178
f 188/188/188 103/103/103 201/201/201
f 361/361/361 363/363/363 362/362/362
f 362/362/362 365/365/365 364/364/364
f 365/365/365 363/363/363 366/366/366
f 363/363/363 365/365/365 362/362/362
f 361/361/361 364/364/364 367/367/367
f 364/364/364 361/361/361 362/362/362
f 368/368/368 370/370/370 369/369/369
f 369/369/369 364/364/364 365/365/365
f 365/365/365 368/368/368 369/369/369
f 368/368/368 365/365/365 366/366/366
f 370/370/370 364/364/364 369/369/369
f 364/364/364 370/370/370 367/367/367
f 371/371/371 373/373/373 372/372/372
f 372/372/372 375/375/375 374/374/374
f 375/375/375 373/373/373 376/376/376
f 373/373/373 375/375/375 372/372/372
f 371/371/371 374/374/374 377/377/377
f 374/374/374 371/371/371 372/372/372
f 378/378/378 380/380/380 379/379/379
f 379/379/379 374/374/374 375/375/375
f 375/375/375 378/378/378 379/379/379
f 378/378/378 375/375/375 376/376/376
f 380/380/380 374/374/374 379/379/379
f 374/374/374 380/380/380 377/377/377
f 381/381/381 383/383/383 382/382/382
f 382/382/382 385/385/385 384/384/384
f 385/385/385 383/383/383 386/386/386
f 383/383/383 385/385/385 382/382/382
f 381/381/381 384/384/384 387/387/387
f 384/384/384 381/381/381 382/382/382
f 388/388/388 390/390/390 389/389/389
f 389/389/389 384/384/384 385/385/385
f 385/385/385 388/388/388 389/389/389
f 388/388/388 385/385/385 386/386/386
f 390/390/390 384/384/384 389/389/389
f 384/384/384 390/390/390 387/387/387
f 391/391/391 393/393/393 392/392/392
f 392/392/392 395/395/395 394/394/394
f 395/395/395 393/393/393 396/396/396
f 393/393/393 395/395/395 392/392/392
f 391/391/391 394/394/394 397/397/397
f 394/394/394 391/391/391 392/392/392
f 398/398/398 400/400/400 399/399/399
f 399/399/399 394/394/394 395/395/395
f 395/395/395 398/398/398 399/399/399
f 398/398/398 395/395/395 396/396/396
f 400/400/400 394/394/394 399/399/399
f 394/394/394 400/400/400 397/397/397
f 401/401/401 403/403/403 402/402/402
f 402/402/402 405/405/405 404/404/404
f 405/405/405 403/403/403 406/406/406
f 403/403/403 405/405/405 402/402/402
f 401/401/401 404/404/404 407/407/407
f 404/404/404 401/401/401 402/402/402
f 408/408/408 410/410/410 409/409/409
f 409/409/409 404/404/404 405/405/405
f 405/405/405 408/408/408 409/409/409
f 408/408/408 405/405/405 406/406/406
f 410/410/410 404/404/404 409/409/409
f 404/404/404 410/410/410 407/407/407
f 411/411/411 413/413/413 412/412/412
f 412/412/412 415/415/415 414/414/414
f 415/415/415 413/413/413 416/416/416
f 413/413/413 415/415/415 412/412/412
f 411/411/411 414/414/414 417/417/417
f 414/414/414 411/411/411 412/412/412
f 418/418/418 420/420/420 419/419/419
f 419/419/419 414/414/414 415/415/415
f 415/415/415 418/418/418 419/419/419
f 418/418/418 415/415/415 416/416/416
f 420/420/420 414/414/414 419/419/419
f 414/414/414 420/420/420 417/417/417
f 421/421/421 423/423/423 422/422/422
f 422/422/422 425/425/425 424/424/424
f 425/425/425 423/423/423 426/426/426
f 423/423/423 425/425/425 422/422/422
f 421/421/421 424/424/424 427/427/427
f 424/424/424 421/421/421 422/422/422
f 428/428/428 430/430/430 429/429/429
f 429/429/429 424/424/424 425/425/425
f 425/425/425 428/428/428 429/429/429
f 428/428/428 425/425/425 426/426/426
f 430/430/430 424/424/424 429/429/429
f 424/424/424 430/430/430 427/427/427
f 431/431/431 433/433/433 432/432/432
f 432/432/432 435/435/435 434/434/434
f 435/435/435 433/433/433 436/436/436
f 433/433/433 435/435/435 432/432/432
f 431/431/431 434/434/434 437/437/437
f 434/434/434 431/431/431 432/432/432
f 438/438/438 440/440/440 439/439/439
f 439/439/439 434/434/434 435/435/435
f 435/435/435 438/438/438 439/439/439
f 438/438/438 435/435/435 436/436/436
f 440/440/440 434/434/434 439/439/439
f 434/434/434 440/440/440 437/437/437
f 441/441/441 443/443/443 442/442/442
f 442/442/442 445/445/445 444/444/444
f 445/445/445 443/443/443 446/446/446
f 443/443/443 445/445/445 442/442/442
f 441/441/441 444/444/444 447/447/447
f 444/444/444 441/441/441 442/442/442
f 448/448/448 450/450/450 449/449/449
f 449/449/449 444/444/444 445/445/445
f 445/445/445 448/448/448 449/449/449
f 448/448/448 445/445/445 446/446/446
f 450/450/450 444/444/444 449/449/449
f 444/444/444 450/450/450 447/447/447
f 451/451/451 453/453/453 452/452/452
f 452/452/452 455/455/455 454/454/454
f 455/455/455 453/453/453 456/456/456
f 453/453/453 455/455/455 452/452/452
f 451/451/451 454/454/454 457/457/457
f 454/454/454 451/451/451 452/452/452
f 458/458/458 460/460/460 459/459/459
f 459/459/459 454/454/454 455/455/455
f 455/455/455 458/458/458 459/459/459
f 458/458/458 455/455/455 456/456/456
f 460/460/460 454/454/454 459/459/459
f 454/454/454 460/460/460 457/457/457
f 461/461/461 463/463/463 462/462/462
f 462/462/462 465/465/465 464/464/464
f 465/465/465 463/463/463 466/466/466
f 463/463/463 465/465/465 462/462/462
f 461/461/461 464/464/464 467/467/467
f 464/464/464 461/461/461 462/462/462
f 468/468/468 470/470/470 469/469/469
f 469/469/469 464/464/464 465/465/465
f 465/465/465 468/468/468 469/469/469
f 468/468/468 465/465/465 466/466/466
f 470/470/470 464/464/464 469/469/469
f 464/464/464 470/470/470 467/467/467
f 471/471/471 473/473/473 472/472/472
f 472/472/472 475/475/475 474/474/474
f 475/475/475 473/473/473 476/476/476
f 473/473/473 475/475/475 472/472/472
f 471/471/471 474/474/474 477/477/477
f 474/474/474 471/471/471 472/472/472
f 478/478/478 480/480/480 479/479/479
f 479/479/479 474/474/474 475/475/475
f 475/475/475 478/478/478 479/479/479
f 478/478/478 475/475/475 476/476/476
f 480/480/480 474/474/474 479/479/479
f 474/474/474 480/480/480 477/477/477
f 481/481/481 483/483/483 482/482/482
f 482/482/482 485/485/485 484/484/484
f 485/485/485 483/483/483 486/486/486
f 483/483/483 485/485/485 482/482/482
f 481/481/481 484/484/484 487/487/487
f 484/484/484 481/481/481 482/482/482
f 488/488/488 490/490/490 489/489/489
f 489/489/489 484/484/484 485/485/485
f 485/485/485 488/488/488 489/489/489
f 488/488/488 485/485/485 486/486/486
f 490/490/490 484/484/484 489/489/489
f 484/484/484 490/490/490 487/487/487
