mtllib jinbi.mtl
o jinbi_part_0
v 0 0.576919138 -0.037649706
v 0.205588579 0.695615768 -0.0376497023
v 0.237393245 0.576919138 -0.037649706
v 0.118696615 0.7825077 -0.0376497
v -1.03767883E-08 0.8143124 -0.0376496948
v -0.118696637 0.7825077 -0.0376497
v -0.2055886 0.695615768 -0.0376497023
v -0.237393245 0.576919138 -0.037649706
v -0.205588564 0.4582225 -0.03764971
v -0.1186966 0.371330559 -0.0376497135
v 3.11303658E-08 0.339525878 -0.0376497172
v 0.118696652 0.371330559 -0.0376497135
v 0.2055886 0.458222538 -0.03764971
v 0.237393245 0.576919138 -0.037649706
v 0.205588579 0.695615768 0.0376497619
v 0.237393245 0.576919138 0.03764976
v 0.205588579 0.695615768 -0.0376497023
v 0.205588579 0.695615768 -0.0376497023
v 0.118696615 0.7825077 0.0376497656
v 0.205588579 0.695615768 0.0376497619
v 0.118696615 0.7825077 -0.0376497
v -1.03767883E-08 0.8143124 0.03764977
v -1.03767883E-08 0.8143124 -0.0376496948
v -0.118696637 0.7825077 0.0376497656
v -0.118696637 0.7825077 -0.0376497
v -0.118696637 0.7825077 -0.0376497
v -0.2055886 0.695615768 0.0376497619
v -0.118696637 0.7825077 0.0376497656
v -0.2055886 0.695615768 -0.0376497023
v -0.237393245 0.576919138 0.03764976
v -0.237393245 0.576919138 -0.037649706
v -0.205588564 0.4582225 0.0376497544
v -0.205588564 0.4582225 -0.03764971
v -0.205588564 0.4582225 -0.03764971
v -0.1186966 0.371330559 0.03764975
v -0.205588564 0.4582225 0.0376497544
v -0.1186966 0.371330559 -0.0376497135
v 3.11303658E-08 0.339525878 0.037649747
v 3.11303658E-08 0.339525878 -0.0376497172
v 0.118696652 0.371330559 0.03764975
v 0.118696652 0.371330559 -0.0376497135
v 0.118696652 0.371330559 -0.0376497135
v 0.2055886 0.458222538 0.0376497544
v 0.118696652 0.371330559 0.03764975
v 0.2055886 0.458222538 -0.03764971
v 0 0.576919138 0.03764976
v 0.237393245 0.576919138 0.03764976
v 0.205588579 0.695615768 0.0376497619
v 0.118696615 0.7825077 0.0376497656
v -1.03767883E-08 0.8143124 0.03764977
v -0.118696637 0.7825077 0.0376497656
v -0.2055886 0.695615768 0.0376497619
v -0.237393245 0.576919138 0.03764976
v -0.205588564 0.4582225 0.0376497544
v -0.1186966 0.371330559 0.03764975
v 3.11303658E-08 0.339525878 0.037649747
v 0.118696652 0.371330559 0.03764975
v 0.2055886 0.458222538 0.0376497544
vt 0.457113057 0.5552512
vt 0.0885908455 0.768792152
vt 0.0311929788 0.555922
vt 0.244733959 0.924444139
vt 0.4577838 0.981171131
vt 0.6706539 0.9237733
vt 0.826306 0.7676301
vt 0.883033 0.5545805
vt 0.8256352 0.341710269
vt 0.6694921 0.1860584
vt 0.456442118 0.129331231
vt 0.2435721 0.186729133
vt 0.08792016 0.342872143
vt 0.709274948 0.1111207
vt 0.5620694 0.005315304
vt 0.709274948 0.005315304
vt 0.5620694 0.1111207
vt 0.9651995 0.112941921
vt 0.8574375 0.00713658333
vt 0.9656152 0.007000506
vt 0.857021749 0.113078
vt 0.709816158 0.00727266073
vt 0.709816158 0.113078
vt 0.5626106 0.00727266073
vt 0.5626106 0.113078
vt 0.964783669 0.114281416
vt 0.857021749 0.00847607851
vt 0.964783669 0.00847607851
vt 0.857021749 0.114281416
vt 0.709816158 0.00847607851
vt 0.709816158 0.114281416
vt 0.5626106 0.00847607851
vt 0.5626106 0.114281416
vt 0.964783669 0.113449931
vt 0.857021749 0.00764459372
vt 0.964783669 0.00764459372
vt 0.857021749 0.113449931
vt 0.709816158 0.00764459372
vt 0.709816158 0.113449931
vt 0.5626106 0.00764459372
vt 0.5626106 0.113449931
vt 0.964242458 0.1111207
vt 0.8564805 0.005315304
vt 0.964242458 0.005315304
vt 0.8564805 0.1111207
vt 0.4571632 0.5554322
vt 0.8830831 0.5547615
vt 0.826356053 0.767811358
vt 0.670704067 0.9239544
vt 0.457834035 0.9813522
vt 0.244784027 0.9246251
vt 0.088641 0.768973053
vt 0.0312430561 0.556102931
vt 0.08797034 0.343053043
vt 0.243622437 0.1869101
vt 0.456492543 0.129512131
vt 0.669542253 0.186239243
vt 0.8256854 0.3418914
vn -2.84038332E-15 3.90434423E-08 -1
vn -2.10239448E-09 3.5026428E-08 -1
vn 0 3.138498E-08 -1
vn -1.1487697E-08 4.28726743E-08 -1
vn 4.28534932E-16 4.707746E-08 -1
vn 1.14876944E-08 4.287267E-08 -1
vn 2.10239115E-09 3.50264244E-08 -1
vn -2.74376164E-15 3.138497E-08 -1
vn -2.10239826E-09 3.5026428E-08 -1
vn -1.14877023E-08 4.28726672E-08 -1
vn -5.208129E-15 4.707746E-08 -1
vn 1.14876917E-08 4.287267E-08 -1
vn 2.10239182E-09 3.502643E-08 -1
vn 1 2.09525783E-08 -2.04959E-09
vn 0.8660254 0.50000006 2.04959116E-09
vn 1 5.94247229E-09 2.04959227E-09
vn 0.8660254 0.50000006 0
vn 0.8660254 0.50000006 0
vn 0.49999994 0.866025448 0
vn 0.8660254 0.50000006 2.04959116E-09
vn 0.5 0.8660254 0
vn -2.72512146E-09 1 0
vn -1.50663015E-09 1 0
vn -0.50000006 0.8660254 0
vn -0.50000006 0.8660254 0
vn -0.50000006 0.8660254 0
vn -0.866025448 0.4999999 0
vn -0.50000006 0.8660254 0
vn -0.866025448 0.49999994 2.04959E-09
vn -1 -1.36780656E-07 -2.04959538E-09
vn -1 -1.17522426E-07 2.049587E-09
vn -0.8660254 -0.50000006 -2.04959161E-09
vn -0.8660253 -0.5000001 0
vn -0.8660253 -0.5000001 0
vn -0.4999999 -0.866025448 0
vn -0.8660254 -0.50000006 -2.04959161E-09
vn -0.49999994 -0.866025448 0
vn 1.28529763E-07 -1 0
vn 1.26660126E-07 -1 0
vn 0.5000001 -0.8660253 0
vn 0.5000001 -0.8660253 0
vn 0.5000001 -0.8660253 0
vn 0.866025448 -0.4999999 0
vn 0.5000001 -0.8660253 0
vn 0.866025448 -0.4999999 -2.04959139E-09
vn 2.87739125E-15 -3.90434423E-08 1
vn 0 -3.13849782E-08 1
vn 2.1023947E-09 -3.50264244E-08 1
vn 1.1487697E-08 -4.28726743E-08 1
vn -4.28534932E-16 -4.707746E-08 1
vn -1.14876952E-08 -4.28726672E-08 1
vn -2.10239137E-09 -3.50264244E-08 1
vn 2.74376164E-15 -3.138497E-08 1
vn 2.10239781E-09 -3.5026428E-08 1
vn 1.14877006E-08 -4.28726672E-08 1
vn 5.208129E-15 -4.70774637E-08 1
vn -1.14876917E-08 -4.28726743E-08 1
vn -2.10239137E-09 -3.502643E-08 1
usemtl jinbi_part_0_material_0
f 1/1/1 2/2/2 3/3/3
f 1/1/1 4/4/4 2/2/2
f 1/1/1 5/5/5 4/4/4
f 1/1/1 6/6/6 5/5/5
f 1/1/1 7/7/7 6/6/6
f 1/1/1 8/8/8 7/7/7
f 1/1/1 9/9/9 8/8/8
f 1/1/1 10/10/10 9/9/9
f 1/1/1 11/11/11 10/10/10
f 1/1/1 12/12/12 11/11/11
f 1/1/1 13/13/13 12/12/12
f 1/1/1 3/3/3 13/13/13
f 14/14/14 15/15/15 16/16/16
f 14/14/14 17/17/17 15/15/15
f 18/18/18 19/19/19 20/20/20
f 18/18/18 21/21/21 19/19/19
f 21/21/21 22/22/22 19/19/19
f 21/21/21 23/23/23 22/22/22
f 23/23/23 24/24/24 22/22/22
f 23/23/23 25/25/25 24/24/24
f 26/26/26 27/27/27 28/28/28
f 26/26/26 29/29/29 27/27/27
f 29/29/29 30/30/30 27/27/27
f 29/29/29 31/31/31 30/30/30
f 31/31/31 32/32/32 30/30/30
f 31/31/31 33/33/33 32/32/32
f 34/34/34 35/35/35 36/36/36
f 34/34/34 37/37/37 35/35/35
f 37/37/37 38/38/38 35/35/35
f 37/37/37 39/39/39 38/38/38
f 39/39/39 40/40/40 38/38/38
f 39/39/39 41/41/41 40/40/40
f 42/42/42 43/43/43 44/44/44
f 42/42/42 45/45/45 43/43/43
f 45/45/45 16/16/16 43/43/43
f 45/45/45 14/14/14 16/16/16
f 46/46/46 47/47/47 48/48/48
f 46/46/46 48/48/48 49/49/49
f 46/46/46 49/49/49 50/50/50
f 46/46/46 50/50/50 51/51/51
f 46/46/46 51/51/51 52/52/52
f 46/46/46 52/52/52 53/53/53
f 46/46/46 53/53/53 54/54/54
f 46/46/46 54/54/54 55/55/55
f 46/46/46 55/55/55 56/56/56
f 46/46/46 56/56/56 57/57/57
f 46/46/46 57/57/57 58/58/58
f 46/46/46 58/58/58 47/47/47
