mtllib by-bd036.mtl
o by-bd036_part_0
v 0.07870738 1.33373034 -0.1363248
v -0.0787072256 1.33373034 -0.1363248
v -0.07176381 1.79492545 -0.124298856
v 0.07176397 1.79492545 -0.124298856
v -0.157414258 1.33373034 5.4188888E-08
v -0.143527985 1.79492545 5.72333221E-08
v -0.0787072256 1.33373034 0.1363249
v -0.07176381 1.79492533 0.124298982
v 0.07870738 1.33373034 0.1363249
v 0.07176397 1.79492533 0.124298982
v 0.1574144 1.33373034 4.04272882E-08
v 0.143528149 1.79492545 4.472472E-08
v 0.07870738 1.33373034 0.1363249
v 0.1574144 1.33373034 4.04272882E-08
v 0.143528149 1.79492545 4.472472E-08
v 0.07176397 1.79492533 0.124298982
v -0.09664041 1.88567913 -0.167386
v 0.09664056 1.88567913 -0.167386
v -0.193280607 1.88567913 5.982755E-08
v -0.09664041 1.88567913 -0.167386
v -0.09664041 1.88567913 0.167386129
v -0.193280607 1.88567913 5.982755E-08
v 0.09664056 1.88567913 0.167386115
v -0.09664041 1.88567913 0.167386129
v 0.09664056 1.88567913 -0.167386
v 0.193280756 1.88567913 4.29523936E-08
v 0.07176397 1.79492533 0.124298982
v 0.143528149 1.79492545 4.472472E-08
v 0.193280756 1.88567913 4.29523936E-08
v 0.09664056 1.88567913 0.167386115
v -0.0555661358 1.95962656 -0.09624362
v 0.05556629 1.95962656 -0.09624362
v -0.111132637 1.95962656 5.496667E-08
v -0.0555661358 1.95962656 0.09624372
v 0.05556629 1.95962656 0.09624371
v 0.111132786 1.95962656 4.524715E-08
v 0.09664056 1.88567913 0.167386115
v 0.193280756 1.88567913 4.29523936E-08
v 0.111132786 1.95962656 4.524715E-08
v 0.05556629 1.95962656 0.09624371
v 0.05556629 1.95962656 -0.09624362
v -0.0555661358 1.95962656 -0.09624362
v -0.0352226831 4.06147671 -0.06100741
v -0.0352226831 4.06147671 -0.06100741
v 0.03522279 4.06147671 -0.06100741
v -0.0555661358 1.95962656 -0.09624362
v -0.111132637 1.95962656 5.496667E-08
v -0.07044522 4.06147671 9.850674E-08
v -0.0352226831 4.06147671 -0.06100741
v -0.111132637 1.95962656 5.496667E-08
v -0.0555661358 1.95962656 0.09624372
v -0.0352226831 4.06147671 0.0610076
v -0.07044522 4.06147671 9.850674E-08
v -0.0555661358 1.95962656 0.09624372
v 0.05556629 1.95962656 0.09624371
v 0.03522279 4.06147671 0.06100759
v -0.0352226831 4.06147671 0.0610076
v 0.111132786 1.95962656 4.524715E-08
v 0.05556629 1.95962656 -0.09624362
v 0.03522279 4.06147671 -0.06100741
v 0.07044552 4.06147671 9.23343748E-08
v 0.05556629 1.95962656 0.09624371
v 0.111132786 1.95962656 4.524715E-08
v 0.07044552 4.06147671 9.23343748E-08
v 0.03522279 4.06147671 0.06100759
v 0.03522279 4.06147671 -0.06100741
v -0.0352226831 4.06147671 -0.06100741
v -0.06419297 4.142027 -0.111185655
v 0.06419312 4.142027 -0.111185655
v -0.07044522 4.06147671 9.850674E-08
v -0.128386319 4.142027 1.01814976E-07
v -0.07044522 4.06147671 9.850674E-08
v -0.0352226831 4.06147671 0.0610076
v -0.06419297 4.142027 0.111185886
v -0.128386319 4.142027 1.01814976E-07
v -0.0352226831 4.06147671 0.0610076
v 0.03522279 4.06147671 0.06100759
v 0.06419312 4.142027 0.111185834
v -0.0352226831 4.06147671 0.0610076
v 0.07044552 4.06147671 9.23343748E-08
v 0.128386468 4.142027 9.058579E-08
v 0.03522279 4.06147671 0.06100759
v 0.07044552 4.06147671 9.23343748E-08
v 0.128386468 4.142027 9.058579E-08
v 7.51938E-08 4.802566 1.03250336E-07
v 7.51938E-08 4.802566 1.03250336E-07
v 7.51938E-08 4.802566 1.03250336E-07
v 7.54684137E-08 0.3042833 -0.57460463
v -0.406306952 0.3042833 -0.4063069
v -0.409827828 0.5958567 -0.409827828
v 7.54684137E-08 0.5958567 -0.579584062
v -0.5746045 0.3042832 3.50093927E-08
v -0.579584 0.5958567 3.74916667E-08
v -0.5746045 0.3042832 3.50093927E-08
v -0.406306684 0.304283231 0.406307
v -0.409827828 0.5958567 0.409827977
v -0.579584 0.5958567 3.74916667E-08
v -0.406306684 0.304283231 0.406307
v 7.54684137E-08 0.3042833 0.574604869
v 7.54684137E-08 0.5958567 0.5795841
v -0.409827828 0.5958567 0.409827977
v 0.406307042 0.304283231 0.4063068
v 0.409827918 0.5958567 0.409827828
v 0.406307042 0.304283231 0.4063068
v 0.5746049 0.3042833 -1.1569125E-07
v 0.5795842 0.5958567 -1.1451489E-07
v 0.409827918 0.5958567 0.409827828
v 0.5746049 0.3042833 -1.1569125E-07
v 0.406306952 0.3042833 -0.406307
v 0.409827918 0.5958567 -0.409827948
v 0.5795842 0.5958567 -1.1451489E-07
v 0.406306952 0.3042833 -0.406307
v 7.54684137E-08 0.3042833 -0.57460463
v 7.54684137E-08 0.5958567 -0.579584062
v 0.409827918 0.5958567 -0.409827948
v -0.309140027 7.4505806E-08 -0.309140146
v 7.54684137E-08 4.47034836E-08 -0.437190145
v -0.437190264 0 2.80430612E-08
v -0.309140027 1.04308128E-07 0.309140235
v -0.437190264 0 2.80430612E-08
v 7.54684137E-08 1.937151E-07 0.437190264
v -0.309140027 1.04308128E-07 0.309140235
v 0.309140325 1.04308128E-07 0.309140146
v 0.4371904 0 -8.661811E-08
v 0.309140325 1.04308128E-07 0.309140146
v 0.3091402 7.4505806E-08 -0.3091402
v 0.4371904 0 -8.661811E-08
v 7.54684137E-08 4.47034836E-08 -0.437190145
v 0.3091402 7.4505806E-08 -0.3091402
v -0.136443019 1.00832045 -0.136443108
v 7.54684137E-08 1.00832045 -0.192959666
v 7.54684137E-08 0.8743806 -0.437190264
v -0.309140027 0.8743807 -0.309140176
v -0.192959532 1.00832045 8.347218E-09
v -0.437190264 0.8743806 2.80430683E-08
v -0.136443019 1.00832033 0.136443123
v -0.192959532 1.00832045 8.347218E-09
v -0.437190264 0.8743806 2.80430683E-08
v -0.309140027 0.8743806 0.3091403
v 7.54684137E-08 1.00832033 0.1929597
v -0.136443019 1.00832033 0.136443123
v -0.309140027 0.8743806 0.3091403
v 7.54684137E-08 0.8743806 0.437190354
v 0.136443183 1.00832033 0.136443108
v 0.309140325 0.8743806 0.3091402
v 0.192959666 1.00832045 -3.93480519E-08
v 0.136443183 1.00832033 0.136443108
v 0.309140325 0.8743806 0.3091402
v 0.4371904 0.8743807 -8.66181E-08
v 0.136443183 1.00832045 -0.136443168
v 0.192959666 1.00832045 -3.93480519E-08
v 0.4371904 0.8743807 -8.66181E-08
v 0.3091402 0.8743807 -0.309140235
v 7.54684137E-08 1.00832045 -0.192959666
v 0.136443183 1.00832045 -0.136443168
v 0.3091402 0.8743807 -0.309140235
v 7.54684137E-08 0.8743806 -0.437190264
v -0.137659177 1.0755645 -0.1376594
v 7.51938E-08 1.0755645 -0.194679752
v -0.194679648 1.0755645 7.098375E-10
v -0.137659177 1.0755645 0.137659386
v -0.194679648 1.0755645 7.098375E-10
v 7.51938E-08 1.0755645 0.194679782
v -0.137659177 1.0755645 0.137659386
v 0.137659624 1.0755645 0.137659371
v 0.1946798 1.0755645 -4.74105875E-08
v 0.137659624 1.0755645 0.137659371
v 0.137659341 1.0755645 -0.137659416
v 0.1946798 1.0755645 -4.74105875E-08
v 7.51938E-08 1.0755645 -0.194679752
v 0.137659341 1.0755645 -0.137659416
v -0.200214282 1.24750435 -0.200214282
v 7.51938E-08 1.24750435 -0.283145756
v -0.283145636 1.24750435 1.349043E-08
v -0.200214282 1.24750435 0.200214326
v -0.283145636 1.24750435 1.349043E-08
v 7.51938E-08 1.24750435 0.283145756
v -0.200214282 1.24750435 0.200214326
v 0.200214446 1.24750435 0.200214252
v 0.283145756 1.24750435 -5.64967948E-08
v 0.200214446 1.24750435 0.200214252
v 0.200214446 1.24750435 -0.200214311
v 0.283145756 1.24750435 -5.64967948E-08
v 7.51938E-08 1.24750435 -0.283145756
v 0.200214446 1.24750435 -0.200214311
v 7.51938E-08 1.24750435 -0.283145756
v -0.200214282 1.24750435 -0.200214282
v -0.0787072256 1.33373034 -0.1363248
v -0.157414258 1.33373034 5.4188888E-08
v -0.283145636 1.24750435 1.349043E-08
v -0.200214282 1.24750435 0.200214326
v -0.0787072256 1.33373034 0.1363249
v 7.51938E-08 1.24750435 0.283145756
v 0.07870738 1.33373034 0.1363249
v 0.200214446 1.24750435 0.200214252
v 0.283145756 1.24750435 -5.64967948E-08
v 0.1574144 1.33373034 4.04272882E-08
v 0.200214446 1.24750435 -0.200214311
v 0.07870738 1.33373034 -0.1363248
v -0.1941249 4.29418468 -0.0204653218
v -0.1941249 4.440545 0.000919448154
v 0.199281186 4.440545 0.000919448154
v 0.199281186 4.29418468 -0.0204653218
v -0.1941249 4.29435158 0.023417782
v 0.199281186 4.29435158 0.023417782
v 0.199281186 4.440545 0.000919448154
v -0.1941249 4.440545 0.000919448154
v 0.199281186 4.440545 0.000919448154
v 0.199281186 4.29435158 0.023417782
v 0.199281186 4.29418468 -0.0204653218
v -0.1941249 4.440545 0.000919448154
v -0.1941249 4.29418468 -0.0204653218
v -0.1941249 4.29435158 0.023417782
v 0.987251043 4.48788357 0.002597563
v 0.813414454 4.48788357 -0.236667991
v 0.813414454 4.55905342 -0.236667991
v 0.987251043 4.55905342 0.00259756041
v 0.813414454 4.48788357 -0.236667991
v 0.5321408 4.48788357 -0.145276666
v 0.5321408 4.55905342 -0.145276666
v 0.813414454 4.55905342 -0.236667991
v 0.5321408 4.48788357 -0.145276666
v 0.5321408 4.48788357 0.150471851
v 0.5321408 4.55905342 0.150471851
v 0.5321408 4.55905342 -0.145276666
v 0.5321408 4.48788357 0.150471851
v 0.813414454 4.48788357 0.241863072
v 0.813414454 4.55905342 0.241863087
v 0.5321408 4.55905342 0.150471851
v 0.813414454 4.48788357 0.241863072
v 0.987251043 4.48788357 0.002597563
v 0.987251043 4.55905342 0.00259756041
v 0.813414454 4.55905342 0.241863087
v 0.795631647 4.626458 -0.1819384
v 0.9297044 4.626458 0.0025975625
v 0.5786963 4.626458 -0.1114519
v 0.795631647 4.626458 -0.1819384
v 0.5786963 4.626458 0.116647094
v 0.5786963 4.626458 -0.1114519
v 0.795631647 4.626458 0.187133491
v 0.5786963 4.626458 0.116647094
v 0.9297044 4.626458 0.0025975625
v 0.795631647 4.626458 0.187133491
v 0.813034952 5.05821276 -0.235499889
v 0.9860224 5.05821276 0.00259756227
v 0.533134043 5.05821276 -0.144554779
v 0.813034952 5.05821276 -0.235499889
v 0.533134043 5.05821276 0.149749964
v 0.533134043 5.05821276 -0.144554779
v 0.813034952 5.05821276 0.24069497
v 0.533134043 5.05821276 0.149749964
v 0.9860224 5.05821276 0.00259756227
v 0.813034952 5.05821276 0.24069497
v 1.09634936 5.04884243 0.001279046
v 0.846831739 5.04884243 -0.342152357
v 0.775297761 5.20492363 -0.110231265
v 0.775297761 5.20492363 -0.110231265
v 0.8605885 5.20492363 0.007160692
v 0.846831739 5.04884243 -0.342152357
v 0.443103641 5.04884243 -0.210973233
v 0.6372954 5.20492363 -0.06539154
v 0.775297761 5.20492363 -0.110231265
v 0.443103641 5.04884243 -0.210973233
v 0.443103641 5.04884243 0.2135314
v 0.6372954 5.20492363 0.07971295
v 0.6372954 5.20492363 -0.06539154
v 0.443103641 5.04884243 -0.210973233
v 0.443103641 5.04884243 0.2135314
v 0.846831739 5.04884243 0.344710439
v 0.775297761 5.20492363 0.12455263
v 0.775297761 5.20492363 0.12455263
v 0.6372954 5.20492363 0.07971295
v 0.846831739 5.04884243 0.344710439
v 1.09634936 5.04884243 0.001279046
v 0.8605885 5.20492363 0.007160692
v 0.8605885 5.20492363 0.007160692
v 0.775297761 5.20492363 0.12455263
v 0.6372954 5.20492363 -0.06539154
v 0.6962279 5.27632 0.0411603265
v 0.6962279 5.27632 -0.0199390613
v 0.6372954 5.20492363 -0.06539154
v 0.775297761 5.20492363 0.12455263
v 0.7543369 5.27632 0.06004104
v 0.6962279 5.27632 0.0411603265
v 0.6962279 5.27632 -0.0199390613
v 0.7543369 5.27632 -0.03881981
v 0.775297761 5.20492363 -0.110231265
v 0.7543369 5.27632 -0.03881981
v 0.7902499 5.27632 0.0106106233
v 0.775297761 5.20492363 0.12455263
v 0.8605885 5.20492363 0.007160692
v 0.7902499 5.27632 0.0106106233
v 0.7543369 5.27632 0.06004104
v 0.6962279 5.27632 -0.0199390613
v 0.7382762 5.48750639 0.010610627
v 0.7382762 5.48750639 0.010610627
v 0.7382762 5.48750639 0.010610627
v 0.7902499 5.27632 0.0106106233
v 0.7543369 5.27632 -0.03881981
v 0.7382762 5.48750639 0.010610627
v 0.7543369 5.27632 0.06004104
v 0.7382762 5.48750639 0.010610627
v 0.09428804 4.89796448 0.000969465356
v 0.09428804 3.987512 0.000969425542
v 0.8143433 4.89796448 0.0009696865
v 0.8143433 3.987512 0.0009696469
v -1.00694036 4.48788357 0.00259752339
v -0.8331038 4.48788357 0.2418631
v -0.8331038 4.55905342 0.2418631
v -1.00694036 4.55905342 0.002597526
v -0.8331038 4.48788357 0.2418631
v -0.551830053 4.48788357 0.150471836
v -0.551830053 4.55905342 0.150471836
v -0.8331038 4.55905342 0.2418631
v -0.551830053 4.48788357 0.150471836
v -0.551830053 4.48788357 -0.1452767
v -0.551830053 4.55905342 -0.1452767
v -0.551830053 4.55905342 0.150471836
v -0.551830053 4.48788357 -0.1452767
v -0.833103657 4.48788357 -0.236667946
v -0.833103657 4.55905342 -0.236667961
v -0.551830053 4.55905342 -0.1452767
v -0.833103657 4.48788357 -0.236667946
v -1.00694036 4.48788357 0.00259752339
v -1.00694036 4.55905342 0.002597526
v -0.833103657 4.55905342 -0.236667961
v -0.8153209 4.626458 0.1871335
v -0.9493937 4.626458 0.00259753247
v -0.5983856 4.626458 0.116647042
v -0.8153209 4.626458 0.1871335
v -0.5983856 4.626458 -0.111451954
v -0.5983856 4.626458 0.116647042
v -0.815320849 4.626458 -0.181938365
v -0.5983856 4.626458 -0.111451954
v -0.9493937 4.626458 0.00259753247
v -0.815320849 4.626458 -0.181938365
v -0.8327243 5.05821276 0.240695
v -1.00571167 5.05821276 0.00259752455
v -0.5528234 5.05821276 0.149749935
v -0.8327243 5.05821276 0.240695
v -0.5528234 5.05821276 -0.1445548
v -0.5528234 5.05821276 0.149749935
v -0.832724154 5.05821276 -0.235499844
v -0.5528234 5.05821276 -0.1445548
v -1.00571167 5.05821276 0.00259752455
v -0.832724154 5.05821276 -0.235499844
v -1.11294067 5.04884243 0.0134495767
v -0.863423169 5.04884243 0.356881
v -0.7918891 5.20492363 0.124959938
v -0.7918891 5.20492363 0.124959938
v -0.877179861 5.20492363 0.007567965
v -0.863423169 5.04884243 0.356881
v -0.459695 5.04884243 0.225701973
v -0.6538867 5.20492363 0.0801202357
v -0.7918891 5.20492363 0.124959938
v -0.459695 5.04884243 0.225701973
v -0.4596949 5.04884243 -0.19880268
v -0.6538867 5.20492363 -0.0649842545
v -0.6538867 5.20492363 0.0801202357
v -0.459695 5.04884243 0.225701973
v -0.4596949 5.04884243 -0.19880268
v -0.863423049 5.04884243 -0.3299818
v -0.7918891 5.20492363 -0.10982395
v -0.7918891 5.20492363 -0.10982395
v -0.6538867 5.20492363 -0.0649842545
v -0.863423049 5.04884243 -0.3299818
v -1.11294067 5.04884243 0.0134495767
v -0.877179861 5.20492363 0.007567965
v -0.877179861 5.20492363 0.007567965
v -0.7918891 5.20492363 -0.10982395
v -0.6538867 5.20492363 0.0801202357
v -0.712819159 5.27632 -0.02643165
v -0.712819159 5.27632 0.0346677452
v -0.6538867 5.20492363 0.0801202357
v -0.7918891 5.20492363 -0.10982395
v -0.770928144 5.27632 -0.04531237
v -0.712819159 5.27632 -0.02643165
v -0.712819159 5.27632 0.0346677452
v -0.770928144 5.27632 0.0535484776
v -0.7918891 5.20492363 0.124959938
v -0.770928144 5.27632 0.0535484776
v -0.806841254 5.27632 0.00411804439
v -0.7918891 5.20492363 -0.10982395
v -0.877179861 5.20492363 0.007567965
v -0.806841254 5.27632 0.00411804439
v -0.770928144 5.27632 -0.04531237
v -0.712819159 5.27632 0.0346677452
v -0.7548675 5.48750639 0.004118049
v -0.7548675 5.48750639 0.004118049
v -0.7548675 5.48750639 0.004118049
v -0.806841254 5.27632 0.00411804439
v -0.770928144 5.27632 0.0535484776
v -0.7548675 5.48750639 0.004118049
v -0.770928144 5.27632 -0.04531237
v -0.7548675 5.48750639 0.004118049
v -0.106068984 4.89796448 0.000969701156
v -0.106068984 3.987512 0.00096974097
v -0.826124251 4.89796448 0.0009693713
v -0.826124251 3.987512 0.0009694109
vt 0.3358012 0.04327488
vt 0.452504218 0.04327488
vt 0.4443844 0.349943042
vt 0.3360173 0.349943042
vt 0.3358012 0.04327488
vt 0.3360173 0.349943042
vt 0.452504218 0.04327488
vt 0.4443844 0.349943042
vt 0.3358012 0.04327488
vt 0.3360173 0.349943042
vt 0.452504218 0.04327488
vt 0.4443844 0.349943042
vt 0.338805556 0.04331261
vt 0.455272257 0.043314755
vt 0.4461833 0.349544048
vt 0.339990735 0.349542022
vt 0.4652242 0.424966455
vt 0.319345444 0.424966455
vt 0.318870336 0.4245994
vt 0.463431835 0.4245994
vt 0.4652242 0.424966455
vt 0.319345444 0.424966455
vt 0.318870336 0.4245994
vt 0.463431835 0.4245994
vt 0.318870336 0.4245994
vt 0.463431835 0.4245994
vt 0.3392045 0.349255443
vt 0.445397049 0.349255085
vt 0.463802457 0.4235841
vt 0.320799172 0.4235847
vt 0.4318805 0.4999898
vt 0.352689177 0.4999898
vt 0.352689177 0.4999898
vt 0.4318805 0.4999898
vt 0.352689177 0.4999898
vt 0.4318805 0.4999898
vt 0.321585417 0.423841
vt 0.464588672 0.423841357
vt 0.434198946 0.4997617
vt 0.351974964 0.499761283
vt 0.562992156 0.00687366724
vt 0.604691565 0.00687366724
vt 0.6067091 0.7648504
vt 0.6058274 0.7656545
vt 0.56406045 0.7644483
vt 0.603099465 0.00828868151
vt 0.5614001 0.008282423
vt 0.563790858 0.7670555
vt 0.6015904 0.766255736
vt 0.5629571 0.008932292
vt 0.60690403 0.008938611
vt 0.604384363 0.767066836
vt 0.565476835 0.76706
vt 0.6069185 0.009913921
vt 0.562971652 0.009915173
vt 0.5654914 0.768046558
vt 0.604398847 0.768045366
vt 0.6059245 0.007738054
vt 0.5642252 0.00774461031
vt 0.563970864 0.765310049
vt 0.6039746 0.76610744
vt 0.5625701 0.0084517
vt 0.6065169 0.008445084
vt 0.60399735 0.7665711
vt 0.565089643 0.7665777
vt 0.382663131 0.6659782
vt 0.432016134 0.6659782
vt 0.437624365 0.7246087
vt 0.3778127 0.7246087
vt 0.481369019 0.665978551
vt 0.490007967 0.7252133
vt 0.481548637 0.665473342
vt 0.431900263 0.6658373
vt 0.437669545 0.7247587
vt 0.490279049 0.724990666
vt 0.431249976 0.665481448
vt 0.382694751 0.6658459
vt 0.376213968 0.7240368
vt 0.431978762 0.6651171
vt 0.331623673 0.665735662
vt 0.326085985 0.7253343
vt 0.3827694 0.665486932
vt 0.332027882 0.665487349
vt 0.3263371 0.7252444
vt 0.407339633 0.9437845
vt 0.406754822 0.943784237
vt 0.407336771 0.94342
vt 0.2743187 0.156472981
vt 0.06928206 0.156472981
vt 0.0683937147 0.292427778
vt 0.275207162 0.292427778
vt 0.274318665 0.156472921
vt 0.275207043 0.292427778
vt 0.273298144 0.15534234
vt 0.06826153 0.15534234
vt 0.0673731342 0.2912972
vt 0.274186581 0.2912972
vt 0.0692821741 0.156472862
vt 0.2743187 0.156472921
vt 0.275207043 0.292427659
vt 0.0683937147 0.292427659
vt 0.0692821145 0.156472862
vt 0.0683937445 0.292427659
vt 0.07023453 0.156636
vt 0.274714321 0.156636
vt 0.275600225 0.295173526
vt 0.0693485 0.295173526
vt 0.272678554 0.154170692
vt 0.07057208 0.154170692
vt 0.07058936 0.2953074
vt 0.274447262 0.2953074
vt 0.070099555 0.155237079
vt 0.275717258 0.155237079
vt 0.276608169 0.29157722
vt 0.06920864 0.29157722
vt 0.09379899 0.00275707245
vt 0.249801919 0.00275707245
vt 0.249801919 0.002757132
vt 0.0927784 0.00162655115
vt 0.248781323 0.00162649155
vt 0.2498018 0.00275707245
vt 0.09379899 0.00275707245
vt 0.09379896 0.00275707245
vt 0.250264 0
vt 0.0946848 5.96046448E-08
vt 0.09473862 -0.00035572052
vt 0.248512074 -0.00035572052
vt 0.251130968 0.00108551979
vt 0.09468589 0.00108551979
vt 0.137373492 0.56700784
vt 0.206227377 0.56700784
vt 0.249119729 0.4401309
vt 0.093116805 0.4401309
vt 0.206227437 0.56700784
vt 0.249119729 0.4401309
vt 0.136352941 0.56587714
vt 0.205206916 0.56587714
vt 0.248099133 0.439000249
vt 0.09209622 0.439000368
vt 0.206227377 0.5670078
vt 0.137373492 0.5670078
vt 0.093116805 0.4401309
vt 0.249119729 0.4401309
vt 0.137373522 0.56700784
vt 0.0931167752 0.4401309
vt 0.206807852 0.5661719
vt 0.138140932 0.5661719
vt 0.09468477 0.441511869
vt 0.250264 0.4415118
vt 0.137690425 0.567005336
vt 0.205560371 0.567005336
vt 0.2485121 0.4405676
vt 0.09384562 0.4405676
vt 0.206458017 0.567052245
vt 0.1374089 0.567052245
vt 0.092107594 0.439891636
vt 0.248552635 0.439891577
vt 0.138301745 0.6201908
vt 0.196806908 0.620844066
vt 0.196806908 0.620844
vt 0.137281179 0.619060159
vt 0.195786431 0.6197135
vt 0.196806908 0.620844066
vt 0.138301745 0.62019074
vt 0.138301656 0.6201908
vt 0.19690226 0.620501041
vt 0.1389764 0.6198478
vt 0.138605386 0.619958162
vt 0.196153075 0.620611548
vt 0.1960599 0.621017456
vt 0.1373648 0.6203642
vt 0.123079233 0.6966506
vt 0.2120293 0.6973039
vt 0.2120293 0.6973039
vt 0.122058757 0.69552
vt 0.211008817 0.696173251
vt 0.2120293 0.6973039
vt 0.1230792 0.696650565
vt 0.123079292 0.6966506
vt 0.211993039 0.6982812
vt 0.12388555 0.697627962
vt 0.123600513 0.697196543
vt 0.211157963 0.6978498
vt 0.213275418 0.697599351
vt 0.124049164 0.6969461
vt 0.119653881 0.9820678
vt 0.0312134773 0.9043975
vt 0.1148192 0.893129945
vt 0.0975747257 0.8152322
vt 0.03028623 0.7871857
vt 0.106171839 0.699340343
vt 0.158033565 0.7630831
vt 0.2168397 0.6972232
vt 0.2335176 0.788194656
vt 0.302900553 0.773108959
vt 0.303827763 0.8921053
vt 0.24360624 0.8671578
vt 0.234734908 0.9725905
vt 0.183067426 0.916180551
vt 0.4791085 0.543308854
vt 0.4791085 0.6358477
vt 0.2981829 0.6358477
vt 0.2981829 0.543308854
vt 0.298602045 0.545057535
vt 0.479508877 0.545057535
vt 0.479508877 0.637586355
vt 0.298602045 0.637586355
vt 0.42833 0.636169
vt 0.4279679 0.541033566
vt 0.456508577 0.540924847
vt 0.4284156 0.6353529
vt 0.4287777 0.5402174
vt 0.457318366 0.540326059
vt 0.781915247 0.01137805
vt 0.9866136 0.01137805
vt 0.9866136 0.0606369972
vt 0.781915247 0.0606369972
vt 0.782091856 0.0112499595
vt 0.987053633 0.0112499595
vt 0.987053633 0.0605723858
vt 0.782091856 0.0605723858
vt 0.781915247 0.01137805
vt 0.9866136 0.01137805
vt 0.9866136 0.0606370568
vt 0.781915247 0.0606370568
vt 0.781915247 0.01137805
vt 0.9866134 0.01137805
vt 0.9866134 0.0606369972
vt 0.781915247 0.0606369972
vt 0.7819153 0.01137805
vt 0.9866135 0.01137805
vt 0.9866135 0.0606369972
vt 0.781915247 0.0606369972
vt 0.9632023 0.117337167
vt 0.8053267 0.117337227
vt 0.963612437 0.117345572
vt 0.8055334 0.117345572
vt 0.9632022 0.117337108
vt 0.805326641 0.117337108
vt 0.963202 0.117337167
vt 0.8053264 0.117337167
vt 0.963202 0.117337227
vt 0.8053266 0.117337167
vt 0.986113966 0.417829037
vt 0.7824151 0.417829037
vt 0.98655355 0.418224454
vt 0.7825922 0.418224454
vt 0.986113966 0.417829037
vt 0.782414854 0.417829037
vt 0.9861138 0.417829037
vt 0.782414734 0.417829037
vt 0.9861138 0.417829037
vt 0.782415 0.417829037
vt 0.627867 0.344257355
vt 0.628008544 0.6201408
vt 0.791351438 0.530322731
vt 0.7913214 0.5303802
vt 0.792864 0.4369868
vt 0.6281233 0.3445325
vt 0.628080666 0.6200908
vt 0.791229367 0.5303714
vt 0.792916954 0.437060356
vt 0.628051639 0.6199533
vt 0.627937853 0.3444268
vt 0.792938352 0.437141657
vt 0.7912999 0.5303067
vt 0.6279919 0.6200267
vt 0.627993166 0.344431341
vt 0.6280515 0.6201173
vt 0.7913316 0.5304439
vt 0.791340351 0.5304169
vt 0.7929283 0.437132359
vt 0.627863765 0.344147027
vt 0.628042638 0.620098531
vt 0.7912997 0.53031075
vt 0.791283131 0.53031075
vt 0.792915463 0.437085867
vt 0.7913005 0.530341148
vt 0.849318564 0.4598173
vt 0.848270059 0.50055474
vt 0.791283 0.5303498
vt 0.791282 0.5304683
vt 0.8494054 0.5004583
vt 0.848880351 0.459283829
vt 0.8485438 0.5004821
vt 0.8489865 0.458865047
vt 0.7913138 0.53035593
vt 0.848845959 0.499848843
vt 0.8499008 0.460199118
vt 0.792885363 0.437021673
vt 0.7911359 0.5299163
vt 0.8486983 0.499419272
vt 0.8486989 0.459641159
vt 0.8493649 0.50055474
vt 0.9881384 0.478621721
vt 0.9880276 0.478773475
vt 0.9879611 0.4786468
vt 0.849878967 0.458944678
vt 0.8488233 0.499860644
vt 0.987765431 0.478535056
vt 0.848697543 0.459641159
vt 0.9882025 0.478844285
vt 0.6948733 0.977071345
vt 0.6948733 0.602124155
vt 0.9914102 0.977071345
vt 0.9914102 0.602124155
vt 0.781915247 0.01137805
vt 0.9866136 0.01137805
vt 0.9866136 0.0606369972
vt 0.781915247 0.0606369972
vt 0.782091856 0.0112499595
vt 0.987053633 0.0112499595
vt 0.987053633 0.0605723858
vt 0.782091856 0.0605723858
vt 0.781915247 0.01137805
vt 0.9866136 0.01137805
vt 0.9866136 0.0606370568
vt 0.781915247 0.0606370568
vt 0.781915247 0.01137805
vt 0.9866134 0.01137805
vt 0.9866134 0.0606369972
vt 0.781915247 0.0606369972
vt 0.7819153 0.01137805
vt 0.9866135 0.01137805
vt 0.9866135 0.0606369972
vt 0.781915247 0.0606369972
vt 0.9632023 0.117337167
vt 0.8053267 0.117337227
vt 0.963612437 0.117345572
vt 0.8055334 0.117345572
vt 0.9632022 0.117337108
vt 0.805326641 0.117337108
vt 0.963202 0.117337167
vt 0.8053264 0.117337167
vt 0.963202 0.117337227
vt 0.8053266 0.117337167
vt 0.986113966 0.417829037
vt 0.7824151 0.417829037
vt 0.98655355 0.418224454
vt 0.7825922 0.418224454
vt 0.986113966 0.417829037
vt 0.782414854 0.417829037
vt 0.9861138 0.417829037
vt 0.782414734 0.417829037
vt 0.9861138 0.417829037
vt 0.782415 0.417829037
vt 0.627867 0.344257355
vt 0.628008544 0.6201408
vt 0.791351438 0.530322731
vt 0.7913214 0.5303802
vt 0.792864 0.4369868
vt 0.6281233 0.3445325
vt 0.628080666 0.6200908
vt 0.791229367 0.5303714
vt 0.792916954 0.437060356
vt 0.628051639 0.6199533
vt 0.627937853 0.3444268
vt 0.792938352 0.437141657
vt 0.7912999 0.5303067
vt 0.6279919 0.6200267
vt 0.627993166 0.344431341
vt 0.6280515 0.6201173
vt 0.7913316 0.5304439
vt 0.791340351 0.5304169
vt 0.7929283 0.437132359
vt 0.627863765 0.344147027
vt 0.628042638 0.620098531
vt 0.7912997 0.53031075
vt 0.791283131 0.53031075
vt 0.792915463 0.437085867
vt 0.7913005 0.530341148
vt 0.849318564 0.4598173
vt 0.848270059 0.50055474
vt 0.791283 0.5303498
vt 0.791282 0.5304683
vt 0.8494054 0.5004583
vt 0.848880351 0.459283829
vt 0.8485438 0.5004821
vt 0.8489865 0.458865047
vt 0.7913138 0.53035593
vt 0.848845959 0.499848843
vt 0.8499008 0.460199118
vt 0.792885363 0.437021673
vt 0.7911359 0.5299163
vt 0.8486983 0.499419272
vt 0.8486989 0.459641159
vt 0.8493649 0.50055474
vt 0.9881384 0.478621721
vt 0.9880276 0.478773475
vt 0.9879611 0.4786468
vt 0.849878967 0.458944678
vt 0.8488233 0.499860644
vt 0.987765431 0.478535056
vt 0.848697543 0.459641159
vt 0.9882025 0.478844285
vt 0.6948733 0.977071345
vt 0.6948733 0.602124155
vt 0.9914102 0.977071345
vt 0.9914102 0.602124155
vn 0.40806973 0.582498431 -0.7029756
vn -0.4080697 0.582498252 -0.70297575
vn -0.4834597 -0.255078375 -0.8373779
vn 0.483459383 -0.2550788 -0.837377965
vn -0.816019654 0.578024149 1.01682772E-07
vn -0.9669205 -0.255078018 -3.578702E-07
vn -0.40806973 0.582498252 0.70297575
vn -0.483459532 -0.2550785 0.837377965
vn 0.40806976 0.5824981 0.702975869
vn 0.483459771 -0.255078018 0.837377965
vn 0.8160197 0.578024 -6.27432257E-08
vn 0.9669205 -0.255078018 1.34078775E-07
vn 0.40806976 0.5824981 0.702975869
vn 0.8160197 0.578024 -6.27432257E-08
vn 0.9669205 -0.255078018 1.34078775E-07
vn 0.483459771 -0.255078018 0.837377965
vn -0.494938225 0.141939908 -0.8572568
vn 0.494938076 0.141940266 -0.8572568
vn -0.9898752 0.141940281 -9.312882E-08
vn -0.494938225 0.141939908 -0.8572568
vn -0.494938046 0.141940519 0.85725677
vn -0.9898752 0.141940281 -9.312882E-08
vn 0.4949382 0.141940236 0.85725677
vn -0.494938046 0.141940519 0.85725677
vn 0.494938076 0.141940266 -0.8572568
vn 0.9898752 0.141940415 -3.2797594E-08
vn 0.483459771 -0.255078018 0.837377965
vn 0.9669205 -0.255078018 1.34078775E-07
vn 0.9898752 0.141940415 -3.2797594E-08
vn 0.4949382 0.141940236 0.85725677
vn -0.440557241 0.472899884 -0.763069451
vn 0.4405576 0.4728995 -0.7630695
vn -0.8811164 0.472899526 5.706729E-07
vn -0.440557539 0.472899646 0.763069451
vn 0.440557241 0.472899944 0.763069451
vn 0.8811164 0.472899526 -5.60653746E-07
vn 0.4949382 0.141940236 0.85725677
vn 0.9898752 0.141940415 -3.2797594E-08
vn 0.8811164 0.472899526 -5.60653746E-07
vn 0.440557241 0.472899944 0.763069451
vn 0.4405576 0.4728995 -0.7630695
vn -0.440557241 0.472899884 -0.763069451
vn -0.47185576 -0.330772847 -0.817276835
vn -0.47185576 -0.330772847 -0.817276835
vn 0.4718553 -0.33077234 -0.8172773
vn -0.440557241 0.472899884 -0.763069451
vn -0.8811164 0.472899526 5.706729E-07
vn -0.9437103 -0.330773115 6.126393E-07
vn -0.47185576 -0.330772847 -0.817276835
vn -0.8811164 0.472899526 5.706729E-07
vn -0.440557539 0.472899646 0.763069451
vn -0.4718564 -0.3307724 0.817276657
vn -0.9437103 -0.330773115 6.126393E-07
vn -0.440557539 0.472899646 0.763069451
vn 0.440557241 0.472899944 0.763069451
vn 0.471855 -0.33077246 0.817277431
vn -0.4718564 -0.3307724 0.817276657
vn 0.8811164 0.472899526 -5.60653746E-07
vn 0.4405576 0.4728995 -0.7630695
vn 0.4718553 -0.33077234 -0.8172773
vn 0.9437104 -0.330772877 -1.22586314E-07
vn 0.440557241 0.472899944 0.763069451
vn 0.8811164 0.472899526 -5.60653746E-07
vn 0.9437104 -0.330772877 -1.22586314E-07
vn 0.471855 -0.33077246 0.817277431
vn 0.4718553 -0.33077234 -0.8172773
vn -0.47185576 -0.330772847 -0.817276835
vn -0.490728647 -0.191673845 -0.849968553
vn 0.4907287 -0.191674024 -0.8499685
vn -0.9437103 -0.330773115 6.126393E-07
vn -0.981458545 -0.191674471 2.0064823E-07
vn -0.9437103 -0.330773115 6.126393E-07
vn -0.4718564 -0.3307724 0.817276657
vn -0.490728676 -0.1916742 0.849968433
vn -0.981458545 -0.191674471 2.0064823E-07
vn -0.4718564 -0.3307724 0.817276657
vn 0.471855 -0.33077246 0.817277431
vn 0.4907288 -0.191673964 0.849968433
vn -0.4718564 -0.3307724 0.817276657
vn 0.9437104 -0.330772877 -1.22586314E-07
vn 0.9814586 -0.191674143 -6.960473E-08
vn 0.471855 -0.33077246 0.817277431
vn 0.9437104 -0.330772877 -1.22586314E-07
vn 0.9814586 -0.191674143 -6.960473E-08
vn 4.94217034E-07 1 1.97498025E-07
vn 4.94217034E-07 1 1.97498025E-07
vn 4.94217034E-07 1 1.97498025E-07
vn -1.21699159E-07 -0.208998963 -0.9779159
vn -0.691490948 -0.2089989 -0.691490948
vn -0.6907582 0.213789761 -0.6907583
vn -1.330736E-07 0.213789567 -0.9768797
vn -0.9779159 -0.208998889 2.76964755E-07
vn -0.9768798 0.213789478 1.10037028E-07
vn -0.9779159 -0.208998889 2.76964755E-07
vn -0.6914908 -0.208999157 0.691490948
vn -0.690758348 0.213789582 0.6907582
vn -0.9768798 0.213789478 1.10037028E-07
vn -0.6914908 -0.208999157 0.691490948
vn 1.74973973E-08 -0.208998874 0.9779159
vn 1.06369775E-07 0.213789761 0.9768797
vn -0.690758348 0.213789582 0.6907582
vn 0.6914911 -0.208998844 0.6914908
vn 0.690758348 0.213789642 0.6907582
vn 0.6914911 -0.208998844 0.6914908
vn 0.977915943 -0.208998725 -1.05361373E-07
vn 0.9768797 0.213789761 -9.461771E-08
vn 0.690758348 0.213789642 0.6907582
vn 0.977915943 -0.208998725 -1.05361373E-07
vn 0.6914907 -0.208998978 -0.6914911
vn 0.6907581 0.213789746 -0.6907584
vn 0.9768797 0.213789761 -9.461771E-08
vn 0.6914907 -0.208998978 -0.6914911
vn -1.21699159E-07 -0.208998963 -0.9779159
vn -1.330736E-07 0.213789567 -0.9768797
vn 0.6907581 0.213789746 -0.6907584
vn -0.644438863 -0.411577821 -0.6444395
vn -1.66309036E-07 -0.411577433 -0.9113748
vn -0.9113749 -0.411577076 3.26731453E-07
vn -0.64443934 -0.411577374 0.64443934
vn -0.9113749 -0.411577076 3.26731453E-07
vn -2.62456545E-08 -0.4115778 0.9113746
vn -0.64443934 -0.411577374 0.64443934
vn 0.64443934 -0.4115775 0.6444392
vn 0.9113748 -0.411577433 -2.511977E-07
vn 0.64443934 -0.4115775 0.6444392
vn 0.6444391 -0.411577553 -0.644439459
vn 0.9113748 -0.411577433 -2.511977E-07
vn -1.66309036E-07 -0.411577433 -0.9113748
vn 0.6444391 -0.411577553 -0.644439459
vn -0.584554136 0.562666059 -0.584553957
vn -2.50792738E-07 0.5626655 -0.826684654
vn -1.116887E-07 0.662449956 -0.749106169
vn -0.5296978 0.6624502 -0.5296981
vn -0.826684654 0.5626655 4.134422E-07
vn -0.7491061 0.66245 1.87721866E-07
vn -0.5845541 0.5626665 0.584553659
vn -0.826684654 0.5626655 4.134422E-07
vn -0.7491061 0.66245 1.87721866E-07
vn -0.529697835 0.662450254 0.529697955
vn -4.14279633E-08 0.5626658 0.8266845
vn -0.5845541 0.5626665 0.584553659
vn -0.529697835 0.662450254 0.529697955
vn 9.674882E-08 0.662450135 0.74910605
vn 0.5845543 0.5626655 0.5845543
vn 0.529697955 0.6624501 0.529698
vn 0.8266846 0.562665641 5.76020369E-08
vn 0.5845543 0.5626655 0.5845543
vn 0.529697955 0.6624501 0.529698
vn 0.7491061 0.66245 -9.3321546E-08
vn 0.584553957 0.562666535 -0.5845537
vn 0.8266846 0.562665641 5.76020369E-08
vn 0.7491061 0.66245 -9.3321546E-08
vn 0.5296978 0.662450135 -0.5296981
vn -2.50792738E-07 0.5626655 -0.826684654
vn 0.584553957 0.562666535 -0.5845537
vn 0.5296978 0.662450135 -0.5296981
vn -1.116887E-07 0.662449956 -0.749106169
vn -0.6824244 -0.261903018 -0.6824249
vn -1.28612243E-07 -0.261903375 -0.9650941
vn -0.96509403 -0.261903584 -2.090635E-08
vn -0.682424545 -0.261903077 0.6824248
vn -0.96509403 -0.261903584 -2.090635E-08
vn -2.2367179E-07 -0.2619032 0.965094149
vn -0.682424545 -0.261903077 0.6824248
vn 0.682425 -0.261903942 0.682423949
vn 0.965094 -0.261903852 -6.990559E-07
vn 0.682425 -0.261903942 0.682423949
vn 0.6824244 -0.261903077 -0.682424843
vn 0.965094 -0.261903852 -6.990559E-07
vn -1.28612243E-07 -0.261903375 -0.9650941
vn 0.6824244 -0.261903077 -0.682424843
vn -0.6960296 0.213788942 -0.6854466
vn -3.70896061E-08 0.212550938 -0.977149963
vn -0.9769523 0.21345754 -1.39827549E-07
vn -0.6960295 0.213788867 0.685446739
vn -0.9769523 0.21345754 -1.39827549E-07
vn 2.60222972E-08 0.2125508 0.97715
vn -0.6960295 0.213788867 0.685446739
vn 0.6960296 0.21378915 0.68544656
vn 0.9769523 0.2134577 -1.603091E-07
vn 0.6960296 0.21378915 0.68544656
vn 0.6960295 0.213789031 -0.685446739
vn 0.9769523 0.2134577 -1.603091E-07
vn -3.70896061E-08 0.212550938 -0.977149963
vn 0.6960295 0.213789031 -0.685446739
vn -3.70896061E-08 0.212550938 -0.977149963
vn -0.6960296 0.213788942 -0.6854466
vn -0.4080697 0.582498252 -0.70297575
vn -0.816019654 0.578024149 1.01682772E-07
vn -0.9769523 0.21345754 -1.39827549E-07
vn -0.6960295 0.213788867 0.685446739
vn -0.40806973 0.582498252 0.70297575
vn 2.60222972E-08 0.2125508 0.97715
vn 0.40806976 0.5824981 0.702975869
vn 0.6960296 0.21378915 0.68544656
vn 0.9769523 0.2134577 -1.603091E-07
vn 0.8160197 0.578024 -6.27432257E-08
vn 0.6960295 0.213789031 -0.685446739
vn 0.40806973 0.582498431 -0.7029756
vn -0.6710983 0.107183553 -0.733579457
vn -0.538442552 0.8426561 -0.00320719974
vn 0.538442552 0.842656136 -0.0032075264
vn 0.6710983 0.107183561 -0.7335794
vn -0.6710967 0.112765014 0.7327437
vn 0.6710966 0.112765014 0.73274374
vn 0.538442552 0.842656136 -0.0032075264
vn -0.538442552 0.8426561 -0.00320719974
vn 0.538442552 0.842656136 -0.0032075264
vn 0.6710966 0.112765014 0.73274374
vn 0.6710983 0.107183561 -0.7335794
vn -0.538442552 0.8426561 -0.00320719974
vn -0.6710983 0.107183553 -0.733579457
vn -0.6710967 0.112765014 0.7327437
vn 1 1.965359E-09 6.460804E-08
vn 0.309017032 0 -0.9510565
vn 0.293800235 0.3099373 -0.904223561
vn 0.95075655 0.309938759 1.99728959E-07
vn 0.309017032 0 -0.9510565
vn -0.809017 0 -0.587785244
vn -0.7691786 0.309936553 -0.5588412
vn 0.293800235 0.3099373 -0.904223561
vn -0.809017 0 -0.587785244
vn -0.8090169 -1.85019022E-08 0.5877854
vn -0.7691785 0.309936583 0.5588414
vn -0.7691786 0.309936553 -0.5588412
vn -0.8090169 -1.85019022E-08 0.5877854
vn 0.3090172 -1.85726933E-07 0.9510564
vn 0.293800443 0.309937418 0.9042235
vn -0.7691785 0.309936583 0.5588414
vn 0.3090172 -1.85726933E-07 0.9510564
vn 1 1.965359E-09 6.460804E-08
vn 0.95075655 0.309938759 1.99728959E-07
vn 0.293800443 0.309937418 0.9042235
vn 0.2909216 0.337177843 -0.89536345
vn 0.9414403 0.33717975 4.36646218E-07
vn -0.7616424 0.337176263 -0.553365231
vn 0.2909216 0.337177843 -0.89536345
vn -0.7616422 0.3371763 0.5533654
vn -0.7616424 0.337176263 -0.553365231
vn 0.290922076 0.3371775 0.89536345
vn -0.7616422 0.3371763 0.5533654
vn 0.9414403 0.33717975 4.36646218E-07
vn 0.290922076 0.3371775 0.89536345
vn 0.3064222 -0.129344016 -0.9430671
vn 0.9915998 -0.129344 -1.10826255E-08
vn -0.802220941 -0.129344091 -0.5828479
vn 0.3064222 -0.129344016 -0.9430671
vn -0.8022208 -0.1293442 0.5828481
vn -0.802220941 -0.129344091 -0.5828479
vn 0.3064222 -0.129344 0.943067133
vn -0.8022208 -0.1293442 0.5828481
vn 0.9915998 -0.129344 -1.10826255E-08
vn 0.3064222 -0.129344 0.943067133
vn 0.5519678 0.833860159 -0.00296042138
vn 0.165488049 0.8410698 -0.5149905
vn 0.1857382 0.8034802 -0.5656155
vn 0.1857382 0.8034802 -0.5656155
vn 0.610311747 0.7921556 0.00301251025
vn 0.165488049 0.8410698 -0.5149905
vn -0.436586529 0.841069758 -0.319364816
vn -0.482726127 0.803480446 -0.3484174
vn 0.1857382 0.8034802 -0.5656155
vn -0.436586529 0.841069758 -0.319364816
vn -0.4482914 0.8338601 0.3220437
vn -0.49198246 0.792154849 0.361170232
vn -0.482726127 0.803480446 -0.3484174
vn -0.436586529 0.841069758 -0.319364816
vn -0.4482914 0.8338601 0.3220437
vn 0.172755167 0.8291358 0.531685531
vn 0.191539034 0.7847305 0.589500546
vn 0.191539034 0.7847305 0.589500546
vn -0.49198246 0.792154849 0.361170232
vn 0.172755167 0.8291358 0.531685531
vn 0.5519678 0.833860159 -0.00296042138
vn 0.610311747 0.7921556 0.00301251025
vn 0.610311747 0.7921556 0.00301251025
vn 0.191539034 0.7847305 0.589500546
vn -0.482726127 0.803480446 -0.3484174
vn -0.677418947 0.535981536 0.5038128
vn -0.6779208 0.551961064 -0.485553622
vn -0.482726127 0.803480446 -0.3484174
vn 0.191539034 0.7847305 0.589500546
vn 0.2628017 0.5260786 0.808811843
vn -0.677418947 0.535981536 0.5038128
vn -0.6779208 0.551961064 -0.485553622
vn 0.263048977 0.5519615 -0.7912925
vn 0.1857382 0.8034802 -0.5656155
vn 0.263048977 0.5519615 -0.7912925
vn 0.844177365 0.535981238 0.009417597
vn 0.191539034 0.7847305 0.589500546
vn 0.610311747 0.7921556 0.00301251025
vn 0.844177365 0.535981238 0.009417597
vn 0.2628017 0.5260786 0.808811843
vn -0.6779208 0.551961064 -0.485553622
vn 1.40376812E-06 1 3.34890075E-07
vn 1.40376812E-06 1 3.34890075E-07
vn 1.40376812E-06 1 3.34890075E-07
vn 0.844177365 0.535981238 0.009417597
vn 0.263048977 0.5519615 -0.7912925
vn 1.40376812E-06 1 3.34890075E-07
vn 0.2628017 0.5260786 0.808811843
vn 1.40376812E-06 1 3.34890075E-07
vn -3.071027E-07 -4.37299548E-08 1
vn -3.072883E-07 -4.35831637E-08 1
vn -3.0724047E-07 -4.36210179E-08 1
vn -3.07426035E-07 -4.347422E-08 1
vn -1 1.96536742E-09 -3.325375E-07
vn -0.309017181 0 0.9510565
vn -0.293800354 0.309937358 0.9042235
vn -0.9507565 0.309938937 -4.03091974E-07
vn -0.309017181 0 0.9510565
vn 0.809016943 0 0.587785363
vn 0.7691785 0.3099366 0.5588414
vn -0.293800354 0.309937358 0.9042235
vn 0.809016943 0 0.587785363
vn 0.809016943 -1.85019076E-08 -0.587785363
vn 0.7691786 0.309936553 -0.5588413
vn 0.7691785 0.3099366 0.5588414
vn 0.809016943 -1.85019076E-08 -0.587785363
vn -0.309016943 -1.85726933E-07 -0.95105654
vn -0.293800235 0.309937418 -0.904223561
vn 0.7691786 0.309936553 -0.5588413
vn -0.309016943 -1.85726933E-07 -0.95105654
vn -1 1.96536742E-09 -3.325375E-07
vn -0.9507565 0.309938937 -4.03091974E-07
vn -0.293800235 0.309937418 -0.904223561
vn -0.2909215 0.3371779 0.89536345
vn -0.941440165 0.337180048 -6.47151069E-07
vn 0.7616424 0.337176472 0.5533651
vn -0.2909215 0.3371779 0.89536345
vn 0.7616423 0.3371763 -0.55336535
vn 0.7616424 0.337176472 0.5533651
vn -0.2909219 0.337177455 -0.8953635
vn 0.7616423 0.3371763 -0.55336535
vn -0.941440165 0.337180048 -6.47151069E-07
vn -0.2909219 0.337177455 -0.8953635
vn -0.306422353 -0.129344 0.9430671
vn -0.9915998 -0.129344016 -2.62157073E-07
vn 0.8022209 -0.129343927 0.582848
vn -0.306422353 -0.129344 0.9430671
vn 0.8022209 -0.129343912 -0.582848
vn 0.8022209 -0.129343927 0.582848
vn -0.306422025 -0.129343927 -0.9430672
vn 0.8022209 -0.129343912 -0.582848
vn -0.9915998 -0.129344016 -2.62157073E-07
vn -0.306422025 -0.129343927 -0.9430672
vn -0.5519678 0.833860159 0.00296042045
vn -0.165488213 0.8410699 0.5149904
vn -0.185738266 0.803480148 0.565615535
vn -0.185738266 0.803480148 0.565615535
vn -0.6103117 0.7921557 -0.00301241456
vn -0.165488213 0.8410699 0.5149904
vn 0.43658644 0.841069758 0.319364935
vn 0.482726157 0.8034804 0.3484174
vn -0.185738266 0.803480148 0.565615535
vn 0.43658644 0.841069758 0.319364935
vn 0.448291481 0.8338601 -0.322043657
vn 0.49198252 0.792154849 -0.361170232
vn 0.482726157 0.8034804 0.3484174
vn 0.43658644 0.841069758 0.319364935
vn 0.448291481 0.8338601 -0.322043657
vn -0.1727551 0.8291358 -0.5316856
vn -0.191538855 0.784730434 -0.589500666
vn -0.191538855 0.784730434 -0.589500666
vn 0.49198252 0.792154849 -0.361170232
vn -0.1727551 0.8291358 -0.5316856
vn -0.5519678 0.833860159 0.00296042045
vn -0.6103117 0.7921557 -0.00301241456
vn -0.6103117 0.7921557 -0.00301241456
vn -0.191538855 0.784730434 -0.589500666
vn 0.482726157 0.8034804 0.3484174
vn 0.677419 0.535981536 -0.50381273
vn 0.677920759 0.5519612 0.485553622
vn 0.482726157 0.8034804 0.3484174
vn -0.191538855 0.784730434 -0.589500666
vn -0.262800723 0.5260786 -0.808812141
vn 0.677419 0.535981536 -0.50381273
vn 0.677920759 0.5519612 0.485553622
vn -0.26304853 0.5519612 0.791292846
vn -0.185738266 0.803480148 0.565615535
vn -0.26304853 0.5519612 0.791292846
vn -0.8441771 0.5359816 -0.009417339
vn -0.191538855 0.784730434 -0.589500666
vn -0.6103117 0.7921557 -0.00301241456
vn -0.8441771 0.5359816 -0.009417339
vn -0.262800723 0.5260786 -0.808812141
vn 0.677920759 0.5519612 0.485553622
vn -1.4136964E-06 1 -1.67900552E-07
vn -1.4136964E-06 1 -1.67900552E-07
vn -1.4136964E-06 1 -1.67900552E-07
vn -0.8441771 0.5359816 -0.009417339
vn -0.26304853 0.5519612 0.791292846
vn -1.4136964E-06 1 -1.67900552E-07
vn -0.262800723 0.5260786 -0.808812141
vn -1.4136964E-06 1 -1.67900552E-07
vn 4.581076E-07 -4.37299548E-08 -1
vn 4.582932E-07 -4.35831637E-08 -1
vn 4.58245381E-07 -4.36210179E-08 -1
vn 4.58430975E-07 -4.347422E-08 -1
usemtl by-bd036_part_0_material_0
f 1/1/1 2/2/2 3/3/3
f 3/3/3 4/4/4 1/1/1
f 2/2/2 5/5/5 6/6/6
f 6/6/6 3/3/3 2/2/2
f 5/5/5 7/7/7 8/8/8
f 8/8/8 6/6/6 5/5/5
f 7/7/7 9/9/9 10/10/10
f 10/10/10 8/8/8 7/7/7
f 11/11/11 1/1/1 4/4/4
f 4/4/4 12/12/12 11/11/11
f 13/13/13 14/14/14 15/15/15
f 15/15/15 16/16/16 13/13/13
f 4/4/4 3/3/3 17/17/17
f 17/17/17 18/18/18 4/4/4
f 3/3/3 6/6/6 19/19/19
f 19/19/19 20/20/20 3/3/3
f 6/6/6 8/8/8 21/21/21
f 21/21/21 22/22/22 6/6/6
f 8/8/8 10/10/10 23/23/23
f 23/23/23 24/24/24 8/8/8
f 12/12/12 4/4/4 25/25/25
f 25/25/25 26/26/26 12/12/12
f 27/27/27 28/28/28 29/29/29
f 29/29/29 30/30/30 27/27/27
f 18/18/18 17/17/17 31/31/31
f 31/31/31 32/32/32 18/18/18
f 20/20/20 19/19/19 33/33/33
f 33/33/33 31/31/31 20/20/20
f 22/22/22 21/21/21 34/34/34
f 34/34/34 33/33/33 22/22/22
f 24/24/24 23/23/23 35/35/35
f 35/35/35 34/34/34 24/24/24
f 26/26/26 25/25/25 32/32/32
f 32/32/32 36/36/36 26/26/26
f 37/37/37 38/38/38 39/39/39
f 39/39/39 40/40/40 37/37/37
f 41/41/41 42/42/42 43/43/43
f 44/44/44 45/45/45 41/41/41
f 46/46/46 47/47/47 48/48/48
f 48/48/48 49/49/49 46/46/46
f 50/50/50 51/51/51 52/52/52
f 52/52/52 53/53/53 50/50/50
f 54/54/54 55/55/55 56/56/56
f 56/56/56 57/57/57 54/54/54
f 58/58/58 59/59/59 60/60/60
f 60/60/60 61/61/61 58/58/58
f 62/62/62 63/63/63 64/64/64
f 64/64/64 65/65/65 62/62/62
f 66/66/66 67/67/67 68/68/68
f 68/68/68 69/69/69 66/66/66
f 67/67/67 70/70/70 71/71/71
f 71/71/71 68/68/68 67/67/67
f 72/72/72 73/73/73 74/74/74
f 74/74/74 75/75/75 72/72/72
f 76/76/76 77/77/77 78/78/78
f 78/78/78 74/74/74 79/79/79
f 80/80/80 66/66/66 69/69/69
f 69/69/69 81/81/81 80/80/80
f 82/82/82 83/83/83 84/84/84
f 84/84/84 78/78/78 82/82/82
f 69/69/69 68/68/68 85/85/85
f 68/68/68 71/71/71 86/86/86
f 75/75/75 74/74/74 87/87/87
f 74/74/74 78/78/78 87/87/87
f 81/81/81 69/69/69 85/85/85
f 78/78/78 84/84/84 87/87/87
f 88/88/88 89/89/89 90/90/90
f 90/90/90 91/91/91 88/88/88
f 89/89/89 92/92/92 93/93/93
f 93/93/93 90/90/90 89/89/89
f 94/94/94 95/95/95 96/96/96
f 96/96/96 97/97/97 94/94/94
f 98/98/98 99/99/99 100/100/100
f 100/100/100 101/101/101 98/98/98
f 99/99/99 102/102/102 103/103/103
f 103/103/103 100/100/100 99/99/99
f 104/104/104 105/105/105 106/106/106
f 106/106/106 107/107/107 104/104/104
f 108/108/108 109/109/109 110/110/110
f 110/110/110 111/111/111 108/108/108
f 112/112/112 113/113/113 114/114/114
f 114/114/114 115/115/115 112/112/112
f 116/116/116 89/89/89 88/88/88
f 88/88/88 117/117/117 116/116/116
f 118/118/118 92/92/92 89/89/89
f 89/89/89 116/116/116 118/118/118
f 119/119/119 95/95/95 94/94/94
f 94/94/94 120/120/120 119/119/119
f 121/121/121 99/99/99 98/98/98
f 98/98/98 122/122/122 121/121/121
f 123/123/123 102/102/102 99/99/99
f 99/99/99 121/121/121 123/123/123
f 124/124/124 105/105/105 104/104/104
f 104/104/104 125/125/125 124/124/124
f 126/126/126 109/109/109 108/108/108
f 108/108/108 127/127/127 126/126/126
f 128/128/128 113/113/113 112/112/112
f 112/112/112 129/129/129 128/128/128
f 130/130/130 131/131/131 132/132/132
f 132/132/132 133/133/133 130/130/130
f 134/134/134 130/130/130 133/133/133
f 133/133/133 135/135/135 134/134/134
f 136/136/136 137/137/137 138/138/138
f 138/138/138 139/139/139 136/136/136
f 140/140/140 141/141/141 142/142/142
f 142/142/142 143/143/143 140/140/140
f 144/144/144 140/140/140 143/143/143
f 143/143/143 145/145/145 144/144/144
f 146/146/146 147/147/147 148/148/148
f 148/148/148 149/149/149 146/146/146
f 150/150/150 151/151/151 152/152/152
f 152/152/152 153/153/153 150/150/150
f 154/154/154 155/155/155 156/156/156
f 156/156/156 157/157/157 154/154/154
f 158/158/158 159/159/159 131/131/131
f 131/131/131 130/130/130 158/158/158
f 160/160/160 158/158/158 130/130/130
f 130/130/130 134/134/134 160/160/160
f 161/161/161 162/162/162 137/137/137
f 137/137/137 136/136/136 161/161/161
f 163/163/163 164/164/164 141/141/141
f 141/141/141 140/140/140 163/163/163
f 165/165/165 163/163/163 140/140/140
f 140/140/140 144/144/144 165/165/165
f 166/166/166 167/167/167 147/147/147
f 147/147/147 146/146/146 166/166/166
f 168/168/168 169/169/169 151/151/151
f 151/151/151 150/150/150 168/168/168
f 170/170/170 171/171/171 155/155/155
f 155/155/155 154/154/154 170/170/170
f 172/172/172 173/173/173 159/159/159
f 159/159/159 158/158/158 172/172/172
f 174/174/174 172/172/172 158/158/158
f 158/158/158 160/160/160 174/174/174
f 175/175/175 176/176/176 162/162/162
f 162/162/162 161/161/161 175/175/175
f 177/177/177 178/178/178 164/164/164
f 164/164/164 163/163/163 177/177/177
f 179/179/179 177/177/177 163/163/163
f 163/163/163 165/165/165 179/179/179
f 180/180/180 181/181/181 167/167/167
f 167/167/167 166/166/166 180/180/180
f 182/182/182 183/183/183 169/169/169
f 169/169/169 168/168/168 182/182/182
f 184/184/184 185/185/185 171/171/171
f 171/171/171 170/170/170 184/184/184
f 186/186/186 187/187/187 188/188/188
f 189/189/189 188/188/188 187/187/187
f 187/187/187 190/190/190 189/189/189
f 191/191/191 189/189/189 190/190/190
f 189/189/189 191/191/191 192/192/192
f 193/193/193 192/192/192 191/191/191
f 192/192/192 193/193/193 194/194/194
f 193/193/193 195/195/195 194/194/194
f 196/196/196 197/197/197 195/195/195
f 194/194/194 195/195/195 197/197/197
f 198/198/198 197/197/197 196/196/196
f 197/197/197 198/198/198 199/199/199
f 186/186/186 199/199/199 198/198/198
f 199/199/199 186/186/186 188/188/188
f 200/200/200 201/201/201 202/202/202
f 202/202/202 203/203/203 200/200/200
f 204/204/204 205/205/205 206/206/206
f 206/206/206 207/207/207 204/204/204
f 208/208/208 209/209/209 210/210/210
f 211/211/211 212/212/212 213/213/213
f 91/91/91 90/90/90 133/133/133
f 133/133/133 132/132/132 91/91/91
f 90/90/90 93/93/93 135/135/135
f 135/135/135 133/133/133 90/90/90
f 97/97/97 96/96/96 139/139/139
f 139/139/139 138/138/138 97/97/97
f 101/101/101 100/100/100 143/143/143
f 143/143/143 142/142/142 101/101/101
f 100/100/100 103/103/103 145/145/145
f 145/145/145 143/143/143 100/100/100
f 107/107/107 106/106/106 149/149/149
f 149/149/149 148/148/148 107/107/107
f 111/111/111 110/110/110 153/153/153
f 153/153/153 152/152/152 111/111/111
f 115/115/115 114/114/114 157/157/157
f 157/157/157 156/156/156 115/115/115
f 214/214/214 215/215/215 216/216/216
f 216/216/216 217/217/217 214/214/214
f 218/218/218 219/219/219 220/220/220
f 220/220/220 221/221/221 218/218/218
f 222/222/222 223/223/223 224/224/224
f 224/224/224 225/225/225 222/222/222
f 226/226/226 227/227/227 228/228/228
f 228/228/228 229/229/229 226/226/226
f 230/230/230 231/231/231 232/232/232
f 232/232/232 233/233/233 230/230/230
f 217/217/217 216/216/216 234/234/234
f 234/234/234 235/235/235 217/217/217
f 221/221/221 220/220/220 236/236/236
f 236/236/236 237/237/237 221/221/221
f 225/225/225 224/224/224 238/238/238
f 238/238/238 239/239/239 225/225/225
f 229/229/229 228/228/228 240/240/240
f 240/240/240 241/241/241 229/229/229
f 233/233/233 232/232/232 242/242/242
f 242/242/242 243/243/243 233/233/233
f 235/235/235 234/234/234 244/244/244
f 244/244/244 245/245/245 235/235/235
f 237/237/237 236/236/236 246/246/246
f 246/246/246 247/247/247 237/237/237
f 239/239/239 238/238/238 248/248/248
f 248/248/248 249/249/249 239/239/239
f 241/241/241 240/240/240 250/250/250
f 250/250/250 251/251/251 241/241/241
f 243/243/243 242/242/242 252/252/252
f 252/252/252 253/253/253 243/243/243
f 254/254/254 255/255/255 256/256/256
f 257/257/257 258/258/258 254/254/254
f 259/259/259 260/260/260 261/261/261
f 261/261/261 262/262/262 259/259/259
f 263/263/263 264/264/264 265/265/265
f 265/265/265 266/266/266 267/267/267
f 268/268/268 269/269/269 270/270/270
f 271/271/271 272/272/272 268/268/268
f 273/273/273 274/274/274 275/275/275
f 276/276/276 277/277/277 273/273/273
f 278/278/278 265/265/265 279/279/279
f 279/279/279 280/280/280 281/281/281
f 272/272/272 282/282/282 283/283/283
f 283/283/283 284/284/284 272/272/272
f 262/262/262 261/261/261 285/285/285
f 285/285/285 286/286/286 262/262/262
f 258/258/258 287/287/287 288/288/288
f 288/288/288 289/289/289 258/258/258
f 290/290/290 291/291/291 292/292/292
f 292/292/292 293/293/293 290/290/290
f 294/294/294 279/279/279 295/295/295
f 284/284/284 283/283/283 296/296/296
f 286/286/286 285/285/285 297/297/297
f 298/298/298 299/299/299 300/300/300
f 301/301/301 292/292/292 302/302/302
f 303/303/303 304/304/304 305/305/305
f 306/306/306 305/305/305 304/304/304
f 307/307/307 308/308/308 309/309/309
f 309/309/309 310/310/310 307/307/307
f 311/311/311 312/312/312 313/313/313
f 313/313/313 314/314/314 311/311/311
f 315/315/315 316/316/316 317/317/317
f 317/317/317 318/318/318 315/315/315
f 319/319/319 320/320/320 321/321/321
f 321/321/321 322/322/322 319/319/319
f 323/323/323 324/324/324 325/325/325
f 325/325/325 326/326/326 323/323/323
f 310/310/310 309/309/309 327/327/327
f 327/327/327 328/328/328 310/310/310
f 314/314/314 313/313/313 329/329/329
f 329/329/329 330/330/330 314/314/314
f 318/318/318 317/317/317 331/331/331
f 331/331/331 332/332/332 318/318/318
f 322/322/322 321/321/321 333/333/333
f 333/333/333 334/334/334 322/322/322
f 326/326/326 325/325/325 335/335/335
f 335/335/335 336/336/336 326/326/326
f 328/328/328 327/327/327 337/337/337
f 337/337/337 338/338/338 328/328/328
f 330/330/330 329/329/329 339/339/339
f 339/339/339 340/340/340 330/330/330
f 332/332/332 331/331/331 341/341/341
f 341/341/341 342/342/342 332/332/332
f 334/334/334 333/333/333 343/343/343
f 343/343/343 344/344/344 334/334/334
f 336/336/336 335/335/335 345/345/345
f 345/345/345 346/346/346 336/336/336
f 347/347/347 348/348/348 349/349/349
f 350/350/350 351/351/351 347/347/347
f 352/352/352 353/353/353 354/354/354
f 354/354/354 355/355/355 352/352/352
f 356/356/356 357/357/357 358/358/358
f 358/358/358 359/359/359 360/360/360
f 361/361/361 362/362/362 363/363/363
f 364/364/364 365/365/365 361/361/361
f 366/366/366 367/367/367 368/368/368
f 369/369/369 370/370/370 366/366/366
f 371/371/371 358/358/358 372/372/372
f 372/372/372 373/373/373 374/374/374
f 365/365/365 375/375/375 376/376/376
f 376/376/376 377/377/377 365/365/365
f 355/355/355 354/354/354 378/378/378
f 378/378/378 379/379/379 355/355/355
f 351/351/351 380/380/380 381/381/381
f 381/381/381 382/382/382 351/351/351
f 383/383/383 384/384/384 385/385/385
f 385/385/385 386/386/386 383/383/383
f 387/387/387 372/372/372 388/388/388
f 377/377/377 376/376/376 389/389/389
f 379/379/379 378/378/378 390/390/390
f 391/391/391 392/392/392 393/393/393
f 394/394/394 385/385/385 395/395/395
f 396/396/396 397/397/397 398/398/398
f 399/399/399 398/398/398 397/397/397
