mtllib dd_bd015.mtl
o dd_bd015_part_0
v 5.38995 4.816609 -1.65081036
v 4.14915466 4.85729837 -1.65081036
v 4.14915466 4.85729837 -0.5964776
v 5.38995 4.816609 -0.5964738
v 1.58923721 4.23639631 -0.5964776
v 1.58923721 4.23639631 -1.65081036
v 1.43794441 4.228344 -1.65081036
v -0.09010315 4.147017 -1.65081036
v -0.09010315 4.147017 -0.5964776
v 1.43794441 4.228344 -0.5964776
v 2.50221252 5.21517849 -1.65081036
v 2.50221252 5.21517849 -0.5964776
v 3.527031 5.20063925 -0.5964776
v 3.527031 5.20063925 -1.65081036
v 4.14915466 4.85729837 -0.5964776
v 3.527031 5.20063925 -0.5964776
v 2.50221252 5.21517849 -0.5964776
v 1.58923721 4.23639631 -0.5964776
v 1.43794441 4.228344 -0.5964776
v 1.43794441 -0.0558643341 -0.5964738
v 5.394184 -0.0558643341 -0.5964738
v 5.38995 4.816609 -0.5964738
v 5.394184 -0.0558643341 -1.65081036
v 1.43794441 -0.0558643341 -1.65081036
v 1.43794441 4.228344 -1.65081036
v 1.58923721 4.23639631 -1.65081036
v 2.50221252 5.21517849 -1.65081036
v 4.14915466 4.85729837 -1.65081036
v 5.38995 4.816609 -1.65081036
v 3.527031 5.20063925 -1.65081036
v 5.38995 4.816609 -1.65081036
v 5.38995 4.816609 -0.5964738
v 5.394184 -0.0558643341 -0.5964738
v 5.394184 -0.0558643341 -1.65081036
vt 2.36411357 0.9964815
vt 2.110795 0.9964815
vt 2.11079526 0.8308626
vt 2.36411357 0.830862641
vt 1.55510926 0.830862463
vt 1.55510926 0.996481359
vt 1.52361131 0.9964813
vt 1.20548344 0.996481359
vt 1.20548356 0.830862463
vt 1.52361131 0.8308624
vt 1.78881109 0.996481359
vt 1.78881121 0.8308626
vt 1.99893069 0.8308626
vt 1.99893069 0.9964815
vt 0.7923413 0.916779459
vt 0.6792279 0.9792051
vt 0.4928966 0.981848657
vt 0.326901764 0.803888261
vt 0.299393982 0.8024242
vt 0.299393535 0.0234772563
vt 1.01870966 0.0234772563
vt 1.01794028 0.909381449
vt 0.0111642182 0.0121886134
vt 0.730480433 0.0121886134
vt 0.730479956 0.7911356
vt 0.7029722 0.7925997
vt 0.5369773 0.9705601
vt 0.237532645 0.9054909
vt 0.0119335949 0.898092866
vt 0.350646049 0.9679165
vt 0.6081931 1
vt 0.391806871 1
vt 0.391806871 0
vt 0.6081931 0
vn 0.718299 0.69573456 0
vn 0.2653196 0.9641605 0
vn 0.265319347 0.964160562 0
vn 0.7182996 0.695733845 0
vn -0.42292577 0.906164348 1.92106384E-07
vn -0.422925949 0.9061642 0
vn -0.05314794 0.998586655 -6.375932E-08
vn -0.0531476028 0.998586655 -9.113526E-09
vn -0.053147573 0.998586655 0
vn -0.05314823 0.998586655 9.539222E-07
vn -0.3921725 0.9198917 0
vn -0.392172456 0.9198917 0
vn 0.2563439 0.966585636 0
vn 0.2563439 0.966585636 0
vn 0 0 1
vn 0 0 1
vn 0 0 1
vn 0 0 1
vn -4.73907775E-08 8.904089E-07 1
vn -4.73907775E-08 8.904089E-07 1
vn 0 7.76424E-07 1
vn -3.074485E-06 -2.67181233E-09 1
vn 0 0 -1
vn 0 0 -1
vn 0 0 -1
vn 0 0 -1
vn 0 0 -1
vn 0 0 -1
vn 0 0 -1
vn 0 0 -1
vn 0.718299 0.69573456 0
vn 0.7182996 0.695733845 0
vn 0.999999642 0.000869027339 0
vn 0.999999642 0.000869027339 0
usemtl dd_bd015_part_0_material_0
f 1/1/1 2/2/2 3/3/3
f 3/3/3 4/4/4 1/1/1
f 5/5/5 6/6/6 7/7/7
f 5/5/5 7/7/7 8/8/8
f 8/8/8 9/9/9 10/10/10
f 5/5/5 8/8/8 10/10/10
f 11/11/11 12/12/12 13/13/13
f 13/13/13 14/14/14 11/11/11
f 14/14/14 13/13/13 3/3/3
f 3/3/3 2/2/2 14/14/14
f 6/6/6 5/5/5 12/12/12
f 12/12/12 11/11/11 6/6/6
usemtl dd_bd015_part_0_material_1
f 15/15/15 16/16/16 17/17/17
f 15/15/15 17/17/17 18/18/18
f 18/18/18 19/19/19 20/20/20
f 15/15/15 18/18/18 20/20/20
f 15/15/15 20/20/20 21/21/21
f 15/15/15 21/21/21 22/22/22
f 23/23/23 24/24/24 25/25/25
f 23/23/23 25/25/25 26/26/26
f 26/26/26 27/27/27 28/28/28
f 23/23/23 26/26/26 28/28/28
f 23/23/23 28/28/28 29/29/29
f 27/27/27 30/30/30 28/28/28
f 31/31/31 32/32/32 33/33/33
f 33/33/33 34/34/34 31/31/31
o dd_bd015_part_1
v 0.532531738 1.66948676 0.669326663
v 0.532535553 1.66948676 -0.488098264
v -0.6738968 1.66948676 -0.488098264
v -0.6738968 1.66948676 0.669326663
v -0.6738968 1.66948676 0.669326663
v -0.6738968 1.66948676 -0.488098264
v -0.6738968 1.36836624 -0.488098264
v -0.6738968 1.36836624 0.669326663
v 0.532531738 1.66948676 0.669326663
v -0.6738968 1.66948676 0.669326663
v -0.6738968 1.36836624 0.669326663
v 0.532531738 1.36836624 0.669326663
v 0.532535553 1.66948676 -0.488098264
v 0.532531738 1.66948676 0.669326663
v 0.532531738 1.36836624 0.669326663
v 0.532535553 1.36836624 -0.488098264
v -0.6738968 1.66948676 -0.488098264
v 0.532535553 1.66948676 -0.488098264
v 0.532535553 1.36836624 -0.488098264
v -0.6738968 1.36836624 -0.488098264
v -0.566455841 1.3660109 -0.3850175
v -0.566455841 0.411119461 -0.3850175
v -0.566461563 0.411119461 0.566253543
v -0.566461563 1.3660109 0.566253543
v -0.566461563 1.3660109 0.566253543
v -0.566461563 0.411119461 0.566253543
v 0.4250927 0.411119461 0.566253543
v 0.4250927 1.3660109 0.566253543
v 0.4250927 1.3660109 0.566253543
v 0.4250927 0.411119461 0.566253543
v 0.4250927 0.411119461 -0.3850175
v 0.4250927 1.3660109 -0.3850175
v 0.4250927 1.3660109 -0.3850175
v 0.4250927 0.411119461 -0.3850175
v -0.566455841 0.411119461 -0.3850175
v -0.566455841 1.3660109 -0.3850175
v -0.692688 0.336766243 -0.5061189
v -0.6926842 0.336766243 0.6873473
v -0.566461563 0.411119461 0.566253543
v -0.566455841 0.411119461 -0.3850175
v -0.6926842 0.336766243 0.6873473
v 0.551322937 0.336766243 0.6873473
v 0.4250927 0.411119461 0.566253543
v -0.566461563 0.411119461 0.566253543
v 0.551322937 0.336766243 0.6873473
v 0.551322937 0.336766243 -0.5061189
v 0.4250927 0.411119461 -0.3850175
v 0.4250927 0.411119461 0.566253543
v 0.551322937 0.336766243 -0.5061189
v -0.692688 0.336766243 -0.5061189
v -0.566455841 0.411119461 -0.3850175
v 0.4250927 0.411119461 -0.3850175
v -0.692688 -0.0537202358 -0.5061189
v -0.6926842 -0.0537202358 0.6873473
v -0.6926842 0.336766243 0.6873473
v -0.692688 0.336766243 -0.5061189
v -0.6926842 -0.0537202358 0.6873473
v 0.551322937 -0.0537202358 0.6873473
v 0.551322937 0.336766243 0.6873473
v -0.6926842 0.336766243 0.6873473
v 0.551322937 -0.0537202358 0.6873473
v 0.551322937 -0.0537202358 -0.5061189
v 0.551322937 0.336766243 -0.5061189
v 0.551322937 0.336766243 0.6873473
v 0.551322937 -0.0537202358 -0.5061189
v -0.692688 -0.0537202358 -0.5061189
v -0.692688 0.336766243 -0.5061189
v 0.551322937 0.336766243 -0.5061189
v 0.332630157 1.599477 0.25820148
v 0.331928253 1.599477 -0.061771512
v 0.331928253 3.096099 -0.061771512
v 0.332630157 3.096099 0.25820148
v 0.105175018 1.599477 -0.28753674
v 0.105175018 3.36043787 -0.28753674
v -0.214801788 1.599477 -0.286834836
v -0.214801788 3.642426 -0.286834836
v -0.44055748 1.599477 -0.0600777864
v -0.44055748 3.642426 -0.0600777864
v -0.439853668 1.599477 0.2598952
v -0.439853668 3.642426 0.2598952
v -0.213104248 1.599477 0.485649
v -0.213104248 3.49264479 0.485649
v 0.106864929 1.599477 0.4849471
v 0.106864929 3.36043787 0.4849471
v 0.332630157 1.599477 0.25820148
v 0.332630157 3.096099 0.25820148
v 0.105175018 3.36043787 -0.28753674
v -0.214801788 3.642426 -0.286834836
v -0.44055748 3.642426 -0.0600777864
v -0.439853668 3.642426 0.2598952
v -0.213104248 3.49264479 0.485649
v 0.106864929 3.36043787 0.4849471
v 0.332630157 3.096099 0.25820148
v 0.331928253 3.096099 -0.061771512
v -5.394182 -0.0558643341 -1.65081036
v -5.394184 -0.0558643341 -0.5964776
v -5.394184 1.70670986 -0.5964776
v -5.394182 1.70670938 -1.65081036
v -3.59802246 1.79469442 -1.65081036
v -3.59802246 1.7946949 -0.5964776
v -2.2236557 2.65741634 -0.5964776
v -2.2236557 2.65741634 -1.65081036
v -0.09010315 4.14701653 -0.5964776
v -0.09010315 4.14701653 -1.65081036
v -5.394182 1.70670938 -1.65081036
v -5.394184 1.70670986 -0.5964776
v 1.43794441 4.228344 -0.5964776
v -0.09010315 4.14701653 -0.5964776
v -2.2236557 2.65741634 -0.5964776
v -3.59802246 1.7946949 -0.5964776
v -5.394184 1.70670986 -0.5964776
v -5.394184 -0.0558643341 -0.5964776
v 1.43794441 -0.0558643341 -0.5964738
v 1.43794441 -0.0558643341 -1.65081036
v -5.394182 -0.0558643341 -1.65081036
v -5.394182 1.70670938 -1.65081036
v -3.59802246 1.79469442 -1.65081036
v -2.2236557 2.65741634 -1.65081036
v -0.09010315 4.14701653 -1.65081036
v 1.43794441 4.228344 -1.65081036
vt 0.9666735 0.5745987
vt 0.9666735 0.3956973
vt 0.7421361 0.3956973
vt 0.7421361 0.5745987
vt 0.742122 0.39745307
vt 0.966015 0.39745307
vt 0.966015 0.337116361
vt 0.742122 0.337116361
vt 0.7417736 0.39745307
vt 0.966015 0.39745307
vt 0.966015 0.337536454
vt 0.7417736 0.337536454
vt 0.742122 0.39745307
vt 0.966015 0.39745307
vt 0.966015 0.337116361
vt 0.742122 0.337116361
vt 0.742122 0.393008351
vt 0.966015 0.393008351
vt 0.966015 0.337116361
vt 0.742122 0.337116361
vt 0.9553794 0.332008481
vt 0.9553794 0.131730437
vt 0.7534343 0.131730437
vt 0.7534343 0.332008481
vt 0.7523528 0.332008481
vt 0.7523528 0.131730437
vt 0.9542979 0.131730437
vt 0.9542979 0.332008481
vt 0.7523528 0.332008481
vt 0.7523528 0.131730437
vt 0.9542979 0.131730437
vt 0.9542979 0.332008481
vt 0.7523528 0.332008481
vt 0.7523528 0.131730437
vt 0.9542979 0.131730437
vt 0.9542979 0.332008481
vt 0.980537653 0.10739094
vt 0.727176249 0.10739094
vt 0.7534343 0.131730437
vt 0.9553794 0.131730437
vt 0.727194548 0.10739094
vt 0.980555952 0.10739094
vt 0.9542979 0.131730437
vt 0.7523528 0.131730437
vt 0.727194548 0.10739094
vt 0.980555952 0.10739094
vt 0.9542979 0.131730437
vt 0.7523528 0.131730437
vt 0.727194548 0.10739094
vt 0.980555952 0.10739094
vt 0.9542979 0.131730437
vt 0.7523528 0.131730437
vt 0.980555952 0.0309687853
vt 0.7271947 0.0309687853
vt 0.7271947 0.10739094
vt 0.980555952 0.10739094
vt 0.727176249 0.0309687853
vt 0.9805375 0.0309687853
vt 0.9805375 0.10739094
vt 0.727176249 0.10739094
vt 0.727176249 0.0309687853
vt 0.9805375 0.0309687853
vt 0.9805375 0.10739094
vt 0.727176249 0.10739094
vt 0.727176249 0.0309687853
vt 0.9805375 0.0309687853
vt 0.9805375 0.10739094
vt 0.727176249 0.10739094
vt 0.0673677 0.398064375
vt 0.00341064157 0.39790684
vt 0.00341064157 0.697231233
vt 0.0673677 0.697388768
vt 0.06744359 0.3977493
vt 0.06744359 0.749941468
vt 0.131501064 0.3977493
vt 0.131501064 0.806339145
vt 0.195495442 0.3977493
vt 0.195495442 0.806339145
vt 0.258245349 0.3977493
vt 0.258245349 0.8063391
vt 0.195221633 0.3977493
vt 0.195221633 0.7763828
vt 0.131164163 0.3977493
vt 0.131164163 0.749941468
vt 0.06716886 0.3977493
vt 0.06716886 0.6970737
vt 0.8179191 0.129743218
vt 0.900654256 0.1297487
vt 0.940860152 0.175002515
vt 0.940856 0.2389974
vt 0.88690263 0.2842449
vt 0.817908764 0.284240365
vt 0.756123245 0.238985121
vt 0.7561276 0.1749903
vt 0.524472237 0.0297723413
vt 0.3327753 0.0297723413
vt 0.3327753 0.35024035
vt 0.524472237 0.350240231
vt 0.373589665 0.996481
vt 0.373589873 0.830862164
vt 0.696754754 0.8308624
vt 0.696754634 0.99648124
vt 1.20548356 0.830862463
vt 1.20548344 0.996481359
vt -2.530894E-08 0.996481
vt 1.17249485E-07 0.830862164
vt 0.299393982 0.8024242
vt 0.0215671659 0.7876375
vt -0.3663515 0.516801
vt -0.6162364 0.359942555
vt -0.9428112 0.343945265
vt -0.9428112 0.0234772563
vt 0.299393535 0.0234772563
vt 0.730480433 0.0121886134
vt 1.9726851 0.0121886134
vt 1.9726851 0.332656562
vt 1.6461103 0.348653853
vt 1.39622533 0.505512357
vt 1.00830674 0.7763488
vt 0.730479956 0.7911356
vn 0 1 0
vn 0 1 0
vn 0 1 0
vn 0 1 0
vn -1 0 0
vn -1 0 0
vn -1 0 0
vn -1 0 0
vn 0 0 1
vn 0 0 1
vn 0 0 1
vn 0 0 1
vn 1 0 3.2958485E-06
vn 1 0 3.2958485E-06
vn 1 0 3.2958485E-06
vn 1 0 3.2958485E-06
vn 0 0 -1
vn 0 0 -1
vn 0 0 -1
vn 0 0 -1
vn -1 0 -6.01515831E-06
vn -1 0 -6.01515831E-06
vn -1 0 -6.01515831E-06
vn -1 0 -6.01515831E-06
vn 0 0 1
vn 0 0 1
vn 0 0 1
vn 0 0 1
vn 1 0 0
vn 1 0 0
vn 1 0 0
vn 1 0 0
vn 0 0 -1
vn 0 0 -1
vn 0 0 -1
vn 0 0 -1
vn -0.507549465 0.861622632 1.62228946E-06
vn -0.507549465 0.861622632 1.62228946E-06
vn -0.507549465 0.861622632 1.62228946E-06
vn -0.50751996 0.86164 -3.05281287E-06
vn 0 0.852179348 0.5232498
vn 0 0.852179348 0.5232498
vn 0 0.852179348 0.5232498
vn 0 0.852179348 0.5232498
vn 0.5075278 0.8616353 0
vn 0.5075278 0.8616353 0
vn 0.5075278 0.8616353 0
vn 0.5075278 0.8616353 0
vn 0 0.8521941 -0.523225844
vn 0 0.8521941 -0.523225844
vn 0 0.8521941 -0.523225844
vn 0 0.8521941 -0.523225844
vn -1 0 3.196318E-06
vn -1 0 3.196318E-06
vn -1 0 3.196318E-06
vn -1 0 3.196318E-06
vn 0 0 1
vn 0 0 1
vn 0 0 1
vn 0 0 1
vn 1 0 0
vn 1 0 0
vn 1 0 0
vn 1 0 0
vn 0 0 -1
vn 0 0 -1
vn 0 0 -1
vn 0 0 -1
vn 0.924711645 0 0.380668372
vn 0.9230398 0 -0.384704441
vn 0.8918482 0 -0.452334821
vn 0.89381367 0 0.448438555
vn 0.3806606 0 -0.9247148
vn 0.206650257 0 -0.9784149
vn -0.384718 0 -0.923034132
vn -0.495112 0 -0.868829131
vn -0.9247216 0 -0.3806442
vn -0.9247216 0 -0.380644172
vn -0.923035443 0 0.384715
vn -0.946712 0 0.322081327
vn -0.380652726 0 0.9247181
vn -0.477576226 0 0.878590345
vn 0.384696662 0 0.9230431
vn 0.236230269 0 0.9716971
vn 0.924711645 0 0.380668372
vn 0.89381367 0 0.448438555
vn 0.6065135 0.7885094 0.101952046
vn 0.552734852 0.625828 0.550294
vn 0.497931421 0.85709697 0.132095
vn 0.489269346 0.8712909 0.03831002
vn 0.44924587 0.8928253 0.0322664529
vn 0.5425348 0.840032458 -0.001186867
vn 0.759703934 0.650267 -0.001663158
vn 0.759707332 0.650263 -0.00166652142
vn -1 0 -1.80905761E-06
vn -1 0 -1.80905761E-06
vn -1 0 -1.80905761E-06
vn -1 0 -1.80905761E-06
vn -0.300055146 0.953921854 -3.58807853E-07
vn -0.300055116 0.953921854 -4.46867318E-07
vn -0.5522233 0.8336962 -7.027517E-08
vn -0.5522234 0.8336962 0
vn -0.5724595 0.819933 0
vn -0.5724595 0.819933 0
vn -0.04892639 0.998802364 -5.103536E-07
vn -0.04892637 0.998802364 -5.402334E-07
vn 0 0 1
vn 0 0 1
vn 0 0 1
vn 0 0 1
vn 0 0 1
vn 0 0 1
vn -5.583468E-07 8.90408842E-07 1
vn 0 0 -1
vn 0 0 -1
vn 0 0 -1
vn 0 0 -1
vn 0 0 -1
vn 0 0 -1
vn 0 0 -1
usemtl dd_bd015_part_1_material_0
f 133/133/133 134/134/134 135/135/135
f 135/135/135 136/136/136 133/133/133
f 136/136/136 135/135/135 137/137/137
f 137/137/137 138/138/138 136/136/136
f 139/139/139 140/140/140 134/134/134
f 134/134/134 133/133/133 139/139/139
usemtl dd_bd015_part_1_material_1
f 35/35/35 36/36/36 37/37/37
f 37/37/37 38/38/38 35/35/35
f 39/39/39 40/40/40 41/41/41
f 41/41/41 42/42/42 39/39/39
f 43/43/43 44/44/44 45/45/45
f 45/45/45 46/46/46 43/43/43
f 47/47/47 48/48/48 49/49/49
f 49/49/49 50/50/50 47/47/47
f 51/51/51 52/52/52 53/53/53
f 53/53/53 54/54/54 51/51/51
f 55/55/55 56/56/56 57/57/57
f 57/57/57 58/58/58 55/55/55
f 59/59/59 60/60/60 61/61/61
f 61/61/61 62/62/62 59/59/59
f 63/63/63 64/64/64 65/65/65
f 65/65/65 66/66/66 63/63/63
f 67/67/67 68/68/68 69/69/69
f 69/69/69 70/70/70 67/67/67
f 71/71/71 72/72/72 73/73/73
f 73/73/73 74/74/74 71/71/71
f 75/75/75 76/76/76 77/77/77
f 77/77/77 78/78/78 75/75/75
f 79/79/79 80/80/80 81/81/81
f 81/81/81 82/82/82 79/79/79
f 83/83/83 84/84/84 85/85/85
f 85/85/85 86/86/86 83/83/83
f 87/87/87 88/88/88 89/89/89
f 89/89/89 90/90/90 87/87/87
f 91/91/91 92/92/92 93/93/93
f 93/93/93 94/94/94 91/91/91
f 95/95/95 96/96/96 97/97/97
f 97/97/97 98/98/98 95/95/95
f 99/99/99 100/100/100 101/101/101
f 101/101/101 102/102/102 99/99/99
f 103/103/103 104/104/104 105/105/105
f 105/105/105 106/106/106 103/103/103
f 104/104/104 107/107/107 108/108/108
f 108/108/108 105/105/105 104/104/104
f 107/107/107 109/109/109 110/110/110
f 110/110/110 108/108/108 107/107/107
f 109/109/109 111/111/111 112/112/112
f 112/112/112 110/110/110 109/109/109
f 111/111/111 113/113/113 114/114/114
f 114/114/114 112/112/112 111/111/111
f 113/113/113 115/115/115 116/116/116
f 116/116/116 114/114/114 113/113/113
f 115/115/115 117/117/117 118/118/118
f 118/118/118 116/116/116 115/115/115
f 117/117/117 119/119/119 120/120/120
f 120/120/120 118/118/118 117/117/117
f 121/121/121 122/122/122 123/123/123
f 121/121/121 123/123/123 124/124/124
f 121/121/121 124/124/124 125/125/125
f 121/121/121 125/125/125 126/126/126
f 121/121/121 126/126/126 127/127/127
f 121/121/121 127/127/127 128/128/128
usemtl dd_bd015_part_1_material_2
f 129/129/129 130/130/130 131/131/131
f 131/131/131 132/132/132 129/129/129
f 141/141/141 142/142/142 143/143/143
f 144/144/144 145/145/145 146/146/146
f 143/143/143 144/144/144 146/146/146
f 141/141/141 143/143/143 146/146/146
f 141/141/141 146/146/146 147/147/147
f 148/148/148 149/149/149 150/150/150
f 148/148/148 150/150/150 151/151/151
f 148/148/148 151/151/151 152/152/152
f 148/148/148 152/152/152 153/153/153
f 148/148/148 153/153/153 154/154/154
