mtllib nml-bd125.mtl
o nml-bd125_part_0
v 0.256482452 1.33907855 -0.476397753
v 0.443053484 1.33907855 -0.1532948
v 0.836419165 0.365688652 -0.1532948
v 0.613141537 0.365688652 -0.617553949
v 0.3603313 0.365688652 -0.6788529
v 0.111610278 0.365688652 -0.895030558
v -0.313342631 0.365688652 -0.81711
v -0.116659746 1.33907855 -0.476397753
v -0.303230822 1.33907855 -0.153294772
v -0.696596444 0.365688652 -0.153294727
v -0.1166597 1.33907855 0.169808149
v -0.3133425 0.365688652 0.510520458
v 0.256482452 1.33907855 0.16980812
v 0.217708454 0.365688652 0.5640814
v 0.362198353 0.365688652 0.377711177
v 0.647049069 0.365688652 0.317417562
v 0.256482452 1.33907855 0.16980812
v 0.362198353 0.365688652 0.377711177
v 0.836419165 0.365688652 -0.1532948
v 0.443053484 1.33907855 -0.1532948
v 0.299975634 2.94336867 -0.22185728
v 0.165539116 2.943369 -0.4546738
v -0.103333905 2.943369 -0.4546738
v -0.237770423 2.943369 -0.22185722
v -0.10333389 2.943369 0.0109592974
v 0.165539145 2.943369 0.0109592974
v 0.247815579 4.426854 -0.5548339
v 0.398252666 4.54352665 -0.134514019
v -0.144892365 4.363226 -0.549974442
v -0.31832397 4.363226 -0.1806805
v -0.314120948 4.41225338 0.1805726
v 0.006894067 4.461226 0.1539683
v -0.10333389 2.943369 0.0109592974
v 0.165539145 2.943369 0.0109592974
v 0.2901605 4.54352665 0.13748154
v 0.2901605 4.54352665 0.13748154
v 0.0575136058 -0.0176143423 -1.43174958
v -0.206264451 -0.0176143423 -1.44630194
v -0.313342631 0.365688652 -0.81711
v 0.111610278 0.365688652 -0.895030558
v 0.3603313 0.365688652 -0.6788529
v 1.25516081 -0.0176143125 0.448617518
v 1.3533411 -0.0176143125 0.204573363
v 0.836419165 0.365688652 -0.1532948
v 0.647049069 0.365688652 0.317417562
v 0.362198353 0.365688652 0.377711177
v 0.217708454 0.365688652 0.5640814
v 0.388261139 -0.0176143125 1.05656934
v -0.215034768 -0.0176143125 1.09619343
v -0.3133425 0.365688652 0.510520458
v -1.17011964 -0.0176143125 0.237684637
v -0.9467716 -0.0176143125 0.624534667
v -0.3133425 0.365688652 0.510520458
v -0.696596444 0.365688652 -0.153294727
vt -0.9916998 0.3812281
vt -0.81654036 0.3812281
vt -0.8202 0.0115942359
vt -0.900388 0.0115942359
vt -0.987128 0.0115942359
vt -0.900388 0.0115942359
vt -0.8202 0.0115942359
vt -0.81654036 0.3812281
vt -0.6570962 0.3812281
vt -0.676700234 0.0115942359
vt -0.49022752 0.3812281
vt -0.496982574 0.0115942359
vt -0.6570962 0.3812281
vt -0.6148642 0.0115942359
vt -0.6773131 0.0115942359
vt -0.7388434 0.0115942359
vt -0.657064438 0.3812281
vt -0.6771328 0.0115942359
vt -0.8206372 0.0115942359
vt -0.8170265 0.3812281
vt -0.805163 0.9702937
vt -0.943932235 0.9702937
vt -0.805163 0.9702937
vt -0.678768635 0.9702937
vt -0.5526189 0.9702937
vt -0.678768635 0.9702937
vt -0.9916998 0.3812281
vt -0.81654036 0.3812281
vt -0.81654036 0.3812281
vt -0.6570962 0.3812281
vt -0.49022752 0.3812281
vt -0.5660831 0.3812281
vt -0.5526189 0.9701989
vt -0.6790722 0.9701989
vt -0.6574791 0.3812281
vt -0.6570962 0.3812281
vt 1.29573441 0.7278179
vt 1.384664 0.7278179
vt 1.41443229 0.495913625
vt 1.333332 0.495913625
vt 1.24935067 0.495913625
vt 1.4978174 0.7301334
vt 1.44215465 0.7301334
vt 1.41568279 0.496331751
vt 1.49709475 0.496331751
vt 1.55814087 0.499524
vt 1.61880314 0.499524
vt 1.5890255 0.729563832
vt 1.72116268 0.729563832
vt 1.7351166 0.499524
vt 1.587732 0.729748368
vt 1.69258225 0.7297485
vt 1.73616886 0.499524
vt 1.55814087 0.499524
vn 0.5025027 0.229952648 -0.833434343
vn 0.965493441 0.260348231 -0.00641724
vn 0.8170827 0.5744894 0.0483502932
vn 0.624855459 0.331462055 -0.70688653
vn 0.461591184 0.3127498 -0.8301332
vn 0.235891819 0.6178494 -0.7500781
vn -0.398603171 0.5511297 -0.7330563
vn -0.4987336 0.227665216 -0.8363213
vn -0.974737048 0.2232672 0.006279494
vn -0.8047437 0.58420974 0.105292723
vn -0.479401857 0.246334255 0.842314243
vn -0.395842046 0.6618775 0.6365746
vn 0.4719387 0.2672812 0.8401396
vn 0.3081515 0.6579754 0.6871034
vn 0.541376948 0.356006145 0.7616893
vn 0.6210935 0.555257 0.5531116
vn 0.4719387 0.2672812 0.8401396
vn 0.541376948 0.356006145 0.7616893
vn 0.8170827 0.5744894 0.0483502932
vn 0.965493441 0.260348231 -0.00641724
vn 0.9999756 -7.84554941E-05 -0.00698473724
vn 0.491804332 -0.02360227 -0.8703858
vn -0.50433 -0.0227816515 -0.86321044
vn -0.998845756 -0.03658804 -0.0311202649
vn -0.492697448 -0.0354504436 0.8694783
vn 0.5019282 0.00619659526 0.8648871
vn 0.6458574 -0.0658531338 -0.760612667
vn 0.9939914 -0.0782827958 0.07650474
vn -0.5053612 -0.07265642 -0.8598437
vn -0.9786273 -0.0565313138 -0.1977188
vn -0.569057643 -0.1250909 0.812727332
vn 0.08423551 -0.09182433 0.992206
vn -0.492697448 -0.0354504436 0.8694783
vn 0.5019282 0.00619659526 0.8648871
vn 0.6456661 -0.110033147 0.7556507
vn 0.6456661 -0.110033147 0.7556507
vn 0.0589248128 0.8357309 -0.545968652
vn 0.0284951925 0.855808139 -0.5165079
vn -0.398603171 0.5511297 -0.7330563
vn 0.235891819 0.6178494 -0.7500781
vn 0.461591184 0.3127498 -0.8301332
vn 0.4917854 0.8479406 0.197847933
vn 0.4917854 0.8479406 0.197847962
vn 0.8170827 0.5744894 0.0483502932
vn 0.6210935 0.555257 0.5531116
vn 0.541376948 0.356006145 0.7616893
vn 0.3081515 0.6579754 0.6871034
vn 0.123336956 0.803378165 0.582556
vn -0.001965289 0.8121583 0.583433867
vn -0.395842046 0.6618775 0.6365746
vn -0.46317336 0.8449619 0.267413318
vn -0.46317333 0.8449619 0.267413318
vn -0.395842046 0.6618775 0.6365746
vn -0.8047437 0.58420974 0.105292723
usemtl nml-bd125_part_0_material_0
f 1/1/1 2/2/2 3/3/3
f 3/3/3 4/4/4 1/1/1
f 4/4/4 5/5/5 1/1/1
f 6/6/6 1/1/1 5/5/5
f 6/6/6 7/7/7 8/8/8
f 8/8/8 1/1/1 6/6/6
f 9/9/9 8/8/8 7/7/7
f 7/7/7 10/10/10 9/9/9
f 11/11/11 9/9/9 10/10/10
f 10/10/10 12/12/12 11/11/11
f 13/13/13 11/11/11 12/12/12
f 12/12/12 14/14/14 13/13/13
f 14/14/14 15/15/15 13/13/13
f 16/16/16 17/17/17 18/18/18
f 16/16/16 19/19/19 20/20/20
f 20/20/20 17/17/17 16/16/16
f 21/21/21 2/2/2 1/1/1
f 1/1/1 22/22/22 21/21/21
f 22/22/22 1/1/1 8/8/8
f 8/8/8 23/23/23 22/22/22
f 23/23/23 8/8/8 9/9/9
f 9/9/9 24/24/24 23/23/23
f 24/24/24 9/9/9 11/11/11
f 11/11/11 25/25/25 24/24/24
f 25/25/25 11/11/11 13/13/13
f 13/13/13 26/26/26 25/25/25
f 26/26/26 13/13/13 2/2/2
f 2/2/2 21/21/21 26/26/26
f 21/21/21 22/22/22 27/27/27
f 27/27/27 28/28/28 21/21/21
f 22/22/22 23/23/23 29/29/29
f 29/29/29 27/27/27 22/22/22
f 23/23/23 24/24/24 30/30/30
f 30/30/30 29/29/29 23/23/23
f 31/31/31 30/30/30 24/24/24
f 24/24/24 25/25/25 31/31/31
f 32/32/32 31/31/31 33/33/33
f 33/33/33 34/34/34 32/32/32
f 32/32/32 34/34/34 35/35/35
f 26/26/26 21/21/21 28/28/28
f 28/28/28 36/36/36 26/26/26
usemtl nml-bd125_part_0_material_1
f 37/37/37 38/38/38 39/39/39
f 37/37/37 39/39/39 40/40/40
f 37/37/37 40/40/40 41/41/41
f 42/42/42 43/43/43 44/44/44
f 44/44/44 45/45/45 42/42/42
f 46/46/46 47/47/47 48/48/48
f 49/49/49 48/48/48 47/47/47
f 47/47/47 50/50/50 49/49/49
f 51/51/51 52/52/52 53/53/53
f 53/53/53 54/54/54 51/51/51
o nml-bd125_part_1
v 0.05044973 5.755072 -0.0597761869
v -0.0313555 5.74929762 0.235572547
v 0.217149019 5.91435528 0.19287765
v 0.376502037 5.84157658 -0.06462765
v 0.3982526 4.54352665 -0.134514019
v 0.247815609 4.426854 -0.5548339
v 0.217020154 4.63199854 -0.269707322
v 0.544800758 5.84157658 0.0849175751
v 0.4459622 5.83786726 0.334203333
v 0.290160537 4.54352665 0.13748154
v 0.3982526 4.54352665 -0.134514019
v 0.376502037 5.84157658 -0.06462765
v 0.544800758 5.84157658 0.0849175751
v 0.3982526 4.54352665 -0.134514019
v 0.217020154 4.63199854 -0.269707322
v 0.670910954 6.732025 0.10070172
v 0.450667739 6.637862 0.3704501
v 0.4459622 5.83786726 0.334203333
v 0.544800758 5.84157658 0.0849175751
v 0.450667739 6.637862 0.3704501
v 0.258134246 6.637862 0.229273558
v 0.217149019 5.91435528 0.19287765
v 0.4459622 5.83786726 0.334203333
v 0.422757745 6.732025 -0.06644121
v 0.670910954 6.732025 0.10070172
v 0.544800758 5.84157658 0.0849175751
v 0.376502037 5.84157658 -0.06462765
v 0.258134246 6.637862 0.229273558
v 0.422757745 6.732025 -0.06644121
v 0.376502037 5.84157658 -0.06462765
v 0.217149019 5.91435528 0.19287765
v -2.585648 8.683271 -1.79156387
v -2.63647556 8.646299 -1.75557208
v -2.58737 8.693844 -1.72589624
v -0.210200429 5.174627 -0.410567373
v -0.0260326862 4.628872 -0.310667545
v -0.144892335 4.363226 -0.549974442
v -0.364118457 5.10679531 -0.470814258
v -0.345960617 5.13819265 -0.236549556
v -0.425895572 4.997018 -0.3158406
v -0.31832397 4.363226 -0.180680513
v -0.111875176 4.61372232 -0.103880793
v -0.425895572 4.997018 -0.3158406
v -0.364118457 5.10679531 -0.470814258
v -0.144892335 4.363226 -0.549974442
v -0.31832397 4.363226 -0.180680513
v -0.210200429 5.174627 -0.410567373
v -0.345960617 5.13819265 -0.236549556
v -0.111875176 4.61372232 -0.103880793
v -0.0260326862 4.628872 -0.310667545
v -0.27538085 5.738788 -0.14571625
v -0.303264856 5.725 -0.2673166
v -0.364118457 5.10679531 -0.470814258
v -0.345960617 5.13819265 -0.236549556
v -0.303264856 5.725 -0.2673166
v -0.222453 5.805333 -0.2403498
v -0.222453 5.805333 -0.2403498
v -0.27538085 5.738788 -0.14571625
v -0.222453 5.805333 -0.2403498
v -0.303264856 5.725 -0.2673166
v -1.4732511 6.99205637 0.08285397
v -1.37773764 7.06424 0.116436929
v -1.45226932 7.00243139 0.17435509
v -1.4732511 6.99205637 0.08285397
v -0.27538085 5.738788 -0.14571625
v -0.222453 5.805333 -0.2403498
v -1.37773764 7.06424 0.116436929
v -1.45226932 7.00243139 0.17435509
v -1.66314793 8.430956 0.103443444
v -1.609307 8.444092 0.122374058
v -1.37773764 7.06424 0.116436929
v -1.4732511 6.99205637 0.08285397
v -1.65132034 8.436804 0.155022442
v -1.66314793 8.430956 0.103443444
v -1.4732511 6.99205637 0.08285397
v -1.45226932 7.00243139 0.17435509
v -1.609307 8.444092 0.122374058
v -1.65132034 8.436804 0.155022442
v -1.45226932 7.00243139 0.17435509
v -1.37773764 7.06424 0.116436929
v 0.3216859 7.372326 0.483389527
v 0.127290964 7.23277569 0.614503264
v 0.127290964 7.23277569 0.614503264
v -0.0153127909 7.0908556 0.453255564
v 0.12602663 7.372326 0.3445237
v 0.3216859 7.372326 0.483389527
v -0.0153127909 7.0908556 0.453255564
v 0.12602663 7.372326 0.3445237
v -0.5131112 5.1812005 0.221669614
v -0.328962922 5.25108957 0.2607005
v -0.111875176 4.61372232 -0.103880793
v -0.31832397 4.363226 -0.180680513
v -0.5635148 5.170623 0.463130146
v -0.5131112 5.1812005 0.221669614
v -0.31832397 4.363226 -0.180680513
v -0.3141209 4.41225338 0.1805726
v -0.328962922 5.25108957 0.2607005
v -0.368657768 5.219596 0.4462352
v 0.00689411163 4.461226 0.1539683
v -0.111875176 4.61372232 -0.103880793
v -0.368657768 5.219596 0.4462352
v -0.5635148 5.170623 0.463130146
v -0.3141209 4.41225338 0.1805726
v 0.00689411163 4.461226 0.1539683
v -0.773166358 6.0591855 0.455983967
v -0.5890181 6.129076 0.495014817
v -0.79531455 6.048609 0.6641414
v -0.773166358 6.0591855 0.455983967
v -0.5131112 5.1812005 0.221669614
v -0.5635148 5.170623 0.463130146
v -0.612649858 6.09758043 0.71896255
v -0.79531455 6.048609 0.6641414
v -0.5635148 5.170623 0.463130146
v -0.368657768 5.219596 0.4462352
v -0.5890181 6.129076 0.495014817
v -0.612649858 6.09758043 0.71896255
v -0.8768401 6.707182 1.50074685
v -0.7826589 6.79954338 1.5071677
v -0.5890181 6.129076 0.495014817
v -0.79531455 6.048609 0.6641414
v -0.744217336 6.65991 1.54054952
v -0.8768401 6.707182 1.50074685
v -0.7826589 6.79954338 1.5071677
v -0.744217336 6.65991 1.54054952
v -0.612649858 6.09758043 0.71896255
v -0.5890181 6.129076 0.495014817
v -1.03396928 6.59944773 2.60202622
v -0.957994938 6.67837763 2.62146068
v -0.957994938 6.67837763 2.62146068
v -0.9396719 6.59277153 2.62221551
v -1.10433149 6.906115 0.134013623
v -1.03233147 6.93344164 0.14927429
v -1.10415208 6.959018 0.175184488
v -1.10433149 6.906115 0.134013623
v -0.79531455 6.048609 0.6641414
v -0.5890181 6.129076 0.495014817
v -1.03233147 6.93344164 0.14927429
v -1.10415208 6.959018 0.175184488
v -1.03233147 6.93344164 0.14927429
v -1.10433149 6.906115 0.134013623
v -1.10272753 7.660269 -0.809859157
v -1.10272753 7.660269 -0.809859157
v -1.10272753 7.660269 -0.809859157
v 0.5275258 8.405479 0.8830755
v 0.39117527 8.405058 0.97503984
v 0.127290964 7.23277569 0.614503264
v 0.3216859 7.372326 0.483389527
v 0.390288353 8.502939 0.7856736
v 0.5275258 8.405479 0.8830755
v 0.3216859 7.372326 0.483389527
v 0.12602663 7.372326 0.3445237
v 0.39117527 8.405058 0.97503984
v 0.390288353 8.502939 0.7856736
v 0.12602663 7.372326 0.3445237
v 0.127290964 7.23277569 0.614503264
v 1.043311 9.34844 1.35617125
v 0.9789394 9.421238 1.42724073
v 0.980584741 9.489893 1.30535543
v 1.043311 9.34844 1.35617125
v 0.5275258 8.405479 0.8830755
v 0.390288353 8.502939 0.7856736
v 0.9789394 9.421238 1.42724073
v 0.980584741 9.489893 1.30535543
v 1.8218931 9.82406 1.62144363
v 1.783233 9.867779 1.6641258
v 0.9789394 9.421238 1.42724073
v 1.043311 9.34844 1.35617125
v 1.78422129 9.90901 1.59092546
v 1.8218931 9.82406 1.62144363
v 1.043311 9.34844 1.35617125
v 0.980584741 9.489893 1.30535543
v 1.783233 9.867779 1.6641258
v 1.78422129 9.90901 1.59092546
v -1.15442359 6.57574368 -0.7590941
v -1.04852879 6.652772 -0.834079266
v -1.05211747 6.674802 -0.6972676
v -1.15442359 6.57574368 -0.7590941
v -1.04852879 6.652772 -0.834079266
v -1.05211747 6.674802 -0.6972676
v -0.345960617 5.13819265 -0.236549556
v -0.364118457 5.10679531 -0.470814258
v -2.63647556 8.646299 -1.75557208
v -2.585648 8.683271 -1.79156387
v -1.04852879 6.652772 -0.834079266
v -1.15442359 6.57574368 -0.7590941
v -2.58737 8.693844 -1.72589624
v -2.63647556 8.646299 -1.75557208
v -2.585648 8.683271 -1.79156387
v -2.58737 8.693844 -1.72589624
v -1.04682684 8.245335 0.8789946
v -1.04624891 8.181538 1.00241888
v 0.127290964 7.23277569 0.614503264
v 0.12602663 7.372326 0.3445237
v -1.126835 8.104494 0.9400779
v -1.04682684 8.245335 0.8789946
v 0.12602663 7.372326 0.3445237
v -0.0153127909 7.0908556 0.453255564
v -1.04624891 8.181538 1.00241888
v -1.126835 8.104494 0.9400779
v -0.0153127909 7.0908556 0.453255564
v 0.127290964 7.23277569 0.614503264
v -1.7830025 10.10075 1.16105974
v -1.7830025 10.10075 1.16105974
v -1.7830025 10.10075 1.16105974
v -0.111875176 4.61372232 -0.103880793
v 0.00689411163 4.461226 0.1539683
v 0.1463244 5.7098155 0.4593217
v -0.0313555 5.74929762 0.235572547
v 0.290160537 4.54352665 0.13748154
v 0.4459622 5.83786726 0.334203333
v 0.1463244 5.7098155 0.4593217
v -0.0260326862 4.628872 -0.310667545
v 0.05044973 5.755072 -0.0597761869
v 0.217020154 4.63199854 -0.269707322
v -0.0260326862 4.628872 -0.310667545
v 0.05044973 5.755072 -0.0597761869
v 0.247815609 4.426854 -0.5548339
v -0.144892335 4.363226 -0.549974442
v -0.0117622614 5.606195 -1.05999732
v 0.169040084 5.6049366 -1.05171287
v -0.144892335 4.363226 -0.549974442
v -0.0260326862 4.628872 -0.310667545
v -0.0236371756 5.704655 -0.9314467
v -0.0117622614 5.606195 -1.05999732
v -0.0260326862 4.628872 -0.310667545
v 0.217020154 4.63199854 -0.269707322
v 0.15195334 5.706914 -0.9018557
v -0.0236371756 5.704655 -0.9314467
v 0.217020154 4.63199854 -0.269707322
v 0.169040084 5.6049366 -1.05171287
v 0.15195334 5.706914 -0.9018557
v 0.169040084 5.6049366 -1.05171287
v -0.0117622614 5.606195 -1.05999732
v -0.136468768 6.37456226 -2.087626
v -0.00332772732 6.37363672 -2.08152533
v -0.0117622614 5.606195 -1.05999732
v -0.0236371756 5.704655 -0.9314467
v -0.09404755 6.49821138 -2.05177069
v -0.136468768 6.37456226 -2.087626
v -0.0236371756 5.704655 -0.9314467
v 0.169040084 5.6049366 -1.05171287
v -0.00332772732 6.37363672 -2.08152533
v -0.09404755 6.49821138 -2.05177069
v -0.136468768 6.37456226 -2.087626
v -0.09404755 6.49821138 -2.05177069
v -0.05359614 6.55508041 -3.109112
v -0.05359614 6.55508041 -3.109112
v 0.169040084 5.6049366 -1.05171287
v -0.0236371756 5.704655 -0.9314467
v 0.3645531 6.434646 -1.19781947
v 0.5572305 6.43396473 -1.31808555
v -0.0236371756 5.704655 -0.9314467
v 0.15195334 5.706914 -0.9018557
v 0.5401437 6.435502 -1.16822839
v 0.3645531 6.434646 -1.19781947
v 0.5572305 6.43396473 -1.31808555
v 0.5401437 6.435502 -1.16822839
v 0.5572305 6.43396473 -1.31808555
v 0.3645531 6.434646 -1.19781947
v 1.93645036 9.483978 -1.15525711
v 2.03603125 9.483627 -1.217414
v 0.3645531 6.434646 -1.19781947
v 0.5401437 6.435502 -1.16822839
v 2.0272007 9.484421 -1.13996375
v 1.93645036 9.483978 -1.15525711
v 0.5401437 6.435502 -1.16822839
v 0.5572305 6.43396473 -1.31808555
v 2.03603125 9.483627 -1.217414
v 2.0272007 9.484421 -1.13996375
v 0.217149019 5.91435528 0.19287765
v -0.0313555 5.74929762 0.235572547
v -0.08353293 6.984833 1.07689416
v 0.16497159 7.14989042 1.03419912
v 0.09414697 6.945351 1.30064344
v -0.08353293 6.984833 1.07689416
v 0.4459622 5.83786726 0.334203333
v 0.217149019 5.91435528 0.19287765
v 0.16497159 7.14989042 1.03419912
v 0.3178295 7.0734024 1.17552483
v 0.1463244 5.7098155 0.4593217
v 0.4459622 5.83786726 0.334203333
v 0.3178295 7.0734024 1.17552483
v 0.09414697 6.945351 1.30064344
v 0.16497159 7.14989042 1.03419912
v 0.09414697 6.945351 1.30064344
v 0.466430545 8.874233 1.48094988
v 0.506947756 8.908054 1.32852256
v 0.3178295 7.0734024 1.17552483
v 0.16497159 7.14989042 1.03419912
v 0.506947756 8.908054 1.32852256
v 0.594394565 8.864296 1.40937209
v 0.09414697 6.945351 1.30064344
v 0.3178295 7.0734024 1.17552483
v 0.594394565 8.864296 1.40937209
v 0.466430545 8.874233 1.48094988
v 0.594394565 8.864296 1.40937209
v 0.506947756 8.908054 1.32852256
v 0.6751281 11.0781784 1.29632258
v 0.6751281 11.0781784 1.29632258
v 0.466430545 8.874233 1.48094988
v 0.594394565 8.864296 1.40937209
v 0.6751281 11.0781784 1.29632258
v -0.6245176 7.99935436 1.85932982
v -0.495678723 8.130899 1.83719432
v -0.08353293 6.984833 1.07689416
v 0.09414697 6.945351 1.30064344
v -0.5323983 8.024856 1.97533429
v -0.6245176 7.99935436 1.85932982
v 0.09414697 6.945351 1.30064344
v 0.16497159 7.14989042 1.03419912
v -0.495678723 8.130899 1.83719432
v -0.5323983 8.024856 1.97533429
v 0.686435342 8.284739 -1.07114136
v 1.12758338 8.185064 -0.457591236
v 1.804706 8.278551 -0.9679687
v 1.17188919 8.381533 -1.63392556
v -3.42003536 9.273994 0.4002553
v -3.63529348 9.113127 1.43640518
v -2.70270586 9.675455 1.55964863
v -2.55097771 9.819468 0.426494867
v -1.69346237 9.730221 1.67614031
v -1.54378474 9.876942 0.452924937
v -2.273758 8.489983 0.280839771
v -1.58493745 8.39031 0.5916157
v -1.2537204 8.483795 -0.188945532
v -2.134735 8.586777 -0.449272633
v -1.56976354 10.04443 1.75475812
v -1.32020485 10.0536728 1.04147267
v -2.12666273 10.1471577 0.7795464
v -2.309214 10.1412239 1.67989731
v 1.16193378 10.7296028 1.1151824
v 0.519565463 10.7111263 0.705290556
v 0.0936723948 10.889286 1.422643
v 0.932001948 10.8817272 1.81214058
v 0.09923267 10.573082 1.33488679
v 0.622284532 10.35141 1.84308684
v 1.20474422 10.766016 1.37772429
v 0.4875915 10.9693661 0.831004739
v -1.84046006 9.243589 0.7143905
v -1.96236622 9.143917 1.46017492
v -1.12267709 9.237402 1.578082
v -1.09924376 9.340384 0.6597097
v -0.608166158 6.51379728 -3.27489376
v -0.167017817 6.78406858 -2.71513319
v 0.510104656 6.567907 -3.18683052
v -0.122712255 6.270287 -3.79141855
v -0.5112657 6.459724 -1.98376441
v 0.220042229 6.48564768 -1.77044189
v 0.421818852 6.61474848 -2.58918428
v -0.490810752 6.560799 -2.72614336
v -3.36437654 8.812258 -1.20186746
v -2.10775042 8.641224 -0.881942153
v -1.78061831 8.801641 -2.29969049
v -3.34699726 8.978352 -2.47709584
v -1.08070147 7.688209 -1.2306602
v -1.7303654 7.58853674 -0.8446648
v -1.28094542 7.682022 -0.125636488
v -0.56236887 7.785003 -0.6980036
v -3.2323246 7.075168 -0.6052125
v -3.44758224 6.914301 0.430937141
v -2.514995 7.47662926 0.554180741
v -2.363267 7.62064171 -0.5789728
v -1.50575149 7.531396 0.6706724
v -1.35607409 7.678116 -0.5525427
v -3.14507866 7.71973228 0.616262436
v -2.56462049 7.558865 1.501141
v -1.818035 8.121193 0.9288486
v -2.51200771 8.265205 0.02030009
v -1.26245153 8.140322 0.535780549
v -2.02155733 8.287041 -0.435001135
v -3.22125387 8.445749 -1.963732
v -3.448697 8.062824 -1.20681262
v -2.51350069 8.091759 -0.7762538
v -2.181055 8.375954 -1.600068
v -1.81585634 8.313713 -2.50504661
v -2.78331757 8.280682 -2.80320263
v -4.527752 7.546783 -2.57510042
v -4.763166 7.10385656 -1.75204051
v -3.96883631 7.366383 -3.33840871
v 0.06244576 9.137711 0.909536958
v -0.113824725 8.909817 1.464321
v 0.599858165 8.931126 1.72015214
v 1.000687 9.09457 0.4071547
v 0.271832824 9.070246 0.25052318
v -0.67650795 8.462591 0.0536237359
v -1.11309683 8.283388 1.1487112
v 0.281419873 7.52509928 -1.19811165
v -0.748622537 7.364232 -0.9553058
v -0.466190755 7.92656 -0.0580093563
v 0.6249181 8.070573 -0.399388433
v -0.1452434 7.981326 0.9059073
v 1.02662218 8.128048 0.524608254
v 1.02247107 8.044712 -0.0287679136
v 0.881952643 7.94503975 -0.7712703
v 0.0525761843 8.038525 -0.5948759
v 0.34465754 8.141506 0.276126176
v -1.80153883 8.447489 -2.50074363
v -2.15278864 8.276455 -3.74897671
v -3.54416037 8.436871 -3.323407
v -2.914609 8.613583 -1.87818027
v 0.352721572 6.71751 -0.5788492
v -0.296942472 6.617838 -0.1928539
v 0.1524775 6.71132326 0.5261744
v 0.8710543 6.814305 -0.04619272
v -0.795562148 6.30189228 1.701236
v -1.39092624 6.41316748 1.04862285
v -1.83809209 5.99169 1.549993
v -1.33169925 5.867391 2.192031
v -0.3943771 6.31667233 1.36125982
v -1.044068 6.430039 0.665130138
v -1.05021179 8.249628 0.8785472
v -1.04192054 8.167967 1.02923846
v 0.131619334 7.21920538 0.641323
v 0.122641563 7.37662 0.344076365
v -1.14343762 8.090923 0.918835044
v -0.0319151878 7.077285 0.432012647
v -1.03396928 6.608634 2.60202622
v -0.957994938 6.68756342 2.62146068
v -0.7826589 6.80872965 1.5071677
v -0.8768401 6.716368 1.50074685
v -0.9396719 6.601958 2.62221551
v -0.744217336 6.66909647 1.54054952
v 1.8218931 9.82406 1.62144363
v 1.043311 9.34844 1.35617125
v 0.980584741 9.489893 1.30535543
v 1.783233 9.867779 1.6641258
v 0.980584741 9.489893 1.30535543
v 0.9789394 9.421238 1.42724073
v 1.78906524 9.915461 1.58942831
v 1.826737 9.830509 1.59107924
v 1.04815519 9.354891 1.32580686
v 0.9854287 9.496342 1.30385828
v 1.78807724 9.874228 1.66262853
v 0.983783364 9.427687 1.42574358
v -1.0560919 8.492094 2.678243
v -1.15660357 8.385069 2.69362569
v -1.0560919 8.492094 2.678243
v -1.017731 8.365572 2.7028358
v -1.05392 8.510487 2.67498326
v -0.495678723 8.16338348 1.83719432
v -0.637568 8.008095 1.85110462
v -1.17452765 8.384258 2.69304228
v -0.5187501 8.00573 1.97216856
v -1.01313949 8.348761 2.7060833
vt -0.8845082 0.523427546
vt -0.9137545 0.417835653
vt -0.8249103 0.433099747
vt -0.76793915 0.525162041
vt -0.807305 0.3812281
vt -0.982387841 0.3812281
vt -0.881602168 0.315144241
vt -0.795851052 0.9702937
vt -0.669456661 0.9702937
vt -0.647784233 0.3812281
vt -0.8072284 0.3812281
vt -0.71493715 0.971882164
vt -0.7951838 0.971882164
vt -0.8075704 0.381629348
vt -0.71493715 0.381629348
vt -0.8032459 0.647940934
vt -0.651666045 0.647940934
vt -0.669806063 0.968924463
vt -0.7961324 0.970275164
vt 0.297314644 0.292485356
vt 0.221432209 0.292485356
vt 0.205914974 0.0247047544
vt 0.28771925 0.0247047544
vt -0.731652856 0.6541673
vt -0.825152 0.6541673
vt -0.793929338 0.9725168
vt -0.7142246 0.9725168
vt 0.326185316 -0.605938435
vt 0.240117654 -0.572273731
vt 0.240766153 -0.890623331
vt 0.332828134 -0.864604
vt 1.20512843 1.74531126
vt 1.18150687 1.72858429
vt 1.20432806 1.71479273
vt 0.125404328 0.361232758
vt 0.079549 0.0195611715
vt 0.242070988 0.0195611715
vt 0.215352982 0.361232758
vt 1.29407442 1.26106215
vt 1.22369456 1.24341547
vt 1.16409969 1.02972949
vt 1.27279806 1.02972949
vt -0.668575644 0.9704925
vt -0.7956632 0.969243944
vt -0.8072284 0.3812281
vt -0.647784233 0.3812281
vt 1.25198984 0.214599609
vt 1.18977547 0.201573849
vt 1.14234447 0.0140672922
vt 1.21627426 0.0194834471
vt 0.250387967 0.2364803
vt 0.206913784 0.231550872
vt 0.14820464 0.0105327964
vt 0.217913464 0.0217579
vt 0.249936 0.7118539
vt 0.193584234 0.7118539
vt 1.25624728 0.4321568
vt 1.22241378 0.4321568
vt 0.193476841 0.7131708
vt 0.250382453 0.7131708
vt 0.52318275 1.17357254
vt 0.483366072 1.17211473
vt 0.340770155 0.74462074
vt 0.3080567 0.7409117
vt 1.22218263 0.43230176
vt 1.25615525 0.432084024
vt 1.27487576 0.9562331
vt 1.24502122 0.9602927
vt 0.341049939 0.215224743
vt 0.319013834 0.212223887
vt 0.306420267 0.709030151
vt 0.3472256 0.709030151
vt 1.20641756 0.69378686
vt 1.18797731 0.691696167
vt 1.1806159 0.1772666
vt 1.21332932 0.180975914
vt 1.26278472 0.496399581
vt 1.24776435 0.499005258
vt 1.24358428 0.9607022
vt 1.27512789 0.9561545
vt -0.778885663 0.289295077
vt -0.6682251 0.289295077
vt 0.2765181 0.496481538
vt 0.225534663 0.496481538
vt -0.7664897 0.4304031
vt -0.8402107 0.4304031
vt 0.4259177 -0.443986416
vt 0.387044519 -0.343356133
vt 0.258556217 0.2855314
vt 0.18849656 0.292626977
vt 0.172505587 0.0144681334
vt 0.2669782 0.0144681334
vt -0.543474257 0.970353842
vt -0.6696247 0.970353842
vt -0.6494818 0.3812281
vt -0.4812204 0.3812281
vt -0.746444464 0.2898965
vt -0.823766768 0.313528776
vt -0.831204355 0.0178389549
vt -0.7246148 0.0282914639
vt -0.6697602 0.9701989
vt -0.543306947 0.9701989
vt -0.480915546 0.3812281
vt -0.5567711 0.3812281
vt 0.267120659 0.612793
vt 0.197060972 0.6198888
vt -0.509269357 0.6978351
vt -0.634166658 0.6940533
vt -0.669331849 0.969856262
vt -0.5444346 0.9736378
vt -0.6688831 0.6825887
vt -0.5389871 0.6825887
vt -0.5389871 0.970367968
vt -0.6688831 0.970367968
vt -0.689709663 0.6176618
vt -0.767032 0.6176618
vt 0.184070259 0.486344576
vt 0.133782238 0.498572946
vt 0.170217484 0.0267930031
vt 0.262865156 0.0267930031
vt -0.6688831 0.360084236
vt -0.5389871 0.360084236
vt -0.670895934 0.340454876
vt -0.7216672 0.33408308
vt -0.769298 0.6184228
vt -0.692012 0.6184228
vt 0.342142552 0.89465344
vt 0.2931607 0.9134565
vt -0.6473412 0.00752174854
vt -0.6840531 0.009961128
vt 0.298957378 0.95752126
vt 0.273216277 0.95752126
vt -0.529951155 0.3595307
vt -0.587955 0.3595307
vt 0.0497020744 0.0169799328
vt 0.175505981 0.0453965664
vt 0.134888008 0.497596025
vt 0.102288887 0.515664458
vt 0.272998929 0.9574947
vt 0.2986379 0.9574947
vt 0.2983997 0.6165126
vt -0.5838411 0.00991708
vt 0.4257171 0.9743016
vt 0.09625421 0.489108026
vt 0.0322559327 0.488929152
vt 0.0257434063 0.02603048
vt 0.119163685 0.02603048
vt -0.78356874 0.8156755
vt -0.8366623 0.8156755
vt -0.8417338 0.4305324
vt -0.766038239 0.4305324
vt 0.204347074 0.373288631
vt 0.1471382 0.403548241
vt 0.005594969 0.05402559
vt 0.08715786 0.0108844638
vt 0.159375519 0.9559093
vt 0.122147821 0.9559093
vt -0.7795302 0.509134352
vt -0.8392075 0.509134352
vt -0.836807847 0.8163031
vt -0.783531845 0.8163031
vt 0.365941226 0.719352
vt 0.329202354 0.7406668
vt 0.164853156 0.6227323
vt 0.1282087 0.6281732
vt 0.1217681 0.955798566
vt 0.158987582 0.956195831
vt -0.7903642 0.256392837
vt -0.836595 0.259931326
vt -0.839332759 0.5086486
vt -0.780553341 0.5086486
vt 0.5074994 0.970531046
vt 0.4786041 0.987295151
vt -0.6849522 0.390335083
vt -0.774678349 0.385415435
vt 1.35037661 1.86300313
vt 1.30031478 1.85087025
vt 0.249214634 0.423946023
vt 0.212985635 0.429779649
vt 0.0362796448 0.02591163
vt 0.08791226 0.0175973177
vt -0.531686246 0.9662599
vt -0.6053265 0.966786563
vt -0.774045765 0.385828018
vt -0.685187042 0.3889587
vt 1.34465063 1.26311982
vt 1.27607656 1.23940611
vt 0.51761204 0.980572641
vt 0.4950073 0.9842122
vt 0.1833473 0.46809113
vt 0.123425648 0.451738
vt 0.124245547 0.01557678
vt 0.199240476 0.01557678
vt 0.3954115 0.536496162
vt 0.315495 0.566216648
vt 0.185509 0.0938586
vt 0.2726093 0.05628097
vt 0.280507177 0.711086631
vt 0.3063666 0.711086631
vt 0.278585821 0.49638474
vt 0.227253184 0.49638474
vt 0.210319281 0.967283368
vt 0.249026358 0.9400978
vt 0.241123036 0.9955629
vt 0.0208786428 0.0711168051
vt 0.113063663 0.0165969133
vt 0.2222322 0.462987781
vt 0.142238468 0.4771031
vt -0.648167133 0.3812281
vt -0.6697602 0.9701989
vt -0.543306947 0.9701989
vt 0.113063663 0.0165969133
vt 0.2222322 0.462987781
vt -0.71493715 0.379502177
vt -0.6274724 0.379502177
vt -0.598769069 0.971882164
vt -0.9830238 0.381873727
vt -0.8075464 0.381873727
vt -0.8239073 0.0273033977
vt -0.935568333 0.0273033977
vt -0.806461 0.0121210814
vt -0.7309876 0.0121210814
vt -0.7898463 0.381208122
vt -0.865319669 0.381208122
vt -0.7309876 0.381208062
vt -0.657531857 0.381208062
vt -0.71639055 0.0121210814
vt -0.7898463 0.0121210814
vt -0.8553255 0.3812281
vt -0.9481297 0.0115942359
vt -0.8822705 0.0115942359
vt -0.93660593 0.0269916654
vt -0.8238121 0.0271340013
vt -0.822886944 0.375579953
vt -0.9338471 0.375475049
vt -0.8666832 0.380072236
vt -0.788779736 0.380072236
vt -0.788779736 0.927256346
vt -0.8666832 0.927256346
vt -0.7888868 0.0438667536
vt -0.712065458 0.0438667536
vt -0.7042266 0.593400359
vt -0.7888868 0.593400359
vt -0.8675183 0.9276715
vt -0.78526473 0.928612232
vt -0.845221 0.558152
vt -0.712065458 0.0438667536
vt 0.185043544 0.01628846
vt 0.2539284 0.01628846
vt 0.2624849 0.27119267
vt 0.156221241 0.27119267
vt 0.253438741 0.01628846
vt 0.31621483 0.01628846
vt 0.360309631 0.405397952
vt 0.2624849 0.405092061
vt -0.9555874 0.2864852
vt -0.889543831 0.2864852
vt 0.15825294 0.27119267
vt 0.259355247 0.27119267
vt 0.2530859 0.983304739
vt 0.162166208 0.983145
vt 0.295110047 0.9724209
vt 0.360131025 0.972115
vt 0.359387457 0.0437924862
vt 0.289120555 0.04399395
vt -0.9549985 0.2864852
vt -0.889748931 0.2864852
vt -0.9070771 0.990133464
vt -0.949935257 0.990494668
vt 0.03727707 0.01997006
vt 0.0983551741 0.01997006
vt 0.186364651 0.3687297
vt 0.125286534 0.417989016
vt 0.514552534 0.968676448
vt 0.434558749 0.968676448
vt -0.847229838 0.0108861923
vt -0.7897214 0.0108861923
vt -0.7619358 0.3409928
vt -0.8074118 0.347537279
vt -0.543264747 0.9703463
vt -0.670396447 0.9703463
vt -0.6160314 0.5133626
vt -0.5211266 0.5133626
vt -0.821956038 0.01647669
vt -0.7266978 0.01647669
vt -0.601319 0.435575128
vt -0.6558139 0.44367373
vt -0.807702 0.3487419
vt -0.762476265 0.340496659
vt -0.7323315 0.993816257
vt -0.763595343 0.993816257
vt -0.521133959 0.513467848
vt -0.6159023 0.513467848
vt -0.936612964 0.0412473679
vt -0.8823979 0.0376946926
vt -0.7637682 0.9936577
vt -0.732504368 0.9936577
vt -0.7879448 0.199626684
vt -0.705871 0.974165857
vt -0.8821751 0.0379449129
vt -0.938154757 0.0415986776
vt -0.856025159 0.835899055
vt 0.352286935 0.6718739
vt 0.320620537 0.6718739
vt 0.433659941 0.968671858
vt 0.514563739 0.968671858
vt 0.502929032 0.581702232
vt 0.4609839 0.5741461
vt -0.8401688 0.0150870681
vt -0.721103251 0.0150870681
vt -0.6971728 0.358074427
vt -0.758903146 0.366188169
vt -0.0199706852 0.7150605
vt -0.453193933 0.7150605
vt -0.453193933 1.00072145
vt -0.0199706852 1.00072145
vt -0.0199706852 0.157384038
vt -0.453193933 0.157384038
vt -0.453193933 0.444984436
vt -0.0199706852 0.43611908
vt -0.453193933 0.716061831
vt -0.0199706852 0.716061831
vt -0.0199706852 0.7150605
vt -0.453193933 0.7150605
vt -0.453193933 1.00072145
vt -0.0199706852 1.00072145
vt -0.0199706852 0.7150605
vt -0.453193933 0.7150605
vt -0.453193933 1.00072145
vt -0.0199706852 1.00072145
vt -0.0199706852 0.7150605
vt -0.453193933 0.7150605
vt -0.453193933 1.00072145
vt -0.0199706852 1.00072145
vt -0.0199706852 0.7150605
vt -0.453193933 0.7150605
vt -0.453193933 1.00072145
vt -0.0199706852 1.00072145
vt -0.0199706852 0.7150605
vt -0.453193933 0.7150605
vt -0.453193933 1.00072145
vt -0.0199706852 1.00072145
vt -0.0199706852 0.7150605
vt -0.453193933 0.7150605
vt -0.453193933 1.00072145
vt -0.0199706852 1.00072145
vt -0.0199706852 0.7150605
vt -0.453193933 0.7150605
vt -0.453193933 1.00072145
vt -0.0199706852 1.00072145
vt -0.0199706852 0.7150605
vt -0.453193933 0.7150605
vt -0.453193933 1.00072145
vt -0.0199706852 1.00072145
vt -0.0199706852 0.7150605
vt -0.453193933 0.7150605
vt -0.453193933 1.00072145
vt -0.0199706852 1.00072145
vt -0.0199706852 0.157384038
vt -0.453193933 0.157384038
vt -0.453193933 0.444984436
vt -0.0199706852 0.43611908
vt -0.453193933 0.716061831
vt -0.0199706852 0.716061831
vt -0.0199706852 0.157384038
vt -0.453193933 0.157384038
vt -0.453193933 0.4248699
vt -0.0199706852 0.4166584
vt -0.453193933 0.6759573
vt -0.0199706852 0.6759573
vt -0.247783557 0.42097646
vt -0.453193933 0.4248699
vt -0.453193933 0.6759573
vt -0.2467519 0.6759573
vt -0.0199706852 0.6759573
vt -0.0199706852 0.4166584
vt -0.208541676 0.157384038
vt -0.453193933 0.157384038
vt -0.0199706852 0.157384038
vt -0.255182922 0.4211167
vt -0.453193933 0.4248699
vt -0.453193933 0.6759573
vt -0.0199706852 0.6759573
vt -0.0199706852 0.4166584
vt -0.0199706852 0.157384038
vt -0.453193933 0.157384038
vt -0.0199706852 0.157384038
vt -0.453193933 0.157384038
vt -0.453193933 0.444984436
vt -0.0199706852 0.43611908
vt -0.453193933 0.716061831
vt -0.0199706852 0.716061831
vt -0.0199706852 0.7150605
vt -0.453193933 0.7150605
vt -0.453193933 1.00072145
vt -0.0199706852 1.00072145
vt -0.0199706852 0.7150605
vt -0.453193933 0.7150605
vt -0.453193933 1.00072145
vt -0.0199706852 1.00072145
vt -0.0199706852 0.7150605
vt -0.453193933 0.7150605
vt -0.453193933 1.00072145
vt -0.0199706852 1.00072145
vt -0.453193933 0.444984436
vt -0.0199706852 0.43611908
vt -0.0199706852 0.157384038
vt -0.453193933 0.157384038
vt -0.453193933 0.716061831
vt -0.0199706852 0.716061831
vt -0.9964485 1.2956382
vt -0.9964485 1.11143291
vt -0.364460737 1.11143291
vt -0.364460737 1.2956382
vt -0.9964485 1.11143291
vt -0.364460737 1.11143291
vt -0.010878548 0.7758348
vt -0.010878548 0.9270226
vt -0.6428664 0.9270226
vt -0.6428664 0.7758348
vt -0.010878548 0.7758348
vt -0.6428664 0.7758348
vt -0.836595 0.259931326
vt -0.839332759 0.5086486
vt -0.780553341 0.5086486
vt 0.5074994 0.970531046
vt 0.329202354 0.7406668
vt 0.365941226 0.719352
vt -0.9966699 1.2956382
vt -0.9966699 1.1120491
vt -0.364682078 1.1120491
vt -0.364682078 1.2956382
vt -0.9966699 1.1120491
vt -0.364682078 1.1120491
vt 0.303385377 0.8150104
vt 0.324654758 0.8175335
vt -0.758227 0.642705858
vt -0.8081763 0.6179237
vt -0.7107874 1.2956382
vt -0.9967368 1.2956382
vt -0.9967368 1.11064529
vt -0.7019391 1.11064529
vt -0.9967368 1.11064529
vt -0.734962642 1.11064529
vn -0.5751095 0.498832375 -0.648394465
vn -0.976162553 0.21090582 0.0512384139
vn -0.6056531 0.646332443 -0.4641537
vn 0.13702108 0.2614383 -0.955445051
vn 0.9404702 0.136574224 -0.311228573
vn 0.7191123 -0.0662418455 -0.691729367
vn 0.7400777 0.475084871 -0.476003557
vn 0.9713426 -0.0961841345 -0.21735248
vn 0.766611636 -0.131937966 0.628409863
vn 0.5546558 -0.189604744 0.8101895
vn 0.9404702 0.136574224 -0.311228573
vn 0.13702108 0.2614383 -0.955445051
vn 0.9713426 -0.0961841345 -0.21735248
vn 0.9404702 0.136574224 -0.311228573
vn 0.7400777 0.475084871 -0.476003557
vn 0.952916861 0.226500377 -0.201611042
vn 0.249316141 -0.165933773 0.9541003
vn 0.766611636 -0.131937966 0.628409863
vn 0.9713426 -0.0961841345 -0.21735248
vn 0.249316141 -0.165933773 0.9541003
vn -0.9589788 -0.256172538 0.12138918
vn -0.6056531 0.646332443 -0.4641537
vn 0.766611636 -0.131937966 0.628409863
vn -0.115596853 0.2147492 -0.969804168
vn 0.952916861 0.226500377 -0.201611042
vn 0.9713426 -0.0961841345 -0.21735248
vn 0.13702108 0.2614383 -0.955445051
vn -0.9589788 -0.256172538 0.12138918
vn -0.115596853 0.2147492 -0.969804168
vn 0.13702108 0.2614383 -0.955445051
vn -0.6056531 0.646332443 -0.4641537
vn 0.0588508174 0.527871549 -0.8472828
vn -0.9831274 -0.108709171 -0.1471148
vn -0.039521724 0.866526842 0.4975633
vn 0.8612412 0.3242735 -0.391293049
vn -0.02756033 0.9797262 -0.198436365
vn -0.587334931 -0.1833392 -0.788304746
vn -0.260735065 0.02343943 -0.9651258
vn -0.06352961 0.267250448 0.9615306
vn -0.9702062 -0.1884665 0.152250692
vn -0.977916 -0.079339616 -0.193353325
vn -0.5249079 0.8439842 0.110283382
vn -0.9702062 -0.1884665 0.152250692
vn -0.260735065 0.02343943 -0.9651258
vn -0.587334931 -0.1833392 -0.788304746
vn -0.977916 -0.079339616 -0.193353325
vn 0.8612412 0.3242735 -0.391293049
vn -0.06352961 0.267250448 0.9615306
vn -0.5249079 0.8439842 0.110283382
vn -0.02756033 0.9797262 -0.198436365
vn 0.175534144 -0.3015596 0.9371497
vn -0.6665207 0.03220087 -0.744790733
vn -0.260735065 0.02343943 -0.9651258
vn -0.06352961 0.267250448 0.9615306
vn -0.6665207 0.03220087 -0.744790733
vn 0.8498429 0.4291443 -0.30594486
vn 0.8498429 0.4291443 -0.30594486
vn 0.175534144 -0.3015596 0.9371497
vn 0.8498429 0.4291443 -0.30594486
vn -0.6665207 0.03220087 -0.744790733
vn -0.7500356 -0.279713452 -0.5993388
vn 0.902982235 0.41407302 -0.114745915
vn -0.3969701 -0.2505425 0.8829741
vn -0.7500356 -0.279713452 -0.5993388
vn 0.175534144 -0.3015596 0.9371497
vn 0.8498429 0.4291443 -0.30594486
vn 0.902982235 0.41407302 -0.114745915
vn -0.3969701 -0.2505425 0.8829741
vn -0.6650422 -0.075193435 -0.74301064
vn 0.9797125 0.1614773 -0.118695132
vn 0.902982235 0.41407302 -0.114745915
vn -0.7500356 -0.279713452 -0.5993388
vn -0.285280526 -0.0266761184 0.9580728
vn -0.6650422 -0.075193435 -0.74301064
vn -0.7500356 -0.279713452 -0.5993388
vn -0.3969701 -0.2505425 0.8829741
vn 0.9797125 0.1614773 -0.118695132
vn -0.285280526 -0.0266761184 0.9580728
vn -0.3969701 -0.2505425 0.8829741
vn 0.902982235 0.41407302 -0.114745915
vn 0.990401149 0.1381638 -0.00403515249
vn 0.08081958 -0.169231147 0.9822571
vn 0.08081958 -0.169231147 0.9822571
vn -0.8284336 -0.5594695 0.0262993
vn -0.206575 0.5681784 -0.796555161
vn 0.990401149 0.1381638 -0.00403515249
vn -0.8284336 -0.5594695 0.0262993
vn -0.206575 0.5681784 -0.796555161
vn -0.6472139 0.149520189 -0.747501135
vn 0.727466166 0.489304572 -0.481013536
vn -0.5249079 0.8439842 0.110283382
vn -0.977916 -0.079339616 -0.193353325
vn -0.668768 -0.386078864 0.635368
vn -0.6472139 0.149520189 -0.747501135
vn -0.977916 -0.079339616 -0.193353325
vn -0.6198478 -0.440914631 0.6491402
vn 0.727466166 0.489304572 -0.481013536
vn 0.652220964 -0.01793229 0.757816732
vn 0.109223753 -0.0315978453 0.993514836
vn -0.5249079 0.8439842 0.110283382
vn 0.652220964 -0.01793229 0.757816732
vn -0.668768 -0.386078864 0.635368
vn -0.6198478 -0.440914631 0.6491402
vn 0.109223753 -0.0315978453 0.993514836
vn -0.6113963 -0.231901914 -0.756581843
vn 0.7355941 0.533558249 -0.417393029
vn -0.8680283 -0.113702916 0.483320326
vn -0.6113963 -0.231901914 -0.756581843
vn -0.6472139 0.149520189 -0.747501135
vn -0.668768 -0.386078864 0.635368
vn 0.7445833 -0.2736198 0.608874261
vn -0.8680283 -0.113702916 0.483320326
vn -0.668768 -0.386078864 0.635368
vn 0.652220964 -0.01793229 0.757816732
vn 0.7355941 0.533558249 -0.417393029
vn 0.7445833 -0.2736198 0.608874261
vn -0.90934974 0.406849623 -0.0869279951
vn 0.242894262 0.95250237 -0.18368879
vn 0.7355941 0.533558249 -0.417393029
vn -0.8680283 -0.113702916 0.483320326
vn 0.927440345 -0.06031643 0.36907497
vn -0.90934974 0.406849623 -0.0869279951
vn 0.242894262 0.95250237 -0.18368879
vn 0.927440345 -0.06031643 0.36907497
vn 0.7445833 -0.2736198 0.608874261
vn 0.7355941 0.533558249 -0.417393029
vn -0.714252055 0.6989514 -0.0362072662
vn 0.292799652 0.942502558 0.161112562
vn 0.292799652 0.942502558 0.161112562
vn 0.960376441 0.207201809 0.18639873
vn -0.697866142 -0.5521922 -0.4561432
vn 0.9635749 0.260657161 -0.05984411
vn -0.513650656 0.5099775 0.6899898
vn -0.697866142 -0.5521922 -0.4561432
vn -0.8680283 -0.113702916 0.483320326
vn 0.7355941 0.533558249 -0.417393029
vn 0.9635749 0.260657161 -0.05984411
vn -0.513650656 0.5099775 0.6899898
vn 0.9635749 0.260657161 -0.05984411
vn -0.697866142 -0.5521922 -0.4561432
vn -0.0186677072 0.602824032 -0.797655761
vn -0.0186677072 0.602824032 -0.797655761
vn -0.0186677072 0.602824032 -0.797655761
vn 0.950514 -0.30450663 -0.0616342239
vn -0.509286463 -0.130368978 0.850665152
vn 0.08081958 -0.169231147 0.9822571
vn 0.990401149 0.1381638 -0.00403515249
vn -0.438025981 0.5235617 -0.73076427
vn 0.950514 -0.30450663 -0.0616342239
vn 0.990401149 0.1381638 -0.00403515249
vn -0.206575 0.5681784 -0.796555161
vn -0.509286463 -0.130368978 0.850665152
vn -0.438025981 0.5235617 -0.73076427
vn -0.206575 0.5681784 -0.796555161
vn 0.08081958 -0.169231147 0.9822571
vn 0.7703942 -0.6373253 -0.0175852925
vn -0.499163747 0.0764515549 0.8631284
vn -0.359456956 0.714102566 -0.6007064
vn 0.7703942 -0.6373253 -0.0175852925
vn 0.950514 -0.30450663 -0.0616342239
vn -0.438025981 0.5235617 -0.73076427
vn -0.499163747 0.0764515549 0.8631284
vn -0.359456956 0.714102566 -0.6007064
vn 0.5521282 -0.820148647 -0.150035575
vn -0.32558766 0.08698017 0.9415026
vn -0.499163747 0.0764515549 0.8631284
vn 0.7703942 -0.6373253 -0.0175852925
vn -0.169633821 0.7560148 -0.63219136
vn 0.5521282 -0.820148647 -0.150035575
vn 0.7703942 -0.6373253 -0.0175852925
vn -0.359456956 0.714102566 -0.6007064
vn -0.32558766 0.08698017 0.9415026
vn -0.169633821 0.7560148 -0.63219136
vn -0.8909683 -0.452150434 0.04165816
vn 0.5972593 0.07693363 -0.7983499
vn 0.365043968 0.506516 0.781143069
vn -0.8909683 -0.452150434 0.04165816
vn 0.5972593 0.07693363 -0.7983499
vn 0.365043968 0.506516 0.781143069
vn -0.06352961 0.267250448 0.9615306
vn -0.260735065 0.02343943 -0.9651258
vn -0.9831274 -0.108709171 -0.1471148
vn 0.0588508174 0.527871549 -0.8472828
vn 0.5972593 0.07693363 -0.7983499
vn -0.8909683 -0.452150434 0.04165816
vn -0.039521724 0.866526842 0.4975633
vn -0.9831274 -0.108709171 -0.1471148
vn 0.0588508174 0.527871549 -0.8472828
vn -0.039521724 0.866526842 0.4975633
vn 0.326873183 0.486344784 -0.8103226
vn 0.282963067 0.04682875 0.957986951
vn 0.08081958 -0.169231147 0.9822571
vn -0.206575 0.5681784 -0.796555161
vn -0.8133646 -0.5798804 0.046655044
vn 0.326873183 0.486344784 -0.8103226
vn -0.206575 0.5681784 -0.796555161
vn -0.8284336 -0.5594695 0.0262993
vn 0.282963067 0.04682875 0.957986951
vn -0.8133646 -0.5798804 0.046655044
vn -0.8284336 -0.5594695 0.0262993
vn 0.08081958 -0.169231147 0.9822571
vn -0.3446747 0.9325862 0.107155621
vn -0.3446747 0.9325862 0.107155621
vn -0.3446747 0.9325862 0.107155621
vn -0.5249079 0.8439842 0.110283382
vn 0.109223753 -0.0315978453 0.993514836
vn -0.18053253 -0.4046882 0.8964572
vn -0.976162553 0.21090582 0.0512384139
vn 0.5546558 -0.189604744 0.8101895
vn 0.766611636 -0.131937966 0.628409863
vn -0.18053253 -0.4046882 0.8964572
vn -0.02756033 0.9797262 -0.198436365
vn -0.5751095 0.498832375 -0.648394465
vn 0.7400777 0.475084871 -0.476003557
vn -0.02756033 0.9797262 -0.198436365
vn -0.5751095 0.498832375 -0.648394465
vn 0.7191123 -0.0662418455 -0.691729367
vn -0.587334931 -0.1833392 -0.788304746
vn -0.7143572 -0.417871565 -0.5613174
vn 0.750739157 -0.228806809 -0.6197081
vn -0.587334931 -0.1833392 -0.788304746
vn -0.02756033 0.9797262 -0.198436365
vn -0.7428515 0.533363163 0.404592842
vn -0.7143572 -0.417871565 -0.5613174
vn -0.02756033 0.9797262 -0.198436365
vn 0.7400777 0.475084871 -0.476003557
vn 0.5266753 0.2573291 0.810182035
vn -0.7428515 0.533363163 0.404592842
vn 0.7400777 0.475084871 -0.476003557
vn 0.750739157 -0.228806809 -0.6197081
vn 0.5266753 0.2573291 0.810182035
vn 0.750739157 -0.228806809 -0.6197081
vn -0.7143572 -0.417871565 -0.5613174
vn -0.993124962 -0.04928092 -0.106179856
vn 0.975617766 0.192343742 -0.105706431
vn -0.7143572 -0.417871565 -0.5613174
vn -0.7428515 0.533363163 0.404592842
vn -0.155903712 0.9285708 0.336823821
vn -0.993124962 -0.04928092 -0.106179856
vn -0.7428515 0.533363163 0.404592842
vn 0.750739157 -0.228806809 -0.6197081
vn 0.975617766 0.192343742 -0.105706431
vn -0.155903712 0.9285708 0.336823821
vn -0.993124962 -0.04928092 -0.106179856
vn -0.155903712 0.9285708 0.336823821
vn 0.001693736 0.9985518 0.05377184
vn 0.001693736 0.9985518 0.05377184
vn 0.750739157 -0.228806809 -0.6197081
vn -0.7428515 0.533363163 0.404592842
vn -0.8860769 0.462566346 0.03000075
vn 0.404144555 -0.290742785 -0.867257655
vn -0.7428515 0.533363163 0.404592842
vn 0.5266753 0.2573291 0.810182035
vn 0.5908149 -0.203896657 0.780617654
vn -0.8860769 0.462566346 0.03000075
vn 0.404144555 -0.290742785 -0.867257655
vn 0.5908149 -0.203896657 0.780617654
vn 0.404144555 -0.290742785 -0.867257655
vn -0.8860769 0.462566346 0.03000075
vn -0.858547568 0.438871026 0.2651195
vn 0.6559972 -0.295166582 -0.6946541
vn -0.8860769 0.462566346 0.03000075
vn 0.5908149 -0.203896657 0.780617654
vn 0.661610246 -0.328935653 0.6738496
vn -0.858547568 0.438871026 0.2651195
vn 0.5908149 -0.203896657 0.780617654
vn 0.404144555 -0.290742785 -0.867257655
vn 0.6559972 -0.295166582 -0.6946541
vn 0.661610246 -0.328935653 0.6738496
vn -0.6056531 0.646332443 -0.4641537
vn -0.976162553 0.21090582 0.0512384139
vn -0.9614945 -0.0238377266 -0.2737884
vn 0.07089356 0.566602468 -0.8209359
vn 0.00394207565 -0.431574821 0.902068555
vn -0.9614945 -0.0238377266 -0.2737884
vn 0.766611636 -0.131937966 0.628409863
vn -0.6056531 0.646332443 -0.4641537
vn 0.07089356 0.566602468 -0.8209359
vn 0.9767961 -0.0889682844 0.194817886
vn -0.18053253 -0.4046882 0.8964572
vn 0.766611636 -0.131937966 0.628409863
vn 0.9767961 -0.0889682844 0.194817886
vn 0.00394207565 -0.431574821 0.902068555
vn 0.07089356 0.566602468 -0.8209359
vn 0.00394207565 -0.431574821 0.902068555
vn -0.5470652 0.09174047 0.8320477
vn -0.275564879 0.09621305 -0.956455469
vn 0.9767961 -0.0889682844 0.194817886
vn 0.07089356 0.566602468 -0.8209359
vn -0.275564879 0.09621305 -0.956455469
vn 0.9843773 -0.09056807 0.15099223
vn 0.00394207565 -0.431574821 0.902068555
vn 0.9767961 -0.0889682844 0.194817886
vn 0.9843773 -0.09056807 0.15099223
vn -0.5470652 0.09174047 0.8320477
vn 0.9843773 -0.09056807 0.15099223
vn -0.275564879 0.09621305 -0.956455469
vn 0.06932514 0.9963527 -0.04975308
vn 0.06932514 0.9963527 -0.04975308
vn -0.5470652 0.09174047 0.8320477
vn 0.9843773 -0.09056807 0.15099223
vn 0.06932514 0.9963527 -0.04975308
vn -0.885501564 0.056634862 -0.4611718
vn 0.369734973 0.8444783 -0.387495071
vn -0.9614945 -0.0238377266 -0.2737884
vn 0.00394207565 -0.431574821 0.902068555
vn 0.7303934 0.0220867079 0.6826695
vn -0.885501564 0.056634862 -0.4611718
vn 0.00394207565 -0.431574821 0.902068555
vn 0.07089356 0.566602468 -0.8209359
vn 0.369734973 0.8444783 -0.387495071
vn 0.7303934 0.0220867079 0.6826695
vn -0.009701143 0.9863622 0.164302826
vn -0.009983533 0.9858499 0.167332888
vn -0.00971899647 0.986330152 0.16449441
vn -0.009446963 0.9868152 0.161574975
vn -0.5255898 0.850180447 0.0307982434
vn -0.518622756 0.854639232 0.0249436721
vn -0.3120963 0.9471093 0.07469915
vn -0.286254257 0.9547251 0.08098476
vn -0.06373982 0.9913717 0.114540145
vn -0.0595358238 0.991957247 0.11169716
vn 0.07374965 0.9863624 0.1471403
vn 0.07501976 0.985850155 0.149904847
vn 0.07382994 0.9863303 0.1473151
vn 0.07260615 0.9868152 0.144651487
vn 0.113777541 0.9927168 0.0395986475
vn 0.09969934 0.993870735 0.04775963
vn 0.113018714 0.9927858 0.04003926
vn 0.12652123 0.991441548 0.0321869738
vn 0.0928928852 0.978277147 -0.1853234
vn 0.09198492 0.9778071 -0.188234
vn 0.09283552 0.9782477 -0.185507432
vn 0.09370914 0.9786921 -0.182702839
vn -0.165689752 0.831763446 0.5298269
vn -0.16550605 0.830130935 0.5324381
vn -0.165678188 0.83166045 0.529992044
vn -0.165853724 0.8332256 0.527472854
vn -0.123038851 0.986362338 0.109319426
vn -0.125380486 0.985850155 0.111261807
vn -0.123186894 0.9863303 0.109442234
vn -0.120930783 0.9868152 0.107570738
vn -0.009701524 0.9022206 -0.431165636
vn -0.009983822 0.903538465 -0.428390652
vn -0.009719371 0.9023042 -0.430990338
vn -0.009447426 0.901027441 -0.4336592
vn -0.07674704 0.987912238 0.134682015
vn -0.075046666 0.987690032 0.137245759
vn -0.07663958 0.987898469 0.134844109
vn -0.07827645 0.9881042 0.132374
vn 0.09817986 0.986362338 0.132098466
vn 0.0999114141 0.98585 0.134601414
vn 0.09828935 0.9863303 0.132256716
vn 0.09662098 0.9868154 0.129845172
vn -0.162831292 0.986362338 -0.0239844564
vn -0.165824726 0.9858501 -0.0245297756
vn -0.163020551 0.9863303 -0.024018934
vn -0.1601364 0.9868153 -0.0234935749
vn -0.5255901 0.850180268 0.0307981
vn -0.518623531 0.854638755 0.024943959
vn -0.312096357 0.9471093 0.0746987239
vn -0.286254168 0.954725146 0.08098406
vn -0.0637397543 0.991371751 0.1145394
vn -0.0595357977 0.991957366 0.11169643
vn -0.349870741 0.8501805 0.393425435
vn -0.349084169 0.854638755 0.3843603
vn -0.1570124 0.9511209 0.26592508
vn -0.136656553 0.9577657 0.2530017
vn 0.0517333522 0.9920256 0.11492978
vn 0.0550929978 0.992736 0.10695789
vn -0.300230443 0.9536882 0.0184510443
vn -0.43067956 0.849170744 0.3056536
vn -0.114700556 0.931212068 0.345959276
vn 0.0193523839 0.9906863 0.134781629
vn 0.0538441576 0.993276358 -0.102483846
vn -0.186800241 0.9355017 -0.299903721
vn -0.553433239 0.8267925 -0.100627005
vn -0.632696748 0.7428483 0.218795076
vn -0.393377334 0.787650645 -0.474194825
vn -0.271117419 0.96151793 0.04448172
vn -0.374117047 0.893555045 0.248184934
vn 0.009443334 0.9704639 0.241061658
vn 0.06558019 0.997166634 0.03685005
vn -0.2481519 0.952532947 -0.176356509
vn -0.5665619 0.810258031 -0.149965167
vn -0.5916253 0.8056517 -0.0300797857
vn -0.2500366 0.8501804 -0.463330358
vn -0.2417865 0.854639 -0.459490418
vn -0.199597791 0.947109342 -0.2512859
vn -0.19437331 0.9547251 -0.225208834
vn -0.130746216 0.9913717 -0.009361099
vn -0.126393467 0.9919572 -0.006752822
vn 0.07822865 0.986362457 -0.144808233
vn 0.07976518 0.9858501 -0.1474351
vn 0.07832581 0.98633033 -0.144974321
vn 0.07684542 0.9868154 -0.142443344
vn 0.06531068 0.986362338 -0.151075482
vn 0.06661212 0.985850155 -0.15382567
vn 0.06539296 0.9863303 -0.151249364
vn 0.0641390756 0.9868153 -0.14859955
vn -0.162831664 0.9863623 -0.023984544
vn -0.165824726 0.9858501 -0.0245297886
vn -0.1630209 0.9863302 -0.024019016
vn -0.1601371 0.986815155 -0.0234937221
vn -0.133238763 0.9511207 0.278598
vn -0.114086114 0.9577658 0.263948768
vn -0.314250916 0.8501802 0.4224216
vn -0.3142574 0.8546386 0.413322061
vn 0.0615532771 0.9920257 0.109983154
vn 0.06420591 0.992736161 0.101747066
vn 0.274650782 0.7413468 -0.612349451
vn 0.6570115 0.6773653 0.33092618
vn 0.656242847 0.6750625 0.337099373
vn 0.224111065 0.701925755 -0.676072836
vn -0.41232273 0.00222884957 -0.9110351
vn -0.432292581 -0.041417338 -0.900781751
vn -0.7142502 0.698953331 -0.03620649
vn 0.292800635 0.9425022 0.1611129
vn 0.140040874 0.9814364 0.131038874
vn -0.69882834 0.7146686 -0.0297944974
vn 0.9603762 0.207202911 0.186398774
vn 0.9377437 0.296808928 0.180391714
vn 0.398870736 -0.148218438 -0.9049494
vn 0.3988712 -0.148219183 -0.904949069
vn -0.170382157 0.756729841 -0.6311338
vn -0.532055259 0.740777552 0.410080254
vn -0.170382157 0.756729841 -0.6311338
vn -0.5320552 0.7407778 0.4100799
vn -0.274095625 0.825115 -0.494021058
vn 0.266010463 0.09932877 -0.958839
vn 0.329747319 0.008124924 -0.9440343
vn -0.19602488 0.7804166 -0.5937375
vn -0.532056 0.740776241 0.4100817
vn -0.5320557 0.740777552 0.410079747
vn -0.021740213 0.910304 -0.413369
vn -0.6152445 0.48891145 -0.6184172
vn -0.021740213 0.910304 -0.413369
vn 0.848473 0.3366323 0.408377618
vn -0.004751003 0.9205567 -0.390579939
vn 0.18327029 0.9453826 -0.269562125
vn -0.609710336 0.501409233 -0.6138747
vn -0.613 0.497940451 -0.613421857
vn 0.8495554 0.268664718 0.4539548
vn 0.8504269 0.297836721 0.4336673
usemtl nml-bd125_part_1_material_0
f 55/55/55 56/56/56 57/57/57
f 57/57/57 58/58/58 55/55/55
f 59/59/59 60/60/60 61/61/61
f 62/62/62 63/63/63 64/64/64
f 64/64/64 65/65/65 62/62/62
f 66/66/66 67/67/67 68/68/68
f 68/68/68 69/69/69 66/66/66
f 70/70/70 71/71/71 72/72/72
f 72/72/72 73/73/73 70/70/70
f 74/74/74 75/75/75 76/76/76
f 76/76/76 77/77/77 74/74/74
f 78/78/78 79/79/79 80/80/80
f 80/80/80 81/81/81 78/78/78
f 82/82/82 83/83/83 84/84/84
f 84/84/84 85/85/85 82/82/82
f 86/86/86 87/87/87 88/88/88
f 89/89/89 90/90/90 91/91/91
f 91/91/91 92/92/92 89/89/89
f 93/93/93 94/94/94 95/95/95
f 95/95/95 96/96/96 93/93/93
f 97/97/97 98/98/98 99/99/99
f 99/99/99 100/100/100 97/97/97
f 101/101/101 102/102/102 103/103/103
f 103/103/103 104/104/104 101/101/101
f 105/105/105 106/106/106 107/107/107
f 107/107/107 108/108/108 105/105/105
f 109/109/109 110/110/110 89/89/89
f 89/89/89 92/92/92 109/109/109
f 111/111/111 112/112/112 102/102/102
f 102/102/102 101/101/101 111/111/111
f 113/113/113 114/114/114 115/115/115
f 115/115/115 116/116/116 113/113/113
f 106/106/106 105/105/105 117/117/117
f 117/117/117 118/118/118 106/106/106
f 119/119/119 120/120/120 121/121/121
f 121/121/121 122/122/122 119/119/119
f 123/123/123 124/124/124 125/125/125
f 125/125/125 126/126/126 123/123/123
f 127/127/127 128/128/128 129/129/129
f 129/129/129 130/130/130 127/127/127
f 131/131/131 132/132/132 133/133/133
f 133/133/133 134/134/134 131/131/131
f 135/135/135 136/136/136 71/71/71
f 71/71/71 70/70/70 135/135/135
f 137/137/137 138/138/138 75/75/75
f 75/75/75 74/74/74 137/137/137
f 139/139/139 140/140/140 79/79/79
f 79/79/79 78/78/78 139/139/139
f 141/141/141 142/142/142 83/83/83
f 83/83/83 82/82/82 141/141/141
f 143/143/143 144/144/144 145/145/145
f 145/145/145 146/146/146 143/143/143
f 147/147/147 148/148/148 149/149/149
f 149/149/149 150/150/150 147/147/147
f 151/151/151 152/152/152 153/153/153
f 153/153/153 154/154/154 151/151/151
f 155/155/155 156/156/156 157/157/157
f 157/157/157 158/158/158 155/155/155
f 159/159/159 160/160/160 144/144/144
f 144/144/144 143/143/143 159/159/159
f 161/161/161 162/162/162 163/163/163
f 163/163/163 164/164/164 161/161/161
f 165/165/165 166/166/166 167/167/167
f 167/167/167 168/168/168 165/165/165
f 169/169/169 170/170/170 152/152/152
f 152/152/152 151/151/151 169/169/169
f 171/171/171 172/172/172 173/173/173
f 173/173/173 174/174/174 171/171/171
f 175/175/175 176/176/176 166/166/166
f 166/166/166 165/165/165 175/175/175
f 177/177/177 178/178/178 179/179/179
f 179/179/179 180/180/180 177/177/177
f 181/181/181 182/182/182 172/172/172
f 172/172/172 171/171/171 181/181/181
f 183/183/183 184/184/184 178/178/178
f 178/178/178 177/177/177 183/183/183
f 160/160/160 159/159/159 185/185/185
f 185/185/185 186/186/186 160/160/160
f 162/162/162 161/161/161 187/187/187
f 187/187/187 188/188/188 162/162/162
f 189/189/189 190/190/190 191/191/191
f 191/191/191 192/192/192 189/189/189
f 193/193/193 194/194/194 195/195/195
f 188/188/188 187/187/187 196/196/196
f 192/192/192 191/191/191 197/197/197
f 198/198/198 199/199/199 200/200/200
f 200/200/200 201/201/201 198/198/198
f 202/202/202 203/203/203 204/204/204
f 204/204/204 205/205/205 202/202/202
f 206/206/206 207/207/207 208/208/208
f 208/208/208 209/209/209 206/206/206
f 210/210/210 211/211/211 199/199/199
f 199/199/199 198/198/198 210/210/210
f 212/212/212 213/213/213 214/214/214
f 214/214/214 215/215/215 212/212/212
f 216/216/216 217/217/217 207/207/207
f 207/207/207 206/206/206 216/216/216
f 218/218/218 219/219/219 220/220/220
f 220/220/220 221/221/221 218/218/218
f 222/222/222 223/223/223 224/224/224
f 224/224/224 225/225/225 222/222/222
f 226/226/226 227/227/227 217/217/217
f 217/217/217 216/216/216 226/226/226
f 228/228/228 229/229/229 98/98/98
f 98/98/98 97/97/97 228/228/228
f 230/230/230 231/231/231 94/94/94
f 94/94/94 93/93/93 230/230/230
f 232/232/232 233/233/233 234/234/234
f 234/234/234 235/235/235 232/232/232
f 236/236/236 237/237/237 238/238/238
f 238/238/238 239/239/239 236/236/236
f 240/240/240 241/241/241 231/231/231
f 231/231/231 230/230/230 240/240/240
f 242/242/242 243/243/243 233/233/233
f 233/233/233 232/232/232 242/242/242
f 244/244/244 245/245/245 246/246/246
f 246/246/246 247/247/247 244/244/244
f 248/248/248 249/249/249 250/250/250
f 250/250/250 251/251/251 248/248/248
f 252/252/252 253/253/253 254/254/254
f 254/254/254 255/255/255 252/252/252
f 245/245/245 244/244/244 256/256/256
f 249/249/249 248/248/248 257/257/257
f 253/253/253 252/252/252 258/258/258
f 259/259/259 260/260/260 261/261/261
f 261/261/261 262/262/262 259/259/259
f 158/158/158 263/263/263 264/264/264
f 264/264/264 265/265/265 158/158/158
f 266/266/266 259/259/259 262/262/262
f 262/262/262 267/267/267 266/266/266
f 268/268/268 269/269/269 270/270/270
f 270/270/270 66/66/66 268/268/268
f 271/271/271 272/272/272 273/273/273
f 273/273/273 274/274/274 271/271/271
f 275/275/275 276/276/276 277/277/277
f 277/277/277 278/278/278 275/275/275
f 279/279/279 280/280/280 281/281/281
f 281/281/281 282/282/282 279/279/279
f 283/283/283 60/60/60 284/284/284
f 284/284/284 285/285/285 283/283/283
f 286/286/286 287/287/287 288/288/288
f 288/288/288 289/289/289 286/286/286
f 290/290/290 291/291/291 292/292/292
f 292/292/292 293/293/293 290/290/290
f 294/294/294 295/295/295 296/296/296
f 296/296/296 297/297/297 294/294/294
f 298/298/298 299/299/299 300/300/300
f 297/297/297 296/296/296 301/301/301
f 302/302/302 303/303/303 304/304/304
f 304/304/304 305/305/305 302/302/302
f 306/306/306 307/307/307 308/308/308
f 308/308/308 309/309/309 306/306/306
f 285/285/285 284/284/284 310/310/310
f 310/310/310 311/311/311 285/285/285
f 312/312/312 313/313/313 314/314/314
f 314/314/314 315/315/315 312/312/312
f 316/316/316 317/317/317 318/318/318
f 318/318/318 319/319/319 316/316/316
f 320/320/320 321/321/321 322/322/322
f 322/322/322 323/323/323 320/320/320
f 324/324/324 325/325/325 326/326/326
f 326/326/326 327/327/327 324/324/324
f 262/262/262 261/261/261 328/328/328
f 328/328/328 329/329/329 262/262/262
f 330/330/330 331/331/331 332/332/332
f 332/332/332 333/333/333 330/330/330
f 334/334/334 335/335/335 336/336/336
f 336/336/336 337/337/337 334/334/334
f 338/338/338 339/339/339 340/340/340
f 340/340/340 341/341/341 338/338/338
f 342/342/342 343/343/343 344/344/344
f 344/344/344 345/345/345 342/342/342
f 346/346/346 347/347/347 348/348/348
f 348/348/348 349/349/349 346/346/346
f 350/350/350 351/351/351 352/352/352
f 341/341/341 340/340/340 353/353/353
f 354/354/354 355/355/355 356/356/356
f 327/327/327 326/326/326 357/357/357
f 357/357/357 358/358/358 327/327/327
f 359/359/359 360/360/360 361/361/361
f 361/361/361 362/362/362 359/359/359
f 363/363/363 364/364/364 365/365/365
f 365/365/365 366/366/366 363/363/363
f 367/367/367 368/368/368 369/369/369
f 369/369/369 370/370/370 367/367/367
f 371/371/371 372/372/372 373/373/373
f 373/373/373 374/374/374 371/371/371
f 375/375/375 376/376/376 374/374/374
f 374/374/374 373/373/373 375/375/375
f 377/377/377 378/378/378 379/379/379
f 379/379/379 380/380/380 377/377/377
f 381/381/381 382/382/382 383/383/383
f 383/383/383 384/384/384 381/381/381
f 385/385/385 386/386/386 387/387/387
f 387/387/387 388/388/388 385/385/385
f 389/389/389 390/390/390 391/391/391
f 391/391/391 392/392/392 389/389/389
f 393/393/393 394/394/394 395/395/395
f 395/395/395 396/396/396 393/393/393
f 397/397/397 398/398/398 399/399/399
f 399/399/399 400/400/400 397/397/397
f 401/401/401 402/402/402 403/403/403
f 403/403/403 404/404/404 401/401/401
f 405/405/405 406/406/406 407/407/407
f 407/407/407 408/408/408 405/405/405
f 409/409/409 410/410/410 411/411/411
f 411/411/411 412/412/412 409/409/409
f 413/413/413 414/414/414 415/415/415
f 415/415/415 416/416/416 413/413/413
f 417/417/417 418/418/418 416/416/416
f 416/416/416 415/415/415 417/417/417
f 419/419/419 420/420/420 421/421/421
f 421/421/421 422/422/422 419/419/419
f 423/423/423 424/424/424 422/422/422
f 422/422/422 421/421/421 423/423/423
f 425/425/425 426/426/426 427/427/427
f 425/425/425 427/427/427 428/428/428
f 425/425/425 428/428/428 429/429/429
f 425/425/425 429/429/429 430/430/430
f 431/431/431 432/432/432 426/426/426
f 431/431/431 426/426/426 425/425/425
f 431/431/431 425/425/425 430/430/430
f 431/431/431 430/430/430 433/433/433
f 434/434/434 435/435/435 436/436/436
f 434/434/434 436/436/436 437/437/437
f 434/434/434 437/437/437 438/438/438
f 434/434/434 438/438/438 439/439/439
f 434/434/434 439/439/439 440/440/440
f 434/434/434 440/440/440 435/435/435
f 441/441/441 442/442/442 443/443/443
f 443/443/443 444/444/444 441/441/441
f 445/445/445 446/446/446 444/444/444
f 444/444/444 443/443/443 445/445/445
f 447/447/447 448/448/448 449/449/449
f 449/449/449 450/450/450 447/447/447
f 451/451/451 452/452/452 453/453/453
f 453/453/453 454/454/454 451/451/451
f 455/455/455 456/456/456 457/457/457
f 457/457/457 458/458/458 455/455/455
f 459/459/459 460/460/460 461/461/461
f 461/461/461 462/462/462 459/459/459
f 463/463/463 464/464/464 460/460/460
f 460/460/460 459/459/459 463/463/463
f 471/471/471 472/472/472 473/473/473
f 473/473/473 474/474/474 471/471/471
f 472/472/472 475/475/475 476/476/476
f 476/476/476 473/473/473 472/472/472
f 222/222/222 477/477/477 478/478/478
f 478/478/478 479/479/479 222/222/222
f 480/480/480 227/227/227 481/481/481
f 481/481/481 482/482/482 480/480/480
f 489/489/489 358/358/358 357/357/357
f 357/357/357 490/490/490 489/489/489
f 366/366/366 365/365/365 491/491/491
f 491/491/491 492/492/492 366/366/366
usemtl nml-bd125_part_1_material_1
f 465/465/465 466/466/466 467/467/467
f 467/467/467 468/468/468 465/465/465
f 469/469/469 465/465/465 468/468/468
f 468/468/468 470/470/470 469/469/469
f 483/483/483 484/484/484 485/485/485
f 485/485/485 486/486/486 483/483/483
f 487/487/487 483/483/483 486/486/486
f 486/486/486 488/488/488 487/487/487
f 493/493/493 494/494/494 495/495/495
f 495/495/495 496/496/496 493/493/493
f 497/497/497 494/494/494 493/493/493
f 493/493/493 498/498/498 497/497/497
o nml-bd125_part_2
v 1.55820262 9.10944 -1.67929018
v 1.555813 9.460284 -0.8240336
v 2.23955226 9.702811 -1.01229322
v 2.33827 9.451655 -1.72515023
v 1.46873653 10.188344 1.25383806
v 2.30321765 10.107749 1.64333582
v 2.51901555 9.936164 0.9463775
v 1.87748134 9.97374249 0.536485732
v 3.11457944 9.490799 -1.00489819
v 2.55775 9.585049 -0.9891932
v 2.473178 9.243309 -0.261284828
v 3.763925 8.830071 -0.294080377
v 3.90421629 9.13816 -1.01856136
v 1.80124176 8.990061 -1.85577285
v 1.71392536 9.349428 -1.00980747
v 2.64554238 9.141789 -1.74481952
v 2.75961113 9.746633 1.66746271
v 3.330211 9.198822 1.74666607
v 3.24980736 9.013104 1.01757121
v 2.30785418 9.639535 0.9803724
v 2.333884 9.960165 1.60836875
v 1.62212765 9.806312 2.354969
v 2.36059785 9.799963 2.25287175
v 1.57916224 9.919939 1.54158354
v 1.827958 7.82491636 -1.73280036
v 1.87042868 7.95410061 -0.708140731
v 2.64223957 7.464796 -0.820331
v 2.671001 7.32049465 -1.769193
v 1.21747625 7.8420763 -1.72982824
v 1.27578747 7.9736867 -0.6259286
v 1.69653177 9.544078 1.6508261
v 1.08793736 9.581119 2.03314137
v 1.45268118 9.271053 2.45946121
v 2.041366 9.221704 2.14648318
v 1.48199117 9.5373 1.28376091
v 0.831146 9.572342 1.703213
v 4.027627 8.731286 -1.655871
v 1.63606036 9.094397 -0.255411029
v 3.30926943 9.192309 2.30941916
v 1.54971242 9.660842 0.9840635
vt -0.453193933 1.00072145
vt -0.0199706852 1.00072145
vt -0.0199706852 0.7150605
vt -0.453193933 0.7150605
vt -0.453193933 1.00072145
vt -0.0199706852 1.00072145
vt -0.0199706852 0.7150605
vt -0.453193933 0.7150605
vt -0.239369214 0.320938
vt -0.232535228 0.420687437
vt -0.0199706852 0.4166584
vt -0.0199706852 0.1592297
vt -0.2504481 0.1592297
vt -0.453193933 0.6759573
vt -0.224188283 0.6759573
vt -0.453193933 0.4248699
vt -0.203268737 0.309041858
vt -0.154852733 0.1592297
vt -0.453193933 0.1592297
vt -0.453193933 0.4248699
vt -0.239392161 0.420817435
vt -0.0199706852 0.6759573
vt -0.0199706852 0.4166584
vt -0.277010649 0.6759573
vt -0.453193933 0.4248699
vt -0.0199706852 0.4166584
vt -0.0199706852 0.1592297
vt -0.453193933 0.1592297
vt -0.453193933 0.6759573
vt -0.0199706852 0.6759573
vt -0.453193933 0.4248699
vt -0.0199706852 0.4166584
vt -0.0199706852 0.1592297
vt -0.453193933 0.1592297
vt -0.453193933 0.6759573
vt -0.0199706852 0.6759573
vt -0.453193933 0.1592297
vt -0.0199706852 0.6759573
vt -0.0199706852 0.1592297
vt -0.453193933 0.6759573
vn -0.395148069 0.8487465 -0.351407737
vn -0.397195727 0.8486789 -0.349255919
vn -0.3952826 0.8487423 -0.3512666
vn -0.393152863 0.84880507 -0.353497952
vn 0.177742422 0.966433942 -0.185507625
vn 0.17865169 0.96680063 -0.182702333
vn 0.177802131 0.966458261 -0.185323536
vn 0.176856428 0.966069043 -0.18823491
vn 0.3018347 0.9524154 -0.04243472
vn -0.0310672764 0.9992558 -0.0228630323
vn -0.00243835 0.9062703 0.422691524
vn 0.326254666 0.822272956 0.466288656
vn 0.373886526 0.921058357 -0.108905315
vn -0.16260612 0.873915732 -0.458072633
vn -0.240190491 0.970588267 -0.0163392033
vn 0.08455181 0.8496458 -0.5205315
vn 0.552236259 0.828410566 -0.0936539546
vn 0.696272 0.7100469 -0.105065234
vn 0.6064289 0.71445775 -0.3489901
vn 0.268420219 0.849495 -0.4542123
vn 0.218496412 0.9672654 -0.12906149
vn -0.016115997 0.982219338 0.187044
vn 0.271579534 0.929770768 0.248537511
vn -0.0259579923 0.9829493 -0.182035267
vn 0.281147063 0.951120257 -0.1277756
vn 0.257058233 0.957765639 -0.128864512
vn 0.5122571 0.8501803 -0.121597841
vn 0.5064122 0.854639351 -0.114622094
vn 0.0235445444 0.992025435 -0.1238191
vn 0.0162165 0.992736161 -0.119213745
vn 0.167376727 0.969397545 0.179592475
vn 0.155739248 0.9750498 0.158187181
vn 0.285960943 0.87844646 0.3828292
vn 0.2766444 0.8821066 0.381255537
vn 0.0320874453 0.9986223 -0.04151953
vn 0.0244053714 0.998663366 -0.04556147
vn 0.278217077 0.8331261 -0.478012681
vn -0.164996415 0.93938905 0.300540179
vn 0.6196238 0.772879064 0.136837
vn 0.0234099422 0.9061328 -0.422345
usemtl nml-bd125_part_2_material_0
f 499/499/499 500/500/500 501/501/501
f 501/501/501 502/502/502 499/499/499
f 503/503/503 504/504/504 505/505/505
f 505/505/505 506/506/506 503/503/503
f 507/507/507 508/508/508 509/509/509
f 507/507/507 509/509/509 510/510/510
f 507/507/507 510/510/510 511/511/511
f 512/512/512 513/513/513 508/508/508
f 508/508/508 514/514/514 512/512/512
f 515/515/515 516/516/516 517/517/517
f 515/515/515 517/517/517 518/518/518
f 515/515/515 518/518/518 519/519/519
f 520/520/520 521/521/521 519/519/519
f 519/519/519 522/522/522 520/520/520
f 523/523/523 524/524/524 525/525/525
f 525/525/525 526/526/526 523/523/523
f 524/524/524 523/523/523 527/527/527
f 527/527/527 528/528/528 524/524/524
f 529/529/529 530/530/530 531/531/531
f 531/531/531 532/532/532 529/529/529
f 530/530/530 529/529/529 533/533/533
f 533/533/533 534/534/534 530/530/530
f 514/514/514 508/508/508 507/507/507
f 514/514/514 507/507/507 511/511/511
f 514/514/514 511/511/511 535/535/535
f 513/513/513 536/536/536 509/509/509
f 509/509/509 508/508/508 513/513/513
f 515/515/515 519/519/519 521/521/521
f 515/515/515 521/521/521 537/537/537
f 515/515/515 537/537/537 516/516/516
f 522/522/522 519/519/519 518/518/518
f 518/518/518 538/538/538 522/522/522
o nml-bd125_part_3
v -0.446085453 6.78636265 2.79024172
v -0.455534935 6.68668938 2.03461862
v -1.30294192 6.78017473 2.06431317
v -1.166546 6.8831563 2.97280264
v -1.49579871 6.664146 3.02676249
v -0.806978 6.56447363 3.33753777
v -0.475761175 6.65795851 2.556977
v -1.35677564 6.76094055 2.29665
v -1.72946966 8.926096 3.688825
v -1.056092 8.492095 2.67824316
v -1.15660369 8.385069 2.693626
v -1.77565289 8.833823 3.66427779
v -1.71232879 8.8532 3.74402118
v -1.01773107 8.365573 2.702836
v -1.056092 8.492095 2.67824316
v -1.72946966 8.926096 3.688825
v -0.9894171 9.33172 3.1214788
v -1.53648543 9.031542 2.68375921
v -1.99439883 8.910586 3.39326954
v -1.26460576 9.28769 3.817247
v -1.75928223 8.902171 4.165059
v -1.34324837 8.511418 4.67025
v -0.6862068 8.57282448 4.129653
v -1.28675961 9.032493 3.59804845
v -2.44229412 8.702099 4.547047
v -1.989151 8.9734 4.068478
v -2.57945752 8.661987 3.42140937
v -3.45493078 7.94959 4.403004
v -2.88163376 8.056932 5.129866
v -1.41383862 8.556911 4.69911146
v -0.628388643 8.585847 4.033498
v -1.40944886 8.97020149 3.196609
v -2.22453427 7.706234 5.55633974
v -1.90036976 8.8078 2.67059779
v -1.72946966 8.9305315 3.688825
v -1.05392015 8.510488 2.6749835
v -1.17452776 8.384258 2.69304252
v -1.7887032 8.814515 3.65605259
v -1.71232879 8.833892 3.74402118
v -1.01313961 8.348762 2.70608354
vt -0.0199706852 0.7150605
vt -0.453193933 0.7150605
vt -0.453193933 1.00072145
vt -0.0199706852 1.00072145
vt -0.0199706852 0.7150605
vt -0.453193933 0.7150605
vt -0.453193933 1.00072145
vt -0.0199706852 1.00072145
vt 0.282676041 0.986999452
vt 0.303385377 0.8150104
vt 0.324654758 0.8175335
vt 0.2925064 0.986999452
vt -0.878695 0.9782022
vt -0.8081763 0.6179237
vt -0.758227 0.642705858
vt -0.83158803 0.9847114
vt -0.0199706852 0.7150605
vt -0.453193933 0.7150605
vt -0.453193933 1.00072145
vt -0.0199706852 1.00072145
vt -0.0199706852 0.7150605
vt -0.453193933 0.7150605
vt -0.453193933 1.00072145
vt -0.0199706852 1.00072145
vt -0.20400545 0.304944634
vt -0.215517685 0.410715222
vt -0.415555984 0.410715222
vt -0.415555984 0.154653311
vt -0.187572747 0.153966486
vt -0.0205605 0.410715222
vt -0.02129376 0.67668736
vt -0.263390571 0.67668736
vt -0.02129376 0.153465569
vt -0.415555984 0.67668736
vt -0.364749 1.2956382
vt -0.7107874 1.2956382
vt -0.7019391 1.11064529
vt -0.364749 1.11064529
vt -0.364749 1.11064529
vt -0.734962642 1.11064529
vn 0.102186389 0.986362338 -0.129024535
vn 0.104155742 0.98585 -0.131344721
vn 0.102310911 0.9863302 -0.129171237
vn 0.100413486 0.986815333 -0.126935735
vn 0.0737498552 0.9863623 0.1471407
vn 0.07501984 0.985850155 0.149904951
vn 0.07383015 0.9863302 0.147315472
vn 0.07260648 0.9868151 0.144652158
vn 0.360597283 0.9200637 -0.153142035
vn 0.4999251 0.864445865 -0.0529923849
vn -0.6152101 0.487806827 -0.619323
vn -0.624254465 0.477027237 -0.618669033
vn 0.8206906 0.449177325 0.353138417
vn 0.848473132 0.336632282 0.4083774
vn 0.4999251 0.864445865 -0.0529923849
vn 0.360597283 0.9200637 -0.153142035
vn -0.40869233 0.9064101 -0.106730059
vn -0.409243464 0.905806243 -0.109703623
vn -0.4087273 0.9063722 -0.106918052
vn -0.4081931 0.9069461 -0.104053505
vn 0.2776543 0.8582478 0.4316466
vn 0.277345866 0.856944144 0.434426
vn 0.2776349 0.8581656 0.431822419
vn 0.277929544 0.8594139 0.429142028
vn -0.320631385 0.8555064 0.4065763
vn -0.10537865 0.9792752 0.172960445
vn -0.424600035 0.9040424 -0.04921522
vn -0.602330148 0.770872831 0.2072521
vn -0.327565283 0.746390462 0.579311848
vn 0.131351322 0.8452747 0.5179359
vn 0.270564467 0.9263401 0.262085676
vn -0.04110025 0.9990985 0.0106275519
vn -0.0446054935 0.7062893 0.7065166
vn -0.2636191 0.9632584 -0.0513643
vn 0.3762855 0.91763407 -0.127894431
vn 0.518433 0.8548722 -0.0205119215
vn -0.61297965 0.4969615 -0.614235461
vn -0.619361043 0.489594281 -0.6137502
vn 0.836671531 0.370759964 0.4031349
vn 0.8504269 0.297836721 0.4336674
usemtl nml-bd125_part_3_material_0
f 539/539/539 540/540/540 541/541/541
f 541/541/541 542/542/542 539/539/539
f 543/543/543 544/544/544 545/545/545
f 545/545/545 546/546/546 543/543/543
f 555/555/555 556/556/556 557/557/557
f 557/557/557 558/558/558 555/555/555
f 559/559/559 560/560/560 561/561/561
f 561/561/561 562/562/562 559/559/559
f 563/563/563 564/564/564 565/565/565
f 563/563/563 565/565/565 566/566/566
f 563/563/563 566/566/566 567/567/567
f 564/564/564 568/568/568 569/569/569
f 569/569/569 570/570/570 564/564/564
f 563/563/563 567/567/567 571/571/571
f 563/563/563 571/571/571 568/568/568
f 563/563/563 568/568/568 564/564/564
f 565/565/565 564/564/564 570/570/570
f 570/570/570 572/572/572 565/565/565
usemtl nml-bd125_part_3_material_1
f 547/547/547 548/548/548 549/549/549
f 549/549/549 550/550/550 547/547/547
f 551/551/551 552/552/552 553/553/553
f 553/553/553 554/554/554 551/551/551
f 573/573/573 574/574/574 575/575/575
f 575/575/575 576/576/576 573/573/573
f 577/577/577 578/578/578 574/574/574
f 574/574/574 573/573/573 577/577/577
