mtllib nml-bd165.mtl
o nml-bd165_part_0
v 0.112076111 1.46443522 -0.126348674
v 0.118132882 4.0158 -0.126348674
v 0.253266126 4.015479 0.107709453
v 0.24720937 1.46411419 0.107709453
v -0.1581904 1.46507668 -0.126348674
v -0.152133629 4.01644135 -0.126348674
v 0.118132882 4.0158 -0.126348674
v 0.112076111 1.46443522 -0.126348674
v -0.293323576 1.46539748 0.107709453
v -0.28726685 4.016762 0.10770952
v -0.158190325 1.46507668 0.341767728
v -0.152133554 4.01644135 0.341767728
v 0.112076111 1.46443522 0.341767728
v 0.118132882 4.0158 0.341767728
v -1.49226832 1.484692 1.47639072
v -0.895831048 1.48327637 1.47639072
v -0.935554147 1.48337078 -1.33828557
v -1.458765 1.4846127 -1.33828557
v -0.3328971 1.48194 1.47639072
v 0.6902442 1.47951114 -1.33828557
v -0.3685703 1.48202455 -1.18236661
v 0.230036646 1.48060346 1.47639072
v 0.852944553 1.47912467 1.3549999
v 1.35590434 1.4779309 -1.5224303
v 0.772521555 1.47931576 1.65561271
v -1.49309063 1.13819325 1.47639036
v -0.896653652 1.13677728 1.47639036
v -0.895831048 1.48327637 1.47639072
v -1.49226832 1.484692 1.47639072
v -0.896653652 1.13677728 1.77662623
v -0.3337197 1.135441 1.66995025
v -0.3328971 1.48194 1.66995025
v -0.895831048 1.48327637 1.77662623
v -0.3337197 1.135441 1.47639036
v 0.229214057 1.13410473 1.47639036
v 0.230036646 1.48060346 1.47639072
v -0.3328971 1.48194 1.47639072
v 0.229214057 1.13410473 1.65561271
v 0.771698952 1.13281667 1.65561271
v 0.772521555 1.47931576 1.65561271
v 0.230036646 1.48060346 1.65561271
v 0.8834623 1.13255131 1.65561271
v 1.47639179 1.13114381 1.65561271
v 1.47721434 1.47764289 1.65561271
v 0.8842848 1.4790504 1.65561271
v 1.47639179 1.13114381 1.65561271
v 1.35508168 1.13143182 -1.5224303
v 1.35590434 1.4779309 -1.5224303
v 1.47721434 1.47764289 1.65561271
v 1.35508168 1.13143182 -1.5224303
v 0.835837543 1.13266468 -1.5224303
v 0.8366601 1.47916341 -1.5224303
v 1.35590434 1.4779309 -1.5224303
v 0.689421535 1.133012 -1.33828557
v -0.299940467 1.13536084 -1.41182065
v -0.299117953 1.48185968 -1.41182065
v 0.6902442 1.47951114 -1.33828557
v -0.3945191 1.13558531 -1.60695124
v -0.928952456 1.13685393 -1.65978086
v -0.928129852 1.48335278 -1.65978086
v -0.393696517 1.48208427 -1.60695124
v -0.93637675 1.13687158 -1.33828557
v -1.45958769 1.13811362 -1.33828557
v -1.458765 1.4846127 -1.33828557
v -0.935554147 1.48337078 -1.33828557
v -1.45958769 1.13811362 -1.33828557
v -1.49309063 1.13819325 1.47639036
v -1.49226832 1.484692 1.47639072
v -1.458765 1.4846127 -1.33828557
v -0.895831048 1.48327637 1.77662623
v -0.3328971 1.48194 1.66995025
v -0.895831048 1.48327637 1.47639072
v -0.896653652 1.13677728 1.47639036
v -0.896653652 1.13677728 1.77662623
v -0.895831048 1.48327637 1.77662623
v -0.3337197 1.135441 1.47639036
v -0.3328971 1.48194 1.47639072
v -0.3328971 1.48194 1.66995025
v -0.3337197 1.135441 1.66995025
v 0.230036646 1.48060346 1.65561271
v 1.47721434 1.47764289 1.65561271
v 0.8842848 1.4790504 1.65561271
v 0.230036646 1.48060346 1.47639072
v 0.229214057 1.13410473 1.47639036
v 0.229214057 1.13410473 1.65561271
v 0.230036646 1.48060346 1.65561271
v -0.393696517 1.48208427 -1.60695124
v -0.928129852 1.48335278 -1.65978086
v -0.93637675 1.13687158 -1.33828557
v -0.935554147 1.48337078 -1.33828557
v -0.928129852 1.48335278 -1.65978086
v -0.928952456 1.13685393 -1.65978086
v 0.774073064 1.47931206 -1.16960907
v 0.8366601 1.47916341 -1.5224303
v 0.773250461 1.132813 -1.16960907
v 0.774073064 1.47931206 -1.16960907
v 0.8366601 1.47916341 -1.5224303
v 0.835837543 1.13266468 -1.5224303
v 0.772521555 1.47931576 1.65561271
v 0.771698952 1.13281667 1.65561271
v 0.852122 1.13262594 1.3549999
v 0.852944553 1.47912467 1.3549999
v 0.852944553 1.47912467 1.3549999
v 0.852122 1.13262594 1.3549999
v 0.8834623 1.13255131 1.65561271
v 0.8842848 1.4790504 1.65561271
v -0.299117953 1.48185968 -1.41182065
v -0.299117953 1.48185968 -1.41182065
v -0.299940467 1.13536084 -1.41182065
v -0.368725836 1.135524 -1.18833292
v -0.3685703 1.48202455 -1.18236661
v -0.3685703 1.48202455 -1.18236661
v -0.3945191 1.13558531 -1.60695124
v -0.393696517 1.48208427 -1.60695124
v 0.774073064 1.47931206 -1.16960907
v 0.773250461 1.132813 -1.16960907
v 0.689421535 1.133012 -1.33828557
v 0.6902442 1.47951114 -1.33828557
v -0.0574037 1.78078842 -1.73235238
v -0.121138416 1.849417 -1.61374664
v 0.0544358864 1.87888336 -1.561988
v 0.229729444 1.84858394 -1.61374664
v 0.163958952 1.78026307 -1.732352
v -0.0428392366 0.9591781 -1.36660171
v -0.0427539125 0.995122433 -1.30434453
v -0.121138416 1.849417 -1.61374664
v -0.0574037 1.78078842 -1.73235238
v -0.0427539125 0.995122433 -1.30434453
v 0.147289708 0.9946712 -1.30434453
v 0.229729444 1.84858394 -1.61374664
v 0.0544358864 1.87888336 -1.561988
v -0.121138416 1.849417 -1.61374664
v 0.147289708 0.9946712 -1.30434453
v 0.147204369 0.958727 -1.36660171
v 0.163958952 1.78026307 -1.732352
v 0.229729444 1.84858394 -1.61374664
v 0.147204369 0.958727 -1.36660171
v -0.0428392366 0.9591781 -1.36660171
v -0.0574037 1.78078842 -1.73235238
v 0.163958952 1.78026307 -1.732352
v 1.50297618 1.8660543 0.207866281
v 1.6115638 1.86579657 0.207866281
v 1.6115638 1.86579609 -0.160870492
v 1.50297618 1.86605382 -0.160870492
v 1.3926332 0.9719353 0.118519932
v 1.46452129 0.9717647 0.118519932
v 1.6115638 1.86579657 0.207866281
v 1.50297618 1.8660543 0.207866281
v 1.46452129 0.9717647 0.118519932
v 1.46452129 0.971764565 -0.07152415
v 1.6115638 1.86579609 -0.160870492
v 1.6115638 1.86579657 0.207866281
v 1.46452129 0.971764565 -0.07152415
v 1.3926332 0.9719353 -0.07152415
v 1.50297618 1.86605382 -0.160870492
v 1.6115638 1.86579609 -0.160870492
v 1.3926332 0.9719353 -0.07152415
v 1.3926332 0.9719353 0.118519932
v 1.50297618 1.8660543 0.207866281
v 1.50297618 1.86605382 -0.160870492
v -1.7847234 1.78484666 0.207866132
v -1.59005213 1.82152343 0.207866132
v -1.59026754 1.730868 -0.160870492
v -1.69239855 1.69226182 -0.160870492
v -1.49006164 0.9066899 0.118519865
v -1.4224503 0.9311167 0.118519865
v -1.59005213 1.82152343 0.207866132
v -1.7847234 1.78484666 0.207866132
v -1.4224503 0.9311167 0.118519865
v -1.4224503 0.9311167 -0.07152421
v -1.59026754 1.730868 -0.160870492
v -1.59005213 1.82152343 0.207866132
v -1.4224503 0.9311167 -0.07152421
v -1.49006164 0.9066899 -0.07152421
v -1.69239855 1.69226182 -0.160870492
v -1.59026754 1.730868 -0.160870492
v -1.49006164 0.9066899 -0.07152421
v -1.49006164 0.9066899 0.118519865
v -1.7847234 1.78484666 0.207866132
v -1.69239855 1.69226182 -0.160870492
v -0.057192564 1.86975789 1.538262
v -0.121089764 1.86990952 1.6752156
v 0.0544136 1.86949253 1.73498166
v 0.229777962 1.86907673 1.6752156
v 0.164170161 1.86923242 1.538262
v -0.04280086 0.975342751 1.44422472
v -0.04280086 0.975342751 1.51611292
v -0.121089764 1.86990952 1.6752156
v -0.057192564 1.86975789 1.538262
v -0.04280086 0.975342751 1.51611292
v 0.147242755 0.974891663 1.51611292
v 0.229777962 1.86907673 1.6752156
v 0.0544136 1.86949253 1.73498166
v -0.121089764 1.86990952 1.6752156
v 0.147242755 0.974891663 1.51611292
v 0.147242755 0.974891663 1.44422472
v 0.164170161 1.86923242 1.538262
v 0.229777962 1.86907673 1.6752156
v 0.147242755 0.974891663 1.44422472
v -0.04280086 0.975342751 1.44422472
v -0.057192564 1.86975789 1.538262
v 0.164170161 1.86923242 1.538262
v 0.112478264 1.726152 -1.55473757
v -0.0176011547 1.72646081 -1.55473757
v -0.08108959 2.59185576 -0.119126655
v 0.0403273925 2.59156752 -0.119126655
v -0.0222878959 1.75456285 1.56533623
v 0.112552091 1.75424278 1.56533623
v 0.04030294 2.58121061 0.328251421
v -0.08111412 2.58149862 0.328251421
v 1.57470107 1.72168207 0.107595518
v 1.57470107 1.72168207 -0.0224842578
v 0.16686514 2.60251832 0.04910345
v 0.16686514 2.60251832 0.170520782
v -1.59839118 1.65536523 -0.0388594866
v -1.59839118 1.65536523 0.09598089
v -0.240552813 2.5929985 0.170520663
v -0.240552813 2.5929985 0.0491035841
v -1.32692051 0.930362463 1.13501632
v -1.87428081 0.8517926 1.23149729
v -1.64571333 0.8512498 1.59061432
v -1.2305125 0.8502642 1.68284822
v -1.32692051 0.930362463 1.13501632
v -1.2305125 0.8502642 1.68284822
v -0.8718974 0.8494128 1.45416915
v -0.7799394 0.8491945 1.03853512
v -0.7799394 0.8491945 1.03853512
v -1.00850666 0.849737167 0.679417968
v -1.42370737 0.8507229 0.587184131
v -1.42370737 0.8507229 0.587184131
v -1.78232276 0.8515742 0.815862954
v -1.87428081 0.8517926 1.23149729
v -1.778851 0.359719574 1.77932942
v -2.10209417 0.360486925 1.27146125
v -1.19166815 0.3583256 1.9097681
v -0.6845096 0.357121646 1.586367
v -1.19166815 0.3583256 1.9097681
v -0.5544617 0.3568129 0.9985715
v -0.8777043 0.3575803 0.490702868
v -0.5544617 0.3568129 0.9985715
v -1.4648869 0.358974218 0.3602645
v -1.97204566 0.360178232 0.6836656
v -1.4648869 0.358974218 0.3602645
v -2.10209417 0.360486925 1.27146125
v -1.64813709 -0.169671968 1.59061432
v -1.87670434 -0.169129252 1.23149729
v -1.23293626 -0.170657575 1.6828481
v -0.8743209 -0.171508908 1.45416915
v -1.23293626 -0.170657575 1.6828481
v -0.782362759 -0.17172721 1.03853524
v -1.01093006 -0.1711846 0.6794182
v -0.782362759 -0.17172721 1.03853524
v -1.426131 -0.170198992 0.587184131
v -1.78474629 -0.169347554 0.815863431
v -1.426131 -0.170198992 0.587184131
v -1.87670434 -0.169129252 1.23149729
v 1.28882372 0.9257395 1.14737272
v 1.28863406 0.8458706 0.5917593
v 0.8952833 0.8468044 0.754495144
v 0.7323521 0.8471912 1.14737308
v 1.28882372 0.9257395 1.14737272
v 0.7323521 0.8471912 1.14737308
v 0.8952833 0.8468044 1.54025078
v 1.28863406 0.8458706 1.70298588
v 1.28863406 0.8458706 1.70298588
v 1.68198454 0.844936848 1.54025018
v 1.84491563 0.84455 1.14737272
v 1.84491563 0.84455 1.14737272
v 1.68198419 0.844936848 0.754494548
v 1.28863406 0.8458706 0.5917593
v 0.731184363 0.3553475 0.591759443
v 1.28746653 0.3540269 0.3616168
v 0.5007652 0.355894446 1.14737308
v 0.731184542 0.3553475 1.70298564
v 0.5007652 0.355894446 1.14737308
v 1.28746653 0.3540269 1.93312848
v 1.84374845 0.352706373 1.70298564
v 1.28746653 0.3540269 1.93312848
v 2.07416773 0.352159321 1.14737272
v 1.84374833 0.352706373 0.591759443
v 2.07416773 0.352159321 1.14737272
v 1.28746653 0.3540269 0.3616168
v 0.8928598 -0.174117461 0.754495263
v 1.28621066 -0.1750512 0.591759741
v 0.7299285 -0.173730671 1.14737332
v 0.8928598 -0.174117461 1.54025018
v 0.7299285 -0.173730671 1.14737332
v 1.28621066 -0.1750512 1.70298588
v 1.67956126 -0.175985038 1.54025018
v 1.28621066 -0.1750512 1.70298588
v 1.84249222 -0.176371828 1.14737308
v 1.679561 -0.175985038 0.7544948
v 1.84249222 -0.176371828 1.14737308
v 1.28621066 -0.1750512 0.591759741
v -1.15582538 0.930362463 -1.11123836
v -0.9212035 0.849936247 -1.61479533
v -1.346475 0.8509457 -1.63354433
v -1.66017771 0.8516904 -1.3463341
v -1.15582538 0.930362463 -1.11123836
v -1.66017771 0.8516904 -1.3463341
v -1.67854881 0.851734042 -0.921407759
v -1.39082658 0.851051 -0.6076818
v -1.39082658 0.851051 -0.6076818
v -0.9655551 0.8500414 -0.588932455
v -0.6518525 0.8492968 -0.8761428
v -0.6518525 0.8492968 -0.8761428
v -0.6334813 0.849253058 -1.30106938
v -0.9212035 0.849936247 -1.61479533
v -1.42653382 0.359289348 -1.84989047
v -0.8251088 0.357861638 -1.82337511
v -1.87017655 0.360342622 -1.44371331
v -1.896157 0.360404253 -0.842777133
v -1.87017655 0.360342622 -1.44371331
v -1.4892565 0.359438241 -0.399101645
v -0.8878315 0.35801053 -0.3725864
v -1.4892565 0.359438241 -0.399101645
v -0.444188923 0.356957316 -0.778763056
v -0.41820848 0.3568957 -1.37969959
v -0.444188923 0.356957316 -0.778763056
v -0.8251088 0.357861638 -1.82337511
v -1.34889865 -0.169976071 -1.63354433
v -0.923627 -0.170985624 -1.61479533
v -1.66260135 -0.169231355 -1.34633386
v -1.68097234 -0.169187739 -0.921407759
v -1.66260135 -0.169231355 -1.34633386
v -1.39325023 -0.169870779 -0.607681751
v -0.9679787 -0.170880347 -0.588932455
v -1.39325023 -0.169870779 -0.607681751
v -0.654276 -0.171625048 -0.8761428
v -0.635905 -0.171668664 -1.301069
v -0.654276 -0.171625048 -0.8761428
v -0.923627 -0.170985624 -1.61479533
v 1.26670754 0.9259689 -1.00357723
v 0.785343945 0.847242236 -1.281384
v 0.7296014 0.8473747 -0.8593635
v 0.9883771 0.8467603 -0.521821856
v 1.26670754 0.9259689 -1.00357723
v 0.9883771 0.8467603 -0.521821856
v 1.41008377 0.8457593 -0.466485769
v 1.74769175 0.8449577 -0.7257708
v 1.74769175 0.8449577 -0.7257708
v 1.80343449 0.8448254 -1.1477915
v 1.54465866 0.8454397 -1.485333
v 1.54465866 0.8454397 -1.485333
v 1.12295163 0.8464408 -1.54066885
v 0.785343945 0.847242236 -1.281384
v 0.5060357 0.356059 -0.7996283
v 0.5848678 0.3558718 -1.396455
v 0.8719998 0.355190217 -0.322271854
v 1.46838355 0.353774369 -0.244015127
v 0.8719998 0.355190217 -0.322271854
v 1.94583237 0.352641 -0.6106995
v 2.02466559 0.352453828 -1.20752668
v 1.94583237 0.352641 -0.6106995
v 1.65870082 0.353322685 -1.684883
v 1.062317 0.3547384 -1.76313961
v 1.65870082 0.353322685 -1.684883
v 0.5848678 0.3558718 -1.396455
v 0.7271779 -0.1735472 -0.8593635
v 0.7829204 -0.173679411 -1.281384
v 0.9859536 -0.174161464 -0.521821737
v 1.40766025 -0.175162613 -0.466485828
v 0.9859536 -0.174161464 -0.521821737
v 1.74526811 -0.175964072 -0.7257708
v 1.80101073 -0.17609629 -1.1477915
v 1.74526811 -0.175964072 -0.7257708
v 1.54223526 -0.175482035 -1.485333
v 1.12052834 -0.17448099 -1.54066885
v 1.54223526 -0.175482035 -1.485333
v 0.7829204 -0.173679411 -1.281384
v -1.69372189 0.9906641 -1.12812138
v -1.69415271 0.8091845 -1.05387986
v -1.69421554 0.7827396 -0.8595927
v -1.69384742 0.9377749 -0.739547
v -1.6934166 1.11925471 -0.813788831
v -1.69335389 1.14569879 -1.00807607
v 1.69940293 0.982609034 -1.12812138
v 1.698972 0.80112946 -1.05387986
v -1.69415271 0.8091845 -1.05387986
v -1.69372189 0.9906641 -1.12812138
v 1.69977081 1.13764369 -1.00807607
v 1.69940293 0.982609034 -1.12812138
v -1.69372189 0.9906641 -1.12812138
v -1.69335389 1.14569879 -1.00807607
v 1.6997081 1.11119878 -0.813788831
v -1.6934166 1.11925471 -0.813788831
v 1.6992774 0.9297191 -0.739547
v 1.6997081 1.11119878 -0.813788831
v -1.6934166 1.11925471 -0.813788831
v -1.69384742 0.9377749 -0.739547
v 1.69890916 0.7746845 -0.8595927
v -1.69421554 0.7827396 -0.8595927
v 1.69977081 1.13764369 -1.00807607
v 1.6997081 1.11119878 -0.813788831
v 1.6992774 0.9297191 -0.739547
v 1.69890916 0.7746845 -0.8595927
v 1.698972 0.80112946 -1.05387986
v 1.69940293 0.982609034 -1.12812138
v -1.86883724 0.9910798 0.805303931
v -1.86926806 0.8096002 0.8795455
v -1.86933088 0.7831552 1.07383287
v -1.86896276 0.9381906 1.19387829
v -1.868532 1.11967027 1.11963654
v -1.86846924 1.14611447 0.925349355
v 1.88651526 0.98216486 0.8053042
v 1.88608444 0.8006853 0.8795459
v -1.86926806 0.8096002 0.8795455
v -1.86883724 0.9910798 0.805303931
v 1.88688338 1.13719952 0.9253494
v 1.88651526 0.98216486 0.8053042
v -1.86883724 0.9910798 0.805303931
v -1.86846924 1.14611447 0.925349355
v 1.88682055 1.11075544 1.11963677
v -1.868532 1.11967027 1.11963654
v 1.88638973 0.929275751 1.19387841
v 1.88682055 1.11075544 1.11963677
v -1.868532 1.11967027 1.11963654
v -1.86896276 0.9381906 1.19387829
v 1.88602173 0.7742403 1.073833
v -1.86933088 0.7831552 1.07383287
v 1.88688338 1.13719952 0.9253494
v 1.88682055 1.11075544 1.11963677
v 1.88638973 0.929275751 1.19387841
v 1.88602173 0.7742403 1.073833
v 1.88608444 0.8006853 0.8795459
v 1.88651526 0.98216486 0.8053042
v 0.21780923 2.65778 0.08626267
v 0.3151214 1.96613884 0.157610029
v 0.229891226 1.96480536 -0.302669585
v 0.1365262 2.65835476 -0.10970252
v -0.254136056 2.56762218 0.151843339
v -0.4272163 1.75087118 -0.1251033
v -0.214502186 1.74686372 0.615797162
v -0.0943134055 2.5638988 0.327865362
v 0.27732116 5.16615152 0.107709683
v 0.131526381 5.16649771 -0.144815177
v 0.132063642 5.392821 -0.144815117
v 0.2778583 5.39247465 0.107709683
v -0.160063609 5.16719 -0.144815177
v -0.159526333 5.39351368 -0.144815117
v -0.305858552 5.167536 0.107709683
v -0.305321276 5.39385939 0.107709683
v -0.160063609 5.16719 0.707002759
v -0.159526333 5.39351368 0.7070028
v 0.175111219 5.16639376 0.707002759
v 0.175648481 5.39271736 0.707002759
v 0.27732116 5.16615152 0.107709683
v 0.2778583 5.39247465 0.107709683
v -0.147990555 5.76169348 -0.126348466
v -0.283123761 5.762014 0.107709683
v -0.1479905 5.76169348 0.341767937
v 0.122275926 5.761051 0.341767937
v 0.2574092 5.76073074 0.107709683
v 0.122275926 5.761051 -0.126348466
v 1.03348 7.51776743 0.7332938
v 1.02602112 4.37548971 0.9648125
v -0.8980376 4.38005733 0.9648125
v -0.890578866 7.522334 0.7332938
v -0.898037434 4.38005733 0.9970566
v 1.026021 4.37548971 0.9970566
v 1.03347993 7.51776743 0.765537441
v -0.8905787 7.522334 0.765537441
v 1.21314156 7.464264 0.800634861
v 1.21314156 7.464264 0.6743142
v 1.21344149 7.590583 0.6743142
v 1.21344149 7.590583 0.800634861
v -1.1066941 7.46977 0.800634861
v -1.10639417 7.59609032 0.800634861
v -1.10639417 7.59609032 0.6743142
v -1.1066941 7.46977 0.6743142
v 1.21314156 7.464264 0.800634861
v 1.21344149 7.590583 0.800634861
v -1.10639417 7.59609032 0.800634861
v -1.1066941 7.46977 0.800634861
v 1.21344149 7.590583 0.800634861
v 1.21344149 7.590583 0.6743142
v -1.10639417 7.59609032 0.6743142
v -1.10639417 7.59609032 0.800634861
v 1.21344149 7.590583 0.6743142
v 1.21314156 7.464264 0.6743142
v -1.1066941 7.46977 0.6743142
v -1.10639417 7.59609032 0.6743142
v 0.109565958 8.08357048 0.349869132
v 0.20631963 8.08334 0.5174514
v 0.198101908 4.62169647 0.5174514
v 0.101348259 4.62192535 0.349869132
v -0.0839410946 8.084028 0.349869132
v 0.109565958 8.08357048 0.349869132
v 0.101348259 4.62192535 0.349869132
v -0.09215881 4.622385 0.349869132
v -0.18069461 8.084259 0.5174514
v -0.188912332 4.62261534 0.5174514
v -0.0839410946 8.084028 0.6850339
v -0.09215881 4.622385 0.6850339
v 0.109566025 8.08357048 0.6850339
v 0.101348311 4.62192535 0.6850339
v -0.0839410946 8.084028 0.349869132
v -0.18069461 8.084259 0.5174514
v -0.0839410946 8.084028 0.6850339
v 0.109566025 8.08357048 0.6850339
v 0.20631963 8.08334 0.5174514
v 0.109565958 8.08357048 0.349869132
v 0.2768011 4.94709444 0.107709557
v 0.131006479 4.94744062 -0.144815236
v 0.131543741 5.17376328 -0.144815236
v 0.277338237 5.173418 0.107709557
v -0.160583645 4.94813251 -0.144815236
v -0.160046369 5.17445564 -0.144815236
v -0.306378543 4.9484787 0.107709557
v -0.3058413 5.174802 0.107709557
v -0.160583645 4.94813251 0.70700264
v -0.160046369 5.17445564 0.707002759
v 0.174591333 4.947337 0.70700264
v 0.175128624 5.17366028 0.70700264
v 0.2768011 4.94709444 0.107709557
v 0.277338237 5.173418 0.107709557
v -0.16005978 5.01658249 0.512021065
v -0.221835017 4.292211 0.7335047
v -0.264739484 4.15144539 0.218372554
v -0.220861435 5.01672649 0.319783866
v 0.301082462 5.13715172 0.171814054
v 0.3651387 4.441588 0.263102174
v 0.185439587 4.45293331 -0.180267721
v 0.153300583 5.14584351 -0.104206227
v -0.29266575 4.15151167 0.215929329
v -0.2497613 4.29227734 0.7310615
v -0.187986135 5.016649 0.5095777
v -0.248787716 5.01679325 0.317340344
v -0.117003374 7.00880861 0.2214331
v -0.31509918 6.99195147 0.64778614
v -0.174497679 7.58939266 0.45989722
v -0.08509456 7.5970006 0.362357736
v 0.122275926 5.761051 -0.126348466
v 0.2574092 5.76073074 0.107709683
v -0.147990555 5.76169348 -0.126348466
v 0.122275926 5.761051 -0.126348466
v -0.283123761 5.762014 0.107709683
v -0.1479905 5.76169348 0.341767937
v 0.122275926 5.761051 0.341767937
vt 0.9940918 0
vt 0.9940918 0.5920249
vt 0.929092646 0.5920249
vt 0.9290927 0
vt 0.669096053 0
vt 0.669096053 0.5920249
vt 0.6040967 0.5920249
vt 0.6040967 0
vt 0.734095156 0
vt 0.734095156 0.5920249
vt 0.79909426 0
vt 0.79909426 0.5920249
vt 0.8640936 0
vt 0.864093542 0.5920249
vt 0.067687504 0.193439782
vt 0.20733881 0.192674041
vt 0.197829634 0.869475961
vt 0.07269203 0.8705053
vt 0.342554033 0.192813158
vt 0.588410556 0.8693545
vt 0.3341898 0.831977367
vt 0.477886558 0.192880034
vt 0.627965152 0.221740067
vt 0.7492133 0.9120621
vt 0.6085204 0.149151623
vt 0.06763283 0.120437205
vt 0.207825869 0.121241331
vt 0.20733881 0.192674041
vt 0.067687504 0.193439782
vt 0.222939551 0.0416394472
vt 0.358879864 0.06417799
vt 0.3444227 0.1462574
vt 0.207825869 0.121241331
vt 0.347404748 0.137809157
vt 0.476699531 0.135905564
vt 0.477886558 0.192880034
vt 0.342554033 0.192813158
vt 0.477949381 0.06552738
vt 0.6084175 0.06552738
vt 0.6085204 0.149151623
vt 0.478052378 0.149151623
vt 0.638067365 0.0658294559
vt 0.7806674 0.0658294559
vt 0.780914068 0.148380339
vt 0.6367849 0.149302661
vt 0.870264649 0.148748875
vt 0.8330192 0.9127184
vt 0.7492133 0.9120621
vt 0.780914068 0.148380339
vt 0.7493022 0.9964162
vt 0.624423444 0.9964162
vt 0.6242986 0.9133096
vt 0.7493022 0.913082957
vt 0.593369961 0.9517792
vt 0.355632842 0.9720651
vt 0.349329621 0.8884095
vt 0.588410556 0.8693545
vt 0.331840783 0.9952196
vt 0.20319283 1.00354493
vt 0.1970669 0.9433324
vt 0.326911479 0.934447944
vt 0.47369653 0.06999558
vt 0.604299 0.06999558
vt 0.6027086 0.146891713
vt 0.47369653 0.146891713
vt 0.00474673137 0.8715345
vt 0.00474678027 0.194556236
vt 0.0685773 0.193439782
vt 0.07269203 0.8705053
vt 0.207825869 0.121241331
vt 0.3444227 0.1462574
vt 0.471487045 0.14618814
vt 0.471487045 0.069911
vt 0.5467178 0.069911
vt 0.5467178 0.14618814
vt 0.5429402 0.1460982
vt 0.5429402 0.0715178847
vt 0.608197451 0.0715178847
vt 0.608197451 0.1460982
vt 0.478052378 0.149151623
vt 0.780914068 0.148380339
vt 0.6367849 0.149302661
vt 0.599412441 0.145198286
vt 0.599412441 0.07165462
vt 0.6425154 0.07165462
vt 0.6425154 0.145198286
vt 0.326911479 0.934447944
vt 0.1970669 0.9466872
vt 0.608197451 0.1460982
vt 0.608197451 0.0715178847
vt 0.5429402 0.0715178847
vt 0.5429402 0.1460982
vt 0.60899657 0.828909159
vt 0.6242986 0.9133096
vt 0.5429402 0.0715178847
vt 0.5429402 0.1460982
vt 0.608197451 0.1460982
vt 0.608197451 0.0715178847
vt 0.608197451 0.1460982
vt 0.608197451 0.0715178847
vt 0.5429402 0.0715178847
vt 0.5429402 0.1460982
vt 0.5429402 0.0715178847
vt 0.5429402 0.1492939
vt 0.608197451 0.1492939
vt 0.608197451 0.0715178847
vt 0.349329621 0.8884095
vt 0.608197451 0.1460982
vt 0.608197451 0.0715178847
vt 0.5429402 0.0715178847
vt 0.5429402 0.1460982
vt 0.5429402 0.1492939
vt 0.608197451 0.0715178847
vt 0.608197451 0.1492939
vt 0.608197451 0.0715178847
vt 0.5429402 0.0715178847
vt 0.5429402 0.1460982
vt 0.608197451 0.1460982
vt 0.102248684 0.286973476
vt 0.120398872 0.3279577
vt 0.0613151528 0.351453662
vt 0.00227921573 0.3260451
vt 0.0261180289 0.2869736
vt 0.0638590157 0.0114184618
vt 0.101579741 0.0114184618
vt 0.101579741 0.244354665
vt 0.0638590157 0.244354665
vt 0.101579741 0.0114184618
vt 0.148795977 0.0114184618
vt 0.178096458 0.244354665
vt 0.135258123 0.244354665
vt 0.101579741 0.244354665
vt 0.101579741 0.0114184618
vt 0.0638590157 0.0114184618
vt 0.0638590157 0.244354665
vt 0.101579741 0.244354665
vt 0.0122562349 0.0114184618
vt 0.0638590157 0.0114184618
vt 0.0638590157 0.244354665
vt 0.0122562349 0.244354665
vt 0.005474177 0.2879722
vt 0.005474177 0.246242642
vt 0.126642451 0.246242642
vt 0.126642451 0.2879722
vt 0.0437591635 0.027223289
vt 0.06327631 0.027223289
vt 0.06327631 0.243947744
vt 0.0424804054 0.243947744
vt 0.06327631 0.027223289
vt 0.123328663 0.027223289
vt 0.147128224 0.243947744
vt 0.06327631 0.243947744
vt 0.123328663 0.027223289
vt 0.152501911 0.027223289
vt 0.176301479 0.243947744
vt 0.147128224 0.243947744
vt 0.0929570049 0.027223289
vt 0.0437591635 0.027223289
vt 0.0424804054 0.243947744
vt 0.102320425 0.243947744
vt 0.005474177 0.2879722
vt 0.005474177 0.246242642
vt 0.126642451 0.246242642
vt 0.126642451 0.2879722
vt 0.0437591635 0.027223289
vt 0.06327631 0.027223289
vt 0.06327631 0.243947744
vt 0.0424804054 0.243947744
vt 0.06327631 0.027223289
vt 0.123328663 0.027223289
vt 0.147128224 0.243947744
vt 0.06327631 0.243947744
vt 0.123328663 0.027223289
vt 0.152501911 0.027223289
vt 0.176301479 0.243947744
vt 0.147128224 0.243947744
vt 0.0929570049 0.027223289
vt 0.0437591635 0.027223289
vt 0.0424804054 0.243947744
vt 0.102320425 0.243947744
vt 0.102248684 0.286973476
vt 0.120398872 0.3279577
vt 0.0613151528 0.351453662
vt 0.00227921573 0.3260451
vt 0.0261180289 0.2869736
vt 0.0638590157 0.0114184618
vt 0.101579741 0.0114184618
vt 0.101579741 0.244354665
vt 0.0638590157 0.244354665
vt 0.101579741 0.0114184618
vt 0.148795977 0.0114184618
vt 0.178096458 0.244354665
vt 0.135258123 0.244354665
vt 0.101579741 0.244354665
vt 0.101579741 0.0114184618
vt 0.0638590157 0.0114184618
vt 0.0638590157 0.244354665
vt 0.101579741 0.244354665
vt 0.0122562349 0.0114184618
vt 0.0638590157 0.0114184618
vt 0.0638590157 0.244354665
vt 0.0122562349 0.244354665
vt 0.5980528 0.329895854
vt 0.5980528 0.3004278
vt 0.9937105 0.3004278
vt 0.9937105 0.329895854
vt 0.5980528 0.329895854
vt 0.5980528 0.3004278
vt 0.9937105 0.3004278
vt 0.9937105 0.329895854
vt 0.5980528 0.329895854
vt 0.5980528 0.3004278
vt 0.9937105 0.3004278
vt 0.9937105 0.329895854
vt 0.5980528 0.329895854
vt 0.5980528 0.3004278
vt 0.9937105 0.3004278
vt 0.9937105 0.329895854
vt 0.828037739 0.50520587
vt 0.7201494 0.354360461
vt 0.82822156 0.3411045
vt 0.9478284 0.354351163
vt 0.828405142 0.50520587
vt 0.947936058 0.354360461
vt 0.8282213 0.3411045
vt 0.720257044 0.354351163
vt 0.7201494 0.354360461
vt 0.82822156 0.3411045
vt 0.9478284 0.354351163
vt 0.947936058 0.354360461
vt 0.8282213 0.3411045
vt 0.720257044 0.354351163
vt 0.828297734 0.1532771
vt 0.6566218 0.172023833
vt 0.9987626 0.172010541
vt 0.828145146 0.1532771
vt 0.9987626 0.172023833
vt 0.6566218 0.172010541
vt 0.828297734 0.1532771
vt 0.6566218 0.172023833
vt 0.9987626 0.172010541
vt 0.828145146 0.1532771
vt 0.9987626 0.172023833
vt 0.6566218 0.172010541
vt 0.82822156 0.00292986631
vt 0.705331564 0.01618582
vt 0.9510037 0.0161764026
vt 0.8282213 0.00292986631
vt 0.9511113 0.01618582
vt 0.7054392 0.0161764026
vt 0.82822156 0.00292986631
vt 0.705331564 0.01618582
vt 0.9510037 0.0161764026
vt 0.8282213 0.00292986631
vt 0.9511113 0.01618582
vt 0.7054392 0.0161764026
vt 0.828037739 0.50520587
vt 0.7201494 0.354360461
vt 0.82822156 0.3411045
vt 0.9478284 0.354351163
vt 0.828405142 0.50520587
vt 0.947936058 0.354360461
vt 0.8282213 0.3411045
vt 0.720257044 0.354351163
vt 0.7201494 0.354360461
vt 0.82822156 0.3411045
vt 0.9478284 0.354351163
vt 0.947936058 0.354360461
vt 0.8282213 0.3411045
vt 0.720257044 0.354351163
vt 0.828297734 0.1532771
vt 0.6566218 0.172023833
vt 0.9987626 0.172010541
vt 0.828145146 0.1532771
vt 0.9987626 0.172023833
vt 0.6566218 0.172010541
vt 0.828297734 0.1532771
vt 0.6566218 0.172023833
vt 0.9987626 0.172010541
vt 0.828145146 0.1532771
vt 0.9987626 0.172023833
vt 0.6566218 0.172010541
vt 0.82822156 0.00292986631
vt 0.705331564 0.01618582
vt 0.9510037 0.0161764026
vt 0.8282213 0.00292986631
vt 0.9511113 0.01618582
vt 0.7054392 0.0161764026
vt 0.82822156 0.00292986631
vt 0.705331564 0.01618582
vt 0.9510037 0.0161764026
vt 0.8282213 0.00292986631
vt 0.9511113 0.01618582
vt 0.7054392 0.0161764026
vt 0.828037739 0.50520587
vt 0.7201494 0.354360461
vt 0.82822156 0.3411045
vt 0.9478284 0.354351163
vt 0.828405142 0.50520587
vt 0.947936058 0.354360461
vt 0.8282213 0.3411045
vt 0.720257044 0.354351163
vt 0.7201494 0.354360461
vt 0.82822156 0.3411045
vt 0.9478284 0.354351163
vt 0.947936058 0.354360461
vt 0.8282213 0.3411045
vt 0.720257044 0.354351163
vt 0.828297734 0.1532771
vt 0.6566218 0.172023833
vt 0.9987626 0.172010541
vt 0.828145146 0.1532771
vt 0.9987626 0.172023833
vt 0.6566218 0.172010541
vt 0.828297734 0.1532771
vt 0.6566218 0.172023833
vt 0.9987626 0.172010541
vt 0.828145146 0.1532771
vt 0.9987626 0.172023833
vt 0.6566218 0.172010541
vt 0.82822156 0.00292986631
vt 0.705331564 0.01618582
vt 0.9510037 0.0161764026
vt 0.8282213 0.00292986631
vt 0.9511113 0.01618582
vt 0.7054392 0.0161764026
vt 0.82822156 0.00292986631
vt 0.705331564 0.01618582
vt 0.9510037 0.0161764026
vt 0.8282213 0.00292986631
vt 0.9511113 0.01618582
vt 0.7054392 0.0161764026
vt 0.828037739 0.50520587
vt 0.7201494 0.354360461
vt 0.82822156 0.3411045
vt 0.9478284 0.354351163
vt 0.828405142 0.50520587
vt 0.947936058 0.354360461
vt 0.8282213 0.3411045
vt 0.720257044 0.354351163
vt 0.7201494 0.354360461
vt 0.82822156 0.3411045
vt 0.9478284 0.354351163
vt 0.947936058 0.354360461
vt 0.8282213 0.3411045
vt 0.720257044 0.354351163
vt 0.828297734 0.1532771
vt 0.6566218 0.172023833
vt 0.9987626 0.172010541
vt 0.828145146 0.1532771
vt 0.9987626 0.172023833
vt 0.6566218 0.172010541
vt 0.828297734 0.1532771
vt 0.6566218 0.172023833
vt 0.9987626 0.172010541
vt 0.828145146 0.1532771
vt 0.9987626 0.172023833
vt 0.6566218 0.172010541
vt 0.82822156 0.00292986631
vt 0.705331564 0.01618582
vt 0.9510037 0.0161764026
vt 0.8282213 0.00292986631
vt 0.9511113 0.01618582
vt 0.7054392 0.0161764026
vt 0.82822156 0.00292986631
vt 0.705331564 0.01618582
vt 0.9510037 0.0161764026
vt 0.8282213 0.00292986631
vt 0.9511113 0.01618582
vt 0.7054392 0.0161764026
vt 0.126410022 0.9639798
vt 0.126242876 0.9126805
vt 0.06610173 0.8880815
vt 0.010015592 0.9199698
vt 0.009627327 0.9652165
vt 0.070324026 0.99111253
vt 0.922076464 0.9954566
vt 0.8473227 0.9954566
vt 0.8473229 0.00527900457
vt 0.922076464 0.00527900457
vt 0.99690485 0.9954566
vt 0.922150731 0.9954566
vt 0.922150731 0.00527900457
vt 0.996905 0.00527900457
vt 0.9221513 0.995456457
vt 0.9221513 0.00527888536
vt 0.847322941 0.995456457
vt 0.92207706 0.995456457
vt 0.92207706 0.00527888536
vt 0.847322762 0.00527888536
vt 0.92207706 0.995456457
vt 0.92207706 0.00527888536
vt 0.0403815135 0.99111253
vt 0.09852775 0.990965068
vt 0.126410022 0.9379058
vt 0.09026555 0.888424039
vt 0.0389797 0.8880815
vt 0.009627327 0.9416309
vt 0.0403814837 0.99111253
vt 0.09852777 0.990965068
vt 0.126410007 0.9379058
vt 0.09026556 0.888424039
vt 0.03897968 0.8880815
vt 0.009627327 0.9416309
vt 0.922076464 0.005278945
vt 0.8473227 0.005278945
vt 0.8473229 0.9954565
vt 0.922076464 0.9954565
vt 0.99690485 0.005278945
vt 0.922150731 0.005278945
vt 0.922150731 0.9954565
vt 0.996905 0.9954565
vt 0.9221513 0.00527900457
vt 0.9221513 0.995456636
vt 0.847322941 0.00527900457
vt 0.92207706 0.00527900457
vt 0.92207706 0.995456636
vt 0.847322762 0.995456636
vt 0.92207706 0.00527900457
vt 0.92207706 0.995456636
vt 0.0403815135 0.8880815
vt 0.09852775 0.888228953
vt 0.126410022 0.941288233
vt 0.09026555 0.99077
vt 0.0389797 0.99111253
vt 0.009627327 0.9375631
vt 0.230990484 0.206284881
vt 0.2191249 0.00299650431
vt 0.356426924 0.004565835
vt 0.293233126 0.206797719
vt 0.230990484 0.206284881
vt 0.2191249 0.00299650431
vt 0.356426924 0.004565835
vt 0.293233126 0.206797719
vt 0.8241674 0.233179092
vt 0.7346161 0.233179092
vt 0.7346161 0.3312738
vt 0.8241674 0.3312738
vt 0.6875706 0.233178973
vt 0.6875706 0.3312738
vt 0.595185637 0.233179092
vt 0.595185637 0.3312738
vt 0.746050239 0.233179092
vt 0.746050239 0.3312738
vt 0.8434348 0.233179092
vt 0.8434348 0.3312738
vt 0.9959859 0.233179092
vt 0.9959859 0.3312738
vt 0.03888914 0.9910469
vt 0.009860666 0.9397109
vt 0.03888914 0.8883749
vt 0.09694609 0.8883749
vt 0.125974566 0.9397109
vt 0.09694609 0.9910469
vt 0.03240424 0.9623617
vt 0.0324041136 0
vt 0.528411567 0
vt 0.5284117 0.9623617
vt 0.03476679 0.009149134
vt 0.5286117 0.009149134
vt 0.5286116 0.9690156
vt 0.0347666 0.9690156
vt 0.7911374 0.0449793935
vt 0.7911374 0.07988846
vt 0.7595221 0.07988846
vt 0.7595221 0.0449793935
vt 0.7911374 0.0449793935
vt 0.7911374 0.07988846
vt 0.7595221 0.07988846
vt 0.7595221 0.0449793935
vt 0.568334162 0.998194635
vt 0.568334162 0.958503246
vt 0.00270592258 0.958503246
vt 0.00270592258 0.998194635
vt 0.568334162 0.958503246
vt 0.568334162 0.998194635
vt 0.00270592258 0.998194635
vt 0.00270592258 0.958503246
vt 0.568334162 0.998194635
vt 0.568334162 0.958503246
vt 0.00270592258 0.958503246
vt 0.00270592258 0.998194635
vt 0.9918617 0
vt 0.9271153 0
vt 0.9271153 0.8325284
vt 0.9918617 0.8325284
vt 0.6681298 0
vt 0.603383243 0
vt 0.603383243 0.8325284
vt 0.6681298 0.8325284
vt 0.7328761 0
vt 0.7328761 0.8325284
vt 0.7976225 0
vt 0.7976225 0.8325284
vt 0.862369 0
vt 0.862369 0.8325284
vt 0.04119455 0.990423441
vt 0.009623996 0.9383375
vt 0.04119455 0.8862514
vt 0.09505256 0.8862514
vt 0.126623124 0.9383375
vt 0.09505256 0.990423441
vt 0.767004132 0.233179092
vt 0.8565554 0.233179092
vt 0.8565554 0.3312738
vt 0.767004132 0.3312738
vt 0.903600931 0.233178973
vt 0.903600931 0.3312738
vt 0.995985866 0.233179092
vt 0.995985866 0.3312738
vt 0.845121264 0.233179092
vt 0.845121264 0.3312738
vt 0.7477367 0.233179092
vt 0.7477367 0.3312738
vt 0.5951856 0.233179092
vt 0.5951856 0.3312738
vt 0.293233126 0.206797719
vt 0.356426924 0.004565835
vt 0.2191249 0.00299650431
vt 0.230990484 0.206284881
vt 0.293233126 0.206797719
vt 0.356426924 0.004565835
vt 0.2191249 0.00299650431
vt 0.230990484 0.206284881
vt 0.356426924 0.004565835
vt 0.2191249 0.00299650431
vt 0.230990484 0.206284881
vt 0.293233126 0.206797719
vt 0.2191249 0.00299650431
vt 0.356426924 0.004565835
vt 0.293233126 0.206797719
vt 0.230990484 0.206284881
vt 0.9940918 0.9969975
vt 0.9290927 0.9969975
vt 0.669096053 0.9969975
vt 0.6040967 0.9969975
vt 0.734095156 0.9969975
vt 0.79909426 0.9969975
vt 0.8640936 0.9969975
vn 0.49999848 -0.00118696317 -0.866025448
vn 0.49999854 -0.00118696329 -0.866025448
vn 0.9999972 -0.00237392681 -1.15148964E-07
vn 0.9999972 -0.002373927 -1.111224E-07
vn -0.4999987 0.00118696375 -0.8660253
vn -0.4999982 0.00118696154 -0.8660256
vn 0.49999854 -0.00118696329 -0.866025448
vn 0.49999848 -0.00118696317 -0.866025448
vn -0.9999972 0.00237391074 -1.41201282E-08
vn -0.9999972 0.002373925 1.1644206E-07
vn -0.4999987 0.00118694862 0.8660253
vn -0.499998122 0.00118696247 0.8660257
vn 0.499998659 -0.00118696364 0.8660254
vn 0.4999987 -0.00118696352 0.8660253
vn 0.00237346184 0.9999972 5.22561727E-08
vn 0.00237363018 0.9999972 6.50090559E-09
vn 0.00237362087 0.9999972 8.367776E-08
vn 0.00237364881 0.9999972 8.921062E-08
vn 0.00237403577 0.9999972 3.25368532E-08
vn 0.00237386534 0.9999972 -4.29507452E-08
vn 0.00237377663 0.9999972 -8.049373E-08
vn 0.00237414753 0.9999972 5.762251E-09
vn 0.00237397617 0.9999972 -1.52922851E-07
vn 0.00237402483 0.9999972 9.75144E-08
vn 0.00237389142 0.9999972 -5.87083434E-07
vn -2.449869E-09 -1.03211266E-06 1
vn -2.45027976E-09 -1.032112E-06 1
vn -2.45007281E-09 -1.03211232E-06 1
vn -2.44966225E-09 -1.032113E-06 1
vn 0.186185449 -0.000442012242 0.9825145
vn 0.186185464 -0.000442012271 0.9825145
vn 0.186185464 -0.000442012271 0.9825145
vn 0.186185464 -0.000442012271 0.9825145
vn -2.45031573E-09 -1.03211232E-06 1
vn -2.449892E-09 -1.032113E-06 1
vn -2.45012144E-09 -1.03211266E-06 1
vn -2.45054554E-09 -1.032112E-06 1
vn 0 0 1
vn 0.6089144 -0.00144558889 0.793234646
vn 0.608914435 -0.00144553382 0.7932346
vn 0 0 1
vn -0.6694406 0.001589114 0.7428639
vn 0 0 1
vn 0 0 1
vn -0.6694408 0.00158905087 0.7428637
vn 0.9992694 -0.00237216055 -0.03814362
vn 0.9992694 -0.00237248046 -0.0381436534
vn 0.9992694 -0.00237245671 -0.03814365
vn 0.9992694 -0.00237213657 -0.0381436162
vn 0 0 -1
vn 0 0 -1
vn 0 0 -1
vn 0 0 -1
vn 0.07412089 -0.00017597212 -0.997249246
vn -0.563826 0.00133840274 -0.8258925
vn -0.56501925 0.00259427982 -0.8250736
vn 0.07412088 -0.0001759789 -0.997249246
vn 0.72053957 -0.0008582372 -0.6934133
vn 0.09837165 -0.000233538667 -0.995149732
vn 0.09837164 -0.000233535538 -0.995149732
vn 0.720904231 -0.00171139615 -0.6930326
vn 0 0 -1
vn 0 0 -1
vn 0 0 -1
vn 0 0 -1
vn -0.9999263 0.0023739608 -0.0119022522
vn -0.9999263 0.00237302273 -0.0119021377
vn -0.9999263 0.00237310212 -0.011902147
vn -0.9999263 0.00237404 -0.0119022625
vn 0.0023738707 0.9999972 0
vn 0.0023738707 0.9999972 0
vn -0.9999972 0.00237403624 0
vn -0.9999972 0.00237403624 0
vn -0.9999972 0.00237403624 0
vn -0.9999972 0.00237403624 0
vn 0.9999972 -0.00237403624 0
vn 0.9999972 -0.00237403624 0
vn 0.9999972 -0.00237403624 0
vn 0.9999972 -0.00237403624 0
vn 0.00237369747 0.9999972 0
vn 0.00237359037 0.9999972 2.15802185E-08
vn 0.00237380667 0.9999972 -4.274494E-07
vn -0.9999972 0.00237399573 0
vn -0.9999972 0.00237399573 0
vn -0.9999972 0.00237399573 0
vn -0.9999972 0.00237399573 0
vn 0.00237432239 0.9999972 1.55303837E-07
vn 0.00237366278 0.9999972 -1.17506818E-06
vn -0.999730647 0.00237340271 -0.023086926
vn -0.999730647 0.00237340271 -0.023086926
vn -0.999730647 0.00237340271 -0.023086926
vn -0.999730647 0.002373405 -0.0230869222
vn 0.00237381877 0.9999972 2.01600976E-08
vn 0.00237364462 0.9999972 -2.67019516E-07
vn -0.98462534 0.00233754283 -0.174663857
vn -0.98462534 0.00233754283 -0.174663857
vn -0.98462534 0.00233754283 -0.174663857
vn -0.98462534 0.002337376 -0.174664021
vn 0.608914435 -0.00144553382 0.7932346
vn 0.6089144 -0.00144558889 0.793234646
vn -0.07868337 0.00018654333 0.996899664
vn -0.07868295 0.000186524019 0.996899664
vn -0.07868295 0.000186524019 0.996899664
vn -0.07868337 0.00018654333 0.996899664
vn -0.6694406 0.001589114 0.7428639
vn -0.6694408 0.00158905087 0.7428637
vn 0.00237378781 0.9999972 -3.696585E-09
vn -0.56501925 0.00259427982 -0.8250736
vn -0.563826 0.00133840274 -0.8258925
vn 0.117438316 0.0114769638 -0.993013859
vn 0.116426937 0.0133802686 -0.9931091
vn 0.116426937 0.0133802686 -0.9931091
vn 0.72053957 -0.0008582372 -0.6934133
vn 0.720904231 -0.00171139615 -0.6930326
vn 0.895503163 -0.00212596287 -0.4450501
vn 0.895503163 -0.00212596287 -0.4450501
vn 0.895503163 -0.00212596287 -0.4450501
vn 0.8955033 -0.00212611724 -0.445049852
vn 0.00205578329 0.8660226 -0.500000656
vn 0.0020548664 0.8660227 -0.5000004
vn 0.00205635419 0.8660223 -0.500001132
vn 0.002056573 0.8660226 -0.5000007
vn 0.002056122 0.866023 -0.49999994
vn -0.996106148 -0.08814127 -0.00191179966
vn -0.996163845 -0.0751856342 0.04477388
vn -0.916094244 -0.180035338 -0.358271658
vn -0.906313956 -0.18517293 -0.379876316
vn -0.000689381442 0.327014029 0.945019245
vn 0.000808645331 0.340592742 0.9402106
vn 0.273690939 0.249379024 0.928925931
vn 0.01991046 0.2778055 0.960431
vn -0.3155529 0.297400326 0.901099
vn 0.9989412 -0.0364729278 -0.0280397888
vn 0.9998262 -0.0167065915 0.00827505253
vn 0.910074 -0.213005319 -0.355519474
vn 0.901323736 -0.221819 -0.372037441
vn -0.000965100538 -0.4067007 -0.9135609
vn -0.000965346 -0.40670076 -0.9135609
vn -0.0009639527 -0.406700522 -0.913561046
vn -0.0009637378 -0.406700432 -0.913561046
vn 0.00237347279 0.9999972 -1.29316049E-06
vn 0.00237347279 0.9999972 -1.29316049E-06
vn 0.00237347279 0.9999972 -1.29316049E-06
vn 0.00237347279 0.9999972 -1.29316049E-06
vn -0.000235883883 -0.09940266 0.9950473
vn -0.000235879808 -0.09940266 0.9950473
vn -0.000235927408 -0.09940265 0.9950473
vn -0.000235930143 -0.09940265 0.9950473
vn 0.986743 -0.162290856 1.27531209E-07
vn 0.986743 -0.162290856 1.01800474E-07
vn 0.986743 -0.162290841 1.951305E-07
vn 0.986743 -0.162290841 2.09868688E-07
vn -0.000236036838 -0.0994026959 -0.9950473
vn -0.000236044754 -0.09940269 -0.9950473
vn -0.000235935644 -0.0994027 -0.9950473
vn -0.00023593026 -0.0994027 -0.9950473
vn -0.9924709 0.122480564 -3.79042575E-08
vn -0.9924709 0.122480564 0
vn -0.9924709 0.122480594 -1.366658E-07
vn -0.9924709 0.122480609 -1.58387522E-07
vn -0.2099022 0.9454584 -0.249097317
vn -0.179972619 0.955250561 -0.234747216
vn -0.29135415 0.9124776 -0.287223577
vn -0.336431921 0.8900166 -0.3077076
vn 0.0315889679 -0.0937323943 0.995096147
vn 0.03377583 -0.0934886 0.9950473
vn 0.01871869 -0.09515766 0.9952862
vn 0.0179441068 -0.095242925 0.9952923
vn 0.9794546 0.20130223 -0.0120893549
vn 0.9786856 0.205364242 0
vn 0.9806454 0.19144924 -0.0410087332
vn 0.980779946 0.189341336 -0.0471233167
vn 0.03748289 -0.103378475 -0.9939356
vn 0.0373640954 -0.103420608 -0.993935645
vn 0.0388090052 -0.1029079 -0.9939335
vn 0.03888909 -0.10287948 -0.9939333
vn -0.9511518 -0.305899262 -0.041664198
vn -0.948052168 -0.318114847 0
vn -0.951139033 -0.273657978 -0.14298889
vn -0.9491836 -0.2639694 -0.171378866
vn 0.00237414357 0.9999972 1.41431667E-06
vn 0.002375586 0.9999972 1.16460194E-06
vn 0.00237314263 0.9999972 2.55091E-06
vn 0.00237291679 0.9999972 1.48116317E-06
vn 0.00237381016 0.9999972 -3.911639E-07
vn -0.9960751 -0.07506001 -0.0469084978
vn -0.996192336 -0.08718277 0
vn -0.9156107 0.02351138 -0.401378
vn -0.905803 0.0298612826 -0.42264542
vn -0.00191521912 -0.189305171 0.9819164
vn -0.000415716873 -0.175141752 0.984543145
vn 0.272510469 -0.248580053 0.92948693
vn 0.0186825525 -0.239633784 0.9706836
vn -0.3167183 -0.192891225 0.9286994
vn 0.9989853 -0.0178843755 -0.0413337648
vn 0.999820948 -0.0189238545 0
vn 0.910563231 -0.006998475 -0.4133106
vn 0.901835442 -0.006369614 -0.4320327
vn 0.000248201366 0.104565918 -0.9945179
vn 0.000248197932 0.104565926 -0.9945179
vn 0.000248217373 0.104565933 -0.9945179
vn 0.000248220371 0.104565941 -0.9945179
vn 0.00203365181 0.856468856 -0.5161947
vn 0.00203367 0.856468856 -0.5161947
vn 0.00203330559 0.856468856 -0.5161947
vn 0.00203328626 0.856468856 -0.5161947
vn 0.00197348022 0.8314051 0.5556633
vn 0.001973551 0.831405044 0.5556633
vn 0.00197222852 0.8314051 0.5556633
vn 0.00197215029 0.8314051 0.5556633
vn 0.5304054 0.8477441 0
vn 0.5304054 0.8477441 0
vn 0.5304054 0.847744167 0
vn 0.530405343 0.847744167 0
vn -0.5682228 0.8228747 0
vn -0.5682228 0.8228747 0
vn -0.5682228 0.8228747 0
vn -0.5682228 0.8228747 0
vn 0.00237401575 0.9999972 1.218091E-07
vn -0.649805963 0.7513667 0.114892632
vn -0.3779686 0.750771463 0.5417397
vn 0.116652921 0.7496475 0.6514758
vn 0.00237401575 0.9999972 1.218091E-07
vn 0.116652921 0.7496475 0.6514758
vn 0.543913 0.748582959 0.3791862
vn 0.653366446 0.7482727 -0.114892393
vn 0.653366446 0.7482727 -0.114892393
vn 0.3815292 0.7489684 -0.5417396
vn -0.113092177 0.7501928 -0.651475966
vn -0.113092177 0.7501928 -0.651475966
vn -0.540352464 0.751156747 -0.379186869
vn -0.649805963 0.7513667 0.114892632
vn -0.573775768 0.0138477152 0.81889534
vn -0.984698653 0.0148197049 0.173634648
vn 0.17366384 0.012076579 0.984730959
vn 0.81930846 0.0105407611 0.5732561
vn 0.17366384 0.012076579 0.984730959
vn 0.9847579 0.0101445243 -0.173634529
vn 0.5738353 0.0111232614 -0.818895161
vn 0.9847579 0.0101445243 -0.173634529
vn -0.173604682 0.0129009765 -0.9847309
vn -0.819249 0.0144302081 -0.5732564
vn -0.173604682 0.0129009765 -0.9847309
vn -0.984698653 0.0148197049 0.173634648
vn -0.5272735 -0.397835076 0.750806153
vn -0.9040145 -0.396738946 0.159235418
vn 0.15825665 -0.399665236 0.902896762
vn 0.7504275 -0.400868416 0.5255122
vn 0.15825665 -0.399665236 0.902896762
vn 0.902121 -0.4010257 -0.159235731
vn 0.52537936 -0.400333852 -0.7508058
vn 0.902121 -0.4010257 -0.159235731
vn -0.160152912 -0.398908943 -0.9028968
vn -0.7523225 -0.39730078 -0.52551204
vn -0.160152912 -0.398908943 -0.9028968
vn -0.9040145 -0.396738946 0.159235418
vn 0.00237399549 0.9999972 2.153958E-08
vn 0.0017799075 0.749819636 -0.661639869
vn -0.4657853 0.75098 -0.468052447
vn -0.6597441 0.751490355 8.515947E-08
vn 0.00237399549 0.9999972 2.153958E-08
vn -0.6597441 0.751490355 8.515947E-08
vn -0.465785 0.750979662 0.468053281
vn 0.00178042543 0.7498197 0.6616398
vn 0.00178042543 0.7498197 0.6616398
vn 0.469345361 0.7487601 0.4680526
vn 0.6633044 0.7483497 5.45469021E-08
vn 0.6633044 0.7483497 5.45469021E-08
vn 0.469345033 0.748760045 -0.468052983
vn 0.0017799075 0.749819636 -0.661639869
vn -0.70678246 0.0141632715 -0.707289159
vn 2.97060578E-05 0.0124817323 -0.9999221
vn -0.999889553 0.014862475 4.19341518E-07
vn -0.706782341 0.0141630545 0.7072893
vn -0.999889553 0.014862475 4.19341518E-07
vn 2.97669885E-05 0.01248194 0.9999221
vn 0.7068417 0.0108076995 0.707289159
vn 2.97669885E-05 0.01248194 0.9999221
vn 0.999948859 0.0101152407 2.61794479E-08
vn 0.706841648 0.0108075682 -0.7072892
vn 0.999948859 0.0101152407 2.61794479E-08
vn 2.97060578E-05 0.0124817323 -0.9999221
vn -0.648949146 -0.397546768 -0.6487076
vn -0.000946991262 -0.398882717 -0.9170015
vn -0.9177709 -0.397110224 9.02430145E-07
vn -0.6489493 -0.397546023 0.6487079
vn -0.9177709 -0.397110224 9.02430145E-07
vn -0.0009466817 -0.398882449 0.9170016
vn 0.6470547 -0.400622725 0.6487077
vn -0.0009466817 -0.398882449 0.9170016
vn 0.9158751 -0.40146333 3.90141622E-07
vn 0.647054434 -0.400622845 -0.648707867
vn 0.9158751 -0.40146333 3.90141622E-07
vn -0.000946991262 -0.398882717 -0.9170015
vn 0.002373908 0.9999972 8.789475E-08
vn 0.281400025 0.7491559 -0.5996494
vn -0.224170938 0.750406265 -0.6218021
vn -0.597764134 0.751343369 -0.2795732
vn 0.002373908 0.9999972 8.789475E-08
vn -0.597764134 0.751343369 -0.2795732
vn -0.619784832 0.7513456 0.2265979
vn -0.277839959 0.750483632 0.5996493
vn -0.277839959 0.750483632 0.5996493
vn 0.22773084 0.7493334 0.62180233
vn 0.6013247 0.7484969 0.2795729
vn 0.6013247 0.7484969 0.2795729
vn 0.6233454 0.7483942 -0.226598009
vn 0.281400025 0.7491559 -0.5996494
vn -0.341647267 0.0132965306 -0.9397342
vn 0.42261368 0.0114788376 -0.906237245
vn -0.906205058 0.014640267 -0.422584921
vn -0.93947196 0.01471581 0.342309624
vn -0.906205058 0.014640267 -0.422584921
vn -0.422554284 0.0134853311 0.9062373
vn 0.3417064 0.0116744339 0.9397342
vn -0.422554284 0.0134853311 0.9062373
vn 0.906264246 0.0103375232 0.4225852
vn 0.939531267 0.0102550974 -0.342309475
vn 0.906264246 0.0103375232 0.4225852
vn 0.42261368 0.0114788376 -0.906237245
vn -0.314081848 -0.398340881 -0.8617872
vn 0.386593431 -0.399802148 -0.831085861
vn -0.8318717 -0.3973143 -0.387467146
vn -0.8623915 -0.397039652 0.314070851
vn -0.8318717 -0.3973143 -0.387467146
vn -0.388487339 -0.3979626 0.8310856
vn 0.312186837 -0.399827778 0.8617872
vn -0.388487339 -0.3979626 0.8310856
vn 0.8299759 -0.401259452 0.387467176
vn 0.8604969 -0.401129484 -0.314070553
vn 0.8299759 -0.401259452 0.387467176
vn 0.386593431 -0.399802148 -0.831085861
vn 0.0023739587 0.9999972 -1.60835043E-08
vn -0.571215451 0.7511798 -0.330819964
vn -0.637346864 0.751387239 0.170898184
vn -0.328981668 0.7507054 0.572898269
vn 0.0023739587 0.9999972 -1.60835043E-08
vn -0.328981668 0.7507054 0.572898269
vn 0.173342049 0.749462664 0.6389509
vn 0.5747754 0.748459339 0.330820024
vn 0.5747754 0.748459339 0.330820024
vn 0.6409069 0.748352945 -0.1708984
vn 0.332541823 0.7491351 -0.572898448
vn 0.332541823 0.7491351 -0.572898448
vn -0.169782132 0.7502772 -0.6389508
vn -0.571215451 0.7511798 -0.330819964
vn -0.96590513 0.0147784473 0.2584741
vn -0.8659261 0.0145377517 -0.499960721
vn -0.499929756 0.0136757577 0.865958
vn 0.259153038 0.0118704056 0.96576333
vn -0.499929756 0.0136757577 0.865958
vn 0.865985 0.0104262484 0.4999613
vn 0.9659645 0.0101921652 -0.2584738
vn 0.865985 0.0104262484 0.4999613
vn 0.4999886 0.011302188 -0.8659582
vn -0.2590938 0.01310073 -0.96576333
vn 0.4999886 0.011302188 -0.8659582
vn -0.8659261 0.0145377517 -0.499960721
vn -0.8867442 -0.396981537 0.236834154
vn -0.7950916 -0.396997064 -0.458500475
vn -0.4593593 -0.398198724 0.7939942
vn 0.23684749 -0.3996492 0.8855415
vn -0.4593593 -0.398198724 0.7939942
vn 0.793198049 -0.400767148 0.458500326
vn 0.8848493 -0.401187718 -0.236833587
vn 0.793198049 -0.400767148 0.458500326
vn 0.457463264 -0.400375426 -0.793994248
vn -0.238742292 -0.3985202 -0.8855415
vn 0.457463264 -0.400375426 -0.793994248
vn -0.7950916 -0.396997064 -0.458500475
vn -0.9999972 0.002373883 6.56698447E-08
vn -0.9999972 0.0023738374 -2.42939876E-07
vn -0.9999972 0.00237419363 3.29076144E-08
vn -0.9999972 0.00237413915 1.01299506E-07
vn -0.9999972 0.00237382855 1.34061622E-07
vn -0.9999972 0.00237341551 3.03020641E-07
vn 0.0003201737 0.134868383 -0.990863442
vn -0.000898840837 -0.3786303 -0.92554754
vn -0.000898847 -0.378630221 -0.9255476
vn 0.000320170337 0.134868473 -0.990863442
vn 0.00219719182 0.9255447 -0.3786321
vn 0.0003201737 0.134868383 -0.990863442
vn 0.000320170337 0.134868473 -0.990863442
vn 0.0021973257 0.9255439 -0.378633976
vn 0.00187708042 0.7906762 0.6122317
vn 0.00187721243 0.7906777 0.6122297
vn -0.000320191932 -0.1348687 0.990863442
vn 0.00187708042 0.7906762 0.6122317
vn 0.00187721243 0.7906777 0.6122297
vn -0.000320124731 -0.134867489 0.9908636
vn -0.00145352574 -0.6122305 0.790678
vn -0.00145339745 -0.6122288 0.790679336
vn 0.9999972 -0.002373904 7.999282E-08
vn 0.9999972 -0.00237340643 -3.12017818E-07
vn 0.9999972 -0.002374129 -8.71334748E-07
vn 0.9999972 -0.002374104 -4.07831152E-07
vn 0.9999972 -0.002373879 5.43496469E-07
vn 0.9999972 -0.002374002 1.44765056E-06
vn -0.9999972 0.0023738828 6.62201E-08
vn -0.9999972 0.00237383763 -2.42168369E-07
vn -0.9999972 0.002374193 3.30162564E-08
vn -0.9999972 0.00237413961 1.01355674E-07
vn -0.9999972 0.00237382925 1.34559485E-07
vn -0.9999972 0.00237341435 3.04337931E-07
vn 0.000320265623 0.134867981 -0.9908635
vn -0.0008987352 -0.378631115 -0.925547242
vn -0.000898767961 -0.378630519 -0.9255475
vn 0.000320219377 0.134868592 -0.990863442
vn 0.002197211 0.9255437 -0.3786343
vn 0.000320265623 0.134867981 -0.9908635
vn 0.000320219377 0.134868592 -0.990863442
vn 0.00219716271 0.9255441 -0.378633469
vn 0.00187697075 0.7906774 0.612230062
vn 0.001876966 0.7906774 0.6122301
vn -0.0003202091 -0.134867251 0.9908636
vn 0.00187697075 0.7906774 0.612230062
vn 0.001876966 0.7906774 0.6122301
vn -0.0003202052 -0.1348673 0.9908636
vn -0.00145339291 -0.612227738 0.7906801
vn -0.00145341514 -0.6122281 0.7906799
vn 0.9999972 -0.00237396872 -7.704692E-08
vn 0.9999972 -0.002373832 2.5384864E-07
vn 0.9999972 -0.00237383321 2.52854846E-07
vn 0.9999972 -0.00237396872 -7.755743E-08
vn 0.9999972 -0.00237410376 -4.0745968E-07
vn 0.9999972 -0.002374104 -4.0692376E-07
vn 0.933411837 0.187850177 -0.305703461
vn 0.9762742 0.118675545 -0.181120977
vn 0.9653175 0.1403773 -0.220128134
vn 0.900262535 0.224904314 -0.372753859
vn -0.8332167 0.24106358 0.497632653
vn -0.9552621 0.109235972 0.27484864
vn -0.923483253 0.1540221 0.351362884
vn -0.696051 0.3275544 0.638921857
vn 0.9843144 -0.00233614235 -0.176408008
vn 0.499998838 -0.00118676038 -0.866025269
vn 0.499998361 -0.00118665886 -0.8660255
vn 0.9843143 -0.00233611953 -0.176408127
vn -0.499998629 0.00118710857 -0.8660254
vn -0.4999987 0.00118713256 -0.8660253
vn -0.9898644 0.00234986073 -0.141996324
vn -0.989864349 0.00234989077 -0.141996548
vn -0.6179041 0.00146671687 0.7862521
vn -0.6179044 0.00146666321 0.786251843
vn 0.644931257 -0.0015308928 0.7642391
vn 0.644930542 -0.00153104216 0.764239669
vn 0.9843144 -0.00233614235 -0.176408008
vn 0.9843143 -0.00233611953 -0.176408127
vn 0.00237432984 0.9999972 -7.642529E-07
vn 0.00237124274 0.9999972 -3.019272E-10
vn 0.00237433 0.9999972 7.638752E-07
vn 0.00237653567 0.9999972 3.05640833E-06
vn 0.00237565325 0.9999972 -7.59899643E-11
vn 0.002376535 0.9999972 -3.056107E-06
vn -0.000174412053 -0.0734790638 -0.997296751
vn -0.000174435743 -0.07347906 -0.997296751
vn -0.000174423039 -0.0734790638 -0.997296751
vn -0.000174399363 -0.07347908 -0.997296751
vn 0.000174423418 0.07347919 0.997296751
vn 0.000174436092 0.07347918 0.997296751
vn 0.0001744124 0.0734792 0.997296751
vn 0.0001743997 0.0734792054 0.997296751
vn 0.9999972 -0.00237438455 0
vn 0.9999972 -0.00237438455 0
vn 0.9999972 -0.00237438455 0
vn 0.9999972 -0.00237438455 0
vn -0.9999972 0.00237435778 0
vn -0.9999972 0.00237435778 0
vn -0.9999972 0.00237435778 0
vn -0.9999972 0.00237435778 0
vn 0 0 1
vn 0 0 1
vn 0 0 1
vn 0 0 1
vn 0.0023740707 0.9999972 0
vn 0.0023740707 0.9999972 0
vn 0.0023740707 0.9999972 0
vn 0.0023740707 0.9999972 0
vn 0 0 -1
vn 0 0 -1
vn 0 0 -1
vn 0 0 -1
vn 0.49999848 -0.00118696457 -0.866025448
vn 0.9999972 -0.00237392844 -4.33677343E-07
vn 0.9999972 -0.00237392634 -5.20434639E-07
vn 0.499997735 -0.00118695921 -0.8660259
vn -0.499997944 0.00118696236 -0.866025746
vn 0.49999848 -0.00118696457 -0.866025448
vn 0.499997735 -0.00118695921 -0.8660259
vn -0.4999976 0.00118696259 -0.866026
vn -0.9999972 0.002373929 -3.80909341E-07
vn -0.9999972 0.00237392867 -3.19971548E-07
vn -0.4999982 0.00118696422 0.8660256
vn -0.499997884 0.00118696212 0.8660258
vn 0.4999989 -0.00118696422 0.8660252
vn 0.499998122 -0.00118696375 0.8660257
vn 0.00237259222 0.9999972 7.108572E-07
vn 0.00237546768 0.9999972 0
vn 0.00237259176 0.9999972 -7.112128E-07
vn 0.00237053842 0.9999972 -2.84485259E-06
vn 0.00237135985 0.9999972 -3.55021124E-10
vn 0.002370539 0.9999972 2.84343423E-06
vn 0.9843144 -0.00233616773 -0.176408038
vn 0.499998719 -0.00118695025 -0.8660253
vn 0.4999993 -0.00118681812 -0.866025
vn 0.9843144 -0.00233613141 -0.176407769
vn -0.499998659 0.0011869364 -0.8660254
vn -0.499998659 0.001186964 -0.8660254
vn -0.9898644 0.00234974339 -0.141996428
vn -0.9898644 0.00234976853 -0.1419964
vn -0.6179045 0.00146657741 0.7862518
vn -0.6179039 0.00146644877 0.78625226
vn 0.64493084 -0.00153095939 0.76423943
vn 0.644931436 -0.00153119781 0.7642389
vn 0.9843144 -0.00233616773 -0.176408038
vn 0.9843144 -0.00233613141 -0.176407769
vn 0.9744753 -0.0431299321 -0.220312625
vn 0.9933122 -0.101524122 -0.0549886152
vn 0.9912005 -0.08568808 -0.100891456
vn 0.9533636 -0.0130035821 -0.301543981
vn 0.898039639 0.0715713 -0.434053421
vn 0.926488 0.0361611173 -0.374582976
vn 0.914794147 0.0515351631 -0.400619268
vn 0.8790502 0.0921175 -0.467744738
vn -0.9912005 0.0856880248 0.100891389
vn -0.9933122 0.101524033 0.05498861
vn -0.9744754 0.04312996 0.220312387
vn -0.9533638 0.0130037274 0.301543444
vn -0.884806752 0.09936083 -0.4552411
vn -0.9050849 0.08176723 -0.4172954
vn -0.8047889 0.1555742 -0.5728102
vn -0.730414331 0.196356624 -0.654170454
vn 0.499998182 -0.00118696422 -0.8660256
vn 0.9999972 -0.002373929 -1.5079091E-07
vn -0.499998778 0.00118696538 -0.8660253
vn 0.499998182 -0.00118696422 -0.8660256
vn -0.9999972 0.00237393938 6.121578E-08
vn -0.499998659 0.00118697458 0.8660254
vn 0.499998331 -0.00118696294 0.866025567
usemtl nml-bd165_part_0_material_0
f 15/15/15 16/16/16 17/17/17
f 17/17/17 18/18/18 15/15/15
f 16/16/16 19/19/19 20/20/20
f 20/20/20 21/21/21 16/16/16
f 19/19/19 22/22/22 20/20/20
f 23/23/23 24/24/24 22/22/22
f 22/22/22 25/25/25 23/23/23
f 26/26/26 27/27/27 28/28/28
f 28/28/28 29/29/29 26/26/26
f 30/30/30 31/31/31 32/32/32
f 32/32/32 33/33/33 30/30/30
f 34/34/34 35/35/35 36/36/36
f 36/36/36 37/37/37 34/34/34
f 38/38/38 39/39/39 40/40/40
f 40/40/40 41/41/41 38/38/38
f 42/42/42 43/43/43 44/44/44
f 44/44/44 45/45/45 42/42/42
f 46/46/46 47/47/47 48/48/48
f 48/48/48 49/49/49 46/46/46
f 50/50/50 51/51/51 52/52/52
f 52/52/52 53/53/53 50/50/50
f 54/54/54 55/55/55 56/56/56
f 56/56/56 57/57/57 54/54/54
f 58/58/58 59/59/59 60/60/60
f 60/60/60 61/61/61 58/58/58
f 62/62/62 63/63/63 64/64/64
f 64/64/64 65/65/65 62/62/62
f 66/66/66 67/67/67 68/68/68
f 68/68/68 69/69/69 66/66/66
f 19/19/19 16/16/16 70/70/70
f 70/70/70 71/71/71 19/19/19
f 72/72/72 73/73/73 74/74/74
f 74/74/74 75/75/75 72/72/72
f 76/76/76 77/77/77 78/78/78
f 78/78/78 79/79/79 76/76/76
f 80/80/80 25/25/25 22/22/22
f 81/81/81 24/24/24 23/23/23
f 23/23/23 82/82/82 81/81/81
f 83/83/83 84/84/84 85/85/85
f 85/85/85 86/86/86 83/83/83
f 17/17/17 16/16/16 21/21/21
f 17/17/17 21/21/21 87/87/87
f 17/17/17 87/87/87 88/88/88
f 89/89/89 90/90/90 91/91/91
f 91/91/91 92/92/92 89/89/89
f 22/22/22 24/24/24 93/93/93
f 93/93/93 20/20/20 22/22/22
f 24/24/24 94/94/94 93/93/93
f 95/95/95 96/96/96 97/97/97
f 97/97/97 98/98/98 95/95/95
f 99/99/99 100/100/100 101/101/101
f 101/101/101 102/102/102 99/99/99
f 103/103/103 104/104/104 105/105/105
f 105/105/105 106/106/106 103/103/103
f 20/20/20 107/107/107 21/21/21
f 108/108/108 109/109/109 110/110/110
f 110/110/110 111/111/111 108/108/108
f 112/112/112 110/110/110 113/113/113
f 113/113/113 114/114/114 112/112/112
f 115/115/115 116/116/116 117/117/117
f 117/117/117 118/118/118 115/115/115
f 371/371/371 372/372/372 373/373/373
f 371/371/371 373/373/373 374/374/374
f 371/371/371 374/374/374 375/375/375
f 371/371/371 375/375/375 376/376/376
f 377/377/377 378/378/378 379/379/379
f 379/379/379 380/380/380 377/377/377
f 381/381/381 382/382/382 383/383/383
f 383/383/383 384/384/384 381/381/381
f 385/385/385 381/381/381 384/384/384
f 384/384/384 386/386/386 385/385/385
f 387/387/387 388/388/388 389/389/389
f 389/389/389 390/390/390 387/387/387
f 391/391/391 387/387/387 390/390/390
f 390/390/390 392/392/392 391/391/391
f 393/393/393 394/394/394 395/395/395
f 393/393/393 395/395/395 396/396/396
f 393/393/393 396/396/396 397/397/397
f 393/393/393 397/397/397 398/398/398
f 399/399/399 400/400/400 401/401/401
f 399/399/399 401/401/401 402/402/402
f 399/399/399 402/402/402 403/403/403
f 399/399/399 403/403/403 404/404/404
f 405/405/405 406/406/406 407/407/407
f 407/407/407 408/408/408 405/405/405
f 409/409/409 410/410/410 411/411/411
f 411/411/411 412/412/412 409/409/409
f 413/413/413 409/409/409 412/412/412
f 412/412/412 414/414/414 413/413/413
f 415/415/415 416/416/416 417/417/417
f 417/417/417 418/418/418 415/415/415
f 419/419/419 415/415/415 418/418/418
f 418/418/418 420/420/420 419/419/419
f 421/421/421 422/422/422 423/423/423
f 421/421/421 423/423/423 424/424/424
f 421/421/421 424/424/424 425/425/425
f 421/421/421 425/425/425 426/426/426
f 449/449/449 450/450/450 451/451/451
f 451/451/451 452/452/452 453/453/453
f 449/449/449 451/451/451 453/453/453
f 449/449/449 453/453/453 454/454/454
f 497/497/497 498/498/498 499/499/499
f 499/499/499 500/500/500 501/501/501
f 497/497/497 499/499/499 501/501/501
f 497/497/497 501/501/501 502/502/502
usemtl nml-bd165_part_0_material_1
f 119/119/119 120/120/120 121/121/121
f 119/119/119 121/121/121 122/122/122
f 119/119/119 122/122/122 123/123/123
f 124/124/124 125/125/125 126/126/126
f 126/126/126 127/127/127 124/124/124
f 128/128/128 129/129/129 130/130/130
f 128/128/128 130/130/130 131/131/131
f 128/128/128 131/131/131 132/132/132
f 133/133/133 134/134/134 135/135/135
f 135/135/135 136/136/136 133/133/133
f 137/137/137 138/138/138 139/139/139
f 139/139/139 140/140/140 137/137/137
f 141/141/141 142/142/142 143/143/143
f 143/143/143 144/144/144 141/141/141
f 145/145/145 146/146/146 147/147/147
f 147/147/147 148/148/148 145/145/145
f 149/149/149 150/150/150 151/151/151
f 151/151/151 152/152/152 149/149/149
f 153/153/153 154/154/154 155/155/155
f 155/155/155 156/156/156 153/153/153
f 157/157/157 158/158/158 159/159/159
f 159/159/159 160/160/160 157/157/157
f 161/161/161 162/162/162 163/163/163
f 163/163/163 164/164/164 161/161/161
f 165/165/165 166/166/166 167/167/167
f 167/167/167 168/168/168 165/165/165
f 169/169/169 170/170/170 171/171/171
f 171/171/171 172/172/172 169/169/169
f 173/173/173 174/174/174 175/175/175
f 175/175/175 176/176/176 173/173/173
f 177/177/177 178/178/178 179/179/179
f 179/179/179 180/180/180 177/177/177
f 181/181/181 182/182/182 183/183/183
f 181/181/181 183/183/183 184/184/184
f 181/181/181 184/184/184 185/185/185
f 186/186/186 187/187/187 188/188/188
f 188/188/188 189/189/189 186/186/186
f 190/190/190 191/191/191 192/192/192
f 190/190/190 192/192/192 193/193/193
f 190/190/190 193/193/193 194/194/194
f 195/195/195 196/196/196 197/197/197
f 197/197/197 198/198/198 195/195/195
f 199/199/199 200/200/200 201/201/201
f 201/201/201 202/202/202 199/199/199
f 219/219/219 220/220/220 221/221/221
f 219/219/219 221/221/221 222/222/222
f 223/223/223 224/224/224 225/225/225
f 223/223/223 225/225/225 226/226/226
f 219/219/219 227/227/227 228/228/228
f 219/219/219 228/228/228 229/229/229
f 223/223/223 230/230/230 231/231/231
f 223/223/223 231/231/231 232/232/232
f 233/233/233 221/221/221 220/220/220
f 220/220/220 234/234/234 233/233/233
f 235/235/235 222/222/222 221/221/221
f 221/221/221 233/233/233 235/235/235
f 236/236/236 225/225/225 224/224/224
f 224/224/224 237/237/237 236/236/236
f 238/238/238 226/226/226 225/225/225
f 225/225/225 236/236/236 238/238/238
f 239/239/239 228/228/228 227/227/227
f 227/227/227 240/240/240 239/239/239
f 241/241/241 229/229/229 228/228/228
f 228/228/228 239/239/239 241/241/241
f 242/242/242 231/231/231 230/230/230
f 230/230/230 243/243/243 242/242/242
f 244/244/244 232/232/232 231/231/231
f 231/231/231 242/242/242 244/244/244
f 245/245/245 233/233/233 234/234/234
f 234/234/234 246/246/246 245/245/245
f 247/247/247 235/235/235 233/233/233
f 233/233/233 245/245/245 247/247/247
f 248/248/248 236/236/236 237/237/237
f 237/237/237 249/249/249 248/248/248
f 250/250/250 238/238/238 236/236/236
f 236/236/236 248/248/248 250/250/250
f 251/251/251 239/239/239 240/240/240
f 240/240/240 252/252/252 251/251/251
f 253/253/253 241/241/241 239/239/239
f 239/239/239 251/251/251 253/253/253
f 254/254/254 242/242/242 243/243/243
f 243/243/243 255/255/255 254/254/254
f 256/256/256 244/244/244 242/242/242
f 242/242/242 254/254/254 256/256/256
f 257/257/257 258/258/258 259/259/259
f 257/257/257 259/259/259 260/260/260
f 261/261/261 262/262/262 263/263/263
f 261/261/261 263/263/263 264/264/264
f 257/257/257 265/265/265 266/266/266
f 257/257/257 266/266/266 267/267/267
f 261/261/261 268/268/268 269/269/269
f 261/261/261 269/269/269 270/270/270
f 271/271/271 259/259/259 258/258/258
f 258/258/258 272/272/272 271/271/271
f 273/273/273 260/260/260 259/259/259
f 259/259/259 271/271/271 273/273/273
f 274/274/274 263/263/263 262/262/262
f 262/262/262 275/275/275 274/274/274
f 276/276/276 264/264/264 263/263/263
f 263/263/263 274/274/274 276/276/276
f 277/277/277 266/266/266 265/265/265
f 265/265/265 278/278/278 277/277/277
f 279/279/279 267/267/267 266/266/266
f 266/266/266 277/277/277 279/279/279
f 280/280/280 269/269/269 268/268/268
f 268/268/268 281/281/281 280/280/280
f 282/282/282 270/270/270 269/269/269
f 269/269/269 280/280/280 282/282/282
f 283/283/283 271/271/271 272/272/272
f 272/272/272 284/284/284 283/283/283
f 285/285/285 273/273/273 271/271/271
f 271/271/271 283/283/283 285/285/285
f 286/286/286 274/274/274 275/275/275
f 275/275/275 287/287/287 286/286/286
f 288/288/288 276/276/276 274/274/274
f 274/274/274 286/286/286 288/288/288
f 289/289/289 277/277/277 278/278/278
f 278/278/278 290/290/290 289/289/289
f 291/291/291 279/279/279 277/277/277
f 277/277/277 289/289/289 291/291/291
f 292/292/292 280/280/280 281/281/281
f 281/281/281 293/293/293 292/292/292
f 294/294/294 282/282/282 280/280/280
f 280/280/280 292/292/292 294/294/294
f 295/295/295 296/296/296 297/297/297
f 295/295/295 297/297/297 298/298/298
f 299/299/299 300/300/300 301/301/301
f 299/299/299 301/301/301 302/302/302
f 295/295/295 303/303/303 304/304/304
f 295/295/295 304/304/304 305/305/305
f 299/299/299 306/306/306 307/307/307
f 299/299/299 307/307/307 308/308/308
f 309/309/309 297/297/297 296/296/296
f 296/296/296 310/310/310 309/309/309
f 311/311/311 298/298/298 297/297/297
f 297/297/297 309/309/309 311/311/311
f 312/312/312 301/301/301 300/300/300
f 300/300/300 313/313/313 312/312/312
f 314/314/314 302/302/302 301/301/301
f 301/301/301 312/312/312 314/314/314
f 315/315/315 304/304/304 303/303/303
f 303/303/303 316/316/316 315/315/315
f 317/317/317 305/305/305 304/304/304
f 304/304/304 315/315/315 317/317/317
f 318/318/318 307/307/307 306/306/306
f 306/306/306 319/319/319 318/318/318
f 320/320/320 308/308/308 307/307/307
f 307/307/307 318/318/318 320/320/320
f 321/321/321 309/309/309 310/310/310
f 310/310/310 322/322/322 321/321/321
f 323/323/323 311/311/311 309/309/309
f 309/309/309 321/321/321 323/323/323
f 324/324/324 312/312/312 313/313/313
f 313/313/313 325/325/325 324/324/324
f 326/326/326 314/314/314 312/312/312
f 312/312/312 324/324/324 326/326/326
f 327/327/327 315/315/315 316/316/316
f 316/316/316 328/328/328 327/327/327
f 329/329/329 317/317/317 315/315/315
f 315/315/315 327/327/327 329/329/329
f 330/330/330 318/318/318 319/319/319
f 319/319/319 331/331/331 330/330/330
f 332/332/332 320/320/320 318/318/318
f 318/318/318 330/330/330 332/332/332
f 333/333/333 334/334/334 335/335/335
f 333/333/333 335/335/335 336/336/336
f 337/337/337 338/338/338 339/339/339
f 337/337/337 339/339/339 340/340/340
f 333/333/333 341/341/341 342/342/342
f 333/333/333 342/342/342 343/343/343
f 337/337/337 344/344/344 345/345/345
f 337/337/337 345/345/345 346/346/346
f 347/347/347 335/335/335 334/334/334
f 334/334/334 348/348/348 347/347/347
f 349/349/349 336/336/336 335/335/335
f 335/335/335 347/347/347 349/349/349
f 350/350/350 339/339/339 338/338/338
f 338/338/338 351/351/351 350/350/350
f 352/352/352 340/340/340 339/339/339
f 339/339/339 350/350/350 352/352/352
f 353/353/353 342/342/342 341/341/341
f 341/341/341 354/354/354 353/353/353
f 355/355/355 343/343/343 342/342/342
f 342/342/342 353/353/353 355/355/355
f 356/356/356 345/345/345 344/344/344
f 344/344/344 357/357/357 356/356/356
f 358/358/358 346/346/346 345/345/345
f 345/345/345 356/356/356 358/358/358
f 359/359/359 347/347/347 348/348/348
f 348/348/348 360/360/360 359/359/359
f 361/361/361 349/349/349 347/347/347
f 347/347/347 359/359/359 361/361/361
f 362/362/362 350/350/350 351/351/351
f 351/351/351 363/363/363 362/362/362
f 364/364/364 352/352/352 350/350/350
f 350/350/350 362/362/362 364/364/364
f 365/365/365 353/353/353 354/354/354
f 354/354/354 366/366/366 365/365/365
f 367/367/367 355/355/355 353/353/353
f 353/353/353 365/365/365 367/367/367
f 368/368/368 356/356/356 357/357/357
f 357/357/357 369/369/369 368/368/368
f 370/370/370 358/358/358 356/356/356
f 356/356/356 368/368/368 370/370/370
f 427/427/427 428/428/428 429/429/429
f 429/429/429 430/430/430 427/427/427
f 431/431/431 432/432/432 433/433/433
f 433/433/433 434/434/434 431/431/431
f 517/517/517 518/518/518 519/519/519
f 519/519/519 520/520/520 517/517/517
f 521/521/521 522/522/522 523/523/523
f 523/523/523 524/524/524 521/521/521
f 525/525/525 526/526/526 527/527/527
f 527/527/527 528/528/528 525/525/525
f 529/529/529 530/530/530 531/531/531
f 531/531/531 532/532/532 529/529/529
usemtl nml-bd165_part_0_material_2
f 1/1/1 2/2/2 3/3/3
f 3/3/3 4/4/4 1/1/1
f 5/5/5 6/6/6 7/7/7
f 7/7/7 8/8/8 5/5/5
f 9/9/9 10/10/10 6/6/6
f 6/6/6 5/5/5 9/9/9
f 11/11/11 12/12/12 10/10/10
f 10/10/10 9/9/9 11/11/11
f 13/13/13 14/14/14 12/12/12
f 12/12/12 11/11/11 13/13/13
f 4/4/4 3/3/3 14/14/14
f 14/14/14 13/13/13 4/4/4
f 203/203/203 204/204/204 205/205/205
f 205/205/205 206/206/206 203/203/203
f 207/207/207 208/208/208 209/209/209
f 209/209/209 210/210/210 207/207/207
f 211/211/211 212/212/212 213/213/213
f 213/213/213 214/214/214 211/211/211
f 215/215/215 216/216/216 217/217/217
f 217/217/217 218/218/218 215/215/215
f 435/435/435 436/436/436 437/437/437
f 437/437/437 438/438/438 435/435/435
f 436/436/436 439/439/439 440/440/440
f 440/440/440 437/437/437 436/436/436
f 439/439/439 441/441/441 442/442/442
f 442/442/442 440/440/440 439/439/439
f 441/441/441 443/443/443 444/444/444
f 444/444/444 442/442/442 441/441/441
f 443/443/443 445/445/445 446/446/446
f 446/446/446 444/444/444 443/443/443
f 445/445/445 447/447/447 448/448/448
f 448/448/448 446/446/446 445/445/445
f 455/455/455 456/456/456 457/457/457
f 457/457/457 458/458/458 455/455/455
f 459/459/459 460/460/460 461/461/461
f 461/461/461 462/462/462 459/459/459
f 463/463/463 464/464/464 465/465/465
f 465/465/465 466/466/466 463/463/463
f 467/467/467 468/468/468 469/469/469
f 469/469/469 470/470/470 467/467/467
f 471/471/471 472/472/472 473/473/473
f 473/473/473 474/474/474 471/471/471
f 475/475/475 476/476/476 477/477/477
f 477/477/477 478/478/478 475/475/475
f 479/479/479 480/480/480 481/481/481
f 481/481/481 482/482/482 479/479/479
f 483/483/483 484/484/484 485/485/485
f 485/485/485 486/486/486 483/483/483
f 487/487/487 488/488/488 489/489/489
f 489/489/489 490/490/490 487/487/487
f 491/491/491 487/487/487 490/490/490
f 490/490/490 492/492/492 491/491/491
f 493/493/493 491/491/491 492/492/492
f 492/492/492 494/494/494 493/493/493
f 495/495/495 493/493/493 494/494/494
f 494/494/494 496/496/496 495/495/495
f 484/484/484 495/495/495 496/496/496
f 496/496/496 485/485/485 484/484/484
f 503/503/503 504/504/504 505/505/505
f 505/505/505 506/506/506 503/503/503
f 504/504/504 507/507/507 508/508/508
f 508/508/508 505/505/505 504/504/504
f 507/507/507 509/509/509 510/510/510
f 510/510/510 508/508/508 507/507/507
f 509/509/509 511/511/511 512/512/512
f 512/512/512 510/510/510 509/509/509
f 511/511/511 513/513/513 514/514/514
f 514/514/514 512/512/512 511/511/511
f 513/513/513 515/515/515 516/516/516
f 516/516/516 514/514/514 513/513/513
f 533/533/533 534/534/534 3/3/3
f 3/3/3 2/2/2 533/533/533
f 535/535/535 536/536/536 7/7/7
f 7/7/7 6/6/6 535/535/535
f 537/537/537 535/535/535 6/6/6
f 6/6/6 10/10/10 537/537/537
f 538/538/538 537/537/537 10/10/10
f 10/10/10 12/12/12 538/538/538
f 539/539/539 538/538/538 12/12/12
f 12/12/12 14/14/14 539/539/539
f 534/534/534 539/539/539 14/14/14
f 14/14/14 3/3/3 534/534/534
