mtllib nml-bd002.mtl
o nml-bd002_part_0
v -0.6000004 0 0.5999999
v 0.6000004 0 0.5999999
v 0.6000004 1.2 0.5999999
v -0.6000004 1.2 0.5999999
v 0.6000004 0 0.5999999
v 0.6000004 0 -0.5999999
v 0.6000004 1.2 -0.5999999
v 0.6000004 1.2 0.5999999
v 0.6000004 0 -0.5999999
v -0.6000004 0 -0.5999999
v -0.6000004 1.2 -0.5999999
v 0.6000004 1.2 -0.5999999
v -0.6000004 0 -0.5999999
v -0.6000004 0 0.5999999
v -0.6000004 1.2 0.5999999
v -0.6000004 1.2 -0.5999999
v -0.6000004 1.2 0.5999999
v 0.6000004 1.2 0.5999999
v 0.5488682 1.2 0.548868656
v -0.5488682 1.2 0.548868656
v 0.6000004 1.2 0.5999999
v 0.6000004 1.2 -0.5999999
v 0.5488682 1.2 -0.548868656
v 0.5488682 1.2 0.548868656
v 0.6000004 1.2 -0.5999999
v -0.6000004 1.2 -0.5999999
v -0.5488682 1.2 -0.548868656
v 0.5488682 1.2 -0.548868656
v -0.6000004 1.2 -0.5999999
v -0.6000004 1.2 0.5999999
v -0.5488682 1.2 0.548868656
v -0.5488682 1.2 -0.548868656
v -0.5488682 1.2 0.548868656
v 0.5488682 1.2 0.548868656
v 0.5488682 0.6065595 0.548868656
v -0.5488682 0.6065595 0.548868656
v 0.5488682 1.2 0.548868656
v 0.5488682 1.2 -0.548868656
v 0.5488682 0.6065595 -0.548868656
v 0.5488682 0.6065595 0.548868656
v 0.5488682 1.2 -0.548868656
v -0.5488682 1.2 -0.548868656
v -0.5488682 0.6065595 -0.548868656
v 0.5488682 0.6065595 -0.548868656
v -0.5488682 1.2 -0.548868656
v -0.5488682 1.2 0.548868656
v -0.5488682 0.6065595 0.548868656
v -0.5488682 0.6065595 -0.548868656
v -0.00188452 1.13825893 0.0222163461
v 0.5488682 1.11178493 0.548299849
v 0.5488682 1.11387324 -0.5686317
v -0.5488682 1.11387324 -0.5686317
v -0.5488682 1.11178493 0.548299849
vt 0.150839835 0.941418469
vt 0.5205241 0.9414208
vt 0.520526469 0.633055
vt 0.1508422 0.6330526
vt 0.150839835 0.941418469
vt 0.5205241 0.9414208
vt 0.520526469 0.633055
vt 0.1508422 0.6330526
vt 0.150839835 0.941418469
vt 0.5205241 0.9414208
vt 0.520526469 0.633055
vt 0.1508422 0.6330526
vt 0.150839835 0.941418469
vt 0.5205241 0.9414208
vt 0.520526469 0.633055
vt 0.1508422 0.6330526
vt 0.142393485 0.6360289
vt 0.536185265 0.6360289
vt 0.5212573 0.6608077
vt 0.157321423 0.6608077
vt 0.142393485 0.6360289
vt 0.536185265 0.6360289
vt 0.5212573 0.6608077
vt 0.157321423 0.6608077
vt 0.142393485 0.6360289
vt 0.536185265 0.6360289
vt 0.5212573 0.6608077
vt 0.157321423 0.6608077
vt 0.142393485 0.6360289
vt 0.536185265 0.6360289
vt 0.5212573 0.6608077
vt 0.157321423 0.6608077
vt 0.150959909 0.94140625
vt 0.520676851 0.941408753
vt 0.520677745 0.811002731
vt 0.150960833 0.8110002
vt 0.150959909 0.94140625
vt 0.520676851 0.941408753
vt 0.520677745 0.811002731
vt 0.150960833 0.8110002
vt 0.150959909 0.94140625
vt 0.520676851 0.941408753
vt 0.520677745 0.811002731
vt 0.150960833 0.8110002
vt 0.150959909 0.94140625
vt 0.520676851 0.941408753
vt 0.520677745 0.811002731
vt 0.150960833 0.8110002
vt 0.203066 0.158843756
vt 0.0152536333 0.026106298
vt 0.3953378 0.026107192
vt 0.39533636 0.296026349
vt 0.015252322 0.2960255
vn 0 0 1
vn 0 0 1
vn 0 0 1
vn 0 0 1
vn 1 0 0
vn 1 0 0
vn 1 0 0
vn 1 0 0
vn 0 0 -1
vn 0 0 -1
vn 0 0 -1
vn 0 0 -1
vn -1 0 0
vn -1 0 0
vn -1 0 0
vn -1 0 0
vn 0 1 0
vn 0 1 0
vn 0 1 0
vn 0 1 0
vn 0 1 0
vn 0 1 0
vn 0 1 0
vn 0 1 0
vn 0 1 0
vn 0 1 0
vn 0 1 0
vn 0 1 0
vn 0 1 0
vn 0 1 0
vn 0 1 0
vn 0 1 0
vn 0 0 -1
vn 0 0 -1
vn 0 0 -1
vn 0 0 -1
vn -1 0 0
vn -1 0 0
vn -1 0 0
vn -1 0 0
vn 0 0 1
vn 0 0 1
vn 0 0 1
vn 0 0 1
vn 1 0 0
vn 1 0 0
vn 1 0 0
vn 1 0 0
vn -7.955523E-05 0.9999949 0.00319271744
vn 0.0231295787 0.9993923 0.026078051
vn 0.02312818 0.9995385 -0.01969462
vn -0.023287287 0.9995348 -0.0196947083
vn -0.023288697 0.9993886 0.0260781329
usemtl nml-bd002_part_0_material_0
f 1/1/1 2/2/2 3/3/3
f 3/3/3 4/4/4 1/1/1
f 5/5/5 6/6/6 7/7/7
f 7/7/7 8/8/8 5/5/5
f 9/9/9 10/10/10 11/11/11
f 11/11/11 12/12/12 9/9/9
f 13/13/13 14/14/14 15/15/15
f 15/15/15 16/16/16 13/13/13
f 17/17/17 18/18/18 19/19/19
f 19/19/19 20/20/20 17/17/17
f 21/21/21 22/22/22 23/23/23
f 23/23/23 24/24/24 21/21/21
f 25/25/25 26/26/26 27/27/27
f 27/27/27 28/28/28 25/25/25
f 29/29/29 30/30/30 31/31/31
f 31/31/31 32/32/32 29/29/29
f 33/33/33 34/34/34 35/35/35
f 35/35/35 36/36/36 33/33/33
f 37/37/37 38/38/38 39/39/39
f 39/39/39 40/40/40 37/37/37
f 41/41/41 42/42/42 43/43/43
f 43/43/43 44/44/44 41/41/41
f 45/45/45 46/46/46 47/47/47
f 47/47/47 48/48/48 45/45/45
f 49/49/49 50/50/50 51/51/51
f 51/51/51 52/52/52 49/49/49
f 49/49/49 52/52/52 53/53/53
f 53/53/53 50/50/50 49/49/49
