mtllib nml-bd049.mtl
o nml-bd049_part_0
v 1.15440607 2.469785 -1.69384742
v 2.36942625 2.43601 -1.11451411
v 2.36942625 2.18603849 -1.11451411
v 1.15440607 2.21981359 -1.69384742
v 1.40348387 3.31041336 -0.869593143
v 1.048532 3.80872 -0.161340773
v 1.92731214 3.24500751 -0.148037657
v 2.211958 2.43601 -0.9152817
v 2.47128439 2.28078938 -0.176038444
v 2.70098066 2.187452 -0.1736714
v 2.70098066 1.93748069 -0.1736714
v 1.11149466 2.469785 -1.40305686
v 2.36942625 2.43601 -1.11451411
v 1.15440607 2.469785 -1.69384742
v 1.11149466 2.469785 -1.40305686
v 2.211958 2.43601 -0.9152817
v 2.70098066 2.187452 -0.1736714
v 2.47128439 2.28078938 -0.176038444
v 5.209412E-07 3.41807342 -0.876167953
v 4.16778533E-07 3.89472842 -0.161340863
v 6.97180269E-07 2.21981335 -1.69384754
v 6.75327044E-07 2.46978474 -1.69384754
v 6.4990536E-07 2.46978474 -1.403057
v 6.75327044E-07 2.46978474 -1.69384754
v 6.4990536E-07 2.46978474 -1.403057
v 2.36942625 2.18603849 1.07446408
v 2.36942625 2.43601 1.07446408
v 1.15440643 2.469785 1.65379691
v 1.15440547 2.21981359 1.65379739
v 1.92731214 3.24500751 0.107987419
v 1.04853261 3.80872 0.121290147
v 1.40348446 3.31041336 0.8295429
v 2.21195841 2.43601 0.875231564
v 2.471284 2.28078938 0.1359883
v 2.700981 1.93748069 0.133621544
v 2.700981 2.187452 0.133621544
v 1.11149418 2.469785 1.36300635
v 1.11149418 2.469785 1.36300635
v 1.15440643 2.469785 1.65379691
v 2.36942625 2.43601 1.07446408
v 2.21195841 2.43601 0.875231564
v 2.700981 2.187452 0.133621544
v 2.471284 2.28078938 0.1359883
v 1.98888755 3.57558584 0.112986825
v 1.98888731 3.57558584 -0.15303728
v 1.52843463 3.95426536 -0.156222835
v 1.52843463 3.95426488 0.1161723
v 2.26039648 2.86942816 -0.158822492
v 2.26039648 2.869428 0.118772313
v 3.0588038 2.34789824 0.135988355
v 3.05880427 2.34789848 -0.176038384
v 3.06358433 1.82624948 -0.173671365
v 3.063584 1.82624948 0.133621573
v 2.68035316 1.54144239 0.133621544
v 2.68035316 1.54144239 -0.1736714
v 2.471284 2.28078938 0.1359883
v 3.0588038 2.34789824 0.135988355
v 2.26039648 2.869428 0.118772313
v 1.92731214 3.24500751 0.107987419
v 2.700981 2.187452 0.133621544
v 3.063584 1.82624948 0.133621573
v 2.700981 1.93748069 0.133621544
v 2.68035316 1.54144239 0.133621544
v 2.70098066 1.93748069 -0.1736714
v 2.68035316 1.54144239 -0.1736714
v 2.68035316 1.54144239 0.133621544
v 2.700981 1.93748069 0.133621544
v 3.5356797E-07 3.54264617 0.913786
v 3.92070149E-07 3.89472842 0.121290058
v 4.04519852E-07 2.21981335 1.65379727
v -9.417045E-08 2.46978474 1.65379679
v -6.874873E-08 2.46978474 1.36300623
v -9.417045E-08 2.46978474 1.65379679
v -6.874873E-08 2.46978474 1.36300623
v 0.350723654 3.97798514 0.121290088
v 1.01156747 3.891977 0.121290147
v 1.01156747 3.891977 -0.161341012
v 0.350723684 3.97798562 -0.161341071
v 1.52843463 3.95426488 0.1161723
v 1.01156747 3.891977 0.121290147
v 1.04853261 3.80872 0.121290147
v 0.350723654 3.97798514 0.121290088
v 3.92070149E-07 3.89472842 0.121290058
v 1.98888755 3.57558584 0.112986825
v 1.01156747 3.891977 -0.161341012
v 1.52843463 3.95426536 -0.156222835
v 1.048532 3.80872 -0.161340773
v 4.16778533E-07 3.89472842 -0.161340863
v 0.350723684 3.97798562 -0.161341071
v 1.92731214 3.24500751 -0.148037657
v 1.98888731 3.57558584 -0.15303728
v 2.26039648 2.86942816 -0.158822492
v -2.36942458 2.1860373 -1.11451447
v -2.369425 2.43600869 -1.11451447
v -1.15440488 2.4697845 -1.69384766
v -1.15440488 2.219813 -1.69384766
v -1.927311 3.24500656 -0.148037985
v -1.048532 3.80871964 -0.161340952
v -1.40348339 3.31041265 -0.869593441
v -2.21195674 2.436009 -0.91528213
v -2.471283 2.28078842 -0.176038876
v -2.70097971 1.9374795 -0.173671871
v -2.70097971 2.187451 -0.173671871
v -1.111493 2.4697845 -1.4030571
v -1.111493 2.4697845 -1.4030571
v -1.15440488 2.4697845 -1.69384766
v -2.369425 2.43600869 -1.11451447
v -2.21195674 2.436009 -0.91528213
v -2.70097971 2.187451 -0.173671871
v -2.471283 2.28078842 -0.176038876
v -1.15440524 2.4697845 1.65379667
v -2.3694253 2.43600869 1.07446373
v -2.3694253 2.1860373 1.07446373
v -1.15440524 2.219813 1.65379715
v -1.40348351 3.31041265 0.8295426
v -1.04853213 3.80871964 0.121289961
v -1.927311 3.24500656 0.107987083
v -2.211957 2.436009 0.875231147
v -2.471283 2.28078818 0.135987863
v -2.70097971 2.187451 0.133621067
v -2.70097971 1.9374795 0.133621067
v -1.11149371 2.4697845 1.36300611
v -2.3694253 2.43600869 1.07446373
v -1.15440524 2.4697845 1.65379667
v -1.11149371 2.4697845 1.36300611
v -2.211957 2.436009 0.875231147
v -2.70097971 2.187451 0.133621067
v -2.471283 2.28078818 0.135987863
v -1.5284344 3.95426464 -0.1562231
v -1.98888731 3.575585 -0.153037637
v -1.98888683 3.575585 0.112986475
v -1.5284344 3.95426416 0.116172031
v -3.058803 2.347897 0.135987818
v -2.26039553 2.869427 0.118771918
v -2.26039553 2.8694272 -0.158822879
v -3.058803 2.34789729 -0.176038921
v -2.6803515 1.5414412 0.133621067
v -3.063583 1.82624817 0.133621037
v -3.06358266 1.82624817 -0.1736719
v -2.6803515 1.5414412 -0.173671871
v -2.26039553 2.869427 0.118771918
v -3.058803 2.347897 0.135987818
v -2.471283 2.28078818 0.135987863
v -1.927311 3.24500656 0.107987083
v -3.063583 1.82624817 0.133621037
v -2.70097971 2.187451 0.133621067
v -2.6803515 1.5414412 0.133621067
v -2.70097971 1.9374795 0.133621067
v -2.6803515 1.5414412 0.133621067
v -2.6803515 1.5414412 -0.173671871
v -2.70097971 1.9374795 -0.173671871
v -2.70097971 1.9374795 0.133621067
v -1.01156771 3.89197659 -0.16134119
v -1.01156771 3.89197659 0.121289968
v -0.350723356 3.97798514 0.121290028
v -0.350723326 3.97798562 -0.161341131
v -1.5284344 3.95426416 0.116172031
v -1.04853213 3.80871964 0.121289961
v -1.01156771 3.89197659 0.121289968
v -0.350723356 3.97798514 0.121290028
v -1.98888683 3.575585 0.112986475
v 1.91410291 0.007887619 1.1834023
v 1.914103 0.007887499 -0.0200249981
v 1.9141022 2.19568276 -0.0200249981
v 1.91410208 2.19568276 1.1834023
v -1.9368645 0.007886306 -1.22345269
v -1.93686461 0.007886426 -0.0200253353
v -1.93686569 2.19568157 -0.0200253353
v -1.93686509 2.19568133 -1.22345269
v 0.350723654 3.97798514 0.121290088
v -0.350723326 3.97798562 -0.161341131
v -0.296141237 4.205521 -0.161341131
v -0.296141267 4.20552063 0.121290028
v -0.00170290633 4.30797243 0.121290058
v -0.00170288165 4.307973 -0.1613411
v 0.350723654 3.97798514 0.121290088
v 0.350723684 3.97798562 -0.161341071
v 0.292735964 4.205521 -0.161341071
v 0.292735934 4.20552063 0.12129008
v -0.350723326 3.97798562 -0.161341131
v -0.350723356 3.97798514 0.121290028
v -0.296141267 4.20552063 0.121290028
v -0.296141237 4.205521 -0.161341131
v -0.00170290633 4.30797243 0.121290058
v -0.296141267 4.20552063 0.121290028
v 0.292735934 4.20552063 0.12129008
v -0.00170288165 4.307973 -0.1613411
v 0.292735964 4.205521 -0.161341071
v -0.296141237 4.205521 -0.161341131
v 0.4922816 0.00788726 1.18340218
v 1.91410291 0.007887619 1.1834023
v 1.91410208 2.19568276 1.1834023
v 0.49228093 2.19568229 1.18340218
v -1.28150928 0.715638161 1.11815488
v -1.28150928 0.715638161 1.18340206
v -0.479375273 0.7156384 1.18340206
v 0.343375772 0.715638638 1.18340218
v 0.3433758 0.715638638 1.11815488
v -1.2815094 1.48793042 1.11815476
v -1.2815094 1.48793042 1.18340206
v -1.28150928 0.715638161 1.18340206
v -1.28150928 0.715638161 1.11815488
v 0.3433758 0.715638638 1.11815488
v 0.343375772 0.715638638 1.18340218
v 0.343375236 1.487931 1.18340218
v 0.343375236 1.487931 1.11815488
v -0.479375869 2.195682 1.18340206
v -0.4793758 1.48793066 1.18340206
v 0.343375236 1.487931 1.18340218
v -0.479375273 0.7156384 1.18340206
v -0.4793752 0.007886902 1.18340206
v 0.4922816 0.00788726 1.18340218
v 0.343375772 0.715638638 1.18340218
v 0.49228093 2.19568229 1.18340218
v -1.28150928 0.715638161 1.18340206
v -1.93686581 2.19568157 1.183402
v -1.2815094 1.48793042 1.18340206
v -1.93686521 0.007886545 1.183402
v 1.91410339 0.007887436 -1.22345233
v 1.91410232 2.19568253 -1.22345233
v -1.93686521 0.007886545 1.183402
v -1.93686581 2.19568157 1.183402
v 0.100482792 2.84130383 1.93627763
v 0.59893 2.64084387 1.83509326
v 0.589643836 2.94779658 1.47908783
v 0.100482821 3.01856518 1.39109826
v 0.692084 2.69954252 1.34432077
v 0.100482851 2.83546567 1.2181983
v 0.100482874 2.15129113 1.67384708
v 0.587323368 2.28533578 1.63299048
v 0.593928 2.36045957 1.86936712
v 0.100482836 2.31229234 1.96876121
v 1.12911642 2.75594 1.92002463
v 1.12911642 3.01856565 1.391098
v 1.12911665 2.83546567 1.21819842
v 1.12911642 2.15129113 1.6738472
v 1.12911618 2.31229234 1.96876144
v 1.69752371 2.610479 1.70801806
v 1.69752371 2.72042632 1.56467688
v 1.69752371 2.54830885 1.50829577
v 1.69752347 2.48313975 1.61980307
v 1.69752324 2.51004863 1.70447075
v 1.82296288 2.48313951 1.61980283
v 1.8229624 2.55916762 1.55676115
v 1.82296312 2.54830837 1.50829566
v 1.82296312 2.72042632 1.56467664
v 1.82296312 2.6104784 1.708018
v 1.82296264 2.510048 1.70447063
v 1.82296312 2.6104784 1.708018
v 1.82296312 2.72042632 1.56467664
v 1.82296312 2.54830837 1.50829566
v 1.69752371 2.54830885 1.50829577
v 1.697523 2.559168 1.55676126
v 1.69752371 2.54830885 1.50829577
v 1.82296288 2.48313951 1.61980283
v 1.82296264 2.510048 1.70447063
v 1.69752347 2.48313975 1.61980307
v -0.3886782 2.94779658 1.47908747
v -0.3979646 2.64084387 1.83509314
v -0.491118044 2.69954252 1.34432077
v -0.392962545 2.36045957 1.869367
v -0.386357367 2.253493 1.620356
v -0.9281508 3.018566 1.39109778
v -0.9281508 2.7559402 1.92002439
v -0.9281507 2.835466 1.21819818
v -0.9281503 2.31229258 1.96876085
v -0.9281507 2.15129137 1.6738466
v -1.49655735 2.72042632 1.5646764
v -1.49655831 2.610479 1.70801783
v -1.49655831 2.54830885 1.5082953
v -1.49655783 2.51004863 1.70447052
v -1.49655831 2.48313975 1.61980283
v -1.62199748 2.61047864 1.70801771
v -1.621997 2.720426 1.56467617
v -1.621998 2.54830837 1.50829542
v -1.621997 2.55916762 1.556761
v -1.62199748 2.48313951 1.61980259
v -1.621997 2.51004815 1.7044704
v -1.621997 2.720426 1.56467617
v -1.62199748 2.61047864 1.70801771
v -1.49655831 2.54830885 1.5082953
v -1.621998 2.54830837 1.50829542
v -1.49655735 2.559168 1.556761
v -1.49655831 2.54830885 1.5082953
v -1.621997 2.51004815 1.7044704
v -1.62199748 2.48313951 1.61980259
v -1.49655831 2.48313975 1.61980283
v -1.3379178 1.45224082 2.27185941
v 0.3359813 1.452241 2.27185965
v 0.3359813 1.550121 2.2734592
v -1.33791792 1.550121 2.2734592
v 0.335981369 1.88584 1.21742713
v -1.3379178 1.88583994 1.217427
v -1.01156771 3.89197659 -0.16134119
v -1.048532 3.80871964 -0.161340952
v -1.5284344 3.95426464 -0.1562231
v -0.350723326 3.97798562 -0.161341131
v -1.927311 3.24500656 -0.148037985
v -1.98888731 3.575585 -0.153037637
v -2.26039553 2.8694272 -0.158822879
v -0.478047729 0.6351931 1.167162
v -1.35633552 0.635193169 1.1671617
v -1.35633552 0.3459083 1.931813
v -0.4780478 0.345908225 1.93181288
v 0.352930665 0.6351931 1.167162
v 0.3529306 0.345908165 1.93181288
v -0.4780478 0.345908225 1.93181288
v -1.35633552 0.3459083 1.931813
v -1.35633552 1.406402E-07 1.93181312
v -0.478047758 1.39191457E-07 1.931813
v 0.3529306 0.345908165 1.93181288
v 0.352930635 1.3733208E-07 1.93181312
v 0.352930665 0.6351931 1.167162
v 0.352930248 1.07529722E-07 1.16716206
v -1.35633552 0.635193169 1.1671617
v -1.35633552 1.10837867E-07 1.167162
v 2.00738263 0.557536542 0.970221758
v 1.91174448 0.557536542 0.970221758
v 1.91174448 0.557536542 1.0582087
v 2.00738263 0.557536542 1.0582087
v 2.00738263 0.557536542 1.0582087
v 1.91174448 0.557536542 1.0582087
v 1.91174424 0.00674069859 1.0582087
v 2.00738263 0.006740696 1.0582087
v 2.00738263 0.557536542 0.970221758
v 2.00738263 0.557536542 1.0582087
v 2.00738263 0.006740696 1.0582087
v 2.00738263 0.006740696 0.970221758
v 1.91174448 0.557536542 0.970221758
v 2.00738263 0.557536542 0.970221758
v 2.00738263 0.006740696 0.970221758
v 1.91174436 0.00674069859 0.970221758
v 2.00738263 0.557536542 -0.04703209
v 1.91174459 0.557536542 -0.0470321029
v 1.91174459 0.557536542 0.0409548432
v 2.00738263 0.557536542 0.0409548543
v 2.00738263 0.557536542 0.0409548543
v 1.91174459 0.557536542 0.0409548432
v 1.91174436 0.006740695 0.0409548432
v 2.00738263 0.006740696 0.0409548543
v 2.00738263 0.557536542 -0.04703209
v 2.00738263 0.557536542 0.0409548543
v 2.00738263 0.006740696 0.0409548543
v 2.00738263 0.006740696 -0.04703209
v 1.91174459 0.557536542 -0.0470321029
v 2.00738263 0.557536542 -0.04703209
v 2.00738263 0.006740696 -0.04703209
v 1.91174436 0.006740695 -0.0470321029
v 2.00738263 0.557536542 -1.109916
v 1.91174471 0.557536542 -1.109916
v 1.91174471 0.557536542 -1.021929
v 2.00738263 0.557536542 -1.021929
v 2.00738263 0.557536542 -1.021929
v 1.91174471 0.557536542 -1.021929
v 1.91174448 0.006740695 -1.021929
v 2.00738263 0.006740696 -1.021929
v 2.00738263 0.557536542 -1.109916
v 2.00738263 0.557536542 -1.021929
v 2.00738263 0.006740696 -1.021929
v 2.00738287 0.006740696 -1.109916
v 1.91174471 0.557536542 -1.109916
v 2.00738263 0.557536542 -1.109916
v 2.00738287 0.006740696 -1.109916
v 1.91174448 0.006740695 -1.109916
v 1.95941842 0.128279179 1.0039885
v 1.95941854 0.12827915 0.0100112166
v 1.95941854 0.4895344 0.0100112166
v 1.95941842 0.489534467 1.0039885
v 1.95941854 0.12827915 -0.03631089
v 1.95941865 0.12827912 -1.030288
v 1.95941865 0.4895344 -1.030288
v 1.95941854 0.489534467 -0.03631089
v -1.35681581 0.557536542 2.03644371
v -1.35681581 0.557536542 1.94080567
v -1.44480276 0.557536542 1.94080567
v -1.44480276 0.557536542 2.03644371
v -1.44480276 0.557536542 2.03644371
v -1.44480276 0.557536542 1.94080567
v -1.44480312 0.00674070651 1.94080544
v -1.44480312 0.00674070651 2.03644371
v -1.35681581 0.557536542 2.03644371
v -1.44480276 0.557536542 2.03644371
v -1.44480312 0.00674070651 2.03644371
v -1.35681617 0.006740707 2.03644371
v -1.35681581 0.557536542 1.94080567
v -1.35681581 0.557536542 2.03644371
v -1.35681617 0.006740707 2.03644371
v -1.35681617 0.006740707 1.94080544
v -1.37825286 0.12827912 2.001771
v -0.51437515 0.12827912 2.001771
v -0.51437515 0.489534378 2.001771
v -1.378253 0.4895344 2.001771
v -1.35681617 0.006740707 1.94080544
v -1.44480312 0.00674070651 1.94080544
v -1.44480276 0.557536542 1.94080567
v -1.35681581 0.557536542 1.94080567
v -0.446504563 0.557536542 2.03644371
v -0.446504533 0.557536542 1.94080567
v -0.5344915 0.557536542 1.94080567
v -0.5344915 0.557536542 2.03644371
v -0.5344915 0.557536542 2.03644371
v -0.5344915 0.557536542 1.94080567
v -0.5344919 0.00674071535 1.94080544
v -0.534491956 0.00674071535 2.03644371
v -0.446504563 0.557536542 2.03644371
v -0.5344915 0.557536542 2.03644371
v -0.534491956 0.00674071535 2.03644371
v -0.44650498 0.006740716 2.03644371
v -0.446504533 0.557536542 1.94080567
v -0.446504563 0.557536542 2.03644371
v -0.44650498 0.006740716 2.03644371
v -0.44650498 0.006740716 1.94080544
v -0.44650498 0.006740716 1.94080544
v -0.5344919 0.00674071535 1.94080544
v -0.5344915 0.557536542 1.94080567
v -0.446504533 0.557536542 1.94080567
v -0.469821364 0.12827912 2.001771
v 0.4352127 0.128279075 2.00177121
v 0.435212672 0.489534348 2.00177121
v -0.4698214 0.489534438 2.001771
v 0.437788516 0.557536542 2.036444
v 0.437788546 0.557536542 1.94080579
v 0.3498016 0.557536542 1.94080579
v 0.34980157 0.557536542 2.03644371
v 0.34980157 0.557536542 2.03644371
v 0.3498016 0.557536542 1.94080579
v 0.349801153 0.0067407107 1.94080555
v 0.349801153 0.0067407107 2.03644371
v 0.437788516 0.557536542 2.036444
v 0.34980157 0.557536542 2.03644371
v 0.349801153 0.0067407107 2.03644371
v 0.4377881 0.006740711 2.036444
v 0.437788546 0.557536542 1.94080579
v 0.437788516 0.557536542 2.036444
v 0.4377881 0.006740711 2.036444
v 0.4377881 0.006740711 1.94080555
v 0.4377881 0.006740711 1.94080555
v 0.349801153 0.0067407107 1.94080555
v 0.3498016 0.557536542 1.94080579
v 0.437788546 0.557536542 1.94080579
v 0.442500234 0.557536542 1.29149
v 0.442500234 0.557536542 1.19585192
v 0.3545133 0.557536542 1.19585192
v 0.3545133 0.557536542 1.29149
v 0.442500234 0.557536542 1.29149
v 0.3545133 0.557536542 1.29149
v 0.354512841 0.006740715 1.29149
v 0.4424998 0.00674071535 1.29149
v 0.442500234 0.557536542 1.19585192
v 0.442500234 0.557536542 1.29149
v 0.4424998 0.00674071535 1.29149
v 0.4424998 0.00674071535 1.19585168
v -1.36561906 0.557536542 1.27963042
v -1.36561906 0.557536542 1.18399239
v -1.453606 0.557536542 1.18399239
v -1.453606 0.557536542 1.27963042
v -1.453606 0.557536542 1.27963042
v -1.453606 0.557536542 1.18399239
v -1.45360649 0.00674070232 1.18399215
v -1.45360649 0.00674070232 1.27963042
v -1.36561906 0.557536542 1.27963042
v -1.453606 0.557536542 1.27963042
v -1.45360649 0.00674070232 1.27963042
v -1.36561954 0.00674070232 1.27963042
v -1.41889751 0.1282791 1.26593626
v -1.41889751 0.1282791 1.98569131
v -1.41889763 0.4895344 1.98569131
v -1.41889751 0.489534467 1.26593626
v 0.397523 0.4895344 1.98569143
v 0.397523016 0.1282791 1.98569143
v 0.397523075 0.1282791 1.26593637
v 0.397523046 0.489534467 1.26593637
v -2.0306704 0.557536542 1.05820835
v -1.93503225 0.557536542 1.05820835
v -1.93503225 0.557536542 0.97022146
v -2.0306704 0.557536542 0.9702214
v -2.0306704 0.557536542 0.9702214
v -1.93503225 0.557536542 0.97022146
v -1.93503213 0.00674069347 0.97022146
v -2.0306704 0.00674069254 0.9702214
v -2.0306704 0.557536542 1.05820835
v -2.0306704 0.557536542 0.9702214
v -2.0306704 0.00674069254 0.9702214
v -2.0306704 0.00674069254 1.05820835
v -1.93503225 0.557536542 1.05820835
v -2.0306704 0.557536542 1.05820835
v -2.0306704 0.00674069254 1.05820835
v -1.93503225 0.00674069347 1.05820835
v -2.030671 0.557536542 0.0409540236
v -1.93503261 0.557536542 0.04095403
v -1.93503261 0.557536542 -0.0470329151
v -2.030671 0.557536542 -0.0470329225
v -2.030671 0.557536542 -0.0470329225
v -1.93503261 0.557536542 -0.0470329151
v -1.93503261 0.00674069347 -0.0470329151
v -2.030671 0.00674069254 -0.0470329225
v -2.030671 0.557536542 0.0409540236
v -2.030671 0.557536542 -0.0470329225
v -2.030671 0.00674069254 -0.0470329225
v -2.0306704 0.00674069254 0.0409540236
v -1.93503261 0.557536542 0.04095403
v -2.030671 0.557536542 0.0409540236
v -2.0306704 0.00674069254 0.0409540236
v -1.93503213 0.00674069347 0.04095403
v -2.030671 0.557536542 -1.02193034
v -1.93503249 0.557536542 -1.02193034
v -1.93503249 0.557536542 -1.10991728
v -2.030671 0.557536542 -1.10991728
v -2.030671 0.557536542 -1.10991728
v -1.93503249 0.557536542 -1.10991728
v -1.935032 0.00674069347 -1.10991728
v -2.03067017 0.00674069254 -1.10991728
v -2.030671 0.557536542 -1.02193034
v -2.030671 0.557536542 -1.10991728
v -2.03067017 0.00674069254 -1.10991728
v -2.0306704 0.00674069254 -1.02193034
v -1.93503249 0.557536542 -1.02193034
v -2.030671 0.557536542 -1.02193034
v -2.0306704 0.00674069254 -1.02193034
v -1.935032 0.00674069347 -1.02193034
v -2.00690675 0.128279164 0.0100106318
v -2.00690627 0.128279135 1.00398791
v -2.00690675 0.489534438 1.00398791
v -2.00690675 0.4895345 0.0100106318
v -2.00690675 0.128279135 -1.03028834
v -2.00690675 0.1282791 -0.03631124
v -2.00690722 0.489534438 -0.03631124
v -2.00690722 0.4895345 -1.03028834
v 1.91410232 2.19568253 -1.22345233
v 1.91410339 0.007887436 -1.22345233
v 0.49228254 0.007887018 -1.22345245
v 0.492281854 2.195682 -1.22345245
v -1.28150856 0.7156379 -1.15820551
v 0.343376458 0.7156384 -1.15820491
v 0.343376458 0.7156384 -1.22345245
v -0.4793746 0.715638161 -1.22345257
v -1.28150856 0.7156379 -1.22345257
v -1.28150856 0.7156379 -1.22345257
v -1.28150868 1.48793 -1.22345257
v -1.28150868 1.48793 -1.158205
v -1.28150856 0.7156379 -1.15820551
v 0.343375921 1.48793066 -1.22345245
v 0.343376458 0.7156384 -1.22345245
v 0.343376458 0.7156384 -1.15820491
v 0.343375921 1.48793066 -1.15820491
v 0.343375921 1.48793066 -1.22345245
v -0.479375124 1.48793054 -1.22345257
v -0.479375184 2.19568181 -1.22345257
v 0.492281854 2.195682 -1.22345245
v 0.49228254 0.007887018 -1.22345245
v -0.4793745 0.007886657 -1.22345257
v -0.4793746 0.715638161 -1.22345257
v 0.343376458 0.7156384 -1.22345245
v -1.28150856 0.7156379 -1.22345257
v -1.9368645 0.007886306 -1.22345269
v -1.93686509 2.19568133 -1.22345269
v -1.28150868 1.48793 -1.22345257
v -1.35633433 0.345908374 -1.99118042
v -1.35633481 0.635193169 -1.22652912
v -0.47804752 0.6351931 -1.22652912
v -0.478046954 0.345908225 -1.99118
v 0.35293135 0.6351931 -1.226529
v 0.352931917 0.345908225 -1.99117982
v -1.35633469 1.59266691E-07 -1.99118042
v -1.35633433 0.345908374 -1.99118042
v -0.478046954 0.345908225 -1.99118
v -0.478046924 1.91345563E-07 -1.99118
v 0.352931917 0.345908225 -1.99117982
v 0.35293147 1.59683864E-07 -1.99117982
v 0.35293135 0.6351931 -1.226529
v 0.352930933 1.26156209E-07 -1.226529
v -1.35633481 1.25739078E-07 -1.22652912
v -1.35633481 0.635193169 -1.22652912
v -1.44480193 0.557536542 -2.000173
v -1.356815 0.557536542 -2.000173
v -1.356815 0.557536542 -2.095811
v -1.44480193 0.557536542 -2.095811
v -1.44480228 0.006740699 -2.00017262
v -1.44480193 0.557536542 -2.000173
v -1.44480193 0.557536542 -2.095811
v -1.44480228 0.006740703 -2.095811
v -1.44480228 0.006740703 -2.095811
v -1.44480193 0.557536542 -2.095811
v -1.356815 0.557536542 -2.095811
v -1.35681534 0.00674070325 -2.095811
v -1.35681534 0.00674070325 -2.095811
v -1.356815 0.557536542 -2.095811
v -1.356815 0.557536542 -2.000173
v -1.35681534 0.006740696 -2.00017262
v -0.5143743 0.489534378 -2.06113815
v -0.5143743 0.1282791 -2.06113815
v -1.378252 0.12827915 -2.06113815
v -1.37825215 0.4895344 -2.06113815
v -1.44480193 0.557536542 -2.000173
v -1.44480228 0.006740699 -2.00017262
v -1.35681534 0.006740696 -2.00017262
v -1.356815 0.557536542 -2.000173
v -0.534490645 0.557536542 -2.00017262
v -0.446503729 0.557536542 -2.00017262
v -0.446503729 0.557536542 -2.095811
v -0.534490645 0.557536542 -2.095811
v -0.5344911 0.00674068928 -2.00017262
v -0.534490645 0.557536542 -2.00017262
v -0.534490645 0.557536542 -2.095811
v -0.534491062 0.006740693 -2.095811
v -0.534491062 0.006740693 -2.095811
v -0.534490645 0.557536542 -2.095811
v -0.446503729 0.557536542 -2.095811
v -0.446504146 0.00674069347 -2.095811
v -0.446504146 0.00674069347 -2.095811
v -0.446503729 0.557536542 -2.095811
v -0.446503729 0.557536542 -2.00017262
v -0.446504146 0.006740686 -2.00017262
v -0.534490645 0.557536542 -2.00017262
v -0.5344911 0.00674068928 -2.00017262
v -0.446504146 0.006740686 -2.00017262
v -0.446503729 0.557536542 -2.00017262
v 0.4352135 0.489534348 -2.061138
v 0.435213536 0.128279045 -2.061138
v -0.469820529 0.128279135 -2.06113815
v -0.469820559 0.489534438 -2.06113815
v 0.3498024 0.557536542 -2.00017262
v 0.437789351 0.557536542 -2.00017238
v 0.437789351 0.557536542 -2.09581065
v 0.3498024 0.557536542 -2.095811
v 0.349802 0.006740707 -2.00017262
v 0.3498024 0.557536542 -2.00017262
v 0.3498024 0.557536542 -2.095811
v 0.349802 0.0067407107 -2.095811
v 0.349802 0.0067407107 -2.095811
v 0.3498024 0.557536542 -2.095811
v 0.437789351 0.557536542 -2.09581065
v 0.437788934 0.006740711 -2.09581065
v 0.437788934 0.006740711 -2.09581065
v 0.437789351 0.557536542 -2.09581065
v 0.437789351 0.557536542 -2.00017238
v 0.437788934 0.00674070371 -2.00017238
v 0.3498024 0.557536542 -2.00017262
v 0.349802 0.006740707 -2.00017262
v 0.437788934 0.00674070371 -2.00017238
v 0.437789351 0.557536542 -2.00017238
v 0.3545135 0.557536542 -1.25521886
v 0.442500442 0.557536542 -1.25521886
v 0.442500442 0.557536542 -1.35085666
v 0.3545135 0.557536542 -1.35085666
v 0.354513079 0.006740711 -1.35085666
v 0.3545135 0.557536542 -1.35085666
v 0.442500442 0.557536542 -1.35085666
v 0.442500025 0.00674071163 -1.35085666
v 0.442500025 0.00674071163 -1.35085666
v 0.442500442 0.557536542 -1.35085666
v 0.442500442 0.557536542 -1.25521886
v 0.442500025 0.006740708 -1.25521839
v -1.45360577 0.557536542 -1.24336
v -1.36561882 0.557536542 -1.24336
v -1.36561882 0.557536542 -1.33899832
v -1.45360577 0.557536542 -1.33899832
v -1.45360625 0.006740695 -1.24335957
v -1.45360577 0.557536542 -1.24336
v -1.45360577 0.557536542 -1.33899832
v -1.45360625 0.00674069859 -1.33899784
v -1.45360625 0.00674069859 -1.33899784
v -1.45360577 0.557536542 -1.33899832
v -1.36561882 0.557536542 -1.33899832
v -1.3656193 0.00674069859 -1.33899784
v -1.41889679 0.4895344 -2.0450592
v -1.41889668 0.1282791 -2.04505968
v -1.41889727 0.1282791 -1.32530451
v -1.41889727 0.489534467 -1.325304
v 0.397523284 0.1282791 -1.325303
v 0.39752385 0.1282791 -2.045058
v 0.3975238 0.4895344 -2.045058
v 0.397523254 0.489534467 -1.325303
v 3.05880427 2.34789848 -0.176038384
v 2.47128439 2.28078938 -0.176038444
v 3.06358433 1.82624948 -0.173671365
v 2.70098066 2.187452 -0.1736714
v 2.68035316 1.54144239 -0.1736714
v 2.70098066 1.93748069 -0.1736714
v -2.471283 2.28078842 -0.176038876
v -3.058803 2.34789729 -0.176038921
v -2.70097971 2.187451 -0.173671871
v -3.06358266 1.82624817 -0.1736719
v -2.70097971 1.9374795 -0.173671871
v -2.6803515 1.5414412 -0.173671871
v -0.987910867 2.7559402 1.8913002
v -0.924507737 2.7559402 1.90840733
v -0.0745430961 4.07919168 0.11701902
v -0.109559633 4.07919168 0.114121281
v 0.0725897253 2.850693 1.90755343
v 0.135992855 2.850693 1.92466056
v 0.0115593849 4.09134245 0.117019027
v -0.02345715 4.09134245 0.114121288
v 1.12127626 2.755116 1.91923618
v 1.17642391 2.744952 1.92744792
v 0.110555552 4.07919168 0.11167679
v 0.0755390152 4.07919168 0.10877905
v 1.48812485 1.95518231 -1.74942851
v 0.355538636 1.95518219 -1.89383829
v 0.329362541 3.08815956 -1.6929034
v 1.46194685 3.08815932 -1.54849362
v 0.414061338 1.97778809 -1.83829677
v -0.6814091 1.977788 -1.79847288
v -0.6748713 3.065554 -1.60403585
v 0.4205977 3.06555367 -1.64385974
v -0.07454308 4.13177824 -0.137766048
v -1.13895762 3.048712 -1.62783825
v -1.186 3.04480839 -1.6281482
v -0.109559618 4.13466644 -0.137535736
v 0.0444106236 4.13177824 -0.137766033
v -0.111227363 3.05789876 -1.62892139
v -0.160270065 3.06195235 -1.62755859
v 0.009394086 4.13466644 -0.137535721
v 0.1910533 4.13177824 -0.0299257189
v 0.9175664 3.06712437 -1.62967956
v 0.8687533 3.07084823 -1.630629
v 0.1604642 4.13466644 -0.04697003
v -1.33791745 1.45224082 -2.2718606
v -1.33791745 1.550121 -2.27346
v 0.3359817 1.550121 -2.27346
v 0.3359817 1.452241 -2.2718606
v -1.33791757 1.88583994 -1.21742773
v 0.335981578 1.88584 -1.21742761
v -0.637559652 1.97778821 -1.88435268
v -1.72563052 1.97778785 -1.75114882
v -1.70251787 3.065554 -1.5579797
v -0.614447951 3.065554 -1.69118357
v 0.329362541 3.08815956 -1.64517057
v 0.3555391 1.95518208 -1.84610546
v 1.48812485 1.95518219 -1.70169568
v 1.46194708 3.08815932 -1.50076079
v -0.6748718 3.065554 -1.556303
v -0.6814091 1.977788 -1.75074
v 0.4140613 1.97778809 -1.790564
v 0.420597225 3.06555367 -1.59612691
v -1.70251834 3.065554 -1.51024735
v -1.725631 1.97778785 -1.70341647
v -0.6375601 1.97778821 -1.83662033
v -0.6144489 3.065554 -1.64345121
v 0.5848436 0.0310679749 -1.79831994
v 1.60167956 0.0310679749 -1.7983197
v 1.60167956 0.00445621833 -1.7983197
v 0.5848436 0.00445621833 -1.79831994
v 0.5848436 0.0310679749 -1.79831994
v 0.5848436 0.00445621833 -1.79831994
v 0.584843457 0.00445624068 -0.8598305
v 0.584843457 0.0310680009 -0.8598305
v 1.60167956 0.0310679749 -1.7983197
v 0.584843457 0.0310680009 -0.8598305
v 1.60167956 0.0310680009 -0.85983026
v 1.60167956 0.00445621833 -1.7983197
v 1.60167956 0.00445624068 -0.85983026
v 1.59186268 0.0310679749 1.744859
v 0.532744169 0.0310679749 1.74485874
v 0.532744169 0.00445621833 1.74485874
v 1.59186268 0.00445621833 1.744859
v 1.59186268 0.0310679749 1.744859
v 1.59186268 0.00445621833 1.744859
v 1.59186292 0.00445624068 0.806369543
v 1.59186292 0.0310680009 0.806369543
v 0.532744169 0.0310679749 1.74485874
v 1.59186292 0.0310680009 0.806369543
v 0.532744169 0.0310680009 0.8063694
v 0.532744169 0.00445621833 1.74485874
v 0.532744169 0.00445624068 0.8063694
v 1.78730488 0.7824249 -1.21559024
v 1.78730512 0.7824249 -1.75587893
v 1.78730452 1.76465368 -1.75587893
v 1.78730452 1.76465392 -1.21559024
v 1.76236677 1.76465368 -1.75587893
v 1.76236737 0.7824249 -1.75587893
v 1.76236713 0.7824249 -1.21559024
v 1.76236677 1.76465392 -1.21559024
v 1.81207335 0.7108445 1.7938149
v 1.81207371 0.7108445 1.17477846
v 1.81207311 1.83623421 1.17477846
v 1.81207311 1.83623457 1.7938149
v 1.7871356 1.83623421 1.17477846
v 1.7871362 0.7108445 1.17477846
v 1.7871356 0.7108445 1.7938149
v 1.7871356 1.83623457 1.7938149
vt 0.44921875 0.99609375
vt 0.19921875 0.9921875
vt 0.19921875 0.9375
vt 0.44921875 0.9453125
vt 0.4453125 0.5859375
vt 0.4921875 0.80078125
vt 0.26953125 0.66015625
vt 0.25 0.3828125
vt 0.11328125 0.4609375
vt 0.01171875 0.9375
vt 0.01171875 0.890625
vt 0.5390625 0.359375
vt 0.0546875 0.828125
vt 0 0.58203125
vt 0.05859375 0.58984375
vt 0.08984375 0.8125
vt 0.21875 0.94140625
vt 0.2265625 0.8984375
vt 0.796875 0.68359375
vt 0.7265625 0.859375
vt 0.19921875 0.9375
vt 0.19921875 0.9921875
vt 0.796875 0.41015625
vt 0.0546875 0.828125
vt 0.08984375 0.8125
vt 0.19921875 0.9375
vt 0.19921875 0.9921875
vt 0.44921875 0.99609375
vt 0.44921875 0.9453125
vt 0.26953125 0.66015625
vt 0.4921875 0.80078125
vt 0.4453125 0.5859375
vt 0.25 0.3828125
vt 0.11328125 0.4609375
vt 0.01171875 0.890625
vt 0.01171875 0.9375
vt 0.5390625 0.359375
vt 0.05859375 0.58984375
vt 0 0.58203125
vt 0.0546875 0.828125
vt 0.08984375 0.8125
vt 0.21875 0.94140625
vt 0.2265625 0.8984375
vt 0.90625 0.71875
vt 0.99609375 0.71875
vt 0.99609375 0.98046875
vt 0.90625 0.98046875
vt 0.99609375 0.4296875
vt 0.90625 0.4296875
vt 0.90234375 0.78125
vt 1 0.78125
vt 1 0.98046875
vt 0.90234375 0.98046875
vt 0.90234375 0.81640625
vt 1 0.81640625
vt 0.15234375 0.53125
vt 0.01953125 0.546875
vt 0.203125 0.6640625
vt 0.28125 0.7578125
vt 0.1015625 0.50390625
vt 0.01953125 0.41796875
vt 0.1015625 0.4453125
vt 0.10546875 0.36328125
vt -1.92325354 -0.0697145462
vt -1.92325354 -0.169592619
vt -2.00007677 -0.169592619
vt -2.00007677 -0.0697145462
vt 0.796875 0.68359375
vt 0.7265625 0.859375
vt 0.19921875 0.9375
vt 0.19921875 0.9921875
vt 0.796875 0.41015625
vt 0.0546875 0.828125
vt 0.08984375 0.8125
vt 0.90234375 0.52734375
vt 0.90234375 0.78125
vt 1 0.78125
vt 1 0.52734375
vt 0.3828125 0.93359375
vt 0.50390625 0.921875
vt 0.49609375 0.8984375
vt 0.671875 0.94921875
vt 0.75390625 0.92578125
vt 0.2734375 0.84375
vt 0.50390625 0.921875
vt 0.3828125 0.93359375
vt 0.49609375 0.8984375
vt 0.7578125 0.921875
vt 0.671875 0.94921875
vt 0.28125 0.7578125
vt 0.2734375 0.84375
vt 0.203125 0.6640625
vt 0.19921875 0.9375
vt 0.19921875 0.9921875
vt 0.44921875 0.99609375
vt 0.44921875 0.9453125
vt 0.26953125 0.66015625
vt 0.4921875 0.80078125
vt 0.4453125 0.5859375
vt 0.25 0.3828125
vt 0.11328125 0.4609375
vt 0.01171875 0.890625
vt 0.01171875 0.9375
vt 0.5390625 0.359375
vt 0.05859375 0.58984375
vt 0 0.58203125
vt 0.0546875 0.828125
vt 0.08984375 0.8125
vt 0.21875 0.94140625
vt 0.2265625 0.8984375
vt 0.44921875 0.99609375
vt 0.19921875 0.9921875
vt 0.19921875 0.9375
vt 0.44921875 0.9453125
vt 0.4453125 0.5859375
vt 0.4921875 0.80078125
vt 0.26953125 0.66015625
vt 0.25 0.3828125
vt 0.11328125 0.4609375
vt 0.01171875 0.9375
vt 0.01171875 0.890625
vt 0.5390625 0.359375
vt 0.0546875 0.828125
vt 0 0.58203125
vt 0.05859375 0.58984375
vt 0.08984375 0.8125
vt 0.21875 0.94140625
vt 0.2265625 0.8984375
vt 0.99609375 0.98046875
vt 0.99609375 0.71875
vt 0.90625 0.71875
vt 0.90625 0.98046875
vt 0.90234375 0.78125
vt 0.90625 0.4296875
vt 0.99609375 0.4296875
vt 1 0.78125
vt 0.90234375 0.81640625
vt 0.90234375 0.98046875
vt 1 0.98046875
vt 1 0.81640625
vt 0.203125 0.6640625
vt 0.01953125 0.546875
vt 0.15234375 0.53125
vt 0.28125 0.7578125
vt 0.01953125 0.41796875
vt 0.1015625 0.50390625
vt 0.10546875 0.36328125
vt 0.1015625 0.4453125
vt -2.00007677 -0.169592619
vt -1.92325354 -0.169592619
vt -1.92325354 -0.0697145462
vt -2.00007677 -0.0697145462
vt 1 0.78125
vt 0.90234375 0.78125
vt 0.90234375 0.52734375
vt 1 0.52734375
vt 0.3828125 0.93359375
vt 0.49609375 0.8984375
vt 0.50390625 0.921875
vt 0.671875 0.94921875
vt 0.2734375 0.84375
vt 0.71875 0.0119947195
vt 0.9983443 0.0119947195
vt 0.9983443 0.5546875
vt 0.71875 0.5546875
vt 0.71875 0.0119947195
vt 0.9983443 0.0119947195
vt 0.9983443 0.5546875
vt 0.71875 0.5546875
vt 0.80859375 0.94921875
vt 0.80859375 0.94921875
vt 0.49609375 0.2734375
vt 0.41796875 0.2734375
vt 0.41796875 0.34375
vt 0.49609375 0.34375
vt 0.41796875 0.21484375
vt 0.49609375 0.21484375
vt 0.49609375 0.2734375
vt 0.41796875 0.2734375
vt 0.41796875 0.21484375
vt 0.49609375 0.21484375
vt 0.49609375 0.2734375
vt 0.41796875 0.2734375
vt 0.7421875 1
vt 0.69921875 0.984375
vt 0.78515625 0.98828125
vt 0.7421875 1
vt 0.69921875 0.984375
vt 0.78515625 0.98828125
vt 0.3671875 0.01171875
vt 0.71875 0.01171875
vt 0.71875 0.55859375
vt 0.3671875 0.55859375
vt 0.66796875 -0.86328125
vt 0.71484375 -0.86328125
vt 0.71484375 -0.69140625
vt 0.71484375 -0.51171875
vt 0.66796875 -0.51171875
vt 1.15234375 -0.52734375
vt 1.1171875 -0.52734375
vt 1.1171875 -0.71484375
vt 1.15234375 -0.71484375
vt 1.1171875 -0.71875
vt 1.15234375 -0.71875
vt 1.15234375 -0.52734375
vt 1.1171875 -0.52734375
vt 0.35546875 0.5625
vt 0.35546875 0.38671875
vt 0.15234375 0.38671875
vt 0.35546875 0.1953125
vt 0.35546875 0.01953125
vt 0.11328125 0.01953125
vt 0.15234375 0.1953125
vt 0.11328125 0.5625
vt 0.16015625 0.1953125
vt 0 0.5625
vt 0.16015625 0.38671875
vt 0 0.01953125
vt 0.71875 0.0119947195
vt 0.71875 0.5546875
vt 0.71875 0.0119947195
vt 0.71875 0.5546875
vt 0.31640625 0.98046875
vt 0.328125 0.875
vt 0.1796875 0.84765625
vt 0.140625 0.9296875
vt 0.078125 0.78125
vt 0.01953125 0.86328125
vt 0.58203125 0.9296875
vt 0.5390625 0.8203125
vt 0.4453125 0.85546875
vt 0.4765625 0.96484375
vt 0.34765625 0.75
vt 0.22265625 0.73828125
vt 0.1640625 0.69140625
vt 0.484375 0.6796875
vt 0.4375 0.734375
vt 0.3203125 0.6171875
vt 0.2890625 0.61328125
vt 0.28515625 0.6015625
vt 0.3671875 0.6015625
vt 0.34765625 0.61328125
vt 0.1015625 0.57421875
vt 0.125 0.6015625
vt 0.125 0.63671875
vt 0.109375 0.64453125
vt 0.07421875 0.60546875
vt 0.08203125 0.58203125
vt 0.31640625 0.58203125
vt 0.296875 0.58203125
vt 0.31640625 0.58203125
vt 0.3203125 0.6171875
vt 0.125 0.6015625
vt 0.125 0.63671875
vt 0.35546875 0.5703125
vt 0.3359375 0.57421875
vt 0.1015625 0.57421875
vt 0.1796875 0.84765625
vt 0.328125 0.875
vt 0.078125 0.78125
vt 0.4453125 0.85546875
vt 0.5390625 0.8203125
vt 0.22265625 0.73828125
vt 0.34765625 0.75
vt 0.1640625 0.69140625
vt 0.4375 0.734375
vt 0.484375 0.6796875
vt 0.2890625 0.61328125
vt 0.3203125 0.6171875
vt 0.28515625 0.6015625
vt 0.34765625 0.61328125
vt 0.3671875 0.6015625
vt 0.07421875 0.60546875
vt 0.109375 0.64453125
vt 0.125 0.63671875
vt 0.125 0.6015625
vt 0.1015625 0.57421875
vt 0.08203125 0.58203125
vt 0.296875 0.58203125
vt 0.31640625 0.58203125
vt 0.3203125 0.6171875
vt 0.31640625 0.58203125
vt 0.125 0.6015625
vt 0.125 0.63671875
vt 0.3359375 0.57421875
vt 0.35546875 0.5703125
vt 0.1015625 0.57421875
vt 0.9921875 0.0078125
vt 0.51171875 0.0078125
vt 0.51171875 0.046875
vt 0.9921875 0.046875
vt 0.51171875 0.33984375
vt 0.9921875 0.33984375
vt 0.50390625 0.921875
vt 0.49609375 0.8984375
vt 0.3828125 0.93359375
vt 0.671875 0.94921875
vt 0.28125 0.7578125
vt 0.2734375 0.84375
vt 0.203125 0.6640625
vt 0.60546875 0.79296875
vt 0.60546875 0.578125
vt 0.7890625 0.578125
vt 0.7890625 0.79296875
vt 0.60546875 0.99609375
vt 0.7890625 0.99609375
vt 0.8828125 0.98828125
vt 0.8828125 0.7734375
vt 1 0.7734375
vt 1 0.98828125
vt 0.8828125 0.7734375
vt 1 0.7734375
vt 0.81640625 0.578125
vt 1 0.578125
vt 0.81640625 0.578125
vt 1 0.578125
vt 0.7556345 0.435618043
vt 0.7164773 0.435618043
vt 0.7164773 0.394827247
vt 0.7556345 0.394827247
vt 0.71484375 0.51171875
vt 0.71484375 0.46484375
vt 0.9609375 0.46484375
vt 0.9609375 0.51171875
vt 0.71484375 0.51171875
vt 0.71484375 0.46484375
vt 0.9609375 0.46484375
vt 0.9609375 0.51171875
vt 0.71484375 0.51171875
vt 0.71484375 0.46484375
vt 0.9609375 0.46484375
vt 0.9609375 0.51171875
vt 0.7556345 0.435618043
vt 0.7164773 0.435618043
vt 0.7164773 0.394827247
vt 0.7556345 0.394827247
vt 0.71484375 0.51171875
vt 0.71484375 0.46484375
vt 0.9609375 0.46484375
vt 0.9609375 0.51171875
vt 0.71484375 0.51171875
vt 0.71484375 0.46484375
vt 0.9609375 0.46484375
vt 0.9609375 0.51171875
vt 0.71484375 0.51171875
vt 0.71484375 0.46484375
vt 0.9609375 0.46484375
vt 0.9609375 0.51171875
vt 0.7556345 0.435618043
vt 0.7164773 0.435618043
vt 0.7164773 0.394827247
vt 0.7556345 0.394827247
vt 0.71484375 0.51171875
vt 0.71484375 0.46484375
vt 0.9609375 0.46484375
vt 0.9609375 0.51171875
vt 0.71484375 0.51171875
vt 0.71484375 0.46484375
vt 0.9609375 0.46484375
vt 0.9609375 0.51171875
vt 0.71484375 0.51171875
vt 0.71484375 0.46484375
vt 0.9609375 0.46484375
vt 0.9609375 0.51171875
vt 0.0078125 0.00570976734
vt 0.474758983 0.00570976734
vt 0.474758983 0.1796875
vt 0.0078125 0.1796875
vt 0.0078125 0.00570976734
vt 0.474758983 0.00570976734
vt 0.474758983 0.1796875
vt 0.0078125 0.1796875
vt 0.7556345 0.435618043
vt 0.7164773 0.435618043
vt 0.7164773 0.394827247
vt 0.7556345 0.394827247
vt 0.71484375 0.51171875
vt 0.71484375 0.46484375
vt 0.9609375 0.46484375
vt 0.9609375 0.51171875
vt 0.71484375 0.51171875
vt 0.71484375 0.46484375
vt 0.9609375 0.46484375
vt 0.9609375 0.51171875
vt 0.71484375 0.51171875
vt 0.71484375 0.46484375
vt 0.9609375 0.46484375
vt 0.9609375 0.51171875
vt 0.0078125 0.00570976734
vt 0.474758983 0.00570976734
vt 0.474758983 0.1796875
vt 0.0078125 0.1796875
vt 0.9609375 0.46484375
vt 0.9609375 0.51171875
vt 0.71484375 0.51171875
vt 0.71484375 0.46484375
vt 0.7556345 0.435618043
vt 0.7164773 0.435618043
vt 0.7164773 0.394827247
vt 0.7556345 0.394827247
vt 0.71484375 0.51171875
vt 0.71484375 0.46484375
vt 0.9609375 0.46484375
vt 0.9609375 0.51171875
vt 0.71484375 0.51171875
vt 0.71484375 0.46484375
vt 0.9609375 0.46484375
vt 0.9609375 0.51171875
vt 0.71484375 0.51171875
vt 0.71484375 0.46484375
vt 0.9609375 0.46484375
vt 0.9609375 0.51171875
vt 0.9609375 0.46484375
vt 0.9609375 0.51171875
vt 0.71484375 0.51171875
vt 0.71484375 0.46484375
vt 0.0078125 0.00570976734
vt 0.474758983 0.00570976734
vt 0.474758983 0.1796875
vt 0.0078125 0.1796875
vt 0.7556345 0.435618043
vt 0.7164773 0.435618043
vt 0.7164773 0.394827247
vt 0.7556345 0.394827247
vt 0.71484375 0.51171875
vt 0.71484375 0.46484375
vt 0.9609375 0.46484375
vt 0.9609375 0.51171875
vt 0.71484375 0.51171875
vt 0.71484375 0.46484375
vt 0.9609375 0.46484375
vt 0.9609375 0.51171875
vt 0.71484375 0.51171875
vt 0.71484375 0.46484375
vt 0.9609375 0.46484375
vt 0.9609375 0.51171875
vt 0.9609375 0.46484375
vt 0.9609375 0.51171875
vt 0.71484375 0.51171875
vt 0.71484375 0.46484375
vt 0.7556345 0.435618043
vt 0.7164773 0.435618043
vt 0.7164773 0.394827247
vt 0.7556345 0.394827247
vt 0.71484375 0.51171875
vt 0.71484375 0.46484375
vt 0.9609375 0.46484375
vt 0.9609375 0.51171875
vt 0.71484375 0.51171875
vt 0.71484375 0.46484375
vt 0.9609375 0.46484375
vt 0.9609375 0.51171875
vt 0.7556345 0.435618043
vt 0.7164773 0.435618043
vt 0.7164773 0.394827247
vt 0.7556345 0.394827247
vt 0.71484375 0.51171875
vt 0.71484375 0.46484375
vt 0.9609375 0.46484375
vt 0.9609375 0.51171875
vt 0.71484375 0.51171875
vt 0.71484375 0.46484375
vt 0.9609375 0.46484375
vt 0.9609375 0.51171875
vt 0.0078125 0.00570976734
vt 0.474758983 0.00570976734
vt 0.474758983 0.1796875
vt 0.0078125 0.1796875
vt 0.474758983 0.1796875
vt 0.474758983 0.00570976734
vt 0.0078125 0.00570976734
vt 0.0078125 0.1796875
vt 0.7556345 0.435618043
vt 0.7164773 0.435618043
vt 0.7164773 0.394827247
vt 0.7556345 0.394827247
vt 0.71484375 0.51171875
vt 0.71484375 0.46484375
vt 0.9609375 0.46484375
vt 0.9609375 0.51171875
vt 0.71484375 0.51171875
vt 0.71484375 0.46484375
vt 0.9609375 0.46484375
vt 0.9609375 0.51171875
vt 0.71484375 0.51171875
vt 0.71484375 0.46484375
vt 0.9609375 0.46484375
vt 0.9609375 0.51171875
vt 0.7556345 0.435618043
vt 0.7164773 0.435618043
vt 0.7164773 0.394827247
vt 0.7556345 0.394827247
vt 0.71484375 0.51171875
vt 0.71484375 0.46484375
vt 0.9609375 0.46484375
vt 0.9609375 0.51171875
vt 0.71484375 0.51171875
vt 0.71484375 0.46484375
vt 0.9609375 0.46484375
vt 0.9609375 0.51171875
vt 0.71484375 0.51171875
vt 0.71484375 0.46484375
vt 0.9609375 0.46484375
vt 0.9609375 0.51171875
vt 0.7556345 0.435618043
vt 0.7164773 0.435618043
vt 0.7164773 0.394827247
vt 0.7556345 0.394827247
vt 0.71484375 0.51171875
vt 0.71484375 0.46484375
vt 0.9609375 0.46484375
vt 0.9609375 0.51171875
vt 0.71484375 0.51171875
vt 0.71484375 0.46484375
vt 0.9609375 0.46484375
vt 0.9609375 0.51171875
vt 0.71484375 0.51171875
vt 0.71484375 0.46484375
vt 0.9609375 0.46484375
vt 0.9609375 0.51171875
vt 0.0078125 0.00570976734
vt 0.474758983 0.00570976734
vt 0.474758983 0.1796875
vt 0.0078125 0.1796875
vt 0.0078125 0.00570976734
vt 0.474758983 0.00570976734
vt 0.474758983 0.1796875
vt 0.0078125 0.1796875
vt 0.71875 0.55859375
vt 0.71875 0.01171875
vt 0.3671875 0.01171875
vt 0.3671875 0.55859375
vt 0.66796875 -0.86328125
vt 0.66796875 -0.51171875
vt 0.71484375 -0.51171875
vt 0.71484375 -0.69140625
vt 0.71484375 -0.86328125
vt 1.1171875 -0.71484375
vt 1.1171875 -0.52734375
vt 1.15234375 -0.52734375
vt 1.15234375 -0.71484375
vt 1.15234375 -0.52734375
vt 1.15234375 -0.71875
vt 1.1171875 -0.71875
vt 1.1171875 -0.52734375
vt 0.15234375 0.38671875
vt 0.35546875 0.38671875
vt 0.35546875 0.5625
vt 0.11328125 0.5625
vt 0.11328125 0.01953125
vt 0.35546875 0.01953125
vt 0.35546875 0.1953125
vt 0.15234375 0.1953125
vt 0.16015625 0.1953125
vt 0 0.01953125
vt 0 0.5625
vt 0.16015625 0.38671875
vt 0.7890625 0.578125
vt 0.60546875 0.578125
vt 0.60546875 0.79296875
vt 0.7890625 0.79296875
vt 0.60546875 0.99609375
vt 0.7890625 0.99609375
vt 1 0.7734375
vt 0.8828125 0.7734375
vt 0.8828125 0.98828125
vt 1 0.98828125
vt 0.8828125 0.7734375
vt 1 0.7734375
vt 0.81640625 0.578125
vt 1 0.578125
vt 1 0.578125
vt 0.81640625 0.578125
vt 0.7164773 0.394827247
vt 0.7164773 0.435618043
vt 0.7556345 0.435618043
vt 0.7556345 0.394827247
vt 0.9609375 0.46484375
vt 0.71484375 0.46484375
vt 0.71484375 0.51171875
vt 0.9609375 0.51171875
vt 0.9609375 0.46484375
vt 0.71484375 0.46484375
vt 0.71484375 0.51171875
vt 0.9609375 0.51171875
vt 0.9609375 0.46484375
vt 0.71484375 0.46484375
vt 0.71484375 0.51171875
vt 0.9609375 0.51171875
vt 0.474758983 0.1796875
vt 0.474758983 0.00570976734
vt 0.0078125 0.00570976734
vt 0.0078125 0.1796875
vt 0.71484375 0.51171875
vt 0.9609375 0.51171875
vt 0.9609375 0.46484375
vt 0.71484375 0.46484375
vt 0.7164773 0.394827247
vt 0.7164773 0.435618043
vt 0.7556345 0.435618043
vt 0.7556345 0.394827247
vt 0.9609375 0.46484375
vt 0.71484375 0.46484375
vt 0.71484375 0.51171875
vt 0.9609375 0.51171875
vt 0.9609375 0.46484375
vt 0.71484375 0.46484375
vt 0.71484375 0.51171875
vt 0.9609375 0.51171875
vt 0.9609375 0.46484375
vt 0.71484375 0.46484375
vt 0.71484375 0.51171875
vt 0.9609375 0.51171875
vt 0.71484375 0.51171875
vt 0.9609375 0.51171875
vt 0.9609375 0.46484375
vt 0.71484375 0.46484375
vt 0.474758983 0.1796875
vt 0.474758983 0.00570976734
vt 0.0078125 0.00570976734
vt 0.0078125 0.1796875
vt 0.7164773 0.394827247
vt 0.7164773 0.435618043
vt 0.7556345 0.435618043
vt 0.7556345 0.394827247
vt 0.9609375 0.46484375
vt 0.71484375 0.46484375
vt 0.71484375 0.51171875
vt 0.9609375 0.51171875
vt 0.9609375 0.46484375
vt 0.71484375 0.46484375
vt 0.71484375 0.51171875
vt 0.9609375 0.51171875
vt 0.9609375 0.46484375
vt 0.71484375 0.46484375
vt 0.71484375 0.51171875
vt 0.9609375 0.51171875
vt 0.71484375 0.51171875
vt 0.9609375 0.51171875
vt 0.9609375 0.46484375
vt 0.71484375 0.46484375
vt 0.7164773 0.394827247
vt 0.7164773 0.435618043
vt 0.7556345 0.435618043
vt 0.7556345 0.394827247
vt 0.9609375 0.46484375
vt 0.71484375 0.46484375
vt 0.71484375 0.51171875
vt 0.9609375 0.51171875
vt 0.9609375 0.46484375
vt 0.71484375 0.46484375
vt 0.71484375 0.51171875
vt 0.9609375 0.51171875
vt 0.7164773 0.394827247
vt 0.7164773 0.435618043
vt 0.7556345 0.435618043
vt 0.7556345 0.394827247
vt 0.9609375 0.46484375
vt 0.71484375 0.46484375
vt 0.71484375 0.51171875
vt 0.9609375 0.51171875
vt 0.9609375 0.46484375
vt 0.71484375 0.46484375
vt 0.71484375 0.51171875
vt 0.9609375 0.51171875
vt 0.474758983 0.1796875
vt 0.474758983 0.00570976734
vt 0.0078125 0.00570976734
vt 0.0078125 0.1796875
vt 0.0078125 0.00570976734
vt 0.474758983 0.00570976734
vt 0.474758983 0.1796875
vt 0.0078125 0.1796875
vt 0.01953125 0.546875
vt 0.15234375 0.53125
vt 0.01953125 0.41796875
vt 0.1015625 0.50390625
vt 0.10546875 0.36328125
vt 0.1015625 0.4453125
vt 0.15234375 0.53125
vt 0.01953125 0.546875
vt 0.1015625 0.50390625
vt 0.01953125 0.41796875
vt 0.1015625 0.4453125
vt 0.10546875 0.36328125
vt 0.875 0.4140625
vt 0.88671875 0.4140625
vt 0.88671875 0.9921875
vt 0.875 0.9921875
vt 0.875 0.4140625
vt 0.88671875 0.4140625
vt 0.88671875 0.9921875
vt 0.875 0.9921875
vt 0.875 0.4140625
vt 0.88671875 0.4140625
vt 0.88671875 0.9921875
vt 0.875 0.9921875
vt 0.2125 0.162070215
vt 0.4 0.162070215
vt 0.4 0.3495702
vt 0.2125 0.3495702
vt 0.2125 0.162070215
vt 0.4 0.162070215
vt 0.4 0.3495702
vt 0.2125 0.3495702
vt 0.88671875 0.9921875
vt 0.88671875 0.4140625
vt 0.875 0.4140625
vt 0.875 0.9921875
vt 0.88671875 0.9921875
vt 0.88671875 0.4140625
vt 0.875 0.4140625
vt 0.875 0.9921875
vt 0.88671875 0.9921875
vt 0.88671875 0.4140625
vt 0.875 0.4140625
vt 0.875 0.9921875
vt 0.9921875 0.0078125
vt 0.9921875 0.046875
vt 0.51171875 0.046875
vt 0.51171875 0.0078125
vt 0.9921875 0.33984375
vt 0.51171875 0.33984375
vt 0.2125 0.162070215
vt 0.4 0.162070215
vt 0.4 0.3495702
vt 0.2125 0.3495702
vt 0.4 0.3495702
vt 0.4 0.162070215
vt 0.2125 0.162070215
vt 0.2125 0.3495702
vt 0.4 0.3495702
vt 0.4 0.162070215
vt 0.2125 0.162070215
vt 0.2125 0.3495702
vt 0.4 0.3495702
vt 0.4 0.162070215
vt 0.2125 0.162070215
vt 0.2125 0.3495702
vt 0.80078125 0.99609375
vt 0.8046875 0.76171875
vt 0.8203125 0.76171875
vt 0.8125 0.99609375
vt 0.8046875 0.7890625
vt 0.80078125 0.76171875
vt 1 0.76171875
vt 1 0.7890625
vt 0.80078125 0.76171875
vt 1 0.99609375
vt 1 0.76171875
vt 0.8046875 0.7890625
vt 1 0.7890625
vt 0.80078125 0.99609375
vt 0.8046875 0.76171875
vt 0.8203125 0.76171875
vt 0.8125 0.99609375
vt 0.8046875 0.7890625
vt 0.80078125 0.76171875
vt 1 0.76171875
vt 1 0.7890625
vt 0.80078125 0.76171875
vt 1 0.99609375
vt 1 0.76171875
vt 0.8046875 0.7890625
vt 1 0.7890625
vt 0.214352429 0.321319461
vt 0.214352429 0.187008679
vt 0.00194098568 0.187008679
vt 0.00194098568 0.321319461
vt 0.00194098568 0.187008679
vt 0.214352429 0.187008679
vt 0.214352429 0.321319461
vt 0.00194098568 0.321319461
vt 0.214352429 0.187008619
vt 0.214352429 0.3213194
vt 0.00194098568 0.3213194
vt 0.00194098568 0.187008619
vt 0.00194098568 0.3213194
vt 0.214352429 0.3213194
vt 0.214352429 0.187008619
vt 0.00194098568 0.187008619
vn 0.171771437 0.663264 -0.728406131
vn 0.6073746 0.6443992 -0.46459195
vn 0.7654298 0 -0.6435194
vn 0.222379029 0 -0.974960268
vn 0.3495823 0.6823639 -0.642006
vn 0.114618942 0.4305774 -0.8952461
vn 0.348588258 0.35793522 -0.8662382
vn 0.408728421 0.8988663 -0.158052087
vn 0.449783027 0.6164253 -0.646308839
vn 0.393208921 0.19243677 -0.8990856
vn -0.08699893 0.0223889556 -0.9959568
vn 0.0933451 0.8873032 -0.451641262
vn 0.6073746 0.6443992 -0.46459195
vn 0.171771437 0.663264 -0.728406131
vn 0.0933451 0.8873032 -0.451641262
vn 0.408728421 0.8988663 -0.158052087
vn 0.393208921 0.19243677 -0.8990856
vn 0.449783027 0.6164253 -0.646308839
vn -8.180805E-08 0.6914509 -0.722423434
vn -1.19284032E-08 0.4522691 -0.8918815
vn 1.03264661E-07 7.802135E-15 -1
vn -7.77388038E-08 0.707106769 -0.707106769
vn -1.30488615E-07 0.8618836 -0.5071062
vn -7.77388038E-08 0.707106769 -0.707106769
vn -1.30488615E-07 0.8618836 -0.5071062
vn 0.7654297 4.69749E-09 0.6435196
vn 0.6073745 0.6443992 0.464592159
vn 0.171771675 0.663264334 0.7284057
vn 0.222378269 1.01139938E-06 0.974960446
vn 0.3485886 0.3579356 0.8662379
vn 0.141994253 0.451826662 0.880732834
vn 0.38742435 0.671580851 0.6315707
vn 0.40872857 0.8988663 0.158051848
vn 0.4497829 0.616425753 0.6463085
vn -0.0869990438 0.02238905 0.9959568
vn 0.393208534 0.1924379 0.899085462
vn 0.11132592 0.877530634 0.4664188
vn 0.11132592 0.877530634 0.4664188
vn 0.171771675 0.663264334 0.7284057
vn 0.6073745 0.6443992 0.464592159
vn 0.40872857 0.8988663 0.158051848
vn 0.393208534 0.1924379 0.899085462
vn 0.4497829 0.616425753 0.6463085
vn 0.6120023 0.43861106 0.6580832
vn 0.612001836 0.438610643 -0.658084
vn 0.222757861 0.745083869 -0.6286724
vn 0.222757652 0.7450829 0.6286736
vn 0.4774996 0.4103083 -0.7769435
vn 0.477499068 0.4103082 0.7769439
vn 0.68931663 0.378461719 0.61774534
vn 0.6893176 0.378461927 -0.617744148
vn 0.7039812 -0.350740582 -0.617569
vn 0.7039808 -0.3507403 0.6175696
vn -0.394588232 -0.736477733 0.5494549
vn -0.394588143 -0.736477852 -0.5494548
vn 0.4497829 0.616425753 0.6463085
vn 0.68931663 0.378461719 0.61774534
vn 0.477499068 0.4103082 0.7769439
vn 0.3485886 0.3579356 0.8662379
vn 0.393208534 0.1924379 0.899085462
vn 0.7039808 -0.3507403 0.6175696
vn -0.0869990438 0.02238905 0.9959568
vn -0.394588232 -0.736477733 0.5494549
vn -0.08699893 0.0223889556 -0.9959568
vn -0.394588143 -0.736477852 -0.5494548
vn -0.394588232 -0.736477733 0.5494549
vn -0.0869990438 0.02238905 0.9959568
vn -2.34660391E-07 0.7124718 0.701700747
vn -1.84638566E-07 0.5244045 0.8514693
vn -1.0326503E-07 1.90756668E-06 1
vn -2.23777121E-07 0.7071074 0.7071061
vn -2.37995323E-07 0.832533062 0.553975344
vn -2.23777121E-07 0.7071074 0.7071061
vn -2.37995323E-07 0.832533062 0.553975344
vn 0.34131363 0.384987235 0.8574904
vn 0.006067351 0.6762319 0.7366638
vn 0.00606752466 0.6762308 -0.7366649
vn 0.341314822 0.3849865 -0.8574903
vn 0.222757652 0.7450829 0.6286736
vn 0.006067351 0.6762319 0.7366638
vn 0.141994253 0.451826662 0.880732834
vn 0.34131363 0.384987235 0.8574904
vn -1.84638566E-07 0.5244045 0.8514693
vn 0.6120023 0.43861106 0.6580832
vn 0.00606752466 0.6762308 -0.7366649
vn 0.222757861 0.745083869 -0.6286724
vn 0.114618942 0.4305774 -0.8952461
vn -1.19284032E-08 0.4522691 -0.8918815
vn 0.341314822 0.3849865 -0.8574903
vn 0.348588258 0.35793522 -0.8662382
vn 0.612001836 0.438610643 -0.658084
vn 0.4774996 0.4103083 -0.7769435
vn -0.7654294 -1.26952671E-06 -0.6435199
vn -0.6073752 0.6443984 -0.464592367
vn -0.171771675 0.6632639 -0.728406131
vn -0.222379029 0 -0.974960268
vn -0.348588556 0.35793525 -0.866238058
vn -0.114619069 0.430577248 -0.895246148
vn -0.349582762 0.6823637 -0.642006
vn -0.408729 0.898866 -0.1580523
vn -0.4497831 0.616425157 -0.6463089
vn 0.08699905 0.0223895628 -0.9959568
vn -0.3932087 0.192436635 -0.899085641
vn -0.0933453739 0.887303054 -0.451641351
vn -0.0933453739 0.887303054 -0.451641351
vn -0.171771675 0.6632639 -0.728406131
vn -0.6073752 0.6443984 -0.464592367
vn -0.408729 0.898866 -0.1580523
vn -0.3932087 0.192436635 -0.899085641
vn -0.4497831 0.616425157 -0.6463089
vn -0.171771646 0.663264632 0.7284055
vn -0.6073748 0.644398868 0.464592218
vn -0.7654298 1.01280136E-07 0.6435194
vn -0.222379133 1.85980207E-06 0.974960268
vn -0.387424767 0.6715807 0.6315706
vn -0.14199464 0.451826453 0.8807329
vn -0.348588973 0.357935578 0.86623776
vn -0.408729076 0.898866 0.158052176
vn -0.449782938 0.616425633 0.646308541
vn -0.393208772 0.192437932 0.8990854
vn 0.08699887 0.0223895665 0.9959568
vn -0.111326523 0.877530634 0.466418684
vn -0.6073748 0.644398868 0.464592218
vn -0.171771646 0.663264632 0.7284055
vn -0.111326523 0.877530634 0.466418684
vn -0.408729076 0.898866 0.158052176
vn -0.393208772 0.192437932 0.8990854
vn -0.449782938 0.616425633 0.646308541
vn -0.222758159 0.7450838 -0.628672361
vn -0.61200273 0.438610584 -0.658083141
vn -0.612002 0.438610554 0.6580838
vn -0.222758174 0.7450828 0.628673553
vn -0.689317346 0.378461331 0.6177448
vn -0.477499217 0.410308033 0.776943862
vn -0.477499574 0.410308182 -0.776943564
vn -0.6893173 0.37846148 -0.617744744
vn 0.394588977 -0.736477435 0.549454749
vn -0.7039809 -0.350741 0.6175691
vn -0.703980446 -0.3507411 -0.617569566
vn 0.394588917 -0.736477435 -0.549454749
vn -0.477499217 0.410308033 0.776943862
vn -0.689317346 0.378461331 0.6177448
vn -0.449782938 0.616425633 0.646308541
vn -0.348588973 0.357935578 0.86623776
vn -0.7039809 -0.350741 0.6175691
vn -0.393208772 0.192437932 0.8990854
vn 0.394588977 -0.736477435 0.549454749
vn 0.08699887 0.0223895665 0.9959568
vn 0.394588977 -0.736477435 0.549454749
vn 0.394588917 -0.736477435 -0.549454749
vn 0.08699905 0.0223895628 -0.9959568
vn 0.08699887 0.0223895665 0.9959568
vn -0.006067712 0.676230669 -0.736664951
vn -0.00606783526 0.676231861 0.7366638
vn -0.341981232 0.380302936 0.859312832
vn -0.3419822 0.38030228 -0.8593127
vn -0.222758174 0.7450828 0.628673553
vn -0.14199464 0.451826453 0.8807329
vn -0.00606783526 0.676231861 0.7366638
vn -0.341981232 0.380302936 0.859312832
vn -0.612002 0.438610554 0.6580838
vn 0.707106769 2.697034E-07 0.707106769
vn 1 4.18462065E-07 1.66402671E-07
vn 1 3.81418261E-07 9.90581057E-08
vn 0.7071067 2.69703435E-07 0.7071068
vn -0.70710665 -2.63044171E-07 -0.707106948
vn -1 -4.16307273E-07 -2.33747244E-07
vn -1 -4.163073E-07 -2.3374723E-07
vn -0.7071066 -2.20832732E-07 -0.707106948
vn 0.34131363 0.384987235 0.8574904
vn -0.3419822 0.38030228 -0.8593127
vn -0.585505 0.5300086 -0.6134124
vn -0.585505068 0.5300077 0.6134131
vn -2.50652676E-07 0.7683099 0.640078
vn -1.43846734E-07 0.768311 -0.6400767
vn 0.34131363 0.384987235 0.8574904
vn 0.341314822 0.3849865 -0.8574903
vn 0.581151664 0.5335727 -0.614461541
vn 0.5811514 0.5335718 0.6144625
vn -0.3419822 0.38030228 -0.8593127
vn -0.341981232 0.380302936 0.859312832
vn -0.585505068 0.5300077 0.6134131
vn -0.585505 0.5300086 -0.6134124
vn -2.50652676E-07 0.7683099 0.640078
vn -0.585505068 0.5300077 0.6134131
vn 0.5811514 0.5335718 0.6144625
vn -1.43846734E-07 0.768311 -0.6400767
vn 0.581151664 0.5335727 -0.614461541
vn -0.585505 0.5300086 -0.6134124
vn -1.00353567E-07 -7.12129555E-09 1
vn 0.707106769 2.697034E-07 0.707106769
vn 0.7071067 2.69703435E-07 0.7071068
vn -9.516642E-08 1.12023635E-08 1
vn 0.70710665 0.707106948 -1.69122083E-09
vn 0.3015111 0.301511377 0.9045341
vn -2.51565524E-07 0.7071068 0.7071067
vn -0.3015115 0.301511317 0.904534
vn -0.7071072 0.707106352 -3.05647774E-07
vn 1 1.54357764E-07 0
vn 0.316227674 1.27404647E-07 0.9486833
vn 0.3015111 0.301511377 0.9045341
vn 0.70710665 0.707106948 -1.69122083E-09
vn -0.7071072 0.707106352 -3.05647774E-07
vn -0.3015115 0.301511317 0.904534
vn -0.316227823 -2.25654546E-07 0.948683262
vn -1 -7.33199158E-07 0
vn -1.08319924E-07 5.83688076E-09 1
vn -1.01571693E-07 2.42367122E-08 1
vn -0.316227823 -2.25654546E-07 0.948683262
vn -2.51565524E-07 0.7071068 0.7071067
vn -8.01656839E-08 -2.13324682E-08 1
vn -1.00353567E-07 -7.12129555E-09 1
vn -0.3015115 0.301511317 0.904534
vn -9.516642E-08 1.12023635E-08 1
vn 0.3015111 0.301511377 0.9045341
vn -0.7071069 -2.69233652E-07 0.70710665
vn 0.316227674 1.27404647E-07 0.9486833
vn -0.707107 -2.27022312E-07 0.707106531
vn 0.707106948 3.46761652E-07 -0.70710665
vn 0.7071069 2.943737E-07 -0.7071067
vn -0.707107 -2.27022312E-07 0.707106531
vn -0.7071069 -2.69233652E-07 0.70710665
vn -1.0393692E-07 0.5900085 0.807397068
vn 0.0418728255 0.421025872 0.9060816
vn 0.0481852368 0.9828087 -0.178227916
vn -3.41169866E-08 0.9512511 -0.3084175
vn -0.124096356 0.450371742 -0.884175
vn -4.4535355E-08 0.6865661 -0.727067351
vn 0.003510408 -0.8980721 0.4398342
vn 0.05375976 -0.94186 0.3316769
vn 0.0382748842 -0.5320249 0.8458632
vn -4.90898E-08 -0.473384082 0.8808561
vn 0.1012461 0.550054967 0.828968465
vn 0.18503724 0.9552733 -0.23068203
vn 0.178722382 0.628013849 -0.7574014
vn 0.105343573 -0.8766347 0.469483
vn 0.120575584 -0.479118168 0.8694293
vn 0.241193086 0.4195253 0.875113964
vn 0.354538739 0.8965278 -0.265594035
vn 0.257939219 -0.242102042 -0.9353363
vn 0.210186288 -0.9746449 -0.07674042
vn 0.3092271 -0.559887767 0.768703
vn 0.600312054 -0.76741606 -0.225162223
vn -0.606299 -0.752573 -0.256973535
vn 0.5542434 -0.559601545 -0.6161659
vn 0.56163764 0.790438533 -0.244479164
vn 0.6170718 0.335591644 0.7117588
vn 0.5975615 -0.484738767 0.638708532
vn 0.6170718 0.335591644 0.7117588
vn 0.56163764 0.790438533 -0.244479164
vn 0.5542434 -0.559601545 -0.6161659
vn 0.257939219 -0.242102042 -0.9353363
vn -3.904488E-06 -0.946351051 -0.3231403
vn 0.257939219 -0.242102042 -0.9353363
vn 0.600312054 -0.76741606 -0.225162223
vn 0.5975615 -0.484738767 0.638708532
vn 0.210186288 -0.9746449 -0.07674042
vn -0.0481847152 0.9828086 -0.178228885
vn -0.0418729037 0.421025872 0.9060816
vn 0.124096572 0.450370938 -0.88417536
vn -0.0228819959 -0.4949376 0.8686272
vn -0.03155171 -0.912418 0.408041567
vn -0.18503733 0.9552733 -0.230681881
vn -0.101246245 0.550054848 0.8289686
vn -0.178721845 0.6280136 -0.757401764
vn -0.1283821 -0.473621339 0.8713213
vn -0.119751252 -0.8751155 0.468862981
vn -0.354539931 0.8965273 -0.265594125
vn -0.241192222 0.419525862 0.8751139
vn -0.2579392 -0.242102891 -0.935336053
vn -0.30922693 -0.5598876 0.7687032
vn -0.210185692 -0.974644959 -0.0767407045
vn -0.617071033 0.3355933 0.711758733
vn -0.561636269 0.790439 -0.2444807
vn -0.554245532 -0.559600353 -0.616165042
vn 0.606297 -0.7525739 -0.256975532
vn -0.6003124 -0.7674161 -0.22516109
vn -0.597561061 -0.484737366 0.638709962
vn -0.561636269 0.790439 -0.2444807
vn -0.617071033 0.3355933 0.711758733
vn -0.2579392 -0.242102891 -0.935336053
vn -0.554245532 -0.559600353 -0.616165042
vn 3.68997257E-06 -0.946351051 -0.3231404
vn -0.2579392 -0.242102891 -0.935336053
vn -0.597561061 -0.484737366 0.638709962
vn -0.6003124 -0.7674161 -0.22516109
vn -0.210185692 -0.974644959 -0.0767407045
vn -5.252883E-09 -0.0163420942 0.9998665
vn -1.41250382E-07 -0.01633977 0.9998665
vn -8.475535E-08 0.58373946 0.811941
vn -3.499197E-08 0.583738744 0.811941564
vn -3.32979333E-08 0.9530017 0.302965045
vn -8.94455852E-08 0.9530017 0.302965
vn -0.006067712 0.676230669 -0.736664951
vn -0.114619069 0.430577248 -0.895246148
vn -0.222758159 0.7450838 -0.628672361
vn -0.3419822 0.38030228 -0.8593127
vn -0.348588556 0.35793525 -0.866238058
vn -0.61200273 0.438610584 -0.658083141
vn -0.477499574 0.410308182 -0.776943564
vn 2.96682252E-08 0.93530345 0.3538466
vn -0.6099677 0.7411591 0.280397236
vn -0.59879154 0.4552332 0.6589472
vn 9.48532346E-08 0.5683985 0.82275337
vn 0.6099679 0.7411589 0.2803973
vn 0.59879154 0.4552332 0.6589472
vn 9.48532346E-08 0.5683985 0.82275337
vn -0.59879154 0.4552332 0.6589472
vn -0.70710665 2.436881E-07 0.7071069
vn 4.985259E-08 3.87897529E-07 1
vn 0.59879154 0.4552332 0.6589472
vn 0.70710665 3.16447228E-07 0.7071069
vn 0.6099679 0.7411589 0.2803973
vn 1 -6.568595E-07 -5.066758E-07
vn -0.6099677 0.7411591 0.280397236
vn -1 0 0
vn 0.577350259 0.577350259 -0.577350259
vn 0 0.7071067 -0.7071068
vn 0 0.70710665 0.7071069
vn 0.577350259 0.577350259 0.577350259
vn 0.577350259 0.577350259 0.577350259
vn 0 0.70710665 0.7071069
vn 0 0 1
vn 0.7071068 0 0.707106769
vn 0.577350259 0.577350259 -0.577350259
vn 0.577350259 0.577350259 0.577350259
vn 0.7071068 0 0.707106769
vn 0.7071068 0 -0.707106769
vn 0 0.7071067 -0.7071068
vn 0.577350259 0.577350259 -0.577350259
vn 0.7071068 0 -0.707106769
vn 0 0 -1
vn 0.5773503 0.577350259 -0.5773502
vn 8.26296E-08 0.70710665 -0.7071069
vn -8.26296258E-08 0.7071067 0.7071069
vn 0.5773502 0.577350259 0.5773503
vn 0.5773502 0.577350259 0.5773503
vn -8.26296258E-08 0.7071067 0.7071069
vn -1.16855659E-07 5.53620438E-15 1
vn 0.7071067 0 0.7071068
vn 0.5773503 0.577350259 -0.5773502
vn 0.5773502 0.577350259 0.5773503
vn 0.7071067 0 0.7071068
vn 0.7071068 -3.18524538E-14 -0.7071067
vn 8.26296E-08 0.70710665 -0.7071069
vn 0.5773503 0.577350259 -0.5773502
vn 0.7071068 -3.18524538E-14 -0.7071067
vn 1.16855624E-07 -5.05823546E-14 -1
vn 0.577350259 0.577350259 -0.577350259
vn 0 0.70710665 -0.7071069
vn 0 0.70710665 0.7071069
vn 0.577350259 0.577350259 0.577350259
vn 0.577350259 0.577350259 0.577350259
vn 0 0.70710665 0.7071069
vn 0 0 1
vn 0.707105935 2.75212756E-07 0.707107663
vn 0.577350259 0.577350259 -0.577350259
vn 0.577350259 0.577350259 0.577350259
vn 0.707105935 2.75212756E-07 0.707107663
vn 0.707107842 3.060801E-07 -0.7071057
vn 0 0.70710665 -0.7071069
vn 0.577350259 0.577350259 -0.577350259
vn 0.707107842 3.060801E-07 -0.7071057
vn 0 0 -1
vn 1 0 1.199316E-07
vn 1 0 1.199316E-07
vn 1 0 1.199316E-07
vn 1 0 1.199316E-07
vn 1 0 1.19931627E-07
vn 1 0 1.19931627E-07
vn 1 0 1.19931627E-07
vn 1 0 1.19931627E-07
vn 0.5773505 0.5773501 0.577350259
vn 0.5773505 0.5773502 -0.5773501
vn -0.5773501 0.577350557 -0.57735014
vn -0.5773501 0.577350438 0.577350259
vn -0.5773501 0.577350438 0.577350259
vn -0.5773501 0.577350557 -0.57735014
vn -0.7071069 7.651991E-07 -0.7071067
vn -0.7071069 4.59119548E-07 0.70710665
vn 0.5773505 0.5773501 0.577350259
vn -0.5773501 0.577350438 0.577350259
vn -0.7071069 4.59119548E-07 0.70710665
vn 0.70710665 -4.5911932E-07 0.707106948
vn 0.5773505 0.5773502 -0.5773501
vn 0.5773505 0.5773501 0.577350259
vn 0.70710665 -4.5911932E-07 0.707106948
vn 0.7071066 -1.53039608E-07 -0.707107
vn 0 0 1
vn 0 0 1
vn 0 0 1
vn 0 0 1
vn 0.7071066 -1.53039608E-07 -0.707107
vn -0.7071069 7.651991E-07 -0.7071067
vn -0.5773501 0.577350557 -0.57735014
vn 0.5773505 0.5773502 -0.5773501
vn 0.577350438 0.5773501 0.5773503
vn 0.5773506 0.5773502 -0.57735
vn -0.57735 0.5773506 -0.57735014
vn -0.5773501 0.577350438 0.577350259
vn -0.5773501 0.577350438 0.577350259
vn -0.57735 0.5773506 -0.57735014
vn -0.70710665 9.09863729E-07 -0.7071069
vn -0.7071072 6.121596E-07 0.707106352
vn 0.577350438 0.5773501 0.5773503
vn -0.5773501 0.577350438 0.577350259
vn -0.7071072 6.121596E-07 0.707106352
vn 0.7071066 -5.697117E-07 0.707106948
vn 0.5773506 0.5773502 -0.57735
vn 0.577350438 0.5773501 0.5773503
vn 0.7071066 -5.697117E-07 0.707106948
vn 0.7071065 -2.6781936E-07 -0.707107067
vn 0.7071065 -2.6781936E-07 -0.707107067
vn -0.70710665 9.09863729E-07 -0.7071069
vn -0.57735 0.5773506 -0.57735014
vn 0.5773506 0.5773502 -0.57735
vn -2.63436021E-07 -2.17325666E-14 1
vn -2.63436E-07 -2.17325683E-14 1
vn -2.63436021E-07 -2.17325683E-14 1
vn -2.63436021E-07 -2.17325649E-14 1
vn 0.5773497 0.577349961 0.577351153
vn 0.5773507 0.57735014 -0.57735
vn -0.577349961 0.5773506 -0.577350259
vn -0.577350855 0.5773506 0.577349365
vn -0.577350855 0.5773506 0.577349365
vn -0.577349961 0.5773506 -0.577350259
vn -0.7071069 8.459066E-07 -0.7071067
vn -0.707107961 5.35640254E-07 0.707105637
vn 0.5773497 0.577349961 0.577351153
vn -0.577350855 0.5773506 0.577349365
vn -0.707107961 5.35640254E-07 0.707105637
vn 0.707105637 -5.69711E-07 0.7071079
vn 0.5773507 0.57735014 -0.57735
vn 0.5773497 0.577349961 0.577351153
vn 0.707105637 -5.69711E-07 0.7071079
vn 0.7071065 -2.6781936E-07 -0.707107067
vn 0.7071065 -2.6781936E-07 -0.707107067
vn -0.7071069 8.459066E-07 -0.7071067
vn -0.577349961 0.5773506 -0.577350259
vn 0.5773507 0.57735014 -0.57735
vn 0.577350557 0.57735 0.5773502
vn 0.7071072 0.7071064 0
vn 0 1 0
vn 0 0.70710665 0.707106948
vn 0.577350557 0.57735 0.5773502
vn 0 0.70710665 0.707106948
vn 0 0 1
vn 0.7071066 -5.738992E-07 0.707106948
vn 0.7071072 0.7071064 0
vn 0.577350557 0.57735 0.5773502
vn 0.7071066 -5.738992E-07 0.707106948
vn 1 -8.116163E-07 0
vn 0 0.707107 0.7071066
vn 0 1 0
vn -0.7071066 0.707106948 0
vn -0.57735 0.5773505 0.5773503
vn -0.57735 0.5773505 0.5773503
vn -0.7071066 0.707106948 0
vn -1 8.65724E-07 0
vn -0.707107 6.12159454E-07 0.7071066
vn 0 0.707107 0.7071066
vn -0.57735 0.5773505 0.5773503
vn -0.707107 6.12159454E-07 0.7071066
vn 0 0 1
vn -1 -9.77226051E-08 -1.16576437E-07
vn -1 -3.2998625E-07 0
vn -1 -2.32263659E-07 -4.904837E-08
vn -1 0 -1.656248E-07
vn 1 8.249657E-08 8.28124058E-08
vn 1 8.249656E-08 8.28124E-08
vn 1 8.249656E-08 8.28124058E-08
vn 1 8.249655E-08 8.28124058E-08
vn -0.577350259 0.577350259 0.577350259
vn 0 0.707106769 0.707106769
vn 4.40690656E-07 0.7071069 -0.70710665
vn -0.5773501 0.5773502 -0.5773505
vn -0.5773501 0.5773502 -0.5773505
vn 4.40690656E-07 0.7071069 -0.70710665
vn 6.23230164E-07 1.47632083E-14 -1
vn -0.7071066 0 -0.707107
vn -0.577350259 0.577350259 0.577350259
vn -0.5773501 0.5773502 -0.5773505
vn -0.7071066 0 -0.707107
vn -0.707106769 0 0.707106769
vn 0 0.707106769 0.707106769
vn -0.577350259 0.577350259 0.577350259
vn -0.707106769 0 0.707106769
vn 0 0 1
vn -0.5773503 0.577350259 0.577350259
vn -5.50862929E-08 0.7071066 0.707106948
vn 5.508627E-08 0.7071068 -0.707106769
vn -0.577350259 0.577350259 -0.5773503
vn -0.577350259 0.577350259 -0.5773503
vn 5.508627E-08 0.7071068 -0.707106769
vn 7.79037563E-08 0 -1
vn -0.7071085 -5.50427558E-07 -0.7071051
vn -0.5773503 0.577350259 0.577350259
vn -0.577350259 0.577350259 -0.5773503
vn -0.7071085 -5.50427558E-07 -0.7071051
vn -0.707104743 -6.12157464E-07 0.707108855
vn -5.50862929E-08 0.7071066 0.707106948
vn -0.5773503 0.577350259 0.577350259
vn -0.707104743 -6.12157464E-07 0.707108855
vn -7.79037563E-08 -6.744314E-14 1
vn -0.5773507 0.577349961 0.5773502
vn 0 0.7071066 0.707106948
vn 0 0.7071066 -0.707107
vn -0.5773507 0.5773499 -0.5773502
vn -0.5773507 0.5773499 -0.5773502
vn 0 0.7071066 -0.707107
vn 0 0 -1
vn -0.707105637 -6.430248E-07 -0.7071079
vn -0.5773507 0.577349961 0.5773502
vn -0.5773507 0.5773499 -0.5773502
vn -0.707105637 -6.430248E-07 -0.7071079
vn -0.707107544 -6.121599E-07 0.707106054
vn 0 0.7071066 0.707106948
vn -0.5773507 0.577349961 0.5773502
vn -0.707107544 -6.121599E-07 0.707106054
vn 0 0 1
vn -1 -2.929308E-07 1.06464E-07
vn -1 -1.31994511E-06 4.797264E-07
vn -1 -1.02701438E-06 3.732624E-07
vn -1 0 0
vn -1 -1.31994489E-06 -7.036865E-14
vn -1 -1.319945E-06 -3.95757849E-14
vn -1 -1.319945E-06 -4.83587E-14
vn -1 -1.319945E-06 -7.915157E-14
vn 0.7071069 2.943737E-07 -0.7071067
vn 0.707106948 3.46761652E-07 -0.70710665
vn 1.00353539E-07 7.12130932E-09 -1
vn 9.516642E-08 -1.12023733E-08 -1
vn 0.7071065 0.7071071 1.69124048E-09
vn -0.707107246 0.707106352 0
vn -0.301511347 0.3015113 -0.904534042
vn -1.58520521E-07 0.7071068 -0.707106769
vn 0.3015114 0.3015114 -0.904534
vn 0.3015114 0.3015114 -0.904534
vn 0.316227883 -2.97801783E-08 -0.948683262
vn 1 1.54357764E-07 0
vn 0.7071065 0.7071071 1.69124048E-09
vn -0.3162278 -2.25203578E-07 -0.948683262
vn -0.301511347 0.3015113 -0.904534042
vn -0.707107246 0.707106352 0
vn -1 -6.94609867E-07 0
vn -0.3162278 -2.25203578E-07 -0.948683262
vn 1.015717E-07 -2.4236714E-08 -1
vn 1.083199E-07 -5.83688831E-09 -1
vn 9.516642E-08 -1.12023733E-08 -1
vn 1.00353539E-07 7.12130932E-09 -1
vn 8.016567E-08 2.133247E-08 -1
vn -1.58520521E-07 0.7071068 -0.707106769
vn -0.301511347 0.3015113 -0.904534042
vn 0.3015114 0.3015114 -0.904534
vn -0.70710665 -2.63044171E-07 -0.707106948
vn -0.7071066 -2.20832732E-07 -0.707106948
vn 0.316227883 -2.97801783E-08 -0.948683262
vn -0.598790944 0.455233365 -0.6589476
vn -0.6099678 0.7411589 -0.280397445
vn 1.322225E-07 0.93530345 -0.3538466
vn 3.30575716E-07 0.568398356 -0.8227535
vn 0.609967947 0.741158962 -0.2803971
vn 0.5987924 0.45523262 -0.6589469
vn -0.707106769 7.31064233E-07 -0.707106769
vn -0.598790944 0.455233365 -0.6589476
vn 3.30575716E-07 0.568398356 -0.8227535
vn 3.431866E-07 4.73816636E-15 -1
vn 0.5987924 0.45523262 -0.6589469
vn 0.7071069 -7.155313E-07 -0.70710665
vn 0.609967947 0.741158962 -0.2803971
vn 1 -6.5685947E-07 7.015513E-07
vn -1 2.79615961E-07 -4.97109852E-07
vn -0.6099678 0.7411589 -0.280397445
vn -0.57735014 0.5773507 0.57735
vn 0.5773505 0.5773503 0.577349961
vn 0.5773505 0.57735 -0.577350259
vn -0.5773501 0.577350438 -0.577350259
vn -0.707106769 1.0712788E-06 0.7071068
vn -0.57735014 0.5773507 0.57735
vn -0.5773501 0.577350438 -0.577350259
vn -0.7071069 4.59119548E-07 -0.70710665
vn -0.7071069 4.59119548E-07 -0.70710665
vn -0.5773501 0.577350438 -0.577350259
vn 0.5773505 0.57735 -0.577350259
vn 0.70710665 -4.59119377E-07 -0.7071069
vn 0.70710665 -4.59119377E-07 -0.7071069
vn 0.5773505 0.57735 -0.577350259
vn 0.5773505 0.5773503 0.577349961
vn 0.7071065 1.5304029E-07 0.7071071
vn 0 0 -1
vn 0 0 -1
vn 0 0 -1
vn 0 0 -1
vn -0.57735014 0.5773507 0.57735
vn -0.707106769 1.0712788E-06 0.7071068
vn 0.7071065 1.5304029E-07 0.7071071
vn 0.5773505 0.5773503 0.577349961
vn -0.57735 0.577350438 0.5773503
vn 0.577350557 0.5773501 0.5773502
vn 0.5773505 0.57735 -0.577350259
vn -0.57735 0.5773505 -0.5773503
vn -0.7071072 5.44014767E-07 0.707106352
vn -0.57735 0.577350438 0.5773503
vn -0.57735 0.5773505 -0.5773503
vn -0.7071067 5.35639344E-07 -0.7071068
vn -0.7071067 5.35639344E-07 -0.7071068
vn -0.57735 0.5773505 -0.5773503
vn 0.5773505 0.57735 -0.577350259
vn 0.70710665 -5.356393E-07 -0.7071069
vn 0.70710665 -5.356393E-07 -0.7071069
vn 0.5773505 0.57735 -0.577350259
vn 0.577350557 0.5773501 0.5773502
vn 0.7071066 -5.35639231E-07 0.707106948
vn -0.57735 0.577350438 0.5773503
vn -0.7071072 5.44014767E-07 0.707106352
vn 0.7071066 -5.35639231E-07 0.707106948
vn 0.577350557 0.5773501 0.5773502
vn 2.63436021E-07 2.17325683E-14 -1
vn 2.63436021E-07 2.17325683E-14 -1
vn 2.63436021E-07 2.17325683E-14 -1
vn 2.63436021E-07 2.17325683E-14 -1
vn -0.5773508 0.5773506 0.5773494
vn 0.577349842 0.5773499 0.577351034
vn 0.5773512 0.5773502 -0.577349365
vn -0.577349365 0.5773503 -0.577351153
vn -0.707107961 5.356402E-07 0.707105637
vn -0.5773508 0.5773506 0.5773494
vn -0.577349365 0.5773503 -0.577351153
vn -0.707106 5.356388E-07 -0.707107544
vn -0.707106 5.356388E-07 -0.707107544
vn -0.577349365 0.5773503 -0.577351153
vn 0.5773512 0.5773502 -0.577349365
vn 0.7071076 -5.3563997E-07 -0.707105935
vn 0.7071076 -5.3563997E-07 -0.707105935
vn 0.5773512 0.5773502 -0.577349365
vn 0.577349842 0.5773499 0.577351034
vn 0.707105637 -5.356385E-07 0.7071079
vn -0.5773508 0.5773506 0.5773494
vn -0.707107961 5.356402E-07 0.707105637
vn 0.707105637 -5.356385E-07 0.7071079
vn 0.577349842 0.5773499 0.577351034
vn 0 1 0
vn 0.7071072 0.707106352 -2.28356525E-15
vn 0.577350557 0.57735 -0.5773502
vn 0 0.70710665 -0.707106948
vn 0 0 -1
vn 0 0.70710665 -0.707106948
vn 0.577350557 0.57735 -0.5773502
vn 0.7071066 -5.35639231E-07 -0.707106948
vn 0.7071066 -5.35639231E-07 -0.707106948
vn 0.577350557 0.57735 -0.5773502
vn 0.7071072 0.707106352 -2.28356525E-15
vn 1 -7.57508531E-07 -2.95063758E-14
vn -0.70710665 0.7071069 0
vn 0 1 0
vn 0 0.70710665 -0.7071069
vn -0.577349961 0.577350259 -0.5773506
vn -1 8.65723962E-07 3.00307739E-14
vn -0.70710665 0.7071069 0
vn -0.577349961 0.577350259 -0.5773506
vn -0.7071072 7.08394335E-13 -0.707106352
vn -0.7071072 7.08394335E-13 -0.707106352
vn -0.577349961 0.577350259 -0.5773506
vn 0 0.70710665 -0.7071069
vn 0 -8.65723962E-07 -1
vn -1 -2.32262664E-07 -7.79075549E-07
vn -1 -3.29985141E-07 -8.28123859E-07
vn -1 -9.772161E-08 -7.115474E-07
vn -1 8.74462232E-13 -6.62499133E-07
vn 1 1.0692721E-07 7.575738E-07
vn 1 1.64993125E-07 7.86717749E-07
vn 1 1.40562477E-07 7.74455657E-07
vn 1 8.249655E-08 7.45311638E-07
vn 0.6893176 0.378461927 -0.617744148
vn 0.449783027 0.6164253 -0.646308839
vn 0.7039812 -0.350740582 -0.617569
vn 0.393208921 0.19243677 -0.8990856
vn -0.394588143 -0.736477852 -0.5494548
vn -0.08699893 0.0223889556 -0.9959568
vn -0.4497831 0.616425157 -0.6463089
vn -0.6893173 0.37846148 -0.617744744
vn -0.3932087 0.192436635 -0.899085641
vn -0.703980446 -0.3507411 -0.617569566
vn 0.08699905 0.0223895628 -0.9959568
vn 0.394588917 -0.736477435 -0.549454749
vn -0.145259216 0.8274916 0.542362869
vn -0.146224678 0.827596068 0.541943848
vn -0.050186757 0.8128137 0.5803578
vn -0.0480899848 0.812393248 0.5811236
vn -0.151895121 0.809998 0.5664196
vn -0.15281257 0.809866965 0.5663601
vn -0.0489815846 0.8201978 0.5699792
vn -0.04716841 0.820298553 0.5699872
vn 0.0668373257 0.8223623 0.565024853
vn 0.06749608 0.8224948 0.5647536
vn -0.04931913 0.792389 0.608019233
vn -0.0503435321 0.7920663 0.608355641
vn 0.124504983 0.176055625 -0.976474762
vn 0.124504857 0.1760555 -0.976474762
vn 0.124504983 0.176055625 -0.976474762
vn 0.1245051 0.176055759 -0.9764747
vn -0.0357617922 0.176055714 -0.9837304
vn -0.0357617959 0.176055714 -0.9837304
vn -0.0357617922 0.176055729 -0.9837304
vn -0.0357617848 0.176055729 -0.9837304
vn 0.05855079 0.7852695 -0.61637944
vn -0.06510624 0.8287256 -0.555855334
vn -0.06327129 0.8282041 -0.55684346
vn 0.06063737 0.7843914 -0.6172951
vn 0.06244935 0.806593835 -0.587798
vn 0.0504643433 0.8079313 -0.5871119
vn 0.0506141372 0.80791533 -0.58712095
vn 0.06266055 0.806569159 -0.5878093
vn 0.314361781 0.847148359 -0.4283881
vn 0.07478443 0.8454937 -0.528722763
vn 0.07695397 0.845761836 -0.527982
vn 0.3177104 0.846748352 -0.4267052
vn 4.32683646E-11 -0.0163373146 -0.999866545
vn -1.8110363E-08 0.583740532 -0.811940253
vn 6.9813455E-10 0.5837405 -0.8119403
vn 1.16348831E-09 -0.0163373351 -0.999866545
vn -4.629336E-08 0.9530017 -0.302965
vn -1.72336438E-08 0.9530017 -0.302965045
vn -0.119616896 0.176055685 -0.977085531
vn -0.119616881 0.176055714 -0.977085531
vn -0.119616888 0.176055655 -0.9770856
vn -0.119616918 0.176055655 -0.9770856
vn -0.124505006 -0.176055625 0.976474762
vn -0.124504909 -0.176055536 0.976474762
vn -0.124505 -0.17605561 0.976474762
vn -0.124505088 -0.176055714 0.9764747
vn 0.0357617922 -0.176055714 0.9837304
vn 0.0357617959 -0.1760557 0.9837304
vn 0.03576179 -0.176055714 0.9837304
vn 0.0357617848 -0.176055714 0.9837304
vn 0.119616926 -0.176055655 0.9770856
vn 0.119616881 -0.176055714 0.977085531
vn 0.119616926 -0.17605567 0.9770856
vn 0.119616963 -0.17605561 0.9770856
vn -0.57735014 0.57735014 -0.5773505
vn 0.5773503 0.577350259 -0.5773502
vn 0.7071067 0 -0.7071068
vn -0.70710665 0 -0.707106948
vn -0.57735014 0.57735014 -0.5773505
vn -0.70710665 0 -0.707106948
vn -1 0 -1.27022517E-07
vn -0.707106769 0.7071068 -1.09466278E-07
vn 0.5773503 0.577350259 -0.5773502
vn -0.707106769 0.7071068 -1.09466278E-07
vn 0.7071069 0.7071067 -1.96477909E-08
vn 0.7071067 0 -0.7071068
vn 1 0 0
vn 0.5773504 0.5773504 0.5773501
vn -0.5773503 0.577350259 0.5773502
vn -0.7071072 0 0.7071064
vn 0.7071066 0 0.707106948
vn 0.5773504 0.5773504 0.5773501
vn 0.7071066 0 0.707106948
vn 1 0 2.54045034E-07
vn 0.707106769 0.707106769 1.9928477E-07
vn -0.5773503 0.577350259 0.5773502
vn 0.707106769 0.707106769 1.9928477E-07
vn -0.7071068 0.7071067 1.96477927E-08
vn -0.7071072 0 0.7071064
vn -1 0 0
vn 1 5.291195E-07 3.000036E-07
vn 1 6.068305E-07 4.4127998E-07
vn 1 4.418093E-07 1.41276189E-07
vn 1 3.640983E-07 -1.60669275E-13
vn -1 -4.418093E-07 -1.41276189E-07
vn -1 -6.068305E-07 -4.4127998E-07
vn -1 -5.291195E-07 -3.000036E-07
vn -1 -3.640983E-07 1.60669275E-13
vn 1 4.278975E-07 3.92760143E-07
vn 1 5.296356E-07 5.77717E-07
vn 1 3.13592238E-07 1.84956647E-07
vn 1 2.11854157E-07 -1.22391761E-13
vn -1 -1.69563435E-07 -3.08261264E-07
vn -1 -5.296356E-07 -9.628617E-07
vn -1 -3.600721E-07 -6.54600342E-07
vn -1 0 0
usemtl nml-bd049_part_0_material_0
f 1/1/1 2/2/2 3/3/3
f 3/3/3 4/4/4 1/1/1
f 5/5/5 6/6/6 7/7/7
f 7/7/7 8/8/8 5/5/5
f 9/9/9 8/8/8 7/7/7
f 10/10/10 11/11/11 3/3/3
f 3/3/3 2/2/2 10/10/10
f 5/5/5 8/8/8 12/12/12
f 13/13/13 14/14/14 15/15/15
f 15/15/15 16/16/16 13/13/13
f 17/17/17 13/13/13 16/16/16
f 16/16/16 18/18/18 17/17/17
f 6/6/6 5/5/5 19/19/19
f 19/19/19 20/20/20 6/6/6
f 1/1/1 4/4/4 21/21/21
f 21/21/21 22/22/22 1/1/1
f 19/19/19 5/5/5 12/12/12
f 12/12/12 23/23/23 19/19/19
f 15/15/15 14/14/14 24/24/24
f 24/24/24 25/25/25 15/15/15
f 26/26/26 27/27/27 28/28/28
f 28/28/28 29/29/29 26/26/26
f 30/30/30 31/31/31 32/32/32
f 32/32/32 33/33/33 30/30/30
f 34/34/34 30/30/30 33/33/33
f 26/26/26 35/35/35 36/36/36
f 36/36/36 27/27/27 26/26/26
f 32/32/32 37/37/37 33/33/33
f 38/38/38 39/39/39 40/40/40
f 40/40/40 41/41/41 38/38/38
f 41/41/41 40/40/40 42/42/42
f 42/42/42 43/43/43 41/41/41
f 44/44/44 45/45/45 46/46/46
f 46/46/46 47/47/47 44/44/44
f 48/48/48 49/49/49 50/50/50
f 50/50/50 51/51/51 48/48/48
f 52/52/52 53/53/53 54/54/54
f 54/54/54 55/55/55 52/52/52
f 53/53/53 52/52/52 51/51/51
f 51/51/51 50/50/50 53/53/53
f 56/56/56 57/57/57 58/58/58
f 58/58/58 59/59/59 56/56/56
f 60/60/60 61/61/61 57/57/57
f 57/57/57 56/56/56 60/60/60
f 62/62/62 63/63/63 61/61/61
f 61/61/61 60/60/60 62/62/62
f 64/64/64 65/65/65 66/66/66
f 66/66/66 67/67/67 64/64/64
f 68/68/68 32/32/32 31/31/31
f 31/31/31 69/69/69 68/68/68
f 70/70/70 29/29/29 28/28/28
f 28/28/28 71/71/71 70/70/70
f 37/37/37 32/32/32 68/68/68
f 68/68/68 72/72/72 37/37/37
f 73/73/73 39/39/39 38/38/38
f 38/38/38 74/74/74 73/73/73
f 75/75/75 76/76/76 77/77/77
f 77/77/77 78/78/78 75/75/75
f 79/79/79 80/80/80 81/81/81
f 82/82/82 83/83/83 81/81/81
f 81/81/81 80/80/80 82/82/82
f 46/46/46 77/77/77 76/76/76
f 76/76/76 47/47/47 46/46/46
f 79/79/79 81/81/81 59/59/59
f 59/59/59 84/84/84 79/79/79
f 84/84/84 59/59/59 58/58/58
f 44/44/44 49/49/49 48/48/48
f 48/48/48 45/45/45 44/44/44
f 85/85/85 86/86/86 87/87/87
f 87/87/87 88/88/88 89/89/89
f 89/89/89 85/85/85 87/87/87
f 90/90/90 87/87/87 86/86/86
f 86/86/86 91/91/91 90/90/90
f 90/90/90 91/91/91 92/92/92
f 93/93/93 94/94/94 95/95/95
f 95/95/95 96/96/96 93/93/93
f 97/97/97 98/98/98 99/99/99
f 99/99/99 100/100/100 97/97/97
f 101/101/101 97/97/97 100/100/100
f 93/93/93 102/102/102 103/103/103
f 103/103/103 94/94/94 93/93/93
f 99/99/99 104/104/104 100/100/100
f 105/105/105 106/106/106 107/107/107
f 107/107/107 108/108/108 105/105/105
f 108/108/108 107/107/107 109/109/109
f 109/109/109 110/110/110 108/108/108
f 19/19/19 99/99/99 98/98/98
f 98/98/98 20/20/20 19/19/19
f 21/21/21 96/96/96 95/95/95
f 95/95/95 22/22/22 21/21/21
f 104/104/104 99/99/99 19/19/19
f 19/19/19 23/23/23 104/104/104
f 24/24/24 106/106/106 105/105/105
f 105/105/105 25/25/25 24/24/24
f 111/111/111 112/112/112 113/113/113
f 113/113/113 114/114/114 111/111/111
f 115/115/115 116/116/116 117/117/117
f 117/117/117 118/118/118 115/115/115
f 119/119/119 118/118/118 117/117/117
f 120/120/120 121/121/121 113/113/113
f 113/113/113 112/112/112 120/120/120
f 115/115/115 118/118/118 122/122/122
f 123/123/123 124/124/124 125/125/125
f 125/125/125 126/126/126 123/123/123
f 127/127/127 123/123/123 126/126/126
f 126/126/126 128/128/128 127/127/127
f 129/129/129 130/130/130 131/131/131
f 131/131/131 132/132/132 129/129/129
f 133/133/133 134/134/134 135/135/135
f 135/135/135 136/136/136 133/133/133
f 137/137/137 138/138/138 139/139/139
f 139/139/139 140/140/140 137/137/137
f 136/136/136 139/139/139 138/138/138
f 138/138/138 133/133/133 136/136/136
f 141/141/141 142/142/142 143/143/143
f 143/143/143 144/144/144 141/141/141
f 142/142/142 145/145/145 146/146/146
f 146/146/146 143/143/143 142/142/142
f 145/145/145 147/147/147 148/148/148
f 148/148/148 146/146/146 145/145/145
f 149/149/149 150/150/150 151/151/151
f 151/151/151 152/152/152 149/149/149
f 116/116/116 115/115/115 68/68/68
f 68/68/68 69/69/69 116/116/116
f 111/111/111 114/114/114 70/70/70
f 70/70/70 71/71/71 111/111/111
f 68/68/68 115/115/115 122/122/122
f 122/122/122 72/72/72 68/68/68
f 125/125/125 124/124/124 73/73/73
f 73/73/73 74/74/74 125/125/125
f 153/153/153 154/154/154 155/155/155
f 155/155/155 156/156/156 153/153/153
f 157/157/157 158/158/158 159/159/159
f 158/158/158 83/83/83 160/160/160
f 160/160/160 159/159/159 158/158/158
f 154/154/154 153/153/153 129/129/129
f 129/129/129 132/132/132 154/154/154
f 144/144/144 158/158/158 157/157/157
f 157/157/157 161/161/161 144/144/144
f 161/161/161 141/141/141 144/144/144
f 135/135/135 134/134/134 131/131/131
f 131/131/131 130/130/130 135/135/135
f 170/170/170 160/160/160 83/83/83
f 89/89/89 88/88/88 171/171/171
f 172/172/172 173/173/173 174/174/174
f 174/174/174 175/175/175 172/172/172
f 176/176/176 177/177/177 178/178/178
f 178/178/178 179/179/179 176/176/176
f 180/180/180 181/181/181 182/182/182
f 182/182/182 183/183/183 180/180/180
f 184/184/184 185/185/185 160/160/160
f 184/184/184 160/160/160 170/170/170
f 184/184/184 170/170/170 186/186/186
f 187/187/187 188/188/188 89/89/89
f 187/187/187 89/89/89 171/171/171
f 187/187/187 171/171/171 189/189/189
f 175/175/175 174/174/174 179/179/179
f 179/179/179 178/178/178 175/175/175
f 288/288/288 289/289/289 290/290/290
f 290/290/290 291/291/291 288/288/288
f 291/291/291 290/290/290 292/292/292
f 292/292/292 293/293/293 291/291/291
f 294/294/294 295/295/295 296/296/296
f 297/297/297 88/88/88 295/295/295
f 295/295/295 294/294/294 297/297/297
f 296/296/296 295/295/295 298/298/298
f 298/298/298 299/299/299 296/296/296
f 298/298/298 300/300/300 299/299/299
f 365/365/365 366/366/366 367/367/367
f 367/367/367 368/368/368 365/365/365
f 369/369/369 370/370/370 371/371/371
f 371/371/371 372/372/372 369/369/369
f 389/389/389 390/390/390 391/391/391
f 391/391/391 392/392/392 389/389/389
f 417/417/417 418/418/418 419/419/419
f 419/419/419 420/420/420 417/417/417
f 465/465/465 466/466/466 467/467/467
f 467/467/467 468/468/468 465/465/465
f 469/469/469 470/470/470 471/471/471
f 471/471/471 472/472/472 469/469/469
f 521/521/521 522/522/522 523/523/523
f 523/523/523 524/524/524 521/521/521
f 525/525/525 526/526/526 527/527/527
f 527/527/527 528/528/528 525/525/525
f 590/590/590 591/591/591 592/592/592
f 592/592/592 593/593/593 590/590/590
f 618/618/618 619/619/619 620/620/620
f 620/620/620 621/621/621 618/618/618
f 666/666/666 667/667/667 668/668/668
f 668/668/668 669/669/669 666/666/666
f 670/670/670 671/671/671 672/672/672
f 672/672/672 673/673/673 670/670/670
f 92/92/92 674/674/674 675/675/675
f 675/675/675 90/90/90 92/92/92
f 674/674/674 676/676/676 677/677/677
f 677/677/677 675/675/675 674/674/674
f 676/676/676 678/678/678 679/679/679
f 679/679/679 677/677/677 676/676/676
f 680/680/680 681/681/681 300/300/300
f 300/300/300 298/298/298 680/680/680
f 682/682/682 683/683/683 681/681/681
f 681/681/681 680/680/680 682/682/682
f 684/684/684 685/685/685 683/683/683
f 683/683/683 682/682/682 684/684/684
f 686/686/686 687/687/687 688/688/688
f 688/688/688 689/689/689 686/686/686
f 690/690/690 691/691/691 692/692/692
f 692/692/692 693/693/693 690/690/690
f 694/694/694 695/695/695 696/696/696
f 696/696/696 697/697/697 694/694/694
f 698/698/698 699/699/699 700/700/700
f 700/700/700 701/701/701 698/698/698
f 702/702/702 703/703/703 704/704/704
f 704/704/704 705/705/705 702/702/702
f 706/706/706 707/707/707 708/708/708
f 708/708/708 709/709/709 706/706/706
f 710/710/710 711/711/711 712/712/712
f 712/712/712 713/713/713 710/710/710
f 714/714/714 715/715/715 716/716/716
f 716/716/716 717/717/717 714/714/714
f 718/718/718 719/719/719 720/720/720
f 720/720/720 721/721/721 718/718/718
f 719/719/719 722/722/722 723/723/723
f 723/723/723 720/720/720 719/719/719
f 724/724/724 725/725/725 726/726/726
f 726/726/726 727/727/727 724/724/724
f 728/728/728 729/729/729 730/730/730
f 730/730/730 731/731/731 728/728/728
f 732/732/732 733/733/733 734/734/734
f 734/734/734 735/735/735 732/732/732
f 736/736/736 737/737/737 738/738/738
f 738/738/738 739/739/739 736/736/736
f 766/766/766 767/767/767 768/768/768
f 768/768/768 769/769/769 766/766/766
f 770/770/770 771/771/771 772/772/772
f 772/772/772 773/773/773 770/770/770
f 774/774/774 775/775/775 776/776/776
f 776/776/776 777/777/777 774/774/774
f 778/778/778 779/779/779 780/780/780
f 780/780/780 781/781/781 778/778/778
usemtl nml-bd049_part_0_material_1
f 162/162/162 163/163/163 164/164/164
f 164/164/164 165/165/165 162/162/162
f 166/166/166 167/167/167 168/168/168
f 168/168/168 169/169/169 166/166/166
f 190/190/190 191/191/191 192/192/192
f 192/192/192 193/193/193 190/190/190
f 194/194/194 195/195/195 196/196/196
f 194/194/194 196/196/196 197/197/197
f 194/194/194 197/197/197 198/198/198
f 199/199/199 200/200/200 201/201/201
f 201/201/201 202/202/202 199/199/199
f 203/203/203 204/204/204 205/205/205
f 205/205/205 206/206/206 203/203/203
f 207/207/207 208/208/208 209/209/209
f 210/210/210 211/211/211 212/212/212
f 213/213/213 210/210/210 212/212/212
f 209/209/209 213/213/213 212/212/212
f 209/209/209 212/212/212 214/214/214
f 207/207/207 209/209/209 214/214/214
f 211/211/211 210/210/210 215/215/215
f 208/208/208 207/207/207 216/216/216
f 217/217/217 208/208/208 216/216/216
f 217/217/217 216/216/216 218/218/218
f 215/215/215 217/217/217 218/218/218
f 211/211/211 215/215/215 218/218/218
f 163/163/163 219/219/219 220/220/220
f 220/220/220 164/164/164 163/163/163
f 167/167/167 221/221/221 222/222/222
f 222/222/222 168/168/168 167/167/167
f 223/223/223 224/224/224 225/225/225
f 225/225/225 226/226/226 223/223/223
f 226/226/226 225/225/225 227/227/227
f 227/227/227 228/228/228 226/226/226
f 229/229/229 230/230/230 231/231/231
f 231/231/231 232/232/232 229/229/229
f 232/232/232 231/231/231 224/224/224
f 224/224/224 223/223/223 232/232/232
f 225/225/225 224/224/224 233/233/233
f 233/233/233 234/234/234 225/225/225
f 225/225/225 234/234/234 235/235/235
f 235/235/235 227/227/227 225/225/225
f 230/230/230 236/236/236 237/237/237
f 237/237/237 231/231/231 230/230/230
f 224/224/224 231/231/231 237/237/237
f 237/237/237 233/233/233 224/224/224
f 233/233/233 238/238/238 239/239/239
f 239/239/239 234/234/234 233/233/233
f 234/234/234 239/239/239 240/240/240
f 240/240/240 235/235/235 234/234/234
f 236/236/236 241/241/241 242/242/242
f 242/242/242 237/237/237 236/236/236
f 237/237/237 242/242/242 238/238/238
f 238/238/238 233/233/233 237/237/237
f 243/243/243 244/244/244 245/245/245
f 245/245/245 246/246/246 247/247/247
f 243/243/243 245/245/245 247/247/247
f 243/243/243 247/247/247 248/248/248
f 249/249/249 250/250/250 239/239/239
f 239/239/239 238/238/238 249/249/249
f 250/250/250 251/251/251 252/252/252
f 252/252/252 239/239/239 250/250/250
f 245/245/245 244/244/244 253/253/253
f 253/253/253 254/254/254 245/245/245
f 255/255/255 256/256/256 242/242/242
f 242/242/242 241/241/241 255/255/255
f 256/256/256 249/249/249 238/238/238
f 238/238/238 242/242/242 256/256/256
f 244/244/244 243/243/243 257/257/257
f 257/257/257 253/253/253 244/244/244
f 258/258/258 259/259/259 223/223/223
f 223/223/223 226/226/226 258/258/258
f 260/260/260 258/258/258 226/226/226
f 226/226/226 228/228/228 260/260/260
f 261/261/261 262/262/262 229/229/229
f 229/229/229 232/232/232 261/261/261
f 259/259/259 261/261/261 232/232/232
f 232/232/232 223/223/223 259/259/259
f 258/258/258 263/263/263 264/264/264
f 264/264/264 259/259/259 258/258/258
f 265/265/265 263/263/263 258/258/258
f 258/258/258 260/260/260 265/265/265
f 266/266/266 267/267/267 262/262/262
f 262/262/262 261/261/261 266/266/266
f 259/259/259 264/264/264 266/266/266
f 266/266/266 261/261/261 259/259/259
f 268/268/268 269/269/269 264/264/264
f 264/264/264 263/263/263 268/268/268
f 270/270/270 268/268/268 263/263/263
f 263/263/263 265/265/265 270/270/270
f 271/271/271 272/272/272 267/267/267
f 267/267/267 266/266/266 271/271/271
f 269/269/269 271/271/271 266/266/266
f 266/266/266 264/264/264 269/269/269
f 273/273/273 274/274/274 275/275/275
f 275/275/275 276/276/276 277/277/277
f 273/273/273 275/275/275 277/277/277
f 273/273/273 277/277/277 278/278/278
f 268/268/268 279/279/279 280/280/280
f 280/280/280 269/269/269 268/268/268
f 281/281/281 282/282/282 279/279/279
f 279/279/279 268/268/268 281/281/281
f 283/283/283 276/276/276 275/275/275
f 275/275/275 284/284/284 283/283/283
f 271/271/271 285/285/285 286/286/286
f 286/286/286 272/272/272 271/271/271
f 269/269/269 280/280/280 285/285/285
f 285/285/285 271/271/271 269/269/269
f 287/287/287 277/277/277 276/276/276
f 276/276/276 283/283/283 287/287/287
f 301/301/301 302/302/302 303/303/303
f 303/303/303 304/304/304 301/301/301
f 305/305/305 301/301/301 304/304/304
f 304/304/304 306/306/306 305/305/305
f 307/307/307 308/308/308 309/309/309
f 309/309/309 310/310/310 307/307/307
f 311/311/311 307/307/307 310/310/310
f 310/310/310 312/312/312 311/311/311
f 313/313/313 311/311/311 312/312/312
f 312/312/312 314/314/314 313/313/313
f 308/308/308 315/315/315 316/316/316
f 316/316/316 309/309/309 308/308/308
f 317/317/317 318/318/318 319/319/319
f 319/319/319 320/320/320 317/317/317
f 321/321/321 322/322/322 323/323/323
f 323/323/323 324/324/324 321/321/321
f 325/325/325 326/326/326 327/327/327
f 327/327/327 328/328/328 325/325/325
f 329/329/329 330/330/330 331/331/331
f 331/331/331 332/332/332 329/329/329
f 333/333/333 334/334/334 335/335/335
f 335/335/335 336/336/336 333/333/333
f 337/337/337 338/338/338 339/339/339
f 339/339/339 340/340/340 337/337/337
f 341/341/341 342/342/342 343/343/343
f 343/343/343 344/344/344 341/341/341
f 345/345/345 346/346/346 347/347/347
f 347/347/347 348/348/348 345/345/345
f 349/349/349 350/350/350 351/351/351
f 351/351/351 352/352/352 349/349/349
f 353/353/353 354/354/354 355/355/355
f 355/355/355 356/356/356 353/353/353
f 357/357/357 358/358/358 359/359/359
f 359/359/359 360/360/360 357/357/357
f 361/361/361 362/362/362 363/363/363
f 363/363/363 364/364/364 361/361/361
f 373/373/373 374/374/374 375/375/375
f 375/375/375 376/376/376 373/373/373
f 377/377/377 378/378/378 379/379/379
f 379/379/379 380/380/380 377/377/377
f 381/381/381 382/382/382 383/383/383
f 383/383/383 384/384/384 381/381/381
f 385/385/385 386/386/386 387/387/387
f 387/387/387 388/388/388 385/385/385
f 393/393/393 394/394/394 395/395/395
f 395/395/395 396/396/396 393/393/393
f 397/397/397 398/398/398 399/399/399
f 399/399/399 400/400/400 397/397/397
f 401/401/401 402/402/402 403/403/403
f 403/403/403 404/404/404 401/401/401
f 405/405/405 406/406/406 407/407/407
f 407/407/407 408/408/408 405/405/405
f 409/409/409 410/410/410 411/411/411
f 411/411/411 412/412/412 409/409/409
f 413/413/413 414/414/414 415/415/415
f 415/415/415 416/416/416 413/413/413
f 421/421/421 422/422/422 423/423/423
f 423/423/423 424/424/424 421/421/421
f 425/425/425 426/426/426 427/427/427
f 427/427/427 428/428/428 425/425/425
f 429/429/429 430/430/430 431/431/431
f 431/431/431 432/432/432 429/429/429
f 433/433/433 434/434/434 435/435/435
f 435/435/435 436/436/436 433/433/433
f 437/437/437 438/438/438 439/439/439
f 439/439/439 440/440/440 437/437/437
f 441/441/441 442/442/442 443/443/443
f 443/443/443 444/444/444 441/441/441
f 445/445/445 446/446/446 447/447/447
f 447/447/447 448/448/448 445/445/445
f 449/449/449 450/450/450 451/451/451
f 451/451/451 452/452/452 449/449/449
f 453/453/453 454/454/454 455/455/455
f 455/455/455 456/456/456 453/453/453
f 457/457/457 458/458/458 459/459/459
f 459/459/459 460/460/460 457/457/457
f 461/461/461 462/462/462 463/463/463
f 463/463/463 464/464/464 461/461/461
f 473/473/473 474/474/474 475/475/475
f 475/475/475 476/476/476 473/473/473
f 477/477/477 478/478/478 479/479/479
f 479/479/479 480/480/480 477/477/477
f 481/481/481 482/482/482 483/483/483
f 483/483/483 484/484/484 481/481/481
f 485/485/485 486/486/486 487/487/487
f 487/487/487 488/488/488 485/485/485
f 489/489/489 490/490/490 491/491/491
f 491/491/491 492/492/492 489/489/489
f 493/493/493 494/494/494 495/495/495
f 495/495/495 496/496/496 493/493/493
f 497/497/497 498/498/498 499/499/499
f 499/499/499 500/500/500 497/497/497
f 501/501/501 502/502/502 503/503/503
f 503/503/503 504/504/504 501/501/501
f 505/505/505 506/506/506 507/507/507
f 507/507/507 508/508/508 505/505/505
f 509/509/509 510/510/510 511/511/511
f 511/511/511 512/512/512 509/509/509
f 513/513/513 514/514/514 515/515/515
f 515/515/515 516/516/516 513/513/513
f 517/517/517 518/518/518 519/519/519
f 519/519/519 520/520/520 517/517/517
f 529/529/529 530/530/530 531/531/531
f 531/531/531 532/532/532 529/529/529
f 533/533/533 534/534/534 535/535/535
f 533/533/533 535/535/535 536/536/536
f 533/533/533 536/536/536 537/537/537
f 538/538/538 539/539/539 540/540/540
f 540/540/540 541/541/541 538/538/538
f 542/542/542 543/543/543 544/544/544
f 544/544/544 545/545/545 542/542/542
f 546/546/546 547/547/547 548/548/548
f 546/546/546 548/548/548 549/549/549
f 546/546/546 549/549/549 550/550/550
f 550/550/550 551/551/551 552/552/552
f 550/550/550 552/552/552 553/553/553
f 546/546/546 550/550/550 553/553/553
f 554/554/554 552/552/552 551/551/551
f 554/554/554 551/551/551 555/555/555
f 556/556/556 548/548/548 547/547/547
f 556/556/556 547/547/547 557/557/557
f 555/555/555 556/556/556 557/557/557
f 554/554/554 555/555/555 557/557/557
f 558/558/558 559/559/559 560/560/560
f 560/560/560 561/561/561 558/558/558
f 561/561/561 560/560/560 562/562/562
f 562/562/562 563/563/563 561/561/561
f 564/564/564 565/565/565 566/566/566
f 566/566/566 567/567/567 564/564/564
f 567/567/567 566/566/566 568/568/568
f 568/568/568 569/569/569 567/567/567
f 569/569/569 568/568/568 570/570/570
f 570/570/570 571/571/571 569/569/569
f 572/572/572 573/573/573 565/565/565
f 565/565/565 564/564/564 572/572/572
f 574/574/574 575/575/575 576/576/576
f 576/576/576 577/577/577 574/574/574
f 578/578/578 579/579/579 580/580/580
f 580/580/580 581/581/581 578/578/578
f 582/582/582 583/583/583 584/584/584
f 584/584/584 585/585/585 582/582/582
f 586/586/586 587/587/587 588/588/588
f 588/588/588 589/589/589 586/586/586
f 594/594/594 595/595/595 596/596/596
f 596/596/596 597/597/597 594/594/594
f 598/598/598 599/599/599 600/600/600
f 600/600/600 601/601/601 598/598/598
f 602/602/602 603/603/603 604/604/604
f 604/604/604 605/605/605 602/602/602
f 606/606/606 607/607/607 608/608/608
f 608/608/608 609/609/609 606/606/606
f 610/610/610 611/611/611 612/612/612
f 612/612/612 613/613/613 610/610/610
f 614/614/614 615/615/615 616/616/616
f 616/616/616 617/617/617 614/614/614
f 622/622/622 623/623/623 624/624/624
f 624/624/624 625/625/625 622/622/622
f 626/626/626 627/627/627 628/628/628
f 628/628/628 629/629/629 626/626/626
f 630/630/630 631/631/631 632/632/632
f 632/632/632 633/633/633 630/630/630
f 634/634/634 635/635/635 636/636/636
f 636/636/636 637/637/637 634/634/634
f 638/638/638 639/639/639 640/640/640
f 640/640/640 641/641/641 638/638/638
f 642/642/642 643/643/643 644/644/644
f 644/644/644 645/645/645 642/642/642
f 646/646/646 647/647/647 648/648/648
f 648/648/648 649/649/649 646/646/646
f 650/650/650 651/651/651 652/652/652
f 652/652/652 653/653/653 650/650/650
f 654/654/654 655/655/655 656/656/656
f 656/656/656 657/657/657 654/654/654
f 658/658/658 659/659/659 660/660/660
f 660/660/660 661/661/661 658/658/658
f 662/662/662 663/663/663 664/664/664
f 664/664/664 665/665/665 662/662/662
f 740/740/740 741/741/741 742/742/742
f 742/742/742 743/743/743 740/740/740
f 744/744/744 745/745/745 746/746/746
f 746/746/746 747/747/747 744/744/744
f 748/748/748 740/740/740 749/749/749
f 749/749/749 750/750/750 748/748/748
f 751/751/751 748/748/748 750/750/750
f 750/750/750 752/752/752 751/751/751
f 753/753/753 754/754/754 755/755/755
f 755/755/755 756/756/756 753/753/753
f 757/757/757 758/758/758 759/759/759
f 759/759/759 760/760/760 757/757/757
f 761/761/761 753/753/753 762/762/762
f 762/762/762 763/763/763 761/761/761
f 764/764/764 761/761/761 763/763/763
f 763/763/763 765/765/765 764/764/764
