mtllib 0000860003.mtl
o 0000860003_part_0
v 0.3592622 1.27192962 -0.04760062
v 0.3729461 1.1503973 0.0273823515
v 0.470537752 1.27429509 -0.112316489
v 0.5313457 1.12288249 -0.07265163
v 0.3592622 1.27192962 -0.04760062
v 0.336557359 1.21216893 -0.163595572
v 0.3729461 1.1503973 0.0273823515
v 0.3675102 1.08913791 -0.122633651
v 0.474011242 1.03341317 -0.201780915
v 0.401862 1.2222321 -0.201757729
v 0.533931136 1.04282117 0.0472143441
v 0.6053837 1.03597963 0.00345722586
v 0.368319064 1.09032273 0.06140185
v 0.3667919 0.9870781 0.0700415447
v 0.474565268 1.03559971 0.09414206
v 0.368319064 1.09032273 0.06140185
v 0.5221925 0.9391887 -0.161856472
v 0.6109993 0.984333038 -0.133474678
v 0.515039146 0.9982217 0.0685467348
v 0.56849277 0.810763955 0.06689241
v 0.6083163 0.895840645 0.0407615378
v 0.5617899 0.8250015 0.09908187
v 0.624444246 0.9356756 0.07706029
v 0.5431818 0.8807272 0.03196224
v 0.5389278 0.8864436 -0.131189317
v 0.5400349 0.843961358 0.1048988
v 0.5812116 0.930285156 0.09265099
v 0.3767997 1.04234564 0.1159494
v 0.472243547 0.9636948 0.185423076
v 0.411992967 0.93135047 0.1948834
v 0.5812116 0.930285156 0.09265099
v 0.5400349 0.843961358 0.1048988
v 0.551599 0.814769149 0.0475874841
v 0.5400349 0.843961358 0.1048988
v 0.551599 0.814769149 0.0475874841
v 0.478283852 0.9842077 0.0741873458
v 0.454972178 0.9160533 0.161888719
v 0.411992967 0.93135047 0.1948834
v 0.3767997 1.04234564 0.1159494
v 0.411992967 0.93135047 0.1948834
v 0.478283852 0.9842077 0.0741873458
v 0.454972178 0.9160533 0.161888719
v 0.614488542 0.892877936 -0.1053859
v 0.515039146 0.9982217 0.0685467348
v 0.480504334 0.813818634 0.0301800966
v 0.5211796 0.8010022 -0.09499077
v 0.517372131 0.7900152 0.038549684
v 0.480504334 0.813818634 0.0301800966
v 0.5431818 0.8807272 0.03196224
v 0.480504334 0.813818634 0.0301800966
v 0.551599 0.814769149 0.0475874841
v -0.5033452 1.13399875 -0.02597928
v -0.345413268 1.17257345 0.0651446953
v -0.45239073 1.28768086 -0.0705004856
v -0.336777717 1.29073238 -0.0139292069
v -0.3421546 1.10722387 -0.08745829
v -0.319766849 1.23121524 -0.131019
v -0.345413268 1.17257345 0.0651446953
v -0.336777717 1.29073238 -0.0139292069
v -0.388019621 1.2380892 -0.16443491
v -0.451433778 1.04625082 -0.158538178
v -0.5509154 1.024338 0.0664489344
v -0.473772317 1.03781593 0.0970144346
v -0.299670577 1.00441027 0.08278202
v -0.3221323 1.111522 0.09280259
v -0.3221323 1.111522 0.09280259
v -0.406568348 1.034301 0.130626082
v -0.576338351 0.981956065 -0.07141586
v -0.489808261 0.951384544 -0.119458526
v -0.44589898 0.99484235 0.110335059
v -0.5481994 0.9190847 0.13106373
v -0.5329073 0.8836627 0.09016662
v -0.476099879 0.815741658 0.139208674
v -0.484454632 0.802586257 0.106945209
v -0.486910164 0.8927369 -0.08925966
v -0.4683822 0.8769189 0.07203498
v -0.502975643 0.9179407 0.140548289
v -0.4559082 0.836580157 0.144173175
v -0.316027045 0.9269129 0.203035086
v -0.3086015 1.05117428 0.137513787
v -0.3805466 0.9510335 0.207640737
v -0.4700285 0.809381366 0.08645537
v -0.4559082 0.836580157 0.144173175
v -0.502975643 0.9179407 0.140548289
v -0.4700285 0.809381366 0.08645537
v -0.4559082 0.836580157 0.144173175
v -0.3617024 0.9099039 0.174851418
v -0.4074918 0.9851655 0.105428971
v -0.3086015 1.05117428 0.137513787
v -0.316027045 0.9269129 0.203035086
v -0.316027045 0.9269129 0.203035086
v -0.3617024 0.9099039 0.174851418
v -0.4074918 0.9851655 0.105428971
v -0.558442533 0.8886387 -0.0536487848
v -0.44589898 0.99484235 0.110335059
v -0.452509761 0.806466937 -0.05889946
v -0.401254833 0.8169352 0.06254943
v -0.434526861 0.788928747 0.07277169
v -0.401254833 0.8169352 0.06254943
v -0.4683822 0.8769189 0.07203498
v -0.401254833 0.8169352 0.06254943
v -0.4700285 0.809381366 0.08645537
vt 0.299419016 0.9347917
vt 0.2309096 0.804821968
vt 0.40223974 0.895150363
vt 0.388377 0.7160655
vt 0.798580348 0.855994761
vt 0.675082743 0.843638837
vt 0.9020225 0.713394165
vt 0.723415852 0.6853307
vt 0.5664946 0.6367569
vt 0.544264436 0.8672577
vt 0.279299 0.507209
vt 0.353957623 0.49763453
vt 0.9220386 0.6544126
vt 0.8885309 0.5514763
vt 0.169133976 0.492392778
vt 0.152539626 0.6796583
vt 0.5909523 0.483506858
vt 0.5251521 0.490414679
vt 0.816979 0.495199919
vt 0.267140538 0.139269531
vt 0.328448623 0.3142177
vt 0.18883574 0.159748554
vt 0.249397352 0.332182646
vt 0.7583552 0.34207654
vt 0.5895508 0.415241659
vt 0.130379722 0.186633289
vt 0.190959215 0.3397113
vt 0.0759100541 0.5552137
vt 0.0870045349 0.373024464
vt 0.009343798 0.3807404
vt 0.8426299 0.322911263
vt 0.8496834 0.175546646
vt 0.7756916 0.162242353
vt 0.144323692 0.117314458
vt 0.2835503 0.08363825
vt 0.209063321 0.460438251
vt 0.113912918 0.3146006
vt 0.9873888 0.359007239
vt 0.955688953 0.5875802
vt 0.0532095358 0.313371181
vt 0.86275 0.489391863
vt 0.9307436 0.3406719
vt 0.515343368 0.371597648
vt 0.2348248 0.46202755
vt 0.721535563 0.16048795
vt 0.5520095 0.144678235
vt 0.389493555 0.118994772
vt 0.400128424 0.07033908
vt 0.3275317 0.23641628
vt 0.3425994 0.128218174
vt 0.310711145 0.150368929
vt 0.388377 0.7160655
vt 0.2309096 0.804821968
vt 0.40223974 0.895150363
vt 0.299419016 0.9347917
vt 0.723415852 0.6853307
vt 0.675082743 0.843638837
vt 0.9020225 0.713394165
vt 0.798580348 0.855994761
vt 0.544264436 0.8672577
vt 0.5664946 0.6367569
vt 0.353957623 0.49763453
vt 0.279299 0.507209
vt 0.8885309 0.5514763
vt 0.9220386 0.6544126
vt 0.152539626 0.6796583
vt 0.169133976 0.492392778
vt 0.5251521 0.490414679
vt 0.5909523 0.483506858
vt 0.816979 0.495199919
vt 0.249397352 0.332182646
vt 0.328448623 0.3142177
vt 0.18883574 0.159748554
vt 0.267140538 0.139269531
vt 0.5895508 0.415241659
vt 0.7583552 0.34207654
vt 0.190959215 0.3397113
vt 0.130379722 0.186633289
vt 0.009343798 0.3807404
vt 0.0759100541 0.5552137
vt 0.0870045349 0.373024464
vt 0.7756916 0.162242353
vt 0.8496834 0.175546646
vt 0.8426299 0.322911263
vt 0.2835503 0.08363825
vt 0.144323692 0.117314458
vt 0.113912918 0.3146006
vt 0.209063321 0.460438251
vt 0.955688953 0.5875802
vt 0.9873888 0.359007239
vt 0.0532095358 0.313371181
vt 0.9307436 0.3406719
vt 0.86275 0.489391863
vt 0.515343368 0.371597648
vt 0.2348248 0.46202755
vt 0.5520095 0.144678235
vt 0.721535563 0.16048795
vt 0.389493555 0.118994772
vt 0.400128424 0.07033908
vt 0.3275317 0.23641628
vt 0.3425994 0.128218174
vt 0.310711145 0.150368929
vn -0.4260023 0.439828157 0.790615737
vn -0.5017207 0.5091478 0.6993174
vn 0.8599277 0.488786042 0.14701198
vn 0.7826196 0.621876955 0.027850097
vn -0.4260023 0.439828157 0.790615737
vn -0.9042111 -0.215314627 -0.368838638
vn -0.5017207 0.5091478 0.6993174
vn -0.8442707 -0.4701248 -0.257273555
vn -0.0352395251 -0.1682935 -0.9851068
vn 0.1378355 0.0527895354 -0.989047348
vn 0.418568581 0.5992052 0.6824613
vn 0.8114274 0.5191428 0.268470317
vn -0.727346659 0.4058106 0.5534299
vn -0.756686568 -0.614748359 -0.2225083
vn 0.521059036 0.503466 0.689216554
vn -0.727346659 0.4058106 0.5534299
vn -0.31055063 -0.5956339 -0.7407959
vn 0.811414838 0.152577832 -0.564203858
vn -0.154980749 -0.3684968 0.91661936
vn 0.387932062 -0.919516742 -0.06322689
vn 0.9214561 -0.38781926 -0.0226901527
vn 0.172954574 -0.6938366 0.6990547
vn 0.8758577 0.08809506 0.474460244
vn -0.962566853 0.0342806876 0.26886788
vn -0.4861757 -0.458452076 -0.7439455
vn -0.6655601 -0.145732522 0.73197794
vn -0.112400636 0.1503008 0.98223
vn -0.583281636 0.5023252 0.6383196
vn 0.662607133 0.131792128 0.737280548
vn -0.4611022 -0.457911551 0.760067
vn -0.112400636 0.1503008 0.98223
vn -0.6655601 -0.145732522 0.73197794
vn -0.22850205 -0.698757768 -0.677882254
vn -0.6655601 -0.145732522 0.73197794
vn -0.22850205 -0.698757768 -0.677882254
vn 0.5483582 -0.6802303 -0.486405134
vn 0.358988523 -0.9316463 0.0562357642
vn -0.4611022 -0.457911551 0.760067
vn -0.583281636 0.5023252 0.6383196
vn -0.4611022 -0.457911551 0.760067
vn 0.5483582 -0.6802303 -0.486405134
vn 0.358988523 -0.9316463 0.0562357642
vn 0.822834253 -0.379987717 -0.422555447
vn -0.154980749 -0.3684968 0.91661936
vn -0.922335446 -0.05048738 0.383077472
vn -0.3883964 -0.742375433 -0.5459184
vn 0.0491689481 -0.782999635 0.620075762
vn -0.922335446 -0.05048738 0.383077472
vn -0.962566853 0.0342806876 0.26886788
vn -0.922335446 -0.05048738 0.383077472
vn -0.22850205 -0.698757768 -0.677882254
vn -0.846071362 0.5191903 0.120849848
vn 0.424372256 0.5741355 0.7001976
vn -0.8674481 0.459736735 0.190199763
vn 0.487429857 0.4607401 0.741708
vn 0.852179945 -0.393829554 -0.344510674
vn 0.888568 -0.184931621 -0.419818133
vn 0.424372256 0.5741355 0.7001976
vn 0.487429857 0.4607401 0.741708
vn -0.210454568 0.0395429619 -0.9768036
vn -0.0553717837 -0.162808657 -0.9851027
vn -0.802184641 0.38900885 0.4529591
vn -0.360901773 0.47896862 0.800211847
vn 0.790582359 -0.4561226 -0.4085727
vn 0.6974048 0.495966882 0.5173426
vn 0.6974048 0.495966882 0.5173426
vn -0.4276811 0.3277547 0.8424166
vn -0.918751657 0.0591638274 -0.390378028
vn 0.203615248 -0.497812331 -0.843044341
vn 0.372034043 -0.4068821 0.834288657
vn -0.8101095 -0.03332961 0.5853305
vn -0.8753915 -0.4801288 0.0562675372
vn -0.03853031 -0.7421874 0.6690839
vn -0.302118063 -0.949896336 -0.08013506
vn 0.4820478 -0.3011065 -0.8227787
vn 0.9793156 0.1359652 0.149847955
vn 0.234586775 0.120198883 0.9646353
vn 0.7369556 -0.1216058 0.6649124
vn 0.635217965 -0.480282843 0.604836
vn 0.6399377 0.483721226 0.597070754
vn -0.540037453 -0.06595864 0.839052439
vn 0.22379832 -0.6455535 -0.7301883
vn 0.7369556 -0.1216058 0.6649124
vn 0.234586775 0.120198883 0.9646353
vn 0.22379832 -0.6455535 -0.7301883
vn 0.7369556 -0.1216058 0.6649124
vn -0.228107 -0.972933769 -0.0369745232
vn -0.582865059 -0.6125657 -0.5338835
vn 0.6399377 0.483721226 0.597070754
vn 0.635217965 -0.480282843 0.604836
vn 0.635217965 -0.480282843 0.604836
vn -0.228107 -0.972933769 -0.0369745232
vn -0.582865059 -0.6125657 -0.5338835
vn -0.815918 -0.4725171 -0.333174676
vn 0.372034043 -0.4068821 0.834288657
vn 0.410552353 -0.6534322 -0.635982037
vn 0.9533337 0.02353419 0.301000148
vn 0.09317071 -0.8105336 0.578234
vn 0.9533337 0.02353419 0.301000148
vn 0.9793156 0.1359652 0.149847955
vn 0.9533337 0.02353419 0.301000148
vn 0.22379832 -0.6455535 -0.7301883
usemtl 0000860003_part_0_material_0
f 1/1/1 2/2/2 3/3/3
f 4/4/4 3/3/3 2/2/2
f 5/5/5 6/6/6 7/7/7
f 8/8/8 7/7/7 6/6/6
f 8/8/8 6/6/6 9/9/9
f 10/10/10 9/9/9 6/6/6
f 2/2/2 11/11/11 4/4/4
f 12/12/12 4/4/4 11/11/11
f 10/10/10 3/3/3 9/9/9
f 4/4/4 9/9/9 3/3/3
f 7/7/7 8/8/8 13/13/13
f 14/14/14 13/13/13 8/8/8
f 11/11/11 2/2/2 15/15/15
f 16/16/16 15/15/15 2/2/2
f 17/17/17 9/9/9 18/18/18
f 19/19/19 8/8/8 17/17/17
f 20/20/20 21/21/21 22/22/22
f 23/23/23 22/22/22 21/21/21
f 19/19/19 17/17/17 24/24/24
f 25/25/25 24/24/24 17/17/17
f 26/26/26 22/22/22 27/27/27
f 23/23/23 27/27/27 22/22/22
f 15/15/15 28/28/28 29/29/29
f 30/30/30 29/29/29 28/28/28
f 31/31/31 24/24/24 32/32/32
f 33/33/33 32/32/32 24/24/24
f 22/22/22 34/34/34 20/20/20
f 35/35/35 20/20/20 34/34/34
f 15/15/15 29/29/29 36/36/36
f 37/37/37 36/36/36 29/29/29
f 14/14/14 38/38/38 39/39/39
f 40/40/40 37/37/37 29/29/29
f 16/16/16 28/28/28 15/15/15
f 39/39/39 13/13/13 14/14/14
f 8/8/8 19/19/19 14/14/14
f 41/41/41 42/42/42 14/14/14
f 14/14/14 42/42/42 38/38/38
f 12/12/12 18/18/18 4/4/4
f 9/9/9 4/4/4 18/18/18
f 18/18/18 12/12/12 43/43/43
f 21/21/21 43/43/43 12/12/12
f 25/25/25 17/17/17 43/43/43
f 18/18/18 43/43/43 17/17/17
f 23/23/23 11/11/11 27/27/27
f 44/44/44 27/27/27 11/11/11
f 11/11/11 23/23/23 12/12/12
f 21/21/21 12/12/12 23/23/23
f 45/45/45 24/24/24 46/46/46
f 25/25/25 46/46/46 24/24/24
f 31/31/31 19/19/19 24/24/24
f 46/46/46 25/25/25 43/43/43
f 21/21/21 47/47/47 43/43/43
f 46/46/46 43/43/43 47/47/47
f 47/47/47 48/48/48 46/46/46
f 49/49/49 47/47/47 21/21/21
f 50/50/50 47/47/47 49/49/49
f 20/20/20 49/49/49 21/21/21
f 51/51/51 49/49/49 20/20/20
f 9/9/9 17/17/17 8/8/8
f 11/11/11 15/15/15 44/44/44
f 36/36/36 44/44/44 15/15/15
f 19/19/19 41/41/41 14/14/14
f 52/52/52 53/53/53 54/54/54
f 55/55/55 54/54/54 53/53/53
f 56/56/56 57/57/57 58/58/58
f 59/59/59 58/58/58 57/57/57
f 60/60/60 57/57/57 61/61/61
f 56/56/56 61/61/61 57/57/57
f 62/62/62 63/63/63 52/52/52
f 53/53/53 52/52/52 63/63/63
f 52/52/52 54/54/54 61/61/61
f 60/60/60 61/61/61 54/54/54
f 64/64/64 56/56/56 65/65/65
f 58/58/58 65/65/65 56/56/56
f 66/66/66 53/53/53 67/67/67
f 63/63/63 67/67/67 53/53/53
f 68/68/68 61/61/61 69/69/69
f 69/69/69 56/56/56 70/70/70
f 71/71/71 72/72/72 73/73/73
f 74/74/74 73/73/73 72/72/72
f 75/75/75 69/69/69 76/76/76
f 70/70/70 76/76/76 69/69/69
f 71/71/71 73/73/73 77/77/77
f 78/78/78 77/77/77 73/73/73
f 79/79/79 80/80/80 81/81/81
f 67/67/67 81/81/81 80/80/80
f 82/82/82 76/76/76 83/83/83
f 84/84/84 83/83/83 76/76/76
f 85/85/85 86/86/86 74/74/74
f 73/73/73 74/74/74 86/86/86
f 87/87/87 81/81/81 88/88/88
f 67/67/67 88/88/88 81/81/81
f 89/89/89 90/90/90 64/64/64
f 81/81/81 87/87/87 91/91/91
f 67/67/67 80/80/80 66/66/66
f 64/64/64 65/65/65 89/89/89
f 64/64/64 70/70/70 56/56/56
f 64/64/64 92/92/92 93/93/93
f 90/90/90 92/92/92 64/64/64
f 61/61/61 68/68/68 52/52/52
f 62/62/62 52/52/52 68/68/68
f 72/72/72 62/62/62 94/94/94
f 68/68/68 94/94/94 62/62/62
f 68/68/68 69/69/69 94/94/94
f 75/75/75 94/94/94 69/69/69
f 95/95/95 63/63/63 77/77/77
f 71/71/71 77/77/77 63/63/63
f 72/72/72 71/71/71 62/62/62
f 63/63/63 62/62/62 71/71/71
f 75/75/75 76/76/76 96/96/96
f 97/97/97 96/96/96 76/76/76
f 76/76/76 70/70/70 84/84/84
f 94/94/94 75/75/75 96/96/96
f 96/96/96 98/98/98 94/94/94
f 72/72/72 94/94/94 98/98/98
f 96/96/96 99/99/99 98/98/98
f 72/72/72 98/98/98 100/100/100
f 100/100/100 98/98/98 101/101/101
f 72/72/72 100/100/100 74/74/74
f 74/74/74 100/100/100 102/102/102
f 56/56/56 69/69/69 61/61/61
f 88/88/88 67/67/67 95/95/95
f 63/63/63 95/95/95 67/67/67
f 64/64/64 93/93/93 70/70/70
