mtllib 0000255020.mtl
o 0000255020_part_0
v 0.361931652 1.172277 -0.06682977
v 0.38402456 1.16358876 -0.110487863
v 0.41547516 1.08996654 -0.09466879
v 0.296360433 1.07277465 -0.08600925
v 0.307721227 1.13518786 -0.151375264
v 0.283121943 1.11990643 -0.101305172
v 0.3696106 1.071209 -0.1680069
v 0.3696106 1.071209 -0.1680069
v 0.343462378 1.15584707 -0.149622545
v 0.307721227 1.13518786 -0.151375264
v 0.340537131 1.08993626 -0.0209518764
v 0.3251645 1.15767312 -0.0527628958
v 0.3251645 1.15767312 -0.0527628958
v 0.340537131 1.08993626 -0.0209518764
v 0.39342767 0.9772731 -0.0131328423
v 0.359170943 1.01567543 0.007983932
v 0.4232249 0.9621793 -0.1643458
v 0.3853355 0.9672803 -0.178203076
v 0.3853355 0.9672803 -0.178203076
v 0.344196379 0.9999076 -0.0314556137
v 0.348100245 0.7713085 -0.0162113551
v 0.4063366 0.8875234 -0.0539342
v 0.344843775 0.769474268 -0.0449281037
v 0.4280077 0.8993564 -0.0183056779
v 0.387276977 0.916096747 -0.07243204
v 0.376809448 0.924551368 -0.174002782
v 0.3896691 0.9017609 -0.003458567
v 0.329642147 0.79235965 -0.00435905345
v 0.300032437 0.932682335 0.04725919
v 0.3182023 1.04372561 0.0137153538
v 0.261857241 0.9300349 0.0422450677
v 0.329642147 0.79235965 -0.00435905345
v 0.3896691 0.9017609 -0.003458567
v 0.333690822 0.783015549 -0.0462640375
v 0.333690822 0.783015549 -0.0462640375
v 0.344196379 0.9999076 -0.0314556137
v 0.274666667 0.915376544 0.0175292622
v 0.3182023 1.04372561 0.0137153538
v 0.261857241 0.9300349 0.0422450677
v 0.2848345 1.03360856 -0.04662679
v 0.274666667 0.915376544 0.0175292622
v 0.437890083 0.963335037 -0.0580795333
v 0.398223132 0.911604762 -0.160738036
v 0.376809448 0.924551368 -0.174002782
v 0.277580917 0.804966152 -0.06421442
v 0.292957217 0.7931665 -0.140029788
v 0.292957217 0.7931665 -0.140029788
v 0.303617716 0.7894127 -0.06827012
v 0.277580917 0.804966152 -0.06421442
v 0.387276977 0.916096747 -0.07243204
v -0.3755533 1.18098259 -0.0520160049
v -0.433095127 1.10409963 -0.07706127
v -0.400118023 1.17284286 -0.0944415852
v -0.3160641 1.07399058 -0.0732055
v -0.326946 1.14187825 -0.139024854
v -0.392174423 1.08015513 -0.1521159
v -0.300308347 1.12600434 -0.0901973
v -0.392174423 1.08015513 -0.1521159
v -0.326946 1.14187825 -0.139024854
v -0.3618795 1.1636709 -0.135556653
v -0.3550798 1.09703827 -0.00666845776
v -0.3385936 1.16526711 -0.0397696644
v -0.3385936 1.16526711 -0.0397696644
v -0.3550798 1.09703827 -0.00666845776
v -0.37980625 0.991627 0.03487218
v -0.426273853 0.9775423 0.01358497
v -0.4639903 0.9645553 -0.136047512
v -0.4264268 0.9658401 -0.151571214
v -0.4264268 0.9658401 -0.151571214
v -0.3681822 0.974238038 -0.005013271
v -0.4014407 0.76811403 0.0106413122
v -0.449652672 0.8892512 -0.0257154685
v -0.4684856 0.903357744 0.0106902178
v -0.399638563 0.765801847 -0.0181688759
v -0.428723365 0.9157119 -0.0453029722
v -0.4219356 0.9225067 -0.147309929
v -0.429482549 0.902082741 0.0238508414
v -0.380515516 0.7873253 0.0214761663
v -0.3273873 0.9034722 0.07240561
v -0.332121342 1.01717138 0.0379414037
v -0.289908826 0.8970694 0.0657824054
v -0.380515516 0.7873253 0.0214761663
v -0.387286574 0.778177738 -0.02011959
v -0.429482549 0.902082741 0.0238508414
v -0.387286574 0.778177738 -0.02011959
v -0.3681822 0.974238038 -0.005013271
v -0.305156827 0.8835918 0.04178925
v -0.332121342 1.01717138 0.0379414037
v -0.299641281 1.00824225 -0.0245098528
v -0.289908826 0.8970694 0.0657824054
v -0.305156827 0.8835918 0.04178925
v -0.473808318 0.967763 -0.0292662326
v -0.4439094 0.9117973 -0.13300705
v -0.4219356 0.9225067 -0.147309929
v -0.330141932 0.794422448 -0.04068566
v -0.349899173 0.7837423 -0.1156471
v -0.349899173 0.7837423 -0.1156471
v -0.357724637 0.7814702 -0.0434613079
v -0.330141932 0.794422448 -0.04068566
v -0.428723365 0.9157119 -0.0453029722
vt 0.235466823 0.864851654
vt 0.3274079 0.8663379
vt 0.333996326 0.739648
vt 0.7649459 0.7876415
vt 0.8642854 0.9221966
vt 0.7732182 0.8928247
vt 0.92131865 0.8136356
vt 0.4697579 0.710530937
vt 0.412917256 0.8561125
vt 0.4760818 0.8517867
vt 0.660275042 0.7984307
vt 0.689403534 0.9308684
vt 0.172907323 0.835155547
vt 0.16263938 0.6890801
vt 0.211313382 0.487867832
vt 0.122364484 0.497938633
vt 0.5065172 0.5230234
vt 0.5561304 0.525090635
vt 0.977384746 0.6126435
vt 0.7037104 0.586010158
vt 0.239318833 0.110771775
vt 0.318774462 0.355970025
vt 0.29601106 0.103837013
vt 0.255785018 0.385751963
vt 0.811012447 0.499361277
vt 0.983459234 0.5371143
vt 0.203047916 0.3687055
vt 0.203244656 0.08914769
vt 0.06404974 0.299615979
vt 0.0621911958 0.515938342
vt 0.0248437561 0.273980975
vt 0.7210416 0.277642
vt 0.6997064 0.452050924
vt 0.7962359 0.27637434
vt 0.313659638 0.06617963
vt 0.177571371 0.4580363
vt 0.116503812 0.256272078
vt 0.5734933 0.6336513
vt 0.576072931 0.4302255
vt 0.6708373 0.640359938
vt 0.6259306 0.415366173
vt 0.31216833 0.515254259
vt 0.5079128 0.413815618
vt 0.54951483 0.424497128
vt 0.830878437 0.2670387
vt 0.972482 0.2652799
vt 0.544351757 0.121086121
vt 0.414929181 0.1082257
vt 0.4129949 0.0728575
vt 0.330036223 0.268238544
vt 0.235466823 0.864851654
vt 0.333996326 0.739648
vt 0.3274079 0.8663379
vt 0.7649459 0.7876415
vt 0.8642854 0.9221966
vt 0.92131865 0.8136356
vt 0.7732182 0.8928247
vt 0.4697579 0.710530937
vt 0.4760818 0.8517867
vt 0.412917256 0.8561125
vt 0.660275042 0.7984307
vt 0.689403534 0.9308684
vt 0.172907323 0.835155547
vt 0.16263938 0.6890801
vt 0.122364484 0.497938633
vt 0.211313382 0.487867832
vt 0.5065172 0.5230234
vt 0.5561304 0.525090635
vt 0.977384746 0.6126435
vt 0.7037104 0.586010158
vt 0.239318833 0.110771775
vt 0.318774462 0.355970025
vt 0.255785018 0.385751963
vt 0.29601106 0.103837013
vt 0.811012447 0.499361277
vt 0.983459234 0.5371143
vt 0.203047916 0.3687055
vt 0.203244656 0.08914769
vt 0.06404974 0.299615979
vt 0.0621911958 0.515938342
vt 0.0248437561 0.273980975
vt 0.7210416 0.277642
vt 0.7962359 0.27637434
vt 0.6997064 0.452050924
vt 0.313659638 0.06617963
vt 0.177571371 0.4580363
vt 0.116503812 0.256272078
vt 0.5734933 0.6336513
vt 0.6708373 0.640359938
vt 0.576072931 0.4302255
vt 0.6259306 0.415366173
vt 0.31216833 0.515254259
vt 0.5079128 0.413815618
vt 0.54951483 0.424497128
vt 0.830878437 0.2670387
vt 0.972482 0.2652799
vt 0.544351757 0.121086121
vt 0.414929181 0.1082257
vt 0.4129949 0.0728575
vt 0.330036223 0.268238544
vn 0.6066301 0.39316383 0.6909574
vn 0.8560724 0.378481358 -0.3519829
vn 0.922442436 0.340938777 0.181274876
vn -0.8981718 -0.3123729 -0.309371442
vn -0.720600367 -0.434616357 -0.5402256
vn -0.9544252 -0.128689721 0.269279331
vn -0.71991545 -0.27352348 -0.6378924
vn 0.5306698 0.2704518 -0.8032717
vn 0.298387021 0.289718419 -0.909411
vn -0.0635657161 0.1930399 -0.9791297
vn -0.8142391 0.321779 0.483190358
vn -0.790445566 0.104088828 0.6036235
vn 0.158168808 0.448915541 0.8794643
vn 0.5522152 0.378736734 0.74270916
vn 0.446986228 0.15701282 0.880653262
vn 0.5429959 -0.08463475 0.8354595
vn 0.7769182 -0.008589316 -0.629542947
vn 0.374300659 -0.08413986 -0.923482239
vn -0.9478227 -0.226921514 -0.223917022
vn -0.665275633 -0.596585035 -0.448881626
vn 0.5422085 -0.669576 0.5076198
vn 0.840673 -0.48947683 -0.231692225
vn -0.0931092948 -0.7873878 -0.6093859
vn 0.8511579 -0.192644328 0.488281071
vn -0.9855691 0.169246018 -0.003056033
vn -0.8765054 0.4813914 0.0008624276
vn 0.204081938 -0.0436237641 0.9779813
vn -0.514029741 -0.6950958 0.502608538
vn 0.5238273 -0.5152161 0.678348958
vn 0.1878011 0.330477118 0.924940944
vn -0.09742917 -0.3556096 0.929542542
vn -0.9101591 0.413853168 -0.01833136
vn -0.998921633 0.02413907 0.0396614522
vn -0.925696969 0.340234965 -0.165303409
vn -0.574936569 -0.5346369 -0.619363546
vn 0.3026743 -0.808233 0.5051213
vn 0.400935948 -0.898106635 0.18070668
vn -0.7715851 0.540074646 0.336118639
vn -0.9793622 0.20124945 -0.01866641
vn -0.9570644 0.104795791 -0.270269275
vn -0.5605736 -0.357193232 -0.7471079
vn 0.9915892 -0.09488845 0.08801718
vn 0.690228 -0.48686263 -0.535303831
vn 0.3683315 -0.294325769 -0.8818754
vn -0.794162869 0.6048371 -0.0589683056
vn -0.844713748 0.475670159 -0.245350048
vn 0.227423579 -0.8695106 -0.4384404
vn 0.244371891 -0.765945435 0.5946511
vn -0.270525753 -0.6403216 0.718890846
vn 0.286992222 -0.95670563 0.0484766
vn -0.554452062 0.422085226 0.717235565
vn -0.88059783 0.42289874 0.213785514
vn -0.8527248 0.416777045 -0.3148924
vn 0.849514544 -0.358923465 -0.38665098
vn 0.6757346 -0.454419643 -0.5804184
vn 0.6565164 -0.362434447 -0.6615342
vn 0.9614681 -0.163200825 0.221234083
vn -0.5529726 0.283020169 -0.7836587
vn 0.01954932 0.187625587 -0.982046068
vn -0.334135264 0.298469126 -0.8940188
vn 0.8575371 0.227860957 0.461204469
vn 0.821644 0.0755607262 0.564970553
vn -0.1004091 0.453821957 0.885417163
vn -0.424432963 0.405606 0.809531
vn -0.5013847 -0.09322265 0.8601877
vn -0.4075086 0.176760063 0.8959312
vn -0.800774455 0.04817322 -0.5970257
vn -0.419489324 -0.07350095 -0.904779732
vn 0.8807477 -0.352833629 -0.315898478
vn 0.52265203 -0.662689149 -0.5363561
vn -0.5822273 -0.610276937 0.5371904
vn -0.8937571 -0.406139255 -0.19039242
vn -0.8437086 -0.105502672 0.5263317
vn -0.0109300381 -0.7962705 -0.6048419
vn 0.997510254 0.020901287 -0.06735256
vn 0.9184935 0.393234372 -0.04167083
vn -0.172662064 -0.016831506 0.9848373
vn 0.4652437 -0.7391441 0.48704645
vn -0.5378183 -0.457391351 0.70819813
vn -0.0917167142 0.333627045 0.938232958
vn 0.10214477 -0.3609746 0.9269649
vn 0.944523633 0.3226134 -0.06160954
vn 0.9463568 0.246969283 -0.208362818
vn 0.985492 -0.1682455 -0.0223396327
vn 0.492362082 -0.5919852 -0.6380698
vn -0.479532242 -0.7480021 0.458848268
vn -0.4783741 -0.853450835 0.20683296
vn 0.8311947 0.411935747 0.3733956
vn 0.9573673 -0.0100639928 -0.2886979
vn 0.9971438 0.07362929 -0.016824
vn 0.4995888 -0.423915327 -0.7554513
vn -0.9915633 0.0153154312 0.128715023
vn -0.7572057 -0.420046926 -0.500200152
vn -0.433532655 -0.261989862 -0.862212658
vn 0.84605217 0.5237985 -0.09915084
vn 0.8755518 0.3892146 -0.286218584
vn -0.33015874 -0.8456067 -0.419457436
vn -0.29169488 -0.734841049 0.6123094
vn 0.237946123 -0.6595228 0.713029742
vn -0.3765871 -0.923700452 0.07042453
usemtl 0000255020_part_0_material_0
f 1/1/1 3/3/3 2/2/2
f 4/4/4 6/6/6 5/5/5
f 5/5/5 7/7/7 4/4/4
f 8/8/8 10/10/10 9/9/9
f 6/6/6 4/4/4 11/11/11
f 11/11/11 12/12/12 6/6/6
f 13/13/13 14/14/14 1/1/1
f 14/14/14 16/16/16 15/15/15
f 17/17/17 18/18/18 8/8/8
f 19/19/19 20/20/20 4/4/4
f 4/4/4 7/7/7 19/19/19
f 21/21/21 23/23/23 22/22/22
f 22/22/22 24/24/24 21/21/21
f 25/25/25 20/20/20 19/19/19
f 19/19/19 26/26/26 25/25/25
f 27/27/27 28/28/28 21/21/21
f 21/21/21 24/24/24 27/27/27
f 29/29/29 16/16/16 30/30/30
f 30/30/30 31/31/31 29/29/29
f 32/32/32 33/33/33 25/25/25
f 25/25/25 34/34/34 32/32/32
f 23/23/23 21/21/21 28/28/28
f 28/28/28 35/35/35 23/23/23
f 36/36/36 16/16/16 29/29/29
f 29/29/29 37/37/37 36/36/36
f 38/38/38 40/40/40 39/39/39
f 29/29/29 31/31/31 37/37/37
f 16/16/16 14/14/14 30/30/30
f 40/40/40 38/38/38 11/11/11
f 11/11/11 4/4/4 40/40/40
f 40/40/40 4/4/4 20/20/20
f 40/40/40 20/20/20 41/41/41
f 41/41/41 39/39/39 40/40/40
f 3/3/3 42/42/42 17/17/17
f 17/17/17 8/8/8 3/3/3
f 43/43/43 17/17/17 42/42/42
f 42/42/42 22/22/22 43/43/43
f 43/43/43 44/44/44 18/18/18
f 18/18/18 17/17/17 43/43/43
f 15/15/15 27/27/27 24/24/24
f 45/45/45 25/25/25 26/26/26
f 26/26/26 46/46/46 45/45/45
f 25/25/25 33/33/33 20/20/20
f 36/36/36 27/27/27 15/15/15
f 43/43/43 47/47/47 44/44/44
f 24/24/24 22/22/22 42/42/42
f 3/3/3 15/15/15 42/42/42
f 43/43/43 22/22/22 48/48/48
f 48/48/48 47/47/47 43/43/43
f 47/47/47 48/48/48 49/49/49
f 48/48/48 22/22/22 50/50/50
f 50/50/50 49/49/49 48/48/48
f 50/50/50 22/22/22 23/23/23
f 23/23/23 35/35/35 50/50/50
f 15/15/15 16/16/16 36/36/36
f 8/8/8 9/9/9 2/2/2
f 2/2/2 3/3/3 8/8/8
f 1/1/1 14/14/14 3/3/3
f 14/14/14 15/15/15 3/3/3
f 24/24/24 42/42/42 15/15/15
f 51/51/51 53/53/53 52/52/52
f 54/54/54 56/56/56 55/55/55
f 55/55/55 57/57/57 54/54/54
f 58/58/58 60/60/60 59/59/59
f 57/57/57 62/62/62 61/61/61
f 61/61/61 54/54/54 57/57/57
f 63/63/63 51/51/51 64/64/64
f 64/64/64 66/66/66 65/65/65
f 67/67/67 58/58/58 68/68/68
f 69/69/69 56/56/56 54/54/54
f 54/54/54 70/70/70 69/69/69
f 71/71/71 73/73/73 72/72/72
f 72/72/72 74/74/74 71/71/71
f 75/75/75 76/76/76 69/69/69
f 69/69/69 70/70/70 75/75/75
f 77/77/77 73/73/73 71/71/71
f 71/71/71 78/78/78 77/77/77
f 79/79/79 81/81/81 80/80/80
f 80/80/80 65/65/65 79/79/79
f 82/82/82 83/83/83 75/75/75
f 75/75/75 84/84/84 82/82/82
f 74/74/74 85/85/85 78/78/78
f 78/78/78 71/71/71 74/74/74
f 86/86/86 87/87/87 79/79/79
f 79/79/79 65/65/65 86/86/86
f 88/88/88 90/90/90 89/89/89
f 79/79/79 87/87/87 81/81/81
f 65/65/65 80/80/80 64/64/64
f 89/89/89 54/54/54 61/61/61
f 61/61/61 88/88/88 89/89/89
f 89/89/89 70/70/70 54/54/54
f 89/89/89 90/90/90 91/91/91
f 91/91/91 70/70/70 89/89/89
f 52/52/52 58/58/58 67/67/67
f 67/67/67 92/92/92 52/52/52
f 93/93/93 72/72/72 92/92/92
f 92/92/92 67/67/67 93/93/93
f 93/93/93 67/67/67 68/68/68
f 68/68/68 94/94/94 93/93/93
f 66/66/66 73/73/73 77/77/77
f 95/95/95 96/96/96 76/76/76
f 76/76/76 75/75/75 95/95/95
f 75/75/75 70/70/70 84/84/84
f 86/86/86 66/66/66 77/77/77
f 93/93/93 94/94/94 97/97/97
f 73/73/73 92/92/92 72/72/72
f 52/52/52 92/92/92 66/66/66
f 93/93/93 97/97/97 98/98/98
f 98/98/98 72/72/72 93/93/93
f 97/97/97 99/99/99 98/98/98
f 98/98/98 99/99/99 100/100/100
f 100/100/100 72/72/72 98/98/98
f 100/100/100 85/85/85 74/74/74
f 74/74/74 72/72/72 100/100/100
f 66/66/66 86/86/86 65/65/65
f 58/58/58 52/52/52 53/53/53
f 53/53/53 60/60/60 58/58/58
f 51/51/51 52/52/52 64/64/64
f 64/64/64 52/52/52 66/66/66
f 73/73/73 66/66/66 92/92/92
