mtllib 0000255080.mtl
o 0000255080_part_0
v 0.1220023 1.47210288 -0.212758631
v 0.120895475 1.63968778 -0.199803963
v -0.0032188464 1.469944 -0.2471421
v -0.002949035 1.64502192 -0.262963742
v 0.07451613 1.3134824 -0.202839792
v 0.192895278 1.92453218 -0.142480537
v 0.168755755 1.76903033 -0.1219327
v 0.1643097 1.82271433 -0.0432796776
v 0.184222117 2.042874 -0.15231654
v 0.174938589 1.93885124 -0.0417987369
v 0.134805679 1.64979684 0.05438267
v 0.117667377 1.956405 0.06016796
v 0.124249 1.98978829 0.0529650375
v 0.134283081 1.94385481 0.04012786
v 0.1519021 1.95609415 0.0161177553
v 0.114040621 1.92916822 0.0731975138
v 0.08907338 1.95327175 0.100135773
v 0.08776879 1.99749279 0.09632603
v 0.111029871 1.98290622 0.08026967
v 0.168755755 1.76903033 -0.1219327
v 0.112080038 1.76854134 -0.175217986
v 0.1866132 1.66128182 -0.184060216
v 0.137145638 1.91562223 -0.206149235
v 0.130335659 2.03169322 -0.209895253
v -0.00209134421 1.90707469 -0.270688355
v -0.0015875831 2.042117 -0.267711431
v -0.00230424618 1.76825809 -0.239412338
v 0.112080038 1.76854134 -0.175217986
v 0.168755755 1.76903033 -0.1219327
v 0.137145638 1.91562223 -0.206149235
v 0.112080038 1.76854134 -0.175217986
v 0.192895278 1.92453218 -0.142480537
v 0.164498568 2.06836939 -0.0169647411
v 0.08836114 1.81260157 0.06537632
v 0.1519021 1.95609415 0.0161177553
v 0.151768953 1.86107171 0.0005850865
v 0.174938589 1.93885124 -0.0417987369
v 0.184222117 2.042874 -0.15231654
v 0.1306191 2.0903635 -0.201329961
v 0.130335659 2.03169322 -0.209895253
v -0.147314146 1.95715177 0.0187751651
v -0.124041393 1.99066591 0.05517016
v -0.13268134 1.92979193 0.036630936
v -0.121921368 1.94356287 0.0645235
v -0.1091001 1.85342121 0.05412834
v -0.0491033681 2.1712358 0.036374893
v -0.08284253 1.988734 0.108301744
v -0.111423813 2.14344645 0.0329882763
v -0.03092919 1.967724 0.147464707
v -0.03575637 2.04226255 0.140504971
v 0.0422218926 2.0464 0.113346234
v -0.00075600337 1.91470313 -0.190389827
v -0.000620020146 1.82822108 -0.140651941
v -0.131564766 1.87593043 -0.07999018
v -0.0616125166 1.82068288 -0.08157874
v 0.120895475 1.63968778 -0.199803963
v 0.1866132 1.66128182 -0.184060216
v 0.112080038 1.76854134 -0.175217986
v 0.189265251 1.46187818 -0.22408478
v 0.0661664 2.1738627 0.0466211177
v 0.0661664 2.1738627 0.0466211177
v 0.130287737 2.12348175 0.0339515544
v 0.13108325 2.12863255 -0.164299682
v -0.000338959973 2.181505 -0.182594776
v -0.0011785893 2.10951042 -0.248481661
v 0.13108325 2.12863255 -0.164299682
v 0.1306191 2.0903635 -0.201329961
v -0.128483891 2.12955 -0.161994413
v -0.128948018 2.09128118 -0.199024692
v -0.128483891 2.12955 -0.161994413
v -0.182006389 2.04416847 -0.14906399
v -0.128948018 2.09128118 -0.199024692
v 0.130313873 2.15363 -0.101562694
v 0.164498568 2.06836939 -0.0169647411
v 0.130313873 2.15363 -0.101562694
v 0.164498568 2.06836939 -0.0169647411
v 0.130287737 2.12348175 0.0339515544
v 0.124249 1.98978829 0.0529650375
v 0.0661664 2.1738627 0.0466211177
v 0.000560760731 2.20389557 -0.09020013
v 0.130287737 2.12348175 0.0339515544
v 0.130313873 2.15363 -0.101562694
v 0.130313873 2.15363 -0.101562694
v 0.000560760731 2.20389557 -0.09020013
v 0.164498568 2.06836939 -0.0169647411
v 0.130313873 2.15363 -0.101562694
v -0.122557782 1.64156628 -0.2175267
v -0.112223446 1.76933408 -0.1732259
v -0.177446008 1.66254175 -0.181679159
v -0.167938918 1.77022052 -0.11894244
v -0.177446008 1.66254175 -0.181679159
v -0.112223446 1.76933408 -0.1732259
v -0.1421822 1.45768929 -0.217896909
v -0.122557782 1.64156628 -0.2175267
v -0.177446008 1.66254175 -0.181679159
v 0.1317155 1.87499976 -0.08232843
v 0.061357215 1.82024848 -0.08267085
v -0.00075600337 1.91470313 -0.190389827
v -0.000620020146 1.82822108 -0.140651941
v -0.136794135 1.91659057 -0.203716308
v -0.191339776 1.92589033 -0.139068052
v -0.129231468 2.03261065 -0.207589984
v -0.129231468 2.03261065 -0.207589984
v -0.136794135 1.91659057 -0.203716308
v -0.112223446 1.76933408 -0.1732259
v -0.002949035 1.64502192 -0.262963742
v -0.122557782 1.64156628 -0.2175267
v -0.167938918 1.77022052 -0.11894244
v -0.112223446 1.76933408 -0.1732259
v -0.159702271 2.06951547 -0.0140854381
v -0.103680983 1.80964911 0.0447707623
v -0.148128569 1.86213171 0.003248548
v -0.171496972 1.94007576 -0.03872196
v -0.182006389 2.04416847 -0.14906399
v -0.126435861 2.14872766 -0.09833695
v -0.159702271 2.06951547 -0.0140854381
v -0.124041393 1.99066591 0.05517016
v -0.111423813 2.14344645 0.0329882763
v -0.126435861 2.14872766 -0.09833695
v 0.000560760731 2.20389557 -0.09020013
v -0.111423813 2.14344645 0.0329882763
v -0.0491033681 2.1712358 0.036374893
v -0.126435861 2.14872766 -0.09833695
v -0.171496972 1.94007576 -0.03872196
v -0.126435861 2.14872766 -0.09833695
v -0.0032188464 1.469944 -0.2471421
v -0.09938077 1.47288537 -0.210792482
v -0.05741007 1.31394875 -0.201668113
v -0.0491033681 2.1712358 0.036374893
v -0.167938918 1.77022052 -0.11894244
v -0.191339776 1.92589033 -0.139068052
v -0.161717251 1.82386672 -0.0403841548
v -0.1317007 1.65238523 0.05672878
vt 0.7871595 0.146888852
vt 0.7825171 0.2573601
vt 0.989058 0.151085377
vt 0.9858343 0.271353841
vt 0.878067434 0.020801425
vt 0.993064 0.4915713
vt 0.964679658 0.2239914
vt 0.80912286 0.251753449
vt 0.9644453 0.898078859
vt 0.742299139 0.5059114
vt 0.8711124 0.03279245
vt 0.948654056 0.6704205
vt 0.9760067 0.71986413
vt 0.8547023 0.69912684
vt 0.7758779 0.7532499
vt 0.9059736 0.517191768
vt 0.940926969 0.268635631
vt 0.9349807 0.382769
vt 0.833905339 0.348706722
vt 0.8001081 0.376768947
vt 0.9729855 0.398532271
vt 0.803459466 0.2505443
vt 0.7645405 0.5080057
vt 0.7537304 0.654971242
vt 0.9734474 0.491287
vt 0.9874017 0.6723396
vt 0.980701864 0.3887744
vt 0.7798444 0.374295235
vt 0.8001081 0.376768947
vt 0.947589457 0.5283456
vt 0.9729855 0.398532271
vt 0.746734738 0.516867638
vt 0.9465033 1.00839949
vt 0.8756693 0.203408957
vt 0.9720563 0.6302353
vt 0.654942453 0.5648029
vt 0.691261232 0.754793048
vt 0.8013247 0.737269044
vt 0.9865384 0.833267
vt 0.9751976 0.6547185
vt 0.8752105 0.610301852
vt 0.996279 0.583236456
vt 0.9020509 0.4717437
vt 0.954386055 0.4439777
vt 0.9064143 0.146624565
vt 0.655631 1.0027597
vt 0.8253592 0.565917134
vt 0.91916424 0.8549124
vt 0.6858024 0.497699022
vt 0.6842857 0.6451542
vt 0.883945167 0.651734352
vt 0.604460835 0.470493555
vt 0.604649961 0.5038116
vt 0.5608122 0.5029451
vt 0.5843121 0.517564535
vt 0.973141253 0.248866558
vt 0.803459466 0.2505443
vt 0.9729855 0.398532271
vt 0.8762695 0.025162816
vt 0.971181 0.978998244
vt 0.983183265 0.745794237
vt 0.7071068 0.686955035
vt 0.9729321 0.9375067
vt 0.9920717 0.884193838
vt 0.988468051 0.814151764
vt 0.7547122 0.890641
vt 0.7474118 0.810578763
vt 0.76097393 0.8943543
vt 0.751423061 0.813633
vt 0.9930098 0.940089
vt 0.7954327 0.741230369
vt 0.9885354 0.8433256
vt 0.976414144 0.8521508
vt 0.76097244 0.837495267
vt 0.6803858 0.990699232
vt 0.9508189 0.99996537
vt 0.6409841 0.6880585
vt 0.979992867 0.7222026
vt 0.873132467 0.903972
vt 0.9059918 0.9906056
vt 0.65987134 0.9008476
vt 0.687300861 0.9846831
vt 0.753377438 0.981804132
vt 0.9917967 0.9803419
vt 0.974861443 0.995476544
vt 0.9405401 0.9879185
vt 0.973550737 0.248777866
vt 0.9672954 0.382911325
vt 0.803836167 0.247331381
vt 0.8010199 0.378349423
vt 0.803836167 0.247331381
vt 0.9672954 0.382911325
vt 0.876206934 0.0237051249
vt 0.973550737 0.248777866
vt 0.803836167 0.247331381
vt 0.559365153 0.502312541
vt 0.5829703 0.517269
vt 0.604105 0.470493555
vt 0.60391587 0.5038116
vt 0.945666134 0.528169155
vt 0.7451422 0.5149946
vt 0.973017454 0.6570294
vt 0.7567991 0.6577494
vt 0.7629983 0.4893347
vt 0.786574066 0.381061435
vt 0.985377133 0.267356157
vt 0.7716613 0.267471075
vt 0.8010199 0.378349423
vt 0.9672954 0.382911325
vt 0.9675904 1.0046041
vt 0.8808481 0.0249067545
vt 0.7715208 0.3827883
vt 0.7734216 0.685685158
vt 0.790665567 0.6066603
vt 0.784433067 0.8534965
vt 0.9626619 0.61100024
vt 0.992438138 0.6282466
vt 0.9898178 0.800557554
vt 0.985406458 1.00129712
vt 0.705120862 0.990669
vt 0.9697668 0.870429
vt 0.648736358 0.877798438
vt 0.7917524 0.981442451
vt 0.9572479 0.419897079
vt 0.956195354 0.9872352
vt 0.9879209 0.150461912
vt 0.7804209 0.156535983
vt 0.8756631 0.0260121822
vt 0.9737665 0.978877246
vt 0.82213527 0.2360307
vt 0.770899 0.402081847
vt 0.9334069 0.256668925
vt 0.8887643 0.0470932722
vn 0.2651558 -0.0315606073 -0.96368897
vn 0.392753124 0.06471212 -0.917364359
vn 0.3285734 -0.0483520254 -0.94324
vn 0.465267658 0.0933414549 -0.8802348
vn 0.264442354 -0.138843641 -0.9543546
vn 0.984965146 -0.046608068 0.166347131
vn 0.984083056 -0.115886316 0.134725049
vn 0.9824123 -0.10792847 0.15237312
vn 0.974875152 0.188456014 0.118755654
vn 0.9866506 0.0159734357 0.162066355
vn 0.987435639 -0.09884986 0.123286463
vn 0.7904658 0.07604921 0.6077668
vn 0.8005083 0.0227468684 0.598889649
vn 0.79537946 0.0537915751 0.6037201
vn 0.8164934 0.0402559973 0.575949669
vn 0.807364345 0.16368559 0.566895
vn 0.601988137 0.08615103 0.793844044
vn 0.549451053 0.18324101 0.815184832
vn 0.615671039 0.1254657 0.7779509
vn 0.6019307 0.471409142 -0.644556344
vn 0.6019307 0.471409142 -0.644556344
vn 0.6019307 0.471409142 -0.644556344
vn 0.441641152 -0.1551039 -0.8836831
vn 0.397107422 0.09962491 -0.912349
vn -0.01386288 -0.06696974 -0.9976587
vn -0.0131026274 0.14943397 -0.988684952
vn -0.0150590185 -0.112682186 -0.993517
vn 0.479804963 0.0344413742 -0.876698852
vn 0.7081753 -0.230654031 -0.6672979
vn 0.729675651 -0.1107912 -0.6747583
vn 0.6625049 -0.260591865 -0.7022672
vn 0.7554665 -0.100196607 -0.6474804
vn 0.8279021 0.0710481554 0.556354463
vn 0.749646664 -0.107792035 0.6530013
vn 0.8780856 -0.0566683076 0.475136071
vn 0.846040547 -0.08715819 0.5259457
vn 0.9256753 -0.0300143957 0.3771266
vn 0.8006087 0.217596471 -0.5582808
vn 0.768312752 0.2666712 -0.581877947
vn 0.723118365 0.0589811467 -0.688201368
vn -0.8591002 -0.0316498131 0.510827839
vn -0.877624154 0.00647550263 0.479305536
vn -0.887634635 -0.07009319 0.4551831
vn -0.9174333 -0.0747303 0.39080894
vn -0.886313558 -0.175484732 0.4285478
vn -0.08343999 0.620756567 0.7795506
vn -0.22366485 0.392888933 0.891971052
vn -0.22366485 0.392888933 0.891971052
vn 0.321813852 0.108660653 0.940547049
vn 0.1809672 0.393848717 0.901184857
vn 0.305428028 0.258795768 0.9163725
vn 0.5038475 0.431240559 0.7484446
vn 0.5077457 0.53008455 0.6791205
vn 0.5077457 0.53008455 0.6791205
vn 0.5042354 0.621194 0.599887252
vn 0.167085558 0.19598797 -0.966266632
vn 0.167085558 0.19598797 -0.966266632
vn 0.167150259 0.1958093 -0.966291666
vn 0.167020857 0.196166649 -0.966241539
vn 0.101662859 0.5243724 0.845398247
vn 0.4020826 0.293654352 0.867235065
vn 0.520281 0.231393918 0.822049
vn 0.824373543 0.465887547 -0.3214919
vn -0.0121177286 0.89443624 -0.447031349
vn -0.0107458783 0.466693282 -0.884354
vn 0.3666973 0.727014065 -0.5805028
vn 0.359449327 0.410379052 -0.8380842
vn -0.382512748 0.7418454 -0.5507716
vn -0.379461944 0.411607474 -0.82860595
vn -0.8310424 0.477837652 -0.284674823
vn -0.8129235 0.2260827 -0.53669554
vn -0.776622832 0.27213195 -0.568155944
vn 0.9073097 0.417024523 0.0536616854
vn 0.9660726 0.2399326 0.0955822542
vn 0.884525 0.455323756 0.101467863
vn 0.9077934 0.258034617 0.3306499
vn 0.9077934 0.258034617 0.3306499
vn 0.8475548 0.0370091125 0.5294158
vn 0.300523669 0.951572359 0.0647736043
vn 0.325511456 0.9387418 0.113163248
vn 0.4948519 0.8678108 0.0450122021
vn 0.369119 0.9071875 0.201895952
vn 0.363963962 0.8878845 -0.2814094
vn -0.0228889175 0.9716659 -0.235247314
vn 0.9296231 0.00427958742 0.368486851
vn 0.8464183 0.498183429 -0.188120469
vn -0.425999433 0.3269503 -0.8435804
vn -0.425999433 0.3269503 -0.8435804
vn -0.425999433 0.3269503 -0.8435804
vn -0.625379264 0.433313936 -0.648952961
vn -0.625379264 0.433313936 -0.648952961
vn -0.625379264 0.433313936 -0.648952961
vn -0.530173242 0.0582862124 -0.8458836
vn -0.530173242 0.0582862124 -0.8458836
vn -0.530173242 0.0582862124 -0.8458836
vn -0.4266197 0.5437088 0.722756147
vn -0.5159771 0.474226981 0.7133557
vn -0.5159771 0.474226981 0.7133557
vn -0.598678 0.398627281 0.6947524
vn -0.742310047 -0.10558819 -0.66168505
vn -0.7675366 -0.09481339 -0.6339542
vn -0.7347924 0.06413402 -0.675253153
vn -0.421018779 0.102264188 -0.9012687
vn -0.467609316 -0.151538208 -0.870848835
vn -0.466472775 0.08345401 -0.880589962
vn -0.408364356 0.140202746 -0.9019877
vn -0.356971234 0.0553492941 -0.932474256
vn -0.7215285 -0.225600332 -0.6546
vn -0.6766994 -0.255857825 -0.6903728
vn -0.8948333 0.0315667354 0.4452828
vn -0.740808666 -0.102135062 0.6639058
vn -0.8380273 -0.08098723 0.5395844
vn -0.9190201 -0.0234941486 0.393509954
vn -0.96997577 0.202637583 0.134480685
vn -0.8796631 0.4667181 0.09147057
vn -0.9239918 0.298419178 0.239133939
vn -0.7986572 0.150551841 0.5826499
vn -0.8685307 0.334007561 0.366187721
vn -0.401519924 0.9121197 0.0825791955
vn -0.40551275 0.9107324 0.07826875
vn -0.40551275 0.9107324 0.07826875
vn -0.409490764 0.909311831 0.07395545
vn -0.3879622 0.891530335 -0.233792737
vn -0.983479 0.0229371134 0.1795634
vn -0.8489606 0.512916863 -0.127209842
vn -0.353494346 -0.105391636 -0.929480731
vn -0.354298443 -0.116217136 -0.9278826
vn -0.353690475 -0.146435678 -0.9238289
vn -0.04291752 0.9713389 0.233792111
vn -0.982259 -0.109265 0.1524084
vn -0.9821602 -0.0396549739 0.183817521
vn -0.9802414 -0.101210535 0.169950187
vn -0.985639453 -0.0925355 0.141251817
usemtl 0000255080_part_0_material_0
f 1/1/1 3/3/3 2/2/2
f 4/4/4 2/2/2 3/3/3
f 1/1/1 5/5/5 3/3/3
f 6/6/6 8/8/8 7/7/7
f 9/9/9 10/10/10 6/6/6
f 8/8/8 11/11/11 7/7/7
f 6/6/6 10/10/10 8/8/8
f 12/12/12 14/14/14 13/13/13
f 15/15/15 13/13/13 14/14/14
f 14/14/14 12/12/12 16/16/16
f 17/17/17 19/19/19 18/18/18
f 20/20/20 22/22/22 21/21/21
f 23/23/23 25/25/25 24/24/24
f 26/26/26 24/24/24 25/25/25
f 25/25/25 23/23/23 27/27/27
f 28/28/28 27/27/27 23/23/23
f 28/28/28 2/2/2 4/4/4
f 29/29/29 31/31/31 30/30/30
f 29/29/29 30/30/30 32/32/32
f 28/28/28 4/4/4 27/27/27
f 13/13/13 15/15/15 33/33/33
f 34/34/34 36/36/36 35/35/35
f 37/37/37 35/35/35 36/36/36
f 38/38/38 40/40/40 39/39/39
f 41/41/41 43/43/43 42/42/42
f 44/44/44 42/42/42 43/43/43
f 45/45/45 44/44/44 43/43/43
f 46/46/46 48/48/48 47/47/47
f 49/49/49 51/51/51 50/50/50
f 52/52/52 54/54/54 53/53/53
f 55/55/55 53/53/53 54/54/54
f 56/56/56 58/58/58 57/57/57
f 56/56/56 57/57/57 59/59/59
f 46/46/46 50/50/50 60/60/60
f 51/51/51 60/60/60 50/50/50
f 61/61/61 18/18/18 62/62/62
f 19/19/19 62/62/62 18/18/18
f 63/63/63 38/38/38 39/39/39
f 64/64/64 66/66/66 65/65/65
f 67/67/67 65/65/65 66/66/66
f 64/64/64 65/65/65 68/68/68
f 69/69/69 68/68/68 65/65/65
f 70/70/70 72/72/72 71/71/71
f 73/73/73 74/74/74 9/9/9
f 67/67/67 24/24/24 65/65/65
f 26/26/26 65/65/65 24/24/24
f 75/75/75 77/77/77 76/76/76
f 78/78/78 76/76/76 77/77/77
f 79/79/79 81/81/81 80/80/80
f 82/82/82 80/80/80 81/81/81
f 66/66/66 64/64/64 83/83/83
f 84/84/84 83/83/83 64/64/64
f 9/9/9 74/74/74 10/10/10
f 85/85/85 35/35/35 37/37/37
f 63/63/63 86/86/86 38/38/38
f 87/87/87 89/89/89 88/88/88
f 90/90/90 92/92/92 91/91/91
f 93/93/93 95/95/95 94/94/94
f 38/38/38 32/32/32 30/30/30
f 40/40/40 38/38/38 30/30/30
f 96/96/96 98/98/98 97/97/97
f 99/99/99 97/97/97 98/98/98
f 100/100/100 101/101/101 71/71/71
f 100/100/100 71/71/71 102/102/102
f 26/26/26 25/25/25 103/103/103
f 104/104/104 103/103/103 25/25/25
f 27/27/27 104/104/104 25/25/25
f 104/104/104 27/27/27 105/105/105
f 106/106/106 107/107/107 105/105/105
f 100/100/100 109/109/109 108/108/108
f 101/101/101 100/100/100 108/108/108
f 27/27/27 106/106/106 105/105/105
f 110/110/110 41/41/41 42/42/42
f 41/41/41 112/112/112 111/111/111
f 112/112/112 41/41/41 113/113/113
f 72/72/72 102/102/102 71/71/71
f 114/114/114 116/116/116 115/115/115
f 26/26/26 103/103/103 65/65/65
f 69/69/69 65/65/65 103/103/103
f 117/117/117 118/118/118 116/116/116
f 115/115/115 116/116/116 118/118/118
f 119/119/119 121/121/121 120/120/120
f 122/122/122 120/120/120 121/121/121
f 68/68/68 123/123/123 64/64/64
f 84/84/84 64/64/64 123/123/123
f 124/124/124 116/116/116 114/114/114
f 113/113/113 41/41/41 110/110/110
f 71/71/71 125/125/125 70/70/70
f 106/106/106 126/126/126 107/107/107
f 127/127/127 107/107/107 126/126/126
f 126/126/126 128/128/128 127/127/127
f 129/129/129 79/79/79 80/80/80
f 130/130/130 132/132/132 131/131/131
f 131/131/131 124/124/124 114/114/114
f 130/130/130 133/133/133 132/132/132
f 132/132/132 124/124/124 131/131/131
