mtllib 0000510004.mtl
o 0000510004_part_0
v 0.3711574 -0.008742332 0.24380973
v 0.170752212 -0.009370685 0.26366955
v 0.162087128 -0.008708119 0.1852817
v 0.351447433 -0.00717818737 0.134358525
v 0.1492195 0.07275784 -0.0779187158
v 0.230122134 0.009637833 -0.136724144
v 0.156683728 -0.00698804855 -0.0882347152
v 0.226091728 0.0840040445 -0.144790113
v 0.237044111 0.193857074 -0.123850465
v 0.2958565 0.07551932 -0.08097316
v 0.136463732 0.189919591 -0.0680847
v 0.135505855 0.186906815 0.0128304437
v 0.157368481 0.100858331 0.0553666353
v 0.313299567 0.108815193 0.06377389
v 0.3263748 0.01694572 0.06666347
v 0.231253117 0.161254764 0.135173976
v 0.2622101 0.151532412 0.2478801
v 0.366451681 0.09357226 0.239742428
v 0.168289676 0.09100306 0.2639239
v 0.163511753 0.0142490864 0.0772567
v 0.2910396 0.185393929 -0.0129472166
v 0.162087128 -0.008708119 0.1852817
v 0.218465343 0.215295613 0.08532668
v 0.22509864 0.169028282 0.09208643
v 0.293431729 -0.005427599 -0.09667402
v 0.334971637 0.100218415 0.2899816
v 0.3512624 0.0461745262 0.319968641
v 0.19828932 0.0481257439 0.333749026
v 0.21088323 0.105244756 0.315179825
v 0.272589445 0.121983767 0.331232578
v 0.07993464 0.5048227 0.00415404141
v 0.171486184 0.515421331 -0.08951643
v 0.290310919 0.5096864 0.00465832651
v 0.211043254 0.484480321 0.115426756
v 0.111197293 0.4912123 0.08712087
v 0.156683728 -0.00698804855 -0.0882347152
v 0.230122134 0.009637833 -0.136724144
v 0.293431729 -0.005427599 -0.09667402
v 0.162168369 -0.007937312 0.0149293914
v 0.31873095 -0.005651474 0.00677490234
v 0.3263748 0.01694572 0.06666347
v 0.163511753 0.0142490864 0.0772567
v 0.351447433 -0.00717818737 0.134358525
v 0.31873095 -0.005651474 0.00677490234
v 0.162168369 -0.007937312 0.0149293914
v 0.278489321 0.04767096 0.362847984
v 0.282676458 -0.0103267431 0.3647146
v 0.202071354 -0.0102990866 0.333241165
v 0.3558347 -0.00937914848 0.320559859
v 0.170752212 -0.009370685 0.26366955
v 0.202071354 -0.0102990866 0.333241165
v 0.282676458 -0.0103267431 0.3647146
v 0.3558347 -0.00937914848 0.320559859
v 0.3711574 -0.008742332 0.24380973
v -0.381115019 -0.0118123293 0.163118
v -0.169795126 -0.0113925934 0.113322161
v -0.181708738 -0.0132209063 0.191263825
v -0.356874645 -0.00863874 0.0546153262
v -0.145866275 0.07401693 -0.147847056
v -0.153036326 -0.005545616 -0.159676611
v -0.224368542 0.011988163 -0.210912585
v -0.219875589 0.08645797 -0.2176714
v -0.231356412 0.196937919 -0.195221364
v -0.292244852 0.07717538 -0.156940579
v -0.13331911 0.1909498 -0.135267168
v -0.135901824 0.185509145 -0.0545819364
v -0.159493 0.100116134 -0.0146022961
v -0.315624356 0.10831809 -0.0125518255
v -0.3289703 0.0164468288 -0.0116060823
v -0.2365211 0.159474373 0.06298091
v -0.376064062 0.0905408859 0.160807431
v -0.272148281 0.148121357 0.1741445
v -0.1790819 0.08713138 0.193148047
v -0.166692585 0.01320076 0.005693063
v -0.2901585 0.185362518 -0.08720068
v -0.169795126 -0.0113925934 0.113322161
v -0.221887589 0.212003589 0.0149500072
v -0.228902876 0.1656146 0.0200107619
v -0.289312959 -0.003530264 -0.1737577
v -0.364302665 0.0418977737 0.240863919
v -0.346685559 0.09635019 0.212404788
v -0.223741814 0.100697637 0.242803454
v -0.212030545 0.043274045 0.261007547
v -0.286031753 0.117339253 0.256535083
v -0.166510612 0.5172723 -0.143190816
v -0.07937063 0.502059 -0.0460138954
v -0.289536744 0.5078463 -0.05489124
v -0.215486571 0.477327228 0.0581287444
v -0.114432946 0.484873533 0.0347411931
v -0.153036326 -0.005545616 -0.159676611
v -0.289312959 -0.003530264 -0.1737577
v -0.224368542 0.011988163 -0.210912585
v -0.162801519 -0.00804317 -0.0568553358
v -0.3289703 0.0164468288 -0.0116060823
v -0.318886161 -0.00525939465 -0.07146297
v -0.166692585 0.01320076 0.005693063
v -0.356874645 -0.00863874 0.0546153262
v -0.318886161 -0.00525939465 -0.07146297
v -0.162801519 -0.00804317 -0.0568553358
v -0.2933703 0.04257083 0.286743551
v -0.297733575 -0.0154383183 0.287551761
v -0.215891227 -0.015127182 0.259453863
v -0.368993551 -0.0136473179 0.240419209
v -0.181708738 -0.0132209063 0.191263825
v -0.215891227 -0.015127182 0.259453863
v -0.297733575 -0.0154383183 0.287551761
v -0.368993551 -0.0136473179 0.240419209
v -0.381115019 -0.0118123293 0.163118
v 0.07993464 0.5048227 0.00415404141
v 0.136463732 0.189919591 -0.0680847
v 0.171486184 0.515421331 -0.08951643
v 0.237044111 0.193857074 -0.123850465
v 0.2910396 0.185393929 -0.0129472166
v 0.218465343 0.215295613 0.08532668
v 0.290310919 0.5096864 0.00465832651
v 0.211043254 0.484480321 0.115426756
v 0.135505855 0.186906815 0.0128304437
v 0.111197293 0.4912123 0.08712087
v -0.166510612 0.5172723 -0.143190816
v -0.13331911 0.1909498 -0.135267168
v -0.07937063 0.502059 -0.0460138954
v -0.231356412 0.196937919 -0.195221364
v -0.289536744 0.5078463 -0.05489124
v -0.221887589 0.212003589 0.0149500072
v -0.2901585 0.185362518 -0.08720068
v -0.215486571 0.477327228 0.0581287444
v -0.135901824 0.185509145 -0.0545819364
v -0.114432946 0.484873533 0.0347411931
vt 0.0479010344 0.48194766
vt 0.2745325 0.475269258
vt 0.277880132 0.5812541
vt 0.0612707138 0.621712
vt 0.8558837 0.144129455
vt 0.974824369 0.0424422026
vt 0.878635 0.01803416
vt 0.9774957 0.1558578
vt 0.9776544 0.3189667
vt 0.8558837 0.144129455
vt 0.875198543 0.318519533
vt 0.7330622 0.3317753
vt 0.6578245 0.219679475
vt 0.6506134 0.222281754
vt 0.6505058 0.0580167174
vt 0.5537842 0.326968431
vt 0.331798226 0.327567935
vt 0.344101429 0.198346257
vt 0.344101429 0.198346257
vt 0.6471004 0.0567462444
vt 0.7484854 0.325751722
vt 0.525523663 0.0203133821
vt 0.5995502 0.409172237
vt 0.594439864 0.350125074
vt 0.88079077 0.01803416
vt 0.254072219 0.2046423
vt 0.219704509 0.105766356
vt 0.219704509 0.105766356
vt 0.254072219 0.2046423
vt 0.200020716 0.243010163
vt 0.8721023 0.835988045
vt 0.9792909 0.835988045
vt 0.738502741 0.835988045
vt 0.58022356 0.835988045
vt 0.7192208 0.835988045
vt 0.263022661 0.8725261
vt 0.176709324 0.9141986
vt 0.108760312 0.87141335
vt 0.264583766 0.772381067
vt 0.08807951 0.769444466
vt 0.08364466 0.713695765
vt 0.267419577 0.7143649
vt 0.5271279 0.01877278
vt 0.7268214 0.01803416
vt 0.72664386 0.01803416
vt 0.126638487 0.107029557
vt 0.1566639 0.353137553
vt 0.244757235 0.394732356
vt 0.07106385 0.397013783
vt 0.335080564 0.0189928412
vt 0.218523741 0.0187438726
vt 0.122661963 0.0184950233
vt 0.218523741 0.0187438726
vt 0.335080564 0.0189928412
vt 0.0479010344 0.48194766
vt 0.277880132 0.5812541
vt 0.2745325 0.475269258
vt 0.0612707138 0.621712
vt 0.8558837 0.144129455
vt 0.878635 0.01803416
vt 0.974824369 0.0424422026
vt 0.9774957 0.1558578
vt 0.9776544 0.3189667
vt 0.8558837 0.144129455
vt 0.875198543 0.318519533
vt 0.7330622 0.3317753
vt 0.6578245 0.219679475
vt 0.6506134 0.222281754
vt 0.6505058 0.0580167174
vt 0.5537842 0.326968431
vt 0.344101429 0.198346257
vt 0.331798226 0.327567935
vt 0.344101429 0.198346257
vt 0.6471004 0.0567462444
vt 0.7484854 0.325751722
vt 0.525523663 0.0203133821
vt 0.5995502 0.409172237
vt 0.594439864 0.350125074
vt 0.88079077 0.01803416
vt 0.219704509 0.105766356
vt 0.254072219 0.2046423
vt 0.254072219 0.2046423
vt 0.219704509 0.105766356
vt 0.200020716 0.243010163
vt 0.9792909 0.835988045
vt 0.8721023 0.835988045
vt 0.738502741 0.835988045
vt 0.58022356 0.835988045
vt 0.7192208 0.835988045
vt 0.263022661 0.8725261
vt 0.108760312 0.87141335
vt 0.176709324 0.9141986
vt 0.264583766 0.772381067
vt 0.08364466 0.713695765
vt 0.08807951 0.769444466
vt 0.267419577 0.7143649
vt 0.5271279 0.01877278
vt 0.7268214 0.01803416
vt 0.72664386 0.01803416
vt 0.126638487 0.107029557
vt 0.1566639 0.353137553
vt 0.244757235 0.394732356
vt 0.07106385 0.397013783
vt 0.335080564 0.0189928412
vt 0.218523741 0.0187438726
vt 0.122661963 0.0184950233
vt 0.218523741 0.0187438726
vt 0.335080564 0.0189928412
vt 0.8721023 0.835988045
vt 0.875198543 0.318519533
vt 0.9792909 0.835988045
vt 0.9776544 0.3189667
vt 0.7484854 0.325751722
vt 0.5995502 0.409172237
vt 0.738502741 0.835988045
vt 0.58022356 0.835988045
vt 0.7330622 0.3317753
vt 0.7192208 0.835988045
vt 0.9792909 0.835988045
vt 0.875198543 0.318519533
vt 0.8721023 0.835988045
vt 0.9776544 0.3189667
vt 0.738502741 0.835988045
vt 0.5995502 0.409172237
vt 0.7484854 0.325751722
vt 0.58022356 0.835988045
vt 0.7330622 0.3317753
vt 0.7192208 0.835988045
vn 0.761809766 -0.647729635 0.00960401352
vn -0.704178035 -0.686844647 0.179938167
vn -0.702975154 -0.7106368 -0.0286587141
vn 0.6843959 -0.665154457 -0.298616558
vn -0.9127398 -0.07282066 -0.401999
vn 0.0166106988 -0.4596461 -0.887946844
vn -0.666142046 -0.6264401 -0.404756159
vn 0.0108417962 0.009216153 -0.999898732
vn 0.2950381 0.170266613 -0.9401924
vn 0.8742469 0.113041572 -0.47213763
vn -0.8647423 -0.0446619056 -0.500226
vn -0.9225721 -0.121241562 0.366280258
vn -0.965725958 0.124006554 0.228025749
vn 0.8895214 0.454784125 -0.043852035
vn 0.7952751 -0.568932354 -0.209412143
vn -0.111761875 0.990272343 0.08288507
vn 0.0310935527 0.984537244 0.17239368
vn 0.8615433 0.505391538 0.0481931046
vn -0.8649921 0.430119663 0.258429378
vn -0.7416432 -0.669928 0.03408471
vn 0.977291048 0.21126458 0.0164158717
vn -0.702975154 -0.7106368 -0.0286587141
vn 0.13873288 -0.0384848043 0.989581764
vn -0.028599428 0.7350887 0.677367449
vn 0.6177039 -0.601295233 -0.5068391
vn 0.603732 0.6638291 0.441405326
vn 0.7545288 0.254383773 0.6049588
vn -0.660645545 0.1282764 0.7396571
vn -0.526026666 0.623488069 0.5784104
vn 0.118091419 0.7160584 0.6879788
vn -0.975032568 -0.08122957 -0.206671938
vn -0.110642 0.141181141 -0.9837816
vn 0.9883515 0.09252112 -0.120834894
vn 0.334171772 -0.0956333 0.9376479
vn -0.7120383 -0.164700434 0.68255055
vn -0.666142046 -0.6264401 -0.404756159
vn 0.0166106988 -0.4596461 -0.887946844
vn 0.6177039 -0.601295233 -0.5068391
vn -0.6201742 -0.7687742 0.156109527
vn 0.717452943 -0.696434 0.0155212712
vn 0.7952751 -0.568932354 -0.209412143
vn -0.7416432 -0.669928 0.03408471
vn 0.6843959 -0.665154457 -0.298616558
vn 0.717452943 -0.696434 0.0155212712
vn -0.6201742 -0.7687742 0.156109527
vn 0.09961663 0.225467175 0.9691445
vn 0.084881 -0.610691845 0.787306
vn -0.5137878 -0.6536126 0.5557091
vn 0.660899758 -0.598573148 0.4526828
vn -0.704178035 -0.686844647 0.179938167
vn -0.5137878 -0.6536126 0.5557091
vn 0.084881 -0.610691845 0.787306
vn 0.660899758 -0.598573148 0.4526828
vn 0.761809766 -0.647729635 0.00960401352
vn -0.762692153 -0.6459758 -0.031873513
vn 0.702304661 -0.711802244 -0.010282767
vn 0.6948868 -0.691173434 0.198523626
vn -0.672578156 -0.6589181 -0.3368466
vn 0.928408 -0.06815578 -0.365257829
vn 0.6812682 -0.6218347 -0.386258
vn 0.0194628984 -0.4461112 -0.8947659
vn 0.0307511725 0.0255051963 -0.9992016
vn -0.25131 0.199380353 -0.94714874
vn -0.8535569 0.122511074 -0.50639087
vn 0.8839557 -0.0302418452 -0.466591656
vn 0.9064582 -0.136571571 0.399602026
vn 0.9550008 0.120942771 0.270825177
vn -0.884162068 0.4612887 -0.0739605352
vn -0.7868953 -0.56379354 -0.25086382
vn 0.111509353 0.9899588 0.08687466
vn -0.8619084 0.5066657 0.02009412
vn -0.0364884324 0.9818866 0.185922846
vn 0.854272842 0.42408672 0.300613254
vn 0.7384074 -0.6721388 0.0546255633
vn -0.9766245 0.213508636 -0.024873931
vn 0.702304661 -0.711802244 -0.010282767
vn -0.184358388 -0.07804772 0.979755342
vn 0.003518319 0.747754633 0.6639658
vn -0.5971852 -0.5920746 -0.5411262
vn -0.778547764 0.247003317 0.5769339
vn -0.620367348 0.658514559 0.4260316
vn 0.5026544 0.613400936 0.6091616
vn 0.6295884 0.11548423 0.768298
vn -0.14529407 0.705843 0.6933075
vn 0.155765563 0.185402259 -0.9702387
vn 0.983335137 -0.07626157 -0.165033832
vn -0.9817716 0.101150282 -0.160913661
vn -0.376915634 -0.139914542 0.9156192
vn 0.67894727 -0.200456128 0.706291735
vn 0.6812682 -0.6218347 -0.386258
vn -0.5971852 -0.5920746 -0.5411262
vn 0.0194628984 -0.4461112 -0.8947659
vn 0.611800551 -0.7725313 0.169986978
vn -0.7868953 -0.56379354 -0.25086382
vn -0.718705535 -0.6948699 -0.0248640832
vn 0.7384074 -0.6721388 0.0546255633
vn -0.672578156 -0.6589181 -0.3368466
vn -0.718705535 -0.6948699 -0.0248640832
vn 0.611800551 -0.7725313 0.169986978
vn -0.139374346 0.211010188 0.9674965
vn -0.11857523 -0.622333765 0.773718655
vn 0.4891174 -0.6631761 0.5665347
vn -0.680181265 -0.6037718 0.415707946
vn 0.6948868 -0.691173434 0.198523626
vn 0.4891174 -0.6631761 0.5665347
vn -0.11857523 -0.622333765 0.773718655
vn -0.680181265 -0.6037718 0.415707946
vn -0.762692153 -0.6459758 -0.031873513
vn 0.975032568 0.08122957 0.206671938
vn 0.8318658 0.0833124742 0.5486878
vn 0.110642 -0.141181141 0.9837816
vn -0.3223228 -0.0531321019 0.94513756
vn -0.999224663 -0.00010781215 -0.0393705145
vn -0.190708518 0.169620842 -0.9668811
vn -0.9883515 -0.09252112 0.120834894
vn -0.334171772 0.0956333 -0.9376479
vn 0.9039358 0.216454431 -0.3688463
vn 0.7120383 0.164700434 -0.68255055
vn -0.155765563 -0.185402259 0.9702387
vn -0.85345304 0.0609602667 0.5175923
vn -0.983335137 0.07626157 0.165033832
vn 0.278371483 -0.0975823253 0.9555035
vn 0.9817716 -0.101150282 0.160913661
vn 0.235920012 0.213616744 -0.948003
vn 0.9999576 -0.00280646 0.008768315
vn 0.376915634 0.139914542 -0.9156192
vn -0.886301637 0.237660483 -0.39747563
vn -0.67894727 0.200456128 -0.706291735
usemtl 0000510004_part_0_material_0
f 1/1/1 2/2/2 3/3/3
f 3/3/3 4/4/4 1/1/1
f 5/5/5 6/6/6 7/7/7
f 6/6/6 5/5/5 8/8/8
f 9/9/9 10/10/10 8/8/8
f 11/11/11 8/8/8 5/5/5
f 8/8/8 11/11/11 9/9/9
f 11/11/11 5/5/5 12/12/12
f 13/13/13 12/12/12 5/5/5
f 14/14/14 15/15/15 10/10/10
f 16/16/16 17/17/17 18/18/18
f 18/18/18 14/14/14 16/16/16
f 19/19/19 17/17/17 16/16/16
f 16/16/16 13/13/13 19/19/19
f 5/5/5 20/20/20 13/13/13
f 21/21/21 14/14/14 10/10/10
f 19/19/19 13/13/13 22/22/22
f 23/23/23 24/24/24 21/21/21
f 24/24/24 12/12/12 13/13/13
f 6/6/6 10/10/10 25/25/25
f 10/10/10 6/6/6 8/8/8
f 18/18/18 26/26/26 27/27/27
f 19/19/19 28/28/28 29/29/29
f 19/19/19 29/29/29 17/17/17
f 17/17/17 30/30/30 26/26/26
f 11/11/11 31/31/31 32/32/32
f 32/32/32 9/9/9 11/11/11
f 23/23/23 21/21/21 33/33/33
f 33/33/33 34/34/34 23/23/23
f 33/33/33 21/21/21 9/9/9
f 9/9/9 32/32/32 33/33/33
f 31/31/31 11/11/11 12/12/12
f 12/12/12 35/35/35 31/31/31
f 35/35/35 12/12/12 23/23/23
f 23/23/23 34/34/34 35/35/35
f 36/36/36 37/37/37 38/38/38
f 39/39/39 40/40/40 41/41/41
f 41/41/41 42/42/42 39/39/39
f 42/42/42 41/41/41 4/4/4
f 4/4/4 3/3/3 42/42/42
f 14/14/14 43/43/43 15/15/15
f 44/44/44 25/25/25 10/10/10
f 5/5/5 45/45/45 20/20/20
f 26/26/26 30/30/30 46/46/46
f 46/46/46 27/27/27 26/26/26
f 26/26/26 18/18/18 17/17/17
f 30/30/30 29/29/29 28/28/28
f 28/28/28 46/46/46 30/30/30
f 29/29/29 30/30/30 17/17/17
f 47/47/47 48/48/48 2/2/2
f 49/49/49 47/47/47 2/2/2
f 1/1/1 49/49/49 2/2/2
f 50/50/50 51/51/51 28/28/28
f 28/28/28 19/19/19 50/50/50
f 51/51/51 52/52/52 46/46/46
f 46/46/46 28/28/28 51/51/51
f 46/46/46 52/52/52 53/53/53
f 53/53/53 27/27/27 46/46/46
f 27/27/27 53/53/53 54/54/54
f 54/54/54 18/18/18 27/27/27
f 38/38/38 40/40/40 39/39/39
f 39/39/39 36/36/36 38/38/38
f 10/10/10 15/15/15 44/44/44
f 5/5/5 7/7/7 45/45/45
f 9/9/9 21/21/21 10/10/10
f 13/13/13 16/16/16 24/24/24
f 24/24/24 16/16/16 14/14/14
f 24/24/24 14/14/14 21/21/21
f 24/24/24 23/23/23 12/12/12
f 18/18/18 54/54/54 43/43/43
f 43/43/43 14/14/14 18/18/18
f 13/13/13 20/20/20 22/22/22
f 22/22/22 50/50/50 19/19/19
f 55/55/55 56/56/56 57/57/57
f 56/56/56 55/55/55 58/58/58
f 59/59/59 60/60/60 61/61/61
f 61/61/61 62/62/62 59/59/59
f 63/63/63 62/62/62 64/64/64
f 65/65/65 59/59/59 62/62/62
f 62/62/62 63/63/63 65/65/65
f 65/65/65 66/66/66 59/59/59
f 67/67/67 59/59/59 66/66/66
f 68/68/68 64/64/64 69/69/69
f 70/70/70 71/71/71 72/72/72
f 71/71/71 70/70/70 68/68/68
f 73/73/73 70/70/70 72/72/72
f 70/70/70 73/73/73 67/67/67
f 59/59/59 67/67/67 74/74/74
f 75/75/75 64/64/64 68/68/68
f 73/73/73 76/76/76 67/67/67
f 77/77/77 75/75/75 78/78/78
f 78/78/78 67/67/67 66/66/66
f 61/61/61 79/79/79 64/64/64
f 64/64/64 62/62/62 61/61/61
f 71/71/71 80/80/80 81/81/81
f 73/73/73 82/82/82 83/83/83
f 73/73/73 72/72/72 82/82/82
f 72/72/72 81/81/81 84/84/84
f 65/65/65 85/85/85 86/86/86
f 85/85/85 65/65/65 63/63/63
f 77/77/77 87/87/87 75/75/75
f 87/87/87 77/77/77 88/88/88
f 87/87/87 63/63/63 75/75/75
f 63/63/63 87/87/87 85/85/85
f 86/86/86 66/66/66 65/65/65
f 66/66/66 86/86/86 89/89/89
f 89/89/89 77/77/77 66/66/66
f 77/77/77 89/89/89 88/88/88
f 90/90/90 91/91/91 92/92/92
f 93/93/93 94/94/94 95/95/95
f 94/94/94 93/93/93 96/96/96
f 96/96/96 58/58/58 94/94/94
f 58/58/58 96/96/96 56/56/56
f 68/68/68 69/69/69 97/97/97
f 98/98/98 64/64/64 79/79/79
f 59/59/59 74/74/74 99/99/99
f 81/81/81 100/100/100 84/84/84
f 100/100/100 81/81/81 80/80/80
f 81/81/81 72/72/72 71/71/71
f 84/84/84 83/83/83 82/82/82
f 83/83/83 84/84/84 100/100/100
f 82/82/82 72/72/72 84/84/84
f 101/101/101 57/57/57 102/102/102
f 103/103/103 57/57/57 101/101/101
f 55/55/55 57/57/57 103/103/103
f 104/104/104 83/83/83 105/105/105
f 83/83/83 104/104/104 73/73/73
f 105/105/105 100/100/100 106/106/106
f 100/100/100 105/105/105 83/83/83
f 100/100/100 107/107/107 106/106/106
f 107/107/107 100/100/100 80/80/80
f 80/80/80 108/108/108 107/107/107
f 108/108/108 80/80/80 71/71/71
f 91/91/91 93/93/93 95/95/95
f 93/93/93 91/91/91 90/90/90
f 64/64/64 98/98/98 69/69/69
f 59/59/59 99/99/99 60/60/60
f 63/63/63 64/64/64 75/75/75
f 67/67/67 78/78/78 70/70/70
f 78/78/78 68/68/68 70/70/70
f 78/78/78 75/75/75 68/68/68
f 78/78/78 66/66/66 77/77/77
f 71/71/71 97/97/97 108/108/108
f 97/97/97 71/71/71 68/68/68
f 67/67/67 76/76/76 74/74/74
f 76/76/76 73/73/73 104/104/104
f 109/109/109 110/110/110 111/111/111
f 112/112/112 111/111/111 110/110/110
f 113/113/113 114/114/114 115/115/115
f 116/116/116 115/115/115 114/114/114
f 113/113/113 115/115/115 112/112/112
f 111/111/111 112/112/112 115/115/115
f 110/110/110 109/109/109 117/117/117
f 118/118/118 117/117/117 109/109/109
f 117/117/117 118/118/118 114/114/114
f 116/116/116 114/114/114 118/118/118
f 119/119/119 120/120/120 121/121/121
f 120/120/120 119/119/119 122/122/122
f 123/123/123 124/124/124 125/125/125
f 124/124/124 123/123/123 126/126/126
f 122/122/122 123/123/123 125/125/125
f 123/123/123 122/122/122 119/119/119
f 127/127/127 121/121/121 120/120/120
f 121/121/121 127/127/127 128/128/128
f 124/124/124 128/128/128 127/127/127
f 128/128/128 124/124/124 126/126/126
