mtllib 0000680001.mtl
o 0000680001_part_0
v 0.0282890033 2.4171927 0.1701355
v 0.0253161211 2.431986 0.0612678863
v -0.08813212 2.453892 0.04752706
v -0.05701087 2.43060756 0.140946627
v -0.104550771 2.21072364 0.2762137
v 0.121123724 2.200014 0.2953148
v 0.154301733 2.19877934 0.136829183
v 0.008188281 2.19509768 0.193966046
v -0.11915651 2.20545816 0.139481977
v 0.114048876 2.3264327 -0.321853936
v -0.144137755 2.33221817 -0.253472477
v -0.1518081 2.27422476 -0.138311908
v 0.01205292 2.27105236 -0.220678717
v 0.158002436 2.253851 -0.150417417
v 0.2664353 2.28510475 -0.104299858
v 0.183576643 2.21737838 -0.00264270976
v -0.370318353 2.31493139 -0.0599040873
v -0.340944469 2.26624966 0.09639418
v -0.167054847 2.237988 0.009122705
v 0.273481071 2.26115751 0.263230324
v 0.2774749 2.23811316 0.105383486
v -0.282919616 2.2602427 0.2106783
v -0.3184834 2.35974717 -0.1749935
v 0.239821613 2.37703562 -0.299608946
v 0.111864135 2.41818237 0.1353672
v 0.137892 2.43743467 0.0399136245
v 0.0217616782 2.5065465 -0.07434894
v -0.0617863648 2.50542521 -0.0394726731
v 0.107034549 2.49326253 -0.04526813
v -0.11915651 2.20545816 0.139481977
v 0.008188281 2.19509768 0.193966046
v 0.0282890033 2.4171927 0.1701355
v -0.05701087 2.43060756 0.140946627
v 0.154301733 2.19877934 0.136829183
v 0.111864135 2.41818237 0.1353672
v 0.183576643 2.21737838 -0.00264270976
v 0.137892 2.43743467 0.0399136245
v 0.158002436 2.253851 -0.150417417
v 0.107034549 2.49326253 -0.04526813
v 0.01205292 2.27105236 -0.220678717
v 0.0217616782 2.5065465 -0.07434894
v -0.1518081 2.27422476 -0.138311908
v -0.0617863648 2.50542521 -0.0394726731
v -0.167054847 2.237988 0.009122705
v -0.08813212 2.453892 0.04752706
v 0.37658748 2.34824681 0.100292265
v 0.366511464 2.39100027 -0.08991195
v 0.336885124 2.333361 0.2566985
v 0.3035471 2.44751382 -0.209479317
v 0.199864626 2.16038132 0.0117972009
v 0.158002436 2.253851 -0.1504174
v 0.161119565 2.22699523 0.04363085
v 0.188992545 2.070284 -0.0407352746
v 0.181974888 2.05923772 -0.17022796
v 0.1908815 2.1795516 -0.158604965
v 0.01097518 2.0663414 -0.244788915
v 0.0110980123 2.1909802 -0.2502175
v 0.0838358849 1.881134 -0.07816416
v 0.018029606 1.90731192 -0.124342442
v 0.08257105 1.88220787 0.00314967614
v 0.1751096 2.06466246 0.000239258632
v 0.169309467 2.15081882 0.08055514
v 0.0110980123 2.1909802 -0.2502175
v 0.01097518 2.0663414 -0.244788915
v -0.1592013 2.05782223 -0.1868286
v -0.170658052 2.18794537 -0.179421142
v -0.127384245 1.952107 -0.0160807911
v -0.155942917 2.07102227 -0.03158609
v -0.163971648 2.067305 -0.07447004
v -0.0529448949 1.88419533 0.00875518
v -0.0481945835 1.87647641 -0.09130843
v -0.129513428 2.1514585 0.08848122
v -0.180642545 2.16101241 -0.0531238355
v 0.135534286 2.22177029 0.109240174
v 0.018029606 1.90731192 -0.124342442
v 0.160787433 1.95149 -0.0237243511
v -0.139931574 2.065337 0.008595507
v 0.06724907 2.212197 0.160511255
v 0.0287496056 2.20867515 0.131668866
v -0.0173033532 2.193122 0.178889811
v 0.0297767352 2.17946339 0.189357683
v -0.0343883671 2.11073565 0.219636127
v -0.06550017 2.183532 0.15280512
v -0.00355789578 2.19368577 0.173562452
v -0.0619312748 2.21451521 0.138180137
v 0.0234666113 2.22494245 0.147882059
v -0.0741883442 2.14085412 0.176405162
v -0.0356638059 2.14934039 0.1981818
v -0.07531502 2.034768 0.192529768
v -0.153648943 2.25379586 -0.0331211165
v -0.09396183 2.22226167 0.1153274
v -0.1518081 2.27422476 -0.138311923
v 0.0120529216 2.27105236 -0.220678717
v 0.0120529216 2.27105236 -0.220678717
v -0.1006889 2.44004035 -0.268033445
v -0.07417534 2.33158517 -0.149818
v -0.114014968 2.29878855 -0.155015364
v -0.137511134 2.42043352 -0.292890042
v -0.1626987 2.31289959 -0.150791675
v -0.178652033 2.42358422 -0.268890917
v -0.142207816 2.2930944 -0.027907528
v -0.111958206 2.27565145 -0.0100327395
v -0.09034414 2.30346537 -0.0273494758
v -0.262102634 2.693578 -0.3589022
v -0.2748259 2.71322536 -0.229122519
v -0.216387287 2.78307033 -0.23925972
v -0.2105744 2.75509143 -0.3845412
v -0.137167215 2.74238586 -0.226809174
v -0.140865535 2.71925974 -0.3568648
v -0.143026248 2.618576 -0.0609698556
v -0.192712024 2.65923977 -0.05603702
v -0.223671079 2.60235834 -0.06254141
v -0.09087715 2.55902386 -0.200303942
v -0.107485019 2.58767819 -0.357588679
v -0.113302775 2.49261284 -0.0285852849
v -0.251177341 2.52506733 -0.20299767
v -0.20487088 2.47419882 -0.0303696953
v -0.243262738 2.548641 -0.364431381
v -0.159167066 2.48350024 -0.00715651736
v -0.17433472 2.56313157 -0.385595471
v -0.139101014 2.68255067 -0.40306583
v -0.1354028 2.705677 -0.273010045
v -0.0533915274 2.609899 -0.2659104
v -0.0975036845 2.63214135 -0.42351076
v -0.121445104 2.586486 -0.106943443
v -0.08184053 2.54583645 -0.09558697
v -0.247202262 2.65735459 -0.404443055
v -0.266075253 2.59284616 -0.425581843
v -0.296513915 2.55322313 -0.268836975
v -0.259564549 2.67673588 -0.274571538
v -0.248359948 2.50645947 -0.08622725
v -0.227651611 2.56173134 -0.108298853
v -0.118258767 2.60645866 -0.3827224
v -0.114560463 2.629585 -0.252666533
v -0.05598174 2.52834415 -0.245835781
v -0.08762709 2.55349231 -0.403293043
v -0.100602835 2.51039457 -0.08659986
v -0.0718698651 2.46664858 -0.06396063
v -0.237536669 2.57864952 -0.38409102
v -0.2465169 2.51644826 -0.405116379
v -0.26342988 2.4799788 -0.248216242
v -0.249898955 2.59803152 -0.254219532
v -0.228801683 2.430061 -0.06576164
v -0.217986122 2.48302746 -0.08794679
v -0.1191389 2.683775 -0.297009736
v -0.06425573 2.640694 -0.322996974
v -0.119628593 2.62708616 -0.416655272
v -0.15495187 2.717904 -0.343010277
v -0.221624762 2.6271708 -0.426568776
v -0.224681288 2.666063 -0.382187068
v -0.166778773 2.72319412 -0.357926667
v -0.1625795 2.6966207 -0.4237144
v -0.255339056 2.63844872 -0.409443468
v -0.237135932 2.7298336 -0.346668363
v -0.29141432 2.596982 -0.319000125
v -0.264462233 2.644128 -0.294673234
v -0.106638819 2.54902148 -0.384061337
v -0.102940604 2.57214761 -0.254005343
v -0.05939941 2.467401 -0.247347116
v -0.07600719 2.49605536 -0.4046319
v -0.088982895 2.45295715 -0.08793867
v -0.0602499433 2.40921187 -0.0652996153
v -0.226407021 2.52109814 -0.385435462
v -0.2353873 2.45889688 -0.406460941
v -0.240038291 2.42528582 -0.249420017
v -0.238769472 2.54048014 -0.255564
v -0.21767202 2.37250948 -0.06710601
v -0.2068565 2.4254756 -0.08929123
v -0.09259342 2.59338617 -0.303503782
v -0.0223114528 2.53821778 -0.336782455
v -0.09322046 2.520792 -0.4567189
v -0.132937312 2.639223 -0.379558235
v -0.223834351 2.520901 -0.469413966
v -0.227748439 2.570705 -0.412579626
v -0.1289916 2.640883 -0.3841647
v -0.1236141 2.60685349 -0.468410939
v -0.242399544 2.53235984 -0.4501359
v -0.219089225 2.64938545 -0.369747728
v -0.2885966 2.47925782 -0.334316373
v -0.2540825 2.53963232 -0.303164035
v 0.04978327 2.40885782 -0.261392981
v 0.07379421 2.301682 -0.1670923
v 0.0319106057 2.27313375 -0.168458834
v 0.0110629853 2.3928175 -0.27858603
v -0.0158734918 2.29085231 -0.163660616
v -0.0291877259 2.39932013 -0.2583707
v 0.00728120143 2.270205 -0.0683508962
v 0.0371095128 2.250822 -0.0551211052
v 0.0597822927 2.27599072 -0.07035245
v -0.100145273 2.66800261 -0.333663732
v -0.107776381 2.688394 -0.232924223
v -0.04565264 2.751325 -0.245424658
v -0.04588448 2.723387 -0.357662648
v 0.03169201 2.705337 -0.237642854
v 0.0226859 2.68292451 -0.337819546
v 0.0239023827 2.58603382 -0.104524195
v -0.0233568735 2.62960243 -0.09999189
v -0.0577602275 2.57694769 -0.101955965
v 0.0684277639 2.523648 -0.2129968
v 0.0486038737 2.55248833 -0.335484236
v 0.04749655 2.46142244 -0.07649198
v -0.09397982 2.50391817 -0.207501978
v -0.0452272557 2.451105 -0.0735757947
v -0.0896816552 2.52579641 -0.334042817
v 0.00174524682 2.45640945 -0.05768684
v -0.020539321 2.53412557 -0.353749841
v 0.0209509637 2.64705968 -0.372610629
v 0.0299570654 2.66947222 -0.2724339
v 0.10680645 2.5697825 -0.2671442
v 0.05908781 2.59466958 -0.388555974
v 0.0422652438 2.55301714 -0.140090331
v 0.07993816 2.51032925 -0.131555557
v -0.08868813 2.631527 -0.3684894
v -0.111879833 2.57044363 -0.382069945
v -0.139770046 2.53483987 -0.257742643
v -0.09597053 2.65163016 -0.267684668
v -0.08862947 2.48587847 -0.116266444
v -0.06545222 2.53775644 -0.136043236
v 0.0381164066 2.57154727 -0.3551872
v 0.0471226759 2.59395957 -0.255010337
v 0.100206763 2.490902 -0.248804361
v 0.06513187 2.51758051 -0.3707036
v 0.0594307669 2.47750521 -0.122666806
v 0.08639638 2.432734 -0.104823396
v -0.0828543156 2.554401 -0.3505224
v -0.09601286 2.49473977 -0.3644897
v -0.110185385 2.4610815 -0.240691379
v -0.09013669 2.57450485 -0.249717534
v -0.07276261 2.41017532 -0.0986862
v -0.05961835 2.46063137 -0.1180761
v 0.0442521833 2.64682651 -0.291036665
v 0.09592821 2.60043931 -0.312063962
v 0.0368732028 2.591604 -0.382169038
v 0.008939285 2.68280053 -0.326438159
v -0.0654858053 2.60008049 -0.385745585
v -0.06497597 2.63816643 -0.352386475
v -0.003053056 2.68887782 -0.337722331
v -0.00237838156 2.66260576 -0.3881613
v -0.09805568 2.61384225 -0.371435523
v -0.07273161 2.70115 -0.3263382
v -0.133726835 2.57677364 -0.298346967
v -0.10333766 2.62035084 -0.282055378
v 0.04644551 2.51485157 -0.354843378
v 0.05545173 2.53726387 -0.254666358
v 0.09328505 2.43204427 -0.247872233
v 0.073461 2.46088433 -0.370359629
v 0.06775984 2.420809 -0.122322753
v 0.0947255343 2.37603831 -0.104479462
v -0.07502235 2.49763465 -0.350159228
v -0.08818083 2.4379735 -0.3641266
v -0.08991735 2.40607738 -0.240807757
v -0.0823047757 2.51773882 -0.249354392
v -0.0649306 2.35340881 -0.09832296
v -0.0517863743 2.40386486 -0.1177129
v 0.0654892251 2.55691385 -0.294239372
v 0.13166444 2.49751115 -0.321166366
v 0.0560399964 2.486197 -0.410941035
v 0.0253837239 2.60455847 -0.353192
v -0.07503842 2.49705243 -0.4155213
v -0.07438547 2.54582357 -0.372802228
v 0.0292845163 2.60583353 -0.356985241
v 0.0301484633 2.57219 -0.421576351
v -0.09237336 2.50974417 -0.400157481
v -0.05994412 2.62154841 -0.342407018
v -0.138053015 2.462275 -0.3065621
v -0.099137336 2.51807833 -0.285699517
v -0.1667124 2.39822245 -0.2405754
v -0.121471152 2.3362813 -0.130636439
v -0.153608024 2.29933763 -0.130413741
v -0.198451325 2.37005568 -0.258669764
v -0.202384382 2.296395 -0.125138968
v -0.237973228 2.36309457 -0.235733762
v -0.178512648 2.30040455 -0.0176861621
v -0.146525592 2.297842 -0.00243257731
v -0.1310059 2.323335 -0.0208730586
v -0.365736753 2.534009 -0.330503583
v -0.3803871 2.559047 -0.218272269
v -0.33721748 2.62782168 -0.235759333
v -0.327778369 2.59281731 -0.360465556
v -0.254575342 2.62123561 -0.226132914
v -0.254933357 2.58877945 -0.3374266
v -0.23707433 2.54336071 -0.071725145
v -0.291493565 2.56033087 -0.067839846
v -0.31093353 2.50756168 -0.0673758239
v -0.1779321 2.49846745 -0.19135958
v -0.199920088 2.49862361 -0.3296816
v -0.186297148 2.45993352 -0.03537303
v -0.3244368 2.42605 -0.18220593
v -0.2701604 2.419285 -0.0304345116
v -0.32222864 2.42901015 -0.3251034
v -0.2281623 2.44203568 -0.0134623274
v -0.259372354 2.457687 -0.348476321
v -0.247094259 2.55654216 -0.374919385
v -0.246736363 2.58899832 -0.263625532
v -0.151736528 2.54088974 -0.254535228
v -0.198757127 2.5281918 -0.391113549
v -0.211199552 2.52038431 -0.1104743
v -0.166256517 2.50224328 -0.09961341
v -0.3454831 2.5060122 -0.368185371
v -0.3521819 2.44940066 -0.3805456
v -0.373012543 2.42725682 -0.239240631
v -0.3597423 2.530962 -0.2558732
v -0.317632973 2.42520165 -0.07919486
v -0.3078637 2.47073936 -0.103860304
v -0.213668719 2.50706339 -0.352439284
v -0.213310882 2.53952 -0.241145462
v -0.1396378 2.48046 -0.2305695
v -0.175311863 2.47358823 -0.367938071
v -0.177774057 2.470906 -0.08799419
v -0.142544985 2.44847417 -0.06646313
v -0.3222276 2.451319 -0.3448769
v -0.319922775 2.399331 -0.35786432
v -0.328443259 2.38350916 -0.217417061
v -0.336487025 2.47626948 -0.232564911
v -0.2853739 2.37513232 -0.05651362
v -0.284608543 2.416047 -0.08055192
v -0.227563947 2.57454681 -0.283730239
v -0.167923644 2.55500579 -0.306056142
v -0.218861178 2.51868749 -0.38352567
v -0.267994523 2.5851512 -0.324473441
v -0.315973133 2.48817778 -0.386529118
v -0.325440228 2.52150178 -0.350719243
v -0.2802871 2.58414912 -0.337224483
v -0.272063881 2.55821276 -0.392701715
v -0.349916428 2.488794 -0.370622844
v -0.3483095 2.57002 -0.3240431
v -0.3762564 2.45655751 -0.286620051
v -0.3587797 2.5026865 -0.27058062
v -0.1924693 2.46674633 -0.34978655
v -0.1921115 2.49920273 -0.238492563
v -0.132124543 2.43311477 -0.226963162
v -0.154112428 2.43327117 -0.365285248
v -0.1565747 2.43058872 -0.08534126
v -0.1213456 2.408157 -0.06381033
v -0.3014744 2.41077256 -0.342192858
v -0.29916957 2.358785 -0.3551804
v -0.296529979 2.34869313 -0.215510458
v -0.315733969 2.4357233 -0.229880929
v -0.264620721 2.334586 -0.0538295843
v -0.2638554 2.37550068 -0.0778678954
v -0.186377 2.51302242 -0.283833653
v -0.110003173 2.48799849 -0.3124238
v -0.175232366 2.44149017 -0.41162923
v -0.233402327 2.527988 -0.3514165
v -0.29959172 2.40242028 -0.4154754
v -0.311714917 2.44509435 -0.369618
v -0.229975358 2.52989745 -0.35577637
v -0.219444856 2.49668336 -0.4268192
v -0.319140822 2.40778756 -0.398545444
v -0.31708312 2.51180387 -0.3388966
v -0.35287112 2.36650634 -0.2909735
v -0.3304909 2.42557764 -0.270434
vt 0.7495167 0.7352821
vt 0.766193569 0.8085601
vt 0.6941612 0.834817767
vt 0.6986627 0.766810358
vt 0.694884956 0.652314663
vt 0.817585349 0.6441234
vt 0.8340751 0.738069355
vt 0.7603701 0.7158041
vt 0.6910966 0.747126937
vt 0.8431254 0.983832
vt 0.7204135 0.9915746
vt 0.7029361 0.9041371
vt 0.7762275 0.9261208
vt 0.8455077 0.894901633
vt 0.921099842 0.8740302
vt 0.8641396 0.815096736
vt 0.5856504 0.8865997
vt 0.577144742 0.773662865
vt 0.672878146 0.827213168
vt 0.908103049 0.6572503
vt 0.9146787 0.7488978
vt 0.6049835 0.682247758
vt 0.628047764 0.9789667
vt 0.9240436 0.9656632
vt 0.8100998 0.7476578
vt 0.8433325 0.8093042
vt 0.786255956 0.908250153
vt 0.7256738 0.8957811
vt 0.837109149 0.876814842
vt 0.00733381137 0.0340895057
vt 0.104865596 0.0111075044
vt 0.112478942 0.2282958
vt 0.0521761663 0.247299671
vt 0.242951676 0.015265584
vt 0.205653429 0.236917853
vt 0.346365184 0.0582053065
vt 0.275275618 0.262557447
vt 0.458720148 0.07529658
vt 0.341068685 0.310678482
vt 0.346365184 0.0582053065
vt 0.275275618 0.262557447
vt 0.242951676 0.015265584
vt 0.205653429 0.236917853
vt 0.104865596 0.0111075044
vt 0.112478942 0.2282958
vt 0.9847753 0.7557968
vt 0.99058336 0.8693179
vt 0.95628804 0.6664468
vt 0.967041731 0.945859134
vt 0.6664821 0.22117126
vt 0.8418653 0.312081218
vt 0.6258588 0.269227743
vt 0.719792247 0.158782363
vt 0.855430365 0.157479525
vt 0.832124 0.248654962
vt 0.9912735 0.1572119
vt 0.9935461 0.253813744
vt 0.9009241 0.0123900175
vt 0.9894917 0.0305546522
vt 0.81061995 0.0140019059
vt 0.6855377 0.149865627
vt 0.6116905 0.205341339
vt 0.9930333 0.2527069
vt 0.991933346 0.1572119
vt 0.8634218 0.16262126
vt 0.8435092 0.257688522
vt 0.7638879 0.06919056
vt 0.719822049 0.15838933
vt 0.757081866 0.160426259
vt 0.806631446 0.0121052861
vt 0.9015864 0.00989157
vt 0.610953 0.205932856
vt 0.7257199 0.228262663
vt 0.5763793 0.2566527
vt 0.9903425 0.0305546522
vt 0.7629911 0.06534439
vt 0.685531735 0.150330782
vt 0.504519045 0.292514563
vt 0.4487819 0.179658175
vt 0.5482765 0.0954752
vt 0.5875433 0.164331079
vt 0.7212944 0.0588186979
vt 0.4901302 0.1442132
vt 0.542864263 0.234418333
vt 0.446727574 0.175938964
vt 0.503210664 0.2981292
vt 0.5510184 0.09532988
vt 0.5909295 0.1528728
vt 0.7207137 0.0592883229
vt 0.7081171 0.286517978
vt 0.577146649 0.255762577
vt 0.838822961 0.313915
vt 0.9930128 0.3095926
vt 0.993566632 0.310699463
vt 0.463139176 0.44443357
vt 0.3700803 0.426681161
vt 0.375691563 0.3829552
vt 0.504531145 0.419456124
vt 0.3701015 0.4278947
vt 0.463157833 0.4455024
vt 0.281443536 0.417924523
vt 0.253256351 0.3737439
vt 0.28142488 0.416855574
vt 0.48706305 0.650782466
vt 0.359982818 0.6419593
vt 0.350310832 0.7076887
vt 0.515537441 0.71141696
vt 0.3599499 0.640072
vt 0.487034023 0.6491202
vt 0.2517349 0.5815307
vt 0.2084175 0.623510242
vt 0.25176394 0.583193064
vt 0.3789657 0.5190848
vt 0.5216986 0.564368367
vt 0.251353264 0.4962603
vt 0.379004061 0.521282554
vt 0.2513862 0.498147726
vt 0.5233815 0.5634731
vt 0.199236631 0.491745472
vt 0.5758967 0.5756022
vt 0.0937281251 0.6242528
vt 0.07900339 0.524866462
vt 0.136302 0.52824223
vt 0.12436974 0.644186735
vt 0.105603576 0.43155992
vt 0.130218685 0.418288827
vt 0.0937281251 0.6242528
vt 0.12436974 0.644186735
vt 0.136302 0.52824223
vt 0.0790032744 0.524866462
vt 0.130218446 0.418289185
vt 0.105603576 0.43155992
vt 0.09350836 0.625206351
vt 0.07878357 0.5258204
vt 0.13608247 0.5291958
vt 0.124150157 0.645140648
vt 0.105384052 0.4325137
vt 0.1299988 0.419242859
vt 0.09350836 0.625206351
vt 0.124150157 0.645140648
vt 0.13608247 0.5291958
vt 0.07878357 0.5258204
vt 0.1299988 0.419242859
vt 0.105384052 0.4325137
vt 0.0230945349 0.5351143
vt 0.0620576143 0.5494573
vt 0.08258134 0.486880064
vt 0.027443409 0.498979568
vt 0.0509011745 0.4347074
vt 0.0237153769 0.451801062
vt 0.0220181346 0.534623146
vt 0.06088513 0.5495229
vt 0.0822973251 0.487066269
vt 0.0268614888 0.498457551
vt 0.0512372851 0.434341073
vt 0.02375567 0.451113
vt 0.09350836 0.625206351
vt 0.07878357 0.5258204
vt 0.13608247 0.5291958
vt 0.124150157 0.645140648
vt 0.105384052 0.4325137
vt 0.1299988 0.419242859
vt 0.09350836 0.625206351
vt 0.124150157 0.645140648
vt 0.13608247 0.5291958
vt 0.07878357 0.5258204
vt 0.1299988 0.419242859
vt 0.105384052 0.4325137
vt 0.0230945349 0.5351143
vt 0.0620576143 0.5494573
vt 0.08258134 0.486880064
vt 0.027443409 0.498979568
vt 0.0509011745 0.4347074
vt 0.0237153769 0.451801062
vt 0.0220181346 0.534623146
vt 0.06088513 0.5495229
vt 0.0822973251 0.487066269
vt 0.0268614888 0.498457551
vt 0.0512372851 0.434341073
vt 0.02375567 0.451113
vt 0.829211 0.3631897
vt 0.7361521 0.3454373
vt 0.741763353 0.301711321
vt 0.870602965 0.338212252
vt 0.7361733 0.34665072
vt 0.829229653 0.3642584
vt 0.647515357 0.336680532
vt 0.619328141 0.2924999
vt 0.6474967 0.3356117
vt 0.8531349 0.5695386
vt 0.7260546 0.5607153
vt 0.7163826 0.6264447
vt 0.8816092 0.630172968
vt 0.7260217 0.5588281
vt 0.853105843 0.567876339
vt 0.617806733 0.5002868
vt 0.5744893 0.54226625
vt 0.61783576 0.5019492
vt 0.7450375 0.437840819
vt 0.8877704 0.4831245
vt 0.6174251 0.4150164
vt 0.7450759 0.440038562
vt 0.617458 0.416903734
vt 0.8894533 0.4822291
vt 0.565308452 0.4105016
vt 0.941968441 0.494358182
vt 0.155823186 0.4618122
vt 0.141098455 0.362425923
vt 0.198397 0.3658017
vt 0.186464742 0.481746256
vt 0.167698577 0.269119382
vt 0.192313626 0.2558483
vt 0.155823186 0.4618122
vt 0.186464742 0.481746256
vt 0.198397 0.3658017
vt 0.141098216 0.362425923
vt 0.192313388 0.255848646
vt 0.167698577 0.269119382
vt 0.155603364 0.462765753
vt 0.140878633 0.363379836
vt 0.198177531 0.366755247
vt 0.186245158 0.482700169
vt 0.167479 0.270073175
vt 0.1920938 0.25680232
vt 0.155603364 0.462765753
vt 0.186245158 0.482700169
vt 0.198177531 0.366755247
vt 0.140878633 0.363379836
vt 0.1920938 0.25680232
vt 0.167479 0.270073175
vt 0.0851895362 0.37267375
vt 0.124152616 0.387016833
vt 0.1446764 0.324439526
vt 0.08953841 0.33653903
vt 0.112996176 0.272266865
vt 0.08581038 0.289360523
vt 0.0841131359 0.3721826
vt 0.122980073 0.3870824
vt 0.144392326 0.324625731
vt 0.08895649 0.336017
vt 0.113332227 0.271900535
vt 0.08585067 0.288672447
vt 0.155603364 0.462765753
vt 0.140878633 0.363379836
vt 0.198177531 0.366755247
vt 0.186245158 0.482700169
vt 0.167479 0.270073175
vt 0.1920938 0.25680232
vt 0.155603364 0.462765753
vt 0.186245158 0.482700169
vt 0.198177531 0.366755247
vt 0.140878633 0.363379836
vt 0.1920938 0.25680232
vt 0.167479 0.270073175
vt 0.0851895362 0.37267375
vt 0.124152616 0.387016833
vt 0.1446764 0.324439526
vt 0.08953841 0.33653903
vt 0.112996176 0.272266865
vt 0.08581038 0.289360523
vt 0.0841131359 0.3721826
vt 0.122980073 0.3870824
vt 0.144392326 0.324625731
vt 0.08895649 0.336017
vt 0.113332227 0.271900535
vt 0.08585067 0.288672447
vt 0.270303428 0.7289454
vt 0.177244544 0.711192966
vt 0.1828558 0.667467
vt 0.311695367 0.7039679
vt 0.177265733 0.712406456
vt 0.270322084 0.730014145
vt 0.0886077657 0.702436268
vt 0.06042058 0.658255637
vt 0.08858911 0.7013674
vt 0.294227272 0.9352943
vt 0.167147055 0.926471055
vt 0.157475069 0.992200434
vt 0.322701663 0.9959287
vt 0.167114124 0.9245838
vt 0.294198275 0.933632
vt 0.058899153 0.8660425
vt 0.0155817345 0.908022
vt 0.05892817 0.867704868
vt 0.186129943 0.803596556
vt 0.328862846 0.8488802
vt 0.058517497 0.7807721
vt 0.186168313 0.8057943
vt 0.05855044 0.7826595
vt 0.330545723 0.84798485
vt 0.006400874 0.7762573
vt 0.3830609 0.8601139
vt 0.485722184 0.9531812
vt 0.470997453 0.853794932
vt 0.528296053 0.857170641
vt 0.5163638 0.9731152
vt 0.497597635 0.7604884
vt 0.522212744 0.7472173
vt 0.485722184 0.9531812
vt 0.5163638 0.9731152
vt 0.528296053 0.857170641
vt 0.470997334 0.853794932
vt 0.5222125 0.7472176
vt 0.497597635 0.7604884
vt 0.485502422 0.954134762
vt 0.470777631 0.8547488
vt 0.5280765 0.858124256
vt 0.5161442 0.9740691
vt 0.4973781 0.7614422
vt 0.521992862 0.74817127
vt 0.485502422 0.954134762
vt 0.5161442 0.9740691
vt 0.5280765 0.858124256
vt 0.470777631 0.8547488
vt 0.521992862 0.74817127
vt 0.4973781 0.7614422
vt 0.4150886 0.864042759
vt 0.454051673 0.8783858
vt 0.4745754 0.815808535
vt 0.419437468 0.827908
vt 0.442895234 0.7636359
vt 0.415709436 0.780729532
vt 0.4140122 0.8635516
vt 0.4528792 0.878451347
vt 0.474291384 0.81599474
vt 0.418855548 0.827385962
vt 0.443231344 0.763269544
vt 0.415749729 0.7800414
vt 0.485502422 0.954134762
vt 0.470777631 0.8547488
vt 0.5280765 0.858124256
vt 0.5161442 0.9740691
vt 0.4973781 0.7614422
vt 0.521992862 0.74817127
vt 0.485502422 0.954134762
vt 0.5161442 0.9740691
vt 0.5280765 0.858124256
vt 0.470777631 0.8547488
vt 0.521992862 0.74817127
vt 0.4973781 0.7614422
vt 0.4150886 0.864042759
vt 0.454051673 0.8783858
vt 0.4745754 0.815808535
vt 0.419437468 0.827908
vt 0.442895234 0.7636359
vt 0.415709436 0.780729532
vt 0.4140122 0.8635516
vt 0.4528792 0.878451347
vt 0.474291384 0.81599474
vt 0.418855548 0.827385962
vt 0.443231344 0.763269544
vt 0.415749729 0.7800414
vn 0.07060047 0.6015558 0.7957048
vn 0.0831220448 0.948267162 0.306398541
vn -0.6077255 0.735482 0.299559623
vn -0.436035931 0.640802741 0.631858
vn 0.151106164 0.986244142 -0.06700313
vn -0.135365129 0.990139663 -0.0360521
vn 0.196839184 0.9271755 0.318747342
vn -0.120037735 0.9284531 0.351519316
vn -0.1941736 0.903903 0.381124556
vn -0.166776389 0.864055932 0.4749663
vn 0.216206148 0.8661563 0.450586557
vn -0.159957036 0.9813284 0.106809422
vn 0.223842233 0.972960353 0.05694566
vn 0.147323951 0.9875285 0.0555256568
vn -0.5872241 0.7372444 0.334123433
vn 0.375261456 0.905689836 0.197242886
vn 0.284700841 0.901749849 0.325257778
vn 0.2665334 0.956227 0.120788641
vn -0.37714386 0.884195149 0.275611043
vn -0.565801263 0.816186 -0.117086612
vn -0.554047942 0.832230568 0.0205706879
vn 0.282933 0.9554198 -0.08439189
vn 0.323734939 0.8276046 0.4585481
vn -0.619226336 0.6725885 0.4051955
vn 0.537312746 0.614100337 0.578079462
vn 0.733719 0.643431246 0.218294889
vn 0.0493899845 0.925507 -0.375496179
vn -0.408100754 0.9094409 -0.0798188746
vn 0.5329408 0.8324823 -0.151484
vn -0.1941736 0.903903 0.381124556
vn -0.120037735 0.9284531 0.351519316
vn 0.07060047 0.6015558 0.7957048
vn -0.436035931 0.640802741 0.631858
vn 0.196839184 0.9271755 0.318747342
vn 0.537312746 0.614100337 0.578079462
vn 0.375261456 0.905689836 0.197242886
vn 0.733719 0.643431246 0.218294889
vn 0.147323951 0.9875285 0.0555256568
vn 0.5329408 0.8324823 -0.151484
vn 0.223842233 0.972960353 0.05694566
vn 0.0493899845 0.925507 -0.375496179
vn -0.159957036 0.9813284 0.106809422
vn -0.408100754 0.9094409 -0.0798188746
vn -0.37714386 0.884195149 0.275611043
vn -0.6077255 0.735482 0.299559623
vn -0.7411575 0.6691866 0.05361879
vn -0.695911944 0.6051311 0.386681944
vn -0.7464599 0.6546977 -0.11903131
vn -0.7926534 0.4485465 0.412924558
vn 0.974542737 0.0917711 0.2045594
vn 0.739275634 0.4034928 -0.539133668
vn 0.890855968 0.36854142 0.265617967
vn 0.983889043 -0.173534438 0.0429904871
vn 0.759811 -0.2769244 -0.5882178
vn 0.8459358 0.184025243 -0.500527
vn 0.0485202372 -0.303394824 -0.9516288
vn 0.0542436242 0.1560157 -0.98626405
vn 0.7308285 -0.5847199 -0.352125317
vn 0.06749445 -0.581145167 -0.8109962
vn 0.7734159 -0.6084435 -0.1778324
vn 0.9350367 -0.2060343 0.2885416
vn 0.9149324 0.09714817 0.3917408
vn 0.0542436242 0.1560157 -0.98626405
vn 0.0485202372 -0.303394824 -0.9516288
vn -0.7436873 -0.3382475 -0.5766436
vn -0.7993514 0.171808764 -0.575776935
vn -0.2727547 -0.5024758 -0.8204407
vn -0.975305 -0.06804488 0.210118949
vn -0.9580053 -0.2832918 0.04440314
vn -0.801543236 -0.5704918 -0.179074243
vn -0.6501951 -0.6253104 -0.431547433
vn -0.9212308 0.116011225 0.371315479
vn -0.9898876 0.00474148337 0.1417745
vn 0.888417065 0.274025351 0.3682733
vn 0.06749445 -0.581145167 -0.8109962
vn 0.6564554 -0.6498879 -0.3830301
vn -0.919298649 -0.202065423 0.33772707
vn -0.115404308 0.905334234 0.408719659
vn -0.19005537 0.9724551 0.134944737
vn -0.07723168 0.6605517 0.7467976
vn -0.0138142994 0.5778046 0.816058159
vn -0.06611795 0.453332931 0.8888856
vn -0.348678559 0.473103225 0.8090714
vn -0.280372322 0.629824638 0.724370241
vn -0.291300923 0.533020854 0.7943756
vn -0.164468035 0.7071693 0.687649548
vn -0.476224869 0.355222732 0.8043797
vn -0.5071627 0.498842269 0.702810347
vn -0.509912431 0.134556711 0.849637449
vn -0.945533633 0.248994082 0.209685743
vn -0.868291 0.2809808 0.408803731
vn -0.813463032 0.3995562 -0.422649682
vn 0.0308423638 0.369017124 -0.928910732
vn 0.0308423638 0.369017124 -0.928910732
vn 0.774429262 -0.330279142 -0.5396064
vn 0.901371658 -0.372432679 -0.220959291
vn 0.186240256 -0.892472446 -0.4108619
vn 0.176512614 -0.6298369 -0.7564051
vn -0.6567296 -0.7173508 -0.2326243
vn -0.6403891 -0.618921161 -0.454794884
vn -0.7229293 -0.5855785 0.366702944
vn 0.133492589 -0.758947551 0.637321234
vn 0.8869949 -0.226214454 0.402575552
vn -0.834619 0.1593585 -0.5272722
vn -0.9284138 0.339682817 0.150543764
vn -0.192350209 0.9675599 0.16379635
vn -0.134929776 0.679691 -0.720981359
vn 0.7152237 0.6710824 0.195201
vn 0.730888546 0.460742354 -0.503506064
vn 0.6804036 0.42568773 0.59652406
vn -0.09591288 0.6332359 0.767992854
vn -0.797842562 0.114843123 0.59182626
vn 0.983263433 0.172540277 0.058505632
vn 0.7998148 -0.0183897261 -0.5999651
vn 0.749698758 0.211058244 0.627221
vn -0.961909056 -0.2716835 0.0303159542
vn -0.786076 -0.1306653 0.6041615
vn -0.6887405 -0.349658281 -0.6351186
vn -0.04667921 0.107627034 0.9930949
vn 0.105177365 -0.254269123 -0.9613974
vn 0.7487807 0.6513217 -0.122912161
vn 0.749119 0.658809 0.06921993
vn 0.741787255 0.6513293 0.159755439
vn 0.7428338 0.6595534 -0.114835568
vn 0.57671833 0.6858813 0.44380486
vn 0.63012743 0.66186583 0.406045675
vn -0.9475921 0.297683328 -0.115990788
vn -0.9446841 0.310755461 -0.104895256
vn -0.946073949 0.293916255 0.136225089
vn -0.951150239 0.302857429 0.0599218719
vn -0.8319745 0.3860321 0.398494154
vn -0.7501311 0.4677238 0.4674803
vn 0.85359484 0.5119812 -0.09618287
vn 0.8582091 0.5120753 0.0354413576
vn 0.8558205 0.5070269 0.102445185
vn 0.847447455 0.523757458 -0.08666593
vn 0.6548591 0.6389761 0.403570443
vn 0.7468789 0.577489555 0.329663
vn -0.9861286 0.143195838 -0.0839362442
vn -0.983973444 0.164952889 -0.06772585
vn -0.98806566 0.124980375 0.0900342241
vn -0.9912979 0.1283414 0.02927385
vn -0.91756165 0.240217939 0.316821724
vn -0.851090848 0.340998262 0.39920494
vn 0.6690722 0.6705608 -0.320453882
vn 0.450918734 0.805891335 -0.383681446
vn 0.3528308 0.7126986 -0.6062765
vn 0.5255358 0.669885159 -0.5244673
vn -0.0151427686 0.6833455 -0.7299381
vn -0.1774637 0.7340592 -0.6554874
vn -0.322534353 0.714483559 -0.6208742
vn -0.5361652 0.7702364 -0.345344484
vn -0.731016457 0.5378105 -0.41997
vn -0.5220159 0.585947931 -0.61981
vn -0.9279371 0.3703492 -0.0421210453
vn -0.891519 0.40605706 0.200777277
vn 0.8889317 0.456740558 -0.03447459
vn 0.9161656 0.4007265 0.007672312
vn 0.9147866 0.400850773 0.0498417728
vn 0.8656292 0.500685632 -0.000186890727
vn 0.6548527 0.638980567 0.403573722
vn 0.7952191 0.5361905 0.2830659
vn -0.9951579 0.09182816 -0.03504749
vn -0.989794 0.142500609 0.0011848663
vn -0.998361647 0.0302881822 0.0485453047
vn -0.999529243 0.0299145244 0.00681055244
vn -0.9394766 0.196720988 0.280507624
vn -0.8510888 0.341000348 0.399207473
vn 0.703837335 0.6408312 -0.3065101
vn 0.450915962 0.8058926 -0.383682072
vn 0.399253666 0.6564337 -0.640071332
vn 0.5666082 0.6136483 -0.5499008
vn -0.0672469661 0.6356709 -0.769025564
vn -0.289437741 0.7099314 -0.6420461
vn -0.322533876 0.7144823 -0.6208759
vn -0.536166847 0.7702355 -0.345343977
vn -0.7310182 0.5378082 -0.419969976
vn -0.522015035 0.585945964 -0.6198126
vn -0.9279382 0.370346427 -0.04212068
vn -0.891520143 0.4060543 0.200777918
vn 0.6602414 -0.365494847 -0.656121
vn 0.8558442 -0.425340682 -0.294306
vn 0.08974091 -0.882450938 -0.461764961
vn 0.07495029 -0.578801632 -0.8120167
vn -0.7084015 -0.6636521 -0.24027729
vn -0.6630286 -0.5537023 -0.503792465
vn -0.7131778 -0.5384402 0.4488424
vn 0.106373139 -0.777449965 0.619884133
vn 0.859954953 -0.287807018 0.421479046
vn -0.8161149 0.196631864 -0.543408155
vn -0.8857607 0.412209481 0.213333666
vn -0.113964505 0.976840138 0.181095168
vn -0.116334364 0.668668866 -0.7344033
vn 0.754374 0.6289332 0.188050151
vn 0.707669258 0.390478134 -0.588838756
vn 0.685902655 0.3682862 0.6276168
vn -0.00118477945 0.5935275 0.804812849
vn -0.7077933 0.158922508 0.68831116
vn 0.992113531 0.1203058 0.03517517
vn 0.7431092 -0.0599457249 -0.6664797
vn 0.7485076 0.168207914 0.641437769
vn -0.9722317 -0.217904523 0.0853414759
vn -0.72489965 -0.07712445 0.6845234
vn -0.721890152 -0.297848374 -0.624628663
vn 0.0104292883 0.118631728 0.992883563
vn 0.0305747222 -0.248144582 -0.9682404
vn 0.77502 0.602982342 -0.189093336
vn 0.7844714 0.6190162 0.0377303958
vn 0.7732617 0.609916747 0.173400909
vn 0.7694269 0.61384064 -0.176584154
vn 0.5989914 0.627961338 0.496864
vn 0.657204 0.6046911 0.449924022
vn -0.927155256 0.3559883 -0.116856426
vn -0.922572136 0.37256825 -0.100267358
vn -0.9054029 0.3635855 0.219205782
vn -0.923233151 0.371803015 0.09696954
vn -0.744066954 0.432349652 0.5093507
vn -0.633912742 0.5061411 0.584786952
vn 0.87298125 0.460657716 -0.160306424
vn 0.8834636 0.468491 -0.00287163467
vn 0.879743159 0.464642674 0.100792944
vn 0.867347956 0.4759916 -0.1453944
vn 0.672558546 0.5854781 0.452637136
vn 0.772298157 0.5234382 0.359955549
vn -0.977262557 0.198503286 -0.07452714
vn -0.972797632 0.226227269 -0.0498599634
vn -0.9677233 0.192338929 0.162841335
vn -0.9790973 0.192792192 0.0648048744
vn -0.8577469 0.295758873 0.420472264
vn -0.7573939 0.396634847 0.5186861
vn 0.6845607 0.5975432 -0.41751495
vn 0.4660798 0.73943454 -0.4858047
vn 0.3806754 0.6253944 -0.681152046
vn 0.4735804 0.58483094 -0.6585548
vn -0.006794994 0.58669734 -0.8097778
vn -0.133515477 0.6539964 -0.7446223
vn -0.293949246 0.675844669 -0.6758904
vn -0.469851643 0.7803172 -0.412728161
vn -0.712747455 0.527955949 -0.46179384
vn -0.449099571 0.547207832 -0.706309557
vn -0.9002971 0.43399033 -0.03342901
vn -0.8326877 0.473114073 0.287739962
vn 0.912493646 0.3988945 -0.09076635
vn 0.9345279 0.354208916 -0.0345499665
vn 0.933441758 0.357204467 0.03303694
vn 0.8893596 0.455738485 -0.03663316
vn 0.6725516 0.5854818 0.452642679
vn 0.825609148 0.4789623 0.29826948
vn -0.989751637 0.1418996 -0.0160070136
vn -0.977674842 0.206356943 0.0396066
vn -0.989429 0.09513639 0.109449849
vn -0.99497813 0.09125054 0.0411323756
vn -0.893457234 0.249059066 0.373769581
vn -0.7573928 0.3966351 0.5186875
vn 0.7239922 0.562405944 -0.399418116
vn 0.466080219 0.7394328 -0.4858069
vn 0.41647312 0.5704919 -0.7078765
vn 0.5126859 0.523522854 -0.680497646
vn -0.0607379749 0.5425036 -0.837854862
vn -0.234684929 0.6422657 -0.729669631
vn -0.293952525 0.6758438 -0.67588985
vn -0.469855428 0.7803157 -0.4127266
vn -0.7127489 0.5279543 -0.461793631
vn -0.449100077 0.5472069 -0.70631
vn -0.900297344 0.4339901 -0.03342498
vn -0.832684636 0.473113567 0.2877496
vn 0.799353361 -0.266614079 -0.538471162
vn 0.9606051 -0.202558815 -0.190283418
vn 0.409537643 -0.865334868 -0.288919449
vn 0.340849668 -0.6749824 -0.6543854
vn -0.384665936 -0.917505443 -0.101073526
vn -0.3748993 -0.8570789 -0.3533642
vn -0.461042583 -0.737660646 0.493250936
vn 0.33701095 -0.6069448 0.7197511
vn 0.908114552 -0.00315630715 0.418709934
vn -0.8494636 -0.06553421 -0.5235617
vn -0.9781092 0.153748363 0.140227973
vn -0.436600566 0.897919655 0.0558593
vn -0.319838673 0.5299286 -0.785416365
vn 0.464991063 0.8823388 0.072536096
vn 0.5147955 0.6111648 -0.6012181
vn 0.49454546 0.6929509 0.524636865
vn -0.258820385 0.6871772 0.67882216
vn -0.779962361 0.02438853 0.6253511
vn 0.8998293 0.436222464 0.00413908251
vn 0.75537616 0.09919414 -0.6477402
vn 0.6516178 0.47393176 0.5922693
vn -0.8376665 -0.535608053 0.106952585
vn -0.6874119 -0.261432469 0.677582443
vn -0.556425154 -0.605864644 -0.568611562
vn -0.05594469 0.210577 0.975975156
vn 0.150088891 -0.347631663 -0.9255407
vn 0.4425187 0.864569 -0.238112718
vn 0.444649637 0.8951653 -0.0310763139
vn 0.4445885 0.8945587 0.0458885059
vn 0.433748126 0.8711011 -0.230316132
vn 0.281143129 0.8984433 0.337280631
vn 0.337567717 0.890401959 0.305339873
vn -0.9830218 0.127369985 -0.1320798
vn -0.9821362 0.14293617 -0.122383423
vn -0.979729354 0.151432425 0.131143332
vn -0.9862154 0.153534815 0.0616943724
vn -0.868278265 0.306245655 0.390264541
vn -0.8024107 0.408025026 0.4354913
vn 0.6098456 0.766017 -0.203239366
vn 0.61898315 0.7834084 -0.05595673
vn 0.621157348 0.7836677 0.005336628
vn 0.59920454 0.7766202 -0.194460779
vn 0.3707283 0.8766314 0.30672133
vn 0.479576051 0.8426318 0.24490492
vn -0.995526969 -0.05420211 -0.0773835257
vn -0.997566938 -0.0283105634 -0.06370848
vn -0.9919576 -0.0593038537 0.111817688
vn -0.9966512 -0.0616669953 0.05369934
vn -0.9315672 0.124076672 0.3417419
vn -0.881075 0.2517358 0.400419623
vn 0.349686474 0.830180466 -0.434188634
vn 0.106419496 0.8715749 -0.478573024
vn 0.06720525 0.7413894 -0.6677014
vn 0.235540077 0.756715536 -0.609838068
vn -0.2526256 0.6071051 -0.7533948
vn -0.380558819 0.624650061 -0.6818998
vn -0.512136161 0.591946 -0.6223476
vn -0.6715292 0.628066063 -0.3931687
vn -0.810653031 0.3664172 -0.456705719
vn -0.6530176 0.427538961 -0.6251228
vn -0.97366 0.219646171 -0.0611704029
vn -0.9386888 0.291780859 0.183649883
vn 0.671588 0.729388356 -0.130238965
vn 0.730351567 0.6786905 -0.077238366
vn 0.730333567 0.682074964 -0.0372370854
vn 0.6311589 0.769250333 -0.09946058
vn 0.370724738 0.8766328 0.306721538
vn 0.542599738 0.8146463 0.204785138
vn -0.9939666 -0.108722925 -0.0144840255
vn -0.9987227 -0.0481238663 0.0153975459
vn -0.9798518 -0.182150722 0.08192427
vn -0.9816036 -0.186352476 0.0415585153
vn -0.946933866 0.06820737 0.314108282
vn -0.881074846 0.2517356 0.400420159
vn 0.395742655 0.815642953 -0.422035962
vn 0.106419615 0.871574342 -0.478573948
vn 0.127251655 0.699452937 -0.7032585
vn 0.306747139 0.7114595 -0.6322433
vn -0.2891013 0.5515546 -0.7824372
vn -0.463545918 0.5842098 -0.666201234
vn -0.512136 0.5919436 -0.62235
vn -0.671529 0.628063858 -0.393172532
vn -0.810653269 0.3664156 -0.456706583
vn -0.6530175 0.427537769 -0.6251236
vn -0.9736602 0.219645545 -0.0611692742
vn -0.93868804 0.291780949 0.183653682
usemtl 0000680001_part_0_material_0
f 1/1/1 2/2/2 3/3/3
f 3/3/3 4/4/4 1/1/1
f 5/5/5 6/6/6 7/7/7
f 5/5/5 7/7/7 8/8/8
f 5/5/5 8/8/8 9/9/9
f 10/10/10 11/11/11 12/12/12
f 10/10/10 12/12/12 13/13/13
f 10/10/10 13/13/13 14/14/14
f 15/15/15 14/14/14 16/16/16
f 12/12/12 17/17/17 18/18/18
f 18/18/18 9/9/9 19/19/19
f 12/12/12 18/18/18 19/19/19
f 20/20/20 21/21/21 7/7/7
f 7/7/7 6/6/6 20/20/20
f 9/9/9 18/18/18 22/22/22
f 22/22/22 5/5/5 9/9/9
f 23/23/23 17/17/17 12/12/12
f 12/12/12 11/11/11 23/23/23
f 14/14/14 15/15/15 24/24/24
f 24/24/24 10/10/10 14/14/14
f 25/25/25 26/26/26 2/2/2
f 2/2/2 1/1/1 25/25/25
f 27/27/27 28/28/28 3/3/3
f 3/3/3 2/2/2 27/27/27
f 29/29/29 27/27/27 2/2/2
f 2/2/2 26/26/26 29/29/29
f 30/30/30 31/31/31 32/32/32
f 32/32/32 33/33/33 30/30/30
f 31/31/31 34/34/34 35/35/35
f 35/35/35 32/32/32 31/31/31
f 34/34/34 36/36/36 37/37/37
f 37/37/37 35/35/35 34/34/34
f 36/36/36 38/38/38 39/39/39
f 39/39/39 37/37/37 36/36/36
f 38/38/38 40/40/40 41/41/41
f 41/41/41 39/39/39 38/38/38
f 40/40/40 42/42/42 43/43/43
f 43/43/43 41/41/41 40/40/40
f 42/42/42 44/44/44 45/45/45
f 45/45/45 43/43/43 42/42/42
f 44/44/44 30/30/30 33/33/33
f 33/33/33 45/45/45 44/44/44
f 46/46/46 47/47/47 15/15/15
f 15/15/15 21/21/21 46/46/46
f 48/48/48 46/46/46 21/21/21
f 21/21/21 20/20/20 48/48/48
f 15/15/15 47/47/47 49/49/49
f 49/49/49 24/24/24 15/15/15
f 16/16/16 7/7/7 21/21/21
f 21/21/21 15/15/15 16/16/16
f 50/50/50 51/51/51 52/52/52
f 53/53/53 54/54/54 55/55/55
f 55/55/55 50/50/50 53/53/53
f 56/56/56 57/57/57 55/55/55
f 55/55/55 54/54/54 56/56/56
f 54/54/54 58/58/58 59/59/59
f 59/59/59 56/56/56 54/54/54
f 58/58/58 54/54/54 60/60/60
f 61/61/61 53/53/53 62/62/62
f 63/63/63 64/64/64 65/65/65
f 65/65/65 66/66/66 63/63/63
f 67/67/67 68/68/68 69/69/69
f 69/69/69 70/70/70 67/67/67
f 71/71/71 70/70/70 65/65/65
f 72/72/72 73/73/73 69/69/69
f 69/69/69 68/68/68 72/72/72
f 52/52/52 74/74/74 62/62/62
f 62/62/62 50/50/50 52/52/52
f 50/50/50 62/62/62 53/53/53
f 65/65/65 64/64/64 75/75/75
f 75/75/75 71/71/71 65/65/65
f 54/54/54 53/53/53 76/76/76
f 76/76/76 60/60/60 54/54/54
f 69/69/69 73/73/73 66/66/66
f 66/66/66 65/65/65 69/69/69
f 69/69/69 65/65/65 70/70/70
f 72/72/72 68/68/68 77/77/77
f 78/78/78 79/79/79 80/80/80
f 80/80/80 81/81/81 78/78/78
f 81/81/81 80/80/80 82/82/82
f 83/83/83 84/84/84 85/85/85
f 85/85/85 84/84/84 86/86/86
f 84/84/84 83/83/83 87/87/87
f 87/87/87 88/88/88 84/84/84
f 88/88/88 87/87/87 89/89/89
f 90/90/90 72/72/72 91/91/91
f 72/72/72 90/90/90 73/73/73
f 73/73/73 90/90/90 92/92/92
f 92/92/92 66/66/66 73/73/73
f 66/66/66 92/92/92 93/93/93
f 93/93/93 63/63/63 66/66/66
f 57/57/57 94/94/94 51/51/51
f 51/51/51 55/55/55 57/57/57
f 55/55/55 51/51/51 50/50/50
f 95/95/95 96/96/96 97/97/97
f 97/97/97 98/98/98 95/95/95
f 99/99/99 100/100/100 98/98/98
f 98/98/98 97/97/97 99/99/99
f 101/101/101 99/99/99 97/97/97
f 97/97/97 102/102/102 101/101/101
f 96/96/96 103/103/103 102/102/102
f 102/102/102 97/97/97 96/96/96
f 104/104/104 105/105/105 106/106/106
f 106/106/106 107/107/107 104/104/104
f 108/108/108 109/109/109 107/107/107
f 107/107/107 106/106/106 108/108/108
f 110/110/110 108/108/108 106/106/106
f 106/106/106 111/111/111 110/110/110
f 105/105/105 112/112/112 111/111/111
f 111/111/111 106/106/106 105/105/105
f 109/109/109 108/108/108 113/113/113
f 113/113/113 114/114/114 109/109/109
f 96/96/96 95/95/95 114/114/114
f 114/114/114 113/113/113 96/96/96
f 103/103/103 96/96/96 113/113/113
f 113/113/113 115/115/115 103/103/103
f 108/108/108 110/110/110 115/115/115
f 115/115/115 113/113/113 108/108/108
f 112/112/112 105/105/105 116/116/116
f 116/116/116 117/117/117 112/112/112
f 99/99/99 101/101/101 117/117/117
f 117/117/117 116/116/116 99/99/99
f 100/100/100 99/99/99 116/116/116
f 116/116/116 118/118/118 100/100/100
f 105/105/105 104/104/104 118/118/118
f 118/118/118 116/116/116 105/105/105
f 110/110/110 111/111/111 119/119/119
f 119/119/119 115/115/115 110/110/110
f 102/102/102 103/103/103 115/115/115
f 115/115/115 119/119/119 102/102/102
f 101/101/101 102/102/102 119/119/119
f 119/119/119 117/117/117 101/101/101
f 111/111/111 112/112/112 117/117/117
f 117/117/117 119/119/119 111/111/111
f 104/104/104 107/107/107 120/120/120
f 120/120/120 118/118/118 104/104/104
f 98/98/98 100/100/100 118/118/118
f 118/118/118 120/120/120 98/98/98
f 95/95/95 98/98/98 120/120/120
f 120/120/120 114/114/114 95/95/95
f 107/107/107 109/109/109 114/114/114
f 114/114/114 120/120/120 107/107/107
f 121/121/121 122/122/122 123/123/123
f 123/123/123 124/124/124 121/121/121
f 122/122/122 125/125/125 126/126/126
f 126/126/126 123/123/123 122/122/122
f 127/127/127 128/128/128 129/129/129
f 129/129/129 130/130/130 127/127/127
f 130/130/130 129/129/129 131/131/131
f 131/131/131 132/132/132 130/130/130
f 133/133/133 134/134/134 135/135/135
f 135/135/135 136/136/136 133/133/133
f 134/134/134 137/137/137 138/138/138
f 138/138/138 135/135/135 134/134/134
f 139/139/139 140/140/140 141/141/141
f 141/141/141 142/142/142 139/139/139
f 142/142/142 141/141/141 143/143/143
f 143/143/143 144/144/144 142/142/142
f 145/145/145 146/146/146 147/147/147
f 147/147/147 148/148/148 145/145/145
f 148/148/148 147/147/147 149/149/149
f 149/149/149 150/150/150 148/148/148
f 151/151/151 152/152/152 153/153/153
f 153/153/153 154/154/154 151/151/151
f 154/154/154 153/153/153 155/155/155
f 155/155/155 156/156/156 154/154/154
f 157/157/157 158/158/158 159/159/159
f 159/159/159 160/160/160 157/157/157
f 158/158/158 161/161/161 162/162/162
f 162/162/162 159/159/159 158/158/158
f 163/163/163 164/164/164 165/165/165
f 165/165/165 166/166/166 163/163/163
f 166/166/166 165/165/165 167/167/167
f 167/167/167 168/168/168 166/166/166
f 169/169/169 170/170/170 171/171/171
f 171/171/171 172/172/172 169/169/169
f 172/172/172 171/171/171 173/173/173
f 173/173/173 174/174/174 172/172/172
f 175/175/175 176/176/176 177/177/177
f 177/177/177 178/178/178 175/175/175
f 178/178/178 177/177/177 179/179/179
f 179/179/179 180/180/180 178/178/178
f 181/181/181 182/182/182 183/183/183
f 183/183/183 184/184/184 181/181/181
f 185/185/185 186/186/186 184/184/184
f 184/184/184 183/183/183 185/185/185
f 187/187/187 185/185/185 183/183/183
f 183/183/183 188/188/188 187/187/187
f 182/182/182 189/189/189 188/188/188
f 188/188/188 183/183/183 182/182/182
f 190/190/190 191/191/191 192/192/192
f 192/192/192 193/193/193 190/190/190
f 194/194/194 195/195/195 193/193/193
f 193/193/193 192/192/192 194/194/194
f 196/196/196 194/194/194 192/192/192
f 192/192/192 197/197/197 196/196/196
f 191/191/191 198/198/198 197/197/197
f 197/197/197 192/192/192 191/191/191
f 195/195/195 194/194/194 199/199/199
f 199/199/199 200/200/200 195/195/195
f 182/182/182 181/181/181 200/200/200
f 200/200/200 199/199/199 182/182/182
f 189/189/189 182/182/182 199/199/199
f 199/199/199 201/201/201 189/189/189
f 194/194/194 196/196/196 201/201/201
f 201/201/201 199/199/199 194/194/194
f 198/198/198 191/191/191 202/202/202
f 202/202/202 203/203/203 198/198/198
f 185/185/185 187/187/187 203/203/203
f 203/203/203 202/202/202 185/185/185
f 186/186/186 185/185/185 202/202/202
f 202/202/202 204/204/204 186/186/186
f 191/191/191 190/190/190 204/204/204
f 204/204/204 202/202/202 191/191/191
f 196/196/196 197/197/197 205/205/205
f 205/205/205 201/201/201 196/196/196
f 188/188/188 189/189/189 201/201/201
f 201/201/201 205/205/205 188/188/188
f 187/187/187 188/188/188 205/205/205
f 205/205/205 203/203/203 187/187/187
f 197/197/197 198/198/198 203/203/203
f 203/203/203 205/205/205 197/197/197
f 190/190/190 193/193/193 206/206/206
f 206/206/206 204/204/204 190/190/190
f 184/184/184 186/186/186 204/204/204
f 204/204/204 206/206/206 184/184/184
f 181/181/181 184/184/184 206/206/206
f 206/206/206 200/200/200 181/181/181
f 193/193/193 195/195/195 200/200/200
f 200/200/200 206/206/206 193/193/193
f 207/207/207 208/208/208 209/209/209
f 209/209/209 210/210/210 207/207/207
f 208/208/208 211/211/211 212/212/212
f 212/212/212 209/209/209 208/208/208
f 213/213/213 214/214/214 215/215/215
f 215/215/215 216/216/216 213/213/213
f 216/216/216 215/215/215 217/217/217
f 217/217/217 218/218/218 216/216/216
f 219/219/219 220/220/220 221/221/221
f 221/221/221 222/222/222 219/219/219
f 220/220/220 223/223/223 224/224/224
f 224/224/224 221/221/221 220/220/220
f 225/225/225 226/226/226 227/227/227
f 227/227/227 228/228/228 225/225/225
f 228/228/228 227/227/227 229/229/229
f 229/229/229 230/230/230 228/228/228
f 231/231/231 232/232/232 233/233/233
f 233/233/233 234/234/234 231/231/231
f 234/234/234 233/233/233 235/235/235
f 235/235/235 236/236/236 234/234/234
f 237/237/237 238/238/238 239/239/239
f 239/239/239 240/240/240 237/237/237
f 240/240/240 239/239/239 241/241/241
f 241/241/241 242/242/242 240/240/240
f 243/243/243 244/244/244 245/245/245
f 245/245/245 246/246/246 243/243/243
f 244/244/244 247/247/247 248/248/248
f 248/248/248 245/245/245 244/244/244
f 249/249/249 250/250/250 251/251/251
f 251/251/251 252/252/252 249/249/249
f 252/252/252 251/251/251 253/253/253
f 253/253/253 254/254/254 252/252/252
f 255/255/255 256/256/256 257/257/257
f 257/257/257 258/258/258 255/255/255
f 258/258/258 257/257/257 259/259/259
f 259/259/259 260/260/260 258/258/258
f 261/261/261 262/262/262 263/263/263
f 263/263/263 264/264/264 261/261/261
f 264/264/264 263/263/263 265/265/265
f 265/265/265 266/266/266 264/264/264
f 267/267/267 268/268/268 269/269/269
f 269/269/269 270/270/270 267/267/267
f 271/271/271 272/272/272 270/270/270
f 270/270/270 269/269/269 271/271/271
f 273/273/273 271/271/271 269/269/269
f 269/269/269 274/274/274 273/273/273
f 268/268/268 275/275/275 274/274/274
f 274/274/274 269/269/269 268/268/268
f 276/276/276 277/277/277 278/278/278
f 278/278/278 279/279/279 276/276/276
f 280/280/280 281/281/281 279/279/279
f 279/279/279 278/278/278 280/280/280
f 282/282/282 280/280/280 278/278/278
f 278/278/278 283/283/283 282/282/282
f 277/277/277 284/284/284 283/283/283
f 283/283/283 278/278/278 277/277/277
f 281/281/281 280/280/280 285/285/285
f 285/285/285 286/286/286 281/281/281
f 268/268/268 267/267/267 286/286/286
f 286/286/286 285/285/285 268/268/268
f 275/275/275 268/268/268 285/285/285
f 285/285/285 287/287/287 275/275/275
f 280/280/280 282/282/282 287/287/287
f 287/287/287 285/285/285 280/280/280
f 284/284/284 277/277/277 288/288/288
f 288/288/288 289/289/289 284/284/284
f 271/271/271 273/273/273 289/289/289
f 289/289/289 288/288/288 271/271/271
f 272/272/272 271/271/271 288/288/288
f 288/288/288 290/290/290 272/272/272
f 277/277/277 276/276/276 290/290/290
f 290/290/290 288/288/288 277/277/277
f 282/282/282 283/283/283 291/291/291
f 291/291/291 287/287/287 282/282/282
f 274/274/274 275/275/275 287/287/287
f 287/287/287 291/291/291 274/274/274
f 273/273/273 274/274/274 291/291/291
f 291/291/291 289/289/289 273/273/273
f 283/283/283 284/284/284 289/289/289
f 289/289/289 291/291/291 283/283/283
f 276/276/276 279/279/279 292/292/292
f 292/292/292 290/290/290 276/276/276
f 270/270/270 272/272/272 290/290/290
f 290/290/290 292/292/292 270/270/270
f 267/267/267 270/270/270 292/292/292
f 292/292/292 286/286/286 267/267/267
f 279/279/279 281/281/281 286/286/286
f 286/286/286 292/292/292 279/279/279
f 293/293/293 294/294/294 295/295/295
f 295/295/295 296/296/296 293/293/293
f 294/294/294 297/297/297 298/298/298
f 298/298/298 295/295/295 294/294/294
f 299/299/299 300/300/300 301/301/301
f 301/301/301 302/302/302 299/299/299
f 302/302/302 301/301/301 303/303/303
f 303/303/303 304/304/304 302/302/302
f 305/305/305 306/306/306 307/307/307
f 307/307/307 308/308/308 305/305/305
f 306/306/306 309/309/309 310/310/310
f 310/310/310 307/307/307 306/306/306
f 311/311/311 312/312/312 313/313/313
f 313/313/313 314/314/314 311/311/311
f 314/314/314 313/313/313 315/315/315
f 315/315/315 316/316/316 314/314/314
f 317/317/317 318/318/318 319/319/319
f 319/319/319 320/320/320 317/317/317
f 320/320/320 319/319/319 321/321/321
f 321/321/321 322/322/322 320/320/320
f 323/323/323 324/324/324 325/325/325
f 325/325/325 326/326/326 323/323/323
f 326/326/326 325/325/325 327/327/327
f 327/327/327 328/328/328 326/326/326
f 329/329/329 330/330/330 331/331/331
f 331/331/331 332/332/332 329/329/329
f 330/330/330 333/333/333 334/334/334
f 334/334/334 331/331/331 330/330/330
f 335/335/335 336/336/336 337/337/337
f 337/337/337 338/338/338 335/335/335
f 338/338/338 337/337/337 339/339/339
f 339/339/339 340/340/340 338/338/338
f 341/341/341 342/342/342 343/343/343
f 343/343/343 344/344/344 341/341/341
f 344/344/344 343/343/343 345/345/345
f 345/345/345 346/346/346 344/344/344
f 347/347/347 348/348/348 349/349/349
f 349/349/349 350/350/350 347/347/347
f 350/350/350 349/349/349 351/351/351
f 351/351/351 352/352/352 350/350/350
