mtllib 0001011601.mtl
o 0001011601_part_0
v 0.16361396 2.57435369 0.2659272
v 0.0116994036 2.620432 0.2629302
v 0.0181385279 2.40679646 0.5028676
v 0.120418206 2.39635587 0.4875871
v 0.194026291 2.292849 0.426742017
v 0.3064204 2.351592 0.191779062
v 0.16361396 2.57435369 0.2659272
v 0.16361396 2.57435369 0.2659272
v 0.120418206 2.39635587 0.4875871
v 0.194026291 2.292849 0.426742017
v 0.31907627 2.217654 0.306195885
v 0.477145344 2.25389552 0.100412995
v 0.3064204 2.351592 0.191779062
v 0.3064204 2.351592 0.191779062
v 0.194026291 2.292849 0.426742017
v 0.31907627 2.217654 0.306195885
v 0.267914534 2.065329 0.280331165
v 0.494336724 2.121305 0.09930956
v 0.477145344 2.25389552 0.100412995
v 0.477145344 2.25389552 0.100412995
v 0.31907627 2.217654 0.306195885
v 0.267914534 2.065329 0.280331165
v 0.368292481 2.14923882 0.110591792
v 0.494336724 2.121305 0.09930956
v 0.267914534 2.065329 0.280331165
v 0.267914534 2.065329 0.280331165
v 0.121997513 2.06836867 0.2709076
v 0.368292481 2.14923882 0.110591792
v 0.17586118 2.5830214 -0.113919981
v 0.008842813 2.63174987 -0.117057413
v 0.0116994036 2.620432 0.2629302
v 0.0116994036 2.620432 0.2629302
v 0.16361396 2.57435369 0.2659272
v 0.17586118 2.5830214 -0.113919981
v 0.291033655 2.37549043 -0.120172113
v 0.17586118 2.5830214 -0.113919981
v 0.16361396 2.57435369 0.2659272
v 0.16361396 2.57435369 0.2659272
v 0.3064204 2.351592 0.191779062
v 0.291033655 2.37549043 -0.120172113
v 0.428030372 2.22830057 -0.160085037
v 0.291033655 2.37549043 -0.120172113
v 0.3064204 2.351592 0.191779062
v 0.3064204 2.351592 0.191779062
v 0.477145344 2.25389552 0.100412995
v 0.428030372 2.22830057 -0.160085037
v 0.446972251 2.12146258 -0.13936618
v 0.428030372 2.22830057 -0.160085037
v 0.477145344 2.25389552 0.100412995
v 0.477145344 2.25389552 0.100412995
v 0.494336724 2.121305 0.09930956
v 0.446972251 2.12146258 -0.13936618
v 0.446972251 2.12146258 -0.13936618
v 0.494336724 2.121305 0.09930956
v 0.368292481 2.14923882 0.110591792
v 0.368292481 2.14923882 0.110591792
v 0.3283669 2.15843 -0.105035059
v 0.446972251 2.12146258 -0.13936618
v 0.112816028 2.49916458 -0.285416454
v 0.0103014577 2.50719023 -0.312347919
v 0.008842813 2.63174987 -0.117057413
v 0.008842813 2.63174987 -0.117057413
v 0.17586118 2.5830214 -0.113919981
v 0.112816028 2.49916458 -0.285416454
v 0.171319917 2.32419014 -0.229976371
v 0.112816028 2.49916458 -0.285416454
v 0.17586118 2.5830214 -0.113919981
v 0.17586118 2.5830214 -0.113919981
v 0.291033655 2.37549043 -0.120172113
v 0.171319917 2.32419014 -0.229976371
v 0.183361143 2.1936388 -0.2993805
v 0.171319917 2.32419014 -0.229976371
v 0.291033655 2.37549043 -0.120172113
v 0.291033655 2.37549043 -0.120172113
v 0.428030372 2.22830057 -0.160085037
v 0.183361143 2.1936388 -0.2993805
v 0.200504363 2.121507 -0.24617517
v 0.183361143 2.1936388 -0.2993805
v 0.428030372 2.22830057 -0.160085037
v 0.428030372 2.22830057 -0.160085037
v 0.446972251 2.12146258 -0.13936618
v 0.200504363 2.121507 -0.24617517
v 0.200504363 2.121507 -0.24617517
v 0.446972251 2.12146258 -0.13936618
v 0.3283669 2.15843 -0.105035059
v 0.3283669 2.15843 -0.105035059
v 0.144733354 2.16424775 -0.21542047
v 0.200504363 2.121507 -0.24617517
v 0.0150128864 2.30525851 -0.286307156
v 0.0103014577 2.50719023 -0.312347919
v 0.112816028 2.49916458 -0.285416454
v 0.112816028 2.49916458 -0.285416454
v 0.171319917 2.32419014 -0.229976371
v 0.0150128864 2.30525851 -0.286307156
v 0.0178603567 2.16132641 -0.342315346
v 0.0150128864 2.30525851 -0.286307156
v 0.171319917 2.32419014 -0.229976371
v 0.171319917 2.32419014 -0.229976371
v 0.183361143 2.1936388 -0.2993805
v 0.0178603567 2.16132641 -0.342315346
v 0.200504363 2.121507 -0.24617517
v 0.03745666 2.10971761 -0.2902937
v 0.0178603567 2.16132641 -0.342315346
v 0.0178603567 2.16132641 -0.342315346
v 0.183361143 2.1936388 -0.2993805
v 0.200504363 2.121507 -0.24617517
v 0.144733354 2.16424775 -0.21542047
v 0.0391234 2.153418 -0.256886423
v 0.03745666 2.10971761 -0.2902937
v 0.03745666 2.10971761 -0.2902937
v 0.200504363 2.121507 -0.24617517
v 0.144733354 2.16424775 -0.21542047
v 0.249532789 2.17626 0.123037577
v 0.368292481 2.14923882 0.110591792
v 0.121997513 2.06836867 0.2709076
v 0.121997513 2.06836867 0.2709076
v 0.0168187637 2.08697081 0.263550758
v 0.249532789 2.17626 0.123037577
v 0.3283669 2.15843 -0.105035059
v 0.368292481 2.14923882 0.110591792
v 0.249532789 2.17626 0.123037577
v 0.249532789 2.17626 0.123037577
v 0.214427575 2.24964762 -0.103239588
v 0.3283669 2.15843 -0.105035059
v 0.144733354 2.16424775 -0.21542047
v 0.3283669 2.15843 -0.105035059
v 0.214427575 2.24964762 -0.103239588
v 0.214427575 2.24964762 -0.103239588
v 0.0872395039 2.17987728 -0.1857619
v 0.144733354 2.16424775 -0.21542047
v 0.0391234 2.153418 -0.256886423
v 0.144733354 2.16424775 -0.21542047
v 0.0872395039 2.17987728 -0.1857619
v 0.0872395039 2.17987728 -0.1857619
v 0.04079014 2.19711828 -0.223479122
v 0.0391234 2.153418 -0.256886423
v -0.137939453 2.56758428 0.267992526
v -0.0837692246 2.391772 0.488985568
v -0.1534849 2.285048 0.4291221
v -0.0837692246 2.391772 0.488985568
v -0.137939453 2.56758428 0.267992526
v -0.137939453 2.56758428 0.267992526
v -0.2716078 2.33861613 0.195737973
v -0.1534849 2.285048 0.4291221
v -0.2765966 2.20094657 0.310547769
v -0.1534849 2.285048 0.4291221
v -0.2716078 2.33861613 0.195737973
v -0.2716078 2.33861613 0.195737973
v -0.4389393 2.23018122 0.106944188
v -0.2765966 2.20094657 0.310547769
v -0.236279026 2.094734 0.26251176
v -0.2765966 2.20094657 0.310547769
v -0.4389393 2.23018122 0.106944188
v -0.4389393 2.23018122 0.106944188
v -0.440365553 2.17886448 0.06639093
v -0.236279026 2.094734 0.26251176
v -0.311921179 2.20519567 0.08717105
v -0.09068183 2.08218527 0.263444752
v -0.236279026 2.094734 0.26251176
v -0.236279026 2.094734 0.26251176
v -0.440365553 2.17886448 0.06639093
v -0.311921179 2.20519567 0.08717105
v -0.155762359 2.57557678 -0.111648716
v -0.137939453 2.56758428 0.267992526
v 0.0116994036 2.620432 0.2629302
v 0.0116994036 2.620432 0.2629302
v 0.008842813 2.63174987 -0.117057413
v -0.155762359 2.57557678 -0.111648716
v -0.2615812 2.363085 -0.116387285
v -0.2716078 2.33861613 0.195737973
v -0.137939453 2.56758428 0.267992526
v -0.137939453 2.56758428 0.267992526
v -0.155762359 2.57557678 -0.111648716
v -0.2615812 2.363085 -0.116387285
v -0.391685873 2.18020177 -0.152047992
v -0.4389393 2.23018122 0.106944188
v -0.2716078 2.33861613 0.195737973
v -0.2716078 2.33861613 0.195737973
v -0.2615812 2.363085 -0.116387285
v -0.391685873 2.18020177 -0.152047992
v -0.376835257 2.17181778 -0.168393582
v -0.440365553 2.17886448 0.06639093
v -0.4389393 2.23018122 0.106944188
v -0.4389393 2.23018122 0.106944188
v -0.391685873 2.18020177 -0.152047992
v -0.376835257 2.17181778 -0.168393582
v -0.376835257 2.17181778 -0.168393582
v -0.2561904 2.20817256 -0.125099272
v -0.311921179 2.20519567 0.08717105
v -0.311921179 2.20519567 0.08717105
v -0.440365553 2.17886448 0.06639093
v -0.376835257 2.17181778 -0.168393582
v -0.0913713947 2.494581 -0.284018
v -0.155762359 2.57557678 -0.111648716
v 0.008842813 2.63174987 -0.117057413
v 0.008842813 2.63174987 -0.117057413
v 0.0103014577 2.50719023 -0.312347919
v -0.0913713947 2.494581 -0.284018
v -0.141200349 2.31717467 -0.227835953
v -0.2615812 2.363085 -0.116387285
v -0.155762359 2.57557678 -0.111648716
v -0.155762359 2.57557678 -0.111648716
v -0.0913713947 2.494581 -0.284018
v -0.141200349 2.31717467 -0.227835953
v -0.148320556 2.186193 -0.2971088
v -0.391685873 2.18020177 -0.152047992
v -0.2615812 2.363085 -0.116387285
v -0.2615812 2.363085 -0.116387285
v -0.141200349 2.31717467 -0.227835953
v -0.148320556 2.186193 -0.2971088
v -0.125378847 2.14267778 -0.257610232
v -0.376835257 2.17181778 -0.168393582
v -0.391685873 2.18020177 -0.152047992
v -0.391685873 2.18020177 -0.152047992
v -0.148320556 2.186193 -0.2971088
v -0.125378847 2.14267778 -0.257610232
v -0.125378847 2.14267778 -0.257610232
v -0.06683605 2.17799234 -0.222844318
v -0.2561904 2.20817256 -0.125099272
v -0.2561904 2.20817256 -0.125099272
v -0.376835257 2.17181778 -0.168393582
v -0.125378847 2.14267778 -0.257610232
v 0.0150128864 2.30525851 -0.286307156
v -0.141200349 2.31717467 -0.227835953
v -0.0913713947 2.494581 -0.284018
v -0.0913713947 2.494581 -0.284018
v 0.0103014577 2.50719023 -0.312347919
v 0.0150128864 2.30525851 -0.286307156
v 0.0178603567 2.16132641 -0.342315346
v -0.148320556 2.186193 -0.2971088
v -0.141200349 2.31717467 -0.227835953
v -0.141200349 2.31717467 -0.227835953
v 0.0150128864 2.30525851 -0.286307156
v 0.0178603567 2.16132641 -0.342315346
v -0.125378847 2.14267778 -0.257610232
v -0.148320556 2.186193 -0.2971088
v 0.0178603567 2.16132641 -0.342315346
v 0.0178603567 2.16132641 -0.342315346
v 0.03745666 2.10971761 -0.2902937
v -0.125378847 2.14267778 -0.257610232
v -0.06683605 2.17799234 -0.222844318
v -0.125378847 2.14267778 -0.257610232
v 0.03745666 2.10971761 -0.2902937
v 0.03745666 2.10971761 -0.2902937
v 0.0391234 2.153418 -0.256886423
v -0.06683605 2.17799234 -0.222844318
v -0.191281065 2.216664 0.108017251
v 0.0168187637 2.08697081 0.263550758
v -0.09068183 2.08218527 0.263444752
v -0.09068183 2.08218527 0.263444752
v -0.311921179 2.20519567 0.08717105
v -0.191281065 2.216664 0.108017251
v -0.2561904 2.20817256 -0.125099272
v -0.131824344 2.28390861 -0.114941776
v -0.191281065 2.216664 0.108017251
v -0.191281065 2.216664 0.108017251
v -0.311921179 2.20519567 0.08717105
v -0.2561904 2.20817256 -0.125099272
v -0.06683605 2.17799234 -0.222844318
v -0.008293525 2.21330667 -0.188078418
v -0.131824344 2.28390861 -0.114941776
v -0.131824344 2.28390861 -0.114941776
v -0.2561904 2.20817256 -0.125099272
v -0.06683605 2.17799234 -0.222844318
v 0.0391234 2.153418 -0.256886423
v 0.04079014 2.19711828 -0.223479122
v -0.008293525 2.21330667 -0.188078418
v -0.008293525 2.21330667 -0.188078418
v -0.06683605 2.17799234 -0.222844318
v 0.0391234 2.153418 -0.256886423
vt 0.302727729 0.804264
vt 0.353504449 0.939377546
vt 0.0191167723 0.9355854
vt 0.0191529654 0.8304985
vt 0.0191513672 0.609101653
vt 0.3036773 0.551828
vt 0.302727729 0.804264
vt 0.302727729 0.804264
vt 0.0191529654 0.8304985
vt 0.0191513672 0.609101653
vt 0.0191505477 0.369591236
vt 0.30269146 0.352802515
vt 0.3036773 0.551828
vt 0.3036773 0.551828
vt 0.0191513672 0.609101653
vt 0.0191505477 0.369591236
vt 0.01915104 0.280311584
vt 0.302892327 0.267129421
vt 0.30269146 0.352802515
vt 0.30269146 0.352802515
vt 0.0191505477 0.369591236
vt 0.01915104 0.280311584
vt 0.302494466 0.196975529
vt 0.302892327 0.267129421
vt 0.01915104 0.280311584
vt 0.01915104 0.280311584
vt 0.0191513523 0.1873805
vt 0.302494466 0.196975529
vt 0.570453465 0.7597041
vt 0.6366739 0.892525136
vt 0.353504449 0.939377546
vt 0.353504449 0.939377546
vt 0.302727729 0.804264
vt 0.570453465 0.7597041
vt 0.5505033 0.5290173
vt 0.570453465 0.7597041
vt 0.302727729 0.804264
vt 0.302727729 0.804264
vt 0.3036773 0.551828
vt 0.5505033 0.5290173
vt 0.5644792 0.3432439
vt 0.5505033 0.5290173
vt 0.3036773 0.551828
vt 0.3036773 0.551828
vt 0.30269146 0.352802515
vt 0.5644792 0.3432439
vt 0.5692717 0.268993139
vt 0.5644792 0.3432439
vt 0.30269146 0.352802515
vt 0.30269146 0.352802515
vt 0.302892327 0.267129421
vt 0.5692717 0.268993139
vt 0.5692717 0.268993139
vt 0.302892327 0.267129421
vt 0.302494466 0.196975529
vt 0.302494466 0.196975529
vt 0.574657261 0.218902946
vt 0.5692717 0.268993139
vt 0.7362765 0.7423669
vt 0.823224843 0.774972558
vt 0.6366739 0.892525136
vt 0.6366739 0.892525136
vt 0.570453465 0.7597041
vt 0.7362765 0.7423669
vt 0.702508748 0.5183169
vt 0.7362765 0.7423669
vt 0.570453465 0.7597041
vt 0.570453465 0.7597041
vt 0.5505033 0.5290173
vt 0.702508748 0.5183169
vt 0.768186569 0.341352165
vt 0.702508748 0.5183169
vt 0.5505033 0.5290173
vt 0.5505033 0.5290173
vt 0.5644792 0.3432439
vt 0.768186569 0.341352165
vt 0.7832989 0.279117227
vt 0.768186569 0.341352165
vt 0.5644792 0.3432439
vt 0.5644792 0.3432439
vt 0.5692717 0.268993139
vt 0.7832989 0.279117227
vt 0.7832989 0.279117227
vt 0.5692717 0.268993139
vt 0.574657261 0.218902946
vt 0.574657261 0.218902946
vt 0.812030852 0.243306279
vt 0.7832989 0.279117227
vt 0.8666991 0.568470061
vt 0.823224843 0.774972558
vt 0.7362765 0.7423669
vt 0.7362765 0.7423669
vt 0.702508748 0.5183169
vt 0.8666991 0.568470061
vt 0.942778945 0.394573331
vt 0.8666991 0.568470061
vt 0.702508748 0.5183169
vt 0.702508748 0.5183169
vt 0.768186569 0.341352165
vt 0.942778945 0.394573331
vt 0.7832989 0.279117227
vt 0.942778945 0.318493545
vt 0.942778945 0.394573331
vt 0.942778945 0.394573331
vt 0.768186569 0.341352165
vt 0.7832989 0.279117227
vt 0.812030852 0.243306279
vt 0.9598139 0.292406559
vt 0.942778945 0.318493545
vt 0.942778945 0.318493545
vt 0.7832989 0.279117227
vt 0.812030852 0.243306279
vt 0.30739826 0.133443
vt 0.302494466 0.196975529
vt 0.0191513523 0.1873805
vt 0.0191513523 0.1873805
vt 0.0191510655 0.10673666
vt 0.30739826 0.133443
vt 0.574657261 0.218902946
vt 0.302494466 0.196975529
vt 0.30739826 0.133443
vt 0.30739826 0.133443
vt 0.578088045 0.167425931
vt 0.574657261 0.218902946
vt 0.812030852 0.243306279
vt 0.574657261 0.218902946
vt 0.578088045 0.167425931
vt 0.578088045 0.167425931
vt 0.839314163 0.209515691
vt 0.812030852 0.243306279
vt 0.9598139 0.292406559
vt 0.812030852 0.243306279
vt 0.839314163 0.209515691
vt 0.839314163 0.209515691
vt 0.9829536 0.260553479
vt 0.9598139 0.292406559
vt 0.302727729 0.804264
vt 0.0191529654 0.8304985
vt 0.0191513672 0.609101653
vt 0.0191529654 0.8304985
vt 0.302727729 0.804264
vt 0.302727729 0.804264
vt 0.3036773 0.551828
vt 0.0191513672 0.609101653
vt 0.0191505477 0.369591236
vt 0.0191513672 0.609101653
vt 0.3036773 0.551828
vt 0.3036773 0.551828
vt 0.30269146 0.352802515
vt 0.0191505477 0.369591236
vt 0.01915104 0.280311584
vt 0.0191505477 0.369591236
vt 0.30269146 0.352802515
vt 0.30269146 0.352802515
vt 0.302892327 0.267129421
vt 0.01915104 0.280311584
vt 0.302494466 0.196975529
vt 0.0191513523 0.1873805
vt 0.01915104 0.280311584
vt 0.01915104 0.280311584
vt 0.302892327 0.267129421
vt 0.302494466 0.196975529
vt 0.570453465 0.7597041
vt 0.302727729 0.804264
vt 0.353504449 0.939377546
vt 0.353504449 0.939377546
vt 0.6366739 0.892525136
vt 0.570453465 0.7597041
vt 0.5505033 0.5290173
vt 0.3036773 0.551828
vt 0.302727729 0.804264
vt 0.302727729 0.804264
vt 0.570453465 0.7597041
vt 0.5505033 0.5290173
vt 0.5644792 0.3432439
vt 0.30269146 0.352802515
vt 0.3036773 0.551828
vt 0.3036773 0.551828
vt 0.5505033 0.5290173
vt 0.5644792 0.3432439
vt 0.5692717 0.268993139
vt 0.302892327 0.267129421
vt 0.30269146 0.352802515
vt 0.30269146 0.352802515
vt 0.5644792 0.3432439
vt 0.5692717 0.268993139
vt 0.5692717 0.268993139
vt 0.574657261 0.218902946
vt 0.302494466 0.196975529
vt 0.302494466 0.196975529
vt 0.302892327 0.267129421
vt 0.5692717 0.268993139
vt 0.7362765 0.7423669
vt 0.570453465 0.7597041
vt 0.6366739 0.892525136
vt 0.6366739 0.892525136
vt 0.823224843 0.774972558
vt 0.7362765 0.7423669
vt 0.702508748 0.5183169
vt 0.5505033 0.5290173
vt 0.570453465 0.7597041
vt 0.570453465 0.7597041
vt 0.7362765 0.7423669
vt 0.702508748 0.5183169
vt 0.768186569 0.341352165
vt 0.5644792 0.3432439
vt 0.5505033 0.5290173
vt 0.5505033 0.5290173
vt 0.702508748 0.5183169
vt 0.768186569 0.341352165
vt 0.7832989 0.279117227
vt 0.5692717 0.268993139
vt 0.5644792 0.3432439
vt 0.5644792 0.3432439
vt 0.768186569 0.341352165
vt 0.7832989 0.279117227
vt 0.7832989 0.279117227
vt 0.812030852 0.243306279
vt 0.574657261 0.218902946
vt 0.574657261 0.218902946
vt 0.5692717 0.268993139
vt 0.7832989 0.279117227
vt 0.8666991 0.568470061
vt 0.702508748 0.5183169
vt 0.7362765 0.7423669
vt 0.7362765 0.7423669
vt 0.823224843 0.774972558
vt 0.8666991 0.568470061
vt 0.942778945 0.394573331
vt 0.768186569 0.341352165
vt 0.702508748 0.5183169
vt 0.702508748 0.5183169
vt 0.8666991 0.568470061
vt 0.942778945 0.394573331
vt 0.7832989 0.279117227
vt 0.768186569 0.341352165
vt 0.942778945 0.394573331
vt 0.942778945 0.394573331
vt 0.942778945 0.318493545
vt 0.7832989 0.279117227
vt 0.812030852 0.243306279
vt 0.7832989 0.279117227
vt 0.942778945 0.318493545
vt 0.942778945 0.318493545
vt 0.9598139 0.292406559
vt 0.812030852 0.243306279
vt 0.30739826 0.133443
vt 0.0191510655 0.10673666
vt 0.0191513523 0.1873805
vt 0.0191513523 0.1873805
vt 0.302494466 0.196975529
vt 0.30739826 0.133443
vt 0.574657261 0.218902946
vt 0.578088045 0.167425931
vt 0.30739826 0.133443
vt 0.30739826 0.133443
vt 0.302494466 0.196975529
vt 0.574657261 0.218902946
vt 0.812030852 0.243306279
vt 0.839314163 0.209515691
vt 0.578088045 0.167425931
vt 0.578088045 0.167425931
vt 0.574657261 0.218902946
vt 0.812030852 0.243306279
vt 0.9598139 0.292406559
vt 0.9829536 0.260553479
vt 0.839314163 0.209515691
vt 0.839314163 0.209515691
vt 0.812030852 0.243306279
vt 0.9598139 0.292406559
vn 0.202189684 0.7367935 0.64517796
vn -0.0122053642 0.7466377 0.6651189
vn -0.0124901477 0.756034851 0.6544122
vn 0.17187269 0.751493454 0.6369595
vn 0.8043989 0.357822746 0.474241853
vn 0.8043989 0.357822746 0.474241853
vn 0.8043989 0.357822746 0.474241853
vn 0.8347882 0.338321656 0.434358329
vn 0.8347882 0.338321656 0.434358329
vn 0.8347882 0.338321656 0.434358329
vn 0.6161487 0.5444335 0.5691686
vn 0.6161487 0.5444335 0.5691686
vn 0.6161487 0.5444335 0.5691686
vn 0.741921961 0.474646837 0.473563284
vn 0.741921961 0.474646837 0.473563284
vn 0.741921961 0.474646837 0.473563284
vn 0.6117594 0.07276407 0.787690163
vn 0.6117594 0.07276407 0.787690163
vn 0.6117594 0.07276407 0.787690163
vn 0.7717732 -0.349429548 0.53128624
vn 0.7717732 -0.349429548 0.53128624
vn 0.7717732 -0.349429548 0.53128624
vn -0.228084877 -0.812476635 -0.5365249
vn -0.228084877 -0.812476635 -0.5365249
vn -0.228084877 -0.812476635 -0.5365249
vn 0.00960334949 -0.898649037 -0.438563257
vn 0.00960334949 -0.898649037 -0.438563257
vn 0.00960334949 -0.898649037 -0.438563257
vn 0.279521465 0.9597741 0.0264856368
vn 0.279521465 0.9597741 0.0264856368
vn 0.279521465 0.9597741 0.0264856368
vn 0.2895542 0.9566541 0.0311657749
vn 0.2895542 0.9566541 0.0311657749
vn 0.2895542 0.9566541 0.0311657749
vn 0.8742042 0.4839711 0.0392302275
vn 0.8742042 0.4839711 0.0392302275
vn 0.8742042 0.4839711 0.0392302275
vn 0.8418348 0.5397353 -0.000174046654
vn 0.8418348 0.5397353 -0.000174046654
vn 0.8418348 0.5397353 -0.000174046654
vn 0.734040856 0.678921342 0.0158057418
vn 0.734040856 0.678921342 0.0158057418
vn 0.734040856 0.678921342 0.0158057418
vn 0.420875758 0.8916213 -0.166958287
vn 0.420875758 0.8916213 -0.166958287
vn 0.420875758 0.8916213 -0.166958287
vn 0.9713222 0.1341399 -0.196315363
vn 0.9713222 0.1341399 -0.196315363
vn 0.9713222 0.1341399 -0.196315363
vn 0.9728525 0.127743766 -0.192975268
vn 0.9728525 0.127743766 -0.192975268
vn 0.9728525 0.127743766 -0.192975268
vn -0.212635949 -0.9762476 0.04155235
vn -0.212635949 -0.9762476 0.04155235
vn -0.212635949 -0.9762476 0.04155235
vn -0.293925762 -0.955730259 0.0136846378
vn -0.293925762 -0.955730259 0.0136846378
vn -0.293925762 -0.955730259 0.0136846378
vn 0.202742 0.8262823 -0.5255028
vn 0.202742 0.8262823 -0.5255028
vn 0.202742 0.8262823 -0.5255028
vn 0.2514581 0.8298041 -0.4981907
vn 0.2514581 0.8298041 -0.4981907
vn 0.2514581 0.8298041 -0.4981907
vn 0.8954799 0.168933 -0.4117977
vn 0.8954799 0.168933 -0.4117977
vn 0.8954799 0.168933 -0.4117977
vn 0.556497157 0.3317846 -0.7617282
vn 0.556497157 0.3317846 -0.7617282
vn 0.556497157 0.3317846 -0.7617282
vn 0.495526254 0.442921281 -0.74717766
vn 0.495526254 0.442921281 -0.74717766
vn 0.495526254 0.442921281 -0.74717766
vn 0.3575582 0.5395043 -0.762290835
vn 0.3575582 0.5395043 -0.762290835
vn 0.3575582 0.5395043 -0.762290835
vn 0.490744174 -0.4386608 -0.7528259
vn 0.490744174 -0.4386608 -0.7528259
vn 0.490744174 -0.4386608 -0.7528259
vn 0.395335317 -0.106829874 -0.9123033
vn 0.395335317 -0.106829874 -0.9123033
vn 0.395335317 -0.106829874 -0.9123033
vn -0.16920127 -0.9051075 0.390065879
vn -0.16920127 -0.9051075 0.390065879
vn -0.16920127 -0.9051075 0.390065879
vn -0.3302041 -0.795954466 0.507367432
vn -0.3302041 -0.795954466 0.507367432
vn -0.3302041 -0.795954466 0.507367432
vn 0.243613049 -0.118452825 -0.962611854
vn 0.243613049 -0.118452825 -0.962611854
vn 0.243613049 -0.118452825 -0.962611854
vn 0.352431476 -0.173536643 -0.919607043
vn 0.352431476 -0.173536643 -0.919607043
vn 0.352431476 -0.173536643 -0.919607043
vn 0.279075384 0.3530228 -0.893023968
vn 0.279075384 0.3530228 -0.893023968
vn 0.279075384 0.3530228 -0.893023968
vn 0.133002266 0.474778354 -0.8699976
vn 0.133002266 0.474778354 -0.8699976
vn 0.133002266 0.474778354 -0.8699976
vn 0.243289232 -0.6412155 -0.727772653
vn 0.243289232 -0.6412155 -0.727772653
vn 0.243289232 -0.6412155 -0.727772653
vn 0.3080975 -0.5162177 -0.7991215
vn 0.3080975 -0.5162177 -0.7991215
vn 0.3080975 -0.5162177 -0.7991215
vn -0.244439423 -0.58300215 0.774827659
vn -0.244439423 -0.58300215 0.774827659
vn -0.244439423 -0.58300215 0.774827659
vn -0.141198352 -0.6929753 0.70699954
vn -0.141198352 -0.6929753 0.70699954
vn -0.141198352 -0.6929753 0.70699954
vn -0.228040919 -0.682349265 -0.694547951
vn -0.228040919 -0.682349265 -0.694547951
vn -0.228040919 -0.682349265 -0.694547951
vn -0.09084645 -0.765552 -0.636927843
vn -0.09084645 -0.765552 -0.636927843
vn -0.09084645 -0.765552 -0.636927843
vn -0.2219052 -0.975068152 -0.000475015782
vn -0.2219052 -0.975068152 -0.000475015782
vn -0.2219052 -0.975068152 -0.000475015782
vn -0.619014859 -0.770181835 -0.153754652
vn -0.619014859 -0.770181835 -0.153754652
vn -0.619014859 -0.770181835 -0.153754652
vn -0.439070523 -0.5622347 0.700791836
vn -0.439070523 -0.5622347 0.700791836
vn -0.439070523 -0.5622347 0.700791836
vn 0.07461719 -0.815256536 0.574272633
vn 0.07461719 -0.815256536 0.574272633
vn 0.07461719 -0.815256536 0.574272633
vn -0.0547087938 -0.923183262 0.380446553
vn -0.0547087938 -0.923183262 0.380446553
vn -0.0547087938 -0.923183262 0.380446553
vn -0.6587092 -0.44093582 0.609653831
vn -0.6587092 -0.44093582 0.609653831
vn -0.6587092 -0.44093582 0.609653831
vn -0.226195842 0.727176845 0.6481121
vn -0.1966854 0.7432193 0.6394841
vn -0.8431027 0.3006562 0.445851624
vn -0.8431027 0.3006562 0.445851624
vn -0.8431027 0.3006562 0.445851624
vn -0.8130773 0.32151258 0.4853195
vn -0.8130773 0.32151258 0.4853195
vn -0.8130773 0.32151258 0.4853195
vn -0.761148036 0.431437969 0.484267443
vn -0.761148036 0.431437969 0.484267443
vn -0.761148036 0.431437969 0.484267443
vn -0.636830866 0.5072811 0.5806137
vn -0.636830866 0.5072811 0.5806137
vn -0.636830866 0.5072811 0.5806137
vn -0.712527156 -0.495253921 0.497019768
vn -0.712527156 -0.495253921 0.497019768
vn -0.712527156 -0.495253921 0.497019768
vn -0.712467134 -0.422776371 0.5600453
vn -0.712467134 -0.422776371 0.5600453
vn -0.712467134 -0.422776371 0.5600453
vn -0.07063502 -0.8574453 -0.5097041
vn -0.07063502 -0.8574453 -0.5097041
vn -0.07063502 -0.8574453 -0.5097041
vn 0.25266245 -0.765760839 -0.5914153
vn 0.25266245 -0.765760839 -0.5914153
vn 0.25266245 -0.765760839 -0.5914153
vn -0.331735551 0.942707241 0.0354205072
vn -0.331735551 0.942707241 0.0354205072
vn -0.331735551 0.942707241 0.0354205072
vn -0.321918875 0.9462725 0.030604871
vn -0.321918875 0.9462725 0.030604871
vn -0.321918875 0.9462725 0.030604871
vn -0.8651297 0.5014159 0.0115171988
vn -0.8651297 0.5014159 0.0115171988
vn -0.8651297 0.5014159 0.0115171988
vn -0.894421339 0.4442683 0.0513432249
vn -0.894421339 0.4442683 0.0513432249
vn -0.894421339 0.4442683 0.0513432249
vn -0.431681156 0.8677712 -0.246220335
vn -0.431681156 0.8677712 -0.246220335
vn -0.431681156 0.8677712 -0.246220335
vn -0.816441357 0.5771152 0.0190156475
vn -0.816441357 0.5771152 0.0190156475
vn -0.816441357 0.5771152 0.0190156475
vn -0.9371823 0.231950715 -0.260553628
vn -0.9371823 0.231950715 -0.260553628
vn -0.9371823 0.231950715 -0.260553628
vn -0.4011065 -0.9102809 0.102480613
vn -0.4011065 -0.9102809 0.102480613
vn -0.4011065 -0.9102809 0.102480613
vn 0.269179761 -0.961390436 0.0571895465
vn 0.269179761 -0.961390436 0.0571895465
vn 0.269179761 -0.961390436 0.0571895465
vn 0.1877137 -0.978946149 0.08017499
vn 0.1877137 -0.978946149 0.08017499
vn 0.1877137 -0.978946149 0.08017499
vn -0.295237333 0.8175318 -0.494445741
vn -0.295237333 0.8175318 -0.494445741
vn -0.295237333 0.8175318 -0.494445741
vn -0.246789381 0.8161912 -0.5224241
vn -0.246789381 0.8161912 -0.5224241
vn -0.246789381 0.8161912 -0.5224241
vn -0.5812003 0.306244969 -0.75393647
vn -0.5812003 0.306244969 -0.75393647
vn -0.5812003 0.306244969 -0.75393647
vn -0.907711744 0.128453672 -0.399448425
vn -0.907711744 0.128453672 -0.399448425
vn -0.907711744 0.128453672 -0.399448425
vn -0.459555477 0.473454446 -0.7514317
vn -0.459555477 0.473454446 -0.7514317
vn -0.459555477 0.473454446 -0.7514317
vn -0.5250845 0.42001003 -0.7401877
vn -0.5250845 0.42001003 -0.7401877
vn -0.5250845 0.42001003 -0.7401877
vn -0.08329397 0.853932 -0.513675153
vn -0.08329397 0.853932 -0.513675153
vn -0.08329397 0.853932 -0.513675153
vn -0.339933753 -0.724018037 -0.6002024
vn -0.339933753 -0.724018037 -0.6002024
vn -0.339933753 -0.724018037 -0.6002024
vn 0.158884764 -0.813763261 0.5590572
vn 0.158884764 -0.813763261 0.5590572
vn 0.158884764 -0.813763261 0.5590572
vn 0.07878023 -0.860609949 0.50313437
vn 0.07878023 -0.860609949 0.50313437
vn 0.07878023 -0.860609949 0.50313437
vn -0.356846243 -0.189458951 -0.9147492
vn -0.356846243 -0.189458951 -0.9147492
vn -0.356846243 -0.189458951 -0.9147492
vn -0.251207978 -0.129560843 -0.959222853
vn -0.251207978 -0.129560843 -0.959222853
vn -0.251207978 -0.129560843 -0.959222853
vn -0.166071147 0.468063921 -0.8679496
vn -0.166071147 0.468063921 -0.8679496
vn -0.166071147 0.468063921 -0.8679496
vn -0.3068345 0.339870036 -0.8890112
vn -0.3068345 0.339870036 -0.8890112
vn -0.3068345 0.339870036 -0.8890112
vn -0.2801408 -0.7219709 -0.6326762
vn -0.2801408 -0.7219709 -0.6326762
vn -0.2801408 -0.7219709 -0.6326762
vn -0.2734078 -0.7323875 -0.6235838
vn -0.2734078 -0.7323875 -0.6235838
vn -0.2734078 -0.7323875 -0.6235838
vn 0.0007705127 -0.7021977 0.711981654
vn 0.0007705127 -0.7021977 0.711981654
vn 0.0007705127 -0.7021977 0.711981654
vn 0.112368375 -0.606182039 0.787347853
vn 0.112368375 -0.606182039 0.787347853
vn 0.112368375 -0.606182039 0.787347853
vn 0.0338157825 -0.744864762 -0.666358054
vn 0.0338157825 -0.744864762 -0.666358054
vn 0.0338157825 -0.744864762 -0.666358054
vn 0.187164038 -0.6796887 -0.709219933
vn 0.187164038 -0.6796887 -0.709219933
vn 0.187164038 -0.6796887 -0.709219933
vn 0.523506165 -0.8442233 -0.115014136
vn 0.523506165 -0.8442233 -0.115014136
vn 0.523506165 -0.8442233 -0.115014136
vn 0.09284766 -0.995625854 0.0104140807
vn 0.09284766 -0.995625854 0.0104140807
vn 0.09284766 -0.995625854 0.0104140807
vn 0.0106217749 -0.710398853 0.703719139
vn 0.0106217749 -0.710398853 0.703719139
vn 0.0106217749 -0.710398853 0.703719139
vn 0.295679 -0.5866494 0.7539339
vn 0.295679 -0.5866494 0.7539339
vn 0.295679 -0.5866494 0.7539339
vn 0.3428036 -0.578746855 0.739958
vn 0.3428036 -0.578746855 0.739958
vn 0.3428036 -0.578746855 0.739958
vn 0.04521291 -0.737894356 0.6734001
vn 0.04521291 -0.737894356 0.6734001
vn 0.04521291 -0.737894356 0.6734001
usemtl 0001011601_part_0_material_0
f 1/1/1 2/2/2 3/3/3
f 3/3/3 4/4/4 1/1/1
f 5/5/5 6/6/6 7/7/7
f 8/8/8 9/9/9 10/10/10
f 11/11/11 12/12/12 13/13/13
f 14/14/14 15/15/15 16/16/16
f 17/17/17 18/18/18 19/19/19
f 20/20/20 21/21/21 22/22/22
f 23/23/23 24/24/24 25/25/25
f 26/26/26 27/27/27 28/28/28
f 29/29/29 30/30/30 31/31/31
f 32/32/32 33/33/33 34/34/34
f 35/35/35 36/36/36 37/37/37
f 38/38/38 39/39/39 40/40/40
f 41/41/41 42/42/42 43/43/43
f 44/44/44 45/45/45 46/46/46
f 47/47/47 48/48/48 49/49/49
f 50/50/50 51/51/51 52/52/52
f 53/53/53 54/54/54 55/55/55
f 56/56/56 57/57/57 58/58/58
f 59/59/59 60/60/60 61/61/61
f 62/62/62 63/63/63 64/64/64
f 65/65/65 66/66/66 67/67/67
f 68/68/68 69/69/69 70/70/70
f 71/71/71 72/72/72 73/73/73
f 74/74/74 75/75/75 76/76/76
f 77/77/77 78/78/78 79/79/79
f 80/80/80 81/81/81 82/82/82
f 83/83/83 84/84/84 85/85/85
f 86/86/86 87/87/87 88/88/88
f 89/89/89 90/90/90 91/91/91
f 92/92/92 93/93/93 94/94/94
f 95/95/95 96/96/96 97/97/97
f 98/98/98 99/99/99 100/100/100
f 101/101/101 102/102/102 103/103/103
f 104/104/104 105/105/105 106/106/106
f 107/107/107 108/108/108 109/109/109
f 110/110/110 111/111/111 112/112/112
f 113/113/113 114/114/114 115/115/115
f 116/116/116 117/117/117 118/118/118
f 119/119/119 120/120/120 121/121/121
f 122/122/122 123/123/123 124/124/124
f 125/125/125 126/126/126 127/127/127
f 128/128/128 129/129/129 130/130/130
f 131/131/131 132/132/132 133/133/133
f 134/134/134 135/135/135 136/136/136
f 137/137/137 138/138/138 3/3/3
f 3/3/3 2/2/2 137/137/137
f 139/139/139 140/140/140 141/141/141
f 142/142/142 143/143/143 144/144/144
f 145/145/145 146/146/146 147/147/147
f 148/148/148 149/149/149 150/150/150
f 151/151/151 152/152/152 153/153/153
f 154/154/154 155/155/155 156/156/156
f 157/157/157 158/158/158 159/159/159
f 160/160/160 161/161/161 162/162/162
f 163/163/163 164/164/164 165/165/165
f 166/166/166 167/167/167 168/168/168
f 169/169/169 170/170/170 171/171/171
f 172/172/172 173/173/173 174/174/174
f 175/175/175 176/176/176 177/177/177
f 178/178/178 179/179/179 180/180/180
f 181/181/181 182/182/182 183/183/183
f 184/184/184 185/185/185 186/186/186
f 187/187/187 188/188/188 189/189/189
f 190/190/190 191/191/191 192/192/192
f 193/193/193 194/194/194 195/195/195
f 196/196/196 197/197/197 198/198/198
f 199/199/199 200/200/200 201/201/201
f 202/202/202 203/203/203 204/204/204
f 205/205/205 206/206/206 207/207/207
f 208/208/208 209/209/209 210/210/210
f 211/211/211 212/212/212 213/213/213
f 214/214/214 215/215/215 216/216/216
f 217/217/217 218/218/218 219/219/219
f 220/220/220 221/221/221 222/222/222
f 223/223/223 224/224/224 225/225/225
f 226/226/226 227/227/227 228/228/228
f 229/229/229 230/230/230 231/231/231
f 232/232/232 233/233/233 234/234/234
f 235/235/235 236/236/236 237/237/237
f 238/238/238 239/239/239 240/240/240
f 241/241/241 242/242/242 243/243/243
f 244/244/244 245/245/245 246/246/246
f 247/247/247 248/248/248 249/249/249
f 250/250/250 251/251/251 252/252/252
f 253/253/253 254/254/254 255/255/255
f 256/256/256 257/257/257 258/258/258
f 259/259/259 260/260/260 261/261/261
f 262/262/262 263/263/263 264/264/264
f 265/265/265 266/266/266 267/267/267
f 268/268/268 269/269/269 270/270/270
