mtllib 0001491003.mtl
o 0001491003_part_0
v 0.6857048 1.43080235 0.150292486
v 0.5615331 1.64304233 0.0294546746
v 0.531204045 1.490025 0.115072772
v 0.584663153 1.56155884 -0.3481969
v 0.53109926 1.343861 -0.141567558
v 0.5210916 1.61518037 -0.130106434
v 0.7640328 1.5463773 -0.314932436
v 0.744709432 1.25081837 -0.248653308
v 0.841640949 1.18761992 0.154948771
v 0.850441456 1.58942842 -0.202154264
v 0.8910726 1.3764019 0.030206833
v 0.8554847 1.31210685 -0.1780694
v 0.4929448 1.17877817 0.1262043
v 0.5735864 1.324914 0.191324934
v 0.531204045 1.490025 0.115072772
v 0.5735864 1.324914 0.191324934
v 0.656441152 1.20271862 0.2001354
v 0.9162514 1.14004791 -0.154252112
v 0.822936654 1.13318884 -0.201854542
v 0.8772471 0.9231154 0.06621778
v 0.9106749 0.953945458 0.144786954
v 0.740916669 0.829071045 0.12029995
v 0.7462057 0.82015574 0.06486659
v 0.8109817 1.03392315 -0.1831953
v 0.76061666 0.950878441 0.048872076
v 0.7844389 1.11912239 0.1634815
v 0.8196041 0.9714658 0.159282237
v 0.6994399 0.8750914 0.132792145
v 0.5336341 1.220723 0.2566706
v 0.47844097 1.08370519 0.3062128
v 0.5919827 1.09091711 0.316766769
v 0.6994399 0.8750914 0.132792145
v 0.8196041 0.9714658 0.159282237
v 0.7033515 0.8553611 0.03147022
v 0.7462057 0.82015574 0.06486659
v 0.740916669 0.829071045 0.12029995
v 0.533442438 1.0328095 0.255513
v 0.7226904 1.11153042 0.2016468
v 0.47844097 1.08370519 0.3062128
v 0.5336341 1.220723 0.2566706
v 0.7226904 1.11153042 0.2016468
v 0.533442438 1.0328095 0.255513
v 0.9524915 1.17342842 0.08158638
v 0.688876033 0.927495539 -0.182921916
v 0.613365948 0.9171983 0.009240611
v 0.641951859 0.8559905 0.0069756913
v 0.76061666 0.950878441 0.048872076
v 0.641951859 0.8559905 0.0069756913
v 0.613365948 0.9171983 0.009240611
v 0.7033515 0.8553611 0.03147022
v 0.780978858 1.77207589 -0.345260769
v 0.8576463 1.87638915 -0.1343157
v 0.7640328 1.5463773 -0.314932436
v 0.6740524 1.35190868 0.126477629
v 0.7229723 1.27052712 0.100087211
v 0.8954671 1.38295519 0.286740184
v 0.7229723 1.27052712 0.100087211
v 0.786808133 1.32484508 0.0477979481
v 0.8954671 1.38295519 0.286740184
v 0.786808133 1.32484508 0.0477979481
v 0.741994 1.41941381 0.109256685
v 0.8954671 1.38295519 0.286740184
v 0.741994 1.41941381 0.109256685
v 0.6740524 1.35190868 0.126477629
v 0.8954671 1.38295519 0.286740184
v 0.814653635 1.321462 0.06672278
v 0.835362256 1.24534035 0.00406597368
v 1.08380723 1.40620136 0.0331491381
v 0.835362256 1.24534035 0.00406597368
v 0.8460589 1.29975057 -0.07440764
v 1.08380723 1.40620136 0.0331491381
v 0.8460589 1.29975057 -0.07440764
v 0.856871247 1.39041066 0.00283402624
v 1.08380723 1.40620136 0.0331491381
v 0.856871247 1.39041066 0.00283402624
v 0.814653635 1.321462 0.06672278
v 1.08380723 1.40620136 0.0331491381
v 0.8460589 1.29975057 -0.07440764
v 0.8156657 1.21227884 -0.130072623
v 0.9970047 1.36100948 -0.306454778
v 0.8156657 1.21227884 -0.130072623
v 0.7630875 1.26885664 -0.192669988
v 0.9970047 1.36100948 -0.306454778
v 0.7630875 1.26885664 -0.192669988
v 0.813477159 1.344527 -0.164900035
v 0.9970047 1.36100948 -0.306454778
v 0.813477159 1.344527 -0.164900035
v 0.8460589 1.29975057 -0.07440764
v 0.9970047 1.36100948 -0.306454778
v 0.863308549 0.9824326 -0.159802824
v 0.7844389 1.11912239 0.1634815
v 0.688876033 0.927495539 -0.182921916
v 0.848574042 1.64623117 -0.084568426
v 0.8576463 1.87638915 -0.1343157
v 0.7014878 1.66393554 0.03754305
v 0.5615331 1.64304233 0.0294546746
v 0.688283861 1.912453 0.0363664068
v 0.8311702 1.84610033 -0.363998443
v -0.609088361 1.42852592 0.1000745
v -0.4595318 1.500994 0.0880456
v -0.499771863 1.65797687 -0.004986077
v -0.4589449 1.57744324 -0.381340653
v -0.434149563 1.63725233 -0.157090545
v -0.406414956 1.35247016 -0.161657736
v -0.5887794 1.23813188 -0.29826656
v -0.6374789 1.53783 -0.373162955
v -0.7501138 1.18376756 0.08814506
v -0.7437467 1.56779349 -0.273925424
v -0.7121145 1.29100323 -0.248058915
v -0.784804165 1.35541773 -0.0498966537
v -0.4595318 1.500994 0.0880456
v -0.5009484 1.32229912 0.170892373
v -0.425410837 1.156465 0.137214467
v -0.5009484 1.32229912 0.170892373
v -0.6097778 1.17549014 0.161741823
v -0.668953955 1.11245251 -0.257139027
v -0.769737244 1.12203181 -0.226799265
v -0.7718693 0.9140317 0.00684169028
v -0.644786239 0.8102368 0.0329703
v -0.648750663 0.821953058 0.08799121
v -0.818335354 0.9485759 0.0769217759
v -0.695099235 1.115454 0.1096061
v -0.6528177 0.940910935 0.008717279
v -0.661307 1.01361442 -0.232142091
v -0.6084664 0.868451238 0.105346844
v -0.730338931 0.966866255 0.1061631
v -0.489594221 1.21849144 0.247162059
v -0.6192602 1.04180288 0.2846343
v -0.4750446 0.9771484 0.29407984
v -0.6084664 0.868451238 0.105346844
v -0.730338931 0.966866255 0.1061631
v -0.59484 0.8439516 0.00586656574
v -0.644786239 0.8102368 0.0329703
v -0.648750663 0.821953058 0.08799121
v -0.61436826 1.08967769 0.156363219
v -0.5287572 0.942126036 0.230087221
v -0.489594221 1.21849144 0.247162059
v -0.4750446 0.9771484 0.29407984
v -0.61436826 1.08967769 0.156363219
v -0.5287572 0.942126036 0.230087221
v -0.8476192 1.16611528 -0.002525807
v -0.501406252 0.9034599 -0.00321170548
v -0.5425008 0.90525794 -0.205817491
v -0.530529559 0.8425994 -0.007629913
v -0.6528177 0.940910935 0.008717279
v -0.530529559 0.8425994 -0.007629913
v -0.501406252 0.9034599 -0.00321170548
v -0.59484 0.8439516 0.00586656574
v -0.6802328 1.75897336 -0.408033431
v -0.6374789 1.53783 -0.373162955
v -0.7987344 1.85036993 -0.210792258
v -0.5880645 1.35124183 0.08049692
v -0.8356296 1.37867415 0.1998145
v -0.6245202 1.26682568 0.0485357158
v -0.6245202 1.26682568 0.0485357158
v -0.8356296 1.37867415 0.1998145
v -0.6824672 1.31379545 -0.0146316569
v -0.6824672 1.31379545 -0.0146316569
v -0.8356296 1.37867415 0.1998145
v -0.65639925 1.41193366 0.0508163646
v -0.65639925 1.41193366 0.0508163646
v -0.8356296 1.37867415 0.1998145
v -0.5880645 1.35124183 0.08049692
v -0.712182641 1.30848694 -0.000339029357
v -0.9772391 1.38574934 -0.08341246
v -0.716218352 1.23061323 -0.06362726
v -0.716218352 1.23061323 -0.06362726
v -0.9772391 1.38574934 -0.08341246
v -0.7184601 1.281712 -0.144033521
v -0.7184601 1.281712 -0.144033521
v -0.9772391 1.38574934 -0.08341246
v -0.7484426 1.37151587 -0.07174904
v -0.7484426 1.37151587 -0.07174904
v -0.9772391 1.38574934 -0.08341246
v -0.712182641 1.30848694 -0.000339029357
v -0.7184601 1.281712 -0.144033521
v -0.8313466 1.32966793 -0.4003952
v -0.673550546 1.19681871 -0.191634834
v -0.673550546 1.19681871 -0.191634834
v -0.8313466 1.32966793 -0.4003952
v -0.6168824 1.25572491 -0.24653843
v -0.6168824 1.25572491 -0.24653843
v -0.8313466 1.32966793 -0.4003952
v -0.6760917 1.326749 -0.229142129
v -0.6760917 1.326749 -0.229142129
v -0.8313466 1.32966793 -0.4003952
v -0.7184601 1.281712 -0.144033521
v -0.717855036 0.96301043 -0.215830117
v -0.695099235 1.115454 0.1096061
v -0.5425008 0.90525794 -0.205817491
v -0.641019166 1.65966189 -0.0166307651
v -0.7987344 1.85036993 -0.210792258
v -0.7659433 1.62328792 -0.157804146
v -0.499771863 1.65797687 -0.004986077
v -0.661553562 1.9076643 -0.0185585637
v -0.7370618 1.82612777 -0.434125721
vt 0.213568926 0.483210921
vt 0.124286346 0.7421875
vt 0.12890625 0.50390625
vt 0.662641764 0.7439642
vt 0.70703125 0.483534932
vt 0.7062991 0.747375965
vt 0.501722455 0.7393443
vt 0.521846 0.442631364
vt 0.219655618 0.321461678
vt 0.401831061 0.7447473
vt 0.3046875 0.4609375
vt 0.4296875 0.45703125
vt 0.88588357 0.3370493
vt 0.910149038 0.43157506
vt 0.8515625 0.50390625
vt 0.07257798 0.423730373
vt 0.13718915 0.313129723
vt 0.446404636 0.323345065
vt 0.558164 0.319111347
vt 0.28125 0.153435886
vt 0.220039189 0.171887815
vt 0.207551047 0.05767286
vt 0.271087438 0.0510140061
vt 0.5541125 0.192581773
vt 0.739622235 0.12814647
vt 0.824991465 0.283449233
vt 0.187483862 0.167343915
vt 0.1863023 0.08369839
vt 0.0286954977 0.340388834
vt 0.0254455246 0.1464631
vt 0.06180898 0.194405317
vt 0.810387552 0.0578078628
vt 0.805527031 0.122679472
vt 0.7337976 0.0483518243
vt 0.7469172 0.0234216452
vt 0.789379656 0.0266990662
vt 0.07467722 0.131677032
vt 0.157803848 0.26323694
vt 0.985309064 0.172723532
vt 0.948748946 0.363617659
vt 0.8436252 0.256146431
vt 0.926685452 0.144042432
vt 0.2843514 0.324836731
vt 0.5851312 0.124482572
vt 0.7436492 0.104311466
vt 0.730605841 0.0511283278
vt 0.282627285 0.0878453851
vt 0.290522516 0.04588729
vt 0.280935884 0.0536152124
vt 0.279317647 0.0540674925
vt 0.492732525 0.8760507
vt 0.31343767 0.989164233
vt 0.501754045 0.7393443
vt 0.672611654 0.774427354
vt 0.7502687 0.774414361
vt 0.672332 0.9866003
vt 0.7502687 0.774414361
vt 0.67257154 0.774434865
vt 0.672332 0.9866003
vt 0.67257154 0.774434865
vt 0.596440256 0.774371
vt 0.672332 0.9866003
vt 0.596440256 0.774371
vt 0.672611654 0.774427354
vt 0.672332 0.9866003
vt 0.672611654 0.774427354
vt 0.7502687 0.774414361
vt 0.672332 0.9866003
vt 0.7502687 0.774414361
vt 0.67257154 0.774434865
vt 0.672332 0.9866003
vt 0.67257154 0.774434865
vt 0.596440256 0.774371
vt 0.672332 0.9866003
vt 0.596440256 0.774371
vt 0.672611654 0.774427354
vt 0.672332 0.9866003
vt 0.672611654 0.774427354
vt 0.7502687 0.774414361
vt 0.672332 0.9866003
vt 0.7502687 0.774414361
vt 0.67257154 0.774434865
vt 0.672332 0.9866003
vt 0.67257154 0.774434865
vt 0.596440256 0.774371
vt 0.672332 0.9866003
vt 0.596440256 0.774371
vt 0.672611654 0.774427354
vt 0.672332 0.9866003
vt 0.4481266 0.214340985
vt 0.166966647 0.276061416
vt 0.464141428 0.08973354
vt 0.3046875 0.75
vt 0.3124339 0.990839362
vt 0.207307756 0.745782852
vt 0.83984375 0.7578125
vt 0.169304758 0.9892165
vt 0.486503482 0.9704419
vt 0.213568926 0.483210921
vt 0.12890625 0.50390625
vt 0.124286346 0.7421875
vt 0.662641764 0.7439642
vt 0.7062991 0.747375965
vt 0.70703125 0.483534932
vt 0.521846 0.442631364
vt 0.501722455 0.7393443
vt 0.219655618 0.321461678
vt 0.401831061 0.7447473
vt 0.4296875 0.45703125
vt 0.3046875 0.4609375
vt 0.8515625 0.50390625
vt 0.910149038 0.43157506
vt 0.88588357 0.3370493
vt 0.07257798 0.423730373
vt 0.13718915 0.313129723
vt 0.558164 0.319111347
vt 0.446404636 0.323345065
vt 0.28125 0.153435886
vt 0.271087438 0.0510140061
vt 0.207551047 0.05767286
vt 0.220039189 0.171887815
vt 0.824991465 0.283449233
vt 0.739622235 0.12814647
vt 0.5541125 0.192581773
vt 0.1863023 0.08369839
vt 0.187483862 0.167343915
vt 0.0286954977 0.340388834
vt 0.06180898 0.194405317
vt 0.0254455246 0.1464631
vt 0.810387552 0.0578078628
vt 0.805527031 0.122679472
vt 0.7337976 0.0483518243
vt 0.7469172 0.0234216452
vt 0.789379656 0.0266990662
vt 0.157803848 0.26323694
vt 0.07467722 0.131677032
vt 0.948748946 0.363617659
vt 0.985309064 0.172723532
vt 0.8436252 0.256146431
vt 0.926685452 0.144042432
vt 0.2843514 0.324836731
vt 0.7436492 0.104311466
vt 0.5851312 0.124482572
vt 0.730605841 0.0511283278
vt 0.282627285 0.0878453851
vt 0.290522516 0.04588729
vt 0.280935884 0.0536152124
vt 0.279317647 0.0540674925
vt 0.492732525 0.8760507
vt 0.501754045 0.7393443
vt 0.31343767 0.989164233
vt 0.672611654 0.774427354
vt 0.672332 0.9866003
vt 0.7502687 0.774414361
vt 0.7502687 0.774414361
vt 0.672332 0.9866003
vt 0.67257154 0.774434865
vt 0.67257154 0.774434865
vt 0.672332 0.9866003
vt 0.596440256 0.774371
vt 0.596440256 0.774371
vt 0.672332 0.9866003
vt 0.672611654 0.774427354
vt 0.672611654 0.774427354
vt 0.672332 0.9866003
vt 0.7502687 0.774414361
vt 0.7502687 0.774414361
vt 0.672332 0.9866003
vt 0.67257154 0.774434865
vt 0.67257154 0.774434865
vt 0.672332 0.9866003
vt 0.596440256 0.774371
vt 0.596440256 0.774371
vt 0.672332 0.9866003
vt 0.672611654 0.774427354
vt 0.672611654 0.774427354
vt 0.672332 0.9866003
vt 0.7502687 0.774414361
vt 0.7502687 0.774414361
vt 0.672332 0.9866003
vt 0.67257154 0.774434865
vt 0.67257154 0.774434865
vt 0.672332 0.9866003
vt 0.596440256 0.774371
vt 0.596440256 0.774371
vt 0.672332 0.9866003
vt 0.672611654 0.774427354
vt 0.4481266 0.214340985
vt 0.166966647 0.276061416
vt 0.464141428 0.08973354
vt 0.207307756 0.745782852
vt 0.3124339 0.990839362
vt 0.3046875 0.75
vt 0.83984375 0.7578125
vt 0.169304758 0.9892165
vt 0.486503482 0.9704419
vn 0.109333567 0.19537209 0.974615753
vn -0.5780802 0.2678234 0.7707749
vn -0.728773057 0.255583853 0.635269
vn -0.560735345 -0.281623572 -0.7786296
vn -0.8621196 -0.400213778 -0.3107711
vn -0.998758435 -0.03819056 0.0319850221
vn 0.6002834 -0.1594647 -0.7837288
vn -0.05359024 -0.426081926 -0.903095961
vn 0.387046665 0.183815554 0.9035523
vn 0.9449263 -0.00257805525 -0.327272952
vn 0.87280643 0.32073772 0.367880762
vn 0.8275585 0.0434014425 -0.5596992
vn -0.87352 -0.304981261 -0.379406452
vn -0.225965887 0.588193059 0.776510358
vn -0.728773057 0.255583853 0.635269
vn -0.225965887 0.588193059 0.776510358
vn 0.402101725 0.3810613 0.8325302
vn 0.850045562 -0.0503869653 -0.5242935
vn -0.174962536 -0.357653946 -0.9173177
vn 0.7116935 -0.6765527 -0.189126208
vn 0.7508718 -0.386803269 0.5353268
vn -0.10218294 -0.8464685 0.5225416
vn 0.06361464 -0.920282841 -0.386047542
vn -0.454669654 0.0509864 -0.889199555
vn -0.879563868 0.424996585 0.2138815
vn -0.2798713 -0.4100684 0.868052959
vn -0.283175617 -0.06275999 0.9570124
vn -0.8102411 -0.0209360123 0.5857227
vn -0.383806378 0.6029237 0.699411
vn -0.7553483 -0.258169 0.60232687
vn 0.35296154 -0.216293514 0.910294056
vn -0.8102411 -0.0209360123 0.5857227
vn -0.283175617 -0.06275999 0.9570124
vn -0.57753396 -0.247578025 -0.777920067
vn 0.06361464 -0.920282841 -0.386047542
vn -0.10218294 -0.8464685 0.5225416
vn -0.18598704 -0.9799948 -0.07084547
vn 0.600967348 -0.6718837 0.4329094
vn -0.7553483 -0.258169 0.60232687
vn -0.383806378 0.6029237 0.699411
vn 0.600967348 -0.6718837 0.4329094
vn -0.18598704 -0.9799948 -0.07084547
vn 0.9328831 0.110942639 0.342667371
vn -0.569601238 -0.192301065 -0.799108744
vn -0.8744008 0.319043547 0.365560442
vn -0.4265053 -0.8503862 0.308117777
vn -0.879563868 0.424996585 0.2138815
vn -0.4265053 -0.8503862 0.308117777
vn -0.8744008 0.319043547 0.365560442
vn -0.57753396 -0.247578025 -0.777920067
vn 0.9261006 -0.236881912 -0.293640256
vn 0.958711 -0.0155303506 0.2839577
vn 0.6002834 -0.1594647 -0.7837288
vn -0.4560462 -0.510525167 0.728962243
vn -0.4560462 -0.510525167 0.728962243
vn -0.4560462 -0.510525167 0.728962243
vn 0.6055607 -0.7914699 -0.08289532
vn 0.6055607 -0.7914699 -0.08289532
vn 0.6055607 -0.7914699 -0.08289532
vn 0.6603229 0.6034343 -0.447035432
vn 0.6603229 0.6034343 -0.447035432
vn 0.6603229 0.6034343 -0.447035432
vn -0.50281477 0.6511044 0.568542361
vn -0.50281477 0.651104331 0.568542361
vn -0.50281477 0.651104331 0.568542361
vn 0.274989158 -0.565316 0.7776881
vn 0.274989158 -0.565316 0.7776881
vn 0.274989158 -0.565316 0.7776881
vn 0.5245892 -0.731448233 -0.435648531
vn 0.5245892 -0.731448233 -0.435648531
vn 0.5245892 -0.731448233 -0.435648561
vn 0.0571886227 0.6435062 -0.7633015
vn 0.0571886264 0.6435062 -0.7633015
vn 0.0571886227 0.6435062 -0.7633015
vn -0.1410148 0.717965841 0.681645
vn -0.141014785 0.717965841 0.681645
vn -0.141014785 0.717965841 0.681645
vn 0.7775938 -0.5069167 0.371999145
vn 0.7775938 -0.5069167 0.371999145
vn 0.7775938 -0.5069167 0.3719991
vn -0.0243903361 -0.7517618 -0.6589835
vn -0.0243903361 -0.7517618 -0.6589836
vn -0.0243903343 -0.7517618 -0.6589835
vn -0.5295923 0.5798634 -0.619104564
vn -0.5295923 0.5798634 -0.619104564
vn -0.5295923 0.5798634 -0.619104564
vn 0.206587955 0.90447396 0.373159826
vn 0.206587955 0.90447396 0.373159826
vn 0.206587955 0.90447396 0.373159826
vn 0.6107596 -0.532556832 -0.585965753
vn -0.2798713 -0.4100684 0.868052959
vn -0.569601238 -0.192301065 -0.799108744
vn 0.9031824 0.155615121 0.400056928
vn 0.958711 -0.0155303506 0.2839577
vn 0.341898143 0.2211994 0.913332641
vn -0.5780802 0.2678234 0.7707749
vn 0.5489403 0.03312001 0.835205138
vn 0.8250695 -0.564654 -0.0206454787
vn -0.2684913 0.180715472 0.9461788
vn 0.6070149 0.33707127 0.7196637
vn 0.425259948 0.330247879 0.842668533
vn 0.697618842 -0.196917 -0.6888771
vn 0.9813625 0.09287576 0.168231115
vn 0.9354673 -0.311519176 -0.166903347
vn 0.247505486 -0.4429047 -0.8617288
vn -0.458369523 -0.23522602 -0.8570683
vn -0.548981369 0.214765608 0.807771742
vn -0.8814405 -0.1306563 -0.453862876
vn -0.7231988 -0.04414966 -0.689227343
vn -0.9432148 0.25357002 0.214588284
vn 0.6070149 0.33707127 0.7196637
vn 0.185301319 0.558066845 0.808841646
vn 0.9329362 -0.306498379 -0.188914821
vn 0.185301319 0.558066845 0.808841646
vn -0.6309561 0.3126367 0.7100371
vn 0.364583462 -0.394900054 -0.843286932
vn -0.7453964 -0.0872466 -0.660887539
vn -0.674850345 -0.6823944 -0.2809181
vn -0.0150469737 -0.936768055 -0.3496273
vn -0.00493265456 -0.8197778 0.572660446
vn -0.8352913 -0.361048341 0.4146474
vn 0.105787612 -0.413872719 0.904167235
vn 0.8338932 0.431268752 0.344426274
vn 0.604380846 0.009052313 -0.7966441
vn 0.69655937 -0.0009581596 0.717498541
vn 0.11400263 -0.0170635842 0.9933339
vn 0.265202641 0.500849 0.823904
vn -0.7634443 -0.17699948 0.621147335
vn 0.556047857 -0.5329139 0.63781935
vn 0.69655937 -0.0009581596 0.717498541
vn 0.11400263 -0.0170635842 0.9933339
vn 0.7023398 -0.2898625 -0.6501526
vn -0.0150469737 -0.936768055 -0.3496273
vn -0.00493265456 -0.8197778 0.572660446
vn -0.6454082 -0.6156075 -0.452189833
vn -0.04124793 -0.9759362 -0.2141196
vn 0.265202641 0.500849 0.823904
vn 0.556047857 -0.5329139 0.63781935
vn -0.6454082 -0.6156075 -0.452189833
vn -0.04124793 -0.9759362 -0.2141196
vn -0.9777119 0.117941841 0.173692688
vn 0.804872334 0.3250762 0.496493727
vn 0.6956197 -0.237011671 -0.6781878
vn 0.350667179 -0.839 0.4160667
vn 0.8338932 0.431268752 0.344426274
vn 0.350667179 -0.839 0.4160667
vn 0.804872334 0.3250762 0.496493727
vn 0.7023398 -0.2898625 -0.6501526
vn -0.83616364 -0.3562155 -0.417062223
vn -0.458369523 -0.23522602 -0.8570683
vn -0.978031158 -0.146975517 0.147828534
vn 0.3440223 -0.4587539 0.819264
vn 0.3440223 -0.458753854 0.819264
vn 0.3440223 -0.458753884 0.819264
vn -0.535191238 -0.834712744 -0.129711241
vn -0.535191238 -0.834712744 -0.129711241
vn -0.535191238 -0.834712744 -0.129711241
vn -0.59185183 0.5501091 -0.5891446
vn -0.59185183 0.550109148 -0.5891446
vn -0.59185183 0.5501091 -0.5891446
vn 0.368414849 0.708923042 0.6014139
vn 0.368414849 0.708923 0.6014139
vn 0.368414849 0.708923042 0.601413846
vn -0.392319232 -0.5677953 0.723667145
vn -0.392319262 -0.5677953 0.723667145
vn -0.392319262 -0.5677953 0.723667145
vn -0.421737373 -0.770536363 -0.477923959
vn -0.421737373 -0.770536363 -0.477923959
vn -0.421737373 -0.770536363 -0.47792393
vn 0.07879539 0.6409096 -0.7635615
vn 0.07879539 0.6409096 -0.7635615
vn 0.07879539 0.6409096 -0.7635615
vn 0.0133082038 0.753009737 0.657874763
vn 0.0133082038 0.753009737 0.657874763
vn 0.0133082047 0.753009737 0.657874763
vn -0.7933929 -0.5571671 0.245137662
vn -0.7933929 -0.5571671 0.245137662
vn -0.7933929 -0.5571672 0.245137677
vn 0.185430929 -0.759517252 -0.6234973
vn 0.185430929 -0.759517252 -0.6234973
vn 0.185430929 -0.759517252 -0.6234973
vn 0.58772856 0.617888331 -0.5222922
vn 0.58772856 0.6178884 -0.5222922
vn 0.58772856 0.6178884 -0.5222922
vn -0.3256621 0.893061042 0.310461253
vn -0.3256621 0.893061042 0.310461253
vn -0.3256621 0.893061042 0.310461253
vn -0.5051388 -0.5559517 -0.66011554
vn 0.105787612 -0.413872719 0.904167235
vn 0.6956197 -0.237011671 -0.6781878
vn -0.4925272 0.164396167 0.8546291
vn -0.978031158 -0.146975517 0.147828534
vn -0.9627094 0.02665387 0.269221425
vn 0.425259948 0.330247879 0.842668533
vn -0.6598261 -0.04880439 0.749831736
vn -0.7315851 -0.6693635 -0.12936689
usemtl 0001491003_part_0_material_0
f 1/1/1 2/2/2 3/3/3
f 4/4/4 5/5/5 6/6/6
f 4/4/4 7/7/7 8/8/8
f 8/8/8 5/5/5 4/4/4
f 9/9/9 1/1/1 3/3/3
f 10/10/10 11/11/11 12/12/12
f 5/5/5 13/13/13 14/14/14
f 14/14/14 15/15/15 5/5/5
f 16/16/16 17/17/17 3/3/3
f 8/8/8 12/12/12 18/18/18
f 18/18/18 19/19/19 8/8/8
f 20/20/20 21/21/21 22/22/22
f 22/22/22 23/23/23 20/20/20
f 19/19/19 24/24/24 25/25/25
f 25/25/25 26/26/26 19/19/19
f 22/22/22 21/21/21 27/27/27
f 27/27/27 28/28/28 22/22/22
f 29/29/29 30/30/30 31/31/31
f 31/31/31 17/17/17 29/29/29
f 32/32/32 33/33/33 25/25/25
f 25/25/25 34/34/34 32/32/32
f 35/35/35 36/36/36 32/32/32
f 32/32/32 34/34/34 35/35/35
f 31/31/31 37/37/37 38/38/38
f 38/38/38 17/17/17 31/31/31
f 13/13/13 39/39/39 40/40/40
f 30/30/30 37/37/37 31/31/31
f 16/16/16 29/29/29 17/17/17
f 40/40/40 14/14/14 13/13/13
f 5/5/5 26/26/26 13/13/13
f 41/41/41 42/42/42 13/13/13
f 13/13/13 42/42/42 39/39/39
f 21/21/21 20/20/20 43/43/43
f 25/25/25 24/24/24 44/44/44
f 44/44/44 45/45/45 25/25/25
f 33/33/33 26/26/26 25/25/25
f 46/46/46 45/45/45 44/44/44
f 47/47/47 48/48/48 20/20/20
f 49/49/49 48/48/48 47/47/47
f 23/23/23 47/47/47 20/20/20
f 50/50/50 47/47/47 23/23/23
f 8/8/8 19/19/19 5/5/5
f 26/26/26 41/41/41 13/13/13
f 51/51/51 52/52/52 10/10/10
f 10/10/10 53/53/53 51/51/51
f 54/54/54 55/55/55 56/56/56
f 57/57/57 58/58/58 59/59/59
f 60/60/60 61/61/61 62/62/62
f 63/63/63 64/64/64 65/65/65
f 66/66/66 67/67/67 68/68/68
f 69/69/69 70/70/70 71/71/71
f 72/72/72 73/73/73 74/74/74
f 75/75/75 76/76/76 77/77/77
f 78/78/78 79/79/79 80/80/80
f 81/81/81 82/82/82 83/83/83
f 84/84/84 85/85/85 86/86/86
f 87/87/87 88/88/88 89/89/89
f 26/26/26 5/5/5 19/19/19
f 18/18/18 12/12/12 11/11/11
f 11/11/11 43/43/43 18/18/18
f 43/43/43 20/20/20 90/90/90
f 90/90/90 18/18/18 43/43/43
f 19/19/19 18/18/18 90/90/90
f 90/90/90 24/24/24 19/19/19
f 9/9/9 91/91/91 27/27/27
f 27/27/27 21/21/21 9/9/9
f 43/43/43 9/9/9 21/21/21
f 92/92/92 24/24/24 90/90/90
f 90/90/90 20/20/20 48/48/48
f 48/48/48 92/92/92 90/90/90
f 91/91/91 9/9/9 17/17/17
f 17/17/17 38/38/38 91/91/91
f 3/3/3 17/17/17 9/9/9
f 12/12/12 8/8/8 53/53/53
f 93/93/93 94/94/94 95/95/95
f 54/54/54 55/55/55 56/56/56
f 57/57/57 58/58/58 59/59/59
f 60/60/60 61/61/61 62/62/62
f 63/63/63 64/64/64 65/65/65
f 66/66/66 67/67/67 68/68/68
f 69/69/69 70/70/70 71/71/71
f 72/72/72 73/73/73 74/74/74
f 75/75/75 76/76/76 77/77/77
f 78/78/78 79/79/79 80/80/80
f 81/81/81 82/82/82 83/83/83
f 84/84/84 85/85/85 86/86/86
f 87/87/87 88/88/88 89/89/89
f 1/1/1 11/11/11 93/93/93
f 93/93/93 95/95/95 1/1/1
f 9/9/9 43/43/43 11/11/11
f 11/11/11 1/1/1 9/9/9
f 96/96/96 6/6/6 5/5/5
f 5/5/5 15/15/15 96/96/96
f 1/1/1 95/95/95 2/2/2
f 97/97/97 2/2/2 95/95/95
f 52/52/52 51/51/51 98/98/98
f 11/11/11 10/10/10 93/93/93
f 10/10/10 52/52/52 93/93/93
f 10/10/10 12/12/12 53/53/53
f 97/97/97 95/95/95 94/94/94
f 99/99/99 100/100/100 101/101/101
f 102/102/102 103/103/103 104/104/104
f 102/102/102 104/104/104 105/105/105
f 105/105/105 106/106/106 102/102/102
f 107/107/107 100/100/100 99/99/99
f 108/108/108 109/109/109 110/110/110
f 104/104/104 111/111/111 112/112/112
f 112/112/112 113/113/113 104/104/104
f 114/114/114 100/100/100 115/115/115
f 105/105/105 116/116/116 117/117/117
f 117/117/117 109/109/109 105/105/105
f 118/118/118 119/119/119 120/120/120
f 120/120/120 121/121/121 118/118/118
f 116/116/116 122/122/122 123/123/123
f 123/123/123 124/124/124 116/116/116
f 120/120/120 125/125/125 126/126/126
f 126/126/126 121/121/121 120/120/120
f 127/127/127 115/115/115 128/128/128
f 128/128/128 129/129/129 127/127/127
f 130/130/130 123/123/123 131/131/131
f 123/123/123 130/130/130 132/132/132
f 133/133/133 130/130/130 134/134/134
f 130/130/130 133/133/133 132/132/132
f 128/128/128 115/115/115 135/135/135
f 135/135/135 136/136/136 128/128/128
f 113/113/113 137/137/137 138/138/138
f 129/129/129 128/128/128 136/136/136
f 114/114/114 115/115/115 127/127/127
f 137/137/137 113/113/113 112/112/112
f 104/104/104 113/113/113 122/122/122
f 139/139/139 113/113/113 140/140/140
f 113/113/113 138/138/138 140/140/140
f 121/121/121 141/141/141 118/118/118
f 123/123/123 142/142/142 143/143/143
f 143/143/143 124/124/124 123/123/123
f 131/131/131 123/123/123 122/122/122
f 144/144/144 143/143/143 142/142/142
f 145/145/145 118/118/118 146/146/146
f 147/147/147 145/145/145 146/146/146
f 119/119/119 118/118/118 145/145/145
f 148/148/148 119/119/119 145/145/145
f 105/105/105 104/104/104 116/116/116
f 122/122/122 113/113/113 139/139/139
f 149/149/149 150/150/150 108/108/108
f 108/108/108 151/151/151 149/149/149
f 152/152/152 153/153/153 154/154/154
f 155/155/155 156/156/156 157/157/157
f 158/158/158 159/159/159 160/160/160
f 161/161/161 162/162/162 163/163/163
f 164/164/164 165/165/165 166/166/166
f 167/167/167 168/168/168 169/169/169
f 170/170/170 171/171/171 172/172/172
f 173/173/173 174/174/174 175/175/175
f 176/176/176 177/177/177 178/178/178
f 179/179/179 180/180/180 181/181/181
f 182/182/182 183/183/183 184/184/184
f 185/185/185 186/186/186 187/187/187
f 122/122/122 116/116/116 104/104/104
f 117/117/117 141/141/141 110/110/110
f 110/110/110 109/109/109 117/117/117
f 141/141/141 117/117/117 188/188/188
f 188/188/188 118/118/118 141/141/141
f 116/116/116 124/124/124 188/188/188
f 188/188/188 117/117/117 116/116/116
f 107/107/107 121/121/121 126/126/126
f 126/126/126 189/189/189 107/107/107
f 141/141/141 121/121/121 107/107/107
f 190/190/190 188/188/188 124/124/124
f 188/188/188 190/190/190 146/146/146
f 146/146/146 118/118/118 188/188/188
f 189/189/189 115/115/115 107/107/107
f 115/115/115 189/189/189 135/135/135
f 100/100/100 107/107/107 115/115/115
f 109/109/109 150/150/150 105/105/105
f 191/191/191 192/192/192 193/193/193
f 152/152/152 153/153/153 154/154/154
f 155/155/155 156/156/156 157/157/157
f 158/158/158 159/159/159 160/160/160
f 161/161/161 162/162/162 163/163/163
f 164/164/164 165/165/165 166/166/166
f 167/167/167 168/168/168 169/169/169
f 170/170/170 171/171/171 172/172/172
f 173/173/173 174/174/174 175/175/175
f 176/176/176 177/177/177 178/178/178
f 179/179/179 180/180/180 181/181/181
f 182/182/182 183/183/183 184/184/184
f 185/185/185 186/186/186 187/187/187
f 99/99/99 191/191/191 193/193/193
f 193/193/193 110/110/110 99/99/99
f 107/107/107 99/99/99 110/110/110
f 110/110/110 141/141/141 107/107/107
f 194/194/194 111/111/111 104/104/104
f 104/104/104 103/103/103 194/194/194
f 99/99/99 101/101/101 191/191/191
f 191/191/191 101/101/101 195/195/195
f 151/151/151 196/196/196 149/149/149
f 110/110/110 193/193/193 108/108/108
f 108/108/108 193/193/193 151/151/151
f 108/108/108 150/150/150 109/109/109
f 195/195/195 192/192/192 191/191/191
