mtllib 0001062003.mtl
o 0001062003_part_0
v 0.6486666 0.888533235 0.074070774
v 0.6664881 0.8930774 0.0138500314
v 0.7205805 0.8662435 0.0333197229
v 0.697500765 0.871418238 0.07603278
v 0.635092556 1.138972 -0.000848660246
v 0.715608239 1.08914375 0.0322228745
v 0.6592159 1.09260666 0.138697416
v 0.6796801 1.36246812 -0.193902016
v 0.579868555 1.3804177 -0.0941578448
v 0.550210655 1.44655955 -0.128749639
v 0.678223431 1.45367479 -0.2786827
v 0.8241103 1.46636653 -0.239526689
v 0.8160834 1.35993934 -0.186062932
v 0.85109055 1.42884064 -0.0114817582
v 0.866017342 1.4959805 -0.0618204772
v 0.6916734 1.39920413 0.09886676
v 0.6743482 1.52660775 0.0900486559
v 0.5875954 1.39652443 0.0527607426
v 0.554785669 1.51191115 0.049462676
v 0.5875954 1.39652443 0.0527607426
v 0.554785669 1.51191115 0.049462676
v 0.7147522 1.24636173 -0.196266174
v 0.531411469 1.35733747 -0.025854649
v 0.579868555 1.3804177 -0.0941578448
v 0.6796801 1.36246812 -0.193902016
v 0.8221404 1.26573408 -0.192268789
v 0.8160834 1.35993934 -0.186062932
v 0.85109055 1.42884064 -0.0114817582
v 0.8385149 1.30143976 0.0384957865
v 0.658318162 1.36139572 0.171351016
v 0.6916734 1.39920413 0.09886676
v 0.5875954 1.39652443 0.0527607426
v 0.5875954 1.39652443 0.0527607426
v 0.534187 1.19293237 0.04306624
v 0.778027 1.1275413 -0.179312468
v 0.894782543 1.14103425 -0.211263865
v 0.9004931 1.12100291 0.06843075
v 0.7720491 1.12799692 0.1477623
v 0.5525415 1.17982292 0.171962053
v 0.6592159 1.09260666 0.138697416
v 0.554089963 0.976911545 0.0246660374
v 0.561681569 0.956449151 0.129889786
v 0.5109868 0.9838984 0.147157222
v 0.506860256 0.996981561 0.053157717
v 0.5525415 1.17982292 0.171962053
v 0.5109868 0.9838984 0.147157222
v 0.561681569 0.956449151 0.129889786
v 0.6813458 0.8969257 -0.0240095668
v 0.7721129 0.908459544 -0.16600135
v 0.7556673 0.873389 -0.01944121
v 0.6979157 0.991737545 0.115627743
v 0.763810456 0.9688121 0.118306123
v 0.8395128 0.948935866 0.0606362745
v 0.724223435 0.998279 0.02763918
v 0.6979157 0.991737545 0.115627743
v 0.8395128 0.948935866 0.0606362745
v 0.724223435 0.998279 0.02763918
v 0.715608239 1.08914375 0.0322228745
v 0.9004931 1.12100291 0.06843075
v 0.8658038 1.00488424 -0.187380522
v 0.808841 1.02285171 -0.161858112
v 0.8448226 0.9490921 0.0208638385
v 0.715785742 0.99579376 0.00399067067
v 0.715785742 0.99579376 0.00399067067
v 0.8448226 0.9490921 0.0208638385
v 0.6664881 0.8930774 0.0138500314
v 0.6486666 0.888533235 0.074070774
v 0.7205805 0.8662435 0.0333197229
v 0.6664881 0.8930774 0.0138500314
v 0.7721129 0.908459544 -0.16600135
v 0.6813458 0.8969257 -0.0240095668
v 0.6813458 0.8969257 -0.0240095668
v 0.7556673 0.873389 -0.01944121
v 0.703970551 1.63726342 0.09495283
v 0.726892054 1.3467828 0.174639553
v 0.8867287 1.31917834 0.0334240422
v 0.8813275 1.64430773 -0.01999294
v 0.711969256 1.504925 -0.331153363
v 0.7563742 1.24695981 -0.2400901
v 0.512388766 1.29035342 -0.132823542
v 0.4999061 1.54268146 -0.222326249
v 0.8771766 1.60402024 -0.238938123
v 0.8705187 1.28517818 -0.172851831
v 0.5219557 1.3913219 0.158494234
v 0.500431836 1.6288662 0.0935017243
v 0.8705187 1.28517818 -0.172851831
v 0.8771766 1.60402024 -0.238938123
v 0.8813275 1.64430773 -0.01999294
v 0.8771766 1.60402024 -0.238938123
v 0.8392311 1.80142343 -0.307058662
v 0.8392311 1.80142343 -0.307058662
v 0.8927583 1.87685931 -0.0711213946
v 0.8813275 1.64430773 -0.01999294
v -0.6294517 0.852380037 0.005876258
v -0.5716864 0.8761853 -0.00515096635
v -0.5646731 0.874260068 0.05739422
v -0.6138307 0.8590236 0.051655136
v -0.5916868 1.093019 0.107948475
v -0.6187591 1.08334947 -0.004662174
v -0.5291173 1.13841689 -0.0272343736
v -0.451169819 1.46304488 -0.154423565
v -0.476126552 1.39319515 -0.123616092
v -0.557749748 1.36278009 -0.2360706
v -0.5568724 1.454088 -0.320750237
v -0.6923104 1.34174252 -0.2472305
v -0.707148552 1.44657063 -0.3023707
v -0.7602404 1.40373015 -0.0799149
v -0.776967764 1.46867263 -0.1325194
v -0.615181 1.39497352 0.0518046468
v -0.61419183 1.52362239 0.0441833176
v -0.5063079 1.40681267 0.0206331871
v -0.489270151 1.52560294 0.020751331
v -0.489270151 1.52560294 0.020751331
v -0.5063079 1.40681267 0.0206331871
v -0.476126552 1.39319515 -0.123616092
v -0.434962362 1.37628531 -0.0490125753
v -0.576122463 1.2430203 -0.242102742
v -0.557749748 1.36278009 -0.2360706
v -0.6846474 1.24764276 -0.253259063
v -0.6923104 1.34174252 -0.2472305
v -0.7602404 1.40373015 -0.0799149
v -0.7376183 1.27876866 -0.02738173
v -0.58742094 1.36139071 0.128600419
v -0.615181 1.39497352 0.0518046468
v -0.5063079 1.40681267 0.0206331871
v -0.5063079 1.40681267 0.0206331871
v -0.4460695 1.18135715 0.04429589
v -0.644138038 1.11121225 -0.225336671
v -0.7537992 1.11972725 -0.2776506
v -0.807836 1.11080885 -0.00258074049
v -0.6954436 1.12503016 0.09744909
v -0.500035644 1.17570841 0.163369924
v -0.5916868 1.093019 0.107948475
v -0.470464855 0.976224 0.155622691
v -0.5166914 0.9519887 0.125667036
v -0.478869647 0.9668904 0.026189208
v -0.439672649 0.984565258 0.06614439
v -0.500035644 1.17570841 0.163369924
v -0.5166914 0.9519887 0.125667036
v -0.470464855 0.976224 0.155622691
v -0.654621065 0.8579172 -0.05244785
v -0.6441235 0.8856063 -0.201119959
v -0.5796475 0.8785151 -0.0451522581
v -0.682022154 0.960849643 0.07716806
v -0.615693331 0.98123914 0.08488961
v -0.7475215 0.9406017 0.008236317
v -0.615693331 0.98123914 0.08488961
v -0.626209259 0.983963847 -0.006537212
v -0.6187591 1.08334947 -0.004662174
v -0.626209259 0.983963847 -0.006537212
v -0.7475215 0.9406017 0.008236317
v -0.807836 1.11080885 -0.00258074049
v -0.6759099 1.00128949 -0.208781719
v -0.728393 0.9840111 -0.242927939
v -0.7459213 0.9388045 -0.03181707
v -0.6139605 0.9799101 -0.0282203145
v -0.7459213 0.9388045 -0.03181707
v -0.6139605 0.9799101 -0.0282203145
v -0.5646731 0.874260068 0.05739422
v -0.5716864 0.8761853 -0.00515096635
v -0.5716864 0.8761853 -0.00515096635
v -0.6294517 0.852380037 0.005876258
v -0.6441235 0.8856063 -0.201119959
v -0.5796475 0.8785151 -0.0451522581
v -0.654621065 0.8579172 -0.05244785
v -0.5796475 0.8785151 -0.0451522581
v -0.7866109 1.28986192 -0.0392820239
v -0.653173149 1.3376019 0.12247967
v -0.6589008 1.6292026 0.0437991954
v -0.8178645 1.613188 -0.094735086
v -0.392371178 1.3134377 -0.151614934
v -0.6109431 1.23836517 -0.291287422
v -0.589615762 1.50075912 -0.377918482
v -0.401814371 1.565912 -0.241077751
v -0.7374361 1.26018763 -0.240949571
v -0.7779082 1.57576406 -0.31055966
v -0.457889736 1.6484462 0.07072197
v -0.4559087 1.40961123 0.134507179
v -0.7374361 1.26018763 -0.240949571
v -0.7779082 1.57576406 -0.31055966
v -0.757915139 1.77707911 -0.374752939
v -0.7779082 1.57576406 -0.31055966
v -0.8178645 1.613188 -0.094735086
v -0.8178645 1.613188 -0.094735086
v -0.8534263 1.84249365 -0.149318457
v -0.757915139 1.77707911 -0.374752939
v 0.5219557 1.3913219 0.158494234
v 0.512388766 1.29035342 -0.132823542
v 0.7563742 1.24695981 -0.2400901
v 0.7563742 1.24695981 -0.2400901
v 0.8705187 1.28517818 -0.172851831
v 0.8867287 1.31917834 0.0334240422
v 0.5219557 1.3913219 0.158494234
v 0.7563742 1.24695981 -0.2400901
v 0.8867287 1.31917834 0.0334240422
v 0.726892054 1.3467828 0.174639553
v 0.5219557 1.3913219 0.158494234
v 0.8867287 1.31917834 0.0334240422
v -0.7374361 1.26018763 -0.240949571
v -0.6109431 1.23836517 -0.291287422
v -0.392371178 1.3134377 -0.151614934
v -0.392371178 1.3134377 -0.151614934
v -0.4559087 1.40961123 0.134507179
v -0.653173149 1.3376019 0.12247967
v -0.7374361 1.26018763 -0.240949571
v -0.392371178 1.3134377 -0.151614934
v -0.653173149 1.3376019 0.12247967
v -0.7866109 1.28986192 -0.0392820239
v -0.7374361 1.26018763 -0.240949571
v -0.653173149 1.3376019 0.12247967
vt 0.874739647 0.0533872843
vt 0.8289469 0.03382063
vt 0.8105623 0.0561563969
vt 0.854021668 0.06528461
vt 0.4527018 0.302167356
vt 0.49530378 0.23070091
vt 0.421440542 0.241557121
vt 0.186907351 0.8642167
vt 0.118875906 0.844431341
vt 0.118222341 0.919013858
vt 0.200531542 0.9117386
vt 0.2506045 0.9016607
vt 0.247804835 0.859392643
vt 0.312790453 0.8662969
vt 0.306951255 0.9214634
vt 0.419855326 0.8721475
vt 0.4287956 0.9192112
vt 0.477065176 0.8365335
vt 0.474791735 0.906461835
vt 0.0496180356 0.8519248
vt 0.05710509 0.9402591
vt 0.5636052 0.403245628
vt 0.4488135 0.41368854
vt 0.478228658 0.4481582
vt 0.557825446 0.47878927
vt 0.6044376 0.405443668
vt 0.63094604 0.484368443
vt 0.735037565 0.4961875
vt 0.7433119 0.408387661
vt 0.862778962 0.433658719
vt 0.8603035 0.5030327
vt 0.92723906 0.461364269
vt 0.397196949 0.4569255
vt 0.4097343 0.354119778
vt 0.576638758 0.22731179
vt 0.6059754 0.231815577
vt 0.7656499 0.254179
vt 0.8731917 0.280997038
vt 0.9617269 0.3350938
vt 0.9176254 0.269854546
vt 0.368770361 0.231841326
vt 0.357799739 0.156472564
vt 0.337546647 0.243290067
vt 0.354518771 0.2531098
vt 0.3489769 0.378283858
vt 0.97736454 0.1904769
vt 0.951743364 0.171612322
vt 0.70760715 0.0234940648
vt 0.6604364 0.0551921129
vt 0.755630732 0.0563785434
vt 0.880934238 0.149711013
vt 0.8469013 0.14823401
vt 0.7835203 0.13925451
vt 0.500111639 0.115649104
vt 0.443183184 0.117878258
vt 0.230105728 0.0719465
vt 0.231586263 0.0386747122
vt 0.2762574 0.0389092565
vt 0.277466416 0.08343446
vt 0.622981369 0.137161136
vt 0.5991552 0.130563855
vt 0.758900046 0.136349678
vt 0.506318152 0.1196965
vt 0.325341463 0.03923565
vt 0.326406658 0.074863255
vt 0.479974717 0.036133647
vt 0.442762345 0.0380294919
vt 0.193452969 0.0544724464
vt 0.194736078 0.0357657671
vt 0.6065885 0.0471408367
vt 0.502137065 0.0399237871
vt 0.358232528 0.0391051769
vt 0.358202964 0.0617913
vt 0.3570028 0.666273832
vt 0.350014329 0.977967262
vt 0.2088465 0.978050947
vt 0.20262754 0.663478255
vt 0.81730783 0.6655059
vt 0.811275959 0.9798466
vt 0.675926745 0.9751338
vt 0.715729654 0.6623296
vt 0.964959741 0.666922331
vt 0.972656369 0.9790685
vt 0.5153386 0.9779134
vt 0.518009543 0.6536858
vt 0.029460676 0.9790685
vt 0.0296527 0.666772068
vt 0.20262754 0.663478255
vt 0.0296527 0.666772068
vt 0.03066374 0.43409276
vt 0.03066374 0.43409276
vt 0.2004557 0.4310994
vt 0.20262754 0.663478255
vt 0.8105623 0.0561563969
vt 0.8289469 0.03382063
vt 0.874739647 0.0533872843
vt 0.854021668 0.06528461
vt 0.421440542 0.241557121
vt 0.49530378 0.23070091
vt 0.4527018 0.302167356
vt 0.118222341 0.919013858
vt 0.118875906 0.844431341
vt 0.186907351 0.8642167
vt 0.200531542 0.9117386
vt 0.247804835 0.859392643
vt 0.2506045 0.9016607
vt 0.312790453 0.8662969
vt 0.306951255 0.9214634
vt 0.419855326 0.8721475
vt 0.4287956 0.9192112
vt 0.477065176 0.8365335
vt 0.474791735 0.906461835
vt 0.05710509 0.9402591
vt 0.0496180356 0.8519248
vt 0.478228658 0.4481582
vt 0.4488135 0.41368854
vt 0.5636052 0.403245628
vt 0.557825446 0.47878927
vt 0.6044376 0.405443668
vt 0.63094604 0.484368443
vt 0.735037565 0.4961875
vt 0.7433119 0.408387661
vt 0.862778962 0.433658719
vt 0.8603035 0.5030327
vt 0.92723906 0.461364269
vt 0.397196949 0.4569255
vt 0.4097343 0.354119778
vt 0.576638758 0.22731179
vt 0.6059754 0.231815577
vt 0.7656499 0.254179
vt 0.8731917 0.280997038
vt 0.9617269 0.3350938
vt 0.9176254 0.269854546
vt 0.337546647 0.243290067
vt 0.357799739 0.156472564
vt 0.368770361 0.231841326
vt 0.354518771 0.2531098
vt 0.3489769 0.378283858
vt 0.951743364 0.171612322
vt 0.97736454 0.1904769
vt 0.755630732 0.0563785434
vt 0.6604364 0.0551921129
vt 0.70760715 0.0234940648
vt 0.8469013 0.14823401
vt 0.880934238 0.149711013
vt 0.7835203 0.13925451
vt 0.443183184 0.117878258
vt 0.500111639 0.115649104
vt 0.2762574 0.0389092565
vt 0.231586263 0.0386747122
vt 0.230105728 0.0719465
vt 0.277466416 0.08343446
vt 0.5991552 0.130563855
vt 0.622981369 0.137161136
vt 0.758900046 0.136349678
vt 0.506318152 0.1196965
vt 0.326406658 0.074863255
vt 0.325341463 0.03923565
vt 0.442762345 0.0380294919
vt 0.479974717 0.036133647
vt 0.194736078 0.0357657671
vt 0.193452969 0.0544724464
vt 0.6065885 0.0471408367
vt 0.502137065 0.0399237871
vt 0.358202964 0.0617913
vt 0.358232528 0.0391051769
vt 0.2088465 0.978050947
vt 0.350014329 0.977967262
vt 0.3570028 0.666273832
vt 0.20262754 0.663478255
vt 0.675926745 0.9751338
vt 0.811275959 0.9798466
vt 0.81730783 0.6655059
vt 0.715729654 0.6623296
vt 0.972656369 0.9790685
vt 0.964959741 0.666922331
vt 0.518009543 0.6536858
vt 0.5153386 0.9779134
vt 0.029460676 0.9790685
vt 0.0296527 0.666772068
vt 0.03066374 0.43409276
vt 0.0296527 0.666772068
vt 0.20262754 0.663478255
vt 0.20262754 0.663478255
vt 0.2004557 0.4310994
vt 0.03066374 0.43409276
vt 0.900812 0.708994269
vt 0.9103697 0.8345191
vt 0.817113936 0.8954726
vt 0.817113936 0.8954726
vt 0.773839951 0.8722671
vt 0.757710159 0.7858324
vt 0.900812 0.708994269
vt 0.817113936 0.8954726
vt 0.757710159 0.7858324
vt 0.8135079 0.7164822
vt 0.900812 0.708994269
vt 0.757710159 0.7858324
vt 0.7699956 0.867769659
vt 0.820646346 0.893702
vt 0.9182615 0.834762931
vt 0.9182615 0.834762931
vt 0.901296 0.7065251
vt 0.8139788 0.7132481
vt 0.7699956 0.867769659
vt 0.9182615 0.834762931
vt 0.8139788 0.7132481
vt 0.753525 0.780850351
vt 0.7699956 0.867769659
vt 0.8139788 0.7132481
vn -0.876421034 -0.349871755 0.330871522
vn -0.5752601 -0.233056471 -0.7840667
vn 0.279555976 -0.8343593 -0.475071669
vn -0.034208592 -0.837027252 0.5460908
vn -0.397273421 -0.617643833 -0.6787414
vn -0.7265977 -0.5737991 -0.377902657
vn 0.0656588748 -0.543697536 0.836708963
vn -0.416356534 -0.4170116 -0.807928562
vn -0.8775287 -0.264382124 -0.40005672
vn -0.8350445 -0.492480665 -0.245282516
vn -0.1903859 -0.613472044 -0.7664237
vn 0.6843832 -0.386897475 -0.6180048
vn 0.7239798 -0.159919292 -0.671028435
vn 0.882594645 0.190622181 0.429755569
vn 0.9682315 -0.105401158 0.226756245
vn 0.09492816 0.650975466 0.7531398
vn 0.114062577 0.05679596 0.991848767
vn -0.807266831 0.23674354 0.5406226
vn -0.7306382 -0.203770831 0.6516481
vn -0.807266831 0.23674354 0.5406226
vn -0.7306382 -0.203770831 0.6516481
vn -0.432889 -0.213713765 -0.875747442
vn -0.9480401 0.2734948 -0.162543952
vn -0.8775287 -0.264382124 -0.40005672
vn -0.416356534 -0.4170116 -0.807928562
vn 0.5726803 0.2517237 -0.7801746
vn 0.7239798 -0.159919292 -0.671028435
vn 0.882594645 0.190622181 0.429755569
vn 0.8633211 0.232539117 0.447886378
vn -0.05294627 0.5055531 0.8611694
vn 0.09492816 0.650975466 0.7531398
vn -0.807266831 0.23674354 0.5406226
vn -0.807266831 0.23674354 0.5406226
vn -0.9326819 0.0232241973 -0.359951466
vn -0.547506154 -0.363754719 -0.753604352
vn 0.67425245 0.0300546866 -0.7378891
vn 0.884035468 -0.0236912314 0.4668191
vn 0.3158341 -0.02363558 0.94852
vn -0.5624531 0.08844819 0.8220848
vn 0.0656588748 -0.543697536 0.836708963
vn 0.09877266 -0.6918512 -0.7152523
vn 0.262880772 -0.8944117 0.361830682
vn -0.6500224 -0.4410093 0.6188551
vn -0.8572392 -0.344391942 -0.382799119
vn -0.5624531 0.08844819 0.8220848
vn -0.6500224 -0.4410093 0.6188551
vn 0.262880772 -0.8944117 0.361830682
vn -0.8953483 -0.387197971 0.220066249
vn -0.203753084 -0.59359175 -0.7785458
vn 0.10499344 -0.915297568 0.3888531
vn -0.728878 -0.173917875 0.6621853
vn 0.22844024 -0.3446727 0.91050303
vn 0.8486116 -0.4995529 -0.174084038
vn -0.33135733 0.112881526 -0.936728358
vn -0.728878 -0.173917875 0.6621853
vn 0.8486116 -0.4995529 -0.174084038
vn -0.33135733 0.112881526 -0.936728358
vn -0.7265977 -0.5737991 -0.377902657
vn 0.884035468 -0.0236912314 0.4668191
vn 0.546659768 -0.407640547 -0.731431663
vn -0.6939581 -0.04941526 -0.7183177
vn 0.542959 -0.564204037 0.6219882
vn -0.8878038 0.01267342 0.460047632
vn -0.8878038 0.01267342 0.460047632
vn 0.542959 -0.564204037 0.6219882
vn -0.5752601 -0.233056471 -0.7840667
vn -0.876421034 -0.349871755 0.330871522
vn 0.279555976 -0.8343593 -0.475071669
vn -0.5752601 -0.233056471 -0.7840667
vn -0.203753084 -0.59359175 -0.7785458
vn -0.8953483 -0.387197971 0.220066249
vn -0.8953483 -0.387197971 0.220066249
vn 0.10499344 -0.915297568 0.3888531
vn 0.305980831 0.23397398 0.922839046
vn 0.3868831 0.272219568 0.881032348
vn 0.917054236 0.118874393 0.380631566
vn 0.893009961 0.07339593 0.444011569
vn 0.0682899654 -0.30678302 -0.9493264
vn 0.107668087 -0.3093608 -0.9448299
vn -0.853192568 -0.2256651 -0.470252752
vn -0.8582455 -0.2179871 -0.464646429
vn 0.909091353 -0.1054913 -0.4030192
vn 0.8533877 -0.109814093 -0.5095785
vn -0.6565458 0.155418769 0.738100648
vn -0.721119046 0.121286295 0.6821121
vn 0.8533877 -0.109814093 -0.5095785
vn 0.909091353 -0.1054913 -0.4030192
vn 0.983853161 0.171775535 -0.05026052
vn 0.983853161 0.171775535 -0.05026052
vn 0.983853161 0.171775535 -0.05026052
vn 0.9770716 -0.09040741 -0.192763031
vn 0.9770716 -0.09040741 -0.192763031
vn 0.9770716 -0.09040741 -0.192763031
vn -0.230675757 -0.848261952 -0.476697356
vn 0.69026643 -0.295260757 -0.660570443
vn 0.7903275 -0.36249727 0.493941516
vn -0.09707242 -0.807086766 0.5823984
vn -0.267536134 -0.461316764 0.8459381
vn 0.8026411 -0.5678631 -0.182479456
vn 0.582922339 -0.591397047 -0.557181358
vn 0.91989696 -0.3727386 -0.12188331
vn 0.9522361 -0.139633968 -0.2715672
vn 0.5771631 -0.349681675 -0.737973869
vn 0.37628758 -0.5752788 -0.7262657
vn -0.595323563 -0.250524163 -0.76343143
vn -0.533148 -0.470512062 -0.703115642
vn -0.951357245 0.0656083748 0.301023066
vn -0.967109 -0.2374823 0.0911171958
vn -0.285869151 0.625473559 0.7259901
vn -0.257452548 0.0320924222 0.965757847
vn 0.690156 0.301814 0.657718062
vn 0.6537427 -0.108732477 0.7488643
vn 0.6537427 -0.108732477 0.7488643
vn 0.690156 0.301814 0.657718062
vn 0.9522361 -0.139633968 -0.2715672
vn 0.9308219 0.3651523 -0.0153099783
vn 0.578771532 -0.202101275 -0.790049732
vn 0.5771631 -0.349681675 -0.737973869
vn -0.4532873 0.197993025 -0.8690969
vn -0.595323563 -0.250524163 -0.76343143
vn -0.951357245 0.0656083748 0.301023066
vn -0.9325901 0.203032911 0.298417956
vn -0.0921209 0.530213058 0.8428451
vn -0.285869151 0.625473559 0.7259901
vn 0.690156 0.301814 0.657718062
vn 0.690156 0.301814 0.657718062
vn 0.9960643 0.009988543 -0.08806913
vn 0.6749205 -0.387710243 -0.627824068
vn -0.54278487 -0.004692005 -0.839858651
vn -0.952727258 0.00679793349 0.3037509
vn -0.478250772 0.0279426388 0.877778649
vn 0.3288623 0.108378991 0.938138366
vn -0.267536134 -0.461316764 0.8459381
vn 0.414418429 -0.46043247 0.785021842
vn -0.441721261 -0.8491125 0.289638132
vn 0.0268509481 -0.712633 -0.701023
vn 0.895954847 -0.4268359 -0.122784272
vn 0.3288623 0.108378991 0.938138366
vn -0.441721261 -0.8491125 0.289638132
vn 0.414418429 -0.46043247 0.785021842
vn -0.21058394 -0.8887118 0.407241583
vn 0.307700843 -0.6415318 -0.7026785
vn 0.8262989 -0.4063864 0.389974624
vn -0.389040053 -0.295109332 0.8726731
vn 0.6263615 -0.099518694 0.77315414
vn -0.8171996 -0.492801338 -0.298884124
vn 0.6263615 -0.099518694 0.77315414
vn 0.510729969 0.07773902 -0.856219351
vn 0.8026411 -0.5678631 -0.182479456
vn 0.510729969 0.07773902 -0.856219351
vn -0.8171996 -0.492801338 -0.298884124
vn -0.952727258 0.00679793349 0.3037509
vn 0.8061353 -0.0726585239 -0.5872535
vn -0.406906456 -0.436415255 -0.8024767
vn -0.653676748 -0.524442 0.54558897
vn 0.796408951 0.0239713 0.6042832
vn -0.653676748 -0.524442 0.54558897
vn 0.796408951 0.0239713 0.6042832
vn 0.7903275 -0.36249727 0.493941516
vn 0.69026643 -0.295260757 -0.660570443
vn 0.69026643 -0.295260757 -0.660570443
vn -0.230675757 -0.848261952 -0.476697356
vn 0.307700843 -0.6415318 -0.7026785
vn 0.8262989 -0.4063864 0.389974624
vn -0.21058394 -0.8887118 0.407241583
vn 0.8262989 -0.4063864 0.389974624
vn -0.9686292 -0.009707836 0.248320937
vn -0.5388266 0.209573239 0.815932
vn -0.460098773 0.182263464 0.868958652
vn -0.947700262 -0.0520698354 0.314885646
vn 0.9328829 -0.103950426 -0.344853282
vn 0.06755879 -0.312750071 -0.9474298
vn 0.106465496 -0.304826468 -0.946438551
vn 0.936022043 -0.09570884 -0.338677734
vn -0.7514938 -0.219821081 -0.6220416
vn -0.8215369 -0.224017069 -0.5243029
vn 0.5962019 0.211763471 0.7744027
vn 0.5204551 0.236346692 0.8205283
vn -0.7514938 -0.219821081 -0.6220416
vn -0.8215369 -0.224017069 -0.5243029
vn -0.9814183 0.0374593139 -0.188188478
vn -0.9814183 0.0374593139 -0.188188478
vn -0.9814183 0.0374593139 -0.188188478
vn -0.919493556 -0.220126659 -0.325692922
vn -0.919493556 -0.220126659 -0.325692922
vn -0.919493556 -0.220126659 -0.325692922
vn -0.02371626 -0.944351 0.3280834
vn -0.02371626 -0.944351 0.3280834
vn -0.02371626 -0.944351 0.3280834
vn 0.239501923 -0.9608148 0.139548659
vn 0.239501923 -0.9608148 0.139548659
vn 0.239501923 -0.9608148 0.139548659
vn -0.0877581239 -0.9520164 0.29319492
vn -0.0877581239 -0.9520164 0.29319492
vn -0.0877581239 -0.9520164 0.29319492
vn -0.208745763 -0.976919949 -0.04530616
vn -0.208745763 -0.976919949 -0.04530616
vn -0.208745763 -0.976919949 -0.04530616
vn 0.0228210241 -0.895055354 0.4453707
vn 0.0228210241 -0.895055354 0.4453707
vn 0.0228210241 -0.895055354 0.4453707
vn 0.299885571 -0.8821661 0.36311385
vn 0.299885571 -0.8821661 0.36311385
vn 0.299885571 -0.8821661 0.36311385
vn 0.103125654 -0.9774457 0.184295908
vn 0.103125654 -0.9774457 0.184295908
vn 0.103125654 -0.9774457 0.184295908
vn 0.1350036 -0.9750186 0.176387846
vn 0.1350036 -0.9750186 0.176387846
vn 0.1350036 -0.9750186 0.176387846
usemtl 0001062003_part_0_material_0
f 1/1/1 2/2/2 3/3/3
f 3/3/3 4/4/4 1/1/1
f 5/5/5 6/6/6 7/7/7
f 8/8/8 9/9/9 10/10/10
f 10/10/10 11/11/11 8/8/8
f 11/11/11 12/12/12 13/13/13
f 13/13/13 8/8/8 11/11/11
f 14/14/14 13/13/13 12/12/12
f 12/12/12 15/15/15 14/14/14
f 16/16/16 14/14/14 15/15/15
f 15/15/15 17/17/17 16/16/16
f 18/18/18 16/16/16 17/17/17
f 17/17/17 19/19/19 18/18/18
f 9/9/9 20/20/20 21/21/21
f 21/21/21 10/10/10 9/9/9
f 22/22/22 23/23/23 24/24/24
f 24/24/24 25/25/25 22/22/22
f 26/26/26 22/22/22 25/25/25
f 25/25/25 27/27/27 26/26/26
f 26/26/26 27/27/27 28/28/28
f 28/28/28 29/29/29 26/26/26
f 30/30/30 29/29/29 28/28/28
f 28/28/28 31/31/31 30/30/30
f 32/32/32 30/30/30 31/31/31
f 33/33/33 24/24/24 23/23/23
f 23/23/23 22/22/22 5/5/5
f 5/5/5 34/34/34 23/23/23
f 35/35/35 5/5/5 22/22/22
f 36/36/36 35/35/35 22/22/22
f 22/22/22 26/26/26 36/36/36
f 36/36/36 26/26/26 29/29/29
f 29/29/29 37/37/37 36/36/36
f 38/38/38 37/37/37 29/29/29
f 29/29/29 30/30/30 38/38/38
f 30/30/30 32/32/32 39/39/39
f 30/30/30 39/39/39 40/40/40
f 40/40/40 38/38/38 30/30/30
f 41/41/41 42/42/42 43/43/43
f 43/43/43 44/44/44 41/41/41
f 34/34/34 45/45/45 33/33/33
f 33/33/33 23/23/23 34/34/34
f 42/42/42 41/41/41 5/5/5
f 5/5/5 7/7/7 42/42/42
f 41/41/41 44/44/44 34/34/34
f 34/34/34 5/5/5 41/41/41
f 44/44/44 43/43/43 45/45/45
f 45/45/45 34/34/34 44/44/44
f 46/46/46 47/47/47 40/40/40
f 40/40/40 39/39/39 46/46/46
f 5/5/5 35/35/35 6/6/6
f 48/48/48 49/49/49 50/50/50
f 51/51/51 52/52/52 38/38/38
f 38/38/38 40/40/40 51/51/51
f 52/52/52 53/53/53 37/37/37
f 37/37/37 38/38/38 52/52/52
f 54/54/54 55/55/55 7/7/7
f 7/7/7 6/6/6 54/54/54
f 56/56/56 57/57/57 58/58/58
f 58/58/58 59/59/59 56/56/56
f 60/60/60 61/61/61 35/35/35
f 35/35/35 36/36/36 60/60/60
f 62/62/62 60/60/60 36/36/36
f 36/36/36 37/37/37 62/62/62
f 61/61/61 63/63/63 6/6/6
f 6/6/6 35/35/35 61/61/61
f 64/64/64 65/65/65 59/59/59
f 59/59/59 58/58/58 64/64/64
f 1/1/1 4/4/4 52/52/52
f 52/52/52 51/51/51 1/1/1
f 4/4/4 3/3/3 53/53/53
f 53/53/53 52/52/52 4/4/4
f 66/66/66 67/67/67 55/55/55
f 55/55/55 54/54/54 66/66/66
f 68/68/68 69/69/69 57/57/57
f 57/57/57 56/56/56 68/68/68
f 61/61/61 60/60/60 70/70/70
f 50/50/50 49/49/49 60/60/60
f 60/60/60 62/62/62 50/50/50
f 70/70/70 71/71/71 63/63/63
f 63/63/63 61/61/61 70/70/70
f 72/72/72 73/73/73 65/65/65
f 65/65/65 64/64/64 72/72/72
f 74/74/74 75/75/75 76/76/76
f 76/76/76 77/77/77 74/74/74
f 78/78/78 79/79/79 80/80/80
f 80/80/80 81/81/81 78/78/78
f 82/82/82 83/83/83 79/79/79
f 79/79/79 78/78/78 82/82/82
f 84/84/84 85/85/85 81/81/81
f 81/81/81 80/80/80 84/84/84
f 77/77/77 76/76/76 86/86/86
f 86/86/86 87/87/87 77/77/77
f 84/84/84 75/75/75 74/74/74
f 74/74/74 85/85/85 84/84/84
f 88/88/88 89/89/89 90/90/90
f 91/91/91 92/92/92 93/93/93
f 94/94/94 95/95/95 96/96/96
f 96/96/96 97/97/97 94/94/94
f 98/98/98 99/99/99 100/100/100
f 101/101/101 102/102/102 103/103/103
f 103/103/103 104/104/104 101/101/101
f 105/105/105 106/106/106 104/104/104
f 104/104/104 103/103/103 105/105/105
f 106/106/106 105/105/105 107/107/107
f 107/107/107 108/108/108 106/106/106
f 108/108/108 107/107/107 109/109/109
f 109/109/109 110/110/110 108/108/108
f 110/110/110 109/109/109 111/111/111
f 111/111/111 112/112/112 110/110/110
f 113/113/113 114/114/114 102/102/102
f 102/102/102 101/101/101 113/113/113
f 115/115/115 116/116/116 117/117/117
f 117/117/117 118/118/118 115/115/115
f 118/118/118 117/117/117 119/119/119
f 119/119/119 120/120/120 118/118/118
f 121/121/121 120/120/120 119/119/119
f 119/119/119 122/122/122 121/121/121
f 121/121/121 122/122/122 123/123/123
f 123/123/123 124/124/124 121/121/121
f 124/124/124 123/123/123 125/125/125
f 116/116/116 115/115/115 126/126/126
f 100/100/100 117/117/117 116/116/116
f 116/116/116 127/127/127 100/100/100
f 117/117/117 100/100/100 128/128/128
f 117/117/117 128/128/128 129/129/129
f 129/129/129 119/119/119 117/117/117
f 122/122/122 119/119/119 129/129/129
f 129/129/129 130/130/130 122/122/122
f 122/122/122 130/130/130 131/131/131
f 131/131/131 123/123/123 122/122/122
f 132/132/132 125/125/125 123/123/123
f 133/133/133 132/132/132 123/123/123
f 123/123/123 131/131/131 133/133/133
f 134/134/134 135/135/135 136/136/136
f 136/136/136 137/137/137 134/134/134
f 126/126/126 138/138/138 127/127/127
f 127/127/127 116/116/116 126/126/126
f 100/100/100 136/136/136 135/135/135
f 135/135/135 98/98/98 100/100/100
f 127/127/127 137/137/137 136/136/136
f 136/136/136 100/100/100 127/127/127
f 138/138/138 134/134/134 137/137/137
f 137/137/137 127/127/127 138/138/138
f 133/133/133 139/139/139 140/140/140
f 140/140/140 132/132/132 133/133/133
f 99/99/99 128/128/128 100/100/100
f 141/141/141 142/142/142 143/143/143
f 131/131/131 144/144/144 145/145/145
f 145/145/145 133/133/133 131/131/131
f 130/130/130 146/146/146 144/144/144
f 144/144/144 131/131/131 130/130/130
f 98/98/98 147/147/147 148/148/148
f 148/148/148 99/99/99 98/98/98
f 149/149/149 150/150/150 151/151/151
f 151/151/151 152/152/152 149/149/149
f 128/128/128 153/153/153 154/154/154
f 154/154/154 129/129/129 128/128/128
f 129/129/129 154/154/154 155/155/155
f 155/155/155 130/130/130 129/129/129
f 99/99/99 156/156/156 153/153/153
f 153/153/153 128/128/128 99/99/99
f 152/152/152 157/157/157 158/158/158
f 158/158/158 149/149/149 152/152/152
f 144/144/144 97/97/97 96/96/96
f 96/96/96 145/145/145 144/144/144
f 146/146/146 94/94/94 97/97/97
f 97/97/97 144/144/144 146/146/146
f 147/147/147 159/159/159 160/160/160
f 160/160/160 148/148/148 147/147/147
f 150/150/150 161/161/161 162/162/162
f 162/162/162 151/151/151 150/150/150
f 163/163/163 154/154/154 153/153/153
f 154/154/154 142/142/142 141/141/141
f 141/141/141 155/155/155 154/154/154
f 156/156/156 164/164/164 163/163/163
f 163/163/163 153/153/153 156/156/156
f 157/157/157 165/165/165 166/166/166
f 166/166/166 158/158/158 157/157/157
f 167/167/167 168/168/168 169/169/169
f 169/169/169 170/170/170 167/167/167
f 171/171/171 172/172/172 173/173/173
f 173/173/173 174/174/174 171/171/171
f 172/172/172 175/175/175 176/176/176
f 176/176/176 173/173/173 172/172/172
f 174/174/174 177/177/177 178/178/178
f 178/178/178 171/171/171 174/174/174
f 179/179/179 167/167/167 170/170/170
f 170/170/170 180/180/180 179/179/179
f 169/169/169 168/168/168 178/178/178
f 178/178/178 177/177/177 169/169/169
f 181/181/181 182/182/182 183/183/183
f 184/184/184 185/185/185 186/186/186
f 187/187/187 188/188/188 189/189/189
f 190/190/190 191/191/191 192/192/192
f 193/193/193 194/194/194 195/195/195
f 196/196/196 197/197/197 198/198/198
f 199/199/199 200/200/200 201/201/201
f 202/202/202 203/203/203 204/204/204
f 205/205/205 206/206/206 207/207/207
f 208/208/208 209/209/209 210/210/210
