mtllib 0001360001.mtl
o 0001360001_part_0
v 0.124617942 2.49392438 0.3201865
v 0.166502059 2.48272014 0.245795757
v 0.1767752 2.54291916 0.180469841
v 0.128072679 2.55626845 0.280728877
v 0.0121607659 2.48746467 0.3641638
v 0.010111968 2.56529522 0.320404857
v -0.101203538 2.48931 0.321561217
v -0.107992351 2.55094957 0.282263964
v -0.143494636 2.47299266 0.227665246
v -0.157257885 2.53540969 0.182701781
v 0.203754231 2.39872313 0.145348519
v 0.185211644 2.489909 0.106227867
v -0.178547218 2.39022326 0.148306951
v -0.164282322 2.48206329 0.108621418
v 0.107583329 2.58454418 0.10640052
v 0.1256679 2.59377646 0.207823217
v 0.00824182 2.62059784 0.228951067
v -0.108283833 2.58852458 0.20942539
v 0.007594697 2.605598 0.09155854
v -0.09100361 2.58009839 0.107733652
v 0.104251541 2.52725077 0.02856382
v -0.08597879 2.52298021 0.02986662
v 0.008654441 2.53630352 0.00718843937
v 0.176081672 2.37240767 0.2609942
v -0.147583067 2.36515069 0.2633179
v 0.169989452 2.40461445 0.0454258919
v 0.185211644 2.489909 0.106227867
v 0.203754231 2.39872313 0.145348519
v 0.008654441 2.53630352 0.00718843937
v 0.104251541 2.52725077 0.02856382
v 0.09382579 2.4267776 -0.0151123442
v 0.0107298475 2.430842 -0.0303819589
v -0.08597879 2.52298021 0.02986662
v -0.07183875 2.42312431 -0.0132485926
v -0.146051168 2.39764524 0.0489813834
v -0.164282322 2.48206329 0.108621418
v 0.1634679 2.30941463 -0.030009672
v 0.18720825 2.27288628 0.141424924
v 0.0289287549 2.35664821 -0.06477341
v 0.1634679 2.30941463 -0.030009672
v -0.178547218 2.39022326 0.148306951
v -0.108478092 2.315181 -0.0338426679
v -0.156427085 2.265172 0.143778309
v -0.108478092 2.315181 -0.0338426679
v 0.235890254 2.203157 0.104296193
v -0.1895204 2.21217775 0.09830016
vt 0.655462742 0.08033669
vt 0.755911052 0.123268306
vt 0.7549654 0.257704973
vt 0.6556871 0.214128613
vt 0.5074737 0.0375266075
vt 0.50678134 0.1744439
vt 0.3563456 0.07823485
vt 0.35629794 0.218585134
vt 0.250917554 0.134947419
vt 0.2508172 0.254236162
vt 0.885987 0.169724464
vt 0.8531059 0.3490454
vt 0.113474339 0.16429621
vt 0.146093354 0.344077528
vt 0.6750109 0.430021822
vt 0.6561407 0.310014248
vt 0.509133637 0.342102766
vt 0.3457962 0.310481727
vt 0.5075402 0.469204
vt 0.327585965 0.43052423
vt 0.69622 0.509764969
vt 0.307082564 0.5102749
vt 0.5077324 0.5671739
vt 0.7744331 0.05821979
vt 0.23041448 0.0590334535
vt 0.69192487 0.789466262
vt 0.7668009 0.629986465
vt 0.8524111 0.7044698
vt 0.49271825 0.6447297
vt 0.627836347 0.6181508
vt 0.5901636 0.7967056
vt 0.488402367 0.803944767
vt 0.36299327 0.6088801
vt 0.389491141 0.7890063
vt 0.29058 0.7740678
vt 0.231837332 0.6142582
vt 0.6709247 0.950613856
vt 0.890697837 0.8433707
vt 0.484509677 0.928104043
vt 0.577717364 0.9393588
vt 0.148431152 0.683772266
vt 0.301771969 0.9453363
vt 0.107763059 0.820351839
vt 0.393140763 0.936720252
vt 0.917326868 0.9458954
vt 0.07320255 0.9210776
vn 0.5565749 0.4336913 0.7086157
vn 0.926332533 0.218767792 0.306673557
vn 0.9027812 0.4294906 0.022889901
vn 0.5891839 0.585205853 0.557132244
vn 0.000381276273 0.494682282 0.8690738
vn -0.00146124919 0.6854683 0.728100955
vn -0.59366256 0.378102064 0.710354567
vn -0.627294958 0.538011253 0.5630674
vn -0.925677061 0.09969718 0.364941627
vn -0.905120432 0.419121951 0.07137074
vn 0.9936059 0.09686254 -0.0580080226
vn 0.891739964 0.347206056 -0.2902547
vn -0.997180164 0.009115697 -0.07448887
vn -0.8996728 0.289416 -0.326844364
vn 0.474111646 0.799365342 -0.3690978
vn 0.49028483 0.8609606 0.135527223
vn -0.0118950494 0.9731284 0.229955718
vn -0.533315241 0.835432231 0.132770047
vn -0.0182271339 0.9184353 -0.395151168
vn -0.500092268 0.7916603 -0.3509725
vn 0.475701243 0.540299654 -0.694107056
vn -0.507515132 0.5042624 -0.698675752
vn -0.0147890905 0.5826298 -0.8126031
vn 0.959227145 0.118643507 0.256528735
vn -0.949956059 0.129931167 0.2840799
vn 0.8295738 0.254627734 -0.496962816
vn 0.891739964 0.347206056 -0.2902547
vn 0.9936059 0.09686254 -0.0580080226
vn -0.0147890905 0.5826298 -0.8126031
vn 0.475701243 0.540299654 -0.694107056
vn 0.41351524 0.3599438 -0.8363286
vn -0.0318933837 0.3735432 -0.927064359
vn -0.507515132 0.5042624 -0.698675752
vn -0.44304505 0.309968144 -0.841208
vn -0.863692939 0.09660029 -0.494674534
vn -0.8996728 0.289416 -0.326844364
vn 0.803341269 0.31576246 -0.504912734
vn 0.96747905 0.238922313 -0.08306877
vn 0.0406903028 0.3623167 -0.9311664
vn 0.803341269 0.31576246 -0.504912734
vn -0.997180164 0.009115697 -0.07448887
vn -0.7420067 0.231382042 -0.6291966
vn -0.957081139 0.210645527 -0.199058235
vn -0.7420067 0.231382042 -0.6291966
vn 0.8218089 0.569712758 0.00758667151
vn -0.82166183 0.5665609 -0.0622941926
usemtl 0001360001_part_0_material_0
f 1/1/1 2/2/2 3/3/3
f 3/3/3 4/4/4 1/1/1
f 5/5/5 1/1/1 4/4/4
f 4/4/4 6/6/6 5/5/5
f 7/7/7 5/5/5 6/6/6
f 6/6/6 8/8/8 7/7/7
f 9/9/9 7/7/7 8/8/8
f 8/8/8 10/10/10 9/9/9
f 2/2/2 11/11/11 12/12/12
f 12/12/12 3/3/3 2/2/2
f 13/13/13 9/9/9 10/10/10
f 10/10/10 14/14/14 13/13/13
f 15/15/15 16/16/16 3/3/3
f 6/6/6 4/4/4 16/16/16
f 16/16/16 17/17/17 6/6/6
f 8/8/8 6/6/6 17/17/17
f 17/17/17 18/18/18 8/8/8
f 18/18/18 10/10/10 8/8/8
f 19/19/19 20/20/20 18/18/18
f 18/18/18 17/17/17 19/19/19
f 3/3/3 12/12/12 21/21/21
f 21/21/21 15/15/15 3/3/3
f 14/14/14 10/10/10 20/20/20
f 20/20/20 22/22/22 14/14/14
f 15/15/15 21/21/21 23/23/23
f 23/23/23 19/19/19 15/15/15
f 22/22/22 20/20/20 19/19/19
f 19/19/19 23/23/23 22/22/22
f 24/24/24 11/11/11 2/2/2
f 13/13/13 25/25/25 9/9/9
f 26/26/26 27/27/27 28/28/28
f 29/29/29 30/30/30 31/31/31
f 31/31/31 32/32/32 29/29/29
f 33/33/33 34/34/34 35/35/35
f 35/35/35 36/36/36 33/33/33
f 29/29/29 32/32/32 34/34/34
f 34/34/34 33/33/33 29/29/29
f 37/37/37 26/26/26 28/28/28
f 28/28/28 38/38/38 37/37/37
f 39/39/39 32/32/32 31/31/31
f 31/31/31 40/40/40 39/39/39
f 41/41/41 35/35/35 42/42/42
f 42/42/42 43/43/43 41/41/41
f 39/39/39 44/44/44 34/34/34
f 34/34/34 32/32/32 39/39/39
f 37/37/37 38/38/38 45/45/45
f 46/46/46 43/43/43 42/42/42
f 26/26/26 31/31/31 30/30/30
f 30/30/30 27/27/27 26/26/26
f 35/35/35 41/41/41 36/36/36
f 31/31/31 26/26/26 37/37/37
f 42/42/42 35/35/35 34/34/34
f 16/16/16 4/4/4 3/3/3
f 18/18/18 20/20/20 10/10/10
f 19/19/19 17/17/17 16/16/16
f 16/16/16 15/15/15 19/19/19
