mtllib 0001620001.mtl
o 0001620001_part_0
v 0.176775217 2.542919 0.180469915
v 0.185211644 2.489909 0.106227927
v 0.104251541 2.52725077 0.0285638813
v 0.107583329 2.58454418 0.106400587
v 0.00861969 2.5363028 0.00718873227
v 0.169989437 2.40461469 0.045425944
v 0.185211644 2.489909 0.106227927
v 0.203754216 2.39872313 0.145348579
v 0.163467914 2.30941439 -0.0300096087
v 0.18720825 2.272886 0.141424984
v 0.235890254 2.203157 0.10429626
v 0.09382579 2.42677736 -0.01511228
v 0.1773542 2.523149 0.200208917
v 0.128072679 2.55626845 0.280728936
v 0.124617942 2.49392438 0.320186555
v 0.166502059 2.48272014 0.2457958
v 0.0101140486 2.56529522 0.320403874
v 0.012160942 2.48746467 0.364163756
v 0.208029345 2.39881921 0.1453193
v 0.176081672 2.37240767 0.260994256
v 0.132515565 2.60506678 0.235552892
v 0.008612404 2.62048125 0.2820333
v 0.0101140486 2.56529522 0.320403874
v 0.132748708 2.63831878 0.168070346
v 0.128372267 2.67048025 0.118833974
v 0.006145473 2.68820143 0.143805265
v 0.0074066096 2.65783882 0.22842294
v 0.204145163 2.53928638 0.154568121
v 0.224078238 2.55175447 0.0980556756
v 0.264827162 2.61498451 0.0266495813
v 0.209300652 2.675745 0.0584197044
v 0.2121689 2.40228081 0.11269556
v 0.246788174 2.4012146 0.0746350139
v 0.291078925 2.382952 0.0199135337
v 0.2979404 2.55129027 0.03230171
v 0.122732416 2.70766139 0.04185486
v 0.00463118451 2.72372341 0.039137885
v 0.176775217 2.542919 0.180469915
v 0.128119439 2.55379272 0.279441983
v 0.124383353 2.50008416 0.306124747
v 0.166433871 2.48397326 0.239945933
v 0.193000913 2.48214173 0.115853645
v 0.203754216 2.39872313 0.145348579
v 0.1256679 2.59377646 0.207823277
v 0.008246228 2.62059712 0.228948683
v 0.0103063174 2.55414772 0.311938524
v 0.125329077 2.610671 0.1194115
v 0.00730615342 2.63484359 0.138385758
v 0.008246228 2.62059712 0.228948683
v 0.03164358 2.65571117 0.00632104371
v 0.119792528 2.60090637 0.00541713228
v 0.107597038 2.63153768 -0.07432351
v 0.0528833419 2.66900253 -0.08416653
v 0.17651 2.55694938 0.09342196
v 0.1847017 2.564049 0.02185421
v 0.240594611 2.59025049 -0.0525306463
v 0.170018509 2.64125633 -0.0571531765
v 0.209768042 2.470374 0.07614762
v 0.229721144 2.45774865 0.018215932
v 0.2938559 2.50687623 -0.0596424639
v 0.248173609 2.58980632 -0.04742875
v 0.220949277 2.38318276 0.08450938
v 0.2553513 2.36991072 0.0332771055
v 0.32531175 2.35973859 -0.0441065
v 0.279721081 2.43776441 -0.06518201
v 0.185211644 2.489909 0.106227927
v 0.203754216 2.39872313 0.145348579
v 0.1931703 2.330446 0.08796854
v 0.176959142 2.43029213 -0.00706242258
v 0.104251541 2.52725077 0.0285638813
v 0.113518529 2.48388243 -0.0606903061
v 0.008723603 2.50382948 -0.08407544
v 0.193266153 2.28424048 0.003805247
v 0.1868523 2.35793471 -0.08679047
v 0.111806817 2.42413521 -0.138937712
v 0.009689647 2.439021 -0.155446038
v 0.103068821 2.3187716 -0.09055983
v 0.08951586 2.33903074 -0.116778992
v 0.06598069 2.36073923 -0.141742766
v 0.0593626 2.28454638 -0.132214442
v 0.124009572 2.31690216 -0.143472508
v 0.08056367 2.34137464 -0.155246183
v 0.0115156509 2.354721 -0.165142477
v 0.0112821925 2.36894059 -0.1526225
v 0.0783492 2.17440438 -0.2596339
v 0.189932063 2.24048638 -0.284387469
v 0.122661017 2.37383723 -0.325132877
v 0.008618275 2.43077636 -0.338897973
v 0.0115156509 2.354721 -0.165142477
v 0.0124773933 2.33350921 -0.09424547
v 0.0133588063 2.28413773 -0.127375931
v 0.0153445471 2.15270281 -0.268241376
v 0.176673144 2.44478178 0.217898741
v 0.180484071 2.353943 0.233000219
v 0.281865865 2.343951 0.1284979
v 0.223941162 2.456066 0.110928565
v 0.180484071 2.353943 0.233000219
v 0.1629091 2.26292539 0.240514
v 0.279310435 2.22037387 0.111810267
v 0.281865865 2.343951 0.1284979
v 0.1629091 2.26292539 0.240514
v 0.148921922 2.17625523 0.243714079
v 0.23377496 2.148912 0.208244622
v 0.279310435 2.22037387 0.111810267
v 0.185818449 2.50106645 0.04699507
v 0.203754216 2.39872313 0.145348579
v 0.2675987 2.24720788 0.0147064123
v 0.24691993 2.36869431 -0.126633272
v 0.103389539 2.55255437 -0.0143567082
v 0.135370553 2.45883727 -0.197400719
v 0.007825319 2.56412888 -0.0175907966
v 0.0152220335 2.51915431 -0.218168348
v 0.103375316 2.59676075 0.12845698
v 0.157897651 2.558825 0.206302121
v 0.00731817866 2.62653065 0.11289385
v 0.007842441 2.60884333 0.131467149
v 0.0290067326 2.35666847 -0.06473155
v 0.01073012 2.43082571 -0.03039081
v 0.163467914 2.30941439 -0.0300096087
v 0.008612404 2.62048125 0.2820333
v 0.0103063174 2.55414772 0.311938524
v 0.00730615342 2.63484359 0.138385758
v 0.0112821925 2.36894059 -0.1526225
v 0.009689647 2.439021 -0.155446038
v -0.164340124 2.48206186 0.108621992
v -0.157275274 2.53542 0.18275781
v -0.08620804 2.52297521 0.02986833
v -0.09104144 2.58008528 0.107760958
v -0.164340124 2.48206186 0.108621992
v -0.146139726 2.397518 0.0475911
v -0.178235 2.39014816 0.1479648
v -0.108321652 2.31517768 -0.033840403
v -0.15611434 2.26517916 0.143776387
v -0.189373672 2.21217465 0.09830229
v -0.071883224 2.42305756 -0.013977346
v -0.1078528 2.55097222 0.2823448
v -0.156696275 2.51565 0.202496812
v -0.10106416 2.48885822 0.321732253
v -0.143417835 2.47576284 0.247918442
v -0.182510123 2.390052 0.147994086
v -0.147828832 2.36513638 0.2632127
v -0.115098968 2.599508 0.2372488
v -0.115493424 2.66500568 0.1205042
v -0.117747828 2.63269544 0.169785962
v -0.1848067 2.530555 0.157232046
v -0.206050962 2.54209852 0.101001613
v -0.2505699 2.603415 0.0301795155
v -0.19739604 2.66661525 0.0612051561
v -0.187247068 2.39331436 0.115431137
v -0.222301438 2.39068413 0.07784779
v -0.2664731 2.37043571 0.0237321835
v -0.280711174 2.53830051 0.036264874
v -0.112582065 2.702379 0.0434665158
v -0.107806042 2.54849648 0.281057835
v -0.157275274 2.53542 0.18275781
v -0.101298742 2.495018 0.307670444
v -0.143486038 2.47701621 0.242068559
v -0.1716405 2.473956 0.118351057
v -0.178235 2.39014816 0.1479648
v -0.108131856 2.588528 0.209424555
v -0.109761886 2.605394 0.121021628
v -0.1053539 2.59585238 0.006959151
v -0.0197488666 2.65455747 0.006673029
v -0.09563803 2.62697554 -0.07293157
v -0.0428004526 2.66685462 -0.0835111961
v -0.158831656 2.54942131 0.0957187
v -0.1683127 2.55612421 0.0242719948
v -0.226338133 2.57976818 -0.04933265
v -0.158191785 2.63388848 -0.0549052767
v -0.188404724 2.46143556 0.07887469
v -0.208562419 2.44790983 0.0212177187
v -0.275897 2.494086 -0.0557402447
v -0.233819038 2.57898617 -0.0441276
v -0.195546687 2.373833 0.08736194
v -0.2300167 2.359015 0.0366013721
v -0.300503075 2.34569 -0.0398203172
v -0.258752346 2.42567635 -0.0614940226
v -0.178235 2.39014816 0.1479648
v -0.164340124 2.48206186 0.108621992
v -0.165384516 2.322397 0.09042427
v -0.154972553 2.42284083 -0.00478903623
v -0.08620804 2.52297521 0.02986833
v -0.0947406963 2.47920728 -0.0592639446
v -0.164559141 2.276208 0.00625597732
v -0.162699461 2.35008764 -0.08439641
v -0.09142111 2.419573 -0.137545809
v -0.07730251 2.31472254 -0.0893244743
v -0.0650325045 2.33556128 -0.1157205
v -0.0428391136 2.35829639 -0.140997469
v -0.03267891 2.28248024 -0.131584048
v -0.09886072 2.31189919 -0.141946092
v -0.0567219742 2.33829284 -0.15430592
v -0.0484467 2.17155814 -0.2587655
v -0.163210839 2.23255873 -0.281968772
v -0.102555454 2.36878157 -0.323590368
v -0.151781082 2.34648418 0.2352759
v -0.152257249 2.437398 0.220151573
v -0.2540336 2.33192086 0.132168248
v -0.20144403 2.44651675 0.11384201
v -0.130038425 2.256349 0.242520377
v -0.151781082 2.34648418 0.2352759
v -0.246164232 2.20857763 0.115409225
v -0.2540336 2.33192086 0.132168248
v -0.112133726 2.170395 0.24550204
v -0.130038425 2.256349 0.242520377
v -0.196151972 2.13926077 0.211189166
v -0.246164232 2.20857763 0.115409225
v -0.178235 2.39014816 0.1479648
v -0.166257858 2.49316287 0.0494064242
v -0.236998886 2.23588061 0.01816238
v -0.223729223 2.358129 -0.123409808
v -0.08707003 2.54827881 -0.0130522568
v -0.117316447 2.45316482 -0.195670083
v -0.000291107775 2.51880622 -0.2180621
v -0.138778582 2.552165 0.208334044
v -0.08708428 2.592485 0.129761428
v -0.108321652 2.31517768 -0.033840403
vt 0.08385177 0.452884555
vt 0.113292485 0.401796818
vt 0.235572353 0.4244265
vt 0.18466711 0.478807569
vt 0.307514727 0.449810266
vt 0.69192487 0.789466262
vt 0.7631095 0.620757937
vt 0.8524111 0.7044698
vt 0.6709247 0.950613856
vt 0.890697837 0.8433707
vt 0.917326868 0.9458954
vt 0.5901636 0.7967056
vt 0.767218649 0.229575038
vt 0.6575328 0.214128613
vt 0.655462742 0.08033669
vt 0.755911052 0.123268306
vt 0.5154568 0.174444556
vt 0.507473946 0.0375269055
vt 0.8656843 0.147576034
vt 0.7744331 0.05821979
vt 0.6556871 0.304957747
vt 0.5154567 0.2781934
vt 0.5154567 0.1744461
vt 0.664915562 0.4226787
vt 0.664915562 0.489772677
vt 0.5154543 0.494384766
vt 0.5154543 0.406988084
vt 0.8044964 0.282779574
vt 0.836564958 0.339163542
vt 0.8542954 0.491765022
vt 0.7411187 0.5174363
vt 0.9013803 0.195080161
vt 0.926659644 0.24369365
vt 0.96770364 0.295560122
vt 0.898205936 0.395524144
vt 0.6556871 0.606992841
vt 0.5154543 0.6019999
vt 0.2228339 0.664352536
vt 0.252535731 0.534317732
vt 0.188025981 0.4922638
vt 0.16058889 0.5898943
vt 0.164594978 0.750332832
vt 0.07142076 0.724717259
vt 0.30355528 0.6177163
vt 0.410264075 0.5689592
vt 0.339179635 0.4649108
vt 0.336136431 0.721985459
vt 0.441129357 0.675937
vt 0.410265326 0.568963051
vt 0.422174424 0.803408742
vt 0.3344607 0.8363538
vt 0.336234421 0.9323182
vt 0.400206476 0.92413044
vt 0.252365142 0.7672688
vt 0.24582985 0.8505622
vt 0.260530382 0.952050567
vt 0.343609959 0.9286872
vt 0.162806243 0.798199058
vt 0.16088 0.868635535
vt 0.1762416 0.9608544
vt 0.244216055 0.9353453
vt 0.067260474 0.7989342
vt 0.06311509 0.861330152
vt 0.0466597341 0.959619045
vt 0.107859939 0.976444244
vt 0.113292485 0.401796818
vt 0.0437502041 0.3288448
vt 0.109204635 0.256380618
vt 0.202806532 0.29765594
vt 0.235572353 0.4244265
vt 0.298766226 0.341382146
vt 0.391697168 0.362558
vt 0.172668308 0.1667707
vt 0.24927178 0.1915766
vt 0.353445679 0.2509756
vt 0.438009 0.281211972
vt 0.286139637 0.176452279
vt 0.3186579 0.185632467
vt 0.361617178 0.20246917
vt 0.30028522 0.1396892
vt 0.3291151 0.15108484
vt 0.3712499 0.171190023
vt 0.414137661 0.192242622
vt 0.404067129 0.220598638
vt 0.30606246 0.0180152059
vt 0.376251847 0.0334929228
vt 0.445489675 0.07074481
vt 0.4855264 0.129928172
vt 0.41599682 0.190653086
vt 0.260719061 0.148297966
vt 0.262314767 0.126664758
vt 0.273551583 0.0301029086
vt 0.8221117 0.310578942
vt 0.8967459 0.220560372
vt 0.956542 0.2841556
vt 0.887755334 0.38476336
vt 0.8221117 0.310578942
vt 0.8967459 0.220560372
vt 0.956542 0.2841556
vt 0.887755334 0.38476336
vt 0.8221117 0.310578942
vt 0.8967459 0.220560372
vt 0.956542 0.2841556
vt 0.887755334 0.38476336
vt 0.202058136 0.7070394
vt 0.108203985 0.704777837
vt 0.0802776963 0.953647256
vt 0.201358587 0.9563984
vt 0.3232788 0.7021027
vt 0.321337342 0.974456668
vt 0.421265334 0.7041797
vt 0.4186866 0.949392259
vt 0.3232788 0.5692124
vt 0.207595229 0.5759948
vt 0.419419646 0.589746356
vt 0.244481921 0.495522916
vt 0.484609455 0.927979946
vt 0.488400847 0.803993046
vt 0.577717364 0.9393588
vt 0.5154568 0.278195381
vt 0.339178741 0.464909315
vt 0.441129118 0.6759415
vt 0.4034572 0.221379161
vt 0.437472016 0.280248523
vt 0.113292485 0.401796818
vt 0.08385177 0.452884555
vt 0.235572353 0.4244265
vt 0.18466711 0.478807569
vt 0.7631095 0.620757937
vt 0.69192487 0.789466262
vt 0.8524111 0.7044698
vt 0.6709247 0.950613856
vt 0.890697837 0.8433707
vt 0.917326868 0.9458954
vt 0.5901636 0.7967056
vt 0.6575328 0.214128613
vt 0.767218649 0.229575038
vt 0.655462742 0.08033669
vt 0.755911052 0.123268306
vt 0.8656843 0.147576034
vt 0.7744331 0.05821979
vt 0.6556871 0.304957747
vt 0.664915562 0.489772677
vt 0.664915562 0.4226787
vt 0.8044964 0.282779574
vt 0.836564958 0.339163542
vt 0.8542954 0.491765022
vt 0.7411187 0.5174363
vt 0.9013803 0.195080161
vt 0.926659644 0.24369365
vt 0.96770364 0.295560122
vt 0.898205936 0.395524144
vt 0.6556871 0.606992841
vt 0.252535731 0.534317732
vt 0.2228339 0.664352536
vt 0.188025981 0.4922638
vt 0.16058889 0.5898943
vt 0.164594978 0.750332832
vt 0.07142076 0.724717259
vt 0.30355528 0.6177163
vt 0.336136431 0.721985459
vt 0.3344607 0.8363538
vt 0.422174424 0.803408742
vt 0.336234421 0.9323182
vt 0.400206476 0.92413044
vt 0.252365142 0.7672688
vt 0.24582985 0.8505622
vt 0.260530382 0.952050567
vt 0.343609959 0.9286872
vt 0.162806243 0.798199058
vt 0.16088 0.868635535
vt 0.1762416 0.9608544
vt 0.244216055 0.9353453
vt 0.067260474 0.7989342
vt 0.06311509 0.861330152
vt 0.0466597341 0.959619045
vt 0.107859939 0.976444244
vt 0.0437502041 0.3288448
vt 0.113292485 0.401796818
vt 0.109204635 0.256380618
vt 0.202806532 0.29765594
vt 0.235572353 0.4244265
vt 0.298766226 0.341382146
vt 0.172668308 0.1667707
vt 0.24927178 0.1915766
vt 0.353445679 0.2509756
vt 0.286139637 0.176452279
vt 0.3186579 0.185632467
vt 0.361617178 0.20246917
vt 0.30028522 0.1396892
vt 0.3291151 0.15108484
vt 0.3712499 0.171190023
vt 0.30606246 0.0180152059
vt 0.376251847 0.0334929228
vt 0.445489675 0.07074481
vt 0.8967459 0.220560372
vt 0.8221117 0.310578942
vt 0.956542 0.2841556
vt 0.887755334 0.38476336
vt 0.8967459 0.220560372
vt 0.8221117 0.310578942
vt 0.956542 0.2841556
vt 0.887755334 0.38476336
vt 0.8967459 0.220560372
vt 0.8221117 0.310578942
vt 0.956542 0.2841556
vt 0.887755334 0.38476336
vt 0.108203985 0.704777837
vt 0.202058136 0.7070394
vt 0.0802776963 0.953647256
vt 0.201358587 0.9563984
vt 0.3232788 0.7021027
vt 0.321337342 0.974456668
vt 0.4186866 0.949392259
vt 0.207595229 0.5759948
vt 0.3232788 0.5692124
vt 0.577717364 0.9393588
vn 0.7040398 0.588916838 -0.396868944
vn 0.808317 0.451310545 -0.378077328
vn 0.4314423 0.728697836 -0.531843
vn 0.475371659 0.719836831 -0.5058228
vn -0.0230837744 0.8884173 -0.45845595
vn 0.8765722 0.240587175 -0.4168201
vn 0.808317 0.451310545 -0.378077328
vn 0.9667709 0.009175986 -0.255479723
vn 0.803377 0.3157527 -0.50486207
vn 0.967479 0.238922715 -0.08306856
vn 0.8218085 0.5697133 0.007587007
vn 0.401893556 0.407580137 -0.8199756
vn 0.8850646 0.0724550858 0.459794432
vn 0.605734766 0.4492911 0.656675637
vn 0.551151037 0.427568 0.716532
vn 0.9091009 0.186802879 0.372344226
vn -0.00641021226 0.54194355 0.840390444
vn -0.00527046667 0.499150276 0.8664994
vn 0.9679517 0.05469442 0.2451081
vn 0.9491427 0.122390941 0.2900838
vn 0.57036227 0.6423055 0.511986852
vn -0.0111168595 0.7100181 0.704095662
vn -0.00641021226 0.54194355 0.840390444
vn 0.5289296 0.714035 0.458680272
vn 0.189671382 0.87473464 0.445941776
vn -0.01848323 0.9329975 0.359407783
vn -0.0163881872 0.876701534 0.480755448
vn 0.894332945 0.177032009 0.410887182
vn 0.8139252 0.148553327 0.561656237
vn 0.7228773 0.289666176 0.6273292
vn 0.7158399 0.333369017 0.6135457
vn 0.9097031 0.005810305 0.415218621
vn 0.764750361 0.0151524488 0.644148469
vn 0.7361154 -0.02100252 0.6765301
vn 0.6624061 -0.08180036 0.7446656
vn 0.112336479 0.8979641 0.425489038
vn -0.01841126 0.9312072 0.364025027
vn 0.89547044 0.385003865 0.2233937
vn 0.649104059 0.584635556 0.486688018
vn 0.8736988 0.213552669 0.437087774
vn 0.9045983 0.232998967 0.356950074
vn 0.9424763 -0.0103124548 0.334113866
vn 0.957017243 0.198225692 0.211718172
vn 0.4989665 0.8112635 0.304768652
vn -0.017538039 0.9085849 0.417331874
vn -0.0144584589 0.819046557 0.57354486
vn 0.471458673 0.8801109 0.0559593
vn -0.021473974 0.992741644 0.118333794
vn -0.017538039 0.9085849 0.417331874
vn 0.516116 0.824443161 0.232202008
vn 0.451669335 0.864913762 0.218904
vn 0.516308546 0.8221335 0.239837378
vn 0.518144965 0.8203089 0.242113844
vn 0.8471633 0.5163103 0.125451148
vn 0.680618346 0.6325869 0.3695842
vn 0.360335648 0.693733156 0.6236125
vn 0.388264716 0.600582063 0.6989647
vn 0.9282551 0.230133727 0.292200238
vn 0.8399107 0.341006845 0.4222136
vn 0.661137164 0.258005738 0.7045074
vn 0.661556542 0.260876447 0.7030551
vn 0.895769238 0.1719493 0.409915715
vn 0.8002443 0.2772922 0.5317125
vn 0.7613918 0.439630061 0.476453453
vn 0.772092164 0.541142344 0.333224535
vn 0.905523837 0.325438827 -0.2722428
vn 0.9593861 0.07889469 -0.270839334
vn 0.989094436 0.0867951 -0.118991017
vn 0.8975395 0.379761845 -0.2240621
vn 0.493928075 0.783566 -0.3769077
vn 0.5199437 0.742942 -0.421539783
vn -0.022818204 0.8619257 -0.5065208
vn 0.9666944 -0.13653554 -0.216471657
vn 0.8128328 -0.13449885 -0.5667565
vn 0.4759267 0.2999918 -0.8267398
vn -0.0152466511 0.399537 -0.9165903
vn 0.4543881 -0.7532036 -0.475621462
vn 0.8678884 -0.199131548 -0.455100447
vn 0.417245984 0.2936127 -0.860056639
vn 0.231063962 -0.696066558 0.679779947
vn 0.8569592 0.190384239 0.478930771
vn 0.4816723 0.8483303 -0.219835162
vn -0.0234351624 0.96931684 -0.244694933
vn -0.0135836089 0.3156375 -0.9487826
vn 0.305631936 -0.6980016 0.6475978
vn 0.8465436 -0.059001144 0.5290395
vn 0.57405597 0.7477696 0.333617121
vn -0.0178110972 0.915830731 0.40116933
vn -0.0234351624 0.96931684 -0.244694933
vn 0.0195570644 -0.6357845 0.7716188
vn 0.0198329464 -0.652344465 0.7576631
vn 0.0210781228 -0.7308469 0.6822159
vn 0.7676781 0.297750384 0.567463756
vn 0.723099768 0.0200350937 0.690452933
vn 0.7592518 0.0853581652 0.6451749
vn 0.7881925 0.4695652 0.397820443
vn 0.723099768 0.0200350937 0.690452933
vn 0.671671748 0.0280330349 0.740318358
vn 0.7472733 0.06882514 0.660943031
vn 0.7592518 0.0853581652 0.6451749
vn 0.671671748 0.0280330349 0.740318358
vn 0.378151774 -0.02686124 0.9253538
vn 0.6619798 0.207621351 0.7201917
vn 0.7472733 0.06882514 0.660943031
vn 0.786316037 0.603525162 -0.132153
vn 0.9486305 0.289312541 0.128056318
vn 0.9494846 0.2909048 0.117700808
vn 0.855999 0.5118857 -0.072379306
vn 0.408237219 0.8436808 -0.34863323
vn 0.554873943 0.7949551 -0.245278165
vn -0.0233175363 0.9177139 -0.396557122
vn 0.465850949 0.866936862 -0.177209988
vn 0.5423304 0.811344147 -0.2181706
vn 0.689918756 0.710841954 -0.136805832
vn -0.0234235041 0.937364 -0.347563028
vn -0.0228337646 0.863356054 -0.504078269
vn 0.0426581837 0.360835135 -0.9316535
vn -0.04153582 0.4114011 -0.9105075
vn 0.803377 0.3157527 -0.50486207
vn -0.0111168595 0.7100181 0.704095662
vn -0.0144584589 0.819046557 0.57354486
vn -0.021473974 0.992741644 0.118333794
vn -0.0135836089 0.3156375 -0.9487826
vn -0.0152466511 0.399537 -0.9165903
vn -0.832854748 0.4144677 -0.366837144
vn -0.73512423 0.5566093 -0.387012243
vn -0.470946968 0.708440542 -0.525662363
vn -0.5140741 0.6976253 -0.4990459
vn -0.832854748 0.4144677 -0.366837144
vn -0.9115678 0.0229189545 -0.410510451
vn -0.9494024 -0.08198644 -0.303172141
vn -0.7424524 0.225250989 -0.63089335
vn -0.957154751 0.211222708 -0.19809036
vn -0.821016967 0.5676212 -0.0611337833
vn -0.428260922 0.327884525 -0.8420715
vn -0.616238356 0.4218602 0.6650446
vn -0.8810465 0.03280834 0.471890539
vn -0.5599203 0.402626783 0.7241415
vn -0.911384761 0.145935416 0.384812534
vn -0.965984643 0.0112802777 0.2583533
vn -0.9496182 0.07976642 0.303088337
vn -0.591547 0.6162221 0.519944668
vn -0.222609311 0.86547935 0.4487656
vn -0.5541085 0.6897219 0.46609816
vn -0.895666838 0.136850446 0.423146367
vn -0.812005639 0.112052895 0.5727923
vn -0.7264905 0.257129967 0.637256444
vn -0.7216103 0.301101863 0.6233909
vn -0.903277755 -0.03488854 0.427635521
vn -0.7557695 -0.0189810917 0.6545626
vn -0.725100458 -0.0538047031 0.686538
vn -0.6478116 -0.111212745 0.7536391
vn -0.146680757 0.892148733 0.427265018
vn -0.667960465 0.5550695 0.4957083
vn -0.9087021 0.344503134 0.235750034
vn -0.8763355 0.174267367 0.449073523
vn -0.9091705 0.192283362 0.369372576
vn -0.9364013 -0.0524918474 0.346982956
vn -0.961959958 0.155147627 0.224860579
vn -0.530648649 0.788149357 0.311821461
vn -0.50966686 0.858085632 0.06267988
vn -0.486986667 0.8438419 0.225332648
vn -0.549362063 0.800525665 0.239499435
vn -0.549346149 0.798212051 0.247136325
vn -0.5510674 0.7963076 0.249437138
vn -0.867681861 0.477813184 0.137196153
vn -0.703196347 0.6015207 0.3790616
vn -0.38253364 0.6770559 0.6286997
vn -0.40522 0.5827686 0.7043987
vn -0.9335592 0.188338727 0.304952025
vn -0.8485073 0.30310452 0.43377763
vn -0.6623415 0.228295729 0.7135719
vn -0.662909 0.231144309 0.7121264
vn -0.8968867 0.131706834 0.422193676
vn -0.804526448 0.241267666 0.5427035
vn -0.7737579 0.405168831 0.486967117
vn -0.7909623 0.5060548 0.343929082
vn -0.9655777 0.0356821641 -0.25765565
vn -0.9228573 0.2843942 -0.259719759
vn -0.9935291 0.042288132 -0.105412111
vn -0.9166593 0.339036018 -0.2116372
vn -0.5337046 0.7604973 -0.369869262
vn -0.558479846 0.718732834 -0.414153785
vn -0.962466955 -0.179842517 -0.203258544
vn -0.8136613 -0.171012372 -0.555616856
vn -0.5001826 0.278079927 -0.8200542
vn -0.4266002 -0.7729818 -0.469586372
vn -0.864228368 -0.238016531 -0.443235248
vn -0.441735983 0.2743305 -0.854173362
vn -0.190269515 -0.7055252 0.6826651
vn -0.858002365 0.151886925 0.49067533
vn -0.522217453 0.8257949 -0.2129595
vn -0.265109 -0.7108137 0.6515068
vn -0.8357206 -0.09676631 0.540562034
vn -0.602410436 0.7213598 0.341674864
vn -0.7137499 -0.0122202355 0.700294
vn -0.772424757 0.263177216 0.5780119
vn -0.7534132 0.05140104 0.6555352
vn -0.802948952 0.433846265 0.408718
vn -0.6620547 -0.00190722733 0.749453068
vn -0.7137499 -0.0122202355 0.700294
vn -0.740490258 0.03542705 0.671132743
vn -0.7534132 0.05140104 0.6555352
vn -0.36386168 -0.04351839 0.930435836
vn -0.6620547 -0.00190722733 0.749453068
vn -0.660707653 0.177929074 0.7292508
vn -0.740490258 0.03542705 0.671132743
vn -0.9588149 0.246493429 0.141120329
vn -0.8143408 0.5675933 -0.121189967
vn -0.959881246 0.2480426 0.130777821
vn -0.879016638 0.472937524 -0.0604965165
vn -0.450418681 0.8244053 -0.34275195
vn -0.593292534 0.769180357 -0.2374142
vn -0.506666362 0.845105 -0.170548514
vn -0.722927868 0.679126859 -0.127129689
vn -0.581127048 0.786124349 -0.210475221
vn -0.7424524 0.225250989 -0.63089335
usemtl 0001620001_part_0_material_0
f 1/1/1 2/2/2 3/3/3
f 3/3/3 4/4/4 1/1/1
f 4/4/4 3/3/3 5/5/5
f 6/6/6 7/7/7 8/8/8
f 9/9/9 6/6/6 8/8/8
f 8/8/8 10/10/10 9/9/9
f 9/9/9 10/10/10 11/11/11
f 12/12/12 6/6/6 9/9/9
f 13/13/13 14/14/14 15/15/15
f 15/15/15 16/16/16 13/13/13
f 14/14/14 17/17/17 18/18/18
f 16/16/16 19/19/19 13/13/13
f 20/20/20 19/19/19 16/16/16
f 21/21/21 22/22/22 23/23/23
f 24/24/24 25/25/25 26/26/26
f 26/26/26 27/27/27 24/24/24
f 14/14/14 13/13/13 28/28/28
f 28/28/28 21/21/21 14/14/14
f 21/21/21 28/28/28 29/29/29
f 29/29/29 24/24/24 21/21/21
f 24/24/24 29/29/29 30/30/30
f 30/30/30 31/31/31 24/24/24
f 19/19/19 32/32/32 28/28/28
f 28/28/28 13/13/13 19/19/19
f 29/29/29 33/33/33 34/34/34
f 34/34/34 35/35/35 29/29/29
f 32/32/32 33/33/33 29/29/29
f 29/29/29 28/28/28 32/32/32
f 25/25/25 36/36/36 37/37/37
f 37/37/37 26/26/26 25/25/25
f 38/38/38 39/39/39 40/40/40
f 40/40/40 41/41/41 38/38/38
f 42/42/42 38/38/38 41/41/41
f 41/41/41 43/43/43 42/42/42
f 44/44/44 45/45/45 46/46/46
f 44/44/44 39/39/39 38/38/38
f 47/47/47 48/48/48 49/49/49
f 50/50/50 51/51/51 52/52/52
f 52/52/52 53/53/53 50/50/50
f 44/44/44 38/38/38 54/54/54
f 54/54/54 47/47/47 44/44/44
f 47/47/47 54/54/54 55/55/55
f 55/55/55 51/51/51 47/47/47
f 51/51/51 55/55/55 56/56/56
f 56/56/56 57/57/57 51/51/51
f 38/38/38 42/42/42 58/58/58
f 58/58/58 54/54/54 38/38/38
f 54/54/54 58/58/58 59/59/59
f 59/59/59 55/55/55 54/54/54
f 55/55/55 59/59/59 60/60/60
f 60/60/60 61/61/61 55/55/55
f 42/42/42 43/43/43 62/62/62
f 62/62/62 58/58/58 42/42/42
f 58/58/58 62/62/62 63/63/63
f 63/63/63 59/59/59 58/58/58
f 59/59/59 63/63/63 64/64/64
f 64/64/64 65/65/65 59/59/59
f 66/66/66 67/67/67 68/68/68
f 68/68/68 69/69/69 66/66/66
f 70/70/70 66/66/66 69/69/69
f 69/69/69 71/71/71 70/70/70
f 5/5/5 70/70/70 71/71/71
f 71/71/71 72/72/72 5/5/5
f 69/69/69 68/68/68 73/73/73
f 73/73/73 74/74/74 69/69/69
f 71/71/71 69/69/69 74/74/74
f 74/74/74 75/75/75 71/71/71
f 72/72/72 71/71/71 75/75/75
f 75/75/75 76/76/76 72/72/72
f 74/74/74 73/73/73 77/77/77
f 77/77/77 78/78/78 74/74/74
f 75/75/75 74/74/74 78/78/78
f 78/78/78 79/79/79 75/75/75
f 76/76/76 75/75/75 79/79/79
f 78/78/78 77/77/77 80/80/80
f 80/80/80 81/81/81 78/78/78
f 79/79/79 78/78/78 81/81/81
f 81/81/81 82/82/82 79/79/79
f 82/82/82 83/83/83 84/84/84
f 81/81/81 80/80/80 85/85/85
f 85/85/85 86/86/86 81/81/81
f 82/82/82 81/81/81 86/86/86
f 86/86/86 87/87/87 82/82/82
f 87/87/87 88/88/88 89/89/89
f 80/80/80 77/77/77 90/90/90
f 90/90/90 91/91/91 80/80/80
f 85/85/85 80/80/80 91/91/91
f 91/91/91 92/92/92 85/85/85
f 93/93/93 94/94/94 95/95/95
f 95/95/95 96/96/96 93/93/93
f 97/97/97 98/98/98 99/99/99
f 99/99/99 100/100/100 97/97/97
f 101/101/101 102/102/102 103/103/103
f 103/103/103 104/104/104 101/101/101
f 105/105/105 106/106/106 107/107/107
f 107/107/107 108/108/108 105/105/105
f 109/109/109 105/105/105 108/108/108
f 108/108/108 110/110/110 109/109/109
f 111/111/111 109/109/109 110/110/110
f 110/110/110 112/112/112 111/111/111
f 113/113/113 114/114/114 105/105/105
f 105/105/105 109/109/109 113/113/113
f 115/115/115 113/113/113 109/109/109
f 109/109/109 111/111/111 115/115/115
f 5/5/5 116/116/116 4/4/4
f 117/117/117 118/118/118 12/12/12
f 12/12/12 119/119/119 117/117/117
f 18/18/18 15/15/15 14/14/14
f 17/17/17 14/14/14 21/21/21
f 22/22/22 21/21/21 24/24/24
f 24/24/24 27/27/27 120/120/120
f 121/121/121 39/39/39 44/44/44
f 45/45/45 44/44/44 47/47/47
f 48/48/48 47/47/47 51/51/51
f 51/51/51 50/50/50 122/122/122
f 79/79/79 123/123/123 124/124/124
f 123/123/123 79/79/79 82/82/82
f 83/83/83 82/82/82 87/87/87
f 125/125/125 126/126/126 127/127/127
f 128/128/128 127/127/127 126/126/126
f 127/127/127 128/128/128 5/5/5
f 129/129/129 130/130/130 131/131/131
f 130/130/130 132/132/132 131/131/131
f 133/133/133 131/131/131 132/132/132
f 133/133/133 132/132/132 134/134/134
f 130/130/130 135/135/135 132/132/132
f 136/136/136 137/137/137 138/138/138
f 139/139/139 138/138/138 137/137/137
f 17/17/17 136/136/136 18/18/18
f 140/140/140 139/139/139 137/137/137
f 140/140/140 141/141/141 139/139/139
f 22/22/22 142/142/142 23/23/23
f 143/143/143 144/144/144 26/26/26
f 27/27/27 26/26/26 144/144/144
f 137/137/137 136/136/136 145/145/145
f 142/142/142 145/145/145 136/136/136
f 145/145/145 142/142/142 146/146/146
f 144/144/144 146/146/146 142/142/142
f 146/146/146 144/144/144 147/147/147
f 148/148/148 147/147/147 144/144/144
f 149/149/149 140/140/140 145/145/145
f 137/137/137 145/145/145 140/140/140
f 150/150/150 146/146/146 151/151/151
f 152/152/152 151/151/151 146/146/146
f 150/150/150 149/149/149 146/146/146
f 145/145/145 146/146/146 149/149/149
f 153/153/153 143/143/143 37/37/37
f 26/26/26 37/37/37 143/143/143
f 154/154/154 155/155/155 156/156/156
f 157/157/157 156/156/156 155/155/155
f 155/155/155 158/158/158 157/157/157
f 159/159/159 157/157/157 158/158/158
f 45/45/45 160/160/160 46/46/46
f 154/154/154 160/160/160 155/155/155
f 48/48/48 161/161/161 49/49/49
f 162/162/162 163/163/163 164/164/164
f 165/165/165 164/164/164 163/163/163
f 155/155/155 160/160/160 166/166/166
f 161/161/161 166/166/166 160/160/160
f 166/166/166 161/161/161 167/167/167
f 162/162/162 167/167/167 161/161/161
f 167/167/167 162/162/162 168/168/168
f 169/169/169 168/168/168 162/162/162
f 158/158/158 155/155/155 170/170/170
f 166/166/166 170/170/170 155/155/155
f 170/170/170 166/166/166 171/171/171
f 167/167/167 171/171/171 166/166/166
f 171/171/171 167/167/167 172/172/172
f 173/173/173 172/172/172 167/167/167
f 159/159/159 158/158/158 174/174/174
f 170/170/170 174/174/174 158/158/158
f 174/174/174 170/170/170 175/175/175
f 171/171/171 175/175/175 170/170/170
f 175/175/175 171/171/171 176/176/176
f 177/177/177 176/176/176 171/171/171
f 178/178/178 179/179/179 180/180/180
f 181/181/181 180/180/180 179/179/179
f 179/179/179 182/182/182 181/181/181
f 183/183/183 181/181/181 182/182/182
f 182/182/182 5/5/5 183/183/183
f 72/72/72 183/183/183 5/5/5
f 180/180/180 181/181/181 184/184/184
f 185/185/185 184/184/184 181/181/181
f 181/181/181 183/183/183 185/185/185
f 186/186/186 185/185/185 183/183/183
f 183/183/183 72/72/72 186/186/186
f 76/76/76 186/186/186 72/72/72
f 184/184/184 185/185/185 187/187/187
f 188/188/188 187/187/187 185/185/185
f 185/185/185 186/186/186 188/188/188
f 189/189/189 188/188/188 186/186/186
f 186/186/186 76/76/76 189/189/189
f 187/187/187 188/188/188 190/190/190
f 191/191/191 190/190/190 188/188/188
f 188/188/188 189/189/189 191/191/191
f 192/192/192 191/191/191 189/189/189
f 83/83/83 192/192/192 84/84/84
f 190/190/190 191/191/191 193/193/193
f 194/194/194 193/193/193 191/191/191
f 191/191/191 192/192/192 194/194/194
f 195/195/195 194/194/194 192/192/192
f 88/88/88 195/195/195 89/89/89
f 187/187/187 190/190/190 90/90/90
f 91/91/91 90/90/90 190/190/190
f 190/190/190 193/193/193 91/91/91
f 92/92/92 91/91/91 193/193/193
f 196/196/196 197/197/197 198/198/198
f 199/199/199 198/198/198 197/197/197
f 200/200/200 201/201/201 202/202/202
f 203/203/203 202/202/202 201/201/201
f 204/204/204 205/205/205 206/206/206
f 207/207/207 206/206/206 205/205/205
f 208/208/208 209/209/209 210/210/210
f 211/211/211 210/210/210 209/209/209
f 209/209/209 212/212/212 211/211/211
f 213/213/213 211/211/211 212/212/212
f 212/212/212 111/111/111 213/213/213
f 214/214/214 213/213/213 111/111/111
f 215/215/215 216/216/216 209/209/209
f 212/212/212 209/209/209 216/216/216
f 216/216/216 115/115/115 212/212/212
f 111/111/111 212/212/212 115/115/115
f 116/116/116 5/5/5 128/128/128
f 118/118/118 117/117/117 135/135/135
f 217/217/217 135/135/135 117/117/117
f 138/138/138 18/18/18 136/136/136
f 136/136/136 17/17/17 142/142/142
f 142/142/142 22/22/22 144/144/144
f 27/27/27 144/144/144 120/120/120
f 154/154/154 121/121/121 160/160/160
f 160/160/160 45/45/45 161/161/161
f 161/161/161 48/48/48 162/162/162
f 163/163/163 162/162/162 122/122/122
f 123/123/123 189/189/189 124/124/124
f 189/189/189 123/123/123 192/192/192
f 192/192/192 83/83/83 195/195/195
