mtllib 0002621014.mtl
o 0002621014_part_0
v 0.308921963 0.0229239464 0.07553307
v 0.321422666 0.0208112 0.207995787
v 0.13508448 0.0240520239 0.139041841
v 0.111565635 0.032643795 0.0210150778
v 0.060401 0.03743148 -0.103156075
v 0.103333496 0.03313589 -0.198044658
v 0.182881847 0.0258513689 -0.1465691
v 0.236428231 0.0215858221 -0.0250398424
v 0.060401 0.03743148 -0.103156075
v 0.070858784 0.130222917 -0.07477771
v 0.1092064 0.130269349 -0.17404449
v 0.103333496 0.03313589 -0.198044658
v 0.2397475 0.289381862 -0.08021453
v 0.192942411 0.1271115 -0.116068013
v 0.1092064 0.130269349 -0.17404449
v 0.2440438 0.319894433 -0.208071187
v 0.0612187125 0.280488 -0.00458277
v 0.2440438 0.319894433 -0.208071187
v 0.103339769 0.109088838 0.0401989
v 0.17183131 0.08341265 0.145379514
v 0.221613213 0.121524513 0.154724851
v 0.204686671 0.188277841 0.0877284855
v 0.111565635 0.032643795 0.0210150778
v 0.242681786 0.101385474 -0.0256445911
v 0.13508448 0.0240520239 0.139041841
v 0.111565635 0.032643795 0.0210150778
v 0.2005591 0.324821234 0.0677808151
v 0.236428231 0.0215858221 -0.0250398424
v 0.182881847 0.0258513689 -0.1465691
v 0.204686671 0.188277841 0.0877284855
v 0.103333496 0.03313589 -0.198044658
v 0.321422666 0.0208112 0.207995787
v 0.308921963 0.0229239464 0.07553307
v 0.271532834 0.08798915 0.119358018
v 0.2540858 0.105988681 0.23384361
v 0.19602944 0.01901555 0.243828878
v 0.2830503 0.0168910027 0.310995936
v 0.221613213 0.121524513 0.154724851
v 0.17183131 0.08341265 0.145379514
v 0.2830503 0.0168910027 0.310995936
v 0.19602944 0.01901555 0.243828878
v 0.271532834 0.08798915 0.119358018
v 0.2397475 0.289381862 -0.08021453
v 0.2440438 0.319894433 -0.208071187
v 0.0612187125 0.280488 -0.00458277
v 0.2005591 0.324821234 0.0677808151
v -0.3216793 0.0240294933 0.08710037
v -0.146670014 0.0238261223 0.147490829
v -0.331840634 0.02197373 0.21975328
v -0.125294566 0.0333490372 0.0295367762
v -0.120964147 0.0338341 -0.189622015
v -0.0763239339 0.03782022 -0.09551115
v -0.251085728 0.0232312679 -0.0142877921
v -0.199635252 0.0271087885 -0.13674134
v -0.0763239339 0.03782022 -0.09551115
v -0.120964147 0.0338341 -0.189622015
v -0.125723243 0.131005168 -0.165527463
v -0.08562007 0.130681455 -0.0669573843
v -0.2562328 0.283118725 -0.0581651777
v -0.160396069 0.326034546 -0.1395154
v -0.125723243 0.131005168 -0.165527463
v -0.208436668 0.128435552 -0.106072783
v -0.07661443 0.2729385 0.0142147765
v -0.160396069 0.326034546 -0.1395154
v -0.116180256 0.109692156 0.04855103
v -0.182826951 0.08353996 0.154540479
v -0.214906573 0.181558609 0.0980362743
v -0.232253417 0.122017384 0.164739579
v -0.125294566 0.0333490372 0.0295367762
v -0.256723762 0.103065789 -0.0147667751
v -0.146670014 0.0238261223 0.147490829
v -0.125294566 0.0333490372 0.0295367762
v -0.214182034 0.318342566 0.08843379
v -0.251085728 0.0232312679 -0.0142877921
v -0.199635252 0.0271087885 -0.13674134
v -0.214906573 0.181558609 0.0980362743
v -0.120964147 0.0338341 -0.189622015
v -0.331840634 0.02197373 0.21975328
v -0.263455033 0.106671691 0.244395748
v -0.2831038 0.08884269 0.130241066
v -0.3216793 0.0240294933 0.08710037
v -0.2916737 0.0177761316 0.322056
v -0.205846652 0.019289732 0.253353834
v -0.182826951 0.08353996 0.154540479
v -0.232253417 0.122017384 0.164739579
v -0.205846652 0.019289732 0.253353834
v -0.2916737 0.0177761316 0.322056
v -0.2831038 0.08884269 0.130241066
v -0.2562328 0.283118725 -0.0581651777
v -0.214182034 0.318342566 0.08843379
v -0.07661443 0.2729385 0.0142147765
v -0.160396069 0.326034546 -0.1395154
vt 0.350469381 0.451150775
vt 0.440824628 0.480715871
vt 0.3671947 0.602777541
vt 0.20679307 0.5934497
vt 0.08032926 0.589262843
vt 0.0567294657 0.517089367
vt 0.0912512541 0.462995052
vt 0.209465146 0.465547621
vt 0.9544925 0.0173158646
vt 0.9544925 0.224267066
vt 0.979880154 0.224267066
vt 0.979880154 0.0173158646
vt 0.764867067 0.538094044
vt 0.797868431 0.224267066
vt 0.9544925 0.224267066
vt 0.9544925 0.538094044
vt 0.8596817 0.538094044
vt 0.979880154 0.538094044
vt 0.630685151 0.224267066
vt 0.3585185 0.174165845
vt 0.314228326 0.26846838
vt 0.4895858 0.327164471
vt 0.650610566 0.0173158646
vt 0.6306473 0.224267066
vt 0.367807359 0.0214476585
vt 0.648235857 0.0173158646
vt 0.609827936 0.538094044
vt 0.648235857 0.0173158646
vt 0.812446535 0.0173158646
vt 0.4895848 0.327163279
vt 0.9544925 0.0173158646
vt 0.149034366 0.0173158646
vt 0.367807359 0.0214476585
vt 0.317911476 0.157846987
vt 0.111344717 0.186254382
vt 0.149034366 0.0173158646
vt 0.01270709 0.0173158646
vt 0.260255873 0.298586965
vt 0.317911476 0.157846987
vt 0.504464 0.5478827
vt 0.4377206 0.5884854
vt 0.3585185 0.174165845
vt 0.173668638 0.352360129
vt 0.09546082 0.427655876
vt 0.03010793 0.3295647
vt 0.113709643 0.246532559
vt 0.350469381 0.451150775
vt 0.3671947 0.602777541
vt 0.440824628 0.480715871
vt 0.20679307 0.5934497
vt 0.0567294657 0.517089367
vt 0.08032926 0.589262843
vt 0.209465146 0.465547621
vt 0.0912512541 0.462995052
vt 0.9544925 0.0173158646
vt 0.979880154 0.0173158646
vt 0.979880154 0.224267066
vt 0.9544925 0.224267066
vt 0.764867067 0.538094044
vt 0.9544925 0.538094044
vt 0.9544925 0.224267066
vt 0.797868431 0.224267066
vt 0.8596817 0.538094044
vt 0.979880154 0.538094044
vt 0.630685151 0.224267066
vt 0.3585185 0.174165845
vt 0.4895858 0.327164471
vt 0.314228326 0.26846838
vt 0.650610566 0.0173158646
vt 0.6306473 0.224267066
vt 0.367807359 0.0214476585
vt 0.648235857 0.0173158646
vt 0.609827936 0.538094044
vt 0.648235857 0.0173158646
vt 0.812446535 0.0173158646
vt 0.4895848 0.327163279
vt 0.9544925 0.0173158646
vt 0.149034366 0.0173158646
vt 0.111344717 0.186254382
vt 0.317911476 0.157846987
vt 0.367807359 0.0214476585
vt 0.01270709 0.0173158646
vt 0.149034366 0.0173158646
vt 0.317911476 0.157846987
vt 0.260255873 0.298586965
vt 0.4377206 0.5884854
vt 0.504464 0.5478827
vt 0.3585185 0.174165845
vt 0.173668638 0.352360129
vt 0.113709643 0.246532559
vt 0.03010793 0.3295647
vt 0.09546082 0.427655876
vn 0.8558535 -0.4731024 -0.20901899
vn 0.903793156 -0.415947348 0.100725874
vn -0.735266 -0.552649438 0.392380565
vn -0.624723136 -0.762250245 0.169397756
vn -0.832839251 -0.5479492 -0.0782973
vn -0.255902082 -0.4655402 -0.8472228
vn 0.546984553 -0.6319597 -0.54903084
vn 0.5324116 -0.7788776 -0.331493
vn -0.832839251 -0.5479492 -0.0782973
vn -0.9965434 0.0508751757 -0.0656731054
vn -0.3150308 0.219489545 -0.92335254
vn -0.255902082 -0.4655402 -0.8472228
vn 0.837231159 0.5435376 -0.0600907169
vn 0.744202733 0.012566275 -0.6678356
vn -0.3150308 0.219489545 -0.92335254
vn 0.4972837 0.4800825 -0.722654641
vn -0.812048 0.5464141 0.20496273
vn 0.4972837 0.4800825 -0.722654641
vn -0.870542049 0.0551097021 0.488998383
vn -0.6785489 0.46998474 0.564522564
vn -0.00439028675 0.881454766 0.472248077
vn 0.325781733 0.50199 0.801169336
vn -0.624723136 -0.762250245 0.169397756
vn 0.944684148 0.0895046741 -0.3155326
vn -0.735266 -0.552649438 0.392380565
vn -0.624723136 -0.762250245 0.169397756
vn 0.267213434 0.747858047 0.607705
vn 0.5324116 -0.7788776 -0.331493
vn 0.546984553 -0.6319597 -0.54903084
vn 0.325781733 0.50199 0.801169336
vn -0.255902082 -0.4655402 -0.8472228
vn 0.903793156 -0.415947348 0.100725874
vn 0.8558535 -0.4731024 -0.20901899
vn 0.7907666 0.6121015 -0.00446567172
vn 0.09667064 0.8655406 0.4914206
vn -0.6894651 -0.473138243 0.54843235
vn 0.278823 -0.312816679 0.9079667
vn -0.00439028675 0.881454766 0.472248077
vn -0.6785489 0.46998474 0.564522564
vn 0.278823 -0.312816679 0.9079667
vn -0.6894651 -0.473138243 0.54843235
vn 0.7907666 0.6121015 -0.00446567172
vn 0.837231159 0.5435376 -0.0600907169
vn 0.4972837 0.4800825 -0.722654641
vn -0.812048 0.5464141 0.20496273
vn 0.267213434 0.747858047 0.607705
vn -0.8610718 -0.468992 -0.1964734
vn 0.7378801 -0.5604917 0.376008064
vn -0.904732764 -0.409586221 0.117037214
vn 0.6241075 -0.7658391 0.154855937
vn 0.237492174 -0.467265427 -0.8516223
vn 0.8275138 -0.5536659 -0.09313946
vn -0.5428953 -0.773773849 -0.3264027
vn -0.5609735 -0.628165662 -0.5391815
vn 0.8275138 -0.5536659 -0.09313946
vn 0.237492174 -0.467265427 -0.8516223
vn 0.280169666 0.235536218 -0.930606067
vn 0.9938052 0.06452094 -0.09048901
vn -0.8019697 0.5461056 -0.242101774
vn 0.0535392 0.7756203 -0.628925
vn 0.280169666 0.235536218 -0.930606067
vn -0.753091633 0.0381605029 -0.656808
vn 0.8121925 0.508222 0.2864503
vn 0.0535392 0.7756203 -0.628925
vn 0.877800047 0.0375644341 0.477552116
vn 0.6895711 0.470082849 0.5509209
vn -0.3015784 0.483504742 0.821750343
vn 0.0212874785 0.894319355 0.4469225
vn 0.6241075 -0.7658391 0.154855937
vn -0.9508607 0.09434143 -0.294896066
vn 0.7378801 -0.5604917 0.376008064
vn 0.6241075 -0.7658391 0.154855937
vn -0.2566814 0.7310376 0.6322173
vn -0.5428953 -0.773773849 -0.3264027
vn -0.5609735 -0.628165662 -0.5391815
vn -0.3015784 0.483504742 0.821750343
vn 0.237492174 -0.467265427 -0.8516223
vn -0.904732764 -0.409586221 0.117037214
vn -0.081910044 0.8659725 0.493338019
vn -0.7790248 0.626962543 0.006192726
vn -0.8610718 -0.468992 -0.1964734
vn -0.264857233 -0.310894281 0.912795365
vn 0.6955574 -0.4778993 0.536481261
vn 0.6895711 0.470082849 0.5509209
vn 0.0212874785 0.894319355 0.4469225
vn 0.6955574 -0.4778993 0.536481261
vn -0.264857233 -0.310894281 0.912795365
vn -0.7790248 0.626962543 0.006192726
vn -0.8019697 0.5461056 -0.242101774
vn -0.2566814 0.7310376 0.6322173
vn 0.8121925 0.508222 0.2864503
vn 0.0535392 0.7756203 -0.628925
usemtl 0002621014_part_0_material_0
f 1/1/1 2/2/2 3/3/3
f 1/1/1 3/3/3 4/4/4
f 4/4/4 5/5/5 6/6/6
f 6/6/6 7/7/7 8/8/8
f 4/4/4 6/6/6 8/8/8
f 1/1/1 4/4/4 8/8/8
f 9/9/9 10/10/10 11/11/11
f 11/11/11 12/12/12 9/9/9
f 13/13/13 14/14/14 15/15/15
f 15/15/15 16/16/16 13/13/13
f 17/17/17 18/18/18 11/11/11
f 11/11/11 10/10/10 17/17/17
f 10/10/10 19/19/19 17/17/17
f 20/20/20 21/21/21 22/22/22
f 22/22/22 19/19/19 20/20/20
f 9/9/9 23/23/23 19/19/19
f 19/19/19 10/10/10 9/9/9
f 13/13/13 24/24/24 14/14/14
f 25/25/25 20/20/20 19/19/19
f 19/19/19 26/26/26 25/25/25
f 24/24/24 13/13/13 27/27/27
f 27/27/27 22/22/22 24/24/24
f 28/28/28 29/29/29 14/14/14
f 14/14/14 24/24/24 28/28/28
f 19/19/19 30/30/30 27/27/27
f 27/27/27 17/17/17 19/19/19
f 29/29/29 31/31/31 15/15/15
f 15/15/15 14/14/14 29/29/29
f 32/32/32 33/33/33 34/34/34
f 34/34/34 35/35/35 32/32/32
f 35/35/35 36/36/36 37/37/37
f 35/35/35 38/38/38 39/39/39
f 38/38/38 35/35/35 34/34/34
f 2/2/2 40/40/40 41/41/41
f 41/41/41 3/3/3 2/2/2
f 32/32/32 35/35/35 37/37/37
f 25/25/25 36/36/36 35/35/35
f 35/35/35 39/39/39 25/25/25
f 24/24/24 42/42/42 33/33/33
f 33/33/33 28/28/28 24/24/24
f 22/22/22 21/21/21 42/42/42
f 42/42/42 24/24/24 22/22/22
f 43/43/43 44/44/44 45/45/45
f 45/45/45 46/46/46 43/43/43
f 47/47/47 48/48/48 49/49/49
f 47/47/47 50/50/50 48/48/48
f 50/50/50 51/51/51 52/52/52
f 51/51/51 53/53/53 54/54/54
f 50/50/50 53/53/53 51/51/51
f 47/47/47 53/53/53 50/50/50
f 55/55/55 56/56/56 57/57/57
f 57/57/57 58/58/58 55/55/55
f 59/59/59 60/60/60 61/61/61
f 61/61/61 62/62/62 59/59/59
f 63/63/63 58/58/58 57/57/57
f 57/57/57 64/64/64 63/63/63
f 58/58/58 63/63/63 65/65/65
f 66/66/66 65/65/65 67/67/67
f 67/67/67 68/68/68 66/66/66
f 55/55/55 58/58/58 65/65/65
f 65/65/65 69/69/69 55/55/55
f 59/59/59 62/62/62 70/70/70
f 71/71/71 72/72/72 65/65/65
f 65/65/65 66/66/66 71/71/71
f 70/70/70 67/67/67 73/73/73
f 73/73/73 59/59/59 70/70/70
f 74/74/74 70/70/70 62/62/62
f 62/62/62 75/75/75 74/74/74
f 65/65/65 63/63/63 73/73/73
f 73/73/73 76/76/76 65/65/65
f 75/75/75 62/62/62 61/61/61
f 61/61/61 77/77/77 75/75/75
f 78/78/78 79/79/79 80/80/80
f 80/80/80 81/81/81 78/78/78
f 79/79/79 82/82/82 83/83/83
f 79/79/79 84/84/84 85/85/85
f 85/85/85 80/80/80 79/79/79
f 49/49/49 48/48/48 86/86/86
f 86/86/86 87/87/87 49/49/49
f 78/78/78 82/82/82 79/79/79
f 71/71/71 84/84/84 79/79/79
f 79/79/79 83/83/83 71/71/71
f 70/70/70 74/74/74 81/81/81
f 81/81/81 88/88/88 70/70/70
f 67/67/67 70/70/70 88/88/88
f 88/88/88 68/68/68 67/67/67
f 89/89/89 90/90/90 91/91/91
f 91/91/91 92/92/92 89/89/89
