mtllib 0002621003.mtl
o 0002621003_part_0
v 0.298363626 1.19205666 -0.007233463
v 0.41051963 1.15148735 -0.03567679
v 0.4032187 1.20535147 -0.0463902354
v 0.2813049 1.24594116 -0.02153686
v 0.261642545 1.12620854 -0.10101039
v 0.299438834 1.05423117 -0.08159133
v 0.3431343 1.06834447 -0.0258966088
v 0.303099245 1.19250751 -0.0242484137
v 0.3077604 1.14833558 -0.184506536
v 0.362110734 1.052176 -0.153254628
v 0.385838032 1.06448448 -0.0429548956
v 0.3431343 1.06834447 -0.0258966088
v 0.391452372 0.9553781 -0.0169347674
v 0.463784426 1.13265276 -0.0976206958
v 0.410675764 1.13478863 -0.162583619
v 0.3956103 1.18107045 -0.170255676
v 0.462355882 1.17651677 -0.108250462
v 0.331235 1.03506589 -0.00657716766
v 0.289359152 0.9971135 -0.0392119065
v 0.331235 1.03506589 -0.00657716766
v 0.3573586 0.976317644 0.008718379
v 0.38865304 0.9527072 -0.139969558
v 0.42068696 0.948486 -0.127933472
v 0.3449429 0.962720633 -0.0247359984
v 0.3564899 0.7859917 -0.0124920607
v 0.353926748 0.7842761 -0.03685172
v 0.4060446 0.884362936 -0.0447164774
v 0.424166858 0.894607544 -0.0144257583
v 0.389657229 0.9100109 -0.04849805
v 0.381424963 0.916494846 -0.1362314
v 0.391557574 0.8966996 -0.00211318582
v 0.3407443 0.803892 -0.00268499181
v 0.307005465 0.9061222 0.0420699269
v 0.319335818 1.00178742 0.01274224
v 0.274674118 0.903821945 0.03757213
v 0.3407443 0.803892 -0.00268499181
v 0.391557574 0.8966996 -0.00211318582
v 0.344470233 0.795742 -0.0381353945
v 0.353926748 0.7842761 -0.03685172
v 0.3564899 0.7859917 -0.0124920607
v 0.3153285 0.926993847 -0.00397551432
v 0.28571406 0.8912668 0.0167850032
v 0.274674118 0.903821945 0.03757213
v 0.319335818 1.00178742 0.01274224
v 0.3153285 0.926993847 -0.00397551432
v 0.28571406 0.8912668 0.0167850032
v 0.4192391 1.05434 -0.08732864
v 0.432773829 0.948642135 -0.0484323464
v 0.3973386 1.05377769 -0.125752911
v 0.399499029 0.9056064 -0.124767065
v 0.3449429 0.962720633 -0.0247359984
v 0.310568333 0.8038034 -0.117968991
v 0.2970042 0.814213634 -0.0538591556
v 0.310568333 0.8038034 -0.117968991
v 0.319118619 0.801022768 -0.0570338778
v 0.319118619 0.801022768 -0.0570338778
v 0.389657229 0.9100109 -0.04849805
v 0.2970042 0.814213634 -0.0538591556
v 0.344470233 0.795742 -0.0381353945
v 0.4488778 1.1335808 -0.09799759
v 0.399654835 1.15140522 -0.0467100777
v 0.3991771 1.13664615 -0.152352273
v 0.4228848 1.24862874 -0.117320493
v 0.3893567 1.26259339 -0.06588854
v 0.392537922 1.203575 -0.0571573153
v 0.4229954 1.19160891 -0.108317673
v 0.320667416 1.25772822 -0.176185712
v 0.3871435 1.23996282 -0.1682548
v 0.384952933 1.18145084 -0.159252822
v 0.274728119 1.20028853 -0.183558479
v 0.32087 1.2831775 -0.0617777
v 0.287329167 1.241137 -0.053272035
v 0.41354695 1.25814772 -0.119098328
v 0.385651022 1.26789165 -0.07550744
v 0.3463642 1.25545871 -0.163092464
v 0.3834652 1.25052857 -0.159917682
v 0.343455434 1.277587 -0.0712150037
v 0.4208534 1.30703855 -0.125469342
v 0.4145364 1.31510282 -0.106994472
v 0.398217529 1.3267355 -0.154015884
v 0.416742 1.30868733 -0.144507021
v 0.396172225 1.33472288 -0.100276537
v 0.303099245 1.19250751 -0.0242484137
v 0.213114336 1.15486979 -0.107349038
v 0.249801308 1.124597 -0.09834871
v 0.298363626 1.19205666 -0.007233463
v 0.2813049 1.24594116 -0.02153686
v 0.274088651 1.18921328 -0.2154627
v 0.31050843 1.14655292 -0.201670811
v 0.287329167 1.241137 -0.053272035
v 0.260310441 1.19911242 -0.110987708
v 0.343455434 1.277587 -0.0712150037
v 0.396172225 1.33472288 -0.100276537
v 0.398217529 1.3267355 -0.154015884
v 0.398217529 1.3267355 -0.154015884
v 0.3463642 1.25545871 -0.163092464
v 0.343455434 1.277587 -0.0712150037
v -0.307412028 1.20104682 0.00389862433
v -0.287876 1.25335932 -0.0116710626
v -0.4137877 1.21608663 -0.0297295824
v -0.4185214 1.16521347 -0.0190924369
v -0.275041282 1.13064337 -0.09119187
v -0.312036246 1.20100439 -0.0129175037
v -0.3575403 1.07710791 -0.0116732977
v -0.317557245 1.05876875 -0.0691147447
v -0.3262692 1.15705764 -0.172495872
v -0.3834453 1.062088 -0.137932345
v -0.400850028 1.07695079 -0.0268152356
v -0.416213185 0.969470859 0.000497236848
v -0.3575403 1.07710791 -0.0116732977
v -0.474364132 1.15249836 -0.0787907839
v -0.470910847 1.19449437 -0.08956105
v -0.413193047 1.19149816 -0.15373
v -0.425251245 1.14836192 -0.14581205
v -0.348111421 1.0429374 0.0074519664
v -0.31160748 1.00087631 -0.0265674554
v -0.348111421 1.0429374 0.0074519664
v -0.3791489 0.98712045 0.0244486257
v -0.4190746 0.9658193 -0.122510932
v -0.45081 0.964826 -0.109067187
v -0.369595319 0.9721775 -0.009369437
v -0.397786826 0.7975036 0.00514353439
v -0.454560637 0.912212 0.00502350926
v -0.438867629 0.900064945 -0.0259130821
v -0.396471828 0.795402765 -0.01928521
v -0.420236826 0.9239621 -0.0306542814
v -0.415258318 0.929095745 -0.118721381
v -0.421395421 0.91117233 0.0159014538
v -0.37995553 0.8138329 0.0140835494
v -0.334475428 0.912527442 0.05631242
v -0.302750826 0.9070456 0.0504526868
v -0.338682622 1.00876713 0.02657719
v -0.37995553 0.8138329 0.0140835494
v -0.3860067 0.8058797 -0.0210898537
v -0.421395421 0.91117233 0.0159014538
v -0.396471828 0.795402765 -0.01928521
v -0.397786826 0.7975036 0.00514353439
v -0.3427288 0.9338442 0.0104588158
v -0.315862328 0.895510733 0.0302870944
v -0.338682622 1.00876713 0.02657719
v -0.302750826 0.9070456 0.0504526868
v -0.3427288 0.9338442 0.0104588158
v -0.315862328 0.895510733 0.0302870944
v -0.4371907 1.07001579 -0.06960899
v -0.417108 1.06710231 -0.108937085
v -0.45933336 0.9666301 -0.029125683
v -0.4337896 0.920096934 -0.106381483
v -0.369595319 0.9721775 -0.009369437
v -0.355006129 0.810115337 -0.102384076
v -0.33769846 0.8195218 -0.0390248373
v -0.355006129 0.810115337 -0.102384076
v -0.361112237 0.8085418 -0.04111281
v -0.361112237 0.8085418 -0.04111281
v -0.420236826 0.9239621 -0.0306542814
v -0.33769846 0.8195218 -0.0390248373
v -0.3860067 0.8058797 -0.0210898537
v -0.459823072 1.1515 -0.079731
v -0.408732355 1.16396093 -0.0305313859
v -0.4138653 1.14895368 -0.136021063
v -0.434037626 1.26019657 -0.100104377
v -0.436371624 1.20312822 -0.09061019
v -0.403000355 1.21426547 -0.04115861
v -0.397480875 1.27328014 -0.0505296029
v -0.334719747 1.26582909 -0.164166212
v -0.291075766 1.20694447 -0.173572868
v -0.4012252 1.191763 -0.143419281
v -0.401233643 1.25021732 -0.152754351
v -0.295637667 1.24862409 -0.04303258
v -0.32825467 1.29168916 -0.05003313
v -0.424492 1.26941323 -0.10240984
v -0.3941049 1.27842319 -0.06035351
v -0.359770715 1.26442659 -0.149765059
v -0.396797478 1.26069152 -0.144672439
v -0.3514595 1.2867862 -0.05827428
v -0.430566519 1.31848836 -0.108656846
v -0.4230593 1.32641482 -0.09057173
v -0.4088121 1.33735049 -0.138426363
v -0.427386075 1.31993592 -0.127888188
v -0.4037642 1.34546483 -0.084904626
v -0.312036246 1.20100439 -0.0129175037
v -0.229596123 1.16525662 -0.100597218
v -0.287876 1.25335932 -0.0116710626
v -0.307412028 1.20104682 0.00389862433
v -0.262792051 1.12650025 -0.08891831
v -0.292403638 1.1957233 -0.205410451
v -0.3288533 1.15465 -0.189488783
v -0.272719681 1.20538163 -0.101830959
v -0.295637667 1.24862409 -0.04303258
v -0.3514595 1.2867862 -0.05827428
v -0.359770715 1.26442659 -0.149765059
v -0.4088121 1.33735049 -0.138426363
v -0.4088121 1.33735049 -0.138426363
v -0.4037642 1.34546483 -0.084904626
v -0.3514595 1.2867862 -0.05827428
vt 0.186849058 0.6904428
vt 0.26151818 0.6493928
vt 0.264048338 0.7109099
vt 0.175749272 0.7505392
vt 0.6545993 0.6363361
vt 0.6589529 0.492486954
vt 0.8081506 0.557389259
vt 0.809529245 0.697076142
vt 0.511588156 0.6374647
vt 0.506051064 0.426210642
vt 0.277445018 0.5348061
vt 0.212714449 0.559643269
vt 0.239323154 0.3624143
vt 0.360848367 0.6426804
vt 0.4581972 0.6320721
vt 0.456452042 0.695256
vt 0.358130425 0.701708555
vt 0.8690381 0.4716099
vt 0.8654247 0.3483997
vt 0.140162066 0.4703415
vt 0.177030846 0.352253437
vt 0.5276993 0.288822055
vt 0.4579155 0.275244355
vt 0.8196295 0.259545565
vt 0.199938715 0.05380416
vt 0.237294063 0.0404353738
vt 0.2886313 0.157868564
vt 0.25692004 0.195060611
vt 0.756987333 0.1353383
vt 0.525605857 0.178581238
vt 0.220004976 0.198796988
vt 0.182504267 0.08300418
vt 0.06925479 0.255928576
vt 0.09174883 0.397331476
vt 0.009216474 0.247375131
vt 0.8304605 0.05258155
vt 0.8263283 0.157741308
vt 0.77784735 0.0315187573
vt 0.7826047 0.00719940662
vt 0.8240919 0.01200521
vt 0.186934426 0.301671028
vt 0.08882857 0.191794038
vt 0.9921551 0.213353574
vt 0.923675239 0.39645195
vt 0.838647366 0.248951674
vt 0.9449481 0.179228187
vt 0.363566339 0.5065886
vt 0.3255766 0.358082056
vt 0.450713873 0.466027379
vt 0.446478158 0.181368709
vt 0.209979862 0.3086906
vt 0.541892 0.04836446
vt 0.7564939 0.0379909277
vt 0.413109869 0.06895459
vt 0.2894041 0.03414327
vt 0.756188869 0.002267778
vt 0.2729756 0.07760346
vt 0.269969165 0.0360099673
vt 0.254206479 0.0369643569
vt 0.360848367 0.62034744
vt 0.26151818 0.6270598
vt 0.4581972 0.6097391
vt 0.358130425 0.828706861
vt 0.2697274 0.830525458
vt 0.264048338 0.749712169
vt 0.358130425 0.740510762
vt 0.5097425 0.856912255
vt 0.443532139 0.826087654
vt 0.452760637 0.7249718
vt 0.5208167 0.7513949
vt 0.203434765 0.8610683
vt 0.181286365 0.7906193
vt 0.358130425 0.8439662
vt 0.3038019 0.849163055
vt 0.470556825 0.86961627
vt 0.419963956 0.8429088
vt 0.237367243 0.8758725
vt 0.358130425 0.9306451
vt 0.32225886 0.937149048
vt 0.429383546 0.956295252
vt 0.400087237 0.938106358
vt 0.294157982 0.9539203
vt 0.17762056 0.669955552
vt 0.650245667 0.7288194
vt 0.6545993 0.658669055
vt 0.809529245 0.7194091
vt 0.8109079 0.8053307
vt 0.522662342 0.7260805
vt 0.511588156 0.659797668
vt 0.8109079 0.8313551
vt 0.650245667 0.7548438
vt 0.237367243 0.8758725
vt 0.294157982 0.9539203
vt 0.294157982 0.9539203
vt 0.294157982 0.9539203
vt 0.237367243 0.8758725
vt 0.237367243 0.8758725
vt 0.186849058 0.6904428
vt 0.175749272 0.7505392
vt 0.264048338 0.7109099
vt 0.26151818 0.6493928
vt 0.6545993 0.6363361
vt 0.809529245 0.697076142
vt 0.8081506 0.557389259
vt 0.6589529 0.492486954
vt 0.511588156 0.6374647
vt 0.506051064 0.426210642
vt 0.277445018 0.5348061
vt 0.239323154 0.3624143
vt 0.212714449 0.559643269
vt 0.360848367 0.6426804
vt 0.358130425 0.701708555
vt 0.456452042 0.695256
vt 0.4581972 0.6320721
vt 0.8690381 0.4716099
vt 0.8654247 0.3483997
vt 0.140162066 0.4703415
vt 0.177030846 0.352253437
vt 0.5276993 0.288822055
vt 0.4579155 0.275244355
vt 0.8196295 0.259545565
vt 0.199938715 0.05380416
vt 0.25692004 0.195060611
vt 0.2886313 0.157868564
vt 0.237294063 0.0404353738
vt 0.756987333 0.1353383
vt 0.525605857 0.178581238
vt 0.220004976 0.198796988
vt 0.182504267 0.08300418
vt 0.06925479 0.255928576
vt 0.009216474 0.247375131
vt 0.09174883 0.397331476
vt 0.8304605 0.05258155
vt 0.77784735 0.0315187573
vt 0.8263283 0.157741308
vt 0.7826047 0.00719940662
vt 0.8240919 0.01200521
vt 0.186934426 0.301671028
vt 0.08882857 0.191794038
vt 0.923675239 0.39645195
vt 0.9921551 0.213353574
vt 0.838647366 0.248951674
vt 0.9449481 0.179228187
vt 0.363566339 0.5065886
vt 0.450713873 0.466027379
vt 0.3255766 0.358082056
vt 0.446478158 0.181368709
vt 0.209979862 0.3086906
vt 0.541892 0.04836446
vt 0.7564939 0.0379909277
vt 0.413109869 0.06895459
vt 0.2894041 0.03414327
vt 0.756188869 0.002267778
vt 0.2729756 0.07760346
vt 0.269969165 0.0360099673
vt 0.254206479 0.0369643569
vt 0.360848367 0.62034744
vt 0.26151818 0.6270598
vt 0.4581972 0.6097391
vt 0.358130425 0.828706861
vt 0.358130425 0.740510762
vt 0.264048338 0.749712169
vt 0.2697274 0.830525458
vt 0.5097425 0.856912255
vt 0.5208167 0.7513949
vt 0.452760637 0.7249718
vt 0.443532139 0.826087654
vt 0.181286365 0.7906193
vt 0.203434765 0.8610683
vt 0.358130425 0.8439662
vt 0.3038019 0.849163055
vt 0.470556825 0.86961627
vt 0.419963956 0.8429088
vt 0.237367243 0.8758725
vt 0.358130425 0.9306451
vt 0.32225886 0.937149048
vt 0.429383546 0.956295252
vt 0.400087237 0.938106358
vt 0.294157982 0.9539203
vt 0.17762056 0.669955552
vt 0.650245667 0.7288194
vt 0.8109079 0.8053307
vt 0.809529245 0.7194091
vt 0.6545993 0.658669055
vt 0.522662342 0.7260805
vt 0.511588156 0.659797668
vt 0.650245667 0.7548438
vt 0.8109079 0.8313551
vt 0.237367243 0.8758725
vt 0.237367243 0.8758725
vt 0.294157982 0.9539203
vt 0.294157982 0.9539203
vt 0.294157982 0.9539203
vt 0.237367243 0.8758725
vn -0.1225777 -0.368957222 0.921328
vn 0.325081885 -0.5316671 0.7820817
vn 0.476319343 0.752249241 0.45523724
vn -0.338209331 0.7705403 0.540261149
vn -0.336547941 -0.9349707 0.112095319
vn -0.944031 -0.324855149 -0.05722361
vn -0.162388682 0.199593991 0.9663292
vn 0.0619176365 -0.898315668 0.43496573
vn 0.130562231 -0.970090449 -0.204641238
vn -0.07371125 -0.305109322 -0.9494603
vn 0.595938146 0.0616416037 0.800661
vn -0.162388682 0.199593991 0.9663292
vn 0.386989325 0.183613628 0.9036179
vn 0.787871063 -0.61013633 0.083623156
vn 0.440932333 -0.6677253 -0.5997679
vn 0.441255331 0.6490606 -0.61968863
vn 0.885855 0.43158403 -0.170282334
vn -0.2560601 0.5428821 0.7998201
vn -0.9139763 -0.06143339 -0.4010901
vn -0.2560601 0.5428821 0.7998201
vn 0.600238 -0.114423469 0.7915943
vn -0.329257667 -0.274122924 -0.903574
vn 0.788801551 -0.163180336 -0.5925912
vn -0.3076083 -0.9166747 -0.25511694
vn 0.193455279 -0.866995156 0.459232479
vn 0.05678423 -0.8645411 -0.499343842
vn 0.7816348 -0.530939937 -0.3273374
vn 0.8727921 -0.200485 0.4450165
vn -0.998293042 -0.05797905 -0.007032968
vn -0.48627162 0.07865532 -0.8702605
vn -0.296292573 0.07936124 0.9517944
vn -0.692542 -0.14828746 0.7059719
vn 0.456060439 -0.471640229 0.7546949
vn -0.2784039 0.4956793 0.8226745
vn -0.75636965 -0.312838733 0.5744884
vn -0.692542 -0.14828746 0.7059719
vn -0.296292573 0.07936124 0.9517944
vn -0.7493841 -0.2175996 -0.625359
vn 0.05678423 -0.8645411 -0.499343842
vn 0.193455279 -0.866995156 0.459232479
vn 0.4213965 -0.6695596 -0.611649334
vn -0.235197887 -0.918290436 -0.318472415
vn -0.75636965 -0.312838733 0.5744884
vn -0.2784039 0.4956793 0.8226745
vn 0.4213965 -0.6695596 -0.611649334
vn -0.235197887 -0.918290436 -0.318472415
vn 0.997731268 -0.0209018327 0.06399583
vn 0.959747255 0.04441708 0.277330637
vn 0.7605782 -0.0215593018 -0.6488883
vn 0.673831463 -0.461581469 -0.5769694
vn -0.3076083 -0.9166747 -0.25511694
vn -0.3677484 -0.4917522 -0.78926605
vn -0.8539197 -0.061086785 0.516807139
vn -0.3677484 -0.4917522 -0.78926605
vn 0.172610283 -0.850529969 0.4967942
vn 0.172610283 -0.850529969 0.4967942
vn -0.998293042 -0.05797905 -0.007032968
vn -0.8539197 -0.061086785 0.516807139
vn -0.7493841 -0.2175996 -0.625359
vn 0.3171421 -0.9394738 0.129652768
vn 0.130567178 -0.678794265 0.7226275
vn 0.24789463 -0.8589815 -0.447994471
vn 0.941173732 0.325784653 -0.08975755
vn 0.5129819 0.499622017 0.698016763
vn 0.44909063 0.873742163 0.186794773
vn 0.7106148 0.6671422 -0.2234901
vn 0.205805823 0.08760283 -0.9746639
vn 0.4805705 0.2226678 -0.8482164
vn 0.4248017 0.767124236 -0.480691075
vn -0.444220066 0.744347036 -0.498614132
vn 0.131688535 0.268375039 0.9542709
vn -0.234389648 0.96193403 0.14051494
vn 0.938787 0.328154176 -0.104851514
vn 0.498361 0.6743998 0.544813037
vn 0.245236948 0.7065416 -0.6638206
vn 0.426211983 0.3742758 -0.823566
vn 0.267504781 0.9348081 0.2336131
vn 0.9715459 0.23102811 0.0521983467
vn 0.832685947 0.3135539 0.4564187
vn 0.642140567 0.4110704 -0.6470523
vn 0.8356108 0.218038023 -0.504196346
vn 0.675157 0.425647825 0.602484
vn 0.0619176365 -0.898315668 0.43496573
vn -0.985220551 -0.170435727 -0.0170904528
vn -0.334313154 -0.9244838 0.183205947
vn -0.1225777 -0.368957222 0.921328
vn -0.338209331 0.7705403 0.540261149
vn -0.405564 0.296001673 -0.8648126
vn -0.00363178621 -0.6996394 -0.7144869
vn -0.234389648 0.96193403 0.14051494
vn -0.6860722 0.704921842 -0.179972574
vn -0.759888947 0.6381607 -0.1237727
vn -0.759888947 0.6381607 -0.1237727
vn -0.759888947 0.6381607 -0.1237727
vn -0.786871552 0.593827963 -0.167932987
vn -0.786871552 0.593827963 -0.167932987
vn -0.786871552 0.593827963 -0.167932987
vn 0.15911375 -0.361222535 0.918804169
vn 0.397564858 0.7549312 0.5215564
vn -0.450768828 0.7486765 0.4860977
vn -0.323306531 -0.526909649 0.786027431
vn 0.1769341 -0.9757274 0.129036248
vn -0.09716461 -0.8808316 0.463351578
vn 0.229978472 0.193672687 0.9537299
vn 0.9127838 -0.3956582 -0.101391837
vn -0.179014727 -0.9656515 -0.188337311
vn 0.0158270448 -0.3129732 -0.9496301
vn -0.552092135 0.119422972 0.8251863
vn -0.327415884 0.226411983 0.917353
vn 0.229978472 0.193672687 0.9537299
vn -0.8350699 -0.5342384 0.131330237
vn -0.851164043 0.50961417 -0.125750586
vn -0.457091153 0.6362894 -0.6214527
vn -0.499480039 -0.6598979 -0.5612971
vn 0.3416245 0.519004345 0.783535063
vn 0.884915 -0.15454261 -0.4393655
vn 0.3416245 0.519004345 0.783535063
vn -0.573321462 -0.05045903 0.817775249
vn 0.260741264 -0.310425043 -0.9141391
vn -0.8262118 -0.0880461559 -0.5564368
vn 0.205261528 -0.943892539 -0.2587171
vn -0.2568562 -0.841182232 0.4758543
vn -0.8678766 -0.111439653 0.484119236
vn -0.8432894 -0.453743517 -0.288062274
vn -0.162680447 -0.857728362 -0.487685472
vn 0.9866015 -0.1555073 -0.04934636
vn 0.4530754 0.025564719 -0.8911056
vn 0.343989283 0.055525545 0.9373304
vn 0.7049921 -0.211268112 0.6770169
vn -0.4664456 -0.420288116 0.7783228
vn 0.7466416 -0.3820455 0.544580162
vn 0.361179471 0.470832616 0.804901242
vn 0.7049921 -0.211268112 0.6770169
vn 0.6964855 -0.293598533 -0.654757857
vn 0.343989283 0.055525545 0.9373304
vn -0.162680447 -0.857728362 -0.487685472
vn -0.2568562 -0.841182232 0.4758543
vn -0.511085868 -0.628636539 -0.5861803
vn 0.130298 -0.938756466 -0.31899637
vn 0.361179471 0.470832616 0.804901242
vn 0.7466416 -0.3820455 0.544580162
vn -0.511085868 -0.628636539 -0.5861803
vn 0.130298 -0.938756466 -0.31899637
vn -0.991190434 0.07333975 0.110285178
vn -0.7867869 0.04121518 -0.6158471
vn -0.9377269 0.140359014 0.317753971
vn -0.7402597 -0.396736443 -0.5427852
vn 0.205261528 -0.943892539 -0.2587171
vn 0.283112079 -0.5300097 -0.7993355
vn 0.865676 -0.141398728 0.4802202
vn 0.283112079 -0.5300097 -0.7993355
vn -0.232882112 -0.8266175 0.5123177
vn -0.232882112 -0.8266175 0.5123177
vn 0.9866015 -0.1555073 -0.04934636
vn 0.865676 -0.141398728 0.4802202
vn 0.6964855 -0.293598533 -0.654757857
vn -0.425602227 -0.8921571 0.1513887
vn -0.15910165 -0.651794851 0.7415188
vn -0.344471782 -0.8268562 -0.4445763
vn -0.9309673 0.362270027 -0.04539144
vn -0.6480302 0.7376678 -0.189480871
vn -0.416655123 0.885215461 0.206862614
vn -0.4577972 0.521997035 0.7196811
vn -0.252630383 0.09090439 -0.963283062
vn 0.438154429 0.7298178 -0.524772942
vn -0.407773435 0.781625748 -0.471997947
vn -0.513583 0.2371139 -0.824626863
vn 0.260296524 0.958022356 0.120162025
vn -0.07403774 0.275826335 0.958351851
vn -0.931983769 0.357745558 -0.0585183
vn -0.448196828 0.691937 0.5659883
vn -0.256479055 0.7115624 -0.6541387
vn -0.455764472 0.384683818 -0.8026812
vn -0.225506783 0.943688154 0.242073148
vn -0.9598067 0.262027532 0.100561827
vn -0.797876537 0.3415634 0.4967167
vn -0.661143959 0.428938955 -0.615548551
vn -0.8530423 0.24268651 -0.46197632
vn -0.6296078 0.4491177 0.6339459
vn -0.09716461 -0.8808316 0.463351578
vn 0.9934198 -0.09645367 -0.0617555864
vn 0.397564858 0.7549312 0.5215564
vn 0.15911375 -0.361222535 0.918804169
vn 0.3383459 -0.9239511 0.178427637
vn 0.3661131 0.284154236 -0.886125
vn -0.07170316 -0.708367348 -0.702192545
vn 0.673028052 0.702650368 -0.230901971
vn 0.260296524 0.958022356 0.120162025
vn 0.7956056 0.567862153 -0.211055219
vn 0.7956056 0.567862153 -0.211055219
vn 0.7956056 0.567862153 -0.211055219
vn 0.7723364 0.6131916 -0.165808737
vn 0.7723364 0.6131916 -0.165808737
vn 0.7723364 0.6131916 -0.165808737
usemtl 0002621003_part_0_material_0
f 1/1/1 2/2/2 3/3/3
f 3/3/3 4/4/4 1/1/1
f 5/5/5 6/6/6 7/7/7
f 7/7/7 8/8/8 5/5/5
f 9/9/9 10/10/10 6/6/6
f 6/6/6 5/5/5 9/9/9
f 11/11/11 12/12/12 13/13/13
f 14/14/14 15/15/15 16/16/16
f 16/16/16 17/17/17 14/14/14
f 18/18/18 7/7/7 6/6/6
f 6/6/6 19/19/19 18/18/18
f 20/20/20 21/21/21 12/12/12
f 22/22/22 10/10/10 23/23/23
f 24/24/24 6/6/6 22/22/22
f 25/25/25 26/26/26 27/27/27
f 27/27/27 28/28/28 25/25/25
f 29/29/29 24/24/24 22/22/22
f 22/22/22 30/30/30 29/29/29
f 31/31/31 32/32/32 25/25/25
f 25/25/25 28/28/28 31/31/31
f 33/33/33 21/21/21 34/34/34
f 34/34/34 35/35/35 33/33/33
f 36/36/36 37/37/37 29/29/29
f 29/29/29 38/38/38 36/36/36
f 39/39/39 40/40/40 36/36/36
f 36/36/36 38/38/38 39/39/39
f 41/41/41 21/21/21 33/33/33
f 33/33/33 42/42/42 41/41/41
f 19/19/19 43/43/43 44/44/44
f 35/35/35 42/42/42 33/33/33
f 20/20/20 34/34/34 21/21/21
f 44/44/44 18/18/18 19/19/19
f 6/6/6 24/24/24 19/19/19
f 45/45/45 46/46/46 19/19/19
f 19/19/19 46/46/46 43/43/43
f 47/47/47 48/48/48 23/23/23
f 23/23/23 49/49/49 47/47/47
f 50/50/50 23/23/23 48/48/48
f 48/48/48 27/27/27 50/50/50
f 50/50/50 30/30/30 22/22/22
f 22/22/22 23/23/23 50/50/50
f 31/31/31 28/28/28 13/13/13
f 13/13/13 51/51/51 31/31/31
f 48/48/48 13/13/13 28/28/28
f 28/28/28 27/27/27 48/48/48
f 52/52/52 53/53/53 29/29/29
f 29/29/29 30/30/30 52/52/52
f 37/37/37 24/24/24 29/29/29
f 54/54/54 30/30/30 50/50/50
f 50/50/50 27/27/27 55/55/55
f 55/55/55 54/54/54 50/50/50
f 56/56/56 53/53/53 52/52/52
f 57/57/57 55/55/55 27/27/27
f 58/58/58 55/55/55 57/57/57
f 26/26/26 57/57/57 27/27/27
f 59/59/59 57/57/57 26/26/26
f 10/10/10 22/22/22 6/6/6
f 51/51/51 13/13/13 21/21/21
f 21/21/21 41/41/41 51/51/51
f 12/12/12 21/21/21 13/13/13
f 24/24/24 45/45/45 19/19/19
f 47/47/47 11/11/11 13/13/13
f 13/13/13 48/48/48 47/47/47
f 60/60/60 61/61/61 11/11/11
f 11/11/11 47/47/47 60/60/60
f 23/23/23 10/10/10 49/49/49
f 62/62/62 49/49/49 10/10/10
f 10/10/10 9/9/9 62/62/62
f 63/63/63 64/64/64 65/65/65
f 65/65/65 66/66/66 63/63/63
f 67/67/67 68/68/68 69/69/69
f 69/69/69 70/70/70 67/67/67
f 64/64/64 71/71/71 72/72/72
f 72/72/72 65/65/65 64/64/64
f 68/68/68 63/63/63 66/66/66
f 66/66/66 69/69/69 68/68/68
f 73/73/73 74/74/74 64/64/64
f 64/64/64 63/63/63 73/73/73
f 75/75/75 76/76/76 68/68/68
f 68/68/68 67/67/67 75/75/75
f 74/74/74 77/77/77 71/71/71
f 71/71/71 64/64/64 74/74/74
f 76/76/76 73/73/73 63/63/63
f 63/63/63 68/68/68 76/76/76
f 78/78/78 79/79/79 74/74/74
f 74/74/74 73/73/73 78/78/78
f 80/80/80 81/81/81 76/76/76
f 76/76/76 75/75/75 80/80/80
f 79/79/79 82/82/82 77/77/77
f 77/77/77 74/74/74 79/79/79
f 81/81/81 78/78/78 73/73/73
f 73/73/73 76/76/76 81/81/81
f 79/79/79 78/78/78 81/81/81
f 79/79/79 81/81/81 80/80/80
f 79/79/79 80/80/80 82/82/82
f 61/61/61 83/83/83 12/12/12
f 12/12/12 11/11/11 61/61/61
f 84/84/84 85/85/85 86/86/86
f 86/86/86 87/87/87 84/84/84
f 88/88/88 89/89/89 85/85/85
f 85/85/85 84/84/84 88/88/88
f 62/62/62 60/60/60 47/47/47
f 47/47/47 49/49/49 62/62/62
f 2/2/2 14/14/14 17/17/17
f 17/17/17 3/3/3 2/2/2
f 16/16/16 15/15/15 89/89/89
f 89/89/89 88/88/88 16/16/16
f 3/3/3 17/17/17 66/66/66
f 66/66/66 65/65/65 3/3/3
f 4/4/4 3/3/3 65/65/65
f 65/65/65 72/72/72 4/4/4
f 84/84/84 87/87/87 90/90/90
f 90/90/90 91/91/91 84/84/84
f 88/88/88 84/84/84 91/91/91
f 91/91/91 70/70/70 88/88/88
f 16/16/16 88/88/88 70/70/70
f 70/70/70 69/69/69 16/16/16
f 17/17/17 16/16/16 69/69/69
f 69/69/69 66/66/66 17/17/17
f 2/2/2 1/1/1 83/83/83
f 83/83/83 61/61/61 2/2/2
f 14/14/14 2/2/2 61/61/61
f 61/61/61 60/60/60 14/14/14
f 15/15/15 14/14/14 60/60/60
f 60/60/60 62/62/62 15/15/15
f 89/89/89 15/15/15 62/62/62
f 62/62/62 9/9/9 89/89/89
f 85/85/85 89/89/89 9/9/9
f 9/9/9 5/5/5 85/85/85
f 86/86/86 85/85/85 5/5/5
f 5/5/5 8/8/8 86/86/86
f 92/92/92 93/93/93 94/94/94
f 95/95/95 96/96/96 97/97/97
f 98/98/98 99/99/99 100/100/100
f 100/100/100 101/101/101 98/98/98
f 102/102/102 103/103/103 104/104/104
f 104/104/104 105/105/105 102/102/102
f 106/106/106 102/102/102 105/105/105
f 105/105/105 107/107/107 106/106/106
f 108/108/108 109/109/109 110/110/110
f 111/111/111 112/112/112 113/113/113
f 113/113/113 114/114/114 111/111/111
f 115/115/115 116/116/116 105/105/105
f 105/105/105 104/104/104 115/115/115
f 117/117/117 110/110/110 118/118/118
f 119/119/119 120/120/120 107/107/107
f 121/121/121 119/119/119 105/105/105
f 122/122/122 123/123/123 124/124/124
f 124/124/124 125/125/125 122/122/122
f 126/126/126 127/127/127 119/119/119
f 119/119/119 121/121/121 126/126/126
f 128/128/128 123/123/123 122/122/122
f 122/122/122 129/129/129 128/128/128
f 130/130/130 131/131/131 132/132/132
f 132/132/132 118/118/118 130/130/130
f 133/133/133 134/134/134 126/126/126
f 126/126/126 135/135/135 133/133/133
f 136/136/136 134/134/134 133/133/133
f 133/133/133 137/137/137 136/136/136
f 138/138/138 139/139/139 130/130/130
f 130/130/130 118/118/118 138/138/138
f 116/116/116 140/140/140 141/141/141
f 131/131/131 130/130/130 139/139/139
f 117/117/117 118/118/118 132/132/132
f 140/140/140 116/116/116 115/115/115
f 105/105/105 116/116/116 121/121/121
f 142/142/142 116/116/116 143/143/143
f 116/116/116 141/141/141 143/143/143
f 144/144/144 145/145/145 120/120/120
f 120/120/120 146/146/146 144/144/144
f 147/147/147 124/124/124 146/146/146
f 146/146/146 120/120/120 147/147/147
f 147/147/147 120/120/120 119/119/119
f 119/119/119 127/127/127 147/147/147
f 128/128/128 148/148/148 109/109/109
f 109/109/109 123/123/123 128/128/128
f 146/146/146 124/124/124 123/123/123
f 123/123/123 109/109/109 146/146/146
f 149/149/149 127/127/127 126/126/126
f 126/126/126 150/150/150 149/149/149
f 135/135/135 126/126/126 121/121/121
f 151/151/151 147/147/147 127/127/127
f 147/147/147 151/151/151 152/152/152
f 152/152/152 124/124/124 147/147/147
f 153/153/153 149/149/149 150/150/150
f 154/154/154 124/124/124 152/152/152
f 155/155/155 154/154/154 152/152/152
f 125/125/125 124/124/124 154/154/154
f 156/156/156 125/125/125 154/154/154
f 107/107/107 105/105/105 119/119/119
f 148/148/148 138/138/138 118/118/118
f 118/118/118 109/109/109 148/148/148
f 110/110/110 109/109/109 118/118/118
f 121/121/121 116/116/116 142/142/142
f 144/144/144 146/146/146 109/109/109
f 109/109/109 108/108/108 144/144/144
f 157/157/157 144/144/144 108/108/108
f 108/108/108 158/158/158 157/157/157
f 120/120/120 145/145/145 107/107/107
f 159/159/159 106/106/106 107/107/107
f 107/107/107 145/145/145 159/159/159
f 160/160/160 161/161/161 162/162/162
f 162/162/162 163/163/163 160/160/160
f 164/164/164 165/165/165 166/166/166
f 166/166/166 167/167/167 164/164/164
f 163/163/163 162/162/162 168/168/168
f 168/168/168 169/169/169 163/163/163
f 167/167/167 166/166/166 161/161/161
f 161/161/161 160/160/160 167/167/167
f 170/170/170 160/160/160 163/163/163
f 163/163/163 171/171/171 170/170/170
f 172/172/172 164/164/164 167/167/167
f 167/167/167 173/173/173 172/172/172
f 171/171/171 163/163/163 169/169/169
f 169/169/169 174/174/174 171/171/171
f 173/173/173 167/167/167 160/160/160
f 160/160/160 170/170/170 173/173/173
f 175/175/175 170/170/170 171/171/171
f 171/171/171 176/176/176 175/175/175
f 177/177/177 172/172/172 173/173/173
f 173/173/173 178/178/178 177/177/177
f 176/176/176 171/171/171 174/174/174
f 174/174/174 179/179/179 176/176/176
f 178/178/178 173/173/173 170/170/170
f 170/170/170 175/175/175 178/178/178
f 176/176/176 179/179/179 177/177/177
f 176/176/176 177/177/177 178/178/178
f 176/176/176 178/178/178 175/175/175
f 158/158/158 108/108/108 110/110/110
f 110/110/110 180/180/180 158/158/158
f 181/181/181 182/182/182 183/183/183
f 183/183/183 184/184/184 181/181/181
f 185/185/185 181/181/181 184/184/184
f 184/184/184 186/186/186 185/185/185
f 159/159/159 145/145/145 144/144/144
f 144/144/144 157/157/157 159/159/159
f 101/101/101 100/100/100 112/112/112
f 112/112/112 111/111/111 101/101/101
f 113/113/113 185/185/185 186/186/186
f 186/186/186 114/114/114 113/113/113
f 100/100/100 162/162/162 161/161/161
f 161/161/161 112/112/112 100/100/100
f 99/99/99 168/168/168 162/162/162
f 162/162/162 100/100/100 99/99/99
f 181/181/181 187/187/187 188/188/188
f 188/188/188 182/182/182 181/181/181
f 185/185/185 165/165/165 187/187/187
f 187/187/187 181/181/181 185/185/185
f 113/113/113 166/166/166 165/165/165
f 165/165/165 185/185/185 113/113/113
f 112/112/112 161/161/161 166/166/166
f 166/166/166 113/113/113 112/112/112
f 101/101/101 158/158/158 180/180/180
f 180/180/180 98/98/98 101/101/101
f 111/111/111 157/157/157 158/158/158
f 158/158/158 101/101/101 111/111/111
f 114/114/114 159/159/159 157/157/157
f 157/157/157 111/111/111 114/114/114
f 186/186/186 106/106/106 159/159/159
f 159/159/159 114/114/114 186/186/186
f 184/184/184 102/102/102 106/106/106
f 106/106/106 186/186/186 184/184/184
f 183/183/183 103/103/103 102/102/102
f 102/102/102 184/184/184 183/183/183
f 189/189/189 190/190/190 191/191/191
f 192/192/192 193/193/193 194/194/194
