mtllib 0002730002.mtl
o 0002730002_part_0
v 0.101194821 1.65973151 -0.0167037658
v 0.06567256 1.63779414 0.0306417234
v 0.167390838 1.61092365 0.008332493
v 0.179287732 1.64625609 -0.0155422855
v 0.06386203 1.5735786 0.100488611
v 0.138423279 1.56218743 0.0560380146
v 0.18983832 1.64873636 -0.05680023
v 0.123960666 1.67072833 -0.06487437
v 0.114288472 1.38214707 0.0313375
v 0.07445945 1.37462533 -0.03162492
v 0.09888671 1.47773015 -0.10495878
v 0.13182354 1.49174488 -0.0282497332
v 0.14925459 1.52182019 -0.0540563576
v 0.1569778 1.56497681 -0.00772354333
v 0.149112508 1.523406 0.0381872356
v 0.128101841 1.42571568 0.0700288862
v 0.137795061 1.607359 -0.157801121
v 0.134767577 1.555217 -0.149822727
v -0.0016380439 1.59484088 -0.162424415
v 0.1592356 1.64678752 -0.125721812
v 0.06509527 1.69717562 -0.102218658
v 0.123960666 1.67072833 -0.06487437
v -0.00152555737 1.37391508 -0.0618287846
v -0.001728436 1.480043 -0.126912057
v 0.153400555 1.49321079 0.0833484158
v 0.139824972 1.52105176 0.137667865
v 0.07526307 1.47521281 0.181427017
v 0.000977122 1.46955514 0.181897551
v 0.0006527994 1.42801654 0.161912724
v 0.09201489 1.43716443 0.166863784
v 0.0641699359 1.5234828 0.168798581
v 0.132225886 1.47201288 0.161303312
v 0.00105265924 1.51660025 0.1716785
v 0.000908428337 1.55430508 0.140498
v 0.136234075 1.45149827 0.113293119
v 0.18983832 1.64873636 -0.05680023
v 0.0854098648 1.41195285 0.145969942
v 0.08550443 1.38571966 0.126670852
v 0.0003528397 1.63940036 0.04400653
v 0.000622360967 1.57790852 0.0988275558
v 0.24069874 1.59037209 -0.0800101757
v 0.213747889 1.57133472 -0.024117386
v 0.225326732 1.51840985 -0.0243160482
v 0.2611789 1.54195952 -0.09226163
v 0.14925459 1.52182019 -0.0540563576
v 0.134767577 1.555217 -0.149822727
v 0.142387524 1.50714183 -0.158241272
v 0.127472281 1.48172379 -0.0792859
v 0.1569778 1.56497681 -0.00772354333
v 0.174188972 1.49980175 -0.0129215783
v 0.14925459 1.52182019 -0.0540563576
v 0.127472281 1.48172379 -0.0792859
v 0.2238721 1.6405251 -0.07321827
v 0.20181182 1.57518 -0.135549128
v 0.1592356 1.64678752 -0.125721812
v 0.207576185 1.5339855 -0.15969564
v 0.179287732 1.64625609 -0.0155422855
v 0.137795061 1.607359 -0.157801121
v 0.167390838 1.61092365 0.008332493
v 0.18983832 1.64873636 -0.05680023
v 0.174148843 1.46040642 -0.136412069
v 0.226695165 1.48620045 -0.145138726
v 0.158538043 1.450624 -0.09611638
v 0.238350853 1.4737674 -0.0546156056
v 0.2616223 1.49481189 -0.103253305
v 0.1975133 1.46051323 -0.04811088
v -0.00103060924 1.70104134 -0.136297479
v 0.158538043 1.450624 -0.09611638
v 0.131381422 1.27969992 0.0400599875
v 0.08668948 1.264251 0.115711167
v 0.09428379 1.21390665 0.105233654
v 0.148724 1.22476256 0.02475081
v 0.1051706 1.27563858 -0.05010461
v 0.0942613557 1.27692068 -0.0343456939
v 0.120918579 1.28270233 0.0419343151
v -5.73713332E-05 1.26197779 0.148101166
v 0.08360713 1.27300954 0.102187231
v -0.000175049528 1.26905394 0.131969452
v -0.0020110507 1.27745187 -0.07809954
v 0.0512483269 1.2725929 -0.08513582
v 0.197670162 1.16995561 0.01390953
v 0.111679859 1.14960945 0.108372308
v 0.13019532 1.06988132 0.11836227
v 0.219651729 1.06570315 0.00654202327
v 0.07631121 1.18388188 -0.138495177
v 0.102265373 1.07709622 -0.183377147
v -0.00375691429 1.076876 -0.194845408
v -0.00300110714 1.18089664 -0.151145965
v 0.159268647 1.18667209 -0.09483763
v 0.191976517 1.07432961 -0.127747819
v -0.000596284051 1.144076 0.134283379
v -0.000264644856 1.08613145 0.150330722
v 0.226266757 0.914267063 0.0235316437
v 0.189814761 0.9077236 -0.118562587
v 0.200510412 0.94980675 -0.119622126
v 0.235837191 0.955336332 0.0194039326
v 0.09123328 0.901054442 -0.167399734
v 0.1337978 0.95792824 0.128884628
v -0.0004987485 0.933518946 0.1746921
v -0.00439838134 0.9215416 -0.205246866
v 0.1179971 1.23131335 -0.068363905
v -0.0004007062 1.20404327 0.132436514
v 0.057268396 1.23189342 -0.105337158
v 0.168539211 1.19465435 0.0176203214
v 0.13315025 1.21108222 -0.08544911
v -0.00250623864 1.232555 -0.11598625
v -0.002183814 1.27805889 -0.09779362
v 0.112883933 1.35368478 0.0308032185
v 0.07714025 1.31960237 0.106397778
v 0.120918579 1.28270233 0.0419343151
v 0.0942613557 1.27692068 -0.0343456939
v -0.0020110507 1.27745187 -0.07809954
v 4.78171278E-05 1.320075 0.1367563
v 0.08360713 1.27300954 0.102187231
v -0.000175049528 1.26905394 0.131969452
v 0.148942873 1.01121092 -0.113181122
v 0.191540018 1.0632484 -0.0195495263
v 0.178797528 0.69714725 0.00393998064
v 0.163341254 0.700779438 -0.04419863
v 0.128699645 1.07503343 0.07145453
v 0.164299086 0.7360429 0.102226108
v 0.06404631 0.6899428 -0.008875123
v -0.00280224835 1.03855813 -0.0515705831
v 0.0573793054 1.00053358 -0.129079357
v 0.095414266 0.6990888 -0.0541218035
v 0.0477818176 1.06489193 0.0747730359
v 0.09879681 0.728350937 0.1017921
v -0.00280224835 1.03855813 -0.0515705831
v 0.06404631 0.6899428 -0.008875123
v 0.1778874 0.667843342 0.105612822
v 0.109686486 0.66127044 0.115446262
v 0.17284511 0.561216533 -0.108846553
v 0.175246835 0.67021203 -0.05044529
v 0.198353112 0.654517 -0.00166548556
v 0.21033971 0.5245086 -0.0349200964
v 0.1722218 0.6363718 0.07868572
v 0.172368 0.510154843 0.01712431
v 0.06611677 0.674344063 -0.009895634
v 0.107454993 0.66989255 -0.0594270565
v 0.105213627 0.560380161 -0.117241777
v 0.07372508 0.505667746 -0.0479906425
v 0.121401161 0.626005769 0.09503502
v 0.120773546 0.494161963 0.0410343334
v 0.06611677 0.674344063 -0.009895634
v 0.07372508 0.505667746 -0.0479906425
v 0.204080865 0.276335835 -0.0372467041
v 0.1785259 0.2912054 -0.0993168056
v 0.177747145 0.283111274 0.0149267875
v 0.128781945 0.290545374 -0.104472414
v 0.100814112 0.2759748 -0.0334959328
v 0.132852346 0.280972481 0.0158460662
v 0.100814112 0.2759748 -0.0334959328
v 0.0588995963 1.695108 -0.0224137828
v 0.123960666 1.67072833 -0.06487437
v 0.06509527 1.69717562 -0.102218658
v 0.000138524687 1.73704982 -0.0189869441
v 0.0513397381 1.74484587 -0.0376135334
v 0.05732327 1.79363739 -0.0290316865
v 0.000355497934 1.78002572 -0.0116602723
v -0.0006198704 1.82821929 -0.140663028
v 0.0613564625 1.82024682 -0.08268192
v 0.0499029756 1.737092 -0.105938889
v -0.000928070047 1.736229 -0.138754338
v 0.0002861016 1.68922269 0.0166628454
v 0.0588995963 1.695108 -0.0224137828
v 0.06509527 1.69717562 -0.102218658
v -0.00103060924 1.70104134 -0.136297479
v 0.0002861016 1.68922269 0.0166628454
v 0.0003528397 1.63940036 0.04400653
v 0.09123328 0.901054442 -0.167399734
v 0.189814761 0.9077236 -0.118562587
v 0.226266757 0.914267063 0.0235316437
v 0.133777916 0.92013675 0.1336794
v 0.205218643 1.4060843 -0.01685128
v 0.139315173 1.39302075 -0.09444931
v 0.231438354 1.41568649 -0.109798729
v 0.2577199 1.45656025 -0.194070876
v 0.3094811 1.46313882 -0.118605763
v 0.16611217 1.416896 -0.173500523
v 0.280486822 1.43848717 -0.0306816157
v 0.176025733 1.48290312 -0.002083777
v 0.1042503 1.46697068 -0.07968784
v 0.205218643 1.4060843 -0.01685128
v 0.139315173 1.39302075 -0.09444931
v 0.228440389 1.53139651 -0.179618686
v 0.290131778 1.54072356 -0.104485013
v 0.3094811 1.46313882 -0.118605763
v 0.2577199 1.45656025 -0.194070876
v 0.1314465 1.48983574 -0.158934444
v 0.16611217 1.416896 -0.173500523
v 0.2546572 1.511547 -0.0167883132
v 0.280486822 1.43848717 -0.0306816157
v 0.1042503 1.46697068 -0.07968784
v 0.176025733 1.48290312 -0.002083777
v 0.191799775 1.52006269 -0.08701086
v 0.290131778 1.54072356 -0.104485013
v 0.228440389 1.53139651 -0.179618686
v 0.1314465 1.48983574 -0.158934444
v 0.2546572 1.511547 -0.0167883132
v 0.247792691 1.34879 -0.07621835
v 0.207348958 1.41855133 -0.0553176664
v 0.17333515 1.40864241 -0.108328685
v 0.218292981 1.33158231 -0.1276281
v 0.271639 1.45087409 -0.113096572
v 0.298907369 1.36319411 -0.130659744
v 0.2683992 1.356582 -0.164785326
v 0.242454231 1.44716477 -0.155646428
v 0.255291 1.43697453 -0.06352191
v 0.27774182 1.35843027 -0.09168388
v 0.231977433 1.34744024 -0.168950588
v 0.193043321 1.42126119 -0.144798726
v 0.17333515 1.40864241 -0.108328685
v 0.218292981 1.33158231 -0.1276281
v 0.384024084 1.16351438 -0.110486783
v 0.343352169 1.15552676 -0.150458828
v 0.292515665 1.298658 -0.168693408
v 0.315302372 1.3303318 -0.126491532
v 0.307296872 1.1348511 -0.151277885
v 0.251573056 1.27450991 -0.168016225
v 0.2892983 1.32976151 -0.08411337
v 0.360756427 1.17153549 -0.06756306
v 0.282818168 1.11917031 -0.1015395
v 0.235192731 1.28857052 -0.121144071
v 0.2578923 1.31924164 -0.07442226
v 0.3239284 1.1572938 -0.05325415
v 0.282818168 1.11917031 -0.1015395
v 0.235192731 1.28857052 -0.121144071
v 0.2683992 1.356582 -0.164785326
v 0.298907369 1.36319411 -0.130659744
v 0.280801237 1.32717049 -0.1684272
v 0.24321343 1.30763364 -0.169629231
v 0.0003578863 1.69017279 0.0243674219
v 0.063361004 1.71500885 -0.0122826342
v 0.0623749346 1.75370491 -0.03646297
v 0.000274882419 1.745684 -0.007069805
v -0.0009524131 1.748135 -0.146233708
v 0.06232892 1.74869406 -0.105205834
v 0.06518144 1.7190913 -0.107323825
v -0.0009985943 1.71771383 -0.139328375
v 0.000629741931 1.63276756 0.0778245
v 0.09689733 1.68509436 0.0210812781
v 0.109825581 1.68900275 -0.05743033
v 0.09218547 1.69235027 -0.122403331
v -0.00132768555 1.69338608 -0.166700259
v -0.00048396003 1.16757357 0.137578279
v 0.0568098649 1.19297564 0.119411185
v 0.0478845 1.26135838 0.136318117
v 9.891554E-05 1.27472627 0.160559177
v -0.101046585 1.66073143 -0.0149697643
v -0.166591823 1.61244285 0.0107817072
v -0.06518247 1.63819933 0.0318163745
v -0.178588152 1.64804566 -0.0126415528
v -0.138024509 1.56316459 0.0584932268
v -0.0626068562 1.57402563 0.101611823
v -0.189980149 1.65156972 -0.0538088977
v -0.12441323 1.6721034 -0.06277686
v -0.1156055 1.38295972 0.03337926
v -0.101952791 1.47831047 -0.103254423
v -0.0769552 1.37516057 -0.0302801561
v -0.133422613 1.49261844 -0.026055241
v -0.161994919 1.56637561 -0.00317774
v -0.1511182 1.52285564 -0.05138293
v -0.149302974 1.52446079 0.04083756
v -0.1284212 1.42662239 0.0723071545
v -0.140875146 1.6083436 -0.155326024
v -0.138075039 1.55618143 -0.147399515
v -0.161488876 1.64771938 -0.122829363
v -0.12441323 1.6721034 -0.06277686
v -0.06656645 1.6976409 -0.101049334
v -0.153001592 1.49429393 0.0860696658
v -0.1382669 1.52203476 0.1401377
v -0.0732636154 1.47573781 0.182746112
v -0.09053999 1.43780982 0.16848512
v -0.06205558 1.523929 0.16991961
v -0.130596071 1.47294188 0.163637519
v 0.00090960227 1.55430508 0.140498
v -0.135601237 1.45245922 0.115707383
v -0.189980149 1.65156972 -0.0538088977
v -0.08510848 1.38628149 0.12817733
v -0.08448548 1.41255343 0.147478819
v -0.242185071 1.58846962 -0.07761183
v -0.227935821 1.52192545 -0.0190864243
v -0.2136296 1.570055 -0.0225930139
v -0.266460627 1.54635644 -0.08523423
v -0.1511182 1.52285564 -0.05138293
v -0.152366415 1.50753438 -0.157013983
v -0.138075039 1.55618143 -0.147399515
v -0.134235382 1.48194265 -0.07879108
v -0.176895022 1.50174057 -0.0102222729
v -0.161994919 1.56637561 -0.00317774
v -0.1511182 1.52285564 -0.05138293
v -0.134235382 1.48194265 -0.07879108
v -0.22901094 1.63972151 -0.06847918
v -0.206644014 1.57808244 -0.132421926
v -0.161488876 1.64771938 -0.122829363
v -0.216662943 1.53643417 -0.1552765
v -0.178588152 1.64804566 -0.0126415528
v -0.140875146 1.6083436 -0.155326024
v -0.166591823 1.61244285 0.0107817072
v -0.189980149 1.65156972 -0.0538088977
v -0.184428528 1.4619137 -0.133344
v -0.236511484 1.4893353 -0.139509752
v -0.167090192 1.45178628 -0.09384772
v -0.243899986 1.47761 -0.048444964
v -0.2689566 1.499207 -0.09594011
v -0.203222066 1.46308637 -0.0439659432
v -0.167090192 1.45178628 -0.09384772
v -0.133264661 1.28063536 0.04241039
v -0.09548133 1.21457732 0.106919006
v -0.08734642 1.26486623 0.117256835
v -0.15126434 1.225823 0.0274151042
v -0.0974925 1.2775985 -0.03264267
v -0.108688727 1.27639449 -0.0482052565
v -0.122749187 1.28356373 0.044098407
v -5.62137E-05 1.26197779 0.148101151
v -0.08444292 1.27360356 0.103679731
v -0.05542002 1.27297 -0.08418846
v -0.200781539 1.17136407 0.01744831
v -0.131902456 1.06840265 0.119732931
v -0.113272987 1.15040457 0.110370189
v -0.223765671 1.06752264 0.01095418
v -0.08205315 1.18444169 -0.137088716
v -0.109554581 1.077845 -0.1814959
v -0.164200321 1.18781555 -0.09196479
v -0.193997681 1.06143832 -0.120262526
v -0.232234791 0.9165167 0.0291697271
v -0.208975986 0.951189339 -0.115110777
v -0.198755175 0.9089827 -0.114187248
v -0.241320387 0.957704 0.0251232348
v -0.101399481 0.9009965 -0.165250808
v -0.135388628 0.961165 0.134514481
v -0.122150518 1.23216224 -0.06623108
v -0.0620854869 1.23231542 -0.104277134
v -0.171413437 1.19593847 0.0208277442
v -0.137747526 1.21169376 -0.082923755
v -0.114413187 1.35443449 0.0327002034
v -0.122749187 1.28356373 0.044098407
v -0.07757307 1.32014906 0.107771829
v -0.0974925 1.2775985 -0.03264267
v -0.08444292 1.27360356 0.103679731
v -0.1562289 1.0120641 -0.1101497
v -0.188357934 0.6986456 0.009191295
v -0.196248785 1.06472123 -0.01572833
v -0.174044773 0.7018835 -0.03932751
v -0.1708876 0.7376811 0.106936634
v -0.13136822 1.07598209 0.07382703
v -0.0740723 0.6897504 -0.0064179264
v -0.06512783 1.00038242 -0.127991214
v -0.00243757782 1.03855681 -0.05157382
v -0.106414564 0.6991834 -0.0509140827
v -0.105531976 0.7290491 0.104919672
v -0.05047904 1.06509888 0.07553554
v -0.0740723 0.6897504 -0.0064179264
v -0.00243757782 1.03855681 -0.05157382
v -0.185402155 0.66966325 0.110857
v -0.117084973 0.6621471 0.119077221
v -0.186896816 0.5621159 -0.103339016
v -0.208608136 0.656202137 0.0040719714
v -0.1864292 0.67138195 -0.04529775
v -0.223203212 0.526230037 -0.0284224823
v -0.184254155 0.5115262 0.0227953866
v -0.1808639 0.6379811 0.0838638544
v -0.07633231 0.6740936 -0.00732589373
v -0.119495176 0.5602737 -0.113280006
v -0.118877858 0.670053542 -0.0558595732
v -0.08720908 0.5053737 -0.0445464328
v -0.129827321 0.626945436 0.09906331
v -0.132357776 0.49488157 0.0455806926
v -0.07633231 0.6740936 -0.00732589373
v -0.08720908 0.5053737 -0.0445464328
v -0.220553622 0.277985722 -0.029877536
v -0.196222514 0.292252272 -0.09257777
v -0.19293277 0.284576952 0.0216500089
v -0.146624833 0.2908562 -0.0988704339
v -0.117243685 0.2761509 -0.028495267
v -0.148063913 0.281795025 0.0215478875
v -0.117243685 0.2761509 -0.028495267
v -0.0589691252 1.69552469 -0.021366952
v -0.12441323 1.6721034 -0.06277686
v -0.06656645 1.6976409 -0.101049334
v -0.05681418 1.7940408 -0.028017994
v -0.0513290539 1.74520862 -0.0367016941
v -0.0511608869 1.73744929 -0.10504131
v -0.06161143 1.82068145 -0.0815898
v -0.0589691252 1.69552469 -0.021366952
v -0.06656645 1.6976409 -0.101049334
v -0.101399481 0.9009965 -0.165250808
v -0.232234791 0.9165167 0.0291697271
v -0.198755175 0.9089827 -0.114187248
v -0.136733055 0.9213492 0.136646226
v -0.211031735 1.40904474 -0.0120668355
v -0.241840824 1.41894388 -0.106631435
v -0.149637312 1.39360678 -0.0928614959
v -0.27092436 1.46051955 -0.186635479
v -0.318516344 1.46901774 -0.108659469
v -0.17968221 1.41803443 -0.170564726
v -0.285848022 1.44377649 -0.0222031921
v -0.178707138 1.48494864 0.000784190837
v -0.211031735 1.40904474 -0.0120668355
v -0.111542389 1.46645641 -0.0803014562
v -0.149637312 1.39360678 -0.0928614959
v -0.238592118 1.53443789 -0.1740933
v -0.318516344 1.46901774 -0.108659469
v -0.296026438 1.54599822 -0.09595531
v -0.27092436 1.46051955 -0.186635479
v -0.17968221 1.41803443 -0.170564726
v -0.142027736 1.48988628 -0.158174127
v -0.257044226 1.51602721 -0.0100335106
v -0.285848022 1.44377649 -0.0222031921
v -0.111542389 1.46645641 -0.0803014562
v -0.1974321 1.52225482 -0.0835512057
v -0.178707138 1.48494864 0.000784190837
v -0.296026438 1.54599822 -0.09595531
v -0.238592118 1.53443789 -0.1740933
v -0.142027736 1.48988628 -0.158174127
v -0.257044226 1.51602721 -0.0100335106
v -0.2583061 1.3530575 -0.06830915
v -0.183813125 1.41025281 -0.105066329
v -0.214735419 1.42143273 -0.050439287
v -0.2321277 1.33451617 -0.121080518
v -0.2808482 1.45557475 -0.1050268
v -0.2833226 1.36081493 -0.155904084
v -0.311753631 1.36866868 -0.120223708
v -0.254014164 1.450783 -0.148992375
v -0.262428641 1.44134271 -0.05627978
v -0.288709223 1.36354291 -0.08230673
v -0.24749139 1.35045314 -0.161924064
v -0.204955667 1.42335939 -0.140547559
v -0.183813125 1.41025281 -0.105066329
v -0.2321277 1.33451617 -0.121080518
v -0.401950747 1.17193866 -0.094167605
v -0.3093194 1.30388808 -0.157686472
v -0.363653481 1.16251457 -0.1361233
v -0.328947723 1.336282 -0.114163004
v -0.269179553 1.27845144 -0.158975229
v -0.328359 1.14069867 -0.138674811
v -0.300659269 1.33548212 -0.0733182654
v -0.376272082 1.17937148 -0.05253194
v -0.2499837 1.29215014 -0.113058567
v -0.3018714 1.12442815 -0.09017043
v -0.339227676 1.164017 -0.0400489457
v -0.2691587 1.32397807 -0.0652568862
v -0.3018714 1.12442815 -0.09017043
v -0.2499837 1.29215014 -0.113058567
v -0.2833226 1.36081493 -0.155904084
v -0.311753631 1.36866868 -0.120223708
v -0.297107518 1.3310318 -0.157901928
v -0.260078281 1.31076825 -0.160998687
v -0.0622791722 1.7541455 -0.0353558734
v -0.0602185056 1.704069 -0.0119319558
v -0.0665883645 1.719557 -0.10615354
v -0.063489534 1.74913871 -0.104088396
v -0.09625817 1.68577719 0.0227967538
v -0.110496916 1.68995821 -0.0589731932
v -0.0940443054 1.69300854 -0.120749369
v -0.048202984 1.26169789 0.1371715
v -0.0579103976 1.19338119 0.12043006
vt 0.114494324 0.5154743
vt 0.0864298046 0.45144105
vt 0.201067939 0.4700628
vt 0.203155831 0.526630759
vt 0.08088632 0.3612799
vt 0.1769406 0.378789723
vt 0.2081241 0.573966563
vt 0.154892311 0.577371
vt 0.28919974 0.162397981
vt 0.406460345 0.165779352
vt 0.382965446 0.303367853
vt 0.293731868 0.31926924
vt 0.287091464 0.386998951
vt 0.221882328 0.427245975
vt 0.2296091 0.3443269
vt 0.235654458 0.215944588
vt 0.351273268 0.461287379
vt 0.350330859 0.4046293
vt 0.5188991 0.443103135
vt 0.3251926 0.529529035
vt 0.424611866 0.5749862
vt 0.345005 0.5922231
vt 0.5188991 0.174163222
vt 0.5188991 0.312252343
vt 0.204339564 0.290806949
vt 0.165483937 0.3092546
vt 0.09561823 0.261280537
vt 0.008530299 0.258465469
vt 0.008530299 0.203939617
vt 0.118132845 0.216972053
vt 0.08179647 0.2953251
vt 0.162831053 0.263058722
vt 0.008530299 0.288020968
vt 0.008530299 0.326524138
vt 0.204631165 0.240871191
vt 0.270802051 0.583616436
vt 0.125115082 0.191365719
vt 0.133414686 0.162102818
vt 0.008530299 0.446896374
vt 0.008530299 0.3702209
vt 0.8011377 0.4025619
vt 0.7416612 0.4062543
vt 0.736654043 0.356743455
vt 0.800095856 0.349985123
vt 0.9789061 0.40835762
vt 0.9277129 0.42521143
vt 0.9171032 0.354632139
vt 0.980774641 0.356474638
vt 0.696811 0.4292481
vt 0.695358157 0.36702925
vt 0.6376473 0.4118135
vt 0.6321612 0.3666814
vt 0.802853167 0.432745457
vt 0.8564825 0.403958321
vt 0.8641676 0.4647845
vt 0.8579532 0.353398979
vt 0.7471901 0.4689114
vt 0.907293 0.4440663
vt 0.718789458 0.454114676
vt 0.8019615 0.4698671
vt 0.906828463 0.3155105
vt 0.851835 0.313431859
vt 0.974215746 0.319590867
vt 0.7424 0.314088464
vt 0.8010674 0.3122847
vt 0.7058654 0.318822861
vt 0.518645 0.573728442
vt 0.64301157 0.32125783
vt 0.19516781 0.9531705
vt 0.0947567 0.9531705
vt 0.09911706 0.8994907
vt 0.201760173 0.890153646
vt 0.31068334 0.9531705
vt 0.303997964 0.969943166
vt 0.191200227 0.969943166
vt 0.0147083718 0.9531705
vt 0.09536107 0.969943166
vt 0.0147083718 0.969943166
vt 0.419814527 0.969943166
vt 0.3664156 0.9531705
vt 0.211809978 0.837804735
vt 0.102178745 0.837804735
vt 0.1053123 0.767705142
vt 0.22274746 0.767705142
vt 0.376205981 0.848044634
vt 0.386321217 0.767705142
vt 0.465990424 0.767705142
vt 0.4418162 0.848044634
vt 0.309775025 0.84665966
vt 0.317493349 0.767705142
vt 0.0147083718 0.837804735
vt 0.0147083718 0.767705142
vt 0.220064759 0.6535548
vt 0.3243955 0.653570831
vt 0.3182255 0.6868908
vt 0.2247838 0.6862105
vt 0.399026424 0.653661847
vt 0.108007662 0.6838694
vt 0.0147083718 0.653837442
vt 0.480847269 0.653792858
vt 0.306630343 0.8941552
vt 0.0147083718 0.8954891
vt 0.374665469 0.8954891
vt 0.208080024 0.8596223
vt 0.308255374 0.8662383
vt 0.430989534 0.892872453
vt 0.419377983 0.9531705
vt 0.288595557 0.115474045
vt 0.130195975 0.07826203
vt 0.2684676 0.01593262
vt 0.391364932 0.01593262
vt 0.5188991 0.01593262
vt 0.008530299 0.0757091641
vt 0.1417162 0.01593262
vt 0.008530299 0.01593262
vt 0.845089257 0.988001943
vt 0.7936078 0.98789
vt 0.8043371 0.7498367
vt 0.83900696 0.758055
vt 0.724948943 0.988108039
vt 0.7502478 0.77894187
vt 0.9115775 0.748402238
vt 0.985876143 0.9881178
vt 0.902880251 0.9885576
vt 0.881388962 0.7592107
vt 0.6639162 0.987594247
vt 0.705535233 0.7774755
vt 0.5951476 0.9882096
vt 0.659390748 0.7553685
vt 0.7574361 0.732494354
vt 0.7174614 0.7328613
vt 0.836807549 0.6401862
vt 0.8343101 0.726496339
vt 0.7961138 0.7163876
vt 0.7950848 0.6310471
vt 0.7595945 0.7119129
vt 0.7617529 0.6342716
vt 0.9125028 0.7176374
vt 0.8790098 0.7266154
vt 0.8838249 0.639732
vt 0.932133734 0.633477
vt 0.7143453 0.7104658
vt 0.711229146 0.6321446
vt 0.6594985 0.7188716
vt 0.6696785 0.6316297
vt 0.791747153 0.497860432
vt 0.8266371 0.497795
vt 0.759809554 0.4979741
vt 0.8647488 0.497834027
vt 0.902355969 0.497969866
vt 0.721862853 0.49792695
vt 0.691984 0.498864233
vt 0.0848566443 0.5589177
vt 0.154867351 0.577921569
vt 0.101705089 0.579998255
vt 0.6038954 0.185481548
vt 0.6056394 0.209215939
vt 0.569510937 0.211432576
vt 0.5768814 0.1820215
vt 0.565863848 0.265657783
vt 0.564025044 0.2387234
vt 0.607265949 0.231039524
vt 0.6089245 0.253452539
vt 0.6320816 0.182024
vt 0.6338421 0.205732048
vt 0.6356031 0.228958011
vt 0.6374176 0.253248155
vt 0.007685883 0.556757152
vt 0.008530299 0.446902275
vt 0.399026424 0.653661847
vt 0.3243955 0.653570831
vt 0.220064759 0.6535548
vt 0.108978182 0.6536825
vt 0.472676635 0.848448157
vt 0.5361892 0.8218975
vt 0.5279165 0.901380062
vt 0.586807966 0.94594
vt 0.5163028 0.980386734
vt 0.598215461 0.8795985
vt 0.455874652 0.932000041
vt 0.557642 0.6510839
vt 0.557641745 0.7249767
vt 0.627140641 0.6510842
vt 0.6271403 0.724977
vt 0.557642341 0.5705128
vt 0.5576426 0.493616939
vt 0.6271411 0.493617177
vt 0.6271409 0.57051307
vt 0.557642 0.6510839
vt 0.627140641 0.6510842
vt 0.557642341 0.5705128
vt 0.6271409 0.57051307
vt 0.5361892 0.8218975
vt 0.598215461 0.8795985
vt 0.5279165 0.901380062
vt 0.5163028 0.980386734
vt 0.455874652 0.932000041
vt 0.472676635 0.848448157
vt 0.586807966 0.94594
vt 0.9408104 0.20391
vt 0.9522153 0.267153263
vt 0.9870735 0.25931114
vt 0.9752932 0.199840248
vt 0.871969342 0.2705264
vt 0.871486068 0.203653872
vt 0.834893644 0.203997254
vt 0.8360087 0.267195
vt 0.9178591 0.270402133
vt 0.9080969 0.203969717
vt 0.8020844 0.203934371
vt 0.799939752 0.265855253
vt 0.758935153 0.2736832
vt 0.7649727 0.198932171
vt 0.865345359 0.0164186358
vt 0.833324134 0.0164951682
vt 0.833484232 0.1585694
vt 0.8696594 0.167744458
vt 0.800067544 0.0164107084
vt 0.7979626 0.154829919
vt 0.909481466 0.168740153
vt 0.8987445 0.01657617
vt 0.7625587 0.016217947
vt 0.7609315 0.1573078
vt 0.938805163 0.168357968
vt 0.936242759 0.01653552
vt 0.972973645 0.01624757
vt 0.9742138 0.158254445
vt 0.8348686 0.203936577
vt 0.8714829 0.203621268
vt 0.834176362 0.181252956
vt 0.8000214 0.179363549
vt 0.6572593 0.07740533
vt 0.6796721 0.142188966
vt 0.646527767 0.15624851
vt 0.6214389 0.107804358
vt 0.653607845 0.276425779
vt 0.6626048 0.212895155
vt 0.690339148 0.219963431
vt 0.6807452 0.275720239
vt 0.6940409 0.0114431977
vt 0.719479 0.125559032
vt 0.722586334 0.178588271
vt 0.7251678 0.222643435
vt 0.704734564 0.292571783
vt 0.271361768 0.442451715
vt 0.3192644 0.46171397
vt 0.311484069 0.5141384
vt 0.271361768 0.5292203
vt 0.114494324 0.5154743
vt 0.201067939 0.4700628
vt 0.0864298046 0.45144105
vt 0.203155831 0.526630759
vt 0.1769406 0.378789723
vt 0.08088632 0.3612799
vt 0.2081241 0.573966563
vt 0.154892311 0.577371
vt 0.28919974 0.162397981
vt 0.382965446 0.303367853
vt 0.406460345 0.165779352
vt 0.293731868 0.31926924
vt 0.221882328 0.427245975
vt 0.287091464 0.386998951
vt 0.2296091 0.3443269
vt 0.235654458 0.215944588
vt 0.351273268 0.461287379
vt 0.350330859 0.4046293
vt 0.3251926 0.529529035
vt 0.345005 0.5922231
vt 0.424611866 0.5749862
vt 0.204339564 0.290806949
vt 0.165483937 0.3092546
vt 0.09561823 0.261280537
vt 0.118132845 0.216972053
vt 0.08179647 0.2953251
vt 0.162831053 0.263058722
vt 0.008530299 0.326524138
vt 0.204631165 0.240871191
vt 0.270802051 0.583616436
vt 0.133414686 0.162102818
vt 0.125115082 0.191365719
vt 0.8011377 0.4025619
vt 0.736654043 0.356743455
vt 0.7416612 0.4062543
vt 0.800095856 0.349985123
vt 0.9789061 0.40835762
vt 0.9171032 0.354632139
vt 0.9277129 0.42521143
vt 0.980774641 0.356474638
vt 0.695358157 0.36702925
vt 0.696811 0.4292481
vt 0.6376473 0.4118135
vt 0.6321612 0.3666814
vt 0.802853167 0.432745457
vt 0.8564825 0.403958321
vt 0.8641676 0.4647845
vt 0.8579532 0.353398979
vt 0.7471901 0.4689114
vt 0.907293 0.4440663
vt 0.718789458 0.454114676
vt 0.8019615 0.4698671
vt 0.906828463 0.3155105
vt 0.851835 0.313431859
vt 0.974215746 0.319590867
vt 0.7424 0.314088464
vt 0.8010674 0.3122847
vt 0.7058654 0.318822861
vt 0.64301157 0.32125783
vt 0.19516781 0.9531705
vt 0.09911706 0.8994907
vt 0.0947567 0.9531705
vt 0.201760173 0.890153646
vt 0.303997964 0.969943166
vt 0.31068334 0.9531705
vt 0.191200227 0.969943166
vt 0.0147083718 0.9531705
vt 0.09536107 0.969943166
vt 0.3664156 0.9531705
vt 0.211809978 0.837804735
vt 0.1053123 0.767705142
vt 0.102178745 0.837804735
vt 0.22274746 0.767705142
vt 0.376205981 0.848044634
vt 0.386321217 0.767705142
vt 0.309775025 0.84665966
vt 0.317493349 0.767705142
vt 0.220064759 0.6535548
vt 0.3182255 0.6868908
vt 0.3243955 0.653570831
vt 0.2247838 0.6862105
vt 0.399026424 0.653661847
vt 0.108007662 0.6838694
vt 0.306630343 0.8941552
vt 0.374665469 0.8954891
vt 0.208080024 0.8596223
vt 0.308255374 0.8662383
vt 0.288595557 0.115474045
vt 0.2684676 0.01593262
vt 0.130195975 0.07826203
vt 0.391364932 0.01593262
vt 0.1417162 0.01593262
vt 0.845089257 0.988001943
vt 0.8043371 0.7498367
vt 0.7936078 0.98789
vt 0.83900696 0.758055
vt 0.7502478 0.77894187
vt 0.724948943 0.988108039
vt 0.9115775 0.748402238
vt 0.902880251 0.9885576
vt 0.985876143 0.9881178
vt 0.881388962 0.7592107
vt 0.705535233 0.7774755
vt 0.6639162 0.987594247
vt 0.659390748 0.7553685
vt 0.5951476 0.9882096
vt 0.7574361 0.732494354
vt 0.7174614 0.7328613
vt 0.836807549 0.6401862
vt 0.7961138 0.7163876
vt 0.8343101 0.726496339
vt 0.7950848 0.6310471
vt 0.7617529 0.6342716
vt 0.7595945 0.7119129
vt 0.9125028 0.7176374
vt 0.8838249 0.639732
vt 0.8790098 0.7266154
vt 0.932133734 0.633477
vt 0.7143453 0.7104658
vt 0.711229146 0.6321446
vt 0.6594985 0.7188716
vt 0.6696785 0.6316297
vt 0.791747153 0.497860432
vt 0.8266371 0.497795
vt 0.759809554 0.4979741
vt 0.8647488 0.497834027
vt 0.902355969 0.497969866
vt 0.721862853 0.49792695
vt 0.691984 0.498864233
vt 0.0848566443 0.5589177
vt 0.154867351 0.577921569
vt 0.101705089 0.579998255
vt 0.569510937 0.211432576
vt 0.6056394 0.209215939
vt 0.607265949 0.231039524
vt 0.564025044 0.2387234
vt 0.6338421 0.205732048
vt 0.6356031 0.228958011
vt 0.399026424 0.653661847
vt 0.220064759 0.6535548
vt 0.3243955 0.653570831
vt 0.108978182 0.6536825
vt 0.472676635 0.848448157
vt 0.5279165 0.901380062
vt 0.5361892 0.8218975
vt 0.586807966 0.94594
vt 0.5163028 0.980386734
vt 0.598215461 0.8795985
vt 0.455874652 0.932000041
vt 0.557642 0.6510839
vt 0.627140641 0.6510842
vt 0.557641745 0.7249767
vt 0.6271403 0.724977
vt 0.557642341 0.5705128
vt 0.6271411 0.493617177
vt 0.5576426 0.493616939
vt 0.6271409 0.57051307
vt 0.627140641 0.6510842
vt 0.557642 0.6510839
vt 0.557642341 0.5705128
vt 0.6271409 0.57051307
vt 0.5361892 0.8218975
vt 0.5279165 0.901380062
vt 0.598215461 0.8795985
vt 0.5163028 0.980386734
vt 0.455874652 0.932000041
vt 0.472676635 0.848448157
vt 0.586807966 0.94594
vt 0.9408104 0.20391
vt 0.9870735 0.25931114
vt 0.9522153 0.267153263
vt 0.9752932 0.199840248
vt 0.871969342 0.2705264
vt 0.834893644 0.203997254
vt 0.871486068 0.203653872
vt 0.8360087 0.267195
vt 0.9178591 0.270402133
vt 0.9080969 0.203969717
vt 0.8020844 0.203934371
vt 0.799939752 0.265855253
vt 0.758935153 0.2736832
vt 0.7649727 0.198932171
vt 0.865345359 0.0164186358
vt 0.833484232 0.1585694
vt 0.833324134 0.0164951682
vt 0.8696594 0.167744458
vt 0.7979626 0.154829919
vt 0.800067544 0.0164107084
vt 0.909481466 0.168740153
vt 0.8987445 0.01657617
vt 0.7609315 0.1573078
vt 0.7625587 0.016217947
vt 0.936242759 0.01653552
vt 0.938805163 0.168357968
vt 0.972973645 0.01624757
vt 0.9742138 0.158254445
vt 0.8348686 0.203936577
vt 0.8714829 0.203621268
vt 0.834176362 0.181252956
vt 0.8000214 0.179363549
vt 0.646527767 0.15624851
vt 0.6796721 0.142188966
vt 0.690339148 0.219963431
vt 0.6626048 0.212895155
vt 0.719479 0.125559032
vt 0.722725034 0.180955529
vt 0.7251678 0.222643435
vt 0.231239468 0.5141384
vt 0.223459154 0.46171397
vn 0.370294243 0.7579011 0.537092268
vn 0.281584471 0.6835229 0.673429
vn 0.5404115 0.258250862 0.8007883
vn 0.442487121 0.6818196 0.582518
vn 0.237242416 0.768955648 0.5936524
vn 0.770060956 0.447636843 0.454562843
vn 0.276694864 0.9607065 0.0219785813
vn 0.371166676 0.925372362 0.07694998
vn 0.963635862 -0.2416333 -0.114101887
vn 0.6573173 -0.253824055 -0.7095825
vn 0.5405015 -0.5593715 -0.6284598
vn 0.914321363 -0.365140468 -0.175182343
vn -0.3232836 -0.8379354 0.439718
vn 0.684963942 -0.3058676 0.6612635
vn 0.9987101 -0.05065152 -0.00353872613
vn 0.910216451 -0.404417664 0.08917624
vn 0.2274074 0.210833341 -0.9507025
vn -0.0457981 -0.214840591 -0.975574732
vn -0.008975633 -0.027618764 -0.999578238
vn 0.384194165 0.7116562 -0.5881669
vn 0.6274208 0.644688845 -0.436714441
vn 0.371166676 0.925372362 0.07694998
vn -0.009303356 -0.263532966 -0.9646055
vn -0.00910390448 -0.456339717 -0.889759064
vn 0.996173441 -0.08739842 0.0001961985
vn 0.722160757 0.4502548 0.5251233
vn 0.159643367 -0.0118357772 0.9871038
vn 0.00833058 -0.1332744 0.991044164
vn 0.00672668032 -0.40102455 0.9160426
vn 0.350232422 -0.522850335 0.7771517
vn 0.1670977 0.546071649 0.820904434
vn 0.713086963 -0.164221838 0.6815704
vn 0.009538022 0.4295824 0.9029773
vn 0.05223957 0.7802178 0.623322666
vn 0.848849654 -0.481229156 0.218798324
vn 0.276694864 0.9607065 0.0219785813
vn 0.424298972 -0.611769736 0.6676138
vn 0.643801749 -0.371786028 0.6688007
vn 0.00883061 0.66314894 0.7484354
vn 0.00836104 0.7737115 0.633482933
vn 0.9346358 0.352585673 -0.04625217
vn 0.6529491 0.10346885 0.750301063
vn 0.5948679 -0.09619018 0.7980474
vn 0.9694846 0.231030315 -0.08200344
vn -0.3232836 -0.8379354 0.439718
vn -0.0457981 -0.214840591 -0.975574732
vn -0.621174 -0.230852023 -0.748899341
vn -0.9459791 -0.262324572 0.190549925
vn 0.684963942 -0.3058676 0.6612635
vn -0.271971434 -0.383769929 0.882469356
vn -0.3232836 -0.8379354 0.439718
vn -0.9459791 -0.262324572 0.190549925
vn 0.746199548 0.664156735 -0.0456302
vn 0.4952324 0.396177083 -0.7731679
vn 0.384194165 0.7116562 -0.5881669
vn 0.3585359 0.168232575 -0.9182319
vn 0.442487121 0.6818196 0.582518
vn 0.2274074 0.210833341 -0.9507025
vn 0.5404115 0.258250862 0.8007883
vn 0.276694864 0.9607065 0.0219785813
vn -0.361764282 -0.5593478 -0.7458261
vn 0.447086662 -0.08137968 -0.890781045
vn -0.6734344 -0.7384073 0.03522451
vn 0.684750557 -0.274787 0.674988
vn 0.9826644 0.0508080274 -0.178295419
vn -0.078296 -0.6763802 0.7323794
vn -0.0078485 0.22677438 -0.9739157
vn -0.6734344 -0.7384073 0.03522451
vn 0.7439426 0.6475685 0.164937481
vn 0.5224625 0.37949723 0.763554037
vn 0.585283041 0.0636943951 0.808323443
vn 0.903610051 0.3848443 0.188105732
vn 0.5086609 0.7728879 -0.37935254
vn 0.400975883 0.8325386 -0.382227451
vn 0.698499 0.7003888 0.146814987
vn 0.307601839 0.351968437 0.8840245
vn 0.529711664 0.5311406 0.661282957
vn 0.009254497 0.5904597 0.807014048
vn -0.00168383028 0.849445 -0.5276745
vn 0.257689327 0.7744239 -0.5778095
vn 0.8636969 0.45545575 0.215841934
vn 0.4944983 0.224532366 0.8396765
vn 0.541725636 0.1548458 0.82616955
vn 0.96087116 0.181491137 0.2092547
vn 0.256005675 0.5126175 -0.8195635
vn 0.309757054 0.166538671 -0.936117232
vn -0.00816000253 0.179282576 -0.983763754
vn -0.006168989 0.4710285 -0.8820964
vn 0.6785759 0.557409346 -0.478361338
vn 0.7927667 0.198532462 -0.576286256
vn 0.006985261 0.151624918 0.9884134
vn 0.00528866 0.215118691 0.9765736
vn 0.946570635 -0.1950169 0.256851047
vn 0.73316133 -0.2026806 -0.6491495
vn 0.7984443 -0.108120412 -0.592281
vn 0.9713113 -0.0147745265 0.237352327
vn 0.362698674 -0.0599454045 -0.929976463
vn 0.545243561 0.110528171 0.8309591
vn 0.0142927049 0.134808272 0.9907686
vn -0.00765752373 0.06684159 -0.9977342
vn 0.647712648 0.607339144 -0.4600081
vn 0.008516403 -0.09238884 0.9956866
vn 0.2925268 0.5433885 -0.786865354
vn 0.7324028 0.629998446 0.258240342
vn 0.526987255 0.723755836 -0.4454907
vn -0.006047925 0.48547712 -0.8742285
vn -0.00215491746 0.8218202 -0.5697428
vn 0.993747 -0.00779627264 -0.111382827
vn 0.6652988 -0.114266351 0.7377809
vn 0.698499 0.7003888 0.146814987
vn 0.400975883 0.8325386 -0.382227451
vn -0.00168383028 0.849445 -0.5276745
vn 0.008066026 -0.1876069 0.982211053
vn 0.529711664 0.5311406 0.661282957
vn 0.009254497 0.5904597 0.807014048
vn 0.6659377 -0.13961412 -0.73282665
vn 0.9895471 0.0445700847 0.137150064
vn 0.983710647 0.173889741 -0.0455596969
vn 0.646064758 0.124381974 -0.753079951
vn 0.466932118 0.123955563 0.87556237
vn 0.633685648 0.126065344 0.763249636
vn -0.976589561 -0.182288945 -0.114208564
vn -0.982003152 -0.188817739 -0.00419849856
vn -0.428038269 -0.257111818 -0.866416037
vn -0.430079937 -0.165452451 -0.8875003
vn -0.53441596 -0.02276289 0.844915032
vn -0.5986352 0.0204154924 0.8007616
vn -0.982003152 -0.188817739 -0.00419849856
vn -0.976589561 -0.182288945 -0.114208564
vn 0.738211632 -0.161096573 0.655050755
vn -0.482138246 -0.2596644 0.83673
vn 0.5492144 0.194386 -0.8127592
vn 0.643085241 0.378728 -0.6655873
vn 0.9766428 0.21213232 0.0341869481
vn 0.998779953 0.01936043 0.0454290919
vn 0.7838795 -0.342755318 0.5177371
vn 0.680166245 -0.1319771 0.7210797
vn -0.994845569 -0.05702986 -0.08384458
vn -0.319215953 0.292840719 -0.9013021
vn -0.450334132 0.161217049 -0.8781846
vn -0.995633245 -0.08818338 -0.0306281243
vn -0.354601264 -0.5029371 0.788233638
vn -0.330480635 -0.220741466 0.917636
vn -0.994845569 -0.05702986 -0.08384458
vn -0.995633245 -0.08818338 -0.0306281243
vn 0.998842537 -0.014667945 0.0458083451
vn 0.637913048 -0.0160479154 -0.7699412
vn 0.537611842 -0.017437648 0.8430121
vn -0.5173694 -0.103005782 -0.8495403
vn -0.9844513 -0.130120933 0.11800082
vn -0.452866673 -0.0793095157 0.888043761
vn -0.9844513 -0.130120933 0.11800082
vn 0.6045328 0.5757992 0.550450146
vn 0.371166676 0.925372362 0.07694998
vn 0.6274208 0.644688845 -0.436714441
vn 0.009517578 0.282936871 0.9590913
vn 0.852687061 0.0827485546 0.515826941
vn 0.8705137 -0.1783268 0.458699822
vn 0.008160589 -0.1680929 0.9857374
vn -0.008580681 0.07741297 -0.9969622
vn 0.919153452 -0.012783573 -0.393692225
vn 0.8303349 0.122303329 -0.543678045
vn -0.008919051 -0.0109132025 -0.9999007
vn 0.009477946 0.486952215 0.8733772
vn 0.6045328 0.5757992 0.550450146
vn 0.6274208 0.644688845 -0.436714441
vn -0.0078485 0.22677438 -0.9739157
vn 0.009477946 0.486952215 0.8733772
vn 0.00883061 0.66314894 0.7484354
vn 0.0512707867 -0.99814564 0.0328120366
vn 0.0512707867 -0.99814564 0.0328120366
vn 0.0512707867 -0.99814564 0.0328120366
vn 0.5374725 0.08839812 0.838635266
vn -0.00227984879 -0.7398843 0.672730267
vn -0.5258483 -0.850179255 0.0260526631
vn 0.360263765 -0.919629037 -0.1565008
vn 0.4467736 -0.273089081 -0.8519482
vn 0.9500022 -0.25319165 -0.182728976
vn -0.30174 -0.621150136 -0.7232741
vn 0.716737866 -0.4357599 0.544426441
vn -0.394726276 0.312537342 0.864009
vn -0.9621326 0.166438922 0.215867892
vn -0.00227984879 -0.7398843 0.672730267
vn -0.5258483 -0.850179255 0.0260526631
vn 0.0413410552 0.734516442 -0.677330434
vn 0.621942341 0.7830498 -0.00455466844
vn 0.9500022 -0.25319165 -0.182728976
vn 0.4467736 -0.273089081 -0.8519482
vn -0.736183941 0.3999648 -0.545949936
vn -0.30174 -0.621150136 -0.7232741
vn 0.3425922 0.5782753 0.740424335
vn 0.716737866 -0.4357599 0.544426441
vn -0.9621326 0.166438922 0.215867892
vn -0.394726276 0.312537342 0.864009
vn -0.343816668 0.9256057 0.1582534
vn 0.621942341 0.7830498 -0.00455466844
vn 0.0413410552 0.734516442 -0.677330434
vn -0.736183941 0.3999648 -0.545949936
vn 0.3425922 0.5782753 0.740424335
vn -0.221481383 -0.233974352 0.9466795
vn -0.2761016 -0.419193745 0.864895642
vn -0.8650353 -0.497554779 0.06444524
vn -0.9111986 -0.4089753 0.0495604873
vn 0.960886657 0.257051438 -0.103060178
vn 0.910265267 0.3762948 -0.172682837
vn 0.411212742 0.24771896 -0.8772339
vn 0.3803296 0.257728368 -0.888214767
vn 0.675265431 -0.01758742 0.7373651
vn 0.6886092 0.222742543 0.690074742
vn -0.472059071 -0.09256386 -0.8766939
vn -0.6191216 -0.0706510246 -0.7821105
vn -0.8650353 -0.497554779 0.06444524
vn -0.9111986 -0.4089753 0.0495604873
vn 0.9176024 0.34796685 -0.192158386
vn 0.4009177 0.0304424576 -0.9156081
vn 0.424618334 0.115344226 -0.897995
vn 0.9064127 0.414906323 -0.07917523
vn -0.510958731 -0.248075739 -0.8230307
vn -0.5757212 -0.2653094 -0.7734055
vn 0.5485948 0.344150752 0.7619738
vn 0.6304244 0.35682115 0.6893793
vn -0.950931966 -0.2910224 0.10504476
vn -0.9430108 -0.299991429 0.143999144
vn -0.3632014 -0.0263075214 0.931339145
vn -0.272409 0.008795426 0.962141335
vn -0.950931966 -0.2910224 0.10504476
vn -0.9430108 -0.299991429 0.143999144
vn 0.411212742 0.24771896 -0.8772339
vn 0.910265267 0.3762948 -0.172682837
vn 0.406903625 0.215010628 -0.887806237
vn -0.543381631 -0.17860575 -0.820266
vn -0.05185753 0.6188838 0.783768833
vn 0.5214653 0.686862648 0.5062545
vn 0.88385725 0.262733549 0.386997938
vn 0.009469412 0.492774069 0.870105743
vn -0.009283156 -0.13776122 -0.990421951
vn 0.8790196 0.1177581 -0.462014675
vn 0.709053338 0.5273426 -0.46813795
vn -0.007015794 0.35959667 -0.933081448
vn -0.00652638869 0.7310228 0.682321846
vn 0.236738235 0.844429851 0.4805135
vn 0.5059946 0.860017061 0.06587966
vn 0.528968155 0.7567919 -0.384003639
vn -0.00325773866 0.747462869 -0.6642956
vn 0.008007346 -0.197638616 0.980242252
vn 0.368130445 -0.177596018 0.912655234
vn 0.3898801 -0.18896617 0.9012687
vn 0.007942889 -0.209734812 0.977726042
vn -0.355629921 0.7587562 0.5457255
vn -0.532001555 0.290298849 0.795425
vn -0.2656688 0.6851792 0.678195834
vn -0.4237367 0.6768157 0.6019699
vn -0.747339 0.455625772 0.483621359
vn -0.221249342 0.7706475 0.597621262
vn -0.300616771 0.9533608 0.02706917
vn -0.359844655 0.929440439 0.08156182
vn -0.967274666 -0.234714687 -0.09637835
vn -0.5550989 -0.555162251 -0.619403
vn -0.671506 -0.249565437 -0.697708249
vn -0.914418757 -0.371016741 -0.1618177
vn -0.6789834 -0.2699759 0.6827112
vn 0.285134256 -0.892690957 0.3490004
vn -0.9973299 -0.06453722 0.0341758877
vn -0.911353767 -0.3979187 0.105332658
vn -0.235469654 0.214113638 -0.9480028
vn 0.023144152 -0.245565727 -0.969103634
vn -0.381615371 0.717965 -0.5821477
vn -0.359844655 0.929440439 0.08156182
vn -0.62998414 0.6492334 -0.4261642
vn -0.996605754 -0.08035386 0.0178951118
vn -0.709519148 0.4553155 0.537838638
vn -0.1421659 -0.0107691335 0.989784241
vn -0.340061456 -0.5204101 0.7832825
vn -0.148626938 0.5471877 0.8237085
vn -0.7020121 -0.15922077 0.6941381
vn -0.035643965 0.7805285 0.624103248
vn -0.8482103 -0.4752302 0.233870953
vn -0.300616771 0.9533608 0.02706917
vn -0.6344919 -0.3671494 0.680162668
vn -0.4167902 -0.6085973 0.675200164
vn -0.9293098 0.36854 -0.0236988273
vn -0.548398435 -0.0393632539 0.8352902
vn -0.6347358 0.130187213 0.761683464
vn -0.954896152 0.296293855 -0.0195789114
vn 0.285134256 -0.892690957 0.3490004
vn 0.554082155 -0.266262382 -0.788731456
vn 0.023144152 -0.245565727 -0.969103634
vn 0.940876245 -0.3097505 0.137136817
vn 0.291975647 -0.387532234 0.8743963
vn -0.6789834 -0.2699759 0.6827112
vn 0.285134256 -0.892690957 0.3490004
vn 0.940876245 -0.3097505 0.137136817
vn -0.780497849 0.625139952 -0.00480939029
vn -0.505018532 0.408515334 -0.7603102
vn -0.381615371 0.717965 -0.5821477
vn -0.3986592 0.180067822 -0.8992477
vn -0.4237367 0.6768157 0.6019699
vn -0.235469654 0.214113638 -0.9480028
vn -0.532001555 0.290298849 0.795425
vn -0.300616771 0.9533608 0.02706917
vn 0.305207878 -0.573297739 -0.7603801
vn -0.494496852 -0.07035567 -0.8663273
vn 0.6506809 -0.759337 0.004656355
vn -0.657602251 -0.250385284 0.7105396
vn -0.988412857 0.08141296 -0.128109157
vn 0.09430906 -0.6758534 0.7309774
vn 0.6506809 -0.759337 0.004656355
vn -0.7363024 0.6527979 0.178083539
vn -0.570368946 0.0677797347 0.8185873
vn -0.5061223 0.383134484 0.7726889
vn -0.896995 0.392186671 0.203935117
vn -0.401807547 0.83537513 -0.375098765
vn -0.5098426 0.7764876 -0.370307356
vn -0.690721452 0.705375254 0.1592156
vn -0.2893564 0.35407874 0.8893262
vn -0.5141136 0.534832537 0.670553
vn -0.26243037 0.776263058 -0.5731893
vn -0.8567181 0.460703552 0.231918707
vn -0.523037136 0.164596438 0.8362656
vn -0.479911327 0.218799219 0.8495952
vn -0.960017443 0.189724535 0.2058425
vn -0.267402858 0.515060067 -0.814376354
vn -0.346117646 0.171703517 -0.9223451
vn -0.691118658 0.547006 -0.472376376
vn -0.8143055 0.183878258 -0.550541
vn -0.9425488 -0.180759415 0.280940831
vn -0.8178419 -0.07623165 -0.5703712
vn -0.749640167 -0.195370331 -0.632352769
vn -0.9677145 0.005838855 0.2519813
vn -0.38158983 -0.0566580333 -0.922593653
vn -0.512553155 0.109443732 0.851652145
vn -0.6529511 0.6080662 -0.451564372
vn -0.303499371 0.5450533 -0.781540155
vn -0.723929 0.6340963 0.271751225
vn -0.529855847 0.7276492 -0.435636818
vn -0.99546957 -0.0006444429 -0.09507824
vn -0.690721452 0.705375254 0.1592156
vn -0.6530101 -0.109571621 0.749381
vn -0.401807547 0.83537513 -0.375098765
vn -0.5141136 0.534832537 0.670553
vn -0.681656539 -0.133186266 -0.719448268
vn -0.982013 0.187462017 -0.022549836
vn -0.985847354 0.0590903945 0.156886488
vn -0.6632715 0.131894633 -0.7366646
vn -0.6127746 0.13812311 0.778093338
vn -0.4462392 0.133700714 0.8848699
vn 0.9711312 -0.195489377 -0.136704341
vn 0.407988578 -0.2669095 -0.8731006
vn 0.9787751 -0.203801543 -0.0215473566
vn 0.4050794 -0.173246235 -0.897717357
vn 0.618387461 0.0144819655 0.7857399
vn 0.5525859 -0.0283783227 0.8329727
vn 0.9711312 -0.195489377 -0.136704341
vn 0.9787751 -0.203801543 -0.0215473566
vn -0.724446 -0.148176834 0.6732174
vn 0.4984661 -0.2640957 0.8257027
vn -0.5649228 0.1992264 -0.8007316
vn -0.972658634 0.225472257 0.05565519
vn -0.6527658 0.385285765 -0.652266562
vn -0.997098446 0.03385098 0.06818215
vn -0.6651935 -0.119515054 0.7370439
vn -0.776379466 -0.32937178 0.5373539
vn 0.991957068 -0.06907899 -0.106062807
vn 0.432313651 0.151436061 -0.8889162
vn 0.302332252 0.286004841 -0.909283459
vn 0.993307352 -0.102583 -0.05307798
vn 0.36579302 -0.505307 0.7815755
vn 0.348315984 -0.2220211 0.910704434
vn 0.991957068 -0.06907899 -0.106062807
vn 0.993307352 -0.102583 -0.05307798
vn -0.997632563 -0.000102273691 0.0687695
vn -0.655614853 -0.009747973 -0.755032539
vn -0.518277943 -0.006521457 0.855187356
vn 0.496168226 -0.113641255 -0.8607571
vn 0.984940469 -0.1438474 0.09591747
vn 0.4719869 -0.0824884549 0.877738
vn 0.984940469 -0.1438474 0.09591747
vn -0.5902282 0.579944849 0.56151104
vn -0.359844655 0.929440439 0.08156182
vn -0.62998414 0.6492334 -0.4261642
vn -0.863468051 -0.172197521 0.474100143
vn -0.8427847 0.08874205 0.5308849
vn -0.8389753 0.128202811 -0.528852046
vn -0.9260681 -0.006261368 -0.377304345
vn -0.5902282 0.579944849 0.56151104
vn -0.62998414 0.6492334 -0.4261642
vn -0.0619051941 -0.99736 0.0379582159
vn -0.0619051941 -0.99736 0.0379582159
vn -0.0619051941 -0.99736 0.0379582159
vn -0.5257248 0.04874294 0.849257052
vn 0.013580611 -0.7366223 0.676168
vn -0.396366 -0.907440841 -0.139445573
vn 0.501138747 -0.8653548 0.00459091924
vn -0.497934639 -0.25799796 -0.827948153
vn -0.96638155 -0.2208257 -0.13169153
vn 0.247795969 -0.630438 -0.7356256
vn -0.701105833 -0.4100958 0.5833284
vn 0.44809255 0.302904874 0.8411074
vn 0.013580611 -0.7366223 0.676168
vn 0.976740241 0.136274427 0.165553018
vn 0.501138747 -0.8653548 0.00459091924
vn -0.0528893471 0.732904851 -0.678272247
vn -0.96638155 -0.2208257 -0.13169153
vn -0.596304 0.8024251 0.02314226
vn -0.497934639 -0.25799796 -0.827948153
vn 0.247795969 -0.630438 -0.7356256
vn 0.719502568 0.37408784 -0.5851276
vn -0.2857334 0.5916244 0.7538813
vn -0.701105833 -0.4100958 0.5833284
vn 0.976740241 0.136274427 0.165553018
vn 0.3809728 0.9146375 0.13526994
vn 0.44809255 0.302904874 0.8411074
vn -0.596304 0.8024251 0.02314226
vn -0.0528893471 0.732904851 -0.678272247
vn 0.719502568 0.37408784 -0.5851276
vn -0.2857334 0.5916244 0.7538813
vn 0.268267751 -0.2265252 0.9363326
vn 0.85166055 -0.523663759 0.0212256331
vn 0.309996575 -0.4204021 0.8527392
vn 0.8991148 -0.437694 0.00407280028
vn -0.9561866 0.287232876 -0.05660797
vn -0.4518429 0.243522525 -0.858216047
vn -0.9064158 0.401268363 -0.131886661
vn -0.417943418 0.26266858 -0.8696715
vn -0.6363767 0.0113234362 0.771295369
vn -0.6429362 0.25704515 0.721498966
vn 0.4175443 -0.120833062 -0.900586545
vn 0.5736249 -0.09616106 -0.8134541
vn 0.85166055 -0.523663759 0.0212256331
vn 0.8991148 -0.437694 0.00407280028
vn -0.914882 0.3760088 -0.146997422
vn -0.46550408 0.1294386 -0.875529349
vn -0.446149319 0.0398506448 -0.894070864
vn -0.8957144 0.443597585 -0.0302804783
vn 0.527188241 -0.284463972 -0.800720155
vn 0.460040152 -0.26719895 -0.8467395
vn -0.492923677 0.370834082 0.7870885
vn -0.5832443 0.378215581 0.718873441
vn 0.9394775 -0.32867676 0.09671384
vn 0.945286155 -0.321101069 0.0576903559
vn 0.321072251 0.00243221852 0.9470516
vn 0.4126543 -0.0269216578 0.9104898
vn 0.945286155 -0.321101069 0.0576903559
vn 0.9394775 -0.32867676 0.09671384
vn -0.4518429 0.243522525 -0.858216047
vn -0.9064158 0.401268363 -0.131886661
vn -0.4499739 0.217447475 -0.866164
vn 0.4937654 -0.203593731 -0.8454261
vn -0.883337736 0.202073634 0.422942877
vn -0.422814459 0.7223582 0.5471988
vn -0.7159971 0.5350032 -0.448463738
vn -0.8862327 0.123996891 -0.446336627
vn -0.0792690143 0.9041231 0.419854522
vn -0.5058979 0.8598595 0.0686217
vn -0.5283667 0.7602778 -0.377897173
vn -0.375136882 -0.186262071 0.9080632
vn -0.353109121 -0.175046951 0.919060647
usemtl 0002730002_part_0_material_0
f 1/1/1 2/2/2 3/3/3
f 3/3/3 4/4/4 1/1/1
f 2/2/2 5/5/5 6/6/6
f 6/6/6 3/3/3 2/2/2
f 7/7/7 8/8/8 4/4/4
f 4/4/4 8/8/8 1/1/1
f 9/9/9 10/10/10 11/11/11
f 11/11/11 12/12/12 9/9/9
f 12/12/12 13/13/13 14/14/14
f 14/14/14 15/15/15 12/12/12
f 9/9/9 12/12/12 15/15/15
f 15/15/15 16/16/16 9/9/9
f 17/17/17 18/18/18 19/19/19
f 12/12/12 11/11/11 18/18/18
f 18/18/18 13/13/13 12/12/12
f 20/20/20 21/21/21 22/22/22
f 11/11/11 10/10/10 23/23/23
f 23/23/23 24/24/24 11/11/11
f 25/25/25 15/15/15 6/6/6
f 6/6/6 26/26/26 25/25/25
f 27/27/27 28/28/28 29/29/29
f 29/29/29 30/30/30 27/27/27
f 26/26/26 6/6/6 5/5/5
f 5/5/5 31/31/31 26/26/26
f 31/31/31 27/27/27 32/32/32
f 32/32/32 26/26/26 31/31/31
f 33/33/33 31/31/31 34/34/34
f 30/30/30 35/35/35 32/32/32
f 20/20/20 22/22/22 36/36/36
f 14/14/14 6/6/6 15/15/15
f 16/16/16 37/37/37 38/38/38
f 38/38/38 9/9/9 16/16/16
f 5/5/5 2/2/2 39/39/39
f 39/39/39 40/40/40 5/5/5
f 32/32/32 35/35/35 25/25/25
f 25/25/25 26/26/26 32/32/32
f 15/15/15 25/25/25 16/16/16
f 41/41/41 42/42/42 43/43/43
f 43/43/43 44/44/44 41/41/41
f 45/45/45 46/46/46 47/47/47
f 47/47/47 48/48/48 45/45/45
f 42/42/42 49/49/49 50/50/50
f 50/50/50 43/43/43 42/42/42
f 51/51/51 52/52/52 50/50/50
f 50/50/50 49/49/49 51/51/51
f 53/53/53 41/41/41 54/54/54
f 54/54/54 55/55/55 53/53/53
f 56/56/56 54/54/54 41/41/41
f 41/41/41 44/44/44 56/56/56
f 53/53/53 57/57/57 42/42/42
f 42/42/42 41/41/41 53/53/53
f 58/58/58 55/55/55 54/54/54
f 57/57/57 59/59/59 42/42/42
f 46/46/46 58/58/58 54/54/54
f 60/60/60 53/53/53 55/55/55
f 57/57/57 53/53/53 60/60/60
f 59/59/59 49/49/49 42/42/42
f 30/30/30 37/37/37 35/35/35
f 61/61/61 47/47/47 56/56/56
f 56/56/56 62/62/62 61/61/61
f 47/47/47 61/61/61 63/63/63
f 63/63/63 48/48/48 47/47/47
f 64/64/64 65/65/65 44/44/44
f 44/44/44 43/43/43 64/64/64
f 66/66/66 64/64/64 43/43/43
f 43/43/43 50/50/50 66/66/66
f 37/37/37 29/29/29 38/38/38
f 3/3/3 6/6/6 14/14/14
f 17/17/17 19/19/19 67/67/67
f 62/62/62 56/56/56 44/44/44
f 44/44/44 65/65/65 62/62/62
f 66/66/66 50/50/50 52/52/52
f 52/52/52 68/68/68 66/66/66
f 56/56/56 47/47/47 46/46/46
f 46/46/46 54/54/54 56/56/56
f 29/29/29 37/37/37 30/30/30
f 18/18/18 24/24/24 19/19/19
f 18/18/18 11/11/11 24/24/24
f 32/32/32 27/27/27 30/30/30
f 5/5/5 40/40/40 34/34/34
f 31/31/31 5/5/5 34/34/34
f 37/37/37 16/16/16 35/35/35
f 25/25/25 35/35/35 16/16/16
f 69/69/69 70/70/70 71/71/71
f 71/71/71 72/72/72 69/69/69
f 69/69/69 73/73/73 74/74/74
f 74/74/74 75/75/75 69/69/69
f 76/76/76 70/70/70 77/77/77
f 77/77/77 78/78/78 76/76/76
f 79/79/79 74/74/74 73/73/73
f 73/73/73 80/80/80 79/79/79
f 81/81/81 82/82/82 83/83/83
f 83/83/83 84/84/84 81/81/81
f 85/85/85 86/86/86 87/87/87
f 87/87/87 88/88/88 85/85/85
f 89/89/89 81/81/81 84/84/84
f 84/84/84 90/90/90 89/89/89
f 89/89/89 90/90/90 86/86/86
f 86/86/86 85/85/85 89/89/89
f 83/83/83 82/82/82 91/91/91
f 91/91/91 92/92/92 83/83/83
f 93/93/93 94/94/94 95/95/95
f 90/90/90 84/84/84 96/96/96
f 97/97/97 95/95/95 94/94/94
f 95/95/95 97/97/97 86/86/86
f 96/96/96 84/84/84 98/98/98
f 83/83/83 98/98/98 84/84/84
f 83/83/83 92/92/92 99/99/99
f 99/99/99 98/98/98 83/83/83
f 87/87/87 86/86/86 97/97/97
f 97/97/97 100/100/100 87/87/87
f 75/75/75 77/77/77 70/70/70
f 70/70/70 69/69/69 75/75/75
f 72/72/72 101/101/101 73/73/73
f 73/73/73 69/69/69 72/72/72
f 102/102/102 71/71/71 70/70/70
f 70/70/70 76/76/76 102/102/102
f 101/101/101 103/103/103 80/80/80
f 80/80/80 73/73/73 101/101/101
f 82/82/82 81/81/81 104/104/104
f 72/72/72 71/71/71 82/82/82
f 81/81/81 89/89/89 105/105/105
f 105/105/105 104/104/104 81/81/81
f 91/91/91 82/82/82 71/71/71
f 71/71/71 102/102/102 91/91/91
f 105/105/105 85/85/85 103/103/103
f 85/85/85 105/105/105 89/89/89
f 85/85/85 88/88/88 106/106/106
f 106/106/106 103/103/103 85/85/85
f 103/103/103 106/106/106 107/107/107
f 107/107/107 80/80/80 103/103/103
f 80/80/80 107/107/107 79/79/79
f 108/108/108 109/109/109 110/110/110
f 10/10/10 108/108/108 110/110/110
f 110/110/110 111/111/111 10/10/10
f 23/23/23 10/10/10 111/111/111
f 111/111/111 112/112/112 23/23/23
f 113/113/113 109/109/109 38/38/38
f 38/38/38 29/29/29 113/113/113
f 109/109/109 108/108/108 38/38/38
f 110/110/110 109/109/109 114/114/114
f 115/115/115 114/114/114 109/109/109
f 109/109/109 113/113/113 115/115/115
f 116/116/116 117/117/117 118/118/118
f 118/118/118 119/119/119 116/116/116
f 117/117/117 120/120/120 121/121/121
f 121/121/121 118/118/118 117/117/117
f 122/122/122 123/123/123 124/124/124
f 124/124/124 125/125/125 122/122/122
f 124/124/124 116/116/116 119/119/119
f 119/119/119 125/125/125 124/124/124
f 120/120/120 126/126/126 127/127/127
f 127/127/127 121/121/121 120/120/120
f 126/126/126 128/128/128 129/129/129
f 129/129/129 127/127/127 126/126/126
f 130/130/130 118/118/118 121/121/121
f 121/121/121 127/127/127 131/131/131
f 131/131/131 130/130/130 121/121/121
f 127/127/127 129/129/129 131/131/131
f 132/132/132 133/133/133 134/134/134
f 134/134/134 135/135/135 132/132/132
f 134/134/134 136/136/136 137/137/137
f 137/137/137 135/135/135 134/134/134
f 138/138/138 139/139/139 140/140/140
f 140/140/140 141/141/141 138/138/138
f 139/139/139 133/133/133 132/132/132
f 132/132/132 140/140/140 139/139/139
f 137/137/137 136/136/136 142/142/142
f 142/142/142 143/143/143 137/137/137
f 143/143/143 142/142/142 144/144/144
f 144/144/144 145/145/145 143/143/143
f 132/132/132 135/135/135 146/146/146
f 146/146/146 147/147/147 132/132/132
f 135/135/135 137/137/137 148/148/148
f 148/148/148 146/146/146 135/135/135
f 141/141/141 140/140/140 149/149/149
f 149/149/149 150/150/150 141/141/141
f 140/140/140 132/132/132 147/147/147
f 147/147/147 149/149/149 140/140/140
f 137/137/137 143/143/143 151/151/151
f 151/151/151 148/148/148 137/137/137
f 143/143/143 145/145/145 152/152/152
f 152/152/152 151/151/151 143/143/143
f 133/133/133 119/119/119 118/118/118
f 118/118/118 134/134/134 133/133/133
f 118/118/118 130/130/130 136/136/136
f 136/136/136 134/134/134 118/118/118
f 122/122/122 125/125/125 139/139/139
f 139/139/139 138/138/138 122/122/122
f 139/139/139 125/125/125 119/119/119
f 119/119/119 133/133/133 139/139/139
f 130/130/130 131/131/131 142/142/142
f 142/142/142 136/136/136 130/130/130
f 142/142/142 131/131/131 129/129/129
f 129/129/129 144/144/144 142/142/142
f 1/1/1 153/153/153 2/2/2
f 153/153/153 1/1/1 154/154/154
f 154/154/154 155/155/155 153/153/153
f 156/156/156 157/157/157 158/158/158
f 158/158/158 159/159/159 156/156/156
f 160/160/160 161/161/161 162/162/162
f 162/162/162 163/163/163 160/160/160
f 157/157/157 162/162/162 161/161/161
f 161/161/161 158/158/158 157/157/157
f 164/164/164 165/165/165 157/157/157
f 157/157/157 156/156/156 164/164/164
f 163/163/163 162/162/162 166/166/166
f 166/166/166 167/167/167 163/163/163
f 166/166/166 162/162/162 157/157/157
f 157/157/157 165/165/165 166/166/166
f 153/153/153 168/168/168 39/39/39
f 17/17/17 67/67/67 21/21/21
f 21/21/21 20/20/20 17/17/17
f 169/169/169 2/2/2 153/153/153
f 38/38/38 108/108/108 9/9/9
f 9/9/9 108/108/108 10/10/10
f 27/27/27 31/31/31 33/33/33
f 33/33/33 28/28/28 27/27/27
f 170/170/170 171/171/171 172/172/172
f 101/101/101 72/72/72 104/104/104
f 82/82/82 104/104/104 72/72/72
f 103/103/103 101/101/101 105/105/105
f 104/104/104 105/105/105 101/101/101
f 173/173/173 93/93/93 96/96/96
f 95/95/95 96/96/96 93/93/93
f 86/86/86 90/90/90 95/95/95
f 96/96/96 95/95/95 90/90/90
f 99/99/99 173/173/173 98/98/98
f 98/98/98 173/173/173 96/96/96
f 174/174/174 175/175/175 176/176/176
f 177/177/177 178/178/178 176/176/176
f 175/175/175 179/179/179 176/176/176
f 179/179/179 177/177/177 176/176/176
f 178/178/178 180/180/180 176/176/176
f 180/180/180 174/174/174 176/176/176
f 181/181/181 182/182/182 183/183/183
f 184/184/184 183/183/183 182/182/182
f 185/185/185 186/186/186 187/187/187
f 187/187/187 188/188/188 185/185/185
f 182/182/182 189/189/189 190/190/190
f 190/190/190 184/184/184 182/182/182
f 189/189/189 185/185/185 190/190/190
f 188/188/188 190/190/190 185/185/185
f 186/186/186 191/191/191 187/187/187
f 192/192/192 187/187/187 191/191/191
f 191/191/191 181/181/181 192/192/192
f 183/183/183 192/192/192 181/181/181
f 193/193/193 194/194/194 195/195/195
f 196/196/196 197/197/197 195/195/195
f 198/198/198 193/193/193 195/195/195
f 197/197/197 198/198/198 195/195/195
f 199/199/199 196/196/196 195/195/195
f 194/194/194 199/199/199 195/195/195
f 200/200/200 201/201/201 202/202/202
f 202/202/202 203/203/203 200/200/200
f 204/204/204 205/205/205 206/206/206
f 206/206/206 207/207/207 204/204/204
f 208/208/208 201/201/201 200/200/200
f 200/200/200 209/209/209 208/208/208
f 207/207/207 206/206/206 210/210/210
f 210/210/210 211/211/211 207/207/207
f 212/212/212 211/211/211 210/210/210
f 210/210/210 213/213/213 212/212/212
f 204/204/204 208/208/208 209/209/209
f 209/209/209 205/205/205 204/204/204
f 214/214/214 215/215/215 216/216/216
f 216/216/216 217/217/217 214/214/214
f 215/215/215 218/218/218 219/219/219
f 219/219/219 216/216/216 215/215/215
f 220/220/220 221/221/221 214/214/214
f 214/214/214 217/217/217 220/220/220
f 218/218/218 222/222/222 223/223/223
f 223/223/223 219/219/219 218/218/218
f 220/220/220 224/224/224 225/225/225
f 225/225/225 221/221/221 220/220/220
f 226/226/226 225/225/225 224/224/224
f 224/224/224 227/227/227 226/226/226
f 228/228/228 229/229/229 217/217/217
f 217/217/217 230/230/230 228/228/228
f 210/210/210 228/228/228 230/230/230
f 230/230/230 231/231/231 210/210/210
f 213/213/213 210/210/210 231/231/231
f 231/231/231 223/223/223 213/213/213
f 200/200/200 224/224/224 220/220/220
f 220/220/220 209/209/209 200/200/200
f 220/220/220 217/217/217 229/229/229
f 229/229/229 209/209/209 220/220/220
f 216/216/216 230/230/230 217/217/217
f 231/231/231 230/230/230 216/216/216
f 216/216/216 219/219/219 231/231/231
f 203/203/203 227/227/227 224/224/224
f 224/224/224 200/200/200 203/203/203
f 219/219/219 223/223/223 231/231/231
f 232/232/232 233/233/233 234/234/234
f 234/234/234 235/235/235 232/232/232
f 236/236/236 237/237/237 238/238/238
f 238/238/238 239/239/239 236/236/236
f 238/238/238 237/237/237 234/234/234
f 234/234/234 233/233/233 238/238/238
f 240/240/240 241/241/241 233/233/233
f 233/233/233 232/232/232 240/240/240
f 242/242/242 243/243/243 238/238/238
f 238/238/238 233/233/233 241/241/241
f 243/243/243 244/244/244 239/239/239
f 239/239/239 238/238/238 243/243/243
f 245/245/245 246/246/246 247/247/247
f 247/247/247 248/248/248 245/245/245
f 249/249/249 250/250/250 251/251/251
f 250/250/250 249/249/249 252/252/252
f 251/251/251 253/253/253 254/254/254
f 253/253/253 251/251/251 250/250/250
f 255/255/255 252/252/252 256/256/256
f 252/252/252 249/249/249 256/256/256
f 257/257/257 258/258/258 259/259/259
f 258/258/258 257/257/257 260/260/260
f 260/260/260 261/261/261 262/262/262
f 261/261/261 260/260/260 263/263/263
f 257/257/257 263/263/263 260/260/260
f 263/263/263 257/257/257 264/264/264
f 265/265/265 19/19/19 266/266/266
f 260/260/260 266/266/266 258/258/258
f 266/266/266 260/260/260 262/262/262
f 267/267/267 268/268/268 269/269/269
f 258/258/258 23/23/23 259/259/259
f 23/23/23 258/258/258 24/24/24
f 270/270/270 253/253/253 263/263/263
f 253/253/253 270/270/270 271/271/271
f 272/272/272 29/29/29 28/28/28
f 29/29/29 272/272/272 273/273/273
f 271/271/271 254/254/254 253/253/253
f 254/254/254 271/271/271 274/274/274
f 274/274/274 275/275/275 272/272/272
f 275/275/275 274/274/274 271/271/271
f 33/33/33 276/276/276 274/274/274
f 273/273/273 275/275/275 277/277/277
f 267/267/267 278/278/278 268/268/268
f 261/261/261 263/263/263 253/253/253
f 264/264/264 279/279/279 280/280/280
f 279/279/279 264/264/264 257/257/257
f 254/254/254 39/39/39 251/251/251
f 39/39/39 254/254/254 40/40/40
f 275/275/275 270/270/270 277/277/277
f 270/270/270 275/275/275 271/271/271
f 263/263/263 264/264/264 270/270/270
f 281/281/281 282/282/282 283/283/283
f 282/282/282 281/281/281 284/284/284
f 285/285/285 286/286/286 287/287/287
f 286/286/286 285/285/285 288/288/288
f 283/283/283 289/289/289 290/290/290
f 289/289/289 283/283/283 282/282/282
f 291/291/291 289/289/289 292/292/292
f 289/289/289 291/291/291 290/290/290
f 293/293/293 294/294/294 281/281/281
f 294/294/294 293/293/293 295/295/295
f 296/296/296 281/281/281 294/294/294
f 281/281/281 296/296/296 284/284/284
f 293/293/293 283/283/283 297/297/297
f 283/283/283 293/293/293 281/281/281
f 298/298/298 294/294/294 295/295/295
f 297/297/297 283/283/283 299/299/299
f 287/287/287 294/294/294 298/298/298
f 300/300/300 295/295/295 293/293/293
f 297/297/297 300/300/300 293/293/293
f 299/299/299 283/283/283 290/290/290
f 273/273/273 277/277/277 280/280/280
f 301/301/301 296/296/296 286/286/286
f 296/296/296 301/301/301 302/302/302
f 286/286/286 303/303/303 301/301/301
f 303/303/303 286/286/286 288/288/288
f 304/304/304 284/284/284 305/305/305
f 284/284/284 304/304/304 282/282/282
f 306/306/306 282/282/282 304/304/304
f 282/282/282 306/306/306 289/289/289
f 280/280/280 279/279/279 29/29/29
f 250/250/250 261/261/261 253/253/253
f 265/265/265 67/67/67 19/19/19
f 302/302/302 284/284/284 296/296/296
f 284/284/284 302/302/302 305/305/305
f 306/306/306 292/292/292 289/289/289
f 292/292/292 306/306/306 307/307/307
f 296/296/296 287/287/287 286/286/286
f 287/287/287 296/296/296 294/294/294
f 29/29/29 273/273/273 280/280/280
f 266/266/266 19/19/19 24/24/24
f 266/266/266 24/24/24 258/258/258
f 275/275/275 273/273/273 272/272/272
f 254/254/254 276/276/276 40/40/40
f 274/274/274 276/276/276 254/254/254
f 280/280/280 277/277/277 264/264/264
f 270/270/270 264/264/264 277/277/277
f 308/308/308 309/309/309 310/310/310
f 309/309/309 308/308/308 311/311/311
f 308/308/308 312/312/312 313/313/313
f 312/312/312 308/308/308 314/314/314
f 315/315/315 316/316/316 310/310/310
f 316/316/316 315/315/315 78/78/78
f 79/79/79 313/313/313 312/312/312
f 313/313/313 79/79/79 317/317/317
f 318/318/318 319/319/319 320/320/320
f 319/319/319 318/318/318 321/321/321
f 322/322/322 87/87/87 323/323/323
f 87/87/87 322/322/322 88/88/88
f 324/324/324 321/321/321 318/318/318
f 321/321/321 324/324/324 325/325/325
f 324/324/324 323/323/323 325/325/325
f 323/323/323 324/324/324 322/322/322
f 319/319/319 91/91/91 320/320/320
f 91/91/91 319/319/319 92/92/92
f 326/326/326 327/327/327 328/328/328
f 325/325/325 329/329/329 321/321/321
f 330/330/330 328/328/328 327/327/327
f 327/327/327 323/323/323 330/330/330
f 329/329/329 331/331/331 321/321/321
f 319/319/319 321/321/321 331/331/331
f 319/319/319 99/99/99 92/92/92
f 99/99/99 319/319/319 331/331/331
f 87/87/87 330/330/330 323/323/323
f 330/330/330 87/87/87 100/100/100
f 314/314/314 310/310/310 316/316/316
f 310/310/310 314/314/314 308/308/308
f 311/311/311 313/313/313 332/332/332
f 313/313/313 311/311/311 308/308/308
f 102/102/102 310/310/310 309/309/309
f 310/310/310 102/102/102 315/315/315
f 332/332/332 317/317/317 333/333/333
f 317/317/317 332/332/332 313/313/313
f 320/320/320 334/334/334 318/318/318
f 311/311/311 320/320/320 309/309/309
f 318/318/318 335/335/335 324/324/324
f 335/335/335 318/318/318 334/334/334
f 91/91/91 309/309/309 320/320/320
f 309/309/309 91/91/91 102/102/102
f 335/335/335 333/333/333 322/322/322
f 322/322/322 324/324/324 335/335/335
f 322/322/322 106/106/106 88/88/88
f 106/106/106 322/322/322 333/333/333
f 333/333/333 107/107/107 106/106/106
f 107/107/107 333/333/333 317/317/317
f 317/317/317 79/79/79 107/107/107
f 336/336/336 337/337/337 338/338/338
f 259/259/259 337/337/337 336/336/336
f 337/337/337 259/259/259 339/339/339
f 23/23/23 339/339/339 259/259/259
f 339/339/339 23/23/23 112/112/112
f 113/113/113 279/279/279 338/338/338
f 279/279/279 113/113/113 29/29/29
f 338/338/338 279/279/279 336/336/336
f 337/337/337 340/340/340 338/338/338
f 115/115/115 338/338/338 340/340/340
f 338/338/338 115/115/115 113/113/113
f 341/341/341 342/342/342 343/343/343
f 342/342/342 341/341/341 344/344/344
f 343/343/343 345/345/345 346/346/346
f 345/345/345 343/343/343 342/342/342
f 347/347/347 348/348/348 349/349/349
f 348/348/348 347/347/347 350/350/350
f 348/348/348 344/344/344 341/341/341
f 344/344/344 348/348/348 350/350/350
f 346/346/346 351/351/351 352/352/352
f 351/351/351 346/346/346 345/345/345
f 352/352/352 353/353/353 354/354/354
f 353/353/353 352/352/352 351/351/351
f 355/355/355 345/345/345 342/342/342
f 345/345/345 356/356/356 351/351/351
f 356/356/356 345/345/345 355/355/355
f 351/351/351 356/356/356 353/353/353
f 357/357/357 358/358/358 359/359/359
f 358/358/358 357/357/357 360/360/360
f 358/358/358 361/361/361 362/362/362
f 361/361/361 358/358/358 360/360/360
f 363/363/363 364/364/364 365/365/365
f 364/364/364 363/363/363 366/366/366
f 365/365/365 357/357/357 359/359/359
f 357/357/357 365/365/365 364/364/364
f 361/361/361 367/367/367 362/362/362
f 367/367/367 361/361/361 368/368/368
f 368/368/368 369/369/369 367/367/367
f 369/369/369 368/368/368 370/370/370
f 357/357/357 371/371/371 360/360/360
f 371/371/371 357/357/357 372/372/372
f 360/360/360 373/373/373 361/361/361
f 373/373/373 360/360/360 371/371/371
f 366/366/366 374/374/374 364/364/364
f 374/374/374 366/366/366 375/375/375
f 364/364/364 372/372/372 357/357/357
f 372/372/372 364/364/364 374/374/374
f 361/361/361 376/376/376 368/368/368
f 376/376/376 361/361/361 373/373/373
f 368/368/368 377/377/377 370/370/370
f 377/377/377 368/368/368 376/376/376
f 359/359/359 342/342/342 344/344/344
f 342/342/342 359/359/359 358/358/358
f 342/342/342 362/362/362 355/355/355
f 362/362/362 342/342/342 358/358/358
f 347/347/347 365/365/365 350/350/350
f 365/365/365 347/347/347 363/363/363
f 365/365/365 344/344/344 350/350/350
f 344/344/344 365/365/365 359/359/359
f 355/355/355 367/367/367 356/356/356
f 367/367/367 355/355/355 362/362/362
f 367/367/367 353/353/353 356/356/356
f 353/353/353 367/367/367 369/369/369
f 249/249/249 251/251/251 378/378/378
f 378/378/378 379/379/379 249/249/249
f 379/379/379 378/378/378 380/380/380
f 156/156/156 381/381/381 382/382/382
f 381/381/381 156/156/156 159/159/159
f 160/160/160 383/383/383 384/384/384
f 383/383/383 160/160/160 163/163/163
f 382/382/382 384/384/384 383/383/383
f 384/384/384 382/382/382 381/381/381
f 164/164/164 382/382/382 385/385/385
f 382/382/382 164/164/164 156/156/156
f 163/163/163 386/386/386 383/383/383
f 386/386/386 163/163/163 167/167/167
f 386/386/386 382/382/382 383/383/383
f 382/382/382 386/386/386 385/385/385
f 378/378/378 39/39/39 168/168/168
f 265/265/265 269/269/269 67/67/67
f 269/269/269 265/265/265 267/267/267
f 169/169/169 378/378/378 251/251/251
f 279/279/279 257/257/257 336/336/336
f 257/257/257 259/259/259 336/336/336
f 272/272/272 33/33/33 274/274/274
f 33/33/33 272/272/272 28/28/28
f 387/387/387 388/388/388 389/389/389
f 332/332/332 334/334/334 311/311/311
f 320/320/320 311/311/311 334/334/334
f 333/333/333 335/335/335 332/332/332
f 334/334/334 332/332/332 335/335/335
f 390/390/390 329/329/329 326/326/326
f 327/327/327 326/326/326 329/329/329
f 323/323/323 327/327/327 325/325/325
f 329/329/329 325/325/325 327/327/327
f 99/99/99 331/331/331 390/390/390
f 331/331/331 329/329/329 390/390/390
f 391/391/391 392/392/392 393/393/393
f 394/394/394 392/392/392 395/395/395
f 393/393/393 392/392/392 396/396/396
f 396/396/396 392/392/392 394/394/394
f 395/395/395 392/392/392 397/397/397
f 397/397/397 392/392/392 391/391/391
f 398/398/398 399/399/399 400/400/400
f 401/401/401 400/400/400 399/399/399
f 402/402/402 403/403/403 404/404/404
f 403/403/403 402/402/402 405/405/405
f 400/400/400 406/406/406 407/407/407
f 406/406/406 400/400/400 401/401/401
f 407/407/407 406/406/406 402/402/402
f 405/405/405 402/402/402 406/406/406
f 404/404/404 403/403/403 408/408/408
f 409/409/409 408/408/408 403/403/403
f 408/408/408 409/409/409 398/398/398
f 399/399/399 398/398/398 409/409/409
f 410/410/410 411/411/411 412/412/412
f 413/413/413 411/411/411 414/414/414
f 415/415/415 411/411/411 410/410/410
f 414/414/414 411/411/411 415/415/415
f 416/416/416 411/411/411 413/413/413
f 412/412/412 411/411/411 416/416/416
f 417/417/417 418/418/418 419/419/419
f 418/418/418 417/417/417 420/420/420
f 421/421/421 422/422/422 423/423/423
f 422/422/422 421/421/421 424/424/424
f 425/425/425 417/417/417 419/419/419
f 417/417/417 425/425/425 426/426/426
f 424/424/424 427/427/427 422/422/422
f 427/427/427 424/424/424 428/428/428
f 429/429/429 427/427/427 428/428/428
f 427/427/427 429/429/429 430/430/430
f 421/421/421 426/426/426 425/425/425
f 426/426/426 421/421/421 423/423/423
f 431/431/431 432/432/432 433/433/433
f 432/432/432 431/431/431 434/434/434
f 433/433/433 435/435/435 436/436/436
f 435/435/435 433/433/433 432/432/432
f 437/437/437 431/431/431 438/438/438
f 431/431/431 437/437/437 434/434/434
f 436/436/436 439/439/439 440/440/440
f 439/439/439 436/436/436 435/435/435
f 437/437/437 441/441/441 442/442/442
f 441/441/441 437/437/437 438/438/438
f 443/443/443 442/442/442 441/441/441
f 442/442/442 443/443/443 444/444/444
f 445/445/445 434/434/434 446/446/446
f 434/434/434 445/445/445 447/447/447
f 427/427/427 447/447/447 445/445/445
f 447/447/447 427/427/427 448/448/448
f 430/430/430 448/448/448 427/427/427
f 448/448/448 430/430/430 439/439/439
f 417/417/417 437/437/437 442/442/442
f 437/437/437 417/417/417 426/426/426
f 437/437/437 446/446/446 434/434/434
f 446/446/446 437/437/437 426/426/426
f 432/432/432 434/434/434 447/447/447
f 448/448/448 432/432/432 447/447/447
f 432/432/432 448/448/448 435/435/435
f 420/420/420 442/442/442 444/444/444
f 442/442/442 420/420/420 417/417/417
f 435/435/435 448/448/448 439/439/439
f 232/232/232 449/449/449 450/450/450
f 449/449/449 232/232/232 235/235/235
f 236/236/236 451/451/451 452/452/452
f 451/451/451 236/236/236 239/239/239
f 451/451/451 449/449/449 452/452/452
f 449/449/449 451/451/451 450/450/450
f 240/240/240 450/450/450 453/453/453
f 450/450/450 240/240/240 232/232/232
f 453/453/453 451/451/451 454/454/454
f 451/451/451 453/453/453 450/450/450
f 455/455/455 239/239/239 244/244/244
f 239/239/239 455/455/455 451/451/451
f 245/245/245 456/456/456 457/457/457
f 456/456/456 245/245/245 248/248/248
f 241/241/241 242/242/242 238/238/238
f 454/454/454 451/451/451 455/455/455
