mtllib 0002720013.mtl
o 0002720013_part_0
v 0.36955297 1.2768023 -0.03856856
v 0.419450521 1.16063368 -0.09775053
v 0.420490831 1.28007078 -0.124607056
v 0.411033243 1.04573417 -0.189834833
v 0.276282638 1.05804682 -0.0836175
v 0.2684185 1.183703 -0.220245108
v 0.210545138 1.18928683 -0.1040955
v 0.382879317 1.14868522 -0.197254717
v 0.353900522 1.2290864 -0.220072046
v 0.287928432 1.23573518 -0.0212559216
v 0.336039 1.09203315 0.00326273125
v 0.287928432 1.23573518 -0.0212559216
v 0.336039 1.09203315 0.00326273125
v 0.3567509 0.9891952 0.0188092738
v 0.41074276 0.972933 -0.00450908532
v 0.4278928 0.9483834 -0.152656227
v 0.390003264 0.953484535 -0.166513488
v 0.411033243 1.04573417 -0.189834833
v 0.390003264 0.953484535 -0.166513488
v 0.3392799 0.9657436 -0.019896619
v 0.4327412 0.8852584 -0.009012393
v 0.352833718 0.757210433 -0.00691809552
v 0.411070138 0.873425364 -0.044640895
v 0.349692672 0.754845858 -0.0398391746
v 0.3811972 0.9120445 -0.152086973
v 0.39201045 0.901998639 -0.06313886
v 0.394402653 0.8876626 0.00583460135
v 0.33437562 0.7782616 0.00493439566
v 0.2569407 0.8958709 0.053803727
v 0.295115978 0.898518443 0.05881789
v 0.3094765 1.01155543 0.02484496
v 0.338424265 0.7689174 -0.03697106
v 0.33437562 0.7782616 0.00493439566
v 0.394402653 0.8876626 0.00583460135
v 0.349692672 0.754845858 -0.0398391746
v 0.352833718 0.757210433 -0.00691809552
v 0.269750178 0.881212533 0.02908775
v 0.3392799 0.9657436 -0.019896619
v 0.3094765 1.01155543 0.02484496
v 0.273624271 1.00646949 -0.036176417
v 0.2569407 0.8958709 0.053803727
v 0.269750178 0.881212533 0.02908775
v 0.4338664 1.0853647 -0.08671443
v 0.4585582 0.957573056 -0.0484893024
v 0.4026108 0.899098039 -0.138822153
v 0.3811972 0.9120445 -0.152086973
v 0.2976908 0.7790683 -0.130736738
v 0.2823145 0.790868 -0.0549214445
v 0.2976908 0.7790683 -0.130736738
v 0.3083514 0.77531445 -0.0589768663
v 0.3083514 0.77531445 -0.0589768663
v 0.411070138 0.873425364 -0.044640895
v 0.353900522 1.2290864 -0.220072046
v 0.382879317 1.14868522 -0.197254717
v 0.371207416 1.17855239 -0.276114166
v 0.343715727 1.25354707 -0.278785378
v 0.355701834 1.24490726 -0.3415288
v 0.322587758 1.31631029 -0.324359834
v 0.372106373 1.2045567 -0.314670831
v 0.413334817 1.07134008 -0.243752167
v 0.396903455 1.13162017 -0.2645956
v 0.307670623 1.13469172 -0.15103738
v 0.343199223 1.15555465 -0.15087615
v 0.398231477 1.05585408 -0.162282437
v 0.2974384 1.06342649 -0.08492864
v 0.282681376 1.11925888 -0.101363562
v 0.3237137 1.15775013 -0.0537299849
v 0.282681376 1.11925888 -0.101363562
v 0.2974384 1.06342649 -0.08492864
v 0.342324 1.08745909 -0.0174476746
v 0.3611317 1.17137 -0.06737005
v 0.384473324 1.16355932 -0.109993711
v 0.416231841 1.08339214 -0.08726691
v 0.416231841 1.08339214 -0.08726691
v -0.379778415 1.28515744 -0.0231440552
v -0.434929729 1.28973186 -0.10648299
v -0.436289757 1.170421 -0.0790853053
v -0.434315026 1.06076217 -0.167288527
v -0.295904577 1.21193063 -0.2227605
v -0.297779918 1.06117857 -0.07236944
v -0.23026371 1.17552674 -0.08271077
v -0.405261755 1.15695143 -0.180264056
v -0.37496376 1.23630571 -0.204956144
v -0.2987126 1.24157631 -0.0098091485
v -0.350156933 1.09880948 0.0196149722
v -0.2987126 1.24157631 -0.0098091485
v -0.350156933 1.09880948 0.0196149722
v -0.436733127 0.986540735 0.0147704761
v -0.380443543 0.9975732 0.035581395
v -0.462663472 0.96292305 -0.132247224
v -0.434315026 1.06076217 -0.167288527
v -0.4250998 0.9642079 -0.147770926
v -0.4250998 0.9642079 -0.147770926
v -0.367055058 0.97229743 -0.00360081252
v -0.467358351 0.9014172 0.0121024121
v -0.448525459 0.887310565 -0.0243032537
v -0.400313437 0.7661735 0.01205346
v -0.3988618 0.763320267 -0.0209466387
v -0.419756949 0.9221897 -0.133318469
v -0.427596152 0.9137713 -0.043890886
v -0.428355366 0.900141954 0.025262909
v -0.3793882 0.7853847 0.0228885077
v -0.288781732 0.8951289 0.06719448
v -0.33099407 1.015231 0.03935361
v -0.326260269 0.9015317 0.07381773
v -0.386159331 0.77623713 -0.01870772
v -0.3793882 0.7853847 0.0228885077
v -0.428355366 0.900141954 0.025262909
v -0.3988618 0.763320267 -0.0209466387
v -0.400313437 0.7661735 0.01205346
v -0.304029822 0.8816512 0.0432011671
v -0.367055058 0.97229743 -0.00360081252
v -0.33099407 1.015231 0.03935361
v -0.288781732 0.8951289 0.06719448
v -0.2985141 1.00630176 -0.0230977871
v -0.304029822 0.8816512 0.0432011671
v -0.451015145 1.0999788 -0.0667606
v -0.48769784 0.9756806 -0.0269567072
v -0.441730678 0.9114803 -0.119015507
v -0.419756949 0.9221897 -0.133318469
v -0.3487721 0.7818016 -0.114235148
v -0.329014778 0.7924818 -0.0392737873
v -0.3487721 0.7818016 -0.114235148
v -0.356597662 0.779529452 -0.04204916
v -0.356597662 0.779529452 -0.04204916
v -0.448525459 0.887310565 -0.0243032537
v -0.37496376 1.23630571 -0.204956144
v -0.405261755 1.15695143 -0.180264056
v -0.396708369 1.18614411 -0.2597733
v -0.3670332 1.2602154 -0.2642414
v -0.382486 1.25173271 -0.326243877
v -0.346295476 1.32210755 -0.311166346
v -0.398759723 1.212023 -0.298370242
v -0.4404893 1.08044589 -0.224735811
v -0.423250765 1.140096 -0.246709287
v -0.3283162 1.14065826 -0.1384803
v -0.422735333 1.06542015 -0.144719183
v -0.363724679 1.16271842 -0.135951757
v -0.301828742 1.12438786 -0.08997592
v -0.317186266 1.06695485 -0.07165997
v -0.3392302 1.163907 -0.0403695
v -0.317186266 1.06695485 -0.07165997
v -0.301828742 1.12438786 -0.08997592
v -0.357484 1.094644 -0.00178004429
v -0.3762293 1.17933118 -0.05233746
v -0.4356401 1.09459937 -0.0684929341
v -0.40190798 1.17189825 -0.0939731
v -0.4356401 1.09459937 -0.0684929341
vt 0.110773824 0.815412343
vt 0.267782718 0.629308343
vt 0.263044566 0.8494881
vt 0.661719739 0.68353
vt 0.816926539 0.71678853
vt 0.676631331 0.9267363
vt 0.8573014 0.902161956
vt 0.629969835 0.8141632
vt 0.6195538 0.9272615
vt 0.961698353 0.9140876
vt 0.9448931 0.717985
vt 0.0385293476 0.7447881
vt 0.114610024 0.5357
vt 0.130053088 0.382586956
vt 0.187110975 0.38558358
vt 0.406892121 0.398328245
vt 0.437688649 0.392109036
vt 0.4007563 0.544454157
vt 0.663039446 0.565994263
vt 0.862071 0.5599182
vt 0.228375435 0.2844509
vt 0.249617726 0.07763648
vt 0.277048051 0.270121038
vt 0.2957424 0.08229351
vt 0.677063167 0.5126946
vt 0.7799541 0.4809506
vt 0.192546085 0.266737223
vt 0.216437742 0.0937072039
vt 0.05892726 0.2254476
vt 0.09591918 0.2353431
vt 0.07114227 0.383645654
vt 0.827952743 0.336779773
vt 0.8758488 0.33549118
vt 0.86353755 0.44635433
vt 0.811991453 0.3127386
vt 0.851925552 0.308164418
vt 0.11744424 0.2035262
vt 0.161376327 0.345926
vt 0.9617884 0.6245064
vt 0.897357464 0.623907566
vt 0.9683717 0.47228092
vt 0.9314383 0.4567349
vt 0.2699384 0.5693124
vt 0.265342921 0.393324733
vt 0.398147136 0.3286878
vt 0.429412544 0.3390532
vt 0.668267369 0.3392836
vt 0.7505516 0.3425833
vt 0.4022869 0.122481704
vt 0.305677384 0.101311266
vt 0.765752852 0.322349
vt 0.7854976 0.426231027
vt 0.403856754 0.803425848
vt 0.404036015 0.683201969
vt 0.507508934 0.7383286
vt 0.481126428 0.8449235
vt 0.574978054 0.851778567
vt 0.5203133 0.947083056
vt 0.553986847 0.7869614
vt 0.495827377 0.5829476
vt 0.5074262 0.6794839
vt 0.6239362 0.0307636857
vt 0.699126 0.0307636857
vt 0.6930399 0.190283477
vt 0.5694604 0.190283477
vt 0.569440842 0.0307636857
vt 0.888267159 0.0307636857
vt 0.95300895 0.0307636857
vt 0.951984465 0.190283477
vt 0.8910705 0.190283477
vt 0.830800056 0.0307636857
vt 0.79123807 0.0307636857
vt 0.7884127 0.190283477
vt 0.7888831 0.190283477
vt 0.110773824 0.815412343
vt 0.263044566 0.8494881
vt 0.267782718 0.629308343
vt 0.661719739 0.68353
vt 0.676631331 0.9267363
vt 0.816926539 0.71678853
vt 0.8573014 0.902161956
vt 0.629969835 0.8141632
vt 0.6195538 0.9272615
vt 0.961698353 0.9140876
vt 0.9448931 0.717985
vt 0.0385293476 0.7447881
vt 0.114610024 0.5357
vt 0.187110975 0.38558358
vt 0.130053088 0.382586956
vt 0.406892121 0.398328245
vt 0.4007563 0.544454157
vt 0.437688649 0.392109036
vt 0.663039446 0.565994263
vt 0.862071 0.5599182
vt 0.228375435 0.2844509
vt 0.277048051 0.270121038
vt 0.249617726 0.07763648
vt 0.2957424 0.08229351
vt 0.677063167 0.5126946
vt 0.7799541 0.4809506
vt 0.192546085 0.266737223
vt 0.216437742 0.0937072039
vt 0.05892726 0.2254476
vt 0.07114227 0.383645654
vt 0.09591918 0.2353431
vt 0.827952743 0.336779773
vt 0.8758488 0.33549118
vt 0.86353755 0.44635433
vt 0.811991453 0.3127386
vt 0.851925552 0.308164418
vt 0.11744424 0.2035262
vt 0.161376327 0.345926
vt 0.9617884 0.6245064
vt 0.9683717 0.47228092
vt 0.897357464 0.623907566
vt 0.9314383 0.4567349
vt 0.2699384 0.5693124
vt 0.265342921 0.393324733
vt 0.398147136 0.3286878
vt 0.429412544 0.3390532
vt 0.668267369 0.3392836
vt 0.7505516 0.3425833
vt 0.4022869 0.122481704
vt 0.305677384 0.101311266
vt 0.765752852 0.322349
vt 0.7854976 0.426231027
vt 0.403856754 0.803425848
vt 0.404036015 0.683201969
vt 0.507508934 0.7383286
vt 0.481126428 0.8449235
vt 0.574978054 0.851778567
vt 0.5203133 0.947083056
vt 0.553986847 0.7869614
vt 0.495827377 0.5829476
vt 0.5074262 0.6794839
vt 0.6239362 0.0307636857
vt 0.6930399 0.190283477
vt 0.699126 0.0307636857
vt 0.569440842 0.0307636857
vt 0.5694604 0.190283477
vt 0.888267159 0.0307636857
vt 0.951984465 0.190283477
vt 0.95300895 0.0307636857
vt 0.8910705 0.190283477
vt 0.830800056 0.0307636857
vt 0.7884127 0.190283477
vt 0.79123807 0.0307636857
vt 0.7888831 0.190283477
vn 0.6299732 0.143305853 0.7632806
vn 0.989664257 0.1386368 0.036667712
vn 0.997643054 0.06335413 0.0263554864
vn 0.64472276 -0.04973069 -0.762797058
vn -0.919821441 -0.383421034 -0.0831676
vn -0.3852434 -0.461052537 -0.7993861
vn -0.8840084 -0.40688166 0.230166242
vn 0.7958438 0.1154644 -0.594391048
vn 0.821428359 0.142275557 -0.552279949
vn -0.312113971 0.0202199556 0.949829459
vn -0.07353623 0.216229975 0.9735692
vn -0.312113971 0.0202199556 0.949829459
vn -0.07353623 0.216229975 0.9735692
vn 0.450425625 -0.187585339 0.872885168
vn 0.44023928 0.125864863 0.88901484
vn 0.745585442 -0.285639435 -0.602090061
vn -0.377025247 -0.376205355 -0.846357763
vn 0.64472276 -0.04973069 -0.762797058
vn -0.377025247 -0.376205355 -0.846357763
vn -0.2701616 -0.9452653 -0.182992369
vn 0.836171567 -0.320143938 0.445336938
vn 0.190792531 -0.8691188 0.456323057
vn 0.793230355 -0.527193666 -0.304717034
vn 0.0246705431 -0.845684767 -0.5331122
vn -0.5527562 0.0439913981 -0.8321811
vn -0.9974973 0.0506465323 0.0493357
vn -0.326010078 -0.0119796945 0.9452904
vn -0.6854401 -0.152717635 0.7119334
vn -0.751981 -0.315947562 0.578534067
vn 0.45542255 -0.480256677 0.74962914
vn -0.351171941 0.389785171 0.85132
vn -0.8526436 -0.193211153 -0.485456765
vn -0.6854401 -0.152717635 0.7119334
vn -0.326010078 -0.0119796945 0.9452904
vn 0.0246705431 -0.845684767 -0.5331122
vn 0.190792531 -0.8691188 0.456323057
vn -0.2385536 -0.9160122 -0.3225117
vn -0.2701616 -0.9452653 -0.182992369
vn -0.351171941 0.389785171 0.85132
vn -0.9385411 -0.139195189 -0.315856367
vn -0.751981 -0.315947562 0.578534067
vn -0.2385536 -0.9160122 -0.3225117
vn 0.959780335 0.193378747 0.203534573
vn 0.9794293 -0.0301479157 0.199522838
vn 0.633017 -0.5242989 -0.5695613
vn -0.5527562 0.0439913981 -0.8321811
vn -0.368769079 -0.575793564 -0.729706168
vn -0.8089506 -0.113157265 0.5768833
vn -0.368769079 -0.575793564 -0.729706168
vn 0.1893145 -0.832609057 0.5205019
vn 0.1893145 -0.832609057 0.5205019
vn 0.793230355 -0.527193666 -0.304717034
vn 0.821428359 0.142275557 -0.552279949
vn 0.7958438 0.1154644 -0.594391048
vn 0.936581969 0.3425543 0.0739646
vn 0.9193705 0.380921036 0.09827066
vn 0.9021254 0.4158457 0.115074083
vn 0.911337435 0.393822432 0.11986652
vn 0.9035876 0.382897347 0.192143366
vn 0.9473922 0.2817847 0.151806742
vn 0.9462819 0.29981187 0.121092625
vn -0.43670702 -0.275173366 -0.856485
vn -0.790404141 -0.381445169 -0.479333818
vn -0.866940737 -0.474386126 -0.1528777
vn -0.954259157 -0.2987958 -0.0105158715
vn -0.9691632 -0.24092105 0.0517666154
vn -0.8193105 -0.449496418 -0.355925977
vn -0.9691632 -0.24092105 0.0517666154
vn -0.954259157 -0.2987958 -0.0105158715
vn -0.955813646 -0.209497541 -0.206230476
vn -0.596920133 -0.416938722 -0.6854549
vn -0.8812464 -0.449856043 0.1450323
vn -0.9317429 -0.334465057 -0.141379789
vn -0.9317429 -0.334465057 -0.141379789
vn -0.586134136 0.169610232 0.792262
vn -0.9924803 0.09517582 0.07697065
vn -0.98240453 0.165681317 0.08620347
vn -0.6718785 -0.01072766 -0.740583658
vn 0.242898941 -0.4533332 -0.8576066
vn 0.8845619 -0.44225508 -0.148191422
vn 0.8488616 -0.48147 0.218221635
vn -0.8419434 0.140743166 -0.5208865
vn -0.834868133 0.15743041 -0.527456939
vn 0.315224379 0.02115119 0.948781431
vn 0.157490432 0.212275743 0.964435458
vn 0.315224379 0.02115119 0.948781431
vn 0.157490432 0.212275743 0.964435458
vn -0.388584524 0.172037214 0.9052101
vn -0.425490379 -0.144961923 0.8932771
vn -0.7933248 -0.198585033 -0.575499535
vn -0.6718785 -0.01072766 -0.740583658
vn 0.2930063 -0.40059337 -0.868142962
vn 0.2930063 -0.40059337 -0.868142962
vn 0.170427352 -0.966986835 -0.189449266
vn -0.8431294 -0.23410596 0.4840736
vn -0.853462756 -0.4487474 -0.26500392
vn -0.2545444 -0.8435732 0.472854525
vn -0.130385965 -0.842305362 -0.5229925
vn 0.517462969 -0.0152195115 -0.855570257
vn 0.9988775 -0.0469983257 0.005905421
vn 0.364337534 -0.03832296 0.9304781
vn 0.697759748 -0.214946926 0.6833222
vn 0.742152 -0.3846862 0.5488415
vn 0.427881718 0.3490932 0.8336973
vn -0.4668737 -0.4289547 0.7733219
vn 0.8076546 -0.27861926 -0.5196781
vn 0.697759748 -0.214946926 0.6833222
vn 0.364337534 -0.03832296 0.9304781
vn -0.130385965 -0.842305362 -0.5229925
vn -0.2545444 -0.8435732 0.472854525
vn 0.133679867 -0.9368415 -0.323199123
vn 0.170427352 -0.966986835 -0.189449266
vn 0.427881718 0.3490932 0.8336973
vn 0.742152 -0.3846862 0.5488415
vn 0.901266754 -0.236255363 -0.3631826
vn 0.133679867 -0.9368415 -0.323199123
vn -0.935435951 0.2563299 0.243422538
vn -0.9682333 0.07039633 0.239934623
vn -0.7054753 -0.463105351 -0.536505461
vn 0.517462969 -0.0152195115 -0.855570257
vn 0.278531343 -0.613397539 -0.7390289
vn 0.8185126 -0.188462541 0.542696
vn 0.278531343 -0.613397539 -0.7390289
vn -0.246703774 -0.8070087 0.536539137
vn -0.246703774 -0.8070087 0.536539137
vn -0.853462756 -0.4487474 -0.26500392
vn -0.834868133 0.15743041 -0.527456939
vn -0.8419434 0.140743166 -0.5208865
vn -0.920266 0.372462869 0.119924784
vn -0.9006275 0.410350859 0.143116459
vn -0.881448865 0.444769859 0.158832058
vn -0.8910948 0.423068285 0.164205134
vn -0.880000055 0.4121664 0.236048192
vn -0.9290716 0.316746533 0.191043422
vn -0.928884149 0.3302227 0.16771172
vn 0.380511224 -0.2863741 -0.879318535
vn 0.8343736 -0.509471953 -0.210378289
vn 0.7438858 -0.403130531 -0.5330287
vn 0.9660815 -0.258237123 0.000288588053
vn 0.9453058 -0.3200448 -0.06299392
vn 0.7791003 -0.4804202 -0.402739555
vn 0.9453058 -0.3200448 -0.06299392
vn 0.9660815 -0.258237123 0.000288588053
vn 0.9405144 -0.236494437 -0.243932575
vn 0.5454275 -0.449933171 -0.7071556
vn 0.9065846 -0.37732324 -0.189027816
vn 0.8656563 -0.488300145 0.110463269
vn 0.9065846 -0.37732324 -0.189027816
usemtl 0002720013_part_0_material_0
f 1/1/1 2/2/2 3/3/3
f 4/4/4 5/5/5 6/6/6
f 7/7/7 6/6/6 5/5/5
f 8/8/8 6/6/6 9/9/9
f 10/10/10 7/7/7 5/5/5
f 5/5/5 11/11/11 10/10/10
f 12/12/12 13/13/13 1/1/1
f 13/13/13 14/14/14 15/15/15
f 16/16/16 17/17/17 18/18/18
f 4/4/4 19/19/19 5/5/5
f 20/20/20 5/5/5 19/19/19
f 21/21/21 22/22/22 23/23/23
f 24/24/24 23/23/23 22/22/22
f 25/25/25 26/26/26 19/19/19
f 20/20/20 19/19/19 26/26/26
f 21/21/21 27/27/27 22/22/22
f 28/28/28 22/22/22 27/27/27
f 29/29/29 30/30/30 31/31/31
f 14/14/14 31/31/31 30/30/30
f 32/32/32 33/33/33 26/26/26
f 34/34/34 26/26/26 33/33/33
f 32/32/32 35/35/35 33/33/33
f 36/36/36 33/33/33 35/35/35
f 37/37/37 38/38/38 30/30/30
f 14/14/14 30/30/30 38/38/38
f 39/39/39 40/40/40 41/41/41
f 30/30/30 29/29/29 37/37/37
f 14/14/14 13/13/13 31/31/31
f 5/5/5 40/40/40 11/11/11
f 39/39/39 11/11/11 40/40/40
f 40/40/40 5/5/5 20/20/20
f 41/41/41 40/40/40 42/42/42
f 20/20/20 42/42/42 40/40/40
f 18/18/18 43/43/43 16/16/16
f 44/44/44 16/16/16 43/43/43
f 23/23/23 45/45/45 44/44/44
f 16/16/16 44/44/44 45/45/45
f 16/16/16 45/45/45 17/17/17
f 46/46/46 17/17/17 45/45/45
f 44/44/44 15/15/15 21/21/21
f 27/27/27 21/21/21 15/15/15
f 47/47/47 48/48/48 25/25/25
f 26/26/26 25/25/25 48/48/48
f 26/26/26 34/34/34 20/20/20
f 38/38/38 27/27/27 15/15/15
f 45/45/45 49/49/49 46/46/46
f 21/21/21 23/23/23 44/44/44
f 43/43/43 15/15/15 44/44/44
f 49/49/49 45/45/45 50/50/50
f 23/23/23 50/50/50 45/45/45
f 47/47/47 51/51/51 48/48/48
f 48/48/48 51/51/51 26/26/26
f 52/52/52 26/26/26 51/51/51
f 32/32/32 26/26/26 35/35/35
f 52/52/52 35/35/35 26/26/26
f 15/15/15 14/14/14 38/38/38
f 2/2/2 1/1/1 43/43/43
f 13/13/13 15/15/15 43/43/43
f 2/2/2 43/43/43 18/18/18
f 53/53/53 3/3/3 54/54/54
f 1/1/1 13/13/13 43/43/43
f 54/54/54 3/3/3 2/2/2
f 54/54/54 2/2/2 18/18/18
f 4/4/4 6/6/6 8/8/8
f 55/55/55 56/56/56 53/53/53
f 53/53/53 54/54/54 55/55/55
f 57/57/57 58/58/58 56/56/56
f 56/56/56 59/59/59 57/57/57
f 60/60/60 61/61/61 54/54/54
f 54/54/54 18/18/18 60/60/60
f 56/56/56 55/55/55 59/59/59
f 62/62/62 63/63/63 64/64/64
f 62/62/62 65/65/65 66/66/66
f 67/67/67 68/68/68 69/69/69
f 69/69/69 70/70/70 67/67/67
f 71/71/71 72/72/72 73/73/73
f 71/71/71 70/70/70 67/67/67
f 72/72/72 63/63/63 64/64/64
f 64/64/64 74/74/74 72/72/72
f 70/70/70 71/71/71 73/73/73
f 65/65/65 62/62/62 64/64/64
f 75/75/75 76/76/76 77/77/77
f 78/78/78 79/79/79 80/80/80
f 81/81/81 80/80/80 79/79/79
f 82/82/82 83/83/83 79/79/79
f 84/84/84 85/85/85 80/80/80
f 80/80/80 81/81/81 84/84/84
f 86/86/86 75/75/75 87/87/87
f 87/87/87 88/88/88 89/89/89
f 90/90/90 91/91/91 92/92/92
f 78/78/78 80/80/80 93/93/93
f 94/94/94 93/93/93 80/80/80
f 95/95/95 96/96/96 97/97/97
f 98/98/98 97/97/97 96/96/96
f 99/99/99 93/93/93 100/100/100
f 94/94/94 100/100/100 93/93/93
f 95/95/95 97/97/97 101/101/101
f 102/102/102 101/101/101 97/97/97
f 103/103/103 104/104/104 105/105/105
f 89/89/89 105/105/105 104/104/104
f 106/106/106 100/100/100 107/107/107
f 108/108/108 107/107/107 100/100/100
f 106/106/106 107/107/107 109/109/109
f 110/110/110 109/109/109 107/107/107
f 111/111/111 105/105/105 112/112/112
f 89/89/89 112/112/112 105/105/105
f 113/113/113 114/114/114 115/115/115
f 105/105/105 111/111/111 103/103/103
f 89/89/89 104/104/104 87/87/87
f 80/80/80 85/85/85 115/115/115
f 113/113/113 115/115/115 85/85/85
f 115/115/115 94/94/94 80/80/80
f 114/114/114 116/116/116 115/115/115
f 94/94/94 115/115/115 116/116/116
f 91/91/91 90/90/90 117/117/117
f 118/118/118 117/117/117 90/90/90
f 96/96/96 118/118/118 119/119/119
f 90/90/90 119/119/119 118/118/118
f 90/90/90 92/92/92 119/119/119
f 120/120/120 119/119/119 92/92/92
f 118/118/118 95/95/95 88/88/88
f 101/101/101 88/88/88 95/95/95
f 121/121/121 99/99/99 122/122/122
f 100/100/100 122/122/122 99/99/99
f 100/100/100 94/94/94 108/108/108
f 112/112/112 88/88/88 101/101/101
f 119/119/119 120/120/120 123/123/123
f 95/95/95 118/118/118 96/96/96
f 117/117/117 118/118/118 88/88/88
f 123/123/123 124/124/124 119/119/119
f 96/96/96 119/119/119 124/124/124
f 121/121/121 122/122/122 125/125/125
f 122/122/122 100/100/100 125/125/125
f 126/126/126 125/125/125 100/100/100
f 106/106/106 109/109/109 100/100/100
f 126/126/126 100/100/100 109/109/109
f 88/88/88 112/112/112 89/89/89
f 75/75/75 117/117/117 87/87/87
f 87/87/87 117/117/117 88/88/88
f 77/77/77 91/91/91 117/117/117
f 127/127/127 128/128/128 76/76/76
f 75/75/75 77/77/77 117/117/117
f 128/128/128 77/77/77 76/76/76
f 128/128/128 91/91/91 77/77/77
f 78/78/78 82/82/82 79/79/79
f 129/129/129 127/127/127 130/130/130
f 127/127/127 129/129/129 128/128/128
f 131/131/131 130/130/130 132/132/132
f 130/130/130 131/131/131 133/133/133
f 134/134/134 128/128/128 135/135/135
f 128/128/128 134/134/134 91/91/91
f 130/130/130 133/133/133 129/129/129
f 136/136/136 137/137/137 138/138/138
f 136/136/136 139/139/139 140/140/140
f 141/141/141 142/142/142 143/143/143
f 142/142/142 141/141/141 144/144/144
f 145/145/145 146/146/146 147/147/147
f 145/145/145 141/141/141 144/144/144
f 147/147/147 137/137/137 138/138/138
f 137/137/137 147/147/147 148/148/148
f 144/144/144 146/146/146 145/145/145
f 140/140/140 137/137/137 136/136/136
