mtllib 0002113004.mtl
o 0002113004_part_0
v -0.204035833 0.282330036 -0.103849515
v -0.232839778 0.265441179 -0.0296232961
v -0.244427636 0.271286428 -0.0294772014
v -0.20901449 0.287346125 -0.12100254
v -0.2001415 0.273244023 0.03137628
v -0.20522058 0.275695622 0.0491379
v -0.110538781 0.263269 -0.0279869251
v -0.145320952 0.280677259 -0.111298867
v -0.134818122 0.285499454 -0.127150461
v -0.0938041 0.2680477 -0.029187981
v -0.147024587 0.269950628 0.0312553868
v -0.13587831 0.272426367 0.049344603
v -0.20901449 0.287346125 -0.12100254
v -0.244427636 0.271286428 -0.0294772014
v -0.245189369 0.370817065 -0.0253772028
v -0.20842126 0.386161447 -0.120480038
v -0.20522058 0.275695622 0.0491379
v -0.204763189 0.37392956 0.057268694
v -0.0938041 0.2680477 -0.029187981
v -0.134818122 0.285499454 -0.127150461
v -0.1308182 0.384296656 -0.126012176
v -0.0887292847 0.367293775 -0.0255638361
v -0.13587831 0.272426367 0.049344603
v -0.131626561 0.3707556 0.0575837567
v -0.0938041 0.2680477 -0.029187981
v -0.0887292847 0.367293775 -0.0255638361
v -0.20842126 0.386161447 -0.120480038
v -0.245189369 0.370817065 -0.0253772028
v -0.164683208 0.373650849 -0.03035811
v -0.204763189 0.37392956 0.057268694
v -0.0887292847 0.367293775 -0.0255638361
v -0.1308182 0.384296656 -0.126012176
v -0.131626561 0.3707556 0.0575837567
v -0.232760057 0.199608147 -0.0636835
v -0.232839778 0.265441179 -0.0296232961
v -0.204035833 0.282330036 -0.103849515
v -0.190140516 0.208879828 -0.119830742
v -0.242509067 0.156697035 0.0121629322
v -0.2001415 0.273244023 0.03137628
v -0.121283352 0.207599521 -0.09583512
v -0.145320952 0.280677259 -0.111298867
v -0.110538781 0.263269 -0.0279869251
v -0.117040664 0.190878749 -0.0291877277
v -0.190140516 0.208879828 -0.119830742
v -0.204035833 0.282330036 -0.103849515
v -0.145320952 0.280677259 -0.111298867
v -0.121283352 0.207599521 -0.09583512
v -0.16045177 0.161364079 0.0461773723
v -0.147024587 0.269950628 0.0312553868
v -0.192081049 0.04171014 -0.168504953
v -0.2470789 0.03722 -0.0534920432
v -0.138122454 0.0460688472 -0.0141891874
v -0.08805795 0.05031848 -0.135224313
v -0.192081049 0.04171014 -0.168504953
v -0.135604486 0.102290869 -0.153703347
v -0.2149537 0.08355737 0.208880231
v -0.274104536 0.0872187 0.186852857
v -0.315663069 0.0365245342 0.20066075
v -0.203109756 0.03319502 0.24638097
v -0.322791666 0.034235 0.0580106527
v -0.2470789 0.03722 -0.0534920432
v -0.138122454 0.0460688472 -0.0141891874
v -0.146106556 0.04306686 0.115126394
v -0.280921727 0.09202194 0.0996145159
v -0.322791666 0.034235 0.0580106527
v -0.174907714 0.102436543 0.132496983
v -0.146106556 0.04306686 0.115126394
v -0.08805795 0.05031848 -0.135224313
v -0.192081049 0.04171014 -0.168504953
v -0.315663069 0.0365245342 0.20066075
v -0.203109756 0.03319502 0.24638097
v -0.08805795 0.05031848 -0.135224313
v 0.185946792 0.281218529 -0.110796891
v 0.190602422 0.2862329 -0.1280409
v 0.227870733 0.269293785 -0.03741513
v 0.216199547 0.263615727 -0.03731667
v 0.190545008 0.27394253 0.0420968
v 0.185025021 0.271636546 0.0244475938
v 0.0939496756 0.2631883 -0.0328764543
v 0.07726245 0.268211 -0.0336743928
v 0.11626564 0.285473943 -0.132487848
v 0.127058759 0.2804371 -0.116900206
v 0.121185817 0.2716657 0.0438857675
v 0.131877378 0.2691046 0.0255358443
v 0.190602422 0.2862329 -0.1280409
v 0.191445217 0.385043621 -0.1271336
v 0.23016037 0.368785739 -0.0329597667
v 0.227870733 0.269293785 -0.03741513
v 0.191689745 0.372138917 0.0506050251
v 0.190545008 0.27394253 0.0420968
v 0.07726245 0.268211 -0.0336743928
v 0.0737026557 0.367503881 -0.029561609
v 0.113716856 0.3843128 -0.130886659
v 0.11626564 0.285473943 -0.132487848
v 0.118541457 0.37001127 0.0525899343
v 0.121185817 0.2716657 0.0438857675
v 0.0737026557 0.367503881 -0.029561609
v 0.07726245 0.268211 -0.0336743928
v 0.191445217 0.385043621 -0.1271336
v 0.149610326 0.3727923 -0.0360773429
v 0.23016037 0.368785739 -0.0329597667
v 0.191689745 0.372138917 0.0506050251
v 0.0737026557 0.367503881 -0.029561609
v 0.113716856 0.3843128 -0.130886659
v 0.118541457 0.37001127 0.0525899343
v 0.213956058 0.198520958 -0.07254322
v 0.17041266 0.208097219 -0.127925247
v 0.185946792 0.281218529 -0.110796891
v 0.216199547 0.263615727 -0.03731667
v 0.224747 0.155537248 0.00312080048
v 0.185025021 0.271636546 0.0244475938
v 0.101985186 0.207302153 -0.102710418
v 0.09880874 0.1906076 -0.03599714
v 0.0939496756 0.2631883 -0.0328764543
v 0.127058759 0.2804371 -0.116900206
v 0.17041266 0.208097219 -0.127925247
v 0.101985186 0.207302153 -0.102710418
v 0.127058759 0.2804371 -0.116900206
v 0.185946792 0.281218529 -0.110796891
v 0.14334178 0.160782039 0.0385869369
v 0.131877378 0.2691046 0.0255358443
v 0.227305427 0.03603506 -0.06259749
v 0.170306727 0.04092121 -0.176615775
v 0.06695455 0.05026245 -0.141493455
v 0.119129449 0.0456513166 -0.02136631
v 0.170306727 0.04092121 -0.176615775
v 0.114531577 0.101898551 -0.160817266
v 0.200155228 0.08313793 0.200572491
v 0.188623473 0.0328581333 0.2382808
v 0.300367773 0.035394907 0.190568626
v 0.258929968 0.08638245 0.177497819
v 0.3049581 0.03267467 0.04762456
v 0.129382089 0.04275179 0.1078687
v 0.119129449 0.0456513166 -0.02136631
v 0.227305427 0.03603506 -0.06259749
v 0.26423046 0.09114301 0.0901518762
v 0.3049581 0.03267467 0.04762456
v 0.129382089 0.04275179 0.1078687
v 0.158893436 0.102304518 0.124911316
v 0.06695455 0.05026245 -0.141493455
v 0.170306727 0.04092121 -0.176615775
v 0.300367773 0.035394907 0.190568626
v 0.188623473 0.0328581333 0.2382808
v 0.06695455 0.05026245 -0.141493455
vt 0.9490774 0.7342676
vt 0.9773574 0.654566646
vt 0.988728344 0.6541566
vt 0.95452 0.752216458
vt 0.9394176 0.5925445
vt 0.9435422 0.5738421
vt 0.850263536 0.658211231
vt 0.8885384 0.7446068
vt 0.877829432 0.7618756
vt 0.832352757 0.660426557
vt 0.884533465 0.594893157
vt 0.8717551 0.576572537
vt 0.5845854 0.9402652
vt 0.697828352 0.9459482
vt 0.693027258 0.826443136
vt 0.5754622 0.821764469
vt 0.790122151 0.939020455
vt 0.7902394 0.8204863
vt 0.383313835 0.9874673
vt 0.495795667 0.949110746
vt 0.482586533 0.831186
vt 0.367218167 0.8701179
vt 0.873814762 0.9423457
vt 0.878486454 0.8239847
vt 0.9689554 0.9641132
vt 0.9792944 0.846117139
vt 0.751259744 0.459231973
vt 0.8381875 0.37085247
vt 0.8717535 0.461840868
vt 0.9490368 0.375671029
vt 0.9137767 0.5418129
vt 0.7827464 0.54663676
vt 0.984793961 0.45517385
vt 0.476135939 0.5403246
vt 0.564379 0.50528723
vt 0.63176465 0.767287
vt 0.5541446 0.781185031
vt 0.377303541 0.448380828
vt 0.557305455 0.4666983
vt 0.9100175 0.270854473
vt 0.9081741 0.3405903
vt 0.7152934 0.37149334
vt 0.6868654 0.290272355
vt 0.0386602059 0.74015373
vt 0.05289881 0.619325042
vt 0.141664058 0.6084046
vt 0.169482455 0.718765557
vt 0.54291296 0.286122084
vt 0.595594943 0.412547529
vt 0.286766768 0.877584
vt 0.147384167 0.5180201
vt 0.599959135 0.04481405
vt 0.9147505 0.0334686637
vt 0.03995046 0.9795172
vt 0.133069366 0.8769254
vt 0.23630327 0.125649273
vt 0.1809803 0.235173464
vt 0.0572795346 0.209587336
vt 0.104565069 0.05615145
vt 0.636542 0.6864869
vt 0.626642466 0.560084641
vt 0.730655432 0.523646653
vt 0.8020076 0.6247743
vt 0.210108846 0.319386721
vt 0.08798375 0.354278922
vt 0.413244367 0.154918909
vt 0.461501539 0.025990665
vt 0.6952654 0.404458046
vt 0.5984899 0.44237864
vt 0.72088325 0.788401067
vt 0.8325316 0.7596103
vt 0.233990908 0.932937264
vt 0.9490774 0.7342676
vt 0.95452 0.752216458
vt 0.988728344 0.6541566
vt 0.9773574 0.654566646
vt 0.9435422 0.5738421
vt 0.9394176 0.5925445
vt 0.850263536 0.658211231
vt 0.832352757 0.660426557
vt 0.877829432 0.7618756
vt 0.8885384 0.7446068
vt 0.8717551 0.576572537
vt 0.884533465 0.594893157
vt 0.5845854 0.9402652
vt 0.5754622 0.821764469
vt 0.693027258 0.826443136
vt 0.697828352 0.9459482
vt 0.7902394 0.8204863
vt 0.790122151 0.939020455
vt 0.383313835 0.9874673
vt 0.367218167 0.8701179
vt 0.482586533 0.831186
vt 0.495795667 0.949110746
vt 0.878486454 0.8239847
vt 0.873814762 0.9423457
vt 0.9792944 0.846117139
vt 0.9689554 0.9641132
vt 0.751259744 0.459231973
vt 0.8717535 0.461840868
vt 0.8381875 0.37085247
vt 0.9490368 0.375671029
vt 0.9137767 0.5418129
vt 0.7827464 0.54663676
vt 0.984793961 0.45517385
vt 0.476135939 0.5403246
vt 0.5541446 0.781185031
vt 0.63176465 0.767287
vt 0.564379 0.50528723
vt 0.377303541 0.448380828
vt 0.557305455 0.4666983
vt 0.9100175 0.270854473
vt 0.6868654 0.290272355
vt 0.7152934 0.37149334
vt 0.9081741 0.3405903
vt 0.0386602059 0.74015373
vt 0.169482455 0.718765557
vt 0.141664058 0.6084046
vt 0.05289881 0.619325042
vt 0.54291296 0.286122084
vt 0.595594943 0.412547529
vt 0.147384167 0.5180201
vt 0.286766768 0.877584
vt 0.9147505 0.0334686637
vt 0.599959135 0.04481405
vt 0.03995046 0.9795172
vt 0.133069366 0.8769254
vt 0.23630327 0.125649273
vt 0.104565069 0.05615145
vt 0.0572795346 0.209587336
vt 0.1809803 0.235173464
vt 0.636542 0.6864869
vt 0.8020076 0.6247743
vt 0.730655432 0.523646653
vt 0.626642466 0.560084641
vt 0.210108846 0.319386721
vt 0.08798375 0.354278922
vt 0.461501539 0.025990665
vt 0.413244367 0.154918909
vt 0.6952654 0.404458046
vt 0.5984899 0.44237864
vt 0.72088325 0.788401067
vt 0.8325316 0.7596103
vt 0.233990908 0.932937264
vn -0.132302821 -0.9590903 -0.250283331
vn -0.433599174 -0.900194168 -0.0405241027
vn -0.436147332 -0.8980862 -0.0567157269
vn -0.09302359 -0.9608008 -0.261167258
vn -0.0283997357 -0.990820467 0.132167727
vn -0.0641980842 -0.9884758 0.137092024
vn 0.269801825 -0.962516844 0.0277191009
vn 0.0160194524 -0.960691869 -0.277154356
vn 0.03258316 -0.9586187 -0.28282252
vn 0.250587046 -0.967057467 -0.0447885357
vn 0.0132901585 -0.98980993 0.141773343
vn 0.006940912 -0.992 0.126046851
vn -0.620345533 0.007922976 -0.7842886
vn -0.998594761 -0.0119547592 0.0516294353
vn -0.9992149 -0.009279547 0.0385167375
vn -0.574558735 0.0109191611 -0.818390548
vn -0.5412306 -0.06711274 0.8381917
vn -0.5178636 -0.06594427 0.852917731
vn 0.9971057 -0.0529715046 0.0545367859
vn 0.5413498 -0.0153221972 -0.84065783
vn 0.498587579 -0.010205457 -0.866779268
vn 0.99783 -0.0565268844 0.0337640643
vn 0.5277368 -0.08874154 0.844759643
vn 0.498086274 -0.0935089 0.862070858
vn 0.9971057 -0.0529715046 0.0545367859
vn 0.99783 -0.0565268844 0.0337640643
vn 0.008967296 0.9910455 0.1332235
vn -0.0311658457 0.997478366 0.0637625158
vn 0.0290594921 0.9970592 0.07091116
vn 0.008592564 0.9999628 0.000749643252
vn 0.0789863542 0.9945913 0.0674485
vn 0.04858359 0.990653753 0.127455026
vn 0.0597094744 0.998161435 0.0104173124
vn -0.938060343 0.08847191 -0.334985763
vn -0.9831938 0.180513844 0.027289737
vn -0.6039101 0.143372685 -0.7840516
vn -0.3423846 0.178347424 -0.9224776
vn -0.897103369 0.342756331 0.278789639
vn -0.4721025 0.159234256 0.8670431
vn 0.8173957 0.195754692 -0.5417974
vn 0.4522786 0.142278045 -0.880455
vn 0.987332642 -0.00221980759 0.158648565
vn 0.9617196 -0.0234969854 0.273026377
vn -0.3423846 0.178347424 -0.9224776
vn -0.6039101 0.143372685 -0.7840516
vn 0.4522786 0.142278045 -0.880455
vn 0.8173957 0.195754692 -0.5417974
vn 0.5314854 0.282301217 0.798642159
vn 0.5243436 0.0371564366 0.85069567
vn -0.328520358 -0.5429179 -0.772861242
vn -0.6791748 -0.68402 -0.266154617
vn 0.665781736 -0.715508163 0.211619318
vn 0.7863786 -0.491169184 -0.374648452
vn -0.328520358 -0.5429179 -0.772861242
vn 0.314448178 0.233405992 -0.9201326
vn 0.16241467 0.7866005 0.595719039
vn -0.374218166 0.833540261 0.4064128
vn -0.7774088 -0.346646875 0.5248538
vn 0.3127623 -0.382344842 0.8694781
vn -0.873105764 -0.375727117 -0.310669363
vn -0.6791748 -0.68402 -0.266154617
vn 0.665781736 -0.715508163 0.211619318
vn 0.852461159 -0.496731073 0.162997514
vn -0.6242248 0.778840065 0.0612498075
vn -0.873105764 -0.375727117 -0.310669363
vn 0.5359497 0.739477 0.407347172
vn 0.852461159 -0.496731073 0.162997514
vn 0.7863786 -0.491169184 -0.374648452
vn -0.328520358 -0.5429179 -0.772861242
vn -0.7774088 -0.346646875 0.5248538
vn 0.3127623 -0.382344842 0.8694781
vn 0.7863786 -0.491169184 -0.374648452
vn 0.112693384 -0.9598553 -0.256861776
vn 0.0731543154 -0.9609588 -0.266845852
vn 0.421744317 -0.9040006 -0.07010475
vn 0.41953817 -0.906138 -0.0538668
vn 0.05307623 -0.989845932 0.13186349
vn 0.01714423 -0.991657555 0.127754912
vn -0.282936931 -0.9586598 0.0302996971
vn -0.265457839 -0.963178754 -0.04264743
vn -0.0528715551 -0.9568899 -0.285598069
vn -0.036213655 -0.9592232 -0.280320138
vn -0.01834019 -0.992306054 0.122443356
vn -0.0242949016 -0.9900896 0.138319761
vn 0.6022406 0.00224525481 -0.7983115
vn 0.555731535 0.00603611348 -0.8313399
vn 0.999598 -0.02374355 0.01549339
vn 0.9992404 -0.0264631715 0.0286067426
vn 0.5362891 -0.07683847 0.8405295
vn 0.5592929 -0.07828117 0.8252657
vn -0.996251941 -0.0389112569 0.07725247
vn -0.997503757 -0.04237092 0.05648876
vn -0.5184353 0.000477768161 -0.8551167
vn -0.560656369 -0.004132876 -0.8280382
vn -0.479475051 -0.08989022 0.8729395
vn -0.509443045 -0.0846281052 0.8563328
vn -0.997503757 -0.04237092 0.05648876
vn -0.996251941 -0.0389112569 0.07725247
vn 0.008371739 0.9905194 0.137117431
vn -0.0130558368 0.997074962 0.0753065944
vn 0.0469894819 0.9966609 0.066776596
vn 0.00583612639 0.9999719 0.004704381
vn -0.0630794838 0.9953363 0.07298362
vn -0.03136804 0.9907186 0.132260054
vn -0.0450662673 0.998863161 0.0155380191
vn 0.931544065 0.07860274 -0.3550314
vn 0.323955566 0.1844854 -0.9279105
vn 0.591177642 0.147059619 -0.7930211
vn 0.9865896 0.16308023 0.00676563336
vn 0.9068091 0.331212223 0.26075992
vn 0.493319184 0.139639392 0.8585668
vn -0.8235085 0.213712409 -0.52551
vn -0.9571898 -0.012291518 0.289199919
vn -0.9823852 0.0134702157 0.186380908
vn -0.471030742 0.170702308 -0.8654425
vn 0.323955566 0.1844854 -0.9279105
vn -0.8235085 0.213712409 -0.52551
vn -0.471030742 0.170702308 -0.8654425
vn 0.591177642 0.147059619 -0.7930211
vn -0.5194291 0.2826932 0.806398153
vn -0.5019128 0.03505735 0.864207447
vn 0.669466138 -0.688968062 -0.277737468
vn 0.310896784 -0.545177162 -0.7785404
vn -0.796360552 -0.4855747 -0.360592663
vn -0.66666013 -0.711019337 0.223641932
vn 0.310896784 -0.545177162 -0.7785404
vn -0.329082668 0.2356807 -0.9144174
vn -0.146245241 0.7876909 0.5984609
vn -0.299781978 -0.379172325 0.8754194
vn 0.7841559 -0.3509685 0.511781752
vn 0.38726005 0.830848157 0.39965108
vn 0.864567161 -0.38309896 -0.325205743
vn -0.8519426 -0.492274851 0.178491563
vn -0.66666013 -0.711019337 0.223641932
vn 0.669466138 -0.688968062 -0.277737468
vn 0.630588353 0.774572849 0.04894116
vn 0.864567161 -0.38309896 -0.325205743
vn -0.8519426 -0.492274851 0.178491563
vn -0.5241435 0.7436147 0.4151033
vn -0.796360552 -0.4855747 -0.360592663
vn 0.310896784 -0.545177162 -0.7785404
vn 0.7841559 -0.3509685 0.511781752
vn -0.299781978 -0.379172325 0.8754194
vn -0.796360552 -0.4855747 -0.360592663
usemtl 0002113004_part_0_material_0
f 1/1/1 2/2/2 3/3/3
f 3/3/3 4/4/4 1/1/1
f 2/2/2 5/5/5 6/6/6
f 6/6/6 3/3/3 2/2/2
f 7/7/7 8/8/8 9/9/9
f 9/9/9 10/10/10 7/7/7
f 8/8/8 1/1/1 4/4/4
f 4/4/4 9/9/9 8/8/8
f 5/5/5 11/11/11 12/12/12
f 12/12/12 6/6/6 5/5/5
f 11/11/11 7/7/7 10/10/10
f 10/10/10 12/12/12 11/11/11
f 13/13/13 14/14/14 15/15/15
f 15/15/15 16/16/16 13/13/13
f 14/14/14 17/17/17 18/18/18
f 18/18/18 15/15/15 14/14/14
f 19/19/19 20/20/20 21/21/21
f 21/21/21 22/22/22 19/19/19
f 20/20/20 13/13/13 16/16/16
f 16/16/16 21/21/21 20/20/20
f 17/17/17 23/23/23 24/24/24
f 24/24/24 18/18/18 17/17/17
f 23/23/23 25/25/25 26/26/26
f 26/26/26 24/24/24 23/23/23
f 27/27/27 28/28/28 29/29/29
f 28/28/28 30/30/30 29/29/29
f 31/31/31 32/32/32 29/29/29
f 32/32/32 27/27/27 29/29/29
f 30/30/30 33/33/33 29/29/29
f 33/33/33 31/31/31 29/29/29
f 34/34/34 35/35/35 36/36/36
f 36/36/36 37/37/37 34/34/34
f 38/38/38 39/39/39 35/35/35
f 35/35/35 34/34/34 38/38/38
f 40/40/40 41/41/41 42/42/42
f 42/42/42 43/43/43 40/40/40
f 44/44/44 45/45/45 46/46/46
f 46/46/46 47/47/47 44/44/44
f 48/48/48 49/49/49 39/39/39
f 39/39/39 38/38/38 48/48/48
f 43/43/43 42/42/42 49/49/49
f 49/49/49 48/48/48 43/43/43
f 34/34/34 37/37/37 50/50/50
f 50/50/50 51/51/51 34/34/34
f 43/43/43 52/52/52 53/53/53
f 53/53/53 40/40/40 43/43/43
f 54/54/54 44/44/44 55/55/55
f 56/56/56 57/57/57 58/58/58
f 58/58/58 59/59/59 56/56/56
f 43/43/43 48/48/48 52/52/52
f 60/60/60 61/61/61 62/62/62
f 62/62/62 63/63/63 60/60/60
f 64/64/64 38/38/38 51/51/51
f 51/51/51 65/65/65 64/64/64
f 52/52/52 48/48/48 66/66/66
f 66/66/66 67/67/67 52/52/52
f 66/66/66 48/48/48 38/38/38
f 38/38/38 64/64/64 66/66/66
f 68/68/68 62/62/62 61/61/61
f 61/61/61 69/69/69 68/68/68
f 70/70/70 60/60/60 63/63/63
f 63/63/63 71/71/71 70/70/70
f 66/66/66 56/56/56 59/59/59
f 59/59/59 67/67/67 66/66/66
f 56/56/56 66/66/66 64/64/64
f 64/64/64 57/57/57 56/56/56
f 64/64/64 65/65/65 58/58/58
f 58/58/58 57/57/57 64/64/64
f 38/38/38 34/34/34 51/51/51
f 44/44/44 47/47/47 55/55/55
f 47/47/47 72/72/72 55/55/55
f 55/55/55 72/72/72 54/54/54
f 73/73/73 74/74/74 75/75/75
f 75/75/75 76/76/76 73/73/73
f 76/76/76 75/75/75 77/77/77
f 77/77/77 78/78/78 76/76/76
f 79/79/79 80/80/80 81/81/81
f 81/81/81 82/82/82 79/79/79
f 82/82/82 81/81/81 74/74/74
f 74/74/74 73/73/73 82/82/82
f 78/78/78 77/77/77 83/83/83
f 83/83/83 84/84/84 78/78/78
f 84/84/84 83/83/83 80/80/80
f 80/80/80 79/79/79 84/84/84
f 85/85/85 86/86/86 87/87/87
f 87/87/87 88/88/88 85/85/85
f 88/88/88 87/87/87 89/89/89
f 89/89/89 90/90/90 88/88/88
f 91/91/91 92/92/92 93/93/93
f 93/93/93 94/94/94 91/91/91
f 94/94/94 93/93/93 86/86/86
f 86/86/86 85/85/85 94/94/94
f 90/90/90 89/89/89 95/95/95
f 95/95/95 96/96/96 90/90/90
f 96/96/96 95/95/95 97/97/97
f 97/97/97 98/98/98 96/96/96
f 99/99/99 100/100/100 101/101/101
f 101/101/101 100/100/100 102/102/102
f 103/103/103 100/100/100 104/104/104
f 104/104/104 100/100/100 99/99/99
f 102/102/102 100/100/100 105/105/105
f 105/105/105 100/100/100 103/103/103
f 106/106/106 107/107/107 108/108/108
f 108/108/108 109/109/109 106/106/106
f 110/110/110 106/106/106 109/109/109
f 109/109/109 111/111/111 110/110/110
f 112/112/112 113/113/113 114/114/114
f 114/114/114 115/115/115 112/112/112
f 116/116/116 117/117/117 118/118/118
f 118/118/118 119/119/119 116/116/116
f 120/120/120 110/110/110 111/111/111
f 111/111/111 121/121/121 120/120/120
f 113/113/113 120/120/120 121/121/121
f 121/121/121 114/114/114 113/113/113
f 106/106/106 122/122/122 123/123/123
f 123/123/123 107/107/107 106/106/106
f 113/113/113 112/112/112 124/124/124
f 124/124/124 125/125/125 113/113/113
f 126/126/126 127/127/127 116/116/116
f 128/128/128 129/129/129 130/130/130
f 130/130/130 131/131/131 128/128/128
f 113/113/113 125/125/125 120/120/120
f 132/132/132 133/133/133 134/134/134
f 134/134/134 135/135/135 132/132/132
f 136/136/136 137/137/137 122/122/122
f 122/122/122 110/110/110 136/136/136
f 125/125/125 138/138/138 139/139/139
f 139/139/139 120/120/120 125/125/125
f 139/139/139 136/136/136 110/110/110
f 110/110/110 120/120/120 139/139/139
f 140/140/140 141/141/141 135/135/135
f 135/135/135 134/134/134 140/140/140
f 142/142/142 143/143/143 133/133/133
f 133/133/133 132/132/132 142/142/142
f 139/139/139 138/138/138 129/129/129
f 129/129/129 128/128/128 139/139/139
f 128/128/128 131/131/131 136/136/136
f 136/136/136 139/139/139 128/128/128
f 136/136/136 131/131/131 130/130/130
f 130/130/130 137/137/137 136/136/136
f 110/110/110 122/122/122 106/106/106
f 116/116/116 127/127/127 117/117/117
f 117/117/117 127/127/127 144/144/144
f 127/127/127 126/126/126 144/144/144
