mtllib 0002420003.mtl
o 0002420003_part_0
v 0.369458437 1.124714 -0.02529047
v 0.400445968 0.980597258 -0.00535053574
v 0.345839083 0.988722146 0.0360467769
v 0.416076362 0.9619377 -0.1573504
v 0.3399692 1.08953869 -0.173006073
v 0.3582637 0.956297338 -0.169200331
v 0.2803952 1.09088421 -0.0824362
v 0.333293617 0.9758001 -0.010575233
v 0.4108303 0.9054526 -0.00547831133
v 0.411014944 0.903497756 -0.05057674
v 0.337858081 0.774762034 0.005634518
v 0.334928185 0.7731572 -0.02026034
v 0.3388931 0.9035249 -0.156516209
v 0.366527438 0.9103383 -0.0501137972
v 0.361637235 0.913439 0.00208992418
v 0.3082137 0.792002261 0.0104125822
v 0.2394511 0.900979638 0.0494140834
v 0.292465568 0.9920948 0.0434600674
v 0.2754983 0.8901988 0.05563933
v 0.311726481 0.783462 -0.027355263
v 0.3082137 0.792002261 0.0104125822
v 0.361637235 0.913439 0.00208992418
v 0.334928185 0.7731572 -0.02026034
v 0.337858081 0.774762034 0.005634518
v 0.2507182 0.8872901 0.02599915
v 0.333293617 0.9758001 -0.010575233
v 0.292465568 0.9920948 0.0434600674
v 0.2394511 0.900979638 0.0494140834
v 0.27024278 0.980492 -0.0213201586
v 0.32032305 1.11447346 -0.0030998725
v 0.32032305 1.11447346 -0.0030998725
v 0.2507182 0.8872901 0.02599915
v 0.3888457 1.10626364 -0.150917456
v 0.4159581 1.13056791 -0.08388649
v 0.4451497 0.974205256 -0.06050145
v 0.392551452 0.8981308 -0.144407749
v 0.293235 0.7960639 -0.13627319
v 0.279013038 0.8076962 -0.06048339
v 0.302277327 0.7932584 -0.0640666261
v 0.302277327 0.7932584 -0.0640666261
v 0.411014944 0.903497756 -0.05057674
v 0.217984647 1.1638 -0.09954056
v 0.284584582 1.17045653 -0.191997573
v 0.2784147 1.20625961 0.02590616
v 0.374145657 1.20123863 -0.21406953
v 0.352496475 1.2307117 -0.007041816
v 0.2784147 1.20625961 0.02590616
v 0.4237283 1.24725807 -0.107815273
v -0.383933485 1.13309193 -0.009664821
v -0.426229715 0.9929124 0.012876397
v -0.369331539 0.9958922 0.0518043675
v -0.450242817 0.974985 -0.1381151
v -0.3633315 1.0960114 -0.1584422
v -0.393830776 0.9636407 -0.152381167
v -0.29915598 1.09417665 -0.0708582
v -0.360159159 0.9815313 0.00481911143
v -0.443893224 0.9191466 0.0139538888
v -0.446241081 0.916955531 -0.0310729016
v -0.3836071 0.782004952 0.0232394319
v -0.381983668 0.7799695 -0.002739908
v -0.379166156 0.90929985 -0.140009031
v -0.4013209 0.9194089 -0.03259148
v -0.393871754 0.922320962 0.0193198547
v -0.352241129 0.796286762 0.0265646521
v -0.271531433 0.8982321 0.0614723228
v -0.315610617 0.9940648 0.0568824671
v -0.308151484 0.89107 0.0693495944
v -0.358219922 0.7879109 -0.0109291505
v -0.352241129 0.796286762 0.0265646521
v -0.393871754 0.922320962 0.0193198547
v -0.381983668 0.7799695 -0.002739908
v -0.3836071 0.782004952 0.0232394319
v -0.2850944 0.885575235 0.03870268
v -0.360159159 0.9815313 0.00481911143
v -0.315610617 0.9940648 0.0568824671
v -0.271531433 0.8982321 0.0614723228
v -0.2974824 0.9799629 -0.008672532
v -0.333950877 1.12028193 0.0101548349
v -0.333950877 1.12028193 0.0101548349
v -0.2850944 0.885575235 0.03870268
v -0.41009292 1.11523151 -0.134108528
v -0.4330799 1.14075863 -0.06590981
v -0.473714054 0.9906069 -0.0402349234
v -0.4325132 0.90925765 -0.12555176
v -0.3433709 0.79800427 -0.120662861
v -0.324778825 0.808630764 -0.0456756726
v -0.3494754 0.796520054 -0.0481097549
v -0.3494754 0.796520054 -0.0481097549
v -0.446241081 0.916955531 -0.0310729016
v -0.235644519 1.16697884 -0.0917222947
v -0.306651324 1.17541468 -0.180688739
v -0.2881943 1.211798 0.03642314
v -0.3962081 1.20895147 -0.198316857
v -0.363057345 1.23847544 0.00717566535
v -0.2881943 1.211798 0.03642314
v -0.438801229 1.2569133 -0.08991169
vt 0.166375577 0.7141854
vt 0.189733922 0.4892673
vt 0.09554926 0.479716778
vt 0.484662771 0.4931184
vt 0.5671715 0.6935254
vt 0.5604361 0.4823761
vt 0.786271036 0.686081946
vt 0.8400822 0.4605009
vt 0.209854409 0.3166092
vt 0.2889624 0.3218447
vt 0.2141251 0.01789707
vt 0.27607587 0.0190718174
vt 0.5474162 0.332861662
vt 0.7455168 0.3351425
vt 0.156683832 0.3141575
vt 0.165868118 0.0185116529
vt 0.0242181122 0.223569691
vt 0.0254750177 0.4781475
vt 0.07553973 0.255565
vt 0.8092741 0.08484411
vt 0.88389045 0.08724749
vt 0.8518744 0.3299759
vt 0.7851077 0.048024416
vt 0.8861489 0.0516291261
vt 0.134178743 0.210097253
vt 0.143432885 0.4095267
vt 0.973674834 0.4782083
vt 0.982634366 0.272563934
vt 0.8956139 0.476659775
vt 0.05279779 0.6995118
vt 0.9162121 0.6937252
vt 0.905220151 0.251407146
vt 0.469715327 0.7138563
vt 0.3102109 0.722138941
vt 0.301735669 0.492331743
vt 0.467780679 0.333223581
vt 0.4919074 0.0383740664
vt 0.698069453 0.09107661
vt 0.317927122 0.0384606719
vt 0.725322664 0.05512947
vt 0.7509242 0.182486117
vt 0.7847383 0.907279432
vt 0.5720105 0.907279432
vt 0.911727548 0.907279432
vt 0.46959877 0.907279432
vt 0.150506809 0.907279432
vt 0.0449894369 0.907279432
vt 0.31415835 0.907279432
vt 0.166375577 0.7141854
vt 0.189733922 0.4892673
vt 0.09554926 0.479716778
vt 0.484662771 0.4931184
vt 0.5671715 0.6935254
vt 0.5604361 0.4823761
vt 0.786271036 0.686081946
vt 0.8400822 0.4605009
vt 0.209854409 0.3166092
vt 0.2889624 0.3218447
vt 0.2141251 0.01789707
vt 0.27607587 0.0190718174
vt 0.5474162 0.332861662
vt 0.7455168 0.3351425
vt 0.156683832 0.3141575
vt 0.165868118 0.0185116529
vt 0.0242181122 0.223569691
vt 0.0254750177 0.4781475
vt 0.07553973 0.255565
vt 0.8092741 0.08484411
vt 0.88389045 0.08724749
vt 0.8518744 0.3299759
vt 0.7851077 0.048024416
vt 0.8861489 0.0516291261
vt 0.134178743 0.210097253
vt 0.143432885 0.4095267
vt 0.973674834 0.4782083
vt 0.982634366 0.272563934
vt 0.8956139 0.476659775
vt 0.05279779 0.6995118
vt 0.9162121 0.6937252
vt 0.905220151 0.251407146
vt 0.469715327 0.7138563
vt 0.3102109 0.722138941
vt 0.301735669 0.492331743
vt 0.467780679 0.333223581
vt 0.4919074 0.0383740664
vt 0.698069453 0.09107661
vt 0.317927122 0.0384606719
vt 0.725322664 0.05512947
vt 0.7509242 0.182486117
vt 0.7847383 0.907279432
vt 0.5720105 0.907279432
vt 0.911727548 0.907279432
vt 0.46959877 0.907279432
vt 0.150506809 0.907279432
vt 0.0449894369 0.907279432
vt 0.31415835 0.907279432
vn -0.625532031 -0.122524247 -0.770517647
vn -0.5677927 -0.0582803562 -0.8211059
vn -0.5262044 0.2094771 -0.824153066
vn -0.7097259 0.124555767 0.6933794
vn 0.184889182 0.159592718 0.969714463
vn 0.4717829 0.200924978 0.8585162
vn 0.906017 0.421007633 0.0434248336
vn 0.240330473 0.957084239 0.161959976
vn -0.717505932 0.235881567 -0.655396938
vn -0.825693 0.5569896 0.0894072
vn -0.284388363 0.773289859 -0.566697538
vn -0.22780633 0.877856135 0.421275347
vn 0.6302117 -0.176175863 0.756171465
vn 0.9982878 0.0375641249 -0.04483719
vn 0.5531859 -0.0417197645 -0.832012534
vn 0.7497801 0.1909722 -0.6335293
vn 0.8427745 0.209975854 -0.495622158
vn 0.428379685 -0.368400842 -0.825088859
vn -0.339212984 0.718504548 -0.607195
vn 0.6779832 0.4298466 0.596297443
vn 0.7497801 0.1909722 -0.6335293
vn 0.5531859 -0.0417197645 -0.832012534
vn -0.22780633 0.877856135 0.421275347
vn -0.284388363 0.773289859 -0.566697538
vn 0.360951781 0.811802149 0.459011
vn 0.240330473 0.957084239 0.161959976
vn 0.428379685 -0.368400842 -0.825088859
vn 0.8427745 0.209975854 -0.495622158
vn 0.757133067 0.124724805 0.6412435
vn 0.2514565 -0.01687604 -0.967721462
vn 0.2514565 -0.01687604 -0.967721462
vn 0.360951781 0.811802149 0.459011
vn -0.7244127 0.02522895 0.688904762
vn -0.986595333 -0.0696541443 -0.1475737
vn -0.989917934 0.0243096855 -0.139540389
vn -0.625645757 0.504719138 0.5948327
vn 0.379516661 0.659780562 0.648580551
vn 0.8106189 0.172620744 -0.5595526
vn -0.147434115 0.855451763 -0.496452868
vn -0.147434115 0.855451763 -0.496452868
vn -0.825693 0.5569896 0.0894072
vn 0.7773027 0.62863487 -0.0248751063
vn 0.343355566 0.5453929 0.764626443
vn 0.1469171 0.359615058 -0.921462059
vn -0.566129446 0.4035121 0.7188014
vn -0.6327321 0.0210394524 -0.7740849
vn 0.1469171 0.359615058 -0.921462059
vn -0.994197667 0.04629045 -0.0970989838
vn -0.5744756 0.161325976 0.802466035
vn -0.523069 0.114280954 0.844593763
vn -0.5065722 -0.154922083 0.8481649
vn -0.7479084 -0.0609168075 -0.6610009
vn 0.1400687 -0.181248859 -0.9734113
vn 0.413891464 -0.250230551 -0.8752591
vn 0.8798527 -0.467779964 -0.08391099
vn 0.141322777 -0.9757957 -0.166885
vn -0.707729757 -0.1606431 0.687977
vn -0.879225135 -0.473961025 -0.0482088029
vn -0.333423 -0.738394737 0.586176038
vn -0.330601454 -0.853774 -0.402209669
vn 0.6106988 0.109185293 -0.7842994
vn 0.990858257 -0.1348878 0.00226789084
vn 0.5904927 -0.00779340975 0.8070053
vn 0.7545666 -0.2597763 0.602615535
vn 0.8391377 -0.288602352 0.461038619
vn 0.498618245 0.328645557 0.8021047
vn -0.380813777 -0.6782681 0.628437161
vn 0.6060528 -0.497656941 -0.620514
vn 0.7545666 -0.2597763 0.602615535
vn 0.5904927 -0.00779340975 0.8070053
vn -0.330601454 -0.853774 -0.402209669
vn -0.333423 -0.738394737 0.586176038
vn 0.259573936 -0.8459183 -0.465879381
vn 0.141322777 -0.9757957 -0.166885
vn 0.498618245 0.328645557 0.8021047
vn 0.8391377 -0.288602352 0.461038619
vn 0.710641 -0.198236525 -0.6750493
vn 0.318024874 -0.000268593634 0.9480823
vn 0.318024874 -0.000268593634 0.9480823
vn 0.259573936 -0.8459183 -0.465879381
vn -0.750732839 0.0140478918 -0.660456538
vn -0.9730567 0.124056816 0.1943466
vn -0.9807679 0.06909017 0.182540134
vn -0.6973417 -0.44448936 -0.562266648
vn 0.284571826 -0.6975571 -0.65759635
vn 0.813609958 -0.247903943 0.5259111
vn -0.208345279 -0.8339835 0.510944
vn -0.208345279 -0.8339835 0.510944
vn -0.879225135 -0.473961025 -0.0482088029
vn 0.764748335 -0.6441336 -0.01587028
vn 0.2857391 -0.55738914 -0.779532254
vn 0.18296738 -0.354566455 0.9169545
vn -0.6155353 -0.390590668 -0.684510946
vn -0.5935358 0.000285026763 0.804807544
vn 0.18296738 -0.354566455 0.9169545
vn -0.9887609 -0.0180348288 0.148413867
usemtl 0002420003_part_0_material_0
f 1/1/1 2/2/2 3/3/3
f 4/4/4 5/5/5 6/6/6
f 5/5/5 7/7/7 6/6/6
f 8/8/8 6/6/6 7/7/7
f 9/9/9 10/10/10 11/11/11
f 12/12/12 11/11/11 10/10/10
f 13/13/13 6/6/6 14/14/14
f 8/8/8 14/14/14 6/6/6
f 9/9/9 11/11/11 15/15/15
f 16/16/16 15/15/15 11/11/11
f 17/17/17 18/18/18 19/19/19
f 3/3/3 19/19/19 18/18/18
f 20/20/20 14/14/14 21/21/21
f 22/22/22 21/21/21 14/14/14
f 20/20/20 21/21/21 23/23/23
f 24/24/24 23/23/23 21/21/21
f 25/25/25 19/19/19 26/26/26
f 3/3/3 26/26/26 19/19/19
f 27/27/27 28/28/28 29/29/29
f 19/19/19 25/25/25 17/17/17
f 3/3/3 18/18/18 30/30/30
f 7/7/7 31/31/31 29/29/29
f 27/27/27 29/29/29 31/31/31
f 29/29/29 8/8/8 7/7/7
f 28/28/28 32/32/32 29/29/29
f 8/8/8 29/29/29 32/32/32
f 5/5/5 4/4/4 33/33/33
f 34/34/34 33/33/33 35/35/35
f 10/10/10 35/35/35 36/36/36
f 4/4/4 36/36/36 35/35/35
f 4/4/4 6/6/6 36/36/36
f 13/13/13 36/36/36 6/6/6
f 35/35/35 9/9/9 2/2/2
f 15/15/15 2/2/2 9/9/9
f 37/37/37 13/13/13 38/38/38
f 14/14/14 38/38/38 13/13/13
f 14/14/14 8/8/8 22/22/22
f 26/26/26 2/2/2 15/15/15
f 36/36/36 13/13/13 37/37/37
f 9/9/9 35/35/35 10/10/10
f 34/34/34 35/35/35 1/1/1
f 37/37/37 39/39/39 36/36/36
f 10/10/10 36/36/36 39/39/39
f 37/37/37 38/38/38 40/40/40
f 38/38/38 14/14/14 40/40/40
f 41/41/41 40/40/40 14/14/14
f 20/20/20 23/23/23 14/14/14
f 41/41/41 14/14/14 23/23/23
f 2/2/2 26/26/26 3/3/3
f 30/30/30 1/1/1 3/3/3
f 1/1/1 35/35/35 2/2/2
f 4/4/4 35/35/35 33/33/33
f 42/42/42 7/7/7 5/5/5
f 5/5/5 43/43/43 42/42/42
f 44/44/44 31/31/31 7/7/7
f 7/7/7 42/42/42 44/44/44
f 43/43/43 5/5/5 33/33/33
f 33/33/33 45/45/45 43/43/43
f 46/46/46 1/1/1 30/30/30
f 30/30/30 47/47/47 46/46/46
f 34/34/34 1/1/1 46/46/46
f 33/33/33 34/34/34 45/45/45
f 46/46/46 48/48/48 34/34/34
f 34/34/34 48/48/48 45/45/45
f 49/49/49 50/50/50 51/51/51
f 52/52/52 53/53/53 54/54/54
f 53/53/53 55/55/55 54/54/54
f 56/56/56 54/54/54 55/55/55
f 57/57/57 58/58/58 59/59/59
f 60/60/60 59/59/59 58/58/58
f 61/61/61 54/54/54 62/62/62
f 56/56/56 62/62/62 54/54/54
f 57/57/57 59/59/59 63/63/63
f 64/64/64 63/63/63 59/59/59
f 65/65/65 66/66/66 67/67/67
f 51/51/51 67/67/67 66/66/66
f 68/68/68 62/62/62 69/69/69
f 70/70/70 69/69/69 62/62/62
f 68/68/68 69/69/69 71/71/71
f 72/72/72 71/71/71 69/69/69
f 73/73/73 67/67/67 74/74/74
f 51/51/51 74/74/74 67/67/67
f 75/75/75 76/76/76 77/77/77
f 67/67/67 73/73/73 65/65/65
f 51/51/51 66/66/66 78/78/78
f 55/55/55 79/79/79 77/77/77
f 75/75/75 77/77/77 79/79/79
f 77/77/77 56/56/56 55/55/55
f 76/76/76 80/80/80 77/77/77
f 56/56/56 77/77/77 80/80/80
f 53/53/53 52/52/52 81/81/81
f 82/82/82 81/81/81 83/83/83
f 58/58/58 83/83/83 84/84/84
f 52/52/52 84/84/84 83/83/83
f 52/52/52 54/54/54 84/84/84
f 61/61/61 84/84/84 54/54/54
f 83/83/83 57/57/57 50/50/50
f 63/63/63 50/50/50 57/57/57
f 85/85/85 61/61/61 86/86/86
f 62/62/62 86/86/86 61/61/61
f 62/62/62 56/56/56 70/70/70
f 74/74/74 50/50/50 63/63/63
f 84/84/84 61/61/61 85/85/85
f 57/57/57 83/83/83 58/58/58
f 82/82/82 83/83/83 49/49/49
f 85/85/85 87/87/87 84/84/84
f 58/58/58 84/84/84 87/87/87
f 85/85/85 86/86/86 88/88/88
f 86/86/86 62/62/62 88/88/88
f 89/89/89 88/88/88 62/62/62
f 68/68/68 71/71/71 62/62/62
f 89/89/89 62/62/62 71/71/71
f 50/50/50 74/74/74 51/51/51
f 78/78/78 49/49/49 51/51/51
f 49/49/49 83/83/83 50/50/50
f 52/52/52 83/83/83 81/81/81
f 90/90/90 55/55/55 53/53/53
f 53/53/53 91/91/91 90/90/90
f 92/92/92 79/79/79 55/55/55
f 55/55/55 90/90/90 92/92/92
f 91/91/91 53/53/53 81/81/81
f 81/81/81 93/93/93 91/91/91
f 94/94/94 49/49/49 78/78/78
f 78/78/78 95/95/95 94/94/94
f 82/82/82 49/49/49 94/94/94
f 81/81/81 82/82/82 93/93/93
f 94/94/94 96/96/96 82/82/82
f 82/82/82 96/96/96 93/93/93
