mtllib 0002630004.mtl
o 0002630004_part_0
v 0.07772606 0.5052001 -0.0470242724
v 0.09894551 0.392481685 -0.03689794
v 0.123851195 0.493794471 0.0424954966
v 0.13107501 0.573663056 -0.1604537
v 0.2357627 0.552284241 -0.101427205
v 0.134575561 0.432177573 -0.139605641
v 0.210718885 0.425607771 -0.09096613
v 0.250574976 0.504691243 0.00237788633
v 0.220755562 0.397780925 -0.0120221153
v 0.07669256 0.429626763 -0.06785863
v 0.03823318 0.561471939 -0.0765760839
v 0.175366223 0.4365271 0.07198616
v 0.1682614 0.371380985 0.043335624
v 0.088515155 0.40230602 0.0213469081
v 0.0917731449 0.206538767 0.0187926684
v 0.156961 0.2184976 0.0355638638
v 0.0619443469 0.5151026 0.033530727
v 0.153813988 0.0722809359 -0.158730119
v 0.185230732 0.126133919 -0.09767593
v 0.2157023 0.003341599 -0.0884569
v 0.198351622 0.227330789 -0.09011276
v 0.128115535 0.2403386 -0.127549738
v 0.117574066 0.176415831 -0.1299974
v 0.210659772 0.190353245 -0.0129756434
v 0.219614223 0.188486949 0.005277003
v 0.165819228 0.218976825 0.06028314
v 0.0722936 0.240393877 -0.0724822655
v 0.06791988 0.152047738 -0.0676784
v 0.0445196778 0.0816184357 -0.104483992
v 0.0593830869 0.0178679582 -0.01387988
v 0.08824608 0.07849235 -0.153708935
v 0.247595012 0.1316095 0.18822819
v 0.176803559 0.0515148379 0.214328915
v 0.2686452 0.0872602761 0.244416922
v 0.101909116 0.124204054 0.0306951031
v 0.08409517 0.204617456 0.0364182778
v 0.104034066 0.00355640147 0.0958420038
v 0.0593830869 0.0178679582 -0.01387988
v 0.27850464 0.00361970835 0.0197224729
v 0.2157023 0.003341599 -0.0884569
v 0.27850464 0.00361970835 0.0197224729
v 0.0593830869 0.0178679582 -0.01387988
v 0.278317183 0.07710631 0.06722228
v 0.27850464 0.00361970835 0.0197224729
v 0.240960136 0.106865555 -0.04470637
v 0.2157023 0.003341599 -0.0884569
v 0.240960136 0.106865555 -0.04470637
v 0.27850464 0.00361970835 0.0197224729
v 0.220799938 0.107474729 -0.0476791225
v 0.0593830869 0.0178679582 -0.01387988
v 0.104034066 0.00355640147 0.0958420038
v 0.0929931849 0.129427254 0.0502185747
v 0.132835016 0.08187144 0.1331672
v 0.0929931849 0.129427254 0.0502185747
v 0.104034066 0.00355640147 0.0958420038
v 0.0477767 0.0158746652 -0.124667548
v 0.281979352 -0.006185746 0.2767787
v 0.165092349 0.000614493852 0.229516089
v 0.334103853 0.004315954 0.160672367
v 0.221693441 0.1429984 0.132394224
v 0.321359962 0.0549351871 0.154276639
v 0.165092349 0.000614493852 0.229516089
v 0.104034066 0.00355640147 0.0958420038
v 0.165092349 0.000614493852 0.229516089
v 0.132835016 0.08187144 0.1331672
v 0.281979352 -0.006185746 0.2767787
v 0.334103853 0.004315954 0.160672367
v 0.2708037 0.0425881371 0.248648465
v 0.2708037 0.0425881371 0.248648465
v 0.334103853 0.004315954 0.160672367
v 0.281979352 -0.006185746 0.2767787
v 0.2708037 0.0425881371 0.248648465
v 0.165092349 0.000614493852 0.229516089
v 0.165092349 0.000614493852 0.229516089
v 0.334103853 0.004315954 0.160672367
v 0.27850464 0.00361970835 0.0197224729
v 0.278317183 0.07710631 0.06722228
v 0.334103853 0.004315954 0.160672367
v 0.188688964 0.145781413 0.0484633781
v 0.2157023 0.003341599 -0.0884569
v 0.0593830869 0.0178679582 -0.01387988
v 0.135676086 0.007916573 -0.160435736
v 0.135676086 0.007916573 -0.160435736
v 0.0593830869 0.0178679582 -0.01387988
v 0.08474575 0.0124976411 -0.156518042
v 0.08474575 0.0124976411 -0.156518042
v 0.0593830869 0.0178679582 -0.01387988
v 0.0477767 0.0158746652 -0.124667548
v 0.135676086 0.007916573 -0.160435736
v 0.08474575 0.0124976411 -0.156518042
v 0.08824608 0.07849235 -0.153708935
v 0.135676086 0.007916573 -0.160435736
v 0.0619443469 0.5151026 0.033530727
v 0.175366223 0.4365271 0.07198616
v 0.03823318 0.561471939 -0.0765760839
v 0.13107501 0.573663056 -0.1604537
v 0.03823318 0.561471939 -0.0765760839
v 0.2357627 0.552284241 -0.101427205
v 0.03823318 0.561471939 -0.0765760839
v 0.175366223 0.4365271 0.07198616
v 0.2357627 0.552284241 -0.101427205
v 0.2357627 0.552284241 -0.101427205
v 0.175366223 0.4365271 0.07198616
v 0.250574976 0.504691243 0.00237788633
v 0.101909116 0.124204054 0.0306951031
v 0.0593830869 0.0178679582 -0.01387988
v 0.0929931849 0.129427254 0.0502185747
v 0.101909116 0.124204054 0.0306951031
v 0.0929931849 0.129427254 0.0502185747
v 0.188688964 0.145781413 0.0484633781
v 0.201789185 0.166349009 0.07034501
v 0.188688964 0.145781413 0.0484633781
v 0.220799938 0.107474729 -0.0476791225
v 0.188688964 0.145781413 0.0484633781
v 0.240960136 0.106865555 -0.04470637
v 0.188688964 0.145781413 0.0484633781
v 0.220799938 0.107474729 -0.0476791225
v 0.240960136 0.106865555 -0.04470637
v 0.2157023 0.003341599 -0.0884569
v 0.08474575 0.0124976411 -0.156518042
v 0.0996969 0.125518247 0.04690818
v 0.06730503 0.166008264 0.032370612
v 0.08404249 0.07642155 0.0158234518
v 0.0455413535 0.100498907 -0.0170752183
v 0.0060049966 0.21868661 -0.03307908
v 0.0750639141 0.07642716 0.0145107526
v 0.0513196 0.09025349 0.00030630827
v 0.07074021 0.04487199 0.0112396888
v 0.0427089259 0.04894701 -0.0164320916
v 0.01610221 0.100360349 -0.0599903762
v 0.08168001 0.164708361 0.0274005216
v 0.114071883 0.124218352 0.04193809
v 0.234891087 0.083323 -0.112551466
v 0.261957347 0.148352489 -0.06513204
v 0.224688411 0.063652955 -0.06104056
v 0.241499469 0.112644978 -0.0303978529
v 0.2717963 0.19459331 -0.1577676
v 0.230367869 0.03193033 -0.107771784
v 0.241618976 0.07299788 -0.09204243
v 0.2275123 0.0306503288 -0.06829656
v 0.231458 0.0622397065 -0.06488103
v 0.229082555 0.08105228 -0.161006659
v 0.247929052 0.149622872 -0.0592477769
v 0.227471173 0.113915361 -0.0245135911
v -0.130579814 0.495101959 0.0473359078
v -0.10895969 0.393143177 -0.0321932
v -0.08636689 0.5055053 -0.0432642847
v -0.221461073 0.427672982 -0.0838180557
v -0.2449224 0.554657 -0.09421959
v -0.146370143 0.432962149 -0.134217948
v -0.141324386 0.5743032 -0.155718982
v -0.230077118 0.4002905 -0.004551489
v -0.25802362 0.5076727 0.0100916624
v -0.046762336 0.5610908 -0.07394405
v -0.0868950039 0.429847151 -0.06380779
v -0.176707223 0.373345077 0.049694933
v -0.182217777 0.43869403 0.0782344
v -0.1677788 0.220286608 0.0422909632
v -0.103171773 0.207326785 0.0240778085
v -0.09705308 0.403035 0.0257564187
v -0.06859673 0.515482 0.0368663445
v -0.231571361 0.00482752267 -0.0780538246
v -0.200401485 0.127647728 -0.08884042
v -0.170455113 0.07333208 -0.149419457
v -0.130899966 0.176908851 -0.121887945
v -0.14238216 0.241096646 -0.121529356
v -0.211917818 0.22924298 -0.08243817
v -0.231535226 0.191068247 0.0135722458
v -0.222977072 0.19273673 -0.00488848938
v -0.176058471 0.2209863 0.06720478
v -0.08226654 0.1523133 -0.0613031574
v -0.08531358 0.2405545 -0.06775759
v -0.07385355 0.0182438847 -0.00626574457
v -0.06015137 0.0818933845 -0.09712355
v -0.10476613 0.079079546 -0.14556393
v -0.2779508 0.08804586 0.255227327
v -0.186913 0.0516539849 0.223515213
v -0.2575889 0.13224867 0.198670834
v -0.0951188058 0.205361292 0.0415303558
v -0.114828512 0.124875128 0.0390507877
v -0.291914165 0.00381431449 0.03061106
v -0.07385355 0.0182438847 -0.00626574457
v -0.116507269 0.004463813 0.104390636
v -0.07385355 0.0182438847 -0.00626574457
v -0.291914165 0.00381431449 0.03061106
v -0.231571361 0.00482752267 -0.0780538246
v -0.2553158 0.10852468 -0.033868134
v -0.291914165 0.00381431449 0.03061106
v -0.291284323 0.07745256 0.07782146
v -0.291914165 0.00381431449 0.03061106
v -0.2553158 0.10852468 -0.033868134
v -0.231571361 0.00482752267 -0.0780538246
v -0.235207781 0.108991526 -0.0371985026
v -0.105530545 0.130033955 0.0584125035
v -0.116507269 0.004463813 0.104390636
v -0.07385355 0.0182438847 -0.00626574457
v -0.116507269 0.004463813 0.104390636
v -0.105530545 0.130033955 0.0584125035
v -0.14500083 0.08281966 0.1417965
v -0.06423098 0.01617554 -0.117241941
v -0.3454711 0.00557153858 0.172663778
v -0.175294 0.000671180431 0.2384952
v -0.2913683 -0.005305595 0.287826717
v -0.233987942 0.143703878 0.141977042
v -0.332485318 0.05609982 0.166039526
v -0.175294 0.000671180431 0.2384952
v -0.14500083 0.08281966 0.1417965
v -0.175294 0.000671180431 0.2384952
v -0.116507269 0.004463813 0.104390636
v -0.280349523 0.043389827 0.259499371
v -0.3454711 0.00557153858 0.172663778
v -0.2913683 -0.005305595 0.287826717
v -0.3454711 0.00557153858 0.172663778
v -0.280349523 0.043389827 0.259499371
v -0.175294 0.000671180431 0.2384952
v -0.280349523 0.043389827 0.259499371
v -0.2913683 -0.005305595 0.287826717
v -0.175294 0.000671180431 0.2384952
v -0.3454711 0.00557153858 0.172663778
v -0.3454711 0.00557153858 0.172663778
v -0.291284323 0.07745256 0.07782146
v -0.291914165 0.00381431449 0.03061106
v -0.201124415 0.147064239 0.0583561249
v -0.15280579 0.008841217 -0.151442885
v -0.07385355 0.0182438847 -0.00626574457
v -0.231571361 0.00482752267 -0.0780538246
v -0.1017828 0.0130619165 -0.148430616
v -0.07385355 0.0182438847 -0.00626574457
v -0.15280579 0.008841217 -0.151442885
v -0.06423098 0.01617554 -0.117241941
v -0.07385355 0.0182438847 -0.00626574457
v -0.1017828 0.0130619165 -0.148430616
v -0.15280579 0.008841217 -0.151442885
v -0.15280579 0.008841217 -0.151442885
v -0.10476613 0.079079546 -0.14556393
v -0.1017828 0.0130619165 -0.148430616
v -0.046762336 0.5610908 -0.07394405
v -0.182217777 0.43869403 0.0782344
v -0.06859673 0.515482 0.0368663445
v -0.2449224 0.554657 -0.09421959
v -0.046762336 0.5610908 -0.07394405
v -0.141324386 0.5743032 -0.155718982
v -0.2449224 0.554657 -0.09421959
v -0.182217777 0.43869403 0.0782344
v -0.046762336 0.5610908 -0.07394405
v -0.25802362 0.5076727 0.0100916624
v -0.182217777 0.43869403 0.0782344
v -0.2449224 0.554657 -0.09421959
v -0.105530545 0.130033955 0.0584125035
v -0.07385355 0.0182438847 -0.00626574457
v -0.114828512 0.124875128 0.0390507877
v -0.201124415 0.147064239 0.0583561249
v -0.105530545 0.130033955 0.0584125035
v -0.114828512 0.124875128 0.0390507877
v -0.201124415 0.147064239 0.0583561249
v -0.213688239 0.167722568 0.08046567
v -0.2553158 0.10852468 -0.033868134
v -0.201124415 0.147064239 0.0583561249
v -0.235207781 0.108991526 -0.0371985026
v -0.201124415 0.147064239 0.0583561249
v -0.231571361 0.00482752267 -0.0780538246
v -0.2553158 0.10852468 -0.033868134
v -0.235207781 0.108991526 -0.0371985026
v -0.1017828 0.0130619165 -0.148430616
v -0.059487015 0.100775123 -0.009711608
v -0.07990549 0.166433573 0.040108826
v -0.09756702 0.07696846 0.0238671731
v -0.112319455 0.126172632 0.0552219339
v -0.0194066912 0.21868141 -0.0264225453
v -0.0570080876 0.0492044576 -0.009115644
v -0.06502793 0.09056972 0.00777044147
v -0.08457159 0.0453259461 0.0190498643
v -0.08861336 0.07691069 0.02239522
v -0.0308164135 0.100431167 -0.05314284
v -0.0943753049 0.165235639 0.0353949033
v -0.126789272 0.1249747 0.05050801
v -0.25556007 0.114306882 -0.01955266
v -0.2763787 0.150160283 -0.05392028
v -0.2396426 0.065199174 -0.050486017
v -0.250619233 0.08494407 -0.101808831
v -0.2875342 0.196475312 -0.146369368
v -0.246489152 0.06383405 -0.05420556
v -0.257054627 0.07466549 -0.0811829
v -0.242828116 0.0322177857 -0.0576886423
v -0.2463752 0.0335204154 -0.09710701
v -0.245688364 0.08263539 -0.150359422
v -0.2622395 0.151331112 -0.04828617
v -0.241420865 0.1154777 -0.0139185488
vt 0.7335641 0.112936378
vt 0.7300317 0.0167976618
vt 0.782272637 0.110298932
vt 0.0297683161 0.969723463
vt 0.139701262 0.94526577
vt 0.0507503264 0.8078164
vt 0.162157416 0.7973461
vt 0.305578 0.898849845
vt 0.293240517 0.7713234
vt 0.162326 0.7979581
vt 0.139638 0.9446836
vt 0.4384992 0.8305886
vt 0.401805043 0.749809563
vt 0.293399841 0.7712546
vt 0.304066479 0.527894855
vt 0.4058861 0.555900335
vt 0.3051211 0.8991176
vt 0.105410673 0.381299376
vt 0.182164535 0.4526714
vt 0.18413353 0.311063528
vt 0.163855165 0.5520292
vt 0.07187506 0.556912959
vt 0.07306833 0.48922044
vt 0.303968549 0.5273021
vt 0.331739068 0.5128294
vt 0.435131 0.5444714
vt 0.164222375 0.551709533
vt 0.18197909 0.452432454
vt 0.105396137 0.381417871
vt 0.184678078 0.310773849
vt 0.025158653 0.382201433
vt 0.699175537 0.409481227
vt 0.5586996 0.4345814
vt 0.6991749 0.5097108
vt 0.29783082 0.428659558
vt 0.333125532 0.513757348
vt 0.0420952477 0.164539158
vt 0.0556045659 0.08473915
vt 0.144196332 0.164539158
vt 0.145585269 0.101456463
vt 0.144196332 0.164539158
vt 0.0556045659 0.08473915
vt 0.856249452 0.290956378
vt 0.9945408 0.2483592
vt 0.8523631 0.126207113
vt 0.988542438 0.0898036957
vt 0.8523631 0.126207113
vt 0.9945408 0.2483592
vt 0.299348474 0.428740978
vt 0.419725746 0.0424301624
vt 0.418674469 0.2587806
vt 0.533927858 0.117811382
vt 0.5357904 0.2942332
vt 0.533927858 0.117811382
vt 0.418674469 0.2587806
vt 0.0952986255 0.313981056
vt 0.0874132738 0.2723744
vt 0.0458925739 0.253915071
vt 0.1364197 0.253915071
vt 0.69895494 0.304781377
vt 0.857766151 0.434581876
vt 0.4802756 0.491264462
vt 0.418674469 0.2587806
vt 0.4802756 0.491264462
vt 0.5357904 0.2942332
vt 0.697303534 0.6356898
vt 0.9205806 0.476425648
vt 0.6991746 0.559714258
vt 0.6991746 0.559714258
vt 0.9205806 0.476425648
vt 0.697303534 0.6356898
vt 0.6991746 0.559714258
vt 0.4802756 0.491264462
vt 0.4802756 0.491264462
vt 0.9205806 0.476425648
vt 0.9945408 0.2483592
vt 0.856249452 0.290956378
vt 0.9205806 0.476425648
vt 0.431591451 0.460636854
vt 0.145585269 0.101456463
vt 0.0556045659 0.08473915
vt 0.119158193 0.048773706
vt 0.119158193 0.048773706
vt 0.0556045659 0.08473915
vt 0.09513161 0.03964615
vt 0.09513161 0.03964615
vt 0.0556045659 0.08473915
vt 0.07155487 0.04820639
vt 0.0955172 0.313977122
vt 0.0240650438 0.314831853
vt 0.025158653 0.382201433
vt 0.0955172 0.313977122
vt 0.196343422 0.09271848
vt 0.280598372 0.03961116
vt 0.181734622 0.210805416
vt 0.273012936 0.2874257
vt 0.181734622 0.210805416
vt 0.373313427 0.208999038
vt 0.181734622 0.210805416
vt 0.280598372 0.03961116
vt 0.373313427 0.208999038
vt 0.373313427 0.208999038
vt 0.280598372 0.03961116
vt 0.3519122 0.08863658
vt 0.5372136 0.0785192847
vt 0.419725746 0.0424301624
vt 0.533927858 0.117811382
vt 0.5372136 0.0785192847
vt 0.533927858 0.117811382
vt 0.7000629 0.161316514
vt 0.7000626 0.197427332
vt 0.7000629 0.161316514
vt 0.847560942 0.08909351
vt 0.7000629 0.161316514
vt 0.8523631 0.126207113
vt 0.7000629 0.161316514
vt 0.847560942 0.08909351
vt 0.8523631 0.126207113
vt 0.988542438 0.0898036957
vt 0.0240650438 0.314831853
vt 0.523656964 0.730478346
vt 0.666906357 0.703378558
vt 0.51405406 0.9256019
vt 0.667988658 0.934487641
vt 0.9426921 0.777489
vt 0.523656964 0.730478346
vt 0.666906357 0.703378558
vt 0.51405406 0.9256019
vt 0.667988658 0.934487641
vt 0.9426921 0.777489
vt 0.666906357 0.703378558
vt 0.523656964 0.730478346
vt 0.667988658 0.934487641
vt 0.666906357 0.703378558
vt 0.51405406 0.9256019
vt 0.523656964 0.730478346
vt 0.9426921 0.777489
vt 0.667988658 0.934487641
vt 0.666906357 0.703378558
vt 0.51405406 0.9256019
vt 0.523656964 0.730478346
vt 0.9426921 0.777489
vt 0.666906357 0.703378558
vt 0.523656964 0.730478346
vt 0.782272637 0.110298932
vt 0.7300317 0.0167976618
vt 0.7335641 0.112936378
vt 0.162157416 0.7973461
vt 0.139701262 0.94526577
vt 0.0507503264 0.8078164
vt 0.0297683161 0.969723463
vt 0.293240517 0.7713234
vt 0.305578 0.898849845
vt 0.139638 0.9446836
vt 0.162326 0.7979581
vt 0.401805043 0.749809563
vt 0.4384992 0.8305886
vt 0.4058861 0.555900335
vt 0.304066479 0.527894855
vt 0.293399841 0.7712546
vt 0.3051211 0.8991176
vt 0.18413353 0.311063528
vt 0.182164535 0.4526714
vt 0.105410673 0.381299376
vt 0.07306833 0.48922044
vt 0.07187506 0.556912959
vt 0.163855165 0.5520292
vt 0.331739068 0.5128294
vt 0.303968549 0.5273021
vt 0.435131 0.5444714
vt 0.18197909 0.452432454
vt 0.164222375 0.551709533
vt 0.184678078 0.310773849
vt 0.105396137 0.381417871
vt 0.025158653 0.382201433
vt 0.6991749 0.5097108
vt 0.5586996 0.4345814
vt 0.699175537 0.409481227
vt 0.333125532 0.513757348
vt 0.29783082 0.428659558
vt 0.144196332 0.164539158
vt 0.0556045659 0.08473915
vt 0.0420952477 0.164539158
vt 0.0556045659 0.08473915
vt 0.144196332 0.164539158
vt 0.145585269 0.101456463
vt 0.8523631 0.126207113
vt 0.9945408 0.2483592
vt 0.856249452 0.290956378
vt 0.9945408 0.2483592
vt 0.8523631 0.126207113
vt 0.988542438 0.0898036957
vt 0.299348474 0.428740978
vt 0.533927858 0.117811382
vt 0.418674469 0.2587806
vt 0.419725746 0.0424301624
vt 0.418674469 0.2587806
vt 0.533927858 0.117811382
vt 0.5357904 0.2942332
vt 0.0952986255 0.313981056
vt 0.1364197 0.253915071
vt 0.0458925739 0.253915071
vt 0.0874132738 0.2723744
vt 0.69895494 0.304781377
vt 0.857766151 0.434581876
vt 0.4802756 0.491264462
vt 0.5357904 0.2942332
vt 0.4802756 0.491264462
vt 0.418674469 0.2587806
vt 0.6991746 0.559714258
vt 0.9205806 0.476425648
vt 0.697303534 0.6356898
vt 0.9205806 0.476425648
vt 0.6991746 0.559714258
vt 0.4802756 0.491264462
vt 0.6991746 0.559714258
vt 0.697303534 0.6356898
vt 0.4802756 0.491264462
vt 0.9205806 0.476425648
vt 0.9205806 0.476425648
vt 0.856249452 0.290956378
vt 0.9945408 0.2483592
vt 0.431591451 0.460636854
vt 0.119158193 0.048773706
vt 0.0556045659 0.08473915
vt 0.145585269 0.101456463
vt 0.09513161 0.03964615
vt 0.0556045659 0.08473915
vt 0.119158193 0.048773706
vt 0.07155487 0.04820639
vt 0.0556045659 0.08473915
vt 0.09513161 0.03964615
vt 0.0955172 0.313977122
vt 0.0955172 0.313977122
vt 0.025158653 0.382201433
vt 0.0240650438 0.314831853
vt 0.181734622 0.210805416
vt 0.280598372 0.03961116
vt 0.196343422 0.09271848
vt 0.373313427 0.208999038
vt 0.181734622 0.210805416
vt 0.273012936 0.2874257
vt 0.373313427 0.208999038
vt 0.280598372 0.03961116
vt 0.181734622 0.210805416
vt 0.3519122 0.08863658
vt 0.280598372 0.03961116
vt 0.373313427 0.208999038
vt 0.533927858 0.117811382
vt 0.419725746 0.0424301624
vt 0.5372136 0.0785192847
vt 0.7000629 0.161316514
vt 0.533927858 0.117811382
vt 0.5372136 0.0785192847
vt 0.7000629 0.161316514
vt 0.7000626 0.197427332
vt 0.8523631 0.126207113
vt 0.7000629 0.161316514
vt 0.847560942 0.08909351
vt 0.7000629 0.161316514
vt 0.988542438 0.0898036957
vt 0.8523631 0.126207113
vt 0.847560942 0.08909351
vt 0.0240650438 0.314831853
vt 0.667988658 0.934487641
vt 0.666906357 0.703378558
vt 0.51405406 0.9256019
vt 0.523656964 0.730478346
vt 0.9426921 0.777489
vt 0.667988658 0.934487641
vt 0.666906357 0.703378558
vt 0.51405406 0.9256019
vt 0.523656964 0.730478346
vt 0.9426921 0.777489
vt 0.666906357 0.703378558
vt 0.523656964 0.730478346
vt 0.523656964 0.730478346
vt 0.666906357 0.703378558
vt 0.51405406 0.9256019
vt 0.667988658 0.934487641
vt 0.9426921 0.777489
vt 0.523656964 0.730478346
vt 0.666906357 0.703378558
vt 0.51405406 0.9256019
vt 0.667988658 0.934487641
vt 0.9426921 0.777489
vt 0.666906357 0.703378558
vt 0.523656964 0.730478346
vn -0.888200939 -0.12755172 0.441395074
vn -0.888200939 -0.12755172 0.441395074
vn -0.888200939 -0.127551734 0.441395074
vn -0.136330381 -0.147716627 -0.9795886
vn 0.7324968 -0.1795644 -0.656662047
vn -0.139952242 -0.145459339 -0.9794156
vn 0.8092996 -0.149386287 -0.5680827
vn 0.964157 -0.26230666 0.0399563126
vn 0.95533 -0.183108628 0.23198238
vn -0.944654465 -0.151453376 -0.291015178
vn -0.8825292 -0.237803921 -0.405698836
vn 0.235326186 -0.365635037 0.900517941
vn 0.267803371 -0.201251909 0.9422203
vn -0.7808989 -0.151850253 0.6059194
vn -0.778780937 0.578517258 0.242524266
vn 0.225070357 0.749415 0.6226721
vn -0.895695269 -0.2670708 0.3555323
vn 0.425025851 0.139545456 -0.8943602
vn 0.773653269 0.178993046 -0.607801
vn 0.7820528 0.0578596331 -0.6205205
vn 0.80889374 -0.0529239029 -0.5855681
vn -0.1510586 0.008743474 -0.9884861
vn -0.234040365 0.252608776 -0.938836455
vn 0.963582337 0.243707284 -0.110071778
vn 0.89532 0.4260012 0.130096629
vn 0.20223853 0.650588036 0.7320074
vn -0.9531048 0.0184162352 -0.302079618
vn -0.9751824 0.205381557 -0.08268998
vn -0.9497141 0.2115511 -0.230844527
vn -0.9579811 0.109205954 0.2652287
vn -0.45969075 0.226938322 -0.8585938
vn 0.129311621 0.9286046 0.347810239
vn -0.5516919 0.456476331 0.698044
vn 0.2976189 0.493756384 0.817084849
vn -0.7645163 -0.07325487 0.6404284
vn -0.7112868 0.475433141 0.517720461
vn -0.020279875 -0.9978916 -0.0616524629
vn -0.0476720035 -0.9927774 -0.110092789
vn -0.0113043357 -0.9995785 -0.0267415475
vn -0.0715576038 -0.9964609 0.0441036969
vn -0.0715576 -0.9964609 0.0441036969
vn -0.0715576038 -0.9964609 0.0441037
vn 0.8280499 0.533589244 -0.172092468
vn 0.9468215 0.176365659 -0.2691174
vn 0.8064655 0.5462129 -0.226417348
vn 0.8648269 0.00117957371 -0.502068758
vn 0.8648269 0.00117957371 -0.502068758
vn 0.8648269 0.00117957371 -0.502068758
vn 0.9094618 0.178148836 -0.37568897
vn -0.922032 0.0578609928 0.3827651
vn -0.922032 0.0578609928 0.3827651
vn -0.922032 0.05786099 0.382765144
vn -0.6527567 0.502564251 0.5668667
vn -0.6435687 0.61365813 0.4574309
vn -0.8748538 0.09539493 0.4749007
vn -0.903297544 0.040086925 -0.4271377
vn -0.0181946084 -0.99500376 -0.09816533
vn 0.0014618116 -0.99874264 -0.0501097851
vn -0.00200535241 -0.999276 -0.03799376
vn 0.126995772 0.951902151 0.278844744
vn 0.909233153 0.416227162 0.0070710904
vn -0.7683714 0.338795751 0.5429759
vn -0.900320947 0.133699447 0.414181918
vn -0.900320947 0.133699447 0.4141819
vn -0.900320947 0.133699447 0.4141819
vn 0.813607633 0.418940574 0.40315184
vn 0.813607633 0.418940574 0.40315184
vn 0.813607633 0.418940574 0.4031518
vn 0.345604539 0.179263562 0.9210983
vn 0.833381534 0.2706963 0.481870055
vn -0.319676161 0.417365223 0.8506547
vn -0.319676161 0.417365223 0.8506547
vn -0.319676131 0.4173652 0.8506547
vn -0.2949332 0.334874839 0.8949152
vn 0.8994991 0.175925374 -0.399939537
vn 0.904117048 0.233574018 -0.357792526
vn 0.904117048 0.233574 -0.357792526
vn 0.9041171 0.233574 -0.357792526
vn 0.508663356 -0.133119732 0.850612
vn -0.08024719 -0.9964388 0.0258853324
vn -0.08024719 -0.9964388 0.0258853324
vn -0.08024719 -0.9964388 0.02588533
vn -0.0878959745 -0.9958896 0.0218662862
vn -0.08789598 -0.9958896 0.0218662862
vn -0.08789598 -0.9958896 0.0218662862
vn -0.06937764 -0.997271836 0.0252110958
vn -0.0693776459 -0.997271836 0.0252111
vn -0.06937764 -0.997271836 0.0252111
vn 0.6543606 -0.164842591 -0.7379967
vn -0.07247779 0.0462519862 -0.996297
vn -0.07247779 0.0462519825 -0.996297
vn -0.0724777952 0.0462519862 -0.996297
vn 0.494753927 0.8338905 0.2446328
vn 0.4947539 0.8338905 0.2446328
vn 0.4947539 0.8338905 0.2446328
vn 0.0731910244 0.9722227 0.222319916
vn 0.0731910244 0.9722227 0.222319931
vn 0.0731910244 0.9722227 0.222319931
vn 0.110335022 0.808471859 0.578099847
vn 0.110335022 0.808471859 0.578099847
vn 0.110335022 0.808471859 0.578099847
vn -0.353467733 0.830203056 0.4310724
vn -0.353467733 0.830203056 0.431072444
vn -0.353467733 0.830203056 0.431072444
vn -0.735874534 0.4901303 -0.467184067
vn -0.735874534 0.4901303 -0.467184067
vn -0.735874534 0.4901303 -0.467184067
vn -0.165116355 0.931338251 -0.3245699
vn -0.165116355 0.931338251 -0.3245699
vn -0.165116355 0.931338251 -0.3245699
vn 0.131612673 0.990420938 -0.04176657
vn -0.1418498 0.7622484 -0.6315505
vn 0.0792706162 0.934875131 -0.346012563
vn 0.0792706162 0.934875131 -0.346012533
vn 0.0792706162 0.934875131 -0.346012533
vn -0.3503559 0.7779909 -0.521517932
vn 0.146881849 0.3544348 -0.923472643
vn 0.146881863 0.354434818 -0.923472643
vn 0.146881849 0.354434818 -0.923472643
vn -0.6477579 0.0666606948 -0.7589243
vn -0.168081611 0.211245969 0.9628726
vn -0.3075183 0.406115055 0.8605249
vn -0.6908914 -0.254094154 0.6768347
vn -0.745852947 -0.2253415 0.626836956
vn -0.743655562 -0.0359172449 0.6675975
vn -0.520634949 -0.01714873 0.8536072
vn -0.752139449 -0.0566269346 0.65656656
vn -0.6414643 -0.09098991 0.7617377
vn -0.791038454 -0.08083091 0.606402934
vn -0.8649407 -0.0228567235 0.5013533
vn 0.299222618 0.6546049 0.694232166
vn 0.318781048 0.5357532 0.781886935
vn 0.9262734 -0.376655728 -0.0121686067
vn 0.8588356 0.300568879 0.414800942
vn 0.9145987 -0.3993783 0.06329437
vn 0.7938784 0.124196358 0.595258236
vn 0.9813557 -0.192017481 0.008381806
vn 0.968512058 -0.240056023 -0.06601155
vn 0.977020741 -0.213102177 -0.00423454726
vn 0.96017617 -0.235925883 0.149668559
vn 0.944049656 -0.14969182 0.2938751
vn 0.9621936 -0.1881975 -0.19688876
vn 0.343089342 0.6506353 0.677468359
vn 0.368164122 0.5312845 0.763015032
vn 0.896199 -0.138677031 0.4214215
vn 0.896199 -0.138677031 0.4214215
vn 0.896199 -0.138677031 0.421421468
vn -0.824205339 -0.139843166 -0.548752666
vn -0.7498998 -0.171457365 -0.638946533
vn 0.115295269 -0.15113996 -0.9817656
vn 0.111638486 -0.153345466 -0.9818462
vn -0.952266634 -0.1684514 0.254582763
vn -0.966640234 -0.248234972 0.06313509
vn 0.8694707 -0.252018273 -0.424861729
vn 0.9354469 -0.16614151 -0.311987251
vn -0.248919412 -0.193830356 0.9489304
vn -0.219766974 -0.35882 0.9071663
vn -0.199938133 0.7549147 0.6246027
vn 0.793653131 0.5663875 0.222080931
vn 0.792371869 -0.160808623 0.588461936
vn 0.8997182 -0.2786113 0.335980445
vn -0.7932215 0.0603957623 -0.6059307
vn -0.7811413 0.180915758 -0.5975683
vn -0.438586 0.141395792 -0.887496233
vn 0.249840185 0.233337358 -0.939751863
vn 0.128490537 -0.00574276876 -0.9916941
vn -0.821790338 -0.0462206528 -0.5679122
vn -0.883411169 0.4479239 0.1376549
vn -0.963081956 0.2539499 -0.08934548
vn -0.173603386 0.6664599 0.725046933
vn 0.976405263 0.19210203 -0.09863853
vn 0.945375144 -0.000144592617 -0.325984448
vn 0.9632209 0.104055822 0.247745708
vn 0.9484415 0.200760409 -0.24526301
vn 0.445412755 0.217605725 -0.868478656
vn -0.279562652 0.495796859 0.82221055
vn 0.5674598 0.452965379 0.68761307
vn -0.112765417 0.9297909 0.3503895
vn 0.7315376 0.4729497 0.491091967
vn 0.7734068 -0.06677394 0.6303834
vn 0.01204299 -0.9997308 -0.01983069
vn 0.047934778 -0.9932932 -0.105218112
vn 0.01931667 -0.998035133 -0.0596047454
vn 0.0710774958 -0.9970143 0.0301737972
vn 0.07107749 -0.9970143 0.0301737953
vn 0.07107749 -0.9970143 0.0301737953
vn -0.809508443 0.547708035 -0.211452022
vn -0.9504919 0.173437923 -0.257845819
vn -0.8317488 0.5319438 -0.158838764
vn -0.874255 0.006653747 -0.48542136
vn -0.874255 0.006653747 -0.48542136
vn -0.874255 0.00665374752 -0.48542136
vn -0.918697059 0.181506172 -0.350786656
vn 0.9295985 0.0523271523 0.364840269
vn 0.9295985 0.0523271561 0.3648403
vn 0.9295985 0.0523271523 0.364840269
vn 0.8778445 0.09513693 0.469401717
vn 0.6495325 0.608944356 0.455295861
vn 0.6568969 0.5043099 0.560498059
vn 0.8958298 0.03372777 -0.4431156
vn -0.00173531589 -0.999303758 -0.03726956
vn -0.00726114633 -0.9984295 -0.0555507056
vn 0.009414449 -0.9951014 -0.09841013
vn -0.134500787 0.9502004 0.2811206
vn -0.9055711 0.423448771 0.0251422487
vn 0.781324148 0.333138436 0.527779639
vn 0.905669332 0.13794975 0.400915056
vn 0.9056694 0.137949735 0.400915027
vn 0.9056694 0.137949735 0.400915
vn -0.803337634 0.4246559 0.4175116
vn -0.8033377 0.424655885 0.417511582
vn -0.803337634 0.4246559 0.4175116
vn -0.8227577 0.276550621 0.49657777
vn -0.327915519 0.181644619 0.9270796
vn 0.33767584 0.415041834 0.844816744
vn 0.3376758 0.415041864 0.844816744
vn 0.33767584 0.415041864 0.844816744
vn 0.313140363 0.332725674 0.889514863
vn -0.9069627 0.183376878 -0.379198641
vn -0.9097879 0.229509577 -0.345848769
vn -0.9097879 0.229509577 -0.3458488
vn -0.9097879 0.229509562 -0.345848769
vn -0.4985267 -0.09287201 0.8618851
vn 0.07364881 -0.9969828 0.0245187357
vn 0.0736488 -0.9969828 0.0245187338
vn 0.07364881 -0.9969828 0.0245187357
vn 0.0812286958 -0.996487439 0.0203644484
vn 0.0812287 -0.996487439 0.02036445
vn 0.0812286958 -0.996487439 0.02036445
vn 0.06276338 -0.9977389 0.0240377057
vn 0.0627633855 -0.9977389 0.0240377057
vn 0.06276338 -0.9977389 0.0240377076
vn -0.6685132 -0.160166934 -0.7262484
vn 0.0550967343 0.0458012521 -0.997429967
vn 0.0550967343 0.0458012521 -0.997429967
vn 0.05509673 0.0458012447 -0.997429967
vn -0.477006 0.8418463 0.252507716
vn -0.477006 0.8418463 0.252507716
vn -0.477006 0.8418463 0.252507716
vn -0.0541305 0.9740048 0.219964921
vn -0.0541305 0.9740048 0.219964921
vn -0.0541304946 0.9740048 0.219964921
vn -0.08542402 0.812144339 0.57716924
vn -0.08542401 0.812144339 0.57716924
vn -0.08542402 0.812144339 0.57716924
vn 0.375138342 0.826637745 0.419453561
vn 0.375138342 0.826637745 0.419453561
vn 0.375138342 0.826637745 0.4194536
vn 0.7309072 0.484945774 -0.480210632
vn 0.7309072 0.484945774 -0.480210662
vn 0.7309072 0.4849458 -0.480210662
vn 0.165904909 0.930168152 -0.327509969
vn 0.165904909 0.930168152 -0.327509969
vn 0.1659049 0.930168152 -0.327509969
vn 0.135995328 0.7612659 -0.63401854
vn -0.122591108 0.99197346 -0.0309858769
vn -0.07879329 0.9354338 -0.344608754
vn -0.07879329 0.9354338 -0.344608754
vn -0.07879329 0.9354338 -0.344608754
vn 0.346529454 0.775527239 -0.5277071
vn -0.1607507 0.355522037 -0.9207406
vn -0.160750687 0.355522037 -0.9207406
vn -0.160750687 0.355522037 -0.9207406
vn 0.6346323 0.0621283054 -0.7703129
vn 0.755256534 -0.2306473 0.61350584
vn 0.325616181 0.403876841 0.8549021
vn 0.7009897 -0.259013861 0.664473653
vn 0.186645076 0.2099921 0.95972234
vn 0.755122364 -0.04121466 0.6542871
vn 0.801092446 -0.08645841 0.592263341
vn 0.7632625 -0.06198323 0.6431084
vn 0.6542326 -0.09556964 0.7502307
vn 0.5355789 -0.020882016 0.844226956
vn 0.8735252 -0.02900148 0.485914171
vn -0.282210529 0.656659961 0.6993961
vn -0.301049083 0.537943959 0.7873917
vn -0.782283664 0.129767448 0.60925585
vn -0.8491872 0.3066059 0.429969639
vn -0.916130543 -0.392907321 0.0795531
vn -0.928982735 -0.370098025 0.00430798065
vn -0.9823848 -0.185076475 0.02582163
vn -0.939716 -0.143033847 0.3106045
vn -0.9784237 -0.2061908 0.0131314192
vn -0.9590102 -0.2291427 0.166712612
vn -0.9712042 -0.233200237 -0.0487852134
vn -0.966844738 -0.181379408 -0.179757357
vn -0.326396167 0.653001547 0.683413863
vn -0.350790471 0.5338257 0.7693999
usemtl 0002630004_part_0_material_0
f 1/1/1 2/2/2 3/3/3
f 4/4/4 5/5/5 6/6/6
f 7/7/7 6/6/6 5/5/5
f 5/5/5 8/8/8 7/7/7
f 9/9/9 7/7/7 8/8/8
f 10/10/10 11/11/11 6/6/6
f 4/4/4 6/6/6 11/11/11
f 8/8/8 12/12/12 9/9/9
f 13/13/13 9/9/9 12/12/12
f 14/14/14 15/15/15 13/13/13
f 16/16/16 13/13/13 15/15/15
f 14/14/14 17/17/17 10/10/10
f 11/11/11 10/10/10 17/17/17
f 18/18/18 19/19/19 20/20/20
f 21/21/21 19/19/19 22/22/22
f 23/23/23 22/22/22 19/19/19
f 19/19/19 24/24/24 25/25/25
f 24/24/24 16/16/16 25/25/25
f 26/26/26 25/25/25 16/16/16
f 27/27/27 22/22/22 28/28/28
f 23/23/23 28/28/28 22/22/22
f 29/29/29 30/30/30 28/28/28
f 19/19/19 18/18/18 23/23/23
f 31/31/31 23/23/23 18/18/18
f 31/31/31 29/29/29 23/23/23
f 28/28/28 23/23/23 29/29/29
f 32/32/32 33/33/33 34/34/34
f 35/35/35 36/36/36 28/28/28
f 30/30/30 35/35/35 28/28/28
f 37/37/37 38/38/38 39/39/39
f 40/40/40 41/41/41 42/42/42
f 43/43/43 44/44/44 45/45/45
f 46/46/46 47/47/47 48/48/48
f 20/20/20 19/19/19 49/49/49
f 50/50/50 51/51/51 52/52/52
f 53/53/53 54/54/54 55/55/55
f 30/30/30 29/29/29 56/56/56
f 57/57/57 58/58/58 59/59/59
f 39/39/39 59/59/59 37/37/37
f 58/58/58 37/37/37 59/59/59
f 32/32/32 60/60/60 33/33/33
f 53/53/53 33/33/33 60/60/60
f 60/60/60 32/32/32 43/43/43
f 61/61/61 43/43/43 32/32/32
f 33/33/33 53/53/53 62/62/62
f 63/63/63 64/64/64 65/65/65
f 66/66/66 67/67/67 68/68/68
f 61/61/61 69/69/69 70/70/70
f 71/71/71 72/72/72 73/73/73
f 33/33/33 74/74/74 69/69/69
f 61/61/61 75/75/75 43/43/43
f 76/76/76 77/77/77 78/78/78
f 34/34/34 61/61/61 32/32/32
f 79/79/79 26/26/26 35/35/35
f 36/36/36 35/35/35 26/26/26
f 80/80/80 81/81/81 82/82/82
f 83/83/83 84/84/84 85/85/85
f 86/86/86 87/87/87 88/88/88
f 89/89/89 18/18/18 20/20/20
f 29/29/29 31/31/31 56/56/56
f 90/90/90 91/91/91 92/92/92
f 92/92/92 31/31/31 18/18/18
f 93/93/93 94/94/94 95/95/95
f 96/96/96 97/97/97 98/98/98
f 99/99/99 100/100/100 101/101/101
f 102/102/102 103/103/103 104/104/104
f 6/6/6 7/7/7 22/22/22
f 21/21/21 22/22/22 7/7/7
f 9/9/9 24/24/24 7/7/7
f 21/21/21 7/7/7 24/24/24
f 6/6/6 22/22/22 10/10/10
f 27/27/27 10/10/10 22/22/22
f 16/16/16 24/24/24 13/13/13
f 9/9/9 13/13/13 24/24/24
f 17/17/17 14/14/14 12/12/12
f 13/13/13 12/12/12 14/14/14
f 10/10/10 27/27/27 14/14/14
f 15/15/15 14/14/14 27/27/27
f 69/69/69 61/61/61 34/34/34
f 69/69/69 34/34/34 33/33/33
f 105/105/105 106/106/106 107/107/107
f 108/108/108 109/109/109 110/110/110
f 111/111/111 112/112/112 54/54/54
f 113/113/113 114/114/114 115/115/115
f 111/111/111 45/45/45 116/116/116
f 117/117/117 118/118/118 119/119/119
f 21/21/21 24/24/24 19/19/19
f 27/27/27 28/28/28 15/15/15
f 49/49/49 19/19/19 25/25/25
f 26/26/26 79/79/79 25/25/25
f 49/49/49 25/25/25 79/79/79
f 15/15/15 28/28/28 36/36/36
f 26/26/26 16/16/16 36/36/36
f 15/15/15 36/36/36 16/16/16
f 45/45/45 111/111/111 43/43/43
f 60/60/60 43/43/43 111/111/111
f 111/111/111 54/54/54 60/60/60
f 53/53/53 60/60/60 54/54/54
f 56/56/56 31/31/31 120/120/120
f 121/121/121 122/122/122 123/123/123
f 124/124/124 123/123/123 122/122/122
f 125/125/125 124/124/124 122/122/122
f 126/126/126 127/127/127 128/128/128
f 129/129/129 128/128/128 127/127/127
f 130/130/130 129/129/129 127/127/127
f 125/125/125 122/122/122 131/131/131
f 132/132/132 131/131/131 121/121/121
f 122/122/122 121/121/121 131/131/131
f 133/133/133 134/134/134 135/135/135
f 136/136/136 135/135/135 134/134/134
f 134/134/134 133/133/133 137/137/137
f 138/138/138 139/139/139 140/140/140
f 141/141/141 140/140/140 139/139/139
f 139/139/139 138/138/138 142/142/142
f 143/143/143 134/134/134 137/137/137
f 134/134/134 143/143/143 136/136/136
f 144/144/144 136/136/136 143/143/143
f 145/145/145 146/146/146 147/147/147
f 148/148/148 149/149/149 150/150/150
f 151/151/151 150/150/150 149/149/149
f 152/152/152 153/153/153 148/148/148
f 149/149/149 148/148/148 153/153/153
f 151/151/151 154/154/154 150/150/150
f 155/155/155 150/150/150 154/154/154
f 156/156/156 157/157/157 152/152/152
f 153/153/153 152/152/152 157/157/157
f 158/158/158 159/159/159 156/156/156
f 160/160/160 156/156/156 159/159/159
f 154/154/154 161/161/161 155/155/155
f 160/160/160 155/155/155 161/161/161
f 162/162/162 163/163/163 164/164/164
f 165/165/165 163/163/163 166/166/166
f 167/167/167 166/166/166 163/163/163
f 168/168/168 169/169/169 163/163/163
f 170/170/170 158/158/158 168/168/168
f 169/169/169 168/168/168 158/158/158
f 165/165/165 166/166/166 171/171/171
f 172/172/172 171/171/171 166/166/166
f 171/171/171 173/173/173 174/174/174
f 175/175/175 164/164/164 165/165/165
f 163/163/163 165/165/165 164/164/164
f 171/171/171 174/174/174 165/165/165
f 175/175/175 165/165/165 174/174/174
f 176/176/176 177/177/177 178/178/178
f 171/171/171 179/179/179 180/180/180
f 171/171/171 180/180/180 173/173/173
f 181/181/181 182/182/182 183/183/183
f 184/184/184 185/185/185 186/186/186
f 187/187/187 188/188/188 189/189/189
f 190/190/190 191/191/191 192/192/192
f 193/193/193 163/163/163 162/162/162
f 194/194/194 195/195/195 196/196/196
f 197/197/197 198/198/198 199/199/199
f 200/200/200 174/174/174 173/173/173
f 201/201/201 202/202/202 203/203/203
f 202/202/202 201/201/201 183/183/183
f 181/181/181 183/183/183 201/201/201
f 199/199/199 204/204/204 177/177/177
f 178/178/178 177/177/177 204/204/204
f 205/205/205 178/178/178 189/189/189
f 204/204/204 189/189/189 178/178/178
f 206/206/206 199/199/199 177/177/177
f 207/207/207 208/208/208 209/209/209
f 210/210/210 211/211/211 212/212/212
f 213/213/213 214/214/214 205/205/205
f 215/215/215 216/216/216 217/217/217
f 214/214/214 218/218/218 177/177/177
f 189/189/189 219/219/219 205/205/205
f 220/220/220 221/221/221 222/222/222
f 178/178/178 205/205/205 176/176/176
f 179/179/179 170/170/170 180/180/180
f 223/223/223 180/180/180 170/170/170
f 224/224/224 225/225/225 226/226/226
f 227/227/227 228/228/228 229/229/229
f 230/230/230 231/231/231 232/232/232
f 162/162/162 164/164/164 233/233/233
f 200/200/200 175/175/175 174/174/174
f 234/234/234 235/235/235 236/236/236
f 164/164/164 175/175/175 234/234/234
f 237/237/237 238/238/238 239/239/239
f 240/240/240 241/241/241 242/242/242
f 243/243/243 244/244/244 245/245/245
f 246/246/246 247/247/247 248/248/248
f 167/167/167 148/148/148 166/166/166
f 150/150/150 166/166/166 148/148/148
f 167/167/167 169/169/169 148/148/148
f 152/152/152 148/148/148 169/169/169
f 172/172/172 166/166/166 155/155/155
f 150/150/150 155/155/155 166/166/166
f 152/152/152 169/169/169 156/156/156
f 158/158/158 156/156/156 169/169/169
f 156/156/156 160/160/160 157/157/157
f 161/161/161 157/157/157 160/160/160
f 159/159/159 172/172/172 160/160/160
f 155/155/155 160/160/160 172/172/172
f 176/176/176 205/205/205 214/214/214
f 177/177/177 176/176/176 214/214/214
f 249/249/249 250/250/250 251/251/251
f 252/252/252 253/253/253 254/254/254
f 198/198/198 255/255/255 256/256/256
f 257/257/257 258/258/258 259/259/259
f 260/260/260 187/187/187 256/256/256
f 261/261/261 262/262/262 263/263/263
f 163/163/163 169/169/169 167/167/167
f 159/159/159 171/171/171 172/172/172
f 168/168/168 163/163/163 193/193/193
f 193/193/193 223/223/223 168/168/168
f 170/170/170 168/168/168 223/223/223
f 179/179/179 171/171/171 159/159/159
f 159/159/159 158/158/158 179/179/179
f 170/170/170 179/179/179 158/158/158
f 204/204/204 256/256/256 189/189/189
f 187/187/187 189/189/189 256/256/256
f 199/199/199 198/198/198 204/204/204
f 256/256/256 204/204/204 198/198/198
f 264/264/264 175/175/175 200/200/200
f 265/265/265 266/266/266 267/267/267
f 268/268/268 267/267/267 266/266/266
f 266/266/266 265/265/265 269/269/269
f 270/270/270 271/271/271 272/272/272
f 273/273/273 272/272/272 271/271/271
f 271/271/271 270/270/270 274/274/274
f 275/275/275 266/266/266 269/269/269
f 266/266/266 275/275/275 268/268/268
f 276/276/276 268/268/268 275/275/275
f 277/277/277 278/278/278 279/279/279
f 280/280/280 279/279/279 278/278/278
f 281/281/281 280/280/280 278/278/278
f 282/282/282 283/283/283 284/284/284
f 285/285/285 284/284/284 283/283/283
f 286/286/286 285/285/285 283/283/283
f 281/281/281 278/278/278 287/287/287
f 288/288/288 287/287/287 277/277/277
f 278/278/278 277/277/277 287/287/287
