mtllib 0003013203.mtl
o 0003013203_part_0
v 0.2505434 0.672301769 -0.0254966374
v 0.2590491 0.62406677 -0.0111259
v 0.303595752 0.6300126 -0.049454473
v 0.26571095 0.6786677 -0.0606110021
v 0.23162441 0.5977064 -0.0329691842
v 0.21453087 0.6403637 -0.05362493
v 0.221115813 0.639536 -0.0882136449
v 0.276166618 0.6141111 -0.09656484
v 0.247233137 0.6599943 -0.09046063
v 0.21453087 0.6403637 -0.05362493
v 0.23162441 0.5977064 -0.0329691842
v 0.230719149 0.662337959 -0.02299968
v 0.260587871 0.5964136 0.00280644977
v 0.298116446 0.53261286 0.02947505
v 0.329609126 0.53101635 0.0105059193
v 0.3540978 0.526367962 -0.105434008
v 0.3142155 0.5186753 -0.119131736
v 0.284560621 0.5993223 -0.100663595
v 0.3142155 0.5186753 -0.119131736
v 0.2947359 0.52224493 0.001993418
v 0.229668677 0.5712515 -0.0331789069
v 0.334986955 0.414347827 0.0238323938
v 0.334388 0.414613634 0.001888101
v 0.362652481 0.488336772 -0.00999123
v 0.371221155 0.4984405 0.0151943825
v 0.316480815 0.498825938 -0.0260846019
v 0.320601076 0.490657657 -0.119317129
v 0.319579035 0.485673726 0.0181731954
v 0.315220773 0.422081828 0.0328172073
v 0.291295081 0.4785127 0.06358388
v 0.26179865 0.5381105 0.03967526
v 0.248863235 0.4671809 0.053461697
v 0.315220773 0.422081828 0.0328172073
v 0.319579035 0.485673726 0.0181731954
v 0.3225031 0.4205997 0.0009794864
v 0.334388 0.414613634 0.001888101
v 0.334986955 0.414347827 0.0238323938
v 0.315220773 0.422081828 0.0328172073
v 0.3225031 0.4205997 0.0009794864
v 0.2947359 0.52224493 0.001993418
v 0.277763963 0.451345026 0.0302936323
v 0.240757108 0.5298144 -0.007209296
v 0.277763963 0.451345026 0.0302936323
v 0.229668677 0.5712515 -0.0331789069
v 0.240757108 0.5298144 -0.007209296
v 0.277763963 0.451345026 0.0302936323
v 0.248863235 0.4671809 0.053461697
v 0.3215617 0.6070345 -0.0437819846
v 0.364001721 0.5422443 -0.0248881932
v 0.3528017 0.489332736 -0.107447959
v 0.320601076 0.490657657 -0.119317129
v 0.297270238 0.413854122 -0.003193461
v 0.318498641 0.4081759 -0.08625745
v 0.318498641 0.4081759 -0.08625745
v 0.317164421 0.411854684 -0.005126233
v 0.318498641 0.4081759 -0.08625745
v 0.317164421 0.411854684 -0.005126233
v 0.297270238 0.413854122 -0.003193461
v 0.362652481 0.488336772 -0.00999123
v 0.316480815 0.498825938 -0.0260846019
v -0.254407734 0.676105261 -0.0207025744
v -0.270151138 0.6825806 -0.05554241
v -0.3082781 0.634201944 -0.04369263
v -0.263100863 0.6279391 -0.0061609284
v -0.236255527 0.601386845 -0.0284861941
v -0.281803131 0.618110061 -0.09128173
v -0.2263311 0.6431363 -0.08393028
v -0.2191272 0.6439152 -0.0494640246
v -0.252338946 0.6637787 -0.0857143253
v -0.2191272 0.6439152 -0.0494640246
v -0.234613225 0.6660014 -0.0185574777
v -0.236255527 0.601386845 -0.0284861941
v -0.264585018 0.6003295 0.007793829
v -0.3339137 0.535498 0.0167116933
v -0.302078635 0.5368707 0.0351183861
v -0.360490024 0.531030059 -0.0987746939
v -0.290370554 0.6034141 -0.09523428
v -0.3209127 0.523056567 -0.113178127
v -0.3209127 0.523056567 -0.113178127
v -0.234488532 0.574951768 -0.02873341
v -0.29926008 0.526480854 0.00758170243
v -0.3398786 0.418869555 0.0301389527
v -0.375665158 0.5032168 0.0221405532
v -0.3676168 0.49305433 -0.00319264177
v -0.339667618 0.4191325 0.008187468
v -0.3216653 0.5032179 -0.0201041922
v -0.3274984 0.495084763 -0.113248318
v -0.324069828 0.490085125 0.02420248
v -0.3199018 0.426463068 0.03877079
v -0.295035124 0.482721567 0.06910409
v -0.252870947 0.471090734 0.05823059
v -0.265547425 0.54211086 0.0446715951
v -0.3199018 0.426463068 0.03877079
v -0.3277587 0.425034463 0.00706753
v -0.324069828 0.490085125 0.02420248
v -0.339667618 0.4191325 0.008187468
v -0.3277587 0.425034463 0.00706753
v -0.3199018 0.426463068 0.03877079
v -0.3398786 0.418869555 0.0301389527
v -0.29926008 0.526480854 0.00758170243
v -0.2822898 0.455461 0.0355804861
v -0.245401114 0.5336692 -0.002578753
v -0.2822898 0.455461 0.0355804861
v -0.234488532 0.574951768 -0.02873341
v -0.245401114 0.5336692 -0.002578753
v -0.252870947 0.471090734 0.05823059
v -0.2822898 0.455461 0.0355804861
v -0.326300085 0.611384034 -0.03770496
v -0.368849337 0.546971 -0.01806669
v -0.359491765 0.4939867 -0.100809008
v -0.3274984 0.495084763 -0.113248318
v -0.30265227 0.418110937 0.00244750548
v -0.325392246 0.4125881 -0.08022598
v -0.325392246 0.4125881 -0.08022598
v -0.322591275 0.416252315 0.000868506962
v -0.325392246 0.4125881 -0.08022598
v -0.30265227 0.418110937 0.00244750548
v -0.322591275 0.416252315 0.000868506962
v -0.3216653 0.5032179 -0.0201041922
v -0.3676168 0.49305433 -0.00319264177
v -0.2436738 0.669191062 -0.140285537
v -0.284415275 0.6145626 -0.129703268
v -0.34015584 0.663212657 -0.0888398141
v -0.2994143 0.7178411 -0.09942208
v -0.332945049 0.6748366 -0.005433946
v -0.292203456 0.729465067 -0.0160162263
v -0.269993722 0.6378106 0.037108466
v -0.229252174 0.6924391 0.026526181
v -0.214253232 0.5891606 -0.00375500158
v -0.1735117 0.643789053 -0.0143372808
v -0.221464053 0.5775365 -0.08716085
v -0.180722475 0.632165 -0.09774313
v -0.180722475 0.632165 -0.09774313
v -0.221464053 0.5775365 -0.08716085
v -0.1735117 0.643789053 -0.0143372808
v -0.180722475 0.632165 -0.09774313
v -0.2436738 0.669191062 -0.140285537
v -0.2994143 0.7178411 -0.09942208
v -0.292203456 0.729465067 -0.0160162263
v -0.229252174 0.6924391 0.026526181
v -0.34015584 0.663212657 -0.0888398141
v -0.284415275 0.6145626 -0.129703268
v -0.221464053 0.5775365 -0.08716085
v -0.214253232 0.5891606 -0.00375500158
v -0.269993722 0.6378106 0.037108466
v -0.332945049 0.6748366 -0.005433946
v -0.312071621 0.6897526 -0.0698358342
v -0.3533409 0.7241947 -0.0473893359
v -0.295454919 0.7133759 -0.03904672
v -0.3227079 0.675769866 -0.0314495526
v -0.293841958 0.689367056 -0.006349529
v -0.295438766 0.702007353 0.0504917651
v -0.254441053 0.6932202 0.008308934
v -0.281693935 0.655614138 0.0159060862
v -0.239847854 0.654344141 0.0139763569
v -0.199622557 0.632467449 0.04998447
v -0.202599838 0.6527947 -0.0058310004
v -0.229852766 0.615188658 0.00176614337
v -0.203433767 0.618802845 -0.0313272551
v -0.161632642 0.5842234 -0.0525449365
v -0.192140132 0.6323129 -0.06969503
v -0.219393134 0.594706655 -0.06209786
v -0.2219517 0.6189774 -0.09689135
v -0.220934823 0.6067371 -0.153833464
v -0.2342484 0.6529107 -0.118788131
v -0.2615014 0.6153046 -0.111190967
v -0.2766361 0.654691 -0.116275266
v -0.317434 0.677193761 -0.151238322
v -0.286253452 0.693715155 -0.1033609
v -0.313506424 0.656109 -0.09576371
v 0.237335876 0.665448666 -0.144919977
v 0.2941359 0.71370095 -0.105056018
v 0.334671736 0.658785164 -0.09519562
v 0.277871639 0.6105329 -0.13505958
v 0.2884899 0.725370347 -0.0215359665
v 0.3290258 0.6704545 -0.0116755543
v 0.226043984 0.6887875 0.0221201349
v 0.266579866 0.6338718 0.03198055
v 0.169244021 0.640535355 -0.0177438334
v 0.209779888 0.5856196 -0.007883421
v 0.174889922 0.6288659 -0.101263881
v 0.2154258 0.5739501 -0.09140347
v 0.174889922 0.6288659 -0.101263881
v 0.2154258 0.5739501 -0.09140347
v 0.237335876 0.665448666 -0.144919977
v 0.174889922 0.6288659 -0.101263881
v 0.169244021 0.640535355 -0.0177438334
v 0.226043984 0.6887875 0.0221201349
v 0.2884899 0.725370347 -0.0215359665
v 0.2941359 0.71370095 -0.105056018
v 0.2154258 0.5739501 -0.09140347
v 0.277871639 0.6105329 -0.13505958
v 0.334671736 0.658785164 -0.09519562
v 0.3290258 0.6704545 -0.0116755543
v 0.266579866 0.6338718 0.03198055
v 0.209779888 0.5856196 -0.007883421
v 0.30711782 0.6855217 -0.07569749
v 0.291217983 0.709260046 -0.0446195751
v 0.349021673 0.719669938 -0.05398967
v 0.3183351 0.671461761 -0.0375052951
v 0.290016353 0.68526113 -0.0118973879
v 0.2509102 0.689391732 0.00345832272
v 0.294890583 0.6978421 0.03181266
v 0.278027236 0.6515935 0.0105725918
v 0.236145541 0.6506195 0.009386479
v 0.198541567 0.6493346 -0.009756093
v 0.196412474 0.6290254 0.04610473
v 0.22565861 0.6115364 -0.00264183851
v 0.198682219 0.615339339 -0.0352610163
v 0.1868047 0.6289313 -0.0734230056
v 0.156267449 0.581057549 -0.0557307564
v 0.213921815 0.5911329 -0.0663087144
v 0.2160335 0.615387142 -0.101143688
v 0.228178933 0.649234 -0.123257533
v 0.213918939 0.6031579 -0.158057988
v 0.255296052 0.6114357 -0.116143264
v 0.270616084 0.6507145 -0.121498041
v 0.280736923 0.689668834 -0.108758956
v 0.310944647 0.672930539 -0.1571816
v 0.307854027 0.6518705 -0.101644658
vt 0.6624373 0.9137855
vt 0.7416543 0.7668489
vt 0.5894247 0.7637305
vt 0.577564538 0.918624
vt 0.260475576 0.7471549
vt 0.249819651 0.910982
vt 0.3696749 0.917038441
vt 0.4259516 0.754030347
vt 0.4243302 0.9160072
vt 0.896876454 0.9454623
vt 0.9059819 0.7813801
vt 0.7445162 0.9191731
vt 0.762045145 0.689600945
vt 0.8479141 0.463940024
vt 0.759783864 0.423545182
vt 0.4977723 0.4294858
vt 0.434729725 0.451269865
vt 0.43833068 0.68819356
vt 0.436383039 0.4536153
vt 0.162656054 0.435513437
vt 0.2643949 0.686898
vt 0.769713163 0.0180307031
vt 0.717639 0.0163198113
vt 0.6744678 0.262051463
vt 0.728376567 0.285902143
vt 0.2799526 0.302302957
vt 0.440470666 0.332010269
vt 0.782748044 0.2686516
vt 0.80962193 0.03482312
vt 0.948195755 0.2725438
vt 0.8986057 0.5189861
vt 0.990572 0.299268
vt 0.222849578 0.05766207
vt 0.161201864 0.290766239
vt 0.29548645 0.05127555
vt 0.118253909 0.9847394
vt 0.0210896954 0.9897238
vt 0.0179678425 0.9322822
vt 0.1027604 0.941763639
vt 0.812134564 0.403728962
vt 0.9057217 0.250126123
vt 0.982486248 0.55306673
vt 0.989591 0.235755265
vt 0.909331 0.7210294
vt 0.0408421569 0.5430646
vt 0.0628253147 0.253462374
vt 0.011271188 0.2733016
vt 0.5951085 0.6895008
vt 0.657954454 0.415649056
vt 0.491987258 0.318349957
vt 0.446749419 0.335356832
vt 0.309347868 0.06322068
vt 0.452879637 0.0594522953
vt 0.50126487 0.0606300831
vt 0.6612959 0.0494206548
vt 0.712714 0.967950344
vt 0.535438836 0.986327052
vt 0.52886796 0.946272254
vt 0.3225559 0.99343884
vt 0.291576475 0.92766577
vt 0.6624373 0.9137855
vt 0.577564538 0.918624
vt 0.5894247 0.7637305
vt 0.7416543 0.7668489
vt 0.260475576 0.7471549
vt 0.4259516 0.754030347
vt 0.3696749 0.917038441
vt 0.249819651 0.910982
vt 0.4243302 0.9160072
vt 0.896876454 0.9454623
vt 0.7445162 0.9191731
vt 0.9059819 0.7813801
vt 0.762045145 0.689600945
vt 0.759783864 0.423545182
vt 0.8479141 0.463940024
vt 0.4977723 0.4294858
vt 0.43833068 0.68819356
vt 0.434729725 0.451269865
vt 0.436383039 0.4536153
vt 0.2643949 0.686898
vt 0.162656054 0.435513437
vt 0.769713163 0.0180307031
vt 0.728376567 0.285902143
vt 0.6744678 0.262051463
vt 0.717639 0.0163198113
vt 0.2799526 0.302302957
vt 0.440470666 0.332010269
vt 0.782748044 0.2686516
vt 0.80962193 0.03482312
vt 0.948195755 0.2725438
vt 0.990572 0.299268
vt 0.8986057 0.5189861
vt 0.222849578 0.05766207
vt 0.29548645 0.05127555
vt 0.161201864 0.290766239
vt 0.118253909 0.9847394
vt 0.1027604 0.941763639
vt 0.0179678425 0.9322822
vt 0.0210896954 0.9897238
vt 0.812134564 0.403728962
vt 0.9057217 0.250126123
vt 0.982486248 0.55306673
vt 0.989591 0.235755265
vt 0.909331 0.7210294
vt 0.0408421569 0.5430646
vt 0.011271188 0.2733016
vt 0.0628253147 0.253462374
vt 0.5951085 0.6895008
vt 0.657954454 0.415649056
vt 0.491987258 0.318349957
vt 0.446749419 0.335356832
vt 0.309347868 0.06322068
vt 0.452879637 0.0594522953
vt 0.50126487 0.0606300831
vt 0.6612959 0.0494206548
vt 0.712714 0.967950344
vt 0.52886796 0.946272254
vt 0.535438836 0.986327052
vt 0.291576475 0.92766577
vt 0.3225559 0.99343884
vt 0.09000907 0.662840545
vt 0.0282199346 0.662840545
vt 0.0282199346 0.7085785
vt 0.09000907 0.7085785
vt 0.0282199346 0.7542883
vt 0.09000907 0.7542883
vt 0.0282199346 0.800677836
vt 0.09000907 0.800677836
vt 0.0282199346 0.8471319
vt 0.09000907 0.8471319
vt 0.0282199346 0.8947723
vt 0.09000907 0.8947723
vt 0.09000907 0.615390837
vt 0.0282199346 0.615390837
vt 0.8714134 0.0279192924
vt 0.9444995 0.0279192924
vt 0.981042743 0.09121394
vt 0.9444995 0.154508471
vt 0.8714134 0.154508471
vt 0.8348702 0.09121394
vt 0.9444995 0.154508471
vt 0.981042743 0.09121394
vt 0.9444995 0.0279192924
vt 0.8714134 0.0279192924
vt 0.8348702 0.09121394
vt 0.8714134 0.154508471
vt 0.155897319 0.09599304
vt 0.06872227 0.09599304
vt 0.02143243 0.1728515
vt 0.0214325227 0.0191347
vt 0.155897319 0.09599304
vt 0.06872227 0.09599304
vt 0.02143243 0.1728515
vt 0.0214325227 0.0191347
vt 0.155897319 0.09599304
vt 0.06872227 0.09599304
vt 0.02143243 0.1728515
vt 0.0214325227 0.0191347
vt 0.155897319 0.09599304
vt 0.06872227 0.09599304
vt 0.02143243 0.1728515
vt 0.0214325227 0.0191347
vt 0.155897319 0.09599304
vt 0.06872227 0.09599304
vt 0.02143243 0.1728515
vt 0.0214325227 0.0191347
vt 0.155897319 0.09599304
vt 0.06872227 0.09599304
vt 0.02143243 0.1728515
vt 0.0214325227 0.0191347
vt 0.09000907 0.662840545
vt 0.09000907 0.7085785
vt 0.0282199346 0.7085785
vt 0.0282199346 0.662840545
vt 0.09000907 0.7542883
vt 0.0282199346 0.7542883
vt 0.09000907 0.800677836
vt 0.0282199346 0.800677836
vt 0.09000907 0.8471319
vt 0.0282199346 0.8471319
vt 0.09000907 0.8947723
vt 0.0282199346 0.8947723
vt 0.09000907 0.615390837
vt 0.0282199346 0.615390837
vt 0.981042743 0.09121394
vt 0.9444995 0.0279192924
vt 0.8714134 0.0279192924
vt 0.8348702 0.09121394
vt 0.8714134 0.154508471
vt 0.9444995 0.154508471
vt 0.9444995 0.0279192924
vt 0.981042743 0.09121394
vt 0.9444995 0.154508471
vt 0.8714134 0.154508471
vt 0.8348702 0.09121394
vt 0.8714134 0.0279192924
vt 0.155897319 0.09599304
vt 0.02143243 0.1728515
vt 0.06872227 0.09599304
vt 0.0214325227 0.0191347
vt 0.155897319 0.09599304
vt 0.02143243 0.1728515
vt 0.06872227 0.09599304
vt 0.0214325227 0.0191347
vt 0.155897319 0.09599304
vt 0.02143243 0.1728515
vt 0.06872227 0.09599304
vt 0.0214325227 0.0191347
vt 0.155897319 0.09599304
vt 0.02143243 0.1728515
vt 0.06872227 0.09599304
vt 0.0214325227 0.0191347
vt 0.155897319 0.09599304
vt 0.02143243 0.1728515
vt 0.06872227 0.09599304
vt 0.0214325227 0.0191347
vt 0.155897319 0.09599304
vt 0.02143243 0.1728515
vt 0.06872227 0.09599304
vt 0.0214325227 0.0191347
vn 0.421684563 0.444994 0.790039539
vn -0.0284776967 0.307123154 0.9512436
vn 0.8039079 0.589274943 0.0805429146
vn 0.775401056 0.616013944 -0.138852566
vn -0.9783994 -0.06380117 0.196631759
vn -0.905665338 -0.337280482 0.256928444
vn -0.5199221 -0.479458123 -0.706966043
vn 0.06854411 0.123617291 -0.989959836
vn 0.301795572 0.310240746 -0.901482165
vn -0.905665338 -0.337280482 0.256928444
vn -0.9783994 -0.06380117 0.196631759
vn -0.438325047 -0.0459703356 0.897640169
vn -0.23109524 0.465883881 0.854135334
vn 0.684372246 0.176609442 0.707420468
vn 0.2876981 0.343943417 0.893830359
vn 0.7539443 0.239299014 -0.6118039
vn -0.406460732 -0.140785918 -0.902756333
vn -0.0585138574 0.298030138 -0.952761352
vn -0.406460732 -0.140785918 -0.902756333
vn -0.141634569 -0.9700075 -0.1975477
vn -0.969209969 -0.237969011 -0.063267976
vn 0.4155717 -0.748219967 0.517172158
vn 0.3102155 -0.821082354 -0.4791556
vn 0.9362063 -0.302419156 -0.17905429
vn 0.815140665 0.06640531 0.5754442
vn -0.9599111 -0.278291 -0.0335373469
vn -0.447869122 -0.163691446 -0.878987134
vn -0.595193744 0.037231788 0.8027193
vn -0.529320955 -0.3834115 0.7568454
vn 0.579077661 -0.2297632 0.782226264
vn -0.3886905 0.449755281 0.8041392
vn -0.7184719 -0.4882368 0.495401859
vn -0.529320955 -0.3834115 0.7568454
vn -0.595193744 0.037231788 0.8027193
vn -0.613573134 -0.5627 -0.5539827
vn 0.3102155 -0.821082354 -0.4791556
vn 0.4155717 -0.748219967 0.517172158
vn -0.529320955 -0.3834115 0.7568454
vn -0.613573134 -0.5627 -0.5539827
vn -0.141634569 -0.9700075 -0.1975477
vn 0.211279318 -0.9358078 -0.28217867
vn -0.8265193 -0.318418324 -0.464193463
vn 0.211279318 -0.9358078 -0.28217867
vn -0.969209969 -0.237969011 -0.063267976
vn -0.8265193 -0.318418324 -0.464193463
vn 0.211279318 -0.9358078 -0.28217867
vn -0.7184719 -0.4882368 0.495401859
vn 0.7371004 0.6571654 0.157533
vn 0.891498 0.4020743 0.208728343
vn 0.766522467 -0.223234147 -0.602170944
vn -0.447869122 -0.163691446 -0.878987134
vn -0.655571938 -0.403850257 0.6380677
vn -0.06178797 -0.85092473 -0.5216411
vn -0.06178797 -0.85092473 -0.5216411
vn 0.409164071 -0.631395936 0.658729
vn -0.06178797 -0.85092473 -0.5216411
vn 0.409164071 -0.631395936 0.658729
vn -0.655571938 -0.403850257 0.6380677
vn 0.9362063 -0.302419156 -0.17905429
vn -0.9599111 -0.278291 -0.0335373469
vn -0.403589129 0.448790431 0.7973098
vn -0.772484958 0.622541 -0.125338137
vn -0.797537148 0.595792651 0.09468694
vn 0.0471559875 0.307268918 0.950453639
vn 0.9811538 -0.0713091046 0.179589286
vn -0.085088186 0.124614432 -0.988550067
vn 0.503313065 -0.484150827 -0.7157332
vn 0.906941056 -0.3454733 0.241052136
vn -0.314928144 0.312439442 -0.8962153
vn 0.906941056 -0.3454733 0.241052136
vn 0.453867882 -0.0499393679 0.889668465
vn 0.9811538 -0.0713091046 0.179589286
vn 0.249631763 0.464534 0.849642336
vn -0.26926586 0.346082419 0.898734033
vn -0.6704569 0.181616485 0.7193768
vn -0.7629233 0.244865686 -0.5983217
vn 0.0438883938 0.298113555 -0.9535209
vn 0.389297724 -0.143463492 -0.909871161
vn 0.389297724 -0.143463492 -0.909871161
vn 0.9661634 -0.245038867 -0.080524765
vn 0.131089389 -0.9710339 -0.1997718
vn -0.411599129 -0.7452962 0.5245186
vn -0.8043017 0.07212958 0.58982724
vn -0.9413532 -0.295782655 -0.162378609
vn -0.32447347 -0.818838954 -0.473518461
vn 0.95717293 -0.2850673 -0.05056347
vn 0.431018949 -0.166797817 -0.8867926
vn 0.6096055 0.032973256 0.7920189
vn 0.5399561 -0.3871909 0.7473491
vn -0.566702843 -0.225712776 0.792402446
vn 0.723687947 -0.493334472 0.482593864
vn 0.406044424 0.44713378 0.7969939
vn 0.5399561 -0.3871909 0.7473491
vn 0.599644363 -0.5669883 -0.564757347
vn 0.6096055 0.032973256 0.7920189
vn -0.32447347 -0.818838954 -0.473518461
vn 0.599644363 -0.5669883 -0.564757347
vn 0.5399561 -0.3871909 0.7473491
vn -0.411599129 -0.7452962 0.5245186
vn 0.131089389 -0.9710339 -0.1997718
vn -0.222867712 -0.9342733 -0.278322518
vn 0.815982163 -0.32441026 -0.478467464
vn -0.222867712 -0.9342733 -0.278322518
vn 0.9661634 -0.245038867 -0.080524765
vn 0.815982163 -0.32441026 -0.478467464
vn 0.723687947 -0.493334472 0.482593864
vn -0.222867712 -0.9342733 -0.278322518
vn -0.729177952 0.662741661 0.170507938
vn -0.8847028 0.408559829 0.224454433
vn -0.778655648 -0.217772529 -0.5884476
vn 0.431018949 -0.166797817 -0.8867926
vn 0.663930058 -0.408514351 0.626348853
vn 0.0464968272 -0.8513078 -0.5226022
vn 0.0464968272 -0.8513078 -0.5226022
vn -0.401852876 -0.628528655 0.6659324
vn 0.0464968272 -0.8513078 -0.5226022
vn 0.663930058 -0.408514351 0.626348853
vn -0.401852876 -0.628528655 0.6659324
vn 0.95717293 -0.2850673 -0.05056347
vn -0.9413532 -0.295782655 -0.162378609
vn 0.290340543 0.379129946 -0.8786142
vn -0.422098726 -0.592337847 -0.6862715
vn -0.9433794 -0.133604586 -0.30362007
vn -0.23009932 0.8373038 -0.495960325
vn -0.877267838 -0.02706077 0.479237735
vn -0.1644958 0.9439934 0.2860377
vn -0.2903405 -0.379129738 0.878614247
vn 0.422099084 0.5923379 0.6862712
vn 0.230099753 -0.8373034 0.4959608
vn 0.943379343 0.133605 0.303619981
vn 0.164495915 -0.9439935 -0.286037236
vn 0.877267957 0.0270599369 -0.479237646
vn 0.877267957 0.0270599369 -0.479237646
vn 0.164495915 -0.9439935 -0.286037236
vn 0.943379343 0.133605 0.303619981
vn 0.877267957 0.0270599369 -0.479237646
vn 0.290340543 0.379129946 -0.8786142
vn -0.23009932 0.8373038 -0.495960325
vn -0.1644958 0.9439934 0.2860377
vn 0.422099084 0.5923379 0.6862712
vn -0.9433794 -0.133604586 -0.30362007
vn -0.422098726 -0.592337847 -0.6862715
vn 0.164495915 -0.9439935 -0.286037236
vn 0.230099753 -0.8373034 0.4959608
vn -0.2903405 -0.379129738 0.878614247
vn -0.877267838 -0.02706077 0.479237735
vn -0.403374523 0.108782358 -0.908545732
vn -0.810674846 0.5854057 -0.0103201186
vn 0.137390286 0.9503677 0.279150724
vn -0.7821696 -0.318526119 0.5354922
vn -0.8147901 0.5606609 -0.1475685
vn -0.351090819 0.423172832 0.835260451
vn 0.6116649 0.6432956 0.46047464
vn -0.30789572 -0.6255992 0.7168165
vn -0.433339149 0.4694522 0.769306064
vn 0.459512 -0.156381041 0.8742961
vn 0.9439959 0.323023647 0.0672868043
vn 0.02443622 -0.945869 0.323627263
vn 0.38689965 -0.09508941 0.9172059
vn 0.812450945 -0.5820882 0.03311841
vn 0.7907834 0.314362645 -0.5252026
vn -0.128776476 -0.9545314 -0.2688615
vn 0.815063357 -0.563271165 0.135636866
vn 0.34207505 -0.417923957 -0.841619968
vn 0.3021435 0.6300643 -0.7153519
vn -0.6174183 -0.638830066 -0.45901072
vn 0.41726613 -0.460650146 -0.783383965
vn -0.474949569 0.169751212 -0.863485634
vn -0.0267539062 0.9502064 -0.3104706
vn -0.946313441 -0.318686455 -0.0541275777
vn -0.303212583 0.3812281 -0.8733426
vn 0.227167368 0.8356876 -0.5000213
vn 0.93686986 -0.140251234 -0.320319355
vn 0.405645132 -0.5952637 -0.6936232
vn 0.176219285 0.9427889 0.283012033
vn 0.8854281 -0.03329227 0.463582575
vn -0.405645967 0.595263243 0.6936231
vn 0.303212583 -0.38122797 0.873342633
vn -0.9368699 0.140251234 0.3203192
vn -0.227167457 -0.8356873 0.5000217
vn -0.8854282 0.03329121 -0.463582426
vn -0.176219538 -0.9427891 -0.283011347
vn -0.8854282 0.03329121 -0.463582426
vn -0.176219538 -0.9427891 -0.283011347
vn -0.303212583 0.3812281 -0.8733426
vn -0.8854282 0.03329121 -0.463582426
vn -0.9368699 0.140251234 0.3203192
vn -0.405645967 0.595263243 0.6936231
vn 0.176219285 0.9427889 0.283012033
vn 0.227167368 0.8356876 -0.5000213
vn -0.176219538 -0.9427891 -0.283011347
vn 0.405645132 -0.5952637 -0.6936232
vn 0.93686986 -0.140251234 -0.320319355
vn 0.8854281 -0.03329227 0.463582575
vn 0.303212583 -0.38122797 0.873342633
vn -0.227167457 -0.8356873 0.5000217
vn 0.387933731 0.105984606 -0.9155734
vn -0.125689909 0.9512975 0.281487316
vn 0.8144809 0.5796621 -0.0247535035
vn 0.789286554 -0.3240806 0.5215348
vn 0.812602639 0.5297065 -0.243080139
vn -0.5037081 0.626769841 0.594506264
vn 0.480617166 0.49752146 0.7221354
vn 0.315749943 -0.488660663 0.813334346
vn 0.450241536 0.466329157 0.761458933
vn -0.940345049 0.3296839 0.08402203
vn -0.44500494 -0.153184161 0.8823294
vn -0.0253696479 -0.9456931 0.32406944
vn -0.371210635 -0.09240983 0.9239389
vn -0.7977449 0.319977641 -0.5110943
vn -0.81582886 -0.576332748 0.04757958
vn 0.117230669 -0.9554008 -0.271046579
vn -0.8164872 -0.5575038 0.150127038
vn -0.310339659 0.6322298 -0.7099118
vn -0.359915078 -0.415442 -0.835385561
vn 0.6046369 -0.6431498 -0.469864458
vn -0.4343605 -0.457638741 -0.7758207
vn 0.0279512517 0.9500135 -0.310955
vn 0.4607262 0.166444868 -0.871795535
vn 0.942926347 -0.32536456 -0.0709071755
usemtl 0003013203_part_0_material_0
f 1/1/1 2/2/2 3/3/3
f 3/3/3 4/4/4 1/1/1
f 5/5/5 6/6/6 7/7/7
f 7/7/7 8/8/8 5/5/5
f 7/7/7 9/9/9 8/8/8
f 10/10/10 11/11/11 2/2/2
f 2/2/2 12/12/12 10/10/10
f 12/12/12 2/2/2 1/1/1
f 13/13/13 14/14/14 15/15/15
f 16/16/16 17/17/17 18/18/18
f 19/19/19 20/20/20 21/21/21
f 21/21/21 18/18/18 19/19/19
f 22/22/22 23/23/23 24/24/24
f 24/24/24 25/25/25 22/22/22
f 26/26/26 20/20/20 19/19/19
f 19/19/19 27/27/27 26/26/26
f 28/28/28 29/29/29 22/22/22
f 22/22/22 25/25/25 28/28/28
f 30/30/30 14/14/14 31/31/31
f 31/31/31 32/32/32 30/30/30
f 33/33/33 34/34/34 26/26/26
f 26/26/26 35/35/35 33/33/33
f 36/36/36 37/37/37 38/38/38
f 38/38/38 39/39/39 36/36/36
f 40/40/40 14/14/14 30/30/30
f 30/30/30 41/41/41 40/40/40
f 31/31/31 42/42/42 32/32/32
f 30/30/30 32/32/32 43/43/43
f 14/14/14 13/13/13 31/31/31
f 42/42/42 31/31/31 13/13/13
f 13/13/13 44/44/44 42/42/42
f 45/45/45 21/21/21 20/20/20
f 45/45/45 20/20/20 46/46/46
f 46/46/46 47/47/47 45/45/45
f 48/48/48 49/49/49 16/16/16
f 16/16/16 18/18/18 48/48/48
f 50/50/50 16/16/16 49/49/49
f 49/49/49 24/24/24 50/50/50
f 50/50/50 51/51/51 17/17/17
f 17/17/17 16/16/16 50/50/50
f 15/15/15 28/28/28 25/25/25
f 25/25/25 49/49/49 15/15/15
f 52/52/52 26/26/26 27/27/27
f 27/27/27 53/53/53 52/52/52
f 26/26/26 34/34/34 20/20/20
f 40/40/40 28/28/28 15/15/15
f 50/50/50 54/54/54 51/51/51
f 25/25/25 24/24/24 49/49/49
f 48/48/48 15/15/15 49/49/49
f 50/50/50 24/24/24 55/55/55
f 55/55/55 54/54/54 50/50/50
f 56/56/56 57/57/57 58/58/58
f 57/57/57 59/59/59 60/60/60
f 60/60/60 58/58/58 57/57/57
f 60/60/60 59/59/59 36/36/36
f 36/36/36 39/39/39 60/60/60
f 15/15/15 14/14/14 40/40/40
f 8/8/8 9/9/9 4/4/4
f 4/4/4 3/3/3 8/8/8
f 13/13/13 15/15/15 48/48/48
f 11/11/11 44/44/44 13/13/13
f 13/13/13 2/2/2 11/11/11
f 13/13/13 48/48/48 3/3/3
f 3/3/3 2/2/2 13/13/13
f 3/3/3 48/48/48 18/18/18
f 18/18/18 8/8/8 3/3/3
f 8/8/8 18/18/18 21/21/21
f 21/21/21 5/5/5 8/8/8
f 61/61/61 62/62/62 63/63/63
f 63/63/63 64/64/64 61/61/61
f 65/65/65 66/66/66 67/67/67
f 67/67/67 68/68/68 65/65/65
f 67/67/67 66/66/66 69/69/69
f 70/70/70 71/71/71 64/64/64
f 64/64/64 72/72/72 70/70/70
f 71/71/71 61/61/61 64/64/64
f 73/73/73 74/74/74 75/75/75
f 76/76/76 77/77/77 78/78/78
f 79/79/79 77/77/77 80/80/80
f 80/80/80 81/81/81 79/79/79
f 82/82/82 83/83/83 84/84/84
f 84/84/84 85/85/85 82/82/82
f 86/86/86 87/87/87 79/79/79
f 79/79/79 81/81/81 86/86/86
f 88/88/88 83/83/83 82/82/82
f 82/82/82 89/89/89 88/88/88
f 90/90/90 91/91/91 92/92/92
f 92/92/92 75/75/75 90/90/90
f 93/93/93 94/94/94 86/86/86
f 86/86/86 95/95/95 93/93/93
f 96/96/96 97/97/97 98/98/98
f 98/98/98 99/99/99 96/96/96
f 100/100/100 101/101/101 90/90/90
f 90/90/90 75/75/75 100/100/100
f 92/92/92 91/91/91 102/102/102
f 90/90/90 103/103/103 91/91/91
f 75/75/75 92/92/92 73/73/73
f 102/102/102 104/104/104 73/73/73
f 73/73/73 92/92/92 102/102/102
f 105/105/105 81/81/81 80/80/80
f 105/105/105 106/106/106 107/107/107
f 107/107/107 81/81/81 105/105/105
f 108/108/108 77/77/77 76/76/76
f 76/76/76 109/109/109 108/108/108
f 110/110/110 84/84/84 109/109/109
f 109/109/109 76/76/76 110/110/110
f 110/110/110 76/76/76 78/78/78
f 78/78/78 111/111/111 110/110/110
f 74/74/74 109/109/109 83/83/83
f 83/83/83 88/88/88 74/74/74
f 112/112/112 113/113/113 87/87/87
f 87/87/87 86/86/86 112/112/112
f 86/86/86 81/81/81 95/95/95
f 100/100/100 74/74/74 88/88/88
f 110/110/110 111/111/111 114/114/114
f 83/83/83 109/109/109 84/84/84
f 108/108/108 109/109/109 74/74/74
f 110/110/110 114/114/114 115/115/115
f 115/115/115 84/84/84 110/110/110
f 116/116/116 117/117/117 118/118/118
f 118/118/118 117/117/117 119/119/119
f 119/119/119 120/120/120 118/118/118
f 119/119/119 97/97/97 96/96/96
f 96/96/96 120/120/120 119/119/119
f 74/74/74 100/100/100 75/75/75
f 66/66/66 63/63/63 62/62/62
f 62/62/62 69/69/69 66/66/66
f 73/73/73 108/108/108 74/74/74
f 72/72/72 64/64/64 73/73/73
f 73/73/73 104/104/104 72/72/72
f 73/73/73 64/64/64 63/63/63
f 63/63/63 108/108/108 73/73/73
f 63/63/63 66/66/66 77/77/77
f 77/77/77 108/108/108 63/63/63
f 66/66/66 65/65/65 80/80/80
f 80/80/80 77/77/77 66/66/66
f 121/121/121 122/122/122 123/123/123
f 123/123/123 124/124/124 121/121/121
f 124/124/124 123/123/123 125/125/125
f 125/125/125 126/126/126 124/124/124
f 126/126/126 125/125/125 127/127/127
f 127/127/127 128/128/128 126/126/126
f 128/128/128 127/127/127 129/129/129
f 129/129/129 130/130/130 128/128/128
f 130/130/130 129/129/129 131/131/131
f 131/131/131 132/132/132 130/130/130
f 133/133/133 134/134/134 122/122/122
f 122/122/122 121/121/121 133/133/133
f 135/135/135 136/136/136 137/137/137
f 137/137/137 138/138/138 139/139/139
f 135/135/135 137/137/137 139/139/139
f 135/135/135 139/139/139 140/140/140
f 141/141/141 142/142/142 143/143/143
f 143/143/143 144/144/144 145/145/145
f 141/141/141 143/143/143 145/145/145
f 141/141/141 145/145/145 146/146/146
f 147/147/147 148/148/148 149/149/149
f 149/149/149 148/148/148 150/150/150
f 150/150/150 148/148/148 147/147/147
f 151/151/151 152/152/152 153/153/153
f 153/153/153 152/152/152 154/154/154
f 154/154/154 152/152/152 151/151/151
f 155/155/155 156/156/156 157/157/157
f 157/157/157 156/156/156 158/158/158
f 158/158/158 156/156/156 155/155/155
f 159/159/159 160/160/160 161/161/161
f 161/161/161 160/160/160 162/162/162
f 162/162/162 160/160/160 159/159/159
f 163/163/163 164/164/164 165/165/165
f 165/165/165 164/164/164 166/166/166
f 166/166/166 164/164/164 163/163/163
f 167/167/167 168/168/168 169/169/169
f 169/169/169 168/168/168 170/170/170
f 170/170/170 168/168/168 167/167/167
f 171/171/171 172/172/172 173/173/173
f 173/173/173 174/174/174 171/171/171
f 172/172/172 175/175/175 176/176/176
f 176/176/176 173/173/173 172/172/172
f 175/175/175 177/177/177 178/178/178
f 178/178/178 176/176/176 175/175/175
f 177/177/177 179/179/179 180/180/180
f 180/180/180 178/178/178 177/177/177
f 179/179/179 181/181/181 182/182/182
f 182/182/182 180/180/180 179/179/179
f 183/183/183 171/171/171 174/174/174
f 174/174/174 184/184/184 183/183/183
f 185/185/185 186/186/186 187/187/187
f 187/187/187 188/188/188 189/189/189
f 185/185/185 187/187/187 189/189/189
f 185/185/185 189/189/189 190/190/190
f 191/191/191 192/192/192 193/193/193
f 193/193/193 194/194/194 195/195/195
f 191/191/191 193/193/193 195/195/195
f 191/191/191 195/195/195 196/196/196
f 197/197/197 198/198/198 199/199/199
f 198/198/198 200/200/200 199/199/199
f 200/200/200 197/197/197 199/199/199
f 201/201/201 202/202/202 203/203/203
f 202/202/202 204/204/204 203/203/203
f 204/204/204 201/201/201 203/203/203
f 205/205/205 206/206/206 207/207/207
f 206/206/206 208/208/208 207/207/207
f 208/208/208 205/205/205 207/207/207
f 209/209/209 210/210/210 211/211/211
f 210/210/210 212/212/212 211/211/211
f 212/212/212 209/209/209 211/211/211
f 213/213/213 214/214/214 215/215/215
f 214/214/214 216/216/216 215/215/215
f 216/216/216 213/213/213 215/215/215
f 217/217/217 218/218/218 219/219/219
f 218/218/218 220/220/220 219/219/219
f 220/220/220 217/217/217 219/219/219
