mtllib 0003070002.mtl
o 0003070002_part_0
v 0.09301047 0.444960982 -0.169622958
v 0.08250457 0.4919424 -0.141499549
v 0.163462341 0.51127696 -0.07235361
v 0.198863849 0.461635977 -0.0806048438
v 0.119564109 0.4504056 0.08622731
v 0.195255429 0.468341768 0.0289035235
v 0.159935325 0.5164943 0.025023615
v 0.102059186 0.495194972 0.0740188956
v -0.00370665966 0.449340343 0.125889063
v -0.00171730341 0.5035886 0.104803935
v 0.198863849 0.461635977 -0.0806048438
v 0.163462341 0.51127696 -0.07235361
v -0.006419271 0.450154871 -0.204154357
v -0.00529015344 0.506512165 -0.17002289
v 0.08462772 0.595383644 -0.134878442
v 0.07901799 0.6925618 -0.09436063
v 0.111441746 0.6978688 -0.041644536
v 0.1579306 0.6100025 -0.06915125
v 0.143966317 0.6011237 0.0221858714
v 0.106549233 0.6886383 0.0209720489
v 0.06903716 0.6689863 0.0652474
v 0.09190784 0.599862039 0.0725979358
v -0.00116750784 0.6624921 0.07154168
v -0.002607541 0.5977825 0.09009755
v 0.111441746 0.6978688 -0.041644536
v 0.1579306 0.6100025 -0.06915125
v -0.00275619887 0.687640131 -0.117346942
v -0.00592490751 0.593927741 -0.16287446
v 0.06903716 0.6689863 0.0652474
v 0.106549233 0.6886383 0.0209720489
v 0.111441746 0.6978688 -0.041644536
v 0.111441746 0.6978688 -0.041644536
v 0.07901799 0.6925618 -0.09436063
v 0.06903716 0.6689863 0.0652474
v -0.00116750784 0.6624921 0.07154168
v 0.06903716 0.6689863 0.0652474
v 0.07901799 0.6925618 -0.09436063
v 0.07901799 0.6925618 -0.09436063
v -0.00275619887 0.687640131 -0.117346942
v -0.00116750784 0.6624921 0.07154168
v 0.0559698381 0.860018969 0.07625122
v 0.102378562 0.848374963 0.03814032
v 0.102957204 0.901813269 0.03172855
v 0.08493148 0.7409674 0.0196708422
v 0.09549233 0.7401374 -0.03140293
v 0.114101417 0.8020642 -0.01607642
v 0.06990731 0.7494028 -0.08502984
v 0.07587425 0.846386552 -0.0926309749
v 0.110720411 0.8154236 -0.06745478
v 0.09549233 0.7401374 -0.03140293
v 0.114101417 0.8020642 -0.01607642
v -0.00242969813 0.7516247 -0.106051728
v -0.00191122713 0.8807042 -0.09904958
v -0.0004071436 0.8563311 0.080004096
v -0.0009042412 0.7398357 0.07039989
v 0.05153465 0.7392255 0.0604702532
v -0.000446444959 0.914347649 0.0524876341
v 0.0289199576 0.922934234 0.0445815548
v 0.126906648 0.8018888 0.0378446281
v 0.114101417 0.8020642 -0.01607642
v 0.126301572 0.7870792 -0.0383648872
v 0.140669271 0.792403638 0.0109823328
v 0.162714869 0.832002044 -0.07581519
v 0.1419785 0.856879532 -0.0889577344
v 0.179604664 0.8710685 -0.0244305842
v 0.1846129 0.834832847 -0.0316092744
v 0.163510382 0.809539735 0.0113922078
v 0.1634924 0.8472384 0.036715284
v 0.1634924 0.8472384 0.036715284
v 0.138893023 0.866205633 0.04376465
v 0.09111336 0.5247919 -0.0797636
v 0.119035721 0.5519074 -0.016812345
v 0.115292937 0.369608432 -0.0431888252
v 0.101676017 0.374448717 -0.07208404
v 0.09191216 0.5551763 0.0267723333
v 0.104729541 0.389214069 0.0192290526
v 0.0448372 0.365978122 -0.0495885536
v 0.00541523 0.538826764 -0.0303880014
v 0.04566173 0.5444449 -0.08864272
v 0.05989991 0.373990029 -0.07718156
v 0.0424094871 0.549143553 0.0271297414
v 0.06457644 0.38463074 0.0196252149
v 0.00541523 0.538826764 -0.0303880014
v 0.0448372 0.365978122 -0.0495885536
v 0.108342089 0.351124167 0.0179532412
v 0.07104925 0.346149951 0.0246067476
v 0.10464891 0.285817862 -0.09610059
v 0.104532532 0.351537228 -0.07843543
v 0.115998723 0.343934685 -0.048148647
v 0.1280003 0.268334627 -0.0481757447
v 0.104675241 0.334336579 0.00178433955
v 0.106995717 0.261519432 -0.0153099941
v 0.045850236 0.3529252 -0.0528195724
v 0.06722023 0.349722624 -0.0833884552
v 0.06318036 0.2835334 -0.1004531
v 0.0399246477 0.255370021 -0.0534987822
v 0.07388608 0.3277281 0.0126835611
v 0.07594466 0.252057225 0.000697264448
v 0.045850236 0.3529252 -0.0528195724
v 0.0399246477 0.255370021 -0.0534987822
v 0.104834534 0.183189064 -0.08526111
v 0.129882082 0.176223353 -0.03519999
v 0.129886687 0.101618767 -0.0436028242
v 0.108677924 0.172012046 -0.00598577969
v 0.122668386 0.09939429 0.009200208
v 0.04801773 0.169496685 -0.04534164
v 0.06556239 0.180516183 -0.0821723044
v 0.0628613457 0.108584434 -0.0845374
v 0.05224277 0.0933645144 -0.0411921963
v 0.09608047 0.109053195 -0.08491044
v 0.0738025755 0.17116794 0.00213233
v 0.0740928 0.09794061 0.0123646986
v 0.04801773 0.169496685 -0.04534164
v 0.05224277 0.0933645144 -0.0411921963
v 0.239079192 0.7891103 -0.05838988
v 0.216127038 0.781338632 -0.122327387
v 0.166972071 0.7331973 0.009612171
v 0.132868662 0.722532749 -0.0759165362
v 0.110720411 0.8154236 -0.06745478
v 0.1419785 0.856879532 -0.0889577344
v 0.162714869 0.832002044 -0.07581519
v 0.133050412 0.8029673 -0.07616082
v 0.126301572 0.7870792 -0.0383648872
v 0.114101417 0.8020642 -0.01607642
v 0.210737213 0.761890054 0.009350631
v 0.210737213 0.761890054 0.009350631
v 0.163510382 0.809539735 0.0113922078
v 0.0990414843 0.68303746 -0.0430376455
v 0.0692351758 0.676173866 -0.08046007
v 0.06360091 0.655356169 0.05165735
v 0.09414896 0.673806965 0.01957894
v -0.00132785365 0.6487365 0.0589624941
v 0.0990414843 0.68303746 -0.0430376455
v -0.00264551071 0.6816102 -0.102483951
v 0.216127038 0.781338632 -0.122327387
v 0.16090332 0.7488571 -0.118742563
v 0.132868662 0.722532749 -0.0759165362
v 0.149495557 0.8942915 -0.0235039629
v 0.1211349 0.876216352 -0.08809343
v 0.0807928 0.9048113 -0.0659234
v 0.103129566 0.91144675 -0.0233803466
v 0.102957204 0.901813269 0.03172855
v 0.138893023 0.866205633 0.04376465
v 0.1211349 0.876216352 -0.08809343
v 0.07587425 0.846386552 -0.0926309749
v 0.0807928 0.9048113 -0.0659234
v 0.102378562 0.848374963 0.03814032
v 0.0807928 0.9048113 -0.0659234
v -0.001586067 0.929416835 -0.08182629
v 0.0549156368 1.019984 0.0320358351
v 0.01742235 0.986229837 0.0404723436
v 0.0483417623 0.991095 0.0136945639
v 0.0584842674 1.03922307 -0.0122349588
v -0.000102443155 1.01261425 0.0521105528
v -0.000241301255 0.9816048 0.0488167852
v 0.0286003668 0.9943442 -0.0144766439
v -0.000937863253 0.9944338 -0.0347187035
v -0.000894004 1.042655 -0.04897087
v 0.0289199576 0.922934234 0.0445815548
v 0.06017007 0.9425988 0.0124968011
v 0.0305733886 0.94687134 -0.0303864181
v -0.00116824917 0.952108443 -0.04381345
v -0.000446444959 0.914347649 0.0524876341
v 0.06017007 0.9425988 0.0124968011
v 0.056131918 0.879582465 0.0867139
v 0.0837122649 0.8637695 0.08093089
v 0.103177421 0.9199463 0.0346204042
v 0.107757024 0.9402902 -0.0186527167
v 0.034862157 0.9865352 -0.0270080715
v 0.0602599122 0.9651147 0.0136514474
v 0.115054958 0.850693 0.06204839
v 0.15429987 0.885845065 0.0380070955
v 0.07326725 0.907168031 -0.09920649
v 0.034862157 0.9865352 -0.0270080715
v 0.107757024 0.9402902 -0.0186527167
v -0.00200528884 0.8959642 -0.115714163
v -0.00100972119 0.992096245 -0.04187929
v 0.134752557 0.9120516 -0.07327264
v 0.161094442 0.907051265 -0.01977874
v 0.0150450291 0.9385171 0.0516630262
v 0.161094442 0.907051265 -0.01977874
v 0.102957204 0.901813269 0.03172855
v -0.00033832842 0.9378289 0.05531525
v -0.00100972119 0.992096245 -0.04187929
v 0.179965422 0.7295853 -0.0336132571
v 0.15597561 0.754716337 -0.0260366444
v 0.140993282 0.7519587 -0.0600425974
v 0.166785076 0.725223839 -0.06808899
v 0.191548556 0.7847675 -0.0557970554
v 0.207894579 0.7542827 -0.0592953563
v 0.193823844 0.7507674 -0.08202676
v 0.179508135 0.7821587 -0.08371233
v 0.179899842 0.7693983 -0.0254488066
v 0.195746422 0.7419703 -0.03881456
v 0.175217882 0.740671337 -0.08872198
v 0.153769583 0.758073032 -0.08480674
v 0.140993282 0.7519587 -0.0600425974
v 0.166785076 0.725223839 -0.06808899
v 0.2654119 0.6786456 -0.0606606379
v 0.24693419 0.6599721 -0.09051025
v 0.212291747 0.7287916 -0.09625933
v 0.218804181 0.7438099 -0.0669395253
v 0.217337117 0.640020549 -0.08589304
v 0.192403331 0.7099023 -0.101443179
v 0.201776326 0.7353596 -0.0445002541
v 0.250244349 0.6722796 -0.0255462751
v 0.211815283 0.6402614 -0.0512557477
v 0.179102689 0.709186733 -0.07464654
v 0.1852395 0.723745465 -0.0424948558
v 0.230420142 0.6623157 -0.0230493024
v 0.211815283 0.6402614 -0.0512557477
v 0.179102689 0.709186733 -0.07464654
v 0.193823844 0.7507674 -0.08202676
v 0.207894579 0.7542827 -0.0592953563
v 0.203327313 0.7397426 -0.09139332
v 0.184212014 0.7250771 -0.09760913
v 0.1834787 0.8083853 -0.0914198458
v 0.207187474 0.810611 -0.0412472151
v 0.2544413 0.7603513 -0.06404908
v 0.233450368 0.749250948 -0.128052518
v 0.179858938 0.7085739 0.00438437425
v 0.1553822 0.761697352 0.009354776
v 0.1336746 0.7553864 -0.0523468032
v 0.148380563 0.6934718 -0.0813265145
v 0.223805651 0.7369838 0.003981894
v 0.2544413 0.7603513 -0.06404908
v 0.207187474 0.810611 -0.0412472151
v 0.18501772 0.7826199 0.009608153
v 0.177924275 0.717290938 -0.124501958
v 0.1470914 0.7756703 -0.09185666
v 0.1336746 0.7553864 -0.0523468032
v 0.148380563 0.6934718 -0.0813265145
v 0.02814203 0.923381746 0.08707608
v 0.0141211012 0.916952968 0.08961388
v 0.0160975512 0.8888165 0.0931903
v 0.03335511 0.8923642 0.105285645
v 0.04460294 0.923306763 0.07419864
v 0.0521551 0.895213842 0.07970785
v 0.0242147 0.9530383 0.0623476431
v 0.0119778095 0.9506462 0.06182345
v 0.03326605 0.9483577 0.0563273728
v 0.0429462977 0.9363863 0.065103516
v 0.0550527722 0.949512661 0.03813509
v 0.0293317754 0.9766994 0.0639971048
v 0.0268819015 0.959726632 0.0798774
v -0.005426377 0.9653785 0.055751197
v -0.009232039 0.961673141 0.06515997
v -0.00114641956 0.963911533 0.06687295
v -0.00382389361 0.952173054 0.06956003
v 0.0295525845 0.9271921 0.08950928
v 0.0131586334 0.9377744 0.08656724
v 0.0328573026 0.9675489 0.0398713946
v 0.00303851371 0.965349257 0.055676043
v 0.00698438846 0.961618066 0.06501627
v 0.00158821233 0.952154934 0.06951219
v 0.08719444 0.70804435 -0.110230505
v 0.0545015745 0.735344946 -0.15365085
v 0.05981849 0.7747982 -0.13796331
v 0.112175763 0.7531532 -0.07218302
v -0.0008407333 0.7546397 -0.13303861
v -0.01724654 0.75266844 -0.128115311
v -0.009356807 0.7671452 -0.114309952
v -0.006570873 0.732575 -0.129016042
v 0.0597133227 0.67174536 -0.146718353
v 0.0271105561 0.6934948 -0.149295568
v 0.06779607 0.784247339 -0.0889596045
v 0.007886736 0.7670842 -0.114463165
v 0.00459568761 0.7325355 -0.129115269
v 0.0154274469 0.7525529 -0.128405526
v -0.171291828 0.5137534 -0.0685449
v -0.09266335 0.4923687 -0.139744639
v -0.105035432 0.445617646 -0.167490423
v -0.208087862 0.464973867 -0.07576934
v -0.164801717 0.5185847 0.0284498166
v -0.2009335 0.471106231 0.0332244039
v -0.123864777 0.451625347 0.08864662
v -0.105944835 0.496139228 0.07601878
v -0.171291828 0.5137534 -0.0685449
v -0.208087862 0.464973867 -0.07576934
v -0.1155164 0.6986711 -0.03962875
v -0.08407239 0.6931383 -0.0929120854
v -0.09146006 0.595932066 -0.133309737
v -0.163156018 0.6117488 -0.0661938041
v -0.07142522 0.6694828 0.0664949641
v -0.109577887 0.6894023 0.0228916239
v -0.147477776 0.602483153 0.0249301475
v -0.09438285 0.6006136 0.07427688
v -0.1155164 0.6986711 -0.03962875
v -0.163156018 0.6117488 -0.0661938041
v -0.1155164 0.6986711 -0.03962875
v -0.109577887 0.6894023 0.0228916239
v -0.07142522 0.6694828 0.0664949641
v -0.07142522 0.6694828 0.0664949641
v -0.08407239 0.6931383 -0.0929120854
v -0.1155164 0.6986711 -0.03962875
v -0.08407239 0.6931383 -0.0929120854
v -0.07142522 0.6694828 0.0664949641
v -0.00116750784 0.6624921 0.07154168
v -0.00116750784 0.6624921 0.07154168
v -0.00275619887 0.687640131 -0.117346942
v -0.08407239 0.6931383 -0.0929120854
v -0.103973843 0.849104345 0.03997311
v -0.0568144023 0.860417664 0.0772530138
v -0.10407158 0.904043853 0.0333683044
v -0.0990892 0.740825236 -0.0296746939
v -0.08761727 0.7415773 0.0212034043
v -0.116984881 0.802881062 -0.0140239615
v -0.1144226 0.8162195 -0.0654551
v -0.0800776 0.848213732 -0.09154981
v -0.07439581 0.749912858 -0.08374814
v -0.0990892 0.740825236 -0.0296746939
v -0.116984881 0.802881062 -0.0140239615
v -0.05351422 0.7395968 0.06140331
v -0.0298872 0.923142135 0.04510396
v -0.12999171 0.7898669 -0.0364702828
v -0.116984881 0.802881062 -0.0140239615
v -0.129058748 0.8048467 0.0399124548
v -0.143363014 0.795460761 0.0132994335
v -0.182364136 0.8744011 -0.021421317
v -0.145807222 0.857627 -0.08658014
v -0.1664679 0.834614038 -0.072942324
v -0.187688753 0.8379884 -0.0284571387
v -0.166071519 0.81275785 0.014113849
v -0.165499583 0.8510792 0.0393133536
v -0.1403961 0.868970633 0.04598932
v -0.165499583 0.8510792 0.0393133536
v -0.125817448 0.371001959 -0.04036381
v -0.124107666 0.553050756 -0.0144469067
v -0.0981829241 0.5254446 -0.07797387
v -0.112848505 0.375471175 -0.06961471
v -0.113152355 0.390431136 0.0217172448
v -0.0959053 0.555913568 0.0284946244
v -0.0532777 0.5454042 -0.08869322
v -0.0107770022 0.538422048 -0.0304396451
v -0.05566188 0.365656048 -0.0485956371
v -0.07124351 0.37399298 -0.07580149
v -0.07312531 0.38487637 0.0210729223
v -0.04645019 0.5492216 0.0278192181
v -0.05566188 0.365656048 -0.0485956371
v -0.0107770022 0.538422048 -0.0304396451
v -0.1177173 0.352481484 0.0206325259
v -0.0803946853 0.346619964 0.026323894
v -0.1272744 0.3453505 -0.045246616
v -0.116424456 0.352630824 -0.07583806
v -0.118594266 0.2869117 -0.0933564
v -0.1410992 0.270066977 -0.0448020473
v -0.119412422 0.262790531 -0.0124827884
v -0.114883132 0.335549951 0.00439260341
v -0.07732133 0.283616364 -0.0987867638
v -0.07930948 0.349905252 -0.08176103
v -0.05707524 0.352631181 -0.05176772
v -0.0535326861 0.25496313 -0.0523991734
v -0.08398812 0.328212082 0.0144966263
v -0.088191025 0.25260067 0.00272654556
v -0.05707524 0.352631181 -0.05176772
v -0.0535326861 0.25496313 -0.0523991734
v -0.120979816 0.184332862 -0.08230695
v -0.144869372 0.178046674 -0.03159412
v -0.123015724 0.1733634 -0.00293566659
v -0.1466993 0.102995507 -0.0413804725
v -0.139084712 0.100336619 0.0112801846
v -0.07997089 0.109204844 -0.08277589
v -0.08171646 0.180712849 -0.08024035
v -0.06348537 0.1693228 -0.043858543
v -0.0692213848 0.09355764 -0.0396681279
v -0.113157056 0.110175937 -0.08286969
v -0.08797042 0.1716853 0.00426972471
v -0.09054666 0.09813224 0.0140282642
v -0.0692213848 0.09355764 -0.0396681279
v -0.06348537 0.1693228 -0.043858543
v -0.2429917 0.7928628 -0.0541465729
v -0.221234277 0.784933031 -0.118481159
v -0.170085236 0.736437261 0.012567563
v -0.137582555 0.7255372 -0.07355269
v -0.1664679 0.834614038 -0.072942324
v -0.145807222 0.857627 -0.08658014
v -0.1144226 0.8162195 -0.0654551
v -0.137136012 0.8058839 -0.07389189
v -0.116984881 0.802881062 -0.0140239615
v -0.12999171 0.7898669 -0.0364702828
v -0.213644192 0.7654386 0.0130815823
v -0.166071519 0.81275785 0.014113849
v -0.213644192 0.7654386 0.0130815823
v -0.103247993 0.683752537 -0.04124096
v -0.0741603151 0.676680744 -0.07918645
v -0.0973094851 0.6744838 0.0212794226
v -0.0663277 0.6558155 0.05281137
v -0.103247993 0.683752537 -0.04124096
v -0.166186631 0.7520616 -0.115875691
v -0.221234277 0.784933031 -0.118481159
v -0.137582555 0.7255372 -0.07355269
v -0.0871995762 0.9021271 -0.06365673
v -0.1259838 0.873758733 -0.08750374
v -0.151697472 0.897252262 -0.0211088751
v -0.105023466 0.9136923 -0.0217328388
v -0.1403961 0.868970633 0.04598932
v -0.10407158 0.904043853 0.0333683044
v -0.0800776 0.848213732 -0.09154981
v -0.1259838 0.873758733 -0.08750374
v -0.0871995762 0.9021271 -0.06365673
v -0.103973843 0.849104345 0.03997311
v -0.0871995762 0.9021271 -0.06365673
v -0.04937272 0.9914302 0.0145081636
v -0.0180172566 0.9863731 0.040777646
v -0.0554149225 1.02037406 0.0330158472
v -0.0596332178 1.03964055 -0.0111857811
v -0.0301123243 0.994496047 -0.0139907738
v -0.0298872 0.923142135 0.04510396
v -0.061562445 0.943029165 0.01357807
v -0.0327026322 0.947095156 -0.0298244059
v -0.061562445 0.943029165 0.01357807
v -0.0817168 0.8420252 0.08259341
v -0.05430542 0.8574503 0.08864137
v -0.103954211 0.9221956 0.03625735
v -0.0614726245 0.9655456 0.0147301946
v -0.03665038 0.9867598 -0.026378708
v -0.109114788 0.9426328 -0.0169412717
v -0.155598477 0.8888697 0.04047274
v -0.1150065 0.84640795 0.06523733
v -0.03665038 0.9867598 -0.026378708
v -0.08065892 0.9048975 -0.0971591845
v -0.109114788 0.9426328 -0.0169412717
v -0.137503639 0.914799035 -0.0711119249
v -0.163038239 0.9102051 -0.01720276
v -0.0157788768 0.938626 0.0519368872
v -0.163038239 0.9102051 -0.01720276
v -0.10407158 0.904043853 0.0333683044
v -0.145234391 0.755023539 -0.0577060059
v -0.1595905 0.75788486 -0.02343948
v -0.181781575 0.7374552 -0.03526625
v -0.171629772 0.7288222 -0.06906614
v -0.199943677 0.752642453 -0.08305525
v -0.212199524 0.7584598 -0.0595639348
v -0.195473075 0.788188636 -0.05256527
v -0.183949113 0.785496533 -0.08068983
v -0.183396131 0.772735536 -0.0224277321
v -0.1981371 0.749039 -0.0403961241
v -0.181557328 0.742230535 -0.0894209445
v -0.158404976 0.7612296 -0.0822397
v -0.145234391 0.755023539 -0.0577060059
v -0.171629772 0.7288222 -0.06906614
v -0.216850877 0.7329866 -0.09184557
v -0.2522851 0.6637744 -0.08572412
v -0.2700973 0.6825761 -0.0555522144
v -0.223173857 0.747266531 -0.0621902123
v -0.1971587 0.7140527 -0.09756648
v -0.226277217 0.643131852 -0.08394009
v -0.254353821 0.6761009 -0.0207123868
v -0.206200227 0.7380472 -0.0400787
v -0.183831513 0.7124773 -0.07089403
v -0.219073325 0.643910766 -0.0494738333
v -0.234559342 0.665997 -0.0185672864
v -0.189778864 0.726219237 -0.03842783
v -0.219073325 0.643910766 -0.0494738333
v -0.183831513 0.7124773 -0.07089403
v -0.212199524 0.7584598 -0.0595639348
v -0.199943677 0.752642453 -0.08305525
v -0.208169118 0.7432425 -0.08766524
v -0.189271376 0.728442669 -0.09421866
v -0.258642346 0.764210343 -0.05941876
v -0.210667983 0.814141154 -0.0377415866
v -0.187870413 0.811751068 -0.08832727
v -0.238870516 0.752965868 -0.123784229
v -0.137756124 0.75839895 -0.0501416251
v -0.158319235 0.7648593 0.0119353775
v -0.183224231 0.711902738 0.00768248551
v -0.1533807 0.6965838 -0.07857302
v -0.210667983 0.814141154 -0.0377415866
v -0.258642346 0.764210343 -0.05941876
v -0.226969242 0.7406226 0.008058829
v -0.187796935 0.785990834 0.0127137657
v -0.183517471 0.7206139 -0.121218421
v -0.151728824 0.7787796 -0.0894082338
v -0.137756124 0.75839895 -0.0501416251
v -0.1533807 0.6965838 -0.07857302
v -0.0164449774 0.888931453 0.0934794247
v -0.0143335089 0.9170535 0.0898667052
v -0.0283515 0.9235814 0.08757793
v -0.0334594771 0.8926003 0.105879158
v -0.0450386479 0.9236236 0.0749949
v -0.052690167 0.895584464 0.08063913
v -0.0124460347 0.950729668 0.0620393
v -0.024654489 0.953205943 0.062780045
v -0.0338441841 0.948592067 0.05692204
v -0.031393595 0.977034032 0.06452645
v -0.05776175 0.9499108 0.0391364768
v -0.0452712774 0.936698139 0.06588713
v -0.0287824087 0.959925056 0.08037212
v -0.03151154 0.9274079 0.0900517255
v -0.0150980353 0.9378738 0.08681813
v -0.0354120061 0.9677858 0.04047697
v -0.009232039 0.961673141 0.06515997
v -0.00382389361 0.952173054 0.06956003
v -0.005426377 0.9653785 0.055751197
v -0.0618501045 0.7752283 -0.136882633
v -0.0570917 0.73573947 -0.15265964
v -0.08920039 0.7086679 -0.1086638
v -0.113182485 0.7539498 -0.0701814443
v -0.02992417 0.693696439 -0.148788959
v -0.0626289546 0.672177851 -0.145631716
v -0.06888906 0.7847305 -0.0877455547
v -0.01724654 0.75266844 -0.128115311
v -0.006570873 0.732575 -0.129016042
v -0.009356807 0.7671452 -0.114309952
vt 0.566621 0.006313503
vt 0.5664227 0.07771546
vt 0.403893 0.0801807046
vt 0.403891444 0.007812858
vt 0.148612648 0.008687794
vt 0.268273532 0.008728564
vt 0.267514765 0.0804941654
vt 0.148192257 0.08048153
vt 0.0117540732 0.008698165
vt 0.0118097439 0.08048451
vt 0.4038927 0.008731961
vt 0.403888673 0.0802443
vt 0.7214 0.00630009174
vt 0.721113145 0.07945442
vt 0.566224337 0.23157686
vt 0.5671863 0.3631991
vt 0.403930843 0.363228917
vt 0.403890967 0.235641539
vt 0.266756 0.238255084
vt 0.263132244 0.363735855
vt 0.146269023 0.363688529
vt 0.14777182 0.238243818
vt 0.0118372478 0.363910973
vt 0.011865411 0.238246262
vt 0.403713346 0.363487422
vt 0.4038883 0.235813916
vt 0.7209484 0.362857878
vt 0.7208264 0.232772529
vt 0.5728787 0.741383433
vt 0.5729761 0.7875573
vt 0.6011303 0.826356649
vt 0.6011303 0.826356649
vt 0.64604497 0.839106262
vt 0.5728787 0.741383433
vt 0.609801 0.7030778
vt 0.5728787 0.741383433
vt 0.64604497 0.839106262
vt 0.64604497 0.839106262
vt 0.703040659 0.813268
vt 0.609801 0.7030778
vt 0.10967268 0.850976467
vt 0.205420092 0.826779664
vt 0.19567357 0.957026243
vt 0.186177269 0.6312888
vt 0.29552865 0.6227037
vt 0.2873009 0.739706755
vt 0.413629323 0.631995559
vt 0.4141681 0.817259
vt 0.342035443 0.7569671
vt 0.296384633 0.6226933
vt 0.286466271 0.7409472
vt 0.5596824 0.6327859
vt 0.5596824 0.8774721
vt 0.006929186 0.8442406
vt 0.006929186 0.6351578
vt 0.10266681 0.6331592
vt 0.006929186 0.9466881
vt 0.06078648 0.961713433
vt 0.6507567 0.646083057
vt 0.6041815 0.618085146
vt 0.606907248 0.598558366
vt 0.648690939 0.6082637
vt 0.883496761 0.6110839
vt 0.889029741 0.653969
vt 0.795770168 0.655435264
vt 0.796201468 0.6103777
vt 0.7116314 0.6117918
vt 0.714082241 0.66206497
vt 0.7137375 0.6620514
vt 0.7031361 0.714909136
vt 0.938134968 0.9927344
vt 0.917402864 0.9926892
vt 0.921723664 0.89682287
vt 0.9356854 0.9001325
vt 0.889753342 0.99277693
vt 0.899941444 0.9085439
vt 0.9649104 0.8962453
vt 0.9948311 0.992780864
vt 0.961408 0.992958
vt 0.9527532 0.9005979
vt 0.865174949 0.992570043
vt 0.881935239 0.907953262
vt 0.837481141 0.9928179
vt 0.8604601 0.8986375
vt 0.902836263 0.889839053
vt 0.8867381 0.889986753
vt 0.93479985 0.852665663
vt 0.9337942 0.8874235
vt 0.9184121 0.8833527
vt 0.917997658 0.8489852
vt 0.9037055 0.88155067
vt 0.9045747 0.8502838
vt 0.9652831 0.883855939
vt 0.951795042 0.8874715
vt 0.953734159 0.8524828
vt 0.973188639 0.8499638
vt 0.8854831 0.8809679
vt 0.88422817 0.8494273
vt 0.860503554 0.8839398
vt 0.864603162 0.848806739
vt 0.9324517 0.8197905
vt 0.9172651 0.8197516
vt 0.9166536 0.7953497
vt 0.9041251 0.8187523
vt 0.9037921 0.795395553
vt 0.9639805 0.820406
vt 0.9493103 0.8195766
vt 0.946052134 0.795339048
vt 0.9616026 0.8035091
vt 0.9307042 0.795323431
vt 0.8865521 0.820097268
vt 0.888510466 0.7953765
vt 0.8694663 0.8198596
vt 0.8735857 0.795340836
vt 0.802408 0.504375458
vt 0.889076 0.504220068
vt 0.6539475 0.5052104
vt 0.5581908 0.5032047
vt 0.955195963 0.6433925
vt 0.8892683 0.6539548
vt 0.8840432 0.6110769
vt 0.948561 0.6102198
vt 0.9729415 0.611456454
vt 0.985209 0.635378063
vt 0.7152159 0.505261242
vt 0.7156584 0.505357742
vt 0.7112962 0.611769259
vt 0.296055973 0.51693815
vt 0.407547235 0.520486
vt 0.121675633 0.5052978
vt 0.201208323 0.5083584
vt 0.006929186 0.4994055
vt 0.295099825 0.5170985
vt 0.5596824 0.5258339
vt 0.8890072 0.504163563
vt 0.95181495 0.5057926
vt 0.9973209 0.5064954
vt 0.802022 0.7273684
vt 0.8911644 0.7045329
vt 0.894767046 0.780329049
vt 0.813347 0.788474858
vt 0.699822545 0.7829643
vt 0.7033454 0.714943
vt 0.8917202 0.7042455
vt 0.9493549 0.709577858
vt 0.8952445 0.780343354
vt 0.629766345 0.6844558
vt 0.4026746 0.9320606
vt 0.5596824 0.9694784
vt 0.62898314 0.9566932
vt 0.6166426 0.9071212
vt 0.6576467 0.9092705
vt 0.679275 0.9752395
vt 0.577250361 0.9446026
vt 0.582563162 0.907486439
vt 0.683406234 0.9180969
vt 0.7294024 0.9228926
vt 0.7497682 0.984622
vt 0.6099311 0.8649169
vt 0.646982431 0.8555448
vt 0.704269767 0.8710171
vt 0.7497682 0.8723215
vt 0.5737085 0.86071825
vt 0.117776878 0.9945926
vt 0.78332293 0.0308679342
vt 0.819152057 0.009083629
vt 0.878065944 0.115938663
vt 0.91571635 0.177077651
vt 0.8300594 0.237057388
vt 0.8350455 0.168475509
vt 0.8699282 0.0134234428
vt 0.9364966 0.0580129623
vt 0.968417764 0.321038485
vt 0.8294447 0.237016857
vt 0.915911734 0.176917851
vt 0.9050965 0.3958531
vt 0.79425323 0.275505483
vt 0.994097 0.224978745
vt 0.979513645 0.122711837
vt 0.75751704 0.133023679
vt 0.9804097 0.122534573
vt 0.6990206 0.7828322
vt 0.7369571 0.136544645
vt 0.7954018 0.2752719
vt 0.3184029 0.9458243
vt 0.324810147 0.9813543
vt 0.344393432 0.976948559
vt 0.3377753 0.943537951
vt 0.279728174 0.983249247
vt 0.279456675 0.945680439
vt 0.2588991 0.9458734
vt 0.2595256 0.981377661
vt 0.3055089 0.98317945
vt 0.300024569 0.9458579
vt 0.240466937 0.945838034
vt 0.239262089 0.980625033
vt 0.216225788 0.9850227
vt 0.21961765 0.9430278
vt 0.276006818 0.8404921
vt 0.258017361 0.8405351
vt 0.2581073 0.9203521
vt 0.278430462 0.9255066
vt 0.239333853 0.840487659
vt 0.238151357 0.9182512
vt 0.3008024 0.926066
vt 0.29477042 0.8405806
vt 0.218261525 0.840379357
vt 0.217347309 0.919643342
vt 0.317276359 0.9258513
vt 0.315836847 0.840557754
vt 0.336472154 0.840396
vt 0.337168872 0.920175135
vt 0.258885026 0.9458392
vt 0.2794549 0.9456621
vt 0.258496165 0.933095634
vt 0.239307985 0.9320342
vt 0.484240025 0.493584156
vt 0.353526562 0.493345976
vt 0.366462082 0.377460539
vt 0.484751433 0.37743932
vt 0.150645867 0.377279222
vt 0.147142962 0.493201256
vt 0.03619255 0.493510842
vt 0.01348348 0.378059328
vt 0.240192264 0.3771847
vt 0.366912931 0.377465665
vt 0.353087038 0.493353724
vt 0.2154598 0.4932232
vt 0.595080554 0.3779896
vt 0.57248944 0.49367404
vt 0.640019953 0.4941659
vt 0.672699153 0.378841341
vt 0.8086927 0.8731244
vt 0.8380662 0.866115868
vt 0.8374736 0.8197254
vt 0.8120862 0.8073224
vt 0.7674916 0.8793108
vt 0.757344961 0.8291344
vt 0.798242033 0.942503154
vt 0.821879566 0.943877
vt 0.776470661 0.938023746
vt 0.8371092 0.371852577
vt 0.8793771 0.4482187
vt 0.8004573 0.4417225
vt 0.78846544 0.384077251
vt 0.7083204 0.454516828
vt 0.6947266 0.429235041
vt 0.716459632 0.426826
vt 0.70790875 0.402557135
vt 0.7922274 0.3081134
vt 0.748588145 0.3372398
vt 0.8183832 0.481874228
vt 0.731682956 0.452353
vt 0.7392508 0.4251113
vt 0.722937346 0.4011652
vt 0.8371092 0.371852577
vt 0.78846544 0.384077251
vt 0.8004573 0.4417225
vt 0.8793771 0.4482187
vt 0.716459632 0.426826
vt 0.6947266 0.429235041
vt 0.7083204 0.454516828
vt 0.70790875 0.402557135
vt 0.7922274 0.3081134
vt 0.748588145 0.3372398
vt 0.8183832 0.481874228
vt 0.731682956 0.452353
vt 0.722937346 0.4011652
vt 0.7392508 0.4251113
vt 0.403893 0.0801807046
vt 0.5664227 0.07771546
vt 0.566621 0.006313503
vt 0.403891444 0.007812858
vt 0.267514765 0.0804941654
vt 0.268273532 0.008728564
vt 0.148612648 0.008687794
vt 0.148192257 0.08048153
vt 0.403888673 0.0802443
vt 0.4038927 0.008731961
vt 0.403930843 0.363228917
vt 0.5671863 0.3631991
vt 0.566224337 0.23157686
vt 0.403890967 0.235641539
vt 0.146269023 0.363688529
vt 0.263132244 0.363735855
vt 0.266756 0.238255084
vt 0.14777182 0.238243818
vt 0.403713346 0.363487422
vt 0.4038883 0.235813916
vt 0.6011303 0.826356649
vt 0.5729761 0.7875573
vt 0.5728787 0.741383433
vt 0.5728787 0.741383433
vt 0.64604497 0.839106262
vt 0.6011303 0.826356649
vt 0.64604497 0.839106262
vt 0.5728787 0.741383433
vt 0.609801 0.7030778
vt 0.609801 0.7030778
vt 0.703040659 0.813268
vt 0.64604497 0.839106262
vt 0.205420092 0.826779664
vt 0.10967268 0.850976467
vt 0.19567357 0.957026243
vt 0.29552865 0.6227037
vt 0.186177269 0.6312888
vt 0.2873009 0.739706755
vt 0.342035443 0.7569671
vt 0.4141681 0.817259
vt 0.413629323 0.631995559
vt 0.296384633 0.6226933
vt 0.286466271 0.7409472
vt 0.10266681 0.6331592
vt 0.06078648 0.961713433
vt 0.606907248 0.598558366
vt 0.6041815 0.618085146
vt 0.6507567 0.646083057
vt 0.648690939 0.6082637
vt 0.795770168 0.655435264
vt 0.889029741 0.653969
vt 0.883496761 0.6110839
vt 0.796201468 0.6103777
vt 0.7116314 0.6117918
vt 0.714082241 0.66206497
vt 0.7031361 0.714909136
vt 0.7137375 0.6620514
vt 0.921723664 0.89682287
vt 0.917402864 0.9926892
vt 0.938134968 0.9927344
vt 0.9356854 0.9001325
vt 0.899941444 0.9085439
vt 0.889753342 0.99277693
vt 0.961408 0.992958
vt 0.9948311 0.992780864
vt 0.9649104 0.8962453
vt 0.9527532 0.9005979
vt 0.881935239 0.907953262
vt 0.865174949 0.992570043
vt 0.8604601 0.8986375
vt 0.837481141 0.9928179
vt 0.902836263 0.889839053
vt 0.8867381 0.889986753
vt 0.9184121 0.8833527
vt 0.9337942 0.8874235
vt 0.93479985 0.852665663
vt 0.917997658 0.8489852
vt 0.9045747 0.8502838
vt 0.9037055 0.88155067
vt 0.953734159 0.8524828
vt 0.951795042 0.8874715
vt 0.9652831 0.883855939
vt 0.973188639 0.8499638
vt 0.8854831 0.8809679
vt 0.88422817 0.8494273
vt 0.860503554 0.8839398
vt 0.864603162 0.848806739
vt 0.9324517 0.8197905
vt 0.9172651 0.8197516
vt 0.9041251 0.8187523
vt 0.9166536 0.7953497
vt 0.9037921 0.795395553
vt 0.946052134 0.795339048
vt 0.9493103 0.8195766
vt 0.9639805 0.820406
vt 0.9616026 0.8035091
vt 0.9307042 0.795323431
vt 0.8865521 0.820097268
vt 0.888510466 0.7953765
vt 0.8735857 0.795340836
vt 0.8694663 0.8198596
vt 0.802408 0.504375458
vt 0.889076 0.504220068
vt 0.6539475 0.5052104
vt 0.5581908 0.5032047
vt 0.8840432 0.6110769
vt 0.8892683 0.6539548
vt 0.955195963 0.6433925
vt 0.948561 0.6102198
vt 0.985209 0.635378063
vt 0.9729415 0.611456454
vt 0.7152159 0.505261242
vt 0.7112962 0.611769259
vt 0.7156584 0.505357742
vt 0.296055973 0.51693815
vt 0.407547235 0.520486
vt 0.201208323 0.5083584
vt 0.121675633 0.5052978
vt 0.295099825 0.5170985
vt 0.95181495 0.5057926
vt 0.8890072 0.504163563
vt 0.9973209 0.5064954
vt 0.894767046 0.780329049
vt 0.8911644 0.7045329
vt 0.802022 0.7273684
vt 0.813347 0.788474858
vt 0.7033454 0.714943
vt 0.699822545 0.7829643
vt 0.9493549 0.709577858
vt 0.8917202 0.7042455
vt 0.8952445 0.780343354
vt 0.629766345 0.6844558
vt 0.4026746 0.9320606
vt 0.6576467 0.9092705
vt 0.6166426 0.9071212
vt 0.62898314 0.9566932
vt 0.679275 0.9752395
vt 0.683406234 0.9180969
vt 0.6099311 0.8649169
vt 0.646982431 0.8555448
vt 0.704269767 0.8710171
vt 0.117776878 0.9945926
vt 0.819152057 0.009083629
vt 0.78332293 0.0308679342
vt 0.878065944 0.115938663
vt 0.8350455 0.168475509
vt 0.8300594 0.237057388
vt 0.91571635 0.177077651
vt 0.9364966 0.0580129623
vt 0.8699282 0.0134234428
vt 0.8294447 0.237016857
vt 0.968417764 0.321038485
vt 0.915911734 0.176917851
vt 0.994097 0.224978745
vt 0.979513645 0.122711837
vt 0.75751704 0.133023679
vt 0.9804097 0.122534573
vt 0.6990206 0.7828322
vt 0.344393432 0.976948559
vt 0.324810147 0.9813543
vt 0.3184029 0.9458243
vt 0.3377753 0.943537951
vt 0.2588991 0.9458734
vt 0.279456675 0.945680439
vt 0.279728174 0.983249247
vt 0.2595256 0.981377661
vt 0.3055089 0.98317945
vt 0.300024569 0.9458579
vt 0.240466937 0.945838034
vt 0.239262089 0.980625033
vt 0.216225788 0.9850227
vt 0.21961765 0.9430278
vt 0.2581073 0.9203521
vt 0.258017361 0.8405351
vt 0.276006818 0.8404921
vt 0.278430462 0.9255066
vt 0.238151357 0.9182512
vt 0.239333853 0.840487659
vt 0.29477042 0.8405806
vt 0.3008024 0.926066
vt 0.217347309 0.919643342
vt 0.218261525 0.840379357
vt 0.315836847 0.840557754
vt 0.317276359 0.9258513
vt 0.336472154 0.840396
vt 0.337168872 0.920175135
vt 0.2794549 0.9456621
vt 0.258885026 0.9458392
vt 0.258496165 0.933095634
vt 0.239307985 0.9320342
vt 0.366462082 0.377460539
vt 0.353526562 0.493345976
vt 0.484240025 0.493584156
vt 0.484751433 0.37743932
vt 0.03619255 0.493510842
vt 0.147142962 0.493201256
vt 0.150645867 0.377279222
vt 0.01348348 0.378059328
vt 0.353087038 0.493353724
vt 0.366912931 0.377465665
vt 0.240192264 0.3771847
vt 0.2154598 0.4932232
vt 0.595080554 0.3779896
vt 0.57248944 0.49367404
vt 0.640019953 0.4941659
vt 0.672699153 0.378841341
vt 0.8374736 0.8197254
vt 0.8380662 0.866115868
vt 0.8086927 0.8731244
vt 0.8120862 0.8073224
vt 0.7674916 0.8793108
vt 0.757344961 0.8291344
vt 0.821879566 0.943877
vt 0.798242033 0.942503154
vt 0.776470661 0.938023746
vt 0.8004573 0.4417225
vt 0.8793771 0.4482187
vt 0.8371092 0.371852577
vt 0.78846544 0.384077251
vt 0.7922274 0.3081134
vt 0.748588145 0.3372398
vt 0.8183832 0.481874228
vt 0.7392508 0.4251113
vt 0.722937346 0.4011652
vt 0.731682956 0.452353
vt 0.8004573 0.4417225
vt 0.78846544 0.384077251
vt 0.8371092 0.371852577
vt 0.8793771 0.4482187
vt 0.748588145 0.3372398
vt 0.7922274 0.3081134
vt 0.8183832 0.481874228
vt 0.7392508 0.4251113
vt 0.722937346 0.4011652
vt 0.731682956 0.452353
vn 0.38999787 0.529709041 -0.7531998
vn 0.4516195 0.332025826 -0.828129649
vn 0.831136167 0.3544144 -0.4284893
vn 0.7226679 0.578297734 -0.378580034
vn 0.399692923 0.386725843 0.8310768
vn 0.7322721 0.564719856 0.3806167
vn 0.8032553 0.352581024 0.480070323
vn 0.4319651 0.2523729 0.8658603
vn 0.00365747442 0.364945859 0.9310216
vn 0.01306724 0.230672315 0.9729437
vn 0.7226679 0.578297734 -0.378580034
vn 0.831136167 0.3544144 -0.4284893
vn -0.008970064 0.536322236 -0.84396565
vn -0.008340783 0.294899881 -0.9554918
vn 0.47748962 0.227149323 -0.8487678
vn 0.597288549 0.3377763 -0.72742945
vn 0.872024834 0.4335554 -0.22716172
vn 0.8815906 0.310334325 -0.355655223
vn 0.8513492 0.256263 0.4577487
vn 0.834744453 0.362644047 0.414356142
vn 0.413657159 0.260931343 0.87224
vn 0.4737061 0.16537635 0.8650163
vn 0.0102508264 0.2754216 0.9612689
vn 0.00614810735 0.186567113 0.982423
vn 0.872024834 0.4335554 -0.22716172
vn 0.8815906 0.310334325 -0.355655223
vn -0.0056376867 0.415757477 -0.909458041
vn -0.0177982561 0.253061652 -0.9672864
vn -0.357514322 0.9275486 0.108798474
vn -0.357514322 0.9275486 0.108798474
vn -0.357514322 0.9275486 0.108798474
vn -0.3418286 0.932529867 0.11636702
vn -0.3418286 0.932529867 0.11636702
vn -0.3418286 0.932529867 0.11636702
vn -0.0786639 0.9869002 0.140854567
vn -0.0786639 0.9869002 0.140854567
vn -0.0786639 0.9869002 0.140854567
vn -0.09652253 0.9865185 0.132153779
vn -0.09652253 0.9865185 0.132153779
vn -0.09652253 0.9865185 0.132153779
vn 0.348300964 0.157750085 0.924013734
vn 0.2552302 -0.147465944 0.9555686
vn 0.372858882 0.5841701 0.720917165
vn 0.8949813 -0.03000827 0.445093185
vn 0.9913929 -0.09047089 -0.0946315452
vn 0.109446764 -0.936910033 0.331995547
vn 0.572260141 -0.119522758 -0.811315358
vn 0.228642091 0.05842751 -0.9717556
vn 0.205754384 -0.4284681 -0.879818261
vn 0.9913929 -0.09047089 -0.0946315452
vn 0.109446764 -0.936910033 0.331995547
vn -0.008603069 -0.0435274765 -0.9990152
vn -0.008620218 0.247108564 -0.968949437
vn 0.009347083 0.1667605 0.985953152
vn 0.008381452 -0.122611083 0.9924194
vn 0.483564168 -0.0789353 0.8717424
vn 0.009539103 0.324731171 0.9457582
vn 0.3471521 0.354155719 0.868365765
vn -0.2107407 -0.660575151 0.720575333
vn 0.109446764 -0.936910033 0.331995547
vn -0.8797995 -0.475304365 -0.006215418
vn -0.209623352 -0.7362172 0.643461168
vn 0.360180944 0.431167454 -0.8272631
vn 0.3270369 0.13836132 -0.9348278
vn 0.8646462 0.5022194 -0.01275151
vn 0.88334626 0.456970036 0.104296483
vn 0.6356409 -0.07702305 0.768132865
vn 0.71666 0.09538095 0.6908696
vn 0.71666 0.09538095 0.6908696
vn 0.30532 0.375723153 0.8749925
vn 0.5914483 0.000352626637 -0.80634284
vn 0.989283144 0.03394477 0.142009124
vn 0.9934811 0.029440539 -0.110129528
vn 0.608409345 0.141927078 -0.780829549
vn 0.4763718 -0.00289432355 0.8792392
vn 0.6505018 0.0127987238 0.759396851
vn -0.98756814 -0.127335683 -0.09216714
vn -0.972864151 -0.226909533 0.0452478155
vn -0.476927221 -0.102486774 -0.8729472
vn -0.4949622 -0.0247578043 -0.868561745
vn -0.4619438 -0.148810789 0.8743359
vn -0.602882266 -0.0605143979 0.7955319
vn -0.972864151 -0.226909533 0.0452478155
vn -0.98756814 -0.127335683 -0.09216714
vn 0.718471169 -0.249831051 0.6491407
vn -0.452046484 -0.287884057 0.84426105
vn 0.5591864 0.07999288 -0.825173736
vn 0.6186201 0.228623226 -0.7516918
vn 0.9964981 0.05987111 -0.05836907
vn 0.995843351 0.0781132057 0.0468437
vn 0.8077479 -0.320982456 0.494483143
vn 0.6999401 0.0280047711 0.7136523
vn -0.99170506 0.0116926208 -0.128001571
vn -0.366940618 0.2184567 -0.904229641
vn -0.4627217 0.0447317474 -0.8853743
vn -0.9990397 -0.0326058641 0.029265387
vn -0.431446552 -0.397459418 0.8098641
vn -0.2953957 -0.008646719 0.955335855
vn -0.99170506 0.0116926208 -0.128001571
vn -0.9990397 -0.0326058641 0.029265387
vn 0.521723151 -0.09370441 -0.8479531
vn 0.995333 -0.0140951565 0.09546468
vn 0.973496 0.117182665 -0.196402073
vn 0.5935704 0.107942268 0.797510266
vn 0.6565843 0.239652 0.715167046
vn -0.99818933 -0.0258489754 0.05431253
vn -0.563958347 -0.0683096 -0.822973132
vn -0.651185155 -0.00336102373 -0.758911431
vn -0.991304457 -0.0192667972 0.130170166
vn 0.4453901 0.0133447628 -0.895237148
vn -0.451152742 0.0802106261 0.8888349
vn -0.529634356 0.115326524 0.8403495
vn -0.99818933 -0.0258489754 0.05431253
vn -0.991304457 -0.0192667972 0.130170166
vn 0.648175359 0.76059866 0.03685649
vn 0.100622036 0.728336453 -0.6777914
vn -0.547376 -0.235617653 0.8030341
vn -0.9887329 -0.013884549 -0.149045378
vn 0.205754384 -0.4284681 -0.879818261
vn 0.3270369 0.13836132 -0.9348278
vn 0.360180944 0.431167454 -0.8272631
vn -0.650245845 -0.0380949453 -0.758768141
vn -0.8797995 -0.475304365 -0.006215418
vn 0.109446764 -0.936910033 0.331995547
vn 0.405937523 0.31744495 0.8569968
vn 0.405937523 0.31744495 0.8569968
vn 0.6356409 -0.07702305 0.768132865
vn 0.9625646 0.0410462134 -0.267926633
vn 0.5589439 -0.0535697266 -0.8274732
vn 0.4248592 -0.03393252 0.90462327
vn 0.8834072 0.07185893 0.4630638
vn 0.008482096 -0.100360371 0.994915
vn 0.9625646 0.0410462134 -0.267926633
vn -0.009049843 -0.0508617759 -0.9986647
vn 0.100622036 0.728336453 -0.6777914
vn -0.656116 0.280128032 -0.700742543
vn -0.9887329 -0.013884549 -0.149045378
vn 0.535946 0.843334556 -0.03935432
vn 0.244040355 0.438211769 -0.8651097
vn 0.215553135 0.6209038 -0.753667951
vn 0.344723165 0.9324727 -0.107984431
vn 0.372858882 0.5841701 0.720917165
vn 0.30532 0.375723153 0.8749925
vn 0.244040355 0.438211769 -0.8651097
vn 0.228642091 0.05842751 -0.9717556
vn 0.215553135 0.6209038 -0.753667951
vn 0.2552302 -0.147465944 0.9555686
vn 0.215553135 0.6209038 -0.753667951
vn -0.00938366447 0.3333878 -0.942743063
vn 0.8387686 -0.3431709 0.4227303
vn 0.4878825 -0.06279912 0.87064743
vn 0.9821365 -0.165781438 0.08901941
vn 0.7470365 -0.3365726 -0.573284745
vn 0.008124116 -0.15162918 0.988404036
vn 0.008606201 -0.01382009 0.999867439
vn 0.6810362 -0.0577114858 -0.729972
vn -0.008469739 0.0068677566 -0.9999406
vn -0.009339718 -0.310568422 -0.950505137
vn 0.3471521 0.354155719 0.868365765
vn 0.7759596 0.400148332 0.487614542
vn 0.6530866 0.230794922 -0.7212569
vn -0.007939509 0.210116357 -0.977644145
vn 0.009539103 0.324731171 0.9457582
vn 0.7759596 0.400148332 0.487614542
vn 0.355003923 0.5515791 0.7548064
vn 0.4283127 0.406641781 0.806963861
vn 0.4302491 0.68183744 0.5915939
vn 0.5170665 0.855125546 -0.0374504253
vn 0.275188833 0.960663438 -0.0373750962
vn 0.306265831 0.8321453 0.462315381
vn 0.5180499 0.00660802843 0.855324864
vn 0.4654153 0.6346258 0.6169593
vn 0.236939043 0.7461436 -0.622197449
vn 0.275188833 0.960663438 -0.0373750962
vn 0.5170665 0.855125546 -0.0374504253
vn -0.0182286687 0.6091432 -0.792850733
vn -0.00179389038 0.964318931 -0.264737248
vn 0.277024984 0.90253 -0.329691827
vn 0.5260059 0.8394359 0.136620536
vn 0.138578936 0.7668558 0.6266802
vn 0.5260059 0.8394359 0.136620536
vn 0.372858882 0.5841701 0.720917165
vn 0.00759286247 0.85138166 0.5244917
vn -0.00179389038 0.964318931 -0.264737248
vn -0.0618798435 -0.6493452 0.757972062
vn -0.349554181 -0.5601121 0.7510568
vn -0.7042757 -0.7071675 -0.06252845
vn -0.772750258 -0.6284007 -0.08927294
vn 0.916497767 0.399722368 0.01593135
vn 0.827814 0.5361199 0.16522564
vn 0.432055324 0.538329244 -0.7235536
vn 0.56568104 0.2826428 -0.7746728
vn 0.58668524 0.029789377 0.8092669
vn 0.6478935 -0.00386804459 0.7617211
vn -0.412822634 -0.0127682351 -0.910721958
vn -0.446010649 -0.3659543 -0.8167937
vn -0.7042757 -0.7071675 -0.06252845
vn -0.772750258 -0.6284007 -0.08927294
vn 0.819686055 0.5656981 -0.09000229
vn 0.3871074 0.0525429472 -0.9205363
vn 0.42824778 0.410045356 -0.805274248
vn 0.7446041 0.666732669 0.03212818
vn -0.614723742 -0.431918532 -0.6599705
vn -0.398668677 -0.154161766 -0.904045045
vn 0.5442172 0.205814227 0.813306868
vn 0.37452966 0.5187039 0.7685531
vn -0.874946952 -0.407057017 0.262245029
vn -0.881398261 -0.4616009 -0.100308269
vn -0.34123528 -0.5628472 0.7528357
vn -0.379410446 0.00582010252 0.9252102
vn -0.874946952 -0.407057017 0.262245029
vn -0.881398261 -0.4616009 -0.100308269
vn 0.432055324 0.538329244 -0.7235536
vn 0.827814 0.5361199 0.16522564
vn 0.2527227 0.641298354 -0.72447747
vn -0.5095607 0.04661014 -0.859171331
vn 0.234761536 0.656540751 -0.7168272
vn 0.7371571 0.660602152 0.142141432
vn 0.732210159 0.6809624 0.0125894686
vn 0.183660731 0.625139952 -0.7585966
vn -0.5227616 -0.303108484 0.796771944
vn -0.45402354 -0.2880784 0.8431331
vn -0.9538903 -0.300111562 -0.00512604276
vn -0.9703978 -0.137582555 -0.198492438
vn 0.462471634 0.256828338 0.848621964
vn 0.732210159 0.6809624 0.0125894686
vn 0.7371571 0.660602152 0.142141432
vn 0.398540944 0.233327255 0.886974335
vn -0.596869 0.1743345 -0.7831698
vn -0.6601702 0.06954738 -0.74788934
vn -0.9538903 -0.300111562 -0.00512604276
vn -0.9703978 -0.137582555 -0.198492438
vn 0.1871602 0.550856531 0.8133438
vn 0.0174031481 0.3326919 0.942874968
vn -0.438591748 0.302520126 0.8462381
vn 0.00802554 0.4646515 0.8854573
vn 0.564140737 0.533569753 0.630117834
vn 0.7474669 0.3155752 0.5845558
vn 0.26358375 0.63905406 0.722588062
vn -0.1545942 0.622773767 0.766976833
vn 0.594967842 0.5724875 0.5641554
vn 0.8208858 0.265624166 0.5055594
vn 0.818303168 0.492886335 0.295707673
vn 0.229584217 0.9266976 0.297527552
vn 0.242236331 0.536904454 0.8081183
vn 0.153960645 0.975317061 0.158280656
vn 0.202073827 0.709202647 0.6754241
vn 0.006514241 0.733351052 0.679819
vn 0.165270135 0.425405651 0.889784157
vn 0.498534173 0.283453643 0.819217741
vn -0.18965821 0.403655261 0.895037532
vn 0.343661368 0.89361155 -0.2887131
vn -0.141972527 0.97649163 0.162196979
vn -0.184408247 0.7113209 0.678244948
vn -0.145570263 0.426418 0.89273566
vn 0.801980734 0.0524784438 -0.595040262
vn 0.237525344 0.187188372 -0.9531748
vn 0.247552991 0.685518265 -0.684676766
vn 0.7867704 0.342441052 -0.513543069
vn -0.00476225466 0.381480545 -0.9243646
vn 0.162746221 0.3990485 -0.9023713
vn 0.109660432 0.8071737 -0.580038965
vn 0.137415588 0.0449958965 -0.9894909
vn 0.4808374 -0.0559764355 -0.87502116
vn -0.1931515 0.0339970961 -0.9805798
vn 0.3646013 0.90149343 -0.233185589
vn -0.114839382 0.8083509 -0.5773913
vn -0.155670673 0.04612886 -0.98673135
vn -0.17564632 0.400331825 -0.899379134
vn -0.835087538 0.3733465 -0.404031217
vn -0.464882135 0.343774825 -0.8159065
vn -0.399953783 0.5378285 -0.7421438
vn -0.719560444 0.595656931 -0.356967121
vn -0.7822002 0.368757278 0.502176166
vn -0.709631562 0.578366041 0.402387619
vn -0.377750039 0.394119024 0.837839544
vn -0.410805434 0.2615555 0.873400033
vn -0.835087538 0.3733465 -0.404031217
vn -0.719560444 0.595656931 -0.356967121
vn -0.871986032 0.441773325 -0.2108949
vn -0.6065643 0.343978852 -0.716769338
vn -0.492746085 0.2362592 -0.837486
vn -0.883219659 0.325239658 -0.337849349
vn -0.396570116 0.265193224 0.87886554
vn -0.8243252 0.3694948 0.428907365
vn -0.838130951 0.2673989 0.475430727
vn -0.456174046 0.169288278 0.873639941
vn -0.871986032 0.441773325 -0.2108949
vn -0.883219659 0.325239658 -0.337849349
vn 0.365938 0.9249913 0.102373824
vn 0.365938 0.9249913 0.102373824
vn 0.365938 0.9249913 0.102373824
vn 0.350425839 0.93008256 0.11021895
vn 0.350425839 0.93008256 0.11021895
vn 0.350425839 0.93008256 0.11021895
vn 0.088127315 0.9863106 0.139373466
vn 0.088127315 0.9863106 0.139373466
vn 0.088127315 0.9863106 0.139373466
vn 0.105825916 0.985803246 0.130356655
vn 0.105825916 0.985803246 0.130356655
vn 0.105825916 0.985803246 0.130356655
vn -0.245156646 -0.149074242 0.9579536
vn -0.330384254 0.159508675 0.9302705
vn -0.346735269 0.5909647 0.728378654
vn -0.993532062 -0.08345435 -0.07700277
vn -0.8871245 -0.0237087328 0.4609209
vn -0.168878227 -0.9303481 0.325472772
vn -0.237970456 -0.449344873 -0.8610803
vn -0.232870713 0.07614748 -0.96952194
vn -0.587634444 -0.116359033 -0.800716162
vn -0.993532062 -0.08345435 -0.07700277
vn -0.168878227 -0.9303481 0.325472772
vn -0.4685499 -0.0755697638 0.880198956
vn -0.3291608 0.3566717 0.8743217
vn 0.8628129 -0.5048269 -0.0265270453
vn -0.168878227 -0.9303481 0.325472772
vn 0.203051984 -0.662870944 0.7206747
vn 0.215391219 -0.737443268 0.6401438
vn -0.8584392 0.512877 -0.00626695342
vn -0.358328074 0.127360567 -0.9248677
vn -0.3739212 0.4355025 -0.8188532
vn -0.878255963 0.4638761 0.11612685
vn -0.62179774 -0.07074696 0.779975951
vn -0.703867435 0.11154706 0.701518238
vn -0.2820143 0.3807416 0.8806269
vn -0.703867435 0.11154706 0.701518238
vn -0.994927943 0.05465354 -0.08444727
vn -0.9846867 0.06035076 0.163554057
vn -0.6129682 0.0153217986 -0.789959
vn -0.6259694 0.15605019 -0.764075041
vn -0.630257368 0.0308721978 0.7757722
vn -0.453638971 0.0105051063 0.891123652
vn 0.4523056 -0.116730884 -0.8841909
vn 0.967170238 -0.2533553 0.01982115
vn 0.9813021 -0.152165875 -0.117863514
vn 0.4715909 -0.03949422 -0.88093257
vn 0.621534765 -0.07433383 0.7798519
vn 0.4799224 -0.161277428 0.8623596
vn 0.9813021 -0.152165875 -0.117863514
vn 0.967170238 -0.2533553 0.01982115
vn -0.7070715 -0.230971828 0.6683577
vn 0.466816127 -0.297126472 0.8329457
vn -0.9959429 0.08394714 -0.03241288
vn -0.632389545 0.24244903 -0.735732257
vn -0.5785047 0.09235531 -0.810433745
vn -0.9920915 0.102313116 0.07270837
vn -0.680127 0.0459873639 0.7316505
vn -0.8020095 -0.300374269 0.5162906
vn 0.440328181 0.03223737 -0.897258
vn 0.348313957 0.208130047 -0.9139799
vn 0.988011 -0.0126225278 -0.153866589
vn 0.9983817 -0.0567777976 0.00321119325
vn 0.4427745 -0.40643096 0.799227536
vn 0.3200084 -0.0144501263 0.9473045
vn 0.988011 -0.0126225278 -0.153866589
vn 0.9983817 -0.0567777976 0.00321119325
vn -0.547801733 -0.0809271038 -0.8326849
vn -0.992411256 0.00629624166 0.122801483
vn -0.5693586 0.115849756 0.8138855
vn -0.9715729 0.145186692 -0.186994553
vn -0.6480116 0.2506814 0.7191938
vn 0.6427504 -0.0137109952 -0.765952945
vn 0.5413569 -0.0771498457 -0.8372458
vn 0.99844 -0.0465676822 0.0308051724
vn 0.991944551 -0.04456672 0.118574113
vn -0.457128346 0.0292613748 -0.888919234
vn 0.4730179 0.06421775 0.8787094
vn 0.533857346 0.09280886 0.840465844
vn 0.991944551 -0.04456672 0.118574113
vn 0.99844 -0.0465676822 0.0308051724
vn -0.638031244 0.768538535 0.047588516
vn -0.1048726 0.732333064 -0.6728224
vn 0.5609237 -0.237214759 0.7931543
vn 0.9859299 -0.0207244158 -0.165869668
vn -0.3739212 0.4355025 -0.8188532
vn -0.358328074 0.127360567 -0.9248677
vn -0.237970456 -0.449344873 -0.8610803
vn 0.6268693 -0.0351656154 -0.7783304
vn -0.168878227 -0.9303481 0.325472772
vn 0.8628129 -0.5048269 -0.0265270453
vn -0.3867752 0.322419733 0.8639736
vn -0.62179774 -0.07074696 0.779975951
vn -0.3867752 0.322419733 0.8639736
vn -0.966857135 0.0478666052 -0.2507909
vn -0.573917747 -0.0495650247 -0.8174116
vn -0.8745132 0.07807308 0.478676528
vn -0.408953756 -0.03098517 0.9120289
vn -0.966857135 0.0478666052 -0.2507909
vn 0.64505595 0.276353925 -0.7124123
vn -0.1048726 0.732333064 -0.6728224
vn 0.9859299 -0.0207244158 -0.165869668
vn -0.2143445 0.6422465 -0.7359184
vn -0.234744087 0.4061929 -0.8831209
vn -0.5168459 0.8547064 -0.04844878
vn -0.3307754 0.933947861 -0.135384634
vn -0.2820143 0.3807416 0.8806269
vn -0.346735269 0.5909647 0.728378654
vn -0.232870713 0.07614748 -0.96952194
vn -0.234744087 0.4061929 -0.8831209
vn -0.2143445 0.6422465 -0.7359184
vn -0.245156646 -0.149074242 0.9579536
vn -0.2143445 0.6422465 -0.7359184
vn -0.9816277 -0.158902973 0.105626106
vn -0.473179042 -0.0596511438 0.878944457
vn -0.83338356 -0.3376462 0.43756935
vn -0.759850562 -0.3305414 -0.5597941
vn -0.6941278 -0.05240565 -0.717941642
vn -0.3291608 0.3566717 0.8743217
vn -0.7610222 0.408096 0.5042845
vn -0.6641324 0.235337868 -0.7096085
vn -0.7610222 0.408096 0.5042845
vn -0.361230731 0.351488352 0.863694549
vn -0.3339823 0.445342779 0.830738
vn -0.362772524 0.6588568 0.659017265
vn -0.286186874 0.820958555 0.4940892
vn -0.2659939 0.963279963 -0.0365914963
vn -0.500602245 0.864938855 -0.03575097
vn -0.395014018 0.636022747 0.662901938
vn -0.451643348 0.08616143 0.888028443
vn -0.2659939 0.963279963 -0.0365914963
vn -0.230703741 0.7463405 -0.624300957
vn -0.500602245 0.864938855 -0.03575097
vn -0.234870985 0.909109652 -0.344028026
vn -0.5104011 0.84756577 0.145337522
vn -0.168543667 0.7318812 0.6602597
vn -0.5104011 0.84756577 0.145337522
vn -0.346735269 0.5909647 0.728378654
vn 0.6781514 -0.7340737 -0.03530454
vn 0.241783246 -0.66932416 0.7025283
vn 0.200245872 -0.5518288 0.8095595
vn 0.785393238 -0.6019444 -0.144292682
vn -0.4315357 0.5017816 -0.7496614
vn -0.8024499 0.5872892 0.105667531
vn -0.9160685 0.3941035 0.0741683841
vn -0.533640265 0.3773555 -0.756855965
vn -0.618167 -0.10851334 0.778520644
vn -0.578612149 0.155692875 0.8006046
vn 0.370778561 -0.0139722824 -0.928616166
vn 0.498409361 -0.299911469 -0.8134133
vn 0.6781514 -0.7340737 -0.03530454
vn 0.785393238 -0.6019444 -0.144292682
vn -0.445905566 0.414856225 -0.7931346
vn -0.412394 0.07765125 -0.907690167
vn -0.8164001 0.572384357 -0.07659661
vn -0.7522802 0.653578162 0.0831272453
vn 0.383569658 -0.161571115 -0.909268439
vn 0.566718161 -0.427993625 -0.704025567
vn -0.358361036 0.520801961 0.7748178
vn -0.3642542 0.355378777 0.860828
vn 0.86865133 -0.487218767 -0.08979276
vn 0.8715922 -0.447107136 0.201052874
vn 0.4233819 -0.02512805 0.905602753
vn 0.482889116 -0.2929327 0.8252324
vn 0.8715922 -0.447107136 0.201052874
vn 0.86865133 -0.487218767 -0.08979276
vn -0.8024499 0.5872892 0.105667531
vn -0.4315357 0.5017816 -0.7496614
vn -0.323642939 0.5927646 -0.7374858
vn 0.458923221 -0.0155319162 -0.8883402
vn -0.727352 0.6857574 0.02637929
vn -0.729558468 0.666335166 0.154084116
vn -0.244171873 0.656268 -0.713927448
vn -0.194663554 0.6249011 -0.756045461
vn 0.951764643 -0.3059508 -0.0231995825
vn 0.469755232 -0.287940919 0.834517837
vn 0.536051452 -0.30314818 0.7878769
vn 0.9657688 -0.145260632 -0.214918375
vn -0.729558468 0.666335166 0.154084116
vn -0.727352 0.6857574 0.02637929
vn -0.442872 0.262558758 0.857279
vn -0.379102081 0.239652842 0.893783033
vn 0.583483636 0.167757437 -0.794609547
vn 0.645567 0.06340473 -0.7610671
vn 0.951764643 -0.3059508 -0.0231995825
vn 0.9657688 -0.145260632 -0.214918375
vn 0.455680281 0.2993586 0.8382958
vn 0.00170190015 0.3327836 0.9430017
vn -0.16875799 0.552160561 0.8164799
vn 0.0109878527 0.4646404 0.8854313
vn -0.549059868 0.537540555 0.639987051
vn -0.7347167 0.32081455 0.597720146
vn 0.17245625 0.6216843 0.7640468
vn -0.246184766 0.6409228 0.727056444
vn -0.580709636 0.5767419 0.5745826
vn -0.215793982 0.92903167 0.300554723
vn -0.810126662 0.4979946 0.309347928
vn -0.8099633 0.270954 0.5201379
vn -0.223160654 0.53788 0.812948
vn -0.481877744 0.2869017 0.827937961
vn 0.208739862 0.402367622 0.891362965
vn -0.341240138 0.8950357 -0.287169456
vn 0.202073827 0.709202647 0.6754241
vn 0.165270135 0.425405651 0.889784157
vn 0.153960645 0.975317061 0.158280656
vn -0.255465329 0.6872382 -0.6800302
vn -0.253746837 0.188610166 -0.9487037
vn -0.8120317 0.05818402 -0.580705762
vn -0.793327 0.348026782 -0.499509454
vn 0.1755981 0.0324976146 -0.9839254
vn -0.496686727 -0.05252045 -0.8663394
vn -0.362280369 0.904072762 -0.2267276
vn 0.162746221 0.3990485 -0.9023713
vn 0.137415588 0.0449958965 -0.9894909
vn 0.109660432 0.8071737 -0.580038965
usemtl 0003070002_part_0_material_0
f 1/1/1 2/2/2 3/3/3
f 3/3/3 4/4/4 1/1/1
f 5/5/5 6/6/6 7/7/7
f 7/7/7 8/8/8 5/5/5
f 9/9/9 5/5/5 8/8/8
f 8/8/8 10/10/10 9/9/9
f 6/6/6 11/11/11 12/12/12
f 12/12/12 7/7/7 6/6/6
f 13/13/13 14/14/14 2/2/2
f 2/2/2 1/1/1 13/13/13
f 15/15/15 16/16/16 17/17/17
f 17/17/17 18/18/18 15/15/15
f 19/19/19 20/20/20 21/21/21
f 21/21/21 22/22/22 19/19/19
f 21/21/21 23/23/23 24/24/24
f 24/24/24 22/22/22 21/21/21
f 25/25/25 20/20/20 19/19/19
f 19/19/19 26/26/26 25/25/25
f 27/27/27 16/16/16 15/15/15
f 15/15/15 28/28/28 27/27/27
f 2/2/2 15/15/15 18/18/18
f 18/18/18 3/3/3 2/2/2
f 19/19/19 22/22/22 8/8/8
f 8/8/8 7/7/7 19/19/19
f 22/22/22 24/24/24 10/10/10
f 10/10/10 8/8/8 22/22/22
f 26/26/26 19/19/19 7/7/7
f 7/7/7 12/12/12 26/26/26
f 14/14/14 28/28/28 15/15/15
f 15/15/15 2/2/2 14/14/14
f 29/29/29 30/30/30 31/31/31
f 32/32/32 33/33/33 34/34/34
f 35/35/35 36/36/36 37/37/37
f 38/38/38 39/39/39 40/40/40
f 41/41/41 42/42/42 43/43/43
f 42/42/42 44/44/44 45/45/45
f 45/45/45 46/46/46 42/42/42
f 47/47/47 48/48/48 49/49/49
f 49/49/49 50/50/50 47/47/47
f 51/51/51 50/50/50 49/49/49
f 48/48/48 47/47/47 52/52/52
f 52/52/52 53/53/53 48/48/48
f 41/41/41 54/54/54 55/55/55
f 55/55/55 56/56/56 41/41/41
f 41/41/41 56/56/56 44/44/44
f 44/44/44 42/42/42 41/41/41
f 57/57/57 54/54/54 41/41/41
f 41/41/41 58/58/58 57/57/57
f 59/59/59 60/60/60 61/61/61
f 61/61/61 62/62/62 59/59/59
f 63/63/63 64/64/64 65/65/65
f 65/65/65 66/66/66 63/63/63
f 67/67/67 66/66/66 65/65/65
f 65/65/65 68/68/68 67/67/67
f 69/69/69 70/70/70 59/59/59
f 71/71/71 72/72/72 73/73/73
f 73/73/73 74/74/74 71/71/71
f 72/72/72 75/75/75 76/76/76
f 76/76/76 73/73/73 72/72/72
f 77/77/77 78/78/78 79/79/79
f 79/79/79 80/80/80 77/77/77
f 79/79/79 71/71/71 74/74/74
f 74/74/74 80/80/80 79/79/79
f 75/75/75 81/81/81 82/82/82
f 82/82/82 76/76/76 75/75/75
f 81/81/81 83/83/83 84/84/84
f 84/84/84 82/82/82 81/81/81
f 76/76/76 85/85/85 73/73/73
f 76/76/76 82/82/82 86/86/86
f 86/86/86 85/85/85 76/76/76
f 86/86/86 82/82/82 84/84/84
f 87/87/87 88/88/88 89/89/89
f 89/89/89 90/90/90 87/87/87
f 89/89/89 91/91/91 92/92/92
f 92/92/92 90/90/90 89/89/89
f 93/93/93 94/94/94 95/95/95
f 95/95/95 96/96/96 93/93/93
f 94/94/94 88/88/88 87/87/87
f 87/87/87 95/95/95 94/94/94
f 92/92/92 91/91/91 97/97/97
f 97/97/97 98/98/98 92/92/92
f 98/98/98 97/97/97 99/99/99
f 99/99/99 100/100/100 98/98/98
f 101/101/101 87/87/87 90/90/90
f 90/90/90 102/102/102 101/101/101
f 103/103/103 102/102/102 104/104/104
f 104/104/104 105/105/105 103/103/103
f 106/106/106 107/107/107 108/108/108
f 108/108/108 109/109/109 106/106/106
f 107/107/107 101/101/101 110/110/110
f 110/110/110 108/108/108 107/107/107
f 105/105/105 104/104/104 111/111/111
f 111/111/111 112/112/112 105/105/105
f 111/111/111 113/113/113 114/114/114
f 114/114/114 112/112/112 111/111/111
f 63/63/63 66/66/66 115/115/115
f 115/115/115 116/116/116 63/63/63
f 117/117/117 62/62/62 61/61/61
f 61/61/61 118/118/118 117/117/117
f 119/119/119 120/120/120 121/121/121
f 121/121/121 122/122/122 119/119/119
f 123/123/123 124/124/124 119/119/119
f 119/119/119 122/122/122 123/123/123
f 125/125/125 115/115/115 66/66/66
f 66/66/66 67/67/67 125/125/125
f 117/117/117 126/126/126 127/127/127
f 127/127/127 62/62/62 117/117/117
f 88/88/88 74/74/74 73/73/73
f 73/73/73 89/89/89 88/88/88
f 73/73/73 85/85/85 91/91/91
f 91/91/91 89/89/89 73/73/73
f 77/77/77 80/80/80 94/94/94
f 94/94/94 93/93/93 77/77/77
f 94/94/94 80/80/80 74/74/74
f 74/74/74 88/88/88 94/94/94
f 85/85/85 86/86/86 97/97/97
f 97/97/97 91/91/91 85/85/85
f 97/97/97 86/86/86 84/84/84
f 84/84/84 99/99/99 97/97/97
f 102/102/102 103/103/103 110/110/110
f 110/110/110 101/101/101 102/102/102
f 102/102/102 90/90/90 92/92/92
f 92/92/92 104/104/104 102/102/102
f 104/104/104 92/92/92 98/98/98
f 98/98/98 111/111/111 104/104/104
f 98/98/98 100/100/100 113/113/113
f 113/113/113 111/111/111 98/98/98
f 95/95/95 107/107/107 106/106/106
f 106/106/106 96/96/96 95/95/95
f 95/95/95 87/87/87 101/101/101
f 101/101/101 107/107/107 95/95/95
f 47/47/47 50/50/50 128/128/128
f 128/128/128 129/129/129 47/47/47
f 56/56/56 130/130/130 131/131/131
f 131/131/131 44/44/44 56/56/56
f 132/132/132 130/130/130 56/56/56
f 56/56/56 55/55/55 132/132/132
f 131/131/131 133/133/133 45/45/45
f 45/45/45 44/44/44 131/131/131
f 129/129/129 134/134/134 52/52/52
f 52/52/52 47/47/47 129/129/129
f 121/121/121 135/135/135 136/136/136
f 136/136/136 122/122/122 121/121/121
f 123/123/123 122/122/122 136/136/136
f 136/136/136 137/137/137 123/123/123
f 138/138/138 139/139/139 140/140/140
f 140/140/140 141/141/141 138/138/138
f 142/142/142 143/143/143 138/138/138
f 138/138/138 141/141/141 142/142/142
f 59/59/59 62/62/62 127/127/127
f 127/127/127 69/69/69 59/59/59
f 144/144/144 119/119/119 145/145/145
f 145/145/145 146/146/146 144/144/144
f 60/60/60 59/59/59 147/147/147
f 53/53/53 148/148/148 48/48/48
f 149/149/149 148/148/148 53/53/53
f 150/150/150 151/151/151 152/152/152
f 152/152/152 153/153/153 150/150/150
f 154/154/154 155/155/155 151/151/151
f 151/151/151 150/150/150 154/154/154
f 156/156/156 157/157/157 158/158/158
f 158/158/158 153/153/153 156/156/156
f 153/153/153 152/152/152 156/156/156
f 152/152/152 151/151/151 159/159/159
f 159/159/159 160/160/160 152/152/152
f 161/161/161 162/162/162 157/157/157
f 157/157/157 156/156/156 161/161/161
f 160/160/160 161/161/161 156/156/156
f 156/156/156 152/152/152 160/160/160
f 151/151/151 155/155/155 163/163/163
f 163/163/163 159/159/159 151/151/151
f 41/41/41 43/43/43 164/164/164
f 164/164/164 58/58/58 41/41/41
f 165/165/165 166/166/166 167/167/167
f 168/168/168 169/169/169 170/170/170
f 170/170/170 167/167/167 168/168/168
f 166/166/166 171/171/171 172/172/172
f 172/172/172 167/167/167 166/166/166
f 173/173/173 174/174/174 175/175/175
f 173/173/173 176/176/176 177/177/177
f 177/177/177 174/174/174 173/173/173
f 175/175/175 178/178/178 173/173/173
f 168/168/168 167/167/167 172/172/172
f 172/172/172 179/179/179 168/168/168
f 165/165/165 167/167/167 170/170/170
f 170/170/170 180/180/180 165/165/165
f 181/181/181 178/178/178 175/175/175
f 120/120/120 119/119/119 144/144/144
f 64/64/64 139/139/139 138/138/138
f 138/138/138 65/65/65 64/64/64
f 138/138/138 143/143/143 68/68/68
f 68/68/68 65/65/65 138/138/138
f 147/147/147 59/59/59 70/70/70
f 70/70/70 182/182/182 147/147/147
f 169/169/169 183/183/183 180/180/180
f 180/180/180 170/170/170 169/169/169
f 169/169/169 184/184/184 183/183/183
f 185/185/185 186/186/186 187/187/187
f 187/187/187 188/188/188 185/185/185
f 189/189/189 190/190/190 191/191/191
f 191/191/191 192/192/192 189/189/189
f 193/193/193 186/186/186 185/185/185
f 185/185/185 194/194/194 193/193/193
f 192/192/192 191/191/191 195/195/195
f 195/195/195 196/196/196 192/192/192
f 197/197/197 196/196/196 195/195/195
f 195/195/195 198/198/198 197/197/197
f 189/189/189 193/193/193 194/194/194
f 194/194/194 190/190/190 189/189/189
f 199/199/199 200/200/200 201/201/201
f 201/201/201 202/202/202 199/199/199
f 200/200/200 203/203/203 204/204/204
f 204/204/204 201/201/201 200/200/200
f 205/205/205 206/206/206 199/199/199
f 199/199/199 202/202/202 205/205/205
f 203/203/203 207/207/207 208/208/208
f 208/208/208 204/204/204 203/203/203
f 205/205/205 209/209/209 210/210/210
f 210/210/210 206/206/206 205/205/205
f 211/211/211 210/210/210 209/209/209
f 209/209/209 212/212/212 211/211/211
f 213/213/213 214/214/214 202/202/202
f 202/202/202 215/215/215 213/213/213
f 195/195/195 213/213/213 215/215/215
f 215/215/215 216/216/216 195/195/195
f 198/198/198 195/195/195 216/216/216
f 216/216/216 208/208/208 198/198/198
f 185/185/185 209/209/209 205/205/205
f 205/205/205 194/194/194 185/185/185
f 205/205/205 202/202/202 214/214/214
f 214/214/214 194/194/194 205/205/205
f 202/202/202 201/201/201 215/215/215
f 216/216/216 215/215/215 201/201/201
f 201/201/201 204/204/204 216/216/216
f 188/188/188 212/212/212 209/209/209
f 209/209/209 185/185/185 188/188/188
f 216/216/216 204/204/204 208/208/208
f 217/217/217 218/218/218 219/219/219
f 219/219/219 220/220/220 217/217/217
f 221/221/221 222/222/222 223/223/223
f 223/223/223 224/224/224 221/221/221
f 225/225/225 226/226/226 227/227/227
f 227/227/227 228/228/228 225/225/225
f 221/221/221 225/225/225 228/228/228
f 228/228/228 222/222/222 221/221/221
f 217/217/217 220/220/220 229/229/229
f 229/229/229 230/230/230 217/217/217
f 231/231/231 230/230/230 229/229/229
f 229/229/229 232/232/232 231/231/231
f 233/233/233 234/234/234 235/235/235
f 235/235/235 236/236/236 233/233/233
f 237/237/237 233/233/233 236/236/236
f 236/236/236 238/238/238 237/237/237
f 239/239/239 240/240/240 234/234/234
f 234/234/234 233/233/233 239/239/239
f 241/241/241 239/239/239 233/233/233
f 233/233/233 237/237/237 241/241/241
f 242/242/242 243/243/243 244/244/244
f 244/244/244 245/245/245 242/242/242
f 246/246/246 247/247/247 248/248/248
f 247/247/247 249/249/249 248/248/248
f 250/250/250 242/242/242 245/245/245
f 245/245/245 251/251/251 250/250/250
f 243/243/243 252/252/252 244/244/244
f 253/253/253 246/246/246 248/248/248
f 254/254/254 248/248/248 255/255/255
f 254/254/254 253/253/253 248/248/248
f 255/255/255 248/248/248 249/249/249
f 251/251/251 245/245/245 254/254/254
f 254/254/254 255/255/255 251/251/251
f 254/254/254 245/245/245 244/244/244
f 244/244/244 252/252/252 253/253/253
f 253/253/253 254/254/254 244/244/244
f 256/256/256 257/257/257 258/258/258
f 258/258/258 259/259/259 256/256/256
f 260/260/260 261/261/261 262/262/262
f 260/260/260 263/263/263 261/261/261
f 264/264/264 265/265/265 257/257/257
f 257/257/257 256/256/256 264/264/264
f 258/258/258 266/266/266 259/259/259
f 260/260/260 262/262/262 267/267/267
f 268/268/268 260/260/260 269/269/269
f 260/260/260 267/267/267 269/269/269
f 263/263/263 260/260/260 268/268/268
f 265/265/265 268/268/268 269/269/269
f 269/269/269 257/257/257 265/265/265
f 258/258/258 257/257/257 269/269/269
f 258/258/258 269/269/269 267/267/267
f 267/267/267 266/266/266 258/258/258
f 270/270/270 271/271/271 272/272/272
f 272/272/272 273/273/273 270/270/270
f 274/274/274 275/275/275 276/276/276
f 276/276/276 277/277/277 274/274/274
f 277/277/277 276/276/276 9/9/9
f 9/9/9 10/10/10 277/277/277
f 278/278/278 279/279/279 275/275/275
f 275/275/275 274/274/274 278/278/278
f 271/271/271 14/14/14 13/13/13
f 13/13/13 272/272/272 271/271/271
f 280/280/280 281/281/281 282/282/282
f 282/282/282 283/283/283 280/280/280
f 284/284/284 285/285/285 286/286/286
f 286/286/286 287/287/287 284/284/284
f 24/24/24 23/23/23 284/284/284
f 284/284/284 287/287/287 24/24/24
f 286/286/286 285/285/285 288/288/288
f 288/288/288 289/289/289 286/286/286
f 282/282/282 281/281/281 27/27/27
f 27/27/27 28/28/28 282/282/282
f 283/283/283 282/282/282 271/271/271
f 271/271/271 270/270/270 283/283/283
f 277/277/277 287/287/287 286/286/286
f 286/286/286 274/274/274 277/277/277
f 10/10/10 24/24/24 287/287/287
f 287/287/287 277/277/277 10/10/10
f 274/274/274 286/286/286 289/289/289
f 289/289/289 278/278/278 274/274/274
f 282/282/282 28/28/28 14/14/14
f 14/14/14 271/271/271 282/282/282
f 290/290/290 291/291/291 292/292/292
f 293/293/293 294/294/294 295/295/295
f 296/296/296 297/297/297 298/298/298
f 299/299/299 300/300/300 301/301/301
f 302/302/302 303/303/303 304/304/304
f 305/305/305 306/306/306 302/302/302
f 302/302/302 307/307/307 305/305/305
f 308/308/308 309/309/309 310/310/310
f 310/310/310 311/311/311 308/308/308
f 311/311/311 312/312/312 308/308/308
f 52/52/52 310/310/310 309/309/309
f 309/309/309 53/53/53 52/52/52
f 55/55/55 54/54/54 303/303/303
f 303/303/303 313/313/313 55/55/55
f 306/306/306 313/313/313 303/303/303
f 303/303/303 302/302/302 306/306/306
f 303/303/303 54/54/54 57/57/57
f 57/57/57 314/314/314 303/303/303
f 315/315/315 316/316/316 317/317/317
f 317/317/317 318/318/318 315/315/315
f 319/319/319 320/320/320 321/321/321
f 321/321/321 322/322/322 319/319/319
f 319/319/319 322/322/322 323/323/323
f 323/323/323 324/324/324 319/319/319
f 325/325/325 326/326/326 317/317/317
f 327/327/327 328/328/328 329/329/329
f 329/329/329 330/330/330 327/327/327
f 331/331/331 332/332/332 328/328/328
f 328/328/328 327/327/327 331/331/331
f 333/333/333 334/334/334 335/335/335
f 335/335/335 336/336/336 333/333/333
f 330/330/330 329/329/329 333/333/333
f 333/333/333 336/336/336 330/330/330
f 337/337/337 338/338/338 332/332/332
f 332/332/332 331/331/331 337/337/337
f 339/339/339 340/340/340 338/338/338
f 338/338/338 337/337/337 339/339/339
f 341/341/341 331/331/331 327/327/327
f 342/342/342 337/337/337 331/331/331
f 331/331/331 341/341/341 342/342/342
f 337/337/337 342/342/342 339/339/339
f 343/343/343 344/344/344 345/345/345
f 345/345/345 346/346/346 343/343/343
f 347/347/347 348/348/348 343/343/343
f 343/343/343 346/346/346 347/347/347
f 349/349/349 350/350/350 351/351/351
f 351/351/351 352/352/352 349/349/349
f 345/345/345 344/344/344 350/350/350
f 350/350/350 349/349/349 345/345/345
f 353/353/353 348/348/348 347/347/347
f 347/347/347 354/354/354 353/353/353
f 355/355/355 353/353/353 354/354/354
f 354/354/354 356/356/356 355/355/355
f 346/346/346 345/345/345 357/357/357
f 357/357/357 358/358/358 346/346/346
f 359/359/359 358/358/358 360/360/360
f 360/360/360 361/361/361 359/359/359
f 362/362/362 363/363/363 364/364/364
f 364/364/364 365/365/365 362/362/362
f 366/366/366 357/357/357 363/363/363
f 363/363/363 362/362/362 366/366/366
f 367/367/367 359/359/359 361/361/361
f 361/361/361 368/368/368 367/367/367
f 369/369/369 370/370/370 367/367/367
f 367/367/367 368/368/368 369/369/369
f 371/371/371 322/322/322 321/321/321
f 321/321/321 372/372/372 371/371/371
f 315/315/315 318/318/318 373/373/373
f 373/373/373 374/374/374 315/315/315
f 375/375/375 376/376/376 377/377/377
f 377/377/377 378/378/378 375/375/375
f 377/377/377 379/379/379 380/380/380
f 380/380/380 378/378/378 377/377/377
f 322/322/322 371/371/371 381/381/381
f 381/381/381 323/323/323 322/322/322
f 382/382/382 383/383/383 373/373/373
f 373/373/373 318/318/318 382/382/382
f 327/327/327 330/330/330 344/344/344
f 344/344/344 343/343/343 327/327/327
f 348/348/348 341/341/341 327/327/327
f 327/327/327 343/343/343 348/348/348
f 350/350/350 336/336/336 335/335/335
f 335/335/335 351/351/351 350/350/350
f 330/330/330 336/336/336 350/350/350
f 350/350/350 344/344/344 330/330/330
f 353/353/353 342/342/342 341/341/341
f 341/341/341 348/348/348 353/353/353
f 339/339/339 342/342/342 353/353/353
f 353/353/353 355/355/355 339/339/339
f 366/366/366 360/360/360 358/358/358
f 358/358/358 357/357/357 366/366/366
f 347/347/347 346/346/346 358/358/358
f 358/358/358 359/359/359 347/347/347
f 354/354/354 347/347/347 359/359/359
f 359/359/359 367/367/367 354/354/354
f 370/370/370 356/356/356 354/354/354
f 354/354/354 367/367/367 370/370/370
f 364/364/364 363/363/363 349/349/349
f 349/349/349 352/352/352 364/364/364
f 357/357/357 345/345/345 349/349/349
f 349/349/349 363/363/363 357/357/357
f 384/384/384 311/311/311 310/310/310
f 310/310/310 385/385/385 384/384/384
f 386/386/386 387/387/387 313/313/313
f 313/313/313 306/306/306 386/386/386
f 313/313/313 387/387/387 132/132/132
f 132/132/132 55/55/55 313/313/313
f 305/305/305 388/388/388 386/386/386
f 386/386/386 306/306/306 305/305/305
f 52/52/52 134/134/134 385/385/385
f 385/385/385 310/310/310 52/52/52
f 389/389/389 390/390/390 375/375/375
f 375/375/375 378/378/378 389/389/389
f 389/389/389 378/378/378 380/380/380
f 380/380/380 391/391/391 389/389/389
f 392/392/392 393/393/393 394/394/394
f 394/394/394 395/395/395 392/392/392
f 394/394/394 396/396/396 397/397/397
f 397/397/397 395/395/395 394/394/394
f 382/382/382 318/318/318 317/317/317
f 317/317/317 326/326/326 382/382/382
f 398/398/398 377/377/377 399/399/399
f 399/399/399 400/400/400 398/398/398
f 317/317/317 316/316/316 401/401/401
f 402/402/402 53/53/53 309/309/309
f 402/402/402 149/149/149 53/53/53
f 403/403/403 404/404/404 405/405/405
f 405/405/405 406/406/406 403/403/403
f 404/404/404 155/155/155 154/154/154
f 154/154/154 405/405/405 404/404/404
f 158/158/158 157/157/157 407/407/407
f 407/407/407 406/406/406 158/158/158
f 403/403/403 406/406/406 407/407/407
f 408/408/408 404/404/404 403/403/403
f 403/403/403 409/409/409 408/408/408
f 157/157/157 162/162/162 410/410/410
f 410/410/410 407/407/407 157/157/157
f 407/407/407 410/410/410 409/409/409
f 409/409/409 403/403/403 407/407/407
f 163/163/163 155/155/155 404/404/404
f 404/404/404 408/408/408 163/163/163
f 411/411/411 304/304/304 303/303/303
f 303/303/303 314/314/314 411/411/411
f 412/412/412 413/413/413 414/414/414
f 415/415/415 416/416/416 417/417/417
f 417/417/417 414/414/414 415/415/415
f 418/418/418 419/419/419 412/412/412
f 412/412/412 414/414/414 418/418/418
f 420/420/420 421/421/421 422/422/422
f 177/177/177 176/176/176 421/421/421
f 421/421/421 420/420/420 177/177/177
f 423/423/423 422/422/422 421/421/421
f 418/418/418 414/414/414 417/417/417
f 417/417/417 424/424/424 418/418/418
f 415/415/415 414/414/414 413/413/413
f 413/413/413 425/425/425 415/415/415
f 423/423/423 426/426/426 422/422/422
f 377/377/377 376/376/376 399/399/399
f 394/394/394 393/393/393 320/320/320
f 320/320/320 319/319/319 394/394/394
f 324/324/324 396/396/396 394/394/394
f 394/394/394 319/319/319 324/324/324
f 325/325/325 317/317/317 401/401/401
f 401/401/401 427/427/427 325/325/325
f 425/425/425 183/183/183 416/416/416
f 416/416/416 415/415/415 425/425/425
f 184/184/184 416/416/416 183/183/183
f 428/428/428 429/429/429 430/430/430
f 430/430/430 431/431/431 428/428/428
f 432/432/432 433/433/433 434/434/434
f 434/434/434 435/435/435 432/432/432
f 430/430/430 429/429/429 436/436/436
f 436/436/436 437/437/437 430/430/430
f 438/438/438 432/432/432 435/435/435
f 435/435/435 439/439/439 438/438/438
f 438/438/438 439/439/439 440/440/440
f 440/440/440 441/441/441 438/438/438
f 437/437/437 436/436/436 434/434/434
f 434/434/434 433/433/433 437/437/437
f 442/442/442 443/443/443 444/444/444
f 444/444/444 445/445/445 442/442/442
f 446/446/446 447/447/447 443/443/443
f 443/443/443 442/442/442 446/446/446
f 444/444/444 448/448/448 449/449/449
f 449/449/449 445/445/445 444/444/444
f 450/450/450 451/451/451 447/447/447
f 447/447/447 446/446/446 450/450/450
f 452/452/452 453/453/453 449/449/449
f 449/449/449 448/448/448 452/452/452
f 453/453/453 452/452/452 454/454/454
f 454/454/454 455/455/455 453/453/453
f 445/445/445 456/456/456 457/457/457
f 457/457/457 458/458/458 445/445/445
f 458/458/458 457/457/457 438/438/438
f 438/438/438 459/459/459 458/458/458
f 459/459/459 438/438/438 441/441/441
f 441/441/441 450/450/450 459/459/459
f 449/449/449 453/453/453 430/430/430
f 430/430/430 437/437/437 449/449/449
f 456/456/456 445/445/445 449/449/449
f 449/449/449 437/437/437 456/456/456
f 442/442/442 445/445/445 458/458/458
f 442/442/442 458/458/458 459/459/459
f 459/459/459 446/446/446 442/442/442
f 453/453/453 455/455/455 431/431/431
f 431/431/431 430/430/430 453/453/453
f 446/446/446 459/459/459 450/450/450
f 460/460/460 461/461/461 462/462/462
f 462/462/462 463/463/463 460/460/460
f 464/464/464 465/465/465 466/466/466
f 466/466/466 467/467/467 464/464/464
f 468/468/468 469/469/469 470/470/470
f 470/470/470 471/471/471 468/468/468
f 471/471/471 470/470/470 466/466/466
f 466/466/466 465/465/465 471/471/471
f 472/472/472 463/463/463 462/462/462
f 462/462/462 473/473/473 472/472/472
f 472/472/472 473/473/473 474/474/474
f 474/474/474 475/475/475 472/472/472
f 476/476/476 477/477/477 478/478/478
f 478/478/478 479/479/479 476/476/476
f 479/479/479 478/478/478 480/480/480
f 480/480/480 481/481/481 479/479/479
f 477/477/477 482/482/482 483/483/483
f 483/483/483 478/478/478 477/477/477
f 478/478/478 483/483/483 484/484/484
f 484/484/484 480/480/480 478/478/478
f 485/485/485 486/486/486 487/487/487
f 487/487/487 488/488/488 485/485/485
f 488/488/488 487/487/487 489/489/489
f 489/489/489 490/490/490 488/488/488
f 491/491/491 486/486/486 485/485/485
f 492/492/492 488/488/488 490/490/490
f 490/490/490 493/493/493 492/492/492
f 488/488/488 492/492/492 485/485/485
f 494/494/494 491/491/491 485/485/485
f 485/485/485 492/492/492 494/494/494
f 495/495/495 496/496/496 497/497/497
f 497/497/497 498/498/498 495/495/495
f 496/496/496 499/499/499 500/500/500
f 500/500/500 497/497/497 496/496/496
f 501/501/501 495/495/495 498/498/498
f 502/502/502 503/503/503 499/499/499
f 499/499/499 496/496/496 502/502/502
f 496/496/496 495/495/495 502/502/502
f 504/504/504 502/502/502 495/495/495
f 495/495/495 501/501/501 504/504/504
