mtllib 0003012003.mtl
o 0003012003_part_0
v 0.303514451 0.6301923 -0.0317302868
v 0.265873343 0.6786655 -0.0429082364
v 0.2507058 0.672299445 -0.007793871
v 0.259071052 0.6238374 0.006647001
v 0.22127825 0.639533758 -0.07051089
v 0.276168376 0.61408937 -0.07881932
v 0.231850088 0.5972594 -0.0151826143
v 0.214693308 0.640361369 -0.0359221622
v 0.247395575 0.6599919 -0.07275787
v 0.230881587 0.6623356 -0.005296908
v 0.214693308 0.640361369 -0.0359221622
v 0.231850088 0.5972594 -0.0151826143
v 0.26086542 0.5961136 0.0205682069
v 0.2983829 0.532612264 0.0471958481
v 0.3298756 0.531015754 0.028226722
v 0.3543643 0.5263673 -0.0877132043
v 0.314482 0.518674731 -0.101410948
v 0.284636617 0.599394 -0.0829372257
v 0.230179057 0.5706321 -0.0153916366
v 0.314482 0.518674731 -0.101410948
v 0.295002341 0.5222444 0.01971422
v 0.362919 0.488336146 0.00772956433
v 0.371487647 0.498439878 0.0329151824
v 0.335253477 0.414347172 0.041553203
v 0.33465454 0.414612979 0.0196089018
v 0.3208676 0.490657 -0.101596348
v 0.316747338 0.498825282 -0.008363805
v 0.319845557 0.485673 0.035894
v 0.315487325 0.422081143 0.05053801
v 0.2620651 0.5381099 0.05739606
v 0.2491297 0.467180371 0.07118249
v 0.2915615 0.4785121 0.08130467
v 0.3227696 0.4205991 0.0187002849
v 0.315487325 0.422081143 0.05053801
v 0.319845557 0.485673 0.035894
v 0.315487325 0.422081143 0.05053801
v 0.3227696 0.4205991 0.0187002849
v 0.33465454 0.414612979 0.0196089018
v 0.335253477 0.414347172 0.041553203
v 0.278030425 0.45134446 0.0480144322
v 0.295002341 0.5222444 0.01971422
v 0.241023555 0.5298139 0.0105115008
v 0.278030425 0.45134446 0.0480144322
v 0.230179057 0.5706321 -0.0153916366
v 0.241023555 0.5298139 0.0105115008
v 0.278030425 0.45134446 0.0480144322
v 0.2491297 0.467180371 0.07118249
v 0.3216383 0.607477069 -0.0261075366
v 0.3642682 0.5422438 -0.007167391
v 0.353068262 0.48933205 -0.0897271559
v 0.3208676 0.490657 -0.101596348
v 0.318765163 0.40817523 -0.06853666
v 0.297536761 0.4138534 0.0145273423
v 0.318765163 0.40817523 -0.06853666
v 0.317430943 0.411854029 0.0125945667
v 0.318765163 0.40817523 -0.06853666
v 0.317430943 0.411854029 0.0125945667
v 0.297536761 0.4138534 0.0145273423
v 0.316747338 0.498825282 -0.008363805
v 0.362919 0.488336146 0.00772956433
v -0.307492256 0.6344333 -0.0259368662
v -0.2624203 0.627762 0.0116454018
v -0.253972977 0.6761296 -0.00294006569
v -0.269716382 0.6826049 -0.0377799161
v -0.225896344 0.6431606 -0.0661677942
v -0.218692422 0.643939435 -0.0317015275
v -0.235779911 0.6009936 -0.0106625622
v -0.2811014 0.618140459 -0.0735031441
v -0.2519042 0.663803 -0.06795183
v -0.235779911 0.6009936 -0.0106625622
v -0.218692422 0.643939435 -0.0317015275
v -0.234178469 0.666025639 -0.000794975262
v -0.264159739 0.6000975 0.02559169
v -0.333478957 0.535523534 0.034474045
v -0.301643819 0.5368962 0.0528807342
v -0.360055268 0.53105557 -0.08101234
v -0.289741725 0.6035522 -0.07747543
v -0.320477933 0.5230821 -0.09541578
v -0.234297827 0.5744018 -0.0109058926
v -0.2988253 0.526506364 0.0253440533
v -0.320477933 0.5230821 -0.09541578
v -0.367182046 0.4930798 0.014569724
v -0.3392329 0.419157952 0.02594983
v -0.339443862 0.418895 0.0479013175
v -0.375230432 0.5032423 0.039902918
v -0.3212305 0.5032433 -0.002341829
v -0.32706368 0.495110184 -0.0954859555
v -0.319467068 0.426488519 0.0565331541
v -0.3236351 0.490110546 0.0419648476
v -0.265112668 0.5421363 0.0624339469
v -0.294600338 0.482747078 0.0868664458
v -0.252436131 0.471116275 0.07599294
v -0.3236351 0.490110546 0.0419648476
v -0.319467068 0.426488519 0.0565331541
v -0.327323973 0.425059944 0.0248298924
v -0.319467068 0.426488519 0.0565331541
v -0.339443862 0.418895 0.0479013175
v -0.3392329 0.419157952 0.02594983
v -0.327323973 0.425059944 0.0248298924
v -0.2988253 0.526506364 0.0253440533
v -0.281855047 0.4554865 0.05334284
v -0.244966313 0.5336947 0.0151835922
v -0.281855047 0.4554865 0.05334284
v -0.234297827 0.5744018 -0.0109058926
v -0.244966313 0.5336947 0.0151835922
v -0.281855047 0.4554865 0.05334284
v -0.252436131 0.471116275 0.07599294
v -0.368414551 0.5469966 -0.00030433666
v -0.325670183 0.6118931 -0.019998014
v -0.359057 0.494012177 -0.0830466449
v -0.32706368 0.495110184 -0.0954859555
v -0.302217543 0.418136328 0.0202098712
v -0.32495752 0.412613571 -0.0624636263
v -0.32495752 0.412613571 -0.0624636263
v -0.322156578 0.416277766 0.0186308678
v -0.32495752 0.412613571 -0.0624636263
v -0.302217543 0.418136328 0.0202098712
v -0.322156578 0.416277766 0.0186308678
v -0.3212305 0.5032433 -0.002341829
v -0.367182046 0.4930798 0.014569724
vt 0.5894247 0.7637305
vt 0.577564538 0.918624
vt 0.6624373 0.9137855
vt 0.7416543 0.7668489
vt 0.3696749 0.917038441
vt 0.4259516 0.754030347
vt 0.260475576 0.7471549
vt 0.249819651 0.910982
vt 0.4243302 0.9160072
vt 0.7445162 0.9191731
vt 0.896876454 0.9454623
vt 0.9059819 0.7813801
vt 0.762045145 0.689600945
vt 0.8479141 0.463940024
vt 0.759783864 0.423545182
vt 0.4977723 0.4294858
vt 0.434729725 0.451269865
vt 0.43833068 0.68819356
vt 0.2643949 0.686898
vt 0.436383039 0.4536153
vt 0.162656054 0.435513437
vt 0.6744678 0.262051463
vt 0.728376567 0.285902143
vt 0.769713163 0.0180307031
vt 0.717639 0.0163198113
vt 0.440470666 0.332010269
vt 0.2799526 0.302302957
vt 0.782748044 0.2686516
vt 0.80962193 0.03482312
vt 0.8986057 0.5189861
vt 0.990572 0.299268
vt 0.948195755 0.2725438
vt 0.29548645 0.05127555
vt 0.222849578 0.05766207
vt 0.161201864 0.290766239
vt 0.0179678425 0.9322822
vt 0.1027604 0.941763639
vt 0.118253909 0.9847394
vt 0.0210896954 0.9897238
vt 0.9057217 0.250126123
vt 0.812134564 0.403728962
vt 0.982486248 0.55306673
vt 0.989591 0.235755265
vt 0.909331 0.7210294
vt 0.0408421569 0.5430646
vt 0.0628253147 0.253462374
vt 0.011271188 0.2733016
vt 0.5951085 0.6895008
vt 0.657954454 0.415649056
vt 0.491987258 0.318349957
vt 0.446749419 0.335356832
vt 0.452879637 0.0594522953
vt 0.309347868 0.06322068
vt 0.50126487 0.0606300831
vt 0.6612959 0.0494206548
vt 0.712714 0.967950344
vt 0.535438836 0.986327052
vt 0.52886796 0.946272254
vt 0.291576475 0.92766577
vt 0.3225559 0.99343884
vt 0.5894247 0.7637305
vt 0.7416543 0.7668489
vt 0.6624373 0.9137855
vt 0.577564538 0.918624
vt 0.3696749 0.917038441
vt 0.249819651 0.910982
vt 0.260475576 0.7471549
vt 0.4259516 0.754030347
vt 0.4243302 0.9160072
vt 0.9059819 0.7813801
vt 0.896876454 0.9454623
vt 0.7445162 0.9191731
vt 0.762045145 0.689600945
vt 0.759783864 0.423545182
vt 0.8479141 0.463940024
vt 0.4977723 0.4294858
vt 0.43833068 0.68819356
vt 0.434729725 0.451269865
vt 0.2643949 0.686898
vt 0.162656054 0.435513437
vt 0.436383039 0.4536153
vt 0.6744678 0.262051463
vt 0.717639 0.0163198113
vt 0.769713163 0.0180307031
vt 0.728376567 0.285902143
vt 0.2799526 0.302302957
vt 0.440470666 0.332010269
vt 0.80962193 0.03482312
vt 0.782748044 0.2686516
vt 0.8986057 0.5189861
vt 0.948195755 0.2725438
vt 0.990572 0.299268
vt 0.161201864 0.290766239
vt 0.222849578 0.05766207
vt 0.29548645 0.05127555
vt 0.0179678425 0.9322822
vt 0.0210896954 0.9897238
vt 0.118253909 0.9847394
vt 0.1027604 0.941763639
vt 0.812134564 0.403728962
vt 0.9057217 0.250126123
vt 0.982486248 0.55306673
vt 0.989591 0.235755265
vt 0.909331 0.7210294
vt 0.0408421569 0.5430646
vt 0.0628253147 0.253462374
vt 0.011271188 0.2733016
vt 0.657954454 0.415649056
vt 0.5951085 0.6895008
vt 0.491987258 0.318349957
vt 0.446749419 0.335356832
vt 0.309347868 0.06322068
vt 0.452879637 0.0594522953
vt 0.50126487 0.0606300831
vt 0.6612959 0.0494206548
vt 0.712714 0.967950344
vt 0.52886796 0.946272254
vt 0.535438836 0.986327052
vt 0.291576475 0.92766577
vt 0.3225559 0.99343884
vn 0.801452 0.5925742 0.08081197
vn 0.7764701 0.6145877 -0.139197767
vn 0.422446847 0.444182843 0.7900888
vn -0.032872986 0.305875033 0.951504
vn -0.5207476 -0.477036029 -0.70799613
vn 0.06576908 0.121889167 -0.9903623
vn -0.978202462 -0.07015174 0.1954447
vn -0.906652 -0.3351769 0.2562004
vn 0.3034742 0.309237063 -0.9012635
vn -0.4389001 -0.0429263227 0.897509933
vn -0.906652 -0.3351769 0.2562004
vn -0.978202462 -0.07015174 0.1954447
vn -0.232134819 0.4652904 0.854176939
vn 0.6844649 0.177481025 0.70711267
vn 0.287380576 0.3438757 0.893958569
vn 0.753892064 0.239139572 -0.6119306
vn -0.4060773 -0.140830547 -0.9029219
vn -0.0605318137 0.29792887 -0.952666938
vn -0.967618 -0.244054824 -0.06444105
vn -0.4060773 -0.140830547 -0.9029219
vn -0.140557155 -0.9704187 -0.196293652
vn 0.9362066 -0.302418619 -0.1790537
vn 0.815140367 0.06640551 0.5754446
vn 0.415571749 -0.748219967 0.5171721
vn 0.310215116 -0.8210824 -0.4791558
vn -0.4478689 -0.163691327 -0.878987253
vn -0.9599112 -0.2782907 -0.0335373133
vn -0.595193863 0.03723144 0.8027192
vn -0.529320538 -0.3834118 0.756845534
vn -0.3885318 0.450473934 0.8038136
vn -0.718472064 -0.488236517 0.4954019
vn 0.579077542 -0.2297635 0.782226264
vn -0.6135742 -0.5626986 -0.553982854
vn -0.529320538 -0.3834118 0.756845534
vn -0.595193863 0.03723144 0.8027192
vn -0.529320538 -0.3834118 0.756845534
vn -0.6135742 -0.5626986 -0.553982854
vn 0.310215116 -0.8210824 -0.4791558
vn 0.415571749 -0.748219967 0.5171721
vn 0.211279541 -0.935807765 -0.282178581
vn -0.140557155 -0.9704187 -0.196293652
vn -0.8274178 -0.3197415 -0.461676478
vn 0.211279541 -0.935807765 -0.282178581
vn -0.967618 -0.244054824 -0.06444105
vn -0.8274178 -0.3197415 -0.461676478
vn 0.211279541 -0.935807765 -0.282178581
vn -0.718472064 -0.488236517 0.4954019
vn 0.73467356 0.6600535 0.156793371
vn 0.8917385 0.401522964 0.208762512
vn 0.766522765 -0.22323373 -0.6021707
vn -0.4478689 -0.163691327 -0.878987253
vn -0.0617880225 -0.8509248 -0.521640956
vn -0.6555711 -0.403851926 0.6380675
vn -0.0617880225 -0.8509248 -0.521640956
vn 0.409165323 -0.6313948 0.6587294
vn -0.0617880225 -0.8509248 -0.521640956
vn 0.409165323 -0.6313948 0.6587294
vn -0.6555711 -0.403851926 0.6380675
vn -0.9599112 -0.2782907 -0.0335373133
vn 0.9362066 -0.302418619 -0.1790537
vn -0.795269668 0.59877646 0.09493608
vn 0.0519798622 0.305822879 0.950668454
vn -0.405079722 0.4472242 0.797434
vn -0.7742463 0.6203244 -0.125460774
vn 0.5045651 -0.480983019 -0.7169863
vn 0.908600032 -0.341770172 0.240081519
vn 0.980986059 -0.07700381 0.178148225
vn -0.08192954 0.122847147 -0.989038
vn -0.317009062 0.311600983 -0.8957735
vn 0.980986059 -0.07700381 0.178148225
vn 0.908600032 -0.341770172 0.240081519
vn 0.454481483 -0.0462314077 0.889555633
vn 0.250630051 0.463878453 0.84970665
vn -0.268986166 0.345920116 0.898880243
vn -0.6705359 0.182371452 0.719112158
vn -0.7629061 0.2445936 -0.5984549
vn 0.0458264165 0.298066854 -0.9534443
vn 0.388942957 -0.143579364 -0.9100046
vn 0.9645537 -0.2509345 -0.08165786
vn 0.1301143 -0.9714042 -0.198605567
vn 0.388942957 -0.143579364 -0.9100046
vn -0.941353261 -0.295782268 -0.162378788
vn -0.324472874 -0.818839133 -0.47351858
vn -0.411599874 -0.7452956 0.524518847
vn -0.804301739 0.07212973 0.5898271
vn 0.957173049 -0.2850669 -0.05056344
vn 0.431018621 -0.166798413 -0.88679266
vn 0.539956033 -0.3871914 0.747348845
vn 0.6096051 0.03297334 0.7920192
vn 0.405904949 0.447752148 0.796717763
vn -0.5667029 -0.225712523 0.792402446
vn 0.7236882 -0.493334144 0.482593834
vn 0.6096051 0.03297334 0.7920192
vn 0.539956033 -0.3871914 0.747348845
vn 0.5996449 -0.566987336 -0.5647578
vn 0.539956033 -0.3871914 0.747348845
vn -0.411599874 -0.7452956 0.524518847
vn -0.324472874 -0.818839133 -0.47351858
vn 0.5996449 -0.566987336 -0.5647578
vn 0.1301143 -0.9714042 -0.198605567
vn -0.222867951 -0.9342733 -0.2783223
vn 0.8168578 -0.3256399 -0.4761323
vn -0.222867951 -0.9342733 -0.2783223
vn 0.9645537 -0.2509345 -0.08165786
vn 0.8168578 -0.3256399 -0.4761323
vn -0.222867951 -0.9342733 -0.2783223
vn 0.7236882 -0.493334144 0.482593834
vn -0.884992063 0.4078968 0.22452
vn -0.726779759 0.6655739 0.169713289
vn -0.778655767 -0.21777235 -0.5884474
vn 0.431018621 -0.166798413 -0.88679266
vn 0.663929164 -0.408516139 0.6263487
vn 0.0464970022 -0.851307631 -0.5226025
vn 0.0464970022 -0.851307631 -0.5226025
vn -0.401854336 -0.6285276 0.665932536
vn 0.0464970022 -0.851307631 -0.5226025
vn 0.663929164 -0.408516139 0.6263487
vn -0.401854336 -0.6285276 0.665932536
vn 0.957173049 -0.2850669 -0.05056344
vn -0.941353261 -0.295782268 -0.162378788
usemtl 0003012003_part_0_material_0
f 1/1/1 2/2/2 3/3/3
f 3/3/3 4/4/4 1/1/1
f 5/5/5 6/6/6 7/7/7
f 7/7/7 8/8/8 5/5/5
f 5/5/5 9/9/9 6/6/6
f 4/4/4 10/10/10 11/11/11
f 11/11/11 12/12/12 4/4/4
f 10/10/10 4/4/4 3/3/3
f 13/13/13 14/14/14 15/15/15
f 16/16/16 17/17/17 18/18/18
f 19/19/19 18/18/18 20/20/20
f 20/20/20 21/21/21 19/19/19
f 22/22/22 23/23/23 24/24/24
f 24/24/24 25/25/25 22/22/22
f 20/20/20 26/26/26 27/27/27
f 27/27/27 21/21/21 20/20/20
f 24/24/24 23/23/23 28/28/28
f 28/28/28 29/29/29 24/24/24
f 30/30/30 31/31/31 32/32/32
f 32/32/32 14/14/14 30/30/30
f 27/27/27 33/33/33 34/34/34
f 34/34/34 35/35/35 27/27/27
f 36/36/36 37/37/37 38/38/38
f 38/38/38 39/39/39 36/36/36
f 32/32/32 40/40/40 41/41/41
f 41/41/41 14/14/14 32/32/32
f 30/30/30 42/42/42 31/31/31
f 32/32/32 31/31/31 43/43/43
f 14/14/14 13/13/13 30/30/30
f 13/13/13 44/44/44 42/42/42
f 42/42/42 30/30/30 13/13/13
f 45/45/45 19/19/19 21/21/21
f 46/46/46 47/47/47 45/45/45
f 45/45/45 21/21/21 46/46/46
f 16/16/16 18/18/18 48/48/48
f 48/48/48 49/49/49 16/16/16
f 49/49/49 22/22/22 50/50/50
f 50/50/50 16/16/16 49/49/49
f 17/17/17 16/16/16 50/50/50
f 50/50/50 51/51/51 17/17/17
f 23/23/23 49/49/49 15/15/15
f 15/15/15 28/28/28 23/23/23
f 26/26/26 52/52/52 53/53/53
f 53/53/53 27/27/27 26/26/26
f 27/27/27 35/35/35 21/21/21
f 41/41/41 28/28/28 15/15/15
f 50/50/50 54/54/54 51/51/51
f 23/23/23 22/22/22 49/49/49
f 48/48/48 15/15/15 49/49/49
f 55/55/55 54/54/54 50/50/50
f 50/50/50 22/22/22 55/55/55
f 56/56/56 57/57/57 58/58/58
f 59/59/59 58/58/58 57/57/57
f 57/57/57 60/60/60 59/59/59
f 38/38/38 37/37/37 59/59/59
f 59/59/59 60/60/60 38/38/38
f 15/15/15 14/14/14 41/41/41
f 2/2/2 1/1/1 6/6/6
f 6/6/6 9/9/9 2/2/2
f 13/13/13 15/15/15 48/48/48
f 13/13/13 4/4/4 12/12/12
f 12/12/12 44/44/44 13/13/13
f 1/1/1 4/4/4 13/13/13
f 13/13/13 48/48/48 1/1/1
f 18/18/18 6/6/6 1/1/1
f 1/1/1 48/48/48 18/18/18
f 19/19/19 7/7/7 6/6/6
f 6/6/6 18/18/18 19/19/19
f 61/61/61 62/62/62 63/63/63
f 63/63/63 64/64/64 61/61/61
f 65/65/65 66/66/66 67/67/67
f 67/67/67 68/68/68 65/65/65
f 65/65/65 68/68/68 69/69/69
f 62/62/62 70/70/70 71/71/71
f 71/71/71 72/72/72 62/62/62
f 72/72/72 63/63/63 62/62/62
f 73/73/73 74/74/74 75/75/75
f 76/76/76 77/77/77 78/78/78
f 79/79/79 80/80/80 81/81/81
f 81/81/81 77/77/77 79/79/79
f 82/82/82 83/83/83 84/84/84
f 84/84/84 85/85/85 82/82/82
f 81/81/81 80/80/80 86/86/86
f 86/86/86 87/87/87 81/81/81
f 84/84/84 88/88/88 89/89/89
f 89/89/89 85/85/85 84/84/84
f 90/90/90 75/75/75 91/91/91
f 91/91/91 92/92/92 90/90/90
f 86/86/86 93/93/93 94/94/94
f 94/94/94 95/95/95 86/86/86
f 96/96/96 97/97/97 98/98/98
f 98/98/98 99/99/99 96/96/96
f 91/91/91 75/75/75 100/100/100
f 100/100/100 101/101/101 91/91/91
f 90/90/90 92/92/92 102/102/102
f 91/91/91 103/103/103 92/92/92
f 75/75/75 90/90/90 73/73/73
f 73/73/73 90/90/90 102/102/102
f 102/102/102 104/104/104 73/73/73
f 105/105/105 80/80/80 79/79/79
f 106/106/106 80/80/80 105/105/105
f 105/105/105 107/107/107 106/106/106
f 76/76/76 108/108/108 109/109/109
f 109/109/109 77/77/77 76/76/76
f 108/108/108 76/76/76 110/110/110
f 110/110/110 82/82/82 108/108/108
f 78/78/78 111/111/111 110/110/110
f 110/110/110 76/76/76 78/78/78
f 85/85/85 89/89/89 74/74/74
f 74/74/74 108/108/108 85/85/85
f 87/87/87 86/86/86 112/112/112
f 112/112/112 113/113/113 87/87/87
f 86/86/86 80/80/80 93/93/93
f 100/100/100 74/74/74 89/89/89
f 110/110/110 111/111/111 114/114/114
f 85/85/85 108/108/108 82/82/82
f 109/109/109 108/108/108 74/74/74
f 115/115/115 82/82/82 110/110/110
f 110/110/110 114/114/114 115/115/115
f 116/116/116 117/117/117 118/118/118
f 119/119/119 120/120/120 118/118/118
f 118/118/118 117/117/117 119/119/119
f 98/98/98 120/120/120 119/119/119
f 119/119/119 99/99/99 98/98/98
f 74/74/74 100/100/100 75/75/75
f 64/64/64 69/69/69 68/68/68
f 68/68/68 61/61/61 64/64/64
f 73/73/73 109/109/109 74/74/74
f 73/73/73 104/104/104 70/70/70
f 70/70/70 62/62/62 73/73/73
f 61/61/61 109/109/109 73/73/73
f 73/73/73 62/62/62 61/61/61
f 77/77/77 109/109/109 61/61/61
f 61/61/61 68/68/68 77/77/77
f 79/79/79 77/77/77 68/68/68
f 68/68/68 67/67/67 79/79/79
