mtllib 0003060004.mtl
o 0003060004_part_0
v 0.127266586 0.100236923 -0.04079201
v 0.125407755 0.0401811078 -0.131910622
v 0.0957850143 0.107992031 -0.08405997
v 0.167259574 0.0265799612 -0.0226616189
v 0.0491910279 0.09497871 -0.0420241132
v 0.0340395 0.0400492437 -0.108718961
v 0.0499994755 0.0304369275 0.0129229054
v 0.06252973 0.1087899 -0.08531609
v 0.06252973 0.1087899 -0.08531609
v 0.0957850143 0.107992031 -0.08405997
v 0.125407755 0.0401811078 -0.131910622
v 0.0340395 0.0400492437 -0.108718961
v 0.0595118664 0.09855147 0.0126200281
v 0.1738767 -0.0173246413 -0.0252536163
v 0.178251937 0.00245190784 -0.0003874451
v 0.05682209 0.003991157 0.0152469017
v 0.0503473058 -0.0147697739 0.00346025825
v 0.167259574 0.0265799612 -0.0226616189
v 0.178251937 0.00245190784 -0.0003874451
v 0.1738767 -0.0173246413 -0.0252536163
v 0.195084 0.0312698856 0.05310394
v 0.05852339 0.0371766165 0.07411672
v 0.09426981 0.08611465 0.102682978
v 0.0770766959 0.1491526 0.0351141654
v 0.132123023 0.151091874 0.0302056577
v 0.155006647 0.08576585 0.09036496
v 0.040767245 -0.0165852755 -0.105030835
v 0.0503473058 -0.0147697739 0.00346025825
v 0.0499994755 0.0304369275 0.0129229054
v 0.0340395 0.0400492437 -0.108718961
v 0.1269787 -0.0180165768 -0.130552232
v 0.040767245 -0.0165852755 -0.105030835
v 0.1269787 -0.0180165768 -0.130552232
v 0.125407755 0.0401811078 -0.131910622
v 0.100468442 0.101596832 0.012143014
v 0.13300474 0.09396429 0.00535191968
v 0.127266586 0.100236923 -0.04079201
v 0.195084 0.0312698856 0.05310394
v 0.132123023 0.151091874 0.0302056577
v 0.05682209 0.003991157 0.0152469017
v 0.05852339 0.0371766165 0.07411672
v 0.189798146 -0.013087187 0.237472862
v 0.115139276 -0.01277528 0.265484154
v 0.061850328 -0.0128501058 0.174121469
v 0.233822644 -0.0149637312 0.178112835
v 0.230848283 0.0238881838 0.181889772
v 0.0640648752 0.0267700367 0.168925211
v 0.1096332 0.03484762 0.263387084
v 0.101056464 0.097739026 0.204038441
v 0.2070189 0.08632926 0.177609339
v 0.230848283 0.0238881838 0.181889772
v 0.061850328 -0.0128501058 0.174121469
v 0.115139276 -0.01277528 0.265484154
v 0.0640648752 0.0267700367 0.168925211
v 0.1969464 0.03331428 0.2352851
v 0.040767245 -0.0165852755 -0.105030835
v 0.1269787 -0.0180165768 -0.130552232
v 0.1096332 0.03484762 0.263387084
v 0.1096332 0.03484762 0.263387084
v 0.115139276 -0.01277528 0.265484154
v 0.189798146 -0.013087187 0.237472862
v 0.1969464 0.03331428 0.2352851
v 0.233822644 -0.0149637312 0.178112835
v 0.0770766959 0.1491526 0.0351141654
v 0.13300474 0.09396429 0.00535191968
v 0.0595118664 0.09855147 0.0126200281
v 0.0491910279 0.09497871 -0.0420241132
v -0.1442672 0.102048472 -0.0363255963
v -0.113804646 0.108934745 -0.08119316
v -0.141515642 0.0422192365 -0.131871372
v -0.184541732 0.02743733 -0.0232336
v -0.06646945 0.09487989 -0.0398303643
v -0.06763091 0.0302349329 0.0135780405
v -0.050389275 0.041320242 -0.107763246
v -0.08048769 0.108931556 -0.0833173841
v -0.08048769 0.108931556 -0.0833173841
v -0.141515642 0.0422192365 -0.131871372
v -0.113804646 0.108934745 -0.08119316
v -0.050389275 0.041320242 -0.107763246
v -0.07515553 0.09875847 0.014526831
v -0.1913525 -0.0163958743 -0.0264558867
v -0.0746094137 0.003797073 0.0154932681
v -0.195880547 0.003083229 -0.001383137
v -0.0681096 -0.0148446336 0.00353252143
v -0.184541732 0.02743733 -0.0232336
v -0.1913525 -0.0163958743 -0.0264558867
v -0.195880547 0.003083229 -0.001383137
v -0.213109732 0.0313008539 0.0523015335
v -0.07674144 0.0362350568 0.07476432
v -0.094625026 0.148457468 0.0370838977
v -0.112529829 0.0849870741 0.103594892
v -0.149560854 0.151392967 0.0315170139
v -0.173139513 0.08510862 0.09066163
v -0.0574382879 -0.0153214335 -0.104870841
v -0.06763091 0.0302349329 0.0135780405
v -0.0681096 -0.0148446336 0.00353252143
v -0.050389275 0.041320242 -0.107763246
v -0.143392384 -0.0159822032 -0.131276473
v -0.0574382879 -0.0153214335 -0.104870841
v -0.141515642 0.0422192365 -0.131871372
v -0.143392384 -0.0159822032 -0.131276473
v -0.116024852 0.102795213 0.0151143987
v -0.1442672 0.102048472 -0.0363255963
v -0.148902968 0.0959443152 0.009191493
v -0.213109732 0.0313008539 0.0523015335
v -0.149560854 0.151392967 0.0315170139
v -0.0746094137 0.003797073 0.0154932681
v -0.07674144 0.0362350568 0.07476432
v -0.209917843 -0.0154377371 0.236129493
v -0.08133413 -0.0150490813 0.174079672
v -0.135546446 -0.0158686116 0.26489383
v -0.253346562 -0.01632806 0.176309362
v -0.2502157 0.0224565342 0.1806148
v -0.08329693 0.0246451721 0.169370636
v -0.120286256 0.0953487158 0.205017731
v -0.1297804 0.0317482352 0.263464242
v -0.226030976 0.0848237351 0.177377179
v -0.2502157 0.0224565342 0.1806148
v -0.08133413 -0.0150490813 0.174079672
v -0.08329693 0.0246451721 0.169370636
v -0.135546446 -0.0158686116 0.26489383
v -0.216810524 0.0310241152 0.234465912
v -0.0574382879 -0.0153214335 -0.104870841
v -0.143392384 -0.0159822032 -0.131276473
v -0.1297804 0.0317482352 0.263464242
v -0.1297804 0.0317482352 0.263464242
v -0.209917843 -0.0154377371 0.236129493
v -0.135546446 -0.0158686116 0.26489383
v -0.216810524 0.0310241152 0.234465912
v -0.253346562 -0.01632806 0.176309362
v -0.094625026 0.148457468 0.0370838977
v -0.148902968 0.0959443152 0.009191493
v -0.07515553 0.09875847 0.014526831
v -0.06646945 0.09487989 -0.0398303643
vt 0.377777785 0.806842446
vt 0.4814815 0.937465668
vt 0.335802466 0.9023073
vt 0.4814815 0.7332601
vt 0.108641975 0.8103827
vt 0.0246913582 0.9272111
vt 0.0246913582 0.706219852
vt 0.135802463 0.8857352
vt 0.286419749 0.9624
vt 0.224691361 0.9687176
vt 0.155555561 0.830647647
vt 0.328395069 0.8279619
vt 0.120987654 0.7107978
vt 0.9693667 0.472857356
vt 0.94721216 0.622059762
vt 0.796933949 0.5959434
vt 0.7897938 0.464120984
vt 0.7407407 0.14255631
vt 0.6962963 0.08887261
vt 0.7432099 0.04938048
vt 0.5802469 0.14255631
vt 0.08395062 0.560398
vt 0.209876537 0.511688948
vt 0.20246914 0.6587927
vt 0.3037037 0.6554355
vt 0.318518519 0.517121434
vt 0.96875 0.046875
vt 0.74609375 0.05078125
vt 0.7421875 0.14453125
vt 0.9765625 0.14453125
vt 0.150617287 0.726851
vt 0.3160494 0.728438
vt 0.96790123 0.0486785173
vt 0.970370352 0.14255631
vt 0.624691367 0.399041653
vt 0.5185185 0.3769456
vt 0.5308642 0.296832085
vt 0.456790119 0.5734603
vt 0.562962949 0.5731551
vt 0.69921875 0.08984375
vt 0.58203125 0.14453125
vt 0.8799526 0.8491972
vt 0.7923903 0.841354668
vt 0.750383556 0.712120235
vt 0.974497 0.7438229
vt 0.313580245 0.14255631
vt 0.078125 0.34375
vt 0.192592591 0.192791343
vt 0.190123454 0.3290301
vt 0.387654334 0.347463846
vt 0.48046875 0.3125
vt 0.3203125 0.05078125
vt 0.20703125 0.0546875
vt 0.31640625 0.14453125
vt 0.3654321 0.216199756
vt 0.817128241 0.3189671
vt 0.93912524 0.317282319
vt 0.203125 0.140625
vt 0.0246913582 0.14255631
vt 0.0246913582 0.07388759
vt 0.204938278 0.05276811
vt 0.204938278 0.14255631
vt 0.320987642 0.05176097
vt 0.7382716 0.5604285
vt 0.377777785 0.70661664
vt 0.750617266 0.379417658
vt 0.7259259 0.30177623
vt 0.377777785 0.806842446
vt 0.335802466 0.9023073
vt 0.4814815 0.937465668
vt 0.4814815 0.7332601
vt 0.108641975 0.8103827
vt 0.0246913582 0.706219852
vt 0.0246913582 0.9272111
vt 0.135802463 0.8857352
vt 0.286419749 0.9624
vt 0.155555561 0.830647647
vt 0.224691361 0.9687176
vt 0.328395069 0.8279619
vt 0.120987654 0.7107978
vt 0.9693667 0.472857356
vt 0.796933949 0.5959434
vt 0.94721216 0.622059762
vt 0.7897938 0.464120984
vt 0.7407407 0.14255631
vt 0.7432099 0.04938048
vt 0.6962963 0.08887261
vt 0.5802469 0.14255631
vt 0.08395062 0.560398
vt 0.20246914 0.6587927
vt 0.209876537 0.511688948
vt 0.3037037 0.6554355
vt 0.318518519 0.517121434
vt 0.96875 0.046875
vt 0.7421875 0.14453125
vt 0.74609375 0.05078125
vt 0.9765625 0.14453125
vt 0.150617287 0.726851
vt 0.3160494 0.728438
vt 0.970370352 0.14255631
vt 0.96790123 0.0486785173
vt 0.624691367 0.399041653
vt 0.5308642 0.296832085
vt 0.5185185 0.3769456
vt 0.456790119 0.5734603
vt 0.562962949 0.5731551
vt 0.69921875 0.08984375
vt 0.58203125 0.14453125
vt 0.8799526 0.8491972
vt 0.750383556 0.712120235
vt 0.7923903 0.841354668
vt 0.974497 0.7438229
vt 0.313580245 0.14255631
vt 0.078125 0.34375
vt 0.190123454 0.3290301
vt 0.192592591 0.192791343
vt 0.387654334 0.347463846
vt 0.48046875 0.3125
vt 0.3203125 0.05078125
vt 0.31640625 0.14453125
vt 0.20703125 0.0546875
vt 0.3654321 0.216199756
vt 0.817128241 0.3189671
vt 0.93912524 0.317282319
vt 0.203125 0.140625
vt 0.0246913582 0.14255631
vt 0.204938278 0.05276811
vt 0.0246913582 0.07388759
vt 0.204938278 0.14255631
vt 0.320987642 0.05176097
vt 0.7382716 0.5604285
vt 0.377777785 0.70661664
vt 0.750617266 0.379417658
vt 0.7259259 0.30177623
vn 0.7863231 0.5865256 -0.194123119
vn 0.437086284 0.2792327 -0.8549764
vn 0.382165343 0.63840574 -0.66812253
vn 0.903407633 0.306833118 -0.299513
vn -0.9343527 0.352350026 0.05323969
vn -0.808515549 0.137574956 -0.5721676
vn -0.9856081 -0.0180598628 0.16807881
vn -0.526142955 0.5458995 -0.6520485
vn -0.526142955 0.5458995 -0.6520485
vn 0.382165343 0.63840574 -0.66812253
vn 0.437086284 0.2792327 -0.8549764
vn -0.808515549 0.137574956 -0.5721676
vn -0.8127114 0.577428639 -0.07795063
vn 0.7331408 -0.6780498 0.05246958
vn 0.8254965 -0.55490917 -0.103108518
vn -0.5927593 -0.60736835 0.5289046
vn -0.5542395 -0.6844838 0.473603725
vn 0.903407633 0.306833118 -0.299513
vn 0.8254965 -0.55490917 -0.103108518
vn 0.7331408 -0.6780498 0.05246958
vn 0.9220341 0.263368756 -0.2837077
vn -0.975748956 0.168400168 0.139840364
vn -0.5102599 0.8064395 0.298814476
vn -0.500329137 0.8600374 -0.100032263
vn 0.382156044 0.8965209 -0.224069163
vn 0.502039552 0.858691752 0.102979295
vn -0.6456346 -0.6346894 -0.424647361
vn -0.5542395 -0.6844838 0.473603725
vn -0.9856081 -0.0180598628 0.16807881
vn -0.808515549 0.137574956 -0.5721676
vn 0.353676438 -0.5987135 -0.718648136
vn -0.6456346 -0.6346894 -0.424647361
vn 0.353676438 -0.5987135 -0.718648136
vn 0.437086284 0.2792327 -0.8549764
vn -0.0243684445 0.703370333 -0.710405767
vn 0.63135314 0.6408659 -0.4366739
vn 0.7863231 0.5865256 -0.194123119
vn 0.9220341 0.263368756 -0.2837077
vn 0.382156044 0.8965209 -0.224069163
vn -0.5927593 -0.60736835 0.5289046
vn -0.975748956 0.168400168 0.139840364
vn 0.431556642 -0.6524548 0.622945964
vn -0.255550981 -0.576776147 0.775901437
vn -0.743742168 -0.637391567 0.201443732
vn 0.783242464 -0.6147453 0.09284113
vn 0.9702169 0.177334562 0.165020153
vn -0.9483411 0.208889157 0.238777131
vn -0.357417554 0.303818047 0.8831462
vn -0.399958819 0.830104351 0.388535351
vn 0.6200512 0.7668945 0.1655575
vn 0.9702169 0.177334562 0.165020153
vn -0.743742168 -0.637391567 0.201443732
vn -0.255550981 -0.576776147 0.775901437
vn -0.9483411 0.208889157 0.238777131
vn 0.574683666 0.287823856 0.7660914
vn -0.6456346 -0.6346894 -0.424647361
vn 0.353676438 -0.5987135 -0.718648136
vn -0.357417554 0.303818047 0.8831462
vn -0.357417554 0.303818047 0.8831462
vn -0.255550981 -0.576776147 0.775901437
vn 0.431556642 -0.6524548 0.622945964
vn 0.574683666 0.287823856 0.7660914
vn 0.783242464 -0.6147453 0.09284113
vn -0.500329137 0.8600374 -0.100032263
vn 0.63135314 0.6408659 -0.4366739
vn -0.8127114 0.577428639 -0.07795063
vn -0.9343527 0.352350026 0.05323969
vn -0.78439033 0.594457567 -0.177065015
vn -0.402387053 0.6538571 -0.640746057
vn -0.425596058 0.296066821 -0.855109632
vn -0.8982977 0.318399429 -0.302792
vn 0.934983 0.350823 0.0522490032
vn 0.9841934 -0.0328122526 0.174030825
vn 0.8140763 0.1494528 -0.561198354
vn 0.5097159 0.574506164 -0.6404157
vn 0.5097159 0.574506164 -0.6404157
vn -0.425596058 0.296066821 -0.855109632
vn -0.402387053 0.6538571 -0.640746057
vn 0.8140763 0.1494528 -0.561198354
vn 0.8209419 0.5685884 -0.05255109
vn -0.7370296 -0.6748816 0.0363615043
vn 0.5843053 -0.6171287 0.527009964
vn -0.827182531 -0.5492868 -0.118545607
vn 0.545962036 -0.693331063 0.4703376
vn -0.8982977 0.318399429 -0.302792
vn -0.7370296 -0.6748816 0.0363615043
vn -0.827182531 -0.5492868 -0.118545607
vn -0.9165331 0.273659378 -0.2916806
vn 0.9749181 0.1594141 0.155311778
vn 0.501683235 0.8605105 -0.0885188654
vn 0.511958659 0.799778461 0.313452929
vn -0.375456452 0.897764564 -0.2303285
vn -0.499167025 0.8593951 0.1107808
vn 0.6467168 -0.6325212 -0.426232666
vn 0.9841934 -0.0328122526 0.174030825
vn 0.545962036 -0.693331063 0.4703376
vn 0.8140763 0.1494528 -0.561198354
vn -0.349366039 -0.5876423 -0.7298081
vn 0.6467168 -0.6325212 -0.426232666
vn -0.425596058 0.296066821 -0.855109632
vn -0.349366039 -0.5876423 -0.7298081
vn 0.0313878022 0.69798696 -0.7154223
vn -0.78439033 0.594457567 -0.177065015
vn -0.609052837 0.640626132 -0.467603236
vn -0.9165331 0.273659378 -0.2916806
vn -0.375456452 0.897764564 -0.2303285
vn 0.5843053 -0.6171287 0.527009964
vn 0.9749181 0.1594141 0.155311778
vn -0.4411257 -0.6581394 0.6101317
vn 0.738450944 -0.643737435 0.200729534
vn 0.24476561 -0.587962866 0.7709666
vn -0.7872202 -0.6118414 0.0770357
vn -0.970939159 0.180202574 0.157493263
vn 0.9469057 0.2009317 0.250990242
vn 0.400157034 0.822995663 0.403178
vn 0.349957466 0.2906512 0.890534461
vn -0.6178422 0.7678964 0.1691333
vn -0.970939159 0.180202574 0.157493263
vn 0.738450944 -0.643737435 0.200729534
vn 0.9469057 0.2009317 0.250990242
vn 0.24476561 -0.587962866 0.7709666
vn -0.5809765 0.280955553 0.7638915
vn 0.6467168 -0.6325212 -0.426232666
vn -0.349366039 -0.5876423 -0.7298081
vn 0.349957466 0.2906512 0.890534461
vn 0.349957466 0.2906512 0.890534461
vn -0.4411257 -0.6581394 0.6101317
vn 0.24476561 -0.587962866 0.7709666
vn -0.5809765 0.280955553 0.7638915
vn -0.7872202 -0.6118414 0.0770357
vn 0.501683235 0.8605105 -0.0885188654
vn -0.609052837 0.640626132 -0.467603236
vn 0.8209419 0.5685884 -0.05255109
vn 0.934983 0.350823 0.0522490032
usemtl 0003060004_part_0_material_0
f 1/1/1 2/2/2 3/3/3
f 2/2/2 1/1/1 4/4/4
f 5/5/5 6/6/6 7/7/7
f 6/6/6 5/5/5 8/8/8
f 9/9/9 10/10/10 11/11/11
f 11/11/11 12/12/12 9/9/9
f 5/5/5 7/7/7 13/13/13
f 14/14/14 15/15/15 16/16/16
f 16/16/16 17/17/17 14/14/14
f 18/18/18 19/19/19 20/20/20
f 19/19/19 18/18/18 21/21/21
f 22/22/22 23/23/23 24/24/24
f 24/24/24 13/13/13 22/22/22
f 25/25/25 24/24/24 23/23/23
f 23/23/23 26/26/26 25/25/25
f 27/27/27 28/28/28 29/29/29
f 29/29/29 30/30/30 27/27/27
f 31/31/31 32/32/32 12/12/12
f 12/12/12 11/11/11 31/31/31
f 20/20/20 33/33/33 34/34/34
f 34/34/34 18/18/18 20/20/20
f 35/35/35 36/36/36 37/37/37
f 38/38/38 25/25/25 26/26/26
f 39/39/39 36/36/36 35/35/35
f 29/29/29 28/28/28 40/40/40
f 40/40/40 41/41/41 29/29/29
f 42/42/42 43/43/43 44/44/44
f 44/44/44 45/45/45 42/42/42
f 15/15/15 45/45/45 44/44/44
f 44/44/44 16/16/16 15/15/15
f 19/19/19 21/21/21 46/46/46
f 47/47/47 48/48/48 49/49/49
f 49/49/49 23/23/23 22/22/22
f 49/49/49 50/50/50 26/26/26
f 26/26/26 23/23/23 49/49/49
f 50/50/50 51/51/51 38/38/38
f 38/38/38 26/26/26 50/50/50
f 52/52/52 53/53/53 54/54/54
f 41/41/41 40/40/40 52/52/52
f 55/55/55 50/50/50 49/49/49
f 49/49/49 48/48/48 55/55/55
f 56/56/56 57/57/57 14/14/14
f 14/14/14 17/17/17 56/56/56
f 50/50/50 55/55/55 51/51/51
f 22/22/22 47/47/47 49/49/49
f 52/52/52 54/54/54 41/41/41
f 54/54/54 53/53/53 58/58/58
f 59/59/59 60/60/60 61/61/61
f 61/61/61 62/62/62 59/59/59
f 62/62/62 61/61/61 46/46/46
f 61/61/61 63/63/63 46/46/46
f 19/19/19 46/46/46 63/63/63
f 7/7/7 22/22/22 13/13/13
f 64/64/64 39/39/39 35/35/35
f 65/65/65 38/38/38 4/4/4
f 25/25/25 38/38/38 65/65/65
f 65/65/65 4/4/4 1/1/1
f 66/66/66 64/64/64 35/35/35
f 67/67/67 66/66/66 35/35/35
f 68/68/68 69/69/69 70/70/70
f 70/70/70 71/71/71 68/68/68
f 72/72/72 73/73/73 74/74/74
f 74/74/74 75/75/75 72/72/72
f 76/76/76 77/77/77 78/78/78
f 77/77/77 76/76/76 79/79/79
f 72/72/72 80/80/80 73/73/73
f 81/81/81 82/82/82 83/83/83
f 82/82/82 81/81/81 84/84/84
f 85/85/85 86/86/86 87/87/87
f 87/87/87 88/88/88 85/85/85
f 89/89/89 90/90/90 91/91/91
f 90/90/90 89/89/89 80/80/80
f 92/92/92 91/91/91 90/90/90
f 91/91/91 92/92/92 93/93/93
f 94/94/94 95/95/95 96/96/96
f 95/95/95 94/94/94 97/97/97
f 98/98/98 79/79/79 99/99/99
f 79/79/79 98/98/98 77/77/77
f 86/86/86 100/100/100 101/101/101
f 100/100/100 86/86/86 85/85/85
f 102/102/102 103/103/103 104/104/104
f 105/105/105 93/93/93 92/92/92
f 106/106/106 102/102/102 104/104/104
f 95/95/95 107/107/107 96/96/96
f 107/107/107 95/95/95 108/108/108
f 109/109/109 110/110/110 111/111/111
f 110/110/110 109/109/109 112/112/112
f 83/83/83 110/110/110 112/112/112
f 110/110/110 83/83/83 82/82/82
f 87/87/87 113/113/113 88/88/88
f 114/114/114 115/115/115 116/116/116
f 115/115/115 89/89/89 91/91/91
f 115/115/115 93/93/93 117/117/117
f 93/93/93 115/115/115 91/91/91
f 117/117/117 105/105/105 118/118/118
f 105/105/105 117/117/117 93/93/93
f 119/119/119 120/120/120 121/121/121
f 108/108/108 119/119/119 107/107/107
f 122/122/122 115/115/115 117/117/117
f 115/115/115 122/122/122 116/116/116
f 123/123/123 81/81/81 124/124/124
f 81/81/81 123/123/123 84/84/84
f 117/117/117 118/118/118 122/122/122
f 89/89/89 115/115/115 114/114/114
f 119/119/119 108/108/108 120/120/120
f 120/120/120 125/125/125 121/121/121
f 126/126/126 127/127/127 128/128/128
f 127/127/127 126/126/126 129/129/129
f 129/129/129 113/113/113 127/127/127
f 127/127/127 113/113/113 130/130/130
f 87/87/87 130/130/130 113/113/113
f 73/73/73 80/80/80 89/89/89
f 131/131/131 102/102/102 106/106/106
f 132/132/132 71/71/71 105/105/105
f 92/92/92 132/132/132 105/105/105
f 132/132/132 68/68/68 71/71/71
f 133/133/133 102/102/102 131/131/131
f 134/134/134 102/102/102 133/133/133
