mtllib 0043000000.mtl
o 0043000000_part_0
v -0.00766475964 1.13027954 -0.24205035
v 0.00168845372 1.32225168 -0.2945681
v 0.112431176 1.18415451 -0.242561519
v 0.188895151 1.26343977 -0.2314697
v 0.204426378 1.369215 -0.22699362
v 0.127526164 1.49397683 -0.220259622
v 0.0124379862 1.54288363 -0.216888711
v -0.0132968267 1.0146836 -0.110645622
v 0.1798472 1.07773232 -0.1150098
v 0.289964616 1.20617807 -0.105840705
v 0.29314816 1.3903935 -0.0923854262
v 0.202594027 1.56807292 -0.06940887
v 0.0165231433 1.62673163 -0.06024896
v -0.0143991988 0.992058635 0.04427138
v 0.157944173 1.05671763 0.0493164063
v 0.281564265 1.18434644 0.06197241
v 0.2760423 1.38446915 0.0771013647
v 0.178962886 1.55220079 0.09092562
v 0.0158653073 1.61323106 0.1278049
v -0.012630783 1.02835572 0.161188632
v 0.153957844 1.11405349 0.1669558
v 0.192697853 1.16793263 0.172964185
v 0.219433963 1.26303029 0.185678869
v 0.217281744 1.381651 0.160237581
v 0.176683962 1.46347654 0.216726
v 0.0105912415 1.50498283 0.242748022
v -0.009415481 1.09434938 0.227204546
v 0.006187654 1.41460049 0.281516641
v 0.0576221645 1.39928937 0.236928239
v -0.0008374922 1.27041113 0.292979956
v -0.0036160592 1.21338165 0.282118171
v 0.0227578785 1.18502939 0.279322
v 0.130803287 1.14392686 0.209489286
v 0.0187035333 1.12613881 0.240811542
v 0.118590251 1.31346512 0.2070192
v 0.128325909 1.26635635 0.246239543
v 0.122833796 1.22703934 0.253777
v 0.170045212 1.22474074 0.226632118
v 0.190243989 1.20991743 0.1962025
v 0.00264388346 1.34186554 0.2945681
v 0.0501416363 1.21317434 0.272545546
v 0.08396961 1.19683814 0.2629046
v -0.006261391 1.15908647 0.248792753
v 0.0567382462 1.15324247 0.23479557
v 0.153957844 1.11405349 0.1669558
v 0.199536636 1.17176354 0.135496348
v 0.140951365 1.21777916 0.180250943
v -0.009415481 1.09434938 0.227204546
v 0.153957844 1.11405349 0.1669558
v -0.003459629 1.21659172 0.19083
v -0.0008374922 1.27041113 0.292979956
v 0.140951365 1.21777916 0.180250943
v 0.128325909 1.26635635 0.246239543
v -0.003459629 1.21659172 0.19083
v 0.153957844 1.11405349 0.1669558
v 0.140951365 1.21777916 0.180250943
v -0.003459629 1.21659172 0.19083
v 0.140951365 1.21777916 0.180250943
v -0.0008374922 1.27041113 0.292979956
v 0.140951365 1.21777916 0.180250943
v 0.219433963 1.26303029 0.185678869
v 0.128325909 1.26635635 0.246239543
v 0.199536636 1.17176354 0.135496348
v 0.219433963 1.26303029 0.185678869
v 0.140951365 1.21777916 0.180250943
v 0.166529536 0.9456874 0.146951824
v 0.177758873 1.04142523 0.201637849
v 0.158549324 1.03424764 0.218977466
v 0.1350473 1.0313946 0.207426071
v 0.177807689 1.13596892 0.2252703
v 0.147369668 1.12457657 0.2520499
v 0.103942908 1.1165247 0.234731779
v 0.157071292 1.23546791 0.226075053
v 0.122833796 1.22703934 0.253777
v 0.07969546 1.21681464 0.246533588
v 0.136687666 1.041354 0.183987632
v 0.166529536 0.9456874 0.146951824
v 0.1350473 1.0313946 0.207426071
v 0.110992506 1.13441265 0.204168648
v 0.103942908 1.1165247 0.234731779
v 0.08859028 1.2187084 0.195366532
v 0.07969546 1.21681464 0.246533588
v 0.177758873 1.04142523 0.201637849
v 0.162526608 1.04461169 0.182989031
v 0.13373445 1.23576367 0.193049252
v 0.147964761 1.139326 0.200889274
v 0.157071292 1.23546791 0.226075053
v 0.177807689 1.13596892 0.2252703
v -0.121954545 1.19557416 -0.242561609
v -0.190348879 1.28191721 -0.231469825
v -0.195523888 1.38870132 -0.22699374
v -0.106859446 1.50539649 -0.220259681
v -0.199396923 1.09620976 -0.115009911
v -0.296506226 1.23475194 -0.1058409
v -0.281766683 1.41840422 -0.09238561
v -0.174368814 1.58643913 -0.069409
v -0.179640666 1.0731653 0.0493163
v -0.2902681 1.212207 0.06197223
v -0.265317857 1.410845 0.07710119
v -0.152392656 1.568345 0.0909255147
v -0.1700995 1.12984216 0.16695568
v -0.2034183 1.187232 0.172964066
v -0.207109645 1.40232813 0.160237446
v -0.2207831 1.28447831 0.18567872
v -0.158749729 1.47981942 0.2167259
v -0.0464916453 1.404362 0.23692821
v -0.03262127 1.18772757 0.279322
v -0.0343109928 1.12872183 0.240811542
v -0.144150585 1.15732312 0.209489182
v -0.115514122 1.32487106 0.207019135
v -0.175350517 1.241569 0.226632
v -0.128139287 1.23926711 0.2537769
v -0.129783273 1.27893186 0.246239454
v -0.196894631 1.22877944 0.196202368
v -0.09239511 1.20543087 0.262904555
v -0.0571392775 1.21840131 0.272545546
v -0.06953073 1.1593945 0.234795541
v -0.1470712 1.23181212 0.180250838
v -0.209852263 1.19170964 0.1354962
v -0.1700995 1.12984216 0.16695568
v -0.003459629 1.21659172 0.19083
v -0.1700995 1.12984216 0.16695568
v -0.009415481 1.09434938 0.227204546
v -0.129783273 1.27893186 0.246239454
v -0.1470712 1.23181212 0.180250838
v -0.0008374922 1.27041113 0.292979956
v -0.1470712 1.23181212 0.180250838
v -0.1700995 1.12984216 0.16695568
v -0.003459629 1.21659172 0.19083
v -0.0008374922 1.27041113 0.292979956
v -0.1470712 1.23181212 0.180250838
v -0.003459629 1.21659172 0.19083
v -0.129783273 1.27893186 0.246239454
v -0.2207831 1.28447831 0.18567872
v -0.1470712 1.23181212 0.180250838
v -0.1470712 1.23181212 0.180250838
v -0.2207831 1.28447831 0.18567872
v -0.209852263 1.19170964 0.1354962
v -0.1824274 1.05086064 0.218977362
v -0.200848237 1.05987155 0.20163773
v -0.198978946 0.9634956 0.1469517
v -0.159314036 1.04573643 0.207425967
v -0.162519619 1.13967478 0.2520498
v -0.191705987 1.15397215 0.225270212
v -0.120081253 1.1274395 0.234731719
v -0.128139287 1.23926711 0.2537769
v -0.161395267 1.25098407 0.226074964
v -0.08619922 1.22489738 0.246533528
v -0.159314036 1.04573643 0.207425967
v -0.198978946 0.9634956 0.1469517
v -0.159978434 1.055808 0.183987528
v -0.120081253 1.1274395 0.234731719
v -0.1253585 1.145928 0.204168588
v -0.08619922 1.22489738 0.246533528
v -0.09486778 1.22764683 0.195366487
v -0.185378283 1.06156218 0.182988912
v -0.200848237 1.05987155 0.20163773
v -0.138140172 1.24900985 0.193049148
v -0.161678046 1.15441227 0.200889155
v -0.161395267 1.25098407 0.226074964
v -0.191705987 1.15397215 0.225270212
v -0.008482176 1.11350191 -0.277313948
v 0.001889744 1.32638264 -0.335551679
v 0.124694012 1.17324471 -0.277880818
v 0.209486082 1.26116538 -0.265580952
v 0.226708889 1.37846112 -0.260617375
v 0.14143309 1.51681137 -0.2531499
v 0.0138100628 1.5710448 -0.249411881
v -0.0147276577 0.985315859 -0.13159734
v 0.199452639 1.05523157 -0.13643682
v 0.3215635 1.197667 -0.126269072
v 0.3250938 1.40194619 -0.111348286
v 0.224676952 1.59897757 -0.08586926
v 0.0183401555 1.66402507 -0.07571169
v -0.0159500949 0.9602268 0.0401924849
v 0.175164059 1.03192806 0.0457869954
v 0.3122482 1.1734575 0.0598214231
v 0.3061248 1.39537656 0.07659815
v 0.198472008 1.58137667 0.09192807
v 0.017610671 1.64905417 0.132824063
v -0.0139890723 1.00047708 0.169843778
v 0.17074357 1.09550881 0.176239088
v 0.213702917 1.155256 0.182901874
v 0.243351 1.26071119 0.197001353
v 0.2409644 1.39225161 0.168789133
v 0.19594489 1.48298919 0.231429979
v 0.0117621794 1.529016 0.2602862
v -0.0104235765 1.07365847 0.243049845
v 0.00687897438 1.42878973 0.3032773
v 0.0639154762 1.411811 0.253832549
v -0.0009113155 1.268896 0.315989166
v -0.00399250956 1.2056551 0.303944379
v 0.0252539441 1.17421484 0.300843656
v 0.14506714 1.12863576 0.2234051
v 0.02075802 1.10891032 0.2581388
v 0.1315239 1.31663918 0.220665991
v 0.142319918 1.26439953 0.264158
v 0.120887913 1.24013817 0.258494645
v 0.188583091 1.21825147 0.242415041
v 0.2109818 1.20181358 0.208671182
v 0.00294923456 1.34813285 0.317750275
v 0.05562021 1.20542526 0.29332912
v 0.09313256 1.18730974 0.2826382
v -0.00692595774 1.14544642 0.2669893
v 0.06293529 1.138966 0.2514676
v 0.17074357 1.09550881 0.176239088
v 0.221286565 1.15950418 0.141353235
v 0.156320468 1.21053159 0.190982252
v -0.0104235765 1.07365847 0.243049845
v 0.17074357 1.09550881 0.176239088
v -0.00381904235 1.20921481 0.202713549
v -0.0009113155 1.268896 0.315989166
v 0.156320468 1.21053159 0.190982252
v 0.142319918 1.26439953 0.264158
v -0.00381904235 1.20921481 0.202713549
v 0.17074357 1.09550881 0.176239088
v 0.156320468 1.21053159 0.190982252
v -0.00381904235 1.20921481 0.202713549
v 0.156320468 1.21053159 0.190982252
v -0.0009113155 1.268896 0.315989166
v 0.156320468 1.21053159 0.190982252
v 0.243351 1.26071119 0.197001353
v 0.142319918 1.26439953 0.264158
v 0.221286565 1.15950418 0.141353235
v 0.243351 1.26071119 0.197001353
v 0.156320468 1.21053159 0.190982252
v 0.169342771 0.9281429 0.1400346
v 0.18179515 1.034308 0.200676754
v 0.160493389 1.02634871 0.219904914
v 0.134431645 1.0231849 0.2070954
v 0.181849286 1.13914883 0.226883143
v 0.1480961 1.12651563 0.256579429
v 0.0999395251 1.11758685 0.23737511
v 0.15885438 1.24948478 0.227775529
v 0.120887913 1.24013817 0.258494645
v 0.07305116 1.22879994 0.2504623
v 0.13625066 1.0342288 0.181104153
v 0.169342771 0.9281429 0.1400346
v 0.134431645 1.0231849 0.2070954
v 0.107756905 1.13742316 0.203483179
v 0.0999395251 1.11758685 0.23737511
v 0.08291476 1.23089993 0.193722382
v 0.07305116 1.22879994 0.2504623
v 0.18179515 1.034308 0.200676754
v 0.164903849 1.03784144 0.179996789
v 0.1329758 1.24981284 0.191152722
v 0.148756012 1.1428715 0.19984664
v 0.15885438 1.24948478 0.227775529
v 0.181849286 1.13914883 0.226883143
v -0.135219827 1.1859082 -0.277880877
v -0.211063325 1.28165519 -0.265581071
v -0.216801941 1.40006971 -0.2606175
v -0.118480645 1.52947474 -0.253149956
v -0.221096858 1.07572138 -0.136436954
v -0.3287828 1.229353 -0.126269266
v -0.312437952 1.43300772 -0.1113485
v -0.1933428 1.61934412 -0.0858693942
v -0.199188814 1.0501672 0.0457868762
v -0.321865261 1.2043525 0.05982122
v -0.294197559 1.42462528 0.07659796
v -0.168973118 1.59927917 0.09192796
v -0.1886085 1.113017 0.176238969
v -0.2255562 1.17665744 0.182901725
v -0.229649574 1.41518068 0.168788984
v -0.244812325 1.28449535 0.1970012
v -0.176022545 1.501112 0.2314299
v -0.05153789 1.41743612 0.253832549
v -0.036156822 1.17720687 0.300843626
v -0.03803058 1.11177456 0.2581388
v -0.159833327 1.143491 0.223405
v -0.128077939 1.32928741 0.220665887
v -0.194431424 1.23691249 0.242414936
v -0.124929279 1.25211477 0.2584946
v -0.143901229 1.27834475 0.264157921
v -0.218322024 1.22272992 0.208671018
v -0.102440923 1.19683838 0.2826381
v -0.06334521 1.21122146 0.293329149
v -0.07708628 1.14578807 0.2514676
v -0.163072065 1.22609293 0.190982133
v -0.23269093 1.18162274 0.141353056
v -0.1886085 1.113017 0.176238969
v -0.00381904235 1.20921481 0.202713549
v -0.1886085 1.113017 0.176238969
v -0.0104235765 1.07365847 0.243049845
v -0.143901229 1.27834475 0.264157921
v -0.163072065 1.22609293 0.190982133
v -0.0009113155 1.268896 0.315989166
v -0.163072065 1.22609293 0.190982133
v -0.1886085 1.113017 0.176238969
v -0.00381904235 1.20921481 0.202713549
v -0.0009113155 1.268896 0.315989166
v -0.163072065 1.22609293 0.190982133
v -0.00381904235 1.20921481 0.202713549
v -0.143901229 1.27834475 0.264157921
v -0.244812325 1.28449535 0.1970012
v -0.163072065 1.22609293 0.190982133
v -0.163072065 1.22609293 0.190982133
v -0.244812325 1.28449535 0.1970012
v -0.23269093 1.18162274 0.141353056
v -0.185130164 1.0431881 0.219904855
v -0.2055573 1.05318046 0.20067668
v -0.203484431 0.946307659 0.140034527
v -0.159499437 1.03750563 0.20709534
v -0.163054138 1.14167535 0.256579369
v -0.195419326 1.15753 0.226883084
v -0.115993612 1.12810755 0.237375081
v -0.124929279 1.25211477 0.2584946
v -0.161807328 1.265108 0.227775484
v -0.0784213 1.23618 0.250462323
v -0.159499437 1.03750563 0.20709534
v -0.203484431 0.946307659 0.140034527
v -0.1602362 1.04867423 0.1811041
v -0.115993612 1.12810755 0.237375081
v -0.121845618 1.14860976 0.203483179
v -0.0784213 1.23618 0.250462323
v -0.088034 1.23922884 0.193722382
v -0.188402459 1.05505514 0.179996714
v -0.2055573 1.05318046 0.20067668
v -0.1360194 1.26291871 0.191152662
v -0.162120908 1.158018 0.199846566
v -0.161807328 1.265108 0.227775484
v -0.195419326 1.15753 0.226883084
vt 0.7279053 0.322139144
vt 0.7841915 0.6086505
vt 0.6901169 0.424284816
vt 0.6883069 0.5483025
vt 0.6790092 0.663250566
vt 0.6405226 0.8272334
vt 0.666071534 0.9110784
vt 0.4897267 0.19407922
vt 0.533545732 0.319371819
vt 0.5754062 0.4718036
vt 0.560015559 0.687259734
vt 0.4968057 0.8798261
vt 0.459857941 0.98236835
vt 0.258935869 0.195900023
vt 0.344642341 0.30333215
vt 0.3989889 0.458340883
vt 0.387120157 0.686815143
vt 0.321439236 0.871556163
vt 0.234885842 0.9597503
vt 0.133446515 0.2703812
vt 0.203072071 0.3727677
vt 0.1906428 0.462344825
vt 0.245231211 0.5523577
vt 0.278419226 0.6858768
vt 0.197101712 0.775022566
vt 0.08608366 0.816855133
vt 0.070445 0.345558882
vt 0.0413354561 0.716433
vt 0.112683676 0.699495137
vt 0.0161258653 0.552627563
vt 0.01691939 0.4867398
vt 0.045281224 0.467895448
vt 0.150531083 0.4494145
vt 0.06070579 0.42419523
vt 0.171651751 0.6040261
vt 0.135055184 0.55390203
vt 0.13079527 0.5091519
vt 0.1806964 0.5081136
vt 0.2119998 0.497561216
vt 0.023862619 0.6343222
vt 0.06404601 0.4896611
vt 0.0938449651 0.487079144
vt 0.0263643563 0.4421432
vt 0.0871603638 0.457333565
vt 0.200789437 0.04119885
vt 0.2516184 0.08225769
vt 0.207337573 0.121515155
vt 0.0292044114 0.02468723
vt 0.200789437 0.04119885
vt 0.0386601873 0.120403588
vt 0.0476094522 0.2080468
vt 0.207337573 0.121515155
vt 0.205115229 0.196465373
vt 0.0386601873 0.120403588
vt 0.200789437 0.04119885
vt 0.207337573 0.121515155
vt 0.0386601873 0.120403588
vt 0.207337573 0.121515155
vt 0.0476094522 0.2080468
vt 0.207337573 0.121515155
vt 0.329846442 0.145449042
vt 0.205115229 0.196465373
vt 0.2516184 0.08225769
vt 0.329846442 0.145449042
vt 0.207337573 0.121515155
vt 0.897250831 0.0327610373
vt 0.8398254 0.210751534
vt 0.8972687 0.220670223
vt 0.963711858 0.208249092
vt 0.8294273 0.37418294
vt 0.8967217 0.377334654
vt 0.977171361 0.366594434
vt 0.823701262 0.5350028
vt 0.8967497 0.5483928
vt 0.977295339 0.5403652
vt 0.8633331 0.724535167
vt 0.8628204 0.5921844
vt 0.8142258 0.7196216
vt 0.86347723 0.846352041
vt 0.806099057 0.837023735
vt 0.8632239 0.9695548
vt 0.8048024 0.9692213
vt 0.9085274 0.7201921
vt 0.8858641 0.722369969
vt 0.899976134 0.9689568
vt 0.885720968 0.8436516
vt 0.9200748 0.9686297
vt 0.9163885 0.839928448
vt 0.6901169 0.424284816
vt 0.6883069 0.5483025
vt 0.6790092 0.663250566
vt 0.6405226 0.8272334
vt 0.533545732 0.319371819
vt 0.5754062 0.4718036
vt 0.560015559 0.687259734
vt 0.4968057 0.8798261
vt 0.344642341 0.30333215
vt 0.3989889 0.458340883
vt 0.387120157 0.686815143
vt 0.321439236 0.871556163
vt 0.203072071 0.3727677
vt 0.1906428 0.462344825
vt 0.278419226 0.6858768
vt 0.245231211 0.5523577
vt 0.197101712 0.775022566
vt 0.112683676 0.699495137
vt 0.045281224 0.467895448
vt 0.06070579 0.42419523
vt 0.150531083 0.4494145
vt 0.171651751 0.6040261
vt 0.1806964 0.5081136
vt 0.13079527 0.5091519
vt 0.135055184 0.55390203
vt 0.2119998 0.497561216
vt 0.0938449651 0.487079144
vt 0.06404601 0.4896611
vt 0.0871603638 0.457333565
vt 0.207337573 0.121515155
vt 0.2516184 0.08225769
vt 0.200789437 0.04119885
vt 0.0386601873 0.120403588
vt 0.200789437 0.04119885
vt 0.0292044114 0.02468723
vt 0.205115229 0.196465373
vt 0.207337573 0.121515155
vt 0.0476094522 0.2080468
vt 0.207337573 0.121515155
vt 0.200789437 0.04119885
vt 0.0386601873 0.120403588
vt 0.0476094522 0.2080468
vt 0.207337573 0.121515155
vt 0.0386601873 0.120403588
vt 0.205115229 0.196465373
vt 0.329846442 0.145449042
vt 0.207337573 0.121515155
vt 0.207337573 0.121515155
vt 0.329846442 0.145449042
vt 0.2516184 0.08225769
vt 0.8972687 0.220670223
vt 0.8398254 0.210751534
vt 0.897250831 0.0327610373
vt 0.963711858 0.208249092
vt 0.8967217 0.377334654
vt 0.8294273 0.37418294
vt 0.977171361 0.366594434
vt 0.8967497 0.5483928
vt 0.823701262 0.5350028
vt 0.977295339 0.5403652
vt 0.8142258 0.7196216
vt 0.8628204 0.5921844
vt 0.8633331 0.724535167
vt 0.806099057 0.837023735
vt 0.86347723 0.846352041
vt 0.8048024 0.9692213
vt 0.8632239 0.9695548
vt 0.8858641 0.722369969
vt 0.9085274 0.7201921
vt 0.899976134 0.9689568
vt 0.885720968 0.8436516
vt 0.9200748 0.9686297
vt 0.9163885 0.839928448
vt 0.7279053 0.322139144
vt 0.7841915 0.6086505
vt 0.6901169 0.424284816
vt 0.6883069 0.5483025
vt 0.6790092 0.663250566
vt 0.6405226 0.8272334
vt 0.666071534 0.9110784
vt 0.4897267 0.19407922
vt 0.533545732 0.319371819
vt 0.5754062 0.4718036
vt 0.560015559 0.687259734
vt 0.4968057 0.8798261
vt 0.459857941 0.98236835
vt 0.258935869 0.195900023
vt 0.344642341 0.30333215
vt 0.3989889 0.458340883
vt 0.387120157 0.686815143
vt 0.321439236 0.871556163
vt 0.234885842 0.9597503
vt 0.133446515 0.2703812
vt 0.203072071 0.3727677
vt 0.1906428 0.462344825
vt 0.245231211 0.5523577
vt 0.278419226 0.6858768
vt 0.197101712 0.775022566
vt 0.08608366 0.816855133
vt 0.070445 0.345558882
vt 0.0413354561 0.716433
vt 0.112683676 0.699495137
vt 0.0161258653 0.552627563
vt 0.01691939 0.4867398
vt 0.045281224 0.467895448
vt 0.150531083 0.4494145
vt 0.06070579 0.42419523
vt 0.171651751 0.6040261
vt 0.135055184 0.55390203
vt 0.13079527 0.5091519
vt 0.1806964 0.5081136
vt 0.2119998 0.497561216
vt 0.023862619 0.6343222
vt 0.06404601 0.4896611
vt 0.0938449651 0.487079144
vt 0.0263643563 0.4421432
vt 0.0871603638 0.457333565
vt 0.200789437 0.04119885
vt 0.2516184 0.08225769
vt 0.207337573 0.121515155
vt 0.0292044114 0.02468723
vt 0.200789437 0.04119885
vt 0.0386601873 0.120403588
vt 0.0476094522 0.2080468
vt 0.207337573 0.121515155
vt 0.205115229 0.196465373
vt 0.0386601873 0.120403588
vt 0.200789437 0.04119885
vt 0.207337573 0.121515155
vt 0.0386601873 0.120403588
vt 0.207337573 0.121515155
vt 0.0476094522 0.2080468
vt 0.207337573 0.121515155
vt 0.329846442 0.145449042
vt 0.205115229 0.196465373
vt 0.2516184 0.08225769
vt 0.329846442 0.145449042
vt 0.207337573 0.121515155
vt 0.897250831 0.0327610373
vt 0.8398254 0.210751534
vt 0.8972687 0.220670223
vt 0.963711858 0.208249092
vt 0.8294273 0.37418294
vt 0.8967217 0.377334654
vt 0.977171361 0.366594434
vt 0.823701262 0.5350028
vt 0.8967497 0.5483928
vt 0.977295339 0.5403652
vt 0.8633331 0.724535167
vt 0.8628204 0.5921844
vt 0.8142258 0.7196216
vt 0.86347723 0.846352041
vt 0.806099057 0.837023735
vt 0.8632239 0.9695548
vt 0.8048024 0.9692213
vt 0.9085274 0.7201921
vt 0.8858641 0.722369969
vt 0.899976134 0.9689568
vt 0.885720968 0.8436516
vt 0.9200748 0.9686297
vt 0.9163885 0.839928448
vt 0.6901169 0.424284816
vt 0.6883069 0.5483025
vt 0.6790092 0.663250566
vt 0.6405226 0.8272334
vt 0.533545732 0.319371819
vt 0.5754062 0.4718036
vt 0.560015559 0.687259734
vt 0.4968057 0.8798261
vt 0.344642341 0.30333215
vt 0.3989889 0.458340883
vt 0.387120157 0.686815143
vt 0.321439236 0.871556163
vt 0.203072071 0.3727677
vt 0.1906428 0.462344825
vt 0.278419226 0.6858768
vt 0.245231211 0.5523577
vt 0.197101712 0.775022566
vt 0.112683676 0.699495137
vt 0.045281224 0.467895448
vt 0.06070579 0.42419523
vt 0.150531083 0.4494145
vt 0.171651751 0.6040261
vt 0.1806964 0.5081136
vt 0.13079527 0.5091519
vt 0.135055184 0.55390203
vt 0.2119998 0.497561216
vt 0.0938449651 0.487079144
vt 0.06404601 0.4896611
vt 0.0871603638 0.457333565
vt 0.207337573 0.121515155
vt 0.2516184 0.08225769
vt 0.200789437 0.04119885
vt 0.0386601873 0.120403588
vt 0.200789437 0.04119885
vt 0.0292044114 0.02468723
vt 0.205115229 0.196465373
vt 0.207337573 0.121515155
vt 0.0476094522 0.2080468
vt 0.207337573 0.121515155
vt 0.200789437 0.04119885
vt 0.0386601873 0.120403588
vt 0.0476094522 0.2080468
vt 0.207337573 0.121515155
vt 0.0386601873 0.120403588
vt 0.205115229 0.196465373
vt 0.329846442 0.145449042
vt 0.207337573 0.121515155
vt 0.207337573 0.121515155
vt 0.329846442 0.145449042
vt 0.2516184 0.08225769
vt 0.8972687 0.220670223
vt 0.8398254 0.210751534
vt 0.897250831 0.0327610373
vt 0.963711858 0.208249092
vt 0.8967217 0.377334654
vt 0.8294273 0.37418294
vt 0.977171361 0.366594434
vt 0.8967497 0.5483928
vt 0.823701262 0.5350028
vt 0.977295339 0.5403652
vt 0.8142258 0.7196216
vt 0.8628204 0.5921844
vt 0.8633331 0.724535167
vt 0.806099057 0.837023735
vt 0.86347723 0.846352041
vt 0.8048024 0.9692213
vt 0.8632239 0.9695548
vt 0.8858641 0.722369969
vt 0.9085274 0.7201921
vt 0.899976134 0.9689568
vt 0.885720968 0.8436516
vt 0.9200748 0.9686297
vt 0.9163885 0.839928448
vn -0.02737986 -0.5619713 -0.8267035
vn 0.00150742941 0.0309322383 -0.999520361
vn 0.342395335 -0.409014881 -0.845855951
vn 0.562985957 -0.180901885 -0.806425035
vn 0.621259332 0.1520374 -0.76871413
vn 0.385795981 0.526032 -0.757926047
vn 0.0338553153 0.6948676 -0.718340337
vn -0.0447220057 -0.9179111 -0.394257635
vn 0.53465724 -0.7533526 -0.382885754
vn 0.8934955 -0.303510368 -0.330979139
vn 0.941673338 0.237188458 -0.238731965
vn 0.637483358 0.7450517 -0.196247131
vn 0.04757608 0.976486 -0.210265458
vn -0.0484921634 -0.9952891 0.08395319
vn 0.5283591 -0.8339707 0.159152344
vn 0.8993909 -0.3642292 0.241729558
vn 0.9318903 0.2218108 0.287019938
vn 0.6168047 0.7190846 0.320108116
vn 0.04397262 0.9025302 0.428375661
vn -0.0417983159 -0.857897 0.5121188
vn 0.5221667 -0.6667518 0.5317743
vn 0.7119025 -0.43270424 0.5531382
vn 0.7050487 0.05945631 0.7066621
vn 0.6748659 0.0156468078 0.7377745
vn 0.571953952 0.251369774 0.7808213
vn 0.0295134615 0.6057619 0.7950984
vn -0.029705 -0.6096832 0.7920884
vn 0.00583190145 0.1197034 0.992792547
vn 0.540406048 -0.210953608 0.8145305
vn -0.00185922941 -0.0381542221 0.999270141
vn -0.009094572 -0.186660543 0.982382357
vn 0.186038136 -0.1048613 0.976930857
vn 0.403639823 -0.590540767 0.698810756
vn 0.143258527 -0.453863174 0.879480064
vn 0.4951439 0.336256 0.801102042
vn 0.484316528 0.332416981 0.8092814
vn 0.3285957 0.05498743 0.94286865
vn 0.5367972 0.146668345 0.8308653
vn 0.764354765 -0.29092744 0.5754329
vn 0.00970371347 0.1991724 0.9799164
vn 0.2332065 -0.1360468 0.962863445
vn 0.268429279 -0.08290196 0.9597255
vn -0.01537851 -0.315637052 0.9487554
vn 0.2933774 -0.204410613 0.9338876
vn 0.5923578 -0.028924061 0.8051557
vn 0.5923578 -0.028924061 0.8051557
vn 0.5923578 -0.028924061 0.8051557
vn 0.306806356 0.257684737 0.916225135
vn 0.306806356 0.257684737 0.916225135
vn 0.306806356 0.257684737 0.916225135
vn 0.194841877 -0.7717219 0.605377555
vn 0.194841877 -0.7717219 0.605377555
vn 0.194841877 -0.7717219 0.605377555
vn 0.07351569 -0.117717184 0.990322232
vn 0.07351569 -0.117717184 0.990322232
vn 0.07351569 -0.117717184 0.990322232
vn 0.0413292646 -0.88439846 0.464899123
vn 0.0413292646 -0.88439846 0.464899123
vn 0.0413292646 -0.88439846 0.464899123
vn 0.369904548 -0.713004231 0.5956472
vn 0.369904548 -0.713004231 0.5956472
vn 0.369904548 -0.713004231 0.5956472
vn 0.235071763 -0.507164359 0.829171658
vn 0.235071763 -0.507164359 0.829171658
vn 0.235071763 -0.507164359 0.829171658
vn 0.119253837 -0.8680058 -0.482021183
vn 0.9922822 -0.08877254 0.0865764
vn 0.21764639 -0.457387775 0.862221837
vn -0.7637927 -0.49039638 0.419680923
vn 0.9904095 0.123980418 0.0609748363
vn 0.223280638 -0.1576069 0.9619282
vn -0.842868149 -0.32537958 0.428603977
vn 0.986479938 0.146888062 0.07267175
vn 0.3285957 0.05498743 0.94286865
vn -0.78466624 -0.234656245 0.5737903
vn -0.6791425 -0.009385137 -0.7339465
vn 0.119253837 -0.8680058 -0.482021183
vn -0.7637927 -0.49039638 0.419680923
vn -0.641445935 -0.109934837 -0.7592506
vn -0.842868149 -0.32537958 0.428603977
vn -0.576926053 -0.235005483 -0.782258749
vn -0.78466624 -0.234656245 0.5737903
vn 0.9922822 -0.08877254 0.0865764
vn 0.4085792 0.260147721 -0.874863565
vn 0.458367556 -0.0144672785 -0.888645
vn 0.321169019 0.123026371 -0.9389968
vn 0.986479938 0.146888062 0.07267175
vn 0.9904095 0.123980418 0.0609748363
vn -0.3805344 -0.373792529 -0.8458562
vn -0.577905 -0.1253158 -0.8064253
vn -0.6035365 0.2117114 -0.768714547
vn -0.332831234 0.5610447 -0.7579263
vn -0.6053601 -0.697809041 -0.3828861
vn -0.918768466 -0.215213865 -0.330979675
vn -0.9141555 0.327607334 -0.2387324
vn -0.562035561 0.8034942 -0.1962475
vn -0.6069292 -0.778657556 0.159152
vn -0.930538833 -0.275071949 0.241728887
vn -0.905913949 0.311351568 0.2870193
vn -0.5439795 0.7756399 0.320107758
vn -0.584510565 -0.6128327 0.531773865
vn -0.7505954 -0.361448884 0.55313766
vn -0.6701491 0.08117823 0.737773836
vn -0.6959299 0.127714291 0.706661642
vn -0.5448092 0.3057803 0.7808209
vn -0.558354259 -0.157420188 0.814530134
vn -0.195351154 -0.08627939 0.9769308
vn -0.18670167 -0.437787145 0.8794799
vn -0.459136426 -0.548505 0.698810458
vn -0.460110873 0.382797569 0.801101744
vn -0.519997358 0.198156789 0.830864966
vn -0.321694434 0.0866705552 0.9428685
vn -0.4497082 0.377924174 0.8092811
vn -0.7890168 -0.215244621 0.5754323
vn -0.275217682 -0.0564146079 0.959725261
vn -0.24532868 -0.112730816 0.9628632
vn -0.3118599 -0.174922928 0.933887243
vn -0.5923647 0.028797524 0.8051551
vn -0.5923647 0.028797524 0.8051551
vn -0.5923647 0.028797524 0.8051551
vn -0.280303657 0.2862897 0.9162249
vn -0.280303657 0.2862897 0.9162249
vn -0.280303657 0.2862897 0.9162249
vn -0.268940419 -0.7491257 0.6053774
vn -0.268940419 -0.7491257 0.6053774
vn -0.268940419 -0.7491257 0.6053774
vn -0.08461173 -0.110013045 0.9903222
vn -0.08461173 -0.110013045 0.9903222
vn -0.08461173 -0.110013045 0.9903222
vn -0.1271084 -0.8761919 0.464899063
vn -0.1271084 -0.8761919 0.464899063
vn -0.1271084 -0.8761919 0.464899063
vn -0.437465847 -0.673667848 0.595647
vn -0.437465847 -0.673667848 0.595647
vn -0.437465847 -0.673667848 0.595647
vn -0.283261776 -0.481910527 0.8291713
vn -0.283261776 -0.481910527 0.8291713
vn -0.283261776 -0.481910527 0.8291713
vn -0.2610798 -0.434063554 0.862221658
vn -0.9962123 0.008110335 0.08657544
vn -0.203068867 -0.852301836 -0.482021332
vn 0.7125022 -0.562324 0.419681281
vn -0.237544969 -0.135154709 0.96192807
vn -0.973666131 0.219673291 0.06097465
vn 0.807244837 -0.4057758 0.4286045
vn -0.321694434 0.0866705552 0.9428685
vn -0.9675283 0.242090583 0.07267141
vn 0.758138061 -0.309824139 0.5737906
vn 0.7125022 -0.562324 0.419681281
vn -0.203068867 -0.852301836 -0.482021332
vn 0.675014 -0.07536202 -0.7339459
vn 0.807244837 -0.4057758 0.4286045
vn 0.6277214 -0.171770811 -0.75925
vn 0.758138061 -0.309824139 0.5737906
vn 0.5513487 -0.2899768 -0.7822583
vn -0.3813533 0.298634619 -0.874864
vn -0.9962123 0.008110335 0.08657544
vn -0.457602173 0.0301602986 -0.888645351
vn -0.30768764 0.153665289 -0.938997
vn -0.9675283 0.242090583 0.07267141
vn -0.973666131 0.219673291 0.06097465
vn -0.027379958 -0.5619712 -0.826703548
vn 0.00150732731 0.0309321731 -0.999520361
vn 0.342395216 -0.40901494 -0.845855951
vn 0.562985957 -0.1809019 -0.806425035
vn 0.6212592 0.152037367 -0.768714249
vn 0.385795951 0.526032 -0.757926
vn 0.03385518 0.6948675 -0.718340456
vn -0.04472198 -0.9179111 -0.394257724
vn 0.5346573 -0.7533526 -0.3828857
vn 0.89349556 -0.3035104 -0.330979079
vn 0.9416734 0.2371884 -0.238731712
vn 0.6374834 0.7450516 -0.196247056
vn 0.0475760661 0.976486 -0.210265473
vn -0.0484921522 -0.9952891 0.0839532837
vn 0.5283593 -0.8339706 0.159152523
vn 0.8993908 -0.364229262 0.241729632
vn 0.931890249 0.221810818 0.287019968
vn 0.616804838 0.7190845 0.320108175
vn 0.04397266 0.9025302 0.428375632
vn -0.0417983234 -0.857897 0.512118757
vn 0.5221668 -0.6667516 0.531774461
vn 0.71190244 -0.43270427 0.553138256
vn 0.7050488 0.05945628 0.706662
vn 0.67486614 0.0156470239 0.7377743
vn 0.571954 0.251369923 0.780821264
vn 0.0295135435 0.6057619 0.7950984
vn -0.0297049675 -0.6096831 0.7920885
vn 0.005831915 0.119703427 0.992792547
vn 0.5404061 -0.210953489 0.8145305
vn -0.00225897669 -0.04635987 0.9989222
vn -0.009095024 -0.1866604 0.9823824
vn 0.186038628 -0.104861118 0.9769308
vn 0.4036401 -0.59054023 0.698811054
vn 0.143258974 -0.4538627 0.879480243
vn 0.49514392 0.336255968 0.801102
vn 0.43322283 0.142339885 0.889976
vn 0.2825855 -0.138718337 0.9491589
vn 0.4807095 0.07008248 0.8740749
vn 0.7643547 -0.2909277 0.5754328
vn 0.009703724 0.199172452 0.9799164
vn 0.233206064 -0.136047527 0.962863445
vn 0.418485373 0.114059024 0.901033044
vn -0.0153784659 -0.315636456 0.948755562
vn 0.293377459 -0.204410285 0.933887661
vn 0.5923579 -0.0289238933 0.805155635
vn 0.5923579 -0.0289238933 0.805155635
vn 0.5923579 -0.0289238933 0.805155635
vn 0.306806237 0.257685 0.9162251
vn 0.306806237 0.257685 0.9162251
vn 0.306806237 0.257685 0.9162251
vn 0.194841921 -0.7717219 0.6053775
vn 0.194841921 -0.7717219 0.6053775
vn 0.194841921 -0.7717219 0.6053775
vn 0.07351579 -0.117717087 0.990322232
vn 0.07351579 -0.117717087 0.990322232
vn 0.07351579 -0.117717087 0.990322232
vn 0.0413296036 -0.884398341 0.4648994
vn 0.0413296036 -0.884398341 0.4648994
vn 0.0413296036 -0.884398341 0.4648994
vn 0.3699046 -0.713004231 0.595647156
vn 0.3699046 -0.713004231 0.595647156
vn 0.3699046 -0.713004231 0.595647156
vn 0.235071838 -0.507164359 0.8291716
vn 0.235071838 -0.507164359 0.8291716
vn 0.235071838 -0.507164359 0.8291716
vn 0.119253613 -0.8680055 -0.482021838
vn 0.9922822 -0.08877252 0.08657631
vn 0.217646569 -0.457387537 0.8622219
vn -0.7637924 -0.490396559 0.419681281
vn 0.9904095 0.123980306 0.0609751232
vn 0.223280534 -0.157607 0.9619282
vn -0.842868 -0.32537967 0.428604275
vn 0.986479938 0.146888137 0.072671555
vn 0.2825855 -0.138718337 0.9491589
vn -0.7846663 -0.2346561 0.5737903
vn -0.679142535 -0.00938527 -0.7339464
vn 0.119253613 -0.8680055 -0.482021838
vn -0.7637924 -0.490396559 0.419681281
vn -0.641446054 -0.109934866 -0.7592505
vn -0.842868 -0.32537967 0.428604275
vn -0.576926053 -0.23500526 -0.7822588
vn -0.7846663 -0.2346561 0.5737903
vn 0.9922822 -0.08877252 0.08657631
vn 0.408579 0.260147721 -0.8748636
vn 0.458367676 -0.0144672217 -0.888644934
vn 0.3211692 0.123026393 -0.938996732
vn 0.986479938 0.146888137 0.072671555
vn 0.9904095 0.123980306 0.0609751232
vn -0.3805344 -0.373792648 -0.84585613
vn -0.57790494 -0.125316054 -0.806425333
vn -0.603536248 0.211711511 -0.768714666
vn -0.332831264 0.561044753 -0.7579262
vn -0.605360031 -0.697809041 -0.382886142
vn -0.9187684 -0.21521394 -0.330979675
vn -0.9141555 0.3276073 -0.238732412
vn -0.5620355 0.8034942 -0.196247548
vn -0.6069291 -0.778657556 0.1591522
vn -0.930538833 -0.275072038 0.241728872
vn -0.905913949 0.311351568 0.2870194
vn -0.5439796 0.7756399 0.320107818
vn -0.584510565 -0.612832665 0.531774
vn -0.7505952 -0.361449122 0.5531377
vn -0.670148849 0.0811781362 0.7377741
vn -0.6959299 0.127714336 0.706661642
vn -0.544809163 0.305780262 0.780820966
vn -0.5583543 -0.157420188 0.814530134
vn -0.195351183 -0.08627965 0.9769308
vn -0.186702 -0.4377866 0.879480064
vn -0.459136456 -0.548504651 0.6988107
vn -0.460110873 0.382797629 0.801101744
vn -0.47162047 0.1164814 0.8740745
vn -0.294732779 -0.110590227 0.9491588
vn -0.417334348 0.183780923 0.8899756
vn -0.7890167 -0.2152448 0.5754323
vn -0.405415833 0.154200643 0.901032865
vn -0.245328814 -0.112730563 0.9628632
vn -0.3118597 -0.174922273 0.9338874
vn -0.59236455 0.02879788 0.8051552
vn -0.59236455 0.02879788 0.8051552
vn -0.59236455 0.02879788 0.8051552
vn -0.280303478 0.28628996 0.9162249
vn -0.280303478 0.28628996 0.9162249
vn -0.280303478 0.28628996 0.9162249
vn -0.268940449 -0.7491256 0.605377436
vn -0.268940449 -0.7491256 0.605377436
vn -0.268940449 -0.7491256 0.605377436
vn -0.08461185 -0.110012814 0.9903222
vn -0.08461185 -0.110012814 0.9903222
vn -0.08461185 -0.110012814 0.9903222
vn -0.127108559 -0.876191735 0.464899361
vn -0.127108559 -0.876191735 0.464899361
vn -0.127108559 -0.876191735 0.464899361
vn -0.4374659 -0.6736678 0.595647
vn -0.4374659 -0.6736678 0.595647
vn -0.4374659 -0.6736678 0.595647
vn -0.283261776 -0.481910467 0.8291713
vn -0.283261776 -0.481910467 0.8291713
vn -0.283261776 -0.481910467 0.8291713
vn -0.2610799 -0.434063315 0.8622217
vn -0.996212244 0.008110243 0.08657568
vn -0.203069016 -0.8523013 -0.4820223
vn 0.712501943 -0.5623241 0.41968146
vn -0.237545058 -0.1351548 0.961928
vn -0.973666131 0.219673246 0.06097471
vn 0.8072448 -0.405775934 0.4286044
vn -0.294732779 -0.110590227 0.9491588
vn -0.967528343 0.242090464 0.07267125
vn 0.7581379 -0.309824139 0.573790848
vn 0.712501943 -0.5623241 0.41968146
vn -0.203069016 -0.8523013 -0.4820223
vn 0.6750139 -0.0753619447 -0.7339461
vn 0.8072448 -0.405775934 0.4286044
vn 0.6277214 -0.171770811 -0.75925
vn 0.7581379 -0.309824139 0.573790848
vn 0.551348567 -0.289976865 -0.7822584
vn -0.381353527 0.298634559 -0.8748639
vn -0.996212244 0.008110243 0.08657568
vn -0.457602173 0.0301602911 -0.888645351
vn -0.30768767 0.1536653 -0.938997
vn -0.967528343 0.242090464 0.07267125
vn -0.973666131 0.219673246 0.06097471
usemtl 0043000000_part_0_material_0
f 1/1/1 2/2/2 3/3/3
f 3/3/3 2/2/2 4/4/4
f 4/4/4 2/2/2 5/5/5
f 5/5/5 2/2/2 6/6/6
f 6/6/6 2/2/2 7/7/7
f 8/8/8 1/1/1 9/9/9
f 9/9/9 1/1/1 3/3/3
f 9/9/9 3/3/3 10/10/10
f 10/10/10 3/3/3 4/4/4
f 10/10/10 4/4/4 11/11/11
f 11/11/11 4/4/4 5/5/5
f 11/11/11 5/5/5 12/12/12
f 12/12/12 5/5/5 6/6/6
f 12/12/12 6/6/6 13/13/13
f 13/13/13 6/6/6 7/7/7
f 14/14/14 9/9/9 15/15/15
f 14/14/14 8/8/8 9/9/9
f 15/15/15 9/9/9 16/16/16
f 16/16/16 9/9/9 10/10/10
f 16/16/16 10/10/10 17/17/17
f 17/17/17 10/10/10 11/11/11
f 17/17/17 11/11/11 18/18/18
f 18/18/18 11/11/11 12/12/12
f 18/18/18 12/12/12 19/19/19
f 19/19/19 12/12/12 13/13/13
f 20/20/20 15/15/15 21/21/21
f 20/20/20 14/14/14 15/15/15
f 21/21/21 16/16/16 22/22/22
f 21/21/21 15/15/15 16/16/16
f 23/23/23 17/17/17 24/24/24
f 23/23/23 16/16/16 17/17/17
f 24/24/24 17/17/17 25/25/25
f 25/25/25 17/17/17 18/18/18
f 25/25/25 18/18/18 26/26/26
f 26/26/26 18/18/18 19/19/19
f 21/21/21 27/27/27 20/20/20
f 26/26/26 28/28/28 25/25/25
f 25/25/25 28/28/28 29/29/29
f 30/30/30 31/31/31 32/32/32
f 33/33/33 34/34/34 27/27/27
f 33/33/33 27/27/27 21/21/21
f 25/25/25 29/29/29 24/24/24
f 24/24/24 35/35/35 23/23/23
f 36/36/36 37/37/37 38/38/38
f 23/23/23 39/39/39 16/16/16
f 28/28/28 40/40/40 29/29/29
f 29/29/29 40/40/40 35/35/35
f 29/29/29 35/35/35 24/24/24
f 40/40/40 36/36/36 35/35/35
f 36/36/36 30/30/30 37/37/37
f 40/40/40 30/30/30 36/36/36
f 35/35/35 36/36/36 23/23/23
f 30/30/30 41/41/41 42/42/42
f 30/30/30 32/32/32 41/41/41
f 30/30/30 42/42/42 37/37/37
f 36/36/36 38/38/38 23/23/23
f 34/34/34 43/43/43 27/27/27
f 44/44/44 34/34/34 33/33/33
f 22/22/22 33/33/33 21/21/21
f 39/39/39 22/22/22 16/16/16
f 45/45/45 46/46/46 47/47/47
f 48/48/48 49/49/49 50/50/50
f 51/51/51 52/52/52 53/53/53
f 54/54/54 55/55/55 56/56/56
f 57/57/57 58/58/58 59/59/59
f 60/60/60 61/61/61 62/62/62
f 63/63/63 64/64/64 65/65/65
f 66/66/66 67/67/67 68/68/68
f 66/66/66 68/68/68 69/69/69
f 67/67/67 70/70/70 71/71/71
f 71/71/71 68/68/68 67/67/67
f 68/68/68 71/71/71 72/72/72
f 72/72/72 69/69/69 68/68/68
f 70/70/70 73/73/73 74/74/74
f 74/74/74 71/71/71 70/70/70
f 71/71/71 74/74/74 75/75/75
f 75/75/75 72/72/72 71/71/71
f 76/76/76 77/77/77 78/78/78
f 79/79/79 76/76/76 80/80/80
f 78/78/78 80/80/80 76/76/76
f 81/81/81 79/79/79 82/82/82
f 80/80/80 82/82/82 79/79/79
f 83/83/83 77/77/77 84/84/84
f 81/81/81 85/85/85 79/79/79
f 85/85/85 86/86/86 79/79/79
f 85/85/85 87/87/87 86/86/86
f 87/87/87 88/88/88 86/86/86
f 79/79/79 86/86/86 76/76/76
f 86/86/86 84/84/84 76/76/76
f 86/86/86 88/88/88 84/84/84
f 88/88/88 83/83/83 84/84/84
f 76/76/76 84/84/84 77/77/77
f 89/89/89 2/2/2 1/1/1
f 90/90/90 2/2/2 89/89/89
f 91/91/91 2/2/2 90/90/90
f 92/92/92 2/2/2 91/91/91
f 7/7/7 2/2/2 92/92/92
f 93/93/93 1/1/1 8/8/8
f 89/89/89 1/1/1 93/93/93
f 94/94/94 89/89/89 93/93/93
f 90/90/90 89/89/89 94/94/94
f 95/95/95 90/90/90 94/94/94
f 91/91/91 90/90/90 95/95/95
f 96/96/96 91/91/91 95/95/95
f 92/92/92 91/91/91 96/96/96
f 13/13/13 92/92/92 96/96/96
f 7/7/7 92/92/92 13/13/13
f 97/97/97 93/93/93 14/14/14
f 93/93/93 8/8/8 14/14/14
f 98/98/98 93/93/93 97/97/97
f 94/94/94 93/93/93 98/98/98
f 99/99/99 94/94/94 98/98/98
f 95/95/95 94/94/94 99/99/99
f 100/100/100 95/95/95 99/99/99
f 96/96/96 95/95/95 100/100/100
f 19/19/19 96/96/96 100/100/100
f 13/13/13 96/96/96 19/19/19
f 101/101/101 97/97/97 20/20/20
f 97/97/97 14/14/14 20/20/20
f 102/102/102 98/98/98 101/101/101
f 98/98/98 97/97/97 101/101/101
f 103/103/103 99/99/99 104/104/104
f 99/99/99 98/98/98 104/104/104
f 105/105/105 99/99/99 103/103/103
f 100/100/100 99/99/99 105/105/105
f 26/26/26 100/100/100 105/105/105
f 19/19/19 100/100/100 26/26/26
f 20/20/20 27/27/27 101/101/101
f 105/105/105 28/28/28 26/26/26
f 106/106/106 28/28/28 105/105/105
f 107/107/107 31/31/31 30/30/30
f 27/27/27 108/108/108 109/109/109
f 101/101/101 27/27/27 109/109/109
f 103/103/103 106/106/106 105/105/105
f 104/104/104 110/110/110 103/103/103
f 111/111/111 112/112/112 113/113/113
f 98/98/98 114/114/114 104/104/104
f 106/106/106 40/40/40 28/28/28
f 110/110/110 40/40/40 106/106/106
f 103/103/103 110/110/110 106/106/106
f 110/110/110 113/113/113 40/40/40
f 112/112/112 30/30/30 113/113/113
f 113/113/113 30/30/30 40/40/40
f 104/104/104 113/113/113 110/110/110
f 115/115/115 116/116/116 30/30/30
f 116/116/116 107/107/107 30/30/30
f 112/112/112 115/115/115 30/30/30
f 104/104/104 111/111/111 113/113/113
f 27/27/27 43/43/43 108/108/108
f 109/109/109 108/108/108 117/117/117
f 101/101/101 109/109/109 102/102/102
f 98/98/98 102/102/102 114/114/114
f 118/118/118 119/119/119 120/120/120
f 121/121/121 122/122/122 123/123/123
f 124/124/124 125/125/125 126/126/126
f 127/127/127 128/128/128 129/129/129
f 130/130/130 131/131/131 132/132/132
f 133/133/133 134/134/134 135/135/135
f 136/136/136 137/137/137 138/138/138
f 139/139/139 140/140/140 141/141/141
f 142/142/142 139/139/139 141/141/141
f 143/143/143 144/144/144 140/140/140
f 140/140/140 139/139/139 143/143/143
f 145/145/145 143/143/143 139/139/139
f 139/139/139 142/142/142 145/145/145
f 146/146/146 147/147/147 144/144/144
f 144/144/144 143/143/143 146/146/146
f 148/148/148 146/146/146 143/143/143
f 143/143/143 145/145/145 148/148/148
f 149/149/149 150/150/150 151/151/151
f 152/152/152 151/151/151 153/153/153
f 151/151/151 152/152/152 149/149/149
f 154/154/154 153/153/153 155/155/155
f 153/153/153 154/154/154 152/152/152
f 156/156/156 150/150/150 157/157/157
f 153/153/153 158/158/158 155/155/155
f 153/153/153 159/159/159 158/158/158
f 159/159/159 160/160/160 158/158/158
f 159/159/159 161/161/161 160/160/160
f 151/151/151 159/159/159 153/153/153
f 151/151/151 156/156/156 159/159/159
f 156/156/156 161/161/161 159/159/159
f 156/156/156 157/157/157 161/161/161
f 150/150/150 156/156/156 151/151/151
usemtl 0043000000_part_0_material_1
f 162/162/162 163/163/163 164/164/164
f 164/164/164 163/163/163 165/165/165
f 165/165/165 163/163/163 166/166/166
f 166/166/166 163/163/163 167/167/167
f 167/167/167 163/163/163 168/168/168
f 169/169/169 162/162/162 170/170/170
f 170/170/170 162/162/162 164/164/164
f 170/170/170 164/164/164 171/171/171
f 171/171/171 164/164/164 165/165/165
f 171/171/171 165/165/165 172/172/172
f 172/172/172 165/165/165 166/166/166
f 172/172/172 166/166/166 173/173/173
f 173/173/173 166/166/166 167/167/167
f 173/173/173 167/167/167 174/174/174
f 174/174/174 167/167/167 168/168/168
f 175/175/175 170/170/170 176/176/176
f 175/175/175 169/169/169 170/170/170
f 176/176/176 170/170/170 177/177/177
f 177/177/177 170/170/170 171/171/171
f 177/177/177 171/171/171 178/178/178
f 178/178/178 171/171/171 172/172/172
f 178/178/178 172/172/172 179/179/179
f 179/179/179 172/172/172 173/173/173
f 179/179/179 173/173/173 180/180/180
f 180/180/180 173/173/173 174/174/174
f 181/181/181 176/176/176 182/182/182
f 181/181/181 175/175/175 176/176/176
f 182/182/182 177/177/177 183/183/183
f 182/182/182 176/176/176 177/177/177
f 184/184/184 178/178/178 185/185/185
f 184/184/184 177/177/177 178/178/178
f 185/185/185 178/178/178 186/186/186
f 186/186/186 178/178/178 179/179/179
f 186/186/186 179/179/179 187/187/187
f 187/187/187 179/179/179 180/180/180
f 182/182/182 188/188/188 181/181/181
f 187/187/187 189/189/189 186/186/186
f 186/186/186 189/189/189 190/190/190
f 191/191/191 192/192/192 193/193/193
f 194/194/194 195/195/195 188/188/188
f 194/194/194 188/188/188 182/182/182
f 186/186/186 190/190/190 185/185/185
f 185/185/185 196/196/196 184/184/184
f 197/197/197 198/198/198 199/199/199
f 184/184/184 200/200/200 177/177/177
f 189/189/189 201/201/201 190/190/190
f 190/190/190 201/201/201 196/196/196
f 190/190/190 196/196/196 185/185/185
f 201/201/201 197/197/197 196/196/196
f 197/197/197 191/191/191 198/198/198
f 201/201/201 191/191/191 197/197/197
f 196/196/196 197/197/197 184/184/184
f 191/191/191 202/202/202 203/203/203
f 191/191/191 193/193/193 202/202/202
f 191/191/191 203/203/203 198/198/198
f 197/197/197 199/199/199 184/184/184
f 195/195/195 204/204/204 188/188/188
f 205/205/205 195/195/195 194/194/194
f 183/183/183 194/194/194 182/182/182
f 200/200/200 183/183/183 177/177/177
f 206/206/206 207/207/207 208/208/208
f 209/209/209 210/210/210 211/211/211
f 212/212/212 213/213/213 214/214/214
f 215/215/215 216/216/216 217/217/217
f 218/218/218 219/219/219 220/220/220
f 221/221/221 222/222/222 223/223/223
f 224/224/224 225/225/225 226/226/226
f 227/227/227 228/228/228 229/229/229
f 227/227/227 229/229/229 230/230/230
f 228/228/228 231/231/231 232/232/232
f 232/232/232 229/229/229 228/228/228
f 229/229/229 232/232/232 233/233/233
f 233/233/233 230/230/230 229/229/229
f 231/231/231 234/234/234 235/235/235
f 235/235/235 232/232/232 231/231/231
f 232/232/232 235/235/235 236/236/236
f 236/236/236 233/233/233 232/232/232
f 237/237/237 238/238/238 239/239/239
f 240/240/240 237/237/237 241/241/241
f 239/239/239 241/241/241 237/237/237
f 242/242/242 240/240/240 243/243/243
f 241/241/241 243/243/243 240/240/240
f 244/244/244 238/238/238 245/245/245
f 242/242/242 246/246/246 240/240/240
f 246/246/246 247/247/247 240/240/240
f 246/246/246 248/248/248 247/247/247
f 248/248/248 249/249/249 247/247/247
f 240/240/240 247/247/247 237/237/237
f 247/247/247 245/245/245 237/237/237
f 247/247/247 249/249/249 245/245/245
f 249/249/249 244/244/244 245/245/245
f 237/237/237 245/245/245 238/238/238
f 250/250/250 163/163/163 162/162/162
f 251/251/251 163/163/163 250/250/250
f 252/252/252 163/163/163 251/251/251
f 253/253/253 163/163/163 252/252/252
f 168/168/168 163/163/163 253/253/253
f 254/254/254 162/162/162 169/169/169
f 250/250/250 162/162/162 254/254/254
f 255/255/255 250/250/250 254/254/254
f 251/251/251 250/250/250 255/255/255
f 256/256/256 251/251/251 255/255/255
f 252/252/252 251/251/251 256/256/256
f 257/257/257 252/252/252 256/256/256
f 253/253/253 252/252/252 257/257/257
f 174/174/174 253/253/253 257/257/257
f 168/168/168 253/253/253 174/174/174
f 258/258/258 254/254/254 175/175/175
f 254/254/254 169/169/169 175/175/175
f 259/259/259 254/254/254 258/258/258
f 255/255/255 254/254/254 259/259/259
f 260/260/260 255/255/255 259/259/259
f 256/256/256 255/255/255 260/260/260
f 261/261/261 256/256/256 260/260/260
f 257/257/257 256/256/256 261/261/261
f 180/180/180 257/257/257 261/261/261
f 174/174/174 257/257/257 180/180/180
f 262/262/262 258/258/258 181/181/181
f 258/258/258 175/175/175 181/181/181
f 263/263/263 259/259/259 262/262/262
f 259/259/259 258/258/258 262/262/262
f 264/264/264 260/260/260 265/265/265
f 260/260/260 259/259/259 265/265/265
f 266/266/266 260/260/260 264/264/264
f 261/261/261 260/260/260 266/266/266
f 187/187/187 261/261/261 266/266/266
f 180/180/180 261/261/261 187/187/187
f 181/181/181 188/188/188 262/262/262
f 266/266/266 189/189/189 187/187/187
f 267/267/267 189/189/189 266/266/266
f 268/268/268 192/192/192 191/191/191
f 188/188/188 269/269/269 270/270/270
f 262/262/262 188/188/188 270/270/270
f 264/264/264 267/267/267 266/266/266
f 265/265/265 271/271/271 264/264/264
f 272/272/272 273/273/273 274/274/274
f 259/259/259 275/275/275 265/265/265
f 267/267/267 201/201/201 189/189/189
f 271/271/271 201/201/201 267/267/267
f 264/264/264 271/271/271 267/267/267
f 271/271/271 274/274/274 201/201/201
f 273/273/273 191/191/191 274/274/274
f 274/274/274 191/191/191 201/201/201
f 265/265/265 274/274/274 271/271/271
f 276/276/276 277/277/277 191/191/191
f 277/277/277 268/268/268 191/191/191
f 273/273/273 276/276/276 191/191/191
f 265/265/265 272/272/272 274/274/274
f 188/188/188 204/204/204 269/269/269
f 270/270/270 269/269/269 278/278/278
f 262/262/262 270/270/270 263/263/263
f 259/259/259 263/263/263 275/275/275
f 279/279/279 280/280/280 281/281/281
f 282/282/282 283/283/283 284/284/284
f 285/285/285 286/286/286 287/287/287
f 288/288/288 289/289/289 290/290/290
f 291/291/291 292/292/292 293/293/293
f 294/294/294 295/295/295 296/296/296
f 297/297/297 298/298/298 299/299/299
f 300/300/300 301/301/301 302/302/302
f 303/303/303 300/300/300 302/302/302
f 304/304/304 305/305/305 301/301/301
f 301/301/301 300/300/300 304/304/304
f 306/306/306 304/304/304 300/300/300
f 300/300/300 303/303/303 306/306/306
f 307/307/307 308/308/308 305/305/305
f 305/305/305 304/304/304 307/307/307
f 309/309/309 307/307/307 304/304/304
f 304/304/304 306/306/306 309/309/309
f 310/310/310 311/311/311 312/312/312
f 313/313/313 312/312/312 314/314/314
f 312/312/312 313/313/313 310/310/310
f 315/315/315 314/314/314 316/316/316
f 314/314/314 315/315/315 313/313/313
f 317/317/317 311/311/311 318/318/318
f 314/314/314 319/319/319 316/316/316
f 314/314/314 320/320/320 319/319/319
f 320/320/320 321/321/321 319/319/319
f 320/320/320 322/322/322 321/321/321
f 312/312/312 320/320/320 314/314/314
f 312/312/312 317/317/317 320/320/320
f 317/317/317 322/322/322 320/320/320
f 317/317/317 318/318/318 322/322/322
f 311/311/311 317/317/317 312/312/312
