mtllib 0727000001.mtl
o 0727000001_part_0
v 0.363191783 0.28515166 0.0338138
v 0.08781005 0.374276727 0.184961855
v -0.00276789675 0.20026575 0.210580885
v 0.367834836 0.470446 -0.08215495
v -0.0706238 0.415894866 0.269951075
v -0.203875527 0.210550383 0.210344046
v -0.09083931 0.0554586127 0.2698602
v 0.1958623 0.09410583 0.1404513
v -0.249812216 0.08230439 0.199396849
v -0.106081858 -0.06291221 0.386686176
v 0.0596861541 -0.119619951 0.288112283
v -0.236998856 -0.03255389 0.352784038
v 0.247839183 0.368556261 -0.208090156
v 0.208130047 0.16099906 -0.1668995
v -0.042810265 0.1750792 -0.275132954
v 0.179135248 0.460859746 -0.219870716
v -0.20402728 0.214808539 -0.326071978
v 8.706637E-09 0.484573483 -0.257009625
v 0.205455452 0.03137082 -0.185020745
v -0.07818517 0.0472693481 -0.317109048
v -0.245614275 0.08676217 -0.3756706
v 0.139307588 -0.159995928 -0.3153869
v -0.0574279279 -0.106309064 -0.425345957
v -0.2895942 -0.0402803868 -0.5065325
v -0.408011347 0.446647972 -0.0111217014
v -0.448725283 0.306281567 0.154094949
v -0.33139345 0.265278757 0.2285591
v -0.269750148 0.446136057 0.2180983
v -0.500048637 0.208452225 0.299799263
v -0.3521268 0.136460483 0.275426924
v -0.516520739 0.07772366 0.427637845
v -0.337421536 0.00315827224 0.3749586
v -0.341581136 0.469821662 -0.2160579
v -0.206369162 0.485074759 -0.208788574
v -0.35583815 0.272706836 -0.264709115
v -0.423406571 0.3223228 -0.184056684
v -0.401927859 0.148238719 -0.3063284
v -0.518330753 0.21018219 -0.189188018
v -0.512746036 0.0356962271 -0.410183817
v -0.6980605 0.10116373 -0.287502438
v 0.147510126 0.239394858 -0.3070874
v 0.110322312 0.3556433 -0.2732597
v 0.15934661 0.3584753 -0.2619413
v 0.09380719 0.454395264 -0.241397738
v 0.144891515 0.4563766 -0.227336824
v 0.133176848 0.122150168 -0.252879679
v 0.11029388 0.249994323 -0.242270276
v 0.165957972 0.245660082 -0.212383062
v 0.1925649 0.430145562 -0.186788052
v 0.239184216 0.41709584 -0.148080364
v 0.00452763634 0.239024788 -0.305563867
v -0.0139467428 0.37244308 -0.28289035
v 0.0414060354 0.367394418 -0.291965932
v -0.02056029 0.462245017 -0.259754151
v 0.0368494019 0.460992 -0.2600063
v -0.2660564 0.257793665 -0.312219173
v -0.256291926 0.3770122 -0.268440425
v -0.20897162 0.3657695 -0.280580074
v -0.172247916 0.4787511 -0.216522
v -0.121112913 0.474075556 -0.230934054
v -0.4234419 0.304604471 -0.212385252
v -0.388385624 0.420587122 -0.173693553
v -0.349864364 0.4096791 -0.200640678
v -0.293478459 0.4936522 -0.131318957
v -0.2527986 0.488976657 -0.161332563
v -0.0254586916 0.0901941955 0.305142969
v -0.006472088 0.200026378 0.19120878
v -0.06357478 0.2092343 0.180997968
v 0.06269948 0.3273055 0.165954128
v 0.0292095058 0.342240661 0.184854984
v 0.1945954 0.102530912 0.1720628
v 0.365522325 0.3243215 0.02243126
v 0.2473703 0.271460354 0.102144413
v 0.327343732 0.409165442 -0.0105857328
v 0.2376134 0.372094631 0.06432525
v -0.22042264 0.116217956 0.239816964
v -0.156392932 0.229705989 0.203336149
v -0.207698584 0.251866251 0.201492816
v -0.13104175 0.335464 0.177873731
v -0.187853783 0.354519963 0.179021746
v -0.3418416 0.190446988 0.336301565
v -0.3083663 0.295647264 0.256887734
v -0.348345339 0.31650427 0.2773653
v -0.285983831 0.400183856 0.200529844
v -0.331137359 0.417071462 0.2093891
v -0.503120661 0.280921161 0.361634463
v -0.4434178 0.362400979 0.247463882
v -0.477508068 0.3729188 0.221380159
v -0.3997659 0.426820159 0.130979449
v -0.4203626 0.4238405 0.06765783
v 0.0155739263 1.09730685 -0.436155766
v -0.009170726 1.1167556 -0.465512723
v -0.19854 0.9606965 -0.4459577
v -0.169245213 0.9389924 -0.412198037
v 0.006268978 1.08858776 -0.495031267
v -0.180755213 0.9282165 -0.480045855
v 0.213461682 1.30354214 -0.502530932
v 0.18488656 1.32600188 -0.5364323
v 0.202716067 1.29347324 -0.5705203
v 0.47745055 1.54245949 -0.5027161
v 0.4332669 1.57935309 -0.5568721
v 0.4665495 1.53216863 -0.6120025
v -0.149820924 0.9080297 -0.445857882
v 0.03309521 1.07106483 -0.465426117
v 0.233695343 1.27323806 -0.536332369
v 0.510898948 1.49543047 -0.5567131
v -0.253629 0.9792761 -0.435393959
v -0.0102093965 0.9960278 -0.451576531
v -0.0174717233 1.02176869 -0.485296845
v -0.170021057 0.9226426 -0.415602684
v -0.0203510523 0.9859989 -0.510104239
v -0.266380042 0.9675897 -0.5028681
v 0.273788929 1.03763545 -0.512502551
v 0.265402526 1.067361 -0.5514428
v 0.2620771 1.026054 -0.5800903
v 0.619204342 1.02394259 -0.494184226
v 0.607586741 1.07139552 -0.556308448
v 0.60899204 1.00637209 -0.60260576
v -0.254762977 0.938365 -0.4635715
v -0.0102849677 0.9606358 -0.4760669
v 0.273701876 0.99676466 -0.540783942
v 0.6207869 0.959109843 -0.5393552
v -0.02047193 1.60412681 -0.62510556
v 0.289903373 1.39867079 -0.5674466
v 0.416276962 1.55806446 -0.5482777
v 0.03426436 1.82145452 -0.600317538
v 0.296978235 1.33021939 -0.5568382
v 0.363790572 1.06344378 -0.570583344
v 0.606194854 1.08444512 -0.5578273
v 0.487512857 1.49241424 -0.5516199
v -0.220294312 1.12899327 -0.3933404
v -0.08560741 0.927756369 -0.427380145
v -0.06526861 0.942792833 -0.470149428
v -0.203119814 1.1428107 -0.4303066
v -0.10140577 0.9175567 -0.494449556
v -0.23445864 1.120927 -0.451333821
v -0.349349976 1.39777112 -0.4394564
v -0.369183153 1.3818146 -0.396767855
v -0.38553986 1.37249947 -0.46373865
v -0.515919 1.7068665 -0.384573579
v -0.546539366 1.68002224 -0.316839
v -0.5770777 1.67236924 -0.422560722
v -0.122689091 0.9043848 -0.450782925
v -0.2529346 1.10949 -0.413505316
v -0.4068762 1.35929239 -0.420054257
v -0.6074165 1.64566481 -0.353713781
v -0.00712703168 0.946161032 -0.480139583
v -0.0902626 0.9119279 -0.430080652
v -0.226741135 1.04988182 -0.447309762
v -0.228231162 1.02531683 -0.4120007
v -0.0219085068 0.9347474 -0.5472452
v -0.2418547 1.01575577 -0.469896376
v -0.493356943 1.16929257 -0.413710982
v -0.495077461 1.14092493 -0.37293604
v -0.51080966 1.12988353 -0.439794034
v -0.802982867 1.26089132 -0.3002585
v -0.804144442 1.21515512 -0.235814542
v -0.8368669 1.20060861 -0.340149939
v -0.0262950584 0.907672644 -0.5050435
v -0.245670319 0.9922574 -0.433339179
v -0.5152164 1.10274792 -0.397577584
v -0.837750852 1.15504968 -0.2745979
v -0.123450391 1.61796081 -0.606412649
v -0.108753949 1.84066761 -0.5743565
v -0.50305146 1.68156683 -0.381398946
v -0.436311275 1.49623036 -0.435622334
v -0.456534177 1.43144619 -0.420058817
v -0.585311651 1.63653731 -0.3568782
v -0.7989147 1.27320719 -0.302768439
v -0.5898099 1.19155025 -0.3974835
v -0.120415673 1.06618118 -0.4987089
v -0.155269057 1.06919312 -0.5237801
v -0.20989418 0.8292009 -0.519617438
v -0.169543326 0.826768756 -0.4907235
v -0.129868254 1.05909324 -0.557779551
v -0.180626139 0.817548454 -0.558871031
v -0.0845236555 1.452276 -0.557452142
v -0.124772236 1.45575452 -0.5864044
v -0.09543953 1.44409108 -0.6256669
v -0.02806968 1.87701654 -0.541717947
v -0.110701956 1.886802 -0.5844497
v -0.0440804176 1.87238085 -0.650761068
v -0.139827549 0.817270041 -0.5293981
v -0.09448303 1.05884254 -0.532265246
v -0.05457645 1.44380176 -0.596203
v 0.03861922 1.86272931 -0.606873155
vt 0.6124193 0.153177738
vt 0.546310842 0.216437221
vt 0.532101333 0.142035186
vt 0.6430413 0.232066035
vt 0.470400333 0.21657443
vt 0.470400333 0.142294109
vt 0.530542433 0.0810551643
vt 0.6053435 0.08749783
vt 0.470400333 0.08109641
vt 0.5336595 0.0181310177
vt 0.6221363 0.0258651972
vt 0.470400333 0.0181310177
vt 0.6430413 0.232066035
vt 0.6124193 0.153177738
vt 0.532101333 0.142035186
vt 0.546310842 0.216437221
vt 0.4711666 0.142294109
vt 0.4711666 0.21657443
vt 0.6053435 0.08749783
vt 0.530542433 0.0810551643
vt 0.4711666 0.08109641
vt 0.6221363 0.0258651972
vt 0.5336595 0.0181310177
vt 0.4711666 0.0181310177
vt 0.6430413 0.232066035
vt 0.6124193 0.153177738
vt 0.532101333 0.142035186
vt 0.546310842 0.216437221
vt 0.6053435 0.08749783
vt 0.530542433 0.0810551643
vt 0.6221363 0.0258651972
vt 0.5336595 0.0181310177
vt 0.6430413 0.232066035
vt 0.546310842 0.216437221
vt 0.532101333 0.142035186
vt 0.6124193 0.153177738
vt 0.530542433 0.0810551643
vt 0.6053435 0.08749783
vt 0.5336595 0.0181310177
vt 0.6221363 0.0258651972
vt 0.9719369 0.00390023
vt 0.971526 0.05783522
vt 0.985988438 0.05783522
vt 0.9701387 0.105492592
vt 0.98967 0.105492592
vt 0.9719369 0.00390023
vt 0.971526 0.05783522
vt 0.985988438 0.05783522
vt 0.9701387 0.105492592
vt 0.98967 0.105492592
vt 0.9734483 0.006419182
vt 0.971526 0.05783522
vt 0.985988438 0.05783522
vt 0.9701387 0.103981256
vt 0.98967 0.103981256
vt 0.9719369 0.00390023
vt 0.985988438 0.05783522
vt 0.971526 0.05783522
vt 0.98967 0.105492592
vt 0.9701387 0.105492592
vt 0.9719369 0.00390023
vt 0.985988438 0.05783522
vt 0.971526 0.05783522
vt 0.98967 0.105492592
vt 0.9701387 0.105492592
vt 0.9719369 0.00390023
vt 0.985988438 0.05783522
vt 0.971526 0.05783522
vt 0.98967 0.105492592
vt 0.9701387 0.105492592
vt 0.9719369 0.00390023
vt 0.985988438 0.05783522
vt 0.971526 0.05783522
vt 0.98967 0.105492592
vt 0.9701387 0.105492592
vt 0.9734483 0.006419182
vt 0.985988438 0.05783522
vt 0.971526 0.05783522
vt 0.98967 0.103981256
vt 0.9701387 0.103981256
vt 0.9719369 0.00390023
vt 0.971526 0.05783522
vt 0.985988438 0.05783522
vt 0.9701387 0.105492592
vt 0.98967 0.105492592
vt 0.9719369 0.00390023
vt 0.971526 0.05783522
vt 0.985988438 0.05783522
vt 0.9701387 0.105492592
vt 0.98967 0.105492592
vt 0.4407531 0.4099213
vt 0.4594874 0.4099213
vt 0.4594874 0.290261865
vt 0.4407531 0.290261865
vt 0.4407531 0.4099213
vt 0.4407531 0.290261865
vt 0.4407531 0.546690643
vt 0.4594874 0.546690643
vt 0.4407531 0.546690643
vt 0.4407531 0.6736274
vt 0.4594874 0.6736274
vt 0.4407531 0.6736274
vt 0.423350781 0.290261865
vt 0.423350781 0.4099213
vt 0.423350781 0.546690643
vt 0.423350781 0.6736274
vt 0.4407531 0.290261865
vt 0.4407531 0.4099213
vt 0.4594874 0.4099213
vt 0.4594874 0.290261865
vt 0.4407531 0.4099213
vt 0.4407531 0.290261865
vt 0.4407531 0.546690643
vt 0.4594874 0.546690643
vt 0.4407531 0.546690643
vt 0.4407531 0.6736274
vt 0.4594874 0.6736274
vt 0.4407531 0.6736274
vt 0.423350781 0.290261865
vt 0.423350781 0.4099213
vt 0.423350781 0.546690643
vt 0.423350781 0.6736274
vt 0.119117692 0.4506212
vt 0.228980556 0.4506212
vt 0.243034929 0.515337348
vt 0.111105837 0.515337348
vt 0.119117692 0.4506212
vt 0.228980556 0.4506212
vt 0.243034929 0.515337348
vt 0.111105837 0.515337348
vt 0.4407531 0.4099213
vt 0.4407531 0.290261865
vt 0.4594874 0.290261865
vt 0.4594874 0.4099213
vt 0.4407531 0.290261865
vt 0.4407531 0.4099213
vt 0.4594874 0.546690643
vt 0.4407531 0.546690643
vt 0.4407531 0.546690643
vt 0.4594874 0.6736274
vt 0.4407531 0.6736274
vt 0.4407531 0.6736274
vt 0.423350781 0.290261865
vt 0.423350781 0.4099213
vt 0.423350781 0.546690643
vt 0.423350781 0.6736274
vt 0.4407531 0.290261865
vt 0.4594874 0.290261865
vt 0.4594874 0.4099213
vt 0.4407531 0.4099213
vt 0.4407531 0.290261865
vt 0.4407531 0.4099213
vt 0.4594874 0.546690643
vt 0.4407531 0.546690643
vt 0.4407531 0.546690643
vt 0.4594874 0.6736274
vt 0.4407531 0.6736274
vt 0.4407531 0.6736274
vt 0.423350781 0.290261865
vt 0.423350781 0.4099213
vt 0.423350781 0.546690643
vt 0.423350781 0.6736274
vt 0.119117692 0.4506212
vt 0.111105837 0.515337348
vt 0.243034929 0.515337348
vt 0.228980556 0.4506212
vt 0.119117692 0.4506212
vt 0.111105837 0.515337348
vt 0.243034929 0.515337348
vt 0.228980556 0.4506212
vt 0.4407531 0.4099213
vt 0.4594874 0.4099213
vt 0.4594874 0.290261865
vt 0.4407531 0.290261865
vt 0.4407531 0.4099213
vt 0.4407531 0.290261865
vt 0.4407531 0.546690643
vt 0.4594874 0.546690643
vt 0.4407531 0.546690643
vt 0.4407531 0.6736274
vt 0.4594874 0.6736274
vt 0.4407531 0.6736274
vt 0.423350781 0.290261865
vt 0.423350781 0.4099213
vt 0.423350781 0.546690643
vt 0.423350781 0.6736274
vn 0.5058749 0.285189182 0.8140993
vn 0.4749989 -0.0189890619 0.8797815
vn 0.253001153 0.0132750534 0.9673749
vn 0.537334144 0.437712461 0.7208882
vn 0.0446520448 -0.160871938 0.9859647
vn 0.00377492653 -0.114734054 0.99338907
vn 0.0239480156 0.6151167 0.7880723
vn 0.3988796 0.231970251 0.887178063
vn 0.247166857 0.454001963 0.856032
vn 0.198883608 0.601584554 0.7736545
vn 0.5513891 0.207025 0.8081526
vn 0.18095243 0.7244757 0.665124953
vn 0.270977616 -0.0745244 -0.9596964
vn 0.4019732 -0.0623506829 -0.9135261
vn 0.34689784 0.0682339147 -0.9354176
vn 0.221150681 0.0357949324 -0.974582553
vn 0.02925933 0.29803142 -0.9541075
vn 0.07869307 0.190972045 -0.978436053
vn 0.4471608 0.258699864 -0.8562252
vn 0.394379169 0.398023427 -0.828276753
vn 0.140636474 0.5395621 -0.8301169
vn 0.527923644 0.345920652 -0.7756517
vn 0.426401049 0.520863831 -0.739515364
vn 0.182981446 0.664101064 -0.7249052
vn -0.592415035 0.53992 0.597938836
vn -0.04871349 0.716423154 0.695963264
vn -0.156749278 0.279996544 0.9471175
vn -0.4965835 0.115002841 0.860336661
vn 0.427017748 0.6321944 0.6465184
vn 0.455429524 0.516070664 0.725434363
vn 0.4448913 0.5968743 0.6676921
vn 0.3918113 0.585013 0.7101012
vn -0.163424119 0.247529656 -0.954998255
vn -0.143588051 0.34729436 -0.926697969
vn -0.381675124 0.379517317 -0.842787445
vn -0.5991785 0.34168753 -0.724040568
vn -0.243519753 0.6081201 -0.755571365
vn -0.3308567 0.642673552 -0.691017032
vn -0.115668483 0.744155943 -0.6579154
vn -0.133729592 0.776159763 -0.6161919
vn 0.1941029 0.3308307 -0.9235124
vn 0.194128349 0.330640644 -0.9235751
vn 0.200756237 0.334561437 -0.920741856
vn 0.223556042 0.3477637 -0.91054
vn 0.235324889 0.354601353 -0.9049199
vn 0.476640671 0.157093883 -0.8649481
vn 0.4768147 0.110415116 -0.872041464
vn 0.493688524 0.08992472 -0.864977
vn 0.615279138 0.0205935277 -0.7880403
vn 0.6410582 0.0140071055 -0.767364442
vn -0.147095487 0.145887837 -0.9783045
vn -0.140897259 0.198699534 -0.9698796
vn -0.116789028 0.208044872 -0.971121848
vn -0.04293945 0.296005934 -0.9542205
vn 0.00289907656 0.3232641 -0.9463043
vn -0.153357148 0.351673961 -0.9234755
vn -0.139509991 0.426047117 -0.893879652
vn -0.127286524 0.429587662 -0.8940093
vn -0.17705822 0.5594709 -0.809717655
vn -0.160078377 0.5417808 -0.8251354
vn -0.445862681 0.401623368 -0.7999407
vn -0.379816651 0.553190649 -0.74143064
vn -0.355601162 0.5713941 -0.7396328
vn -0.329939425 0.7562487 -0.5650025
vn -0.318106264 0.7381892 -0.5948824
vn -0.00778445369 0.7205743 0.693334043
vn -0.0450528748 0.4015005 0.91475004
vn -0.09128762 0.429942966 0.8982292
vn 0.463801473 -0.07693577 0.882592261
vn 0.348136544 -0.04551416 0.9363383
vn 0.4844661 0.20103471 0.851397455
vn 0.436955571 0.389365166 0.8108419
vn 0.461521417 0.251373053 0.85077
vn 0.431028962 0.48905462 0.758313656
vn 0.417849332 0.406050026 0.8127271
vn 0.0795392841 0.2641053 0.9612086
vn 0.0729022846 0.236359313 0.968927
vn 0.06393446 0.228821829 0.9713665
vn 0.0909205154 0.212449938 0.972932935
vn 0.07962547 0.209903181 0.97447443
vn 0.5695251 0.372062385 0.7329466
vn 0.5621382 0.335201 0.756069362
vn 0.535372257 0.359320372 0.7643725
vn 0.394330382 0.444605649 0.804257035
vn 0.3397726 0.486087978 0.805154
vn -0.142397061 0.839374 0.524570644
vn -0.117410742 0.858295 0.499544144
vn -0.149385855 0.8811811 0.4485574
vn -0.427337438 0.8893213 0.16275847
vn -0.4739677 0.8732516 0.113076143
vn 0.132558718 0.09687195 0.9864299
vn -0.6817455 0.730164945 0.0456313156
vn -0.638700366 0.7658368 -0.07453782
vn 0.05950896 0.08109074 0.994928658
vn -0.09760043 -0.122628614 -0.9876418
vn -0.0533233359 -0.03138103 -0.998084068
vn 0.06978252 0.08794024 0.993678451
vn -0.7236792 0.6895983 -0.0272512939
vn -0.1489958 -0.118546538 -0.981706142
vn 0.471290827 0.432326 0.76875174
vn -0.155926675 0.986797869 -0.0437822565
vn 0.349015564 0.315734327 -0.8823265
vn 0.6607747 -0.7483419 -0.0579754561
vn 0.69097054 -0.721691 0.0414946936
vn 0.664767 -0.7462615 -0.0343310647
vn 0.9695069 -0.24167344 -0.0406233855
vn 0.043490313 -0.869206131 0.492533565
vn 0.122148216 0.141995341 0.98230195
vn -0.154609621 0.9831503 -0.09752601
vn -0.60537684 0.491429478 -0.6261118
vn -0.109005578 -0.183106616 -0.9770311
vn -0.2151583 -0.6175 -0.756571651
vn 0.06589234 0.209545121 0.9755763
vn -0.102373235 0.9773826 -0.185048714
vn -0.146892667 -0.1196583 -0.9818882
vn 0.6025248 0.132909715 0.7869554
vn 0.51743114 0.842642069 -0.149061412
vn 0.5063474 -0.129973978 -0.8524782
vn 0.0948367938 -0.991531551 0.08871953
vn 0.130673289 -0.973392546 0.188232392
vn 0.01596215 -0.9923957 0.122048922
vn 0.5895085 -0.8007117 0.106492132
vn -0.177731067 -0.0455978028 0.983022153
vn -0.1714358 0.01745866 0.9850406
vn -0.174314827 -0.0105177909 0.9846338
vn -0.179681033 -0.06668925 0.9814618
vn -0.0229973514 -0.03295481 0.999192238
vn -0.046990227 -0.0631317943 0.996898353
vn -0.0311377514 -0.0431940556 0.99858135
vn -0.0115675069 -0.0185768344 0.9997605
vn 0.2458107 0.081656985 0.9658723
vn 0.310672343 0.04734876 0.949337
vn 0.7467504 0.5797155 -0.3260272
vn 0.818008661 0.528687954 -0.226607218
vn -0.3046409 0.002380772 -0.9524643
vn -0.2843813 -0.09753712 -0.9537367
vn 0.8203264 0.48217684 -0.307522535
vn 0.302716374 0.05664805 0.9513957
vn -0.234878689 -0.107008852 -0.9661165
vn 0.377939135 0.915078044 -0.140691623
vn -0.0494837351 0.502287865 0.8632834
vn -0.5392106 0.4350581 -0.7210939
vn -0.8079837 -0.5510289 0.2086371
vn -0.7940761 -0.5221899 0.311063975
vn -0.802889168 -0.549096465 0.2320819
vn -0.9512345 0.0163588729 0.30803445
vn -0.09134064 -0.851093 0.517008364
vn 0.455979943 0.348846525 -0.8187725
vn 0.357252181 0.9143869 -0.1904402
vn 0.265321434 0.122762 0.9563127
vn -0.2249229 -0.616188943 -0.754798532
vn -0.28587687 -0.159343883 -0.944925368
vn 0.278377563 0.9262323 -0.254164666
vn 0.3310636 0.173923492 0.927441359
vn -0.237124965 -0.107536688 -0.965509
vn -0.3032921 0.9528976 -8.216778E-05
vn -0.238237455 0.245857686 0.939572752
vn -0.784905851 0.04349227 -0.618086755
vn -0.308464468 -0.937352061 0.161928251
vn -0.301811963 -0.9152927 0.2667375
vn -0.225952446 -0.959896863 0.165962428
vn -0.7002098 -0.627450645 0.34060514
vn 0.488390356 -0.135084525 0.862106144
vn 0.484220237 -0.1558777 0.860948861
vn 0.494830281 -0.100410737 0.863168955
vn 0.499523163 -0.07267797 0.8632465
vn 0.3574906 -0.08406958 0.9301251
vn 0.351041883 -0.0672898144 0.9339388
vn 0.362012416 -0.0960098952 0.927215755
vn 0.3706482 -0.119237356 0.9210876
vn 0.1684096 0.06652908 0.9834694
vn -0.9701155 0.161500931 0.18108955
vn -0.9725927 0.222634 0.06706321
vn 0.121771157 0.008117337 0.992525
vn -0.126774579 -0.0614628643 -0.9900255
vn -0.146916971 0.03513801 -0.9885245
vn 0.1400813 0.0197985955 0.989942
vn -0.9910617 0.0750930756 0.110262074
vn -0.158527687 -0.100252874 -0.982251644
vn 0.200274691 0.5880264 0.783654869
vn -0.7532778 0.6485881 0.109114639
vn -0.0431534126 0.5491259 -0.834624767
vn 0.963279545 -0.183164671 -0.19632417
vn 0.9835261 -0.1532286 -0.09590285
vn 0.971659541 -0.162219241 -0.171938062
vn 0.9042069 0.4052039 -0.134980634
usemtl 0727000001_part_0_material_0
f 1/1/1 2/2/2 3/3/3
f 2/2/2 1/1/1 4/4/4
f 3/3/3 5/5/5 6/6/6
f 5/5/5 3/3/3 2/2/2
f 1/1/1 3/3/3 7/7/7
f 7/7/7 8/8/8 1/1/1
f 3/3/3 6/6/6 9/9/9
f 9/9/9 7/7/7 3/3/3
f 8/8/8 7/7/7 10/10/10
f 10/10/10 11/11/11 8/8/8
f 7/7/7 9/9/9 12/12/12
f 12/12/12 10/10/10 7/7/7
f 13/13/13 14/14/14 15/15/15
f 15/15/15 16/16/16 13/13/13
f 16/16/16 15/15/15 17/17/17
f 17/17/17 18/18/18 16/16/16
f 14/14/14 19/19/19 20/20/20
f 20/20/20 15/15/15 14/14/14
f 15/15/15 20/20/20 21/21/21
f 21/21/21 17/17/17 15/15/15
f 19/19/19 22/22/22 23/23/23
f 23/23/23 20/20/20 19/19/19
f 20/20/20 23/23/23 24/24/24
f 24/24/24 21/21/21 20/20/20
f 25/25/25 26/26/26 27/27/27
f 27/27/27 28/28/28 25/25/25
f 28/28/28 27/27/27 6/6/6
f 6/6/6 5/5/5 28/28/28
f 26/26/26 29/29/29 30/30/30
f 30/30/30 27/27/27 26/26/26
f 27/27/27 30/30/30 9/9/9
f 9/9/9 6/6/6 27/27/27
f 29/29/29 31/31/31 32/32/32
f 32/32/32 30/30/30 29/29/29
f 30/30/30 32/32/32 12/12/12
f 12/12/12 9/9/9 30/30/30
f 33/33/33 34/34/34 35/35/35
f 35/35/35 36/36/36 33/33/33
f 34/34/34 18/18/18 17/17/17
f 17/17/17 35/35/35 34/34/34
f 36/36/36 35/35/35 37/37/37
f 37/37/37 38/38/38 36/36/36
f 35/35/35 17/17/17 21/21/21
f 21/21/21 37/37/37 35/35/35
f 38/38/38 37/37/37 39/39/39
f 39/39/39 40/40/40 38/38/38
f 37/37/37 21/21/21 24/24/24
f 24/24/24 39/39/39 37/37/37
f 41/41/41 42/42/42 43/43/43
f 43/43/43 42/42/42 44/44/44
f 44/44/44 45/45/45 43/43/43
f 46/46/46 47/47/47 48/48/48
f 48/48/48 47/47/47 49/49/49
f 49/49/49 50/50/50 48/48/48
f 51/51/51 52/52/52 53/53/53
f 53/53/53 52/52/52 54/54/54
f 54/54/54 55/55/55 53/53/53
f 56/56/56 57/57/57 58/58/58
f 57/57/57 59/59/59 60/60/60
f 60/60/60 58/58/58 57/57/57
f 61/61/61 62/62/62 63/63/63
f 62/62/62 64/64/64 65/65/65
f 65/65/65 63/63/63 62/62/62
f 66/66/66 67/67/67 68/68/68
f 67/67/67 69/69/69 70/70/70
f 70/70/70 68/68/68 67/67/67
f 71/71/71 72/72/72 73/73/73
f 72/72/72 74/74/74 75/75/75
f 75/75/75 73/73/73 72/72/72
f 76/76/76 77/77/77 78/78/78
f 77/77/77 79/79/79 80/80/80
f 80/80/80 78/78/78 77/77/77
f 81/81/81 82/82/82 83/83/83
f 83/83/83 82/82/82 84/84/84
f 84/84/84 85/85/85 83/83/83
f 86/86/86 87/87/87 88/88/88
f 88/88/88 87/87/87 89/89/89
f 89/89/89 90/90/90 88/88/88
f 91/91/91 92/92/92 93/93/93
f 93/93/93 94/94/94 91/91/91
f 92/92/92 95/95/95 96/96/96
f 96/96/96 93/93/93 92/92/92
f 91/91/91 97/97/97 98/98/98
f 98/98/98 92/92/92 91/91/91
f 92/92/92 98/98/98 99/99/99
f 99/99/99 95/95/95 92/92/92
f 97/97/97 100/100/100 101/101/101
f 101/101/101 98/98/98 97/97/97
f 98/98/98 101/101/101 102/102/102
f 102/102/102 99/99/99 98/98/98
f 101/101/101 100/100/100 102/102/102
f 103/103/103 104/104/104 91/91/91
f 91/91/91 94/94/94 103/103/103
f 96/96/96 95/95/95 104/104/104
f 104/104/104 103/103/103 96/96/96
f 105/105/105 97/97/97 91/91/91
f 91/91/91 104/104/104 105/105/105
f 99/99/99 105/105/105 104/104/104
f 104/104/104 95/95/95 99/99/99
f 106/106/106 100/100/100 97/97/97
f 97/97/97 105/105/105 106/106/106
f 102/102/102 106/106/106 105/105/105
f 105/105/105 99/99/99 102/102/102
f 106/106/106 102/102/102 100/100/100
f 107/107/107 108/108/108 109/109/109
f 109/109/109 110/110/110 107/107/107
f 109/109/109 111/111/111 112/112/112
f 112/112/112 110/110/110 109/109/109
f 108/108/108 113/113/113 114/114/114
f 114/114/114 109/109/109 108/108/108
f 109/109/109 114/114/114 115/115/115
f 115/115/115 111/111/111 109/109/109
f 113/113/113 116/116/116 117/117/117
f 117/117/117 114/114/114 113/113/113
f 114/114/114 117/117/117 118/118/118
f 118/118/118 115/115/115 114/114/114
f 117/117/117 116/116/116 118/118/118
f 119/119/119 120/120/120 108/108/108
f 108/108/108 107/107/107 119/119/119
f 112/112/112 111/111/111 120/120/120
f 120/120/120 119/119/119 112/112/112
f 121/121/121 113/113/113 108/108/108
f 108/108/108 120/120/120 121/121/121
f 115/115/115 121/121/121 120/120/120
f 120/120/120 111/111/111 115/115/115
f 122/122/122 116/116/116 113/113/113
f 113/113/113 121/121/121 122/122/122
f 118/118/118 122/122/122 121/121/121
f 121/121/121 115/115/115 118/118/118
f 122/122/122 118/118/118 116/116/116
f 123/123/123 124/124/124 125/125/125
f 125/125/125 126/126/126 123/123/123
f 127/127/127 128/128/128 129/129/129
f 129/129/129 130/130/130 127/127/127
f 131/131/131 132/132/132 133/133/133
f 133/133/133 134/134/134 131/131/131
f 134/134/134 133/133/133 135/135/135
f 135/135/135 136/136/136 134/134/134
f 131/131/131 134/134/134 137/137/137
f 137/137/137 138/138/138 131/131/131
f 134/134/134 136/136/136 139/139/139
f 139/139/139 137/137/137 134/134/134
f 138/138/138 137/137/137 140/140/140
f 140/140/140 141/141/141 138/138/138
f 137/137/137 139/139/139 142/142/142
f 142/142/142 140/140/140 137/137/137
f 140/140/140 142/142/142 141/141/141
f 143/143/143 132/132/132 131/131/131
f 131/131/131 144/144/144 143/143/143
f 135/135/135 143/143/143 144/144/144
f 144/144/144 136/136/136 135/135/135
f 145/145/145 144/144/144 131/131/131
f 131/131/131 138/138/138 145/145/145
f 139/139/139 136/136/136 144/144/144
f 144/144/144 145/145/145 139/139/139
f 146/146/146 145/145/145 138/138/138
f 138/138/138 141/141/141 146/146/146
f 142/142/142 139/139/139 145/145/145
f 145/145/145 146/146/146 142/142/142
f 146/146/146 141/141/141 142/142/142
f 147/147/147 148/148/148 149/149/149
f 149/149/149 150/150/150 147/147/147
f 149/149/149 148/148/148 151/151/151
f 151/151/151 152/152/152 149/149/149
f 150/150/150 149/149/149 153/153/153
f 153/153/153 154/154/154 150/150/150
f 149/149/149 152/152/152 155/155/155
f 155/155/155 153/153/153 149/149/149
f 154/154/154 153/153/153 156/156/156
f 156/156/156 157/157/157 154/154/154
f 153/153/153 155/155/155 158/158/158
f 158/158/158 156/156/156 153/153/153
f 156/156/156 158/158/158 157/157/157
f 159/159/159 147/147/147 150/150/150
f 150/150/150 160/160/160 159/159/159
f 151/151/151 159/159/159 160/160/160
f 160/160/160 152/152/152 151/151/151
f 161/161/161 160/160/160 150/150/150
f 150/150/150 154/154/154 161/161/161
f 155/155/155 152/152/152 160/160/160
f 160/160/160 161/161/161 155/155/155
f 162/162/162 161/161/161 154/154/154
f 154/154/154 157/157/157 162/162/162
f 158/158/158 155/155/155 161/161/161
f 161/161/161 162/162/162 158/158/158
f 162/162/162 157/157/157 158/158/158
f 163/163/163 164/164/164 165/165/165
f 165/165/165 166/166/166 163/163/163
f 167/167/167 168/168/168 169/169/169
f 169/169/169 170/170/170 167/167/167
f 171/171/171 172/172/172 173/173/173
f 173/173/173 174/174/174 171/171/171
f 172/172/172 175/175/175 176/176/176
f 176/176/176 173/173/173 172/172/172
f 171/171/171 177/177/177 178/178/178
f 178/178/178 172/172/172 171/171/171
f 172/172/172 178/178/178 179/179/179
f 179/179/179 175/175/175 172/172/172
f 177/177/177 180/180/180 181/181/181
f 181/181/181 178/178/178 177/177/177
f 178/178/178 181/181/181 182/182/182
f 182/182/182 179/179/179 178/178/178
f 181/181/181 180/180/180 182/182/182
f 183/183/183 184/184/184 171/171/171
f 171/171/171 174/174/174 183/183/183
f 176/176/176 175/175/175 184/184/184
f 184/184/184 183/183/183 176/176/176
f 185/185/185 177/177/177 171/171/171
f 171/171/171 184/184/184 185/185/185
f 179/179/179 185/185/185 184/184/184
f 184/184/184 175/175/175 179/179/179
f 186/186/186 180/180/180 177/177/177
f 177/177/177 185/185/185 186/186/186
f 182/182/182 186/186/186 185/185/185
f 185/185/185 179/179/179 182/182/182
f 186/186/186 182/182/182 180/180/180
