mtllib 6000990604.mtl
o 6000990604_part_0
v -0.211078972 0.115654312 -0.186981812
v -0.1449514 0.103673659 -0.131555617
v -0.145076036 0.03159471 -0.148868859
v -0.21503377 0.0334120169 -0.186897084
v -0.294221282 0.106874131 -0.1409178
v -0.282065183 0.239770621 -0.0877021849
v -0.215065256 0.248225033 -0.1671693
v -0.151570231 0.242404848 -0.11708881
v -0.159134015 0.226421118 -0.05008127
v -0.183723867 0.09182177 -0.00126286922
v -0.354886055 0.0476004258 0.125764728
v -0.3593764 0.06038405 0.120526217
v -0.371299624 0.0211459156 0.119737856
v -0.2650928 0.0860716552 0.1496089
v -0.263410926 0.1060276 0.142231256
v -0.240195543 0.144209892 0.0185644887
v -0.263410926 0.1060276 0.142231256
v -0.179521888 0.0741086155 0.162349015
v -0.168665037 0.028077649 0.00094323
v -0.3046746 0.07558291 -0.02749314
v -0.157613009 0.0179966372 0.16926983
v -0.185407564 0.0562292524 0.164838776
v -0.193273082 0.06418095 0.242485344
v -0.1834188 0.0169009939 0.2547163
v -0.240195543 0.144209892 0.0185644887
v -0.22669588 0.220996261 -0.00291054
v -0.327622354 0.0303078871 -0.030413134
v -0.290652275 0.0337450281 -0.163743049
v -0.22669588 0.220996261 -0.00291054
v -0.362833977 0.04556256 0.17457433
v -0.379317641 0.0191900637 0.189453691
v -0.290445775 0.0169369951 0.255485475
v -0.2811286 0.0624578074 0.235284418
v -0.2650928 0.0860716552 0.1496089
v -0.185407564 0.0562292524 0.164838776
v -0.157613009 0.0179966372 0.16926983
v -0.3904547 -0.0197712462 0.195360959
v -0.293112427 -0.0227736384 0.267142355
v -0.292643428 0.0157530736 0.2681178
v -0.389992565 0.0181847978 0.196321964
v -0.293112427 -0.0227736384 0.267142355
v -0.17969963 -0.0241290331 0.2661454
v -0.179215252 0.0156588927 0.2671528
v -0.292643428 0.0157530736 0.2681178
v -0.155799657 -0.0220297221 0.171737671
v -0.157765538 -0.0175908711 -0.00264299964
v -0.157221958 0.0270663835 -0.00151235226
v -0.157221958 0.0270663835 -0.00151235226
v -0.157613009 0.0179966372 0.16926983
v -0.155799657 -0.0220297221 0.171737671
v -0.157765538 -0.0175908711 -0.00264299964
v -0.132136762 -0.0138674667 -0.162033334
v -0.131593 0.0308037288 -0.160902336
v -0.157221958 0.0270663835 -0.00151235226
v -0.132136762 -0.0138674667 -0.162033334
v -0.213262886 -0.01168971 -0.209041134
v -0.212690264 0.03534888 -0.207850188
v -0.131593 0.0308037288 -0.160902336
v -0.213262886 -0.01168971 -0.209041134
v -0.3041379 -0.01125076 -0.182684049
v -0.303594083 0.0334203169 -0.181553081
v -0.212690264 0.03534888 -0.207850188
v -0.3041379 -0.01125076 -0.182684049
v -0.3329173 -0.0147137428 -0.0320646837
v -0.327622354 0.0303078871 -0.030413134
v -0.327622354 0.0303078871 -0.030413134
v -0.303594083 0.0334203169 -0.181553081
v -0.3041379 -0.01125076 -0.182684049
v -0.384274423 -0.0178714413 0.117353052
v -0.3904547 -0.0197712462 0.195360959
v -0.389992565 0.0181847978 0.196321964
v -0.383809 0.0203648712 0.118321136
v -0.17969963 -0.0241290331 0.2661454
v -0.155799657 -0.0220297221 0.171737671
v -0.157613009 0.0179966372 0.16926983
v -0.157613009 0.0179966372 0.16926983
v -0.179215252 0.0156588927 0.2671528
v -0.17969963 -0.0241290331 0.2661454
v -0.3329173 -0.0147137428 -0.0320646837
v -0.384274423 -0.0178714413 0.117353052
v -0.383809 0.0203648712 0.118321136
v -0.383809 0.0203648712 0.118321136
v -0.327622354 0.0303078871 -0.030413134
v -0.3329173 -0.0147137428 -0.0320646837
v -0.3904547 -0.0197712462 0.195360959
v -0.155799657 -0.0220297221 0.171737671
v -0.293112427 -0.0227736384 0.267142355
v -0.292643428 0.0157530736 0.2681178
v -0.290445775 0.0169369951 0.255485475
v -0.379317641 0.0191900637 0.189453691
v -0.389992565 0.0181847978 0.196321964
v -0.179215252 0.0156588927 0.2671528
v -0.1834188 0.0169009939 0.2547163
v -0.290445775 0.0169369951 0.255485475
v -0.290445775 0.0169369951 0.255485475
v -0.292643428 0.0157530736 0.2681178
v -0.179215252 0.0156588927 0.2671528
v -0.157613009 0.0179966372 0.16926983
v -0.157221958 0.0270663835 -0.00151235226
v -0.168665037 0.028077649 0.00094323
v -0.131593 0.0308037288 -0.160902336
v -0.145076036 0.03159471 -0.148868859
v -0.168665037 0.028077649 0.00094323
v -0.168665037 0.028077649 0.00094323
v -0.157221958 0.0270663835 -0.00151235226
v -0.131593 0.0308037288 -0.160902336
v -0.212690264 0.03534888 -0.207850188
v -0.21503377 0.0334120169 -0.186897084
v -0.145076036 0.03159471 -0.148868859
v -0.145076036 0.03159471 -0.148868859
v -0.131593 0.0308037288 -0.160902336
v -0.212690264 0.03534888 -0.207850188
v -0.303594083 0.0334203169 -0.181553081
v -0.290652275 0.0337450281 -0.163743049
v -0.21503377 0.0334120169 -0.186897084
v -0.21503377 0.0334120169 -0.186897084
v -0.212690264 0.03534888 -0.207850188
v -0.303594083 0.0334203169 -0.181553081
v -0.290652275 0.0337450281 -0.163743049
v -0.303594083 0.0334203169 -0.181553081
v -0.327622354 0.0303078871 -0.030413134
v -0.389992565 0.0181847978 0.196321964
v -0.379317641 0.0191900637 0.189453691
v -0.371299624 0.0211459156 0.119737856
v -0.371299624 0.0211459156 0.119737856
v -0.383809 0.0203648712 0.118321136
v -0.389992565 0.0181847978 0.196321964
v -0.1834188 0.0169009939 0.2547163
v -0.179215252 0.0156588927 0.2671528
v -0.157613009 0.0179966372 0.16926983
v -0.327622354 0.0303078871 -0.030413134
v -0.383809 0.0203648712 0.118321136
v -0.371299624 0.0211459156 0.119737856
v -0.371299624 0.0211459156 0.119737856
v -0.354886055 0.0476004258 0.125764728
v -0.2650928 0.0860716552 0.1496089
v -0.3019692 0.234744877 -0.0889592841
v -0.214789838 0.246027514 -0.192993239
v -0.215065256 0.248225033 -0.1671693
v -0.215065256 0.248225033 -0.1671693
v -0.282065183 0.239770621 -0.0877021849
v -0.3019692 0.234744877 -0.0889592841
v -0.214789838 0.246027514 -0.192993239
v -0.13949196 0.235417172 -0.12906912
v -0.151570231 0.242404848 -0.11708881
v -0.151570231 0.242404848 -0.11708881
v -0.215065256 0.248225033 -0.1671693
v -0.214789838 0.246027514 -0.192993239
v -0.13949196 0.235417172 -0.12906912
v -0.148662284 0.218636692 -0.0383388251
v -0.159134015 0.226421118 -0.05008127
v -0.159134015 0.226421118 -0.05008127
v -0.151570231 0.242404848 -0.11708881
v -0.13949196 0.235417172 -0.12906912
v -0.231858954 0.211371839 0.0194243528
v -0.3019692 0.234744877 -0.0889592841
v -0.282065183 0.239770621 -0.0877021849
v -0.282065183 0.239770621 -0.0877021849
v -0.22669588 0.220996261 -0.00291054
v -0.231858954 0.211371839 0.0194243528
v -0.148662284 0.218636692 -0.0383388251
v -0.231858954 0.211371839 0.0194243528
v -0.22669588 0.220996261 -0.00291054
v -0.22669588 0.220996261 -0.00291054
v -0.159134015 0.226421118 -0.05008127
v -0.148662284 0.218636692 -0.0383388251
v -0.309820652 0.175258413 -0.09572874
v -0.217891648 0.17937015 -0.19979617
v -0.214789838 0.246027514 -0.192993239
v -0.214789838 0.246027514 -0.192993239
v -0.3019692 0.234744877 -0.0889592841
v -0.309820652 0.175258413 -0.09572874
v -0.217891648 0.17937015 -0.19979617
v -0.1376386 0.16978246 -0.139950156
v -0.13949196 0.235417172 -0.12906912
v -0.13949196 0.235417172 -0.12906912
v -0.214789838 0.246027514 -0.192993239
v -0.217891648 0.17937015 -0.19979617
v -0.1376386 0.16978246 -0.139950156
v -0.14457348 0.156950057 -0.0491375625
v -0.148662284 0.218636692 -0.0383388251
v -0.148662284 0.218636692 -0.0383388251
v -0.13949196 0.235417172 -0.12906912
v -0.1376386 0.16978246 -0.139950156
v -0.237555265 0.155615687 0.0215018243
v -0.309820652 0.175258413 -0.09572874
v -0.3019692 0.234744877 -0.0889592841
v -0.3019692 0.234744877 -0.0889592841
v -0.231858954 0.211371839 0.0194243528
v -0.237555265 0.155615687 0.0215018243
v -0.14457348 0.156950057 -0.0491375625
v -0.237555265 0.155615687 0.0215018243
v -0.231858954 0.211371839 0.0194243528
v -0.231858954 0.211371839 0.0194243528
v -0.148662284 0.218636692 -0.0383388251
v -0.14457348 0.156950057 -0.0491375625
v -0.3041379 -0.01125076 -0.182684049
v -0.213262886 -0.01168971 -0.209041134
v -0.132136762 -0.0138674667 -0.162033334
v -0.157765538 -0.0175908711 -0.00264299964
v -0.3329173 -0.0147137428 -0.0320646837
v -0.17969963 -0.0241290331 0.2661454
v -0.384274423 -0.0178714413 0.117353052
v 0.213877752 0.113642983 -0.114992917
v 0.217628762 0.0314046629 -0.113499209
v 0.146149307 0.030289812 -0.078385435
v 0.145478979 0.102624074 -0.0621852949
v 0.295016 0.105418451 -0.06538873
v 0.217798516 0.245329 -0.09914956
v 0.2810985 0.240094572 -0.01643801
v 0.152077839 0.242034391 -0.0517841056
v 0.156513184 0.2290041 0.0161367264
v 0.17878364 0.09268861 0.06976948
v 0.344421655 0.05010436 0.204449356
v 0.36100778 0.02353227 0.199510336
v 0.349156082 0.06279882 0.199208915
v 0.252482176 0.108936645 0.21621719
v 0.253808737 0.08909238 0.2239595
v 0.167754546 0.07747556 0.233315155
v 0.234509274 0.145272851 0.09112933
v 0.163493708 0.0290121175 0.072313
v 0.300679326 0.0758390948 0.0488327853
v 0.145443112 0.0215141587 0.240168825
v 0.167678759 0.0216738656 0.326619923
v 0.17814517 0.0687447041 0.314094454
v 0.173489019 0.0596258268 0.2363175
v 0.22184737 0.225360632 0.06650819
v 0.234509274 0.145272851 0.09112933
v 0.323620051 0.0304844789 0.0475537851
v 0.292222053 0.0319567621 -0.0872329846
v 0.22184737 0.225360632 0.06650819
v 0.3503327 0.0487957336 0.253572136
v 0.2662194 0.06675724 0.3105746
v 0.274581432 0.0215328541 0.3318318
v 0.36612162 0.0226237718 0.269520581
v 0.173489019 0.0596258268 0.2363175
v 0.253808737 0.08909238 0.2239595
v 0.252482176 0.108936645 0.21621719
v 0.145443112 0.0215141587 0.240168825
v 0.376910716 -0.0162626784 0.276474267
v 0.376499951 0.0217043534 0.276840627
v 0.276250243 0.0205374938 0.344560951
v 0.2766671 -0.0180003718 0.3441891
v 0.2766671 -0.0180003718 0.3441891
v 0.276250243 0.0205374938 0.344560951
v 0.162959874 0.02062864 0.338888526
v 0.1633904 -0.0191708039 0.3385045
v 0.143433139 -0.0184667371 0.243164822
v 0.145443112 0.0215141587 0.240168825
v 0.152159974 0.027983766 0.06939998
v 0.152159974 0.027983766 0.06939998
v 0.1526431 -0.0166864153 0.06896897
v 0.143433139 -0.0184667371 0.243164822
v 0.1526431 -0.0166864153 0.06896897
v 0.152159974 0.027983766 0.06939998
v 0.133175313 0.02933952 -0.09095503
v 0.1336586 -0.0153446086 -0.0913861841
v 0.1336586 -0.0153446086 -0.0913861841
v 0.133175313 0.02933952 -0.09095503
v 0.216161281 0.033026468 -0.134558469
v 0.216670245 -0.01402574 -0.135012478
v 0.216670245 -0.01402574 -0.135012478
v 0.216161281 0.033026468 -0.134558469
v 0.3058909 0.0313381553 -0.104483321
v 0.306374222 -0.0133458544 -0.104914449
v 0.306374222 -0.0133458544 -0.104914449
v 0.3058909 0.0313381553 -0.104483321
v 0.323620051 0.0304844789 0.0475537851
v 0.323620051 0.0304844789 0.0475537851
v 0.328871161 -0.0145663433 0.0468051732
v 0.306374222 -0.0133458544 -0.104914449
v 0.373976916 -0.01553969 0.1982572
v 0.37356323 0.0227076933 0.198626235
v 0.376499951 0.0217043534 0.276840627
v 0.376910716 -0.0162626784 0.276474267
v 0.1633904 -0.0191708039 0.3385045
v 0.162959874 0.02062864 0.338888526
v 0.145443112 0.0215141587 0.240168825
v 0.145443112 0.0215141587 0.240168825
v 0.143433139 -0.0184667371 0.243164822
v 0.1633904 -0.0191708039 0.3385045
v 0.328871161 -0.0145663433 0.0468051732
v 0.323620051 0.0304844789 0.0475537851
v 0.37356323 0.0227076933 0.198626235
v 0.37356323 0.0227076933 0.198626235
v 0.373976916 -0.01553969 0.1982572
v 0.328871161 -0.0145663433 0.0468051732
v 0.376910716 -0.0162626784 0.276474267
v 0.2766671 -0.0180003718 0.3441891
v 0.143433139 -0.0184667371 0.243164822
v 0.276250243 0.0205374938 0.344560951
v 0.376499951 0.0217043534 0.276840627
v 0.36612162 0.0226237718 0.269520581
v 0.274581432 0.0215328541 0.3318318
v 0.162959874 0.02062864 0.338888526
v 0.276250243 0.0205374938 0.344560951
v 0.274581432 0.0215328541 0.3318318
v 0.274581432 0.0215328541 0.3318318
v 0.167678759 0.0216738656 0.326619923
v 0.162959874 0.02062864 0.338888526
v 0.163493708 0.0290121175 0.072313
v 0.152159974 0.027983766 0.06939998
v 0.145443112 0.0215141587 0.240168825
v 0.133175313 0.02933952 -0.09095503
v 0.152159974 0.027983766 0.06939998
v 0.163493708 0.0290121175 0.072313
v 0.163493708 0.0290121175 0.072313
v 0.146149307 0.030289812 -0.078385435
v 0.133175313 0.02933952 -0.09095503
v 0.216161281 0.033026468 -0.134558469
v 0.133175313 0.02933952 -0.09095503
v 0.146149307 0.030289812 -0.078385435
v 0.146149307 0.030289812 -0.078385435
v 0.217628762 0.0314046629 -0.113499209
v 0.216161281 0.033026468 -0.134558469
v 0.3058909 0.0313381553 -0.104483321
v 0.216161281 0.033026468 -0.134558469
v 0.217628762 0.0314046629 -0.113499209
v 0.217628762 0.0314046629 -0.113499209
v 0.292222053 0.0319567621 -0.0872329846
v 0.3058909 0.0313381553 -0.104483321
v 0.292222053 0.0319567621 -0.0872329846
v 0.323620051 0.0304844789 0.0475537851
v 0.3058909 0.0313381553 -0.104483321
v 0.376499951 0.0217043534 0.276840627
v 0.37356323 0.0227076933 0.198626235
v 0.36100778 0.02353227 0.199510336
v 0.36100778 0.02353227 0.199510336
v 0.36612162 0.0226237718 0.269520581
v 0.376499951 0.0217043534 0.276840627
v 0.167678759 0.0216738656 0.326619923
v 0.145443112 0.0215141587 0.240168825
v 0.162959874 0.02062864 0.338888526
v 0.323620051 0.0304844789 0.0475537851
v 0.36100778 0.02353227 0.199510336
v 0.37356323 0.0227076933 0.198626235
v 0.36100778 0.02353227 0.199510336
v 0.344421655 0.05010436 0.204449356
v 0.253808737 0.08909238 0.2239595
v 0.3010049 0.2349247 -0.0165706947
v 0.2810985 0.240094572 -0.01643801
v 0.217798516 0.245329 -0.09914956
v 0.217798516 0.245329 -0.09914956
v 0.21867013 0.2419892 -0.124837421
v 0.3010049 0.2349247 -0.0165706947
v 0.21867013 0.2419892 -0.124837421
v 0.217798516 0.245329 -0.09914956
v 0.152077839 0.242034391 -0.0517841056
v 0.152077839 0.242034391 -0.0517841056
v 0.140504152 0.234578788 -0.0639785156
v 0.21867013 0.2419892 -0.124837421
v 0.140504152 0.234578788 -0.0639785156
v 0.152077839 0.242034391 -0.0517841056
v 0.156513184 0.2290041 0.0161367264
v 0.156513184 0.2290041 0.0161367264
v 0.145472109 0.221797526 0.0277254879
v 0.140504152 0.234578788 -0.0639785156
v 0.2259362 0.216712549 0.08945652
v 0.22184737 0.225360632 0.06650819
v 0.2810985 0.240094572 -0.01643801
v 0.2810985 0.240094572 -0.01643801
v 0.3010049 0.2349247 -0.0165706947
v 0.2259362 0.216712549 0.08945652
v 0.145472109 0.221797526 0.0277254879
v 0.156513184 0.2290041 0.0161367264
v 0.22184737 0.225360632 0.06650819
v 0.22184737 0.225360632 0.06650819
v 0.2259362 0.216712549 0.08945652
v 0.145472109 0.221797526 0.0277254879
v 0.308814466 0.174770862 -0.0204001144
v 0.3010049 0.2349247 -0.0165706947
v 0.21867013 0.2419892 -0.124837421
v 0.21867013 0.2419892 -0.124837421
v 0.221506268 0.176112682 -0.128562391
v 0.308814466 0.174770862 -0.0204001144
v 0.221506268 0.176112682 -0.128562391
v 0.21867013 0.2419892 -0.124837421
v 0.140504152 0.234578788 -0.0639785156
v 0.140504152 0.234578788 -0.0639785156
v 0.138694361 0.168592066 -0.07199046
v 0.221506268 0.176112682 -0.128562391
v 0.138694361 0.168592066 -0.07199046
v 0.140504152 0.234578788 -0.0639785156
v 0.145472109 0.221797526 0.0277254879
v 0.145472109 0.221797526 0.0277254879
v 0.141627789 0.1584365 0.0194524266
v 0.138694361 0.168592066 -0.07199046
v 0.23144953 0.158873335 0.09417048
v 0.2259362 0.216712549 0.08945652
v 0.3010049 0.2349247 -0.0165706947
v 0.3010049 0.2349247 -0.0165706947
v 0.308814466 0.174770862 -0.0204001144
v 0.23144953 0.158873335 0.09417048
v 0.141627789 0.1584365 0.0194524266
v 0.145472109 0.221797526 0.0277254879
v 0.2259362 0.216712549 0.08945652
v 0.2259362 0.216712549 0.08945652
v 0.23144953 0.158873335 0.09417048
v 0.141627789 0.1584365 0.0194524266
v 0.306374222 -0.0133458544 -0.104914449
v 0.328871161 -0.0145663433 0.0468051732
v 0.1526431 -0.0166864153 0.06896897
v 0.1336586 -0.0153446086 -0.0913861841
v 0.216670245 -0.01402574 -0.135012478
v 0.1633904 -0.0191708039 0.3385045
v 0.373976916 -0.01553969 0.1982572
vt 0.5149965 0.730825841
vt 0.399521053 0.7291832
vt 0.398150235 0.622785449
vt 0.5149977 0.6227834
vt 0.6294688 0.717928052
vt 0.62980473 0.9082296
vt 0.5133953 0.907866
vt 0.400788844 0.9078024
vt 0.34672156 0.9076369
vt 0.236534342 0.7254735
vt 0.9602164 0.7271705
vt 0.940398932 0.7286431
vt 0.946548045 0.6227668
vt 0.946775854 0.8290048
vt 0.9328369 0.839485943
vt 0.214296311 0.8371502
vt 0.0623017177 0.8370415
vt 0.0555230528 0.7290029
vt 0.238225132 0.622799
vt 0.7578732 0.7045019
vt 0.5270513 0.2044962
vt 0.605258465 0.25591433
vt 0.6183692 0.137433767
vt 0.5476747 0.0438512564
vt 0.7738712 0.844269
vt 0.7368846 0.9555956
vt 0.7630775 0.6227837
vt 0.6292559 0.622774
vt 0.25108695 0.9541567
vt 0.8672907 0.1914227
vt 0.9310952 0.108113706
vt 0.7751941 0.0197147131
vt 0.741805553 0.13529402
vt 0.03819895 0.8291352
vt 0.0298383012 0.7287714
vt 0.0497538969 0.6227774
vt 0.119289488 0.12271142
vt 0.239863664 0.07876611
vt 0.236676514 0.0361974239
vt 0.110206276 0.08343166
vt 0.239863664 0.07876611
vt 0.362613857 0.09728068
vt 0.356023431 0.06385136
vt 0.236676514 0.0361974239
vt 0.3620617 0.20229739
vt 0.334877521 0.362311
vt 0.3843366 0.362692952
vt 0.3843366 0.362692952
vt 0.4290693 0.2028997
vt 0.3620617 0.20229739
vt 0.334877521 0.362311
vt 0.337125868 0.5235769
vt 0.389971733 0.524023652
vt 0.3843366 0.362692952
vt 0.337125868 0.5235769
vt 0.251068383 0.5228477
vt 0.249918848 0.5595669
vt 0.336196184 0.5607334
vt 0.251068383 0.5228477
vt 0.163562685 0.5220374
vt 0.164091945 0.5583031
vt 0.249918848 0.5595669
vt 0.163562685 0.5220374
vt 0.156986862 0.3608622
vt 0.07169193 0.359794617
vt 0.07169193 0.359794617
vt 0.08054134 0.521257758
vt 0.163562685 0.5220374
vt 0.127812356 0.202014983
vt 0.119289488 0.12271142
vt 0.0524460636 0.131796539
vt 0.06679398 0.201361775
vt 0.362613857 0.09728068
vt 0.3620617 0.20229739
vt 0.4290693 0.2028997
vt 0.4290693 0.2028997
vt 0.45427686 0.115658581
vt 0.362613857 0.09728068
vt 0.156986862 0.3608622
vt 0.127812356 0.202014983
vt 0.06679398 0.201361775
vt 0.06679398 0.201361775
vt 0.07169193 0.359794617
vt 0.156986862 0.3608622
vt 0.119289488 0.12271142
vt 0.3620617 0.20229739
vt 0.239863664 0.07876611
vt 0.236676514 0.0361974239
vt 0.233002037 0.0186501145
vt 0.116815984 0.0525161624
vt 0.110206276 0.08343166
vt 0.356023431 0.06385136
vt 0.354047716 0.03707975
vt 0.233002037 0.0186501145
vt 0.233002037 0.0186501145
vt 0.236676514 0.0361974239
vt 0.356023431 0.06385136
vt 0.4393787 0.202978134
vt 0.3843366 0.362692952
vt 0.404427946 0.362850428
vt 0.389971733 0.524023652
vt 0.410514683 0.524182856
vt 0.404427946 0.362850428
vt 0.404427946 0.362850428
vt 0.3843366 0.362692952
vt 0.389971733 0.524023652
vt 0.249918848 0.5595669
vt 0.250564545 0.583905637
vt 0.3361346 0.584667444
vt 0.3361346 0.584667444
vt 0.336196184 0.5607334
vt 0.249918848 0.5595669
vt 0.164091945 0.5583031
vt 0.163692266 0.5831443
vt 0.250564545 0.583905637
vt 0.250564545 0.583905637
vt 0.249918848 0.5595669
vt 0.164091945 0.5583031
vt 0.0620071255 0.5210413
vt 0.08054134 0.521257758
vt 0.07169193 0.359794617
vt 0.0524460636 0.131796539
vt 0.0196746849 0.144731283
vt 0.0382906459 0.2013092
vt 0.0382906459 0.2013092
vt 0.06679398 0.201361775
vt 0.0524460636 0.131796539
vt 0.475333273 0.136027157
vt 0.45427686 0.115658581
vt 0.4393787 0.202978134
vt 0.07169193 0.359794617
vt 0.06679398 0.201361775
vt 0.0382906459 0.2013092
vt 0.9316316 0.239989877
vt 0.8594329 0.27476424
vt 0.7351053 0.2591393
vt 0.6549786 0.4137659
vt 0.5337014 0.4137659
vt 0.5336713 0.391959071
vt 0.5336713 0.391959071
vt 0.6542451 0.391959071
vt 0.6549786 0.4137659
vt 0.5337014 0.4137659
vt 0.439054281 0.4137659
vt 0.438875973 0.391959071
vt 0.438875973 0.391959071
vt 0.5336713 0.391959071
vt 0.5337014 0.4137659
vt 0.9673244 0.4137659
vt 0.8877075 0.4137659
vt 0.887142241 0.392467976
vt 0.887142241 0.392467976
vt 0.9672055 0.391959071
vt 0.9673244 0.4137659
vt 0.7857304 0.4137659
vt 0.6549786 0.4137659
vt 0.6542451 0.391959071
vt 0.6542451 0.391959071
vt 0.7859889 0.391959071
vt 0.7857304 0.4137659
vt 0.8877075 0.4137659
vt 0.7857304 0.4137659
vt 0.7859889 0.391959071
vt 0.7859889 0.391959071
vt 0.887142241 0.392467976
vt 0.8877075 0.4137659
vt 0.6549786 0.479966223
vt 0.5337014 0.479966223
vt 0.5337014 0.4137659
vt 0.5337014 0.4137659
vt 0.6549786 0.4137659
vt 0.6549786 0.479966223
vt 0.5337014 0.479966223
vt 0.439054281 0.479966223
vt 0.439054281 0.4137659
vt 0.439054281 0.4137659
vt 0.5337014 0.4137659
vt 0.5337014 0.479966223
vt 0.9673244 0.479966223
vt 0.8877075 0.479966223
vt 0.8877075 0.4137659
vt 0.8877075 0.4137659
vt 0.9673244 0.4137659
vt 0.9673244 0.479966223
vt 0.7857304 0.479966223
vt 0.6549786 0.479966223
vt 0.6549786 0.4137659
vt 0.6549786 0.4137659
vt 0.7857304 0.4137659
vt 0.7857304 0.479966223
vt 0.8877075 0.479966223
vt 0.7857304 0.479966223
vt 0.7857304 0.4137659
vt 0.7857304 0.4137659
vt 0.8877075 0.4137659
vt 0.8877075 0.479966223
vt 0.163562685 0.5220374
vt 0.251068383 0.5228477
vt 0.337125868 0.5235769
vt 0.334877521 0.362311
vt 0.156986862 0.3608622
vt 0.362613857 0.09728068
vt 0.127812356 0.202014983
vt 0.5149965 0.730825841
vt 0.5149977 0.6227834
vt 0.398150235 0.622785449
vt 0.399521053 0.7291832
vt 0.6294688 0.717928052
vt 0.5133953 0.907866
vt 0.62980473 0.9082296
vt 0.400788844 0.9078024
vt 0.34672156 0.9076369
vt 0.236534342 0.7254735
vt 0.9602164 0.7271705
vt 0.946548045 0.6227668
vt 0.940398932 0.7286431
vt 0.9328369 0.839485943
vt 0.946775854 0.8290048
vt 0.0555230528 0.7290029
vt 0.214296311 0.8371502
vt 0.238225132 0.622799
vt 0.7578732 0.7045019
vt 0.5270513 0.2044962
vt 0.5476747 0.0438512564
vt 0.6183692 0.137433767
vt 0.605258465 0.25591433
vt 0.7368846 0.9555956
vt 0.7738712 0.844269
vt 0.7630775 0.6227837
vt 0.6292559 0.622774
vt 0.25108695 0.9541567
vt 0.8672907 0.1914227
vt 0.741805553 0.13529402
vt 0.7751941 0.0197147131
vt 0.9310952 0.108113706
vt 0.0298383012 0.7287714
vt 0.03819895 0.8291352
vt 0.0623017177 0.8370415
vt 0.0497538969 0.6227774
vt 0.119289488 0.12271142
vt 0.110206276 0.08343166
vt 0.236676514 0.0361974239
vt 0.239863664 0.07876611
vt 0.239863664 0.07876611
vt 0.236676514 0.0361974239
vt 0.356023431 0.06385136
vt 0.362613857 0.09728068
vt 0.3620617 0.20229739
vt 0.4290693 0.2028997
vt 0.3843366 0.362692952
vt 0.3843366 0.362692952
vt 0.334877521 0.362311
vt 0.3620617 0.20229739
vt 0.334877521 0.362311
vt 0.3843366 0.362692952
vt 0.389971733 0.524023652
vt 0.337125868 0.5235769
vt 0.337125868 0.5235769
vt 0.336196184 0.5607334
vt 0.249918848 0.5595669
vt 0.251068383 0.5228477
vt 0.251068383 0.5228477
vt 0.249918848 0.5595669
vt 0.164091945 0.5583031
vt 0.163562685 0.5220374
vt 0.163562685 0.5220374
vt 0.08054134 0.521257758
vt 0.07169193 0.359794617
vt 0.07169193 0.359794617
vt 0.156986862 0.3608622
vt 0.163562685 0.5220374
vt 0.127812356 0.202014983
vt 0.06679398 0.201361775
vt 0.0524460636 0.131796539
vt 0.119289488 0.12271142
vt 0.362613857 0.09728068
vt 0.45427686 0.115658581
vt 0.4290693 0.2028997
vt 0.4290693 0.2028997
vt 0.3620617 0.20229739
vt 0.362613857 0.09728068
vt 0.156986862 0.3608622
vt 0.07169193 0.359794617
vt 0.06679398 0.201361775
vt 0.06679398 0.201361775
vt 0.127812356 0.202014983
vt 0.156986862 0.3608622
vt 0.119289488 0.12271142
vt 0.239863664 0.07876611
vt 0.3620617 0.20229739
vt 0.236676514 0.0361974239
vt 0.110206276 0.08343166
vt 0.116815984 0.0525161624
vt 0.233002037 0.0186501145
vt 0.356023431 0.06385136
vt 0.236676514 0.0361974239
vt 0.233002037 0.0186501145
vt 0.233002037 0.0186501145
vt 0.354047716 0.03707975
vt 0.356023431 0.06385136
vt 0.404427946 0.362850428
vt 0.3843366 0.362692952
vt 0.4393787 0.202978134
vt 0.389971733 0.524023652
vt 0.3843366 0.362692952
vt 0.404427946 0.362850428
vt 0.404427946 0.362850428
vt 0.410514683 0.524182856
vt 0.389971733 0.524023652
vt 0.249918848 0.5595669
vt 0.336196184 0.5607334
vt 0.3361346 0.584667444
vt 0.3361346 0.584667444
vt 0.250564545 0.583905637
vt 0.249918848 0.5595669
vt 0.164091945 0.5583031
vt 0.249918848 0.5595669
vt 0.250564545 0.583905637
vt 0.250564545 0.583905637
vt 0.163692266 0.5831443
vt 0.164091945 0.5583031
vt 0.0620071255 0.5210413
vt 0.07169193 0.359794617
vt 0.08054134 0.521257758
vt 0.0524460636 0.131796539
vt 0.06679398 0.201361775
vt 0.0382906459 0.2013092
vt 0.0382906459 0.2013092
vt 0.0196746849 0.144731283
vt 0.0524460636 0.131796539
vt 0.475333273 0.136027157
vt 0.4393787 0.202978134
vt 0.45427686 0.115658581
vt 0.07169193 0.359794617
vt 0.0382906459 0.2013092
vt 0.06679398 0.201361775
vt 0.9316316 0.239989877
vt 0.8594329 0.27476424
vt 0.7351053 0.2591393
vt 0.6549786 0.4137659
vt 0.6542451 0.391959071
vt 0.5336713 0.391959071
vt 0.5336713 0.391959071
vt 0.5337014 0.4137659
vt 0.6549786 0.4137659
vt 0.5337014 0.4137659
vt 0.5336713 0.391959071
vt 0.438875973 0.391959071
vt 0.438875973 0.391959071
vt 0.439054281 0.4137659
vt 0.5337014 0.4137659
vt 0.9673244 0.4137659
vt 0.9672055 0.391959071
vt 0.887142241 0.392467976
vt 0.887142241 0.392467976
vt 0.8877075 0.4137659
vt 0.9673244 0.4137659
vt 0.7857304 0.4137659
vt 0.7859889 0.391959071
vt 0.6542451 0.391959071
vt 0.6542451 0.391959071
vt 0.6549786 0.4137659
vt 0.7857304 0.4137659
vt 0.8877075 0.4137659
vt 0.887142241 0.392467976
vt 0.7859889 0.391959071
vt 0.7859889 0.391959071
vt 0.7857304 0.4137659
vt 0.8877075 0.4137659
vt 0.6549786 0.479966223
vt 0.6549786 0.4137659
vt 0.5337014 0.4137659
vt 0.5337014 0.4137659
vt 0.5337014 0.479966223
vt 0.6549786 0.479966223
vt 0.5337014 0.479966223
vt 0.5337014 0.4137659
vt 0.439054281 0.4137659
vt 0.439054281 0.4137659
vt 0.439054281 0.479966223
vt 0.5337014 0.479966223
vt 0.9673244 0.479966223
vt 0.9673244 0.4137659
vt 0.8877075 0.4137659
vt 0.8877075 0.4137659
vt 0.8877075 0.479966223
vt 0.9673244 0.479966223
vt 0.7857304 0.479966223
vt 0.7857304 0.4137659
vt 0.6549786 0.4137659
vt 0.6549786 0.4137659
vt 0.6549786 0.479966223
vt 0.7857304 0.479966223
vt 0.8877075 0.479966223
vt 0.8877075 0.4137659
vt 0.7857304 0.4137659
vt 0.7857304 0.4137659
vt 0.7857304 0.479966223
vt 0.8877075 0.479966223
vt 0.163562685 0.5220374
vt 0.156986862 0.3608622
vt 0.334877521 0.362311
vt 0.337125868 0.5235769
vt 0.251068383 0.5228477
vt 0.362613857 0.09728068
vt 0.127812356 0.202014983
vn 0.108852476 0.131548718 -0.9853152
vn 0.952916861 0.08232291 -0.291843057
vn 0.8941816 0.0318779163 -0.446568072
vn 0.09189252 -0.0054447 -0.995754063
vn -0.8385798 0.186059624 -0.512021244
vn -0.946468 0.3134769 -0.07701013
vn -0.03738148 0.2370312 -0.9707826
vn 0.9112658 0.08548506 -0.402848572
vn 0.8955552 0.0635854453 0.440383643
vn 0.9038093 0.309871227 0.295141667
vn -0.6552538 0.5358314 0.53247267
vn -0.7671664 0.5188137 0.377210915
vn -0.9092971 0.4071613 -0.08601393
vn -0.1702722 0.694461465 0.6990927
vn -0.167840481 0.774345756 0.6100969
vn -0.1428981 0.7447988 0.6518089
vn -0.167840481 0.774345756 0.6100969
vn 0.514289856 0.5519384 0.6564068
vn 0.976583362 0.191594914 0.09785865
vn -0.882014036 0.4712174 -0.00232737861
vn 0.8963571 0.418315768 0.146819159
vn 0.2725135 0.60402447 0.748926461
vn 0.410884261 0.7516517 0.5159398
vn 0.567703843 0.3150726 0.7605535
vn -0.1428981 0.7447988 0.6518089
vn -0.141986459 0.326467961 0.934483051
vn -0.910669148 0.3733188 -0.176959917
vn -0.7120073 0.104054913 -0.6944193
vn -0.141986459 0.326467961 0.934483051
vn -0.6379022 0.742099941 0.205835924
vn -0.6843808 0.6324533 0.362802535
vn -0.331775278 0.4385832 0.8352065
vn -0.239603773 0.770234 0.591041148
vn -0.1702722 0.694461465 0.6990927
vn 0.2725135 0.60402447 0.748926461
vn 0.8963571 0.418315768 0.146819159
vn -0.59370774 -0.0131430021 0.8045734
vn -0.59370774 -0.0131430021 0.8045734
vn -0.59370774 -0.0131430021 0.8045734
vn -0.593708 -0.0131420586 0.8045733
vn 0.008483566 -0.025412878 0.999641061
vn 0.008483566 -0.025412878 0.999641061
vn 0.008483566 -0.025412878 0.999641061
vn 0.008483426 -0.0254124627 0.999641061
vn 0.9998625 -0.0118775386 -0.0115742907
vn 0.9998625 -0.0118775386 -0.0115742907
vn 0.9998625 -0.0118775386 -0.0115742907
vn 0.998951137 0.045546595 0.00470621139
vn 0.998951137 0.045546595 0.00470621139
vn 0.998951137 0.045546595 0.00470621139
vn 0.9872501 -0.0160268676 0.158368051
vn 0.9872501 -0.0160268676 0.158368051
vn 0.9872501 -0.0160268676 0.158368051
vn 0.9872501 -0.0160266757 0.158368111
vn 0.501610935 0.0157928616 -0.864949167
vn 0.501610935 0.0157928616 -0.864949167
vn 0.501610935 0.0157928616 -0.864949167
vn 0.501611054 0.01579319 -0.8649491
vn -0.27832672 0.0276953913 -0.960087061
vn -0.27832672 0.0276953913 -0.960087061
vn -0.27832672 0.0276953913 -0.960087061
vn -0.278326362 0.0276961364 -0.9600872
vn -0.9754696 0.121458873 -0.183594167
vn -0.9754696 0.121458873 -0.183594167
vn -0.9754696 0.121458873 -0.183594167
vn -0.987522 0.0159880444 -0.156667292
vn -0.987522 0.0159880444 -0.156667292
vn -0.987522 0.0159880444 -0.156667292
vn -0.9968038 0.0141276726 -0.07862912
vn -0.9968038 0.0141276726 -0.07862912
vn -0.9968038 0.0141276726 -0.07862912
vn -0.996804 0.0141240973 -0.0786275044
vn 0.9674159 0.0590085648 0.2462202
vn 0.9674159 0.0590085648 0.2462202
vn 0.9674159 0.0590085648 0.2462202
vn 0.9764423 -0.0173327662 0.2150816
vn 0.9764423 -0.0173327662 0.2150816
vn 0.9764423 -0.0173327662 0.2150816
vn -0.9456408 0.0197293181 -0.324614
vn -0.9456408 0.0197293181 -0.324614
vn -0.9456408 0.0197293181 -0.324614
vn -0.9311461 0.122115269 -0.343591154
vn -0.9311461 0.122115269 -0.343591154
vn -0.9311461 0.122115269 -0.343591154
vn -0.0121687306 -0.9996056 -0.0253084525
vn -0.0121687306 -0.9996056 -0.0253084525
vn -0.0121687306 -0.9996056 -0.0253084525
vn -0.0390374437 0.9954861 0.08650726
vn -0.0390374437 0.9954861 0.08650726
vn -0.0390374437 0.9954861 0.08650726
vn -0.03848397 0.995560169 0.0859006643
vn 0.0010464245 0.9950838 0.09903093
vn 0.0010464245 0.9950838 0.09903093
vn 0.0010464245 0.9950838 0.09903093
vn 0.00162291341 0.9956093 0.0935925245
vn 0.00162291341 0.9956093 0.0935925245
vn 0.00162291341 0.9956093 0.0935925245
vn 0.09918571 0.993656635 0.0529973321
vn 0.09918571 0.993656635 0.0529973321
vn 0.09918571 0.993656635 0.0529973321
vn 0.0921742 0.995022357 0.0378731154
vn 0.0921742 0.995022357 0.0378731154
vn 0.0921742 0.995022357 0.0378731154
vn 0.0962213054 0.9946037 0.0387930833
vn 0.0962213054 0.9946037 0.0387930833
vn 0.0962213054 0.9946037 0.0387930833
vn -0.02278221 0.9957267 0.08949495
vn -0.02278221 0.9957267 0.08949495
vn -0.02278221 0.9957267 0.08949495
vn 0.0569833331 0.998373568 -0.00177713193
vn 0.0569833331 0.998373568 -0.00177713193
vn 0.0569833331 0.998373568 -0.00177713193
vn -0.0009640237 0.9998459 -0.017528601
vn -0.0009640237 0.9998459 -0.017528601
vn -0.0009640237 0.9998459 -0.017528601
vn 0.005685591 0.9956802 0.09267464
vn 0.005685591 0.9956802 0.09267464
vn 0.005685591 0.9956802 0.09267464
vn -0.04379226 0.998948 0.0136092613
vn -0.04379226 0.998948 0.0136092613
vn -0.04379226 0.998948 0.0136092613
vn -0.08191279 0.9964671 0.0185347274
vn -0.08191279 0.9964671 0.0185347274
vn -0.08191279 0.9964671 0.0185347274
vn -0.06486454 0.997634947 0.0227410831
vn -0.06486454 0.997634947 0.0227410831
vn -0.06486454 0.997634947 0.0227410831
vn 0.134584963 0.9894657 0.0533336475
vn 0.134584963 0.9894657 0.0533336475
vn 0.134584963 0.9894657 0.0533336475
vn -0.0669273958 0.9969002 0.0413608
vn -0.0669273958 0.9969002 0.0413608
vn -0.0669273958 0.9969002 0.0413608
vn -0.9092971 0.4071613 -0.08601393
vn -0.6552538 0.5358314 0.53247267
vn -0.1702722 0.694461465 0.6990927
vn 0.226969644 -0.9701872 0.08497993
vn 0.226969644 -0.9701872 0.08497993
vn 0.226969644 -0.9701872 0.08497993
vn 0.237837955 -0.9663774 0.09771303
vn 0.237837955 -0.9663774 0.09771303
vn 0.237837955 -0.9663774 0.09771303
vn -0.316318 -0.9229318 0.219407842
vn -0.316318 -0.9229318 0.219407842
vn -0.316318 -0.9229318 0.219407842
vn -0.1550154 -0.9844928 0.0821233243
vn -0.1550154 -0.9844928 0.0821233243
vn -0.1550154 -0.9844928 0.0821233243
vn -0.424469918 -0.881703258 -0.205972344
vn -0.424469918 -0.881703258 -0.205972344
vn -0.424469918 -0.881703258 -0.205972344
vn -0.6557116 -0.714355 -0.244416073
vn -0.6557116 -0.714355 -0.244416073
vn -0.6557116 -0.714355 -0.244416073
vn 0.249856919 -0.900532842 -0.35582602
vn 0.249856919 -0.900532842 -0.35582602
vn 0.249856919 -0.900532842 -0.35582602
vn 0.216511413 -0.9137762 -0.343708962
vn 0.216511413 -0.9137762 -0.343708962
vn 0.216511413 -0.9137762 -0.343708962
vn -0.221078992 -0.876028955 -0.4285993
vn -0.221078992 -0.876028955 -0.4285993
vn -0.221078992 -0.876028955 -0.4285993
vn -0.209991008 -0.8906925 -0.4032005
vn -0.209991008 -0.8906925 -0.4032005
vn -0.209991008 -0.8906925 -0.4032005
vn 0.7475636 -0.101772442 0.656346738
vn 0.7475636 -0.101772442 0.656346738
vn 0.7475636 -0.101772442 0.656346738
vn 0.764175236 -0.17161642 0.6217588
vn 0.764175236 -0.17161642 0.6217588
vn 0.764175236 -0.17161642 0.6217588
vn -0.602531 -0.147058129 0.7844299
vn -0.602531 -0.147058129 0.7844299
vn -0.602531 -0.147058129 0.7844299
vn -0.650315046 -0.0471191965 0.7582019
vn -0.650315046 -0.0471191965 0.7582019
vn -0.650315046 -0.0471191965 0.7582019
vn -0.9952019 -0.05139009 -0.0832601
vn -0.9952019 -0.05139009 -0.0832601
vn -0.9952019 -0.05139009 -0.0832601
vn -0.9946628 -0.0110805528 -0.102582239
vn -0.9946628 -0.0110805528 -0.102582239
vn -0.9946628 -0.0110805528 -0.102582239
vn 0.846268237 -0.05135205 -0.530276358
vn 0.846268237 -0.05135205 -0.530276358
vn 0.846268237 -0.05135205 -0.530276358
vn 0.824530363 -0.104954384 -0.555998445
vn 0.824530363 -0.104954384 -0.555998445
vn 0.824530363 -0.104954384 -0.555998445
vn -0.604917645 0.03215579 -0.7956385
vn -0.604917645 0.03215579 -0.7956385
vn -0.604917645 0.03215579 -0.7956385
vn -0.5733327 0.104260467 -0.8126619
vn -0.5733327 0.104260467 -0.8126619
vn -0.5733327 0.104260467 -0.8126619
vn -0.0121687381 -0.9996056 -0.0253084581
vn -0.0121687381 -0.9996056 -0.0253084581
vn -0.0121687381 -0.9996056 -0.0253084581
vn -0.0121688256 -0.999605656 -0.0253077336
vn -0.0121688675 -0.999605656 -0.0253077
vn -0.0121687446 -0.9996056 -0.025308473
vn -0.0121687334 -0.9996056 -0.0253084842
vn -0.06834362 0.109582059 -0.991625369
vn -0.0505116358 -0.02044008 -0.9985143
vn -0.8748044 0.0266529433 -0.483742654
vn -0.940501034 0.07740205 -0.3308576
vn 0.86067456 0.1729288 -0.478889257
vn 0.08093178 0.2077353 -0.974831343
vn 0.950814545 0.3071449 -0.0401714519
vn -0.8932354 0.07534921 -0.443230271
vn -0.9129221 0.0770029947 0.400803924
vn -0.914234638 0.317344 0.2519282
vn 0.6338775 0.542718649 0.5510497
vn 0.913055 0.404200584 -0.05433682
vn 0.752094746 0.5231421 0.400843859
vn 0.144235492 0.78324616 0.6047492
vn 0.142781571 0.7047216 0.6949682
vn -0.53975904 0.562772751 0.626056731
vn 0.115260072 0.7558745 0.6444912
vn -0.9793412 0.1947841 0.05431305
vn 0.88244 0.469635278 0.0272462554
vn -0.900673 0.422082245 0.103125043
vn -0.5980152 0.327614 0.731469
vn -0.43013683 0.7601418 0.4869977
vn -0.301906019 0.6158347 0.7277365
vn 0.101141661 0.345387578 0.932994
vn 0.115260072 0.7558745 0.6444912
vn 0.918118 0.36897558 -0.144624785
vn 0.740453064 0.092216365 -0.665751755
vn 0.101141661 0.345387578 0.932994
vn 0.630587459 0.7440211 0.220889211
vn 0.216717675 0.778718352 0.5887539
vn 0.29788512 0.4506608 0.841527939
vn 0.6702507 0.6366947 0.381292284
vn -0.301906019 0.6158347 0.7277365
vn 0.142781571 0.7047216 0.6949682
vn 0.144235492 0.78324616 0.6047492
vn -0.900673 0.422082245 0.103125043
vn 0.559781253 -0.00193960522 0.828638136
vn 0.559781253 -0.00193960522 0.828638136
vn 0.559781253 -0.00193960522 0.828638136
vn 0.559781 -0.00194047741 0.8286383
vn -0.0500127226 -0.0101771727 0.998696744
vn -0.0500127226 -0.0101771727 0.998696744
vn -0.0500127226 -0.0101771727 0.998696744
vn -0.05001288 -0.0101776291 0.998696744
vn -0.9981743 0.0473739728 -0.0374664851
vn -0.9981743 0.0473739728 -0.0374664851
vn -0.9981743 0.0473739728 -0.0374664851
vn -0.998546839 -0.0102892527 -0.0528996252
vn -0.998546839 -0.0102892527 -0.0528996252
vn -0.998546839 -0.0102892527 -0.0528996252
vn -0.9930063 -0.0118731344 0.11746306
vn -0.9930063 -0.0118731344 0.11746306
vn -0.9930063 -0.0118731344 0.11746306
vn -0.9930063 -0.0118734427 0.11746297
vn -0.465252638 0.00350899971 -0.885171
vn -0.465252638 0.00350899971 -0.885171
vn -0.465252638 0.00350899971 -0.885171
vn -0.46525237 0.00350841251 -0.8851711
vn 0.317986876 0.0125870667 -0.9480116
vn 0.317986876 0.0125870667 -0.9480116
vn 0.317986876 0.0125870667 -0.9480116
vn 0.317987233 0.0125863412 -0.948011458
vn 0.993207335 0.0118600568 -0.115752071
vn 0.993207335 0.0118600568 -0.115752071
vn 0.993207335 0.0118600568 -0.115752071
vn 0.982535064 0.116929285 -0.144749373
vn 0.982535064 0.116929285 -0.144749373
vn 0.982535064 0.116929285 -0.144749373
vn 0.9992389 0.0111684557 -0.03737522
vn 0.9992389 0.0111684557 -0.03737522
vn 0.9992389 0.0111684557 -0.03737522
vn 0.9992388 0.01117143 -0.0373766236
vn -0.984564 -0.01233502 0.174589768
vn -0.984564 -0.01233502 0.174589768
vn -0.984564 -0.01233502 0.174589768
vn -0.976654768 0.06445531 0.204917148
vn -0.976654768 0.06445531 0.204917148
vn -0.976654768 0.06445531 0.204917148
vn 0.944889843 0.1152282 -0.306440353
vn 0.944889843 0.1152282 -0.306440353
vn 0.944889843 0.1152282 -0.306440353
vn 0.958339453 0.0131185595 -0.285330325
vn 0.958339453 0.0131185595 -0.285330325
vn 0.958339453 0.0131185595 -0.285330325
vn 0.0108155934 -0.999895 -0.009648055
vn 0.0108155934 -0.999895 -0.009648055
vn 0.0108155934 -0.999895 -0.009648055
vn 0.03726963 0.996683061 0.07234547
vn 0.03726963 0.996683061 0.07234547
vn 0.03726963 0.996683061 0.07234547
vn 0.0377973132 0.996617258 0.07297561
vn -0.00312159769 0.99691993 0.07836382
vn -0.00312159769 0.99691993 0.07836382
vn -0.00312159769 0.99691993 0.07836382
vn -0.00277252542 0.996476352 0.08382853
vn -0.00277252542 0.996476352 0.08382853
vn -0.00277252542 0.996476352 0.08382853
vn -0.09892056 0.994521558 0.0337867737
vn -0.09892056 0.994521558 0.0337867737
vn -0.09892056 0.994521558 0.0337867737
vn -0.09536711 0.9952471 0.0197051689
vn -0.09536711 0.9952471 0.0197051689
vn -0.09536711 0.9952471 0.0197051689
vn -0.09128402 0.9956446 0.0189477485
vn -0.09128402 0.9956446 0.0189477485
vn -0.09128402 0.9956446 0.0189477485
vn -0.0544705577 0.998329759 -0.01925312
vn -0.0544705577 0.998329759 -0.01925312
vn -0.0544705577 0.998329759 -0.01925312
vn 0.02143266 0.99693197 0.0752817243
vn 0.02143266 0.99693197 0.0752817243
vn 0.02143266 0.99693197 0.0752817243
vn -0.007142512 0.996984065 0.07727695
vn -0.007142512 0.996984065 0.07727695
vn -0.007142512 0.996984065 0.07727695
vn 0.00408371957 0.99946 -0.03260534
vn 0.00408371957 0.99946 -0.03260534
vn 0.00408371957 0.99946 -0.03260534
vn 0.0455805957 0.9989606 0.000293896854
vn 0.0455805957 0.9989606 0.000293896854
vn 0.0455805957 0.9989606 0.000293896854
vn 0.0662530661 0.997749567 0.0103115952
vn 0.0662530661 0.997749567 0.0103115952
vn 0.0662530661 0.997749567 0.0103115952
vn 0.0834582448 0.996487856 0.00683492562
vn 0.0834582448 0.996487856 0.00683492562
vn 0.0834582448 0.996487856 0.00683492562
vn -0.134312809 0.990398765 0.03271628
vn -0.134312809 0.990398765 0.03271628
vn -0.134312809 0.990398765 0.03271628
vn 0.06753985 0.9972947 0.029009873
vn 0.06753985 0.9972947 0.029009873
vn 0.06753985 0.9972947 0.029009873
vn 0.913055 0.404200584 -0.05433682
vn 0.6338775 0.542718649 0.5510497
vn 0.142781571 0.7047216 0.6949682
vn -0.248449147 -0.959964335 0.1293891
vn -0.248449147 -0.959964335 0.1293891
vn -0.248449147 -0.959964335 0.1293891
vn -0.237044975 -0.9643862 0.117341146
vn -0.237044975 -0.9643862 0.117341146
vn -0.237044975 -0.9643862 0.117341146
vn 0.144577622 -0.9805958 0.132397458
vn 0.144577622 -0.9805958 0.132397458
vn 0.144577622 -0.9805958 0.132397458
vn 0.299950361 -0.913761854 0.2739873
vn 0.299950361 -0.913761854 0.2739873
vn 0.299950361 -0.913761854 0.2739873
vn 0.6612484 -0.7275639 -0.182760343
vn 0.6612484 -0.7275639 -0.182760343
vn 0.6612484 -0.7275639 -0.182760343
vn 0.427398622 -0.8919546 -0.147470161
vn 0.427398622 -0.8919546 -0.147470161
vn 0.427398622 -0.8919546 -0.147470161
vn -0.206939176 -0.9271008 -0.312506557
vn -0.206939176 -0.9271008 -0.312506557
vn -0.206939176 -0.9271008 -0.312506557
vn -0.239617139 -0.9142516 -0.326691926
vn -0.239617139 -0.9142516 -0.326691926
vn -0.239617139 -0.9142516 -0.326691926
vn 0.221951574 -0.9086796 -0.35360837
vn 0.221951574 -0.9086796 -0.35360837
vn 0.221951574 -0.9086796 -0.35360837
vn 0.234268069 -0.89521 -0.3791009
vn 0.234268069 -0.89521 -0.3791009
vn 0.234268069 -0.89521 -0.3791009
vn -0.7924647 -0.140664056 0.59347564
vn -0.7924647 -0.140664056 0.59347564
vn -0.7924647 -0.140664056 0.59347564
vn -0.776701 -0.06884124 0.6260962
vn -0.776701 -0.06884124 0.6260962
vn -0.776701 -0.06884124 0.6260962
vn 0.615303457 -0.0180717 0.788083136
vn 0.615303457 -0.0180717 0.788083136
vn 0.615303457 -0.0180717 0.788083136
vn 0.567439139 -0.114567511 0.8154061
vn 0.567439139 -0.114567511 0.8154061
vn 0.567439139 -0.114567511 0.8154061
vn 0.9981686 -0.02046444 -0.0569268577
vn 0.9981686 -0.02046444 -0.0569268577
vn 0.9981686 -0.02046444 -0.0569268577
vn 0.9977258 -0.0555506721 -0.03817579
vn 0.9977258 -0.0555506721 -0.03817579
vn 0.9977258 -0.0555506721 -0.03817579
vn -0.7996601 -0.124105744 -0.587487459
vn -0.7996601 -0.124105744 -0.587487459
vn -0.7996601 -0.124105744 -0.587487459
vn -0.8220896 -0.0707647055 -0.5649434
vn -0.8220896 -0.0707647055 -0.5649434
vn -0.8220896 -0.0707647055 -0.5649434
vn 0.609986663 0.06609492 -0.7896504
vn 0.609986663 0.06609492 -0.7896504
vn 0.609986663 0.06609492 -0.7896504
vn 0.6395143 -0.00169668975 -0.7687773
vn 0.6395143 -0.00169668975 -0.7687773
vn 0.6395143 -0.00169668975 -0.7687773
vn 0.0108156959 -0.999895 -0.009647274
vn 0.0108156959 -0.999895 -0.009647274
vn 0.0108156959 -0.999895 -0.009647274
vn 0.0108156577 -0.999895 -0.009647309
vn 0.0108155981 -0.999895 -0.009648061
vn 0.0108155943 -0.999895 -0.009648056
vn 0.0108155943 -0.999895 -0.009648064
usemtl 6000990604_part_0_material_0
f 1/1/1 2/2/2 3/3/3
f 3/3/3 4/4/4 1/1/1
f 5/5/5 6/6/6 7/7/7
f 7/7/7 1/1/1 5/5/5
f 7/7/7 8/8/8 2/2/2
f 2/2/2 1/1/1 7/7/7
f 9/9/9 10/10/10 2/2/2
f 2/2/2 8/8/8 9/9/9
f 11/11/11 12/12/12 13/13/13
f 12/12/12 11/11/11 14/14/14
f 14/14/14 15/15/15 12/12/12
f 16/16/16 17/17/17 18/18/18
f 19/19/19 3/3/3 2/2/2
f 2/2/2 10/10/10 19/19/19
f 20/20/20 6/6/6 5/5/5
f 21/21/21 22/22/22 23/23/23
f 23/23/23 24/24/24 21/21/21
f 20/20/20 25/25/25 26/26/26
f 26/26/26 6/6/6 20/20/20
f 27/27/27 20/20/20 5/5/5
f 5/5/5 28/28/28 27/27/27
f 29/29/29 16/16/16 10/10/10
f 10/10/10 9/9/9 29/29/29
f 1/1/1 4/4/4 28/28/28
f 28/28/28 5/5/5 1/1/1
f 30/30/30 31/31/31 32/32/32
f 32/32/32 33/33/33 30/30/30
f 32/32/32 24/24/24 23/23/23
f 23/23/23 33/33/33 32/32/32
f 27/27/27 13/13/13 12/12/12
f 12/12/12 20/20/20 27/27/27
f 25/25/25 12/12/12 15/15/15
f 18/18/18 17/17/17 34/34/34
f 34/34/34 35/35/35 18/18/18
f 10/10/10 18/18/18 36/36/36
f 36/36/36 19/19/19 10/10/10
f 37/37/37 38/38/38 39/39/39
f 39/39/39 40/40/40 37/37/37
f 41/41/41 42/42/42 43/43/43
f 43/43/43 44/44/44 41/41/41
f 45/45/45 46/46/46 47/47/47
f 48/48/48 49/49/49 50/50/50
f 51/51/51 52/52/52 53/53/53
f 53/53/53 54/54/54 51/51/51
f 55/55/55 56/56/56 57/57/57
f 57/57/57 58/58/58 55/55/55
f 59/59/59 60/60/60 61/61/61
f 61/61/61 62/62/62 59/59/59
f 63/63/63 64/64/64 65/65/65
f 66/66/66 67/67/67 68/68/68
f 69/69/69 70/70/70 71/71/71
f 71/71/71 72/72/72 69/69/69
f 73/73/73 74/74/74 75/75/75
f 76/76/76 77/77/77 78/78/78
f 79/79/79 80/80/80 81/81/81
f 82/82/82 83/83/83 84/84/84
f 85/85/85 86/86/86 87/87/87
f 88/88/88 89/89/89 90/90/90
f 90/90/90 91/91/91 88/88/88
f 92/92/92 93/93/93 94/94/94
f 95/95/95 96/96/96 97/97/97
f 98/98/98 99/99/99 100/100/100
f 101/101/101 102/102/102 103/103/103
f 104/104/104 105/105/105 106/106/106
f 107/107/107 108/108/108 109/109/109
f 110/110/110 111/111/111 112/112/112
f 113/113/113 114/114/114 115/115/115
f 116/116/116 117/117/117 118/118/118
f 119/119/119 120/120/120 121/121/121
f 122/122/122 123/123/123 124/124/124
f 125/125/125 126/126/126 127/127/127
f 128/128/128 129/129/129 130/130/130
f 131/131/131 132/132/132 133/133/133
f 134/134/134 31/31/31 30/30/30
f 30/30/30 135/135/135 134/134/134
f 136/136/136 135/135/135 30/30/30
f 30/30/30 33/33/33 136/136/136
f 36/36/36 18/18/18 35/35/35
f 22/22/22 136/136/136 33/33/33
f 33/33/33 23/23/23 22/22/22
f 137/137/137 138/138/138 139/139/139
f 140/140/140 141/141/141 142/142/142
f 143/143/143 144/144/144 145/145/145
f 146/146/146 147/147/147 148/148/148
f 149/149/149 150/150/150 151/151/151
f 152/152/152 153/153/153 154/154/154
f 155/155/155 156/156/156 157/157/157
f 158/158/158 159/159/159 160/160/160
f 161/161/161 162/162/162 163/163/163
f 164/164/164 165/165/165 166/166/166
f 167/167/167 168/168/168 169/169/169
f 170/170/170 171/171/171 172/172/172
f 173/173/173 174/174/174 175/175/175
f 176/176/176 177/177/177 178/178/178
f 179/179/179 180/180/180 181/181/181
f 182/182/182 183/183/183 184/184/184
f 185/185/185 186/186/186 187/187/187
f 188/188/188 189/189/189 190/190/190
f 191/191/191 192/192/192 193/193/193
f 194/194/194 195/195/195 196/196/196
f 197/197/197 198/198/198 199/199/199
f 197/197/197 199/199/199 200/200/200
f 197/197/197 200/200/200 201/201/201
f 86/86/86 202/202/202 87/87/87
f 85/85/85 203/203/203 86/86/86
f 200/200/200 86/86/86 203/203/203
f 203/203/203 201/201/201 200/200/200
f 204/204/204 205/205/205 206/206/206
f 206/206/206 207/207/207 204/204/204
f 208/208/208 204/204/204 209/209/209
f 209/209/209 210/210/210 208/208/208
f 209/209/209 204/204/204 207/207/207
f 207/207/207 211/211/211 209/209/209
f 212/212/212 211/211/211 207/207/207
f 207/207/207 213/213/213 212/212/212
f 214/214/214 215/215/215 216/216/216
f 216/216/216 217/217/217 218/218/218
f 218/218/218 214/214/214 216/216/216
f 213/213/213 219/219/219 220/220/220
f 221/221/221 213/213/213 207/207/207
f 207/207/207 206/206/206 221/221/221
f 222/222/222 208/208/208 210/210/210
f 223/223/223 224/224/224 225/225/225
f 225/225/225 226/226/226 223/223/223
f 227/227/227 228/228/228 222/222/222
f 222/222/222 210/210/210 227/227/227
f 229/229/229 230/230/230 208/208/208
f 208/208/208 222/222/222 229/229/229
f 231/231/231 212/212/212 213/213/213
f 213/213/213 220/220/220 231/231/231
f 204/204/204 208/208/208 230/230/230
f 230/230/230 205/205/205 204/204/204
f 232/232/232 233/233/233 234/234/234
f 234/234/234 235/235/235 232/232/232
f 234/234/234 233/233/233 225/225/225
f 225/225/225 224/224/224 234/234/234
f 229/229/229 222/222/222 216/216/216
f 216/216/216 215/215/215 229/229/229
f 228/228/228 217/217/217 216/216/216
f 219/219/219 236/236/236 237/237/237
f 237/237/237 238/238/238 219/219/219
f 213/213/213 221/221/221 239/239/239
f 239/239/239 219/219/219 213/213/213
f 240/240/240 241/241/241 242/242/242
f 242/242/242 243/243/243 240/240/240
f 244/244/244 245/245/245 246/246/246
f 246/246/246 247/247/247 244/244/244
f 248/248/248 249/249/249 250/250/250
f 251/251/251 252/252/252 253/253/253
f 254/254/254 255/255/255 256/256/256
f 256/256/256 257/257/257 254/254/254
f 258/258/258 259/259/259 260/260/260
f 260/260/260 261/261/261 258/258/258
f 262/262/262 263/263/263 264/264/264
f 264/264/264 265/265/265 262/262/262
f 266/266/266 267/267/267 268/268/268
f 269/269/269 270/270/270 271/271/271
f 272/272/272 273/273/273 274/274/274
f 274/274/274 275/275/275 272/272/272
f 276/276/276 277/277/277 278/278/278
f 279/279/279 280/280/280 281/281/281
f 282/282/282 283/283/283 284/284/284
f 285/285/285 286/286/286 287/287/287
f 288/288/288 289/289/289 290/290/290
f 291/291/291 292/292/292 293/293/293
f 293/293/293 294/294/294 291/291/291
f 295/295/295 296/296/296 297/297/297
f 298/298/298 299/299/299 300/300/300
f 301/301/301 302/302/302 303/303/303
f 304/304/304 305/305/305 306/306/306
f 307/307/307 308/308/308 309/309/309
f 310/310/310 311/311/311 312/312/312
f 313/313/313 314/314/314 315/315/315
f 316/316/316 317/317/317 318/318/318
f 319/319/319 320/320/320 321/321/321
f 322/322/322 323/323/323 324/324/324
f 325/325/325 326/326/326 327/327/327
f 328/328/328 329/329/329 330/330/330
f 331/331/331 332/332/332 333/333/333
f 334/334/334 335/335/335 336/336/336
f 337/337/337 338/338/338 232/232/232
f 232/232/232 235/235/235 337/337/337
f 339/339/339 233/233/233 232/232/232
f 232/232/232 338/338/338 339/339/339
f 239/239/239 236/236/236 219/219/219
f 226/226/226 225/225/225 233/233/233
f 233/233/233 339/339/339 226/226/226
f 340/340/340 341/341/341 342/342/342
f 343/343/343 344/344/344 345/345/345
f 346/346/346 347/347/347 348/348/348
f 349/349/349 350/350/350 351/351/351
f 352/352/352 353/353/353 354/354/354
f 355/355/355 356/356/356 357/357/357
f 358/358/358 359/359/359 360/360/360
f 361/361/361 362/362/362 363/363/363
f 364/364/364 365/365/365 366/366/366
f 367/367/367 368/368/368 369/369/369
f 370/370/370 371/371/371 372/372/372
f 373/373/373 374/374/374 375/375/375
f 376/376/376 377/377/377 378/378/378
f 379/379/379 380/380/380 381/381/381
f 382/382/382 383/383/383 384/384/384
f 385/385/385 386/386/386 387/387/387
f 388/388/388 389/389/389 390/390/390
f 391/391/391 392/392/392 393/393/393
f 394/394/394 395/395/395 396/396/396
f 397/397/397 398/398/398 399/399/399
f 400/400/400 401/401/401 402/402/402
f 400/400/400 402/402/402 403/403/403
f 400/400/400 403/403/403 404/404/404
f 290/290/290 289/289/289 405/405/405
f 288/288/288 290/290/290 406/406/406
f 402/402/402 401/401/401 406/406/406
f 406/406/406 290/290/290 402/402/402
f 216/216/216 222/222/222 228/228/228
f 219/219/219 238/238/238 220/220/220
f 18/18/18 10/10/10 16/16/16
f 25/25/25 20/20/20 12/12/12
