mtllib 7002610003.mtl
o 7002610003_part_0
v 0.3607564 1.17160928 -0.0675665662
v 0.417770773 1.06192946 -0.08821949
v 0.3840241 1.16358829 -0.1104903
v 0.298455477 1.05396819 -0.0812087953
v 0.282818347 1.1192441 -0.101543024
v 0.307235181 1.13494766 -0.151044
v 0.359110266 1.05209029 -0.151191667
v 0.3433522 1.15560055 -0.150462329
v 0.282818347 1.1192441 -0.101543024
v 0.298455477 1.05396819 -0.0812087953
v 0.343271762 1.06913662 -0.0262655877
v 0.323928475 1.15736759 -0.0532576628
v 0.355976254 0.977302432 0.0067412206
v 0.3896145 0.956644058 -0.0197282843
v 0.41704312 0.951147735 -0.131264508
v 0.384826869 0.9555752 -0.142726049
v 0.384826869 0.9555752 -0.142726049
v 0.342998475 0.9641606 -0.0266816728
v 0.354426056 0.7872695 -0.016916832
v 0.351467431 0.7858743 -0.0412521064
v 0.4036301 0.8859728 -0.04865987
v 0.422256649 0.895794749 -0.018535519
v 0.387364477 0.9103143 -0.0640558451
v 0.3775954 0.919328868 -0.1393412
v 0.389854044 0.897778034 -0.00567192351
v 0.338872552 0.8050658 -0.0066256905
v 0.306042254 0.9067593 0.0399891138
v 0.318068862 1.0027777 0.0117082121
v 0.273638517 0.9045685 0.03598457
v 0.338872552 0.8050658 -0.0066256905
v 0.389854044 0.897778034 -0.00567192351
v 0.3420118 0.797370851 -0.0422342569
v 0.351467431 0.7858743 -0.0412521064
v 0.354426056 0.7872695 -0.016916832
v 0.338872552 0.8050658 -0.0066256905
v 0.3420118 0.797370851 -0.0422342569
v 0.342998475 0.9641606 -0.0266816728
v 0.28431958 0.8922671 0.0148609234
v 0.287249863 0.998825967 -0.0398113057
v 0.28431958 0.8922671 0.0148609234
v 0.287249863 0.998825967 -0.0398113057
v 0.28431958 0.8922671 0.0148609234
v 0.273638517 0.9045685 0.03598457
v 0.430410624 0.950252533 -0.051973626
v 0.395832449 0.9082641 -0.128312349
v 0.3775954 0.919328868 -0.1393412
v 0.29433158 0.81611973 -0.0569488332
v 0.306841582 0.8065215 -0.121398866
v 0.306841582 0.8065215 -0.121398866
v 0.316368252 0.8029365 -0.06065088
v 0.306841582 0.8065215 -0.121398866
v 0.316368252 0.8029365 -0.06065088
v 0.29433158 0.81611973 -0.0569488332
v 0.4036301 0.8859728 -0.04865987
v 0.387364477 0.9103143 -0.0640558451
v -0.376271963 1.17944539 -0.0525355265
v -0.401950657 1.17201245 -0.0941711739
v -0.43770963 1.07476521 -0.068487525
v -0.318898022 1.057321 -0.06878886
v -0.383986861 1.05924606 -0.134790629
v -0.328358918 1.14077234 -0.138678372
v -0.301871479 1.12450206 -0.09017398
v -0.3636535 1.1625886 -0.136126846
v -0.301871479 1.12450206 -0.09017398
v -0.339227736 1.16409075 -0.040052522
v -0.35890156 1.07692754 -0.0114763938
v -0.318898022 1.057321 -0.06878886
v -0.416213125 0.969549835 0.0004966608
v -0.37914896 0.9871994 0.02444805
v -0.45081 0.964905 -0.109067753
v -0.419074565 0.9658982 -0.122511484
v -0.419074565 0.9658982 -0.122511484
v -0.369595319 0.972256541 -0.009370004
v -0.3977868 0.7975825 0.005142949
v -0.4545606 0.9122911 0.00502289832
v -0.4388675 0.900144 -0.0259136781
v -0.396471769 0.795481741 -0.0192858074
v -0.42125237 0.9224731 -0.0428025872
v -0.415258229 0.929174662 -0.118721947
v -0.421395481 0.9112514 0.0159008652
v -0.379955471 0.813911855 0.0140829524
v -0.3344753 0.912606359 0.05631183
v -0.302750647 0.90712446 0.05045213
v -0.338682681 1.008846 0.0265766364
v -0.379955471 0.813911855 0.0140829524
v -0.3860066 0.805958748 -0.0210904554
v -0.421395481 0.9112514 0.0159008652
v -0.396471769 0.795481741 -0.0192858074
v -0.3860066 0.805958748 -0.0210904554
v -0.379955471 0.813911855 0.0140829524
v -0.3977868 0.7975825 0.005142949
v -0.369595319 0.972256541 -0.009370004
v -0.315862268 0.895589769 0.0302865077
v -0.31160745 1.00095522 -0.0265680067
v -0.315862268 0.895589769 0.0302865077
v -0.31160745 1.00095522 -0.0265680067
v -0.302750647 0.90712446 0.05045213
v -0.315862268 0.895589769 0.0302865077
v -0.4593333 0.966709 -0.0291262679
v -0.433789462 0.9201759 -0.106382057
v -0.415258229 0.929174662 -0.118721947
v -0.33769846 0.8196007 -0.0390254073
v -0.3550061 0.8101944 -0.102384642
v -0.3550061 0.8101944 -0.102384642
v -0.361112118 0.8086208 -0.04111341
v -0.3550061 0.8101944 -0.102384642
v -0.33769846 0.8196007 -0.0390254073
v -0.361112118 0.8086208 -0.04111341
v -0.42125237 0.9224731 -0.0428025872
v -0.4388675 0.900144 -0.0259136781
vt 0.6624373 0.9137855
vt 0.5951085 0.6895008
vt 0.577564538 0.918624
vt 0.2643949 0.686898
vt 0.249819651 0.910982
vt 0.3696749 0.917038441
vt 0.43833068 0.68819356
vt 0.4243302 0.9160072
vt 0.896876454 0.9454623
vt 0.909331 0.7210294
vt 0.762045145 0.689600945
vt 0.7445162 0.9191731
vt 0.8479141 0.463940024
vt 0.759783864 0.423545182
vt 0.4977723 0.4294858
vt 0.434729725 0.451269865
vt 0.436383039 0.4536153
vt 0.162656054 0.435513437
vt 0.769713163 0.0180307031
vt 0.717639 0.0163198113
vt 0.6744678 0.262051463
vt 0.728376567 0.285902143
vt 0.2799526 0.302302957
vt 0.440470666 0.332010269
vt 0.782748044 0.2686516
vt 0.80962193 0.03482312
vt 0.948195755 0.2725438
vt 0.8986057 0.5189861
vt 0.990572 0.299268
vt 0.222849578 0.05766207
vt 0.161201864 0.290766239
vt 0.29548645 0.05127555
vt 0.118253909 0.9847394
vt 0.0210896954 0.9897238
vt 0.0179678425 0.9322822
vt 0.1027604 0.941763639
vt 0.812134564 0.403728962
vt 0.9057217 0.250126123
vt 0.982486248 0.55306673
vt 0.989591 0.235755265
vt 0.0408421569 0.5430646
vt 0.0628253147 0.253462374
vt 0.011271188 0.2733016
vt 0.657954454 0.415649056
vt 0.491987258 0.318349957
vt 0.446749419 0.335356832
vt 0.309347868 0.06322068
vt 0.452879637 0.0594522953
vt 0.50126487 0.0606300831
vt 0.6612959 0.0494206548
vt 0.712714 0.967950344
vt 0.535438836 0.986327052
vt 0.52886796 0.946272254
vt 0.3225559 0.99343884
vt 0.291576475 0.92766577
vt 0.6624373 0.9137855
vt 0.577564538 0.918624
vt 0.5951085 0.6895008
vt 0.2643949 0.686898
vt 0.43833068 0.68819356
vt 0.3696749 0.917038441
vt 0.249819651 0.910982
vt 0.4243302 0.9160072
vt 0.896876454 0.9454623
vt 0.7445162 0.9191731
vt 0.762045145 0.689600945
vt 0.909331 0.7210294
vt 0.759783864 0.423545182
vt 0.8479141 0.463940024
vt 0.4977723 0.4294858
vt 0.434729725 0.451269865
vt 0.436383039 0.4536153
vt 0.162656054 0.435513437
vt 0.769713163 0.0180307031
vt 0.728376567 0.285902143
vt 0.6744678 0.262051463
vt 0.717639 0.0163198113
vt 0.2799526 0.302302957
vt 0.440470666 0.332010269
vt 0.782748044 0.2686516
vt 0.80962193 0.03482312
vt 0.948195755 0.2725438
vt 0.990572 0.299268
vt 0.8986057 0.5189861
vt 0.222849578 0.05766207
vt 0.29548645 0.05127555
vt 0.161201864 0.290766239
vt 0.118253909 0.9847394
vt 0.1027604 0.941763639
vt 0.0179678425 0.9322822
vt 0.0210896954 0.9897238
vt 0.812134564 0.403728962
vt 0.9057217 0.250126123
vt 0.982486248 0.55306673
vt 0.989591 0.235755265
vt 0.0408421569 0.5430646
vt 0.011271188 0.2733016
vt 0.0628253147 0.253462374
vt 0.657954454 0.415649056
vt 0.491987258 0.318349957
vt 0.446749419 0.335356832
vt 0.309347868 0.06322068
vt 0.452879637 0.0594522953
vt 0.50126487 0.0606300831
vt 0.6612959 0.0494206548
vt 0.712714 0.967950344
vt 0.52886796 0.946272254
vt 0.535438836 0.986327052
vt 0.291576475 0.92766577
vt 0.3225559 0.99343884
vn 0.6159851 0.3234816 0.7182771
vn 0.9598495 0.2772509 0.04267244
vn 0.9364382 0.278367579 -0.2135297
vn -0.979910254 -0.190745264 -0.0582425222
vn -0.9751675 -0.218792066 0.0343265459
vn -0.416181624 -0.223844424 -0.8812982
vn -0.009315749 -0.108343467 -0.9940699
vn 0.4263325 0.07125715 -0.9017555
vn -0.9751675 -0.218792066 0.0343265459
vn -0.979910254 -0.190745264 -0.0582425222
vn -0.03021221 0.386031151 0.9219909
vn -0.243853539 0.234430432 0.9410514
vn 0.6133786 -0.117977411 0.7809277
vn 0.398674458 0.178351656 0.899582863
vn 0.7762121 -0.144821629 -0.6136135
vn -0.341057837 -0.248329833 -0.9066487
vn -0.341057837 -0.248329833 -0.9066487
vn -0.318127871 -0.906272054 -0.278326482
vn 0.199286878 -0.8731887 0.444776684
vn 0.0447651371 -0.873047054 -0.485576928
vn 0.8042164 -0.495958269 -0.327507824
vn 0.8794953 -0.207620114 0.428231061
vn -0.997021 0.05416563 0.05491033
vn -0.464169323 0.140607432 -0.874514937
vn -0.291167557 0.0540234745 0.9551455
vn -0.6797032 -0.155964 0.7167139
vn 0.4604445 -0.485374719 0.7432377
vn -0.267027527 0.4887239 0.8305692
vn -0.7475647 -0.3190828 0.582523167
vn -0.6797032 -0.155964 0.7167139
vn -0.291167557 0.0540234745 0.9551455
vn -0.7866841 -0.229148626 -0.573253036
vn 0.0447651371 -0.873047054 -0.485576928
vn 0.199286878 -0.8731887 0.444776684
vn -0.6797032 -0.155964 0.7167139
vn -0.7866841 -0.229148626 -0.573253036
vn -0.318127871 -0.906272054 -0.278326482
vn -0.241937175 -0.91370666 -0.326506555
vn -0.9213792 -0.03390949 -0.3871827
vn -0.241937175 -0.91370666 -0.326506555
vn -0.9213792 -0.03390949 -0.3871827
vn -0.241937175 -0.91370666 -0.326506555
vn -0.7475647 -0.3190828 0.582523167
vn 0.9645398 0.0274885539 0.262502074
vn 0.663614869 -0.455111355 -0.5937078
vn -0.464169323 0.140607432 -0.874514937
vn -0.804369569 -0.116239443 0.582647443
vn -0.375139445 -0.570746958 -0.7304234
vn -0.375139445 -0.570746958 -0.7304234
vn 0.192784771 -0.8361228 0.5135491
vn -0.375139445 -0.570746958 -0.7304234
vn 0.192784771 -0.8361228 0.5135491
vn -0.804369569 -0.116239443 0.582647443
vn 0.8042164 -0.495958269 -0.327507824
vn -0.997021 0.05416563 0.05491033
vn -0.5621734 0.35221523 0.7482683
vn -0.933034658 0.315250427 -0.173388258
vn -0.9319246 0.3495749 0.0965088159
vn 0.957424045 -0.263614029 -0.1176725
vn -0.0469008349 -0.129823416 -0.990427256
vn 0.355143368 -0.24185659 -0.9029831
vn 0.970445335 -0.240919322 -0.0139200864
vn -0.4698043 0.0810712054 -0.879040062
vn 0.970445335 -0.240919322 -0.0139200864
vn 0.298636675 0.235780388 0.924783051
vn 0.137111723 0.390493423 0.910338
vn 0.957424045 -0.263614029 -0.1176725
vn -0.3235438 0.234406039 0.9167187
vn -0.5741772 -0.04132898 0.8176872
vn -0.8230208 -0.07511977 -0.563021958
vn 0.257996351 -0.2968691 -0.9194056
vn 0.257996351 -0.2968691 -0.9194056
vn 0.209881335 -0.938066065 -0.275648
vn -0.2568559 -0.84118253 0.475854
vn -0.8678772 -0.111439757 0.484118134
vn -0.8676812 -0.418775469 -0.267873853
vn -0.160179183 -0.872424543 -0.461755425
vn 0.998987734 -0.044664558 -0.005341613
vn 0.421490848 0.07855862 -0.9034235
vn 0.352859229 0.0410791151 0.9347742
vn 0.703511655 -0.2106929 0.678734
vn -0.459795684 -0.424179316 0.7801665
vn 0.746641457 -0.3820478 0.544578731
vn 0.363268644 0.472792685 0.8028094
vn 0.703511655 -0.2106929 0.678734
vn 0.723781 -0.31631133 -0.613260269
vn 0.352859229 0.0410791151 0.9347742
vn -0.160179183 -0.872424543 -0.461755425
vn 0.723781 -0.31631133 -0.613260269
vn 0.703511655 -0.2106929 0.678734
vn -0.2568559 -0.84118253 0.475854
vn 0.209881335 -0.938066065 -0.275648
vn 0.130296752 -0.9387559 -0.318998575
vn 0.8871567 -0.1370239 -0.440655679
vn 0.130296752 -0.9387559 -0.318998575
vn 0.8871567 -0.1370239 -0.440655679
vn 0.746641457 -0.3820478 0.544578731
vn 0.130296752 -0.9387559 -0.318998575
vn -0.9391382 0.130203277 0.317909718
vn -0.7402594 -0.3967371 -0.542785168
vn 0.421490848 0.07855862 -0.9034235
vn 0.8230665 -0.185913354 0.5366543
vn 0.271740884 -0.6177815 -0.73790437
vn 0.271740884 -0.6177815 -0.73790437
vn -0.242544115 -0.803775966 0.543246269
vn 0.271740884 -0.6177815 -0.73790437
vn 0.8230665 -0.185913354 0.5366543
vn -0.242544115 -0.803775966 0.543246269
vn 0.998987734 -0.044664558 -0.005341613
vn -0.8676812 -0.418775469 -0.267873853
usemtl 7002610003_part_0_material_0
f 1/1/1 2/2/2 3/3/3
f 4/4/4 5/5/5 6/6/6
f 6/6/6 7/7/7 4/4/4
f 7/7/7 6/6/6 8/8/8
f 9/9/9 10/10/10 11/11/11
f 11/11/11 12/12/12 9/9/9
f 12/12/12 11/11/11 1/1/1
f 11/11/11 13/13/13 14/14/14
f 15/15/15 16/16/16 7/7/7
f 17/17/17 18/18/18 4/4/4
f 4/4/4 7/7/7 17/17/17
f 19/19/19 20/20/20 21/21/21
f 21/21/21 22/22/22 19/19/19
f 23/23/23 18/18/18 17/17/17
f 17/17/17 24/24/24 23/23/23
f 25/25/25 26/26/26 19/19/19
f 19/19/19 22/22/22 25/25/25
f 27/27/27 13/13/13 28/28/28
f 28/28/28 29/29/29 27/27/27
f 30/30/30 31/31/31 23/23/23
f 23/23/23 32/32/32 30/30/30
f 33/33/33 34/34/34 35/35/35
f 35/35/35 36/36/36 33/33/33
f 37/37/37 13/13/13 27/27/27
f 27/27/27 38/38/38 37/37/37
f 28/28/28 39/39/39 29/29/29
f 27/27/27 29/29/29 40/40/40
f 13/13/13 11/11/11 28/28/28
f 39/39/39 28/28/28 11/11/11
f 11/11/11 10/10/10 39/39/39
f 41/41/41 4/4/4 18/18/18
f 41/41/41 18/18/18 42/42/42
f 42/42/42 43/43/43 41/41/41
f 2/2/2 44/44/44 15/15/15
f 15/15/15 7/7/7 2/2/2
f 45/45/45 15/15/15 44/44/44
f 44/44/44 21/21/21 45/45/45
f 45/45/45 46/46/46 16/16/16
f 16/16/16 15/15/15 45/45/45
f 14/14/14 25/25/25 22/22/22
f 22/22/22 44/44/44 14/14/14
f 47/47/47 23/23/23 24/24/24
f 24/24/24 48/48/48 47/47/47
f 23/23/23 31/31/31 18/18/18
f 37/37/37 25/25/25 14/14/14
f 45/45/45 49/49/49 46/46/46
f 22/22/22 21/21/21 44/44/44
f 2/2/2 14/14/14 44/44/44
f 45/45/45 21/21/21 50/50/50
f 50/50/50 49/49/49 45/45/45
f 51/51/51 52/52/52 53/53/53
f 52/52/52 54/54/54 55/55/55
f 55/55/55 53/53/53 52/52/52
f 55/55/55 54/54/54 33/33/33
f 33/33/33 36/36/36 55/55/55
f 14/14/14 13/13/13 37/37/37
f 7/7/7 8/8/8 3/3/3
f 3/3/3 2/2/2 7/7/7
f 1/1/1 11/11/11 2/2/2
f 11/11/11 14/14/14 2/2/2
f 56/56/56 57/57/57 58/58/58
f 59/59/59 60/60/60 61/61/61
f 61/61/61 62/62/62 59/59/59
f 60/60/60 63/63/63 61/61/61
f 64/64/64 65/65/65 66/66/66
f 66/66/66 67/67/67 64/64/64
f 65/65/65 56/56/56 66/66/66
f 66/66/66 68/68/68 69/69/69
f 70/70/70 60/60/60 71/71/71
f 72/72/72 60/60/60 59/59/59
f 59/59/59 73/73/73 72/72/72
f 74/74/74 75/75/75 76/76/76
f 76/76/76 77/77/77 74/74/74
f 78/78/78 79/79/79 72/72/72
f 72/72/72 73/73/73 78/78/78
f 80/80/80 75/75/75 74/74/74
f 74/74/74 81/81/81 80/80/80
f 82/82/82 83/83/83 84/84/84
f 84/84/84 69/69/69 82/82/82
f 85/85/85 86/86/86 78/78/78
f 78/78/78 87/87/87 85/85/85
f 88/88/88 89/89/89 90/90/90
f 90/90/90 91/91/91 88/88/88
f 92/92/92 93/93/93 82/82/82
f 82/82/82 69/69/69 92/92/92
f 84/84/84 83/83/83 94/94/94
f 82/82/82 95/95/95 83/83/83
f 69/69/69 84/84/84 66/66/66
f 94/94/94 67/67/67 66/66/66
f 66/66/66 84/84/84 94/94/94
f 96/96/96 73/73/73 59/59/59
f 96/96/96 97/97/97 98/98/98
f 98/98/98 73/73/73 96/96/96
f 58/58/58 60/60/60 70/70/70
f 70/70/70 99/99/99 58/58/58
f 100/100/100 76/76/76 99/99/99
f 99/99/99 70/70/70 100/100/100
f 100/100/100 70/70/70 71/71/71
f 71/71/71 101/101/101 100/100/100
f 68/68/68 99/99/99 75/75/75
f 75/75/75 80/80/80 68/68/68
f 102/102/102 103/103/103 79/79/79
f 79/79/79 78/78/78 102/102/102
f 78/78/78 73/73/73 87/87/87
f 92/92/92 68/68/68 80/80/80
f 100/100/100 101/101/101 104/104/104
f 75/75/75 99/99/99 76/76/76
f 58/58/58 99/99/99 68/68/68
f 100/100/100 104/104/104 105/105/105
f 105/105/105 76/76/76 100/100/100
f 106/106/106 107/107/107 108/108/108
f 108/108/108 107/107/107 109/109/109
f 109/109/109 110/110/110 108/108/108
f 109/109/109 89/89/89 88/88/88
f 88/88/88 110/110/110 109/109/109
f 68/68/68 92/92/92 69/69/69
f 60/60/60 58/58/58 57/57/57
f 57/57/57 63/63/63 60/60/60
f 56/56/56 58/58/58 66/66/66
f 66/66/66 58/58/58 68/68/68
