mtllib 9011002402.mtl
o 9011002402_part_0
v 0.06995841 1.34159827 0.167252958
v 0.148979664 1.33968925 0.107746221
v 0.15755254 1.370106 0.113857023
v 0.07523699 1.37064862 0.176065266
v -0.00223126053 1.36871409 0.188369721
v -0.002934333 1.34046149 0.178575724
v 0.100911476 1.513971 0.153581887
v 0.12579754 1.55185783 0.160226554
v 0.0104013514 1.55501437 0.181751043
v 0.00876774 1.52861762 0.170963049
v 0.202721655 1.75189424 -0.06199538
v 0.162637889 1.77809584 -0.02612957
v 0.192772642 1.70927382 0.02778513
v 0.109912813 1.80692589 -0.110605463
v 0.160413653 1.73296249 0.03666476
v 0.102112405 1.65263617 0.140242219
v 0.185065627 1.64866543 0.10557387
v -0.0028525216 1.59156144 -0.181598991
v 0.0020433364 1.735589 -0.166269258
v 0.124757543 1.71131575 -0.173351824
v 0.10587883 1.5771085 -0.173433751
v 0.188946739 1.53312945 0.072503306
v 0.204811022 1.59746587 0.0500324741
v 0.005903568 1.81604075 -0.1298033
v 0.109912813 1.80692589 -0.110605463
v 0.185723752 1.56893289 -0.179301247
v 0.1242646 1.476773 -0.101331376
v 0.24146153 1.67926216 0.0205351561
v 0.260157645 1.72479129 -0.07049075
v 0.180670917 1.74652982 -0.132199526
v 0.227654546 1.6943289 -0.170716047
v 0.151026443 1.49205959 0.100317992
v -0.001967602 1.47245 -0.1285176
v 0.086962 1.399683 -0.07359529
v 0.00068659673 1.4095397 -0.0875311643
v 0.230751678 1.664356 0.0114493668
v 0.247892916 1.702827 -0.07271792
v 0.06552113 1.42510879 0.167856067
v 0.133654028 1.42454839 0.106629647
v 0.157658726 1.428228 -0.00476101041
v 0.176224932 1.49090886 -0.0347356573
v 0.165930778 1.47178578 0.02773901
v 0.153820574 1.42682457 0.03742627
v 0.180986881 1.37151575 -0.0132836327
v 0.09586495 1.36103511 -0.0802535
v 0.00081310136 1.35887325 -0.09301579
v 0.1749484 1.37036669 0.05214057
v 0.164684981 1.33908343 0.0433463529
v 0.167483628 1.33895636 -0.0105930306
v -0.00140587811 1.42532849 0.178707212
v 0.07562892 1.33714223 0.174765617
v 0.08000945 1.24753642 0.175286025
v 0.16943112 1.25022507 0.118788235
v 0.158953846 1.33685768 0.113759391
v 0.0009949888 1.24712682 -0.0887355655
v 0.0007149544 1.33366406 -0.08134269
v 0.103237435 1.33569038 -0.0714226142
v 0.109112531 1.248211 -0.0791931748
v 0.0005633993 1.33751643 -0.069469735
v 0.09790146 1.338177 -0.06080631
v 0.179086089 1.33590662 -0.0141477771
v 0.174847066 1.33614981 0.05113872
v 0.07554292 1.24197721 0.1626027
v 0.152472973 1.2415539 0.112774618
v 0.189947888 1.25054288 -0.0128882118
v 0.1860388 1.25038648 0.0542814061
v 0.174676821 1.24387479 0.0498127267
v 0.172059864 1.24269807 -0.0108916834
v 0.104325131 1.23927009 -0.07103915
v 0.000875853468 1.24005413 -0.0787272155
v -0.00282415771 1.3337326 0.194425911
v -0.00265246467 1.2444458 0.191926271
v -0.0024673515 1.23883748 0.178374916
v 0.202721655 1.75189424 -0.06199538
v 0.260157645 1.72479129 -0.07049075
v 0.198647514 1.60195482 0.034522213
v 0.247892916 1.702827 -0.07271792
v 0.226648867 1.68099093 -0.156131983
v 0.1896495 1.56607914 -0.1709516
v 0.102232441 1.88344026 -0.107023224
v 0.120340638 1.87843192 -0.0232447535
v 0.112547383 1.769309 0.04693199
v 0.123717993 1.82499373 0.06667379
v 0.125208274 1.80256891 -0.0234127417
v 0.0127270063 1.86764526 -0.161485821
v 0.102232441 1.88344026 -0.107023224
v 0.112547383 1.769309 0.04693199
v 0.0125059318 1.77496672 0.0680544153
v 0.0124702211 1.68971944 0.131794989
v 0.07148069 1.766474 0.127102762
v 0.0130321272 1.65203035 0.1745626
v 0.10027422 1.80917513 -0.07647623
v 0.0067690257 1.81581473 -0.107778788
v 0.10027422 1.80917513 -0.07647623
v 0.0123271672 1.817955 0.0296576768
v 0.125208274 1.80256891 -0.0234127417
v 0.10027422 1.80917513 -0.07647623
v 0.0780045763 1.83364654 -0.07639769
v 0.08577138 1.82688951 -0.0232599
v 0.0844825 1.88255787 -0.0136415288
v 0.01780542 1.85823536 0.029261522
v 0.08072449 1.91595078 -0.08498427
v 0.0067690257 1.81581473 -0.107778788
v 0.008219614 1.84206462 -0.109381847
v 0.01344615 1.93254662 -0.141086459
v 0.188233912 1.54003167 0.046050474
v 0.0143392365 1.70981956 0.163746327
v 0.0124702211 1.68971944 0.131794989
v 0.177667618 1.5037837 -0.06701948
v -0.07443045 1.34157252 0.165483147
v -0.0793295354 1.37074625 0.174387544
v -0.159480348 1.37078464 0.111243255
v -0.151590571 1.33989966 0.104519255
v -0.002934333 1.34046149 0.178575724
v -0.00223126053 1.36871409 0.188369721
v -0.08523885 1.51932943 0.160482377
v 0.00876774 1.52861762 0.170963049
v 0.0104013514 1.55501437 0.181751043
v -0.106312 1.55882823 0.1694189
v -0.1922193 1.77526665 -0.03753162
v -0.176960453 1.73696184 0.05120112
v -0.142360717 1.80060267 -0.0106154643
v -0.09372027 1.81592989 -0.0995122939
v -0.139556885 1.76318324 0.0550700575
v -0.164270326 1.66135955 0.120668776
v -0.07828454 1.65805364 0.147386551
v -0.0028525216 1.59156144 -0.181598991
v -0.119780883 1.58589768 -0.163749456
v -0.127338737 1.72443151 -0.159539267
v -0.177251011 1.54409873 0.08692414
v -0.164270326 1.66135955 0.120668776
v -0.1894089 1.620135 0.07649008
v -0.09372027 1.81592989 -0.0995122939
v -0.177251011 1.54409873 0.08692414
v -0.122581646 1.47730148 -0.103366487
v -0.188850343 1.58562231 -0.156789154
v -0.176960453 1.73696184 0.05120112
v -0.1922193 1.77526665 -0.03753162
v -0.253731072 1.75009334 -0.0357735567
v -0.22842434 1.70612586 0.0498520657
v -0.234097436 1.719929 -0.139894009
v -0.170484126 1.76809907 -0.113335
v -0.152428567 1.49270916 0.09781618
v -0.001967602 1.47245 -0.1285176
v -0.08589204 1.399904 -0.0752780661
v -0.24259004 1.72754562 -0.0402659476
v -0.2185888 1.69000852 0.0404683277
v -0.135331631 1.42512417 0.104412027
v -0.06807721 1.42566848 0.1666269
v -0.135331631 1.42512417 0.104412027
v -0.152428567 1.49270916 0.09781618
v -0.165967748 1.4771167 0.0473853424
v -0.155394077 1.42735314 0.03886602
v -0.174976617 1.49934626 -0.0244231187
v -0.157595485 1.42890286 -0.00736011565
v -0.09461832 1.3611536 -0.0823243
v -0.181105852 1.37178433 -0.01714516
v -0.151590571 1.33989966 0.104519255
v -0.159480348 1.37078464 0.111243255
v -0.177155912 1.37079775 0.0535288677
v -0.159707472 1.33904219 0.0452289358
v -0.00140587811 1.42532849 0.178707212
v -0.0798298 1.33720875 0.173023224
v -0.161697343 1.33707464 0.110303707
v -0.172790766 1.24993742 0.11420203
v -0.08486204 1.2473979 0.17307654
v -0.107336208 1.24802911 -0.0820938647
v -0.102138013 1.33578372 -0.07371478
v -0.07443045 1.34157252 0.165483147
v -0.09703474 1.33826971 -0.0629748255
v -0.179195315 1.33607054 -0.0181448013
v -0.167673469 1.3391118 -0.0143284127
v -0.177529424 1.33612382 0.0524664968
v -0.08004977 1.24184644 0.160517544
v -0.155871555 1.24113715 0.108324446
v -0.188539177 1.25005507 0.05652897
v -0.176606268 1.24276543 0.0453976765
v -0.17202124 1.24240887 -0.0155028068
v -0.189875484 1.25022364 -0.0179783218
v -0.102734774 1.239096 -0.07381401
v -0.002934333 1.34046149 0.178575724
v -0.1922193 1.77526665 -0.03753162
v -0.253731072 1.75009334 -0.0357735567
v -0.184231624 1.62452829 0.0604184642
v -0.2308211 1.70481634 -0.126615167
v -0.24259004 1.72754562 -0.0402659476
v -0.191015065 1.58599007 -0.146701336
v -0.09145114 1.88183749 -0.0162426829
v -0.08076665 1.89062881 -0.0974775553
v -0.08279061 1.77647138 0.0568442866
v -0.09604029 1.81260788 -0.009905934
v -0.0829031542 1.8358618 0.07259167
v -0.08076665 1.89062881 -0.0974775553
v -0.08279061 1.77647138 0.0568442866
v 0.0125059318 1.77496672 0.0680544153
v -0.0444543622 1.76835155 0.131623715
v 0.0130321272 1.65203035 0.1745626
v -0.07886863 1.81690633 -0.0664712638
v -0.07886863 1.81690633 -0.0664712638
v -0.09604029 1.81260788 -0.009905934
v -0.05885723 1.83206153 -0.0159857236
v -0.05854748 1.8381741 -0.07044211
v -0.07886863 1.81690633 -0.0664712638
v -0.04990856 1.88284564 -0.01007681
v -0.0508339442 1.91623247 -0.08149478
v 0.0143392365 1.70981956 0.163746327
v 0.0124702211 1.68971944 0.131794989
v -0.174441963 1.52530432 -0.0415949076
v -0.178332031 1.553916 0.0632348
v 0.195851818 1.50949156 -0.00267667323
v 0.198647514 1.60195482 0.034522213
v 0.188233912 1.54003167 0.046050474
v 0.269435316 1.59856629 0.00760619342
v 0.244581074 1.653554 0.0107333511
v 0.3024465 1.64362466 -0.07666787
v 0.262132078 1.62546122 -0.164603367
v 0.23772946 1.6707288 -0.158785284
v 0.274317235 1.68635929 -0.0752018541
v 0.387624 1.33237159 -0.233379781
v 0.449443758 1.22997761 -0.241276473
v 0.34574 1.19859385 -0.239867568
v 0.312145174 1.30169058 -0.222717762
v 0.450464219 1.37380207 -0.132017314
v 0.52547437 1.28048038 -0.108911008
v 0.463040173 1.18392 -0.204309344
v 0.5099932 1.22816622 -0.100887977
v 0.286398768 1.29691327 -0.0410990864
v 0.268904626 1.29025149 -0.139229536
v 0.289347827 1.17909646 -0.134762257
v 0.3026246 1.20882928 -0.02501681
v 0.330894917 1.14153767 -0.123098962
v 0.329210043 1.17794406 -0.0237240568
v 0.3750389 1.15058279 -0.1958678
v 0.42713362 1.22018409 0.00378198177
v 0.431307226 1.25526643 0.0130339861
v 0.38474974 1.33505559 -0.0123871937
v 0.214748785 1.489949 -0.01629179
v 0.287426561 1.5348376 -0.005095832
v 0.319052756 1.57742143 -0.0851871446
v 0.3491229 1.41284609 -0.208967626
v 0.270255774 1.3720485 -0.203355789
v 0.214065865 1.46115708 -0.156555444
v 0.293611228 1.49648893 -0.17249769
v 0.302729458 1.34207416 -0.210163474
v 0.262558669 1.32528329 -0.136090517
v 0.240162224 1.3555454 -0.1334691
v 0.4126974 1.40468132 -0.131032825
v 0.368600041 1.3754437 -0.224155843
v 0.404580474 1.43245792 -0.125425041
v 0.240162224 1.3555454 -0.1334691
v 0.262558669 1.32528329 -0.136090517
v 0.289046019 1.33523548 -0.0568869039
v 0.278952867 1.380793 -0.0481101274
v 0.357327342 1.36632383 -0.0392985828
v 0.344959229 1.41117144 -0.03548896
v 0.315971076 1.46989536 -0.0199899
v 0.246854708 1.44804883 -0.0421459563
v 0.358212531 1.50054407 -0.09751188
v 0.21333687 1.43695939 -0.0990405157
v 0.526504159 1.16306317 -0.0859194
v 0.484121323 1.12310517 -0.188087255
v 0.397075921 1.09530473 -0.1840148
v 0.351280779 1.08638346 -0.117082447
v 0.330894917 1.14153767 -0.123098962
v 0.351280779 1.08638346 -0.117082447
v 0.355716348 1.11614871 -0.012244381
v 0.451761067 1.15489721 0.0162387565
v 0.271474123 1.56356621 -0.16305
v 0.289347827 1.17909646 -0.134762257
v 0.268904626 1.29025149 -0.139229536
v 0.21333687 1.43695939 -0.0990405157
v 0.209712327 1.52765107 -0.17468372
v 0.230751678 1.664356 0.0114493668
v 0.247892916 1.702827 -0.07271792
v 0.186925232 1.49006033 -0.07808459
v 0.186925232 1.49006033 -0.07808459
v 0.226648867 1.68099093 -0.156131983
v 0.1896495 1.56607914 -0.1709516
v 0.177667618 1.5037837 -0.06701948
v 0.177667618 1.5037837 -0.06701948
v 0.422830671 1.12591434 -0.0867038444
v -0.1861995 1.53843987 0.027206786
v -0.178332031 1.553916 0.0632348
v -0.184231624 1.62452829 0.0604184642
v -0.2576797 1.622256 0.0401761755
v -0.2318723 1.67782927 0.0416163281
v -0.2989549 1.66815829 -0.0404014848
v -0.270056278 1.7113601 -0.0393178575
v -0.242428958 1.69482875 -0.128236651
v -0.266967058 1.64877677 -0.132426649
v -0.380384 1.35056937 -0.197908282
v -0.303298116 1.32258821 -0.192462355
v -0.333593816 1.21915889 -0.20945549
v -0.4386054 1.24342692 -0.200466871
v -0.438255876 1.38792086 -0.09206488
v -0.507164955 1.29143882 -0.06318525
v -0.447440952 1.19707477 -0.162438631
v -0.488816 1.23992419 -0.0560886338
v -0.2651913 1.3182075 -0.0130436309
v -0.276257515 1.22987461 0.00408057123
v -0.2691782 1.20048332 -0.105518743
v -0.254194349 1.31230855 -0.112036504
v -0.3009044 1.19835019 0.00809776
v -0.3080561 1.16119659 -0.09075619
v -0.35765326 1.16774857 -0.160204038
v -0.3984076 1.23638511 0.0423949137
v -0.403882951 1.270742 0.05103115
v -0.3628892 1.35206056 0.0224647671
v -0.27400282 1.55438673 0.0259186849
v -0.200439557 1.51266611 0.009480111
v -0.312494755 1.5964123 -0.0514125377
v -0.343753338 1.43202686 -0.174839318
v -0.29804194 1.51883745 -0.1374268
v -0.2271106 1.48232245 -0.124399044
v -0.263134956 1.39441884 -0.17493546
v -0.2279942 1.37862241 -0.107928492
v -0.249189079 1.34749138 -0.1091949
v -0.294753879 1.36317647 -0.180060327
v -0.401890665 1.42034626 -0.09354625
v -0.394608527 1.44839525 -0.08832815
v -0.3626788 1.393949 -0.189290822
v -0.2279942 1.37862241 -0.107928492
v -0.261977226 1.40190232 -0.0200653449
v -0.270620435 1.35621631 -0.02844721
v -0.249189079 1.34749138 -0.1091949
v -0.338809162 1.38431728 -0.006114982
v -0.328206331 1.429397 -0.00283926725
v -0.232468933 1.470176 -0.0156197473
v -0.3007855 1.488466 0.0120898262
v -0.349204957 1.51809847 -0.0621456
v -0.20226495 1.4605999 -0.07384471
v -0.4645556 1.13549924 -0.144506633
v -0.498811752 1.1713053 -0.0332393572
v -0.3080561 1.16119659 -0.09075619
v -0.325462073 1.105234 -0.0830755159
v -0.37628147 1.11163044 -0.146582961
v -0.32372 1.13551986 0.02169282
v -0.325462073 1.105234 -0.0830755159
v -0.4191244 1.17015731 0.0568434373
v -0.2770054 1.587439 -0.1302033
v -0.2691782 1.20048332 -0.105518743
v -0.254194349 1.31230855 -0.112036504
v -0.20226495 1.4605999 -0.07384471
v -0.20797 1.55154264 -0.148147225
v -0.2185888 1.69000852 0.0404683277
v -0.24259004 1.72754562 -0.0402659476
v -0.180865 1.51382482 -0.05206752
v -0.180865 1.51382482 -0.05206752
v -0.2308211 1.70481634 -0.126615167
v -0.191015065 1.58599007 -0.146701336
v -0.174441963 1.52530432 -0.0415949076
v -0.174441963 1.52530432 -0.0415949076
v -0.396358728 1.141757 -0.0477954522
v 0.181994319 1.151545 0.108962528
v 0.09888887 1.15615928 0.168579787
v 0.122627065 1.084436 0.180196822
v 0.2025525 1.07505488 0.112146147
v -0.00623559952 1.15922809 0.192346334
v -0.00244775182 1.06388891 0.158698231
v 0.152472973 1.2415539 0.112774618
v 0.07554292 1.24197721 0.1626027
v -0.0024673515 1.23883748 0.178374916
v 0.090923816 1.04815686 -0.07512529
v 0.111445107 0.915490568 -0.06465717
v 0.02353356 1.042173 -0.03174918
v 0.127706453 0.643160164 -0.100653186
v 0.150690839 0.428512216 -0.145020247
v 0.0167136583 0.404870927 0.02529326
v 0.0267310459 0.655205369 0.06958281
v 0.329455823 0.6496488 0.007286221
v 0.344349056 0.419204354 -0.0555317178
v 0.27679044 0.336766958 -0.07031583
v 0.162622958 0.343854964 -0.10468968
v 0.0480083339 0.6423565 0.187845528
v 0.0267310459 0.655205369 0.06958281
v 0.0167136583 0.404870927 0.02529326
v 0.0622420758 0.4192658 0.1703026
v 0.09299989 0.3413009 0.14338845
v 0.103979111 0.324431777 -0.00300802663
v 0.103979111 0.324431777 -0.00300802663
v 0.206676066 0.343331337 0.183481663
v 0.320624977 0.351826131 0.0509472638
v 0.330353379 0.425501525 0.151548147
v 0.207750991 0.432344556 0.244461834
v 0.135760263 0.309603631 0.103720687
v 0.0201494917 1.047577 0.10091918
v -0.000150114851 1.0442332 0.03350725
v 0.30381617 0.650210261 0.1607399
v 0.195625544 0.6287762 0.241896987
v 0.204332173 0.309223 0.119251706
v 0.247694209 0.9195265 0.00355733186
v 0.207000181 1.05917609 -0.0261584558
v 0.149645954 0.9430121 0.2044901
v 0.251165569 0.9360895 0.133906364
v 0.213032961 1.06503439 0.03884781
v 0.0514108054 1.13835156 -0.122003473
v 0.000875853468 1.24005413 -0.0787272155
v 0.104325131 1.23927009 -0.07103915
v 0.1407581 1.13678467 -0.09235741
v 0.00250181113 1.12791526 -0.09673249
v 0.20090127 1.139007 -0.0262988955
v 0.203408808 1.14489174 0.0410262942
v 0.00134854461 1.06394625 -0.049164705
v 0.172059864 1.24269807 -0.0108916834
v 0.174676821 1.24387479 0.0498127267
v 0.3002091 0.321709335 0.0353071839
v 0.0377742052 0.7572291 0.0597274154
v 0.022959251 0.9094459 0.0547337
v 0.135649443 0.7399981 -0.0496413857
v 0.297367662 0.7314906 0.0103811547
v 0.053055726 0.7692981 0.180114955
v 0.0377742052 0.7572291 0.0597274154
v 0.05047718 0.6971481 0.18580693
v 0.174718812 0.7967943 0.239649355
v 0.03546243 0.925701559 0.14808616
v 0.185325652 0.7023555 0.2596233
v 0.2849137 0.7638827 0.163270414
v 0.294316381 0.70777607 0.161546409
v 0.022959251 0.9094459 0.0547337
v 0.2813575 0.259478331 -0.07999339
v 0.167190045 0.2665664 -0.114367224
v 0.108647317 0.2470274 -0.0115853846
v 0.108647317 0.2470274 -0.0115853846
v 0.13962397 0.237962723 0.0841722
v 0.2081959 0.237582088 0.0997032449
v 0.3048773 0.2443049 0.02672983
v -0.000150114851 1.0442332 0.03350725
v 0.206728488 0.249140918 -0.00202554464
v -0.186080366 1.1459403 0.09921048
v -0.207221538 1.065765 0.0933928
v -0.118904337 1.0621053 0.155348241
v -0.105778284 1.14859664 0.162825882
v -0.08004977 1.24184644 0.160517544
v -0.155871555 1.24113715 0.108324446
v -0.0857706442 1.05060351 -0.0865043849
v -0.0208381638 1.04190767 -0.0377345234
v -0.107382722 0.9194411 -0.0900254846
v -0.121450722 0.6496546 -0.146901727
v -0.0287567843 0.6506201 0.0289146453
v -0.0174295064 0.400972962 -0.0265435055
v -0.143408865 0.432853878 -0.201552957
v -0.340984 0.4204073 -0.121506087
v -0.327861279 0.6512703 -0.049115397
v -0.157383442 0.346523583 -0.165670067
v -0.273022264 0.338413358 -0.136896729
v -0.0559071526 0.626579463 0.144315869
v -0.0695147 0.409038723 0.116738893
v -0.0174295064 0.400972962 -0.0265435055
v -0.0287567843 0.6506201 0.0289146453
v -0.09919953 0.332502782 0.08495856
v -0.103505105 0.322283149 -0.06239835
v -0.103505105 0.322283149 -0.06239835
v -0.214587033 0.3332423 0.119873382
v -0.218160048 0.41837275 0.183442771
v -0.336330861 0.4167173 0.08468003
v -0.322326362 0.348202884 -0.01720436
v -0.140176475 0.302814841 0.04199098
v -0.02240888 1.047351 0.100019626
v -0.2057485 0.6124574 0.190854371
v -0.310049564 0.637386143 0.105412714
v -0.209388375 0.302046239 0.0543436557
v -0.24678 0.918704152 -0.0283717
v -0.206741631 1.06087637 -0.0441861972
v -0.256584018 0.925664544 0.102520175
v -0.158611268 0.9272084 0.178251088
v -0.213371664 1.06176853 0.0244414881
v -0.04516177 1.14152408 -0.126182884
v -0.102734774 1.239096 -0.07381401
v -0.14084971 1.14469624 -0.102766164
v -0.19880107 1.13828659 -0.03736652
v -0.204372525 1.14170861 0.0300502852
v -0.17202124 1.24240887 -0.0155028068
v -0.176606268 1.24276543 0.0453976765
v -0.3012899 0.318727732 -0.033239536
v -0.0400405861 0.7532971 0.0299984068
v -0.131942108 0.745047 -0.0881597549
v -0.0252285767 0.9091572 0.05177851
v -0.296498328 0.7324752 -0.03583765
v -0.06119102 0.753537953 0.148253471
v -0.058522407 0.681393 0.14724496
v -0.0400405861 0.7532971 0.0299984068
v -0.18451716 0.7818998 0.199437261
v -0.04329047 0.9223606 0.139884233
v -0.197733939 0.6725929 0.215000123
v -0.2915693 0.751253664 0.11822141
v -0.300813168 0.694763958 0.111702614
v -0.0252285767 0.9091572 0.05177851
v -0.1616927 0.269769728 -0.179023623
v -0.277331531 0.2616595 -0.150250286
v -0.107966058 0.245364547 -0.07466384
v -0.143317223 0.232143521 0.01907377
v -0.107966058 0.245364547 -0.07466384
v -0.212529153 0.231374919 0.031426467
v -0.3057508 0.241809189 -0.045505017
v -0.206376582 0.247489452 -0.0695040748
v 0.09917341 1.15425 0.178545535
v -0.00473649427 1.15668488 0.201865643
v -0.004980426 1.07046509 0.211919129
v 0.108012676 1.07744992 0.204508245
v 0.174486145 1.155254 0.131411582
v 0.152472973 1.2415539 0.112774588
v 0.07554292 1.24197721 0.1626027
v -0.0024922688 1.2388 0.1802992
v -0.005774222 0.9409474 0.24465096
v 0.109342992 0.947892 0.240124881
v 0.215386033 0.685121655 0.251640528
v 0.182790935 0.681333 0.272371
v 0.178925961 0.636562169 0.275431871
v 0.184867173 1.07728958 0.162449986
v 0.189542651 0.95031023 0.207102776
v 0.230073676 0.9489716 0.159419417
v 0.217830509 1.07529092 0.104354255
v 0.08673162 0.5816903 0.30929783
v 0.0940624 0.668243 0.301472962
v -0.007612151 0.6648145 0.2962531
v -0.007328984 0.5664256 0.308748
v 0.104572639 0.807695866 0.276219159
v -0.006522328 0.7950287 0.275496334
v 0.19053866 0.805803 0.242031068
v 0.231885523 0.8059491 0.20383957
v 0.096945785 1.04852271 -0.112451196
v 0.15107736 1.15905428 -0.105803438
v 0.1792595 1.04564393 -0.09132385
v 0.00290319254 1.05435514 -0.113298148
v 0.0498056449 1.1568315 -0.133296445
v 0.00302023045 1.154478 -0.118115544
v 0.0008758514 1.24005413 -0.07872705
v 0.101976544 0.90570724 -0.103734091
v 0.002845396 0.9114816 -0.110929251
v 0.08040322 0.561384261 -0.131917149
v 0.0840930641 0.6594418 -0.114408456
v 0.19258973 0.672558069 -0.0627262
v 0.148154125 0.615276 -0.09007439
v 0.216067836 0.906850457 -0.05819039
v 0.00402604975 0.5375185 -0.159673691
v 0.00343978568 0.656538248 -0.135476336
v 0.0999919251 0.7825696 -0.09913631
v 0.0028390165 0.785170436 -0.110679619
v 0.212340444 0.7818452 -0.0532149337
v 0.104325131 1.23927009 -0.07103915
v 0.172059864 1.24269807 -0.0108916759
v 0.204347163 1.14891422 -0.0414198525
v 0.215692371 1.0519259 -0.0456074066
v 0.1980114 1.15472591 0.0678720847
v 0.174676821 1.24387479 0.0498125777
v -0.106499791 1.14631987 0.172707438
v -0.117266126 1.06120813 0.190147817
v -0.004980426 1.07046509 0.211919129
v -0.179613486 1.148852 0.122139223
v -0.08004977 1.24184644 0.160517544
v -0.155871555 1.24113715 0.108324431
v -0.120088562 0.929388642 0.2160562
v -0.225989252 0.6679198 0.2032302
v -0.190678373 0.617760241 0.225473166
v -0.194420949 0.662683249 0.225209475
v -0.191995054 1.06427121 0.144521683
v -0.222105 1.06659937 0.08490912
v -0.236774266 0.936602354 0.129900277
v -0.198600516 0.9343664 0.179458588
v -0.100173965 0.5604958 0.26000005
v -0.107176989 0.647469044 0.2575944
v -0.116821744 0.7869138 0.241955012
v -0.201029211 0.7876878 0.2036005
v -0.240479752 0.7907095 0.163566858
v -0.08909439 1.05484045 -0.127773166
v -0.167862773 1.04748821 -0.11577636
v -0.145572245 1.16139686 -0.113827989
v 0.00290319254 1.05435514 -0.113298148
v -0.043160636 1.16044307 -0.136724174
v 0.00302023045 1.154478 -0.118115544
v -0.0960170254 0.9125344 -0.12921086
v -0.07266824 0.5698164 -0.181244552
v -0.142397061 0.6209404 -0.139096513
v -0.188144237 0.676379442 -0.110060029
v -0.0772786 0.666542232 -0.157309055
v -0.212180346 0.910536468 -0.0892802
v -0.0940388143 0.789388061 -0.1335698
v -0.2084764 0.785496652 -0.09331565
v -0.102734774 1.239096 -0.07381401
v -0.201621681 1.14874971 -0.0522821881
v -0.17202124 1.24240887 -0.0155027993
v -0.212034211 1.05125415 -0.059301842
v -0.176606268 1.24276543 0.04539769
v -0.200231344 1.14925241 0.0565360039
v 0.226145342 0.349833965 0.09107346
v 0.152215347 0.3434499 0.0772523656
v 0.163528562 0.1867348 0.00397410244
v 0.223189741 0.17237103 0.0550934449
v 0.270549774 0.182737589 -0.01488208
v 0.2903429 0.345971763 0.0360164046
v 0.265158534 0.358698368 -0.03565339
v 0.160252959 0.191796839 -0.0561125651
v 0.124500878 0.345656276 0.00127046183
v 0.169737875 0.365313828 -0.0737887248
v 0.228255853 0.19462657 -0.100211494
v 0.163528562 0.1867348 0.00397410244
v 0.152215347 0.3434499 0.0772523656
v -0.229788423 0.3439814 0.02706065
v -0.1636502 0.184682071 -0.06436135
v -0.155319 0.337891042 0.0163535848
v -0.22562474 0.1683042 -0.0167180523
v -0.269705266 0.1820206 -0.08824274
v -0.29140684 0.3428889 -0.0309867486
v -0.262935847 0.358711243 -0.100785308
v -0.1576142 0.192425847 -0.123946272
v -0.165853053 0.3666032 -0.134189188
v -0.124149 0.3433863 -0.05810743
v -0.223519266 0.197542965 -0.17092979
v -0.155319 0.337891042 0.0163535848
v -0.1636502 0.184682071 -0.06436135
vt 0.07590421 0.482934833
vt 0.154901087 0.482934833
vt 0.155431718 0.506040633
vt 0.08368729 0.507490158
vt 0.0236590449 0.507947445
vt 0.0234159436 0.482934833
vt 0.08827456 0.6620394
vt 0.106895365 0.691876233
vt 0.0236590449 0.690700531
vt 0.0236590449 0.669724762
vt 0.188141 0.90569526
vt 0.147897229 0.903752446
vt 0.168531924 0.849905849
vt 0.163239136 0.937739849
vt 0.134888142 0.863459945
vt 0.08591746 0.7553212
vt 0.163084626 0.7571913
vt 0.4145448 0.6876119
vt 0.4145448 0.821443737
vt 0.318891823 0.816686869
vt 0.318238378 0.6927428
vt 0.189562246 0.6797588
vt 0.195988342 0.7530944
vt 0.4145448 0.8844111
vt 0.338383555 0.8814922
vt 0.26112175 0.699118
vt 0.3191948 0.63251543
vt 0.213138551 0.8393864
vt 0.228557631 0.8869818
vt 0.288054317 0.851379454
vt 0.247832164 0.8237725
vt 0.167015612 0.62976855
vt 0.4145448 0.6301221
vt 0.334299475 0.5349119
vt 0.4145448 0.544815361
vt 0.22117646 0.8344535
vt 0.236698478 0.8828153
vt 0.07420422 0.5513163
vt 0.1490412 0.5504808
vt 0.244113877 0.5595428
vt 0.244522363 0.6406395
vt 0.2013357 0.62231195
vt 0.202421919 0.5559245
vt 0.2445619 0.50952667
vt 0.3253601 0.5083848
vt 0.4145448 0.5055133
vt 0.202421919 0.507433832
vt 0.202421919 0.482934833
vt 0.244291857 0.482934833
vt 0.0236590449 0.5513163
vt 0.07658497 0.470290959
vt 0.07833766 0.399505138
vt 0.16044569 0.399505138
vt 0.1548637 0.470290959
vt 0.4145448 0.399505138
vt 0.4145448 0.470290959
vt 0.322369576 0.470290959
vt 0.324886173 0.399505138
vt 0.4145448 0.482934833
vt 0.321519971 0.482934833
vt 0.244788423 0.470290959
vt 0.202421919 0.470290959
vt 0.08012801 0.385849953
vt 0.1640139 0.385849953
vt 0.242756143 0.399505138
vt 0.202421919 0.399505138
vt 0.202421919 0.385849953
vt 0.243199736 0.385849953
vt 0.324886173 0.385849953
vt 0.4145448 0.385849953
vt 0.0236590449 0.470290959
vt 0.0236590449 0.399505138
vt 0.0236590449 0.385849953
vt 0.281410962 0.876738966
vt 0.238469511 0.8661403
vt 0.2047987 0.7527326
vt 0.2309291 0.857735753
vt 0.237449244 0.8211801
vt 0.255578518 0.6999859
vt 0.146205723 0.966872633
vt 0.10272231 0.9411599
vt 0.0434937 0.878697455
vt 0.0628162846 0.8800005
vt 0.0836128742 0.953905
vt 0.4145448 0.9063661
vt 0.336737841 0.905845761
vt 0.476592779 0.8319847
vt 0.431684464 0.8315366
vt 0.43140012 0.765766561
vt 0.0445332453 0.8350203
vt 0.0233053938 0.7343794
vt 0.131152287 0.9847495
vt 0.4145448 0.9063661
vt 0.339489758 0.9059615
vt 0.43140012 0.864386559
vt 0.489796966 0.852465868
vt 0.503438354 0.8601806
vt 0.497624159 0.88104856
vt 0.461675674 0.871895432
vt 0.4631472 0.92255944
vt 0.43140012 0.9087748
vt 0.500180066 0.9327983
vt 0.530157268 0.870087147
vt 0.5254834 0.8857132
vt 0.5327049 0.9382915
vt 0.204241782 0.6847297
vt 0.02365147 0.8032375
vt 0.0236590449 0.8217477
vt 0.238463625 0.676214755
vt 0.5148118 0.00483185053
vt 0.522594869 0.0255545378
vt 0.589750051 0.0241050124
vt 0.589219451 0.00483185053
vt 0.456833929 0.006596148
vt 0.456833929 0.0260118246
vt 0.5272146 0.1806227
vt 0.456833929 0.187789083
vt 0.456833929 0.208764911
vt 0.5460499 0.209972858
vt 0.620049059 0.4087839
vt 0.600439966 0.352994561
vt 0.579805255 0.406841159
vt 0.59292233 0.4368732
vt 0.5613577 0.366548657
vt 0.596241832 0.273981869
vt 0.5228833 0.270698
vt 0.4145448 0.6879392
vt 0.318214655 0.6927136
vt 0.318891823 0.816686869
vt 0.1898548 0.6795788
vt 0.1631409 0.7577697
vt 0.196134612 0.7533869
vt 0.338383555 0.8814922
vt 0.624173164 0.197643161
vt 0.318828255 0.6323574
vt 0.260811776 0.699363053
vt 0.168531924 0.849905849
vt 0.188141 0.90569526
vt 0.228446484 0.8868954
vt 0.213138551 0.8393864
vt 0.247832164 0.8237725
vt 0.289617628 0.849889338
vt 0.601334 0.14783287
vt 0.4145448 0.6291975
vt 0.334299475 0.5349119
vt 0.23683624 0.8828799
vt 0.221153408 0.834350646
vt 0.58335954 0.06854516
vt 0.5131118 0.0693807
vt 0.1490412 0.5504808
vt 0.167015612 0.62976855
vt 0.2013357 0.623768568
vt 0.202421919 0.55552
vt 0.244286239 0.6401638
vt 0.244113877 0.5595428
vt 0.3253601 0.5083848
vt 0.2445619 0.50952667
vt 0.154901087 0.482934833
vt 0.155431718 0.506040633
vt 0.202421919 0.5073502
vt 0.202421919 0.482934833
vt 0.456833929 0.0693807
vt 0.07658497 0.470290959
vt 0.1548637 0.470290959
vt 0.16044569 0.399505138
vt 0.07833766 0.399505138
vt 0.324886173 0.399505138
vt 0.321951628 0.470290959
vt 0.07590421 0.482934833
vt 0.322263151 0.482934833
vt 0.244788423 0.470290959
vt 0.244291857 0.482934833
vt 0.202421919 0.470290959
vt 0.08012801 0.385849953
vt 0.1640139 0.385849953
vt 0.202421919 0.399505138
vt 0.202421919 0.385849953
vt 0.243199736 0.385849953
vt 0.242756143 0.399505138
vt 0.324886173 0.385849953
vt 0.02444568 0.482934833
vt 0.281410962 0.876738966
vt 0.238254726 0.865894258
vt 0.204506159 0.7531714
vt 0.237449244 0.8211801
vt 0.231678814 0.858126938
vt 0.2555842 0.699981868
vt 0.538363159 0.43495363
vt 0.5647894 0.461951852
vt 0.484078854 0.379215181
vt 0.523209035 0.444781661
vt 0.5050369 0.378445446
vt 0.336737841 0.905845761
vt 0.476592779 0.8319847
vt 0.4316546 0.830924451
vt 0.482598037 0.3314693
vt 0.456833929 0.265450358
vt 0.555916131 0.4607938
vt 0.339489758 0.9059615
vt 0.489796966 0.852465868
vt 0.461675674 0.871895432
vt 0.497624159 0.88104856
vt 0.503438354 0.8601806
vt 0.4631472 0.92255944
vt 0.500180066 0.9327983
vt 0.456833929 0.295892715
vt 0.456833929 0.319148183
vt 0.237884477 0.6768215
vt 0.204241782 0.6847297
vt 0.7086351 0.327865362
vt 0.70807296 0.350599766
vt 0.6865712 0.3307358
vt 0.754230142 0.330969572
vt 0.754335344 0.353403568
vt 0.815299869 0.336868
vt 0.8717175 0.329015374
vt 0.8712578 0.3483287
vt 0.81415087 0.352575064
vt 0.889467537 0.16749233
vt 0.8910911 0.09030086
vt 0.938991666 0.087261796
vt 0.930794835 0.1707856
vt 0.812018 0.168609262
vt 0.8131252 0.09132284
vt 0.88709867 0.05941719
vt 0.8170697 0.05941719
vt 0.6963263 0.170844376
vt 0.6484479 0.179537714
vt 0.6414664 0.100283325
vt 0.683555663 0.0961824656
vt 0.6494744 0.05941719
vt 0.6857132 0.05941719
vt 0.937011838 0.05941719
vt 0.73946625 0.05941719
vt 0.736105859 0.0935742855
vt 0.738625944 0.169769287
vt 0.7098533 0.307222366
vt 0.7537173 0.307673872
vt 0.8150971 0.307262778
vt 0.88720423 0.219618917
vt 0.9333383 0.220936775
vt 0.923937261 0.2760136
vt 0.8783986 0.274157643
vt 0.931606 0.194743276
vt 0.981561065 0.206199527
vt 0.9695702 0.2275716
vt 0.8136423 0.197037816
vt 0.8895866 0.1939745
vt 0.813737 0.222221971
vt 0.6641192 0.217321575
vt 0.6638378 0.1977604
vt 0.706977367 0.1940735
vt 0.717521548 0.2227118
vt 0.7465148 0.193718553
vt 0.754631639 0.222849309
vt 0.7539937 0.267712951
vt 0.7132215 0.271149278
vt 0.814491034 0.268978059
vt 0.66321 0.270872772
vt 0.819258749 0.02551663
vt 0.890187 0.02551663
vt 0.9281692 0.02551663
vt 0.9830596 0.02551663
vt 0.98554033 0.05941719
vt 0.6477835 0.02551663
vt 0.686106443 0.02551663
vt 0.737983644 0.02551663
vt 0.871893 0.308056235
vt 0.990184247 0.0860649943
vt 0.989516854 0.180594325
vt 0.965706468 0.270872772
vt 0.920757651 0.313821077
vt 0.7534265 0.364823937
vt 0.812565267 0.366227627
vt 0.969997346 0.311447024
vt 0.6603562 0.3058852
vt 0.8701424 0.360088766
vt 0.9194203 0.340328932
vt 0.661369264 0.318287075
vt 0.972701669 0.324898958
vt 0.8130739 0.02551663
vt 0.7086351 0.327865362
vt 0.6865712 0.3307358
vt 0.70807296 0.350599766
vt 0.754230142 0.330969572
vt 0.754335344 0.353403568
vt 0.815299869 0.336868
vt 0.81415087 0.352575064
vt 0.8712578 0.3483287
vt 0.8717175 0.329015374
vt 0.889467537 0.16749233
vt 0.930794835 0.1707856
vt 0.938991666 0.087261796
vt 0.8910911 0.09030086
vt 0.812018 0.168609262
vt 0.8131252 0.09132284
vt 0.88709867 0.05941719
vt 0.8170697 0.05941719
vt 0.6963263 0.170844376
vt 0.683555663 0.0961824656
vt 0.6414664 0.100283325
vt 0.6484479 0.179537714
vt 0.6857132 0.05941719
vt 0.6494744 0.05941719
vt 0.937011838 0.05941719
vt 0.73946625 0.05941719
vt 0.736105859 0.0935742855
vt 0.738341451 0.1698559
vt 0.7537173 0.307673872
vt 0.7098533 0.307222366
vt 0.8150971 0.307262778
vt 0.88720423 0.219618917
vt 0.8783986 0.274157643
vt 0.923937261 0.2760136
vt 0.9333383 0.220936775
vt 0.9695702 0.2275716
vt 0.981561065 0.206199527
vt 0.931606 0.194743276
vt 0.8136423 0.197037816
vt 0.813737 0.222221971
vt 0.8895866 0.1939745
vt 0.6641192 0.217321575
vt 0.717521548 0.2227118
vt 0.706977367 0.1940735
vt 0.6638378 0.1977604
vt 0.7465148 0.193718553
vt 0.754631639 0.222849309
vt 0.7132215 0.271149278
vt 0.7539937 0.267712951
vt 0.814491034 0.268978059
vt 0.66321 0.270872772
vt 0.890187 0.02551663
vt 0.819258749 0.02551663
vt 0.98554033 0.05941719
vt 0.9830596 0.02551663
vt 0.9281692 0.02551663
vt 0.686106443 0.02551663
vt 0.6477835 0.02551663
vt 0.737983644 0.02551663
vt 0.871893 0.308056235
vt 0.990184247 0.0860649943
vt 0.989516854 0.180594325
vt 0.965706468 0.270872772
vt 0.920757651 0.313821077
vt 0.7534265 0.364823937
vt 0.812565267 0.366227627
vt 0.969997346 0.311447024
vt 0.6603562 0.3058852
vt 0.8701424 0.360088766
vt 0.9194203 0.340328932
vt 0.661369264 0.318287075
vt 0.972701669 0.324898958
vt 0.8130739 0.02551663
vt 0.708601236 0.929139853
vt 0.645988345 0.930136263
vt 0.648123741 0.892724931
vt 0.7093823 0.890102267
vt 0.581510544 0.9296976
vt 0.5783499 0.892570555
vt 0.7085291 0.9793101
vt 0.647120833 0.9793101
vt 0.582864046 0.9793101
vt 0.883227348 0.8877018
vt 0.8723465 0.809457958
vt 0.9310644 0.878311455
vt 0.8954446 0.655636668
vt 0.8971558 0.54046154
vt 0.99593544 0.5479156
vt 0.9728415 0.663975537
vt 0.7807716 0.666703641
vt 0.795921445 0.5471792
vt 0.798517466 0.499113441
vt 0.891396165 0.4982319
vt 0.5704069 0.6704424
vt 0.51999867 0.6770208
vt 0.5097723 0.5479156
vt 0.5591198 0.570253134
vt 0.5857912 0.5226096
vt 0.5364953 0.501094759
vt 0.951355934 0.499786019
vt 0.645859 0.5247618
vt 0.723358452 0.51323086
vt 0.7252169 0.56448853
vt 0.6501116 0.5769555
vt 0.5973169 0.5011915
vt 0.5726587 0.875702
vt 0.5441045 0.874024451
vt 0.7255391 0.6555403
vt 0.651591837 0.6595829
vt 0.643851638 0.499619484
vt 0.7814789 0.8191761
vt 0.788007259 0.8897593
vt 0.651152968 0.8240844
vt 0.713849545 0.821393847
vt 0.7486948 0.8899308
vt 0.9222554 0.9281224
vt 0.951922953 0.9793101
vt 0.8785621 0.9793101
vt 0.8618838 0.9294244
vt 0.951922953 0.925989449
vt 0.7880722 0.9279217
vt 0.748336732 0.9285308
vt 0.951922953 0.898147941
vt 0.787132859 0.9793101
vt 0.747831 0.9793101
vt 0.719422936 0.497854054
vt 0.9565744 0.719686568
vt 0.9514867 0.803665757
vt 0.886077762 0.707751632
vt 0.7767287 0.715002835
vt 0.583001256 0.7332889
vt 0.5316873 0.7360997
vt 0.575534 0.699212253
vt 0.650467753 0.73410517
vt 0.575137258 0.815215349
vt 0.649433 0.6932243
vt 0.719018936 0.7202307
vt 0.7228412 0.688839257
vt 0.548205554 0.8108465
vt 0.8014479 0.4665264
vt 0.8880005 0.4666103
vt 0.9574364 0.466885448
vt 0.527697146 0.4669534
vt 0.593993664 0.466528833
vt 0.6363414 0.469057322
vt 0.7158459 0.466073036
vt 0.9496955 0.8796271
vt 0.7351607 0.466610372
vt 0.708601236 0.929139853
vt 0.7093823 0.890102267
vt 0.648123741 0.892724931
vt 0.645988345 0.930136263
vt 0.647120833 0.9793101
vt 0.7085291 0.9793101
vt 0.883227348 0.8877018
vt 0.9310644 0.878311455
vt 0.8723465 0.809457958
vt 0.8954446 0.655636668
vt 0.9728415 0.663975537
vt 0.99593544 0.5479156
vt 0.8971558 0.54046154
vt 0.795921445 0.5471792
vt 0.7807716 0.666703641
vt 0.891396165 0.4982319
vt 0.798517466 0.499113441
vt 0.5704069 0.6704424
vt 0.5591198 0.570253134
vt 0.5097723 0.5479156
vt 0.51999867 0.6770208
vt 0.5857912 0.5226096
vt 0.5364953 0.501094759
vt 0.951355934 0.499786019
vt 0.645859 0.5247618
vt 0.6501116 0.5769555
vt 0.7252169 0.56448853
vt 0.723358452 0.51323086
vt 0.5973169 0.5011915
vt 0.5726587 0.875702
vt 0.651591837 0.6595829
vt 0.7255391 0.6555403
vt 0.643851638 0.499619484
vt 0.7814789 0.8191761
vt 0.788007259 0.8897593
vt 0.713849545 0.821393847
vt 0.651152968 0.8240844
vt 0.7486948 0.8899308
vt 0.9222554 0.9281224
vt 0.8785621 0.9793101
vt 0.861284435 0.9293838
vt 0.7880722 0.9279217
vt 0.748336732 0.9285308
vt 0.787132859 0.9793101
vt 0.747831 0.9793101
vt 0.719422936 0.497854054
vt 0.9565744 0.719686568
vt 0.886077762 0.707751632
vt 0.9514867 0.803665757
vt 0.7767287 0.715002835
vt 0.583001256 0.7332889
vt 0.575534 0.699212253
vt 0.5316873 0.7360997
vt 0.650467753 0.73410517
vt 0.575137258 0.815215349
vt 0.649433 0.6932243
vt 0.719018936 0.7202307
vt 0.7228412 0.688839257
vt 0.548205554 0.8108465
vt 0.8880005 0.4666103
vt 0.8014479 0.4665264
vt 0.9574364 0.466885448
vt 0.5907686 0.466890216
vt 0.527697146 0.4669534
vt 0.637851 0.4694137
vt 0.7158459 0.466073036
vt 0.7351607 0.466610372
vt 0.0619573779 0.07232034
vt 0.06608155 0.0328062177
vt 0.122080512 0.0328062177
vt 0.121640645 0.0716398358
vt 0.0617615 0.12231636
vt 0.0213484168 0.121250987
vt 0.0213484168 0.06565136
vt 0.0213484168 0.0328062177
vt 0.206640437 0.0328062177
vt 0.206849 0.074911356
vt 0.36747545 0.137478173
vt 0.369725764 0.117984056
vt 0.39844805 0.1120348
vt 0.114081226 0.122363269
vt 0.2001975 0.12308377
vt 0.196570039 0.157850325
vt 0.112272248 0.1619016
vt 0.437759876 0.0713823438
vt 0.374139756 0.0725867748
vt 0.379789472 0.0328062177
vt 0.440431625 0.0328062177
vt 0.297439367 0.07129544
vt 0.2994687 0.0328062177
vt 0.297577828 0.121422052
vt 0.2964723 0.152566016
vt 0.122040778 0.28448385
vt 0.0707668 0.264434457
vt 0.119711064 0.240142643
vt 0.124958582 0.340833783
vt 0.0736431256 0.3162918
vt 0.0743475556 0.340833783
vt 0.0213484168 0.340833783
vt 0.208880812 0.271194875
vt 0.213148087 0.340833783
vt 0.412329942 0.27107358
vt 0.365139067 0.2684381
vt 0.347971559 0.204123735
vt 0.384645522 0.228404284
vt 0.198376328 0.200877786
vt 0.443013757 0.340833783
vt 0.3678117 0.340833783
vt 0.2851107 0.264698267
vt 0.289732248 0.340833783
vt 0.276420057 0.195400357
vt 0.0213484168 0.285936
vt 0.0213484168 0.21164465
vt 0.0675795451 0.209254384
vt 0.116237946 0.207024157
vt 0.0620422736 0.1619407
vt 0.0213484168 0.162324667
vt 0.0619573779 0.07232034
vt 0.121597916 0.07169795
vt 0.12190666 0.0328062177
vt 0.06174215 0.122312963
vt 0.0213484168 0.06527358
vt 0.0213484168 0.12101531
vt 0.206849 0.074911356
vt 0.36747545 0.137478173
vt 0.39844805 0.1120348
vt 0.369725764 0.117984056
vt 0.114032634 0.122372806
vt 0.112309895 0.1616885
vt 0.196570039 0.157850325
vt 0.2001975 0.12308377
vt 0.437759876 0.0713823438
vt 0.374139756 0.0725867748
vt 0.297439367 0.07129544
vt 0.297577828 0.121422052
vt 0.2964723 0.152566016
vt 0.121960469 0.2845487
vt 0.119711064 0.240142643
vt 0.0707668 0.264434457
vt 0.12508893 0.340833783
vt 0.07396039 0.315300226
vt 0.07438607 0.340833783
vt 0.208880812 0.271194875
vt 0.412329942 0.27107358
vt 0.384645522 0.228404284
vt 0.347971559 0.204123735
vt 0.365139067 0.2684381
vt 0.198376328 0.200877786
vt 0.2851107 0.264698267
vt 0.276420057 0.195400357
vt 0.0213484168 0.2858225
vt 0.0675795451 0.209254384
vt 0.0213484168 0.211600721
vt 0.116237946 0.207024157
vt 0.0213484168 0.162439644
vt 0.06204877 0.162330747
vt 0.6803613 0.4580891
vt 0.654847443 0.4580891
vt 0.6548715 0.378978729
vt 0.693012357 0.378978729
vt 0.722560167 0.378978729
vt 0.7078764 0.4580891
vt 0.7415931 0.4580891
vt 0.7865823 0.378978729
vt 0.7947239 0.4580891
vt 0.7656501 0.4580891
vt 0.763507664 0.378978729
vt 0.8060992 0.378978729
vt 0.8060992 0.4580891
vt 0.6803613 0.4580891
vt 0.6548715 0.378978729
vt 0.654847443 0.4580891
vt 0.693012357 0.378978729
vt 0.722560167 0.378978729
vt 0.7078764 0.4580891
vt 0.7415931 0.4580891
vt 0.7865823 0.378978729
vt 0.7656501 0.4580891
vt 0.7947239 0.4580891
vt 0.763507664 0.378978729
vt 0.8060992 0.4580891
vt 0.8060992 0.378978729
vn 0.340297073 0.41235286 0.8450817
vn 0.6905982 0.555021048 0.463708669
vn 0.8303899 0.03626644 0.5560012
vn 0.41482982 -0.0468690358 0.9086911
vn -0.0104223955 -0.08117392 0.996645451
vn -0.01411117 0.438213378 0.8987602
vn 0.448719084 -0.226601228 0.8644669
vn 0.4908518 -0.14505361 0.859083235
vn 0.036116343 -0.0981118754 0.9945198
vn 0.02619385 -0.181712657 0.9830027
vn 0.563043356 0.8252559 0.0439879447
vn 0.819765 0.5595543 0.122001611
vn 0.559609056 0.662975669 0.497293681
vn 0.561402261 0.393867522 -0.7278021
vn 0.727731943 0.456730276 0.5116675
vn 0.403300583 0.2732745 0.8733096
vn 0.656040251 0.279477537 0.7010731
vn -0.0492752679 -0.1655563 -0.984968543
vn -0.0369611569 0.277089626 -0.9601329
vn 0.0913632 0.305650234 -0.94775033
vn 0.0174230933 -0.273635983 -0.9616755
vn 0.9101967 -0.292450339 0.293282777
vn 0.9500672 -0.311981976 0.00628407532
vn -0.06397727 -0.0236787926 -0.9976704
vn 0.561402261 0.393867522 -0.7278021
vn 0.36184 -0.380689859 -0.8509683
vn 0.448053658 -0.6033597 -0.6597007
vn 0.935920238 0.121157855 0.330717564
vn 0.9173051 0.3961254 -0.04044788
vn 0.438438416 0.7351264 -0.517069638
vn 0.6572413 0.234934136 -0.716128349
vn 0.794017 -0.2419374 0.5576767
vn -0.0114070009 -0.478233635 -0.878158569
vn 0.4279618 -0.09163185 -0.899139762
vn 0.0105615379 -0.25099954 -0.9679296
vn 0.954593062 -0.100901745 0.280305147
vn 0.9921398 0.119099572 -0.03839037
vn 0.395925075 0.1001077 0.912809849
vn 0.816328466 0.120646648 0.564847052
vn 0.9581211 -0.0254613683 -0.285229027
vn 0.9031056 -0.3903275 -0.179010361
vn 0.944487751 -0.296301246 0.141945124
vn 0.977489 0.08981255 0.190916091
vn 0.9236823 0.0193918329 -0.382668316
vn 0.367231637 -0.203464463 -0.907602966
vn 0.0101060206 -0.349620163 -0.936837
vn 0.981410563 0.0250259563 0.190281332
vn 0.870928347 0.476421416 0.120442584
vn 0.738332 0.559340954 -0.376833677
vn -0.01305433 0.123233877 0.9922918
vn 0.344845027 0.531923831 0.7733944
vn 0.3394663 -0.520290732 0.78361994
vn 0.746523 -0.4286012 0.5089248
vn 0.654449463 0.6144872 0.4405694
vn 0.0119618615 -0.406588882 -0.9135329
vn 0.009124109 0.6032995 -0.7974625
vn 0.277433962 0.623498142 -0.7309449
vn 0.371290982 -0.332273871 -0.8670277
vn 0.0107698925 0.240421757 -0.9706088
vn 0.353916645 0.410960346 -0.840151548
vn 0.7339514 0.586132944 -0.343166947
vn 0.7547617 0.6455805 0.116450146
vn 0.337391883 -0.523439646 0.782417834
vn 0.663074434 -0.4723439 0.5807095
vn 0.8373623 -0.427677155 -0.340465277
vn 0.8859071 -0.440988064 0.143868551
vn 0.8938972 -0.4275673 0.134662658
vn 0.782454133 -0.469808549 -0.40871188
vn 0.4004382 -0.240644813 -0.8841602
vn 0.0201441515 -0.296946436 -0.954681635
vn -0.0108082881 0.5011802 0.865275443
vn -0.0107015632 -0.544439435 0.8387319
vn -0.00726866443 -0.5080073 0.8613221
vn 0.563043356 0.8252559 0.0439879447
vn 0.9173051 0.3961254 -0.04044788
vn 0.8707725 -0.421045065 0.253921837
vn 0.9921398 0.119099572 -0.03839037
vn 0.8872468 0.0538414568 -0.4581421
vn 0.186581388 -0.5123685 -0.8382517
vn 0.2916805 0.9409093 -0.172081888
vn -0.07461513 0.9275196 0.366251171
vn -0.5960657 0.7775243 0.200403661
vn -0.0111001879 0.8794585 0.4758461
vn -0.5959038 0.7008165 0.392115921
vn -0.0434907638 0.5947803 -0.80271095
vn 0.2916805 0.9409093 -0.172081888
vn -0.5960657 0.7775243 0.200403661
vn 0.0577706 0.6302356 0.7742517
vn 0.0251171067 0.9993163 -0.0271308664
vn -0.235592291 0.812701046 0.532928944
vn 0.04370996 0.136916146 0.9896178
vn -0.285713822 0.912837744 0.291710317
vn 0.06392117 0.99253273 -0.103888504
vn -0.285713822 0.912837744 0.291710317
vn 0.03789794 0.501742959 0.864186168
vn -0.5959038 0.7008165 0.392115921
vn -0.285713822 0.912837744 0.291710317
vn 0.7244509 0.209575668 -0.6566954
vn 0.746829 0.533971 0.396385431
vn 0.9291717 -0.03421757 0.368061274
vn 0.08128252 -0.00125228555 0.996690333
vn 0.8188093 -0.07304084 -0.5694
vn 0.06392117 0.99253273 -0.103888504
vn -0.05452749 -0.2097724 -0.9762286
vn -0.0158575587 -0.220994234 -0.9751462
vn 0.9683013 -0.2465406 0.0401293859
vn 0.0476350561 0.624486864 0.779581368
vn 0.0251171067 0.9993163 -0.0271308664
vn -0.9659256 -0.241869479 0.09212443
vn -0.363192677 0.418605238 0.83238256
vn -0.433694929 -0.0438443758 0.8999924
vn -0.828488231 0.04299189 0.5583537
vn -0.700541556 0.5559633 0.447377175
vn -0.01411117 0.438213378 0.8987602
vn -0.0104223955 -0.08117392 0.996645451
vn -0.3900715 -0.199576929 0.898895562
vn 0.02619385 -0.181712657 0.9830027
vn 0.036116343 -0.0981118754 0.9945198
vn -0.4260214 -0.118451089 0.8969254
vn -0.468150675 0.8815934 0.0602332
vn -0.461053669 0.6688286 0.583179057
vn -0.7042552 0.6903028 0.165851414
vn -0.564225137 0.452347875 -0.6906746
vn -0.5931383 0.5461769 0.591504633
vn -0.5544528 0.24943985 0.793953359
vn -0.293121159 0.287249118 0.911903441
vn -0.0492752679 -0.1655563 -0.984968543
vn -0.138468966 -0.220781758 -0.9654438
vn -0.170099378 0.316128224 -0.933343
vn -0.910164654 -0.187156022 0.3695578
vn -0.5544528 0.24943985 0.793953359
vn -0.961179256 -0.235221222 0.144240737
vn -0.564225137 0.452347875 -0.6906746
vn -0.910164654 -0.187156022 0.3695578
vn -0.509287059 -0.546072245 -0.6651554
vn -0.577625334 -0.314738184 -0.7531858
vn -0.461053669 0.6688286 0.583179057
vn -0.468150675 0.8815934 0.0602332
vn -0.9005864 0.429991543 0.06365011
vn -0.878327847 0.141610414 0.456603438
vn -0.7399921 0.264724284 -0.618330657
vn -0.3826111 0.77230984 -0.507095933
vn -0.7977763 -0.201647863 0.5682351
vn -0.0114070009 -0.478233635 -0.878158569
vn -0.423903883 -0.0777439 -0.9023643
vn -0.986049354 0.154193953 0.06269696
vn -0.9299064 -0.08782077 0.3571576
vn -0.8137557 0.120194934 0.568643
vn -0.408681333 0.107684575 0.906302154
vn -0.8137557 0.120194934 0.568643
vn -0.7977763 -0.201647863 0.5682351
vn -0.9595264 -0.227086991 0.166555062
vn -0.98308897 0.0860718 0.161640733
vn -0.9537054 -0.259655982 -0.151739359
vn -0.9371301 0.0256437976 -0.348036677
vn -0.347926348 -0.201330081 -0.9156492
vn -0.9191039 0.00753044 -0.39394325
vn -0.700541556 0.5559633 0.447377175
vn -0.828488231 0.04299189 0.5583537
vn -0.9859777 -0.038142968 0.162459552
vn -0.893035352 0.441967845 0.0845713839
vn -0.01305433 0.123233877 0.9922918
vn -0.36133033 0.5330756 0.765029967
vn -0.653569937 0.6170008 0.43835637
vn -0.7497181 -0.428181618 0.5045624
vn -0.3597703 -0.5207201 0.7742195
vn -0.347909749 -0.331021219 -0.877145231
vn -0.260580152 0.6242341 -0.7364983
vn -0.363192677 0.418605238 0.83238256
vn -0.33439967 0.411645561 -0.8477764
vn -0.721919954 0.5920365 -0.358223915
vn -0.740876853 0.576791763 -0.344111532
vn -0.7351736 0.6710699 0.09583823
vn -0.363753378 -0.531339049 0.76508975
vn -0.667061746 -0.4868998 0.563877
vn -0.8866588 -0.4409402 0.139312148
vn -0.898496747 -0.426603228 0.103505149
vn -0.773104846 -0.467292637 -0.428889871
vn -0.8242342 -0.427282 -0.371575177
vn -0.377764255 -0.212845579 -0.9011054
vn -0.01411117 0.438213378 0.8987602
vn -0.468150675 0.8815934 0.0602332
vn -0.9005864 0.429991543 0.06365011
vn -0.871024966 -0.376598179 0.315419227
vn -0.9246002 0.0552742481 -0.376907468
vn -0.986049354 0.154193953 0.06269696
vn -0.6277679 -0.342197925 -0.699148059
vn 0.1881103 0.927703142 0.322461516
vn -0.2075872 0.959062338 -0.192631736
vn 0.715408266 0.6745291 0.182212889
vn 0.6748203 0.676050365 0.295928121
vn 0.290243536 0.816112161 0.4997196
vn -0.2075872 0.959062338 -0.192631736
vn 0.715408266 0.6745291 0.182212889
vn 0.0577706 0.6302356 0.7742517
vn 0.24571982 0.7953481 0.5541147
vn 0.04370996 0.136916146 0.9896178
vn 0.3421163 0.907549262 0.2435381
vn 0.3421163 0.907549262 0.2435381
vn 0.6748203 0.676050365 0.295928121
vn -0.643034041 0.609319866 0.463935852
vn -0.782758534 0.260048568 -0.565388262
vn 0.3421163 0.907549262 0.2435381
vn -0.873633444 0.111485474 0.473640829
vn -0.856993258 0.0213452168 -0.5148853
vn 0.0476350561 0.624486864 0.779581368
vn 0.0251171067 0.9993163 -0.0271308664
vn -0.403896481 -0.798191547 0.446942836
vn -0.9857135 -0.140697449 0.09259124
vn -0.339188933 -0.6696557 0.660690665
vn 0.8707725 -0.421045065 0.253921837
vn 0.9683013 -0.2465406 0.0401293859
vn 0.621771753 0.05845249 0.7810142
vn 0.5457603 0.4042219 0.7339962
vn 0.917031348 0.398296863 0.0203265119
vn 0.5115233 0.240998313 -0.824781
vn 0.384267867 0.4561657 -0.802652538
vn 0.7104759 0.703307152 0.0241464563
vn 0.278868377 0.300187439 -0.9122061
vn 0.498091847 -0.0690076 -0.864374042
vn -0.381091416 -0.390764326 -0.8378977
vn -0.6020124 0.00562997069 -0.7984669
vn 0.722022533 0.690516531 -0.0432479568
vn 0.9691069 0.236569643 0.06976078
vn 0.5977422 -0.24500291 -0.7633334
vn 0.989157856 -0.0293001644 0.143903613
vn -0.760508955 0.09743341 0.64197576
vn -0.9710578 -0.168305561 -0.169469759
vn -0.8547279 -0.4981867 -0.145774454
vn -0.710003734 -0.247194618 0.6593857
vn -0.808061957 -0.566412747 -0.161902487
vn -0.6248731 -0.341070533 0.7022852
vn -0.331287563 -0.5665908 -0.754469
vn 0.27841565 -0.0311794132 0.959954441
vn 0.359812 0.0827807263 0.9293453
vn 0.113593481 0.5186849 0.847385645
vn -0.316832244 -0.663889 0.6773985
vn 0.520121753 -0.0146200005 0.853966951
vn 0.9522873 0.303675324 -0.030498378
vn 0.241311163 0.469304323 -0.8494247
vn -0.5740513 -0.138243556 -0.80706495
vn -0.754130542 -0.224326029 -0.6172236
vn 0.2818066 0.3362209 -0.8986326
vn -0.543034434 -0.0369385555 -0.8388976
vn -0.9203988 -0.372735649 -0.118043512
vn -0.9049834 -0.422391951 -0.0508931838
vn 0.8168476 0.576764 0.0101599311
vn 0.235130817 0.412923664 -0.8798906
vn 0.9037225 0.427737921 -0.0180530064
vn -0.9049834 -0.422391951 -0.0508931838
vn -0.9203988 -0.372735649 -0.118043512
vn -0.70061934 0.0226842333 0.7131746
vn -0.485575885 -0.2867715 0.8258197
vn 0.181233764 0.386802256 0.904178262
vn 0.4232299 0.025190359 0.9056721
vn 0.415343344 -0.05114764 0.908225656
vn -0.45916298 -0.513481438 0.724918067
vn 0.861408353 0.5075035 0.0203921329
vn -0.878609061 -0.451912731 0.15434064
vn 0.9325068 -0.314333051 0.177836344
vn 0.6217646 -0.5761934 -0.530480862
vn -0.103566222 -0.826164663 -0.5538285
vn -0.433584154 -0.899531543 -0.0533642881
vn -0.808061957 -0.566412747 -0.161902487
vn -0.433584154 -0.899531543 -0.0533642881
vn -0.377001971 -0.672819555 0.6365402
vn 0.402971148 -0.34502852 0.84768486
vn 0.518514037 0.1627968 -0.8394286
vn -0.8547279 -0.4981867 -0.145774454
vn -0.9710578 -0.168305561 -0.169469759
vn -0.878609061 -0.451912731 0.15434064
vn -0.4519962 -0.177544668 -0.87417233
vn 0.954593062 -0.100901745 0.280305147
vn 0.9921398 0.119099572 -0.03839037
vn -0.86012 -0.50985074 0.01567892
vn -0.86012 -0.50985074 0.01567892
vn 0.8872468 0.0538414568 -0.4581421
vn 0.186581388 -0.5123685 -0.8382517
vn -0.9659256 -0.241869479 0.09212443
vn -0.9659256 -0.241869479 0.09212443
vn 0.350597233 -0.9154848 0.197406217
vn 0.09780693 -0.741527259 0.663755357
vn -0.9857135 -0.140697449 0.09259124
vn -0.871024966 -0.376598179 0.315419227
vn -0.5676436 0.0398288146 0.822310448
vn -0.4706393 0.38098073 0.795834363
vn -0.922815 0.370000243 0.107295364
vn -0.6948673 0.710841238 0.108922519
vn -0.4575647 0.4693859 -0.755189657
vn -0.588240743 0.239110783 -0.7725276
vn -0.3554351 0.293616772 -0.8873867
vn 0.550580442 0.0397056341 -0.83383733
vn 0.334492862 -0.369081944 -0.867117643
vn -0.5635597 -0.09829612 -0.8202063
vn -0.753347754 0.657575846 0.007820457
vn -0.9710602 0.1941449 0.139103666
vn -0.646162748 -0.281562865 -0.7093631
vn -0.9739316 -0.09020083 0.208137169
vn 0.798000753 0.132698655 0.5878655
vn 0.767361164 -0.208171755 0.6064828
vn 0.8638678 -0.46122992 -0.202482879
vn 0.96350193 -0.125611618 -0.2364016
vn 0.689807 -0.299805373 0.6590016
vn 0.819077 -0.5307812 -0.217679009
vn 0.3034598 -0.5584057 -0.7720721
vn -0.2010378 -0.0280233845 0.979182541
vn -0.297393769 0.07514139 0.951793432
vn -0.076003015 0.5154093 0.8535671
vn -0.477534115 -0.05781241 0.8767091
vn 0.4588799 -0.636629045 0.6197844
vn -0.9656241 0.253706753 0.05659512
vn -0.294119567 0.4708717 -0.831729233
vn -0.37757346 0.326787025 -0.866399765
vn 0.646384537 -0.117854647 -0.753855
vn 0.5380106 -0.062446218 -0.8406218
vn 0.916227043 -0.3832812 -0.116719678
vn 0.925492644 -0.331565 -0.183106542
vn 0.4879314 -0.00519948 -0.8728665
vn -0.837146938 0.5427969 0.06750198
vn -0.923252642 0.3812575 0.04740518
vn -0.307649463 0.4127024 -0.8573381
vn 0.916227043 -0.3832812 -0.116719678
vn 0.5497662 -0.27111277 0.7900981
vn 0.7461277 0.0523706451 0.66374
vn 0.925492644 -0.331565 -0.183106542
vn -0.135469869 0.377399772 0.916088045
vn -0.3635543 -0.00236305781 0.93157
vn 0.5313525 -0.503543735 0.681254864
vn -0.3506005 -0.08604813 0.932563663
vn -0.8789292 0.464769334 0.107111655
vn 0.9469813 -0.321008474 -0.0134136667
vn -0.6414615 -0.5972302 -0.481500983
vn -0.8830642 -0.376815856 0.279655874
vn 0.819077 -0.5307812 -0.217679009
vn 0.4686125 -0.8796997 -0.08081282
vn 0.100683831 -0.8246674 -0.556584656
vn 0.4513962 -0.6508136 0.6104778
vn 0.4686125 -0.8796997 -0.08081282
vn -0.3187534 -0.353750616 0.8793502
vn -0.607722163 0.161369726 -0.7775819
vn 0.8638678 -0.46122992 -0.202482879
vn 0.96350193 -0.125611618 -0.2364016
vn 0.9469813 -0.321008474 -0.0134136667
vn 0.397591174 -0.235253453 -0.8868918
vn -0.9299064 -0.08782077 0.3571576
vn -0.986049354 0.154193953 0.06269696
vn 0.889390051 -0.4524615 -0.0652986541
vn 0.889390051 -0.4524615 -0.0652986541
vn -0.9246002 0.0552742481 -0.376907468
vn -0.6277679 -0.342197925 -0.699148059
vn -0.403896481 -0.798191547 0.446942836
vn -0.403896481 -0.798191547 0.446942836
vn -0.2828348 -0.9325863 0.224248186
vn 0.800238431 0.251275539 0.5444989
vn 0.338677824 0.1364865 0.930950463
vn 0.163847372 0.1032472 0.981067836
vn 0.843628764 0.269677222 0.464289427
vn -0.0284586381 -0.083871834 0.9960701
vn 2.90155622E-05 -0.707012534 0.707201064
vn 0.663074434 -0.4723439 0.5807095
vn 0.337391883 -0.523439646 0.782417834
vn -0.00726866443 -0.5080073 0.8613221
vn -0.00118985691 -0.332692355 -0.943034649
vn -0.174534231 -0.140016556 -0.974645138
vn -0.6362224 -0.573880136 -0.515638053
vn -0.280210584 0.3023031 -0.91109544
vn -0.196001753 -0.105426349 -0.9749198
vn -0.93206805 -0.312657863 -0.183014184
vn -0.9785519 0.09854933 -0.180898175
vn 0.88167274 0.24707149 -0.402006
vn 0.8387826 -0.122240759 -0.530566633
vn 0.6528218 -0.102516882 -0.750542462
vn -0.302910656 -0.222899631 -0.9265856
vn -0.76206553 0.008501413 0.6474441
vn -0.9785519 0.09854933 -0.180898175
vn -0.93206805 -0.312657863 -0.183014184
vn -0.7224117 -0.273808271 0.6349413
vn -0.5440475 -0.6931208 0.472859323
vn -0.881333649 -0.4182968 -0.219724268
vn -0.881333649 -0.4182968 -0.219724268
vn 0.1609348 -0.7194755 0.675614536
vn 0.8344371 -0.528295159 0.15690437
vn 0.838114262 -0.248660579 0.4855228
vn 0.117243648 -0.256296873 0.9594612
vn -0.5291023 -0.6736305 0.5160161
vn -0.6193386 -0.6409426 0.453445
vn 0.00892744 -0.997953236 -0.06332196
vn 0.8469032 0.107713111 0.520723343
vn 0.155745342 -0.0530620851 0.98637104
vn 0.234495431 -0.658934951 0.7147144
vn 0.8203338 0.150421008 -0.5517481
vn 0.8115375 0.009231622 -0.5842274
vn 0.057731688 0.248017758 0.967033744
vn 0.8594034 0.294678867 0.4178399
vn 0.980186343 0.19794032 -0.00737001467
vn -0.07173623 -0.07789563 -0.994377255
vn 0.0201441515 -0.296946436 -0.954681635
vn 0.4004382 -0.240644813 -0.8841602
vn 0.5140494 0.03356721 -0.8571035
vn 0.0248591937 -0.328965038 -0.944014847
vn 0.8942259 0.198626012 -0.4011331
vn 0.9731248 0.213263378 0.08687244
vn 0.04569248 -0.7643503 -0.643180251
vn 0.782454133 -0.469808549 -0.40871188
vn 0.8938972 -0.4275673 0.134662658
vn 0.9079023 -0.3627929 0.209987447
vn -0.9555622 -0.03237899 -0.293006122
vn -0.9678513 -0.156374216 -0.197005063
vn -0.251567841 0.190240532 -0.948958457
vn 0.8121269 0.278182924 -0.5128979
vn -0.805907547 0.0576554574 0.5892274
vn -0.9555622 -0.03237899 -0.293006122
vn -0.7964793 0.04959593 0.60262835
vn 0.09348664 0.233643621 0.9678176
vn -0.805943251 0.079647705 0.5866103
vn 0.09726754 -0.0158698633 0.995131731
vn 0.866778255 0.202820063 0.45558697
vn 0.8745429 0.138686031 0.46469447
vn -0.9678513 -0.156374216 -0.197005063
vn 0.5941539 -0.520206153 -0.613487363
vn -0.27974236 -0.480959624 -0.8309164
vn -0.736041 -0.655742466 -0.168063864
vn -0.736041 -0.655742466 -0.168063864
vn -0.5067649 -0.726465762 0.46415177
vn 0.1994484 -0.7391768 0.6433024
vn 0.7589292 -0.618701458 0.203064
vn 0.00892744 -0.997953236 -0.06332196
vn 0.00643322058 -0.9912536 -0.131813779
vn -0.814362 0.176922172 0.552732348
vn -0.838884056 0.242573291 0.48726964
vn -0.171214521 -0.0241446737 0.9849379
vn -0.424517125 0.0227480941 0.9051341
vn -0.363753378 -0.531339049 0.76508975
vn -0.667061746 -0.4868998 0.563877
vn 0.07671044 -0.269526929 -0.9599327
vn 0.692011654 -0.526150465 -0.4942525
vn 0.244282112 -0.0590018965 -0.967907548
vn 0.32287398 0.35081 -0.879024863
vn 0.9853801 0.110700004 -0.1295048
vn 0.938557148 -0.309089273 -0.15353924
vn 0.240471363 -0.0659288242 -0.968414664
vn -0.814584851 -0.09683571 -0.5719042
vn -0.8559947 0.2779389 -0.435916275
vn 0.344472378 -0.182378232 -0.920910954
vn -0.61801964 -0.065712966 -0.783411443
vn 0.734225452 -0.0389430821 0.6777879
vn 0.6905381 -0.304757625 0.6559572
vn 0.938557148 -0.309089273 -0.15353924
vn 0.9853801 0.110700004 -0.1295048
vn 0.519890547 -0.715845942 0.4661313
vn 0.8894386 -0.4119748 -0.197928444
vn 0.8894386 -0.4119748 -0.197928444
vn -0.194099292 -0.7467919 0.6361033
vn -0.16411081 -0.298809916 0.9400959
vn -0.8607548 -0.265736 0.4341492
vn -0.8420962 -0.5308998 0.09497005
vn 0.5032603 -0.6985365 0.508700132
vn 0.580712438 -0.6690542 0.4638313
vn -0.207445338 -0.137359187 0.968555033
vn -0.87368536 0.07483317 0.480701476
vn -0.268596441 -0.689338 0.6728068
vn -0.790736735 0.194336712 -0.580490053
vn -0.797061145 0.0566677377 -0.601234
vn -0.8790246 0.267001718 0.395001
vn -0.1516552 0.19878006 0.968239248
vn -0.979146242 0.201705456 -0.0242395345
vn 0.145152181 -0.04501278 -0.9883849
vn -0.377764255 -0.212845579 -0.9011054
vn -0.487494677 0.1122339 -0.8658825
vn -0.8879416 0.232164621 -0.397063315
vn -0.9782019 0.201026931 0.0520497561
vn -0.773104846 -0.467292637 -0.428889871
vn -0.898496747 -0.426603228 0.103505149
vn -0.9174552 -0.367759168 0.1517536
vn 0.971487761 -0.00282818545 -0.237072766
vn 0.299419135 0.256966 -0.918867052
vn 0.9847808 -0.140883833 -0.101776958
vn -0.7910376 0.3198166 -0.521514
vn 0.77173996 -0.00761082256 0.6358927
vn 0.7665712 -0.005599981 0.642134845
vn 0.971487761 -0.00282818545 -0.237072766
vn -0.1545737 0.154988274 0.9757487
vn 0.728455961 0.04223323 0.6837896
vn -0.146871626 -0.124063984 0.9813444
vn -0.886249363 0.171671689 0.4302219
vn -0.8975803 0.100332312 0.42928195
vn 0.9847808 -0.140883833 -0.101776958
vn 0.316313118 -0.444371641 -0.8381407
vn -0.5667171 -0.489403248 -0.6628094
vn 0.741349459 -0.6508434 -0.163719088
vn 0.483191162 -0.748884737 0.453539371
vn 0.741349459 -0.6508434 -0.163719088
vn -0.23051405 -0.7664455 0.5995202
vn -0.7689512 -0.623768747 0.140094876
vn -0.00282906624 -0.984284937 -0.176564842
vn 0.3411416 0.284895867 0.8957995
vn -0.030846063 0.177221552 0.98368746
vn -0.07653858 0.211438224 0.9743899
vn 0.251437783 0.309104651 0.91718775
vn 0.7315446 0.3432072 0.589110553
vn 0.7447756 0.31727317 0.587066531
vn 0.353452235 0.266593248 0.8966602
vn -0.00953303 0.2542541 0.9670905
vn -0.128232747 0.226392761 0.965558231
vn 0.2012982 0.246454224 0.94801867
vn 0.54743576 0.133009315 0.8262098
vn 0.421966076 0.09768816 0.9013333
vn 0.361151 0.0390686356 0.931688547
vn 0.6672712 0.3189931 0.6730472
vn 0.571318448 0.24058938 0.784673154
vn 0.761643 0.2352401 0.603789747
vn 0.847970963 0.308622241 0.430926353
vn 0.08231699 0.0937830657 0.9921838
vn 0.1287387 0.115587287 0.98491925
vn -0.227814332 0.12279997 0.965930045
vn -0.26503253 0.120727509 0.9566518
vn 0.171077833 0.205241367 0.963643253
vn -0.176039129 0.1739365 0.968894362
vn 0.5190504 0.200821817 0.8308172
vn 0.678451538 0.189305782 0.709835768
vn 0.142472729 -0.0834565163 -0.986274064
vn 0.519281447 0.299414068 -0.800436139
vn 0.547879934 0.00651745871 -0.8365316
vn 0.08070129 -0.08239698 -0.9933268
vn -0.0121459737 0.2017925 -0.979353
vn 0.0396715663 0.187984064 -0.981370568
vn 0.0229017865 0.544831336 -0.8382329
vn 0.209864989 -0.05455286 -0.9762073
vn 0.136724427 -0.008672007 -0.990571141
vn 0.316931427 0.164911 -0.9340015
vn 0.3119223 0.129754364 -0.94120574
vn 0.431497127 0.0339091644 -0.9014768
vn 0.5275776 -0.00368315983 -0.849498868
vn 0.4278906 -0.06492752 -0.901495457
vn 0.310477674 0.190852344 -0.931224465
vn 0.272327244 0.190998763 -0.9430575
vn 0.252332628 0.0285370965 -0.967219651
vn 0.191627324 0.0846066 -0.977814257
vn 0.3881345 -0.00745329447 -0.9215726
vn 0.359218985 0.5412128 -0.7602963
vn 0.588492632 0.426238745 -0.687020361
vn 0.7261257 0.3074834 -0.6149759
vn 0.772914 0.08917443 -0.6282132
vn 0.88679266 0.328485459 0.325109333
vn 0.895884335 0.300743669 0.327023655
vn -0.4075691 0.226357549 0.8846749
vn -0.350261658 0.220929459 0.910223544
vn -0.07653858 0.211438224 0.9743899
vn -0.764166951 0.295199245 0.5735035
vn -0.394333363 0.241144791 0.886764
vn -0.766083539 0.279418021 0.578827739
vn -0.3281807 0.180628046 0.9271844
vn -0.5872865 0.07589674 0.8058128
vn -0.405442119 -0.0218771547 0.9138589
vn -0.465206861 0.036344476 0.884455562
vn -0.7044923 0.2560906 0.6618974
vn -0.872520447 0.269442976 0.4075641
vn -0.790383756 0.191662267 0.581858337
vn -0.6090446 0.183385715 0.7716439
vn -0.392826051 0.0305360071 0.919105649
vn -0.350155771 0.0427647419 0.9357148
vn -0.341745049 0.134815916 0.9300726
vn -0.5589878 0.141145065 0.8170745
vn -0.7122741 0.13851738 0.6880978
vn -0.0266582873 -0.0132104056 -0.9995573
vn -0.4962594 0.0710204542 -0.865264535
vn -0.482606024 0.350578934 -0.8026119
vn 0.08070129 -0.08239698 -0.9933268
vn 0.08208768 0.24202919 -0.9667903
vn 0.0396715663 0.187984064 -0.981370568
vn -0.067223534 0.001061322 -0.997737348
vn 0.106678285 0.214966953 -0.9707775
vn -0.486603975 0.05511708 -0.87188226
vn -0.387660354 0.100367725 -0.9163219
vn -0.0412990935 0.2019883 -0.9785168
vn -0.40310812 0.00143145351 -0.915151238
vn -0.06931397 0.100388631 -0.992530942
vn -0.343043357 0.061522305 -0.937302649
vn -0.337522775 0.5673267 -0.751144946
vn -0.70599407 0.333409727 -0.6248282
vn -0.562292635 0.4501206 -0.693699062
vn -0.7768372 0.129515022 -0.6162384
vn -0.913118362 0.267351449 0.307795525
vn -0.907699764 0.30219695 0.29113248
vn 0.220985115 -0.3548677 0.9084242
vn -0.5424699 -0.4219611 0.7264126
vn -0.8894817 -0.16584979 0.425812274
vn 0.152642027 -0.1988165 0.968076646
vn 0.9922543 -0.108379722 0.0607061274
vn 0.9284994 -0.208415538 0.307330132
vn 0.761816 0.111342892 -0.638152838
vn -0.882709563 -0.105495907 -0.4579241
vn -0.9768123 -0.207885742 -0.0511979051
vn -0.359023333 0.13043049 -0.924169958
vn 0.301879317 0.0228446983 -0.953072369
vn -0.8894817 -0.16584979 0.425812274
vn -0.5424699 -0.4219611 0.7264126
vn -0.263222843 -0.3943522 0.8804545
vn 0.8686402 -0.188846856 0.458040565
vn 0.50759846 -0.456644177 0.7306298
vn -0.19729875 -0.241451845 0.9501443
vn -0.994256735 -0.1065135 0.0104105156
vn -0.942108154 -0.217824176 0.254921317
vn -0.731519341 0.143366247 -0.666577458
vn 0.9024902 -0.08878821 -0.421459436
vn 0.4012843 0.170228377 -0.8999962
vn 0.9776179 -0.209786773 -0.0158975665
vn -0.257863432 0.06703938 -0.963852763
vn 0.50759846 -0.456644177 0.7306298
vn 0.8686402 -0.188846856 0.458040565
usemtl 9011002402_part_0_material_0
f 1/1/1 2/2/2 3/3/3
f 3/3/3 4/4/4 1/1/1
f 1/1/1 4/4/4 5/5/5
f 5/5/5 6/6/6 1/1/1
f 7/7/7 8/8/8 9/9/9
f 9/9/9 10/10/10 7/7/7
f 11/11/11 12/12/12 13/13/13
f 14/14/14 12/12/12 11/11/11
f 13/13/13 12/12/12 15/15/15
f 15/15/15 16/16/16 17/17/17
f 17/17/17 13/13/13 15/15/15
f 18/18/18 19/19/19 20/20/20
f 20/20/20 21/21/21 18/18/18
f 22/22/22 23/23/23 17/17/17
f 24/24/24 25/25/25 20/20/20
f 20/20/20 19/19/19 24/24/24
f 22/22/22 17/17/17 8/8/8
f 21/21/21 26/26/26 27/27/27
f 13/13/13 28/28/28 29/29/29
f 29/29/29 11/11/11 13/13/13
f 17/17/17 23/23/23 28/28/28
f 28/28/28 13/13/13 17/17/17
f 20/20/20 30/30/30 31/31/31
f 31/31/31 26/26/26 21/21/21
f 21/21/21 20/20/20 31/31/31
f 22/22/22 8/8/8 7/7/7
f 7/7/7 32/32/32 22/22/22
f 33/33/33 27/27/27 34/34/34
f 34/34/34 35/35/35 33/33/33
f 29/29/29 28/28/28 36/36/36
f 36/36/36 37/37/37 29/29/29
f 21/21/21 27/27/27 33/33/33
f 33/33/33 18/18/18 21/21/21
f 32/32/32 7/7/7 38/38/38
f 38/38/38 39/39/39 32/32/32
f 40/40/40 41/41/41 42/42/42
f 42/42/42 43/43/43 40/40/40
f 41/41/41 40/40/40 34/34/34
f 34/34/34 27/27/27 41/41/41
f 34/34/34 40/40/40 44/44/44
f 44/44/44 45/45/45 34/34/34
f 35/35/35 34/34/34 45/45/45
f 45/45/45 46/46/46 35/35/35
f 44/44/44 47/47/47 48/48/48
f 48/48/48 49/49/49 44/44/44
f 8/8/8 16/16/16 9/9/9
f 38/38/38 7/7/7 10/10/10
f 10/10/10 50/50/50 38/38/38
f 51/51/51 52/52/52 53/53/53
f 53/53/53 54/54/54 51/51/51
f 55/55/55 56/56/56 57/57/57
f 57/57/57 58/58/58 55/55/55
f 2/2/2 1/1/1 51/51/51
f 51/51/51 54/54/54 2/2/2
f 59/59/59 60/60/60 57/57/57
f 57/57/57 56/56/56 59/59/59
f 60/60/60 49/49/49 61/61/61
f 61/61/61 57/57/57 60/60/60
f 61/61/61 49/49/49 48/48/48
f 48/48/48 62/62/62 61/61/61
f 63/63/63 64/64/64 53/53/53
f 53/53/53 52/52/52 63/63/63
f 65/65/65 66/66/66 67/67/67
f 67/67/67 68/68/68 65/65/65
f 68/68/68 69/69/69 58/58/58
f 58/58/58 65/65/65 68/68/68
f 69/69/69 70/70/70 55/55/55
f 55/55/55 58/58/58 69/69/69
f 51/51/51 1/1/1 6/6/6
f 6/6/6 71/71/71 51/51/51
f 72/72/72 73/73/73 63/63/63
f 63/63/63 52/52/52 72/72/72
f 71/71/71 72/72/72 52/52/52
f 52/52/52 51/51/51 71/71/71
f 61/61/61 65/65/65 58/58/58
f 58/58/58 57/57/57 61/61/61
f 65/65/65 61/61/61 62/62/62
f 62/62/62 66/66/66 65/65/65
f 39/39/39 38/38/38 4/4/4
f 4/4/4 3/3/3 39/39/39
f 38/38/38 50/50/50 5/5/5
f 5/5/5 4/4/4 38/38/38
f 49/49/49 60/60/60 45/45/45
f 45/45/45 44/44/44 49/49/49
f 45/45/45 60/60/60 59/59/59
f 59/59/59 46/46/46 45/45/45
f 40/40/40 43/43/43 47/47/47
f 47/47/47 44/44/44 40/40/40
f 25/25/25 74/74/74 30/30/30
f 74/74/74 75/75/75 31/31/31
f 31/31/31 30/30/30 74/74/74
f 25/25/25 30/30/30 20/20/20
f 23/23/23 76/76/76 36/36/36
f 36/36/36 28/28/28 23/23/23
f 31/31/31 75/75/75 77/77/77
f 77/77/77 78/78/78 31/31/31
f 79/79/79 26/26/26 31/31/31
f 31/31/31 78/78/78 79/79/79
f 12/12/12 14/14/14 80/80/80
f 80/80/80 81/81/81 12/12/12
f 82/82/82 83/83/83 84/84/84
f 25/25/25 24/24/24 85/85/85
f 85/85/85 86/86/86 25/25/25
f 87/87/87 88/88/88 89/89/89
f 83/83/83 82/82/82 90/90/90
f 16/16/16 91/91/91 9/9/9
f 16/16/16 15/15/15 83/83/83
f 83/83/83 90/90/90 16/16/16
f 12/12/12 81/81/81 83/83/83
f 83/83/83 15/15/15 12/12/12
f 81/81/81 80/80/80 92/92/92
f 92/92/92 84/84/84 81/81/81
f 86/86/86 85/85/85 93/93/93
f 93/93/93 94/94/94 86/86/86
f 95/95/95 88/88/88 87/87/87
f 96/96/96 97/97/97 98/98/98
f 98/98/98 99/99/99 96/96/96
f 95/95/95 99/99/99 100/100/100
f 100/100/100 101/101/101 95/95/95
f 102/102/102 100/100/100 99/99/99
f 99/99/99 98/98/98 102/102/102
f 103/103/103 104/104/104 98/98/98
f 98/98/98 97/97/97 103/103/103
f 105/105/105 102/102/102 98/98/98
f 98/98/98 104/104/104 105/105/105
f 87/87/87 99/99/99 95/95/95
f 87/87/87 96/96/96 99/99/99
f 8/8/8 17/17/17 16/16/16
f 42/42/42 41/41/41 106/106/106
f 90/90/90 107/107/107 91/91/91
f 91/91/91 16/16/16 90/90/90
f 82/82/82 108/108/108 90/90/90
f 108/108/108 107/107/107 90/90/90
f 83/83/83 81/81/81 84/84/84
f 109/109/109 41/41/41 79/79/79
f 76/76/76 23/23/23 22/22/22
f 22/22/22 106/106/106 76/76/76
f 41/41/41 109/109/109 106/106/106
f 110/110/110 111/111/111 112/112/112
f 112/112/112 113/113/113 110/110/110
f 110/110/110 114/114/114 115/115/115
f 115/115/115 111/111/111 110/110/110
f 116/116/116 117/117/117 118/118/118
f 118/118/118 119/119/119 116/116/116
f 120/120/120 121/121/121 122/122/122
f 123/123/123 120/120/120 122/122/122
f 121/121/121 124/124/124 122/122/122
f 124/124/124 121/121/121 125/125/125
f 125/125/125 126/126/126 124/124/124
f 127/127/127 128/128/128 129/129/129
f 129/129/129 19/19/19 127/127/127
f 130/130/130 131/131/131 132/132/132
f 24/24/24 19/19/19 129/129/129
f 129/129/129 133/133/133 24/24/24
f 134/134/134 119/119/119 125/125/125
f 128/128/128 135/135/135 136/136/136
f 137/137/137 138/138/138 139/139/139
f 139/139/139 140/140/140 137/137/137
f 131/131/131 140/140/140 132/132/132
f 140/140/140 131/131/131 137/137/137
f 129/129/129 141/141/141 142/142/142
f 141/141/141 129/129/129 128/128/128
f 128/128/128 136/136/136 141/141/141
f 134/134/134 116/116/116 119/119/119
f 116/116/116 134/134/134 143/143/143
f 144/144/144 35/35/35 145/145/145
f 145/145/145 135/135/135 144/144/144
f 139/139/139 146/146/146 147/147/147
f 147/147/147 140/140/140 139/139/139
f 128/128/128 127/127/127 144/144/144
f 144/144/144 135/135/135 128/128/128
f 143/143/143 148/148/148 149/149/149
f 149/149/149 116/116/116 143/143/143
f 150/150/150 151/151/151 152/152/152
f 152/152/152 153/153/153 150/150/150
f 154/154/154 135/135/135 145/145/145
f 145/145/145 155/155/155 154/154/154
f 145/145/145 156/156/156 157/157/157
f 157/157/157 155/155/155 145/145/145
f 35/35/35 46/46/46 156/156/156
f 156/156/156 145/145/145 35/35/35
f 158/158/158 159/159/159 160/160/160
f 160/160/160 161/161/161 158/158/158
f 119/119/119 118/118/118 126/126/126
f 149/149/149 162/162/162 117/117/117
f 117/117/117 116/116/116 149/149/149
f 163/163/163 164/164/164 165/165/165
f 165/165/165 166/166/166 163/163/163
f 55/55/55 167/167/167 168/168/168
f 168/168/168 56/56/56 55/55/55
f 158/158/158 164/164/164 163/163/163
f 163/163/163 169/169/169 158/158/158
f 59/59/59 56/56/56 168/168/168
f 168/168/168 170/170/170 59/59/59
f 170/170/170 168/168/168 171/171/171
f 171/171/171 172/172/172 170/170/170
f 158/158/158 161/161/161 173/173/173
f 173/173/173 164/164/164 158/158/158
f 174/174/174 166/166/166 165/165/165
f 165/165/165 175/175/175 174/174/174
f 175/175/175 165/165/165 176/176/176
f 176/176/176 177/177/177 175/175/175
f 178/178/178 179/179/179 167/167/167
f 167/167/167 180/180/180 178/178/178
f 180/180/180 167/167/167 55/55/55
f 55/55/55 70/70/70 180/180/180
f 163/163/163 71/71/71 181/181/181
f 181/181/181 169/169/169 163/163/163
f 72/72/72 166/166/166 174/174/174
f 174/174/174 73/73/73 72/72/72
f 71/71/71 163/163/163 166/166/166
f 166/166/166 72/72/72 71/71/71
f 171/171/171 168/168/168 167/167/167
f 167/167/167 179/179/179 171/171/171
f 176/176/176 165/165/165 164/164/164
f 164/164/164 173/173/173 176/176/176
f 148/148/148 112/112/112 111/111/111
f 111/111/111 149/149/149 148/148/148
f 149/149/149 111/111/111 115/115/115
f 115/115/115 162/162/162 149/149/149
f 172/172/172 157/157/157 156/156/156
f 156/156/156 170/170/170 172/172/172
f 156/156/156 46/46/46 59/59/59
f 59/59/59 170/170/170 156/156/156
f 160/160/160 159/159/159 150/150/150
f 150/150/150 153/153/153 160/160/160
f 133/133/133 142/142/142 182/182/182
f 182/182/182 142/142/142 141/141/141
f 141/141/141 183/183/183 182/182/182
f 133/133/133 129/129/129 142/142/142
f 132/132/132 140/140/140 147/147/147
f 147/147/147 184/184/184 132/132/132
f 141/141/141 185/185/185 186/186/186
f 186/186/186 183/183/183 141/141/141
f 187/187/187 185/185/185 141/141/141
f 141/141/141 136/136/136 187/187/187
f 122/122/122 188/188/188 189/189/189
f 189/189/189 123/123/123 122/122/122
f 190/190/190 191/191/191 192/192/192
f 133/133/133 193/193/193 85/85/85
f 85/85/85 24/24/24 133/133/133
f 194/194/194 89/89/89 195/195/195
f 192/192/192 196/196/196 190/190/190
f 126/126/126 118/118/118 197/197/197
f 126/126/126 196/196/196 192/192/192
f 192/192/192 124/124/124 126/126/126
f 122/122/122 124/124/124 192/192/192
f 192/192/192 188/188/188 122/122/122
f 188/188/188 191/191/191 198/198/198
f 198/198/198 189/189/189 188/188/188
f 193/193/193 199/199/199 93/93/93
f 93/93/93 85/85/85 193/193/193
f 95/95/95 194/194/194 195/195/195
f 200/200/200 201/201/201 202/202/202
f 202/202/202 203/203/203 200/200/200
f 95/95/95 101/101/101 204/204/204
f 204/204/204 201/201/201 95/95/95
f 205/205/205 202/202/202 201/201/201
f 201/201/201 204/204/204 205/205/205
f 103/103/103 203/203/203 202/202/202
f 202/202/202 104/104/104 103/103/103
f 105/105/105 104/104/104 202/202/202
f 202/202/202 205/205/205 105/105/105
f 194/194/194 95/95/95 201/201/201
f 194/194/194 201/201/201 200/200/200
f 119/119/119 126/126/126 125/125/125
f 151/151/151 130/130/130 152/152/152
f 196/196/196 126/126/126 197/197/197
f 197/197/197 206/206/206 196/196/196
f 190/190/190 196/196/196 207/207/207
f 207/207/207 196/196/196 206/206/206
f 192/192/192 191/191/191 188/188/188
f 208/208/208 187/187/187 154/154/154
f 130/130/130 132/132/132 184/184/184
f 184/184/184 209/209/209 130/130/130
f 154/154/154 209/209/209 208/208/208
f 135/135/135 154/154/154 136/136/136
f 26/26/26 41/41/41 27/27/27
f 41/41/41 26/26/26 79/79/79
f 187/187/187 136/136/136 154/154/154
f 210/210/210 211/211/211 212/212/212
f 213/213/213 214/214/214 211/211/211
f 215/215/215 216/216/216 217/217/217
f 217/217/217 218/218/218 215/215/215
f 219/219/219 220/220/220 221/221/221
f 221/221/221 222/222/222 219/219/219
f 223/223/223 224/224/224 220/220/220
f 220/220/220 219/219/219 223/223/223
f 225/225/225 220/220/220 224/224/224
f 224/224/224 226/226/226 225/225/225
f 227/227/227 228/228/228 229/229/229
f 229/229/229 230/230/230 227/227/227
f 229/229/229 231/231/231 232/232/232
f 232/232/232 230/230/230 229/229/229
f 225/225/225 233/233/233 221/221/221
f 221/221/221 220/220/220 225/225/225
f 234/234/234 226/226/226 224/224/224
f 224/224/224 235/235/235 234/234/234
f 236/236/236 235/235/235 224/224/224
f 224/224/224 223/223/223 236/236/236
f 232/232/232 234/234/234 235/235/235
f 235/235/235 230/230/230 232/232/232
f 210/210/210 237/237/237 238/238/238
f 238/238/238 213/213/213 210/210/210
f 239/239/239 213/213/213 238/238/238
f 235/235/235 236/236/236 227/227/227
f 227/227/227 230/230/230 235/235/235
f 240/240/240 241/241/241 242/242/242
f 242/242/242 243/243/243 240/240/240
f 241/241/241 244/244/244 245/245/245
f 245/245/245 246/246/246 241/241/241
f 247/247/247 248/248/248 240/240/240
f 240/240/240 249/249/249 247/247/247
f 250/250/250 251/251/251 252/252/252
f 252/252/252 253/253/253 250/250/250
f 254/254/254 255/255/255 253/253/253
f 253/253/253 252/252/252 254/254/254
f 255/255/255 254/254/254 247/247/247
f 247/247/247 249/249/249 255/255/255
f 255/255/255 256/256/256 257/257/257
f 257/257/257 253/253/253 255/255/255
f 249/249/249 258/258/258 256/256/256
f 256/256/256 255/255/255 249/249/249
f 259/259/259 250/250/250 253/253/253
f 253/253/253 257/257/257 259/259/259
f 248/248/248 219/219/219 222/222/222
f 222/222/222 244/244/244 248/248/248
f 223/223/223 219/219/219 248/248/248
f 248/248/248 247/247/247 223/223/223
f 251/251/251 228/228/228 227/227/227
f 227/227/227 252/252/252 251/251/251
f 252/252/252 227/227/227 236/236/236
f 236/236/236 254/254/254 252/252/252
f 254/254/254 236/236/236 223/223/223
f 223/223/223 247/247/247 254/254/254
f 225/225/225 226/226/226 260/260/260
f 260/260/260 261/261/261 225/225/225
f 233/233/233 262/262/262 263/263/263
f 263/263/263 264/264/264 233/233/233
f 232/232/232 231/231/231 265/265/265
f 265/265/265 266/266/266 232/232/232
f 234/234/234 232/232/232 266/266/266
f 266/266/266 267/267/267 234/234/234
f 243/243/243 268/268/268 239/239/239
f 239/239/239 258/258/258 243/243/243
f 249/249/249 240/240/240 243/243/243
f 243/243/243 258/258/258 249/249/249
f 226/226/226 234/234/234 267/267/267
f 267/267/267 260/260/260 226/226/226
f 269/269/269 270/270/270 222/222/222
f 222/222/222 221/221/221 269/269/269
f 264/264/264 269/269/269 221/221/221
f 221/221/221 233/233/233 264/264/264
f 241/241/241 246/246/246 271/271/271
f 271/271/271 242/242/242 241/241/241
f 240/240/240 248/248/248 244/244/244
f 244/244/244 241/241/241 240/240/240
f 270/270/270 245/245/245 244/244/244
f 244/244/244 222/222/222 270/270/270
f 225/225/225 261/261/261 262/262/262
f 262/262/262 233/233/233 225/225/225
f 243/243/243 242/242/242 272/272/272
f 272/272/272 268/268/268 243/243/243
f 273/273/273 214/214/214 218/218/218
f 218/218/218 274/274/274 273/273/273
f 211/211/211 210/210/210 213/213/213
f 242/242/242 271/271/271 275/275/275
f 275/275/275 272/272/272 242/242/242
f 276/276/276 237/237/237 210/210/210
f 256/256/256 258/258/258 239/239/239
f 239/239/239 238/238/238 256/256/256
f 272/272/272 216/216/216 268/268/268
f 268/268/268 216/216/216 239/239/239
f 276/276/276 259/259/259 257/257/257
f 257/257/257 237/237/237 276/276/276
f 237/237/237 257/257/257 256/256/256
f 256/256/256 238/238/238 237/237/237
f 277/277/277 274/274/274 218/218/218
f 218/218/218 217/217/217 277/277/277
f 214/214/214 213/213/213 215/215/215
f 215/215/215 218/218/218 214/214/214
f 214/214/214 273/273/273 211/211/211
f 278/278/278 277/277/277 217/217/217
f 212/212/212 279/279/279 276/276/276
f 276/276/276 210/210/210 212/212/212
f 275/275/275 280/280/280 278/278/278
f 278/278/278 272/272/272 275/275/275
f 278/278/278 217/217/217 216/216/216
f 272/272/272 278/278/278 216/216/216
f 262/262/262 261/261/261 281/281/281
f 266/266/266 265/265/265 281/281/281
f 267/267/267 266/266/266 281/281/281
f 260/260/260 267/267/267 281/281/281
f 261/261/261 260/260/260 281/281/281
f 263/263/263 262/262/262 281/281/281
f 239/239/239 215/215/215 213/213/213
f 216/216/216 215/215/215 239/239/239
f 282/282/282 283/283/283 284/284/284
f 285/285/285 284/284/284 286/286/286
f 287/287/287 288/288/288 289/289/289
f 289/289/289 290/290/290 287/287/287
f 291/291/291 292/292/292 293/293/293
f 293/293/293 294/294/294 291/291/291
f 295/295/295 291/291/291 294/294/294
f 294/294/294 296/296/296 295/295/295
f 297/297/297 298/298/298 296/296/296
f 296/296/296 294/294/294 297/297/297
f 299/299/299 300/300/300 301/301/301
f 301/301/301 302/302/302 299/299/299
f 301/301/301 300/300/300 303/303/303
f 303/303/303 304/304/304 301/301/301
f 297/297/297 294/294/294 293/293/293
f 293/293/293 305/305/305 297/297/297
f 306/306/306 307/307/307 296/296/296
f 296/296/296 298/298/298 306/306/306
f 308/308/308 295/295/295 296/296/296
f 296/296/296 307/307/307 308/308/308
f 303/303/303 300/300/300 307/307/307
f 307/307/307 306/306/306 303/303/303
f 282/282/282 285/285/285 309/309/309
f 309/309/309 310/310/310 282/282/282
f 311/311/311 309/309/309 285/285/285
f 307/307/307 300/300/300 299/299/299
f 299/299/299 308/308/308 307/307/307
f 312/312/312 313/313/313 314/314/314
f 314/314/314 315/315/315 312/312/312
f 315/315/315 316/316/316 317/317/317
f 317/317/317 318/318/318 315/315/315
f 319/319/319 320/320/320 312/312/312
f 312/312/312 321/321/321 319/319/319
f 322/322/322 323/323/323 324/324/324
f 324/324/324 325/325/325 322/322/322
f 326/326/326 324/324/324 323/323/323
f 323/323/323 327/327/327 326/326/326
f 327/327/327 320/320/320 319/319/319
f 319/319/319 326/326/326 327/327/327
f 327/327/327 323/323/323 328/328/328
f 328/328/328 329/329/329 327/327/327
f 320/320/320 327/327/327 329/329/329
f 329/329/329 330/330/330 320/320/320
f 331/331/331 328/328/328 323/323/323
f 323/323/323 322/322/322 331/331/331
f 321/321/321 318/318/318 292/292/292
f 292/292/292 291/291/291 321/321/321
f 295/295/295 319/319/319 321/321/321
f 321/321/321 291/291/291 295/295/295
f 325/325/325 324/324/324 299/299/299
f 299/299/299 302/302/302 325/325/325
f 324/324/324 326/326/326 308/308/308
f 308/308/308 299/299/299 324/324/324
f 326/326/326 319/319/319 295/295/295
f 295/295/295 308/308/308 326/326/326
f 297/297/297 332/332/332 333/333/333
f 333/333/333 298/298/298 297/297/297
f 305/305/305 334/334/334 335/335/335
f 335/335/335 336/336/336 305/305/305
f 303/303/303 337/337/337 338/338/338
f 338/338/338 304/304/304 303/303/303
f 306/306/306 339/339/339 337/337/337
f 337/337/337 303/303/303 306/306/306
f 313/313/313 330/330/330 311/311/311
f 311/311/311 340/340/340 313/313/313
f 320/320/320 330/330/330 313/313/313
f 313/313/313 312/312/312 320/320/320
f 298/298/298 333/333/333 339/339/339
f 339/339/339 306/306/306 298/298/298
f 341/341/341 293/293/293 292/292/292
f 292/292/292 342/342/342 341/341/341
f 334/334/334 305/305/305 293/293/293
f 293/293/293 341/341/341 334/334/334
f 315/315/315 314/314/314 343/343/343
f 343/343/343 316/316/316 315/315/315
f 312/312/312 315/315/315 318/318/318
f 318/318/318 321/321/321 312/312/312
f 342/342/342 292/292/292 318/318/318
f 318/318/318 317/317/317 342/342/342
f 297/297/297 305/305/305 336/336/336
f 336/336/336 332/332/332 297/297/297
f 313/313/313 340/340/340 344/344/344
f 344/344/344 314/314/314 313/313/313
f 345/345/345 346/346/346 288/288/288
f 288/288/288 286/286/286 345/345/345
f 284/284/284 285/285/285 282/282/282
f 314/314/314 344/344/344 347/347/347
f 347/347/347 343/343/343 314/314/314
f 348/348/348 282/282/282 310/310/310
f 329/329/329 309/309/309 311/311/311
f 311/311/311 330/330/330 329/329/329
f 344/344/344 340/340/340 290/290/290
f 340/340/340 311/311/311 290/290/290
f 348/348/348 310/310/310 328/328/328
f 328/328/328 331/331/331 348/348/348
f 310/310/310 309/309/309 329/329/329
f 329/329/329 328/328/328 310/310/310
f 349/349/349 289/289/289 288/288/288
f 288/288/288 346/346/346 349/349/349
f 286/286/286 288/288/288 287/287/287
f 287/287/287 285/285/285 286/286/286
f 286/286/286 284/284/284 345/345/345
f 350/350/350 289/289/289 349/349/349
f 283/283/283 282/282/282 348/348/348
f 348/348/348 351/351/351 283/283/283
f 347/347/347 344/344/344 350/350/350
f 350/350/350 352/352/352 347/347/347
f 350/350/350 290/290/290 289/289/289
f 344/344/344 290/290/290 350/350/350
f 336/336/336 353/353/353 332/332/332
f 337/337/337 353/353/353 338/338/338
f 339/339/339 353/353/353 337/337/337
f 333/333/333 353/353/353 339/339/339
f 332/332/332 353/353/353 333/333/333
f 335/335/335 353/353/353 336/336/336
f 311/311/311 285/285/285 287/287/287
f 290/290/290 311/311/311 287/287/287
f 106/106/106 22/22/22 42/42/42
f 39/39/39 43/43/43 42/42/42
f 42/42/42 32/32/32 39/39/39
f 39/39/39 3/3/3 47/47/47
f 47/47/47 43/43/43 39/39/39
f 47/47/47 3/3/3 2/2/2
f 2/2/2 48/48/48 47/47/47
f 2/2/2 54/54/54 62/62/62
f 62/62/62 48/48/48 2/2/2
f 54/54/54 53/53/53 66/66/66
f 66/66/66 62/62/62 54/54/54
f 209/209/209 154/154/154 152/152/152
f 152/152/152 154/154/154 155/155/155
f 155/155/155 153/153/153 152/152/152
f 155/155/155 157/157/157 160/160/160
f 160/160/160 153/153/153 155/155/155
f 157/157/157 172/172/172 161/161/161
f 161/161/161 160/160/160 157/157/157
f 161/161/161 172/172/172 171/171/171
f 171/171/171 173/173/173 161/161/161
f 173/173/173 171/171/171 179/179/179
f 179/179/179 176/176/176 173/173/173
f 179/179/179 178/178/178 177/177/177
f 177/177/177 176/176/176 179/179/179
f 22/22/22 32/32/32 42/42/42
f 130/130/130 209/209/209 152/152/152
f 66/66/66 53/53/53 64/64/64
f 64/64/64 67/67/67 66/66/66
f 354/354/354 355/355/355 356/356/356
f 356/356/356 357/357/357 354/354/354
f 355/355/355 358/358/358 359/359/359
f 359/359/359 356/356/356 355/355/355
f 354/354/354 360/360/360 361/361/361
f 361/361/361 355/355/355 354/354/354
f 361/361/361 362/362/362 358/358/358
f 358/358/358 355/355/355 361/361/361
f 363/363/363 364/364/364 365/365/365
f 366/366/366 367/367/367 368/368/368
f 368/368/368 369/369/369 366/366/366
f 367/367/367 366/366/366 370/370/370
f 370/370/370 371/371/371 367/367/367
f 371/371/371 372/372/372 373/373/373
f 373/373/373 367/367/367 371/371/371
f 374/374/374 375/375/375 376/376/376
f 376/376/376 377/377/377 374/374/374
f 378/378/378 377/377/377 376/376/376
f 376/376/376 379/379/379 378/378/378
f 368/368/368 367/367/367 373/373/373
f 373/373/373 380/380/380 368/368/368
f 381/381/381 382/382/382 383/383/383
f 383/383/383 384/384/384 381/381/381
f 378/378/378 379/379/379 385/385/385
f 356/356/356 359/359/359 386/386/386
f 359/359/359 387/387/387 386/386/386
f 384/384/384 383/383/383 388/388/388
f 388/388/388 389/389/389 384/384/384
f 383/383/383 371/371/371 370/370/370
f 370/370/370 388/388/388 383/383/383
f 378/378/378 381/381/381 384/384/384
f 384/384/384 377/377/377 378/378/378
f 381/381/381 378/378/378 385/385/385
f 385/385/385 390/390/390 381/381/381
f 382/382/382 372/372/372 371/371/371
f 371/371/371 383/383/383 382/382/382
f 391/391/391 364/364/364 363/363/363
f 363/363/363 392/392/392 391/391/391
f 357/357/357 356/356/356 393/393/393
f 393/393/393 394/394/394 357/357/357
f 394/394/394 395/395/395 357/357/357
f 384/384/384 389/389/389 374/374/374
f 374/374/374 377/377/377 384/384/384
f 396/396/396 397/397/397 398/398/398
f 398/398/398 399/399/399 396/396/396
f 397/397/397 396/396/396 400/400/400
f 401/401/401 402/402/402 395/395/395
f 395/395/395 392/392/392 401/401/401
f 363/363/363 365/365/365 403/403/403
f 396/396/396 363/363/363 403/403/403
f 403/403/403 400/400/400 396/396/396
f 404/404/404 405/405/405 402/402/402
f 402/402/402 401/401/401 404/404/404
f 381/381/381 390/390/390 406/406/406
f 406/406/406 382/382/382 381/381/381
f 382/382/382 406/406/406 372/372/372
f 363/363/363 396/396/396 399/399/399
f 398/398/398 404/404/404 401/401/401
f 401/401/401 399/399/399 398/398/398
f 399/399/399 401/401/401 392/392/392
f 392/392/392 363/363/363 399/399/399
f 407/407/407 408/408/408 364/364/364
f 364/364/364 409/409/409 407/407/407
f 409/409/409 366/366/366 369/369/369
f 369/369/369 407/407/407 409/409/409
f 366/366/366 409/409/409 410/410/410
f 410/410/410 370/370/370 366/366/366
f 391/391/391 410/410/410 409/409/409
f 409/409/409 364/364/364 391/391/391
f 411/411/411 412/412/412 413/413/413
f 414/414/414 393/393/393 415/415/415
f 415/415/415 411/411/411 414/414/414
f 411/411/411 413/413/413 416/416/416
f 416/416/416 414/414/414 411/411/411
f 417/417/417 414/414/414 416/416/416
f 416/416/416 418/418/418 417/417/417
f 417/417/417 394/394/394 393/393/393
f 393/393/393 414/414/414 417/417/417
f 417/417/417 418/418/418 410/410/410
f 410/410/410 391/391/391 394/394/394
f 394/394/394 417/417/417 410/410/410
f 419/419/419 412/412/412 411/411/411
f 411/411/411 415/415/415 419/419/419
f 373/373/373 372/372/372 420/420/420
f 420/420/420 421/421/421 373/373/373
f 380/380/380 373/373/373 421/421/421
f 421/421/421 422/422/422 380/380/380
f 385/385/385 379/379/379 423/423/423
f 423/423/423 424/424/424 385/385/385
f 390/390/390 385/385/385 424/424/424
f 424/424/424 425/425/425 390/390/390
f 406/406/406 390/390/390 425/425/425
f 425/425/425 426/426/426 406/406/406
f 372/372/372 406/406/406 426/426/426
f 426/426/426 420/420/420 372/372/372
f 408/408/408 427/427/427 365/365/365
f 365/365/365 427/427/427 403/403/403
f 364/364/364 408/408/408 365/365/365
f 419/419/419 415/415/415 386/386/386
f 386/386/386 387/387/387 419/419/419
f 386/386/386 415/415/415 393/393/393
f 393/393/393 356/356/356 386/386/386
f 402/402/402 354/354/354 357/357/357
f 357/357/357 395/395/395 402/402/402
f 405/405/405 360/360/360 354/354/354
f 354/354/354 402/402/402 405/405/405
f 394/394/394 391/391/391 395/395/395
f 391/391/391 392/392/392 395/395/395
f 421/421/421 420/420/420 428/428/428
f 422/422/422 421/421/421 428/428/428
f 424/424/424 423/423/423 428/428/428
f 425/425/425 424/424/424 428/428/428
f 426/426/426 425/425/425 428/428/428
f 420/420/420 426/426/426 428/428/428
f 413/413/413 374/374/374 389/389/389
f 389/389/389 416/416/416 413/413/413
f 389/389/389 388/388/388 418/418/418
f 418/418/418 416/416/416 389/389/389
f 412/412/412 375/375/375 413/413/413
f 418/418/418 370/370/370 410/410/410
f 375/375/375 374/374/374 413/413/413
f 418/418/418 388/388/388 370/370/370
f 429/429/429 430/430/430 431/431/431
f 431/431/431 432/432/432 429/429/429
f 432/432/432 431/431/431 359/359/359
f 359/359/359 358/358/358 432/432/432
f 429/429/429 432/432/432 433/433/433
f 433/433/433 434/434/434 429/429/429
f 433/433/433 432/432/432 358/358/358
f 358/358/358 362/362/362 433/433/433
f 435/435/435 436/436/436 437/437/437
f 438/438/438 439/439/439 440/440/440
f 440/440/440 441/441/441 438/438/438
f 441/441/441 442/442/442 443/443/443
f 443/443/443 438/438/438 441/441/441
f 442/442/442 441/441/441 444/444/444
f 444/444/444 445/445/445 442/442/442
f 446/446/446 447/447/447 448/448/448
f 448/448/448 449/449/449 446/446/446
f 450/450/450 448/448/448 447/447/447
f 448/448/448 450/450/450 451/451/451
f 440/440/440 452/452/452 444/444/444
f 444/444/444 441/441/441 440/440/440
f 453/453/453 454/454/454 455/455/455
f 455/455/455 456/456/456 453/453/453
f 450/450/450 457/457/457 451/451/451
f 431/431/431 458/458/458 359/359/359
f 359/359/359 458/458/458 387/387/387
f 454/454/454 459/459/459 460/460/460
f 460/460/460 455/455/455 454/454/454
f 455/455/455 460/460/460 443/443/443
f 443/443/443 442/442/442 455/455/455
f 450/450/450 447/447/447 454/454/454
f 454/454/454 453/453/453 450/450/450
f 453/453/453 461/461/461 457/457/457
f 457/457/457 450/450/450 453/453/453
f 456/456/456 442/442/442 445/445/445
f 442/442/442 456/456/456 455/455/455
f 462/462/462 463/463/463 435/435/435
f 435/435/435 437/437/437 462/462/462
f 430/430/430 464/464/464 465/465/465
f 465/465/465 431/431/431 430/430/430
f 464/464/464 430/430/430 466/466/466
f 454/454/454 447/447/447 446/446/446
f 446/446/446 459/459/459 454/454/454
f 467/467/467 468/468/468 397/397/397
f 468/468/468 467/467/467 469/469/469
f 397/397/397 400/400/400 467/467/467
f 470/470/470 463/463/463 466/466/466
f 466/466/466 471/471/471 470/470/470
f 435/435/435 403/403/403 436/436/436
f 467/467/467 403/403/403 435/435/435
f 403/403/403 467/467/467 400/400/400
f 472/472/472 470/470/470 471/471/471
f 471/471/471 473/473/473 472/472/472
f 453/453/453 456/456/456 474/474/474
f 474/474/474 461/461/461 453/453/453
f 456/456/456 445/445/445 474/474/474
f 435/435/435 469/469/469 467/467/467
f 468/468/468 469/469/469 470/470/470
f 470/470/470 472/472/472 468/468/468
f 469/469/469 463/463/463 470/470/470
f 463/463/463 469/469/469 435/435/435
f 475/475/475 476/476/476 437/437/437
f 437/437/437 477/477/477 475/475/475
f 476/476/476 475/475/475 439/439/439
f 439/439/439 438/438/438 476/476/476
f 438/438/438 443/443/443 478/478/478
f 478/478/478 476/476/476 438/438/438
f 462/462/462 437/437/437 476/476/476
f 476/476/476 478/478/478 462/462/462
f 479/479/479 480/480/480 481/481/481
f 482/482/482 479/479/479 483/483/483
f 483/483/483 465/465/465 482/482/482
f 479/479/479 482/482/482 484/484/484
f 484/484/484 480/480/480 479/479/479
f 485/485/485 486/486/486 484/484/484
f 484/484/484 482/482/482 485/485/485
f 485/485/485 482/482/482 465/465/465
f 465/465/465 464/464/464 485/485/485
f 485/485/485 478/478/478 486/486/486
f 478/478/478 485/485/485 464/464/464
f 464/464/464 462/462/462 478/478/478
f 487/487/487 483/483/483 479/479/479
f 479/479/479 481/481/481 487/487/487
f 444/444/444 488/488/488 489/489/489
f 489/489/489 445/445/445 444/444/444
f 452/452/452 490/490/490 488/488/488
f 488/488/488 444/444/444 452/452/452
f 457/457/457 491/491/491 492/492/492
f 492/492/492 451/451/451 457/457/457
f 461/461/461 493/493/493 491/491/491
f 491/491/491 457/457/457 461/461/461
f 474/474/474 494/494/494 493/493/493
f 493/493/493 461/461/461 474/474/474
f 445/445/445 489/489/489 494/494/494
f 494/494/494 474/474/474 445/445/445
f 477/477/477 436/436/436 427/427/427
f 436/436/436 403/403/403 427/427/427
f 437/437/437 436/436/436 477/477/477
f 487/487/487 387/387/387 458/458/458
f 458/458/458 483/483/483 487/487/487
f 458/458/458 431/431/431 465/465/465
f 465/465/465 483/483/483 458/458/458
f 471/471/471 466/466/466 430/430/430
f 430/430/430 429/429/429 471/471/471
f 473/473/473 471/471/471 429/429/429
f 429/429/429 434/434/434 473/473/473
f 464/464/464 466/466/466 462/462/462
f 462/462/462 466/466/466 463/463/463
f 488/488/488 495/495/495 489/489/489
f 490/490/490 495/495/495 488/488/488
f 491/491/491 495/495/495 492/492/492
f 493/493/493 495/495/495 491/491/491
f 494/494/494 495/495/495 493/493/493
f 489/489/489 495/495/495 494/494/494
f 480/480/480 484/484/484 459/459/459
f 459/459/459 446/446/446 480/480/480
f 459/459/459 484/484/484 486/486/486
f 486/486/486 460/460/460 459/459/459
f 481/481/481 480/480/480 449/449/449
f 486/486/486 478/478/478 443/443/443
f 449/449/449 480/480/480 446/446/446
f 486/486/486 443/443/443 460/460/460
f 496/496/496 497/497/497 498/498/498
f 498/498/498 499/499/499 496/496/496
f 500/500/500 501/501/501 502/502/502
f 502/502/502 496/496/496 500/500/500
f 502/502/502 503/503/503 497/497/497
f 497/497/497 496/496/496 502/502/502
f 498/498/498 504/504/504 505/505/505
f 505/505/505 499/499/499 498/498/498
f 506/506/506 507/507/507 508/508/508
f 509/509/509 510/510/510 511/511/511
f 511/511/511 512/512/512 509/509/509
f 513/513/513 514/514/514 515/515/515
f 515/515/515 516/516/516 513/513/513
f 517/517/517 505/505/505 504/504/504
f 504/504/504 518/518/518 517/517/517
f 514/514/514 517/517/517 518/518/518
f 518/518/518 515/515/515 514/514/514
f 519/519/519 507/507/507 506/506/506
f 506/506/506 520/520/520 519/519/519
f 520/520/520 511/511/511 510/510/510
f 510/510/510 519/519/519 520/520/520
f 521/521/521 522/522/522 523/523/523
f 524/524/524 525/525/525 521/521/521
f 526/526/526 527/527/527 525/525/525
f 524/524/524 521/521/521 528/528/528
f 528/528/528 529/529/529 524/524/524
f 530/530/530 531/531/531 532/532/532
f 532/532/532 533/533/533 530/530/530
f 528/528/528 521/521/521 523/523/523
f 523/523/523 534/534/534 528/528/528
f 530/530/530 535/535/535 536/536/536
f 536/536/536 531/531/531 530/530/530
f 537/537/537 538/538/538 529/529/529
f 529/529/529 528/528/528 537/537/537
f 531/531/531 536/536/536 538/538/538
f 538/538/538 537/537/537 531/531/531
f 539/539/539 532/532/532 531/531/531
f 531/531/531 537/537/537 539/539/539
f 539/539/539 537/537/537 528/528/528
f 528/528/528 534/534/534 539/539/539
f 527/527/527 540/540/540 525/525/525
f 525/525/525 522/522/522 521/521/521
f 524/524/524 526/526/526 525/525/525
f 540/540/540 522/522/522 525/525/525
f 540/540/540 541/541/541 542/542/542
f 542/542/542 522/522/522 540/540/540
f 542/542/542 543/543/543 523/523/523
f 523/523/523 522/522/522 542/542/542
f 523/523/523 543/543/543 534/534/534
f 496/496/496 499/499/499 509/509/509
f 509/509/509 500/500/500 496/496/496
f 499/499/499 505/505/505 510/510/510
f 510/510/510 509/509/509 499/499/499
f 505/505/505 517/517/517 519/519/519
f 519/519/519 510/510/510 505/505/505
f 517/517/517 514/514/514 507/507/507
f 507/507/507 519/519/519 517/517/517
f 514/514/514 513/513/513 508/508/508
f 508/508/508 507/507/507 514/514/514
f 501/501/501 500/500/500 544/544/544
f 544/544/544 545/545/545 501/501/501
f 512/512/512 544/544/544 500/500/500
f 500/500/500 509/509/509 512/512/512
f 546/546/546 547/547/547 548/548/548
f 548/548/548 497/497/497 546/546/546
f 549/549/549 546/546/546 550/550/550
f 550/550/550 551/551/551 549/549/549
f 550/550/550 546/546/546 497/497/497
f 497/497/497 503/503/503 550/550/550
f 548/548/548 547/547/547 552/552/552
f 552/552/552 504/504/504 548/548/548
f 553/553/553 554/554/554 555/555/555
f 556/556/556 557/557/557 558/558/558
f 558/558/558 559/559/559 556/556/556
f 560/560/560 516/516/516 515/515/515
f 515/515/515 561/561/561 560/560/560
f 562/562/562 518/518/518 504/504/504
f 504/504/504 552/552/552 562/562/562
f 561/561/561 515/515/515 518/518/518
f 518/518/518 562/562/562 561/561/561
f 563/563/563 564/564/564 553/553/553
f 553/553/553 555/555/555 563/563/563
f 564/564/564 563/563/563 559/559/559
f 559/559/559 558/558/558 564/564/564
f 565/565/565 566/566/566 567/567/567
f 568/568/568 565/565/565 569/569/569
f 570/570/570 569/569/569 527/527/527
f 568/568/568 529/529/529 571/571/571
f 571/571/571 565/565/565 568/568/568
f 572/572/572 573/573/573 574/574/574
f 574/574/574 575/575/575 572/572/572
f 571/571/571 576/576/576 566/566/566
f 566/566/566 565/565/565 571/571/571
f 572/572/572 575/575/575 536/536/536
f 536/536/536 535/535/535 572/572/572
f 577/577/577 571/571/571 529/529/529
f 529/529/529 538/538/538 577/577/577
f 575/575/575 577/577/577 538/538/538
f 538/538/538 536/536/536 575/575/575
f 578/578/578 577/577/577 575/575/575
f 575/575/575 574/574/574 578/578/578
f 578/578/578 576/576/576 571/571/571
f 571/571/571 577/577/577 578/578/578
f 527/527/527 569/569/569 579/579/579
f 569/569/569 565/565/565 567/567/567
f 568/568/568 569/569/569 570/570/570
f 579/579/579 569/569/569 567/567/567
f 579/579/579 567/567/567 580/580/580
f 580/580/580 581/581/581 579/579/579
f 580/580/580 567/567/567 566/566/566
f 566/566/566 582/582/582 580/580/580
f 566/566/566 576/576/576 582/582/582
f 546/546/546 549/549/549 556/556/556
f 556/556/556 547/547/547 546/546/546
f 547/547/547 556/556/556 559/559/559
f 559/559/559 552/552/552 547/547/547
f 552/552/552 559/559/559 563/563/563
f 563/563/563 562/562/562 552/552/552
f 562/562/562 563/563/563 555/555/555
f 555/555/555 561/561/561 562/562/562
f 561/561/561 555/555/555 554/554/554
f 554/554/554 560/560/560 561/561/561
f 551/551/551 583/583/583 584/584/584
f 584/584/584 549/549/549 551/551/551
f 557/557/557 556/556/556 549/549/549
f 549/549/549 584/584/584 557/557/557
f 585/585/585 586/586/586 587/587/587
f 587/587/587 588/588/588 585/585/585
f 585/585/585 588/588/588 589/589/589
f 589/589/589 590/590/590 585/585/585
f 591/591/591 590/590/590 589/589/589
f 592/592/592 593/593/593 594/594/594
f 594/594/594 595/595/595 592/592/592
f 592/592/592 596/596/596 597/597/597
f 597/597/597 593/593/593 592/592/592
f 595/595/595 594/594/594 591/591/591
f 591/591/591 589/589/589 595/595/595
f 598/598/598 599/599/599 600/600/600
f 599/599/599 598/598/598 601/601/601
f 598/598/598 602/602/602 601/601/601
f 602/602/602 598/598/598 603/603/603
f 604/604/604 602/602/602 603/603/603
f 605/605/605 606/606/606 607/607/607
f 606/606/606 605/605/605 608/608/608
f 605/605/605 609/609/609 610/610/610
f 609/609/609 605/605/605 607/607/607
f 608/608/608 604/604/604 606/606/606
f 604/604/604 608/608/608 602/602/602
