mtllib 9011002401.mtl
o 9011002401_part_0
v 0.0137026086 2.34344053 -0.125913888
v -0.07733089 2.32471585 -0.00233624876
v 0.0167489555 2.341924 -0.0107777417
v -0.134712577 2.29930639 -0.130733639
v -0.13965264 2.28894353 -0.00607688725
v -0.07275811 2.33932042 -0.13615343
v -0.194529727 2.221791 -0.129325628
v -0.182442948 2.21218133 -0.009716228
v -0.175310656 2.2104497 -0.230763853
v -0.11600399 2.284171 -0.23045662
v 0.0103001539 2.28862739 -0.249766886
v -0.213159844 2.12329721 -0.11483708
v -0.192211568 2.1016562 0.00281092525
v -0.176626563 2.02915883 -0.216507941
v -0.202750728 2.03858232 -0.111747593
v -0.18826583 2.11226749 -0.225673646
v -0.09362067 2.102319 -0.2968333
v -0.0877293646 2.02001619 -0.2776738
v 0.008495052 2.19557881 -0.3103116
v 0.008240953 2.097449 -0.311971515
v -0.0898236 2.201562 -0.289588779
v -0.164172068 2.01242852 -0.02685903
v -0.07328148 1.91516387 -0.227202684
v -0.065681994 1.849549 -0.16563341
v -0.107485563 1.91451514 -0.173646212
v -0.137138844 1.87798345 -0.06742236
v -0.176606819 1.95444059 -0.08818585
v -0.1776284 1.95507491 -0.132859617
v -0.1200853 1.86686838 -0.1314883
v -0.137518927 1.95527852 -0.0352055579
v 0.009301856 1.93723929 -0.259043634
v 0.0105031235 1.84379435 -0.20621258
v -0.0347735658 1.788797 -0.183531314
v 0.0100157447 1.76458514 -0.218194515
v -0.109804884 1.80829716 -0.122895271
v -0.08140379 1.77598631 -0.163147837
v -0.125067174 1.83676314 -0.09620294
v -0.140610039 1.8299979 -0.0441059768
v -0.142670855 1.81279433 -0.0673763156
v -0.0974730551 1.83638835 -0.0250833929
v -0.06908925 1.88255465 -0.0287379324
v -0.1598399 1.796086 -0.00872688
v -0.155337423 1.8553313 -0.214348584
v -0.142685741 1.90202975 -0.202615649
v -0.103102848 1.89602888 -0.232472509
v -0.159684867 1.90282035 -0.164785832
v -0.08000399 1.94029891 -0.250634342
v -0.141295418 1.95068455 -0.199698538
v 0.008564211 2.01575947 -0.293191135
v -0.111321077 1.89101887 -0.191511124
v -0.155337423 1.8553313 -0.214348584
v -0.103102848 1.89602888 -0.232472509
v -0.159684867 1.90282035 -0.164785832
v -0.1776284 1.95507491 -0.132859617
v -0.07328148 1.91516387 -0.227202684
v -0.0435514562 1.91568935 -0.121591032
v -0.0347735658 1.788797 -0.183531314
v 0.01314063 1.89757907 -0.1111162
v -0.065681994 1.849549 -0.16563341
v 0.0100157447 1.76458514 -0.218194515
v -0.0567114763 1.90199232 -0.09684229
v -0.08140379 1.77598631 -0.163147837
v -0.070994556 1.9092865 -0.06982723
v -0.109804884 1.80829716 -0.122895271
v -0.06908925 1.88255465 -0.0287379324
v -0.125067174 1.83676314 -0.09620294
v -0.0974730551 1.83638835 -0.0250833929
v -0.142670855 1.81279433 -0.0673763156
v -0.1598399 1.796086 -0.00872688
v -0.107485563 1.91451514 -0.173646212
v -0.103102848 1.89602888 -0.232472509
v 0.108386725 2.33702564 -0.008325368
v 0.154452264 2.29868746 -0.1384036
v 0.0743941 2.33900547 -0.14005658
v 0.165949211 2.28828931 -0.014182806
v 0.20279935 2.231882 -0.02165167
v 0.213927746 2.22091651 -0.140159756
v 0.189310029 2.209669 -0.240435213
v 0.130418986 2.28364348 -0.236992866
v 0.209236383 2.13433385 -0.01729852
v 0.232878149 2.12234235 -0.126668
v 0.19060415 2.02837276 -0.226248533
v 0.202096626 2.11143184 -0.2360278
v 0.222285092 2.03767228 -0.123021454
v 0.09855117 2.01961732 -0.282614827
v 0.1037706 2.10189652 -0.302068979
v 0.100787535 2.201154 -0.294644624
v 0.205893487 2.078683 -0.01093781
v 0.186478287 2.022681 -0.03810127
v 0.08635065 1.9148221 -0.231436819
v 0.123342618 1.914021 -0.1797688
v 0.08174504 1.84923339 -0.169543833
v 0.158428669 1.87735069 -0.07526213
v 0.1379555 1.866316 -0.138332665
v 0.19572185 1.95427573 -0.142762512
v 0.1970672 1.9536407 -0.0980973542
v 0.165840924 1.95462918 -0.0432520062
v 0.04967163 1.7886163 -0.1857712
v 0.127894565 1.80778837 -0.1292001
v 0.09726161 1.77560389 -0.167886823
v 0.144672051 1.83618569 -0.103357643
v 0.162925676 1.82934809 -0.052157104
v 0.163676381 1.81213856 -0.07550201
v 0.120885476 1.83592093 -0.0308752358
v 0.0945546 1.88220441 -0.03307849
v 0.183858708 1.79535007 -0.0178433061
v 0.168715879 1.85463762 -0.222943932
v 0.115768582 1.89556038 -0.238277972
v 0.156903878 1.90138841 -0.21056208
v 0.175887734 1.902102 -0.173686713
v 0.09192905 1.9399308 -0.255194783
v 0.15587832 1.95004845 -0.2075809
v 0.126125142 1.89051056 -0.197809249
v 0.115768582 1.89556038 -0.238277972
v 0.168715879 1.85463762 -0.222943932
v 0.175887734 1.902102 -0.173686713
v 0.19572185 1.95427573 -0.142762512
v 0.08635065 1.9148221 -0.231436819
v 0.062263526 1.91546285 -0.124397695
v 0.04967163 1.7886163 -0.1857712
v 0.08174504 1.84923339 -0.169543833
v 0.07665828 1.90170681 -0.100379854
v 0.09726161 1.77560389 -0.167886823
v 0.09238444 1.90893674 -0.07416077
v 0.127894565 1.80778837 -0.1292001
v 0.144672051 1.83618569 -0.103357643
v 0.0945546 1.88220441 -0.03307849
v 0.163676381 1.81213856 -0.07550201
v 0.120885476 1.83592093 -0.0308752358
v 0.183858708 1.79535007 -0.0178433061
v 0.123342618 1.914021 -0.1797688
v 0.115768582 1.89556038 -0.238277972
v 0.107066989 2.36604643 0.0635842755
v 0.108386725 2.33702564 -0.008325368
v 0.0167489555 2.341924 -0.0107777417
v 0.0190203954 2.36658 0.0743730739
v 0.187313631 2.31832314 0.04360778
v 0.165949211 2.28828931 -0.014182806
v -0.13965264 2.28894353 -0.00607688725
v -0.0896406 2.30636454 0.05157114
v -0.07733089 2.32471585 -0.00233624876
v -0.06560865 2.31255174 0.08357665
v -0.150477573 2.28921747 0.0497323573
v -0.182442948 2.21218133 -0.009716228
v -0.187947139 2.24550962 0.0453648269
v 0.106218278 2.12814426 0.235904172
v 0.162930116 2.131897 0.220168233
v 0.152387589 2.201658 0.249914691
v 0.207095161 2.060787 0.07543824
v 0.239997312 2.060592 0.07303698
v 0.26138553 2.13901663 0.112268716
v 0.1680477 2.138232 0.110769093
v 0.255478024 2.24494839 0.131636322
v 0.240226626 2.23716378 0.0418154672
v 0.19251889 2.32913256 0.146222025
v 0.113542989 2.37081742 0.164474338
v 0.142304316 2.28208232 0.231151447
v 0.06438595 2.22439933 0.27035737
v 0.0218786784 2.37416744 0.180940837
v 0.0377825871 2.31002927 0.240245238
v 0.215384141 2.23259354 0.2112636
v 0.212853223 2.01835346 -0.0021853745
v 0.206002727 2.078765 -0.0109090656
v 0.243986219 2.07475615 0.026704818
v 0.220541582 2.139452 0.183644608
v 0.250194639 2.04986763 0.09359401
v 0.26138553 2.13901663 0.112268716
v 0.182208419 2.04349422 0.1562324
v 0.2501237 2.13687754 0.0380128175
v 0.156359911 2.052527 0.17656751
v -0.0133340135 2.18237829 0.245976269
v 0.04916272 2.12550735 0.231006235
v -0.00274931453 2.11377645 0.205957785
v -0.106671929 2.18626 0.124502614
v -0.1291638 2.25718141 0.104816645
v -0.156572327 2.223733 0.109702438
v -0.175085932 2.16162372 0.124131426
v -0.173621714 2.06623054 0.09452131
v -0.144556373 2.06246257 0.1068733
v -0.128678769 2.1329782 0.116990596
v -0.1056743 2.23728657 0.115306109
v -0.0341111422 2.25131083 0.238553971
v -0.0469550379 2.32452416 0.1842243
v -0.08918525 2.254448 0.18611519
v -0.07715826 2.21685147 0.2211603
v -0.189060181 2.00584 0.0346557871
v -0.199188441 2.0960772 0.04933759
v -0.192211568 2.1016562 0.00281092525
v -0.0389245078 2.102166 0.209721133
v 0.01163392 2.054877 0.177316189
v 0.05764226 2.060195 0.197339475
v -0.204815134 2.17291713 0.0509843528
v -0.087974 2.29565144 0.10725975
v -0.0534746833 2.209286 0.139258876
v -0.09336917 2.20823479 0.125883982
v -0.06662631 2.16350842 0.230502218
v -0.020381622 2.163581 0.166018084
v -0.007009743 2.10650563 0.181914225
v -0.020381622 2.163581 0.166018084
v 0.0377601162 2.1433177 0.169905633
v -0.00274931453 2.11377645 0.205957785
v 0.1680477 2.138232 0.110769093
v 0.250194639 2.04986763 0.09359401
v 0.222819 2.08243227 0.133816361
v 0.209236383 2.13433385 -0.01729852
v 0.206002727 2.078765 -0.0109090656
v 0.162930116 2.131897 0.220168233
v 0.156359911 2.052527 0.17656751
v 0.09029338 2.15463638 0.157655716
v -0.128678769 2.1329782 0.116990596
v -0.144556373 2.06246257 0.1068733
v -0.192211568 2.1016562 0.00281092525
v -0.189060181 2.00584 0.0346557871
v 0.07142798 2.09338522 0.205682859
v -0.007009743 2.10650563 0.181914225
v 0.01163392 2.054877 0.177316189
v 0.07142798 2.09338522 0.205682859
v 0.222819 2.08243227 0.133816361
v 0.209236383 2.13433385 -0.01729852
v 0.20279935 2.231882 -0.02165167
v -0.158109054 2.0293262 0.0247515887
v 0.05764226 2.060195 0.197339475
v 0.182208419 2.04349422 0.1562324
v 0.189829037 2.05415773 0.089530915
v 0.232325211 2.06598949 0.05402817
v 0.223213762 2.13656139 0.09056498
v 0.168394521 2.1253078 0.135965526
v 0.21753937 2.076831 0.0213106126
v 0.206341848 2.13073468 0.0433908179
v 0.234560683 2.01010728 0.03731803
v 0.215909615 2.01406121 0.0129757673
v 0.199725866 2.00723743 0.0639460757
v 0.2277557 1.92439651 0.0194139183
v 0.206341848 2.13073468 0.0433908179
v 0.21753937 2.076831 0.0213106126
v 0.215909615 2.01406121 0.0129757673
v 0.173582777 1.92697871 0.04067406
v 0.173447326 1.83765042 0.065450564
v 0.20652914 1.931611 0.0350812376
v 0.18392247 1.92209232 0.000405803323
v 0.183338612 2.10585952 0.0242730677
v 0.179523259 2.0442102 0.0347915664
v 0.205425456 2.044813 0.005135387
v 0.202658519 2.106992 0.0010035336
v 0.202327356 1.99088907 0.0148857385
v 0.169991255 1.98620367 -0.00997571647
v 0.15998961 2.0423758 -0.0120987
v 0.157391787 1.98774624 0.01651296
v 0.176339328 1.94663906 0.0656247
v 0.152202234 1.879503 0.0778896
v 0.191086844 1.932041 0.0510846749
v 0.180519551 1.99614263 0.05168534
v 0.155647874 1.9319793 0.0323485881
v 0.151420757 2.102709 -0.008582041
v 0.183338612 2.10585952 0.0242730677
v 0.156427547 2.042405 0.013803035
v 0.179523259 2.0442102 0.0347915664
v 0.157391787 1.98774624 0.01651296
v 0.180519551 1.99614263 0.05168534
v 0.152202234 1.879503 0.0778896
v 0.176339328 1.94663906 0.0656247
v 0.155647874 1.9319793 0.0323485881
v 0.169991255 1.98620367 -0.00997571647
v 0.15998961 2.0423758 -0.0120987
v 0.18392247 1.92209232 0.000405803323
v 0.173447326 1.83765042 0.065450564
v 0.173582777 1.92697871 0.04067406
v 0.156427547 2.042405 0.013803035
v 0.151420757 2.102709 -0.008582041
v -0.138565317 1.927647 0.0489535853
v -0.1717417 1.93242073 0.04511459
v -0.1374988 1.83831608 0.07369821
v -0.151045918 1.92280936 0.009290621
v -0.148411423 2.10656953 0.0330725163
v -0.168932691 2.10778737 0.010859713
v -0.171742737 2.04562044 0.0151395053
v -0.144307643 2.04490352 0.0433809757
v -0.127295181 2.042991 -0.0044786483
v -0.137410462 1.98686171 -0.00182208419
v -0.168362856 1.99168253 0.0247180313
v -0.123418033 1.98834753 0.0239612758
v -0.13991116 1.947316 0.07401304
v -0.155471057 1.932783 0.0602768734
v -0.115445316 1.88007593 0.08498878
v -0.14461264 1.99683857 0.06030927
v -0.121075734 1.93257165 0.0396885127
v -0.118293911 2.1032865 -0.00142803788
v -0.148411423 2.10656953 0.0330725163
v -0.144307643 2.04490352 0.0433809757
v -0.122364953 2.04300165 0.0211978257
v -0.14461264 1.99683857 0.06030927
v -0.123418033 1.98834753 0.0239612758
v -0.115445316 1.88007593 0.08498878
v -0.121075734 1.93257165 0.0396885127
v -0.13991116 1.947316 0.07401304
v -0.137410462 1.98686171 -0.00182208419
v -0.127295181 2.042991 -0.0044786483
v -0.151045918 1.92280936 0.009290621
v -0.138565317 1.927647 0.0489535853
v -0.1374988 1.83831608 0.07369821
v -0.122364953 2.04300165 0.0211978257
v -0.118293911 2.1032865 -0.00142803788
v 0.08448249 1.88255811 -0.0136415213
v 0.08072448 1.915951 -0.08498429
v 0.16087921 1.9484235 -0.0358355939
v 0.0134461448 1.93254685 -0.141086489
v 0.0128563158 1.98231888 -0.167341381
v 0.110728338 1.97220993 -0.113900393
v 0.127304509 2.073248 -0.128546476
v 0.175190121 2.06128263 -0.0122754127
v 0.01237756 2.0743506 -0.19281891
v -0.05094752 1.882848 -0.0100493282
v -0.126175582 1.95128548 -0.0174285173
v -0.0508339442 1.91623259 -0.08149478
v -0.0820875 1.97262275 -0.108786076
v -0.1457124 2.06247354 0.00226141512
v -0.098984316 2.07373238 -0.122544348
vt 0.311750382 0.5487194
vt 0.401420444 0.6156196
vt 0.311750382 0.636666656
vt 0.43029356 0.4949956
vt 0.4939538 0.544851243
vt 0.369945824 0.536322
vt 0.467869252 0.431721926
vt 0.5355519 0.480983078
vt 0.410024822 0.390977681
vt 0.37357378 0.4557597
vt 0.311750382 0.4478048
vt 0.48887223 0.368419051
vt 0.5669843 0.3721825
vt 0.43524313 0.270693064
vt 0.501913369 0.2996118
vt 0.422903627 0.3292384
vt 0.363978624 0.30711484
vt 0.367850155 0.244929075
vt 0.311750382 0.358054876
vt 0.311750382 0.296244144
vt 0.3603037 0.370975733
vt 0.5651206 0.299762964
vt 0.3854809 0.158721983
vt 0.393429816 0.100456238
vt 0.449359238 0.126538515
vt 0.5393778 0.138955235
vt 0.5187216 0.217172027
vt 0.481903 0.212267637
vt 0.479952842 0.1215055
vt 0.57106 0.219884753
vt 0.311750382 0.176377416
vt 0.311750382 0.08989096
vt 0.358248174 0.0284065
vt 0.311750382 0.00650578737
vt 0.476650447 0.04898244
vt 0.433563054 0.0157986283
vt 0.509503543 0.09471333
vt 0.559040666 0.08294684
vt 0.529781461 0.059964
vt 0.5985626 0.09178418
vt 0.599034846 0.147426844
vt 0.585045338 0.0328939557
vt 0.4467637 0.129530609
vt 0.439482242 0.169823647
vt 0.395991832 0.164570153
vt 0.467447251 0.173620164
vt 0.37516278 0.188135147
vt 0.438384026 0.2038905
vt 0.311750382 0.235483229
vt 0.94608283 0.5264795
vt 0.937363446 0.5909602
vt 0.9840725 0.5328895
vt 0.9009081 0.5325574
vt 0.865152955 0.4829291
vt 0.987147 0.4717666
vt 0.8910038 0.4490795
vt 0.912973344 0.3230996
vt 0.924609363 0.4534881
vt 0.883508265 0.3557546
vt 0.95520395 0.3038515
vt 0.8522095 0.462396622
vt 0.842814863 0.309307456
vt 0.818455 0.464381576
vt 0.8031526 0.347154975
vt 0.778988242 0.471591234
vt 0.7777348 0.37586832
vt 0.7386809 0.437125564
vt 0.7564262 0.4046526
vt 0.7120931 0.402418733
vt 0.9282998 0.4758191
vt 0.406713 0.182405591
vt 0.222080335 0.61561954
vt 0.193207219 0.4949956
vt 0.2654947 0.539067745
vt 0.12954697 0.5448512
vt 0.08794886 0.480983078
vt 0.155631512 0.431721926
vt 0.213475958 0.390977681
vt 0.249927 0.4557597
vt 0.06408072 0.4028899
vt 0.134628534 0.368419051
vt 0.18825765 0.270693064
vt 0.200597152 0.3292384
vt 0.121587396 0.2996118
vt 0.25565064 0.244929075
vt 0.25952214 0.30711484
vt 0.263197064 0.370975733
vt 0.04895229 0.34147507
vt 0.049484726 0.299010873
vt 0.238019869 0.158721924
vt 0.174141541 0.126538455
vt 0.230070964 0.100456178
vt 0.0841229558 0.138955235
vt 0.143547922 0.1215055
vt 0.141597778 0.212267578
vt 0.104779184 0.217171967
vt 0.05244077 0.219884753
vt 0.2652526 0.0284065
vt 0.146850318 0.04898244
vt 0.189937726 0.0157986283
vt 0.113997221 0.09471333
vt 0.0644601062 0.08294684
vt 0.0937193 0.059964
vt 0.0249381717 0.09178418
vt 0.0244659241 0.147426784
vt 0.0384554341 0.0328939557
vt 0.176737085 0.129530609
vt 0.227508947 0.1645701
vt 0.184018537 0.169823647
vt 0.156053513 0.173620164
vt 0.248338 0.188135147
vt 0.185116753 0.2038905
vt 0.94608283 0.5264795
vt 0.9840725 0.5328895
vt 0.937363446 0.5909602
vt 0.9009081 0.5325574
vt 0.865152955 0.4829291
vt 0.987147 0.4717666
vt 0.8910038 0.4490795
vt 0.912973344 0.3230996
vt 0.883508265 0.3557546
vt 0.8522095 0.462396622
vt 0.842814863 0.309307456
vt 0.818455 0.464381576
vt 0.8031526 0.347154975
vt 0.7777348 0.37586832
vt 0.778988242 0.471591234
vt 0.7564262 0.4046526
vt 0.7386809 0.437125564
vt 0.7120931 0.402418733
vt 0.9282998 0.4758191
vt 0.21678777 0.182405591
vt 0.6376929 0.9169811
vt 0.665364444 0.9596794
vt 0.531260252 0.994708538
vt 0.534051061 0.932567358
vt 0.7369254 0.8776095
vt 0.766556442 0.913733
vt 0.3386247 0.973287642
vt 0.406055927 0.940634251
vt 0.421483248 0.9921245
vt 0.4373605 0.923206
vt 0.3414851 0.9246442
vt 0.247751951 0.9332535
vt 0.292067379 0.903435469
vt 0.5836001 0.639473438
vt 0.6398138 0.637107968
vt 0.6302311 0.7005988
vt 0.915968239 0.646197736
vt 0.912320852 0.673980653
vt 0.834603846 0.6916338
vt 0.839700937 0.616537333
vt 0.761782 0.74959296
vt 0.8147388 0.804794431
vt 0.6977847 0.8230913
vt 0.6223972 0.854430735
vt 0.6317525 0.7646717
vt 0.5603449 0.7271486
vt 0.5389958 0.8564211
vt 0.5470905 0.7942078
vt 0.690041244 0.724843
vt 0.9904182 0.675022
vt 0.956362247 0.740957558
vt 0.934631646 0.7088116
vt 0.701295555 0.640439749
vt 0.762423 0.549719453
vt 0.768350363 0.6347483
vt 0.6732563 0.547409236
vt 0.886713 0.742731869
vt 0.6136271 0.550498962
vt 0.493185818 0.7097992
vt 0.5304754 0.643512666
vt 0.4774775 0.6479274
vt 0.332708448 0.7964364
vt 0.35253337 0.8665515
vt 0.318509668 0.836097658
vt 0.2716839 0.8108412
vt 0.199146748 0.7640723
vt 0.214521855 0.741012931
vt 0.2797108 0.7682453
vt 0.363051921 0.8379615
vt 0.4808858 0.769519448
vt 0.476545364 0.844472
vt 0.4223796 0.802588642
vt 0.439912438 0.757218
vt 0.131105974 0.770142853
vt 0.184322163 0.818771362
vt 0.1580533 0.8527879
vt 0.446280152 0.660349965
vt 0.43884477 0.5958699
vt 0.508566141 0.5817581
vt 0.23624444 0.865285337
vt 0.406948417 0.885460854
vt 0.367628485 0.7657897
vt 0.3549717 0.805015445
vt 0.446663678 0.7134172
vt 0.38322252 0.700243235
vt 0.414396018 0.6442227
vt 0.5981094 0.5520734
vt 0.6139171 0.51181215
vt 0.5707266 0.514722347
vt 0.711524546 0.5187869
vt 0.8036866 0.5218638
vt 0.7709019 0.496605456
vt 0.8643405 0.5438378
vt 0.9370199 0.608977258
vt 0.7019474 0.4475875
vt 0.6539739 0.411945224
vt 0.650257051 0.497887373
vt 0.150865167 0.8829981
vt 0.166694343 0.928278446
vt 0.100586027 0.935406566
vt 0.146460548 0.9876996
vt 0.6062478 0.4630593
vt 0.5617246 0.530063033
vt 0.524274 0.521034241
vt 0.542135239 0.607331038
vt 0.724542737 0.582943141
vt 0.928072155 0.7889472
vt 0.844486 0.859332
vt 0.606812 0.323728085
vt 0.5802142 0.458875418
vt 0.755589962 0.4689051
vt 0.7242814 0.291128337
vt 0.7071238 0.262359858
vt 0.65556556 0.299074
vt 0.683839142 0.332098961
vt 0.692982733 0.233827233
vt 0.6389945 0.26268
vt 0.76944834 0.211995423
vt 0.760934651 0.198969781
vt 0.7848924 0.244784
vt 0.8229359 0.167694449
vt 0.738519251 0.36079
vt 0.766265452 0.330220759
vt 0.810602963 0.279394031
vt 0.126484632 0.74870497
vt 0.07702338 0.9128266
vt 0.097163 0.7428272
vt 0.06391768 0.6990149
vt 0.08756111 0.518503964
vt 0.128646359 0.575654864
vt 0.09593981 0.59924835
vt 0.06460993 0.530740142
vt 0.120145552 0.645820737
vt 0.06568308 0.652460635
vt 0.06725878 0.6044018
vt 0.152718961 0.699958563
vt 0.227674484 0.6680432
vt 0.314687431 0.7301415
vt 0.214277 0.6863367
vt 0.165371418 0.606836855
vt 0.20800814 0.7125721
vt 0.0248945262 0.5502689
vt 0.804910064 0.99770993
vt 0.8124987 0.936992168
vt 0.8438426 0.975569546
vt 0.8646688 0.9183012
vt 0.869894266 0.9607542
vt 0.9667636 0.861856461
vt 0.918125331 0.91794163
vt 0.900230348 0.8979398
vt 0.8332515 0.908237
vt 0.787617445 0.928823233
vt 0.854827166 0.884161651
vt 0.987056 0.8040464
vt 0.8943224 0.8907784
vt 0.0376081467 0.6097295
vt 0.784104049 0.9681038
vt 0.126484632 0.74870497
vt 0.097163 0.7428272
vt 0.07702338 0.9128266
vt 0.06391768 0.6990149
vt 0.08756111 0.518503964
vt 0.06460993 0.530740142
vt 0.09593981 0.59924835
vt 0.128646359 0.575654864
vt 0.06725878 0.6044018
vt 0.06568308 0.652460635
vt 0.120145552 0.645820737
vt 0.152718961 0.699958563
vt 0.227674484 0.6680432
vt 0.214277 0.6863367
vt 0.314687431 0.7301415
vt 0.165371418 0.606836855
vt 0.20800814 0.7125721
vt 0.0248945262 0.5502689
vt 0.804910064 0.99770993
vt 0.8438426 0.975569546
vt 0.8124987 0.936992168
vt 0.869894266 0.9607542
vt 0.8646688 0.9183012
vt 0.9667636 0.861856461
vt 0.900230348 0.8979398
vt 0.918125331 0.91794163
vt 0.8332515 0.908237
vt 0.787617445 0.928823233
vt 0.854827166 0.884161651
vt 0.8943224 0.8907784
vt 0.987056 0.8040464
vt 0.0376081467 0.6097295
vt 0.784104049 0.9681038
vt 0.8158024 0.0250020623
vt 0.887669861 0.0448720455
vt 0.8404287 0.102009058
vt 0.9507887 0.0555322766
vt 0.968559146 0.119570792
vt 0.895016253 0.115138412
vt 0.902233 0.162434816
vt 0.823985 0.162434816
vt 0.991420865 0.162434816
vt 0.8158024 0.0250020623
vt 0.8404287 0.102009058
vt 0.887669861 0.0448720455
vt 0.895016253 0.115138412
vt 0.823985 0.162434816
vt 0.902233 0.162434816
vn -0.0160542354 0.986422539 -0.163440675
vn -0.31622383 0.9357023 0.156408772
vn -0.133916885 0.9876523 -0.08129699
vn -0.669522047 0.7376186 -0.08751546
vn -0.6710176 0.7414112 0.00669077737
vn -0.266448528 0.9513599 -0.154659122
vn -0.9224242 0.381217152 -0.0617013648
vn -0.952398658 0.2950979 -0.0765112862
vn -0.7886446 0.305685639 -0.533475339
vn -0.4462098 0.6990127 -0.55881846
vn -0.011168316 0.7408225 -0.671608031
vn -0.9990381 0.0421101041 -0.01223351
vn -0.9810431 -0.150240481 -0.122401781
vn -0.79807204 -0.276378244 -0.5354401
vn -0.9782686 -0.206307784 0.02067794
vn -0.845995665 -0.0363123566 -0.5319518
vn -0.389604777 -0.07971613 -0.9175257
vn -0.380838662 -0.2919276 -0.877348363
vn -0.0192733724 0.2899519 -0.956847131
vn -0.02194859 -0.109941669 -0.9936957
vn -0.346124947 0.286618084 -0.8933351
vn -0.8757704 -0.3380759 0.344573468
vn 0.0335617773 -0.7470342 -0.663937867
vn -0.3770436 -0.8131716 -0.4433847
vn -0.3609395 -0.932457864 -0.0156522188
vn -0.9053441 -0.197277412 0.376076669
vn -0.9026704 -0.342111856 0.261047184
vn -0.904367566 -0.395492882 -0.160326809
vn -0.7737357 -0.368196458 -0.5155235
vn -0.6895655 -0.346370816 0.6360242
vn -0.0199585967 -0.474750519 -0.8798941
vn -0.0018220084 -0.310555369 -0.950553536
vn -0.626818538 -0.779021 0.0149916569
vn 0.0153777907 -0.8494588 -0.527430832
vn -0.508243263 -0.8460449 0.1609249
vn 0.0556115136 -0.894032538 -0.444537
vn -0.5871255 -0.8094694 -0.00655790651
vn -0.820099056 0.510605335 0.258301675
vn -0.435881644 -0.637589753 -0.635205865
vn 0.621677935 -0.3309872 0.709904253
vn 0.444945127 -0.6677803 0.5967356
vn -0.5386874 -0.524033 0.6597009
vn -0.4946963 -0.8098769 -0.3152379
vn -0.7504315 0.194957525 -0.6315411
vn 0.0542170666 -0.645241857 -0.7620521
vn -0.629622757 -0.5606085 0.5378599
vn -0.295576364 -0.41495645 -0.8604916
vn -0.7516971 -0.193993956 -0.630331457
vn -0.020744225 -0.296841 -0.9547016
vn 0.521255255 -0.710229 0.473146647
vn -0.4946963 -0.8098769 -0.3152379
vn 0.0542170666 -0.645241857 -0.7620521
vn -0.629622757 -0.5606085 0.5378599
vn -0.904367566 -0.395492882 -0.160326809
vn 0.0335617773 -0.7470342 -0.663937867
vn 0.3403069 -0.586096346 0.735311031
vn -0.626818538 -0.779021 0.0149916569
vn 0.04594653 -0.494215667 0.8681243
vn -0.3770436 -0.8131716 -0.4433847
vn 0.0153777907 -0.8494588 -0.527430832
vn 0.8353421 -0.408238679 0.368164063
vn 0.0556115136 -0.894032538 -0.444537
vn 0.819024861 -0.55022496 0.162636831
vn -0.508243263 -0.8460449 0.1609249
vn 0.444945127 -0.6677803 0.5967356
vn -0.5871255 -0.8094694 -0.00655790651
vn 0.621677935 -0.3309872 0.709904253
vn -0.435881644 -0.637589753 -0.635205865
vn -0.5386874 -0.524033 0.6597009
vn -0.3609395 -0.932457864 -0.0156522188
vn 0.0542170666 -0.645241857 -0.7620521
vn 0.330714554 0.914197564 -0.234245017
vn 0.6426385 0.7512486 -0.150470212
vn 0.198001757 0.9537058 -0.226363853
vn 0.70173 0.6535889 -0.283542931
vn 0.9090492 0.3360517 -0.2463712
vn 0.922077239 0.372370452 -0.105422221
vn 0.7605563 0.302369177 -0.5745668
vn 0.418843925 0.705019 -0.572291851
vn 0.9422213 -0.0369666927 -0.332945257
vn 0.9988532 0.0304714013 -0.03692978
vn 0.7673759 -0.2797295 -0.5769625
vn 0.8164436 -0.03987127 -0.576047
vn 0.9792056 -0.2028347 -0.00379941263
vn 0.337476432 -0.293119073 -0.8945339
vn 0.344491452 -0.08150375 -0.935244739
vn 0.30505538 0.2851092 -0.908655047
vn 0.9536354 -0.189687654 0.233662486
vn 0.877166867 -0.327591479 0.351086974
vn -0.06383115 -0.7456061 -0.6633228
vn 0.355610073 -0.9339916 -0.03465772
vn 0.36564514 -0.8144251 -0.450572252
vn 0.923785746 -0.2139889 0.317535251
vn 0.743737 -0.371444821 -0.5557734
vn 0.8928964 -0.3993405 -0.207998008
vn 0.920983255 -0.329734683 0.207520679
vn 0.76797533 -0.31019178 0.5603525
vn 0.62219584 -0.782283843 0.0300716385
vn 0.512434959 -0.848229945 0.133851811
vn -0.0829236 -0.893736362 -0.4408617
vn 0.581729054 -0.8128939 -0.0281923022
vn 0.834816039 0.507062137 0.21440655
vn 0.39371255 -0.6367648 -0.6629638
vn -0.608271241 -0.31081298 0.730343342
vn -0.410057247 -0.6750443 0.613325536
vn 0.5706547 -0.5264089 0.630275249
vn 0.473820239 -0.8119501 -0.340927362
vn -0.09729694 -0.6449169 -0.758034
vn 0.716725 0.1918172 -0.6704561
vn 0.65484643 -0.5633577 0.5037899
vn 0.250977159 -0.416582018 -0.8737676
vn 0.716388941 -0.197136983 -0.6692712
vn -0.4984739 -0.7080464 0.5001941
vn -0.09729694 -0.6449169 -0.758034
vn 0.473820239 -0.8119501 -0.340927362
vn 0.65484643 -0.5633577 0.5037899
vn 0.8928964 -0.3993405 -0.207998008
vn -0.06383115 -0.7456061 -0.6633228
vn -0.2907416 -0.591247 0.7522608
vn 0.62219584 -0.782283843 0.0300716385
vn 0.36564514 -0.8144251 -0.450572252
vn -0.8163898 -0.4047027 0.411975
vn -0.0829236 -0.893736362 -0.4408617
vn -0.804259837 -0.549643 0.2259617
vn 0.512434959 -0.848229945 0.133851811
vn 0.581729054 -0.8128939 -0.0281923022
vn -0.410057247 -0.6750443 0.613325536
vn 0.39371255 -0.6367648 -0.6629638
vn -0.608271241 -0.31081298 0.730343342
vn 0.5706547 -0.5264089 0.630275249
vn 0.355610073 -0.9339916 -0.03465772
vn -0.09729694 -0.6449169 -0.758034
vn 0.229301631 0.951892853 -0.203275174
vn 0.330714554 0.914197564 -0.234245017
vn -0.133916885 0.9876523 -0.08129699
vn -0.2855204 0.94545716 -0.156808436
vn 0.6414652 0.7012519 -0.3110758
vn 0.70173 0.6535889 -0.283542931
vn -0.6710176 0.7414112 0.00669077737
vn -0.3252737 0.9359158 0.135124326
vn -0.31622383 0.9357023 0.156408772
vn -0.487205625 0.872864544 0.0271685068
vn -0.61476624 0.772731841 0.157949165
vn -0.952398658 0.2950979 -0.0765112862
vn -0.862172365 0.5042798 0.04858709
vn 0.0875607 -0.460645765 0.8832545
vn 0.4100752 -0.5411051 0.7341959
vn 0.3704681 -0.0608788244 0.926848
vn -0.5587311 -0.6454323 0.5208039
vn 0.615921736 -0.6205255 0.4853746
vn 0.9704868 -0.171380579 0.1696585
vn -0.7235366 -0.661339 -0.197801679
vn 0.939240336 0.306260973 0.155022085
vn 0.8883262 0.310506552 -0.33832255
vn 0.6445543 0.7255739 0.241023332
vn 0.2906405 0.8970426 0.332930565
vn 0.3682445 0.4690496 0.8027381
vn 0.00254035625 0.0280668586 0.9996028
vn -0.223698139 0.8994866 0.3753438
vn -0.0830385238 0.516517043 0.852241
vn 0.701020956 0.180425227 0.6899394
vn -0.127200648 -0.8427964 -0.5229859
vn -0.407123029 -0.0505875722 -0.911971331
vn 0.9230893 -0.1598598 -0.349787
vn 0.7181089 -0.280962378 0.636694431
vn 0.3736324 -0.8444567 -0.383786082
vn 0.9704868 -0.171380579 0.1696585
vn -0.18426919 -0.9821689 0.0372708179
vn 0.934497535 -0.0150299259 -0.3556522
vn 0.502993047 -0.814815044 -0.288226277
vn -0.213410467 -0.237810478 0.947577
vn -0.120758094 -0.471355319 0.873637
vn 0.229402691 -0.7416951 0.6302878
vn -0.130404189 0.1270299 0.9832895
vn -0.450686485 0.4266872 0.7841044
vn -0.4893163 0.3959558 0.777038336
vn -0.5472091 0.0309013948 0.8364253
vn -0.6556159 -0.35169217 0.66819185
vn 0.594855666 -0.5957039 0.539707
vn 0.37759757 -0.217527524 0.9000566
vn -0.6502893 0.131978616 0.7481347
vn -0.429158658 0.2716392 0.861414552
vn -0.623451 0.6565043 0.424630433
vn -0.918354869 0.0812979 0.387317747
vn -0.886031151 -0.0123152053 0.463462144
vn -0.146329477 -0.9337084 -0.326766431
vn -0.984463632 -0.110449247 0.136500061
vn -0.9810431 -0.150240481 -0.122401781
vn -0.739083648 -0.605499148 0.29517144
vn 0.4238321 -0.8453355 -0.3252296
vn 0.219140112 -0.9690028 -0.114066817
vn -0.993204355 0.0890131 0.0749787539
vn -0.6524462 0.701590955 0.286503136
vn -0.6693242 -0.7409507 0.0547461174
vn -0.570020139 -0.247709587 0.7834009
vn -0.762609 -0.451426119 0.4632947
vn -0.5104633 -0.587676466 -0.627744853
vn 0.24678579 0.07876378 -0.9658639
vn -0.5104633 -0.587676466 -0.627744853
vn -0.133725867 -0.540180147 -0.8308567
vn 0.229402691 -0.7416951 0.6302878
vn -0.7235366 -0.661339 -0.197801679
vn 0.3736324 -0.8444567 -0.383786082
vn 0.396503836 -0.875466764 0.276301742
vn 0.9422213 -0.0369666927 -0.332945257
vn -0.407123029 -0.0505875722 -0.911971331
vn 0.4100752 -0.5411051 0.7341959
vn 0.502993047 -0.814815044 -0.288226277
vn -0.08413653 -0.6729268 -0.7349086
vn 0.37759757 -0.217527524 0.9000566
vn 0.594855666 -0.5957039 0.539707
vn -0.9810431 -0.150240481 -0.122401781
vn -0.146329477 -0.9337084 -0.326766431
vn 0.320936918 -0.932956338 0.163070425
vn 0.24678579 0.07876378 -0.9658639
vn 0.4238321 -0.8453355 -0.3252296
vn 0.320936918 -0.932956338 0.163070425
vn 0.396503836 -0.875466764 0.276301742
vn 0.9422213 -0.0369666927 -0.332945257
vn 0.9090492 0.3360517 -0.2463712
vn -0.905973732 -0.359194636 0.224033132
vn 0.219140112 -0.9690028 -0.114066817
vn -0.18426919 -0.9821689 0.0372708179
vn -0.526752532 -0.549297452 0.6486941
vn 0.9799488 0.0006567186 0.199248418
vn 0.916475952 -0.07750378 0.3925111
vn -0.290162444 -0.58279264 0.7590511
vn 0.0198939126 0.297928035 -0.954381
vn -0.0262525342 0.3522065 -0.935554
vn 0.988915563 -0.08576087 0.121206552
vn -0.19785817 0.0250503141 -0.9799105
vn -0.568866551 -0.430490047 0.7007633
vn 0.118593477 -0.9717888 -0.203867719
vn -0.0262525342 0.3522065 -0.935554
vn 0.0198939126 0.297928035 -0.954381
vn -0.19785817 0.0250503141 -0.9799105
vn -0.7125098 0.148189247 0.685835063
vn -0.142296523 -0.906028 0.398578674
vn 0.9079631 0.0431506261 0.4168225
vn -0.05359795 -0.483353049 -0.8737832
vn 0.106153518 0.183343157 0.9773007
vn 0.0350932963 0.260018677 0.9649657
vn 0.965586245 0.04430167 -0.256282121
vn 0.941985965 0.09588089 -0.321666479
vn 0.9860681 -0.07465204 -0.148649737
vn -0.277629673 -0.167169452 -0.9460318
vn -0.5158787 -0.106636636 -0.8499987
vn -0.9941645 -0.104342416 0.0273771081
vn -0.03062788 0.2866111 0.9575573
vn -0.3238599 -0.8466847 0.4221846
vn 0.927876353 -0.367016166 -0.06591334
vn 0.043781016 0.207100168 0.9773396
vn -0.6739272 -0.28140527 -0.6831056
vn -0.830170751 0.247994661 -0.499314666
vn 0.106153518 0.183343157 0.9773007
vn -0.946377933 0.0271845758 0.3219159
vn 0.0350932963 0.260018677 0.9649657
vn -0.9941645 -0.104342416 0.0273771081
vn 0.043781016 0.207100168 0.9773396
vn -0.3238599 -0.8466847 0.4221846
vn -0.03062788 0.2866111 0.9575573
vn -0.6739272 -0.28140527 -0.6831056
vn -0.277629673 -0.167169452 -0.9460318
vn -0.5158787 -0.106636636 -0.8499987
vn -0.05359795 -0.483353049 -0.8737832
vn -0.142296523 -0.906028 0.398578674
vn -0.7125098 0.148189247 0.685835063
vn -0.946377933 0.0271845758 0.3219159
vn -0.830170751 0.247994661 -0.499314666
vn 0.7484914 0.1450617 0.647084
vn -0.8843975 0.0469872952 0.464363277
vn 0.159349844 -0.906673968 0.390576363
vn 0.005134737 -0.483479142 -0.8753408
vn -0.053410206 0.1836855 0.981533
vn -0.957293451 0.09994708 -0.271292955
vn -0.9776159 0.04846183 -0.204740256
vn 0.0172233414 0.2600567 0.965439737
vn 0.469633043 -0.108746007 -0.876138747
vn 0.226372227 -0.168248788 -0.9593998
vn -0.992872 -0.07041586 -0.09616037
vn 0.9937625 -0.10859786 -0.0253502037
vn 0.08257239 0.2863688 0.954554737
vn -0.931628048 -0.363034278 -0.0165915769
vn 0.3421582 -0.848111331 0.4045182
vn 0.008976301 0.207174256 0.9782629
vn 0.635556936 -0.284208268 -0.7178392
vn 0.803587139 0.244497061 -0.542649865
vn -0.053410206 0.1836855 0.981533
vn 0.0172233414 0.2600567 0.965439737
vn 0.9622202 0.0230987445 0.271290928
vn 0.008976301 0.207174256 0.9782629
vn 0.9937625 -0.10859786 -0.0253502037
vn 0.3421582 -0.848111331 0.4045182
vn 0.635556936 -0.284208268 -0.7178392
vn 0.08257239 0.2863688 0.954554737
vn 0.226372227 -0.168248788 -0.9593998
vn 0.469633043 -0.108746007 -0.876138747
vn 0.005134737 -0.483479142 -0.8753408
vn 0.7484914 0.1450617 0.647084
vn 0.159349844 -0.906673968 0.390576363
vn 0.9622202 0.0230987445 0.271290928
vn 0.803587139 0.244497061 -0.542649865
vn 0.538005054 -0.752215564 -0.380423874
vn 0.508177 -0.629707158 -0.5875585
vn 0.762639761 -0.416081339 -0.495234251
vn -0.0244493037 -0.466655731 -0.884101033
vn -0.0253095366 -0.383332819 -0.923263431
vn 0.582608044 -0.392769665 -0.711547554
vn 0.696985662 -0.166390345 -0.69751364
vn 0.922681034 -0.0368786752 -0.383796334
vn -0.02620638 -0.2503017 -0.967813134
vn -0.6160759 -0.7132464 -0.3342605
vn -0.813081264 -0.407339066 -0.415901065
vn -0.576968849 -0.6141754 -0.5384195
vn -0.6491927 -0.392702252 -0.6514091
vn -0.9288189 -0.100021705 -0.3567789
vn -0.736141741 -0.183371812 -0.6515137
usemtl 9011002401_part_0_material_0
f 1/1/1 2/2/2 3/3/3
f 4/4/4 5/5/5 2/2/2
f 2/2/2 6/6/6 4/4/4
f 5/5/5 4/4/4 7/7/7
f 7/7/7 8/8/8 5/5/5
f 6/6/6 2/2/2 1/1/1
f 9/9/9 7/7/7 4/4/4
f 4/4/4 10/10/10 9/9/9
f 4/4/4 6/6/6 10/10/10
f 6/6/6 11/11/11 10/10/10
f 7/7/7 12/12/12 13/13/13
f 13/13/13 8/8/8 7/7/7
f 14/14/14 15/15/15 12/12/12
f 12/12/12 16/16/16 14/14/14
f 14/14/14 16/16/16 17/17/17
f 17/17/17 18/18/18 14/14/14
f 19/19/19 20/20/20 17/17/17
f 17/17/17 21/21/21 19/19/19
f 13/13/13 15/15/15 22/22/22
f 10/10/10 11/11/11 21/21/21
f 21/21/21 9/9/9 10/10/10
f 23/23/23 24/24/24 25/25/25
f 26/26/26 27/27/27 28/28/28
f 28/28/28 29/29/29 26/26/26
f 27/27/27 26/26/26 30/30/30
f 27/27/27 30/30/30 22/22/22
f 31/31/31 32/32/32 23/23/23
f 32/32/32 24/24/24 23/23/23
f 27/27/27 15/15/15 28/28/28
f 33/33/33 32/32/32 34/34/34
f 35/35/35 24/24/24 36/36/36
f 24/24/24 35/35/35 29/29/29
f 37/37/37 29/29/29 35/35/35
f 24/24/24 32/32/32 33/33/33
f 26/26/26 29/29/29 37/37/37
f 38/38/38 37/37/37 39/39/39
f 37/37/37 38/38/38 26/26/26
f 40/40/40 41/41/41 26/26/26
f 26/26/26 38/38/38 40/40/40
f 38/38/38 39/39/39 42/42/42
f 40/40/40 38/38/38 42/42/42
f 43/43/43 44/44/44 45/45/45
f 44/44/44 43/43/43 46/46/46
f 47/47/47 48/48/48 18/18/18
f 15/15/15 14/14/14 28/28/28
f 47/47/47 18/18/18 49/49/49
f 49/49/49 31/31/31 47/47/47
f 48/48/48 47/47/47 45/45/45
f 45/45/45 44/44/44 48/48/48
f 44/44/44 46/46/46 28/28/28
f 28/28/28 48/48/48 44/44/44
f 23/23/23 47/47/47 31/31/31
f 28/28/28 14/14/14 48/48/48
f 18/18/18 48/48/48 14/14/14
f 30/30/30 26/26/26 41/41/41
f 27/27/27 22/22/22 15/15/15
f 50/50/50 51/51/51 52/52/52
f 51/51/51 50/50/50 53/53/53
f 53/53/53 50/50/50 54/54/54
f 52/52/52 55/55/55 50/50/50
f 56/56/56 57/57/57 58/58/58
f 57/57/57 56/56/56 59/59/59
f 60/60/60 58/58/58 57/57/57
f 61/61/61 59/59/59 56/56/56
f 59/59/59 61/61/61 62/62/62
f 62/62/62 61/61/61 63/63/63
f 63/63/63 64/64/64 62/62/62
f 63/63/63 65/65/65 66/66/66
f 66/66/66 64/64/64 63/63/63
f 65/65/65 67/67/67 68/68/68
f 68/68/68 66/66/66 65/65/65
f 68/68/68 67/67/67 69/69/69
f 50/50/50 55/55/55 70/70/70
f 23/23/23 71/71/71 47/47/47
f 6/6/6 1/1/1 11/11/11
f 12/12/12 15/15/15 13/13/13
f 7/7/7 9/9/9 16/16/16
f 16/16/16 12/12/12 7/7/7
f 16/16/16 9/9/9 21/21/21
f 21/21/21 17/17/17 16/16/16
f 20/20/20 49/49/49 18/18/18
f 18/18/18 17/17/17 20/20/20
f 11/11/11 19/19/19 21/21/21
f 24/24/24 29/29/29 25/25/25
f 25/25/25 29/29/29 28/28/28
f 70/70/70 54/54/54 50/50/50
f 1/1/1 3/3/3 72/72/72
f 73/73/73 74/74/74 72/72/72
f 72/72/72 75/75/75 73/73/73
f 75/75/75 76/76/76 77/77/77
f 77/77/77 73/73/73 75/75/75
f 74/74/74 1/1/1 72/72/72
f 78/78/78 79/79/79 73/73/73
f 73/73/73 77/77/77 78/78/78
f 73/73/73 79/79/79 74/74/74
f 74/74/74 79/79/79 11/11/11
f 77/77/77 76/76/76 80/80/80
f 80/80/80 81/81/81 77/77/77
f 82/82/82 83/83/83 81/81/81
f 81/81/81 84/84/84 82/82/82
f 82/82/82 85/85/85 86/86/86
f 86/86/86 83/83/83 82/82/82
f 19/19/19 87/87/87 86/86/86
f 86/86/86 20/20/20 19/19/19
f 88/88/88 89/89/89 84/84/84
f 79/79/79 87/87/87 11/11/11
f 87/87/87 79/79/79 78/78/78
f 90/90/90 91/91/91 92/92/92
f 93/93/93 94/94/94 95/95/95
f 95/95/95 96/96/96 93/93/93
f 96/96/96 97/97/97 93/93/93
f 96/96/96 89/89/89 97/97/97
f 31/31/31 90/90/90 32/32/32
f 32/32/32 90/90/90 92/92/92
f 96/96/96 95/95/95 84/84/84
f 98/98/98 34/34/34 32/32/32
f 99/99/99 100/100/100 92/92/92
f 92/92/92 94/94/94 99/99/99
f 101/101/101 99/99/99 94/94/94
f 92/92/92 98/98/98 32/32/32
f 93/93/93 101/101/101 94/94/94
f 102/102/102 103/103/103 101/101/101
f 101/101/101 93/93/93 102/102/102
f 104/104/104 102/102/102 93/93/93
f 93/93/93 105/105/105 104/104/104
f 102/102/102 106/106/106 103/103/103
f 104/104/104 106/106/106 102/102/102
f 107/107/107 108/108/108 109/109/109
f 109/109/109 110/110/110 107/107/107
f 111/111/111 85/85/85 112/112/112
f 84/84/84 95/95/95 82/82/82
f 111/111/111 31/31/31 49/49/49
f 49/49/49 85/85/85 111/111/111
f 112/112/112 109/109/109 108/108/108
f 108/108/108 111/111/111 112/112/112
f 109/109/109 112/112/112 95/95/95
f 95/95/95 110/110/110 109/109/109
f 90/90/90 31/31/31 111/111/111
f 95/95/95 112/112/112 82/82/82
f 85/85/85 82/82/82 112/112/112
f 97/97/97 105/105/105 93/93/93
f 96/96/96 84/84/84 89/89/89
f 113/113/113 114/114/114 115/115/115
f 115/115/115 116/116/116 113/113/113
f 116/116/116 117/117/117 113/113/113
f 114/114/114 113/113/113 118/118/118
f 119/119/119 58/58/58 120/120/120
f 120/120/120 121/121/121 119/119/119
f 60/60/60 120/120/120 58/58/58
f 122/122/122 119/119/119 121/121/121
f 121/121/121 123/123/123 122/122/122
f 124/124/124 122/122/122 123/123/123
f 123/123/123 125/125/125 124/124/124
f 126/126/126 127/127/127 124/124/124
f 124/124/124 125/125/125 126/126/126
f 128/128/128 129/129/129 127/127/127
f 127/127/127 126/126/126 128/128/128
f 128/128/128 130/130/130 129/129/129
f 113/113/113 131/131/131 118/118/118
f 90/90/90 111/111/111 132/132/132
f 74/74/74 11/11/11 1/1/1
f 81/81/81 80/80/80 88/88/88
f 88/88/88 84/84/84 81/81/81
f 77/77/77 81/81/81 83/83/83
f 83/83/83 78/78/78 77/77/77
f 83/83/83 86/86/86 87/87/87
f 87/87/87 78/78/78 83/83/83
f 20/20/20 86/86/86 85/85/85
f 85/85/85 49/49/49 20/20/20
f 11/11/11 87/87/87 19/19/19
f 92/92/92 91/91/91 94/94/94
f 91/91/91 95/95/95 94/94/94
f 131/131/131 113/113/113 117/117/117
f 133/133/133 134/134/134 135/135/135
f 135/135/135 136/136/136 133/133/133
f 134/134/134 133/133/133 137/137/137
f 137/137/137 138/138/138 134/134/134
f 139/139/139 140/140/140 141/141/141
f 135/135/135 141/141/141 140/140/140
f 135/135/135 142/142/142 136/136/136
f 142/142/142 135/135/135 140/140/140
f 139/139/139 143/143/143 140/140/140
f 144/144/144 145/145/145 143/143/143
f 143/143/143 139/139/139 144/144/144
f 146/146/146 147/147/147 148/148/148
f 149/149/149 150/150/150 151/151/151
f 151/151/151 152/152/152 149/149/149
f 153/153/153 154/154/154 137/137/137
f 137/137/137 155/155/155 153/153/153
f 133/133/133 156/156/156 155/155/155
f 155/155/155 137/137/137 133/133/133
f 148/148/148 157/157/157 158/158/158
f 156/156/156 159/159/159 160/160/160
f 155/155/155 161/161/161 153/153/153
f 133/133/133 136/136/136 159/159/159
f 159/159/159 156/156/156 133/133/133
f 162/162/162 163/163/163 164/164/164
f 158/158/158 146/146/146 148/148/148
f 156/156/156 160/160/160 157/157/157
f 165/165/165 161/161/161 148/148/148
f 162/162/162 150/150/150 149/149/149
f 166/166/166 152/152/152 167/167/167
f 168/168/168 165/165/165 147/147/147
f 169/169/169 151/151/151 150/150/150
f 150/150/150 164/164/164 169/169/169
f 157/157/157 160/160/160 158/158/158
f 148/148/148 161/161/161 157/157/157
f 147/147/147 165/165/165 148/148/148
f 146/146/146 170/170/170 147/147/147
f 171/171/171 172/172/172 158/158/158
f 172/172/172 171/171/171 173/173/173
f 174/174/174 175/175/175 176/176/176
f 177/177/177 178/178/178 179/179/179
f 179/179/179 180/180/180 177/177/177
f 174/174/174 181/181/181 175/175/175
f 182/182/182 171/171/171 158/158/158
f 160/160/160 159/159/159 183/183/183
f 184/184/184 185/185/185 182/182/182
f 142/142/142 183/183/183 159/159/159
f 159/159/159 136/136/136 142/142/142
f 186/186/186 187/187/187 188/188/188
f 182/182/182 160/160/160 183/183/183
f 179/179/179 178/178/178 186/186/186
f 173/173/173 189/189/189 190/190/190
f 158/158/158 160/160/160 182/182/182
f 173/173/173 191/191/191 172/172/172
f 188/188/188 187/187/187 192/192/192
f 192/192/192 144/144/144 188/188/188
f 182/182/182 183/183/183 184/184/184
f 183/183/183 142/142/142 193/193/193
f 194/194/194 184/184/184 195/195/195
f 196/196/196 185/185/185 194/194/194
f 194/194/194 197/197/197 196/196/196
f 190/190/190 189/189/189 198/198/198
f 196/196/196 189/189/189 173/173/173
f 173/173/173 171/171/171 196/196/196
f 196/196/196 197/197/197 198/198/198
f 198/198/198 189/189/189 196/196/196
f 196/196/196 171/171/171 182/182/182
f 182/182/182 185/185/185 196/196/196
f 194/194/194 185/185/185 184/184/184
f 175/175/175 193/193/193 143/143/143
f 140/140/140 193/193/193 142/142/142
f 184/184/184 181/181/181 195/195/195
f 199/199/199 200/200/200 201/201/201
f 202/202/202 203/203/203 204/204/204
f 205/205/205 206/206/206 149/149/149
f 149/149/149 152/152/152 205/205/205
f 206/206/206 162/162/162 149/149/149
f 207/207/207 208/208/208 209/209/209
f 210/210/210 211/211/211 212/212/212
f 211/211/211 213/213/213 212/212/212
f 209/209/209 208/208/208 214/214/214
f 215/215/215 201/201/201 216/216/216
f 199/199/199 201/201/201 215/215/215
f 195/195/195 181/181/181 174/174/174
f 172/172/172 217/217/217 146/146/146
f 158/158/158 172/172/172 146/146/146
f 167/167/167 153/153/153 161/161/161
f 161/161/161 165/165/165 167/167/167
f 146/146/146 217/217/217 170/170/170
f 217/217/217 172/172/172 191/191/191
f 165/165/165 168/168/168 218/218/218
f 165/165/165 218/218/218 167/167/167
f 167/167/167 218/218/218 166/166/166
f 169/169/169 219/219/219 220/220/220
f 220/220/220 154/154/154 169/169/169
f 140/140/140 143/143/143 193/193/193
f 175/175/175 143/143/143 145/145/145
f 145/145/145 176/176/176 175/175/175
f 177/177/177 192/192/192 187/187/187
f 187/187/187 178/178/178 177/177/177
f 187/187/187 186/186/186 178/178/178
f 156/156/156 157/157/157 155/155/155
f 163/163/163 219/219/219 169/169/169
f 169/169/169 164/164/164 163/163/163
f 154/154/154 153/153/153 151/151/151
f 151/151/151 169/169/169 154/154/154
f 162/162/162 164/164/164 150/150/150
f 220/220/220 138/138/138 137/137/137
f 137/137/137 154/154/154 220/220/220
f 13/13/13 22/22/22 221/221/221
f 200/200/200 222/222/222 201/201/201
f 209/209/209 202/202/202 207/207/207
f 202/202/202 223/223/223 207/207/207
f 202/202/202 204/204/204 223/223/223
f 222/222/222 200/200/200 214/214/214
f 214/214/214 200/200/200 209/209/209
f 175/175/175 181/181/181 193/193/193
f 193/193/193 181/181/181 184/184/184
f 193/193/193 184/184/184 183/183/183
f 144/144/144 192/192/192 145/145/145
f 145/145/145 192/192/192 177/177/177
f 177/177/177 176/176/176 145/145/145
f 174/174/174 176/176/176 177/177/177
f 177/177/177 180/180/180 174/174/174
f 155/155/155 157/157/157 161/161/161
f 224/224/224 225/225/225 226/226/226
f 226/226/226 227/227/227 224/224/224
f 225/225/225 228/228/228 229/229/229
f 229/229/229 226/226/226 225/225/225
f 228/228/228 225/225/225 230/230/230
f 230/230/230 231/231/231 228/228/228
f 232/232/232 230/230/230 225/225/225
f 225/225/225 224/224/224 232/232/232
f 233/233/233 231/231/231 230/230/230
f 233/233/233 230/230/230 232/232/232
f 234/234/234 235/235/235 224/224/224
f 224/224/224 227/227/227 234/234/234
f 232/232/232 224/224/224 235/235/235
f 235/235/235 236/236/236 232/232/232
f 236/236/236 233/233/233 232/232/232
f 237/237/237 238/238/238 239/239/239
f 240/240/240 239/239/239 238/238/238
f 241/241/241 242/242/242 243/243/243
f 243/243/243 244/244/244 241/241/241
f 243/243/243 245/245/245 246/246/246
f 246/246/246 247/247/247 243/243/243
f 239/239/239 248/248/248 237/237/237
f 248/248/248 239/239/239 245/245/245
f 249/249/249 250/250/250 251/251/251
f 252/252/252 245/245/245 243/243/243
f 243/243/243 242/242/242 252/252/252
f 250/250/250 253/253/253 251/251/251
f 245/245/245 252/252/252 249/249/249
f 249/249/249 251/251/251 245/245/245
f 248/248/248 251/251/251 253/253/253
f 251/251/251 248/248/248 245/245/245
f 247/247/247 254/254/254 244/244/244
f 244/244/244 243/243/243 247/247/247
f 240/240/240 245/245/245 239/239/239
f 245/245/245 240/240/240 246/246/246
f 255/255/255 256/256/256 257/257/257
f 256/256/256 258/258/258 259/259/259
f 259/259/259 257/257/257 256/256/256
f 260/260/260 261/261/261 262/262/262
f 262/262/262 261/261/261 259/259/259
f 259/259/259 258/258/258 262/262/262
f 263/263/263 258/258/258 256/256/256
f 256/256/256 264/264/264 263/263/263
f 265/265/265 266/266/266 267/267/267
f 258/258/258 265/265/265 267/267/267
f 265/265/265 258/258/258 263/263/263
f 254/254/254 247/247/247 268/268/268
f 255/255/255 269/269/269 256/256/256
f 270/270/270 271/271/271 272/272/272
f 273/273/273 272/272/272 271/271/271
f 274/274/274 275/275/275 276/276/276
f 276/276/276 277/277/277 274/274/274
f 276/276/276 278/278/278 279/279/279
f 279/279/279 280/280/280 276/276/276
f 271/271/271 270/270/270 281/281/281
f 281/281/281 280/280/280 271/271/271
f 282/282/282 283/283/283 284/284/284
f 285/285/285 277/277/277 276/276/276
f 276/276/276 280/280/280 285/285/285
f 284/284/284 283/283/283 286/286/286
f 280/280/280 283/283/283 282/282/282
f 282/282/282 285/285/285 280/280/280
f 281/281/281 286/286/286 283/283/283
f 283/283/283 280/280/280 281/281/281
f 278/278/278 276/276/276 275/275/275
f 275/275/275 287/287/287 278/278/278
f 273/273/273 271/271/271 280/280/280
f 280/280/280 279/279/279 273/273/273
f 288/288/288 289/289/289 290/290/290
f 290/290/290 289/289/289 291/291/291
f 291/291/291 292/292/292 290/290/290
f 293/293/293 294/294/294 295/295/295
f 294/294/294 292/292/292 291/291/291
f 291/291/291 295/295/295 294/294/294
f 296/296/296 297/297/297 290/290/290
f 290/290/290 292/292/292 296/296/296
f 298/298/298 299/299/299 300/300/300
f 292/292/292 299/299/299 298/298/298
f 298/298/298 296/296/296 292/292/292
f 287/287/287 301/301/301 278/278/278
f 288/288/288 290/290/290 302/302/302
f 303/303/303 304/304/304 305/305/305
f 304/304/304 306/306/306 307/307/307
f 307/307/307 308/308/308 304/304/304
f 305/305/305 308/308/308 309/309/309
f 309/309/309 310/310/310 305/305/305
f 308/308/308 307/307/307 311/311/311
f 311/311/311 309/309/309 308/308/308
f 304/304/304 308/308/308 305/305/305
f 312/312/312 313/313/313 314/314/314
f 314/314/314 315/315/315 307/307/307
f 307/307/307 306/306/306 314/314/314
f 313/313/313 316/316/316 317/317/317
f 317/317/317 315/315/315 313/313/313
f 315/315/315 317/317/317 311/311/311
f 311/311/311 307/307/307 315/315/315
f 314/314/314 313/313/313 315/315/315
