mtllib 9012002504.mtl
o 9012002504_part_0
v -0.262800723 0.0005273819 0.279660642
v -0.430073261 0.000239253044 0.254886866
v -0.4821378 0.000176787376 0.137936
v -0.1899313 0.0007647276 0.146426916
v -0.424703181 0.0006365776 -0.35118717
v -0.303602368 0.000663995743 -0.420893252
v -0.195989653 0.0006427765 -0.348815978
v -0.195989653 0.0006427765 -0.348815978
v -0.303602368 0.000663995743 -0.420893252
v -0.291133523 0.185314536 -0.4059024
v -0.1577453 0.162658453 -0.3426758
v -0.4296151 0.162921667 -0.359603643
v -0.414385825 0.28041935 -0.179782063
v -0.401478171 0.324070215 -0.27791667
v -0.293998718 0.298788667 -0.358635
v -0.168310553 0.306842566 -0.2514515
v -0.1577453 0.162658453 -0.3426758
v -0.168310553 0.306842566 -0.2514515
v -0.173669547 0.273517966 -0.15134941
v -0.17060034 0.131106138 -0.1273461
v -0.4821378 0.000176787376 0.137936
v -0.459799439 0.132075667 0.156374723
v -0.46828872 0.108881712 0.0436478034
v -0.485004723 0.0003042221 0.03967637
v -0.406242132 0.146824837 0.104584545
v -0.374756545 0.1519885 -0.0567730144
v -0.448691428 0.101041317 -0.146979347
v -0.190326467 0.000552535057 -0.09474781
v -0.195989653 0.0006427765 -0.348815978
v -0.190204769 0.1160903 0.0184292533
v -0.22655341 0.134435654 0.164525062
v -0.1899313 0.0007647276 0.146426916
v -0.186425909 0.000729680061 0.0278083086
v -0.294259071 0.238961339 -0.06424269
v -0.424703181 0.0006365776 -0.35118717
v -0.4580258 0.000548601151 -0.121684134
v -0.262586057 0.165154815 -0.0404496081
v -0.401478171 0.324070215 -0.27791667
v -0.4271633 0.414108157 -0.224905
v -0.28652072 0.472577333 -0.3276053
v -0.293998718 0.298788667 -0.358635
v -0.131295308 0.4032756 -0.216945812
v -0.168310553 0.306842566 -0.2514515
v -0.168310553 0.306842566 -0.2514515
v -0.131295308 0.4032756 -0.216945812
v -0.1540958 0.3409711 -0.04006777
v -0.173669547 0.273517966 -0.15134941
v -0.2978794 0.3325472 0.04500483
v -0.294259071 0.238961339 -0.06424269
v -0.414385825 0.28041935 -0.179782063
v -0.456992626 0.357858062 -0.07441633
v -0.243107617 0.158436179 0.106820792
v -0.262800723 0.0005273819 0.279660642
v -0.346461177 0.3349347 0.1978004
v -0.403133124 0.205993176 0.247776821
v -0.3960981 0.188520789 0.316084743
v -0.485004723 0.0003042221 0.03967637
v -0.186425909 0.000729680061 0.0278083086
v -0.190326467 0.000552535057 -0.09474781
v -0.4580258 0.000548601151 -0.121684134
v -0.376354039 0.22313714 0.208801627
v -0.430073261 0.000239253044 0.254886866
v -0.4271633 0.414108157 -0.224905
v -0.3052836 0.212249517 -0.244253486
v -0.28652072 0.472577333 -0.3276053
v -0.131295308 0.4032756 -0.216945812
v -0.1540958 0.3409711 -0.04006777
v -0.2978794 0.3325472 0.04500483
v -0.456992626 0.357858062 -0.07441633
v -0.28651008 0.20717299 0.251851916
v -0.2947864 0.228629827 0.202624828
v -0.304239571 0.185492277 0.329491258
v -0.304239571 0.185492277 0.329491258
v -0.262800723 0.0005273819 0.279660642
v 0.2824497 -0.000347971916 0.4757958
v 0.209587038 -0.000158309937 0.342558384
v 0.50179404 -0.000739693642 0.334082484
v 0.449723542 -0.0006392002 0.451030672
v 0.4443843 -0.000447630882 -0.155043676
v 0.215670615 -0.0004478693 -0.152684122
v 0.32328698 -0.0004477501 -0.224755928
v 0.215670615 -0.0004478693 -0.152684122
v 0.181700587 0.1341033 -0.14692831
v 0.314073741 0.150157928 -0.211565062
v 0.32328698 -0.0004477501 -0.224755928
v 0.4507055 0.1357255 -0.160506785
v 0.4205853 0.298650026 -0.10564743
v 0.4329652 0.277019024 0.003705008
v 0.1882549 0.281719446 -0.0803714246
v 0.314601272 0.270543337 -0.183738515
v 0.181700587 0.1341033 -0.14692831
v 0.192088246 0.131274939 0.07299575
v 0.191663325 0.267716885 0.02427508
v 0.1882549 0.281719446 -0.0803714246
v 0.50179404 -0.000739693642 0.334082484
v 0.504666 -0.0006453991 0.235822991
v 0.487946242 0.107932806 0.239756778
v 0.479450464 0.131164789 0.3524754
v 0.467773259 0.103141665 0.0627108142
v 0.393333137 0.166135192 0.1434818
v 0.425895274 0.145894647 0.300677478
v 0.215670615 -0.0004478693 -0.152684122
v 0.20999451 -0.000452280045 0.101383761
v 0.209863335 0.115123987 0.214521632
v 0.206087708 -0.000233650208 0.2239396
v 0.209587038 -0.000158309937 0.342558384
v 0.246203929 0.13352 0.360613048
v 0.31190443 0.249252319 0.123398528
v 0.477695256 -0.00045681 0.07446107
v 0.4443843 -0.000447630882 -0.155043676
v 0.280951053 0.178108335 0.156628579
v 0.4205853 0.298650026 -0.10564743
v 0.314601272 0.270543337 -0.183738515
v 0.3045491 0.43285346 -0.184082583
v 0.4440777 0.397508979 -0.06993838
v 0.1882549 0.281719446 -0.0803714246
v 0.148346961 0.3820759 -0.06506272
v 0.1882549 0.281719446 -0.0803714246
v 0.191663325 0.267716885 0.02427508
v 0.16862914 0.354266763 0.120686725
v 0.148346961 0.3820759 -0.06506272
v 0.31190443 0.249252319 0.123398528
v 0.310771525 0.364869118 0.208237767
v 0.47181797 0.370886326 0.0888772756
v 0.4329652 0.277019024 0.003705008
v 0.2627603 0.157501459 0.302901447
v 0.2824497 -0.000347971916 0.4757958
v 0.3661036 0.3340341 0.393826485
v 0.415739149 0.187662 0.512163
v 0.422777057 0.205111384 0.4438495
v 0.206087708 -0.000233650208 0.2239396
v 0.504666 -0.0006453991 0.235822991
v 0.477695256 -0.00045681 0.07446107
v 0.20999451 -0.000452280045 0.101383761
v 0.395999461 0.222241282 0.4048671
v 0.449723542 -0.0006392002 0.451030672
v 0.4440777 0.397508979 -0.06993838
v 0.3045491 0.43285346 -0.184082583
v 0.3256675 0.198766 -0.0531336926
v 0.148346961 0.3820759 -0.06506272
v 0.16862914 0.354266763 0.120686725
v 0.310771525 0.364869118 0.208237767
v 0.47181797 0.370886326 0.0888772756
v 0.314432 0.227729321 0.398684323
v 0.3061538 0.206288934 0.4479183
v 0.323880047 0.184635043 0.525565863
v 0.323880047 0.184635043 0.525565863
v 0.2824497 -0.000347971916 0.4757958
vt 0.635127544 0.933168232
vt 0.738823831 0.9295332
vt 0.7894726 0.8869894
vt 0.5846151 0.8691943
vt 0.781021357 0.5247894
vt 0.71134007 0.479513228
vt 0.6414013 0.5105494
vt 0.1208443 0.986682
vt 0.0724394 0.872999251
vt 0.1824251 0.8456542
vt 0.225425959 0.959174
vt 0.146976784 0.73267
vt 0.2954378 0.6175043
vt 0.2964757 0.7100227
vt 0.292911828 0.8109733
vt 0.363937438 0.920670152
vt 0.4617865 0.77780205
vt 0.3293041 0.7288436
vt 0.330107927 0.6313095
vt 0.45337224 0.571781635
vt 0.0784342 0.273753881
vt 0.203931376 0.2535416
vt 0.18075864 0.355935216
vt 0.07749141 0.3579023
vt 0.264257431 0.303445756
vt 0.264583945 0.4560625
vt 0.166395 0.5159863
vt 0.5808121 0.564620852
vt 0.5663058 0.793584764
vt 0.494789124 0.444431543
vt 0.4911418 0.310097337
vt 0.6034055 0.379069924
vt 0.596984863 0.4642235
vt 0.341288328 0.500275135
vt 0.04765358 0.7328636
vt 0.06531561 0.5085788
vt 0.4004662 0.471560478
vt 0.8511965 0.635086954
vt 0.9684751 0.628841341
vt 0.9684751 0.7790281
vt 0.8511965 0.7779294
vt 0.9684751 0.965283036
vt 0.8511965 0.9703053
vt 0.8511965 0.024787724
vt 0.9684751 0.0265942812
vt 0.9684751 0.193156838
vt 0.8511965 0.192175925
vt 0.9684751 0.338350773
vt 0.8511965 0.349106
vt 0.8511965 0.509200037
vt 0.9684751 0.502184749
vt 0.4292559 0.338957369
vt 0.640533 0.294205546
vt 0.395921648 0.08940017
vt 0.277824342 0.156062663
vt 0.237110615 0.100254834
vt 0.7854313 0.8166931
vt 0.6041838 0.788980663
vt 0.6205251 0.6650781
vt 0.7856014 0.6670119
vt 0.327809751 0.183606923
vt 0.07363863 0.194129884
vt 0.7484201 0.17831111
vt 0.6820509 0.1303404
vt 0.6685878 0.218631089
vt 0.6154687 0.177299321
vt 0.612075448 0.07954222
vt 0.682519555 0.0388580561
vt 0.7570372 0.09500623
vt 0.475301027 0.194176376
vt 0.415554523 0.206011832
vt 0.22524941 0.0184924
vt 0.5425888 0.150378108
vt 0.0304674581 0.04109645
vt 0.635127544 0.933168232
vt 0.5846151 0.8691943
vt 0.7894726 0.8869894
vt 0.738823831 0.9295332
vt 0.781021357 0.5247894
vt 0.6414013 0.5105494
vt 0.71134007 0.479513228
vt 0.1208443 0.986682
vt 0.225425959 0.959174
vt 0.1824251 0.8456542
vt 0.0724394 0.872999251
vt 0.146976784 0.73267
vt 0.2964757 0.7100227
vt 0.2954378 0.6175043
vt 0.363937438 0.920670152
vt 0.292911828 0.8109733
vt 0.4617865 0.77780205
vt 0.45337224 0.571781635
vt 0.330107927 0.6313095
vt 0.3293041 0.7288436
vt 0.0784342 0.273753881
vt 0.07749141 0.3579023
vt 0.18075864 0.355935216
vt 0.203931376 0.2535416
vt 0.166395 0.5159863
vt 0.264583945 0.4560625
vt 0.264257431 0.303445756
vt 0.5663058 0.793584764
vt 0.5808121 0.564620852
vt 0.494789124 0.444431543
vt 0.596984863 0.4642235
vt 0.6034055 0.379069924
vt 0.4911418 0.310097337
vt 0.341288328 0.500275135
vt 0.06531561 0.5085788
vt 0.04765358 0.7328636
vt 0.4004662 0.471560478
vt 0.8511965 0.635086954
vt 0.8511965 0.7779294
vt 0.9684751 0.7790281
vt 0.9684751 0.628841341
vt 0.8511965 0.9703053
vt 0.9684751 0.965283036
vt 0.8511965 0.024787724
vt 0.8511965 0.192175925
vt 0.9684751 0.193156838
vt 0.9684751 0.0265942812
vt 0.8511965 0.349106
vt 0.9684751 0.338350773
vt 0.9684751 0.502184749
vt 0.8511965 0.509200037
vt 0.4292559 0.338957369
vt 0.640533 0.294205546
vt 0.395921648 0.08940017
vt 0.237110615 0.100254834
vt 0.277824342 0.156062663
vt 0.6041838 0.788980663
vt 0.7854313 0.8166931
vt 0.7856014 0.6670119
vt 0.6205251 0.6650781
vt 0.327809751 0.183606923
vt 0.07363863 0.194129884
vt 0.7484201 0.17831111
vt 0.6685878 0.218631089
vt 0.6820509 0.1303404
vt 0.6154687 0.177299321
vt 0.612075448 0.07954222
vt 0.682519555 0.0388580561
vt 0.7570372 0.09500623
vt 0.415554523 0.206011832
vt 0.475301027 0.194176376
vt 0.22524941 0.0184924
vt 0.5425888 0.150378108
vt 0.0304674581 0.04109645
vn 0.448918164 -0.6204429 0.6430576
vn -0.5332152 -0.6454607 0.5468656
vn -0.770479441 -0.6166931 0.161403388
vn 0.7703399 -0.59356755 0.232924953
vn -0.629537344 -0.6243445 -0.462468058
vn 0.009269517 -0.5749112 -0.818163455
vn 0.62139225 -0.6659858 -0.41271612
vn 0.62139225 -0.6659858 -0.41271612
vn 0.009269517 -0.5749112 -0.818163455
vn 0.06227154 0.203258589 -0.9771429
vn 0.847806633 0.07020081 -0.52563864
vn -0.7689333 0.153210446 -0.620699763
vn -0.987039566 -0.0987264439 0.126514882
vn -0.829304457 0.191533148 -0.5249468
vn 0.0405034944 0.354696423 -0.9341038
vn 0.9152581 0.0322236978 -0.401577234
vn 0.847806633 0.07020081 -0.52563864
vn 0.9152581 0.0322236978 -0.401577234
vn 0.9474525 -0.195270687 0.2533834
vn 0.9684681 0.0802753046 0.235850722
vn -0.770479441 -0.6166931 0.161403388
vn -0.8685253 0.49379912 0.04273386
vn -0.832835257 0.5483719 -0.07532374
vn -0.7760398 -0.6282943 -0.0548520461
vn -0.324812472 0.917795241 -0.228361055
vn -0.502102852 0.789962351 0.351926446
vn -0.969254 0.24315533 0.03771098
vn 0.6661539 -0.745415151 0.0243975874
vn 0.62139225 -0.6659858 -0.41271612
vn 0.8874206 0.4548715 0.07467818
vn 0.89085114 0.390663832 0.231875479
vn 0.7703399 -0.59356755 0.232924953
vn 0.725947738 -0.6877494 0.000800866168
vn -0.06087396 -0.20042114 0.9778168
vn -0.629537344 -0.6243445 -0.462468058
vn -0.7226983 -0.6860093 -0.08425222
vn 0.312344164 0.798499763 0.5146254
vn -0.829304457 0.191533148 -0.5249468
vn -0.5250793 0.835386634 0.162545055
vn 0.0428091735 0.9522199 -0.3023982
vn 0.0405034944 0.354696423 -0.9341038
vn 0.681206644 0.726821959 0.08767821
vn 0.9152581 0.0322236978 -0.401577234
vn 0.9152581 0.0322236978 -0.401577234
vn 0.681206644 0.726821959 0.08767821
vn 0.64135915 0.435655445 0.631555855
vn 0.9474525 -0.195270687 0.2533834
vn -0.06330812 0.3795443 0.923005
vn -0.06087396 -0.20042114 0.9778168
vn -0.987039566 -0.0987264439 0.126514882
vn -0.696545959 0.467701018 0.5441319
vn 0.455783844 0.8863794 -0.08119622
vn 0.448918164 -0.6204429 0.6430576
vn -0.03615999 0.9312506 -0.362580866
vn -0.8693611 0.493796945 0.019386543
vn -0.565412045 0.252122968 0.78533
vn -0.7760398 -0.6282943 -0.0548520461
vn 0.725947738 -0.6877494 0.000800866168
vn 0.6661539 -0.745415151 0.0243975874
vn -0.7226983 -0.6860093 -0.08425222
vn -0.5821849 0.487168729 -0.650943458
vn -0.5332152 -0.6454607 0.5468656
vn -0.5250793 0.835386634 0.162545055
vn 0.0575416721 0.8942912 0.4437704
vn 0.0428091735 0.9522199 -0.3023982
vn 0.681206644 0.726821959 0.08767821
vn 0.64135915 0.435655445 0.631555855
vn -0.06330812 0.3795443 0.923005
vn -0.696545959 0.467701018 0.5441319
vn 0.8552801 0.4627625 0.233123988
vn 0.627527833 0.6536496 -0.423026
vn 0.4090604 0.2460802 0.8787004
vn 0.4090604 0.2460802 0.8787004
vn 0.448918164 -0.6204429 0.6430576
vn -0.448931038 -0.62023896 0.643245459
vn -0.7703324 -0.5935136 0.233087078
vn 0.770490944 -0.616613746 0.161651537
vn 0.533208 -0.6452581 0.5471117
vn 0.6252697 -0.6288113 -0.462205917
vn -0.615763545 -0.670088649 -0.414507568
vn -0.0109127918 -0.5726853 -0.8197027
vn -0.615763545 -0.670088649 -0.414507568
vn -0.854394257 0.0138417268 -0.5194411
vn -0.05256108 0.119948506 -0.9913878
vn -0.0109127918 -0.5726853 -0.8197027
vn 0.7895938 0.11436671 -0.602878
vn 0.8418366 0.121357627 -0.5259123
vn 0.9839964 -0.07401381 0.162089676
vn -0.913408339 -0.05042206 -0.4039097
vn -0.0260770079 0.186925352 -0.982027948
vn -0.854394257 0.0138417268 -0.5194411
vn -0.9676861 0.109707519 0.227041453
vn -0.9501171 -0.16847977 0.262473017
vn -0.913408339 -0.05042206 -0.4039097
vn 0.770490944 -0.616613746 0.161651537
vn 0.776063 -0.628287435 -0.0545994639
vn 0.848432362 0.5259474 -0.0595139079
vn 0.868507147 0.4938418 0.04261057
vn 0.9630465 0.2680659 0.0261172913
vn 0.5000963 0.7900563 0.354562759
vn 0.339039445 0.919927239 -0.1969419
vn -0.615763545 -0.670088649 -0.414507568
vn -0.668604255 -0.7432146 0.0245034564
vn -0.9050477 0.415370852 0.0914094
vn -0.725925744 -0.687772453 0.0009970416
vn -0.7703324 -0.5935136 0.233087078
vn -0.890875459 0.390713662 0.231697515
vn 0.03510153 -0.01578978 0.999259
vn 0.7261874 -0.6823726 -0.08378229
vn 0.6252697 -0.6288113 -0.462205917
vn -0.347703755 0.790694356 0.503889441
vn 0.8418366 0.121357627 -0.5259123
vn -0.0260770079 0.186925352 -0.982027948
vn -0.04875131 0.8784569 -0.475328326
vn 0.5112959 0.8593821 0.006235743
vn -0.913408339 -0.05042206 -0.4039097
vn -0.7010312 0.7105188 -0.06097807
vn -0.913408339 -0.05042206 -0.4039097
vn -0.9501171 -0.16847977 0.262473017
vn -0.6799501 0.5337935 0.502725065
vn -0.7010312 0.7105188 -0.06097807
vn 0.03510153 -0.01578978 0.999259
vn 0.0299080815 0.5548986 0.8313802
vn 0.6967575 0.5810218 0.420645744
vn 0.9839964 -0.07401381 0.162089676
vn -0.4682345 0.882262766 -0.048670616
vn -0.448931038 -0.62023896 0.643245459
vn 0.03614919 0.9311287 -0.362895042
vn 0.5653639 0.25240773 0.7852732
vn 0.8693442 0.4938316 0.0192631781
vn -0.725925744 -0.687772453 0.0009970416
vn 0.776063 -0.628287435 -0.0545994639
vn 0.7261874 -0.6823726 -0.08378229
vn -0.668604255 -0.7432146 0.0245034564
vn 0.582203031 0.4869667 -0.6510784
vn 0.533208 -0.6452581 0.5471117
vn 0.5112959 0.8593821 0.006235743
vn -0.04875131 0.8784569 -0.475328326
vn -0.08182918 0.9591187 0.270915627
vn -0.7010312 0.7105188 -0.06097807
vn -0.6799501 0.5337935 0.502725065
vn 0.0299080815 0.5548986 0.8313802
vn 0.6967575 0.5810218 0.420645744
vn -0.6275267 0.653485954 -0.4232805
vn -0.8553067 0.4628143 0.232923642
vn -0.409112722 0.246364683 0.8785962
vn -0.409112722 0.246364683 0.8785962
vn -0.448931038 -0.62023896 0.643245459
usemtl 9012002504_part_0_material_0
f 1/1/1 2/2/2 3/3/3
f 3/3/3 4/4/4 1/1/1
f 5/5/5 6/6/6 7/7/7
f 8/8/8 9/9/9 10/10/10
f 10/10/10 11/11/11 8/8/8
f 12/12/12 13/13/13 14/14/14
f 11/11/11 10/10/10 15/15/15
f 15/15/15 16/16/16 11/11/11
f 17/17/17 18/18/18 19/19/19
f 19/19/19 20/20/20 17/17/17
f 21/21/21 22/22/22 23/23/23
f 23/23/23 24/24/24 21/21/21
f 23/23/23 25/25/25 26/26/26
f 26/26/26 27/27/27 23/23/23
f 17/17/17 20/20/20 28/28/28
f 28/28/28 29/29/29 17/17/17
f 30/30/30 31/31/31 32/32/32
f 32/32/32 33/33/33 30/30/30
f 26/26/26 34/34/34 13/13/13
f 12/12/12 35/35/35 36/36/36
f 36/36/36 27/27/27 12/12/12
f 37/37/37 20/20/20 19/19/19
f 35/35/35 12/12/12 10/10/10
f 10/10/10 9/9/9 35/35/35
f 13/13/13 12/12/12 27/27/27
f 15/15/15 10/10/10 12/12/12
f 12/12/12 14/14/14 15/15/15
f 38/38/38 39/39/39 40/40/40
f 40/40/40 41/41/41 38/38/38
f 41/41/41 40/40/40 42/42/42
f 42/42/42 43/43/43 41/41/41
f 44/44/44 45/45/45 46/46/46
f 46/46/46 47/47/47 44/44/44
f 46/46/46 48/48/48 49/49/49
f 49/49/49 47/47/47 46/46/46
f 38/38/38 50/50/50 51/51/51
f 51/51/51 39/39/39 38/38/38
f 37/37/37 34/34/34 26/26/26
f 30/30/30 37/37/37 52/52/52
f 53/53/53 32/32/32 31/31/31
f 26/26/26 25/25/25 52/52/52
f 52/52/52 37/37/37 26/26/26
f 54/54/54 55/55/55 56/56/56
f 3/3/3 57/57/57 58/58/58
f 58/58/58 4/4/4 3/3/3
f 7/7/7 59/59/59 60/60/60
f 60/60/60 5/5/5 7/7/7
f 34/34/34 37/37/37 19/19/19
f 27/27/27 26/26/26 13/13/13
f 23/23/23 22/22/22 25/25/25
f 30/30/30 52/52/52 31/31/31
f 25/25/25 22/22/22 55/55/55
f 55/55/55 61/61/61 25/25/25
f 21/21/21 62/62/62 22/22/22
f 30/30/30 20/20/20 37/37/37
f 63/63/63 64/64/64 65/65/65
f 65/65/65 64/64/64 66/66/66
f 66/66/66 64/64/64 67/67/67
f 68/68/68 64/64/64 69/69/69
f 67/67/67 64/64/64 68/68/68
f 69/69/69 64/64/64 63/63/63
f 54/54/54 70/70/70 71/71/71
f 72/72/72 54/54/54 56/56/56
f 54/54/54 71/71/71 61/61/61
f 53/53/53 31/31/31 73/73/73
f 28/28/28 20/20/20 30/30/30
f 30/30/30 33/33/33 28/28/28
f 57/57/57 60/60/60 59/59/59
f 59/59/59 58/58/58 57/57/57
f 23/23/23 27/27/27 36/36/36
f 36/36/36 24/24/24 23/23/23
f 49/49/49 48/48/48 51/51/51
f 51/51/51 50/50/50 49/49/49
f 56/56/56 62/62/62 74/74/74
f 74/74/74 72/72/72 56/56/56
f 22/22/22 62/62/62 56/56/56
f 31/31/31 70/70/70 73/73/73
f 55/55/55 54/54/54 61/61/61
f 52/52/52 71/71/71 70/70/70
f 70/70/70 31/31/31 52/52/52
f 52/52/52 25/25/25 61/61/61
f 61/61/61 71/71/71 52/52/52
f 55/55/55 22/22/22 56/56/56
f 70/70/70 54/54/54 73/73/73
f 75/75/75 76/76/76 77/77/77
f 77/77/77 78/78/78 75/75/75
f 79/79/79 80/80/80 81/81/81
f 82/82/82 83/83/83 84/84/84
f 84/84/84 85/85/85 82/82/82
f 86/86/86 87/87/87 88/88/88
f 83/83/83 89/89/89 90/90/90
f 90/90/90 84/84/84 83/83/83
f 91/91/91 92/92/92 93/93/93
f 93/93/93 94/94/94 91/91/91
f 95/95/95 96/96/96 97/97/97
f 97/97/97 98/98/98 95/95/95
f 97/97/97 99/99/99 100/100/100
f 100/100/100 101/101/101 97/97/97
f 91/91/91 102/102/102 103/103/103
f 103/103/103 92/92/92 91/91/91
f 104/104/104 105/105/105 106/106/106
f 106/106/106 107/107/107 104/104/104
f 100/100/100 88/88/88 108/108/108
f 86/86/86 99/99/99 109/109/109
f 109/109/109 110/110/110 86/86/86
f 111/111/111 93/93/93 92/92/92
f 110/110/110 85/85/85 84/84/84
f 84/84/84 86/86/86 110/110/110
f 88/88/88 99/99/99 86/86/86
f 90/90/90 87/87/87 86/86/86
f 86/86/86 84/84/84 90/90/90
f 112/112/112 113/113/113 114/114/114
f 114/114/114 115/115/115 112/112/112
f 113/113/113 116/116/116 117/117/117
f 117/117/117 114/114/114 113/113/113
f 118/118/118 119/119/119 120/120/120
f 120/120/120 121/121/121 118/118/118
f 120/120/120 119/119/119 122/122/122
f 122/122/122 123/123/123 120/120/120
f 112/112/112 115/115/115 124/124/124
f 124/124/124 125/125/125 112/112/112
f 111/111/111 100/100/100 108/108/108
f 104/104/104 126/126/126 111/111/111
f 127/127/127 107/107/107 106/106/106
f 100/100/100 111/111/111 126/126/126
f 126/126/126 101/101/101 100/100/100
f 128/128/128 129/129/129 130/130/130
f 77/77/77 76/76/76 131/131/131
f 131/131/131 132/132/132 77/77/77
f 80/80/80 79/79/79 133/133/133
f 133/133/133 134/134/134 80/80/80
f 108/108/108 93/93/93 111/111/111
f 99/99/99 88/88/88 100/100/100
f 97/97/97 101/101/101 98/98/98
f 104/104/104 107/107/107 126/126/126
f 101/101/101 135/135/135 130/130/130
f 130/130/130 98/98/98 101/101/101
f 95/95/95 98/98/98 136/136/136
f 104/104/104 111/111/111 92/92/92
f 137/137/137 138/138/138 139/139/139
f 138/138/138 140/140/140 139/139/139
f 140/140/140 141/141/141 139/139/139
f 142/142/142 143/143/143 139/139/139
f 141/141/141 142/142/142 139/139/139
f 143/143/143 137/137/137 139/139/139
f 128/128/128 144/144/144 145/145/145
f 146/146/146 129/129/129 128/128/128
f 128/128/128 135/135/135 144/144/144
f 127/127/127 147/147/147 107/107/107
f 103/103/103 105/105/105 104/104/104
f 104/104/104 92/92/92 103/103/103
f 132/132/132 131/131/131 134/134/134
f 134/134/134 133/133/133 132/132/132
f 97/97/97 96/96/96 109/109/109
f 109/109/109 99/99/99 97/97/97
f 122/122/122 125/125/125 124/124/124
f 124/124/124 123/123/123 122/122/122
f 129/129/129 146/146/146 148/148/148
f 148/148/148 136/136/136 129/129/129
f 98/98/98 129/129/129 136/136/136
f 107/107/107 147/147/147 145/145/145
f 130/130/130 135/135/135 128/128/128
f 126/126/126 107/107/107 145/145/145
f 145/145/145 144/144/144 126/126/126
f 126/126/126 144/144/144 135/135/135
f 135/135/135 101/101/101 126/126/126
f 130/130/130 129/129/129 98/98/98
f 145/145/145 147/147/147 128/128/128
