mtllib 9012003804.mtl
o 9012003804_part_0
v -0.217935547 -0.0787375 0.220273018
v -0.247412115 -0.07181215 0.304858923
v -0.535291731 -0.06037903 0.269400954
v -0.5645233 -0.0869379044 0.12192151
v -0.212864846 -0.0901279449 -0.0411025733
v -0.501783431 -0.0896258354 -0.108002216
v -0.474810451 -0.08847642 -0.284869432
v -0.4696943 -0.0100405216 -0.295661628
v -0.390698135 -0.00362861156 -0.438872457
v -0.40075922 -0.07612944 -0.413760483
v -0.290311515 -0.00294435024 -0.451097071
v -0.292501658 -0.07612157 -0.42433393
v -0.155507147 -0.0114456415 -0.258037
v -0.1760594 -0.08848691 -0.226552144
v -0.200408876 -0.0780806541 -0.3797819
v -0.202227652 -0.0052523613 -0.407922328
v -0.219993681 -0.009301662 0.220421433
v -0.249774069 -0.00600194931 0.303851128
v -0.247412115 -0.07181215 0.304858923
v -0.217935547 -0.0787375 0.220273018
v -0.212864846 -0.0901279449 -0.0411025733
v -0.218768358 -0.0146235228 -0.0368843
v -0.5582748 -0.008616447 0.123923361
v -0.496623129 -0.0144200325 -0.101233467
v -0.501783431 -0.0896258354 -0.108002216
v -0.5645233 -0.0869379044 0.12192151
v -0.196786419 -0.08913469 -0.108099431
v -0.4772418 -0.08879542 -0.199383676
v -0.474810451 -0.08847642 -0.284869432
v -0.1760594 -0.08848691 -0.226552144
v -0.292501658 -0.07612157 -0.42433393
v -0.200408876 -0.0780806541 -0.3797819
v -0.40075922 -0.07612944 -0.413760483
v -0.535291731 -0.06037903 0.269400954
v -0.414875984 -0.0508570671 0.348177433
v -0.4144614 -0.003255844 0.347690523
v -0.5261586 -0.00702035427 0.274412572
v -0.3164249 -0.06031561 0.352784216
v -0.319089532 -0.00356686115 0.3506183
v -0.5300162 -0.0126991272 0.113702387
v -0.463569552 -0.014247179 -0.09225872
v -0.439911783 -0.0105589628 -0.2860213
v -0.295882851 -0.004843831 -0.42377
v -0.223401412 -0.006280184 -0.392800748
v -0.177307218 -0.011469841 -0.256576121
v -0.236053631 -0.0143741369 -0.05134611
v -0.253388345 -0.009848595 0.214123547
v -0.272032619 -0.006771326 0.2762937
v -0.405639738 -0.00652956963 0.297535956
v -0.48190558 -0.008745432 0.237153247
v -0.362335324 -0.00531411171 -0.414562523
v -0.325999379 -0.0057914257 0.310237229
v -0.439911783 -0.0105589628 -0.2860213
v -0.401783317 0.163956165 -0.270331979
v -0.337671459 0.208565116 -0.3407939
v -0.362335324 -0.00531411171 -0.414562523
v -0.223401412 -0.006280184 -0.392800748
v -0.230046391 0.210111737 -0.342928469
v -0.192455739 0.170719743 -0.271875262
v -0.177307218 -0.011469841 -0.256576121
v -0.405639738 -0.00652956963 0.297535956
v -0.325999379 -0.0057914257 0.310237229
v -0.3075669 0.113509059 0.210283548
v -0.393201739 0.1378237 0.191737443
v -0.286049038 0.129469633 0.00714406371
v -0.236053631 -0.0143741369 -0.05134611
v -0.463569552 -0.014247179 -0.09225872
v -0.4227553 0.135704041 -0.0305258334
v -0.253388345 -0.009848595 0.214123547
v -0.359044224 0.1675396 -0.0116797835
v -0.477654755 0.101320148 0.135396719
v -0.5300162 -0.0126991272 0.113702387
v -0.48190558 -0.008745432 0.237153247
v 0.271317571 -0.07267952 0.501017869
v 0.241845578 -0.07963443 0.416432858
v 0.559198558 -0.0612490177 0.465570748
v 0.3403276 -0.06116438 0.5489428
v 0.236788467 -0.0911140442 0.155060872
v 0.5257105 -0.0906252861 0.08817576
v 0.5884386 -0.08785701 0.318101764
v 0.4987464 -0.08953667 -0.0886932462
v 0.424701333 -0.0772357 -0.217592224
v 0.4146392 -0.00474369526 -0.242729262
v 0.4936283 -0.0111044645 -0.09951227
v 0.3164443 -0.077234745 -0.2281712
v 0.314253181 -0.004066825 -0.254959226
v 0.179439247 -0.0125069618 -0.0619031563
v 0.2261672 -0.00636303425 -0.211788177
v 0.22434929 -0.07918167 -0.18362315
v 0.199992359 -0.08953667 -0.0303911269
v 0.243901491 -0.0101984739 0.416557848
v 0.241845578 -0.07963443 0.416432858
v 0.271317571 -0.07267952 0.501017869
v 0.2736775 -0.00686955452 0.4999879
v 0.242689386 -0.0156075954 0.159253836
v 0.236788467 -0.0911140442 0.155060872
v 0.5821875 -0.009535193 0.3200767
v 0.5884386 -0.08785701 0.318101764
v 0.5257105 -0.0906252861 0.08817576
v 0.5205474 -0.0154173374 0.0949187353
v 0.220713422 -0.09014368 0.08806287
v 0.199992359 -0.08953667 -0.0303911269
v 0.4987464 -0.08953667 -0.0886932462
v 0.501173437 -0.0898265839 -0.0032072328
v 0.22434929 -0.07918167 -0.18362315
v 0.3164443 -0.077234745 -0.2281712
v 0.559198558 -0.0612490177 0.465570748
v 0.5500635 -0.007889152 0.470563769
v 0.438362539 -0.004103303 0.5438348
v 0.4387786 -0.0517042875 0.5443378
v 0.3403276 -0.06116438 0.5489428
v 0.342990518 -0.00441634655 0.5467578
v 0.553929448 -0.0136221647 0.3098557
v 0.487493366 -0.0152423382 0.103891745
v 0.463764876 -0.0104498863 -0.0913220644
v 0.3198232 -0.005956888 -0.227631241
v 0.247340232 -0.00738489628 -0.196665183
v 0.201239258 -0.01252985 -0.06044116
v 0.259975344 -0.01536274 0.144792825
v 0.277296484 -0.010746479 0.4102618
v 0.295937479 -0.00764751434 0.4724319
v 0.429543555 -0.007394314 0.493680835
v 0.5058125 -0.009628177 0.43330276
v 0.3862752 -0.00642180443 -0.218420237
v 0.3499025 -0.00665438175 0.5063778
v 0.463764876 -0.0104498863 -0.0913220644
v 0.3862752 -0.00642180443 -0.218420237
v 0.36382556 0.180932522 -0.1487963
v 0.427579135 0.1473248 -0.07124283
v 0.247340232 -0.00738489628 -0.196665183
v 0.201239258 -0.01252985 -0.06044116
v 0.218192071 0.150805831 -0.07649475
v 0.25621748 0.180603743 -0.15256162
v 0.429543555 -0.007394314 0.493680835
v 0.417106271 0.136922717 0.387832761
v 0.3314713 0.112611651 0.40638274
v 0.3499025 -0.00665438175 0.5063778
v 0.259975344 -0.01536274 0.144792825
v 0.3099632 0.128502369 0.203236744
v 0.487493366 -0.0152423382 0.103891745
v 0.446671218 0.134728432 0.1655717
v 0.277296484 -0.010746479 0.4102618
v 0.382957131 0.166568518 0.184403718
v 0.5015634 0.100402713 0.3315087
v 0.553929448 -0.0136221647 0.3098557
v 0.5058125 -0.009628177 0.43330276
v -0.3164249 -0.06031561 0.352784216
v -0.196786419 -0.08913469 -0.108099431
v -0.4772418 -0.08879542 -0.199383676
v -0.414875984 -0.0508570671 0.348177433
v -0.2863886 0.129076 -0.4284342
v -0.272032619 -0.006771326 0.2762937
v -0.276559651 0.201833725 -0.128397346
v -0.3599402 0.206747055 -0.151903853
v -0.295882851 -0.004843831 -0.42377
v 0.220713422 -0.09014368 0.08806287
v 0.501173437 -0.0898265839 -0.0032072328
v 0.424701333 -0.0772357 -0.217592224
v 0.4387786 -0.0517042875 0.5443378
v 0.313223332 0.101157188 -0.230203852
v 0.295937479 -0.00764751434 0.4724319
v 0.299777776 0.203474641 0.0634887442
v 0.38341552 0.206260085 0.0404088944
v 0.3198232 -0.005956888 -0.227631241
vt 0.898554 0.241817
vt 0.946219 0.230669022
vt 0.949917 0.04652798
vt 0.864668 0.018287003
vt 0.744518 0.225466013
vt 0.726927 0.0403869748
vt 0.967302 0.821748
vt 0.884967 0.792885
vt 0.81084 0.905345
vt 0.878796 0.94789
vt 0.743637 0.920211
vt 0.743618 0.990677
vt 0.613309 0.791602
vt 0.535175 0.797635
vt 0.603168 0.950964
vt 0.675157 0.90251
vt 0.619395 0.402384043
vt 0.647295 0.344006
vt 0.604884 0.305421
vt 0.5519 0.37657702
vt 0.53303 0.593746
vt 0.609029 0.59836
vt 0.886325 0.465085983
vt 0.887377 0.632502
vt 0.979127 0.653086
vt 0.956438 0.443623
vt 0.703083 0.230079
vt 0.672967 0.0479329824
vt 0.624028 0.0412089825
vt 0.631453 0.23183
vt 0.526391 0.140179992
vt 0.544121 0.201704979
vt 0.542295 0.0742239952
vt 0.867432 0.30499
vt 0.763685 0.252385974
vt 0.755564 0.301164985
vt 0.84241 0.346905
vt 0.671919 0.259348035
vt 0.689004 0.310281038
vt 0.856836 0.465827
vt 0.861194 0.628413
vt 0.861352 0.792672
vt 0.740844 0.901231
vt 0.688734 0.87893
vt 0.634432 0.790624
vt 0.640679 0.600815
vt 0.655081 0.418241978
vt 0.674921 0.365246
vt 0.750353 0.342555
vt 0.81425 0.386701
vt 0.805524 0.877296
vt 0.704468 0.34348
vt 0.488677 0.782287
vt 0.357292 0.734539
vt 0.306901 0.77681
vt 0.389227 0.949636
vt 0.143066 0.944885
vt 0.210383 0.779817
vt 0.163188 0.729533
vt 0.029035 0.81016
vt 0.26336 0.0351219773
vt 0.152127 0.0327190161
vt 0.170411 0.226315975
vt 0.27657 0.238478
vt 0.166257 0.451094985
vt 0.029035 0.523977
vt 0.488677 0.506322
vt 0.357134 0.459560037
vt 0.029035 0.237596035
vt 0.262415 0.461483
vt 0.381381 0.236814976
vt 0.488677 0.185073018
vt 0.365357 0.06834501
vt 0.946219 0.230669022
vt 0.898554 0.241817
vt 0.949917 0.04652798
vt 0.978446 0.202179015
vt 0.744518 0.225466013
vt 0.726927 0.0403869748
vt 0.864668 0.018287003
vt 0.967302 0.821748
vt 0.878796 0.94789
vt 0.81084 0.905345
vt 0.884967 0.792885
vt 0.743618 0.990677
vt 0.743637 0.920211
vt 0.613309 0.791602
vt 0.675157 0.90251
vt 0.603168 0.950964
vt 0.535175 0.797635
vt 0.619395 0.402384043
vt 0.5519 0.37657702
vt 0.604884 0.305421
vt 0.647295 0.344006
vt 0.609029 0.59836
vt 0.53303 0.593746
vt 0.886325 0.465085983
vt 0.956438 0.443623
vt 0.979127 0.653086
vt 0.887377 0.632502
vt 0.703083 0.230079
vt 0.631453 0.23183
vt 0.624028 0.0412089825
vt 0.672967 0.0479329824
vt 0.544121 0.201704979
vt 0.526391 0.140179992
vt 0.867432 0.30499
vt 0.84241 0.346905
vt 0.755564 0.301164985
vt 0.763685 0.252385974
vt 0.671919 0.259348035
vt 0.689004 0.310281038
vt 0.856836 0.465827
vt 0.861194 0.628413
vt 0.861352 0.792672
vt 0.740844 0.901231
vt 0.688734 0.87893
vt 0.634432 0.790624
vt 0.640679 0.600815
vt 0.655081 0.418241978
vt 0.674921 0.365246
vt 0.750353 0.342555
vt 0.81425 0.386701
vt 0.805524 0.877296
vt 0.704468 0.34348
vt 0.488677 0.782287
vt 0.389227 0.949636
vt 0.306901 0.77681
vt 0.357292 0.734539
vt 0.143066 0.944885
vt 0.029035 0.81016
vt 0.163188 0.729533
vt 0.210383 0.779817
vt 0.26336 0.0351219773
vt 0.27657 0.238478
vt 0.170411 0.226315975
vt 0.152127 0.0327190161
vt 0.029035 0.523977
vt 0.166257 0.451094985
vt 0.488677 0.506322
vt 0.357134 0.459560037
vt 0.029035 0.237596035
vt 0.262415 0.461483
vt 0.381381 0.236814976
vt 0.488677 0.185073018
vt 0.365357 0.06834501
vt 0.978446 0.202179015
vt 0.5321 0.642298
vt 0.976509 0.710837
vt 0.988579 0.126900017
vt 0.268226 0.895433
vt 0.029035 0.05651498
vt 0.226533 0.675471
vt 0.306368 0.677217
vt 0.270312 0.963468
vt 0.5321 0.642298
vt 0.976509 0.710837
vt 0.542295 0.0742239952
vt 0.988579 0.126900017
vt 0.268226 0.895433
vt 0.029035 0.05651498
vt 0.226533 0.675471
vt 0.306368 0.677217
vt 0.270312 0.963468
vn 0.532086849 -0.8272863 0.1802248
vn 0.6803544 -0.544400334 0.490658939
vn -0.582842231 -0.6517811 0.485259116
vn -0.5701688 -0.8202962 0.04496482
vn 0.612816453 -0.788024962 0.05892929
vn -0.834485352 -0.502220154 -0.226735786
vn -0.4669077 -0.8572601 -0.217030749
vn -0.8104263 0.562123835 -0.165003061
vn -0.501595259 0.7176614 -0.483077973
vn -0.337244 -0.5318737 -0.7767734
vn 0.06240476 0.622759044 -0.779921055
vn 0.175043315 -0.7151491 -0.676699042
vn 0.937086165 0.3490255 0.00712137576
vn 0.60709393 -0.7942571 -0.0243442077
vn 0.59916085 -0.705099046 -0.379264563
vn 0.423259884 0.7934317 -0.437398255
vn 0.8631694 0.4855552 0.138472989
vn 0.4199347 0.831061542 0.364680082
vn 0.6803544 -0.544400334 0.490658939
vn 0.532086849 -0.8272863 0.1802248
vn 0.612816453 -0.788024962 0.05892929
vn 0.5749809 0.812199056 0.09863912
vn -0.727265239 0.6849018 -0.04466504
vn -0.55551815 0.822334051 -0.123151563
vn -0.834485352 -0.502220154 -0.226735786
vn -0.5701688 -0.8202962 0.04496482
vn 0.6749192 -0.722047746 0.152089432
vn -0.7053166 -0.70061034 -0.108044654
vn -0.4669077 -0.8572601 -0.217030749
vn 0.60709393 -0.7942571 -0.0243442077
vn 0.175043315 -0.7151491 -0.676699042
vn 0.59916085 -0.705099046 -0.379264563
vn -0.337244 -0.5318737 -0.7767734
vn -0.582842231 -0.6517811 0.485259116
vn -0.289788783 -0.386469036 0.8755936
vn -0.272001028 0.4858921 0.830616832
vn -0.4100782 0.875701845 0.254915982
vn 0.196953192 -0.3971409 0.896375239
vn 0.150172651 0.871882439 0.466121435
vn 0.08716858 0.995918751 -0.0234025829
vn -0.6982511 0.7073944 -0.109720387
vn -0.470096618 0.861801445 -0.190545112
vn 0.07208175 0.8596994 -0.505688965
vn 0.682516456 0.5271048 -0.5062922
vn 0.414014369 0.9101392 0.0154504431
vn 0.729814351 0.662011862 0.170620292
vn 0.476043254 0.8778238 0.05299175
vn 0.4076416 0.873659134 0.265609264
vn -0.106340982 0.9398226 0.3246923
vn -0.377283752 0.8813049 0.284532666
vn -0.3708464 0.812058 -0.4505941
vn 0.0754617 0.950219452 0.3023057
vn -0.470096618 0.861801445 -0.190545112
vn -0.909203351 0.370062143 -0.19079639
vn -0.6284781 0.4162514 -0.657077
vn -0.3708464 0.812058 -0.4505941
vn 0.682516456 0.5271048 -0.5062922
vn 0.6251037 0.3970976 -0.6719813
vn 0.975386858 0.215184718 0.0481253266
vn 0.414014369 0.9101392 0.0154504431
vn -0.106340982 0.9398226 0.3246923
vn 0.0754617 0.950219452 0.3023057
vn 0.465040058 0.7368473 0.490707457
vn -0.307456344 0.8000782 0.51511693
vn 0.7791866 0.5699196 0.260883331
vn 0.729814351 0.662011862 0.170620292
vn -0.6982511 0.7073944 -0.109720387
vn -0.7829483 0.6204822 -0.0446539074
vn 0.476043254 0.8778238 0.05299175
vn -0.06408156 0.9752715 0.211516
vn -0.710942268 0.6815368 0.1734032
vn -0.9167124 0.395885348 -0.05397376
vn -0.377283752 0.8813049 0.284532666
vn -0.680361867 -0.5442557 0.490809053
vn -0.5320693 -0.8272424 0.180478573
vn 0.582838535 -0.651597857 0.485509545
vn -0.196986064 -0.396843731 0.896499634
vn -0.612794459 -0.7880244 0.0591649562
vn 0.8345132 -0.5022699 -0.226522952
vn 0.5701931 -0.8202624 0.0452730656
vn 0.466945529 -0.857319 -0.2167165
vn 0.337300181 -0.5321265 -0.7765758
vn 0.5055489 0.7126798 -0.486320734
vn 0.8161124 0.5527018 -0.168764114
vn -0.174986392 -0.715384245 -0.6764653
vn -0.0623855144 0.6224923 -0.7801355
vn -0.9370981 0.348996878 0.00695518451
vn -0.42326504 0.7932678 -0.437690437
vn -0.599119067 -0.7052468 -0.379055828
vn -0.607067347 -0.7942847 -0.0241055787
vn -0.8631919 0.4855746 0.1382645
vn -0.5320693 -0.8272424 0.180478573
vn -0.680361867 -0.5442557 0.490809053
vn -0.419980347 0.831171453 0.364376962
vn -0.57501024 0.8122154 0.09833424
vn -0.612794459 -0.7880244 0.0591649562
vn 0.7272461 0.6849093 -0.0448601171
vn 0.5701931 -0.8202624 0.0452730656
vn 0.8345132 -0.5022699 -0.226522952
vn 0.56081444 0.818789 -0.122766912
vn -0.674904346 -0.7220174 0.152298957
vn -0.607067347 -0.7942847 -0.0241055787
vn 0.466945529 -0.857319 -0.2167165
vn 0.705344141 -0.7006245 -0.107772551
vn -0.599119067 -0.7052468 -0.379055828
vn -0.174986392 -0.715384245 -0.6764653
vn 0.582838535 -0.651597857 0.485509545
vn 0.410038054 0.875800848 0.254640371
vn 0.271943748 0.486181825 0.830466032
vn 0.2897567 -0.386164218 0.8757387
vn -0.196986064 -0.396843731 0.896499634
vn -0.1502244 0.872035563 0.4658182
vn -0.08719576 0.995908141 -0.023745697
vn 0.6955905 0.7099058 -0.110397428
vn 0.475077659 0.859830141 -0.187065691
vn -0.07177044 0.8612261 -0.503129065
vn -0.6668457 0.5399939 -0.5135401
vn -0.4102904 0.9118301 0.0150876138
vn -0.726677537 0.666854 0.16506204
vn -0.476073 0.8778271 0.05266971
vn -0.407683522 0.8737358 0.265292555
vn 0.106294811 0.939935863 0.324379355
vn 0.377241969 0.8814129 0.284253359
vn 0.351522982 0.81683 -0.4574064
vn -0.07550746 0.9503193 0.301979929
vn 0.475077659 0.859830141 -0.187065691
vn 0.351522982 0.81683 -0.4574064
vn 0.611205459 0.427761167 -0.665919244
vn 0.909714162 0.366590738 -0.195016459
vn -0.6668457 0.5399939 -0.5135401
vn -0.4102904 0.9118301 0.0150876138
vn -0.9766787 0.210967153 0.0398943275
vn -0.6002622 0.3987326 -0.693323553
vn 0.106294811 0.939935863 0.324379355
vn 0.3074045 0.8002628 0.514861047
vn -0.4650896 0.736998141 0.490433931
vn -0.07550746 0.9503193 0.301979929
vn -0.726677537 0.666854 0.16506204
vn -0.7898108 0.558840334 0.252777845
vn 0.6955905 0.7099058 -0.110397428
vn 0.7881482 0.6129964 -0.05529915
vn -0.476073 0.8778271 0.05266971
vn 0.0675766 0.9752768 0.210400909
vn 0.710911155 0.681619048 0.1732077
vn 0.9167026 0.395895958 -0.05406181
vn 0.377241969 0.8814129 0.284253359
vn 0.196953192 -0.3971409 0.896375239
vn 0.6749192 -0.722047746 0.152089432
vn -0.7053166 -0.70061034 -0.108044654
vn -0.289788783 -0.386469036 0.8755936
vn 0.07307333 0.277059048 -0.9580702
vn 0.4076416 0.873659134 0.265609264
vn 0.385182083 0.8379532 0.386612773
vn -0.440961778 0.878230751 0.185103834
vn 0.07208175 0.8596994 -0.505688965
vn -0.674904346 -0.7220174 0.152298957
vn 0.705344141 -0.7006245 -0.107772551
vn 0.337300181 -0.5321265 -0.7765758
vn 0.2897567 -0.386164218 0.8757387
vn -0.07150078 0.2803936 -0.9572184
vn -0.407683522 0.8737358 0.265292555
vn -0.404997468 0.830013454 0.383477122
vn 0.464876324 0.869343042 0.167728052
vn -0.07177044 0.8612261 -0.503129065
usemtl 9012003804_part_0_material_0
f 1/1/1 2/2/2 3/3/3
f 3/3/3 4/4/4 1/1/1
f 5/5/5 1/1/1 4/4/4
f 4/4/4 6/6/6 5/5/5
f 7/7/7 8/8/8 9/9/9
f 9/9/9 10/10/10 7/7/7
f 10/10/10 9/9/9 11/11/11
f 11/11/11 12/12/12 10/10/10
f 13/13/13 14/14/14 15/15/15
f 15/15/15 16/16/16 13/13/13
f 17/17/17 18/18/18 19/19/19
f 19/19/19 20/20/20 17/17/17
f 17/17/17 20/20/20 21/21/21
f 21/21/21 22/22/22 17/17/17
f 23/23/23 24/24/24 25/25/25
f 25/25/25 26/26/26 23/23/23
f 27/27/27 28/28/28 29/29/29
f 29/29/29 30/30/30 27/27/27
f 31/31/31 32/32/32 29/29/29
f 29/29/29 33/33/33 31/31/31
f 34/34/34 35/35/35 36/36/36
f 36/36/36 37/37/37 34/34/34
f 38/38/38 39/39/39 36/36/36
f 36/36/36 35/35/35 38/38/38
f 12/12/12 11/11/11 16/16/16
f 16/16/16 15/15/15 12/12/12
f 5/5/5 6/6/6 28/28/28
f 28/28/28 27/27/27 5/5/5
f 40/40/40 41/41/41 24/24/24
f 24/24/24 23/23/23 40/40/40
f 24/24/24 41/41/41 42/42/42
f 42/42/42 8/8/8 24/24/24
f 43/43/43 44/44/44 16/16/16
f 16/16/16 11/11/11 43/43/43
f 16/16/16 44/44/44 45/45/45
f 45/45/45 13/13/13 16/16/16
f 45/45/45 46/46/46 22/22/22
f 22/22/22 13/13/13 45/45/45
f 22/22/22 46/46/46 47/47/47
f 47/47/47 17/17/17 22/22/22
f 47/47/47 48/48/48 18/18/18
f 18/18/18 17/17/17 47/47/47
f 49/49/49 50/50/50 37/37/37
f 37/37/37 36/36/36 49/49/49
f 51/51/51 43/43/43 11/11/11
f 11/11/11 9/9/9 51/51/51
f 42/42/42 51/51/51 9/9/9
f 9/9/9 8/8/8 42/42/42
f 39/39/39 52/52/52 49/49/49
f 49/49/49 36/36/36 39/39/39
f 38/38/38 19/19/19 18/18/18
f 18/18/18 39/39/39 38/38/38
f 18/18/18 48/48/48 52/52/52
f 52/52/52 39/39/39 18/18/18
f 50/50/50 40/40/40 23/23/23
f 23/23/23 37/37/37 50/50/50
f 23/23/23 26/26/26 34/34/34
f 34/34/34 37/37/37 23/23/23
f 53/53/53 54/54/54 55/55/55
f 55/55/55 56/56/56 53/53/53
f 57/57/57 58/58/58 59/59/59
f 59/59/59 60/60/60 57/57/57
f 61/61/61 62/62/62 63/63/63
f 63/63/63 64/64/64 61/61/61
f 59/59/59 65/65/65 66/66/66
f 66/66/66 60/60/60 59/59/59
f 67/67/67 68/68/68 54/54/54
f 54/54/54 53/53/53 67/67/67
f 69/69/69 66/66/66 65/65/65
f 65/65/65 63/63/63 69/69/69
f 70/70/70 68/68/68 71/71/71
f 71/71/71 64/64/64 70/70/70
f 68/68/68 67/67/67 72/72/72
f 72/72/72 71/71/71 68/68/68
f 63/63/63 65/65/65 70/70/70
f 70/70/70 64/64/64 63/63/63
f 73/73/73 61/61/61 64/64/64
f 64/64/64 71/71/71 73/73/73
f 74/74/74 75/75/75 76/76/76
f 76/76/76 77/77/77 74/74/74
f 78/78/78 79/79/79 80/80/80
f 80/80/80 75/75/75 78/78/78
f 81/81/81 82/82/82 83/83/83
f 83/83/83 84/84/84 81/81/81
f 82/82/82 85/85/85 86/86/86
f 86/86/86 83/83/83 82/82/82
f 87/87/87 88/88/88 89/89/89
f 89/89/89 90/90/90 87/87/87
f 91/91/91 92/92/92 93/93/93
f 93/93/93 94/94/94 91/91/91
f 91/91/91 95/95/95 96/96/96
f 96/96/96 92/92/92 91/91/91
f 97/97/97 98/98/98 99/99/99
f 99/99/99 100/100/100 97/97/97
f 101/101/101 102/102/102 103/103/103
f 103/103/103 104/104/104 101/101/101
f 105/105/105 106/106/106 103/103/103
f 103/103/103 102/102/102 105/105/105
f 107/107/107 108/108/108 109/109/109
f 109/109/109 110/110/110 107/107/107
f 111/111/111 110/110/110 109/109/109
f 109/109/109 112/112/112 111/111/111
f 85/85/85 89/89/89 88/88/88
f 88/88/88 86/86/86 85/85/85
f 78/78/78 101/101/101 104/104/104
f 104/104/104 79/79/79 78/78/78
f 113/113/113 97/97/97 100/100/100
f 100/100/100 114/114/114 113/113/113
f 100/100/100 84/84/84 115/115/115
f 115/115/115 114/114/114 100/100/100
f 116/116/116 86/86/86 88/88/88
f 88/88/88 117/117/117 116/116/116
f 88/88/88 87/87/87 118/118/118
f 118/118/118 117/117/117 88/88/88
f 118/118/118 87/87/87 95/95/95
f 95/95/95 119/119/119 118/118/118
f 95/95/95 91/91/91 120/120/120
f 120/120/120 119/119/119 95/95/95
f 120/120/120 91/91/91 94/94/94
f 94/94/94 121/121/121 120/120/120
f 122/122/122 109/109/109 108/108/108
f 108/108/108 123/123/123 122/122/122
f 124/124/124 83/83/83 86/86/86
f 86/86/86 116/116/116 124/124/124
f 115/115/115 84/84/84 83/83/83
f 83/83/83 124/124/124 115/115/115
f 112/112/112 109/109/109 122/122/122
f 122/122/122 125/125/125 112/112/112
f 111/111/111 112/112/112 94/94/94
f 94/94/94 93/93/93 111/111/111
f 94/94/94 112/112/112 125/125/125
f 125/125/125 121/121/121 94/94/94
f 123/123/123 108/108/108 97/97/97
f 97/97/97 113/113/113 123/123/123
f 97/97/97 108/108/108 107/107/107
f 107/107/107 98/98/98 97/97/97
f 126/126/126 127/127/127 128/128/128
f 128/128/128 129/129/129 126/126/126
f 130/130/130 131/131/131 132/132/132
f 132/132/132 133/133/133 130/130/130
f 134/134/134 135/135/135 136/136/136
f 136/136/136 137/137/137 134/134/134
f 132/132/132 131/131/131 138/138/138
f 138/138/138 139/139/139 132/132/132
f 140/140/140 126/126/126 129/129/129
f 129/129/129 141/141/141 140/140/140
f 142/142/142 136/136/136 139/139/139
f 139/139/139 138/138/138 142/142/142
f 143/143/143 135/135/135 144/144/144
f 144/144/144 141/141/141 143/143/143
f 141/141/141 144/144/144 145/145/145
f 145/145/145 140/140/140 141/141/141
f 136/136/136 135/135/135 143/143/143
f 143/143/143 139/139/139 136/136/136
f 146/146/146 144/144/144 135/135/135
f 135/135/135 134/134/134 146/146/146
f 3/3/3 2/2/2 147/147/147
f 13/13/13 148/148/148 14/14/14
f 25/25/25 24/24/24 149/149/149
f 29/29/29 32/32/32 30/30/30
f 8/8/8 7/7/7 149/149/149
f 24/24/24 8/8/8 149/149/149
f 13/13/13 22/22/22 148/148/148
f 22/22/22 21/21/21 148/148/148
f 3/3/3 147/147/147 150/150/150
f 58/58/58 151/151/151 55/55/55
f 63/63/63 152/152/152 69/69/69
f 73/73/73 71/71/71 72/72/72
f 59/59/59 153/153/153 65/65/65
f 154/154/154 70/70/70 153/153/153
f 54/54/54 68/68/68 154/154/154
f 155/155/155 56/56/56 151/151/151
f 151/151/151 56/56/56 55/55/55
f 58/58/58 57/57/57 151/151/151
f 57/57/57 155/155/155 151/151/151
f 154/154/154 68/68/68 70/70/70
f 70/70/70 65/65/65 153/153/153
f 63/63/63 62/62/62 152/152/152
f 76/76/76 75/75/75 80/80/80
f 87/87/87 90/90/90 156/156/156
f 99/99/99 157/157/157 100/100/100
f 103/103/103 106/106/106 158/158/158
f 84/84/84 157/157/157 81/81/81
f 100/100/100 157/157/157 84/84/84
f 87/87/87 156/156/156 95/95/95
f 95/95/95 156/156/156 96/96/96
f 76/76/76 159/159/159 77/77/77
f 133/133/133 128/128/128 160/160/160
f 136/136/136 142/142/142 161/161/161
f 146/146/146 145/145/145 144/144/144
f 132/132/132 139/139/139 162/162/162
f 163/163/163 162/162/162 143/143/143
f 129/129/129 163/163/163 141/141/141
f 164/164/164 160/160/160 127/127/127
f 160/160/160 128/128/128 127/127/127
f 133/133/133 160/160/160 130/130/130
f 130/130/130 160/160/160 164/164/164
f 163/163/163 143/143/143 141/141/141
f 143/143/143 162/162/162 139/139/139
f 136/136/136 161/161/161 137/137/137
