mtllib 9012001903.mtl
o 9012001903_part_0
v 0.8802108 1.34027267 0.01350639
v 0.6684148 1.35089326 0.124609865
v 0.8569367 1.2435751 0.0403021574
v 0.5502108 1.44655919 -0.1287497
v 0.532857239 1.337635 -0.0163780022
v 0.560484469 1.39502 0.09431038
v 0.554785669 1.51191068 0.0494626537
v 0.72060895 1.25375867 -0.2203888
v 0.8496911 1.25354218 -0.215962768
v 0.9050493 1.1258297 -0.203933388
v 0.7946364 1.121976 -0.191797912
v 0.7244466 0.9978702 0.00464212149
v 0.6824989 0.975549 0.100786641
v 0.6853978 1.15027761 0.142868489
v 0.723010659 1.09769845 0.0228985436
v 0.8397364 0.948527 0.0376394168
v 0.7605396 0.9673877 0.106080748
v 0.694229662 0.8699938 0.0638073757
v 0.717309535 0.86481905 0.02109427
v 0.6824989 0.975549 0.100786641
v 0.6453954 0.8871088 0.0618452653
v 0.534865 1.20025337 0.157048434
v 0.5097762 0.981301069 0.1347484
v 0.575416446 0.97131145 0.122992076
v 0.6853978 1.15027761 0.142868489
v 0.6632171 0.891652942 0.00162457675
v 0.6453954 0.8871088 0.0618452653
v 0.717309535 0.86481905 0.02109427
v 0.694229662 0.8699938 0.0638073757
v 0.5483193 0.972818255 0.0271614268
v 0.6314811 1.18141389 0.009480322
v 0.5056498 0.994384348 0.04074893
v 0.6314811 1.18141389 0.009480322
v 0.5483193 0.972818255 0.0271614268
v 0.5350899 1.17973423 0.0359449536
v 0.5056498 0.994384348 0.04074893
v 0.866044 1.0006305 -0.198837936
v 0.8083796 1.01409829 -0.173623264
v 0.7653176 1.11949861 0.136481285
v 0.922247767 1.11251962 0.04143027
v 0.7688418 0.907035351 -0.178226739
v 0.6780749 0.895501137 -0.0362349674
v 0.7125146 0.9943694 -0.008234777
v 0.7688418 0.907035351 -0.178226739
v 0.752396643 0.8719646 -0.03166645
v 0.6632171 0.891652942 0.00162457675
v 0.7244466 0.9978702 0.00464212149
v 0.554785669 1.51191068 0.0494626537
v 0.560484469 1.39502 0.09431038
v 0.674348235 1.52660728 0.09004868
v 0.534865 1.20025337 0.157048434
v 0.5097762 0.981301069 0.1347484
v 0.752396643 0.8719646 -0.03166645
v 0.8415515 0.9476677 0.008638315
v 0.7125146 0.9943694 -0.008234777
v 0.6780749 0.895501137 -0.0362349674
v 0.723010659 1.09769845 0.0228985436
v 0.8660174 1.49598 -0.06182041
v 0.8241103 1.466366 -0.239526689
v 0.67822355 1.45367432 -0.2786827
v -0.784000039 1.31075323 -0.05709458
v -0.7543915 1.22288346 -0.0273441076
v -0.593106568 1.34896445 0.08223931
v -0.4511698 1.46304464 -0.1544236
v -0.489270151 1.5256027 0.0207513645
v -0.488982558 1.40755963 0.06677935
v -0.437320173 1.35040116 -0.0345107019
v -0.583213866 1.24870276 -0.265658945
v -0.65969795 1.103749 -0.239836246
v -0.766158 1.10574961 -0.271113962
v -0.7104309 1.23097718 -0.279205143
v -0.6264446 0.9816034 -0.02867318
v -0.6117307 1.07785821 -0.0163587015
v -0.61885494 1.151757 0.105088674
v -0.608494937 0.9663803 0.07291427
v -0.7477572 0.938241243 -0.01389958
v -0.62814 0.8494619 -0.00500963628
v -0.6125187 0.8561053 0.0407692939
v -0.680710554 0.9579314 0.0662822053
v -0.5633612 0.8713418 0.0465082675
v -0.608494937 0.9663803 0.07291427
v -0.4762393 1.202655 0.1476196
v -0.61885494 1.151757 0.105088674
v -0.5247174 0.9650075 0.116374947
v -0.470125139 0.9731118 0.144716859
v -0.5633612 0.8713418 0.0465082675
v -0.5703746 0.873267055 -0.0160369128
v -0.6125187 0.8561053 0.0407692939
v -0.62814 0.8494619 -0.00500963628
v -0.5359836 1.1786778 -0.0157482959
v -0.485658854 0.9777027 0.03245705
v -0.439333081 0.9814531 0.0552385524
v -0.5359836 1.1786778 -0.0157482959
v -0.426209062 1.20850992 0.0266148485
v -0.485658854 0.9777027 0.03245705
v -0.439333081 0.9814531 0.0552385524
v -0.6770397 0.9923844 -0.219383091
v -0.7301667 0.9788759 -0.2535543
v -0.6927922 1.11844981 0.08673391
v -0.8261795 1.10377324 -0.0320976526
v -0.6428116 0.882688165 -0.2120058
v -0.6126486 0.9769919 -0.03910622
v -0.5783359 0.875596762 -0.05603814
v -0.6428116 0.882688165 -0.2120058
v -0.6533096 0.854999065 -0.0633336455
v -0.6264446 0.9816034 -0.02867318
v -0.5703746 0.873267055 -0.0160369128
v -0.489270151 1.5256027 0.0207513645
v -0.61419183 1.523622 0.04418335
v -0.488982558 1.40755963 0.06677935
v -0.4762393 1.202655 0.1476196
v -0.470125139 0.9731118 0.144716859
v -0.6533096 0.854999065 -0.0633336455
v -0.744609356 0.9358864 -0.0427030846
v -0.5783359 0.875596762 -0.05603814
v -0.6126486 0.9769919 -0.03910622
v -0.6117307 1.07785821 -0.0163587015
v -0.776967943 1.46867228 -0.132519364
v -0.7071486 1.4465704 -0.302370757
v -0.556872547 1.45408773 -0.320750266
vt 0.288171 0.6984602
vt 0.166058257 0.6587945
vt 0.28786 0.624881566
vt 0.717729 0.7748202
vt 0.775104463 0.6653116
vt 0.8779274 0.697000742
vt 0.8492961 0.785092354
vt 0.541492939 0.6660483
vt 0.5081054 0.6717705
vt 0.4949623 0.5265659
vt 0.534216762 0.527637
vt 0.733502269 0.3780229
vt 0.7942134 0.3723005
vt 0.8006236 0.465222359
vt 0.7409091 0.47494638
vt 0.269430161 0.393271565
vt 0.212207049 0.39256078
vt 0.215895787 0.262444258
vt 0.265733749 0.265150964
vt 0.186463043 0.380354166
vt 0.191581964 0.265566766
vt 0.03684578 0.5457363
vt 0.003139658 0.408474445
vt 0.06000963 0.395495772
vt 0.12725392 0.5263369
vt 0.7229425 0.311464548
vt 0.7828971 0.3065775
vt 0.7296437 0.254311562
vt 0.7789175 0.2550348
vt 0.07543211 0.350647151
vt 0.13046205 0.471138716
vt 0.0163447354 0.365433216
vt 0.7599414 0.587503254
vt 0.8855724 0.382595062
vt 0.854987442 0.5764534
vt 0.9246134 0.3925451
vt 0.480081171 0.406266451
vt 0.523020566 0.4088782
vt 0.203375235 0.5009454
vt 0.277786642 0.512605369
vt 0.537028432 0.358543873
vt 0.717317939 0.3121215
vt 0.727200747 0.379875839
vt 0.455397874 0.301413059
vt 0.714413 0.24611479
vt 0.273963958 0.268204451
vt 0.278604 0.385657
vt 0.126023337 0.7600462
vt 0.09802389 0.663134456
vt 0.192285225 0.7640947
vt 0.951058 0.6021703
vt 0.9781481 0.394704938
vt 0.299813151 0.258832276
vt 0.296382755 0.3834377
vt 0.2848872 0.383717358
vt 0.290226519 0.2665602
vt 0.281514138 0.447204351
vt 0.292278767 0.770326853
vt 0.518980861 0.772720933
vt 0.559283 0.7696282
vt 0.288171 0.6984602
vt 0.28786 0.624881566
vt 0.166058257 0.6587945
vt 0.717729 0.7748202
vt 0.8492961 0.785092354
vt 0.8779274 0.697000742
vt 0.775104463 0.6653116
vt 0.541492939 0.6660483
vt 0.534216762 0.527637
vt 0.4949623 0.5265659
vt 0.5081054 0.6717705
vt 0.733502269 0.3780229
vt 0.7409091 0.47494638
vt 0.8006236 0.465222359
vt 0.7942134 0.3723005
vt 0.269430161 0.393271565
vt 0.265733749 0.265150964
vt 0.215895787 0.262444258
vt 0.212207049 0.39256078
vt 0.191581964 0.265566766
vt 0.186463043 0.380354166
vt 0.03684578 0.5457363
vt 0.12725392 0.5263369
vt 0.06000963 0.395495772
vt 0.003139658 0.408474445
vt 0.7828971 0.3065775
vt 0.7229425 0.311464548
vt 0.7789175 0.2550348
vt 0.7296437 0.254311562
vt 0.13046205 0.471138716
vt 0.07543211 0.350647151
vt 0.0163447354 0.365433216
vt 0.7599414 0.587503254
vt 0.854987442 0.5764534
vt 0.8855724 0.382595062
vt 0.9246134 0.3925451
vt 0.523020566 0.4088782
vt 0.480081171 0.406266451
vt 0.203375235 0.5009454
vt 0.277786642 0.512605369
vt 0.537028432 0.358543873
vt 0.727200747 0.379875839
vt 0.717317939 0.3121215
vt 0.455397874 0.301413059
vt 0.714413 0.24611479
vt 0.278604 0.385657
vt 0.273963958 0.268204451
vt 0.126023337 0.7600462
vt 0.192285225 0.7640947
vt 0.09802389 0.663134456
vt 0.951058 0.6021703
vt 0.9781481 0.394704938
vt 0.299813151 0.258832276
vt 0.296382755 0.3834377
vt 0.290226519 0.2665602
vt 0.2848872 0.383717358
vt 0.281514138 0.447204351
vt 0.292278767 0.770326853
vt 0.518980861 0.772720933
vt 0.559283 0.7696282
vn 0.9011659 0.07862532 0.426284015
vn 0.0940359756 0.1672274 0.981423557
vn 0.807103455 0.210975111 0.5514286
vn -0.8933643 -0.238186359 -0.3810085
vn -0.9738071 -0.119592324 -0.193384066
vn -0.6760318 0.244986966 0.694954932
vn -0.7948277 0.1302468 0.5926928
vn -0.439589351 -0.39771086 -0.8053492
vn 0.6692755 0.033339832 -0.74226594
vn 0.7394259 0.0103620421 -0.6731582
vn -0.5048933 -0.293415219 -0.8117822
vn -0.379768461 0.122921363 -0.9168785
vn -0.799700558 -0.0310221948 0.599597037
vn -0.00462706434 -0.245533928 0.969377
vn -0.9233552 -0.3049376 -0.23329857
vn 0.789497554 -0.5770437 -0.209079236
vn 0.26570937 -0.372007668 0.8893868
vn -0.0213127472 -0.842368 0.5384811
vn 0.261671245 -0.858245134 -0.441524029
vn -0.799700558 -0.0310221948 0.599597037
vn -0.8780789 -0.362454444 0.312416852
vn -0.607405543 0.1742818 0.7750383
vn -0.595232964 -0.5266453 0.6069122
vn 0.48718074 -0.7579746 0.4337388
vn -0.00462706434 -0.245533928 0.969377
vn -0.5988722 -0.250648081 -0.760610044
vn -0.8780789 -0.362454444 0.312416852
vn 0.261671245 -0.858245134 -0.441524029
vn -0.0213127472 -0.842368 0.5384811
vn 0.147411317 -0.7136117 -0.684856355
vn -0.393127739 -0.623540342 -0.6757574
vn -0.8033111 -0.33151567 -0.494761169
vn -0.393127739 -0.623540342 -0.6757574
vn 0.147411317 -0.7136117 -0.684856355
vn -0.81702745 0.00499781035 -0.5765771
vn -0.8033111 -0.33151567 -0.494761169
vn 0.485598326 -0.430383384 -0.7608971
vn -0.651999 0.002679056 -0.75821507
vn 0.3140039 -0.0116941351 0.949349642
vn 0.907427251 -0.00373076857 0.4201926
vn -0.220681578 -0.578370869 -0.7853578
vn -0.8912298 -0.3853662 0.239170089
vn -0.886077464 -0.0265276562 0.462777436
vn -0.220681578 -0.578370869 -0.7853578
vn 0.09134103 -0.9043324 0.416940928
vn -0.5988722 -0.250648081 -0.760610044
vn -0.379768461 0.122921363 -0.9168785
vn -0.7948277 0.1302468 0.5926928
vn -0.6760318 0.244986966 0.694954932
vn 0.124511935 0.248332247 0.9606393
vn -0.607405543 0.1742818 0.7750383
vn -0.595232964 -0.5266453 0.6069122
vn 0.09134103 -0.9043324 0.416940928
vn 0.485599071 -0.600013435 0.6357495
vn -0.886077464 -0.0265276562 0.462777436
vn -0.8912298 -0.3853662 0.239170089
vn -0.9233552 -0.3049376 -0.23329857
vn 0.958924055 0.189517051 0.211063847
vn 0.729520142 -0.0132817514 -0.6838304
vn -0.312597424 -0.275933832 -0.9089243
vn -0.955845654 -0.0337845758 0.291920662
vn -0.889675438 0.219038323 0.400624335
vn -0.247680739 0.173006177 0.9532697
vn 0.9612264 -0.129528388 -0.2434464
vn 0.6868283 0.214740932 0.694372535
vn 0.526450753 0.333499223 0.7820664
vn 0.99809283 -0.0167086236 -0.0594262332
vn 0.5929233 -0.376890868 -0.711614549
vn 0.6422185 -0.31262964 -0.6998701
vn -0.6148894 -0.009685345 -0.7885539
vn -0.5298164 -0.0317648 -0.8475173
vn 0.5533507 0.0572123863 -0.8309812
vn 0.9446084 -0.325594962 0.0412668474
vn -0.200850338 -0.151833415 0.9677839
vn 0.670060158 0.00316937733 0.742300034
vn -0.75970906 -0.567606032 -0.317278415
vn -0.219885886 -0.870927036 -0.4394727
vn -0.107088529 -0.8092718 0.5775908
vn -0.417227924 -0.317708373 0.8514589
vn 0.7932112 -0.36501497 0.48742187
vn 0.670060158 0.00316937733 0.742300034
vn 0.374765784 0.175386548 0.9103791
vn -0.200850338 -0.151833415 0.9677839
vn -0.587370336 -0.75605756 0.288743854
vn 0.34534654 -0.56306237 0.7507973
vn 0.7932112 -0.36501497 0.48742187
vn 0.708703756 -0.31239295 -0.6325738
vn -0.107088529 -0.8092718 0.5775908
vn -0.219885886 -0.870927036 -0.4394727
vn 0.569433868 -0.5714769 -0.590896964
vn -0.152384251 -0.6764486 -0.7205528
vn 0.7787061 -0.5628868 -0.2770836
vn 0.569433868 -0.5714769 -0.590896964
vn 0.9545846 -0.06479531 -0.2908089
vn -0.152384251 -0.6764486 -0.7205528
vn 0.7787061 -0.5628868 -0.2770836
vn 0.7748489 -0.0425659977 -0.6307118
vn -0.3534897 -0.453741223 -0.8180244
vn -0.491941929 0.0488340147 0.8692574
vn -0.9673847 0.05253016 0.247805268
vn 0.323033363 -0.6302702 -0.705980837
vn 0.7899336 -0.06609704 0.609619558
vn 0.819050968 -0.403383344 0.4079674
vn 0.323033363 -0.6302702 -0.705980837
vn -0.202368885 -0.8767927 0.43621245
vn 0.5533507 0.0572123863 -0.8309812
vn 0.708703756 -0.31239295 -0.6325738
vn 0.6868283 0.214740932 0.694372535
vn -0.284876853 0.232098043 0.930040658
vn 0.526450753 0.333499223 0.7820664
vn 0.374765784 0.175386548 0.9103791
vn 0.34534654 -0.56306237 0.7507973
vn -0.202368885 -0.8767927 0.43621245
vn -0.60846 -0.5517408 0.570402
vn 0.819050968 -0.403383344 0.4079674
vn 0.7899336 -0.06609704 0.609619558
vn 0.9446084 -0.325594962 0.0412668474
vn -0.9946563 0.07709064 0.06867186
vn -0.613680542 -0.09866494 -0.7833655
vn 0.472478 -0.234843448 -0.8494781
usemtl 9012001903_part_0_material_0
f 1/1/1 2/2/2 3/3/3
f 4/4/4 5/5/5 6/6/6
f 6/6/6 7/7/7 4/4/4
f 8/8/8 9/9/9 10/10/10
f 10/10/10 11/11/11 8/8/8
f 12/12/12 13/13/13 14/14/14
f 14/14/14 15/15/15 12/12/12
f 16/16/16 17/17/17 18/18/18
f 18/18/18 19/19/19 16/16/16
f 18/18/18 17/17/17 20/20/20
f 20/20/20 21/21/21 18/18/18
f 22/22/22 23/23/23 24/24/24
f 24/24/24 25/25/25 22/22/22
f 12/12/12 26/26/26 27/27/27
f 27/27/27 13/13/13 12/12/12
f 27/27/27 26/26/26 28/28/28
f 28/28/28 29/29/29 27/27/27
f 24/24/24 30/30/30 31/31/31
f 31/31/31 25/25/25 24/24/24
f 23/23/23 32/32/32 30/30/30
f 30/30/30 24/24/24 23/23/23
f 33/33/33 34/34/34 35/35/35
f 35/35/35 34/34/34 36/36/36
f 1/1/1 3/3/3 9/9/9
f 11/11/11 10/10/10 37/37/37
f 37/37/37 38/38/38 11/11/11
f 17/17/17 39/39/39 25/25/25
f 25/25/25 20/20/20 17/17/17
f 17/17/17 16/16/16 40/40/40
f 40/40/40 39/39/39 17/17/17
f 41/41/41 42/42/42 43/43/43
f 43/43/43 38/38/38 41/41/41
f 44/44/44 38/38/38 37/37/37
f 45/45/45 42/42/42 41/41/41
f 19/19/19 46/46/46 47/47/47
f 47/47/47 16/16/16 19/19/19
f 25/25/25 39/39/39 2/2/2
f 48/48/48 49/49/49 2/2/2
f 2/2/2 50/50/50 48/48/48
f 51/51/51 35/35/35 36/36/36
f 36/36/36 52/52/52 51/51/51
f 49/49/49 22/22/22 25/25/25
f 25/25/25 2/2/2 49/49/49
f 39/39/39 40/40/40 3/3/3
f 3/3/3 2/2/2 39/39/39
f 53/53/53 44/44/44 37/37/37
f 37/37/37 54/54/54 53/53/53
f 10/10/10 3/3/3 40/40/40
f 53/53/53 54/54/54 55/55/55
f 55/55/55 56/56/56 53/53/53
f 54/54/54 40/40/40 57/57/57
f 57/57/57 55/55/55 54/54/54
f 40/40/40 16/16/16 47/47/47
f 47/47/47 57/57/57 40/40/40
f 40/40/40 54/54/54 37/37/37
f 37/37/37 10/10/10 40/40/40
f 11/11/11 38/38/38 43/43/43
f 43/43/43 15/15/15 11/11/11
f 5/5/5 4/4/4 8/8/8
f 8/8/8 33/33/33 5/5/5
f 35/35/35 51/51/51 6/6/6
f 6/6/6 5/5/5 35/35/35
f 50/50/50 1/1/1 58/58/58
f 58/58/58 1/1/1 59/59/59
f 9/9/9 8/8/8 60/60/60
f 60/60/60 59/59/59 9/9/9
f 60/60/60 8/8/8 4/4/4
f 3/3/3 10/10/10 9/9/9
f 1/1/1 50/50/50 2/2/2
f 1/1/1 9/9/9 59/59/59
f 11/11/11 15/15/15 33/33/33
f 33/33/33 8/8/8 11/11/11
f 33/33/33 35/35/35 5/5/5
f 15/15/15 14/14/14 33/33/33
f 61/61/61 62/62/62 63/63/63
f 64/64/64 65/65/65 66/66/66
f 66/66/66 67/67/67 64/64/64
f 68/68/68 69/69/69 70/70/70
f 70/70/70 71/71/71 68/68/68
f 72/72/72 73/73/73 74/74/74
f 74/74/74 75/75/75 72/72/72
f 76/76/76 77/77/77 78/78/78
f 78/78/78 79/79/79 76/76/76
f 78/78/78 80/80/80 81/81/81
f 81/81/81 79/79/79 78/78/78
f 82/82/82 83/83/83 84/84/84
f 84/84/84 85/85/85 82/82/82
f 72/72/72 75/75/75 86/86/86
f 86/86/86 87/87/87 72/72/72
f 86/86/86 88/88/88 89/89/89
f 89/89/89 87/87/87 86/86/86
f 84/84/84 83/83/83 90/90/90
f 90/90/90 91/91/91 84/84/84
f 85/85/85 84/84/84 91/91/91
f 91/91/91 92/92/92 85/85/85
f 93/93/93 94/94/94 95/95/95
f 94/94/94 96/96/96 95/95/95
f 61/61/61 71/71/71 62/62/62
f 69/69/69 97/97/97 98/98/98
f 98/98/98 70/70/70 69/69/69
f 79/79/79 81/81/81 83/83/83
f 83/83/83 99/99/99 79/79/79
f 79/79/79 99/99/99 100/100/100
f 100/100/100 76/76/76 79/79/79
f 101/101/101 97/97/97 102/102/102
f 102/102/102 103/103/103 101/101/101
f 104/104/104 98/98/98 97/97/97
f 105/105/105 101/101/101 103/103/103
f 77/77/77 76/76/76 106/106/106
f 106/106/106 107/107/107 77/77/77
f 83/83/83 63/63/63 99/99/99
f 108/108/108 109/109/109 63/63/63
f 63/63/63 110/110/110 108/108/108
f 111/111/111 112/112/112 96/96/96
f 96/96/96 94/94/94 111/111/111
f 110/110/110 63/63/63 83/83/83
f 83/83/83 82/82/82 110/110/110
f 99/99/99 63/63/63 62/62/62
f 62/62/62 100/100/100 99/99/99
f 113/113/113 114/114/114 98/98/98
f 98/98/98 104/104/104 113/113/113
f 70/70/70 100/100/100 62/62/62
f 113/113/113 115/115/115 116/116/116
f 116/116/116 114/114/114 113/113/113
f 114/114/114 116/116/116 117/117/117
f 117/117/117 100/100/100 114/114/114
f 100/100/100 117/117/117 106/106/106
f 106/106/106 76/76/76 100/100/100
f 100/100/100 70/70/70 98/98/98
f 98/98/98 114/114/114 100/100/100
f 69/69/69 73/73/73 102/102/102
f 102/102/102 97/97/97 69/69/69
f 67/67/67 68/68/68 64/64/64
f 68/68/68 67/67/67 93/93/93
f 94/94/94 67/67/67 66/66/66
f 66/66/66 111/111/111 94/94/94
f 109/109/109 118/118/118 61/61/61
f 118/118/118 119/119/119 61/61/61
f 71/71/71 119/119/119 120/120/120
f 120/120/120 68/68/68 71/71/71
f 120/120/120 64/64/64 68/68/68
f 62/62/62 71/71/71 70/70/70
f 61/61/61 63/63/63 109/109/109
f 61/61/61 119/119/119 71/71/71
f 69/69/69 68/68/68 93/93/93
f 93/93/93 73/73/73 69/69/69
f 93/93/93 67/67/67 94/94/94
f 73/73/73 93/93/93 74/74/74
