mtllib 9012002301.mtl
o 9012002301_part_0
v 0.14990975 2.13022137 -0.0237750262
v 0.08813464 2.11145854 -0.08342466
v 0.08441401 2.24028563 -0.09320198
v 0.1585062 2.24186325 -0.0395736545
v 0.08950304 2.619767 0.361383
v 0.09139743 2.67791 0.269195318
v 0.001930339 2.68607473 0.282463
v 0.0040801703 2.62085986 0.382601649
v 0.000398827717 2.68961573 0.0704586953
v 0.0930581 2.6759994 0.07084369
v 0.09493842 2.60139561 -0.09776099
v 0.00109199341 2.60343719 -0.110796407
v 0.00627346942 2.36511374 -0.135404453
v 0.003425878 2.48738384 -0.150415257
v 0.0991185 2.48679137 -0.136925891
v 0.0998941138 2.36297059 -0.120191172
v 0.182568461 2.63999939 0.254249841
v 0.1793432 2.63737774 0.0743259043
v 0.228474736 2.59237742 0.07858387
v 0.184735164 2.58434725 -0.05781333
v 0.009245601 2.23887181 -0.115228847
v 0.2253072 2.26421356 0.1294741
v 0.257142931 2.36598182 0.123697042
v 0.196894974 2.28648663 0.285105258
v 0.193821847 2.367654 -0.06319995
v 0.193079591 2.49047256 -0.08383334
v 0.251328051 2.50936985 0.09108111
v 0.196576685 2.1205194 0.131943658
v 0.2006966 2.20337367 0.13215813
v 0.1704492 2.175128 0.254410625
v 0.145132437 2.081881 0.242508382
v 0.219512984 2.5287044 0.2612614
v 0.21426338 2.600756 0.254720151
v 0.220759675 2.38557673 0.2839564
v 0.12431962 2.16804314 0.3385641
v 0.139060557 2.242423 0.361759782
v 0.08430001 2.40180278 0.4137087
v 0.009426154 2.39865732 0.4348511
v 0.009891242 2.37590981 0.428198636
v 0.08299557 2.371705 0.411492944
v 0.1544651 2.28774476 0.386599779
v 0.115497604 2.0535965 0.3318547
v 0.18337518 2.54670167 0.3671828
v 0.17158629 2.42469144 0.39196974
v 0.006186943 2.54531574 0.4425981
v 0.009145981 2.41761827 0.456091
v 0.0861889943 2.41931581 0.438021243
v 0.09063586 2.55177474 0.419827878
v 0.18380408 2.6041503 0.308881044
v 0.08378355 2.14673281 0.3974309
v 0.0771951 2.07803726 0.40868926
v 0.0152884144 2.07899475 0.243041754
v 0.145132437 2.081881 0.242508382
v 0.0165753663 2.05458188 0.3509281
v 0.08406642 2.29258513 0.434324324
v 0.0119195934 2.29250479 0.45098
v 0.09025059 2.19544315 0.3973456
v 0.0150107834 2.14345884 0.4137957
v 0.0165414046 2.079554 0.4278198
v 0.159143433 2.40646362 0.3718549
v 0.0129425209 2.24438453 0.442613065
v 0.08719887 2.24467063 0.4238801
v 0.0138847139 2.19495153 0.418155968
v 0.158478141 2.37032318 0.36823982
v 0.122403309 2.24233341 0.40103668
v 0.012216676 2.110732 -0.101427957
v 0.193821847 2.367654 -0.06319995
v -0.125136167 2.124047 -0.0218912214
v -0.138949111 2.23518586 -0.0375363678
v -0.06560192 2.236918 -0.0921744853
v -0.06340381 2.10805678 -0.0823867
v -0.08149011 2.61592841 0.362554073
v -0.08725351 2.67389965 0.270418882
v -0.09238104 2.59719038 -0.09647803
v -0.09154214 2.67185521 0.07210802
v -0.0869396552 2.35877657 -0.11891152
v -0.09195013 2.48250222 -0.135617241
v -0.175951526 2.629402 0.07675932
v -0.176827639 2.6319313 0.256711334
v -0.180767 2.57614231 -0.055309996
v -0.2229514 2.58224368 0.08167569
v -0.204365119 2.254568 0.132416919
v -0.174852967 2.27814126 0.28765136
v -0.2408115 2.35480332 0.127107531
v -0.24188368 2.498298 0.09445912
v -0.18524608 2.48197961 -0.0812421739
v -0.180193871 2.359258 -0.06063831
v -0.169184551 2.11230874 0.134448737
v -0.114549458 2.07605147 0.244286925
v -0.14385961 2.16807222 0.2565633
v -0.177014872 2.19489479 0.134745076
v -0.20864141 2.519093 0.2641938
v -0.206720263 2.59130526 0.257603467
v -0.203153536 2.37606049 0.286859751
v -0.0963108 2.16309047 0.340075135
v -0.114055574 2.236741 0.363493353
v -0.06579586 2.39843321 0.414736629
v -0.06317262 2.368424 0.412493944
v -0.13113676 2.28133345 0.388555825
v -0.08245487 2.04915285 0.333210438
v -0.1543107 2.41737556 0.394201756
v -0.171900868 2.53872633 0.369616032
v -0.0787705556 2.54797173 0.420988083
v -0.06813576 2.41585135 0.439078152
v -0.175705329 2.59607959 0.311343282
v -0.05405721 2.14363861 0.398374915
v -0.0442393571 2.07531142 0.409520924
v -0.114549458 2.07605147 0.244286925
v -0.0603794158 2.2893424 0.435313582
v -0.06270405 2.19200969 0.398393154
v -0.141339 2.399718 0.3739129
v -0.06150136 2.24133253 0.424898446
v -0.13910225 2.363643 0.370277941
v -0.0968749151 2.237411 0.402538478
v -0.180193871 2.359258 -0.06063831
v 0.08813464 2.11145854 -0.08342466
v 0.14990975 2.13022137 -0.0237750262
v 0.0132107139 2.13884568 0.135853514
v 0.14990975 2.13022137 -0.0237750262
v 0.196576685 2.1205194 0.131943658
v 0.0132107139 2.13884568 0.135853514
v 0.196576685 2.1205194 0.131943658
v 0.145132437 2.081881 0.242508382
v 0.0132107139 2.13884568 0.135853514
v 0.145132437 2.081881 0.242508382
v 0.0152884144 2.07899475 0.243041754
v 0.0132107139 2.13884568 0.135853514
v 0.012216676 2.110732 -0.101427957
v 0.08813464 2.11145854 -0.08342466
v 0.0132107139 2.13884568 0.135853514
v -0.125136167 2.124047 -0.0218912214
v -0.06340381 2.10805678 -0.0823867
v 0.0132107139 2.13884568 0.135853514
v -0.169184551 2.11230874 0.134448737
v -0.125136167 2.124047 -0.0218912214
v 0.0132107139 2.13884568 0.135853514
v -0.114549458 2.07605147 0.244286925
v -0.169184551 2.11230874 0.134448737
v 0.0132107139 2.13884568 0.135853514
v 0.0152884144 2.07899475 0.243041754
v -0.114549458 2.07605147 0.244286925
v 0.0132107139 2.13884568 0.135853514
v -0.06340381 2.10805678 -0.0823867
v 0.012216676 2.110732 -0.101427957
v 0.0132107139 2.13884568 0.135853514
vt 0.7333797 0.146439373
vt 0.850151837 0.143328547
vt 0.870704949 0.303754151
vt 0.758292854 0.288308263
vt 0.22356689 0.742930651
vt 0.318580449 0.844219267
vt 0.265993059 0.913916945
vt 0.13205868 0.7792434
vt 0.5548346 0.9654443
vt 0.5383785 0.893251061
vt 0.7708962 0.8148056
vt 0.8163272 0.8682144
vt 0.9605908 0.5398002
vt 0.956257761 0.6703537
vt 0.87830925 0.6608925
vt 0.8909539 0.5268886
vt 0.349273682 0.769132853
vt 0.5277481 0.805716336
vt 0.5201226 0.731621
vt 0.705351055 0.751206458
vt 0.9366458 0.311369538
vt 0.496290952 0.348265469
vt 0.482526481 0.466810822
vt 0.322068781 0.374701917
vt 0.761798441 0.5096491
vt 0.7456057 0.6485725
vt 0.5133029 0.62938267
vt 0.509649038 0.160425067
vt 0.5055922 0.2681589
vt 0.3389593 0.220620632
vt 0.3677489 0.117203832
vt 0.328185916 0.6245738
vt 0.342389375 0.698670566
vt 0.3191824 0.4682808
vt 0.214419752 0.18851018
vt 0.223711655 0.2869112
vt 0.13831614 0.464255333
vt 0.06861328 0.460148931
vt 0.06861937 0.441307843
vt 0.138342425 0.440739036
vt 0.220187 0.3542794
vt 0.201391041 0.07257444
vt 0.249633864 0.6425312
vt 0.206911176 0.507091
vt 0.06858714 0.668150663
vt 0.06813896 0.477499127
vt 0.137952074 0.485508919
vt 0.171791375 0.6567747
vt 0.290631562 0.7157395
vt 0.135857567 0.160815954
vt 0.121157326 0.0888921
vt 0.06904818 0.0160132051
vt 0.2258746 0.0205931067
vt 0.06922395 0.061716795
vt 0.137674719 0.344668329
vt 0.0684080049 0.33855474
vt 0.1467792 0.2123431
vt 0.06894153 0.155500531
vt 0.06922395 0.0862052441
vt 0.211552575 0.4874403
vt 0.06881598 0.272960544
vt 0.142226964 0.278505683
vt 0.06922395 0.207366347
vt 0.218249038 0.4450071
vt 0.1834831 0.283311248
vt 0.918622434 0.150460362
vt 0.761798441 0.5096491
vt 0.7333797 0.146439373
vt 0.758292854 0.288308263
vt 0.870704949 0.303754151
vt 0.850151837 0.143328547
vt 0.22356689 0.742930651
vt 0.318580449 0.844219267
vt 0.7708962 0.8148056
vt 0.5383785 0.893251061
vt 0.8909539 0.5268886
vt 0.87830925 0.6608925
vt 0.5277481 0.805716336
vt 0.349273682 0.769132853
vt 0.705351055 0.751206458
vt 0.5201226 0.731621
vt 0.496290952 0.348265469
vt 0.322068781 0.374701917
vt 0.482526481 0.466810822
vt 0.5133029 0.62938267
vt 0.7456057 0.6485725
vt 0.761798441 0.5096491
vt 0.509649038 0.160425067
vt 0.3677489 0.117203832
vt 0.3389593 0.220620632
vt 0.5055922 0.2681589
vt 0.328185916 0.6245738
vt 0.342389375 0.698670566
vt 0.3191824 0.4682808
vt 0.214419752 0.18851018
vt 0.223711655 0.2869112
vt 0.13831614 0.464255333
vt 0.138342425 0.440739036
vt 0.220187 0.3542794
vt 0.201391041 0.07257444
vt 0.206911176 0.507091
vt 0.249633864 0.6425312
vt 0.171791375 0.6567747
vt 0.137952074 0.485508919
vt 0.290631562 0.7157395
vt 0.135857567 0.160815954
vt 0.121157326 0.0888921
vt 0.2258746 0.0205931067
vt 0.137674719 0.344668329
vt 0.1467792 0.2123431
vt 0.211552575 0.4874403
vt 0.142226964 0.278505683
vt 0.218249038 0.4450071
vt 0.1834831 0.283311248
vt 0.761798441 0.5096491
vt 0.850151837 0.143328547
vt 0.7333797 0.146439373
vt 0.631659 0.145201385
vt 0.7333797 0.146439373
vt 0.509649038 0.160425067
vt 0.631659 0.145201385
vt 0.509649038 0.160425067
vt 0.3677489 0.117203832
vt 0.631659 0.145201385
vt 0.2258746 0.0205931067
vt 0.06904818 0.0160132051
vt 0.159009635 0.01869911
vt 0.918622434 0.150460362
vt 0.850151837 0.143328547
vt 0.631659 0.145201385
vt 0.7333797 0.146439373
vt 0.850151837 0.143328547
vt 0.645547748 0.13894093
vt 0.509649038 0.160425067
vt 0.7333797 0.146439373
vt 0.645547748 0.13894093
vt 0.3677489 0.117203832
vt 0.509649038 0.160425067
vt 0.645547748 0.13894093
vt 0.06904818 0.0160132051
vt 0.2258746 0.0205931067
vt 0.126647383 0.0176292658
vt 0.850151837 0.143328547
vt 0.918622434 0.150460362
vt 0.645547748 0.13894093
vn 0.834577739 -0.102212109 -0.5413249
vn 0.4824902 -0.0635693 -0.873591542
vn 0.438108176 -0.176506758 -0.881423056
vn 0.7806559 -0.24447085 -0.575161159
vn 0.305409968 0.718682051 0.6246766
vn 0.267093629 0.926970243 0.263414353
vn -0.0192639567 0.9516528 0.306571066
vn -0.0118854186 0.735957146 0.676923752
vn -0.023375636 0.977912545 -0.207703158
vn 0.271080077 0.940951347 -0.2027958
vn 0.2675064 0.652329743 -0.709158838
vn -0.0198671762 0.6543726 -0.755911231
vn -0.0035539458 -0.143621653 -0.9896263
vn -0.009164461 0.104833864 -0.9944475
vn 0.311899841 0.09303282 -0.94554925
vn 0.354311526 -0.175432935 -0.918524146
vn 0.5771494 0.787287056 0.216974
vn 0.5325251 0.8289343 -0.171128333
vn 0.8713559 0.474042922 -0.126579076
vn 0.655957162 0.534408 -0.5330369
vn -0.00333284563 -0.153046325 -0.9882134
vn 0.9427242 -0.328720361 -0.05669217
vn 0.990439534 -0.133642286 -0.0341951773
vn 0.9055138 -0.278271019 0.3203278
vn 0.784386039 -0.111550637 -0.6101599
vn 0.7503958 0.07465178 -0.6567597
vn 0.9879279 0.130826011 -0.08296404
vn 0.992826939 -0.115302771 0.0316219926
vn 0.973984241 -0.2218892 -0.04604198
vn 0.912723541 -0.250244945 0.3229755
vn 0.804785 -0.5807026 0.122904539
vn 0.971271 0.08281568 0.223101348
vn 0.900759161 0.382861435 0.205061212
vn 0.935602367 -0.08584227 0.342460632
vn 0.840317 -0.192696959 0.506690443
vn 0.811540663 -0.4147985 0.411514223
vn 0.351271152 -0.496608078 0.793718457
vn 0.0183479786 -0.5658438 0.8243083
vn 0.006734873 0.00505698752 0.999964535
vn 0.3791823 0.0813304 0.92174083
vn 0.7557546 -0.145936683 0.6383866
vn 0.576538265 -0.78853 0.214065626
vn 0.71468246 0.3122902 0.6258624
vn 0.642854 -0.3382274 0.6872707
vn -0.00172216538 0.3611993 0.9324871
vn 0.0140688391 -0.33980915 0.940389156
vn 0.3440251 -0.378115863 0.859462142
vn 0.346493334 0.3900806 0.853099942
vn 0.6104775 0.611355 0.503549635
vn 0.5990143 -0.0260962266 0.800313
vn 0.494953156 -0.45842284 0.73815304
vn 0.0199284572 -0.966182232 -0.257089049
vn 0.804785 -0.5807026 0.122904539
vn 0.0229329485 -0.996291459 0.08293025
vn 0.392766744 0.04873549 0.918345869
vn 0.005746416 0.0487332344 0.9987953
vn 0.5602243 -0.296549141 0.773438632
vn 0.0057829367 0.0471344925 0.9988718
vn 0.0159447156 -0.435724437 0.8999389
vn 0.535972357 -0.5277356 0.6589604
vn 0.0134350834 -0.308292538 0.95119673
vn 0.381364435 -0.290153265 0.8777085
vn 0.0127713541 -0.2756802 0.961164534
vn 0.6751475 0.0268809926 0.737192869
vn 0.679860651 -0.37353006 0.631082237
vn -0.004403814 -0.10718248 -0.9942296
vn 0.7475828 -0.09156313 -0.657826841
vn -0.836483061 -0.139725313 -0.529880047
vn -0.776700437 -0.2794314 -0.5644949
vn -0.44177267 -0.196259022 -0.875396669
vn -0.4910665 -0.08542439 -0.8669235
vn -0.3287708 0.704445541 0.6290201
vn -0.304788828 0.914132237 0.267331243
vn -0.306192428 0.639450967 -0.7052295
vn -0.315781116 0.927777052 -0.198776335
vn -0.3586244 -0.191437423 -0.9136412
vn -0.328676075 0.07865272 -0.941161931
vn -0.57147795 0.804151 -0.163567036
vn -0.608870864 0.7606626 0.225096971
vn -0.68651253 0.504271567 -0.5238422
vn -0.893400848 0.4344266 -0.11449223
vn -0.927711844 -0.370708942 -0.04388154
vn -0.887644649 -0.318524927 0.332609177
vn -0.98382026 -0.1779615 -0.0206734128
vn -0.9938464 0.08633802 -0.0693908259
vn -0.7619106 0.0407027043 -0.646402
vn -0.7865637 -0.13699536 -0.602121055
vn -0.9861269 -0.159727558 0.0451758839
vn -0.77615875 -0.61619246 0.133732647
vn -0.896067739 -0.290849715 0.335364
vn -0.9635855 -0.265384763 -0.032771498
vn -0.970863342 0.0392175354 0.236403
vn -0.9141399 0.342119455 0.217491344
vn -0.9260318 -0.127633244 0.35521093
vn -0.8238081 -0.230054229 0.518088162
vn -0.7864002 -0.450670034 0.4224586
vn -0.317734 -0.511626959 0.7983
vn -0.369795531 0.0645164549 0.926870465
vn -0.739634 -0.179506108 0.648628652
vn -0.5375896 -0.813540459 0.221696422
vn -0.617559969 -0.366521776 0.695903361
vn -0.7193404 0.280098259 0.6356842
vn -0.3519366 0.3744018 0.8578834
vn -0.3149131 -0.392908156 0.863975048
vn -0.63034445 0.5835003 0.512048066
vn -0.586227238 -0.05270328 0.8084306
vn -0.463732481 -0.4799434 0.7447191
vn -0.77615875 -0.61619246 0.133732647
vn -0.3819489 0.03134424 0.923651755
vn -0.535711765 -0.3211514 0.780944765
vn -0.50268 -0.551051557 0.6660743
vn -0.355908543 -0.3067039 0.8827581
vn -0.665517569 -0.00321499538 0.746375263
vn -0.653710842 -0.4034666 0.640216231
vn -0.7592609 -0.103574686 -0.642491341
vn 0.1344736 -0.9765857 0.167920366
vn 0.1344736 -0.9765857 0.167920366
vn 0.1344736 -0.9765857 0.167920366
vn -0.100072689 -0.9944664 -0.0319689661
vn -0.100072689 -0.9944664 -0.0319689661
vn -0.100072689 -0.9944664 -0.0319689661
vn -0.100208834 -0.9238237 -0.369469851
vn -0.100208834 -0.9238237 -0.369469851
vn -0.100208834 -0.9238237 -0.369469851
vn 0.01739762 -0.8728354 -0.487704545
vn 0.01739762 -0.8728354 -0.487704545
vn 0.01739762 -0.8728354 -0.487704545
vn -0.0184147488 -0.9928766 0.117715493
vn -0.0184147488 -0.9928766 0.117715493
vn -0.0184147488 -0.9928766 0.117715493
vn -0.08820512 -0.9815845 0.169445336
vn -0.08820512 -0.9815845 0.169445336
vn -0.08820512 -0.9815845 0.169445336
vn 0.144148737 -0.988984 -0.0336418264
vn 0.144148737 -0.988984 -0.0336418264
vn 0.144148737 -0.988984 -0.0336418264
vn 0.1364943 -0.9185101 -0.371091038
vn 0.1364943 -0.9185101 -0.371091038
vn 0.1364943 -0.9185101 -0.371091038
vn 0.01511072 -0.8728867 -0.487688869
vn 0.01511072 -0.8728867 -0.487688869
vn 0.01511072 -0.8728867 -0.487688869
vn 0.06455809 -0.991014 0.117147192
vn 0.06455809 -0.991014 0.117147192
vn 0.06455809 -0.991014 0.117147192
usemtl 9012002301_part_0_material_0
f 1/1/1 2/2/2 3/3/3
f 3/3/3 4/4/4 1/1/1
f 5/5/5 6/6/6 7/7/7
f 7/7/7 8/8/8 5/5/5
f 9/9/9 10/10/10 11/11/11
f 11/11/11 12/12/12 9/9/9
f 13/13/13 14/14/14 15/15/15
f 15/15/15 16/16/16 13/13/13
f 10/10/10 6/6/6 17/17/17
f 17/17/17 18/18/18 10/10/10
f 18/18/18 19/19/19 20/20/20
f 21/21/21 13/13/13 16/16/16
f 16/16/16 3/3/3 21/21/21
f 22/22/22 23/23/23 24/24/24
f 12/12/12 11/11/11 15/15/15
f 15/15/15 14/14/14 12/12/12
f 23/23/23 25/25/25 26/26/26
f 26/26/26 27/27/27 23/23/23
f 28/28/28 29/29/29 30/30/30
f 30/30/30 31/31/31 28/28/28
f 32/32/32 27/27/27 19/19/19
f 19/19/19 33/33/33 32/32/32
f 34/34/34 23/23/23 27/27/27
f 27/27/27 32/32/32 34/34/34
f 35/35/35 30/30/30 36/36/36
f 37/37/37 38/38/38 39/39/39
f 39/39/39 40/40/40 37/37/37
f 24/24/24 34/34/34 41/41/41
f 42/42/42 31/31/31 30/30/30
f 30/30/30 35/35/35 42/42/42
f 34/34/34 32/32/32 43/43/43
f 43/43/43 44/44/44 34/34/34
f 45/45/45 46/46/46 47/47/47
f 47/47/47 48/48/48 45/45/45
f 48/48/48 43/43/43 49/49/49
f 49/49/49 5/5/5 48/48/48
f 33/33/33 49/49/49 43/43/43
f 32/32/32 33/33/33 43/43/43
f 23/23/23 34/34/34 24/24/24
f 50/50/50 51/51/51 42/42/42
f 42/42/42 35/35/35 50/50/50
f 52/52/52 53/53/53 42/42/42
f 42/42/42 54/54/54 52/52/52
f 55/55/55 40/40/40 39/39/39
f 39/39/39 56/56/56 55/55/55
f 35/35/35 57/57/57 50/50/50
f 58/58/58 59/59/59 51/51/51
f 51/51/51 50/50/50 58/58/58
f 48/48/48 47/47/47 44/44/44
f 44/44/44 43/43/43 48/48/48
f 8/8/8 45/45/45 48/48/48
f 48/48/48 5/5/5 8/8/8
f 17/17/17 33/33/33 19/19/19
f 19/19/19 18/18/18 17/17/17
f 49/49/49 33/33/33 17/17/17
f 18/18/18 20/20/20 11/11/11
f 11/11/11 10/10/10 18/18/18
f 9/9/9 7/7/7 6/6/6
f 6/6/6 10/10/10 9/9/9
f 49/49/49 17/17/17 6/6/6
f 6/6/6 5/5/5 49/49/49
f 40/40/40 60/60/60 37/37/37
f 55/55/55 56/56/56 61/61/61
f 61/61/61 62/62/62 55/55/55
f 63/63/63 58/58/58 50/50/50
f 50/50/50 57/57/57 63/63/63
f 34/34/34 64/64/64 41/41/41
f 51/51/51 59/59/59 54/54/54
f 54/54/54 42/42/42 51/51/51
f 47/47/47 46/46/46 38/38/38
f 38/38/38 37/37/37 47/47/47
f 47/47/47 37/37/37 60/60/60
f 60/60/60 44/44/44 47/47/47
f 34/34/34 44/44/44 60/60/60
f 60/60/60 40/40/40 64/64/64
f 40/40/40 55/55/55 41/41/41
f 41/41/41 64/64/64 40/40/40
f 41/41/41 65/65/65 36/36/36
f 41/41/41 55/55/55 62/62/62
f 62/62/62 65/65/65 41/41/41
f 34/34/34 60/60/60 64/64/64
f 2/2/2 66/66/66 21/21/21
f 21/21/21 3/3/3 2/2/2
f 26/26/26 25/25/25 16/16/16
f 16/16/16 15/15/15 26/26/26
f 67/67/67 4/4/4 3/3/3
f 25/25/25 67/67/67 3/3/3
f 16/16/16 25/25/25 3/3/3
f 20/20/20 26/26/26 15/15/15
f 15/15/15 11/11/11 20/20/20
f 19/19/19 27/27/27 26/26/26
f 26/26/26 20/20/20 19/19/19
f 4/4/4 29/29/29 28/28/28
f 28/28/28 1/1/1 4/4/4
f 22/22/22 67/67/67 25/25/25
f 25/25/25 23/23/23 22/22/22
f 30/30/30 29/29/29 22/22/22
f 22/22/22 24/24/24 30/30/30
f 22/22/22 4/4/4 67/67/67
f 22/22/22 29/29/29 4/4/4
f 63/63/63 57/57/57 62/62/62
f 62/62/62 61/61/61 63/63/63
f 57/57/57 35/35/35 36/36/36
f 36/36/36 65/65/65 57/57/57
f 62/62/62 57/57/57 65/65/65
f 24/24/24 41/41/41 36/36/36
f 30/30/30 24/24/24 36/36/36
f 68/68/68 69/69/69 70/70/70
f 70/70/70 71/71/71 68/68/68
f 72/72/72 8/8/8 7/7/7
f 7/7/7 73/73/73 72/72/72
f 9/9/9 12/12/12 74/74/74
f 74/74/74 75/75/75 9/9/9
f 13/13/13 76/76/76 77/77/77
f 77/77/77 14/14/14 13/13/13
f 75/75/75 78/78/78 79/79/79
f 79/79/79 73/73/73 75/75/75
f 78/78/78 80/80/80 81/81/81
f 21/21/21 70/70/70 76/76/76
f 76/76/76 13/13/13 21/21/21
f 82/82/82 83/83/83 84/84/84
f 12/12/12 14/14/14 77/77/77
f 77/77/77 74/74/74 12/12/12
f 84/84/84 85/85/85 86/86/86
f 86/86/86 87/87/87 84/84/84
f 88/88/88 89/89/89 90/90/90
f 90/90/90 91/91/91 88/88/88
f 92/92/92 93/93/93 81/81/81
f 81/81/81 85/85/85 92/92/92
f 94/94/94 92/92/92 85/85/85
f 85/85/85 84/84/84 94/94/94
f 95/95/95 96/96/96 90/90/90
f 97/97/97 98/98/98 39/39/39
f 39/39/39 38/38/38 97/97/97
f 83/83/83 99/99/99 94/94/94
f 100/100/100 95/95/95 90/90/90
f 90/90/90 89/89/89 100/100/100
f 94/94/94 101/101/101 102/102/102
f 102/102/102 92/92/92 94/94/94
f 45/45/45 103/103/103 104/104/104
f 104/104/104 46/46/46 45/45/45
f 103/103/103 72/72/72 105/105/105
f 105/105/105 102/102/102 103/103/103
f 93/93/93 102/102/102 105/105/105
f 92/92/92 102/102/102 93/93/93
f 84/84/84 83/83/83 94/94/94
f 106/106/106 95/95/95 100/100/100
f 100/100/100 107/107/107 106/106/106
f 52/52/52 54/54/54 100/100/100
f 100/100/100 108/108/108 52/52/52
f 109/109/109 56/56/56 39/39/39
f 39/39/39 98/98/98 109/109/109
f 95/95/95 106/106/106 110/110/110
f 58/58/58 106/106/106 107/107/107
f 107/107/107 59/59/59 58/58/58
f 103/103/103 102/102/102 101/101/101
f 101/101/101 104/104/104 103/103/103
f 8/8/8 72/72/72 103/103/103
f 103/103/103 45/45/45 8/8/8
f 79/79/79 78/78/78 81/81/81
f 81/81/81 93/93/93 79/79/79
f 105/105/105 79/79/79 93/93/93
f 78/78/78 75/75/75 74/74/74
f 74/74/74 80/80/80 78/78/78
f 9/9/9 75/75/75 73/73/73
f 73/73/73 7/7/7 9/9/9
f 105/105/105 72/72/72 73/73/73
f 73/73/73 79/79/79 105/105/105
f 98/98/98 97/97/97 111/111/111
f 109/109/109 112/112/112 61/61/61
f 61/61/61 56/56/56 109/109/109
f 63/63/63 110/110/110 106/106/106
f 106/106/106 58/58/58 63/63/63
f 94/94/94 99/99/99 113/113/113
f 107/107/107 100/100/100 54/54/54
f 54/54/54 59/59/59 107/107/107
f 104/104/104 97/97/97 38/38/38
f 38/38/38 46/46/46 104/104/104
f 104/104/104 101/101/101 111/111/111
f 111/111/111 97/97/97 104/104/104
f 94/94/94 111/111/111 101/101/101
f 111/111/111 113/113/113 98/98/98
f 98/98/98 113/113/113 99/99/99
f 99/99/99 109/109/109 98/98/98
f 99/99/99 96/96/96 114/114/114
f 99/99/99 114/114/114 112/112/112
f 112/112/112 109/109/109 99/99/99
f 94/94/94 113/113/113 111/111/111
f 71/71/71 70/70/70 21/21/21
f 21/21/21 66/66/66 71/71/71
f 86/86/86 77/77/77 76/76/76
f 76/76/76 87/87/87 86/86/86
f 70/70/70 69/69/69 115/115/115
f 70/70/70 115/115/115 87/87/87
f 76/76/76 70/70/70 87/87/87
f 80/80/80 74/74/74 77/77/77
f 77/77/77 86/86/86 80/80/80
f 81/81/81 80/80/80 86/86/86
f 86/86/86 85/85/85 81/81/81
f 69/69/69 68/68/68 88/88/88
f 88/88/88 91/91/91 69/69/69
f 82/82/82 84/84/84 87/87/87
f 87/87/87 115/115/115 82/82/82
f 90/90/90 83/83/83 82/82/82
f 82/82/82 91/91/91 90/90/90
f 82/82/82 115/115/115 69/69/69
f 82/82/82 69/69/69 91/91/91
f 63/63/63 61/61/61 112/112/112
f 112/112/112 110/110/110 63/63/63
f 110/110/110 114/114/114 96/96/96
f 96/96/96 95/95/95 110/110/110
f 112/112/112 114/114/114 110/110/110
f 83/83/83 96/96/96 99/99/99
f 90/90/90 96/96/96 83/83/83
f 116/116/116 117/117/117 118/118/118
f 119/119/119 120/120/120 121/121/121
f 122/122/122 123/123/123 124/124/124
f 125/125/125 126/126/126 127/127/127
f 128/128/128 129/129/129 130/130/130
f 131/131/131 132/132/132 133/133/133
f 134/134/134 135/135/135 136/136/136
f 137/137/137 138/138/138 139/139/139
f 140/140/140 141/141/141 142/142/142
f 143/143/143 144/144/144 145/145/145
