mtllib 9013001603.mtl
o 9013001603_part_0
v -0.3762722 1.17937064 -0.0525354221
v -0.3593663 1.07689452 -0.0117376167
v -0.339228034 1.16401625 -0.0400522426
v -0.384971261 1.06799507 -0.128165781
v -0.401950955 1.17193782 -0.09417059
v -0.36365366 1.16251373 -0.136126459
v -0.434526354 1.07281148 -0.07088273
v -0.4165686 0.9672727 -0.125215039
v -0.4245051 0.9109114 -0.108356252
v -0.4485305 0.966088653 -0.112335324
v -0.405775338 0.920072258 -0.1202699
v -0.369064152 0.9723985 -0.0111681558
v -0.412561655 0.929073453 -0.0298904516
v -0.376466751 0.821045756 -0.0184110217
v -0.407752633 0.9179995 0.0104830377
v -0.379335284 0.822565436 0.009141233
v -0.3969866 0.806318045 -0.000291705132
v -0.407752633 0.9179995 0.0104830377
v -0.44508028 0.9079232 -0.00126840174
v -0.379335284 0.822565436 0.009141233
v -0.305355638 0.904213 0.0352920443
v -0.340662241 1.01265478 0.0303754918
v -0.314418525 0.9182298 0.0612710938
v -0.306220174 1.00463653 -0.0278390348
v -0.391937017 0.806960642 -0.020856943
v -0.3969866 0.806318045 -0.000291705132
v -0.335858434 0.8984065 0.0387022421
v -0.381055623 0.9909859 0.02729981
v -0.369064152 0.9723985 -0.0111681558
v -0.335003823 0.912044644 0.054429
v -0.314418525 0.9182298 0.0612710938
v -0.305355638 0.904213 0.0352920443
v -0.335858434 0.8984065 0.0387022421
v -0.3664837 0.834460139 -0.0995793343
v -0.382772923 0.8262169 -0.03789646
v -0.3664837 0.834460139 -0.0995793343
v -0.3594141 0.8371999 -0.03527827
v -0.393856049 1.07913089 -0.0294896457
v -0.321647257 1.05310011 -0.06761192
v -0.3593663 1.07689452 -0.0117376167
v -0.301871657 1.1244272 -0.09017377
v -0.328359127 1.1406976 -0.138677984
v -0.419322133 0.9768722 0.005428863
v -0.339228034 1.16401625 -0.0400522426
v -0.340662241 1.01265478 0.0303754918
v -0.458325684 0.9641286 -0.04285022
v -0.442831278 0.9035021 -0.03276791
v -0.382772923 0.8262169 -0.03789646
v -0.412561655 0.929073453 -0.0298904516
v -0.3594141 0.8371999 -0.03527827
v -0.376466751 0.821045756 -0.0184110217
v -0.391937017 0.806960642 -0.020856943
v 0.3607567 1.17153466 -0.0675660446
v 0.323928773 1.15729308 -0.05325716
v 0.3470399 1.06705475 -0.0258697718
v 0.384024322 1.16351366 -0.110489793
v 0.366386116 1.05738652 -0.143422157
v 0.3433525 1.155526 -0.150461823
v 0.4174964 1.05656469 -0.08841804
v 0.387150228 0.953663945 -0.1424304
v 0.390246034 0.8966299 -0.126264885
v 0.37200895 0.9076947 -0.137293741
v 0.419366539 0.9492364 -0.130968839
v 0.3453218 0.9622493 -0.026385989
v 0.383522034 0.915077448 -0.04724677
v 0.3375479 0.81097734 -0.0348306224
v 0.3793913 0.9041184 -0.006766945
v 0.341732979 0.8119316 -0.00742187351
v 0.357286572 0.7941352 -0.017713014
v 0.3793913 0.9041184 -0.006766945
v 0.341732979 0.8119316 -0.00742187351
v 0.415013075 0.8905667 -0.020199284
v 0.277297646 0.900140941 0.0224181116
v 0.3228106 1.00466347 0.0165953524
v 0.285278857 1.000633 -0.04010211
v 0.288798 0.9129431 0.0480571873
v 0.35144496 0.795475245 -0.038033478
v 0.357286572 0.7941352 -0.017713014
v 0.307203323 0.891351163 0.0244562346
v 0.3607182 0.9791883 0.0116283679
v 0.308365375 0.904848 0.0402847975
v 0.3453218 0.9622493 -0.026385989
v 0.288798 0.9129431 0.0480571873
v 0.277297646 0.900140941 0.0224181116
v 0.307203323 0.891351163 0.0244562346
v 0.32544744 0.826121 -0.115404487
v 0.3434869 0.8157048 -0.054542765
v 0.3214501 0.8288882 -0.05084075
v 0.32544744 0.826121 -0.115404487
v 0.380630285 1.06718814 -0.04523059
v 0.306631625 1.04481065 -0.07980615
v 0.3470399 1.06705475 -0.0258697718
v 0.282818437 1.11916947 -0.101542555
v 0.30729717 1.13485 -0.15128088
v 0.396442831 0.961629152 -0.0119782723
v 0.323928773 1.15729308 -0.05325716
v 0.3228106 1.00466347 0.0165953524
v 0.431899846 0.945628464 -0.06199158
v 0.410990119 0.886704564 -0.05159551
v 0.3434869 0.8157048 -0.054542765
v 0.383522034 0.915077448 -0.04724677
v 0.3214501 0.8288882 -0.05084075
v 0.3375479 0.81097734 -0.0348306224
v 0.35144496 0.795475245 -0.038033478
vt 0.203031421 0.9229781
vt 0.137173951 0.7731767
vt 0.141068608 0.9229781
vt 0.488812476 0.7731767
vt 0.3016516 0.9229781
vt 0.443351656 0.9229781
vt 0.289431632 0.7731767
vt 0.5312164 0.5410181
vt 0.462044924 0.4326234
vt 0.4625382 0.5460705
vt 0.5229883 0.4307183
vt 0.8097939 0.5151739
vt 0.749717534 0.402175069
vt 0.7249531 0.241864681
vt 0.8055372 0.381495833
vt 0.774978936 0.235825
vt 0.225775227 0.258464277
vt 0.1797943 0.3763671
vt 0.219958469 0.373226643
vt 0.1867425 0.265345573
vt 0.96483314 0.398052335
vt 0.936583936 0.5825878
vt 0.995970368 0.428581834
vt 0.869648933 0.5469017
vt 0.7258975 0.210293412
vt 0.765039444 0.206929862
vt 0.09646204 0.359501839
vt 0.130962431 0.551725
vt 0.147104278 0.497826457
vt 0.0601929277 0.399187922
vt 0.0126781631 0.408800125
vt 0.0222983025 0.391618
vt 0.914520442 0.363012552
vt 0.457388848 0.2974769
vt 0.7056015 0.23146981
vt 0.5672107 0.311797142
vt 0.715213656 0.2585315
vt 0.2052652 0.7731767
vt 0.676707566 0.7731767
vt 0.84555316 0.7731767
vt 0.6770447 0.9229781
vt 0.508544564 0.9229781
vt 0.184061334 0.5305709
vt 0.8255167 0.9229781
vt 0.06323373 0.5734605
vt 0.282893032 0.5365432
vt 0.272150278 0.383191347
vt 0.291909635 0.262094855
vt 0.275289416 0.279123962
vt 0.281724632 0.249497175
vt 0.2728648 0.244089425
vt 0.258776546 0.2671705
vt 0.203031421 0.9229781
vt 0.141068608 0.9229781
vt 0.137173951 0.7731767
vt 0.3016516 0.9229781
vt 0.488812476 0.7731767
vt 0.443351656 0.9229781
vt 0.289431632 0.7731767
vt 0.5312164 0.5410181
vt 0.462044924 0.4326234
vt 0.5229883 0.4307183
vt 0.4625382 0.5460705
vt 0.8097939 0.5151739
vt 0.749717534 0.402175069
vt 0.7249531 0.241864681
vt 0.8055372 0.381495833
vt 0.774978936 0.235825
vt 0.225775227 0.258464277
vt 0.1797943 0.3763671
vt 0.1867425 0.265345573
vt 0.219958469 0.373226643
vt 0.96483314 0.398052335
vt 0.936583936 0.5825878
vt 0.869648933 0.5469017
vt 0.995970368 0.428581834
vt 0.7258975 0.210293412
vt 0.765039444 0.206929862
vt 0.09646204 0.359501839
vt 0.130962431 0.551725
vt 0.0601929277 0.399187922
vt 0.147104278 0.497826457
vt 0.0126781631 0.408800125
vt 0.0222983025 0.391618
vt 0.914520442 0.363012552
vt 0.457388848 0.2974769
vt 0.7056015 0.23146981
vt 0.715213656 0.2585315
vt 0.5672107 0.311797142
vt 0.2052652 0.7731767
vt 0.676707566 0.7731767
vt 0.84555316 0.7731767
vt 0.6770447 0.9229781
vt 0.508544564 0.9229781
vt 0.184061334 0.5305709
vt 0.8255167 0.9229781
vt 0.06323373 0.5734605
vt 0.282893032 0.5365432
vt 0.272150278 0.383191347
vt 0.291909635 0.262094855
vt 0.275289416 0.279123962
vt 0.281724632 0.249497175
vt 0.2728648 0.244089425
vt 0.258776546 0.2671705
vn -0.5707118 0.3553551 0.740277469
vn 0.214915067 0.4006696 0.890660048
vn 0.2982287 0.231974736 0.925876558
vn -0.08251582 -0.0919770449 -0.992336333
vn -0.94526577 0.283356339 -0.16180791
vn -0.476746947 0.03354298 -0.8784004
vn -0.9407102 0.3388472 0.015714597
vn 0.211316749 -0.134734809 -0.96808666
vn -0.6896866 -0.4238554 -0.5870937
vn -0.8059898 -0.07578918 -0.5870574
vn 0.4239457 -0.116402186 -0.898176253
vn 0.300624877 -0.917680144 -0.259784251
vn 0.9583476 -0.285603374 -0.00076103
vn 0.8452632 -0.2373652 -0.478735715
vn 0.475428134 -0.04115656 0.878791332
vn 0.591291249 -0.255749047 0.7648314
vn -0.287737578 -0.857032061 0.427437842
vn 0.475428134 -0.04115656 0.878791332
vn -0.795812 -0.174415141 0.579881549
vn 0.591291249 -0.255749047 0.7648314
vn 0.754892468 -0.632846832 -0.172169179
vn 0.335145682 0.468996048 0.8171414
vn 0.477235466 -0.111074194 0.8717275
vn 0.922488 -0.106004529 -0.371185929
vn -0.0178612676 -0.811129868 -0.584593236
vn -0.287737578 -0.857032061 0.427437842
vn -0.36288172 -0.9288285 -0.0747962743
vn -0.5569148 -0.020761406 0.8303101
vn 0.300624877 -0.917680144 -0.259784251
vn -0.462878227 -0.391875237 0.7950959
vn 0.477235466 -0.111074194 0.8717275
vn 0.754892468 -0.632846832 -0.172169179
vn -0.36288172 -0.9288285 -0.0747962743
vn 0.4265772 -0.550677538 -0.717486
vn -0.2815039 -0.843562245 0.457338244
vn 0.4265772 -0.550677538 -0.717486
vn 0.7972246 -0.2418915 0.5531017
vn -0.566158 0.3332122 0.7539461
vn 0.9524492 -0.22977671 -0.200108021
vn 0.214915067 0.4006696 0.890660048
vn 0.933469951 -0.350435585 -0.0763463
vn 0.311890781 -0.369432747 -0.8753534
vn -0.4563793 0.13956131 0.8787722
vn 0.2982287 0.231974736 0.925876558
vn 0.335145682 0.468996048 0.8171414
vn -0.9844233 0.0483741648 0.169028878
vn -0.8814388 -0.4421532 -0.166030765
vn -0.2815039 -0.843562245 0.457338244
vn 0.9583476 -0.285603374 -0.00076103
vn 0.7972246 -0.2418915 0.5531017
vn 0.8452632 -0.2373652 -0.478735715
vn -0.0178612676 -0.811129868 -0.584593236
vn 0.615849555 0.3451863 0.7082201
vn -0.249849141 0.222053692 0.9424795
vn -0.125514731 0.397774845 0.9088571
vn 0.9411198 0.269063115 -0.2046913
vn 0.0595977 -0.08003736 -0.9950086
vn 0.422252148 0.0341270752 -0.9058358
vn 0.9610146 0.275022179 -0.0285261162
vn -0.267871141 -0.102042936 -0.958035648
vn 0.618988454 -0.483187139 -0.6191797
vn -0.471514374 -0.06539894 -0.87943
vn 0.7690561 -0.149061725 -0.621557236
vn -0.399833322 -0.8808651 -0.253396869
vn -0.9808543 -0.19069393 0.0395065248
vn -0.8842364 -0.148900941 -0.442667454
vn -0.438962847 -0.00343557051 0.898498654
vn -0.5800765 -0.204535231 0.788464665
vn 0.220524952 -0.885294139 0.409417838
vn -0.438962847 -0.00343557051 0.898498654
vn -0.5800765 -0.204535231 0.788464665
vn 0.799088955 -0.2570915 0.543471038
vn -0.819942355 -0.554383457 -0.142665952
vn -0.256211 0.49787274 0.8285401
vn -0.9414863 0.0214521121 -0.336367816
vn -0.4479071 -0.07277134 0.8911137
vn -0.08680366 -0.8030555 -0.589548051
vn 0.220524952 -0.885294139 0.409417838
vn 0.266616762 -0.959006 -0.09603607
vn 0.585359 -0.08618492 0.806180537
vn 0.456018716 -0.443189055 0.771770954
vn -0.399833322 -0.8808651 -0.253396869
vn -0.4479071 -0.07277134 0.8911137
vn -0.819942355 -0.554383457 -0.142665952
vn 0.266616762 -0.959006 -0.09603607
vn -0.5088949 -0.4991459 -0.7013411
vn 0.216928869 -0.8715831 0.439641625
vn -0.792571545 -0.168508053 0.5860336
vn -0.5088949 -0.4991459 -0.7013411
vn 0.6347458 0.296244621 0.7136784
vn -0.968862 -0.18410185 -0.165568709
vn -0.125514731 0.397774845 0.9088571
vn -0.933341146 -0.358607739 -0.0165762082
vn -0.365142852 -0.365396559 -0.856245339
vn 0.5060047 0.08341033 0.8584882
vn -0.249849141 0.222053692 0.9424795
vn -0.256211 0.49787274 0.8285401
vn 0.990820467 -0.0490109436 0.125986964
vn 0.825945 -0.5243611 -0.207027435
vn 0.216928869 -0.8715831 0.439641625
vn -0.9808543 -0.19069393 0.0395065248
vn -0.792571545 -0.168508053 0.5860336
vn -0.8842364 -0.148900941 -0.442667454
vn -0.08680366 -0.8030555 -0.589548051
usemtl 9013001603_part_0_material_0
f 1/1/1 2/2/2 3/3/3
f 4/4/4 5/5/5 6/6/6
f 5/5/5 4/4/4 7/7/7
f 8/8/8 9/9/9 10/10/10
f 9/9/9 8/8/8 11/11/11
f 12/12/12 11/11/11 8/8/8
f 11/11/11 12/12/12 13/13/13
f 14/14/14 15/15/15 16/16/16
f 15/15/15 14/14/14 13/13/13
f 17/17/17 18/18/18 19/19/19
f 18/18/18 17/17/17 20/20/20
f 21/21/21 22/22/22 23/23/23
f 22/22/22 21/21/21 24/24/24
f 16/16/16 25/25/25 14/14/14
f 25/25/25 16/16/16 26/26/26
f 27/27/27 28/28/28 29/29/29
f 28/28/28 27/27/27 30/30/30
f 31/31/31 27/27/27 32/32/32
f 27/27/27 31/31/31 30/30/30
f 33/33/33 24/24/24 21/21/21
f 24/24/24 33/33/33 12/12/12
f 34/34/34 9/9/9 11/11/11
f 35/35/35 36/36/36 37/37/37
f 2/2/2 1/1/1 38/38/38
f 22/22/22 39/39/39 40/40/40
f 39/39/39 22/22/22 24/24/24
f 41/41/41 4/4/4 42/42/42
f 4/4/4 41/41/41 39/39/39
f 2/2/2 38/38/38 43/43/43
f 7/7/7 4/4/4 10/10/10
f 4/4/4 39/39/39 8/8/8
f 40/40/40 41/41/41 44/44/44
f 41/41/41 40/40/40 39/39/39
f 12/12/12 8/8/8 39/39/39
f 12/12/12 39/39/39 24/24/24
f 7/7/7 1/1/1 5/5/5
f 2/2/2 28/28/28 45/45/45
f 2/2/2 43/43/43 28/28/28
f 46/46/46 9/9/9 47/47/47
f 9/9/9 46/46/46 10/10/10
f 47/47/47 34/34/34 48/48/48
f 34/34/34 47/47/47 9/9/9
f 13/13/13 36/36/36 11/11/11
f 36/36/36 13/13/13 37/37/37
f 43/43/43 7/7/7 46/46/46
f 30/30/30 45/45/45 28/28/28
f 45/45/45 30/30/30 31/31/31
f 15/15/15 13/13/13 12/12/12
f 18/18/18 43/43/43 19/19/19
f 18/18/18 29/29/29 43/43/43
f 43/43/43 29/29/29 28/28/28
f 46/46/46 19/19/19 43/43/43
f 7/7/7 10/10/10 46/46/46
f 49/49/49 48/48/48 50/50/50
f 48/48/48 49/49/49 47/47/47
f 51/51/51 47/47/47 49/49/49
f 47/47/47 51/51/51 52/52/52
f 46/46/46 47/47/47 19/19/19
f 47/47/47 17/17/17 19/19/19
f 17/17/17 47/47/47 52/52/52
f 10/10/10 4/4/4 8/8/8
f 4/4/4 6/6/6 42/42/42
f 43/43/43 38/38/38 7/7/7
f 38/38/38 1/1/1 7/7/7
f 53/53/53 54/54/54 55/55/55
f 56/56/56 57/57/57 58/58/58
f 57/57/57 56/56/56 59/59/59
f 60/60/60 61/61/61 62/62/62
f 61/61/61 60/60/60 63/63/63
f 64/64/64 62/62/62 65/65/65
f 62/62/62 64/64/64 60/60/60
f 66/66/66 67/67/67 65/65/65
f 67/67/67 66/66/66 68/68/68
f 69/69/69 70/70/70 71/71/71
f 70/70/70 69/69/69 72/72/72
f 73/73/73 74/74/74 75/75/75
f 74/74/74 73/73/73 76/76/76
f 68/68/68 77/77/77 78/78/78
f 77/77/77 68/68/68 66/66/66
f 79/79/79 80/80/80 81/81/81
f 80/80/80 79/79/79 82/82/82
f 83/83/83 79/79/79 81/81/81
f 79/79/79 83/83/83 84/84/84
f 85/85/85 75/75/75 64/64/64
f 75/75/75 85/85/85 73/73/73
f 86/86/86 62/62/62 61/61/61
f 87/87/87 88/88/88 89/89/89
f 55/55/55 90/90/90 53/53/53
f 74/74/74 91/91/91 75/75/75
f 91/91/91 74/74/74 92/92/92
f 93/93/93 57/57/57 91/91/91
f 57/57/57 93/93/93 94/94/94
f 55/55/55 95/95/95 90/90/90
f 59/59/59 63/63/63 57/57/57
f 57/57/57 60/60/60 91/91/91
f 92/92/92 93/93/93 91/91/91
f 93/93/93 92/92/92 96/96/96
f 64/64/64 91/91/91 60/60/60
f 64/64/64 75/75/75 91/91/91
f 59/59/59 56/56/56 53/53/53
f 55/55/55 97/97/97 80/80/80
f 55/55/55 80/80/80 95/95/95
f 98/98/98 61/61/61 63/63/63
f 61/61/61 98/98/98 99/99/99
f 99/99/99 86/86/86 61/61/61
f 86/86/86 99/99/99 100/100/100
f 65/65/65 89/89/89 88/88/88
f 89/89/89 65/65/65 62/62/62
f 95/95/95 98/98/98 59/59/59
f 81/81/81 97/97/97 83/83/83
f 97/97/97 81/81/81 80/80/80
f 67/67/67 64/64/64 65/65/65
f 70/70/70 72/72/72 95/95/95
f 70/70/70 95/95/95 82/82/82
f 95/95/95 80/80/80 82/82/82
f 98/98/98 95/95/95 72/72/72
f 59/59/59 98/98/98 63/63/63
f 101/101/101 100/100/100 99/99/99
f 100/100/100 101/101/101 102/102/102
f 103/103/103 99/99/99 104/104/104
f 99/99/99 103/103/103 101/101/101
f 98/98/98 72/72/72 99/99/99
f 99/99/99 69/69/69 104/104/104
f 69/69/69 99/99/99 72/72/72
f 63/63/63 60/60/60 57/57/57
f 57/57/57 94/94/94 58/58/58
f 95/95/95 59/59/59 90/90/90
f 90/90/90 59/59/59 53/53/53
