mtllib 9013002204.mtl
o 9013002204_part_0
v 0.186418384 0.00020535849 -0.175349653
v 0.216745228 -0.00242257863 -0.120771706
v 0.07198178 0.009852255 -0.05721962
v 0.0451362729 0.0129674 -0.134145975
v 0.114660785 0.00663146377 -0.185760677
v 0.0451362729 0.0129674 -0.134145975
v 0.04974187 0.136446968 -0.14371638
v 0.128319249 0.1356563 -0.195417255
v 0.114660785 0.00663146377 -0.185760677
v 0.164580569 0.213269919 -0.152611226
v 0.1960448 0.123382606 -0.176896125
v 0.08921631 0.217455536 -0.138170555
v 0.08987647 0.1975312 -0.026951788
v 0.2584343 0.0179655775 -0.0466211028
v 0.24973923 0.112573639 -0.0474639125
v 0.30134812 0.099546805 0.0396413654
v 0.30870235 -0.003957821 0.0277653355
v 0.176750124 0.1589418 0.109521247
v 0.246376783 0.152247041 0.0731350258
v 0.21867618 0.205663517 0.0239533838
v 0.160527363 0.204738647 0.05599728
v 0.123720318 0.154916748 0.0371631272
v 0.137742043 0.135370314 0.105474018
v 0.07198178 0.009852255 -0.05721962
v 0.07578728 0.134308025 -0.03434876
v 0.219388336 0.194407433 -0.0711519346
v 0.235199481 0.109089538 -0.102119178
v 0.117106855 0.00270356843 0.105768904
v 0.1557199 -0.00556678465 0.232896924
v 0.1628919 0.107212856 0.220189929
v 0.216745228 -0.00242257863 -0.120771706
v 0.186418384 0.00020535849 -0.175349653
v 0.293308675 0.10653013 0.260100335
v 0.303613245 0.02090151 0.2757508
v 0.3533565 0.007041295 0.196458265
v 0.337888569 0.09783842 0.194626421
v 0.199515373 0.1052555 0.2645702
v 0.199932933 0.007143749 0.2774209
v 0.175411746 0.282946229 -0.133287013
v 0.221748143 0.272455573 -0.05414111
v 0.09891992 0.2809832 -0.126874715
v 0.0904653743 0.272435129 -0.03528701
v 0.1979197 0.27631712 0.02872929
v 0.139639452 0.275614858 0.0441148877
v 0.0904653743 0.272435129 -0.03528701
v 0.08987647 0.1975312 -0.026951788
v 0.1557199 -0.00556678465 0.232896924
v 0.35930413 -0.004737468 0.1290071
v 0.3533565 0.007041295 0.196458265
v 0.199932933 0.007143749 0.2774209
v 0.34490183 0.0940233842 0.134364933
v 0.35930413 -0.004737468 0.1290071
v 0.206444472 0.13390246 0.199950427
v 0.2868389 0.130356684 0.165802658
v 0.102908805 0.0320645943 0.025978012
v 0.180686921 0.345038116 -0.125822425
v 0.182520658 0.4089808 -0.122743018
v 0.232431442 0.402895331 -0.05079005
v 0.227282941 0.340938359 -0.052340515
v 0.09815398 0.343813717 -0.122490905
v 0.09407613 0.409705162 -0.115318693
v 0.06996192 0.402984917 -0.028907029
v 0.07897113 0.3384848 -0.0381044522
v 0.1983642 0.3977028 0.0521686673
v 0.193335742 0.335765958 0.0355473943
v 0.07897113 0.3384848 -0.0381044522
v 0.131877869 0.333923876 0.0492818765
v 0.127084643 0.396682948 0.065583
v 0.06996192 0.402984917 -0.028907029
v 0.235122234 0.0213250015 -0.09871003
v 0.08249705 0.03416374 -0.0319516324
v 0.08249705 0.03416374 -0.0319516324
v 0.235122234 0.0213250015 -0.09871003
v 0.07578728 0.134308025 -0.03434876
v 0.102908805 0.0320645943 0.025978012
v 0.2584343 0.0179655775 -0.0466211028
v 0.30870235 -0.003957821 0.0277653355
v 0.117106855 0.00270356843 0.105768904
v 0.08249705 0.03416374 -0.0319516324
v 0.303613245 0.02090151 0.2757508
v 0.2098403 0.478302836 0.09212875
v 0.279363483 0.485020876 -0.05153048
v 0.2939786 0.5559217 -0.0491625369
v 0.213439047 0.5627019 0.10663145
v 0.19460097 0.4965293 -0.154832527
v 0.194766313 0.5703278 -0.161965922
v 0.205929279 0.40933755 0.06803288
v 0.11788547 0.4762684 0.1108012
v 0.119886711 0.4091127 0.08378325
v 0.0536834449 0.480904251 0.0416925736
v 0.1184987 0.5613126 0.125036225
v 0.0415023565 0.5531469 0.0527868
v 0.07968958 0.494258881 -0.154229641
v 0.08081734 0.568346143 -0.1591769
v 0.19117254 0.420061171 -0.139898434
v 0.251091242 0.414348036 -0.0523752645
v 0.022277832 0.484718353 -0.0554782562
v 0.0122573078 0.5548911 -0.056693133
v 0.066781655 0.411650062 0.0185082648
v 0.08752006 0.421526253 -0.136173546
v 0.0402154624 0.419786721 -0.0570275
v 0.141710043 0.5557352 -0.0104534943
v 0.213439047 0.5627019 0.10663145
v 0.2939786 0.5559217 -0.0491625369
v 0.1184987 0.5613126 0.125036225
v 0.0415023565 0.5531469 0.0527868
v 0.08081734 0.568346143 -0.1591769
v 0.0122573078 0.5548911 -0.056693133
v 0.194766313 0.5703278 -0.161965922
v 0.06996192 0.402984917 -0.028907029
v 0.0402154624 0.419786721 -0.0570275
v 0.127084643 0.396682948 0.065583
v 0.1983642 0.3977028 0.0521686673
v 0.232431442 0.402895331 -0.05079005
v 0.182520658 0.4089808 -0.122743018
v 0.09407613 0.409705162 -0.115318693
v 0.06996192 0.402984917 -0.028907029
v 0.022277832 0.484718353 -0.0554782562
v 0.0122573078 0.5548911 -0.056693133
v -0.203864157 0.00149013661 -0.165451467
v -0.13225916 0.00740954652 -0.177135646
v -0.0617858768 0.0132506751 -0.126764268
v -0.08727512 0.01016592 -0.0494429134
v -0.2332347 -0.0009268075 -0.11034333
v -0.0617858768 0.0132506751 -0.126764268
v -0.13225916 0.00740954652 -0.177135646
v -0.145286649 0.136490881 -0.187085
v -0.06574702 0.1366234 -0.136817351
v -0.1800184 0.214462191 -0.143842608
v -0.212736383 0.124828123 -0.16725418
v -0.1043716 0.2179445 -0.13087061
v -0.103070408 0.198099583 -0.0196672361
v -0.273455143 0.01975084 -0.03546531
v -0.322523534 -0.002347234 0.0395659581
v -0.314228117 0.101102069 0.0513029881
v -0.264107883 0.11429514 -0.03646834
v -0.187992021 0.15961054 0.118955247
v -0.172423452 0.205820769 0.0653863251
v -0.231124192 0.20715864 0.0343801342
v -0.25829953 0.15341036 0.08381175
v -0.136309758 0.15574117 0.0459045731
v -0.149229527 0.135764167 0.114217348
v -0.08727512 0.01016592 -0.0494429134
v -0.0897388458 0.134750724 -0.0270509813
v -0.23340407 0.196171761 -0.0613393374
v -0.250580549 0.110868163 -0.09166352
v -0.129530609 0.0029548707 0.114154063
v -0.172512129 0.107252166 0.229126036
v -0.165912941 -0.005576156 0.241710782
v -0.2332347 -0.0009268075 -0.11034333
v -0.203864157 0.00149013661 -0.165451467
v -0.3022011 0.107488766 0.2713464
v -0.347997069 0.09911646 0.206675082
v -0.3640715 0.008430822 0.208787084
v -0.3128311 0.0219341386 0.287182778
v -0.208354548 0.105550952 0.274149865
v -0.209237263 0.007443782 0.28701216
v -0.233844563 0.2748356 -0.046119146
v -0.189397886 0.284349471 -0.125697836
v -0.112841643 0.281418324 -0.120912388
v -0.102494024 0.272990227 -0.0295615438
v -0.149767354 0.277050734 0.05069679
v -0.208340108 0.278491735 0.0365881324
v -0.103070408 0.198099583 -0.0196672361
v -0.102494024 0.272990227 -0.0295615438
v -0.165912941 -0.005576156 0.241710782
v -0.209237263 0.007443782 0.28701216
v -0.3640715 0.008430822 0.208787084
v -0.3712992 -0.00330139 0.141452923
v -0.3712992 -0.00330139 0.141452923
v -0.356106341 0.09535488 0.146547928
v -0.216227546 0.1342502 0.209661543
v -0.297238827 0.1312749 0.176947176
v -0.116569042 0.0327456743 0.0343593135
v -0.19340758 0.346549332 -0.119019367
v -0.238355383 0.34339726 -0.044471778
v -0.242579237 0.4054274 -0.04305669
v -0.194254264 0.4105229 -0.116159938
v -0.110845804 0.344148427 -0.117577054
v -0.105661094 0.410000771 -0.110769458
v -0.07966483 0.403258264 -0.0249069724
v -0.08980574 0.338860571 -0.0336317867
v -0.202473626 0.33806628 0.0426346548
v -0.206231192 0.4001312 0.0591138
v -0.08980574 0.338860571 -0.0336317867
v -0.07966483 0.403258264 -0.0249069724
v -0.1346839 0.3981348 0.0708935261
v -0.140748829 0.335390478 0.0549631119
v -0.09716709 0.0345324427 -0.0240013916
v -0.2510487 0.0229486823 -0.0879602656
v -0.09716709 0.0345324427 -0.0240013916
v -0.2510487 0.0229486823 -0.0879602656
v -0.0897388458 0.134750724 -0.0270509813
v -0.116569042 0.0327456743 0.0343593135
v -0.129530609 0.0029548707 0.114154063
v -0.322523534 -0.002347234 0.0395659581
v -0.273455143 0.01975084 -0.03546531
v -0.09716709 0.0345324427 -0.0240013916
v -0.3128311 0.0219341386 0.287182778
v -0.2156301 0.481037617 0.0989970937
v -0.2176856 0.565533638 0.113233693
v -0.301875353 0.5593297 -0.0406427532
v -0.2883352 0.4882173 -0.04305575
v -0.205814585 0.4981153 -0.148321182
v -0.20508723 0.571881235 -0.155750275
v -0.213262066 0.411933184 0.07509973
v -0.12689212 0.410527766 0.08887295
v -0.123308763 0.477748632 0.11556337
v -0.0606531352 0.481199473 0.0449817963
v -0.0471870154 0.553300261 0.0554985143
v -0.12237674 0.5628457 0.129461244
v -0.09096396 0.494191736 -0.150345221
v -0.09114429 0.5682685 -0.155567855
v -0.203138843 0.421662331 -0.133157462
v -0.261104643 0.417141736 -0.04426019
v -0.0204453319 0.5542118 -0.05462971
v -0.03143899 0.484195828 -0.0528986864
v -0.07527129 0.412054628 0.0223871
v -0.0503353626 0.419524044 -0.05377082
v -0.09941776 0.4216478 -0.131817326
v -0.148775145 0.557094634 -0.00543645257
v -0.301875353 0.5593297 -0.0406427532
v -0.2176856 0.565533638 0.113233693
v -0.12237674 0.5628457 0.129461244
v -0.0471870154 0.553300261 0.0554985143
v -0.0204453319 0.5542118 -0.05462971
v -0.09114429 0.5682685 -0.155567855
v -0.20508723 0.571881235 -0.155750275
v -0.07966483 0.403258264 -0.0249069724
v -0.0503353626 0.419524044 -0.05377082
v -0.206231192 0.4001312 0.0591138
v -0.1346839 0.3981348 0.0708935261
v -0.194254264 0.4105229 -0.116159938
v -0.242579237 0.4054274 -0.04305669
v -0.105661094 0.410000771 -0.110769458
v -0.07966483 0.403258264 -0.0249069724
v -0.03143899 0.484195828 -0.0528986864
v -0.0204453319 0.5542118 -0.05462971
vt 0.8987987 0.309129
vt 0.851105154 0.3002702
vt 0.910698831 0.173093081
vt 0.9692111 0.203161955
vt 0.9540835 0.277037978
vt 0.7969837 0.3226837
vt 0.7666818 0.4423864
vt 0.666589141 0.428408265
vt 0.696517944 0.303554535
vt 0.6082923 0.494747877
vt 0.596052349 0.399080753
vt 0.7133871 0.52183187
vt 0.855077863 0.5464088
vt 0.535393357 0.2589985
vt 0.462201148 0.333348632
vt 0.423106164 0.2365942
vt 0.505414546 0.168448865
vt 0.234496012 0.2985028
vt 0.329992563 0.285407364
vt 0.325570583 0.397578478
vt 0.247961938 0.40265286
vt 0.1570354 0.379715621
vt 0.165827245 0.308181167
vt 0.8829547 0.340062737
vt 0.8818693 0.468482137
vt 0.480855 0.452046752
vt 0.5237962 0.369323075
vt 0.0407295041 0.254288435
vt 0.06774339 0.128888249
vt 0.161743522 0.1792978
vt 0.588326633 0.269469738
vt 0.6336301 0.283207178
vt 0.2707716 0.0900977254
vt 0.256119728 0.0184142
vt 0.3416915 0.0302969217
vt 0.3340645 0.105307579
vt 0.186778277 0.131745458
vt 0.157304138 0.06457394
vt 0.5853727 0.573151767
vt 0.4592117 0.5353811
vt 0.698103368 0.595394552
vt 0.817151666 0.617341
vt 0.3315277 0.511463642
vt 0.2594634 0.5186559
vt 0.13807559 0.541394353
vt 0.115114674 0.472166061
vt 0.643049657 0.0325757265
vt 0.579205 0.221345484
vt 0.5365395 0.176329136
vt 0.5828124 0.03241986
vt 0.379677057 0.140772641
vt 0.436600268 0.06353402
vt 0.22687605 0.194518209
vt 0.315949649 0.1755547
vt 0.0414880365 0.3357339
vt 0.565630436 0.632295549
vt 0.5521052 0.688532233
vt 0.444276333 0.6593683
vt 0.447368383 0.597516
vt 0.6767969 0.663688064
vt 0.659615934 0.7186525
vt 0.7689444 0.7397773
vt 0.79319036 0.686509848
vt 0.336809218 0.6407536
vt 0.3333711 0.584606
vt 0.143296912 0.6101737
vt 0.26472944 0.5884174
vt 0.2584531 0.6400298
vt 0.141225487 0.6599443
vt 0.817509651 0.292332649
vt 0.8799426 0.1586901
vt 0.908541858 0.3751948
vt 0.557463348 0.290309429
vt 0.07984184 0.428783417
vt 0.8202019 0.130801916
vt 0.75968343 0.268966317
vt 0.676555 0.251763
vt 0.754149 0.0878523
vt 0.009642021 0.388556123
vt 0.513798237 0.09725368
vt 0.361638218 0.882478
vt 0.4680298 0.883663833
vt 0.471847266 0.9794842
vt 0.365409225 0.9822649
vt 0.6135784 0.884746
vt 0.608084857 0.982961237
vt 0.358967543 0.7776216
vt 0.222044051 0.8822412
vt 0.222018749 0.7830451
vt 0.131569356 0.8825202
vt 0.220371887 0.98291117
vt 0.125238508 0.9785368
vt 0.7218566 0.8844862
vt 0.7231189 0.984980464
vt 0.6131407 0.7776216
vt 0.4708061 0.780022264
vt 0.8588601 0.884613156
vt 0.8539682 0.983773768
vt 0.142184958 0.78328824
vt 0.7221773 0.7793338
vt 0.8620341 0.7776216
vt 0.9564102 0.824318469
vt 0.981915236 0.8452985
vt 0.9651676 0.856596053
vt 0.9895075 0.8104523
vt 0.9615485 0.802547
vt 0.928078 0.8103042
vt 0.945923269 0.7940595
vt 0.928059638 0.842754066
vt 0.07825257 0.7573771
vt 0.0513867475 0.7776216
vt 0.2230275 0.755890846
vt 0.3563704 0.755890846
vt 0.4752526 0.7613684
vt 0.6147907 0.752189338
vt 0.7270211 0.7546546
vt 0.8676156 0.7570341
vt 0.04859823 0.8839169
vt 0.0427419245 0.9802528
vt 0.8987987 0.309129
vt 0.9540835 0.277037978
vt 0.9692111 0.203161955
vt 0.910698831 0.173093081
vt 0.851105154 0.3002702
vt 0.7969837 0.3226837
vt 0.696517944 0.303554535
vt 0.666589141 0.428408265
vt 0.7666818 0.4423864
vt 0.6082923 0.494747877
vt 0.596052349 0.399080753
vt 0.7133871 0.52183187
vt 0.855077863 0.5464088
vt 0.535393357 0.2589985
vt 0.505414546 0.168448865
vt 0.423106164 0.2365942
vt 0.462201148 0.333348632
vt 0.234496012 0.2985028
vt 0.247961938 0.40265286
vt 0.325570583 0.397578478
vt 0.329992563 0.285407364
vt 0.1570354 0.379715621
vt 0.165827245 0.308181167
vt 0.8829547 0.340062737
vt 0.8818693 0.468482137
vt 0.480855 0.452046752
vt 0.5237962 0.369323075
vt 0.0407295041 0.254288435
vt 0.161743522 0.1792978
vt 0.06774339 0.128888249
vt 0.588326633 0.269469738
vt 0.6336301 0.283207178
vt 0.2707716 0.0900977254
vt 0.3340645 0.105307579
vt 0.3416915 0.0302969217
vt 0.256119728 0.0184142
vt 0.186778277 0.131745458
vt 0.157304138 0.06457394
vt 0.4592117 0.5353811
vt 0.5853727 0.573151767
vt 0.698103368 0.595394552
vt 0.817151666 0.617341
vt 0.2594634 0.5186559
vt 0.3315277 0.511463642
vt 0.115114674 0.472166061
vt 0.13807559 0.541394353
vt 0.643049657 0.0325757265
vt 0.5828124 0.03241986
vt 0.5365395 0.176329136
vt 0.579205 0.221345484
vt 0.436600268 0.06353402
vt 0.379677057 0.140772641
vt 0.22687605 0.194518209
vt 0.315949649 0.1755547
vt 0.0414880365 0.3357339
vt 0.565630436 0.632295549
vt 0.447368383 0.597516
vt 0.444276333 0.6593683
vt 0.5521052 0.688532233
vt 0.6767969 0.663688064
vt 0.659615934 0.7186525
vt 0.7689444 0.7397773
vt 0.79319036 0.686509848
vt 0.3333711 0.584606
vt 0.336809218 0.6407536
vt 0.143296912 0.6101737
vt 0.141225487 0.6599443
vt 0.2584531 0.6400298
vt 0.26472944 0.5884174
vt 0.8799426 0.1586901
vt 0.817509651 0.292332649
vt 0.908541858 0.3751948
vt 0.557463348 0.290309429
vt 0.07984184 0.428783417
vt 0.8202019 0.130801916
vt 0.754149 0.0878523
vt 0.676555 0.251763
vt 0.75968343 0.268966317
vt 0.009642021 0.388556123
vt 0.513798237 0.09725368
vt 0.361638218 0.882478
vt 0.365409225 0.9822649
vt 0.471847266 0.9794842
vt 0.4680298 0.883663833
vt 0.6135784 0.884746
vt 0.608084857 0.982961237
vt 0.358967543 0.7776216
vt 0.222018749 0.7830451
vt 0.222044051 0.8822412
vt 0.131569356 0.8825202
vt 0.125238508 0.9785368
vt 0.220371887 0.98291117
vt 0.7218566 0.8844862
vt 0.7231189 0.984980464
vt 0.6131407 0.7776216
vt 0.4708061 0.780022264
vt 0.8539682 0.983773768
vt 0.8588601 0.884613156
vt 0.142184958 0.78328824
vt 0.8620341 0.7776216
vt 0.7221773 0.7793338
vt 0.9564102 0.824318469
vt 0.9651676 0.856596053
vt 0.981915236 0.8452985
vt 0.9895075 0.8104523
vt 0.9615485 0.802547
vt 0.945923269 0.7940595
vt 0.928078 0.8103042
vt 0.928059638 0.842754066
vt 0.07825257 0.7573771
vt 0.0513867475 0.7776216
vt 0.3563704 0.755890846
vt 0.2230275 0.755890846
vt 0.6147907 0.752189338
vt 0.4752526 0.7613684
vt 0.7270211 0.7546546
vt 0.8676156 0.7570341
vt 0.04859823 0.8839169
vt 0.0427419245 0.9802528
vn 0.398061365 -0.666769445 -0.6300521
vn 0.616509557 -0.7861634 -0.04316347
vn -0.531181335 -0.7057331 0.468814671
vn -0.8080527 -0.5443594 -0.225219011
vn -0.248322651 -0.637011647 -0.7297616
vn -0.8080527 -0.5443594 -0.225219011
vn -0.910742342 0.176872313 -0.3731817
vn -0.135225773 0.1903537 -0.9723577
vn -0.248322651 -0.637011647 -0.7297616
vn 0.3891439 0.369556963 -0.843797743
vn 0.6390882 0.156812146 -0.752978265
vn -0.713880837 0.383549154 -0.585887551
vn -0.909375548 0.159706041 0.384096384
vn 0.5776704 -0.6889463 -0.437778383
vn 0.914937139 0.238419771 -0.3256472
vn 0.843439758 0.421528876 -0.3330507
vn 0.5876914 -0.6813236 -0.436367959
vn -0.122168854 0.8708537 0.476118177
vn 0.537957 0.807184 0.243014976
vn 0.8165207 0.4463177 0.3661891
vn -0.285273045 0.477267772 0.8311647
vn -0.857155561 0.258955479 0.445226222
vn -0.824758649 0.440557361 0.354517072
vn -0.531181335 -0.7057331 0.468814671
vn -0.9267944 0.0841279849 0.366025329
vn 0.9366243 0.213113964 -0.2780601
vn 0.9220282 0.114669286 -0.369749933
vn -0.7565415 -0.651647031 0.0547825
vn -0.634006739 -0.650666237 0.4179341
vn -0.7448394 0.498628676 0.443377674
vn 0.616509557 -0.7861634 -0.04316347
vn 0.398061365 -0.666769445 -0.6300521
vn 0.4025931 0.5978843 0.693147242
vn 0.452879071 -0.394497335 0.7995451
vn 0.7788775 -0.528077 0.3383557
vn 0.801676631 0.5368394 0.262903
vn -0.331627876 0.5330146 0.778407633
vn -0.2509399 -0.516523 0.8186777
vn 0.4667942 0.09749312 -0.8789757
vn 0.987743735 0.00641685 -0.15595223
vn -0.67883265 0.123685077 -0.723801255
vn -0.9629443 -0.06483619 0.261790931
vn 0.696784258 0.08786857 0.711878359
vn -0.4105622 -0.06878198 0.9092347
vn -0.9629443 -0.06483619 0.261790931
vn -0.909375548 0.159706041 0.384096384
vn -0.634006739 -0.650666237 0.4179341
vn 0.7798032 -0.6133529 -0.1253202
vn 0.7788775 -0.528077 0.3383557
vn -0.2509399 -0.516523 0.8186777
vn 0.839777648 0.521333158 -0.151608676
vn 0.7798032 -0.6133529 -0.1253202
vn -0.1010913 0.9444153 0.3128263
vn 0.353138864 0.9313498 0.088771984
vn -0.780406833 -0.6118643 0.128791466
vn 0.4647533 0.0338865928 -0.884791553
vn 0.336840779 -0.578962445 -0.742523253
vn 0.8002953 -0.585358739 -0.12993288
vn 0.992255747 -0.061716605 -0.107794367
vn -0.629740238 0.0310458578 -0.776185155
vn -0.50694263 -0.6138173 -0.6051756
vn -0.7699443 -0.631027341 0.09481698
vn -0.9789896 -0.140521139 0.147760659
vn 0.557059765 -0.618353069 0.554368
vn 0.6568491 -0.126074284 0.7434074
vn -0.9789896 -0.140521139 0.147760659
vn -0.402476847 -0.196913227 0.8940009
vn -0.2816951 -0.681129456 0.6758036
vn -0.7699443 -0.631027341 0.09481698
vn 0.7723376 -0.5821254 -0.254213661
vn -0.6651863 -0.5768358 0.474117756
vn -0.6651863 -0.5768358 0.474117756
vn 0.7723376 -0.5821254 -0.254213661
vn -0.9267944 0.0841279849 0.366025329
vn -0.780406833 -0.6118643 0.128791466
vn 0.5776704 -0.6889463 -0.437778383
vn 0.5876914 -0.6813236 -0.436367959
vn -0.7565415 -0.651647031 0.0547825
vn -0.6651863 -0.5768358 0.474117756
vn 0.452879071 -0.394497335 0.7995451
vn 0.5976361 -0.242654175 0.764166236
vn 0.957107067 -0.26355958 -0.120343015
vn 0.85623914 0.5104662 -0.07923859
vn 0.480732 0.5830857 0.6549105
vn 0.411697626 -0.142915785 -0.9000445
vn 0.323994368 0.6323153 -0.703708053
vn 0.5683806 -0.548047543 0.61366713
vn -0.301788837 -0.2534925 0.9190566
vn -0.294644862 -0.5968971 0.7462561
vn -0.83427614 -0.244005084 0.494413584
vn -0.249454916 0.5700049 0.782858
vn -0.7159506 0.5477645 0.4328612
vn -0.501352 -0.146056384 -0.8528269
vn -0.4036934 0.623693645 -0.669356346
vn 0.360854417 -0.5374656 -0.7621777
vn 0.7995623 -0.590943336 -0.1071734
vn -0.9716466 -0.198882669 -0.127861366
vn -0.827681363 0.5504424 -0.109346926
vn -0.6911041 -0.642233253 0.331529051
vn -0.421399117 -0.559307933 -0.7138609
vn -0.804820061 -0.579727 -0.127205729
vn -0.0187476762 0.999600649 0.02114282
vn 0.480732 0.5830857 0.6549105
vn 0.85623914 0.5104662 -0.07923859
vn -0.249454916 0.5700049 0.782858
vn -0.7159506 0.5477645 0.4328612
vn -0.4036934 0.623693645 -0.669356346
vn -0.827681363 0.5504424 -0.109346926
vn 0.323994368 0.6323153 -0.703708053
vn -0.7699443 -0.631027341 0.09481698
vn -0.804820061 -0.579727 -0.127205729
vn -0.2816951 -0.681129456 0.6758036
vn 0.557059765 -0.618353069 0.554368
vn 0.8002953 -0.585358739 -0.12993288
vn 0.336840779 -0.578962445 -0.742523253
vn -0.50694263 -0.6138173 -0.6051756
vn -0.7699443 -0.631027341 0.09481698
vn -0.9716466 -0.198882669 -0.127861366
vn -0.827681363 0.5504424 -0.109346926
vn -0.41365847 -0.664898 -0.621930361
vn 0.23097752 -0.6400778 -0.732768536
vn 0.8005286 -0.549747169 -0.238604292
vn 0.53470844 -0.7096732 0.458749175
vn -0.622475147 -0.781991839 -0.0318340436
vn 0.8005286 -0.549747169 -0.238604292
vn 0.23097752 -0.6400778 -0.732768536
vn 0.118544288 0.1862473 -0.975325167
vn 0.9050834 0.168099031 -0.3905979
vn -0.40399465 0.365244865 -0.8386802
vn -0.6521423 0.159684077 -0.741088033
vn 0.708828151 0.367390454 -0.6021519
vn 0.9176429 0.152134418 0.367132962
vn -0.589902163 -0.6835209 -0.4299007
vn -0.5982842 -0.6764788 -0.429456
vn -0.846882164 0.427225828 -0.3166523
vn -0.9191905 0.245086282 -0.308255583
vn 0.134768531 0.8671256 0.479510933
vn 0.298407376 0.4843006 0.822439
vn -0.8006051 0.46305868 0.3802738
vn -0.5293584 0.8083722 0.257515162
vn 0.8667892 0.25355798 0.429400533
vn 0.8335618 0.433443278 0.3424933
vn 0.53470844 -0.7096732 0.458749175
vn 0.934338748 0.0774658844 0.347865075
vn -0.939870238 0.221750438 -0.259751141
vn -0.9282053 0.120738536 -0.3519334
vn 0.753525 -0.656307936 0.0382092036
vn 0.755867541 0.4926457 0.431235939
vn 0.636811 -0.6557711 0.405507177
vn -0.622475147 -0.781991839 -0.0318340436
vn -0.41365847 -0.664898 -0.621930361
vn -0.3859832 0.6006717 0.7001503
vn -0.7930662 0.542476237 0.277065933
vn -0.7764586 -0.5225795 0.3521686
vn -0.441384882 -0.391336381 0.807486951
vn 0.349159241 0.5306087 0.772361457
vn 0.2617831 -0.5183348 0.814124465
vn -0.989948034 0.0219043046 -0.139725223
vn -0.4839701 0.09061197 -0.8703806
vn 0.6630081 0.0976544544 -0.7422155
vn 0.9675509 -0.07817941 0.240277559
vn 0.4325914 -0.0607979447 0.8995378
vn -0.6802638 0.117877133 0.72342664
vn 0.9176429 0.152134418 0.367132962
vn 0.9675509 -0.07817941 0.240277559
vn 0.636811 -0.6557711 0.405507177
vn 0.2617831 -0.5183348 0.814124465
vn -0.7764586 -0.5225795 0.3521686
vn -0.785374 -0.6086535 -0.112820983
vn -0.785374 -0.6086535 -0.112820983
vn -0.8392797 0.526471138 -0.13578558
vn 0.112039238 0.9429454 0.3135301
vn -0.345961571 0.933213055 0.09707704
vn 0.7800359 -0.6152365 0.114140287
vn -0.4831834 0.03353119 -0.8748768
vn -0.9951993 -0.0473420732 -0.08565684
vn -0.811371 -0.5742506 -0.109148137
vn -0.3620819 -0.576832354 -0.732230246
vn 0.6111608 0.0132265044 -0.7913959
vn 0.4840514 -0.6233254 -0.614133239
vn 0.7628071 -0.6416949 0.0797061846
vn 0.9799381 -0.155484915 0.124682531
vn -0.6416601 -0.109380223 0.75914973
vn -0.5529609 -0.608176947 0.5695218
vn 0.9799381 -0.155484915 0.124682531
vn 0.7628071 -0.6416949 0.0797061846
vn 0.287379861 -0.6825757 0.6719399
vn 0.42143175 -0.196727067 0.885264754
vn 0.669424236 -0.581276059 0.46258983
vn -0.780922949 -0.5769275 -0.2394036
vn 0.669424236 -0.581276059 0.46258983
vn -0.780922949 -0.5769275 -0.2394036
vn 0.934338748 0.0774658844 0.347865075
vn 0.7800359 -0.6152365 0.114140287
vn 0.753525 -0.656307936 0.0382092036
vn -0.5982842 -0.6764788 -0.429456
vn -0.589902163 -0.6835209 -0.4299007
vn 0.669424236 -0.581276059 0.46258983
vn -0.441384882 -0.391336381 0.807486951
vn -0.5833184 -0.231147543 0.7786594
vn -0.457146555 0.592406332 0.663379
vn -0.850438237 0.522448838 -0.0616600625
vn -0.9632969 -0.250192225 -0.09727802
vn -0.434290439 -0.140347391 -0.8897721
vn -0.331004381 0.634271264 -0.6986674
vn -0.561907 -0.5374937 0.628777444
vn 0.303151131 -0.5982748 0.7417322
vn 0.319183171 -0.254362166 0.9129195
vn 0.84184587 -0.254142255 0.476137817
vn 0.7334849 0.539013445 0.414082527
vn 0.275527418 0.5692867 0.7745949
vn 0.479465127 -0.1564656 -0.8634997
vn 0.397082925 0.6152951 -0.6809825
vn -0.3859447 -0.5350681 -0.751497746
vn -0.8101946 -0.57976 -0.0863887
vn 0.8327448 0.5380448 -0.130552411
vn 0.9655021 -0.2133404 -0.1493037
vn 0.6892786 -0.6508752 0.318208247
vn 0.7932989 -0.591736257 -0.143265769
vn 0.396820158 -0.567997754 -0.7210494
vn 0.0335395634 0.9992991 0.0166241713
vn -0.850438237 0.522448838 -0.0616600625
vn -0.457146555 0.592406332 0.663379
vn 0.275527418 0.5692867 0.7745949
vn 0.7334849 0.539013445 0.414082527
vn 0.8327448 0.5380448 -0.130552411
vn 0.397082925 0.6152951 -0.6809825
vn -0.331004381 0.634271264 -0.6986674
vn 0.7628071 -0.6416949 0.0797061846
vn 0.7932989 -0.591736257 -0.143265769
vn -0.5529609 -0.608176947 0.5695218
vn 0.287379861 -0.6825757 0.6719399
vn -0.3620819 -0.576832354 -0.732230246
vn -0.811371 -0.5742506 -0.109148137
vn 0.4840514 -0.6233254 -0.614133239
vn 0.7628071 -0.6416949 0.0797061846
vn 0.9655021 -0.2133404 -0.1493037
vn 0.8327448 0.5380448 -0.130552411
usemtl 9013002204_part_0_material_0
f 1/1/1 2/2/2 3/3/3
f 1/1/1 3/3/3 4/4/4
f 1/1/1 4/4/4 5/5/5
f 6/6/6 7/7/7 8/8/8
f 8/8/8 9/9/9 6/6/6
f 10/10/10 11/11/11 8/8/8
f 7/7/7 12/12/12 8/8/8
f 7/7/7 13/13/13 12/12/12
f 14/14/14 15/15/15 16/16/16
f 16/16/16 17/17/17 14/14/14
f 18/18/18 19/19/19 20/20/20
f 20/20/20 21/21/21 18/18/18
f 22/22/22 23/23/23 21/21/21
f 24/24/24 25/25/25 7/7/7
f 7/7/7 6/6/6 24/24/24
f 26/26/26 27/27/27 11/11/11
f 28/28/28 29/29/29 30/30/30
f 30/30/30 23/23/23 28/28/28
f 15/15/15 26/26/26 20/20/20
f 31/31/31 32/32/32 11/11/11
f 11/11/11 27/27/27 31/31/31
f 32/32/32 9/9/9 8/8/8
f 8/8/8 11/11/11 32/32/32
f 33/33/33 34/34/34 35/35/35
f 35/35/35 36/36/36 33/33/33
f 37/37/37 30/30/30 29/29/29
f 29/29/29 38/38/38 37/37/37
f 10/10/10 39/39/39 40/40/40
f 40/40/40 26/26/26 10/10/10
f 12/12/12 41/41/41 39/39/39
f 39/39/39 10/10/10 12/12/12
f 12/12/12 13/13/13 42/42/42
f 42/42/42 41/41/41 12/12/12
f 21/21/21 20/20/20 43/43/43
f 43/43/43 44/44/44 21/21/21
f 21/21/21 44/44/44 45/45/45
f 45/45/45 46/46/46 21/21/21
f 47/47/47 48/48/48 49/49/49
f 49/49/49 50/50/50 47/47/47
f 17/17/17 16/16/16 51/51/51
f 51/51/51 52/52/52 17/17/17
f 53/53/53 54/54/54 19/19/19
f 19/19/19 18/18/18 53/53/53
f 18/18/18 23/23/23 30/30/30
f 30/30/30 53/53/53 18/18/18
f 28/28/28 23/23/23 22/22/22
f 22/22/22 55/55/55 28/28/28
f 56/56/56 57/57/57 58/58/58
f 58/58/58 59/59/59 56/56/56
f 60/60/60 61/61/61 57/57/57
f 57/57/57 56/56/56 60/60/60
f 62/62/62 61/61/61 60/60/60
f 60/60/60 63/63/63 62/62/62
f 58/58/58 64/64/64 65/65/65
f 65/65/65 59/59/59 58/58/58
f 66/66/66 67/67/67 68/68/68
f 68/68/68 69/69/69 66/66/66
f 12/12/12 10/10/10 8/8/8
f 7/7/7 25/25/25 13/13/13
f 3/3/3 2/2/2 70/70/70
f 70/70/70 71/71/71 3/3/3
f 24/24/24 72/72/72 25/25/25
f 27/27/27 73/73/73 31/31/31
f 26/26/26 15/15/15 27/27/27
f 74/74/74 22/22/22 46/46/46
f 75/75/75 76/76/76 77/77/77
f 77/77/77 78/78/78 75/75/75
f 10/10/10 26/26/26 11/11/11
f 71/71/71 70/70/70 76/76/76
f 76/76/76 75/75/75 71/71/71
f 74/74/74 79/79/79 55/55/55
f 55/55/55 22/22/22 74/74/74
f 73/73/73 27/27/27 15/15/15
f 15/15/15 14/14/14 73/73/73
f 33/33/33 37/37/37 38/38/38
f 38/38/38 34/34/34 33/33/33
f 53/53/53 33/33/33 54/54/54
f 37/37/37 33/33/33 53/53/53
f 30/30/30 37/37/37 53/53/53
f 51/51/51 36/36/36 35/35/35
f 35/35/35 52/52/52 51/51/51
f 50/50/50 49/49/49 80/80/80
f 19/19/19 16/16/16 20/20/20
f 20/20/20 26/26/26 40/40/40
f 40/40/40 43/43/43 20/20/20
f 54/54/54 51/51/51 16/16/16
f 16/16/16 19/19/19 54/54/54
f 68/68/68 67/67/67 65/65/65
f 65/65/65 64/64/64 68/68/68
f 33/33/33 36/36/36 54/54/54
f 78/78/78 77/77/77 48/48/48
f 48/48/48 47/47/47 78/78/78
f 54/54/54 36/36/36 51/51/51
f 81/81/81 82/82/82 83/83/83
f 83/83/83 84/84/84 81/81/81
f 85/85/85 86/86/86 83/83/83
f 83/83/83 82/82/82 85/85/85
f 87/87/87 81/81/81 88/88/88
f 88/88/88 89/89/89 87/87/87
f 90/90/90 88/88/88 91/91/91
f 91/91/91 92/92/92 90/90/90
f 93/93/93 94/94/94 86/86/86
f 86/86/86 85/85/85 93/93/93
f 95/95/95 85/85/85 82/82/82
f 82/82/82 96/96/96 95/95/95
f 94/94/94 93/93/93 97/97/97
f 97/97/97 98/98/98 94/94/94
f 88/88/88 81/81/81 84/84/84
f 84/84/84 91/91/91 88/88/88
f 90/90/90 99/99/99 89/89/89
f 89/89/89 88/88/88 90/90/90
f 93/93/93 100/100/100 101/101/101
f 101/101/101 97/97/97 93/93/93
f 95/95/95 100/100/100 93/93/93
f 93/93/93 85/85/85 95/95/95
f 81/81/81 87/87/87 96/96/96
f 96/96/96 82/82/82 81/81/81
f 102/102/102 103/103/103 104/104/104
f 102/102/102 105/105/105 103/103/103
f 102/102/102 106/106/106 105/105/105
f 102/102/102 107/107/107 108/108/108
f 102/102/102 109/109/109 107/107/107
f 102/102/102 104/104/104 109/109/109
f 110/110/110 99/99/99 111/111/111
f 87/87/87 89/89/89 112/112/112
f 112/112/112 113/113/113 87/87/87
f 95/95/95 96/96/96 114/114/114
f 114/114/114 115/115/115 95/95/95
f 100/100/100 95/95/95 115/115/115
f 115/115/115 116/116/116 100/100/100
f 101/101/101 100/100/100 116/116/116
f 116/116/116 117/117/117 101/101/101
f 87/87/87 113/113/113 114/114/114
f 114/114/114 96/96/96 87/87/87
f 118/118/118 90/90/90 92/92/92
f 92/92/92 119/119/119 118/118/118
f 99/99/99 90/90/90 118/118/118
f 118/118/118 111/111/111 99/99/99
f 102/102/102 108/108/108 106/106/106
f 110/110/110 112/112/112 99/99/99
f 23/23/23 18/18/18 21/21/21
f 16/16/16 15/15/15 20/20/20
f 112/112/112 89/89/89 99/99/99
f 39/39/39 56/56/56 59/59/59
f 59/59/59 40/40/40 39/39/39
f 41/41/41 60/60/60 56/56/56
f 56/56/56 39/39/39 41/41/41
f 63/63/63 60/60/60 41/41/41
f 41/41/41 42/42/42 63/63/63
f 65/65/65 67/67/67 44/44/44
f 44/44/44 43/43/43 65/65/65
f 67/67/67 66/66/66 45/45/45
f 45/45/45 44/44/44 67/67/67
f 59/59/59 65/65/65 43/43/43
f 43/43/43 40/40/40 59/59/59
f 46/46/46 22/22/22 21/21/21
f 120/120/120 121/121/121 122/122/122
f 120/120/120 122/122/122 123/123/123
f 120/120/120 123/123/123 124/124/124
f 125/125/125 126/126/126 127/127/127
f 127/127/127 128/128/128 125/125/125
f 129/129/129 127/127/127 130/130/130
f 128/128/128 127/127/127 131/131/131
f 128/128/128 131/131/131 132/132/132
f 133/133/133 134/134/134 135/135/135
f 135/135/135 136/136/136 133/133/133
f 137/137/137 138/138/138 139/139/139
f 139/139/139 140/140/140 137/137/137
f 141/141/141 138/138/138 142/142/142
f 143/143/143 125/125/125 128/128/128
f 128/128/128 144/144/144 143/143/143
f 145/145/145 130/130/130 146/146/146
f 147/147/147 142/142/142 148/148/148
f 148/148/148 149/149/149 147/147/147
f 136/136/136 139/139/139 145/145/145
f 150/150/150 146/146/146 130/130/130
f 130/130/130 151/151/151 150/150/150
f 151/151/151 130/130/130 127/127/127
f 127/127/127 126/126/126 151/151/151
f 152/152/152 153/153/153 154/154/154
f 154/154/154 155/155/155 152/152/152
f 156/156/156 157/157/157 149/149/149
f 149/149/149 148/148/148 156/156/156
f 129/129/129 145/145/145 158/158/158
f 158/158/158 159/159/159 129/129/129
f 131/131/131 129/129/129 159/159/159
f 159/159/159 160/160/160 131/131/131
f 131/131/131 160/160/160 161/161/161
f 161/161/161 132/132/132 131/131/131
f 138/138/138 162/162/162 163/163/163
f 163/163/163 139/139/139 138/138/138
f 138/138/138 164/164/164 165/165/165
f 165/165/165 162/162/162 138/138/138
f 166/166/166 167/167/167 168/168/168
f 168/168/168 169/169/169 166/166/166
f 134/134/134 170/170/170 171/171/171
f 171/171/171 135/135/135 134/134/134
f 172/172/172 137/137/137 140/140/140
f 140/140/140 173/173/173 172/172/172
f 137/137/137 172/172/172 148/148/148
f 148/148/148 142/142/142 137/137/137
f 147/147/147 174/174/174 141/141/141
f 141/141/141 142/142/142 147/147/147
f 175/175/175 176/176/176 177/177/177
f 177/177/177 178/178/178 175/175/175
f 179/179/179 175/175/175 178/178/178
f 178/178/178 180/180/180 179/179/179
f 181/181/181 182/182/182 179/179/179
f 179/179/179 180/180/180 181/181/181
f 177/177/177 176/176/176 183/183/183
f 183/183/183 184/184/184 177/177/177
f 185/185/185 186/186/186 187/187/187
f 187/187/187 188/188/188 185/185/185
f 131/131/131 127/127/127 129/129/129
f 128/128/128 132/132/132 144/144/144
f 123/123/123 189/189/189 190/190/190
f 190/190/190 124/124/124 123/123/123
f 143/143/143 144/144/144 191/191/191
f 146/146/146 150/150/150 192/192/192
f 145/145/145 146/146/146 136/136/136
f 193/193/193 164/164/164 141/141/141
f 194/194/194 195/195/195 196/196/196
f 196/196/196 197/197/197 194/194/194
f 129/129/129 130/130/130 145/145/145
f 189/189/189 194/194/194 197/197/197
f 197/197/197 190/190/190 189/189/189
f 193/193/193 141/141/141 174/174/174
f 174/174/174 198/198/198 193/193/193
f 192/192/192 133/133/133 136/136/136
f 136/136/136 146/146/146 192/192/192
f 152/152/152 155/155/155 157/157/157
f 157/157/157 156/156/156 152/152/152
f 172/172/172 173/173/173 152/152/152
f 156/156/156 172/172/172 152/152/152
f 148/148/148 172/172/172 156/156/156
f 171/171/171 170/170/170 154/154/154
f 154/154/154 153/153/153 171/171/171
f 167/167/167 199/199/199 168/168/168
f 140/140/140 139/139/139 135/135/135
f 139/139/139 163/163/163 158/158/158
f 158/158/158 145/145/145 139/139/139
f 173/173/173 140/140/140 135/135/135
f 135/135/135 171/171/171 173/173/173
f 187/187/187 184/184/184 183/183/183
f 183/183/183 188/188/188 187/187/187
f 152/152/152 173/173/173 153/153/153
f 195/195/195 166/166/166 169/169/169
f 169/169/169 196/196/196 195/195/195
f 173/173/173 171/171/171 153/153/153
f 200/200/200 201/201/201 202/202/202
f 202/202/202 203/203/203 200/200/200
f 204/204/204 203/203/203 202/202/202
f 202/202/202 205/205/205 204/204/204
f 206/206/206 207/207/207 208/208/208
f 208/208/208 200/200/200 206/206/206
f 209/209/209 210/210/210 211/211/211
f 211/211/211 208/208/208 209/209/209
f 212/212/212 204/204/204 205/205/205
f 205/205/205 213/213/213 212/212/212
f 214/214/214 215/215/215 203/203/203
f 203/203/203 204/204/204 214/214/214
f 213/213/213 216/216/216 217/217/217
f 217/217/217 212/212/212 213/213/213
f 208/208/208 211/211/211 201/201/201
f 201/201/201 200/200/200 208/208/208
f 209/209/209 208/208/208 207/207/207
f 207/207/207 218/218/218 209/209/209
f 212/212/212 217/217/217 219/219/219
f 219/219/219 220/220/220 212/212/212
f 214/214/214 204/204/204 212/212/212
f 212/212/212 220/220/220 214/214/214
f 200/200/200 203/203/203 215/215/215
f 215/215/215 206/206/206 200/200/200
f 221/221/221 222/222/222 223/223/223
f 221/221/221 223/223/223 224/224/224
f 221/221/221 224/224/224 225/225/225
f 221/221/221 226/226/226 227/227/227
f 221/221/221 227/227/227 228/228/228
f 221/221/221 228/228/228 222/222/222
f 229/229/229 230/230/230 218/218/218
f 206/206/206 231/231/231 232/232/232
f 232/232/232 207/207/207 206/206/206
f 214/214/214 233/233/233 234/234/234
f 234/234/234 215/215/215 214/214/214
f 220/220/220 235/235/235 233/233/233
f 233/233/233 214/214/214 220/220/220
f 219/219/219 236/236/236 235/235/235
f 235/235/235 220/220/220 219/219/219
f 206/206/206 215/215/215 234/234/234
f 234/234/234 231/231/231 206/206/206
f 237/237/237 238/238/238 210/210/210
f 210/210/210 209/209/209 237/237/237
f 218/218/218 230/230/230 237/237/237
f 237/237/237 209/209/209 218/218/218
f 221/221/221 225/225/225 226/226/226
f 229/229/229 218/218/218 232/232/232
f 142/142/142 138/138/138 137/137/137
f 135/135/135 139/139/139 136/136/136
f 232/232/232 218/218/218 207/207/207
f 159/159/159 158/158/158 176/176/176
f 176/176/176 175/175/175 159/159/159
f 160/160/160 159/159/159 175/175/175
f 175/175/175 179/179/179 160/160/160
f 182/182/182 161/161/161 160/160/160
f 160/160/160 179/179/179 182/182/182
f 183/183/183 163/163/163 162/162/162
f 162/162/162 188/188/188 183/183/183
f 188/188/188 162/162/162 165/165/165
f 165/165/165 185/185/185 188/188/188
f 176/176/176 158/158/158 163/163/163
f 163/163/163 183/183/183 176/176/176
f 164/164/164 138/138/138 141/141/141
