mtllib 9013002203.mtl
o 9013002203_part_0
v 0.37206316 1.23903286 -0.0404029749
v 0.410600424 1.23967409 -0.11908529
v 0.40008688 1.31051588 -0.131405264
v 0.354176134 1.31084967 -0.048005823
v 0.3492252 1.07617474 -0.147672728
v 0.298236579 1.06823027 -0.0940685347
v 0.3169189 1.11974192 -0.161477834
v 0.3705171 1.20920765 -0.208241016
v 0.346075833 1.28101063 -0.226373583
v 0.326756954 1.14881372 -0.0421414636
v 0.294418365 1.13265 -0.05856067
v 0.33343026 1.09165215 -0.0294580255
v 0.3779578 1.08460057 -0.144295111
v 0.4083245 0.9758719 -0.134629637
v 0.4083245 0.9758719 -0.134629637
v 0.3761082 0.9802995 -0.1460912
v 0.345707744 0.811993361 -0.0202818718
v 0.3427486 0.810598731 -0.0446172357
v 0.394911617 0.910696745 -0.0520249344
v 0.413538277 0.920518637 -0.0219005514
v 0.378645718 0.9350385 -0.06742095
v 0.3342795 0.988885045 -0.0300468262
v 0.368876725 0.944052935 -0.1427063
v 0.3811354 0.9225022 -0.00903700851
v 0.3301538 0.82979 -0.009990787
v 0.30935 1.02750182 0.008343093
v 0.297323674 0.9314835 0.0366240367
v 0.347257644 1.00202644 0.00337613677
v 0.3301538 0.82979 -0.009990787
v 0.3811354 0.9225022 -0.00903700851
v 0.333293051 0.8220949 -0.0455993563
v 0.3427486 0.810598731 -0.0446172357
v 0.345707744 0.811993361 -0.0202818718
v 0.3342795 0.988885045 -0.0300468262
v 0.275601238 0.9169911 0.0114958715
v 0.2785312 1.02355015 -0.04317643
v 0.2649196 0.9292929 0.032619454
v 0.30935 1.02750182 0.008343093
v 0.2649196 0.9292929 0.032619454
v 0.275601238 0.9169911 0.0114958715
v 0.421692431 0.97497654 -0.055338677
v 0.3871136 0.9329884 -0.1316775
v 0.380895853 0.981368 -0.0230933428
v 0.298122972 0.8312456 -0.124763988
v 0.285613149 0.840843737 -0.0603139326
v 0.298122972 0.8312456 -0.124763988
v 0.307649463 0.827660739 -0.06401601
v 0.307649463 0.827660739 -0.06401601
v 0.378645718 0.9350385 -0.06742095
v 0.285613149 0.840843737 -0.0603139326
v 0.333293051 0.8220949 -0.0455993563
v 0.36308524 1.13857138 -0.1528263
v 0.3203081 1.16635382 -0.00644264743
v 0.3064695 1.223207 -0.00439300342
v 0.242745444 1.19374669 -0.0402186029
v 0.2670761 1.137882 -0.0419444144
v 0.213085 1.176255 -0.101456851
v 0.242745444 1.19374669 -0.0402186029
v 0.213705108 1.26050043 -0.05318694
v 0.187783748 1.2398454 -0.115287647
v 0.291713446 1.17931378 -0.231648
v 0.254767269 1.24390364 -0.2449521
v 0.37454617 1.14783764 -0.181193
v 0.412754476 1.17496312 -0.109854847
v 0.229943976 1.1670959 -0.177430421
v 0.203734592 1.23359907 -0.191624746
v 0.2820477 1.29338 -0.0139483716
v 0.213705108 1.26050043 -0.05318694
v 0.365174681 1.15950155 -0.0539182648
v 0.294418365 1.13265 -0.05856067
v 0.281614929 1.12087739 -0.101842694
v 0.246633008 1.122481 -0.09688577
v 0.2670761 1.137882 -0.0419444144
v 0.30962038 1.12528884 -0.2003889
v 0.259705722 1.11677337 -0.1579518
v 0.376761317 1.17942953 -0.0392953567
v 0.282306969 1.268752 -0.140541971
v 0.354176134 1.31084967 -0.048005823
v 0.40008688 1.31051588 -0.131405264
v 0.213705108 1.26050043 -0.05318694
v 0.2820477 1.29338 -0.0139483716
v 0.187783748 1.2398454 -0.115287647
v 0.254767269 1.24390364 -0.2449521
v 0.203734592 1.23359907 -0.191624746
v 0.346075833 1.28101063 -0.226373583
v 0.389599562 1.156758 -0.106068976
v 0.407693952 1.0883168 -0.0918395
v 0.33343026 1.09165215 -0.0294580255
v -0.3795228 1.2493422 -0.0258433241
v -0.35947147 1.32050145 -0.0347716659
v -0.409355968 1.32146657 -0.115755387
v -0.421800822 1.2510345 -0.102496117
v -0.367736965 1.08509541 -0.133220285
v -0.33446905 1.12778485 -0.148936465
v -0.315100849 1.07333112 -0.08190308
v -0.3873419 1.21889091 -0.193405971
v -0.361302525 1.28971326 -0.213178128
v -0.337142318 1.15756416 -0.0294191521
v -0.345397085 1.1000272 -0.0159977265
v -0.306149244 1.1400305 -0.04735824
v -0.404177427 0.99201405 -0.12944442
v -0.436139584 0.990830064 -0.116564721
v -0.436139584 0.990830064 -0.116564721
v -0.395807147 1.09525585 -0.128532916
v -0.384870559 0.8222782 -0.00336465845
v -0.44179216 0.9369135 -0.00316248112
v -0.42554906 0.925138652 -0.0339588448
v -0.3831294 0.820458233 -0.027789386
v -0.407674819 0.94768 -0.05028475
v -0.4003766 0.9552541 -0.126007587
v -0.356672734 0.997140169 -0.0153975785
v -0.408818632 0.9357893 0.008275878
v -0.367218643 0.8385259 0.006068194
v -0.3264377 1.03335369 0.02149351
v -0.366831422 1.01168466 0.01841785
v -0.322612882 0.9367862 0.05019964
v -0.367218643 0.8385259 0.006068194
v -0.372649223 0.8309673 -0.0292930249
v -0.408818632 0.9357893 0.008275878
v -0.3831294 0.820458233 -0.027789386
v -0.384870559 0.8222782 -0.00336465845
v -0.356672734 0.997140169 -0.0153975785
v -0.3035289 0.920089245 0.0243087411
v -0.298435837 1.02610171 -0.0312604345
v -0.3264377 1.03335369 0.02149351
v -0.290783763 0.9314093 0.04482842
v -0.290783763 0.9314093 0.04482842
v -0.3035289 0.920089245 0.0243087411
v -0.419106036 0.9460934 -0.114093982
v -0.4460483 0.9917117 -0.03676751
v -0.403451 0.994265556 -0.00637151161
v -0.324057132 0.844870031 -0.04623178
v -0.340251952 0.8361665 -0.10998442
v -0.340251952 0.8361665 -0.10998442
v -0.347415358 0.8338871 -0.04885004
v -0.347415358 0.8338871 -0.04885004
v -0.407674819 0.94768 -0.05028475
v -0.324057132 0.844870031 -0.04623178
v -0.372649223 0.8309673 -0.0292930249
v -0.379533678 1.14821362 -0.138048843
v -0.3283768 1.17505264 0.00581428967
v -0.277775615 1.1442368 -0.032170292
v -0.251259655 1.19921541 -0.0320056677
v -0.3125629 1.23145115 0.006850026
v -0.225354552 1.1803019 -0.09455532
v -0.198915154 1.24340343 -0.110037357
v -0.2211954 1.26540244 -0.0468136333
v -0.251259655 1.19921541 -0.0320056677
v -0.3108248 1.18622208 -0.220623046
v -0.272590548 1.24949074 -0.236151546
v -0.392116636 1.15776479 -0.165845081
v -0.425662279 1.18649065 -0.09281307
v -0.21925582 1.23770022 -0.1854318
v -0.246594816 1.1718334 -0.169536591
v -0.2211954 1.26540244 -0.0468136333
v -0.286339045 1.30072379 -0.004330728
v -0.375938267 1.16954732 -0.0392686166
v -0.306149244 1.1400305 -0.04735824
v -0.2955202 1.12657034 -0.09108902
v -0.277775615 1.1442368 -0.032170292
v -0.260230541 1.126408 -0.0878635645
v -0.277158231 1.12265253 -0.148292124
v -0.328970343 1.13294625 -0.188198179
v -0.386114478 1.18990278 -0.0241791643
v -0.2937953 1.27561927 -0.1306153
v -0.409355968 1.32146657 -0.115755387
v -0.35947147 1.32050145 -0.0347716659
v -0.286339045 1.30072379 -0.004330728
v -0.2211954 1.26540244 -0.0468136333
v -0.198915154 1.24340343 -0.110037357
v -0.21925582 1.23770022 -0.1854318
v -0.272590548 1.24949074 -0.236151546
v -0.361302525 1.28971326 -0.213178128
v -0.402950525 1.16751015 -0.09011101
v -0.422816724 1.101113 -0.07475508
v -0.345397085 1.1000272 -0.0159977265
vt 0.243326813 0.8779259
vt 0.3089167 0.8779259
vt 0.3089167 0.9603464
vt 0.243326813 0.9603464
vt 0.519279063 0.677663267
vt 0.6927365 0.7113563
vt 0.5294604 0.7669122
vt 0.4481696 0.8779259
vt 0.4481696 0.9603464
vt 0.186257213 0.7669122
vt 0.105400942 0.7669122
vt 0.159367234 0.715925932
vt 0.4523554 0.685623944
vt 0.4534347 0.5496998
vt 0.4534347 0.5496998
vt 0.52995944 0.547875762
vt 0.215044379 0.2539301
vt 0.258922428 0.2472713
vt 0.2757776 0.357800066
vt 0.227532521 0.390857935
vt 0.7310369 0.36262846
vt 0.8228532 0.471020818
vt 0.5302788 0.430249929
vt 0.1949772 0.386314034
vt 0.193795636 0.279955626
vt 0.06445395 0.5912537
vt 0.0625638738 0.4133755
vt 0.143918261 0.5266687
vt 0.7866434 0.295770645
vt 0.793362 0.341649652
vt 0.7234683 0.288432717
vt 0.7365879 0.263502479
vt 0.77905035 0.266779959
vt 0.16650936 0.488619328
vt 0.07543211 0.350647151
vt 0.8781083 0.5561415
vt 0.987264931 0.397124767
vt 0.9342804 0.6304477
vt 0.0163447354 0.365433216
vt 0.914520442 0.363012552
vt 0.272141576 0.5724868
vt 0.454762816 0.415564716
vt 0.191210821 0.556380033
vt 0.555707753 0.336400628
vt 0.7201874 0.3126909
vt 0.443457 0.3156191
vt 0.2783575 0.242144585
vt 0.7177892 0.263852715
vt 0.270462275 0.284102678
vt 0.268770874 0.2498725
vt 0.267152637 0.250324726
vt 0.4481696 0.7669122
vt 0.186257213 0.790144861
vt 0.186257213 0.8779259
vt 0.105400942 0.8779259
vt 0.105400942 0.790144861
vt 0.7368794 0.8779259
vt 0.818666637 0.8779259
vt 0.818666637 0.9603464
vt 0.7368794 0.9603464
vt 0.5403793 0.8779259
vt 0.540210664 0.9603464
vt 0.4481696 0.790144861
vt 0.3089167 0.790144861
vt 0.665537953 0.8779259
vt 0.665537953 0.9603464
vt 0.186257213 0.9603464
vt 0.105400942 0.9603464
vt 0.243326813 0.7669122
vt 0.817115 0.7670342
vt 0.6891972 0.7669122
vt 0.7368794 0.790144861
vt 0.818666637 0.790144861
vt 0.54032284 0.790144861
vt 0.665537953 0.790144861
vt 0.243326813 0.790144861
vt 0.9564073 0.8242806
vt 0.9778065 0.848234355
vt 0.953166544 0.8567608
vt 0.9904022 0.811710835
vt 0.9894233 0.833613932
vt 0.968057036 0.802785158
vt 0.9247663 0.8108382
vt 0.947731 0.7950535
vt 0.9277978 0.8397272
vt 0.3089167 0.7669122
vt 0.2710945 0.709236145
vt 0.8510975 0.7288916
vt 0.243326813 0.8779259
vt 0.243326813 0.9603464
vt 0.3089167 0.9603464
vt 0.3089167 0.8779259
vt 0.519279063 0.677663267
vt 0.5294604 0.7669122
vt 0.6927365 0.7113563
vt 0.4481696 0.8779259
vt 0.4481696 0.9603464
vt 0.186257213 0.7669122
vt 0.159367234 0.715925932
vt 0.105400942 0.7669122
vt 0.52995944 0.547875762
vt 0.4534347 0.5496998
vt 0.4534347 0.5496998
vt 0.4523554 0.685623944
vt 0.215044379 0.2539301
vt 0.227532521 0.390857935
vt 0.2757776 0.357800066
vt 0.258922428 0.2472713
vt 0.7310369 0.36262846
vt 0.5302788 0.430249929
vt 0.8228532 0.471020818
vt 0.1949772 0.386314034
vt 0.193795636 0.279955626
vt 0.06445395 0.5912537
vt 0.143918261 0.5266687
vt 0.0625638738 0.4133755
vt 0.7866434 0.295770645
vt 0.7234683 0.288432717
vt 0.793362 0.341649652
vt 0.7365879 0.263502479
vt 0.77905035 0.266779959
vt 0.16650936 0.488619328
vt 0.07543211 0.350647151
vt 0.8781083 0.5561415
vt 0.9342804 0.6304477
vt 0.987264931 0.397124767
vt 0.0163447354 0.365433216
vt 0.914520442 0.363012552
vt 0.454762816 0.415564716
vt 0.272141576 0.5724868
vt 0.191210821 0.556380033
vt 0.7201874 0.3126909
vt 0.555707753 0.336400628
vt 0.443457 0.3156191
vt 0.2783575 0.242144585
vt 0.7177892 0.263852715
vt 0.270462275 0.284102678
vt 0.268770874 0.2498725
vt 0.267152637 0.250324726
vt 0.4481696 0.7669122
vt 0.186257213 0.790144861
vt 0.105400942 0.790144861
vt 0.105400942 0.8779259
vt 0.186257213 0.8779259
vt 0.7368794 0.8779259
vt 0.7368794 0.9603464
vt 0.818666637 0.9603464
vt 0.818666637 0.8779259
vt 0.5403793 0.8779259
vt 0.540210664 0.9603464
vt 0.4481696 0.790144861
vt 0.3089167 0.790144861
vt 0.665537953 0.9603464
vt 0.665537953 0.8779259
vt 0.105400942 0.9603464
vt 0.186257213 0.9603464
vt 0.243326813 0.7669122
vt 0.817115 0.7670342
vt 0.6891972 0.7669122
vt 0.818666637 0.790144861
vt 0.7368794 0.790144861
vt 0.665537953 0.790144861
vt 0.54032284 0.790144861
vt 0.243326813 0.790144861
vt 0.9564073 0.8242806
vt 0.953166544 0.8567608
vt 0.9778065 0.848234355
vt 0.9894233 0.833613932
vt 0.9904022 0.811710835
vt 0.968057036 0.802785158
vt 0.947731 0.7950535
vt 0.9247663 0.8108382
vt 0.9277978 0.8397272
vt 0.3089167 0.7669122
vt 0.2710945 0.709236145
vt 0.8510975 0.7288916
vn 0.696235955 0.165063933 0.6985767
vn 0.99619025 0.08675943 0.008818249
vn 0.619197249 0.77717334 -0.112233505
vn 0.3073195 0.833463 0.459232152
vn -0.2218239 -0.25368318 -0.9415089
vn -0.9275374 -0.301576823 -0.22073935
vn 0.008446175 -0.880727351 -0.473548263
vn 0.6839028 -0.117403612 -0.7200648
vn 0.252561152 0.641620457 -0.7242486
vn 0.170309782 -0.4677366 0.8673045
vn -0.3577611 -0.7133182 0.602647543
vn -0.07176182 0.295023978 0.9527912
vn 0.5593618 0.0519020259 -0.8272971
vn 0.961057961 -0.164425537 -0.222107813
vn 0.302534044 -0.08853875 -0.9490174
vn -0.329936117 -0.214233339 -0.919372737
vn 0.199292734 -0.8731908 0.444769859
vn 0.04475856 -0.8730427 -0.485585272
vn 0.8042133 -0.495959878 -0.32751298
vn 0.879494548 -0.207621321 0.428232074
vn -0.997021139 0.0541643649 0.0549095757
vn -0.30812332 -0.9128854 -0.267769039
vn -0.464167446 0.1406053 -0.8745163
vn -0.291168451 0.0540259 0.955145061
vn -0.67970705 -0.155962646 0.716710567
vn -0.263264269 0.49302265 0.829228938
vn 0.460445762 -0.4853729 0.7432381
vn 0.617626965 -0.111999787 0.7784555
vn -0.67970705 -0.155962646 0.716710567
vn -0.291168451 0.0540259 0.955145061
vn -0.7866838 -0.22915338 -0.5732515
vn 0.04475856 -0.8730427 -0.485585272
vn 0.199292734 -0.8731908 0.444769859
vn -0.30812332 -0.9128854 -0.267769039
vn -0.24192737 -0.9137103 -0.326503724
vn -0.9440201 -0.0212265234 -0.329204381
vn -0.747570336 -0.319078237 0.5825184
vn -0.263264269 0.49302265 0.829228938
vn -0.747570336 -0.319078237 0.5825184
vn -0.24192737 -0.9137103 -0.326503724
vn 0.9647918 0.03087935 0.261195838
vn 0.6636133 -0.455112129 -0.593709
vn 0.3979825 0.182292089 0.8990993
vn -0.375138819 -0.5707475 -0.7304233
vn -0.804368 -0.116240308 0.58264935
vn -0.375138819 -0.5707475 -0.7304233
vn 0.192784533 -0.836123347 0.5135484
vn 0.192784533 -0.836123347 0.5135484
vn -0.997021139 0.0541643649 0.0549095757
vn -0.804368 -0.116240308 0.58264935
vn -0.7866838 -0.22915338 -0.5732515
vn 0.648446441 -0.5967759 -0.472626477
vn 0.1364146 -0.4313361 0.8918185
vn 0.004299105 0.0523694828 0.998618543
vn -0.658974349 -0.219705969 0.719362259
vn -0.380252659 -0.6897468 0.6161634
vn -0.892592251 -0.414295256 0.177872121
vn -0.658974349 -0.219705969 0.719362259
vn -0.7660779 0.48300764 0.4240617
vn -0.938367665 0.3455756 0.00660973554
vn -0.07195701 -0.39179197 -0.9172357
vn -0.410272777 0.355635762 -0.839761555
vn 0.6635173 -0.577839434 -0.475232929
vn 0.937973 -0.341520339 0.05975337
vn -0.743118167 -0.502372742 -0.442037284
vn -0.845241 0.304930657 -0.438845
vn -0.247218609 0.689694941 0.6805908
vn -0.7660779 0.48300764 0.4240617
vn 0.6431946 -0.365637064 0.6727631
vn -0.3577611 -0.7133182 0.602647543
vn -0.4934946 -0.866202056 0.0784667954
vn -0.5363532 -0.8233009 0.185744151
vn -0.380252659 -0.6897468 0.6161634
vn 0.0585501 -0.7733768 -0.63123703
vn -0.429034084 -0.8643079 -0.2624912
vn 0.7008771 -0.2999433 0.6471517
vn -0.329389185 0.932199955 -0.150020018
vn 0.3073195 0.833463 0.459232152
vn 0.619197249 0.77717334 -0.112233505
vn -0.7660779 0.48300764 0.4240617
vn -0.247218609 0.689694941 0.6805908
vn -0.938367665 0.3455756 0.00660973554
vn -0.410272777 0.355635762 -0.839761555
vn -0.845241 0.304930657 -0.438845
vn 0.252561152 0.641620457 -0.7242486
vn 0.906555355 -0.4146768 0.0787434
vn 0.9677427 0.219792128 0.123148374
vn -0.07176182 0.295023978 0.9527912
vn -0.6541356 0.191627428 0.7317005
vn -0.255113721 0.8453375 0.469384164
vn -0.5960508 0.798351765 -0.085778214
vn -0.9908663 0.121827446 0.0578108877
vn 0.167475879 -0.277656347 -0.94596976
vn -0.06679463 -0.879032254 -0.472060084
vn 0.89350003 -0.367933959 -0.2574534
vn -0.723122358 -0.09596448 -0.6840211
vn -0.266604781 0.64724 -0.714144468
vn -0.142506108 -0.459003061 0.876931131
vn 0.158976287 0.289112538 0.9440024
vn 0.3522939 -0.7206798 0.5970843
vn 0.266524583 -0.251093239 -0.9305465
vn -0.3510795 -0.06381124 -0.934168756
vn -0.9813857 -0.0695316643 -0.179018065
vn -0.587089062 0.08169114 -0.80539
vn -0.263900459 -0.8468599 0.461719483
vn -0.8759723 -0.117982715 0.467710078
vn -0.8623324 -0.416721463 -0.287621319
vn -0.1509466 -0.867286146 -0.474373162
vn 0.9989912 -0.0434195362 0.0114580654
vn 0.436958164 0.08935553 -0.895032465
vn 0.206033155 -0.939941645 -0.272139758
vn 0.336568177 0.03083393 0.9411541
vn 0.6919532 -0.217586935 0.6883725
vn 0.34606877 0.467628866 0.813363135
vn -0.5910695 -0.0464534424 0.8052819
vn -0.4726466 -0.4335914 0.7672051
vn 0.6919532 -0.217586935 0.6883725
vn 0.734723449 -0.308438331 -0.6041914
vn 0.336568177 0.03083393 0.9411541
vn -0.1509466 -0.867286146 -0.474373162
vn -0.263900459 -0.8468599 0.461719483
vn 0.206033155 -0.939941645 -0.272139758
vn 0.137087613 -0.9349049 -0.327352881
vn 0.9211983 -0.121232092 -0.3697249
vn 0.34606877 0.467628866 0.813363135
vn 0.7376359 -0.3873427 0.5530451
vn 0.7376359 -0.3873427 0.5530451
vn 0.137087613 -0.9349049 -0.327352881
vn -0.7302011 -0.3913972 -0.560013
vn -0.944624364 0.128178164 0.302084774
vn -0.338931471 0.226639017 0.9131047
vn 0.813906848 -0.191047058 0.5486863
vn 0.285328239 -0.609003544 -0.74006927
vn 0.285328239 -0.609003544 -0.74006927
vn -0.250800252 -0.810207248 0.529776752
vn -0.250800252 -0.810207248 0.529776752
vn 0.9989912 -0.0434195362 0.0114580654
vn 0.813906848 -0.191047058 0.5486863
vn 0.734723449 -0.308438331 -0.6041914
vn -0.6915188 -0.575037956 -0.4371878
vn -0.106629081 -0.4223854 0.9001227
vn 0.38179332 -0.6961144 0.60799557
vn 0.6868756 -0.237745255 0.686789
vn 0.0472353548 0.05678205 0.997268558
vn 0.8894495 -0.437005132 0.133813947
vn 0.948379338 0.314163685 -0.04333404
vn 0.800838649 0.461908668 0.3811795
vn 0.6868756 -0.237745255 0.686789
vn 0.011086612 -0.396938533 -0.917778254
vn 0.3776057 0.3390063 -0.8616778
vn -0.7060961 -0.5565671 -0.437791467
vn -0.944740355 -0.309298456 0.108628631
vn 0.829735637 0.2780768 -0.483954638
vn 0.7010827 -0.5258724 -0.4816028
vn 0.800838649 0.461908668 0.3811795
vn 0.3041337 0.684077442 0.6629787
vn -0.619730353 -0.34062168 0.707043946
vn 0.3522939 -0.7206798 0.5970843
vn 0.452323347 -0.8899407 0.05838814
vn 0.38179332 -0.6961144 0.60799557
vn 0.5130081 -0.842495143 0.164391547
vn 0.37793684 -0.8782877 -0.292872936
vn -0.118036218 -0.772745132 -0.6236444
vn -0.6766276 -0.2744266 0.683275342
vn 0.3530489 0.919745564 -0.171535984
vn -0.5960508 0.798351765 -0.085778214
vn -0.255113721 0.8453375 0.469384164
vn 0.3041337 0.684077442 0.6629787
vn 0.800838649 0.461908668 0.3811795
vn 0.948379338 0.314163685 -0.04333404
vn 0.829735637 0.2780768 -0.483954638
vn 0.3776057 0.3390063 -0.8616778
vn -0.266604781 0.64724 -0.714144468
vn -0.9163374 -0.380270123 0.125381187
vn -0.9423659 0.2897748 0.167263627
vn 0.158976287 0.289112538 0.9440024
usemtl 9013002203_part_0_material_0
f 1/1/1 2/2/2 3/3/3
f 3/3/3 4/4/4 1/1/1
f 5/5/5 6/6/6 7/7/7
f 8/8/8 9/9/9 3/3/3
f 3/3/3 2/2/2 8/8/8
f 10/10/10 11/11/11 12/12/12
f 13/13/13 14/14/14 15/15/15
f 5/5/5 13/13/13 15/15/15
f 5/5/5 15/15/15 16/16/16
f 17/17/17 18/18/18 19/19/19
f 19/19/19 20/20/20 17/17/17
f 21/21/21 22/22/22 16/16/16
f 16/16/16 23/23/23 21/21/21
f 24/24/24 25/25/25 17/17/17
f 17/17/17 20/20/20 24/24/24
f 26/26/26 27/27/27 28/28/28
f 29/29/29 30/30/30 21/21/21
f 21/21/21 31/31/31 29/29/29
f 32/32/32 33/33/33 29/29/29
f 29/29/29 31/31/31 32/32/32
f 34/34/34 28/28/28 27/27/27
f 27/27/27 35/35/35 34/34/34
f 36/36/36 37/37/37 38/38/38
f 39/39/39 35/35/35 27/27/27
f 22/22/22 40/40/40 36/36/36
f 36/36/36 40/40/40 37/37/37
f 41/41/41 19/19/19 42/42/42
f 42/42/42 15/15/15 14/14/14
f 41/41/41 42/42/42 14/14/14
f 42/42/42 23/23/23 16/16/16
f 16/16/16 15/15/15 42/42/42
f 43/43/43 24/24/24 20/20/20
f 41/41/41 43/43/43 20/20/20
f 20/20/20 19/19/19 41/41/41
f 23/23/23 44/44/44 45/45/45
f 45/45/45 21/21/21 23/23/23
f 30/30/30 22/22/22 21/21/21
f 46/46/46 23/23/23 42/42/42
f 42/42/42 19/19/19 47/47/47
f 47/47/47 46/46/46 42/42/42
f 48/48/48 45/45/45 44/44/44
f 49/49/49 50/50/50 47/47/47
f 47/47/47 19/19/19 49/49/49
f 18/18/18 49/49/49 19/19/19
f 51/51/51 49/49/49 18/18/18
f 28/28/28 34/34/34 43/43/43
f 52/52/52 13/13/13 5/5/5
f 5/5/5 7/7/7 52/52/52
f 53/53/53 54/54/54 55/55/55
f 55/55/55 56/56/56 53/53/53
f 57/57/57 58/58/58 59/59/59
f 59/59/59 60/60/60 57/57/57
f 61/61/61 62/62/62 9/9/9
f 9/9/9 8/8/8 61/61/61
f 63/63/63 8/8/8 2/2/2
f 2/2/2 64/64/64 63/63/63
f 62/62/62 61/61/61 65/65/65
f 65/65/65 66/66/66 62/62/62
f 55/55/55 54/54/54 67/67/67
f 67/67/67 68/68/68 55/55/55
f 10/10/10 12/12/12 69/69/69
f 70/70/70 71/71/71 6/6/6
f 57/57/57 72/72/72 73/73/73
f 73/73/73 58/58/58 57/57/57
f 61/61/61 74/74/74 75/75/75
f 75/75/75 65/65/65 61/61/61
f 63/63/63 74/74/74 61/61/61
f 61/61/61 8/8/8 63/63/63
f 1/1/1 76/76/76 64/64/64
f 64/64/64 2/2/2 1/1/1
f 77/77/77 78/78/78 79/79/79
f 77/77/77 80/80/80 81/81/81
f 77/77/77 82/82/82 80/80/80
f 77/77/77 83/83/83 84/84/84
f 77/77/77 85/85/85 83/83/83
f 77/77/77 79/79/79 85/85/85
f 71/71/71 72/72/72 75/75/75
f 53/53/53 56/56/56 11/11/11
f 11/11/11 10/10/10 53/53/53
f 76/76/76 53/53/53 10/10/10
f 10/10/10 69/69/69 76/76/76
f 63/63/63 64/64/64 86/86/86
f 86/86/86 52/52/52 63/63/63
f 74/74/74 63/63/63 52/52/52
f 52/52/52 7/7/7 74/74/74
f 7/7/7 75/75/75 74/74/74
f 1/1/1 4/4/4 67/67/67
f 67/67/67 54/54/54 1/1/1
f 53/53/53 76/76/76 1/1/1
f 1/1/1 54/54/54 53/53/53
f 76/76/76 69/69/69 86/86/86
f 86/86/86 64/64/64 76/76/76
f 77/77/77 81/81/81 78/78/78
f 41/41/41 87/87/87 43/43/43
f 87/87/87 86/86/86 69/69/69
f 65/65/65 57/57/57 60/60/60
f 60/60/60 66/66/66 65/65/65
f 72/72/72 57/57/57 65/65/65
f 65/65/65 75/75/75 72/72/72
f 77/77/77 84/84/84 82/82/82
f 73/73/73 72/72/72 71/71/71
f 71/71/71 70/70/70 73/73/73
f 5/5/5 16/16/16 6/6/6
f 6/6/6 16/16/16 22/22/22
f 6/6/6 22/22/22 36/36/36
f 6/6/6 88/88/88 70/70/70
f 26/26/26 39/39/39 27/27/27
f 43/43/43 34/34/34 24/24/24
f 88/88/88 6/6/6 36/36/36
f 36/36/36 38/38/38 88/88/88
f 12/12/12 26/26/26 28/28/28
f 12/12/12 28/28/28 43/43/43
f 12/12/12 43/43/43 87/87/87
f 12/12/12 87/87/87 69/69/69
f 52/52/52 87/87/87 13/13/13
f 87/87/87 41/41/41 14/14/14
f 14/14/14 13/13/13 87/87/87
f 7/7/7 71/71/71 75/75/75
f 52/52/52 86/86/86 87/87/87
f 6/6/6 71/71/71 7/7/7
f 89/89/89 90/90/90 91/91/91
f 91/91/91 92/92/92 89/89/89
f 93/93/93 94/94/94 95/95/95
f 96/96/96 92/92/92 91/91/91
f 91/91/91 97/97/97 96/96/96
f 98/98/98 99/99/99 100/100/100
f 93/93/93 101/101/101 102/102/102
f 102/102/102 103/103/103 104/104/104
f 93/93/93 102/102/102 104/104/104
f 105/105/105 106/106/106 107/107/107
f 107/107/107 108/108/108 105/105/105
f 109/109/109 110/110/110 101/101/101
f 101/101/101 111/111/111 109/109/109
f 112/112/112 106/106/106 105/105/105
f 105/105/105 113/113/113 112/112/112
f 114/114/114 115/115/115 116/116/116
f 117/117/117 118/118/118 109/109/109
f 109/109/109 119/119/119 117/117/117
f 120/120/120 118/118/118 117/117/117
f 117/117/117 121/121/121 120/120/120
f 122/122/122 123/123/123 116/116/116
f 116/116/116 115/115/115 122/122/122
f 124/124/124 125/125/125 126/126/126
f 127/127/127 116/116/116 123/123/123
f 111/111/111 124/124/124 128/128/128
f 124/124/124 126/126/126 128/128/128
f 103/103/103 102/102/102 129/129/129
f 130/130/130 103/103/103 129/129/129
f 130/130/130 129/129/129 107/107/107
f 129/129/129 102/102/102 101/101/101
f 101/101/101 110/110/110 129/129/129
f 131/131/131 106/106/106 112/112/112
f 130/130/130 106/106/106 131/131/131
f 106/106/106 130/130/130 107/107/107
f 110/110/110 109/109/109 132/132/132
f 132/132/132 133/133/133 110/110/110
f 119/119/119 109/109/109 111/111/111
f 134/134/134 129/129/129 110/110/110
f 129/129/129 134/134/134 135/135/135
f 135/135/135 107/107/107 129/129/129
f 136/136/136 133/133/133 132/132/132
f 137/137/137 107/107/107 135/135/135
f 135/135/135 138/138/138 137/137/137
f 108/108/108 107/107/107 137/137/137
f 139/139/139 108/108/108 137/137/137
f 115/115/115 131/131/131 122/122/122
f 140/140/140 94/94/94 93/93/93
f 93/93/93 104/104/104 140/140/140
f 141/141/141 142/142/142 143/143/143
f 143/143/143 144/144/144 141/141/141
f 145/145/145 146/146/146 147/147/147
f 147/147/147 148/148/148 145/145/145
f 149/149/149 96/96/96 97/97/97
f 97/97/97 150/150/150 149/149/149
f 151/151/151 152/152/152 92/92/92
f 92/92/92 96/96/96 151/151/151
f 150/150/150 153/153/153 154/154/154
f 154/154/154 149/149/149 150/150/150
f 143/143/143 155/155/155 156/156/156
f 156/156/156 144/144/144 143/143/143
f 98/98/98 157/157/157 99/99/99
f 158/158/158 95/95/95 159/159/159
f 145/145/145 148/148/148 160/160/160
f 160/160/160 161/161/161 145/145/145
f 149/149/149 154/154/154 162/162/162
f 162/162/162 163/163/163 149/149/149
f 151/151/151 96/96/96 149/149/149
f 149/149/149 163/163/163 151/151/151
f 89/89/89 92/92/92 152/152/152
f 152/152/152 164/164/164 89/89/89
f 165/165/165 166/166/166 167/167/167
f 165/165/165 168/168/168 169/169/169
f 165/165/165 169/169/169 170/170/170
f 165/165/165 171/171/171 172/172/172
f 165/165/165 172/172/172 173/173/173
f 165/165/165 173/173/173 166/166/166
f 159/159/159 162/162/162 161/161/161
f 141/141/141 98/98/98 100/100/100
f 100/100/100 142/142/142 141/141/141
f 164/164/164 157/157/157 98/98/98
f 98/98/98 141/141/141 164/164/164
f 151/151/151 140/140/140 174/174/174
f 174/174/174 152/152/152 151/151/151
f 163/163/163 94/94/94 140/140/140
f 140/140/140 151/151/151 163/163/163
f 94/94/94 163/163/163 162/162/162
f 89/89/89 144/144/144 156/156/156
f 156/156/156 90/90/90 89/89/89
f 141/141/141 144/144/144 89/89/89
f 89/89/89 164/164/164 141/141/141
f 164/164/164 152/152/152 174/174/174
f 174/174/174 157/157/157 164/164/164
f 165/165/165 167/167/167 168/168/168
f 130/130/130 131/131/131 175/175/175
f 175/175/175 157/157/157 174/174/174
f 154/154/154 153/153/153 146/146/146
f 146/146/146 145/145/145 154/154/154
f 161/161/161 162/162/162 154/154/154
f 154/154/154 145/145/145 161/161/161
f 165/165/165 170/170/170 171/171/171
f 160/160/160 158/158/158 159/159/159
f 159/159/159 161/161/161 160/160/160
f 93/93/93 95/95/95 101/101/101
f 95/95/95 111/111/111 101/101/101
f 95/95/95 124/124/124 111/111/111
f 95/95/95 158/158/158 176/176/176
f 114/114/114 116/116/116 127/127/127
f 131/131/131 112/112/112 122/122/122
f 176/176/176 125/125/125 124/124/124
f 124/124/124 95/95/95 176/176/176
f 99/99/99 115/115/115 114/114/114
f 99/99/99 131/131/131 115/115/115
f 99/99/99 175/175/175 131/131/131
f 99/99/99 157/157/157 175/175/175
f 140/140/140 104/104/104 175/175/175
f 175/175/175 104/104/104 103/103/103
f 103/103/103 130/130/130 175/175/175
f 94/94/94 162/162/162 159/159/159
f 140/140/140 175/175/175 174/174/174
f 95/95/95 94/94/94 159/159/159
