mtllib 9013000703.mtl
o 9013000703_part_0
v 0.368913144 1.06058764 -0.0239121635
v 0.418292016 1.05823958 -0.08283234
v 0.417439461 1.16673422 -0.106880724
v 0.348398358 1.17068458 -0.0305447374
v 0.368913144 1.06058764 -0.0239121635
v 0.348398358 1.17068458 -0.0305447374
v 0.2813052 1.14812219 -0.05872508
v 0.316298038 1.06604218 -0.0306976344
v 0.273017973 1.13157833 -0.104800351
v 0.308273077 1.13899088 -0.18567574
v 0.337797552 1.04386187 -0.155298412
v 0.299924761 1.04569125 -0.07939383
v 0.388853222 0.9506104 -0.0182798449
v 0.432281733 0.946364164 -0.0578931235
v 0.4315521 1.00973475 -0.07379865
v 0.372400522 1.15218568 -0.179387644
v 0.3896061 1.05389631 -0.147965074
v 0.3280134 1.02841055 0.0149371326
v 0.2864889 0.9927919 -0.03836273
v 0.3280134 1.02841055 0.0149371326
v 0.355215043 0.971268654 0.008189702
v 0.358985156 1.01570475 -0.156830251
v 0.394333929 1.013541 -0.1458486
v 0.415942162 0.94422555 -0.132667363
v 0.383726 0.948653162 -0.144128919
v 0.342237145 0.9581268 -0.0252331849
v 0.402868718 0.879938841 -0.0472114757
v 0.4214953 0.889760733 -0.0170871038
v 0.353664726 0.781235337 -0.0154684428
v 0.3507063 0.7798403 -0.0398037359
v 0.386603445 0.9042803 -0.06260743
v 0.376834124 0.913295 -0.137892783
v 0.3890929 0.8917439 -0.00422347942
v 0.338111252 0.799031854 -0.00517730275
v 0.313063234 0.9935483 0.02667467
v 0.272877544 0.898534536 0.03743308
v 0.305281132 0.9007255 0.0414376035
v 0.3412505 0.7913369 -0.0407859
v 0.338111252 0.799031854 -0.00517730275
v 0.3890929 0.8917439 -0.00422347942
v 0.353664726 0.781235337 -0.0154684428
v 0.3412505 0.7913369 -0.0407859
v 0.3507063 0.7798403 -0.0398037359
v 0.283558458 0.8862332 0.0163094085
v 0.342237145 0.9581268 -0.0252331849
v 0.272877544 0.898534536 0.03743308
v 0.313063234 0.9935483 0.02667467
v 0.283558458 0.8862332 0.0163094085
v 0.395071328 0.9022301 -0.1268639
v 0.3060802 0.8004876 -0.119950421
v 0.293570369 0.8100858 -0.0555003956
v 0.3060802 0.8004876 -0.119950421
v 0.31560716 0.796902537 -0.05920247
v 0.31560716 0.796902537 -0.05920247
v 0.386603445 0.9042803 -0.06260743
v 0.293570369 0.8100858 -0.0555003956
v 0.3412505 0.7913369 -0.0407859
v 0.222003326 1.24671435 -0.1367403
v 0.240438268 1.25692832 -0.0724879056
v 0.390681654 1.29475832 -0.119199425
v 0.3068793 1.28386772 -0.04979943
v 0.264012843 1.275968 -0.202651978
v 0.342772633 1.3001312 -0.191947341
v 0.304157764 1.25144267 -0.131684572
v 0.222003326 1.24671435 -0.1367403
v 0.240438268 1.25692832 -0.0724879056
v 0.3068793 1.28386772 -0.04979943
v 0.390681654 1.29475832 -0.119199425
v 0.342772633 1.3001312 -0.191947341
v 0.264012843 1.275968 -0.202651978
v 0.415716469 1.149717 -0.06765385
v 0.424904555 1.14168417 -0.105319813
v 0.421510845 1.24581242 -0.121966332
v 0.398631632 1.25578833 -0.0543398634
v 0.413345248 1.133775 -0.141283
v 0.394952655 1.22807884 -0.1840769
v 0.3856559 1.34416211 -0.135238469
v 0.377682716 1.35031974 -0.09730296
v 0.3750625 1.33471918 -0.170982748
v 0.419075459 1.246434 -0.122140422
v 0.394952655 1.22807884 -0.1840769
v 0.413345248 1.133775 -0.141283
v 0.424904555 1.14168417 -0.105319813
v 0.424904555 1.14168417 -0.105319813
v 0.419075459 1.246434 -0.122140422
v 0.394952655 1.22807884 -0.1840769
v 0.3856559 1.34416211 -0.135238469
v 0.419075459 1.246434 -0.122140422
v 0.398631632 1.25578833 -0.0543398634
v 0.398631632 1.25578833 -0.0543398634
v 0.377682716 1.35031974 -0.09730296
v 0.3856559 1.34416211 -0.135238469
v 0.419075459 1.246434 -0.122140422
v 0.3068793 1.28386772 -0.04979943
v -0.383842021 1.07192457 -0.008504506
v -0.357706845 1.180278 -0.0168269482
v -0.4308137 1.17811751 -0.08949034
v -0.4353344 1.07271791 -0.06507393
v -0.383842021 1.07192457 -0.008504506
v -0.3312932 1.07216024 -0.0175997559
v -0.2922801 1.15479279 -0.0482619926
v -0.357706845 1.180278 -0.0168269482
v -0.2870035 1.1377517 -0.09459523
v -0.317353517 1.05151188 -0.06706647
v -0.359020531 1.05179024 -0.141057581
v -0.326192081 1.14646482 -0.173650175
v -0.414153785 0.964463532 -0.0009100682
v -0.453267366 1.02716 -0.0551367439
v -0.459481031 0.9642595 -0.0385754071
v -0.4106164 1.06638026 -0.131397992
v -0.389572382 1.16207242 -0.164196968
v -0.3446169 1.03612435 0.02887406
v -0.309138775 0.9962992 -0.0257988051
v -0.3446169 1.03612435 0.02887406
v -0.377534121 0.9818826 0.0238793511
v -0.384167433 1.02550876 -0.14126645
v -0.414754152 0.961278 -0.126837075
v -0.446715862 0.960093737 -0.113957405
v -0.4190443 1.02688146 -0.1287544
v -0.367375642 0.9673378 -0.009936022
v -0.43625167 0.89533633 -0.0284974426
v -0.393832475 0.7906557 -0.0223279465
v -0.39557305 0.792475939 0.00209667673
v -0.452494651 0.9071112 0.00229887245
v -0.4183779 0.9178775 -0.0448232926
v -0.411079437 0.9254518 -0.120546117
v -0.3779216 0.808723569 0.0115296114
v -0.4195216 0.9059867 0.0137373284
v -0.3326409 1.00003469 0.0403096825
v -0.33331573 0.9069838 0.05566114
v -0.301487058 0.9016066 0.05029001
v -0.4195216 0.9059867 0.0137373284
v -0.3779216 0.808723569 0.0115296114
v -0.383352071 0.8011649 -0.0238316376
v -0.39557305 0.792475939 0.00209667673
v -0.393832475 0.7906557 -0.0223279465
v -0.383352071 0.8011649 -0.0238316376
v -0.367375642 0.9673378 -0.009936022
v -0.314231366 0.8902873 0.0297701955
v -0.3326409 1.00003469 0.0403096825
v -0.301487058 0.9016066 0.05029001
v -0.314231366 0.8902873 0.0297701955
v -0.429809153 0.9162909 -0.108632483
v -0.3347595 0.815067768 -0.04077035
v -0.350954682 0.806364238 -0.104522943
v -0.350954682 0.806364238 -0.104522943
v -0.358118564 0.8040847 -0.04338857
v -0.358118564 0.8040847 -0.04338857
v -0.4183779 0.9178775 -0.0448232926
v -0.3347595 0.815067768 -0.04077035
v -0.383352071 0.8011649 -0.0238316376
v -0.234561458 1.251824 -0.129757
v -0.249347523 1.2628541 -0.06470122
v -0.400516719 1.30527675 -0.103872396
v -0.313654035 1.29197729 -0.0387893245
v -0.35625276 1.30885637 -0.179000929
v -0.2789481 1.28215921 -0.193589032
v -0.316158384 1.25918353 -0.120534427
v -0.313654035 1.29197729 -0.0387893245
v -0.249347523 1.2628541 -0.06470122
v -0.234561458 1.251824 -0.129757
v -0.400516719 1.30527675 -0.103872396
v -0.35625276 1.30885637 -0.179000929
v -0.2789481 1.28215921 -0.193589032
v -0.42761147 1.16114616 -0.0503121726
v -0.405981332 1.266973 -0.03853724
v -0.433372736 1.25721359 -0.10472817
v -0.437687844 1.15504527 -0.08775379
v -0.408862859 1.23894083 -0.1682811
v -0.429200947 1.14526737 -0.123961158
v -0.3846632 1.3604759 -0.08296213
v -0.39476046 1.35443676 -0.1204076
v -0.3863164 1.34453094 -0.156596288
v -0.430930555 1.2577635 -0.105030321
v -0.408862859 1.23894083 -0.1682811
v -0.437687844 1.15504527 -0.08775379
v -0.429200947 1.14526737 -0.123961158
v -0.437687844 1.15504527 -0.08775379
v -0.408862859 1.23894083 -0.1682811
v -0.430930555 1.2577635 -0.105030321
v -0.39476046 1.35443676 -0.1204076
v -0.405981332 1.266973 -0.03853724
v -0.430930555 1.2577635 -0.105030321
v -0.405981332 1.266973 -0.03853724
v -0.39476046 1.35443676 -0.1204076
v -0.3846632 1.3604759 -0.08296213
v -0.430930555 1.2577635 -0.105030321
v -0.313654035 1.29197729 -0.0387893245
vt 0.2215923 0.4552502
vt 0.3308202 0.465139568
vt 0.3525262 0.6374277
vt 0.239171579 0.6380224
vt 0.892047346 0.4127897
vt 0.83438015 0.5987322
vt 0.7339423 0.616113067
vt 0.7512953 0.4469213
vt 0.6979985 0.598642766
vt 0.5615768 0.6423047
vt 0.569038153 0.446086884
vt 0.6664377 0.407464147
vt 0.235640571 0.27677983
vt 0.314066321 0.303909779
vt 0.33368212 0.4129879
vt 0.4524826 0.6283449
vt 0.464753062 0.4633422
vt 0.846885264 0.3603133
vt 0.826981664 0.277472377
vt 0.136244386 0.3603133
vt 0.190725341 0.2631905
vt 0.550041258 0.361874878
vt 0.4719743 0.3810404
vt 0.4779115 0.263737321
vt 0.5477661 0.244952023
vt 0.783093154 0.210431337
vt 0.306948364 0.118475318
vt 0.268263727 0.1385051
vt 0.255737364 0.02945304
vt 0.292735875 0.02281189
vt 0.7012231 0.13017863
vt 0.5532167 0.177714229
vt 0.240812674 0.1346544
vt 0.237820134 0.0515082479
vt 0.09470915 0.292640328
vt 0.08918937 0.122947752
vt 0.128161937 0.163576186
vt 0.6958231 0.03961736
vt 0.731031537 0.042812407
vt 0.7587382 0.13623333
vt 0.7456083 0.0184599161
vt 0.715066254 0.035877943
vt 0.717090368 0.01956886
vt 0.13901259 0.110417366
vt 0.214811981 0.219356358
vt 0.9088223 0.142207682
vt 0.8799905 0.292640328
vt 0.85939 0.11790204
vt 0.4732126 0.153246582
vt 0.5823664 0.100327969
vt 0.69247365 0.08433819
vt 0.458645284 0.07139981
vt 0.3091238 0.0184673071
vt 0.681475341 0.04849869
vt 0.3024664 0.0540245175
vt 0.301040173 0.0250163078
vt 0.297156274 0.0244601369
vt 0.690584958 0.80332166
vt 0.7597481 0.803169131
vt 0.353630066 0.8375825
vt 0.221619487 0.8163453
vt 0.586970031 0.9001515
vt 0.435778677 0.8801789
vt 0.142403781 0.8861694
vt 0.24759002 0.8883501
vt 0.19710137 0.8343016
vt 0.13795574 0.7678948
vt 0.0260964371 0.8597995
vt 0.06692259 0.938921
vt 0.204236284 0.9498336
vt 0.04500133 0.469259143
vt 0.09766646 0.468180358
vt 0.101190642 0.5981312
vt 0.0103056636 0.601317167
vt 0.150059611 0.465907156
vt 0.19207561 0.594945
vt 0.104714818 0.728082061
vt 0.0523216724 0.7303552
vt 0.157379955 0.7270033
vt 0.101190642 0.5981312
vt 0.19207561 0.594945
vt 0.150059611 0.465907156
vt 0.09766646 0.468180358
vt 0.09766646 0.468180358
vt 0.101190642 0.5981312
vt 0.19207561 0.594945
vt 0.104714818 0.728082061
vt 0.101190642 0.5981312
vt 0.0103056636 0.601317167
vt 0.0103056636 0.601317167
vt 0.0523216724 0.7303552
vt 0.104714818 0.728082061
vt 0.101190642 0.5981312
vt 0.8494218 0.80846715
vt 0.2215923 0.4552502
vt 0.239171579 0.6380224
vt 0.3525262 0.6374277
vt 0.3308202 0.465139568
vt 0.892047346 0.4127897
vt 0.7512953 0.4469213
vt 0.7339423 0.616113067
vt 0.83438015 0.5987322
vt 0.6979985 0.598642766
vt 0.6664377 0.407464147
vt 0.569038153 0.446086884
vt 0.5615768 0.6423047
vt 0.235640571 0.27677983
vt 0.33368212 0.4129879
vt 0.314066321 0.303909779
vt 0.464753062 0.4633422
vt 0.4524826 0.6283449
vt 0.846885264 0.3603133
vt 0.826981664 0.277472377
vt 0.136244386 0.3603133
vt 0.190725341 0.2631905
vt 0.550041258 0.361874878
vt 0.5477661 0.244952023
vt 0.4779115 0.263737321
vt 0.4719743 0.3810404
vt 0.783093154 0.210431337
vt 0.306948364 0.118475318
vt 0.292735875 0.02281189
vt 0.255737364 0.02945304
vt 0.268263727 0.1385051
vt 0.7012231 0.13017863
vt 0.5532167 0.177714229
vt 0.237820134 0.0515082479
vt 0.240812674 0.1346544
vt 0.09470915 0.292640328
vt 0.128161937 0.163576186
vt 0.08918937 0.122947752
vt 0.7587382 0.13623333
vt 0.731031537 0.042812407
vt 0.6958231 0.03961736
vt 0.7456083 0.0184599161
vt 0.717090368 0.01956886
vt 0.715066254 0.035877943
vt 0.214811981 0.219356358
vt 0.13901259 0.110417366
vt 0.8799905 0.292640328
vt 0.9088223 0.142207682
vt 0.85939 0.11790204
vt 0.4732126 0.153246582
vt 0.69247365 0.08433819
vt 0.5823664 0.100327969
vt 0.458645284 0.07139981
vt 0.3091238 0.0184673071
vt 0.681475341 0.04849869
vt 0.3024664 0.0540245175
vt 0.301040173 0.0250163078
vt 0.297156274 0.0244601369
vt 0.690584958 0.80332166
vt 0.7597481 0.803169131
vt 0.353630066 0.8375825
vt 0.221619487 0.8163453
vt 0.435778677 0.8801789
vt 0.586970031 0.9001515
vt 0.142403781 0.8861694
vt 0.13795574 0.7678948
vt 0.19710137 0.8343016
vt 0.24759002 0.8883501
vt 0.0260964371 0.8597995
vt 0.06692259 0.938921
vt 0.204236284 0.9498336
vt 0.04500133 0.469259143
vt 0.0103056636 0.601317167
vt 0.101190642 0.5981312
vt 0.09766646 0.468180358
vt 0.19207561 0.594945
vt 0.150059611 0.465907156
vt 0.0523216724 0.7303552
vt 0.104714818 0.728082061
vt 0.157379955 0.7270033
vt 0.101190642 0.5981312
vt 0.19207561 0.594945
vt 0.09766646 0.468180358
vt 0.150059611 0.465907156
vt 0.09766646 0.468180358
vt 0.19207561 0.594945
vt 0.101190642 0.5981312
vt 0.104714818 0.728082061
vt 0.0103056636 0.601317167
vt 0.101190642 0.5981312
vt 0.0103056636 0.601317167
vt 0.104714818 0.728082061
vt 0.0523216724 0.7303552
vt 0.101190642 0.5981312
vt 0.8494218 0.80846715
vn 0.46448493 0.30819875 0.830221236
vn 0.978327036 0.161035374 0.130168572
vn 0.9886733 0.137739763 0.0596052632
vn 0.219794258 0.1373413 0.965830147
vn 0.46448493 0.30819875 0.830221236
vn 0.219794258 0.1373413 0.965830147
vn -0.723854065 -0.152657777 0.6728528
vn -0.64455837 0.235858455 0.727265656
vn -0.931975842 -0.349643737 -0.09576141
vn -0.416779548 -0.311648875 -0.8539144
vn -0.46570152 -0.379959166 -0.7992203
vn -0.9455263 -0.304183125 -0.115985282
vn 0.418761075 0.1150725 0.900776
vn 0.973564 -0.0511217862 0.222619981
vn 0.9686639 0.18926844 0.160834715
vn 0.5302211 -0.06728984 -0.845185
vn 0.6364588 -0.0503826439 -0.7696634
vn -0.154452085 0.494238764 0.8554955
vn -0.9019631 -0.07023974 -0.4260621
vn -0.154452085 0.494238764 0.8554955
vn 0.628305435 -0.236769378 0.741061747
vn -0.299936235 -0.238214 -0.923738241
vn 0.627356231 0.0392232761 -0.777743936
vn 0.752631545 -0.1974198 -0.628149
vn -0.340519577 -0.314510524 -0.8860754
vn -0.319428325 -0.906910062 -0.274735779
vn 0.794353247 -0.51267904 -0.325826854
vn 0.872153461 -0.210747436 0.441513151
vn 0.184195846 -0.8807653 0.436261833
vn 0.031367518 -0.8805421 -0.472928882
vn -0.9996824 0.0161287189 0.019363286
vn -0.5409922 0.0573437065 -0.8390704
vn -0.291166 0.0540222935 0.955146
vn -0.6811388 -0.162294716 0.713939965
vn -0.294166267 0.375989079 0.8786913
vn -0.7501371 -0.3539139 0.558604836
vn 0.461123258 -0.534154832 0.708550632
vn -0.789656639 -0.242346123 -0.5636584
vn -0.6811388 -0.162294716 0.713939965
vn -0.291166 0.0540222935 0.955146
vn 0.184195846 -0.8807653 0.436261833
vn -0.789656639 -0.242346123 -0.5636584
vn 0.031367518 -0.8805421 -0.472928882
vn -0.241938621 -0.913706064 -0.326507151
vn -0.319428325 -0.906910062 -0.274735779
vn -0.7501371 -0.3539139 0.558604836
vn -0.294166267 0.375989079 0.8786913
vn -0.241938621 -0.913706064 -0.326507151
vn 0.651975 -0.4771249 -0.589305043
vn -0.376130164 -0.47701475 -0.794344366
vn -0.827551842 -0.0528840125 0.558892846
vn -0.376130164 -0.47701475 -0.794344366
vn 0.192786142 -0.836123049 0.5135482
vn 0.192786142 -0.836123049 0.5135482
vn -0.9996824 0.0161287189 0.019363286
vn -0.827551842 -0.0528840125 0.558892846
vn -0.789656639 -0.242346123 -0.5636584
vn -0.923300862 0.334084272 -0.189481422
vn -0.7371775 0.513546765 0.4391344
vn 0.6209342 0.780919731 0.06786099
vn -0.10801325 0.786670744 0.607850552
vn -0.535455048 0.563381433 -0.6291973
vn 0.190475851 0.8168787 -0.544452131
vn -0.2870988 0.9556531 0.0655857846
vn -0.923300862 0.334084272 -0.189481422
vn -0.7371775 0.513546765 0.4391344
vn -0.10801325 0.786670744 0.607850552
vn 0.6209342 0.780919731 0.06786099
vn 0.190475851 0.8168787 -0.544452131
vn -0.535455048 0.563381433 -0.6291973
vn -0.08738602 -0.734127641 0.673364937
vn 0.94183147 -0.00572021538 -0.336036861
vn 0.9814406 0.177732736 -0.07200984
vn 0.904352367 0.340152532 0.2577656
vn 0.9484195 0.04240972 -0.314168453
vn 0.9186542 -0.0105860466 -0.3949207
vn 0.9260693 0.3279839 0.186607137
vn 0.9476445 0.279879868 0.153743953
vn -0.4247388 0.659337759 -0.620379448
vn -0.959248364 -0.112668917 -0.259129971
vn -0.9484195 -0.042409718 0.314168483
vn -0.9484195 -0.04240972 0.314168453
vn -0.9484195 -0.042409718 0.314168453
vn -0.932415664 0.006136 0.361335576
vn -0.932415664 0.006136 0.361335576
vn -0.932415664 0.006136 0.361335576
vn -0.911612034 -0.342250764 -0.227657452
vn -0.911612034 -0.342250735 -0.227657422
vn -0.911612034 -0.342250764 -0.227657452
vn -0.9476445 -0.2798799 -0.153743967
vn -0.9476445 -0.279879868 -0.153743953
vn -0.9476445 -0.2798799 -0.153743967
vn -0.891003132 -0.2265261 0.393445462
vn -0.10801325 0.786670744 0.607850552
vn -0.393516749 0.3497777 0.8501765
vn -0.162461549 0.150362045 0.975191
vn -0.9780728 0.178796887 0.106795356
vn -0.9549579 0.241220847 0.17282322
vn -0.393516749 0.3497777 0.8501765
vn 0.6941066 0.192579538 0.693634748
vn 0.7508375 -0.177326456 0.6362376
vn -0.162461549 0.150362045 0.975191
vn 0.911894739 -0.3852808 -0.14144513
vn 0.914734066 -0.3759421 -0.1480849
vn 0.403242439 -0.428008139 -0.8088291
vn 0.362476468 -0.3301873 -0.871543
vn -0.36571148 0.16079542 0.9167333
vn -0.9361894 0.2899454 0.198698372
vn -0.9632272 0.0457729474 0.2647606
vn -0.670845747 -0.00850756653 -0.7415481
vn -0.5699287 -0.05052603 -0.8201392
vn 0.236417159 0.479563653 0.8450595
vn 0.8697534 -0.171456292 -0.462743729
vn 0.236417159 0.479563653 0.8450595
vn -0.615377963 -0.169763088 0.769734
vn 0.228935525 -0.271308243 -0.93486917
vn 0.267969966 -0.352274626 -0.896713257
vn -0.7950679 -0.1264311 -0.59319663
vn -0.6548599 0.09780219 -0.749395251
vn 0.217173219 -0.9356408 -0.27823025
vn -0.854086339 -0.434316069 -0.286192417
vn -0.1378089 -0.8759871 -0.462228566
vn -0.25000307 -0.8559266 0.452645719
vn -0.8683968 -0.121735059 0.4806948
vn 0.9963699 -0.0817392543 -0.02378386
vn 0.5067674 -0.0008207658 -0.8620824
vn 0.692637 -0.224044651 0.685607731
vn 0.336564839 0.0308306236 0.941155434
vn 0.3676227 0.350503564 0.8613947
vn -0.479599565 -0.482278138 0.7330703
vn 0.735740244 -0.4224052 0.529396
vn 0.336564839 0.0308306236 0.941155434
vn 0.692637 -0.224044651 0.685607731
vn 0.736811638 -0.32180807 -0.5945991
vn -0.25000307 -0.8559266 0.452645719
vn -0.1378089 -0.8759871 -0.462228566
vn 0.736811638 -0.32180807 -0.5945991
vn 0.217173219 -0.9356408 -0.27823025
vn 0.137100384 -0.934899867 -0.3273617
vn 0.3676227 0.350503564 0.8613947
vn 0.735740244 -0.4224052 0.529396
vn 0.137100384 -0.934899867 -0.3273617
vn -0.7205851 -0.414416969 -0.5558918
vn 0.842102051 -0.130408674 0.5233141
vn 0.292661041 -0.5161933 -0.804918647
vn 0.292661041 -0.5161933 -0.804918647
vn -0.2508047 -0.8102055 0.529777348
vn -0.2508047 -0.8102055 0.529777348
vn 0.9963699 -0.0817392543 -0.02378386
vn 0.842102051 -0.130408674 0.5233141
vn 0.736811638 -0.32180807 -0.5945991
vn 0.9216079 0.306573361 -0.238016158
vn 0.773003936 0.493698031 0.39840582
vn -0.5912571 0.800807953 0.09550722
vn 0.163907573 0.785074949 0.5973204
vn -0.1920727 0.820407033 -0.538554
vn 0.51878494 0.544839561 -0.6587959
vn 0.320140868 0.946262836 0.0457872078
vn 0.163907573 0.785074949 0.5973204
vn 0.773003936 0.493698031 0.39840582
vn 0.9216079 0.306573361 -0.238016158
vn -0.5912571 0.800807953 0.09550722
vn -0.1920727 0.820407033 -0.538554
vn 0.51878494 0.544839561 -0.6587959
vn 0.08614303 -0.744943738 0.6615423
vn -0.8761579 0.371489346 0.307153016
vn -0.978693247 0.203376561 -0.0282409452
vn -0.957844257 0.028453147 -0.285875529
vn -0.9340111 0.009986498 -0.35710445
vn -0.963866055 0.09077919 -0.250442415
vn -0.9300033 0.307613343 0.201166391
vn -0.9037684 0.357503653 0.235358775
vn 0.4137674 0.6440669 -0.6434084
vn 0.9403387 -0.142637357 -0.308897644
vn 0.963866055 -0.0907791853 0.250442415
vn 0.963866055 -0.09077918 0.250442415
vn 0.963866055 -0.09077918 0.250442445
vn 0.943572462 -0.006383025 0.331104547
vn 0.943572462 -0.00638302462 0.331104547
vn 0.943572462 -0.006383025 0.331104577
vn 0.883777559 -0.375145584 -0.279647976
vn 0.883777559 -0.375145584 -0.279647976
vn 0.883777559 -0.375145584 -0.279647976
vn 0.9300033 -0.307613343 -0.201166391
vn 0.9300033 -0.307613343 -0.201166376
vn 0.9300033 -0.307613343 -0.201166376
vn 0.8988788 -0.247133166 0.361859262
vn 0.163907573 0.785074949 0.5973204
usemtl 9013000703_part_0_material_0
f 1/1/1 2/2/2 3/3/3
f 3/3/3 4/4/4 1/1/1
f 5/5/5 6/6/6 7/7/7
f 7/7/7 8/8/8 5/5/5
f 9/9/9 10/10/10 11/11/11
f 11/11/11 12/12/12 9/9/9
f 13/13/13 14/14/14 15/15/15
f 15/15/15 1/1/1 13/13/13
f 10/10/10 16/16/16 17/17/17
f 17/17/17 11/11/11 10/10/10
f 18/18/18 8/8/8 12/12/12
f 12/12/12 19/19/19 18/18/18
f 20/20/20 21/21/21 1/1/1
f 22/22/22 23/23/23 24/24/24
f 24/24/24 25/25/25 22/22/22
f 26/26/26 12/12/12 25/25/25
f 27/27/27 28/28/28 29/29/29
f 29/29/29 30/30/30 27/27/27
f 31/31/31 25/25/25 32/32/32
f 29/29/29 28/28/28 33/33/33
f 33/33/33 34/34/34 29/29/29
f 35/35/35 36/36/36 37/37/37
f 37/37/37 21/21/21 35/35/35
f 31/31/31 38/38/38 39/39/39
f 39/39/39 40/40/40 31/31/31
f 41/41/41 39/39/39 42/42/42
f 42/42/42 43/43/43 41/41/41
f 37/37/37 44/44/44 45/45/45
f 45/45/45 21/21/21 37/37/37
f 19/19/19 46/46/46 47/47/47
f 36/36/36 44/44/44 37/37/37
f 20/20/20 35/35/35 21/21/21
f 47/47/47 18/18/18 19/19/19
f 12/12/12 26/26/26 19/19/19
f 26/26/26 48/48/48 19/19/19
f 19/19/19 48/48/48 46/46/46
f 24/24/24 23/23/23 15/15/15
f 15/15/15 14/14/14 24/24/24
f 14/14/14 27/27/27 49/49/49
f 49/49/49 24/24/24 14/14/14
f 25/25/25 24/24/24 49/49/49
f 49/49/49 32/32/32 25/25/25
f 33/33/33 13/13/13 45/45/45
f 14/14/14 13/13/13 28/28/28
f 28/28/28 27/27/27 14/14/14
f 31/31/31 32/32/32 50/50/50
f 50/50/50 51/51/51 31/31/31
f 40/40/40 26/26/26 31/31/31
f 52/52/52 32/32/32 49/49/49
f 53/53/53 52/52/52 49/49/49
f 49/49/49 27/27/27 53/53/53
f 54/54/54 51/51/51 50/50/50
f 55/55/55 56/56/56 53/53/53
f 53/53/53 27/27/27 55/55/55
f 30/30/30 55/55/55 27/27/27
f 55/55/55 30/30/30 57/57/57
f 22/22/22 25/25/25 12/12/12
f 13/13/13 21/21/21 45/45/45
f 1/1/1 21/21/21 13/13/13
f 58/58/58 9/9/9 7/7/7
f 7/7/7 59/59/59 58/58/58
f 60/60/60 61/61/61 4/4/4
f 4/4/4 3/3/3 60/60/60
f 10/10/10 62/62/62 63/63/63
f 63/63/63 16/16/16 10/10/10
f 62/62/62 10/10/10 9/9/9
f 9/9/9 58/58/58 62/62/62
f 1/1/1 15/15/15 2/2/2
f 2/2/2 15/15/15 23/23/23
f 23/23/23 17/17/17 2/2/2
f 17/17/17 23/23/23 22/22/22
f 22/22/22 11/11/11 17/17/17
f 11/11/11 22/22/22 12/12/12
f 3/3/3 2/2/2 17/17/17
f 17/17/17 16/16/16 3/3/3
f 3/3/3 16/16/16 63/63/63
f 63/63/63 60/60/60 3/3/3
f 64/64/64 65/65/65 66/66/66
f 66/66/66 67/67/67 64/64/64
f 68/68/68 64/64/64 67/67/67
f 69/69/69 64/64/64 68/68/68
f 70/70/70 64/64/64 69/69/69
f 65/65/65 64/64/64 70/70/70
f 71/71/71 72/72/72 73/73/73
f 73/73/73 74/74/74 71/71/71
f 72/72/72 75/75/75 76/76/76
f 76/76/76 73/73/73 72/72/72
f 74/74/74 73/73/73 77/77/77
f 77/77/77 78/78/78 74/74/74
f 73/73/73 76/76/76 79/79/79
f 79/79/79 77/77/77 73/73/73
f 71/71/71 74/74/74 80/80/80
f 80/80/80 72/72/72 71/71/71
f 81/81/81 82/82/82 83/83/83
f 84/84/84 85/85/85 86/86/86
f 87/87/87 88/88/88 89/89/89
f 90/90/90 91/91/91 92/92/92
f 93/93/93 77/77/77 79/79/79
f 79/79/79 76/76/76 93/93/93
f 31/31/31 26/26/26 25/25/25
f 33/33/33 28/28/28 13/13/13
f 7/7/7 9/9/9 12/12/12
f 12/12/12 8/8/8 7/7/7
f 6/6/6 94/94/94 59/59/59
f 59/59/59 7/7/7 6/6/6
f 18/18/18 5/5/5 8/8/8
f 95/95/95 96/96/96 97/97/97
f 97/97/97 98/98/98 95/95/95
f 99/99/99 100/100/100 101/101/101
f 101/101/101 102/102/102 99/99/99
f 103/103/103 104/104/104 105/105/105
f 105/105/105 106/106/106 103/103/103
f 107/107/107 95/95/95 108/108/108
f 108/108/108 109/109/109 107/107/107
f 106/106/106 105/105/105 110/110/110
f 110/110/110 111/111/111 106/106/106
f 112/112/112 113/113/113 104/104/104
f 104/104/104 100/100/100 112/112/112
f 114/114/114 95/95/95 115/115/115
f 116/116/116 117/117/117 118/118/118
f 118/118/118 119/119/119 116/116/116
f 120/120/120 117/117/117 104/104/104
f 121/121/121 122/122/122 123/123/123
f 123/123/123 124/124/124 121/121/121
f 125/125/125 126/126/126 117/117/117
f 123/123/123 127/127/127 128/128/128
f 128/128/128 124/124/124 123/123/123
f 129/129/129 115/115/115 130/130/130
f 130/130/130 131/131/131 129/129/129
f 125/125/125 132/132/132 133/133/133
f 133/133/133 134/134/134 125/125/125
f 135/135/135 136/136/136 137/137/137
f 137/137/137 133/133/133 135/135/135
f 130/130/130 115/115/115 138/138/138
f 138/138/138 139/139/139 130/130/130
f 113/113/113 140/140/140 141/141/141
f 131/131/131 130/130/130 139/139/139
f 114/114/114 115/115/115 129/129/129
f 140/140/140 113/113/113 112/112/112
f 104/104/104 113/113/113 120/120/120
f 120/120/120 113/113/113 142/142/142
f 113/113/113 141/141/141 142/142/142
f 118/118/118 109/109/109 108/108/108
f 108/108/108 119/119/119 118/118/118
f 109/109/109 118/118/118 143/143/143
f 143/143/143 121/121/121 109/109/109
f 117/117/117 126/126/126 143/143/143
f 143/143/143 118/118/118 117/117/117
f 128/128/128 138/138/138 107/107/107
f 109/109/109 124/124/124 107/107/107
f 124/124/124 109/109/109 121/121/121
f 125/125/125 144/144/144 145/145/145
f 145/145/145 126/126/126 125/125/125
f 132/132/132 125/125/125 120/120/120
f 146/146/146 143/143/143 126/126/126
f 147/147/147 121/121/121 143/143/143
f 143/143/143 146/146/146 147/147/147
f 148/148/148 145/145/145 144/144/144
f 149/149/149 121/121/121 147/147/147
f 147/147/147 150/150/150 149/149/149
f 122/122/122 121/121/121 149/149/149
f 149/149/149 151/151/151 122/122/122
f 116/116/116 104/104/104 117/117/117
f 107/107/107 138/138/138 115/115/115
f 95/95/95 107/107/107 115/115/115
f 152/152/152 153/153/153 101/101/101
f 101/101/101 103/103/103 152/152/152
f 154/154/154 97/97/97 96/96/96
f 96/96/96 155/155/155 154/154/154
f 106/106/106 111/111/111 156/156/156
f 156/156/156 157/157/157 106/106/106
f 157/157/157 152/152/152 103/103/103
f 103/103/103 106/106/106 157/157/157
f 95/95/95 98/98/98 108/108/108
f 98/98/98 110/110/110 119/119/119
f 119/119/119 108/108/108 98/98/98
f 110/110/110 105/105/105 116/116/116
f 116/116/116 119/119/119 110/110/110
f 105/105/105 104/104/104 116/116/116
f 97/97/97 111/111/111 110/110/110
f 110/110/110 98/98/98 97/97/97
f 97/97/97 154/154/154 156/156/156
f 156/156/156 111/111/111 97/97/97
f 158/158/158 159/159/159 160/160/160
f 160/160/160 161/161/161 158/158/158
f 162/162/162 159/159/159 158/158/158
f 163/163/163 162/162/162 158/158/158
f 164/164/164 163/163/163 158/158/158
f 161/161/161 164/164/164 158/158/158
f 165/165/165 166/166/166 167/167/167
f 167/167/167 168/168/168 165/165/165
f 168/168/168 167/167/167 169/169/169
f 169/169/169 170/170/170 168/168/168
f 166/166/166 171/171/171 172/172/172
f 172/172/172 167/167/167 166/166/166
f 167/167/167 172/172/172 173/173/173
f 173/173/173 169/169/169 167/167/167
f 165/165/165 168/168/168 174/174/174
f 174/174/174 166/166/166 165/165/165
f 175/175/175 176/176/176 177/177/177
f 178/178/178 179/179/179 180/180/180
f 181/181/181 182/182/182 183/183/183
f 184/184/184 185/185/185 186/186/186
f 187/187/187 169/169/169 173/173/173
f 173/173/173 172/172/172 187/187/187
f 125/125/125 117/117/117 120/120/120
f 128/128/128 107/107/107 124/124/124
f 101/101/101 100/100/100 104/104/104
f 104/104/104 103/103/103 101/101/101
f 102/102/102 101/101/101 153/153/153
f 153/153/153 188/188/188 102/102/102
f 112/112/112 100/100/100 99/99/99
