mtllib 9014001903.mtl
o 9014001903_part_0
v 0.301081449 0.6278139 -0.03163022
v 0.277282447 0.6072341 0.0114931678
v 0.3346301 0.584410548 -0.0181948245
v 0.214878961 0.640263259 -0.03585329
v 0.229637712 0.5786115 0.00685493462
v 0.24823162 0.6000768 0.03553514
v 0.231043667 0.662266731 -0.00523017766
v 0.268642128 0.568496764 -0.07673073
v 0.302100658 0.5848394 -0.09187421
v 0.326014459 0.519551635 -0.08889761
v 0.2878022 0.523665369 -0.07554861
v 0.2969257 0.479349852 0.00521033257
v 0.296417266 0.480966419 0.0373607762
v 0.2866403 0.554159462 0.0401632264
v 0.283906341 0.5265585 0.005357836
v 0.336899549 0.484849781 0.006155984
v 0.317439646 0.484242678 0.03292977
v 0.310192466 0.445252627 0.0300847832
v 0.314397633 0.443720549 0.015561766
v 0.296417266 0.480966419 0.0373607762
v 0.294595748 0.442860574 0.0333703049
v 0.252683967 0.5566681 0.05829437
v 0.259542078 0.494401425 0.06399898
v 0.274369359 0.489311278 0.0537434
v 0.2866403 0.554159462 0.0401632264
v 0.294823527 0.4418087 0.0138009675
v 0.294595748 0.442860574 0.0333703049
v 0.314397633 0.443720549 0.015561766
v 0.310192466 0.445252627 0.0300847832
v 0.259279728 0.486924231 0.0291231163
v 0.256769985 0.554674447 0.00470213452
v 0.24686271 0.490690082 0.037547
v 0.256769985 0.554674447 0.00470213452
v 0.259279728 0.486924231 0.0291231163
v 0.232249677 0.549276352 0.0238032825
v 0.24686271 0.490690082 0.037547
v 0.319861472 0.4837175 -0.0782854
v 0.303706527 0.482586116 -0.06618202
v 0.3155968 0.543189347 0.03291165
v 0.34976992 0.5323668 -0.006747941
v 0.3089733 0.446454436 -0.0495691448
v 0.295771748 0.441920966 0.00112130807
v 0.293537945 0.475737244 0.00265741488
v 0.3089733 0.446454436 -0.0495691448
v 0.319217116 0.446357459 -0.00351018412
v 0.294823527 0.4418087 0.0138009675
v 0.2969257 0.479349852 0.00521033257
v 0.231043667 0.662266731 -0.00523017766
v 0.24823162 0.6000768 0.03553514
v 0.250855774 0.6722649 -0.007730643
v 0.252683967 0.5566681 0.05829437
v 0.259542078 0.494401425 0.06399898
v 0.319217116 0.446357459 -0.00351018412
v 0.335708946 0.482587546 -0.00252341735
v 0.293537945 0.475737244 0.00265741488
v 0.295771748 0.441920966 0.00112130807
v 0.283906341 0.5265585 0.005357836
v 0.2661462 0.6786859 -0.0428628847
v 0.247668639 0.660012543 -0.0727125
v 0.221468925 0.639464438 -0.07044628
v -0.305649817 0.632104158 -0.025776064
v -0.339256883 0.588983655 -0.0117505556
v -0.281234682 0.611355066 0.0169188753
v -0.218692482 0.643939734 -0.031701576
v -0.234067678 0.6659423 -0.0007764978
v -0.251812279 0.6040027 0.0404400378
v -0.233881459 0.5824289 0.0114326691
v -0.274434358 0.5725957 -0.07144658
v -0.293883562 0.5279461 -0.06992762
v -0.332355052 0.5241033 -0.08259556
v -0.3080401 0.5891755 -0.08599443
v -0.3018843 0.483690977 0.0109834354
v -0.288530976 0.530806661 0.010896693
v -0.290450752 0.558423936 0.04574332
v -0.300793529 0.485302031 0.0431196727
v -0.341795743 0.489473432 0.01263865
v -0.319422066 0.448185444 0.02164598
v -0.3149479 0.449686766 0.03609175
v -0.321868122 0.488726944 0.0390626229
v -0.2993131 0.447184443 0.0390999764
v -0.300793529 0.485302031 0.0431196727
v -0.2561615 0.560681939 0.06326963
v -0.290450752 0.558423936 0.04574332
v -0.278399736 0.493489742 0.0591075867
v -0.263356984 0.49847433 0.06909788
v -0.2993131 0.447184443 0.0390999764
v -0.299895346 0.446135432 0.019537745
v -0.3149479 0.449686766 0.03609175
v -0.319422066 0.448185444 0.02164598
v -0.261214077 0.55871 0.009760071
v -0.263766974 0.490997553 0.0342233367
v -0.25117597 0.494675159 0.0424251147
v -0.261214077 0.55871 0.009760071
v -0.236397073 0.5531384 0.0284229033
v -0.263766974 0.490997553 0.0342233367
v -0.25117597 0.494675159 0.0424251147
v -0.309909046 0.486979574 -0.0602774248
v -0.326268017 0.4882261 -0.07209206
v -0.319609165 0.547659159 0.03900805
v -0.354556948 0.5370811 -3.76535681E-05
v -0.3151352 0.450885028 -0.0435713641
v -0.29856807 0.4800547 0.008370979
v -0.3010678 0.446255445 0.00687692268
v -0.3151352 0.450885028 -0.0435713641
v -0.3245603 0.45085752 0.002662383
v -0.3018843 0.483690977 0.0109834354
v -0.299895346 0.446135432 0.019537745
v -0.234067678 0.6659423 -0.0007764978
v -0.25397262 0.6761295 -0.002940173
v -0.251812279 0.6040027 0.0404400378
v -0.2561615 0.560681939 0.06326963
v -0.263356984 0.49847433 0.06909788
v -0.3245603 0.45085752 0.002662383
v -0.340774983 0.48720333 0.00393952848
v -0.3010678 0.446255445 0.00687692268
v -0.29856807 0.4800547 0.008370979
v -0.288530976 0.530806661 0.010896693
v -0.269715846 0.6826049 -0.0377800651
v -0.251903772 0.6638032 -0.06795196
v -0.225895673 0.6431607 -0.06616797
vt 0.288171 0.6984602
vt 0.166058257 0.6587945
vt 0.28786 0.624881566
vt 0.717729 0.7748202
vt 0.775104463 0.6653116
vt 0.8779274 0.697000742
vt 0.8492961 0.785092354
vt 0.541492939 0.6660483
vt 0.5081054 0.6717705
vt 0.4949623 0.5265659
vt 0.534216762 0.527637
vt 0.733502269 0.3780229
vt 0.7942134 0.3723005
vt 0.8006236 0.465222359
vt 0.7409091 0.47494638
vt 0.269430161 0.393271565
vt 0.212207049 0.39256078
vt 0.215895787 0.262444258
vt 0.265733749 0.265150964
vt 0.186463043 0.380354166
vt 0.191581964 0.265566766
vt 0.03684578 0.5457363
vt 0.003139658 0.408474445
vt 0.06000963 0.395495772
vt 0.12725392 0.5263369
vt 0.7229425 0.311464548
vt 0.7828971 0.3065775
vt 0.7296437 0.254311562
vt 0.7789175 0.2550348
vt 0.07543211 0.350647151
vt 0.13046205 0.471138716
vt 0.0163447354 0.365433216
vt 0.7599414 0.587503254
vt 0.8855724 0.382595062
vt 0.854987442 0.5764534
vt 0.9246134 0.3925451
vt 0.480081171 0.406266451
vt 0.523020566 0.4088782
vt 0.203375235 0.5009454
vt 0.277786642 0.512605369
vt 0.537028432 0.358543873
vt 0.717317939 0.3121215
vt 0.727200747 0.379875839
vt 0.455397874 0.301413059
vt 0.714413 0.24611479
vt 0.273963958 0.268204451
vt 0.278604 0.385657
vt 0.126023337 0.7600462
vt 0.09802389 0.663134456
vt 0.192285225 0.7640947
vt 0.951058 0.6021703
vt 0.9781481 0.394704938
vt 0.299813151 0.258832276
vt 0.296382755 0.3834377
vt 0.2848872 0.383717358
vt 0.290226519 0.2665602
vt 0.281514138 0.447204351
vt 0.292278767 0.770326853
vt 0.518980861 0.772720933
vt 0.559283 0.7696282
vt 0.288171 0.6984602
vt 0.28786 0.624881566
vt 0.166058257 0.6587945
vt 0.717729 0.7748202
vt 0.8492961 0.785092354
vt 0.8779274 0.697000742
vt 0.775104463 0.6653116
vt 0.541492939 0.6660483
vt 0.534216762 0.527637
vt 0.4949623 0.5265659
vt 0.5081054 0.6717705
vt 0.733502269 0.3780229
vt 0.7409091 0.47494638
vt 0.8006236 0.465222359
vt 0.7942134 0.3723005
vt 0.269430161 0.393271565
vt 0.265733749 0.265150964
vt 0.215895787 0.262444258
vt 0.212207049 0.39256078
vt 0.191581964 0.265566766
vt 0.186463043 0.380354166
vt 0.03684578 0.5457363
vt 0.12725392 0.5263369
vt 0.06000963 0.395495772
vt 0.003139658 0.408474445
vt 0.7828971 0.3065775
vt 0.7229425 0.311464548
vt 0.7789175 0.2550348
vt 0.7296437 0.254311562
vt 0.13046205 0.471138716
vt 0.07543211 0.350647151
vt 0.0163447354 0.365433216
vt 0.7599414 0.587503254
vt 0.854987442 0.5764534
vt 0.8855724 0.382595062
vt 0.9246134 0.3925451
vt 0.523020566 0.4088782
vt 0.480081171 0.406266451
vt 0.203375235 0.5009454
vt 0.277786642 0.512605369
vt 0.537028432 0.358543873
vt 0.727200747 0.379875839
vt 0.717317939 0.3121215
vt 0.455397874 0.301413059
vt 0.714413 0.24611479
vt 0.278604 0.385657
vt 0.273963958 0.268204451
vt 0.126023337 0.7600462
vt 0.192285225 0.7640947
vt 0.09802389 0.663134456
vt 0.951058 0.6021703
vt 0.9781481 0.394704938
vt 0.299813151 0.258832276
vt 0.296382755 0.3834377
vt 0.290226519 0.2665602
vt 0.2848872 0.383717358
vt 0.281514138 0.447204351
vt 0.292278767 0.770326853
vt 0.518980861 0.772720933
vt 0.559283 0.7696282
vn 0.787869751 0.6124652 0.06440186
vn 0.504805 0.5216619 0.6877796
vn 0.859366357 0.489405483 0.148228616
vn -0.957326 -0.2843252 0.05182768
vn -0.9684782 -0.247545242 0.0277721249
vn -0.262231767 0.463362038 0.846481
vn -0.447238654 0.265732139 0.8540281
vn -0.655125439 -0.342134148 -0.6736133
vn 0.358368635 0.23300831 -0.904034853
vn 0.5050376 -0.111323215 -0.855887949
vn -0.711686432 -0.341474861 -0.6139196
vn -0.649462938 -0.190681145 -0.736096859
vn -0.592777669 -0.09063784 0.8002496
vn 0.4253637 0.132177487 0.89531827
vn -0.8765896 -0.4390912 0.196950749
vn 0.8572354 -0.3773732 -0.3503385
vn 0.5517596 -0.08413836 0.8297482
vn 0.492539227 -0.6053938 0.6252227
vn 0.5446205 -0.7393828 -0.3958555
vn -0.592777669 -0.09063784 0.8002496
vn -0.522370934 -0.59434 0.611464262
vn -0.2593579 0.22505714 0.9391926
vn -0.190559521 -0.4197082 0.8874301
vn 0.7024015 -0.649503 0.2911666
vn 0.4253637 0.132177487 0.89531827
vn -0.553083 -0.656734943 -0.5126387
vn -0.522370934 -0.59434 0.611464262
vn 0.5446205 -0.7393828 -0.3958555
vn 0.492539227 -0.6053938 0.6252227
vn 0.145950273 -0.778577149 -0.610341
vn -0.5693306 -0.702138841 -0.427625775
vn -0.770951152 -0.6348432 -0.05107357
vn -0.5693306 -0.702138841 -0.427625775
vn 0.145950273 -0.778577149 -0.610341
vn -0.972312033 -0.196725562 -0.12612839
vn -0.770951152 -0.6348432 -0.05107357
vn 0.333368152 -0.502817869 -0.7975211
vn -0.7615165 -0.390809774 -0.517069
vn 0.5410125 0.230120391 0.8089191
vn 0.982080638 0.04743226 0.182394624
vn -0.09422465 -0.8496225 -0.518905938
vn -0.537750244 -0.6551973 0.5306045
vn -0.675689161 -0.18991521 0.7123036
vn -0.09422465 -0.8496225 -0.518905938
vn 0.5914689 -0.6466784 0.481634319
vn -0.553083 -0.656734943 -0.5126387
vn -0.649462938 -0.190681145 -0.736096859
vn -0.447238654 0.265732139 0.8540281
vn -0.262231767 0.463362038 0.846481
vn 0.422372073 0.4628924 0.779315352
vn -0.2593579 0.22505714 0.9391926
vn -0.190559521 -0.4197082 0.8874301
vn 0.5914689 -0.6466784 0.481634319
vn 0.7747183 -0.2655996 0.57381916
vn -0.675689161 -0.18991521 0.7123036
vn -0.537750244 -0.6551973 0.5306045
vn -0.8765896 -0.4390912 0.196950749
vn 0.8300966 0.5364363 -0.152235627
vn 0.3485556 0.359766841 -0.8654922
vn -0.6660489 -0.313576 -0.676793158
vn -0.778485 0.622871935 0.0774060562
vn -0.852974236 0.495720029 0.163390875
vn -0.487037182 0.527864158 0.6958119
vn 0.95300746 -0.3006461 0.03726533
vn 0.467957228 0.2582738 0.845169
vn 0.278693378 0.46156773 0.842190742
vn 0.9659757 -0.258319557 0.0127250813
vn 0.6389946 -0.349676669 -0.6851366
vn 0.698186159 -0.346524835 -0.6264636
vn -0.5209462 -0.107627407 -0.8467771
vn -0.373281866 0.236254677 -0.8971312
vn 0.6349221 -0.195225418 -0.747503161
vn 0.876752853 -0.445412844 0.181416079
vn -0.4085057 0.135440171 0.902651131
vn 0.6062448 -0.09488224 0.78959775
vn -0.865969241 -0.371282518 -0.3350322
vn -0.556796968 -0.735486448 -0.3860529
vn -0.485614955 -0.601934433 0.6339188
vn -0.537513435 -0.08029127 0.839423954
vn 0.5289237 -0.59805584 0.60213697
vn 0.6062448 -0.09488224 0.78959775
vn 0.277599454 0.223314226 0.9343818
vn -0.4085057 0.135440171 0.902651131
vn -0.7016852 -0.6445428 0.3036485
vn 0.203314126 -0.4211025 0.8839322
vn 0.5289237 -0.59805584 0.60213697
vn 0.5392444 -0.66059196 -0.5223349
vn -0.485614955 -0.601934433 0.6339188
vn -0.556796968 -0.735486448 -0.3860529
vn 0.5563792 -0.706440866 -0.437473983
vn -0.162263364 -0.7775085 -0.607578039
vn 0.7654052 -0.640288353 -0.064697206
vn 0.5563792 -0.706440866 -0.437473983
vn 0.968510151 -0.203592256 -0.14331165
vn -0.162263364 -0.7775085 -0.607578039
vn 0.7654052 -0.640288353 -0.064697206
vn 0.749430239 -0.396150768 -0.530489266
vn -0.35102576 -0.5003975 -0.791443765
vn -0.524899244 0.234043762 0.8183546
vn -0.9783255 0.0544268228 0.1997923
vn 0.0789895 -0.850233436 -0.520445764
vn 0.6868748 -0.194730043 0.7002023
vn 0.5424511 -0.6590101 0.521011
vn 0.0789895 -0.850233436 -0.520445764
vn -0.5873756 -0.64251405 0.492103279
vn 0.6349221 -0.195225418 -0.747503161
vn 0.5392444 -0.66059196 -0.5223349
vn 0.467957228 0.2582738 0.845169
vn -0.399871618 0.4715965 0.785938561
vn 0.278693378 0.46156773 0.842190742
vn 0.277599454 0.223314226 0.9343818
vn 0.203314126 -0.4211025 0.8839322
vn -0.5873756 -0.64251405 0.492103279
vn -0.7662622 -0.2601503 0.587506652
vn 0.5424511 -0.6590101 0.521011
vn 0.6868748 -0.194730043 0.7002023
vn 0.876752853 -0.445412844 0.181416079
vn -0.8221654 0.551361263 -0.141579777
vn -0.3559805 0.363377839 -0.860949755
vn 0.649352968 -0.3253764 -0.687365234
usemtl 9014001903_part_0_material_0
f 1/1/1 2/2/2 3/3/3
f 4/4/4 5/5/5 6/6/6
f 6/6/6 7/7/7 4/4/4
f 8/8/8 9/9/9 10/10/10
f 10/10/10 11/11/11 8/8/8
f 12/12/12 13/13/13 14/14/14
f 14/14/14 15/15/15 12/12/12
f 16/16/16 17/17/17 18/18/18
f 18/18/18 19/19/19 16/16/16
f 18/18/18 17/17/17 20/20/20
f 20/20/20 21/21/21 18/18/18
f 22/22/22 23/23/23 24/24/24
f 24/24/24 25/25/25 22/22/22
f 12/12/12 26/26/26 27/27/27
f 27/27/27 13/13/13 12/12/12
f 27/27/27 26/26/26 28/28/28
f 28/28/28 29/29/29 27/27/27
f 24/24/24 30/30/30 31/31/31
f 31/31/31 25/25/25 24/24/24
f 23/23/23 32/32/32 30/30/30
f 30/30/30 24/24/24 23/23/23
f 33/33/33 34/34/34 35/35/35
f 35/35/35 34/34/34 36/36/36
f 1/1/1 3/3/3 9/9/9
f 11/11/11 10/10/10 37/37/37
f 37/37/37 38/38/38 11/11/11
f 17/17/17 39/39/39 25/25/25
f 25/25/25 20/20/20 17/17/17
f 17/17/17 16/16/16 40/40/40
f 40/40/40 39/39/39 17/17/17
f 41/41/41 42/42/42 43/43/43
f 43/43/43 38/38/38 41/41/41
f 44/44/44 38/38/38 37/37/37
f 45/45/45 42/42/42 41/41/41
f 19/19/19 46/46/46 47/47/47
f 47/47/47 16/16/16 19/19/19
f 25/25/25 39/39/39 2/2/2
f 48/48/48 49/49/49 2/2/2
f 2/2/2 50/50/50 48/48/48
f 51/51/51 35/35/35 36/36/36
f 36/36/36 52/52/52 51/51/51
f 49/49/49 22/22/22 25/25/25
f 25/25/25 2/2/2 49/49/49
f 39/39/39 40/40/40 3/3/3
f 3/3/3 2/2/2 39/39/39
f 53/53/53 44/44/44 37/37/37
f 37/37/37 54/54/54 53/53/53
f 10/10/10 3/3/3 40/40/40
f 53/53/53 54/54/54 55/55/55
f 55/55/55 56/56/56 53/53/53
f 54/54/54 40/40/40 57/57/57
f 57/57/57 55/55/55 54/54/54
f 40/40/40 16/16/16 47/47/47
f 47/47/47 57/57/57 40/40/40
f 40/40/40 54/54/54 37/37/37
f 37/37/37 10/10/10 40/40/40
f 11/11/11 38/38/38 43/43/43
f 43/43/43 15/15/15 11/11/11
f 5/5/5 4/4/4 8/8/8
f 8/8/8 33/33/33 5/5/5
f 35/35/35 51/51/51 6/6/6
f 6/6/6 5/5/5 35/35/35
f 50/50/50 1/1/1 58/58/58
f 58/58/58 1/1/1 59/59/59
f 9/9/9 8/8/8 60/60/60
f 60/60/60 59/59/59 9/9/9
f 60/60/60 8/8/8 4/4/4
f 3/3/3 10/10/10 9/9/9
f 1/1/1 50/50/50 2/2/2
f 1/1/1 9/9/9 59/59/59
f 11/11/11 15/15/15 33/33/33
f 33/33/33 8/8/8 11/11/11
f 33/33/33 35/35/35 5/5/5
f 15/15/15 14/14/14 33/33/33
f 61/61/61 62/62/62 63/63/63
f 64/64/64 65/65/65 66/66/66
f 66/66/66 67/67/67 64/64/64
f 68/68/68 69/69/69 70/70/70
f 70/70/70 71/71/71 68/68/68
f 72/72/72 73/73/73 74/74/74
f 74/74/74 75/75/75 72/72/72
f 76/76/76 77/77/77 78/78/78
f 78/78/78 79/79/79 76/76/76
f 78/78/78 80/80/80 81/81/81
f 81/81/81 79/79/79 78/78/78
f 82/82/82 83/83/83 84/84/84
f 84/84/84 85/85/85 82/82/82
f 72/72/72 75/75/75 86/86/86
f 86/86/86 87/87/87 72/72/72
f 86/86/86 88/88/88 89/89/89
f 89/89/89 87/87/87 86/86/86
f 84/84/84 83/83/83 90/90/90
f 90/90/90 91/91/91 84/84/84
f 85/85/85 84/84/84 91/91/91
f 91/91/91 92/92/92 85/85/85
f 93/93/93 94/94/94 95/95/95
f 94/94/94 96/96/96 95/95/95
f 61/61/61 71/71/71 62/62/62
f 69/69/69 97/97/97 98/98/98
f 98/98/98 70/70/70 69/69/69
f 79/79/79 81/81/81 83/83/83
f 83/83/83 99/99/99 79/79/79
f 79/79/79 99/99/99 100/100/100
f 100/100/100 76/76/76 79/79/79
f 101/101/101 97/97/97 102/102/102
f 102/102/102 103/103/103 101/101/101
f 104/104/104 98/98/98 97/97/97
f 105/105/105 101/101/101 103/103/103
f 77/77/77 76/76/76 106/106/106
f 106/106/106 107/107/107 77/77/77
f 83/83/83 63/63/63 99/99/99
f 108/108/108 109/109/109 63/63/63
f 63/63/63 110/110/110 108/108/108
f 111/111/111 112/112/112 96/96/96
f 96/96/96 94/94/94 111/111/111
f 110/110/110 63/63/63 83/83/83
f 83/83/83 82/82/82 110/110/110
f 99/99/99 63/63/63 62/62/62
f 62/62/62 100/100/100 99/99/99
f 113/113/113 114/114/114 98/98/98
f 98/98/98 104/104/104 113/113/113
f 70/70/70 100/100/100 62/62/62
f 113/113/113 115/115/115 116/116/116
f 116/116/116 114/114/114 113/113/113
f 114/114/114 116/116/116 117/117/117
f 117/117/117 100/100/100 114/114/114
f 100/100/100 117/117/117 106/106/106
f 106/106/106 76/76/76 100/100/100
f 100/100/100 70/70/70 98/98/98
f 98/98/98 114/114/114 100/100/100
f 69/69/69 73/73/73 102/102/102
f 102/102/102 97/97/97 69/69/69
f 67/67/67 68/68/68 64/64/64
f 68/68/68 67/67/67 93/93/93
f 94/94/94 67/67/67 66/66/66
f 66/66/66 111/111/111 94/94/94
f 109/109/109 118/118/118 61/61/61
f 118/118/118 119/119/119 61/61/61
f 71/71/71 119/119/119 120/120/120
f 120/120/120 68/68/68 71/71/71
f 120/120/120 64/64/64 68/68/68
f 62/62/62 71/71/71 70/70/70
f 61/61/61 63/63/63 109/109/109
f 61/61/61 119/119/119 71/71/71
f 69/69/69 68/68/68 93/93/93
f 93/93/93 73/73/73 69/69/69
f 93/93/93 67/67/67 94/94/94
f 73/73/73 93/93/93 74/74/74
