mtllib 9014001103.mtl
o 9014001103_part_0
v 0.302975118 0.630302548 -0.0494546033
v 0.278766453 0.6890228 -0.05671629
v 0.240480646 0.677338839 -0.007451821
v 0.259190917 0.6249629 -0.000582098961
v 0.229749262 0.570937455 -0.0331522822
v 0.223330721 0.5933017 -0.034211643
v 0.2626074 0.6045592 -0.108166993
v 0.272458017 0.5863066 -0.106187932
v 0.2601143 0.596355736 0.005419166
v 0.240715653 0.52981 -0.007215984
v 0.2601143 0.596355736 0.005419166
v 0.24451232 0.616273165 -0.00662383623
v 0.223330721 0.5933017 -0.034211643
v 0.314174175 0.518671 -0.11913836
v 0.272458017 0.5863066 -0.106187932
v 0.295487821 0.5956652 -0.1037048
v 0.354056418 0.526363552 -0.105440639
v 0.294694424 0.522240639 0.00198678114
v 0.314174175 0.518671 -0.11913836
v 0.33494556 0.4143434 0.0238257684
v 0.3343466 0.414609253 0.00188148767
v 0.362611115 0.4883324 -0.009997845
v 0.3711797 0.4984361 0.0151877627
v 0.3164394 0.4988215 -0.02609123
v 0.294694424 0.522240639 0.00198678114
v 0.314174175 0.518671 -0.11913836
v 0.32055974 0.490653217 -0.119323753
v 0.31953758 0.4856693 0.0181665681
v 0.3151794 0.422077447 0.0328105949
v 0.291253626 0.4785083 0.0635772347
v 0.261757135 0.538106143 0.0396685973
v 0.24882175 0.467176557 0.0534550324
v 0.3151794 0.422077447 0.0328105949
v 0.31953758 0.4856693 0.0181665681
v 0.3164394 0.4988215 -0.02609123
v 0.322461665 0.4205954 0.0009728633
v 0.3343466 0.414609253 0.00188148767
v 0.33494556 0.4143434 0.0238257684
v 0.291253626 0.4785083 0.0635772347
v 0.277722538 0.451340616 0.0302869678
v 0.294694424 0.522240639 0.00198678114
v 0.32956773 0.531011939 0.0104992911
v 0.29807502 0.5326085 0.029468406
v 0.240715653 0.52981 -0.007215984
v 0.24882175 0.467176557 0.0534550324
v 0.261757135 0.538106143 0.0396685973
v 0.277722538 0.451340616 0.0302869678
v 0.2601143 0.596355736 0.005419166
v 0.261757135 0.538106143 0.0396685973
v 0.29807502 0.5326085 0.029468406
v 0.261757135 0.538106143 0.0396685973
v 0.2601143 0.596355736 0.005419166
v 0.240715653 0.52981 -0.007215984
v 0.321425319 0.6072514 -0.0438117571
v 0.3639604 0.542239964 -0.0248948112
v 0.352760315 0.4893283 -0.10745459
v 0.354056418 0.526363552 -0.105440639
v 0.3639604 0.542239964 -0.0248948112
v 0.362611115 0.4883324 -0.009997845
v 0.32055974 0.490653217 -0.119323753
v 0.314174175 0.518671 -0.11913836
v 0.32956773 0.531011939 0.0104992911
v 0.31953758 0.4856693 0.0181665681
v 0.3711797 0.4984361 0.0151877627
v 0.297228873 0.413849622 -0.003200084
v 0.32055974 0.490653217 -0.119323753
v 0.3184573 0.408171475 -0.08626407
v 0.31953758 0.4856693 0.0181665681
v 0.3184573 0.408171475 -0.08626407
v 0.32055974 0.490653217 -0.119323753
v 0.352760315 0.4893283 -0.10745459
v 0.317123055 0.411850274 -0.00513285026
v 0.317123055 0.411850274 -0.00513285026
v 0.3164394 0.4988215 -0.02609123
v 0.297228873 0.413849622 -0.003200084
v 0.322461665 0.4205954 0.0009728633
v 0.240480646 0.677338839 -0.007451821
v 0.20557417 0.763564467 -0.006045919
v 0.175353333 0.7472881 -0.00626278436
v 0.218470529 0.663653553 -0.0109472908
v 0.223578081 0.6514098 -0.120905913
v 0.173268571 0.736170948 -0.124447577
v 0.216045246 0.764018059 -0.119868144
v 0.259719 0.6698641 -0.113587491
v 0.173268571 0.736170948 -0.124447577
v 0.223578081 0.6514098 -0.120905913
v 0.196997881 0.6420099 -0.05197668
v 0.14771463 0.7255933 -0.0600586832
v 0.283083558 0.6155042 -0.103384674
v 0.2388003 0.7821932 -0.06565145
v 0.20557417 0.763564467 -0.006045919
v 0.2000329 0.742745936 -0.0622897744
v 0.175353333 0.7472881 -0.00626278436
v 0.2388003 0.7821932 -0.06565145
v 0.216045246 0.764018059 -0.119868144
v 0.173268571 0.736170948 -0.124447577
v 0.14771463 0.7255933 -0.0600586832
v 0.251560032 0.816078246 -0.0620248728
v 0.2317982 0.8064854 -0.126625568
v 0.224980637 0.839487255 -0.128006041
v 0.2469552 0.849635243 -0.06263591
v 0.220583215 0.806624 -0.00183807919
v 0.213613674 0.8395486 -0.001956372
v 0.241455734 0.7765503 -0.06273063
v 0.227663264 0.769629359 -0.1189525
v 0.21796976 0.769785047 -0.00974215
v 0.247664884 0.763168752 -0.0621064119
v 0.232680574 0.7559468 -0.118920773
v 0.222802356 0.756106257 -0.007989688
v 0.1563202 0.7830794 0.0130932424
v 0.143820569 0.814388156 0.0106012188
v 0.170159832 0.752747536 0.00413343776
v 0.173520133 0.738988936 0.006201609
v 0.182975426 0.7525423 -0.140197784
v 0.1866862 0.7387761 -0.1416828
v 0.171194181 0.7828969 -0.152392089
v 0.15853937 0.8143196 -0.152279645
v 0.2311988 0.880700469 -0.0641510859
v 0.209866479 0.8716261 -0.120775931
v 0.200013086 0.8716163 -0.0120660532
v 0.133620963 0.8488182 -0.00142328162
v 0.146373123 0.8488487 -0.141826
v 0.229382917 0.895892143 -0.06437497
v 0.208358929 0.8873783 -0.124964759
v 0.197816029 0.887352467 -0.007608595
v 0.132817939 0.866393 0.00348739978
v 0.146390855 0.86645174 -0.147265971
v 0.20557417 0.763564467 -0.006045919
v 0.32956773 0.531011939 0.0104992911
v 0.2484052 0.8147918 -0.06227936
v 0.243800312 0.848348856 -0.06289041
v 0.221825823 0.838200748 -0.128260553
v 0.228643343 0.805198967 -0.12688005
v 0.217428327 0.805337548 -0.00209257239
v 0.21045877 0.83826226 -0.00221086526
v 0.238300875 0.775263846 -0.06298512
v 0.224461451 0.7683439 -0.118638285
v 0.214814946 0.768498659 -0.00999663
v 0.228043988 0.879414 -0.06440557
v 0.206664637 0.870340645 -0.120461725
v 0.196858257 0.87033 -0.0123205427
v 0.29807502 0.5326085 0.029468406
v 0.294694424 0.522240639 0.00198678114
v 0.29807502 0.5326085 0.029468406
v 0.24451232 0.616273165 -0.00662383623
v -0.307734251 0.6345503 -0.0436962023
v -0.261287332 0.6272932 0.001990417
v -0.234043971 0.6787054 -0.00467217341
v -0.283247769 0.6930424 -0.0513828136
v -0.281399429 0.6181235 -0.09124725
v -0.228095189 0.5969864 -0.0298678745
v -0.234651849 0.57466805 -0.02869327
v -0.2903148 0.6034744 -0.09522847
v -0.229475439 0.6550442 -0.116540141
v -0.281399429 0.6181235 -0.09124725
v -0.260866582 0.67487 -0.109412663
v -0.264631033 0.6002047 0.007819137
v -0.245442331 0.5336736 -0.00257126242
v -0.264631033 0.6002047 0.007819137
v -0.228095189 0.5969864 -0.0298678745
v -0.2903148 0.6034744 -0.09522847
v -0.320953965 0.5230609 -0.113170631
v -0.360531271 0.53103447 -0.09876718
v -0.299301267 0.526485264 0.007589196
v -0.320953965 0.5230609 -0.113170631
v -0.339919925 0.418874025 0.0301464535
v -0.375706434 0.5032213 0.0221480615
v -0.367658138 0.493058741 -0.003185127
v -0.339708984 0.419136941 0.008194979
v -0.321706474 0.5032223 -0.0200966932
v -0.327539682 0.4950891 -0.113240823
v -0.320953965 0.5230609 -0.113170631
v -0.299301267 0.526485264 0.007589196
v -0.3241111 0.490089536 0.0242099836
v -0.31994313 0.426467538 0.0387783
v -0.29507637 0.482725918 0.0691116
v -0.252912223 0.4710951 0.05823808
v -0.265588641 0.542115331 0.0446790755
v -0.31994313 0.426467538 0.0387783
v -0.327799976 0.425038934 0.00707503036
v -0.321706474 0.5032223 -0.0200966932
v -0.3241111 0.490089536 0.0242099836
v -0.339708984 0.419136941 0.008194979
v -0.339919925 0.418874025 0.0301464535
v -0.302119851 0.5368752 0.035125874
v -0.33395493 0.5355024 0.0167191811
v -0.299301267 0.526485264 0.007589196
v -0.29507637 0.482725918 0.0691116
v -0.282331049 0.455465376 0.0355879739
v -0.245442331 0.5336736 -0.00257126242
v -0.265588641 0.542115331 0.0446790755
v -0.252912223 0.4710951 0.05823808
v -0.282331049 0.455465376 0.0355879739
v -0.264631033 0.6002047 0.007819137
v -0.302119851 0.5368752 0.035125874
v -0.265588641 0.542115331 0.0446790755
v -0.265588641 0.542115331 0.0446790755
v -0.245442331 0.5336736 -0.00257126242
v -0.264631033 0.6002047 0.007819137
v -0.326243758 0.6116298 -0.0377251022
v -0.368890584 0.5469755 -0.0180591829
v -0.359533 0.4939912 -0.100801535
v -0.367658138 0.493058741 -0.003185127
v -0.368890584 0.5469755 -0.0180591829
v -0.360531271 0.53103447 -0.09876718
v -0.320953965 0.5230609 -0.113170631
v -0.327539682 0.4950891 -0.113240823
v -0.33395493 0.5355024 0.0167191811
v -0.375706434 0.5032213 0.0221480615
v -0.3241111 0.490089536 0.0242099836
v -0.3026936 0.418115377 0.00245499983
v -0.325433552 0.4125926 -0.08021848
v -0.327539682 0.4950891 -0.113240823
v -0.3241111 0.490089536 0.0242099836
v -0.325433552 0.4125926 -0.08021848
v -0.359533 0.4939912 -0.100801535
v -0.327539682 0.4950891 -0.113240823
v -0.3226326 0.416256845 0.0008759983
v -0.3226326 0.416256845 0.0008759983
v -0.321706474 0.5032223 -0.0200966932
v -0.3026936 0.418115377 0.00245499983
v -0.327799976 0.425038934 0.00707503036
v -0.152276322 0.7271608 -0.0585035235
v -0.199973479 0.761099935 -0.004884091
v -0.234043971 0.6787054 -0.00467217341
v -0.201742336 0.6454524 -0.0480932631
v -0.212440059 0.756168962 -0.118404247
v -0.178341359 0.7378479 -0.122617118
v -0.178341359 0.7378479 -0.122617118
v -0.229475439 0.6550442 -0.116540141
v -0.241914257 0.7855343 -0.06342158
v -0.199973479 0.761099935 -0.004884091
v -0.152276322 0.7271608 -0.0585035235
v -0.183766752 0.7448245 -0.0621748269
v -0.241914257 0.7855343 -0.06342158
v -0.212440059 0.756168962 -0.118404247
v -0.178341359 0.7378479 -0.122617118
v -0.25572437 0.8180003 -0.05957881
v -0.251012266 0.8515366 -0.0602421165
v -0.229675233 0.8413334 -0.125750512
v -0.236589178 0.8083599 -0.124298945
v -0.224275082 0.8084185 0.000287591945
v -0.217198327 0.8413139 9.58759338E-05
v -0.245773956 0.7784425 -0.06035963
v -0.232518569 0.771491945 -0.11665573
v -0.221862972 0.7715782 -0.007620175
v -0.252018332 0.7650845 -0.05967608
v -0.237578556 0.7578291 -0.116574682
v -0.22672309 0.757917762 -0.00582140964
v -0.16002281 0.784645438 0.0146449339
v -0.147447988 0.8159065 0.0120329354
v -0.17403473 0.7543697 0.005825974
v -0.177421466 0.740624249 0.00792714953
v -0.18812184 0.754256368 -0.138274223
v -0.191890284 0.740505755 -0.139720231
v -0.1763543 0.7845689 -0.150573909
v -0.1636009 0.8159425 -0.150585
v -0.235176 0.8825422 -0.0619068742
v -0.214399025 0.8734121 -0.118671775
v -0.203588724 0.873332262 -0.0101376325
v -0.13724485 0.8502995 -8.45138E-05
v -0.151232824 0.8504204 -0.140260041
v -0.2333108 0.8977254 -0.06215208
v -0.212875172 0.889157951 -0.12287616
v -0.2012992 0.889057 -0.005708878
v -0.1363376 0.8678674 0.004808817
v -0.151237473 0.8680228 -0.145701647
v -0.199973479 0.761099935 -0.004884091
v -0.33395493 0.5355024 0.0167191811
v -0.252579331 0.816702962 -0.0598606281
v -0.23344408 0.8070625 -0.124580771
v -0.226530135 0.840036154 -0.126032338
v -0.247867182 0.8502392 -0.0605239347
v -0.22113 0.807121158 5.77187166E-06
v -0.214053228 0.840016663 -0.0001859446
v -0.242628887 0.777145147 -0.06064145
v -0.2293215 0.770195246 -0.116369732
v -0.2187179 0.770280838 -0.007901993
v -0.232030943 0.8812448 -0.0621886849
v -0.211201951 0.8721154 -0.118385784
v -0.20044364 0.8720351 -0.0104194544
v -0.302119851 0.5368752 0.035125874
v -0.299301267 0.526485264 0.007589196
v -0.302119851 0.5368752 0.035125874
v -0.261287332 0.6272932 0.001990417
v 0.259190917 0.6249629 -0.000582098961
v 0.2626074 0.6045592 -0.108166993
v 0.283083558 0.6155042 -0.103384674
v 0.295487821 0.5956652 -0.1037048
vt 0.6975763 0.4880429
vt 0.608112931 0.457025826
vt 0.633640647 0.384975374
vt 0.715179443 0.4281894
vt 0.7422523 0.5031899
vt 0.701192141 0.453158379
vt 0.6876304 0.575886369
vt 0.7408575 0.5956356
vt 0.7754179 0.41473943
vt 0.7942375 0.447888732
vt 0.7756144 0.415905118
vt 0.717639148 0.42386657
vt 0.73108983 0.400227845
vt 0.785650134 0.6109729
vt 0.7294608 0.594694257
vt 0.7305282 0.578299046
vt 0.796491146 0.584928
vt 0.8209147 0.479428172
vt 0.786824763 0.609782755
vt 0.0398947559 0.056417048
vt 0.04892227 0.05432552
vt 0.05239008 0.0844531059
vt 0.0429511443 0.0907611847
vt 0.103985 0.6365098
vt 0.140169472 0.7081776
vt 0.0267750379 0.734962
vt 0.0285742022 0.687734544
vt 0.0362531729 0.08954847
vt 0.035523 0.063362956
vt 0.0523986481 0.06310767
vt 0.04455649 0.082678616
vt 0.04326252 0.0569468737
vt 0.03858883 0.06067127
vt 0.0399926044 0.0788123
vt 0.0590270534 0.08034116
vt 0.0607092977 0.05934441
vt 0.05692015 0.0510553122
vt 0.044656232 0.0519718528
vt 0.0568593629 0.05960089
vt 0.0639829338 0.05646181
vt 0.04721946 0.07512128
vt 0.0443401523 0.0797222257
vt 0.0473856665 0.0757316351
vt 0.0572676137 0.08093971
vt 0.07422577 0.06019026
vt 0.06825155 0.08326644
vt 0.0549423173 0.0550467968
vt 0.7990328 0.5584621
vt 0.7883941 0.547325552
vt 0.8129873 0.5424793
vt 0.7887651 0.5431076
vt 0.78127 0.554373443
vt 0.7767638 0.540582538
vt 0.7384334 0.5025534
vt 0.8068133 0.5215557
vt 0.124463111 0.7137694
vt 0.131343633 0.6441105
vt 0.08546422 0.6204293
vt 0.07448514 0.730111361
vt 0.148980185 0.7011092
vt 0.1520371 0.6591046
vt 0.06353712 0.629720151
vt 0.0564220026 0.7180045
vt 0.06455919 0.716478348
vt 0.0578639954 0.07499325
vt 0.110554166 0.10452354
vt 0.100569807 0.07898718
vt 0.131842315 0.6332714
vt 0.08940369 0.06962752
vt 0.112478837 0.103109479
vt 0.09295808 0.09540379
vt 0.0529209 0.0529572368
vt 0.06163113 0.06012088
vt 0.0512965024 0.0641554
vt 0.0509485 0.0550197363
vt 0.05061558 0.0551404357
vt 0.6435337 0.3622861
vt 0.5365542 0.3200041
vt 0.514946342 0.38235563
vt 0.624498 0.425872028
vt 0.579279661 0.5656327
vt 0.4656713 0.5488651
vt 0.497809529 0.494439
vt 0.5985373 0.524622858
vt 0.465621471 0.5497313
vt 0.579052746 0.566114962
vt 0.605462253 0.489457965
vt 0.4933384 0.444707155
vt 0.6786816 0.570372462
vt 0.499079883 0.4241976
vt 0.534171 0.720014751
vt 0.555318534 0.803653538
vt 0.57805264 0.7547492
vt 0.473412126 0.770948231
vt 0.475734919 0.8273037
vt 0.5737816 0.8495312
vt 0.6219343 0.7894836
vt 0.735159457 0.3665713
vt 0.739327669 0.4999982
vt 0.6561556 0.474395156
vt 0.6555667 0.336124837
vt 0.73946023 0.5001308
vt 0.6562671 0.475277066
vt 0.7926657 0.433408022
vt 0.780999064 0.518907964
vt 0.780999064 0.518907964
vt 0.839774966 0.4404707
vt 0.8215086 0.52867
vt 0.8215086 0.52867
vt 0.715651035 0.603247643
vt 0.626125038 0.5988483
vt 0.769139647 0.612586856
vt 0.825001538 0.6222113
vt 0.769139647 0.612586856
vt 0.825001538 0.6222113
vt 0.71465373 0.603932261
vt 0.6258868 0.5990633
vt 0.545994639 0.328307629
vt 0.514065564 0.439287663
vt 0.514065564 0.439287663
vt 0.49308452 0.5601352
vt 0.49308452 0.5601352
vt 0.5258605 0.3183841
vt 0.476477861 0.4281608
vt 0.476477861 0.4281608
vt 0.458034277 0.553885162
vt 0.458034277 0.553885162
vt 0.525692344 0.3459466
vt 0.8095748 0.488367677
vt 0.735159457 0.3665713
vt 0.6555667 0.336124837
vt 0.6561556 0.474395156
vt 0.739327669 0.4999982
vt 0.73946023 0.5001308
vt 0.6562671 0.475277066
vt 0.7926657 0.433408022
vt 0.780999064 0.518907964
vt 0.780999064 0.518907964
vt 0.545994639 0.328307629
vt 0.514065564 0.439287663
vt 0.514065564 0.439287663
vt 0.06706505 0.07821292
vt 0.0563227423 0.661511958
vt 0.8198131 0.446299076
vt 0.723413 0.379474163
vt 0.6975763 0.4880429
vt 0.709875941 0.437509954
vt 0.633640647 0.384975374
vt 0.608112931 0.457025826
vt 0.6682118 0.583241642
vt 0.701192141 0.453158379
vt 0.7422523 0.5031899
vt 0.721003532 0.5901177
vt 0.579279661 0.5656327
vt 0.672376752 0.5661223
vt 0.5925235 0.526648939
vt 0.7754179 0.41473943
vt 0.7942375 0.447888732
vt 0.7756144 0.415905118
vt 0.73108983 0.400227845
vt 0.722657561 0.577571452
vt 0.785650134 0.6109729
vt 0.796491146 0.584928
vt 0.8209147 0.479428172
vt 0.786824763 0.609782755
vt 0.0398947559 0.056417048
vt 0.0429511443 0.0907611847
vt 0.05239008 0.0844531059
vt 0.04892227 0.05432552
vt 0.103985 0.6365098
vt 0.0285742022 0.687734544
vt 0.0267750379 0.734962
vt 0.140169472 0.7081776
vt 0.0362531729 0.08954847
vt 0.035523 0.063362956
vt 0.0523986481 0.06310767
vt 0.04326252 0.0569468737
vt 0.04455649 0.082678616
vt 0.03858883 0.06067127
vt 0.0607092977 0.05934441
vt 0.0590270534 0.08034116
vt 0.0399926044 0.0788123
vt 0.05692015 0.0510553122
vt 0.044656232 0.0519718528
vt 0.0473856665 0.0757316351
vt 0.0443401523 0.0797222257
vt 0.04721946 0.07512128
vt 0.0568593629 0.05960089
vt 0.0639829338 0.05646181
vt 0.0572676137 0.08093971
vt 0.06825155 0.08326644
vt 0.07422577 0.06019026
vt 0.0549423173 0.0550467968
vt 0.7990328 0.5584621
vt 0.8129873 0.5424793
vt 0.7883941 0.547325552
vt 0.7887651 0.5431076
vt 0.7767638 0.540582538
vt 0.78127 0.554373443
vt 0.7384334 0.5025534
vt 0.8068133 0.5215557
vt 0.124463111 0.7137694
vt 0.07448514 0.730111361
vt 0.08546422 0.6204293
vt 0.131343633 0.6441105
vt 0.1520371 0.6591046
vt 0.148980185 0.7011092
vt 0.06353712 0.629720151
vt 0.06455919 0.716478348
vt 0.0564220026 0.7180045
vt 0.0578639954 0.07499325
vt 0.100569807 0.07898718
vt 0.110554166 0.10452354
vt 0.131842315 0.6332714
vt 0.08940369 0.06962752
vt 0.09295808 0.09540379
vt 0.112478837 0.103109479
vt 0.0529209 0.0529572368
vt 0.06163113 0.06012088
vt 0.0512965024 0.0641554
vt 0.0509485 0.0550197363
vt 0.05061558 0.0551404357
vt 0.4933384 0.444707155
vt 0.5365542 0.3200041
vt 0.6435337 0.3622861
vt 0.605462253 0.489457965
vt 0.48386544 0.5018816
vt 0.4656713 0.5488651
vt 0.465621471 0.5497313
vt 0.579052746 0.566114962
vt 0.499079883 0.4241976
vt 0.534171 0.720014751
vt 0.6219343 0.7894836
vt 0.555318534 0.803653538
vt 0.473412126 0.770948231
vt 0.496180028 0.8354918
vt 0.5737816 0.8495312
vt 0.735159457 0.3665713
vt 0.6555667 0.336124837
vt 0.6561556 0.474395156
vt 0.739327669 0.4999982
vt 0.73946023 0.5001308
vt 0.6562671 0.475277066
vt 0.7926657 0.433408022
vt 0.780999064 0.518907964
vt 0.780999064 0.518907964
vt 0.839774966 0.4404707
vt 0.8215086 0.52867
vt 0.8215086 0.52867
vt 0.715651035 0.603247643
vt 0.626125038 0.5988483
vt 0.769139647 0.612586856
vt 0.825001538 0.6222113
vt 0.769139647 0.612586856
vt 0.825001538 0.6222113
vt 0.71465373 0.603932261
vt 0.6258868 0.5990633
vt 0.545994639 0.328307629
vt 0.514065564 0.439287663
vt 0.514065564 0.439287663
vt 0.49308452 0.5601352
vt 0.49308452 0.5601352
vt 0.5258605 0.3183841
vt 0.476477861 0.4281608
vt 0.476477861 0.4281608
vt 0.458034277 0.553885162
vt 0.458034277 0.553885162
vt 0.525692344 0.3459466
vt 0.8095748 0.488367677
vt 0.735159457 0.3665713
vt 0.739327669 0.4999982
vt 0.6561556 0.474395156
vt 0.6555667 0.336124837
vt 0.73946023 0.5001308
vt 0.6562671 0.475277066
vt 0.7926657 0.433408022
vt 0.780999064 0.518907964
vt 0.780999064 0.518907964
vt 0.545994639 0.328307629
vt 0.514065564 0.439287663
vt 0.514065564 0.439287663
vt 0.06706505 0.07821292
vt 0.0563227423 0.661511958
vt 0.8198131 0.446299076
vt 0.736238 0.3369466
vt 0.727476537 0.36599952
vt 0.6623341 0.5842871
vt 0.680436552 0.5876836
vt 0.7175568 0.5899927
vn 0.8449992 0.524400234 0.1047891
vn 0.9074058 0.402370423 0.121296383
vn 0.3462317 0.176311523 0.9214325
vn 0.191058218 0.229715437 0.9543205
vn -0.917010069 -0.398771852 0.008577413
vn -0.9258448 -0.3325846 0.179440692
vn -0.2811499 -0.3256649 -0.9027165
vn -0.4133713 -0.189138472 -0.8907024
vn -0.18491967 0.294565916 0.937569
vn -0.8234397 -0.329350054 -0.462034166
vn -0.18491967 0.294565916 0.937569
vn -0.592512965 -0.07837082 0.801739633
vn -0.9258448 -0.3325846 0.179440692
vn -0.384653956 -0.188927829 -0.9035196
vn -0.4133713 -0.189138472 -0.8907024
vn 0.450859457 0.38635 -0.804648638
vn 0.762395263 0.2241179 -0.6070623
vn -0.141096458 -0.970212936 -0.196922973
vn -0.384653956 -0.188927829 -0.9035196
vn 0.4155699 -0.748221755 0.517170966
vn 0.310214162 -0.821082354 -0.4791565
vn 0.9362067 -0.3024187 -0.179052979
vn 0.8151398 0.0664055645 0.5754454
vn -0.959911168 -0.278290719 -0.033538
vn -0.141096458 -0.970212936 -0.196922973
vn -0.384653956 -0.188927829 -0.9035196
vn -0.4478691 -0.163691491 -0.878987134
vn -0.5951948 0.0372308567 0.802718461
vn -0.529319942 -0.3834112 0.756846249
vn 0.579077542 -0.229763508 0.782226264
vn -0.3908867 0.4364467 0.8103838
vn -0.718472362 -0.4882363 0.49540168
vn -0.529319942 -0.3834112 0.756846249
vn -0.5951948 0.0372308567 0.802718461
vn -0.959911168 -0.278290719 -0.033538
vn -0.613574266 -0.562698543 -0.5539828
vn 0.310214162 -0.821082354 -0.4791565
vn 0.4155699 -0.748221755 0.517170966
vn 0.579077542 -0.229763508 0.782226264
vn 0.21128 -0.935807765 -0.282178372
vn -0.141096458 -0.970212936 -0.196922973
vn 0.291456431 0.340222657 0.89403677
vn 0.6838489 0.164786831 0.7107714
vn -0.8234397 -0.329350054 -0.462034166
vn -0.718472362 -0.4882363 0.49540168
vn -0.3908867 0.4364467 0.8103838
vn 0.21128 -0.935807765 -0.282178372
vn -0.18491967 0.294565916 0.937569
vn -0.3908867 0.4364467 0.8103838
vn 0.6838489 0.164786831 0.7107714
vn -0.3908867 0.4364467 0.8103838
vn -0.18491967 0.294565916 0.937569
vn -0.8234397 -0.329350054 -0.462034166
vn 0.7648332 0.6210644 0.171199188
vn 0.891618252 0.401798725 0.208745554
vn 0.7665224 -0.223234043 -0.602171063
vn 0.762395263 0.2241179 -0.6070623
vn 0.891618252 0.401798725 0.208745554
vn 0.9362067 -0.3024187 -0.179052979
vn -0.4478691 -0.163691491 -0.878987134
vn -0.384653956 -0.188927829 -0.9035196
vn 0.291456431 0.340222657 0.89403677
vn -0.5951948 0.0372308567 0.802718461
vn 0.8151398 0.0664055645 0.5754454
vn -0.6555713 -0.403852165 0.6380671
vn -0.4478691 -0.163691491 -0.878987134
vn -0.06178715 -0.8509248 -0.521641
vn -0.5951948 0.0372308567 0.802718461
vn -0.06178715 -0.8509248 -0.521641
vn -0.4478691 -0.163691491 -0.878987134
vn 0.7665224 -0.223234043 -0.602171063
vn 0.4091654 -0.6313946 0.658729434
vn 0.4091654 -0.6313946 0.658729434
vn -0.959911168 -0.278290719 -0.033538
vn -0.6555713 -0.403852165 0.6380671
vn -0.613574266 -0.562698543 -0.5539828
vn 0.3462317 0.176311523 0.9214325
vn 0.0249699615 0.7680586 0.6398926
vn -0.653526664 0.431423724 0.621913552
vn -0.479489267 -0.2339928 0.8457762
vn -0.3515216 -0.3839957 -0.853803158
vn -0.6598169 0.3104963 -0.684276
vn 0.06604828 0.762225866 -0.6439327
vn 0.5997463 0.168531477 -0.782241344
vn -0.6598169 0.3104963 -0.684276
vn -0.3515216 -0.3839957 -0.853803158
vn -0.855457664 -0.511408 0.08157258
vn -0.978377 0.205946282 0.0190944318
vn 0.5752758 0.2187565 -0.788164556
vn 0.33455345 0.942330241 0.009364275
vn 0.0249699615 0.7680586 0.6398926
vn -0.5289922 0.84573406 -0.07000845
vn -0.653526664 0.431423724 0.621913552
vn 0.33455345 0.942330241 0.009364275
vn 0.06604828 0.762225866 -0.6439327
vn -0.6598169 0.3104963 -0.684276
vn -0.978377 0.205946282 0.0190944318
vn 0.9965903 -0.027344998 0.07784582
vn 0.7557893 -0.0357327946 -0.653839231
vn 0.6475386 0.263645232 -0.714972
vn 0.946786 0.3103791 0.08521238
vn 0.6307152 -0.0262669511 0.775569737
vn 0.508309841 0.288495123 0.811413348
vn 0.993753552 0.0781529844 0.0796615258
vn 0.756764531 0.0180127546 -0.653439343
vn 0.640395463 0.02777106 0.7675431
vn 0.6777041 -0.73174727 0.07254727
vn 0.4098559 -0.835571349 -0.36583963
vn 0.3576993 -0.810582042 0.4636895
vn -0.886624932 -0.359994471 0.290345
vn -0.9330113 -0.2763126 0.230523854
vn -0.9726688 -0.175857782 0.151622385
vn -0.554704964 -0.780603051 0.288029939
vn -0.6120454 -0.764279 -0.20317
vn 1 0 0
vn -0.8366414 -0.2120301 -0.505049
vn -0.842133641 -0.343848258 -0.415426672
vn 0.953626335 0.288971573 0.08421559
vn 0.672638535 0.1684417 -0.720544755
vn 0.550253749 0.142528862 0.8227432
vn -0.989167154 -0.14391458 -0.0289297234
vn -0.974302232 0.184471354 -0.129249558
vn 0.21322161 0.9769223 0.0126244165
vn -0.04893112 0.81348443 -0.579524636
vn -0.167333215 0.791852534 0.5873407
vn -0.8645633 0.3830031 0.325328916
vn 1 0 0
vn 0.0249699615 0.7680586 0.6398926
vn 0.291456431 0.340222657 0.89403677
vn -0.9965903 0.02734432 -0.0778462
vn -0.9467859 -0.310379058 -0.08521274
vn -0.648512542 -0.269212335 0.7120086
vn -0.7594511 0.03822419 0.649440467
vn -0.636407256 0.0246472023 -0.7709593
vn -0.5130098 -0.289866179 -0.8079595
vn -0.9780299 -0.193740577 -0.0769549757
vn -0.735264 -0.108038321 0.669114769
vn -0.610943854 -0.09985153 -0.7853517
vn -0.979456663 -0.182759 -0.08522767
vn -0.683184147 -0.0991806239 0.7234795
vn -0.549046159 -0.083801426 -0.8315802
vn 0.6838489 0.164786831 0.7107714
vn -0.141096458 -0.970212936 -0.196922973
vn 0.6838489 0.164786831 0.7107714
vn -0.592512965 -0.07837082 0.801739633
vn -0.834663749 0.545737565 0.07420907
vn -0.0292821042 0.205431238 0.9782334
vn 0.03886324 0.07380416 0.9965152
vn -0.8977233 0.411875427 0.156369656
vn -0.170949012 -0.0690647438 -0.9828563
vn 0.930892944 -0.354512364 0.0880867541
vn 0.927338 -0.368071556 -0.06758381
vn 0.0426263846 0.299235016 -0.9532268
vn 0.267576277 -0.495435178 -0.826406
vn -0.170949012 -0.0690647438 -0.9828563
vn -0.622757 0.135022566 -0.770676732
vn 0.217785522 0.3427357 0.913839
vn 0.816418052 -0.3250259 -0.477304667
vn 0.217785522 0.3427357 0.913839
vn 0.930892944 -0.354512364 0.0880867541
vn 0.0426263846 0.299235016 -0.9532268
vn 0.389120251 -0.143520385 -0.9099381
vn -0.7629145 0.24473092 -0.5983881
vn 0.130601734 -0.971219063 -0.1991901
vn 0.389120251 -0.143520385 -0.9099381
vn -0.4115989 -0.745296 0.5245191
vn -0.8043009 0.07213115 0.589828
vn -0.9413535 -0.2957819 -0.162378117
vn -0.324474066 -0.818839 -0.473517984
vn 0.9571725 -0.285068572 -0.0505636223
vn 0.431018084 -0.166798949 -0.886792839
vn 0.389120251 -0.143520385 -0.9099381
vn 0.130601734 -0.971219063 -0.1991901
vn 0.609604836 0.03297315 0.7920194
vn 0.539955 -0.3871912 0.7473497
vn -0.566702843 -0.2257134 0.792402267
vn 0.723687768 -0.493334949 0.482593626
vn 0.405975342 0.447443157 0.79685545
vn 0.539955 -0.3871912 0.7473497
vn 0.5996446 -0.5669884 -0.564757
vn 0.9571725 -0.285068572 -0.0505636223
vn 0.609604836 0.03297315 0.7920194
vn -0.324474066 -0.818839 -0.473517984
vn -0.4115989 -0.745296 0.5245191
vn -0.6704961 0.1819953 0.7192445
vn -0.269124359 0.346001863 0.8988074
vn 0.130601734 -0.971219063 -0.1991901
vn -0.566702843 -0.2257134 0.792402267
vn -0.222867846 -0.934273 -0.2783233
vn 0.816418052 -0.3250259 -0.477304667
vn 0.405975342 0.447443157 0.79685545
vn 0.723687768 -0.493334949 0.482593626
vn -0.222867846 -0.934273 -0.2783233
vn 0.217785522 0.3427357 0.913839
vn -0.6704961 0.1819953 0.7192445
vn 0.405975342 0.447443157 0.79685545
vn 0.405975342 0.447443157 0.79685545
vn 0.816418052 -0.3250259 -0.477304667
vn 0.217785522 0.3427357 0.913839
vn -0.7454075 0.647749662 0.157441974
vn -0.8848469 0.408229381 0.2244876
vn -0.778655767 -0.217771679 -0.58844775
vn -0.9413535 -0.2957819 -0.162378117
vn -0.8848469 0.408229381 0.2244876
vn -0.7629145 0.24473092 -0.5983881
vn 0.389120251 -0.143520385 -0.9099381
vn 0.431018084 -0.166798949 -0.886792839
vn -0.269124359 0.346001863 0.8988074
vn -0.8043009 0.07213115 0.589828
vn 0.609604836 0.03297315 0.7920194
vn 0.663929045 -0.4085162 0.6263488
vn 0.046496518 -0.851307869 -0.522602141
vn 0.431018084 -0.166798949 -0.886792839
vn 0.609604836 0.03297315 0.7920194
vn 0.046496518 -0.851307869 -0.522602141
vn -0.778655767 -0.217771679 -0.58844775
vn 0.431018084 -0.166798949 -0.886792839
vn -0.401854545 -0.6285272 0.6659328
vn -0.401854545 -0.6285272 0.6659328
vn 0.9571725 -0.285068572 -0.0505636223
vn 0.663929045 -0.4085162 0.6263488
vn 0.5996446 -0.5669884 -0.564757
vn 0.986697 0.124848962 0.10412357
vn 0.221313491 0.564791 0.795004
vn 0.03886324 0.07380416 0.9965152
vn 0.8367246 -0.5376413 0.104085736
vn -0.09046009 0.6800401 -0.727573
vn 0.628131032 0.276786923 -0.7272141
vn 0.628131032 0.276786923 -0.7272141
vn 0.267576277 -0.495435178 -0.826406
vn -0.4028085 0.915115535 -0.0175751634
vn 0.221313491 0.564791 0.795004
vn 0.986697 0.124848962 0.10412357
vn 0.5207161 0.849438131 -0.08549642
vn -0.4028085 0.915115535 -0.0175751634
vn -0.09046009 0.6800401 -0.727573
vn 0.628131032 0.276786923 -0.7272141
vn -0.995949 -0.02380692 0.0867118
vn -0.944946766 0.313526243 0.0936852
vn -0.6530569 0.265581936 -0.70921284
vn -0.7617009 -0.03323788 -0.6470757
vn -0.62391305 -0.0238296 0.7811304
vn -0.5000555 0.290306121 0.8158841
vn -0.992729366 0.0815822855 0.08850242
vn -0.7625358 0.0204220563 -0.6466236
vn -0.63349247 0.0302381422 0.7731578
vn -0.6794033 -0.7295581 0.07846116
vn -0.415793747 -0.8342867 -0.362051427
vn -0.356428355 -0.8094018 0.466719955
vn 0.8879822 -0.362799227 0.282602876
vn 0.934140444 -0.279324144 0.222170368
vn 0.9733631 -0.179097518 0.1431376
vn 0.554358661 -0.782598138 0.28324312
vn 0.6076563 -0.7663339 -0.208533466
vn 0.371390671 0.9284767 0
vn 0.831420362 -0.214869633 -0.512417
vn 0.8372494 -0.346811354 -0.422771037
vn -0.9518762 0.292113572 0.09274317
vn -0.6785277 0.1704578 -0.7145238
vn -0.542425036 0.14458771 0.8275684
vn 0.9883677 -0.147363 -0.0375960469
vn 0.9737375 0.181040734 -0.138056323
vn -0.20962368 0.9776724 0.0146480761
vn 0.0466095358 0.81329 -0.5799887
vn 0.175476387 0.7913063 0.5856982
vn 0.8688034 0.379953533 0.3175153
vn 0 0.4472136 -0.8944272
vn 0.221313491 0.564791 0.795004
vn -0.269124359 0.346001863 0.8988074
vn 0.995949 0.0238068867 -0.0867117643
vn 0.7653332 0.0357119963 0.6426428
vn 0.6539862 -0.2711542 0.7062418
vn 0.9449468 -0.313526124 -0.09368504
vn 0.629640758 0.0221923552 -0.776569366
vn 0.5047812 -0.291692048 -0.8124726
vn 0.9766398 -0.197056308 -0.08569442
vn 0.7409011 -0.110335313 0.662489
vn 0.6036251 -0.102184847 -0.790692747
vn 0.9780346 -0.186064377 -0.09395895
vn 0.689320743 -0.101283088 0.717341363
vn 0.5413675 -0.08591341 -0.8363852
vn -0.6704961 0.1819953 0.7192445
vn 0.130601734 -0.971219063 -0.1991901
vn -0.6704961 0.1819953 0.7192445
vn -0.0292821042 0.205431238 0.9782334
vn 0.191058218 0.229715437 0.9543205
vn -0.2811499 -0.3256649 -0.9027165
vn 0.5752758 0.2187565 -0.788164556
vn 0.450859457 0.38635 -0.804648638
usemtl 9014001103_part_0_material_0
f 1/1/1 2/2/2 3/3/3
f 3/3/3 4/4/4 1/1/1
f 5/5/5 6/6/6 7/7/7
f 7/7/7 8/8/8 5/5/5
f 9/9/9 5/5/5 10/10/10
f 11/11/11 12/12/12 13/13/13
f 14/14/14 15/15/15 16/16/16
f 16/16/16 17/17/17 14/14/14
f 18/18/18 5/5/5 19/19/19
f 20/20/20 21/21/21 22/22/22
f 22/22/22 23/23/23 20/20/20
f 24/24/24 25/25/25 26/26/26
f 26/26/26 27/27/27 24/24/24
f 28/28/28 29/29/29 20/20/20
f 20/20/20 23/23/23 28/28/28
f 30/30/30 31/31/31 32/32/32
f 33/33/33 34/34/34 35/35/35
f 35/35/35 36/36/36 33/33/33
f 37/37/37 38/38/38 33/33/33
f 33/33/33 36/36/36 37/37/37
f 39/39/39 40/40/40 41/41/41
f 41/41/41 42/42/42 43/43/43
f 39/39/39 41/41/41 43/43/43
f 44/44/44 45/45/45 46/46/46
f 32/32/32 47/47/47 30/30/30
f 48/48/48 49/49/49 50/50/50
f 51/51/51 52/52/52 53/53/53
f 5/5/5 18/18/18 10/10/10
f 44/44/44 40/40/40 45/45/45
f 54/54/54 55/55/55 17/17/17
f 17/17/17 16/16/16 54/54/54
f 56/56/56 57/57/57 58/58/58
f 58/58/58 59/59/59 56/56/56
f 56/56/56 60/60/60 61/61/61
f 61/61/61 57/57/57 56/56/56
f 62/62/62 63/63/63 64/64/64
f 58/58/58 62/62/62 64/64/64
f 64/64/64 59/59/59 58/58/58
f 65/65/65 35/35/35 66/66/66
f 66/66/66 67/67/67 65/65/65
f 68/68/68 25/25/25 24/24/24
f 69/69/69 70/70/70 71/71/71
f 71/71/71 22/22/22 72/72/72
f 72/72/72 69/69/69 71/71/71
f 73/73/73 65/65/65 67/67/67
f 74/74/74 75/75/75 72/72/72
f 72/72/72 22/22/22 74/74/74
f 21/21/21 76/76/76 74/74/74
f 74/74/74 22/22/22 21/21/21
f 19/19/19 5/5/5 8/8/8
f 77/77/77 78/78/78 79/79/79
f 79/79/79 80/80/80 77/77/77
f 81/81/81 82/82/82 83/83/83
f 83/83/83 84/84/84 81/81/81
f 85/85/85 86/86/86 87/87/87
f 87/87/87 88/88/88 85/85/85
f 16/16/16 89/89/89 1/1/1
f 1/1/1 54/54/54 16/16/16
f 89/89/89 84/84/84 2/2/2
f 2/2/2 1/1/1 89/89/89
f 83/83/83 90/90/90 2/2/2
f 2/2/2 84/84/84 83/83/83
f 91/91/91 92/92/92 93/93/93
f 94/94/94 92/92/92 91/91/91
f 95/95/95 92/92/92 94/94/94
f 96/96/96 92/92/92 95/95/95
f 97/97/97 92/92/92 96/96/96
f 98/98/98 99/99/99 100/100/100
f 100/100/100 101/101/101 98/98/98
f 102/102/102 98/98/98 101/101/101
f 101/101/101 103/103/103 102/102/102
f 104/104/104 105/105/105 99/99/99
f 99/99/99 98/98/98 104/104/104
f 106/106/106 104/104/104 98/98/98
f 98/98/98 102/102/102 106/106/106
f 107/107/107 108/108/108 105/105/105
f 105/105/105 104/104/104 107/107/107
f 109/109/109 107/107/107 104/104/104
f 104/104/104 106/106/106 109/109/109
f 110/110/110 102/102/102 103/103/103
f 103/103/103 111/111/111 110/110/110
f 112/112/112 106/106/106 102/102/102
f 102/102/102 110/110/110 112/112/112
f 113/113/113 109/109/109 106/106/106
f 106/106/106 112/112/112 113/113/113
f 114/114/114 105/105/105 108/108/108
f 108/108/108 115/115/115 114/114/114
f 116/116/116 99/99/99 105/105/105
f 105/105/105 114/114/114 116/116/116
f 117/117/117 100/100/100 99/99/99
f 99/99/99 116/116/116 117/117/117
f 118/118/118 101/101/101 100/100/100
f 100/100/100 119/119/119 118/118/118
f 120/120/120 103/103/103 101/101/101
f 101/101/101 118/118/118 120/120/120
f 121/121/121 111/111/111 103/103/103
f 103/103/103 120/120/120 121/121/121
f 119/119/119 100/100/100 117/117/117
f 117/117/117 122/122/122 119/119/119
f 123/123/123 118/118/118 119/119/119
f 119/119/119 124/124/124 123/123/123
f 125/125/125 120/120/120 118/118/118
f 118/118/118 123/123/123 125/125/125
f 126/126/126 121/121/121 120/120/120
f 120/120/120 125/125/125 126/126/126
f 124/124/124 119/119/119 122/122/122
f 122/122/122 127/127/127 124/124/124
f 90/90/90 128/128/128 3/3/3
f 3/3/3 2/2/2 90/90/90
f 129/129/129 54/54/54 11/11/11
f 130/130/130 131/131/131 132/132/132
f 132/132/132 133/133/133 130/130/130
f 134/134/134 135/135/135 131/131/131
f 131/131/131 130/130/130 134/134/134
f 136/136/136 130/130/130 133/133/133
f 133/133/133 137/137/137 136/136/136
f 138/138/138 134/134/134 130/130/130
f 130/130/130 136/136/136 138/138/138
f 107/107/107 136/136/136 137/137/137
f 137/137/137 108/108/108 107/107/107
f 109/109/109 138/138/138 136/136/136
f 136/136/136 107/107/107 109/109/109
f 110/110/110 111/111/111 135/135/135
f 135/135/135 134/134/134 110/110/110
f 112/112/112 110/110/110 134/134/134
f 134/134/134 138/138/138 112/112/112
f 113/113/113 112/112/112 138/138/138
f 138/138/138 109/109/109 113/113/113
f 108/108/108 137/137/137 114/114/114
f 114/114/114 115/115/115 108/108/108
f 116/116/116 114/114/114 137/137/137
f 137/137/137 133/133/133 116/116/116
f 117/117/117 116/116/116 133/133/133
f 133/133/133 132/132/132 117/117/117
f 139/139/139 140/140/140 132/132/132
f 132/132/132 131/131/131 139/139/139
f 141/141/141 139/139/139 131/131/131
f 131/131/131 135/135/135 141/141/141
f 121/121/121 141/141/141 135/135/135
f 135/135/135 111/111/111 121/121/121
f 140/140/140 122/122/122 117/117/117
f 117/117/117 132/132/132 140/140/140
f 123/123/123 124/124/124 140/140/140
f 140/140/140 139/139/139 123/123/123
f 125/125/125 123/123/123 139/139/139
f 139/139/139 141/141/141 125/125/125
f 126/126/126 125/125/125 141/141/141
f 141/141/141 121/121/121 126/126/126
f 122/122/122 140/140/140 124/124/124
f 124/124/124 127/127/127 122/122/122
f 30/30/30 142/142/142 31/31/31
f 40/40/40 44/44/44 41/41/41
f 62/62/62 143/143/143 63/63/63
f 11/11/11 144/144/144 129/129/129
f 9/9/9 6/6/6 5/5/5
f 129/129/129 55/55/55 54/54/54
f 54/54/54 1/1/1 4/4/4
f 4/4/4 11/11/11 54/54/54
f 145/145/145 80/80/80 87/87/87
f 87/87/87 6/6/6 145/145/145
f 87/87/87 86/86/86 7/7/7
f 7/7/7 6/6/6 87/87/87
f 146/146/146 147/147/147 148/148/148
f 148/148/148 149/149/149 146/146/146
f 150/150/150 151/151/151 152/152/152
f 152/152/152 153/153/153 150/150/150
f 154/154/154 155/155/155 156/156/156
f 157/157/157 158/158/158 152/152/152
f 159/159/159 160/160/160 147/147/147
f 161/161/161 162/162/162 163/163/163
f 164/164/164 165/165/165 152/152/152
f 166/166/166 167/167/167 168/168/168
f 168/168/168 169/169/169 166/166/166
f 170/170/170 171/171/171 172/172/172
f 172/172/172 173/173/173 170/170/170
f 174/174/174 167/167/167 166/166/166
f 166/166/166 175/175/175 174/174/174
f 176/176/176 177/177/177 178/178/178
f 179/179/179 180/180/180 181/181/181
f 181/181/181 182/182/182 179/179/179
f 183/183/183 180/180/180 179/179/179
f 179/179/179 184/184/184 183/183/183
f 185/185/185 186/186/186 187/187/187
f 188/188/188 185/185/185 187/187/187
f 188/188/188 187/187/187 189/189/189
f 190/190/190 191/191/191 192/192/192
f 177/177/177 176/176/176 193/193/193
f 194/194/194 195/195/195 196/196/196
f 197/197/197 198/198/198 199/199/199
f 152/152/152 158/158/158 164/164/164
f 190/190/190 192/192/192 189/189/189
f 200/200/200 161/161/161 163/163/163
f 163/163/163 201/201/201 200/200/200
f 202/202/202 203/203/203 204/204/204
f 204/204/204 205/205/205 202/202/202
f 202/202/202 205/205/205 206/206/206
f 206/206/206 207/207/207 202/202/202
f 208/208/208 209/209/209 210/210/210
f 204/204/204 209/209/209 208/208/208
f 209/209/209 204/204/204 203/203/203
f 211/211/211 212/212/212 213/213/213
f 213/213/213 181/181/181 211/211/211
f 214/214/214 170/170/170 173/173/173
f 215/215/215 216/216/216 217/217/217
f 216/216/216 215/215/215 218/218/218
f 218/218/218 168/168/168 216/216/216
f 219/219/219 212/212/212 211/211/211
f 220/220/220 168/168/168 218/218/218
f 218/218/218 221/221/221 220/220/220
f 169/169/169 168/168/168 220/220/220
f 220/220/220 222/222/222 169/169/169
f 153/153/153 152/152/152 165/165/165
f 223/223/223 224/224/224 225/225/225
f 225/225/225 226/226/226 223/223/223
f 154/154/154 156/156/156 227/227/227
f 227/227/227 228/228/228 154/154/154
f 229/229/229 223/223/223 226/226/226
f 226/226/226 230/230/230 229/229/229
f 161/161/161 200/200/200 146/146/146
f 146/146/146 155/155/155 161/161/161
f 155/155/155 146/146/146 149/149/149
f 149/149/149 156/156/156 155/155/155
f 227/227/227 156/156/156 149/149/149
f 149/149/149 231/231/231 227/227/227
f 232/232/232 233/233/233 234/234/234
f 235/235/235 232/232/232 234/234/234
f 236/236/236 235/235/235 234/234/234
f 237/237/237 236/236/236 234/234/234
f 233/233/233 237/237/237 234/234/234
f 238/238/238 239/239/239 240/240/240
f 240/240/240 241/241/241 238/238/238
f 242/242/242 243/243/243 239/239/239
f 239/239/239 238/238/238 242/242/242
f 244/244/244 238/238/238 241/241/241
f 241/241/241 245/245/245 244/244/244
f 246/246/246 242/242/242 238/238/238
f 238/238/238 244/244/244 246/246/246
f 247/247/247 244/244/244 245/245/245
f 245/245/245 248/248/248 247/247/247
f 249/249/249 246/246/246 244/244/244
f 244/244/244 247/247/247 249/249/249
f 250/250/250 251/251/251 243/243/243
f 243/243/243 242/242/242 250/250/250
f 252/252/252 250/250/250 242/242/242
f 242/242/242 246/246/246 252/252/252
f 253/253/253 252/252/252 246/246/246
f 246/246/246 249/249/249 253/253/253
f 254/254/254 255/255/255 248/248/248
f 248/248/248 245/245/245 254/254/254
f 256/256/256 254/254/254 245/245/245
f 245/245/245 241/241/241 256/256/256
f 257/257/257 256/256/256 241/241/241
f 241/241/241 240/240/240 257/257/257
f 258/258/258 259/259/259 240/240/240
f 240/240/240 239/239/239 258/258/258
f 260/260/260 258/258/258 239/239/239
f 239/239/239 243/243/243 260/260/260
f 261/261/261 260/260/260 243/243/243
f 243/243/243 251/251/251 261/261/261
f 259/259/259 262/262/262 257/257/257
f 257/257/257 240/240/240 259/259/259
f 263/263/263 264/264/264 259/259/259
f 259/259/259 258/258/258 263/263/263
f 265/265/265 263/263/263 258/258/258
f 258/258/258 260/260/260 265/265/265
f 266/266/266 265/265/265 260/260/260
f 260/260/260 261/261/261 266/266/266
f 264/264/264 267/267/267 262/262/262
f 262/262/262 259/259/259 264/264/264
f 231/231/231 149/149/149 148/148/148
f 148/148/148 268/268/268 231/231/231
f 269/269/269 159/159/159 200/200/200
f 147/147/147 146/146/146 200/200/200
f 270/270/270 271/271/271 272/272/272
f 272/272/272 273/273/273 270/270/270
f 274/274/274 270/270/270 273/273/273
f 273/273/273 275/275/275 274/274/274
f 276/276/276 277/277/277 271/271/271
f 271/271/271 270/270/270 276/276/276
f 278/278/278 276/276/276 270/270/270
f 270/270/270 274/274/274 278/278/278
f 247/247/247 248/248/248 277/277/277
f 277/277/277 276/276/276 247/247/247
f 249/249/249 247/247/247 276/276/276
f 276/276/276 278/278/278 249/249/249
f 250/250/250 274/274/274 275/275/275
f 275/275/275 251/251/251 250/250/250
f 252/252/252 278/278/278 274/274/274
f 274/274/274 250/250/250 252/252/252
f 253/253/253 249/249/249 278/278/278
f 278/278/278 252/252/252 253/253/253
f 248/248/248 254/254/254 277/277/277
f 254/254/254 248/248/248 255/255/255
f 256/256/256 271/271/271 277/277/277
f 277/277/277 254/254/254 256/256/256
f 257/257/257 272/272/272 271/271/271
f 271/271/271 256/256/256 257/257/257
f 279/279/279 273/273/273 272/272/272
f 272/272/272 280/280/280 279/279/279
f 281/281/281 275/275/275 273/273/273
f 273/273/273 279/279/279 281/281/281
f 261/261/261 251/251/251 275/275/275
f 275/275/275 281/281/281 261/261/261
f 280/280/280 272/272/272 257/257/257
f 257/257/257 262/262/262 280/280/280
f 263/263/263 279/279/279 280/280/280
f 280/280/280 264/264/264 263/263/263
f 265/265/265 281/281/281 279/279/279
f 279/279/279 263/263/263 265/265/265
f 266/266/266 261/261/261 281/281/281
f 281/281/281 265/265/265 266/266/266
f 262/262/262 264/264/264 280/280/280
f 264/264/264 262/262/262 267/267/267
f 176/176/176 178/178/178 282/282/282
f 189/189/189 187/187/187 190/190/190
f 208/208/208 210/210/210 283/283/283
f 159/159/159 269/269/269 284/284/284
f 157/157/157 152/152/152 151/151/151
f 269/269/269 200/200/200 201/201/201
f 200/200/200 159/159/159 147/147/147
f 151/151/151 226/226/226 225/225/225
f 225/225/225 285/285/285 151/151/151
f 150/150/150 230/230/230 226/226/226
f 226/226/226 151/151/151 150/150/150
f 88/88/88 87/87/87 80/80/80
f 80/80/80 79/79/79 88/88/88
f 92/92/92 97/97/97 93/93/93
f 11/11/11 4/4/4 12/12/12
f 145/145/145 286/286/286 77/77/77
f 77/77/77 80/80/80 145/145/145
f 81/81/81 84/84/84 89/89/89
f 89/89/89 287/287/287 81/81/81
f 288/288/288 289/289/289 8/8/8
f 8/8/8 7/7/7 288/288/288
