mtllib AymanBunAY.mtl
o AymanBunAY_part_0
v 0.204844311 1.5967499 0.045141615
v 0.18075563 1.60497284 0.0665644854
v 0.160253614 1.51533043 0.06261184
v 0.101138018 1.54085958 0.15355055
v 0.0889324546 1.63178992 0.1234754
v 0.235586524 1.24893713 0.0187845528
v 0.138170734 1.24929583 -0.109652348
v 0.1246056 1.34984219 -0.09432126
v 0.210173488 1.3504827 0.00381038338
v 0.0800846443 1.35644674 0.184450552
v 0.0825978741 1.2383455 0.2138037
v 0.187810332 1.243138 0.142135113
v 0.1634494 1.352643 0.131076843
v 0.2607083 1.12141609 -0.000388838351
v 0.182022929 1.117806 -0.150787115
v 0.116659693 1.10765481 0.240097538
v 0.220293939 1.11808133 0.153243259
v 0.201949567 1.41993082 -0.0232425779
v 0.08800292 1.45429325 0.167907581
v 0.161444187 1.45006657 0.103924289
v 0.3121701 0.92719394 -0.00310053676
v 0.2157122 0.934947 -0.159504279
v 0.148073435 0.936088 0.247387782
v 0.264994621 0.938196957 0.153027967
v 0.151827842 1.50768292 -0.138296008
v 0.1953841 1.60969782 -0.17567122
v 0.191468209 1.52958131 -0.07951374
v 0.201135665 1.49710917 -0.07428841
v -0.00143258821 1.61636508 -0.172570169
v 0.102550343 1.61481 -0.179705888
v 0.0942731053 1.5036242 -0.1451284
v -0.00261201523 1.50552654 -0.158301532
v 0.333900422 0.7580668 -0.000649414957
v 0.343767583 0.58643204 -0.013929531
v 0.23758769 0.5883336 -0.127142757
v 0.226449966 0.7502878 -0.103500485
v 0.2861486 0.762429833 0.167236149
v 0.303232729 0.578229547 0.165875956
v 0.0403875969 0.7286155 -0.1324338
v 0.0547352061 0.575078547 -0.13683334
v 0.154497474 0.7569355 0.268224
v -0.00268163579 0.93587923 0.261890769
v -0.0031428528 0.770728 0.267797768
v 0.0654468462 0.916339636 -0.205663428
v 0.00565342745 1.12151587 -0.1857669
v 0.1540123 0.5634171 0.25314647
v -0.006639373 0.5893222 0.246229574
v -0.00310744951 0.4655131 0.139302418
v 0.165881187 0.445851326 0.204573169
v 0.0600286536 0.441194773 0.1325822
v 0.07528403 1.73054981 0.04482598
v 0.214787334 1.67104125 0.0234966129
v 0.1430856 1.7635498 -0.06871346
v 0.226782888 1.70641541 -0.07919082
v 0.09522267 1.79741716 -0.08250957
v 0.07847856 1.78755164 -0.0129319541
v 0.07839934 1.822214 -0.0123806745
v 0.0768763 1.82923675 -0.0751608461
v 0.08160489 1.91295874 -0.07038388
v 0.08487004 1.88107491 -0.0008077435
v 0.008000103 1.83107066 -0.113237619
v 0.0142188994 1.92825627 -0.124942705
v 0.08160489 1.91295874 -0.07038388
v 0.0768763 1.82923675 -0.0751608461
v 0.00648620538 1.79308784 -0.122068271
v 0.09522267 1.79741716 -0.08250957
v 0.0141089847 1.81416821 0.0291540474
v 0.0132714724 1.77910733 0.0424537957
v 0.0119163049 1.725142 0.06273964
v 0.1430856 1.7635498 -0.06871346
v 0.226782888 1.70641541 -0.07919082
v 0.208971292 1.69774628 -0.154123962
v 0.06547914 1.76037264 -0.133508936
v 0.0913396254 1.703875 -0.1615504
v 0.00178058038 1.70379519 -0.1608096
v 0.005109969 1.76674342 -0.133268237
v 0.00338461064 0.5963572 -0.135196641
v 0.00412684865 0.716407 -0.149095327
v -0.00380022265 1.23164988 0.223829612
v 0.0009237068 1.10847652 0.24270077
v 0.0110749733 1.64113021 0.124470249
v 0.3306857 0.4764315 -0.0266213343
v 0.262561381 0.3857522 -0.004483536
v 0.202704132 0.396357954 -0.07283836
v 0.241277114 0.476927936 -0.120569237
v 0.226980045 0.3788646 0.0754157454
v 0.233364284 0.248789012 0.035415262
v 0.255681753 0.2579912 -0.0235306732
v 0.144754007 0.252575576 -0.00721678138
v 0.08837869 0.3820954 0.003935583
v 0.133929446 0.3881173 -0.07870103
v 0.157424837 0.262989759 -0.0706978962
v 0.1619784 0.187966228 0.00182923675
v 0.22078374 0.178619146 0.0551696047
v 0.192010477 0.247258782 0.0408228338
v 0.144754007 0.252575576 -0.00721678138
v 0.214025453 0.268731 -0.08735669
v 0.1465208 0.3736936 0.0846027
v 0.0383913852 0.446896851 -0.0565395541
v 0.08093716 0.452084482 -0.130657077
v 0.300170839 0.463406563 0.134425536
v 0.08837869 0.3820954 0.003935583
v 0.26903668 0.187300265 -0.0140630677
v 0.159673661 0.190330744 -0.0580434538
v 0.1619784 0.187966228 0.00182923675
v 0.228916317 0.194284916 -0.100967735
v 0.00638667773 1.54273367 0.157521352
v -0.00134412025 1.35703826 0.195485577
v 0.004079491 1.45828867 0.175816745
v 0.00244026864 1.25002873 -0.1346126
v 0.00126318 1.34933925 -0.123060733
v 0.012679656 0.9083282 -0.199550092
v 0.0185025837 1.85585713 0.04240127
v 0.303232729 0.578229547 0.165875956
v -0.0005966424 0.486065269 0.030699648
v 0.03656175 0.444744647 0.0356123969
v 0.03656175 0.444744647 0.0356123969
v 0.23758769 0.5883336 -0.127142757
v 0.343767583 0.58643204 -0.013929531
v 0.0547352061 0.575078547 -0.13683334
v 0.1540123 0.5634171 0.25314647
v -0.006639373 0.5893222 0.246229574
v 0.00154973019 0.5037481 -0.0619641356
v 0.00338461064 0.5963572 -0.135196641
v -0.189254671 1.612852 0.0643163
v -0.14499779 1.53140044 0.0787251145
v -0.163426876 1.62013388 0.0837070346
v -0.08725041 1.54596758 0.158414736
v -0.06834456 1.63671339 0.128808871
v -0.235597014 1.24716949 0.009904265
v -0.209786445 1.3512162 5.67808747E-05
v -0.122451164 1.35012174 -0.0967915356
v -0.132593632 1.25002837 -0.114576653
v -0.08240812 1.3579061 0.182963267
v -0.165578887 1.35403156 0.12759614
v -0.192315534 1.24154007 0.135028943
v -0.0895174 1.23629248 0.210167781
v -0.259100348 1.11999285 -0.0153121613
v -0.173540354 1.11850464 -0.1599415
v -0.2263764 1.11078727 0.139873371
v -0.125017837 1.10139906 0.23337914
v -0.201905623 1.427918 -0.0143150911
v -0.155468136 1.45544815 0.109398082
v -0.08031822 1.45794487 0.1709596
v -0.205673471 0.938557565 -0.178224489
v -0.310652733 0.9270986 -0.03544428
v -0.2700663 0.9273783 0.1240173
v -0.157113239 0.9224081 0.227852091
v -0.151178181 1.52614021 -0.121061258
v -0.193353027 1.5176847 -0.05230985
v -0.184399948 1.55020583 -0.05790169
v -0.19634819 1.62981451 -0.153440341
v -0.0989709944 1.50853109 -0.13900286
v -0.104381949 1.62107277 -0.166546553
v -0.3316124 0.757629633 -0.04943808
v -0.219385356 0.7559227 -0.147562861
v -0.229614332 0.5940837 -0.181265339
v -0.341007054 0.5862699 -0.0731848851
v -0.308935881 0.5682645 0.107814327
v -0.29213357 0.7502049 0.121461406
v -0.032143496 0.735798 -0.168899029
v -0.046507787 0.5807989 -0.183192015
v -0.29213357 0.7502049 0.121461406
v -0.165545568 0.736930132 0.228140786
v -0.3316124 0.757629633 -0.04943808
v -0.219385356 0.7559227 -0.147562861
v -0.0031428528 0.770728 0.267797768
v -0.0397354662 0.9149697 -0.210260466
v -0.00310744951 0.4655131 0.139302418
v -0.006639373 0.5893222 0.246229574
v -0.163970888 0.5482662 0.201082334
v -0.173786432 0.433968842 0.146663442
v -0.06472581 0.432420969 0.07944389
v -0.05231452 1.73402369 0.0497112125
v -0.197047 1.69434011 0.0517450571
v -0.128953114 1.77202082 -0.05631299
v -0.219233289 1.73136759 -0.0487902053
v -0.0557268821 1.79103684 -0.007829044
v -0.07996035 1.80273807 -0.07535385
v -0.05261852 1.82528865 -0.007904071
v -0.05024496 1.91324091 -0.06688664
v -0.05694127 1.83261418 -0.07016581
v -0.049953606 1.88136363 0.00276836753
v -0.05024496 1.91324091 -0.06688664
v -0.05694127 1.83261418 -0.07016581
v -0.07996035 1.80273807 -0.07535385
v -0.128953114 1.77202082 -0.05631299
v -0.212265924 1.72184443 -0.125895917
v -0.219233289 1.73136759 -0.0487902053
v -0.05552545 1.76386547 -0.128782719
v -0.0876338258 1.70924973 -0.1544624
v 0.00412684865 0.716407 -0.149095327
v 0.00338461064 0.5963572 -0.135196641
v -0.327634782 0.476609349 -0.0903714746
v -0.234040752 0.481149137 -0.179702178
v -0.198083937 0.397672653 -0.13407442
v -0.260996878 0.3845362 -0.0690963
v -0.22908771 0.374189258 0.01201424
v -0.260996878 0.3845362 -0.0690963
v -0.253531516 0.257991552 -0.0937776938
v -0.233856857 0.246747673 -0.03421402
v -0.143467069 0.2514211 -0.07244898
v -0.153288081 0.2641108 -0.13623637
v -0.129127979 0.389399529 -0.136965752
v -0.08739096 0.379695117 -0.0526658557
v -0.161163181 0.187007487 -0.06661027
v -0.143467069 0.2514211 -0.07244898
v -0.192821875 0.244598985 -0.0268240012
v -0.222258374 0.176294565 -0.0162618831
v -0.198083937 0.397672653 -0.13407442
v -0.209069461 0.270686269 -0.154921338
v -0.22908771 0.374189258 0.01201424
v -0.149153486 0.3681659 0.0248066857
v -0.129127979 0.389399529 -0.136965752
v -0.07348937 0.456006527 -0.183466852
v -0.0343847238 0.4472071 -0.10793025
v -0.08739096 0.379695117 -0.0526658557
v -0.304631561 0.4554137 0.0710939
v -0.08739096 0.379695117 -0.0526658557
v -0.08739096 0.379695117 -0.0526658557
v -0.149153486 0.3681659 0.0248066857
v -0.2674225 0.187225938 -0.08720437
v -0.1562413 0.191156983 -0.12617597
v -0.161163181 0.187007487 -0.06661027
v -0.2235327 0.196657419 -0.171936139
v 0.012679656 0.9083282 -0.199550092
v -0.0005966424 0.486065269 0.030699648
v -0.0368467271 0.4405576 -0.0157751925
v -0.0368467271 0.4405576 -0.0157751925
v 0.00154973019 0.5037481 -0.0619641356
v -0.0005966424 0.486065269 0.030699648
v -0.032143496 0.735798 -0.168899029
v 0.00412684865 0.716407 -0.149095327
v -0.165545568 0.736930132 0.228140786
v -0.0031428528 0.770728 0.267797768
v -0.0005966424 0.486065269 0.030699648
v 0.2328992 1.65801048 0.012752071
v 0.214787334 1.67104125 0.0234966129
v 0.204844311 1.5967499 0.045141615
v 0.226782888 1.70641541 -0.07919082
v 0.25329268 1.68578386 -0.0772116259
v 0.23166126 1.68803644 -0.156057566
v 0.208971292 1.69774628 -0.154123962
v 0.1953841 1.60969782 -0.17567122
v 0.262751937 1.63819814 -0.151533246
v 0.286895037 1.64564157 -0.07197684
v 0.3190575 1.57209575 -0.08360221
v 0.290267438 1.56922233 -0.170414567
v 0.33791846 1.34814465 -0.212761119
v 0.298317254 1.31295753 -0.146587566
v 0.268724263 1.35774338 -0.139638484
v 0.307143331 1.37763715 -0.213274568
v 0.40067777 1.21119487 -0.194706991
v 0.385359168 1.34602332 -0.209525958
v 0.411169648 1.36964822 -0.1219821
v 0.4692354 1.2626816 -0.105054766
v 0.365030557 1.34298861 -0.05952658
v 0.358041257 1.260548 -0.0405743569
v 0.335264742 1.20057642 -0.156364769
v 0.351150751 1.32899618 -0.209696844
v 0.325143784 1.32080936 -0.07150337
v 0.298317254 1.31295753 -0.146587566
v 0.335264742 1.20057642 -0.156364769
v 0.375570357 1.36760771 -0.2126284
v 0.358815849 1.397026 -0.211231545
v 0.3953939 1.41736257 -0.117279284
v 0.3423069 1.39218247 -0.05737737
v 0.301040262 1.37307608 -0.07584919
v 0.268724263 1.35774338 -0.139638484
v 0.2341489 1.57067716 0.012906149
v 0.191468209 1.52958131 -0.07951374
v 0.206487119 1.50826478 -0.08653547
v 0.242194116 1.52525806 -0.005669661
v 0.268352121 1.61644709 -0.00161062926
v 0.21160394 1.59319961 -0.166641936
v 0.290213764 1.55451965 -0.004060447
v 0.236501515 1.54015636 -0.158732533
v 0.206487119 1.50826478 -0.08653547
v 0.191468209 1.52958131 -0.07951374
v 0.230064958 1.44217384 -0.10139937
v 0.259795725 1.46322811 -0.186791882
v 0.357271016 1.50631571 -0.09852482
v 0.322815835 1.49632764 -0.184118167
v 0.26452446 1.45378447 -0.0273152143
v 0.230064958 1.44217384 -0.10139937
v 0.3169592 1.48197949 -0.0162997916
v -0.217241645 1.68226433 0.04295115
v -0.189254671 1.612852 0.0643163
v -0.197047 1.69434011 0.0517450571
v -0.219233289 1.73136759 -0.0487902053
v -0.212265924 1.72184443 -0.125895917
v -0.235174522 1.71233034 -0.125869483
v -0.247469336 1.7116549 -0.0441780351
v -0.19634819 1.62981451 -0.153440341
v -0.264578372 1.66149187 -0.1198093
v -0.2902076 1.5911684 -0.138054729
v -0.311910629 1.59165382 -0.04972046
v -0.282029867 1.66799736 -0.0383570828
v -0.329792172 1.36736321 -0.180475846
v -0.300426155 1.39810717 -0.182933748
v -0.2562693 1.37970722 -0.112152785
v -0.284325063 1.33380389 -0.117427975
v -0.385171175 1.2272799 -0.157646239
v -0.449383616 1.2763027 -0.0635076
v -0.397542745 1.38557184 -0.08491194
v -0.37676096 1.36321545 -0.17402485
v -0.333879024 1.27958047 -0.007166207
v -0.346153229 1.36086941 -0.0259589925
v -0.341944754 1.3476882 -0.176614225
v -0.3167726 1.21985734 -0.124056317
v -0.3063767 1.34016383 -0.0407473519
v -0.3167726 1.21985734 -0.124056317
v -0.284325063 1.33380389 -0.117427975
v -0.368148923 1.38517427 -0.177681267
v -0.383593351 1.43386054 -0.0812224448
v -0.3526256 1.41524243 -0.177289724
v -0.325509161 1.41086125 -0.0251373313
v -0.284867048 1.39331889 -0.04625924
v -0.2562693 1.37970722 -0.112152785
v -0.220749557 1.58929276 0.036202915
v -0.229162961 1.5452615 0.0195445269
v -0.199660271 1.52885461 -0.06403106
v -0.184399948 1.55020583 -0.05790169
v -0.256441683 1.6361599 0.0271928832
v -0.2118451 1.61290061 -0.1437394
v -0.276968628 1.57392693 0.0256125852
v -0.234946549 1.56063342 -0.1344065
v -0.184399948 1.55020583 -0.05790169
v -0.199660271 1.52885461 -0.06403106
v -0.222811982 1.463222 -0.0773611441
v -0.2547904 1.48575878 -0.158388525
v -0.318758577 1.51622772 -0.151126027
v -0.3480252 1.52409446 -0.0639555752
v -0.222811982 1.463222 -0.0773611441
v -0.25030005 1.47427845 -7.159263E-05
v -0.30204615 1.50084245 0.0151701048
v 0.121344171 1.10259128 -0.225095242
v 0.0919878259 1.18473983 -0.2200044
v 0.0596039332 1.13939011 -0.1558315
v 0.07666698 1.07199621 -0.159469754
v 0.101619571 1.02136731 -0.238762766
v 0.05055618 1.028145 -0.1652982
v 0.101406045 1.10673463 -0.298655927
v 0.0842481554 1.16910052 -0.298205972
v 0.0820210949 1.04216671 -0.309621334
v 0.007118558 0.9729092 -0.254283428
v 0.008441447 0.99863416 -0.3233348
v 0.008703112 1.088728 -0.3583582
v 0.00403624354 1.075191 -0.134167
v 0.004111729 1.15041709 -0.156645447
v 0.005168911 1.21532547 -0.222974584
v 0.006929254 1.196761 -0.301590174
v 0.005258927 1.0097574 -0.175565988
v -0.109609172 1.10136437 -0.229976922
v -0.0512450673 1.13880122 -0.15817453
v -0.08136825 1.18381894 -0.22366865
v -0.06742246 1.07123065 -0.162515387
v -0.08846318 1.02035737 -0.242780566
v -0.0406244546 1.02766061 -0.1672255
v -0.086625725 1.10573578 -0.302630365
v -0.07016548 1.16828012 -0.3014698
v -0.06611012 1.04137981 -0.312752366
vt 0.58682394 0.720225
vt 0.5454177 0.7143616
vt 0.5634901 0.6578616
vt 0.4788915 0.649266064
vt 0.459431946 0.711524665
vt 0.692647457 0.4715668
vt 0.8358669 0.4748481
vt 0.8378675 0.538031638
vt 0.692647457 0.5334203
vt 0.481891245 0.524804056
vt 0.4757883 0.461039662
vt 0.5855643 0.4690237
vt 0.57392174 0.5264699
vt 0.692647457 0.391190529
vt 0.828047 0.383866549
vt 0.481788427 0.382580936
vt 0.594785631 0.3875342
vt 0.692647457 0.585363746
vt 0.4800995 0.5853951
vt 0.5652302 0.588187337
vt 0.692647457 0.2743503
vt 0.8092715 0.273543179
vt 0.5009492 0.2743503
vt 0.618820369 0.2746277
vt 0.763592362 0.6546097
vt 0.7644425 0.724690437
vt 0.692647457 0.693202257
vt 0.692647457 0.657559454
vt 0.958907068 0.7185473
vt 0.8612674 0.7161408
vt 0.860817 0.647706866
vt 0.958907068 0.6485591
vt 0.692647457 0.163724661
vt 0.692647457 0.07447219
vt 0.7968601 0.07447219
vt 0.800519466 0.163724661
vt 0.629272759 0.163724661
vt 0.617712855 0.07447219
vt 0.9122611 0.163724661
vt 0.9029964 0.07447219
vt 0.502681851 0.163724661
vt 0.405192256 0.2743503
vt 0.411031634 0.163724661
vt 0.9222607 0.273657739
vt 0.958907068 0.39461875
vt 0.104802184 0.518281758
vt 0.0224883109 0.518281758
vt 0.0183104277 0.471623182
vt 0.110441804 0.457263052
vt 0.04524575 0.449970663
vt 0.4494788 0.783314347
vt 0.5573368 0.77616334
vt 0.495601475 0.844552
vt 0.5455917 0.8420443
vt 0.479942739 0.8646112
vt 0.448410749 0.842230558
vt 0.443611 0.874149
vt 0.478095084 0.8764197
vt 0.481710464 0.927816868
vt 0.4395785 0.913656652
vt 0.958907068 0.9174396
vt 0.958907068 0.98379755
vt 0.914526761 0.9755737
vt 0.9156712 0.92267096
vt 0.958907068 0.890349865
vt 0.9058208 0.903633952
vt 0.405192256 0.8666365
vt 0.405192256 0.8299274
vt 0.405192256 0.775851
vt 0.832982361 0.889298856
vt 0.746186733 0.8629018
vt 0.760234 0.81900996
vt 0.9021537 0.866025269
vt 0.8765839 0.7970176
vt 0.958907068 0.793674469
vt 0.958907068 0.8673001
vt 0.9545921 0.07447219
vt 0.9535724 0.163724661
vt 0.405192256 0.459357321
vt 0.405192256 0.3861605
vt 0.405192256 0.7175796
vt 0.225964636 0.457128227
vt 0.217740372 0.378203034
vt 0.274051726 0.378203034
vt 0.282106161 0.456161022
vt 0.151701689 0.378203034
vt 0.152715 0.272931218
vt 0.213415548 0.272931218
vt 0.352694839 0.272931218
vt 0.3490494 0.378203034
vt 0.3193842 0.378203034
vt 0.31781438 0.272931218
vt 0.03461892 0.220943511
vt 0.132300228 0.220943511
vt 0.104462877 0.272931218
vt 0.03461892 0.272931218
vt 0.271114439 0.272931218
vt 0.0873926058 0.378203034
vt 0.3574469 0.452303946
vt 0.325004578 0.454228282
vt 0.166321531 0.458301723
vt 0.0350871719 0.378203034
vt 0.213415548 0.220943511
vt 0.31781438 0.220943511
vt 0.352694839 0.220943511
vt 0.271114439 0.220943511
vt 0.405192256 0.6465064
vt 0.405192256 0.524456263
vt 0.405192256 0.5823685
vt 0.958907068 0.475556731
vt 0.958907068 0.540860057
vt 0.956965566 0.273786783
vt 0.405192256 0.8958498
vt 0.164642811 0.518281758
vt 0.00596557325 0.441845417
vt 0.017508518 0.430633545
vt 0.384801269 0.4366144
vt 0.283543259 0.518281758
vt 0.230156034 0.518281758
vt 0.32690838 0.518281758
vt 0.5092732 0.07447219
vt 0.417002767 0.07447219
vt 0.375720382 0.475369215
vt 0.3705737 0.518281758
vt 0.58682394 0.720225
vt 0.5629709 0.656666756
vt 0.5454177 0.7143616
vt 0.4788915 0.649266064
vt 0.459431946 0.711524665
vt 0.692647457 0.4707271
vt 0.692647457 0.533177435
vt 0.8378675 0.538031638
vt 0.8358669 0.4748481
vt 0.481891245 0.524804056
vt 0.573626757 0.528136253
vt 0.586293459 0.468214869
vt 0.4757883 0.461039662
vt 0.692647457 0.391190529
vt 0.828047 0.383866549
vt 0.5950349 0.386996746
vt 0.481788427 0.382580936
vt 0.692647457 0.585361838
vt 0.5650915 0.588231146
vt 0.4800995 0.5853951
vt 0.8087397 0.272817254
vt 0.692647457 0.2743503
vt 0.618738055 0.2747481
vt 0.5009492 0.2743503
vt 0.763592362 0.6546097
vt 0.692647457 0.6575994
vt 0.692647457 0.693202257
vt 0.7644425 0.724690437
vt 0.860817 0.647706866
vt 0.8612674 0.7161408
vt 0.2035005 0.208980858
vt 0.26067096 0.208980858
vt 0.26067096 0.140006065
vt 0.2035005 0.140006065
vt 0.14018409 0.140006065
vt 0.14018409 0.208980858
vt 0.3351604 0.208980858
vt 0.330253929 0.140006065
vt 0.629199564 0.163724661
vt 0.5029187 0.163724661
vt 0.692647457 0.163724661
vt 0.7996857 0.163724661
vt 0.410680681 0.163724661
vt 0.924011767 0.274924219
vt 0.0150337117 0.082164526
vt 0.0150337117 0.140006065
vt 0.07685167 0.140006065
vt 0.08607627 0.08468491
vt 0.0545729324 0.0605812073
vt 0.4494788 0.783314347
vt 0.5573368 0.77616334
vt 0.495601475 0.844552
vt 0.5455917 0.8420443
vt 0.448410749 0.842230558
vt 0.479942739 0.8646112
vt 0.443611 0.874149
vt 0.481710464 0.927816868
vt 0.478095084 0.8764197
vt 0.4395785 0.913656652
vt 0.914526761 0.9755737
vt 0.9156712 0.92267096
vt 0.9058208 0.903633952
vt 0.832982361 0.889298856
vt 0.760234 0.81900996
vt 0.746186733 0.8629018
vt 0.9021537 0.866025269
vt 0.8765839 0.7970176
vt 0.3708165 0.208980858
vt 0.3708165 0.140006065
vt 0.2035005 0.100734532
vt 0.26067096 0.09752381
vt 0.26067096 0.051037848
vt 0.2035005 0.0541776419
vt 0.151701689 0.378203034
vt 0.217795447 0.378203034
vt 0.213415548 0.272931218
vt 0.152715 0.272931218
vt 0.352694839 0.272931218
vt 0.31781438 0.272931218
vt 0.3204232 0.378203034
vt 0.349011749 0.378203034
vt 0.03461892 0.220943511
vt 0.03461892 0.272931218
vt 0.104462877 0.272931218
vt 0.132300228 0.220943511
vt 0.2738315 0.378203034
vt 0.271114439 0.272931218
vt 0.14018409 0.0486122966
vt 0.103369012 0.0325914025
vt 0.291685045 0.03910911
vt 0.313622326 0.08658296
vt 0.3467571 0.0574558973
vt 0.323402345 0.0113043785
vt 0.14018409 0.09571934
vt 0.06977773 0.00594431162
vt 0.03565397 0.378203034
vt 0.0873926058 0.378203034
vt 0.213415548 0.220943511
vt 0.31781438 0.220943511
vt 0.352694839 0.220943511
vt 0.271114439 0.220943511
vt 0.9568464 0.273711264
vt 0.00626621675 0.0415855646
vt 0.0380223654 0.0268617868
vt 0.3676125 0.0239287019
vt 0.3708165 0.0790968537
vt 0.3978234 0.0396885276
vt 0.9118584 0.163724661
vt 0.955455661 0.163724661
vt 0.06983494 0.208980858
vt 0.0150337117 0.208980858
vt 0.397147447 0.454949021
vt 0.120128118 0.938474059
vt 0.116468042 0.954154968
vt 0.06265469 0.91010344
vt 0.194805831 0.962674
vt 0.194805831 0.944215357
vt 0.265527517 0.9301052
vt 0.269036442 0.94895643
vt 0.316539258 0.907337844
vt 0.260139674 0.8680226
vt 0.194805831 0.8680226
vt 0.194805831 0.8177101
vt 0.260139674 0.8177101
vt 0.292339 0.6547133
vt 0.346979737 0.643168449
vt 0.348497629 0.683969438
vt 0.299363673 0.6865892
vt 0.278030545 0.5282911
vt 0.2588298 0.6308403
vt 0.194805831 0.645133257
vt 0.194805831 0.5282911
vt 0.1287949 0.645133257
vt 0.112170056 0.5282911
vt 0.345418155 0.5282911
vt 0.291513056 0.6306299
vt 0.09316672 0.645133257
vt 0.0398938842 0.645133257
vt 0.0433524773 0.5282911
vt 0.258174866 0.655944169
vt 0.260139674 0.685934246
vt 0.194805831 0.685934246
vt 0.1287949 0.685934246
vt 0.08925976 0.685934246
vt 0.0377211571 0.685934246
vt 0.06802507 0.8680226
vt 0.0185552165 0.8680226
vt 0.0253199656 0.8177101
vt 0.0741888061 0.8177101
vt 0.1267797 0.8680226
vt 0.315382928 0.8680226
vt 0.1287949 0.8177101
vt 0.3134317 0.8177101
vt 0.367593944 0.8177101
vt 0.372843474 0.8680226
vt 0.360496134 0.7503444
vt 0.3103724 0.7503444
vt 0.194805831 0.7503444
vt 0.260139674 0.7503444
vt 0.08226428 0.7503444
vt 0.0305917077 0.7503444
vt 0.1287949 0.7503444
vt 0.120128118 0.938474059
vt 0.06265469 0.91010344
vt 0.116468042 0.954154968
vt 0.194805831 0.962674
vt 0.269036442 0.94895643
vt 0.265527517 0.9301052
vt 0.194805831 0.944215357
vt 0.316539258 0.907337844
vt 0.260139674 0.8680226
vt 0.260139674 0.8177101
vt 0.194805831 0.8177101
vt 0.194805831 0.8680226
vt 0.292339 0.6547133
vt 0.299363673 0.6865892
vt 0.348497629 0.683969438
vt 0.346979737 0.643168449
vt 0.278030545 0.5282911
vt 0.194805831 0.5282911
vt 0.194805831 0.645133257
vt 0.2588298 0.6308403
vt 0.112170056 0.5282911
vt 0.1287949 0.645133257
vt 0.291513056 0.6306299
vt 0.345418155 0.5282911
vt 0.09316672 0.645133257
vt 0.0433524773 0.5282911
vt 0.0398938842 0.645133257
vt 0.258174866 0.655944169
vt 0.194805831 0.685934246
vt 0.260139674 0.685934246
vt 0.1287949 0.685934246
vt 0.08925976 0.685934246
vt 0.0377211571 0.685934246
vt 0.06802507 0.8680226
vt 0.0741888061 0.8177101
vt 0.0253199656 0.8177101
vt 0.0185552165 0.8680226
vt 0.1267797 0.8680226
vt 0.315382928 0.8680226
vt 0.1287949 0.8177101
vt 0.3134317 0.8177101
vt 0.372843474 0.8680226
vt 0.367593944 0.8177101
vt 0.360496134 0.7503444
vt 0.3103724 0.7503444
vt 0.260139674 0.7503444
vt 0.194805831 0.7503444
vt 0.0305917077 0.7503444
vt 0.08226428 0.7503444
vt 0.1287949 0.7503444
vt 0.653885841 0.8295718
vt 0.697484434 0.828844249
vt 0.688566744 0.8700395
vt 0.6523435 0.8700395
vt 0.609474 0.828532159
vt 0.6160248 0.8700395
vt 0.6534789 0.789227247
vt 0.688566744 0.790018559
vt 0.6160248 0.787632942
vt 0.5734584 0.828532159
vt 0.5873893 0.7760187
vt 0.6524783 0.7454301
vt 0.6522172 0.909429252
vt 0.7199171 0.8700395
vt 0.7282714 0.828532159
vt 0.715123832 0.774496138
vt 0.584583461 0.8700395
vt 0.653885841 0.8295718
vt 0.688566744 0.8700395
vt 0.697484434 0.828844249
vt 0.6523435 0.8700395
vt 0.609474 0.828532159
vt 0.6160248 0.8700395
vt 0.6534789 0.789227247
vt 0.688566744 0.790018559
vt 0.6160248 0.787632942
vn 0.709645331 -0.167689234 0.684312642
vn 0.6198157 0.150045946 0.7702693
vn 0.9018952 -0.0238800067 0.431294262
vn 0.434588045 0.1910341 0.8801359
vn 0.314945519 0.474867582 0.8217725
vn 0.962363958 0.246959448 -0.113431349
vn 0.516000867 0.293098778 -0.8048827
vn 0.523447037 -0.05924747 -0.849995852
vn 0.9781198 0.123595312 -0.167349532
vn 0.3333373 0.182411656 0.9249931
vn 0.3116901 0.230153576 0.9218886
vn 0.7520659 0.245584086 0.6116252
vn 0.764559 0.188727334 0.6163048
vn 0.95600456 0.251735866 -0.150613353
vn 0.5674387 0.2684949 -0.778411031
vn 0.336617172 0.180537522 0.92417264
vn 0.7986471 0.223432839 0.5587849
vn 0.984283268 -0.0195784364 -0.175508216
vn 0.366371185 0.141386136 0.919664145
vn 0.8460819 0.1885296 0.4986
vn 0.974471748 0.148593277 -0.168299809
vn 0.593331 -0.0221421327 -0.804654
vn 0.382399082 0.123368993 0.915724337
vn 0.824749231 0.1711641 0.538972735
vn 0.4916064 -0.373693317 -0.7865599
vn 0.17813918 -0.162116334 -0.970559
vn 0.461889118 -0.707804143 -0.534482658
vn 0.942796767 -0.08746351 -0.321689934
vn -0.0512332879 -0.02881287 -0.998271
vn -0.010406075 -0.0458189063 -0.9988956
vn 0.106966183 -0.2679981 -0.9574629
vn -0.0366727859 -0.173573554 -0.984137833
vn 0.962493539 0.112096131 -0.247064143
vn 0.9662219 0.00181383791 -0.257705152
vn 0.419908315 0.0413753577 -0.9066229
vn 0.492814869 0.002275015 -0.8701312
vn 0.811141133 0.08886944 0.5780591
vn 0.792041361 -0.06743841 0.606731
vn 0.3210376 -0.15213348 -0.9347675
vn 0.01428932 -0.035696473 -0.999260545
vn 0.322893173 0.00578979962 0.9464177
vn -0.07801931 0.08295037 0.9934949
vn -0.118380517 -0.0328125954 0.992426038
vn 0.141741574 -0.106447563 -0.9841637
vn 0.0292700864 0.24413377 -0.969299734
vn 0.175764978 -0.26069364 0.9492868
vn -0.124725655 -0.359859228 0.924632251
vn -0.05382651 -0.888552666 0.455606073
vn 0.0479652062 -0.6181488 0.7845963
vn -0.365478218 -0.884797156 0.289066881
vn 0.381113529 0.593393266 0.7089689
vn 0.5509229 0.5297691 0.6448478
vn 0.534017 0.84536016 0.0138589619
vn 0.581216931 0.81114924 0.06499094
vn 0.641595066 0.672481835 -0.3689498
vn 0.7311517 0.413008541 0.5429928
vn 0.8998389 -0.09580576 0.425571531
vn 0.840472937 0.209650531 -0.4996518
vn 0.823001146 -0.0764346048 -0.5628738
vn 0.9366504 -0.163837 0.309585959
vn -0.0425153226 0.107499488 -0.99329567
vn -0.006049858 -0.119192563 -0.992852747
vn 0.823001146 -0.0764346048 -0.5628738
vn 0.840472937 0.209650531 -0.4996518
vn -0.0214952454 0.449215651 -0.893164754
vn 0.641595066 0.672481835 -0.3689498
vn 0.0295148585 0.0061016446 0.9995457
vn 0.0475545451 0.471448 0.880610764
vn 0.0467675924 0.491472661 0.869636357
vn 0.534017 0.84536016 0.0138589619
vn 0.581216931 0.81114924 0.06499094
vn 0.264309436 0.6541022 -0.7087248
vn 0.187240556 0.591261446 -0.784443
vn 0.0277917348 0.329819381 -0.943634868
vn -0.0296829082 0.2782267 -0.960056663
vn -0.0243175365 0.396836519 -0.917567134
vn 0.337596655 -0.2108796 -0.917364836
vn 0.421130329 -0.103524178 -0.9010727
vn -0.0228229482 0.18773143 0.98195523
vn -0.0337431766 0.1211814 0.992056668
vn 0.04509062 0.482545763 0.874709368
vn 0.889488041 -0.351979464 -0.2914129
vn 0.9245974 -0.362244636 -0.117891841
vn 0.42117402 -0.2955634 -0.85747
vn 0.4317122 -0.3017515 -0.8500415
vn 0.560021758 -0.580700636 0.590899646
vn 0.655142 0.004768503 0.7554907
vn 0.9891622 0.0994488746 -0.10801857
vn -0.939420462 -0.272092044 0.20845899
vn -0.7719674 -0.6355233 0.0132824518
vn -0.362719148 -0.5023902 -0.7848815
vn -0.6943762 -0.164935336 -0.7004556
vn -0.868870854 -0.184547931 0.4593534
vn 0.15462245 0.0102311382 0.987920642
vn -0.3457964 -0.192668408 0.9183157
vn -0.939420462 -0.272092044 0.20845899
vn 0.316853642 0.0683319 -0.9460098
vn -0.4283357 -0.6154465 0.6616299
vn -0.738442063 -0.6152335 -0.276027381
vn -0.326175332 -0.473160326 -0.8183697
vn 0.751079142 -0.450758249 0.4823869
vn -0.7719674 -0.6355233 0.0132824518
vn 0.9861729 0.127898857 0.1053797
vn -0.842280746 -0.129252866 -0.523313344
vn -0.868870854 -0.184547931 0.4593534
vn 0.3186245 0.18242237 -0.930161536
vn 0.031495478 0.247053042 0.96849
vn -0.00863096 0.206242368 0.9784629
vn 0.0166160073 0.186885372 0.9822412
vn 0.01501358 0.262139529 -0.9649132
vn 0.00229986524 -0.0647321939 -0.9979
vn 0.04167604 -0.112041846 -0.992829144
vn 0.0561550446 -0.271147132 0.960898459
vn 0.792041361 -0.06743841 0.606731
vn 0.02103413 -0.9979205 -0.0609281734
vn -0.757064044 -0.650647163 0.0592643172
vn -0.757064044 -0.650647163 0.0592643172
vn 0.419908315 0.0413753577 -0.9066229
vn 0.9662219 0.00181383791 -0.257705152
vn 0.01428932 -0.035696473 -0.999260545
vn 0.175764978 -0.26069364 0.9492868
vn -0.124725655 -0.359859228 0.924632251
vn 0.164169118 -0.832192242 -0.529626846
vn 0.337596655 -0.2108796 -0.917364836
vn -0.6388856 -0.199793145 0.742905
vn -0.873580635 0.001219466 0.486677885
vn -0.5194129 0.154571727 0.8404272
vn -0.3775142 0.197947547 0.904599249
vn -0.206978336 0.490456432 0.846529663
vn -0.958502769 0.244128689 -0.147219539
vn -0.9705035 0.144686013 -0.192844138
vn -0.515369833 -0.0131729357 -0.8568666
vn -0.480072677 0.2978028 -0.825132549
vn -0.352040946 0.178952724 0.918718159
vn -0.7755786 0.191526368 0.6014944
vn -0.773863256 0.22832422 0.590765357
vn -0.355664641 0.215144545 0.9095139
vn -0.947639465 0.2570428 -0.189495176
vn -0.5258623 0.2904476 -0.799442947
vn -0.8270175 0.192903981 0.5280436
vn -0.3863411 0.140619561 0.911573768
vn -0.989598632 0.04437007 -0.136842459
vn -0.824382961 0.205561072 0.527387261
vn -0.3324981 0.136674255 0.933147967
vn -0.52894026 0.0484903529 -0.847272635
vn -0.9620506 0.170223579 -0.213266313
vn -0.8530428 0.124094404 0.506871343
vn -0.460236341 0.05170512 0.8862895
vn -0.659593165 -0.3202002 -0.6800064
vn -0.9764955 0.02901807 -0.213575557
vn -0.5149631 -0.7148458 -0.473084122
vn -0.286790729 -0.130405456 -0.9490761
vn -0.2526866 -0.2292181 -0.9400045
vn -0.105579145 -0.04831876 -0.9932363
vn -0.9479539 0.131353408 -0.2900513
vn -0.4419986 0.0795271248 -0.89348346
vn -0.376749277 0.08913773 -0.9220165
vn -0.9527642 0.0193606522 -0.303093255
vn -0.8206255 -0.09793829 0.5630114
vn -0.839747965 0.0474465825 0.5408994
vn 0.18595612 -0.06669635 -0.9802917
vn 0.377868533 -0.03866265 -0.9250516
vn -0.839747965 0.0474465825 0.5408994
vn -0.4529427 -0.0483780541 0.890226066
vn -0.9479539 0.131353408 -0.2900513
vn -0.4419986 0.0795271248 -0.89348346
vn -0.118380517 -0.0328125954 0.992426038
vn -0.0118886055 -0.06423586 -0.997863948
vn -0.05382651 -0.888552666 0.455606073
vn -0.124725655 -0.359859228 0.924632251
vn -0.322186381 -0.309238732 0.8947443
vn -0.143263757 -0.674943745 0.72382766
vn 0.397115737 -0.8941667 0.20679687
vn -0.253833473 0.6250293 0.738178134
vn -0.3936111 0.5524626 0.734748542
vn -0.410894334 0.9096871 0.06029247
vn -0.4705412 0.870907247 0.14181526
vn -0.638428569 0.4765462 0.604411
vn -0.6148122 0.7279456 -0.303481758
vn -0.8615197 0.01264565 0.507566631
vn -0.8614601 0.0332413353 -0.506736159
vn -0.8555909 0.313155681 -0.412186563
vn -0.903123558 -0.0384728722 0.42765373
vn -0.8614601 0.0332413353 -0.506736159
vn -0.8555909 0.313155681 -0.412186563
vn -0.6148122 0.7279456 -0.303481758
vn -0.410894334 0.9096871 0.06029247
vn -0.3003324 0.703481 -0.644138932
vn -0.4705412 0.870907247 0.14181526
vn -0.206882492 0.601806641 -0.771380842
vn -0.1062052 0.3222042 -0.940693855
vn 0.421130329 -0.103524178 -0.9010727
vn 0.337596655 -0.2108796 -0.917364836
vn -0.8760034 -0.333399922 -0.348514736
vn -0.392292917 -0.2594541 -0.8824907
vn -0.381249517 -0.252147049 -0.8894215
vn -0.9198503 -0.351489633 -0.174156353
vn -0.588107049 -0.60642606 0.5351426
vn -0.9198503 -0.351489633 -0.174156353
vn -0.9825599 0.108130321 -0.1512742
vn -0.69128567 -0.0232929513 0.722206056
vn 0.9285904 -0.284713656 0.238029316
vn 0.7225647 -0.138321742 -0.6773237
vn 0.399631947 -0.4659787 -0.7894037
vn 0.768457532 -0.639603436 0.0195063427
vn 0.847492933 -0.205346122 0.489477962
vn 0.9285904 -0.284713656 0.238029316
vn 0.301635146 -0.231925771 0.92478466
vn -0.198636532 -0.0232661869 0.979797
vn -0.381249517 -0.252147049 -0.8894215
vn -0.273270249 0.109213434 -0.955717444
vn -0.588107049 -0.60642606 0.5351426
vn 0.393623024 -0.650362849 0.649683833
vn 0.399631947 -0.4659787 -0.7894037
vn 0.3976854 -0.409478277 -0.8210809
vn 0.78706187 -0.5450116 -0.288956642
vn 0.768457532 -0.639603436 0.0195063427
vn -0.773703039 -0.4712299 0.423469
vn 0.768457532 -0.639603436 0.0195063427
vn 0.768457532 -0.639603436 0.0195063427
vn 0.393623024 -0.650362849 0.649683833
vn -0.989633143 0.127949655 0.06523141
vn 0.8635334 -0.113555543 -0.49134022
vn 0.847492933 -0.205346122 0.489477962
vn -0.275505155 0.216580048 -0.936584234
vn 0.04167604 -0.112041846 -0.992829144
vn 0.02103413 -0.9979205 -0.0609281734
vn 0.770857 -0.635467 0.0442860052
vn 0.770857 -0.635467 0.0442860052
vn 0.164169118 -0.832192242 -0.529626846
vn 0.02103413 -0.9979205 -0.0609281734
vn 0.18595612 -0.06669635 -0.9802917
vn 0.421130329 -0.103524178 -0.9010727
vn -0.4529427 -0.0483780541 0.890226066
vn -0.118380517 -0.0328125954 0.992426038
vn 0.02103413 -0.9979205 -0.0609281734
vn 0.69386667 0.410501838 0.591639459
vn 0.5509229 0.5297691 0.6448478
vn 0.709645331 -0.167689234 0.684312642
vn 0.581216931 0.81114924 0.06499094
vn 0.6976545 0.709437132 0.0998860449
vn 0.460363328 0.5801724 -0.671911836
vn 0.264309436 0.6541022 -0.7087248
vn 0.17813918 -0.162116334 -0.970559
vn 0.633492053 0.362601727 -0.683526039
vn 0.847362936 0.5223241 0.09567438
vn 0.90445596 0.420572817 0.0712597
vn 0.433053762 0.325373977 -0.840592742
vn -0.305716336 -0.3092355 -0.9005059
vn -0.881676555 -0.434268057 -0.184547439
vn -0.875530064 -0.477634043 -0.07288905
vn -0.46698615 -0.199305862 -0.861510932
vn 0.125640824 -0.03165335 -0.9915707
vn 0.6295151 0.0720824748 -0.7736374
vn 0.9405482 0.306816369 0.145714745
vn 0.8806596 0.47239843 -0.03575553
vn 0.3743848 0.121142179 0.9193262
vn -0.341922015 0.0246330369 0.939405441
vn -0.829534352 -0.226117775 -0.510630548
vn -0.295704663 -0.290784955 -0.9099466
vn -0.707382739 -0.1751145 0.68479526
vn -0.881676555 -0.434268057 -0.184547439
vn -0.829534352 -0.226117775 -0.510630548
vn 0.5242755 0.208845824 -0.825541437
vn 0.423184752 0.339446485 -0.840054035
vn 0.9257985 0.340981364 0.163183555
vn 0.3470199 -0.100196943 0.932490051
vn -0.5722774 -0.4507213 0.6850904
vn -0.875530064 -0.477634043 -0.07288905
vn 0.06651378 -0.444477856 0.893317044
vn 0.461889118 -0.707804143 -0.534482658
vn -0.9077188 -0.41951555 0.00730574131
vn -0.4606838 -0.36413914 0.8094277
vn 0.6738904 0.281901747 0.682937145
vn -0.172603473 -0.360218734 -0.916760862
vn 0.6008916 0.0768927 0.795623541
vn -0.5741375 -0.165341139 -0.801890552
vn -0.9077188 -0.41951555 0.00730574131
vn 0.461889118 -0.707804143 -0.534482658
vn -0.9066376 -0.4191582 0.04811132
vn -0.6009091 -0.0115278224 -0.7992342
vn 0.92037344 0.378711522 0.09741838
vn 0.436912358 0.393984675 -0.808630764
vn -0.442191 -0.473879218 0.7615153
vn -0.9066376 -0.4191582 0.04811132
vn 0.526581943 -0.08053298 0.8463013
vn -0.6133234 0.391845942 0.685777843
vn -0.6388856 -0.199793145 0.742905
vn -0.3936111 0.5524626 0.734748542
vn -0.4705412 0.870907247 0.14181526
vn -0.3003324 0.703481 -0.644138932
vn -0.5252677 0.592141747 -0.611115336
vn -0.672168 0.7170218 0.184580073
vn -0.286790729 -0.130405456 -0.9490761
vn -0.7074919 0.353640169 -0.6118774
vn -0.5342578 0.32218942 -0.781513
vn -0.91371727 0.3775682 0.150210083
vn -0.8534776 0.486435771 0.186965913
vn 0.256294549 -0.293990046 -0.920805633
vn 0.418878317 -0.172729254 -0.8914626
vn 0.8945474 -0.426526517 -0.133641735
vn 0.884013355 -0.3961225 -0.248208255
vn -0.1946891 -0.0434219465 -0.9799034
vn -0.9012441 0.43256402 0.0254444648
vn -0.9409749 0.265615165 0.209797159
vn -0.683443 0.043453 -0.7287095
vn 0.408413768 0.0495025367 0.9114536
vn -0.315280229 0.1063355 0.9430224
vn 0.24258776 -0.279263616 -0.929065645
vn 0.800410748 -0.192388877 -0.5677404
vn 0.7623648 -0.141773477 0.6314271
vn 0.800410748 -0.192388877 -0.5677404
vn 0.884013355 -0.3961225 -0.248208255
vn -0.587566 0.1873801 -0.7871816
vn -0.9265888 0.3015562 0.224715516
vn -0.491115719 0.325674981 -0.807924
vn -0.281285971 -0.120030709 0.952087641
vn 0.6404557 -0.422482371 0.641346335
vn 0.8945474 -0.426526517 -0.133641735
vn 0.0187257286 -0.456775 0.889385164
vn 0.5344258 -0.347846866 0.770319164
vn 0.914009154 -0.401569337 -0.0577001646
vn -0.5149631 -0.7148458 -0.473084122
vn -0.621189237 0.231936261 0.7485516
vn 0.09741244 -0.3363244 -0.936694562
vn -0.5307461 0.0569129959 0.845617831
vn 0.496601433 -0.135437787 -0.857346833
vn -0.5149631 -0.7148458 -0.473084122
vn 0.914009154 -0.401569337 -0.0577001646
vn 0.923039258 -0.384405553 -0.0151965749
vn 0.554163158 0.007083706 -0.8323779
vn -0.508516252 0.3739306 -0.7756205
vn -0.9294272 0.333177239 0.158612743
vn 0.923039258 -0.384405553 -0.0151965749
vn 0.516705751 -0.45962283 0.722331
vn -0.4626696 -0.10768272 0.8799666
vn 0.98692745 0.0452047847 0.154695809
vn 0.6810296 0.6969139 0.224743545
vn 0.42305398 0.388451457 0.818615139
vn 0.6342863 -0.165335968 0.7552119
vn 0.781163752 -0.622757256 0.0442329422
vn 0.369385332 -0.648720264 0.665369451
vn 0.8376865 0.05551674 -0.543322444
vn 0.631326735 0.559780657 -0.536723554
vn 0.6767986 -0.412831 -0.6095197
vn 0.005446235 -0.999965131 -0.00633228337
vn 0.0179574359 -0.750149 -0.6610249
vn 0.0209908057 0.0253889 -0.99945724
vn -0.02026611 -0.129581913 0.9913616
vn -0.0206603575 0.539208 0.8419192
vn -0.009916036 0.97449255 0.224200681
vn 0.00782252 0.817691147 -0.575604
vn -0.008021195 -0.812019348 0.583575368
vn -0.993006945 0.0346861519 0.112845615
vn -0.461367667 0.383752882 0.799921
vn -0.6972807 0.689591467 0.195609882
vn -0.663839 -0.1722324 0.7277732
vn -0.775677264 -0.6310282 0.0113255475
vn -0.3902597 -0.652756035 0.6493127
vn -0.8145229 0.04673911 -0.5782455
vn -0.6139933 0.5531647 -0.5630462
vn -0.6460168 -0.419858634 -0.637480259
usemtl AymanBunAY_part_0_material_0
f 1/1/1 2/2/2 3/3/3
f 4/4/4 3/3/3 2/2/2
f 2/2/2 5/5/5 4/4/4
f 6/6/6 7/7/7 8/8/8
f 8/8/8 9/9/9 6/6/6
f 10/10/10 11/11/11 12/12/12
f 12/12/12 13/13/13 10/10/10
f 12/12/12 6/6/6 9/9/9
f 9/9/9 13/13/13 12/12/12
f 14/14/14 15/15/15 7/7/7
f 7/7/7 6/6/6 14/14/14
f 11/11/11 16/16/16 17/17/17
f 17/17/17 12/12/12 11/11/11
f 6/6/6 12/12/12 17/17/17
f 17/17/17 14/14/14 6/6/6
f 9/9/9 8/8/8 18/18/18
f 4/4/4 19/19/19 20/20/20
f 20/20/20 3/3/3 4/4/4
f 9/9/9 18/18/18 20/20/20
f 20/20/20 13/13/13 9/9/9
f 14/14/14 21/21/21 22/22/22
f 22/22/22 15/15/15 14/14/14
f 17/17/17 16/16/16 23/23/23
f 23/23/23 24/24/24 17/17/17
f 21/21/21 14/14/14 17/17/17
f 17/17/17 24/24/24 21/21/21
f 25/25/25 26/26/26 27/27/27
f 27/27/27 28/28/28 25/25/25
f 29/29/29 30/30/30 31/31/31
f 31/31/31 32/32/32 29/29/29
f 33/33/33 34/34/34 35/35/35
f 35/35/35 36/36/36 33/33/33
f 33/33/33 37/37/37 38/38/38
f 38/38/38 34/34/34 33/33/33
f 39/39/39 36/36/36 35/35/35
f 35/35/35 40/40/40 39/39/39
f 24/24/24 23/23/23 41/41/41
f 41/41/41 37/37/37 24/24/24
f 21/21/21 24/24/24 37/37/37
f 37/37/37 33/33/33 21/21/21
f 36/36/36 22/22/22 21/21/21
f 21/21/21 33/33/33 36/36/36
f 42/42/42 43/43/43 41/41/41
f 41/41/41 23/23/23 42/42/42
f 22/22/22 44/44/44 45/45/45
f 45/45/45 15/15/15 22/22/22
f 46/46/46 47/47/47 48/48/48
f 49/49/49 46/46/46 48/48/48
f 50/50/50 49/49/49 48/48/48
f 1/1/1 3/3/3 28/28/28
f 28/28/28 27/27/27 1/1/1
f 51/51/51 5/5/5 2/2/2
f 2/2/2 52/52/52 51/51/51
f 53/53/53 52/52/52 54/54/54
f 53/53/53 55/55/55 56/56/56
f 56/56/56 51/51/51 53/53/53
f 57/57/57 58/58/58 59/59/59
f 59/59/59 60/60/60 57/57/57
f 61/61/61 62/62/62 63/63/63
f 63/63/63 64/64/64 61/61/61
f 65/65/65 61/61/61 64/64/64
f 64/64/64 66/66/66 65/65/65
f 56/56/56 55/55/55 58/58/58
f 58/58/58 57/57/57 56/56/56
f 56/56/56 57/57/57 67/67/67
f 67/67/67 68/68/68 56/56/56
f 51/51/51 56/56/56 68/68/68
f 68/68/68 69/69/69 51/51/51
f 70/70/70 71/71/71 72/72/72
f 72/72/72 73/73/73 70/70/70
f 70/70/70 73/73/73 66/66/66
f 73/73/73 72/72/72 74/74/74
f 26/26/26 30/30/30 74/74/74
f 74/74/74 72/72/72 26/26/26
f 29/29/29 75/75/75 74/74/74
f 74/74/74 30/30/30 29/29/29
f 73/73/73 74/74/74 75/75/75
f 73/73/73 76/76/76 65/65/65
f 40/40/40 77/77/77 78/78/78
f 78/78/78 39/39/39 40/40/40
f 18/18/18 8/8/8 25/25/25
f 25/25/25 28/28/28 18/18/18
f 19/19/19 10/10/10 13/13/13
f 13/13/13 20/20/20 19/19/19
f 18/18/18 28/28/28 3/3/3
f 3/3/3 20/20/20 18/18/18
f 53/53/53 51/51/51 52/52/52
f 31/31/31 30/30/30 26/26/26
f 26/26/26 25/25/25 31/31/31
f 8/8/8 31/31/31 25/25/25
f 11/11/11 79/79/79 80/80/80
f 80/80/80 16/16/16 11/11/11
f 23/23/23 16/16/16 80/80/80
f 80/80/80 42/42/42 23/23/23
f 51/51/51 69/69/69 81/81/81
f 81/81/81 5/5/5 51/51/51
f 82/82/82 83/83/83 84/84/84
f 84/84/84 85/85/85 82/82/82
f 86/86/86 87/87/87 88/88/88
f 88/88/88 83/83/83 86/86/86
f 89/89/89 90/90/90 91/91/91
f 91/91/91 92/92/92 89/89/89
f 93/93/93 94/94/94 95/95/95
f 95/95/95 96/96/96 93/93/93
f 83/83/83 88/88/88 97/97/97
f 97/97/97 84/84/84 83/83/83
f 49/49/49 98/98/98 86/86/86
f 91/91/91 90/90/90 99/99/99
f 99/99/99 100/100/100 91/91/91
f 84/84/84 91/91/91 100/100/100
f 100/100/100 85/85/85 84/84/84
f 91/91/91 84/84/84 97/97/97
f 97/97/97 92/92/92 91/91/91
f 86/86/86 83/83/83 82/82/82
f 82/82/82 101/101/101 86/86/86
f 49/49/49 50/50/50 102/102/102
f 102/102/102 98/98/98 49/49/49
f 96/96/96 95/95/95 98/98/98
f 98/98/98 102/102/102 96/96/96
f 87/87/87 94/94/94 103/103/103
f 103/103/103 88/88/88 87/87/87
f 104/104/104 105/105/105 89/89/89
f 89/89/89 92/92/92 104/104/104
f 88/88/88 103/103/103 106/106/106
f 106/106/106 97/97/97 88/88/88
f 97/97/97 106/106/106 104/104/104
f 104/104/104 92/92/92 97/97/97
f 107/107/107 4/4/4 5/5/5
f 5/5/5 81/81/81 107/107/107
f 79/79/79 11/11/11 10/10/10
f 10/10/10 108/108/108 79/79/79
f 65/65/65 66/66/66 73/73/73
f 19/19/19 4/4/4 107/107/107
f 107/107/107 109/109/109 19/19/19
f 8/8/8 7/7/7 110/110/110
f 110/110/110 111/111/111 8/8/8
f 7/7/7 15/15/15 45/45/45
f 45/45/45 110/110/110 7/7/7
f 10/10/10 19/19/19 109/109/109
f 109/109/109 108/108/108 10/10/10
f 45/45/45 44/44/44 112/112/112
f 57/57/57 60/60/60 113/113/113
f 113/113/113 67/67/67 57/57/57
f 76/76/76 73/73/73 75/75/75
f 31/31/31 8/8/8 111/111/111
f 111/111/111 32/32/32 31/31/31
f 52/52/52 2/2/2 1/1/1
f 94/94/94 87/87/87 95/95/95
f 87/87/87 86/86/86 98/98/98
f 98/98/98 95/95/95 87/87/87
f 86/86/86 101/101/101 49/49/49
f 49/49/49 101/101/101 114/114/114
f 114/114/114 46/46/46 49/49/49
f 115/115/115 116/116/116 50/50/50
f 50/50/50 48/48/48 115/115/115
f 50/50/50 116/116/116 102/102/102
f 90/90/90 117/117/117 99/99/99
f 22/22/22 36/36/36 39/39/39
f 39/39/39 44/44/44 22/22/22
f 44/44/44 39/39/39 78/78/78
f 78/78/78 112/112/112 44/44/44
f 82/82/82 85/85/85 118/118/118
f 118/118/118 119/119/119 82/82/82
f 101/101/101 82/82/82 119/119/119
f 119/119/119 114/114/114 101/101/101
f 85/85/85 100/100/100 120/120/120
f 120/120/120 118/118/118 85/85/85
f 37/37/37 41/41/41 121/121/121
f 121/121/121 38/38/38 37/37/37
f 122/122/122 121/121/121 41/41/41
f 41/41/41 43/43/43 122/122/122
f 99/99/99 123/123/123 124/124/124
f 100/100/100 99/99/99 124/124/124
f 120/120/120 100/100/100 124/124/124
f 125/125/125 126/126/126 127/127/127
f 128/128/128 129/129/129 127/127/127
f 127/127/127 126/126/126 128/128/128
f 130/130/130 131/131/131 132/132/132
f 132/132/132 133/133/133 130/130/130
f 134/134/134 135/135/135 136/136/136
f 136/136/136 137/137/137 134/134/134
f 136/136/136 135/135/135 131/131/131
f 131/131/131 130/130/130 136/136/136
f 138/138/138 130/130/130 133/133/133
f 133/133/133 139/139/139 138/138/138
f 137/137/137 136/136/136 140/140/140
f 140/140/140 141/141/141 137/137/137
f 130/130/130 138/138/138 140/140/140
f 140/140/140 136/136/136 130/130/130
f 131/131/131 142/142/142 132/132/132
f 128/128/128 126/126/126 143/143/143
f 143/143/143 144/144/144 128/128/128
f 131/131/131 135/135/135 143/143/143
f 143/143/143 142/142/142 131/131/131
f 138/138/138 139/139/139 145/145/145
f 145/145/145 146/146/146 138/138/138
f 140/140/140 147/147/147 148/148/148
f 148/148/148 141/141/141 140/140/140
f 146/146/146 147/147/147 140/140/140
f 140/140/140 138/138/138 146/146/146
f 149/149/149 150/150/150 151/151/151
f 151/151/151 152/152/152 149/149/149
f 29/29/29 32/32/32 153/153/153
f 153/153/153 154/154/154 29/29/29
f 155/155/155 156/156/156 157/157/157
f 157/157/157 158/158/158 155/155/155
f 155/155/155 158/158/158 159/159/159
f 159/159/159 160/160/160 155/155/155
f 161/161/161 162/162/162 157/157/157
f 157/157/157 156/156/156 161/161/161
f 147/147/147 163/163/163 164/164/164
f 164/164/164 148/148/148 147/147/147
f 146/146/146 165/165/165 163/163/163
f 163/163/163 147/147/147 146/146/146
f 166/166/166 165/165/165 146/146/146
f 146/146/146 145/145/145 166/166/166
f 42/42/42 148/148/148 164/164/164
f 164/164/164 167/167/167 42/42/42
f 145/145/145 139/139/139 45/45/45
f 45/45/45 168/168/168 145/145/145
f 169/169/169 170/170/170 171/171/171
f 169/169/169 171/171/171 172/172/172
f 173/173/173 169/169/169 172/172/172
f 125/125/125 151/151/151 150/150/150
f 150/150/150 126/126/126 125/125/125
f 174/174/174 175/175/175 127/127/127
f 127/127/127 129/129/129 174/174/174
f 176/176/176 177/177/177 175/175/175
f 176/176/176 178/178/178 179/179/179
f 178/178/178 176/176/176 174/174/174
f 180/180/180 181/181/181 182/182/182
f 181/181/181 180/180/180 183/183/183
f 61/61/61 184/184/184 62/62/62
f 184/184/184 61/61/61 185/185/185
f 65/65/65 185/185/185 61/61/61
f 185/185/185 65/65/65 186/186/186
f 178/178/178 182/182/182 179/179/179
f 182/182/182 178/178/178 180/180/180
f 178/178/178 68/68/68 67/67/67
f 67/67/67 180/180/180 178/178/178
f 174/174/174 69/69/69 68/68/68
f 68/68/68 178/178/178 174/174/174
f 187/187/187 188/188/188 189/189/189
f 188/188/188 187/187/187 190/190/190
f 187/187/187 186/186/186 190/190/190
f 190/190/190 191/191/191 188/188/188
f 152/152/152 188/188/188 191/191/191
f 191/191/191 154/154/154 152/152/152
f 29/29/29 154/154/154 191/191/191
f 191/191/191 75/75/75 29/29/29
f 190/190/190 75/75/75 191/191/191
f 190/190/190 65/65/65 76/76/76
f 162/162/162 161/161/161 192/192/192
f 192/192/192 193/193/193 162/162/162
f 142/142/142 149/149/149 132/132/132
f 149/149/149 142/142/142 150/150/150
f 144/144/144 143/143/143 135/135/135
f 135/135/135 134/134/134 144/144/144
f 142/142/142 143/143/143 126/126/126
f 126/126/126 150/150/150 142/142/142
f 176/176/176 175/175/175 174/174/174
f 153/153/153 149/149/149 152/152/152
f 152/152/152 154/154/154 153/153/153
f 132/132/132 149/149/149 153/153/153
f 137/137/137 141/141/141 80/80/80
f 80/80/80 79/79/79 137/137/137
f 148/148/148 42/42/42 80/80/80
f 80/80/80 141/141/141 148/148/148
f 174/174/174 129/129/129 81/81/81
f 81/81/81 69/69/69 174/174/174
f 194/194/194 195/195/195 196/196/196
f 196/196/196 197/197/197 194/194/194
f 198/198/198 199/199/199 200/200/200
f 200/200/200 201/201/201 198/198/198
f 202/202/202 203/203/203 204/204/204
f 204/204/204 205/205/205 202/202/202
f 206/206/206 207/207/207 208/208/208
f 208/208/208 209/209/209 206/206/206
f 199/199/199 210/210/210 211/211/211
f 211/211/211 200/200/200 199/199/199
f 212/212/212 213/213/213 172/172/172
f 214/214/214 215/215/215 216/216/216
f 216/216/216 217/217/217 214/214/214
f 196/196/196 195/195/195 215/215/215
f 215/215/215 214/214/214 196/196/196
f 204/204/204 203/203/203 211/211/211
f 211/211/211 210/210/210 204/204/204
f 212/212/212 218/218/218 194/194/194
f 194/194/194 197/197/197 212/212/212
f 172/172/172 213/213/213 219/219/219
f 219/219/219 173/173/173 172/172/172
f 207/207/207 220/220/220 221/221/221
f 221/221/221 208/208/208 207/207/207
f 201/201/201 200/200/200 222/222/222
f 222/222/222 209/209/209 201/201/201
f 223/223/223 203/203/203 202/202/202
f 202/202/202 224/224/224 223/223/223
f 200/200/200 211/211/211 225/225/225
f 225/225/225 222/222/222 200/200/200
f 211/211/211 203/203/203 223/223/223
f 223/223/223 225/225/225 211/211/211
f 107/107/107 81/81/81 129/129/129
f 129/129/129 128/128/128 107/107/107
f 79/79/79 108/108/108 134/134/134
f 134/134/134 137/137/137 79/79/79
f 65/65/65 190/190/190 186/186/186
f 144/144/144 109/109/109 107/107/107
f 107/107/107 128/128/128 144/144/144
f 132/132/132 111/111/111 110/110/110
f 110/110/110 133/133/133 132/132/132
f 133/133/133 110/110/110 45/45/45
f 45/45/45 139/139/139 133/133/133
f 134/134/134 108/108/108 109/109/109
f 109/109/109 144/144/144 134/134/134
f 45/45/45 226/226/226 168/168/168
f 180/180/180 67/67/67 113/113/113
f 113/113/113 183/183/183 180/180/180
f 76/76/76 75/75/75 190/190/190
f 153/153/153 32/32/32 111/111/111
f 111/111/111 132/132/132 153/153/153
f 175/175/175 125/125/125 127/127/127
f 209/209/209 208/208/208 201/201/201
f 201/201/201 208/208/208 221/221/221
f 221/221/221 198/198/198 201/201/201
f 212/212/212 172/172/172 218/218/218
f 172/172/172 171/171/171 159/159/159
f 159/159/159 218/218/218 172/172/172
f 227/227/227 169/169/169 173/173/173
f 173/173/173 228/228/228 227/227/227
f 173/173/173 219/219/219 228/228/228
f 217/217/217 216/216/216 229/229/229
f 230/230/230 231/231/231 229/229/229
f 229/229/229 216/216/216 230/230/230
f 145/145/145 168/168/168 232/232/232
f 232/232/232 166/166/166 145/145/145
f 168/168/168 226/226/226 233/233/233
f 233/233/233 232/232/232 168/168/168
f 194/194/194 158/158/158 157/157/157
f 157/157/157 195/195/195 194/194/194
f 218/218/218 159/159/159 158/158/158
f 158/158/158 194/194/194 218/218/218
f 195/195/195 157/157/157 162/162/162
f 162/162/162 215/215/215 195/195/195
f 160/160/160 159/159/159 171/171/171
f 171/171/171 234/234/234 160/160/160
f 170/170/170 235/235/235 234/234/234
f 234/234/234 171/171/171 170/170/170
f 193/193/193 230/230/230 216/216/216
f 193/193/193 216/216/216 215/215/215
f 162/162/162 193/193/193 215/215/215
f 117/117/117 236/236/236 123/123/123
f 123/123/123 99/99/99 117/117/117
f 237/237/237 238/238/238 239/239/239
f 240/240/240 241/241/241 242/242/242
f 242/242/242 243/243/243 240/240/240
f 237/237/237 241/241/241 240/240/240
f 240/240/240 238/238/238 237/237/237
f 244/244/244 243/243/243 242/242/242
f 245/245/245 246/246/246 247/247/247
f 247/247/247 248/248/248 245/245/245
f 249/249/249 250/250/250 251/251/251
f 251/251/251 252/252/252 249/249/249
f 253/253/253 254/254/254 255/255/255
f 255/255/255 256/256/256 253/253/253
f 255/255/255 257/257/257 258/258/258
f 258/258/258 256/256/256 255/255/255
f 253/253/253 259/259/259 250/250/250
f 250/250/250 260/260/260 253/253/253
f 261/261/261 262/262/262 263/263/263
f 263/263/263 258/258/258 261/261/261
f 264/264/264 265/265/265 266/266/266
f 266/266/266 255/255/255 264/264/264
f 255/255/255 254/254/254 264/264/264
f 267/267/267 257/257/257 255/255/255
f 255/255/255 266/266/266 267/267/267
f 268/268/268 269/269/269 262/262/262
f 262/262/262 261/261/261 268/268/268
f 246/246/246 245/245/245 242/242/242
f 242/242/242 241/241/241 246/246/246
f 270/270/270 271/271/271 272/272/272
f 272/272/272 273/273/273 270/270/270
f 237/237/237 239/239/239 270/270/270
f 270/270/270 274/274/274 237/237/237
f 245/245/245 275/275/275 244/244/244
f 244/244/244 242/242/242 245/245/245
f 241/241/241 237/237/237 274/274/274
f 274/274/274 246/246/246 241/241/241
f 274/274/274 276/276/276 247/247/247
f 247/247/247 246/246/246 274/274/274
f 277/277/277 278/278/278 279/279/279
f 279/279/279 275/275/275 277/277/277
f 275/275/275 245/245/245 248/248/248
f 248/248/248 277/277/277 275/275/275
f 280/280/280 281/281/281 252/252/252
f 252/252/252 251/251/251 280/280/280
f 270/270/270 239/239/239 271/271/271
f 248/248/248 247/247/247 282/282/282
f 282/282/282 283/283/283 248/248/248
f 283/283/283 281/281/281 277/277/277
f 277/277/277 248/248/248 283/283/283
f 270/270/270 273/273/273 276/276/276
f 276/276/276 274/274/274 270/270/270
f 261/261/261 257/257/257 267/267/267
f 267/267/267 268/268/268 261/261/261
f 257/257/257 261/261/261 258/258/258
f 268/268/268 284/284/284 285/285/285
f 285/285/285 269/269/269 268/268/268
f 273/273/273 284/284/284 286/286/286
f 286/286/286 276/276/276 273/273/273
f 286/286/286 282/282/282 247/247/247
f 247/247/247 276/276/276 286/286/286
f 252/252/252 265/265/265 264/264/264
f 264/264/264 249/249/249 252/252/252
f 253/253/253 260/260/260 254/254/254
f 254/254/254 260/260/260 249/249/249
f 249/249/249 264/264/264 254/254/254
f 249/249/249 260/260/260 250/250/250
f 279/279/279 244/244/244 275/275/275
f 278/278/278 277/277/277 281/281/281
f 281/281/281 280/280/280 278/278/278
f 282/282/282 266/266/266 265/265/265
f 265/265/265 283/283/283 282/282/282
f 265/265/265 252/252/252 281/281/281
f 281/281/281 283/283/283 265/265/265
f 284/284/284 273/273/273 272/272/272
f 272/272/272 285/285/285 284/284/284
f 284/284/284 268/268/268 267/267/267
f 267/267/267 286/286/286 284/284/284
f 267/267/267 266/266/266 282/282/282
f 282/282/282 286/286/286 267/267/267
f 287/287/287 288/288/288 289/289/289
f 290/290/290 291/291/291 292/292/292
f 292/292/292 293/293/293 290/290/290
f 287/287/287 289/289/289 290/290/290
f 290/290/290 293/293/293 287/287/287
f 294/294/294 292/292/292 291/291/291
f 295/295/295 296/296/296 297/297/297
f 297/297/297 298/298/298 295/295/295
f 299/299/299 300/300/300 301/301/301
f 301/301/301 302/302/302 299/299/299
f 303/303/303 304/304/304 305/305/305
f 305/305/305 306/306/306 303/303/303
f 305/305/305 304/304/304 307/307/307
f 307/307/307 308/308/308 305/305/305
f 303/303/303 309/309/309 302/302/302
f 302/302/302 310/310/310 303/303/303
f 311/311/311 307/307/307 312/312/312
f 312/312/312 313/313/313 311/311/311
f 314/314/314 305/305/305 315/315/315
f 315/315/315 316/316/316 314/314/314
f 305/305/305 314/314/314 306/306/306
f 317/317/317 315/315/315 305/305/305
f 305/305/305 308/308/308 317/317/317
f 318/318/318 311/311/311 313/313/313
f 313/313/313 319/319/319 318/318/318
f 298/298/298 293/293/293 292/292/292
f 292/292/292 295/295/295 298/298/298
f 320/320/320 321/321/321 322/322/322
f 322/322/322 323/323/323 320/320/320
f 287/287/287 324/324/324 320/320/320
f 320/320/320 288/288/288 287/287/287
f 295/295/295 292/292/292 294/294/294
f 294/294/294 325/325/325 295/295/295
f 293/293/293 298/298/298 324/324/324
f 324/324/324 287/287/287 293/293/293
f 324/324/324 298/298/298 297/297/297
f 297/297/297 326/326/326 324/324/324
f 327/327/327 325/325/325 328/328/328
f 328/328/328 329/329/329 327/327/327
f 325/325/325 327/327/327 296/296/296
f 296/296/296 295/295/295 325/325/325
f 330/330/330 301/301/301 300/300/300
f 300/300/300 331/331/331 330/330/330
f 320/320/320 323/323/323 288/288/288
f 296/296/296 332/332/332 333/333/333
f 333/333/333 297/297/297 296/296/296
f 332/332/332 296/296/296 327/327/327
f 327/327/327 331/331/331 332/332/332
f 320/320/320 324/324/324 326/326/326
f 326/326/326 321/321/321 320/320/320
f 311/311/311 318/318/318 317/317/317
f 317/317/317 308/308/308 311/311/311
f 308/308/308 307/307/307 311/311/311
f 318/318/318 319/319/319 334/334/334
f 334/334/334 335/335/335 318/318/318
f 321/321/321 326/326/326 336/336/336
f 336/336/336 335/335/335 321/321/321
f 336/336/336 326/326/326 297/297/297
f 297/297/297 333/333/333 336/336/336
f 300/300/300 299/299/299 314/314/314
f 314/314/314 316/316/316 300/300/300
f 303/303/303 306/306/306 309/309/309
f 306/306/306 314/314/314 299/299/299
f 299/299/299 309/309/309 306/306/306
f 299/299/299 302/302/302 309/309/309
f 328/328/328 325/325/325 294/294/294
f 329/329/329 330/330/330 331/331/331
f 331/331/331 327/327/327 329/329/329
f 333/333/333 332/332/332 316/316/316
f 316/316/316 315/315/315 333/333/333
f 316/316/316 332/332/332 331/331/331
f 331/331/331 300/300/300 316/316/316
f 335/335/335 334/334/334 322/322/322
f 322/322/322 321/321/321 335/335/335
f 335/335/335 336/336/336 317/317/317
f 317/317/317 318/318/318 335/335/335
f 317/317/317 336/336/336 333/333/333
f 333/333/333 315/315/315 317/317/317
f 337/337/337 338/338/338 339/339/339
f 339/339/339 340/340/340 337/337/337
f 341/341/341 337/337/337 340/340/340
f 340/340/340 342/342/342 341/341/341
f 338/338/338 337/337/337 343/343/343
f 343/343/343 344/344/344 338/338/338
f 337/337/337 341/341/341 345/345/345
f 345/345/345 343/343/343 337/337/337
f 346/346/346 347/347/347 345/345/345
f 345/345/345 341/341/341 346/346/346
f 348/348/348 343/343/343 345/345/345
f 345/345/345 347/347/347 348/348/348
f 349/349/349 342/342/342 340/340/340
f 339/339/339 350/350/350 349/349/349
f 351/351/351 338/338/338 344/344/344
f 344/344/344 352/352/352 351/351/351
f 353/353/353 346/346/346 341/341/341
f 341/341/341 342/342/342 353/353/353
f 348/348/348 344/344/344 343/343/343
f 340/340/340 339/339/339 349/349/349
f 351/351/351 350/350/350 339/339/339
f 339/339/339 338/338/338 351/351/351
f 352/352/352 344/344/344 348/348/348
f 353/353/353 342/342/342 349/349/349
f 354/354/354 355/355/355 356/356/356
f 355/355/355 354/354/354 357/357/357
f 358/358/358 357/357/357 354/354/354
f 357/357/357 358/358/358 359/359/359
f 356/356/356 360/360/360 354/354/354
f 360/360/360 356/356/356 361/361/361
f 354/354/354 362/362/362 358/358/358
f 362/362/362 354/354/354 360/360/360
f 346/346/346 362/362/362 347/347/347
f 362/362/362 346/346/346 358/358/358
f 348/348/348 362/362/362 360/360/360
f 362/362/362 348/348/348 347/347/347
f 349/349/349 357/357/357 359/359/359
f 355/355/355 349/349/349 350/350/350
f 351/351/351 361/361/361 356/356/356
f 361/361/361 351/351/351 352/352/352
f 353/353/353 358/358/358 346/346/346
f 358/358/358 353/353/353 359/359/359
f 348/348/348 360/360/360 361/361/361
f 357/357/357 349/349/349 355/355/355
f 351/351/351 355/355/355 350/350/350
f 355/355/355 351/351/351 356/356/356
f 352/352/352 348/348/348 361/361/361
f 353/353/353 349/349/349 359/359/359
