mtllib Inferno143.mtl
o Inferno143_part_0
v 0.21448946 0.6403607 -0.0536318123
v 0.230907619 0.5985531 -0.0330991745
v 0.258597672 0.625168562 -0.011044547
v 0.230677426 0.6623349 -0.023006618
v 0.221074253 0.639533043 -0.08822056
v 0.2758807 0.6151166 -0.09731014
v 0.3216078 0.608191252 -0.04403847
v 0.2601536 0.5971207 0.00304296613
v 0.3298172 0.5312116 0.0107993335
v 0.2842484 0.6002172 -0.101444229
v 0.303575456 0.6311719 -0.0497439429
v 0.3216078 0.608191252 -0.04403847
v 0.2613508 0.538374543 0.04025092
v 0.2601536 0.5971207 0.00304296613
v 0.229044557 0.571525931 -0.033275865
v 0.24010542 0.5299981 -0.00708732
v 0.2613508 0.538374543 0.04025092
v 0.298019767 0.5328237 0.0299519524
v 0.2842484 0.6002172 -0.101444229
v 0.354542673 0.5265182 -0.106262371
v 0.314274669 0.5187512 -0.120092586
v 0.294606566 0.5223555 0.00220447034
v 0.335247219 0.413414419 0.0242547914
v 0.3346423 0.4136828 0.002098143
v 0.3631803 0.488119185 -0.009896129
v 0.371831775 0.498320669 0.0155331641
v 0.3207218 0.490462452 -0.120279804
v 0.316561818 0.498709768 -0.0261452124
v 0.3196901 0.48543027 0.01854077
v 0.3152897 0.421223223 0.03332653
v 0.248289943 0.466758668 0.05417066
v 0.291132361 0.478200167 0.06439083
v 0.3226422 0.4197268 0.00118069351
v 0.3152897 0.421223223 0.03332653
v 0.3196901 0.48543027 0.01854077
v 0.3346423 0.4136828 0.002098143
v 0.335247219 0.413414419 0.0242547914
v 0.294606566 0.5223555 0.00220447034
v 0.2774702 0.4507696 0.03077843
v 0.248289943 0.466758668 0.05417066
v 0.2774702 0.4507696 0.03077843
v 0.248289943 0.466758668 0.05417066
v 0.35323438 0.489124745 -0.108295739
v 0.3645426 0.542548239 -0.0249372125
v 0.318599284 0.407182753 -0.0869002342
v 0.297165424 0.412915856 -0.00303258
v 0.317252129 0.410897166 -0.004984036
v 0.317252129 0.410897166 -0.004984036
v 0.316561818 0.498709768 -0.0261452124
v 0.297165424 0.412915856 -0.00303258
v 0.3226422 0.4197268 0.00118069351
v 0.2601536 0.5971207 0.00304296613
v 0.258597672 0.625168562 -0.011044547
v 0.260560155 0.596287131 0.00281843543
v 0.20718652 0.6384258 0.00735683739
v 0.193293929 0.6003733 -0.0621121526
v 0.229749173 0.5709376 -0.0331523865
v 0.2844241 0.599353969 -0.1006675
v 0.240305752 0.6217296 -0.1379247
v 0.323229581 0.6833467 -0.05879748
v 0.321449846 0.6073346 -0.0438171774
v 0.2914777 0.6572431 -0.112943247
v 0.2824575 0.6797996 -0.00544439256
v 0.243368655 0.6650316 0.02125039
v 0.260560155 0.596287131 0.00281843543
v 0.243368655 0.6650316 0.02125039
v 0.4284818 0.5432852 -0.02373536
v 0.3557145 0.5069269 -0.031738773
v 0.350080341 0.538204134 -0.07953123
v 0.41336444 0.5664055 -0.06371478
v 0.382021755 0.6021596 -0.03204894
v 0.327687353 0.591748834 -0.03868044
v 0.4029289 0.5710847 0.00808802247
v 0.338381857 0.5435537 0.009198517
v 0.4466896 0.611800969 -0.0487330854
v 0.465353161 0.697212934 -0.0244332552
v 0.463133246 0.5923931 -0.0211496353
v 0.4241692 0.6336724 -0.0277955085
v 0.438739657 0.615651 0.000340625644
v 0.315453231 0.680604339 -0.0588350147
v 0.335971862 0.8021476 -0.07198488
v 0.253009349 0.778164148 0.03660571
v 0.241069943 0.660335541 0.00303556025
v 0.265765578 0.646093667 -0.127432525
v 0.293082 0.7541268 -0.183673054
v 0.315914959 0.620495141 -0.0484758168
v 0.2631532 0.6087315 -0.005503595
v 0.278543949 0.5993063 -0.09376183
v 0.2505017 0.672298849 -0.02550356
v 0.230677426 0.6623349 -0.023006618
v 0.229044557 0.571525931 -0.033275865
v 0.2601536 0.5971207 0.00304296613
v 0.247191727 0.6599913 -0.09046751
v 0.265669316 0.678664744 -0.0606179237
v -0.219168514 0.6439185 -0.0494564176
v -0.234654278 0.666004658 -0.01854992
v -0.262138844 0.6289966 -0.006180227
v -0.235033691 0.602187455 -0.0287215263
v -0.226372272 0.6431396 -0.08392271
v -0.2810219 0.619072437 -0.09212465
v -0.325840116 0.6125149 -0.0380552337
v -0.333614916 0.5356396 0.0169181377
v -0.263639152 0.601007342 0.007927984
v -0.289563477 0.604280651 -0.09611497
v -0.325840116 0.6125149 -0.0380552337
v -0.3077533 0.6353201 -0.0440750644
v -0.264587224 0.542316437 0.0451486036
v -0.244245678 0.533793032 -0.00255898386
v -0.23336184 0.5751955 -0.0289360285
v -0.263639152 0.601007342 0.007927984
v -0.264587224 0.542316437 0.0451486036
v -0.301471651 0.5370256 0.0355029032
v -0.289563477 0.604280651 -0.09611497
v -0.320488036 0.5230777 -0.114228413
v -0.360448152 0.5311284 -0.09968567
v -0.298625857 0.5265353 0.00769981
v -0.339637518 0.417882651 0.0304752812
v -0.3757702 0.503046036 0.0223994926
v -0.367644 0.492785215 -0.003178805
v -0.339424342 0.41814816 0.008311406
v -0.321247816 0.503047049 -0.0202539787
v -0.327137232 0.494835228 -0.114299327
v -0.3236757 0.4897872 0.0244813785
v -0.3194674 0.425549626 0.0391906723
v -0.294359922 0.482352555 0.0698174462
v -0.251787722 0.4706092 0.0588386878
v -0.3236757 0.4897872 0.0244813785
v -0.3194674 0.425549626 0.0391906723
v -0.327400029 0.4241072 0.00718060136
v -0.339424342 0.41814816 0.008311406
v -0.339637518 0.417882651 0.0304752812
v -0.298625857 0.5265353 0.00769981
v -0.281491131 0.454828233 0.03596943
v -0.251787722 0.4706092 0.0588386878
v -0.281491131 0.454828233 0.03596943
v -0.251787722 0.4706092 0.0588386878
v -0.3594405 0.4937266 -0.101739615
v -0.368888527 0.547223568 -0.0181967467
v -0.3020509 0.417116642 0.002515912
v -0.325010926 0.411540449 -0.0809574649
v -0.322182834 0.4152401 0.0009216368
v -0.322182834 0.4152401 0.0009216368
v -0.3020509 0.417116642 0.002515912
v -0.321247816 0.503047049 -0.0202539787
v -0.327400029 0.4241072 0.00718060136
v -0.263639152 0.601007342 0.007927984
v -0.262138844 0.6289966 -0.006180227
v -0.26405555 0.600176632 0.00771077
v -0.2340683 0.5746122 -0.0288000181
v -0.197929323 0.603743553 -0.0583980978
v -0.210316539 0.641889 0.011304304
v -0.289731473 0.6034186 -0.09533519
v -0.246128082 0.6254364 -0.133365065
v -0.327195823 0.687633157 -0.05278139
v -0.296595961 0.6613091 -0.107480921
v -0.3256843 0.6116572 -0.037836723
v -0.285508662 0.6837946 -0.000160649419
v -0.26405555 0.600176632 0.00771077
v -0.246057242 0.668749 0.02583661
v -0.246057242 0.668749 0.02583661
v -0.432789475 0.548412442 -0.0158594847
v -0.418221533 0.571427763 -0.05610256
v -0.355429232 0.542780757 -0.07303873
v -0.360434651 0.5115411 -0.0251517445
v -0.3860694 0.6069575 -0.0250006616
v -0.33193627 0.596163332 -0.0325954854
v -0.406479537 0.5760286 0.0155032724
v -0.342119157 0.54804194 0.01546891
v -0.4509536 0.6170568 -0.0405342
v -0.467041552 0.597763836 -0.0126618147
v -0.4685784 0.702597 -0.0159121
v -0.427910835 0.6387672 -0.0200012773
v -0.442106277 0.620847464 0.008390337
v -0.319440931 0.6848359 -0.0529568568
v -0.244115651 0.664037943 0.00758411
v -0.2546237 0.7819459 0.0413536057
v -0.339330167 0.8065221 -0.06574788
v -0.271224678 0.6499792 -0.122423872
v -0.298771262 0.758206248 -0.178177178
v -0.320143521 0.6247308 -0.0425873026
v -0.2667113 0.612591863 -0.0005582124
v -0.2837334 0.6032812 -0.0885285959
v -0.234654278 0.666004658 -0.01854992
v -0.2544488 0.676108658 -0.020695
v -0.263639152 0.601007342 0.007927984
v -0.23336184 0.5751955 -0.0289360285
v -0.270192325 0.6825838 -0.0555348322
v -0.252380282 0.6637821 -0.0857067257
vt 0.427623123 0.82754904
vt 0.4370209 0.759315431
vt 0.546018243 0.78700316
vt 0.5401565 0.8510615
vt 0.338516951 0.823632658
vt 0.3192042 0.7546208
vt 0.220018178 0.425671458
vt 0.116104983 0.4324566
vt 0.147341937 0.27284658
vt 0.3339119 0.677962363
vt 0.21284464 0.7758143
vt 0.199472442 0.702755034
vt 0.641236 0.325187445
vt 0.586060941 0.442752659
vt 0.47822544 0.423143864
vt 0.56925106 0.314083934
vt 0.0530416034 0.3124665
vt 0.104580387 0.2811283
vt 0.3556121 0.423478365
vt 0.3400578 0.2596352
vt 0.400291562 0.262537479
vt 0.5399099 0.262703538
vt 0.150751024 0.07190126
vt 0.182275012 0.06774557
vt 0.200596809 0.163624585
vt 0.159871459 0.166311622
vt 0.400955647 0.160347879
vt 0.4909444 0.149921536
vt 0.141526029 0.169639766
vt 0.136489347 0.09111583
vt 0.0308487676 0.155831754
vt 0.06800701 0.170341432
vt 0.50486815 0.0600689054
vt 0.5471605 0.0536844134
vt 0.5514925 0.136664212
vt 0.504012465 0.021861434
vt 0.5420748 0.0242812037
vt 0.124694377 0.241631329
vt 0.0696338043 0.14330703
vt 0.02997567 0.154223561
vt 0.632811368 0.152436376
vt 0.6721582 0.173611522
vt 0.341010034 0.167393446
vt 0.201660872 0.2713722
vt 0.3536219 0.09305626
vt 0.487762958 0.102540314
vt 0.205832854 0.06320006
vt 0.473166853 0.06327546
vt 0.198411912 0.111276627
vt 0.199023828 0.06845558
vt 0.191946909 0.06923944
vt 0.09955592 0.714617133
vt 0.119853742 0.7794859
vt 0.586060941 0.442752659
vt 0.5547121 0.6196486
vt 0.4815356 0.6023851
vt 0.47822544 0.423143864
vt 0.3556121 0.423478365
vt 0.3995143 0.591939747
vt 0.225005612 0.6174475
vt 0.220018178 0.425671458
vt 0.316047847 0.5990024
vt 0.163074687 0.6186183
vt 0.0836226344 0.6167359
vt 0.116104983 0.4324566
vt 0.5981604 0.62316
vt 0.9390955 0.2681564
vt 0.9480029 0.0547485352
vt 0.8616347 0.06246823
vt 0.862810552 0.245696783
vt 0.7632447 0.217835188
vt 0.7328805 0.0760073662
vt 0.862810552 0.245696783
vt 0.8616347 0.06246823
vt 0.797301 0.376303732
vt 0.6349134 0.5182753
vt 0.8645414 0.403067648
vt 0.734967053 0.352392733
vt 0.797301 0.376303732
vt 0.7774179 0.713488
vt 0.7816166 0.9310193
vt 0.5727187 0.8675781
vt 0.651902139 0.666231
vt 0.889970243 0.667823136
vt 0.9741954 0.8703161
vt 0.7716683 0.6072437
vt 0.662253857 0.5761707
vt 0.868746638 0.5766174
vt 0.167935342 0.8458134
vt 0.1123678 0.842895865
vt 0.4464187 0.6910818
vt 0.55188 0.722944856
vt 0.269930482 0.8361976
vt 0.225671232 0.843962848
vt 0.427623123 0.82754904
vt 0.5401565 0.8510615
vt 0.546018243 0.78700316
vt 0.4370209 0.759315431
vt 0.338516951 0.823632658
vt 0.3192042 0.7546208
vt 0.220018178 0.425671458
vt 0.147341937 0.27284658
vt 0.116104983 0.4324566
vt 0.3339119 0.677962363
vt 0.199472442 0.702755034
vt 0.21284464 0.7758143
vt 0.641236 0.325187445
vt 0.56925106 0.314083934
vt 0.47822544 0.423143864
vt 0.586060941 0.442752659
vt 0.0530416034 0.3124665
vt 0.104580387 0.2811283
vt 0.3556121 0.423478365
vt 0.400291562 0.262537479
vt 0.3400578 0.2596352
vt 0.5399099 0.262703538
vt 0.150751024 0.07190126
vt 0.159871459 0.166311622
vt 0.200596809 0.163624585
vt 0.182275012 0.06774557
vt 0.4909444 0.149921536
vt 0.400955647 0.160347879
vt 0.141526029 0.169639766
vt 0.136489347 0.09111583
vt 0.06800701 0.170341432
vt 0.0308487676 0.155831754
vt 0.5514925 0.136664212
vt 0.5471605 0.0536844134
vt 0.50486815 0.0600689054
vt 0.504012465 0.021861434
vt 0.5420748 0.0242812037
vt 0.124694377 0.241631329
vt 0.0696338043 0.14330703
vt 0.02997567 0.154223561
vt 0.632811368 0.152436376
vt 0.6721582 0.173611522
vt 0.341010034 0.167393446
vt 0.201660872 0.2713722
vt 0.487762958 0.102540314
vt 0.3536219 0.09305626
vt 0.205832854 0.06320006
vt 0.473166853 0.06327546
vt 0.199023828 0.06845558
vt 0.198411912 0.111276627
vt 0.191946909 0.06923944
vt 0.09955592 0.714617133
vt 0.119853742 0.7794859
vt 0.586060941 0.442752659
vt 0.47822544 0.423143864
vt 0.4815356 0.6023851
vt 0.5547121 0.6196486
vt 0.3556121 0.423478365
vt 0.3995143 0.591939747
vt 0.225005612 0.6174475
vt 0.316047847 0.5990024
vt 0.220018178 0.425671458
vt 0.163074687 0.6186183
vt 0.116104983 0.4324566
vt 0.0836226344 0.6167359
vt 0.5981604 0.62316
vt 0.9390955 0.2681564
vt 0.862810552 0.245696783
vt 0.8616347 0.06246823
vt 0.9480029 0.0547485352
vt 0.7632447 0.217835188
vt 0.7328805 0.0760073662
vt 0.862810552 0.245696783
vt 0.8616347 0.06246823
vt 0.797301 0.376303732
vt 0.8645414 0.403067648
vt 0.6349134 0.5182753
vt 0.734967053 0.352392733
vt 0.797301 0.376303732
vt 0.7774179 0.713488
vt 0.651902139 0.666231
vt 0.5727187 0.8675781
vt 0.7816166 0.9310193
vt 0.889970243 0.667823136
vt 0.9741954 0.8703161
vt 0.7716683 0.6072437
vt 0.662253857 0.5761707
vt 0.868746638 0.5766174
vt 0.1123678 0.842895865
vt 0.167935342 0.8458134
vt 0.55188 0.722944856
vt 0.4464187 0.6910818
vt 0.225671232 0.843962848
vt 0.269930482 0.8361976
vn -0.9084109 -0.330931455 0.25548777
vn -0.9785542 -0.0633368343 0.196010724
vn -0.0294310935 0.308994055 0.9506085
vn -0.442466229 -0.04410817 0.8956998
vn -0.521902442 -0.4813227 -0.70423454
vn 0.06673083 0.13126415 -0.989098966
vn 0.736642838 0.6577067 0.1574144
vn -0.214667752 0.4922754 0.8435536
vn 0.287591249 0.3438404 0.8939044
vn -0.060551025 0.29728 -0.9528684
vn 0.8007047 0.5938267 0.07900488
vn 0.736642838 0.6577067 0.1574144
vn -0.3762414 0.433911026 0.8186352
vn -0.214667752 0.4922754 0.8435536
vn -0.9697428 -0.222272232 -0.100965515
vn -0.7928676 -0.397175163 -0.4621827
vn -0.3762414 0.433911026 0.8186352
vn 0.6844006 0.176895678 0.7073216
vn -0.060551025 0.29728 -0.9528684
vn 0.755399644 0.242801622 -0.6086204
vn -0.4126858 -0.134249344 -0.900925934
vn -0.1411134 -0.970205963 -0.196945667
vn 0.4155751 -0.7482184 0.5171717
vn 0.310215056 -0.821082056 -0.479156435
vn 0.9362069 -0.30241853 -0.179052263
vn 0.8151395 0.06640636 0.57544595
vn -0.4532175 -0.174588814 -0.8741354
vn -0.959911764 -0.2782893 -0.03353627
vn -0.5951935 0.03723235 0.8027194
vn -0.529319465 -0.383411139 0.7568468
vn -0.7184721 -0.4882363 0.495401949
vn 0.5790771 -0.229763985 0.782226443
vn -0.6135738 -0.562701 -0.5539809
vn -0.529319465 -0.383411139 0.7568468
vn -0.5951935 0.03723235 0.8027194
vn 0.310215056 -0.821082056 -0.479156435
vn 0.4155751 -0.7482184 0.5171717
vn -0.1411134 -0.970205963 -0.196945667
vn 0.211277515 -0.935808063 -0.282179177
vn -0.7184721 -0.4882363 0.495401949
vn 0.211277515 -0.935808063 -0.282179177
vn -0.7184721 -0.4882363 0.495401949
vn 0.7687663 -0.228248388 -0.597412169
vn 0.891637862 0.401745319 0.208764538
vn -0.0617872141 -0.8509255 -0.5216398
vn -0.655571163 -0.4038523 0.6380672
vn 0.409164757 -0.631394267 0.6587302
vn 0.409164757 -0.631394267 0.6587302
vn -0.959911764 -0.2782893 -0.03353627
vn -0.655571163 -0.4038523 0.6380672
vn -0.6135738 -0.562701 -0.5539809
vn -0.214667752 0.4922754 0.8435536
vn -0.0294310935 0.308994055 0.9506085
vn 0.0267097689 -0.3605229 0.932367861
vn -0.356822968 -0.534475863 0.7661677
vn -0.4653296 -0.88441354 -0.0357915536
vn -0.730975747 -0.615614533 0.29443723
vn 0.449418664 -0.5840623 -0.675939441
vn 0.158853844 -0.7519988 -0.6397369
vn 0.995846 -0.005403511 0.0908933654
vn 0.971790552 -0.09317307 0.216660738
vn 0.7682576 -0.19017309 -0.6112401
vn 0.6699289 -0.0168722924 0.7422336
vn 0.292747647 -0.178651869 0.9393521
vn 0.0267097689 -0.3605229 0.932367861
vn 0.292747647 -0.178651869 0.9393521
vn 0.6516404 -0.7436874 0.149311349
vn 0.446619064 -0.886920154 0.117915593
vn 0.2860142 -0.106892735 -0.952244639
vn 0.331988782 -0.09205144 -0.938781142
vn -0.3828596 0.9172282 -0.110050686
vn -0.201157436 0.976164043 -0.08148271
vn 0.0861110762 -0.010880867 0.996226132
vn 0.0310131647 -0.0324155726 0.9989932
vn 0.361242324 0.1412713 -0.9217084
vn 0.2840415 0.9588119 0.000491077139
vn 0.925907552 -0.338123322 0.168427587
vn -0.71996063 0.6761111 -0.156621978
vn 0.07961561 0.200578913 0.976437151
vn 0.9846508 -0.139739484 0.1045741
vn 0.967725039 -0.205353245 0.146076411
vn 0.7431763 -0.15991658 0.649704337
vn 0.6485987 -0.0752167553 0.7574049
vn 0.871702433 -0.219392508 -0.438180119
vn 0.9176742 -0.3395006 -0.206430212
vn 0.98954916 0.0298898555 0.1410647
vn 0.608381748 0.130817175 0.782788932
vn 0.81972754 -0.13279815 -0.5571458
vn 0.418217421 0.450283825 0.788884461
vn -0.442466229 -0.04410817 0.8956998
vn -0.9697428 -0.222272232 -0.100965515
vn -0.214667752 0.4922754 0.8435536
vn 0.290580839 0.3231051 -0.9006476
vn 0.7672218 0.6261022 -0.139165148
vn 0.9138748 -0.328768343 0.238210455
vn 0.457980663 -0.0433498062 0.8879046
vn 0.05072467 0.307809353 0.950094938
vn 0.981932163 -0.06690193 0.1770124
vn 0.508629739 -0.479843229 -0.714875
vn -0.08152593 0.131146014 -0.9880053
vn -0.7287227 0.663278461 0.1703671
vn -0.269186884 0.345913619 0.898822665
vn 0.233172089 0.491021425 0.8393621
vn 0.0458638035 0.297440976 -0.9536381
vn -0.7287227 0.663278461 0.1703671
vn -0.79652065 0.59735024 0.09342149
vn 0.393758833 0.431312621 0.811741
vn 0.781746149 -0.402896374 -0.47597
vn 0.96616894 -0.229217321 -0.118224427
vn 0.233172089 0.491021425 0.8393621
vn 0.393758833 0.431312621 0.811741
vn -0.6704761 0.181819052 0.71930784
vn 0.0458638035 0.297440976 -0.9536381
vn 0.395623058 -0.137022927 -0.908134
vn -0.7643195 0.248298869 -0.5951163
vn 0.130636066 -0.971205 -0.199236766
vn -0.41160205 -0.7452954 0.5245174
vn -0.804301441 0.0721295252 0.5898277
vn -0.9413533 -0.295782655 -0.162377775
vn -0.324472845 -0.818838835 -0.473519325
vn 0.9571735 -0.285065383 -0.0505628027
vn 0.436375827 -0.177732468 -0.8820359
vn 0.6096053 0.03297306 0.792019069
vn 0.539953649 -0.387190074 0.7473513
vn -0.5667026 -0.225713983 0.792402267
vn 0.7236886 -0.493333668 0.4825939
vn 0.6096053 0.03297306 0.792019069
vn 0.539953649 -0.387190074 0.7473513
vn 0.599645555 -0.56698966 -0.5647549
vn -0.324472845 -0.818838835 -0.473519325
vn -0.41160205 -0.7452954 0.5245174
vn 0.130636066 -0.971205 -0.199236766
vn -0.222865418 -0.93427366 -0.278323054
vn 0.7236886 -0.493333668 0.4825939
vn -0.222865418 -0.93427366 -0.278323054
vn 0.7236886 -0.493333668 0.4825939
vn -0.7808496 -0.222771257 -0.5836497
vn -0.8848766 0.408151627 0.224511936
vn 0.663929164 -0.4085161 0.6263487
vn 0.0464961454 -0.8513083 -0.522601545
vn -0.401853442 -0.628528 0.6659327
vn -0.401853442 -0.628528 0.6659327
vn 0.663929164 -0.4085161 0.6263487
vn 0.9571735 -0.285065383 -0.0505628027
vn 0.599645555 -0.56698966 -0.5647549
vn 0.233172089 0.491021425 0.8393621
vn 0.05072467 0.307809353 0.950094938
vn -0.0129982522 -0.360609025 0.9326265
vn 0.7313693 -0.621079147 0.28170836
vn 0.457772434 -0.8879872 -0.04385403
vn 0.366279066 -0.537332833 0.759679735
vn -0.4657378 -0.5808883 -0.667575538
vn -0.175735563 -0.7511119 -0.636355162
vn -0.9940881 0.00157802657 0.108565137
vn -0.7803274 -0.184825584 -0.5974351
vn -0.968417 -0.08638929 0.233892366
vn -0.656739 -0.012302394 0.7540176
vn -0.0129982522 -0.360609025 0.9326265
vn -0.277331024 -0.1768329 0.944361
vn -0.277331024 -0.1768329 0.944361
vn -0.6541264 -0.7390718 0.160908416
vn -0.349252522 -0.0896438062 -0.932730854
vn -0.303630054 -0.104808427 -0.947008
vn -0.450712532 -0.8837483 0.125885457
vn 0.387318641 0.914505839 -0.1168913
vn 0.206574 0.974722862 -0.08510426
vn -0.06847835 -0.0103341779 0.997599065
vn -0.0134933507 -0.03225759 0.9993885
vn -0.3765478 0.14387919 -0.9151561
vn -0.9251371 -0.331580073 0.184867561
vn -0.277201951 0.9607962 0.005475272
vn 0.7218267 0.6710147 -0.169426993
vn -0.06084008 0.201075792 0.9776846
vn -0.983601332 -0.132781938 0.122054726
vn -0.635559559 -0.07067733 0.76881
vn -0.7326317 -0.154699758 0.6628113
vn -0.966405451 -0.198516279 0.163253784
vn -0.880876541 -0.2131976 -0.422614843
vn -0.923572838 -0.332991928 -0.190077811
vn -0.98665154 0.03687565 0.158615574
vn -0.5934427 0.135065451 0.7934629
vn -0.83041203 -0.126965478 -0.5424904
vn 0.457980663 -0.0433498062 0.8879046
vn -0.404954761 0.448989958 0.7965047
vn 0.233172089 0.491021425 0.8393621
vn 0.96616894 -0.229217321 -0.118224427
vn -0.769353867 0.626588166 -0.12442635
vn -0.307215124 0.325187951 -0.8943555
usemtl Inferno143_part_0_material_0
f 1/1/1 2/2/2 3/3/3
f 3/3/3 4/4/4 1/1/1
f 5/5/5 6/6/6 2/2/2
f 2/2/2 1/1/1 5/5/5
f 7/7/7 8/8/8 9/9/9
f 10/10/10 6/6/6 11/11/11
f 11/11/11 12/12/12 10/10/10
f 13/13/13 14/14/14 15/15/15
f 15/15/15 16/16/16 13/13/13
f 17/17/17 18/18/18 8/8/8
f 19/19/19 20/20/20 21/21/21
f 16/16/16 15/15/15 22/22/22
f 23/23/23 24/24/24 25/25/25
f 25/25/25 26/26/26 23/23/23
f 21/21/21 27/27/27 28/28/28
f 28/28/28 22/22/22 21/21/21
f 29/29/29 30/30/30 23/23/23
f 23/23/23 26/26/26 29/29/29
f 17/17/17 31/31/31 32/32/32
f 32/32/32 18/18/18 17/17/17
f 28/28/28 33/33/33 34/34/34
f 34/34/34 35/35/35 28/28/28
f 36/36/36 37/37/37 34/34/34
f 34/34/34 33/33/33 36/36/36
f 38/38/38 18/18/18 32/32/32
f 32/32/32 39/39/39 38/38/38
f 40/40/40 39/39/39 32/32/32
f 41/41/41 42/42/42 16/16/16
f 16/16/16 22/22/22 41/41/41
f 43/43/43 20/20/20 44/44/44
f 44/44/44 25/25/25 43/43/43
f 20/20/20 43/43/43 27/27/27
f 27/27/27 21/21/21 20/20/20
f 26/26/26 44/44/44 9/9/9
f 9/9/9 29/29/29 26/26/26
f 26/26/26 25/25/25 44/44/44
f 27/27/27 45/45/45 46/46/46
f 46/46/46 28/28/28 27/27/27
f 35/35/35 22/22/22 28/28/28
f 45/45/45 27/27/27 43/43/43
f 43/43/43 25/25/25 47/47/47
f 47/47/47 45/45/45 43/43/43
f 48/48/48 46/46/46 45/45/45
f 47/47/47 25/25/25 49/49/49
f 49/49/49 50/50/50 47/47/47
f 49/49/49 25/25/25 24/24/24
f 24/24/24 51/51/51 49/49/49
f 18/18/18 38/38/38 9/9/9
f 8/8/8 18/18/18 9/9/9
f 44/44/44 7/7/7 9/9/9
f 7/7/7 44/44/44 20/20/20
f 20/20/20 19/19/19 7/7/7
f 9/9/9 38/38/38 29/29/29
f 52/52/52 12/12/12 11/11/11
f 11/11/11 53/53/53 52/52/52
f 15/15/15 19/19/19 21/21/21
f 21/21/21 22/22/22 15/15/15
f 13/13/13 16/16/16 42/42/42
f 54/54/54 55/55/55 56/56/56
f 56/56/56 57/57/57 54/54/54
f 58/58/58 57/57/57 56/56/56
f 56/56/56 59/59/59 58/58/58
f 60/60/60 61/61/61 62/62/62
f 63/63/63 64/64/64 65/65/65
f 65/65/65 61/61/61 63/63/63
f 61/61/61 60/60/60 63/63/63
f 61/61/61 58/58/58 62/62/62
f 58/58/58 59/59/59 62/62/62
f 54/54/54 66/66/66 55/55/55
f 67/67/67 68/68/68 69/69/69
f 69/69/69 70/70/70 67/67/67
f 71/71/71 70/70/70 69/69/69
f 69/69/69 72/72/72 71/71/71
f 73/73/73 71/71/71 72/72/72
f 72/72/72 74/74/74 73/73/73
f 73/73/73 74/74/74 68/68/68
f 68/68/68 67/67/67 73/73/73
f 75/75/75 76/76/76 77/77/77
f 78/78/78 76/76/76 75/75/75
f 79/79/79 76/76/76 78/78/78
f 77/77/77 76/76/76 79/79/79
f 77/77/77 67/67/67 70/70/70
f 70/70/70 75/75/75 77/77/77
f 70/70/70 71/71/71 78/78/78
f 78/78/78 75/75/75 70/70/70
f 71/71/71 73/73/73 79/79/79
f 79/79/79 78/78/78 71/71/71
f 79/79/79 73/73/73 67/67/67
f 67/67/67 77/77/77 79/79/79
f 80/80/80 81/81/81 82/82/82
f 82/82/82 83/83/83 80/80/80
f 84/84/84 85/85/85 81/81/81
f 81/81/81 80/80/80 84/84/84
f 86/86/86 80/80/80 83/83/83
f 83/83/83 87/87/87 86/86/86
f 88/88/88 84/84/84 80/80/80
f 80/80/80 86/86/86 88/88/88
f 80/80/80 81/81/81 82/82/82
f 82/82/82 83/83/83 80/80/80
f 84/84/84 85/85/85 81/81/81
f 81/81/81 80/80/80 84/84/84
f 86/86/86 80/80/80 83/83/83
f 83/83/83 87/87/87 86/86/86
f 88/88/88 84/84/84 80/80/80
f 80/80/80 86/86/86 88/88/88
f 53/53/53 89/89/89 90/90/90
f 2/2/2 91/91/91 92/92/92
f 92/92/92 3/3/3 2/2/2
f 6/6/6 10/10/10 91/91/91
f 91/91/91 2/2/2 6/6/6
f 6/6/6 93/93/93 94/94/94
f 94/94/94 11/11/11 6/6/6
f 6/6/6 5/5/5 93/93/93
f 11/11/11 94/94/94 89/89/89
f 89/89/89 53/53/53 11/11/11
f 95/95/95 96/96/96 97/97/97
f 97/97/97 98/98/98 95/95/95
f 99/99/99 95/95/95 98/98/98
f 98/98/98 100/100/100 99/99/99
f 101/101/101 102/102/102 103/103/103
f 104/104/104 105/105/105 106/106/106
f 106/106/106 100/100/100 104/104/104
f 107/107/107 108/108/108 109/109/109
f 109/109/109 110/110/110 107/107/107
f 111/111/111 103/103/103 112/112/112
f 113/113/113 114/114/114 115/115/115
f 108/108/108 116/116/116 109/109/109
f 117/117/117 118/118/118 119/119/119
f 119/119/119 120/120/120 117/117/117
f 114/114/114 116/116/116 121/121/121
f 121/121/121 122/122/122 114/114/114
f 123/123/123 118/118/118 117/117/117
f 117/117/117 124/124/124 123/123/123
f 111/111/111 112/112/112 125/125/125
f 125/125/125 126/126/126 111/111/111
f 121/121/121 127/127/127 128/128/128
f 128/128/128 129/129/129 121/121/121
f 130/130/130 129/129/129 128/128/128
f 128/128/128 131/131/131 130/130/130
f 132/132/132 133/133/133 125/125/125
f 125/125/125 112/112/112 132/132/132
f 134/134/134 125/125/125 133/133/133
f 135/135/135 116/116/116 108/108/108
f 108/108/108 136/136/136 135/135/135
f 137/137/137 119/119/119 138/138/138
f 138/138/138 115/115/115 137/137/137
f 115/115/115 114/114/114 122/122/122
f 122/122/122 137/137/137 115/115/115
f 118/118/118 123/123/123 102/102/102
f 102/102/102 138/138/138 118/118/118
f 118/118/118 138/138/138 119/119/119
f 122/122/122 121/121/121 139/139/139
f 139/139/139 140/140/140 122/122/122
f 127/127/127 121/121/121 116/116/116
f 140/140/140 137/137/137 122/122/122
f 137/137/137 140/140/140 141/141/141
f 141/141/141 119/119/119 137/137/137
f 142/142/142 140/140/140 139/139/139
f 141/141/141 143/143/143 144/144/144
f 144/144/144 119/119/119 141/141/141
f 144/144/144 145/145/145 120/120/120
f 120/120/120 119/119/119 144/144/144
f 112/112/112 102/102/102 132/132/132
f 103/103/103 102/102/102 112/112/112
f 138/138/138 102/102/102 101/101/101
f 101/101/101 113/113/113 115/115/115
f 115/115/115 138/138/138 101/101/101
f 102/102/102 123/123/123 132/132/132
f 146/146/146 147/147/147 106/106/106
f 106/106/106 105/105/105 146/146/146
f 109/109/109 116/116/116 114/114/114
f 114/114/114 113/113/113 109/109/109
f 107/107/107 136/136/136 108/108/108
f 148/148/148 149/149/149 150/150/150
f 150/150/150 151/151/151 148/148/148
f 152/152/152 153/153/153 150/150/150
f 150/150/150 149/149/149 152/152/152
f 154/154/154 155/155/155 156/156/156
f 157/157/157 156/156/156 158/158/158
f 158/158/158 159/159/159 157/157/157
f 156/156/156 157/157/157 154/154/154
f 156/156/156 155/155/155 152/152/152
f 152/152/152 155/155/155 153/153/153
f 148/148/148 151/151/151 160/160/160
f 161/161/161 162/162/162 163/163/163
f 163/163/163 164/164/164 161/161/161
f 165/165/165 166/166/166 163/163/163
f 163/163/163 162/162/162 165/165/165
f 167/167/167 168/168/168 166/166/166
f 166/166/166 165/165/165 167/167/167
f 167/167/167 161/161/161 164/164/164
f 164/164/164 168/168/168 167/167/167
f 169/169/169 170/170/170 171/171/171
f 172/172/172 169/169/169 171/171/171
f 173/173/173 172/172/172 171/171/171
f 170/170/170 173/173/173 171/171/171
f 170/170/170 169/169/169 162/162/162
f 162/162/162 161/161/161 170/170/170
f 162/162/162 169/169/169 172/172/172
f 172/172/172 165/165/165 162/162/162
f 165/165/165 172/172/172 173/173/173
f 173/173/173 167/167/167 165/165/165
f 173/173/173 170/170/170 161/161/161
f 161/161/161 167/167/167 173/173/173
f 174/174/174 175/175/175 176/176/176
f 176/176/176 177/177/177 174/174/174
f 178/178/178 174/174/174 177/177/177
f 177/177/177 179/179/179 178/178/178
f 180/180/180 181/181/181 175/175/175
f 175/175/175 174/174/174 180/180/180
f 182/182/182 180/180/180 174/174/174
f 174/174/174 178/178/178 182/182/182
f 174/174/174 175/175/175 176/176/176
f 176/176/176 177/177/177 174/174/174
f 178/178/178 174/174/174 177/177/177
f 177/177/177 179/179/179 178/178/178
f 180/180/180 181/181/181 175/175/175
f 175/175/175 174/174/174 180/180/180
f 182/182/182 180/180/180 174/174/174
f 174/174/174 178/178/178 182/182/182
f 147/147/147 183/183/183 184/184/184
f 98/98/98 97/97/97 185/185/185
f 185/185/185 186/186/186 98/98/98
f 100/100/100 98/98/98 186/186/186
f 186/186/186 104/104/104 100/100/100
f 100/100/100 106/106/106 187/187/187
f 187/187/187 188/188/188 100/100/100
f 100/100/100 188/188/188 99/99/99
f 106/106/106 147/147/147 184/184/184
f 184/184/184 187/187/187 106/106/106
