mtllib JESSCLER14.mtl
o JESSCLER14_part_0
v 0.144 2.038 0.087
v 0.176 1.954 -0.004
v 0.164 1.933 0.041
v 0.158 2.071 -0.19
v 0.114 2.153 -0.192
v 0.103 2.115 -0.224
v 0.141 2.16 -0.088
v 0.179 2.035 -0.095
v 0 2.176 -0.203
v 0 2.13 -0.245
v 0.133 2.161 -0.006
v 0.176 2.076 -0.052
v 0.06 2.204 -0.086
v 0.07 2.203 0.001
v 0.176 2.076 -0.052
v 0.173 2.031 0.011
v 0.159 2.096 0.007
v 0.133 2.161 -0.006
v 0.001 2.207 -0.086
v 0.002 2.187 0.003
v 0.161 1.978 -0.063
v 0.171 1.944 -0.045
v 0.161 1.978 -0.063
v 0.078 2.176 0.065
v 0.07 2.203 0.001
v 0.129 2.146 0.04
v 0.002 2.169 0.061
v 0.002 2.187 0.003
v 0.116 2.041 0.116
v 0.1 2.042 0.132
v 0.067 2.129 0.11
v 0.138 2.098 0.058
v 0.08 2.042 0.139
v 0.073 2.088 0.127
v 0.105 1.927 0.112
v 0.141 1.926 0.091
v 0.105 1.979 0.132
v 0.143 1.802 0.026
v 0.061 1.819 -0.083
v 0.106 1.9 -0.199
v -0.001 1.827 -0.136
v -0.002 1.903 -0.227
v 0.148 2.012 -0.201
v 0.092 2.015 -0.249
v -0.001 2.017 -0.265
v 0.132 1.874 -0.082
v 0.0002 2.2533 -0.263
v 0.0323 2.1806 -0.266
v 0.0002 2.163 -0.203
v 0.0323 2.0882 -0.217
v -0.0009 2.1278 -0.285
v 0.0002 2.0618 -0.245
v -0.0009 2.2492 -0.367
v 0.0632 2.1258 -0.336
v -0.0009 2.0925 -0.343
v -0.0031 2.1104 -0.479
v 0.0998 2.0554 -0.414
v -0.002 2.031 -0.378
v -0.002 1.9627 -0.555
v 0.1064 1.8988 -0.468
v -0.002 1.7249 -0.397
v 0.0655 1.2297 -0.522
v -0.002 1.3156 -0.591
v -0.0031 1.0866 -0.486
v -0.0031 1.4895 -0.414
v -0.002 0.8401 -0.53
v 0.146 1.845 -0.025
v 0.098 1.928 0.125
v 0.117 1.927 0.115
v 0.075 1.838 0.112
v 0.054 2.042 0.147
v 0.08 2.042 0.139
v 0.078 1.976 0.151
v 0.029 2.079 0.138
v 0.003 2.107 0.122
v 0.098 1.769 0.066
v -0.174 1.955 -0.001
v -0.139 2.038 0.075
v -0.161 1.935 0.044
v -0.113 2.154 -0.19
v -0.159 2.072 -0.187
v -0.104 2.116 -0.223
v -0.139 2.161 -0.086
v -0.178 2.036 -0.092
v -0.13 2.162 -0.004
v -0.174 2.077 -0.049
v -0.057 2.204 -0.085
v -0.066 2.204 0.002
v -0.17 2.033 0.014
v -0.174 2.077 -0.049
v -0.156 2.097 0.01
v -0.13 2.162 -0.004
v -0.17 1.945 -0.042
v -0.159 1.98 -0.06
v -0.159 1.98 -0.06
v -0.074 2.176 0.067
v -0.066 2.204 0.002
v -0.125 2.147 0.042
v -0.095 2.044 0.133
v -0.111 2.041 0.109
v -0.066 2.121 0.112
v -0.134 2.099 0.061
v -0.07 2.087 0.133
v -0.079 2.04 0.14
v -0.138 1.927 0.094
v -0.101 1.928 0.114
v -0.094 1.931 0.131
v -0.142 1.803 0.028
v -0.108 1.9 -0.199
v -0.062 1.82 -0.082
v -0.094 2.015 -0.248
v -0.149 2.013 -0.199
v -0.132 1.875 -0.08
v -0.0319 2.0903 -0.216
v -0.033 2.1806 -0.265
v -0.0651 2.1258 -0.335
v -0.1049 2.0577 -0.413
v -0.1116 1.8988 -0.468
v -0.0717 1.2297 -0.522
v -0.145 1.846 -0.022
v -0.123 1.926 0.12
v -0.107 1.927 0.127
v -0.086 1.821 0.101
v -0.081 2.031 0.146
v -0.051 2.028 0.159
v -0.074 1.925 0.151
v -0.029 2.076 0.149
v -0.096 1.77 0.067
vt 0.302 0.334
vt 0.14 0.314
vt 0.177 0.255999982
vt 0.246 0.756
vt 0.262 0.838
vt 0.221 0.827
vt 0.36 0.815
vt 0.319 0.692000031
vt 0.221 0.939
vt 0.152 0.903
vt 0.435 0.814
vt 0.372 0.717
vt 0.359 0.907
vt 0.446 0.899
vt 0.179 0.484000027
vt 0.209 0.387000024
vt 0.256 0.459
vt 0.308 0.539000034
vt 0.351 0.963
vt 0.442 0.971
vt 0.09 0.389
vt 0.088 0.334999979
vt 0.312 0.628
vt 0.412 0.494000018
vt 0.409 0.583
vt 0.335 0.484000027
vt 0.504 0.506000042
vt 0.507 0.585000038
vt 0.352 0.311
vt 0.381 0.301
vt 0.432 0.413
vt 0.316 0.420000017
vt 0.407 0.299000025
vt 0.424 0.35799998
vt 0.274 0.181
vt 0.23 0.212000012
vt 0.364 0.222
vt 0.071 0.120999992
vt 0.134 0.495
vt 0.139 0.64199996
vt 0.052 0.536
vt 0.032 0.669
vt 0.212 0.722
vt 0.152 0.761000037
vt 0.07 0.797
vt 0.22 0.546
vt 0.508 0.897
vt 0.518 0.858999968
vt 0.464 0.858
vt 0.479 0.826
vt 0.535 0.827
vt 0.504 0.806
vt 0.587 0.951
vt 0.576 0.884
vt 0.579 0.821
vt 0.734 0.93
vt 0.677 0.866
vt 0.638 0.791
vt 0.858 0.845
vt 0.774 0.789000034
vt 0.721 0.691
vt 0.889 0.598
vt 0.949 0.633
vt 0.876 0.526
vt 0.764 0.628
vt 0.95 0.459
vt 0.033 0.213
vt 0.328 0.165000021
vt 0.299 0.174000025
vt 0.305 0.04699999
vt 0.453 0.295000017
vt 0.42 0.296
vt 0.423 0.209999979
vt 0.481 0.345000029
vt 0.508 0.39
vt 0.118 0.0350000262
vt 0.869 0.325
vt 0.723 0.362
vt 0.832 0.269999981
vt 0.262 0.838
vt 0.246 0.756
vt 0.221 0.827
vt 0.36 0.815
vt 0.319 0.692000031
vt 0.435 0.814
vt 0.372 0.717
vt 0.359 0.907
vt 0.446 0.899
vt 0.8 0.399
vt 0.831 0.49
vt 0.752 0.468999982
vt 0.704 0.544999957
vt 0.92 0.343
vt 0.918 0.396000028
vt 0.312 0.628
vt 0.595 0.503
vt 0.605 0.585999966
vt 0.673 0.495
vt 0.642 0.322000027
vt 0.674 0.338
vt 0.586 0.413999975
vt 0.693 0.434000015
vt 0.596 0.366
vt 0.624 0.311
vt 0.778 0.231
vt 0.737 0.208
vt 0.688 0.184000015
vt 0.929 0.129000008
vt 0.139 0.64199996
vt 0.134 0.495
vt 0.152 0.761000037
vt 0.212 0.722
vt 0.22 0.546
vt 0.479 0.826
vt 0.518 0.858999968
vt 0.576 0.884
vt 0.677 0.866
vt 0.774 0.789000034
vt 0.889 0.598
vt 0.972 0.220000029
vt 0.755 0.213999987
vt 0.736 0.203000009
vt 0.8 0.0759999752
vt 0.622 0.295000017
vt 0.583 0.282
vt 0.645 0.161000013
vt 0.549 0.339999974
vt 0.866 0.04100001
vn 0.836 0.157 0.526
vn 0.996 -0.048 0.073
vn 0.948 -0.102 0.302
vn 0.861 0.167 -0.481
vn 0.541 0.686 -0.487
vn 0.439 0.353 -0.826
vn 0.772 0.632 -0.062
vn 0.997 -0.059 -0.045
vn 0.001 0.971 -0.241
vn -0.009 0.032 -0.999
vn 0.751 0.649 0.124
vn 0.92 0.345 -0.187
vn 0.265 0.955 -0.133
vn 0.215 0.959 0.187
vn 0.92 0.345 -0.187
vn 0.973 0.073 0.22
vn 0.921 0.3 0.249
vn 0.751 0.649 0.124
vn 0.003 0.996 -0.085
vn 0.006 0.965 0.261
vn 0.92 -0.203 -0.336
vn 0.982 -0.126 -0.144
vn 0.92 -0.203 -0.336
vn 0.287 0.775 0.563
vn 0.215 0.959 0.187
vn 0.741 0.519 0.425
vn 0.008 0.836 0.548
vn 0.006 0.965 0.261
vn 0.687 0.198 0.699
vn 0.519 0.185 0.834
vn 0.273 0.559 0.782
vn 0.798 0.328 0.506
vn 0.309 0.199 0.93
vn 0.353 0.381 0.855
vn 0.484 -0.172 0.858
vn 0.746 -0.174 0.643
vn 0.324 0.035 0.945
vn 0.966 -0.173 0.194
vn 0.429 -0.812 -0.395
vn 0.577 -0.552 -0.601
vn -0.006 -0.837 -0.547
vn -0.006 -0.554 -0.832
vn 0.829 -0.165 -0.535
vn 0.396 -0.065 -0.916
vn -0.007 -0.056 -0.998
vn 0.814 -0.505 -0.289
vn 0.008 0.847 0.532
vn 0.976 0.01 0.217
vn 0.001 0.971 -0.241
vn 1 -0.021 -0.006
vn 0 -0.937 0.348
vn -0.009 0.032 -0.999
vn 0.004 0.999 -0.039
vn 0.923 0.178 0.342
vn 0.006 -0.882 0.472
vn -0.003 0.688 -0.726
vn 0.969 0.247 0.01
vn 0.001 -0.417 0.909
vn 0 0.345 -0.939
vn 0.997 0.018 -0.07
vn 0.001 -0.195 0.981
vn 0.974 -0.227 -0.012
vn 0.002 -0.06 -0.998
vn -0.001 -0.347 0.938
vn 0 -0.316 0.949
vn 0.002 -0.999 -0.049
vn 0.964 -0.26 -0.054
vn 0.464 -0.15 0.873
vn 0.482 -0.136 0.866
vn 0.453 -0.236 0.86
vn 0.258 0.249 0.934
vn 0.309 0.199 0.93
vn 0.301 0.168 0.939
vn 0.087 0.417 0.905
vn 0 0.631 0.776
vn 0.737 -0.304 0.603
vn -0.994 -0.034 0.101
vn -0.84 0.129 0.527
vn -0.942 -0.075 0.327
vn -0.544 0.69 -0.477
vn -0.868 0.173 -0.466
vn -0.451 0.358 -0.818
vn -0.769 0.638 -0.048
vn -0.998 -0.051 -0.027
vn -0.744 0.654 0.137
vn -0.92 0.352 -0.171
vn -0.261 0.957 -0.128
vn -0.205 0.96 0.19
vn -0.961 0.067 0.27
vn -0.92 0.352 -0.171
vn -0.914 0.307 0.265
vn -0.744 0.654 0.137
vn -0.985 -0.119 -0.126
vn -0.927 -0.196 -0.319
vn -0.927 -0.196 -0.319
vn -0.27 0.772 0.575
vn -0.205 0.96 0.19
vn -0.73 0.525 0.438
vn -0.63 0.218 0.746
vn -0.762 0.218 0.609
vn -0.332 0.552 0.765
vn -0.785 0.297 0.544
vn -0.449 0.434 0.781
vn -0.352 0.078 0.933
vn -0.737 -0.138 0.662
vn -0.473 -0.134 0.871
vn -0.377 -0.022 0.926
vn -0.963 -0.166 0.211
vn -0.59 -0.548 -0.592
vn -0.443 -0.811 -0.382
vn -0.412 -0.058 -0.909
vn -0.842 -0.155 -0.517
vn -0.823 -0.5 -0.269
vn -1 -0.014 0.012
vn -0.972 0.017 0.235
vn -0.913 0.186 0.362
vn -0.967 0.253 0.024
vn -0.997 0.018 -0.071
vn -0.974 -0.227 -0.012
vn -0.967 -0.253 -0.037
vn -0.45 -0.131 0.883
vn -0.408 -0.147 0.901
vn -0.392 -0.294 0.872
vn -0.378 0.155 0.913
vn -0.358 0.174 0.917
vn -0.392 0.018 0.92
vn -0.149 0.486 0.861
vn -0.729 -0.299 0.616
usemtl JESSCLER14_part_0_material_0
f 1/1/1 3/3/3 2/2/2
f 4/4/4 6/6/6 5/5/5
f 7/7/7 8/8/8 4/4/4
f 5/5/5 10/10/10 9/9/9
f 10/10/10 5/5/5 6/6/6
f 8/8/8 7/7/7 11/11/11
f 11/11/11 12/12/12 8/8/8
f 13/13/13 14/14/14 11/11/11
f 11/11/11 7/7/7 13/13/13
f 13/13/13 7/7/7 5/5/5
f 9/9/9 13/13/13 5/5/5
f 5/5/5 7/7/7 4/4/4
f 15/15/15 17/17/17 16/16/16
f 17/17/17 15/15/15 18/18/18
f 14/14/14 13/13/13 19/19/19
f 19/19/19 20/20/20 14/14/14
f 13/13/13 9/9/9 19/19/19
f 21/21/21 15/15/15 22/22/22
f 8/8/8 12/12/12 23/23/23
f 18/18/18 25/25/25 24/24/24
f 24/24/24 26/26/26 18/18/18
f 25/25/25 28/28/28 27/27/27
f 25/25/25 27/27/27 24/24/24
f 29/29/29 31/31/31 30/30/30
f 31/31/31 26/26/26 24/24/24
f 26/26/26 17/17/17 18/18/18
f 1/1/1 16/16/16 32/32/32
f 33/33/33 30/30/30 34/34/34
f 31/31/31 34/34/34 30/30/30
f 32/32/32 16/16/16 17/17/17
f 17/17/17 26/26/26 32/32/32
f 35/35/35 36/36/36 29/29/29
f 1/1/1 29/29/29 36/36/36
f 37/37/37 30/30/30 33/33/33
f 38/38/38 2/2/2 3/3/3
f 3/3/3 1/1/1 36/36/36
f 16/16/16 22/22/22 15/15/15
f 39/39/39 41/41/41 40/40/40
f 41/41/41 42/42/42 40/40/40
f 4/4/4 43/43/43 6/6/6
f 44/44/44 6/6/6 43/43/43
f 44/44/44 45/45/45 6/6/6
f 10/10/10 6/6/6 45/45/45
f 44/44/44 43/43/43 40/40/40
f 45/45/45 44/44/44 42/42/42
f 40/40/40 42/42/42 44/44/44
f 23/23/23 40/40/40 8/8/8
f 43/43/43 8/8/8 40/40/40
f 39/39/39 40/40/40 46/46/46
f 4/4/4 8/8/8 43/43/43
f 46/46/46 40/40/40 23/23/23
f 47/47/47 49/49/49 48/48/48
f 50/50/50 48/48/48 49/49/49
f 48/48/48 50/50/50 51/51/51
f 52/52/52 51/51/51 50/50/50
f 53/53/53 47/47/47 54/54/54
f 48/48/48 54/54/54 47/47/47
f 54/54/54 48/48/48 55/55/55
f 51/51/51 55/55/55 48/48/48
f 56/56/56 53/53/53 57/57/57
f 54/54/54 57/57/57 53/53/53
f 57/57/57 54/54/54 58/58/58
f 55/55/55 58/58/58 54/54/54
f 59/59/59 56/56/56 60/60/60
f 57/57/57 60/60/60 56/56/56
f 60/60/60 57/57/57 61/61/61
f 58/58/58 61/61/61 57/57/57
f 62/62/62 63/63/63 60/60/60
f 59/59/59 60/60/60 63/63/63
f 62/62/62 60/60/60 64/64/64
f 65/65/65 64/64/64 60/60/60
f 66/66/66 63/63/63 62/62/62
f 66/66/66 62/62/62 64/64/64
f 61/61/61 65/65/65 60/60/60
f 22/22/22 16/16/16 2/2/2
f 22/22/22 2/2/2 67/67/67
f 68/68/68 70/70/70 69/69/69
f 68/68/68 69/69/69 30/30/30
f 29/29/29 30/30/30 69/69/69
f 71/71/71 73/73/73 72/72/72
f 74/74/74 71/71/71 34/34/34
f 72/72/72 34/34/34 71/71/71
f 75/75/75 74/74/74 31/31/31
f 34/34/34 31/31/31 74/74/74
f 27/27/27 75/75/75 24/24/24
f 31/31/31 24/24/24 75/75/75
f 16/16/16 1/1/1 2/2/2
f 36/36/36 35/35/35 76/76/76
f 3/3/3 36/36/36 76/76/76
f 1/1/1 32/32/32 29/29/29
f 31/31/31 29/29/29 32/32/32
f 32/32/32 26/26/26 31/31/31
f 77/77/77 79/79/79 78/78/78
f 80/80/80 82/82/82 81/81/81
f 81/81/81 84/84/84 83/83/83
f 9/9/9 10/10/10 80/80/80
f 82/82/82 80/80/80 10/10/10
f 85/85/85 83/83/83 84/84/84
f 84/84/84 86/86/86 85/85/85
f 85/85/85 88/88/88 87/87/87
f 87/87/87 83/83/83 85/85/85
f 80/80/80 83/83/83 87/87/87
f 80/80/80 87/87/87 9/9/9
f 81/81/81 83/83/83 80/80/80
f 89/89/89 91/91/91 90/90/90
f 92/92/92 90/90/90 91/91/91
f 19/19/19 87/87/87 88/88/88
f 88/88/88 20/20/20 19/19/19
f 19/19/19 9/9/9 87/87/87
f 93/93/93 90/90/90 94/94/94
f 95/95/95 86/86/86 84/84/84
f 96/96/96 97/97/97 92/92/92
f 92/92/92 98/98/98 96/96/96
f 27/27/27 28/28/28 97/97/97
f 96/96/96 27/27/27 97/97/97
f 99/99/99 101/101/101 100/100/100
f 96/96/96 98/98/98 101/101/101
f 92/92/92 91/91/91 98/98/98
f 102/102/102 89/89/89 78/78/78
f 101/101/101 99/99/99 103/103/103
f 104/104/104 103/103/103 99/99/99
f 91/91/91 89/89/89 102/102/102
f 102/102/102 98/98/98 91/91/91
f 78/78/78 105/105/105 100/100/100
f 106/106/106 100/100/100 105/105/105
f 104/104/104 99/99/99 107/107/107
f 79/79/79 77/77/77 108/108/108
f 105/105/105 78/78/78 79/79/79
f 90/90/90 93/93/93 89/89/89
f 109/109/109 41/41/41 110/110/110
f 109/109/109 42/42/42 41/41/41
f 111/111/111 112/112/112 82/82/82
f 81/81/81 82/82/82 112/112/112
f 10/10/10 45/45/45 82/82/82
f 111/111/111 82/82/82 45/45/45
f 109/109/109 112/112/112 111/111/111
f 109/109/109 111/111/111 42/42/42
f 45/45/45 42/42/42 111/111/111
f 112/112/112 109/109/109 84/84/84
f 95/95/95 84/84/84 109/109/109
f 113/113/113 109/109/109 110/110/110
f 112/112/112 84/84/84 81/81/81
f 95/95/95 109/109/109 113/113/113
f 114/114/114 49/49/49 115/115/115
f 47/47/47 115/115/115 49/49/49
f 52/52/52 114/114/114 51/51/51
f 115/115/115 51/51/51 114/114/114
f 115/115/115 47/47/47 116/116/116
f 53/53/53 116/116/116 47/47/47
f 51/51/51 115/115/115 55/55/55
f 116/116/116 55/55/55 115/115/115
f 116/116/116 53/53/53 117/117/117
f 56/56/56 117/117/117 53/53/53
f 55/55/55 116/116/116 58/58/58
f 117/117/117 58/58/58 116/116/116
f 117/117/117 56/56/56 118/118/118
f 59/59/59 118/118/118 56/56/56
f 58/58/58 117/117/117 61/61/61
f 118/118/118 61/61/61 117/117/117
f 59/59/59 63/63/63 118/118/118
f 119/119/119 118/118/118 63/63/63
f 65/65/65 118/118/118 64/64/64
f 119/119/119 64/64/64 118/118/118
f 119/119/119 63/63/63 66/66/66
f 64/64/64 119/119/119 66/66/66
f 118/118/118 65/65/65 61/61/61
f 77/77/77 89/89/89 93/93/93
f 120/120/120 77/77/77 93/93/93
f 121/121/121 123/123/123 122/122/122
f 100/100/100 121/121/121 99/99/99
f 122/122/122 99/99/99 121/121/121
f 124/124/124 126/126/126 125/125/125
f 124/124/124 125/125/125 103/103/103
f 127/127/127 103/103/103 125/125/125
f 103/103/103 127/127/127 101/101/101
f 75/75/75 101/101/101 127/127/127
f 101/101/101 75/75/75 96/96/96
f 27/27/27 96/96/96 75/75/75
f 77/77/77 78/78/78 89/89/89
f 105/105/105 128/128/128 106/106/106
f 79/79/79 128/128/128 105/105/105
f 101/101/101 102/102/102 100/100/100
f 78/78/78 100/100/100 102/102/102
f 101/101/101 98/98/98 102/102/102
