mtllib PaulHair99.mtl
o PaulHair99_part_0
v 0.0592160858 2.37672234 -0.0411314368
v 0.08781232 2.35081244 0.03571473
v 0.09671606 2.36574841 -0.03358148
v 0.0400399268 2.35265374 -0.172448948
v 0.03443393 2.36872435 -0.148515359
v 0.0792984441 2.36105061 -0.1073284
v -0.025457941 2.37690353 -0.038885504
v 0.017523827 2.3484962 0.04308176
v -0.00559490174 2.36881 -0.147453621
v -0.06255256 2.36608934 -0.0293569863
v -0.0530448146 2.351114 0.0394508764
v -0.0482453965 2.3613236 -0.103945389
v 0.012613833 2.34625649 -0.214225426
v -0.0125304647 2.35276628 -0.171054557
v -0.0424217544 2.34067845 -0.114967033
v -0.0270927586 2.35278034 -0.0305737853
v 0.0160507727 2.36740112 -0.0269540567
v 0.0173563827 2.35460925 -0.129028067
v 0.0721177 2.34043336 -0.118005112
v 0.0588798076 2.35259628 -0.0328541547
v 0.0110785067 2.25769877 -0.2649619
v -0.0193601325 2.30059433 -0.201098219
v 0.0141014783 2.3074913 -0.202568725
v 0.04504407 2.30045629 -0.202806488
v 0.0632138252 2.34433365 -0.0431814641
v 0.1382843 2.30034113 -0.115818694
v 0.108208 2.32545114 -0.13695325
v 0.05940679 2.32294345 -0.144404665
v 0.147922382 2.264501 -0.18602939
v 0.112274915 2.21054673 -0.256306171
v 0.122563973 2.288176 -0.201533273
v 0.08693582 2.28897882 -0.198752776
v -0.02929942 2.34453177 -0.0407276154
v -0.07928163 2.32585263 -0.1319802
v -0.108302414 2.300869 -0.109278128
v -0.0309552215 2.32313681 -0.142007872
v -0.121802136 2.26507831 -0.178875163
v -0.09720023 2.2886467 -0.195704177
v -0.09016143 2.21098018 -0.2509367
v -0.0614716448 2.28929639 -0.194816366
v 0.0625935048 2.38092852 0.01114963
v 0.09223746 2.32912374 0.0821786448
v 0.101773486 2.36027741 0.01632826
v 0.04314579 2.40101457 -0.106098458
v 0.03732033 2.41008377 -0.0787103
v 0.08409564 2.38615584 -0.0421663821
v -0.0260811038 2.3811183 0.013501659
v 0.01864248 2.33451939 0.0897788256
v -0.00459983 2.41017365 -0.07759839
v -0.06501947 2.36063433 0.0207523257
v -0.0552753247 2.3294394 0.0860913247
v -0.04947408 2.38644171 -0.0386235267
v 0.0144987227 2.40631175 -0.148009554
v -0.0119077209 2.40113235 -0.104638204
v 0.07073308 2.34526944 0.04211355
v 0.131245583 2.325409 0.0121149421
v 0.107038543 2.35885215 -0.0120618641
v 0.0395776778 2.36061716 -0.00062559545
v 0.0798174739 2.35830855 -0.0515217334
v 0.169366166 2.305516 -0.03334357
v 0.19110018 2.27983856 -0.120190755
v 0.156146467 2.33488059 -0.0535164028
v 0.126134455 2.33816934 -0.07265349
v 0.06388135 2.29404688 0.110087126
v 0.131024033 2.294289 0.09961775
v 0.11249733 2.32982874 0.0739263
v 0.0440235 2.318129 0.0835979
v 0.08589804 2.34901476 0.03941969
v 0.180469915 2.283387 0.0353787243
v 0.202975258 2.28255749 -0.06606875
v 0.166534021 2.31603575 0.0256171376
v 0.1381311 2.33397961 0.0105585605
v -0.02205623 2.294231 0.112366557
v -0.07236722 2.33022451 0.07882972
v -0.08965784 2.29476166 0.105471194
v -0.00352766737 2.31823087 0.08485916
v -0.0475527234 2.34930062 0.0429593846
v -0.142485753 2.28407836 0.04394491
v -0.128947362 2.31666827 0.0334546044
v -0.170340613 2.28335667 -0.056166783
v -0.10130614 2.33449221 0.01690948
v -0.03228245 2.34549 0.0448459759
v -0.0713503063 2.35923386 -0.007330224
v -0.09438455 2.325892 0.0180996358
v -0.0033711195 2.36070919 0.0005135983
v -0.0462618954 2.35857844 -0.0481775552
v -0.1349461 2.30616736 -0.0252718776
v -0.12268883 2.33547735 -0.0461204648
v -0.161363035 2.280593 -0.110841885
v -0.09371972 2.33864 -0.06682199
v 0.02040849 2.36176324 0.08676487
v 0.0194628779 2.40002561 0.04802581
v -0.024443578 2.396629 0.0461154953
v -0.00492228568 2.42102671 0.004371956
v 0.0174336359 2.43162227 -0.0310294628
v -0.05795182 2.38755083 0.0300508291
v -0.070628196 2.33740926 0.07871826
v -0.0129395146 2.42162657 -0.0229967088
v -0.02651032 2.297187 0.114710689
v 0.020977864 2.29708552 0.113451093
v -0.08816752 2.287637 0.116938263
v -0.086414665 2.24488974 0.119906425
v -0.0116308518 2.27405477 0.126391441
v -0.1466312 2.21070218 0.09120333
v -0.161769867 2.232544 0.0757766441
v -0.207453385 2.20296431 0.06449774
v -0.164618835 2.24319458 0.05172363
v -0.130765364 2.264102 0.08931585
v -0.119030848 2.22678018 0.109878838
v -0.123843625 2.285401 0.0504205972
v -0.07017581 2.31134868 0.0739658549
v -0.0515052937 2.245214 0.138097525
v -0.045996923 2.22542715 0.133676022
v -0.003466824 2.238552 0.140840352
v -0.127306238 2.11453652 0.119938612
v -0.147793278 2.10243726 0.1050458
v -0.140701652 2.00280976 0.0622889251
v -0.164827734 2.11830449 0.07670696
v -0.09843451 2.1586647 0.13046442
v -0.124750167 2.17655015 0.129120782
v -0.141743824 2.19600987 0.09675099
v -0.07352427 2.19917226 0.135697067
v -0.08745979 2.225769 0.1396755
v -0.09648511 2.24941087 0.121960416
v -0.05288176 2.26262045 0.123568848
v -0.110909596 2.11456323 0.1285673
v -0.115269274 2.058708 0.120284334
v -0.0214843 2.3132484 0.0440285131
v -0.07874659 2.3378644 0.00764481723
v -0.105119586 2.2848537 0.0520272851
v -0.125639781 2.319344 -0.0448525846
v -0.135747477 2.26638079 -0.006224826
v -0.147759989 2.28878355 -0.0994245559
v -0.155588359 2.24809885 -0.0487565249
v -0.0300686732 2.346933 -0.0281731058
v -0.07032153 2.33595085 -0.0910853
v -0.100478515 2.30788565 -0.122020856
v -0.157537535 2.26281977 -0.152208075
v -0.131877393 2.221209 -0.2279724
v -0.159485653 2.228018 -0.14085345
v -0.123513371 2.27423739 -0.159271732
v -0.0852107555 2.234892 0.112585545
v -0.136544377 2.24798584 0.0822074
v -0.134386778 2.18296051 0.0905419961
v -0.180254191 2.23677921 0.0248290747
v -0.1708256 2.16683435 0.03350153
v -0.199252367 2.21789479 -0.0338186175
v -0.183618277 2.162223 -0.0288519412
v -0.195779026 2.21313572 -0.08770196
v -0.163696185 2.22607517 -0.169701114
v -0.17908828 2.17757177 -0.09298341
v -0.16831553 2.23748088 -0.08496089
v -0.176065519 2.15327024 0.05149027
v -0.153877586 2.13011646 0.06380886
v -0.196301728 2.12969923 -0.006311671
v -0.17968677 2.08870816 0.01781793
v -0.19424744 2.111188 -0.0927851647
v -0.186788186 2.08150721 -0.0861426
v -0.175910264 2.14165473 -0.09024021
v -0.1583983 2.13955 -0.189909741
v -0.1423555 2.18369365 -0.185736313
v -0.102067873 2.12820721 -0.251619518
v -0.11693497 2.09809637 -0.215390787
v -0.07308456 2.22540045 -0.2376628
v -0.06399608 2.14587355 -0.2633294
v -0.0309708454 2.03734159 -0.265411139
v -0.12410295 1.98916864 -0.131828025
v -0.126061291 1.98427987 -0.16721116
v -0.08924197 1.89215124 -0.114959493
v -0.09452498 1.99714947 -0.186988428
v -0.160971135 2.069636 -0.178455964
v -0.142767265 2.05095267 -0.1231512
v -0.164663553 2.158195 -0.133976474
v -0.117848918 2.090036 -0.205485776
v -0.12337932 1.92937565 -0.073244676
v -0.1305773 1.930431 -0.09329705
v -0.101895481 1.8802141 -0.0636484
v -0.115156591 1.93414235 -0.112067476
v -0.1509395 1.97567427 -0.100946143
v -0.143269211 1.97843754 -0.06249003
v -0.147762552 2.03198552 -0.05643083
v -0.165754229 2.04762864 -0.0930061042
v -0.132552117 1.9872272 -0.131338611
v 0.0112754852 2.236344 -0.24743934
v -0.0998618 2.29317713 -0.1485733
v 0.014003084 2.32673049 -0.151900217
v 0.0105090812 2.12676215 -0.267489552
v -0.0501530655 2.12608314 -0.2549392
v -0.07308456 2.22540045 -0.2376628
v 0.0112754852 2.236344 -0.24743934
v -0.153308824 2.23303986 -0.140593246
v -0.161627024 2.10587835 -0.08681755
v -0.170772851 2.171938 -0.010330244
v -0.126175478 1.95128584 -0.01742825
v -0.147762552 2.03198552 -0.05643083
v -0.137177333 1.98954391 -0.07052444
v -0.09251067 2.10745668 -0.224833742
v -0.08841032 2.02501917 -0.22501041
v -0.06376077 2.02107739 -0.196978137
v 0.0134460554 1.93254662 -0.141086712
v -0.0508345328 1.91623271 -0.08149479
v -0.0268238634 2.04242277 -0.225032136
v 0.0120794233 1.9756664 -0.196090713
v -0.0268238634 2.04242277 -0.225032136
v 0.0111659244 2.04492712 -0.2361209
v 0.0120794233 1.9756664 -0.196090713
v -0.156689525 2.0679574 -0.04367526
v -0.1406786 2.06227279 -0.00349336863
v -0.0509476624 1.88284755 -0.0100496411
v -0.127208024 2.013189 -0.121923223
v -0.1628185 2.06576276 0.0285816938
v -0.148762673 1.97666979 -0.00247551524
v -0.163704 1.99247313 0.0278522223
v -0.147057846 2.07543182 0.0549587831
v -0.141372517 2.14841771 0.0766874
v -0.145418137 1.99563861 0.0570288375
v -0.120209679 1.89420938 0.07138313
v -0.136241913 2.26624846 -0.0219127685
v -0.09470855 2.219197 0.103238314
v -0.156689525 2.0679574 -0.04367526
v -0.0988661051 2.31656671 -0.0483166128
v -0.096652 2.01037264 -0.173432842
v -0.117848918 2.090036 -0.205485776
v -0.0626017 1.94599473 -0.186104074
v -0.0807186961 1.95469809 -0.155713961
v -0.01936613 1.96319211 -0.186953649
v -0.03912792 1.89365828 -0.1365289
v -0.1423555 2.18369365 -0.185736313
v -0.09810834 2.020636 -0.167540833
v 0.0631914 2.3964417 0.0437910333
v 0.04158925 2.420927 0.003138259
v 0.110785574 2.33702087 0.07390638
v 0.09576176 2.38722181 0.0259736925
v 0.04814686 2.421496 -0.0246169865
v 0.06846605 2.296984 0.1121915
v 0.1301132 2.28716969 0.111148506
v 0.0541278757 2.273914 0.12464723
v 0.128337309 2.24443 0.114210278
v 0.186800763 2.20998859 0.0823592544
v 0.246088073 2.20199323 0.0524678379
v 0.20119366 2.231767 0.06614927
v 0.20280911 2.242408 0.0419778377
v 0.160298273 2.22618222 0.1024698
v 0.17108579 2.26345587 0.08130944
v 0.162203118 2.28478885 0.0428333879
v 0.109970406 2.310963 0.06918759
v 0.09444304 2.24490166 0.134226352
v 0.0465894565 2.238445 0.139512628
v 0.08862342 2.225139 0.130105317
v 0.168615 2.113903 0.112089485
v 0.178457379 2.00212646 0.05382344
v 0.188231781 2.101718 0.09613296
v 0.203807771 2.11751533 0.06692913
v 0.166814625 2.175926 0.1213872
v 0.1405309 2.1581533 0.124126
v 0.182151541 2.19531655 0.0881598741
v 0.130347118 2.225303 0.133898318
v 0.1161066 2.19876623 0.130667239
v 0.1385217 2.2489078 0.115727022
v 0.0951218456 2.26230359 0.119643137
v 0.1526991 2.113999 0.121575251
v 0.156374544 2.05812645 0.113079146
v 0.05976893 2.31307435 0.04187333
v 0.1435884 2.28432131 0.0454304665
v 0.115126774 2.33744931 0.00250245631
v 0.159091428 2.31873441 -0.0524048954
v 0.17100592 2.26572418 -0.0143612623
v 0.178156659 2.2880857 -0.108069286
v 0.188485831 2.24736238 -0.05788286
v 0.101471663 2.335583 -0.0956420153
v 0.06465779 2.34673 -0.0306856651
v 0.129825965 2.30739284 -0.128129557
v 0.1850112 2.26208639 -0.161293969
v 0.187409565 2.22727537 -0.150054619
v 0.155192971 2.22059441 -0.235586748
v 0.150709569 2.27365041 -0.166545346
v 0.126704231 2.23443818 0.106964648
v 0.17441991 2.18229961 0.082351096
v 0.176410854 2.247316 0.07390645
v 0.216969192 2.235929 0.0142929852
v 0.207714409 2.166024 0.023461
v 0.232750714 2.21697 -0.045277223
v 0.217163831 2.16136527 -0.03948243
v 0.2264055 2.21223187 -0.0989001244
v 0.209306255 2.17674041 -0.103285328
v 0.190076575 2.225318 -0.1790847
v 0.199230343 2.236694 -0.0947098
v 0.19223991 2.12937546 0.0546283126
v 0.213842466 2.15243554 0.0411482081
v 0.230885059 2.12878466 -0.0176425129
v 0.215397373 2.08786249 0.00733856857
v 0.216946885 2.080643 -0.09685142
v 0.224170431 2.1102922 -0.10388343
v 0.206124485 2.140837 -0.100373432
v 0.183344722 2.13881826 -0.198974267
v 0.167734742 2.18302965 -0.193961248
v 0.140411928 2.09754539 -0.22221674
v 0.123774186 2.12772369 -0.257609844
v 0.09598757 2.22503853 -0.242147341
v 0.0852111 2.1455543 -0.267287016
v 0.0516579039 2.03716469 -0.267602861
v 0.151533484 1.98857856 -0.1391391
v 0.117200956 1.89170921 -0.120435253
v 0.151592433 1.98368549 -0.174575761
v 0.119107395 1.99669218 -0.192654863
v 0.186221957 2.06889272 -0.18766506
v 0.192645967 2.15743017 -0.143453881
v 0.170895681 2.05028129 -0.131470874
v 0.141815171 2.08948016 -0.212373212
v 0.1536606 1.92878258 -0.0805930048
v 0.132505536 1.87971234 -0.06986575
v 0.15978992 1.92980945 -0.100998834
v 0.143411875 1.93358886 -0.118925855
v 0.179911375 1.974966 -0.109721765
v 0.195433915 2.04685545 -0.1025864
v 0.179339662 2.03128529 -0.06510702
v 0.174302369 1.97775769 -0.07091342
v 0.159988314 1.98660111 -0.139098063
v 0.127739623 2.2926898 -0.154610261
v 0.09598757 2.22503853 -0.242147341
v 0.07174778 2.12582231 -0.258172572
v 0.181276754 2.23232365 -0.14946793
v 0.20536 2.1711328 -0.02030693
v 0.191889822 2.10512161 -0.09619434
v 0.159505412 1.95067418 -0.0250057429
v 0.1678407 1.98889089 -0.0786148459
v 0.179339662 2.03128529 -0.06510702
v 0.115561679 2.107011 -0.230352715
v 0.111105055 2.02459216 -0.230302438
v 0.08795953 2.02075267 -0.201002434
v 0.080724895 1.91595113 -0.08498432
v 0.0496790558 2.042259 -0.227061316
v 0.0496790558 2.042259 -0.227061316
v 0.17520158 2.06159639 -0.01187189
v 0.189084083 2.06721735 -0.0528466851
v 0.0844824 1.88255763 -0.0136418343
v 0.155262 2.01258421 -0.129415557
v 0.1990254 2.06498814 0.0189840049
v 0.199557409 1.9916954 0.0182169527
v 0.182961911 1.97595966 -0.0112742931
v 0.180513546 2.14772844 0.0681495741
v 0.1847267 2.07472157 0.04615841
v 0.182857662 1.994936 0.04832153
v 0.158011839 1.89361382 0.06400348
v 0.17066744 2.26559138 -0.0300533473
v 0.135625914 2.218704 0.09712884
v 0.189084083 2.06721735 -0.0528466851
v 0.132160112 2.316072 -0.0544444323
v 0.141815171 2.08948016 -0.212373212
v 0.12200658 2.00990438 -0.179232612
v 0.08705732 1.9456743 -0.190073684
v 0.10679692 1.95429659 -0.1606877
v 0.043911472 1.96305668 -0.188632056
v 0.06602086 1.89343321 -0.139317885
v 0.167734742 2.18302965 -0.193961248
v 0.1238171 2.02016115 -0.173427269
v 0.026638858 2.369609 0.147009239
v 0.0261360146 2.31802464 0.164498568
v 0.08495943 2.31376266 0.142009765
v 0.07929275 2.36299944 0.1289592
v 0.0255271159 2.25418472 0.173094973
v 0.0545845143 2.25485134 0.15079397
v 0.04540751 2.46007347 0.07438651
v 0.0285626352 2.45714331 0.0899384
v 0.02677262 2.41225338 0.1230399
v 0.0505869836 2.41166258 0.106792375
v -0.03297868 2.253905 0.154822528
v -0.07628378 2.307635 0.1102529
v -0.055789087 2.24969935 0.138479158
v -0.0310262032 2.2158668 0.13770698
v -0.015920382 2.219137 0.1557528
v 0.0440827347 2.22563839 0.150810927
v 0.06006059 2.22048235 0.15636386
v 0.07442745 2.25205064 0.152261153
v 0.10841085 2.359712 0.0959902257
v 0.11760135 2.307344 0.110031784
v 0.01163358 2.446933 0.08604573
v 0.017300725 2.503542 0.0280780941
v -0.0155946575 2.43653965 0.07796116
v -0.0526961721 2.35117126 0.115083769
v -0.0142175853 2.363771 0.129378021
v 0.000399937853 2.40779686 0.109281123
v -0.0259622149 2.315008 0.1462318
v -0.0119012967 2.255002 0.152883
v 0.0220141653 2.200949 0.157941833
v -0.004297303 2.23138618 0.151670158
v 0.0417585261 2.199576 0.148524955
v 0.06926749 2.40868139 0.09993863
v 0.0548567735 2.445761 0.0670528
v 0.0747436956 2.43442225 0.06966071
v 0.06762226 2.21602917 0.140128568
v 0.09654781 2.247376 0.135422722
v -0.00421968848 2.201231 0.148468867
v -0.0693725348 2.34340429 0.09178233
v -0.0491070263 2.39962173 0.0909912139
v -0.05787916 2.29703259 -0.186720625
v -0.03971941 2.33985353 -0.11303778
v 0.0133085726 2.355169 -0.11551021
v 0.0157977641 2.305272 -0.205494121
v 0.0834018141 2.29673 -0.190468
v 0.06632605 2.33962655 -0.115850583
v 0.0100694811 2.16463041 -0.2954921
v -0.02838761 2.2279532 -0.25193125
v 0.0128179267 2.234114 -0.256163955
v 0.05105327 2.2277832 -0.254038334
vt 0.507076 0.260020971
vt 0.604028 0.168695986
vt 0.567017 0.27492702
vt 0.395404 0.438177
vt 0.39961 0.39262104
vt 0.492176 0.368627
vt 0.392331 0.199414968
vt 0.511173 0.108181
vt 0.344522 0.363492
vt 0.346424 0.15854001
vt 0.408802 0.06593597
vt 0.312218 0.273508
vt 0.321157 0.474336982
vt 0.309255 0.39262104
vt 0.103904 0.309653044
vt 0.084376 0.182825983
vt 0.017926 0.171948016
vt 0.02221 0.31908
vt 0.103904 0.309653044
vt 0.084376 0.182825983
vt 0.019717 0.529118
vt 0.065737 0.448544025
vt 0.01927 0.443295
vt 0.065737 0.448544025
vt 0.383998 0.956225
vt 0.298971 0.819061
vt 0.38478 0.823148
vt 0.47838 0.845293
vt 0.332756 0.666042
vt 0.42685 0.557932
vt 0.400313 0.687372
vt 0.464893 0.704639
vt 0.383998 0.956225
vt 0.38478 0.823148
vt 0.298971 0.819061
vt 0.47838 0.845293
vt 0.332756 0.666042
vt 0.400313 0.687372
vt 0.42685 0.557932
vt 0.464893 0.704639
vt 0.509879 0.271854043
vt 0.622591 0.17377001
vt 0.580227 0.286072016
vt 0.397977 0.433945
vt 0.401248 0.386034966
vt 0.503444 0.364601016
vt 0.387794 0.200088024
vt 0.520574 0.108950973
vt 0.342368 0.351585984
vt 0.341069 0.145578027
vt 0.414279 0.05139202
vt 0.311006 0.251600027
vt 0.314317 0.467075
vt 0.302026 0.377949
vt 0.104734 0.932306
vt 0.115578 0.801785
vt 0.187264 0.848014
vt 0.200319 0.968394
vt 0.269559 0.869396
vt 0.17844 0.698263
vt 0.314231 0.60796
vt 0.228091 0.741709
vt 0.276712 0.776994
vt 0.758899 0.82639
vt 0.78553 0.72794
vt 0.716788 0.733778
vt 0.697856 0.833394
vt 0.648514 0.743621
vt 0.75866 0.607906
vt 0.666591 0.485075
vt 0.709924 0.629988
vt 0.660792 0.651231
vt 0.758899 0.82639
vt 0.716788 0.733778
vt 0.78553 0.72794
vt 0.697856 0.833394
vt 0.648514 0.743621
vt 0.75866 0.607906
vt 0.709924 0.629988
vt 0.666591 0.485075
vt 0.660792 0.651231
vt 0.104734 0.932306
vt 0.187264 0.848014
vt 0.115578 0.801785
vt 0.200319 0.968394
vt 0.269559 0.869396
vt 0.17844 0.698263
vt 0.228091 0.741709
vt 0.314231 0.60796
vt 0.276712 0.776994
vt 0.019495 0.300930977
vt 0.019495 0.385643
vt 0.086987 0.384220958
vt 0.057839 0.461843967
vt 0.019495 0.519163
vt 0.146326 0.394677043
vt 0.164888 0.281839
vt 0.080038 0.503002
vt 0.095648 0.195015013
vt 0.019495 0.19352299
vt 0.128921 0.112742007
vt 0.127662 0.05809599
vt 0.024655 0.108437
vt 0.232996 0.0322110057
vt 0.254232 0.071127
vt 0.328122 0.0404019952
vt 0.271805 0.104855
vt 0.196431 0.100727975
vt 0.180833 0.04071498
vt 0.210872 0.160487
vt 0.12427 0.179571033
vt 0.890846 0.535729
vt 0.860645 0.53772
vt 0.870666 0.602454
vt 0.756791 0.372593
vt 0.757337 0.335726023
vt 0.643428 0.249742031
vt 0.792217 0.302387
vt 0.793693 0.435982
vt 0.829317 0.412979
vt 0.873533 0.379997969
vt 0.834666 0.488623023
vt 0.875453 0.481224
vt 0.916582 0.472272038
vt 0.923277 0.53784
vt 0.746024 0.395455956
vt 0.681338 0.353237033
vt 0.387088 0.993447
vt 0.38017 0.894333
vt 0.277142 0.91615
vt 0.372771 0.806754
vt 0.285082 0.819585
vt 0.380973 0.723506
vt 0.285854 0.753427
vt 0.459444 0.904775
vt 0.469071 0.804663
vt 0.459139 0.739277
vt 0.402727 0.640612
vt 0.461668 0.489667
vt 0.346762 0.61842
vt 0.461123 0.650916
vt 0.170339 0.985488
vt 0.195213 0.901091
vt 0.100181 0.889973
vt 0.205521 0.807118
vt 0.11124 0.784795
vt 0.219473 0.727236
vt 0.145343 0.696306
vt 0.255259 0.662303
vt 0.359809 0.544858
vt 0.210553 0.617955
vt 0.305402 0.693852
vt 0.079166 0.795058
vt 0.030859 0.815334
vt 0.084888 0.699755
vt 0.007293 0.706448
vt 0.126233 0.570019
vt 0.078016 0.551887
vt 0.177607 0.597962
vt 0.250975 0.445762038
vt 0.842346 0.777935
vt 0.917422 0.726196
vt 0.87696 0.693899
vt 0.929876 0.833155
vt 0.959685 0.745639
vt 0.981229 0.609592
vt 0.745901 0.551742
vt 0.786826 0.543704
vt 0.721369 0.428871036
vt 0.83262 0.533039
vt 0.807968 0.642947
vt 0.744216 0.625575
vt 0.773559 0.753387
vt 0.871777 0.647913
vt 0.65855 0.491369
vt 0.683445 0.49315
vt 0.641428 0.428089976
vt 0.711057 0.483864
vt 0.698924 0.54727
vt 0.655175 0.553623
vt 0.655304 0.614651
vt 0.703211 0.629749
vt 0.741703 0.54828
vt 0.961631 0.898072
vt 0.828853 0.910018
vt 0.911668 0.986631
vt 0.949093 0.238543987
vt 0.886534 0.257838964
vt 0.889624 0.367964983
vt 0.980477 0.353922963
vt 0.793494 0.834597
vt 0.70944 0.69859
vt 0.632445 0.789315
vt 0.663596 0.0241079926
vt 0.600511 0.0530400276
vt 0.633365 0.06387901
vt 0.827255 0.254142
vt 0.813565 0.171758
vt 0.645737 0.176139
vt 0.738845 0.145798981
vt 0.717019 0.08232999
vt 0.653278 0.213827968
vt 0.710759 0.190299988
vt 0.876218 0.163213968
vt 0.915907 0.154224992
vt 0.883373 0.07884699
vt 0.65188 0.663106
vt 0.605276 0.657759
vt 0.740271 0.027707994
vt 0.622066 0.105623007
vt 0.561984 0.671378
vt 0.581322 0.559237
vt 0.547924 0.586961
vt 0.526693 0.688774
vt 0.517068 0.783949
vt 0.507914 0.593079
vt 0.477741 0.471580029
vt 0.665106 0.911187
vt 0.487955 0.893518
vt 0.572679 0.0432419777
vt 0.72803 0.976881
vt 0.76395 0.150789976
vt 0.792424 0.241847992
vt 0.798855 0.0852720141
vt 0.762641 0.08726001
vt 0.844676 0.07854998
vt 0.784236 0.0114849806
vt 0.853639 0.34155
vt 0.629915 0.145982981
vt 0.086987 0.384220958
vt 0.057839 0.461843967
vt 0.164888 0.281839
vt 0.146326 0.394677043
vt 0.080038 0.503002
vt 0.095648 0.195015013
vt 0.128921 0.112742007
vt 0.024655 0.108437
vt 0.127662 0.05809599
vt 0.232996 0.0322110057
vt 0.328122 0.0404019952
vt 0.254232 0.071127
vt 0.271805 0.104855
vt 0.180833 0.04071498
vt 0.196431 0.100727975
vt 0.210872 0.160487
vt 0.12427 0.179571033
vt 0.890846 0.535729
vt 0.870666 0.602454
vt 0.860645 0.53772
vt 0.756791 0.372593
vt 0.643428 0.249742031
vt 0.757337 0.335726023
vt 0.792217 0.302387
vt 0.829317 0.412979
vt 0.793693 0.435982
vt 0.873533 0.379997969
vt 0.875453 0.481224
vt 0.834666 0.488623023
vt 0.916582 0.472272038
vt 0.923277 0.53784
vt 0.746024 0.395455956
vt 0.681338 0.353237033
vt 0.387088 0.993447
vt 0.277142 0.91615
vt 0.38017 0.894333
vt 0.372771 0.806754
vt 0.285082 0.819585
vt 0.380973 0.723506
vt 0.285854 0.753427
vt 0.469071 0.804663
vt 0.459444 0.904775
vt 0.459139 0.739277
vt 0.402727 0.640612
vt 0.346762 0.61842
vt 0.461668 0.489667
vt 0.461123 0.650916
vt 0.170339 0.985488
vt 0.100181 0.889973
vt 0.195213 0.901091
vt 0.205521 0.807118
vt 0.11124 0.784795
vt 0.219473 0.727236
vt 0.145343 0.696306
vt 0.255259 0.662303
vt 0.210553 0.617955
vt 0.359809 0.544858
vt 0.305402 0.693852
vt 0.030859 0.815334
vt 0.079166 0.795058
vt 0.084888 0.699755
vt 0.007293 0.706448
vt 0.078016 0.551887
vt 0.126233 0.570019
vt 0.177607 0.597962
vt 0.250975 0.445762038
vt 0.842346 0.777935
vt 0.87696 0.693899
vt 0.917422 0.726196
vt 0.929876 0.833155
vt 0.959685 0.745639
vt 0.981229 0.609592
vt 0.745901 0.551742
vt 0.721369 0.428871036
vt 0.786826 0.543704
vt 0.83262 0.533039
vt 0.807968 0.642947
vt 0.773559 0.753387
vt 0.744216 0.625575
vt 0.871777 0.647913
vt 0.65855 0.491369
vt 0.641428 0.428089976
vt 0.683445 0.49315
vt 0.711057 0.483864
vt 0.698924 0.54727
vt 0.703211 0.629749
vt 0.655304 0.614651
vt 0.655175 0.553623
vt 0.741703 0.54828
vt 0.828853 0.910018
vt 0.889624 0.367964983
vt 0.886534 0.257838964
vt 0.793494 0.834597
vt 0.632445 0.789315
vt 0.70944 0.69859
vt 0.663596 0.0241079926
vt 0.633365 0.06387901
vt 0.600511 0.0530400276
vt 0.827255 0.254142
vt 0.813565 0.171758
vt 0.645737 0.176139
vt 0.717019 0.08232999
vt 0.653278 0.213827968
vt 0.876218 0.163213968
vt 0.605276 0.657759
vt 0.65188 0.663106
vt 0.740271 0.027707994
vt 0.622066 0.105623007
vt 0.561984 0.671378
vt 0.547924 0.586961
vt 0.581322 0.559237
vt 0.517068 0.783949
vt 0.526693 0.688774
vt 0.507914 0.593079
vt 0.477741 0.471580029
vt 0.665106 0.911187
vt 0.487955 0.893518
vt 0.572679 0.0432419777
vt 0.72803 0.976881
vt 0.792424 0.241847992
vt 0.76395 0.150789976
vt 0.798855 0.0852720141
vt 0.762641 0.08726001
vt 0.844676 0.07854998
vt 0.784236 0.0114849806
vt 0.853639 0.34155
vt 0.629915 0.145982981
vt 0.406133 0.288097978
vt 0.447586 0.213042974
vt 0.532425 0.262842
vt 0.485447 0.330423
vt 0.494995 0.128746033
vt 0.542063 0.156615019
vt 0.343668 0.483091
vt 0.324741 0.446863
vt 0.366744 0.36034596
vt 0.404187 0.395210981
vt 0.410939 0.07985401
vt 0.284939 0.120486975
vt 0.373678 0.05456698
vt 0.431376 0.0170199871
vt 0.457942 0.04358399
vt 0.552058 0.106408
vt 0.577651 0.11620301
vt 0.571348 0.168984
vt 0.542268 0.376770973
vt 0.597532 0.300766
vt 0.297293 0.42407
vt 0.245975 0.560281
vt 0.244723 0.377935
vt 0.286786 0.202055991
vt 0.342219 0.252560019
vt 0.316423 0.339493036
vt 0.372139 0.170726
vt 0.439184 0.09742099
vt 0.533344 0.0546050072
vt 0.468724 0.068901
vt 0.579919 0.0722039938
vt 0.43725 0.41059804
vt 0.385612 0.488610029
vt 0.432678 0.480911016
vt 0.606003 0.117801011
vt 0.612501 0.188076973
vt 0.485153 0.0208839774
vt 0.248859 0.175892
vt 0.23569 0.262161016
vt 0.423656 0.890853
vt 0.372755 1.008647
vt 0.30571 1.002404
vt 0.346986 0.861115
vt 0.423656 0.890853
vt 0.372755 1.008647
vt 0.397578 0.657246
vt 0.421775 0.746825
vt 0.375487 0.740178
vt 0.421775 0.746825
vn 0.136904016 0.987489939 0.07823632
vn 0.06220121 0.9525325 0.2980149
vn 0.264020681 0.9607555 0.08509915
vn 0.49853003 0.7692108 -0.39972803
vn 0.210207075 0.9422939 -0.260567158
vn 0.3202624 0.9317635 -0.17102246
vn -0.128354728 0.988226056 0.08327267
vn 0.010580441 0.9474116 0.319842726
vn -0.2195857 0.9431762 -0.249400854
vn -0.256091923 0.9619905 0.09482236
vn -0.043273028 0.9533873 0.2986303
vn -0.326555759 0.932173848 -0.156247377
vn -0.006505394 0.9468558 -0.32159254
vn -0.5157215 0.771384 -0.37282443
vn -0.2792968 0.917197466 -0.2841516
vn -0.3140397 0.94614774 -0.0786349848
vn -0.00351592782 0.9947804 -0.10197828
vn 0.0100955525 0.934929 -0.3546911
vn 0.2891313 0.9117836 -0.291639835
vn 0.314881474 0.9452211 -0.08606226
vn -0.015239602 0.781882942 -0.623239
vn -0.194115758 0.8304426 -0.522191644
vn -0.005534531 0.830539942 -0.5569316
vn 0.18345353 0.82496345 -0.534584045
vn 0.275999039 0.9592376 -0.0607268736
vn 0.6729037 0.7361469 -0.0727207
vn 0.370715 0.8997332 -0.230327249
vn 0.00763943233 0.9315494 -0.363534629
vn 0.7429085 0.518410861 -0.4234822
vn 0.3769624 0.500106633 -0.779610634
vn 0.400039434 0.688885152 -0.604487956
vn -0.0202989466 0.7709235 -0.6366042
vn -0.274722844 0.9604168 -0.046119336
vn -0.378549963 0.901337445 -0.210453585
vn -0.672659159 0.739025354 -0.0370291322
vn -0.0229108762 0.931614041 -0.3627263
vn -0.7620919 0.5216283 -0.383562118
vn -0.4285699 0.690659463 -0.5825095
vn -0.4156179 0.5018027 -0.758588
vn -0.0101726567 0.7709007 -0.636874
vn 0.2079398 0.9004717 0.381983966
vn 0.189454779 0.8292693 0.525755942
vn 0.3932207 0.839863062 0.374175817
vn 0.5442872 0.824056745 -0.157104969
vn 0.231063589 0.970984638 0.0616317876
vn 0.370055854 0.9114135 0.179955944
vn -0.184000075 0.9028317 0.388637334
vn 0.0153519195 0.838679552 0.5444088
vn -0.223176271 0.97201 0.07340919
vn -0.372683048 0.8445455 0.384513021
vn -0.159583777 0.8333941 0.5291382
vn -0.358107954 0.9129999 0.195422143
vn 0.000693315931 0.9985093 -0.0545780733
vn -0.548324764 0.826391637 -0.128128245
vn 0.235902891 0.8935016 0.382105649
vn 0.5969789 0.6881179 0.412443876
vn 0.347128928 0.9219667 0.171694279
vn 0.05380694 0.984754741 0.165417373
vn 0.171653986 0.976292431 -0.131863385
vn 0.816681266 0.5278703 0.233205229
vn 0.709211469 0.6792132 -0.188913777
vn 0.62634933 0.7778538 -0.05128334
vn 0.315200776 0.893956959 -0.318574041
vn 0.0242748931 0.6941037 0.7194656
vn 0.418130338 0.63828367 0.646344364
vn 0.273423523 0.8038582 0.528253257
vn -0.0432717837 0.774722934 0.6308185
vn 0.16610536 0.9106603 0.378294528
vn 0.8203691 0.454085648 0.347563982
vn 0.7582595 0.64875555 0.0644887239
vn 0.6869427 0.6895524 0.229406044
vn 0.470125616 0.874298453 0.120764822
vn 0.0168694332 0.694120467 0.7196612
vn -0.241594359 0.804960549 0.5419139
vn -0.3805441 0.639994442 0.667527735
vn 0.07996583 0.7744589 0.6275499
vn -0.141921952 0.9113186 0.3864667
vn -0.798840463 0.4575527 0.390511721
vn -0.670859456 0.692459047 0.265420675
vn -0.750991762 0.6519869 0.104520358
vn -0.459319025 0.876287341 0.145418361
vn -0.211492136 0.8944597 0.393970639
vn -0.333592355 0.923423648 0.189749628
vn -0.5713253 0.69062084 0.4434301
vn -0.0407524519 0.984957 0.1679255
vn -0.174226657 0.9770328 -0.122686833
vn -0.800904632 0.5313337 0.276109159
vn -0.624854 0.7805319 -0.0180956814
vn -0.715316951 0.6822623 -0.151128665
vn -0.327820182 0.8953336 -0.301515639
vn 0.0229246933 0.57489264 0.817907631
vn 0.017147094 0.813842952 0.5808318
vn -0.2791369 0.7886115 0.5478819
vn -0.228241622 0.9172552 0.326417863
vn 0.0118262321 0.9286194 0.370845258
vn -0.427523315 0.7851646 0.4480406
vn -0.271836936 0.5837696 0.7650606
vn -0.4833136 0.8459042 0.225508586
vn -0.1111167 0.461603373 0.880099654
vn 0.0253252257 0.381480455 0.9240299
vn -0.3190071 0.585313857 0.7454141
vn -0.241015971 0.0573875047 0.968822956
vn -0.003991816 0.55599916 0.831173241
vn -0.533219159 0.242237151 0.810554445
vn -0.601191342 0.4764727 0.641516
vn -0.516190231 0.5454206 0.6603514
vn -0.66319716 0.6679663 0.337624848
vn -0.6740938 0.5095912 0.5347096
vn -0.5709027 0.187224746 0.799385369
vn -0.6154733 0.74276334 0.263619661
vn -0.259377629 0.887416959 0.3810701
vn -0.07063512 0.316425562 0.9459839
vn 0.0434241779 -0.183725253 0.982018
vn -0.0287297 0.196362063 0.980110466
vn -0.460579365 -0.111479357 0.880590141
vn -0.697824359 -0.206472173 0.6858647
vn -0.7390429 -0.309417665 0.5983948
vn -0.8708387 -0.0412900932 0.4898317
vn -0.156238243 -0.08562753 0.9840008
vn -0.536528349 0.0872798 0.8393566
vn -0.7801339 0.237833366 0.5786419
vn 0.0150482645 -0.117540054 0.992954135
vn -0.272632658 0.187982455 0.943575144
vn -0.448596328 0.419912755 0.788945258
vn -0.1317749 0.6089221 0.7822079
vn -0.4656844 0.01101934 0.8848823
vn -0.4634952 -0.09447631 0.8810485
vn -0.02633164 0.808237 0.5882683
vn -0.292460829 0.881911457 0.3697281
vn -0.565955 0.7004116 0.434877574
vn -0.696109 0.714633942 0.06877946
vn -0.762313962 0.624801159 0.168822214
vn -0.786809742 0.607534051 -0.108778767
vn -0.7733961 0.6320708 0.04842502
vn -0.07890387 0.986635268 0.142565951
vn -0.379941821 0.911125362 -0.15967086
vn -0.48696366 0.8115324 -0.322926641
vn -0.8167202 0.48253423 -0.316431373
vn -0.7642848 0.419883043 -0.489455819
vn -0.992806256 0.01690171 -0.1185328
vn -0.403532535 0.7998409 -0.4443152
vn -0.39059332 0.396346748 0.8308707
vn -0.598967254 0.4915328 0.6321659
vn -0.7250344 0.06538494 0.68560183
vn -0.829630852 0.4684633 0.303734779
vn -0.91099 0.269183844 0.3124696
vn -0.9540122 0.29650104 0.0441342033
vn -0.999702454 0.0242055319 0.00301299733
vn -0.9564668 0.192928761 -0.218974426
vn -0.9175704 0.232827544 -0.322266757
vn -0.8879667 -0.377786934 -0.2622826
vn -0.630309761 0.7700605 -0.0985722
vn -0.86801517 0.1017472 0.486001223
vn -0.7298368 -0.240654945 0.639862
vn -0.9869951 0.0556788258 0.150799826
vn -0.9222201 -0.1691172 0.3477204
vn -0.976768 0.06588902 -0.203918889
vn -0.950477 -0.287138164 -0.118933544
vn -0.862150431 0.4827715 -0.1537151
vn -0.9374012 0.193638176 -0.289453536
vn -0.8033108 0.200996637 -0.560617566
vn -0.632711053 -0.0487708524 -0.772850633
vn -0.7897146 -0.271802366 -0.5499767
vn -0.419723034 0.435020238 -0.796611547
vn -0.33758 0.107671544 -0.9351185
vn -0.500223339 -0.2663411 -0.8239169
vn -0.9458852 -0.310218573 0.09521355
vn -0.7447846 -0.4652314 -0.478388578
vn -0.74764514 -0.5275672 -0.403360456
vn -0.3687725 -0.386398524 -0.8454011
vn -0.885008931 -0.208601 -0.4162269
vn -0.9660418 -0.1585655 -0.204010263
vn -0.9866612 0.03477455 -0.159029737
vn -0.6012582 -0.08858584 -0.794129133
vn -0.880865335 -0.368774265 0.2967857
vn -0.8248101 -0.519464 -0.22326088
vn -0.8117668 -0.5604788 -0.164006576
vn -0.625728965 -0.502029359 -0.5970174
vn -0.927370846 -0.306128353 -0.215101674
vn -0.9486643 -0.23080346 0.216254011
vn -0.952911258 -0.251975715 0.16872561
vn -0.98231256 -0.0747885853 -0.171664476
vn -0.778925955 -0.236231372 -0.580920935
vn -0.0218577646 0.5020147 -0.864582837
vn -0.507553458 0.756588459 -0.4122662
vn -0.0127206873 0.8369411 -0.547145069
vn -0.0265883673 -0.111376636 -0.9934225
vn -0.3313134 -0.08474776 -0.939707
vn -0.419723034 0.435020238 -0.796611547
vn -0.0218577646 0.5020147 -0.864582837
vn -0.8700285 0.398859859 -0.289760649
vn -0.9908603 -0.09745159 -0.09326919
vn -0.975079656 0.139518633 0.172494188
vn -0.7268838 -0.6197471 -0.295894265
vn -0.952911258 -0.251975715 0.16872561
vn -0.8096753 -0.5354775 -0.240186974
vn -0.588120043 -0.0117103839 -0.8086889
vn -0.5129307 -0.3881668 -0.7656557
vn -0.3957395 -0.644226551 -0.654494
vn -0.0186587051 -0.7668333 -0.641575038
vn -0.5572721 -0.7000831 -0.446465522
vn -0.104720294 -0.4233714 -0.8998835
vn -0.0204702578 -0.6984231 -0.715392351
vn -0.104720294 -0.4233714 -0.8998835
vn -0.024930818 -0.423009753 -0.9057821
vn -0.0204702578 -0.6984231 -0.715392351
vn -0.967562556 -0.171057582 0.1859086
vn -0.937960148 -0.139876992 -0.317277819
vn -0.6251727 -0.7004206 -0.3443401
vn -0.5959346 -0.6601059 -0.4572987
vn -0.999160051 -0.0188626572 0.036379233
vn -0.90697974 -0.250929415 -0.3382635
vn -0.988838851 -0.142683059 0.0428867973
vn -0.8916124 0.0333946571 0.451566219
vn -0.9064082 0.214109689 0.3641171
vn -0.8435518 -0.06634174 0.5329345
vn -0.92665875 -0.332410723 0.175518215
vn -0.8862006 0.44603467 0.125305936
vn -0.8340788 0.378837526 0.400992185
vn -0.967562556 -0.171057582 0.1859086
vn -0.6513101 0.7474186 -0.130998716
vn -0.8820841 -0.381929249 -0.275785744
vn -0.6012582 -0.08858584 -0.794129133
vn -0.3671227 -0.6067946 -0.704997361
vn -0.8095759 -0.473446727 -0.347037554
vn 0.168993726 -0.485977739 -0.85747695
vn -0.27069518 -0.7232324 -0.635341644
vn -0.8033108 0.200996637 -0.560617566
vn -0.5175808 -0.6714518 -0.5303419
vn 0.311159074 0.7873485 0.532224
vn 0.249142721 0.9162343 0.313755661
vn 0.314507216 0.582514167 0.749508142
vn 0.454031646 0.78327626 0.424656957
vn 0.498198479 0.843805552 0.199475437
vn 0.1595891 0.461024672 0.872918963
vn 0.360574633 0.583859444 0.7273885
vn 0.0504268855 0.5558842 0.8297288
vn 0.292279422 0.0562463365 0.954677463
vn 0.576469839 0.239862055 0.7811202
vn 0.552800834 0.543132067 0.631995857
vn 0.6363874 0.473822951 0.6086895
vn 0.683015347 0.6650831 0.30191803
vn 0.613271654 0.184689939 0.7679762
vn 0.7036653 0.506641865 0.4981658
vn 0.6317542 0.740093648 0.2305384
vn 0.283007 0.8862566 0.366682827
vn 0.122036695 0.316016018 0.940872431
vn 0.08148533 0.1961269 0.977187
vn 0.007909032 -0.183647528 0.982960343
vn 0.5061321 -0.113548614 0.8549485
vn 0.7683944 -0.3126444 0.5584116
vn 0.732311845 -0.209533378 0.647931457
vn 0.8953958 -0.0450713076 0.442984074
vn 0.5806376 0.08488737 0.809724748
vn 0.207813323 -0.08640712 0.9743446
vn 0.810721755 0.2344274 0.536445737
vn 0.3230716 0.186708659 0.927774
vn 0.03710862 -0.1175869 0.992369
vn 0.491581351 0.417901725 0.7640065
vn 0.17565915 0.6082672 0.774050951
vn 0.5119819 0.008926507 0.85894984
vn 0.509141266 -0.09655866 0.855249465
vn 0.0609361753 0.808050454 0.5859533
vn 0.5912036 0.6979346 0.4041851
vn 0.315419346 0.880610466 0.353604048
vn 0.7018274 0.7116413 0.0317004248
vn 0.7728571 0.6215155 0.128102839
vn 0.7825301 0.604173362 -0.15040344
vn 0.777573 0.6287505 0.0072861053
vn 0.3748366 0.9095105 -0.179689214
vn 0.0905702 0.9862726 0.138070345
vn 0.472630173 0.809477866 -0.348376721
vn 0.8008552 0.479070574 -0.3593359
vn 0.98519 0.0126669267 -0.170997724
vn 0.7390538 0.4166634 -0.52933085
vn 0.3828331 0.7981564 -0.4651722
vn 0.435781568 0.394577682 0.808951735
vn 0.7606325 0.0622045435 0.64619565
vn 0.6337341 0.488893658 0.599469841
vn 0.846561849 0.464875758 0.259275019
vn 0.927416563 0.2652489 0.2637073
vn 0.956270635 0.292410165 -0.006535126
vn 0.998551 0.0199260879 -0.0499888323
vn 0.9443309 0.188857868 -0.269391835
vn 0.871189356 -0.381553769 -0.308943123
vn 0.9001844 0.228936732 -0.370480835
vn 0.6274884 0.7673667 -0.1319344
vn 0.7616942 -0.243847445 0.600300252
vn 0.8929854 0.09797744 0.439292
vn 0.993830562 0.0514368825 0.09826006
vn 0.938624144 -0.173101246 0.298363358
vn 0.9415985 -0.291188836 -0.169119462
vn 0.964857638 0.0617321841 -0.255418926
vn 0.854848 0.479094326 -0.199257448
vn 0.921558857 0.189657748 -0.338761359
vn 0.7733151 0.197620884 -0.602436543
vn 0.7582792 -0.275116384 -0.5910361
vn 0.590637445 -0.0513897836 -0.805299044
vn 0.378760934 0.433311224 -0.8177906
vn 0.2879919 0.106333181 -0.951711059
vn 0.4546991 -0.268385023 -0.849245667
vn 0.9482668 -0.3142731 0.0449720249
vn 0.722947 -0.5307152 -0.4423675
vn 0.716379762 -0.468359381 -0.5171456
vn 0.3217804 -0.3878766 -0.8637182
vn 0.860799 -0.212338954 -0.462533474
vn 0.976983249 0.0305709075 -0.211114153
vn 0.953181446 -0.1626738 -0.25491637
vn 0.5579303 -0.09106688 -0.8248761
vn 0.8937737 -0.372573376 0.2497152
vn 0.799525559 -0.5639284 -0.206745371
vn 0.8095852 -0.522962868 -0.266611338
vn 0.5910473 -0.5046341 -0.6292913
vn 0.9133457 -0.310068846 -0.2639261
vn 0.9715022 -0.0789710954 -0.2234883
vn 0.959429 -0.256068915 0.118002795
vn 0.9577981 -0.234884784 0.165686175
vn 0.746017158 -0.239495128 -0.621369839
vn 0.488217235 0.7544572 -0.4386779
vn 0.378760934 0.433311224 -0.8177906
vn 0.280667126 -0.0860574 -0.955939353
vn 0.8551429 0.395167232 -0.3355197
vn 0.983440638 0.135326147 0.120546028
vn 0.984096766 -0.101679526 -0.145653278
vn 0.7075174 -0.6228181 -0.333941221
vn 0.793505669 -0.5389099 -0.2827098
vn 0.959429 -0.256068915 0.118002795
vn 0.5443683 -0.014134693 -0.838727236
vn 0.4699555 -0.3902704 -0.79172647
vn 0.357728451 -0.6458395 -0.6744788
vn 0.52982 -0.70241046 -0.475300223
vn 0.05505715 -0.423713535 -0.9041214
vn 0.05505715 -0.423713535 -0.9041214
vn 0.9192146 -0.143851787 -0.3665395
vn 0.975316644 -0.175216332 0.134375125
vn 0.603036642 -0.703050137 -0.376918167
vn 0.568023 -0.6625985 -0.488173217
vn 0.9995938 -0.0231416337 -0.0166362487
vn 0.989102364 -0.14691782 -0.009576706
vn 0.8866905 -0.2547693 -0.385840029
vn 0.9253439 0.210187241 0.3155314
vn 0.9144316 0.029528331 0.403662
vn 0.8703254 -0.0700103045 0.487475425
vn 0.9332294 -0.336392462 0.126186445
vn 0.89349705 0.442225337 0.07810107
vn 0.85577625 0.375219524 0.356170326
vn 0.975316644 -0.175216332 0.134375125
vn 0.6466414 0.7446404 -0.165425465
vn 0.5579303 -0.09106688 -0.8248761
vn 0.864581466 -0.385668367 -0.3221162
vn 0.326633751 -0.608279943 -0.723398864
vn 0.7880074 -0.476867378 -0.3894122
vn -0.216290072 -0.4851527 -0.8472576
vn 0.233536437 -0.7243125 -0.6487158
vn 0.7733151 0.197620884 -0.602436543
vn 0.485860854 -0.673599839 -0.556958258
vn -0.02552919 0.42676574 0.904001832
vn 0.0286916532 0.209171355 0.977458
vn 0.5425066 0.147099838 0.8270721
vn 0.537991047 0.397408158 0.743392467
vn 0.09902624 -0.0915398151 0.9908654
vn 0.247516155 0.03800484 0.9681381
vn 0.423551828 0.681269 0.597056448
vn 0.0208303444 0.6832614 0.7298767
vn 0.0213102046 0.538993359 0.84204036
vn 0.416754454 0.5591732 0.71668756
vn -0.3187421 -0.0237222649 0.9475446
vn -0.650002658 0.2486392 0.7181052
vn -0.5767908 -0.0419278257 0.8158152
vn -0.60965544 -0.425350338 0.668877661
vn -0.180928946 -0.288537264 0.940218568
vn 0.0653851554 -0.07034773 0.9953773
vn 0.3048135 -0.292781383 0.906293452
vn 0.3470553 -0.0132614058 0.9377509
vn 0.7032678 0.3840295 0.59827733
vn 0.695741832 0.179762021 0.695434332
vn -0.498549968 0.5815223 0.64286834
vn -0.05807428 0.79352504 0.605760157
vn -0.472203851 0.5026973 0.724098742
vn -0.6444864 0.366760939 0.670912564
vn -0.416713655 0.434456557 0.798496842
vn -0.475267053 0.494451582 0.727762938
vn -0.437707841 0.238591224 0.866883
vn -0.194909737 -0.0250355061 0.9805016
vn 0.03747806 -0.2566272 0.965783536
vn -0.0833609849 -0.0760081559 0.993616462
vn 0.1319902 -0.447238266 0.8846222
vn 0.513973534 0.5732296 0.6381528
vn 0.34292835 0.6943733 0.6326499
vn 0.6760828 0.496525973 0.5444024
vn 0.680205643 -0.47804442 0.5556922
vn 0.5965818 -0.0598007031 0.8003212
vn -0.176211327 -0.467522085 0.8662405
vn -0.8127903 0.3515721 0.464509457
vn -0.8199549 0.302420467 0.486020476
vn -0.2393338 0.753293753 -0.6125911
vn -0.2686351 0.8601082 -0.433646262
vn -0.0136675248 0.8840359 -0.4672192
vn -0.000828595366 0.73725307 -0.6756162
vn 0.2271972 0.752085865 -0.6186665
vn 0.250181764 0.8630133 -0.438881636
vn -0.02247647 0.49312672 -0.8696671
vn -0.168700173 0.5815847 -0.795801163
vn -0.0145574808 0.560242951 -0.8282004
vn 0.140180677 0.576313555 -0.8051162
usemtl PaulHair99_part_0_material_0
f 1/1/1 2/2/2 3/3/3
f 4/4/4 5/5/5 6/6/6
f 1/1/1 7/7/7 8/8/8
f 9/9/9 7/7/7 1/1/1
f 9/9/9 1/1/1 5/5/5
f 7/7/7 10/10/10 11/11/11
f 7/7/7 9/9/9 12/12/12
f 8/8/8 7/7/7 11/11/11
f 1/1/1 8/8/8 2/2/2
f 6/6/6 5/5/5 1/1/1
f 6/6/6 1/1/1 3/3/3
f 13/13/13 9/9/9 5/5/5
f 14/14/14 12/12/12 9/9/9
f 7/7/7 12/12/12 10/10/10
f 15/15/15 16/16/16 17/17/17
f 15/15/15 17/17/17 18/18/18
f 19/19/19 18/18/18 17/17/17
f 19/19/19 17/17/17 20/20/20
f 21/21/21 22/22/22 23/23/23
f 21/21/21 23/23/23 24/24/24
f 19/19/19 24/24/24 23/23/23
f 19/19/19 23/23/23 18/18/18
f 15/15/15 18/18/18 23/23/23
f 15/15/15 23/23/23 22/22/22
f 25/25/25 26/26/26 27/27/27
f 25/25/25 27/27/27 28/28/28
f 29/29/29 30/30/30 31/31/31
f 32/32/32 31/31/31 30/30/30
f 31/31/31 27/27/27 26/26/26
f 31/31/31 26/26/26 29/29/29
f 32/32/32 28/28/28 27/27/27
f 32/32/32 27/27/27 31/31/31
f 33/33/33 34/34/34 35/35/35
f 33/33/33 36/36/36 34/34/34
f 37/37/37 38/38/38 39/39/39
f 40/40/40 39/39/39 38/38/38
f 38/38/38 37/37/37 35/35/35
f 38/38/38 35/35/35 34/34/34
f 40/40/40 38/38/38 34/34/34
f 40/40/40 34/34/34 36/36/36
f 41/41/41 42/42/42 43/43/43
f 44/44/44 45/45/45 46/46/46
f 41/41/41 47/47/47 48/48/48
f 49/49/49 47/47/47 41/41/41
f 49/49/49 41/41/41 45/45/45
f 47/47/47 50/50/50 51/51/51
f 47/47/47 49/49/49 52/52/52
f 48/48/48 47/47/47 51/51/51
f 41/41/41 48/48/48 42/42/42
f 46/46/46 45/45/45 41/41/41
f 46/46/46 41/41/41 43/43/43
f 53/53/53 49/49/49 45/45/45
f 54/54/54 52/52/52 49/49/49
f 47/47/47 52/52/52 50/50/50
f 55/55/55 56/56/56 57/57/57
f 58/58/58 57/57/57 59/59/59
f 60/60/60 61/61/61 62/62/62
f 63/63/63 62/62/62 61/61/61
f 62/62/62 57/57/57 56/56/56
f 62/62/62 56/56/56 60/60/60
f 63/63/63 59/59/59 57/57/57
f 63/63/63 57/57/57 62/62/62
f 57/57/57 58/58/58 55/55/55
f 64/64/64 65/65/65 66/66/66
f 67/67/67 66/66/66 68/68/68
f 69/69/69 70/70/70 71/71/71
f 72/72/72 71/71/71 70/70/70
f 71/71/71 66/66/66 65/65/65
f 71/71/71 65/65/65 69/69/69
f 72/72/72 68/68/68 66/66/66
f 72/72/72 66/66/66 71/71/71
f 66/66/66 67/67/67 64/64/64
f 73/73/73 74/74/74 75/75/75
f 76/76/76 77/77/77 74/74/74
f 78/78/78 79/79/79 80/80/80
f 81/81/81 80/80/80 79/79/79
f 79/79/79 78/78/78 75/75/75
f 79/79/79 75/75/75 74/74/74
f 81/81/81 79/79/79 74/74/74
f 81/81/81 74/74/74 77/77/77
f 74/74/74 73/73/73 76/76/76
f 82/82/82 83/83/83 84/84/84
f 85/85/85 86/86/86 83/83/83
f 87/87/87 88/88/88 89/89/89
f 90/90/90 89/89/89 88/88/88
f 88/88/88 87/87/87 84/84/84
f 88/88/88 84/84/84 83/83/83
f 90/90/90 88/88/88 83/83/83
f 90/90/90 83/83/83 86/86/86
f 83/83/83 82/82/82 85/85/85
f 91/91/91 92/92/92 93/93/93
f 94/94/94 93/93/93 92/92/92
f 94/94/94 92/92/92 95/95/95
f 93/93/93 96/96/96 97/97/97
f 98/98/98 96/96/96 93/93/93
f 98/98/98 93/93/93 94/94/94
f 91/91/91 99/99/99 100/100/100
f 97/97/97 99/99/99 91/91/91
f 97/97/97 91/91/91 93/93/93
f 101/101/101 102/102/102 103/103/103
f 104/104/104 105/105/105 106/106/106
f 107/107/107 106/106/106 105/105/105
f 101/101/101 108/108/108 109/109/109
f 101/101/101 109/109/109 102/102/102
f 110/110/110 108/108/108 101/101/101
f 110/110/110 101/101/101 111/111/111
f 111/111/111 101/101/101 103/103/103
f 108/108/108 105/105/105 104/104/104
f 108/108/108 104/104/104 109/109/109
f 107/107/107 105/105/105 108/108/108
f 107/107/107 108/108/108 110/110/110
f 112/112/112 113/113/113 114/114/114
f 115/115/115 116/116/116 117/117/117
f 118/118/118 117/117/117 116/116/116
f 115/115/115 119/119/119 120/120/120
f 118/118/118 116/116/116 120/120/120
f 118/118/118 120/120/120 121/121/121
f 120/120/120 119/119/119 122/122/122
f 120/120/120 122/122/122 123/123/123
f 121/121/121 120/120/120 123/123/123
f 121/121/121 123/123/123 124/124/124
f 125/125/125 112/112/112 114/114/114
f 123/123/123 122/122/122 113/113/113
f 123/123/123 113/113/113 112/112/112
f 125/125/125 124/124/124 123/123/123
f 125/125/125 123/123/123 112/112/112
f 115/115/115 126/126/126 119/119/119
f 115/115/115 127/127/127 126/126/126
f 116/116/116 115/115/115 120/120/120
f 128/128/128 129/129/129 130/130/130
f 131/131/131 132/132/132 130/130/130
f 131/131/131 130/130/130 129/129/129
f 133/133/133 134/134/134 132/132/132
f 133/133/133 132/132/132 131/131/131
f 129/129/129 135/135/135 136/136/136
f 129/129/129 136/136/136 131/131/131
f 131/131/131 136/136/136 137/137/137
f 131/131/131 137/137/137 133/133/133
f 138/138/138 139/139/139 140/140/140
f 141/141/141 139/139/139 138/138/138
f 138/138/138 140/140/140 134/134/134
f 138/138/138 134/134/134 133/133/133
f 141/141/141 138/138/138 133/133/133
f 141/141/141 133/133/133 137/137/137
f 128/128/128 135/135/135 129/129/129
f 142/142/142 143/143/143 144/144/144
f 145/145/145 146/146/146 144/144/144
f 145/145/145 144/144/144 143/143/143
f 147/147/147 148/148/148 146/146/146
f 147/147/147 146/146/146 145/145/145
f 143/143/143 130/130/130 132/132/132
f 143/143/143 132/132/132 145/145/145
f 145/145/145 132/132/132 134/134/134
f 145/145/145 134/134/134 147/147/147
f 149/149/149 150/150/150 151/151/151
f 152/152/152 150/150/150 149/149/149
f 149/149/149 151/151/151 148/148/148
f 149/149/149 148/148/148 147/147/147
f 152/152/152 149/149/149 147/147/147
f 152/152/152 147/147/147 134/134/134
f 142/142/142 130/130/130 143/143/143
f 144/144/144 153/153/153 154/154/154
f 155/155/155 156/156/156 154/154/154
f 155/155/155 154/154/154 153/153/153
f 155/155/155 157/157/157 158/158/158
f 155/155/155 158/158/158 156/156/156
f 144/144/144 146/146/146 153/153/153
f 153/153/153 146/146/146 148/148/148
f 153/153/153 148/148/148 155/155/155
f 159/159/159 157/157/157 155/155/155
f 159/159/159 155/155/155 148/148/148
f 160/160/160 158/158/158 157/157/157
f 160/160/160 157/157/157 159/159/159
f 161/161/161 162/162/162 163/163/163
f 164/164/164 165/165/165 162/162/162
f 166/166/166 163/163/163 162/162/162
f 166/166/166 162/162/162 165/165/165
f 162/162/162 161/161/161 164/164/164
f 167/167/167 168/168/168 169/169/169
f 170/170/170 169/169/169 168/168/168
f 171/171/171 172/172/172 173/173/173
f 168/168/168 167/167/167 172/172/172
f 168/168/168 172/172/172 171/171/171
f 170/170/170 168/168/168 171/171/171
f 170/170/170 171/171/171 174/174/174
f 175/175/175 176/176/176 177/177/177
f 178/178/178 177/177/177 176/176/176
f 179/179/179 180/180/180 181/181/181
f 179/179/179 181/181/181 182/182/182
f 183/183/183 179/179/179 182/182/182
f 183/183/183 182/182/182 172/172/172
f 176/176/176 175/175/175 180/180/180
f 176/176/176 180/180/180 179/179/179
f 178/178/178 176/176/176 179/179/179
f 178/178/178 179/179/179 183/183/183
f 184/184/184 164/164/164 185/185/185
f 184/184/184 185/185/185 186/186/186
f 187/187/187 188/188/188 189/189/189
f 187/187/187 189/189/189 190/190/190
f 164/164/164 161/161/161 191/191/191
f 164/164/164 191/191/191 185/185/185
f 173/173/173 192/192/192 193/193/193
f 194/194/194 195/195/195 196/196/196
f 197/197/197 189/189/189 188/188/188
f 198/198/198 197/197/197 188/188/188
f 199/199/199 200/200/200 201/201/201
f 202/202/202 203/203/203 199/199/199
f 204/204/204 205/205/205 206/206/206
f 187/187/187 205/205/205 204/204/204
f 187/187/187 204/204/204 188/188/188
f 193/193/193 207/207/207 208/208/208
f 192/192/192 207/207/207 193/193/193
f 201/201/201 209/209/209 196/196/196
f 201/201/201 196/196/196 210/210/210
f 211/211/211 208/208/208 212/212/212
f 211/211/211 212/212/212 213/213/213
f 193/193/193 211/211/211 214/214/214
f 193/193/193 214/214/214 215/215/215
f 216/216/216 214/214/214 211/211/211
f 216/216/216 211/211/211 213/213/213
f 217/217/217 213/213/213 212/212/212
f 217/217/217 216/216/216 213/213/213
f 171/171/171 173/173/173 161/161/161
f 161/161/161 173/173/173 191/191/191
f 191/191/191 173/173/173 193/193/193
f 191/191/191 193/193/193 218/218/218
f 219/219/219 193/193/193 215/215/215
f 211/211/211 193/193/193 208/208/208
f 207/207/207 192/192/192 182/182/182
f 207/207/207 182/182/182 181/181/181
f 194/194/194 220/220/220 195/195/195
f 192/192/192 172/172/172 182/182/182
f 203/203/203 200/200/200 199/199/199
f 172/172/172 192/192/192 173/173/173
f 185/185/185 191/191/191 221/221/221
f 191/191/191 218/218/218 221/221/221
f 193/193/193 219/219/219 218/218/218
f 198/198/198 222/222/222 223/223/223
f 204/204/204 198/198/198 188/188/188
f 224/224/224 225/225/225 222/222/222
f 224/224/224 222/222/222 198/198/198
f 226/226/226 224/224/224 198/198/198
f 226/226/226 198/198/198 204/204/204
f 225/225/225 224/224/224 227/227/227
f 226/226/226 227/227/227 224/224/224
f 223/223/223 228/228/228 197/197/197
f 198/198/198 223/223/223 197/197/197
f 185/185/185 221/221/221 186/186/186
f 174/174/174 171/171/171 161/161/161
f 209/209/209 194/194/194 196/196/196
f 201/201/201 210/210/210 229/229/229
f 201/201/201 229/229/229 199/199/199
f 91/91/91 230/230/230 92/92/92
f 231/231/231 95/95/95 92/92/92
f 231/231/231 92/92/92 230/230/230
f 230/230/230 232/232/232 233/233/233
f 234/234/234 231/231/231 230/230/230
f 234/234/234 230/230/230 233/233/233
f 91/91/91 100/100/100 235/235/235
f 232/232/232 230/230/230 91/91/91
f 232/232/232 91/91/91 235/235/235
f 236/236/236 237/237/237 238/238/238
f 239/239/239 240/240/240 241/241/241
f 242/242/242 241/241/241 240/240/240
f 236/236/236 238/238/238 243/243/243
f 236/236/236 243/243/243 244/244/244
f 245/245/245 246/246/246 236/236/236
f 245/245/245 236/236/236 244/244/244
f 246/246/246 237/237/237 236/236/236
f 244/244/244 243/243/243 239/239/239
f 244/244/244 239/239/239 241/241/241
f 242/242/242 245/245/245 244/244/244
f 242/242/242 244/244/244 241/241/241
f 247/247/247 248/248/248 249/249/249
f 250/250/250 251/251/251 252/252/252
f 253/253/253 252/252/252 251/251/251
f 250/250/250 254/254/254 255/255/255
f 253/253/253 256/256/256 254/254/254
f 253/253/253 254/254/254 252/252/252
f 254/254/254 257/257/257 258/258/258
f 254/254/254 258/258/258 255/255/255
f 256/256/256 259/259/259 257/257/257
f 256/256/256 257/257/257 254/254/254
f 260/260/260 248/248/248 247/247/247
f 257/257/257 247/247/247 249/249/249
f 257/257/257 249/249/249 258/258/258
f 260/260/260 247/247/247 257/257/257
f 260/260/260 257/257/257 259/259/259
f 250/250/250 255/255/255 261/261/261
f 250/250/250 261/261/261 262/262/262
f 252/252/252 254/254/254 250/250/250
f 263/263/263 264/264/264 265/265/265
f 266/266/266 265/265/265 264/264/264
f 266/266/266 264/264/264 267/267/267
f 268/268/268 266/266/266 267/267/267
f 268/268/268 267/267/267 269/269/269
f 265/265/265 266/266/266 270/270/270
f 265/265/265 270/270/270 271/271/271
f 266/266/266 268/268/268 272/272/272
f 266/266/266 272/272/272 270/270/270
f 273/273/273 274/274/274 275/275/275
f 276/276/276 273/273/273 275/275/275
f 273/273/273 268/268/268 269/269/269
f 273/273/273 269/269/269 274/274/274
f 276/276/276 272/272/272 268/268/268
f 276/276/276 268/268/268 273/273/273
f 263/263/263 265/265/265 271/271/271
f 277/277/277 278/278/278 279/279/279
f 280/280/280 279/279/279 278/278/278
f 280/280/280 278/278/278 281/281/281
f 282/282/282 280/280/280 281/281/281
f 282/282/282 281/281/281 283/283/283
f 279/279/279 280/280/280 267/267/267
f 279/279/279 267/267/267 264/264/264
f 280/280/280 282/282/282 269/269/269
f 280/280/280 269/269/269 267/267/267
f 284/284/284 285/285/285 286/286/286
f 287/287/287 284/284/284 286/286/286
f 284/284/284 282/282/282 283/283/283
f 284/284/284 283/283/283 285/285/285
f 287/287/287 269/269/269 282/282/282
f 287/287/287 282/282/282 284/284/284
f 277/277/277 279/279/279 264/264/264
f 278/278/278 288/288/288 289/289/289
f 290/290/290 289/289/289 288/288/288
f 290/290/290 288/288/288 291/291/291
f 290/290/290 291/291/291 292/292/292
f 290/290/290 292/292/292 293/293/293
f 278/278/278 289/289/289 281/281/281
f 289/289/289 290/290/290 283/283/283
f 289/289/289 283/283/283 281/281/281
f 294/294/294 283/283/283 290/290/290
f 294/294/294 290/290/290 293/293/293
f 295/295/295 293/293/293 292/292/292
f 295/295/295 294/294/294 293/293/293
f 296/296/296 297/297/297 298/298/298
f 299/299/299 298/298/298 300/300/300
f 301/301/301 298/298/298 297/297/297
f 301/301/301 300/300/300 298/298/298
f 298/298/298 299/299/299 296/296/296
f 302/302/302 303/303/303 304/304/304
f 305/305/305 304/304/304 303/303/303
f 306/306/306 307/307/307 308/308/308
f 304/304/304 306/306/306 308/308/308
f 304/304/304 308/308/308 302/302/302
f 305/305/305 309/309/309 306/306/306
f 305/305/305 306/306/306 304/304/304
f 310/310/310 311/311/311 312/312/312
f 313/313/313 312/312/312 311/311/311
f 314/314/314 315/315/315 316/316/316
f 314/314/314 316/316/316 317/317/317
f 318/318/318 308/308/308 315/315/315
f 318/318/318 315/315/315 314/314/314
f 312/312/312 314/314/314 317/317/317
f 312/312/312 317/317/317 310/310/310
f 313/313/313 318/318/318 314/314/314
f 313/313/313 314/314/314 312/312/312
f 184/184/184 186/186/186 319/319/319
f 184/184/184 319/319/319 299/299/299
f 187/187/187 190/190/190 320/320/320
f 187/187/187 320/320/320 321/321/321
f 299/299/299 319/319/319 322/322/322
f 299/299/299 322/322/322 296/296/296
f 307/307/307 323/323/323 324/324/324
f 325/325/325 326/326/326 327/327/327
f 328/328/328 321/321/321 320/320/320
f 329/329/329 321/321/321 328/328/328
f 330/330/330 331/331/331 200/200/200
f 332/332/332 330/330/330 203/203/203
f 333/333/333 206/206/206 205/205/205
f 187/187/187 321/321/321 333/333/333
f 187/187/187 333/333/333 205/205/205
f 323/323/323 334/334/334 335/335/335
f 324/324/324 323/323/323 335/335/335
f 331/331/331 326/326/326 336/336/336
f 331/331/331 337/337/337 326/326/326
f 338/338/338 339/339/339 340/340/340
f 338/338/338 340/340/340 334/334/334
f 323/323/323 341/341/341 342/342/342
f 323/323/323 342/342/342 338/338/338
f 343/343/343 339/339/339 338/338/338
f 343/343/343 338/338/338 342/342/342
f 344/344/344 340/340/340 339/339/339
f 344/344/344 339/339/339 343/343/343
f 306/306/306 296/296/296 307/307/307
f 296/296/296 322/322/322 307/307/307
f 322/322/322 345/345/345 323/323/323
f 322/322/322 323/323/323 307/307/307
f 346/346/346 341/341/341 323/323/323
f 338/338/338 334/334/334 323/323/323
f 335/335/335 316/316/316 315/315/315
f 335/335/335 315/315/315 324/324/324
f 325/325/325 327/327/327 347/347/347
f 324/324/324 315/315/315 308/308/308
f 203/203/203 330/330/330 200/200/200
f 308/308/308 307/307/307 324/324/324
f 319/319/319 348/348/348 322/322/322
f 322/322/322 348/348/348 345/345/345
f 323/323/323 345/345/345 346/346/346
f 329/329/329 349/349/349 350/350/350
f 333/333/333 321/321/321 329/329/329
f 351/351/351 329/329/329 350/350/350
f 351/351/351 350/350/350 352/352/352
f 353/353/353 333/333/333 329/329/329
f 353/353/353 329/329/329 351/351/351
f 352/352/352 354/354/354 351/351/351
f 353/353/353 351/351/351 354/354/354
f 349/349/349 328/328/328 355/355/355
f 329/329/329 328/328/328 349/349/349
f 319/319/319 186/186/186 348/348/348
f 309/309/309 296/296/296 306/306/306
f 336/336/336 326/326/326 325/325/325
f 331/331/331 356/356/356 337/337/337
f 331/331/331 330/330/330 356/356/356
f 357/357/357 358/358/358 359/359/359
f 357/357/357 359/359/359 360/360/360
f 358/358/358 361/361/361 362/362/362
f 358/358/358 362/362/362 359/359/359
f 363/363/363 364/364/364 365/365/365
f 363/363/363 365/365/365 366/366/366
f 367/367/367 368/368/368 369/369/369
f 370/370/370 371/371/371 367/367/367
f 370/370/370 367/367/367 369/369/369
f 362/362/362 372/372/372 373/373/373
f 362/362/362 373/373/373 374/374/374
f 359/359/359 362/362/362 374/374/374
f 375/375/375 360/360/360 359/359/359
f 375/375/375 359/359/359 376/376/376
f 377/377/377 364/364/364 378/378/378
f 379/379/379 380/380/380 381/381/381
f 366/366/366 365/365/365 357/357/357
f 366/366/366 357/357/357 360/360/360
f 364/364/364 377/377/377 382/382/382
f 364/364/364 382/382/382 365/365/365
f 357/357/357 365/365/365 382/382/382
f 357/357/357 382/382/382 381/381/381
f 381/381/381 383/383/383 358/358/358
f 381/381/381 358/358/358 357/357/357
f 383/383/383 384/384/384 361/361/361
f 383/383/383 361/361/361 358/358/358
f 378/378/378 364/364/364 363/363/363
f 362/362/362 361/361/361 385/385/385
f 362/362/362 385/385/385 372/372/372
f 385/385/385 361/361/361 384/384/384
f 385/385/385 384/384/384 386/386/386
f 387/387/387 373/373/373 372/372/372
f 388/388/388 389/389/389 366/366/366
f 375/375/375 390/390/390 388/388/388
f 360/360/360 388/388/388 366/366/366
f 375/375/375 388/388/388 360/360/360
f 387/387/387 391/391/391 373/373/373
f 374/374/374 373/373/373 391/391/391
f 374/374/374 391/391/391 392/392/392
f 359/359/359 374/374/374 376/376/376
f 376/376/376 374/374/374 392/392/392
f 393/393/393 371/371/371 370/370/370
f 393/393/393 386/386/386 371/371/371
f 367/367/367 371/371/371 386/386/386
f 367/367/367 386/386/386 384/384/384
f 367/367/367 383/383/383 368/368/368
f 384/384/384 383/383/383 367/367/367
f 394/394/394 380/380/380 395/395/395
f 380/380/380 383/383/383 381/381/381
f 379/379/379 381/381/381 382/382/382
f 380/380/380 394/394/394 368/368/368
f 380/380/380 368/368/368 383/383/383
f 396/396/396 397/397/397 398/398/398
f 396/396/396 398/398/398 399/399/399
f 400/400/400 399/399/399 398/398/398
f 400/400/400 398/398/398 401/401/401
f 402/402/402 403/403/403 404/404/404
f 402/402/402 404/404/404 405/405/405
f 400/400/400 405/405/405 404/404/404
f 400/400/400 404/404/404 399/399/399
f 396/396/396 399/399/399 404/404/404
f 396/396/396 404/404/404 403/403/403
