mtllib PaulDaBes2.mtl
o PaulDaBes2_part_0
v 0.377950549 -0.0157842636 0.227502018
v 0.4159388 -0.016331315 0.3372748
v 0.189274088 -0.01747477 0.2715523
v 0.1497123 -0.01590848 0.07218248
v 0.130056456 -0.0143355131 -0.1053915
v 0.210101888 -0.0132056475 -0.16980961
v 0.331390142 -0.0127093792 -0.117060393
v 0.361614585 -0.0139857531 0.0413835347
v 0.130056456 -0.0143355131 -0.1053915
v 0.147084638 0.110949755 -0.0721210539
v 0.205477208 0.118383527 -0.144061655
v 0.210101888 -0.0132056475 -0.16980961
v 0.189348057 0.358651876 -0.102012515
v 0.268012166 0.354966938 -0.06033588
v 0.2866498 0.119815826 -0.0767808259
v 0.205477208 0.118383527 -0.144061655
v 0.124092095 0.3412878 -0.048934713
v 0.189348057 0.358651876 -0.102012515
v 0.136262342 0.102509022 0.09518188
v 0.120135538 0.3182727 0.0958433449
v 0.3281972 0.131078 0.0694102943
v 0.3289785 0.06520891 0.235664576
v 0.377950549 -0.0157842636 0.227502018
v 0.361614585 -0.0139857531 0.0413835347
v 0.242173955 0.17509675 0.16105926
v 0.2744019 0.129872441 0.245711416
v 0.136262342 0.102509022 0.09518188
v 0.226899043 0.0584448576 0.2441034
v 0.1497123 -0.01590848 0.07218248
v 0.2948937 0.328725159 0.0450258926
v 0.3281972 0.131078 0.0694102943
v 0.189274088 -0.01747477 0.2715523
v 0.1497123 -0.01590848 0.07218248
v 0.242173955 0.17509675 0.16105926
v 0.2292651 0.301215231 0.123656034
v 0.331390142 -0.0127093792 -0.117060393
v 0.361614585 -0.0139857531 0.0413835347
v 0.2292651 0.301215231 0.123656034
v 0.210101888 -0.0132056475 -0.16980961
v 0.4159388 -0.016331315 0.3372748
v 0.347074449 0.03640914 0.361267745
v 0.3038496 0.0563769341 0.38339588
v 0.262407124 0.03622639 0.371299058
v 0.304458618 -0.0175138712 0.3505919
v 0.191422641 -0.01865518 0.356191933
v 0.191422641 -0.01865518 0.356191933
v 0.347074449 0.03640914 0.361267745
v 0.3038496 0.0563769341 0.38339588
v 0.262407124 0.03622639 0.371299058
v 0.314883322 0.0143425465 0.431288868
v 0.350143969 -0.0187628269 0.409451216
v 0.3038496 0.0563769341 0.38339588
v 0.347074449 0.03640914 0.361267745
v 0.3038496 0.0563769341 0.38339588
v 0.350143969 -0.0187628269 0.409451216
v 0.280070364 -0.0148854256 0.418093443
v 0.262407124 0.03622639 0.371299058
v 0.3038496 0.0563769341 0.38339588
v 0.262407124 0.03622639 0.371299058
v 0.314883322 0.0143425465 0.431288868
v 0.347074449 0.03640914 0.361267745
v 0.397082269 0.0118008852 0.411246121
v 0.4159388 -0.016331315 0.3372748
v 0.397082269 0.0118008852 0.411246121
v 0.347074449 0.03640914 0.361267745
v 0.367191 0.012406826 0.413935751
v 0.20585613 -0.0133398771 0.4145472
v 0.227114111 0.0149483681 0.4219131
v 0.191422641 -0.01865518 0.356191933
v 0.262407124 0.03622639 0.371299058
v 0.191422641 -0.01865518 0.356191933
v 0.227114111 0.0149483681 0.4219131
v 0.3287688 -0.0320632458 0.4893854
v 0.402128935 -0.0186665058 0.4656901
v 0.42104882 -0.0182913542 0.400699049
v 0.2338407 -0.0243762732 0.4760072
v 0.255457431 0.01580441 0.425603539
v 0.262407124 0.03622639 0.371299058
v 0.4159388 -0.016331315 0.3372748
v 0.2833399 0.414280355 -0.0733053163
v 0.324625 0.359163284 0.07194099
v 0.173913762 0.4268002 -0.131415159
v 0.08091488 0.408964455 -0.06376014
v 0.173913762 0.4268002 -0.131415159
v 0.22096315 0.336837173 0.174580276
v 0.22096315 0.336837173 0.174580276
v 0.09320262 0.3573138 0.1173363
v 0.261839062 0.5377373 -0.04324636
v 0.289640665 0.5269253 0.0586811826
v 0.169391572 0.544604 -0.09068312
v 0.09229977 0.5299054 -0.0241580531
v 0.169391572 0.544604 -0.09068312
v 0.209484428 0.5193371 0.153426841
v 0.209484428 0.5193371 0.153426841
v 0.08916342 0.52293247 0.108903751
v -0.3872373 -0.0185899734 0.146436945
v -0.20055595 -0.0213986635 0.198246777
v -0.429751754 -0.0207076073 0.254517943
v -0.152747288 -0.0169096 0.0007370785
v -0.203031838 -0.0103996992 -0.243483
v -0.125732362 -0.012696147 -0.1758239
v -0.363184184 -0.014013648 -0.0387945138
v -0.3264047 -0.01041162 -0.195810124
v -0.125732362 -0.012696147 -0.1758239
v -0.199145123 0.121638656 -0.216025546
v -0.143906862 0.11217165 -0.141704053
v -0.203031838 -0.0103996992 -0.243483
v -0.184167 0.3613057 -0.163550034
v -0.283134162 0.121554852 -0.152089134
v -0.2646658 0.3561064 -0.125715241
v -0.199145123 0.121638656 -0.216025546
v -0.184167 0.3613057 -0.163550034
v -0.121452861 0.3412779 -0.108387329
v -0.1241865 0.311758935 0.03523437
v -0.14005515 0.101113677 0.0260746777
v -0.330703735 0.130528688 -0.00720036775
v -0.3872373 -0.0185899734 0.146436945
v -0.338503718 0.0621531 0.15785636
v -0.363184184 -0.014013648 -0.0387945138
v -0.248482645 0.1729492 0.088598296
v -0.2842774 0.126526237 0.171142146
v -0.236874789 0.05501759 0.170419335
v -0.14005515 0.101113677 0.0260746777
v -0.152747288 -0.0169096 0.0007370785
v -0.296408176 0.32527566 -0.0229814015
v -0.330703735 0.130528688 -0.00720036775
v -0.20055595 -0.0213986635 0.198246777
v -0.152747288 -0.0169096 0.0007370785
v -0.248482645 0.1729492 0.088598296
v -0.234516755 0.293961823 0.0572401956
v -0.3264047 -0.01041162 -0.195810124
v -0.363184184 -0.014013648 -0.0387945138
v -0.234516755 0.293961823 0.0572401956
v -0.203031838 -0.0103996992 -0.243483
v -0.429751754 -0.0207076073 0.254517943
v -0.361850142 0.03149867 0.282147557
v -0.319546252 0.05102575 0.306351483
v -0.277672827 0.0309613943 0.2956792
v -0.206219167 -0.0238549709 0.2826966
v -0.318922937 -0.0223584175 0.272429466
v -0.206219167 -0.0238549709 0.2826966
v -0.277672827 0.0309613943 0.2956792
v -0.319546252 0.05102575 0.306351483
v -0.361850142 0.03149867 0.282147557
v -0.3326332 0.008297801 0.353099972
v -0.319546252 0.05102575 0.306351483
v -0.367015 -0.02438879 0.3293167
v -0.361850142 0.03149867 0.282147557
v -0.367015 -0.02438879 0.3293167
v -0.319546252 0.05102575 0.306351483
v -0.297353953 -0.0208103657 0.340916932
v -0.277672827 0.0309613943 0.2956792
v -0.319546252 0.05102575 0.306351483
v -0.3326332 0.008297801 0.353099972
v -0.277672827 0.0309613943 0.2956792
v -0.361850142 0.03149867 0.282147557
v -0.429751754 -0.0207076073 0.254517943
v -0.413933367 0.006256461 0.329627633
v -0.413933367 0.006256461 0.329627633
v -0.384178519 0.006750107 0.333564073
v -0.361850142 0.03149867 0.282147557
v -0.223053873 -0.0193889141 0.3404769
v -0.206219167 -0.0238549709 0.2826966
v -0.244549453 0.008835316 0.3473842
v -0.277672827 0.0309613943 0.2956792
v -0.244549453 0.008835316 0.3473842
v -0.206219167 -0.0238549709 0.2826966
v -0.349000782 -0.0389486551 0.409857184
v -0.437494338 -0.0236151218 0.3176384
v -0.42129004 -0.0250192881 0.383345246
v -0.27302 0.009703279 0.3499081
v -0.253585666 -0.0312873125 0.400547743
v -0.277672827 0.0309613943 0.2956792
v -0.429751754 -0.0207076073 0.254517943
v -0.327265739 0.354607 0.00389491022
v -0.2792376 0.416011631 -0.13668108
v -0.167234913 0.430636644 -0.189112812
v -0.07747569 0.409356773 -0.118158221
v -0.167234913 0.430636644 -0.189112812
v -0.228467733 0.327220142 0.110045612
v -0.228467733 0.327220142 0.110045612
v -0.09817003 0.349672019 0.0596736521
v -0.258832037 0.5378938 -0.100132361
v -0.29129827 0.5226357 -0.000171434134
v -0.164292753 0.5464683 -0.142942876
v -0.09036443 0.528445 -0.07370024
v -0.164292753 0.5464683 -0.142942876
v -0.215583444 0.5104329 0.09769428
v -0.215583444 0.5104329 0.09769428
v -0.0933414549 0.515482366 0.0589157641
v 0.169391572 0.544604 -0.09068312
v 0.09229977 0.5299054 -0.0241580531
v 0.08916342 0.52293247 0.108903751
v 0.08916342 0.52293247 0.108903751
v 0.209484428 0.5193371 0.153426841
v 0.289640665 0.5269253 0.0586811826
v 0.169391572 0.544604 -0.09068312
v 0.08916342 0.52293247 0.108903751
v 0.289640665 0.5269253 0.0586811826
v 0.261839062 0.5377373 -0.04324636
v 0.169391572 0.544604 -0.09068312
v 0.289640665 0.5269253 0.0586811826
v -0.215583444 0.5104329 0.09769428
v -0.0933414549 0.515482366 0.0589157641
v -0.09036443 0.528445 -0.07370024
v -0.09036443 0.528445 -0.07370024
v -0.164292753 0.5464683 -0.142942876
v -0.258832037 0.5378938 -0.100132361
v -0.215583444 0.5104329 0.09769428
v -0.09036443 0.528445 -0.07370024
v -0.258832037 0.5378938 -0.100132361
v -0.29129827 0.5226357 -0.000171434134
v -0.215583444 0.5104329 0.09769428
v -0.258832037 0.5378938 -0.100132361
v 0.350143969 -0.0187628269 0.409451216
v 0.314883322 0.0143425465 0.431288868
v 0.3038496 0.0563769341 0.38339588
v 0.3038496 0.0563769341 0.38339588
v 0.347074449 0.03640914 0.361267745
v 0.350143969 -0.0187628269 0.409451216
v 0.280070364 -0.0148854256 0.418093443
v 0.262407124 0.03622639 0.371299058
v 0.262407124 0.03622639 0.371299058
v 0.3038496 0.0563769341 0.38339588
v 0.314883322 0.0143425465 0.431288868
v 0.397082269 0.0118008852 0.411246121
v 0.347074449 0.03640914 0.361267745
v 0.4159388 -0.016331315 0.3372748
v 0.347074449 0.03640914 0.361267745
v 0.397082269 0.0118008852 0.411246121
v 0.367191 0.012406826 0.413935751
v 0.227114111 0.0149483681 0.4219131
v 0.20585613 -0.0133398771 0.4145472
v 0.191422641 -0.01865518 0.356191933
v 0.191422641 -0.01865518 0.356191933
v 0.262407124 0.03622639 0.371299058
v 0.227114111 0.0149483681 0.4219131
v 0.3287688 -0.0320632458 0.4893854
v 0.42104882 -0.0182913542 0.400699049
v 0.402128935 -0.0186665058 0.4656901
v 0.255457431 0.01580441 0.425603539
v 0.2338407 -0.0243762732 0.4760072
v 0.262407124 0.03622639 0.371299058
v 0.4159388 -0.016331315 0.3372748
v -0.319546252 0.05102575 0.306351483
v -0.3326332 0.008297801 0.353099972
v -0.367015 -0.02438879 0.3293167
v -0.367015 -0.02438879 0.3293167
v -0.361850142 0.03149867 0.282147557
v -0.319546252 0.05102575 0.306351483
v -0.277672827 0.0309613943 0.2956792
v -0.297353953 -0.0208103657 0.340916932
v -0.3326332 0.008297801 0.353099972
v -0.319546252 0.05102575 0.306351483
v -0.277672827 0.0309613943 0.2956792
v -0.429751754 -0.0207076073 0.254517943
v -0.361850142 0.03149867 0.282147557
v -0.413933367 0.006256461 0.329627633
v -0.384178519 0.006750107 0.333564073
v -0.413933367 0.006256461 0.329627633
v -0.361850142 0.03149867 0.282147557
v -0.206219167 -0.0238549709 0.2826966
v -0.223053873 -0.0193889141 0.3404769
v -0.244549453 0.008835316 0.3473842
v -0.244549453 0.008835316 0.3473842
v -0.277672827 0.0309613943 0.2956792
v -0.206219167 -0.0238549709 0.2826966
v -0.349000782 -0.0389486551 0.409857184
v -0.437494338 -0.0236151218 0.3176384
v -0.42129004 -0.0250192881 0.383345246
v -0.27302 0.009703279 0.3499081
v -0.253585666 -0.0312873125 0.400547743
v -0.277672827 0.0309613943 0.2956792
v -0.429751754 -0.0207076073 0.254517943
vt 0.115629926 0.892115653
vt 0.115534946 0.9437894
vt 0.0302018374 0.901714563
vt 0.0277864039 0.8233182
vt 0.0260549188 0.7616617
vt 0.05865203 0.74115485
vt 0.103108138 0.763590157
vt 0.109492555 0.818766236
vt 0.9008576 0.4102441
vt 0.867881536 0.542582631
vt 0.957114458 0.542582631
vt 0.9802392 0.4102441
vt 0.953518033 0.7870466
vt 0.872864842 0.7870466
vt 0.8597767 0.542582631
vt 0.9480764 0.542582631
vt 0.873140454 0.7870466
vt 0.940253258 0.7870466
vt 0.726183 0.542582631
vt 0.7670066 0.7870466
vt 0.387351364 0.429896474
vt 0.355709672 0.222176671
vt 0.427661866 0.189235449
vt 0.46179238 0.401320517
vt 0.26973936 0.370093
vt 0.274972975 0.246031165
vt 0.116539761 0.425718129
vt 0.203731209 0.220473886
vt 0.748838842 0.4102441
vt 0.769557834 0.7870466
vt 0.7139448 0.542582631
vt 0.143595681 0.157450974
vt 0.059263926 0.4013468
vt 0.626849532 0.6321354
vt 0.6840291 0.7870466
vt 0.88689363 0.4102441
vt 0.7304679 0.4102441
vt 0.689895332 0.7870466
vt 0.9732039 0.4102441
vt 0.419313 0.0368879437
vt 0.3399947 0.0322837234
vt 0.281840235 0.0330870152
vt 0.227976456 0.0421291
vt 0.0726438463 0.9451312
vt 0.0294135958 0.9436785
vt 0.146815971 0.0412043929
vt 0.08876005 0.957384467
vt 0.07166386 0.9666871
vt 0.0538016856 0.9581515
vt 0.6345906 0.18418318
vt 0.6756642 0.171301842
vt 0.6332032 0.334451079
vt 0.6888933 0.33202213
vt 0.6332032 0.334451079
vt 0.6756642 0.171301842
vt 0.5736673 0.184302986
vt 0.576787949 0.3305977
vt 0.6332032 0.334451079
vt 0.576787949 0.3305977
vt 0.6345906 0.18418318
vt 0.5747034 0.332147479
vt 0.6353061 0.181437671
vt 0.6893403 0.333781719
vt 0.6353061 0.181437671
vt 0.5747034 0.332147479
vt 0.5735382 0.183204234
vt 0.574546158 0.1833744
vt 0.6394231 0.176665187
vt 0.5762711 0.3304429
vt 0.691466033 0.337808073
vt 0.5762711 0.3304429
vt 0.6394231 0.176665187
vt 0.6093797 0.08795047
vt 0.609401464 0.08962643
vt 0.6751012 0.171963751
vt 0.611293256 0.0887211
vt 0.6714909 0.176532447
vt 0.691466033 0.337808073
vt 0.6893403 0.333781719
vt 0.8871435 0.83908236
vt 0.7579239 0.83908236
vt 0.97966367 0.83908236
vt 0.8898992 0.83908236
vt 0.9781982 0.83908236
vt 0.6750339 0.83908236
vt 0.662957847 0.83908236
vt 0.760369658 0.83908236
vt 0.8938521 0.954375565
vt 0.7683188 0.954375565
vt 0.9733324 0.954375565
vt 0.890489459 0.954375565
vt 0.9751447 0.954375565
vt 0.6905688 0.954375565
vt 0.675349653 0.954375565
vt 0.763278365 0.954375565
vt 0.115629926 0.892115653
vt 0.0302018374 0.901714563
vt 0.115534946 0.9437894
vt 0.0277864039 0.8233182
vt 0.05865203 0.74115485
vt 0.0260549188 0.7616617
vt 0.109492555 0.818766236
vt 0.103108138 0.763590157
vt 0.9008576 0.4102441
vt 0.957114458 0.542582631
vt 0.867881536 0.542582631
vt 0.9802392 0.4102441
vt 0.953518033 0.7870466
vt 0.8597767 0.542582631
vt 0.872864842 0.7870466
vt 0.9480764 0.542582631
vt 0.940253258 0.7870466
vt 0.873140454 0.7870466
vt 0.7670066 0.7870466
vt 0.726183 0.542582631
vt 0.387351364 0.429896474
vt 0.427661866 0.189235449
vt 0.355709672 0.222176671
vt 0.46179238 0.401320517
vt 0.26973936 0.370093
vt 0.274972975 0.246031165
vt 0.203731209 0.220473886
vt 0.116539761 0.425718129
vt 0.748838842 0.4102441
vt 0.769557834 0.7870466
vt 0.7139448 0.542582631
vt 0.143595681 0.157450974
vt 0.059263926 0.4013468
vt 0.626849532 0.6321354
vt 0.6840291 0.7870466
vt 0.88689363 0.4102441
vt 0.7304679 0.4102441
vt 0.689895332 0.7870466
vt 0.9732039 0.4102441
vt 0.419313 0.0368879437
vt 0.3399947 0.0322837234
vt 0.281840235 0.0330870152
vt 0.227976456 0.0421291
vt 0.0294135958 0.9436785
vt 0.0726438463 0.9451312
vt 0.146815971 0.0412043929
vt 0.0538016856 0.9581515
vt 0.07166386 0.9666871
vt 0.08876005 0.957384467
vt 0.6345906 0.18418318
vt 0.6332032 0.334451079
vt 0.6756642 0.171301842
vt 0.6888933 0.33202213
vt 0.6756642 0.171301842
vt 0.6332032 0.334451079
vt 0.5736673 0.184302986
vt 0.576787949 0.3305977
vt 0.6332032 0.334451079
vt 0.6345906 0.18418318
vt 0.576787949 0.3305977
vt 0.5747034 0.332147479
vt 0.6893403 0.333781719
vt 0.6353061 0.181437671
vt 0.6353061 0.181437671
vt 0.5735382 0.183204234
vt 0.5747034 0.332147479
vt 0.574546158 0.1833744
vt 0.5762711 0.3304429
vt 0.6394231 0.176665187
vt 0.691466033 0.337808073
vt 0.6394231 0.176665187
vt 0.5762711 0.3304429
vt 0.6093797 0.08795047
vt 0.6751012 0.171963751
vt 0.609401464 0.08962643
vt 0.6714909 0.176532447
vt 0.611293256 0.0887211
vt 0.691466033 0.337808073
vt 0.6893403 0.333781719
vt 0.7579239 0.83908236
vt 0.8871435 0.83908236
vt 0.97966367 0.83908236
vt 0.8898992 0.83908236
vt 0.9781982 0.83908236
vt 0.6750339 0.83908236
vt 0.662957847 0.83908236
vt 0.760369658 0.83908236
vt 0.8938521 0.954375565
vt 0.7683188 0.954375565
vt 0.9733324 0.954375565
vt 0.890489459 0.954375565
vt 0.9751447 0.954375565
vt 0.6905688 0.954375565
vt 0.675349653 0.954375565
vt 0.763278365 0.954375565
vt 0.9733324 0.954375565
vt 0.890489459 0.954375565
vt 0.763278365 0.954375565
vt 0.763278365 0.954375565
vt 0.675349653 0.954375565
vt 0.7683188 0.954375565
vt 0.9733324 0.954375565
vt 0.763278365 0.954375565
vt 0.7683188 0.954375565
vt 0.8938521 0.954375565
vt 0.9733324 0.954375565
vt 0.7683188 0.954375565
vt 0.6905688 0.954375565
vt 0.763278365 0.954375565
vt 0.890489459 0.954375565
vt 0.890489459 0.954375565
vt 0.9751447 0.954375565
vt 0.8938521 0.954375565
vt 0.6905688 0.954375565
vt 0.890489459 0.954375565
vt 0.8938521 0.954375565
vt 0.7683188 0.954375565
vt 0.6905688 0.954375565
vt 0.8938521 0.954375565
vt 0.6756642 0.171301842
vt 0.6345906 0.18418318
vt 0.6332032 0.334451079
vt 0.6332032 0.334451079
vt 0.6888933 0.33202213
vt 0.6756642 0.171301842
vt 0.5736673 0.184302986
vt 0.576787949 0.3305977
vt 0.576787949 0.3305977
vt 0.6332032 0.334451079
vt 0.6345906 0.18418318
vt 0.6353061 0.181437671
vt 0.5747034 0.332147479
vt 0.6893403 0.333781719
vt 0.5747034 0.332147479
vt 0.6353061 0.181437671
vt 0.5735382 0.183204234
vt 0.6394231 0.176665187
vt 0.574546158 0.1833744
vt 0.5762711 0.3304429
vt 0.5762711 0.3304429
vt 0.691466033 0.337808073
vt 0.6394231 0.176665187
vt 0.6093797 0.08795047
vt 0.6751012 0.171963751
vt 0.609401464 0.08962643
vt 0.6714909 0.176532447
vt 0.611293256 0.0887211
vt 0.691466033 0.337808073
vt 0.6893403 0.333781719
vt 0.6332032 0.334451079
vt 0.6345906 0.18418318
vt 0.6756642 0.171301842
vt 0.6756642 0.171301842
vt 0.6888933 0.33202213
vt 0.6332032 0.334451079
vt 0.576787949 0.3305977
vt 0.5736673 0.184302986
vt 0.6345906 0.18418318
vt 0.6332032 0.334451079
vt 0.576787949 0.3305977
vt 0.6893403 0.333781719
vt 0.5747034 0.332147479
vt 0.6353061 0.181437671
vt 0.5735382 0.183204234
vt 0.6353061 0.181437671
vt 0.5747034 0.332147479
vt 0.5762711 0.3304429
vt 0.574546158 0.1833744
vt 0.6394231 0.176665187
vt 0.6394231 0.176665187
vt 0.691466033 0.337808073
vt 0.5762711 0.3304429
vt 0.6093797 0.08795047
vt 0.6751012 0.171963751
vt 0.609401464 0.08962643
vt 0.6714909 0.176532447
vt 0.611293256 0.0887211
vt 0.691466033 0.337808073
vt 0.6893403 0.333781719
vn 0.826712966 -0.5517959 -0.109849773
vn 0.870246053 -0.318177521 0.376078337
vn -0.790129244 -0.5328272 0.3029703
vn -0.65625757 -0.7489163 0.09192575
vn -0.747356 -0.559019148 -0.3591053
vn -0.095275864 -0.532134056 -0.841282248
vn 0.712781847 -0.467524827 -0.522840858
vn 0.798551261 -0.58418256 -0.145074591
vn -0.747356 -0.559019148 -0.3591053
vn -0.928549647 0.10166119 -0.357016176
vn -0.116302349 0.2570557 -0.959372759
vn -0.095275864 -0.532134056 -0.841282248
vn -0.04068469 -0.200717032 -0.978804052
vn 0.76570785 -0.128322557 -0.6302577
vn 0.809745252 0.271726072 -0.520074546
vn -0.116302349 0.2570557 -0.959372759
vn -0.8233481 -0.32458517 -0.465555966
vn -0.04068469 -0.200717032 -0.978804052
vn -0.946671844 0.0497434549 0.318336338
vn -0.807516158 -0.428604275 0.405235767
vn 0.942328036 0.332466364 0.03852318
vn 0.7703862 0.627631664 0.112176791
vn 0.826712966 -0.5517959 -0.109849773
vn 0.798551261 -0.58418256 -0.145074591
vn 0.0778847858 0.529873669 0.8444927
vn 0.0591887236 0.890933752 0.450259656
vn -0.946671844 0.0497434549 0.318336338
vn -0.7142038 0.52040565 0.46807152
vn -0.65625757 -0.7489163 0.09192575
vn 0.9586446 -0.284511536 -0.0073270076
vn 0.942328036 0.332466364 0.03852318
vn -0.790129244 -0.5328272 0.3029703
vn -0.65625757 -0.7489163 0.09192575
vn 0.0778847858 0.529873669 0.8444927
vn 0.351495475 -0.2874747 0.89095974
vn 0.712781847 -0.467524827 -0.522840858
vn 0.798551261 -0.58418256 -0.145074591
vn 0.351495475 -0.2874747 0.89095974
vn -0.095275864 -0.532134056 -0.841282248
vn 0.870246053 -0.318177521 0.376078337
vn 0.5135808 0.4135235 0.751819849
vn 0.101427995 0.374869943 0.9215123
vn -0.404642075 0.33484 0.850968242
vn 0.0663161352 -0.80155164 0.5942366
vn -0.7990859 -0.302645326 0.519487739
vn -0.7990859 -0.302645326 0.519487739
vn 0.5135808 0.4135235 0.751819849
vn 0.101427995 0.374869943 0.9215123
vn -0.404642075 0.33484 0.850968242
vn 0.180780858 0.752741456 0.6330076
vn 0.7458607 0.588110566 0.312758416
vn 0.7467697 0.5756193 0.333162785
vn 0.567640841 0.559235454 0.604185045
vn 0.567640841 0.559235454 0.604185045
vn 0.567640841 0.559235454 0.604185045
vn -0.6235636 0.456048757 0.634970844
vn -0.605124831 0.413653016 0.6802317
vn -0.4791581 0.6020014 0.6387502
vn -0.479158074 0.6020014 0.6387502
vn -0.4791581 0.6020014 0.6387502
vn 0.5629769 0.8099332 -0.164515257
vn 0.5629769 0.8099332 -0.164515272
vn 0.5629769 0.8099332 -0.164515272
vn 0.4518148 0.8282689 0.3314122
vn 0.05428238 0.916280448 0.396842033
vn 0.0569514744 0.901062548 0.429933518
vn -0.80296886 0.535015166 0.262678146
vn -0.445951879 0.769732237 0.45677042
vn -0.808753133 0.569172561 0.148192331
vn -0.598546267 0.79684186 -0.08237404
vn -0.598546267 0.7968418 -0.08237404
vn -0.5985463 0.7968418 -0.0823740438
vn 0.152501926 0.7896514 0.594301164
vn 0.5384663 0.755624533 0.372941941
vn 0.791801751 0.607071757 0.06718522
vn -0.5136439 0.6623618 0.5453868
vn -0.08682707 0.88255167 0.462129474
vn -0.07292956 0.936547935 0.342869073
vn 0.7741347 0.63156873 -0.04285345
vn 0.7748245 -0.008104785 -0.6321244
vn 0.943944931 -0.241368636 0.2251869
vn -0.08553854 -0.009031849 -0.9962939
vn -0.8621084 -0.1572151 -0.481718242
vn -0.08553854 -0.009031849 -0.9962939
vn 0.166221976 -0.354571521 0.9201355
vn 0.166221976 -0.354571521 0.9201355
vn -0.7953642 -0.313577741 0.518714547
vn 0.769147456 0.2631114 -0.582395554
vn 0.957725465 0.190728128 0.215371236
vn -0.129732355 0.312837154 -0.9409051
vn -0.905216157 0.19004558 -0.380087316
vn -0.129732355 0.312837154 -0.9409051
vn 0.232013524 0.110091045 0.966462433
vn 0.232013524 0.110091045 0.966462433
vn -0.83160156 0.038166333 0.554059744
vn -0.8224101 -0.548089862 -0.152443588
vn 0.775926948 -0.539241731 0.327346444
vn -0.8856707 -0.321749866 0.334760129
vn 0.650552869 -0.751790762 0.107664295
vn 0.129014641 -0.5213913 -0.843508363
vn 0.76050967 -0.5561068 -0.3352168
vn -0.7928275 -0.580139041 -0.186717033
vn -0.6913614 -0.4588449 -0.5581046
vn 0.76050967 -0.5561068 -0.3352168
vn 0.156579345 0.279732049 -0.9472238
vn 0.9422444 0.109210104 -0.3166207
vn 0.129014641 -0.5213913 -0.843508363
vn 0.08440948 -0.159315035 -0.9836126
vn -0.784983754 0.2878402 -0.548587739
vn -0.735600531 -0.09845441 -0.670222759
vn 0.156579345 0.279732049 -0.9472238
vn 0.08440948 -0.159315035 -0.9836126
vn 0.8423269 -0.307955772 -0.442321956
vn 0.7883651 -0.44805792 0.4215739
vn 0.933322132 0.0394115932 0.356870383
vn -0.942723036 0.33356148 0.00315857027
vn -0.8224101 -0.548089862 -0.152443588
vn -0.7732718 0.627703965 0.08965722
vn -0.7928275 -0.580139041 -0.186717033
vn -0.11674919 0.5076857 0.853595257
vn -0.07626154 0.8841559 0.4609256
vn 0.695069134 0.51154995 0.5051688
vn 0.933322132 0.0394115932 0.356870383
vn 0.650552869 -0.751790762 0.107664295
vn -0.958130836 -0.278811753 -0.06518647
vn -0.942723036 0.33356148 0.00315857027
vn 0.775926948 -0.539241731 0.327346444
vn 0.650552869 -0.751790762 0.107664295
vn -0.11674919 0.5076857 0.853595257
vn -0.3945839 -0.31727317 0.862346351
vn -0.6913614 -0.4588449 -0.5581046
vn -0.7928275 -0.580139041 -0.186717033
vn -0.3945839 -0.31727317 0.862346351
vn 0.129014641 -0.5213913 -0.843508363
vn -0.8856707 -0.321749866 0.334760129
vn -0.5436255 0.40332368 0.7360715
vn -0.138942391 0.361120731 0.922109962
vn 0.369548857 0.320950657 0.8720231
vn 0.77629143 -0.312386066 0.54752773
vn -0.09234642 -0.810293257 0.5787028
vn 0.77629143 -0.312386066 0.54752773
vn 0.369548857 0.320950657 0.8720231
vn -0.138942391 0.361120731 0.922109962
vn -0.5436255 0.40332368 0.7360715
vn -0.205581844 0.743504465 0.636346757
vn -0.7589436 0.572296143 0.3106151
vn -0.7571661 0.585092545 0.290458679
vn -0.591251969 0.551383138 0.588555634
vn -0.591251969 0.551383138 0.588555634
vn -0.591251969 0.5513832 0.588555634
vn 0.5974637 0.444891453 0.6671647
vn 0.5770868 0.4018597 0.7109709
vn 0.4532842 0.5911147 0.667170763
vn 0.453284174 0.591114759 0.667170763
vn 0.453284174 0.591114759 0.6671707
vn -0.5542316 0.8136757 -0.175382927
vn -0.5542316 0.8136757 -0.175382942
vn -0.5542316 0.8136757 -0.175382927
vn -0.463724822 0.824237049 0.324950069
vn -0.0731663257 0.8945856 0.44086653
vn -0.0690987259 0.910296 0.4081501
vn 0.792311 0.5290556 0.303880632
vn 0.802904069 0.564928055 0.19026649
vn 0.427958 0.761660933 0.486543477
vn 0.6028545 0.796562433 -0.0453296863
vn 0.6028545 0.796562433 -0.0453296863
vn 0.6028545 0.796562433 -0.0453296863
vn -0.175654784 0.780928135 0.5994136
vn -0.7928357 0.6078804 0.0435080864
vn -0.55215317 0.7511805 0.3617384
vn 0.06912081 0.8752457 0.4787142
vn 0.4917223 0.652799964 0.5762477
vn 0.0602825 0.931074 0.359815449
vn -0.77057153 0.6339978 -0.06531729
vn -0.9538571 -0.246978968 0.17075707
vn -0.7450843 0.023828283 -0.666544557
vn 0.1310468 0.0353858136 -0.9907445
vn 0.8828727 -0.1392935 -0.448478669
vn 0.1310468 0.0353858136 -0.9907445
vn -0.209052578 -0.394828945 0.894654751
vn -0.209052578 -0.394828945 0.894654751
vn 0.770004 -0.340176 0.539790869
vn -0.741023 0.29250586 -0.604421437
vn -0.9661105 0.185180128 0.179829717
vn 0.173449814 0.354235679 -0.918929935
vn 0.9221358 0.202847973 -0.3294212
vn 0.173449814 0.354235679 -0.918929935
vn -0.275753051 0.067573674 0.9588504
vn -0.275753051 0.067573674 0.9588504
vn 0.805450141 0.009455774 0.592588067
vn -0.146681771 0.988002956 0.0483174734
vn -0.146681771 0.988002956 0.0483174734
vn -0.146681771 0.988002956 0.0483174734
vn 0.000186028265 0.9967956 0.0799910352
vn 0.000186028265 0.9967956 0.0799910352
vn 0.000186028265 0.9967956 0.0799910352
vn 0.008049921 0.993772 0.111141548
vn 0.008049921 0.993772 0.111141548
vn 0.008049921 0.993772 0.111141548
vn 0.0229570121 0.9947965 0.09926152
vn 0.0229570121 0.9947965 0.09926152
vn 0.0229570121 0.9947965 0.09926152
vn -0.0103238849 0.9952262 0.09704729
vn -0.0103238849 0.9952262 0.09704729
vn -0.0103238849 0.9952262 0.09704729
vn 0.0178039744 0.972070336 0.234013483
vn 0.0178039744 0.972070336 0.234013483
vn 0.0178039744 0.972070336 0.234013483
vn 0.0352027379 0.9909079 0.129854739
vn 0.0352027379 0.9909079 0.129854739
vn 0.0352027379 0.9909079 0.129854739
vn -0.0251768976 0.9894242 0.142848909
vn -0.0251768976 0.9894242 0.142848909
vn -0.0251768976 0.9894242 0.142848909
vn -0.7458607 -0.588110566 -0.312758416
vn -0.180780858 -0.752741456 -0.6330076
vn -0.7467697 -0.5756193 -0.333162785
vn -0.567640841 -0.559235454 -0.604185045
vn -0.567640841 -0.559235454 -0.604185045
vn -0.567640841 -0.559235454 -0.604185045
vn 0.6235636 -0.456048757 -0.634970844
vn 0.605124831 -0.413653016 -0.6802317
vn 0.479158074 -0.6020014 -0.6387502
vn 0.4791581 -0.6020014 -0.6387502
vn 0.4791581 -0.6020014 -0.6387502
vn -0.5629769 -0.8099332 0.164515272
vn -0.5629769 -0.8099332 0.164515257
vn -0.5629769 -0.8099332 0.164515272
vn -0.05428238 -0.916280448 -0.396842033
vn -0.4518148 -0.8282689 -0.3314122
vn -0.0569514744 -0.901062548 -0.429933518
vn 0.445951879 -0.769732237 -0.45677042
vn 0.80296886 -0.535015166 -0.262678146
vn 0.808753133 -0.569172561 -0.148192331
vn 0.598546267 -0.7968418 0.08237404
vn 0.598546267 -0.79684186 0.08237404
vn 0.5985463 -0.7968418 0.0823740438
vn -0.152501926 -0.7896514 -0.594301164
vn -0.791801751 -0.607071757 -0.06718522
vn -0.5384663 -0.755624533 -0.372941941
vn 0.08682707 -0.88255167 -0.462129474
vn 0.5136439 -0.6623618 -0.5453868
vn 0.07292956 -0.936547935 -0.342869073
vn -0.7741347 -0.63156873 0.04285345
vn 0.7589436 -0.572296143 -0.3106151
vn 0.205581844 -0.743504465 -0.636346757
vn 0.7571661 -0.585092545 -0.290458679
vn 0.591251969 -0.551383138 -0.588555634
vn 0.591251969 -0.551383138 -0.588555634
vn 0.591251969 -0.5513832 -0.588555634
vn -0.5770868 -0.4018597 -0.7109709
vn -0.5974637 -0.444891453 -0.6671647
vn -0.453284174 -0.591114759 -0.667170763
vn -0.4532842 -0.5911147 -0.667170763
vn -0.453284174 -0.591114759 -0.6671707
vn 0.5542316 -0.8136757 0.175382942
vn 0.5542316 -0.8136757 0.175382927
vn 0.5542316 -0.8136757 0.175382927
vn 0.0731663257 -0.8945856 -0.44086653
vn 0.463724822 -0.824237049 -0.324950069
vn 0.0690987259 -0.910296 -0.4081501
vn -0.802904069 -0.564928055 -0.19026649
vn -0.792311 -0.5290556 -0.303880632
vn -0.427958 -0.761660933 -0.486543477
vn -0.6028545 -0.796562433 0.0453296863
vn -0.6028545 -0.796562433 0.0453296863
vn -0.6028545 -0.796562433 0.0453296863
vn 0.175654784 -0.780928135 -0.5994136
vn 0.7928357 -0.6078804 -0.0435080864
vn 0.55215317 -0.7511805 -0.3617384
vn -0.06912081 -0.8752457 -0.4787142
vn -0.4917223 -0.652799964 -0.5762477
vn -0.0602825 -0.931074 -0.359815449
vn 0.77057153 -0.6339978 0.06531729
usemtl PaulDaBes2_part_0_material_0
f 1/1/1 2/2/2 3/3/3
f 1/1/1 3/3/3 4/4/4
f 4/4/4 5/5/5 6/6/6
f 6/6/6 7/7/7 8/8/8
f 4/4/4 6/6/6 8/8/8
f 1/1/1 4/4/4 8/8/8
f 9/9/9 10/10/10 11/11/11
f 11/11/11 12/12/12 9/9/9
f 13/13/13 14/14/14 15/15/15
f 15/15/15 16/16/16 13/13/13
f 10/10/10 17/17/17 18/18/18
f 18/18/18 11/11/11 10/10/10
f 10/10/10 19/19/19 20/20/20
f 20/20/20 17/17/17 10/10/10
f 21/21/21 22/22/22 23/23/23
f 23/23/23 24/24/24 21/21/21
f 25/25/25 26/26/26 22/22/22
f 22/22/22 21/21/21 25/25/25
f 25/25/25 27/27/27 28/28/28
f 28/28/28 26/26/26 25/25/25
f 19/19/19 9/9/9 29/29/29
f 9/9/9 19/19/19 10/10/10
f 30/30/30 31/31/31 15/15/15
f 27/27/27 32/32/32 28/28/28
f 32/32/32 27/27/27 33/33/33
f 30/30/30 34/34/34 31/31/31
f 34/34/34 30/30/30 35/35/35
f 36/36/36 15/15/15 37/37/37
f 31/31/31 37/37/37 15/15/15
f 20/20/20 34/34/34 38/38/38
f 34/34/34 20/20/20 19/19/19
f 36/36/36 39/39/39 16/16/16
f 16/16/16 15/15/15 36/36/36
f 40/40/40 23/23/23 22/22/22
f 41/41/41 22/22/22 42/42/42
f 42/42/42 28/28/28 43/43/43
f 42/42/42 26/26/26 28/28/28
f 26/26/26 42/42/42 22/22/22
f 44/44/44 45/45/45 3/3/3
f 3/3/3 2/2/2 44/44/44
f 32/32/32 46/46/46 43/43/43
f 43/43/43 28/28/28 32/32/32
f 40/40/40 22/22/22 41/41/41
f 44/44/44 2/2/2 47/47/47
f 47/47/47 48/48/48 49/49/49
f 44/44/44 47/47/47 49/49/49
f 44/44/44 49/49/49 45/45/45
f 50/50/50 51/51/51 52/52/52
f 53/53/53 54/54/54 55/55/55
f 56/56/56 50/50/50 57/57/57
f 58/58/58 59/59/59 60/60/60
f 61/61/61 62/62/62 63/63/63
f 64/64/64 65/65/65 66/66/66
f 67/67/67 68/68/68 69/69/69
f 70/70/70 71/71/71 72/72/72
f 51/51/51 50/50/50 73/73/73
f 50/50/50 56/56/56 73/73/73
f 74/74/74 75/75/75 64/64/64
f 64/64/64 66/66/66 74/74/74
f 76/76/76 77/77/77 68/68/68
f 68/68/68 67/67/67 76/76/76
f 68/68/68 77/77/77 78/78/78
f 64/64/64 75/75/75 79/79/79
f 80/80/80 81/81/81 30/30/30
f 30/30/30 14/14/14 80/80/80
f 82/82/82 80/80/80 14/14/14
f 14/14/14 13/13/13 82/82/82
f 18/18/18 17/17/17 83/83/83
f 83/83/83 84/84/84 18/18/18
f 35/35/35 30/30/30 81/81/81
f 81/81/81 85/85/85 35/35/35
f 20/20/20 38/38/38 86/86/86
f 86/86/86 87/87/87 20/20/20
f 81/81/81 80/80/80 88/88/88
f 88/88/88 89/89/89 81/81/81
f 90/90/90 88/88/88 80/80/80
f 80/80/80 82/82/82 90/90/90
f 84/84/84 83/83/83 91/91/91
f 91/91/91 92/92/92 84/84/84
f 85/85/85 81/81/81 89/89/89
f 89/89/89 93/93/93 85/85/85
f 87/87/87 86/86/86 94/94/94
f 94/94/94 95/95/95 87/87/87
f 17/17/17 20/20/20 87/87/87
f 87/87/87 83/83/83 17/17/17
f 83/83/83 87/87/87 95/95/95
f 95/95/95 91/91/91 83/83/83
f 14/14/14 30/30/30 15/15/15
f 96/96/96 97/97/97 98/98/98
f 96/96/96 99/99/99 97/97/97
f 99/99/99 100/100/100 101/101/101
f 100/100/100 102/102/102 103/103/103
f 99/99/99 102/102/102 100/100/100
f 96/96/96 102/102/102 99/99/99
f 104/104/104 105/105/105 106/106/106
f 105/105/105 104/104/104 107/107/107
f 108/108/108 109/109/109 110/110/110
f 109/109/109 108/108/108 111/111/111
f 106/106/106 112/112/112 113/113/113
f 112/112/112 106/106/106 105/105/105
f 106/106/106 114/114/114 115/115/115
f 114/114/114 106/106/106 113/113/113
f 116/116/116 117/117/117 118/118/118
f 117/117/117 116/116/116 119/119/119
f 120/120/120 118/118/118 121/121/121
f 118/118/118 120/120/120 116/116/116
f 120/120/120 122/122/122 123/123/123
f 122/122/122 120/120/120 121/121/121
f 115/115/115 124/124/124 104/104/104
f 104/104/104 106/106/106 115/115/115
f 125/125/125 109/109/109 126/126/126
f 123/123/123 122/122/122 127/127/127
f 127/127/127 128/128/128 123/123/123
f 125/125/125 126/126/126 129/129/129
f 129/129/129 130/130/130 125/125/125
f 131/131/131 132/132/132 109/109/109
f 126/126/126 109/109/109 132/132/132
f 114/114/114 133/133/133 129/129/129
f 129/129/129 115/115/115 114/114/114
f 131/131/131 111/111/111 134/134/134
f 111/111/111 131/131/131 109/109/109
f 135/135/135 118/118/118 117/117/117
f 136/136/136 137/137/137 118/118/118
f 137/137/137 138/138/138 122/122/122
f 137/137/137 122/122/122 121/121/121
f 121/121/121 118/118/118 137/137/137
f 97/97/97 139/139/139 140/140/140
f 140/140/140 98/98/98 97/97/97
f 138/138/138 141/141/141 127/127/127
f 127/127/127 122/122/122 138/138/138
f 135/135/135 136/136/136 118/118/118
f 140/140/140 139/139/139 142/142/142
f 142/142/142 143/143/143 144/144/144
f 140/140/140 142/142/142 144/144/144
f 140/140/140 144/144/144 98/98/98
f 145/145/145 146/146/146 147/147/147
f 148/148/148 149/149/149 150/150/150
f 151/151/151 152/152/152 145/145/145
f 153/153/153 154/154/154 155/155/155
f 156/156/156 157/157/157 158/158/158
f 159/159/159 160/160/160 161/161/161
f 162/162/162 163/163/163 164/164/164
f 165/165/165 166/166/166 167/167/167
f 147/147/147 168/168/168 145/145/145
f 145/145/145 168/168/168 151/151/151
f 159/159/159 169/169/169 170/170/170
f 170/170/170 160/160/160 159/159/159
f 164/164/164 171/171/171 172/172/172
f 172/172/172 162/162/162 164/164/164
f 164/164/164 173/173/173 171/171/171
f 159/159/159 174/174/174 169/169/169
f 125/125/125 175/175/175 176/176/176
f 176/176/176 110/110/110 125/125/125
f 110/110/110 176/176/176 177/177/177
f 177/177/177 108/108/108 110/110/110
f 178/178/178 113/113/113 112/112/112
f 112/112/112 179/179/179 178/178/178
f 175/175/175 125/125/125 130/130/130
f 130/130/130 180/180/180 175/175/175
f 181/181/181 133/133/133 114/114/114
f 114/114/114 182/182/182 181/181/181
f 183/183/183 176/176/176 175/175/175
f 175/175/175 184/184/184 183/183/183
f 176/176/176 183/183/183 185/185/185
f 185/185/185 177/177/177 176/176/176
f 186/186/186 178/178/178 179/179/179
f 179/179/179 187/187/187 186/186/186
f 184/184/184 175/175/175 180/180/180
f 180/180/180 188/188/188 184/184/184
f 189/189/189 181/181/181 182/182/182
f 182/182/182 190/190/190 189/189/189
f 182/182/182 114/114/114 113/113/113
f 113/113/113 178/178/178 182/182/182
f 190/190/190 182/182/182 178/178/178
f 178/178/178 186/186/186 190/190/190
f 110/110/110 109/109/109 125/125/125
f 191/191/191 192/192/192 193/193/193
f 194/194/194 195/195/195 196/196/196
f 197/197/197 198/198/198 199/199/199
f 200/200/200 201/201/201 202/202/202
f 203/203/203 204/204/204 205/205/205
f 206/206/206 207/207/207 208/208/208
f 209/209/209 210/210/210 211/211/211
f 212/212/212 213/213/213 214/214/214
f 215/215/215 216/216/216 217/217/217
f 218/218/218 219/219/219 220/220/220
f 216/216/216 221/221/221 222/222/222
f 223/223/223 224/224/224 225/225/225
f 226/226/226 227/227/227 228/228/228
f 229/229/229 230/230/230 231/231/231
f 232/232/232 233/233/233 234/234/234
f 235/235/235 236/236/236 237/237/237
f 216/216/216 215/215/215 238/238/238
f 221/221/221 216/216/216 238/238/238
f 239/239/239 240/240/240 230/230/230
f 231/231/231 230/230/230 240/240/240
f 241/241/241 242/242/242 232/232/232
f 233/233/233 232/232/232 242/242/242
f 241/241/241 232/232/232 243/243/243
f 239/239/239 230/230/230 244/244/244
f 245/245/245 246/246/246 247/247/247
f 248/248/248 249/249/249 250/250/250
f 251/251/251 252/252/252 246/246/246
f 253/253/253 254/254/254 255/255/255
f 256/256/256 257/257/257 258/258/258
f 259/259/259 260/260/260 261/261/261
f 262/262/262 263/263/263 264/264/264
f 265/265/265 266/266/266 267/267/267
f 268/268/268 247/247/247 246/246/246
f 268/268/268 246/246/246 252/252/252
f 269/269/269 260/260/260 270/270/270
f 259/259/259 270/270/270 260/260/260
f 271/271/271 264/264/264 272/272/272
f 263/263/263 272/272/272 264/264/264
f 273/273/273 264/264/264 271/271/271
f 274/274/274 260/260/260 269/269/269
