mtllib yukiomou44.mtl
o yukiomou44_part_0
v 0.231021225 2.012545 -0.0009550005
v 0.200967133 1.98680043 -0.131174788
v 0.233201742 2.05280566 -0.00666286051
v 0.09398798 1.98609829 -0.20783259
v 0.122360766 2.07328272 -0.221372977
v 0.209185153 2.079541 -0.144602343
v -0.04004424 2.0090158 -0.220903441
v -0.0362729356 2.09758377 -0.233969823
v -0.1659793 2.05149317 -0.151769981
v -0.126693875 2.13682246 -0.172140881
v -0.0362729356 2.09758377 -0.233969823
v -0.04004424 2.0090158 -0.220903441
v -0.17665264 2.12353516 -0.0400197953
v -0.163490355 2.17212439 -0.05502267
v -0.184127033 2.0893352 -0.0385140032
v -0.159410626 2.13616967 0.09407572
v -0.06629916 2.15592837 0.183443978
v -0.04111675 2.229974 0.167593852
v -0.164114684 2.21057558 0.0823782757
v 0.019390583 2.15064526 0.191764146
v 0.0348475873 2.221026 0.1727019
v 0.197427064 2.075855 0.1227213
v 0.231713623 2.15548158 0.112269059
v 0.110112771 2.20908642 0.1789514
v 0.102232665 2.13036156 0.19645378
v 0.235498309 2.09967351 -0.0209207237
v 0.2280887 2.07227015 -0.169609234
v 0.293306381 2.11366057 -0.0227601826
v 0.135295451 2.07102871 -0.268074453
v -0.03935167 2.09852624 -0.2817949
v -0.141817361 2.13606024 -0.199341848
v -0.03935167 2.09852624 -0.2817949
v -0.208687037 2.197668 -0.06580733
v -0.124542914 2.262259 0.09028906
v -0.135331631 2.33722687 0.06289633
v -0.0206746235 2.28250265 0.169524312
v -0.03472801 2.38256621 0.172170579
v 0.156977326 2.350903 0.18783626
v 0.061421603 2.38912559 0.209592178
v 0.0423717648 2.28128266 0.1842365
v 0.103798188 2.26173425 0.179376066
v 0.242412508 2.27539468 0.08393766
v 0.205556065 2.20698428 0.115401462
v 0.300841719 2.16443515 -0.04688467
v 0.256490678 2.10989666 -0.215886638
v 0.051897794 2.16854715 -0.144693032
v 0.133354515 2.1014483 -0.306296825
v -0.02148975 2.124899 -0.3180809
v -0.1477341 2.17866731 -0.247398183
v -0.198807627 2.24944043 -0.0858350843
v -0.135331631 2.33722687 0.06289633
v -0.03472801 2.38256621 0.172170579
v -0.005200036 2.31776547 0.0677305162
v 0.061421603 2.38912559 0.209592178
v 0.05787699 2.313027 0.0718641058
v 0.156977326 2.350903 0.18783626
v 0.242412508 2.27539468 0.08393766
v 0.11986734 2.296377 0.07701309
v -0.07687766 2.11459279 0.263938457
v 0.00373657048 2.10894227 0.296215236
v 0.019390583 2.15064526 0.191764146
v -0.06629916 2.15592837 0.183443978
v -0.17674306 2.10201383 0.103383958
v -0.159410626 2.13616967 0.09407572
v -0.184127033 2.0893352 -0.0385140032
v -0.142605245 2.108008 0.179679438
v 0.0961252749 2.084314 0.277401447
v 0.102232665 2.13036156 0.19645378
v 0.212145627 2.03371167 0.133584157
v 0.231021225 2.012545 -0.0009550005
v 0.197427064 2.075855 0.1227213
v 0.1715306 2.052783 0.204145119
v 0.256490678 2.10989666 -0.215886638
v 0.300841719 2.16443515 -0.04688467
v 0.133354515 2.1014483 -0.306296825
v -0.02148975 2.124899 -0.3180809
v -0.1477341 2.17866731 -0.247398183
v -0.02148975 2.124899 -0.3180809
v -0.198807627 2.24944043 -0.0858350843
v -0.115027644 2.06523323 -0.171403959
v -0.120822407 2.126539 -0.139023051
v 0.01074729 2.117616 -0.206580088
v 0.0105530377 2.06412435 -0.209586367
v -0.16534552 2.03638053 -0.108008429
v -0.131339014 1.93249106 -0.09855811
v -0.164118558 1.93965471 -0.0272227526
v -0.190422177 2.01270151 -0.04216391
v -0.08634832 1.92939746 -0.148545548
v -0.159838259 2.13356018 -0.02787146
v -0.111533858 1.94244874 0.0106194615
v -0.0846830159 1.88138771 -0.0108880848
v -0.048552908 1.93653953 -0.168167666
v 0.0107014 1.97853422 -0.197085127
v -0.132688314 2.007829 0.0429847762
v -0.134513944 2.14149165 0.08518804
v 0.0115204714 1.866634 -0.157174036
v -0.04370017 1.89042616 -0.142807975
v -0.08353645 1.873311 -0.108167782
v -0.104763448 1.84197271 -0.0411478132
v 0.142931432 2.06468081 -0.178246245
v 0.145750284 2.12596822 -0.1460938
v 0.195751429 2.0289526 -0.117029652
v 0.206198663 2.02532172 -0.053811
v 0.194112152 1.93888783 -0.0367247462
v 0.157566875 1.93187261 -0.106221274
v 0.109976716 1.92897725 -0.153753087
v 0.205451965 2.132778 -0.03756067
v 0.143619984 1.94190252 0.00385157764
v 0.115405686 1.88095939 -0.0161953717
v 0.07122511 1.936283 -0.171344742
v 0.171372026 2.14083672 0.07707448
v 0.166739911 2.00718784 0.0350425541
v 0.0675263256 1.890188 -0.145758256
v 0.109069347 1.87289858 -0.113276586
v 0.133684978 1.84146214 -0.04747258
v 0.01190945 1.82487965 -0.139185175
v 0.0119311968 1.82847738 -0.138655975
v 0.08318223 1.83134639 -0.118271008
v 0.0391681641 1.78031206 -0.138338014
v 0.14868 1.97999489 -0.115812019
v 0.127390251 1.829202 -0.0488067567
v 0.0968047157 1.78256619 -0.05960338
v 0.191855192 1.99202871 0.002752751
v 0.11009641 1.83883774 0.00461129844
v 0.0874782 1.78770661 -0.0106868744
v 0.0109060816 1.97286844 -0.188957378
v -0.0154564641 1.780429 -0.1368892
v -0.05780404 1.8316474 -0.114541814
v -0.09850128 1.82968557 -0.04281503
v -0.1224818 1.98057532 -0.108619496
v -0.06882823 1.78292072 -0.0552099943
v -0.15957588 1.99278092 0.0120743215
v -0.07838615 1.83924127 0.009610727
v -0.0568734258 1.78801572 -0.00685797632
v -0.13720277 2.18046284 0.0677570552
v -0.149229467 2.17688465 0.00872238
v -0.160828233 2.11086369 0.0136344731
v -0.152068287 2.11754322 0.08865327
v -0.149712265 2.031409 0.0215983838
v -0.149791628 2.03445649 0.06351041
v -0.10119573 2.12366247 0.143849522
v -0.08882625 2.18576765 0.1318129
v -0.1147803 2.05846786 0.122707576
v 0.0454723164 2.130686 0.190434471
v 0.04570103 2.18814516 0.163716689
v -0.0245944485 2.188138 0.162644014
v -0.0131655745 2.12763834 0.1879353
v -0.06621451 2.12820745 0.166793153
v -0.0750001147 2.06179118 0.151942223
v -0.130240977 2.03694463 0.102342166
v -0.115983926 1.96517 0.0654459149
v 0.06277734 2.06222773 0.1816005
v -0.123549677 1.89946926 0.0462471843
v -0.03167156 2.08959365 0.1755665
v -0.002467338 2.07771158 0.175866976
v 0.168799043 2.17980766 0.0596404523
v 0.188981652 2.13111115 0.07841091
v 0.1937249 2.11010456 0.004230052
v 0.182164609 2.17617536 -6.775558E-05
v 0.182706952 2.03069735 0.0127810389
v 0.185020924 2.03373957 0.05462961
v 0.122329555 2.18611646 0.135785058
v 0.150361061 2.123124 0.13717705
v 0.153300017 2.05789375 0.115596846
v 0.107478768 2.127962 0.163701
v 0.115136288 2.061372 0.146755114
v 0.1675672 2.036307 0.09444287
v 0.151067287 1.96459818 0.0583624542
v 0.04570103 2.18814516 0.163716689
v 0.0454723164 2.130686 0.190434471
v 0.157323509 1.898868 0.0387971029
v 0.06277734 2.06222773 0.1816005
vt 0.5464516 0.01826948
vt 0.371828675 0.01826948
vt 0.5464516 0.06463832
vt 0.197205245 0.01710856
vt 0.197205245 0.1252228
vt 0.371828675 0.1263839
vt 0.0225817934 0.01710856
vt 0.0225817934 0.1252228
vt 0.370638669 0.01826948
vt 0.370638669 0.1263839
vt 0.194521666 0.1263839
vt 0.194521666 0.01826948
vt 0.546755552 0.061121583
vt 0.546755552 0.1263839
vt 0.546755552 0.01826948
vt 0.7215207 0.01826948
vt 0.8969614 0.01826948
vt 0.8969614 0.1448121
vt 0.7215207 0.1263839
vt 0.9850201 0.01826948
vt 0.9850201 0.150077283
vt 0.7224148 0.01826948
vt 0.7224148 0.1263839
vt 0.8977084 0.1448121
vt 0.8977084 0.01826948
vt 0.5464516 0.1263839
vt 0.371828675 0.180441022
vt 0.5464516 0.180441022
vt 0.197205245 0.179860473
vt 0.0225817934 0.179860473
vt 0.370638669 0.180441022
vt 0.194521666 0.180441022
vt 0.546755552 0.180441022
vt 0.7215207 0.2086829
vt 0.7215207 0.277818918
vt 0.8969614 0.232331276
vt 0.8969614 0.3435439
vt 0.8977084 0.3435439
vt 0.9850201 0.35407424
vt 0.9850201 0.240229011
vt 0.8977084 0.232331276
vt 0.7224148 0.277818918
vt 0.7224148 0.2086829
vt 0.756180346 0.6647894
vt 0.644442856 0.6318311
vt 0.7050678 0.501482368
vt 0.592031538 0.5496525
vt 0.594278038 0.449120343
vt 0.6519479 0.368837535
vt 0.765457153 0.3397115
vt 0.874295 0.386283755
vt 0.9495979 0.446635
vt 0.873417437 0.466465831
vt 0.9719079 0.5093571
vt 0.8734389 0.507056832
vt 0.9467159 0.571332157
vt 0.866787255 0.6267416
vt 0.870795548 0.547820151
vt 0.44426167 0.5640543
vt 0.4247405 0.490963578
vt 0.546333253 0.489568949
vt 0.5536675 0.545019
vt 0.562623262 0.6646079
vt 0.606414 0.638965
vt 0.6678814 0.6981231
vt 0.497970283 0.6285943
vt 0.443452656 0.417052984
vt 0.553010643 0.434167147
vt 0.5629687 0.3182894
vt 0.6679389 0.2846954
vt 0.6068639 0.345260978
vt 0.497756183 0.3540697
vt 0.371828675 0.234498143
vt 0.5464516 0.234498143
vt 0.197205245 0.234498143
vt 0.0225817934 0.234498143
vt 0.370638669 0.234498143
vt 0.194521666 0.234498143
vt 0.546755552 0.234498143
vt 0.198466256 0.8826177
vt 0.22659944 0.963463
vt 0.0275301877 0.95313096
vt 0.02402172 0.8792255
vt 0.318518281 0.8448153
vt 0.281700462 0.6978328
vt 0.385836422 0.705497742
vt 0.399637669 0.829440653
vt 0.1884681 0.695630431
vt 0.408523858 0.9645926
vt 0.461380482 0.6847903
vt 0.4367656 0.5944713
vt 0.127883971 0.703329265
vt 0.03261602 0.759138942
vt 0.5061776 0.784583032
vt 0.5634641 0.9686594
vt 0.0593034849 0.6010451
vt 0.141755953 0.634040236
vt 0.226717964 0.611690164
vt 0.341300875 0.594939
vt 0.198466256 0.8826177
vt 0.22659944 0.963463
vt 0.318518281 0.8448153
vt 0.399637669 0.829440653
vt 0.385836422 0.705497742
vt 0.281700462 0.6978328
vt 0.1884681 0.695630431
vt 0.408523858 0.9645926
vt 0.461380482 0.6847903
vt 0.4367656 0.5944713
vt 0.127883971 0.703329265
vt 0.5634641 0.9686594
vt 0.5061776 0.784583032
vt 0.141755953 0.634040236
vt 0.226717964 0.611690164
vt 0.341300875 0.594939
vt 0.06543705 0.394722462
vt 0.06530318 0.402302146
vt 0.162805825 0.412337661
vt 0.104990989 0.306036174
vt 0.220643491 0.542128444
vt 0.2873293 0.3985834
vt 0.216194838 0.307778418
vt 0.3810551 0.5352409
vt 0.35761258 0.3897488
vt 0.3205683 0.283968449
vt 0.05654779 0.5312722
vt 0.104990989 0.306036174
vt 0.162805825 0.412337661
vt 0.2873293 0.3985834
vt 0.220643491 0.542128444
vt 0.216194838 0.307778418
vt 0.3810551 0.5352409
vt 0.35761258 0.3897488
vt 0.3205683 0.283968449
vt 0.842187166 0.9184219
vt 0.9200805 0.950000048
vt 0.945720851 0.8857955
vt 0.8597357 0.8538562
vt 0.96554786 0.77258414
vt 0.9101672 0.7604206
vt 0.7739278 0.8394647
vt 0.7492743 0.9063508
vt 0.8158822 0.7862445
vt 0.5957876 0.8847865
vt 0.633392036 0.9363633
vt 0.683183968 0.9164758
vt 0.6516993 0.854943335
vt 0.7248691 0.8431131
vt 0.747895837 0.7663338
vt 0.8584756 0.7637576
vt 0.8826129 0.68460995
vt 0.5582018 0.8334568
vt 0.959541559 0.6320801
vt 0.675337553 0.8114978
vt 0.639653 0.793057263
vt 0.842187166 0.9184219
vt 0.8597357 0.8538562
vt 0.945720851 0.8857955
vt 0.9200805 0.950000048
vt 0.96554786 0.77258414
vt 0.9101672 0.7604206
vt 0.7492743 0.9063508
vt 0.7739278 0.8394647
vt 0.8158822 0.7862445
vt 0.7248691 0.8431131
vt 0.747895837 0.7663338
vt 0.8584756 0.7637576
vt 0.8826129 0.68460995
vt 0.683183968 0.9164758
vt 0.6516993 0.854943335
vt 0.959541559 0.6320801
vt 0.639653 0.793057263
vn 0.9998934 -0.0125981309 0.007391174
vn 0.8276478 -0.148299828 -0.541300535
vn 0.9980399 -0.0428034477 0.0456552356
vn 0.329175919 -0.219335437 -0.918441832
vn 0.162966847 -0.865277052 -0.474065036
vn 0.49435848 -0.8598905 -0.127272189
vn -0.202996626 -0.1392582 -0.96922636
vn -0.345352083 -0.753816843 -0.5590099
vn -0.785116732 0.173184767 -0.5946417
vn -0.7551086 -0.61117357 -0.23722975
vn -0.345352083 -0.753816843 -0.5590099
vn -0.202996626 -0.1392582 -0.96922636
vn -0.9675254 0.239914 -0.07959805
vn -0.898898661 -0.437765867 0.0185002144
vn -0.9697876 0.230237827 -0.08063827
vn -0.8810307 0.288315952 0.375045449
vn -0.3804375 0.6356454 0.6717308
vn -0.351630777 0.216832489 0.9106809
vn -0.8759528 0.238723621 0.419187
vn 0.0384912975 0.6277885 0.7774317
vn -0.06623491 0.06987096 0.9953547
vn 0.8524308 0.132240131 0.5058401
vn 0.8216148 0.0159361064 0.5698203
vn 0.2915565 0.09478344 0.951846063
vn 0.456758 0.5211496 0.7209544
vn 0.7508265 -0.6412788 0.1581806
vn 0.3766036 -0.9262255 -0.0166167822
vn 0.799933732 -0.5568158 0.223746315
vn 0.12227533 -0.9241037 -0.362051278
vn -0.358717442 -0.8426961 -0.401478648
vn -0.6661229 -0.7379879 -0.107954577
vn -0.358717442 -0.8426961 -0.401478648
vn -0.948588431 -0.309431881 0.0665727
vn -0.737445 0.265789866 0.6209111
vn -0.8094686 0.0378975533 0.5859389
vn -0.402765781 -0.007355076 0.915273547
vn -0.509707034 -0.12342117 0.8514493
vn 0.3280194 -0.309929222 0.89238286
vn -0.112262793 -0.208594233 0.9715377
vn -0.108542919 -0.159136072 0.9812718
vn 0.239180908 -0.120561711 0.963461161
vn 0.7093809 -0.165467709 0.6851271
vn 0.6888081 0.121366955 0.714712262
vn 0.203213274 0.852631569 -0.481376976
vn 0.153968677 0.9327623 -0.3259572
vn 0.1805909 0.891878247 -0.4146566
vn 0.163305655 0.937599659 -0.306982368
vn 0.191197708 0.9296494 -0.314953357
vn 0.215642959 0.9195413 -0.328545451
vn 0.169824958 0.8670798 -0.468329042
vn 0.142862037 0.837407053 -0.527579248
vn 0.130205587 0.8624757 -0.4890628
vn 0.121468611 0.84291774 -0.524151742
vn 0.184230223 0.85548234 -0.483951628
vn 0.183927119 0.8361805 -0.516694248
vn 0.207417756 0.84846735 -0.486909717
vn 0.194966614 0.8268278 -0.527582943
vn 0.21473147 0.8339332 -0.5083757
vn -0.206681043 0.8971172 0.390465945
vn 0.11996901 0.915684462 0.3835745
vn 0.0384912975 0.6277885 0.7774317
vn -0.3804375 0.6356454 0.6717308
vn -0.7851026 0.5700382 0.242219687
vn -0.8810307 0.288315952 0.375045449
vn -0.9697876 0.230237827 -0.08063827
vn -0.526049137 0.8199088 0.225880682
vn 0.425275624 0.7924903 0.4371496
vn 0.456758 0.5211496 0.7209544
vn 0.855650961 0.444860637 0.26450032
vn 0.9998934 -0.0125981309 0.007391174
vn 0.8524308 0.132240131 0.5058401
vn 0.6998896 0.6537148 0.2877699
vn 0.6141588 -0.7439416 -0.263362527
vn 0.972697735 -0.179625034 0.146948889
vn 0.137990266 -0.7715359 -0.621040344
vn -0.275773019 -0.707049549 -0.651176
vn -0.7794003 -0.499150544 -0.378660768
vn -0.275773019 -0.707049549 -0.651176
vn -0.9949338 0.0999599546 0.0107229119
vn -0.5800126 0.0563494042 -0.8126562
vn -0.7236905 0.3366187 -0.6024615
vn -0.03019221 0.165712535 -0.9857118
vn -0.03133116 -0.0440486223 -0.998537958
vn -0.873043954 -0.02249395 -0.487122685
vn -0.787016451 -0.364501 -0.497739047
vn -0.8786577 -0.448496759 0.163741663
vn -0.9922836 -0.123936422 0.00364214974
vn -0.560781538 -0.350617081 -0.750061154
vn -0.9640498 0.264161438 -0.0287523083
vn -0.4912752 -0.491666347 0.718966544
vn -0.497410327 -0.474529147 0.726226568
vn -0.318594575 -0.308766365 -0.896192431
vn -0.0290927179 -0.223167613 -0.974345863
vn -0.76404655 -0.257006019 0.591760933
vn -0.9295187 0.04112478 0.3664748
vn -0.0256928951 -0.335994631 -0.9415134
vn -0.330549836 -0.481263459 -0.8118636
vn -0.676668644 -0.452228129 -0.5810415
vn -0.825925469 -0.454262167 -0.333905727
vn 0.5483763 0.06831187 -0.8334368
vn 0.666556835 0.3436808 -0.6615025
vn 0.867511451 -0.08613063 -0.4899037
vn 0.9943066 -0.07870661 0.071830444
vn 0.9055078 -0.404263049 0.128945917
vn 0.748397946 -0.38950786 -0.536827862
vn 0.5143118 -0.3630785 -0.776953936
vn 0.99745363 0.07129646 -0.00176004856
vn 0.5265905 -0.49384582 0.6919673
vn 0.5331752 -0.4767359 0.6988899
vn 0.266395122 -0.3148029 -0.91100657
vn 0.939433336 -0.09112751 0.330394924
vn 0.8625672 -0.204693273 0.4626862
vn 0.284984976 -0.482581019 -0.828190267
vn 0.6429745 -0.455052584 -0.616044641
vn 0.8051127 -0.4577535 -0.377167344
vn -0.0264558066 0.148627862 -0.9885393
vn -0.02722185 -0.09244109 -0.995346069
vn 0.56322813 -0.2511134 -0.787220657
vn 0.266471326 0.144867882 -0.9528937
vn 0.7631393 -0.264173716 -0.5897717
vn 0.895577133 -0.422175139 -0.140391529
vn 0.7715119 -0.389531255 -0.503025651
vn 0.933822453 -0.3175423 -0.164750472
vn 0.8226129 -0.4500579 0.3474996
vn 0.814643443 -0.464331776 0.3474943
vn -0.0267364774 -0.25477016 -0.966631949
vn -0.3169816 0.146750316 -0.937009633
vn -0.6048637 -0.24770017 -0.756825447
vn -0.9036262 -0.417835444 -0.09419787
vn -0.7939144 -0.260723382 -0.549293458
vn -0.7985843 -0.3838355 -0.463609159
vn -0.9423513 -0.313539624 -0.116905674
vn -0.8051233 -0.446577251 0.3903142
vn -0.7975564 -0.4602967 0.389911532
vn -0.891683638 0.278399974 0.356922626
vn -0.965367258 0.183404014 0.1855507
vn -0.9899646 0.0493222736 0.13242875
vn -0.902484059 0.1131631 0.415591925
vn -0.990680337 -0.130943835 0.0374996
vn -0.960677564 -0.184079 0.207879171
vn -0.662707865 0.123896353 0.7385581
vn -0.6295014 0.2988959 0.717209339
vn -0.739163458 -0.08112413 0.6686227
vn 0.161086261 0.163608581 0.9732849
vn 0.181311727 0.399550468 0.898601949
vn -0.240419909 0.3648698 0.89948225
vn -0.228801176 0.08409627 0.9698339
vn -0.45100832 0.134111568 0.8823863
vn -0.5340661 -0.116591193 0.837364852
vn -0.827608 -0.213287383 0.5192047
vn -0.8141449 -0.3851149 0.434574276
vn 0.227504641 -0.06784339 0.9714108
vn -0.9812592 -0.192310587 0.0121249883
vn 0.1212847 0.3218443 0.938992143
vn -0.237204149 -0.126369476 0.9632056
vn 0.88896203 0.366137743 0.2751176
vn 0.9255783 0.202764675 0.319674075
vn 0.9941294 0.0501268357 0.09588559
vn 0.9619223 0.181593791 0.2042773
vn 0.9913262 -0.130800083 -0.0127952155
vn 0.970180154 -0.181604162 0.1605322
vn 0.590105534 0.345686167 0.729572833
vn 0.720441341 0.120077156 0.683041632
vn 0.8068409 -0.09725625 0.5827083
vn 0.448232532 0.150505051 0.881155968
vn 0.5065614 -0.1574717 0.8477017
vn 0.8595546 -0.2012825 0.4697353
vn 0.8343824 -0.388643384 0.39084816
vn 0.181311727 0.399550468 0.898601949
vn 0.161086261 0.163608581 0.9732849
vn 0.979690552 -0.196508422 -0.03988557
vn 0.227504641 -0.06784339 0.9714108
usemtl yukiomou44_part_0_material_0
f 1/1/1 2/2/2 3/3/3
f 4/4/4 5/5/5 6/6/6
f 6/6/6 2/2/2 4/4/4
f 7/7/7 8/8/8 5/5/5
f 5/5/5 4/4/4 7/7/7
f 9/9/9 10/10/10 11/11/11
f 11/11/11 12/12/12 9/9/9
f 13/13/13 14/14/14 10/10/10
f 10/10/10 9/9/9 13/13/13
f 15/15/15 16/16/16 13/13/13
f 17/17/17 18/18/18 19/19/19
f 19/19/19 16/16/16 17/17/17
f 17/17/17 20/20/20 21/21/21
f 21/21/21 18/18/18 17/17/17
f 22/22/22 23/23/23 24/24/24
f 24/24/24 25/25/25 22/22/22
f 22/22/22 3/3/3 26/26/26
f 26/26/26 23/23/23 22/22/22
f 6/6/6 27/27/27 28/28/28
f 28/28/28 26/26/26 6/6/6
f 5/5/5 29/29/29 27/27/27
f 27/27/27 6/6/6 5/5/5
f 30/30/30 29/29/29 5/5/5
f 5/5/5 8/8/8 30/30/30
f 31/31/31 32/32/32 11/11/11
f 11/11/11 10/10/10 31/31/31
f 33/33/33 31/31/31 10/10/10
f 10/10/10 14/14/14 33/33/33
f 19/19/19 34/34/34 33/33/33
f 33/33/33 14/14/14 19/19/19
f 35/35/35 34/34/34 36/36/36
f 36/36/36 37/37/37 35/35/35
f 38/38/38 39/39/39 40/40/40
f 40/40/40 41/41/41 38/38/38
f 42/42/42 38/38/38 41/41/41
f 41/41/41 43/43/43 42/42/42
f 28/28/28 43/43/43 23/23/23
f 23/23/23 26/26/26 28/28/28
f 44/44/44 45/45/45 46/46/46
f 45/45/45 47/47/47 46/46/46
f 47/47/47 48/48/48 46/46/46
f 48/48/48 49/49/49 46/46/46
f 49/49/49 50/50/50 46/46/46
f 50/50/50 51/51/51 46/46/46
f 51/51/51 52/52/52 53/53/53
f 52/52/52 54/54/54 55/55/55
f 55/55/55 53/53/53 52/52/52
f 56/56/56 57/57/57 58/58/58
f 57/57/57 44/44/44 46/46/46
f 59/59/59 60/60/60 61/61/61
f 61/61/61 62/62/62 59/59/59
f 63/63/63 64/64/64 65/65/65
f 63/63/63 66/66/66 62/62/62
f 62/62/62 64/64/64 63/63/63
f 62/62/62 66/66/66 59/59/59
f 67/67/67 68/68/68 61/61/61
f 61/61/61 60/60/60 67/67/67
f 69/69/69 70/70/70 71/71/71
f 69/69/69 71/71/71 68/68/68
f 68/68/68 72/72/72 69/69/69
f 68/68/68 67/67/67 72/72/72
f 25/25/25 24/24/24 21/21/21
f 21/21/21 20/20/20 25/25/25
f 37/37/37 36/36/36 40/40/40
f 40/40/40 39/39/39 37/37/37
f 54/54/54 56/56/56 58/58/58
f 58/58/58 55/55/55 54/54/54
f 27/27/27 73/73/73 74/74/74
f 74/74/74 28/28/28 27/27/27
f 29/29/29 75/75/75 73/73/73
f 73/73/73 27/27/27 29/29/29
f 76/76/76 75/75/75 29/29/29
f 29/29/29 30/30/30 76/76/76
f 77/77/77 78/78/78 32/32/32
f 32/32/32 31/31/31 77/77/77
f 79/79/79 77/77/77 31/31/31
f 31/31/31 33/33/33 79/79/79
f 34/34/34 35/35/35 79/79/79
f 79/79/79 33/33/33 34/34/34
f 34/34/34 19/19/19 18/18/18
f 18/18/18 36/36/36 34/34/34
f 21/21/21 24/24/24 41/41/41
f 41/41/41 40/40/40 21/21/21
f 24/24/24 23/23/23 43/43/43
f 43/43/43 41/41/41 24/24/24
f 74/74/74 42/42/42 43/43/43
f 43/43/43 28/28/28 74/74/74
f 36/36/36 18/18/18 21/21/21
f 21/21/21 40/40/40 36/36/36
f 57/57/57 46/46/46 58/58/58
f 58/58/58 46/46/46 55/55/55
f 55/55/55 46/46/46 53/53/53
f 53/53/53 46/46/46 51/51/51
f 16/16/16 19/19/19 14/14/14
f 14/14/14 13/13/13 16/16/16
f 22/22/22 1/1/1 3/3/3
f 9/9/9 15/15/15 13/13/13
f 6/6/6 26/26/26 3/3/3
f 3/3/3 2/2/2 6/6/6
f 80/80/80 81/81/81 82/82/82
f 82/82/82 83/83/83 80/80/80
f 84/84/84 85/85/85 86/86/86
f 86/86/86 87/87/87 84/84/84
f 85/85/85 84/84/84 80/80/80
f 80/80/80 88/88/88 85/85/85
f 89/89/89 84/84/84 87/87/87
f 90/90/90 86/86/86 91/91/91
f 92/92/92 88/88/88 80/80/80
f 80/80/80 83/83/83 93/93/93
f 84/84/84 89/89/89 81/81/81
f 81/81/81 80/80/80 84/84/84
f 87/87/87 94/94/94 95/95/95
f 95/95/95 89/89/89 87/87/87
f 94/94/94 87/87/87 86/86/86
f 86/86/86 90/90/90 94/94/94
f 92/92/92 93/93/93 96/96/96
f 88/88/88 92/92/92 97/97/97
f 85/85/85 88/88/88 98/98/98
f 93/93/93 92/92/92 80/80/80
f 86/86/86 85/85/85 99/99/99
f 100/100/100 83/83/83 82/82/82
f 82/82/82 101/101/101 100/100/100
f 102/102/102 103/103/103 104/104/104
f 104/104/104 105/105/105 102/102/102
f 105/105/105 106/106/106 100/100/100
f 100/100/100 102/102/102 105/105/105
f 107/107/107 103/103/103 102/102/102
f 108/108/108 109/109/109 104/104/104
f 110/110/110 100/100/100 106/106/106
f 100/100/100 93/93/93 83/83/83
f 102/102/102 100/100/100 101/101/101
f 101/101/101 107/107/107 102/102/102
f 103/103/103 107/107/107 111/111/111
f 111/111/111 112/112/112 103/103/103
f 112/112/112 108/108/108 104/104/104
f 104/104/104 103/103/103 112/112/112
f 110/110/110 96/96/96 93/93/93
f 106/106/106 113/113/113 110/110/110
f 105/105/105 114/114/114 106/106/106
f 93/93/93 100/100/100 110/110/110
f 104/104/104 115/115/115 105/105/105
f 116/116/116 117/117/117 118/118/118
f 118/118/118 119/119/119 116/116/116
f 118/118/118 120/120/120 121/121/121
f 121/121/121 122/122/122 118/118/118
f 123/123/123 124/124/124 121/121/121
f 121/121/121 120/120/120 123/123/123
f 124/124/124 125/125/125 121/121/121
f 126/126/126 120/120/120 118/118/118
f 118/118/118 117/117/117 126/126/126
f 116/116/116 127/127/127 128/128/128
f 128/128/128 117/117/117 116/116/116
f 128/128/128 129/129/129 130/130/130
f 129/129/129 128/128/128 131/131/131
f 132/132/132 130/130/130 129/129/129
f 129/129/129 133/133/133 132/132/132
f 133/133/133 129/129/129 134/134/134
f 126/126/126 117/117/117 128/128/128
f 128/128/128 130/130/130 126/126/126
f 135/135/135 136/136/136 137/137/137
f 137/137/137 138/138/138 135/135/135
f 139/139/139 140/140/140 138/138/138
f 138/138/138 137/137/137 139/139/139
f 135/135/135 138/138/138 141/141/141
f 141/141/141 142/142/142 135/135/135
f 141/141/141 138/138/138 143/143/143
f 144/144/144 145/145/145 146/146/146
f 146/146/146 147/147/147 144/144/144
f 148/148/148 141/141/141 149/149/149
f 140/140/140 150/150/150 138/138/138
f 140/140/140 151/151/151 150/150/150
f 148/148/148 147/147/147 146/146/146
f 146/146/146 142/142/142 148/148/148
f 152/152/152 144/144/144 147/147/147
f 139/139/139 153/153/153 140/140/140
f 148/148/148 154/154/154 155/155/155
f 155/155/155 147/147/147 148/148/148
f 142/142/142 141/141/141 148/148/148
f 138/138/138 150/150/150 143/143/143
f 156/156/156 157/157/157 158/158/158
f 158/158/158 159/159/159 156/156/156
f 160/160/160 158/158/158 157/157/157
f 157/157/157 161/161/161 160/160/160
f 156/156/156 162/162/162 163/163/163
f 163/163/163 157/157/157 156/156/156
f 163/163/163 164/164/164 157/157/157
f 165/165/165 166/166/166 163/163/163
f 161/161/161 157/157/157 167/167/167
f 161/161/161 167/167/167 168/168/168
f 165/165/165 162/162/162 169/169/169
f 169/169/169 170/170/170 165/165/165
f 160/160/160 161/161/161 171/171/171
f 172/172/172 165/165/165 170/170/170
f 162/162/162 165/165/165 163/163/163
f 157/157/157 164/164/164 167/167/167
