mtllib 0000999997.mtl
o 0000999997_part_0
v 0.3287907 0.588552952 -0.03872677
v 0.311064631 0.580873251 -0.101676643
v 0.289010644 0.64270395 -0.105089538
v 0.30410406 0.6493227 -0.0438682772
v 0.244478062 0.5585428 0.01092884
v 0.233897865 0.5531937 -0.0569707453
v 0.241014287 0.505044639 0.0396143235
v 0.241014287 0.505044639 0.0396143235
v 0.302404881 0.5292683 0.0388880521
v 0.2945366 0.5778562 0.0134690627
v 0.244478062 0.5585428 0.01092884
v 0.357340723 0.544987261 -0.060417
v 0.349975556 0.5423109 -0.00158811279
v 0.259418249 0.4005434 0.0154484631
v 0.26851666 0.5083174 -0.13043195
v 0.276563436 0.397361159 -0.08800782
v 0.381647766 0.466763318 0.013804609
v 0.39206332 0.463867 -0.0581079125
v 0.284187555 0.392182618 -0.131425992
v 0.283264071 0.449940681 -0.1622041
v 0.345692575 0.476664037 -0.134583
v 0.3521875 0.432644129 -0.101233914
v 0.267951578 0.341379 0.000462917465
v 0.281068563 0.333822757 -0.06967683
v 0.360289633 0.378973544 -0.0475947037
v 0.3513008 0.385783136 0.004306062
v 0.313827872 0.479899943 0.07461234
v 0.2424812 0.4604896 0.0811101049
v 0.252608359 0.401870549 0.05583349
v 0.324819446 0.437753141 0.05714698
v 0.270991951 0.6377942 0.009867373
v 0.264152884 0.562786937 -0.117413774
v 0.2410231 0.625789344 -0.118078269
v 0.338307977 0.427323222 -0.07215889
v 0.276563436 0.397361159 -0.08800782
v 0.267951578 0.341379 0.000462917465
v 0.259418249 0.4005434 0.0154484631
v 0.321495473 0.432954133 0.0195213556
v 0.327134281 0.5291279 -0.10801471
v 0.26851666 0.5083174 -0.13043195
v 0.284187555 0.392182618 -0.131425992
v 0.2424812 0.4604896 0.0811101049
v 0.281068563 0.333822757 -0.06967683
v 0.283264071 0.449940681 -0.1622041
v 0.252608359 0.401870549 0.05583349
v 0.220938116 0.6203431 0.00443402771
v 0.220938116 0.6203431 0.00443402771
v 0.208560318 0.615146458 -0.060928084
v 0.2410231 0.625789344 -0.118078269
v 0.264152884 0.562786937 -0.117413774
v 0.23303479 0.641184032 0.0301586837
v 0.2819069 0.665299237 0.0202167314
v 0.245714664 0.694966257 -0.0179670751
v 0.218303576 0.683002 -0.00291706971
v 0.311599553 0.665642142 -0.116585962
v 0.267144471 0.6355348 -0.147925526
v 0.2417324 0.679186 -0.122035556
v 0.2655459 0.695065737 -0.09897472
v 0.185494721 0.6108848 0.0173508227
v 0.191471741 0.664644361 -0.0104959095
v 0.217810914 0.60884434 -0.154020756
v 0.2124152 0.663092434 -0.1250584
v 0.314967126 0.67719835 -0.040153604
v 0.2719586 0.7045562 -0.0549726225
v 0.188110083 0.6571317 -0.0690397
v 0.1792678 0.5965705 -0.06826453
v 0.1792678 0.5965705 -0.06826453
v 0.188110083 0.6571317 -0.0690397
v 0.24761726 0.5683816 -0.135433421
v 0.21638073 0.5594488 -0.06047787
v 0.2553468 0.5954785 0.0279712677
v 0.2970742 0.6156632 0.0137741733
v 0.32244873 0.613898039 -0.102998361
v 0.285291284 0.591469 -0.125355959
v 0.2182714 0.569377065 0.0209152363
v 0.324952245 0.6234424 -0.0422823
v 0.21638073 0.5594488 -0.06047787
v -0.33318907 0.5933478 -0.03265562
v -0.308151722 0.6534824 -0.0381731242
v -0.294195235 0.646760941 -0.09965238
v -0.3166297 0.5854389 -0.09589419
v -0.248546168 0.561981738 0.0155821908
v -0.244603619 0.508855 0.044171527
v -0.2391763 0.5565189 -0.0524859354
v -0.244603619 0.508855 0.044171527
v -0.248546168 0.561981738 0.0155821908
v -0.298247337 0.5820758 0.01896055
v -0.305824667 0.5335121 0.0445342064
v -0.362403125 0.549625158 -0.053780444
v -0.354013354 0.5468931 0.00490851235
v -0.264172167 0.404487938 0.0203429554
v -0.2831742 0.401433438 -0.08279229
v -0.275098056 0.512332737 -0.12535964
v -0.397651821 0.468752235 -0.05084989
v -0.385940433 0.471570343 0.0208661091
v -0.2916047 0.396311641 -0.126067877
v -0.358769953 0.437250942 -0.0946753547
v -0.352557361 0.4812259 -0.1281373
v -0.290819734 0.454063654 -0.156861171
v -0.2733883 0.345386267 0.00551507343
v -0.35634017 0.390378267 0.0108351819
v -0.3662973 0.3836356 -0.0408973135
v -0.28780207 0.337927341 -0.06438016
v -0.316960067 0.484223455 0.08045886
v -0.32855776 0.442156464 0.06319414
v -0.256636858 0.405764431 0.06060057
v -0.24564822 0.464308828 0.08568963
v -0.274172783 0.6417167 0.0149666648
v -0.246566713 0.6295083 -0.113490306
v -0.270273745 0.5666312 -0.112414949
v -0.344414175 0.431830257 -0.06585109
v -0.2831742 0.401433438 -0.08279229
v -0.2733883 0.345386267 0.00551507343
v -0.264172167 0.404487938 0.0203429554
v -0.325936556 0.437336445 0.0255157184
v -0.3331597 0.5335556 -0.101906143
v -0.275098056 0.512332737 -0.12535964
v -0.2916047 0.396311641 -0.126067877
v -0.24564822 0.464308828 0.08568963
v -0.28780207 0.337927341 -0.06438016
v -0.290819734 0.454063654 -0.156861171
v -0.256636858 0.405764431 0.06060057
v -0.224347964 0.623912632 0.008646267
v -0.224347964 0.623912632 0.008646267
v -0.213170052 0.6186327 -0.0569250435
v -0.246566713 0.6295083 -0.113490306
v -0.270273745 0.5666312 -0.112414949
v -0.23583819 0.644836962 0.0345804
v -0.221401528 0.68655175 0.00124558609
v -0.248990327 0.698710442 -0.0133159468
v -0.2847075 0.669297636 0.0255065169
v -0.316822052 0.669858932 -0.110747233
v -0.270256 0.6989552 -0.0939585939
v -0.246968716 0.6829089 -0.117437735
v -0.273144543 0.63944006 -0.142869517
v -0.188748479 0.6142032 0.0209321044
v -0.194838971 0.6680054 -0.006807463
v -0.217824325 0.666608751 -0.120979793
v -0.224116936 0.6124019 -0.149838328
v -0.3187498 0.6814339 -0.0342678539
v -0.2758189 0.708488 -0.04985014
v -0.1841445 0.599850535 -0.06477942
v -0.192570835 0.660472751 -0.06540125
v -0.192570835 0.660472751 -0.06540125
v -0.1841445 0.599850535 -0.06477942
v -0.221373364 0.563011348 -0.05633516
v -0.253872335 0.572169363 -0.130724639
v -0.3003359 0.61979 0.0193348266
v -0.258506656 0.59931004 0.03278983
v -0.29119727 0.595521867 -0.11998111
v -0.327792317 0.6182116 -0.09696848
v -0.221747875 0.5729476 0.0250780564
v -0.329149455 0.6277697 -0.036218144
v -0.221373364 0.563011348 -0.05633516
vt 0.30078125 0.53125
vt 0.3984375 0.53125
vt 0.40234375 0.6661362
vt 0.30078125 0.6661362
vt 0.875 0.515625
vt 0.76171875 0.515625
vt 0.890625 0.40625
vt 0.10546875 0.41015625
vt 0.16796875 0.40234375
vt 0.1875 0.53125
vt 0.125 0.53125
vt 0.33203125 0.390625
vt 0.24609375 0.39453125
vt 0.8580538 0.173837245
vt 0.625 0.4140625
vt 0.685032964 0.17657131
vt 0.2265625 0.25
vt 0.3515625 0.24609375
vt 0.4765625 0.140625
vt 0.55078125 0.265625
vt 0.4609375 0.29296875
vt 0.4140625 0.20703125
vt 0.2109375 0.0234375
vt 0.3515625 0.02734375
vt 0.3203125 0.11328125
vt 0.234375 0.1171875
vt 0.109375 0.29296875
vt 0.03125 0.2734375
vt 0.07421875 0.14453125
vt 0.140625 0.20703125
vt 0.19140625 0.6661362
vt 0.46484375 0.53125
vt 0.4609375 0.6661362
vt 0.3671875 0.19140625
vt 0.40234375 0.12109375
vt 0.8216259 0.07768917
vt 0.15625 0.12890625
vt 0.19140625 0.18359375
vt 0.421875 0.3984375
vt 0.484375 0.4140625
vt 0.612011731 0.1713543
vt 0.9739122 0.267973065
vt 0.709159 0.07327604
vt 0.559784651 0.270090044
vt 0.9256322 0.172927022
vt 0.125 0.6661362
vt 0.875 0.6348862
vt 0.7578125 0.6348862
vt 0.65234375 0.6348862
vt 0.65234375 0.515625
vt 0.232426167 0.8259091
vt 0.331626773 0.8259091
vt 0.3521664 0.939784467
vt 0.232155085 0.939784467
vt 0.6124566 0.8259091
vt 0.7255782 0.8259091
vt 0.730726063 0.939784467
vt 0.590483248 0.939784467
vt 0.129279166 0.8259091
vt 0.1278049 0.939784467
vt 0.8630615 0.8259091
vt 0.852241457 0.939784467
vt 0.471322536 0.8259091
vt 0.469841838 0.939784467
vt 0.0383120179 0.939784467
vt 0.0383120179 0.8259091
vt 0.97967 0.8259091
vt 0.97967 0.939784467
vt 0.8562029 0.7067934
vt 0.97967 0.7067934
vt 0.235406578 0.7067934
vt 0.340115368 0.7067934
vt 0.606606066 0.7067934
vt 0.726478934 0.7067934
vt 0.134573609 0.7067934
vt 0.4705668 0.7067934
vt 0.0383120179 0.7067934
vt 0.30078125 0.53125
vt 0.30078125 0.6661362
vt 0.40234375 0.6661362
vt 0.3984375 0.53125
vt 0.875 0.515625
vt 0.890625 0.40625
vt 0.76171875 0.515625
vt 0.10546875 0.41015625
vt 0.125 0.53125
vt 0.1875 0.53125
vt 0.16796875 0.40234375
vt 0.33203125 0.390625
vt 0.24609375 0.39453125
vt 0.8580538 0.173837245
vt 0.685032964 0.17657131
vt 0.625 0.4140625
vt 0.3515625 0.24609375
vt 0.2265625 0.25
vt 0.4765625 0.140625
vt 0.4140625 0.20703125
vt 0.4609375 0.29296875
vt 0.55078125 0.265625
vt 0.2109375 0.0234375
vt 0.234375 0.1171875
vt 0.3203125 0.11328125
vt 0.3515625 0.02734375
vt 0.109375 0.29296875
vt 0.140625 0.20703125
vt 0.07421875 0.14453125
vt 0.03125 0.2734375
vt 0.19140625 0.6661362
vt 0.4609375 0.6661362
vt 0.46484375 0.53125
vt 0.3671875 0.19140625
vt 0.40234375 0.12109375
vt 0.8216259 0.07768917
vt 0.15625 0.12890625
vt 0.19140625 0.18359375
vt 0.421875 0.3984375
vt 0.484375 0.4140625
vt 0.612011731 0.1713543
vt 0.9739122 0.267973065
vt 0.709159 0.07327604
vt 0.559784651 0.270090044
vt 0.9256322 0.172927022
vt 0.125 0.6661362
vt 0.875 0.6348862
vt 0.7578125 0.6348862
vt 0.65234375 0.6348862
vt 0.65234375 0.515625
vt 0.232426167 0.8259091
vt 0.232155085 0.939784467
vt 0.3521664 0.939784467
vt 0.331626773 0.8259091
vt 0.6124566 0.8259091
vt 0.590483248 0.939784467
vt 0.730726063 0.939784467
vt 0.7255782 0.8259091
vt 0.129279166 0.8259091
vt 0.1278049 0.939784467
vt 0.852241457 0.939784467
vt 0.8630615 0.8259091
vt 0.471322536 0.8259091
vt 0.469841838 0.939784467
vt 0.0383120179 0.8259091
vt 0.0383120179 0.939784467
vt 0.97967 0.939784467
vt 0.97967 0.8259091
vt 0.97967 0.7067934
vt 0.8562029 0.7067934
vt 0.340115368 0.7067934
vt 0.235406578 0.7067934
vt 0.726478934 0.7067934
vt 0.606606066 0.7067934
vt 0.134573609 0.7067934
vt 0.4705668 0.7067934
vt 0.0383120179 0.7067934
vn 0.8441636 0.5180357 0.137937784
vn 0.629092157 0.29675743 -0.7184553
vn 0.662298858 0.222516373 -0.7154346
vn 0.912960947 0.3828239 0.14123781
vn -0.7141215 0.138041124 0.686276257
vn -0.937042952 -0.309483945 -0.1617721
vn -0.844338238 0.266989321 0.464553177
vn -0.844338238 0.266989321 0.464553177
vn 0.140309155 0.545461059 0.8263084
vn 0.3280276 0.407439828 0.852285564
vn -0.7141215 0.138041124 0.686276257
vn 0.858253539 0.46955058 -0.207178965
vn 0.7400535 0.513935149 0.433810472
vn -0.775167763 -0.5545848 0.302573353
vn -0.5994776 0.152398139 -0.785748959
vn -0.6807108 -0.5549061 -0.478238523
vn 0.8748516 -0.0100018093 0.484287828
vn 0.9756769 -0.05015586 -0.21339865
vn -0.2623711 -0.8460803 -0.46401456
vn -0.333674222 -0.108450778 -0.9364294
vn 0.604730248 0.11640694 -0.7878774
vn 0.6685177 -0.669741035 -0.32331264
vn -0.468280226 -0.7461476 0.473262519
vn -0.269016027 -0.812053442 -0.517879844
vn 0.7240198 -0.6060376 -0.3294142
vn 0.5494164 -0.5452454 0.6331264
vn 0.301847279 0.209211931 0.9301175
vn -0.634693265 0.0166546162 0.7725847
vn -0.452109724 -0.793481469 0.407411247
vn 0.500081837 -0.6163427 0.608309
vn 0.3783676 0.224784568 0.8979476
vn -0.377601653 0.0269535482 -0.925575733
vn -0.3660591 -0.162932068 -0.916217148
vn 0.5267942 -0.680809259 -0.508907259
vn -0.6807108 -0.5549061 -0.478238523
vn -0.468280226 -0.7461476 0.473262519
vn -0.775167763 -0.5545848 0.302573353
vn 0.3727745 -0.6869799 0.623777032
vn 0.491328627 0.4080585 -0.7694702
vn -0.5994776 0.152398139 -0.785748959
vn -0.2623711 -0.8460803 -0.46401456
vn -0.634693265 0.0166546162 0.7725847
vn -0.269016027 -0.812053442 -0.517879844
vn -0.333674222 -0.108450778 -0.9364294
vn -0.452109724 -0.793481469 0.407411247
vn -0.6729552 -0.192072242 0.7143105
vn -0.6729552 -0.192072242 0.7143105
vn -0.9073738 -0.382263482 -0.1747784
vn -0.3660591 -0.162932068 -0.916217148
vn -0.377601653 0.0269535482 -0.925575733
vn -0.1562007 0.2832252 0.946247756
vn 0.387352765 0.501326442 0.7737116
vn 0.175989971 0.7942734 0.5815129
vn -0.153172716 0.5841739 0.79704386
vn 0.6973249 0.4664765 -0.54418534
vn 0.257746726 0.1449898 -0.955272
vn 0.0343412943 0.5622221 -0.8262729
vn 0.385029823 0.809274852 -0.44365105
vn -0.7912495 -0.108479075 0.601794362
vn -0.8313175 0.325707674 0.450361818
vn -0.454556435 -0.157486752 -0.876684844
vn -0.603068233 0.325816751 -0.7281155
vn 0.788300157 0.5829831 0.196757838
vn 0.509978235 0.854624867 0.09766542
vn -0.9747346 0.137404516 -0.176103443
vn -0.9306582 -0.332990259 -0.15163365
vn -0.9306582 -0.332990259 -0.15163365
vn -0.9747346 0.137404516 -0.176103443
vn -0.193270653 -0.536007643 -0.8217921
vn -0.7063055 -0.70029217 -0.103554077
vn 0.06214581 -0.0496731773 0.9968302
vn 0.6396783 0.0817669556 0.7642813
vn 0.8726326 0.03431469 -0.487170219
vn 0.457226783 -0.214626834 -0.863063753
vn -0.5892568 -0.435116231 0.6807718
vn 0.9672857 0.17281276 0.185725972
vn -0.7063055 -0.70029217 -0.103554077
vn -0.838540554 0.523012161 0.152669653
vn -0.9064346 0.391855419 0.157561451
vn -0.672277749 0.228767619 -0.7040653
vn -0.639579833 0.300857842 -0.707405269
vn 0.7275515 0.136577353 0.6723209
vn 0.854416251 0.262619674 0.4483345
vn 0.9318831 -0.316121966 -0.177934691
vn 0.854416251 0.262619674 0.4483345
vn 0.7275515 0.136577353 0.6723209
vn -0.310331464 0.4097685 0.8577786
vn -0.12151669 0.546249449 0.8287613
vn -0.859377265 0.473896533 -0.19207488
vn -0.7291903 0.5178836 0.447300881
vn 0.7764797 -0.560069263 0.2887935
vn 0.6681698 -0.5596741 -0.4902184
vn 0.5870496 0.148917153 -0.795736432
vn -0.979643345 -0.0432442576 -0.1960327
vn -0.86616087 -0.003847577 0.4997505
vn 0.248100728 -0.847884834 -0.468548149
vn -0.6788722 -0.664978564 -0.3113456
vn -0.6177905 0.120727934 -0.777019739
vn 0.3162149 -0.110748276 -0.942201138
vn 0.471326 -0.7494686 0.464917839
vn -0.541925251 -0.541387439 0.6428193
vn -0.73402226 -0.6008839 -0.316464573
vn 0.25402832 -0.8139025 -0.522525
vn -0.2837934 0.211282358 0.9353187
vn -0.493542969 -0.6128306 0.617133737
vn 0.453654 -0.7966831 0.399367183
vn 0.648417 0.0121191125 0.7611889
vn -0.359626323 0.22801584 0.9048081
vn 0.348959953 -0.166507736 -0.9222267
vn 0.362137526 0.0248798952 -0.931792557
vn -0.5405493 -0.6770367 -0.4994275
vn 0.6681698 -0.5596741 -0.4902184
vn 0.471326 -0.7494686 0.464917839
vn 0.7764797 -0.560069263 0.2887935
vn -0.366483539 -0.6843668 0.630342662
vn -0.5024205 0.4107649 -0.7608192
vn 0.5870496 0.148917153 -0.795736432
vn 0.248100728 -0.847884834 -0.468548149
vn 0.648417 0.0121191125 0.7611889
vn 0.25402832 -0.8139025 -0.522525
vn 0.3162149 -0.110748276 -0.942201138
vn 0.453654 -0.7966831 0.399367183
vn 0.683794737 -0.199138865 0.7019747
vn 0.683794737 -0.199138865 0.7019747
vn 0.9005606 -0.390680879 -0.190680414
vn 0.348959953 -0.166507736 -0.9222267
vn 0.362137526 0.0248798952 -0.931792557
vn 0.174972668 0.282027423 0.943316042
vn 0.1714311 0.583026946 0.794160545
vn -0.160014555 0.795461535 0.584496558
vn -0.369990736 0.5039927 0.7804474
vn -0.7035554 0.471434325 -0.531751335
vn -0.387118518 0.812003851 -0.436794
vn -0.045036532 0.562502265 -0.8255682
vn -0.273646921 0.146836728 -0.9505558
vn 0.801010847 -0.114195265 0.5876573
vn 0.8414668 0.319795 0.4355052
vn 0.5923288 0.321591049 -0.7387326
vn 0.43778047 -0.1607118 -0.8846016
vn -0.7805315 0.588539362 0.2106939
vn -0.5021087 0.858202636 0.106653817
vn 0.9254033 -0.339660883 -0.168104634
vn 0.9724 0.130521744 -0.193396643
vn 0.9724 0.130521744 -0.193396643
vn 0.9254033 -0.339660883 -0.168104634
vn 0.699218631 -0.7054333 -0.116005011
vn 0.1747098 -0.5373902 -0.8250384
vn -0.625436366 0.08622776 0.775496066
vn -0.044827342 -0.0493475273 0.9977752
vn -0.4740154 -0.2113815 -0.8547674
vn -0.8808897 0.0405404232 -0.4715822
vn 0.5980331 -0.4394326 0.6702652
vn -0.962586045 0.179664657 0.202851444
vn 0.699218631 -0.7054333 -0.116005011
usemtl 0000999997_part_0_material_0
f 1/1/1 2/2/2 3/3/3
f 3/3/3 4/4/4 1/1/1
f 5/5/5 6/6/6 7/7/7
f 8/8/8 9/9/9 10/10/10
f 10/10/10 11/11/11 8/8/8
f 12/12/12 1/1/1 13/13/13
f 14/14/14 7/7/7 15/15/15
f 15/15/15 16/16/16 14/14/14
f 13/13/13 17/17/17 18/18/18
f 18/18/18 12/12/12 13/13/13
f 19/19/19 20/20/20 21/21/21
f 21/21/21 22/22/22 19/19/19
f 23/23/23 24/24/24 25/25/25
f 25/25/25 26/26/26 23/23/23
f 27/27/27 28/28/28 29/29/29
f 29/29/29 30/30/30 27/27/27
f 31/31/31 10/10/10 1/1/1
f 1/1/1 4/4/4 31/31/31
f 1/1/1 10/10/10 13/13/13
f 3/3/3 2/2/2 32/32/32
f 32/32/32 33/33/33 3/3/3
f 18/18/18 25/25/25 34/34/34
f 34/34/34 25/25/25 24/24/24
f 24/24/24 35/35/35 34/34/34
f 16/16/16 36/36/36 14/14/14
f 37/37/37 23/23/23 26/26/26
f 26/26/26 38/38/38 37/37/37
f 38/38/38 26/26/26 17/17/17
f 18/18/18 21/21/21 12/12/12
f 22/22/22 18/18/18 34/34/34
f 12/12/12 21/21/21 39/39/39
f 39/39/39 21/21/21 20/20/20
f 20/20/20 40/40/40 39/39/39
f 15/15/15 41/41/41 16/16/16
f 35/35/35 19/19/19 22/22/22
f 22/22/22 34/34/34 35/35/35
f 17/17/17 30/30/30 38/38/38
f 38/38/38 30/30/30 29/29/29
f 29/29/29 37/37/37 38/38/38
f 14/14/14 42/42/42 7/7/7
f 8/8/8 28/28/28 27/27/27
f 27/27/27 9/9/9 8/8/8
f 13/13/13 9/9/9 27/27/27
f 25/25/25 18/18/18 17/17/17
f 17/17/17 26/26/26 25/25/25
f 36/36/36 16/16/16 43/43/43
f 41/41/41 15/15/15 44/44/44
f 30/30/30 17/17/17 27/27/27
f 42/42/42 14/14/14 45/45/45
f 31/31/31 46/46/46 11/11/11
f 11/11/11 10/10/10 31/31/31
f 12/12/12 39/39/39 2/2/2
f 2/2/2 39/39/39 40/40/40
f 40/40/40 32/32/32 2/2/2
f 47/47/47 48/48/48 6/6/6
f 6/6/6 5/5/5 47/47/47
f 49/49/49 50/50/50 6/6/6
f 6/6/6 48/48/48 49/49/49
f 6/6/6 15/15/15 7/7/7
f 6/6/6 50/50/50 15/15/15
f 10/10/10 9/9/9 13/13/13
f 2/2/2 1/1/1 12/12/12
f 51/51/51 52/52/52 53/53/53
f 53/53/53 54/54/54 51/51/51
f 55/55/55 56/56/56 57/57/57
f 57/57/57 58/58/58 55/55/55
f 59/59/59 51/51/51 54/54/54
f 54/54/54 60/60/60 59/59/59
f 56/56/56 61/61/61 62/62/62
f 62/62/62 57/57/57 56/56/56
f 63/63/63 64/64/64 53/53/53
f 53/53/53 52/52/52 63/63/63
f 59/59/59 60/60/60 65/65/65
f 65/65/65 66/66/66 59/59/59
f 62/62/62 61/61/61 67/67/67
f 67/67/67 68/68/68 62/62/62
f 67/67/67 61/61/61 69/69/69
f 69/69/69 70/70/70 67/67/67
f 52/52/52 51/51/51 71/71/71
f 71/71/71 72/72/72 52/52/52
f 56/56/56 55/55/55 73/73/73
f 73/73/73 74/74/74 56/56/56
f 51/51/51 59/59/59 75/75/75
f 75/75/75 71/71/71 51/51/51
f 61/61/61 56/56/56 74/74/74
f 74/74/74 69/69/69 61/61/61
f 55/55/55 63/63/63 76/76/76
f 76/76/76 73/73/73 55/55/55
f 59/59/59 66/66/66 77/77/77
f 77/77/77 75/75/75 59/59/59
f 63/63/63 55/55/55 58/58/58
f 58/58/58 64/64/64 63/63/63
f 63/63/63 52/52/52 72/72/72
f 72/72/72 76/76/76 63/63/63
f 18/18/18 22/22/22 21/21/21
f 27/27/27 17/17/17 13/13/13
f 78/78/78 79/79/79 80/80/80
f 80/80/80 81/81/81 78/78/78
f 82/82/82 83/83/83 84/84/84
f 85/85/85 86/86/86 87/87/87
f 87/87/87 88/88/88 85/85/85
f 89/89/89 90/90/90 78/78/78
f 91/91/91 92/92/92 93/93/93
f 93/93/93 83/83/83 91/91/91
f 90/90/90 89/89/89 94/94/94
f 94/94/94 95/95/95 90/90/90
f 96/96/96 97/97/97 98/98/98
f 98/98/98 99/99/99 96/96/96
f 100/100/100 101/101/101 102/102/102
f 102/102/102 103/103/103 100/100/100
f 104/104/104 105/105/105 106/106/106
f 106/106/106 107/107/107 104/104/104
f 108/108/108 79/79/79 78/78/78
f 78/78/78 87/87/87 108/108/108
f 78/78/78 90/90/90 87/87/87
f 80/80/80 109/109/109 110/110/110
f 110/110/110 81/81/81 80/80/80
f 94/94/94 111/111/111 102/102/102
f 111/111/111 112/112/112 103/103/103
f 103/103/103 102/102/102 111/111/111
f 92/92/92 91/91/91 113/113/113
f 114/114/114 115/115/115 101/101/101
f 101/101/101 100/100/100 114/114/114
f 115/115/115 95/95/95 101/101/101
f 94/94/94 89/89/89 98/98/98
f 97/97/97 111/111/111 94/94/94
f 89/89/89 116/116/116 98/98/98
f 116/116/116 117/117/117 99/99/99
f 99/99/99 98/98/98 116/116/116
f 93/93/93 92/92/92 118/118/118
f 112/112/112 111/111/111 97/97/97
f 97/97/97 96/96/96 112/112/112
f 95/95/95 115/115/115 105/105/105
f 115/115/115 114/114/114 106/106/106
f 106/106/106 105/105/105 115/115/115
f 91/91/91 83/83/83 119/119/119
f 85/85/85 88/88/88 104/104/104
f 104/104/104 107/107/107 85/85/85
f 90/90/90 104/104/104 88/88/88
f 102/102/102 101/101/101 95/95/95
f 95/95/95 94/94/94 102/102/102
f 113/113/113 120/120/120 92/92/92
f 118/118/118 121/121/121 93/93/93
f 105/105/105 104/104/104 95/95/95
f 119/119/119 122/122/122 91/91/91
f 108/108/108 87/87/87 86/86/86
f 86/86/86 123/123/123 108/108/108
f 89/89/89 81/81/81 116/116/116
f 81/81/81 110/110/110 117/117/117
f 117/117/117 116/116/116 81/81/81
f 124/124/124 82/82/82 84/84/84
f 84/84/84 125/125/125 124/124/124
f 126/126/126 125/125/125 84/84/84
f 84/84/84 127/127/127 126/126/126
f 84/84/84 83/83/83 93/93/93
f 84/84/84 93/93/93 127/127/127
f 87/87/87 90/90/90 88/88/88
f 81/81/81 89/89/89 78/78/78
f 128/128/128 129/129/129 130/130/130
f 130/130/130 131/131/131 128/128/128
f 132/132/132 133/133/133 134/134/134
f 134/134/134 135/135/135 132/132/132
f 136/136/136 137/137/137 129/129/129
f 129/129/129 128/128/128 136/136/136
f 135/135/135 134/134/134 138/138/138
f 138/138/138 139/139/139 135/135/135
f 140/140/140 131/131/131 130/130/130
f 130/130/130 141/141/141 140/140/140
f 136/136/136 142/142/142 143/143/143
f 143/143/143 137/137/137 136/136/136
f 138/138/138 144/144/144 145/145/145
f 145/145/145 139/139/139 138/138/138
f 145/145/145 146/146/146 147/147/147
f 147/147/147 139/139/139 145/145/145
f 131/131/131 148/148/148 149/149/149
f 149/149/149 128/128/128 131/131/131
f 135/135/135 150/150/150 151/151/151
f 151/151/151 132/132/132 135/135/135
f 128/128/128 149/149/149 152/152/152
f 152/152/152 136/136/136 128/128/128
f 139/139/139 147/147/147 150/150/150
f 150/150/150 135/135/135 139/139/139
f 132/132/132 151/151/151 153/153/153
f 153/153/153 140/140/140 132/132/132
f 136/136/136 152/152/152 154/154/154
f 154/154/154 142/142/142 136/136/136
f 140/140/140 141/141/141 133/133/133
f 133/133/133 132/132/132 140/140/140
f 140/140/140 153/153/153 148/148/148
f 148/148/148 131/131/131 140/140/140
f 94/94/94 98/98/98 97/97/97
f 104/104/104 90/90/90 95/95/95
