mtllib 0000670001.mtl
o 0000670001_part_0
v 0.177764937 2.231237 -0.202314183
v 0.24140954 2.21665287 -0.08142226
v 0.238536671 2.07045722 -0.09977719
v 0.176848367 2.09126544 -0.220867246
v 0.0106110051 2.08618784 -0.260371327
v 0.0116733685 2.24281216 -0.232959852
v 0.011096512 1.94456863 -0.230637178
v 0.143782139 1.96749043 -0.18139343
v 0.1368214 1.8947084 -0.120758235
v 0.010053549 1.86161351 -0.217290938
v 0.184126884 1.92711 -0.08530113
v 0.225242853 2.20989418 0.07110016
v 0.218727246 2.08238649 0.018935211
v 0.241765171 2.210146 -0.00165773183
v 0.174734592 2.065987 -0.01966383
v 0.175433263 2.190446 0.13237901
v 0.182013646 2.26731181 0.120961607
v 0.109370053 2.30484939 0.148426831
v 0.154094443 2.2038765 0.203756
v 0.143163 2.079583 0.166260555
v 0.167645171 2.13889456 0.157615662
v 0.0951758847 2.19988084 0.205756664
v 0.1111673 2.329405 -0.136305138
v 0.178533182 2.32277966 -0.036975354
v 0.01399272 2.347022 -0.153927982
v 0.178533182 2.32277966 -0.036975354
v 0.01745682 2.390418 -0.0268294141
v 0.0220364686 2.31750727 0.151713729
v 0.09782784 2.37004662 -0.0197952315
v 0.176117167 2.124114 0.10156396
v 0.0240610167 2.22908974 0.2351779
v 0.03100019 1.8303529 -0.204668313
v 0.009619562 1.83593559 -0.223228812
v 0.146199375 1.8033905 -0.0606691241
v 0.01745682 2.390418 -0.0268294141
v 0.09782784 2.37004662 -0.0197952315
v 0.0240695588 2.11980629 0.2443201
v 0.0796573758 2.118215 0.213003039
v 0.023679696 2.02683878 0.237125069
v 0.172283947 1.9868834 0.0131192729
v 0.24140954 2.21665287 -0.08142226
v 0.238536671 2.07045722 -0.09977719
v 0.1733731 1.94647312 -0.05322894
v 0.184126884 1.92711 -0.08530113
v 0.146199375 1.8033905 -0.0606691241
v 0.177764937 2.2312367 -0.202314153
v 0.24140954 2.21665287 -0.08142226
v 0.264674425 2.09006047 -0.1265977
v 0.230961278 2.09318352 -0.197990045
v 0.267765075 1.94607091 -0.148139179
v 0.03010686 1.78248906 -0.218044683
v 0.03100019 1.8303529 -0.204668313
v 0.0109836832 1.82475257 -0.1833295
v 0.0100903539 1.77688861 -0.1967058
v 0.00872623 1.78807163 -0.236605212
v 0.009619562 1.83593559 -0.223228812
v 0.03100019 1.8303529 -0.204668313
v 0.03010686 1.78248906 -0.218044683
v 0.06280086 1.66666412 -0.261390269
v 0.00431740051 1.67544365 -0.2776924
v 0.00872623 1.78807163 -0.236605212
v 0.00872623 1.78807163 -0.236605212
v 0.03010686 1.78248906 -0.218044683
v 0.06280086 1.66666412 -0.261390269
v 0.0602125525 1.56565332 -0.292029619
v 0.00163038238 1.56952333 -0.3091962
v 0.00431740051 1.67544365 -0.2776924
v 0.00431740051 1.67544365 -0.2776924
v 0.06280086 1.66666412 -0.261390269
v 0.0602125525 1.56565332 -0.292029619
v 0.00163038238 1.56952333 -0.3091962
v 0.0602125525 1.56565332 -0.292029619
v -0.00168339629 1.437999 -0.347790331
v -0.1526081 2.231944 -0.193551242
v -0.153275222 2.091972 -0.212110922
v -0.208546132 2.07141423 -0.08791862
v -0.209816426 2.217619 -0.0694538057
v -0.118692793 1.96805227 -0.174431443
v -0.108838968 1.89523435 -0.114242256
v -0.154059261 1.927834 -0.0763309747
v -0.185616165 2.21077347 0.0819979
v -0.205971 2.21110439 0.0102181658
v -0.182420641 2.08324528 0.02957537
v -0.140606582 2.066662 -0.011299625
v -0.132711828 2.1911056 0.140552342
v -0.107561961 2.20443654 0.21069622
v -0.06540192 2.30522346 0.153062537
v -0.139559254 2.26800013 0.129491091
v -0.09916545 2.08010173 0.172688127
v -0.123817481 2.13951874 0.165346488
v -0.0486378223 2.20018864 0.209571213
v -0.144218817 2.32347059 -0.0284145735
v -0.0821855 2.3298192 -0.131176576
v -0.144218817 2.32347059 -0.0284145735
v -0.06251472 2.37039 -0.0155422576
v -0.13531208 2.12478065 0.109824404
v -0.0104398029 1.83068657 -0.203143656
v -0.115408994 1.80395055 -0.0537301376
v -0.06251472 2.37039 -0.0155422576
v -0.03310655 2.11845636 0.215993971
v -0.136759967 1.987545 0.0213164538
v -0.209816426 2.217619 -0.0694538057
v -0.208546132 2.07141423 -0.08791862
v -0.141537666 1.94714713 -0.0448761471
v -0.154059261 1.927834 -0.0763309747
v -0.115408994 1.80395055 -0.0537301376
v -0.1526081 2.231944 -0.193551227
v -0.206090555 2.094119 -0.186397538
v -0.235984787 2.09113216 -0.113318056
v -0.209816426 2.217619 -0.06945379
v -0.240829021 1.94715977 -0.134649068
v -0.0113331387 1.78282261 -0.216520011
v -0.0104398029 1.83068657 -0.203143656
v -0.0113331387 1.78282261 -0.216520011
v -0.0104398029 1.83068657 -0.203143656
v -0.0527350754 1.66804969 -0.256347954
v -0.0113331387 1.78282261 -0.216520011
v 0.00872623 1.78807163 -0.236605212
v 0.00872623 1.78807163 -0.236605212
v 0.00431740051 1.67544365 -0.2776924
v -0.0527350754 1.66804969 -0.256347954
v -0.05532339 1.56703889 -0.286987275
v -0.0527350754 1.66804969 -0.256347954
v 0.00431740051 1.67544365 -0.2776924
v 0.00431740051 1.67544365 -0.2776924
v 0.00163038238 1.56952333 -0.3091962
v -0.05532339 1.56703889 -0.286987275
v 0.00163038238 1.56952333 -0.3091962
v -0.00168339629 1.437999 -0.347790331
v -0.05532339 1.56703889 -0.286987275
v -0.0641449 2.308427 -0.0287063457
v 0.0167398751 2.34571528 -0.0180755816
v -0.08379878 2.44181824 -0.09117091
v 0.0070389146 2.358373 -0.05112669
v -0.0184505358 2.405517 -0.149553239
v -0.009419838 2.37439823 -0.0197279118
vt 0.373860925 0.322232962
vt 0.232390359 0.3314678
vt 0.259561777 0.215469837
vt 0.400530249 0.23166424
vt 0.5485667 0.243381083
vt 0.513358 0.347566962
vt 0.5335163 0.133360028
vt 0.405632228 0.1346463
vt 0.339198738 0.0824238062
vt 0.513386846 0.03178096
vt 0.281224459 0.106830537
vt 0.4825148 0.697089732
vt 0.564221263 0.5175971
vt 0.6245337 0.7094327
vt 0.616376 0.503986061
vt 0.3332242 0.6611006
vt 0.363362849 0.794867158
vt 0.20949325 0.821332455
vt 0.209407955 0.6697622
vt 0.235466 0.491307378
vt 0.27968064 0.5804607
vt 0.13102071 0.6683971
vt 0.370870531 0.4380257
vt 0.232057378 0.443652034
vt 0.44964 0.487255335
vt 0.612546444 0.87597084
vt 0.258272856 0.991900444
vt 0.0730223954 0.8598011
vt 0.447212279 0.9498798
vt 0.397363156 0.5680585
vt 0.0109915305 0.712400436
vt 0.482845783 0.00162810087
vt 0.513258338 0.00162810087
vt 0.294984251 0.0060305
vt 0.33618018 0.572179854
vt 0.2705746 0.5127645
vt 0.0109915622 0.52263546
vt 0.116244867 0.5213528
vt 0.0112332534 0.385738432
vt 0.5776719 0.362083554
vt 0.7626025 0.733780146
vt 0.8134212 0.5199848
vt 0.6344452 0.338212848
vt 0.7228917 0.3126874
vt 0.582984 0.153446853
vt 0.206693009 0.374218047
vt 0.0375563465 0.3742628
vt 0.0956593 0.202477038
vt 0.195487484 0.214901149
vt 0.135087892 0.0127325058
vt 0.9048419 0.870276034
vt 0.9048419 0.9918697
vt 0.8372496 0.9918697
vt 0.8372496 0.870276034
vt 0.9730475 0.870276034
vt 0.9730475 0.9918697
vt 0.9048419 0.9918697
vt 0.9048419 0.870276034
vt 0.8340739 0.60536474
vt 0.9730475 0.60536474
vt 0.9730475 0.870276034
vt 0.9730475 0.870276034
vt 0.9048419 0.870276034
vt 0.8340739 0.60536474
vt 0.8340739 0.348336041
vt 0.9730475 0.348336041
vt 0.9730475 0.60536474
vt 0.9730475 0.60536474
vt 0.8340739 0.60536474
vt 0.8340739 0.348336041
vt 0.9730475 0.348336041
vt 0.8340739 0.348336041
vt 0.9730475 0.0122532845
vt 0.373860925 0.322232962
vt 0.400530249 0.23166424
vt 0.259561777 0.215469837
vt 0.232390359 0.3314678
vt 0.405632228 0.1346463
vt 0.339198738 0.0824238062
vt 0.281224459 0.106830537
vt 0.4825148 0.697089732
vt 0.6245337 0.7094327
vt 0.564221263 0.5175971
vt 0.616376 0.503986061
vt 0.3332242 0.6611006
vt 0.209407955 0.6697622
vt 0.20949325 0.821332455
vt 0.363362849 0.794867158
vt 0.235466 0.491307378
vt 0.27968064 0.5804607
vt 0.13102071 0.6683971
vt 0.232057378 0.443652034
vt 0.370870531 0.4380257
vt 0.612546444 0.87597084
vt 0.447212279 0.9498798
vt 0.397363156 0.5680585
vt 0.482845783 0.00162810087
vt 0.294984251 0.0060305
vt 0.2705746 0.5127645
vt 0.116244867 0.5213528
vt 0.5776719 0.362083554
vt 0.7626025 0.733780146
vt 0.8134212 0.5199848
vt 0.6344452 0.338212848
vt 0.7228917 0.3126874
vt 0.582984 0.153446853
vt 0.206693009 0.374218047
vt 0.195487484 0.214901149
vt 0.0956593 0.202477038
vt 0.0375563465 0.3742628
vt 0.135087892 0.0127325058
vt 0.9048419 0.870276034
vt 0.9048419 0.9918697
vt 0.9048419 0.870276034
vt 0.9048419 0.9918697
vt 0.8340739 0.60536474
vt 0.9048419 0.870276034
vt 0.9730475 0.870276034
vt 0.9730475 0.870276034
vt 0.9730475 0.60536474
vt 0.8340739 0.60536474
vt 0.8340739 0.348336041
vt 0.8340739 0.60536474
vt 0.9730475 0.60536474
vt 0.9730475 0.60536474
vt 0.9730475 0.348336041
vt 0.8340739 0.348336041
vt 0.9730475 0.348336041
vt 0.9730475 0.0122532845
vt 0.8340739 0.348336041
vt 0.67251265 0.0058811307
vt 0.7988967 0.0118582249
vt 0.70608604 0.174788117
vt 0.8941973 0.0461584926
vt 0.838407636 0.170656979
vt 0.7988967 0.0118582249
vn 0.5884499 0.375658363 -0.7159661
vn 0.9670911 0.2010645 -0.15590997
vn 0.982795238 -0.180986956 0.0368414819
vn 0.6123544 -0.105166979 -0.783557236
vn -0.0265653916 -0.028596513 -0.999237955
vn -0.0234890655 0.396835566 -0.9175891
vn -0.0242606923 -0.220386654 -0.9751108
vn 0.6129939 -0.412715137 -0.6737245
vn 0.6771157 -0.433190852 -0.5948614
vn -0.0318524875 -0.08957032 -0.99547106
vn 0.929926455 -0.360091418 -0.07463901
vn 0.914644659 0.09526619 0.392873436
vn 0.931595564 -0.358390629 -0.06071141
vn 0.9927657 0.104034841 0.0599411353
vn 0.955114543 -0.291224152 -0.05426467
vn 0.837148845 0.0211042333 0.546567857
vn 0.6776449 0.433839649 0.5937849
vn 0.387973517 0.7208248 0.57435894
vn 0.5967717 0.16682829 0.784877
vn 0.524927735 -0.192323074 0.8291337
vn -0.7344754 0.384660423 0.5590906
vn 0.2827744 0.170247868 0.943956733
vn 0.385796458 0.7893418 -0.477598846
vn 0.6801912 0.731714368 -0.04397712
vn -0.0134909209 0.818272 -0.574672937
vn 0.6801912 0.731714368 -0.04397712
vn 0.00206180173 0.9999934 -0.0029869033
vn 0.016560588 0.8300992 0.557369769
vn 0.3600296 0.932123363 0.03904739
vn 0.7797728 -0.28845647 0.555650234
vn 0.0255615357 0.353204638 0.9351968
vn 0.6159909 0.09709469 -0.7817467
vn -0.03399134 0.225713074 -0.9736006
vn 0.882807434 -0.3359908 -0.328270078
vn 0.00206180173 0.9999934 -0.0029869033
vn 0.3600296 0.932123363 0.03904739
vn 0.0264641028 -0.0209293962 0.999430656
vn 0.489763647 -0.0354691781 0.871133447
vn 0.026270058 -0.07724514 0.996665955
vn 0.899612 -0.435631871 -0.03038328
vn 0.9670911 0.2010645 -0.15590997
vn 0.982795238 -0.180986956 0.0368414819
vn 0.8490848 -0.2293036 0.4758937
vn 0.929926455 -0.360091418 -0.07463901
vn 0.882807434 -0.3359908 -0.328270078
vn 0.8589806 0.310417145 -0.407177567
vn 0.8572707 0.305453658 -0.41446954
vn 0.885466754 0.2090341 -0.415034145
vn 0.8840299 0.229096621 -0.407438159
vn 0.9025488 0.08259431 -0.422591776
vn 0.74038595 -0.19370164 0.6436679
vn 0.7403852 -0.193702489 0.643668532
vn 0.0332126021 -0.26957947 0.9624052
vn 0.0329214931 -0.269576252 0.9624161
vn -0.03321862 0.2695803 -0.9624048
vn -0.0329361968 0.269578338 -0.96241504
vn 0.6713899 0.187821746 -0.716909051
vn 0.6713902 0.1878214 -0.7169089
vn 0.29851076 0.3167523 -0.900310636
vn 0.29851076 0.3167523 -0.900310636
vn 0.29851076 0.3167523 -0.900310636
vn 0.6549857 0.419971824 -0.628185749
vn 0.6549857 0.419971824 -0.628185749
vn 0.6549857 0.419971824 -0.628185749
vn 0.287212551 0.266373545 -0.920083761
vn 0.287212551 0.266373545 -0.920083761
vn 0.287212551 0.266373545 -0.920083761
vn 0.295955926 0.270311922 -0.9161559
vn 0.295955926 0.270311922 -0.9161559
vn 0.295955926 0.270311922 -0.9161559
vn 0.28726837 0.2630262 -0.921028852
vn 0.28726837 0.2630262 -0.921028852
vn 0.28726837 0.2630262 -0.921028852
vn -0.6239641 0.378253639 -0.6838078
vn -0.653475046 -0.102456979 -0.74998194
vn -0.9802256 -0.1767847 0.08890925
vn -0.9731269 0.205218837 -0.1044473
vn -0.6509004 -0.408232272 -0.640058637
vn -0.7118849 -0.4287807 -0.556207657
vn -0.934107661 -0.3561011 -0.0251967479
vn -0.892115951 0.09913443 0.4407965
vn -0.9877381 0.108274475 0.112472586
vn -0.9350288 -0.354394764 -0.0112007055
vn -0.957885444 -0.287128985 -0.00352375582
vn -0.8068995 0.0246239677 0.590175331
vn -0.5536063 0.169291109 0.8153899
vn -0.35389334 0.722412765 0.59403646
vn -0.6433527 0.4366675 0.6288234
vn -0.481054276 -0.190169469 0.8558168
vn 0.764720738 0.381450653 0.5193241
vn -0.231606 0.1713492 0.9576002
vn -0.6784298 0.734622359 -0.007940469
vn -0.4071916 0.7910391 -0.456565619
vn -0.6784298 0.734622359 -0.007940469
vn -0.353462219 0.9336507 0.0579725653
vn -0.7504478 -0.285180628 0.596238256
vn -0.6649906 0.102221169 -0.739823163
vn -0.9003974 -0.332173556 -0.280971855
vn -0.353462219 0.9336507 0.0579725653
vn -0.4430432 -0.0334726237 0.895875156
vn -0.901813149 -0.431775838 0.0173983071
vn -0.9731269 0.205218837 -0.1044473
vn -0.9802256 -0.1767847 0.08890925
vn -0.8236365 -0.225722775 0.520261645
vn -0.934107661 -0.3561011 -0.0251967479
vn -0.9003974 -0.332173556 -0.280971855
vn -0.8780217 0.314135581 -0.361104816
vn -0.9033973 0.232922941 -0.3600281
vn -0.905320644 0.212867558 -0.367534935
vn -0.8767221 0.3091657 -0.36847657
vn -0.923320055 0.08650284 -0.374162138
vn -0.6943452 -0.181644008 0.696340561
vn -0.69434464 -0.181644648 0.696341
vn -0.718915045 0.1995015 -0.6658531
vn -0.718914568 0.199501961 -0.665853441
vn -0.688726366 0.4466307 -0.57111907
vn -0.688726366 0.4466307 -0.57111907
vn -0.688726366 0.4466307 -0.57111907
vn -0.367975622 0.331344873 -0.868794858
vn -0.367975622 0.331344873 -0.868794858
vn -0.367975622 0.331344873 -0.868794858
vn -0.36799106 0.278521568 -0.8871349
vn -0.36799106 0.278521568 -0.8871349
vn -0.36799106 0.278521568 -0.8871349
vn -0.359725177 0.2743744 -0.8918052
vn -0.359725177 0.2743744 -0.8918052
vn -0.359725177 0.2743744 -0.8918052
vn -0.35994342 0.2710315 -0.8927389
vn -0.35994342 0.2710315 -0.8927389
vn -0.35994342 0.2710315 -0.8927389
vn -0.2871793 0.371193647 0.8830308
vn -0.287179261 0.371193618 0.8830308
vn -0.287179261 0.3711936 0.8830308
vn 0.7806233 0.6179208 0.09381394
vn 0.7806233 0.6179208 0.09381394
vn 0.7806233 0.6179208 0.09381394
usemtl 0000670001_part_0_material_0
f 1/1/1 2/2/2 3/3/3
f 3/3/3 4/4/4 1/1/1
f 1/1/1 4/4/4 5/5/5
f 5/5/5 6/6/6 1/1/1
f 7/7/7 5/5/5 4/4/4
f 4/4/4 8/8/8 7/7/7
f 8/8/8 9/9/9 10/10/10
f 10/10/10 7/7/7 8/8/8
f 8/8/8 11/11/11 9/9/9
f 4/4/4 3/3/3 11/11/11
f 11/11/11 8/8/8 4/4/4
f 12/12/12 13/13/13 14/14/14
f 14/14/14 13/13/13 15/15/15
f 16/16/16 17/17/17 18/18/18
f 18/18/18 19/19/19 16/16/16
f 20/20/20 21/21/21 16/16/16
f 16/16/16 19/19/19 20/20/20
f 19/19/19 22/22/22 20/20/20
f 1/1/1 23/23/23 24/24/24
f 24/24/24 2/2/2 1/1/1
f 25/25/25 23/23/23 1/1/1
f 1/1/1 6/6/6 25/25/25
f 17/17/17 12/12/12 14/14/14
f 14/14/14 26/26/26 17/17/17
f 27/27/27 28/28/28 18/18/18
f 18/18/18 29/29/29 27/27/27
f 16/16/16 30/30/30 12/12/12
f 12/12/12 17/17/17 16/16/16
f 18/18/18 28/28/28 31/31/31
f 31/31/31 22/22/22 18/18/18
f 32/32/32 33/33/33 10/10/10
f 10/10/10 9/9/9 32/32/32
f 9/9/9 11/11/11 34/34/34
f 29/29/29 18/18/18 17/17/17
f 17/17/17 26/26/26 29/29/29
f 25/25/25 35/35/35 36/36/36
f 36/36/36 23/23/23 25/25/25
f 19/19/19 18/18/18 22/22/22
f 37/37/37 38/38/38 22/22/22
f 22/22/22 31/31/31 37/37/37
f 38/38/38 37/37/37 39/39/39
f 12/12/12 30/30/30 13/13/13
f 13/13/13 30/30/30 40/40/40
f 26/26/26 14/14/14 41/41/41
f 41/41/41 14/14/14 15/15/15
f 15/15/15 42/42/42 41/41/41
f 43/43/43 44/44/44 42/42/42
f 42/42/42 15/15/15 43/43/43
f 44/44/44 43/43/43 45/45/45
f 15/15/15 13/13/13 40/40/40
f 46/46/46 47/47/47 48/48/48
f 48/48/48 49/49/49 46/46/46
f 50/50/50 49/49/49 48/48/48
f 36/36/36 24/24/24 23/23/23
f 51/51/51 52/52/52 53/53/53
f 53/53/53 54/54/54 51/51/51
f 55/55/55 56/56/56 57/57/57
f 57/57/57 58/58/58 55/55/55
f 59/59/59 60/60/60 61/61/61
f 62/62/62 63/63/63 64/64/64
f 65/65/65 66/66/66 67/67/67
f 68/68/68 69/69/69 70/70/70
f 71/71/71 72/72/72 73/73/73
f 74/74/74 75/75/75 76/76/76
f 76/76/76 77/77/77 74/74/74
f 74/74/74 6/6/6 5/5/5
f 5/5/5 75/75/75 74/74/74
f 7/7/7 78/78/78 75/75/75
f 75/75/75 5/5/5 7/7/7
f 78/78/78 7/7/7 10/10/10
f 10/10/10 79/79/79 78/78/78
f 78/78/78 79/79/79 80/80/80
f 75/75/75 78/78/78 80/80/80
f 80/80/80 76/76/76 75/75/75
f 81/81/81 82/82/82 83/83/83
f 82/82/82 84/84/84 83/83/83
f 85/85/85 86/86/86 87/87/87
f 87/87/87 88/88/88 85/85/85
f 89/89/89 86/86/86 85/85/85
f 85/85/85 90/90/90 89/89/89
f 86/86/86 89/89/89 91/91/91
f 74/74/74 77/77/77 92/92/92
f 92/92/92 93/93/93 74/74/74
f 25/25/25 6/6/6 74/74/74
f 74/74/74 93/93/93 25/25/25
f 88/88/88 94/94/94 82/82/82
f 82/82/82 81/81/81 88/88/88
f 27/27/27 95/95/95 87/87/87
f 87/87/87 28/28/28 27/27/27
f 85/85/85 88/88/88 81/81/81
f 81/81/81 96/96/96 85/85/85
f 87/87/87 91/91/91 31/31/31
f 31/31/31 28/28/28 87/87/87
f 97/97/97 79/79/79 10/10/10
f 10/10/10 33/33/33 97/97/97
f 79/79/79 98/98/98 80/80/80
f 95/95/95 94/94/94 88/88/88
f 88/88/88 87/87/87 95/95/95
f 25/25/25 93/93/93 99/99/99
f 99/99/99 35/35/35 25/25/25
f 86/86/86 91/91/91 87/87/87
f 37/37/37 31/31/31 91/91/91
f 91/91/91 100/100/100 37/37/37
f 100/100/100 39/39/39 37/37/37
f 81/81/81 83/83/83 96/96/96
f 83/83/83 101/101/101 96/96/96
f 94/94/94 102/102/102 82/82/82
f 102/102/102 103/103/103 84/84/84
f 84/84/84 82/82/82 102/102/102
f 104/104/104 84/84/84 103/103/103
f 103/103/103 105/105/105 104/104/104
f 105/105/105 106/106/106 104/104/104
f 84/84/84 101/101/101 83/83/83
f 107/107/107 108/108/108 109/109/109
f 109/109/109 110/110/110 107/107/107
f 111/111/111 109/109/109 108/108/108
f 99/99/99 93/93/93 92/92/92
f 112/112/112 54/54/54 53/53/53
f 53/53/53 113/113/113 112/112/112
f 55/55/55 114/114/114 115/115/115
f 115/115/115 56/56/56 55/55/55
f 116/116/116 117/117/117 118/118/118
f 119/119/119 120/120/120 121/121/121
f 122/122/122 123/123/123 124/124/124
f 125/125/125 126/126/126 127/127/127
f 128/128/128 129/129/129 130/130/130
f 131/131/131 132/132/132 133/133/133
f 134/134/134 135/135/135 136/136/136
