mtllib 0000991203.mtl
o 0000991203_part_0
v -0.355018854 1.13860023 0.04174217
v -0.342049241 1.153384 0.05052347
v -0.5101209 1.16609478 -0.00744101638
v -0.499797165 1.126579 -0.006753938
v -0.342049241 1.153384 0.05052347
v -0.355018854 1.13860023 0.04174217
v -0.36022535 1.08435965 -0.06536454
v -0.336230427 1.09241581 -0.0834458247
v -0.342164129 1.122601 -0.08885135
v -0.429512143 1.10166955 -0.127167583
v -0.38318646 1.27505422 -0.1930487
v -0.28704825 1.27213955 -0.147790328
v -0.4738297 1.03833091 0.09045306
v -0.5338343 1.03682315 0.0605153777
v -0.486505926 1.18669343 -0.0255066864
v -0.469439924 1.34977353 -0.06451239
v -0.4759633 1.12742341 -0.105006874
v -0.340604037 1.09653032 0.08723528
v -0.32381314 1.00703287 0.0743507743
v -0.340604037 1.09653032 0.08723528
v -0.4089627 1.03381741 0.10888879
v -0.45022893 1.043267 -0.1061808
v -0.495105654 0.9631354 -0.07910178
v -0.536974251 0.9847769 -0.0524429269
v -0.4925912 1.07613158 -0.08308163
v -0.45040372 0.998117745 0.101060763
v -0.5318328 0.902478337 0.08566043
v -0.491266429 0.8322693 0.103205837
v -0.484730363 0.8435525 0.129085973
v -0.541138053 0.932984948 0.119931
v -0.4694893 0.895257533 0.07335534
v -0.490062654 0.911147058 -0.0534764864
v -0.4529985 0.8590915 0.1279632
v -0.492052943 0.9296484 0.124676138
v -0.337064773 1.04879081 0.13321802
v -0.3963848 0.9605519 0.177672833
v -0.346302718 0.929995656 0.174719363
v -0.492052943 0.9296484 0.124676138
v -0.4529985 0.8590915 0.1279632
v -0.4632822 0.8355959 0.08144325
v -0.484730363 0.8435525 0.129085973
v -0.491266429 0.8322693 0.103205837
v -0.418035269 0.990892649 0.113092542
v -0.384932429 0.9152068 0.152932584
v -0.337064773 1.04879081 0.13321802
v -0.346302718 0.929995656 0.174719363
v -0.418035269 0.990892649 0.113092542
v -0.384932429 0.9152068 0.152932584
v -0.523418248 0.8976735 -0.034574315
v -0.45040372 0.998117745 0.101060763
v -0.4098867 0.8433076 0.0627346262
v -0.451651841 0.83483845 -0.0344614461
v -0.451651841 0.83483845 -0.0344614461
v -0.438781828 0.8189476 0.07181488
v -0.438781828 0.8189476 0.07181488
v -0.4694893 0.895257533 0.07335534
v -0.4098867 0.8433076 0.0627346262
v -0.4632822 0.8355959 0.08144325
v -0.3069596 1.33285618 0.0128890947
v -0.349696755 1.29386044 -0.0795315057
v -0.3752002 1.29651582 -0.0916807
v -0.469439924 1.34977353 -0.06451239
v -0.28704825 1.27213955 -0.147790328
v -0.3465714 1.28433013 -0.104752287
v -0.349696755 1.29386044 -0.0795315057
v -0.3069596 1.33285618 0.0128890947
v -0.38318646 1.27505422 -0.1930487
v -0.361337632 1.28593254 -0.112003841
v -0.3465714 1.28433013 -0.104752287
v -0.3465714 1.28433013 -0.104752287
v -0.28704825 1.27213955 -0.147790328
v -0.38318646 1.27505422 -0.1930487
v -0.469439924 1.34977353 -0.06451239
v -0.3752002 1.29651582 -0.0916807
v -0.361337632 1.28593254 -0.112003841
v -0.361337632 1.28593254 -0.112003841
v -0.38318646 1.27505422 -0.1930487
v -0.469439924 1.34977353 -0.06451239
v -0.4991885 1.09029 -0.103808641
v -0.341450721 1.17977428 0.0265876576
v -0.3069596 1.33285618 0.0128890947
v -0.3069596 1.33285618 0.0128890947
v -0.341450721 1.17977428 0.0265876576
v -0.4338199 1.0576055 -0.133836776
v 0.390880048 1.12111306 0.007864438
v 0.5281409 1.119505 -0.0596968569
v 0.5345562 1.15929723 -0.0626665652
v 0.3778729 1.13495314 0.0180029012
v 0.3778729 1.13495314 0.0180029012
v 0.361139476 1.06872392 -0.112388507
v 0.3876892 1.06358218 -0.09761173
v 0.390880048 1.12111306 0.007864438
v 0.363516748 1.09874892 -0.119217873
v 0.300613075 1.2516551 -0.177676126
v 0.393029839 1.25906169 -0.229672864
v 0.446464121 1.08391571 -0.168637082
v 0.5029188 0.996761 0.0290489234
v 0.5853199 1.04545176 7.30975E-05
v 0.5072269 1.17683339 -0.07775755
v 0.4924603 1.114173 -0.1536515
v 0.484874755 1.33707356 -0.107105039
v 0.388189167 0.9909576 0.057390593
v 0.393411577 1.08275628 0.055531323
v 0.393411577 1.08275628 0.055531323
v 0.472668916 1.03301072 0.07337283
v 0.474789828 1.02899849 -0.149422154
v 0.5162327 1.06595683 -0.13310492
v 0.5750479 0.9838792 -0.107544549
v 0.532393336 0.954949 -0.124147579
v 0.5166514 1.0008899 0.0583961047
v 0.602377057 0.913235962 0.0358147956
v 0.6114928 0.9466129 0.06735204
v 0.5660267 0.852685 0.08669605
v 0.571317255 0.84052217 0.0609300248
v 0.547285736 0.908907235 -0.09881498
v 0.540292144 0.89899224 0.030083552
v 0.56369 0.9386341 0.077059485
v 0.5328511 0.864834964 0.08787504
v 0.40376997 1.0424788 0.107265413
v 0.43636927 0.933424532 0.161712065
v 0.4813118 0.970040858 0.1522232
v 0.541253269 0.8396329 0.04187326
v 0.5328511 0.864834964 0.08787504
v 0.56369 0.9386341 0.077059485
v 0.571317255 0.84052217 0.0609300248
v 0.5660267 0.852685 0.08669605
v 0.4730821 0.92040205 0.1358622
v 0.4884547 0.9926788 0.08153786
v 0.43636927 0.933424532 0.161712065
v 0.40376997 1.0424788 0.107265413
v 0.4884547 0.9926788 0.08153786
v 0.4730821 0.92040205 0.1358622
v 0.583485961 0.900085568 -0.0825933
v 0.5166514 1.0008899 0.0583961047
v 0.5191457 0.830447137 -0.07212942
v 0.4858452 0.8407195 0.0281137023
v 0.5191457 0.830447137 -0.07212942
v 0.517885745 0.8200226 0.0355857275
v 0.517885745 0.8200226 0.0355857275
v 0.540292144 0.89899224 0.030083552
v 0.4858452 0.8407195 0.0281137023
v 0.541253269 0.8396329 0.04187326
v 0.3292832 1.31257308 -0.0184031874
v 0.484874755 1.33707356 -0.107105039
v 0.396761358 1.28197992 -0.126541987
v 0.364642322 1.27692223 -0.108231105
v 0.300613075 1.2516551 -0.177676126
v 0.3292832 1.31257308 -0.0184031874
v 0.364642322 1.27692223 -0.108231105
v 0.3587239 1.26434684 -0.141110092
v 0.393029839 1.25906169 -0.229672864
v 0.300613075 1.2516551 -0.177676126
v 0.3587239 1.26434684 -0.141110092
v 0.3587239 1.26434684 -0.141110092
v 0.37729618 1.26736164 -0.151996344
v 0.393029839 1.25906169 -0.229672864
v 0.484874755 1.33707356 -0.107105039
v 0.393029839 1.25906169 -0.229672864
v 0.37729618 1.26736164 -0.151996344
v 0.37729618 1.26736164 -0.151996344
v 0.396761358 1.28197992 -0.126541987
v 0.484874755 1.33707356 -0.107105039
v 0.5188349 1.07959676 -0.154828429
v 0.3292832 1.31257308 -0.0184031874
v 0.371884346 1.15990257 -0.00617929874
v 0.3292832 1.31257308 -0.0184031874
v 0.371884346 1.15990257 -0.00617929874
v 0.4539227 1.04057181 -0.1748504
vt 0.134589136 0.7450401
vt 0.135175988 0.7721407
vt 0.30389595 0.7566495
vt 0.299492449 0.727499664
vt 0.851950169 0.788035631
vt 0.852273941 0.7604643
vt 0.682139337 0.70941186
vt 0.6784522 0.750989735
vt 0.6761804 0.7988578
vt 0.53417635 0.7436885
vt 0.532654047 0.9615185
vt 0.653015256 0.961590052
vt 0.184490025 0.554699838
vt 0.272141576 0.5666061
vt 0.3091154 0.801050961
vt 0.3395135 0.961656153
vt 0.4423924 0.766299963
vt 0.9008364 0.6722418
vt 0.87371856 0.5560194
vt 0.07333287 0.6427005
vt 0.137944028 0.532099843
vt 0.532789648 0.639705539
vt 0.5328009 0.5121413
vt 0.4455803 0.5384857
vt 0.424922168 0.694503248
vt 0.814246237 0.466925144
vt 0.2757776 0.357800066
vt 0.258922428 0.245591044
vt 0.215044379 0.2539301
vt 0.227532521 0.390857935
vt 0.7274572 0.3471166
vt 0.5329088 0.4312364
vt 0.189595133 0.280795753
vt 0.1924569 0.386314034
vt 0.0215542633 0.5492778
vt 0.0625638738 0.4133755
vt 0.0138244359 0.366273344
vt 0.7950422 0.3441699
vt 0.798222542 0.276777983
vt 0.7216326 0.267321944
vt 0.777214646 0.245669246
vt 0.7347522 0.242391765
vt 0.157718614 0.48220706
vt 0.0729118139 0.349807024
vt 0.947505236 0.53890264
vt 0.973144054 0.404295146
vt 0.836500764 0.483517528
vt 0.896878362 0.382334828
vt 0.445258319 0.410608649
vt 0.174459979 0.495031536
vt 0.7155222 0.3039593
vt 0.5729662 0.3434527
vt 0.433863044 0.301418424
vt 0.2968397 0.237944067
vt 0.705839336 0.274298966
vt 0.2771831 0.2757017
vt 0.2838927 0.24483192
vt 0.271353126 0.244444072
vt 0.152181461 0.9615921
vt 0.153601229 0.991884351
vt 0.343772829 0.991884053
vt 0.3395135 0.961656153
vt 0.653015256 0.961590052
vt 0.653015256 0.9918686
vt 0.841148138 0.9918911
vt 0.842567861 0.961663663
vt 0.532654047 0.9615185
vt 0.5326449 0.991870761
vt 0.653015256 0.9918686
vt 0.653015256 0.9918686
vt 0.653015256 0.961590052
vt 0.532654047 0.9615185
vt 0.3395135 0.961656153
vt 0.343772829 0.991884053
vt 0.53264004 0.991870761
vt 0.53264004 0.991870761
vt 0.532654047 0.9615185
vt 0.3395135 0.961656153
vt 0.4337662 0.7237017
vt 0.138592452 0.8109167
vt 0.152181461 0.9615921
vt 0.842567861 0.961663663
vt 0.852268338 0.8256488
vt 0.5327771 0.687799931
vt 0.134589136 0.7450401
vt 0.299492449 0.727499664
vt 0.30389595 0.7566495
vt 0.135175988 0.7721407
vt 0.851950169 0.788035631
vt 0.6784522 0.750989735
vt 0.682139337 0.70941186
vt 0.852273941 0.7604643
vt 0.6761804 0.7988578
vt 0.653015256 0.961590052
vt 0.532654047 0.9615185
vt 0.53417635 0.7436885
vt 0.184490025 0.554699838
vt 0.272141576 0.5666061
vt 0.3091154 0.801050961
vt 0.4423924 0.766299963
vt 0.3395135 0.961656153
vt 0.87371856 0.5560194
vt 0.9008364 0.6722418
vt 0.07333287 0.6427005
vt 0.137944028 0.532099843
vt 0.532789648 0.639705539
vt 0.424922168 0.694503248
vt 0.4455803 0.5384857
vt 0.5328009 0.5121413
vt 0.814246237 0.466925144
vt 0.2757776 0.357800066
vt 0.227532521 0.390857935
vt 0.215044379 0.2539301
vt 0.258922428 0.245591044
vt 0.5329088 0.4312364
vt 0.7274572 0.3471166
vt 0.1924569 0.386314034
vt 0.189595133 0.280795753
vt 0.0215542633 0.5492778
vt 0.0138244359 0.366273344
vt 0.0625638738 0.4133755
vt 0.7216326 0.267321944
vt 0.798222542 0.276777983
vt 0.7950422 0.3441699
vt 0.7347522 0.242391765
vt 0.777214646 0.245669246
vt 0.0729118139 0.349807024
vt 0.157718614 0.48220706
vt 0.973144054 0.404295146
vt 0.947505236 0.53890264
vt 0.836500764 0.483517528
vt 0.896878362 0.382334828
vt 0.445258319 0.410608649
vt 0.174459979 0.495031536
vt 0.5729662 0.3434527
vt 0.7155222 0.3039593
vt 0.433863044 0.301418424
vt 0.2968397 0.237944067
vt 0.705839336 0.274298966
vt 0.2771831 0.2757017
vt 0.2838927 0.24483192
vt 0.271353126 0.244444072
vt 0.152181461 0.9615921
vt 0.3395135 0.961656153
vt 0.343772829 0.991884053
vt 0.153601229 0.991884351
vt 0.653015256 0.961590052
vt 0.842567861 0.961663663
vt 0.841148138 0.9918911
vt 0.653015256 0.9918686
vt 0.532654047 0.9615185
vt 0.653015256 0.961590052
vt 0.653015256 0.9918686
vt 0.653015256 0.9918686
vt 0.5326449 0.991870761
vt 0.532654047 0.9615185
vt 0.3395135 0.961656153
vt 0.532654047 0.9615185
vt 0.53264004 0.991870761
vt 0.53264004 0.991870761
vt 0.343772829 0.991884053
vt 0.3395135 0.961656153
vt 0.4337662 0.7237017
vt 0.152181461 0.9615921
vt 0.138592452 0.8109167
vt 0.842567861 0.961663663
vt 0.852268338 0.8256488
vt 0.5327771 0.687799931
vn 0.4142544 -0.140249163 0.8992905
vn 0.503795743 0.01284904 0.8637272
vn -0.8195966 0.386576116 0.4228716
vn -0.8516954 0.180811241 0.491855919
vn 0.503795743 0.01284904 0.8637272
vn 0.4142544 -0.140249163 0.8992905
vn 0.599530637 -0.8002507 -0.0127186356
vn 0.8171123 -0.480263382 -0.3188644
vn 0.837749362 -0.175467908 -0.5170948
vn -0.00621767435 -0.05826231 -0.998281956
vn -0.2784187 -0.272676051 -0.920940161
vn 0.8229862 -0.443323731 -0.3551871
vn -0.258683026 0.486509979 0.834500551
vn -0.8296801 0.395444 0.3940241
vn -0.768936932 0.600884736 0.218342572
vn -0.9339112 0.141303837 0.328394771
vn -0.684529066 0.247202665 -0.6857921
vn 0.5418766 0.6732674 0.5030713
vn 0.8005817 -0.4753111 -0.3648949
vn 0.5418766 0.6732674 0.5030713
vn -0.37712878 0.4845354 0.789303064
vn -0.03317262 -0.645369947 -0.763149559
vn 0.113028958 -0.4415914 -0.890068233
vn -0.9001644 -0.0183386765 -0.435164
vn -0.910535455 -0.212083861 -0.3548881
vn 0.38210693 -0.350374341 0.855121136
vn -0.903935969 -0.426935315 -0.0250190422
vn -0.429791152 -0.896561 -0.107041351
vn -0.1741658 -0.6281129 0.7583801
vn -0.7899435 0.0203749854 0.612841
vn 0.9821008 0.165068612 0.09072147
vn 0.4976268 -0.227524281 -0.837018669
vn 0.7911541 -0.161811978 0.5898238
vn 0.3440596 0.130216882 0.9298745
vn 0.5047221 0.5143322 0.6933383
vn -0.543922067 0.009735733 0.839079261
vn 0.5947163 -0.557881832 0.5788613
vn 0.3440596 0.130216882 0.9298745
vn 0.7911541 -0.161811978 0.5898238
vn 0.374251634 -0.6685514 -0.6426311
vn -0.1741658 -0.6281129 0.7583801
vn -0.429791152 -0.896561 -0.107041351
vn -0.8078413 -0.589252532 0.0131869391
vn -0.31477657 -0.948700666 -0.0297114253
vn 0.5047221 0.5143322 0.6933383
vn 0.5947163 -0.557881832 0.5788613
vn -0.8078413 -0.589252532 0.0131869391
vn -0.31477657 -0.948700666 -0.0297114253
vn -0.7762798 -0.464929223 -0.425711751
vn 0.38210693 -0.350374341 0.855121136
vn 0.957745433 0.027811138 0.286269575
vn 0.382558465 -0.601179361 -0.7015928
vn 0.382558465 -0.601179361 -0.7015928
vn 0.0816692337 -0.8219302 0.5637028
vn 0.0816692337 -0.8219302 0.5637028
vn 0.9821008 0.165068612 0.09072147
vn 0.957745433 0.027811138 0.286269575
vn 0.374251634 -0.6685514 -0.6426311
vn 0.317757815 0.8120126 -0.489556432
vn 0.317757815 0.8120126 -0.489556432
vn 0.317757815 0.8120126 -0.489556432
vn 0.31775853 0.812012136 -0.48955673
vn -0.06990986 0.930257857 -0.36018455
vn -0.06990986 0.930257857 -0.36018455
vn -0.06990986 0.930257857 -0.36018455
vn -0.06990891 0.9302582 -0.3601838
vn 0.193829626 0.9640698 -0.1816576
vn 0.193829626 0.9640698 -0.1816576
vn 0.193829626 0.9640698 -0.1816576
vn 0.09761346 0.9847615 -0.143932074
vn 0.09761346 0.9847615 -0.143932074
vn 0.09761346 0.9847615 -0.143932074
vn 0.453913331 0.8786766 -0.1479531
vn 0.453913331 0.8786766 -0.1479531
vn 0.453913331 0.8786766 -0.1479531
vn 0.417711139 0.8788364 -0.230573118
vn 0.417711139 0.8788364 -0.230573118
vn 0.417711139 0.8788364 -0.230573118
vn -0.8327842 -0.128810614 -0.5384035
vn 0.6307846 0.282182664 0.722830355
vn 0.3870933 -0.0372569822 0.921287537
vn 0.3870933 -0.0372569822 0.921287537
vn 0.6307846 0.282182664 0.722830355
vn 0.08359413 -0.5158035 -0.852618754
vn -0.232150674 -0.226421937 0.9459594
vn 0.8656704 0.245606154 0.4362252
vn 0.828682244 0.472579569 0.299923867
vn -0.3860489 0.00213789125 0.9224758
vn -0.3860489 0.00213789125 0.9224758
vn -0.8035933 -0.562461853 -0.19461377
vn -0.503415048 -0.8567546 0.112003915
vn -0.232150674 -0.226421937 0.9459594
vn -0.8811128 -0.225858808 -0.415485233
vn -0.829646945 -0.461447865 -0.314248085
vn 0.224366158 -0.253577024 -0.9409349
vn -0.135136828 -0.08240047 -0.987394631
vn 0.463265866 0.7908934 0.399840444
vn 0.6939492 0.598210335 0.400722951
vn 0.7667888 0.6307892 0.118911467
vn 0.5758658 0.260753036 -0.7748461
vn 0.949039042 0.170696825 0.2649292
vn -0.7638238 -0.621084154 -0.175578013
vn -0.5565115 0.6381599 0.532021463
vn -0.5565115 0.6381599 0.532021463
vn 0.623423636 0.713091731 0.320691615
vn -0.0135374712 -0.68579495 -0.7276689
vn 0.869516134 -0.133825108 -0.47542876
vn 0.788276434 0.08236457 -0.6097839
vn -0.227548644 -0.541014552 -0.809644938
vn 0.7350202 -0.229055926 -0.6381839
vn 0.939198852 -0.330396026 -0.09350936
vn 0.805808961 0.233707771 0.5441072
vn 0.3092434 -0.558556 0.769664645
vn 0.511242867 -0.8534439 -0.10131219
vn -0.4474489 -0.4135922 -0.7929256
vn -0.9793182 0.06204786 0.19257693
vn -0.265336037 0.3019647 0.915649533
vn -0.7116901 -0.203724489 0.67230463
vn -0.466054529 0.5470327 0.6953764
vn -0.413979083 -0.5329308 0.7379743
vn 0.6550882 0.204215661 0.7274307
vn -0.358415961 -0.7418875 -0.566693
vn -0.7116901 -0.203724489 0.67230463
vn -0.265336037 0.3019647 0.915649533
vn 0.511242867 -0.8534439 -0.10131219
vn 0.3092434 -0.558556 0.769664645
vn 0.442433029 -0.8958426 0.04146091
vn 0.8934196 -0.448720127 -0.0212519988
vn -0.413979083 -0.5329308 0.7379743
vn -0.466054529 0.5470327 0.6953764
vn 0.8934196 -0.448720127 -0.0212519988
vn 0.442433029 -0.8958426 0.04146091
vn 0.784813464 -0.37415567 -0.4940398
vn 0.7350202 -0.229055926 -0.6381839
vn -0.379252434 -0.679526 -0.6280223
vn -0.9247941 -0.051298853 0.376993865
vn -0.379252434 -0.679526 -0.6280223
vn 0.058697436 -0.7890565 0.611510038
vn 0.058697436 -0.7890565 0.611510038
vn -0.9793182 0.06204786 0.19257693
vn -0.9247941 -0.051298853 0.376993865
vn -0.358415961 -0.7418875 -0.566693
vn -0.3917717 0.7918564 -0.468485117
vn -0.3917717 0.7918564 -0.468485117
vn -0.3917717 0.7918564 -0.468485117
vn -0.391772151 0.7918561 -0.4684853
vn 0.023411151 0.9323443 -0.360812873
vn 0.023411151 0.9323443 -0.360812873
vn 0.023411151 0.9323443 -0.360812873
vn 0.0234105941 0.932344556 -0.360812455
vn -0.142958611 0.9831358 -0.114047274
vn -0.142958611 0.9831358 -0.114047274
vn -0.142958611 0.9831358 -0.114047274
vn -0.244468525 0.9576934 -0.151850119
vn -0.244468525 0.9576934 -0.151850119
vn -0.244468525 0.9576934 -0.151850119
vn -0.477493465 0.8581949 -0.188418478
vn -0.477493465 0.8581949 -0.188418478
vn -0.477493465 0.8581949 -0.188418478
vn -0.511822641 0.853401661 -0.0987078
vn -0.511822641 0.853401661 -0.0987078
vn -0.511822641 0.853401661 -0.0987078
vn 0.765119135 -0.07472682 -0.6395378
vn -0.323394835 -0.0335695669 0.945668459
vn -0.575610161 0.2435046 0.780626953
vn -0.323394835 -0.0335695669 0.945668459
vn -0.575610161 0.2435046 0.780626953
vn -0.147382766 -0.5526462 -0.820280731
usemtl 0000991203_part_0_material_0
f 1/1/1 2/2/2 3/3/3
f 3/3/3 4/4/4 1/1/1
f 5/5/5 6/6/6 7/7/7
f 7/7/7 8/8/8 5/5/5
f 9/9/9 10/10/10 11/11/11
f 11/11/11 12/12/12 9/9/9
f 13/13/13 1/1/1 4/4/4
f 4/4/4 14/14/14 13/13/13
f 15/15/15 16/16/16 11/11/11
f 11/11/11 17/17/17 15/15/15
f 7/7/7 6/6/6 18/18/18
f 18/18/18 19/19/19 7/7/7
f 20/20/20 1/1/1 21/21/21
f 22/22/22 23/23/23 24/24/24
f 24/24/24 25/25/25 22/22/22
f 26/26/26 23/23/23 7/7/7
f 27/27/27 28/28/28 29/29/29
f 29/29/29 30/30/30 27/27/27
f 23/23/23 26/26/26 31/31/31
f 31/31/31 32/32/32 23/23/23
f 29/29/29 33/33/33 34/34/34
f 34/34/34 30/30/30 29/29/29
f 35/35/35 21/21/21 36/36/36
f 36/36/36 37/37/37 35/35/35
f 31/31/31 38/38/38 39/39/39
f 39/39/39 40/40/40 31/31/31
f 39/39/39 41/41/41 42/42/42
f 42/42/42 40/40/40 39/39/39
f 36/36/36 21/21/21 43/43/43
f 43/43/43 44/44/44 36/36/36
f 19/19/19 45/45/45 46/46/46
f 37/37/37 36/36/36 44/44/44
f 20/20/20 21/21/21 35/35/35
f 45/45/45 19/19/19 18/18/18
f 7/7/7 19/19/19 26/26/26
f 47/47/47 19/19/19 48/48/48
f 19/19/19 46/46/46 48/48/48
f 24/24/24 14/14/14 4/4/4
f 4/4/4 25/25/25 24/24/24
f 14/14/14 24/24/24 49/49/49
f 49/49/49 27/27/27 14/14/14
f 23/23/23 32/32/32 49/49/49
f 49/49/49 24/24/24 23/23/23
f 13/13/13 30/30/30 34/34/34
f 34/34/34 50/50/50 13/13/13
f 14/14/14 30/30/30 13/13/13
f 30/30/30 14/14/14 27/27/27
f 31/31/31 51/51/51 52/52/52
f 52/52/52 32/32/32 31/31/31
f 38/38/38 31/31/31 26/26/26
f 53/53/53 49/49/49 32/32/32
f 54/54/54 27/27/27 49/49/49
f 49/49/49 53/53/53 54/54/54
f 55/55/55 52/52/52 51/51/51
f 56/56/56 27/27/27 54/54/54
f 57/57/57 56/56/56 54/54/54
f 28/28/28 27/27/27 56/56/56
f 58/58/58 28/28/28 56/56/56
f 22/22/22 7/7/7 23/23/23
f 21/21/21 13/13/13 50/50/50
f 50/50/50 43/43/43 21/21/21
f 1/1/1 13/13/13 21/21/21
f 26/26/26 19/19/19 47/47/47
f 10/10/10 17/17/17 11/11/11
f 59/59/59 60/60/60 61/61/61
f 61/61/61 62/62/62 59/59/59
f 63/63/63 64/64/64 65/65/65
f 65/65/65 66/66/66 63/63/63
f 67/67/67 68/68/68 69/69/69
f 70/70/70 71/71/71 72/72/72
f 73/73/73 74/74/74 75/75/75
f 76/76/76 77/77/77 78/78/78
f 3/3/3 15/15/15 17/17/17
f 17/17/17 79/79/79 3/3/3
f 4/4/4 3/3/3 79/79/79
f 79/79/79 25/25/25 4/4/4
f 16/16/16 15/15/15 80/80/80
f 80/80/80 81/81/81 16/16/16
f 82/82/82 83/83/83 9/9/9
f 9/9/9 12/12/12 82/82/82
f 15/15/15 3/3/3 2/2/2
f 2/2/2 80/80/80 15/15/15
f 83/83/83 5/5/5 8/8/8
f 8/8/8 9/9/9 83/83/83
f 17/17/17 10/10/10 84/84/84
f 84/84/84 79/79/79 17/17/17
f 10/10/10 9/9/9 8/8/8
f 8/8/8 84/84/84 10/10/10
f 79/79/79 84/84/84 22/22/22
f 22/22/22 25/25/25 79/79/79
f 84/84/84 8/8/8 7/7/7
f 7/7/7 22/22/22 84/84/84
f 85/85/85 86/86/86 87/87/87
f 87/87/87 88/88/88 85/85/85
f 89/89/89 90/90/90 91/91/91
f 91/91/91 92/92/92 89/89/89
f 93/93/93 94/94/94 95/95/95
f 95/95/95 96/96/96 93/93/93
f 97/97/97 98/98/98 86/86/86
f 86/86/86 85/85/85 97/97/97
f 99/99/99 100/100/100 95/95/95
f 95/95/95 101/101/101 99/99/99
f 91/91/91 102/102/102 103/103/103
f 103/103/103 92/92/92 91/91/91
f 104/104/104 105/105/105 85/85/85
f 106/106/106 107/107/107 108/108/108
f 108/108/108 109/109/109 106/106/106
f 110/110/110 91/91/91 109/109/109
f 111/111/111 112/112/112 113/113/113
f 113/113/113 114/114/114 111/111/111
f 109/109/109 115/115/115 116/116/116
f 116/116/116 110/110/110 109/109/109
f 113/113/113 112/112/112 117/117/117
f 117/117/117 118/118/118 113/113/113
f 119/119/119 120/120/120 121/121/121
f 121/121/121 105/105/105 119/119/119
f 116/116/116 122/122/122 123/123/123
f 123/123/123 124/124/124 116/116/116
f 123/123/123 122/122/122 125/125/125
f 125/125/125 126/126/126 123/123/123
f 121/121/121 127/127/127 128/128/128
f 128/128/128 105/105/105 121/121/121
f 102/102/102 129/129/129 130/130/130
f 120/120/120 127/127/127 121/121/121
f 104/104/104 119/119/119 105/105/105
f 130/130/130 103/103/103 102/102/102
f 91/91/91 110/110/110 102/102/102
f 131/131/131 132/132/132 102/102/102
f 102/102/102 132/132/132 129/129/129
f 108/108/108 107/107/107 86/86/86
f 86/86/86 98/98/98 108/108/108
f 98/98/98 111/111/111 133/133/133
f 133/133/133 108/108/108 98/98/98
f 109/109/109 108/108/108 133/133/133
f 133/133/133 115/115/115 109/109/109
f 97/97/97 134/134/134 117/117/117
f 117/117/117 112/112/112 97/97/97
f 98/98/98 97/97/97 112/112/112
f 112/112/112 111/111/111 98/98/98
f 116/116/116 115/115/115 135/135/135
f 135/135/135 136/136/136 116/116/116
f 124/124/124 110/110/110 116/116/116
f 137/137/137 115/115/115 133/133/133
f 138/138/138 137/137/137 133/133/133
f 133/133/133 111/111/111 138/138/138
f 139/139/139 136/136/136 135/135/135
f 140/140/140 138/138/138 111/111/111
f 141/141/141 138/138/138 140/140/140
f 114/114/114 140/140/140 111/111/111
f 142/142/142 140/140/140 114/114/114
f 106/106/106 109/109/109 91/91/91
f 105/105/105 128/128/128 134/134/134
f 134/134/134 97/97/97 105/105/105
f 85/85/85 105/105/105 97/97/97
f 110/110/110 131/131/131 102/102/102
f 96/96/96 95/95/95 100/100/100
f 143/143/143 144/144/144 145/145/145
f 145/145/145 146/146/146 143/143/143
f 147/147/147 148/148/148 149/149/149
f 149/149/149 150/150/150 147/147/147
f 151/151/151 152/152/152 153/153/153
f 154/154/154 155/155/155 156/156/156
f 157/157/157 158/158/158 159/159/159
f 160/160/160 161/161/161 162/162/162
f 87/87/87 163/163/163 100/100/100
f 100/100/100 99/99/99 87/87/87
f 86/86/86 107/107/107 163/163/163
f 163/163/163 87/87/87 86/86/86
f 101/101/101 164/164/164 165/165/165
f 165/165/165 99/99/99 101/101/101
f 166/166/166 94/94/94 93/93/93
f 93/93/93 167/167/167 166/166/166
f 99/99/99 165/165/165 88/88/88
f 88/88/88 87/87/87 99/99/99
f 167/167/167 93/93/93 90/90/90
f 90/90/90 89/89/89 167/167/167
f 100/100/100 163/163/163 168/168/168
f 168/168/168 96/96/96 100/100/100
f 96/96/96 168/168/168 90/90/90
f 90/90/90 93/93/93 96/96/96
f 163/163/163 107/107/107 106/106/106
f 106/106/106 168/168/168 163/163/163
f 168/168/168 106/106/106 91/91/91
f 91/91/91 90/90/90 168/168/168
