mtllib 0000254870.mtl
o 0000254870_part_0
v 0.0935515 -0.00208408455 -0.1561364
v 0.171329692 -0.008248986 -0.133932412
v 0.136326119 -0.00530186528 -0.169877648
v 0.08760503 -0.00335316616 -0.108038306
v 0.217637211 0.2835954 -0.04973024
v 0.191676334 0.4372185 -0.123188518
v 0.175362974 0.270819068 -0.140270934
v 0.22862336 0.412259132 -0.029042108
v 0.200679362 0.283421218 0.01695102
v 0.22862336 0.412259132 -0.029042108
v 0.217637211 0.2835954 -0.04973024
v 0.189704359 0.4030978 0.0310840234
v 0.100887291 0.269853175 -0.1255107
v 0.06806345 0.410211176 -0.0266210772
v 0.08380557 0.278310418 -0.0277653728
v 0.107200205 0.43547 -0.128553391
v 0.123860091 0.280810237 0.0300642941
v 0.116644613 0.399477452 0.0374796726
v 0.08380557 0.278310418 -0.0277653728
v 0.06806345 0.410211176 -0.0266210772
v 0.172777489 0.20263119 -0.181200415
v 0.226694137 0.180024475 -0.06495666
v 0.231752425 0.135551587 0.06587824
v 0.226694137 0.180024475 -0.06495666
v 0.08306429 0.200831175 -0.157937288
v 0.08176035 0.187824965 -0.03261548
v 0.08463356 0.109105386 -0.0829440951
v 0.142997473 0.136145815 0.08981984
v 0.198202163 0.07371209 0.199684769
v 0.306356281 0.0229490343 0.191782892
v 0.183918983 0.0223299116 0.230440438
v 0.2707585 0.07722962 0.1748387
v 0.08176035 0.187824965 -0.03261548
v 0.07703712 0.061895106 -0.0105982712
v 0.257896245 -0.0106361434 -0.0308625549
v 0.07703712 0.061895106 -0.0105982712
v 0.09017563 -0.004393338 0.0207129065
v 0.242074341 0.0497374 -0.0527740568
v 0.297198921 0.04342653 0.07265213
v 0.260787934 0.107167631 0.0909440741
v 0.231752425 0.135551587 0.06587824
v 0.242074341 0.0497374 -0.0527740568
v 0.257896245 -0.0106361434 -0.0308625549
v 0.113709 0.0436496 0.12051972
v 0.07703712 0.061895106 -0.0105982712
v 0.142997473 0.136145815 0.08981984
v 0.09017563 -0.004393338 0.0207129065
v 0.155120581 0.101926044 0.125714719
v 0.08463356 0.109105386 -0.0829440951
v 0.2070374 0.106093436 -0.116555065
v 0.08463356 0.109105386 -0.0829440951
v 0.08791459 0.122432061 -0.167191833
v 0.1552564 0.122568496 -0.185661733
v 0.2070374 0.106093436 -0.116555065
v 0.3018192 -0.021090176 0.188388377
v 0.184139475 -0.0251581129 0.222795755
v 0.184139475 -0.0251581129 0.222795755
v 0.3018192 -0.021090176 0.188388377
v 0.242074341 0.0497374 -0.0527740568
v 0.2070374 0.106093436 -0.116555065
v 0.06806345 0.410211176 -0.0266210772
v 0.189704359 0.4030978 0.0310840234
v 0.116644613 0.399477452 0.0374796726
v 0.191676334 0.4372185 -0.123188518
v 0.22862336 0.412259132 -0.029042108
v 0.107200205 0.43547 -0.128553391
v 0.08791459 0.122432061 -0.167191833
v 0.136326119 -0.00530186528 -0.169877648
v 0.1552564 0.122568496 -0.185661733
v 0.136326119 -0.00530186528 -0.169877648
v 0.08791459 0.122432061 -0.167191833
v 0.0935515 -0.00208408455 -0.1561364
v 0.1552564 0.122568496 -0.185661733
v 0.171329692 -0.008248986 -0.133932412
v 0.2070374 0.106093436 -0.116555065
v 0.171329692 -0.008248986 -0.133932412
v 0.1552564 0.122568496 -0.185661733
v 0.136326119 -0.00530186528 -0.169877648
v 0.2070374 0.106093436 -0.116555065
v 0.08760503 -0.00335316616 -0.108038306
v 0.08463356 0.109105386 -0.0829440951
v 0.08760503 -0.00335316616 -0.108038306
v 0.2070374 0.106093436 -0.116555065
v 0.171329692 -0.008248986 -0.133932412
v 0.08463356 0.109105386 -0.0829440951
v 0.0935515 -0.00208408455 -0.1561364
v 0.08791459 0.122432061 -0.167191833
v 0.0935515 -0.00208408455 -0.1561364
v 0.08463356 0.109105386 -0.0829440951
v 0.08760503 -0.00335316616 -0.108038306
v 0.114533953 0.4801684 0.0572795048
v 0.1888179 0.483849466 0.05077669
v -0.115684643 -0.00187026244 -0.14952001
v -0.158718243 -0.004784802 -0.1624992
v -0.193097785 -0.007486735 -0.12593776
v -0.108893946 -0.003184368 -0.10153503
v -0.235028252 0.2851676 -0.0417454839
v -0.194870457 0.271665275 -0.13310948
v -0.208244473 0.438303 -0.116759673
v -0.243370384 0.4142319 -0.0216893982
v -0.216653973 0.2849298 0.024538571
v -0.235028252 0.2851676 -0.0417454839
v -0.243370384 0.4142319 -0.0216893982
v -0.203214124 0.404736459 0.0375650227
v -0.1201306 0.269805521 -0.119950205
v -0.1008626 0.278266251 -0.0226451531
v -0.08284301 0.409879982 -0.0229438432
v -0.123947784 0.4353175 -0.1240538
v -0.139627069 0.281392217 0.03600614
v -0.130085975 0.400087863 0.04229775
v -0.1008626 0.278266251 -0.0226451531
v -0.08284301 0.409879982 -0.0229438432
v -0.193928108 0.203417 -0.17346248
v -0.245882869 0.181137234 -0.0541975945
v -0.248700634 0.137107462 0.07469803
v -0.245882869 0.181137234 -0.0541975945
v -0.103824154 0.20078367 -0.151942208
v -0.100223616 0.1878477 -0.0266888738
v -0.104741275 0.109183311 -0.07667581
v -0.159515217 0.13685222 0.0968904942
v -0.213486657 0.0742476359 0.207904518
v -0.199030772 0.0226446055 0.238345951
v -0.322127938 0.0241314359 0.201868981
v -0.286446184 0.07827868 0.184350431
v -0.100223616 0.1878477 -0.0266888738
v -0.09613628 0.061981447 -0.004302129
v -0.277851582 -0.009524977 -0.0214732252
v -0.109201506 -0.004470889 0.0271149315
v -0.09613628 0.061981447 -0.004302129
v -0.261978358 0.0509930439 -0.0435393937
v -0.31493324 0.0447050259 0.08266912
v -0.248700634 0.137107462 0.07469803
v -0.277753621 0.108186051 0.100307494
v -0.261978358 0.0509930439 -0.0435393937
v -0.277851582 -0.009524977 -0.0214732252
v -0.130625129 0.04362832 0.127270281
v -0.159515217 0.13685222 0.0968904942
v -0.09613628 0.061981447 -0.004302129
v -0.109201506 -0.004470889 0.0271149315
v -0.171525046 0.102195635 0.1331963
v -0.104741275 0.109183311 -0.07667581
v -0.227735445 0.107163072 -0.107987791
v -0.104741275 0.109183311 -0.07667581
v -0.109500684 0.122491762 -0.160883844
v -0.177141339 0.123204693 -0.178064108
v -0.227735445 0.107163072 -0.107987791
v -0.3179632 -0.0199385267 0.198397189
v -0.1997226 -0.0248401929 0.230709389
v -0.1997226 -0.0248401929 0.230709389
v -0.3179632 -0.0199385267 0.198397189
v -0.261978358 0.0509930439 -0.0435393937
v -0.227735445 0.107163072 -0.107987791
v -0.08284301 0.409879982 -0.0229438432
v -0.130085975 0.400087863 0.04229775
v -0.203214124 0.404736459 0.0375650227
v -0.243370384 0.4142319 -0.0216893982
v -0.208244473 0.438303 -0.116759673
v -0.123947784 0.4353175 -0.1240538
v -0.109500684 0.122491762 -0.160883844
v -0.177141339 0.123204693 -0.178064108
v -0.158718243 -0.004784802 -0.1624992
v -0.158718243 -0.004784802 -0.1624992
v -0.115684643 -0.00187026244 -0.14952001
v -0.109500684 0.122491762 -0.160883844
v -0.177141339 0.123204693 -0.178064108
v -0.227735445 0.107163072 -0.107987791
v -0.193097785 -0.007486735 -0.12593776
v -0.193097785 -0.007486735 -0.12593776
v -0.158718243 -0.004784802 -0.1624992
v -0.177141339 0.123204693 -0.178064108
v -0.227735445 0.107163072 -0.107987791
v -0.104741275 0.109183311 -0.07667581
v -0.108893946 -0.003184368 -0.10153503
v -0.108893946 -0.003184368 -0.10153503
v -0.193097785 -0.007486735 -0.12593776
v -0.227735445 0.107163072 -0.107987791
v -0.104741275 0.109183311 -0.07667581
v -0.109500684 0.122491762 -0.160883844
v -0.115684643 -0.00187026244 -0.14952001
v -0.115684643 -0.00187026244 -0.14952001
v -0.108893946 -0.003184368 -0.10153503
v -0.104741275 0.109183311 -0.07667581
v -0.126365483 0.480813742 0.0617144555
v -0.200718984 0.485540241 0.0569024272
vt 0.513653755 0.955966055
vt 0.4725302 0.9228373
vt 0.484402776 0.9531196
vt 0.5294947 0.928831756
vt 0.6168343 0.751927733
vt 0.7248528 0.961605
vt 0.7302566 0.7080253
vt 0.6078912 0.9504123
vt 0.3345678 0.7272382
vt 0.390408069 0.8960488
vt 0.40052858 0.7289917
vt 0.305235922 0.880569339
vt 0.846527 0.7065712
vt 0.9881015 0.9418936
vt 0.960870743 0.744659841
vt 0.852624536 0.9533286
vt 0.233897388 0.712419331
vt 0.211568773 0.864103556
vt 0.152684122 0.71442306
vt 0.112114474 0.8802899
vt 0.7044437 0.59658736
vt 0.5992121 0.5934056
vt 0.352781534 0.55478853
vt 0.444691777 0.6079229
vt 0.8466232 0.594927251
vt 0.9629482 0.607344568
vt 0.9384617 0.47682476
vt 0.246011317 0.5440734
vt 0.252404183 0.189303517
vt 0.459296644 0.07763529
vt 0.2082049 0.08365393
vt 0.402810127 0.194357872
vt 0.134489477 0.595099032
vt 0.12717858 0.446949482
vt 0.454615355 0.8005057
vt 0.5677784 0.8412128
vt 0.568844 0.8108023
vt 0.45769912 0.823848
vt 0.5099036 0.2593119
vt 0.413074374 0.3531655
vt 0.405789077 0.438897
vt 0.558110535 0.435202479
vt 0.616256654 0.3552729
vt 0.138721645 0.2770754
vt 0.07128948 0.434115767
vt 0.224789768 0.428719282
vt 0.01721987 0.345220566
vt 0.236010939 0.344872952
vt 0.547024548 0.8865647
vt 0.464070469 0.8786643
vt 0.0543826856 0.5590463
vt 0.8316646 0.47556603
vt 0.7235354 0.474892139
vt 0.6079725 0.468714356
vt 0.4808994 0.658766448
vt 0.5606955 0.6650109
vt 0.171278059 0.0146702528
vt 0.5000581 0.0142424107
vt 0.5086911 0.460783958
vt 0.56585747 0.5864659
vt 0.788372755 0.247988343
vt 0.956428 0.28289187
vt 0.8876758 0.219511271
vt 0.836771369 0.444766879
vt 0.949175239 0.3744632
vt 0.7472752 0.3846624
vt 0.8931855 0.1858685
vt 0.80270344 0.0121014118
vt 0.7925113 0.195317864
vt 0.80270344 0.0121014118
vt 0.8931855 0.1858685
vt 0.8668295 0.0121014118
vt 0.7925113 0.195317864
vt 0.741201043 0.0121014118
vt 0.715730846 0.175636053
vt 0.741201043 0.0121014118
vt 0.7925113 0.195317864
vt 0.80270344 0.0121014118
vt 0.464070469 0.8786643
vt 0.5294947 0.928831756
vt 0.547024548 0.8865647
vt 0.5294947 0.928831756
vt 0.464070469 0.8786643
vt 0.4725302 0.9228373
vt 0.962968946 0.157931924
vt 0.8668295 0.0121014118
vt 0.8931855 0.1858685
vt 0.8668295 0.0121014118
vt 0.962968946 0.157931924
vt 0.93184 0.0121014118
vt 0.193729222 0.9661856
vt 0.288965821 0.982927263
vt 0.513653755 0.955966055
vt 0.484402776 0.9531196
vt 0.4725302 0.9228373
vt 0.5294947 0.928831756
vt 0.6168343 0.751927733
vt 0.7302566 0.7080253
vt 0.7248528 0.961605
vt 0.6078912 0.9504123
vt 0.3345678 0.7272382
vt 0.40052858 0.7289917
vt 0.390408069 0.8960488
vt 0.305235922 0.880569339
vt 0.846527 0.7065712
vt 0.960870743 0.744659841
vt 0.9881015 0.9418936
vt 0.852624536 0.9533286
vt 0.233897388 0.712419331
vt 0.211568773 0.864103556
vt 0.152684122 0.71442306
vt 0.112114474 0.8802899
vt 0.7044437 0.59658736
vt 0.5992121 0.5934056
vt 0.352781534 0.55478853
vt 0.444691777 0.6079229
vt 0.8466232 0.594927251
vt 0.9629482 0.607344568
vt 0.9384617 0.47682476
vt 0.246011317 0.5440734
vt 0.252404183 0.189303517
vt 0.2082049 0.08365393
vt 0.459296644 0.07763529
vt 0.402810127 0.194357872
vt 0.134489477 0.595099032
vt 0.12717858 0.446949482
vt 0.454615355 0.8005057
vt 0.568844 0.8108023
vt 0.5677784 0.8412128
vt 0.45769912 0.823848
vt 0.5099036 0.2593119
vt 0.405789077 0.438897
vt 0.413074374 0.3531655
vt 0.558110535 0.435202479
vt 0.616256654 0.3552729
vt 0.138721645 0.2770754
vt 0.224789768 0.428719282
vt 0.07128948 0.434115767
vt 0.01721987 0.345220566
vt 0.236010939 0.344872952
vt 0.547024548 0.8865647
vt 0.464070469 0.8786643
vt 0.0543826856 0.5590463
vt 0.8316646 0.47556603
vt 0.7235354 0.474892139
vt 0.6079725 0.468714356
vt 0.4808994 0.658766448
vt 0.5606955 0.6650109
vt 0.171278059 0.0146702528
vt 0.5000581 0.0142424107
vt 0.5086911 0.460783958
vt 0.56585747 0.5864659
vt 0.788372755 0.247988343
vt 0.8876758 0.219511271
vt 0.956428 0.28289187
vt 0.949175239 0.3744632
vt 0.836771369 0.444766879
vt 0.7472752 0.3846624
vt 0.8931855 0.1858685
vt 0.7925113 0.195317864
vt 0.80270344 0.0121014118
vt 0.80270344 0.0121014118
vt 0.8668295 0.0121014118
vt 0.8931855 0.1858685
vt 0.7925113 0.195317864
vt 0.715730846 0.175636053
vt 0.741201043 0.0121014118
vt 0.741201043 0.0121014118
vt 0.80270344 0.0121014118
vt 0.7925113 0.195317864
vt 0.464070469 0.8786643
vt 0.547024548 0.8865647
vt 0.5294947 0.928831756
vt 0.5294947 0.928831756
vt 0.4725302 0.9228373
vt 0.464070469 0.8786643
vt 0.962968946 0.157931924
vt 0.8931855 0.1858685
vt 0.8668295 0.0121014118
vt 0.8668295 0.0121014118
vt 0.93184 0.0121014118
vt 0.962968946 0.157931924
vt 0.193729222 0.9661856
vt 0.288965821 0.982927263
vn -0.0731120855 -0.9971081 -0.0207416285
vn -0.0731120855 -0.9971081 -0.0207416285
vn -0.07713131 -0.996998966 -0.00663244
vn -0.0690771341 -0.997002542 -0.03484635
vn 0.9098901 0.07591786 -0.40784353
vn 0.7291917 0.0115291057 -0.6842122
vn 0.364665359 0.1937425 -0.910759568
vn 0.9288983 -0.0198540241 -0.369802445
vn 0.644539 0.158655286 0.7479291
vn 0.8925046 -0.07703189 0.444411755
vn 0.983504236 0.08213986 0.161159828
vn 0.390202284 -0.134072676 0.9109153
vn -0.6918352 0.242326915 -0.6801778
vn -0.96501714 -0.0435144231 -0.258550584
vn -0.9892334 0.08025406 -0.12237934
vn -0.417031318 0.0447113 -0.9077917
vn -0.293088317 0.06545514 0.953842163
vn -0.5108508 -0.14660345 0.8470768
vn -0.8381028 -0.0166159887 0.5452592
vn -0.800518453 -0.131850392 0.584624469
vn 0.5112534 0.24769263 -0.8229631
vn 0.91003114 0.0919912755 -0.40420413
vn 0.91397506 0.23977904 0.3273464
vn 0.98422873 0.09238387 -0.150860757
vn -0.826664448 0.1655477 -0.537791669
vn -0.9999401 -0.00247632526 -0.0106611177
vn -0.998650253 -0.0420322977 -0.03051334
vn -0.5369772 0.24033919 0.808636248
vn 0.00637927139 0.746006668 0.6659079
vn 0.738954663 0.366482884 0.5653639
vn -0.28501 0.226782888 0.9313103
vn 0.4420754 0.7489811 0.493555
vn -0.9556818 0.04673514 0.2906686
vn -0.975909352 0.07257622 0.20575133
vn -0.221801177 -0.702958643 -0.6757613
vn -0.251527518 -0.5679105 -0.7837165
vn -0.121106364 -0.920432866 -0.371667176
vn -0.219186485 -0.6820641 -0.6976717
vn 0.945833743 0.22728917 -0.231814742
vn 0.5357082 0.816476762 0.215365991
vn 0.5885989 0.7822258 0.20414272
vn 0.8722191 0.323249817 -0.367074221
vn 0.9465053 -0.10177049 -0.306219429
vn -0.875606656 0.133647621 0.464167327
vn -0.944952369 0.158370614 0.2863279
vn -0.527688563 0.5946519 0.606575549
vn -0.9255075 -0.20637168 0.317563653
vn -0.299835265 0.717792034 0.628389537
vn -0.191282913 -0.7978237 -0.5717413
vn -0.182128787 -0.784344137 -0.5929867
vn -0.9956637 0.0215209574 -0.09050266
vn -0.780945361 0.0253548268 -0.6240846
vn 0.102742165 0.027381 -0.994331062
vn 0.853134 -0.0452618226 -0.5197246
vn -0.0224292874 -0.997224748 -0.07099121
vn 0.00396141363 -0.9945655 -0.10403733
vn -0.5958953 -0.241233408 0.765973449
vn 0.823650241 -0.211586609 0.5261478
vn 0.970363736 0.0937232 -0.222733274
vn 0.897805452 0.0652600452 -0.435530216
vn -0.0403960533 0.9777838 0.2056863
vn -0.00235471921 0.9774576 0.211118639
vn -0.0321185961 0.98151 0.188696966
vn 0.03577556 0.975682259 0.21625033
vn 0.105257764 0.9706953 0.216035515
vn -0.0412708074 0.9748482 0.219015077
vn -0.2635121 -0.07965764 -0.961361647
vn -0.2635121 -0.07965764 -0.961361647
vn -0.2635121 -0.07965764 -0.961361647
vn -0.3110565 -0.09801433 -0.9453237
vn -0.3110565 -0.09801433 -0.9453237
vn -0.3110565 -0.09801433 -0.9453237
vn 0.77415 -0.148230821 -0.6154018
vn 0.77415 -0.148230821 -0.6154018
vn 0.77415 -0.148230821 -0.6154018
vn 0.6958059 -0.188556314 -0.693037331
vn 0.6958059 -0.188556314 -0.693037331
vn 0.6958059 -0.188556314 -0.693037331
vn 0.254534632 -0.204201281 0.945258737
vn 0.254534632 -0.204201281 0.945258737
vn 0.254534632 -0.204201281 0.945258737
vn 0.275497735 -0.22796239 0.9338812
vn 0.275497735 -0.22796239 0.9338812
vn 0.275497735 -0.22796239 0.9338812
vn -0.99769336 -0.04930845 -0.04665507
vn -0.99769336 -0.04930845 -0.04665507
vn -0.99769336 -0.04930845 -0.04665507
vn -0.992447 0.00114915194 -0.122668095
vn -0.992447 0.00114915194 -0.122668095
vn -0.992447 0.00114915194 -0.122668095
vn -0.227940917 -0.237655163 0.944226
vn 0.5213557 -0.196770146 0.8303431
vn 0.0656836256 -0.997598469 -0.0219745636
vn 0.069953464 -0.997518659 -0.007938987
vn 0.0656836256 -0.997598469 -0.0219745636
vn 0.06139964 -0.997463644 -0.0360054076
vn -0.918037 0.0844580755 -0.387395
vn -0.382224619 0.19247359 -0.9038021
vn -0.7440968 0.0190864 -0.667799056
vn -0.9374655 -0.006512996 -0.348017335
vn -0.625935137 0.172326788 0.7605975
vn -0.978441238 0.09737069 0.182130784
vn -0.883378 -0.05981975 0.464827925
vn -0.371155053 -0.122731805 0.9204243
vn 0.680249333 0.22743766 -0.6968019
vn 0.9875847 0.06496219 -0.143025562
vn 0.958112538 -0.06130994 -0.279752225
vn 0.3969923 0.03215802 -0.9172584
vn 0.314579 0.06658258 0.9468932
vn 0.527863741 -0.149985179 0.8359811
vn 0.8492622 -0.026181072 0.5273217
vn 0.8117819 -0.141154155 0.5666444
vn -0.5260579 0.2486877 -0.813275754
vn -0.918918133 0.09917703 -0.381776571
vn -0.9041953 0.251063526 0.3455402
vn -0.9861335 0.10390386 -0.129401162
vn 0.8176145 0.15444234 -0.5546657
vn 0.9994431 -0.0142017733 -0.030196771
vn 0.997487843 -0.0506653637 -0.04950612
vn 0.5558191 0.237165526 0.7967545
vn 0.0107409293 0.7452219 0.666730046
vn 0.30305928 0.22391969 0.926291
vn -0.7263986 0.370786965 0.5786728
vn -0.4285106 0.7513723 0.5018151
vn 0.961486161 0.03863727 0.2721242
vn 0.9801923 0.06509819 0.187043265
vn 0.205170467 -0.702657938 -0.6813053
vn 0.1083802 -0.920578957 -0.375217527
vn 0.233731717 -0.5683398 -0.7888975
vn 0.201573551 -0.683074057 -0.7019815
vn -0.9484557 0.233729661 -0.214014634
vn -0.581093252 0.783539236 0.21999298
vn -0.527246833 0.8186706 0.227572367
vn -0.8765527 0.328897625 -0.35139966
vn -0.9523927 -0.09474857 -0.2897773
vn 0.884174466 0.126271546 0.449767739
vn 0.542515337 0.587282658 0.600646436
vn 0.9510965 0.149705961 0.270191878
vn 0.9294752 -0.213054955 0.301137179
vn 0.31546393 0.71291995 0.6262807
vn 0.1747457 -0.7994656 -0.5747335
vn 0.164836362 -0.785264134 -0.5968158
vn 0.9938652 0.0127341952 -0.109862156
vn 0.7691552 0.0171928331 -0.6388307
vn -0.121283941 0.0258641951 -0.992280841
vn -0.8647678 -0.0369336642 -0.500811934
vn 0.0144391824 -0.9972668 -0.07245942
vn -0.0125145363 -0.9943881 -0.105051108
vn 0.6076486 -0.245487034 0.7553141
vn -0.8157598 -0.205768332 0.540550947
vn -0.9739573 0.10395176 -0.201497436
vn -0.907043755 0.07829853 -0.413692
vn 0.0591109134 0.9778651 0.200713038
vn 0.050499212 0.981646359 0.183903083
vn 0.0212035477 0.9781074 0.207017824
vn -0.08635377 0.9729147 0.214429483
vn -0.0168203935 0.976900935 0.21303001
vn 0.0602497272 0.97496736 0.214030012
vn 0.244526565 -0.08229582 -0.9661439
vn 0.244526565 -0.08229582 -0.9661439
vn 0.244526565 -0.08229582 -0.9661439
vn 0.2935604 -0.1014551 -0.950541556
vn 0.2935604 -0.1014551 -0.950541556
vn 0.2935604 -0.1014551 -0.950541556
vn -0.7864836 -0.14356336 -0.600693941
vn -0.7864836 -0.14356336 -0.600693941
vn -0.7864836 -0.14356336 -0.600693941
vn -0.709107 -0.1848202 -0.680447459
vn -0.709107 -0.1848202 -0.680447459
vn -0.709107 -0.1848202 -0.680447459
vn -0.238550961 -0.201359153 0.9500252
vn -0.238550961 -0.201359153 0.9500252
vn -0.238550961 -0.201359153 0.9500252
vn -0.260516256 -0.225676134 0.9387233
vn -0.260516256 -0.225676134 0.9387233
vn -0.260516256 -0.225676134 0.9387233
vn 0.996335864 -0.0554903038 -0.06508238
vn 0.996335864 -0.0554903038 -0.06508238
vn 0.996335864 -0.0554903038 -0.06508238
vn 0.99009794 -0.005558501 -0.140268072
vn 0.99009794 -0.005558501 -0.140268072
vn 0.99009794 -0.005558501 -0.140268072
vn 0.2461679 -0.237370625 0.9397108
vn -0.504886866 -0.186122 0.842880666
usemtl 0000254870_part_0_material_0
f 1/1/1 3/3/3 2/2/2
f 2/2/2 4/4/4 1/1/1
f 5/5/5 7/7/7 6/6/6
f 6/6/6 8/8/8 5/5/5
f 9/9/9 11/11/11 10/10/10
f 10/10/10 12/12/12 9/9/9
f 13/13/13 15/15/15 14/14/14
f 14/14/14 16/16/16 13/13/13
f 7/7/7 13/13/13 16/16/16
f 16/16/16 6/6/6 7/7/7
f 17/17/17 9/9/9 12/12/12
f 12/12/12 18/18/18 17/17/17
f 19/19/19 17/17/17 18/18/18
f 18/18/18 20/20/20 19/19/19
f 21/21/21 5/5/5 22/22/22
f 7/7/7 5/5/5 21/21/21
f 23/23/23 24/24/24 11/11/11
f 11/11/11 9/9/9 23/23/23
f 15/15/15 13/13/13 25/25/25
f 26/26/26 25/25/25 27/27/27
f 21/21/21 25/25/25 13/13/13
f 13/13/13 7/7/7 21/21/21
f 28/28/28 23/23/23 9/9/9
f 9/9/9 17/17/17 28/28/28
f 29/29/29 31/31/31 30/30/30
f 30/30/30 32/32/32 29/29/29
f 28/28/28 17/17/17 19/19/19
f 33/33/33 34/34/34 28/28/28
f 35/35/35 37/37/37 36/36/36
f 36/36/36 38/38/38 35/35/35
f 39/39/39 41/41/41 40/40/40
f 42/42/42 41/41/41 39/39/39
f 43/43/43 42/42/42 39/39/39
f 44/44/44 46/46/46 45/45/45
f 45/45/45 47/47/47 44/44/44
f 48/48/48 46/46/46 44/44/44
f 48/48/48 40/40/40 41/41/41
f 41/41/41 46/46/46 48/48/48
f 49/49/49 50/50/50 38/38/38
f 38/38/38 36/36/36 49/49/49
f 33/33/33 51/51/51 34/34/34
f 27/27/27 25/25/25 52/52/52
f 53/53/53 52/52/52 25/25/25
f 25/25/25 21/21/21 53/53/53
f 54/54/54 53/53/53 21/21/21
f 21/21/21 22/22/22 54/54/54
f 55/55/55 56/56/56 37/37/37
f 37/37/37 35/35/35 55/55/55
f 48/48/48 44/44/44 31/31/31
f 31/31/31 29/29/29 48/48/48
f 29/29/29 32/32/32 40/40/40
f 40/40/40 48/48/48 29/29/29
f 40/40/40 32/32/32 30/30/30
f 30/30/30 39/39/39 40/40/40
f 44/44/44 47/47/47 57/57/57
f 57/57/57 31/31/31 44/44/44
f 31/31/31 57/57/57 58/58/58
f 58/58/58 30/30/30 31/31/31
f 58/58/58 43/43/43 39/39/39
f 39/39/39 30/30/30 58/58/58
f 23/23/23 59/59/59 24/24/24
f 60/60/60 24/24/24 59/59/59
f 19/19/19 33/33/33 28/28/28
f 15/15/15 25/25/25 26/26/26
f 61/61/61 63/63/63 62/62/62
f 62/62/62 65/65/65 64/64/64
f 66/66/66 61/61/61 62/62/62
f 64/64/64 66/66/66 62/62/62
f 67/67/67 69/69/69 68/68/68
f 70/70/70 72/72/72 71/71/71
f 73/73/73 75/75/75 74/74/74
f 76/76/76 78/78/78 77/77/77
f 79/79/79 81/81/81 80/80/80
f 82/82/82 84/84/84 83/83/83
f 85/85/85 87/87/87 86/86/86
f 88/88/88 90/90/90 89/89/89
f 91/91/91 20/20/20 18/18/18
f 92/92/92 91/91/91 12/12/12
f 18/18/18 12/12/12 91/91/91
f 12/12/12 10/10/10 92/92/92
f 93/93/93 95/95/95 94/94/94
f 95/95/95 93/93/93 96/96/96
f 97/97/97 99/99/99 98/98/98
f 99/99/99 97/97/97 100/100/100
f 101/101/101 103/103/103 102/102/102
f 103/103/103 101/101/101 104/104/104
f 105/105/105 107/107/107 106/106/106
f 107/107/107 105/105/105 108/108/108
f 98/98/98 108/108/108 105/105/105
f 108/108/108 98/98/98 99/99/99
f 109/109/109 104/104/104 101/101/101
f 104/104/104 109/109/109 110/110/110
f 111/111/111 110/110/110 109/109/109
f 110/110/110 111/111/111 112/112/112
f 113/113/113 114/114/114 97/97/97
f 98/98/98 113/113/113 97/97/97
f 115/115/115 102/102/102 116/116/116
f 102/102/102 115/115/115 101/101/101
f 106/106/106 117/117/117 105/105/105
f 118/118/118 119/119/119 117/117/117
f 113/113/113 105/105/105 117/117/117
f 105/105/105 113/113/113 98/98/98
f 120/120/120 101/101/101 115/115/115
f 101/101/101 120/120/120 109/109/109
f 121/121/121 123/123/123 122/122/122
f 123/123/123 121/121/121 124/124/124
f 120/120/120 111/111/111 109/109/109
f 125/125/125 120/120/120 126/126/126
f 127/127/127 129/129/129 128/128/128
f 129/129/129 127/127/127 130/130/130
f 131/131/131 133/133/133 132/132/132
f 134/134/134 131/131/131 132/132/132
f 135/135/135 131/131/131 134/134/134
f 136/136/136 138/138/138 137/137/137
f 138/138/138 136/136/136 139/139/139
f 140/140/140 136/136/136 137/137/137
f 140/140/140 132/132/132 133/133/133
f 132/132/132 140/140/140 137/137/137
f 141/141/141 130/130/130 142/142/142
f 130/130/130 141/141/141 129/129/129
f 125/125/125 126/126/126 143/143/143
f 119/119/119 144/144/144 117/117/117
f 145/145/145 117/117/117 144/144/144
f 117/117/117 145/145/145 113/113/113
f 146/146/146 113/113/113 145/145/145
f 113/113/113 146/146/146 114/114/114
f 147/147/147 128/128/128 148/148/148
f 128/128/128 147/147/147 127/127/127
f 140/140/140 122/122/122 136/136/136
f 122/122/122 140/140/140 121/121/121
f 121/121/121 133/133/133 124/124/124
f 133/133/133 121/121/121 140/140/140
f 133/133/133 123/123/123 124/124/124
f 123/123/123 133/133/133 131/131/131
f 136/136/136 149/149/149 139/139/139
f 149/149/149 136/136/136 122/122/122
f 122/122/122 150/150/150 149/149/149
f 150/150/150 122/122/122 123/123/123
f 150/150/150 131/131/131 135/135/135
f 131/131/131 150/150/150 123/123/123
f 115/115/115 116/116/116 151/151/151
f 152/152/152 151/151/151 116/116/116
f 111/111/111 120/120/120 125/125/125
f 106/106/106 118/118/118 117/117/117
f 153/153/153 155/155/155 154/154/154
f 155/155/155 157/157/157 156/156/156
f 158/158/158 155/155/155 153/153/153
f 157/157/157 155/155/155 158/158/158
f 159/159/159 161/161/161 160/160/160
f 162/162/162 164/164/164 163/163/163
f 165/165/165 167/167/167 166/166/166
f 168/168/168 170/170/170 169/169/169
f 171/171/171 173/173/173 172/172/172
f 174/174/174 176/176/176 175/175/175
f 177/177/177 179/179/179 178/178/178
f 180/180/180 182/182/182 181/181/181
f 183/183/183 110/110/110 112/112/112
f 184/184/184 104/104/104 183/183/183
f 110/110/110 183/183/183 104/104/104
f 104/104/104 184/184/184 103/103/103
