mtllib 0001990109.mtl
o 0001990109_part_0
v 0.622584343 -0.00105786324 0.219316229
v 0.4698292 -0.00105786324 0.646372557
v 0.19111836 -0.00105834007 0.3170408
v 0.210352659 0.003161192 0.191756308
v 0.156844139 0.00218105316 -0.008343231
v 0.182112813 0.00218129158 -0.14370057
v 0.304590464 0.00218129158 -0.21198228
v 0.446442 0.00218129158 -0.169031352
v 0.5002825 0.00218248367 -0.07900183
v 0.5456612 0.00316166878 0.113928854
v 0.446442 0.00218129158 -0.169031352
v 0.39653194 0.242952347 -0.147993535
v 0.430126667 0.230426788 -0.05978735
v 0.5002825 0.00218248367 -0.07900183
v 0.3067212 0.246768832 -0.183714136
v 0.304590464 0.00218129158 -0.21198228
v 0.182112813 0.00218129158 -0.14370057
v 0.221110821 0.243522286 -0.146605045
v 0.266367435 0.13524425 0.299625635
v 0.19111836 -0.00105834007 0.3170408
v 0.4698292 -0.00105786324 0.646372557
v 0.5649296 0.135244608 0.239109516
v 0.4115398 0.2195673 0.279770941
v 0.3821355 0.181926727 0.165397212
v 0.3565693 0.20832324 0.129061848
v 0.241883159 0.2132461 0.08011073
v 0.2549132 0.104935884 0.161624819
v 0.4287293 0.213273525 0.0755390748
v 0.415720344 0.14537847 0.2906183
v 0.4115398 0.2195673 0.279770941
v 0.5649296 0.135244608 0.239109516
v 0.48388195 0.104936361 0.105022319
v 0.266367435 0.13524425 0.299625635
v 0.622584343 -0.00105786324 0.219316229
v 0.241883159 0.2132461 0.08011073
v 0.3565693 0.20832324 0.129061848
v 0.35059917 0.303006053 0.116156332
v 0.35059917 0.303006053 0.116156332
v 0.240588069 0.289951563 0.06427784
v 0.241883159 0.2132461 0.08011073
v 0.4287293 0.213273525 0.0755390748
v 0.430126667 0.230426788 -0.05978735
v 0.4274341 0.2899791 0.0597062074
v 0.3565693 0.20832324 0.129061848
v 0.4287293 0.213273525 0.0755390748
v 0.4274341 0.2899791 0.0597062074
v 0.4274341 0.2899791 0.0597062074
v 0.35059917 0.303006053 0.116156332
v 0.3565693 0.20832324 0.129061848
v 0.241883159 0.2132461 0.08011073
v 0.240588069 0.289951563 0.06427784
v 0.194643259 0.2274065 -0.02408058
v 0.622584343 -0.00105786324 0.219316229
v 0.5456612 0.00316166878 0.113928854
v 0.156844139 0.00218105316 -0.008343231
v 0.210352659 0.003161192 0.191756308
v 0.19111836 -0.00105834007 0.3170408
v 0.194643259 0.2274065 -0.02408058
v 0.3565693 0.20832324 0.129061848
v 0.3067212 0.246768832 -0.183714136
v 0.221110821 0.243522286 -0.146605045
v 0.241883159 0.2132461 0.08011073
v 0.194643259 0.2274065 -0.02408058
v 0.4287293 0.213273525 0.0755390748
v 0.430126667 0.230426788 -0.05978735
v 0.39653194 0.242952347 -0.147993535
v -0.602600336 -0.000105857849 0.0231643766
v -0.17113924 -0.000125646591 0.120910838
v -0.449867 -0.000246047974 0.450228363
v -0.19036746 0.00413560867 -0.004373196
v -0.136848927 0.00322508812 -0.204470322
v -0.284585 0.00328969955 -0.408116877
v -0.1621108 0.00327038765 -0.339828938
v -0.4264388 0.00327086449 -0.365173161
v -0.480283976 0.00323843956 -0.275145173
v -0.525672436 0.00415205956 -0.0822176561
v -0.4264388 0.00327086449 -0.365173161
v -0.4095235 0.248336673 -0.245721877
v -0.3747275 0.277679443 -0.329352319
v -0.480283976 0.00323843956 -0.275145173
v -0.284431219 0.289677978 -0.361896873
v -0.1621108 0.00327038765 -0.339828938
v -0.284585 0.00328969955 -0.408116877
v -0.199405432 0.2810868 -0.324298829
v -0.246392012 0.13618052 0.103538133
v -0.449867 -0.000246047974 0.450228363
v -0.17113924 -0.000125646591 0.120910838
v -0.3915658 0.2205056 0.08370471
v -0.544950962 0.136191845 0.04300687
v -0.362154961 0.18290472 -0.0306803212
v -0.223330975 0.2087127 -0.107647568
v -0.33869195 0.192720532 -0.06282032
v -0.234930038 0.105919361 -0.0344723873
v -0.410032749 0.206283569 -0.115950137
v -0.395744562 0.146312952 0.09452667
v -0.3915658 0.2205056 0.08370471
v -0.544950962 0.136191845 0.04300687
v -0.46417594 0.1017828 -0.09928596
v -0.246392012 0.13618052 0.103538133
v -0.602600336 -0.000105857849 0.0231643766
v -0.223330975 0.2087127 -0.107647568
v -0.334514856 0.288240075 -0.05775911
v -0.33869195 0.192720532 -0.06282032
v -0.334514856 0.288240075 -0.05775911
v -0.223330975 0.2087127 -0.107647568
v -0.223397017 0.287035942 -0.10890232
v -0.410032749 0.206283569 -0.115950137
v -0.4100988 0.2846068 -0.1172049
v -0.4095235 0.248336673 -0.245721877
v -0.33869195 0.192720532 -0.06282032
v -0.4100988 0.2846068 -0.1172049
v -0.410032749 0.206283569 -0.115950137
v -0.4100988 0.2846068 -0.1172049
v -0.33869195 0.192720532 -0.06282032
v -0.334514856 0.288240075 -0.05775911
v -0.223330975 0.2087127 -0.107647568
v -0.174660921 0.242883086 -0.206397682
v -0.223397017 0.287035942 -0.10890232
v -0.602600336 -0.000105857849 0.0231643766
v -0.525672436 0.00415205956 -0.0822176561
v -0.136848927 0.00322508812 -0.204470322
v -0.19036746 0.00413560867 -0.004373196
v -0.17113924 -0.000125646591 0.120910838
v -0.174660921 0.242883086 -0.206397682
v -0.33869195 0.192720532 -0.06282032
v -0.199405432 0.2810868 -0.324298829
v -0.284431219 0.289677978 -0.361896873
v -0.223330975 0.2087127 -0.107647568
v -0.174660921 0.242883086 -0.206397682
v -0.410032749 0.206283569 -0.115950137
v -0.3747275 0.277679443 -0.329352319
v -0.4095235 0.248336673 -0.245721877
vt 0.0545436 0.716641963
vt 0.185472265 0.9433551
vt 0.298847854 0.6967676
vt 0.266982824 0.6349612
vt 0.262802422 0.485783219
vt 0.22875993 0.414868355
vt 0.152221844 0.388344824
vt 0.08375056 0.4382167
vt 0.07212421 0.5211185
vt 0.07818957 0.6536773
vt 0.835960031 0.03301215
vt 0.8293431 0.387053668
vt 0.6643238 0.387053668
vt 0.6573722 0.0330119729
vt 0.9379599 0.387053668
vt 0.9774327 0.03301227
vt 0.835960031 0.03301215
vt 0.8293431 0.387053668
vt 0.475498021 0.9333042
vt 0.3458045 0.9333042
vt 0.62745446 0.493788064
vt 0.7620484 0.9333042
vt 0.626826346 0.9333042
vt 0.257808328 0.309896052
vt 0.348373652 0.41848278
vt 0.460506916 0.3947099
vt 0.305324733 0.204998255
vt 0.460506916 0.3947099
vt 0.09791101 0.278059185
vt 0.0218351278 0.396862864
vt 0.0419398323 0.253081322
vt 0.305324733 0.204998255
vt 0.0419398323 0.253081322
vt 0.882930756 0.9333042
vt 0.460506916 0.3947099
vt 0.348373652 0.41848278
vt 0.394439042 0.5717859
vt 0.394439042 0.5717859
vt 0.5065723 0.517461956
vt 0.460506916 0.3947099
vt 0.460506916 0.3947099
vt 0.6643238 0.387053668
vt 0.5065723 0.517461956
vt 0.348373652 0.41848278
vt 0.460506916 0.3947099
vt 0.5065723 0.517461956
vt 0.5065723 0.517461956
vt 0.394439042 0.5717859
vt 0.348373652 0.41848278
vt 0.460506916 0.3947099
vt 0.5065723 0.517461956
vt 0.6643238 0.387053668
vt 0.162367851 0.0275892615
vt 0.314870417 0.0346520543
vt 0.6573589 0.0330119729
vt 0.314870417 0.0346520543
vt 0.162367851 0.0275892615
vt 0.6643238 0.387053668
vt 0.865952 0.455434561
vt 0.8411599 0.639112532
vt 0.784383 0.618729234
vt 0.794402957 0.485590577
vt 0.758328736 0.556359053
vt 0.9171257 0.4855814
vt 0.927224636 0.556340754
vt 0.899553657 0.6170006
vt 0.0545436 0.716641963
vt 0.298847854 0.6967676
vt 0.185472265 0.9433551
vt 0.266982824 0.6349612
vt 0.262802422 0.485783219
vt 0.152221844 0.388344824
vt 0.22875993 0.414868355
vt 0.08375056 0.4382167
vt 0.07212421 0.5211185
vt 0.07818957 0.6536773
vt 0.835960031 0.03301215
vt 0.6643238 0.387053668
vt 0.8293431 0.387053668
vt 0.6573722 0.0330119729
vt 0.9379599 0.387053668
vt 0.835960031 0.03301215
vt 0.9774327 0.03301227
vt 0.8293431 0.387053668
vt 0.475498021 0.9333042
vt 0.62745446 0.493788064
vt 0.3458045 0.9333042
vt 0.626826346 0.9333042
vt 0.7620484 0.9333042
vt 0.257808328 0.309896052
vt 0.460506916 0.3947099
vt 0.348373652 0.41848278
vt 0.305324733 0.204998255
vt 0.460506916 0.3947099
vt 0.09791101 0.278059185
vt 0.0218351278 0.396862864
vt 0.0419398323 0.253081322
vt 0.305324733 0.204998255
vt 0.0419398323 0.253081322
vt 0.882930756 0.9333042
vt 0.460506916 0.3947099
vt 0.394439042 0.5717859
vt 0.348373652 0.41848278
vt 0.394439042 0.5717859
vt 0.460506916 0.3947099
vt 0.5065723 0.517461956
vt 0.460506916 0.3947099
vt 0.5065723 0.517461956
vt 0.6643238 0.387053668
vt 0.348373652 0.41848278
vt 0.5065723 0.517461956
vt 0.460506916 0.3947099
vt 0.5065723 0.517461956
vt 0.348373652 0.41848278
vt 0.394439042 0.5717859
vt 0.460506916 0.3947099
vt 0.6643238 0.387053668
vt 0.5065723 0.517461956
vt 0.162367851 0.0275892615
vt 0.314870417 0.0346520543
vt 0.6573589 0.0330119729
vt 0.314870417 0.0346520543
vt 0.162367851 0.0275892615
vt 0.6643238 0.387053668
vt 0.865952 0.455434561
vt 0.784383 0.618729234
vt 0.8411599 0.639112532
vt 0.794402957 0.485590577
vt 0.758328736 0.556359053
vt 0.9171257 0.4855814
vt 0.899553657 0.6170006
vt 0.927224636 0.556340754
vn 0.899939835 -0.389457583 -0.1960384
vn 0.161290124 -0.209092319 0.964502931
vn -0.8962491 -0.380530238 0.227890819
vn -0.806057632 -0.5918203 0.004447648
vn -0.811954558 -0.577346444 0.08602844
vn -0.6746869 -0.5701755 -0.468718976
vn -0.08612839 -0.585098863 -0.8063753
vn 0.5499889 -0.5501961 -0.628328264
vn 0.801178932 -0.534382939 -0.2693458
vn 0.728041351 -0.568780959 -0.382680029
vn 0.5499889 -0.5501961 -0.628328264
vn 0.5060322 0.7326264 -0.4551813
vn 0.6551406 0.754263639 -0.0433266051
vn 0.801178932 -0.534382939 -0.2693458
vn -0.0323170871 0.715014338 -0.6983624
vn -0.08612839 -0.585098863 -0.8063753
vn -0.6746869 -0.5701755 -0.468718976
vn -0.5686967 0.691379368 -0.4456216
vn -0.678603232 0.600089848 -0.423544377
vn -0.8962491 -0.380530238 0.227890819
vn 0.161290124 -0.209092319 0.964502931
vn 0.518279135 0.6186002 -0.5905256
vn -0.08841955 0.8979326 -0.431160063
vn 0.132937387 0.8624408 0.488388628
vn -0.03279607 0.889663339 0.455437779
vn -0.518183351 0.7241295 0.455107123
vn -0.7193296 0.5622052 0.408032179
vn 0.576166749 0.7864827 0.222433791
vn -0.14609018 0.508129358 -0.8488005
vn -0.08841955 0.8979326 -0.431160063
vn 0.518279135 0.6186002 -0.5905256
vn 0.7991676 0.598996937 -0.0503376126
vn -0.678603232 0.600089848 -0.423544377
vn 0.899939835 -0.389457583 -0.1960384
vn -0.386920482 0.100540265 0.9166156
vn -0.386920482 0.100540265 0.9166156
vn -0.386920482 0.100540265 0.9166156
vn -0.436852783 0.174760371 0.8823936
vn -0.436852783 0.174760371 0.8823936
vn -0.436852783 0.174760371 0.8823936
vn 0.9997275 0.01952244 0.0127976779
vn 0.9997275 0.01952244 0.0127976779
vn 0.9997275 0.01952244 0.0127976779
vn 0.5788918 0.174197629 0.796579838
vn 0.5788918 0.174197629 0.796579838
vn 0.5788918 0.174197629 0.796579838
vn 0.6016675 0.1449998 0.785475135
vn 0.6016675 0.1449998 0.785475135
vn 0.6016675 0.1449998 0.785475135
vn -0.904751 0.07139931 0.419914
vn -0.904751 0.07139931 0.419914
vn -0.904751 0.07139931 0.419914
vn 0.899939835 -0.389457583 -0.1960384
vn 0.728041351 -0.568780959 -0.382680029
vn -0.811954558 -0.577346444 0.08602844
vn -0.806057632 -0.5918203 0.004447648
vn -0.8962491 -0.380530238 0.227890819
vn -0.700563848 0.6994605 0.141298637
vn -0.03279607 0.889663339 0.455437779
vn -0.0323170871 0.715014338 -0.6983624
vn -0.5686967 0.691379368 -0.4456216
vn -0.518183351 0.7241295 0.455107123
vn -0.700563848 0.6994605 0.141298637
vn 0.576166749 0.7864827 0.222433791
vn 0.6551406 0.754263639 -0.0433266051
vn 0.5060322 0.7326264 -0.4551813
vn -0.900347352 -0.3881815 -0.196697086
vn 0.896250069 -0.380578071 0.227807269
vn -0.161332637 -0.209425122 0.9644236
vn 0.8060767 -0.591795564 0.004288424
vn 0.808001 -0.582647562 0.08749988
vn 0.08477492 -0.56813 -0.81856066
vn 0.670111537 -0.5652436 -0.4810927
vn -0.5451607 -0.54231745 -0.6392899
vn -0.8009647 -0.534735858 -0.26928255
vn -0.719292939 -0.5766241 -0.387456179
vn -0.5451607 -0.54231745 -0.6392899
vn -0.679788947 0.7303856 0.06651195
vn -0.5220413 0.7674374 -0.372172952
vn -0.8009647 -0.534735858 -0.26928255
vn 0.030218957 0.792955339 -0.608529866
vn 0.670111537 -0.5652436 -0.4810927
vn 0.08477492 -0.56813 -0.81856066
vn 0.5768573 0.7416215 -0.342393368
vn 0.6786053 0.600255668 -0.423306048
vn -0.161332637 -0.209425122 0.9644236
vn 0.896250069 -0.380578071 0.227807269
vn 0.0884132 0.8980818 -0.4308506
vn -0.518269 0.618784249 -0.5903417
vn -0.124711789 0.902067363 0.4131845
vn 0.499996722 0.6731216 0.544895053
vn -0.0267318189 0.957631648 0.286752522
vn 0.720686555 0.557134151 0.412568063
vn -0.592935562 0.747039437 0.300598532
vn 0.1429814 0.5047955 -0.8513154
vn 0.0884132 0.8980818 -0.4308506
vn -0.518269 0.618784249 -0.5903417
vn -0.8042723 0.5903728 -0.06786767
vn 0.6786053 0.600255668 -0.423306048
vn -0.900347352 -0.3881815 -0.196697086
vn 0.369273841 -0.06526797 0.927025855
vn 0.369273841 -0.06526797 0.927025855
vn 0.369273841 -0.06526797 0.927025855
vn 0.418188125 0.0149027519 0.9082382
vn 0.418188125 0.0149027519 0.9082382
vn 0.418188125 0.0149027519 0.9082382
vn -0.9999907 -0.00091078534 -0.00421939837
vn -0.9999907 -0.00091078534 -0.00421939837
vn -0.9999907 -0.00091078534 -0.00421939837
vn -0.5957342 0.0123633435 0.8030865
vn -0.5957342 0.0123633435 0.8030865
vn -0.5957342 0.0123633435 0.8030865
vn -0.6176955 -0.014650017 0.7862809
vn -0.6176955 -0.014650017 0.7862809
vn -0.6176955 -0.014650017 0.7862809
vn 0.895863354 0.0078725135 0.444259971
vn 0.895863354 0.0078725135 0.444259971
vn 0.895863354 0.0078725135 0.444259971
vn -0.900347352 -0.3881815 -0.196697086
vn -0.719292939 -0.5766241 -0.387456179
vn 0.808001 -0.582647562 0.08749988
vn 0.8060767 -0.591795564 0.004288424
vn 0.896250069 -0.380578071 0.227807269
vn 0.692615032 0.6712163 0.264108121
vn -0.0267318189 0.957631648 0.286752522
vn 0.5768573 0.7416215 -0.342393368
vn 0.030218957 0.792955339 -0.608529866
vn 0.499996722 0.6731216 0.544895053
vn 0.692615032 0.6712163 0.264108121
vn -0.592935562 0.747039437 0.300598532
vn -0.5220413 0.7674374 -0.372172952
vn -0.679788947 0.7303856 0.06651195
usemtl 0001990109_part_0_material_0
f 1/1/1 2/2/2 3/3/3
f 1/1/1 3/3/3 4/4/4
f 5/5/5 6/6/6 7/7/7
f 5/5/5 7/7/7 8/8/8
f 5/5/5 8/8/8 9/9/9
f 1/1/1 4/4/4 10/10/10
f 11/11/11 12/12/12 13/13/13
f 13/13/13 14/14/14 11/11/11
f 15/15/15 16/16/16 17/17/17
f 17/17/17 18/18/18 15/15/15
f 19/19/19 20/20/20 21/21/21
f 21/21/21 22/22/22 23/23/23
f 24/24/24 25/25/25 26/26/26
f 26/26/26 27/27/27 24/24/24
f 13/13/13 28/28/28 14/14/14
f 24/24/24 27/27/27 29/29/29
f 30/30/30 31/31/31 29/29/29
f 32/32/32 24/24/24 29/29/29
f 33/33/33 30/30/30 29/29/29
f 21/21/21 34/34/34 22/22/22
f 21/21/21 23/23/23 19/19/19
f 35/35/35 36/36/36 37/37/37
f 38/38/38 39/39/39 40/40/40
f 41/41/41 42/42/42 43/43/43
f 44/44/44 45/45/45 46/46/46
f 47/47/47 48/48/48 49/49/49
f 50/50/50 51/51/51 52/52/52
f 28/28/28 25/25/25 24/24/24
f 24/24/24 32/32/32 28/28/28
f 53/53/53 54/54/54 32/32/32
f 55/55/55 56/56/56 27/27/27
f 27/27/27 57/57/57 29/29/29
f 31/31/31 53/53/53 29/29/29
f 29/29/29 57/57/57 33/33/33
f 32/32/32 54/54/54 14/14/14
f 27/27/27 26/26/26 55/55/55
f 28/28/28 32/32/32 14/14/14
f 26/26/26 58/58/58 55/55/55
f 9/9/9 10/10/10 4/4/4
f 4/4/4 5/5/5 9/9/9
f 11/11/11 16/16/16 15/15/15
f 15/15/15 12/12/12 11/11/11
f 55/55/55 58/58/58 18/18/18
f 18/18/18 17/17/17 55/55/55
f 59/59/59 60/60/60 61/61/61
f 62/62/62 59/59/59 61/61/61
f 62/62/62 61/61/61 63/63/63
f 64/64/64 65/65/65 66/66/66
f 59/59/59 64/64/64 66/66/66
f 59/59/59 66/66/66 60/60/60
f 32/32/32 29/29/29 53/53/53
f 27/27/27 56/56/56 57/57/57
f 67/67/67 68/68/68 69/69/69
f 67/67/67 70/70/70 68/68/68
f 71/71/71 72/72/72 73/73/73
f 71/71/71 74/74/74 72/72/72
f 71/71/71 75/75/75 74/74/74
f 67/67/67 76/76/76 70/70/70
f 77/77/77 78/78/78 79/79/79
f 78/78/78 77/77/77 80/80/80
f 81/81/81 82/82/82 83/83/83
f 82/82/82 81/81/81 84/84/84
f 85/85/85 86/86/86 87/87/87
f 86/86/86 88/88/88 89/89/89
f 90/90/90 91/91/91 92/92/92
f 91/91/91 90/90/90 93/93/93
f 78/78/78 80/80/80 94/94/94
f 90/90/90 95/95/95 93/93/93
f 96/96/96 95/95/95 97/97/97
f 98/98/98 95/95/95 90/90/90
f 99/99/99 95/95/95 96/96/96
f 86/86/86 89/89/89 100/100/100
f 86/86/86 85/85/85 88/88/88
f 101/101/101 102/102/102 103/103/103
f 104/104/104 105/105/105 106/106/106
f 107/107/107 108/108/108 109/109/109
f 110/110/110 111/111/111 112/112/112
f 113/113/113 114/114/114 115/115/115
f 116/116/116 117/117/117 118/118/118
f 94/94/94 90/90/90 92/92/92
f 90/90/90 94/94/94 98/98/98
f 119/119/119 98/98/98 120/120/120
f 121/121/121 93/93/93 122/122/122
f 93/93/93 95/95/95 123/123/123
f 97/97/97 95/95/95 119/119/119
f 95/95/95 99/99/99 123/123/123
f 98/98/98 80/80/80 120/120/120
f 93/93/93 121/121/121 91/91/91
f 94/94/94 80/80/80 98/98/98
f 91/91/91 121/121/121 124/124/124
f 75/75/75 70/70/70 76/76/76
f 70/70/70 75/75/75 71/71/71
f 77/77/77 81/81/81 83/83/83
f 81/81/81 77/77/77 79/79/79
f 121/121/121 84/84/84 124/124/124
f 84/84/84 121/121/121 82/82/82
f 125/125/125 126/126/126 127/127/127
f 128/128/128 126/126/126 125/125/125
f 128/128/128 129/129/129 126/126/126
f 130/130/130 131/131/131 132/132/132
f 125/125/125 131/131/131 130/130/130
f 125/125/125 127/127/127 131/131/131
f 98/98/98 119/119/119 95/95/95
f 93/93/93 123/123/123 122/122/122
