mtllib 0001910004.mtl
o 0001910004_part_0
v 0.4531853 -0.00522300135 -0.1726336
v 0.4837613 -7.009938E-05 -0.0155251026
v 0.224577412 -7.04067E-05 0.030404713
v 0.321001917 -0.00522315456 -0.19918479
v 0.20547542 -0.00476734 -0.153401285
v 0.318743557 0.0033002873 0.5363127
v 0.266558141 -0.00335292565 0.407182485
v 0.581113338 -0.00335225 0.357426077
v 0.566616833 0.003300591 0.504503
v 0.412283719 0.3642618 -0.163390741
v 0.459936857 0.334369242 -0.0214230679
v 0.4837613 -7.009938E-05 -0.0155251026
v 0.4531853 -0.00522300135 -0.1726336
v 0.20547542 -0.00476734 -0.153401285
v 0.205015555 0.359202564 -0.142546937
v 0.321001917 -0.00522315456 -0.19918479
v 0.218655363 0.32055524 0.0297880713
v 0.205015555 0.359202564 -0.142546937
v 0.20547542 -0.00476734 -0.153401285
v 0.224577412 -7.04067E-05 0.030404713
v 0.266558141 -0.00335292565 0.407182485
v 0.318743557 0.0033002873 0.5363127
v 0.3255073 0.199892178 0.548969
v 0.2956807 0.250807732 0.354638
v 0.53559947 0.2555545 0.327444762
v 0.2956807 0.250807732 0.354638
v 0.3238493 0.3260549 0.4616006
v 0.528794 0.3256161 0.440360546
v 0.53559947 0.2555545 0.327444762
v 0.5597631 0.207173511 0.525086641
v 0.566616833 0.003300591 0.504503
v 0.581113338 -0.00335225 0.357426077
v 0.22281903 -0.002437688 0.231104627
v 0.270175725 0.318416774 0.13001658
v 0.55951035 -0.00243729539 0.1632062
v 0.467762738 0.326641232 0.120704718
v 0.284517 0.254995078 0.205002129
v 0.284517 0.254995078 0.205002129
v 0.50680393 0.261537552 0.178145885
v 0.50680393 0.261537552 0.178145885
v 0.5597631 0.207173511 0.525086641
v 0.3255073 0.199892178 0.548969
v 0.318743557 0.0033002873 0.5363127
v 0.566616833 0.003300591 0.504503
v 0.467762738 0.326641232 0.120704718
v 0.270175725 0.318416774 0.13001658
v 0.55951035 -0.00243729539 0.1632062
v 0.22281903 -0.002437688 0.231104627
v 0.412283719 0.3642618 -0.163390741
v 0.4531853 -0.00522300135 -0.1726336
v 0.528794 0.3256161 0.440360546
v 0.3238493 0.3260549 0.4616006
v -0.204584152 0.000958251359 -0.165727437
v -0.46376574 0.000965874351 -0.211670414
v -0.433181584 -0.00413269969 -0.3687791
v -0.30099684 -0.004119613 -0.395323545
v -0.185472667 -0.00367565453 -0.349534035
v -0.29877612 0.00415414525 0.340176821
v -0.5466477 0.004157331 0.308354557
v -0.561136544 -0.002446028 0.161274672
v -0.246583924 -0.0024535493 0.211047038
v -0.3927874 0.399434716 -0.3222289
v -0.433181584 -0.00413269969 -0.3687791
v -0.46376574 0.000965874351 -0.211670414
v -0.442170382 0.342760772 -0.189305633
v -0.185472667 -0.00367565453 -0.349534035
v -0.30099684 -0.004119613 -0.395323545
v -0.1858373 0.3942493 -0.298460782
v -0.201543063 0.323916435 -0.136641
v -0.204584152 0.000958251359 -0.165727437
v -0.185472667 -0.00367565453 -0.349534035
v -0.1858373 0.3942493 -0.298460782
v -0.246583924 -0.0024535493 0.211047038
v -0.275711924 0.251724 0.158587381
v -0.3055468 0.200741515 0.352899522
v -0.29877612 0.00415414525 0.340176821
v -0.51562953 0.256472349 0.131383568
v -0.508832 0.3264958 0.244323492
v -0.303888351 0.32693392 0.265574068
v -0.275711924 0.251724 0.158587381
v -0.51562953 0.256472349 0.131383568
v -0.561136544 -0.002446028 0.161274672
v -0.5466477 0.004157331 0.308354557
v -0.539801538 0.208023459 0.329007775
v -0.254680276 0.302218378 -0.0396342576
v -0.202835888 -0.001477128 0.0349717438
v -0.53952384 -0.00146443618 -0.0329437852
v -0.4522133 0.3085346 -0.0512875468
v -0.264540762 0.255962551 0.008953532
v -0.264540762 0.255962551 0.008953532
v -0.486826569 0.262507051 -0.0179117825
v -0.486826569 0.262507051 -0.0179117825
v -0.539801538 0.208023459 0.329007775
v -0.5466477 0.004157331 0.308354557
v -0.29877612 0.00415414525 0.340176821
v -0.3055468 0.200741515 0.352899522
v -0.4522133 0.3085346 -0.0512875468
v -0.254680276 0.302218378 -0.0396342576
v -0.202835888 -0.001477128 0.0349717438
v -0.53952384 -0.00146443618 -0.0329437852
v -0.433181584 -0.00413269969 -0.3687791
v -0.3927874 0.399434716 -0.3222289
v -0.508832 0.3264958 0.244323492
v -0.303888351 0.32693392 0.265574068
vt 0.369653 0.554948568
vt 0.311967731 0.5588471
vt 0.314400643 0.468269944
vt 0.389979333 0.514609337
vt 0.382871836 0.471586585
vt 0.06363562 0.480685353
vt 0.128525823 0.4597684
vt 0.12949422 0.581307232
vt 0.06346968 0.56873256
vt 0.027985733 0.406923175
vt 0.244727239 0.407085
vt 0.24472858 0.0330632925
vt 0.0279870741 0.033062458
vt 0.512562156 0.3800056
vt 0.5171982 0.5859971
vt 0.6013278 0.379724622
vt 0.244727239 0.407085
vt 0.027985733 0.4069234
vt 0.0279870741 0.033062458
vt 0.24472858 0.0330632925
vt 0.7099102 0.03306496
vt 0.877353847 0.0330655575
vt 0.899806261 0.248478174
vt 0.67398417 0.294429421
vt 0.384683 0.9524109
vt 0.3828503 0.6302348
vt 0.566553235 0.656631
vt 0.5474921 0.93184185
vt 0.67398417 0.294429421
vt 0.899806261 0.248478174
vt 0.877353847 0.0330655575
vt 0.7099102 0.03306496
vt 0.479250252 0.033064127
vt 0.389436126 0.408441961
vt 0.479250252 0.033064127
vt 0.389436126 0.408441961
vt 0.5066396 0.316960216
vt 0.245421275 0.630055845
vt 0.217548355 0.9285549
vt 0.5066396 0.316960216
vt 0.7317263 0.9734293
vt 0.731727362 0.6588578
vt 0.9752747 0.6448169
vt 0.9752734 0.9776747
vt 0.08414684 0.8863324
vt 0.09646244 0.6206716
vt 0.214946523 0.577700138
vt 0.215546817 0.456318974
vt 0.6768115 0.585997045
vt 0.7028916 0.379724622
vt 0.8002674 0.408443451
vt 0.8002674 0.408443451
vt 0.314400643 0.468269944
vt 0.311967731 0.5588471
vt 0.369653 0.554948568
vt 0.389979333 0.514609337
vt 0.382871836 0.471586585
vt 0.06363562 0.480685353
vt 0.06346968 0.56873256
vt 0.12949422 0.581307232
vt 0.128525823 0.4597684
vt 0.027985733 0.406923175
vt 0.0279870741 0.033062458
vt 0.24472858 0.0330632925
vt 0.244727239 0.407085
vt 0.512562156 0.3800056
vt 0.6013278 0.379724622
vt 0.5171982 0.5859971
vt 0.244727239 0.407085
vt 0.24472858 0.0330632925
vt 0.0279870741 0.033062458
vt 0.027985733 0.4069234
vt 0.7099102 0.03306496
vt 0.67398417 0.294429421
vt 0.899806261 0.248478174
vt 0.877353847 0.0330655575
vt 0.384683 0.9524109
vt 0.5474921 0.93184185
vt 0.566553235 0.656631
vt 0.3828503 0.6302348
vt 0.67398417 0.294429421
vt 0.7099102 0.03306496
vt 0.877353847 0.0330655575
vt 0.899806261 0.248478174
vt 0.389436126 0.408441961
vt 0.479250252 0.033064127
vt 0.479250252 0.033064127
vt 0.389436126 0.408441961
vt 0.5066396 0.316960216
vt 0.245421275 0.630055845
vt 0.217548355 0.9285549
vt 0.5066396 0.316960216
vt 0.7317263 0.9734293
vt 0.9752734 0.9776747
vt 0.9752747 0.6448169
vt 0.731727362 0.6588578
vt 0.08414684 0.8863324
vt 0.09646244 0.6206716
vt 0.215546817 0.456318974
vt 0.214946523 0.577700138
vt 0.7028916 0.379724622
vt 0.6768115 0.585997045
vt 0.8002674 0.408443451
vt 0.8002674 0.408443451
vn 0.596374631 -0.5737444 -0.5613864
vn 0.6826732 -0.6984131 -0.214887038
vn -0.6906908 -0.722204149 0.03697782
vn -0.06654685 -0.6349897 -0.769649
vn -0.68275404 -0.5972163 -0.420927078
vn -0.42129305 -0.5914422 0.6875378
vn -0.723958254 -0.6553697 0.215348616
vn 0.7803749 -0.6252188 0.0107898256
vn 0.631375968 -0.56823957 0.527700841
vn 0.52030313 0.1177942 -0.845818639
vn 0.9626562 0.124976389 -0.240154073
vn 0.6826732 -0.6984131 -0.214887038
vn 0.596374631 -0.5737444 -0.5613864
vn -0.68275404 -0.5972163 -0.420927078
vn -0.7431558 0.07229254 -0.665201664
vn -0.06654685 -0.6349897 -0.769649
vn -0.979339659 0.07764075 0.186723828
vn -0.7431558 0.07229254 -0.665201664
vn -0.68275404 -0.5972163 -0.420927078
vn -0.6906908 -0.722204149 0.03697782
vn -0.723958254 -0.6553697 0.215348616
vn -0.42129305 -0.5914422 0.6875378
vn -0.5132916 0.242584765 0.823215842
vn -0.749970555 0.6608533 -0.02858409
vn 0.71595 0.664182663 -0.215120986
vn -0.749970555 0.6608533 -0.02858409
vn -0.507439435 0.833437443 0.218831554
vn 0.5014042 0.8581707 0.110167176
vn 0.71595 0.664182663 -0.215120986
vn 0.70957315 0.246615544 0.6600657
vn 0.631375968 -0.56823957 0.527700841
vn 0.7803749 -0.6252188 0.0107898256
vn -0.767151237 -0.6295205 0.123219281
vn -0.6166328 0.522095 0.5892204
vn 0.7635469 -0.619299054 -0.182934076
vn 0.721891761 0.604858339 0.336182564
vn -0.626463234 0.6776844 0.385081261
vn -0.626463234 0.6776844 0.385081261
vn 0.744964242 0.6658493 -0.0409019962
vn 0.744964242 0.6658493 -0.0409019962
vn 0.70957315 0.246615544 0.6600657
vn -0.5132916 0.242584765 0.823215842
vn -0.42129305 -0.5914422 0.6875378
vn 0.631375968 -0.56823957 0.527700841
vn 0.721891761 0.604858339 0.336182564
vn -0.6166328 0.522095 0.5892204
vn 0.7635469 -0.619299054 -0.182934076
vn -0.767151237 -0.6295205 0.123219281
vn 0.52030313 0.1177942 -0.845818639
vn 0.596374631 -0.5737444 -0.5613864
vn 0.5014042 0.8581707 0.110167176
vn -0.507439435 0.833437443 0.218831554
vn 0.692175 -0.7206672 0.03914891
vn -0.6900476 -0.691508353 -0.213659644
vn -0.5923424 -0.553434253 -0.5855263
vn 0.07031875 -0.600957632 -0.7961816
vn 0.6840028 -0.5747651 -0.44920513
vn 0.421277 -0.5916622 0.6873583
vn -0.631384552 -0.568438947 0.5274758
vn -0.7803553 -0.6252476 0.0105381059
vn 0.7239682 -0.655419648 0.2151629
vn -0.4823672 0.187200263 -0.8557324
vn -0.5923424 -0.553434253 -0.5855263
vn -0.6900476 -0.691508353 -0.213659644
vn -0.9597964 0.134609267 -0.246315181
vn 0.6840028 -0.5747651 -0.44920513
vn 0.07031875 -0.600957632 -0.7961816
vn 0.7305304 0.134305477 -0.66954273
vn 0.977528 0.06774923 0.1996223
vn 0.692175 -0.7206672 0.03914891
vn 0.6840028 -0.5747651 -0.44920513
vn 0.7305304 0.134305477 -0.66954273
vn 0.7239682 -0.655419648 0.2151629
vn 0.749950945 0.660886943 -0.0283214562
vn 0.513242066 0.242321655 0.823324263
vn 0.421277 -0.5916622 0.6873583
vn -0.715960443 0.664232731 -0.214931577
vn -0.5014372 0.8581172 0.1104334
vn 0.5074017 0.833379269 0.2191403
vn 0.749950945 0.660886943 -0.0283214562
vn -0.715960443 0.664232731 -0.214931577
vn -0.7803553 -0.6252476 0.0105381059
vn -0.631384552 -0.568438947 0.5274758
vn -0.709614456 0.246368647 0.6601135
vn 0.5906234 0.4939579 0.6380985
vn 0.7663797 -0.630601 0.122493044
vn -0.7642727 -0.616871357 -0.188034564
vn -0.7240573 0.5812787 0.371289849
vn 0.6214993 0.6664109 0.4118678
vn 0.6214993 0.6664109 0.4118678
vn -0.736863732 0.6596298 -0.148055226
vn -0.736863732 0.6596298 -0.148055226
vn -0.709614456 0.246368647 0.6601135
vn -0.631384552 -0.568438947 0.5274758
vn 0.421277 -0.5916622 0.6873583
vn 0.513242066 0.242321655 0.823324263
vn -0.7240573 0.5812787 0.371289849
vn 0.5906234 0.4939579 0.6380985
vn 0.7663797 -0.630601 0.122493044
vn -0.7642727 -0.616871357 -0.188034564
vn -0.5923424 -0.553434253 -0.5855263
vn -0.4823672 0.187200263 -0.8557324
vn -0.5014372 0.8581172 0.1104334
vn 0.5074017 0.833379269 0.2191403
usemtl 0001910004_part_0_material_0
f 1/1/1 2/2/2 3/3/3
f 4/4/4 1/1/1 3/3/3
f 5/5/5 4/4/4 3/3/3
f 6/6/6 7/7/7 8/8/8
f 8/8/8 9/9/9 6/6/6
f 10/10/10 11/11/11 12/12/12
f 12/12/12 13/13/13 10/10/10
f 14/14/14 15/15/15 16/16/16
f 17/17/17 18/18/18 19/19/19
f 19/19/19 20/20/20 17/17/17
f 21/21/21 22/22/22 23/23/23
f 23/23/23 24/24/24 21/21/21
f 25/25/25 26/26/26 27/27/27
f 27/27/27 28/28/28 25/25/25
f 29/29/29 30/30/30 31/31/31
f 31/31/31 32/32/32 29/29/29
f 17/17/17 20/20/20 33/33/33
f 33/33/33 34/34/34 17/17/17
f 35/35/35 12/12/12 11/11/11
f 11/11/11 36/36/36 35/35/35
f 33/33/33 37/37/37 34/34/34
f 38/38/38 26/26/26 25/25/25
f 25/25/25 39/39/39 38/38/38
f 35/35/35 40/40/40 29/29/29
f 29/29/29 32/32/32 35/35/35
f 41/41/41 42/42/42 43/43/43
f 43/43/43 44/44/44 41/41/41
f 35/35/35 36/36/36 40/40/40
f 33/33/33 21/21/21 24/24/24
f 24/24/24 37/37/37 33/33/33
f 45/45/45 46/46/46 38/38/38
f 38/38/38 39/39/39 45/45/45
f 2/2/2 47/47/47 48/48/48
f 48/48/48 3/3/3 2/2/2
f 16/16/16 49/49/49 50/50/50
f 16/16/16 15/15/15 49/49/49
f 8/8/8 7/7/7 48/48/48
f 48/48/48 47/47/47 8/8/8
f 29/29/29 51/51/51 30/30/30
f 41/41/41 28/28/28 27/27/27
f 27/27/27 42/42/42 41/41/41
f 23/23/23 52/52/52 24/24/24
f 53/53/53 54/54/54 55/55/55
f 53/53/53 55/55/55 56/56/56
f 57/57/57 53/53/53 56/56/56
f 58/58/58 59/59/59 60/60/60
f 60/60/60 61/61/61 58/58/58
f 62/62/62 63/63/63 64/64/64
f 64/64/64 65/65/65 62/62/62
f 66/66/66 67/67/67 68/68/68
f 69/69/69 70/70/70 71/71/71
f 71/71/71 72/72/72 69/69/69
f 73/73/73 74/74/74 75/75/75
f 75/75/75 76/76/76 73/73/73
f 77/77/77 78/78/78 79/79/79
f 79/79/79 80/80/80 77/77/77
f 81/81/81 82/82/82 83/83/83
f 83/83/83 84/84/84 81/81/81
f 69/69/69 85/85/85 86/86/86
f 86/86/86 70/70/70 69/69/69
f 87/87/87 88/88/88 65/65/65
f 65/65/65 64/64/64 87/87/87
f 86/86/86 85/85/85 89/89/89
f 90/90/90 91/91/91 77/77/77
f 77/77/77 80/80/80 90/90/90
f 87/87/87 82/82/82 81/81/81
f 81/81/81 92/92/92 87/87/87
f 93/93/93 94/94/94 95/95/95
f 95/95/95 96/96/96 93/93/93
f 87/87/87 92/92/92 88/88/88
f 86/86/86 89/89/89 74/74/74
f 74/74/74 73/73/73 86/86/86
f 97/97/97 91/91/91 90/90/90
f 90/90/90 98/98/98 97/97/97
f 54/54/54 53/53/53 99/99/99
f 99/99/99 100/100/100 54/54/54
f 67/67/67 101/101/101 102/102/102
f 67/67/67 102/102/102 68/68/68
f 60/60/60 100/100/100 99/99/99
f 99/99/99 61/61/61 60/60/60
f 81/81/81 84/84/84 103/103/103
f 93/93/93 96/96/96 79/79/79
f 79/79/79 78/78/78 93/93/93
f 75/75/75 74/74/74 104/104/104
