mtllib 0001010404.mtl
o 0001010404_part_0
v 0.30196625 4.61339951E-05 -0.258150518
v 0.425779074 4.63724136E-05 -0.21641323
v 0.49762848 4.66108322E-05 0.005010752
v 0.201783672 4.62532043E-05 0.07661614
v 0.157668963 4.60147858E-05 -0.180637151
v 0.620266736 4.684925E-05 0.406694174
v 0.262867123 4.64916229E-05 0.499208868
v 0.212811649 4.63724136E-05 0.318047
v 0.6007431 4.684925E-05 0.2189691
v 0.461098522 4.684925E-05 0.5526857
v 0.163370624 0.05500233 -0.181488663
v 0.147366911 0.15043509 -0.163176835
v 0.300919175 0.1664859 -0.2715
v 0.301178962 0.05500245 -0.258021444
v 0.3044222 0.330598235 -0.230310842
v 0.457950652 0.328956842 -0.0482235253
v 0.452648938 0.152318239 -0.201866627
v 0.300919175 0.1664859 -0.2715
v 0.201079637 0.325519443 -0.130787283
v 0.3044222 0.330598235 -0.230310842
v 0.194063053 0.1730032 0.0271061044
v 0.226954043 0.3277688 0.0265305173
v 0.589259 0.0542206764 0.220861986
v 0.567082167 0.145500183 0.220888212
v 0.5858735 0.144996524 0.41004774
v 0.613088667 0.05736363 0.407882869
v 0.4032831 0.211872935 0.28445977
v 0.445051 0.237422228 0.485259056
v 0.273430169 0.160229325 0.49534297
v 0.219909847 0.15227735 0.299852252
v 0.200248569 0.0459965467 0.07685814
v 0.487668276 0.162257671 -0.00264252536
v 0.200248569 0.0459965467 0.07685814
v 0.3572071 0.316479564 0.121399574
v 0.362642437 0.241357446 0.115902953
v 0.487668276 0.162257671 -0.00264252536
v 0.457950652 0.328956842 -0.0482235253
v 0.50312227 0.0459969044 0.004190646
v 0.4357986 0.05500269 -0.213893116
v 0.194063053 0.1730032 0.0271061044
v 0.226954043 0.3277688 0.0265305173
v 0.301178962 0.05500245 -0.258021444
v 0.45891273 0.17003727 0.5410612
v 0.464468628 0.06123662 0.5521448
v 0.266076744 0.04943967 0.49869442
v 0.620266736 4.684925E-05 0.406694174
v 0.461098522 4.684925E-05 0.5526857
v 0.262867123 4.64916229E-05 0.499208868
v 0.21849598 0.04981959 0.3171251
v 0.212811649 4.63724136E-05 0.318047
v 0.157668963 4.60147858E-05 -0.180637151
v 0.201783672 4.62532043E-05 0.07661614
v 0.30196625 4.61339951E-05 -0.258150518
v 0.425779074 4.63724136E-05 -0.21641323
v 0.30196625 4.61339951E-05 -0.258150518
v 0.49762848 4.66108322E-05 0.005010752
v 0.50312227 0.0459969044 0.004190646
v 0.200248569 0.0459965467 0.07685814
v 0.6007431 4.684925E-05 0.2189691
v 0.362642437 0.241357446 0.115902953
v -0.2819581 0.0011703968 -0.454284966
v -0.4776337 0.00107526779 -0.1911337
v -0.405773073 0.0011523962 -0.412553966
v -0.181792513 0.001060009 -0.119513273
v -0.13766472 0.0011484623 -0.376764268
v -0.6002923 0.0009354353 0.210543483
v -0.192832768 0.0009778738 0.121917017
v -0.242897421 0.0009149313 0.303076327
v -0.580759168 0.0009995699 0.0228194352
v -0.441131562 0.000890851 0.356543064
v -0.1433681 0.0561049 -0.377597421
v -0.280915678 0.1676147 -0.467577875
v -0.127368376 0.151531935 -0.359252363
v -0.2811726 0.0561265945 -0.454137176
v -0.284426063 0.331712961 -0.426333159
v -0.43264854 0.153418541 -0.397957027
v -0.437963754 0.3300048 -0.244254246
v -0.280915678 0.1676147 -0.467577875
v -0.284426063 0.331712961 -0.426333159
v -0.181088343 0.326603651 -0.3268061
v -0.206970826 0.328798771 -0.169488877
v -0.1740749 0.174034 -0.168964177
v -0.5692769 0.05517316 0.0247312989
v -0.565903842 0.145884991 0.213948026
v -0.547103047 0.146453381 0.0247896444
v -0.593116164 0.058251977 0.211752012
v -0.3833093 0.2128098 0.08839203
v -0.425088227 0.2382896 0.289197832
v -0.2534654 0.161098838 0.299264282
v -0.1999349 0.153214812 0.1037736
v -0.1802589 0.0470103025 -0.119255587
v -0.467678338 0.163289189 -0.198731378
v -0.1802589 0.0470103025 -0.119255587
v -0.3372284 0.317473173 -0.07463029
v -0.467678338 0.163289189 -0.198731378
v -0.342661053 0.242352724 -0.0801527
v -0.437963754 0.3300048 -0.244254246
v -0.483128935 0.04702556 -0.191938475
v -0.4157945 0.05610752 -0.4100157
v -0.1740749 0.174034 -0.168964177
v -0.206970826 0.328798771 -0.169488877
v -0.2811726 0.0561265945 -0.454137176
v -0.438950628 0.1708852 0.344976485
v -0.444503635 0.06208062 0.3560228
v -0.246108592 0.0503082275 0.3025785
v -0.6002923 0.0009354353 0.210543483
v -0.441131562 0.000890851 0.356543064
v -0.242897421 0.0009149313 0.303076327
v -0.192832768 0.0009778738 0.121917017
v -0.198518634 0.05075121 0.121011741
v -0.13766472 0.0011484623 -0.376764268
v -0.181792513 0.001060009 -0.119513273
v -0.2819581 0.0011703968 -0.454284966
v -0.405773073 0.0011523962 -0.412553966
v -0.2819581 0.0011703968 -0.454284966
v -0.4776337 0.00107526779 -0.1911337
v -0.483128935 0.04702556 -0.191938475
v -0.1802589 0.0470103025 -0.119255587
v -0.580759168 0.0009995699 0.0228194352
v -0.342661053 0.242352724 -0.0801527
vt 0.165653482 0.0574951768
vt 0.223392949 0.1045928
vt 0.256222457 0.239258051
vt 0.0617025755 0.239087164
vt 0.0743047446 0.09302509
vt 0.240139887 0.5273266
vt 0.0491155125 0.527985334
vt 0.03307693 0.418012023
vt 0.272294134 0.4180048
vt 0.1399932 0.5834576
vt 0.340256155 0.8341521
vt 0.4390986 0.821210742
vt 0.456366777 0.961433649
vt 0.340256155 0.961433649
vt 0.6608399 0.961433649
vt 0.6435717 0.7488484
vt 0.8319605 0.807066739
vt 0.815055251 0.961433649
vt 0.6038085 0.826489449
vt 0.607025743 0.961433649
vt 0.48426038 0.659855
vt 0.6118524 0.735480368
vt 0.8875654 0.392773271
vt 0.793018639 0.408339739
vt 0.765090466 0.242525756
vt 0.8371704 0.198530078
vt 0.63187 0.396351337
vt 0.63187 0.231874108
vt 0.4966657 0.242056608
vt 0.477407157 0.412780523
vt 0.340256155 0.606509
vt 0.79240495 0.659468651
vt 0.340256155 0.6069986
vt 0.151444614 0.8111182
vt 0.05135868 0.7950402
vt 0.05135868 0.608859837
vt 0.2220056 0.685105145
vt 0.9349622 0.6098087
vt 0.9349622 0.8299494
vt 0.05135868 0.969635963
vt 0.221428186 0.9269486
vt 0.9349622 0.961433649
vt 0.632464767 0.1672666
vt 0.6322967 0.06802416
vt 0.419369072 0.167029977
vt 0.8753955 0.170401752
vt 0.6322519 0.0252654552
vt 0.386475623 0.139835
vt 0.373455733 0.3900162
vt 0.331510574 0.3870108
vt 0.294567168 0.832425356
vt 0.294567168 0.6027163
vt 0.294567168 0.961433649
vt 0.9832972 0.836330652
vt 0.9832972 0.961433649
vt 0.9832972 0.6045469
vt 0.248321429 0.266138315
vt 0.06485583 0.265953
vt 0.9347662 0.385718
vt 0.63187 0.587259352
vt 0.165653482 0.0574951768
vt 0.256222457 0.239258051
vt 0.223392949 0.1045928
vt 0.0617025755 0.239087164
vt 0.0743047446 0.09302509
vt 0.240139887 0.5273266
vt 0.03307693 0.418012023
vt 0.0491155125 0.527985334
vt 0.272294134 0.4180048
vt 0.1399932 0.5834576
vt 0.340256155 0.8341521
vt 0.456366777 0.961433649
vt 0.4390986 0.821210742
vt 0.340256155 0.961433649
vt 0.6608399 0.961433649
vt 0.8319605 0.807066739
vt 0.6435717 0.7488484
vt 0.815055251 0.961433649
vt 0.607025743 0.961433649
vt 0.6038085 0.826489449
vt 0.6118524 0.735480368
vt 0.48426038 0.659855
vt 0.8875654 0.392773271
vt 0.765090466 0.242525756
vt 0.793018639 0.408339739
vt 0.8371704 0.198530078
vt 0.63187 0.396351337
vt 0.63187 0.231874108
vt 0.4966657 0.242056608
vt 0.477407157 0.412780523
vt 0.340256155 0.606509
vt 0.79240495 0.659468651
vt 0.340256155 0.6069986
vt 0.151444614 0.8111182
vt 0.05135868 0.608859837
vt 0.05135868 0.7950402
vt 0.2220056 0.685105145
vt 0.9349622 0.6098087
vt 0.9349622 0.8299494
vt 0.05135868 0.969635963
vt 0.221428186 0.9269486
vt 0.9349622 0.961433649
vt 0.632464767 0.1672666
vt 0.6322967 0.06802416
vt 0.419369072 0.167029977
vt 0.8753955 0.170401752
vt 0.6322519 0.0252654552
vt 0.386475623 0.139835
vt 0.331510574 0.3870108
vt 0.373455733 0.3900162
vt 0.294567168 0.832425356
vt 0.294567168 0.6027163
vt 0.294567168 0.961433649
vt 0.9832972 0.836330652
vt 0.9832972 0.961433649
vt 0.9832972 0.6045469
vt 0.248321429 0.266138315
vt 0.06485583 0.265953
vt 0.9347662 0.385718
vt 0.63187 0.587259352
vn -0.06675108 -0.625876546 -0.7770604
vn 0.5121117 -0.650726855 -0.560621262
vn 0.6764844 -0.60816294 0.4153392
vn -0.439287 -0.58231914 0.6840551
vn -0.744844735 -0.5655239 -0.354103148
vn 0.774633 -0.5765583 0.259854317
vn -0.5759401 -0.5905639 0.5652675
vn -0.7481661 -0.66058594 0.06223945
vn 0.7450487 -0.616392255 -0.254878432
vn 0.17396833 -0.6143178 0.769641936
vn -0.877875268 -0.0109063657 -0.47876516
vn -0.937817 0.101542585 -0.331946462
vn -0.09011796 0.0974890143 -0.9911482
vn -0.09627951 -0.061791487 -0.9934345
vn -0.004967666 0.402864158 -0.9152463
vn 0.940933049 0.3377857 -0.0233621374
vn 0.781968534 0.1377391 -0.607908845
vn -0.09011796 0.0974890143 -0.9911482
vn -0.9040345 0.328041464 -0.274062753
vn -0.004967666 0.402864158 -0.9152463
vn -0.919590056 0.238058671 0.312541544
vn -0.815007031 0.190191224 0.5473489
vn 0.9462563 0.219958141 -0.237102211
vn 0.7761474 0.611743867 -0.152854741
vn 0.7964787 0.56367445 0.21884422
vn 0.932382643 0.1836258 0.3113586
vn 0.0489104241 0.99794805 0.0413214862
vn 0.132830113 0.93002224 0.342658341
vn -0.636867344 0.51055795 0.5776942
vn -0.8136982 0.557064 0.166057229
vn -0.8725429 -0.335829318 0.354806274
vn 0.9489336 0.3079315 -0.0685797855
vn -0.8725429 -0.335829318 0.354806274
vn 0.144830987 0.09304199 0.9850722
vn 0.136625081 0.705810368 0.6951009
vn 0.9489336 0.3079315 -0.0685797855
vn 0.940933049 0.3377857 -0.0233621374
vn 0.9491011 -0.307975441 -0.06601725
vn 0.715498865 -0.0857923552 -0.693326056
vn -0.919590056 0.238058671 0.312541544
vn -0.815007031 0.190191224 0.5473489
vn -0.09627951 -0.061791487 -0.9934345
vn 0.249181733 0.3829062 0.88954556
vn 0.255824775 0.0579418652 0.9649852
vn -0.702668 0.0659102 0.708458543
vn 0.774633 -0.5765583 0.259854317
vn 0.17396833 -0.6143178 0.769641936
vn -0.5759401 -0.5905639 0.5652675
vn -0.982069552 0.08051926 0.170458376
vn -0.7481661 -0.66058594 0.06223945
vn -0.744844735 -0.5655239 -0.354103148
vn -0.439287 -0.58231914 0.6840551
vn -0.06675108 -0.625876546 -0.7770604
vn 0.5121117 -0.650726855 -0.560621262
vn -0.06675108 -0.625876546 -0.7770604
vn 0.6764844 -0.60816294 0.4153392
vn 0.9491011 -0.307975441 -0.06601725
vn -0.8725429 -0.335829318 0.354806274
vn 0.7450487 -0.616392255 -0.254878432
vn 0.136625081 0.705810368 0.6951009
vn 0.06681055 -0.625610352 -0.7772696
vn -0.676485837 -0.6083258 0.415098369
vn -0.512061834 -0.6505535 -0.5608679
vn 0.439270884 -0.5825373 0.6838797
vn 0.744880557 -0.5653802 -0.3542572
vn -0.774627864 -0.576670945 0.259619445
vn 0.7481839 -0.660583258 0.06205334
vn 0.57593 -0.5907376 0.5650962
vn -0.7450159 -0.616329849 -0.255125016
vn -0.173987791 -0.614584744 0.7694244
vn 0.8778999 -0.0107157016 -0.478724271
vn 0.09016525 0.0978284851 -0.9911104
vn 0.937830567 0.101685256 -0.3318643
vn 0.09633176 -0.0614509247 -0.9934505
vn 0.005001181 0.403174937 -0.9151093
vn -0.78194195 0.1379206 -0.6079019
vn -0.940942764 0.337763369 -0.02329523
vn 0.09016525 0.0978284851 -0.9911104
vn 0.005001181 0.403174937 -0.9151093
vn 0.904037952 0.328163236 -0.273905545
vn 0.814973056 0.19003135 0.5474551
vn 0.9195666 0.237981871 0.312669069
vn -0.9462514 0.220007971 -0.237075523
vn -0.7965077 0.5635749 0.218994945
vn -0.7761594 0.6117707 -0.152686521
vn -0.932404339 0.183490425 0.3113734
vn -0.0489443652 0.997932434 0.0416574
vn -0.1328774 0.929901659 0.342967153
vn 0.636821568 0.510382533 0.577899635
vn 0.813672 0.557033539 0.166287437
vn 0.8725356 -0.335921884 0.354736656
vn -0.94894 0.30792436 -0.06852359
vn 0.8725356 -0.335921884 0.354736656
vn -0.14488408 0.09270279 0.985096335
vn -0.94894 0.30792436 -0.06852359
vn -0.136683077 0.705570161 0.695333362
vn -0.940942764 0.337763369 -0.02329523
vn -0.949087739 -0.3079837 -0.06616992
vn -0.715460956 -0.08557988 -0.693391442
vn 0.9195666 0.237981871 0.312669069
vn 0.814973056 0.19003135 0.5474551
vn 0.09633176 -0.0614509247 -0.9934505
vn -0.249239221 0.3825961 0.889662862
vn -0.255875915 0.05760577 0.964991748
vn 0.7026299 0.06569195 0.7085166
vn -0.774627864 -0.576670945 0.259619445
vn -0.173987791 -0.614584744 0.7694244
vn 0.57593 -0.5907376 0.5650962
vn 0.7481839 -0.660583258 0.06205334
vn 0.982058346 0.08049272 0.17053552
vn 0.744880557 -0.5653802 -0.3542572
vn 0.439270884 -0.5825373 0.6838797
vn 0.06681055 -0.625610352 -0.7772696
vn -0.512061834 -0.6505535 -0.5608679
vn 0.06681055 -0.625610352 -0.7772696
vn -0.676485837 -0.6083258 0.415098369
vn -0.949087739 -0.3079837 -0.06616992
vn 0.8725356 -0.335921884 0.354736656
vn -0.7450159 -0.616329849 -0.255125016
vn -0.136683077 0.705570161 0.695333362
usemtl 0001010404_part_0_material_0
f 1/1/1 2/2/2 3/3/3
f 1/1/1 3/3/3 4/4/4
f 1/1/1 4/4/4 5/5/5
f 6/6/6 7/7/7 8/8/8
f 6/6/6 8/8/8 9/9/9
f 6/6/6 10/10/10 7/7/7
f 11/11/11 12/12/12 13/13/13
f 13/13/13 14/14/14 11/11/11
f 15/15/15 16/16/16 17/17/17
f 17/17/17 18/18/18 15/15/15
f 12/12/12 19/19/19 20/20/20
f 20/20/20 13/13/13 12/12/12
f 12/12/12 21/21/21 22/22/22
f 22/22/22 19/19/19 12/12/12
f 23/23/23 24/24/24 25/25/25
f 25/25/25 26/26/26 23/23/23
f 25/25/25 24/24/24 27/27/27
f 27/27/27 28/28/28 25/25/25
f 29/29/29 28/28/28 27/27/27
f 27/27/27 30/30/30 29/29/29
f 12/12/12 11/11/11 31/31/31
f 31/31/31 21/21/21 12/12/12
f 16/16/16 32/32/32 17/17/17
f 21/21/21 33/33/33 30/30/30
f 34/34/34 35/35/35 36/36/36
f 36/36/36 37/37/37 34/34/34
f 17/17/17 32/32/32 38/38/38
f 38/38/38 39/39/39 17/17/17
f 40/40/40 35/35/35 34/34/34
f 34/34/34 41/41/41 40/40/40
f 39/39/39 42/42/42 18/18/18
f 18/18/18 17/17/17 39/39/39
f 43/43/43 26/26/26 25/25/25
f 26/26/26 43/43/43 44/44/44
f 43/43/43 45/45/45 44/44/44
f 45/45/45 43/43/43 29/29/29
f 44/44/44 46/46/46 26/26/26
f 46/46/46 44/44/44 47/47/47
f 48/48/48 47/47/47 44/44/44
f 44/44/44 45/45/45 48/48/48
f 45/45/45 49/49/49 50/50/50
f 50/50/50 48/48/48 45/45/45
f 51/51/51 52/52/52 31/31/31
f 31/31/31 11/11/11 51/51/51
f 53/53/53 51/51/51 11/11/11
f 11/11/11 14/14/14 53/53/53
f 54/54/54 55/55/55 42/42/42
f 42/42/42 39/39/39 54/54/54
f 56/56/56 54/54/54 39/39/39
f 39/39/39 38/38/38 56/56/56
f 4/4/4 3/3/3 57/57/57
f 9/9/9 8/8/8 58/58/58
f 38/38/38 32/32/32 24/24/24
f 38/38/38 23/23/23 59/59/59
f 24/24/24 32/32/32 60/60/60
f 60/60/60 27/27/27 24/24/24
f 60/60/60 21/21/21 30/30/30
f 30/30/30 27/27/27 60/60/60
f 49/49/49 45/45/45 29/29/29
f 29/29/29 30/30/30 49/49/49
f 30/30/30 33/33/33 49/49/49
f 23/23/23 26/26/26 46/46/46
f 46/46/46 59/59/59 23/23/23
f 4/4/4 57/57/57 58/58/58
f 24/24/24 23/23/23 38/38/38
f 58/58/58 57/57/57 9/9/9
f 33/33/33 50/50/50 49/49/49
f 25/25/25 28/28/28 43/43/43
f 43/43/43 28/28/28 29/29/29
f 61/61/61 62/62/62 63/63/63
f 61/61/61 64/64/64 62/62/62
f 61/61/61 65/65/65 64/64/64
f 66/66/66 67/67/67 68/68/68
f 66/66/66 69/69/69 67/67/67
f 66/66/66 68/68/68 70/70/70
f 71/71/71 72/72/72 73/73/73
f 72/72/72 71/71/71 74/74/74
f 75/75/75 76/76/76 77/77/77
f 76/76/76 75/75/75 78/78/78
f 73/73/73 79/79/79 80/80/80
f 79/79/79 73/73/73 72/72/72
f 73/73/73 81/81/81 82/82/82
f 81/81/81 73/73/73 80/80/80
f 83/83/83 84/84/84 85/85/85
f 84/84/84 83/83/83 86/86/86
f 84/84/84 87/87/87 85/85/85
f 87/87/87 84/84/84 88/88/88
f 89/89/89 87/87/87 88/88/88
f 87/87/87 89/89/89 90/90/90
f 73/73/73 91/91/91 71/71/71
f 91/91/91 73/73/73 82/82/82
f 77/77/77 76/76/76 92/92/92
f 82/82/82 90/90/90 93/93/93
f 94/94/94 95/95/95 96/96/96
f 95/95/95 94/94/94 97/97/97
f 76/76/76 98/98/98 92/92/92
f 98/98/98 76/76/76 99/99/99
f 100/100/100 94/94/94 96/96/96
f 94/94/94 100/100/100 101/101/101
f 99/99/99 78/78/78 102/102/102
f 78/78/78 99/99/99 76/76/76
f 103/103/103 84/84/84 86/86/86
f 86/86/86 104/104/104 103/103/103
f 103/103/103 104/104/104 105/105/105
f 105/105/105 89/89/89 103/103/103
f 104/104/104 86/86/86 106/106/106
f 106/106/106 107/107/107 104/104/104
f 108/108/108 104/104/104 107/107/107
f 104/104/104 108/108/108 105/105/105
f 105/105/105 109/109/109 110/110/110
f 109/109/109 105/105/105 108/108/108
f 111/111/111 91/91/91 112/112/112
f 91/91/91 111/111/111 71/71/71
f 113/113/113 71/71/71 111/111/111
f 71/71/71 113/113/113 74/74/74
f 114/114/114 102/102/102 115/115/115
f 102/102/102 114/114/114 99/99/99
f 116/116/116 99/99/99 114/114/114
f 99/99/99 116/116/116 98/98/98
f 64/64/64 117/117/117 62/62/62
f 69/69/69 118/118/118 67/67/67
f 98/98/98 85/85/85 92/92/92
f 98/98/98 119/119/119 83/83/83
f 85/85/85 120/120/120 92/92/92
f 120/120/120 85/85/85 87/87/87
f 120/120/120 90/90/90 82/82/82
f 90/90/90 120/120/120 87/87/87
f 110/110/110 89/89/89 105/105/105
f 89/89/89 110/110/110 90/90/90
f 90/90/90 110/110/110 93/93/93
f 83/83/83 106/106/106 86/86/86
f 106/106/106 83/83/83 119/119/119
f 64/64/64 118/118/118 117/117/117
f 85/85/85 98/98/98 83/83/83
f 118/118/118 69/69/69 117/117/117
f 93/93/93 110/110/110 109/109/109
f 84/84/84 103/103/103 88/88/88
f 103/103/103 89/89/89 88/88/88
