mtllib 0001890003.mtl
o 0001890003_part_0
v 0.6358465 0.822123766 0.0167801827
v 0.7013683 0.791044354 0.0404768847
v 0.6143152 0.816495657 0.089418225
v 0.6733774 0.796557546 0.0918980241
v 0.7261472 1.0565263 0.04430797
v 0.648498654 1.04388428 0.168988556
v 0.614188135 1.10128868 -0.00407576375
v 0.5539932 1.361287 -0.107701108
v 0.5502107 1.44655907 -0.128750011
v 0.6743883 1.33942473 -0.228044271
v 0.678223431 1.45367432 -0.278683126
v 0.8364359 1.34659362 -0.220864058
v 0.82411027 1.46636617 -0.239527047
v 0.8637447 1.393111 -0.013185435
v 0.866017342 1.49597991 -0.06182085
v 0.70010227 1.389719 0.09286696
v 0.674348235 1.52660728 0.09004829
v 0.5630847 1.37937 0.06960586
v 0.554785669 1.51191068 0.04946231
v 0.5630847 1.37937 0.06960586
v 0.554785669 1.51191068 0.04946231
v 0.5717523 1.265667 0.00604472868
v 0.7484426 1.21867025 -0.238338113
v 0.869469941 1.26181436 -0.248357385
v 0.898068964 1.28523648 0.0216619
v 0.7113901 1.26430881 0.174105227
v 0.5085715 1.1555357 0.0579768568
v 0.8063359 1.0986588 -0.209960908
v 0.944862 1.09893882 -0.249415845
v 0.9470076 1.06432557 0.08665677
v 0.7982415 1.085396 0.18391484
v 0.5273193 1.14316654 0.1801633
v 0.648498654 1.04388428 0.168988556
v 0.5263841 0.8947489 0.157957911
v 0.4651836 0.9248868 0.17848295
v 0.517213166 0.9184551 0.0308954641
v 0.460200727 0.940331757 0.065030016
v 0.5273193 1.14316654 0.1801633
v 0.5263841 0.8947489 0.157957911
v 0.4651836 0.9248868 0.17848295
v 0.763140857 0.8399209 -0.2003448
v 0.743592441 0.7991022 -0.0232722871
v 0.653758347 0.8266896 -0.0289124921
v 0.7511104 0.9024961 0.141074866
v 0.6714177 0.9292133 0.137694031
v 0.8427251 0.8799089 0.07171213
v 0.6714177 0.9292133 0.137694031
v 0.7032026 0.937322736 0.0315633863
v 0.7032026 0.937322736 0.0315633863
v 0.7261472 1.0565263 0.04430797
v 0.8427251 0.8799089 0.07171213
v 0.7261472 1.0565263 0.04430797
v 0.8050812 0.965859354 -0.197255373
v 0.874021053 0.945248246 -0.227881372
v 0.8492305 0.8806 0.0238031037
v 0.6931749 0.9351032 0.00315277465
v 0.6931749 0.9351032 0.00315277465
v 0.6143152 0.816495657 0.089418225
v 0.6358465 0.822123766 0.0167801827
v 0.6358465 0.822123766 0.0167801827
v 0.7013683 0.791044354 0.0404768847
v 0.763140857 0.8399209 -0.2003448
v 0.743592441 0.7991022 -0.0232722871
v 0.653758347 0.8266896 -0.0289124921
v -0.5961277 0.7843152 0.07495864
v -0.615104258 0.777039766 0.0197773241
v -0.536689937 0.8019773 0.08183032
v -0.545177341 0.8044474 0.006375566
v -0.524699569 1.089654 -0.0186755825
v -0.5895706 1.04499841 0.141981333
v -0.6290707 1.04884052 0.00682789832
v -0.5566262 1.45380545 -0.321097016
v -0.4488792 1.466094 -0.146119416
v -0.5446956 1.3409667 -0.268910527
v -0.446272433 1.37786293 -0.133238286
v -0.7071487 1.4465704 -0.302371025
v -0.7056338 1.32607174 -0.284383863
v -0.7774025 1.46895659 -0.13205342
v -0.7675846 1.36663294 -0.08299635
v -0.6141919 1.523622 0.04418297
v -0.6213329 1.38448811 0.04478895
v -0.489460915 1.52587283 0.0197726712
v -0.482284069 1.39298594 0.0408934765
v -0.489460915 1.52587283 0.0197726712
v -0.482284069 1.39298594 0.0408934765
v -0.606882334 1.20077538 -0.2823825
v -0.458481431 1.23638487 -0.0018478604
v -0.725292742 1.23965168 -0.315200478
v -0.8012085 1.27302 -0.05558485
v -0.6436073 1.26413345 0.12774229
v -0.428856522 1.14283228 0.06657878
v -0.6640924 1.07894516 -0.259151161
v -0.7944438 1.07581758 -0.322001874
v -0.8553943 1.05592072 0.009834792
v -0.7251235 1.0832026 0.130353481
v -0.4813006 1.137639 0.1790806
v -0.5895706 1.04499841 0.141981333
v -0.403142065 0.9251027 0.09177603
v -0.440278977 0.9153799 0.199763358
v -0.4503245 0.9061198 0.0437381864
v -0.495912373 0.889124751 0.163837582
v -0.4813006 1.137639 0.1790806
v -0.440278977 0.9153799 0.199763358
v -0.495912373 0.889124751 0.163837582
v -0.554769456 0.807180047 -0.04189477
v -0.645373762 0.783149362 -0.0506371334
v -0.6324437 0.815041661 -0.230132759
v -0.5961696 0.9190911 0.114126496
v -0.6763668 0.895446539 0.104880087
v -0.755642354 0.8724295 0.02181245
v -0.608896 0.922598362 0.003829196
v -0.5961696 0.9190911 0.114126496
v -0.755642354 0.8724295 0.02181245
v -0.6290707 1.04884052 0.00682789832
v -0.608896 0.922598362 0.003829196
v -0.6290707 1.04884052 0.00682789832
v -0.732180357 0.9226105 -0.2813976
v -0.6686673 0.942375839 -0.240277022
v -0.753800154 0.870770335 -0.026477566
v -0.594254136 0.9184966 -0.0222750977
v -0.594254136 0.9184966 -0.0222750977
v -0.545177341 0.8044474 0.006375566
v -0.536689937 0.8019773 0.08183032
v -0.615104258 0.777039766 0.0197773241
v -0.545177341 0.8044474 0.006375566
v -0.6324437 0.815041661 -0.230132759
v -0.645373762 0.783149362 -0.0506371334
v -0.554769456 0.807180047 -0.04189477
vt 0.175358191 0.171620131
vt 0.226174727 0.208785057
vt 0.116582081 0.209864378
vt 0.15688 0.21171689
vt 0.7634474 0.47947
vt 0.835139 0.499533534
vt 0.801228762 0.5683583
vt 0.7473893 0.728451252
vt 0.7490021 0.864828
vt 0.6086896 0.7110036
vt 0.5750692 0.836809337
vt 0.465230316 0.7319549
vt 0.4475595 0.845060647
vt 0.301249623 0.750375867
vt 0.3214803 0.852213144
vt 0.166347042 0.7363268
vt 0.166209981 0.842984
vt 0.0534646027 0.706907451
vt 0.04205313 0.835391164
vt 0.876264632 0.742495239
vt 0.8998204 0.876659632
vt 0.809429765 0.701565862
vt 0.5948395 0.642058551
vt 0.45797652 0.65577054
vt 0.285479665 0.664893448
vt 0.125698522 0.6566758
vt 0.8918531 0.621483862
vt 0.5811284 0.479836822
vt 0.495556742 0.4806354
vt 0.263936251 0.467688441
vt 0.133314684 0.496672273
vt 0.011620393 0.555062
vt 0.077420786 0.47576654
vt 0.891308 0.37111485
vt 0.9821642 0.4444543
vt 0.890186 0.421849728
vt 0.9202444 0.4472543
vt 0.9759658 0.6235582
vt 0.06741044 0.344302475
vt 0.0217406116 0.358452559
vt 0.578537345 0.295774758
vt 0.5963719 0.243285656
vt 0.7253763 0.2855214
vt 0.148568943 0.324703932
vt 0.101868995 0.3220526
vt 0.248666123 0.324434578
vt 0.8580007 0.387052774
vt 0.7670712 0.377996445
vt 0.295016438 0.06156665
vt 0.305860847 0.181141257
vt 0.234922871 0.140540719
vt 0.2807879 0.2644233
vt 0.5578972 0.364739418
vt 0.495366216 0.347753942
vt 0.305867046 0.3228041
vt 0.753596067 0.3713265
vt 0.3156708 0.2663142
vt 0.8672721 0.292032719
vt 0.789227247 0.284280658
vt 0.2913852 0.0110770464
vt 0.236611262 0.013233602
vt 0.489556342 0.228966832
vt 0.34335044 0.218913436
vt 0.3220578 0.214505732
vt 0.15688 0.21171689
vt 0.226174727 0.208785057
vt 0.116582081 0.209864378
vt 0.175358191 0.171620131
vt 0.801228762 0.5683583
vt 0.835139 0.499533534
vt 0.7634474 0.47947
vt 0.5750692 0.836809337
vt 0.7490021 0.864828
vt 0.6086896 0.7110036
vt 0.7473893 0.728451252
vt 0.4475595 0.845060647
vt 0.465230316 0.7319549
vt 0.3214803 0.852213144
vt 0.301249623 0.750375867
vt 0.166209981 0.842984
vt 0.166347042 0.7363268
vt 0.04205313 0.835391164
vt 0.0534646027 0.706907451
vt 0.8998204 0.876659632
vt 0.876264632 0.742495239
vt 0.5948395 0.642058551
vt 0.809429765 0.701565862
vt 0.45797652 0.65577054
vt 0.285479665 0.664893448
vt 0.125698522 0.6566758
vt 0.8918531 0.621483862
vt 0.5811284 0.479836822
vt 0.495556742 0.4806354
vt 0.263936251 0.467688441
vt 0.133314684 0.496672273
vt 0.011620393 0.555062
vt 0.077420786 0.47576654
vt 0.9202444 0.4472543
vt 0.9821642 0.4444543
vt 0.890186 0.421849728
vt 0.891308 0.37111485
vt 0.9759658 0.6235582
vt 0.0217406116 0.358452559
vt 0.06741044 0.344302475
vt 0.7253763 0.2855214
vt 0.5963719 0.243285656
vt 0.578537345 0.295774758
vt 0.101868995 0.3220526
vt 0.148568943 0.324703932
vt 0.248666123 0.324434578
vt 0.7670712 0.377996445
vt 0.8580007 0.387052774
vt 0.234922871 0.140540719
vt 0.305860847 0.181141257
vt 0.295016438 0.06156665
vt 0.2807879 0.2644233
vt 0.495366216 0.347753942
vt 0.5578972 0.364739418
vt 0.305867046 0.3228041
vt 0.753596067 0.3713265
vt 0.3156708 0.2663142
vt 0.789227247 0.284280658
vt 0.8672721 0.292032719
vt 0.236611262 0.013233602
vt 0.2913852 0.0110770464
vt 0.489556342 0.228966832
vt 0.34335044 0.218913436
vt 0.3220578 0.214505732
vn -0.58057487 -0.23100166 -0.7807503
vn 0.265617073 -0.834018469 -0.483591527
vn -0.880220354 -0.3473258 0.3233835
vn -0.0415267348 -0.8435348 0.5354666
vn -0.711219966 -0.552259266 -0.4349436
vn -0.0411803946 -0.5312514 0.8462128
vn -0.4007342 -0.5640687 -0.7219686
vn -0.903099537 -0.2792385 -0.326247066
vn -0.9274622 -0.140642926 -0.346458435
vn -0.462104648 -0.2854203 -0.839639544
vn -0.2615168 -0.3132412 -0.9129561
vn 0.666770637 0.215964049 -0.7132857
vn 0.7345563 -0.06272159 -0.675642669
vn 0.8575479 0.333670378 0.391504437
vn 0.9610422 0.06063466 0.2696689
vn 0.21777676 0.352875829 0.909973562
vn 0.158022627 0.100376949 0.982320368
vn -0.805047452 0.18230097 0.564504147
vn -0.773418069 0.05128746 0.631818056
vn -0.805047452 0.18230097 0.564504147
vn -0.773418069 0.05128746 0.631818056
vn -0.8771074 -0.104628317 -0.468759567
vn -0.432374477 -0.244968355 -0.8677804
vn 0.5329051 0.299388826 -0.7914407
vn 0.8519805 0.3648523 0.3755156
vn 0.163830817 0.368381828 0.9151253
vn -0.905124545 0.151783213 -0.39712894
vn -0.5545733 -0.303711772 -0.7747307
vn 0.6928773 -0.077859804 -0.7168395
vn 0.872056246 -0.1293332 0.472007245
vn 0.3289696 -0.0176335722 0.944175839
vn -0.5943614 0.204455659 0.777774
vn -0.0411803946 -0.5312514 0.8462128
vn 0.2589078 -0.8970895 0.358046472
vn -0.6649551 -0.409186631 0.624820769
vn 0.0871177241 -0.6815615 -0.7265565
vn -0.863814652 -0.319943279 -0.3891793
vn -0.5943614 0.204455659 0.777774
vn 0.2589078 -0.8970895 0.358046472
vn -0.6649551 -0.409186631 0.624820769
vn -0.231132254 -0.597758353 -0.7676346
vn 0.0891043246 -0.9182338 0.385884851
vn -0.89781034 -0.38380596 0.215938747
vn 0.195071936 -0.396234244 0.8971875
vn -0.7584929 -0.116137415 0.6412493
vn 0.7909929 -0.576710761 -0.204291388
vn -0.7584929 -0.116137415 0.6412493
vn -0.3602537 0.1807959 -0.915166736
vn -0.3602537 0.1807959 -0.915166736
vn -0.711219966 -0.552259266 -0.4349436
vn 0.7909929 -0.576710761 -0.204291388
vn -0.711219966 -0.552259266 -0.4349436
vn -0.6942521 0.105343826 -0.7119808
vn 0.4380344 -0.456003517 -0.774717152
vn 0.474311382 -0.6362124 0.608491957
vn -0.882634342 0.124651022 0.453231484
vn -0.882634342 0.124651022 0.453231484
vn -0.880220354 -0.3473258 0.3233835
vn -0.58057487 -0.23100166 -0.7807503
vn -0.58057487 -0.23100166 -0.7807503
vn 0.265617073 -0.834018469 -0.483591527
vn -0.231132254 -0.597758353 -0.7676346
vn 0.0891043246 -0.9182338 0.385884851
vn -0.89781034 -0.38380596 0.215938747
vn -0.08833594 -0.8144141 0.5735211
vn -0.215481862 -0.8488762 -0.482676685
vn 0.795463562 -0.360495329 0.4871148
vn 0.695019245 -0.293221176 -0.656482756
vn 0.525636733 -0.6268109 -0.575164437
vn -0.17948024 -0.46324718 0.867864549
vn 0.788557768 -0.5689693 -0.233346328
vn 0.433618844 -0.267488152 -0.8604794
vn 0.985709846 -0.0147400284 -0.167805955
vn 0.6117556 -0.233945087 -0.755661845
vn 0.968066454 -0.118461959 -0.220939085
vn -0.619452655 -0.155850634 -0.7694082
vn -0.5771077 0.1428712 -0.8040737
vn -0.988017857 -0.07505779 0.134859324
vn -0.930662155 0.270652056 0.246201888
vn -0.301883876 0.0716868 0.9506456
vn -0.373761415 0.3531673 0.857656837
vn 0.664838 0.147804752 0.7322187
vn 0.6945553 0.2536057 0.6732586
vn 0.664838 0.147804752 0.7322187
vn 0.6945553 0.2536057 0.6732586
vn 0.5866268 -0.26488477 -0.7653137
vn 0.9557307 -0.09358091 -0.278965
vn -0.398003459 0.242931664 -0.8846341
vn -0.9126128 0.3550044 0.2027555
vn -0.3388278 0.407568 0.847988248
vn 0.989348233 0.0731503442 -0.125853479
vn 0.692236364 -0.322277069 -0.645713747
vn -0.550966144 -0.117036551 -0.826280057
vn -0.9404534 -0.113286853 0.320489466
vn -0.493280858 0.0174447987 0.8696952
vn 0.3978727 0.204289719 0.894406557
vn -0.17948024 -0.46324718 0.867864549
vn 0.906122148 -0.40329 -0.127670914
vn 0.428740323 -0.429818243 0.794630766
vn 0.069418475 -0.707531333 -0.7032642
vn -0.4305169 -0.85120666 0.30017066
vn 0.3978727 0.204289719 0.894406557
vn 0.428740323 -0.429818243 0.794630766
vn -0.4305169 -0.85120666 0.30017066
vn 0.829579949 -0.4033117 0.386182338
vn -0.194567546 -0.8923668 0.407216042
vn 0.332591 -0.6460764 -0.6869997
vn 0.649711 -0.04602644 0.7587866
vn -0.3598632 -0.3430356 0.8676549
vn -0.7621125 -0.5663118 -0.313808024
vn 0.5292725 0.136979178 -0.8373215
vn 0.649711 -0.04602644 0.7587866
vn -0.7621125 -0.5663118 -0.313808024
vn 0.788557768 -0.5689693 -0.233346328
vn 0.5292725 0.136979178 -0.8373215
vn 0.788557768 -0.5689693 -0.233346328
vn -0.30867514 -0.4839025 -0.8188761
vn 0.808538139 0.0512417257 -0.586208463
vn -0.5921407 -0.592521846 0.5461568
vn 0.7966757 0.114398591 0.593481958
vn 0.7966757 0.114398591 0.593481958
vn 0.695019245 -0.293221176 -0.656482756
vn 0.795463562 -0.360495329 0.4871148
vn -0.215481862 -0.8488762 -0.482676685
vn 0.695019245 -0.293221176 -0.656482756
vn 0.332591 -0.6460764 -0.6869997
vn -0.194567546 -0.8923668 0.407216042
vn 0.829579949 -0.4033117 0.386182338
usemtl 0001890003_part_0_material_0
f 1/1/1 2/2/2 3/3/3
f 4/4/4 3/3/3 2/2/2
f 5/5/5 6/6/6 7/7/7
f 8/8/8 9/9/9 10/10/10
f 11/11/11 10/10/10 9/9/9
f 10/10/10 11/11/11 12/12/12
f 13/13/13 12/12/12 11/11/11
f 12/12/12 13/13/13 14/14/14
f 15/15/15 14/14/14 13/13/13
f 14/14/14 15/15/15 16/16/16
f 17/17/17 16/16/16 15/15/15
f 16/16/16 17/17/17 18/18/18
f 19/19/19 18/18/18 17/17/17
f 20/20/20 21/21/21 8/8/8
f 9/9/9 8/8/8 21/21/21
f 22/22/22 8/8/8 23/23/23
f 10/10/10 23/23/23 8/8/8
f 23/23/23 10/10/10 24/24/24
f 12/12/12 24/24/24 10/10/10
f 12/12/12 14/14/14 24/24/24
f 25/25/25 24/24/24 14/14/14
f 25/25/25 14/14/14 26/26/26
f 16/16/16 26/26/26 14/14/14
f 26/26/26 16/16/16 18/18/18
f 8/8/8 22/22/22 20/20/20
f 27/27/27 22/22/22 7/7/7
f 23/23/23 7/7/7 22/22/22
f 7/7/7 23/23/23 28/28/28
f 28/28/28 23/23/23 29/29/29
f 24/24/24 29/29/29 23/23/23
f 24/24/24 25/25/25 29/29/29
f 30/30/30 29/29/29 25/25/25
f 30/30/30 25/25/25 31/31/31
f 26/26/26 31/31/31 25/25/25
f 18/18/18 32/32/32 26/26/26
f 33/33/33 31/31/31 32/32/32
f 26/26/26 32/32/32 31/31/31
f 34/34/34 35/35/35 36/36/36
f 37/37/37 36/36/36 35/35/35
f 38/38/38 20/20/20 27/27/27
f 22/22/22 27/27/27 20/20/20
f 36/36/36 7/7/7 34/34/34
f 6/6/6 34/34/34 7/7/7
f 37/37/37 27/27/27 36/36/36
f 7/7/7 36/36/36 27/27/27
f 35/35/35 38/38/38 37/37/37
f 27/27/27 37/37/37 38/38/38
f 39/39/39 33/33/33 40/40/40
f 32/32/32 40/40/40 33/33/33
f 28/28/28 5/5/5 7/7/7
f 41/41/41 42/42/42 43/43/43
f 44/44/44 31/31/31 45/45/45
f 33/33/33 45/45/45 31/31/31
f 46/46/46 30/30/30 44/44/44
f 31/31/31 44/44/44 30/30/30
f 47/47/47 6/6/6 48/48/48
f 5/5/5 48/48/48 6/6/6
f 49/49/49 50/50/50 51/51/51
f 30/30/30 46/46/46 52/52/52
f 53/53/53 28/28/28 54/54/54
f 29/29/29 54/54/54 28/28/28
f 54/54/54 29/29/29 55/55/55
f 30/30/30 55/55/55 29/29/29
f 56/56/56 5/5/5 53/53/53
f 28/28/28 53/53/53 5/5/5
f 55/55/55 30/30/30 57/57/57
f 52/52/52 57/57/57 30/30/30
f 4/4/4 44/44/44 3/3/3
f 45/45/45 3/3/3 44/44/44
f 2/2/2 46/46/46 4/4/4
f 44/44/44 4/4/4 46/46/46
f 58/58/58 47/47/47 59/59/59
f 48/48/48 59/59/59 47/47/47
f 60/60/60 49/49/49 61/61/61
f 51/51/51 61/61/61 49/49/49
f 54/54/54 62/62/62 53/53/53
f 62/62/62 54/54/54 63/63/63
f 55/55/55 63/63/63 54/54/54
f 43/43/43 56/56/56 41/41/41
f 53/53/53 41/41/41 56/56/56
f 63/63/63 55/55/55 64/64/64
f 57/57/57 64/64/64 55/55/55
f 65/65/65 66/66/66 67/67/67
f 68/68/68 67/67/67 66/66/66
f 69/69/69 70/70/70 71/71/71
f 72/72/72 73/73/73 74/74/74
f 75/75/75 74/74/74 73/73/73
f 76/76/76 72/72/72 77/77/77
f 74/74/74 77/77/77 72/72/72
f 78/78/78 76/76/76 79/79/79
f 77/77/77 79/79/79 76/76/76
f 80/80/80 78/78/78 81/81/81
f 79/79/79 81/81/81 78/78/78
f 82/82/82 80/80/80 83/83/83
f 81/81/81 83/83/83 80/80/80
f 75/75/75 84/84/84 85/85/85
f 84/84/84 75/75/75 73/73/73
f 74/74/74 75/75/75 86/86/86
f 87/87/87 86/86/86 75/75/75
f 77/77/77 74/74/74 88/88/88
f 86/86/86 88/88/88 74/74/74
f 89/89/89 79/79/79 88/88/88
f 77/77/77 88/88/88 79/79/79
f 81/81/81 79/79/79 90/90/90
f 89/89/89 90/90/90 79/79/79
f 83/83/83 81/81/81 90/90/90
f 85/85/85 87/87/87 75/75/75
f 86/86/86 87/87/87 69/69/69
f 91/91/91 69/69/69 87/87/87
f 92/92/92 86/86/86 69/69/69
f 88/88/88 86/86/86 93/93/93
f 92/92/92 93/93/93 86/86/86
f 94/94/94 89/89/89 93/93/93
f 88/88/88 93/93/93 89/89/89
f 90/90/90 89/89/89 95/95/95
f 94/94/94 95/95/95 89/89/89
f 90/90/90 96/96/96 83/83/83
f 90/90/90 95/95/95 96/96/96
f 97/97/97 96/96/96 95/95/95
f 98/98/98 99/99/99 100/100/100
f 101/101/101 100/100/100 99/99/99
f 91/91/91 85/85/85 102/102/102
f 85/85/85 91/91/91 87/87/87
f 70/70/70 69/69/69 101/101/101
f 100/100/100 101/101/101 69/69/69
f 69/69/69 91/91/91 100/100/100
f 98/98/98 100/100/100 91/91/91
f 98/98/98 102/102/102 99/99/99
f 102/102/102 98/98/98 91/91/91
f 103/103/103 97/97/97 104/104/104
f 97/97/97 103/103/103 96/96/96
f 69/69/69 71/71/71 92/92/92
f 105/105/105 106/106/106 107/107/107
f 97/97/97 95/95/95 108/108/108
f 109/109/109 108/108/108 95/95/95
f 95/95/95 94/94/94 109/109/109
f 110/110/110 109/109/109 94/94/94
f 71/71/71 70/70/70 111/111/111
f 112/112/112 111/111/111 70/70/70
f 113/113/113 114/114/114 115/115/115
f 116/116/116 110/110/110 94/94/94
f 93/93/93 92/92/92 117/117/117
f 118/118/118 117/117/117 92/92/92
f 94/94/94 93/93/93 119/119/119
f 117/117/117 119/119/119 93/93/93
f 92/92/92 71/71/71 118/118/118
f 120/120/120 118/118/118 71/71/71
f 121/121/121 94/94/94 119/119/119
f 94/94/94 121/121/121 116/116/116
f 108/108/108 109/109/109 67/67/67
f 65/65/65 67/67/67 109/109/109
f 109/109/109 110/110/110 65/65/65
f 66/66/66 65/65/65 110/110/110
f 122/122/122 112/112/112 123/123/123
f 112/112/112 122/122/122 111/111/111
f 124/124/124 115/115/115 125/125/125
f 115/115/115 124/124/124 113/113/113
f 118/118/118 126/126/126 117/117/117
f 127/127/127 117/117/117 126/126/126
f 117/117/117 127/127/127 119/119/119
f 118/118/118 120/120/120 107/107/107
f 105/105/105 107/107/107 120/120/120
f 128/128/128 119/119/119 127/127/127
f 119/119/119 128/128/128 121/121/121
