mtllib 0001011504.mtl
o 0001011504_part_0
v 0.272119939 -0.0184500758 0.414677
v 0.5678904 -0.0184498858 0.289507151
v 0.489623219 -0.0184497181 0.456894457
v 0.3518796 -0.0184498038 0.5147572
v 0.2542119 -0.0141577283 0.1429595
v 0.488572747 -0.0141572477 0.0985613242
v 0.4637435 0.0290507935 -0.094646275
v 0.383385 0.02905046 -0.233175784
v 0.364049941 0.1794323 -0.148758411
v 0.4277979 0.146407485 -0.0708926246
v 0.383385 0.02905046 -0.233175784
v 0.247117773 0.0290505383 -0.222825944
v 0.256551385 0.179125249 -0.152650684
v 0.247117773 0.0290505383 -0.222825944
v 0.19476819 0.0290504862 -0.06364859
v 0.218421 0.149946049 -0.07642144
v 0.329458058 0.123310328 0.4599619
v 0.272269964 0.0257554483 0.415084958
v 0.352029562 0.0257554762 0.5151651
v 0.5012993 0.130764276 0.372461557
v 0.4897732 0.0257556848 0.4573024
v 0.5680404 0.02575564 0.289915055
v 0.3158193 0.162141979 0.2046004
v 0.299873441 0.203647643 0.06320798
v 0.254362 0.03004779 0.14336744
v 0.445456058 0.1622294 0.166282892
v 0.381092936 0.2082242 0.0389599875
v 0.4887227 0.0300481524 0.09896923
v 0.1946181 -0.0151550332 -0.06405649
v 0.463593543 -0.0151547259 -0.09505416
v 0.2469678 -0.015154982 -0.223233819
v 0.383235037 -0.0151550593 -0.233583659
v 0.4897732 0.0257556848 0.4573024
v 0.489623219 -0.0184497181 0.456894457
v 0.5678904 -0.0184498858 0.289507151
v 0.5680404 0.02575564 0.289915055
v 0.5680404 0.02575564 0.289915055
v 0.5678904 -0.0184498858 0.289507151
v 0.488572747 -0.0141572477 0.0985613242
v 0.4887227 0.0300481524 0.09896923
v 0.4887227 0.0300481524 0.09896923
v 0.488572747 -0.0141572477 0.0985613242
v 0.463593543 -0.0151547259 -0.09505416
v 0.4637435 0.0290507935 -0.094646275
v 0.4637435 0.0290507935 -0.094646275
v 0.463593543 -0.0151547259 -0.09505416
v 0.383235037 -0.0151550593 -0.233583659
v 0.383385 0.02905046 -0.233175784
v 0.383385 0.02905046 -0.233175784
v 0.383235037 -0.0151550593 -0.233583659
v 0.2469678 -0.015154982 -0.223233819
v 0.247117773 0.0290505383 -0.222825944
v 0.247117773 0.0290505383 -0.222825944
v 0.2469678 -0.015154982 -0.223233819
v 0.1946181 -0.0151550332 -0.06405649
v 0.19476819 0.0290504862 -0.06364859
v 0.19476819 0.0290504862 -0.06364859
v 0.1946181 -0.0151550332 -0.06405649
v 0.2542119 -0.0141577283 0.1429595
v 0.254362 0.03004779 0.14336744
v 0.254362 0.03004779 0.14336744
v 0.2542119 -0.0141577283 0.1429595
v 0.272119939 -0.0184500758 0.414677
v 0.272269964 0.0257554483 0.415084958
v 0.272269964 0.0257554483 0.415084958
v 0.272119939 -0.0184500758 0.414677
v 0.3518796 -0.0184498038 0.5147572
v 0.352029562 0.0257554762 0.5151651
v 0.352029562 0.0257554762 0.5151651
v 0.3518796 -0.0184498038 0.5147572
v 0.489623219 -0.0184497181 0.456894457
v 0.4897732 0.0257556848 0.4573024
v -0.256129861 -0.0175532419 0.218537867
v -0.335894585 -0.0175895076 0.318613976
v -0.473635256 -0.0175741687 0.2607442
v -0.55189395 -0.0175199956 0.0933529958
v -0.23820816 -0.0131680677 -0.0531772152
v -0.472566783 -0.013159995 -0.0975872949
v -0.4477291 0.0301144477 -0.2907789
v -0.4020227 0.162 -0.269778669
v -0.337940127 0.205295593 -0.341023564
v -0.367363542 0.03016373 -0.429304272
v -0.367363542 0.03016373 -0.429304272
v -0.2304256 0.206738338 -0.343394846
v -0.231096819 0.0301646423 -0.418947518
v -0.231096819 0.0301646423 -0.418947518
v -0.192701161 0.168602854 -0.2718454
v -0.178755313 0.03011221 -0.259767562
v -0.3134748 0.124189943 0.263867944
v -0.33604598 0.0266156252 0.319036871
v -0.2562813 0.026652135 0.218960822
v -0.4853119 0.1316681 0.176361442
v -0.4737867 0.0266310871 0.261167169
v -0.552045345 0.02668538 0.0937759057
v -0.276504576 0.202183425 -0.128953308
v -0.299824357 0.163108751 0.008520432
v -0.238359675 0.0310373139 -0.0527542681
v -0.359868348 0.2070292 -0.151412129
v -0.429459184 0.163205042 -0.0298036225
v -0.472718179 0.0310452618 -0.09716438
v -0.447577715 -0.0140909264 -0.2912018
v -0.178603813 -0.01409317 -0.260190457
v -0.367212147 -0.01404165 -0.429727167
v -0.230945438 -0.0140407337 -0.419370443
v -0.4737867 0.0266310871 0.261167169
v -0.552045345 0.02668538 0.0937759057
v -0.55189395 -0.0175199956 0.0933529958
v -0.473635256 -0.0175741687 0.2607442
v -0.552045345 0.02668538 0.0937759057
v -0.472718179 0.0310452618 -0.09716438
v -0.472566783 -0.013159995 -0.0975872949
v -0.55189395 -0.0175199956 0.0933529958
v -0.472718179 0.0310452618 -0.09716438
v -0.4477291 0.0301144477 -0.2907789
v -0.447577715 -0.0140909264 -0.2912018
v -0.472566783 -0.013159995 -0.0975872949
v -0.4477291 0.0301144477 -0.2907789
v -0.367363542 0.03016373 -0.429304272
v -0.367212147 -0.01404165 -0.429727167
v -0.447577715 -0.0140909264 -0.2912018
v -0.367363542 0.03016373 -0.429304272
v -0.231096819 0.0301646423 -0.418947518
v -0.230945438 -0.0140407337 -0.419370443
v -0.367212147 -0.01404165 -0.429727167
v -0.231096819 0.0301646423 -0.418947518
v -0.178755313 0.03011221 -0.259767562
v -0.178603813 -0.01409317 -0.260190457
v -0.230945438 -0.0140407337 -0.419370443
v -0.178755313 0.03011221 -0.259767562
v -0.238359675 0.0310373139 -0.0527542681
v -0.23820816 -0.0131680677 -0.0531772152
v -0.178603813 -0.01409317 -0.260190457
v -0.238359675 0.0310373139 -0.0527542681
v -0.2562813 0.026652135 0.218960822
v -0.256129861 -0.0175532419 0.218537867
v -0.23820816 -0.0131680677 -0.0531772152
v -0.2562813 0.026652135 0.218960822
v -0.33604598 0.0266156252 0.319036871
v -0.335894585 -0.0175895076 0.318613976
v -0.256129861 -0.0175532419 0.218537867
v -0.33604598 0.0266156252 0.319036871
v -0.4737867 0.0266310871 0.261167169
v -0.473635256 -0.0175741687 0.2607442
v -0.335894585 -0.0175895076 0.318613976
vt 0.795802236 0.481536865
vt 0.564821362 0.43175447
vt 0.644411445 0.5419659
vt 0.7519227 0.5648393
vt 0.771371 0.282693744
vt 0.5958831 0.2828412
vt 0.5851517 0.73633045
vt 0.504709363 0.906836569
vt 0.382280558 0.7806693
vt 0.429930031 0.6752555
vt 0.4247582 0.9536004
vt 0.2743309 0.9846499
vt 0.267709136 0.814069
vt 0.152141273 0.928835
vt 0.0260390267 0.7414193
vt 0.161483154 0.7357271
vt 0.205031633 0.176610589
vt 0.0807595253 0.161558032
vt 0.206535816 0.01678735
vt 0.409017742 0.213362515
vt 0.388181984 0.06279808
vt 0.542254 0.213411152
vt 0.243507624 0.413532376
vt 0.258098543 0.579279542
vt 0.061723873 0.476438224
vt 0.390664458 0.422733724
vt 0.354227155 0.5819853
vt 0.5540996 0.447131217
vt 0.785967231 0.124878764
vt 0.5873053 0.139472365
vt 0.7262378 0.01703614
vt 0.6263289 0.0282990932
vt 0.9856948 0.8014135
vt 0.903077245 0.8011919
vt 0.903077245 0.987579763
vt 0.9856949 0.987801254
vt 0.890426159 0.03554797
vt 0.807927668 0.0357694626
vt 0.80799216 0.315182567
vt 0.8904374 0.314961076
vt 0.8904374 0.314961076
vt 0.80799216 0.315182567
vt 0.807440341 0.485986948
vt 0.890341163 0.485765338
vt 0.890341163 0.485765338
vt 0.807440341 0.485986948
vt 0.807440341 0.6046439
vt 0.890341163 0.604422331
vt 0.890341163 0.604422331
vt 0.807440341 0.6046439
vt 0.8074404 0.805855334
vt 0.890341163 0.8056338
vt 0.890341163 0.8056338
vt 0.8074404 0.805855334
vt 0.807775 0.9830275
vt 0.8903996 0.982805669
vt 0.9860756 0.0305737257
vt 0.903125 0.0303519368
vt 0.9031104 0.256283879
vt 0.9859593 0.256505728
vt 0.9859593 0.256505728
vt 0.9031104 0.256283879
vt 0.903077245 0.480027676
vt 0.9856949 0.480249226
vt 0.9856949 0.480249226
vt 0.903077245 0.480027676
vt 0.903077245 0.5978004
vt 0.9856948 0.598021865
vt 0.9856948 0.598021865
vt 0.903077245 0.5978004
vt 0.903077245 0.8011919
vt 0.9856948 0.8014135
vt 0.795802236 0.481536865
vt 0.7519227 0.5648393
vt 0.644411445 0.5419659
vt 0.564821362 0.43175447
vt 0.771371 0.282693744
vt 0.5958831 0.2828412
vt 0.5851517 0.73633045
vt 0.429930031 0.6752555
vt 0.382280558 0.7806693
vt 0.504709363 0.906836569
vt 0.4247582 0.9536004
vt 0.267709136 0.814069
vt 0.2743309 0.9846499
vt 0.152141273 0.928835
vt 0.161483154 0.7357271
vt 0.0260390267 0.7414193
vt 0.205031633 0.176610589
vt 0.206535816 0.01678735
vt 0.0807595253 0.161558032
vt 0.409017742 0.213362515
vt 0.388181984 0.06279808
vt 0.542254 0.213411152
vt 0.258098543 0.579279542
vt 0.243507624 0.413532376
vt 0.061723873 0.476438224
vt 0.354227155 0.5819853
vt 0.390664458 0.422733724
vt 0.5540996 0.447131217
vt 0.5873053 0.139472365
vt 0.785967231 0.124878764
vt 0.6263289 0.0282990932
vt 0.7262378 0.01703614
vt 0.9856948 0.8014135
vt 0.9856949 0.987801254
vt 0.903077245 0.987579763
vt 0.903077245 0.8011919
vt 0.890426159 0.03554797
vt 0.8904374 0.314961076
vt 0.80799216 0.315182567
vt 0.807927668 0.0357694626
vt 0.8904374 0.314961076
vt 0.890341163 0.485765338
vt 0.807440341 0.485986948
vt 0.80799216 0.315182567
vt 0.890341163 0.485765338
vt 0.890341163 0.604422331
vt 0.807440341 0.6046439
vt 0.807440341 0.485986948
vt 0.890341163 0.604422331
vt 0.890341163 0.8056338
vt 0.8074404 0.805855334
vt 0.807440341 0.6046439
vt 0.890341163 0.8056338
vt 0.8903996 0.982805669
vt 0.807775 0.9830275
vt 0.8074404 0.805855334
vt 0.9860756 0.0305737257
vt 0.9859593 0.256505728
vt 0.9031104 0.256283879
vt 0.903125 0.0303519368
vt 0.9859593 0.256505728
vt 0.9856949 0.480249226
vt 0.903077245 0.480027676
vt 0.9031104 0.256283879
vt 0.9856949 0.480249226
vt 0.9856948 0.598021865
vt 0.903077245 0.5978004
vt 0.903077245 0.480027676
vt 0.9856948 0.598021865
vt 0.9856948 0.8014135
vt 0.903077245 0.8011919
vt 0.903077245 0.5978004
vn -0.00317115639 -0.99996686 -0.007494795
vn -0.003620142 -0.9999185 -0.0122429831
vn 1.32724813E-06 -1 1.63314041E-06
vn 1.32119044E-06 -1 1.66434984E-06
vn -0.00237305253 -0.999976039 -0.00650169328
vn -0.0017207046 -0.999962032 -0.008545482
vn 0.883677 0.343594044 -0.317896366
vn 0.39701128 0.466916561 -0.790171444
vn 0.4519064 0.4733707 -0.75610894
vn 0.8680418 0.40189296 -0.2915226
vn 0.39701128 0.466916561 -0.790171444
vn -0.5150926 0.376793027 -0.7698744
vn -0.5335233 0.409593344 -0.739990652
vn -0.5150926 0.376793027 -0.7698744
vn -0.981406 0.191942647 -0.0006256173
vn -0.96645546 0.2527782 -0.04546482
vn -0.363941848 0.7240719 0.5858893
vn -0.88072 0.39861244 0.2558132
vn -0.121865988 0.483061433 0.8670642
vn 0.586766362 0.7481314 0.309846133
vn 0.534716249 0.494776934 0.685036
vn 0.813438535 0.576676 -0.0759114847
vn -0.522834957 0.8173364 0.242084354
vn -0.5026863 0.8125038 0.295201629
vn -0.9205905 0.319352865 0.224781811
vn 0.593049 0.804625452 0.0295086987
vn 0.437306166 0.8950084 0.0878821462
vn 0.901248932 0.4062147 -0.150797889
vn 0.00041116 -0.9999964 0.00264751934
vn 0.000338604324 -0.999995649 0.00293117831
vn 6.778156E-07 -1 8.52564369E-07
vn -3.68239029E-07 -1 2.62041362E-06
vn 0.905843258 -0.00698228646 0.423555434
vn 0.905843258 -0.00698228646 0.423555434
vn 0.905843258 -0.00698228646 0.423555434
vn 0.9058434 -0.00698136957 0.423555255
vn 0.923496962 0.000406779232 -0.3836055
vn 0.923496962 0.000406779232 -0.3836055
vn 0.923496962 0.000406779232 -0.3836055
vn 0.923496962 0.0004067804 -0.3836055
vn 0.991779149 -0.00218398846 -0.127942637
vn 0.991779149 -0.00218398846 -0.127942637
vn 0.991779149 -0.00218398846 -0.127942637
vn 0.991779149 -0.00218403665 -0.127942622
vn 0.864999056 0.00169538206 -0.5017706
vn 0.864999056 0.00169538206 -0.5017706
vn 0.864999056 0.00169538206 -0.5017706
vn 0.864999056 0.00169542443 -0.5017706
vn -0.0757309943 0.00945712 -0.9970834
vn -0.0757309943 0.00945712 -0.9970834
vn -0.0757309943 0.00945712 -0.9970834
vn -0.0757309943 0.009457119 -0.9970834
vn -0.949928045 0.006105224 -0.3124091
vn -0.949928045 0.006105224 -0.3124091
vn -0.949928045 0.006105224 -0.3124091
vn -0.9499282 0.00610785326 -0.312408447
vn -0.960975349 0.0007100688 0.276633054
vn -0.960975349 0.0007100688 0.276633054
vn -0.960975349 0.0007100688 0.276633054
vn -0.9609754 0.0007098536 0.276633
vn -0.9978285 0.002780499 0.0658076257
vn -0.9978285 0.002780499 0.0658076257
vn -0.9978285 0.002780499 0.0658076257
vn -0.9978285 0.00277911127 0.06580738
vn -0.782024443 -0.00309772068 0.623240054
vn -0.782024443 -0.00309772068 0.623240054
vn -0.782024443 -0.00309772068 0.623240054
vn -0.7820244 -0.00309753232 0.6232401
vn 0.3872732 -0.009820146 0.9219127
vn 0.3872732 -0.009820146 0.9219127
vn 0.3872732 -0.009820146 0.9219127
vn 0.3872728 -0.009821623 0.921912849
vn 0.00320348656 -0.9999642 -0.00783419
vn 3.06313E-05 -0.99999994 -0.0003379668
vn 3.063318E-05 -0.99999994 -0.000337957143
vn 0.003652711 -0.999914169 -0.0125823142
vn 0.00240533054 -0.9999737 -0.00684111658
vn 0.00175308564 -0.999959 -0.008884932
vn -0.880173743 0.360566 -0.308684856
vn -0.853949845 0.421898335 -0.304584056
vn -0.416939944 0.4589131 -0.784576237
vn -0.411015064 0.446355224 -0.7948796
vn -0.411015064 0.446355224 -0.7948796
vn 0.5297493 0.35441494 -0.7705555
vn 0.516626656 0.3187733 -0.794657469
vn 0.516626656 0.3187733 -0.794657469
vn 0.9806915 0.1857551 -0.0611494
vn 0.9949905 0.09991983 -0.003148333
vn 0.3638889 0.7238845 0.586153567
vn 0.12180654 0.48277083 0.8672344
vn 0.880694151 0.398553938 0.2559933
vn -0.586806059 0.7480073 0.310070485
vn -0.534767 0.494526923 0.6851769
vn -0.813453257 0.576675534 -0.0757569745
vn 0.485815376 0.815621734 0.3142365
vn 0.515342355 0.8184068 0.254229277
vn 0.9237753 0.291456759 0.248379052
vn -0.3799947 0.919931352 0.09659376
vn -0.591976464 0.805593669 0.0241397452
vn -0.896799445 0.413684726 -0.156893983
vn -0.000306796836 -0.9999966 0.00259157573
vn -0.000379339966 -0.999997258 0.00230790931
vn 3.23353524E-05 -0.99999994 -0.00033696086
vn 3.12814482E-05 -0.99999994 -0.0003387422
vn -0.905864656 -0.007154092 0.423506826
vn -0.905864656 -0.007154092 0.423506826
vn -0.905864656 -0.007154092 0.423506826
vn -0.9058645 -0.007155764 0.423507184
vn -0.92347753 0.0005077047 -0.383652121
vn -0.92347753 0.0005077047 -0.383652121
vn -0.92347753 0.0005077047 -0.383652121
vn -0.9234776 0.0005076223 -0.3836521
vn -0.9917726 -0.00217214273 -0.127993762
vn -0.9917726 -0.00217214273 -0.127993762
vn -0.9917726 -0.00217214273 -0.127993762
vn -0.9917726 -0.00217212131 -0.127993762
vn -0.864973545 0.00183826778 -0.5018141
vn -0.864973545 0.00183826778 -0.5018141
vn -0.864973545 0.00183826778 -0.5018141
vn -0.8649735 0.00183843751 -0.5018142
vn 0.07578127 0.009798811 -0.997076333
vn 0.07578127 0.009798811 -0.997076333
vn 0.07578127 0.009798811 -0.997076333
vn 0.07578106 0.009798163 -0.997076333
vn 0.9499439 0.00624394463 -0.312358171
vn 0.9499439 0.00624394463 -0.312358171
vn 0.9499439 0.00624394463 -0.312358171
vn 0.9499437 0.00624149432 -0.3123588
vn 0.9609613 0.0006464853 0.276682168
vn 0.9609613 0.0006464853 0.276682168
vn 0.9609613 0.0006464853 0.276682168
vn 0.9609613 0.000646394736 0.276682138
vn 0.997825 0.00278791715 0.06585891
vn 0.997825 0.00278791715 0.06585891
vn 0.997825 0.00278791715 0.06585891
vn 0.997825 0.00278994255 0.0658592656
vn 0.781992733 -0.00328448485 0.6232789
vn 0.781992733 -0.00328448485 0.6232789
vn 0.781992733 -0.00328448485 0.6232789
vn 0.7819928 -0.003284779 0.6232788
vn -0.3873193 -0.0101476414 0.9218898
vn -0.3873193 -0.0101476414 0.9218898
vn -0.3873193 -0.0101476414 0.9218898
vn -0.387319773 -0.0101459045 0.9218896
usemtl 0001011504_part_0_material_0
f 1/1/1 2/2/2 3/3/3
f 3/3/3 4/4/4 1/1/1
f 5/5/5 6/6/6 2/2/2
f 2/2/2 1/1/1 5/5/5
f 7/7/7 8/8/8 9/9/9
f 9/9/9 10/10/10 7/7/7
f 11/11/11 12/12/12 13/13/13
f 13/13/13 9/9/9 11/11/11
f 14/14/14 15/15/15 16/16/16
f 16/16/16 13/13/13 14/14/14
f 17/17/17 18/18/18 19/19/19
f 20/20/20 17/17/17 19/19/19
f 19/19/19 21/21/21 20/20/20
f 21/21/21 22/22/22 20/20/20
f 16/16/16 23/23/23 24/24/24
f 25/25/25 23/23/23 16/16/16
f 16/16/16 15/15/15 25/25/25
f 23/23/23 26/26/26 27/27/27
f 27/27/27 24/24/24 23/23/23
f 10/10/10 26/26/26 28/28/28
f 28/28/28 7/7/7 10/10/10
f 10/10/10 27/27/27 26/26/26
f 17/17/17 23/23/23 25/25/25
f 25/25/25 18/18/18 17/17/17
f 17/17/17 20/20/20 26/26/26
f 26/26/26 23/23/23 17/17/17
f 20/20/20 22/22/22 28/28/28
f 28/28/28 26/26/26 20/20/20
f 6/6/6 5/5/5 29/29/29
f 29/29/29 30/30/30 6/6/6
f 30/30/30 29/29/29 31/31/31
f 31/31/31 32/32/32 30/30/30
f 33/33/33 34/34/34 35/35/35
f 35/35/35 36/36/36 33/33/33
f 37/37/37 38/38/38 39/39/39
f 39/39/39 40/40/40 37/37/37
f 41/41/41 42/42/42 43/43/43
f 43/43/43 44/44/44 41/41/41
f 45/45/45 46/46/46 47/47/47
f 47/47/47 48/48/48 45/45/45
f 49/49/49 50/50/50 51/51/51
f 51/51/51 52/52/52 49/49/49
f 53/53/53 54/54/54 55/55/55
f 55/55/55 56/56/56 53/53/53
f 57/57/57 58/58/58 59/59/59
f 59/59/59 60/60/60 57/57/57
f 61/61/61 62/62/62 63/63/63
f 63/63/63 64/64/64 61/61/61
f 65/65/65 66/66/66 67/67/67
f 67/67/67 68/68/68 65/65/65
f 69/69/69 70/70/70 71/71/71
f 71/71/71 72/72/72 69/69/69
f 73/73/73 74/74/74 75/75/75
f 75/75/75 76/76/76 73/73/73
f 77/77/77 73/73/73 76/76/76
f 76/76/76 78/78/78 77/77/77
f 79/79/79 80/80/80 81/81/81
f 81/81/81 82/82/82 79/79/79
f 83/83/83 81/81/81 84/84/84
f 84/84/84 85/85/85 83/83/83
f 86/86/86 84/84/84 87/87/87
f 87/87/87 88/88/88 86/86/86
f 89/89/89 90/90/90 91/91/91
f 92/92/92 93/93/93 90/90/90
f 90/90/90 89/89/89 92/92/92
f 93/93/93 92/92/92 94/94/94
f 87/87/87 95/95/95 96/96/96
f 97/97/97 88/88/88 87/87/87
f 87/87/87 96/96/96 97/97/97
f 96/96/96 95/95/95 98/98/98
f 98/98/98 99/99/99 96/96/96
f 80/80/80 79/79/79 100/100/100
f 100/100/100 99/99/99 80/80/80
f 80/80/80 99/99/99 98/98/98
f 89/89/89 91/91/91 97/97/97
f 97/97/97 96/96/96 89/89/89
f 89/89/89 96/96/96 99/99/99
f 99/99/99 92/92/92 89/89/89
f 92/92/92 99/99/99 100/100/100
f 100/100/100 94/94/94 92/92/92
f 78/78/78 101/101/101 102/102/102
f 102/102/102 77/77/77 78/78/78
f 101/101/101 103/103/103 104/104/104
f 104/104/104 102/102/102 101/101/101
f 105/105/105 106/106/106 107/107/107
f 107/107/107 108/108/108 105/105/105
f 109/109/109 110/110/110 111/111/111
f 111/111/111 112/112/112 109/109/109
f 113/113/113 114/114/114 115/115/115
f 115/115/115 116/116/116 113/113/113
f 117/117/117 118/118/118 119/119/119
f 119/119/119 120/120/120 117/117/117
f 121/121/121 122/122/122 123/123/123
f 123/123/123 124/124/124 121/121/121
f 125/125/125 126/126/126 127/127/127
f 127/127/127 128/128/128 125/125/125
f 129/129/129 130/130/130 131/131/131
f 131/131/131 132/132/132 129/129/129
f 133/133/133 134/134/134 135/135/135
f 135/135/135 136/136/136 133/133/133
f 137/137/137 138/138/138 139/139/139
f 139/139/139 140/140/140 137/137/137
f 141/141/141 142/142/142 143/143/143
f 143/143/143 144/144/144 141/141/141
