mtllib 0001280004.mtl
o 0001280004_part_0
v 0.4332671 0.005095482 -0.146755427
v 0.184444785 0.005095005 -0.229128033
v 0.324825466 0.00509512424 -0.288896024
v 0.152505741 0.00509512424 -0.027219452
v 0.2399553 0.006055355 0.268964648
v 0.48309043 0.00605559349 0.179095954
v 0.301107019 0.275844455 -0.0350607969
v 0.426308721 0.258758783 -0.0914190039
v 0.3276179 0.268005252 -0.216889188
v 0.202510834 0.2631004 -0.162243024
v 0.176094562 0.248949051 0.01787331
v 0.27478534 0.239702821 0.1433435
v 0.39989242 0.244607687 0.08869734
v 0.4332671 0.005095482 -0.146755427
v 0.324825466 0.00509512424 -0.288896024
v 0.184444785 0.005095005 -0.229128033
v 0.152505741 0.00509512424 -0.027219452
v 0.385975242 0.08000481 0.493810654
v 0.305884182 0.0062469244 0.511511445
v 0.473422021 0.006247282 0.6896602
v 0.478095651 0.08000481 0.460972756
v 0.5255307 0.006247163 0.44654572
v 0.2399553 0.006055355 0.268964648
v 0.337945551 0.123491168 0.344153881
v 0.439689666 0.123491287 0.30083558
v 0.48309043 0.00605559349 0.179095954
v 0.305884182 0.0062469244 0.511511445
v 0.5255307 0.006247163 0.44654572
v 0.473422021 0.006247282 0.6896602
v -0.330110729 0.006228566 -0.4850334
v -0.1897331 0.006212592 -0.425258279
v -0.438559622 0.00617706776 -0.3428983
v -0.248266771 -0.0259029865 0.0394596569
v -0.157804325 0.00614511967 -0.223348111
v -0.488399565 0.00702500343 -0.0170491971
v -0.331990272 0.2918607 -0.400516748
v -0.4315063 0.270347357 -0.2788853
v -0.306952953 0.282907724 -0.220649317
v -0.207270727 0.282941341 -0.346001625
v -0.182067245 0.25250864 -0.169855028
v -0.281583279 0.230995655 -0.0482235253
v -0.40630278 0.2399149 -0.102738678
v -0.438559622 0.00617706776 -0.3428983
v -0.330110729 0.006228566 -0.4850334
v -0.1897331 0.006212592 -0.425258279
v -0.157804325 0.00614511967 -0.223348111
v -0.478757083 0.00704371929 0.4935155
v -0.311210215 0.007109165 0.315375268
v -0.3913027 0.08087051 0.2976955
v -0.483421475 0.0808787346 0.2648529
v -0.530853331 0.007124424 0.250398427
v -0.248266771 -0.0259029865 0.0394596569
v -0.343266815 0.1244092 0.148055956
v -0.445008785 0.124420643 0.104732469
v -0.488399565 0.00702500343 -0.0170491971
v -0.530853331 0.007124424 0.250398427
v -0.311210215 0.007109165 0.315375268
v -0.478757083 0.00704371929 0.4935155
vt 0.933330238 0.134584069
vt 0.7547753 0.0555870533
vt 0.8595346 0.0483566523
vt 0.720119238 0.173039615
vt 0.7911232 0.348026335
vt 0.97446847 0.303139448
vt 0.436030358 0.686260164
vt 0.6902414 0.5675772
vt 0.5753874 0.7482375
vt 0.3471843 0.8192191
vt 0.152668759 0.734787762
vt 0.279537052 0.5941071
vt 0.521690369 0.5271802
vt 0.831069648 0.600772262
vt 0.657821238 0.9008222
vt 0.35053423 0.9964029
vt 0.0446122959 0.8536066
vt 0.20176056 0.245868266
vt 0.08325312 0.331325054
vt 0.2085311 -0.004516363
vt 0.369820356 0.204299748
vt 0.5227008 0.186448455
vt 0.105999082 0.513931155
vt 0.236168638 0.4174763
vt 0.439137 0.3648814
vt 0.6098056 0.3579346
vt 0.84371835 0.5284332
vt 0.990850449 0.490457654
vt 0.971857548 0.7216621
vt 0.8595346 0.0483566523
vt 0.7547753 0.0555870533
vt 0.933330238 0.134584069
vt 0.7911232 0.348026335
vt 0.720119238 0.173039615
vt 0.97446847 0.303139448
vt 0.5753874 0.7482375
vt 0.6902414 0.5675772
vt 0.436030358 0.686260164
vt 0.3471843 0.8192191
vt 0.152668759 0.734787762
vt 0.279537052 0.5941071
vt 0.521690369 0.5271802
vt 0.831069648 0.600772262
vt 0.657821238 0.9008222
vt 0.35053423 0.9964029
vt 0.0446122959 0.8536066
vt 0.2085311 -0.004516363
vt 0.08325312 0.331325054
vt 0.20176056 0.245868266
vt 0.369820356 0.204299748
vt 0.5227008 0.186448455
vt 0.105999082 0.513931155
vt 0.236168638 0.4174763
vt 0.439137 0.3648814
vt 0.6098056 0.3579346
vt 0.990850449 0.490457654
vt 0.84371835 0.5284332
vt 0.971857548 0.7216621
vn 0.718736768 -0.612122238 -0.329733044
vn -0.647697151 -0.5287676 -0.5485374
vn 0.197892308 -0.493004322 -0.847222149
vn -0.7759891 -0.629974067 0.0312030688
vn -0.7424428 -0.565600336 0.358991623
vn 0.80133754 -0.597635746 -0.0262604151
vn -0.005176093 0.996973753 0.0775665641
vn 0.7255024 0.6573778 -0.203717321
vn 0.204643548 0.683148 -0.701020539
vn -0.6290965 0.662418962 -0.4067416
vn -0.7520677 0.633133531 0.183128849
vn -0.315340072 0.8169749 0.482817441
vn 0.463782519 0.849390149 0.2518772
vn 0.718736768 -0.612122238 -0.329733044
vn 0.197892308 -0.493004322 -0.847222149
vn -0.647697151 -0.5287676 -0.5485374
vn -0.7759891 -0.629974067 0.0312030688
vn -0.298848748 0.8865471 0.353162318
vn -0.8382827 -0.32465148 0.438045084
vn 0.241177768 -0.144649029 0.9596405
vn 0.5555448 0.8170039 0.154514134
vn 0.897565 -0.4408221 0.00727890339
vn -0.7424428 -0.565600336 0.358991623
vn -0.4176391 0.783662856 0.459837079
vn 0.633191466 0.750222 0.19035615
vn 0.80133754 -0.597635746 -0.0262604151
vn -0.8382827 -0.32465148 0.438045084
vn 0.897565 -0.4408221 0.00727890339
vn 0.241177768 -0.144649029 0.9596405
vn -0.198050857 -0.484415233 -0.8521254
vn 0.643624 -0.5159856 -0.5652495
vn -0.72037065 -0.6077899 -0.334152
vn 0.662469447 -0.6835155 0.306497574
vn 0.850048244 -0.526171565 0.0236952528
vn -0.829795837 -0.5551985 -0.05651169
vn -0.199587613 0.722885549 -0.661514342
vn -0.729954064 0.66358 -0.163794518
vn -0.004316686 0.9852918 0.170825839
vn 0.631997645 0.685548961 -0.361388475
vn 0.74958694 0.6120118 0.252112985
vn 0.3557111 0.768588 0.531735
vn -0.4205304 0.856654465 0.298826545
vn -0.72037065 -0.6077899 -0.334152
vn -0.198050857 -0.484415233 -0.8521254
vn 0.643624 -0.5159856 -0.5652495
vn 0.850048244 -0.526171565 0.0236952528
vn -0.241221875 -0.14498204 0.95957917
vn 0.8532805 -0.2852486 0.4365154
vn 0.322112828 0.8848589 0.3365532
vn -0.5555787 0.8169337 0.1547631
vn -0.906516135 -0.42050764 0.0374413468
vn 0.662469447 -0.6835155 0.306497574
vn 0.487544745 0.742834866 0.458798975
vn -0.630477369 0.7524299 0.190650284
vn -0.829795837 -0.5551985 -0.05651169
vn -0.906516135 -0.42050764 0.0374413468
vn 0.8532805 -0.2852486 0.4365154
vn -0.241221875 -0.14498204 0.95957917
usemtl 0001280004_part_0_material_0
f 1/1/1 2/2/2 3/3/3
f 4/4/4 2/2/2 5/5/5
f 5/5/5 2/2/2 6/6/6
f 6/6/6 2/2/2 1/1/1
f 7/7/7 8/8/8 9/9/9
f 7/7/7 9/9/9 10/10/10
f 7/7/7 10/10/10 11/11/11
f 7/7/7 11/11/11 12/12/12
f 7/7/7 12/12/12 13/13/13
f 7/7/7 13/13/13 8/8/8
f 14/14/14 9/9/9 8/8/8
f 9/9/9 14/14/14 15/15/15
f 15/15/15 10/10/10 9/9/9
f 10/10/10 15/15/15 16/16/16
f 16/16/16 11/11/11 10/10/10
f 11/11/11 16/16/16 17/17/17
f 18/18/18 19/19/19 20/20/20
f 20/20/20 21/21/21 18/18/18
f 20/20/20 22/22/22 21/21/21
f 23/23/23 12/12/12 11/11/11
f 12/12/12 23/23/23 24/24/24
f 24/24/24 13/13/13 12/12/12
f 13/13/13 24/24/24 25/25/25
f 25/25/25 8/8/8 13/13/13
f 8/8/8 25/25/25 26/26/26
f 26/26/26 14/14/14 8/8/8
f 23/23/23 11/11/11 17/17/17
f 27/27/27 5/5/5 28/28/28
f 19/19/19 18/18/18 23/23/23
f 24/24/24 23/23/23 18/18/18
f 18/18/18 25/25/25 24/24/24
f 25/25/25 18/18/18 21/21/21
f 28/28/28 29/29/29 27/27/27
f 21/21/21 26/26/26 25/25/25
f 26/26/26 21/21/21 22/22/22
f 5/5/5 6/6/6 28/28/28
f 30/30/30 31/31/31 32/32/32
f 33/33/33 31/31/31 34/34/34
f 35/35/35 31/31/31 33/33/33
f 32/32/32 31/31/31 35/35/35
f 36/36/36 37/37/37 38/38/38
f 39/39/39 36/36/36 38/38/38
f 40/40/40 39/39/39 38/38/38
f 41/41/41 40/40/40 38/38/38
f 42/42/42 41/41/41 38/38/38
f 37/37/37 42/42/42 38/38/38
f 37/37/37 36/36/36 43/43/43
f 44/44/44 43/43/43 36/36/36
f 36/36/36 39/39/39 44/44/44
f 45/45/45 44/44/44 39/39/39
f 39/39/39 40/40/40 45/45/45
f 46/46/46 45/45/45 40/40/40
f 47/47/47 48/48/48 49/49/49
f 49/49/49 50/50/50 47/47/47
f 50/50/50 51/51/51 47/47/47
f 40/40/40 41/41/41 52/52/52
f 53/53/53 52/52/52 41/41/41
f 41/41/41 42/42/42 53/53/53
f 54/54/54 53/53/53 42/42/42
f 42/42/42 37/37/37 54/54/54
f 55/55/55 54/54/54 37/37/37
f 37/37/37 43/43/43 55/55/55
f 46/46/46 40/40/40 52/52/52
f 56/56/56 33/33/33 57/57/57
f 52/52/52 49/49/49 48/48/48
f 49/49/49 52/52/52 53/53/53
f 53/53/53 54/54/54 49/49/49
f 50/50/50 49/49/49 54/54/54
f 57/57/57 58/58/58 56/56/56
f 54/54/54 55/55/55 50/50/50
f 51/51/51 50/50/50 55/55/55
f 56/56/56 35/35/35 33/33/33
