mtllib 0002021001.mtl
o 0002021001_part_0
v -0.130208924 2.1459465 -0.203527778
v -0.07208757 2.11725235 -0.268580258
v -0.103636526 1.92434537 -0.268573344
v -0.193112507 1.96158075 -0.189980283
v -0.147293061 2.16968155 -0.108667493
v -0.201377839 1.98896623 -0.07120622
v -0.11899057 2.17526579 -0.004805684
v -0.1666328 1.99903786 0.05308782
v -0.063612476 2.16934466 0.0585138127
v -0.0952517837 1.9962877 0.122431494
v 0.00948248152 1.996098 0.156616792
v 0.0100751184 2.15184617 0.08969979
v -0.04860097 2.17021918 -0.217372239
v -0.08091693 2.187767 -0.179474667
v 0.008549241 2.18500018 -0.115292311
v -0.08091693 2.187767 -0.179474667
v -0.09323583 2.20389 -0.116788208
v 0.008549241 2.18500018 -0.115292311
v -0.09323583 2.20389 -0.116788208
v -0.07521449 2.20775938 -0.04753208
v 0.008549241 2.18500018 -0.115292311
v -0.07521449 2.20775938 -0.04753208
v -0.03772478 2.20372987 -0.00171131641
v 0.008549241 2.18500018 -0.115292311
v -0.03772478 2.20372987 -0.00171131641
v 0.009776338 2.19246531 0.01990401
v 0.008549241 2.18500018 -0.115292311
v 0.005178151 1.91086531 -0.2941165
v 0.004613996 1.90295553 -0.348831564
v -0.103636526 1.92434537 -0.268573344
v -0.124139279 1.91755617 -0.326763272
v -0.193112507 1.96158075 -0.189980283
v -0.219847932 1.97204721 -0.228486791
v -0.201377839 1.98896623 -0.07120622
v -0.251989037 2.020702 -0.0782228
v -0.1666328 1.99903786 0.05308782
v -0.207126319 2.0245657 0.0660836846
v -0.0952517837 1.9962877 0.122431494
v -0.112414919 2.009381 0.1722059
v 0.005178151 1.91086531 -0.2941165
v 0.006639683 2.10254884 -0.2781944
v 0.00948248152 1.996098 0.156616792
v 0.009889818 1.99594212 0.2025439
v 0.00745227048 2.15894151 -0.2268672
v -0.04860097 2.17021918 -0.217372239
v 0.008549241 2.18500018 -0.115292311
v 0.00428323075 1.91288066 -0.395683974
v -0.137718692 1.9508971 -0.3726249
v -0.240891218 2.05564785 -0.269569069
v -0.278575271 2.12563682 -0.103311628
v -0.233805031 2.11710835 0.076590836
v -0.127941072 2.04256845 0.207149088
v 0.0102779353 1.99576044 0.254450649
v 0.144598439 2.141651 -0.204593867
v 0.203783929 1.96017778 -0.193505213
v 0.1145219 1.92357433 -0.270510852
v 0.09206659 2.11689377 -0.271069646
v 0.164082214 2.16848826 -0.111413918
v 0.214350864 1.98749685 -0.07489841
v 0.1376597 2.17427754 -0.007058583
v 0.18189095 1.997806 0.049992498
v 0.0833743662 2.168729 0.05724377
v 0.11359179 1.99554944 0.12057671
v 0.0636921152 2.16984367 -0.218222052
v 0.008549241 2.18500018 -0.115292311
v 0.09604376 2.18485165 -0.179733172
v 0.09604376 2.18485165 -0.179733172
v 0.008549241 2.18500018 -0.115292311
v 0.110309377 2.20315 -0.118593283
v 0.110309377 2.20315 -0.118593283
v 0.008549241 2.18500018 -0.115292311
v 0.09366203 2.20716262 -0.0490319133
v 0.09366203 2.20716262 -0.0490319133
v 0.008549241 2.18500018 -0.115292311
v 0.05696449 2.20339513 -0.00255228579
v 0.05696449 2.20339513 -0.00255228579
v 0.008549241 2.18500018 -0.115292311
v 0.009776338 2.19246531 0.01990401
v 0.133939534 1.916644 -0.329055339
v 0.1145219 1.92357433 -0.270510852
v 0.231761351 1.970451 -0.232497647
v 0.203783929 1.96017778 -0.193505213
v 0.266909331 2.01886773 -0.0828312561
v 0.214350864 1.98749685 -0.07489841
v 0.224645123 2.02303958 0.0622490235
v 0.18189095 1.997806 0.049992498
v 0.13172853 2.00851822 0.1700376
v 0.11359179 1.99554944 0.12057671
v 0.00745227048 2.15894151 -0.2268672
v 0.008549241 2.18500018 -0.115292311
v 0.0636921152 2.16984367 -0.218222052
v 0.146937624 1.94989085 -0.375153
v 0.252660871 2.05390334 -0.273952425
v 0.293786824 2.1236136 -0.108394906
v 0.2521597 2.11539078 0.07227487
v 0.148107067 2.0415926 0.204697445
v -0.180287451 1.98835182 -0.170426115
v -0.198987916 1.89838922 -0.117368884
v -0.179499 2.01209235 -0.07771358
v -0.111797594 1.86199808 -0.2215972
v -0.08394942 1.9686414 -0.243664637
v 0.00355856423 1.86704111 -0.261250347
v 0.002451422 1.95520329 -0.265697867
v 0.0004234761 1.72660863 -0.274764419
v -0.11856097 1.74477184 -0.2261354
v 0.004302538 1.58190382 -0.267645
v -0.1240452 1.59800494 -0.244123265
v -0.182951 1.77560318 -0.120302543
v -0.1626653 2.01164365 0.0192930624
v -0.18578206 1.89846075 -0.0232216939
v -0.0924851745 2.02009726 0.09393431
v -0.143503532 2.012076 0.06662164
v -0.146199942 1.95754766 0.07518457
v -0.115665577 1.975806 0.10585995
v -0.135127515 1.91904831 0.08627649
v -0.1223957 1.92952728 0.108132735
v -0.0610094257 2.00472879 0.104276814
v -0.08461266 1.96301663 0.107411973
v -0.09783736 1.92791855 0.10673891
v 0.185486481 1.86828721 -0.171688437
v 0.0908245444 1.86690044 -0.237993211
v 0.185828716 1.98678493 -0.179488674
v 0.09992011 1.9759928 -0.235711485
v 0.10330689 1.74680161 -0.240647912
v 0.09650994 1.59605908 -0.25847128
v 0.184249774 1.7680136 -0.158765554
v 0.165956318 1.90315187 0.000396341085
v 0.194932744 2.00089979 -0.0805966258
v 0.170367524 2.015884 0.02279251
v 0.189538449 1.78766441 -0.0165986661
v 0.157604963 1.80407453 0.0123938955
v 0.159565657 1.69407845 0.04784868
v 0.169846 1.57924044 -0.200667262
v 0.195939377 1.882865 -0.0687048
v -0.121326841 1.86982417 0.08457027
v -0.151676238 1.89853585 0.0434660763
v 0.12489526 2.01753783 0.08807009
v -0.146199942 1.95754766 0.07518457
v -0.143503532 2.012076 0.06662164
v 0.07079674 1.45515192 -0.262637138
v 0.0102986274 1.444305 -0.27017656
v -0.021073468 1.44911027 -0.26676625
v -0.0937848 1.47385824 -0.2644531
v -0.1787433 1.58241487 -0.178746581
v -0.172300592 1.80729342 0.02870423
v -0.141110331 1.81439877 0.0632534
v -0.164070338 1.73629808 0.08970282
v -0.195091143 1.6944766 -0.051433228
v -0.20484899 1.72933877 -0.004046503
v -0.217714846 1.62267637 -0.0227584988
v 0.159338266 1.427707 -0.24850449
v 0.0184370112 1.35418224 -0.324851155
v -0.0515833236 1.349833 -0.310094267
v -0.1733224 1.4215492 -0.281124353
v 0.204400718 1.79859173 -0.09386032
v 0.217736319 1.7149018 -0.114785038
v 0.116644755 1.97001326 0.09227766
v 0.09994465 1.96890247 0.1260541
v 0.101526551 1.87316179 0.106793366
v 0.117362134 2.01718235 0.08739586
v 0.07579543 2.017765 0.119781151
v 0.0347738 2.0185256 0.123732753
v 0.06940376 1.95390379 0.132343411
v 0.00642790366 2.016664 0.1348095
v -0.0277960356 2.011546 0.123812005
v -0.0236071665 1.96822357 0.136163071
v 0.002175209 1.98151875 0.1422515
v -0.0210297778 1.93322456 0.144789129
v -0.001947931 1.93958914 0.15666239
v 0.0491200536 2.00512385 0.126100853
v 0.0297725853 1.96565449 0.130421236
v 0.0192603115 1.9355731 0.144756868
v -0.0185702536 1.88753831 0.152146012
v -0.130208924 2.1459465 -0.203527778
v -0.08091693 2.187767 -0.179474667
v -0.04860097 2.17021918 -0.217372239
v -0.04860097 2.17021918 -0.217372239
v -0.07208757 2.11725235 -0.268580258
v -0.130208924 2.1459465 -0.203527778
v -0.147293061 2.16968155 -0.108667493
v -0.09323583 2.20389 -0.116788208
v -0.08091693 2.187767 -0.179474667
v -0.08091693 2.187767 -0.179474667
v -0.130208924 2.1459465 -0.203527778
v -0.147293061 2.16968155 -0.108667493
v -0.11899057 2.17526579 -0.004805684
v -0.07521449 2.20775938 -0.04753208
v -0.09323583 2.20389 -0.116788208
v -0.09323583 2.20389 -0.116788208
v -0.147293061 2.16968155 -0.108667493
v -0.11899057 2.17526579 -0.004805684
v -0.063612476 2.16934466 0.0585138127
v -0.03772478 2.20372987 -0.00171131641
v -0.07521449 2.20775938 -0.04753208
v -0.07521449 2.20775938 -0.04753208
v -0.11899057 2.17526579 -0.004805684
v -0.063612476 2.16934466 0.0585138127
v 0.0100751184 2.15184617 0.08969979
v 0.009776338 2.19246531 0.01990401
v -0.03772478 2.20372987 -0.00171131641
v -0.03772478 2.20372987 -0.00171131641
v -0.063612476 2.16934466 0.0585138127
v 0.0100751184 2.15184617 0.08969979
v -0.07208757 2.11725235 -0.268580258
v -0.04860097 2.17021918 -0.217372239
v 0.00745227048 2.15894151 -0.2268672
v 0.00745227048 2.15894151 -0.2268672
v 0.006639683 2.10254884 -0.2781944
v -0.07208757 2.11725235 -0.268580258
v 0.09206659 2.11689377 -0.271069646
v 0.0636921152 2.16984367 -0.218222052
v 0.09604376 2.18485165 -0.179733172
v 0.09604376 2.18485165 -0.179733172
v 0.144598439 2.141651 -0.204593867
v 0.09206659 2.11689377 -0.271069646
v 0.144598439 2.141651 -0.204593867
v 0.09604376 2.18485165 -0.179733172
v 0.110309377 2.20315 -0.118593283
v 0.110309377 2.20315 -0.118593283
v 0.164082214 2.16848826 -0.111413918
v 0.144598439 2.141651 -0.204593867
v 0.164082214 2.16848826 -0.111413918
v 0.110309377 2.20315 -0.118593283
v 0.09366203 2.20716262 -0.0490319133
v 0.09366203 2.20716262 -0.0490319133
v 0.1376597 2.17427754 -0.007058583
v 0.164082214 2.16848826 -0.111413918
v 0.1376597 2.17427754 -0.007058583
v 0.09366203 2.20716262 -0.0490319133
v 0.05696449 2.20339513 -0.00255228579
v 0.05696449 2.20339513 -0.00255228579
v 0.0833743662 2.168729 0.05724377
v 0.1376597 2.17427754 -0.007058583
v 0.0833743662 2.168729 0.05724377
v 0.05696449 2.20339513 -0.00255228579
v 0.009776338 2.19246531 0.01990401
v 0.009776338 2.19246531 0.01990401
v 0.0100751184 2.15184617 0.08969979
v 0.0833743662 2.168729 0.05724377
v 0.006639683 2.10254884 -0.2781944
v 0.00745227048 2.15894151 -0.2268672
v 0.0636921152 2.16984367 -0.218222052
v 0.0636921152 2.16984367 -0.218222052
v 0.09206659 2.11689377 -0.271069646
v 0.006639683 2.10254884 -0.2781944
v -0.0006636899 1.90738165 -0.177759871
v 0.1317155 1.87499976 -0.0823283
v 0.0613572262 1.82024848 -0.0826707259
v -0.0006199988 1.82822108 -0.1406518
v -0.131564766 1.87593031 -0.0799900442
v -0.0006636899 1.90738165 -0.177759871
v -0.0006199988 1.82822108 -0.1406518
v -0.06161251 1.82068288 -0.0815786049
vt 0.462969 0.28240484
vt 0.343486935 0.2821592
vt 0.336669 0.009443998
vt 0.467889 0.0100288987
vt 0.608388245 0.282228351
vt 0.608066 0.0102227926
vt 0.77033025 0.2810198
vt 0.764398 0.009979546
vt 0.875700355 0.280303717
vt 0.870838 0.009644687
vt 0.991528332 0.009511173
vt 0.9881083 0.2534331
vt 0.4251939 0.397682
vt 0.507763743 0.398227334
vt 0.61624 0.521774
vt 0.507763743 0.398227334
vt 0.6108344 0.3996992
vt 0.61624 0.521774
vt 0.6108344 0.3996992
vt 0.7246358 0.398483276
vt 0.61624 0.521774
vt 0.7246358 0.398483276
vt 0.803154349 0.39545548
vt 0.61624 0.521774
vt 0.803154349 0.39545548
vt 0.888502359 0.39364785
vt 0.61624 0.521774
vt 0.00688222 0.008325815
vt 0.0632958 0.00865292549
vt 0.0068623 0.174081981
vt 0.074722 0.175567031
vt 0.00682542 0.32887
vt 0.0897391 0.331286
vt 0.00677385 0.487877
vt 0.0934718 0.488666
vt 0.00689117 0.653634
vt 0.0859751 0.653813
vt 0.00694715 0.808965
vt 0.0746852 0.807114
vt 0.219064444 0.00929170847
vt 0.2299058 0.2748108
vt 0.00676876 0.993886
vt 0.0631904 0.992482
vt 0.341883659 0.3979944
vt 0.4251939 0.397682
vt 0.61624 0.521774
vt 0.12289 0.0105031133
vt 0.160771 0.173298
vt 0.194656 0.333953977
vt 0.220985 0.49004
vt 0.194385 0.649892
vt 0.16376 0.804315
vt 0.12168 0.990559
vt 0.462987423 0.281384468
vt 0.467889 0.0100288987
vt 0.336669 0.009443998
vt 0.343486935 0.2821592
vt 0.608388066 0.282089
vt 0.608066 0.0102227926
vt 0.770329237 0.280895
vt 0.768109 0.009979546
vt 0.8756977 0.280153155
vt 0.870838 0.009644687
vt 0.425468564 0.3978604
vt 0.61624 0.521774
vt 0.5080361 0.398537517
vt 0.5080361 0.398537517
vt 0.61624 0.521774
vt 0.61084044 0.399835
vt 0.61084044 0.399835
vt 0.61624 0.521774
vt 0.7246358 0.398483276
vt 0.7246358 0.398483276
vt 0.61624 0.521774
vt 0.803154349 0.39545548
vt 0.803154349 0.39545548
vt 0.61624 0.521774
vt 0.888502359 0.39364785
vt 0.074722 0.175567031
vt 0.0068623 0.174081981
vt 0.0897391 0.331286
vt 0.00682542 0.32887
vt 0.0934718 0.488666
vt 0.00677385 0.487877
vt 0.0859751 0.653813
vt 0.00689117 0.653634
vt 0.0746852 0.807114
vt 0.00694715 0.808965
vt 0.341883659 0.3979944
vt 0.61624 0.521774
vt 0.425468564 0.3978604
vt 0.160771 0.173298
vt 0.194656 0.333953977
vt 0.220985 0.49004
vt 0.194385 0.649892
vt 0.16376 0.804315
vt 0.235489 0.745459
vt 0.38072 0.740616
vt 0.235681 0.635752
vt 0.380948 0.867043
vt 0.235259 0.865136
vt 0.398226 0.98560977
vt 0.235118 0.985599756
vt 0.540052 0.985536754
vt 0.525173 0.86368
vt 0.684013 0.98552376
vt 0.685105 0.861898
vt 0.524632 0.73464
vt 0.235632 0.532612
vt 0.394438 0.626761
vt 1.3072325 0.9002631
vt 1.29851389 0.9874259
vt 1.41736734 0.9910077
vt 1.4178406 0.905066252
vt 1.556788 0.9927169
vt 1.5648756 0.9302787
vt 1.28771663 0.7771402
vt 1.41855359 0.8246784
vt 1.56315458 0.859292269
vt 0.38072 0.740616
vt 0.380948 0.867043
vt 0.235489 0.745459
vt 0.235259 0.865136
vt 0.525173 0.86368
vt 0.685105 0.861898
vt 0.524632 0.73464
vt 0.397821 0.532144
vt 0.235681 0.635752
vt 0.235632 0.532612
vt 0.535021 0.604343
vt 0.533628 0.528257
vt 0.68559 0.532048
vt 0.678282 0.749816
vt 0.394438 0.626761
vt 1.71789885 0.94074297
vt 0.397821 0.532144
vt 0.235626 0.446334
vt 0.370397 0.468927026
vt 0.235626 0.446334
vt 0.823522 0.883112
vt 0.820259 0.9854938
vt 0.820259 0.9854938
vt 0.823522 0.883112
vt 0.678282 0.749816
vt 0.535021 0.604343
vt 0.533628 0.528257
vt 0.68559 0.532048
vt 0.617216 0.7027
vt 0.576671 0.630724
vt 0.745969 0.659583
vt 0.879383 0.816819
vt 0.985305 0.9855388
vt 0.985305 0.9855388
vt 0.879383 0.816819
vt 0.527824 0.63199
vt 0.745969 0.659583
vt 1.47492838 -0.155688524
vt 1.468111 -0.07338762
vt 1.69796824 -0.01079905
vt 1.28102446 -0.2156738
vt 1.28175569 -0.09946132
vt 1.27917528 -0.00274789333
vt 1.46010661 -0.00439238548
vt 1.3072325 0.9002631
vt 1.29851389 0.9874259
vt 1.41736734 0.9910077
vt 1.4178406 0.905066252
vt 1.556788 0.9927169
vt 1.5648756 0.9302787
vt 1.28771663 0.7771402
vt 1.41855359 0.8246784
vt 1.56315458 0.859292269
vt 1.71789885 0.94074297
vt 0.462969 0.28240484
vt 0.507763743 0.398227334
vt 0.4251939 0.397682
vt 0.4251939 0.397682
vt 0.343486935 0.2821592
vt 0.462969 0.28240484
vt 0.608388245 0.282228351
vt 0.6108344 0.3996992
vt 0.507763743 0.398227334
vt 0.507763743 0.398227334
vt 0.462969 0.28240484
vt 0.608388245 0.282228351
vt 0.77033025 0.2810198
vt 0.7246358 0.398483276
vt 0.6108344 0.3996992
vt 0.6108344 0.3996992
vt 0.608388245 0.282228351
vt 0.77033025 0.2810198
vt 0.875700355 0.280303717
vt 0.803154349 0.39545548
vt 0.7246358 0.398483276
vt 0.7246358 0.398483276
vt 0.77033025 0.2810198
vt 0.875700355 0.280303717
vt 0.9881083 0.2534331
vt 0.888502359 0.39364785
vt 0.803154349 0.39545548
vt 0.803154349 0.39545548
vt 0.875700355 0.280303717
vt 0.9881083 0.2534331
vt 0.343486935 0.2821592
vt 0.4251939 0.397682
vt 0.341883659 0.3979944
vt 0.341883659 0.3979944
vt 0.2299058 0.2748108
vt 0.343486935 0.2821592
vt 0.343486935 0.2821592
vt 0.425468564 0.3978604
vt 0.5080361 0.398537517
vt 0.5080361 0.398537517
vt 0.462987423 0.281384468
vt 0.343486935 0.2821592
vt 0.462987423 0.281384468
vt 0.5080361 0.398537517
vt 0.61084044 0.399835
vt 0.61084044 0.399835
vt 0.608388066 0.282089
vt 0.462987423 0.281384468
vt 0.608388066 0.282089
vt 0.61084044 0.399835
vt 0.7246358 0.398483276
vt 0.7246358 0.398483276
vt 0.770329237 0.280895
vt 0.608388066 0.282089
vt 0.770329237 0.280895
vt 0.7246358 0.398483276
vt 0.803154349 0.39545548
vt 0.803154349 0.39545548
vt 0.8756977 0.280153155
vt 0.770329237 0.280895
vt 0.8756977 0.280153155
vt 0.803154349 0.39545548
vt 0.888502359 0.39364785
vt 0.888502359 0.39364785
vt 0.9881083 0.2534331
vt 0.8756977 0.280153155
vt 0.2299058 0.2748108
vt 0.341883659 0.3979944
vt 0.425468564 0.3978604
vt 0.425468564 0.3978604
vt 0.343486935 0.2821592
vt 0.2299058 0.2748108
vt 0.8380627 0.6863703
vt 0.8377329 0.468729019
vt 0.986937 0.540181756
vt 0.9869775 0.654087543
vt 0.8378106 0.469624043
vt 0.8379441 0.687585652
vt 0.987091064 0.649674952
vt 0.986925364 0.535956442
vn -0.841328442 0.227041 -0.49052915
vn -0.4751 0.0989991948 -0.874345
vn -0.4374463 0.08998106 -0.894731343
vn -0.8280481 0.224558264 -0.5137216
vn -0.950433969 0.310729742 0.0110578472
vn -0.9532209 0.297193438 0.0551900528
vn -0.8309461 0.362654865 0.421912342
vn -0.801202 0.3616298 0.4767591
vn -0.51119566 0.390605867 0.765575647
vn -0.468442053 0.3801972 0.7975037
vn 0.008970176 0.393604338 0.9192362
vn 0.0103467 0.394701064 0.918751359
vn 0.212482512 0.943163037 -0.2555283
vn 0.212482512 0.943163037 -0.2555283
vn 0.212482512 0.943163037 -0.2555283
vn 0.181349456 0.9604312 -0.211386368
vn 0.181349456 0.9604312 -0.211386368
vn 0.181349456 0.9604312 -0.211386368
vn 0.18296662 0.977788568 -0.102238692
vn 0.18296662 0.977788568 -0.102238692
vn 0.18296662 0.977788568 -0.102238692
vn 0.201416984 0.9763197 -0.07893739
vn 0.201416984 0.9763197 -0.07893739
vn 0.201416984 0.9763197 -0.07893739
vn 0.2542793 0.965530038 -0.0556215346
vn 0.2542793 0.965530038 -0.0556215346
vn 0.2542793 0.965530038 -0.0556215346
vn 0.00216489634 0.9897063 -0.143097252
vn 0.00408193562 0.998775363 0.0493068881
vn 0.215255111 0.962688148 -0.16400224
vn 0.4240505 0.8925767 0.153258175
vn 0.479732573 0.8721033 -0.0963978
vn 0.7405381 0.6563694 0.144161344
vn 0.533849537 0.82745105 -0.174153417
vn 0.840362549 0.5278211 -0.123270541
vn 0.4366329 0.868593633 -0.234300628
vn 0.724417 0.5975719 -0.343697369
vn 0.1729282 0.970056236 -0.1705482
vn 0.377429128 0.861124 -0.340606451
vn -0.0122137237 0.0439701229 -0.9989582
vn -0.0183808189 0.08290462 -0.996387959
vn 0.00356483413 0.99998796 0.003363412
vn 0.00325424853 0.9997125 -0.02375561
vn 0.1551781 0.9616588 -0.226124167
vn 0.1551781 0.9616588 -0.226124167
vn 0.1551781 0.9616588 -0.226124167
vn 0.00593842566 0.9560604 0.2931096
vn 0.5943578 0.723905444 0.350285262
vn 0.894653141 0.377135962 0.239508241
vn 0.9699919 0.2373456 -0.0527517349
vn 0.8911008 0.2717074 -0.363475472
vn 0.570607364 0.6601832 -0.488431543
vn 0.00245076162 0.9906023 -0.13675198
vn 0.848060846 0.20844008 -0.487181216
vn 0.822408 0.212688282 -0.5276445
vn 0.431280166 0.07617845 -0.898996234
vn 0.502189636 0.08091884 -0.8609633
vn 0.956490457 0.291676 -0.00715324562
vn 0.960441649 0.275434077 0.04108467
vn 0.845796347 0.3434754 0.4082318
vn 0.817101359 0.344810545 0.462007582
vn 0.531869769 0.3809521 0.7563002
vn 0.490077227 0.37353757 0.787587464
vn -0.168930724 0.958037555 -0.231573775
vn -0.168930724 0.958037555 -0.231573775
vn -0.168930724 0.958037555 -0.231573775
vn -0.177949 0.9533583 -0.243807554
vn -0.177949 0.9533583 -0.243807554
vn -0.177949 0.9533583 -0.243807554
vn -0.17783758 0.97906363 -0.0990362838
vn -0.17783758 0.97906363 -0.0990362838
vn -0.17783758 0.97906363 -0.0990362838
vn -0.195883945 0.9777235 -0.07540713
vn -0.195883945 0.9777235 -0.07540713
vn -0.195883945 0.9777235 -0.07540713
vn -0.248394877 0.967307031 -0.05115718
vn -0.248394877 0.967307031 -0.05115718
vn -0.248394877 0.967307031 -0.05115718
vn -0.414922535 0.89555186 0.160705239
vn -0.211208478 0.964040756 -0.161295846
vn -0.7313099 0.664810061 0.1523595
vn -0.46078226 0.882162631 -0.09730766
vn -0.834800065 0.539672434 -0.10891518
vn -0.5168958 0.840145946 -0.1642362
vn -0.7223504 0.608487 -0.328562677
vn -0.423088253 0.878932357 -0.22016865
vn -0.377537161 0.8639195 -0.3333298
vn -0.171460122 0.9709935 -0.166652516
vn -0.152298525 0.9627646 -0.223359421
vn -0.152298525 0.9627646 -0.223359421
vn -0.152298525 0.9627646 -0.223359421
vn -0.582912564 0.728066564 0.360738158
vn -0.8875708 0.3834282 0.255344719
vn -0.969074368 0.24419795 -0.03552857
vn -0.8954731 0.278021961 -0.347608447
vn -0.5743663 0.664275 -0.478374481
vn -0.889855146 0.00886099 -0.4561571
vn -0.9774986 -0.044527486 -0.206188828
vn -0.984821 0.147869721 0.09089587
vn -0.589297533 -0.0260283779 -0.8074967
vn -0.441178828 -0.0515937544 -0.8959349
vn -0.0185691472 0.01945507 -0.999638259
vn 0.0270948559 -0.0500250533 -0.998380363
vn -0.0383739546 0.006782884 -0.9992404
vn -0.6247736 0.06958514 -0.777699053
vn -0.0229618438 0.04876583 -0.998546243
vn -0.521815062 0.191714287 -0.831236839
vn -0.9355602 0.0231161136 -0.352409929
vn -0.9537933 0.07071501 0.29202354
vn -0.97191596 0.0569549873 0.228331879
vn -0.363862425 0.3356106 0.868889868
vn -0.7458552 0.139177 0.651406
vn -0.8605395 0.0954241455 0.500365853
vn -0.471158117 0.29260534 0.832101047
vn -0.81340903 -0.171219528 0.5559223
vn -0.433588535 -0.134660766 0.8909924
vn -0.09921837 0.240349323 0.965602338
vn -0.009429111 0.0551543124 0.9984333
vn 0.0443067476 -0.175698727 0.9834464
vn 0.847329855 -0.0348781347 -0.52992034
vn 0.435470849 0.00812962 -0.9001661
vn 0.871428967 -0.0251191333 -0.4898781
vn 0.4405385 -0.0261122752 -0.8973539
vn 0.515013 0.055308532 -0.855396152
vn 0.372882724 0.109007478 -0.9214531
vn 0.8132767 0.0605353378 -0.578719735
vn 0.910659 0.014089535 0.412918419
vn 0.9935909 -0.0184743423 0.111516342
vn 0.8903963 -0.121965118 0.43854177
vn 0.7666566 0.144741923 0.625529766
vn 0.6999855 0.1176482 0.7043999
vn 0.715878844 0.22573185 0.6607289
vn 0.6332826 0.156257868 -0.757981956
vn 0.9877383 0.07385128 0.137546286
vn -0.448338628 -0.335075468 0.828683853
vn -0.8931484 0.04767424 0.447228163
vn 0.8102011 -0.144555613 0.5680474
vn -0.8605395 0.0954241455 0.500365853
vn -0.7458552 0.139177 0.651406
vn 0.0896240249 0.180890068 -0.9794112
vn 0.06053811 0.299029052 -0.952321768
vn 0.0373280235 0.201163009 -0.9788463
vn -0.03535675 0.154838517 -0.9873069
vn -0.771946549 0.240091786 -0.5886038
vn -0.784295142 0.208821878 0.5841871
vn -0.744866 0.236971736 0.623713851
vn -0.718985856 0.403109282 0.566182137
vn -0.9603582 0.120859444 -0.251207352
vn -0.956067 0.10462258 -0.27384305
vn -0.93378216 0.168057919 -0.315923184
vn 0.6343027 0.192390844 -0.7487629
vn 0.0133259539 0.519515038 -0.8543574
vn 0.09751828 0.3727666 -0.922786653
vn -0.761299551 0.329678237 -0.558332562
vn 0.9603301 0.103252605 -0.259046167
vn 0.889764965 0.239000469 -0.388840646
vn 0.896510363 -0.0144853787 0.442785859
vn 0.57281 0.06362922 0.8172148
vn 0.653255761 -0.138937756 0.744280338
vn 0.7264424 0.250378221 0.6399939
vn 0.292990357 0.26282075 0.9192834
vn 0.102042988 0.179783612 0.9783992
vn 0.201058879 0.00135755818 0.9795782
vn -0.0375317 0.209959552 0.976989448
vn -0.328701764 0.2294086 0.9161478
vn -0.39544937 0.262047946 0.8803128
vn 0.0156166619 0.216053411 0.976256669
vn -0.5546569 0.129624069 0.8219205
vn 0.0155558819 0.09834621 0.9950307
vn 0.300105423 0.0547510572 0.95233345
vn 0.436039 0.0829253346 0.896099
vn 0.4972905 0.06043436 0.865476668
vn -0.07791334 -0.0614588559 0.995063961
vn -0.3192984 0.726387262 -0.6086133
vn -0.3192984 0.726387262 -0.6086133
vn -0.3192984 0.726387262 -0.6086133
vn -0.31944263 0.7280518 -0.60654515
vn -0.31944263 0.7280518 -0.60654515
vn -0.31944263 0.7280518 -0.60654515
vn -0.5413803 0.782472432 -0.307643056
vn -0.5413803 0.782472432 -0.307643056
vn -0.5413803 0.782472432 -0.307643056
vn -0.530653536 0.794803858 -0.294437915
vn -0.530653536 0.794803858 -0.294437915
vn -0.530653536 0.794803858 -0.294437915
vn -0.534032762 0.840442538 0.09200723
vn -0.534032762 0.840442538 0.09200723
vn -0.534032762 0.840442538 0.09200723
vn -0.5218346 0.847555935 0.09663094
vn -0.5218346 0.847555935 0.09663094
vn -0.5218346 0.847555935 0.09663094
vn -0.3376877 0.8725492 0.353022516
vn -0.3376877 0.8725492 0.353022516
vn -0.3376877 0.8725492 0.353022516
vn -0.3099552 0.882546246 0.3536098
vn -0.3099552 0.882546246 0.3536098
vn -0.3099552 0.882546246 0.3536098
vn -0.0239640418 0.863998055 0.502924562
vn -0.0239640418 0.863998055 0.502924562
vn -0.0239640418 0.863998055 0.502924562
vn -0.0030628345 0.8689864 0.494826436
vn -0.0030628345 0.8689864 0.494826436
vn -0.0030628345 0.8689864 0.494826436
vn 0.0166652724 0.6911435 -0.722525358
vn 0.0166652724 0.6911435 -0.722525358
vn 0.0166652724 0.6911435 -0.722525358
vn 0.0352964774 0.672414 -0.7393332
vn 0.0352964774 0.672414 -0.7393332
vn 0.0352964774 0.672414 -0.7393332
vn 0.3330029 0.7494978 -0.5721557
vn 0.3330029 0.7494978 -0.5721557
vn 0.3330029 0.7494978 -0.5721557
vn 0.367494017 0.7384155 -0.565412
vn 0.367494017 0.7384155 -0.565412
vn 0.367494017 0.7384155 -0.565412
vn 0.5140685 0.7813812 -0.353803724
vn 0.5140685 0.7813812 -0.353803724
vn 0.5140685 0.7813812 -0.353803724
vn 0.5416493 0.7708481 -0.335274845
vn 0.5416493 0.7708481 -0.335274845
vn 0.5416493 0.7708481 -0.335274845
vn 0.532644153 0.8426569 0.07886388
vn 0.532644153 0.8426569 0.07886388
vn 0.532644153 0.8426569 0.07886388
vn 0.5396095 0.8370707 0.09018996
vn 0.5396095 0.8370707 0.09018996
vn 0.5396095 0.8370707 0.09018996
vn 0.336175025 0.8795498 0.336717248
vn 0.336175025 0.8795498 0.336717248
vn 0.336175025 0.8795498 0.336717248
vn 0.334568679 0.8718539 0.3576795
vn 0.334568679 0.8718539 0.3576795
vn 0.334568679 0.8718539 0.3576795
vn 0.0318513326 0.8707304 0.49072808
vn 0.0318513326 0.8707304 0.49072808
vn 0.0318513326 0.8707304 0.49072808
vn 0.0235981159 0.8640941 0.502776861
vn 0.0235981159 0.8640941 0.502776861
vn 0.0235981159 0.8640941 0.502776861
vn -0.0168438032 0.6731489 -0.739315152
vn -0.0168438032 0.6731489 -0.739315152
vn -0.0168438032 0.6731489 -0.739315152
vn -0.05572846 0.69020617 -0.7214636
vn -0.05572846 0.69020617 -0.7214636
vn -0.05572846 0.69020617 -0.7214636
vn 0.0150786387 -0.464969367 -0.885198355
vn 0.410572231 -0.522935152 -0.7469734
vn 0.4736977 -0.473320663 -0.742683
vn 0.06945881 -0.4681611 -0.880909
vn -0.5071835 -0.4949364 -0.705551445
vn 0.0150786387 -0.464969367 -0.885198355
vn 0.06945881 -0.4681611 -0.880909
vn -0.50423485 -0.6211947 -0.5998869
usemtl 0002021001_part_0_material_0
f 1/1/1 2/2/2 3/3/3
f 3/3/3 4/4/4 1/1/1
f 5/5/5 1/1/1 4/4/4
f 4/4/4 6/6/6 5/5/5
f 7/7/7 5/5/5 6/6/6
f 6/6/6 8/8/8 7/7/7
f 9/9/9 7/7/7 8/8/8
f 8/8/8 10/10/10 9/9/9
f 9/9/9 10/10/10 11/11/11
f 11/11/11 12/12/12 9/9/9
f 13/13/13 14/14/14 15/15/15
f 16/16/16 17/17/17 18/18/18
f 19/19/19 20/20/20 21/21/21
f 22/22/22 23/23/23 24/24/24
f 25/25/25 26/26/26 27/27/27
f 28/28/28 29/29/29 30/30/30
f 31/31/31 30/30/30 29/29/29
f 32/32/32 30/30/30 33/33/33
f 31/31/31 33/33/33 30/30/30
f 34/34/34 32/32/32 35/35/35
f 33/33/33 35/35/35 32/32/32
f 36/36/36 34/34/34 37/37/37
f 35/35/35 37/37/37 34/34/34
f 38/38/38 36/36/36 39/39/39
f 37/37/37 39/39/39 36/36/36
f 40/40/40 3/3/3 2/2/2
f 2/2/2 41/41/41 40/40/40
f 42/42/42 38/38/38 43/43/43
f 39/39/39 43/43/43 38/38/38
f 44/44/44 45/45/45 46/46/46
f 29/29/29 47/47/47 31/31/31
f 48/48/48 31/31/31 47/47/47
f 48/48/48 49/49/49 31/31/31
f 33/33/33 31/31/31 49/49/49
f 49/49/49 50/50/50 33/33/33
f 35/35/35 33/33/33 50/50/50
f 50/50/50 51/51/51 35/35/35
f 37/37/37 35/35/35 51/51/51
f 51/51/51 52/52/52 37/37/37
f 39/39/39 37/37/37 52/52/52
f 52/52/52 53/53/53 39/39/39
f 43/43/43 39/39/39 53/53/53
f 54/54/54 55/55/55 56/56/56
f 56/56/56 57/57/57 54/54/54
f 58/58/58 59/59/59 55/55/55
f 55/55/55 54/54/54 58/58/58
f 60/60/60 61/61/61 59/59/59
f 59/59/59 58/58/58 60/60/60
f 62/62/62 63/63/63 61/61/61
f 61/61/61 60/60/60 62/62/62
f 62/62/62 12/12/12 11/11/11
f 11/11/11 63/63/63 62/62/62
f 64/64/64 65/65/65 66/66/66
f 67/67/67 68/68/68 69/69/69
f 70/70/70 71/71/71 72/72/72
f 73/73/73 74/74/74 75/75/75
f 76/76/76 77/77/77 78/78/78
f 79/79/79 29/29/29 80/80/80
f 28/28/28 80/80/80 29/29/29
f 79/79/79 80/80/80 81/81/81
f 82/82/82 81/81/81 80/80/80
f 81/81/81 82/82/82 83/83/83
f 84/84/84 83/83/83 82/82/82
f 83/83/83 84/84/84 85/85/85
f 86/86/86 85/85/85 84/84/84
f 85/85/85 86/86/86 87/87/87
f 88/88/88 87/87/87 86/86/86
f 57/57/57 56/56/56 40/40/40
f 40/40/40 41/41/41 57/57/57
f 87/87/87 88/88/88 43/43/43
f 42/42/42 43/43/43 88/88/88
f 89/89/89 90/90/90 91/91/91
f 29/29/29 79/79/79 47/47/47
f 92/92/92 47/47/47 79/79/79
f 81/81/81 93/93/93 79/79/79
f 92/92/92 79/79/79 93/93/93
f 83/83/83 94/94/94 81/81/81
f 93/93/93 81/81/81 94/94/94
f 85/85/85 95/95/95 83/83/83
f 94/94/94 83/83/83 95/95/95
f 87/87/87 96/96/96 85/85/85
f 95/95/95 85/85/85 96/96/96
f 43/43/43 53/53/53 87/87/87
f 96/96/96 87/87/87 53/53/53
f 97/97/97 98/98/98 99/99/99
f 98/98/98 97/97/97 100/100/100
f 101/101/101 100/100/100 97/97/97
f 102/102/102 100/100/100 101/101/101
f 101/101/101 103/103/103 102/102/102
f 102/102/102 104/104/104 100/100/100
f 100/100/100 104/104/104 105/105/105
f 105/105/105 106/106/106 107/107/107
f 105/105/105 107/107/107 108/108/108
f 108/108/108 100/100/100 105/105/105
f 108/108/108 98/98/98 100/100/100
f 104/104/104 106/106/106 105/105/105
f 109/109/109 99/99/99 110/110/110
f 99/99/99 98/98/98 110/110/110
f 98/98/98 108/108/108 110/110/110
f 111/111/111 112/112/112 113/113/113
f 113/113/113 114/114/114 111/111/111
f 113/113/113 115/115/115 116/116/116
f 116/116/116 114/114/114 113/113/113
f 117/117/117 111/111/111 114/114/114
f 118/118/118 114/114/114 116/116/116
f 116/116/116 119/119/119 118/118/118
f 120/120/120 121/121/121 122/122/122
f 122/122/122 121/121/121 123/123/123
f 123/123/123 121/121/121 102/102/102
f 102/102/102 103/103/103 123/123/123
f 121/121/121 104/104/104 102/102/102
f 124/124/124 104/104/104 121/121/121
f 125/125/125 106/106/106 124/124/124
f 126/126/126 125/125/125 124/124/124
f 124/124/124 121/121/121 126/126/126
f 121/121/121 120/120/120 126/126/126
f 124/124/124 106/106/106 104/104/104
f 127/127/127 128/128/128 129/129/129
f 130/130/130 127/127/127 131/131/131
f 130/130/130 131/131/131 132/132/132
f 133/133/133 125/125/125 126/126/126
f 127/127/127 130/130/130 134/134/134
f 135/135/135 116/116/116 115/115/115
f 135/135/135 119/119/119 116/116/116
f 128/128/128 134/134/134 122/122/122
f 127/127/127 134/134/134 128/128/128
f 136/136/136 109/109/109 110/110/110
f 127/127/127 129/129/129 137/137/137
f 109/109/109 136/136/136 138/138/138
f 138/138/138 139/139/139 109/109/109
f 125/125/125 140/140/140 141/141/141
f 141/141/141 106/106/106 125/125/125
f 106/106/106 142/142/142 143/143/143
f 143/143/143 107/107/107 106/106/106
f 107/107/107 144/144/144 108/108/108
f 136/136/136 110/110/110 145/145/145
f 145/145/145 146/146/146 136/136/136
f 147/147/147 146/146/146 145/145/145
f 110/110/110 108/108/108 148/148/148
f 148/148/148 149/149/149 110/110/110
f 150/150/150 149/149/149 148/148/148
f 151/151/151 125/125/125 133/133/133
f 152/152/152 141/141/141 140/140/140
f 153/153/153 143/143/143 142/142/142
f 154/154/154 144/144/144 107/107/107
f 155/155/155 126/126/126 120/120/120
f 134/134/134 120/120/120 122/122/122
f 156/156/156 126/126/126 155/155/155
f 134/134/134 155/155/155 120/120/120
f 114/114/114 118/118/118 117/117/117
f 157/157/157 158/158/158 159/159/159
f 160/160/160 161/161/161 158/158/158
f 158/158/158 157/157/157 160/160/160
f 162/162/162 163/163/163 158/158/158
f 158/158/158 161/161/161 162/162/162
f 158/158/158 163/163/163 159/159/159
f 164/164/164 165/165/165 166/166/166
f 166/166/166 167/167/167 164/164/164
f 166/166/166 168/168/168 169/169/169
f 169/169/169 167/167/167 166/166/166
f 170/170/170 164/164/164 167/167/167
f 171/171/171 167/167/167 169/169/169
f 169/169/169 172/172/172 171/171/171
f 173/173/173 169/169/169 168/168/168
f 173/173/173 172/172/172 169/169/169
f 167/167/167 171/171/171 170/170/170
f 174/174/174 175/175/175 176/176/176
f 177/177/177 178/178/178 179/179/179
f 180/180/180 181/181/181 182/182/182
f 183/183/183 184/184/184 185/185/185
f 186/186/186 187/187/187 188/188/188
f 189/189/189 190/190/190 191/191/191
f 192/192/192 193/193/193 194/194/194
f 195/195/195 196/196/196 197/197/197
f 198/198/198 199/199/199 200/200/200
f 201/201/201 202/202/202 203/203/203
f 204/204/204 205/205/205 206/206/206
f 207/207/207 208/208/208 209/209/209
f 210/210/210 211/211/211 212/212/212
f 213/213/213 214/214/214 215/215/215
f 216/216/216 217/217/217 218/218/218
f 219/219/219 220/220/220 221/221/221
f 222/222/222 223/223/223 224/224/224
f 225/225/225 226/226/226 227/227/227
f 228/228/228 229/229/229 230/230/230
f 231/231/231 232/232/232 233/233/233
f 234/234/234 235/235/235 236/236/236
f 237/237/237 238/238/238 239/239/239
f 240/240/240 241/241/241 242/242/242
f 243/243/243 244/244/244 245/245/245
f 246/246/246 247/247/247 248/248/248
f 248/248/248 249/249/249 246/246/246
f 250/250/250 251/251/251 252/252/252
f 252/252/252 253/253/253 250/250/250
