mtllib 0002641002.mtl
o 0002641002_part_0
v -0.000527841737 1.129528 0.151408792
v 0.10760548 1.1540494 0.108585127
v -0.000258081825 1.23827648 0.138499379
v 0.08077017 1.25944018 0.1197758
v 0.000145229511 1.32388878 0.149835408
v -0.000258081825 1.23827648 0.138499379
v 0.08077017 1.25944018 0.1197758
v 0.07288306 1.32217956 0.1243438
v 0.0008747119 1.52142239 0.15335229
v 0.0778358 1.44358826 0.1885451
v 0.07434834 1.52524614 0.189340413
v 0.0007706792 1.46194077 0.165312871
v 0.0663384348 1.40383482 0.153217763
v 0.117937088 1.67411709 -0.06494939
v 0.0709873661 1.68583941 -0.0297258422
v 0.1331932 1.651871 -0.0152305439
v 0.117937088 1.67411709 -0.06494939
v 0.1152604 1.65749741 -0.116825178
v 0.0493299849 1.67723823 -0.1201502
v 0.06499733 1.65094924 0.04067123
v 0.0709873661 1.68583941 -0.0297258422
v 0.000311832177 1.69362593 0.021435447
v 0.0005041119 1.636023 0.06601125
v 0.0007110825 1.5798142 0.11168728
v 0.131942526 1.59186029 -0.144473448
v -0.001805032 1.52431631 -0.149533466
v -0.00154928886 1.61101651 -0.155244783
v 0.0798909441 1.46125507 -0.121006586
v 0.156812087 1.49580622 0.0828377753
v 0.152764633 1.55477715 -0.004521832
v 0.1368767 1.56593633 0.0602326766
v -0.00128270744 1.66465139 -0.146575347
v 0.148310125 1.48628592 0.130931377
v 0.0709873661 1.68583941 -0.0297258422
v 0.141478717 1.53518033 -0.11438819
v 0.148879826 1.49138641 -0.0307081714
v 0.148879826 1.49138641 -0.0307081714
v 0.14228265 1.606967 0.0157791357
v 0.13278009 1.41352654 0.08611596
v 0.126951814 1.449147 0.156889945
v 0.06874121 1.35908866 -0.0533199124
v -0.0019320529 1.45407462 -0.135878429
v -0.00164792477 1.35804963 -0.06566667
v 0.185980245 1.16912389 0.0138053652
v 0.09208928 1.27718806 -0.0626279041
v 0.127575114 1.27937484 0.040898338
v 0.123497106 1.17998171 -0.121769659
v 0.0455962829 1.18797278 -0.152797475
v -0.00216795085 1.2654314 -0.08735634
v 0.072834 1.73399043 -0.0310588628
v 0.07312197 1.73329926 -0.107924677
v 0.0493299849 1.67723823 -0.1201502
v 0.13278009 1.41352654 0.08611596
v 0.10086868 1.372653 0.108801633
v 0.126952708 1.34153056 0.027472347
v 0.125808328 1.41390729 0.004976252
v 0.126952708 1.34153056 0.027472347
v 0.127575114 1.27937484 0.040898338
v 0.09208928 1.27718806 -0.0626279041
v -0.00216795085 1.2654314 -0.08735634
v -0.0011651 1.72314715 -0.1566124
v -0.00128270744 1.66465139 -0.146575347
v 0.04888417 1.74397993 -0.0372094363
v 0.000360815553 1.72969723 0.0125952158
v 0.000111864181 1.73605585 -0.0179667715
v 0.0474474542 1.73615026 -0.105471969
v 0.06891263 1.58661151 0.104297273
v 0.0007110825 1.5798142 0.11168728
v 0.12393216 1.0758996 0.127129883
v 0.216931164 1.06151438 -0.0141988695
v 0.12393216 1.0758996 0.127129883
v -0.0009382074 0.88680017 0.208052322
v -0.000721033546 1.05215228 0.160452828
v 0.12393216 1.0758996 0.127129883
v 0.07005971 0.883098662 0.186942771
v 0.1288047 0.878274441 0.15810892
v 0.141617075 1.06371927 -0.145564333
v 0.128636837 0.8492068 -0.124949589
v 0.222442225 0.8647406 0.00344341621
v 0.209796831 0.866937339 0.0607500374
v 0.12393216 1.0758996 0.127129883
v 0.0615714 1.08258188 -0.184027672
v -0.00362362666 1.07636619 -0.176010773
v -0.002978719 1.185041 -0.146649942
v 0.06499733 1.65094924 0.04067123
v -0.0009621935 1.73509336 -0.138520077
v 0.120781362 1.52096128 0.176217109
v 0.127575114 1.27937484 0.040898338
v 0.148879826 1.49138641 -0.0307081714
v 0.141478717 1.53518033 -0.11438819
v 0.138074964 1.53253341 -0.0561112836
v 0.152764633 1.55477715 -0.004521832
v 0.148879826 1.49138641 -0.0307081714
v 0.138074964 1.53253341 -0.0561112836
v 0.04495166 0.848337 -0.161451772
v -0.0342813954 0.8508882 -0.155104682
v 0.312919766 1.428381 -0.120651536
v 0.2901085 1.35790086 -0.0662103444
v 0.325320542 1.36765647 -0.1305485
v 0.291791856 1.36413074 -0.17563583
v 0.164155245 1.37892938 -0.09941164
v 0.197981238 1.32963252 -0.113469765
v 0.229046553 1.34625793 -0.06575909
v 0.202395618 1.390827 -0.0485327728
v 0.197981238 1.32963252 -0.113469765
v 0.169052511 1.389509 -0.147611842
v 0.205185845 1.3501575 -0.163394526
v 0.442487866 1.525567 -0.117359
v 0.402998477 1.49375486 -0.119433545
v 0.457807928 1.44225383 -0.132094726
v 0.3837141 1.4679153 -0.122120708
v 0.358629137 1.4415915 -0.124432117
v 0.431749523 1.36464167 -0.142662436
v 0.4285144 1.32383657 -0.149038374
v 0.444475949 1.32815886 -0.149586678
v 0.384149462 1.350913 -0.1411636
v 0.3373829 1.42120385 -0.126079828
v 0.306653261 1.42172217 -0.125851691
v 0.30632183 1.3856461 -0.129423216
v 0.34134376 1.38669038 -0.131997377
v 0.250362515 1.40843272 -0.0511262044
v 0.232476324 1.427979 -0.170287251
v 0.164155245 1.37892938 -0.09941164
v 0.09913042 1.29031634 -0.07466766
v -0.00225743046 1.27352738 -0.100654036
v -0.00216795085 1.2654314 -0.08735634
v 0.104675546 1.21278381 0.130490944
v 0.179857925 1.232801 0.0183240771
v 0.143811017 1.28570867 0.0435344465
v 0.089655 1.26323676 0.138907209
v 0.04856228 1.192369 0.146192
v 0.0435898378 1.254633 0.1488655
v 4.405761E-05 1.26886678 0.16034393
v -0.000395496376 1.15628648 0.155660331
v 0.11833 1.25046778 -0.112082154
v -0.00273170648 1.230855 -0.137071759
v 0.08077017 1.25944018 0.1197758
v -0.000258081825 1.23827648 0.138499379
v 0.09208928 1.27718806 -0.0626279041
v 0.127575114 1.27937484 0.040898338
v 0.1766753 0.7046072 -0.07309963
v 0.1794306 0.665834367 -0.0629261062
v 0.08737318 0.6947334 -0.08677271
v 0.0270733833 0.6882452 -0.0272412188
v 0.0536143966 0.6474348 -0.0142474752
v 0.0768223 0.706442654 0.1372362
v 0.194773957 0.714670956 0.119960748
v 0.1434526 0.6804697 0.132507443
v 0.183538809 0.6412453 0.09071701
v 0.219409376 0.708120465 -0.00645311456
v 0.206779689 0.6535123 -0.00362304412
v 0.184312463 0.5110873 0.08038077
v 0.183538809 0.6412453 0.09071701
v 0.107585579 0.6333475 0.116119042
v 0.1206241 0.5045583 0.100652933
v 0.1794306 0.665834367 -0.0629261062
v 0.206779689 0.6535123 -0.00362304412
v 0.24077718 0.520411849 -0.0262961425
v 0.0992872939 0.6617026 -0.07397992
v 0.091387786 0.5207851 -0.100929447
v 0.0536143966 0.6474348 -0.0142474752
v 0.091387786 0.5207851 -0.100929447
v 0.0992872939 0.6617026 -0.07397992
v 0.187018543 0.5355895 -0.09614394
v 0.0417452157 0.500854731 -0.0456587858
v 0.128716543 0.2897097 -0.104468942
v 0.101090059 0.43161267 -0.12368837
v 0.186653823 0.431687683 -0.115172088
v 0.1784605 0.2903697 -0.0993133038
v 0.1220145 0.382260352 0.0504420251
v 0.183527127 0.3920835 0.0438852757
v 0.233282745 0.411967278 -0.0400775857
v 0.204015508 0.275500327 -0.03724324
v 0.0569550954 0.386395216 -0.04038708
v 0.101090059 0.43161267 -0.12368837
v 0.128716543 0.2897097 -0.104468942
v 0.100748658 0.275139332 -0.0334924981
v 0.177681863 0.282275736 0.0149302743
v 0.132786959 0.280136943 0.01584956
v 0.1794306 0.665834367 -0.0629261062
v 0.0992872939 0.6617026 -0.07397992
v 0.08737318 0.6947334 -0.08677271
v 0.0992872939 0.6617026 -0.07397992
v 0.0536143966 0.6474348 -0.0142474752
v 0.0270733833 0.6882452 -0.0272412188
v 0.0270733833 0.6882452 -0.0272412188
v 0.08737318 0.6947334 -0.08677271
v 0.0992872939 0.6617026 -0.07397992
v 0.0976398438 0.70163393 -0.0433652475
v 0.156577364 0.7032461 -0.0341823064
v 0.1766753 0.7046072 -0.07309963
v 0.1766753 0.7046072 -0.07309963
v 0.08737318 0.6947334 -0.08677271
v 0.0976398438 0.70163393 -0.0433652475
v 0.156577364 0.7032461 -0.0341823064
v 0.170079947 0.69856894 0.007679937
v 0.219409376 0.708120465 -0.00645311456
v 0.219409376 0.708120465 -0.00645311456
v 0.1766753 0.7046072 -0.07309963
v 0.156577364 0.7032461 -0.0341823064
v 0.170079947 0.69856894 0.007679937
v 0.175162017 0.6726859 0.104637221
v 0.194773957 0.714670956 0.119960748
v 0.194773957 0.714670956 0.119960748
v 0.219409376 0.708120465 -0.00645311456
v 0.170079947 0.69856894 0.007679937
v 0.175162017 0.6726859 0.104637221
v 0.1434526 0.6804697 0.132507443
v 0.194773957 0.714670956 0.119960748
v 0.106947683 0.666612 0.114533484
v 0.07047911 0.692935 -0.00436910056
v 0.0270733833 0.6882452 -0.0272412188
v 0.0270733833 0.6882452 -0.0272412188
v 0.0768223 0.706442654 0.1372362
v 0.106947683 0.666612 0.114533484
v 0.07047911 0.692935 -0.00436910056
v 0.0976398438 0.70163393 -0.0433652475
v 0.08737318 0.6947334 -0.08677271
v 0.08737318 0.6947334 -0.08677271
v 0.0270733833 0.6882452 -0.0272412188
v 0.07047911 0.692935 -0.00436910056
v 0.107585579 0.6333475 0.116119042
v 0.106947683 0.666612 0.114533484
v 0.0768223 0.706442654 0.1372362
v 0.1434526 0.6804697 0.132507443
v 0.1434526 0.6804697 0.132507443
v 0.175162017 0.6726859 0.104637221
v 0.106947683 0.666612 0.114533484
v 0.227760866 1.50176764 -0.0416448154
v 0.269082427 1.51311374 -0.08777193
v 0.264478743 1.56751275 -0.07552881
v 0.221036762 1.566958 -0.0124297384
v 0.1513367 1.48948741 -0.129833758
v 0.152900815 1.48492813 -0.0812481642
v 0.138074964 1.53253341 -0.0561112836
v 0.141478717 1.53518033 -0.11438819
v 0.187655538 1.49810576 -0.03987064
v 0.152764633 1.55477715 -0.004521832
v 0.138074964 1.53253341 -0.0561112836
v 0.152900815 1.48492813 -0.0812481642
v 0.221537635 1.575165 -0.124703482
v 0.16008997 1.63232422 -0.115072362
v 0.238537356 1.6115725 -0.07296929
v 0.220117271 1.5142014 -0.131324872
v 0.177938551 1.63670516 -0.0137323216
v 0.131942526 1.59186029 -0.144473448
v 0.14228265 1.606967 0.0157791357
v 0.1840477 1.64875054 -0.06701951
v 0.278006643 1.43579674 -0.117212661
v 0.2489302 1.43182182 -0.159257159
v 0.180507809 1.40565586 -0.109553836
v 0.217027918 1.33156419 -0.127778068
v 0.246638 1.34847856 -0.07635164
v 0.216455415 1.4092536 -0.0578466
v 0.2672124 1.35635543 -0.16493082
v 0.297657281 1.36313677 -0.1307983
v 0.27652815 1.35827589 -0.09182669
v 0.2614715 1.42241144 -0.06729539
v 0.230870843 1.34699726 -0.169144854
v 0.198661491 1.40025449 -0.1510593
v 0.217027918 1.33156419 -0.127778068
v 0.180507809 1.40565586 -0.109553836
v 0.2912573 1.29861212 -0.169061437
v 0.313931227 1.33055162 -0.127606854
v 0.3840085 1.16267729 -0.110491574
v 0.3433365 1.15468955 -0.1504636
v 0.250332445 1.27441812 -0.168346137
v 0.3072195 1.13403678 -0.1510453
v 0.288269073 1.32908154 -0.08498806
v 0.3607408 1.1706984 -0.06756785
v 0.233909413 1.28857493 -0.121863559
v 0.2828027 1.1183331 -0.101544306
v 0.3239128 1.15645647 -0.0532589331
v 0.256948173 1.318332 -0.07535454
v 0.233909413 1.28857493 -0.121863559
v 0.2828027 1.1183331 -0.101544306
v 0.279061139 1.32839036 -0.169177264
v 0.241093114 1.30984449 -0.1708694
v 0.1152604 1.65749741 -0.116825178
v 0.1331932 1.651871 -0.0152305439
v 0.117937088 1.67411709 -0.06494939
v 0.170079947 0.69856894 0.007679937
v 0.156577364 0.7032461 -0.0341823064
v 0.137845755 1.01739764 -0.08968161
v 0.174854279 1.058552 -0.018396087
v 0.1569023 0.7326246 0.0899203
v 0.12354105 1.07727885 0.07348972
v 0.06324714 1.01038265 -0.102520771
v 0.0976398438 0.70163393 -0.0433652475
v 0.07047911 0.692935 -0.00436910056
v -0.00160201243 1.04330158 -0.0469761342
v 0.100184709 0.7258686 0.08954113
v 0.058230333 1.06157911 0.0711616948
v 0.07047911 0.692935 -0.00436910056
v -0.00160201243 1.04330158 -0.0469761342
v 0.175162017 0.6726859 0.104637221
v 0.106947683 0.666612 0.114533484
v 0.06324714 1.01038265 -0.102520771
v -0.00160201243 1.04330158 -0.0469761342
v -0.003074674 1.0719409 -0.130969971
v 0.05987537 1.07407129 -0.143943816
v 0.12354105 1.07727885 0.07348972
v 0.174854279 1.058552 -0.018396087
v 0.1746659 1.16552949 0.011275176
v 0.105989881 1.16463923 0.08603108
v -0.00291001331 1.17910385 -0.136550769
v 0.04757503 1.18706608 -0.142651334
v 0.058230333 1.06157911 0.0711616948
v -0.0008112837 1.12644649 0.120720409
v 0.174854279 1.058552 -0.018396087
v 0.144243747 1.06003058 -0.108888566
v 0.1272157 1.17615581 -0.102160417
v 0.137845755 1.01739764 -0.08968161
v -0.00127649528 1.050416 0.0886746049
v -0.00160201243 1.04330158 -0.0469761342
v 0.0571747981 1.79282951 -0.0289450921
v 0.000322982669 1.77938271 -0.0114387935
v 0.000111864181 1.73605585 -0.0179667715
v 0.04888417 1.74397993 -0.0372094363
v 0.0474474542 1.73615026 -0.105471969
v -0.0009621935 1.73509336 -0.138520077
v -0.0006552761 1.827317 -0.14066574
v 0.0612058155 1.81917 -0.08275589
v 0.3533085 1.47536826 -0.118527733
v 0.401711643 1.57777786 -0.105681896
v -0.00108406262 1.710604 -0.142496213
v -0.0010097879 1.66453767 -0.115799755
v 0.0495982841 1.67494011 -0.08902612
v 0.0709873661 1.68583941 -0.0297258422
v 0.09724935 1.71249771 -0.07970667
v 0.113863155 1.70703483 -0.0149461478
v 0.12285953 1.64846921 0.103074625
v 0.06499733 1.65094924 0.04067123
v 0.0704175 1.61442208 0.0985005349
v 0.168330133 1.68069315 -0.0259390473
v 0.08294469 1.66777658 -0.122343853
v -0.00138112064 1.66569829 -0.1580733
v 0.141022369 1.68435478 0.01587306
v 0.0007110825 1.5798142 0.11168728
v 0.16604057 1.62865329 -0.126395717
v 0.08132155 1.60804057 -0.157002956
v -0.00175676576 1.60636878 -0.176756442
v 0.238727331 1.71734858 0.04521188
v 0.3024915 1.75098825 -0.0116600487
v 0.1826228 1.699533 0.0872076452
v 0.3296746 1.665561 -0.0623013824
v 0.172662213 1.49587846 -0.1545174
v 0.0512925 1.4738009 -0.209659338
v -0.00244605634 1.49827123 -0.211344868
v 0.2641959 1.58167934 -0.131000355
v 0.1957433 1.13117623 -0.1170451
v 0.109352753 1.10299158 -0.199365065
v 0.08087675 1.24894524 -0.110536218
v 0.148785621 1.25643826 -0.0919651762
v -0.003961464 1.09129012 -0.219990119
v -0.00261271815 1.23935318 -0.127056375
v 0.23425293 0.9739813 -0.13545534
v 0.1320154 0.953914344 -0.230719656
v -0.00483710133 0.9450162 -0.26036495
v 0.274942 0.7935185 -0.142008379
v 0.146411553 0.764285147 -0.252117753
v -0.005646823 0.764256 -0.27959156
v 0.326851 0.581224859 -0.164581165
v 0.1618441 0.52757 -0.274720848
v -0.006712069 0.519509554 -0.3021217
v 0.13278009 1.41352654 0.08611596
v 0.125808328 1.41390729 0.004976252
v -0.108828589 1.15483594 0.110430762
v -0.08145486 1.25998712 0.121182963
v -0.08145486 1.25998712 0.121182963
v -0.07304385 1.32272339 0.125661284
v -0.07191929 1.52576327 0.190639436
v -0.07599748 1.44413185 0.1899113
v -0.06541042 1.40436 0.154392451
v -0.11857757 1.6750164 -0.0628626645
v -0.133112863 1.65378428 -0.0129990373
v -0.07131262 1.68631148 -0.0282399841
v -0.11857757 1.6750164 -0.0628626645
v -0.0513256676 1.67780209 -0.119093351
v -0.118273295 1.65690637 -0.114442304
v -0.06432161 1.65116906 0.0419439
v -0.07131262 1.68631148 -0.0282399841
v -0.134960815 1.59280372 -0.142103016
v -0.08342542 1.46180463 -0.119567387
v -0.15646787 1.49695945 0.08557397
v -0.136441618 1.56690264 0.06266005
v -0.154049873 1.5568018 -0.002649065
v -0.150049716 1.504396 0.143498212
v -0.07131262 1.68631148 -0.0282399841
v -0.150585175 1.49242616 -0.0280938819
v -0.141711026 1.53327465 -0.113502607
v -0.150585175 1.49242616 -0.0280938819
v -0.142047435 1.608901 0.0177346412
v -0.132963225 1.4145236 0.0884762257
v -0.125627428 1.45003986 0.159133151
v -0.07179752 1.35957336 -0.05206061
v -0.188899562 1.17062 0.0174350757
v -0.129510984 1.28027964 0.04316777
v -0.09588567 1.27785277 -0.0609587356
v -0.129224047 1.18074512 -0.119510964
v -0.05163332 1.18828678 -0.151923761
v -0.07284423 1.73450708 -0.0297792
v -0.07450237 1.73381 -0.106637359
v -0.0513256676 1.67780209 -0.119093351
v -0.132963225 1.4145236 0.0884762257
v -0.128687322 1.34244347 0.0297714062
v -0.100943565 1.37341285 0.110612452
v -0.128687322 1.34244347 0.0297714062
v -0.127431348 1.41480279 0.00722485129
v -0.129510984 1.28027964 0.04316777
v -0.09588567 1.27785277 -0.0609587356
v -0.0489372946 1.74432588 -0.0363420732
v -0.04876878 1.73648119 -0.104638107
v -0.06756171 1.58697987 0.105499059
v -0.124355011 1.082412 0.1322448
v -0.221604958 1.06324327 -0.009759147
v -0.06311864 0.884101748 0.191535428
v -0.148982689 1.06425 -0.142732158
v -0.1393569 0.849534869 -0.121462017
v -0.229678869 0.866863847 0.009179313
v -0.210112646 0.8696701 0.07381619
v -0.1320049 0.8796009 0.161396682
v -0.06884583 1.082829 -0.182794034
v -0.06432161 1.65116906 0.0419439
v -0.1186072 1.52180743 0.178343162
v -0.129510984 1.28027964 0.04316777
v -0.150585175 1.49242616 -0.0280938819
v -0.1379251 1.52793765 -0.0540233031
v -0.141711026 1.53327465 -0.113502607
v -0.154049873 1.5568018 -0.002649065
v -0.1379251 1.52793765 -0.0540233031
v -0.150585175 1.49242616 -0.0280938819
v -0.0566353276 0.847337663 -0.160045564
v -0.327812135 1.429321 -0.115504965
v -0.344926149 1.36948037 -0.123591557
v -0.305606455 1.35794806 -0.06198454
v -0.3152611 1.363322 -0.171041816
v -0.1821563 1.37511349 -0.104366057
v -0.245905891 1.34203362 -0.0633724
v -0.216966823 1.32426548 -0.115456566
v -0.214813575 1.38506484 -0.05146293
v -0.216966823 1.32426548 -0.115456566
v -0.229086235 1.34368229 -0.165220842
v -0.190025017 1.38557673 -0.15219675
v -0.4500308 1.53499866 -0.103725784
v -0.4719147 1.45277429 -0.116102874
v -0.413008541 1.50059414 -0.108353384
v -0.395739168 1.47349763 -0.112139925
v -0.451936245 1.37350082 -0.127545446
v -0.372702271 1.44553232 -0.115985632
v -0.45190677 1.33251643 -0.133584172
v -0.4675423 1.337894 -0.132978439
v -0.405374467 1.3566258 -0.129476145
v -0.3530407 1.42375278 -0.118960135
v -0.324748546 1.38616514 -0.124160975
v -0.322030455 1.42278051 -0.118733235
v -0.35971868 1.38953209 -0.124082312
v -0.2615645 1.40583158 -0.0506619923
v -0.251615733 1.423095 -0.171095937
v -0.1821563 1.37511349 -0.104366057
v -0.103046507 1.2910285 -0.07286809
v -0.104929276 1.21363807 0.132144362
v -0.145652354 1.28672552 0.0460859165
v -0.181895182 1.23423624 0.021828834
v -0.08997171 1.263819 0.140446678
v -0.0492571928 1.19275141 0.147072345
v -0.0437985025 1.25492263 0.149621263
v -0.123188972 1.25128675 -0.109940566
v -0.08145486 1.25998712 0.121182963
v -0.09588567 1.27785277 -0.0609587356
v -0.129510984 1.28027964 0.04316777
v -0.188089579 0.7059078 -0.06784182
v -0.09931823 0.694701135 -0.0836914256
v -0.191120431 0.6671459 -0.0575351864
v -0.0376619324 0.6874675 -0.0256956071
v -0.0830116645 0.706986666 0.139887974
v -0.06443427 0.647042632 -0.0118854586
v -0.201239109 0.7168405 0.125527233
v -0.1918077 0.643151462 0.0962726
v -0.150113538 0.6820095 0.136910781
v -0.229117244 0.710159242 -0.000211972278
v -0.217180133 0.6553687 0.002437778
v -0.194708571 0.5128063 0.0861960351
v -0.115351774 0.6343299 0.119855747
v -0.1918077 0.643151462 0.0962726
v -0.130751327 0.505860031 0.105765872
v -0.191120431 0.6671459 -0.0575351864
v -0.2533562 0.522804558 -0.0200613
v -0.217180133 0.6553687 0.002437778
v -0.111351505 0.6618244 -0.07052476
v -0.06443427 0.647042632 -0.0118854586
v -0.106180452 0.5207367 -0.09713739
v -0.106180452 0.5207367 -0.09713739
v -0.201071575 0.537857831 -0.0911434
v -0.111351505 0.6618244 -0.07052476
v -0.0555408448 0.499665916 -0.0420785025
v -0.146611124 0.2900136 -0.0988732949
v -0.202757984 0.432768464 -0.108825646
v -0.117422558 0.431428581 -0.119302116
v -0.19620879 0.291409671 -0.09258064
v -0.196541831 0.3937213 0.0502787121
v -0.135041654 0.383037567 0.05546274
v -0.2479253 0.414004326 -0.0326012559
v -0.220539972 0.277143419 -0.0298804156
v -0.07203565 0.385893226 -0.0368510559
v -0.146611124 0.2900136 -0.0988732949
v -0.117422558 0.431428581 -0.119302116
v -0.117229976 0.275308549 -0.0284981355
v -0.19291918 0.283734649 0.0216471553
v -0.148050264 0.2809527 0.0215450563
v -0.191120431 0.6671459 -0.0575351864
v -0.09931823 0.694701135 -0.0836914256
v -0.111351505 0.6618244 -0.07052476
v -0.111351505 0.6618244 -0.07052476
v -0.0376619324 0.6874675 -0.0256956071
v -0.06443427 0.647042632 -0.0118854586
v -0.0376619324 0.6874675 -0.0256956071
v -0.111351505 0.6618244 -0.07052476
v -0.09931823 0.694701135 -0.0836914256
v -0.104291186 0.7001457 -0.0500884876
v -0.188089579 0.7059078 -0.06784182
v -0.172017813 0.703336537 -0.0377766155
v -0.188089579 0.7059078 -0.06784182
v -0.104291186 0.7001457 -0.0500884876
v -0.09931823 0.694701135 -0.0836914256
v -0.172017813 0.703336537 -0.0377766155
v -0.229117244 0.710159242 -0.000211972278
v -0.186490208 0.6984815 0.0109261256
v -0.229117244 0.710159242 -0.000211972278
v -0.172017813 0.703336537 -0.0377766155
v -0.188089579 0.7059078 -0.06784182
v -0.186490208 0.6984815 0.0109261256
v -0.201239109 0.7168405 0.125527233
v -0.182634547 0.6745559 0.109848171
v -0.201239109 0.7168405 0.125527233
v -0.186490208 0.6984815 0.0109261256
v -0.229117244 0.710159242 -0.000211972278
v -0.182634547 0.6745559 0.109848171
v -0.201239109 0.7168405 0.125527233
v -0.150113538 0.6820095 0.136910781
v -0.114280507 0.667558253 0.118087083
v -0.0376619324 0.6874675 -0.0256956071
v -0.07197451 0.6900611 -0.00572664663
v -0.0376619324 0.6874675 -0.0256956071
v -0.114280507 0.667558253 0.118087083
v -0.0830116645 0.706986666 0.139887974
v -0.07197451 0.6900611 -0.00572664663
v -0.09931823 0.694701135 -0.0836914256
v -0.104291186 0.7001457 -0.0500884876
v -0.09931823 0.694701135 -0.0836914256
v -0.07197451 0.6900611 -0.00572664663
v -0.0376619324 0.6874675 -0.0256956071
v -0.115351774 0.6343299 0.119855747
v -0.114280507 0.667558253 0.118087083
v -0.150113538 0.6820095 0.136910781
v -0.0830116645 0.706986666 0.139887974
v -0.150113538 0.6820095 0.136910781
v -0.114280507 0.667558253 0.118087083
v -0.182634547 0.6745559 0.109848171
v -0.2307061 1.50439453 -0.0377264656
v -0.266926438 1.57248974 -0.07151362
v -0.269095153 1.51310611 -0.08641592
v -0.22267276 1.57147169 -0.008479496
v -0.1604388 1.49024868 -0.128104523
v -0.1379251 1.52793765 -0.0540233031
v -0.159684062 1.4859159 -0.07946324
v -0.141711026 1.53327465 -0.113502607
v -0.1921786 1.50056863 -0.0363378562
v -0.154049873 1.5568018 -0.002649065
v -0.1379251 1.52793765 -0.0540233031
v -0.159684062 1.4859159 -0.07946324
v -0.224531949 1.57935357 -0.121305875
v -0.23991476 1.616241 -0.0692935959
v -0.1615732 1.63490129 -0.112611786
v -0.2248224 1.51686859 -0.128578261
v -0.176931351 1.63960433 -0.011196794
v -0.134960815 1.59280372 -0.142103016
v -0.142047435 1.608901 0.0177346412
v -0.183968857 1.65174222 -0.06444389
v -0.287956864 1.44061852 -0.109026916
v -0.261316061 1.4353261 -0.152589947
v -0.191197336 1.40742564 -0.106379479
v -0.2572245 1.35263968 -0.06852041
v -0.230904967 1.33444285 -0.121322006
v -0.224229619 1.41255188 -0.0527590252
v -0.282165945 1.36057782 -0.15610297
v -0.310545 1.36855912 -0.12043754
v -0.269230872 1.42710733 -0.05998788
v -0.287558824 1.36329222 -0.0825241655
v -0.2436553 1.35665035 -0.161254361
v -0.211918712 1.40176415 -0.147458136
v -0.191197336 1.40742564 -0.106379479
v -0.230904967 1.33444285 -0.121322006
v -0.308137536 1.30372715 -0.1580746
v -0.401966363 1.17108679 -0.09416836
v -0.327676564 1.33640218 -0.115378641
v -0.3636692 1.16166282 -0.136124045
v -0.267997831 1.27829 -0.1593627
v -0.328374654 1.1398468 -0.13867557
v -0.2997367 1.33473945 -0.07431355
v -0.376287669 1.17851973 -0.0525327064
v -0.248784572 1.29205418 -0.113742627
v -0.301887244 1.1235764 -0.09017117
v -0.339243472 1.16316533 -0.0400497243
v -0.26830256 1.32307386 -0.06625125
v -0.301887244 1.1235764 -0.09017117
v -0.248784572 1.29205418 -0.113742627
v -0.295324564 1.33238173 -0.158960044
v -0.2580811 1.31266475 -0.162400618
v -0.118273295 1.65690637 -0.114442304
v -0.133112863 1.65378428 -0.0129990373
v -0.11857757 1.6750164 -0.0628626645
v -0.186490208 0.6984815 0.0109261256
v -0.143861547 1.01926482 -0.08381565
v -0.172017813 0.703336537 -0.0377766155
v -0.177281484 1.05922651 -0.014758544
v -0.168280289 0.738876 0.105247386
v -0.125586584 1.0768733 0.07272916
v -0.07235733 1.011544 -0.09771362
v -0.07197451 0.6900611 -0.00572664663
v -0.104291186 0.7001457 -0.0500884876
v -0.102943093 0.7300137 0.103234619
v -0.06319616 1.0617609 0.0691307038
v -0.07197451 0.6900611 -0.00572664663
v -0.182634547 0.6745559 0.109848171
v -0.114280507 0.667558253 0.118087083
v -0.07235733 1.011544 -0.09771362
v -0.06672522 1.0737865 -0.142662421
v -0.125586584 1.0768733 0.07272916
v -0.177680239 1.16689777 0.0146500794
v -0.177281484 1.05922651 -0.014758544
v -0.103327885 1.15505219 0.09164174
v -0.0534379035 1.18739581 -0.141744
v -0.06319616 1.0617609 0.0691307038
v -0.177281484 1.05922651 -0.014758544
v -0.132585377 1.17693329 -0.0998356342
v -0.150963962 1.06071615 -0.105998032
v -0.143861547 1.01926482 -0.08381565
v -0.0572264828 1.79323387 -0.0279291663
v -0.0489372946 1.74432588 -0.0363420732
v -0.04876878 1.73648119 -0.104638107
v -0.062026225 1.81961632 -0.08165752
v -0.364721268 1.47892666 -0.110969663
v -0.405114055 1.58445859 -0.0959015638
v -0.0510577746 1.67541814 -0.08797942
v -0.08166428 1.71333194 -0.09455548
v -0.07131262 1.68631148 -0.0282399841
v -0.112142824 1.70854783 -0.0130946171
v -0.120908745 1.65019822 0.10505046
v -0.06432161 1.65116906 0.0419439
v -0.06897378 1.61432624 0.09979165
v -0.163201958 1.684094 -0.025356276
v -0.08503838 1.668798 -0.120585307
v -0.143338665 1.67633557 0.02538878
v -0.167766437 1.63147783 -0.1237897
v -0.0805845857 1.61439443 -0.156893522
v -0.235864922 1.72188616 0.048803322
v -0.2995815 1.75707674 -0.007176332
v -0.179628178 1.70270371 0.09001278
v -0.329541057 1.67234468 -0.0574177466
v -0.178009361 1.49890828 -0.151793391
v -0.0579963475 1.47389388 -0.208624825
v -0.2670904 1.58690667 -0.127012163
v -0.201519385 1.13258052 -0.113516942
v -0.08572576 1.2495234 -0.109057471
v -0.116805941 1.103791 -0.197356522
v -0.153239638 1.25745368 -0.08929284
v -0.2414602 0.9756629 -0.131230459
v -0.141075179 0.9548797 -0.228294283
v -0.283533961 0.7954926 -0.137048468
v -0.157189235 0.7653583 -0.249421433
v -0.33733514 0.5835727 -0.158682421
v -0.1746938 0.5287596 -0.271731973
v -0.127431348 1.41480279 0.00722485129
v -0.132963225 1.4145236 0.0884762257
vt 0.0810019746 0.8441917
vt 0.18359375 0.859375
vt 0.08436237 0.9368094
vt 0.161362976 0.954636
vt 0.00799307 0.09512013
vt 0.01345372 0.00577306747
vt 0.09485145 0.006542325
vt 0.07735261 0.0937539339
vt 0.0075183576 0.261177421
vt 0.0828743 0.190916777
vt 0.07421875 0.24844563
vt 0.009358233 0.215145409
vt 0.07812479 0.148552358
vt 0.13671875 0.45703125
vt 0.07743758 0.444326043
vt 0.13671875 0.4375
vt 0.891278148 0.366732419
vt 0.907974541 0.347791553
vt 0.9364295 0.363278568
vt 0.825703859 0.354832172
vt 0.8710615 0.4021623
vt 0.7726293 0.388190866
vt 0.7726293 0.354832172
vt 0.7726293 0.311919272
vt 0.898473561 0.303074121
vt 0.9882717 0.227018118
vt 0.9882717 0.308344364
vt 0.922170162 0.154599011
vt 0.1640625 0.2265625
vt 0.208322763 0.3111953
vt 0.14453125 0.3203125
vt 0.9882717 0.354990959
vt 0.140625 0.234375
vt 0.9075517 0.3805815
vt 0.8436095 0.25259304
vt 0.8283575 0.20373112
vt 0.2109375 0.21484375
vt 0.15625 0.3984375
vt 0.1628089 0.165696621
vt 0.11328125 0.19140625
vt 0.921457 0.0758717656
vt 0.986927569 0.1538527
vt 0.9882717 0.07672179
vt 0.2734375 0.86328125
vt 0.372591048 0.9464179
vt 0.25390625 0.94921875
vt 0.3828125 0.8671875
vt 0.4204346 0.8674083
vt 0.469233 0.9458433
vt 0.867804468 0.434903264
vt 0.9222578 0.448393881
vt 0.9298483 0.4021623
vt 0.162801564 0.1656838
vt 0.123446763 0.127261877
vt 0.204266831 0.09084326
vt 0.839316 0.129987657
vt 0.838339865 0.0879358053
vt 0.8370457 0.0021904707
vt 0.9192922 0.00190258026
vt 0.9882717 0.0002696514
vt 0.9774647 0.4527254
vt 0.9774647 0.4021623
vt 0.8633082 0.455727935
vt 0.7726293 0.4278794
vt 0.7726293 0.44633007
vt 0.9170116 0.464391232
vt 0.0741321445 0.330034852
vt 0.00524024 0.322529554
vt 0.196818888 0.777281
vt 0.2890625 0.7734375
vt 0.1953125 0.77734375
vt 0.09375 0.546875
vt 0.0859375 0.765625
vt 0.1953125 0.7759865
vt 0.153941125 0.546875
vt 0.1953125 0.546875
vt 0.38671875 0.77734375
vt 0.38671875 0.546875
vt 0.2890625 0.546875
vt 0.250087023 0.546875
vt 0.196818888 0.775945544
vt 0.426564246 0.789167643
vt 0.469233 0.799625039
vt 0.469233 0.8800681
vt 0.076572746 0.399025977
vt 0.9774647 0.4656006
vt 0.10410358 0.2397613
vt 0.211681768 0.005381286
vt 0.8283575 0.20373112
vt 0.8436095 0.25259304
vt 0.823687732 0.23478514
vt 0.208322763 0.3111953
vt 0.2109375 0.21484375
vt 0.233449668 0.2764939
vt 0.43359375 0.546875
vt 0.46875 0.546875
vt 0.376900822 0.20511806
vt 0.371528119 0.1187278
vt 0.4194772 0.1432215
vt 0.467374921 0.183986187
vt 0.272392869 0.128196716
vt 0.313686877 0.0778542757
vt 0.3427977 0.101175189
vt 0.3078368 0.159993
vt 0.530604064 0.207013965
vt 0.463515759 0.242233336
vt 0.499148875 0.199532509
vt 0.69921875 0.71484375
vt 0.64453125 0.70703125
vt 0.670830965 0.635332942
vt 0.62109375 0.69921875
vt 0.5859375 0.6796875
vt 0.62109375 0.57421875
vt 0.59375 0.546875
vt 0.62109375 0.54296875
vt 0.5694381 0.5895645
vt 0.5625 0.671875
vt 0.534985 0.684603453
vt 0.519017756 0.6533655
vt 0.546875 0.63671875
vt 0.336861134 0.1802001
vt 0.432506561 0.229308963
vt 0.504163146 0.258425474
vt 0.395900279 0.9778774
vt 0.470071673 0.9778774
vt 0.470071673 0.992048
vt 0.100586049 0.918997
vt 0.24826698 0.91899693
vt 0.246533588 0.9778774
vt 0.09934975 0.974894762
vt 0.0557341874 0.9179988
vt 0.0540007651 0.975391865
vt 0.00884494 0.978247344
vt 0.0108823152 0.8991049
vt 0.397633672 0.918997
vt 0.471805066 0.918997
vt 0.09885265 0.992048
vt 0.009646013 0.998510361
vt 0.395900279 0.992048
vt 0.2465336 0.992048
vt 0.0369294919 0.840477467
vt 0.06354568 0.8404775
vt 0.03692933 0.87985605
vt 0.0369303338 0.6085494
vt 0.063546136 0.6085495
vt 0.0369300544 0.681214154
vt 0.0369298533 0.7337311
vt 0.0368880071 0.707556963
vt 0.06354588 0.7337312
vt 0.0369296521 0.79806906
vt 0.06354577 0.7980691
vt 0.64453125 0.90234375
vt 0.64453125 0.98828125
vt 0.5957623 0.987011135
vt 0.60546875 0.8984375
vt 0.7132286 0.9863278
vt 0.6738334 0.9872919
vt 0.692693233 0.905314
vt 0.5098861 0.9864935
vt 0.5099031 0.889592767
vt 0.5418027 0.9865934
vt 0.7643357 0.889494658
vt 0.7637661 0.986216068
vt 0.72265625 0.921875
vt 0.54296875 0.890625
vt 0.7664863 0.7758118
vt 0.7656319 0.829687
vt 0.72265625 0.84375
vt 0.73046875 0.78125
vt 0.61328125 0.83984375
vt 0.653091 0.83984375
vt 0.6929008 0.8515625
vt 0.6893612 0.7827326
vt 0.5546875 0.82421875
vt 0.5100524 0.829901934
vt 0.5091434 0.7758699
vt 0.576865852 0.777745247
vt 0.6618393 0.7842462
vt 0.6280609 0.7847267
vt 0.06354568 0.8404775
vt 0.0635456 0.879856169
vt 0.03692933 0.87985605
vt 0.0635462 0.5758783
vt 0.063546136 0.6085495
vt 0.0369303338 0.6085494
vt 0.0369303338 0.6085494
vt 0.0369304568 0.5758782
vt 0.0635462 0.5758783
vt 0.0287706051 0.878851235
vt 0.0287704635 0.840476751
vt 0.011573242 0.8404768
vt 0.011573242 0.8404768
vt 0.0115734022 0.878851354
vt 0.0287706051 0.878851235
vt 0.0287704635 0.840476751
vt 0.0287703257 0.7980403
vt 0.0115730818 0.79804033
vt 0.0115730818 0.79804033
vt 0.011573242 0.8404768
vt 0.0287704635 0.840476751
vt 0.0287703257 0.7980403
vt 0.0289565567 0.733575344
vt 0.0115728807 0.733575463
vt 0.0115728807 0.733575463
vt 0.0115730818 0.79804033
vt 0.0287703257 0.7980403
vt 0.0287700836 0.733575344
vt 0.0115727615 0.7076314
vt 0.0115728807 0.733575463
vt 0.028769901 0.68153584
vt 0.02876964 0.6085895
vt 0.0115724 0.60858953
vt 0.0115724 0.60858953
vt 0.0115726814 0.6815359
vt 0.028769901 0.68153584
vt 0.02876964 0.6085895
vt 0.028769521 0.5759919
vt 0.011572279 0.575992
vt 0.011572279 0.575992
vt 0.0115724 0.60858953
vt 0.02876964 0.6085895
vt 0.06354599 0.6812142
vt 0.028769901 0.68153584
vt 0.0115726814 0.6815359
vt 0.0115727615 0.7076314
vt 0.0115727615 0.7076314
vt 0.0287700836 0.733575344
vt 0.028769901 0.68153584
vt 0.430570126 0.301829636
vt 0.424483031 0.326609731
vt 0.4457185 0.327604473
vt 0.457398355 0.296020329
vt 0.4299224 0.37504828
vt 0.430520564 0.394942164
vt 0.44762972 0.400640965
vt 0.454601049 0.38144803
vt 0.431897044 0.282117844
vt 0.459480643 0.2707963
vt 0.443359822 0.263681769
vt 0.4231733 0.264090776
vt 0.461598545 0.347642779
vt 0.498386323 0.345586121
vt 0.468697041 0.324763954
vt 0.429610729 0.348814249
vt 0.490803182 0.298303366
vt 0.483468771 0.370579362
vt 0.480210483 0.284473538
vt 0.49844566 0.319105625
vt 0.392418385 0.3293594
vt 0.3906875 0.348044157
vt 0.386590868 0.2695529
vt 0.3556906 0.275673866
vt 0.357805222 0.293590665
vt 0.390665621 0.287664771
vt 0.3578508 0.348623633
vt 0.357655346 0.329612374
vt 0.357836336 0.310588241
vt 0.392353743 0.305515766
vt 0.357818156 0.365670919
vt 0.389991462 0.366785049
vt 0.355219126 0.384953678
vt 0.394058824 0.388090551
vt 0.334247053 0.349356055
vt 0.3390142 0.33055985
vt 0.260387331 0.3328017
vt 0.260427147 0.3494395
vt 0.33230415 0.367812634
vt 0.2603833 0.366719127
vt 0.339531541 0.3098688
vt 0.260469079 0.315447927
vt 0.3335917 0.3870535
vt 0.260283232 0.3862083
vt 0.2604479 0.295964241
vt 0.339332849 0.2946326
vt 0.33408314 0.276234746
vt 0.260298252 0.27687943
vt 0.346033126 0.3489964
vt 0.3450515 0.366742849
vt 0.498386323 0.345586121
vt 0.490803182 0.298303366
vt 0.49844566 0.319105625
vt 0.65236634 0.41276145
vt 0.667755067 0.4164092
vt 0.670454741 0.518474638
vt 0.647604 0.518425
vt 0.628357947 0.425680161
vt 0.6171287 0.5185217
vt 0.696106136 0.5187212
vt 0.6865669 0.4169222
vt 0.6999666 0.412124634
vt 0.7329451 0.5185261
vt 0.6085116 0.425029278
vt 0.590038359 0.5182937
vt 0.584841669 0.4147613
vt 0.559514463 0.518566847
vt 0.629324436 0.4126895
vt 0.6115811 0.412852347
vt 0.238755271 0.418931663
vt 0.191936746 0.422386646
vt 0.1917876 0.4532826
vt 0.237962946 0.450461626
vt 0.388381124 0.485082269
vt 0.339482248 0.4926058
vt 0.340203971 0.5322299
vt 0.391670853 0.51962477
vt 0.172434434 0.509365857
vt 0.229484886 0.507706046
vt 0.429597527 0.475723743
vt 0.453113168 0.515738666
vt 0.339573443 0.492520571
vt 0.2805341 0.4474156
vt 0.27596733 0.5060715
vt 0.282958448 0.422964454
vt 0.453085244 0.471184134
vt 0.453118235 0.4330747
vt 0.3995365 0.450929284
vt 0.422104627 0.446747184
vt 0.416450232 0.442000628
vt 0.397734672 0.4420097
vt 0.38052386 0.442003
vt 0.362849027 0.442004144
vt 0.357524127 0.4559433
vt 0.378749222 0.455841064
vt 0.6015625 0.71484375
vt 0.682231843 0.775741935
vt 0.5635462 0.211500347
vt 0.5487193 0.19824183
vt 0.6074741 0.182785332
vt 0.6218968 0.126680255
vt 0.6585683 0.192555666
vt 0.6556468 0.126718938
vt 0.648140252 0.0589686632
vt 0.602561653 0.0778844953
vt 0.6164946 0.0283133984
vt 0.7133366 0.173580527
vt 0.634173632 0.238261819
vt 0.5624109 0.2480815
vt 0.6911117 0.09782106
vt 0.5597127 0.0107253194
vt 0.6956186 0.257610977
vt 0.617045 0.298375249
vt 0.549729347 0.290265977
vt 0.740685463 0.0550337434
vt 0.789008856 0.127311468
vt 0.691396236 0.031270802
vt 0.7766539 0.21656549
vt 0.6943021 0.3864786
vt 0.58916223 0.382526159
vt 0.5390096 0.376609266
vt 0.7662914 0.283998
vt 0.8251705 0.8944473
vt 0.9026016 0.872022748
vt 0.9150051 0.9730412
vt 0.85126096 0.9923923
vt 0.97646457 0.872022748
vt 0.97646457 0.9730412
vt 0.7946685 0.8011571
vt 0.885292768 0.777357459
vt 0.97646457 0.777357459
vt 0.759039 0.6850244
vt 0.8690461 0.6640421
vt 0.97646457 0.6640421
vt 0.7109375 0.5546875
vt 0.843077838 0.5243641
vt 0.984375 0.515625
vt 0.1628258 0.165676653
vt 0.201568142 0.156042159
vt 0.18359375 0.859375
vt 0.161362976 0.954636
vt 0.09485145 0.006542325
vt 0.07735261 0.0937539339
vt 0.07421875 0.24844563
vt 0.0828743 0.190916777
vt 0.07812479 0.148552358
vt 0.13671875 0.45703125
vt 0.13671875 0.4375
vt 0.07743758 0.444326043
vt 0.891278148 0.366732419
vt 0.9364295 0.363278568
vt 0.907974541 0.347791553
vt 0.825703859 0.354832172
vt 0.8710615 0.4021623
vt 0.898473561 0.303074121
vt 0.922170162 0.154599011
vt 0.1640625 0.2265625
vt 0.14453125 0.3203125
vt 0.208322763 0.3111953
vt 0.140625 0.234375
vt 0.9075517 0.3805815
vt 0.8283575 0.20373112
vt 0.8436095 0.25259304
vt 0.2109375 0.21484375
vt 0.15625 0.3984375
vt 0.1628089 0.165696621
vt 0.11328125 0.19140625
vt 0.921457 0.0758717656
vt 0.2734375 0.86328125
vt 0.25390625 0.94921875
vt 0.372591048 0.9464179
vt 0.3828125 0.8671875
vt 0.4204346 0.8674083
vt 0.867804468 0.434903264
vt 0.9222578 0.448393881
vt 0.9298483 0.4021623
vt 0.162801564 0.1656838
vt 0.204266831 0.09084326
vt 0.123446763 0.127261877
vt 0.838339865 0.0879358053
vt 0.839316 0.129987657
vt 0.8370457 0.0021904707
vt 0.9192922 0.00190258026
vt 0.8633082 0.455727935
vt 0.9170116 0.464391232
vt 0.0741321445 0.330034852
vt 0.1953125 0.77734375
vt 0.2890625 0.7734375
vt 0.147452191 0.546875
vt 0.38671875 0.77734375
vt 0.38671875 0.546875
vt 0.2890625 0.546875
vt 0.2448701 0.546875
vt 0.1953125 0.546875
vt 0.426564246 0.789167643
vt 0.076572746 0.399025977
vt 0.10410358 0.2397613
vt 0.211681768 0.005381286
vt 0.8283575 0.20373112
vt 0.823687732 0.23478514
vt 0.8436095 0.25259304
vt 0.208322763 0.3111953
vt 0.233449668 0.2764939
vt 0.2109375 0.21484375
vt 0.43359375 0.546875
vt 0.376900822 0.20511806
vt 0.4194772 0.1432215
vt 0.371528119 0.1187278
vt 0.467374921 0.183986187
vt 0.272392869 0.128196716
vt 0.3427977 0.101175189
vt 0.313686877 0.0778542757
vt 0.3078368 0.159993
vt 0.530604064 0.207013965
vt 0.499148875 0.199532509
vt 0.463515759 0.242233336
vt 0.69921875 0.71484375
vt 0.670830965 0.635332942
vt 0.64453125 0.70703125
vt 0.62109375 0.69921875
vt 0.62109375 0.57421875
vt 0.5859375 0.6796875
vt 0.59375 0.546875
vt 0.62109375 0.54296875
vt 0.5694381 0.5895645
vt 0.5625 0.671875
vt 0.519017756 0.6533655
vt 0.534985 0.684603453
vt 0.546875 0.63671875
vt 0.336861134 0.1802001
vt 0.432506561 0.229308963
vt 0.504163146 0.258425474
vt 0.395900279 0.9778774
vt 0.100586049 0.918997
vt 0.246533588 0.9778774
vt 0.24826698 0.91899693
vt 0.09934975 0.974894762
vt 0.0557341874 0.9179988
vt 0.0540007651 0.975391865
vt 0.397633672 0.918997
vt 0.09885265 0.992048
vt 0.395900279 0.992048
vt 0.2465336 0.992048
vt 0.0369294919 0.840477467
vt 0.03692933 0.87985605
vt 0.06354568 0.8404775
vt 0.0369303338 0.6085494
vt 0.0369300544 0.681214154
vt 0.063546136 0.6085495
vt 0.0369298533 0.7337311
vt 0.06354588 0.7337312
vt 0.0368880071 0.707556963
vt 0.0369296521 0.79806906
vt 0.06354577 0.7980691
vt 0.64453125 0.90234375
vt 0.5957623 0.987011135
vt 0.64453125 0.98828125
vt 0.60546875 0.8984375
vt 0.7132286 0.9863278
vt 0.692693233 0.905314
vt 0.6738334 0.9872919
vt 0.5098861 0.9864935
vt 0.5418027 0.9865934
vt 0.5099031 0.889592767
vt 0.7643357 0.889494658
vt 0.72265625 0.921875
vt 0.7637661 0.986216068
vt 0.54296875 0.890625
vt 0.7664863 0.7758118
vt 0.72265625 0.84375
vt 0.7656319 0.829687
vt 0.73046875 0.78125
vt 0.653091 0.83984375
vt 0.61328125 0.83984375
vt 0.6929008 0.8515625
vt 0.6893612 0.7827326
vt 0.5546875 0.82421875
vt 0.5091434 0.7758699
vt 0.5100524 0.829901934
vt 0.576865852 0.777745247
vt 0.6618393 0.7842462
vt 0.6280609 0.7847267
vt 0.06354568 0.8404775
vt 0.03692933 0.87985605
vt 0.0635456 0.879856169
vt 0.0635462 0.5758783
vt 0.0369303338 0.6085494
vt 0.063546136 0.6085495
vt 0.0369303338 0.6085494
vt 0.0635462 0.5758783
vt 0.0369304568 0.5758782
vt 0.0287706051 0.878851235
vt 0.011573242 0.8404768
vt 0.0287704635 0.840476751
vt 0.011573242 0.8404768
vt 0.0287706051 0.878851235
vt 0.0115734022 0.878851354
vt 0.0287704635 0.840476751
vt 0.0115730818 0.79804033
vt 0.0287703257 0.7980403
vt 0.0115730818 0.79804033
vt 0.0287704635 0.840476751
vt 0.011573242 0.8404768
vt 0.0287703257 0.7980403
vt 0.0115728807 0.733575463
vt 0.0289565567 0.733575344
vt 0.0115728807 0.733575463
vt 0.0287703257 0.7980403
vt 0.0115730818 0.79804033
vt 0.0287700836 0.733575344
vt 0.0115728807 0.733575463
vt 0.0115727615 0.7076314
vt 0.028769901 0.68153584
vt 0.0115724 0.60858953
vt 0.02876964 0.6085895
vt 0.0115724 0.60858953
vt 0.028769901 0.68153584
vt 0.0115726814 0.6815359
vt 0.02876964 0.6085895
vt 0.011572279 0.575992
vt 0.028769521 0.5759919
vt 0.011572279 0.575992
vt 0.02876964 0.6085895
vt 0.0115724 0.60858953
vt 0.06354599 0.6812142
vt 0.028769901 0.68153584
vt 0.0115727615 0.7076314
vt 0.0115726814 0.6815359
vt 0.0115727615 0.7076314
vt 0.028769901 0.68153584
vt 0.0287700836 0.733575344
vt 0.430570126 0.301829636
vt 0.4457185 0.327604473
vt 0.424483031 0.326609731
vt 0.457398355 0.296020329
vt 0.4299224 0.37504828
vt 0.44762972 0.400640965
vt 0.430520564 0.394942164
vt 0.454601049 0.38144803
vt 0.431897044 0.282117844
vt 0.459480643 0.2707963
vt 0.443359822 0.263681769
vt 0.4231733 0.264090776
vt 0.461598545 0.347642779
vt 0.468697041 0.324763954
vt 0.498386323 0.345586121
vt 0.429610729 0.348814249
vt 0.490803182 0.298303366
vt 0.483468771 0.370579362
vt 0.480210483 0.284473538
vt 0.49844566 0.319105625
vt 0.392418385 0.3293594
vt 0.3906875 0.348044157
vt 0.386590868 0.2695529
vt 0.357805222 0.293590665
vt 0.3556906 0.275673866
vt 0.390665621 0.287664771
vt 0.3578508 0.348623633
vt 0.357655346 0.329612374
vt 0.392353743 0.305515766
vt 0.357836336 0.310588241
vt 0.357818156 0.365670919
vt 0.389991462 0.366785049
vt 0.394058824 0.388090551
vt 0.355219126 0.384953678
vt 0.334247053 0.349356055
vt 0.260387331 0.3328017
vt 0.3390142 0.33055985
vt 0.260427147 0.3494395
vt 0.33230415 0.367812634
vt 0.2603833 0.366719127
vt 0.339531541 0.3098688
vt 0.260469079 0.315447927
vt 0.3335917 0.3870535
vt 0.260283232 0.3862083
vt 0.2604479 0.295964241
vt 0.339332849 0.2946326
vt 0.260298252 0.27687943
vt 0.33408314 0.276234746
vt 0.346033126 0.3489964
vt 0.3450515 0.366742849
vt 0.498386323 0.345586121
vt 0.490803182 0.298303366
vt 0.49844566 0.319105625
vt 0.65236634 0.41276145
vt 0.670454741 0.518474638
vt 0.667755067 0.4164092
vt 0.647604 0.518425
vt 0.628357947 0.425680161
vt 0.6171287 0.5185217
vt 0.696106136 0.5187212
vt 0.6999666 0.412124634
vt 0.6865669 0.4169222
vt 0.6085116 0.425029278
vt 0.590038359 0.5182937
vt 0.584841669 0.4147613
vt 0.629324436 0.4126895
vt 0.6115811 0.412852347
vt 0.238755271 0.418931663
vt 0.237962946 0.450461626
vt 0.388381124 0.485082269
vt 0.340203971 0.5322299
vt 0.339482248 0.4926058
vt 0.391670853 0.51962477
vt 0.229484886 0.507706046
vt 0.429597527 0.475723743
vt 0.339573443 0.492520571
vt 0.27596733 0.5060715
vt 0.2805341 0.4474156
vt 0.282958448 0.422964454
vt 0.3995365 0.450929284
vt 0.397734672 0.4420097
vt 0.38052386 0.442003
vt 0.378749222 0.455841064
vt 0.6015625 0.71484375
vt 0.682231843 0.775741935
vt 0.6074741 0.182785332
vt 0.6585683 0.192555666
vt 0.6218968 0.126680255
vt 0.6556468 0.126718938
vt 0.648140252 0.0589686632
vt 0.602561653 0.0778844953
vt 0.6164946 0.0283133984
vt 0.7133366 0.173580527
vt 0.634173632 0.238261819
vt 0.6911117 0.09782106
vt 0.6956186 0.257610977
vt 0.617045 0.298375249
vt 0.740685463 0.0550337434
vt 0.789008856 0.127311468
vt 0.691396236 0.031270802
vt 0.7766539 0.21656549
vt 0.6943021 0.3864786
vt 0.58916223 0.382526159
vt 0.7662914 0.283998
vt 0.8251705 0.8944473
vt 0.9150051 0.9730412
vt 0.9026016 0.872022748
vt 0.85126096 0.9923923
vt 0.7946685 0.8011571
vt 0.885292768 0.777357459
vt 0.759039 0.6850244
vt 0.8690461 0.6640421
vt 0.7109375 0.5546875
vt 0.843077838 0.5243641
vt 0.201568142 0.156042159
vt 0.1628258 0.165676653
vn 0.008344951 0.116819642 0.9931181
vn 0.543301642 0.181110457 0.8197697
vn 0.008977301 0.434570342 0.900593162
vn 0.330788881 0.6101423 0.7199341
vn 0.008177226 -0.160767272 0.986958444
vn 0.008977301 0.434570342 0.900593162
vn 0.330788881 0.6101423 0.7199341
vn 0.6233731 -0.130436078 0.7709685
vn 0.009557951 0.362270981 0.9320238
vn 0.08314744 -0.3763736 0.9227293
vn -0.01553109 0.4308965 0.9022677
vn 0.008724304 -0.0335828327 0.9993979
vn 0.311486 -0.4346788 0.8450034
vn 0.3211555 0.9464737 -0.0323525071
vn 0.253513515 0.87150985 0.419763565
vn 0.3733374 0.7899561 0.4864037
vn 0.3211555 0.9464737 -0.0323525071
vn 0.2920009 0.7071908 -0.6439073
vn 0.5336275 0.255843818 -0.8060928
vn 0.0738338 0.7993659 0.5962909
vn 0.253513515 0.87150985 0.419763565
vn 0.00930962153 0.541027367 0.840953469
vn 0.008755025 0.6236961 0.781617939
vn 0.00777826365 0.726739049 0.6868696
vn 0.163456157 0.134240165 -0.9773749
vn -0.00929618347 -0.163284287 -0.986535251
vn -0.00848147 0.1376178 -0.9904491
vn 0.4543508 -0.43500194 -0.7773922
vn 0.994765937 0.0127691254 0.1013787
vn 0.6493185 -0.291185 0.7025644
vn 0.789537 0.4797178 0.382755965
vn -0.0100651542 0.0199322272 -0.9997507
vn 0.949383855 -0.00648601726 0.3140514
vn 0.253513515 0.87150985 0.419763565
vn -0.526812 -0.5817909 -0.619668
vn 0.9070891 -0.3366862 -0.252649516
vn 0.9070891 -0.3366862 -0.252649516
vn 0.568729341 0.379657537 0.7296623
vn 0.906254768 -0.3523994 0.233488664
vn 0.7125873 -0.4185794 0.563037
vn 0.586937249 -0.185753554 -0.7880357
vn -0.009461334 -0.392894357 -0.9195349
vn -0.009470991 -0.220619828 -0.9753139
vn 0.931682467 0.336431354 0.137046412
vn 0.289322555 0.901863933 -0.320833176
vn 0.598193169 0.7840034 0.165842146
vn 0.6405927 0.413136065 -0.647270858
vn 0.107359119 0.4620454 -0.8803341
vn -0.00168438861 0.852123857 -0.5233374
vn 0.771847 0.5094622 0.380395174
vn 0.773375332 0.495104283 -0.395932227
vn 0.5336275 0.255843818 -0.8060928
vn 0.906254768 -0.3523994 0.233488664
vn 0.7801318 -0.274508119 0.562174
vn 0.97965163 -0.134702116 -0.148788467
vn 0.917350054 -0.273986459 -0.288791031
vn 0.97965163 -0.134702116 -0.148788467
vn 0.598193169 0.7840034 0.165842146
vn 0.289322555 0.901863933 -0.320833176
vn -0.00168438861 0.852123857 -0.5233374
vn -0.007672548 0.3302393 -0.9438661
vn -0.0100651542 0.0199322272 -0.9997507
vn 0.691261 0.561312 0.4550682
vn 0.009143619 0.608098 0.793809354
vn 0.009310541 0.6852922 0.7282087
vn 0.55004245 0.7483543 -0.370700866
vn 0.282055259 0.739013553 0.6118037
vn 0.00777826365 0.726739049 0.6868696
vn 0.5549329 0.228119358 0.8000069
vn 0.989531 0.13870199 -0.0398769639
vn 0.5549329 0.228119358 0.8000069
vn 0.0179939065 0.236555055 0.971451461
vn 0.0224706754 0.240008548 0.970510662
vn 0.5549329 0.228119358 0.8000069
vn 0.35394603 0.185485676 0.9166882
vn 0.6219301 0.136214271 0.7711346
vn 0.68029654 0.05594352 -0.730798841
vn 0.636958361 -0.09157016 -0.765440345
vn 0.979722857 0.009495792 -0.2001322
vn 0.890408039 0.105043069 0.4428764
vn 0.5549329 0.228119358 0.8000069
vn 0.169484869 0.104281552 -0.980000138
vn -0.009810206 0.07713055 -0.99697274
vn -0.00681863353 0.434939981 -0.9004336
vn 0.0738338 0.7993659 0.5962909
vn -0.00499388855 0.591500759 -0.806288958
vn 0.57806015 0.4337257 0.691179037
vn 0.598193169 0.7840034 0.165842146
vn 0.9536145 0.2930147 0.06900599
vn 0.9536145 0.2930147 0.06900599
vn 0.9536145 0.2930147 0.06900599
vn 0.95195657 0.0652582347 -0.299199045
vn 0.95195657 0.0652582347 -0.299199045
vn 0.95195657 0.0652582347 -0.299199045
vn 0.153705642 -0.101707608 -0.9828683
vn 0.09420608 -0.104604684 -0.990042
vn 0.9148604 0.3946098 -0.08551879
vn 0.555308 0.071410276 0.8285732
vn 0.9720564 0.214171022 -0.09611025
vn 0.386170864 0.2760554 -0.8801508
vn -0.7722655 -0.595087469 0.222434044
vn -0.772597849 -0.616140842 0.153176233
vn -0.258260548 -0.4522826 0.853663862
vn -0.253339469 -0.476815552 0.841704249
vn -0.772597849 -0.616140842 0.153176233
vn -0.7032365 -0.332813919 -0.628246248
vn -0.5216029 -0.25749284 -0.8134051
vn 0.07710158 -0.159885168 0.984119952
vn 0.07710153 -0.159885153 0.984119952
vn 0.07710152 -0.159885034 0.984119952
vn 0.0771015659 -0.159884974 0.98412
vn 0.0771016255 -0.1598849 0.98412
vn 0.0771015137 -0.159885 0.98412
vn 0.0771016255 -0.159884974 0.984119952
vn 0.0771018341 -0.159884989 0.984119952
vn 0.07710156 -0.159885034 0.984119952
vn 0.0612829179 -0.146368489 0.9873301
vn 0.00572552765 -0.09856871 0.9951138
vn 0.0444286764 -0.1319213 0.990264058
vn 0.0771018 -0.159884766 0.98412
vn 0.344376564 -0.0463204049 0.937688231
vn 0.02186882 0.186324984 -0.98224473
vn -0.7722655 -0.595087469 0.222434044
vn 0.139470637 0.97964704 -0.144359484
vn 0.0009630751 0.9633706 -0.2681719
vn -0.00168438861 0.852123857 -0.5233374
vn 0.5945298 0.08243314 0.799836934
vn 0.841447651 0.534013867 0.082431905
vn 0.441387981 0.868083954 0.22717163
vn 0.287306339 0.6809513 0.6736174
vn 0.234177783 -0.02303096 0.971920967
vn 0.0301490687 0.773912668 0.63257426
vn 0.0064229765 0.9253246 0.379121482
vn 0.00886170752 -0.03246232 0.9994337
vn 0.404225171 0.7164232 -0.5686298
vn -0.00454743765 0.6491825 -0.7606191
vn 0.330788881 0.6101423 0.7199341
vn 0.008977301 0.434570342 0.900593162
vn 0.289322555 0.901863933 -0.320833176
vn 0.598193169 0.7840034 0.165842146
vn 0.5274116 -0.18036674 -0.8302438
vn 0.6292738 0.0446834378 -0.775898159
vn 0.172691166 -0.238484129 -0.9556689
vn -0.839997053 -0.449560553 0.3038096
vn -0.9868901 -0.1457884 0.06923654
vn -0.6285457 -0.44926998 0.634891152
vn 0.790454566 -0.324855328 0.5192789
vn 0.24751164 -0.413311422 0.8763057
vn 0.7459825 -0.193296745 0.6372962
vn 0.9685459 -0.205647871 -0.140099242
vn 0.997098744 0.0178173557 -0.07400433
vn 0.6330847 -0.140820414 0.7611658
vn 0.7459825 -0.193296745 0.6372962
vn -0.391905248 -0.3435101 0.85347
vn -0.3269858 -0.221825451 0.918626
vn 0.6292738 0.0446834378 -0.775898159
vn 0.997098744 0.0178173557 -0.07400433
vn 0.9958014 0.0599248037 -0.0691999
vn -0.380309373 0.221109241 -0.8980398
vn -0.43789196 0.194866508 -0.8776547
vn -0.9868901 -0.1457884 0.06923654
vn -0.43789196 0.194866508 -0.8776547
vn -0.380309373 0.221109241 -0.8980398
vn 0.472165734 0.19908841 -0.858733535
vn -0.9917292 -0.00285084057 -0.128316447
vn -0.440409482 -0.25252983 -0.861549854
vn -0.415114969 -0.029928755 -0.909276545
vn 0.5047615 0.009491571 -0.8632067
vn 0.5812184 -0.163623959 -0.797127545
vn -0.3950727 -0.331155747 0.8568859
vn 0.5811145 -0.2572464 0.7720947
vn 0.99091 -0.124538526 -0.0508683734
vn 0.976688266 -0.20839487 0.05149429
vn -0.968336165 -0.249556422 0.00683260243
vn -0.415114969 -0.029928755 -0.909276545
vn -0.440409482 -0.25252983 -0.861549854
vn -0.9260652 -0.356936663 0.122472174
vn 0.559930265 -0.263772756 0.785431147
vn -0.456545979 -0.331281 0.8257231
vn 0.145573944 -0.311213523 -0.9391243
vn 0.145573944 -0.311213523 -0.9391243
vn 0.145573944 -0.311213523 -0.9391243
vn -0.584484637 -0.565413237 -0.581967
vn -0.584484637 -0.565413237 -0.581967
vn -0.584484637 -0.565413237 -0.581967
vn -0.5949665 -0.467750371 -0.6536241
vn -0.5949665 -0.467750371 -0.6536241
vn -0.5949665 -0.467750371 -0.6536241
vn -0.03034078 0.9993536 0.0192820318
vn -0.03034078 0.9993536 0.0192820318
vn -0.03034078 0.9993536 0.0192820318
vn -0.08828232 0.986769259 -0.135987788
vn -0.08828232 0.986769259 -0.135987788
vn -0.08828232 0.986769259 -0.135987788
vn -0.1445649 0.977152 0.155804157
vn -0.1445649 0.977152 0.155804157
vn -0.1445649 0.977152 0.155804157
vn -0.07553118 0.997134864 -0.004133088
vn -0.07553118 0.997134864 -0.004133088
vn -0.07553118 0.997134864 -0.004133088
vn -0.9156659 0.373787761 0.147778839
vn -0.9156659 0.373787761 0.147778839
vn -0.9156659 0.373787761 0.147778839
vn -0.214689344 0.972318649 -0.0922219
vn -0.214689344 0.972318649 -0.0922219
vn -0.214689344 0.972318649 -0.0922219
vn -0.502548456 0.493764251 -0.709677339
vn -0.502548456 0.493764251 -0.709677339
vn -0.502548456 0.493764251 -0.709677339
vn -0.2484197 0.926881 0.281388044
vn -0.2484197 0.926881 0.281388044
vn -0.2484197 0.926881 0.281388044
vn 0.6816097 0.6756436 -0.280916125
vn 0.6816097 0.6756436 -0.280916125
vn 0.6816097 0.6756436 -0.280916125
vn -0.3783096 0.923898 -0.05739627
vn -0.3783096 0.923898 -0.05739627
vn -0.3783096 0.923898 -0.05739627
vn -0.107267916 0.9942301 -0.000293398974
vn -0.107267916 0.9942301 -0.000293398974
vn -0.107267916 0.9942301 -0.000293398974
vn -0.391905248 -0.3435101 0.85347
vn 0.17048347 0.582102239 -0.7950424
vn 0.17048347 0.582102239 -0.7950424
vn 0.17048347 0.582102239 -0.7950424
vn -0.1398079 0.9009878 -0.4107003
vn -0.1398079 0.9009878 -0.4107003
vn -0.1398079 0.9009878 -0.4107003
vn 0.449852377 -0.1833764 0.87407434
vn 0.983350754 0.17619817 -0.0444466658
vn 0.972383142 0.233390048 -0.000382822123
vn 0.5740559 -0.0157755855 0.818664134
vn -0.7321752 -0.247145936 -0.6346955
vn -0.8568913 -0.417894155 0.301830858
vn -0.7688982 -0.518180847 0.3745453
vn -0.526812 -0.5817909 -0.619668
vn -0.279828161 -0.442263216 0.8521147
vn 0.6493185 -0.291185 0.7025644
vn -0.7688982 -0.518180847 0.3745453
vn -0.8568913 -0.417894155 0.301830858
vn 0.5265111 0.305123568 -0.793527365
vn 0.3855275 0.6118026 -0.690699756
vn 0.754775763 0.6536582 -0.0551772863
vn 0.3497778 0.171102136 -0.9210752
vn 0.454379 0.667136 0.590312839
vn 0.163456157 0.134240165 -0.9773749
vn 0.568729341 0.379657537 0.7296623
vn 0.472159326 0.87684387 -0.09061121
vn 0.9550112 0.237752929 -0.177277237
vn 0.3160882 0.306798637 -0.8977543
vn -0.912843 -0.4012927 0.07537793
vn -0.923440039 -0.3797024 0.0555388927
vn -0.236677617 -0.242785782 0.940764964
vn -0.2925797 -0.3781827 0.878279567
vn 0.4133655 0.240985692 -0.8780973
vn 0.9170341 0.3621035 -0.167121291
vn 0.698843837 0.191191763 0.689248145
vn 0.673494 -0.0681086 0.7360483
vn -0.4885498 -0.08229736 -0.8686462
vn -0.669053853 -0.118828937 -0.733652949
vn -0.923440039 -0.3797024 0.0555388927
vn -0.912843 -0.4012927 0.07537793
vn 0.42633763 0.1080687 -0.8980854
vn 0.905192852 0.41609776 -0.0865366459
vn 0.9157144 0.3530145 -0.191958129
vn 0.4002725 0.0304027386 -0.9158917
vn -0.5731735 -0.276923537 -0.771223366
vn -0.508719146 -0.253386617 -0.8228001
vn 0.5518671 0.337910533 0.762403548
vn 0.6283678 0.363187671 0.6879307
vn -0.9416086 -0.303526253 0.1457568
vn -0.949450552 -0.295189172 0.106803827
vn -0.2722229 0.0125894044 0.9621519
vn -0.3621622 -0.0368813276 0.931385159
vn -0.9416086 -0.303526253 0.1457568
vn -0.949450552 -0.295189172 0.106803827
vn 0.405962974 0.222987816 -0.8862677
vn -0.5389679 -0.1742319 -0.824109733
vn 0.2920009 0.7071908 -0.6439073
vn 0.3733374 0.7899561 0.4864037
vn 0.3211555 0.9464737 -0.0323525071
vn 0.9953443 0.0597906932 -0.07559681
vn 0.6994894 -0.0864790753 -0.709391236
vn 0.6334006 -0.2645101 -0.727212548
vn 0.9999782 0.00655345339 0.000790489139
vn 0.6453468 0.21597144 0.7327236
vn 0.491979867 -0.01842898 0.8704115
vn -0.24950324 -0.461636484 -0.8512578
vn -0.387762 -0.214932919 -0.8963506
vn -0.9873913 -0.146432027 -0.0601337738
vn -0.0334053226 -0.978560865 -0.203230813
vn -0.632053137 0.09790817 0.7687151
vn -0.07284788 -0.4030936 0.912254751
vn -0.9873913 -0.146432027 -0.0601337738
vn -0.0334053226 -0.978560865 -0.203230813
vn 0.6100885 0.3592545 0.7062069
vn -0.4248078 0.2571269 0.8680001
vn -0.24950324 -0.461636484 -0.8512578
vn -0.0334053226 -0.978560865 -0.203230813
vn -0.01827037 -0.47315532 -0.8807896
vn 0.0934831947 -0.226209775 -0.9695824
vn 0.491979867 -0.01842898 0.8704115
vn 0.9999782 0.00655345339 0.000790489139
vn 0.9824605 0.0207483266 0.185312822
vn 0.498845071 -0.110101946 0.8596692
vn -0.009037492 -0.0519912876 -0.9986066
vn 0.147628948 0.0090053305 -0.9890018
vn -0.07284788 -0.4030936 0.912254751
vn 0.0186347086 -0.36936748 0.9290966
vn 0.9999782 0.00655345339 0.000790489139
vn 0.704004645 -0.135288328 -0.697190464
vn 0.7072601 0.11078991 -0.6982183
vn 0.6334006 -0.2645101 -0.727212548
vn -0.00474627642 -0.7950255 0.606557369
vn -0.0334053226 -0.978560865 -0.203230813
vn 0.877906442 -0.206931278 0.431809843
vn 0.009661712 -0.149025679 0.9887861
vn 0.009310541 0.6852922 0.7282087
vn 0.691261 0.561312 0.4550682
vn 0.55004245 0.7483543 -0.370700866
vn -0.00499388855 0.591500759 -0.806288958
vn -0.007499048 0.058889918 -0.9982363
vn 0.9167924 -0.04441449 -0.3968867
vn 0.07710162 -0.159884855 0.98412
vn 0.07710161 -0.1598852 0.984119952
vn 0.00245315442 0.9304844 -0.366323262
vn 0.0107902186 0.5013929 0.8651524
vn -0.5640968 0.5676006 0.599686861
vn 0.253513515 0.87150985 0.419763565
vn 0.1418797 0.9477483 -0.285732925
vn -0.0240780227 0.9671375 0.2531113
vn -0.4694718 0.799476743 0.374744177
vn 0.0738338 0.7993659 0.5962909
vn -0.3863997 0.7630189 0.5181674
vn 0.09633419 0.937634945 -0.334006578
vn 0.3936703 0.5404356 -0.7436081
vn -0.0018218148 0.362899631 -0.9318265
vn 0.0199477542 0.9824288 0.18556869
vn 0.00777826365 0.726739049 0.6868696
vn 0.205561414 0.5737522 -0.7928133
vn 0.267399 0.3486126 -0.898313463
vn 0.00415983144 0.308746427 -0.9511353
vn -0.391095757 0.919457138 -0.0405306257
vn -0.302063465 0.7065067 -0.6400046
vn -0.457010061 0.88603586 0.07798852
vn -0.0213851016 0.6232495 -0.781730652
vn 0.243319318 0.238388255 -0.9401951
vn 0.261636168 0.2919478 -0.9199527
vn -0.005822741 0.304781646 -0.952404439
vn 0.147462323 0.396936238 -0.905923
vn 0.528947 0.3652367 -0.766039968
vn 0.3601539 0.380906016 -0.85158664
vn 0.23519513 0.4632743 -0.854435563
vn 0.225809842 0.271944672 -0.9354443
vn -0.006881637 0.378584772 -0.925541043
vn -0.00563263847 0.5341818 -0.845350862
vn 0.642085 0.210686773 -0.7371146
vn 0.428642929 0.198017076 -0.8815069
vn -0.008058287 0.187940359 -0.9821474
vn 0.621310353 0.188796654 -0.7604796
vn 0.3990738 0.136810362 -0.906654835
vn -0.008467374 0.103486 -0.9945949
vn 0.5583257 0.161178887 -0.813814342
vn 0.334309936 0.106148213 -0.936466455
vn -0.008519265 0.09170089 -0.9957501
vn 0.906254768 -0.3523994 0.233488664
vn 0.917350054 -0.273986459 -0.288791031
vn -0.519565463 0.202785119 0.830018044
vn -0.314188123 0.611639261 0.726073861
vn -0.314188123 0.611639261 0.726073861
vn -0.6103218 -0.1263803 0.7820072
vn 0.03462073 0.4308895 0.9017404
vn -0.06937868 -0.3761224 0.9239689
vn -0.2993805 -0.4327519 0.850351155
vn -0.308783025 0.950401545 -0.03728222
vn -0.354387164 0.794841766 0.492581278
vn -0.218476653 0.8644217 0.452816725
vn -0.308783025 0.950401545 -0.03728222
vn -0.5499169 0.257526428 -0.794526
vn -0.294177562 0.7071737 -0.6429346
vn -0.0528070927 0.798269868 0.599980533
vn -0.218476653 0.8644217 0.452816725
vn -0.170096442 0.138113633 -0.9757007
vn -0.470223874 -0.432598054 -0.7692519
vn -0.997567058 -0.0246060062 0.06522663
vn -0.7757216 0.499293685 0.385955721
vn -0.637248456 -0.2783847 0.7186212
vn -0.9115329 0.124563262 0.391907841
vn -0.218476653 0.8644217 0.452816725
vn -0.9147548 -0.3293045 -0.234056
vn 0.364584535 -0.609850347 -0.7036765
vn -0.9147548 -0.3293045 -0.234056
vn -0.5499902 0.3853102 0.740977
vn -0.9046376 -0.345113069 0.2500557
vn -0.697725832 -0.429239035 0.5735264
vn -0.602206647 -0.181509539 -0.7774326
vn -0.925497949 0.3463025 0.153388828
vn -0.5898775 0.7880394 0.176177278
vn -0.288831383 0.903884649 -0.3155456
vn -0.649337053 0.41777 -0.635475934
vn -0.119853377 0.462324142 -0.8785736
vn -0.761191547 0.515623569 0.393344253
vn -0.776990235 0.4997151 -0.382845938
vn -0.5499169 0.257526428 -0.794526
vn -0.9046376 -0.345113069 0.2500557
vn -0.9831193 -0.127664849 -0.13106513
vn -0.7719504 -0.268756717 0.576074958
vn -0.9831193 -0.127664849 -0.13106513
vn -0.9242664 -0.267584115 -0.272268981
vn -0.5898775 0.7880394 0.176177278
vn -0.288831383 0.903884649 -0.3155456
vn -0.6805783 0.5630386 0.468829066
vn -0.5516049 0.751342833 -0.362237453
vn -0.266014636 0.7412467 0.616270661
vn -0.51867646 0.2540128 0.816365242
vn -0.9883897 0.1502948 -0.0223015416
vn -0.318473816 0.179918334 0.9307007
vn -0.69260776 0.06251127 -0.7186006
vn -0.6562151 -0.08256527 -0.750043154
vn -0.9882277 0.0260919258 -0.150748566
vn -0.865467 0.118270017 0.4868049
vn -0.5917106 0.136520579 0.79450655
vn -0.185513735 0.104849324 -0.9770319
vn -0.0528070927 0.798269868 0.599980533
vn -0.5078227 0.447151661 0.736323
vn -0.5898775 0.7880394 0.176177278
vn -0.914227962 0.3942492 0.09356708
vn -0.914227962 0.3942492 0.09356708
vn -0.914227962 0.3942492 0.09356708
vn -0.936141253 0.08452325 -0.341314137
vn -0.936141253 0.08452325 -0.341314137
vn -0.936141253 0.08452325 -0.341314137
vn -0.119371146 -0.118249774 -0.9857827
vn -0.8906034 0.454284459 -0.0212420244
vn -0.9602567 0.277999729 -0.02496483
vn -0.493670166 0.127212718 0.8602945
vn -0.43342033 0.293631762 -0.8520136
vn 0.7910379 -0.5902888 0.1606803
vn 0.303154528 -0.425355852 0.8527425
vn 0.7883036 -0.607443333 0.0979288
vn 0.3372926 -0.469536066 0.815947056
vn 0.7883036 -0.607443333 0.0979288
vn 0.461295754 -0.2755659 -0.843368053
vn 0.6570122 -0.338812 -0.6734548
vn -0.0118092373 -0.145767227 0.989248455
vn -0.0118092429 -0.145767018 0.989248455
vn -0.0118092513 -0.145767018 0.989248455
vn -0.01180946 -0.1457669 0.989248455
vn -0.0118093509 -0.145766959 0.989248455
vn -0.011809608 -0.1457669 0.989248455
vn -0.0118093453 -0.145766839 0.9892485
vn -0.0118093947 -0.145766839 0.9892485
vn -0.0118094692 -0.145766988 0.989248455
vn -0.0118093854 -0.14576681 0.9892485
vn -0.011809187 -0.14576681 0.9892485
vn -0.0118090864 -0.145766735 0.9892485
vn -0.0118096424 -0.1457669 0.989248455
vn -0.2778561 0.01041291 0.9605663
vn -0.0738163143 0.177074715 -0.981425345
vn 0.7910379 -0.5902888 0.1606803
vn -0.135214984 0.980585456 -0.142017648
vn -0.58089304 0.08034813 0.8100046
vn -0.4337263 0.8695975 0.235969692
vn -0.839652956 0.5340319 0.09895851
vn -0.274062872 0.6801774 0.6798884
vn -0.218902111 -0.0207751412 0.9755256
vn -0.0154586267 0.773894668 0.633125663
vn -0.409720123 0.718492568 -0.5620479
vn -0.314188123 0.611639261 0.726073861
vn -0.288831383 0.903884649 -0.3155456
vn -0.5898775 0.7880394 0.176177278
vn -0.550434232 -0.174072653 -0.816529751
vn -0.19968769 -0.237179011 -0.950721264
vn -0.64805305 0.0549830236 -0.759607852
vn 0.8411572 -0.459855616 0.284582824
vn 0.6373767 -0.456058443 0.6210971
vn 0.986224055 -0.159226239 0.04482334
vn -0.7814994 -0.311824024 0.5403929
vn -0.7329617 -0.18145816 0.6556219
vn -0.231454253 -0.406371981 0.883906543
vn -0.974536657 -0.192329913 -0.115271643
vn -0.998317659 0.0311250128 -0.04891884
vn -0.621723235 -0.12697573 0.772876
vn 0.4073485 -0.345712334 0.8453107
vn -0.7329617 -0.18145816 0.6556219
vn 0.340143025 -0.2217424 0.913856149
vn -0.64805305 0.0549830236 -0.759607852
vn -0.9959168 0.07507974 -0.05012784
vn -0.998317659 0.0311250128 -0.04891884
vn 0.364022583 0.215620443 -0.906087935
vn 0.986224055 -0.159226239 0.04482334
vn 0.427813172 0.183639437 -0.8850155
vn 0.427813172 0.183639437 -0.8850155
vn -0.485423356 0.202663034 -0.850465655
vn 0.364022583 0.215620443 -0.906087935
vn 0.9890902 -0.0191946253 -0.146055058
vn 0.416876584 -0.262046844 -0.8703708
vn -0.524978 0.009339695 -0.851064563
vn 0.39623335 -0.04019376 -0.917269647
vn -0.6016368 -0.158305213 -0.782925665
vn -0.5674819 -0.246247634 0.7857012
vn 0.4098405 -0.335027277 0.8484029
vn -0.993529141 -0.110369988 -0.0268014688
vn -0.978105247 -0.194229215 0.07473374
vn 0.9646813 -0.262980044 -0.0152119445
vn 0.416876584 -0.262046844 -0.8703708
vn 0.39623335 -0.04019376 -0.917269647
vn 0.923478961 -0.369657665 0.102663763
vn -0.545396447 -0.2528004 0.799146235
vn 0.4706788 -0.334649622 0.8163768
vn -0.172928378 -0.310980856 -0.9345516
vn -0.172928378 -0.310980856 -0.9345516
vn -0.172928378 -0.310980856 -0.9345516
vn 0.5618481 -0.575203836 -0.5945312
vn 0.5618481 -0.575203836 -0.5945312
vn 0.5618481 -0.575203836 -0.5945312
vn 0.5719797 -0.476690471 -0.667536855
vn 0.5719797 -0.476690471 -0.667536855
vn 0.5719797 -0.476690471 -0.667536855
vn 0.0569318123 0.996871769 0.05482239
vn 0.0569318123 0.996871769 0.05482239
vn 0.0569318123 0.996871769 0.05482239
vn 0.09840816 0.984532 -0.144957259
vn 0.09840816 0.984532 -0.144957259
vn 0.09840816 0.984532 -0.144957259
vn 0.22123979 0.961734533 0.16161567
vn 0.22123979 0.961734533 0.16161567
vn 0.22123979 0.961734533 0.16161567
vn 0.12892364 0.9915274 0.0158810988
vn 0.12892364 0.9915274 0.0158810988
vn 0.12892364 0.9915274 0.0158810988
vn 0.921453834 0.3842794 0.0570277572
vn 0.921453834 0.3842794 0.0570277572
vn 0.921453834 0.3842794 0.0570277572
vn 0.290268153 0.9500299 -0.114837177
vn 0.290268153 0.9500299 -0.114837177
vn 0.290268153 0.9500299 -0.114837177
vn 0.491264373 0.484532654 -0.723800659
vn 0.491264373 0.484532654 -0.723800659
vn 0.491264373 0.484532654 -0.723800659
vn 0.214058787 0.945596635 0.245001748
vn 0.214058787 0.945596635 0.245001748
vn 0.214058787 0.945596635 0.245001748
vn -0.678029358 0.685040355 -0.266450644
vn -0.678029358 0.685040355 -0.266450644
vn -0.678029358 0.685040355 -0.266450644
vn 0.404411376 0.910367 -0.0876545757
vn 0.404411376 0.910367 -0.0876545757
vn 0.404411376 0.910367 -0.0876545757
vn 0.09112371 0.9954657 0.0272859409
vn 0.09112371 0.9954657 0.0272859409
vn 0.09112371 0.9954657 0.0272859409
vn 0.4073485 -0.345712334 0.8453107
vn -0.181540385 0.582181156 -0.7925328
vn -0.181540385 0.582181156 -0.7925328
vn -0.181540385 0.582181156 -0.7925328
vn 0.142239749 0.89722234 -0.418043017
vn 0.142239749 0.89722234 -0.418043017
vn 0.142239749 0.89722234 -0.418043017
vn -0.456275 -0.159766108 0.8753787
vn -0.971621037 0.236323282 0.0101908995
vn -0.975074351 0.2129996 -0.0621386431
vn -0.560488343 0.006543216 0.828136444
vn 0.6713316 -0.303377 -0.6762221
vn 0.693657458 -0.6120455 0.3797889
vn 0.8281974 -0.499114573 0.254899353
vn 0.364584535 -0.609850347 -0.7036765
vn 0.263996631 -0.4577028 0.8490076
vn -0.637248456 -0.2783847 0.7186212
vn 0.693657458 -0.6120455 0.3797889
vn 0.8281974 -0.499114573 0.254899353
vn -0.528914452 0.321469545 -0.7854341
vn -0.7372076 0.6742309 -0.0440187
vn -0.370142877 0.6257513 -0.6866073
vn -0.3657096 0.175879076 -0.9139601
vn -0.427105725 0.6796523 0.596366942
vn -0.170096442 0.138113633 -0.9757007
vn -0.5499902 0.3853102 0.740977
vn -0.447775155 0.89013 -0.08465227
vn -0.9490503 0.294894 -0.111090071
vn -0.366548061 0.307471871 -0.878125
vn 0.9024438 -0.429848343 0.0287330858
vn 0.2833933 -0.232790381 0.930320859
vn 0.9136079 -0.406516969 0.008032365
vn 0.3262002 -0.377390474 0.8667006
vn -0.449678421 0.237711266 -0.8609777
vn -0.913582265 0.386957645 -0.125024855
vn -0.640103042 -0.00757818762 0.7682517
vn -0.653215 0.2270417 0.7223311
vn 0.4386766 -0.1152654 -0.89122206
vn 0.6245482 -0.162828162 -0.7638236
vn 0.9024438 -0.429848343 0.0287330858
vn 0.9136079 -0.406516969 0.008032365
vn -0.469001144 0.119548462 -0.8750692
vn -0.912828565 0.380999416 -0.146912947
vn -0.8950306 0.444437116 -0.03736154
vn -0.447062165 0.0414079279 -0.893543959
vn 0.5243516 -0.296465367 -0.798225343
vn 0.4564621 -0.270794451 -0.847533345
vn -0.4969555 0.36450386 0.7875101
vn -0.580921769 0.384676427 0.717324138
vn 0.93807137 -0.33183226 0.0995461
vn 0.943871 -0.324860424 0.0597758368
vn 0.321084738 0.00649700174 0.94702816
vn 0.410469621 -0.0369649231 0.911124766
vn 0.943871 -0.324860424 0.0597758368
vn 0.93807137 -0.33183226 0.0995461
vn -0.446184069 0.224083528 -0.866433144
vn 0.488416523 -0.1966215 -0.850170135
vn -0.294177562 0.7071737 -0.6429346
vn -0.354387164 0.794841766 0.492581278
vn -0.308783025 0.950401545 -0.03728222
vn -0.9959552 0.07574619 -0.04832898
vn -0.65501827 -0.264732182 -0.7077203
vn -0.7162808 -0.0397470929 -0.696679235
vn -0.9994959 0.0221095774 0.02278318
vn -0.6172767 0.16039905 0.77022177
vn -0.488199562 -0.0217024721 0.872462153
vn 0.201950759 -0.46045664 -0.864404738
vn 0.9848598 -0.149778977 -0.08727744
vn 0.372219443 -0.177501172 -0.9110137
vn 0.631226 0.0346289054 0.7748255
vn 0.100327112 -0.409846365 0.9066203
vn 0.9848598 -0.149778977 -0.08727744
vn -0.6538395 0.198149577 0.7302264
vn 0.465745717 0.06623912 0.882436037
vn 0.201950759 -0.46045664 -0.864404738
vn -0.111881167 -0.249452353 -0.9619023
vn -0.488199562 -0.0217024721 0.872462153
vn -0.9818421 0.008687241 0.189500853
vn -0.9994959 0.0221095774 0.02278318
vn -0.462320268 -0.167555213 0.8707383
vn -0.165002853 0.009537301 -0.986247
vn 0.100327112 -0.409846365 0.9066203
vn -0.9994959 0.0221095774 0.02278318
vn -0.722615838 0.111237742 -0.6822408
vn -0.7194729 -0.158894464 -0.6761001
vn -0.65501827 -0.264732182 -0.7077203
vn -0.8721083 -0.208292648 0.4427655
vn -0.6805783 0.5630386 0.468829066
vn -0.5516049 0.751342833 -0.362237453
vn -0.9228115 -0.0434772447 -0.382790625
vn -0.0118095679 -0.145766869 0.989248455
vn -0.0118093351 -0.145767331 0.9892484
vn 0.6160486 0.569513261 0.544186354
vn -0.08133638 0.95833385 -0.2738258
vn -0.218476653 0.8644217 0.452816725
vn 0.0172238275 0.967317 0.2529845
vn 0.479913861 0.810652256 0.3354484
vn -0.0528070927 0.798269868 0.599980533
vn 0.402143747 0.7572558 0.5146301
vn -0.0845747 0.960575759 -0.264842182
vn -0.408532739 0.54370296 -0.73313576
vn 0.03617768 0.9794007 0.198659182
vn -0.209298715 0.5780908 -0.788673
vn -0.2744016 0.367306232 -0.88870126
vn 0.4507422 0.8919888 -0.0344586745
vn 0.2952722 0.7107918 -0.638427258
vn 0.522679567 0.850839257 -0.053652823
vn 0.0159329772 0.6194626 -0.7848645
vn -0.255753219 0.240106523 -0.9364503
vn -0.269317746 0.289829165 -0.9184046
vn -0.150425911 0.4005613 -0.90383774
vn -0.539878845 0.369032532 -0.7565354
vn -0.247080117 0.465051383 -0.850105047
vn -0.372521073 0.38350296 -0.845076
vn -0.240489855 0.2736397 -0.931281865
vn -0.653569937 0.215266719 -0.725607753
vn -0.442821056 0.201097578 -0.8737673
vn -0.63336885 0.1932318 -0.7493366
vn -0.414136618 0.13968499 -0.8994326
vn -0.57153815 0.16517289 -0.80377984
vn -0.350130767 0.108567677 -0.9303878
vn -0.9242664 -0.267584115 -0.272268981
vn -0.9046376 -0.345113069 0.2500557
usemtl 0002641002_part_0_material_0
f 1/1/1 2/2/2 3/3/3
f 4/4/4 3/3/3 2/2/2
f 5/5/5 6/6/6 7/7/7
f 7/7/7 8/8/8 5/5/5
f 9/9/9 10/10/10 11/11/11
f 10/10/10 9/9/9 12/12/12
f 13/13/13 10/10/10 12/12/12
f 14/14/14 15/15/15 16/16/16
f 17/17/17 18/18/18 19/19/19
f 20/20/20 21/21/21 22/22/22
f 23/23/23 24/24/24 20/20/20
f 25/25/25 26/26/26 27/27/27
f 26/26/26 25/25/25 28/28/28
f 29/29/29 30/30/30 31/31/31
f 27/27/27 19/19/19 25/25/25
f 19/19/19 27/27/27 32/32/32
f 29/29/29 31/31/31 33/33/33
f 34/34/34 17/17/17 19/19/19
f 28/28/28 35/35/35 36/36/36
f 29/29/29 37/37/37 30/30/30
f 31/31/31 30/30/30 38/38/38
f 39/39/39 29/29/29 33/33/33
f 33/33/33 40/40/40 39/39/39
f 41/41/41 42/42/42 28/28/28
f 42/42/42 41/41/41 43/43/43
f 29/29/29 39/39/39 37/37/37
f 44/44/44 45/45/45 46/46/46
f 45/45/45 44/44/44 47/47/47
f 45/45/45 47/47/47 48/48/48
f 48/48/48 49/49/49 45/45/45
f 23/23/23 20/20/20 22/22/22
f 50/50/50 22/22/22 21/21/21
f 21/21/21 51/51/51 50/50/50
f 51/51/51 21/21/21 52/52/52
f 53/53/53 54/54/54 55/55/55
f 41/41/41 56/56/56 57/57/57
f 36/36/36 41/41/41 28/28/28
f 58/58/58 41/41/41 57/57/57
f 41/41/41 58/58/58 59/59/59
f 59/59/59 43/43/43 41/41/41
f 43/43/43 59/59/59 60/60/60
f 4/4/4 2/2/2 44/44/44
f 44/44/44 46/46/46 4/4/4
f 61/61/61 52/52/52 62/62/62
f 52/52/52 61/61/61 51/51/51
f 63/63/63 64/64/64 50/50/50
f 64/64/64 63/63/63 65/65/65
f 50/50/50 66/66/66 63/63/63
f 11/11/11 31/31/31 67/67/67
f 11/11/11 68/68/68 9/9/9
f 69/69/69 70/70/70 44/44/44
f 44/44/44 2/2/2 71/71/71
f 72/72/72 71/71/71 73/73/73
f 2/2/2 73/73/73 71/71/71
f 74/74/74 75/75/75 76/76/76
f 77/77/77 70/70/70 78/78/78
f 79/79/79 78/78/78 70/70/70
f 80/80/80 79/79/79 70/70/70
f 70/70/70 81/81/81 80/80/80
f 82/82/82 83/83/83 84/84/84
f 84/84/84 48/48/48 82/82/82
f 70/70/70 47/47/47 44/44/44
f 47/47/47 70/70/70 77/77/77
f 85/85/85 31/31/31 38/38/38
f 67/67/67 31/31/31 85/85/85
f 66/66/66 50/50/50 51/51/51
f 51/51/51 86/86/86 66/66/66
f 86/86/86 51/51/51 61/61/61
f 22/22/22 50/50/50 64/64/64
f 73/73/73 2/2/2 1/1/1
f 31/31/31 87/87/87 33/33/33
f 33/33/33 87/87/87 40/40/40
f 40/40/40 10/10/10 13/13/13
f 39/39/39 40/40/40 13/13/13
f 13/13/13 12/12/12 5/5/5
f 5/5/5 8/8/8 13/13/13
f 8/8/8 88/88/88 55/55/55
f 25/25/25 19/19/19 18/18/18
f 28/28/28 42/42/42 26/26/26
f 15/15/15 85/85/85 16/16/16
f 89/89/89 90/90/90 91/91/91
f 92/92/92 93/93/93 94/94/94
f 85/85/85 68/68/68 67/67/67
f 67/67/67 68/68/68 11/11/11
f 25/25/25 35/35/35 28/28/28
f 48/48/48 84/84/84 49/49/49
f 8/8/8 7/7/7 88/88/88
f 85/85/85 38/38/38 16/16/16
f 95/95/95 96/96/96 83/83/83
f 83/83/83 82/82/82 95/95/95
f 47/47/47 77/77/77 82/82/82
f 82/82/82 48/48/48 47/47/47
f 82/82/82 77/77/77 78/78/78
f 78/78/78 95/95/95 82/82/82
f 31/31/31 11/11/11 87/87/87
f 87/87/87 11/11/11 10/10/10
f 87/87/87 10/10/10 40/40/40
f 97/97/97 98/98/98 99/99/99
f 99/99/99 100/100/100 97/97/97
f 101/101/101 102/102/102 103/103/103
f 103/103/103 104/104/104 101/101/101
f 105/105/105 106/106/106 107/107/107
f 108/108/108 109/109/109 110/110/110
f 111/111/111 112/112/112 113/113/113
f 114/114/114 115/115/115 113/113/113
f 116/116/116 114/114/114 113/113/113
f 117/117/117 118/118/118 119/119/119
f 116/116/116 113/113/113 112/112/112
f 120/120/120 117/117/117 119/119/119
f 121/121/121 104/104/104 103/103/103
f 103/103/103 98/98/98 121/121/121
f 100/100/100 107/107/107 122/122/122
f 105/105/105 123/123/123 106/106/106
f 97/97/97 121/121/121 98/98/98
f 100/100/100 122/122/122 97/97/97
f 124/124/124 125/125/125 126/126/126
f 127/127/127 128/128/128 129/129/129
f 129/129/129 130/130/130 127/127/127
f 131/131/131 127/127/127 132/132/132
f 132/132/132 133/133/133 134/134/134
f 135/135/135 124/124/124 129/129/129
f 129/129/129 128/128/128 135/135/135
f 135/135/135 136/136/136 125/125/125
f 125/125/125 124/124/124 135/135/135
f 137/137/137 138/138/138 132/132/132
f 126/126/126 139/139/139 124/124/124
f 129/129/129 124/124/124 139/139/139
f 139/139/139 140/140/140 129/129/129
f 137/137/137 130/130/130 129/129/129
f 140/140/140 137/137/137 129/129/129
f 141/141/141 142/142/142 143/143/143
f 144/144/144 145/145/145 146/146/146
f 147/147/147 148/148/148 149/149/149
f 141/141/141 150/150/150 142/142/142
f 142/142/142 150/150/150 151/151/151
f 152/152/152 153/153/153 154/154/154
f 154/154/154 155/155/155 152/152/152
f 156/156/156 157/157/157 158/158/158
f 159/159/159 160/160/160 161/161/161
f 162/162/162 163/163/163 164/164/164
f 160/160/160 165/165/165 161/161/161
f 164/164/164 156/156/156 158/158/158
f 156/156/156 164/164/164 163/163/163
f 166/166/166 167/167/167 168/168/168
f 168/168/168 169/169/169 166/166/166
f 155/155/155 170/170/170 171/171/171
f 171/171/171 152/152/152 155/155/155
f 169/169/169 168/168/168 172/172/172
f 172/172/172 173/173/173 169/169/169
f 174/174/174 175/175/175 176/176/176
f 176/176/176 177/177/177 174/174/174
f 154/154/154 165/165/165 155/155/155
f 155/155/155 165/165/165 174/174/174
f 174/174/174 170/170/170 155/155/155
f 178/178/178 173/173/173 172/172/172
f 172/172/172 171/171/171 178/178/178
f 152/152/152 158/158/158 153/153/153
f 149/149/149 151/151/151 147/147/147
f 154/154/154 161/161/161 165/165/165
f 167/167/167 162/162/162 164/164/164
f 164/164/164 168/168/168 167/167/167
f 170/170/170 179/179/179 178/178/178
f 178/178/178 171/171/171 170/170/170
f 168/168/168 164/164/164 158/158/158
f 158/158/158 172/172/172 168/168/168
f 165/165/165 160/160/160 175/175/175
f 175/175/175 174/174/174 165/165/165
f 174/174/174 177/177/177 179/179/179
f 179/179/179 170/170/170 174/174/174
f 172/172/172 158/158/158 152/152/152
f 152/152/152 171/171/171 172/172/172
f 158/158/158 157/157/157 153/153/153
f 180/180/180 181/181/181 182/182/182
f 183/183/183 184/184/184 185/185/185
f 186/186/186 187/187/187 188/188/188
f 189/189/189 190/190/190 191/191/191
f 192/192/192 193/193/193 194/194/194
f 195/195/195 196/196/196 197/197/197
f 198/198/198 199/199/199 200/200/200
f 201/201/201 202/202/202 203/203/203
f 204/204/204 205/205/205 206/206/206
f 207/207/207 208/208/208 209/209/209
f 210/210/210 211/211/211 212/212/212
f 213/213/213 214/214/214 215/215/215
f 216/216/216 217/217/217 218/218/218
f 219/219/219 220/220/220 221/221/221
f 151/151/151 150/150/150 147/147/147
f 145/145/145 222/222/222 146/146/146
f 223/223/223 224/224/224 225/225/225
f 226/226/226 227/227/227 228/228/228
f 148/148/148 222/222/222 149/149/149
f 148/148/148 146/146/146 222/222/222
f 229/229/229 230/230/230 231/231/231
f 231/231/231 232/232/232 229/229/229
f 233/233/233 234/234/234 235/235/235
f 235/235/235 236/236/236 233/233/233
f 237/237/237 229/229/229 232/232/232
f 232/232/232 238/238/238 237/237/237
f 237/237/237 238/238/238 239/239/239
f 239/239/239 240/240/240 237/237/237
f 241/241/241 242/242/242 243/243/243
f 243/243/243 231/231/231 241/241/241
f 231/231/231 230/230/230 244/244/244
f 244/244/244 241/241/241 231/231/231
f 232/232/232 231/231/231 243/243/243
f 243/243/243 245/245/245 232/232/232
f 246/246/246 242/242/242 241/241/241
f 245/245/245 247/247/247 232/232/232
f 233/233/233 236/236/236 246/246/246
f 246/246/246 244/244/244 233/233/233
f 241/241/241 244/244/244 246/246/246
f 248/248/248 243/243/243 242/242/242
f 245/245/245 243/243/243 248/248/248
f 247/247/247 238/238/238 232/232/232
f 249/249/249 250/250/250 244/244/244
f 244/244/244 230/230/230 249/249/249
f 251/251/251 252/252/252 253/253/253
f 253/253/253 254/254/254 251/251/251
f 240/240/240 251/251/251 254/254/254
f 254/254/254 237/237/237 240/240/240
f 255/255/255 250/250/250 249/249/249
f 249/249/249 256/256/256 255/255/255
f 253/253/253 257/257/257 258/258/258
f 258/258/258 254/254/254 253/253/253
f 259/259/259 260/260/260 250/250/250
f 250/250/250 255/255/255 259/259/259
f 259/259/259 261/261/261 262/262/262
f 262/262/262 260/260/260 259/259/259
f 257/257/257 256/256/256 249/249/249
f 249/249/249 258/258/258 257/257/257
f 260/260/260 233/233/233 244/244/244
f 244/244/244 250/250/250 260/260/260
f 234/234/234 233/233/233 260/260/260
f 260/260/260 262/262/262 234/234/234
f 230/230/230 229/229/229 258/258/258
f 258/258/258 249/249/249 230/230/230
f 229/229/229 237/237/237 254/254/254
f 254/254/254 258/258/258 229/229/229
f 263/263/263 264/264/264 265/265/265
f 265/265/265 266/266/266 263/263/263
f 267/267/267 263/263/263 266/266/266
f 266/266/266 268/268/268 267/267/267
f 265/265/265 264/264/264 269/269/269
f 269/269/269 270/270/270 265/265/265
f 271/271/271 267/267/267 268/268/268
f 268/268/268 272/272/272 271/271/271
f 273/273/273 270/270/270 269/269/269
f 269/269/269 274/274/274 273/273/273
f 274/274/274 275/275/275 276/276/276
f 276/276/276 273/273/273 274/274/274
f 264/264/264 277/277/277 255/255/255
f 255/255/255 256/256/256 264/264/264
f 277/277/277 278/278/278 259/259/259
f 259/259/259 255/255/255 277/277/277
f 278/278/278 271/271/271 261/261/261
f 261/261/261 259/259/259 278/278/278
f 269/269/269 257/257/257 253/253/253
f 253/253/253 274/274/274 269/269/269
f 256/256/256 257/257/257 269/269/269
f 269/269/269 264/264/264 256/256/256
f 263/263/263 277/277/277 264/264/264
f 263/263/263 267/267/267 278/278/278
f 278/278/278 277/277/277 263/263/263
f 274/274/274 253/253/253 252/252/252
f 252/252/252 275/275/275 274/274/274
f 267/267/267 271/271/271 278/278/278
f 242/242/242 246/246/246 279/279/279
f 280/280/280 247/247/247 245/245/245
f 279/279/279 248/248/248 242/242/242
f 281/281/281 280/280/280 248/248/248
f 279/279/279 281/281/281 248/248/248
f 280/280/280 245/245/245 248/248/248
f 282/282/282 283/283/283 284/284/284
f 284/284/284 285/285/285 282/282/282
f 286/286/286 282/282/282 285/285/285
f 285/285/285 287/287/287 286/286/286
f 288/288/288 289/289/289 290/290/290
f 290/290/290 291/291/291 288/288/288
f 283/283/283 289/289/289 288/288/288
f 288/288/288 284/284/284 283/283/283
f 292/292/292 286/286/286 287/287/287
f 287/287/287 293/293/293 292/292/292
f 294/294/294 292/292/292 293/293/293
f 293/293/293 295/295/295 294/294/294
f 296/296/296 282/282/282 286/286/286
f 297/297/297 296/296/296 286/286/286
f 286/286/286 292/292/292 297/297/297
f 292/292/292 294/294/294 297/297/297
f 298/298/298 299/299/299 300/300/300
f 300/300/300 301/301/301 298/298/298
f 302/302/302 303/303/303 304/304/304
f 304/304/304 305/305/305 302/302/302
f 300/300/300 306/306/306 307/307/307
f 307/307/307 301/301/301 300/300/300
f 308/308/308 302/302/302 305/305/305
f 305/305/305 309/309/309 308/308/308
f 310/310/310 311/311/311 312/312/312
f 312/312/312 304/304/304 310/310/310
f 301/301/301 307/307/307 312/312/312
f 312/312/312 311/311/311 301/301/301
f 313/313/313 311/311/311 310/310/310
f 301/301/301 311/311/311 313/313/313
f 313/313/313 298/298/298 301/301/301
f 308/308/308 309/309/309 314/314/314
f 315/315/315 308/308/308 314/314/314
f 316/316/316 317/317/317 318/318/318
f 318/318/318 319/319/319 316/316/316
f 320/320/320 321/321/321 322/322/322
f 322/322/322 323/323/323 320/320/320
f 323/323/323 316/316/316 319/319/319
f 319/319/319 320/320/320 323/323/323
f 132/132/132 130/130/130 137/137/137
f 138/138/138 133/133/133 132/132/132
f 127/127/127 130/130/130 132/132/132
f 132/132/132 134/134/134 131/131/131
f 111/111/111 324/324/324 112/112/112
f 109/109/109 111/111/111 110/110/110
f 108/108/108 325/325/325 109/109/109
f 120/120/120 116/116/116 112/112/112
f 112/112/112 117/117/117 120/120/120
f 111/111/111 113/113/113 110/110/110
f 107/107/107 106/106/106 122/122/122
f 326/326/326 327/327/327 328/328/328
f 328/328/328 329/329/329 330/330/330
f 331/331/331 330/330/330 329/329/329
f 328/328/328 330/330/330 326/326/326
f 329/329/329 332/332/332 331/331/331
f 332/332/332 329/329/329 333/333/333
f 333/333/333 334/334/334 332/332/332
f 335/335/335 336/336/336 330/330/330
f 330/330/330 331/331/331 335/335/335
f 336/336/336 337/337/337 326/326/326
f 326/326/326 330/330/330 336/336/336
f 338/338/338 335/335/335 331/331/331
f 331/331/331 332/332/332 338/338/338
f 333/333/333 339/339/339 334/334/334
f 340/340/340 341/341/341 336/336/336
f 336/336/336 335/335/335 340/340/340
f 341/341/341 342/342/342 337/337/337
f 337/337/337 336/336/336 341/341/341
f 343/343/343 344/344/344 335/335/335
f 335/335/335 338/338/338 343/343/343
f 345/345/345 343/343/343 338/338/338
f 338/338/338 332/332/332 345/345/345
f 335/335/335 346/346/346 340/340/340
f 346/346/346 335/335/335 344/344/344
f 341/341/341 340/340/340 347/347/347
f 347/347/347 348/348/348 341/341/341
f 348/348/348 349/349/349 342/342/342
f 342/342/342 341/341/341 348/348/348
f 350/350/350 347/347/347 340/340/340
f 340/340/340 346/346/346 350/350/350
f 351/351/351 352/352/352 353/353/353
f 353/353/353 354/354/354 351/351/351
f 352/352/352 355/355/355 356/356/356
f 356/356/356 353/353/353 352/352/352
f 357/357/357 358/358/358 352/352/352
f 352/352/352 351/351/351 357/357/357
f 358/358/358 359/359/359 355/355/355
f 355/355/355 352/352/352 358/358/358
f 360/360/360 361/361/361 358/358/358
f 358/358/358 357/357/357 360/360/360
f 361/361/361 362/362/362 359/359/359
f 359/359/359 358/358/358 361/361/361
f 363/363/363 364/364/364 361/361/361
f 361/361/361 360/360/360 363/363/363
f 364/364/364 365/365/365 362/362/362
f 362/362/362 361/361/361 364/364/364
f 53/53/53 13/13/13 54/54/54
f 8/8/8 55/55/55 54/54/54
f 37/37/37 366/366/366 367/367/367
f 367/367/367 366/366/366 55/55/55
f 41/41/41 36/36/36 56/56/56
f 54/54/54 13/13/13 8/8/8
f 1/1/1 3/3/3 368/368/368
f 369/369/369 368/368/368 3/3/3
f 5/5/5 370/370/370 6/6/6
f 370/370/370 5/5/5 371/371/371
f 9/9/9 372/372/372 373/373/373
f 373/373/373 12/12/12 9/9/9
f 374/374/374 12/12/12 373/373/373
f 375/375/375 376/376/376 377/377/377
f 378/378/378 379/379/379 380/380/380
f 381/381/381 22/22/22 382/382/382
f 23/23/23 381/381/381 24/24/24
f 383/383/383 27/27/27 26/26/26
f 26/26/26 384/384/384 383/383/383
f 385/385/385 386/386/386 387/387/387
f 27/27/27 383/383/383 379/379/379
f 379/379/379 32/32/32 27/27/27
f 385/385/385 388/388/388 386/386/386
f 389/389/389 379/379/379 378/378/378
f 384/384/384 390/390/390 391/391/391
f 385/385/385 387/387/387 392/392/392
f 386/386/386 393/393/393 387/387/387
f 394/394/394 388/388/388 385/385/385
f 388/388/388 394/394/394 395/395/395
f 396/396/396 384/384/384 42/42/42
f 42/42/42 43/43/43 396/396/396
f 385/385/385 392/392/392 394/394/394
f 397/397/397 398/398/398 399/399/399
f 399/399/399 400/400/400 397/397/397
f 399/399/399 401/401/401 400/400/400
f 401/401/401 399/399/399 49/49/49
f 23/23/23 22/22/22 381/381/381
f 402/402/402 382/382/382 22/22/22
f 382/382/382 402/402/402 403/403/403
f 403/403/403 404/404/404 382/382/382
f 405/405/405 406/406/406 407/407/407
f 396/396/396 408/408/408 409/409/409
f 390/390/390 384/384/384 396/396/396
f 410/410/410 408/408/408 396/396/396
f 396/396/396 411/411/411 410/410/410
f 411/411/411 396/396/396 43/43/43
f 43/43/43 60/60/60 411/411/411
f 369/369/369 397/397/397 368/368/368
f 397/397/397 369/369/369 398/398/398
f 61/61/61 62/62/62 404/404/404
f 404/404/404 403/403/403 61/61/61
f 412/412/412 402/402/402 64/64/64
f 64/64/64 65/65/65 412/412/412
f 402/402/402 412/412/412 413/413/413
f 372/372/372 414/414/414 386/386/386
f 372/372/372 9/9/9 68/68/68
f 415/415/415 397/397/397 416/416/416
f 397/397/397 415/415/415 368/368/368
f 72/72/72 73/73/73 415/415/415
f 368/368/368 415/415/415 73/73/73
f 415/415/415 417/417/417 72/72/72
f 418/418/418 419/419/419 416/416/416
f 420/420/420 416/416/416 419/419/419
f 421/421/421 416/416/416 420/420/420
f 421/421/421 422/422/422 415/415/415
f 423/423/423 84/84/84 83/83/83
f 84/84/84 423/423/423 401/401/401
f 416/416/416 397/397/397 400/400/400
f 400/400/400 418/418/418 416/416/416
f 424/424/424 393/393/393 386/386/386
f 414/414/414 424/424/424 386/386/386
f 413/413/413 403/403/403 402/402/402
f 403/403/403 413/413/413 86/86/86
f 86/86/86 61/61/61 403/403/403
f 22/22/22 64/64/64 402/402/402
f 73/73/73 1/1/1 368/368/368
f 386/386/386 388/388/388 425/425/425
f 388/388/388 395/395/395 425/425/425
f 395/395/395 374/374/374 373/373/373
f 394/394/394 374/374/374 395/395/395
f 374/374/374 5/5/5 12/12/12
f 5/5/5 374/374/374 371/371/371
f 371/371/371 406/406/406 426/426/426
f 383/383/383 380/380/380 379/379/379
f 384/384/384 26/26/26 42/42/42
f 377/377/377 376/376/376 424/424/424
f 427/427/427 428/428/428 429/429/429
f 430/430/430 431/431/431 432/432/432
f 424/424/424 414/414/414 68/68/68
f 414/414/414 372/372/372 68/68/68
f 383/383/383 384/384/384 391/391/391
f 401/401/401 49/49/49 84/84/84
f 371/371/371 426/426/426 370/370/370
f 424/424/424 376/376/376 393/393/393
f 433/433/433 83/83/83 96/96/96
f 83/83/83 433/433/433 423/423/423
f 400/400/400 423/423/423 418/418/418
f 423/423/423 400/400/400 401/401/401
f 423/423/423 419/419/419 418/418/418
f 419/419/419 423/423/423 433/433/433
f 386/386/386 425/425/425 372/372/372
f 425/425/425 373/373/373 372/372/372
f 425/425/425 395/395/395 373/373/373
f 434/434/434 435/435/435 436/436/436
f 435/435/435 434/434/434 437/437/437
f 438/438/438 439/439/439 440/440/440
f 439/439/439 438/438/438 441/441/441
f 442/442/442 443/443/443 444/444/444
f 445/445/445 446/446/446 447/447/447
f 448/448/448 449/449/449 450/450/450
f 451/451/451 449/449/449 452/452/452
f 453/453/453 449/449/449 451/451/451
f 454/454/454 455/455/455 456/456/456
f 453/453/453 450/450/450 449/449/449
f 457/457/457 455/455/455 454/454/454
f 458/458/458 439/439/439 441/441/441
f 439/439/439 458/458/458 436/436/436
f 437/437/437 459/459/459 443/443/443
f 442/442/442 444/444/444 460/460/460
f 434/434/434 436/436/436 458/458/458
f 437/437/437 434/434/434 459/459/459
f 461/461/461 126/126/126 125/125/125
f 462/462/462 463/463/463 464/464/464
f 463/463/463 462/462/462 465/465/465
f 466/466/466 467/467/467 462/462/462
f 467/467/467 134/134/134 133/133/133
f 468/468/468 463/463/463 461/461/461
f 463/463/463 468/468/468 464/464/464
f 468/468/468 125/125/125 136/136/136
f 125/125/125 468/468/468 461/461/461
f 469/469/469 467/467/467 138/138/138
f 126/126/126 461/461/461 470/470/470
f 463/463/463 470/470/470 461/461/461
f 470/470/470 463/463/463 471/471/471
f 469/469/469 463/463/463 465/465/465
f 471/471/471 463/463/463 469/469/469
f 472/472/472 473/473/473 474/474/474
f 475/475/475 476/476/476 477/477/477
f 478/478/478 479/479/479 480/480/480
f 472/472/472 474/474/474 481/481/481
f 474/474/474 482/482/482 481/481/481
f 483/483/483 484/484/484 485/485/485
f 484/484/484 483/483/483 486/486/486
f 487/487/487 488/488/488 489/489/489
f 490/490/490 491/491/491 492/492/492
f 493/493/493 494/494/494 495/495/495
f 492/492/492 491/491/491 496/496/496
f 494/494/494 488/488/488 487/487/487
f 487/487/487 495/495/495 494/494/494
f 497/497/497 498/498/498 499/499/499
f 498/498/498 497/497/497 500/500/500
f 486/486/486 501/501/501 502/502/502
f 501/501/501 486/486/486 483/483/483
f 500/500/500 503/503/503 498/498/498
f 503/503/503 500/500/500 504/504/504
f 505/505/505 506/506/506 507/507/507
f 506/506/506 505/505/505 508/508/508
f 484/484/484 486/486/486 496/496/496
f 486/486/486 505/505/505 496/496/496
f 505/505/505 486/486/486 502/502/502
f 509/509/509 503/503/503 504/504/504
f 503/503/503 509/509/509 501/501/501
f 483/483/483 485/485/485 488/488/488
f 479/479/479 478/478/478 482/482/482
f 484/484/484 496/496/496 491/491/491
f 499/499/499 494/494/494 493/493/493
f 494/494/494 499/499/499 498/498/498
f 502/502/502 509/509/509 510/510/510
f 509/509/509 502/502/502 501/501/501
f 498/498/498 488/488/488 494/494/494
f 488/488/488 498/498/498 503/503/503
f 496/496/496 507/507/507 492/492/492
f 507/507/507 496/496/496 505/505/505
f 505/505/505 510/510/510 508/508/508
f 510/510/510 505/505/505 502/502/502
f 503/503/503 483/483/483 488/488/488
f 483/483/483 503/503/503 501/501/501
f 488/488/488 485/485/485 489/489/489
f 511/511/511 512/512/512 513/513/513
f 514/514/514 515/515/515 516/516/516
f 517/517/517 518/518/518 519/519/519
f 520/520/520 521/521/521 522/522/522
f 523/523/523 524/524/524 525/525/525
f 526/526/526 527/527/527 528/528/528
f 529/529/529 530/530/530 531/531/531
f 532/532/532 533/533/533 534/534/534
f 535/535/535 536/536/536 537/537/537
f 538/538/538 539/539/539 540/540/540
f 541/541/541 542/542/542 543/543/543
f 544/544/544 545/545/545 546/546/546
f 547/547/547 548/548/548 549/549/549
f 550/550/550 551/551/551 552/552/552
f 482/482/482 478/478/478 481/481/481
f 477/477/477 476/476/476 553/553/553
f 554/554/554 555/555/555 556/556/556
f 557/557/557 558/558/558 559/559/559
f 480/480/480 479/479/479 553/553/553
f 480/480/480 553/553/553 476/476/476
f 560/560/560 561/561/561 562/562/562
f 561/561/561 560/560/560 563/563/563
f 564/564/564 565/565/565 566/566/566
f 565/565/565 564/564/564 567/567/567
f 568/568/568 563/563/563 560/560/560
f 563/563/563 568/568/568 569/569/569
f 568/568/568 570/570/570 569/569/569
f 570/570/570 568/568/568 571/571/571
f 572/572/572 573/573/573 574/574/574
f 573/573/573 572/572/572 561/561/561
f 561/561/561 575/575/575 562/562/562
f 575/575/575 561/561/561 572/572/572
f 563/563/563 573/573/573 561/561/561
f 573/573/573 563/563/563 576/576/576
f 577/577/577 572/572/572 574/574/574
f 576/576/576 563/563/563 578/578/578
f 564/564/564 577/577/577 567/567/567
f 577/577/577 564/564/564 575/575/575
f 572/572/572 577/577/577 575/575/575
f 579/579/579 574/574/574 573/573/573
f 576/576/576 579/579/579 573/573/573
f 578/578/578 563/563/563 569/569/569
f 580/580/580 575/575/575 581/581/581
f 575/575/575 580/580/580 562/562/562
f 582/582/582 583/583/583 584/584/584
f 583/583/583 582/582/582 585/585/585
f 571/571/571 585/585/585 582/582/582
f 585/585/585 571/571/571 568/568/568
f 586/586/586 580/580/580 581/581/581
f 580/580/580 586/586/586 587/587/587
f 583/583/583 588/588/588 589/589/589
f 588/588/588 583/583/583 585/585/585
f 590/590/590 581/581/581 591/591/591
f 581/581/581 590/590/590 586/586/586
f 590/590/590 592/592/592 593/593/593
f 592/592/592 590/590/590 591/591/591
f 589/589/589 580/580/580 587/587/587
f 580/580/580 589/589/589 588/588/588
f 591/591/591 575/575/575 564/564/564
f 575/575/575 591/591/591 581/581/581
f 566/566/566 591/591/591 564/564/564
f 591/591/591 566/566/566 592/592/592
f 562/562/562 588/588/588 560/560/560
f 588/588/588 562/562/562 580/580/580
f 560/560/560 585/585/585 568/568/568
f 585/585/585 560/560/560 588/588/588
f 594/594/594 595/595/595 596/596/596
f 595/595/595 594/594/594 597/597/597
f 598/598/598 597/597/597 594/594/594
f 597/597/597 598/598/598 599/599/599
f 595/595/595 600/600/600 596/596/596
f 600/600/600 595/595/595 601/601/601
f 602/602/602 599/599/599 598/598/598
f 599/599/599 602/602/602 603/603/603
f 604/604/604 600/600/600 601/601/601
f 600/600/600 604/604/604 605/605/605
f 605/605/605 606/606/606 607/607/607
f 606/606/606 605/605/605 604/604/604
f 596/596/596 586/586/586 608/608/608
f 586/586/586 596/596/596 587/587/587
f 608/608/608 590/590/590 609/609/609
f 590/590/590 608/608/608 586/586/586
f 609/609/609 593/593/593 602/602/602
f 593/593/593 609/609/609 590/590/590
f 600/600/600 583/583/583 589/589/589
f 583/583/583 600/600/600 605/605/605
f 587/587/587 600/600/600 589/589/589
f 600/600/600 587/587/587 596/596/596
f 594/594/594 596/596/596 608/608/608
f 594/594/594 609/609/609 598/598/598
f 609/609/609 594/594/594 608/608/608
f 605/605/605 584/584/584 583/583/583
f 584/584/584 605/605/605 607/607/607
f 598/598/598 609/609/609 602/602/602
f 574/574/574 610/610/610 577/577/577
f 611/611/611 576/576/576 578/578/578
f 610/610/610 574/574/574 579/579/579
f 612/612/612 579/579/579 611/611/611
f 610/610/610 579/579/579 612/612/612
f 611/611/611 579/579/579 576/576/576
f 613/613/613 614/614/614 615/615/615
f 614/614/614 613/613/613 616/616/616
f 617/617/617 616/616/616 613/613/613
f 616/616/616 617/617/617 618/618/618
f 619/619/619 620/620/620 621/621/621
f 620/620/620 619/619/619 291/291/291
f 615/615/615 619/619/619 621/621/621
f 619/619/619 615/615/615 614/614/614
f 622/622/622 618/618/618 617/617/617
f 618/618/618 622/622/622 623/623/623
f 624/624/624 623/623/623 622/622/622
f 623/623/623 624/624/624 295/295/295
f 625/625/625 617/617/617 613/613/613
f 626/626/626 617/617/617 625/625/625
f 617/617/617 626/626/626 622/622/622
f 622/622/622 626/626/626 624/624/624
f 627/627/627 300/300/300 299/299/299
f 300/300/300 627/627/627 628/628/628
f 629/629/629 630/630/630 631/631/631
f 630/630/630 629/629/629 632/632/632
f 300/300/300 633/633/633 306/306/306
f 633/633/633 300/300/300 628/628/628
f 634/634/634 632/632/632 629/629/629
f 632/632/632 634/634/634 309/309/309
f 635/635/635 636/636/636 637/637/637
f 636/636/636 635/635/635 630/630/630
f 628/628/628 636/636/636 633/633/633
f 636/636/636 628/628/628 637/637/637
f 638/638/638 635/635/635 637/637/637
f 628/628/628 638/638/638 637/637/637
f 638/638/638 628/628/628 627/627/627
f 634/634/634 314/314/314 309/309/309
f 315/315/315 314/314/314 634/634/634
f 639/639/639 318/318/318 317/317/317
f 318/318/318 639/639/639 640/640/640
f 641/641/641 322/322/322 321/321/321
f 322/322/322 641/641/641 642/642/642
f 642/642/642 640/640/640 639/639/639
f 640/640/640 642/642/642 641/641/641
f 467/467/467 469/469/469 465/465/465
f 138/138/138 467/467/467 133/133/133
f 462/462/462 467/467/467 465/465/465
f 467/467/467 466/466/466 134/134/134
f 448/448/448 450/450/450 643/643/643
f 447/447/447 446/446/446 448/448/448
f 445/445/445 447/447/447 644/644/644
f 457/457/457 450/450/450 453/453/453
f 450/450/450 457/457/457 454/454/454
f 448/448/448 446/446/446 449/449/449
f 443/443/443 459/459/459 444/444/444
f 326/326/326 645/645/645 327/327/327
f 645/645/645 646/646/646 647/647/647
f 648/648/648 647/647/647 646/646/646
f 645/645/645 326/326/326 646/646/646
f 647/647/647 648/648/648 649/649/649
f 649/649/649 650/650/650 647/647/647
f 650/650/650 649/649/649 651/651/651
f 652/652/652 646/646/646 653/653/653
f 646/646/646 652/652/652 648/648/648
f 653/653/653 326/326/326 337/337/337
f 326/326/326 653/653/653 646/646/646
f 654/654/654 648/648/648 652/652/652
f 648/648/648 654/654/654 649/649/649
f 650/650/650 651/651/651 339/339/339
f 655/655/655 653/653/653 656/656/656
f 653/653/653 655/655/655 652/652/652
f 656/656/656 337/337/337 342/342/342
f 337/337/337 656/656/656 653/653/653
f 657/657/657 652/652/652 658/658/658
f 652/652/652 657/657/657 654/654/654
f 659/659/659 654/654/654 657/657/657
f 654/654/654 659/659/659 649/649/649
f 652/652/652 655/655/655 660/660/660
f 660/660/660 658/658/658 652/652/652
f 656/656/656 661/661/661 655/655/655
f 661/661/661 656/656/656 662/662/662
f 662/662/662 342/342/342 349/349/349
f 342/342/342 662/662/662 656/656/656
f 663/663/663 655/655/655 661/661/661
f 655/655/655 663/663/663 660/660/660
f 664/664/664 665/665/665 666/666/666
f 665/665/665 664/664/664 667/667/667
f 666/666/666 356/356/356 355/355/355
f 356/356/356 666/666/666 665/665/665
f 668/668/668 666/666/666 669/669/669
f 666/666/666 668/668/668 664/664/664
f 669/669/669 355/355/355 359/359/359
f 355/355/355 669/669/669 666/666/666
f 670/670/670 669/669/669 671/671/671
f 669/669/669 670/670/670 668/668/668
f 671/671/671 359/359/359 362/362/362
f 359/359/359 671/671/671 669/669/669
f 672/672/672 671/671/671 673/673/673
f 671/671/671 672/672/672 670/670/670
f 673/673/673 362/362/362 365/365/365
f 362/362/362 673/673/673 671/671/671
f 405/405/405 407/407/407 374/374/374
f 371/371/371 407/407/407 406/406/406
f 392/392/392 674/674/674 675/675/675
f 674/674/674 406/406/406 675/675/675
f 396/396/396 409/409/409 390/390/390
f 407/407/407 371/371/371 374/374/374
f 415/415/415 422/422/422 417/417/417
f 74/74/74 72/72/72 75/75/75
f 416/416/416 421/421/421 415/415/415
f 76/76/76 80/80/80 81/81/81
