mtllib 0002631004.mtl
o 0002631004_part_0
v 0.314863026 0.0245631225 0.0444519445
v 0.326815516 0.02638623 0.219750643
v 0.129375964 0.0322904 0.128851563
v 0.08604208 0.0412672162 0.022606656
v 0.0263034254 0.04667033 -0.119034916
v 0.103900746 0.0392251946 -0.184789
v 0.188854411 0.03130252 -0.176496983
v 0.246417269 0.02642779 -0.0446966738
v 0.0263034254 0.04667033 -0.119034916
v 0.0731737241 0.167397588 -0.0973267257
v 0.120411694 0.167319611 -0.163985476
v 0.103900746 0.0392251946 -0.184789
v 0.0263034254 0.04667033 -0.119034916
v 0.156434953 0.314383924 -0.141192615
v 0.222119972 0.298163444 -0.05269236
v 0.191358313 0.165972412 -0.137196422
v 0.120411694 0.167319611 -0.163985476
v 0.071639955 0.306179523 -0.09056969
v 0.156434953 0.314383924 -0.141192615
v 0.156434953 0.314383924 -0.141192615
v 0.125986472 0.150619343 0.0350780524
v 0.08128297 0.303299278 -0.009168246
v 0.2215955 0.146670252 -0.04745373
v 0.273417145 0.109434806 0.0893691
v 0.314863026 0.0245631225 0.0444519445
v 0.314863026 0.0245631225 0.0444519445
v 0.246417269 0.02642779 -0.0446966738
v 0.1932488 0.172443941 0.0430088043
v 0.244154364 0.14413318 0.146849945
v 0.1932488 0.172443941 0.0430088043
v 0.125986472 0.150619343 0.0350780524
v 0.179839656 0.105804265 0.131035149
v 0.244154364 0.14413318 0.146849945
v 0.1932488 0.172443941 0.0430088043
v 0.0263034254 0.04667033 -0.119034916
v 0.08604208 0.0412672162 0.022606656
v 0.0263034254 0.04667033 -0.119034916
v 0.125986472 0.150619343 0.0350780524
v 0.129375964 0.0322904 0.128851563
v 0.129375964 0.0322904 0.128851563
v 0.125986472 0.150619343 0.0350780524
v 0.08604208 0.0412672162 0.022606656
v 0.157792971 0.299161553 0.05185041
v 0.188854411 0.03130252 -0.176496983
v 0.246417269 0.02642779 -0.0446966738
v 0.246417269 0.02642779 -0.0446966738
v 0.1932488 0.172443941 0.0430088043
v 0.157792971 0.299161553 0.05185041
v 0.157792971 0.299161553 0.05185041
v 0.188854411 0.03130252 -0.176496983
v 0.103900746 0.0392251946 -0.184789
v 0.120411694 0.167319611 -0.163985476
v 0.120411694 0.167319611 -0.163985476
v 0.188854411 0.03130252 -0.176496983
v 0.326815516 0.02638623 0.219750643
v 0.314863026 0.0245631225 0.0444519445
v 0.326815516 0.02638623 0.219750643
v 0.260790884 0.09879153 0.226721108
v 0.260790884 0.09879153 0.226721108
v 0.129375964 0.0322904 0.128851563
v 0.2720611 0.0221064277 0.331323326
v 0.260790884 0.09879153 0.226721108
v 0.244154364 0.14413318 0.146849945
v 0.2720611 0.0221064277 0.331323326
v 0.129375964 0.0322904 0.128851563
v 0.260790884 0.09879153 0.226721108
v 0.326815516 0.02638623 0.219750643
v 0.2720611 0.0221064277 0.331323326
v 0.241144955 0.1882142 0.00433957158
v 0.2430787 0.165340647 0.0716633648
v 0.2632279 0.124711588 0.0227068849
v 0.214965716 0.23900421 0.0730407238
v 0.1881591 0.166194543 0.09539902
v 0.134861529 0.200585067 0.06247914
v 0.137869671 0.128990456 0.08777138
v 0.228383079 0.311354429 0.0490425676
v 0.2096077 0.3437987 0.09931491
v 0.1407776 0.3447035 0.110142484
v 0.09871169 0.307541072 0.0600011125
v 0.21020025 0.304204732 0.03128237
v 0.194436625 0.3365814 0.0732867
v 0.13894473 0.335735053 0.0848801956
v 0.109139472 0.297048926 0.03322656
v 0.25131312 0.124811761 0.00774842268
v 0.230203256 0.188659132 -0.008543617
v 0.133776069 0.202683911 0.04335599
v 0.132672533 0.129476279 0.07017789
v -0.332943767 0.0259721726 0.05487492
v -0.145898938 0.0322132036 0.135901228
v -0.341807127 0.0277051739 0.230266571
v -0.104452744 0.04138279 0.0291128
v -0.1259976 0.0395335779 -0.177904591
v -0.0471940637 0.04642604 -0.11353945
v -0.266092271 0.0277301688 -0.035305392
v -0.210844517 0.0322109573 -0.168104678
v -0.0471940637 0.04642604 -0.11353945
v -0.141230822 0.1677402 -0.156819224
v -0.0928107649 0.167478547 -0.09100197
v -0.0471940637 0.04642604 -0.11353945
v -0.1259976 0.0395335779 -0.177904591
v -0.174925745 0.3149359 -0.135053322
v -0.211698264 0.166892737 -0.1287743
v -0.2387837 0.29999572 -0.0450040922
v -0.141230822 0.1677402 -0.156819224
v -0.174925745 0.3149359 -0.135053322
v -0.08911511 0.305700719 -0.08635578
v -0.174925745 0.3149359 -0.135053322
v -0.0969238952 0.303265184 -0.004743472
v -0.143365666 0.151040241 0.0423084758
v -0.240471736 0.147799775 -0.0385069363
v -0.332943767 0.0259721726 0.05487492
v -0.290165454 0.110587448 0.09904124
v -0.332943767 0.0259721726 0.05487492
v -0.266092271 0.0277301688 -0.035305392
v -0.210288957 0.173339412 0.0514432378
v -0.2595108 0.145054489 0.156031311
v -0.210288957 0.173339412 0.0514432378
v -0.1957076 0.106201008 0.139065072
v -0.143365666 0.151040241 0.0423084758
v -0.210288957 0.173339412 0.0514432378
v -0.2595108 0.145054489 0.156031311
v -0.104452744 0.04138279 0.0291128
v -0.0471940637 0.04642604 -0.11353945
v -0.0471940637 0.04642604 -0.11353945
v -0.143365666 0.151040241 0.0423084758
v -0.145898938 0.0322132036 0.135901228
v -0.145898938 0.0322132036 0.135901228
v -0.104452744 0.04138279 0.0291128
v -0.143365666 0.151040241 0.0423084758
v -0.172061861 0.300459236 0.05803061
v -0.210844517 0.0322109573 -0.168104678
v -0.266092271 0.0277301688 -0.035305392
v -0.266092271 0.0277301688 -0.035305392
v -0.172061861 0.300459236 0.05803061
v -0.210288957 0.173339412 0.0514432378
v -0.172061861 0.300459236 0.05803061
v -0.210844517 0.0322109573 -0.168104678
v -0.141230822 0.1677402 -0.156819224
v -0.1259976 0.0395335779 -0.177904591
v -0.141230822 0.1677402 -0.156819224
v -0.210844517 0.0322109573 -0.168104678
v -0.341807127 0.0277051739 0.230266571
v -0.332943767 0.0259721726 0.05487492
v -0.341807127 0.0277051739 0.230266571
v -0.2751553 0.09964332 0.236060932
v -0.2751553 0.09964332 0.236060932
v -0.285111427 0.0230315942 0.3408495
v -0.145898938 0.0322132036 0.135901228
v -0.2751553 0.09964332 0.236060932
v -0.2595108 0.145054489 0.156031311
v -0.285111427 0.0230315942 0.3408495
v -0.145898938 0.0322132036 0.135901228
v -0.2751553 0.09964332 0.236060932
v -0.341807127 0.0277051739 0.230266571
v -0.285111427 0.0230315942 0.3408495
v -0.258797467 0.189479321 0.0136260986
v -0.28101328 0.12605831 0.03234614
v -0.259656072 0.166542292 0.08095598
v -0.231050134 0.240076408 0.08184484
v -0.204204 0.166954219 0.103731371
v -0.154290169 0.1292729 0.09516841
v -0.15141207 0.201087385 0.06986507
v -0.24251613 0.313657254 0.05679304
v -0.222127035 0.346016049 0.106488593
v -0.153060168 0.345969737 0.115730621
v -0.112694845 0.3080172 0.06478961
v -0.224850714 0.306179732 0.0386497527
v -0.207663327 0.338483334 0.0801489
v -0.151937351 0.336881042 0.09046976
v -0.123884775 0.297575951 0.0383043624
v -0.2693585 0.1261098 0.0171973761
v -0.248088151 0.189846352 0.0005481877
v -0.150657371 0.203183576 0.0507251732
v -0.1495117 0.129835114 0.0774968639
v 0.08128297 0.303299278 -0.009168246
v 0.157792971 0.299161553 0.05185041
v 0.222119972 0.298163444 -0.05269236
v 0.071639955 0.306179523 -0.09056969
v 0.08128297 0.303299278 -0.009168246
v 0.222119972 0.298163444 -0.05269236
v 0.156434953 0.314383924 -0.141192615
v 0.071639955 0.306179523 -0.09056969
v 0.222119972 0.298163444 -0.05269236
v -0.0969238952 0.303265184 -0.004743472
v -0.08911511 0.305700719 -0.08635578
v -0.174925745 0.3149359 -0.135053322
v -0.172061861 0.300459236 0.05803061
v -0.0969238952 0.303265184 -0.004743472
v -0.174925745 0.3149359 -0.135053322
v -0.2387837 0.29999572 -0.0450040922
v -0.172061861 0.300459236 0.05803061
v -0.174925745 0.3149359 -0.135053322
vt 0.4775294 0.6539793
vt 0.451015532 0.7350124
vt 0.341546774 0.6689804
vt 0.349910617 0.525128067
vt 0.353664279 0.41171205
vt 0.4183911 0.3905465
vt 0.466904581 0.421506047
vt 0.464616537 0.5275233
vt 0.8906485 0.0180761814
vt 0.8906485 0.204518676
vt 0.9879019 0.204518676
vt 0.9879019 0.0180761814
vt 0.8906485 0.0180761814
vt 0.8906485 0.487245679
vt 0.7198147 0.487245679
vt 0.7495457 0.204518676
vt 0.8906485 0.204518676
vt 0.8906485 0.487245679
vt 0.9879019 0.487245679
vt 0.9879019 0.487245679
vt 0.5989301 0.204518676
vt 0.7198183 0.487245679
vt 0.598896 0.204518676
vt 0.3225403 0.153639257
vt 0.362103254 0.0217984915
vt 0.362103254 0.0217984915
vt 0.5667534 0.0180761814
vt 0.479011774 0.254029632
vt 0.24143213 0.211726069
vt 0.2951714 0.480058372
vt 0.245661527 0.360139132
vt 0.194782138 0.6365597
vt 0.252839684 0.7176404
vt 0.2951714 0.480058372
vt 0.8906485 0.0180761814
vt 0.6312774 0.0180761218
vt 0.8906485 0.0180761814
vt 0.245661527 0.360139132
vt 0.0629413053 0.5981047
vt 0.0629413053 0.5981047
vt 0.245661527 0.360139132
vt 0.05921898 0.3277918
vt 0.58008 0.487245679
vt 0.7626791 0.0180761814
vt 0.5667534 0.0180761814
vt 0.5667534 0.0180761814
vt 0.47901088 0.254028559
vt 0.5801398 0.487245679
vt 0.5801398 0.487245679
vt 0.7626791 0.0180761814
vt 0.8906485 0.0180761814
vt 0.8906485 0.204518676
vt 0.8906485 0.204518676
vt 0.7626791 0.0180761814
vt 0.134747669 0.0180761814
vt 0.362103254 0.0217984915
vt 0.134747669 0.0180761814
vt 0.115924448 0.144333482
vt 0.1854763 0.843184531
vt 0.0629413053 0.5981047
vt 0.05921901 0.9493379
vt 0.1854763 0.843184531
vt 0.252839684 0.7176404
vt 0.3907792 0.792086542
vt 0.0629413053 0.5981047
vt 0.1854763 0.843184531
vt 0.134747669 0.0180761814
vt 0.009768674 0.0180761814
vt 0.9375 0.71484375
vt 0.84765625 0.953125
vt 0.9375 0.953125
vt 0.76171875 0.71484375
vt 0.6796875 0.953125
vt 0.58203125 0.71484375
vt 0.58203125 0.953125
vt 0.9375 0.55078125
vt 0.8359375 0.55078125
vt 0.6796875 0.55078125
vt 0.58203125 0.55078125
vt 0.97265625 0.53125
vt 0.8359375 0.53125
vt 0.6796875 0.53125
vt 0.55078125 0.53125
vt 0.97265625 0.953125
vt 0.97265625 0.71484375
vt 0.55078125 0.71484375
vt 0.55078125 0.953125
vt 0.4775294 0.6539793
vt 0.341546774 0.6689804
vt 0.451015532 0.7350124
vt 0.349910617 0.525128067
vt 0.4183911 0.3905465
vt 0.353664279 0.41171205
vt 0.464616537 0.5275233
vt 0.466904581 0.421506047
vt 0.8906485 0.0180761814
vt 0.9879019 0.204518676
vt 0.8906485 0.204518676
vt 0.8906485 0.0180761814
vt 0.9879019 0.0180761814
vt 0.8906485 0.487245679
vt 0.7495457 0.204518676
vt 0.7198147 0.487245679
vt 0.8906485 0.204518676
vt 0.9879019 0.487245679
vt 0.8906485 0.487245679
vt 0.9879019 0.487245679
vt 0.7198183 0.487245679
vt 0.5989301 0.204518676
vt 0.598896 0.204518676
vt 0.362103254 0.0217984915
vt 0.3225403 0.153639257
vt 0.362103254 0.0217984915
vt 0.5667534 0.0180761814
vt 0.479011774 0.254029632
vt 0.24143213 0.211726069
vt 0.2951714 0.480058372
vt 0.194782138 0.6365597
vt 0.245661527 0.360139132
vt 0.2951714 0.480058372
vt 0.252839684 0.7176404
vt 0.6312774 0.0180761218
vt 0.8906485 0.0180761814
vt 0.8906485 0.0180761814
vt 0.245661527 0.360139132
vt 0.0629413053 0.5981047
vt 0.0629413053 0.5981047
vt 0.05921898 0.3277918
vt 0.245661527 0.360139132
vt 0.58008 0.487245679
vt 0.7626791 0.0180761814
vt 0.5667534 0.0180761814
vt 0.5667534 0.0180761814
vt 0.5801398 0.487245679
vt 0.47901088 0.254028559
vt 0.5801398 0.487245679
vt 0.7626791 0.0180761814
vt 0.8906485 0.204518676
vt 0.8906485 0.0180761814
vt 0.8906485 0.204518676
vt 0.7626791 0.0180761814
vt 0.134747669 0.0180761814
vt 0.362103254 0.0217984915
vt 0.134747669 0.0180761814
vt 0.115924448 0.144333482
vt 0.1854763 0.843184531
vt 0.05921901 0.9493379
vt 0.0629413053 0.5981047
vt 0.1854763 0.843184531
vt 0.252839684 0.7176404
vt 0.3907792 0.792086542
vt 0.0629413053 0.5981047
vt 0.1854763 0.843184531
vt 0.134747669 0.0180761814
vt 0.009768674 0.0180761814
vt 0.9375 0.71484375
vt 0.9375 0.953125
vt 0.84765625 0.953125
vt 0.76171875 0.71484375
vt 0.6796875 0.953125
vt 0.58203125 0.953125
vt 0.58203125 0.71484375
vt 0.9375 0.55078125
vt 0.8359375 0.55078125
vt 0.6796875 0.55078125
vt 0.58203125 0.55078125
vt 0.97265625 0.53125
vt 0.8359375 0.53125
vt 0.6796875 0.53125
vt 0.55078125 0.53125
vt 0.97265625 0.953125
vt 0.97265625 0.71484375
vt 0.55078125 0.71484375
vt 0.55078125 0.953125
vt 0.7198183 0.487245679
vt 0.5801398 0.487245679
vt 0.7198147 0.487245679
vt 0.8906485 0.487245679
vt 0.7198183 0.487245679
vt 0.7198147 0.487245679
vt 0.8906485 0.487245679
vt 0.8906485 0.487245679
vt 0.7198147 0.487245679
vt 0.7198183 0.487245679
vt 0.8906485 0.487245679
vt 0.9879019 0.487245679
vt 0.58008 0.487245679
vt 0.7198183 0.487245679
vt 0.9879019 0.487245679
vt 0.7198147 0.487245679
vt 0.58008 0.487245679
vt 0.9879019 0.487245679
vn -0.0553112738 -0.998447061 0.0066392594
vn -0.0205513332 -0.999582946 -0.0202868991
vn -0.047747422 -0.9982856 -0.033853732
vn -0.08120006 -0.9966167 -0.0127122514
vn -0.09407843 -0.9955633 0.00170131947
vn -0.09279835 -0.995681942 0.00242561661
vn -0.09323196 -0.9956368 0.00389406481
vn -0.08345621 -0.996278644 0.021539228
vn -0.7518457 0.3877763 -0.5332519
vn -0.964760244 0.216027886 -0.150231779
vn -0.7455333 0.297050536 -0.596608043
vn -0.6216159 0.2029958 -0.756562233
vn -0.6216159 0.2029958 -0.756562233
vn 0.70330435 0.1467683 -0.6955732
vn 0.9896384 0.129340664 -0.06234439
vn 0.7242964 0.136656925 -0.675810337
vn 0.3536193 0.058073584 -0.9335849
vn -0.8945039 0.0118731111 -0.446902424
vn -0.514836848 0.0360131375 -0.856531441
vn -0.783574641 0.278047144 -0.555608332
vn -0.7479271 0.0393173955 0.6626154
vn -0.887626469 -0.041553 0.458685726
vn 0.9572299 0.229222283 -0.176544577
vn 0.791079938 0.608529 -0.0623300672
vn 0.8425495 0.507273 -0.181064665
vn 0.7858899 0.148468167 -0.6002785
vn 0.7858899 0.148468152 -0.6002785
vn 0.8495607 0.498034149 0.17380628
vn 0.7886656 0.614049 0.0308286734
vn -0.316560477 0.77887845 0.541422069
vn -0.316560477 0.77887845 0.541422069
vn -0.5997076 0.574999154 0.556531
vn -0.535653651 0.7105339 0.456307679
vn -0.535653651 0.7105339 0.456307679
vn -0.8811608 0.278277218 0.382253051
vn -0.8811608 0.278277218 0.382253081
vn -0.88124156 0.2727086 0.3860613
vn -0.6752932 0.4461102 0.587337
vn -0.6752932 0.446110219 0.587337
vn -0.8809599 0.278139681 0.382815778
vn -0.8809599 0.278139681 0.382815778
vn -0.8809599 0.278139681 0.3828158
vn 0.8356527 0.1980719 0.5123007
vn 0.913297236 0.09836108 -0.3952382
vn 0.913297236 0.09836108 -0.395238161
vn 0.94226414 0.188160971 -0.277008623
vn -0.08662702 -0.09344373 0.991848767
vn -0.08662702 -0.09344374 0.991848767
vn -0.62141037 0.044737678 0.782206953
vn 0.109548479 0.14556931 -0.9832643
vn 0.109548487 0.14556931 -0.9832643
vn 0.109548487 0.14556931 -0.9832643
vn 0.345656723 0.256947666 -0.902496159
vn 0.345656753 0.256947666 -0.902496159
vn 0.882678568 0.465457082 -0.06502492
vn 0.882678568 0.4654571 -0.06502492
vn 0.7393286 0.6626893 0.119314894
vn 0.75169915 0.6250221 0.21046561
vn -0.65583843 0.5733889 0.4910205
vn -0.65583843 0.5733889 0.4910205
vn -0.65583843 0.5733889 0.49102053
vn -0.530861 0.6847537 0.499298483
vn -0.530861 0.6847537 0.499298453
vn -0.009977365 -0.999015868 -0.0432175174
vn -0.6688476 0.441363 0.5981986
vn -0.6688476 0.441363 0.5981986
vn 0.704215348 0.6066462 0.368864655
vn 0.704215348 0.6066462 0.3688647
vn 0.9105533 0.2385274 -0.3376351
vn 0.84932363 0.3151588 0.423467
vn 0.9256623 0.2364728 -0.295347154
vn 0.591015458 0.0056909523 0.806640148
vn -0.100513011 0.291988939 0.951125443
vn -0.808778942 -0.03962874 0.5867761
vn -0.760934 0.213441163 0.6127172
vn 0.82284987 0.5180388 -0.233567744
vn 0.5427988 0.652628243 0.5286263
vn -0.348741 0.639688849 0.6849656
vn -0.939786136 0.3394825 0.0394161642
vn 0.475697041 0.5566757 -0.681046665
vn 0.210967839 0.898800135 -0.3842537
vn -0.2906072 0.9030105 -0.31641674
vn -0.9335013 0.04554911 -0.3556692
vn 0.776951253 0.0911115557 -0.6229329
vn 0.739837766 0.2102755 -0.6390808
vn -0.986515 -0.1544409 0.0541867837
vn -0.9513796 0.1185074 0.284311116
vn 0.04863575 -0.998811 0.00334109925
vn 0.040434245 -0.998488843 -0.03721688
vn 0.0129064238 -0.99969697 -0.0209630933
vn 0.07436641 -0.997098744 -0.01623943
vn 0.08578565 -0.9963134 0.0006486678
vn 0.0872812048 -0.9961837 -0.000185040539
vn 0.07725983 -0.9968438 0.01825776
vn 0.08624365 -0.9962715 0.0022642035
vn 0.7449796 0.382488459 -0.5465418
vn 0.738155544 0.286852658 -0.610607862
vn 0.964746 0.20322521 -0.167226553
vn 0.6095006 0.1986448 -0.767495453
vn 0.6095006 0.1986448 -0.767495453
vn -0.7159909 0.148917615 -0.682041466
vn -0.736647546 0.14086239 -0.661444
vn -0.9885361 0.144499823 -0.04377402
vn -0.369810373 0.05251375 -0.927622
vn 0.494798124 0.0159763917 -0.8688611
vn 0.8823137 -0.007771827 -0.470597565
vn 0.777757 0.262491852 -0.571132243
vn 0.8975538 -0.0509817339 0.437947482
vn 0.75848484 0.0361047 0.6506898
vn -0.95789206 0.239355966 -0.158592388
vn -0.8425505 0.512479067 -0.165752247
vn -0.7881511 0.613660157 -0.0473192
vn -0.795184851 0.1540392 -0.586475
vn -0.795184851 0.154039189 -0.586475
vn -0.8398027 0.509125531 0.1884747
vn -0.7830074 0.6203077 0.0460196622
vn 0.33162123 0.7746915 0.5384054
vn 0.6137152 0.5685642 0.5478033
vn 0.33162123 0.7746915 0.5384054
vn 0.548798144 0.7051506 0.448980182
vn 0.5487982 0.7051506 0.448980182
vn 0.889786 0.2716154 0.366750568
vn 0.889786 0.271615416 0.366750568
vn 0.889887035 0.2663942 0.3703177
vn 0.6891086 0.439263 0.576348245
vn 0.68910867 0.439263016 0.576348245
vn 0.8892225 0.271215856 0.368409067
vn 0.8892225 0.271215856 0.3684091
vn 0.8892225 0.271215856 0.3684091
vn -0.819453359 0.218976215 0.5296656
vn -0.9194486 0.104841769 -0.37897554
vn -0.9194486 0.104841761 -0.37897554
vn -0.9456815 0.194851249 -0.2602297
vn 0.10736233 -0.08362377 0.9906969
vn 0.10736233 -0.08362377 0.9906969
vn 0.639648855 0.0420865156 0.7675142
vn -0.125961542 0.1464011 -0.981173
vn -0.125961557 0.146401122 -0.981173
vn -0.125961557 0.146401137 -0.981173
vn -0.3598059 0.259440631 -0.8962312
vn -0.359805852 0.259440631 -0.8962312
vn -0.880786538 0.470954418 -0.04916364
vn -0.8807865 0.470954448 -0.0491636433
vn -0.732313335 0.6677422 0.133557349
vn -0.74321264 0.6303081 0.224380776
vn 0.668251038 0.568873346 0.479399264
vn 0.668251038 0.568873346 0.4793993
vn 0.668251038 0.568873346 0.4793993
vn 0.544508 0.679351866 0.491926938
vn 0.544508 0.679351866 0.491926968
vn 0.002126031 -0.99905926 -0.0433133841
vn 0.6822883 0.434164584 0.5882039
vn 0.6822883 0.434164584 0.5882039
vn -0.6932439 0.6115912 0.3812729
vn -0.6932439 0.6115912 0.3812729
vn -0.9144757 0.247550681 -0.320082575
vn -0.929076433 0.2431792 -0.278712869
vn -0.8391673 0.320408583 0.4394731
vn -0.5823926 0.0304454863 0.812337339
vn 0.120387457 0.2908249 0.949172139
vn 0.774838 0.207624629 0.5970914
vn 0.8162544 -0.0459267236 0.5758642
vn -0.817519 0.5317768 -0.221079379
vn -0.519302368 0.667208135 0.5340021
vn 0.375417829 0.639645457 0.6707571
vn 0.945923746 0.3240786 0.0141884806
vn -0.484503537 0.559241354 -0.6726852
vn -0.206857249 0.900298357 -0.3829791
vn 0.2961521 0.897535741 -0.3266857
vn 0.9266159 0.0238249134 -0.375253737
vn -0.786857367 0.09678673 -0.609497964
vn -0.7497165 0.2169768 -0.625176966
vn 0.984659553 -0.17099084 0.0347527675
vn 0.9584863 0.110857263 0.2627064
vn 0.04134518 0.9990184 0.0159024056
vn 0.04134518 0.9990184 0.0159024056
vn 0.04134518 0.9990184 0.0159024056
vn 0.04565907 0.9985089 0.0299215745
vn 0.04565907 0.9985089 0.0299215745
vn 0.04565907 0.9985089 0.0299215745
vn 0.008641381 0.984696567 0.17406325
vn 0.008641381 0.984696567 0.17406325
vn 0.008641381 0.984696567 0.17406325
vn 0.0856383 0.995605 0.0379055776
vn 0.0856383 0.995605 0.0379055776
vn 0.0856383 0.995605 0.0379055776
vn 0.0249082185 0.996919155 0.07437555
vn 0.0249082185 0.996919155 0.07437555
vn 0.0249082185 0.996919155 0.07437555
vn -0.124265157 0.989332736 0.07601933
vn -0.124265157 0.989332736 0.07601933
vn -0.124265157 0.989332736 0.07601933
usemtl 0002631004_part_0_material_0
f 1/1/1 2/2/2 3/3/3
f 1/1/1 3/3/3 4/4/4
f 4/4/4 5/5/5 6/6/6
f 6/6/6 7/7/7 8/8/8
f 4/4/4 6/6/6 8/8/8
f 1/1/1 4/4/4 8/8/8
f 9/9/9 10/10/10 11/11/11
f 11/11/11 12/12/12 13/13/13
f 14/14/14 15/15/15 16/16/16
f 16/16/16 17/17/17 14/14/14
f 10/10/10 18/18/18 19/19/19
f 20/20/20 11/11/11 10/10/10
f 10/10/10 21/21/21 22/22/22
f 22/22/22 18/18/18 10/10/10
f 23/23/23 24/24/24 25/25/25
f 26/26/26 27/27/27 23/23/23
f 28/28/28 29/29/29 24/24/24
f 24/24/24 23/23/23 28/28/28
f 30/30/30 31/31/31 32/32/32
f 32/32/32 33/33/33 34/34/34
f 21/21/21 35/35/35 36/36/36
f 37/37/37 21/21/21 10/10/10
f 15/15/15 23/23/23 16/16/16
f 38/38/38 39/39/39 32/32/32
f 40/40/40 41/41/41 42/42/42
f 15/15/15 28/28/28 23/23/23
f 28/28/28 15/15/15 43/43/43
f 44/44/44 16/16/16 45/45/45
f 23/23/23 46/46/46 16/16/16
f 21/21/21 47/47/47 48/48/48
f 49/49/49 22/22/22 21/21/21
f 50/50/50 51/51/51 52/52/52
f 53/53/53 16/16/16 54/54/54
f 55/55/55 56/56/56 24/24/24
f 57/57/57 24/24/24 58/58/58
f 59/59/59 60/60/60 61/61/61
f 62/62/62 63/63/63 32/32/32
f 29/29/29 58/58/58 24/24/24
f 2/2/2 64/64/64 3/3/3
f 65/65/65 66/66/66 32/32/32
f 67/67/67 58/58/58 68/68/68
f 69/69/69 70/70/70 71/71/71
f 70/70/70 69/69/69 72/72/72
f 73/73/73 74/74/74 75/75/75
f 74/74/74 73/73/73 72/72/72
f 76/76/76 77/77/77 69/69/69
f 72/72/72 77/77/77 78/78/78
f 74/74/74 72/72/72 78/78/78
f 78/78/78 79/79/79 74/74/74
f 72/72/72 69/69/69 77/77/77
f 72/72/72 73/73/73 70/70/70
f 80/80/80 81/81/81 77/77/77
f 77/77/77 76/76/76 80/80/80
f 81/81/81 82/82/82 78/78/78
f 78/78/78 77/77/77 81/81/81
f 82/82/82 83/83/83 79/79/79
f 79/79/79 78/78/78 82/82/82
f 84/84/84 85/85/85 69/69/69
f 69/69/69 71/71/71 84/84/84
f 86/86/86 87/87/87 75/75/75
f 75/75/75 74/74/74 86/86/86
f 85/85/85 80/80/80 76/76/76
f 76/76/76 69/69/69 85/85/85
f 83/83/83 86/86/86 74/74/74
f 74/74/74 79/79/79 83/83/83
f 88/88/88 89/89/89 90/90/90
f 88/88/88 91/91/91 89/89/89
f 91/91/91 92/92/92 93/93/93
f 92/92/92 94/94/94 95/95/95
f 91/91/91 94/94/94 92/92/92
f 88/88/88 94/94/94 91/91/91
f 96/96/96 97/97/97 98/98/98
f 97/97/97 99/99/99 100/100/100
f 101/101/101 102/102/102 103/103/103
f 102/102/102 101/101/101 104/104/104
f 98/98/98 105/105/105 106/106/106
f 107/107/107 98/98/98 97/97/97
f 98/98/98 108/108/108 109/109/109
f 108/108/108 98/98/98 106/106/106
f 110/110/110 111/111/111 112/112/112
f 113/113/113 110/110/110 114/114/114
f 115/115/115 112/112/112 116/116/116
f 112/112/112 115/115/115 110/110/110
f 117/117/117 118/118/118 119/119/119
f 118/118/118 120/120/120 121/121/121
f 109/109/109 122/122/122 123/123/123
f 124/124/124 98/98/98 109/109/109
f 103/103/103 102/102/102 110/110/110
f 125/125/125 118/118/118 126/126/126
f 127/127/127 128/128/128 129/129/129
f 103/103/103 110/110/110 115/115/115
f 115/115/115 130/130/130 103/103/103
f 131/131/131 132/132/132 102/102/102
f 110/110/110 102/102/102 133/133/133
f 109/109/109 134/134/134 135/135/135
f 136/136/136 109/109/109 108/108/108
f 137/137/137 138/138/138 139/139/139
f 140/140/140 141/141/141 102/102/102
f 142/142/142 112/112/112 143/143/143
f 144/144/144 145/145/145 112/112/112
f 146/146/146 147/147/147 148/148/148
f 149/149/149 118/118/118 150/150/150
f 116/116/116 112/112/112 145/145/145
f 90/90/90 89/89/89 151/151/151
f 152/152/152 118/118/118 153/153/153
f 154/154/154 155/155/155 145/145/145
f 156/156/156 157/157/157 158/158/158
f 158/158/158 159/159/159 156/156/156
f 160/160/160 161/161/161 162/162/162
f 162/162/162 159/159/159 160/160/160
f 163/163/163 156/156/156 164/164/164
f 159/159/159 165/165/165 164/164/164
f 162/162/162 165/165/165 159/159/159
f 165/165/165 162/162/162 166/166/166
f 159/159/159 164/164/164 156/156/156
f 159/159/159 158/158/158 160/160/160
f 167/167/167 164/164/164 168/168/168
f 164/164/164 167/167/167 163/163/163
f 168/168/168 165/165/165 169/169/169
f 165/165/165 168/168/168 164/164/164
f 169/169/169 166/166/166 170/170/170
f 166/166/166 169/169/169 165/165/165
f 171/171/171 156/156/156 172/172/172
f 156/156/156 171/171/171 157/157/157
f 173/173/173 161/161/161 174/174/174
f 161/161/161 173/173/173 162/162/162
f 172/172/172 163/163/163 167/167/167
f 163/163/163 172/172/172 156/156/156
f 170/170/170 162/162/162 173/173/173
f 162/162/162 170/170/170 166/166/166
f 175/175/175 176/176/176 177/177/177
f 178/178/178 179/179/179 180/180/180
f 181/181/181 182/182/182 183/183/183
f 184/184/184 185/185/185 186/186/186
f 187/187/187 188/188/188 189/189/189
f 190/190/190 191/191/191 192/192/192
