mtllib 0002641003.mtl
o 0002641003_part_0
v 0.341576278 1.06880069 -0.026423784
v 0.416117817 1.05736279 -0.08792265
v 0.371065378 1.16910267 -0.06681259
v 0.416117817 1.05736279 -0.08792265
v 0.389444619 0.9565066 -0.0135329366
v 0.430428177 0.9492524 -0.05261972
v 0.289899915 1.13239145 -0.1026467
v 0.318354428 1.1438303 -0.151705921
v 0.357005179 1.051259 -0.1513201
v 0.295990467 1.05649757 -0.0817171857
v 0.295990467 1.05649757 -0.0817171857
v 0.287145644 0.998386562 -0.0360105522
v 0.329714328 1.03536689 -0.00736777857
v 0.341576278 1.06880069 -0.026423784
v 0.35564208 0.9779225 0.0189424139
v 0.341576278 1.06880069 -0.026423784
v 0.3706007 0.9521357 -0.161537275
v 0.357005179 1.051259 -0.1513201
v 0.4174932 0.948158145 -0.147690535
v 0.342854559 0.9639037 -0.0214330368
v 0.403669953 0.88487047 -0.0501182452
v 0.424281985 0.8950401 -0.0137031507
v 0.354352772 0.7866884 -0.0142412055
v 0.3515281 0.784676433 -0.0434679277
v 0.3706007 0.9521357 -0.161537275
v 0.362521172 0.9188594 -0.158750981
v 0.371884823 0.9117101 -0.06867295
v 0.3740631 0.9006058 0.0010706794
v 0.33872813 0.8048119 -0.00135495188
v 0.317683816 1.00363 0.02575502
v 0.2731816 0.905751944 0.05265663
v 0.305566818 0.908028364 0.0573404953
v 0.342068553 0.796191335 -0.04430465
v 0.33872813 0.8048119 -0.00135495188
v 0.3740631 0.9006058 0.0010706794
v 0.3515281 0.784676433 -0.0434679277
v 0.354352772 0.7866884 -0.0142412055
v 0.2839886 0.8928706 0.0269344263
v 0.342854559 0.9639037 -0.0214330368
v 0.2731816 0.905751944 0.05265663
v 0.317683816 1.00363 0.02575502
v 0.329714328 1.03536689 -0.00736777857
v 0.2839886 0.8928706 0.0269344263
v 0.342854559 0.9639037 -0.0214330368
v 0.396292835 0.905227244 -0.145113483
v 0.362521172 0.9188594 -0.158750981
v 0.3073211 0.803397 -0.138895825
v 0.294449 0.8146615 -0.0612305179
v 0.3073211 0.803397 -0.138895825
v 0.316518337 0.8013276 -0.0661275
v 0.316518337 0.8013276 -0.0661275
v 0.403669953 0.88487047 -0.0501182452
v 0.3515281 0.784676433 -0.0434679277
v 0.371884823 0.9117101 -0.06867295
v 0.403669953 0.88487047 -0.0501182452
v 0.342068553 0.796191335 -0.04430465
v 0.357005179 1.051259 -0.1513201
v 0.2735259 1.050044 -0.08377667
v 0.357005179 1.051259 -0.1513201
v 0.358001173 1.04766321 -0.172134861
v 0.295990467 1.05649757 -0.0817171857
v 0.337930173 1.07107675 -0.0123007568
v 0.341576278 1.06880069 -0.026423784
v 0.43330723 1.060216 -0.08225195
v 0.416117817 1.05736279 -0.08792265
v 0.236872226 0.980509043 -0.0792247057
v 0.36579603 0.9788329 -0.207702681
v 0.315036565 1.03178477 0.03769946
v 0.4795536 1.00668585 -0.0637455061
v 0.332916 1.16002011 -0.0531305075
v 0.341576278 1.06880069 -0.026423784
v 0.332916 1.16002011 -0.0531305075
v 0.396356285 1.15707684 -0.109193176
v 0.357005179 1.051259 -0.1513201
v 0.356292784 1.1566565 -0.149940357
v 0.337047338 1.14988279 -0.150800183
v 0.318354428 1.1438303 -0.151705921
v 0.388043076 1.219449 -0.114047788
v 0.3576999 1.221448 -0.0545979552
v 0.43330723 1.060216 -0.08225195
v 0.259125948 1.24328089 -0.175840214
v 0.283786267 1.17926192 -0.18462199
v 0.239664912 1.17956352 -0.102759048
v 0.229499459 1.25161934 -0.122254819
v 0.2775506 1.27034664 -0.0634822
v 0.297236741 1.207741 -0.0308777243
v 0.348398536 1.275444 -0.12254259
v 0.388043076 1.219449 -0.114047788
v 0.329607427 1.19594789 -0.182547092
v 0.2990852 1.26938081 -0.175257429
v 0.324574918 1.26608849 -0.07704051
v 0.358001173 1.04766321 -0.172134861
v 0.2735259 1.050044 -0.08377667
v 0.337930173 1.07107675 -0.0123007568
v 0.43330723 1.060216 -0.08225195
v 0.348398536 1.275444 -0.12254259
v -0.378985673 1.17990208 -0.05223609
v -0.4337936 1.07289779 -0.0703933239
v -0.355816334 1.077415 -0.01228738
v -0.4337936 1.07289779 -0.0703933239
v -0.4570425 0.9669793 -0.03342453
v -0.4138756 0.9704133 0.00378948683
v -0.3017858 1.13564992 -0.09133482
v -0.314114451 1.06043839 -0.06936826
v -0.378400266 1.060725 -0.136214644
v -0.331132621 1.1492672 -0.139205679
v -0.314114451 1.06043839 -0.06936826
v -0.355816334 1.077415 -0.01228738
v -0.3465223 1.04307961 0.00658513326
v -0.3090601 1.0019412 -0.0234857909
v -0.376755953 0.9886054 0.0345641226
v -0.355816334 1.077415 -0.01228738
v -0.402042985 0.96335274 -0.144836292
v -0.448448747 0.9640677 -0.128947526
v -0.378400266 1.060725 -0.136214644
v -0.367176563 0.9731659 -0.00617999863
v -0.436611176 0.9003021 -0.03142535
v -0.394254982 0.7955237 -0.0260106716
v -0.39558813 0.797973454 0.00328863482
v -0.454519033 0.9126542 0.00573741458
v -0.402042985 0.96335274 -0.144836292
v -0.403200984 0.9237909 -0.0515990928
v -0.397135228 0.929462135 -0.142063946
v -0.377720654 0.8145547 0.0153077906
v -0.403398454 0.913361251 0.0182823036
v -0.3362085 1.0105114 0.03947909
v -0.332108378 0.914368868 0.0714784339
v -0.300336033 0.908904433 0.0654302761
v -0.403398454 0.913361251 0.0182823036
v -0.377720654 0.8145547 0.0153077906
v -0.3837626 0.806051731 -0.02736941
v -0.39558813 0.797973454 0.00328863482
v -0.394254982 0.7955237 -0.0260106716
v -0.367176563 0.9731659 -0.00617999863
v -0.313463658 0.8969932 0.0403276868
v -0.3362085 1.0105114 0.03947909
v -0.300336033 0.908904433 0.0654302761
v -0.3465223 1.04307961 0.00658513326
v -0.313463658 0.8969932 0.0403276868
v -0.367176563 0.9731659 -0.00617999863
v -0.4314468 0.919282734 -0.12685062
v -0.397135228 0.929462135 -0.142063946
v -0.3353544 0.8196702 -0.04651191
v -0.352650583 0.809266567 -0.123434529
v -0.352650583 0.809266567 -0.123434529
v -0.3588127 0.8085334 -0.0503209643
v -0.3588127 0.8085334 -0.0503209643
v -0.436611176 0.9003021 -0.03142535
v -0.394254982 0.7955237 -0.0260106716
v -0.436611176 0.9003021 -0.03142535
v -0.403200984 0.9237909 -0.0515990928
v -0.3837626 0.806051731 -0.02736941
v -0.378400266 1.060725 -0.136214644
v -0.292567581 1.05173624 -0.072312355
v -0.380657256 1.05712354 -0.156929761
v -0.378400266 1.060725 -0.136214644
v -0.314114451 1.06043839 -0.06936826
v -0.351422071 1.07939291 0.00164945854
v -0.355816334 1.077415 -0.01228738
v -0.450373173 1.07751644 -0.06402469
v -0.4337936 1.07289779 -0.0703933239
v -0.26271072 0.978973866 -0.06863795
v -0.396680832 0.989180744 -0.191432789
v -0.3303062 1.03834069 0.0510137863
v -0.5007682 1.02888179 -0.0430081375
v -0.340876371 1.16800475 -0.0402452946
v -0.355816334 1.077415 -0.01228738
v -0.340876371 1.16800475 -0.0402452946
v -0.4062045 1.16989756 -0.09341191
v -0.378400266 1.060725 -0.136214644
v -0.368019223 1.16574907 -0.135901064
v -0.349405974 1.15724134 -0.137546971
v -0.331132621 1.1492672 -0.139205679
v -0.3999716 1.22994065 -0.0984698161
v -0.450373173 1.07751644 -0.06402469
v -0.366573721 1.23118949 -0.04065971
v -0.2737018 1.24943113 -0.16689457
v -0.241119474 1.25701785 -0.114937954
v -0.252544671 1.18539357 -0.09456848
v -0.300790668 1.18619823 -0.174066931
v -0.285479665 1.27747941 -0.0538860746
v -0.305437833 1.21565175 -0.019988481
v -0.359064639 1.28461409 -0.109274678
v -0.312733769 1.276792 -0.164408073
v -0.345895022 1.20434189 -0.169741079
v -0.3999716 1.22994065 -0.0984698161
v -0.333248079 1.27467108 -0.06500086
v -0.292567581 1.05173624 -0.072312355
v -0.380657256 1.05712354 -0.156929761
v -0.351422071 1.07939291 0.00164945854
v -0.450373173 1.07751644 -0.06402469
v -0.359064639 1.28461409 -0.109274678
vt 0.09997556 0.3788166
vt 0.0848915651 0.442644715
vt 0.0351667069 0.3982184
vt 0.403561 0.521461368
vt 0.272736162 0.30954802
vt 0.363593847 0.307590127
vt 0.08772683 0.0963361859
vt 0.06818829 0.100531459
vt 0.04587948 0.04960811
vt 0.09661584 0.0330593
vt 0.709120333 0.428438663
vt 0.883421063 0.3076042
vt 0.9040492 0.405857682
vt 0.8447444 0.478973866
vt 0.206069812 0.3003285
vt 0.2365703 0.5038835
vt 0.5720142 0.241543055
vt 0.5142205 0.453484058
vt 0.5243906 0.250527143
vt 0.861906469 0.248129785
vt 0.326274365 0.109716833
vt 0.28981778 0.145449877
vt 0.239651158 0.027300477
vt 0.2812024 0.0144071579
vt 0.5829384 0.2717632
vt 0.6012895 0.202869415
vt 0.7848155 0.140462875
vt 0.250454038 0.14955759
vt 0.220886409 0.0559444427
vt 0.114509627 0.3451525
vt 0.0193521418 0.2024306
vt 0.08636305 0.205984
vt 0.7797361 0.0712767839
vt 0.8489953 0.08387363
vt 0.8558323 0.1469661
vt 0.7956498 0.05311781
vt 0.8339359 0.0583302975
vt 0.10917449 0.143865108
vt 0.241244227 0.257429242
vt 0.986341834 0.1797657
vt 0.9454187 0.337546349
vt 0.168714151 0.416702867
vt 0.941206753 0.156708658
vt 0.835977256 0.281519353
vt 0.499076426 0.13336724
vt 0.5518748 0.121717691
vt 0.615560234 0.121395946
vt 0.7605731 0.110863566
vt 0.445942819 0.0499771237
vt 0.289790243 0.0112478137
vt 0.7552734 0.06520909
vt 0.7692848 0.07053399
vt 0.606887937 0.0406191945
vt 0.5876421 0.144073784
vt 0.584091663 0.139833629
vt 0.5921835 0.05349976
vt 0.6050061 0.462398
vt 0.5421317 0.9169541
vt 0.9178535 0.966577232
vt 0.92264545 0.9169541
vt 0.54346323 0.966577232
vt 0.154828474 0.9169541
vt 0.1646289 0.966577232
vt 0.5421317 0.9169541
vt 0.54346323 0.966577232
vt 0.5418036 0.758759856
vt 0.9478519 0.7660552
vt 0.09372581 0.768423557
vt 0.5418036 0.758759856
vt 0.038907323 0.358499885
vt 0.170132056 0.0594328046
vt 0.12947683 0.109086215
vt 0.0315050371 0.43709892
vt 0.105746195 0.4888869
vt 0.03136515 0.4641512
vt 0.03129085 0.4785223
vt 0.0312166 0.4928934
vt 0.979298949 0.6664871
vt 0.9334072 0.666586936
vt 0.9792997 0.4956047
vt 0.6468646 0.7377229
vt 0.6345613 0.666725636
vt 0.737658143 0.6665365
vt 0.741610467 0.7374425
vt 0.8391444 0.7376115
vt 0.834641159 0.6666545
vt 0.4947354 0.7462825
vt 0.493035674 0.666434467
vt 0.563098431 0.666610241
vt 0.5705363 0.7428784
vt 0.9080133 0.746591747
vt 0.5716511 0.4952972
vt 0.7276952 0.495509446
vt 0.832058668 0.4955541
vt 0.4927536 0.4957425
vt 0.980111241 0.746333241
vt 0.0351667069 0.3982184
vt 0.0848915651 0.442644715
vt 0.09997556 0.3788166
vt 0.403561 0.521461368
vt 0.363593847 0.307590127
vt 0.272736162 0.30954802
vt 0.08772683 0.0963361859
vt 0.09661584 0.0330593
vt 0.04587948 0.04960811
vt 0.06818829 0.100531459
vt 0.709120333 0.428438663
vt 0.8447444 0.478973866
vt 0.9040492 0.405857682
vt 0.883421063 0.3076042
vt 0.206069812 0.3003285
vt 0.2365703 0.5038835
vt 0.5720142 0.241543055
vt 0.5243906 0.250527143
vt 0.5142205 0.453484058
vt 0.861906469 0.248129785
vt 0.326274365 0.109716833
vt 0.2812024 0.0144071579
vt 0.239651158 0.027300477
vt 0.28981778 0.145449877
vt 0.5829384 0.2717632
vt 0.7848155 0.140462875
vt 0.6012895 0.202869415
vt 0.220886409 0.0559444427
vt 0.250454038 0.14955759
vt 0.114509627 0.3451525
vt 0.08636305 0.205984
vt 0.0193521418 0.2024306
vt 0.8558323 0.1469661
vt 0.8489953 0.08387363
vt 0.7797361 0.0712767839
vt 0.8339359 0.0583302975
vt 0.7956498 0.05311781
vt 0.241244227 0.257429242
vt 0.10917449 0.143865108
vt 0.9454187 0.337546349
vt 0.986341834 0.1797657
vt 0.168714151 0.416702867
vt 0.941206753 0.156708658
vt 0.835977256 0.281519353
vt 0.499076426 0.13336724
vt 0.5518748 0.121717691
vt 0.7605731 0.110863566
vt 0.615560234 0.121395946
vt 0.445942819 0.0499771237
vt 0.289790243 0.0112478137
vt 0.7552734 0.06520909
vt 0.7692848 0.07053399
vt 0.606887937 0.0406191945
vt 0.584091663 0.139833629
vt 0.5876421 0.144073784
vt 0.5921835 0.05349976
vt 0.6050061 0.462398
vt 0.5421317 0.9169541
vt 0.92264545 0.9169541
vt 0.9178535 0.966577232
vt 0.54346323 0.966577232
vt 0.154828474 0.9169541
vt 0.1646289 0.966577232
vt 0.5421317 0.9169541
vt 0.54346323 0.966577232
vt 0.5418036 0.758759856
vt 0.9478519 0.7660552
vt 0.09372581 0.768423557
vt 0.5418036 0.758759856
vt 0.038907323 0.358499885
vt 0.170132056 0.0594328046
vt 0.12947683 0.109086215
vt 0.0315050371 0.43709892
vt 0.105746195 0.4888869
vt 0.03136515 0.4641512
vt 0.03129085 0.4785223
vt 0.0312166 0.4928934
vt 0.979298949 0.6664871
vt 0.9792997 0.4956047
vt 0.9334072 0.666586936
vt 0.6468646 0.7377229
vt 0.741610467 0.7374425
vt 0.737658143 0.6665365
vt 0.6345613 0.666725636
vt 0.8391444 0.7376115
vt 0.834641159 0.6666545
vt 0.4947354 0.7462825
vt 0.5705363 0.7428784
vt 0.563098431 0.666610241
vt 0.493035674 0.666434467
vt 0.9080133 0.746591747
vt 0.7276952 0.495509446
vt 0.5716511 0.4952972
vt 0.832058668 0.4955541
vt 0.4927536 0.4957425
vt 0.980111241 0.746333241
vn -0.07183905 0.8775919 0.4739954
vn 0.5693205 0.820977867 -0.0432374775
vn 0.622019768 0.243772492 0.7440876
vn 0.5693205 0.820977867 -0.0432374775
vn 0.448055923 0.193400919 0.8728356
vn 0.973594069 0.03644529 0.225358337
vn -0.991028666 -0.130969271 -0.02663172
vn -0.440781921 -0.1876958 -0.877770841
vn -0.06521235 0.663984358 -0.7448974
vn -0.837171435 0.5333391 -0.121216357
vn -0.837171435 0.5333391 -0.121216357
vn -0.9129128 -0.061361514 -0.403515846
vn -0.3241108 0.6032128 0.728756845
vn -0.07183905 0.8775919 0.4739954
vn 0.6952905 -0.0602485165 0.71619916
vn -0.07183905 0.8775919 0.4739954
vn -0.420499384 -0.105281569 -0.901163757
vn -0.06521235 0.663984358 -0.7448974
vn 0.7721105 -0.09672702 -0.628083766
vn -0.41641 -0.890311956 -0.184247985
vn 0.807558835 -0.5082134 -0.2992788
vn 0.860862434 -0.206764013 0.464934975
vn 0.1976191 -0.877158463 0.437652469
vn 0.0545071 -0.876436651 -0.4784222
vn -0.420499384 -0.105281569 -0.901163757
vn -0.5766085 0.0965876952 -0.8112912
vn -0.999170661 0.0225293282 0.033917062
vn -0.420329422 0.0431795642 0.9063436
vn -0.6050963 -0.233093634 0.761265934
vn -0.206099719 0.6053811 0.7687891
vn -0.733627737 -0.320147753 0.599412858
vn 0.4369168 -0.464206219 0.770465
vn -0.7848576 -0.2755863 -0.555023253
vn -0.6050963 -0.233093634 0.761265934
vn -0.420329422 0.0431795642 0.9063436
vn 0.0545071 -0.876436651 -0.4784222
vn 0.1976191 -0.877158463 0.437652469
vn -0.250778377 -0.9140213 -0.318865478
vn -0.41641 -0.890311956 -0.184247985
vn -0.733627737 -0.320147753 0.599412858
vn -0.206099719 0.6053811 0.7687891
vn -0.3241108 0.6032128 0.728756845
vn -0.250778377 -0.9140213 -0.318865478
vn -0.41641 -0.890311956 -0.184247985
vn 0.6516947 -0.451459944 -0.609489858
vn -0.5766085 0.0965876952 -0.8112912
vn -0.405888736 -0.585751235 -0.7015339
vn -0.7988938 -0.09929718 0.593219
vn -0.405888736 -0.585751235 -0.7015339
vn 0.18723537 -0.8362662 0.5153656
vn 0.18723537 -0.8362662 0.5153656
vn 0.807558835 -0.5082134 -0.2992788
vn 0.0545071 -0.876436651 -0.4784222
vn -0.999170661 0.0225293282 0.033917062
vn 0.807558835 -0.5082134 -0.2992788
vn -0.7848576 -0.2755863 -0.555023253
vn -0.06521235 0.663984358 -0.7448974
vn -0.9126039 0.394216776 -0.10838449
vn -0.06521235 0.663984358 -0.7448974
vn 0.0579230078 0.427208126 -0.902296066
vn -0.837171435 0.5333391 -0.121216357
vn -0.0202757232 0.712986767 0.7008843
vn -0.07183905 0.8775919 0.4739954
vn 0.7328236 0.6785239 -0.05074328
vn 0.5693205 0.820977867 -0.0432374775
vn -0.870762169 0.435850352 -0.2276131
vn -0.00712880865 0.458427042 -0.888703465
vn -0.267010361 0.763283432 0.58830595
vn 0.766886353 0.6415945 -0.0155506115
vn -0.2446674 0.250973433 0.936562955
vn -0.07183905 0.8775919 0.4739954
vn -0.2446674 0.250973433 0.936562955
vn 0.970038056 0.161754474 -0.1812777
vn -0.06521235 0.663984358 -0.7448974
vn 0.448421866 0.0147302477 -0.893700659
vn 0.0417272747 0.0137107195 -0.999034941
vn -0.440781921 -0.1876958 -0.877770841
vn 0.8982052 0.41006425 -0.158349812
vn 0.5677271 0.4587716 0.683531
vn 0.7328236 0.6785239 -0.05074328
vn -0.5595731 -0.09417169 -0.8234134
vn -0.458394021 -0.169172 -0.8724997
vn -0.9768627 -0.172007591 0.127092764
vn -0.989133656 -0.114640385 0.09204482
vn -0.4145433 0.309405625 0.8558166
vn -0.286523283 0.218551919 0.9328127
vn 0.81754 0.539522648 -0.201354563
vn 0.8982052 0.41006425 -0.158349812
vn 0.41458565 0.135684967 -0.899838
vn 0.355478644 0.249713272 -0.9007098
vn 0.46655938 0.595571041 0.6539247
vn 0.0579230078 0.427208126 -0.902296066
vn -0.9126039 0.394216776 -0.10838449
vn -0.0202757232 0.712986767 0.7008843
vn 0.7328236 0.6785239 -0.05074328
vn 0.81754 0.539522648 -0.201354563
vn -0.5683807 0.300498158 0.765927
vn -0.4894636 0.8716154 -0.0266819652
vn 0.179778457 0.8679575 0.462957323
vn -0.4894636 0.8716154 -0.0266819652
vn -0.9545805 0.133058861 0.266592234
vn -0.3883887 0.24160704 0.889258265
vn 0.9732244 -0.220484257 -0.06496884
vn 0.879587054 0.447245359 -0.162167311
vn 0.0973019153 0.6493619 -0.754229
vn 0.383068323 -0.234678611 -0.893411756
vn 0.879587054 0.447245359 -0.162167311
vn 0.179778457 0.8679575 0.462957323
vn 0.412770122 0.572490335 0.70843184
vn 0.8839717 -0.153106451 -0.441760629
vn -0.6659553 0.012447278 0.7458878
vn 0.179778457 0.8679575 0.462957323
vn 0.368326634 -0.15127103 -0.917307258
vn -0.804626942 -0.0242280643 -0.593286157
vn 0.0973019153 0.6493619 -0.754229
vn 0.319083422 -0.9278759 -0.192956224
vn -0.8656189 -0.428423643 -0.259146839
vn -0.1606593 -0.8696676 -0.466762155
vn -0.26293236 -0.851014853 0.454577
vn -0.8557568 -0.118739881 0.503568351
vn 0.368326634 -0.15127103 -0.917307258
vn 0.997122645 -0.07523422 -0.009286199
vn 0.5472251 0.0349091031 -0.83625716
vn 0.612190366 -0.286777854 0.736872733
vn 0.4617944 0.0071053193 0.886958539
vn 0.297638118 0.5867708 0.7530681
vn -0.445996553 -0.414673448 0.793179035
vn 0.724407434 -0.386945873 0.570531964
vn 0.4617944 0.0071053193 0.886958539
vn 0.612190366 -0.286777854 0.736872733
vn 0.7291748 -0.354366481 -0.585430145
vn -0.26293236 -0.851014853 0.454577
vn -0.1606593 -0.8696676 -0.466762155
vn 0.319083422 -0.9278759 -0.192956224
vn 0.146190345 -0.9360357 -0.320102364
vn 0.297638118 0.5867708 0.7530681
vn 0.724407434 -0.386945873 0.570531964
vn 0.412770122 0.572490335 0.70843184
vn 0.146190345 -0.9360357 -0.320102364
vn 0.319083422 -0.9278759 -0.192956224
vn -0.7186851 -0.389021665 -0.5763279
vn 0.5472251 0.0349091031 -0.83625716
vn 0.810580552 -0.173590019 0.5593082
vn 0.31569925 -0.626778 -0.7123787
vn 0.31569925 -0.626778 -0.7123787
vn -0.24521938 -0.8108813 0.531355739
vn -0.24521938 -0.8108813 0.531355739
vn -0.8656189 -0.428423643 -0.259146839
vn -0.1606593 -0.8696676 -0.466762155
vn -0.8656189 -0.428423643 -0.259146839
vn 0.997122645 -0.07523422 -0.009286199
vn 0.7291748 -0.354366481 -0.585430145
vn 0.0973019153 0.6493619 -0.754229
vn 0.9332933 0.323853374 -0.15518567
vn -0.04619137 0.419977844 -0.906358063
vn 0.0973019153 0.6493619 -0.754229
vn 0.879587054 0.447245359 -0.162167311
vn 0.130878612 0.7105261 0.691392362
vn 0.179778457 0.8679575 0.462957323
vn -0.677939057 0.734768867 -0.0226565655
vn -0.4894636 0.8716154 -0.0266819652
vn 0.898341 0.347139567 -0.2692166
vn 0.0129348766 0.4503215 -0.8927728
vn 0.3657103 0.73689127 0.5685483
vn -0.700557768 0.713511765 0.0109458063
vn 0.302086532 0.2352811 0.9237892
vn 0.179778457 0.8679575 0.462957323
vn 0.302086532 0.2352811 0.9237892
vn -0.957764745 0.2458803 -0.149095654
vn 0.0973019153 0.6493619 -0.754229
vn -0.483004332 0.0503523536 -0.874169
vn -0.08404238 0.01149258 -0.9963959
vn 0.383068323 -0.234678611 -0.893411756
vn -0.887428 0.445799947 -0.117191888
vn -0.677939057 0.734768867 -0.0226565655
vn -0.5134006 0.4834213 0.7090301
vn 0.5133852 -0.114939995 -0.850426
vn 0.988433063 -0.145732164 0.04197926
vn 0.9750122 -0.207691655 0.07883799
vn 0.407919854 -0.18924278 -0.8931901
vn 0.467427433 0.29917264 0.8318698
vn 0.342221558 0.210878834 0.9156498
vn -0.8093245 0.5645354 -0.162153125
vn -0.393099576 0.2576153 -0.8826704
vn -0.4531447 0.148150712 -0.879039943
vn -0.887428 0.445799947 -0.117191888
vn -0.413379461 0.612502337 0.6737643
vn 0.9332933 0.323853374 -0.15518567
vn -0.04619137 0.419977844 -0.906358063
vn 0.130878612 0.7105261 0.691392362
vn -0.677939057 0.734768867 -0.0226565655
vn -0.8093245 0.5645354 -0.162153125
usemtl 0002641003_part_0_material_0
f 1/1/1 2/2/2 3/3/3
f 4/4/4 5/5/5 6/6/6
f 7/7/7 8/8/8 9/9/9
f 9/9/9 10/10/10 7/7/7
f 11/11/11 12/12/12 13/13/13
f 13/13/13 14/14/14 11/11/11
f 15/15/15 5/5/5 16/16/16
f 17/17/17 18/18/18 19/19/19
f 12/12/12 11/11/11 20/20/20
f 21/21/21 22/22/22 23/23/23
f 23/23/23 24/24/24 21/21/21
f 25/25/25 26/26/26 27/27/27
f 27/27/27 20/20/20 25/25/25
f 23/23/23 22/22/22 28/28/28
f 28/28/28 29/29/29 23/23/23
f 30/30/30 31/31/31 32/32/32
f 32/32/32 15/15/15 30/30/30
f 27/27/27 33/33/33 34/34/34
f 34/34/34 35/35/35 27/27/27
f 34/34/34 33/33/33 36/36/36
f 36/36/36 37/37/37 34/34/34
f 32/32/32 38/38/38 39/39/39
f 39/39/39 15/15/15 32/32/32
f 12/12/12 40/40/40 41/41/41
f 31/31/31 38/38/38 32/32/32
f 42/42/42 30/30/30 15/15/15
f 41/41/41 13/13/13 12/12/12
f 25/25/25 20/20/20 11/11/11
f 43/43/43 12/12/12 44/44/44
f 12/12/12 43/43/43 40/40/40
f 6/6/6 21/21/21 45/45/45
f 45/45/45 19/19/19 6/6/6
f 17/17/17 19/19/19 45/45/45
f 45/45/45 46/46/46 17/17/17
f 5/5/5 28/28/28 22/22/22
f 22/22/22 6/6/6 5/5/5
f 27/27/27 26/26/26 47/47/47
f 47/47/47 48/48/48 27/27/27
f 35/35/35 20/20/20 27/27/27
f 49/49/49 46/46/46 45/45/45
f 50/50/50 49/49/49 45/45/45
f 45/45/45 21/21/21 50/50/50
f 51/51/51 48/48/48 47/47/47
f 27/27/27 51/51/51 52/52/52
f 48/48/48 51/51/51 27/27/27
f 53/53/53 54/54/54 55/55/55
f 56/56/56 54/54/54 53/53/53
f 25/25/25 11/11/11 57/57/57
f 15/15/15 39/39/39 5/5/5
f 42/42/42 15/15/15 16/16/16
f 58/58/58 59/59/59 60/60/60
f 59/59/59 58/58/58 61/61/61
f 62/62/62 63/63/63 58/58/58
f 61/61/61 58/58/58 63/63/63
f 64/64/64 63/63/63 62/62/62
f 63/63/63 64/64/64 65/65/65
f 60/60/60 65/65/65 64/64/64
f 65/65/65 60/60/60 59/59/59
f 66/66/66 58/58/58 60/60/60
f 60/60/60 67/67/67 66/66/66
f 68/68/68 62/62/62 58/58/58
f 58/58/58 66/66/66 68/68/68
f 60/60/60 64/64/64 69/69/69
f 69/69/69 67/67/67 60/60/60
f 69/69/69 64/64/64 62/62/62
f 62/62/62 68/68/68 69/69/69
f 3/3/3 70/70/70 1/1/1
f 7/7/7 10/10/10 71/71/71
f 72/72/72 7/7/7 71/71/71
f 2/2/2 73/73/73 3/3/3
f 74/74/74 75/75/75 73/73/73
f 73/73/73 2/2/2 74/74/74
f 76/76/76 75/75/75 74/74/74
f 74/74/74 77/77/77 76/76/76
f 4/4/4 16/16/16 5/5/5
f 18/18/18 4/4/4 19/19/19
f 5/5/5 39/39/39 28/28/28
f 22/22/22 21/21/21 6/6/6
f 4/4/4 6/6/6 19/19/19
f 78/78/78 79/79/79 80/80/80
f 81/81/81 82/82/82 83/83/83
f 83/83/83 84/84/84 81/81/81
f 85/85/85 84/84/84 83/83/83
f 83/83/83 86/86/86 85/85/85
f 87/87/87 88/88/88 89/89/89
f 89/89/89 90/90/90 87/87/87
f 90/90/90 89/89/89 82/82/82
f 82/82/82 81/81/81 90/90/90
f 78/78/78 91/91/91 79/79/79
f 82/82/82 92/92/92 93/93/93
f 93/93/93 83/83/83 82/82/82
f 93/93/93 94/94/94 86/86/86
f 86/86/86 83/83/83 93/93/93
f 88/88/88 95/95/95 92/92/92
f 92/92/92 89/89/89 88/88/88
f 89/89/89 92/92/92 82/82/82
f 91/91/91 85/85/85 86/86/86
f 78/78/78 96/96/96 91/91/91
f 91/91/91 86/86/86 79/79/79
f 79/79/79 86/86/86 94/94/94
f 79/79/79 94/94/94 80/80/80
f 97/97/97 98/98/98 99/99/99
f 100/100/100 101/101/101 102/102/102
f 103/103/103 104/104/104 105/105/105
f 105/105/105 106/106/106 103/103/103
f 107/107/107 108/108/108 109/109/109
f 109/109/109 110/110/110 107/107/107
f 111/111/111 112/112/112 102/102/102
f 113/113/113 114/114/114 115/115/115
f 110/110/110 116/116/116 107/107/107
f 117/117/117 118/118/118 119/119/119
f 119/119/119 120/120/120 117/117/117
f 121/121/121 116/116/116 122/122/122
f 122/122/122 123/123/123 121/121/121
f 119/119/119 124/124/124 125/125/125
f 125/125/125 120/120/120 119/119/119
f 126/126/126 111/111/111 127/127/127
f 127/127/127 128/128/128 126/126/126
f 122/122/122 129/129/129 130/130/130
f 130/130/130 131/131/131 122/122/122
f 130/130/130 132/132/132 133/133/133
f 133/133/133 131/131/131 130/130/130
f 127/127/127 111/111/111 134/134/134
f 134/134/134 135/135/135 127/127/127
f 110/110/110 136/136/136 137/137/137
f 128/128/128 127/127/127 135/135/135
f 138/138/138 111/111/111 126/126/126
f 136/136/136 110/110/110 109/109/109
f 121/121/121 107/107/107 116/116/116
f 139/139/139 140/140/140 110/110/110
f 110/110/110 137/137/137 139/139/139
f 101/101/101 114/114/114 141/141/141
f 141/141/141 117/117/117 101/101/101
f 113/113/113 142/142/142 141/141/141
f 141/141/141 114/114/114 113/113/113
f 102/102/102 120/120/120 125/125/125
f 120/120/120 102/102/102 101/101/101
f 122/122/122 143/143/143 144/144/144
f 144/144/144 123/123/123 122/122/122
f 129/129/129 122/122/122 116/116/116
f 145/145/145 141/141/141 142/142/142
f 146/146/146 117/117/117 141/141/141
f 141/141/141 145/145/145 146/146/146
f 147/147/147 144/144/144 143/143/143
f 122/122/122 148/148/148 147/147/147
f 143/143/143 122/122/122 147/147/147
f 149/149/149 150/150/150 151/151/151
f 152/152/152 149/149/149 151/151/151
f 121/121/121 153/153/153 107/107/107
f 111/111/111 102/102/102 134/134/134
f 138/138/138 112/112/112 111/111/111
f 154/154/154 155/155/155 156/156/156
f 156/156/156 157/157/157 154/154/154
f 158/158/158 154/154/154 159/159/159
f 157/157/157 159/159/159 154/154/154
f 160/160/160 158/158/158 159/159/159
f 159/159/159 161/161/161 160/160/160
f 155/155/155 160/160/160 161/161/161
f 161/161/161 156/156/156 155/155/155
f 162/162/162 163/163/163 155/155/155
f 155/155/155 154/154/154 162/162/162
f 164/164/164 162/162/162 154/154/154
f 154/154/154 158/158/158 164/164/164
f 155/155/155 163/163/163 165/165/165
f 165/165/165 160/160/160 155/155/155
f 165/165/165 164/164/164 158/158/158
f 158/158/158 160/160/160 165/165/165
f 97/97/97 99/99/99 166/166/166
f 167/167/167 104/104/104 103/103/103
f 168/168/168 167/167/167 103/103/103
f 98/98/98 97/97/97 169/169/169
f 170/170/170 98/98/98 169/169/169
f 169/169/169 171/171/171 170/170/170
f 172/172/172 173/173/173 170/170/170
f 170/170/170 171/171/171 172/172/172
f 100/100/100 102/102/102 112/112/112
f 115/115/115 114/114/114 100/100/100
f 102/102/102 125/125/125 134/134/134
f 120/120/120 101/101/101 117/117/117
f 100/100/100 114/114/114 101/101/101
f 174/174/174 175/175/175 176/176/176
f 177/177/177 178/178/178 179/179/179
f 179/179/179 180/180/180 177/177/177
f 181/181/181 182/182/182 179/179/179
f 179/179/179 178/178/178 181/181/181
f 183/183/183 184/184/184 185/185/185
f 185/185/185 186/186/186 183/183/183
f 184/184/184 177/177/177 180/180/180
f 180/180/180 185/185/185 184/184/184
f 174/174/174 176/176/176 187/187/187
f 180/180/180 179/179/179 188/188/188
f 188/188/188 189/189/189 180/180/180
f 188/188/188 179/179/179 182/182/182
f 182/182/182 190/190/190 188/188/188
f 186/186/186 185/185/185 189/189/189
f 189/189/189 191/191/191 186/186/186
f 185/185/185 180/180/180 189/189/189
f 187/187/187 182/182/182 181/181/181
f 174/174/174 187/187/187 192/192/192
f 187/187/187 176/176/176 182/182/182
f 176/176/176 190/190/190 182/182/182
f 176/176/176 175/175/175 190/190/190
