mtllib 0003110002.mtl
o 0003110002_part_0
v 0.09087145 0.827521741 0.006969738
v 0.07358604 0.8434572 0.0381426364
v 0.094281584 0.7601116 0.037117552
v 0.04811993 0.842797041 0.08311805
v 0.0462293848 0.7551173 0.09684283
v 0.00196100771 0.8454126 0.09479632
v 0.00173532125 0.7546364 0.105515122
v 0.07470023 0.6847292 -0.08568399
v 0.134157777 0.683216453 -0.0335843749
v 0.176755786 0.6088934 -0.0597113073
v 0.115946606 0.6156046 -0.150267154
v 0.0489665121 0.6758047 0.10499604
v 0.1281921 0.591567755 0.092633225
v 0.122170426 0.679731846 0.0322385132
v 0.134157777 0.683216453 -0.0335843749
v 0.168037221 0.5996672 0.0323980525
v 0.176755786 0.6088934 -0.0597113073
v -0.000267843425 0.6854949 -0.09251244
v -0.00109325268 0.6188619 -0.158928156
v 0.198902369 0.521208167 -0.06884432
v 0.119013011 0.528664947 -0.165362
v 0.129504591 0.518795133 0.09629062
v 0.191793427 0.517968833 0.0307460241
v 0.0577932373 0.588207245 0.122553691
v 0.06433552 0.521439 0.122685313
v 0.198902369 0.521208167 -0.06884432
v -0.00159104809 0.544742465 -0.185476631
v 0.0550852865 0.7662549 -0.06323929
v 0.101377316 0.764341 -0.0244739428
v 0.001533349 0.675374746 0.1143215
v 0.101377316 0.764341 -0.0244739428
v 0.000237352317 0.76671505 -0.06795676
v 0.18884033 0.430674762 -0.06422188
v 0.126913279 0.431564867 -0.147776932
v 0.122477755 0.438406676 0.08562174
v 0.1879054 0.435717046 0.0251982566
v 0.0683251843 0.471637815 0.104481995
v 0.18884033 0.430674762 -0.06422188
v -0.00365160778 0.4426515 -0.158738211
v -0.00187359843 0.400794178 0.0159120038
v 0.028084835 0.387213349 0.06531825
v -0.000225158874 0.448942721 0.0973248
v 0.02233305 0.382056981 -0.126691282
v -0.00318871625 0.398478866 -0.08246051
v 0.0585764833 0.819985 -0.07948386
v 0.0917464942 0.8292362 -0.0214783959
v 0.000315753336 0.8233978 -0.0816896
v 0.1177713 0.372653246 -0.124621905
v 0.1722094 0.36987105 -0.05854915
v 0.1372034 0.300487727 -0.0521217324
v 0.115390994 0.299987584 -0.109114647
v 0.165654868 0.373682857 0.0240520034
v 0.115065217 0.3788952 0.0615301877
v 0.122123912 0.3045009 0.0109744482
v 0.1722094 0.36987105 -0.05854915
v 0.1372034 0.300487727 -0.0521217324
v 0.0554108433 0.306004733 -0.106353462
v 0.06344099 0.309317678 0.01685027
v 0.0338484 0.310800642 -0.0390058756
v -0.00187359843 0.400794178 0.0159120038
v 0.0338484 0.310800642 -0.0390058756
v 0.135176688 0.23993668 -0.0483476371
v 0.115742832 0.238931715 -0.105625682
v 0.06696047 0.249312013 0.0179695264
v 0.126234978 0.2435218 0.0124849724
v 0.135176688 0.23993668 -0.0483476371
v 0.0550375 0.2447242 -0.103986114
v 0.03706925 0.249825209 -0.0352516547
v 0.03706925 0.249825209 -0.0352516547
v 0.0013792587 0.5868441 0.132208869
v 0.001396088 0.5232362 0.1326139
v 0.0917464942 0.8292362 -0.0214783959
v 0.09470492 0.849657536 -0.06510549
v 0.119032264 0.869372368 0.0309925
v 0.08443041 0.848643661 0.06570011
v 0.1185464 0.8754624 0.04266993
v 0.07775153 0.910313368 0.03595458
v 0.0443433747 0.905710042 0.0537129454
v 0.054440707 0.8516791 0.08802733
v 0.088847205 0.925042033 -0.005383984
v 0.136200234 0.906694949 -0.0009497844
v 0.04723566 0.816346943 -0.09218915
v 0.0376066081 0.8832606 -0.07457461
v 0.0949591547 0.8303967 -0.08903314
v 0.0009276051 0.9257848 -0.05354923
v 0.00113110244 0.9556123 -0.04250791
v 0.0336330123 0.954579055 -0.0205750056
v 0.0418072827 0.92764163 -0.04240993
v 0.0336330123 0.954579055 -0.0205750056
v 0.0369536355 0.948596 0.02510406
v 0.000551544537 0.886175036 -0.0801267251
v 0.0001867073 0.8155132 -0.09308139
v 0.0369536355 0.948596 0.02510406
v 0.06470646 0.8010809 0.09700364
v 0.0965693444 0.803662539 0.07485233
v 0.00186556217 0.9049386 0.0603574924
v 0.00196100771 0.8454126 0.09479632
v 0.100712374 0.8907461 -0.0512206331
v 0.152246773 0.8991719 -0.0120523218
v 0.142099276 0.889547348 -0.04698588
v 0.178736582 0.913235 0.00682459027
v 0.157642081 0.891684234 0.0173360053
v 0.0289152376 0.98505044 0.0267305933
v 0.0289405547 0.989979148 -0.0115083959
v 0.05884318 1.04578733 -0.01151176
v 0.0552745126 1.02654815 0.03275903
v 0.000202369527 1.01920867 0.0528081879
v 0.00200940436 0.9822581 0.04577953
v 0.0552745126 1.02654815 0.03275903
v 0.0289405547 0.989979148 -0.0115083959
v 0.001317033 0.989127 -0.03491213
v -0.0005969164 1.04907131 -0.04907217
v 0.05884318 1.04578733 -0.01151176
v 0.00190526445 0.945064843 0.0488571823
v 0.00189063279 0.798232138 0.10565085
v 0.141859218 0.86647445 0.03673497
v 0.127755955 0.839719653 0.05072813
v 0.171926484 0.8746302 0.02317231
v 0.12789309 0.871811569 -0.0681434944
v 0.172184616 0.8892416 -0.02993737
v 0.143824637 0.809372544 0.0558090322
v 0.111194931 0.814855933 0.05966452
v 0.163722709 0.8413844 0.0435238071
v 0.11088299 0.8527759 -0.07674769
v 0.1640643 0.8698064 -0.06291444
v 0.144586161 0.846032858 -0.07784431
v 0.001317033 0.989127 -0.03491213
v 0.0227812678 0.985862255 -0.0220244583
v 0.0581753366 0.949345946 -0.0383311
v 0.0009270522 0.9440795 -0.0608928576
v 0.0393129252 0.98755 0.00561645348
v 0.0823554546 0.953001261 -0.0017675712
v 0.06663473 0.937085 0.04327238
v 0.0311983079 0.979333937 0.0375615954
v 0.00204352848 0.9706148 0.0542557165
v 0.00194474729 0.92581 0.0609664246
v 0.10515596 0.179788291 -0.08470201
v 0.102827646 0.2647774 -0.09512435
v 0.127780229 0.264147669 -0.04835639
v 0.1286478 0.175861552 -0.03836811
v 0.130240217 0.102081247 -0.04365099
v 0.109062836 0.172952041 -0.0113041075
v 0.122996435 0.0993748456 0.00952028
v 0.0526645444 0.169617921 -0.04778115
v 0.06880242 0.178320676 -0.08188739
v 0.06359646 0.108507782 -0.08525258
v 0.05252382 0.09333238 -0.0413256064
v 0.07316592 0.171507865 -0.00354450662
v 0.0744121 0.09801899 0.0125422068
v 0.0526645444 0.169617921 -0.04778115
v 0.05252382 0.09333238 -0.0413256064
v 0.09630661 0.109006435 -0.08557403
v 0.107771158 0.2672918 -0.015983
v 0.0698289 0.27138266 -0.0001783293
v 0.04167258 0.271766067 -0.05463625
v 0.0619211644 0.268387169 -0.09974674
v 0.04167258 0.271766067 -0.05463625
v 0.214695469 0.7682919 -0.05392555
v 0.200623035 0.762665331 -0.0938641056
v 0.156779751 0.8338803 -0.06688783
v 0.17520754 0.8311026 -0.02993202
v 0.111966386 0.7990512 -0.0374753028
v 0.156348541 0.7277454 -0.06601901
v 0.178400889 0.730993152 -0.01684194
v 0.125740021 0.794775248 0.0126180546
v 0.1993593 0.7454691 -0.0196609236
v 0.153334633 0.810212 0.0118278982
v 0.170605183 0.745177448 -0.101744637
v 0.120809384 0.8146697 -0.0788268
v 0.156348541 0.7277454 -0.06601901
v 0.111966386 0.7990512 -0.0374753028
v 0.265657842 0.678649664 -0.06074995
v 0.247102365 0.659977734 -0.09013262
v 0.224467009 0.7013538 -0.110767744
v 0.228887483 0.7397264 -0.06483256
v 0.221567571 0.63955605 -0.08823059
v 0.203639567 0.687845469 -0.106811151
v 0.21423769 0.7313283 -0.0252145138
v 0.250574052 0.672282 -0.0261390265
v 0.214561582 0.6403439 -0.0542673767
v 0.182954267 0.698681355 -0.0737504661
v 0.190934852 0.7159342 -0.0257938989
v 0.230631709 0.6623205 -0.0229321364
v 0.214561582 0.6403439 -0.0542673767
v 0.182954267 0.698681355 -0.0737504661
v 0.209826052 0.733651042 -0.101383969
v 0.184061423 0.72070086 -0.109585047
v 0.120878592 0.882941842 -0.0508988649
v 0.142369583 0.892651141 -0.00686265528
v 0.1637945 0.8610154 -0.0195510183
v 0.09087145 0.827521741 0.006969738
v 0.0917464942 0.8292362 -0.0214783959
v 0.119032264 0.869372368 0.0309925
v 0.09470492 0.849657536 -0.06510549
v 0.0917464942 0.8292362 -0.0214783959
v 0.117376655 0.8974055 -0.006180653
v -0.08874343 0.8290005 0.008380914
v -0.09197014 0.7607699 0.0387717225
v -0.07067099 0.84396714 0.0394238345
v -0.04441539 0.843124151 0.08393989
v -0.04290124 0.755432367 0.0976344347
v -0.07510635 0.685258746 -0.08435349
v -0.117980927 0.6164315 -0.148189574
v -0.177218109 0.610144734 -0.05656754
v -0.133638412 0.6841631 -0.03120598
v -0.04605374 0.676140547 0.105839953
v -0.1205088 0.680589736 0.0343938358
v -0.126079947 0.5924666 0.0948915
v -0.133638412 0.6841631 -0.03120598
v -0.177218109 0.610144734 -0.05656754
v -0.166930348 0.6008513 0.03537302
v -0.201073915 0.5237161 -0.06466414
v -0.12323679 0.5298408 -0.162925467
v -0.1917701 0.5204513 0.034751948
v -0.127985567 0.520360231 0.0989121
v -0.0621746853 0.522008061 0.12386556
v -0.0551862642 0.588606656 0.123557106
v -0.201073915 0.5237161 -0.06466414
v -0.100128643 0.7650533 -0.0226842966
v -0.0545200258 0.7666424 -0.0622658432
v -0.100128643 0.7650533 -0.0226842966
v -0.134134367 0.433423072 -0.144612864
v -0.19385618 0.434149444 -0.05946606
v -0.190943092 0.439294577 0.028238317
v -0.123780288 0.439546019 0.0867688
v -0.06821086 0.471071422 0.104400918
v -0.19385618 0.434149444 -0.05946606
v -0.0308631845 0.386981726 0.0659145862
v -0.0302770175 0.3812763 -0.126184583
v -0.0901114643 0.8307229 -0.0200472977
v -0.0579192825 0.8203968 -0.07844922
v -0.12582916 0.374223 -0.12157996
v -0.124801591 0.3016224 -0.105960213
v -0.145085424 0.302765161 -0.04845868
v -0.178558543 0.372967929 -0.054108195
v -0.1697535 0.3767334 0.0282855835
v -0.128266633 0.3064984 0.0142135937
v -0.118088737 0.380769342 0.06441808
v -0.178558543 0.372967929 -0.054108195
v -0.145085424 0.302765161 -0.04845868
v -0.0646411851 0.306182384 -0.104785234
v -0.06935062 0.309899241 0.0185438357
v -0.0412032381 0.310587555 -0.0380695947
v -0.0412032381 0.310587555 -0.0380695947
v -0.126507014 0.2406775 -0.102480836
v -0.144426435 0.242187768 -0.04461744
v -0.133811057 0.245638758 0.0159533322
v -0.07429055 0.249997884 0.0198750235
v -0.144426435 0.242187768 -0.04461744
v -0.0656577051 0.245006651 -0.10243313
v -0.0457991958 0.249713063 -0.0341102034
v -0.0457991958 0.249713063 -0.0341102034
v -0.0901114643 0.8307229 -0.0200472977
v -0.0931070149 0.853444 -0.06367752
v -0.11616607 0.871922 0.03271911
v -0.08128248 0.8506285 0.06687465
v -0.07413497 0.9113635 0.0371989459
v -0.115385205 0.8780087 0.0443850532
v -0.04050275 0.906227946 0.05442207
v -0.0505850278 0.852050364 0.0889600962
v -0.08566445 0.9262839 -0.00396145647
v -0.127006471 0.909447432 0.007114924
v -0.0468319058 0.8166794 -0.0913537
v -0.0945151746 0.8319103 -0.0875344
v -0.03641874 0.8835223 -0.0739171654
v -0.03973363 0.9279299 -0.0416857377
v -0.03098262 0.9548075 -0.02000113
v -0.03353362 0.948845267 0.0257300828
v -0.03098262 0.9548075 -0.02000113
v -0.03353362 0.948845267 0.0257300828
v -0.09340328 0.805177867 0.0763555
v -0.06104716 0.8015254 0.0981205
v -0.0988845 0.8930316 -0.0497820228
v -0.140605569 0.8922343 -0.0448431931
v -0.15006271 0.9019282 -0.009735519
v -0.176112965 0.916177034 0.009608019
v -0.154987991 0.894477 0.0197444726
v -0.0252101049 0.9852418 0.027211301
v -0.0529429428 1.02698731 0.0336279869
v -0.0572669767 1.04619777 -0.0104805417
v -0.0258797426 0.990172863 -0.0110215172
v -0.0529429428 1.02698731 0.0336279869
v -0.0258797426 0.990172863 -0.0110215172
v -0.0572669767 1.04619777 -0.0104805417
v -0.139041692 0.8691551 0.0388616472
v -0.124881618 0.842300355 0.0526038
v -0.169286653 0.877524 0.02583464
v -0.126903191 0.8743999 -0.06624867
v -0.170384765 0.8921402 -0.027263
v -0.141071662 0.8120673 0.057971213
v -0.108340681 0.817319632 0.0612462051
v -0.160957977 0.8442198 0.04603932
v -0.110183559 0.855244935 -0.0751524344
v -0.16298905 0.872650146 -0.06037787
v -0.143947691 0.8487404 -0.07564984
v -0.05587282 0.949749053 -0.0373181924
v -0.01993746 0.986013234 -0.0216450579
v -0.03596323 0.9878161 0.006285008
v -0.07937328 0.953573 -0.000331200834
v -0.06296797 0.937543154 0.0444234274
v -0.027340794 0.9795408 0.0380815044
v -0.116831884 0.18127881 -0.08162368
v -0.139190838 0.177986473 -0.0346837752
v -0.136449009 0.2662123 -0.0448681861
v -0.1127125 0.26619184 -0.0923135653
v -0.147017241 0.1034646 -0.041421555
v -0.138831213 0.100344107 0.0116549525
v -0.118980177 0.1746403 -0.008135149
v -0.06365336 0.169889763 -0.04606712
v -0.06953667 0.0936400145 -0.0398060232
v -0.08016595 0.109167621 -0.0834348649
v -0.08046327 0.178934231 -0.0797573
v -0.0908549 0.0982138962 0.01420804
v -0.08293788 0.172337011 -0.00131360069
v -0.06953667 0.0936400145 -0.0398060232
v -0.06365336 0.169889763 -0.04606712
v -0.113284424 0.110141546 -0.08352239
v -0.115529068 0.268915 -0.0130352434
v -0.07709815 0.2721066 0.00176402414
v -0.0503761545 0.2717324 -0.0534119159
v -0.07186568 0.268807232 -0.09800859
v -0.0503761545 0.2717324 -0.0534119159
v -0.214165345 0.7714302 -0.0501528047
v -0.173818082 0.8340241 -0.0272002909
v -0.156030416 0.836673737 -0.06447775
v -0.2008842 0.7657284 -0.09074275
v -0.110949017 0.801526845 -0.0358636
v -0.12386068 0.7973452 0.0144667644
v -0.177486077 0.7339389 -0.0140492413
v -0.1563675 0.730603 -0.06416926
v -0.151355132 0.8129768 0.0141658718
v -0.198388383 0.748562753 -0.0164964478
v -0.120414458 0.8172101 -0.0770525
v -0.1710995 0.748073 -0.09907791
v -0.110949017 0.801526845 -0.0358636
v -0.1563675 0.730603 -0.06416926
v -0.27007398 0.682559848 -0.0556872
v -0.2288651 0.7426317 -0.0601397157
v -0.225869387 0.703829646 -0.106894135
v -0.25259015 0.6637929 -0.0853171349
v -0.205243051 0.689826667 -0.103029408
v -0.226487264 0.6431353 -0.08399376
v -0.213469833 0.734529555 -0.0218472779
v -0.2540773 0.6760553 -0.0214130934
v -0.183244526 0.701730251 -0.07091701
v -0.219151273 0.643894136 -0.0501091741
v -0.23495923 0.6660188 -0.0184113
v -0.190290347 0.718971133 -0.0228394847
v -0.219151273 0.643894136 -0.0501091741
v -0.183244526 0.701730251 -0.07091701
v -0.210700437 0.736362457 -0.09830117
v -0.186738253 0.7207988 -0.107784621
v -0.119183771 0.8855381 -0.0491350479
v -0.162011266 0.863854766 -0.0170255248
v -0.140141234 0.895337462 -0.00472169
v -0.0901114643 0.8307229 -0.0200472977
v -0.08874343 0.8290005 0.008380914
v -0.11616607 0.871922 0.03271911
v -0.0931070149 0.853444 -0.06367752
v -0.0901114643 0.8307229 -0.0200472977
v -0.114692047 0.89995563 -0.00448420225
v 0.0529130138 0.7667935 0.113703407
v 0.0540919527 0.7937197 0.109573141
v 0.0151772341 0.7974694 0.110652484
v 0.0152879488 0.7707785 0.115244828
v 0.0117166918 0.860045552 0.0922524855
v 0.0151560521 0.885168 0.07336233
v -0.01133128 0.8852616 0.0735975653
v -0.007734633 0.8601143 0.09242524
v -0.011527909 0.7708733 0.115482993
v -0.0113100978 0.797563 0.110887729
v -0.049201645 0.767154455 0.114610329
v -0.0502633825 0.7940886 0.110499956
v -0.0118104136 0.671396255 0.123267934
v 0.015005446 0.6713015 0.123029768
v 0.0115610333 0.826443732 0.105684109
v -0.007577978 0.8265114 0.105854094
v 0.0115610333 0.826443732 0.105684109
v 0.0117166918 0.860045552 0.0922524855
v -0.007734633 0.8601143 0.09242524
v -0.007577978 0.8265114 0.105854094
v -0.08757391 0.5085098 -0.238593116
v -0.04781811 0.504430532 -0.188854262
v -0.0304725971 0.5361496 -0.185840726
v -0.06575048 0.5688249 -0.2321729
v -0.06278405 0.451719344 -0.250682771
v -0.0316085033 0.472364426 -0.194161221
v -0.00184983993 0.5904944 -0.232818842
v -0.00159104809 0.544742465 -0.185476631
v -0.002656533 0.4334194 -0.261129737
v -0.00204496714 0.4584338 -0.20222652
v -0.05170581 0.562185 -0.289908767
v -0.071021 0.5137255 -0.2924218
v -0.0501984134 0.469124079 -0.302005559
v -0.0030280347 0.454224735 -0.311240077
v -0.00239005662 0.58341527 -0.2908271
v -0.00300047081 0.522356153 -0.3352542
v -0.00157691725 0.5060277 -0.168469578
v 0.083176434 0.5079062 -0.240109637
v 0.06189741 0.5683736 -0.233306572
v 0.02721795 0.5359457 -0.1863531
v 0.04428254 0.5041049 -0.189672232
v 0.05777497 0.45129317 -0.251753539
v 0.0277549513 0.472154558 -0.194688439
v 0.06570742 0.5132422 -0.293636084
v 0.04678297 0.5618369 -0.290783465
v 0.0444031246 0.468789667 -0.302845776
vt 0.5904167 0.9628044
vt 0.527281165 0.9731692
vt 0.5376736 0.8732689
vt 0.468139648 0.971869648
vt 0.4661459 0.8718445
vt 0.4139548 0.972580433
vt 0.4139548 0.8717422
vt 0.8590514 0.7754113
vt 0.710124969 0.778979063
vt 0.710124969 0.691203535
vt 0.8397933 0.6856379
vt 0.4695946 0.7817748
vt 0.5603336 0.6849278
vt 0.5560575 0.7796897
vt 0.710124969 0.775104
vt 0.6100977 0.6874389
vt 0.710124969 0.687328458
vt 0.9742594 0.775271237
vt 0.9742594 0.687802434
vt 0.710124969 0.597493768
vt 0.818802655 0.597458661
vt 0.565678358 0.5952674
vt 0.651701748 0.595626831
vt 0.480110884 0.684190869
vt 0.488178641 0.595325232
vt 0.710124969 0.595968
vt 0.9742594 0.5976082
vt 0.8673207 0.8739816
vt 0.710124969 0.8749825
vt 0.4139548 0.7819381
vt 0.710124969 0.8734567
vt 0.9742594 0.873888135
vt 0.710124969 0.503051
vt 0.792323351 0.5001955
vt 0.566427469 0.498042345
vt 0.656731069 0.501435637
vt 0.49910453 0.5316993
vt 0.710124969 0.5015252
vt 0.9742594 0.49712342
vt 0.4139548 0.427296638
vt 0.46688354 0.4266013
vt 0.4139548 0.477556169
vt 0.915674 0.430213332
vt 0.9742594 0.429517865
vt 0.8588639 0.937199652
vt 0.710124969 0.9586645
vt 0.9742594 0.9407902
vt 0.797540069 0.43011564
vt 0.710124969 0.4301089
vt 0.710124969 0.356033027
vt 0.792925358 0.356037974
vt 0.64149344 0.428505778
vt 0.5692987 0.427064538
vt 0.617915034 0.354451418
vt 0.710124969 0.428583145
vt 0.710124969 0.3545074
vt 0.869699955 0.356108546
vt 0.529263854 0.353073835
vt 0.932919443 0.355605543
vt 0.9742594 0.4288224
vt 0.465396851 0.351918578
vt 0.710124969 0.2741027
vt 0.7857622 0.274010658
vt 0.5402503 0.272321582
vt 0.6235698 0.272587657
vt 0.710124969 0.272577047
vt 0.8632884 0.273834
vt 0.9264043 0.2738093
vt 0.465803683 0.272283673
vt 0.4139548 0.6834541
vt 0.4139548 0.595057547
vt 0.710124969 0.959488153
vt 0.7982048 0.9883153
vt 0.5698769 0.9934366
vt 0.237415388 0.154145241
vt 0.309223533 0.206959963
vt 0.175401628 0.24551475
vt 0.103873223 0.23187834
vt 0.129727319 0.115129173
vt 0.233007357 0.274901032
vt 0.3442074 0.261114717
vt 0.154343858 0.01857698
vt 0.13258335 0.165850341
vt 0.256390929 0.051204145
vt 0.0151574546 0.258913815
vt 0.0156980045 0.314782083
vt 0.09203921 0.3178156
vt 0.104229249 0.264520645
vt 0.161156982 0.33940202
vt 0.09203921 0.3178156
vt 0.0156980045 0.153354347
vt 0.0156980045 0.0162601471
vt 0.09222795 0.3179199
vt 0.152232036 0.0186004043
vt 0.257245541 0.0497126579
vt 0.01515736 0.227404952
vt 0.0156979524 0.107036352
vt 0.2666822 0.210615933
vt 0.403418 0.231222212
vt 0.365442544 0.1930176
vt 0.451819569 0.266708255
vt 0.403187424 0.231294811
vt 0.07446334 0.38791436
vt 0.137912244 0.398094118
vt 0.175270841 0.470218062
vt 0.127652735 0.4651218
vt 0.0156979524 0.4421779
vt 0.0156979524 0.378689945
vt 0.126106158 0.46481
vt 0.07480551 0.388528526
vt 0.0156980045 0.377288342
vt 0.0140359933 0.439447939
vt 0.127652735 0.4651218
vt 0.0156979524 0.3120156
vt 0.0156979039 0.01281029
vt 0.3659586 0.192334414
vt 0.331791878 0.146771371
vt 0.4315978 0.196390212
vt 0.3305069 0.146378815
vt 0.431495249 0.196752071
vt 0.361803263 0.08329654
vt 0.29232657 0.102727652
vt 0.409487069 0.1398111
vt 0.292080462 0.10361594
vt 0.4087577 0.138764977
vt 0.3617691 0.0839572549
vt 0.5030976 0.0243070126
vt 0.5252335 0.0730690956
vt 0.429130137 0.148584783
vt 0.384330451 0.0189721584
vt 0.5708331 0.104736865
vt 0.5682295 0.227337539
vt 0.695003331 0.185533226
vt 0.629657 0.085632205
vt 0.6566981 0.0243076086
vt 0.7760293 0.0253350139
vt 0.3222596 0.359416366
vt 0.326737851 0.418257833
vt 0.294695169 0.418257833
vt 0.2932981 0.359416366
vt 0.29213196 0.312838435
vt 0.2682393 0.359416366
vt 0.267604262 0.312838435
vt 0.3823868 0.359416366
vt 0.354410142 0.359416366
vt 0.348196357 0.312838435
vt 0.377852082 0.312838435
vt 0.234726548 0.359416366
vt 0.238461614 0.312838435
vt 0.202143267 0.359416366
vt 0.209999055 0.312838435
vt 0.31892705 0.312838435
vt 0.2690967 0.418257833
vt 0.230295047 0.418257833
vt 0.19286865 0.418257833
vt 0.3628466 0.418257833
vt 0.399947226 0.418257833
vt 0.200174 0.706198156
vt 0.253029644 0.7065566
vt 0.246210515 0.857458055
vt 0.190918237 0.8561661
vt 0.0288943928 0.8276044
vt 0.0435245857 0.7019006
vt 0.08990769 0.706526637
vt 0.0693004653 0.831241965
vt 0.1439232 0.7065945
vt 0.1297766 0.854119658
vt 0.305449665 0.7065544
vt 0.3148225 0.8363631
vt 0.357325763 0.7008683
vt 0.370981544 0.8346956
vt 0.205638319 0.4934095
vt 0.251863748 0.493496418
vt 0.2533304 0.6363132
vt 0.1994108 0.665418
vt 0.308361262 0.4934001
vt 0.302910984 0.635458231
vt 0.145320028 0.6665497
vt 0.150633156 0.4935885
vt 0.354019374 0.493181348
vt 0.3563684 0.6535549
vt 0.09280242 0.6661151
vt 0.098199144 0.493542075
vt 0.0502684265 0.493215084
vt 0.0450827926 0.6546311
vt 0.254029 0.6654926
vt 0.303334445 0.663345158
vt 0.247908086 0.9428327
vt 0.189612269 0.944283366
vt 0.191143766 0.8983096
vt 0.06674274 0.864159942
vt 0.0288943928 0.8633104
vt 0.128942356 0.9327913
vt 0.316485018 0.8642935
vt 0.370981544 0.8656019
vt 0.189691126 0.984620869
vt 0.5904167 0.9628044
vt 0.5376736 0.8732689
vt 0.527281165 0.9731692
vt 0.468139648 0.971869648
vt 0.4661459 0.8718445
vt 0.8590514 0.7754113
vt 0.8397933 0.6856379
vt 0.710124969 0.691203535
vt 0.710124969 0.778979063
vt 0.4695946 0.7817748
vt 0.5560575 0.7796897
vt 0.5603336 0.6849278
vt 0.710124969 0.775104
vt 0.710124969 0.687328458
vt 0.6100977 0.6874389
vt 0.710124969 0.597493768
vt 0.818802655 0.597458661
vt 0.651701748 0.595626831
vt 0.565678358 0.5952674
vt 0.488178641 0.595325232
vt 0.480110884 0.684190869
vt 0.710124969 0.595968
vt 0.710124969 0.8749825
vt 0.8673207 0.8739816
vt 0.710124969 0.8734567
vt 0.792323351 0.5001955
vt 0.710124969 0.503051
vt 0.656731069 0.501435637
vt 0.566427469 0.498042345
vt 0.49910453 0.5316993
vt 0.710124969 0.5015252
vt 0.46688354 0.4266013
vt 0.915674 0.430213332
vt 0.710124969 0.9586645
vt 0.8588639 0.937199652
vt 0.797540069 0.43011564
vt 0.792925358 0.356037974
vt 0.710124969 0.356033027
vt 0.710124969 0.4301089
vt 0.64149344 0.428505778
vt 0.617915034 0.354451418
vt 0.5692987 0.427064538
vt 0.710124969 0.428583145
vt 0.710124969 0.3545074
vt 0.869699955 0.356108546
vt 0.529263854 0.353073835
vt 0.932919443 0.355605543
vt 0.465396851 0.351918578
vt 0.7857622 0.274010658
vt 0.710124969 0.2741027
vt 0.6235698 0.272587657
vt 0.5402503 0.272321582
vt 0.710124969 0.272577047
vt 0.8632884 0.273834
vt 0.9264043 0.2738093
vt 0.465803683 0.272283673
vt 0.710124969 0.959488153
vt 0.7982048 0.9883153
vt 0.5698769 0.9934366
vt 0.237415388 0.154145241
vt 0.175401628 0.24551475
vt 0.309223533 0.206959963
vt 0.103873223 0.23187834
vt 0.129727319 0.115129173
vt 0.233007357 0.274901032
vt 0.3442074 0.261114717
vt 0.154343858 0.01857698
vt 0.256390929 0.051204145
vt 0.13258335 0.165850341
vt 0.104229249 0.264520645
vt 0.09203921 0.3178156
vt 0.09203921 0.3178156
vt 0.161156982 0.33940202
vt 0.09222795 0.3179199
vt 0.257245541 0.0497126579
vt 0.152232036 0.0186004043
vt 0.2666822 0.210615933
vt 0.365442544 0.1930176
vt 0.403418 0.231222212
vt 0.451819569 0.266708255
vt 0.403187424 0.231294811
vt 0.07446334 0.38791436
vt 0.127652735 0.4651218
vt 0.175270841 0.470218062
vt 0.137912244 0.398094118
vt 0.126106158 0.46481
vt 0.07480551 0.388528526
vt 0.127652735 0.4651218
vt 0.3659586 0.192334414
vt 0.331791878 0.146771371
vt 0.4315978 0.196390212
vt 0.3305069 0.146378815
vt 0.431495249 0.196752071
vt 0.361803263 0.08329654
vt 0.29232657 0.102727652
vt 0.409487069 0.1398111
vt 0.292080462 0.10361594
vt 0.4087577 0.138764977
vt 0.3617691 0.0839572549
vt 0.429130137 0.148584783
vt 0.5252335 0.0730690956
vt 0.5708331 0.104736865
vt 0.5682295 0.227337539
vt 0.695003331 0.185533226
vt 0.629657 0.085632205
vt 0.3222596 0.359416366
vt 0.2932981 0.359416366
vt 0.294695169 0.418257833
vt 0.326737851 0.418257833
vt 0.29213196 0.312838435
vt 0.267604262 0.312838435
vt 0.2682393 0.359416366
vt 0.3823868 0.359416366
vt 0.377852082 0.312838435
vt 0.348196357 0.312838435
vt 0.354410142 0.359416366
vt 0.238461614 0.312838435
vt 0.234726548 0.359416366
vt 0.209999055 0.312838435
vt 0.202143267 0.359416366
vt 0.31892705 0.312838435
vt 0.2690967 0.418257833
vt 0.230295047 0.418257833
vt 0.19286865 0.418257833
vt 0.3628466 0.418257833
vt 0.399947226 0.418257833
vt 0.200174 0.706198156
vt 0.190918237 0.8561661
vt 0.246210515 0.857458055
vt 0.253029644 0.7065566
vt 0.0288943928 0.8276044
vt 0.0693004653 0.831241965
vt 0.08990769 0.706526637
vt 0.0435245857 0.7019006
vt 0.1297766 0.854119658
vt 0.1439232 0.7065945
vt 0.3148225 0.8363631
vt 0.305449665 0.7065544
vt 0.370981544 0.8346956
vt 0.357325763 0.7008683
vt 0.205638319 0.4934095
vt 0.1994108 0.665418
vt 0.2533304 0.6363132
vt 0.251863748 0.493496418
vt 0.302910984 0.635458231
vt 0.308361262 0.4934001
vt 0.145320028 0.6665497
vt 0.150633156 0.4935885
vt 0.3563684 0.6535549
vt 0.354019374 0.493181348
vt 0.098199144 0.493542075
vt 0.09280242 0.6661151
vt 0.0502684265 0.493215084
vt 0.0450827926 0.6546311
vt 0.254029 0.6654926
vt 0.303334445 0.663345158
vt 0.247908086 0.9428327
vt 0.191143766 0.8983096
vt 0.189612269 0.944283366
vt 0.0288943928 0.8633104
vt 0.06674274 0.864159942
vt 0.128942356 0.9327913
vt 0.316485018 0.8642935
vt 0.370981544 0.8656019
vt 0.189691126 0.984620869
vt 0.9857709 0.1615352
vt 0.9875584 0.206956685
vt 0.922534466 0.212435842
vt 0.9228997 0.167242825
vt 0.800591767 0.1627028
vt 0.8003075 0.231299877
vt 0.7397063 0.2311545
vt 0.739990532 0.162557483
vt 0.878108561 0.167135358
vt 0.878292143 0.212329626
vt 0.815206349 0.161125958
vt 0.8132511 0.206538439
vt 0.87834394 0.00722581148
vt 0.923135161 0.00733327866
vt 0.922439337 0.261031449
vt 0.8781969 0.260925233
vt 0.783936 0.1106987
vt 0.784494 0.156800091
vt 0.756088257 0.1567319
vt 0.75695926 0.110633969
vt 0.147019058 0.07625294
vt 0.147019058 0.101082265
vt 0.176955581 0.101082265
vt 0.176955581 0.07625294
vt 0.117003568 0.07625294
vt 0.117003568 0.101082265
vt 0.20239149 0.07625294
vt 0.198668242 0.101082265
vt 0.08777672 0.07625294
vt 0.09359556 0.101082265
vt 0.176955581 0.05525124
vt 0.147019058 0.05525124
vt 0.117003568 0.0519261956
vt 0.0965664238 0.04199022
vt 0.194229826 0.04199022
vt 0.147019058 0.0254053473
vt 0.147019058 0.160603166
vt 0.147019058 0.07625294
vt 0.176955581 0.07625294
vt 0.176955581 0.101082265
vt 0.147019058 0.101082265
vt 0.117003568 0.07625294
vt 0.117003568 0.101082265
vt 0.147019058 0.05525124
vt 0.176955581 0.05525124
vt 0.117003568 0.0519261956
vn 0.51743 -0.41005975 0.751077354
vn 0.806210458 -0.115698479 0.58020556
vn 0.8821528 0.223429471 0.414590985
vn 0.616410255 0.09721749 0.78140074
vn 0.4959012 0.1451268 0.856166
vn 0.009512999 0.277409315 0.960704744
vn 0.009253377 0.125078276 0.9921037
vn 0.368279785 0.5499477 -0.749618232
vn 0.8336682 0.4889187 -0.2568187
vn 0.876109 0.42589888 -0.225927353
vn 0.4540572 0.461879015 -0.7619054
vn 0.409727067 0.20835194 0.88809526
vn 0.6069031 0.234691978 0.759334147
vn 0.8205911 0.387523234 0.4200667
vn 0.8336682 0.4889187 -0.2568187
vn 0.868309855 0.352956951 0.348510325
vn 0.876109 0.42589888 -0.225927353
vn -0.00575612672 0.5190817 -0.8547052
vn -0.00589434663 0.503352344 -0.8640612
vn 0.9559663 0.0628779754 -0.286661536
vn 0.4552735 0.0174509641 -0.8901806
vn 0.5446353 -0.07042897 0.8357106
vn 0.9197353 0.0501773357 0.389318854
vn 0.273774564 0.12123806 0.954122
vn 0.261567116 -0.143437579 0.954467535
vn 0.9559663 0.0628779754 -0.286661536
vn 0.002228041 0.9718379 -0.235639989
vn 0.3704788 0.0228617433 -0.928559542
vn 0.922965 0.220443159 -0.31550023
vn 0.00932191 0.15516533 0.9878445
vn 0.922965 0.220443159 -0.31550023
vn -0.008785082 0.02629112 -0.9996157
vn 0.934754133 -0.207269713 -0.288572371
vn 0.457897842 -0.265708655 -0.8483681
vn 0.3992359 -0.292867035 0.868815064
vn 0.895003855 -0.200478464 0.3984676
vn 0.1490736 -0.349198252 0.9251149
vn 0.934754133 -0.207269713 -0.288572371
vn -0.0124066938 -0.3924579 -0.919686258
vn -0.000647418 -0.9040984 0.427323818
vn -0.427308 -0.56614393 0.7049035
vn 0.00191985525 -0.500529945 0.8657171
vn -0.502790868 -0.494662732 -0.7088795
vn -0.0111231841 -0.919158 -0.393731952
vn 0.5087018 -0.319618016 -0.799416542
vn 0.180868417 -0.762457132 -0.6212453
vn -0.009498598 -0.263504654 -0.964611351
vn 0.4277072 -0.327575147 -0.8424732
vn 0.8891133 -0.378442049 -0.25740853
vn 0.9723291 -0.202212229 -0.116989017
vn 0.5593847 -0.133863628 -0.8180277
vn 0.787523448 -0.4042504 0.465175718
vn 0.276945919 -0.4370512 0.8557378
vn 0.6237635 -0.3134593 0.716004431
vn 0.8891133 -0.378442049 -0.25740853
vn 0.9723291 -0.202212229 -0.116989017
vn -0.561232567 -0.258184284 -0.786358
vn -0.454324633 -0.379685968 0.8058708
vn -0.9523942 -0.296310931 0.07172984
vn -0.000647418 -0.9040984 0.427323818
vn -0.9523942 -0.296310931 0.07172984
vn 0.9949589 -0.0293818861 -0.09588311
vn 0.5931 -0.0368616469 -0.8042845
vn -0.4246828 -0.00578028243 0.905323744
vn 0.7090574 0.0351605378 0.704273641
vn 0.9949589 -0.0293818861 -0.09588311
vn -0.5901608 -0.04445544 -0.806060731
vn -0.9900327 -0.051134374 0.13122724
vn -0.9900327 -0.051134374 0.13122724
vn 0.009284469 0.108289763 0.994076
vn 0.007702184 -0.190394685 0.9816774
vn 0.180868417 -0.762457132 -0.6212453
vn -0.0372793041 -0.387985975 -0.920911
vn 0.4600962 0.0124788638 0.8877814
vn 0.4636434 0.359724015 0.809711933
vn 0.318381518 0.5054693 0.801956356
vn 0.455342352 0.621361 0.6376314
vn 0.296730816 0.501170039 0.8128834
vn 0.327112317 0.398138285 0.8570201
vn 0.494033456 0.868586361 -0.03858352
vn 0.145334989 0.9839598 0.103444867
vn 0.0259546153 0.231298178 -0.9725366
vn 0.168109238 0.44529435 -0.879461348
vn 0.07468009 0.337651759 -0.9383039
vn -0.00550036738 0.5470699 -0.837068856
vn -0.00747088576 0.290528119 -0.9568373
vn 0.6748297 0.530722558 -0.512775242
vn 0.3012696 0.642475 -0.70460093
vn 0.6748297 0.530722558 -0.512775242
vn 0.676051557 0.525180638 0.5168555
vn -0.006687263 0.405177832 -0.9142134
vn -0.008097948 0.180362344 -0.9835669
vn 0.676051557 0.525180638 0.5168555
vn 0.349330127 0.231929362 0.9078421
vn 0.5599637 0.2892458 0.776387453
vn 0.009699924 0.4133255 0.9105317
vn 0.009512999 0.277409315 0.960704744
vn 0.205970511 0.7273811 -0.654593647
vn 0.08579062 0.8973308 -0.4329404
vn 0.10731715 0.871118 -0.479203969
vn -0.2042831 0.9149643 0.348006755
vn 0.04628301 0.640457869 0.7665974
vn 0.8411878 -0.14470087 0.521022856
vn 0.8775971 -0.08853178 -0.471153378
vn 0.7462939 -0.41862464 -0.517492831
vn 0.8043277 -0.5452209 0.236201212
vn -0.0120034246 -0.3113635 0.9502151
vn 0.0183118023 -0.04670051 0.9987411
vn 0.8043277 -0.5452209 0.236201212
vn 0.8775971 -0.08853178 -0.471153378
vn -0.00276324921 0.2719279 -0.962313652
vn -0.0239372961 -0.295209259 -0.9551327
vn 0.7462939 -0.41862464 -0.517492831
vn 0.00952424947 0.31801945 0.9480364
vn 0.009428522 0.212014541 0.977221
vn 0.299719721 0.38528952 0.8727658
vn 0.27677086 0.2622878 0.9244474
vn 0.244163215 0.4907448 0.836393356
vn 0.0117162857 0.5911779 -0.8064561
vn 0.185558453 0.9322085 -0.3107337
vn 0.153845057 0.2418609 0.9580371
vn 0.378771871 0.225850984 0.897509456
vn 0.16370979 0.388065428 0.9069754
vn 0.07358132 0.468579322 -0.8803518
vn 0.139067054 0.7109562 -0.6893487
vn 0.045426324 0.3774688 -0.924907446
vn -0.00276324921 0.2719279 -0.962313652
vn 0.502554 0.708411336 -0.495573282
vn 0.468413 0.6757711 -0.569142044
vn -0.005927284 0.499633968 -0.866216362
vn 0.6573949 0.7533542 -0.0170136243
vn 0.6289412 0.77681005 0.03160868
vn 0.5246783 0.516591132 0.6766434
vn 0.5478922 0.545297742 0.6344009
vn 0.009505957 0.270284683 0.9627335
vn 0.009306646 0.1480978 0.9889289
vn 0.5264638 -0.09153356 -0.845255852
vn 0.519571066 -0.08996341 -0.849677861
vn 0.9998366 0.0152686629 0.009675078
vn 0.996588051 -0.014049924 0.08133166
vn 0.9742217 0.126403719 -0.1868534
vn 0.591601 0.113014959 0.7982706
vn 0.6292159 0.289753437 0.7212006
vn -0.99959445 -0.0217794944 0.0183457062
vn -0.55642134 -0.08033928 -0.8270072
vn -0.661516666 0.034855254 -0.74912
vn -0.992165565 0.024573369 0.122489251
vn -0.4852002 0.0808908045 0.87065345
vn -0.514915943 0.1749681 0.8391947
vn -0.99959445 -0.0217794944 0.0183457062
vn -0.992165565 0.024573369 0.122489251
vn 0.440318346 0.0222242754 -0.8975666
vn 0.633927941 0.05837906 0.771185637
vn -0.4033057 -0.0206882711 0.9148314
vn -0.9941647 -0.105456419 0.0227048788
vn -0.5305875 -0.164000139 -0.8316134
vn -0.9941647 -0.105456419 0.0227048788
vn 0.86923 0.486222118 0.08959511
vn 0.48162812 0.47102 -0.7390362
vn 0.4577101 0.5303441 -0.713608146
vn 0.90344 0.415126264 0.107081041
vn -0.8262788 -0.551184058 -0.116015114
vn -0.8208035 -0.5668896 -0.07012731
vn -0.263041049 -0.5722831 0.7767248
vn -0.371059954 -0.564714253 0.737165034
vn 0.5326671 0.0898763537 0.8415391
vn 0.522299349 -0.01408772 0.8526459
vn -0.457066655 0.0192736518 -0.8892236
vn -0.501762152 -0.0395896919 -0.8640992
vn -0.8208035 -0.5668896 -0.07012731
vn -0.8262788 -0.551184058 -0.116015114
vn 0.895311058 0.437293917 -0.0848062
vn 0.5169693 -0.1087757 -0.8490645
vn 0.439716667 0.09950331 -0.8926076
vn 0.8769982 0.475293636 -0.07049936
vn -0.5434877 -0.52360636 -0.6560926
vn -0.4243555 -0.423223525 -0.8005025
vn 0.5383588 0.226301774 0.811761856
vn 0.531922758 0.315031618 0.786011
vn -0.8477515 -0.4945141 0.191763386
vn -0.8321476 -0.5513988 -0.0590739921
vn -0.3997527 -0.477666 0.7823254
vn -0.310958475 -0.217772588 0.9251378
vn -0.8477515 -0.4945141 0.191763386
vn -0.8321476 -0.5513988 -0.0590739921
vn 0.47429496 0.410414219 -0.7788482
vn -0.443390369 -0.115288638 -0.8888833
vn 0.403128862 0.6317818 -0.662071645
vn 0.599504948 0.779215038 0.182805136
vn 0.878401756 0.468500346 0.09443405
vn 0.51743 -0.41005975 0.751077354
vn 0.180868417 -0.762457132 -0.6212453
vn 0.4600962 0.0124788638 0.8877814
vn -0.0372793041 -0.387985975 -0.920911
vn 0.180868417 -0.762457132 -0.6212453
vn 0.188622013 0.966934443 0.171637774
vn -0.514046252 -0.4107782 0.7530058
vn -0.873011 0.2290511 0.4305664
vn -0.8011984 -0.1047873 0.5891525
vn -0.6017318 0.101523496 0.7922196
vn -0.4795782 0.148575127 0.8648296
vn -0.3776387 0.5525845 -0.742993534
vn -0.4622431 0.467015326 -0.753809
vn -0.8746183 0.4370256 -0.20988442
vn -0.8346208 0.4948162 -0.242002174
vn -0.392405629 0.211187527 0.8952193
vn -0.810240746 0.393288165 0.4345508
vn -0.589842856 0.241816655 0.770460963
vn -0.8346208 0.4948162 -0.242002174
vn -0.8746183 0.4370256 -0.20988442
vn -0.8573657 0.364469975 0.363435864
vn -0.960263 0.0862546861 -0.2654337
vn -0.472340316 0.0264441036 -0.8810195
vn -0.9084817 0.07087783 0.41187048
vn -0.5244106 -0.06510196 0.848973036
vn -0.242889345 -0.146630988 0.9589078
vn -0.255906 0.123504378 0.9587799
vn -0.960263 0.0862546861 -0.2654337
vn -0.927111864 0.2254041 -0.2994271
vn -0.386741519 0.0255380087 -0.921834469
vn -0.927111864 0.2254041 -0.2994271
vn -0.486004829 -0.254174441 -0.8361786
vn -0.9470574 -0.182741269 -0.2639845
vn -0.892723441 -0.173577711 0.4158313
vn -0.387660444 -0.2788517 0.8786132
vn -0.136895433 -0.349918783 0.92672354
vn -0.9470574 -0.182741269 -0.2639845
vn 0.434046 -0.5716727 0.696271837
vn 0.479362816 -0.5030721 -0.719117343
vn -0.201556429 -0.7585949 -0.619603753
vn -0.5329725 -0.3057598 -0.7889558
vn -0.457654 -0.3182203 -0.8302341
vn -0.5841195 -0.1209077 -0.8026118
vn -0.979656637 -0.178824067 -0.09107625
vn -0.9045124 -0.3570997 -0.23310326
vn -0.7844176 -0.3801657 0.490064263
vn -0.612207 -0.2972626 0.732691944
vn -0.265394062 -0.420603663 0.867558956
vn -0.9045124 -0.3570997 -0.23310326
vn -0.979656637 -0.178824067 -0.09107625
vn 0.535420239 -0.271188885 -0.7998636
vn 0.465945154 -0.3894803 0.7944811
vn 0.9473514 -0.316794336 0.0465473458
vn 0.9473514 -0.316794336 0.0465473458
vn -0.6144251 -0.022209093 -0.7886625
vn -0.997553647 -0.00533846766 -0.0697007
vn -0.689318955 0.0533045977 0.722494245
vn 0.447974622 -0.01483207 0.8939232
vn -0.997553647 -0.00533846766 -0.0697007
vn 0.5675438 -0.0581997931 -0.821283638
vn 0.9915629 -0.07491226 0.105788141
vn 0.9915629 -0.07491226 0.105788141
vn -0.201556429 -0.7585949 -0.619603753
vn -0.004900651 -0.3496583 -0.9368645
vn -0.4504947 0.0230842549 0.8924806
vn -0.439552844 0.3639227 0.821190357
vn -0.432288438 0.6294649 0.645678461
vn -0.29136464 0.5032575 0.8135346
vn -0.2758179 0.504162848 0.8183791
vn -0.3037833 0.3985255 0.8653861
vn -0.490901083 0.8704572 -0.0363373235
vn -0.136670128 0.9631724 0.231560454
vn -0.03793244 0.2309031 -0.972237051
vn -0.07542779 0.3328974 -0.939941466
vn -0.173153952 0.446189433 -0.878027737
vn -0.3029491 0.64743346 -0.699322343
vn -0.6787078 0.536553741 -0.5014637
vn -0.6616126 0.5308051 0.529636443
vn -0.6787078 0.536553741 -0.5014637
vn -0.6616126 0.5308051 0.529636443
vn -0.53946805 0.290011138 0.79048574
vn -0.3284635 0.233924657 0.9150907
vn -0.205445334 0.7406671 -0.6396909
vn -0.107601829 0.8724049 -0.476793021
vn -0.03782449 0.923423767 -0.381913483
vn 0.144585013 0.933755934 0.327406555
vn -0.08442634 0.5707876 0.8167458
vn -0.832866848 -0.156785429 0.5308023
vn -0.7945942 -0.562859833 0.227615491
vn -0.751630068 -0.4364562 -0.4945283
vn -0.8852355 -0.0992563143 -0.454429626
vn -0.7945942 -0.562859833 0.227615491
vn -0.8852355 -0.0992563143 -0.454429626
vn -0.751630068 -0.4364562 -0.4945283
vn -0.2804382 0.387976617 0.877968431
vn -0.258449823 0.264693946 0.9290537
vn -0.2257951 0.492406368 0.8405668
vn -0.02123922 0.59212476 -0.8055664
vn -0.184452549 0.933516562 -0.3074477
vn -0.135091409 0.24288258 0.9606031
vn -0.360568136 0.226836115 0.9047298
vn -0.144827425 0.3891559 0.9097157
vn -0.07581932 0.467312962 -0.8808348
vn -0.146259889 0.711964846 -0.6868145
vn -0.0591771267 0.377837718 -0.923978746
vn -0.473658621 0.6791011 -0.5607756
vn -0.5062566 0.711977243 -0.486613482
vn -0.6522509 0.757984042 -0.00538240839
vn -0.6227729 0.7812353 0.0427247249
vn -0.508912265 0.5202453 0.6858229
vn -0.532669 0.549118042 0.6439978
vn -0.546713531 -0.0617451966 -0.835040033
vn -0.993058 0.035909608 0.112010047
vn -0.9985799 0.0394720919 0.03577883
vn -0.543530166 -0.07883721 -0.8356792
vn -0.9639052 0.208454981 -0.16563
vn -0.6179757 0.327401131 0.714782834
vn -0.5586588 0.138388276 0.8177708
vn 0.9971883 -0.0745602548 -0.00749816233
vn 0.992083251 -0.0600068532 0.110317878
vn 0.637541354 -0.0111935176 -0.7703348
vn 0.537115633 -0.101653427 -0.837361
vn 0.506333232 0.124600656 0.853288531
vn 0.5142485 0.0436591841 0.8565293
vn 0.992083251 -0.0600068532 0.110317878
vn 0.9971883 -0.0745602548 -0.00749816233
vn -0.466471761 0.06737505 -0.881966352
vn -0.6119227 0.0747852847 0.787374
vn 0.426497579 -0.0292049572 0.9040171
vn 0.99157697 -0.129484892 -0.00295623043
vn 0.504534245 -0.17822738 -0.844795942
vn 0.99157697 -0.129484892 -0.00295623043
vn -0.8642194 0.491468579 0.10762611
vn -0.898578048 0.421316624 0.122677438
vn -0.468011469 0.533275545 -0.704686046
vn -0.4936076 0.4753061 -0.7283101
vn 0.8166285 -0.5617023 -0.132696524
vn 0.3756055 -0.5696843 0.7310132
vn 0.27300778 -0.5759323 0.7705639
vn 0.8172908 -0.569283 -0.08917742
vn -0.507042468 -0.0102758063 0.8618598
vn -0.5164553 0.0916887447 0.851391256
vn 0.484138578 -0.046631135 -0.8737479
vn 0.441796541 0.0175523181 -0.896943569
vn 0.8166285 -0.5617023 -0.132696524
vn 0.8172908 -0.569283 -0.08917742
vn -0.8654664 0.494864643 -0.07795431
vn -0.86544776 0.49871552 -0.0477803946
vn -0.4462505 0.09967418 -0.88934
vn -0.5362144 -0.06294746 -0.841731369
vn 0.40549767 -0.463510156 -0.7878642
vn 0.491507828 -0.5597062 -0.667194843
vn -0.5081575 0.240033373 0.8271396
vn -0.50315845 0.355268031 0.787791967
vn 0.8112167 -0.581554 -0.0610114224
vn 0.816880167 -0.5418124 0.197853833
vn 0.2980995 -0.215556368 0.92987746
vn 0.40942198 -0.4917206 0.768494964
vn 0.816880167 -0.5418124 0.197853833
vn 0.8112167 -0.581554 -0.0610114224
vn -0.4936715 0.4132414 -0.7651928
vn 0.4169624 -0.131514266 -0.899358869
vn -0.4071531 0.6348362 -0.6566653
vn -0.872926831 0.475451976 0.109289244
vn -0.5906183 0.7835731 0.19282952
vn -0.201556429 -0.7585949 -0.619603753
vn -0.514046252 -0.4107782 0.7530058
vn -0.4504947 0.0230842549 0.8924806
vn -0.004900651 -0.3496583 -0.9368645
vn -0.201556429 -0.7585949 -0.619603753
vn -0.1773941 0.9686025 0.174185544
vn 0.048178684 0.1573673 0.9863642
vn 0.04182322 0.149696633 0.98784703
vn 0.02324218 0.1671684 0.985654354
vn 0.0263192244 0.139804184 0.9898293
vn 0.009466946 0.49399206 0.869414866
vn 0.009223742 0.6001506 0.799833834
vn 0.009223877 0.6001507 0.7998338
vn 0.00946714 0.493991941 0.8694149
vn -0.007745359 0.139924809 0.990131855
vn -0.004549741 0.167266771 0.9859012
vn -0.0295386482 0.15764226 0.9870544
vn -0.0232122112 0.149926752 0.9884246
vn 0.009129746 0.07799112 0.996912241
vn 0.009129716 0.07799113 0.996912241
vn 0.009503914 0.268403232 0.963259757
vn 0.009503993 0.268403232 0.963259757
vn 0.009503914 0.268403232 0.963259757
vn 0.009466946 0.49399206 0.869414866
vn 0.00946714 0.493991941 0.8694149
vn 0.009503993 0.268403232 0.963259757
vn -0.981493 -0.0482229926 0.185326725
vn -0.6453056 -0.07757425 0.7599756
vn -0.407631963 0.426050216 0.807661653
vn -0.6914796 0.6739657 0.260050327
vn -0.6699014 -0.7397343 0.06344601
vn -0.389071524 -0.603588462 0.695919752
vn 0.00582991168 0.9618225 0.273611933
vn 0.002228041 0.9718379 -0.235639989
vn -0.00380935 -0.9995099 -0.0310725439
vn 0.00239680265 -0.8066843 0.5909777
vn -0.593892038 0.6226608 -0.509495556
vn -0.830052257 0.0416000262 -0.5561319
vn -0.5871159 -0.4958099 -0.639896452
vn -0.008818354 -0.6997145 -0.714368165
vn -0.00104004832 0.883386433 -0.4686441
vn -0.008297929 0.140193477 -0.990089357
vn 0.008543608 -0.08603099 0.9962558
vn 0.984264433 -0.0551716276 0.167867869
vn 0.7007367 0.669043839 0.247686177
vn 0.424914569 0.423107237 0.800267339
vn 0.658137441 -0.08218211 0.748399138
vn 0.6656766 -0.7444554 0.0515838675
vn 0.397093415 -0.606368 0.6889373
vn 0.8203175 0.03576619 -0.5707889
vn 0.5891363 0.6184791 -0.520001948
vn 0.57213825 -0.499907583 -0.65019244
usemtl 0003110002_part_0_material_0
f 1/1/1 2/2/2 3/3/3
f 4/4/4 5/5/5 2/2/2
f 4/4/4 6/6/6 7/7/7
f 7/7/7 5/5/5 4/4/4
f 8/8/8 9/9/9 10/10/10
f 10/10/10 11/11/11 8/8/8
f 12/12/12 13/13/13 14/14/14
f 15/15/15 14/14/14 16/16/16
f 16/16/16 17/17/17 15/15/15
f 18/18/18 8/8/8 11/11/11
f 11/11/11 19/19/19 18/18/18
f 20/20/20 21/21/21 11/11/11
f 11/11/11 10/10/10 20/20/20
f 13/13/13 22/22/22 23/23/23
f 23/23/23 16/16/16 13/13/13
f 13/13/13 24/24/24 25/25/25
f 25/25/25 22/22/22 13/13/13
f 23/23/23 26/26/26 17/17/17
f 17/17/17 16/16/16 23/23/23
f 19/19/19 11/11/11 21/21/21
f 21/21/21 27/27/27 19/19/19
f 9/9/9 8/8/8 28/28/28
f 28/28/28 29/29/29 9/9/9
f 5/5/5 12/12/12 14/14/14
f 14/14/14 3/3/3 5/5/5
f 30/30/30 12/12/12 5/5/5
f 5/5/5 7/7/7 30/30/30
f 14/14/14 15/15/15 31/31/31
f 31/31/31 3/3/3 14/14/14
f 8/8/8 18/18/18 32/32/32
f 32/32/32 28/28/28 8/8/8
f 20/20/20 33/33/33 34/34/34
f 34/34/34 21/21/21 20/20/20
f 23/23/23 22/22/22 35/35/35
f 35/35/35 36/36/36 23/23/23
f 22/22/22 25/25/25 37/37/37
f 23/23/23 36/36/36 38/38/38
f 38/38/38 26/26/26 23/23/23
f 27/27/27 21/21/21 39/39/39
f 35/35/35 22/22/22 37/37/37
f 39/39/39 21/21/21 34/34/34
f 40/40/40 41/41/41 42/42/42
f 39/39/39 43/43/43 44/44/44
f 29/29/29 28/28/28 45/45/45
f 45/45/45 46/46/46 29/29/29
f 28/28/28 32/32/32 47/47/47
f 47/47/47 45/45/45 28/28/28
f 48/48/48 49/49/49 50/50/50
f 50/50/50 51/51/51 48/48/48
f 52/52/52 53/53/53 54/54/54
f 55/55/55 52/52/52 54/54/54
f 54/54/54 56/56/56 55/55/55
f 43/43/43 48/48/48 51/51/51
f 51/51/51 57/57/57 43/43/43
f 53/53/53 41/41/41 58/58/58
f 44/44/44 43/43/43 57/57/57
f 57/57/57 59/59/59 44/44/44
f 60/60/60 44/44/44 59/59/59
f 41/41/41 40/40/40 61/61/61
f 51/51/51 50/50/50 62/62/62
f 62/62/62 63/63/63 51/51/51
f 54/54/54 58/58/58 64/64/64
f 64/64/64 65/65/65 54/54/54
f 56/56/56 54/54/54 65/65/65
f 65/65/65 66/66/66 56/56/56
f 57/57/57 51/51/51 63/63/63
f 63/63/63 67/67/67 57/57/57
f 59/59/59 57/57/57 67/67/67
f 67/67/67 68/68/68 59/59/59
f 58/58/58 61/61/61 69/69/69
f 69/69/69 64/64/64 58/58/58
f 53/53/53 58/58/58 54/54/54
f 53/53/53 52/52/52 36/36/36
f 36/36/36 35/35/35 53/53/53
f 52/52/52 55/55/55 38/38/38
f 38/38/38 36/36/36 52/52/52
f 33/33/33 49/49/49 48/48/48
f 48/48/48 34/34/34 33/33/33
f 37/37/37 42/42/42 41/41/41
f 41/41/41 53/53/53 35/35/35
f 35/35/35 37/37/37 41/41/41
f 12/12/12 30/30/30 70/70/70
f 70/70/70 24/24/24 12/12/12
f 70/70/70 71/71/71 25/25/25
f 25/25/25 24/24/24 70/70/70
f 71/71/71 42/42/42 37/37/37
f 37/37/37 25/25/25 71/71/71
f 13/13/13 16/16/16 14/14/14
f 34/34/34 48/48/48 43/43/43
f 43/43/43 39/39/39 34/34/34
f 61/61/61 58/58/58 41/41/41
f 12/12/12 24/24/24 13/13/13
f 5/5/5 3/3/3 2/2/2
f 31/31/31 72/72/72 1/1/1
f 1/1/1 3/3/3 31/31/31
f 45/45/45 73/73/73 46/46/46
f 74/74/74 2/2/2 1/1/1
f 75/75/75 76/76/76 77/77/77
f 78/78/78 79/79/79 75/75/75
f 75/75/75 77/77/77 78/78/78
f 80/80/80 77/77/77 76/76/76
f 76/76/76 81/81/81 80/80/80
f 82/82/82 83/83/83 84/84/84
f 85/85/85 86/86/86 87/87/87
f 87/87/87 88/88/88 85/85/85
f 80/80/80 89/89/89 90/90/90
f 91/91/91 83/83/83 82/82/82
f 82/82/82 92/92/92 91/91/91
f 78/78/78 77/77/77 93/93/93
f 79/79/79 94/94/94 95/95/95
f 95/95/95 75/75/75 79/79/79
f 96/96/96 97/97/97 79/79/79
f 79/79/79 78/78/78 96/96/96
f 93/93/93 77/77/77 80/80/80
f 98/98/98 81/81/81 99/99/99
f 99/99/99 100/100/100 98/98/98
f 101/101/101 81/81/81 102/102/102
f 103/103/103 104/104/104 105/105/105
f 105/105/105 106/106/106 103/103/103
f 107/107/107 108/108/108 103/103/103
f 103/103/103 109/109/109 107/107/107
f 110/110/110 111/111/111 112/112/112
f 112/112/112 113/113/113 110/110/110
f 87/87/87 86/86/86 111/111/111
f 111/111/111 110/110/110 87/87/87
f 90/90/90 89/89/89 104/104/104
f 104/104/104 103/103/103 90/90/90
f 103/103/103 108/108/108 114/114/114
f 114/114/114 93/93/93 103/103/103
f 78/78/78 114/114/114 96/96/96
f 80/80/80 81/81/81 98/98/98
f 98/98/98 88/88/88 80/80/80
f 85/85/85 88/88/88 83/83/83
f 83/83/83 91/91/91 85/85/85
f 80/80/80 88/88/88 87/87/87
f 88/88/88 98/98/98 83/83/83
f 79/79/79 97/97/97 115/115/115
f 115/115/115 94/94/94 79/79/79
f 78/78/78 93/93/93 114/114/114
f 102/102/102 81/81/81 76/76/76
f 76/76/76 116/116/116 102/102/102
f 116/116/116 76/76/76 117/117/117
f 116/116/116 118/118/118 102/102/102
f 81/81/81 101/101/101 99/99/99
f 119/119/119 98/98/98 100/100/100
f 99/99/99 120/120/120 100/100/100
f 121/121/121 117/117/117 122/122/122
f 122/122/122 75/75/75 95/95/95
f 117/117/117 123/123/123 116/116/116
f 117/117/117 76/76/76 75/75/75
f 75/75/75 122/122/122 117/117/117
f 124/124/124 83/83/83 98/98/98
f 98/98/98 119/119/119 124/124/124
f 84/84/84 83/83/83 124/124/124
f 100/100/100 125/125/125 119/119/119
f 119/119/119 126/126/126 124/124/124
f 127/127/127 128/128/128 129/129/129
f 129/129/129 130/130/130 127/127/127
f 131/131/131 132/132/132 129/129/129
f 129/129/129 128/128/128 131/131/131
f 133/133/133 134/134/134 135/135/135
f 135/135/135 136/136/136 133/133/133
f 131/131/131 134/134/134 133/133/133
f 133/133/133 132/132/132 131/131/131
f 137/137/137 138/138/138 139/139/139
f 139/139/139 140/140/140 137/137/137
f 141/141/141 140/140/140 142/142/142
f 142/142/142 143/143/143 141/141/141
f 144/144/144 145/145/145 146/146/146
f 146/146/146 147/147/147 144/144/144
f 143/143/143 142/142/142 148/148/148
f 148/148/148 149/149/149 143/143/143
f 148/148/148 150/150/150 151/151/151
f 151/151/151 149/149/149 148/148/148
f 140/140/140 141/141/141 152/152/152
f 152/152/152 137/137/137 140/140/140
f 140/140/140 139/139/139 153/153/153
f 153/153/153 142/142/142 140/140/140
f 142/142/142 153/153/153 154/154/154
f 154/154/154 148/148/148 142/142/142
f 154/154/154 155/155/155 150/150/150
f 150/150/150 148/148/148 154/154/154
f 156/156/156 145/145/145 144/144/144
f 144/144/144 157/157/157 156/156/156
f 156/156/156 138/138/138 137/137/137
f 137/137/137 145/145/145 156/156/156
f 145/145/145 137/137/137 152/152/152
f 152/152/152 146/146/146 145/145/145
f 158/158/158 159/159/159 160/160/160
f 160/160/160 161/161/161 158/158/158
f 162/162/162 163/163/163 164/164/164
f 164/164/164 165/165/165 162/162/162
f 164/164/164 166/166/166 167/167/167
f 167/167/167 165/165/165 164/164/164
f 160/160/160 159/159/159 168/168/168
f 168/168/168 169/169/169 160/160/160
f 168/168/168 170/170/170 171/171/171
f 171/171/171 169/169/169 168/168/168
f 166/166/166 158/158/158 161/161/161
f 161/161/161 167/167/167 166/166/166
f 172/172/172 173/173/173 174/174/174
f 174/174/174 175/175/175 172/172/172
f 173/173/173 176/176/176 177/177/177
f 177/177/177 174/174/174 173/173/173
f 178/178/178 179/179/179 172/172/172
f 172/172/172 175/175/175 178/178/178
f 176/176/176 180/180/180 181/181/181
f 181/181/181 177/177/177 176/176/176
f 178/178/178 182/182/182 183/183/183
f 183/183/183 179/179/179 178/178/178
f 184/184/184 183/183/183 182/182/182
f 182/182/182 185/185/185 184/184/184
f 159/159/159 158/158/158 175/175/175
f 175/175/175 186/186/186 159/159/159
f 168/168/168 159/159/159 186/186/186
f 186/186/186 187/187/187 168/168/168
f 170/170/170 168/168/168 187/187/187
f 187/187/187 181/181/181 170/170/170
f 164/164/164 182/182/182 178/178/178
f 178/178/178 166/166/166 164/164/164
f 178/178/178 175/175/175 158/158/158
f 158/158/158 166/166/166 178/178/178
f 174/174/174 186/186/186 175/175/175
f 187/187/187 186/186/186 174/174/174
f 174/174/174 177/177/177 187/187/187
f 163/163/163 185/185/185 182/182/182
f 182/182/182 164/164/164 163/163/163
f 177/177/177 181/181/181 187/187/187
f 188/188/188 189/189/189 190/190/190
f 190/190/190 160/160/160 188/188/188
f 162/162/162 165/165/165 191/191/191
f 191/191/191 192/192/192 162/162/162
f 165/165/165 167/167/167 193/193/193
f 193/193/193 191/191/191 165/165/165
f 160/160/160 169/169/169 194/194/194
f 194/194/194 188/188/188 160/160/160
f 169/169/169 171/171/171 195/195/195
f 195/195/195 194/194/194 169/169/169
f 167/167/167 190/190/190 189/189/189
f 189/189/189 193/193/193 167/167/167
f 167/167/167 161/161/161 190/190/190
f 190/190/190 161/161/161 160/160/160
f 188/188/188 196/196/196 189/189/189
f 196/196/196 193/193/193 189/189/189
f 197/197/197 198/198/198 199/199/199
f 200/200/200 199/199/199 201/201/201
f 200/200/200 201/201/201 7/7/7
f 7/7/7 6/6/6 200/200/200
f 202/202/202 203/203/203 204/204/204
f 204/204/204 205/205/205 202/202/202
f 206/206/206 207/207/207 208/208/208
f 209/209/209 210/210/210 211/211/211
f 211/211/211 207/207/207 209/209/209
f 18/18/18 19/19/19 203/203/203
f 203/203/203 202/202/202 18/18/18
f 212/212/212 204/204/204 203/203/203
f 203/203/203 213/213/213 212/212/212
f 208/208/208 211/211/211 214/214/214
f 214/214/214 215/215/215 208/208/208
f 208/208/208 215/215/215 216/216/216
f 216/216/216 217/217/217 208/208/208
f 214/214/214 211/211/211 210/210/210
f 210/210/210 218/218/218 214/214/214
f 19/19/19 27/27/27 213/213/213
f 213/213/213 203/203/203 19/19/19
f 205/205/205 219/219/219 220/220/220
f 220/220/220 202/202/202 205/205/205
f 201/201/201 198/198/198 207/207/207
f 207/207/207 206/206/206 201/201/201
f 30/30/30 7/7/7 201/201/201
f 201/201/201 206/206/206 30/30/30
f 207/207/207 198/198/198 221/221/221
f 221/221/221 209/209/209 207/207/207
f 202/202/202 220/220/220 32/32/32
f 32/32/32 18/18/18 202/202/202
f 212/212/212 213/213/213 222/222/222
f 222/222/222 223/223/223 212/212/212
f 214/214/214 224/224/224 225/225/225
f 225/225/225 215/215/215 214/214/214
f 215/215/215 226/226/226 216/216/216
f 214/214/214 218/218/218 227/227/227
f 227/227/227 224/224/224 214/214/214
f 27/27/27 39/39/39 213/213/213
f 225/225/225 226/226/226 215/215/215
f 39/39/39 222/222/222 213/213/213
f 40/40/40 42/42/42 228/228/228
f 44/44/44 229/229/229 39/39/39
f 219/219/219 230/230/230 231/231/231
f 231/231/231 220/220/220 219/219/219
f 220/220/220 231/231/231 47/47/47
f 47/47/47 32/32/32 220/220/220
f 232/232/232 233/233/233 234/234/234
f 234/234/234 235/235/235 232/232/232
f 236/236/236 237/237/237 238/238/238
f 239/239/239 240/240/240 237/237/237
f 237/237/237 236/236/236 239/239/239
f 229/229/229 241/241/241 233/233/233
f 233/233/233 232/232/232 229/229/229
f 238/238/238 242/242/242 228/228/228
f 44/44/44 243/243/243 241/241/241
f 241/241/241 229/229/229 44/44/44
f 60/60/60 243/243/243 44/44/44
f 228/228/228 244/244/244 40/40/40
f 233/233/233 245/245/245 246/246/246
f 246/246/246 234/234/234 233/233/233
f 237/237/237 247/247/247 248/248/248
f 248/248/248 242/242/242 237/237/237
f 240/240/240 249/249/249 247/247/247
f 247/247/247 237/237/237 240/240/240
f 241/241/241 250/250/250 245/245/245
f 245/245/245 233/233/233 241/241/241
f 243/243/243 251/251/251 250/250/250
f 250/250/250 241/241/241 243/243/243
f 242/242/242 248/248/248 252/252/252
f 252/252/252 244/244/244 242/242/242
f 238/238/238 237/237/237 242/242/242
f 238/238/238 225/225/225 224/224/224
f 224/224/224 236/236/236 238/238/238
f 236/236/236 224/224/224 227/227/227
f 227/227/227 239/239/239 236/236/236
f 223/223/223 222/222/222 232/232/232
f 232/232/232 235/235/235 223/223/223
f 226/226/226 228/228/228 42/42/42
f 228/228/228 226/226/226 225/225/225
f 225/225/225 238/238/238 228/228/228
f 206/206/206 217/217/217 70/70/70
f 70/70/70 30/30/30 206/206/206
f 70/70/70 217/217/217 216/216/216
f 216/216/216 71/71/71 70/70/70
f 71/71/71 216/216/216 226/226/226
f 226/226/226 42/42/42 71/71/71
f 208/208/208 207/207/207 211/211/211
f 222/222/222 39/39/39 229/229/229
f 229/229/229 232/232/232 222/222/222
f 244/244/244 228/228/228 242/242/242
f 206/206/206 208/208/208 217/217/217
f 201/201/201 199/199/199 198/198/198
f 221/221/221 197/197/197 253/253/253
f 197/197/197 221/221/221 198/198/198
f 231/231/231 230/230/230 254/254/254
f 255/255/255 197/197/197 199/199/199
f 256/256/256 257/257/257 258/258/258
f 259/259/259 257/257/257 256/256/256
f 256/256/256 260/260/260 259/259/259
f 261/261/261 262/262/262 258/258/258
f 258/258/258 257/257/257 261/261/261
f 263/263/263 264/264/264 265/265/265
f 85/85/85 266/266/266 267/267/267
f 267/267/267 86/86/86 85/85/85
f 261/261/261 268/268/268 269/269/269
f 91/91/91 92/92/92 263/263/263
f 263/263/263 265/265/265 91/91/91
f 259/259/259 270/270/270 257/257/257
f 260/260/260 256/256/256 271/271/271
f 271/271/271 272/272/272 260/260/260
f 96/96/96 259/259/259 260/260/260
f 260/260/260 97/97/97 96/96/96
f 270/270/270 261/261/261 257/257/257
f 273/273/273 274/274/274 275/275/275
f 275/275/275 262/262/262 273/273/273
f 276/276/276 277/277/277 262/262/262
f 278/278/278 279/279/279 280/280/280
f 280/280/280 281/281/281 278/278/278
f 107/107/107 282/282/282 278/278/278
f 278/278/278 108/108/108 107/107/107
f 283/283/283 284/284/284 112/112/112
f 112/112/112 111/111/111 283/283/283
f 267/267/267 283/283/283 111/111/111
f 111/111/111 86/86/86 267/267/267
f 268/268/268 278/278/278 281/281/281
f 281/281/281 269/269/269 268/268/268
f 278/278/278 270/270/270 114/114/114
f 114/114/114 108/108/108 278/278/278
f 259/259/259 96/96/96 114/114/114
f 261/261/261 266/266/266 273/273/273
f 273/273/273 262/262/262 261/261/261
f 85/85/85 91/91/91 265/265/265
f 265/265/265 266/266/266 85/85/85
f 261/261/261 267/267/267 266/266/266
f 266/266/266 265/265/265 273/273/273
f 260/260/260 272/272/272 115/115/115
f 115/115/115 97/97/97 260/260/260
f 259/259/259 114/114/114 270/270/270
f 277/277/277 285/285/285 258/258/258
f 258/258/258 262/262/262 277/277/277
f 285/285/285 286/286/286 258/258/258
f 285/285/285 277/277/277 287/287/287
f 262/262/262 275/275/275 276/276/276
f 288/288/288 274/274/274 273/273/273
f 275/275/275 274/274/274 289/289/289
f 290/290/290 291/291/291 286/286/286
f 291/291/291 271/271/271 256/256/256
f 286/286/286 285/285/285 292/292/292
f 286/286/286 291/291/291 256/256/256
f 256/256/256 258/258/258 286/286/286
f 293/293/293 288/288/288 273/273/273
f 273/273/273 265/265/265 293/293/293
f 264/264/264 293/293/293 265/265/265
f 274/274/274 288/288/288 294/294/294
f 288/288/288 293/293/293 295/295/295
f 127/127/127 130/130/130 296/296/296
f 296/296/296 297/297/297 127/127/127
f 298/298/298 297/297/297 296/296/296
f 296/296/296 299/299/299 298/298/298
f 300/300/300 136/136/136 135/135/135
f 135/135/135 301/301/301 300/300/300
f 298/298/298 299/299/299 300/300/300
f 300/300/300 301/301/301 298/298/298
f 302/302/302 303/303/303 304/304/304
f 304/304/304 305/305/305 302/302/302
f 306/306/306 307/307/307 308/308/308
f 308/308/308 303/303/303 306/306/306
f 309/309/309 310/310/310 311/311/311
f 311/311/311 312/312/312 309/309/309
f 307/307/307 313/313/313 314/314/314
f 314/314/314 308/308/308 307/307/307
f 314/314/314 313/313/313 315/315/315
f 315/315/315 316/316/316 314/314/314
f 303/303/303 302/302/302 317/317/317
f 317/317/317 306/306/306 303/303/303
f 303/303/303 308/308/308 318/318/318
f 318/318/318 304/304/304 303/303/303
f 308/308/308 314/314/314 319/319/319
f 319/319/319 318/318/318 308/308/308
f 319/319/319 314/314/314 316/316/316
f 316/316/316 320/320/320 319/319/319
f 321/321/321 322/322/322 309/309/309
f 309/309/309 312/312/312 321/321/321
f 321/321/321 312/312/312 302/302/302
f 302/302/302 305/305/305 321/321/321
f 312/312/312 311/311/311 317/317/317
f 317/317/317 302/302/302 312/312/312
f 323/323/323 324/324/324 325/325/325
f 325/325/325 326/326/326 323/323/323
f 327/327/327 328/328/328 329/329/329
f 329/329/329 330/330/330 327/327/327
f 329/329/329 328/328/328 331/331/331
f 331/331/331 332/332/332 329/329/329
f 325/325/325 333/333/333 334/334/334
f 334/334/334 326/326/326 325/325/325
f 334/334/334 333/333/333 335/335/335
f 335/335/335 336/336/336 334/334/334
f 332/332/332 331/331/331 324/324/324
f 324/324/324 323/323/323 332/332/332
f 337/337/337 338/338/338 339/339/339
f 339/339/339 340/340/340 337/337/337
f 340/340/340 339/339/339 341/341/341
f 341/341/341 342/342/342 340/340/340
f 343/343/343 338/338/338 337/337/337
f 337/337/337 344/344/344 343/343/343
f 342/342/342 341/341/341 345/345/345
f 345/345/345 346/346/346 342/342/342
f 343/343/343 344/344/344 347/347/347
f 347/347/347 348/348/348 343/343/343
f 349/349/349 350/350/350 348/348/348
f 348/348/348 347/347/347 349/349/349
f 326/326/326 351/351/351 338/338/338
f 338/338/338 323/323/323 326/326/326
f 334/334/334 352/352/352 351/351/351
f 351/351/351 326/326/326 334/334/334
f 336/336/336 345/345/345 352/352/352
f 352/352/352 334/334/334 336/336/336
f 329/329/329 332/332/332 343/343/343
f 343/343/343 348/348/348 329/329/329
f 343/343/343 332/332/332 323/323/323
f 323/323/323 338/338/338 343/343/343
f 339/339/339 338/338/338 351/351/351
f 352/352/352 341/341/341 339/339/339
f 339/339/339 351/351/351 352/352/352
f 330/330/330 329/329/329 348/348/348
f 348/348/348 350/350/350 330/330/330
f 341/341/341 352/352/352 345/345/345
f 353/353/353 325/325/325 354/354/354
f 354/354/354 355/355/355 353/353/353
f 327/327/327 356/356/356 357/357/357
f 357/357/357 328/328/328 327/327/327
f 328/328/328 357/357/357 358/358/358
f 358/358/358 331/331/331 328/328/328
f 325/325/325 353/353/353 359/359/359
f 359/359/359 333/333/333 325/325/325
f 333/333/333 359/359/359 360/360/360
f 360/360/360 335/335/335 333/333/333
f 331/331/331 358/358/358 355/355/355
f 355/355/355 354/354/354 331/331/331
f 331/331/331 354/354/354 324/324/324
f 354/354/354 325/325/325 324/324/324
f 353/353/353 355/355/355 361/361/361
f 361/361/361 355/355/355 358/358/358
f 362/362/362 363/363/363 364/364/364
f 364/364/364 365/365/365 362/362/362
f 366/366/366 367/367/367 368/368/368
f 368/368/368 369/369/369 366/366/366
f 370/370/370 365/365/365 364/364/364
f 364/364/364 371/371/371 370/370/370
f 372/372/372 370/370/370 371/371/371
f 371/371/371 373/373/373 372/372/372
f 365/365/365 370/370/370 374/374/374
f 374/374/374 375/375/375 365/365/365
f 364/364/364 376/376/376 377/377/377
f 377/377/377 371/371/371 364/364/364
f 378/378/378 379/379/379 380/380/380
f 380/380/380 381/381/381 378/378/378
f 382/382/382 383/383/383 384/384/384
f 384/384/384 385/385/385 382/382/382
f 386/386/386 387/387/387 383/383/383
f 383/383/383 382/382/382 386/386/386
f 388/388/388 385/385/385 384/384/384
f 384/384/384 389/389/389 388/388/388
f 386/386/386 390/390/390 391/391/391
f 391/391/391 387/387/387 386/386/386
f 385/385/385 392/392/392 393/393/393
f 393/393/393 382/382/382 385/385/385
f 382/382/382 393/393/393 394/394/394
f 394/394/394 386/386/386 382/382/382
f 386/386/386 394/394/394 395/395/395
f 395/395/395 390/390/390 386/386/386
f 388/388/388 396/396/396 392/392/392
f 392/392/392 385/385/385 388/388/388
f 392/392/392 397/397/397 393/393/393
f 393/393/393 397/397/397 394/394/394
f 394/394/394 397/397/397 395/395/395
f 396/396/396 397/397/397 392/392/392
f 383/383/383 398/398/398 384/384/384
f 387/387/387 398/398/398 383/383/383
f 384/384/384 398/398/398 389/389/389
f 391/391/391 398/398/398 387/387/387
f 399/399/399 400/400/400 401/401/401
f 401/401/401 402/402/402 399/399/399
f 403/403/403 399/399/399 402/402/402
f 402/402/402 404/404/404 403/403/403
f 388/388/388 389/389/389 401/401/401
f 401/401/401 400/400/400 388/388/388
f 403/403/403 404/404/404 391/391/391
f 391/391/391 390/390/390 403/403/403
f 400/400/400 399/399/399 405/405/405
f 405/405/405 406/406/406 400/400/400
f 399/399/399 403/403/403 407/407/407
f 407/407/407 405/405/405 399/399/399
f 403/403/403 390/390/390 395/395/395
f 395/395/395 407/407/407 403/403/403
f 388/388/388 400/400/400 406/406/406
f 406/406/406 396/396/396 388/388/388
f 406/406/406 405/405/405 397/397/397
f 405/405/405 407/407/407 397/397/397
f 407/407/407 395/395/395 397/397/397
f 396/396/396 406/406/406 397/397/397
f 402/402/402 401/401/401 398/398/398
f 404/404/404 402/402/402 398/398/398
f 401/401/401 389/389/389 398/398/398
f 391/391/391 404/404/404 398/398/398
