mtllib 0003330004.mtl
o 0003330004_part_0
v 0.127744 0.100263171 -0.0230287835
v 0.125883549 0.0402015522 -0.114158064
v 0.096262686 0.108008727 -0.06629863
v 0.167735174 0.0266003087 -0.00490898639
v 0.0496686846 0.0950016 -0.0242608488
v 0.03451526 0.0400696248 -0.09096658
v 0.0504750125 0.0304571856 0.0306753181
v 0.0630073845 0.10880506 -0.0675553158
v 0.0630073845 0.10880506 -0.0675553158
v 0.096262686 0.108008727 -0.06629863
v 0.125883549 0.0402015522 -0.114158064
v 0.03451526 0.0400696248 -0.09096658
v 0.05998867 0.09858533 0.0303827114
v 0.174352318 -0.0173042938 -0.00750102475
v 0.178727508 0.002472233 0.0173651762
v 0.0572976358 0.004011415 0.0329992957
v 0.05082288 -0.0147495046 0.02121262
v 0.167735174 0.0266003087 -0.00490898639
v 0.178727508 0.002472233 0.0173651762
v 0.174352318 -0.0173042938 -0.00750102475
v 0.195559472 0.0312901624 0.07085662
v 0.05899881 0.037196815 0.09186916
v 0.09474515 0.0861348361 0.120435528
v 0.07755183 0.149178326 0.0528667048
v 0.132598177 0.151118219 0.0479585528
v 0.155482 0.0857860744 0.10811764
v 0.0412430242 -0.01656489 -0.0872784853
v 0.05082288 -0.0147495046 0.02121262
v 0.0504750125 0.0304571856 0.0306753181
v 0.03451526 0.0400696248 -0.09096658
v 0.1274545 -0.0179961249 -0.112799719
v 0.0412430242 -0.01656489 -0.0872784853
v 0.1274545 -0.0179961249 -0.112799719
v 0.125883549 0.0402015522 -0.114158064
v 0.10094513 0.10163223 0.0299056359
v 0.133481815 0.09399968 0.02311642
v 0.127744 0.100263171 -0.0230287835
v 0.195559472 0.0312901624 0.07085662
v 0.132598177 0.151118219 0.0479585528
v 0.0572976358 0.004011415 0.0329992957
v 0.05899881 0.037196815 0.09186916
v 0.19027327 -0.0130671114 0.25522548
v 0.115614355 -0.0127552636 0.283236623
v 0.06232558 -0.0128300153 0.191873863
v 0.234297886 -0.0149435736 0.195865542
v 0.2313235 0.02390834 0.199642509
v 0.06454012 0.0267901346 0.186677635
v 0.110108256 0.0348676369 0.2811396
v 0.1015316 0.09775911 0.221791029
v 0.20749408 0.08634941 0.1953621
v 0.2313235 0.02390834 0.199642509
v 0.06232558 -0.0128300153 0.191873863
v 0.115614355 -0.0127552636 0.283236623
v 0.06454012 0.0267901346 0.186677635
v 0.1974215 0.0333343633 0.2530378
v 0.0412430242 -0.01656489 -0.0872784853
v 0.1274545 -0.0179961249 -0.112799719
v 0.110108256 0.0348676369 0.2811396
v 0.110108256 0.0348676369 0.2811396
v 0.115614355 -0.0127552636 0.283236623
v 0.19027327 -0.0130671114 0.25522548
v 0.1974215 0.0333343633 0.2530378
v 0.234297886 -0.0149435736 0.195865542
v 0.07755183 0.149178326 0.0528667048
v 0.133481815 0.09399968 0.02311642
v 0.05998867 0.09858533 0.0303827114
v 0.0496686846 0.0950016 -0.0242608488
v -0.143750116 0.102037884 -0.0193347409
v -0.113234133 0.10895896 -0.06342806
v -0.141039655 0.0422393866 -0.1141167
v -0.184065744 0.027457457 -0.00547892973
v -0.06588398 0.0948836356 -0.02259659
v -0.06715494 0.0302551724 0.03133273
v -0.0499132946 0.04134048 -0.09000854
v -0.0800135955 0.108947232 -0.06555513
v -0.0800135955 0.108947232 -0.06555513
v -0.141039655 0.0422393866 -0.1141167
v -0.113234133 0.10895896 -0.06342806
v -0.0499132946 0.04134048 -0.09000854
v -0.0746802 0.09879108 0.03229078
v -0.190876484 -0.0163757578 -0.008701209
v -0.07413342 0.00381730869 0.0332479626
v -0.19540453 0.00310334936 0.016371537
v -0.0676335841 -0.0148243979 0.0212872177
v -0.184065744 0.027457457 -0.00547892973
v -0.190876484 -0.0163757578 -0.008701209
v -0.19540453 0.00310334936 0.016371537
v -0.212633744 0.0313209668 0.0700562
v -0.07626548 0.0362552963 0.092519
v -0.0941488445 0.148480982 0.0548385456
v -0.1120539 0.085007295 0.121349558
v -0.149084672 0.151416808 0.049271822
v -0.172663569 0.0851287842 0.1084163
v -0.05696226 -0.0153012052 -0.08711614
v -0.06715494 0.0302551724 0.03133273
v -0.0676335841 -0.0148243979 0.0212872177
v -0.0499132946 0.04134048 -0.09000854
v -0.142916352 -0.0159620568 -0.113521785
v -0.05696226 -0.0153012052 -0.08711614
v -0.141039655 0.0422393866 -0.1141167
v -0.142916352 -0.0159620568 -0.113521785
v -0.115549386 0.102829218 0.03287829
v -0.143750116 0.102037884 -0.0193347409
v -0.148427814 0.0959783345 0.0269571058
v -0.212633744 0.0313209668 0.0700562
v -0.149084672 0.151416808 0.049271822
v -0.07413342 0.00381730869 0.0332479626
v -0.07626548 0.0362552963 0.092519
v -0.209441841 -0.0154175982 0.253884166
v -0.08085812 -0.0150288381 0.19183436
v -0.135070458 -0.0158484057 0.2826485
v -0.25287053 -0.0163079724 0.194064021
v -0.2497397 0.02247663 0.198369458
v -0.08282096 0.0246654171 0.187125325
v -0.11981035 0.09536894 0.2227724
v -0.129304454 0.0317684524 0.281218916
v -0.225555032 0.08484386 0.195131838
v -0.2497397 0.02247663 0.198369458
v -0.08085812 -0.0150288381 0.19183436
v -0.08282096 0.0246654171 0.187125325
v -0.135070458 -0.0158484057 0.2826485
v -0.216334566 0.03104425 0.252220571
v -0.05696226 -0.0153012052 -0.08711614
v -0.142916352 -0.0159620568 -0.113521785
v -0.129304454 0.0317684524 0.281218916
v -0.129304454 0.0317684524 0.281218916
v -0.209441841 -0.0154175982 0.253884166
v -0.135070458 -0.0158484057 0.2826485
v -0.216334566 0.03104425 0.252220571
v -0.25287053 -0.0163079724 0.194064021
v -0.0941488445 0.148480982 0.0548385456
v -0.148427814 0.0959783345 0.0269571058
v -0.0746802 0.09879108 0.03229078
v -0.06588398 0.0948836356 -0.02259659
vt 0.377777785 0.806842446
vt 0.4814815 0.937465668
vt 0.335802466 0.9023073
vt 0.4814815 0.7332601
vt 0.108641975 0.8103827
vt 0.0246913582 0.9272111
vt 0.0246913582 0.706219852
vt 0.135802463 0.8857352
vt 0.286419749 0.9624
vt 0.224691361 0.9687176
vt 0.155555561 0.830647647
vt 0.328395069 0.8279619
vt 0.120987654 0.7107978
vt 0.9693667 0.472857356
vt 0.94721216 0.622059762
vt 0.796933949 0.5959434
vt 0.7897938 0.464120984
vt 0.7407407 0.14255631
vt 0.6962963 0.08887261
vt 0.7432099 0.04938048
vt 0.5802469 0.14255631
vt 0.08395062 0.560398
vt 0.209876537 0.511688948
vt 0.20246914 0.6587927
vt 0.3037037 0.6554355
vt 0.318518519 0.517121434
vt 0.96875 0.046875
vt 0.74609375 0.05078125
vt 0.7421875 0.14453125
vt 0.9765625 0.14453125
vt 0.150617287 0.726851
vt 0.3160494 0.728438
vt 0.96790123 0.0486785173
vt 0.970370352 0.14255631
vt 0.624691367 0.399041653
vt 0.5185185 0.3769456
vt 0.5308642 0.296832085
vt 0.456790119 0.5734603
vt 0.562962949 0.5731551
vt 0.69921875 0.08984375
vt 0.58203125 0.14453125
vt 0.8799526 0.8491972
vt 0.7923903 0.841354668
vt 0.750383556 0.712120235
vt 0.974497 0.7438229
vt 0.313580245 0.14255631
vt 0.078125 0.34375
vt 0.192592591 0.192791343
vt 0.190123454 0.3290301
vt 0.387654334 0.347463846
vt 0.48046875 0.3125
vt 0.3203125 0.05078125
vt 0.20703125 0.0546875
vt 0.31640625 0.14453125
vt 0.3654321 0.216199756
vt 0.817128241 0.3189671
vt 0.93912524 0.317282319
vt 0.203125 0.140625
vt 0.0246913582 0.14255631
vt 0.0246913582 0.07388759
vt 0.204938278 0.05276811
vt 0.204938278 0.14255631
vt 0.320987642 0.05176097
vt 0.7382716 0.5604285
vt 0.377777785 0.70661664
vt 0.750617266 0.379417658
vt 0.7259259 0.30177623
vt 0.377777785 0.806842446
vt 0.335802466 0.9023073
vt 0.4814815 0.937465668
vt 0.4814815 0.7332601
vt 0.108641975 0.8103827
vt 0.0246913582 0.706219852
vt 0.0246913582 0.9272111
vt 0.135802463 0.8857352
vt 0.286419749 0.9624
vt 0.155555561 0.830647647
vt 0.224691361 0.9687176
vt 0.328395069 0.8279619
vt 0.120987654 0.7107978
vt 0.9693667 0.472857356
vt 0.796933949 0.5959434
vt 0.94721216 0.622059762
vt 0.7897938 0.464120984
vt 0.7407407 0.14255631
vt 0.7432099 0.04938048
vt 0.6962963 0.08887261
vt 0.5802469 0.14255631
vt 0.08395062 0.560398
vt 0.20246914 0.6587927
vt 0.209876537 0.511688948
vt 0.3037037 0.6554355
vt 0.318518519 0.517121434
vt 0.96875 0.046875
vt 0.7421875 0.14453125
vt 0.74609375 0.05078125
vt 0.9765625 0.14453125
vt 0.150617287 0.726851
vt 0.3160494 0.728438
vt 0.970370352 0.14255631
vt 0.96790123 0.0486785173
vt 0.624691367 0.399041653
vt 0.5308642 0.296832085
vt 0.5185185 0.3769456
vt 0.456790119 0.5734603
vt 0.562962949 0.5731551
vt 0.69921875 0.08984375
vt 0.58203125 0.14453125
vt 0.8799526 0.8491972
vt 0.750383556 0.712120235
vt 0.7923903 0.841354668
vt 0.974497 0.7438229
vt 0.313580245 0.14255631
vt 0.078125 0.34375
vt 0.190123454 0.3290301
vt 0.192592591 0.192791343
vt 0.387654334 0.347463846
vt 0.48046875 0.3125
vt 0.3203125 0.05078125
vt 0.31640625 0.14453125
vt 0.20703125 0.0546875
vt 0.3654321 0.216199756
vt 0.817128241 0.3189671
vt 0.93912524 0.317282319
vt 0.203125 0.140625
vt 0.0246913582 0.14255631
vt 0.204938278 0.05276811
vt 0.0246913582 0.07388759
vt 0.204938278 0.14255631
vt 0.320987642 0.05176097
vt 0.7382716 0.5604285
vt 0.377777785 0.70661664
vt 0.750617266 0.379417658
vt 0.7259259 0.30177623
vn 0.786317 0.5865186 -0.19416894
vn 0.437072158 0.2792622 -0.854974
vn 0.3821435 0.6384718 -0.6680719
vn 0.9034135 0.306807816 -0.299521446
vn -0.9343566 0.352344215 0.0532107577
vn -0.808503449 0.137619615 -0.572173953
vn -0.985608757 -0.0180706326 0.168074012
vn -0.526137 0.545989633 -0.6519779
vn -0.526137 0.545989633 -0.6519779
vn 0.3821435 0.6384718 -0.6680719
vn 0.437072158 0.2792622 -0.854974
vn -0.808503449 0.137619615 -0.572173953
vn -0.812724233 0.5774042 -0.07799795
vn 0.7331409 -0.6780496 0.05247015
vn 0.825496852 -0.554908752 -0.103107706
vn -0.59276 -0.607369244 0.5289028
vn -0.5542401 -0.684484541 0.4736019
vn 0.9034135 0.306807816 -0.299521446
vn 0.825496852 -0.554908752 -0.103107706
vn 0.7331409 -0.6780496 0.05247015
vn 0.922038138 0.2633635 -0.283699453
vn -0.97574985 0.168391854 0.139844343
vn -0.510264754 0.8064299 0.2988322
vn -0.500328243 0.8600345 -0.100061223
vn 0.3821514 0.896518052 -0.224088609
vn 0.5020482 0.858684242 0.10299968
vn -0.645633459 -0.634689331 -0.4246492
vn -0.5542401 -0.684484541 0.4736019
vn -0.985608757 -0.0180706326 0.168074012
vn -0.808503449 0.137619615 -0.572173953
vn 0.353678018 -0.5987127 -0.718648
vn -0.645633459 -0.634689331 -0.4246492
vn 0.353678018 -0.5987127 -0.718648
vn 0.437072158 0.2792622 -0.854974
vn -0.0243810881 0.703277469 -0.71049726
vn 0.631334662 0.6407993 -0.4367983
vn 0.786317 0.5865186 -0.19416894
vn 0.922038138 0.2633635 -0.283699453
vn 0.3821514 0.896518052 -0.224088609
vn -0.59276 -0.607369244 0.5289028
vn -0.97574985 0.168391854 0.139844343
vn 0.431555778 -0.6524552 0.622946
vn -0.2555522 -0.57677716 0.775900245
vn -0.7437423 -0.637392044 0.201441735
vn 0.7832426 -0.614745 0.0928420052
vn 0.970216453 0.177334934 0.165022165
vn -0.9483416 0.208888456 0.238775522
vn -0.3574194 0.303816855 0.8831459
vn -0.39996 0.8301037 0.3885355
vn 0.62005055 0.766894639 0.165559486
vn 0.970216453 0.177334934 0.165022165
vn -0.7437423 -0.637392044 0.201441735
vn -0.2555522 -0.57677716 0.775900245
vn -0.9483416 0.208888456 0.238775522
vn 0.5746822 0.28782326 0.7660928
vn -0.645633459 -0.634689331 -0.4246492
vn 0.353678018 -0.5987127 -0.718648
vn -0.3574194 0.303816855 0.8831459
vn -0.3574194 0.303816855 0.8831459
vn -0.2555522 -0.57677716 0.775900245
vn 0.431555778 -0.6524552 0.622946
vn 0.5746822 0.28782326 0.7660928
vn 0.7832426 -0.614745 0.0928420052
vn -0.500328243 0.8600345 -0.100061223
vn 0.631334662 0.6407993 -0.4367983
vn -0.812724233 0.5774042 -0.07799795
vn -0.9343566 0.352344215 0.0532107577
vn -0.7843676 0.5934799 -0.180413589
vn -0.3988774 0.6543264 -0.642459154
vn -0.425422 0.295805275 -0.8552867
vn -0.898459852 0.318128526 -0.302595645
vn 0.935173333 0.350499868 0.0509972423
vn 0.9841824 -0.03288207 0.174079567
vn 0.8140169 0.1492517 -0.561338067
vn 0.5077592 0.5744324 -0.642034352
vn 0.5077592 0.5744324 -0.642034352
vn -0.425422 0.295805275 -0.8552867
vn -0.3988774 0.6543264 -0.642459154
vn 0.8140169 0.1492517 -0.561338067
vn 0.8209309 0.5686284 -0.0522900373
vn -0.737029135 -0.6748822 0.0363617167
vn 0.584305763 -0.617128134 0.5270101
vn -0.8271821 -0.549287558 -0.118545264
vn 0.545962632 -0.693330467 0.470337778
vn -0.898459852 0.318128526 -0.302595645
vn -0.737029135 -0.6748822 0.0363617167
vn -0.8271821 -0.549287558 -0.118545264
vn -0.9165361 0.2736547 -0.291675657
vn 0.974918246 0.159407511 0.155317888
vn 0.5016758 0.860512257 -0.08854422
vn 0.51196 0.799773335 0.3134638
vn -0.3754543 0.8977589 -0.2303541
vn -0.499173552 0.859389961 0.110791229
vn 0.64671737 -0.632520735 -0.426232517
vn 0.9841824 -0.03288207 0.174079567
vn 0.545962632 -0.693330467 0.470337778
vn 0.8140169 0.1492517 -0.561338067
vn -0.3493654 -0.5876427 -0.7298081
vn 0.64671737 -0.632520735 -0.426232517
vn -0.425422 0.295805275 -0.8552867
vn -0.3493654 -0.5876427 -0.7298081
vn 0.0311726723 0.698933959 -0.714506567
vn -0.7843676 0.5934799 -0.180413589
vn -0.608376 0.6406041 -0.468513638
vn -0.9165361 0.2736547 -0.291675657
vn -0.3754543 0.8977589 -0.2303541
vn 0.584305763 -0.617128134 0.5270101
vn 0.974918246 0.159407511 0.155317888
vn -0.441125274 -0.6581397 0.6101316
vn 0.73845154 -0.6437367 0.200729683
vn 0.244765982 -0.587962449 0.770966768
vn -0.7872196 -0.6118422 0.0770355761
vn -0.9709394 0.180201679 0.15749304
vn 0.946905434 0.200932562 0.250990361
vn 0.4001562 0.8229961 0.403178
vn 0.349956959 0.290651649 0.8905345
vn -0.617842853 0.767895937 0.169133127
vn -0.9709394 0.180201679 0.15749304
vn 0.73845154 -0.6437367 0.200729683
vn 0.946905434 0.200932562 0.250990361
vn 0.244765982 -0.587962449 0.770966768
vn -0.580977 0.280955136 0.7638913
vn 0.64671737 -0.632520735 -0.426232517
vn -0.3493654 -0.5876427 -0.7298081
vn 0.349956959 0.290651649 0.8905345
vn 0.349956959 0.290651649 0.8905345
vn -0.441125274 -0.6581397 0.6101316
vn 0.244765982 -0.587962449 0.770966768
vn -0.580977 0.280955136 0.7638913
vn -0.7872196 -0.6118422 0.0770355761
vn 0.5016758 0.860512257 -0.08854422
vn -0.608376 0.6406041 -0.468513638
vn 0.8209309 0.5686284 -0.0522900373
vn 0.935173333 0.350499868 0.0509972423
usemtl 0003330004_part_0_material_0
f 1/1/1 2/2/2 3/3/3
f 2/2/2 1/1/1 4/4/4
f 5/5/5 6/6/6 7/7/7
f 6/6/6 5/5/5 8/8/8
f 9/9/9 10/10/10 11/11/11
f 11/11/11 12/12/12 9/9/9
f 5/5/5 7/7/7 13/13/13
f 14/14/14 15/15/15 16/16/16
f 16/16/16 17/17/17 14/14/14
f 18/18/18 19/19/19 20/20/20
f 19/19/19 18/18/18 21/21/21
f 22/22/22 23/23/23 24/24/24
f 24/24/24 13/13/13 22/22/22
f 25/25/25 24/24/24 23/23/23
f 23/23/23 26/26/26 25/25/25
f 27/27/27 28/28/28 29/29/29
f 29/29/29 30/30/30 27/27/27
f 31/31/31 32/32/32 12/12/12
f 12/12/12 11/11/11 31/31/31
f 20/20/20 33/33/33 34/34/34
f 34/34/34 18/18/18 20/20/20
f 35/35/35 36/36/36 37/37/37
f 38/38/38 25/25/25 26/26/26
f 39/39/39 36/36/36 35/35/35
f 29/29/29 28/28/28 40/40/40
f 40/40/40 41/41/41 29/29/29
f 42/42/42 43/43/43 44/44/44
f 44/44/44 45/45/45 42/42/42
f 15/15/15 45/45/45 44/44/44
f 44/44/44 16/16/16 15/15/15
f 19/19/19 21/21/21 46/46/46
f 47/47/47 48/48/48 49/49/49
f 49/49/49 23/23/23 22/22/22
f 49/49/49 50/50/50 26/26/26
f 26/26/26 23/23/23 49/49/49
f 50/50/50 51/51/51 38/38/38
f 38/38/38 26/26/26 50/50/50
f 52/52/52 53/53/53 54/54/54
f 41/41/41 40/40/40 52/52/52
f 55/55/55 50/50/50 49/49/49
f 49/49/49 48/48/48 55/55/55
f 56/56/56 57/57/57 14/14/14
f 14/14/14 17/17/17 56/56/56
f 50/50/50 55/55/55 51/51/51
f 22/22/22 47/47/47 49/49/49
f 52/52/52 54/54/54 41/41/41
f 54/54/54 53/53/53 58/58/58
f 59/59/59 60/60/60 61/61/61
f 61/61/61 62/62/62 59/59/59
f 62/62/62 61/61/61 46/46/46
f 61/61/61 63/63/63 46/46/46
f 19/19/19 46/46/46 63/63/63
f 7/7/7 22/22/22 13/13/13
f 64/64/64 39/39/39 35/35/35
f 65/65/65 38/38/38 4/4/4
f 25/25/25 38/38/38 65/65/65
f 65/65/65 4/4/4 1/1/1
f 66/66/66 64/64/64 35/35/35
f 67/67/67 66/66/66 35/35/35
f 68/68/68 69/69/69 70/70/70
f 70/70/70 71/71/71 68/68/68
f 72/72/72 73/73/73 74/74/74
f 74/74/74 75/75/75 72/72/72
f 76/76/76 77/77/77 78/78/78
f 77/77/77 76/76/76 79/79/79
f 72/72/72 80/80/80 73/73/73
f 81/81/81 82/82/82 83/83/83
f 82/82/82 81/81/81 84/84/84
f 85/85/85 86/86/86 87/87/87
f 87/87/87 88/88/88 85/85/85
f 89/89/89 90/90/90 91/91/91
f 90/90/90 89/89/89 80/80/80
f 92/92/92 91/91/91 90/90/90
f 91/91/91 92/92/92 93/93/93
f 94/94/94 95/95/95 96/96/96
f 95/95/95 94/94/94 97/97/97
f 98/98/98 79/79/79 99/99/99
f 79/79/79 98/98/98 77/77/77
f 86/86/86 100/100/100 101/101/101
f 100/100/100 86/86/86 85/85/85
f 102/102/102 103/103/103 104/104/104
f 105/105/105 93/93/93 92/92/92
f 106/106/106 102/102/102 104/104/104
f 95/95/95 107/107/107 96/96/96
f 107/107/107 95/95/95 108/108/108
f 109/109/109 110/110/110 111/111/111
f 110/110/110 109/109/109 112/112/112
f 83/83/83 110/110/110 112/112/112
f 110/110/110 83/83/83 82/82/82
f 87/87/87 113/113/113 88/88/88
f 114/114/114 115/115/115 116/116/116
f 115/115/115 89/89/89 91/91/91
f 115/115/115 93/93/93 117/117/117
f 93/93/93 115/115/115 91/91/91
f 117/117/117 105/105/105 118/118/118
f 105/105/105 117/117/117 93/93/93
f 119/119/119 120/120/120 121/121/121
f 108/108/108 119/119/119 107/107/107
f 122/122/122 115/115/115 117/117/117
f 115/115/115 122/122/122 116/116/116
f 123/123/123 81/81/81 124/124/124
f 81/81/81 123/123/123 84/84/84
f 117/117/117 118/118/118 122/122/122
f 89/89/89 115/115/115 114/114/114
f 119/119/119 108/108/108 120/120/120
f 120/120/120 125/125/125 121/121/121
f 126/126/126 127/127/127 128/128/128
f 127/127/127 126/126/126 129/129/129
f 129/129/129 113/113/113 127/127/127
f 127/127/127 113/113/113 130/130/130
f 87/87/87 130/130/130 113/113/113
f 73/73/73 80/80/80 89/89/89
f 131/131/131 102/102/102 106/106/106
f 132/132/132 71/71/71 105/105/105
f 92/92/92 132/132/132 105/105/105
f 132/132/132 68/68/68 71/71/71
f 133/133/133 102/102/102 131/131/131
f 134/134/134 102/102/102 133/133/133
