mtllib 0003012504.mtl
o 0003012504_part_0
v 0.09862284 0.148378551 -0.0861686
v 0.132429048 0.140944183 -0.04486098
v 0.132954657 0.102734208 -0.0339800566
v 0.122954525 0.105932534 -0.102026924
v 0.124881826 0.132879674 0.008123867
v 0.122221224 0.08856708 0.037993446
v 0.06143617 0.1068207 -0.0959609
v 0.043331068 0.09913838 -0.02996349
v 0.04939448 0.133006155 -0.04190403
v 0.06540372 0.14790982 -0.08579557
v 0.07630623 0.131425917 0.0112883486
v 0.0631789342 0.105701268 0.047551427
v 0.1300446 0.010938704 -0.0193380844
v 0.104994647 -0.005470991 -0.0386206619
v 0.09363472 -0.006484866 -0.07879627
v 0.107182212 0.00935179 -0.101864219
v 0.06153451 -0.00329035521 -0.07674697
v 0.0642965361 -0.00152486563 -0.0368474424
v 0.04621625 0.0202705264 -0.0103645166
v 0.0427546278 0.0154283047 -0.09642704
v 0.0947833955 0.06424183 -0.117815927
v 0.110963769 -0.0156858563 0.222245723
v 0.163302466 -0.0167184472 0.207985625
v 0.161246181 0.00636130571 0.208743334
v 0.113325462 0.007294297 0.220269963
v 0.04478505 0.0427642465 -0.007472083
v 0.060461387 0.015492022 0.0634463
v 0.08938955 0.0587211847 0.105023071
v 0.161425188 0.04731965 0.08959104
v 0.0907730758 -0.020706296 -0.07162413
v 0.09714721 -0.0198150873 -0.0424947068
v 0.06445392 -0.0164815784 -0.03858155
v 0.06163867 -0.0178017616 -0.06953953
v 0.0595075823 -0.0165957212 0.0578246824
v 0.169124424 -0.018672049 0.03626563
v 0.163302466 -0.0167184472 0.207985625
v 0.110963769 -0.0156858563 0.222245723
v 0.0595075823 -0.0165957212 0.0578246824
v 0.110963769 -0.0156858563 0.222245723
v 0.113325462 0.007294297 0.220269963
v 0.060461387 0.015492022 0.0634463
v 0.1203856 0.0304024816 0.208836868
v 0.161788225 0.0291224718 0.199670717
v 0.170165747 0.0107018352 0.0486697145
v 0.169124424 -0.018672049 0.03626563
v 0.136782855 0.03350258 -0.017069865
v 0.117405877 0.02813387 -0.114349753
v 0.09363472 -0.006484866 -0.07879627
v 0.0427546278 0.0154283047 -0.09642704
v 0.107182212 0.00935179 -0.101864219
v 0.0367443971 0.03618872 -0.108323604
v 0.117405877 0.02813387 -0.114349753
v 0.0367443971 0.03618872 -0.108323604
v 0.113325462 0.007294297 0.220269963
v 0.161246181 0.00636130571 0.208743334
v 0.170165747 0.0107018352 0.0486697145
v 0.04478505 0.0427642465 -0.007472083
v 0.04621625 0.0202705264 -0.0103645166
v 0.113325462 0.007294297 0.220269963
v 0.161246181 0.00636130571 0.208743334
v 0.1300446 0.010938704 -0.0193380844
v 0.136782855 0.03350258 -0.017069865
v 0.04621625 0.0202705264 -0.0103645166
v 0.1300446 0.010938704 -0.0193380844
v 0.0642965361 -0.00152486563 -0.0368474424
v 0.104994647 -0.005470991 -0.0386206619
v 0.0367443971 0.03618872 -0.108323604
v 0.0427546278 0.0154283047 -0.09642704
v 0.117405877 0.02813387 -0.114349753
v 0.107182212 0.00935179 -0.101864219
v 0.107182212 0.00935179 -0.101864219
v 0.117405877 0.02813387 -0.114349753
v 0.09714721 -0.0198150873 -0.0424947068
v 0.0907730758 -0.020706296 -0.07162413
v 0.06163867 -0.0178017616 -0.06953953
v 0.0907730758 -0.020706296 -0.07162413
v 0.06445392 -0.0164815784 -0.03858155
v -0.116227843 0.149501324 -0.0839669555
v -0.142481163 0.107435167 -0.09846391
v -0.150770858 0.104574382 -0.0301725827
v -0.1497701 0.142320514 -0.04247781
v -0.1385028 0.09025085 0.0415242128
v -0.141908363 0.13381511 0.0103260688
v -0.08082161 0.106840014 -0.09400979
v -0.07889346 0.148708522 -0.08348653
v -0.06587481 0.1331585 -0.0401674
v -0.06291948 0.0986837745 -0.0285345074
v -0.07883318 0.1059618 0.04950102
v -0.0933702961 0.131610751 0.0130741745
v -0.1497007 0.012755692 -0.0154264681
v -0.12905179 0.0105007291 -0.09851864
v -0.115292214 -0.00562775135 -0.07578078
v -0.125568584 -0.00428319 -0.0353240855
v -0.08308146 -0.003209591 -0.0745777
v -0.06437577 0.0150209665 -0.0947796553
v -0.065464884 0.02006483 -0.008666005
v -0.08475444 -0.00132244825 -0.0346232429
v -0.115750179 0.06505191 -0.11489971
v -0.132036343 -0.0182598233 0.221488044
v -0.1342625 0.004755616 0.219783887
v -0.182067871 0.00421690941 0.207763642
v -0.184232175 -0.0188403726 0.206688866
v -0.0634145439 0.04252118 -0.005857367
v -0.07976918 0.0146865249 0.06361942
v -0.10890042 0.057528615 0.105454206
v -0.180832088 0.0466965437 0.08915146
v -0.112588771 -0.0199044943 -0.0686572045
v -0.08334803 -0.0177042484 -0.0673407242
v -0.08531906 -0.01627332 -0.0363224633
v -0.11817468 -0.0188186765 -0.03937298
v -0.07891945 -0.0173312426 0.0575960539
v -0.132036343 -0.0182598233 0.221488044
v -0.184232175 -0.0188403726 0.206688866
v -0.18832092 -0.0185671449 0.034907937
v -0.07891945 -0.0173312426 0.0575960539
v -0.07976918 0.0146865249 0.06361942
v -0.1342625 0.004755616 0.219783887
v -0.132036343 -0.0182598233 0.221488044
v -0.18240355 0.0270947814 0.1989791
v -0.14109017 0.0280442238 0.208577931
v -0.189340621 0.0106506944 0.0476771481
v -0.18832092 -0.0185671449 0.034907937
v -0.155829251 0.0354793668 -0.0130284308
v -0.139141321 0.0295078158 -0.110770553
v -0.115292214 -0.00562775135 -0.07578078
v -0.12905179 0.0105007291 -0.09851864
v -0.06437577 0.0150209665 -0.0947796553
v -0.0581784323 0.03561312 -0.106871128
v -0.139141321 0.0295078158 -0.110770553
v -0.0581784323 0.03561312 -0.106871128
v -0.1342625 0.004755616 0.219783887
v -0.182067871 0.00421690941 0.207763642
v -0.189340621 0.0106506944 0.0476771481
v -0.065464884 0.02006483 -0.008666005
v -0.0634145439 0.04252118 -0.005857367
v -0.1342625 0.004755616 0.219783887
v -0.182067871 0.00421690941 0.207763642
v -0.155829251 0.0354793668 -0.0130284308
v -0.1497007 0.012755692 -0.0154264681
v -0.065464884 0.02006483 -0.008666005
v -0.1497007 0.012755692 -0.0154264681
v -0.08475444 -0.00132244825 -0.0346232429
v -0.125568584 -0.00428319 -0.0353240855
v -0.0581784323 0.03561312 -0.106871128
v -0.06437577 0.0150209665 -0.0947796553
v -0.139141321 0.0295078158 -0.110770553
v -0.12905179 0.0105007291 -0.09851864
v -0.139141321 0.0295078158 -0.110770553
v -0.12905179 0.0105007291 -0.09851864
v -0.112588771 -0.0199044943 -0.0686572045
v -0.11817468 -0.0188186765 -0.03937298
v -0.08334803 -0.0177042484 -0.0673407242
v -0.112588771 -0.0199044943 -0.0686572045
v -0.08531906 -0.01627332 -0.0363224633
vt 0.313324839 0.7702031
vt 0.328976184 0.720861733
vt 0.407331169 0.6806576
vt 0.414994031 0.806502938
vt 0.3183106 0.678622246
vt 0.408704132 0.5649967
vt 0.216345459 0.8151236
vt 0.198768273 0.70272857
vt 0.24442257 0.7218062
vt 0.237826318 0.7700977
vt 0.273079634 0.67733413
vt 0.2380359 0.552685559
vt 0.699419141 0.09474474
vt 0.617869258 0.194863081
vt 0.619371057 0.384409547
vt 0.702898264 0.317489266
vt 0.619953752 0.5057267
vt 0.6213864 0.6840096
vt 0.709095359 0.8266335
vt 0.705819964 0.532749355
vt 0.335915238 0.908909857
vt 0.0188279487 0.07567161
vt 0.132250577 0.07567716
vt 0.136479869 0.017564714
vt 0.02868711 0.0175601244
vt 0.07681624 0.65709275
vt 0.09800262 0.486810684
vt 0.242112458 0.379557252
vt 0.443326235 0.3861506
vt 0.8245819 0.178802311
vt 0.814011037 0.24989599
vt 0.8936279 0.2542686
vt 0.8953011 0.179323733
vt 0.985315442 0.5645265
vt 0.716221452 0.556630731
vt 0.7980301 0.9624627
vt 0.928084135 0.9756596
vt 0.466075718 0.0756548643
vt 0.112723917 0.0756548643
vt 0.115648329 0.0173171759
vt 0.453704655 0.0172730684
vt 0.272899836 0.1704936
vt 0.383590281 0.181424856
vt 0.485778838 0.017593503
vt 0.4741765 0.0757285357
vt 0.502618849 0.63561976
vt 0.409129471 0.97835964
vt 0.6162561 0.3192942
vt 0.705819964 0.5273526
vt 0.700935245 0.2065593
vt 0.172022387 0.973787367
vt 0.5265788 0.827027
vt 0.0281944312 0.8955325
vt 0.255629 0.09313756
vt 0.4160395 0.09924102
vt 0.538969457 0.461465
vt 0.6035187 0.01715964
vt 0.6114957 0.075609386
vt 0.1856646 0.116291225
vt 0.4517767 0.11836797
vt 0.622241855 0.07566553
vt 0.6303997 0.01755333
vt 0.953934968 0.3960706
vt 0.7497667 0.3873198
vt 0.899401367 0.294381618
vt 0.8008143 0.2963996
vt 0.813774347 0.0171700716
vt 0.8243752 0.07561183
vt 0.9678847 0.0171676278
vt 0.9480929 0.0756126642
vt 0.8335938 0.07568973
vt 0.8427721 0.0180622935
vt 0.549170136 0.218525767
vt 0.5503603 0.3555137
vt 0.5513605 0.528416336
vt 0.551342368 0.355036139
vt 0.55259645 0.6730729
vt 0.313324839 0.7702031
vt 0.414994031 0.806502938
vt 0.407331169 0.6806576
vt 0.328976184 0.720861733
vt 0.408704132 0.5649967
vt 0.3183106 0.678622246
vt 0.216345459 0.8151236
vt 0.237826318 0.7700977
vt 0.24442257 0.7218062
vt 0.198768273 0.70272857
vt 0.2380359 0.552685559
vt 0.273079634 0.67733413
vt 0.699419141 0.09474474
vt 0.702898264 0.317489266
vt 0.619371057 0.384409547
vt 0.617869258 0.194863081
vt 0.619953752 0.5057267
vt 0.7065573 0.5379105
vt 0.709095359 0.8266335
vt 0.6213864 0.6840096
vt 0.335915238 0.908909857
vt 0.0188279487 0.07567161
vt 0.02868711 0.0175601244
vt 0.136479869 0.017564714
vt 0.132250577 0.07567716
vt 0.07681624 0.65709275
vt 0.09800262 0.486810684
vt 0.242112458 0.379557252
vt 0.443326235 0.3861506
vt 0.8245819 0.178802311
vt 0.8953011 0.179323733
vt 0.8936279 0.2542686
vt 0.814011037 0.24989599
vt 0.985315442 0.5645265
vt 0.928084135 0.9756596
vt 0.7980301 0.9624627
vt 0.716221452 0.556630731
vt 0.466134936 0.07566798
vt 0.453763872 0.0172861218
vt 0.115707494 0.0173302889
vt 0.112783082 0.07566798
vt 0.383590281 0.181424856
vt 0.272899836 0.1704936
vt 0.485778838 0.017593503
vt 0.4741765 0.0757285357
vt 0.502618849 0.63561976
vt 0.409129471 0.97835964
vt 0.6162561 0.3192942
vt 0.700935245 0.2065593
vt 0.705819964 0.5277889
vt 0.172022387 0.973787367
vt 0.5265788 0.827027
vt 0.0281944312 0.8955325
vt 0.255629 0.09313756
vt 0.4160395 0.09924102
vt 0.538969457 0.461465
vt 0.611554742 0.07562244
vt 0.6035778 0.0171726942
vt 0.1856646 0.116291225
vt 0.4517767 0.11836797
vt 0.6303997 0.01755333
vt 0.622241855 0.07566553
vt 0.953934968 0.3960706
vt 0.7497667 0.3873198
vt 0.899401367 0.294381618
vt 0.8008143 0.2963996
vt 0.8138334 0.0171831846
vt 0.8244343 0.07562488
vt 0.967943847 0.01718074
vt 0.948151946 0.07562572
vt 0.8427721 0.0180622935
vt 0.8335938 0.07568973
vt 0.5503603 0.3555137
vt 0.549170136 0.218525767
vt 0.5513605 0.528416336
vt 0.551342368 0.355036139
vt 0.55259645 0.6730729
vn 0.426289082 0.402167916 -0.810270667
vn 0.9200327 -0.0977213159 -0.3794607
vn 0.9957825 0.07288024 -0.05572825
vn 0.669831753 0.333492726 -0.6634064
vn 0.822563469 0.338662982 0.456833333
vn 0.710344136 0.596626759 0.373427033
vn -0.608420551 0.320825815 -0.7258755
vn -0.973920941 0.2057344 0.095662795
vn -0.9807611 0.195110723 -0.006277373
vn -0.5674467 0.2747584 -0.7762165
vn -0.4849895 0.752500355 0.445565283
vn -0.5502673 0.6027043 0.577887
vn 0.5807378 -0.7498189 -0.3170413
vn 0.459384918 -0.8038426 0.3778923
vn 0.36432904 -0.751177549 -0.5504513
vn 0.350258857 -0.7349477 -0.580664
vn -0.573685467 -0.6880949 -0.444308817
vn -0.539080739 -0.6291769 0.559936
vn -0.8341919 -0.5449599 0.08451348
vn -0.651964 -0.620769262 -0.435417622
vn 0.008328818 0.138572529 -0.9903173
vn -0.4315457 -0.5268732 0.732238352
vn 0.644605339 -0.580269456 0.497766346
vn 0.7267999 0.159036592 0.668183565
vn -0.45247817 0.2786474 0.84712404
vn -0.9872717 -0.00184376677 0.159031868
vn -0.9502802 0.0580915026 0.305929571
vn -0.454462349 0.7332663 0.505751431
vn 0.7590207 0.642212451 0.107008278
vn 0.390463442 -0.7874406 -0.476944
vn 0.472461849 -0.7684922 0.431508362
vn -0.5444567 -0.5678509 0.617342949
vn -0.66953516 -0.6500404 -0.359402567
vn -0.6873294 -0.7263392 -0.00310563366
vn 0.668448448 -0.6689077 -0.3251756
vn 0.644605339 -0.580269456 0.497766346
vn -0.4315457 -0.5268732 0.732238352
vn -0.6873294 -0.7263392 -0.00310563366
vn -0.4315457 -0.5268732 0.732238352
vn -0.45247817 0.2786474 0.84712404
vn -0.9502802 0.0580915026 0.305929571
vn -0.2646223 0.7333501 0.626236856
vn 0.6793632 0.5934413 0.4316168
vn 0.9642982 0.203740269 -0.169171318
vn 0.668448448 -0.6689077 -0.3251756
vn 0.9677013 0.0356737 -0.2495626
vn 0.5768135 -0.322210282 -0.7506442
vn 0.36432904 -0.751177549 -0.5504513
vn -0.651964 -0.620769262 -0.435417622
vn 0.350258857 -0.7349477 -0.580664
vn -0.74715817 -0.132001519 -0.6514064
vn 0.5768135 -0.322210282 -0.7506442
vn -0.74715817 -0.132001519 -0.6514064
vn -0.45247817 0.2786474 0.84712404
vn 0.7267999 0.159036592 0.668183565
vn 0.9642982 0.203740269 -0.169171318
vn -0.9872717 -0.00184376677 0.159031868
vn -0.8341919 -0.5449599 0.08451348
vn -0.45247817 0.2786474 0.84712404
vn 0.7267999 0.159036592 0.668183565
vn 0.5807378 -0.7498189 -0.3170413
vn 0.9677013 0.0356737 -0.2495626
vn -0.8341919 -0.5449599 0.08451348
vn 0.5807378 -0.7498189 -0.3170413
vn -0.539080739 -0.6291769 0.559936
vn 0.459384918 -0.8038426 0.3778923
vn -0.74715817 -0.132001519 -0.6514064
vn -0.651964 -0.620769262 -0.435417622
vn 0.5768135 -0.322210282 -0.7506442
vn 0.350258857 -0.7349477 -0.580664
vn 0.350258857 -0.7349477 -0.580664
vn 0.5768135 -0.322210282 -0.7506442
vn 0.472461849 -0.7684922 0.431508362
vn 0.390463442 -0.7874406 -0.476944
vn -0.66953516 -0.6500404 -0.359402567
vn 0.390463442 -0.7874406 -0.476944
vn -0.5444567 -0.5678509 0.617342949
vn -0.414420128 0.393696338 -0.8205237
vn -0.679308832 0.348890781 -0.645611942
vn -0.9950154 0.0956821442 -0.028094558
vn -0.9186153 -0.105974123 -0.3806776
vn -0.6777575 0.614915848 0.403141767
vn -0.8240638 0.337557524 0.454943746
vn 0.6003962 0.282875448 -0.7480012
vn 0.610802 0.1848743 -0.7698977
vn 0.995696068 0.09254129 -0.00504634669
vn 0.9824352 0.170325622 0.07622438
vn 0.579618454 0.582746446 0.5696043
vn 0.505176 0.7474765 0.431365341
vn -0.5961013 -0.7212036 -0.352886051
vn -0.383023053 -0.727043569 -0.5698254
vn -0.3966866 -0.742885053 -0.5392231
vn -0.4686527 -0.7919448 0.391392469
vn 0.5450371 -0.7024157 -0.457762778
vn 0.6251281 -0.636994958 -0.451056868
vn 0.8293303 -0.555216134 0.06281948
vn 0.538171649 -0.641285658 0.5469223
vn -0.03089691 0.137362912 -0.9900388
vn 0.421442747 -0.5384123 0.729724765
vn 0.445251137 0.2654543 0.8551523
vn -0.7327359 0.15421629 0.662808836
vn -0.652528048 -0.583262742 0.483747631
vn 0.9902291 -0.018822968 0.138173833
vn 0.947166443 0.0384528525 0.3184292
vn 0.450370848 0.7142037 0.535797656
vn -0.759617269 0.6422102 0.102701955
vn -0.421757221 -0.77840203 -0.464985043
vn 0.6439698 -0.6665782 -0.3754683
vn 0.5465315 -0.580028057 0.6040453
vn -0.47946167 -0.756213963 0.4452605
vn 0.6837386 -0.7296826 -0.008051693
vn 0.421442747 -0.5384123 0.729724765
vn -0.652528048 -0.583262742 0.483747631
vn -0.665323 -0.6573684 -0.3538531
vn 0.6837386 -0.7296826 -0.008051693
vn 0.947166443 0.0384528525 0.3184292
vn 0.445251137 0.2654543 0.8551523
vn 0.421442747 -0.5384123 0.729724765
vn -0.6807208 0.5913619 0.432331264
vn 0.261931449 0.723906636 0.638240635
vn -0.959478 0.2159766 -0.1809862
vn -0.665323 -0.6573684 -0.3538531
vn -0.969151 0.070654355 -0.236123368
vn -0.6038961 -0.309170455 -0.734658539
vn -0.3966866 -0.742885053 -0.5392231
vn -0.383023053 -0.727043569 -0.5698254
vn 0.6251281 -0.636994958 -0.451056868
vn 0.728806257 -0.147673264 -0.668606043
vn -0.6038961 -0.309170455 -0.734658539
vn 0.728806257 -0.147673264 -0.668606043
vn 0.445251137 0.2654543 0.8551523
vn -0.7327359 0.15421629 0.662808836
vn -0.959478 0.2159766 -0.1809862
vn 0.8293303 -0.555216134 0.06281948
vn 0.9902291 -0.018822968 0.138173833
vn 0.445251137 0.2654543 0.8551523
vn -0.7327359 0.15421629 0.662808836
vn -0.969151 0.070654355 -0.236123368
vn -0.5961013 -0.7212036 -0.352886051
vn 0.8293303 -0.555216134 0.06281948
vn -0.5961013 -0.7212036 -0.352886051
vn 0.538171649 -0.641285658 0.5469223
vn -0.4686527 -0.7919448 0.391392469
vn 0.728806257 -0.147673264 -0.668606043
vn 0.6251281 -0.636994958 -0.451056868
vn -0.6038961 -0.309170455 -0.734658539
vn -0.383023053 -0.727043569 -0.5698254
vn -0.6038961 -0.309170455 -0.734658539
vn -0.383023053 -0.727043569 -0.5698254
vn -0.421757221 -0.77840203 -0.464985043
vn -0.47946167 -0.756213963 0.4452605
vn 0.6439698 -0.6665782 -0.3754683
vn -0.421757221 -0.77840203 -0.464985043
vn 0.5465315 -0.580028057 0.6040453
usemtl 0003012504_part_0_material_0
f 1/1/1 2/2/2 3/3/3
f 3/3/3 4/4/4 1/1/1
f 2/2/2 5/5/5 6/6/6
f 6/6/6 3/3/3 2/2/2
f 7/7/7 8/8/8 9/9/9
f 9/9/9 10/10/10 7/7/7
f 10/10/10 1/1/1 4/4/4
f 4/4/4 7/7/7 10/10/10
f 5/5/5 11/11/11 12/12/12
f 12/12/12 6/6/6 5/5/5
f 11/11/11 9/9/9 8/8/8
f 8/8/8 12/12/12 11/11/11
f 13/13/13 14/14/14 15/15/15
f 15/15/15 16/16/16 13/13/13
f 17/17/17 18/18/18 19/19/19
f 19/19/19 20/20/20 17/17/17
f 7/7/7 4/4/4 21/21/21
f 22/22/22 23/23/23 24/24/24
f 24/24/24 25/25/25 22/22/22
f 8/8/8 26/26/26 12/12/12
f 27/27/27 28/28/28 12/12/12
f 12/12/12 26/26/26 27/27/27
f 6/6/6 12/12/12 28/28/28
f 28/28/28 29/29/29 6/6/6
f 30/30/30 31/31/31 32/32/32
f 32/32/32 33/33/33 30/30/30
f 34/34/34 35/35/35 36/36/36
f 36/36/36 37/37/37 34/34/34
f 38/38/38 39/39/39 40/40/40
f 40/40/40 41/41/41 38/38/38
f 29/29/29 28/28/28 42/42/42
f 42/42/42 43/43/43 29/29/29
f 44/44/44 24/24/24 23/23/23
f 23/23/23 45/45/45 44/44/44
f 6/6/6 46/46/46 3/3/3
f 4/4/4 47/47/47 21/21/21
f 48/48/48 17/17/17 49/49/49
f 49/49/49 50/50/50 48/48/48
f 21/21/21 51/51/51 7/7/7
f 3/3/3 46/46/46 52/52/52
f 52/52/52 4/4/4 3/3/3
f 53/53/53 26/26/26 8/8/8
f 8/8/8 7/7/7 53/53/53
f 54/54/54 55/55/55 43/43/43
f 43/43/43 42/42/42 54/54/54
f 56/56/56 46/46/46 6/6/6
f 6/6/6 29/29/29 56/56/56
f 38/38/38 41/41/41 57/57/57
f 57/57/57 58/58/58 38/38/38
f 28/28/28 27/27/27 59/59/59
f 59/59/59 42/42/42 28/28/28
f 60/60/60 56/56/56 29/29/29
f 29/29/29 43/43/43 60/60/60
f 51/51/51 21/21/21 47/47/47
f 45/45/45 61/61/61 62/62/62
f 62/62/62 44/44/44 45/45/45
f 63/63/63 64/64/64 35/35/35
f 35/35/35 34/34/34 63/63/63
f 65/65/65 66/66/66 64/64/64
f 64/64/64 63/63/63 65/65/65
f 67/67/67 68/68/68 58/58/58
f 58/58/58 57/57/57 67/67/67
f 69/69/69 70/70/70 68/68/68
f 68/68/68 67/67/67 69/69/69
f 61/61/61 71/71/71 72/72/72
f 72/72/72 62/62/62 61/61/61
f 15/15/15 14/14/14 73/73/73
f 73/73/73 74/74/74 15/15/15
f 75/75/75 17/17/17 48/48/48
f 48/48/48 76/76/76 75/75/75
f 18/18/18 17/17/17 75/75/75
f 75/75/75 77/77/77 18/18/18
f 31/31/31 66/66/66 65/65/65
f 65/65/65 32/32/32 31/31/31
f 78/78/78 79/79/79 80/80/80
f 80/80/80 81/81/81 78/78/78
f 81/81/81 80/80/80 82/82/82
f 82/82/82 83/83/83 81/81/81
f 84/84/84 85/85/85 86/86/86
f 86/86/86 87/87/87 84/84/84
f 85/85/85 84/84/84 79/79/79
f 79/79/79 78/78/78 85/85/85
f 83/83/83 82/82/82 88/88/88
f 88/88/88 89/89/89 83/83/83
f 89/89/89 88/88/88 87/87/87
f 87/87/87 86/86/86 89/89/89
f 90/90/90 91/91/91 92/92/92
f 92/92/92 93/93/93 90/90/90
f 94/94/94 95/95/95 96/96/96
f 96/96/96 97/97/97 94/94/94
f 84/84/84 98/98/98 79/79/79
f 99/99/99 100/100/100 101/101/101
f 101/101/101 102/102/102 99/99/99
f 87/87/87 88/88/88 103/103/103
f 104/104/104 103/103/103 88/88/88
f 88/88/88 105/105/105 104/104/104
f 82/82/82 106/106/106 105/105/105
f 105/105/105 88/88/88 82/82/82
f 107/107/107 108/108/108 109/109/109
f 109/109/109 110/110/110 107/107/107
f 111/111/111 112/112/112 113/113/113
f 113/113/113 114/114/114 111/111/111
f 115/115/115 116/116/116 117/117/117
f 117/117/117 118/118/118 115/115/115
f 106/106/106 119/119/119 120/120/120
f 120/120/120 105/105/105 106/106/106
f 121/121/121 122/122/122 102/102/102
f 102/102/102 101/101/101 121/121/121
f 82/82/82 80/80/80 123/123/123
f 79/79/79 98/98/98 124/124/124
f 125/125/125 126/126/126 127/127/127
f 127/127/127 94/94/94 125/125/125
f 98/98/98 84/84/84 128/128/128
f 80/80/80 79/79/79 129/129/129
f 129/129/129 123/123/123 80/80/80
f 130/130/130 84/84/84 87/87/87
f 87/87/87 103/103/103 130/130/130
f 131/131/131 120/120/120 119/119/119
f 119/119/119 132/132/132 131/131/131
f 133/133/133 106/106/106 82/82/82
f 82/82/82 123/123/123 133/133/133
f 115/115/115 134/134/134 135/135/135
f 135/135/135 116/116/116 115/115/115
f 105/105/105 120/120/120 136/136/136
f 136/136/136 104/104/104 105/105/105
f 137/137/137 119/119/119 106/106/106
f 106/106/106 133/133/133 137/137/137
f 128/128/128 124/124/124 98/98/98
f 122/122/122 121/121/121 138/138/138
f 138/138/138 139/139/139 122/122/122
f 140/140/140 111/111/111 114/114/114
f 114/114/114 141/141/141 140/140/140
f 142/142/142 140/140/140 141/141/141
f 141/141/141 143/143/143 142/142/142
f 144/144/144 135/135/135 134/134/134
f 134/134/134 145/145/145 144/144/144
f 146/146/146 144/144/144 145/145/145
f 145/145/145 147/147/147 146/146/146
f 139/139/139 138/138/138 148/148/148
f 148/148/148 149/149/149 139/139/139
f 92/92/92 150/150/150 151/151/151
f 151/151/151 93/93/93 92/92/92
f 152/152/152 153/153/153 125/125/125
f 125/125/125 94/94/94 152/152/152
f 97/97/97 154/154/154 152/152/152
f 152/152/152 94/94/94 97/97/97
f 110/110/110 109/109/109 142/142/142
f 142/142/142 143/143/143 110/110/110
