mtllib 0003011002.mtl
o 0003011002_part_0
v -0.05456927 0.7458085 -0.0469515435
v -0.08686833 0.739929 -0.0160167422
v -0.09148216 0.8077823 -0.01857241
v -0.06028976 0.8038848 -0.0561027452
v -0.101410322 0.809031069 -0.0107376128
v -0.09950439 0.807895243 0.03504231
v -0.105142184 0.862931132 0.0289949
v -0.09616449 0.7449076 0.030267939
v -0.09949504 0.8357339 -0.0611553155
v -0.09410715 0.89234513 -0.06920312
v -0.109275281 0.8379337 -0.00612884853
v -0.00172961957 0.886955261 -0.08109383
v -0.00187779544 0.799050033 -0.06279041
v -0.000258681132 0.8127587 0.114058256
v -0.0406983 0.785854459 0.104031235
v -0.000381724443 0.761855841 0.112405851
v -0.08891756 0.8119829 0.08078045
v -0.0428458974 0.8154728 0.1105925
v -0.0434393026 0.8613034 0.107720807
v -0.09150014 0.8674007 0.08266869
v -0.000137850177 0.8542735 0.111139849
v -0.111539252 0.8991257 0.0353731178
v -0.08407501 0.7780199 0.068057
v -0.0507213473 0.748744 0.0944512039
v -0.0416070037 0.919120967 0.06717636
v -0.00197878433 0.744913459 -0.06067237
v -0.07914804 0.6474439 0.08216719
v -0.05852902 0.7126548 0.09026988
v -0.103132427 0.723777652 0.0285118334
v -0.11929138 0.662579656 0.0163310021
v -0.000879755 0.6414776 0.104242861
v -0.0006778084 0.704829 0.10176599
v -0.08686833 0.739929 -0.0160167422
v -0.103086516 0.6760529 -0.0375357121
v -0.05909781 0.6809393 -0.06696321
v -0.05456927 0.7458085 -0.0469515435
v -0.00197878433 0.744913459 -0.06067237
v -0.0023193357 0.6872277 -0.07605672
v -0.14068906 0.4275975 0.0967418253
v -0.0525454953 0.5532364 0.105482325
v -0.09944067 0.562422633 0.08146031
v -0.15866527 0.561600268 0.00764586637
v -0.0429502577 0.562662363 -0.113652766
v -0.1380034 0.5609248 -0.06893484
v -0.000190115068 0.908295035 0.08375381
v -0.0824719146 0.92737937 0.0369729362
v -0.122513749 0.905657649 0.02363219
v -0.09519064 0.944064 -0.008563566
v -0.124507271 0.924883962 -0.00669279136
v -0.10690634 0.9223238 -0.04820047
v -0.00131799153 0.965162754 -0.0658739656
v -0.0453918576 0.966149569 -0.0458205
v -0.09519064 0.944064 -0.008563566
v -0.06149656 0.9551181 0.03317362
v -0.0165352747 0.946480453 0.0546878129
v -0.124507271 0.924883962 -0.00669279136
v -0.06280716 0.96329546 -0.00371362269
v -0.144763827 0.907944 -0.00572088454
v -0.167883873 0.8487965 -0.02575426
v -0.157405287 0.8312734 -0.003666481
v -0.135448173 0.8778804 0.0151725793
v -0.124226883 0.8287024 -0.07468723
v -0.109275281 0.8379337 -0.00612884853
v -0.119091563 0.81519556 -0.0158976465
v -0.13411358 0.8168898 0.000318024482
v -0.109275281 0.8379337 -0.00612884853
v -0.105142184 0.862931132 0.0289949
v -0.1536496 0.8454006 -0.0611603558
v -0.126182914 0.8965263 -0.05545455
v -0.09410715 0.89234513 -0.06920312
v -0.09949504 0.8357339 -0.0611553155
v -0.119091563 0.81519556 -0.0158976465
v -0.111539252 0.8991257 0.0353731178
v -0.1877179 0.7855909 -0.0708650351
v -0.202315658 0.7875197 -0.04565279
v -0.188355982 0.7394623 -0.0358419381
v -0.176402986 0.729353666 -0.0698781163
v -0.156563833 0.759027958 -0.0549368821
v -0.170929715 0.7627248 -0.0211538859
v -0.20505102 0.752679467 -0.08416596
v -0.216954738 0.7591785 -0.0611056872
v -0.193960726 0.7770853 -0.0265072454
v -0.2077454 0.7518293 -0.0412840471
v -0.1647017 0.7767143 -0.08261144
v -0.187013626 0.7418234 -0.09118022
v -0.156563833 0.759027958 -0.0549368821
v -0.176402986 0.729353666 -0.0698781163
v -0.272043079 0.6838499 -0.07445541
v -0.227967218 0.746771634 -0.058389578
v -0.21857363 0.7379676 -0.0896233
v -0.249837846 0.672433436 -0.104998484
v -0.194215611 0.7193265 -0.09684342
v -0.225246415 0.650802135 -0.105202332
v -0.218651563 0.735254765 -0.0371224061
v -0.262205452 0.667858541 -0.0410865434
v -0.183981851 0.712401867 -0.0693573952
v -0.223167866 0.6423359 -0.07162842
v -0.2431315 0.6563229 -0.03813692
v -0.199734837 0.7218124 -0.03548291
v -0.223167866 0.6423359 -0.07162842
v -0.183981851 0.712401867 -0.0693573952
v -0.210867018 0.746352255 -0.08432691
v -0.191699356 0.732104957 -0.0913497657
v -0.0529407859 1.020491 0.03318617
v -0.0162433013 0.9751668 0.04042653
v -0.038671568 0.985062957 0.0142056029
v -0.0571590737 1.03975773 -0.0110154646
v -9.88997053E-05 1.01271272 0.05246598
v -0.000292454148 0.974835634 0.04574688
v -0.0265154988 0.992687941 -0.01860375
v -0.0255741514 0.9824256 0.05706054
v -0.06809115 1.00004458 0.03859478
v -0.06149656 0.9551181 0.03317362
v -0.0165352747 0.946480453 0.0546878129
v -0.07184837 1.01213968 0.002229218
v -0.06280716 0.96329546 -0.00371362269
v -0.0008916927 1.04278088 -0.0487785153
v -0.00094205793 0.9971376 -0.0362719819
v -0.00106316328 1.02221859 -0.0598904379
v -0.00131799153 0.965162754 -0.0658739656
v -0.0453918576 0.966149569 -0.0458205
v -0.0470956564 1.01995659 -0.04062566
v -0.00178898755 0.4791495 0.122924909
v -0.04926208 0.4784918 0.113305166
v -0.0883479 0.5746452 0.105253085
v -0.00118504628 0.5514499 0.113759473
v -0.05738696 0.725400567 0.101643965
v -0.0005328555 0.7230197 0.110846743
v -0.10690634 0.9223238 -0.04820047
v -0.124507271 0.924883962 -0.00669279136
v -0.122513749 0.905657649 0.02363219
v -0.06280716 0.96329546 -0.00371362269
v -0.05852902 0.7126548 0.09026988
v -0.103132427 0.723777652 0.0285118334
v -0.0006778084 0.704829 0.10176599
v -0.09829399 0.5986919 -0.0575785935
v -0.131100684 0.48968932 -0.0146405715
v -0.113412961 0.6030588 0.00120121625
v -0.119621769 0.488392085 0.0330029353
v -0.106757618 0.5832346 0.04729589
v -0.0572815463 0.579477251 0.0738801658
v -0.0762815 0.485928744 0.06735878
v -0.0383827 0.480299324 0.0293009784
v -0.0197330024 0.567768455 0.0415342748
v -0.002308764 0.5519956 -0.0129831089
v -0.0185192414 0.480433226 -0.0101186372
v -0.0185192414 0.480433226 -0.0101186372
v -0.04250791 0.590397656 -0.0639565438
v -0.002308764 0.5519956 -0.0129831089
v -0.00281784381 0.62017405 -0.0974395
v -0.00158833887 0.5684667 0.06157757
v -0.08959212 0.622629166 0.04079685
v -0.03627091 0.611777246 0.07009368
v -0.001377512 0.59455353 0.0749326348
v -0.00281784381 0.62017405 -0.0974395
v -0.04250791 0.590397656 -0.0639565438
v -0.07558788 0.593685865 -0.074768424
v -0.0411177278 0.4851699 -0.04462612
v -0.0815709159 0.4894504 -0.0688742548
v -0.07558788 0.593685865 -0.074768424
v -0.123095229 0.490708023 -0.0484245121
v -0.0384448357 0.961396933 0.01998503
v -0.032267943 0.9655832 -0.035597045
v -0.00121125567 0.964545548 -0.05361035
v -0.000380403 0.9444963 0.0479196943
v -0.000282831257 0.9423394 0.0597643
v -0.00254668249 0.6519504 -0.08761382
v -0.155192211 0.9635047 0.006380696
v -0.142173678 0.9139402 0.0555160232
v -0.0682243 0.9580826 0.04080689
v -0.06467521 0.969215751 -0.0123789124
v -0.0616639256 0.933393955 0.0552096926
v -0.0949874 0.8587673 0.06607261
v -0.165315375 0.936669946 -0.001532834
v -0.14837262 0.8982941 0.0504164845
v -0.217727229 0.7997171 0.015850056
v -0.156414628 0.7628685 0.0327763557
v -0.171830535 0.8586777 0.036119353
v -0.236415565 0.8357389 -0.0349220335
v -0.19002825 0.892325938 -0.01663132
v -0.0557552055 0.963398337 -0.0658801645
v -0.130057588 0.94332093 -0.05761455
v -0.0457400866 0.9401825 -0.08103655
v -0.0784737244 0.898811936 -0.08811936
v -0.13634783 0.927453458 -0.06186155
v -0.206089616 0.8279376 -0.092813
v -0.1599143 0.8875738 -0.07514511
v -0.140453592 0.801573 -0.116255447
v -0.0182295218 0.578018963 0.104936644
v -0.189576551 0.4195344 0.006847813
v -0.112493441 0.4248306 -0.105509192
v -0.171983331 0.4234339 -0.06872514
v -0.08685295 0.578644 -0.108229637
v -0.00319541339 0.5951249 -0.129982039
v -0.0023193357 0.6872277 -0.07605672
v -0.0701291 0.6821095 -0.0632846355
v -0.03688997 0.4742927 -0.119913444
v -0.00506094843 0.480156451 -0.128094956
v 0.05085212 0.745435834 -0.04788783
v 0.0566771366 0.8035369 -0.0570907332
v 0.0888363346 0.8060669 -0.0209162943
v 0.08365315 0.739326239 -0.017531205
v 0.09922639 0.805703044 -0.0141528537
v 0.103623562 0.8635362 0.0268670525
v 0.0975310951 0.807198763 0.0332923643
v 0.0938048661 0.7442361 0.0285807531
v 0.09593849 0.8344271 -0.06282936
v 0.0881571844 0.891882658 -0.06798825
v 0.106709823 0.8365543 -0.007985417
v 0.039805267 0.785569847 0.103316262
v 0.0877874643 0.8113583 0.0792110562
v 0.09079486 0.8667563 0.0810496658
v 0.04314466 0.8609973 0.106951833
v 0.0422783829 0.815171838 0.109836489
v 0.109492719 0.9013131 0.03280495
v 0.08247944 0.777094841 0.06667937
v 0.04953712 0.7483896 0.0935607851
v 0.0410013 0.918828964 0.06644267
v 0.07702432 0.646891832 0.08078016
v 0.116098 0.6617476 0.0142404232
v 0.100590982 0.7230575 0.0267024916
v 0.05701397 0.712246358 0.0892436951
v 0.09903462 0.6753384 -0.0393308252
v 0.08365315 0.739326239 -0.017531205
v 0.0545658246 0.6805375 -0.06797269
v 0.05085212 0.745435834 -0.04788783
v 0.135110766 0.425557256 0.09355916
v 0.09675723 0.5613712 0.0795465261
v 0.050354138 0.5540225 0.1051109
v 0.1539949 0.559263468 0.004205911
v 0.131328136 0.559241056 -0.0718085
v 0.0292540155 0.5540421 -0.109104872
v 0.1130105 0.897344232 0.0290732421
v 0.08230093 0.9263241 0.0356058739
v 0.09477331 0.9427017 -0.0101099145
v 0.115512751 0.921962738 -0.00180637185
v 0.100699171 0.920985758 -0.04643369
v 0.0431109667 0.965836763 -0.0466065258
v 0.09477331 0.9427017 -0.0101099145
v 0.06053777 0.954686761 0.03208979
v 0.0159057528 0.9463658 0.05439969
v 0.115512751 0.921962738 -0.00180637185
v 0.0612507761 0.9628569 -0.00481542572
v 0.142527312 0.9048753 -0.008066818
v 0.129748821 0.8729634 0.0164803527
v 0.15466091 0.8281171 -0.00623247726
v 0.164869159 0.845567048 -0.0285039768
v 0.120208979 0.82578516 -0.07665257
v 0.116023287 0.8123113 -0.01778021
v 0.106709823 0.8365543 -0.007985417
v 0.131342545 0.8138983 -0.0018340135
v 0.103623562 0.8635362 0.0268670525
v 0.106709823 0.8365543 -0.007985417
v 0.0881571844 0.891882658 -0.06798825
v 0.118638195 0.898716 -0.05273886
v 0.149984628 0.84227407 -0.06365146
v 0.09593849 0.8344271 -0.06282936
v 0.116023287 0.8123113 -0.01778021
v 0.109492719 0.9013131 0.03280495
v 0.198508039 0.78404963 -0.0490070879
v 0.1834515 0.7822257 -0.07395597
v 0.184411615 0.736099243 -0.0392259769
v 0.167387649 0.7594757 -0.02395305
v 0.152398244 0.7558826 -0.05747533
v 0.171784818 0.7260775 -0.07304385
v 0.2126958 0.7556144 -0.06499492
v 0.200338751 0.749201059 -0.08783972
v 0.1904209 0.773673356 -0.02971552
v 0.203788266 0.748329163 -0.04501238
v 0.182103321 0.738473237 -0.0945318341
v 0.160168126 0.7735128 -0.08529116
v 0.152398244 0.7558826 -0.05747533
v 0.171784818 0.7260775 -0.07304385
v 0.265669554 0.678664863 -0.0606178269
v 0.247114062 0.659992933 -0.09000048
v 0.217857137 0.7278599 -0.0968339145
v 0.223495468 0.7444489 -0.06794949
v 0.221579269 0.6395712 -0.08809842
v 0.193657 0.7084543 -0.102375612
v 0.210793018 0.7391732 -0.0459829867
v 0.2505858 0.672297239 -0.0260069147
v 0.214573279 0.6403591 -0.0541352071
v 0.17947945 0.7092734 -0.07579577
v 0.191093266 0.727022648 -0.0436355472
v 0.230664477 0.662335336 -0.0229265224
v 0.214573279 0.6403591 -0.0541352071
v 0.17947945 0.7092734 -0.07579577
v 0.210003287 0.737499237 -0.09506039
v 0.191162333 0.7222793 -0.10081163
v 0.05524791 1.02010787 0.03232222
v 0.0588177368 1.039588 -0.01190987
v 0.03759174 0.9847934 0.0135282809
v 0.0155633241 0.9750544 0.0401440449
v 0.02490906 0.992506146 -0.0190604683
v 0.02523922 0.982246 0.0566092469
v 0.0159057528 0.9463658 0.05439969
v 0.06053777 0.954686761 0.03208979
v 0.06754503 0.9995652 0.0373901464
v 0.0612507761 0.9628569 -0.00481542572
v 0.0706540048 1.00712585 -0.007056603
v 0.04528709 1.01963 -0.0414461456
v 0.0431109667 0.965836763 -0.0466065258
v 0.0864300653 0.5731707 0.103509307
v 0.045408465 0.478615582 0.112579614
v 0.0561642461 0.7249992 0.100635469
v 0.100699171 0.920985758 -0.04643369
v 0.115512751 0.921962738 -0.00180637185
v 0.1130105 0.897344232 0.0290732421
v 0.0612507761 0.9628569 -0.00481542572
v 0.05701397 0.712246358 0.0892436951
v 0.100590982 0.7230575 0.0267024916
v 0.127348468 0.100296229 -0.0401338451
v 0.1284479 0.267053 -0.07104652
v 0.133072734 0.2578495 -0.026122639
v 0.0370592959 0.265862018 -0.06349319
v 0.0626052 0.108912975 -0.0845935643
v 0.0492598079 0.09499991 -0.0413880944
v 0.0370592959 0.265862018 -0.06349319
v 0.08192015 0.2808825 -0.09937826
v 0.0626052 0.108912975 -0.0845935643
v 0.0928578 0.260537952 0.006709339
v 0.117490195 0.09953451 0.0123701449
v 0.053317558 0.260365844 -0.0147117507
v 0.0686211661 0.100091279 0.0131575987
v 0.09589655 0.108032286 -0.08332123
v 0.09285626 0.5979351 -0.0593651347
v 0.109607838 0.601817548 -0.0009953675
v 0.123873949 0.487960637 -0.0218565539
v 0.102954425 0.580237865 0.0452378727
v 0.113616176 0.4868464 0.02606931
v 0.0389636755 0.3616311 -0.0359609537
v 0.011257886 0.481422216 -0.0144015737
v 0.0330548733 0.4856796 -0.04948233
v 0.0775897652 0.376873016 -0.07745664
v 0.0729523152 0.4890285 -0.07477531
v 0.05365454 0.5731005 0.07126294
v 0.0169692989 0.579363763 0.0467887074
v 0.0321358219 0.480729043 0.024484314
v 0.0711417347 0.4853638 0.0615445748
v 0.0389636755 0.3616311 -0.0359609537
v 0.04617348 0.4003241 0.00671982532
v 0.011257886 0.481422216 -0.0144015737
v 0.116332918 0.3641001 0.00251195882
v 0.118314207 0.34539786 -0.05993319
v 0.115753487 0.380078852 -0.0530158877
v 0.115359694 0.40497905 0.00748531334
v 0.0443734452 0.360037178 0.00705115777
v 0.0853380859 0.3630023 0.03806869
v 0.08313076 0.411320418 0.0410052724
v 0.118314207 0.34539786 -0.05993319
v 0.118875228 0.31829384 -0.02086994
v 0.07846488 0.350561649 -0.0844910145
v 0.0860884041 0.307444274 0.0103942836
v 0.04590987 0.316677123 -0.0142168552
v 0.0417575762 0.336703122 -0.04201147
v 0.118875228 0.31829384 -0.02086994
v 0.07846488 0.350561649 -0.0844910145
v 0.04590987 0.316677123 -0.0142168552
v 0.0860884041 0.307444274 0.0103942836
v 0.0417575762 0.336703122 -0.04201147
v 0.0367378742 0.5910058 -0.064291805
v 0.115015231 0.489240229 -0.0554179177
v 0.0417575762 0.336703122 -0.04201147
v 0.0417575762 0.336703122 -0.04201147
v 0.0831877 0.6222975 0.03945746
v 0.0345268473 0.612262368 0.06990476
v -0.00281784381 0.62017405 -0.0974395
v 0.06959393 0.593514264 -0.0759614557
v 0.0367378742 0.5910058 -0.064291805
v 0.06959393 0.593514264 -0.0759614557
v 0.0373003967 0.9611292 0.01931231
v 0.0301670283 0.9653625 -0.03615155
v 0.153561518 0.96036005 0.00384416059
v 0.06300643 0.9687644 -0.0135129
v 0.06742081 0.9576031 0.0396021754
v 0.141067669 0.9108858 0.0532060526
v 0.0609429181 0.93296057 0.0541207753
v 0.09368745 0.8560472 0.06460251
v 0.147064283 0.8951966 0.0479981974
v 0.163352564 0.933454931 -0.00424624328
v 0.215095371 0.796133935 0.0122115631
v 0.169983909 0.855416238 0.0332891569
v 0.1538341 0.759718657 0.0302264746
v 0.2331332 0.8320259 -0.0388866924
v 0.187479272 0.8889383 -0.019778505
v 0.12715216 0.9403586 -0.0596933067
v 0.05309669 0.9630135 -0.06684692
v 0.0426500961 0.939870059 -0.0818215758
v 0.07659637 0.897490144 -0.0980227143
v 0.133253649 0.9244473 -0.06405036
v 0.201729417 0.824442863 -0.0962294042
v 0.135502622 0.7985444 -0.118500739
v 0.156297937 0.8844029 -0.07774791
v 0.0158873387 0.5778898 0.104626328
v 0.181422114 0.416493177 0.00240525417
v 0.161959276 0.420968115 -0.07267584
v 0.101579584 0.423877239 -0.107888
v 0.08019439 0.577831864 -0.109674931
v 0.0656687 0.6816294 -0.0644907057
v 0.0268466063 0.475182772 -0.120240673
v -0.05318175 0.9529414 0.0523919277
v 0.0542808622 0.95283103 0.0530369058
v 0.000459723175 0.906787634 0.09643935
v -0.0536208563 0.8622443 0.110032961
v 0.0538417548 0.862134 0.110677913
v -0.144147977 0.1020827 -0.03647129
v -0.145844564 0.259738147 -0.0226035472
v -0.142176062 0.268764973 -0.06765136
v -0.0506766252 0.2653693 -0.0624870248
v -0.06626542 0.09493631 -0.0396957248
v -0.0803926662 0.108992308 -0.0825323462
v -0.0506766252 0.2653693 -0.0624870248
v -0.0803926662 0.108992308 -0.0825323462
v -0.09608496 0.28142345 -0.09721735
v -0.132868245 0.101159006 0.0157359317
v -0.104730606 0.2614961 0.009160574
v -0.06578046 0.260336 -0.0132863373
v -0.08408881 0.100467205 0.0152953994
v -0.113601141 0.109001607 -0.08043516
v -0.0495410264 0.36118865 -0.0351131149
v -0.08889051 0.3769362 -0.07563202
v -0.0495410264 0.36118865 -0.0351131149
v -0.0546921566 0.4000976 0.00765808159
v -0.125794172 0.3655851 0.0053639235
v -0.123701729 0.4064293 0.0102223894
v -0.126282141 0.381469 -0.050192
v -0.129861474 0.346850872 -0.0569705032
v -0.09046235 0.41203326 0.0428757742
v -0.09391475 0.363785028 0.04010048
v -0.0538599044 0.359785229 0.008028807
v -0.130055949 0.319827676 -0.0178452786
v -0.129861474 0.346850872 -0.0569705032
v -0.0905554444 0.351013482 -0.08257182
v -0.05700192 0.3164518 -0.01309845
v -0.09673401 0.308229566 0.0125730056
v -0.053095337 0.336332977 -0.04103231
v -0.130055949 0.319827676 -0.0178452786
v -0.0905554444 0.351013482 -0.08257182
v -0.09673401 0.308229566 0.0125730056
v -0.05700192 0.3164518 -0.01309845
v -0.053095337 0.336332977 -0.04103231
v -0.053095337 0.336332977 -0.04103231
v -0.053095337 0.336332977 -0.04103231
vt 0.393188834 0.5381997
vt 0.3033075 0.5344445
vt 0.2864268 0.688155
vt 0.366430849 0.6908513
vt 0.2637671 0.6868616
vt 0.212822884 0.6839596
vt 0.214824513 0.7840796
vt 0.225099161 0.5836921
vt 0.286463231 0.759765446
vt 0.305591941 0.815705836
vt 0.262054622 0.7581716
vt 0.481982678 0.802983165
vt 0.481982678 0.6875114
vt 0.0231773555 0.684707761
vt 0.08042071 0.62583226
vt 0.0231773555 0.595159769
vt 0.151929811 0.687939465
vt 0.08186135 0.6872428
vt 0.07891615 0.758512259
vt 0.159496635 0.777442157
vt 0.0231773555 0.7538477
vt 0.203394458 0.843468964
vt 0.15793708 0.625481367
vt 0.0938903838 0.5767389
vt 0.085427314 0.8533006
vt 0.481982678 0.5421236
vt 0.3523957 0.368070483
vt 0.3597263 0.47594
vt 0.24183473 0.474005878
vt 0.235852033 0.365986
vt 0.451119184 0.3720634
vt 0.451915473 0.4637028
vt 0.161702141 0.483427048
vt 0.158887 0.367769122
vt 0.0837545 0.368501544
vt 0.0994333252 0.484910727
vt 0.02027189 0.485861361
vt 0.0196227059 0.383269727
vt 0.3494978 0.0826416
vt 0.429547 0.251351774
vt 0.3472861 0.25389874
vt 0.237744033 0.244065523
vt 0.0306143984 0.2506231
vt 0.159625083 0.24592042
vt 0.0231773555 0.835060239
vt 0.147054613 0.8951006
vt 0.220413774 0.8848114
vt 0.175376117 0.9614007
vt 0.229293242 0.9546857
vt 0.2721057 0.890596867
vt 0.481982678 0.930798
vt 0.4179061 0.9622081
vt 0.316971838 0.96004343
vt 0.106881827 0.9327905
vt 0.056410145 0.913300455
vt 0.25311175 0.924515247
vt 0.403552145 0.987483263
vt 0.452826053 0.14226532
vt 0.5409977 0.14226532
vt 0.540997744 0.101669014
vt 0.468995064 0.101669014
vt 0.5409977 0.215978146
vt 0.5162045 0.287849844
vt 0.548054457 0.279797316
vt 0.540997744 0.0644439459
vt 0.5191777 0.0281938314
vt 0.482047766 0.03439319
vt 0.5409977 0.182611227
vt 0.4556353 0.182611227
vt 0.4336393 0.226079166
vt 0.505258143 0.230468154
vt 0.540997744 0.03439319
vt 0.438839167 0.0531459451
vt 0.6517443 0.182611227
vt 0.6517443 0.14226532
vt 0.699161 0.0644439459
vt 0.699161 0.03439319
vt 0.6517445 0.03439319
vt 0.6517445 0.0644439459
vt 0.699161 0.182611227
vt 0.699161 0.14226532
vt 0.6517445 0.101669014
vt 0.699161 0.101669014
vt 0.6517443 0.215978146
vt 0.699161 0.215978146
vt 0.6517443 0.2441082
vt 0.699161 0.2441082
vt 0.8288726 0.142265439
vt 0.7208078 0.14226532
vt 0.7336196 0.182611227
vt 0.8288726 0.182611227
vt 0.736596 0.215978146
vt 0.8288726 0.215978146
vt 0.7208079 0.101669014
vt 0.82887274 0.101669073
vt 0.73086375 0.2441082
vt 0.8288726 0.244108319
vt 0.82887274 0.0644439459
vt 0.7208079 0.0644439459
vt 0.82887274 0.03439319
vt 0.7208079 0.03439319
vt 0.717063844 0.182611227
vt 0.716329336 0.215978146
vt 0.8791511 0.4641372
vt 0.838536441 0.5037765
vt 0.894314 0.50498575
vt 0.9231703 0.464137733
vt 0.818160653 0.464136243
vt 0.8181598 0.5037761
vt 0.922456563 0.505037367
vt 0.5263499 0.359909534
vt 0.589435756 0.379363537
vt 0.5894353 0.309168577
vt 0.5085361 0.309169173
vt 0.650269747 0.3793633
vt 0.655666769 0.30916822
vt 0.969684243 0.464138448
vt 0.9692183 0.5033135
vt 0.806203365 0.379362226
vt 0.8062029 0.309167266
vt 0.726762652 0.3091678
vt 0.7253296 0.379362822
vt 0.5201064 0.6382348
vt 0.6005911 0.637764633
vt 0.6358409 0.765382946
vt 0.5201024 0.7648596
vt 0.6000987 0.9777832
vt 0.520098448 0.9777832
vt 0.4146699 0.182611227
vt 0.413785547 0.1412965
vt 0.4254758 0.101669014
vt 0.130406216 0.9831381
vt 0.10501878 0.533268869
vt 0.232845724 0.5324175
vt 0.0233460255 0.533268869
vt 0.743813634 0.9365068
vt 0.7898077 0.869245052
vt 0.7871085 0.9330278
vt 0.835760236 0.874458551
vt 0.833198667 0.9383695
vt 0.8766146 0.9401202
vt 0.872985661 0.874239445
vt 0.926509 0.876942039
vt 0.9320955 0.940187454
vt 0.976755142 0.9419112
vt 0.971332848 0.869650066
vt 0.6535758 0.858914137
vt 0.680722535 0.9312414
vt 0.6398846 0.940900445
vt 0.7011228 0.9622136
vt 0.9330818 0.9696966
vt 0.800605357 0.9606211
vt 0.8743388 0.9609312
vt 0.874820232 0.980941534
vt 0.7011228 0.9622136
vt 0.680722535 0.9312414
vt 0.7120892 0.9319607
vt 0.674355447 0.8578921
vt 0.7151666 0.8612906
vt 0.7120892 0.9319607
vt 0.7575643 0.8642744
vt 0.863766253 0.5411244
vt 0.9001911 0.5411249
vt 0.9690538 0.541125834
vt 0.8184633 0.541123748
vt 0.0231773555 0.90167737
vt 0.02027189 0.353383362
vt 0.6135137 0.3998531
vt 0.6189864 0.5012564
vt 0.489020526 0.5074938
vt 0.489386082 0.3998531
vt 0.531193733 0.5790237
vt 0.6379839 0.578894556
vt 0.633406162 0.39985323
vt 0.638605535 0.498768449
vt 0.792418242 0.483983338
vt 0.788871169 0.5711086
vt 0.7143829 0.492957115
vt 0.7887201 0.399853945
vt 0.71439 0.3998537
vt 0.489020526 0.5074938
vt 0.6189864 0.5012564
vt 0.531193733 0.5790237
vt 0.6379839 0.578894556
vt 0.638605535 0.498768449
vt 0.792418242 0.483983338
vt 0.7143829 0.492957115
vt 0.788871169 0.5711086
vt 0.451119184 0.299321532
vt 0.238779753 0.07362449
vt 0.0783548 0.09031892
vt 0.159506768 0.07919741
vt 0.8573359 0.3126514
vt 0.972629845 0.310128748
vt 0.9726287 0.160856485
vt 0.8920841 0.160857081
vt 0.9003772 0.429547071
vt 0.9726307 0.4295466
vt 0.393188834 0.5381997
vt 0.366430849 0.6908513
vt 0.2864268 0.688155
vt 0.3033075 0.5344445
vt 0.2637671 0.6868616
vt 0.214824513 0.7840796
vt 0.212822884 0.6839596
vt 0.225099161 0.5836921
vt 0.286463231 0.759765446
vt 0.305591941 0.815705836
vt 0.262054622 0.7581716
vt 0.08042071 0.62583226
vt 0.151929811 0.687939465
vt 0.159496635 0.777442157
vt 0.07891615 0.758512259
vt 0.08186135 0.6872428
vt 0.203394458 0.843468964
vt 0.15793708 0.625481367
vt 0.0938903838 0.5767389
vt 0.085427314 0.8533006
vt 0.3523957 0.368070483
vt 0.235852033 0.365986
vt 0.24183473 0.474005878
vt 0.3597263 0.47594
vt 0.158887 0.367769122
vt 0.161702141 0.483427048
vt 0.0837545 0.368501544
vt 0.0994333252 0.484910727
vt 0.3494978 0.0826416
vt 0.3472861 0.25389874
vt 0.429547 0.251351774
vt 0.237744033 0.244065523
vt 0.159625083 0.24592042
vt 0.0306143984 0.2506231
vt 0.220413774 0.8848114
vt 0.147054613 0.8951006
vt 0.175376117 0.9614007
vt 0.229293242 0.9546857
vt 0.2721057 0.890596867
vt 0.4179061 0.9622081
vt 0.316971838 0.96004343
vt 0.106881827 0.9327905
vt 0.056410145 0.913300455
vt 0.25311175 0.924515247
vt 0.403552145 0.987483263
vt 0.452826053 0.14226532
vt 0.468995064 0.101669014
vt 0.540997744 0.101669014
vt 0.5409977 0.14226532
vt 0.5409977 0.215978146
vt 0.548054457 0.279797316
vt 0.5162045 0.287849844
vt 0.540997744 0.0644439459
vt 0.482047766 0.03439319
vt 0.5191777 0.0281938314
vt 0.4336393 0.226079166
vt 0.4556353 0.182611227
vt 0.5409977 0.182611227
vt 0.505258143 0.230468154
vt 0.540997744 0.03439319
vt 0.438839167 0.0531459451
vt 0.6517443 0.14226532
vt 0.6517443 0.182611227
vt 0.699161 0.0644439459
vt 0.6517445 0.0644439459
vt 0.6517445 0.03439319
vt 0.699161 0.03439319
vt 0.699161 0.14226532
vt 0.699161 0.182611227
vt 0.6517445 0.101669014
vt 0.699161 0.101669014
vt 0.699161 0.215978146
vt 0.6517443 0.215978146
vt 0.6517443 0.2441082
vt 0.699161 0.2441082
vt 0.8288726 0.142265439
vt 0.8288726 0.182611227
vt 0.7336196 0.182611227
vt 0.7208078 0.14226532
vt 0.8288726 0.215978146
vt 0.736596 0.215978146
vt 0.7208079 0.101669014
vt 0.82887274 0.101669073
vt 0.8288726 0.244108319
vt 0.73086375 0.2441082
vt 0.7208079 0.0644439459
vt 0.82887274 0.0644439459
vt 0.82887274 0.03439319
vt 0.7208079 0.03439319
vt 0.717063844 0.182611227
vt 0.716329336 0.215978146
vt 0.8791511 0.4641372
vt 0.9231703 0.464137733
vt 0.894314 0.50498575
vt 0.838536441 0.5037765
vt 0.922456563 0.505037367
vt 0.5263499 0.359909534
vt 0.5085361 0.309169173
vt 0.5894353 0.309168577
vt 0.589435756 0.379363537
vt 0.655666769 0.30916822
vt 0.650269747 0.3793633
vt 0.7253296 0.379362822
vt 0.726762652 0.3091678
vt 0.6358409 0.765382946
vt 0.6005911 0.637764633
vt 0.6000987 0.9777832
vt 0.4146699 0.182611227
vt 0.413785547 0.1412965
vt 0.4254758 0.101669014
vt 0.130406216 0.9831381
vt 0.10501878 0.533268869
vt 0.232845724 0.5324175
vt 0.7853902 0.608251333
vt 0.779049933 0.6625151
vt 0.8063323 0.6625151
vt 0.918046 0.6625151
vt 0.915636957 0.607747555
vt 0.8865892 0.607747555
vt 0.713703156 0.6625151
vt 0.7625796 0.6625151
vt 0.7111241 0.607747555
vt 0.8439226 0.6625151
vt 0.828786 0.607747555
vt 0.8788157 0.6625151
vt 0.851479769 0.607747555
vt 0.7602829 0.607747555
vt 0.743813634 0.9365068
vt 0.7871085 0.9330278
vt 0.7898077 0.869245052
vt 0.833198667 0.9383695
vt 0.835760236 0.874458551
vt 0.6669294 0.7856513
vt 0.6535758 0.858914137
vt 0.674355447 0.8578921
vt 0.718446255 0.785972
vt 0.7151666 0.8612906
vt 0.8766146 0.9401202
vt 0.9320955 0.940187454
vt 0.926509 0.876942039
vt 0.872985661 0.874239445
vt 0.9706209 0.7686274
vt 0.921194255 0.8037022
vt 0.971332848 0.869650066
vt 0.821879148 0.7564208
vt 0.766699851 0.7215377
vt 0.771600842 0.79054004
vt 0.82687515 0.8090878
vt 0.911398947 0.7626904
vt 0.8633336 0.757312
vt 0.870048 0.807673037
vt 0.7911954 0.714415
vt 0.818155766 0.714415
vt 0.7677843 0.714415
vt 0.8485506 0.714415
vt 0.8836375 0.714415
vt 0.919806838 0.714415
vt 0.8058463 0.7215377
vt 0.713687658 0.7215377
vt 0.9089723 0.7215377
vt 0.8580262 0.7215377
vt 0.967342257 0.7215377
vt 0.680722535 0.9312414
vt 0.7575643 0.8642744
vt 0.7134552 0.714415
vt 0.6699143 0.7215377
vt 0.800605357 0.9606211
vt 0.8743388 0.9609312
vt 0.7011228 0.9622136
vt 0.7120892 0.9319607
vt 0.680722535 0.9312414
vt 0.7120892 0.9319607
vt 0.863766253 0.5411244
vt 0.9001911 0.5411249
vt 0.6135137 0.3998531
vt 0.489386082 0.3998531
vt 0.489020526 0.5074938
vt 0.6189864 0.5012564
vt 0.531193733 0.5790237
vt 0.6379839 0.578894556
vt 0.638605535 0.498768449
vt 0.633406162 0.39985323
vt 0.792418242 0.483983338
vt 0.7143829 0.492957115
vt 0.788871169 0.5711086
vt 0.7887201 0.399853945
vt 0.71439 0.3998537
vt 0.6189864 0.5012564
vt 0.489020526 0.5074938
vt 0.531193733 0.5790237
vt 0.6379839 0.578894556
vt 0.638605535 0.498768449
vt 0.792418242 0.483983338
vt 0.788871169 0.5711086
vt 0.7143829 0.492957115
vt 0.451119184 0.299321532
vt 0.238779753 0.07362449
vt 0.159506768 0.07919741
vt 0.0783548 0.09031892
vt 0.8573359 0.3126514
vt 0.8920841 0.160857081
vt 0.9003772 0.429547071
vt 0.864643455 0.138030529
vt 0.9677086 0.138030529
vt 0.916386962 0.0782243
vt 0.864643455 0.0349653959
vt 0.9677086 0.0349653959
vt 0.7853902 0.608251333
vt 0.8063323 0.6625151
vt 0.779049933 0.6625151
vt 0.918046 0.6625151
vt 0.8865892 0.607747555
vt 0.915636957 0.607747555
vt 0.713703156 0.6625151
vt 0.7111241 0.607747555
vt 0.7625796 0.6625151
vt 0.828786 0.607747555
vt 0.8439226 0.6625151
vt 0.8788157 0.6625151
vt 0.851479769 0.607747555
vt 0.7602829 0.607747555
vt 0.6669294 0.7856513
vt 0.718446255 0.785972
vt 0.9706209 0.7686274
vt 0.921194255 0.8037022
vt 0.821879148 0.7564208
vt 0.82687515 0.8090878
vt 0.771600842 0.79054004
vt 0.766699851 0.7215377
vt 0.870048 0.807673037
vt 0.8633336 0.757312
vt 0.911398947 0.7626904
vt 0.818155766 0.714415
vt 0.7911954 0.714415
vt 0.7677843 0.714415
vt 0.8836375 0.714415
vt 0.8485506 0.714415
vt 0.919806838 0.714415
vt 0.8058463 0.7215377
vt 0.713687658 0.7215377
vt 0.8580262 0.7215377
vt 0.9089723 0.7215377
vt 0.967342257 0.7215377
vt 0.7134552 0.714415
vt 0.6699143 0.7215377
vn -0.477575064 0.10530737 -0.8722571
vn -0.869686067 0.137287453 -0.474129021
vn -0.6306699 -0.459845752 -0.625137866
vn -0.3762444 -0.297194868 -0.877562165
vn -0.927615941 -0.273342818 -0.254582763
vn -0.981939 -0.0953031555 0.1634414
vn -0.806821048 -0.252519459 0.534110248
vn -0.97527504 0.0402905121 0.217290878
vn 0.0432163 -0.64768976 -0.7606775
vn -0.143276662 0.256106824 -0.9559713
vn -0.18110162 -0.8907121 0.416934282
vn 0.009484258 0.02467439 -0.999650538
vn -0.005103219 -0.147650421 -0.9890264
vn 0.008753268 -0.0253420155 0.9996405
vn -0.3844016 -0.16182448 0.908871949
vn 0.00858870149 -0.129061222 0.991599441
vn -0.7888642 -0.164526865 0.5921353
vn -0.318071067 -0.079394564 0.9447366
vn -0.260161877 0.282796353 0.923223734
vn -0.7098878 0.218589887 0.6695355
vn 0.009476691 0.245289847 0.969403446
vn -0.657439351 0.238248408 0.7148505
vn -0.804154038 -0.243504748 0.5422561
vn -0.534674466 -0.09161425 0.8400774
vn -0.2995787 0.5591316 0.7730617
vn -0.008245511 0.1299895 -0.991481066
vn -0.5930507 0.120233446 0.7961374
vn -0.5386553 0.0597484149 0.840405047
vn -0.9437304 0.258835465 0.205857068
vn -0.9422662 0.278615117 0.18576315
vn 0.009132171 0.04047348 0.9991389
vn 0.00872021 -0.0431564972 0.9990303
vn -0.869686067 0.137287453 -0.474129021
vn -0.7758206 0.3384912 -0.532471657
vn -0.3924373 0.284655482 -0.874622345
vn -0.477575064 0.10530737 -0.8722571
vn -0.008245511 0.1299895 -0.991481066
vn -0.007514348 0.283531457 -0.9589335
vn -0.774394631 0.2326877 0.5883616
vn -0.3231036 0.180600315 0.928971231
vn -0.614169836 0.216181785 0.7589867
vn -0.942197859 0.290707052 0.166590959
vn -0.389413327 0.2685114 -0.881055534
vn -0.72911334 0.2814364 -0.623848736
vn 0.009360385 0.5503261 0.834897339
vn -0.548175931 0.548972 0.6309777
vn -0.645045459 0.4346996 0.628452539
vn -0.575515032 0.8159696 0.0545529053
vn -0.588333249 0.801695347 0.105586804
vn -0.466850877 0.639432847 -0.6108812
vn 0.000978551 0.201372951 -0.9795142
vn -0.5895944 0.4035746 -0.699647
vn -0.575515032 0.8159696 0.0545529053
vn -0.7167463 0.298251361 0.63033396
vn -0.274169058 0.366697669 0.889024258
vn -0.588333249 0.801695347 0.105586804
vn -0.880386 0.45938307 -0.117845975
vn -0.8319438 0.5349591 0.147269592
vn -0.912476361 0.397221833 0.09798847
vn -0.5812224 -0.00366172963 0.8137365
vn -0.6704568 -0.0133176669 0.741829038
vn 0.341522932 -0.275324523 -0.8986426
vn -0.18110162 -0.8907121 0.416934282
vn 0.8133341 -0.543398142 0.207860842
vn 0.170205325 -0.479818135 0.86070013
vn -0.18110162 -0.8907121 0.416934282
vn -0.806821048 -0.252519459 0.534110248
vn -0.5696093 0.424180359 -0.704000235
vn -0.5653168 0.463336676 -0.682448566
vn -0.143276662 0.256106824 -0.9559713
vn 0.0432163 -0.64768976 -0.7606775
vn 0.8133341 -0.543398142 0.207860842
vn -0.657439351 0.238248408 0.7148505
vn -0.537806034 0.474595338 -0.696795464
vn -0.897601247 0.437731415 0.05199289
vn 0.3146089 -0.43662113 0.84284234
vn 0.880209744 -0.4536704 -0.139333859
vn 0.835967362 -0.5442023 -0.0707275
vn 0.177539542 -0.561866939 0.8079513
vn -0.415276349 0.469481468 -0.7791872
vn -0.810676038 0.5787228 -0.08879357
vn -0.644386768 0.00757984165 0.7646622
vn -0.5962521 0.231972709 0.768551946
vn 0.36689654 -0.02159655 -0.930011034
vn 0.32721892 -0.0153506976 -0.944823861
vn 0.835967362 -0.5442023 -0.0707275
vn 0.880209744 -0.4536704 -0.139333859
vn -0.830274343 0.5526909 -0.07195346
vn -0.764044046 0.631207 0.133470759
vn -0.370904863 0.561995566 -0.7393176
vn -0.276589721 0.293533385 -0.9150608
vn 0.5533906 0.0514144 -0.831333458
vn 0.655546 -0.270632744 -0.704994559
vn -0.417643875 0.317043841 0.851502657
vn -0.492027581 0.2692709 0.8278901
vn 0.9147917 -0.402466863 0.0343013629
vn 0.8363625 -0.503452063 0.216872826
vn 0.311075419 -0.252979726 0.9160968
vn 0.4116861 -0.247377023 0.8771084
vn 0.8363625 -0.503452063 0.216872826
vn 0.9147917 -0.402466863 0.0343013629
vn -0.405588031 0.5800392 -0.706436753
vn 0.4515573 0.0551765971 -0.8905344
vn 0.8556688 0.3835394 -0.347460061
vn 0.5233779 0.131310746 -0.8419223
vn 0.9554361 0.292239875 -0.04168563
vn 0.783914566 0.341420382 0.518565357
vn -0.0009963146 0.162374556 -0.986728668
vn -0.008684809 0.0520909354 -0.9986046
vn 0.809469461 -0.006964261 0.587120652
vn -0.4516977 -0.1716397 0.875505
vn -0.8926218 -0.195639357 0.4061422
vn -0.7167463 0.298251361 0.63033396
vn -0.274169058 0.366697669 0.889024258
vn -0.9538007 -0.144502774 -0.263406962
vn -0.880386 0.45938307 -0.117845975
vn 0.0142229665 0.26440683 0.964306355
vn 0.008310267 -0.137669474 0.990443349
vn -0.008518745 0.09185578 -0.9957359
vn 0.000978551 0.201372951 -0.9795142
vn -0.5895944 0.4035746 -0.699647
vn -0.6791785 0.01624767 -0.7337933
vn -0.007915732 -0.0605481975 -0.9981339
vn 0.198616967 -0.00133682846 -0.980076253
vn 0.0966605 -0.054972928 -0.993798137
vn -0.01062577 -0.0879606456 -0.9960673
vn 0.137330666 -0.02459761 -0.9902198
vn -0.008985948 -0.0169396624 -0.9998161
vn -0.466850877 0.639432847 -0.6108812
vn -0.588333249 0.801695347 0.105586804
vn -0.645045459 0.4346996 0.628452539
vn -0.880386 0.45938307 -0.117845975
vn -0.5386553 0.0597484149 0.840405047
vn -0.9437304 0.258835465 0.205857068
vn 0.00872021 -0.0431564972 0.9990303
vn -0.803125143 0.09565829 -0.5880812
vn -0.9972041 0.07462593 -0.00386432512
vn -0.9720553 0.229765922 0.048126284
vn -0.8329731 -0.0241719279 0.5527852
vn -0.7615298 0.187969461 0.620274
vn 0.0203871839 -0.008142964 0.999759
vn 0.0171807483 -0.192813128 0.981085062
vn 0.7690785 -0.270038635 0.5793077
vn 0.253970563 -0.6980439 0.669502556
vn -0.0276981648 -0.8467937 -0.531199753
vn 0.975647569 -0.214153454 -0.04743563
vn 0.975647569 -0.214153454 -0.04743563
vn 0.34371978 -0.4315923 -0.8340173
vn -0.0276981648 -0.8467937 -0.531199753
vn 0.0030942962 -0.7780917 -0.628143
vn 0.06917745 -0.79929316 0.596946359
vn -0.63026756 0.395336658 0.6681854
vn -0.125171214 -0.133587122 0.983100533
vn 0.00245688367 -0.455715746 0.890122
vn 0.110870011 -0.804276943 -0.5838205
vn 0.110870011 -0.804276943 -0.5838205
vn 0.110870011 -0.804276943 -0.5838205
vn 0.703298569 -0.08830496 -0.7053888
vn 0.0208333191 -0.00596634252 -0.999765158
vn -0.194285989 -0.0442607626 -0.9799459
vn -0.7994517 0.0961200148 -0.592990637
vn 0.911501 -0.06621029 -0.4059337
vn 0.740987 -0.424051762 0.5206903
vn 0.00618006242 -0.469689548 0.88281
vn -0.008636021 0.0641307458 -0.9979041
vn 0.009363019 0.549192 0.8356437
vn 0.0086301975 0.310726 -0.9504604
vn -0.6256651 0.7653516 0.150930777
vn -0.495111167 0.270763755 0.8255616
vn -0.118186995 0.7686194 0.628693938
vn -0.0611794181 0.998089254 0.008657887
vn -0.08461056 0.364762783 0.9272482
vn -0.243291825 -0.006510631 0.9699313
vn -0.911129236 0.411814779 0.0158772524
vn -0.6475665 0.0601486526 0.759631336
vn -0.577688456 0.175653934 0.797133446
vn -0.334401518 -0.08655051 0.938448
vn -0.6036956 0.135388926 0.785634458
vn -0.7958525 0.600153863 0.08021329
vn -0.8346212 0.5484568 0.0510158651
vn -0.21708484 0.7367753 -0.6403408
vn -0.46845907 0.602602065 -0.64607805
vn -0.230425045 0.4067265 -0.884012341
vn -0.219850108 0.369537622 -0.9028332
vn -0.5107817 0.468396217 -0.7209071
vn -0.451053917 0.556063831 -0.698099852
vn -0.457779258 0.531144142 -0.712968469
vn -0.179258376 0.390982538 -0.902773
vn -0.185827285 0.1551583 0.97025466
vn -0.96908915 0.220001519 0.111649059
vn -0.4885622 0.139875531 -0.8612443
vn -0.8225862 0.2024861 -0.5313674
vn 0.267050475 -0.236253068 0.9342743
vn 0.00529593974 -0.273259 0.9619259
vn 0.005582309 -0.457673 0.889103055
vn 0.1985308 -0.417316675 0.8868102
vn 0.247961655 0.0115739387 0.9687007
vn 0.009721366 0.0162532311 0.99982065
vn 0.461041 0.100529641 -0.881666
vn 0.345580071 -0.2831424 -0.89465344
vn 0.551178157 -0.48678717 -0.677673161
vn 0.862226546 0.123773031 -0.491167665
vn 0.907211959 -0.280205071 -0.31377
vn 0.793637753 -0.250656426 0.5543559
vn 0.982934058 -0.101291873 0.153559759
vn 0.978693247 0.03123932 0.202937439
vn -0.105353437 -0.6201593 -0.7773693
vn 0.152213231 0.280782 -0.947624743
vn 0.185387671 -0.8739241 0.4493196
vn 0.398862332 -0.163650185 0.9022901
vn 0.798228741 -0.168554112 0.578290939
vn 0.7239804 0.210967526 0.6567686
vn 0.278511 0.280892164 0.918439567
vn 0.3342313 -0.08170047 0.938943267
vn 0.793796062 0.5022305 0.343004853
vn 0.811486363 -0.247690111 0.5292821
vn 0.5487276 -0.0947739 0.8306118
vn 0.314129919 0.557385743 0.768533349
vn 0.608363569 0.116599336 0.7850467
vn 0.9487373 0.268120766 0.167358011
vn 0.9490439 0.252144724 0.189046726
vn 0.5539057 0.05588617 0.8307016
vn 0.76505 0.31864053 -0.559613
vn 0.862226546 0.123773031 -0.491167665
vn 0.386856 0.248692214 -0.8879722
vn 0.461041 0.100529641 -0.881666
vn 0.7959377 0.21283944 0.566729665
vn 0.6405786 0.205779538 0.7398066
vn 0.345989943 0.18081592 0.920650065
vn 0.952069044 0.270877331 0.1420915
vn 0.6931176 0.2757382 -0.6660003
vn 0.326718777 0.241668135 -0.913702
vn 0.761066735 0.473353118 0.443524748
vn 0.592125654 0.537023962 0.6008265
vn 0.654886246 0.755569041 0.0154736312
vn 0.579072058 0.773763537 0.256837577
vn 0.47985822 0.6270901 -0.613591135
vn 0.5840109 0.359843731 -0.7276288
vn 0.654886246 0.755569041 0.0154736312
vn 0.7265006 0.297608554 0.6193756
vn 0.292501181 0.364694655 0.8839914
vn 0.579072058 0.773763537 0.256837577
vn 0.8871421 0.441923082 -0.1329768
vn 0.8109812 0.5678275 0.141001269
vn 0.6307553 -0.03318035 0.775272131
vn 0.6051363 -0.0121863848 0.7960286
vn 0.9168582 0.390754819 0.08174169
vn -0.3777294 -0.24876453 -0.8918726
vn -0.819906652 -0.5250049 0.228304431
vn 0.185387671 -0.8739241 0.4493196
vn -0.171644017 -0.477736622 0.861571848
vn 0.793637753 -0.250656426 0.5543559
vn 0.185387671 -0.8739241 0.4493196
vn 0.152213231 0.280782 -0.947624743
vn 0.535077035 0.497418642 -0.682837665
vn 0.541701853 0.4380766 -0.7173897
vn -0.105353437 -0.6201593 -0.7773693
vn -0.819906652 -0.5250049 0.228304431
vn 0.793796062 0.5022305 0.343004853
vn 0.9016121 0.430961549 0.0369837433
vn 0.527736 0.473195136 -0.705394268
vn -0.1823828 -0.557671368 0.80977726
vn -0.165121391 -0.5627299 0.809981465
vn -0.8404555 -0.539096951 -0.05485553
vn -0.886826456 -0.455405742 -0.0783863962
vn 0.796459854 0.602745354 -0.0484739728
vn 0.330222875 0.5989238 -0.729549944
vn 0.6586819 0.000264427654 0.752421439
vn 0.6355048 0.131788939 0.760766268
vn -0.456825256 0.09038918 -0.884952247
vn -0.385329127 -0.01688966 -0.922624648
vn -0.8404555 -0.539096951 -0.05485553
vn -0.886826456 -0.455405742 -0.0783863962
vn 0.862521 0.497340024 -0.09332992
vn 0.412140757 0.03471946 -0.910458446
vn 0.49733144 0.338279366 -0.798892
vn 0.7722626 0.6352606 -0.007383244
vn -0.5702022 -0.4350324 -0.696861744
vn -0.434006 -0.1601242 -0.886565864
vn 0.473317474 0.37359038 0.7977473
vn 0.391972 0.469545275 0.791129053
vn -0.88503325 -0.411304951 0.21804668
vn -0.9242277 -0.379711241 -0.04028051
vn -0.407268435 -0.303842157 0.861285269
vn -0.444096684 0.00532600656 0.895963
vn -0.88503325 -0.411304951 0.21804668
vn -0.9242277 -0.379711241 -0.04028051
vn 0.330330938 0.5438118 -0.771459758
vn -0.4116672 0.055954352 -0.909614861
vn -0.8474424 0.435144275 -0.304123133
vn -0.7538922 0.379072964 0.536609948
vn -0.945069432 0.3265616 -0.0141863674
vn -0.5329333 0.141607255 -0.834223866
vn -0.793916464 0.008877388 0.6079621
vn 0.465951741 -0.1748835 0.867355
vn 0.292501181 0.364694655 0.8839914
vn 0.7265006 0.297608554 0.6193756
vn 0.8861615 -0.2059166 0.415109783
vn 0.8871421 0.441923082 -0.1329768
vn 0.9071015 -0.211113691 -0.364139825
vn 0.632428646 -0.006652207 -0.77459
vn 0.5840109 0.359843731 -0.7276288
vn -0.116420224 -0.0537454337 -0.9917448
vn -0.214117378 -0.000809128571 -0.9768076
vn -0.155681491 -0.0232336186 -0.987534046
vn 0.47985822 0.6270901 -0.613591135
vn 0.579072058 0.773763537 0.256837577
vn 0.761066735 0.473353118 0.443524748
vn 0.8871421 0.441923082 -0.1329768
vn 0.5539057 0.05588617 0.8307016
vn 0.9490439 0.252144724 0.189046726
vn 0.9793124 -0.0830271244 -0.184536457
vn 0.84628 0.06210682 -0.5291058
vn 0.9325412 0.082286194 0.351562053
vn -0.9545669 0.0293615833 -0.2965468
vn -0.602351248 -0.108812764 -0.7907798
vn -0.9959123 -0.06712811 0.0604353771
vn -0.9545669 0.0293615833 -0.2965468
vn -0.0470344 0.100865632 -0.993787646
vn -0.602351248 -0.108812764 -0.7907798
vn 0.118800126 0.05758019 0.991247237
vn 0.623105168 0.0102150682 0.782071352
vn -0.783908069 -0.01698595 0.6206445
vn -0.5657152 0.0143338768 0.8244761
vn 0.473339856 -0.105983622 -0.8744809
vn 0.790745556 0.102023236 -0.6035832
vn 0.974527359 0.219402388 0.04646524
vn 0.997960746 0.05353717 -0.034758646
vn 0.7628713 0.163633332 0.625501
vn 0.849848866 -0.0361355431 0.525786161
vn -0.9604339 -0.068062745 -0.2700632
vn -0.9819745 -0.185866386 -0.0343485065
vn -0.720923543 -0.06756268 -0.689713359
vn -0.137058213 0.0879907757 -0.9866472
vn -0.0476788878 -0.00138136465 -0.9988618
vn -0.0122223552 -0.05929827 0.9981655
vn -0.00362218334 -0.7124761 0.7016871
vn -0.7653113 -0.250921667 0.59273684
vn 0.008372481 -0.189020529 0.981937468
vn -0.9604339 -0.068062745 -0.2700632
vn -0.817136645 -0.153745547 0.5555628
vn -0.9819745 -0.185866386 -0.0343485065
vn 0.916521668 -0.08894866 0.389969379
vn 0.868121 0.1741637 -0.464793354
vn 0.8858541 0.0591331869 -0.460180134
vn 0.9136088 -0.06724945 0.40099436
vn -0.836092353 -0.130227149 0.532907546
vn 0.0957324 -0.219210818 0.970969558
vn 0.0814694241 -0.173122182 0.981525064
vn 0.868121 0.1741637 -0.464793354
vn 0.915498555 0.0326601565 0.400993437
vn -0.146664 0.246017039 -0.958105
vn 0.0853150561 -0.2510077 0.9642181
vn -0.8776581 -0.202101648 0.434593081
vn -0.9595143 0.03080806 -0.279969841
vn 0.915498555 0.0326601565 0.400993437
vn -0.146664 0.246017039 -0.958105
vn -0.8776581 -0.202101648 0.434593081
vn 0.0853150561 -0.2510077 0.9642181
vn -0.9595143 0.03080806 -0.279969841
vn -0.3670935 -0.406759083 -0.836534142
vn 0.780522645 0.07661884 -0.6204143
vn -0.9595143 0.03080806 -0.279969841
vn -0.9595143 0.03080806 -0.279969841
vn 0.627375662 0.368171155 0.686184943
vn 0.192411944 -0.152972743 0.9693178
vn -0.135776028 -0.8185079 -0.5582201
vn -0.135776028 -0.8185079 -0.5582201
vn -0.135776028 -0.8185079 -0.5582201
vn 0.165335149 -0.005881594 -0.9862199
vn -0.9190123 -0.0597395338 -0.389676183
vn -0.7346013 -0.41883567 0.5337955
vn 0.642047048 0.753995538 0.1388031
vn 0.09167693 0.9957813 0.00386455981
vn 0.151344046 0.767467141 0.622968
vn 0.5140614 0.26339826 0.8163101
vn 0.110868625 0.364100575 0.9247372
vn 0.2617606 -0.009455647 0.9650865
vn 0.66136533 0.05552109 0.7480062
vn 0.9141562 0.405362 -0.0003337545
vn 0.59298265 0.171515018 0.786736369
vn 0.6184962 0.131068081 0.774779737
vn 0.350396454 -0.08897166 0.932366
vn 0.801374733 0.5945073 0.06602777
vn 0.8392521 0.5425395 0.0361497141
vn 0.483735442 0.6086191 -0.628953755
vn 0.230543852 0.7296387 -0.643798769
vn 0.220216826 0.475946039 -0.851457536
vn 0.2609964 0.43752867 -0.8604938
vn 0.549588144 0.474049 -0.6879175
vn 0.442503631 0.552905 -0.706035852
vn 0.2135003 0.3762309 -0.9015919
vn 0.485066 0.522107661 -0.7015088
vn 0.195983738 0.160660267 0.9673565
vn 0.9767242 0.196266368 0.08654124
vn 0.8130826 0.18358475 -0.552443
vn 0.4420568 0.139040992 -0.886145234
vn -0.2535913 -0.232055858 0.9390642
vn -0.185687825 -0.4139226 0.8911723
vn -0.2346746 0.0201530512 0.971865058
vn 0.105418243 -0.6197072 -0.777721
vn -0.09759662 -0.61986953 -0.778612
vn 0.00391236925 -0.5113994 -0.85933423
vn 0.1286901 -0.429087371 -0.8940486
vn -0.119254395 -0.428199351 -0.89578104
vn -0.985456049 -0.06065243 -0.15873757
vn -0.920816243 0.104725607 0.375672668
vn -0.858095 0.08139985 -0.506998062
vn 0.946891367 0.006176902 -0.321494222
vn 0.995308 -0.0902699158 0.0348341353
vn 0.579603 -0.12410859 -0.8053927
vn 0.946891367 0.006176902 -0.321494222
vn 0.579603 -0.12410859 -0.8053927
vn 0.0233070925 0.09816499 -0.9948972
vn -0.601350665 0.025575798 0.798575759
vn -0.09162474 0.0616248772 0.9938849
vn 0.7991977 -0.0347241536 0.600064456
vn 0.5869283 0.002215678 0.8096359
vn -0.4968832 -0.09635516 -0.8624516
vn 0.9504984 -0.08591497 -0.2986158
vn 0.116778657 0.105820179 -0.987504363
vn 0.9504984 -0.08591497 -0.2986158
vn 0.821784735 -0.188001767 0.5378896
vn -0.907880545 -0.06611847 0.413982242
vn -0.905611455 -0.0560627244 0.420386583
vn -0.892546833 0.0897494 -0.441933423
vn -0.875513554 0.194515139 -0.442312
vn -0.0614577159 -0.202446848 0.9773629
vn -0.07555158 -0.215415239 0.9735955
vn 0.84636265 -0.149682969 0.5111412
vn -0.9036359 0.05541366 0.424701571
vn -0.875513554 0.194515139 -0.442312
vn 0.127767131 0.2421361 -0.961792946
vn 0.8835838 -0.222719356 0.4119172
vn -0.06609417 -0.2475125 0.9666277
vn 0.9522959 0.00722528854 -0.305090576
vn -0.9036359 0.05541366 0.424701571
vn 0.127767131 0.2421361 -0.961792946
vn -0.06609417 -0.2475125 0.9666277
vn 0.8835838 -0.222719356 0.4119172
vn 0.9522959 0.00722528854 -0.305090576
vn 0.9522959 0.00722528854 -0.305090576
vn 0.9522959 0.00722528854 -0.305090576
usemtl 0003011002_part_0_material_0
f 1/1/1 2/2/2 3/3/3
f 3/3/3 4/4/4 1/1/1
f 5/5/5 6/6/6 7/7/7
f 6/6/6 5/5/5 8/8/8
f 9/9/9 10/10/10 4/4/4
f 5/5/5 7/7/7 11/11/11
f 5/5/5 11/11/11 9/9/9
f 10/10/10 12/12/12 13/13/13
f 13/13/13 4/4/4 10/10/10
f 14/14/14 15/15/15 16/16/16
f 17/17/17 18/18/18 19/19/19
f 19/19/19 20/20/20 17/17/17
f 19/19/19 18/18/18 14/14/14
f 14/14/14 21/21/21 19/19/19
f 18/18/18 17/17/17 15/15/15
f 20/20/20 22/22/22 7/7/7
f 23/23/23 8/8/8 24/24/24
f 20/20/20 19/19/19 25/25/25
f 3/3/3 9/9/9 4/4/4
f 6/6/6 23/23/23 17/17/17
f 7/7/7 6/6/6 17/17/17
f 17/17/17 20/20/20 7/7/7
f 24/24/24 16/16/16 15/15/15
f 23/23/23 15/15/15 17/17/17
f 1/1/1 4/4/4 13/13/13
f 13/13/13 26/26/26 1/1/1
f 27/27/27 28/28/28 29/29/29
f 29/29/29 30/30/30 27/27/27
f 28/28/28 27/27/27 31/31/31
f 31/31/31 32/32/32 28/28/28
f 30/30/30 29/29/29 33/33/33
f 33/33/33 34/34/34 30/30/30
f 35/35/35 36/36/36 37/37/37
f 37/37/37 38/38/38 35/35/35
f 36/36/36 35/35/35 34/34/34
f 34/34/34 33/33/33 36/36/36
f 39/39/39 40/40/40 41/41/41
f 30/30/30 42/42/42 41/41/41
f 41/41/41 27/27/27 30/30/30
f 34/34/34 35/35/35 43/43/43
f 43/43/43 44/44/44 34/34/34
f 34/34/34 44/44/44 42/42/42
f 42/42/42 30/30/30 34/34/34
f 19/19/19 21/21/21 45/45/45
f 45/45/45 25/25/25 19/19/19
f 15/15/15 23/23/23 24/24/24
f 15/15/15 14/14/14 18/18/18
f 6/6/6 8/8/8 23/23/23
f 22/22/22 46/46/46 47/47/47
f 25/25/25 46/46/46 22/22/22
f 22/22/22 20/20/20 25/25/25
f 48/48/48 49/49/49 47/47/47
f 48/48/48 47/47/47 46/46/46
f 12/12/12 10/10/10 50/50/50
f 50/50/50 51/51/51 12/12/12
f 52/52/52 50/50/50 53/53/53
f 54/54/54 46/46/46 25/25/25
f 25/25/25 55/55/55 54/54/54
f 53/53/53 50/50/50 56/56/56
f 57/57/57 52/52/52 53/53/53
f 54/54/54 48/48/48 46/46/46
f 50/50/50 52/52/52 51/51/51
f 58/58/58 59/59/59 60/60/60
f 60/60/60 61/61/61 58/58/58
f 62/62/62 63/63/63 64/64/64
f 60/60/60 65/65/65 61/61/61
f 65/65/65 66/66/66 67/67/67
f 62/62/62 68/68/68 69/69/69
f 69/69/69 70/70/70 62/62/62
f 68/68/68 59/59/59 58/58/58
f 58/58/58 69/69/69 68/68/68
f 71/71/71 62/62/62 70/70/70
f 62/62/62 71/71/71 63/63/63
f 66/66/66 65/65/65 72/72/72
f 65/65/65 67/67/67 61/61/61
f 67/67/67 73/73/73 61/61/61
f 68/68/68 74/74/74 75/75/75
f 75/75/75 59/59/59 68/68/68
f 76/76/76 77/77/77 78/78/78
f 78/78/78 79/79/79 76/76/76
f 79/79/79 78/78/78 72/72/72
f 72/72/72 65/65/65 79/79/79
f 75/75/75 74/74/74 80/80/80
f 80/80/80 81/81/81 75/75/75
f 82/82/82 83/83/83 76/76/76
f 76/76/76 79/79/79 82/82/82
f 74/74/74 84/84/84 85/85/85
f 85/85/85 80/80/80 74/74/74
f 86/86/86 87/87/87 85/85/85
f 85/85/85 84/84/84 86/86/86
f 75/75/75 81/81/81 83/83/83
f 83/83/83 82/82/82 75/75/75
f 68/68/68 62/62/62 84/84/84
f 84/84/84 74/74/74 68/68/68
f 84/84/84 62/62/62 64/64/64
f 64/64/64 86/86/86 84/84/84
f 82/82/82 60/60/60 59/59/59
f 59/59/59 75/75/75 82/82/82
f 79/79/79 65/65/65 60/60/60
f 60/60/60 82/82/82 79/79/79
f 88/88/88 89/89/89 90/90/90
f 90/90/90 91/91/91 88/88/88
f 91/91/91 90/90/90 92/92/92
f 92/92/92 93/93/93 91/91/91
f 94/94/94 89/89/89 88/88/88
f 88/88/88 95/95/95 94/94/94
f 93/93/93 92/92/92 96/96/96
f 96/96/96 97/97/97 93/93/93
f 94/94/94 95/95/95 98/98/98
f 98/98/98 99/99/99 94/94/94
f 100/100/100 101/101/101 99/99/99
f 99/99/99 98/98/98 100/100/100
f 80/80/80 102/102/102 89/89/89
f 89/89/89 81/81/81 80/80/80
f 85/85/85 103/103/103 102/102/102
f 102/102/102 80/80/80 85/85/85
f 87/87/87 96/96/96 103/103/103
f 103/103/103 85/85/85 87/87/87
f 76/76/76 83/83/83 94/94/94
f 94/94/94 99/99/99 76/76/76
f 94/94/94 83/83/83 81/81/81
f 81/81/81 89/89/89 94/94/94
f 90/90/90 89/89/89 102/102/102
f 103/103/103 92/92/92 90/90/90
f 90/90/90 102/102/102 103/103/103
f 77/77/77 76/76/76 99/99/99
f 99/99/99 101/101/101 77/77/77
f 92/92/92 103/103/103 96/96/96
f 104/104/104 105/105/105 106/106/106
f 106/106/106 107/107/107 104/104/104
f 105/105/105 104/104/104 108/108/108
f 108/108/108 109/109/109 105/105/105
f 106/106/106 110/110/110 107/107/107
f 111/111/111 112/112/112 113/113/113
f 113/113/113 114/114/114 111/111/111
f 112/112/112 115/115/115 116/116/116
f 116/116/116 113/113/113 112/112/112
f 117/117/117 107/107/107 110/110/110
f 110/110/110 118/118/118 117/117/117
f 119/119/119 120/120/120 121/121/121
f 121/121/121 122/122/122 119/119/119
f 123/123/123 124/124/124 125/125/125
f 125/125/125 126/126/126 123/123/123
f 127/127/127 128/128/128 126/126/126
f 126/126/126 125/125/125 127/127/127
f 129/129/129 69/69/69 58/58/58
f 58/58/58 130/130/130 129/129/129
f 129/129/129 70/70/70 69/69/69
f 73/73/73 131/131/131 61/61/61
f 58/58/58 61/61/61 131/131/131
f 131/131/131 130/130/130 58/58/58
f 48/48/48 54/54/54 132/132/132
f 133/133/133 24/24/24 8/8/8
f 8/8/8 134/134/134 133/133/133
f 135/135/135 16/16/16 24/24/24
f 24/24/24 133/133/133 135/135/135
f 136/136/136 137/137/137 138/138/138
f 137/137/137 139/139/139 140/140/140
f 140/140/140 138/138/138 137/137/137
f 141/141/141 142/142/142 143/143/143
f 143/143/143 144/144/144 141/141/141
f 145/145/145 144/144/144 143/143/143
f 143/143/143 146/146/146 145/145/145
f 147/147/147 148/148/148 149/149/149
f 141/141/141 140/140/140 139/139/139
f 139/139/139 142/142/142 141/141/141
f 148/148/148 150/150/150 149/149/149
f 145/145/145 151/151/151 144/144/144
f 138/138/138 140/140/140 152/152/152
f 144/144/144 153/153/153 141/141/141
f 151/151/151 153/153/153 144/144/144
f 153/153/153 151/151/151 154/154/154
f 152/152/152 140/140/140 141/141/141
f 141/141/141 153/153/153 152/152/152
f 155/155/155 156/156/156 157/157/157
f 147/147/147 158/158/158 148/148/148
f 159/159/159 160/160/160 148/148/148
f 148/148/148 158/158/158 159/159/159
f 136/136/136 160/160/160 159/159/159
f 159/159/159 161/161/161 136/136/136
f 161/161/161 137/137/137 136/136/136
f 162/162/162 106/106/106 105/105/105
f 110/110/110 106/106/106 162/162/162
f 162/162/162 163/163/163 110/110/110
f 118/118/118 110/110/110 163/163/163
f 163/163/163 164/164/164 118/118/118
f 105/105/105 109/109/109 165/165/165
f 165/165/165 162/162/162 105/105/105
f 116/116/116 115/115/115 122/122/122
f 122/122/122 121/121/121 116/116/116
f 25/25/25 45/45/45 166/166/166
f 166/166/166 55/55/55 25/25/25
f 38/38/38 167/167/167 35/35/35
f 168/168/168 169/169/169 170/170/170
f 170/170/170 171/171/171 168/168/168
f 172/172/172 170/170/170 169/169/169
f 169/169/169 173/173/173 172/172/172
f 169/169/169 168/168/168 174/174/174
f 174/174/174 175/175/175 169/169/169
f 176/176/176 177/177/177 178/178/178
f 179/179/179 176/176/176 178/178/178
f 178/178/178 180/180/180 179/179/179
f 174/174/174 180/180/180 178/178/178
f 178/178/178 175/175/175 174/174/174
f 178/178/178 177/177/177 173/173/173
f 173/173/173 175/175/175 178/178/178
f 169/169/169 175/175/175 173/173/173
f 168/168/168 171/171/171 181/181/181
f 181/181/181 182/182/182 168/168/168
f 183/183/183 184/184/184 182/182/182
f 182/182/182 181/181/181 183/183/183
f 182/182/182 185/185/185 174/174/174
f 174/174/174 168/168/168 182/182/182
f 186/186/186 187/187/187 188/188/188
f 179/179/179 180/180/180 187/187/187
f 187/187/187 186/186/186 179/179/179
f 174/174/174 185/185/185 187/187/187
f 187/187/187 180/180/180 174/174/174
f 187/187/187 185/185/185 184/184/184
f 184/184/184 188/188/188 187/187/187
f 182/182/182 184/184/184 185/185/185
f 189/189/189 31/31/31 27/27/27
f 40/40/40 189/189/189 27/27/27
f 41/41/41 40/40/40 27/27/27
f 39/39/39 41/41/41 42/42/42
f 42/42/42 190/190/190 39/39/39
f 44/44/44 43/43/43 191/191/191
f 191/191/191 192/192/192 44/44/44
f 190/190/190 42/42/42 44/44/44
f 44/44/44 192/192/192 190/190/190
f 193/193/193 194/194/194 195/195/195
f 195/195/195 196/196/196 193/193/193
f 194/194/194 193/193/193 197/197/197
f 197/197/197 198/198/198 194/194/194
f 35/35/35 167/167/167 43/43/43
f 9/9/9 3/3/3 5/5/5
f 5/5/5 3/3/3 2/2/2
f 2/2/2 8/8/8 5/5/5
f 2/2/2 134/134/134 8/8/8
f 199/199/199 200/200/200 201/201/201
f 201/201/201 202/202/202 199/199/199
f 203/203/203 204/204/204 205/205/205
f 205/205/205 206/206/206 203/203/203
f 207/207/207 200/200/200 208/208/208
f 203/203/203 209/209/209 204/204/204
f 203/203/203 207/207/207 209/209/209
f 208/208/208 200/200/200 13/13/13
f 13/13/13 12/12/12 208/208/208
f 14/14/14 16/16/16 210/210/210
f 211/211/211 212/212/212 213/213/213
f 213/213/213 214/214/214 211/211/211
f 213/213/213 21/21/21 14/14/14
f 14/14/14 214/214/214 213/213/213
f 214/214/214 210/210/210 211/211/211
f 212/212/212 204/204/204 215/215/215
f 216/216/216 217/217/217 206/206/206
f 212/212/212 218/218/218 213/213/213
f 201/201/201 200/200/200 207/207/207
f 205/205/205 211/211/211 216/216/216
f 204/204/204 212/212/212 211/211/211
f 211/211/211 205/205/205 204/204/204
f 217/217/217 210/210/210 16/16/16
f 216/216/216 211/211/211 210/210/210
f 199/199/199 26/26/26 13/13/13
f 13/13/13 200/200/200 199/199/199
f 219/219/219 220/220/220 221/221/221
f 221/221/221 222/222/222 219/219/219
f 222/222/222 32/32/32 31/31/31
f 31/31/31 219/219/219 222/222/222
f 220/220/220 223/223/223 224/224/224
f 224/224/224 221/221/221 220/220/220
f 225/225/225 38/38/38 37/37/37
f 37/37/37 226/226/226 225/225/225
f 226/226/226 224/224/224 223/223/223
f 223/223/223 225/225/225 226/226/226
f 227/227/227 228/228/228 229/229/229
f 220/220/220 219/219/219 228/228/228
f 228/228/228 230/230/230 220/220/220
f 223/223/223 231/231/231 232/232/232
f 232/232/232 225/225/225 223/223/223
f 223/223/223 220/220/220 230/230/230
f 230/230/230 231/231/231 223/223/223
f 213/213/213 218/218/218 45/45/45
f 45/45/45 21/21/21 213/213/213
f 210/210/210 217/217/217 216/216/216
f 210/210/210 214/214/214 14/14/14
f 205/205/205 216/216/216 206/206/206
f 215/215/215 233/233/233 234/234/234
f 218/218/218 212/212/212 215/215/215
f 215/215/215 234/234/234 218/218/218
f 235/235/235 233/233/233 236/236/236
f 235/235/235 234/234/234 233/233/233
f 12/12/12 51/51/51 237/237/237
f 237/237/237 208/208/208 12/12/12
f 238/238/238 239/239/239 237/237/237
f 240/240/240 241/241/241 218/218/218
f 218/218/218 234/234/234 240/240/240
f 239/239/239 242/242/242 237/237/237
f 243/243/243 239/239/239 238/238/238
f 240/240/240 234/234/234 235/235/235
f 237/237/237 51/51/51 238/238/238
f 244/244/244 245/245/245 246/246/246
f 246/246/246 247/247/247 244/244/244
f 248/248/248 249/249/249 250/250/250
f 246/246/246 245/245/245 251/251/251
f 251/251/251 252/252/252 253/253/253
f 248/248/248 254/254/254 255/255/255
f 255/255/255 256/256/256 248/248/248
f 256/256/256 255/255/255 244/244/244
f 244/244/244 247/247/247 256/256/256
f 257/257/257 254/254/254 248/248/248
f 248/248/248 250/250/250 257/257/257
f 253/253/253 258/258/258 251/251/251
f 251/251/251 245/245/245 252/252/252
f 252/252/252 245/245/245 259/259/259
f 256/256/256 247/247/247 260/260/260
f 260/260/260 261/261/261 256/256/256
f 262/262/262 263/263/263 264/264/264
f 264/264/264 265/265/265 262/262/262
f 263/263/263 251/251/251 258/258/258
f 258/258/258 264/264/264 263/263/263
f 260/260/260 266/266/266 267/267/267
f 267/267/267 261/261/261 260/260/260
f 268/268/268 263/263/263 262/262/262
f 262/262/262 269/269/269 268/268/268
f 261/261/261 267/267/267 270/270/270
f 270/270/270 271/271/271 261/261/261
f 272/272/272 271/271/271 270/270/270
f 270/270/270 273/273/273 272/272/272
f 260/260/260 268/268/268 269/269/269
f 269/269/269 266/266/266 260/260/260
f 256/256/256 261/261/261 271/271/271
f 271/271/271 248/248/248 256/256/256
f 271/271/271 272/272/272 249/249/249
f 249/249/249 248/248/248 271/271/271
f 268/268/268 260/260/260 247/247/247
f 247/247/247 246/246/246 268/268/268
f 263/263/263 268/268/268 246/246/246
f 246/246/246 251/251/251 263/263/263
f 274/274/274 275/275/275 276/276/276
f 276/276/276 277/277/277 274/274/274
f 275/275/275 278/278/278 279/279/279
f 279/279/279 276/276/276 275/275/275
f 280/280/280 281/281/281 274/274/274
f 274/274/274 277/277/277 280/280/280
f 278/278/278 282/282/282 283/283/283
f 283/283/283 279/279/279 278/278/278
f 280/280/280 284/284/284 285/285/285
f 285/285/285 281/281/281 280/280/280
f 286/286/286 285/285/285 284/284/284
f 284/284/284 287/287/287 286/286/286
f 267/267/267 266/266/266 277/277/277
f 277/277/277 288/288/288 267/267/267
f 270/270/270 267/267/267 288/288/288
f 288/288/288 289/289/289 270/270/270
f 273/273/273 270/270/270 289/289/289
f 289/289/289 283/283/283 273/273/273
f 262/262/262 284/284/284 280/280/280
f 280/280/280 269/269/269 262/262/262
f 280/280/280 277/277/277 266/266/266
f 266/266/266 269/269/269 280/280/280
f 276/276/276 288/288/288 277/277/277
f 289/289/289 288/288/288 276/276/276
f 276/276/276 279/279/279 289/289/289
f 265/265/265 287/287/287 284/284/284
f 284/284/284 262/262/262 265/265/265
f 279/279/279 283/283/283 289/289/289
f 290/290/290 291/291/291 292/292/292
f 292/292/292 293/293/293 290/290/290
f 293/293/293 109/109/109 108/108/108
f 108/108/108 290/290/290 293/293/293
f 292/292/292 291/291/291 294/294/294
f 295/295/295 296/296/296 297/297/297
f 297/297/297 298/298/298 295/295/295
f 298/298/298 297/297/297 299/299/299
f 299/299/299 300/300/300 298/298/298
f 117/117/117 118/118/118 294/294/294
f 294/294/294 291/291/291 117/117/117
f 119/119/119 301/301/301 302/302/302
f 302/302/302 120/120/120 119/119/119
f 123/123/123 126/126/126 303/303/303
f 303/303/303 304/304/304 123/123/123
f 305/305/305 303/303/303 126/126/126
f 126/126/126 128/128/128 305/305/305
f 306/306/306 307/307/307 244/244/244
f 244/244/244 255/255/255 306/306/306
f 306/306/306 255/255/255 254/254/254
f 259/259/259 245/245/245 308/308/308
f 244/244/244 307/307/307 308/308/308
f 308/308/308 245/245/245 244/244/244
f 235/235/235 309/309/309 240/240/240
f 310/310/310 311/311/311 206/206/206
f 206/206/206 217/217/217 310/310/310
f 135/135/135 310/310/310 217/217/217
f 217/217/217 16/16/16 135/135/135
f 312/312/312 313/313/313 314/314/314
f 315/315/315 316/316/316 317/317/317
f 318/318/318 319/319/319 320/320/320
f 314/314/314 321/321/321 322/322/322
f 323/323/323 315/315/315 317/317/317
f 317/317/317 324/324/324 323/323/323
f 312/312/312 325/325/325 313/313/313
f 326/326/326 327/327/327 328/328/328
f 328/328/328 327/327/327 329/329/329
f 329/329/329 330/330/330 328/328/328
f 331/331/331 332/332/332 333/333/333
f 334/334/334 331/331/331 333/333/333
f 333/333/333 335/335/335 334/334/334
f 336/336/336 337/337/337 338/338/338
f 338/338/338 339/339/339 336/336/336
f 340/340/340 341/341/341 338/338/338
f 338/338/338 342/342/342 340/340/340
f 145/145/145 342/342/342 338/338/338
f 338/338/338 337/337/337 145/145/145
f 343/343/343 344/344/344 345/345/345
f 345/345/345 346/346/346 343/343/343
f 341/341/341 347/347/347 348/348/348
f 348/348/348 349/349/349 341/341/341
f 341/341/341 340/340/340 347/347/347
f 314/314/314 313/313/313 350/350/350
f 350/350/350 351/351/351 314/314/314
f 350/350/350 313/313/313 319/319/319
f 319/319/319 352/352/352 350/350/350
f 321/321/321 353/353/353 354/354/354
f 354/354/354 323/323/323 321/321/321
f 355/355/355 315/315/315 323/323/323
f 323/323/323 354/354/354 355/355/355
f 344/344/344 343/343/343 356/356/356
f 357/357/357 334/334/334 345/345/345
f 345/345/345 344/344/344 357/357/357
f 348/348/348 347/347/347 358/358/358
f 358/358/358 359/359/359 348/348/348
f 340/340/340 360/360/360 358/358/358
f 358/358/358 347/347/347 340/340/340
f 328/328/328 330/330/330 346/346/346
f 346/346/346 345/345/345 328/328/328
f 346/346/346 330/330/330 339/339/339
f 339/339/339 349/349/349 346/346/346
f 332/332/332 149/149/149 361/361/361
f 345/345/345 362/362/362 328/328/328
f 336/336/336 339/339/339 330/330/330
f 330/330/330 329/329/329 336/336/336
f 349/349/349 348/348/348 343/343/343
f 343/343/343 346/346/346 349/349/349
f 351/351/351 353/353/353 321/321/321
f 321/321/321 314/314/314 351/351/351
f 343/343/343 348/348/348 359/359/359
f 359/359/359 356/356/356 343/343/343
f 349/349/349 339/339/339 338/338/338
f 338/338/338 341/341/341 349/349/349
f 334/334/334 335/335/335 362/362/362
f 362/362/362 345/345/345 334/334/334
f 352/352/352 319/319/319 318/318/318
f 318/318/318 363/363/363 352/352/352
f 334/334/334 357/357/357 364/364/364
f 364/364/364 331/331/331 334/334/334
f 319/319/319 313/313/313 325/325/325
f 319/319/319 325/325/325 320/320/320
f 321/321/321 323/323/323 324/324/324
f 321/321/321 324/324/324 322/322/322
f 314/314/314 322/322/322 312/312/312
f 361/361/361 149/149/149 150/150/150
f 145/145/145 337/337/337 151/151/151
f 327/327/327 365/365/365 329/329/329
f 337/337/337 336/336/336 366/366/366
f 151/151/151 337/337/337 366/366/366
f 366/366/366 154/154/154 151/151/151
f 365/365/365 366/366/366 336/336/336
f 336/336/336 329/329/329 365/365/365
f 367/367/367 368/368/368 369/369/369
f 332/332/332 361/361/361 333/333/333
f 335/335/335 333/333/333 361/361/361
f 361/361/361 370/370/370 335/335/335
f 326/326/326 362/362/362 335/335/335
f 335/335/335 370/370/370 326/326/326
f 362/362/362 326/326/326 328/328/328
f 371/371/371 293/293/293 292/292/292
f 294/294/294 372/372/372 371/371/371
f 371/371/371 292/292/292 294/294/294
f 118/118/118 164/164/164 372/372/372
f 372/372/372 294/294/294 118/118/118
f 293/293/293 371/371/371 165/165/165
f 165/165/165 109/109/109 293/293/293
f 299/299/299 302/302/302 301/301/301
f 301/301/301 300/300/300 299/299/299
f 218/218/218 241/241/241 166/166/166
f 166/166/166 45/45/45 218/218/218
f 38/38/38 225/225/225 167/167/167
f 373/373/373 374/374/374 375/375/375
f 375/375/375 376/376/376 373/373/373
f 377/377/377 378/378/378 376/376/376
f 376/376/376 375/375/375 377/377/377
f 376/376/376 379/379/379 380/380/380
f 380/380/380 373/373/373 376/376/376
f 381/381/381 382/382/382 383/383/383
f 384/384/384 385/385/385 382/382/382
f 382/382/382 381/381/381 384/384/384
f 380/380/380 379/379/379 382/382/382
f 382/382/382 385/385/385 380/380/380
f 382/382/382 379/379/379 378/378/378
f 378/378/378 383/383/383 382/382/382
f 376/376/376 378/378/378 379/379/379
f 373/373/373 386/386/386 387/387/387
f 387/387/387 374/374/374 373/373/373
f 388/388/388 387/387/387 386/386/386
f 386/386/386 389/389/389 388/388/388
f 386/386/386 373/373/373 380/380/380
f 380/380/380 390/390/390 386/386/386
f 391/391/391 392/392/392 393/393/393
f 384/384/384 391/391/391 393/393/393
f 393/393/393 385/385/385 384/384/384
f 380/380/380 385/385/385 393/393/393
f 393/393/393 390/390/390 380/380/380
f 393/393/393 392/392/392 389/389/389
f 389/389/389 390/390/390 393/393/393
f 386/386/386 390/390/390 389/389/389
f 219/219/219 31/31/31 394/394/394
f 219/219/219 394/394/394 229/229/229
f 228/228/228 219/219/219 229/229/229
f 227/227/227 395/395/395 230/230/230
f 230/230/230 228/228/228 227/227/227
f 231/231/231 396/396/396 397/397/397
f 397/397/397 232/232/232 231/231/231
f 395/395/395 396/396/396 231/231/231
f 231/231/231 230/230/230 395/395/395
f 398/398/398 399/399/399 195/195/195
f 195/195/195 194/194/194 398/398/398
f 194/194/194 198/198/198 400/400/400
f 400/400/400 398/398/398 194/194/194
f 225/225/225 232/232/232 167/167/167
f 207/207/207 203/203/203 201/201/201
f 203/203/203 206/206/206 202/202/202
f 202/202/202 201/201/201 203/203/203
f 202/202/202 206/206/206 311/311/311
f 401/401/401 402/402/402 403/403/403
f 401/401/401 403/403/403 404/404/404
f 404/404/404 403/403/403 405/405/405
f 403/403/403 402/402/402 405/405/405
f 406/406/406 407/407/407 408/408/408
f 409/409/409 410/410/410 411/411/411
f 412/412/412 413/413/413 414/414/414
f 407/407/407 415/415/415 416/416/416
f 417/417/417 418/418/418 410/410/410
f 410/410/410 409/409/409 417/417/417
f 406/406/406 408/408/408 419/419/419
f 420/420/420 158/158/158 147/147/147
f 421/421/421 159/159/159 158/158/158
f 158/158/158 420/420/420 421/421/421
f 422/422/422 146/146/146 143/143/143
f 143/143/143 423/423/423 422/422/422
f 424/424/424 425/425/425 426/426/426
f 426/426/426 427/427/427 424/424/424
f 423/423/423 428/428/428 429/429/429
f 429/429/429 430/430/430 423/423/423
f 423/423/423 430/430/430 422/422/422
f 407/407/407 431/431/431 432/432/432
f 432/432/432 408/408/408 407/407/407
f 432/432/432 433/433/433 414/414/414
f 414/414/414 408/408/408 432/432/432
f 416/416/416 417/417/417 434/434/434
f 434/434/434 435/435/435 416/416/416
f 436/436/436 434/434/434 417/417/417
f 417/417/417 409/409/409 436/436/436
f 427/427/427 437/437/437 424/424/424
f 438/438/438 427/427/427 426/426/426
f 426/426/426 421/421/421 438/438/438
f 429/429/429 439/439/439 440/440/440
f 440/440/440 430/430/430 429/429/429
f 422/422/422 430/430/430 440/440/440
f 440/440/440 441/441/441 422/422/422
f 137/137/137 426/426/426 425/425/425
f 425/425/425 139/139/139 137/137/137
f 425/425/425 428/428/428 142/142/142
f 142/142/142 139/139/139 425/425/425
f 426/426/426 137/137/137 161/161/161
f 428/428/428 425/425/425 424/424/424
f 424/424/424 429/429/429 428/428/428
f 431/431/431 407/407/407 416/416/416
f 416/416/416 435/435/435 431/431/431
f 424/424/424 437/437/437 439/439/439
f 439/439/439 429/429/429 424/424/424
f 428/428/428 423/423/423 143/143/143
f 143/143/143 142/142/142 428/428/428
f 421/421/421 426/426/426 161/161/161
f 161/161/161 159/159/159 421/421/421
f 433/433/433 442/442/442 412/412/412
f 412/412/412 414/414/414 433/433/433
f 421/421/421 420/420/420 443/443/443
f 443/443/443 438/438/438 421/421/421
f 414/414/414 419/419/419 408/408/408
f 414/414/414 413/413/413 419/419/419
f 416/416/416 418/418/418 417/417/417
f 416/416/416 415/415/415 418/418/418
f 407/407/407 406/406/406 415/415/415
