mtllib 0003011303.mtl
o 0003011303_part_0
v 0.249376044 0.6717948 -0.0253404453
v 0.258600652 0.623675168 -0.0110450126
v 0.3029752 0.6303028 -0.04945477
v 0.2643781 0.678417444 -0.0604770854
v 0.231515512 0.5969521 -0.0328655168
v 0.213772148 0.6393792 -0.05343559
v 0.220297635 0.638686 -0.08803822
v 0.275684565 0.6140655 -0.09652957
v 0.246111587 0.659517169 -0.09031239
v 0.213772148 0.6393792 -0.05343559
v 0.231515512 0.5969521 -0.0328655168
v 0.229703888 0.6615458 -0.022816129
v 0.223931611 0.574254155 0.000337485224
v 0.212275758 0.607854545 -0.0132604614
v 0.221658871 0.5986103 -0.07226361
v 0.2353306 0.5655623 -0.058732532
v 0.262150675 0.617301047 -0.117954507
v 0.2837252 0.5804804 -0.114198007
v 0.303476155 0.6086053 -0.009674173
v 0.266773283 0.5987898 0.0110484324
v 0.350650758 0.5263141 0.0292994864
v 0.243234381 0.5661182 0.0283517838
v 0.239259183 0.5050379 -0.00119535252
v 0.243234381 0.5661182 0.0283517838
v 0.223931611 0.574254155 0.000337485224
v 0.315847784 0.5964802 -0.102515563
v 0.3533031 0.5203059 -0.116242178
v 0.307161927 0.5112095 -0.124496482
v 0.303918123 0.497404724 0.01082056
v 0.314412028 0.4191771 0.034741573
v 0.364234924 0.480114639 0.0339755043
v 0.315890938 0.471786141 0.0210237354
v 0.3358128 0.410496175 0.0334620252
v 0.313852549 0.477143735 -0.117230222
v 0.302032053 0.4696643 -0.00828872249
v 0.246791735 0.5261657 0.0447120965
v 0.2494729 0.461601019 0.06298154
v 0.291233 0.477575541 0.06667654
v 0.2966963 0.5268616 0.0476571172
v 0.3225428 0.4175061 -0.000759597868
v 0.314412028 0.4191771 0.034741573
v 0.315890938 0.471786141 0.0210237354
v 0.33592248 0.4107671 0.0002632998
v 0.3358128 0.410496175 0.0334620252
v 0.276786685 0.449728847 0.03057338
v 0.296619534 0.497194529 0.0145937651
v 0.2494729 0.461601019 0.06298154
v 0.246791735 0.5261657 0.0447120965
v 0.276786685 0.449728847 0.03057338
v 0.291233 0.477575541 0.06667654
v 0.296619534 0.497194529 0.0145937651
v 0.328070462 0.609522045 -0.0706851557
v 0.374850631 0.525881648 -0.009488888
v 0.3805232 0.47685042 -0.000150663778
v 0.353821069 0.474948227 -0.110495023
v 0.303918123 0.497404724 0.01082056
v 0.292729765 0.415250659 -0.00319152512
v 0.318420768 0.404886842 -0.08879436
v 0.318420768 0.404886842 -0.08879436
v 0.318259925 0.405279756 -0.00332723185
v 0.318259925 0.405279756 -0.00332723185
v 0.302032053 0.4696643 -0.00828872249
v 0.318259925 0.405279756 -0.00332723185
v 0.3805232 0.47685042 -0.000150663778
v 0.292729765 0.415250659 -0.00319152512
v 0.33592248 0.4107671 0.0002632998
v 0.3225428 0.4175061 -0.000759597868
v 0.290218025 0.637423456 -0.101641059
v 0.25310576 0.6311478 -0.00212102756
v 0.212275758 0.607854545 -0.0132604614
v 0.296228439 0.6480159 -0.0455477424
v 0.322700828 0.61268574 -0.0362256132
v 0.301845044 0.646692753 -0.07525415
v 0.33592248 0.4107671 0.0002632998
v 0.238717541 0.664411962 -0.007768385
v 0.1958872 0.636640847 -0.0156347286
v 0.2788975 0.6707659 -0.103769675
v 0.276397139 0.6812415 -0.05109895
v 0.1958872 0.636640847 -0.0156347286
v 0.195836142 0.621343732 -0.08517788
v 0.247059867 0.6433202 -0.128470138
v 0.290218025 0.637423456 -0.101641059
v 0.262150675 0.617301047 -0.117954507
v 0.296228439 0.6480159 -0.0455477424
v 0.221658871 0.5986103 -0.07226361
v 0.212275758 0.607854545 -0.0132604614
v 0.2798057 0.6421174 -0.0225965045
v 0.25310576 0.6311478 -0.00212102756
v 0.2798057 0.6421174 -0.0225965045
v 0.301845044 0.646692753 -0.07525415
v -0.253320068 0.6756513 -0.02055927
v -0.307631046 0.634540737 -0.04371519
v -0.262629241 0.6275972 -0.00609921664
v -0.268896639 0.682382 -0.0554243326
v -0.236125529 0.600684643 -0.0283956528
v -0.2255946 0.6423417 -0.08376152
v -0.218450829 0.6429866 -0.049280297
v -0.281296223 0.618113935 -0.0912662446
v -0.251296967 0.663355 -0.0855781659
v -0.218450829 0.6429866 -0.049280297
v -0.236125529 0.600684643 -0.0283956528
v -0.233679131 0.665263355 -0.0183841027
v -0.2287944 0.5762017 0.004868161
v -0.2269587 0.6022756 -0.0679627
v -0.216464013 0.6114496 -0.009136096
v -0.241305321 0.568060935 -0.054055158
v -0.268122464 0.62125504 -0.112928391
v -0.289890528 0.5848292 -0.108821079
v -0.30718857 0.613398 -0.00398337469
v -0.356739 0.532755136 0.0354845375
v -0.270579934 0.602228165 0.0162135139
v -0.2479903 0.5686956 0.033130642
v -0.243951112 0.5088801 0.00340545364
v -0.2479903 0.5686956 0.033130642
v -0.2287944 0.5762017 0.004868161
v -0.361598432 0.5271857 -0.110017613
v -0.321256965 0.60194 -0.09666773
v -0.315929681 0.5164648 -0.118923515
v -0.311328262 0.5022367 0.0163102858
v -0.319058865 0.4235504 0.040676944
v -0.320409268 0.476169437 0.0269842111
v -0.3684555 0.484838665 0.0407920554
v -0.340539843 0.415021062 0.0397782475
v -0.307088524 0.473951519 -0.00256963633
v -0.32078892 0.4815211 -0.111284472
v -0.250517577 0.5300577 0.04943811
v -0.294904053 0.481781572 0.07219147
v -0.253330171 0.4655125 0.06775636
v -0.3003558 0.5311062 0.0532689765
v -0.319058865 0.4235504 0.040676944
v -0.3278305 0.421939135 0.00532588735
v -0.320409268 0.476169437 0.0269842111
v -0.341237217 0.415294826 0.0065866895
v -0.340539843 0.415021062 0.0397782475
v -0.301076 0.5014414 0.0202113576
v -0.281298459 0.453835726 0.03583919
v -0.250517577 0.5300577 0.04943811
v -0.253330171 0.4655125 0.06775636
v -0.294904053 0.481781572 0.07219147
v -0.281298459 0.453835726 0.03583919
v -0.301076 0.5014414 0.0202113576
v -0.3325679 0.615336 -0.06464797
v -0.381468028 0.5332788 -0.002967514
v -0.360646039 0.479607761 -0.103840314
v -0.385370016 0.481691778 0.0069607757
v -0.311328262 0.5022367 0.0163102858
v -0.298082054 0.419473171 0.00236497447
v -0.325362056 0.409296572 -0.0827674046
v -0.325362056 0.409296572 -0.0827674046
v -0.32368046 0.409683 0.00268336013
v -0.32368046 0.409683 0.00268336013
v -0.307088524 0.473951519 -0.00256963633
v -0.385370016 0.481691778 0.0069607757
v -0.32368046 0.409683 0.00268336013
v -0.298082054 0.419473171 0.00236497447
v -0.341237217 0.415294826 0.0065866895
v -0.3278305 0.421939135 0.00532588735
v -0.2957527 0.6415743 -0.09612027
v -0.256924 0.63503027 0.00272529013
v -0.216464013 0.6114496 -0.009136096
v -0.30069086 0.6522055 -0.03992973
v -0.326616883 0.6182252 -0.0302598886
v -0.30684343 0.6509239 -0.0695316046
v -0.341237217 0.415294826 0.0065866895
v -0.242403612 0.6681922 -0.00317882
v -0.199917108 0.640119553 -0.0118028894
v -0.284236342 0.674836 -0.09845172
v -0.2807269 0.6852904 -0.0458343774
v -0.201209381 0.6248268 -0.08133501
v -0.199917108 0.640119553 -0.0118028894
v -0.253037274 0.6471675 -0.123712018
v -0.2957527 0.6415743 -0.09612027
v -0.30069086 0.6522055 -0.03992973
v -0.268122464 0.62125504 -0.112928391
v -0.2269587 0.6022756 -0.0679627
v -0.216464013 0.6114496 -0.009136096
v -0.283905178 0.6461896 -0.0172734279
v -0.256924 0.63503027 0.00272529013
v -0.283905178 0.6461896 -0.0172734279
v -0.30684343 0.6509239 -0.0695316046
vt 0.480774164 0.9389669
vt 0.5436448 0.8223505
vt 0.4228277 0.8198756
vt 0.413414836 0.942806959
vt 0.161756918 0.8067204
vt 0.153299838 0.9367419
vt 0.248423055 0.9415486
vt 0.2930871 0.812177062
vt 0.29180032 0.940730155
vt 0.666837 0.964107156
vt 0.674063563 0.8338832
vt 0.54591614 0.9432427
vt 0.836149454 0.512566149
vt 0.836149454 0.631695151
vt 0.708469748 0.631695151
vt 0.708469748 0.512566149
vt 0.5929516 0.631695151
vt 0.5929516 0.512566149
vt 0.271375924 0.5125661
vt 0.195011362 0.512566149
vt 0.235944122 0.331241369
vt 0.9049987 0.447418928
vt 0.8568888 0.359712243
vt 0.06282299 0.4829595
vt 0.08373791 0.512566149
vt 0.495284349 0.512566149
vt 0.495284349 0.331241369
vt 0.574246 0.331241369
vt 0.8079851 0.265303075
vt 0.186714068 0.08234632
vt 0.255153626 0.195329547
vt 0.204473883 0.188688517
vt 0.243216127 0.06716019
vt 0.574246 0.255307436
vt 0.7124883 0.172733009
vt 0.0228547454 0.382570863
vt 0.0182760749 0.23406893
vt 0.0779767558 0.231304586
vt 0.117121957 0.3284706
vt 0.7113952 0.06844789
vt 0.7916421 0.06844789
vt 0.8037109 0.172733009
vt 0.710623 0.01576978
vt 0.791938543 0.01576978
vt 0.100074165 0.192909956
vt 0.156861573 0.266795754
vt 0.9695505 0.23406893
vt 0.9371928 0.371347547
vt 0.9036011 0.192909956
vt 0.9638966 0.181457162
vt 0.8367387 0.266795754
vt 0.421512425 0.5125661
vt 0.3114362 0.331241369
vt 0.311436236 0.19975692
vt 0.495284349 0.23052454
vt 0.187421545 0.265303075
vt 0.6731391 0.0682387948
vt 0.574246 0.135698915
vt 0.495284349 0.112233877
vt 0.3348119 0.0568641424
vt 0.6362795 0.0241584778
vt 0.923914135 0.6932858
vt 0.9262444 0.627432
vt 0.9828803 0.700402737
vt 0.90221256 0.6436068
vt 0.9243842 0.7570561
vt 0.9017382 0.742706656
vt 0.495284349 0.631695151
vt 0.195011362 0.631695151
vt 0.08373791 0.631695151
vt 0.347740531 0.631695151
vt 0.347740531 0.512566149
vt 0.421512485 0.631695151
vt 0.311789632 0.05398637
vt 0.195011362 0.7519507
vt 0.08373791 0.7519507
vt 0.495284349 0.7519507
vt 0.347740531 0.7519507
vt 0.836149454 0.7519507
vt 0.708469748 0.7519507
vt 0.5929516 0.7519507
vt 0.8600496 0.09648442
vt 0.851740062 0.0412516
vt 0.918758631 0.12788558
vt 0.918520153 0.0108069181
vt 0.9928461 0.0430796146
vt 0.271375954 0.631695151
vt 0.9820896 0.102511168
vt 0.9820896 0.102511168
vt 0.918758631 0.12788558
vt 0.480774164 0.9389669
vt 0.4228277 0.8198756
vt 0.5436448 0.8223505
vt 0.413414836 0.942806959
vt 0.161756918 0.8067204
vt 0.248423055 0.9415486
vt 0.153299838 0.9367419
vt 0.2930871 0.812177062
vt 0.29180032 0.940730155
vt 0.666837 0.964107156
vt 0.674063563 0.8338832
vt 0.54591614 0.9432427
vt 0.836149454 0.512566149
vt 0.708469748 0.631695151
vt 0.836149454 0.631695151
vt 0.708469748 0.512566149
vt 0.5929516 0.631695151
vt 0.5929516 0.512566149
vt 0.271375924 0.5125661
vt 0.235944122 0.331241369
vt 0.195011362 0.512566149
vt 0.9049987 0.447418928
vt 0.8568888 0.359712243
vt 0.06282299 0.4829595
vt 0.08373791 0.512566149
vt 0.495284349 0.331241369
vt 0.495284349 0.512566149
vt 0.574246 0.331241369
vt 0.8079851 0.265303075
vt 0.186714068 0.08234632
vt 0.204473883 0.188688517
vt 0.255153626 0.195329547
vt 0.243216127 0.06716019
vt 0.7124883 0.172733009
vt 0.574246 0.255307436
vt 0.0228547454 0.382570863
vt 0.0779767558 0.231304586
vt 0.0182760749 0.23406893
vt 0.117121957 0.3284706
vt 0.7916421 0.06844789
vt 0.7113952 0.06844789
vt 0.8037109 0.172733009
vt 0.710623 0.01576978
vt 0.791938543 0.01576978
vt 0.156861573 0.266795754
vt 0.100074165 0.192909956
vt 0.9371928 0.371347547
vt 0.9695505 0.23406893
vt 0.9638966 0.181457162
vt 0.9036011 0.192909956
vt 0.8367387 0.266795754
vt 0.421512425 0.5125661
vt 0.3114362 0.331241369
vt 0.495284349 0.23052454
vt 0.311436236 0.19975692
vt 0.187421545 0.265303075
vt 0.6731391 0.0682387948
vt 0.574246 0.135698915
vt 0.495284349 0.112233877
vt 0.3348119 0.0568641424
vt 0.6362795 0.0241584778
vt 0.923914135 0.6932858
vt 0.9828803 0.700402737
vt 0.9262444 0.627432
vt 0.90221256 0.6436068
vt 0.9243842 0.7570561
vt 0.9017382 0.742706656
vt 0.495284349 0.631695151
vt 0.195011362 0.631695151
vt 0.08373791 0.631695151
vt 0.347740531 0.631695151
vt 0.347740531 0.512566149
vt 0.421512485 0.631695151
vt 0.311789632 0.05398637
vt 0.195011362 0.7519507
vt 0.08373791 0.7519507
vt 0.495284349 0.7519507
vt 0.347740531 0.7519507
vt 0.708469748 0.7519507
vt 0.836149454 0.7519507
vt 0.5929516 0.7519507
vt 0.8600496 0.09648442
vt 0.918758631 0.12788558
vt 0.851740062 0.0412516
vt 0.918520153 0.0108069181
vt 0.9928461 0.0430796146
vt 0.271375954 0.631695151
vt 0.9820896 0.102511168
vt 0.9820896 0.102511168
vt 0.918758631 0.12788558
vn 0.416866034 0.4500913 0.789709151
vn -0.105965637 0.161360726 0.9811901
vn 0.829074144 0.558679163 0.0226645768
vn 0.766206741 0.627231956 -0.139668763
vn -0.88037324 -0.369329274 0.297554731
vn -0.9002208 -0.3505359 0.258315831
vn -0.5144228 -0.486054271 -0.706484556
vn 0.2470788 -0.0342315063 -0.9683906
vn 0.2955156 0.3156165 -0.9016966
vn -0.9002208 -0.3505359 0.258315831
vn -0.88037324 -0.369329274 0.297554731
vn -0.43584156 -0.05330576 0.89844346
vn -0.9077243 -0.0111598615 0.4194186
vn -0.871534646 0.0516698249 0.4876039
vn -0.8382988 -0.284784764 -0.464922339
vn -0.7723115 -0.5072213 -0.382441431
vn -0.256262153 0.0231995676 -0.966328859
vn -0.238871366 -0.0577369221 -0.969333231
vn 0.4784665 0.5702941 0.667708337
vn 0.012972082 0.4915396 0.8707586
vn 0.465996 0.2863845 0.8371569
vn -0.543387651 0.337181628 0.768790245
vn -0.7154107 -0.545558453 -0.436524361
vn -0.543387651 0.337181628 0.768790245
vn -0.9077243 -0.0111598615 0.4194186
vn 0.556044638 0.3681686 -0.7451619
vn 0.688114166 0.140485168 -0.711872756
vn -0.4370213 -0.218053147 -0.872619748
vn -0.540285647 -0.680174947 0.4954326
vn -0.649657 -0.442659318 0.618060231
vn 0.5026632 0.008298957 0.864442468
vn -0.632671535 0.09502472 0.7685682
vn 0.264978051 -0.7743359 0.574622035
vn -0.5382901 -0.284363151 -0.7933356
vn -0.986456037 0.00605114829 0.163914144
vn -0.6663668 0.222824708 0.7115507
vn -0.5751672 -0.54473114 0.610287368
vn 0.590390146 -0.228469908 0.774106562
vn 0.3574012 0.169110551 0.91851294
vn -0.5044622 -0.574188769 -0.6448451
vn -0.649657 -0.442659318 0.618060231
vn -0.632671535 0.09502472 0.7685682
vn 0.235407859 -0.7999698 -0.5519343
vn 0.264978051 -0.7743359 0.574622035
vn 0.211725652 -0.9290747 -0.303302526
vn 0.4937538 -0.8637819 -0.100439027
vn -0.5751672 -0.54473114 0.610287368
vn -0.6663668 0.222824708 0.7115507
vn 0.211725652 -0.9290747 -0.303302526
vn 0.590390146 -0.228469908 0.774106562
vn 0.4937538 -0.8637819 -0.100439027
vn 0.836697161 0.5113405 -0.196134612
vn 0.9302052 0.336329937 0.146970764
vn 0.973026633 -0.215371221 0.0826701745
vn 0.6940825 -0.306277126 -0.6514935
vn -0.540285647 -0.680174947 0.4954326
vn -0.7307652 -0.365928829 0.576262355
vn -0.05874841 -0.858952761 -0.5086736
vn -0.05874841 -0.858952761 -0.5086736
vn 0.227264851 -0.7705498 0.5954861
vn 0.227264851 -0.7705498 0.5954861
vn -0.986456037 0.00605114829 0.163914144
vn 0.227264851 -0.7705498 0.5954861
vn 0.973026633 -0.215371221 0.0826701745
vn -0.7307652 -0.365928829 0.576262355
vn 0.235407859 -0.7999698 -0.5519343
vn -0.5044622 -0.574188769 -0.6448451
vn 0.400540829 0.5778301 -0.7111114
vn -0.102138661 0.580029845 0.8081665
vn -0.871534646 0.0516698249 0.4876039
vn 0.473105878 0.8408783 0.2628584
vn 0.7459324 0.589176 0.310574442
vn 0.575029433 0.7954459 -0.191329435
vn 0.235407859 -0.7999698 -0.5519343
vn 0.184388489 0.278983563 0.9424272
vn -0.6300414 -0.299602419 0.716439962
vn 0.760403752 0.3628053 -0.538663566
vn 0.7346699 0.584769 0.343955457
vn -0.6300414 -0.299602419 0.716439962
vn -0.5502036 -0.7524354 -0.36210078
vn 0.08552117 -0.337074846 -0.937585533
vn 0.400540829 0.5778301 -0.7111114
vn -0.256262153 0.0231995676 -0.966328859
vn 0.473105878 0.8408783 0.2628584
vn -0.8382988 -0.284784764 -0.464922339
vn -0.871534646 0.0516698249 0.4876039
vn 0.268019617 0.789542735 0.552075863
vn -0.102138661 0.580029845 0.8081665
vn 0.268019617 0.789542735 0.552075863
vn 0.575029433 0.7954459 -0.191329435
vn -0.3995819 0.4529775 0.7969603
vn -0.824570835 0.5645244 0.0373508
vn 0.124513671 0.160546392 0.9791431
vn -0.7641136 0.632641137 -0.126077786
vn 0.8828864 -0.375561953 0.281895
vn 0.498344958 -0.489634454 -0.715479136
vn 0.902166247 -0.35690704 0.242308512
vn -0.264475077 -0.0324238576 -0.9638473
vn -0.309245646 0.317753583 -0.8963257
vn 0.902166247 -0.35690704 0.242308512
vn 0.8828864 -0.375561953 0.281895
vn 0.451342344 -0.0564416274 0.8905641
vn 0.9155668 -0.0240919441 0.4014436
vn 0.8286673 -0.2894701 -0.47908
vn 0.878908634 0.0432297364 0.475027144
vn 0.753840864 -0.5221992 -0.398788065
vn 0.239815474 0.0214853659 -0.9705807
vn 0.227492675 -0.06498133 -0.971609235
vn -0.4509969 0.5804965 0.677956939
vn -0.457114279 0.29475224 0.839147
vn 0.01875538 0.48762393 0.8728523
vn 0.5585306 0.3355543 0.7585822
vn 0.707177639 -0.5495057 -0.444908172
vn 0.5585306 0.3355543 0.7585822
vn 0.9155668 -0.0240919441 0.4014436
vn -0.702037 0.144312188 -0.6973651
vn -0.556604564 0.382291317 -0.7375939
vn 0.41047743 -0.21152398 -0.886998236
vn 0.5724923 -0.6337047 0.5202604
vn 0.657386661 -0.447279036 0.606452167
vn 0.65626353 0.116750956 0.7454444
vn -0.478772074 0.00183456286 0.8779373
vn -0.26019755 -0.7724791 0.5792869
vn 0.9875717 0.043543417 0.151016727
vn 0.53821224 -0.2706556 -0.7981686
vn 0.682668567 0.227736712 0.6943339
vn -0.5781481 -0.224339113 0.784485
vn 0.5820506 -0.5488215 0.600010037
vn -0.3368473 0.168305546 0.9263947
vn 0.657386661 -0.447279036 0.606452167
vn 0.488858134 -0.577699959 -0.6536669
vn 0.65626353 0.116750956 0.7454444
vn -0.2508224 -0.7982515 -0.5476154
vn -0.26019755 -0.7724791 0.5792869
vn -0.494930565 -0.856905758 -0.144070372
vn -0.223641351 -0.927535951 -0.299435467
vn 0.682668567 0.227736712 0.6943339
vn 0.5820506 -0.5488215 0.600010037
vn -0.5781481 -0.224339113 0.784485
vn -0.223641351 -0.927535951 -0.299435467
vn -0.494930565 -0.856905758 -0.144070372
vn -0.8269955 0.531924963 -0.182028264
vn -0.9279602 0.3346442 0.16402173
vn -0.701155066 -0.316106379 -0.6391074
vn -0.968282461 -0.228181913 0.101794221
vn 0.5724923 -0.6337047 0.5202604
vn 0.7382799 -0.371121824 0.563215256
vn 0.0436307937 -0.8593148 -0.509582639
vn 0.0436307937 -0.8593148 -0.509582639
vn -0.222094074 -0.768961 0.5994774
vn -0.222094074 -0.768961 0.5994774
vn 0.9875717 0.043543417 0.151016727
vn -0.968282461 -0.228181913 0.101794221
vn -0.222094074 -0.768961 0.5994774
vn 0.7382799 -0.371121824 0.563215256
vn -0.2508224 -0.7982515 -0.5476154
vn 0.488858134 -0.577699959 -0.6536669
vn -0.4071878 0.5823093 -0.7036434
vn 0.119897142 0.5773679 0.807633
vn 0.878908634 0.0432297364 0.475027144
vn -0.4606271 0.845209062 0.271006167
vn -0.725161 0.607051253 0.325008184
vn -0.570764542 0.8008576 -0.181259319
vn -0.2508224 -0.7982515 -0.5476154
vn -0.165644228 0.280221075 0.9455359
vn 0.640533268 -0.30409357 0.7051555
vn -0.7672671 0.3682054 -0.5250962
vn -0.7242928 0.589926362 0.356912822
vn 0.5383529 -0.7562832 -0.3717685
vn 0.640533268 -0.30409357 0.7051555
vn -0.104540668 -0.3364031 -0.9358975
vn -0.4071878 0.5823093 -0.7036434
vn -0.4606271 0.845209062 0.271006167
vn 0.239815474 0.0214853659 -0.9705807
vn 0.8286673 -0.2894701 -0.47908
vn 0.878908634 0.0432297364 0.475027144
vn -0.251800746 0.7913659 0.5570784
vn 0.119897142 0.5773679 0.807633
vn -0.251800746 0.7913659 0.5570784
vn -0.570764542 0.8008576 -0.181259319
usemtl 0003011303_part_0_material_0
f 1/1/1 2/2/2 3/3/3
f 3/3/3 4/4/4 1/1/1
f 5/5/5 6/6/6 7/7/7
f 7/7/7 8/8/8 5/5/5
f 7/7/7 9/9/9 8/8/8
f 10/10/10 11/11/11 2/2/2
f 2/2/2 12/12/12 10/10/10
f 12/12/12 2/2/2 1/1/1
f 8/8/8 9/9/9 4/4/4
f 4/4/4 3/3/3 8/8/8
f 13/13/13 14/14/14 15/15/15
f 15/15/15 16/16/16 13/13/13
f 16/16/16 15/15/15 17/17/17
f 17/17/17 18/18/18 16/16/16
f 19/19/19 20/20/20 21/21/21
f 22/22/22 13/13/13 23/23/23
f 24/24/24 20/20/20 25/25/25
f 18/18/18 26/26/26 27/27/27
f 27/27/27 28/28/28 18/18/18
f 29/29/29 16/16/16 28/28/28
f 30/30/30 31/31/31 32/32/32
f 31/31/31 30/30/30 33/33/33
f 28/28/28 34/34/34 35/35/35
f 35/35/35 29/29/29 28/28/28
f 36/36/36 37/37/37 38/38/38
f 38/38/38 39/39/39 36/36/36
f 35/35/35 40/40/40 41/41/41
f 41/41/41 42/42/42 35/35/35
f 41/41/41 40/40/40 43/43/43
f 43/43/43 44/44/44 41/41/41
f 38/38/38 45/45/45 46/46/46
f 46/46/46 39/39/39 38/38/38
f 23/23/23 47/47/47 48/48/48
f 47/47/47 49/49/49 50/50/50
f 24/24/24 36/36/36 39/39/39
f 48/48/48 22/22/22 23/23/23
f 16/16/16 29/29/29 23/23/23
f 51/51/51 49/49/49 23/23/23
f 23/23/23 49/49/49 47/47/47
f 27/27/27 26/26/26 52/52/52
f 52/52/52 53/53/53 27/27/27
f 53/53/53 54/54/54 55/55/55
f 55/55/55 27/27/27 53/53/53
f 28/28/28 27/27/27 55/55/55
f 55/55/55 34/34/34 28/28/28
f 21/21/21 56/56/56 32/32/32
f 32/32/32 31/31/31 21/21/21
f 53/53/53 21/21/21 31/31/31
f 31/31/31 54/54/54 53/53/53
f 57/57/57 35/35/35 34/34/34
f 34/34/34 58/58/58 57/57/57
f 42/42/42 29/29/29 35/35/35
f 59/59/59 34/34/34 55/55/55
f 60/60/60 59/59/59 55/55/55
f 55/55/55 54/54/54 60/60/60
f 61/61/61 57/57/57 58/58/58
f 62/62/62 63/63/63 64/64/64
f 65/65/65 63/63/63 62/62/62
f 66/66/66 62/62/62 64/64/64
f 67/67/67 62/62/62 66/66/66
f 18/18/18 28/28/28 16/16/16
f 39/39/39 46/46/46 56/56/56
f 56/56/56 21/21/21 39/39/39
f 29/29/29 51/51/51 23/23/23
f 26/26/26 18/18/18 17/17/17
f 17/17/17 68/68/68 26/26/26
f 25/25/25 20/20/20 69/69/69
f 69/69/69 70/70/70 25/25/25
f 71/71/71 72/72/72 52/52/52
f 26/26/26 68/68/68 73/73/73
f 33/33/33 74/74/74 54/54/54
f 54/54/54 31/31/31 33/33/33
f 20/20/20 39/39/39 21/21/21
f 75/75/75 76/76/76 70/70/70
f 70/70/70 69/69/69 75/75/75
f 77/77/77 73/73/73 68/68/68
f 73/73/73 77/77/77 78/78/78
f 14/14/14 79/79/79 80/80/80
f 80/80/80 15/15/15 14/14/14
f 15/15/15 80/80/80 81/81/81
f 81/81/81 17/17/17 15/15/15
f 68/68/68 17/17/17 81/81/81
f 81/81/81 77/77/77 68/68/68
f 82/82/82 83/83/83 84/84/84
f 85/85/85 86/86/86 84/84/84
f 83/83/83 85/85/85 84/84/84
f 21/21/21 53/53/53 19/19/19
f 20/20/20 19/19/19 87/87/87
f 87/87/87 69/69/69 20/20/20
f 87/87/87 78/78/78 75/75/75
f 75/75/75 69/69/69 87/87/87
f 24/24/24 39/39/39 20/20/20
f 84/84/84 86/86/86 88/88/88
f 13/13/13 16/16/16 23/23/23
f 26/26/26 73/73/73 52/52/52
f 78/78/78 71/71/71 73/73/73
f 52/52/52 73/73/73 71/71/71
f 53/53/53 52/52/52 72/72/72
f 19/19/19 72/72/72 71/71/71
f 72/72/72 19/19/19 53/53/53
f 71/71/71 87/87/87 19/19/19
f 78/78/78 87/87/87 71/71/71
f 84/84/84 88/88/88 89/89/89
f 82/82/82 84/84/84 90/90/90
f 91/91/91 92/92/92 93/93/93
f 92/92/92 91/91/91 94/94/94
f 95/95/95 96/96/96 97/97/97
f 96/96/96 95/95/95 98/98/98
f 96/96/96 98/98/98 99/99/99
f 100/100/100 93/93/93 101/101/101
f 93/93/93 100/100/100 102/102/102
f 102/102/102 91/91/91 93/93/93
f 98/98/98 94/94/94 99/99/99
f 94/94/94 98/98/98 92/92/92
f 103/103/103 104/104/104 105/105/105
f 104/104/104 103/103/103 106/106/106
f 106/106/106 107/107/107 104/104/104
f 107/107/107 106/106/106 108/108/108
f 109/109/109 110/110/110 111/111/111
f 112/112/112 113/113/113 103/103/103
f 114/114/114 115/115/115 111/111/111
f 108/108/108 116/116/116 117/117/117
f 116/116/116 108/108/108 118/118/118
f 119/119/119 118/118/118 106/106/106
f 120/120/120 121/121/121 122/122/122
f 122/122/122 123/123/123 120/120/120
f 118/118/118 124/124/124 125/125/125
f 124/124/124 118/118/118 119/119/119
f 126/126/126 127/127/127 128/128/128
f 127/127/127 126/126/126 129/129/129
f 124/124/124 130/130/130 131/131/131
f 130/130/130 124/124/124 132/132/132
f 130/130/130 133/133/133 131/131/131
f 133/133/133 130/130/130 134/134/134
f 127/127/127 135/135/135 136/136/136
f 135/135/135 127/127/127 129/129/129
f 113/113/113 137/137/137 138/138/138
f 138/138/138 139/139/139 140/140/140
f 114/114/114 129/129/129 126/126/126
f 137/137/137 113/113/113 112/112/112
f 106/106/106 113/113/113 119/119/119
f 141/141/141 113/113/113 140/140/140
f 113/113/113 138/138/138 140/140/140
f 116/116/116 142/142/142 117/117/117
f 142/142/142 116/116/116 143/143/143
f 143/143/143 144/144/144 145/145/145
f 144/144/144 143/143/143 116/116/116
f 118/118/118 144/144/144 116/116/116
f 144/144/144 118/118/118 125/125/125
f 110/110/110 121/121/121 146/146/146
f 121/121/121 110/110/110 122/122/122
f 143/143/143 122/122/122 110/110/110
f 122/122/122 143/143/143 145/145/145
f 147/147/147 125/125/125 124/124/124
f 125/125/125 147/147/147 148/148/148
f 132/132/132 124/124/124 119/119/119
f 149/149/149 144/144/144 125/125/125
f 150/150/150 144/144/144 149/149/149
f 144/144/144 150/150/150 145/145/145
f 151/151/151 148/148/148 147/147/147
f 152/152/152 153/153/153 154/154/154
f 155/155/155 152/152/152 154/154/154
f 156/156/156 153/153/153 152/152/152
f 157/157/157 156/156/156 152/152/152
f 108/108/108 106/106/106 118/118/118
f 129/129/129 146/146/146 135/135/135
f 146/146/146 129/129/129 110/110/110
f 119/119/119 113/113/113 141/141/141
f 117/117/117 107/107/107 108/108/108
f 107/107/107 117/117/117 158/158/158
f 115/115/115 159/159/159 111/111/111
f 159/159/159 115/115/115 160/160/160
f 161/161/161 142/142/142 162/162/162
f 117/117/117 163/163/163 158/158/158
f 123/123/123 145/145/145 164/164/164
f 145/145/145 123/123/123 122/122/122
f 111/111/111 110/110/110 129/129/129
f 165/165/165 160/160/160 166/166/166
f 160/160/160 165/165/165 159/159/159
f 167/167/167 158/158/158 163/163/163
f 163/163/163 168/168/168 167/167/167
f 105/105/105 169/169/169 170/170/170
f 169/169/169 105/105/105 104/104/104
f 104/104/104 171/171/171 169/169/169
f 171/171/171 104/104/104 107/107/107
f 158/158/158 171/171/171 107/107/107
f 171/171/171 158/158/158 167/167/167
f 172/172/172 173/173/173 174/174/174
f 175/175/175 173/173/173 176/176/176
f 174/174/174 173/173/173 175/175/175
f 110/110/110 109/109/109 143/143/143
f 111/111/111 177/177/177 109/109/109
f 177/177/177 111/111/111 159/159/159
f 177/177/177 165/165/165 168/168/168
f 165/165/165 177/177/177 159/159/159
f 114/114/114 111/111/111 129/129/129
f 173/173/173 178/178/178 176/176/176
f 103/103/103 113/113/113 106/106/106
f 117/117/117 142/142/142 163/163/163
f 168/168/168 163/163/163 161/161/161
f 142/142/142 161/161/161 163/163/163
f 143/143/143 162/162/162 142/142/142
f 109/109/109 161/161/161 162/162/162
f 162/162/162 143/143/143 109/109/109
f 161/161/161 109/109/109 177/177/177
f 168/168/168 161/161/161 177/177/177
f 173/173/173 179/179/179 178/178/178
f 172/172/172 180/180/180 173/173/173
