mtllib 0111000000.mtl
o 0111000000_part_0
v -1.16415322E-09 1.88635921 0.024517158
v -1.16415322E-09 1.8606472 0.124072984
v 0.08530842 1.8606472 0.10774529
v 0.05818735 1.89507627 0.042846486
v 0.110507585 1.87200928 0.0286058858
v 0.06784236 1.929499 -0.0241462942
v 0.08163109 1.88481331 -0.0161036085
v -1.16415322E-09 1.88635921 0.024517158
v -0.0210984461 1.95819211 -0.00686380826
v 0.04036515 1.853704 -0.0587576777
v -1.16415322E-09 1.90286553 -0.117718689
v -1.81502668E-09 1.77143109 0.198398829
v 0.105543785 1.77143109 0.170118436
v 0.190737411 1.72923553 0.107745267
v 0.185382947 1.81849754 -0.0456320122
v 0.211087525 1.76266932 -0.005881848
v 0.165966213 1.73618019 -0.0346001536
v 0.08163109 1.88481331 -0.0161036085
v 0.140936047 1.859142 -0.027521031
v 0.0802557543 1.75295866 -0.158290029
v -1.16415322E-09 1.79338026 -0.246197119
v -1.16415322E-09 1.835354 -0.115704231
v -1.81502668E-09 1.64955962 0.2310542
v 0.121871479 1.64955962 0.1983988
v 0.211087555 1.64955962 0.124072947
v 0.282247722 1.68764794 -0.08523846
v 0.236217812 1.634907 -0.0298192743
v 0.285103977 1.76868594 -0.09937369
v 0.21108751 1.65263343 -0.06511131
v 0.165966213 1.73618019 -0.0346001536
v 0.125779226 1.6436913 -0.235896841
v 0.21108751 1.65263343 -0.06511131
v 0.0671686 1.64261639 -0.19631505
v -1.16415322E-09 1.73130369 -0.190846726
v -1.16415322E-09 1.52768815 0.215157568
v 0.105543785 1.52768815 0.180295438
v 0.182807177 1.52768815 0.107745267
v 0.247386634 1.53784156 -0.07651438
v 0.204045862 1.511215 -0.004216671
v 0.2432858 1.56665385 -0.059369497
v 0.182807148 1.53403223 -0.04236441
v 0.282939076 1.58093882 -0.09790172
v 0.182807148 1.53403223 -0.04236441
v 0.105543733 1.52074492 -0.158290029
v 0.11349646 1.580105 -0.172064587
v 0.020952 1.514132 -0.178889483
v 0.020952 1.514132 -0.178889483
v -1.16415322E-09 1.438472 0.124072969
v 0.060935732 1.438472 0.10774529
v 0.105543762 1.438472 0.06313724
v 0.121871434 1.43152881 0.0245171376
v 0.194216415 1.48063648 -0.0797112
v 0.10533981 1.43152881 -0.04931447
v 0.194216415 1.48063648 -0.0797112
v 0.10533981 1.43152881 -0.04931447
v 0.192080513 1.21820092 0.211493567
v 0.187390208 1.28872621 0.185859248
v 0.150480419 1.238587 0.18342939
v 0.109008446 1.44202328 -0.0887635
v 0.06420026 1.42630935 -0.0612741932
v -1.16415322E-09 1.43152881 -0.09735428
v -1.16415322E-09 1.39887357 0.024517158
v -1.16415322E-09 1.39887357 0.024517158
v 0.247386634 1.53784156 -0.07651438
v 0.285103977 1.76868594 -0.09937369
v -1.16415322E-09 1.63373816 -0.239052609
v 0.171099931 1.98612237 -0.0725357756
v 0.1088456 1.94124281 -0.0392446369
v 0.140936047 1.859142 -0.027521031
v 0.185382947 1.81849754 -0.0456320122
v 0.171099931 1.98612237 -0.0725357756
v 0.137071446 1.89608908 -0.0246271435
v 0.1088456 1.94124281 -0.0392446369
v 0.137071446 1.89608908 -0.0246271435
v 0.06784236 1.929499 -0.0241462942
v -0.0210984461 1.95819211 -0.00686380826
v -1.16415322E-09 1.52325857 -0.191148773
v -1.16415322E-09 1.49684274 -0.167623058
v 0.109008446 1.44202328 -0.0887635
v 0.10533981 1.43152881 -0.04931447
v 0.109310515 1.40510738 -0.05118207
v 0.117650226 1.40486181 -0.0928680748
v 0.06420026 1.42630935 -0.0612741932
v 0.07838286 1.394929 -0.0695464239
v 0.09202566 1.40623856 -0.09106608
v 0.109008446 1.44202328 -0.0887635
v 0.117650226 1.40486181 -0.0928680748
v 0.06420026 1.42630935 -0.0612741932
v 0.147960037 1.3452723 0.066122286
v 0.173699573 1.324526 0.03572457
v 0.126647681 1.31599593 0.0579127967
v 0.173699573 1.324526 0.03572457
v 0.126647681 1.31599593 0.0579127967
v 0.07838286 1.394929 -0.0695464239
v 0.237345725 1.23957479 0.167666271
v 0.192080513 1.21820092 0.211493567
v 0.237345725 1.23957479 0.167666271
v 0.150480419 1.238587 0.18342939
v -0.0209520031 1.514132 -0.178889483
v -0.08530842 1.8606472 0.10774529
v -0.04806002 1.88818669 0.03762842
v -0.124178372 1.85783362 0.0286058858
v -0.0381767862 1.93621373 -0.0110191386
v -0.09608733 1.92476487 -0.0254706945
v -0.147429064 1.96547365 -0.103068374
v -0.08011607 1.91476786 -0.0455414653
v -0.08029982 1.960388 -0.0528454632
v -0.08011607 1.91476786 -0.0455414653
v -0.147429064 1.96547365 -0.103068374
v -0.054874897 1.853704 -0.0161619987
v -0.105543785 1.77143109 0.170118436
v -0.190737411 1.72923553 0.107745267
v -0.189030483 1.81359744 -0.0456320122
v -0.208743855 1.75433171 -0.005881848
v -0.182807148 1.75996089 -0.05972918
v -0.0875482559 1.8874805 0.0155305387
v -0.054874897 1.853704 -0.0161619987
v -0.176268563 1.91056967 -0.0442392826
v -0.054874897 1.853704 -0.0161619987
v -0.0802557543 1.75295866 -0.158290029
v -0.182807148 1.75996089 -0.05972918
v -0.121871479 1.64955962 0.1983988
v -0.213423133 1.67347682 0.124072947
v -0.241581 1.68200552 -0.0549966842
v -0.283924818 1.73134589 -0.103314526
v -0.199756265 1.63717628 -0.106277116
v -0.125779226 1.6436913 -0.235896841
v -0.199756265 1.63717628 -0.106277116
v -0.0671686 1.64261639 -0.19631505
v -0.105543785 1.52768815 0.1746724
v -0.182807177 1.52768815 0.107745267
v -0.280882239 1.55133319 -0.07651438
v -0.204045862 1.53213763 -0.004216671
v -0.182807148 1.53403223 -0.04236441
v -0.221991271 1.62111306 -0.0205192547
v -0.105543733 1.52074492 -0.158290029
v -0.182807148 1.53403223 -0.04236441
v -0.11349646 1.580105 -0.172064587
v -0.0209520031 1.514132 -0.178889483
v -0.060935732 1.438472 0.10774529
v -0.105543762 1.438472 0.06313724
v -0.121871434 1.43152881 0.0245171376
v -0.200291649 1.489806 -0.0797112
v -0.10533981 1.43152881 -0.04931447
v -0.200291649 1.489806 -0.0797112
v -0.10533981 1.43152881 -0.04931447
v -0.192080557 1.21820092 0.2114936
v -0.150480464 1.2385869 0.18342942
v -0.187390253 1.28872609 0.185859278
v -0.109008446 1.44202328 -0.0887635
v -0.06420026 1.42630935 -0.0612741932
v -0.280882239 1.55133319 -0.07651438
v -0.283924818 1.73134589 -0.103314526
v -0.145962164 1.84631538 -0.027521031
v -0.145962164 1.84631538 -0.027521031
v -0.189030483 1.81359744 -0.0456320122
v -0.176268563 1.91056967 -0.0442392826
v -0.08029982 1.960388 -0.0528454632
v -0.109008446 1.44202328 -0.0887635
v -0.108787328 1.40498543 -0.05249343
v -0.10533981 1.43152881 -0.04931447
v -0.116689309 1.40475273 -0.09199136
v -0.07948307 1.3953414 -0.06989385
v -0.06420026 1.42630935 -0.0612741932
v -0.09240977 1.40605712 -0.0902839452
v -0.116689309 1.40475273 -0.09199136
v -0.109008446 1.44202328 -0.0887635
v -0.06420026 1.42630935 -0.0612741932
v -0.147996858 1.34485662 0.06580154
v -0.173094824 1.3246274 0.0361615
v -0.127215728 1.31631 0.057796672
v -0.173094824 1.3246274 0.0361615
v -0.07948307 1.3953414 -0.06989385
v -0.127215728 1.31631 0.057796672
v -0.23734577 1.23957479 0.1676663
v -0.192080557 1.21820092 0.2114936
v -0.23734577 1.23957479 0.1676663
v -0.150480464 1.2385869 0.18342942
v 0.020952 1.514132 -0.178889483
v -1.16415322E-09 1.52325857 -0.191148773
v 0.020952 1.514132 -0.178889483
v 0.0112106791 1.39996576 -0.306266874
v -1.07167941E-09 1.40379107 -0.3135399
v -1.16415322E-09 1.49684274 -0.167623058
v -1.07167941E-09 1.39172173 -0.298840433
v 0.008314241 1.23190117 -0.448593885
v -1.07167863E-09 1.23467577 -0.453869015
v -1.07167863E-09 1.22592187 -0.443207473
v 0.008168449 1.04745615 -0.5006074
v -1.07167808E-09 1.04781234 -0.5064247
v -1.07167819E-09 1.04428685 -0.4934043
v 0.0102811893 0.8609529 -0.456609726
v -1.07167819E-09 0.8581864 -0.4634657
v -1.07167819E-09 0.861254454 -0.446632057
v 0.0161513556 0.663621664 -0.437945217
v -1.07167875E-09 0.664619565 -0.449620217
v -1.07167875E-09 0.656903 -0.423621148
v -1.071679E-09 0.6393231 -0.490234047
v 0.0161513556 0.663621664 -0.437945217
v 0.048335813 0.6586315 -0.4473443
v -1.07167875E-09 0.664619565 -0.449620217
v 0.0161513556 0.663621664 -0.437945217
v -1.07167875E-09 0.656903 -0.423621148
v -1.07167919E-09 0.610783935 -0.380585045
v 0.048335813 0.6586315 -0.4473443
v -1.071679E-09 0.5699371 -0.514657259
v 0.1016425 0.637313962 -0.461017817
v 0.1016425 0.637313962 -0.461017817
v -1.0716793E-09 0.553738952 -0.392318
v -1.07167908E-09 0.5132706 -0.496722549
v 0.07371313 0.571619153 -0.471417159
v 0.07371313 0.571619153 -0.471417159
v -0.000376470154 0.498671055 -0.4183305
v 0.04407991 0.5048462 -0.472166032
v 0.04407991 0.5048462 -0.472166032
v -0.000376470154 0.4211421 -0.5036424
v -0.0112106809 1.39996576 -0.306266874
v -0.0209520031 1.514132 -0.178889483
v -0.008314243 1.23190117 -0.448593885
v -0.008168451 1.047456 -0.5006074
v -0.0102811912 0.8609529 -0.456609726
v -0.01615136 0.663621664 -0.437945217
v -0.0496009775 0.6557459 -0.4473443
v -0.01615136 0.663621664 -0.437945217
v -0.01615136 0.663621664 -0.437945217
v -0.0496009775 0.6557459 -0.4473443
v -0.106484 0.6363387 -0.461017817
v -0.106484 0.6363387 -0.461017817
v -0.0799641 0.5711889 -0.471417159
v -0.0799641 0.5711889 -0.471417159
v -0.04024754 0.5035882 -0.472166032
v -0.04024754 0.5035882 -0.472166032
v 0.0133589758 2.00546217 -0.0117123816
v 0.000288871437 1.98883772 -0.0512311459
v 0.0253717061 2.00023246 -0.03500107
v 0.0253717061 2.00023246 -0.03500107
v -0.0170981847 2.04132938 -0.0432015
v -0.0170981847 2.04132938 -0.0432015
v 0.0378681347 2.1001575 -0.0730113462
v 0.0356726646 2.105057 -0.054194808
v 0.0378681347 2.1001575 -0.0730113462
v 0.02016965 2.11448765 -0.06905463
v 0.02016965 2.11448765 -0.06905463
v 0.08589288 2.15400648 -0.104547493
v 0.08372064 2.1481328 -0.115622006
v 0.08589288 2.15400648 -0.104547493
v 0.111596748 2.14338183 -0.115622006
v 0.113768995 2.14925551 -0.104547493
v 0.1300134 2.119389 -0.11715167
v 0.132785723 2.12688541 -0.103017904
v 0.116365895 2.09233165 -0.119080283
v 0.11989481 2.10187364 -0.101089247
v 0.08228458 2.104188 -0.120472379
v 0.0863596 2.11520672 -0.0996972248
v 0.09393092 2.12947559 -0.11008475
v -0.0381767862 1.93621373 -0.0110191386
v 0.26247713 1.70977557 -0.0684963241
v -0.271183 1.60194647 -0.126083508
v 0.1845046 1.90404212 -0.0553162619
v 0.1845046 1.90404212 -0.0553162619
v 0.461039573 2.31116152 -0.196765155
v 0.405664682 2.328782 -0.150509924
v 0.6106923 2.39606357 -0.243340656
v 0.281036347 1.86897755 -0.13927184
v 0.338665843 1.88990653 -0.153627783
v 0.425270438 1.86678338 -0.1985057
v 0.544134 2.03131461 -0.256627053
v 0.582668066 2.076632 -0.261172146
v 0.702900469 2.01561379 -0.312708437
v 0.5606716 2.16765213 -0.245733216
v 0.342003882 2.13031363 -0.166903764
v 0.288730085 2.10930943 -0.120531879
v 0.259189934 2.16392231 -0.0849537551
v 0.241649523 2.1796174 -0.0864597559
v 0.6259245 2.2737112 -0.2647079
v 0.271951973 1.83525693 -0.11773511
v 0.16309385 1.78175342 -0.06276296
v 0.139375329 1.80900931 -0.0614509061
v 0.24751249 1.92265892 -0.1254751
v 0.3559704 1.93574226 -0.158723667
v 0.225126147 1.93251538 -0.09383904
v 0.497657031 1.986853 -0.220632166
v 0.437208861 2.007967 -0.208672881
v 0.6137725 2.36379123 -0.257541925
v 0.895443738 2.43332314 -0.3827508
v 0.131662726 1.82937026 -0.03683979
v 0.235334024 2.188037 -0.0710049346
v 0.190796316 2.13337159 -0.0538157225
v 0.45640406 2.30338836 -0.172005385
v 0.28133142 1.86710429 -0.1128056
v 0.5533056 2.03669953 -0.238108531
v 0.3576836 2.128589 -0.137498885
v 0.251624 2.1785202 -0.06775418
v 0.155055016 1.80728459 -0.0320460424
v 0.2631922 1.9209342 -0.09607023
v 0.452504933 2.015369 -0.178653017
v 0.622131944 2.36287165 -0.241865113
v -0.455854326 2.31116152 -0.196765155
v -0.605507135 2.39606357 -0.243340656
v -0.400479436 2.328782 -0.150509909
v -0.2758511 1.86897755 -0.139271826
v -0.4200852 1.86678338 -0.198505685
v -0.333480567 1.88990641 -0.153627768
v -0.5389487 2.03131437 -0.256627053
v -0.697715163 2.01561379 -0.312708437
v -0.5774828 2.076632 -0.261172116
v -0.555486441 2.16765213 -0.245733216
v -0.336818635 2.13031363 -0.166903719
v -0.254004657 2.163922 -0.08495374
v -0.2835448 2.10930943 -0.120531864
v -0.236464232 2.17961717 -0.08645973
v -0.6207393 2.2737112 -0.2647079
v -0.2667667 1.83525693 -0.117735095
v -0.134190038 1.80900931 -0.06145089
v -0.157908559 1.78175342 -0.06276295
v -0.2423272 1.92265892 -0.125475064
v -0.350785136 1.93574214 -0.158723652
v -0.219940871 1.93251538 -0.0938390344
v -0.432023585 2.007967 -0.208672866
v -0.492471755 1.98685288 -0.220632151
v -0.6085873 2.36379123 -0.257541925
v -0.890258551 2.43332314 -0.3827508
v -0.126477435 1.82937026 -0.03683979
v -0.230148733 2.188037 -0.07100492
v -0.185611039 2.13337159 -0.0538157
v -0.4512188 2.30338836 -0.172005385
v -0.276146144 1.86710417 -0.112805583
v -0.5481203 2.0366993 -0.238108531
v -0.352498353 2.128589 -0.13749887
v -0.2464387 2.1785202 -0.0677541643
v -0.149869725 1.80728459 -0.0320460424
v -0.25800696 1.9209342 -0.09607022
v -0.447319627 2.015369 -0.178652987
v -0.6169467 2.36287165 -0.241865113
vt 0.3242914 0.921123147
vt 0.324291438 0.8600506
vt 0.399983972 0.8592593
vt 0.3819209 0.9084502
vt 0.464450657 0.88208586
vt 0.408639044 0.931086957
vt 0.421475649 0.9120185
vt 0.868400335 0.569599867
vt 0.8467913 0.560649753
vt 0.823390961 0.487267673
vt 0.880503535 0.524190843
vt 0.324291468 0.7677401
vt 0.419844836 0.7717071
vt 0.4969743 0.7694997
vt 0.537528753 0.8790426
vt 0.551019 0.8045392
vt 0.5748226 0.82324934
vt 0.7907389 0.487267673
vt 0.7486886 0.4593042
vt 0.80570966 0.3950671
vt 0.8791585 0.432060242
vt 0.8791585 0.470474
vt 0.324291468 0.6541563
vt 0.434627056 0.658737
vt 0.5153981 0.671251833
vt 0.6107521 0.7073745
vt 0.6016084 0.6824162
vt 0.6285059 0.755834341
vt 0.6266916 0.6907236
vt 0.7118561 0.4014753
vt 0.7640474 0.295067072
vt 0.6859743 0.290218
vt 0.8205093 0.2898494
vt 0.8791585 0.375248551
vt 0.324291468 0.553209245
vt 0.419844836 0.553701043
vt 0.4897946 0.556719959
vt 0.6153328 0.618909538
vt 0.561645746 0.562528551
vt 0.6102936 0.642227054
vt 0.595688343 0.5639671
vt 0.607795238 0.6537878
vt 0.7118561 0.194708586
vt 0.7862356 0.182548165
vt 0.7752883 0.236873627
vt 0.859983444 0.176496148
vt 0.859983444 0.176496148
vt 0.324291438 0.473765016
vt 0.3794592 0.4698918
vt 0.443378627 0.4596138
vt 0.4974993 0.438911617
vt 0.6166211 0.50886935
vt 0.555172265 0.4030404
vt 0.6819878 0.150508881
vt 0.7471835 0.0912742
vt 0.7398985 0.5619823
vt 0.7556867 0.6360705
vt 0.707696438 0.605240941
vt 0.7793955 0.110503256
vt 0.8151588 0.08213633
vt 0.8791585 0.1008988
vt 0.3242914 0.399675131
vt 0.8721659 0.0203149915
vt 0.65275383 0.232711256
vt 0.614671 0.33731997
vt 0.881335139 0.285958
vt 0.477302521 0.9522511
vt 0.444368452 0.928516567
vt 0.4794224 0.89708215
vt 0.7013677 0.450691819
vt 0.7493949 0.5117191
vt 0.7489974 0.482221365
vt 0.773785055 0.497294426
vt 0.478495538 0.9212034
vt 0.7991205 0.5042895
vt 0.347304165 0.949618161
vt 0.8791585 0.184848666
vt 0.8791585 0.160673261
vt 0.7911635 0.984993935
vt 0.7614073 0.9595379
vt 0.7622132 0.9272083
vt 0.7936937 0.9490157
vt 0.725755751 0.971174359
vt 0.730333745 0.938112438
vt 0.855300844 0.960723937
vt 0.830543935 0.9796609
vt 0.8290344 0.945053458
vt 0.8847123 0.9796609
vt 0.762611449 0.7787458
vt 0.8011145 0.773916066
vt 0.730759442 0.7668849
vt 0.8271839 0.7892895
vt 0.885343254 0.789104044
vt 0.8854887 0.946890533
vt 0.8059378 0.590247154
vt 0.8717249 0.602049649
vt 0.8147947 0.6344442
vt 0.9007781 0.643238842
vt 0.8983336 0.176496148
vt 0.248598948 0.8592594
vt 0.266662031 0.9084503
vt 0.184132278 0.882086
vt 0.302444249 0.948175132
vt 0.251457125 0.948189735
vt 0.274631083 0.98261416
vt 0.24980332 0.9584533
vt 0.8360186 0.556187868
vt 0.822560966 0.5195192
vt 0.8217692 0.550285935
vt 0.823390961 0.487267673
vt 0.226183787 0.7780928
vt 0.145222887 0.75800544
vt 0.111054093 0.879042745
vt 0.09756385 0.8045392
vt 0.073760286 0.82324934
vt 0.227107316 0.9120186
vt 0.223777324 0.9331264
vt 0.171280369 0.9522512
vt 0.7907389 0.487267673
vt 0.80570966 0.3950671
vt 0.7118561 0.4014753
vt 0.213955864 0.658737
vt 0.133184731 0.671251833
vt 0.03577391 0.712988853
vt 0.0200770069 0.755834341
vt 0.02189135 0.6907236
vt 0.7640474 0.295067072
vt 0.6859743 0.290218
vt 0.8205093 0.2898494
vt 0.22873807 0.553701043
vt 0.158788219 0.556719959
vt 0.0332500935 0.618909538
vt 0.08693713 0.562528551
vt 0.0528945476 0.5639671
vt 0.04697451 0.6824162
vt 0.7862356 0.182548165
vt 0.7118561 0.194708586
vt 0.7752883 0.236873627
vt 0.859983444 0.176496148
vt 0.269123763 0.4698918
vt 0.205204323 0.4596138
vt 0.151083589 0.438911617
vt 0.0319618061 0.50886935
vt 0.09341061 0.4030404
vt 0.6819878 0.150508881
vt 0.7471835 0.0912742
vt 0.7398985 0.5619823
vt 0.707696438 0.605240941
vt 0.7556867 0.6360705
vt 0.7793955 0.110503256
vt 0.8151588 0.08213633
vt 0.65275383 0.232711256
vt 0.614671 0.33731997
vt 0.7486886 0.4593042
vt 0.169160515 0.897082269
vt 0.7013677 0.450691819
vt 0.7493949 0.5117191
vt 0.289806217 0.9638239
vt 0.7911635 0.984993935
vt 0.7622132 0.9272083
vt 0.7614073 0.9595379
vt 0.7936937 0.9490157
vt 0.730333745 0.938112438
vt 0.725755751 0.971174359
vt 0.855300844 0.960723937
vt 0.8290344 0.945053458
vt 0.830543935 0.9796609
vt 0.8847123 0.9796609
vt 0.762611449 0.7787458
vt 0.8011145 0.773916066
vt 0.730759442 0.7668849
vt 0.8271839 0.7892895
vt 0.8854887 0.946890533
vt 0.885343254 0.789104044
vt 0.8059378 0.590247154
vt 0.8717249 0.602049649
vt 0.8147947 0.6344442
vt 0.9007781 0.643238842
vt 0.8983336 0.176496148
vt 0.9771916 0.963902354
vt 0.9550079 0.963902354
vt 0.9550079 0.8383068
vt 0.9771916 0.8383068
vt 0.9329916 0.963902354
vt 0.9329916 0.8383068
vt 0.9550079 0.651850045
vt 0.9771916 0.651850045
vt 0.9329916 0.651850045
vt 0.9550079 0.447360039
vt 0.9771916 0.447360039
vt 0.9329916 0.447360039
vt 0.9550079 0.240845919
vt 0.9771916 0.240845919
vt 0.9329916 0.240845919
vt 0.9550079 0.022151947
vt 0.9771916 0.022151947
vt 0.9329916 0.022151947
vt 0.550697267 0.194542348
vt 0.5384445 0.236906588
vt 0.51310575 0.2456317
vt 0.5506827 0.231225133
vt 0.562911332 0.236907184
vt 0.5506827 0.231225133
vt 0.550697267 0.194542348
vt 0.587285459 0.247815788
vt 0.550698042 0.141627491
vt 0.470016539 0.21723938
vt 0.627656639 0.2179808
vt 0.550698042 0.141627491
vt 0.550698042 0.141627491
vt 0.460664064 0.158726633
vt 0.635934532 0.159056365
vt 0.5503994 0.094340086
vt 0.5201819 0.100315511
vt 0.584053636 0.10126847
vt 0.5503706 0.0307186842
vt 0.9550079 0.8383068
vt 0.9550079 0.963902354
vt 0.9550079 0.651850045
vt 0.9550079 0.447360039
vt 0.9550079 0.240845919
vt 0.9550079 0.022151947
vt 0.587285459 0.247815788
vt 0.562911332 0.236907184
vt 0.5384445 0.236906588
vt 0.51310575 0.2456317
vt 0.627656639 0.2179808
vt 0.470016539 0.21723938
vt 0.635934532 0.159056365
vt 0.460664064 0.158726633
vt 0.584053636 0.10126847
vt 0.5201819 0.100315511
vt 0.377224118 0.952160656
vt 0.822371 0.52690053
vt 0.8104326 0.5272629
vt 0.391314149 0.9568227
vt 0.373951852 0.98261404
vt 0.8217692 0.550285935
vt 0.822371 0.52690053
vt 0.377224118 0.952160656
vt 0.391314149 0.9568227
vt 0.373951852 0.98261404
vt 0.8217692 0.550285935
vt 0.377224118 0.952160656
vt 0.391314149 0.9568227
vt 0.373951852 0.98261404
vt 0.391314149 0.9568227
vt 0.377224118 0.952160656
vt 0.391314149 0.9568227
vt 0.377224118 0.952160656
vt 0.391314149 0.9568227
vt 0.377224118 0.952160656
vt 0.391314149 0.9568227
vt 0.377224118 0.952160656
vt 0.391314149 0.9568227
vt 0.8478857 0.561103046
vt 0.6165652 0.723241746
vt 0.0418633781 0.6963673
vt 0.4786907 0.9161237
vt 0.748932362 0.477395177
vt 0.301683426 0.327480257
vt 0.26461643 0.349913359
vt 0.404120654 0.365095735
vt 0.129420385 0.06211412
vt 0.165831074 0.0687770247
vt 0.218585268 0.0409047
vt 0.323712438 0.152720034
vt 0.350781232 0.173848927
vt 0.42022717 0.131970644
vt 0.3451551 0.220216572
vt 0.206823766 0.224726856
vt 0.164171338 0.2205103
vt 0.147774056 0.262482882
vt 0.14152807 0.274372816
vt 0.399357378 0.281469166
vt 0.114060543 0.0428972244
vt 0.0358435735 0.023707509
vt 0.0274104774 0.04404384
vt 0.116600923 0.101880252
vt 0.182857439 0.09661698
vt 0.0982473642 0.113459527
vt 0.2831879 0.127200961
vt 0.252748221 0.151772261
vt 0.4046477 0.342347622
vt 0.5922795 0.3484155
vt 0.0199885238 0.0604018569
vt 0.1354639 0.2819311
vt 0.0999862254 0.252123
vt 0.301683426 0.327480257
vt 0.129420385 0.06211412
vt 0.323712438 0.152720034
vt 0.206823766 0.224726856
vt 0.14152807 0.274372816
vt 0.0274104774 0.04404384
vt 0.116600923 0.101880252
vt 0.252748221 0.151772261
vt 0.4046477 0.342347622
vt 0.301683426 0.327480257
vt 0.404120654 0.365095735
vt 0.26461643 0.349913359
vt 0.129420385 0.06211412
vt 0.218585268 0.0409047
vt 0.165831074 0.0687770247
vt 0.323712438 0.152720034
vt 0.42022717 0.131970644
vt 0.350781232 0.173848927
vt 0.3451551 0.220216572
vt 0.206823766 0.224726856
vt 0.147774056 0.262482882
vt 0.164171338 0.2205103
vt 0.14152807 0.274372816
vt 0.399357378 0.281469166
vt 0.114060543 0.0428972244
vt 0.0274104774 0.04404384
vt 0.0358435735 0.023707509
vt 0.116600923 0.101880252
vt 0.182857439 0.09661698
vt 0.0982473642 0.113459527
vt 0.252748221 0.151772261
vt 0.2831879 0.127200961
vt 0.4046477 0.342347622
vt 0.5922795 0.3484155
vt 0.0199885238 0.0604018569
vt 0.1354639 0.2819311
vt 0.0999862254 0.252123
vt 0.301683426 0.327480257
vt 0.129420385 0.06211412
vt 0.323712438 0.152720034
vt 0.206823766 0.224726856
vt 0.14152807 0.274372816
vt 0.0274104774 0.04404384
vt 0.116600923 0.101880252
vt 0.252748221 0.151772261
vt 0.4046477 0.342347622
vn -0.250119269 0.86988616 0.425133437
vn 6.232137E-10 0.8198524 0.5725749
vn 0.380368 0.7626 0.523222148
vn 0.204813153 0.813934147 0.5436569
vn 0.555057645 0.729147255 0.40031895
vn 0.8773563 0.390716374 -0.2785438
vn 0.3790712 0.7676134 -0.5167927
vn -0.250119269 0.86988616 0.425133437
vn -0.9493852 0.0481046475 0.3104088
vn 0.46366924 0.610340059 -0.6422584
vn -0.0068955496 0.689467847 -0.724283457
vn 6.73058054E-09 0.446280539 0.8948931
vn 0.444276959 0.444594741 0.777787566
vn 0.7395132 0.435447156 0.5133284
vn 0.5326594 0.44413653 -0.720428169
vn 0.511317849 0.859196067 0.0183356069
vn 0.381578 0.4082907 -0.829274952
vn 0.3790712 0.7676134 -0.5167927
vn 0.7777722 0.329434961 -0.5352971
vn 0.5887674 0.463205248 -0.662415147
vn -0.00445768 0.2590963 -0.965841234
vn -0.134753391 0.839326262 -0.526662052
vn -0.005484196 0.0447283871 0.998984158
vn 0.4694423 0.0268044267 0.8825562
vn 0.822965264 -0.005389185 0.5680661
vn 0.72248584 0.07260737 -0.687562644
vn 0.9944897 0.09644943 -0.0410812274
vn 0.582470655 0.496062249 -0.643933356
vn 0.460684985 -0.0047768834 -0.887550831
vn 0.381578 0.4082907 -0.829274952
vn 0.2733408 -0.055563 -0.9603112
vn 0.460684985 -0.0047768834 -0.887550831
vn 0.06898255 -0.06476421 -0.995513439
vn 5.43879941E-10 -0.0481998175 -0.9988377
vn -0.0189234167 -0.4124476 0.9107848
vn 0.450916946 -0.439524978 0.7768473
vn 0.7431517 -0.463646233 0.482449651
vn 0.585891664 -0.433149278 -0.684918
vn 0.7597926 -0.6450316 0.08154426
vn 0.9643855 -0.261605263 -0.03902877
vn 0.4591792 -0.292458564 -0.838822067
vn 0.6335535 -0.290681541 -0.7170176
vn 0.4591792 -0.292458564 -0.838822067
vn 0.517477 -0.415123016 -0.7482583
vn 0.5068418 -0.395178348 -0.766123652
vn 0.242235079 -0.489817441 -0.8374969
vn 0.5919576 -0.402069151 -0.6985174
vn -8.374442E-09 -0.8233549 0.5675268
vn 0.2936098 -0.818477333 0.4938503
vn 0.432171375 -0.818276644 0.379013538
vn 0.482124478 -0.862406135 0.154310152
vn 0.505588353 -0.183824226 -0.8429645
vn 0.6333386 -0.758446932 0.1537547
vn 0.505588353 -0.183824226 -0.8429645
vn 0.6333386 -0.758446932 0.1537547
vn 0.05897938 -0.7105995 0.701120436
vn 0.0791173652 0.7424592 0.665202856
vn -0.8252432 -0.5006524 0.2613826
vn 0.637227237 -0.46265924 -0.6163505
vn -0.133019179 -0.968424737 -0.210854009
vn 1.88201871E-10 -0.8561053 -0.516801357
vn 2.172696E-09 -0.9974991 0.07067868
vn 2.172696E-09 -0.9974991 0.07067868
vn 0.585891664 -0.433149278 -0.684918
vn 0.582470655 0.496062249 -0.643933356
vn -2.22486971E-08 -0.04516988 -0.99897933
vn 0.493519545 0.710748851 -0.501272857
vn -0.7210192 0.594430745 -0.3560665
vn 0.7777722 0.329434961 -0.5352971
vn 0.5326594 0.44413653 -0.720428169
vn 0.493519545 0.710748851 -0.501272857
vn 0.448757857 0.893596649 0.0100696087
vn -0.7210192 0.594430745 -0.3560665
vn 0.448757857 0.893596649 0.0100696087
vn 0.8773563 0.390716374 -0.2785438
vn -0.9493852 0.0481046475 0.3104088
vn -1.02164028E-08 0.1324037 -0.991195858
vn -6.964983E-09 -0.87446934 -0.4850808
vn 0.637227237 -0.46265924 -0.6163505
vn 0.6333386 -0.758446932 0.1537547
vn 0.34343797 0.6365191 0.690575
vn 0.646178663 -0.2595734 -0.71768713
vn -0.133019179 -0.968424737 -0.210854009
vn -0.7510437 -0.6557461 -0.0770093948
vn -0.3927683 -0.323132455 -0.8609986
vn 0.637227237 -0.46265924 -0.6163505
vn 0.646178663 -0.2595734 -0.71768713
vn -0.133019179 -0.968424737 -0.210854009
vn -0.0376514345 0.8865209 0.461154073
vn 0.827484 -0.212915972 -0.5195547
vn -0.883956134 -0.4656903 -0.0418816321
vn 0.827484 -0.212915972 -0.5195547
vn -0.883956134 -0.4656903 -0.0418816321
vn -0.7510437 -0.6557461 -0.0770093948
vn 0.918970644 -0.392990351 -0.0324281827
vn 0.05897938 -0.7105995 0.701120436
vn 0.918970644 -0.392990351 -0.0324281827
vn -0.8252432 -0.5006524 0.2613826
vn -0.5245244 -0.425977826 -0.737168252
vn -0.376884 0.7840004 0.4932564
vn -0.07382004 0.844774246 0.5300067
vn -0.6362007 0.636717856 0.435705185
vn 0.580011249 0.813133061 -0.0490059145
vn -0.897734463 0.08342713 0.432565272
vn -0.6751138 0.327616543 -0.6609756
vn 0.0310053639 -0.5736657 -0.818502545
vn 0.4038877 0.8915174 -0.205113247
vn 0.0310053639 -0.5736657 -0.818502545
vn -0.6751138 0.327616543 -0.6609756
vn -0.287511349 0.542580366 -0.7892679
vn -0.43610847 0.4519064 0.778196633
vn -0.7793978 0.4715586 0.412518561
vn -0.60820365 0.5518675 -0.5705529
vn -0.7334458 0.66682905 0.131894842
vn -0.442378163 0.6163206 -0.6514986
vn -0.436148822 0.7909954 0.429069281
vn -0.287511349 0.542580366 -0.7892679
vn -0.693500936 0.5672207 -0.444203973
vn -0.287511349 0.542580366 -0.7892679
vn -0.5083893 0.543697357 -0.6677825
vn -0.442378163 0.6163206 -0.6514986
vn -0.456839353 0.00142295158 0.889548063
vn -0.840767 0.135414913 0.5241885
vn -0.985919535 -0.134941712 0.0987593
vn -0.785298467 0.277685434 -0.5533508
vn -0.576373637 -0.104908466 -0.8104243
vn -0.223468646 -0.07898888 -0.9715053
vn -0.576373637 -0.104908466 -0.8104243
vn -0.06898255 -0.06476421 -0.995513439
vn -0.451076269 -0.445144057 0.7735483
vn -0.715794742 -0.490265816 0.4972698
vn -0.7891699 -0.3398068 -0.5116074
vn -0.56875205 -0.8222238 0.0216602515
vn -0.5631394 -0.282672554 -0.7765116
vn -0.9897261 -0.120925069 0.0762847
vn -0.496003568 -0.433780462 -0.752206743
vn -0.5631394 -0.282672554 -0.7765116
vn -0.4359829 -0.398214847 -0.807058752
vn -0.5245244 -0.425977826 -0.737168252
vn -0.301609516 -0.8121767 0.499400347
vn -0.4323114 -0.8157511 0.384261727
vn -0.507832348 -0.8490102 0.14590393
vn -0.562992036 -0.125756174 -0.8168386
vn -0.6336997 -0.7594896 0.146970019
vn -0.562992036 -0.125756174 -0.8168386
vn -0.6336997 -0.7594896 0.146970019
vn -0.05884757 -0.710960031 0.700765848
vn 0.8260257 -0.5004433 0.2593029
vn -0.07852439 0.7436813 0.663906634
vn -0.6325275 -0.476289 -0.6107846
vn 0.121422261 -0.969537258 -0.212730259
vn -0.7891699 -0.3398068 -0.5116074
vn -0.785298467 0.277685434 -0.5533508
vn -0.535964131 0.369152039 -0.7592557
vn -0.535964131 0.369152039 -0.7592557
vn -0.60820365 0.5518675 -0.5705529
vn -0.693500936 0.5672207 -0.444203973
vn 0.4038877 0.8915174 -0.205113247
vn -0.6325275 -0.476289 -0.6107846
vn -0.3543891 0.620327234 0.699716032
vn -0.6336997 -0.7594896 0.146970019
vn -0.64490515 -0.2735758 -0.713620067
vn 0.740139544 -0.6677236 -0.07961584
vn 0.121422261 -0.969537258 -0.212730259
vn 0.388152063 -0.335769266 -0.8582523
vn -0.64490515 -0.2735758 -0.713620067
vn -0.6325275 -0.476289 -0.6107846
vn 0.121422261 -0.969537258 -0.212730259
vn 0.039003104 0.8880073 0.4581723
vn -0.826200843 -0.210802481 -0.522450447
vn 0.8849263 -0.46356982 -0.04481513
vn -0.826200843 -0.210802481 -0.522450447
vn 0.740139544 -0.6677236 -0.07961584
vn 0.8849263 -0.46356982 -0.04481513
vn -0.9190468 -0.392657369 -0.0342513137
vn -0.05884757 -0.710960031 0.700765848
vn -0.9190468 -0.392657369 -0.0342513137
vn 0.8260257 -0.5004433 0.2593029
vn 0.5919576 -0.402069151 -0.6985174
vn -1.02164028E-08 0.1324037 -0.991195858
vn 0.5919576 -0.402069151 -0.6985174
vn 0.9926221 0.0571215376 -0.106951311
vn 1.28104292E-08 0.6745892 -0.738193333
vn -6.964983E-09 -0.87446934 -0.4850808
vn 3.380338E-08 -0.720822752 0.693119466
vn 0.9859971 0.05894644 -0.155996919
vn -4.32796519E-08 0.464908481 -0.885358751
vn -3.92925656E-08 -0.4383154 0.898821235
vn 0.9833927 -0.0123082576 -0.181072518
vn -9.335725E-08 0.02795665 -0.9996091
vn -2.621946E-07 0.0414496846 0.9991406
vn 0.998964965 0.0092480015 -0.04453586
vn -5.25970423E-09 -0.141126364 -0.9899916
vn 4.39859882E-08 0.172369316 0.9850324
vn 0.6372098 0.7444713 0.199314147
vn 8.745266E-10 0.5404362 -0.841385
vn -8.250881E-09 0.5353445 0.8446338
vn -0.00212647137 0.6143898 -0.7889998
vn 0.6372098 0.7444713 0.199314147
vn 0.320710629 0.941119 0.106956422
vn 8.745266E-10 0.5404362 -0.841385
vn 0.6372098 0.7444713 0.199314147
vn -8.250881E-09 0.5353445 0.8446338
vn 0.00738048926 0.182670757 0.9831464
vn 0.320710629 0.941119 0.106956422
vn 0.0135935694 -0.0473482832 -0.9987859
vn 0.924477637 0.370587468 -0.08947656
vn 0.924477637 0.370587468 -0.08947656
vn 0.0177987423 -0.3599875 0.932787359
vn -0.004089506 -0.132617131 -0.9911589
vn 0.900520563 -0.3675759 -0.2322729
vn 0.900520563 -0.3675759 -0.2322729
vn -0.000340988452 -0.584593356 0.8113264
vn 0.897816658 -0.404064715 -0.175091371
vn 0.897816658 -0.404064715 -0.175091371
vn -0.0134436293 -0.9104382 -0.413426667
vn -0.9926221 0.0571215376 -0.106951311
vn -0.5245244 -0.425977826 -0.737168252
vn -0.9859971 0.0589463934 -0.1559969
vn -0.9833927 -0.0123086106 -0.181072414
vn -0.998964965 0.009247991 -0.0445360057
vn -0.6673621 0.7211917 0.185769647
vn -0.316653937 0.94117707 0.117966227
vn -0.6673621 0.7211917 0.185769647
vn -0.6673621 0.7211917 0.185769647
vn -0.316653937 0.94117707 0.117966227
vn -0.919922948 0.38390705 -0.07973182
vn -0.919922948 0.38390705 -0.07973182
vn -0.8949044 -0.382653534 -0.229613647
vn -0.8949044 -0.382653534 -0.229613647
vn -0.87359035 -0.4467572 -0.192997158
vn -0.87359035 -0.4467572 -0.192997158
vn 0.2338474 0.442290068 0.865849257
vn -0.288897038 -0.140502349 -0.946993947
vn 0.9572032 0.1139057 -0.2660593
vn 0.9572032 0.1139057 -0.2660593
vn -0.935795546 0.350830883 -0.0347048864
vn -0.935795546 0.350830883 -0.0347048864
vn 0.470130116 -0.475542575 -0.743530035
vn 0.423121065 0.363455981 0.8299809
vn 0.470130116 -0.475542575 -0.743530035
vn -0.7629692 0.612523437 -0.206623033
vn -0.7629692 0.612523437 -0.206623033
vn -0.139070079 -0.869228542 0.474448383
vn -0.151768342 -0.854687154 0.496463776
vn -0.139070079 -0.869228542 0.474448383
vn -0.463994652 -0.741676331 0.484381258
vn -0.4351598 -0.757276535 0.486999154
vn -0.98522687 0.09189243 0.144512311
vn -0.9347877 -0.2033742 0.291223139
vn -0.197120488 0.8815784 -0.428909153
vn -0.473403871 0.8132232 -0.3384624
vn 0.6798245 0.5842767 -0.443237454
vn 0.8987901 0.289036572 -0.329597
vn 0.898092449 -0.436321557 0.0552583151
vn 0.580011249 0.813133061 -0.0490059145
vn 0.9258109 -0.13817434 -0.351826727
vn -0.532318652 -0.4736383 -0.7016435
vn 0.774248242 0.358888447 -0.521285653
vn 0.774248242 0.358888447 -0.521285653
vn -0.463240236 0.258567244 -0.847674131
vn -0.334610224 0.892270863 0.303131521
vn -0.143025219 0.9751378 0.169263065
vn -0.352651417 -0.169740528 -0.920231044
vn 0.582379639 0.7803194 -0.2278937
vn 0.8917292 -0.02085335 -0.452088743
vn -0.362127364 -0.09043293 -0.927731454
vn 0.71888417 0.605081558 -0.3421722
vn 0.910412848 -0.138262212 -0.389912754
vn 0.8904086 -0.0286103 -0.454262078
vn -0.524840951 0.133219808 -0.8407107
vn -0.921712 -0.03478111 0.386312366
vn 0.2522599 -0.953178763 -0.166778669
vn -0.5483441 0.07778471 -0.832627356
vn 0.509718657 -0.7956716 -0.3272517
vn 0.343592674 -0.9341749 -0.0962360352
vn 0.262301236 -0.897621751 -0.35422197
vn -0.5979572 0.0688563138 -0.798565
vn -0.56313777 0.100277171 -0.8202563
vn 0.398271829 -0.878999233 -0.262182951
vn -0.682253361 0.6329864 0.3658669
vn 0.277234375 -0.955740869 -0.0984911844
vn -0.344721138 -0.131233186 -0.9294865
vn -0.426973224 0.1788243 -0.886406064
vn 0.869512558 0.275972217 -0.409618437
vn -0.558285236 0.7268902 0.399935216
vn -0.594661951 0.7224275 0.352811158
vn -0.7451674 -0.5879651 0.314678639
vn 0.4347939 -0.029446058 0.900048435
vn 0.5614577 -0.142604113 0.815125346
vn 0.487052381 -0.0536832958 0.8717213
vn 0.403310835 -0.05400732 0.9134679
vn 0.355876952 -0.0540521629 0.9329684
vn 0.428261966 -0.0431006737 0.902626157
vn 0.3727654 0.05100456 0.9265228
vn 0.4833924 -0.162829578 0.8601269
vn 0.4277413 -0.010202501 0.903843641
vn 0.463240236 0.258567333 -0.847674131
vn 0.143024921 0.9751378 0.169263333
vn 0.3346099 0.8922707 0.303132325
vn 0.352651447 -0.169740453 -0.920231044
vn -0.891727567 -0.0208513644 -0.452091962
vn -0.58237946 0.780319333 -0.227894381
vn 0.362127364 -0.09043284 -0.927731454
vn -0.9104127 -0.138262853 -0.3899129
vn -0.718885064 0.6050811 -0.342171133
vn -0.8904087 -0.0286096279 -0.454261839
vn 0.524840951 0.133219823 -0.8407107
vn -0.25225997 -0.9531788 -0.1667784
vn 0.9217122 -0.0347809754 0.386311918
vn 0.548344 0.07778462 -0.8326274
vn -0.5097188 -0.795671165 -0.327252477
vn -0.3435925 -0.934174955 -0.09623602
vn 0.5979572 0.0688563958 -0.798565
vn -0.262300968 -0.8976218 -0.354222119
vn 0.56313777 0.10027723 -0.820256233
vn -0.3982717 -0.8789993 -0.262182981
vn 0.682253361 0.6329865 0.365866721
vn 0.344721228 -0.131233141 -0.9294865
vn -0.277234524 -0.955740869 -0.09849084
vn 0.4269732 0.178824455 -0.886406064
vn -0.8695081 0.275971442 -0.409628421
vn 0.558285236 0.7268904 0.399934947
vn 0.594661951 0.7224276 0.352810979
vn 0.745166838 -0.587965369 0.314679325
vn -0.434793979 -0.02944623 0.9000484
vn -0.561457634 -0.1426042 0.815125346
vn -0.487052321 -0.053683497 0.8717213
vn -0.403310835 -0.0540073067 0.9134679
vn -0.355876923 -0.0540520437 0.9329684
vn -0.428261817 -0.04310064 0.9026263
vn -0.372765362 0.0510044619 0.9265228
vn -0.4833924 -0.162829652 0.8601269
vn -0.427741319 -0.0102028251 0.9038436
usemtl 0111000000_part_0_material_0
f 1/1/1 2/2/2 3/3/3
f 4/4/4 3/3/3 5/5/5
f 6/6/6 4/4/4 7/7/7
f 8/8/8 9/9/9 10/10/10
f 8/8/8 10/10/10 11/11/11
f 2/2/2 12/12/12 13/13/13
f 2/2/2 13/13/13 3/3/3
f 3/3/3 13/13/13 14/14/14
f 3/3/3 14/14/14 5/5/5
f 15/15/15 14/14/14 16/16/16
f 5/5/5 14/14/14 15/15/15
f 15/15/15 16/16/16 17/17/17
f 18/18/18 19/19/19 20/20/20
f 18/18/18 20/20/20 10/10/10
f 10/10/10 20/20/20 21/21/21
f 10/10/10 22/22/22 11/11/11
f 12/12/12 23/23/23 24/24/24
f 12/12/12 24/24/24 13/13/13
f 13/13/13 24/24/24 25/25/25
f 13/13/13 25/25/25 14/14/14
f 26/26/26 25/25/25 27/27/27
f 14/14/14 25/25/25 28/28/28
f 26/26/26 27/27/27 29/29/29
f 16/16/16 28/28/28 17/17/17
f 20/20/20 30/30/30 31/31/31
f 30/30/30 32/32/32 31/31/31
f 20/20/20 31/31/31 33/33/33
f 20/20/20 34/34/34 21/21/21
f 23/23/23 35/35/35 36/36/36
f 23/23/23 36/36/36 24/24/24
f 24/24/24 36/36/36 37/37/37
f 24/24/24 37/37/37 25/25/25
f 38/38/38 37/37/37 39/39/39
f 40/40/40 37/37/37 38/38/38
f 38/38/38 39/39/39 41/41/41
f 27/27/27 42/42/42 29/29/29
f 32/32/32 43/43/43 44/44/44
f 32/32/32 44/44/44 45/45/45
f 45/45/45 46/46/46 47/47/47
f 31/31/31 45/45/45 33/33/33
f 35/35/35 48/48/48 49/49/49
f 35/35/35 49/49/49 36/36/36
f 36/36/36 49/49/49 50/50/50
f 36/36/36 50/50/50 37/37/37
f 37/37/37 50/50/50 51/51/51
f 37/37/37 51/51/51 39/39/39
f 52/52/52 51/51/51 53/53/53
f 54/54/54 55/55/55 43/43/43
f 56/56/56 57/57/57 58/58/58
f 43/43/43 55/55/55 59/59/59
f 59/59/59 60/60/60 61/61/61
f 46/46/46 59/59/59 47/47/47
f 62/62/62 49/49/49 48/48/48
f 62/62/62 50/50/50 49/49/49
f 62/62/62 51/51/51 50/50/50
f 62/62/62 53/53/53 51/51/51
f 63/63/63 60/60/60 55/55/55
f 63/63/63 61/61/61 60/60/60
f 32/32/32 64/64/64 43/43/43
f 25/25/25 42/42/42 27/27/27
f 30/30/30 65/65/65 32/32/32
f 14/14/14 28/28/28 16/16/16
f 20/20/20 66/66/66 34/34/34
f 20/20/20 19/19/19 30/30/30
f 5/5/5 67/67/67 68/68/68
f 5/5/5 15/15/15 69/69/69
f 19/19/19 70/70/70 30/30/30
f 71/71/71 72/72/72 73/73/73
f 5/5/5 74/74/74 67/67/67
f 10/10/10 75/75/75 18/18/18
f 4/4/4 5/5/5 7/7/7
f 1/1/1 4/4/4 76/76/76
f 1/1/1 3/3/3 4/4/4
f 10/10/10 21/21/21 22/22/22
f 33/33/33 77/77/77 66/66/66
f 20/20/20 33/33/33 66/66/66
f 33/33/33 45/45/45 47/47/47
f 32/32/32 45/45/45 31/31/31
f 47/47/47 61/61/61 78/78/78
f 33/33/33 47/47/47 77/77/77
f 39/39/39 52/52/52 41/41/41
f 39/39/39 51/51/51 52/52/52
f 47/47/47 59/59/59 61/61/61
f 43/43/43 59/59/59 44/44/44
f 79/79/79 80/80/80 81/81/81
f 81/81/81 82/82/82 79/79/79
f 81/81/81 83/83/83 84/84/84
f 83/83/83 81/81/81 80/80/80
f 85/85/85 86/86/86 87/87/87
f 86/86/86 85/85/85 88/88/88
f 82/82/82 81/81/81 89/89/89
f 89/89/89 90/90/90 82/82/82
f 89/89/89 84/84/84 91/91/91
f 84/84/84 89/89/89 81/81/81
f 85/85/85 87/87/87 92/92/92
f 85/85/85 93/93/93 94/94/94
f 90/90/90 89/89/89 57/57/57
f 57/57/57 95/95/95 90/90/90
f 57/57/57 89/89/89 58/58/58
f 91/91/91 58/58/58 89/89/89
f 96/96/96 92/92/92 97/97/97
f 96/96/96 98/98/98 93/93/93
f 92/92/92 96/96/96 93/93/93
f 95/95/95 57/57/57 56/56/56
f 93/93/93 85/85/85 92/92/92
f 85/85/85 94/94/94 88/88/88
f 99/99/99 78/78/78 61/61/61
f 1/1/1 100/100/100 2/2/2
f 101/101/101 102/102/102 100/100/100
f 103/103/103 104/104/104 101/101/101
f 105/105/105 106/106/106 104/104/104
f 107/107/107 108/108/108 109/109/109
f 8/8/8 11/11/11 110/110/110
f 2/2/2 111/111/111 12/12/12
f 2/2/2 100/100/100 111/111/111
f 100/100/100 112/112/112 111/111/111
f 100/100/100 102/102/102 112/112/112
f 113/113/113 114/114/114 112/112/112
f 102/102/102 113/113/113 112/112/112
f 113/113/113 115/115/115 114/114/114
f 116/116/116 117/117/117 118/118/118
f 119/119/119 120/120/120 121/121/121
f 110/110/110 21/21/21 120/120/120
f 110/110/110 11/11/11 22/22/22
f 12/12/12 122/122/122 23/23/23
f 12/12/12 111/111/111 122/122/122
f 111/111/111 123/123/123 122/122/122
f 111/111/111 112/112/112 123/123/123
f 112/112/112 124/124/124 123/123/123
f 112/112/112 125/125/125 124/124/124
f 125/125/125 126/126/126 124/124/124
f 114/114/114 115/115/115 125/125/125
f 120/120/120 127/127/127 121/121/121
f 121/121/121 127/127/127 128/128/128
f 120/120/120 129/129/129 127/127/127
f 120/120/120 21/21/21 34/34/34
f 23/23/23 130/130/130 35/35/35
f 23/23/23 122/122/122 130/130/130
f 122/122/122 131/131/131 130/130/130
f 122/122/122 123/123/123 131/131/131
f 132/132/132 133/133/133 131/131/131
f 123/123/123 132/132/132 131/131/131
f 132/132/132 134/134/134 133/133/133
f 135/135/135 126/126/126 132/132/132
f 128/128/128 136/136/136 137/137/137
f 128/128/128 138/138/138 136/136/136
f 138/138/138 139/139/139 136/136/136
f 127/127/127 129/129/129 138/138/138
f 35/35/35 140/140/140 48/48/48
f 35/35/35 130/130/130 140/140/140
f 130/130/130 141/141/141 140/140/140
f 130/130/130 131/131/131 141/141/141
f 131/131/131 142/142/142 141/141/141
f 131/131/131 133/133/133 142/142/142
f 143/143/143 144/144/144 142/142/142
f 145/145/145 137/137/137 146/146/146
f 147/147/147 148/148/148 149/149/149
f 137/137/137 150/150/150 146/146/146
f 150/150/150 61/61/61 151/151/151
f 136/136/136 139/139/139 150/150/150
f 62/62/62 48/48/48 140/140/140
f 62/62/62 140/140/140 141/141/141
f 62/62/62 141/141/141 142/142/142
f 62/62/62 142/142/142 144/144/144
f 63/63/63 146/146/146 151/151/151
f 63/63/63 151/151/151 61/61/61
f 128/128/128 137/137/137 152/152/152
f 123/123/123 135/135/135 132/132/132
f 121/121/121 128/128/128 153/153/153
f 112/112/112 114/114/114 125/125/125
f 120/120/120 34/34/34 66/66/66
f 119/119/119 121/121/121 154/154/154
f 102/102/102 116/116/116 118/118/118
f 102/102/102 155/155/155 113/113/113
f 154/154/154 121/121/121 156/156/156
f 157/157/157 119/119/119 154/154/154
f 102/102/102 118/118/118 155/155/155
f 101/101/101 116/116/116 102/102/102
f 158/158/158 105/105/105 104/104/104
f 1/1/1 101/101/101 100/100/100
f 110/110/110 22/22/22 21/21/21
f 129/129/129 66/66/66 77/77/77
f 120/120/120 66/66/66 129/129/129
f 129/129/129 139/139/139 138/138/138
f 128/128/128 127/127/127 138/138/138
f 139/139/139 78/78/78 61/61/61
f 129/129/129 77/77/77 139/139/139
f 133/133/133 134/134/134 143/143/143
f 133/133/133 143/143/143 142/142/142
f 139/139/139 61/61/61 150/150/150
f 137/137/137 136/136/136 150/150/150
f 159/159/159 160/160/160 161/161/161
f 160/160/160 159/159/159 162/162/162
f 160/160/160 163/163/163 164/164/164
f 164/164/164 161/161/161 160/160/160
f 165/165/165 166/166/166 167/167/167
f 167/167/167 168/168/168 165/165/165
f 162/162/162 169/169/169 160/160/160
f 169/169/169 162/162/162 170/170/170
f 169/169/169 171/171/171 163/163/163
f 163/163/163 160/160/160 169/169/169
f 165/165/165 172/172/172 166/166/166
f 165/165/165 173/173/173 174/174/174
f 170/170/170 149/149/149 169/169/169
f 149/149/149 170/170/170 175/175/175
f 149/149/149 148/148/148 169/169/169
f 171/171/171 169/169/169 148/148/148
f 176/176/176 177/177/177 172/172/172
f 176/176/176 174/174/174 178/178/178
f 172/172/172 174/174/174 176/176/176
f 175/175/175 147/147/147 149/149/149
f 174/174/174 172/172/172 165/165/165
f 165/165/165 168/168/168 173/173/173
f 179/179/179 61/61/61 78/78/78
f 180/180/180 181/181/181 182/182/182
f 182/182/182 183/183/183 180/180/180
f 181/181/181 184/184/184 185/185/185
f 185/185/185 182/182/182 181/181/181
f 183/183/183 182/182/182 186/186/186
f 186/186/186 187/187/187 183/183/183
f 182/182/182 185/185/185 188/188/188
f 188/188/188 186/186/186 182/182/182
f 187/187/187 186/186/186 189/189/189
f 189/189/189 190/190/190 187/187/187
f 186/186/186 188/188/188 191/191/191
f 191/191/191 189/189/189 186/186/186
f 190/190/190 189/189/189 192/192/192
f 192/192/192 193/193/193 190/190/190
f 189/189/189 191/191/191 194/194/194
f 194/194/194 192/192/192 189/189/189
f 193/193/193 192/192/192 195/195/195
f 195/195/195 196/196/196 193/193/193
f 192/192/192 194/194/194 197/197/197
f 197/197/197 195/195/195 192/192/192
f 198/198/198 199/199/199 200/200/200
f 199/199/199 198/198/198 201/201/201
f 202/202/202 203/203/203 204/204/204
f 204/204/204 205/205/205 202/202/202
f 206/206/206 198/198/198 207/207/207
f 200/200/200 207/207/207 198/198/198
f 208/208/208 204/204/204 209/209/209
f 204/204/204 208/208/208 205/205/205
f 210/210/210 206/206/206 211/211/211
f 207/207/207 211/211/211 206/206/206
f 212/212/212 208/208/208 209/209/209
f 209/209/209 213/213/213 212/212/212
f 211/211/211 214/214/214 210/210/210
f 213/213/213 215/215/215 212/212/212
f 210/210/210 214/214/214 216/216/216
f 215/215/215 213/213/213 216/216/216
f 180/180/180 217/217/217 218/218/218
f 217/217/217 180/180/180 183/183/183
f 218/218/218 185/185/185 184/184/184
f 185/185/185 218/218/218 217/217/217
f 183/183/183 219/219/219 217/217/217
f 219/219/219 183/183/183 187/187/187
f 217/217/217 188/188/188 185/185/185
f 188/188/188 217/217/217 219/219/219
f 187/187/187 220/220/220 219/219/219
f 220/220/220 187/187/187 190/190/190
f 219/219/219 191/191/191 188/188/188
f 191/191/191 219/219/219 220/220/220
f 190/190/190 221/221/221 220/220/220
f 221/221/221 190/190/190 193/193/193
f 220/220/220 194/194/194 191/191/191
f 194/194/194 220/220/220 221/221/221
f 193/193/193 222/222/222 221/221/221
f 222/222/222 193/193/193 196/196/196
f 221/221/221 197/197/197 194/194/194
f 197/197/197 221/221/221 222/222/222
f 198/198/198 223/223/223 224/224/224
f 224/224/224 201/201/201 198/198/198
f 225/225/225 204/204/204 203/203/203
f 204/204/204 225/225/225 226/226/226
f 206/206/206 227/227/227 198/198/198
f 223/223/223 198/198/198 227/227/227
f 226/226/226 228/228/228 204/204/204
f 209/209/209 204/204/204 228/228/228
f 206/206/206 229/229/229 227/227/227
f 229/229/229 206/206/206 210/210/210
f 230/230/230 213/213/213 209/209/209
f 209/209/209 228/228/228 230/230/230
f 210/210/210 231/231/231 229/229/229
f 213/213/213 230/230/230 232/232/232
f 210/210/210 216/216/216 231/231/231
f 232/232/232 216/216/216 213/213/213
f 76/76/76 4/4/4 233/233/233
f 9/9/9 234/234/234 10/10/10
f 10/10/10 234/234/234 235/235/235
f 233/233/233 4/4/4 236/236/236
f 76/76/76 233/233/233 237/237/237
f 9/9/9 238/238/238 234/234/234
f 235/235/235 234/234/234 239/239/239
f 240/240/240 236/236/236 241/241/241
f 236/236/236 240/240/240 233/233/233
f 237/237/237 233/233/233 240/240/240
f 240/240/240 242/242/242 237/237/237
f 239/239/239 238/238/238 243/243/243
f 238/238/238 239/239/239 234/234/234
f 242/242/242 240/240/240 244/244/244
f 240/240/240 241/241/241 245/245/245
f 245/245/245 244/244/244 240/240/240
f 241/241/241 242/242/242 246/246/246
f 246/246/246 245/245/245 241/241/241
f 247/247/247 248/248/248 244/244/244
f 244/244/244 245/245/245 247/247/247
f 249/249/249 250/250/250 248/248/248
f 248/248/248 247/247/247 249/249/249
f 251/251/251 252/252/252 250/250/250
f 250/250/250 249/249/249 251/251/251
f 253/253/253 254/254/254 252/252/252
f 252/252/252 251/251/251 253/253/253
f 254/254/254 253/253/253 255/255/255
f 10/10/10 235/235/235 75/75/75
f 236/236/236 4/4/4 6/6/6
f 1/1/1 103/103/103 101/101/101
f 8/8/8 110/110/110 256/256/256
f 104/104/104 117/117/117 116/116/116
f 104/104/104 116/116/116 101/101/101
f 256/256/256 110/110/110 108/108/108
f 106/106/106 117/117/117 104/104/104
f 103/103/103 158/158/158 104/104/104
f 256/256/256 108/108/108 107/107/107
f 28/28/28 257/257/257 29/29/29
f 28/28/28 25/25/25 257/257/257
f 257/257/257 25/25/25 26/26/26
f 257/257/257 26/26/26 29/29/29
f 25/25/25 37/37/37 40/40/40
f 40/40/40 38/38/38 29/29/29
f 42/42/42 40/40/40 29/29/29
f 25/25/25 40/40/40 42/42/42
f 45/45/45 44/44/44 46/46/46
f 44/44/44 59/59/59 46/46/46
f 258/258/258 126/126/126 135/135/135
f 258/258/258 135/135/135 123/123/123
f 124/124/124 258/258/258 123/123/123
f 124/124/124 126/126/126 258/258/258
f 5/5/5 69/69/69 259/259/259
f 260/260/260 19/19/19 18/18/18
f 72/72/72 260/260/260 18/18/18
f 5/5/5 259/259/259 74/74/74
f 73/73/73 72/72/72 18/18/18
f 5/5/5 68/68/68 7/7/7
f 261/261/261 262/262/262 263/263/263
f 264/264/264 265/265/265 266/266/266
f 267/267/267 268/268/268 269/269/269
f 267/267/267 270/270/270 268/268/268
f 271/271/271 272/272/272 273/273/273
f 261/261/261 274/274/274 262/262/262
f 271/271/271 261/261/261 275/275/275
f 276/276/276 277/277/277 278/278/278
f 264/264/264 276/276/276 278/278/278
f 279/279/279 265/265/265 264/264/264
f 279/279/279 280/280/280 265/265/265
f 271/271/271 279/279/279 281/281/281
f 271/271/271 281/281/281 272/272/272
f 267/267/267 282/282/282 283/283/283
f 284/284/284 263/263/263 285/285/285
f 281/281/281 278/278/278 286/286/286
f 283/283/283 280/280/280 279/279/279
f 281/281/281 279/279/279 278/278/278
f 270/270/270 283/283/283 271/271/271
f 270/270/270 271/271/271 275/275/275
f 271/271/271 273/273/273 261/261/261
f 284/284/284 261/261/261 263/263/263
f 275/275/275 261/261/261 284/284/284
f 275/275/275 284/284/284 285/285/285
f 283/283/283 279/279/279 271/271/271
f 283/283/283 282/282/282 280/280/280
f 283/283/283 270/270/270 267/267/267
f 282/282/282 267/267/267 269/269/269
f 279/279/279 264/264/264 278/278/278
f 276/276/276 264/264/264 266/266/266
f 261/261/261 273/273/273 274/274/274
f 262/262/262 274/274/274 287/287/287
f 273/273/273 288/288/288 274/274/274
f 274/274/274 288/288/288 287/287/287
f 289/289/289 263/263/263 262/262/262
f 290/290/290 266/266/266 265/265/265
f 291/291/291 269/269/269 268/268/268
f 291/291/291 268/268/268 270/270/270
f 292/292/292 273/273/273 272/272/272
f 289/289/289 262/262/262 293/293/293
f 292/292/292 275/275/275 289/289/289
f 276/276/276 294/294/294 277/277/277
f 290/290/290 294/294/294 276/276/276
f 295/295/295 290/290/290 265/265/265
f 295/295/295 265/265/265 280/280/280
f 292/292/292 281/281/281 295/295/295
f 292/292/292 272/272/272 281/281/281
f 291/291/291 296/296/296 282/282/282
f 297/297/297 285/285/285 263/263/263
f 281/281/281 286/286/286 294/294/294
f 296/296/296 295/295/295 280/280/280
f 281/281/281 294/294/294 295/295/295
f 270/270/270 292/292/292 296/296/296
f 270/270/270 275/275/275 292/292/292
f 292/292/292 289/289/289 273/273/273
f 297/297/297 263/263/263 289/289/289
f 275/275/275 297/297/297 289/289/289
f 275/275/275 285/285/285 297/297/297
f 296/296/296 292/292/292 295/295/295
f 296/296/296 280/280/280 282/282/282
f 296/296/296 291/291/291 270/270/270
f 282/282/282 269/269/269 291/291/291
f 295/295/295 294/294/294 290/290/290
f 276/276/276 266/266/266 290/290/290
f 289/289/289 293/293/293 273/273/273
f 262/262/262 287/287/287 293/293/293
f 273/273/273 293/293/293 288/288/288
f 293/293/293 287/287/287 288/288/288
f 298/298/298 299/299/299 300/300/300
f 301/301/301 302/302/302 303/303/303
f 304/304/304 305/305/305 306/306/306
f 304/304/304 306/306/306 307/307/307
f 308/308/308 309/309/309 310/310/310
f 298/298/298 300/300/300 311/311/311
f 308/308/308 312/312/312 298/298/298
f 313/313/313 314/314/314 315/315/315
f 301/301/301 314/314/314 313/313/313
f 316/316/316 301/301/301 303/303/303
f 316/316/316 303/303/303 317/317/317
f 308/308/308 318/318/318 316/316/316
f 308/308/308 310/310/310 318/318/318
f 304/304/304 319/319/319 320/320/320
f 321/321/321 322/322/322 299/299/299
f 318/318/318 323/323/323 314/314/314
f 319/319/319 316/316/316 317/317/317
f 318/318/318 314/314/314 316/316/316
f 307/307/307 308/308/308 319/319/319
f 307/307/307 312/312/312 308/308/308
f 308/308/308 298/298/298 309/309/309
f 321/321/321 299/299/299 298/298/298
f 312/312/312 321/321/321 298/298/298
f 312/312/312 322/322/322 321/321/321
f 319/319/319 308/308/308 316/316/316
f 319/319/319 317/317/317 320/320/320
f 319/319/319 304/304/304 307/307/307
f 320/320/320 305/305/305 304/304/304
f 316/316/316 314/314/314 301/301/301
f 313/313/313 302/302/302 301/301/301
f 298/298/298 311/311/311 309/309/309
f 300/300/300 324/324/324 311/311/311
f 309/309/309 311/311/311 325/325/325
f 311/311/311 324/324/324 325/325/325
f 326/326/326 300/300/300 299/299/299
f 327/327/327 303/303/303 302/302/302
f 328/328/328 306/306/306 305/305/305
f 328/328/328 307/307/307 306/306/306
f 329/329/329 310/310/310 309/309/309
f 326/326/326 330/330/330 300/300/300
f 329/329/329 326/326/326 312/312/312
f 313/313/313 315/315/315 331/331/331
f 327/327/327 313/313/313 331/331/331
f 332/332/332 303/303/303 327/327/327
f 332/332/332 317/317/317 303/303/303
f 329/329/329 332/332/332 318/318/318
f 329/329/329 318/318/318 310/310/310
f 328/328/328 320/320/320 333/333/333
f 334/334/334 299/299/299 322/322/322
f 318/318/318 331/331/331 323/323/323
f 333/333/333 317/317/317 332/332/332
f 318/318/318 332/332/332 331/331/331
f 307/307/307 333/333/333 329/329/329
f 307/307/307 329/329/329 312/312/312
f 329/329/329 309/309/309 326/326/326
f 334/334/334 326/326/326 299/299/299
f 312/312/312 326/326/326 334/334/334
f 312/312/312 334/334/334 322/322/322
f 333/333/333 332/332/332 329/329/329
f 333/333/333 320/320/320 317/317/317
f 333/333/333 307/307/307 328/328/328
f 320/320/320 328/328/328 305/305/305
f 332/332/332 327/327/327 331/331/331
f 313/313/313 327/327/327 302/302/302
f 326/326/326 309/309/309 330/330/330
f 300/300/300 330/330/330 324/324/324
f 309/309/309 325/325/325 330/330/330
f 330/330/330 325/325/325 324/324/324
