mtllib 0235000001.mtl
o 0235000001_part_0
v 0.130371884 1.42739141 0.288487
v 0.1597753 1.323779 0.322147071
v 0.310138077 1.37472486 0.221966356
v 0.2637108 1.48149645 0.1794823
v 0.347744823 1.33533907 0.0111816777
v 0.252966076 1.463589 0.0115557471
v -0.0410609767 1.4093554 0.2988329
v -0.05862336 1.25038052 0.3019494
v 0.136118874 1.44257116 -0.114503562
v 0.182646781 1.26858413 -0.172398627
v -0.194194824 1.36960137 0.185952216
v -0.254901856 1.32913888 0.000678791665
v -0.3328008 1.10946667 -0.00590701262
v -0.19347468 1.18558049 0.196326867
v -0.130208269 1.22882569 -0.125468612
v -0.14596732 1.04993057 -0.190449625
v -0.3328008 1.10946667 -0.00590701262
v -0.254901856 1.32913888 0.000678791665
v 0.018802572 1.2779274 -0.22435011
v 0.0429479629 1.44116247 -0.164376
v -0.149173439 1.42825341 -0.1246452
v 0.178742468 1.56650221 0.13432236
v 0.09417748 1.5845046 0.218835369
v 0.1719094 1.564727 0.02327718
v -0.0315790437 1.58780038 0.234568715
v 0.112210557 1.56464756 -0.06191828
v -0.117492177 1.56809378 0.172642469
v -0.143157184 1.54638278 0.0209007263
v -0.254901856 1.32913888 0.000678791665
v -0.143157184 1.54638278 0.0209007263
v 0.03697985 1.56310928 -0.100138813
v -0.07611645 1.5492034 -0.0604795367
v 0.1441266 1.18007386 0.374626845
v 0.16620715 0.96645546 0.447407067
v 0.362292856 0.9794075 0.27018708
v 0.320272684 1.16367626 0.242433563
v -0.06725053 1.15602362 0.4048739
v -0.090613395 0.9133897 0.485110044
v -0.331249923 0.720026433 0.02512822
v -0.254550874 0.8123473 0.298826069
v -0.186350554 1.05118942 0.257706642
v -0.2761257 0.946641445 0.02506935
v -0.1876619 0.8608969 -0.171098
v -0.216993138 0.6240381 -0.205052629
v -0.331249923 0.720026433 0.02512822
v -0.2761257 0.946641445 0.02506935
v 0.117919169 0.8398686 -0.338903964
v 0.11764925 0.574517548 -0.380299836
v 0.227449074 0.7607629 0.3967716
v 0.283312976 0.5738914 0.4290215
v 0.5354962 0.6564194 0.229987264
v 0.505153239 0.857357144 0.23625119
v 0.0126059018 0.488064826 0.453173131
v -0.0330484137 0.684195161 0.388657779
v -0.427081555 0.2756601 -0.002422365
v -0.2511334 0.38395977 0.274726659
v -0.229509681 0.5993163 0.20250535
v -0.363700956 0.4231654 -0.0536950268
v -0.139711857 0.0969266 -0.256373882
v -0.17507273 0.009293477 -0.296674967
v 0.160930768 0.0561896153 -0.3000879
v 0.05088813 0.9666252 -0.258258
v 0.119261727 1.16068912 -0.1850404
v 0.237334013 1.15585864 -0.139782608
v 0.258636475 0.942325 -0.18706283
v 0.303657919 1.152338 0.0134158339
v 0.354724318 0.9572086 -0.04905473
v 0.301623821 0.850165963 -0.294627845
v 0.365150064 0.6012432 -0.3334984
v 0.5338361 0.8969135 -0.1120861
v 0.5649453 0.6772413 -0.116272353
v -0.135084987 1.28010654 -0.125256881
v 0.162064418 1.58049643 0.202657923
v 0.1944686 1.587015 0.155993685
v 0.169915512 1.62481725 0.146951556
v 0.135982871 1.6277926 0.17808795
v 0.18295823 1.61953306 0.0502281226
v 0.18509759 1.6238513 0.101666689
v 0.2103096 1.59306693 0.108136095
v 0.208475024 1.58748448 0.05274889
v 0.10205242 1.58776653 0.216648981
v 0.0546945632 1.5740056 0.230870217
v 0.0674095452 1.51756144 0.267376155
v 0.128927067 1.54387224 0.243378565
v 0.172492489 1.61012053 0.00165629166
v 0.202577263 1.57316184 -0.0152018275
v 0.171713874 1.56540859 -0.06455586
v 0.139698073 1.60928988 -0.0473793522
v -0.216145247 1.44370818 0.109539323
v -0.187380373 1.44451809 0.200228438
v -0.154348627 1.51049984 0.18083553
v -0.174796745 1.51175153 0.105612509
v -0.109366618 1.55539262 -0.105396941
v -0.125125408 1.485441 -0.150610134
v -0.173723429 1.48249292 -0.104525164
v -0.148660436 1.54863036 -0.06946113
v -0.128013939 1.50631356 0.21520716
v -0.158843845 1.44175339 0.2360473
v -0.09273047 1.463765 0.300525337
v -0.08302923 1.521751 0.2631232
v -0.05510101 1.56904233 -0.133040637
v 0.003514376 1.57365274 -0.137902617
v 0.007235488 1.51890635 -0.186738849
v -0.05746674 1.51168549 -0.181397274
v 0.008564676 1.54420066 0.2727681
v -0.0545868054 1.52732217 0.270383835
v -0.05399955 1.464676 0.3107314
v 0.0351138227 1.48863482 0.29668346
v -0.211135328 1.46339953 -0.0349203534
v -0.243239462 1.46021485 0.05458814
v -0.209092975 1.52815592 0.0608164668
v -0.179866955 1.53282475 -0.0113100875
v 0.101140551 1.59040618 -0.09715525
v 0.12416134 1.55682862 -0.12711899
v 0.0764171258 1.54788268 -0.160118118
v 0.05129227 1.58816922 -0.128632292
vt 0.6110575 0.252704144
vt 0.6065504 0.193667352
vt 0.676689565 0.193712115
vt 0.6716177 0.2528367
vt 0.7386482 0.193512082
vt 0.737396955 0.252658129
vt 0.5673396 0.252903521
vt 0.5460774 0.193724513
vt 0.794786334 0.252703547
vt 0.8018937 0.193443775
vt 0.5138229 0.2530169
vt 0.465094447 0.253205419
vt 0.4005297 0.1939084
vt 0.478641242 0.193751872
vt 0.922709167 0.17994386
vt 0.926636636 0.09727639
vt 0.982335567 0.09793329
vt 0.9666285 0.180943251
vt 0.8492787 0.193651259
vt 0.8234452 0.252818584
vt 0.8899999 0.253050983
vt 0.667850137 0.3059156
vt 0.616850734 0.305981576
vt 0.7371543 0.3058383
vt 0.581242561 0.306045532
vt 0.7862424 0.3058464
vt 0.5463552 0.306126058
vt 0.5197533 0.306213677
vt 0.953854859 0.194686711
vt 0.902589738 0.306178749
vt 0.8147788 0.305889726
vt 0.8512869 0.3059621
vt 0.622044861 0.1792118
vt 0.6054993 0.09644687
vt 0.676435 0.09631097
vt 0.694599 0.178888679
vt 0.557110131 0.179490566
vt 0.53058666 0.0966056
vt 0.3948652 0.0963454843
vt 0.4542583 0.09650689
vt 0.49159804 0.1792295
vt 0.440265179 0.178880692
vt 0.931249857 0.07984781
vt 0.940648139 0.00581932068
vt 0.990069747 0.00590330362
vt 0.9921861 0.0803282261
vt 0.846915543 0.08255899
vt 0.8518006 0.00565123558
vt 0.5044387 0.08217019
vt 0.508028448 0.005590439
vt 0.59470433 0.00560081
vt 0.6037682 0.08221233
vt 0.424206972 0.005598545
vt 0.421295881 0.08222562
vt 0.207194164 0.005598128
vt 0.3200184 0.005605817
vt 0.337536454 0.0822398663
vt 0.2286052 0.08208412
vt 0.106121644 0.08206487
vt 0.0926418453 0.0056399107
vt 0.0177448336 0.04510379
vt 0.871388853 0.09670037
vt 0.8564558 0.179247558
vt 0.81491977 0.179050148
vt 0.80631727 0.09636605
vt 0.764627 0.178889215
vt 0.7518406 0.09629464
vt 0.7889798 0.08245617
vt 0.774117649 0.00562489033
vt 0.700619757 0.0824043751
vt 0.6894916 0.005638063
vt 0.9136018 0.194078743
vt 0.622530937 0.4568562
vt 0.6984552 0.45621717
vt 0.691726267 0.519585
vt 0.6271907 0.5198246
vt 0.691899061 0.51962316
vt 0.625564456 0.519560754
vt 0.6201086 0.45765996
vt 0.6974476 0.455698669
vt 0.6912233 0.5174661
vt 0.626967847 0.5192115
vt 0.623916566 0.458106637
vt 0.697625339 0.456373453
vt 0.6267175 0.5197586
vt 0.6223217 0.458244145
vt 0.6973957 0.455472469
vt 0.691305161 0.519904256
vt 0.6213549 0.457143664
vt 0.696754336 0.4566505
vt 0.692060947 0.518811941
vt 0.6267586 0.520235658
vt 0.6257704 0.520575762
vt 0.620797634 0.458345175
vt 0.6975778 0.4560033
vt 0.6923514 0.5193813
vt 0.6267651 0.5193733
vt 0.6216482 0.4584977
vt 0.6962456 0.4580891
vt 0.6911426 0.519095
vt 0.6923437 0.5179448
vt 0.626698 0.519569
vt 0.621591747 0.457636952
vt 0.6969621 0.455798566
vt 0.692955554 0.51803416
vt 0.625177 0.519749939
vt 0.622734666 0.457666636
vt 0.698134 0.457488954
vt 0.62199676 0.4561631
vt 0.6973962 0.4556203
vt 0.691940546 0.518587768
vt 0.625837862 0.5196512
vt 0.6267175 0.5197586
vt 0.6223217 0.458244145
vt 0.6973957 0.455472469
vt 0.691305161 0.519904256
vn 0.237480223 0.395122975 0.8874013
vn 0.181215376 0.290221065 0.939645
vn 0.7123017 0.485809267 0.5065725
vn 0.7150068 0.6038685 0.352289766
vn 0.773438931 0.5041438 -0.3842282
vn 0.7337176 0.558616638 -0.386789232
vn -0.326730341 0.215716213 0.920170546
vn -0.4636506 0.06853807 0.883363247
vn 0.5105547 0.396084756 -0.763184667
vn 0.4550249 0.3883341 -0.801341951
vn -0.8021859 0.224552229 0.553239644
vn -0.918908536 0.322213352 -0.2275647
vn -0.8909341 0.2910979 -0.348566264
vn -0.7510789 0.04200224 0.658875048
vn -0.4454524 0.322123647 -0.8353493
vn -0.345958471 0.347102046 -0.871683955
vn -0.8909341 0.2910979 -0.348566264
vn -0.918908536 0.322213352 -0.2275647
vn -0.0202849638 0.283545673 -0.958744168
vn 0.124151185 0.4041038 -0.9062486
vn -0.600820065 0.342393219 -0.7223449
vn 0.492728919 0.8648777 0.09594131
vn 0.227887228 0.8445338 0.484592736
vn 0.479133666 0.8531133 -0.206467018
vn -0.2263887 0.7997773 0.555971563
vn 0.350652277 0.810309649 -0.4695117
vn -0.5956846 0.7439655 0.302779168
vn -0.62672 0.7626072 -0.160163075
vn -0.918908536 0.322213352 -0.2275647
vn -0.62672 0.7626072 -0.160163075
vn 0.00288263056 0.792619944 -0.6097092
vn -0.337631345 0.814081 -0.472522169
vn 0.37911883 0.319884449 0.8682988
vn 0.342006624 0.3276786 0.8807146
vn 0.8764089 0.2876106 0.3862481
vn 0.8827435 0.260221064 0.391214728
vn -0.3264378 0.349220842 0.878341138
vn -0.489946961 0.315865368 0.812515259
vn -0.9463343 0.235123679 -0.221739143
vn -0.904934764 0.296625644 0.3051332
vn -0.882532537 0.3013144 0.361034632
vn -0.9712778 0.23625657 -0.0283250939
vn -0.7100315 0.194024131 -0.676912069
vn -0.640715837 0.175650626 -0.7474156
vn -0.9463343 0.235123679 -0.221739143
vn -0.9712778 0.23625657 -0.0283250939
vn -0.125194073 0.1617047 -0.9788657
vn -0.127217487 0.166075662 -0.9778725
vn 0.2660949 0.226941109 0.9368518
vn 0.2791096 0.243730485 0.928812861
vn 0.8226234 0.152555272 0.5477387
vn 0.84944135 0.112197742 0.5156172
vn -0.34167546 0.19161272 0.920077443
vn -0.398512721 0.24643223 0.8834358
vn -0.898906648 0.247211561 -0.361736447
vn -0.7844925 0.232817352 0.5747762
vn -0.797159255 0.2937361 0.5275
vn -0.9210076 0.317089945 -0.226271987
vn -0.2781306 0.445394665 -0.851038754
vn -0.216528311 0.478674561 -0.850873768
vn -0.0705212 0.4401267 -0.895162165
vn 0.09463464 0.31479004 -0.944431841
vn 0.151794657 0.301643074 -0.9412597
vn 0.685863435 0.217254117 -0.694544435
vn 0.6065002 0.277173817 -0.7452061
vn 0.9369539 0.2587239 -0.2349027
vn 0.8672293 0.342622042 -0.361280322
vn 0.381316066 0.221693531 -0.8974687
vn 0.401920855 0.205547214 -0.89230597
vn 0.912878752 0.181991458 -0.365419656
vn 0.9268966 0.137915477 -0.349058867
vn -0.6289087 -0.0566062666 -0.7754158
vn 0.6090119 0.576632142 0.544609845
vn 0.6493205 0.5479026 0.527433157
vn 0.608008265 0.5773128 0.54501
vn 0.567053139 0.6037654 0.5602839
vn 0.7814064 0.6179789 -0.08663801
vn 0.779517 0.620652 -0.08452385
vn 0.780873 0.6187362 -0.08603989
vn 0.7826457 0.6162111 -0.0880312547
vn 0.08607124 0.5552425 0.827222764
vn 0.0872563049 0.554788232 0.827403367
vn 0.0860218853 0.555261433 0.8272152
vn 0.08497286 0.5556627 0.827054143
vn 0.6040825 0.6571279 -0.450851619
vn 0.5716237 0.6768607 -0.463795155
vn 0.607847869 0.6547301 -0.4492766
vn 0.636777163 0.635504246 -0.4366339
vn -0.8281227 0.503752351 0.245858461
vn -0.831004262 0.492195129 0.2591831
vn -0.828511655 0.5022613 0.247592419
vn -0.8250724 0.514817536 0.232848525
vn -0.610859632 0.5322657 -0.586126
vn -0.6023598 0.524576247 -0.601649761
vn -0.60789156 0.529579759 -0.591619134
vn -0.6173707 0.5381613 -0.5737908
vn -0.697884 0.482540846 0.5292563
vn -0.6845923 0.498569816 0.531753242
vn -0.7003654 0.4794829 0.528757453
vn -0.716803432 0.4586734 0.525177658
vn -0.122965395 0.6501631 -0.7497783
vn -0.113497421 0.6570703 -0.7452362
vn -0.125281781 0.6484554 -0.7508729
vn -0.1339702 0.6419873 -0.754920065
vn -0.05341739 0.4641066 0.8841672
vn -0.1735041 0.5321075 0.8287086
vn -0.06905902 0.473505974 0.8780791
vn 0.03388497 0.4087239 0.912028849
vn -0.8353941 0.463388473 -0.295614362
vn -0.8450785 0.451043457 -0.2870576
vn -0.836666167 0.461794466 -0.294509
vn -0.8257378 0.4752307 -0.3038304
vn 0.319740623 0.722220361 -0.613321841
vn 0.2835509 0.7393631 -0.610689044
vn 0.323976278 0.7201212 -0.6135673
vn 0.3567968 0.703176737 -0.615011
usemtl 0235000001_part_0_material_0
f 1/1/1 2/2/2 3/3/3
f 3/3/3 4/4/4 1/1/1
f 4/4/4 3/3/3 5/5/5
f 5/5/5 6/6/6 4/4/4
f 7/7/7 8/8/8 2/2/2
f 2/2/2 1/1/1 7/7/7
f 9/9/9 6/6/6 5/5/5
f 5/5/5 10/10/10 9/9/9
f 11/11/11 12/12/12 13/13/13
f 13/13/13 14/14/14 11/11/11
f 15/15/15 16/16/16 17/17/17
f 17/17/17 18/18/18 15/15/15
f 7/7/7 11/11/11 14/14/14
f 14/14/14 8/8/8 7/7/7
f 9/9/9 10/10/10 19/19/19
f 19/19/19 20/20/20 9/9/9
f 21/21/21 20/20/20 19/19/19
f 4/4/4 22/22/22 23/23/23
f 23/23/23 1/1/1 4/4/4
f 4/4/4 6/6/6 24/24/24
f 24/24/24 22/22/22 4/4/4
f 1/1/1 23/23/23 25/25/25
f 25/25/25 7/7/7 1/1/1
f 6/6/6 9/9/9 26/26/26
f 26/26/26 24/24/24 6/6/6
f 12/12/12 11/11/11 27/27/27
f 27/27/27 28/28/28 12/12/12
f 21/21/21 29/29/29 30/30/30
f 25/25/25 27/27/27 11/11/11
f 11/11/11 7/7/7 25/25/25
f 9/9/9 20/20/20 31/31/31
f 31/31/31 26/26/26 9/9/9
f 20/20/20 21/21/21 32/32/32
f 32/32/32 31/31/31 20/20/20
f 33/33/33 34/34/34 35/35/35
f 35/35/35 36/36/36 33/33/33
f 37/37/37 38/38/38 34/34/34
f 34/34/34 33/33/33 37/37/37
f 39/39/39 40/40/40 41/41/41
f 41/41/41 42/42/42 39/39/39
f 43/43/43 44/44/44 45/45/45
f 45/45/45 46/46/46 43/43/43
f 40/40/40 38/38/38 37/37/37
f 37/37/37 41/41/41 40/40/40
f 47/47/47 48/48/48 44/44/44
f 44/44/44 43/43/43 47/47/47
f 49/49/49 50/50/50 51/51/51
f 51/51/51 52/52/52 49/49/49
f 53/53/53 50/50/50 49/49/49
f 49/49/49 54/54/54 53/53/53
f 55/55/55 56/56/56 57/57/57
f 57/57/57 58/58/58 55/55/55
f 59/59/59 60/60/60 55/55/55
f 55/55/55 58/58/58 59/59/59
f 56/56/56 53/53/53 54/54/54
f 54/54/54 57/57/57 56/56/56
f 61/61/61 60/60/60 59/59/59
f 62/62/62 63/63/63 64/64/64
f 64/64/64 65/65/65 62/62/62
f 30/30/30 32/32/32 21/21/21
f 65/65/65 64/64/64 66/66/66
f 66/66/66 67/67/67 65/65/65
f 35/35/35 67/67/67 66/66/66
f 66/66/66 36/36/36 35/35/35
f 48/48/48 47/47/47 68/68/68
f 68/68/68 69/69/69 48/48/48
f 69/69/69 68/68/68 70/70/70
f 70/70/70 71/71/71 69/69/69
f 51/51/51 71/71/71 70/70/70
f 70/70/70 52/52/52 51/51/51
f 62/62/62 16/16/16 15/15/15
f 15/15/15 63/63/63 62/62/62
f 29/29/29 21/21/21 72/72/72
f 72/72/72 21/21/21 19/19/19
f 31/31/31 32/32/32 30/30/30
f 31/31/31 30/30/30 27/27/27
f 26/26/26 31/31/31 27/27/27
f 26/26/26 27/27/27 25/25/25
f 24/24/24 26/26/26 25/25/25
f 24/24/24 25/25/25 23/23/23
f 22/22/22 24/24/24 23/23/23
f 73/73/73 74/74/74 75/75/75
f 75/75/75 76/76/76 73/73/73
f 77/77/77 78/78/78 79/79/79
f 79/79/79 80/80/80 77/77/77
f 81/81/81 82/82/82 83/83/83
f 83/83/83 84/84/84 81/81/81
f 85/85/85 86/86/86 87/87/87
f 87/87/87 88/88/88 85/85/85
f 89/89/89 90/90/90 91/91/91
f 91/91/91 92/92/92 89/89/89
f 93/93/93 94/94/94 95/95/95
f 95/95/95 96/96/96 93/93/93
f 97/97/97 98/98/98 99/99/99
f 99/99/99 100/100/100 97/97/97
f 101/101/101 102/102/102 103/103/103
f 103/103/103 104/104/104 101/101/101
f 105/105/105 106/106/106 107/107/107
f 107/107/107 108/108/108 105/105/105
f 109/109/109 110/110/110 111/111/111
f 111/111/111 112/112/112 109/109/109
f 113/113/113 114/114/114 115/115/115
f 115/115/115 116/116/116 113/113/113
