mtllib 0676000000.mtl
o 0676000000_part_0
v 0.2509052 0.009500892 0.242181316
v 0.000750079344 -0.0530664735 0.290030748
v 0.2347972 -0.107283942 0.008474023
v 0.0007500794 -0.147651374 0.0215591956
v 0.2347972 -0.107283942 0.008474023
v 0.000750079344 -0.0530664735 0.290030748
v 0.000750079344 -0.06204421 -0.2720932
v 0.244566157 0.009857099 -0.242885023
v 0.000750079344 -0.06204421 -0.2720932
v 0.278322369 0.6021063 -0.05103318
v 0.000750079344 0.7810203 -0.0193229187
v 0.19219771 0.6171296 0.1679543
v 0.249615356 0.486562967 0.235859275
v 0.00134098856 0.577197969 0.451826781
v 0.190446958 0.6186962 -0.18837826
v 0.357750118 0.4498309 -0.0299325231
v 0.2577563 0.478904426 -0.2682054
v 0.253043562 0.1433535 0.551607668
v 0.5040034 0.216587871 0.373729557
v 0.000791409053 0.113216408 0.5883714
v 0.2720258 0.482187748 0.5409304
v 0.000791409053 0.5520491 0.6299498
v 0.5577453 0.204713285 0.2113933
v 0.421667248 0.007596449 -0.004918155
v 0.5943487 0.186594769 -0.04072629
v 0.4633028 0.227931485 -0.377134144
v 0.39359194 0.398994863 0.297324836
v 0.4942174 0.337287277 -0.0349526927
v 0.347928971 0.3879607 -0.33697015
v 0.216659352 0.255578816 -0.5489902
v 0.000791409053 0.04324317 -0.459178865
v 0.000791409053 0.277457058 -0.5937642
v 0.000791409053 0.412565649 -0.501502633
v 0.00124249165 0.672564864 0.241159722
v 0.000791409053 0.5081925 -0.377555
v 0.00124249165 0.679131031 -0.248563021
v 0.189504579 1.00110328 0.135539144
v 0.0266982466 1.0288316 0.201129511
v 0.19219771 0.6171296 0.1679543
v 0.00124249165 0.672564864 0.241159722
v 0.3244251 1.39604425 0.0545891747
v 0.09171716 1.4745723 0.120179527
v 0.384308517 1.80924726 -0.0493726656
v 0.107515521 1.83697557 0.0162176937
v 0.3350718 2.21080852 -0.0354561768
v 0.120800048 2.237883 0.0301342141
v 0.3374119 1.01857662 -0.111442439
v 0.300937533 1.02035785 0.20690833
v 0.19219771 0.6171296 0.1679543
v 0.278322369 0.6021063 -0.05103318
v 0.5942383 1.26878858 -0.158364177
v 0.592497945 1.2705698 0.242269322
v 0.7426133 1.29555178 -0.177800372
v 0.7104736 1.292205 0.255191535
v 0.892172158 1.3225286 -0.197391644
v 1.03320348 1.10181928 -0.174155265
v 1.00686681 1.13243055 0.274334431
v 0.885538042 1.32430971 0.274366826
v 1.12331223 0.9608022 -0.15930891
v 0.9056458 0.6711387 -0.1427945
v 0.8261246 0.7120504 0.237835824
v 1.11426449 0.962583363 0.2743058
v 0.5884068 0.802318633 -0.02885355
v 0.5841281 0.804099858 0.138794258
v 0.36684674 2.53854823 0.152396336
v 0.1769948 2.566277 0.217986733
v 0.170272931 1.02105236 -0.271059155
v 0.268176049 1.01543927 -0.115523957
v 0.278322369 0.6021063 -0.05103318
v 0.190446958 0.6186962 -0.18837826
v 0.170272931 1.38729048 -0.310416281
v 0.266230881 1.38202059 -0.1679152
v 0.170272931 1.80635786 -0.33887437
v 0.257122964 1.801088 -0.207171753
v 0.170272931 2.22372961 -0.397329
v 0.2490073 2.21845961 -0.272457451
v 0.0417083167 0.983219564 -0.355145037
v 0.237260357 0.9410001 -0.3012209
v 0.190446958 0.6186962 -0.18837826
v 0.00124249165 0.679131031 -0.248563021
v 0.124681279 1.52750409 -0.467993736
v 0.4647252 1.48845923 -0.414069563
v 0.202655286 1.91804922 -0.4679938
v 0.405856073 1.863724 -0.414069623
v 0.220656291 2.41977286 -0.5707761
v 0.3901792 2.36562443 -0.516851962
v -0.249405012 0.009500892 0.242181316
v -0.233297035 -0.107283942 0.008474023
v -0.233297035 -0.107283942 0.008474023
v -0.243066 0.009857099 -0.242885023
v -0.275837362 0.6128235 -0.0245296564
v -0.189712733 0.617129445 0.1679543
v -0.24803254 0.486562967 0.235859275
v -0.187961981 0.618659139 -0.176809549
v -0.2561735 0.478904426 -0.2682054
v -0.356167316 0.4498309 -0.0299325231
v -0.251460731 0.1433535 0.551607668
v -0.5024206 0.216587871 0.373729557
v -0.270442963 0.442085445 0.5492576
v -0.5595266 0.204943165 0.21528706
v -0.4201671 0.007596449 -0.004918155
v -0.5927659 0.186594769 -0.04072629
v -0.4510243 0.227931485 -0.3776723
v -0.400208771 0.406840533 0.296007633
v -0.504570544 0.34329325 -0.0349500738
v -0.319331259 0.394155651 -0.348660171
v -0.242948115 0.253711849 -0.551907659
v -0.188004389 1.00110352 0.135539174
v -0.189712733 0.617129445 0.1679543
v 0.00302475621 1.02883184 0.201129526
v -0.337226123 1.50102854 0.0545892045
v -0.0418546945 1.52875686 0.120179564
v -0.4476457 1.99355757 -0.117791131
v -0.09175032 2.021286 -0.00482449261
v -0.333367616 2.66054225 -0.137436792
v -0.0760590062 2.688271 -0.07184637
v -0.335911751 1.0185765 -0.09936318
v -0.189712733 0.617129445 0.1679543
v -0.299437374 1.02035773 0.167662784
v -0.275837362 0.6128235 -0.0245296564
v -0.679607153 1.28004646 -0.116545022
v -0.6877432 1.28182757 0.186405137
v -0.977540731 1.33378613 -0.193820119
v -0.9830749 1.33556736 0.244505033
v -1.20868111 0.972059965 -0.205529615
v -1.084645 1.17493665 0.2769745
v -1.21180153 0.973841131 0.317623317
v -1.1047616 1.1346904 -0.200265065
v -0.9910148 0.6824335 -0.122423321
v -1.05434608 0.835669339 0.285925746
v -0.9236617 0.720990241 0.2596175
v -1.08718264 0.8103944 -0.15914081
v -0.6737758 0.8135763 -0.02885354
v -0.669497 0.8153575 0.138794243
v -0.311509073 3.07573 0.0222417191
v -0.121657215 3.103459 0.0878321
v -0.168772787 1.02105224 -0.271059126
v -0.275837362 0.6128235 -0.0245296564
v -0.2666759 1.01543915 -0.115523942
v -0.187961981 0.618659139 -0.176809549
v -0.168772787 1.38729048 -0.310416281
v -0.264730722 1.38202059 -0.16791518
v -0.1687728 1.80635774 -0.33887434
v -0.2556228 1.80108786 -0.207171738
v -0.168772817 2.22372937 -0.397328973
v -0.24750717 2.21845961 -0.272457421
v -0.04020819 0.983219445 -0.355145
v -0.187961981 0.618659139 -0.176809549
v -0.2357602 0.941 -0.301220834
v -0.0739438 1.38831818 -0.467993677
v -0.306145161 1.34927344 -0.414069533
v -0.15968585 1.72281158 -0.467993736
v -0.3628866 1.66848648 -0.414069563
v -0.2181363 2.07005453 -0.570776045
v -0.387659162 2.015906 -0.5168519
v -0.1904149 1.0011034 -0.0716907755
v -0.184028208 0.6171296 0.140533209
v 0.0173384286 1.02883172 0.0850341246
v -0.0161196515 0.672564864 0.1879705
v -0.126994535 1.411538 -0.2078327
v -0.00278992648 1.43926644 -0.111514755
v -0.126994565 1.75559127 -0.3649553
v 0.02176735 1.78331983 -0.34403944
v 0.226533771 0.969520569 -0.100350119
v 0.0396165438 0.993734837 0.0378828421
v 0.244284987 0.678539038 0.0469158627
v 0.04657047 0.7032781 0.158672944
v 0.171043083 1.123991 -0.243810326
v -0.0231524482 1.14820528 -0.15174441
v 0.161746278 1.4644196 -0.39188236
v -0.01130664 1.48863411 -0.366823256
v -0.179385915 1.0011034 -0.238929629
v -0.172999233 0.6171295 -0.0267056674
v 0.0283674058 1.02883172 -0.0822047442
v -0.00509067625 0.672564864 0.0207315963
v -0.115965575 1.411538 -0.3750716
v 0.00823904853 1.43926656 -0.278753638
v -0.115965582 1.75559127 -0.5321942
v 0.032796327 1.78331983 -0.5112783
vt 0.562404 0.0942587256
vt 0.4697057 0.07073432
vt 0.694361866 0.0142976642
vt 0.8737876 0.1328857
vt 0.9374057 0.117937148
vt 0.8527108 0.0591918826
vt 0.879761338 0.0674862862
vt 0.8487497 0.106075823
vt 0.8982893 0.2130624
vt 0.707542658 0.430987477
vt 0.6941416 0.5387212
vt 0.6238793 0.437117815
vt 0.594545 0.349424243
vt 0.494780421 0.4097998
vt 0.7721653 0.440401077
vt 0.707333863 0.3309313
vt 0.8087262 0.35240382
vt 0.458246768 0.166536212
vt 0.5500349 0.213628769
vt 0.381982684 0.163677454
vt 0.451023877 0.276873231
vt 0.370417476 0.317230642
vt 0.617764056 0.205484807
vt 0.712224364 0.07174671
vt 0.721106768 0.19305855
vt 0.894596756 0.222298384
vt 0.5747014 0.2888837
vt 0.713739634 0.2668069
vt 0.857262433 0.27886492
vt 0.948981464 0.252764344
vt 0.9635583 0.158200741
vt 0.9920178 0.276873
vt 0.9413391 0.3279196
vt 0.556676447 0.4950971
vt 0.876443446 0.393286347
vt 0.825481534 0.486255527
vt 0.7007578 0.8551183
vt 0.6978808 0.7247976
vt 0.9064069 0.844505548
vt 0.9072763 0.7150844
vt 0.55793196 0.854531944
vt 0.5577789 0.7255923
vt 0.3748443 0.8451877
vt 0.372798353 0.7181409
vt 0.166620567 0.841506958
vt 0.165225819 0.718505263
vt 0.6629123 0.7067073
vt 0.6795554 0.5782068
vt 0.9160328 0.5820202
vt 0.921597 0.7048096
vt 0.5106698 0.718108535
vt 0.53060776 0.5617589
vt 0.4562262 0.7132064
vt 0.4866776 0.56368953
vt 0.401348174 0.7082651
vt 0.3278538 0.7020139
vt 0.3543788 0.562140167
vt 0.421489567 0.5665544
vt 0.280896246 0.6980198
vt 0.148752779 0.701551855
vt 0.168468744 0.5687176
vt 0.29497388 0.5582328
vt 0.0126892924 0.7026081
vt 0.0290662646 0.5849758
vt 0.0123630157 0.840710461
vt 0.0109683266 0.7479946
vt 0.612309337 0.9901103
vt 0.626486242 0.8687137
vt 0.8994473 0.8798319
vt 0.8871318 0.9937985
vt 0.417240262 0.9923231
vt 0.430454254 0.861999333
vt 0.273254365 0.9899394
vt 0.238264322 0.852978
vt 0.00652150065 0.982689738
vt 0.0169442073 0.8611518
vt 0.6401999 0.856081843
vt 0.6565323 0.728478551
vt 0.9065316 0.7198027
vt 0.8831713 0.837793767
vt 0.4559499 0.8527695
vt 0.467818856 0.7165413
vt 0.2365747 0.837225556
vt 0.258989125 0.7150315
vt 0.0225451291 0.8338735
vt 0.0269768 0.7289869
vt 0.562404 0.0942587256
vt 0.694361866 0.0142976642
vt 0.9374057 0.117937148
vt 0.8487497 0.106075823
vt 0.707542658 0.430987477
vt 0.6238793 0.437117815
vt 0.594545 0.349424243
vt 0.7721653 0.440401077
vt 0.8087262 0.35240382
vt 0.707333863 0.3309313
vt 0.458246768 0.166536212
vt 0.5500349 0.213628769
vt 0.451023877 0.276873231
vt 0.616452932 0.205642462
vt 0.712224364 0.07174671
vt 0.721106768 0.19305855
vt 0.894596756 0.222298384
vt 0.5751267 0.290181041
vt 0.7137363 0.266840339
vt 0.8427214 0.300896466
vt 0.945309 0.25070703
vt 0.7007578 0.8551183
vt 0.9064069 0.844505548
vt 0.6978808 0.7247976
vt 0.55793196 0.854531944
vt 0.5577789 0.7255923
vt 0.3748443 0.8451877
vt 0.372798353 0.7181409
vt 0.166620567 0.841506958
vt 0.165225819 0.718505263
vt 0.6629123 0.7067073
vt 0.9160328 0.5820202
vt 0.6795554 0.5782068
vt 0.921597 0.7048096
vt 0.5106698 0.718108535
vt 0.53060776 0.5617589
vt 0.401348174 0.7082651
vt 0.421489567 0.5665544
vt 0.280896246 0.6980198
vt 0.365308076 0.562859058
vt 0.29497388 0.5582328
vt 0.335050851 0.70262605
vt 0.148752779 0.701551855
vt 0.225844473 0.5639623
vt 0.168468744 0.5687176
vt 0.207135558 0.699991345
vt 0.0126892924 0.7026081
vt 0.0290662646 0.5849758
vt 0.0123630157 0.840710461
vt 0.0109683266 0.7479946
vt 0.612309337 0.9901103
vt 0.8994473 0.8798319
vt 0.626486242 0.8687137
vt 0.8871318 0.9937985
vt 0.417240262 0.9923231
vt 0.430454254 0.861999333
vt 0.273254365 0.9899394
vt 0.238264322 0.852978
vt 0.00652150065 0.982689738
vt 0.0169442073 0.8611518
vt 0.6401999 0.856081843
vt 0.9065316 0.7198027
vt 0.6565323 0.728478551
vt 0.4559499 0.8527695
vt 0.467818856 0.7165413
vt 0.2365747 0.837225556
vt 0.258989125 0.7150315
vt 0.0225451291 0.8338735
vt 0.0269768 0.7289869
vt 0.322344929 0.5382569
vt 0.446764648 0.534449458
vt 0.32220456 0.433859885
vt 0.441843629 0.433586121
vt 0.1642669 0.519165754
vt 0.164280623 0.424899817
vt 0.0120796552 0.5271688
vt 0.000927934656 0.436491966
vt 0.298283935 0.545757353
vt 0.3087395 0.430485129
vt 0.4506328 0.5371562
vt 0.443433285 0.430359125
vt 0.186677292 0.542322755
vt 0.195861027 0.430018067
vt 0.010360742 0.541401446
vt 0.01770276 0.437716424
vt 0.322344929 0.5382569
vt 0.446764648 0.534449458
vt 0.32220456 0.433859885
vt 0.441843629 0.433586121
vt 0.1642669 0.519165754
vt 0.164280623 0.424899817
vt 0.0120796552 0.5271688
vt 0.000927934656 0.436491966
vn 0.3962003 -0.8340411 0.383928031
vn -1.23795771E-05 -0.89903605 0.437874645
vn 0.367801279 -0.929827332 0.011973802
vn 2.98062061E-11 -0.999319732 0.03687934
vn 0.367801279 -0.929827332 0.011973802
vn -1.23795771E-05 -0.89903605 0.437874645
vn -1.76296326E-05 -0.9067289 -0.421713948
vn 0.4028321 -0.7923021 -0.458239853
vn -1.76296326E-05 -0.9067289 -0.421713948
vn 0.9060024 0.415077269 -0.0828885958
vn 0.00320609123 0.9999073 -0.0132310074
vn 0.7271112 0.5054642 0.464559138
vn 0.613132954 0.7666563 0.190541655
vn -0.0365272 0.9712989 0.2350411
vn 0.642947853 0.434903949 -0.630457461
vn 0.7248713 0.687702 -0.0403438061
vn 0.543974161 0.7077303 -0.45078817
vn 0.372973651 -0.491919249 0.786705852
vn 0.865195155 -0.166393265 0.473022878
vn 0.00386632164 -0.552474856 0.8335206
vn 0.5435265 0.5796467 0.60711503
vn -0.0262297038 0.634827852 0.7722083
vn 0.954454839 -0.117458768 0.274261624
vn 0.5983635 -0.800981939 -0.0197244752
vn 0.985729039 -0.118511274 -0.119554766
vn 0.765379 -0.07141441 -0.639605343
vn 0.686652541 0.718199253 0.112686142
vn 0.74991703 0.6577383 -0.07074379
vn 0.5523834 0.6669551 -0.5000434
vn 0.475882649 0.04337638 -0.8784385
vn 0.0119269928 -0.741606 -0.670729637
vn 0.0162515044 0.0665661544 -0.99764967
vn 0.00606701663 0.7079048 -0.7062818
vn -0.00468796724 0.710452259 0.7037298
vn -0.00230748765 0.7272238 -0.686396539
vn -0.0237700734 0.3827885 -0.923530161
vn 0.382915765 0.06925522 0.9211836
vn 0.369062245 0.08082636 0.9258835
vn 0.7271112 0.5054642 0.464559138
vn -0.00468796724 0.710452259 0.7037298
vn 0.325359941 0.14780198 0.9339676
vn 0.3021105 0.173792958 0.937296748
vn 0.256378144 0.118754044 0.9592537
vn 0.250433981 0.118270904 0.9608823
vn 0.24227871 -0.2421047 0.939513862
vn 0.248342708 -0.297850668 0.9217434
vn 0.851240456 -0.505420864 0.141207173
vn 0.845326364 -0.5283853 0.07894526
vn 0.7271112 0.5054642 0.464559138
vn 0.9060024 0.415077269 -0.0828885958
vn 0.422329 -0.906169 0.02227031
vn 0.4148604 -0.9098646 0.006103247
vn 0.178335026 -0.9839546 0.00546790054
vn 0.179592267 -0.9837232 0.005934511
vn -0.412737876 -0.910846055 -0.00262539927
vn -0.842495263 -0.5385768 -0.011696768
vn -0.8447686 -0.5349509 -0.0139127662
vn -0.417454123 -0.9086901 -0.00378890755
vn -0.9997624 0.009478929 -0.0196289718
vn -0.368920952 0.925056 -0.09038146
vn -0.177274615 0.974517 -0.137442216
vn -0.993707657 0.0732582 -0.08472468
vn 0.367477149 0.9299446 -0.012791601
vn 0.355827153 0.9345514 -0.000847892545
vn 0.206745729 -0.5089707 0.835586667
vn 0.212625846 -0.5123418 0.83204335
vn 0.8430546 -0.0603943467 -0.5344263
vn 0.8415126 -0.06250604 -0.5366093
vn 0.9060024 0.415077269 -0.0828885958
vn 0.642947853 0.434903949 -0.630457461
vn 0.829815149 -0.05294169 -0.5555214
vn 0.8276634 -0.05786544 -0.5582337
vn 0.8317653 -0.0575087667 -0.552140653
vn 0.833852232 -0.05224496 -0.5495097
vn 0.8399346 -0.0695543438 -0.5382119
vn 0.8427002 -0.06717037 -0.534176469
vn 0.1979089 -0.283890069 -0.938210249
vn 0.180881768 -0.293148339 -0.9388002
vn 0.642947853 0.434903949 -0.630457461
vn -0.0237700734 0.3827885 -0.923530161
vn 0.148711234 -0.14176932 -0.97866565
vn 0.157144874 -0.13093476 -0.9788573
vn 0.20598346 -0.109618738 -0.9723963
vn 0.246605769 -0.0518400744 -0.9677284
vn 0.230887979 -0.191919059 -0.9538647
vn 0.242922351 -0.187325209 -0.951786757
vn -0.394522518 -0.8346349 0.3843652
vn -0.367801279 -0.929827332 0.011973802
vn -0.367801279 -0.929827332 0.011973802
vn -0.407936424 -0.794101238 -0.450545341
vn -0.9083224 0.417898446 -0.01764456
vn -0.705288231 0.5171258 0.484922051
vn -0.5920392 0.774148 0.224018916
vn -0.6573419 0.44195804 -0.610389
vn -0.55906564 0.7048611 -0.4365964
vn -0.7022401 0.7092153 -0.06222909
vn -0.372619182 -0.502305746 0.780284464
vn -0.8533987 -0.176562279 0.490445167
vn -0.5376364 0.5078113 0.673108339
vn -0.948872566 -0.140851185 0.282492161
vn -0.598396361 -0.800776541 -0.0260515921
vn -0.9789081 -0.150512666 -0.138148054
vn -0.770325661 -0.06784256 -0.634031355
vn -0.6530805 0.737888634 0.170312
vn -0.753037333 0.6510533 -0.09520691
vn -0.52947104 0.6553827 -0.538640857
vn -0.5083219 0.0667977855 -0.8585726
vn -0.332692266 0.0669304356 0.9406573
vn -0.705288231 0.5171258 0.484922051
vn -0.32242763 0.08495213 0.9427744
vn -0.242707044 0.205990091 0.947977543
vn -0.245369226 0.190084949 0.9506112
vn -0.296428353 0.155137926 0.942370653
vn -0.30347392 0.145810083 0.94161725
vn -0.246264189 -0.09136454 0.9648868
vn -0.23942937 -0.141406551 0.960561156
vn -0.8117384 -0.5628221 0.155923218
vn -0.705288231 0.5171258 0.484922051
vn -0.825017333 -0.556586564 0.09776389
vn -0.9083224 0.417898446 -0.01764456
vn -0.371159434 -0.928501666 0.0111970911
vn -0.359797835 -0.9330221 -0.00391841633
vn 0.453661084 -0.891127348 0.009147317
vn 0.4750148 -0.8799428 0.007850248
vn 0.99994874 -0.00693256455 0.00738000637
vn 0.8455245 -0.533870935 0.008372786
vn 0.991727054 0.122744568 -0.037566863
vn 0.8428915 -0.537974834 0.0108165564
vn 0.414960176 0.9043478 -0.09981559
vn 0.6615179 0.739547849 -0.124350578
vn 0.209039465 0.969276 -0.129640073
vn 0.7862324 0.6158567 -0.05058767
vn -0.364066124 0.931227148 -0.0164881535
vn -0.3485115 0.9373039 -0.00106371089
vn -0.236174434 -0.362452269 0.901581943
vn -0.254272848 -0.3713642 0.892991543
vn -0.8451963 -0.07363321 -0.529359341
vn -0.9083224 0.417898446 -0.01764456
vn -0.839841664 -0.0842045 -0.5362607
vn -0.6573419 0.44195804 -0.610389
vn -0.8298152 -0.05294168 -0.5555213
vn -0.8276635 -0.05786542 -0.558233559
vn -0.8317653 -0.0575088225 -0.5521406
vn -0.8338523 -0.052245 -0.5495096
vn -0.839934647 -0.06955434 -0.5382118
vn -0.8427003 -0.06717033 -0.5341763
vn -0.195934236 -0.318403035 -0.927485466
vn -0.6573419 0.44195804 -0.610389
vn -0.178913236 -0.3337159 -0.925539732
vn -0.199484736 -0.169978485 -0.9650457
vn -0.199701071 -0.173525333 -0.9643695
vn -0.200527549 -0.185273588 -0.962009549
vn -0.2175273 -0.159520522 -0.962930441
vn -0.190883756 -0.296377242 -0.9358012
vn -0.204324946 -0.2910739 -0.9346268
vn -0.592366 0.357571632 0.721973062
vn -0.449539542 0.331679553 0.8293991
vn -0.566547453 0.348112553 0.746888
vn -0.347704947 0.2902493 0.8915473
vn -0.619544446 0.322093666 0.7158354
vn -0.5843104 0.34886682 0.7327164
vn -0.313753247 0.5156123 0.797309756
vn -0.2165718 0.557225049 0.801621437
vn 0.538956761 0.5579623 0.6310338
vn 0.501264 0.550994158 0.667188048
vn 0.5292756 0.365620315 0.7656299
vn 0.494309217 0.34385407 0.7983876
vn 0.4373813 0.5674958 0.697600245
vn 0.3661719 0.6277598 0.686903059
vn 0.2697502 0.477354944 0.8362817
vn 0.193206429 0.5192417 0.8325019
vn -0.592366 0.357571632 0.721973062
vn -0.449539572 0.3316795 0.8293991
vn -0.5665475 0.348112524 0.7468879
vn -0.347704947 0.290249228 0.8915473
vn -0.619544744 0.322093546 0.7158352
vn -0.5843107 0.3488667 0.7327162
vn -0.313753515 0.5156123 0.797309637
vn -0.216571987 0.5572251 0.8016213
usemtl 0676000000_part_0_material_0
f 1/1/1 2/2/2 3/3/3
f 4/4/4 5/5/5 6/6/6
f 3/3/3 7/7/7 8/8/8
f 9/9/9 5/5/5 4/4/4
f 10/10/10 11/11/11 12/12/12
f 13/13/13 12/12/12 14/14/14
f 15/15/15 16/16/16 17/17/17
f 10/10/10 15/15/15 11/11/11
f 18/18/18 1/1/1 19/19/19
f 1/1/1 18/18/18 20/20/20
f 14/14/14 21/21/21 13/13/13
f 21/21/21 14/14/14 22/22/22
f 23/23/23 24/24/24 25/25/25
f 24/24/24 23/23/23 1/1/1
f 25/25/25 24/24/24 26/26/26
f 8/8/8 26/26/26 24/24/24
f 13/13/13 27/27/27 16/16/16
f 25/25/25 28/28/28 23/23/23
f 16/16/16 28/28/28 29/29/29
f 26/26/26 28/28/28 25/25/25
f 30/30/30 31/31/31 32/32/32
f 31/31/31 30/30/30 8/8/8
f 29/29/29 26/26/26 33/33/33
f 32/32/32 33/33/33 30/30/30
f 14/14/14 12/12/12 34/34/34
f 21/21/21 22/22/22 20/20/20
f 18/18/18 21/21/21 20/20/20
f 20/20/20 2/2/2 1/1/1
f 19/19/19 21/21/21 18/18/18
f 27/27/27 13/13/13 21/21/21
f 8/8/8 24/24/24 3/3/3
f 1/1/1 3/3/3 24/24/24
f 35/35/35 15/15/15 17/17/17
f 11/11/11 34/34/34 12/12/12
f 13/13/13 16/16/16 12/12/12
f 10/10/10 12/12/12 16/16/16
f 11/11/11 15/15/15 36/36/36
f 35/35/35 36/36/36 15/15/15
f 10/10/10 16/16/16 15/15/15
f 8/8/8 7/7/7 31/31/31
f 37/37/37 38/38/38 39/39/39
f 40/40/40 39/39/39 38/38/38
f 41/41/41 42/42/42 38/38/38
f 38/38/38 37/37/37 41/41/41
f 43/43/43 44/44/44 42/42/42
f 42/42/42 41/41/41 43/43/43
f 45/45/45 46/46/46 44/44/44
f 44/44/44 43/43/43 45/45/45
f 47/47/47 48/48/48 49/49/49
f 49/49/49 50/50/50 47/47/47
f 51/51/51 52/52/52 48/48/48
f 48/48/48 47/47/47 51/51/51
f 53/53/53 54/54/54 52/52/52
f 54/54/54 53/53/53 55/55/55
f 56/56/56 57/57/57 58/58/58
f 57/57/57 56/56/56 59/59/59
f 60/60/60 61/61/61 62/62/62
f 62/62/62 59/59/59 60/60/60
f 63/63/63 64/64/64 61/61/61
f 61/61/61 60/60/60 63/63/63
f 65/65/65 66/66/66 46/46/46
f 46/46/46 45/45/45 65/65/65
f 67/67/67 68/68/68 69/69/69
f 69/69/69 70/70/70 67/67/67
f 71/71/71 72/72/72 68/68/68
f 68/68/68 67/67/67 71/71/71
f 73/73/73 74/74/74 72/72/72
f 72/72/72 71/71/71 73/73/73
f 75/75/75 76/76/76 74/74/74
f 74/74/74 73/73/73 75/75/75
f 77/77/77 78/78/78 79/79/79
f 79/79/79 80/80/80 77/77/77
f 81/81/81 82/82/82 78/78/78
f 78/78/78 77/77/77 81/81/81
f 83/83/83 84/84/84 82/82/82
f 82/82/82 81/81/81 83/83/83
f 85/85/85 86/86/86 84/84/84
f 84/84/84 83/83/83 85/85/85
f 87/87/87 88/88/88 2/2/2
f 4/4/4 6/6/6 89/89/89
f 88/88/88 90/90/90 7/7/7
f 9/9/9 4/4/4 89/89/89
f 91/91/91 92/92/92 11/11/11
f 93/93/93 14/14/14 92/92/92
f 94/94/94 95/95/95 96/96/96
f 91/91/91 11/11/11 94/94/94
f 97/97/97 98/98/98 87/87/87
f 87/87/87 20/20/20 97/97/97
f 14/14/14 93/93/93 99/99/99
f 99/99/99 22/22/22 14/14/14
f 87/87/87 100/100/100 101/101/101
f 100/100/100 87/87/87 98/98/98
f 102/102/102 103/103/103 101/101/101
f 90/90/90 101/101/101 103/103/103
f 93/93/93 96/96/96 104/104/104
f 105/105/105 100/100/100 104/104/104
f 105/105/105 106/106/106 103/103/103
f 106/106/106 105/105/105 96/96/96
f 90/90/90 107/107/107 31/31/31
f 107/107/107 90/90/90 103/103/103
f 106/106/106 35/35/35 33/33/33
f 107/107/107 103/103/103 33/33/33
f 14/14/14 34/34/34 92/92/92
f 99/99/99 20/20/20 22/22/22
f 97/97/97 20/20/20 99/99/99
f 20/20/20 87/87/87 2/2/2
f 98/98/98 97/97/97 99/99/99
f 104/104/104 99/99/99 93/93/93
f 90/90/90 88/88/88 101/101/101
f 87/87/87 101/101/101 88/88/88
f 35/35/35 95/95/95 94/94/94
f 11/11/11 92/92/92 34/34/34
f 93/93/93 92/92/92 96/96/96
f 91/91/91 96/96/96 92/92/92
f 11/11/11 36/36/36 94/94/94
f 35/35/35 94/94/94 36/36/36
f 91/91/91 94/94/94 96/96/96
f 90/90/90 31/31/31 7/7/7
f 108/108/108 109/109/109 110/110/110
f 40/40/40 110/110/110 109/109/109
f 111/111/111 110/110/110 112/112/112
f 110/110/110 111/111/111 108/108/108
f 113/113/113 112/112/112 114/114/114
f 112/112/112 113/113/113 111/111/111
f 115/115/115 114/114/114 116/116/116
f 114/114/114 115/115/115 113/113/113
f 117/117/117 118/118/118 119/119/119
f 118/118/118 117/117/117 120/120/120
f 121/121/121 119/119/119 122/122/122
f 119/119/119 121/121/121 117/117/117
f 123/123/123 122/122/122 124/124/124
f 122/122/122 123/123/123 121/121/121
f 125/125/125 126/126/126 127/127/127
f 124/124/124 128/128/128 123/123/123
f 129/129/129 130/130/130 131/131/131
f 127/127/127 132/132/132 125/125/125
f 133/133/133 131/131/131 134/134/134
f 131/131/131 133/133/133 129/129/129
f 135/135/135 116/116/116 136/136/136
f 116/116/116 135/135/135 115/115/115
f 137/137/137 138/138/138 139/139/139
f 138/138/138 137/137/137 140/140/140
f 141/141/141 139/139/139 142/142/142
f 139/139/139 141/141/141 137/137/137
f 143/143/143 142/142/142 144/144/144
f 142/142/142 143/143/143 141/141/141
f 145/145/145 144/144/144 146/146/146
f 144/144/144 145/145/145 143/143/143
f 147/147/147 148/148/148 149/149/149
f 148/148/148 147/147/147 80/80/80
f 150/150/150 149/149/149 151/151/151
f 149/149/149 150/150/150 147/147/147
f 152/152/152 151/151/151 153/153/153
f 151/151/151 152/152/152 150/150/150
f 154/154/154 153/153/153 155/155/155
f 153/153/153 154/154/154 152/152/152
f 156/156/156 157/157/157 158/158/158
f 159/159/159 158/158/158 157/157/157
f 160/160/160 158/158/158 161/161/161
f 158/158/158 160/160/160 156/156/156
f 162/162/162 161/161/161 163/163/163
f 161/161/161 162/162/162 160/160/160
f 164/164/164 165/165/165 166/166/166
f 167/167/167 166/166/166 165/165/165
f 168/168/168 169/169/169 165/165/165
f 165/165/165 164/164/164 168/168/168
f 170/170/170 171/171/171 169/169/169
f 169/169/169 168/168/168 170/170/170
f 172/172/172 173/173/173 174/174/174
f 175/175/175 174/174/174 173/173/173
f 176/176/176 174/174/174 177/177/177
f 174/174/174 176/176/176 172/172/172
f 178/178/178 177/177/177 179/179/179
f 177/177/177 178/178/178 176/176/176
f 19/19/19 27/27/27 21/21/21
f 27/27/27 19/19/19 23/23/23
f 26/26/26 29/29/29 28/28/28
f 28/28/28 16/16/16 27/27/27
f 17/17/17 29/29/29 35/35/35
f 16/16/16 29/29/29 17/17/17
f 33/33/33 103/103/103 106/106/106
f 33/33/33 35/35/35 29/29/29
f 96/96/96 95/95/95 106/106/106
f 95/95/95 35/35/35 106/106/106
f 103/103/103 102/102/102 105/105/105
f 100/100/100 98/98/98 104/104/104
f 104/104/104 96/96/96 105/105/105
f 98/98/98 99/99/99 104/104/104
f 30/30/30 33/33/33 26/26/26
f 26/26/26 8/8/8 30/30/30
f 32/32/32 107/107/107 33/33/33
f 107/107/107 32/32/32 31/31/31
f 23/23/23 28/28/28 27/27/27
f 19/19/19 1/1/1 23/23/23
f 102/102/102 100/100/100 105/105/105
f 100/100/100 102/102/102 101/101/101
f 59/59/59 62/62/62 57/57/57
f 58/58/58 55/55/55 56/56/56
f 55/55/55 58/58/58 54/54/54
f 52/52/52 51/51/51 53/53/53
f 125/125/125 128/128/128 126/126/126
f 124/124/124 126/126/126 128/128/128
f 129/129/129 132/132/132 130/130/130
f 127/127/127 130/130/130 132/132/132
