mtllib 0803000000.mtl
o 0803000000_part_0
v 0.611725 10.6169586 -0.446566164
v 0.6937773 10.6301079 -0.277701139
v 0.6747715 9.44980049 -0.5347303
v 0.7842715 9.347235 -0.276461065
v 0.6117255 10.6169586 -0.1088369
v 0.6747716 9.347235 -0.0181916915
v -0.6248265 10.10673 -0.473674655
v -0.723305047 10.1457071 -0.277701139
v -0.621621966 10.3798618 -0.471766144
v 0.00100736786 9.438179 -0.5347303
v -0.6248265 10.10673 -0.473674655
v 0.6747715 9.44980049 -0.5347303
v 0.611725 10.6169586 -0.446566164
v -0.621621966 10.3798618 -0.471766144
v 0.6747716 9.347235 -0.0181916915
v 0.6117255 10.6169586 -0.1088369
v 0.00100734609 9.587403 -0.0181916766
v -0.654839337 9.829006 -0.0404166654
v -0.621621966 10.1852846 -0.08363597
v -0.621621966 10.1852846 -0.08363597
v -0.654839337 9.829006 -0.0404166654
v 0.6747716 9.347235 -0.0181916915
v 0.6747715 9.44980049 -0.5347303
v 0.7842715 9.347235 -0.276461065
v -0.621621966 10.3798618 -0.471766144
v -0.621621966 10.1852846 -0.08363597
v 0.611725 10.6169586 -0.446566164
v 0.6937773 10.6301079 -0.277701139
v 0.611725 10.6169586 -0.446566164
v 0.6117255 10.6169586 -0.1088369
v 0.611725 10.6169586 -0.446566164
v -0.621621966 10.1852846 -0.08363597
v 0.6117255 10.6169586 -0.1088369
v -0.723305047 10.1457071 -0.277701139
v -0.621621966 10.1852846 -0.08363597
v -0.621621966 10.3798618 -0.471766144
v -0.723305047 10.1457071 -0.277701139
v -0.6248265 10.10673 -0.473674655
v -0.654839337 9.829006 -0.0404166654
v 0.00100736786 9.438179 -0.5347303
v 0.00100734609 9.587403 -0.0181916766
v -0.6248265 10.10673 -0.473674655
v -0.654839337 9.829006 -0.0404166654
v -0.6248265 10.10673 -0.473674655
v 0.00100734609 9.587403 -0.0181916766
v 0.6747715 9.44980049 -0.5347303
v 0.6747716 9.347235 -0.0181916915
v 0.00100736786 9.438179 -0.5347303
v 0.00100734609 9.587403 -0.0181916766
v 0.00100736786 9.438179 -0.5347303
v 0.6747716 9.347235 -0.0181916915
v -6.79910173E-09 11.6197672 -0.436774343
v -1.35082407E-08 11.7815247 -0.277698457
v 0.611725 10.6169586 -0.446563542
v 0.6937773 10.6301079 -0.277698576
v 0.6117255 10.6169586 -0.108834334
v -2.02174011E-08 11.6197681 -0.118622623
v -0.603904247 10.6196032 -0.461212
v -0.7001071 10.6196032 -0.277698636
v -0.603904247 10.6196041 -0.09418518
v -0.723305047 10.1457071 -0.2776986
v -0.7001071 10.6196032 -0.277698636
v -0.621622 10.3798618 -0.47176367
v -0.603904247 10.6196032 -0.461212
v -6.79910173E-09 11.6197672 -0.436774343
v 0.611725 10.6169586 -0.446563542
v -0.603904247 10.6196032 -0.461212
v -0.621622 10.3798618 -0.47176367
v 0.6117255 10.6169586 -0.108834334
v -2.02174011E-08 11.6197681 -0.118622623
v -0.621622 10.1852846 -0.08363347
v -0.603904247 10.6196041 -0.09418518
v -0.603904247 10.6196041 -0.09418518
v -0.621622 10.1852846 -0.08363347
v -0.723305047 10.1457071 -0.2776986
v -0.621622 10.3798618 -0.47176367
v -0.621622 10.1852846 -0.08363347
v -0.621622 10.1852846 -0.08363347
v -0.621622 10.3798618 -0.47176367
v 0.6117255 10.6169586 -0.108834334
v 0.6117255 10.6169586 -0.108834334
v -0.621622 10.3798618 -0.47176367
v 0.6937773 10.6301079 -0.277698576
v 0.6937773 10.6301079 -0.277698576
v -0.621622 10.3798618 -0.47176367
v 0.611725 10.6169586 -0.446563542
vt 0.09486423 0.782033145
vt 0.0609126166 0.795760453
vt 0.09134824 0.6020994
vt 0.048098594 0.597907364
vt 0.09486404 0.782033145
vt 0.08943667 0.586842537
vt 0.2995032 0.702996
vt 0.338661581 0.7209466
vt 0.295096457 0.7441869
vt 0.197017655 0.600730538
vt 0.2995032 0.702996
vt 0.09134824 0.6020994
vt 0.09486423 0.782033145
vt 0.295096457 0.7441869
vt 0.08943667 0.586842537
vt 0.09486404 0.782033145
vt 0.19988893 0.625061
vt 0.30679962 0.6632085
vt 0.298977554 0.715009749
vt 0.298977554 0.715009749
vt 0.30679962 0.6632085
vt 0.7531318 0.176708043
vt 0.753131866 0.110788822
vt 0.7427116 0.1437484
vt 0.869709 0.112839222
vt 0.8755875 0.174095035
vt 0.7609475 0.116816461
vt 0.753320754 0.143467128
vt 0.7609475 0.116816461
vt 0.7609475 0.170117736
vt 0.7609475 0.116816461
vt 0.8755875 0.174095035
vt 0.7609475 0.170117736
vt 0.8850391 0.143467128
vt 0.8755875 0.174095035
vt 0.869709 0.112839222
vt 0.887964964 0.1437484
vt 0.8783369 0.11362499
vt 0.8655167 0.177115381
vt 0.82085 0.110601246
vt 0.827843666 0.173468232
vt 0.8783369 0.11362499
vt 0.867159963 0.1758151
vt 0.8783369 0.11362499
vt 0.827843666 0.173468232
vt 0.7555843 0.11214608
vt 0.7531318 0.176708043
vt 0.8187617 0.112607718
vt 0.817249 0.176708043
vt 0.8187617 0.112607718
vt 0.7531318 0.176708043
vt 0.197011128 0.9343924
vt 0.197011188 0.991924
vt 0.09486423 0.782033145
vt 0.0609126166 0.795760453
vt 0.09486404 0.782033145
vt 0.197011128 0.9343924
vt 0.296071261 0.7814324
vt 0.33435145 0.7939707
vt 0.296071261 0.7814324
vt 0.338661581 0.7209466
vt 0.33435145 0.7939707
vt 0.297471523 0.744904
vt 0.296071261 0.7814324
vt 0.197011128 0.9343924
vt 0.09486423 0.782033145
vt 0.296071261 0.7814324
vt 0.297471523 0.744904
vt 0.09486404 0.782033145
vt 0.197011128 0.9343924
vt 0.298977554 0.715009749
vt 0.296071261 0.7814324
vt 0.296071261 0.7814324
vt 0.298977554 0.715009749
vt 0.8909194 0.04317367
vt 0.8752182 0.024235487
vt 0.877393961 0.0742195845
vt 0.877393961 0.0742195845
vt 0.8752182 0.024235487
vt 0.713340342 0.0701880455
vt 0.713340342 0.0701880455
vt 0.8752182 0.024235487
vt 0.702426255 0.04317367
vt 0.702426255 0.04317367
vt 0.8752182 0.024235487
vt 0.713340461 0.0161591172
vn 0.8939311 0.08157829 -0.440717876
vn 0.996372342 0.08508325 0.00172375538
vn 0.925177932 0.0664738342 -0.373667061
vn 0.9954508 0.07028149 0.06432936
vn 0.894513845 0.07586678 0.440555543
vn 0.916566133 0.06619651 0.394366056
vn -0.892356 0.0136218388 -0.451126635
vn -0.9960356 0.0871457 0.0178521853
vn -0.892356 0.0136218388 -0.451126635
vn -0.00154397439 0.0895132944 -0.995984435
vn 0.00589791127 0.0436301865 -0.999030352
vn -0.00664639426 0.0794962347 -0.996813
vn -0.005068155 0.06529886 -0.997852862
vn 0.0191281512 0.00676161656 -0.9997942
vn 0.02582919 0.07246066 0.997036755
vn 0.007403296 0.0870595649 0.9961756
vn 0.0107162585 0.0813891739 0.996624768
vn -0.0119395787 0.105533659 0.994344056
vn -0.0225906968 0.122469552 0.992215157
vn -0.888678849 0.135976538 0.437904418
vn -0.888678849 0.135976523 0.437904418
vn -0.417432219 -0.8913069 -0.176981151
vn -0.417432219 -0.8913069 -0.176981151
vn -0.417432219 -0.8913069 -0.176981151
vn -0.17811498 0.8796602 0.440990925
vn -0.17811498 0.8796602 0.440990925
vn -0.17811498 0.8796602 0.440990925
vn -0.158236057 0.9874013 4.23981447E-07
vn -0.158236057 0.9874013 4.23981447E-07
vn -0.158236057 0.9874013 4.23981447E-07
vn -0.330352038 0.9438578 6.89753335E-07
vn -0.330352038 0.9438578 6.89753335E-07
vn -0.330352038 0.9438578 6.89753335E-07
vn -0.769077 0.5713767 0.286442339
vn -0.769077 0.5713767 0.286442339
vn -0.769077 0.5713767 0.286442339
vn -0.8374125 -0.43195346 -0.334897757
vn -0.8374125 -0.43195346 -0.334897757
vn -0.8374125 -0.43195346 -0.334897757
vn -0.706827939 -0.679594636 0.1963298
vn -0.706827939 -0.679594636 0.1963298
vn -0.706827939 -0.679594636 0.1963298
vn -0.2767413 -0.8001796 -0.5320967
vn -0.2767413 -0.8001796 -0.5320967
vn -0.2767413 -0.8001796 -0.5320967
vn 0.0169158615 -0.9807103 -0.194733545
vn 0.0169158615 -0.9807103 -0.194733545
vn 0.0169158615 -0.9807103 -0.194733545
vn -0.323982835 -0.9088952 0.2625731
vn -0.323982835 -0.9088952 0.2625731
vn -0.323982835 -0.9088952 0.2625731
vn -0.00212495285 0.7011706 -0.712990344
vn 0.000586573558 0.9999998 -8.70615E-07
vn 0.777136 0.469055265 -0.4195792
vn 0.8565307 0.516096 -8.658795E-08
vn 0.7771363 0.469055325 0.419578671
vn -0.00212503783 0.7011725 0.7129885
vn -0.7791276 0.470391959 -0.414356828
vn -0.856530666 0.5160961 -1.7718595E-06
vn -0.7791285 0.470392346 0.414354771
vn -0.9848442 0.0482096635 0.166606486
vn -0.9979476 0.063237 0.0100841429
vn -0.8992931 0.056635648 -0.433663815
vn -0.882430255 0.08557495 -0.462594628
vn 0.0120847309 0.017131459 -0.999780238
vn 0.0120927216 0.02124254 -0.9997012
vn 0.0121145956 0.0330804624 -0.9993793
vn 0.0121317422 0.0430720747 -0.9989983
vn 0.0140189352 0.01830999 0.999734044
vn 0.01232387 0.01904474 0.9997427
vn 0.009770427 0.020151414 0.9997492
vn 0.000246144918 0.0242776144 0.9997052
vn -0.8846856 0.0473575369 0.463776529
vn -0.887578845 0.044478558 0.458503485
vn 0.7690772 -0.5713765 -0.28644225
vn 0.7690772 -0.5713765 -0.28644225
vn 0.7690772 -0.5713765 -0.28644225
vn 0.290619433 -0.8553706 -0.428814054
vn 0.290619433 -0.8553706 -0.428814054
vn 0.290619433 -0.8553706 -0.428814054
vn 0.1849721 -0.982652962 0.013360478
vn 0.1849721 -0.982652962 0.013360478
vn 0.1849721 -0.982652962 0.013360478
vn 0.189063132 -0.981844 -0.0154121928
vn 0.189063132 -0.981844 -0.0154121928
vn 0.189063132 -0.981844 -0.0154121928
usemtl 0803000000_part_0_material_0
f 1/1/1 2/2/2 3/3/3
f 4/4/4 3/3/3 2/2/2
f 5/5/5 6/6/6 2/2/2
f 4/4/4 2/2/2 6/6/6
f 7/7/7 8/8/8 9/9/9
f 10/10/10 11/11/11 12/12/12
f 12/12/12 11/11/11 13/13/13
f 13/13/13 11/11/11 14/14/14
f 15/15/15 16/16/16 17/17/17
f 17/17/17 16/16/16 18/18/18
f 18/18/18 16/16/16 19/19/19
f 20/20/20 8/8/8 21/21/21
f 22/22/22 23/23/23 24/24/24
f 25/25/25 26/26/26 27/27/27
f 28/28/28 29/29/29 30/30/30
f 31/31/31 32/32/32 33/33/33
f 34/34/34 35/35/35 36/36/36
f 37/37/37 38/38/38 39/39/39
f 40/40/40 41/41/41 42/42/42
f 43/43/43 44/44/44 45/45/45
f 46/46/46 47/47/47 48/48/48
f 49/49/49 50/50/50 51/51/51
f 52/52/52 53/53/53 54/54/54
f 55/55/55 54/54/54 53/53/53
f 55/55/55 53/53/53 56/56/56
f 57/57/57 56/56/56 53/53/53
f 52/52/52 58/58/58 53/53/53
f 59/59/59 53/53/53 58/58/58
f 59/59/59 60/60/60 53/53/53
f 57/57/57 53/53/53 60/60/60
f 61/61/61 62/62/62 63/63/63
f 64/64/64 63/63/63 62/62/62
f 65/65/65 66/66/66 67/67/67
f 68/68/68 67/67/67 66/66/66
f 69/69/69 70/70/70 71/71/71
f 72/72/72 71/71/71 70/70/70
f 73/73/73 62/62/62 74/74/74
f 61/61/61 74/74/74 62/62/62
f 75/75/75 76/76/76 77/77/77
f 78/78/78 79/79/79 80/80/80
f 81/81/81 82/82/82 83/83/83
f 84/84/84 85/85/85 86/86/86
