mtllib 7300000095.mtl
o 7300000095_part_0
v 0.0362372845 2.24545074 0.172332555
v 0.151489049 2.227995 0.12531215
v 0.153958 2.34479356 0.09810573
v 0.03557665 2.3580842 0.1383352
v 0.210443392 2.19002461 0.0518014729
v 0.220451519 2.31023717 0.0264188945
v 0.0253254287 2.06842136 -0.224770546
v 0.02440989 2.21313977 -0.246628612
v 0.1585941 2.20804048 -0.222959235
v 0.166836739 2.08751345 -0.163853928
v 0.2240038 2.14194655 -0.0671336055
v 0.2235631 2.24282527 -0.104998514
v 0.16104579 2.392163 0.0226042569
v 0.03557665 2.3580842 0.1383352
v 0.153958 2.34479356 0.09810573
v 0.16104579 2.392163 0.0226042569
v 0.153958 2.34479356 0.09810573
v 0.220451519 2.31023717 0.0264188945
v 0.0362372845 2.24545074 0.172332555
v -0.08482663 2.345305 0.104439318
v -0.08141866 2.22849369 0.131489873
v 0.03557665 2.3580842 0.1383352
v -0.1443489 2.19078445 0.0612120926
v -0.14612861 2.30924439 0.0148933232
v 0.0253254287 2.06842136 -0.224770546
v -0.108893842 2.21778417 -0.188587829
v 0.02440989 2.21313977 -0.246628612
v -0.112674668 2.08811188 -0.156440109
v -0.164400712 2.1427784 -0.05683145
v -0.163150534 2.26587462 -0.09660022
v -0.0225539356 2.47053981 -0.161601081
v 0.0219843462 2.47577548 -0.05274871
v 0.06678979 2.50602555 -0.140342832
v -0.0287551954 2.425981 0.007341683
v 0.07660946 2.43274522 -0.22931236
v -0.0021147728 2.330789 -0.225571036
v -0.08482663 2.345305 0.104439318
v -0.14612861 2.30924439 0.0148933232
v -0.108568937 2.39663339 -0.136059985
v 0.1792376 2.35986757 -0.233027935
v 0.02440989 2.21313977 -0.246628612
v -0.108893842 2.21778417 -0.188587829
v -0.163150534 2.26587462 -0.09660022
v 0.200020432 2.419936 -0.0522403419
v 0.164609849 2.48652744 -0.165709138
v 0.200020432 2.419936 -0.0522403419
v 0.203766048 2.31952572 -0.17925553
v 0.216870666 2.33977675 -0.132032722
v 0.2235631 2.24282527 -0.104998514
v 0.161421791 2.43782234 -0.21754846
v 0.02440989 2.21313977 -0.246628612
v 0.1792376 2.35986757 -0.233027935
v 0.1585941 2.20804048 -0.222959235
v 0.239909008 2.35040259 -0.193672761
v 0.247991353 2.36685 -0.169042945
v 0.2562549 2.40151525 -0.145071357
v 0.2562549 2.40151525 -0.145071357
v 0.2653904 2.42898321 -0.197698742
v 0.238597631 2.352431 -0.226608709
v 0.238597631 2.352431 -0.226608709
v 0.254658043 2.40179157 -0.226734877
v 0.274157047 2.340204 -0.196855575
v 0.312835574 2.37787342 -0.203029424
v 0.312835574 2.37787342 -0.203029424
v 0.273703516 2.3277452 -0.252739578
v 0.307706833 2.36288834 -0.26024577
v 0.273703516 2.3277452 -0.252739578
v 0.271625578 2.24474287 -0.2934503
v 0.2824859 2.286295 -0.142094
v 0.362965733 2.34164381 -0.3071907
v 0.271625578 2.24474287 -0.2934503
v 0.3875199 2.37963176 -0.171228454
v 0.3875199 2.37963176 -0.171228454
v 0.382633239 2.26760459 -0.212171525
v 0.382633239 2.26760459 -0.212171525
v 0.1877891 2.115178 -0.00341004133
v 0.224571645 2.02235723 -0.071991235
v 0.172695443 2.227888 -0.07502054
v 0.167758316 2.22736263 0.006136328
v 0.242015556 1.969652 -0.0185898542
v 0.1911641 2.10657144 -0.124685079
v 0.233733565 1.95646286 -0.0855740756
v 0.155049622 2.071384 -0.158922851
v 0.204563558 1.92086816 -0.154707208
v 0.110342309 2.05900216 -0.187716335
v 0.159848139 1.949268 -0.198263228
v 0.0329576656 2.05042386 -0.2074596
v 0.0961433 1.92632043 -0.23329863
v -0.11551623 2.21874547 0.0851528049
v -0.142094627 2.22631288 -0.0183126032
v -0.160657376 2.101505 -0.0111326277
v -0.160046771 2.113419 0.05913514
v -0.0885757357 2.05854559 -0.161110193
v -0.151021987 1.95592737 -0.139298081
v -0.138969347 2.06888342 -0.140611127
v -0.193140239 2.00106931 0.0364881456
v -0.157581121 2.11214185 -0.00154736638
v -0.155515239 2.12073374 -0.06337881
v -0.19004786 1.94810557 -0.02129972
v -0.152642682 2.092344 -0.117916107
v -0.168810785 1.97269976 -0.0789935738
v -0.0338722765 2.0533905 -0.192620441
v -0.002771549 1.92071068 -0.243044168
v -0.06165856 1.92643988 -0.20388405
v 0.2049013 2.06456733 -0.08642106
v 0.201391533 2.06054926 -0.03463036
v 0.185864151 1.96305132 -0.0556992
v 0.0348113254 2.14138031 -0.185891524
v 0.154138029 2.104939 -0.142233789
v 0.1400181 1.95478189 -0.121800259
v 0.03308185 1.96273553 -0.198305383
v 0.11854542 1.89761043 -0.124826536
v 0.0794203654 1.88486624 -0.15737699
v 0.148039013 1.85744178 -0.08908421
v -0.08574581 1.95454645 -0.1575267
v -0.122203469 2.0399096 -0.113485545
v -0.09257032 1.84913349 -0.107680276
v -0.1502903 1.95997417 -0.0477899
v -0.05699539 1.88707 -0.1305798
v -0.0199694782 1.87708068 -0.156655729
v 0.0417315662 1.89016008 -0.176735088
v -0.1615143 2.05142641 -0.06025821
v 0.09162401 1.82518244 -0.142181441
v 0.06691076 1.82819533 -0.159982473
v 0.0225024074 1.8231163 -0.159955561
v -0.02976872 1.8353169 -0.138692439
v 0.06455515 2.227987 0.161270171
v 0.0245439075 2.272911 0.119705349
v -0.00127994269 2.22715282 0.16310665
v -0.0106877685 2.14675045 0.197101563
v 0.0448094159 2.149381 0.211147457
v -0.01610291 2.077674 0.237121612
v 0.0865313262 2.27243328 0.07783848
v 0.09673895 2.14103 0.18354848
v 0.084669 2.07124186 0.2194961
v 0.1411247 2.21339 0.144608468
v 0.145748466 2.13084078 0.154471338
v 0.163677663 2.07015824 0.1850321
v 0.162383944 2.21433425 0.0888179243
v 0.2003106 2.11287165 0.07931128
v 0.2126148 2.05054736 0.124465793
v 0.187712386 2.10547638 0.00423103571
v 0.2003106 2.11287165 0.07931128
v 0.199838981 2.01533556 0.0382010937
v -0.0479076 2.23139453 0.131389529
v -0.11551623 2.21874547 0.0851528049
v -0.12634474 2.12267971 0.129921108
v -0.0597245544 2.15931177 0.1759212
v -0.124504209 2.04286337 0.13274774
v -0.0633934438 2.07163572 0.199976116
v -0.160046771 2.113419 0.05913514
v -0.164303392 2.015074 0.0646579862
v 0.2049013 2.06456733 -0.08642106
v 0.154138029 2.104939 -0.142233789
v 0.123583883 2.147765 -0.136983439
v 0.123583883 2.147765 -0.136983439
v 0.173291355 2.13632035 0.06519547
v 0.201391533 2.06054926 -0.03463036
v 0.2049013 2.06456733 -0.08642106
v 0.123583883 2.147765 -0.136983439
v 0.201391533 2.06054926 -0.03463036
v 0.154138029 2.104939 -0.142233789
v 0.0348113254 2.14138031 -0.185891524
v 0.03454652 2.20233536 -0.156379715
v 0.03454652 2.20233536 -0.156379715
v 0.123583883 2.147765 -0.136983439
v 0.154138029 2.104939 -0.142233789
v 0.0348113254 2.14138031 -0.185891524
v -0.122203469 2.0399096 -0.113485545
v -0.06536172 2.1506393 -0.160912156
v -0.06536172 2.1506393 -0.160912156
v 0.03454652 2.20233536 -0.156379715
v 0.0348113254 2.14138031 -0.185891524
v -0.121270105 2.13329268 0.084790796
v -0.06536172 2.1506393 -0.160912156
v -0.122203469 2.0399096 -0.113485545
v -0.121270105 2.13329268 0.084790796
v -0.122203469 2.0399096 -0.113485545
v -0.1615143 2.05142641 -0.06025821
v -0.121270105 2.13329268 0.084790796
v -0.1615143 2.05142641 -0.06025821
v -0.158026069 2.07794833 0.0210462511
v -0.121270105 2.13329268 0.084790796
v -0.158026069 2.07794833 0.0210462511
v -0.130777091 2.03322577 -0.00163462758
v -0.115869582 2.02120686 0.0455190539
v -0.104274973 1.9215498 0.02425459
v 0.201391533 2.06054926 -0.03463036
v 0.170088172 2.04152679 0.0294959247
v 0.16438669 1.93847764 0.0146485269
v 0.201391533 2.06054926 -0.03463036
v 0.173291355 2.13632035 0.06519547
v 0.170088172 2.04152679 0.0294959247
v 0.173291355 2.13632035 0.06519547
v 0.123583883 2.147765 -0.136983439
v 0.0206196941 2.21067214 0.124262512
v 0.123583883 2.147765 -0.136983439
v 0.03454652 2.20233536 -0.156379715
v 0.0206196941 2.21067214 0.124262512
v 0.03454652 2.20233536 -0.156379715
v -0.06536172 2.1506393 -0.160912156
v 0.0206196941 2.21067214 0.124262512
v -0.06536172 2.1506393 -0.160912156
v -0.121270105 2.13329268 0.084790796
v 0.0206196941 2.21067214 0.124262512
v 0.149617642 2.2140727 0.09205434
v 0.171204686 2.22254753 0.0007494986
v 0.154701948 2.18986464 -0.133728638
v 0.141265213 2.16332769 -0.172887892
v 0.09899571 2.158738 -0.188897878
v 0.190097868 2.2355 -0.002760291
v 0.238684028 2.05500817 -0.0001295507
v 0.246533468 2.0592773 -0.05753717
v 0.194606856 2.22357869 -0.07604401
v -0.142094627 2.22631288 -0.0183126032
v 0.031099692 2.15515566 -0.216639608
v -0.04243672 2.14081025 -0.196891978
v -0.09075551 1.85481894 -0.0397188962
v -0.1277206 1.95289564 0.0017863214
v -0.144670278 1.97308159 -0.07011959
v -0.0551805943 1.89275551 -0.0626184344
v -0.146372885 2.106716 0.0868139
v -0.124298573 2.099159 -0.0915894657
v 0.206602231 2.073371 -0.0826896
v 0.191250265 2.08921862 0.00291898847
v 0.189056814 1.96788812 0.00211516023
v 0.185336113 1.95952845 -0.06510326
v 0.149583161 1.87316835 -0.0321368575
v 0.120090425 1.90245068 -0.06696847
v 0.153066158 1.94526184 -0.0359627
v 0.08403889 1.88548589 -0.0153892934
v 0.08058598 1.91406465 -0.07909958
v -0.109559655 1.945824 -0.0289967358
v -0.03954701 1.91432166 -0.07591313
v -0.0396873876 1.88573456 -0.01230225
v -0.06593463 2.15046358 -0.161830619
v -0.09130354 2.163786 -0.144735411
v -0.114587814 2.183219 -0.115679249
vt 0.7221713 0.0721735358
vt 0.763889849 0.0721735358
vt 0.763283134 0.1848033
vt 0.7221713 0.1848033
vt 0.8066437 0.0721735358
vt 0.807042062 0.1848033
vt 0.917521238 0.0721735358
vt 0.917521238 0.1848033
vt 0.885204256 0.1848033
vt 0.8825725 0.0721735358
vt 0.8453429 0.0721735358
vt 0.8462545 0.1848033
vt 0.567719638 0.8026632
vt 0.60207653 0.920966268
vt 0.557725847 0.8491247
vt 0.8468684 0.8266171
vt 0.860259652 0.828777552
vt 0.8709533 0.7733983
vt 0.7218453 0.0721735358
vt 0.756056 0.1848033
vt 0.756977141 0.0721735358
vt 0.7218453 0.1848033
vt 0.791699052 0.0721735358
vt 0.792231143 0.1848033
vt 0.9191637 0.0721735358
vt 0.8785425 0.1848033
vt 0.9191637 0.1848033
vt 0.879419 0.0721735358
vt 0.8348904 0.0721735358
vt 0.834886849 0.1848033
vt 0.6662035 0.746506035
vt 0.614749253 0.79717207
vt 0.6053953 0.6769028
vt 0.6452681 0.9052861
vt 0.6579863 0.6278837
vt 0.723392248 0.688957
vt 0.6763373 0.9792286
vt 0.7336116 0.9400756
vt 0.7297966 0.8345134
vt 0.691884339 0.5688452
vt 0.736096442 0.6084944
vt 0.77640605 0.6945794
vt 0.768913031 0.8359307
vt 0.561024249 0.6783336
vt 0.5999898 0.6003527
vt 0.854673147 0.7619514
vt 0.944753 0.5820306
vt 0.8752523 0.718930066
vt 0.896544158 0.716553748
vt 0.65395236 0.546561658
vt 0.98952806 0.679660141
vt 0.965670347 0.6244783
vt 0.946343362 0.6404742
vt 0.9436316 0.5408118
vt 0.887831867 0.590644062
vt 0.8672187 0.597435951
vt 0.563329 0.460309923
vt 0.60177815 0.435296059
vt 0.955732644 0.515234947
vt 0.6837389 0.406541884
vt 0.6416069 0.3893416
vt 0.910631657 0.397553563
vt 0.8990548 0.390785217
vt 0.608719051 0.267317057
vt 0.9235255 0.3869475
vt 0.6280137 0.26005733
vt 0.6469788 0.262826443
vt 0.926475763 0.354554
vt 0.91302675 0.359562874
vt 0.630509 0.2357229
vt 0.6523257 0.244927168
vt 0.608598948 0.248393476
vt 0.894251466 0.358771324
vt 0.910854757 0.322059155
vt 0.630982757 0.204763472
vt 0.2970738 0.266611636
vt 0.331824034 0.132020116
vt 0.3396831 0.406582534
vt 0.292993337 0.41461575
vt 0.300772578 0.06474292
vt 0.365831226 0.244223952
vt 0.33920607 0.0452862978
vt 0.4007207 0.220298886
vt 0.38594678 0.004741609
vt 0.43186906 0.221144855
vt 0.4209396 0.05176747
vt 0.4693242 0.271085382
vt 0.459319443 0.04177159
vt 0.08372559 0.272529781
vt 0.07513802 0.355239153
vt 0.0536625348 0.339289665
vt 0.0590448938 0.279570818
vt 0.405048043 0.234203756
vt 0.369914979 0.07956058
vt 0.3670281 0.181116581
vt 0.0181644149 0.2845326
vt 0.295358449 0.2737493
vt 0.3270757 0.283625722
vt 0.300667852 0.06395662
vt 0.356120855 0.248218536
vt 0.334121674 0.09727198
vt 0.4388459 0.247621119
vt 0.467400461 0.07157433
vt 0.430102319 0.06468481
vt 0.3002222 0.748339832
vt 0.158172861 0.809819
vt 0.289036959 0.62212646
vt 0.3852056 0.844152
vt 0.325862318 0.7728658
vt 0.326236635 0.61778307
vt 0.391112715 0.645893335
vt 0.3351898 0.5614264
vt 0.359722465 0.5543715
vt 0.317621082 0.528955
vt 0.328999847 0.62256515
vt 0.327855259 0.7603445
vt 0.316901952 0.518801451
vt 0.2882218 0.616683841
vt 0.330207735 0.5597899
vt 0.35258624 0.553823352
vt 0.38227 0.568385363
vt 0.291458875 0.760145
vt 0.352191538 0.4896239
vt 0.366124779 0.49689734
vt 0.371021479 0.5050602
vt 0.3446159 0.510322034
vt 0.158486858 0.1705991
vt 0.141571745 0.225731671
vt 0.1287428 0.172471941
vt 0.124165431 0.09230763
vt 0.148768917 0.07728648
vt 0.120699 0.0123714209
vt 0.170778409 0.2598222
vt 0.180266336 0.100709975
vt 0.1700641 0.007897615
vt 0.1935526 0.1762703
vt 0.209531054 0.123601854
vt 0.219265565 0.0382322669
vt 0.204803035 0.225790381
vt 0.21114777 0.121754825
vt 0.2571761 0.0979390144
vt 0.236242458 0.182175219
vt 0.21114777 0.121754825
vt 0.2556842 0.09967077
vt 0.108261243 0.185749888
vt 0.0852028 0.253562331
vt 0.07358639 0.174276114
vt 0.102169052 0.1412602
vt 0.0619909428 0.113577664
vt 0.0860279649 0.0548974872
vt 0.0605221055 0.260603368
vt 0.02588879 0.165942669
vt 0.3002222 0.748339832
vt 0.325862318 0.7728658
vt 0.3301423 0.823776841
vt 0.3301423 0.823776841
vt 0.2317604 0.8078426
vt 0.158172861 0.809819
vt 0.3002222 0.748339832
vt 0.3301423 0.823776841
vt 0.158172861 0.809819
vt 0.325862318 0.7728658
vt 0.3852056 0.844152
vt 0.362775832 0.918284059
vt 0.362775832 0.918284059
vt 0.3301423 0.823776841
vt 0.325862318 0.7728658
vt 0.3852056 0.844152
vt 0.327855259 0.7603445
vt 0.329850584 0.823053241
vt 0.329850584 0.823053241
vt 0.362775832 0.918284059
vt 0.3852056 0.844152
vt 0.229927614 0.7975123
vt 0.329850584 0.823053241
vt 0.327855259 0.7603445
vt 0.229927614 0.7975123
vt 0.327855259 0.7603445
vt 0.291458875 0.760145
vt 0.229927614 0.7975123
vt 0.291458875 0.760145
vt 0.2512904 0.759924769
vt 0.229927614 0.7975123
vt 0.2512904 0.759924769
vt 0.109665327 0.8125782
vt 0.07749846 0.826709867
vt 0.09546899 0.6785885
vt 0.158172861 0.809819
vt 0.127780274 0.8226881
vt 0.14478375 0.701451659
vt 0.158172861 0.809819
vt 0.2317604 0.8078426
vt 0.127780274 0.8226881
vt 0.2317604 0.8078426
vt 0.3301423 0.823776841
vt 0.229995027 0.9454516
vt 0.3301423 0.823776841
vt 0.362775832 0.918284059
vt 0.229995027 0.9454516
vt 0.362775832 0.918284059
vt 0.329850584 0.823053241
vt 0.229995027 0.9454516
vt 0.329850584 0.823053241
vt 0.229927614 0.7975123
vt 0.229995027 0.9454516
vt 0.1926774 0.178694963
vt 0.20428209 0.226340771
vt 0.377714843 0.3600858
vt 0.393454 0.33149457
vt 0.4090282 0.331917524
vt 0.219982669 0.314147
vt 0.277016819 0.2152952
vt 0.2765128 0.3147909
vt 0.22423248 0.381634533
vt 0.2948307 0.416745961
vt 0.45689413 0.367957354
vt 0.418653935 0.336315274
vt 0.316901952 0.518801451
vt 0.2882218 0.616683841
vt 0.328999847 0.62256515
vt 0.330207735 0.5597899
vt 0.2512904 0.759924769
vt 0.327855259 0.7603445
vt 0.325862318 0.7728658
vt 0.2757403 0.7249218
vt 0.289036959 0.62212646
vt 0.326236635 0.61778307
vt 0.317621082 0.528955
vt 0.3351898 0.5614264
vt 0.439934343 0.6866046
vt 0.4039438 0.5360769
vt 0.462321371 0.529066741
vt 0.439934343 0.6866046
vt 0.462321371 0.529066741
vt 0.4039438 0.5360769
vt 0.401066154 0.349562645
vt 0.381704718 0.355041385
vt 0.356312424 0.363525331
vn 0.02618632 0.254545 0.966706336
vn 0.635206044 0.162453353 0.755064368
vn 0.546660542 0.478025556 0.6874983
vn 0.0273301862 0.6092393 0.792515337
vn 0.931075752 0.0151980976 0.364509255
vn 0.9129169 0.204109788 0.353442967
vn -0.07138957 -0.23353146 -0.969725
vn -0.136498123 -0.04159591 -0.989766657
vn 0.5715461 -0.192318141 -0.7977147
vn 0.6935974 -0.27838102 -0.6643995
vn 0.9743416 -0.09444937 -0.204298377
vn 0.975269258 -0.05904043 -0.21298857
vn 0.438985676 0.73828876 0.5120755
vn 0.0273301862 0.6092393 0.792515337
vn 0.546660542 0.478025556 0.6874983
vn 0.438985676 0.73828876 0.5120755
vn 0.546660542 0.478025556 0.6874983
vn 0.9129169 0.204109788 0.353442967
vn 0.02618632 0.254545 0.966706336
vn -0.5765153 0.5150675 0.6342992
vn -0.5935851 0.16508387 0.7876573
vn 0.0273301862 0.6092393 0.792515337
vn -0.9268429 0.09950157 0.362024337
vn -0.8996146 0.359136075 0.2484249
vn -0.07138957 -0.23353146 -0.969725
vn -0.670363963 -0.008250753 -0.7419866
vn -0.136498123 -0.04159591 -0.989766657
vn -0.6995931 -0.152657852 -0.6980437
vn -0.983400643 -0.0361895673 -0.1778017
vn -0.9646601 0.12446171 -0.232250184
vn -0.5216397 0.7492669 -0.408033222
vn -0.158979863 0.9005631 0.40461272
vn -0.0186440349 0.995274544 -0.0952944
vn -0.349576384 0.8466263 0.40127337
vn -0.122668691 0.4257518 -0.896486342
vn -0.3323255 0.187412322 -0.9243573
vn -0.5765153 0.5150675 0.6342992
vn -0.8996146 0.359136075 0.2484249
vn -0.76857686 0.541144967 -0.341250271
vn 0.24083212 -0.08131256 -0.9671547
vn -0.136498123 -0.04159591 -0.989766657
vn -0.670363963 -0.008250753 -0.7419866
vn -0.9646601 0.12446171 -0.232250184
vn 0.691418648 0.605408 0.394235164
vn 0.311571777 0.9361361 -0.163009822
vn 0.691418648 0.605408 0.394235164
vn 0.833449841 -0.394064039 -0.387394965
vn 0.9677216 -0.227176756 0.109113283
vn 0.975269258 -0.05904043 -0.21298857
vn 0.118130758 0.516004264 -0.848401248
vn -0.136498123 -0.04159591 -0.989766657
vn 0.24083212 -0.08131256 -0.9671547
vn 0.5715461 -0.192318141 -0.7977147
vn 0.122404806 -0.98824203 0.09162279
vn 0.5144388 -0.6600014 0.547495067
vn 0.7970081 0.1760892 0.5777289
vn 0.7970081 0.1760892 0.5777289
vn 0.5673445 0.801822662 -0.187618449
vn -0.443769664 -0.5644023 -0.696073651
vn -0.443769664 -0.5644023 -0.696073651
vn 0.106952608 0.479591846 -0.8709494
vn -0.5934418 -0.373421967 0.7130097
vn 0.278156132 0.9126213 0.299585521
vn 0.278156132 0.9126213 0.299585521
vn -0.825603843 0.09017734 -0.556997657
vn -0.173731983 0.725784838 -0.6656227
vn -0.825603843 0.09017734 -0.556997657
vn -0.49363938 -0.645234942 -0.583088338
vn -0.4435904 -0.330344319 0.8331268
vn 0.426538676 0.303870976 -0.8518962
vn -0.49363938 -0.645234942 -0.583088338
vn 0.6131433 0.613530338 0.4976302
vn 0.6131433 0.613530338 0.4976302
vn 0.733628452 -0.6633274 0.147601053
vn 0.733628452 -0.6633274 0.147601053
vn 0.9601681 0.24556765 0.133318231
vn 0.958516538 0.257860273 -0.12146654
vn 0.965150952 0.2422299 -0.0990370139
vn 0.983486 0.170418441 0.06093331
vn 0.937674165 0.3457539 0.0349488743
vn 0.8465474 0.191312984 -0.496746182
vn 0.937777638 0.190262929 -0.29047057
vn 0.5779306 0.103145525 -0.809541345
vn 0.5854238 0.170382246 -0.7926215
vn 0.377298534 0.127623916 -0.91725564
vn 0.460684866 0.288508445 -0.839364231
vn 0.003535348 0.105618671 -0.994400442
vn 0.2047687 0.298351169 -0.9322319
vn -0.816683233 0.3337286 0.470801175
vn -0.953781664 0.156610578 0.2564638
vn -0.9568617 0.288697451 0.0327027552
vn -0.9481809 0.270630568 0.166469246
vn -0.488917977 0.10898938 -0.8654944
vn -0.371555477 0.0288587473 -0.9279621
vn -0.2672492 0.4184673 -0.868022442
vn -0.9561895 0.289885521 -0.0408414528
vn -0.9859099 0.166993871 -0.009735809
vn -0.9629837 0.225060016 -0.1483586
vn -0.980823457 0.194814935 -0.005699942
vn -0.8321468 0.262846082 -0.4883069
vn -0.989541233 0.0998554 -0.104100958
vn -0.358272076 0.0712676644 -0.9308931
vn -0.193098664 0.3086899 -0.9313557
vn -0.478045434 0.180891216 -0.8595062
vn 0.798553765 -0.306523442 -0.5180302
vn 0.9842676 -0.168344736 0.0536413528
vn 0.8451513 -0.176919848 -0.5043993
vn 0.06544404 0.02723909 -0.9974844
vn 0.4568359 -0.197800353 -0.8672808
vn 0.687774837 -0.121166557 -0.7157405
vn 0.12441843 -0.09266563 -0.9878933
vn 0.651282668 -0.179403171 -0.7373231
vn 0.5325763 -0.0318365246 -0.845783
vn 0.7481745 -0.1551692 -0.6451027
vn -0.5927302 -0.125533029 -0.795557857
vn -0.7382191 -8.853724E-05 -0.674561
vn -0.6395071 -0.2944173 -0.7101754
vn -0.9039865 -0.148389384 -0.400985062
vn -0.409296632 -0.425708741 -0.806999564
vn -0.410128355 -0.25418815 -0.8758899
vn 0.135975212 -0.171017885 -0.97584
vn -0.9635506 -0.148587734 -0.2224677
vn 0.6498884 -0.0600162446 -0.757656336
vn 0.4496219 -0.0582712069 -0.891316235
vn -0.275012821 -0.158458263 -0.9482926
vn -0.599278 -0.193504229 -0.7768024
vn 0.232986867 0.612974048 0.7549702
vn 0.09084897 0.777425 0.622379959
vn -0.2505599 0.5795063 0.7754948
vn -0.279737234 0.420275927 0.863200545
vn 0.140979975 0.446037024 0.8838414
vn -0.234582826 0.5010163 0.833038747
vn 0.384748578 0.8105908 0.441487372
vn 0.505211234 0.390560329 0.7695611
vn 0.483710945 0.333216459 0.809314847
vn 0.5698659 0.481523663 0.6658737
vn 0.638199 0.336532116 0.692422032
vn 0.516112864 0.5019973 0.6939929
vn 0.8275475 0.4626259 0.318029046
vn 0.8139606 0.348706961 0.4646198
vn 0.76363194 0.47083807 0.441789269
vn 0.973584354 0.2139382 -0.07977465
vn 0.931268036 0.3126481 -0.1870589
vn 0.9828517 0.06756383 -0.171574175
vn -0.4799753 0.5215038 0.705448449
vn -0.816683233 0.3337286 0.470801175
vn -0.7431567 0.198688641 0.638937354
vn -0.439901 0.415167332 0.796318531
vn -0.573977 0.015758628 0.818719745
vn -0.325049341 0.26284194 0.9084366
vn -0.9481809 0.270630568 0.166469246
vn -0.904269457 0.062855 0.4223103
vn 0.7658813 0.5803523 -0.276797742
vn 0.7658813 0.5803523 -0.276797742
vn 0.7658813 0.5803523 -0.276797742
vn 0.827091753 0.5347555 -0.173077345
vn 0.827091753 0.5347555 -0.173077345
vn 0.827091753 0.5347555 -0.173077345
vn 0.679557264 0.7264391 0.102411427
vn 0.679557264 0.7264391 0.102411427
vn 0.679557264 0.7264391 0.102411427
vn 0.419844329 0.396978736 -0.816173136
vn 0.419844329 0.396978736 -0.816173136
vn 0.419844329 0.396978736 -0.816173136
vn 0.422973275 0.401368469 -0.81240195
vn 0.422973275 0.401368469 -0.81240195
vn 0.422973275 0.401368469 -0.81240195
vn -0.256319761 -0.266389281 -0.9291593
vn -0.256319761 -0.266389281 -0.9291593
vn -0.256319761 -0.266389281 -0.9291593
vn -0.18124786 0.4279131 -0.8854601
vn -0.18124786 0.4279131 -0.8854601
vn -0.18124786 0.4279131 -0.8854601
vn -0.904311657 0.387810379 -0.178391665
vn -0.904311657 0.387810379 -0.178391665
vn -0.904311657 0.387810379 -0.178391665
vn -0.296180069 0.8646296 -0.405823857
vn -0.296180069 0.8646296 -0.405823857
vn -0.296180069 0.8646296 -0.405823857
vn -0.6989362 0.688224 -0.194514334
vn -0.6989362 0.688224 -0.194514334
vn -0.6989362 0.688224 -0.194514334
vn -0.7437959 -0.395021 0.539190233
vn -0.5839042 -0.5209825 0.6226019
vn -0.8812775 -0.266669869 0.39017573
vn -0.952836931 -0.1525553 0.262352139
vn -0.9516402 -0.165892377 0.2585743
vn 0.90565753 -0.109141178 0.4097226
vn 0.90565753 -0.109141178 0.4097226
vn 0.90565753 -0.109141178 0.4097226
vn 0.904138446 -0.17699495 0.388852775
vn 0.904138446 -0.17699495 0.388852775
vn 0.904138446 -0.17699495 0.388852775
vn 0.42084676 0.9056283 -0.052204717
vn 0.42084676 0.9056283 -0.052204717
vn 0.42084676 0.9056283 -0.052204717
vn 0.5224613 0.8526628 0.000598265964
vn 0.5224613 0.8526628 0.000598265964
vn 0.5224613 0.8526628 0.000598265964
vn -0.457248926 0.887984037 -0.0490689352
vn -0.457248926 0.887984037 -0.0490689352
vn -0.457248926 0.887984037 -0.0490689352
vn -0.468764931 0.882207334 -0.0443807431
vn -0.468764931 0.882207334 -0.0443807431
vn -0.468764931 0.882207334 -0.0443807431
vn 0.959674656 0.267985731 0.0849014
vn 0.96019 0.142536744 0.240246549
vn 0.8261442 0.310607225 -0.470115781
vn 0.6420596 0.117790349 -0.7575519
vn 0.3642667 0.0304144956 -0.930797935
vn 0.941305757 0.27648145 0.193653047
vn 0.909326434 0.249631092 0.332881033
vn 0.9531631 0.3023086 0.009468436
vn 0.9531631 0.302308619 0.009468437
vn -0.946863234 0.220364153 -0.234285489
vn 0.06272529 -0.05240321 -0.996654153
vn -0.5020077 0.009495923 -0.864811
vn -0.5794756 -0.440449029 -0.685720563
vn -0.945318639 -0.294497281 0.140157163
vn -0.976716638 -0.197183743 -0.0845170245
vn -0.227099851 -0.3382879 -0.913228869
vn -0.9996578 0.0135448957 -0.022379443
vn -0.9823446 0.137041181 -0.1273529
vn 0.990913451 -0.0751316249 0.111560725
vn 0.9835053 -0.01897184 0.179881409
vn 0.9733794 -0.227001756 0.0316674635
vn 0.9311918 -0.332104981 -0.1502936
vn 0.6945178 -0.4889924 -0.5277608
vn 0.435443431 -0.472721279 -0.7661094
vn 0.543649435 -0.754399836 -0.367867053
vn 0.543649435 -0.754399836 -0.367867053
vn 0.543649435 -0.754399836 -0.367867053
vn -0.5655148 -0.7517962 -0.339109927
vn -0.5655148 -0.7517962 -0.339109927
vn -0.5655148 -0.7517962 -0.339109927
vn -0.6513154 0.1546084 -0.742889345
vn -0.571541 0.191149324 -0.797999263
vn -0.8092862 0.308567762 -0.4998418
usemtl 7300000095_part_0_material_0
f 1/1/1 2/2/2 3/3/3
f 3/3/3 4/4/4 1/1/1
f 5/5/5 6/6/6 3/3/3
f 3/3/3 2/2/2 5/5/5
f 7/7/7 8/8/8 9/9/9
f 9/9/9 10/10/10 7/7/7
f 11/11/11 10/10/10 9/9/9
f 9/9/9 12/12/12 11/11/11
f 11/11/11 12/12/12 6/6/6
f 6/6/6 5/5/5 11/11/11
f 13/13/13 14/14/14 15/15/15
f 16/16/16 17/17/17 18/18/18
f 19/19/19 20/20/20 21/21/21
f 20/20/20 19/19/19 22/22/22
f 23/23/23 20/20/20 24/24/24
f 20/20/20 23/23/23 21/21/21
f 25/25/25 26/26/26 27/27/27
f 26/26/26 25/25/25 28/28/28
f 29/29/29 26/26/26 28/28/28
f 26/26/26 29/29/29 30/30/30
f 29/29/29 24/24/24 30/30/30
f 24/24/24 29/29/29 23/23/23
f 31/31/31 32/32/32 33/33/33
f 31/31/31 34/34/34 32/32/32
f 35/35/35 36/36/36 31/31/31
f 35/35/35 31/31/31 33/33/33
f 37/37/37 14/14/14 34/34/34
f 13/13/13 34/34/34 14/14/14
f 38/38/38 37/37/37 39/39/39
f 34/34/34 39/39/39 37/37/37
f 40/40/40 36/36/36 35/35/35
f 36/36/36 41/41/41 42/42/42
f 42/42/42 43/43/43 39/39/39
f 39/39/39 36/36/36 42/42/42
f 39/39/39 43/43/43 38/38/38
f 36/36/36 39/39/39 31/31/31
f 39/39/39 34/34/34 31/31/31
f 40/40/40 41/41/41 36/36/36
f 32/32/32 13/13/13 44/44/44
f 44/44/44 33/33/33 32/32/32
f 44/44/44 45/45/45 33/33/33
f 18/18/18 46/46/46 16/16/16
f 47/47/47 48/48/48 49/49/49
f 46/46/46 18/18/18 48/48/48
f 49/49/49 48/48/48 18/18/18
f 40/40/40 35/35/35 50/50/50
f 51/51/51 52/52/52 53/53/53
f 45/45/45 50/50/50 35/35/35
f 35/35/35 33/33/33 45/45/45
f 48/48/48 54/54/54 55/55/55
f 56/56/56 46/46/46 48/48/48
f 48/48/48 55/55/55 56/56/56
f 57/57/57 58/58/58 45/45/45
f 45/45/45 44/44/44 57/57/57
f 52/52/52 59/59/59 54/54/54
f 60/60/60 40/40/40 50/50/50
f 50/50/50 61/61/61 60/60/60
f 61/61/61 50/50/50 45/45/45
f 45/45/45 58/58/58 61/61/61
f 55/55/55 54/54/54 62/62/62
f 55/55/55 62/62/62 56/56/56
f 63/63/63 56/56/56 62/62/62
f 58/58/58 57/57/57 64/64/64
f 65/65/65 62/62/62 54/54/54
f 54/54/54 59/59/59 65/65/65
f 66/66/66 67/67/67 60/60/60
f 60/60/60 61/61/61 66/66/66
f 64/64/64 66/66/66 61/61/61
f 61/61/61 58/58/58 64/64/64
f 68/68/68 69/69/69 62/62/62
f 62/62/62 65/65/65 68/68/68
f 70/70/70 71/71/71 67/67/67
f 67/67/67 66/66/66 70/70/70
f 72/72/72 70/70/70 66/66/66
f 66/66/66 64/64/64 72/72/72
f 69/69/69 73/73/73 63/63/63
f 63/63/63 62/62/62 69/69/69
f 69/69/69 68/68/68 74/74/74
f 71/71/71 70/70/70 75/75/75
f 70/70/70 72/72/72 75/75/75
f 73/73/73 69/69/69 74/74/74
f 32/32/32 34/34/34 13/13/13
f 54/54/54 47/47/47 52/52/52
f 48/48/48 47/47/47 54/54/54
f 47/47/47 53/53/53 52/52/52
f 49/49/49 53/53/53 47/47/47
f 76/76/76 77/77/77 78/78/78
f 78/78/78 79/79/79 76/76/76
f 77/77/77 76/76/76 80/80/80
f 81/81/81 77/77/77 82/82/82
f 83/83/83 81/81/81 84/84/84
f 85/85/85 83/83/83 86/86/86
f 87/87/87 85/85/85 88/88/88
f 89/89/89 90/90/90 91/91/91
f 91/91/91 92/92/92 89/89/89
f 93/93/93 94/94/94 95/95/95
f 92/92/92 91/91/91 96/96/96
f 97/97/97 98/98/98 99/99/99
f 98/98/98 100/100/100 101/101/101
f 102/102/102 87/87/87 103/103/103
f 93/93/93 102/102/102 104/104/104
f 105/105/105 106/106/106 107/107/107
f 108/108/108 109/109/109 110/110/110
f 110/110/110 111/111/111 108/108/108
f 110/110/110 112/112/112 113/113/113
f 110/110/110 107/107/107 114/114/114
f 114/114/114 112/112/112 110/110/110
f 115/115/115 116/116/116 108/108/108
f 108/108/108 111/111/111 115/115/115
f 117/117/117 118/118/118 115/115/115
f 115/115/115 119/119/119 117/117/117
f 120/120/120 119/119/119 115/115/115
f 121/121/121 120/120/120 115/115/115
f 115/115/115 111/111/111 121/121/121
f 116/116/116 115/115/115 118/118/118
f 118/118/118 122/122/122 116/116/116
f 113/113/113 112/112/112 123/123/123
f 121/121/121 113/113/113 124/124/124
f 120/120/120 121/121/121 125/125/125
f 119/119/119 120/120/120 126/126/126
f 127/127/127 128/128/128 129/129/129
f 129/129/129 130/130/130 131/131/131
f 131/131/131 127/127/127 129/129/129
f 131/131/131 130/130/130 132/132/132
f 128/128/128 127/127/127 133/133/133
f 134/134/134 127/127/127 131/131/131
f 134/134/134 131/131/131 135/135/135
f 133/133/133 127/127/127 136/136/136
f 127/127/127 134/134/134 137/137/137
f 137/137/137 136/136/136 127/127/127
f 137/137/137 134/134/134 138/138/138
f 133/133/133 136/136/136 139/139/139
f 136/136/136 137/137/137 140/140/140
f 140/140/140 139/139/139 136/136/136
f 140/140/140 137/137/137 141/141/141
f 142/142/142 143/143/143 144/144/144
f 145/145/145 146/146/146 147/147/147
f 147/147/147 148/148/148 145/145/145
f 148/148/148 147/147/147 149/149/149
f 129/129/129 128/128/128 145/145/145
f 145/145/145 148/148/148 130/130/130
f 130/130/130 129/129/129 145/145/145
f 150/150/150 130/130/130 148/148/148
f 146/146/146 151/151/151 147/147/147
f 147/147/147 151/151/151 152/152/152
f 121/121/121 111/111/111 110/110/110
f 110/110/110 113/113/113 121/121/121
f 153/153/153 154/154/154 155/155/155
f 156/156/156 157/157/157 158/158/158
f 159/159/159 160/160/160 161/161/161
f 162/162/162 163/163/163 164/164/164
f 165/165/165 166/166/166 167/167/167
f 168/168/168 169/169/169 170/170/170
f 171/171/171 172/172/172 173/173/173
f 174/174/174 175/175/175 176/176/176
f 177/177/177 178/178/178 179/179/179
f 180/180/180 181/181/181 182/182/182
f 183/183/183 184/184/184 185/185/185
f 185/185/185 186/186/186 183/183/183
f 186/186/186 185/185/185 187/187/187
f 188/188/188 189/189/189 190/190/190
f 191/191/191 192/192/192 193/193/193
f 194/194/194 195/195/195 196/196/196
f 197/197/197 198/198/198 199/199/199
f 200/200/200 201/201/201 202/202/202
f 203/203/203 204/204/204 205/205/205
f 206/206/206 143/143/143 142/142/142
f 142/142/142 207/207/207 206/206/206
f 78/78/78 77/77/77 81/81/81
f 81/81/81 208/208/208 78/78/78
f 81/81/81 83/83/83 209/209/209
f 209/209/209 208/208/208 81/81/81
f 85/85/85 210/210/210 209/209/209
f 209/209/209 83/83/83 85/85/85
f 211/211/211 139/139/139 212/212/212
f 213/213/213 214/214/214 211/211/211
f 98/98/98 97/97/97 215/215/215
f 85/85/85 87/87/87 216/216/216
f 216/216/216 210/210/210 85/85/85
f 87/87/87 102/102/102 217/217/217
f 217/217/217 216/216/216 87/87/87
f 218/218/218 219/219/219 220/220/220
f 220/220/220 221/221/221 218/218/218
f 222/222/222 223/223/223 220/220/220
f 220/220/220 219/219/219 222/222/222
f 224/224/224 225/225/225 226/226/226
f 226/226/226 227/227/227 224/224/224
f 227/227/227 226/226/226 228/228/228
f 228/228/228 229/229/229 227/227/227
f 230/230/230 231/231/231 232/232/232
f 233/233/233 234/234/234 235/235/235
f 118/118/118 184/184/184 122/122/122
f 109/109/109 105/105/105 107/107/107
f 107/107/107 110/110/110 109/109/109
f 93/93/93 236/236/236 217/217/217
f 217/217/217 102/102/102 93/93/93
f 93/93/93 95/95/95 100/100/100
f 93/93/93 100/100/100 237/237/237
f 236/236/236 93/93/93 237/237/237
f 237/237/237 100/100/100 238/238/238
f 238/238/238 100/100/100 98/98/98
f 98/98/98 215/215/215 238/238/238
