mtllib 9011003403.mtl
o 9011003403_part_0
v 0.470468 1.27419984 -0.112055667
v 0.359273523 1.27206624 -0.0475753024
v 0.393143922 1.12826645 -0.00688496232
v 0.534575164 1.10679054 -0.0599169061
v 0.393143922 1.12826645 -0.00688496232
v 0.359273523 1.27206624 -0.0475753024
v 0.3364971 1.21209466 -0.163365722
v 0.387742341 1.06424952 -0.100144632
v 0.474843 1.029666 -0.151955038
v 0.401910216 1.22271311 -0.201707929
v 0.5321307 1.04314375 0.0382278636
v 0.5853731 1.04611921 -0.00245978683
v 0.5162859 1.06662416 -0.13563779
v 0.393464684 1.08342385 0.0529983267
v 0.388242334 0.9916252 0.0548576042
v 0.393464684 1.08342385 0.0529983267
v 0.472722083 1.03367817 0.0708398744
v 0.532446563 0.955616355 -0.126680464
v 0.575101137 0.984546661 -0.110077426
v 0.516704559 1.00155735 0.05586324
v 0.5660801 0.853352547 0.08416321
v 0.571370661 0.841189742 0.0583971664
v 0.6024304 0.9139036 0.03328193
v 0.611546159 0.9472805 0.06481918
v 0.54034555 0.8996599 0.02755069
v 0.547339141 0.909574866 -0.101347834
v 0.563743353 0.9393017 0.07452663
v 0.532904446 0.8655026 0.08534219
v 0.481364965 0.9707085 0.149690241
v 0.403823048 1.04314637 0.104732446
v 0.436422437 0.9340921 0.159179121
v 0.532904446 0.8655026 0.08534219
v 0.563743353 0.9393017 0.07452663
v 0.5413067 0.84030056 0.0393404
v 0.571370661 0.841189742 0.0583971664
v 0.5660801 0.853352547 0.08416321
v 0.488507837 0.993346334 0.07900492
v 0.4731353 0.9210696 0.133329242
v 0.436422437 0.9340921 0.159179121
v 0.403823048 1.04314637 0.104732446
v 0.488507837 0.993346334 0.07900492
v 0.4731353 0.9210696 0.133329242
v 0.583539367 0.90075314 -0.08512616
v 0.516704559 1.00155735 0.05586324
v 0.519199133 0.8311147 -0.0746622756
v 0.485898554 0.841387033 0.0255808458
v 0.519199133 0.8311147 -0.0746622756
v 0.51793915 0.820690155 0.03305287
v 0.51793915 0.820690155 0.03305287
v 0.54034555 0.8996599 0.02755069
v 0.485898554 0.841387033 0.0255808458
v 0.5413067 0.84030056 0.0393404
v -0.336792976 1.29086864 -0.0139037892
v -0.452297926 1.28759074 -0.0702450946
v -0.3593112 1.14597058 0.027613014
v -0.5045789 1.11313713 -0.00659471
v -0.336792976 1.29086864 -0.0139037892
v -0.3593112 1.14597058 0.027613014
v -0.319686651 1.2311455 -0.130793869
v -0.360172123 1.0850271 -0.06789746
v -0.4501756 1.04393446 -0.108713761
v -0.3880853 1.23856807 -0.164383769
v -0.474269956 1.038851 0.08879072
v -0.5327745 1.03780758 0.0561494
v -0.492537946 1.076799 -0.08561459
v -0.3405907 1.097092 0.08397565
v -0.323850483 1.00746584 0.07213432
v -0.408756077 1.03488576 0.10710638
v -0.3405907 1.097092 0.08397565
v -0.488729447 0.9621272 -0.0806537941
v -0.53142637 0.9845991 -0.056204617
v -0.451953322 0.9984567 0.100845061
v -0.4912132 0.8329365 0.100672923
v -0.484677136 0.844219744 0.126553059
v -0.5317796 0.9031457 0.08312752
v -0.541084945 0.9336523 0.117398106
v -0.469436049 0.895924866 0.07082241
v -0.490009427 0.911814451 -0.05600942
v -0.452945232 0.859758854 0.125430286
v -0.4919997 0.930315733 0.122143231
v -0.396331668 0.9612193 0.175139964
v -0.336824328 1.049945 0.130517185
v -0.346249551 0.930663 0.172186464
v -0.4919997 0.930315733 0.122143231
v -0.452945232 0.859758854 0.125430286
v -0.463229 0.836263239 0.07891031
v -0.484677136 0.844219744 0.126553059
v -0.4912132 0.8329365 0.100672923
v -0.417775542 0.992102444 0.11246597
v -0.384879261 0.9158741 0.150399715
v -0.346249551 0.930663 0.172186464
v -0.336824328 1.049945 0.130517185
v -0.384879261 0.9158741 0.150399715
v -0.417775542 0.992102444 0.11246597
v -0.523364961 0.8983408 -0.03710725
v -0.451953322 0.9984567 0.100845061
v -0.409833521 0.843974948 0.0602017269
v -0.451598644 0.8355057 -0.03699436
v -0.451598644 0.8355057 -0.03699436
v -0.438728631 0.8196149 0.06928196
v -0.438728631 0.8196149 0.06928196
v -0.469436049 0.895924866 0.07082241
v -0.409833521 0.843974948 0.0602017269
v -0.463229 0.836263239 0.07891031
vt 0.3409333 0.971970856
vt 0.164522529 0.9627085
vt 0.144670337 0.745880246
vt 0.299492449 0.727499664
vt 0.84555316 0.7587841
vt 0.8273873 0.975361168
vt 0.653015256 0.938928246
vt 0.682139337 0.70941186
vt 0.534630537 0.639705539
vt 0.5149439 0.932859838
vt 0.191210821 0.556380033
vt 0.272141576 0.5724868
vt 0.424922168 0.694503248
vt 0.8949557 0.6672012
vt 0.87371856 0.5560194
vt 0.07333287 0.6427005
vt 0.137944028 0.532099843
vt 0.5353236 0.5121413
vt 0.4455803 0.5384857
vt 0.814246237 0.466925144
vt 0.215044379 0.2539301
vt 0.258922428 0.2472713
vt 0.2757776 0.357800066
vt 0.227532521 0.390857935
vt 0.7274572 0.3471166
vt 0.5419475 0.4312364
vt 0.1949772 0.386314034
vt 0.193795636 0.279955626
vt 0.0625638738 0.4133755
vt 0.0240745638 0.559358954
vt 0.0163447354 0.365433216
vt 0.798222542 0.276777983
vt 0.793362 0.341649652
vt 0.7216326 0.267321944
vt 0.7347522 0.242391765
vt 0.777214646 0.245669246
vt 0.158558726 0.48220706
vt 0.07543211 0.350647151
vt 0.973144054 0.391693652
vt 0.936583936 0.5825878
vt 0.8314602 0.475116551
vt 0.914520442 0.363012552
vt 0.445258319 0.410608649
vt 0.174459979 0.495031536
vt 0.5729662 0.3434527
vt 0.7314842 0.3232816
vt 0.42798233 0.3081392
vt 0.2783575 0.242144585
vt 0.718440831 0.270098448
vt 0.270462275 0.284102678
vt 0.268770874 0.2498725
vt 0.267152637 0.250324726
vt 0.164522529 0.9627085
vt 0.3409333 0.971970856
vt 0.144670337 0.745880246
vt 0.299492449 0.727499664
vt 0.8273873 0.975361168
vt 0.84555316 0.7587841
vt 0.653015256 0.938928246
vt 0.682139337 0.70941186
vt 0.534630537 0.639705539
vt 0.5149439 0.932859838
vt 0.191210821 0.556380033
vt 0.272141576 0.5724868
vt 0.424922168 0.694503248
vt 0.8949557 0.6672012
vt 0.87371856 0.5560194
vt 0.137944028 0.532099843
vt 0.07333287 0.6427005
vt 0.5353236 0.5121413
vt 0.4455803 0.5384857
vt 0.814246237 0.466925144
vt 0.258922428 0.2472713
vt 0.215044379 0.2539301
vt 0.2757776 0.357800066
vt 0.227532521 0.390857935
vt 0.7274572 0.3471166
vt 0.5419475 0.4312364
vt 0.193795636 0.279955626
vt 0.1949772 0.386314034
vt 0.0625638738 0.4133755
vt 0.0240745638 0.559358954
vt 0.0163447354 0.365433216
vt 0.793362 0.341649652
vt 0.798222542 0.276777983
vt 0.7216326 0.267321944
vt 0.777214646 0.245669246
vt 0.7347522 0.242391765
vt 0.158558726 0.48220706
vt 0.07543211 0.350647151
vt 0.973144054 0.391693652
vt 0.936583936 0.5825878
vt 0.914520442 0.363012552
vt 0.8314602 0.475116551
vt 0.445258319 0.410608649
vt 0.174459979 0.495031536
vt 0.7314842 0.3232816
vt 0.5729662 0.3434527
vt 0.42798233 0.3081392
vt 0.2783575 0.242144585
vt 0.718440831 0.270098448
vt 0.270462275 0.284102678
vt 0.268770874 0.2498725
vt 0.267152637 0.250324726
vn 0.8728902 0.4326722 0.225516215
vn -0.4048017 0.159434855 0.9003978
vn -0.238556489 0.5491492 0.80095315
vn 0.7504208 0.6403271 0.163859248
vn -0.238556489 0.5491492 0.80095315
vn -0.4048017 0.159434855 0.9003978
vn -0.87684 -0.374248058 -0.301811218
vn -0.8220265 -0.5286123 -0.211758047
vn -0.0782808 -0.315541178 -0.9456776
vn 0.279643536 -0.08555072 -0.956284761
vn 0.308398455 0.570769966 0.760994256
vn 0.919271469 0.390379757 0.05043652
vn 0.689099133 0.175830036 -0.7030123
vn -0.7195775 0.534279048 0.4435698
vn -0.65764606 -0.718773067 -0.225537091
vn -0.7195775 0.534279048 0.4435698
vn 0.486439377 0.60327214 0.632012248
vn -0.422658741 -0.5781161 -0.697955132
vn 0.7281065 0.1251098 -0.6739499
vn -0.279672533 -0.6298247 0.724640667
vn 0.491623849 -0.374385625 0.786219835
vn 0.369416416 -0.9019592 -0.223609373
vn 0.9483962 -0.316971272 0.0086050285
vn 0.7232467 0.189472467 0.664089143
vn -0.9974134 0.0188237019 0.0693702
vn -0.5396594 -0.3347938 -0.7724512
vn -0.233127 0.208877161 0.9497486
vn -0.739972949 -0.400381476 0.540494859
vn 0.684224963 0.27284494 0.6763075
vn -0.3732337 0.5463328 0.7498115
vn -0.467465341 -0.375741333 0.80018425
vn -0.739972949 -0.400381476 0.540494859
vn -0.233127 0.208877161 0.9497486
vn -0.5026561 -0.767238 -0.3983499
vn 0.369416416 -0.9019592 -0.223609373
vn 0.491623849 -0.374385625 0.786219835
vn 0.936329663 -0.351080239 0.005427361
vn 0.503436148 -0.861642 -0.06422699
vn -0.467465341 -0.375741333 0.80018425
vn -0.3732337 0.5463328 0.7498115
vn 0.936329663 -0.351080239 0.005427361
vn 0.503436148 -0.861642 -0.06422699
vn 0.7713329 -0.376966029 -0.5127788
vn -0.279672533 -0.6298247 0.724640667
vn -0.57230866 -0.4719765 -0.6705975
vn -0.9163233 -0.05075551 0.3972099
vn -0.57230866 -0.4719765 -0.6705975
vn 0.244632378 -0.7218055 0.647419333
vn 0.244632378 -0.7218055 0.647419333
vn -0.9974134 0.0188237019 0.0693702
vn -0.9163233 -0.05075551 0.3972099
vn -0.5026561 -0.767238 -0.3983499
vn 0.460611165 0.177594483 0.8696537
vn -0.866699457 0.393201351 0.306960583
vn 0.274144977 0.5231111 0.806969345
vn -0.790877 0.5253469 0.313885719
vn 0.460611165 0.177594483 0.8696537
vn 0.274144977 0.5231111 0.806969345
vn 0.8617093 -0.340771258 -0.375941843
vn 0.8299134 -0.42242974 -0.3644131
vn -0.02076802 -0.295778036 -0.9550309
vn -0.361986339 -0.0998410955 -0.9268213
vn -0.239221171 0.479020417 0.8445784
vn -0.9468829 0.2495215 0.202859029
vn -0.7848089 0.118548691 -0.6082937
vn 0.708069 0.598438144 0.374846667
vn 0.6848356 -0.5858455 -0.43334195
vn -0.4069806 0.4675688 0.78469497
vn 0.708069 0.598438144 0.374846667
vn 0.396065056 -0.4736243 -0.786646366
vn -0.8404998 0.0236814748 -0.541294038
vn 0.490566552 -0.6123251 0.620002
vn -0.2964737 -0.9231668 -0.244676083
vn -0.3717243 -0.465568155 0.803160846
vn -0.9052013 -0.418007165 0.07668481
vn -0.662332952 0.07538658 0.7454072
vn 0.989428043 0.14249973 -0.0269439779
vn 0.5155949 -0.199098766 -0.833379745
vn 0.8261056 -0.347114056 0.443915933
vn 0.314002544 0.182792962 0.931659341
vn -0.5842869 0.08127174 0.807467461
vn 0.42711556 0.494178653 0.757205248
vn 0.638089657 -0.4048331 0.654944062
vn 0.314002544 0.182792962 0.931659341
vn 0.8261056 -0.347114056 0.443915933
vn 0.536133349 -0.687210739 -0.4902065
vn -0.3717243 -0.465568155 0.803160846
vn -0.2964737 -0.9231668 -0.244676083
vn -0.8679465 -0.48521623 0.105990916
vn -0.4067954 -0.905568242 -0.120265014
vn 0.638089657 -0.4048331 0.654944062
vn 0.42711556 0.494178653 0.757205248
vn -0.4067954 -0.905568242 -0.120265014
vn -0.8679465 -0.48521623 0.105990916
vn -0.7763446 -0.44820416 -0.443173051
vn 0.490566552 -0.6123251 0.620002
vn 0.951287746 0.0263838023 0.307173431
vn 0.5485269 -0.372274369 -0.748685539
vn 0.5485269 -0.372274369 -0.748685539
vn -0.105686456 -0.776874065 0.620723
vn -0.105686456 -0.776874065 0.620723
vn 0.989428043 0.14249973 -0.0269439779
vn 0.951287746 0.0263838023 0.307173431
vn 0.536133349 -0.687210739 -0.4902065
usemtl 9011003403_part_0_material_0
f 1/1/1 2/2/2 3/3/3
f 3/3/3 4/4/4 1/1/1
f 5/5/5 6/6/6 7/7/7
f 7/7/7 8/8/8 5/5/5
f 9/9/9 8/8/8 7/7/7
f 7/7/7 10/10/10 9/9/9
f 4/4/4 3/3/3 11/11/11
f 11/11/11 12/12/12 4/4/4
f 1/1/1 4/4/4 13/13/13
f 13/13/13 10/10/10 1/1/1
f 14/14/14 5/5/5 8/8/8
f 8/8/8 15/15/15 14/14/14
f 16/16/16 17/17/17 3/3/3
f 18/18/18 9/9/9 19/19/19
f 20/20/20 8/8/8 18/18/18
f 21/21/21 22/22/22 23/23/23
f 23/23/23 24/24/24 21/21/21
f 25/25/25 20/20/20 18/18/18
f 18/18/18 26/26/26 25/25/25
f 27/27/27 28/28/28 21/21/21
f 21/21/21 24/24/24 27/27/27
f 29/29/29 17/17/17 30/30/30
f 30/30/30 31/31/31 29/29/29
f 32/32/32 33/33/33 25/25/25
f 25/25/25 34/34/34 32/32/32
f 35/35/35 36/36/36 32/32/32
f 32/32/32 34/34/34 35/35/35
f 37/37/37 17/17/17 29/29/29
f 29/29/29 38/38/38 37/37/37
f 15/15/15 39/39/39 40/40/40
f 31/31/31 38/38/38 29/29/29
f 16/16/16 30/30/30 17/17/17
f 40/40/40 14/14/14 15/15/15
f 8/8/8 20/20/20 15/15/15
f 41/41/41 42/42/42 15/15/15
f 15/15/15 42/42/42 39/39/39
f 4/4/4 12/12/12 19/19/19
f 19/19/19 13/13/13 4/4/4
f 43/43/43 19/19/19 12/12/12
f 12/12/12 23/23/23 43/43/43
f 43/43/43 26/26/26 18/18/18
f 18/18/18 19/19/19 43/43/43
f 27/27/27 24/24/24 11/11/11
f 11/11/11 44/44/44 27/27/27
f 12/12/12 11/11/11 24/24/24
f 24/24/24 23/23/23 12/12/12
f 45/45/45 46/46/46 25/25/25
f 25/25/25 26/26/26 45/45/45
f 33/33/33 20/20/20 25/25/25
f 47/47/47 26/26/26 43/43/43
f 43/43/43 23/23/23 48/48/48
f 48/48/48 47/47/47 43/43/43
f 49/49/49 46/46/46 45/45/45
f 50/50/50 48/48/48 23/23/23
f 51/51/51 48/48/48 50/50/50
f 22/22/22 50/50/50 23/23/23
f 52/52/52 50/50/50 22/22/22
f 9/9/9 18/18/18 8/8/8
f 44/44/44 11/11/11 17/17/17
f 17/17/17 37/37/37 44/44/44
f 3/3/3 17/17/17 11/11/11
f 20/20/20 41/41/41 15/15/15
f 19/19/19 9/9/9 13/13/13
f 13/13/13 9/9/9 10/10/10
f 53/53/53 54/54/54 55/55/55
f 56/56/56 55/55/55 54/54/54
f 57/57/57 58/58/58 59/59/59
f 60/60/60 59/59/59 58/58/58
f 60/60/60 61/61/61 59/59/59
f 62/62/62 59/59/59 61/61/61
f 55/55/55 56/56/56 63/63/63
f 64/64/64 63/63/63 56/56/56
f 56/56/56 54/54/54 65/65/65
f 62/62/62 65/65/65 54/54/54
f 58/58/58 66/66/66 60/60/60
f 67/67/67 60/60/60 66/66/66
f 68/68/68 69/69/69 55/55/55
f 61/61/61 70/70/70 71/71/71
f 60/60/60 72/72/72 70/70/70
f 73/73/73 74/74/74 75/75/75
f 76/76/76 75/75/75 74/74/74
f 72/72/72 77/77/77 70/70/70
f 78/78/78 70/70/70 77/77/77
f 79/79/79 80/80/80 74/74/74
f 76/76/76 74/74/74 80/80/80
f 68/68/68 81/81/81 82/82/82
f 83/83/83 82/82/82 81/81/81
f 84/84/84 85/85/85 77/77/77
f 86/86/86 77/77/77 85/85/85
f 87/87/87 88/88/88 85/85/85
f 86/86/86 85/85/85 88/88/88
f 68/68/68 89/89/89 81/81/81
f 90/90/90 81/81/81 89/89/89
f 91/91/91 67/67/67 92/92/92
f 90/90/90 83/83/83 81/81/81
f 82/82/82 69/69/69 68/68/68
f 66/66/66 92/92/92 67/67/67
f 72/72/72 60/60/60 67/67/67
f 93/93/93 94/94/94 67/67/67
f 93/93/93 67/67/67 91/91/91
f 64/64/64 56/56/56 71/71/71
f 65/65/65 71/71/71 56/56/56
f 71/71/71 95/95/95 64/64/64
f 75/75/75 64/64/64 95/95/95
f 78/78/78 95/95/95 70/70/70
f 71/71/71 70/70/70 95/95/95
f 76/76/76 80/80/80 63/63/63
f 96/96/96 63/63/63 80/80/80
f 63/63/63 64/64/64 76/76/76
f 75/75/75 76/76/76 64/64/64
f 97/97/97 98/98/98 77/77/77
f 78/78/78 77/77/77 98/98/98
f 72/72/72 84/84/84 77/77/77
f 78/78/78 99/99/99 95/95/95
f 75/75/75 95/95/95 100/100/100
f 99/99/99 100/100/100 95/95/95
f 97/97/97 101/101/101 98/98/98
f 100/100/100 102/102/102 75/75/75
f 100/100/100 103/103/103 102/102/102
f 102/102/102 73/73/73 75/75/75
f 102/102/102 104/104/104 73/73/73
f 70/70/70 61/61/61 60/60/60
f 63/63/63 96/96/96 68/68/68
f 89/89/89 68/68/68 96/96/96
f 68/68/68 55/55/55 63/63/63
f 94/94/94 72/72/72 67/67/67
f 61/61/61 71/71/71 65/65/65
f 61/61/61 65/65/65 62/62/62
