mtllib 9011002801.mtl
o 9011002801_part_0
v 0.08369715 2.28331852 -0.0766071752
v 0.110077031 2.28269768 0.00685078651
v 0.186851516 2.23092818 0.016132392
v 0.191797167 2.21785355 -0.0642417
v 0.184319347 2.09896517 0.0154204443
v 0.2246604 1.99716365 -0.05979617
v 0.167765558 2.22257972 -0.0631189942
v 0.162350461 2.2220037 0.0258903056
v 0.124973863 2.24873734 -0.136607319
v 0.009859379 2.25948787 -0.15719
v 0.00721354131 2.29313183 -0.0870746
v 0.164866373 2.23136663 -0.116408445
v -0.0500605926 2.30863643 0.0325926319
v -0.127008647 2.23533154 -0.122865431
v -0.153586373 2.23649788 -0.00696129352
v -0.134657219 2.23178864 0.110577241
v -0.1481084 2.230431 -0.00251036882
v -0.19783856 2.083969 0.00695051253
v -0.197168991 2.09703636 0.0840161741
v -0.0777110755 2.20359659 -0.158844024
v -0.119442612 2.05144072 -0.183552384
v -0.180078223 2.01478577 -0.13209945
v -0.189049244 2.07392168 -0.110163957
v -0.06855138 2.12591481 -0.210675627
v -0.0582207069 2.05190182 -0.218655974
v 0.0165408589 2.127703 -0.184716642
v 0.147413224 2.08773541 -0.136834681
v 0.131926522 1.9230504 -0.114424385
v 0.0146449134 1.93177366 -0.198331237
v 0.182207957 1.93212056 -0.04192787
v 0.140723571 1.81629276 -0.07854295
v 0.108377017 1.86034751 -0.1177432
v -0.115679592 1.92279267 -0.153607547
v -0.156323448 2.031002 -0.131319791
v -0.1231641 1.80718112 -0.0989381149
v -0.18646872 1.92874515 -0.0332531258
v -0.08414817 1.84878719 -0.12405359
v 0.0241311882 1.85217655 -0.174674481
v -0.0435395464 1.83783209 -0.1526525
v -0.198779017 2.02904534 -0.0469278246
v -0.0230419077 2.22177315 0.198047131
v -0.0333596841 2.13359261 0.235331267
v 0.0275064781 2.13647747 0.2507358
v 0.0491632037 2.222688 0.196033418
v 0.08445978 2.13600636 0.219740212
v 0.138212 2.11614347 0.188576192
v 0.133140147 2.20667934 0.177759618
v 0.198052332 2.09643555 0.106144756
v 0.1564562 2.207715 0.116571516
v 0.07326482 2.27143431 0.104529113
v -0.07354811 2.22681332 0.187067538
v 0.005280396 2.271959 0.150446922
v -0.134657219 2.23178864 0.110577241
v -0.16020669 2.10719252 0.1616512
v -0.0871411562 2.147369 0.212101787
v 0.0654663444 1.84637046 -0.15344277
v 0.203087211 2.04345751 -0.0756219849
v 0.147413224 2.08773541 -0.136834681
v 0.113902561 2.13470459 -0.131076425
v 0.199238509 2.03905129 -0.0188206285
v 0.0165408589 2.127703 -0.184716642
v 0.01625104 2.19455481 -0.152349114
v -0.156323448 2.031002 -0.131319791
v -0.09332388 2.13785744 -0.15732035
v -0.154641211 2.118832 0.112154335
v -0.198779017 2.02904534 -0.0469278246
v -0.154641211 2.118832 0.112154335
v -0.194953084 2.0581336 0.0422421247
v -0.165068015 2.00908351 0.0173674822
v -0.148718223 1.99590218 0.06908333
v 0.142454743 2.207428 0.120120496
v 0.198052332 2.09643555 0.106144756
v 0.184235722 2.08832479 0.023800537
v 0.166130841 2.216723 0.019982174
v 0.188020736 2.08952522 -0.117588244
v 0.1195199 2.24600744 -0.13457796
v 0.147754148 2.059686 -0.1806652
v 0.133294851 2.151774 -0.17045477
v 0.09860423 2.04952574 -0.216939092
v 0.108719386 2.14669323 -0.188591152
v 0.0124705872 2.14281082 -0.218439728
v 0.0117779393 2.231924 -0.175712913
v -0.123821154 2.22968554 -0.10633032
v -0.192199767 2.10505819 -0.050350666
v -0.1481084 2.230431 -0.00251036882
v -0.185616836 2.15615249 -0.120225705
v -0.181145862 2.142271 -0.0615378022
v 0.0138486363 2.055845 -0.2354993
v 0.0115128309 2.22747 -0.19032672
v -0.08632033 2.20449853 -0.172992438
v -0.121173739 1.81341672 -0.0244019553
v -0.1617159 1.92098165 0.021118857
v -0.180305138 1.94312108 -0.0577440336
v -0.0821577758 1.85502279 -0.0495164432
v -0.182172492 2.08968472 0.114373311
v -0.1579627 2.081396 -0.0812911
v 0.204953045 2.0531137 -0.07152964
v 0.18811579 2.07049417 0.02236177
v 0.1857098 1.93742514 0.0214799866
v 0.181629 1.92825615 -0.0522419736
v 0.142417118 1.83354044 -0.0160859376
v 0.110071495 1.86565614 -0.0542873964
v 0.203087211 2.04345751 -0.0756219849
v 0.0857978538 1.776243 0.149684727
v 0.07838482 1.82005239 0.21982792
v 0.0109393168 1.82116246 0.234046042
v 0.008677822 1.77646351 0.152392209
v 0.09537751 2.234181 0.233007073
v 0.128794149 2.26686287 0.166247576
v 0.0103341974 2.26760268 0.1752004
v 0.0125327818 2.236517 0.260598928
v 0.153610572 2.1359396 0.2460823
v 0.149760455 2.09463835 0.2520656
v 0.198771149 2.08924961 0.187606782
v 0.215430275 2.129115 0.164446563
v 0.243412018 2.084001 0.124823004
v 0.243503809 2.1257596 0.124310583
v 0.215430275 2.129115 0.164446563
v 0.198771149 2.08924961 0.187606782
v 0.1264764 1.89569569 0.232940942
v 0.16493471 1.861872 0.159815371
v 0.0132895783 2.14018 0.296906441
v 0.0133570908 2.09887075 0.302785844
v 0.01282152 1.97004676 0.29299134
v 0.00277185347 1.99364328 -0.200490683
v -0.0283495076 1.9345814 -0.194718659
v 0.0168022886 1.92451644 -0.195082366
v 0.03162918 1.97389507 -0.19960919
v -0.0135379676 1.940803 -0.205694258
v 0.0116406307 1.96210933 -0.201843858
v 0.104439355 1.88853836 -0.223027438
v 0.034357883 1.84106088 -0.217184126
v -0.02174095 1.9523164 -0.202025443
v 0.0149984164 1.94964242 -0.200890571
v 0.01897182 1.732513 -0.207692385
v -0.102840468 1.766531 -0.204259843
v -0.0684775338 1.7765733 0.1537768
v 0.0109393168 1.82116246 0.234046042
v -0.0571692 1.82034254 0.223423392
v -0.07166735 2.23453856 0.237437844
v -0.108435869 2.2673707 0.17253992
v -0.12954621 2.13654566 0.253592849
v -0.1956342 2.129995 0.1753498
v -0.177941486 2.09005618 0.197598845
v -0.12556009 2.09522772 0.2593683
v -0.225869864 2.08500552 0.137270421
v -0.177941486 2.09005618 0.197598845
v -0.1956342 2.129995 0.1753498
v -0.225810036 2.1267643 0.136758834
v -0.14659901 1.86253881 0.1680786
v -0.104173951 1.89618945 0.2390588
v 0.211709052 2.00211954 0.0425476879
v 0.187361374 2.01491976 0.178040087
v 0.184294432 1.99398565 0.175547719
v 0.20893763 1.98141074 0.04408913
v 0.1874133 1.98522425 -0.093262665
v 0.184645087 1.96453381 -0.09148895
v 0.107782096 1.96807384 -0.171646625
v 0.106387869 1.94734764 -0.1703031
v -0.000397981144 1.96053827 -0.2046344
v -0.0004091328 1.93980551 -0.203381449
v -0.202742234 2.003007 0.0535407439
v -0.1999806 1.98228621 0.0549354255
v -0.1645321 1.99473238 0.184800118
v -0.167373031 2.015679 0.187449187
v -0.195043653 1.98607016 -0.08279426
v -0.19227384 1.96536779 -0.08116744
v -0.107137576 1.96698654 -0.184442967
v -0.105763763 1.94625449 -0.1831719
v 0.00780548062 2.2997756 -0.00593093038
v 0.243792385 1.93935919 -0.00122831017
v 0.234709322 1.92489386 -0.07469284
v 0.202717036 1.88585567 -0.150515169
v 0.15367572 1.91700292 -0.19828546
v 0.08380733 1.89183569 -0.236709833
v -0.18727158 1.92430711 -0.133614689
v -0.2334651 1.97381592 0.0591783151
v -0.194464669 2.09563541 0.0174628422
v -0.230072677 1.91572833 -0.004200056
v -0.206781462 1.94270229 -0.06747614
v -0.0246776417 1.88568282 -0.247398227
v -0.08926228 1.89196694 -0.20445025
v 0.199238509 2.03905129 -0.0188206285
v 0.07885088 1.78091192 -0.136777788
v 0.0517466962 1.78421676 -0.156301051
v 0.00304133445 1.77864611 -0.15627107
v -0.05428698 1.79202724 -0.132950842
v -0.0392991267 2.05783248 0.279223174
v 0.07122232 2.050778 0.259892
v 0.15787524 2.04958963 0.222094059
v 0.211546928 2.02808142 0.15566811
v 0.197535738 1.98946261 0.06105748
v -0.15818809 2.01965427 0.164751559
v -0.09116485 2.05121017 0.238483578
v -0.197168991 2.09703636 0.0840161741
v -0.201837867 1.98917532 0.09007342
v 0.168419391 2.12215328 0.09066345
v -0.194953084 2.0581336 0.0422421247
v -0.136001989 1.88660336 0.0457613021
v 0.1649065 2.01818824 0.05150994
v 0.158652648 1.90516877 0.0352256
v 0.0009763241 2.20369864 0.155445218
v 0.261157751 2.041208 -0.112778686
v 0.0981292948 2.105803 -0.24082002
v 0.0121204378 2.11089 -0.248676121
v 0.240138248 2.03297377 0.0190179348
v 0.2487479 2.03765583 -0.0439436659
v 0.224440485 2.08293033 -0.191132367
v -0.241028488 2.06770134 0.06831941
v -0.1574503 2.073288 -0.198978186
v -0.2231444 2.05053163 -0.11593584
v 0.0168022886 1.92451644 -0.195082366
v -0.0283495076 1.9345814 -0.194718659
v 0.0003455449 1.94551611 -0.22845459
v 0.03162918 1.97389507 -0.19960919
v 0.0003455449 1.94551611 -0.22845459
v 0.00277185347 1.99364328 -0.200490683
v -0.0283495076 1.9345814 -0.194718659
v 0.00277185347 1.99364328 -0.200490683
v 0.0003455449 1.94551611 -0.22845459
v 0.03162918 1.97389507 -0.19960919
vt 0.364315 0.423326015
vt 0.382672 0.352952957
vt 0.449942 0.325232029
vt 0.459036 0.392719984
vt 0.61738 0.273092031
vt 0.691746 0.138500988
vt 0.708564 0.413063
vt 0.608648 0.42109704
vt 0.405031 0.476595044
vt 0.304145 0.487761021
vt 0.297573 0.443133
vt 0.438311 0.435772
vt 0.24013 0.345366
vt 0.175967 0.460667968
vt 0.151676 0.370326042
vt 0.158352 0.283615
vt 0.139974 0.366324
vt 0.094017 0.350375
vt 0.105535 0.290655971
vt 0.834351 0.43149
vt 0.848445 0.240684986
vt 0.767082 0.187597036
vt 0.743741 0.254699
vt 0.877562 0.342795968
vt 0.920773 0.254102
vt 0.805982 0.850633
vt 0.678988 0.779347
vt 0.679789 0.624264
vt 0.818624 0.652374
vt 0.600182 0.628607
vt 0.661352 0.535436
vt 0.698949 0.567907
vt 0.685702 0.629046
vt 0.683253 0.766825
vt 0.659813 0.525282
vt 0.598437 0.623165
vt 0.688287 0.566271
vt 0.7997 0.574866
vt 0.736177 0.560304
vt 0.605364 0.766626
vt 0.254689 0.183557034
vt 0.244893 0.103393018
vt 0.297545 0.08837199
vt 0.318341 0.181684017
vt 0.364949 0.111795008
vt 0.427576 0.134687
vt 0.393382 0.187354982
vt 0.431035 0.132839978
vt 0.417457 0.236876011
vt 0.344645 0.270907044
vt 0.210858 0.196834981
vt 0.282143 0.236817
vt 0.161513 0.264647961
vt 0.136654 0.185361028
vt 0.197821 0.152345
vt 0.751448 0.560852
vt 0.624118 0.754821
vt 0.678988 0.779347
vt 0.688147 0.830258
vt 0.539077 0.670442
vt 0.805982 0.850633
vt 0.757983 0.924765
vt 0.683253 0.766825
vt 0.687523 0.829534
vt 0.473687 0.803993
vt 0.605364 0.766626
vt 0.473687 0.803993
vt 0.519404 0.766406
vt 0.54296 0.673201
vt 0.474123 0.687333
vt 0.391509 0.18978
vt 0.431035 0.132839978
vt 0.484738 0.193260014
vt 0.416343 0.237425983
vt 0.764521 0.250705
vt 0.808083 0.449171
vt 0.839185 0.22678
vt 0.823634 0.337975025
vt 0.905842 0.227625966
vt 0.856963 0.33839798
vt 0.959396 0.374438
vt 0.932795 0.471310019
vt 0.744382 0.434906
vt 0.681584 0.290106
vt 0.61258 0.423227
vt 0.094583 0.453781962
vt 0.082438 0.408611
vt 0.985996 0.277565956
vt 0.30788 0.513128
vt 0.221426 0.504066
vt 0.659813 0.525282
vt 0.598437 0.623165
vt 0.685702 0.629046
vt 0.688287 0.566271
vt 0.519404 0.766406
vt 0.683253 0.766825
vt 0.678988 0.779347
vt 0.571727 0.731403
vt 0.600182 0.628607
vt 0.679789 0.624264
vt 0.661352 0.535436
vt 0.698949 0.567907
vt 0.624118 0.754821
vt 0.022882 0.908729
vt 0.07678 0.918832
vt 0.076781 0.976674
vt 0.022882 0.976471
vt 0.374971 0.9083
vt 0.401608 0.876635
vt 0.41863 0.97647
vt 0.374971 0.97647
vt 0.307222 0.862887
vt 0.275762 0.864771
vt 0.275761 0.805433
vt 0.307222 0.78769
vt 0.275761 0.748749
vt 0.307222 0.748749
vt 0.307222 0.78769
vt 0.275761 0.805433
vt 0.12873 0.879287
vt 0.104319 0.821988
vt 0.307223 0.97647
vt 0.275762 0.97647
vt 0.178471 0.976471
vt 0.435457 0.787992
vt 0.360853 0.791483
vt 0.368494 0.742354
vt 0.425085 0.745248
vt 0.140917 0.781955
vt 0.113898 0.807176
vt 0.00804 0.722392
vt 0.085712 0.666888
vt 0.873957 0.928994
vt 0.832598 0.92465
vt 0.836639 0.699431
vt 0.97294 0.740057
vt 0.022882 0.908729
vt 0.076781 0.976619
vt 0.07678 0.918832
vt 0.374971 0.9083
vt 0.401608 0.876635
vt 0.307222 0.862887
vt 0.307222 0.78769
vt 0.275761 0.805433
vt 0.275762 0.864771
vt 0.275761 0.748749
vt 0.275761 0.805433
vt 0.307222 0.78769
vt 0.307222 0.748749
vt 0.104319 0.821988
vt 0.12873 0.879287
vt 0.665633 0.990558
vt 0.566785 0.990558
vt 0.566785 0.958175
vt 0.668682 0.958175
vt 0.788042 0.990558
vt 0.792093 0.958175
vt 0.881138 0.990558
vt 0.884686 0.958175
vt 0.961557 0.990558
vt 0.961557 0.958175
vt 0.665633 0.990558
vt 0.668682 0.958175
vt 0.566785 0.958175
vt 0.566785 0.990558
vt 0.788042 0.990558
vt 0.792093 0.958175
vt 0.881138 0.990558
vt 0.884686 0.958175
vt 0.293337 0.378278017
vt 0.625296 0.0712239742
vt 0.707543 0.05176699
vt 0.807569 0.0112220049
vt 0.882453 0.0582479835
vt 0.964586 0.0482519865
vt 0.77326 0.08604097
vt 0.018051 0.295618
vt 0.613709 0.28023
vt 0.625072 0.0704370141
vt 0.696663 0.103752971
vt 0.981879 0.0780550241
vt 0.902061 0.07116598
vt 0.539077 0.670442
vt 0.735332 0.496104956
vt 0.765149 0.503378
vt 0.775628 0.511541
vt 0.71912 0.516803
vt 0.237475 0.02345699
vt 0.343116 0.0189830065
vt 0.448407 0.0493170023
vt 0.529536 0.109023988
vt 0.526343 0.11075598
vt 0.11184 0.124662995
vt 0.163279 0.065983
vt 0.108696 0.271689
vt 0.034581 0.177028
vt 0.47761 0.814323
vt 0.519404 0.766406
vt 0.51258 0.539211
vt 0.474037 0.683311
vt 0.510424 0.562074
vt 0.473832 0.951932
vt 0.578441 0.423563
vt 0.449563 0.709725
vt 0.248702 0.741911
vt 0.571995 0.226379991
vt 0.570916 0.325876
vt 0.549461 0.519197
vt 0.021622 0.288396
vt 0.08026 0.63617
vt 0.0132 0.446895
vt 0.933115 0.850701
vt 0.993299 0.86909
vt 0.953158 0.886457
vt 0.913431 0.918655
vt 0.953158 0.886457
vt 0.949987 0.943117
vt 0.993299 0.86909
vt 0.949987 0.943117
vt 0.953158 0.886457
vt 0.913431 0.918655
vn 0.296809465 0.933300853 -0.202122822
vn 0.399048865 0.9152281 0.0558362044
vn 0.77001816 0.6212569 0.1452993
vn 0.784306169 0.605015755 -0.137185231
vn 0.9601685 0.245567083 0.133316442
vn 0.95851624 0.257862121 -0.121465161
vn 0.945291758 0.264015317 -0.191623047
vn 0.9834858 0.170419142 0.0609356128
vn 0.3825547 0.7830775 -0.4903484
vn -0.04999786 0.814306259 -0.578278065
vn -0.04593211 0.955562949 -0.29118672
vn 0.625935 0.6979045 -0.348044068
vn -0.209354058 0.973590851 0.0910592
vn -0.5396242 0.733754158 -0.41280812
vn -0.722670853 0.6911629 0.006385362
vn -0.746860743 0.593510449 0.299907237
vn -0.939245045 0.325877964 0.107806943
vn -0.939574063 0.342048675 -0.0142570585
vn -0.9425757 0.290035248 0.165621892
vn -0.5186184 0.368824631 -0.7713646
vn -0.6384746 0.163980752 -0.7519711
vn -0.6629493 0.143553853 -0.734772444
vn -0.844786644 0.230890483 -0.482726723
vn -0.446139157 0.296298474 -0.8444922
vn -0.361263633 0.0605269931 -0.9304972
vn 0.099977456 -0.00241258042 -0.9949868
vn 0.456837147 -0.197801173 -0.867279947
vn 0.6877766 -0.121166267 -0.715738833
vn 0.124421865 -0.0926639661 -0.9878931
vn 0.845152 -0.176921323 -0.5043976
vn 0.7481783 -0.155167416 -0.6450987
vn 0.651281834 -0.179398358 -0.737325
vn -0.5718162 -0.178899646 -0.80063796
vn -0.6603658 -0.0777205154 -0.746911347
vn -0.6395138 -0.294417769 -0.7101692
vn -0.9120152 -0.17738609 -0.3698141
vn -0.409299076 -0.4257042 -0.807000756
vn 0.135979787 -0.171016872 -0.9758395
vn -0.4101251 -0.254188657 -0.875891268
vn -0.9723045 -0.144391447 -0.18377994
vn -0.08276592 0.5723944 0.8157907
vn -0.261317283 0.390096962 0.8829143
vn 0.123393849 0.443367451 0.887806
vn 0.231083751 0.616850436 0.7523934
vn 0.5112128 0.4057481 0.757647634
vn 0.658096135 0.341229051 0.671172261
vn 0.569864035 0.481526047 0.6658736
vn 0.8139627 0.348706841 0.464616269
vn 0.763136864 0.5555412 0.3301459
vn 0.323574334 0.8939468 0.310094774
vn -0.403071076 0.602371931 0.6889715
vn 0.0345637649 0.8752129 0.482501537
vn -0.746860743 0.593510449 0.299907237
vn -0.757580459 0.191142038 0.62412864
vn -0.4674746 0.2893868 0.835298
vn 0.5325816 -0.0318371356 -0.845779657
vn 0.698699355 0.7136276 0.0505460836
vn 0.7087254 0.558147252 -0.431485772
vn 0.5945112 0.6724124 -0.440928549
vn 0.935075 0.328194678 0.13387692
vn 0.0913184956 0.3555604 -0.930181563
vn 0.07764572 0.867132843 -0.491987556
vn -0.775178134 0.48929885 -0.399606675
vn -0.5681979 0.509264767 -0.646374941
vn -0.592727542 0.7979693 -0.10917557
vn -0.592469454 0.760761 -0.264995545
vn -0.743801653 -0.395014524 0.539187
vn -0.5839174 -0.520973146 0.6225974
vn -0.881279349 -0.2666662 0.390174121
vn -0.952836752 -0.152554721 0.262353182
vn 0.9596743 0.2679855 0.08490714
vn 0.931268752 0.312648982 -0.1870538
vn 0.9735844 0.213939756 -0.07976949
vn 0.9601887 0.1425369 0.240251824
vn 0.8795336 0.226427957 -0.4185108
vn 0.609878063 0.388618261 -0.690669656
vn 0.6843928 0.162242934 -0.7108332
vn 0.6754069 0.2849216 -0.6801803
vn 0.389083 0.159103587 -0.907359064
vn 0.4076132 0.303623021 -0.8611996
vn 0.0297231022 0.340059221 -0.9399342
vn 0.0239715837 0.438316375 -0.898501039
vn -0.8024536 0.353894442 -0.48044458
vn -0.951166749 0.2884511 -0.109899916
vn -0.912942 0.378899723 -0.1515648
vn -0.9210878 0.387231469 0.04060904
vn -0.9554573 0.262505144 0.134879708
vn 0.003325598 0.144178063 -0.9895462
vn -0.0403131843 0.612614334 -0.7893534
vn -0.38224563 0.5588978 -0.735881448
vn -0.5794718 -0.4404507 -0.6857227
vn -0.945319355 -0.2944975 0.1401519
vn -0.9767167 -0.1971833 -0.08451752
vn -0.22709696 -0.338288575 -0.913229346
vn -0.999657869 0.0135452347 -0.0223798137
vn -0.9823449 0.137040034 -0.12735188
vn 0.9909133 -0.07513443 0.111560382
vn 0.9835053 -0.0189744942 0.179881349
vn 0.9733794 -0.227001637 0.0316678323
vn 0.93119204 -0.332105041 -0.150292441
vn 0.6945206 -0.488990873 -0.527758539
vn 0.435444742 -0.4727207 -0.766109169
vn 0.798553 -0.306526184 -0.5180298
vn 0.3198276 -0.7994056 0.5085873
vn 0.352750629 -0.620513 0.7003789
vn 0.01925553 -0.6294932 0.7767674
vn 0.01085163 -0.877244949 0.479920357
vn 0.380538017 0.6371035 0.670290947
vn 0.458405 0.6858546 0.5652153
vn 0.0124232052 0.9189402 0.394201249
vn 0.0209467784 0.677725852 0.7350163
vn 0.6152855 0.249203861 0.7478778
vn 0.5890754 -0.0306659 0.80749613
vn 0.7989036 -0.0605546348 0.598403037
vn 0.77173 0.265620559 0.5778224
vn 0.817490041 0.00119569071 0.5759415
vn 0.819633543 0.00522796856 0.5728643
vn 0.816386759 -0.00086177 0.577504933
vn 0.8148351 -0.00373522984 0.5796808
vn 0.585126162 -0.30014497 0.753352761
vn 0.733351946 -0.4184005 0.5358508
vn 0.0262686517 0.236608759 0.971249938
vn 0.026572207 0.033794757 0.9990756
vn 0.0256304536 -0.1893281 0.9815794
vn 0.026601145 0.08333686 0.996166348
vn 0.0266012773 0.08333689 0.996166348
vn 0.0266012046 0.08333687 0.996166348
vn 0.0266010333 0.08333683 0.996166348
vn -0.07266361 0.16233106 -0.984057248
vn -0.0427057631 0.226326123 -0.973114967
vn -0.105321378 0.09068127 -0.990295053
vn -0.120712556 0.05620408 -0.991095245
vn 0.015972903 0.0287264921 -0.9994597
vn 0.0331787951 0.0319000371 -0.9989402
vn -0.0149914222 0.0229953863 -0.9996232
vn -0.0221127048 0.021673711 -0.99952054
vn -0.2958344 -0.7980876 0.524917543
vn 0.01925553 -0.6294932 0.7767674
vn -0.3177785 -0.619077444 0.7181643
vn -0.3417401 0.638650835 0.6894483
vn -0.4248593 0.6877458 0.5886428
vn -0.57370615 0.251746237 0.7794133
vn -0.7388739 0.2688549 0.6178855
vn -0.7663119 -0.0572085381 0.6399168
vn -0.545564353 -0.0282426048 0.8375929
vn -0.7857965 0.00462802127 0.6184678
vn -0.7829683 -0.000314528035 0.622061551
vn -0.7846209 0.0025657306 0.619970739
vn -0.788083 0.008669693 0.6155081
vn -0.705698 -0.4153198 0.574020743
vn -0.545646131 -0.297724336 0.783345759
vn 0.9908052 -0.133443385 0.0223149322
vn 0.9680268 -0.164380983 0.189481318
vn 0.9686635 -0.160122782 0.18987298
vn 0.991188347 -0.131627023 0.0148389358
vn 0.8943556 -0.155525237 -0.41945225
vn 0.8729639 -0.1527994 -0.4632347
vn 0.5401437 -0.09426402 -0.8362769
vn 0.503917158 -0.0881114 -0.859246135
vn 0.05554902 -0.0624816567 -0.996499062
vn 0.05531552 -0.06026036 -0.996648848
vn -0.984736 -0.125882775 0.120201953
vn -0.9856516 -0.123680718 0.11486496
vn -0.950731754 -0.157866061 0.266810119
vn -0.950079858 -0.162538916 0.266325742
vn -0.931822956 -0.150568932 -0.330204517
vn -0.915430963 -0.148722157 -0.3739891
vn -0.532177746 -0.09011324 -0.8418233
vn -0.483621866 -0.0845638961 -0.871182442
vn 0.14905715 0.9885931 0.021579748
vn 0.9376741 0.345754832 0.0349437669
vn 0.937779 0.190267757 -0.2904629
vn 0.7990212 0.151721552 -0.581846833
vn 0.5725434 0.12384779 -0.8104664
vn 0.220002189 0.101003945 -0.970256269
vn -0.66835916 0.06554519 -0.7409453
vn -0.956187844 0.2898904 -0.0408459343
vn -0.967058539 0.254535556 0.00306929112
vn -0.9808237 0.194814011 -0.005688846
vn -0.989541233 0.09985457 -0.104102105
vn -0.232155412 0.120058477 -0.965240836
vn -0.497432262 0.0195122566 -0.867283344
vn 0.984267056 -0.1683509 0.0536313
vn 0.6498831 -0.0600078143 -0.7576616
vn 0.449635625 -0.058262255 -0.8913099
vn -0.275010973 -0.158463076 -0.9482924
vn -0.5992738 -0.193509847 -0.776804268
vn -0.234579891 0.5010154 0.8330401
vn 0.454808056 0.320765018 0.830818534
vn 0.5652802 0.498143017 0.657504261
vn 0.763635457 0.470836371 0.4417853
vn 0.9828524 0.067567 -0.1715689
vn -0.5739787 0.0157610625 0.818718553
vn -0.325049728 0.262837529 0.9084377
vn -0.9425757 0.290035248 0.165621892
vn -0.904272139 0.06285813 0.422304124
vn 0.72537744 0.688347757 0.00221655727
vn -0.698931932 0.6882272 -0.194518715
vn -0.95163995 -0.165891916 0.258575439
vn 0.90549165 -0.142115057 0.399860173
vn 0.905657649 -0.109148264 0.40972054
vn -0.04366529 0.9979823 -0.0460938476
vn 0.845532537 0.421909422 -0.327211559
vn 0.279303 0.5308879 -0.8000924
vn -0.254690677 0.43175602 -0.865285754
vn 0.909327447 0.2496313 0.332878143
vn 0.95316267 0.302310079 0.009473831
vn 0.555358648 0.540882945 -0.6316822
vn -0.846676 0.5085038 0.156728089
vn -0.547093868 0.437871248 -0.7134123
vn -0.9296294 0.336409569 0.150392815
vn 0.367574543 -0.6946329 -0.618364036
vn -0.197712585 -0.8706713 -0.450379282
vn 0.36702767 -0.6949721 -0.618307769
vn 0.339635283 0.4596699 -0.820579946
vn 0.339635283 0.4596699 -0.820579946
vn 0.339635283 0.4596699 -0.820579946
vn -0.7663127 0.3512171 -0.5379697
vn -0.7663127 0.3512171 -0.5379697
vn -0.7663127 0.3512171 -0.537969649
vn 0.7765378 -0.2846997 -0.5620811
usemtl 9011002801_part_0_material_0
f 1/1/1 2/2/2 3/3/3
f 3/3/3 4/4/4 1/1/1
f 5/5/5 6/6/6 7/7/7
f 7/7/7 8/8/8 5/5/5
f 9/9/9 10/10/10 11/11/11
f 11/11/11 1/1/1 9/9/9
f 1/1/1 4/4/4 12/12/12
f 12/12/12 9/9/9 1/1/1
f 13/13/13 11/11/11 14/14/14
f 14/14/14 15/15/15 13/13/13
f 16/16/16 17/17/17 18/18/18
f 18/18/18 19/19/19 16/16/16
f 20/20/20 21/21/21 22/22/22
f 22/22/22 23/23/23 20/20/20
f 21/21/21 20/20/20 24/24/24
f 24/24/24 25/25/25 21/21/21
f 26/26/26 27/27/27 28/28/28
f 28/28/28 29/29/29 26/26/26
f 28/28/28 30/30/30 31/31/31
f 31/31/31 32/32/32 28/28/28
f 33/33/33 34/34/34 26/26/26
f 26/26/26 29/29/29 33/33/33
f 35/35/35 36/36/36 33/33/33
f 33/33/33 37/37/37 35/35/35
f 38/38/38 39/39/39 33/33/33
f 33/33/33 29/29/29 38/38/38
f 34/34/34 33/33/33 36/36/36
f 36/36/36 40/40/40 34/34/34
f 41/41/41 42/42/42 43/43/43
f 43/43/43 44/44/44 41/41/41
f 44/44/44 45/45/45 46/46/46
f 46/46/46 47/47/47 44/44/44
f 47/47/47 46/46/46 48/48/48
f 48/48/48 49/49/49 47/47/47
f 50/50/50 49/49/49 3/3/3
f 3/3/3 2/2/2 50/50/50
f 51/51/51 52/52/52 13/13/13
f 13/13/13 53/53/53 51/51/51
f 51/51/51 53/53/53 54/54/54
f 54/54/54 55/55/55 51/51/51
f 51/51/51 55/55/55 42/42/42
f 42/42/42 41/41/41 51/51/51
f 38/38/38 29/29/29 28/28/28
f 28/28/28 56/56/56 38/38/38
f 57/57/57 58/58/58 59/59/59
f 59/59/59 60/60/60 57/57/57
f 58/58/58 61/61/61 62/62/62
f 62/62/62 59/59/59 58/58/58
f 61/61/61 63/63/63 64/64/64
f 64/64/64 62/62/62 61/61/61
f 65/65/65 64/64/64 63/63/63
f 63/63/63 66/66/66 65/65/65
f 67/67/67 68/68/68 69/69/69
f 69/69/69 70/70/70 67/67/67
f 71/71/71 72/72/72 73/73/73
f 73/73/73 74/74/74 71/71/71
f 7/7/7 6/6/6 75/75/75
f 75/75/75 76/76/76 7/7/7
f 75/75/75 77/77/77 78/78/78
f 78/78/78 76/76/76 75/75/75
f 79/79/79 80/80/80 78/78/78
f 78/78/78 77/77/77 79/79/79
f 80/80/80 81/81/81 82/82/82
f 82/82/82 76/76/76 80/80/80
f 81/81/81 24/24/24 20/20/20
f 20/20/20 82/82/82 81/81/81
f 83/83/83 23/23/23 84/84/84
f 84/84/84 85/85/85 83/83/83
f 15/15/15 14/14/14 86/86/86
f 86/86/86 87/87/87 15/15/15
f 79/79/79 88/88/88 81/81/81
f 81/81/81 80/80/80 79/79/79
f 88/88/88 25/25/25 24/24/24
f 24/24/24 81/81/81 88/88/88
f 10/10/10 89/89/89 90/90/90
f 90/90/90 14/14/14 10/10/10
f 91/91/91 92/92/92 93/93/93
f 93/93/93 94/94/94 91/91/91
f 95/95/95 96/96/96 93/93/93
f 93/93/93 92/92/92 95/95/95
f 97/97/97 98/98/98 99/99/99
f 99/99/99 100/100/100 97/97/97
f 100/100/100 99/99/99 101/101/101
f 101/101/101 102/102/102 100/100/100
f 27/27/27 103/103/103 30/30/30
f 30/30/30 28/28/28 27/27/27
f 104/104/104 105/105/105 106/106/106
f 106/106/106 107/107/107 104/104/104
f 108/108/108 109/109/109 110/110/110
f 110/110/110 111/111/111 108/108/108
f 112/112/112 113/113/113 114/114/114
f 114/114/114 115/115/115 112/112/112
f 116/116/116 117/117/117 118/118/118
f 118/118/118 119/119/119 116/116/116
f 114/114/114 113/113/113 120/120/120
f 120/120/120 121/121/121 114/114/114
f 113/113/113 112/112/112 122/122/122
f 122/122/122 123/123/123 113/113/113
f 124/124/124 106/106/106 105/105/105
f 105/105/105 120/120/120 124/124/124
f 108/108/108 111/111/111 122/122/122
f 122/122/122 112/112/112 108/108/108
f 108/108/108 112/112/112 115/115/115
f 115/115/115 109/109/109 108/108/108
f 125/125/125 126/126/126 127/127/127
f 127/127/127 128/128/128 125/125/125
f 129/129/129 130/130/130 131/131/131
f 131/131/131 132/132/132 129/129/129
f 133/133/133 134/134/134 135/135/135
f 135/135/135 136/136/136 133/133/133
f 137/137/137 107/107/107 138/138/138
f 138/138/138 139/139/139 137/137/137
f 140/140/140 111/111/111 110/110/110
f 110/110/110 141/141/141 140/140/140
f 142/142/142 143/143/143 144/144/144
f 144/144/144 145/145/145 142/142/142
f 146/146/146 147/147/147 148/148/148
f 148/148/148 149/149/149 146/146/146
f 144/144/144 150/150/150 151/151/151
f 151/151/151 145/145/145 144/144/144
f 145/145/145 123/123/123 122/122/122
f 122/122/122 142/142/142 145/145/145
f 124/124/124 151/151/151 139/139/139
f 139/139/139 138/138/138 124/124/124
f 140/140/140 142/142/142 122/122/122
f 122/122/122 111/111/111 140/140/140
f 140/140/140 141/141/141 143/143/143
f 143/143/143 142/142/142 140/140/140
f 152/152/152 153/153/153 154/154/154
f 154/154/154 155/155/155 152/152/152
f 156/156/156 152/152/152 155/155/155
f 155/155/155 157/157/157 156/156/156
f 158/158/158 156/156/156 157/157/157
f 157/157/157 159/159/159 158/158/158
f 160/160/160 158/158/158 159/159/159
f 159/159/159 161/161/161 160/160/160
f 162/162/162 163/163/163 164/164/164
f 164/164/164 165/165/165 162/162/162
f 166/166/166 167/167/167 163/163/163
f 163/163/163 162/162/162 166/166/166
f 168/168/168 169/169/169 167/167/167
f 167/167/167 166/166/166 168/168/168
f 160/160/160 161/161/161 169/169/169
f 169/169/169 168/168/168 160/160/160
f 1/1/1 170/170/170 2/2/2
f 6/6/6 5/5/5 171/171/171
f 75/75/75 6/6/6 172/172/172
f 77/77/77 75/75/75 173/173/173
f 79/79/79 77/77/77 174/174/174
f 88/88/88 79/79/79 175/175/175
f 11/11/11 13/13/13 170/170/170
f 15/15/15 53/53/53 13/13/13
f 11/11/11 10/10/10 14/14/14
f 21/21/21 176/176/176 22/22/22
f 19/19/19 18/18/18 177/177/177
f 178/178/178 84/84/84 179/179/179
f 84/84/84 23/23/23 180/180/180
f 25/25/25 88/88/88 181/181/181
f 21/21/21 25/25/25 182/182/182
f 103/103/103 183/183/183 30/30/30
f 28/28/28 32/32/32 56/56/56
f 39/39/39 37/37/37 33/33/33
f 56/56/56 32/32/32 184/184/184
f 38/38/38 56/56/56 185/185/185
f 39/39/39 38/38/38 186/186/186
f 37/37/37 39/39/39 187/187/187
f 44/44/44 52/52/52 41/41/41
f 52/52/52 50/50/50 170/170/170
f 43/43/43 42/42/42 188/188/188
f 52/52/52 44/44/44 50/50/50
f 45/45/45 44/44/44 43/43/43
f 45/45/45 43/43/43 189/189/189
f 50/50/50 44/44/44 47/47/47
f 46/46/46 45/45/45 190/190/190
f 50/50/50 47/47/47 49/49/49
f 48/48/48 46/46/46 191/191/191
f 73/73/73 72/72/72 192/192/192
f 55/55/55 54/54/54 193/193/193
f 41/41/41 52/52/52 51/51/51
f 194/194/194 42/42/42 55/55/55
f 13/13/13 52/52/52 170/170/170
f 53/53/53 195/195/195 54/54/54
f 54/54/54 195/195/195 196/196/196
f 59/59/59 197/197/197 60/60/60
f 65/65/65 66/66/66 198/198/198
f 70/70/70 69/69/69 199/199/199
f 60/60/60 200/200/200 201/201/201
f 60/60/60 197/197/197 200/200/200
f 197/197/197 59/59/59 202/202/202
f 59/59/59 62/62/62 202/202/202
f 62/62/62 64/64/64 202/202/202
f 64/64/64 65/65/65 202/202/202
f 1/1/1 11/11/11 170/170/170
f 2/2/2 170/170/170 50/50/50
f 12/12/12 4/4/4 203/203/203
f 89/89/89 9/9/9 204/204/204
f 89/89/89 205/205/205 90/90/90
f 3/3/3 49/49/49 206/206/206
f 207/207/207 4/4/4 3/3/3
f 208/208/208 9/9/9 12/12/12
f 20/20/20 23/23/23 83/83/83
f 84/84/84 178/178/178 85/85/85
f 53/53/53 15/15/15 209/209/209
f 14/14/14 90/90/90 210/210/210
f 86/86/86 211/211/211 87/87/87
f 80/80/80 76/76/76 78/78/78
f 9/9/9 89/89/89 10/10/10
f 36/36/36 68/68/68 40/40/40
f 120/120/120 113/113/113 124/124/124
f 104/104/104 121/121/121 105/105/105
f 113/113/113 123/123/123 124/124/124
f 212/212/212 213/213/213 214/214/214
f 215/215/215 216/216/216 217/217/217
f 218/218/218 219/219/219 220/220/220
f 214/214/214 221/221/221 212/212/212
f 121/121/121 120/120/120 105/105/105
f 151/151/151 124/124/124 145/145/145
f 137/137/137 139/139/139 150/150/150
f 145/145/145 124/124/124 123/123/123
f 150/150/150 139/139/139 151/151/151
