mtllib 9013003303.mtl
o 9013003303_part_0
v 0.3607567 1.170691 -0.06756623
v 0.418940246 1.063592 -0.08842901
v 0.3840243 1.1626699 -0.110489972
v 0.307235271 1.13402939 -0.151043713
v 0.3605256 1.05111313 -0.151104867
v 0.300213248 1.05059171 -0.08084586
v 0.282818466 1.11832571 -0.101542719
v 0.343352348 1.15468216 -0.150462031
v 0.344546646 1.06778049 -0.02614617
v 0.323928535 1.1564492 -0.0532573275
v 0.282818466 1.11832571 -0.101542719
v 0.300213248 1.05059171 -0.08084586
v 0.355976522 0.976384044 0.006741624
v 0.3896147 0.95572567 -0.0197279435
v 0.417043418 0.950229466 -0.131264225
v 0.3848271 0.9546569 -0.142725766
v 0.342998862 0.9632422 -0.02668129
v 0.403630376 0.885054469 -0.0486595668
v 0.422256827 0.8948764 -0.0185352042
v 0.354426265 0.7863512 -0.01691656
v 0.351467729 0.7849561 -0.04125184
v 0.3775955 0.9184106 -0.1393409
v 0.387364745 0.909396052 -0.06405554
v 0.3898543 0.896859765 -0.005671617
v 0.3388728 0.8041475 -0.006625421
v 0.3180691 1.00185919 0.0117086284
v 0.273638964 0.903650045 0.0359849967
v 0.306042671 0.9058409 0.0399895534
v 0.342012048 0.7964525 -0.04223398
v 0.3388728 0.8041475 -0.006625421
v 0.3898543 0.896859765 -0.005671617
v 0.3388728 0.8041475 -0.006625421
v 0.342012048 0.7964525 -0.04223398
v 0.351467729 0.7849561 -0.04125184
v 0.354426265 0.7863512 -0.01691656
v 0.28432 0.8913486 0.0148613406
v 0.342998862 0.9632422 -0.02668129
v 0.287250161 0.9979076 -0.0398109145
v 0.28432 0.8913486 0.0148613406
v 0.287250161 0.9979076 -0.0398109145
v 0.28432 0.8913486 0.0148613406
v 0.273638964 0.903650045 0.0359849967
v 0.430410981 0.9493343 -0.0519733131
v 0.395832628 0.907345831 -0.128312081
v 0.3068417 0.805603266 -0.121398613
v 0.2943318 0.8152015 -0.0569485724
v 0.316368461 0.8020183 -0.0606506132
v 0.3068417 0.805603266 -0.121398613
v 0.316368461 0.8020183 -0.0606506132
v 0.2943318 0.8152015 -0.0569485724
v 0.387364745 0.909396052 -0.06405554
v 0.403630376 0.885054469 -0.0486595668
v -0.376272082 1.17852712 -0.05253504
v -0.401951 1.17109418 -0.0941707
v -0.438447 1.0757519 -0.0685924143
v -0.3283591 1.13985407 -0.1386779
v -0.3018718 1.12358367 -0.09017349
v -0.320242822 1.05487132 -0.06846098
v -0.3850282 1.058439 -0.134671256
v -0.3636537 1.16167009 -0.136126369
v -0.35980922 1.0758363 -0.0113442643
v -0.320242822 1.05487132 -0.06846098
v -0.3018718 1.12358367 -0.09017349
v -0.3392279 1.16317248 -0.04005203
v -0.4162132 0.9686314 0.0004971812
v -0.3791491 0.986281037 0.0244485624
v -0.4508101 0.963986635 -0.109067284
v -0.419074744 0.9649799 -0.122511007
v -0.369595438 0.971338153 -0.009369501
v -0.4388677 0.8992256 -0.0259131622
v -0.396471977 0.7945633 -0.0192852616
v -0.397786856 0.796664 0.00514349435
v -0.454560637 0.911372662 0.005023429
v -0.4212525 0.9215547 -0.0428020731
v -0.415258259 0.928256154 -0.118721455
v -0.37995553 0.812993348 0.0140835019
v -0.42139557 0.9103329 0.0159014054
v -0.3386828 1.00792766 0.0265771486
v -0.334475458 0.911688 0.056312345
v -0.302750766 0.9062061 0.050452657
v -0.42139557 0.9103329 0.0159014054
v -0.37995553 0.812993348 0.0140835019
v -0.3860066 0.80504024 -0.021089917
v -0.37995553 0.812993348 0.0140835019
v -0.397786856 0.796664 0.00514349435
v -0.396471977 0.7945633 -0.0192852616
v -0.3860066 0.80504024 -0.021089917
v -0.369595438 0.971338153 -0.009369501
v -0.315862477 0.8946713 0.03028703
v -0.311607569 1.00003684 -0.0265675187
v -0.315862477 0.8946713 0.03028703
v -0.311607569 1.00003684 -0.0265675187
v -0.315862477 0.8946713 0.03028703
v -0.302750766 0.9062061 0.050452657
v -0.45933342 0.9657905 -0.0291257463
v -0.433789551 0.9192574 -0.10638158
v -0.33769846 0.8186823 -0.0390248746
v -0.355006248 0.809275866 -0.10238415
v -0.361112118 0.8077023 -0.0411128737
v -0.355006248 0.809275866 -0.10238415
v -0.33769846 0.8186823 -0.0390248746
v -0.361112118 0.8077023 -0.0411128737
v -0.4212525 0.9215547 -0.0428020731
v -0.4388677 0.8992256 -0.0259131622
v 0.32413426 1.208888 -0.110493883
v 0.3241084 1.20890665 -0.11043945
v 0.324049979 1.20892358 -0.110493079
v 0.324065357 1.2089113 -0.11055316
v 0.324093252 1.20890069 -0.110548079
v 0.3240774 1.20892143 -0.110424832
v 0.324049979 1.20892358 -0.110493079
v -0.345356733 1.21328354 -0.09678918
v -0.3453752 1.21327221 -0.09682274
v -0.345333 1.21328533 -0.09686281
v -0.3453212 1.213293 -0.09682509
v -0.345350772 1.21327913 -0.09685847
v -0.3453212 1.213293 -0.09682509
v -0.345336348 1.21329236 -0.0967809558
vt 0.6624373 0.92015326
vt 0.595108449 0.6895008
vt 0.5775645 0.92015326
vt 0.3696749 0.92015326
vt 0.437781841 0.68819356
vt 0.2571073 0.703963637
vt 0.2571073 0.92015326
vt 0.4243302 0.92015326
vt 0.762045145 0.689600945
vt 0.744516134 0.92015326
vt 0.9031037 0.92015326
vt 0.9031037 0.703963637
vt 0.8479141 0.463940024
vt 0.759783864 0.423545182
vt 0.497772276 0.4294858
vt 0.435556382 0.4524426
vt 0.162656039 0.435513437
vt 0.6744678 0.262051463
vt 0.7283765 0.285902143
vt 0.769713163 0.0180307031
vt 0.717638969 0.0163198113
vt 0.443610042 0.33368355
vt 0.279952556 0.302302957
vt 0.782748 0.2686516
vt 0.80962193 0.03482312
vt 0.8986057 0.5189861
vt 0.990572035 0.299268
vt 0.9481957 0.2725438
vt 0.29548642 0.05127549
vt 0.222849563 0.05766207
vt 0.16120185 0.290766239
vt 0.0179678425 0.9322822
vt 0.1027604 0.941763639
vt 0.118253909 0.9847394
vt 0.0210896954 0.9897238
vt 0.905721664 0.250126123
vt 0.8121345 0.403729022
vt 0.982486248 0.5505662
vt 0.989591062 0.235755265
vt 0.0408421457 0.5455651
vt 0.06282529 0.253462374
vt 0.0112711657 0.2733016
vt 0.657954454 0.415649116
vt 0.491987228 0.318349957
vt 0.4770722 0.06004119
vt 0.309347838 0.06322068
vt 0.6612959 0.0494206548
vt 0.712714 0.967950344
vt 0.535438836 0.986327052
vt 0.52886796 0.946272254
vt 0.291576475 0.92766577
vt 0.3225559 0.99343884
vt 0.6624373 0.92015326
vt 0.577564538 0.92015326
vt 0.5951085 0.6895008
vt 0.3696749 0.92015326
vt 0.2571073 0.92015326
vt 0.2571073 0.703963637
vt 0.43778187 0.68819356
vt 0.4243302 0.92015326
vt 0.762045145 0.689600945
vt 0.903103769 0.703963637
vt 0.903103769 0.92015326
vt 0.7445162 0.92015326
vt 0.759783864 0.423545182
vt 0.8479141 0.463940024
vt 0.4977723 0.4294858
vt 0.435007572 0.452442527
vt 0.162656054 0.435513437
vt 0.6744678 0.262051463
vt 0.717639 0.0163198113
vt 0.769713163 0.0180307031
vt 0.728376567 0.285902143
vt 0.2799526 0.302302957
vt 0.443610042 0.33368355
vt 0.80962193 0.03482312
vt 0.782748044 0.2686516
vt 0.8986057 0.5189861
vt 0.948195755 0.2725438
vt 0.990572 0.299268
vt 0.161201864 0.290766239
vt 0.222849578 0.05766207
vt 0.29548645 0.05127555
vt 0.0179678425 0.9322822
vt 0.0210896954 0.9897238
vt 0.118253909 0.9847394
vt 0.1027604 0.941763639
vt 0.812134564 0.403728962
vt 0.9057217 0.250126123
vt 0.982486248 0.5505662
vt 0.989591 0.235755265
vt 0.0408421457 0.5455651
vt 0.0628253147 0.253462374
vt 0.011271188 0.2733016
vt 0.657954454 0.415649056
vt 0.491987258 0.318349957
vt 0.309347868 0.06322068
vt 0.477072239 0.06004119
vt 0.6612959 0.0494206548
vt 0.712714 0.967950344
vt 0.52886796 0.946272254
vt 0.535438836 0.986327052
vt 0.291576475 0.92766577
vt 0.3225559 0.99343884
vt 0.5775645 0.92015326
vt 0.6624373 0.92015326
vt 0.2571073 0.92015326
vt 0.3696749 0.92015326
vt 0.4243302 0.92015326
vt 0.744516134 0.92015326
vt 0.9031037 0.92015326
vt 0.6624373 0.92015326
vt 0.577564538 0.92015326
vt 0.3696749 0.92015326
vt 0.2571073 0.92015326
vt 0.4243302 0.92015326
vt 0.903103769 0.92015326
vt 0.7445162 0.92015326
vn 0.480376452 0.6082275 0.631900132
vn 0.9601751 0.27629146 0.0415544659
vn 0.829150856 0.5066447 -0.2362625
vn -0.593898237 0.08589092 -0.799942255
vn -0.00411239 -0.104220688 -0.9945457
vn -0.978601635 -0.192675143 -0.07221622
vn -0.999618948 0.0125002693 0.0246101823
vn 0.244264558 0.3657221 -0.8980992
vn -0.0268198512 0.3858355 0.9221777
vn -0.400553733 0.4271657 0.810608566
vn -0.999618948 0.0125002693 0.0246101823
vn -0.978601635 -0.192675143 -0.07221622
vn 0.6108582 -0.121060759 0.7824299
vn 0.397900671 0.173894078 0.900797367
vn 0.7748169 -0.150079921 -0.614113033
vn -0.34324643 -0.247753933 -0.905980051
vn -0.317598134 -0.906492233 -0.2782145
vn 0.8042163 -0.495958626 -0.327507466
vn 0.8794947 -0.20762074 0.428231955
vn 0.199285313 -0.8731893 0.444776237
vn 0.0447679125 -0.873046935 -0.485576868
vn -0.464170933 0.1406096 -0.874513745
vn -0.99702096 0.0541658364 0.054911077
vn -0.291166961 0.0540231578 0.9551457
vn -0.679703057 -0.155964866 0.7167138
vn -0.268834084 0.4910187 0.828630745
vn -0.747564 -0.3190826 0.582524061
vn 0.460444748 -0.485374033 0.743238
vn -0.786684 -0.2291507 -0.5732523
vn -0.679703057 -0.155964866 0.7167138
vn -0.291166961 0.0540231578 0.9551457
vn -0.679703057 -0.155964866 0.7167138
vn -0.786684 -0.2291507 -0.5732523
vn 0.0447679125 -0.873046935 -0.485576868
vn 0.199285313 -0.8731893 0.444776237
vn -0.241937444 -0.9137069 -0.32650578
vn -0.317598134 -0.906492233 -0.2782145
vn -0.9224088 -0.0236776229 -0.385488451
vn -0.241937444 -0.9137069 -0.32650578
vn -0.9224088 -0.0236776229 -0.385488451
vn -0.241937444 -0.9137069 -0.32650578
vn -0.747564 -0.3190826 0.582524061
vn 0.9644192 0.0216221679 0.2634921
vn 0.663613856 -0.4551118 -0.5937086
vn -0.375139982 -0.5707468 -0.7304233
vn -0.80436945 -0.116238482 0.5826478
vn 0.192784026 -0.8361231 0.5135489
vn -0.375139982 -0.5707468 -0.7304233
vn 0.192784026 -0.8361231 0.5135489
vn -0.80436945 -0.116238482 0.5826478
vn -0.99702096 0.0541658364 0.054911077
vn 0.8042163 -0.495958626 -0.327507466
vn -0.419670731 0.6283824 0.654990137
vn -0.82450527 0.5296259 -0.1992173
vn -0.932453752 0.348245382 0.09620369
vn 0.5582326 0.08347673 -0.825474441
vn 0.9995332 0.00475312164 -0.0301794279
vn 0.9556589 -0.265805781 -0.126741365
vn -0.05097291 -0.126092732 -0.990708
vn -0.267557651 0.378191382 -0.886219
vn 0.134955868 0.390587062 0.9106199
vn 0.9556589 -0.265805781 -0.126741365
vn 0.9995332 0.00475312164 -0.0301794279
vn 0.4626507 0.4353529 0.7722838
vn -0.32316792 0.231024221 0.9177093
vn -0.5725646 -0.0436629169 0.818696141
vn -0.8223696 -0.07924386 -0.5634081
vn 0.259603918 -0.296728134 -0.9189985
vn 0.209513783 -0.9381766 -0.275551677
vn -0.867681742 -0.418775231 -0.267872632
vn -0.160184324 -0.8724242 -0.461754262
vn -0.25685364 -0.8411831 0.475854129
vn -0.867876649 -0.111439206 0.484119236
vn 0.9989878 -0.0446642451 -0.00534203136
vn 0.421492159 0.07856037 -0.9034227
vn 0.7035114 -0.210693359 0.6787341
vn 0.35285908 0.04107932 0.9347743
vn 0.364631325 0.4741371 0.801397562
vn -0.459796 -0.424177885 0.7801671
vn 0.7466415 -0.382048577 0.544578135
vn 0.35285908 0.04107932 0.9347743
vn 0.7035114 -0.210693359 0.6787341
vn 0.723781 -0.3163153 -0.613258243
vn 0.7035114 -0.210693359 0.6787341
vn -0.25685364 -0.8411831 0.475854129
vn -0.160184324 -0.8724242 -0.461754262
vn 0.723781 -0.3163153 -0.613258243
vn 0.209513783 -0.9381766 -0.275551677
vn 0.130294323 -0.9387564 -0.318998069
vn 0.8887474 -0.130359784 -0.4394706
vn 0.130294323 -0.9387564 -0.318998069
vn 0.8887474 -0.130359784 -0.4394706
vn 0.130294323 -0.9387564 -0.318998069
vn 0.7466415 -0.382048577 0.544578135
vn -0.9394578 0.1256484 0.318797
vn -0.740259051 -0.396737367 -0.542785466
vn 0.823067 -0.185911551 0.536654055
vn 0.271739423 -0.6177827 -0.737903953
vn -0.2425421 -0.8037763 0.5432467
vn 0.271739423 -0.6177827 -0.737903953
vn 0.823067 -0.185911551 0.536654055
vn -0.2425421 -0.8037763 0.5432467
vn 0.9989878 -0.0446642451 -0.00534203136
vn -0.867681742 -0.418775231 -0.267872632
vn 0.6323102 0.770022154 -0.0851454362
vn 0.5624495 0.732059538 0.3843688
vn -0.9102429 0.4131722 0.0273244418
vn -0.545089543 0.579389453 -0.6059581
vn 0.456182241 0.6780573 -0.5763124
vn -0.380368233 0.689801 0.616031349
vn -0.9102429 0.4131722 0.0273244418
vn -0.535239041 0.81492877 0.222284243
vn -0.6500846 0.7257243 -0.2251984
vn 0.452567548 0.5155419 -0.7275982
vn 0.8997362 0.4358668 -0.0222453568
vn -0.488247 0.5352236 -0.6893117
vn 0.8997362 0.4358668 -0.0222453568
vn 0.4587077 0.7647812 0.45243448
usemtl 9013003303_part_0_material_0
f 1/1/1 2/2/2 3/3/3
f 4/4/4 5/5/5 6/6/6
f 6/6/6 7/7/7 4/4/4
f 5/5/5 4/4/4 8/8/8
f 9/9/9 10/10/10 11/11/11
f 11/11/11 12/12/12 9/9/9
f 10/10/10 9/9/9 1/1/1
f 9/9/9 13/13/13 14/14/14
f 15/15/15 16/16/16 5/5/5
f 6/6/6 5/5/5 16/16/16
f 16/16/16 17/17/17 6/6/6
f 18/18/18 19/19/19 20/20/20
f 20/20/20 21/21/21 18/18/18
f 16/16/16 22/22/22 23/23/23
f 23/23/23 17/17/17 16/16/16
f 20/20/20 19/19/19 24/24/24
f 24/24/24 25/25/25 20/20/20
f 26/26/26 27/27/27 28/28/28
f 28/28/28 13/13/13 26/26/26
f 23/23/23 29/29/29 30/30/30
f 30/30/30 31/31/31 23/23/23
f 32/32/32 33/33/33 34/34/34
f 34/34/34 35/35/35 32/32/32
f 28/28/28 36/36/36 37/37/37
f 37/37/37 13/13/13 28/28/28
f 26/26/26 38/38/38 27/27/27
f 28/28/28 27/27/27 39/39/39
f 13/13/13 9/9/9 26/26/26
f 9/9/9 12/12/12 38/38/38
f 38/38/38 26/26/26 9/9/9
f 40/40/40 6/6/6 17/17/17
f 41/41/41 42/42/42 40/40/40
f 40/40/40 17/17/17 41/41/41
f 15/15/15 5/5/5 2/2/2
f 2/2/2 43/43/43 15/15/15
f 43/43/43 18/18/18 44/44/44
f 44/44/44 15/15/15 43/43/43
f 16/16/16 15/15/15 44/44/44
f 44/44/44 22/22/22 16/16/16
f 19/19/19 43/43/43 14/14/14
f 14/14/14 24/24/24 19/19/19
f 22/22/22 45/45/45 46/46/46
f 46/46/46 23/23/23 22/22/22
f 23/23/23 31/31/31 17/17/17
f 37/37/37 24/24/24 14/14/14
f 44/44/44 45/45/45 22/22/22
f 19/19/19 18/18/18 43/43/43
f 2/2/2 14/14/14 43/43/43
f 47/47/47 45/45/45 44/44/44
f 44/44/44 18/18/18 47/47/47
f 48/48/48 49/49/49 50/50/50
f 51/51/51 50/50/50 49/49/49
f 49/49/49 52/52/52 51/51/51
f 34/34/34 33/33/33 51/51/51
f 51/51/51 52/52/52 34/34/34
f 14/14/14 13/13/13 37/37/37
f 3/3/3 2/2/2 5/5/5
f 5/5/5 8/8/8 3/3/3
f 1/1/1 9/9/9 2/2/2
f 9/9/9 14/14/14 2/2/2
f 53/53/53 54/54/54 55/55/55
f 56/56/56 57/57/57 58/58/58
f 58/58/58 59/59/59 56/56/56
f 59/59/59 60/60/60 56/56/56
f 61/61/61 62/62/62 63/63/63
f 63/63/63 64/64/64 61/61/61
f 64/64/64 53/53/53 61/61/61
f 61/61/61 65/65/65 66/66/66
f 67/67/67 59/59/59 68/68/68
f 58/58/58 69/69/69 68/68/68
f 68/68/68 59/59/59 58/58/58
f 70/70/70 71/71/71 72/72/72
f 72/72/72 73/73/73 70/70/70
f 68/68/68 69/69/69 74/74/74
f 74/74/74 75/75/75 68/68/68
f 72/72/72 76/76/76 77/77/77
f 77/77/77 73/73/73 72/72/72
f 78/78/78 66/66/66 79/79/79
f 79/79/79 80/80/80 78/78/78
f 74/74/74 81/81/81 82/82/82
f 82/82/82 83/83/83 74/74/74
f 84/84/84 85/85/85 86/86/86
f 86/86/86 87/87/87 84/84/84
f 79/79/79 66/66/66 88/88/88
f 88/88/88 89/89/89 79/79/79
f 78/78/78 80/80/80 90/90/90
f 79/79/79 91/91/91 80/80/80
f 66/66/66 78/78/78 61/61/61
f 61/61/61 78/78/78 90/90/90
f 90/90/90 62/62/62 61/61/61
f 92/92/92 69/69/69 58/58/58
f 93/93/93 69/69/69 92/92/92
f 92/92/92 94/94/94 93/93/93
f 67/67/67 95/95/95 55/55/55
f 55/55/55 59/59/59 67/67/67
f 95/95/95 67/67/67 96/96/96
f 96/96/96 70/70/70 95/95/95
f 68/68/68 75/75/75 96/96/96
f 96/96/96 67/67/67 68/68/68
f 73/73/73 77/77/77 65/65/65
f 65/65/65 95/95/95 73/73/73
f 75/75/75 74/74/74 97/97/97
f 97/97/97 98/98/98 75/75/75
f 74/74/74 69/69/69 81/81/81
f 88/88/88 65/65/65 77/77/77
f 96/96/96 75/75/75 98/98/98
f 73/73/73 95/95/95 70/70/70
f 55/55/55 95/95/95 65/65/65
f 99/99/99 70/70/70 96/96/96
f 96/96/96 98/98/98 99/99/99
f 100/100/100 101/101/101 102/102/102
f 103/103/103 104/104/104 102/102/102
f 102/102/102 101/101/101 103/103/103
f 86/86/86 104/104/104 103/103/103
f 103/103/103 87/87/87 86/86/86
f 65/65/65 88/88/88 66/66/66
f 54/54/54 60/60/60 59/59/59
f 59/59/59 55/55/55 54/54/54
f 53/53/53 55/55/55 61/61/61
f 61/61/61 55/55/55 65/65/65
f 105/105/105 106/106/106 1/1/1
f 1/1/1 3/3/3 105/105/105
f 107/107/107 108/108/108 4/4/4
f 4/4/4 7/7/7 107/107/107
f 108/108/108 109/109/109 8/8/8
f 8/8/8 4/4/4 108/108/108
f 110/110/110 111/111/111 11/11/11
f 11/11/11 10/10/10 110/110/110
f 106/106/106 110/110/110 10/10/10
f 10/10/10 1/1/1 106/106/106
f 109/109/109 105/105/105 3/3/3
f 3/3/3 8/8/8 109/109/109
f 112/112/112 113/113/113 54/54/54
f 54/54/54 53/53/53 112/112/112
f 114/114/114 115/115/115 57/57/57
f 57/57/57 56/56/56 114/114/114
f 116/116/116 114/114/114 56/56/56
f 56/56/56 60/60/60 116/116/116
f 117/117/117 118/118/118 64/64/64
f 64/64/64 63/63/63 117/117/117
f 118/118/118 112/112/112 53/53/53
f 53/53/53 64/64/64 118/118/118
f 113/113/113 116/116/116 60/60/60
f 60/60/60 54/54/54 113/113/113
