mtllib 9013001404.mtl
o 9013001404_part_0
v -0.325989664 0.0329133421 0.148984671
v -0.284342229 0.0326284133 0.02944908
v -0.142244041 0.0350172557 0.09539397
v -0.200368717 0.0279328 0.205212817
v -0.2395668 0.102411531 -0.0376152433
v -0.117738485 0.104294732 -0.00142389582
v -0.111021206 0.0416500866 -0.0127272066
v -0.1256929 0.040612407 -0.120901063
v -0.0798829049 0.0439283326 -0.06329569
v -0.209060729 0.03419589 -0.0492901281
v -0.1897099 0.0357518271 -0.09812336
v -0.244427726 0.2959978 -0.0152150914
v -0.23598823 0.278493 -0.09805402
v -0.210673854 0.209376931 -0.09029002
v -0.223276615 0.2098677 -0.0104576433
v -0.160240427 0.2767952 -0.141744673
v -0.09654714 0.2763325 -0.090509735
v -0.102391258 0.212629318 -0.0781264
v -0.153766 0.22038275 -0.129853442
v -0.0882847458 0.298298776 -0.0138160884
v -0.113659188 0.207905263 0.0125932824
v -0.102391258 0.212629318 -0.0781264
v -0.09654714 0.2763325 -0.090509735
v -0.2395668 0.102411531 -0.0376152433
v -0.274174184 0.115579978 0.0580228157
v -0.185384557 0.222479567 0.06140809
v -0.20797351 0.158882558 0.1006746
v -0.152088672 0.1267545 0.105146386
v -0.117738485 0.104294732 -0.00142389582
v -0.0872644857 0.136562958 -0.0876003057
v -0.165791675 0.368156433 0.0698134452
v -0.325989664 0.0329133421 0.148984671
v -0.284342229 0.0326284133 0.02944908
v -0.277660728 0.107911959 0.203705728
v -0.300474644 0.105290025 0.136977375
v -0.210872546 0.0988778546 0.1776109
v -0.2861547 0.02891387 0.228406146
v -0.0872644857 0.136562958 -0.0876003057
v -0.149139732 0.136275023 -0.153085709
v -0.230894387 0.130735338 -0.109778151
v -0.142244041 0.0350172557 0.09539397
v -0.200368717 0.0279328 0.205212817
v -0.2861547 0.02891387 0.228406146
v -0.23598823 0.278493 -0.09805402
v -0.165710852 0.292832881 -0.0543186143
v -0.160240427 0.2767952 -0.141744673
v -0.160240427 0.2767952 -0.141744673
v -0.165710852 0.292832881 -0.0543186143
v -0.09654714 0.2763325 -0.090509735
v -0.09654714 0.2763325 -0.090509735
v -0.165710852 0.292832881 -0.0543186143
v -0.0882847458 0.298298776 -0.0138160884
v -0.165791675 0.368156433 0.0698134452
v -0.165710852 0.292832881 -0.0543186143
v -0.244427726 0.2959978 -0.0152150914
v -0.0882847458 0.298298776 -0.0138160884
v -0.165710852 0.292832881 -0.0543186143
v -0.165791675 0.368156433 0.0698134452
v -0.244427726 0.2959978 -0.0152150914
v -0.165710852 0.292832881 -0.0543186143
v -0.23598823 0.278493 -0.09805402
v -0.117738485 0.104294732 -0.00142389582
v -0.111021206 0.0416500866 -0.0127272066
v -0.0798829049 0.0439283326 -0.06329569
v -0.0798829049 0.0439283326 -0.06329569
v -0.0872644857 0.136562958 -0.0876003057
v -0.117738485 0.104294732 -0.00142389582
v -0.0872644857 0.136562958 -0.0876003057
v -0.0798829049 0.0439283326 -0.06329569
v -0.1256929 0.040612407 -0.120901063
v -0.1256929 0.040612407 -0.120901063
v -0.149139732 0.136275023 -0.153085709
v -0.0872644857 0.136562958 -0.0876003057
v -0.149139732 0.136275023 -0.153085709
v -0.1256929 0.040612407 -0.120901063
v -0.1897099 0.0357518271 -0.09812336
v -0.1897099 0.0357518271 -0.09812336
v -0.230894387 0.130735338 -0.109778151
v -0.149139732 0.136275023 -0.153085709
v -0.230894387 0.130735338 -0.109778151
v -0.1897099 0.0357518271 -0.09812336
v -0.209060729 0.03419589 -0.0492901281
v -0.209060729 0.03419589 -0.0492901281
v -0.2395668 0.102411531 -0.0376152433
v -0.230894387 0.130735338 -0.109778151
v -0.2395668 0.102411531 -0.0376152433
v -0.209060729 0.03419589 -0.0492901281
v -0.111021206 0.0416500866 -0.0127272066
v -0.111021206 0.0416500866 -0.0127272066
v -0.117738485 0.104294732 -0.00142389582
v -0.2395668 0.102411531 -0.0376152433
v -0.114975415 0.1753182 0.0467675626
v -0.127655581 0.236627847 0.0540540554
v -0.18010363 0.2628242 0.08457062
v -0.200772732 0.210846514 0.09497137
v -0.232099265 0.231466472 0.0328609161
v -0.251197249 0.181447685 0.0219603442
v -0.15081346 0.147144124 0.09980713
v -0.260847926 0.142890215 0.0610391237
v -0.217186719 0.161854416 0.130249009
v 0.314393222 0.03179621 0.137342229
v 0.189758673 0.0277000871 0.195792869
v 0.129711986 0.0346763469 0.086786136
v 0.270596117 0.03128742 0.0183281
v 0.10259074 0.103699364 -0.0100181662
v 0.225158542 0.100390539 -0.04728967
v 0.09962279 0.04057757 -0.01704832
v 0.0645745546 0.04351213 -0.07100858
v 0.109329626 0.03987612 -0.129418254
v 0.173705176 0.0345618054 -0.1077808
v 0.193903014 0.03286174 -0.059298642
v 0.2333415 0.2933378 -0.0234075561
v 0.210882455 0.207681328 -0.0189267024
v 0.196469843 0.207630485 -0.09866488
v 0.222655863 0.276343882 -0.106353484
v 0.14590697 0.275835872 -0.148346424
v 0.138845831 0.219452858 -0.1369452
v 0.08852996 0.21221903 -0.084035024
v 0.083373636 0.276064277 -0.0956836045
v 0.07732113 0.2978684 -0.0184097439
v 0.083373636 0.276064277 -0.0956836045
v 0.08852996 0.21221903 -0.084035024
v 0.101713307 0.207097709 0.006430501
v 0.261853248 0.113026515 0.0476777554
v 0.225158542 0.100390539 -0.04728967
v 0.174683183 0.220606685 0.05373232
v 0.197020844 0.156941712 0.0918299
v 0.14084515 0.125463486 0.09732042
v 0.07220621 0.136302054 -0.09397836
v 0.10259074 0.103699364 -0.0100181662
v 0.157724485 0.3662673 0.0636768341
v 0.314393222 0.03179621 0.137342229
v 0.270596117 0.03128742 0.0183281
v 0.289181173 0.104352161 0.1257854
v 0.267574966 0.107131094 0.192908227
v 0.20027177 0.09857086 0.168004289
v 0.2759478 0.0280734058 0.2174589
v 0.07220621 0.136302054 -0.09397836
v 0.132726043 0.135429919 -0.160778224
v 0.215018615 0.128937125 -0.119495094
v 0.129711986 0.0346763469 0.086786136
v 0.189758673 0.0277000871 0.195792869
v 0.2759478 0.0280734058 0.2174589
v 0.222655863 0.276343882 -0.106353484
v 0.14590697 0.275835872 -0.148346424
v 0.153710976 0.291459829 -0.0607022122
v 0.14590697 0.275835872 -0.148346424
v 0.083373636 0.276064277 -0.0956836045
v 0.153710976 0.291459829 -0.0607022122
v 0.083373636 0.276064277 -0.0956836045
v 0.07732113 0.2978684 -0.0184097439
v 0.153710976 0.291459829 -0.0607022122
v 0.157724485 0.3662673 0.0636768341
v 0.2333415 0.2933378 -0.0234075561
v 0.153710976 0.291459829 -0.0607022122
v 0.07732113 0.2978684 -0.0184097439
v 0.157724485 0.3662673 0.0636768341
v 0.153710976 0.291459829 -0.0607022122
v 0.2333415 0.2933378 -0.0234075561
v 0.222655863 0.276343882 -0.106353484
v 0.153710976 0.291459829 -0.0607022122
v 0.10259074 0.103699364 -0.0100181662
v 0.07220621 0.136302054 -0.09397836
v 0.0645745546 0.04351213 -0.07100858
v 0.0645745546 0.04351213 -0.07100858
v 0.09962279 0.04057757 -0.01704832
v 0.10259074 0.103699364 -0.0100181662
v 0.07220621 0.136302054 -0.09397836
v 0.132726043 0.135429919 -0.160778224
v 0.109329626 0.03987612 -0.129418254
v 0.109329626 0.03987612 -0.129418254
v 0.0645745546 0.04351213 -0.07100858
v 0.07220621 0.136302054 -0.09397836
v 0.132726043 0.135429919 -0.160778224
v 0.215018615 0.128937125 -0.119495094
v 0.173705176 0.0345618054 -0.1077808
v 0.173705176 0.0345618054 -0.1077808
v 0.109329626 0.03987612 -0.129418254
v 0.132726043 0.135429919 -0.160778224
v 0.215018615 0.128937125 -0.119495094
v 0.225158542 0.100390539 -0.04728967
v 0.193903014 0.03286174 -0.059298642
v 0.193903014 0.03286174 -0.059298642
v 0.173705176 0.0345618054 -0.1077808
v 0.215018615 0.128937125 -0.119495094
v 0.225158542 0.100390539 -0.04728967
v 0.10259074 0.103699364 -0.0100181662
v 0.09962279 0.04057757 -0.01704832
v 0.09962279 0.04057757 -0.01704832
v 0.193903014 0.03286174 -0.059298642
v 0.225158542 0.100390539 -0.04728967
v 0.103101961 0.1745077 0.0398618355
v 0.190318227 0.208957061 0.08643261
v 0.170632169 0.260820985 0.07740794
v 0.1171435 0.235451669 0.04795918
v 0.23892507 0.1791034 0.0123319738
v 0.220954955 0.229015723 0.0242884122
v 0.1396805 0.1458726 0.09204315
v 0.248881876 0.140474141 0.0510156378
v 0.2068318 0.15980497 0.121160105
vt 0.5669437 0.771923363
vt 0.4035508 0.749532759
vt 0.400991052 0.965606
vt 0.56665957 0.9551777
vt 0.254044682 0.7832208
vt 0.247702509 0.9549419
vt 0.155548379 0.935229957
vt 0.0261445586 0.858998537
vt 0.070460014 0.946503758
vt 0.158872858 0.7973974
vt 0.0891843662 0.7939062
vt 0.5469409 0.579658151
vt 0.66673696 0.590609
vt 0.694650233 0.495242834
vt 0.5690474 0.44394964
vt 0.7868308 0.609684944
vt 0.8966327 0.643310666
vt 0.9315683 0.555044532
vt 0.81751 0.5383406
vt 0.23839362 0.532574534
vt 0.251235 0.4249012
vt 0.135399386 0.450785041
vt 0.135080263 0.52264
vt 0.6790609 0.330781043
vt 0.576341152 0.2604134
vt 0.4241855 0.423656464
vt 0.4435231 0.30306834
vt 0.317873538 0.26289773
vt 0.178443149 0.303285658
vt 0.08730682 0.356876373
vt 0.372631729 0.6341687
vt 0.5513084 0.06393486
vt 0.6723731 0.177694857
vt 0.4452293 0.126793623
vt 0.5123424 0.159421086
vt 0.382256269 0.169013739
vt 0.4468128 0.0227406025
vt 0.9532274 0.459630072
vt 0.852905631 0.434604645
vt 0.7503432 0.3952136
vt 0.23029612 0.170206547
vt 0.3488717 0.07319695
vt 0.6415623 0.863604
vt 0.7092136 0.157893836
vt 0.8161494 0.120545924
vt 0.737656832 0.0397548676
vt 0.737656832 0.0397548676
vt 0.8161494 0.120545924
vt 0.850534141 0.0112661123
vt 0.850534141 0.0112661123
vt 0.8161494 0.120545924
vt 0.925029039 0.06721228
vt 0.9500413 0.249457
vt 0.8161494 0.120545924
vt 0.77210784 0.244483173
vt 0.925029039 0.06721228
vt 0.8161494 0.120545924
vt 0.9500413 0.249457
vt 0.77210784 0.244483173
vt 0.8161494 0.120545924
vt 0.7092136 0.157893836
vt 0.178443149 0.303285658
vt 0.119842105 0.222793639
vt 0.0404612459 0.257745147
vt 0.0404612459 0.257745147
vt 0.08730682 0.356876373
vt 0.178443149 0.303285658
vt 0.9532274 0.459630072
vt 0.98405087 0.337604046
vt 0.884609 0.317274928
vt 0.884609 0.317274928
vt 0.852905631 0.434604645
vt 0.9532274 0.459630072
vt 0.852905631 0.434604645
vt 0.884609 0.317274928
vt 0.799188733 0.286950231
vt 0.799188733 0.286950231
vt 0.7503432 0.3952136
vt 0.852905631 0.434604645
vt 0.7503432 0.3952136
vt 0.799188733 0.286950231
vt 0.7457185 0.260179043
vt 0.7457185 0.260179043
vt 0.6790609 0.330781043
vt 0.7503432 0.3952136
vt 0.254044682 0.7832208
vt 0.158872858 0.7973974
vt 0.155548379 0.935229957
vt 0.155548379 0.935229957
vt 0.247702509 0.9549419
vt 0.254044682 0.7832208
vt 0.647874832 0.8226836
vt 0.698227465 0.938177347
vt 0.8071311 0.930241466
vt 0.8138438 0.8352817
vt 0.9145473 0.96284914
vt 0.973989367 0.8370463
vt 0.7151302 0.7492072
vt 0.927103758 0.7594208
vt 0.801936865 0.7389159
vt 0.5669437 0.771923363
vt 0.56665957 0.9551777
vt 0.400991052 0.965606
vt 0.4035508 0.749532759
vt 0.247702509 0.9549419
vt 0.254044682 0.7832208
vt 0.155548379 0.935229957
vt 0.070460014 0.946503758
vt 0.0261445586 0.858998537
vt 0.0891843662 0.7939062
vt 0.158872858 0.7973974
vt 0.5469409 0.579658151
vt 0.5690474 0.44394964
vt 0.694650233 0.495242834
vt 0.66673696 0.590609
vt 0.7868308 0.609684944
vt 0.81751 0.5383406
vt 0.9315683 0.555044532
vt 0.8966327 0.643310666
vt 0.23839362 0.532574534
vt 0.135080263 0.52264
vt 0.135399386 0.450785041
vt 0.251235 0.4249012
vt 0.576341152 0.2604134
vt 0.6790609 0.330781043
vt 0.4241855 0.423656464
vt 0.4435231 0.30306834
vt 0.317873538 0.26289773
vt 0.08730682 0.356876373
vt 0.178443149 0.303285658
vt 0.372631729 0.6341687
vt 0.5513084 0.06393486
vt 0.6723731 0.177694857
vt 0.5123424 0.159421086
vt 0.4452293 0.126793623
vt 0.382256269 0.169013739
vt 0.4468128 0.0227406025
vt 0.9532274 0.459630072
vt 0.852905631 0.434604645
vt 0.7503432 0.3952136
vt 0.23029612 0.170206547
vt 0.3488717 0.07319695
vt 0.6415623 0.863604
vt 0.7092136 0.157893836
vt 0.737656832 0.0397548676
vt 0.8161494 0.120545924
vt 0.737656832 0.0397548676
vt 0.850534141 0.0112661123
vt 0.8161494 0.120545924
vt 0.850534141 0.0112661123
vt 0.925029039 0.06721228
vt 0.8161494 0.120545924
vt 0.9500413 0.249457
vt 0.77210784 0.244483173
vt 0.8161494 0.120545924
vt 0.925029039 0.06721228
vt 0.9500413 0.249457
vt 0.8161494 0.120545924
vt 0.77210784 0.244483173
vt 0.7092136 0.157893836
vt 0.8161494 0.120545924
vt 0.178443149 0.303285658
vt 0.08730682 0.356876373
vt 0.0404612459 0.257745147
vt 0.0404612459 0.257745147
vt 0.119842105 0.222793639
vt 0.178443149 0.303285658
vt 0.9532274 0.459630072
vt 0.852905631 0.434604645
vt 0.884609 0.317274928
vt 0.884609 0.317274928
vt 0.98405087 0.337604046
vt 0.9532274 0.459630072
vt 0.852905631 0.434604645
vt 0.7503432 0.3952136
vt 0.799188733 0.286950231
vt 0.799188733 0.286950231
vt 0.884609 0.317274928
vt 0.852905631 0.434604645
vt 0.7503432 0.3952136
vt 0.6790609 0.330781043
vt 0.7457185 0.260179043
vt 0.7457185 0.260179043
vt 0.799188733 0.286950231
vt 0.7503432 0.3952136
vt 0.254044682 0.7832208
vt 0.247702509 0.9549419
vt 0.155548379 0.935229957
vt 0.155548379 0.935229957
vt 0.158872858 0.7973974
vt 0.254044682 0.7832208
vt 0.647874832 0.8226836
vt 0.8138438 0.8352817
vt 0.8071311 0.930241466
vt 0.698227465 0.938177347
vt 0.973989367 0.8370463
vt 0.9145473 0.96284914
vt 0.7151302 0.7492072
vt 0.927103758 0.7594208
vt 0.801936865 0.7389159
vn -0.862220645 -0.5043566 0.0469037
vn -0.5719657 -0.641042 -0.511781633
vn 0.729859948 -0.680893 0.0607386567
vn 0.5000057 -0.543131 0.674539149
vn -0.8143993 -0.146493 -0.5615101
vn 0.9445697 -0.3279639 0.0150909536
vn 0.07470801 -0.9972053 -0.000566807459
vn 0.07487241 -0.99719274 -0.000870482938
vn 0.07253362 -0.997365952 -0.000270353019
vn 0.07574541 -0.9971265 -0.00116393354
vn 0.07497917 -0.997182965 -0.002061014
vn -0.9324295 -0.151107773 0.3282403
vn -0.8350488 -0.3532273 -0.421810418
vn -0.862134159 0.0123907523 -0.506528556
vn -0.991658568 0.09642462 0.08553091
vn 0.03922936 -0.244673431 -0.968811631
vn 0.8756891 -0.168315232 -0.452590942
vn 0.9538773 -0.0168249123 -0.299725026
vn 0.13800396 0.04959062 -0.9891894
vn 0.910402238 -0.09716922 0.4021516
vn 0.882717252 -0.01959465 0.469495744
vn 0.9538773 -0.0168249123 -0.299725026
vn 0.8756891 -0.168315232 -0.452590942
vn -0.8143993 -0.146493 -0.5615101
vn -0.85866195 0.4868117 -0.160355911
vn -0.18306537 0.232793748 0.9551409
vn -0.1271651 0.8219499 0.5551823
vn 0.7362034 0.370889 0.566079438
vn 0.9445697 -0.3279639 0.0150909536
vn 0.9682084 0.209492326 -0.136695072
vn 0.0190484431 -0.006050855 0.999800265
vn -0.862220645 -0.5043566 0.0469037
vn -0.5719657 -0.641042 -0.511781633
vn -0.3203632 0.640415668 0.698022366
vn -0.800462663 0.5992551 0.0123614753
vn 0.469347954 0.532348156 0.704498351
vn -0.356526166 -0.4824628 0.8000742
vn 0.9682084 0.209492326 -0.136695072
vn 0.136906028 0.270732433 -0.9528697
vn -0.8595529 0.289968967 -0.420816839
vn 0.729859948 -0.680893 0.0607386567
vn 0.5000057 -0.543131 0.674539149
vn -0.356526166 -0.4824628 0.8000742
vn -0.08470866 0.979098141 -0.184908792
vn -0.08470866 0.979098141 -0.184908792
vn -0.08470866 0.979098141 -0.184908792
vn 0.1437119 0.9749344 -0.169852272
vn 0.1437119 0.9749344 -0.169852272
vn 0.1437119 0.9749344 -0.169852272
vn 0.08026351 0.955921769 -0.282438159
vn 0.08026351 0.955921769 -0.282438159
vn 0.08026351 0.955921769 -0.282438159
vn -0.218011633 0.834289849 -0.5063905
vn -0.218011633 0.834289849 -0.5063905
vn -0.218011633 0.834289849 -0.5063905
vn 0.206419215 0.83656466 -0.5074945
vn 0.206419215 0.83656466 -0.5074945
vn 0.206419215 0.83656466 -0.5074945
vn -0.06650093 0.9748369 -0.212769166
vn -0.06650093 0.9748369 -0.212769166
vn -0.06650093 0.9748369 -0.212769166
vn 0.8515751 -0.00327533623 0.5242225
vn 0.8515751 -0.00327533623 0.5242225
vn 0.8515751 -0.00327533623 0.5242225
vn 0.9063217 0.173338369 0.385402083
vn 0.9063217 0.173338369 0.385402083
vn 0.9063217 0.173338369 0.385402083
vn 0.7815921 -0.09929629 -0.6158361
vn 0.7815921 -0.09929629 -0.6158361
vn 0.7815921 -0.09929629 -0.6158361
vn 0.7259616 -0.05276638 -0.6857079
vn 0.7259616 -0.05276638 -0.6857079
vn 0.7259616 -0.05276638 -0.6857079
vn -0.286793053 -0.3678863 -0.884539068
vn -0.286793053 -0.3678863 -0.884539068
vn -0.286793053 -0.3678863 -0.884539068
vn -0.4321641 -0.292073548 -0.853186548
vn -0.4321641 -0.292073548 -0.853186548
vn -0.4321641 -0.292073548 -0.853186548
vn -0.843994141 -0.408587426 -0.3474626
vn -0.843994141 -0.408587426 -0.3474626
vn -0.843994141 -0.408587426 -0.3474626
vn -0.899259865 -0.359503865 -0.249176085
vn -0.899259865 -0.359503865 -0.249176085
vn -0.899259865 -0.359503865 -0.249176085
vn -0.3141227 -0.294920832 0.902412653
vn -0.3141227 -0.294920832 0.902412653
vn -0.3141227 -0.294920832 0.902412653
vn -0.276226074 -0.199266151 0.940208554
vn -0.276226074 -0.199266151 0.940208554
vn -0.276226074 -0.199266151 0.940208554
vn 0.552515745 0.240293577 0.798113644
vn 0.503445268 0.00143615971 0.86402595
vn -0.0490586422 0.176833585 0.9830174
vn -0.25432384 0.50240916 0.8263803
vn -0.739111841 0.138550237 0.6591794
vn -0.797776937 0.432831883 0.419772029
vn 0.533093 0.4714157 0.7025519
vn -0.7825565 0.523680449 0.3366959
vn -0.266871482 0.620431 0.737458467
vn 0.860048652 -0.509180367 0.03242914
vn -0.491440415 -0.5384164 0.6845393
vn -0.730923653 -0.67791754 0.07860264
vn 0.560517 -0.644586563 -0.519931555
vn -0.948618233 -0.3138093 0.0405848548
vn 0.80024004 -0.157884911 -0.578522444
vn -0.08200858 -0.996631265 -0.0008628017
vn -0.08210506 -0.9966233 -0.00087118696
vn -0.08200729 -0.9966314 -0.000846985844
vn -0.0820109 -0.996631145 -0.0007816436
vn -0.0819673538 -0.996634662 -0.000834516366
vn 0.9362157 -0.168864489 0.308196247
vn 0.994569242 0.08174735 0.06441587
vn 0.8507076 0.0049217334 -0.525616169
vn 0.820813537 -0.3622228 -0.441655725
vn -0.06391242 -0.2342294 -0.97007823
vn -0.1595322 0.0626085252 -0.9852054
vn -0.960290551 0.00168024609 -0.278996825
vn -0.8892178 -0.1506297 -0.431975037
vn -0.9013195 -0.08604606 0.4245224
vn -0.8892178 -0.1506297 -0.431975037
vn -0.960290551 0.00168024609 -0.278996825
vn -0.8718896 -0.006041821 0.4896652
vn 0.859059453 0.478655726 -0.181399032
vn 0.80024004 -0.157884911 -0.578522444
vn 0.206399262 0.2219909 0.952953
vn 0.14479 0.8228561 0.549494
vn -0.72095 0.377209038 0.5813299
vn -0.967200637 0.223153681 -0.12134812
vn -0.948618233 -0.3138093 0.0405848548
vn 0.00417824369 -0.0143704507 0.999888
vn 0.860048652 -0.509180367 0.03242914
vn 0.560517 -0.644586563 -0.519931555
vn 0.8016878 0.597713351 -0.0059535983
vn 0.33624506 0.64036727 0.690557063
vn -0.453356862 0.539559543 0.7094667
vn 0.367261082 -0.48502022 0.793646455
vn -0.967200637 0.223153681 -0.12134812
vn -0.153691828 0.279986 -0.9476216
vn 0.8510987 0.282013 -0.4428314
vn -0.730923653 -0.67791754 0.07860264
vn -0.491440415 -0.5384164 0.6845393
vn 0.367261082 -0.48502022 0.793646455
vn 0.09353817 0.9786911 -0.182795867
vn 0.09353817 0.9786911 -0.182795867
vn 0.09353817 0.9786911 -0.182795867
vn -0.133217052 0.9776865 -0.162426069
vn -0.133217052 0.9776865 -0.162426069
vn -0.133217052 0.9776865 -0.162426069
vn -0.07245871 0.9583931 -0.276102155
vn -0.07245871 0.9583931 -0.276102155
vn -0.07245871 0.9583931 -0.276102155
vn 0.218335584 0.8331426 -0.5081368
vn 0.218335584 0.8331426 -0.5081368
vn 0.218335584 0.8331426 -0.5081368
vn -0.2059318 0.8414985 -0.499472082
vn -0.2059318 0.8414985 -0.499472082
vn -0.2059318 0.8414985 -0.499472082
vn 0.07508776 0.9749389 -0.209418148
vn 0.07508776 0.9749389 -0.209418148
vn 0.07508776 0.9749389 -0.209418148
vn -0.9031448 0.1716927 0.393511236
vn -0.9031448 0.1716927 0.393511236
vn -0.9031448 0.1716927 0.393511236
vn -0.838964939 -0.0211151242 0.543775737
vn -0.838964939 -0.0211151242 0.543775737
vn -0.838964939 -0.0211151242 0.543775737
vn -0.740779638 -0.0387153141 -0.6706316
vn -0.740779638 -0.0387153141 -0.6706316
vn -0.740779638 -0.0387153141 -0.6706316
vn -0.79348886 -0.0839508 -0.602766752
vn -0.79348886 -0.0839508 -0.602766752
vn -0.79348886 -0.0839508 -0.602766752
vn 0.411270738 -0.287406385 -0.865016758
vn 0.411270738 -0.287406385 -0.865016758
vn 0.411270738 -0.287406385 -0.865016758
vn 0.2705266 -0.359356076 -0.8931285
vn 0.2705266 -0.359356076 -0.8931285
vn 0.2705266 -0.359356076 -0.8931285
vn 0.891337633 -0.364655346 -0.269339383
vn 0.891337633 -0.364655346 -0.269339383
vn 0.891337633 -0.364655346 -0.269339383
vn 0.8362722 -0.411117524 -0.362810165
vn 0.8362722 -0.411117524 -0.362810165
vn 0.8362722 -0.411117524 -0.362810165
vn 0.285905421 -0.119337656 0.950797856
vn 0.285905421 -0.119337656 0.950797856
vn 0.285905421 -0.119337656 0.950797856
vn 0.3646756 -0.324027628 0.8729363
vn 0.3646756 -0.324027628 0.8729363
vn 0.3646756 -0.324027628 0.8729363
vn -0.532366455 0.241659328 0.8112871
vn 0.278343618 0.489960968 0.8261132
vn 0.075456135 0.16045168 0.9841553
vn -0.480129659 -0.00592429 0.877177536
vn 0.8124303 0.418725 0.405741721
vn 0.7550672 0.117325112 0.6450646
vn -0.5135116 0.475708336 0.714148045
vn 0.79533124 0.5137291 0.3217618
vn 0.288763553 0.615272343 0.7335227
usemtl 9013001404_part_0_material_0
f 1/1/1 2/2/2 3/3/3
f 3/3/3 4/4/4 1/1/1
f 2/2/2 5/5/5 6/6/6
f 6/6/6 3/3/3 2/2/2
f 7/7/7 8/8/8 9/9/9
f 8/8/8 10/10/10 11/11/11
f 7/7/7 10/10/10 8/8/8
f 12/12/12 13/13/13 14/14/14
f 14/14/14 15/15/15 12/12/12
f 16/16/16 17/17/17 18/18/18
f 18/18/18 19/19/19 16/16/16
f 20/20/20 21/21/21 22/22/22
f 22/22/22 23/23/23 20/20/20
f 15/15/15 24/24/24 25/25/25
f 26/26/26 15/15/15 27/27/27
f 21/21/21 26/26/26 27/27/27
f 27/27/27 28/28/28 21/21/21
f 22/22/22 21/21/21 29/29/29
f 29/29/29 30/30/30 22/22/22
f 21/21/21 28/28/28 29/29/29
f 12/12/12 15/15/15 26/26/26
f 26/26/26 31/31/31 12/12/12
f 31/31/31 26/26/26 21/21/21
f 21/21/21 20/20/20 31/31/31
f 32/32/32 25/25/25 33/33/33
f 32/32/32 34/34/34 35/35/35
f 34/34/34 36/36/36 27/27/27
f 32/32/32 37/37/37 34/34/34
f 14/14/14 13/13/13 16/16/16
f 16/16/16 19/19/19 14/14/14
f 38/38/38 39/39/39 19/19/19
f 19/19/19 18/18/18 38/38/38
f 14/14/14 40/40/40 24/24/24
f 24/24/24 15/15/15 14/14/14
f 19/19/19 39/39/39 40/40/40
f 40/40/40 14/14/14 19/19/19
f 29/29/29 28/28/28 41/41/41
f 25/25/25 24/24/24 33/33/33
f 27/27/27 15/15/15 25/25/25
f 42/42/42 34/34/34 37/37/37
f 1/1/1 4/4/4 43/43/43
f 44/44/44 45/45/45 46/46/46
f 47/47/47 48/48/48 49/49/49
f 50/50/50 51/51/51 52/52/52
f 53/53/53 54/54/54 55/55/55
f 56/56/56 57/57/57 58/58/58
f 59/59/59 60/60/60 61/61/61
f 62/62/62 63/63/63 64/64/64
f 65/65/65 66/66/66 67/67/67
f 68/68/68 69/69/69 70/70/70
f 71/71/71 72/72/72 73/73/73
f 74/74/74 75/75/75 76/76/76
f 77/77/77 78/78/78 79/79/79
f 80/80/80 81/81/81 82/82/82
f 83/83/83 84/84/84 85/85/85
f 86/86/86 87/87/87 88/88/88
f 89/89/89 90/90/90 91/91/91
f 28/28/28 42/42/42 41/41/41
f 92/92/92 93/93/93 94/94/94
f 94/94/94 95/95/95 92/92/92
f 94/94/94 96/96/96 97/97/97
f 97/97/97 95/95/95 94/94/94
f 98/98/98 92/92/92 95/95/95
f 97/97/97 99/99/99 95/95/95
f 98/98/98 95/95/95 100/100/100
f 95/95/95 99/99/99 100/100/100
f 28/28/28 36/36/36 42/42/42
f 35/35/35 34/34/34 27/27/27
f 32/32/32 35/35/35 25/25/25
f 42/42/42 36/36/36 34/34/34
f 27/27/27 36/36/36 28/28/28
f 35/35/35 27/27/27 25/25/25
f 101/101/101 102/102/102 103/103/103
f 103/103/103 104/104/104 101/101/101
f 104/104/104 103/103/103 105/105/105
f 105/105/105 106/106/106 104/104/104
f 107/107/107 108/108/108 109/109/109
f 109/109/109 110/110/110 111/111/111
f 107/107/107 109/109/109 111/111/111
f 112/112/112 113/113/113 114/114/114
f 114/114/114 115/115/115 112/112/112
f 116/116/116 117/117/117 118/118/118
f 118/118/118 119/119/119 116/116/116
f 120/120/120 121/121/121 122/122/122
f 122/122/122 123/123/123 120/120/120
f 113/113/113 124/124/124 125/125/125
f 126/126/126 127/127/127 113/113/113
f 123/123/123 128/128/128 127/127/127
f 127/127/127 126/126/126 123/123/123
f 122/122/122 129/129/129 130/130/130
f 130/130/130 123/123/123 122/122/122
f 123/123/123 130/130/130 128/128/128
f 112/112/112 131/131/131 126/126/126
f 126/126/126 113/113/113 112/112/112
f 131/131/131 120/120/120 123/123/123
f 123/123/123 126/126/126 131/131/131
f 132/132/132 133/133/133 124/124/124
f 132/132/132 134/134/134 135/135/135
f 135/135/135 127/127/127 136/136/136
f 132/132/132 135/135/135 137/137/137
f 114/114/114 117/117/117 116/116/116
f 116/116/116 115/115/115 114/114/114
f 138/138/138 118/118/118 117/117/117
f 117/117/117 139/139/139 138/138/138
f 114/114/114 113/113/113 125/125/125
f 125/125/125 140/140/140 114/114/114
f 117/117/117 114/114/114 140/140/140
f 140/140/140 139/139/139 117/117/117
f 130/130/130 141/141/141 128/128/128
f 124/124/124 133/133/133 125/125/125
f 127/127/127 124/124/124 113/113/113
f 142/142/142 137/137/137 135/135/135
f 101/101/101 143/143/143 102/102/102
f 144/144/144 145/145/145 146/146/146
f 147/147/147 148/148/148 149/149/149
f 150/150/150 151/151/151 152/152/152
f 153/153/153 154/154/154 155/155/155
f 156/156/156 157/157/157 158/158/158
f 159/159/159 160/160/160 161/161/161
f 162/162/162 163/163/163 164/164/164
f 165/165/165 166/166/166 167/167/167
f 168/168/168 169/169/169 170/170/170
f 171/171/171 172/172/172 173/173/173
f 174/174/174 175/175/175 176/176/176
f 177/177/177 178/178/178 179/179/179
f 180/180/180 181/181/181 182/182/182
f 183/183/183 184/184/184 185/185/185
f 186/186/186 187/187/187 188/188/188
f 189/189/189 190/190/190 191/191/191
f 128/128/128 141/141/141 142/142/142
f 192/192/192 193/193/193 194/194/194
f 194/194/194 195/195/195 192/192/192
f 194/194/194 193/193/193 196/196/196
f 196/196/196 197/197/197 194/194/194
f 198/198/198 193/193/193 192/192/192
f 196/196/196 193/193/193 199/199/199
f 198/198/198 200/200/200 193/193/193
f 193/193/193 200/200/200 199/199/199
f 128/128/128 142/142/142 136/136/136
f 134/134/134 127/127/127 135/135/135
f 132/132/132 124/124/124 134/134/134
f 142/142/142 135/135/135 136/136/136
f 127/127/127 128/128/128 136/136/136
f 134/134/134 124/124/124 127/127/127
