mtllib 9013001801.mtl
o 9013001801_part_0
v -0.158872977 2.11666155 -0.07291393
v -0.14959529 2.03747988 -0.00274984539
v -0.125767678 2.09598112 0.00780364871
v -0.0364371 2.06001329 0.1225519
v 0.00586691359 2.0664053 0.114667743
v -0.0356679969 2.09107924 0.121569291
v 0.00606585247 2.0942893 0.125970349
v -0.02511268 2.019895 0.0967329443
v 0.005609335 2.05003357 0.09218067
v -0.0301591586 2.031207 0.111249343
v -0.0272357929 2.148192 0.09107533
v -0.024756318 2.124035 0.105241835
v 0.00615315 2.16557837 0.107427552
v 0.0061971345 2.12267876 0.129450724
v -0.09730309 2.09285355 0.0747043341
v -0.108143933 2.037859 0.07485388
v -0.0399488956 2.14882326 0.0370956063
v 0.00571252359 2.16660023 0.0574096
v -0.0686565042 2.12947464 0.07691491
v -0.08968816 2.13394928 0.00565211475
v -0.174794525 1.98159182 -0.08987336
v -0.129144132 1.97333658 0.004577711
v -0.08040956 2.00722742 0.07655437
v -0.0721140653 1.99429035 0.06330536
v -0.173997208 2.05653954 -0.08253221
v -0.0538160428 2.21647739 -0.0169040859
v 0.00545722945 2.230918 0.0030605495
v -0.0601191148 2.27721262 -0.10500823
v 0.00485103624 2.28996086 -0.0886887759
v -0.1298589 2.233251 -0.140812591
v -0.124476515 2.24175835 -0.258460581
v -0.17651 2.140839 -0.178200647
v -0.172246 2.14905643 -0.284088075
v 0.00376373017 2.30143738 -0.215690389
v -0.06229027 2.28936625 -0.220697954
v -0.0399488956 2.14882326 0.0370956063
v 0.00571252359 2.16660023 0.0574096
v -0.08968816 2.13394928 0.00565211475
v -0.108148448 2.19143534 -0.05244969
v -0.158872977 2.11666155 -0.07291393
v -0.08783293 2.25053215 -0.3200698
v -0.108776815 2.07045269 -0.3668241
v -0.0951274261 2.14827251 -0.363307536
v 0.00156880822 2.07614231 -0.373171628
v 0.0018700771 2.15074682 -0.368944168
v -0.152218014 1.53686178 -0.0464774333
v -0.127399921 1.48693633 0.00413600355
v -0.175399229 1.76075053 -0.0476616547
v -0.149471521 1.75933719 0.00571181625
v 0.000949603738 1.76109624 -0.309956074
v -0.0987892449 1.76176643 -0.299983978
v 0.00123668 1.986764 -0.3749944
v -0.108679496 1.97781348 -0.3680591
v -0.0652279556 1.5366112 -0.2760179
v -0.191585124 1.76024675 -0.154003471
v -0.190218627 1.76068521 -0.241361558
v -0.1604671 1.51909411 -0.145646811
v -0.128356844 1.50549853 -0.199738875
v -0.184169814 1.9739418 -0.283387661
v -0.193747029 1.97591066 -0.19771181
v -0.06229027 2.28936625 -0.220697954
v 0.00376373017 2.30143738 -0.215690389
v -0.08783293 2.25053215 -0.3200698
v 0.00263126 2.24956751 -0.3225578
v -0.08783293 2.25053215 -0.3200698
v 0.00376373017 2.30143738 -0.215690389
v -0.08783293 2.25053215 -0.3200698
v 0.00263126 2.24956751 -0.3225578
v -0.0951274261 2.14827251 -0.363307536
v 0.0018700771 2.15074682 -0.368944168
v -0.0951274261 2.14827251 -0.363307536
v 0.00263126 2.24956751 -0.3225578
v -0.185713187 2.06891155 -0.2848732
v -0.174794525 1.98159182 -0.08987336
v -0.129144132 1.97333658 0.004577711
v -0.193017289 2.06578922 -0.18908821
v -0.173997208 2.05653954 -0.08253221
v 0.13578859 2.09505653 0.00548073649
v 0.159010857 2.036389 -0.005490616
v 0.167600408 2.1155076 -0.0758134
v 0.00606585247 2.0942893 0.125970349
v 0.0476912558 2.09078455 0.120828971
v 0.04825809 2.05971432 0.121799722
v 0.04157694 2.03095341 0.110612258
v 0.0361935571 2.01967859 0.0961884856
v 0.03672459 2.123818 0.1046958
v 0.0391226448 2.14795732 0.09048599
v 0.118947886 2.03705621 0.07283707
v 0.108495228 2.092126 0.07287662
v 0.0508792773 2.14850235 0.0362889469
v 0.09994582 2.13327885 0.00396795571
v 0.0801520348 2.12894869 0.07559332
v 0.138240173 1.97239149 0.00220303237
v 0.182263181 1.98032975 -0.0930444747
v 0.0824117139 1.99374425 0.0619329959
v 0.09103248 2.00662136 0.07503177
v 0.18212609 2.05528069 -0.08569501
v 0.06942941 2.27675438 -0.106158718
v 0.06426295 2.21606016 -0.01795277
v 0.1774494 2.14782047 -0.287193835
v 0.130798981 2.24085617 -0.260727644
v 0.1835351 2.13956642 -0.181398228
v 0.13820979 2.23230362 -0.143193349
v 0.06963138 2.2889 -0.221869573
v 0.0508792773 2.14850235 0.0362889469
v 0.117777124 2.19063663 -0.05445616
v 0.09994582 2.13327885 0.00396795571
v 0.167600408 2.1155076 -0.0758134
v 0.09313001 2.24989271 -0.3216769
v 0.111966729 2.06967258 -0.3687846
v 0.09893231 2.14758635 -0.365031
v 0.1513707 1.75933719 0.00571178645
v 0.129299 1.48693633 0.004135996
v 0.177298442 1.76075053 -0.0476616621
v 0.154117212 1.53686118 -0.0464774072
v 0.111192718 1.97703683 -0.370011866
v 0.100688443 1.76176643 -0.299984038
v 0.00123668 1.986764 -0.3749944
v 0.06712722 1.5366112 -0.2760179
v 0.130255952 1.50549853 -0.19973883
v 0.192117825 1.76068521 -0.241361544
v 0.162366271 1.51909411 -0.145646781
v 0.193484336 1.76024675 -0.154003441
v 0.188145474 1.97262585 -0.2866941
v 0.1992567 1.97452152 -0.201202139
v 0.00263126 2.24956751 -0.3225578
v 0.00376373017 2.30143738 -0.215690389
v 0.09313001 2.24989271 -0.3216769
v 0.06963138 2.2889 -0.221869573
v 0.09313001 2.24989271 -0.3216769
v 0.00376373017 2.30143738 -0.215690389
v 0.0018700771 2.15074682 -0.368944168
v 0.00263126 2.24956751 -0.3225578
v 0.09893231 2.14758635 -0.365031
v 0.09313001 2.24989271 -0.3216769
v 0.09893231 2.14758635 -0.365031
v 0.00263126 2.24956751 -0.3225578
v 0.19033362 2.06758261 -0.288212955
v 0.138240173 1.97239149 0.00220303237
v 0.182263181 1.98032975 -0.0930444747
v 0.199315548 2.06440258 -0.192572579
v 0.18212609 2.05528069 -0.08569501
v 0.04447638 2.05228138 0.06982115
v 0.00524979038 2.05392027 0.07421602
v 0.0280317347 1.98744309 0.078108564
v 0.00507589942 1.98794055 0.0798543841
v -0.0169508141 1.98760211 0.0785080642
v -0.0330628119 2.05255556 0.07050978
v -0.09346704 2.16568947 -0.241532519
v -0.1692647 2.30945349 -0.311268926
v -0.0218203384 2.19498777 -0.225070372
v -0.0300744977 2.36475229 -0.280798674
v -0.086930126 2.51426172 -0.3212822
v -0.2040053 2.47444963 -0.3452084
v -0.174920157 2.660952 -0.330050528
v -0.211745217 2.6490593 -0.341041028
v -0.214649692 2.718399 -0.298962
v -0.0374528244 2.379087 -0.235951766
v -0.176643908 2.32378912 -0.2664221
v -0.02625422 2.2036 -0.198122814
v -0.09790057 2.17430258 -0.214584753
v -0.0915893838 2.51988125 -0.2792927
v -0.208335489 2.46997118 -0.311348379
v -0.168852538 2.661634 -0.3064975
v -0.223975986 2.64053631 -0.3212875
v -0.09790057 2.17430258 -0.214584753
v -0.176643908 2.32378912 -0.2664221
v -0.09346704 2.16568947 -0.241532519
v -0.1692647 2.30945349 -0.311268926
v -0.208335489 2.46997118 -0.311348379
v -0.2040053 2.47444963 -0.3452084
v -0.223975986 2.64053631 -0.3212875
v -0.211745217 2.6490593 -0.341041028
v -0.0915893838 2.51988125 -0.2792927
v -0.168852538 2.661634 -0.3064975
v -0.0374528244 2.379087 -0.235951766
v -0.02625422 2.2036 -0.198122814
v -0.214649692 2.718399 -0.298962
v -0.214649692 2.718399 -0.298962
v 0.06764642 2.36959267 -0.297812164
v 0.174245074 2.322051 -0.319773257
v 0.0332200862 2.20678854 -0.243003681
v 0.102896146 2.17490053 -0.25803107
v 0.09127501 2.46924019 -0.330186069
v 0.211185962 2.40980625 -0.3542089
v 0.2623494 2.50985479 -0.3230257
v 0.207498252 2.560214 -0.3057533
v 0.2823553 2.52455616 -0.198926732
v 0.242774785 2.57166386 -0.194896191
v 0.108311176 2.18198681 -0.234462991
v 0.181336418 2.33132935 -0.2889111
v 0.03863554 2.21387529 -0.219435945
v 0.0747374743 2.37886858 -0.2669496
v 0.218701065 2.42130566 -0.3172608
v 0.09601493 2.45642424 -0.288886666
v 0.121226832 2.526918 -0.25557965
v 0.2520538 2.5161 -0.10328801
v 0.181403309 2.56004381 -0.16059576
v 0.174245074 2.322051 -0.319773257
v 0.181336418 2.33132935 -0.2889111
v 0.102896146 2.17490053 -0.25803107
v 0.108311176 2.18198681 -0.234462991
v 0.218701065 2.42130566 -0.3172608
v 0.211185962 2.40980625 -0.3542089
v 0.2623494 2.50985479 -0.3230257
v 0.2823553 2.52455616 -0.198926732
v 0.254269272 2.47921038 -0.283924639
v 0.181403309 2.56004381 -0.16059576
v 0.126986533 2.55687952 -0.263373315
v 0.121226832 2.526918 -0.25557965
v 0.09601493 2.45642424 -0.288886666
v 0.09127501 2.46924019 -0.330186069
v 0.0332200862 2.20678854 -0.243003681
v 0.03863554 2.21387529 -0.219435945
v 0.06764642 2.36959267 -0.297812164
v 0.0747374743 2.37886858 -0.2669496
v 0.121226832 2.526918 -0.25557965
v 0.254269272 2.47921038 -0.283924639
v 0.2520538 2.5161 -0.10328801
v 0.2520538 2.5161 -0.10328801
v 0.121226832 2.526918 -0.25557965
v 0.09601493 2.45642424 -0.288886666
v 0.254269272 2.47921038 -0.283924639
v 0.218701065 2.42130566 -0.3172608
v 0.2520538 2.5161 -0.10328801
v 0.126986533 2.55687952 -0.263373315
v 0.181403309 2.56004381 -0.16059576
v 0.005609335 2.05003357 0.09218067
v -0.02511268 2.019895 0.0967329443
v -0.0290335622 2.02626467 0.102507994
v -0.129144132 1.97333658 0.004577711
v -0.1682801 1.978498 -0.09112124
v -0.144019708 2.032304 -0.007243827
v -0.0721140653 1.99429035 0.06330536
v -0.0774117261 2.00317836 0.0691057
v -0.104112774 2.03266859 0.0674685538
v -0.127399921 1.48693633 0.0008488223
v -0.146627069 1.55012774 -0.0478788577
v -0.1689446 1.765675 -0.04901896
v -0.149471521 1.75933719 0.00236592442
v -0.09518895 1.76665306 -0.291940272
v 0.0008338094 1.76600778 -0.3015408
v 0.00119252643 1.98347771 -0.365619242
v -0.104628369 1.97486055 -0.35894227
v -0.0628780946 1.5498867 -0.268867075
v -0.183211833 1.76561213 -0.23550199
v -0.184527427 1.76519 -0.151398689
v -0.1545688 1.53302217 -0.143353373
v -0.123654932 1.51993322 -0.195430055
v -0.177306071 1.97113311 -0.2774256
v -0.186526448 1.97302866 -0.194941863
v -0.104722083 2.06404829 -0.357753336
v -0.17879194 2.06256485 -0.278855741
v -0.0350776 2.053998 0.113389418
v 0.005650247 2.06015158 0.105799034
v -0.1682801 1.978498 -0.09112124
v -0.129144132 1.97333658 0.004577711
v -0.121079884 2.08862543 0.002916485
v -0.09367584 2.0856142 0.0673245639
v 0.04002979 2.02602053 0.101894632
v 0.0361935571 2.01967859 0.0961884856
v 0.1382361 1.97044289 0.00252018869
v 0.153088361 2.03125381 -0.00988248
v 0.175474316 1.977283 -0.09417419
v 0.0824117139 1.99374425 0.0619329959
v 0.08764271 2.002595 0.06763984
v 0.114518039 2.031896 0.06552687
v 0.129299 1.48693633 0.00413600355
v 0.1513707 1.76431429 0.00571178645
v 0.170612231 1.765675 -0.0490189642
v 0.148294687 1.55012739 -0.0478788354
v 0.09685658 1.76665306 -0.291940272
v 0.107051805 1.97411275 -0.36082232
v 0.00119252643 1.98347771 -0.365619242
v 0.06454577 1.5498867 -0.268867075
v 0.184879467 1.76561213 -0.23550196
v 0.125322461 1.51993322 -0.19543004
v 0.15623641 1.53302217 -0.143353343
v 0.186195076 1.76519 -0.151398659
v 0.181137472 1.96986616 -0.280608833
v 0.191834688 1.97169125 -0.198302135
v 0.183244064 2.061285 -0.282071173
v 0.107796989 2.06329679 -0.359640777
v 0.0464620069 2.05370951 0.112665251
v 0.1382361 1.97044289 0.00252018869
v 0.175474316 1.977283 -0.09417419
v 0.005255152 2.05265331 0.07427883
v 0.04302023 2.05107546 0.07004771
v 0.0280317347 1.98744309 0.078108564
v 0.00507589942 1.98794055 0.0798543841
v -0.0169508141 1.98760211 0.0785080642
v -0.03163 2.05133915 0.07071069
v 0.00151227973 2.06952572 -0.363864362
v -0.1858239 2.05955839 -0.186639562
v -0.167512476 2.05065346 -0.08405365
v 0.191891357 2.05822325 -0.189994082
v 0.175342351 2.04944134 -0.08709858
v 0.175342351 2.04944134 -0.08709858
v -0.167512476 2.05065346 -0.08405365
vt 0.7883078 0.291393876
vt 0.7247938 0.237805009
vt 0.721474469 0.294183254
vt 0.585857749 0.252344131
vt 0.5280144 0.262448
vt 0.5910435 0.299541831
vt 0.5362847 0.3133664
vt 0.5740502 0.197482467
vt 0.52599746 0.2340486
vt 0.580127656 0.212043285
vt 0.600248 0.364587784
vt 0.5674827 0.346041322
vt 0.563930333 0.39943707
vt 0.5373251 0.353317142
vt 0.666799545 0.297597051
vt 0.6683071 0.243993044
vt 0.6329908 0.374447584
vt 0.5961526 0.424162626
vt 0.6561646 0.33607316
vt 0.719731152 0.337769151
vt 0.79007864 0.187889576
vt 0.714144 0.181591749
vt 0.652844667 0.192707539
vt 0.64441967 0.1756854
vt 0.787187636 0.247210145
vt 0.1405674 0.582558334
vt 0.14489159 0.6417474
vt 0.230651781 0.5903323
vt 0.22986792 0.640884459
vt 0.221607715 0.519962549
vt 0.306397557 0.511887968
vt 0.227467045 0.458468139
vt 0.298539281 0.4560302
vt 0.341561556 0.6172097
vt 0.311845422 0.57333535
vt 0.08140939 0.5699444
vt 0.0721207038 0.6157789
vt 0.09226652 0.522148669
vt 0.154981986 0.5342008
vt 0.142046943 0.4640321
vt 0.3610692 0.5163425
vt 0.398845673 0.4191906
vt 0.393703967 0.4655561
vt 0.480240762 0.427900553
vt 0.465427667 0.482493758
vt 0.135173127 0.06540859
vt 0.112205595 0.0422627926
vt 0.141177639 0.204969525
vt 0.10957998 0.204969525
vt 0.46403417 0.204969525
vt 0.3787304 0.204969525
vt 0.4940285 0.3612448
vt 0.4027065 0.3612448
vt 0.3596457 0.0397415161
vt 0.212660149 0.204969525
vt 0.2831307 0.204969525
vt 0.202283815 0.0394806266
vt 0.2547028 0.0287631154
vt 0.2928369 0.3612448
vt 0.226084411 0.3612448
vt 0.311845422 0.57333535
vt 0.341561556 0.6172097
vt 0.3610692 0.5163425
vt 0.416928172 0.565833449
vt 0.3610692 0.5163425
vt 0.341561556 0.6172097
vt 0.3610692 0.5163425
vt 0.416928172 0.565833449
vt 0.393703967 0.4655561
vt 0.465427667 0.482493758
vt 0.393703967 0.4655561
vt 0.416928172 0.565833449
vt 0.298399985 0.4106617
vt 0.141810328 0.3612448
vt 0.07728244 0.364790618
vt 0.227631718 0.4133188
vt 0.141891986 0.423559964
vt 0.721474469 0.294183254
vt 0.7247938 0.237805009
vt 0.7876312 0.291297019
vt 0.536413133 0.3134339
vt 0.5910435 0.299541831
vt 0.585857749 0.252344131
vt 0.580127656 0.212043285
vt 0.5740502 0.197482467
vt 0.5890766 0.339709878
vt 0.6026497 0.365446568
vt 0.6683071 0.243993044
vt 0.666799545 0.297597051
vt 0.6329908 0.374447584
vt 0.719731152 0.337769151
vt 0.6561646 0.33607316
vt 0.714144 0.181591749
vt 0.7902848 0.187022209
vt 0.64441967 0.1756854
vt 0.652844667 0.192707539
vt 0.787187636 0.247210145
vt 0.230651781 0.5903323
vt 0.1405674 0.582558334
vt 0.298545718 0.456675231
vt 0.306397557 0.511887968
vt 0.2271736 0.458509564
vt 0.221607715 0.519962549
vt 0.311845422 0.57333535
vt 0.08140939 0.5699444
vt 0.154981986 0.5342008
vt 0.09226652 0.522148669
vt 0.142209545 0.463537335
vt 0.3610692 0.5163425
vt 0.398845673 0.4191906
vt 0.393703967 0.4655561
vt 0.10957998 0.204969525
vt 0.112205595 0.0422627926
vt 0.141177639 0.204969525
vt 0.135173127 0.06540859
vt 0.402759 0.3612448
vt 0.3787304 0.204969525
vt 0.494083 0.3612448
vt 0.3596457 0.0397415161
vt 0.2547028 0.0287631154
vt 0.2831307 0.204969525
vt 0.202283815 0.0394806266
vt 0.212660149 0.204969525
vt 0.2926674 0.3612448
vt 0.225337163 0.3612448
vt 0.416928172 0.565833449
vt 0.341561556 0.6172097
vt 0.3610692 0.5163425
vt 0.311845422 0.57333535
vt 0.3610692 0.5163425
vt 0.341561556 0.6172097
vt 0.465427667 0.482493758
vt 0.416928172 0.565833449
vt 0.393703967 0.4655561
vt 0.3610692 0.5163425
vt 0.393703967 0.4655561
vt 0.416928172 0.565833449
vt 0.298399985 0.4106617
vt 0.07728244 0.364790618
vt 0.141137138 0.3612448
vt 0.227631718 0.4133188
vt 0.141891986 0.423559964
vt 0.973444939 0.102566123
vt 0.909721255 0.103620231
vt 0.950976849 0.0187862515
vt 0.9096967 0.01900363
vt 0.950976849 0.0187862515
vt 0.973444939 0.102566123
vt 0.295384139 0.780045867
vt 0.380743 0.6547119
vt 0.364526957 0.8359684
vt 0.476724237 0.738774955
vt 0.5629025 0.6420003
vt 0.480746567 0.564189553
vt 0.6281143 0.5064714
vt 0.6071268 0.488235474
vt 0.6580897 0.445321083
vt 0.6232386 0.751671433
vt 0.7213531 0.8498203
vt 0.5431165 0.8798942
vt 0.59343 0.931295931
vt 0.720330656 0.6717541
vt 0.8042683 0.7555392
vt 0.832998 0.5808265
vt 0.883275 0.6264141
vt 0.2678527 0.7555559
vt 0.361681432 0.6332866
vt 0.295384139 0.780045867
vt 0.380743 0.6547119
vt 0.4595625 0.550510049
vt 0.480746567 0.564189553
vt 0.5886535 0.4688388
vt 0.6071268 0.488235474
vt 0.5974818 0.6588244
vt 0.650751531 0.518438935
vt 0.514071643 0.762557268
vt 0.392002136 0.8604957
vt 0.6580897 0.445321083
vt 0.8939807 0.554666638
vt 0.394465238 0.676425934
vt 0.480917156 0.756299138
vt 0.290612131 0.7765749
vt 0.356854528 0.8298272
vt 0.4365666 0.6227171
vt 0.544512153 0.6957618
vt 0.594862 0.6390082
vt 0.5545279 0.607748151
vt 0.617277 0.5655836
vt 0.593351662 0.5431163
vt 0.53895545 0.876616061
vt 0.6317385 0.75968647
vt 0.5882402 0.92759943
vt 0.7062546 0.8375934
vt 0.6907332 0.694780231
vt 0.7613371 0.790681362
vt 0.463201523 0.55401504
vt 0.6447709 0.466510236
vt 0.5628462 0.5276505
vt 0.480917156 0.756299138
vt 0.5213749 0.767667353
vt 0.356854528 0.8298272
vt 0.382247835 0.849487245
vt 0.571592152 0.701196253
vt 0.544512153 0.6957618
vt 0.594862 0.6390082
vt 0.617277 0.5655836
vt 0.625647 0.643000245
vt 0.5628462 0.5276505
vt 0.489258349 0.5722886
vt 0.463201523 0.55401504
vt 0.409374535 0.5986928
vt 0.4365666 0.6227171
vt 0.290612131 0.7765749
vt 0.267001629 0.7521016
vt 0.394465238 0.676425934
vt 0.37478134 0.653661847
vt 0.8201924 0.7481751
vt 0.7379499 0.6461481
vt 0.8914672 0.579538763
vt 0.6447709 0.466510236
vt 0.8201924 0.7481751
vt 0.7613371 0.790681362
vt 0.7379499 0.6461481
vt 0.6907332 0.694780231
vt 0.6447709 0.466510236
vt 0.489258349 0.5722886
vt 0.5628462 0.5276505
vt 0.52599746 0.2340486
vt 0.5740502 0.197482467
vt 0.580127656 0.212043285
vt 0.714144 0.181591749
vt 0.79007864 0.187889576
vt 0.7247938 0.237805009
vt 0.64441967 0.1756854
vt 0.652844667 0.192707539
vt 0.6683071 0.243993044
vt 0.112205595 0.0422627926
vt 0.135173127 0.06540859
vt 0.141177639 0.204969525
vt 0.10957998 0.204969525
vt 0.3787304 0.204969525
vt 0.46403417 0.204969525
vt 0.4940285 0.3612448
vt 0.4027065 0.3612448
vt 0.3596457 0.0397415161
vt 0.2831307 0.204969525
vt 0.212660149 0.204969525
vt 0.202283815 0.0394806266
vt 0.2547028 0.0287631154
vt 0.2928369 0.3612448
vt 0.226084411 0.3612448
vt 0.398845673 0.4191906
vt 0.298399985 0.4106617
vt 0.585857749 0.252344131
vt 0.5280144 0.262448
vt 0.141810328 0.3612448
vt 0.07728244 0.364790618
vt 0.721474469 0.294183254
vt 0.666799545 0.297597051
vt 0.580127656 0.212043285
vt 0.5740502 0.197482467
vt 0.714144 0.181591749
vt 0.7247938 0.237805009
vt 0.7902848 0.187022209
vt 0.64441967 0.1756854
vt 0.652844667 0.192707539
vt 0.6683071 0.243993044
vt 0.112205595 0.0422627926
vt 0.10957998 0.204969525
vt 0.141177639 0.204969525
vt 0.135173127 0.06540859
vt 0.3787304 0.204969525
vt 0.402759 0.3612448
vt 0.494083 0.3612448
vt 0.3596457 0.0397415161
vt 0.2831307 0.204969525
vt 0.2547028 0.0287631154
vt 0.202283815 0.0394806266
vt 0.212660149 0.204969525
vt 0.2926674 0.3612448
vt 0.225337163 0.3612448
vt 0.298399985 0.4106617
vt 0.398845673 0.4191906
vt 0.585857749 0.252344131
vt 0.07728244 0.364790618
vt 0.141137138 0.3612448
vt 0.909721255 0.103620231
vt 0.973444939 0.102566123
vt 0.950976849 0.0187862515
vt 0.9096967 0.01900363
vt 0.950976849 0.0187862515
vt 0.973444939 0.102566123
vt 0.480240762 0.427900553
vt 0.227631718 0.4133188
vt 0.141891986 0.423559964
vt 0.227631718 0.4133188
vt 0.141891986 0.423559964
vt 0.787187636 0.247210145
vt 0.787187636 0.247210145
vn -0.8780653 0.322835058 0.35324052
vn -0.907705247 0.0198255535 0.419139743
vn -0.7975139 0.4454661 0.4068557
vn -0.136575758 -0.195888832 0.9710688
vn 0.005546871 -0.5422763 0.8401819
vn -0.306325138 0.205892786 0.929393947
vn 0.008579606 -0.0774849951 0.9969566
vn 0.2571413 -0.716889441 0.648033857
vn 0.00459422637 -0.6371711 0.77070874
vn 0.143473879 -0.513011038 0.8463066
vn -0.7730225 0.5203751 0.362830549
vn -0.504513264 0.449822456 0.7369709
vn 0.007873047 0.8313846 0.5556417
vn 0.009316643 0.152964056 0.98818785
vn -0.745126 0.323958963 0.582956135
vn -0.7229161 -0.129211068 0.678746462
vn -0.501147032 0.725964963 0.470984638
vn 0.00705621857 0.899643362 0.436568439
vn -0.476172864 0.7317561 0.4876396
vn -0.6411509 0.6130628 0.46160534
vn -0.962128043 -0.00113927608 0.2725955
vn -0.8609038 -0.174391255 0.477945924
vn -0.3599775 -0.5912811 0.7216667
vn -0.214712054 -0.767697 0.603771567
vn -0.9642122 0.09376664 0.247997329
vn -0.513339937 0.5970666 0.616436243
vn 0.008612716 0.7361048 0.676812768
vn -0.4353611 0.8447344 0.311262816
vn 0.006408427 0.93735677 0.348311931
vn -0.7655962 0.6099035 0.204646513
vn -0.749991536 0.6283038 -0.206753463
vn -0.9438512 0.316907853 0.0933507457
vn -0.864458144 0.334653944 -0.375125051
vn 0.00441490347 0.994873941 0.101026595
vn -0.44976908 0.8925619 0.0322653428
vn -0.501147032 0.725964963 0.470984638
vn 0.00705621857 0.899643362 0.436568439
vn -0.6411509 0.6130628 0.46160534
vn -0.697694838 0.48945418 0.5231219
vn -0.8780653 0.322835058 0.35324052
vn -0.781287 0.482484728 -0.395978659
vn -0.436262757 0.0617211424 -0.8977
vn -0.5020573 0.206943959 -0.8397099
vn -0.008736802 0.03888461 -0.9992055
vn -0.008666385 0.0566069335 -0.9983589
vn -0.960034549 -0.105084784 0.2594049
vn -0.920342 -0.08930185 0.380783
vn -0.9529028 -0.01465389 0.3029216
vn -0.899257362 0.00453727134 0.4373964
vn -4.32313063E-05 -0.207899436 -0.9781502
vn -0.337438464 -0.24253507 -0.909566939
vn -0.00817838 -0.133174345 -0.9910589
vn -0.4002594 -0.125007778 -0.9078356
vn -0.6275432 -0.174311087 -0.758818269
vn -0.99604094 -0.0564432 0.06867753
vn -0.872304857 -0.173392162 -0.4571864
vn -0.965268433 -0.203558341 -0.16377081
vn -0.7740804 -0.2463706 -0.583181858
vn -0.9048374 -0.04163486 -0.423716545
vn -0.9996174 0.00532872649 0.0271415357
vn -0.145791233 0.9335826 -0.327365875
vn -0.145791233 0.9335826 -0.327365875
vn -0.145791233 0.9335826 -0.327365875
vn -0.0024154468 0.8996385 -0.436628848
vn -0.0024154468 0.8996385 -0.436628848
vn -0.0024154468 0.8996385 -0.436628848
vn -0.02114548 0.3906339 -0.9203032
vn -0.02114548 0.3906339 -0.9203032
vn -0.02114548 0.3906339 -0.9203032
vn -0.06331526 0.424462736 -0.903228939
vn -0.06331526 0.424462736 -0.903228939
vn -0.06331526 0.424462736 -0.903228939
vn -0.914992452 0.07519499 -0.396402031
vn -0.962128043 -0.00113927608 0.2725955
vn -0.8609038 -0.174391255 0.477945924
vn -0.993252158 0.09920132 0.06007699
vn -0.9642122 0.09376664 0.247997329
vn 0.807742834 0.439791918 0.392599821
vn 0.915123343 0.0133828446 0.402951777
vn 0.886460543 0.3165984 0.337569445
vn 0.008579606 -0.0774849951 0.9969566
vn 0.3242317 0.203662425 0.923794031
vn 0.152414277 -0.196907029 0.9685027
vn -0.132043019 -0.5120385 0.848752737
vn -0.250661761 -0.7150991 0.652535
vn 0.520691 0.4461986 0.72786516
vn 0.7830025 0.514877558 0.349010229
vn 0.733925462 -0.134360716 0.66580826
vn 0.757634044 0.3186449 0.5696105
vn 0.514552355 0.722374558 0.4619642
vn 0.6535664 0.6084864 0.450105757
vn 0.489922434 0.728339434 0.4790591
vn 0.867534459 -0.185614362 0.4614448
vn 0.9667325 -0.0168134682 0.255236357
vn 0.21996738 -0.7692354 0.5999094
vn 0.3685501 -0.593856633 0.7151959
vn 0.969103336 0.086933516 0.230827287
vn 0.446781546 0.8416158 0.303428859
vn 0.5284148 0.5933856 0.6071831
vn 0.8600029 0.328559428 -0.3904404
vn 0.750623763 0.622999847 -0.220079854
vn 0.9475767 0.3102226 0.07655305
vn 0.7734014 0.6044645 0.190979123
vn 0.456568629 0.8893585 0.0242177472
vn 0.514552355 0.722374558 0.4619642
vn 0.710318148 0.48447752 0.510616958
vn 0.6535664 0.6084864 0.450105757
vn 0.886460543 0.3165984 0.337569445
vn 0.7775233 0.476973742 -0.409821361
vn 0.4206752 0.0586928 -0.90531075
vn 0.488513321 0.203443184 -0.8485079
vn 0.900501549 -0.00511051668 0.4348228
vn 0.9203411 -0.08930166 0.380785465
vn 0.9528033 -0.02290635 0.3027229
vn 0.9600341 -0.105084635 0.259406716
vn 0.383594245 -0.1332148 -0.913843155
vn 0.335749179 -0.245847374 -0.9093028
vn -0.00817838 -0.133174345 -0.9910589
vn 0.6275442 -0.174311116 -0.758817434
vn 0.774080455 -0.246370792 -0.583181739
vn 0.870603561 -0.181559652 -0.457258672
vn 0.9652683 -0.203558534 -0.163771182
vn 0.995549738 -0.064043045 0.06913147
vn 0.8960023 -0.05489765 -0.4406429
vn 0.9999077 -0.00774418 0.0111674368
vn 0.00101758866 0.8996263 -0.436659366
vn 0.00101758866 0.8996263 -0.436659366
vn 0.00101758866 0.8996263 -0.436659366
vn 0.146550566 0.932549953 -0.329959869
vn 0.146550566 0.932549953 -0.329959869
vn 0.146550566 0.932549953 -0.329959869
vn 0.05026328 0.424061328 -0.904237568
vn 0.05026328 0.424061328 -0.904237568
vn 0.05026328 0.424061328 -0.904237568
vn 0.00755717838 0.390531272 -0.920558631
vn 0.00755717838 0.390531272 -0.920558631
vn 0.00755717838 0.390531272 -0.920558631
vn 0.9083164 0.068749696 -0.412595272
vn 0.867534459 -0.185614362 0.4614448
vn 0.9667325 -0.0168134682 0.255236357
vn 0.994838834 0.09217474 0.0424205139
vn 0.969103336 0.086933516 0.230827287
vn 0.114825249 0.0972389 0.9886151
vn 0.00765177328 0.09513839 0.995434642
vn 0.0894311145 0.0887363255 0.99203223
vn 0.00766022969 0.08512309 0.996341
vn -0.0737773851 0.08898278 0.99329704
vn -0.09926433 0.0973202 0.9902905
vn 0.319692641 -0.2717562 -0.907714248
vn 0.28673166 -0.214730456 -0.9336358
vn 0.8196783 -0.138445735 -0.5558419
vn 0.841931045 0.0150998291 -0.5393739
vn 0.7428995 0.236789316 -0.626123965
vn 0.2219157 -0.0680204257 -0.9726904
vn 0.5370627 0.475236 -0.696932137
vn 0.178471133 0.255828142 -0.95010525
vn 0.3829323 0.630302668 -0.675338
vn -0.279386759 0.183971927 0.9423892
vn -0.294583946 0.1883769 0.9368748
vn -0.284308285 0.179438829 0.9417911
vn -0.287852764 0.174879223 0.9415721
vn -0.295032948 0.118675843 0.9480884
vn -0.3144119 0.13164407 0.9401143
vn -0.226248085 -0.08886473 0.970007658
vn -0.234483927 -0.07206921 0.9694449
vn -0.8851897 -0.465220153 0.003060625
vn -0.9357575 -0.3501279 -0.04205071
vn -0.8851897 -0.465220183 0.00306050316
vn -0.933297336 -0.356337041 -0.04449767
vn -0.973726153 -0.178122059 -0.141879886
vn -0.9741459 -0.15420112 -0.1651113
vn -0.8755408 0.0787322745 -0.476685971
vn -0.8657455 0.11163868 -0.487874538
vn 0.903358459 0.426712 0.0431312732
vn 0.805318236 0.5570209 -0.202953786
vn 0.9674519 0.238506317 0.0845673159
vn 0.9868576 0.09166649 0.13307637
vn -0.868731558 0.229849011 -0.4387196
vn -0.158536091 -0.254543662 0.9539779
vn -0.299059123 -0.239434391 -0.9237071
vn -0.299218029 -0.241007969 -0.9232463
vn -0.304652423 -0.240992159 -0.9214715
vn -0.307447761 -0.237549141 -0.9214371
vn -0.2396589 0.154805288 -0.958435655
vn -0.174863085 0.03455075 -0.9839864
vn 0.304684281 0.588671565 -0.7487545
vn 0.12739034 0.802420139 -0.583004
vn 0.744186 0.667937338 -0.006848243
vn 0.401605427 0.9114823 0.0889557749
vn 0.292431563 0.198093027 0.9355442
vn 0.281339943 0.193290025 0.9399398
vn 0.289739341 0.201437116 0.9356678
vn 0.279265165 0.196837634 0.939822257
vn 0.274732977 0.186317861 0.9432961
vn 0.2729242 0.191778734 0.9427265
vn -0.12043488 -0.450805128 0.8844604
vn -0.7138384 -0.383476675 0.5859867
vn -0.713838458 -0.383476645 0.5859866
vn 0.896759748 -0.436126649 -0.07493704
vn 0.8981513 -0.433649629 -0.0726106539
vn 0.886663556 -0.457663953 -0.06611723
vn 0.886664 -0.4576636 -0.06611408
vn 0.901599467 -0.4273014 -0.0673196241
vn 0.9065525 -0.418116868 -0.0577999428
vn 0.9011173 -0.4164385 -0.120691881
vn 0.7286426 -0.674466848 0.119056359
vn 0.8896027 -0.444164872 -0.106417127
vn -0.852211058 0.2789621 0.442624539
vn -0.896950364 0.2645706 0.354235053
vn -0.922615 0.254995078 0.289411664
vn -0.944379568 0.271403342 0.185708
vn -0.9446601 0.265399426 0.1928223
vn -0.957141459 0.2510259 0.1444516
vn -0.957141042 0.251026571 0.144453153
vn -0.95119065 0.272102058 0.145591155
vn -0.9518909 0.274502933 0.136205241
vn -0.295880646 -0.936612844 0.187645838
vn -0.295880675 -0.936612844 0.187645838
vn -0.295880675 -0.936612844 0.187645853
vn 0.6845885 -0.7124975 0.153902322
vn -0.12043488 -0.450805128 0.8844604
vn 0.0388803743 -0.462878048 0.885568857
vn 0.043373853 -0.490744442 0.8702233
vn 0.0482015833 -0.5204245 0.852546155
vn 0.4376878 0.787743 0.433463216
vn -0.2621002 0.8886819 -0.3762286
vn -0.03110252 0.9622628 0.270338476
vn -0.00320278131 0.6249475 -0.7806602
vn -0.165694252 0.6044752 -0.7792016
vn -0.0570986643 0.4720489 -0.8797213
vn 0.8859344 0.116016239 -0.449066252
vn 0.9672371 -0.00753118657 -0.25376296
vn 0.910756469 0.0113794683 -0.4127871
vn 0.32707563 0.65030396 -0.685657561
vn 0.403023571 0.521172166 -0.7522975
vn 0.7432747 0.171661288 -0.6465873
vn 0.955785453 0.09251712 -0.2791321
vn 0.9746257 0.106646918 -0.196802378
vn 0.9659389 0.0158617459 -0.258283645
vn 0.9342955 0.005357023 -0.356459349
vn 0.337345243 0.245372444 0.908840239
vn 5.575031E-05 0.211138874 0.9774561
vn 0.00818276 0.135984078 0.990677238
vn 0.3998151 0.127783328 0.9076449
vn 0.627543151 0.174311176 0.758818269
vn 0.872576237 0.174397439 0.456285238
vn 0.9960574 0.0559401028 -0.06885011
vn 0.965268433 0.203558281 0.163770854
vn 0.774080336 0.246370614 0.5831819
vn 0.9045239 0.0431201 0.4242371
vn 0.999624252 -0.005575791 -0.02683667
vn 0.419386059 -0.0133923823 0.9077092
vn 0.911931336 0.00529975165 0.41030857
vn -0.0123130763 0.4396045 -0.898107052
vn -0.00347530469 0.8027015 -0.596370935
vn 0.9672371 -0.00753118657 -0.25376296
vn 0.8859344 0.116016239 -0.449066252
vn 0.8711005 -0.233976722 -0.431785583
vn 0.9022821 -0.178929687 -0.3922641
vn 0.0487970337 0.4724303 -0.880016148
vn 0.1538351 0.6078538 -0.7790049
vn -0.8944059 0.117560647 -0.431529284
vn -0.9215514 0.113261327 -0.371368885
vn -0.9720681 0.00754283275 -0.234577939
vn -0.3316279 0.6466306 -0.6869438
vn -0.4095669 0.5190509 -0.7502274
vn -0.611205 0.363044322 -0.703297436
vn -0.960833967 0.0926004 -0.261195719
vn -0.941876054 0.0127522573 -0.335718483
vn -0.9691738 0.0290136486 -0.244663864
vn -0.9768973 0.106988236 -0.1850004
vn -0.335588962 0.248800114 0.9085585
vn -0.383195162 0.1360894 0.913587
vn 0.00818276 0.135984078 0.990677238
vn -0.627544045 0.174311131 0.7588176
vn -0.8707871 0.182951212 0.456353664
vn -0.774080336 0.246370777 0.583181858
vn -0.9652683 0.20355846 0.163771138
vn -0.9955458 0.0639176741 -0.06930447
vn -0.8956585 0.056792777 0.441101342
vn -0.9999095 0.007928587 -0.0108658178
vn -0.9044399 0.0117208306 0.42644
vn -0.403282 -0.0104853315 0.9150157
vn 0.0004094506 0.440160722 -0.89791894
vn -0.8944059 0.117560647 -0.431529284
vn -0.9720681 0.00754283275 -0.234577939
vn -0.007659963 -0.09598158 -0.995353639
vn -0.114853464 -0.0981707349 -0.988519669
vn -0.08932836 -0.08945836 -0.9919766
vn -0.00765571464 -0.0858168751 -0.9962815
vn 0.07367438 -0.08972386 -0.993238
vn 0.0992891937 -0.0982698947 -0.990194261
vn 0.008806899 -0.02042188 0.999752641
vn 0.998606145 -0.00347872078 -0.0526652262
vn 0.9731062 0.012179493 -0.230034709
vn -0.9993837 0.003583155 -0.03492039
vn -0.9769279 0.0190716237 -0.212716237
vn -0.9769279 0.0190716237 -0.212716237
vn 0.9731062 0.012179493 -0.230034709
usemtl 9013001801_part_0_material_0
f 1/1/1 2/2/2 3/3/3
f 4/4/4 5/5/5 6/6/6
f 7/7/7 6/6/6 5/5/5
f 8/8/8 9/9/9 10/10/10
f 11/11/11 12/12/12 13/13/13
f 14/14/14 13/13/13 12/12/12
f 6/6/6 15/15/15 4/4/4
f 16/16/16 4/4/4 15/15/15
f 17/17/17 11/11/11 18/18/18
f 13/13/13 18/18/18 11/11/11
f 19/19/19 17/17/17 20/20/20
f 6/6/6 7/7/7 12/12/12
f 19/19/19 12/12/12 17/17/17
f 7/7/7 14/14/14 12/12/12
f 17/17/17 12/12/12 11/11/11
f 15/15/15 6/6/6 19/19/19
f 1/1/1 3/3/3 20/20/20
f 6/6/6 12/12/12 19/19/19
f 21/21/21 22/22/22 2/2/2
f 23/23/23 24/24/24 10/10/10
f 8/8/8 10/10/10 24/24/24
f 16/16/16 23/23/23 10/10/10
f 16/16/16 22/22/22 23/23/23
f 2/2/2 1/1/1 25/25/25
f 26/26/26 27/27/27 28/28/28
f 29/29/29 28/28/28 27/27/27
f 30/30/30 31/31/31 32/32/32
f 33/33/33 32/32/32 31/31/31
f 34/34/34 35/35/35 28/28/28
f 30/30/30 28/28/28 35/35/35
f 36/36/36 37/37/37 26/26/26
f 27/27/27 26/26/26 37/37/37
f 34/34/34 28/28/28 29/29/29
f 38/38/38 36/36/36 39/39/39
f 26/26/26 39/39/39 36/36/36
f 26/26/26 28/28/28 39/39/39
f 30/30/30 39/39/39 28/28/28
f 40/40/40 38/38/38 39/39/39
f 35/35/35 41/41/41 31/31/31
f 42/42/42 43/43/43 44/44/44
f 45/45/45 44/44/44 43/43/43
f 46/46/46 47/47/47 48/48/48
f 49/49/49 48/48/48 47/47/47
f 50/50/50 51/51/51 52/52/52
f 53/53/53 52/52/52 51/51/51
f 51/51/51 50/50/50 54/54/54
f 55/55/55 56/56/56 57/57/57
f 58/58/58 57/57/57 56/56/56
f 59/59/59 53/53/53 56/56/56
f 51/51/51 56/56/56 53/53/53
f 56/56/56 51/51/51 58/58/58
f 54/54/54 58/58/58 51/51/51
f 55/55/55 60/60/60 56/56/56
f 59/59/59 56/56/56 60/60/60
f 61/61/61 62/62/62 63/63/63
f 64/64/64 65/65/65 66/66/66
f 67/67/67 68/68/68 69/69/69
f 70/70/70 71/71/71 72/72/72
f 42/42/42 53/53/53 73/73/73
f 59/59/59 73/73/73 53/53/53
f 41/41/41 43/43/43 31/31/31
f 33/33/33 31/31/31 43/43/43
f 30/30/30 35/35/35 31/31/31
f 10/10/10 9/9/9 4/4/4
f 5/5/5 4/4/4 9/9/9
f 10/10/10 4/4/4 16/16/16
f 24/24/24 23/23/23 22/22/22
f 48/48/48 49/49/49 74/74/74
f 75/75/75 74/74/74 49/49/49
f 32/32/32 40/40/40 30/30/30
f 39/39/39 30/30/30 40/40/40
f 73/73/73 76/76/76 33/33/33
f 32/32/32 33/33/33 76/76/76
f 40/40/40 32/32/32 77/77/77
f 76/76/76 77/77/77 32/32/32
f 74/74/74 60/60/60 48/48/48
f 55/55/55 48/48/48 60/60/60
f 48/48/48 55/55/55 46/46/46
f 57/57/57 46/46/46 55/55/55
f 15/15/15 19/19/19 3/3/3
f 20/20/20 3/3/3 19/19/19
f 2/2/2 16/16/16 3/3/3
f 15/15/15 3/3/3 16/16/16
f 16/16/16 2/2/2 22/22/22
f 78/78/78 79/79/79 80/80/80
f 81/81/81 5/5/5 82/82/82
f 83/83/83 82/82/82 5/5/5
f 84/84/84 9/9/9 85/85/85
f 14/14/14 86/86/86 13/13/13
f 87/87/87 13/13/13 86/86/86
f 88/88/88 89/89/89 83/83/83
f 82/82/82 83/83/83 89/89/89
f 90/90/90 18/18/18 87/87/87
f 13/13/13 87/87/87 18/18/18
f 91/91/91 90/90/90 92/92/92
f 86/86/86 81/81/81 82/82/82
f 90/90/90 86/86/86 92/92/92
f 86/86/86 14/14/14 81/81/81
f 87/87/87 86/86/86 90/90/90
f 92/92/92 82/82/82 89/89/89
f 91/91/91 78/78/78 80/80/80
f 92/92/92 86/86/86 82/82/82
f 79/79/79 93/93/93 94/94/94
f 85/85/85 95/95/95 84/84/84
f 96/96/96 84/84/84 95/95/95
f 84/84/84 96/96/96 88/88/88
f 96/96/96 93/93/93 88/88/88
f 97/97/97 80/80/80 79/79/79
f 29/29/29 27/27/27 98/98/98
f 99/99/99 98/98/98 27/27/27
f 100/100/100 101/101/101 102/102/102
f 103/103/103 102/102/102 101/101/101
f 98/98/98 104/104/104 34/34/34
f 104/104/104 98/98/98 103/103/103
f 27/27/27 37/37/37 99/99/99
f 105/105/105 99/99/99 37/37/37
f 29/29/29 98/98/98 34/34/34
f 99/99/99 105/105/105 106/106/106
f 107/107/107 106/106/106 105/105/105
f 106/106/106 98/98/98 99/99/99
f 98/98/98 106/106/106 103/103/103
f 106/106/106 107/107/107 108/108/108
f 101/101/101 109/109/109 104/104/104
f 110/110/110 44/44/44 111/111/111
f 45/45/45 111/111/111 44/44/44
f 112/112/112 113/113/113 114/114/114
f 115/115/115 114/114/114 113/113/113
f 116/116/116 117/117/117 118/118/118
f 50/50/50 118/118/118 117/117/117
f 119/119/119 50/50/50 117/117/117
f 120/120/120 121/121/121 122/122/122
f 123/123/123 122/122/122 121/121/121
f 117/117/117 116/116/116 121/121/121
f 124/124/124 121/121/121 116/116/116
f 119/119/119 117/117/117 120/120/120
f 121/121/121 120/120/120 117/117/117
f 124/124/124 125/125/125 121/121/121
f 123/123/123 121/121/121 125/125/125
f 126/126/126 127/127/127 128/128/128
f 129/129/129 130/130/130 131/131/131
f 132/132/132 133/133/133 134/134/134
f 135/135/135 136/136/136 137/137/137
f 110/110/110 138/138/138 116/116/116
f 124/124/124 116/116/116 138/138/138
f 100/100/100 111/111/111 101/101/101
f 109/109/109 101/101/101 111/111/111
f 101/101/101 104/104/104 103/103/103
f 5/5/5 9/9/9 83/83/83
f 84/84/84 83/83/83 9/9/9
f 88/88/88 83/83/83 84/84/84
f 93/93/93 96/96/96 95/95/95
f 139/139/139 112/112/112 140/140/140
f 114/114/114 140/140/140 112/112/112
f 106/106/106 108/108/108 103/103/103
f 102/102/102 103/103/103 108/108/108
f 138/138/138 100/100/100 141/141/141
f 102/102/102 141/141/141 100/100/100
f 141/141/141 102/102/102 142/142/142
f 108/108/108 142/142/142 102/102/102
f 123/123/123 125/125/125 114/114/114
f 140/140/140 114/114/114 125/125/125
f 122/122/122 123/123/123 115/115/115
f 114/114/114 115/115/115 123/123/123
f 91/91/91 92/92/92 78/78/78
f 89/89/89 78/78/78 92/92/92
f 89/89/89 88/88/88 78/78/78
f 79/79/79 78/78/78 88/88/88
f 93/93/93 79/79/79 88/88/88
f 143/143/143 144/144/144 145/145/145
f 146/146/146 145/145/145 144/144/144
f 146/146/146 144/144/144 147/147/147
f 148/148/148 147/147/147 144/144/144
f 53/53/53 42/42/42 52/52/52
f 44/44/44 52/52/52 42/42/42
f 43/43/43 42/42/42 33/33/33
f 73/73/73 33/33/33 42/42/42
f 59/59/59 60/60/60 73/73/73
f 76/76/76 73/73/73 60/60/60
f 60/60/60 74/74/74 76/76/76
f 77/77/77 76/76/76 74/74/74
f 116/116/116 118/118/118 110/110/110
f 44/44/44 110/110/110 118/118/118
f 111/111/111 100/100/100 110/110/110
f 138/138/138 110/110/110 100/100/100
f 124/124/124 138/138/138 125/125/125
f 141/141/141 125/125/125 138/138/138
f 125/125/125 141/141/141 140/140/140
f 142/142/142 140/140/140 141/141/141
f 94/94/94 97/97/97 79/79/79
f 21/21/21 2/2/2 25/25/25
f 149/149/149 150/150/150 151/151/151
f 152/152/152 151/151/151 150/150/150
f 152/152/152 150/150/150 153/153/153
f 154/154/154 153/153/153 150/150/150
f 155/155/155 156/156/156 157/157/157
f 158/158/158 159/159/159 160/160/160
f 161/161/161 160/160/160 159/159/159
f 158/158/158 162/162/162 159/159/159
f 163/163/163 159/159/159 162/162/162
f 164/164/164 165/165/165 162/162/162
f 163/163/163 162/162/162 165/165/165
f 166/166/166 167/167/167 168/168/168
f 169/169/169 168/168/168 167/167/167
f 167/167/167 170/170/170 169/169/169
f 171/171/171 169/169/169 170/170/170
f 170/170/170 172/172/172 171/171/171
f 173/173/173 171/171/171 172/172/172
f 174/174/174 153/153/153 175/175/175
f 155/155/155 175/175/175 153/153/153
f 174/174/174 176/176/176 153/153/153
f 152/152/152 153/153/153 176/176/176
f 176/176/176 177/177/177 152/152/152
f 151/151/151 152/152/152 177/177/177
f 175/175/175 155/155/155 157/157/157
f 178/178/178 173/173/173 172/172/172
f 165/165/165 164/164/164 179/179/179
f 180/180/180 181/181/181 182/182/182
f 183/183/183 182/182/182 181/181/181
f 184/184/184 185/185/185 180/180/180
f 181/181/181 180/180/180 185/185/185
f 186/186/186 187/187/187 188/188/188
f 189/189/189 188/188/188 187/187/187
f 190/190/190 191/191/191 192/192/192
f 193/193/193 192/192/192 191/191/191
f 191/191/191 194/194/194 193/193/193
f 195/195/195 193/193/193 194/194/194
f 196/196/196 197/197/197 198/198/198
f 199/199/199 200/200/200 201/201/201
f 202/202/202 201/201/201 200/200/200
f 203/203/203 200/200/200 204/204/204
f 199/199/199 204/204/204 200/200/200
f 205/205/205 206/206/206 207/207/207
f 208/208/208 209/209/209 210/210/210
f 211/211/211 210/210/210 212/212/212
f 209/209/209 212/212/212 210/210/210
f 213/213/213 214/214/214 215/215/215
f 216/216/216 215/215/215 214/214/214
f 217/217/217 218/218/218 219/219/219
f 207/207/207 206/206/206 220/220/220
f 187/187/187 186/186/186 185/185/185
f 221/221/221 222/222/222 223/223/223
f 224/224/224 223/223/223 222/222/222
f 207/207/207 203/203/203 205/205/205
f 204/204/204 205/205/205 203/203/203
f 216/216/216 211/211/211 215/215/215
f 212/212/212 215/215/215 211/211/211
f 225/225/225 188/188/188 189/189/189
f 184/184/184 226/226/226 187/187/187
f 187/187/187 185/185/185 184/184/184
f 227/227/227 189/189/189 226/226/226
f 187/187/187 226/226/226 189/189/189
f 189/189/189 227/227/227 225/225/225
f 155/155/155 153/153/153 156/156/156
f 154/154/154 156/156/156 153/153/153
f 228/228/228 229/229/229 230/230/230
f 231/231/231 232/232/232 233/233/233
f 234/234/234 235/235/235 230/230/230
f 230/230/230 229/229/229 234/234/234
f 235/235/235 236/236/236 230/230/230
f 231/231/231 236/236/236 235/235/235
f 237/237/237 238/238/238 239/239/239
f 239/239/239 240/240/240 237/237/237
f 241/241/241 242/242/242 243/243/243
f 243/243/243 244/244/244 241/241/241
f 242/242/242 241/241/241 245/245/245
f 246/246/246 247/247/247 248/248/248
f 248/248/248 249/249/249 246/246/246
f 244/244/244 250/250/250 246/246/246
f 246/246/246 241/241/241 244/244/244
f 241/241/241 246/246/246 249/249/249
f 249/249/249 245/245/245 241/241/241
f 251/251/251 247/247/247 246/246/246
f 246/246/246 250/250/250 251/251/251
f 244/244/244 252/252/252 253/253/253
f 253/253/253 250/250/250 244/244/244
f 228/228/228 230/230/230 254/254/254
f 254/254/254 255/255/255 228/228/228
f 254/254/254 230/230/230 236/236/236
f 235/235/235 234/234/234 231/231/231
f 240/240/240 239/239/239 256/256/256
f 256/256/256 257/257/257 240/240/240
f 251/251/251 256/256/256 239/239/239
f 239/239/239 247/247/247 251/251/251
f 247/247/247 239/239/239 238/238/238
f 238/238/238 248/248/248 247/247/247
f 236/236/236 233/233/233 258/258/258
f 258/258/258 259/259/259 236/236/236
f 233/233/233 236/236/236 231/231/231
f 228/228/228 260/260/260 261/261/261
f 262/262/262 263/263/263 264/264/264
f 265/265/265 261/261/261 260/260/260
f 260/260/260 266/266/266 265/265/265
f 266/266/266 260/260/260 267/267/267
f 262/262/262 266/266/266 267/267/267
f 268/268/268 269/269/269 270/270/270
f 270/270/270 271/271/271 268/268/268
f 272/272/272 273/273/273 274/274/274
f 274/274/274 242/242/242 272/272/272
f 242/242/242 275/275/275 272/272/272
f 276/276/276 277/277/277 278/278/278
f 278/278/278 279/279/279 276/276/276
f 273/273/273 272/272/272 276/276/276
f 276/276/276 280/280/280 273/273/273
f 272/272/272 275/275/275 277/277/277
f 277/277/277 276/276/276 272/272/272
f 281/281/281 280/280/280 276/276/276
f 276/276/276 279/279/279 281/281/281
f 282/282/282 283/283/283 273/273/273
f 273/273/273 280/280/280 282/282/282
f 228/228/228 255/255/255 284/284/284
f 284/284/284 260/260/260 228/228/228
f 284/284/284 267/267/267 260/260/260
f 266/266/266 262/262/262 265/265/265
f 269/269/269 285/285/285 286/286/286
f 286/286/286 270/270/270 269/269/269
f 281/281/281 279/279/279 270/270/270
f 270/270/270 286/286/286 281/281/281
f 279/279/279 278/278/278 271/271/271
f 271/271/271 270/270/270 279/279/279
f 263/263/263 262/262/262 267/267/267
f 287/287/287 288/288/288 289/289/289
f 289/289/289 290/290/290 287/287/287
f 287/287/287 290/290/290 291/291/291
f 291/291/291 292/292/292 287/287/287
f 252/252/252 244/244/244 243/243/243
f 243/243/243 293/293/293 252/252/252
f 251/251/251 250/250/250 253/253/253
f 253/253/253 294/294/294 251/251/251
f 256/256/256 251/251/251 294/294/294
f 294/294/294 295/295/295 256/256/256
f 274/274/274 273/273/273 283/283/283
f 283/283/283 293/293/293 274/274/274
f 282/282/282 280/280/280 281/281/281
f 281/281/281 296/296/296 282/282/282
f 296/296/296 281/281/281 286/286/286
f 286/286/286 297/297/297 296/296/296
f 298/298/298 264/264/264 263/263/263
f 233/233/233 232/232/232 299/299/299
