mtllib 9014003804.mtl
o 9014003804_part_0
v 0.0964068547 0.109034 -0.08494358
v 0.130213037 0.101599753 -0.04363589
v 0.121015385 0.07043892 -0.10599035
v 0.132699862 0.0542054176 0.0326239951
v 0.136418924 0.06691289 -0.03953009
v 0.122994743 0.099375546 0.00916715
v 0.06030994 0.067296505 -0.09516546
v 0.05221334 0.055940032 -0.0277910363
v 0.052569136 0.09334546 -0.0412252732
v 0.0631877258 0.108565211 -0.08457056
v 0.0737839863 0.06729406 0.047378283
v 0.07441913 0.09792179 0.0123316161
v 0.05221334 0.055940032 -0.0277910363
v 0.052569136 0.09334546 -0.0412252732
v 0.149233714 -0.0106586218 -0.04061411
v 0.120736122 -0.0110990405 -0.123688012
v 0.03853575 -0.009560466 -0.109388575
v 0.09466976 0.02830708 -0.124618575
v 0.180367455 -0.009024024 0.160848275
v 0.152259514 0.0254654288 0.153373778
v 0.128604934 -0.008197308 0.189181671
v 0.05502324 -0.008842826 -0.021070132
v 0.163098678 0.0275391936 0.08379193
v 0.192470178 -0.0106329918 0.0592304878
v 0.08071401 0.039132297 0.100802109
v 0.0571151972 -0.0077560544 0.08627261
v 0.09176791 -0.00724512339 0.1876096
v 0.105786577 0.0248707533 0.165990725
v 0.1372454 -0.004501283 -0.140190616
v 0.173841432 -0.0056899786 -0.044808805
v 0.179919228 -0.05852443 -0.0469609648
v 0.141157553 -0.0604643822 -0.143200427
v 0.0324593037 -0.0023457408 -0.0197754316
v 0.032509163 -0.00247484446 -0.123889938
v 0.0252791718 -0.05839306 -0.1246153
v 0.0249640346 -0.0559874177 -0.018876709
v 0.194914892 -0.00322657824 0.166462228
v 0.137653843 -0.0008227229 0.205378279
v 0.1379595 -0.0411770344 0.2119668
v 0.1991084 -0.047416985 0.168064758
v 0.18089737 -0.0331469178 -0.0326893143
v 0.0451706946 -0.001190126 0.07965618
v 0.0310134068 -0.0302407742 -0.006597138
v 0.0307678916 -0.0558283925 0.0311121158
v 0.0365802944 -0.0551648736 0.08109547
v 0.08163026 -0.00366294384 -0.153266981
v 0.07998479 -0.05960387 -0.15513663
v 0.198261842 -0.00447183847 0.05447636
v 0.204929128 -0.05798632 0.0540778749
v 0.07624903 0.0001283288 0.1892585
v 0.07102805 -0.0460906029 0.192431733
v 0.1372454 -0.004501283 -0.140190616
v 0.032509163 -0.00247484446 -0.123889938
v 0.0324593037 -0.0023457408 -0.0197754316
v 0.0324593037 -0.0023457408 -0.0197754316
v 0.173841432 -0.0056899786 -0.044808805
v 0.1372454 -0.004501283 -0.140190616
v 0.179919228 -0.05852443 -0.0469609648
v 0.0249640346 -0.0559874177 -0.018876709
v 0.0252791718 -0.05839306 -0.1246153
v 0.0252791718 -0.05839306 -0.1246153
v 0.141157553 -0.0604643822 -0.143200427
v 0.179919228 -0.05852443 -0.0469609648
v 0.0451706946 -0.001190126 0.07965618
v 0.07624903 0.0001283288 0.1892585
v 0.194914892 -0.00322657824 0.166462228
v 0.194914892 -0.00322657824 0.166462228
v 0.198261842 -0.00447183847 0.05447636
v 0.0451706946 -0.001190126 0.07965618
v 0.1991084 -0.047416985 0.168064758
v 0.07102805 -0.0460906029 0.192431733
v 0.0365802944 -0.0551648736 0.08109547
v 0.0365802944 -0.0551648736 0.08109547
v 0.204929128 -0.05798632 0.0540778749
v 0.1991084 -0.047416985 0.168064758
v 0.0451706946 -0.001190126 0.07965618
v 0.198261842 -0.00447183847 0.05447636
v 0.173841432 -0.0056899786 -0.044808805
v 0.173841432 -0.0056899786 -0.044808805
v 0.0324593037 -0.0023457408 -0.0197754316
v 0.0451706946 -0.001190126 0.07965618
v 0.18089737 -0.0331469178 -0.0326893143
v 0.0310134068 -0.0302407742 -0.006597138
v 0.0249640346 -0.0559874177 -0.018876709
v 0.0249640346 -0.0559874177 -0.018876709
v 0.179919228 -0.05852443 -0.0469609648
v 0.18089737 -0.0331469178 -0.0326893143
v 0.1379595 -0.0411770344 0.2119668
v 0.137653843 -0.0008227229 0.205378279
v 0.07998479 -0.05960387 -0.15513663
v 0.08163026 -0.00366294384 -0.153266981
v 0.1372454 -0.004501283 -0.140190616
v 0.08163026 -0.00366294384 -0.153266981
v 0.032509163 -0.00247484446 -0.123889938
v 0.0252791718 -0.05839306 -0.1246153
v 0.07998479 -0.05960387 -0.15513663
v 0.141157553 -0.0604643822 -0.143200427
v 0.07624903 0.0001283288 0.1892585
v 0.137653843 -0.0008227229 0.205378279
v 0.194914892 -0.00322657824 0.166462228
v 0.1991084 -0.047416985 0.168064758
v 0.1379595 -0.0411770344 0.2119668
v 0.07102805 -0.0460906029 0.192431733
v 0.191516414 -0.0584908128 0.00369896367
v 0.204929128 -0.05798632 0.0540778749
v 0.0365802944 -0.0551648736 0.08109547
v 0.0365802944 -0.0551648736 0.08109547
v 0.0307678916 -0.0558283925 0.0311121158
v 0.191516414 -0.0584908128 0.00369896367
v 0.18089737 -0.0331469178 -0.0326893143
v 0.191516414 -0.0584908128 0.00369896367
v 0.0307678916 -0.0558283925 0.0311121158
v 0.0307678916 -0.0558283925 0.0311121158
v 0.0310134068 -0.0302407742 -0.006597138
v 0.18089737 -0.0331469178 -0.0326893143
v 0.191516414 -0.0584908128 0.00369896367
v 0.03853575 -0.009560466 -0.109388575
v 0.08731902 -0.0105984807 -0.129425958
v -0.113780044 0.110149562 -0.0829291642
v -0.138221473 0.07168937 -0.104056612
v -0.147322282 0.102968693 -0.0414400138
v -0.148806646 0.0547803044 0.03437293
v -0.139707759 0.100309432 0.0112206675
v -0.15249528 0.06776911 -0.03672318
v -0.0774658546 0.0681532 -0.09361398
v -0.08059383 0.1091786 -0.0828353
v -0.06984436 0.09353083 -0.039727658
v -0.06819712 0.0567132831 -0.0265166927
v -0.08969799 0.06754452 0.04869887
v -0.09116969 0.09810507 0.0139687769
v -0.06819712 0.0567132831 -0.0265166927
v -0.06984436 0.09353083 -0.039727658
v -0.137496 -0.00918889 -0.124312237
v -0.166832641 -0.009664476 -0.04153109
v -0.0554383025 -0.008256614 -0.109166116
v -0.111331895 0.0295091271 -0.123216569
v -0.200000659 -0.0104470253 0.159611538
v -0.148524925 -0.0102494955 0.188473672
v -0.171645582 0.0239898562 0.152864411
v -0.07286469 -0.00859880447 -0.02097305
v -0.181767523 0.0270095468 0.0832092
v -0.09950253 0.0379597545 0.101196676
v -0.07599314 -0.008859754 0.08630484
v -0.125306651 0.0229946375 0.165940583
v -0.111669481 -0.00946688652 0.187285468
v -0.2149709 -0.0104321241 0.0582783036
v -0.153803632 -0.00229561329 -0.140894338
v -0.1579659 -0.0581947565 -0.144662008
v -0.197071791 -0.05727935 -0.0487001538
v -0.190751016 -0.00450879335 -0.0458083935
v -0.0503255352 -0.00227791071 -0.0193853956
v -0.0430190265 -0.05590689 -0.01912577
v -0.0422731563 -0.05695796 -0.124884307
v -0.0492293537 -0.00101715326 -0.123513773
v -0.214575067 -0.004647076 0.16515249
v -0.219006434 -0.0488321781 0.166144952
v -0.158275649 -0.04346937 0.210737824
v -0.157700554 -0.0030361414 0.2046716
v -0.198067322 -0.032081902 -0.0341143273
v -0.0639493 -0.002271235 0.07989405
v -0.0556449629 -0.05630356 0.0807265341
v -0.0493290052 -0.0563575029 0.0307999142
v -0.0490633845 -0.0302885771 -0.00657814741
v -0.09667166 -0.0574965477 -0.155968726
v -0.0980552062 -0.001576364 -0.153397456
v -0.216171339 -0.004435241 0.05323295
v -0.223102778 -0.0579052567 0.0520799421
v -0.09613132 -0.00219517946 0.189185351
v -0.09117487 -0.0484771729 0.191817164
v -0.153803632 -0.00229561329 -0.140894338
v -0.190751016 -0.00450879335 -0.0458083935
v -0.0503255352 -0.00227791071 -0.0193853956
v -0.0503255352 -0.00227791071 -0.0193853956
v -0.0492293537 -0.00101715326 -0.123513773
v -0.153803632 -0.00229561329 -0.140894338
v -0.197071791 -0.05727935 -0.0487001538
v -0.1579659 -0.0581947565 -0.144662008
v -0.0422731563 -0.05695796 -0.124884307
v -0.0422731563 -0.05695796 -0.124884307
v -0.0430190265 -0.05590689 -0.01912577
v -0.197071791 -0.05727935 -0.0487001538
v -0.0639493 -0.002271235 0.07989405
v -0.216171339 -0.004435241 0.05323295
v -0.214575067 -0.004647076 0.16515249
v -0.214575067 -0.004647076 0.16515249
v -0.09613132 -0.00219517946 0.189185351
v -0.0639493 -0.002271235 0.07989405
v -0.219006434 -0.0488321781 0.166144952
v -0.223102778 -0.0579052567 0.0520799421
v -0.0556449629 -0.05630356 0.0807265341
v -0.0556449629 -0.05630356 0.0807265341
v -0.09117487 -0.0484771729 0.191817164
v -0.219006434 -0.0488321781 0.166144952
v -0.0639493 -0.002271235 0.07989405
v -0.0503255352 -0.00227791071 -0.0193853956
v -0.190751016 -0.00450879335 -0.0458083935
v -0.190751016 -0.00450879335 -0.0458083935
v -0.216171339 -0.004435241 0.05323295
v -0.0639493 -0.002271235 0.07989405
v -0.198067322 -0.032081902 -0.0341143273
v -0.197071791 -0.05727935 -0.0487001538
v -0.0430190265 -0.05590689 -0.01912577
v -0.0430190265 -0.05590689 -0.01912577
v -0.0490633845 -0.0302885771 -0.00657814741
v -0.198067322 -0.032081902 -0.0341143273
v -0.157700554 -0.0030361414 0.2046716
v -0.158275649 -0.04346937 0.210737824
v -0.0980552062 -0.001576364 -0.153397456
v -0.09667166 -0.0574965477 -0.155968726
v -0.153803632 -0.00229561329 -0.140894338
v -0.0492293537 -0.00101715326 -0.123513773
v -0.0980552062 -0.001576364 -0.153397456
v -0.0422731563 -0.05695796 -0.124884307
v -0.1579659 -0.0581947565 -0.144662008
v -0.09667166 -0.0574965477 -0.155968726
v -0.09613132 -0.00219517946 0.189185351
v -0.214575067 -0.004647076 0.16515249
v -0.157700554 -0.0030361414 0.2046716
v -0.219006434 -0.0488321781 0.166144952
v -0.09117487 -0.0484771729 0.191817164
v -0.158275649 -0.04346937 0.210737824
v -0.209182158 -0.0578343272 0.0018365141
v -0.0493290052 -0.0563575029 0.0307999142
v -0.0556449629 -0.05630356 0.0807265341
v -0.0556449629 -0.05630356 0.0807265341
v -0.223102778 -0.0579052567 0.0520799421
v -0.209182158 -0.0578343272 0.0018365141
v -0.198067322 -0.032081902 -0.0341143273
v -0.0490633845 -0.0302885771 -0.00657814741
v -0.0493290052 -0.0563575029 0.0307999142
v -0.0493290052 -0.0563575029 0.0307999142
v -0.209182158 -0.0578343272 0.0018365141
v -0.198067322 -0.032081902 -0.0341143273
v -0.209182158 -0.0578343272 0.0018365141
v -0.0554383025 -0.008256614 -0.109166116
v -0.104020312 -0.008787036 -0.12970607
v -0.141481653 0.0302810073 0.127044216
v -0.159974292 0.0617511272 0.238261655
v -0.049262777 0.07530403 0.1833491
v -0.049262777 0.07530403 0.1833491
v -0.06865186 0.09496355 0.0621316768
v -0.06865186 0.09496355 0.0621316768
v -0.191346452 0.0935607553 0.0421276577
v -0.191346452 0.0935607553 0.0421276577
v -0.2477868 0.0730343461 0.150981933
v -0.2477868 0.0730343461 0.150981933
v -0.159974292 0.0617511272 0.238261655
v 0.1271836 0.03148681 0.1264395
v 0.03463473 0.0776916742 0.181225047
v 0.144715682 0.06428963 0.23742719
v 0.0553460419 0.09569502 0.05996907
v 0.03463473 0.0776916742 0.181225047
v 0.178227231 0.09341961 0.04123078
v 0.0553460419 0.09569502 0.05996907
v 0.23346068 0.0740100145 0.150905892
v 0.178227231 0.09341961 0.04123078
v 0.144715682 0.06428963 0.23742719
v 0.23346068 0.0740100145 0.150905892
vt 0.323080838 0.293787718
vt 0.324696153 0.3712259
vt 0.223013446 0.301379025
vt 0.219093233 0.5017068
vt 0.232840016 0.3884694
vt 0.3530402 0.415072262
vt 0.231111482 0.213294566
vt 0.242326081 0.131375313
vt 0.3395203 0.146945357
vt 0.3252841 0.2366857
vt 0.323908746 0.57019335
vt 0.374313653 0.433473945
vt 0.433546841 0.5325089
vt 0.431042045 0.446000516
vt 0.0569544 0.447912574
vt 0.0168871358 0.305987775
vt 0.0366636068 0.1744963
vt 0.09694208 0.242412329
vt 0.0551890433 0.7500824
vt 0.126645938 0.7214562
vt 0.129335865 0.80528903
vt 0.4342587 0.6954113
vt 0.13297151 0.618380547
vt 0.05194159 0.5881226
vt 0.262899071 0.669056237
vt 0.284842819 0.7458397
vt 0.178371489 0.832430243
vt 0.181326419 0.758308649
vt 0.8846406 0.111015379
vt 0.7196702 0.1110155
vt 0.717840552 0.0186443925
vt 0.887831569 0.0186443329
vt 0.9858566 0.6528073
vt 0.9858573 0.8322992
vt 0.8935099 0.8322993
vt 0.8935092 0.6565191
vt 0.3594897 0.111015379
vt 0.23440811 0.111015737
vt 0.23440811 0.0186445713
vt 0.362967223 0.0186445713
vt 0.694375753 0.058568418
vt 0.985856 0.485354662
vt 0.933852732 0.6316691
vt 0.893508852 0.5696537
vt 0.8935086 0.4884144
vt 0.985857666 0.927495062
vt 0.8935103 0.9274954
vt 0.543107748 0.111015618
vt 0.5447465 0.0186445117
vt 0.985855162 0.294855416
vt 0.8935078 0.293515325
vt 0.8184021 0.77174443
vt 0.8246138 0.942478955
vt 0.6597113 0.9727451
vt 0.6597113 0.9727451
vt 0.6574345 0.7351873
vt 0.8184021 0.77174443
vt 0.83556515 0.33080256
vt 0.6055445 0.33080256
vt 0.629567564 0.1814732
vt 0.629567564 0.1814732
vt 0.7958327 0.181226134
vt 0.83556515 0.33080256
vt 0.4986622 0.984671831
vt 0.315728426 0.969032347
vt 0.315107 0.76157403
vt 0.315107 0.76157403
vt 0.489740074 0.72377497
vt 0.4986622 0.984671831
vt 0.8215746 0.6691395
vt 0.625629842 0.675849736
vt 0.601407945 0.5124843
vt 0.601407945 0.5124843
vt 0.852801561 0.5119747
vt 0.8215746 0.6691395
vt 0.4986622 0.984671831
vt 0.489740074 0.72377497
vt 0.6574345 0.7351873
vt 0.6574345 0.7351873
vt 0.6597113 0.9727451
vt 0.4986622 0.984671831
vt 0.8336408 0.373629868
vt 0.6112089 0.373629928
vt 0.6055445 0.33080256
vt 0.6055445 0.33080256
vt 0.83556515 0.33080256
vt 0.8336408 0.373629868
vt 0.8935073 0.183500171
vt 0.9858547 0.183499873
vt 0.980888963 0.0186443925
vt 0.980888844 0.11101526
vt 0.8184021 0.77174443
vt 0.8581691 0.8556758
vt 0.8246138 0.942478955
vt 0.629567564 0.1814732
vt 0.7129095 0.149101257
vt 0.7958327 0.181226134
vt 0.315728426 0.969032347
vt 0.271459 0.8767858
vt 0.315107 0.76157403
vt 0.8215746 0.6691395
vt 0.7150404 0.7175657
vt 0.625629842 0.675849736
vt 0.8446431 0.4369912
vt 0.852801561 0.5119747
vt 0.601407945 0.5124843
vt 0.601407945 0.5124843
vt 0.6039644 0.441473365
vt 0.8446431 0.4369912
vt 0.8336408 0.373629868
vt 0.8446431 0.4369912
vt 0.6039644 0.441473365
vt 0.6039644 0.441473365
vt 0.6112089 0.373629928
vt 0.8336408 0.373629868
vt 0.630308747 0.0186445713
vt 0.5861294 0.6747578
vt 0.02451367 0.255279839
vt 0.323080838 0.293787718
vt 0.223013446 0.301379025
vt 0.324696153 0.3712259
vt 0.219093233 0.5017068
vt 0.3530402 0.415072262
vt 0.232840016 0.3884694
vt 0.231111482 0.213294566
vt 0.3252841 0.2366857
vt 0.3395203 0.146945357
vt 0.242326081 0.131375313
vt 0.323908746 0.57019335
vt 0.374313653 0.433473945
vt 0.433546841 0.5325089
vt 0.431042045 0.446000516
vt 0.0168871358 0.305987775
vt 0.0569544 0.447912574
vt 0.0366636068 0.1744963
vt 0.09694208 0.242412329
vt 0.0551890433 0.7500824
vt 0.129335865 0.80528903
vt 0.126645938 0.7214562
vt 0.4342587 0.6954113
vt 0.13297151 0.618380547
vt 0.262899071 0.669056237
vt 0.284842819 0.7458397
vt 0.181326419 0.758308649
vt 0.178371489 0.832430243
vt 0.05194159 0.5881226
vt 0.8846406 0.111015379
vt 0.887831569 0.0186443329
vt 0.717840552 0.0186443925
vt 0.7196702 0.1110155
vt 0.9858566 0.6528073
vt 0.8935092 0.6565191
vt 0.8935099 0.8322993
vt 0.9858573 0.8322992
vt 0.3594897 0.111015379
vt 0.362967223 0.0186445713
vt 0.23440811 0.0186445713
vt 0.23440811 0.111015737
vt 0.694375753 0.058568418
vt 0.985856 0.485354662
vt 0.8935086 0.4884144
vt 0.893508852 0.5696537
vt 0.933852732 0.6316691
vt 0.8935103 0.9274954
vt 0.985857666 0.927495062
vt 0.543107748 0.111015618
vt 0.5447465 0.0186445117
vt 0.985855162 0.294855416
vt 0.8935078 0.293515325
vt 0.8184021 0.77174443
vt 0.6574345 0.7351873
vt 0.6597113 0.9727451
vt 0.6597113 0.9727451
vt 0.8246138 0.942478955
vt 0.8184021 0.77174443
vt 0.83556515 0.33080256
vt 0.7958327 0.181226134
vt 0.629567564 0.1814732
vt 0.629567564 0.1814732
vt 0.6055445 0.33080256
vt 0.83556515 0.33080256
vt 0.4986622 0.984671831
vt 0.489740074 0.72377497
vt 0.315107 0.76157403
vt 0.315107 0.76157403
vt 0.315728426 0.969032347
vt 0.4986622 0.984671831
vt 0.8215746 0.6691395
vt 0.852801561 0.5119747
vt 0.601407945 0.5124843
vt 0.601407945 0.5124843
vt 0.625629842 0.675849736
vt 0.8215746 0.6691395
vt 0.4986622 0.984671831
vt 0.6597113 0.9727451
vt 0.6574345 0.7351873
vt 0.6574345 0.7351873
vt 0.489740074 0.72377497
vt 0.4986622 0.984671831
vt 0.8336408 0.373629868
vt 0.83556515 0.33080256
vt 0.6055445 0.33080256
vt 0.6055445 0.33080256
vt 0.6112089 0.373629928
vt 0.8336408 0.373629868
vt 0.9858547 0.183499873
vt 0.8935073 0.183500171
vt 0.980888844 0.11101526
vt 0.980888963 0.0186443925
vt 0.8184021 0.77174443
vt 0.8246138 0.942478955
vt 0.8581691 0.8556758
vt 0.629567564 0.1814732
vt 0.7958327 0.181226134
vt 0.7129095 0.149101257
vt 0.315728426 0.969032347
vt 0.315107 0.76157403
vt 0.271459 0.8767858
vt 0.8215746 0.6691395
vt 0.625629842 0.675849736
vt 0.7150404 0.7175657
vt 0.8446431 0.4369912
vt 0.6039644 0.441473365
vt 0.601407945 0.5124843
vt 0.601407945 0.5124843
vt 0.852801561 0.5119747
vt 0.8446431 0.4369912
vt 0.8336408 0.373629868
vt 0.6112089 0.373629928
vt 0.6039644 0.441473365
vt 0.6039644 0.441473365
vt 0.8446431 0.4369912
vt 0.8336408 0.373629868
vt 0.630308747 0.0186445713
vt 0.5861294 0.6747578
vt 0.02451367 0.255279839
vt 0.582351446 0.279382229
vt 0.405120224 0.408457637
vt 0.405120224 0.150925457
vt 0.405120224 0.408457637
vt 0.405120224 0.150925457
vt 0.405120224 0.408457637
vt 0.405120224 0.150925457
vt 0.405120224 0.408457637
vt 0.405120224 0.150925457
vt 0.405120224 0.408457637
vt 0.405120224 0.150925457
vt 0.582351446 0.279382229
vt 0.405120224 0.150925457
vt 0.405120224 0.408457637
vt 0.405120224 0.150925457
vt 0.405120224 0.408457637
vt 0.405120224 0.150925457
vt 0.405120224 0.408457637
vt 0.405120224 0.150925457
vt 0.405120224 0.408457637
vt 0.405120224 0.150925457
vt 0.405120224 0.408457637
vn 0.346716821 0.6097436 -0.7127413
vn 0.937623262 0.3306093 -0.107518904
vn 0.453773171 0.400711924 -0.7959396
vn 0.772012353 0.571347654 0.278494179
vn 0.982423663 0.141693011 -0.121519662
vn 0.500956535 0.5934722 0.629947066
vn -0.740997 0.278227866 -0.6111568
vn -0.9832747 0.107607365 0.146940559
vn -0.9969413 0.07680562 0.01445267
vn -0.47071445 0.339428663 -0.8143808
vn -0.6156635 0.580083549 0.533349335
vn -0.7313385 0.466476768 0.497537374
vn -0.9832747 0.107607365 0.146940559
vn -0.9969413 0.07680562 0.01445267
vn 0.896501362 0.3940367 -0.202534914
vn 0.6946747 0.1417454 -0.7052201
vn -0.834048152 0.220309064 -0.5057942
vn -0.09890322 0.262414575 -0.9598733
vn 0.7090085 0.6130854 0.348472774
vn 0.34699136 0.8392956 0.418544948
vn 0.20092465 0.5840355 0.786467969
vn -0.9848436 0.06366215 0.161338776
vn 0.6227416 0.782202 0.0187877938
vn 0.755815566 0.6468699 -0.101500683
vn -0.314439327 0.880510032 0.3547252
vn -0.9262724 0.313788861 0.208700851
vn -0.603301942 0.558306336 0.569491744
vn -0.140308529 0.7809789 0.608593
vn 0.644336641 0.08440422 -0.76007
vn 0.948019266 0.128131568 -0.291276157
vn 0.935364068 0.109022938 -0.336464077
vn 0.6338808 0.08565286 -0.7686735
vn -0.988629758 0.129353926 0.07667324
vn -0.7511421 0.09290624 -0.653570354
vn -0.9341996 0.128947213 -0.332631916
vn -0.9860442 0.13930583 0.0911639854
vn 0.7867848 0.116743438 0.6060865
vn 0.171131477 0.160018727 0.972166657
vn 0.169662669 0.131206363 0.976729
vn 0.941121 0.111029521 0.319317639
vn 0.9619262 0.116898544 -0.247048
vn -0.9770336 0.148477867 0.152838558
vn -0.980563164 0.138083965 0.139387041
vn -0.9807917 0.161960468 0.108703509
vn -0.9637011 0.148595184 0.221809775
vn -0.152552858 0.03749412 -0.9875838
vn -0.154188335 0.05614876 -0.9864448
vn 0.9846868 0.115000278 -0.131022379
vn 0.9862195 0.123689711 -0.109872393
vn -0.6950248 0.15333201 0.7024456
vn -0.700999 0.12736243 0.7016974
vn 0.0191529263 0.9998158 -0.00123061554
vn 0.0191529263 0.9998158 -0.00123061554
vn 0.0191529263 0.9998158 -0.00123061554
vn 0.0242082346 0.999702 0.0031705827
vn 0.0242082346 0.999702 0.0031705827
vn 0.0242082346 0.999702 0.0031705827
vn -0.0122517012 -0.9996671 0.0227067713
vn -0.0122517012 -0.9996671 0.0227067713
vn -0.0122517012 -0.9996671 0.0227067713
vn -0.0137477145 -0.999575555 0.0256860685
vn -0.0137477145 -0.999575555 0.0256860685
vn -0.0137477145 -0.999575555 0.0256860685
vn 0.0246079676 0.999516666 -0.01900135
vn 0.0246079676 0.999516666 -0.01900135
vn 0.0246079676 0.999516666 -0.01900135
vn 0.0196993351 0.9997506 -0.0105282655
vn 0.0196993351 0.9997506 -0.0105282655
vn 0.0196993351 0.9997506 -0.0105282655
vn 0.004848105 -0.996803761 0.07974277
vn 0.004848105 -0.996803761 0.07974277
vn 0.004848105 -0.996803761 0.07974277
vn -0.00188606139 -0.9957358 0.09223241
vn -0.00188606139 -0.9957358 0.09223241
vn -0.00188606139 -0.9957358 0.09223241
vn 0.0186574329 0.999683857 -0.01685425
vn 0.0186574329 0.999683857 -0.01685425
vn 0.0186574329 0.999683857 -0.01685425
vn 0.0211111531 0.9996746 -0.0143172871
vn 0.0211111531 0.9996746 -0.0143172871
vn 0.0211111531 0.9996746 -0.0143172871
vn 0.14432241 -0.453398973 0.879545569
vn 0.14432241 -0.453398973 0.879545569
vn 0.14432241 -0.453398973 0.879545569
vn 0.147787988 -0.489116669 0.859606743
vn 0.147787988 -0.489116669 0.859606743
vn 0.147787988 -0.489116669 0.859606743
vn 0.169662669 0.131206363 0.976729
vn 0.171131477 0.160018727 0.972166657
vn -0.154188335 0.05614876 -0.9864448
vn -0.152552858 0.03749412 -0.9875838
vn 0.01764189 0.999784648 -0.0109355655
vn 0.01764189 0.999784648 -0.0109355655
vn 0.01764189 0.999784648 -0.0109355655
vn -0.0161539521 -0.999812245 0.0107095363
vn -0.0161539521 -0.999812245 0.0107095363
vn -0.0161539521 -0.999812245 0.0107095363
vn 0.0228550136 0.9993439 -0.0281009
vn 0.0228550136 0.9993439 -0.0281009
vn 0.0228550136 0.9993439 -0.0281009
vn 0.02235916 -0.9849924 0.171143368
vn 0.02235916 -0.9849924 0.171143368
vn 0.02235916 -0.9849924 0.171143368
vn -0.01452859 -0.9997982 0.0138800088
vn -0.01452859 -0.9997982 0.0138800088
vn -0.01452859 -0.9997982 0.0138800088
vn -0.0140178557 -0.9997908 0.014902113
vn -0.0140178557 -0.9997908 0.014902113
vn -0.0140178557 -0.9997908 0.014902113
vn -0.107036777 -0.830248535 -0.5470197
vn -0.107036777 -0.830248535 -0.5470197
vn -0.107036777 -0.830248535 -0.5470197
vn -0.1131403 -0.8218283 -0.5583883
vn -0.1131403 -0.8218283 -0.5583883
vn -0.1131403 -0.8218283 -0.5583883
vn 0.965255558 0.104569435 -0.239472613
vn -0.834048152 0.220309064 -0.5057942
vn -0.104249738 0.141341373 -0.9844566
vn -0.347266644 0.6113268 -0.7111156
vn -0.453869879 0.405607462 -0.7934009
vn -0.9444203 0.312670648 -0.101525448
vn -0.768889 0.5711655 0.287366837
vn -0.493554384 0.5872618 0.641504347
vn -0.9835905 0.138592839 -0.115506761
vn 0.7342404 0.2923909 -0.6126978
vn 0.468344063 0.34594366 -0.813004851
vn 0.9950298 0.0994032547 0.0058910693
vn 0.9834853 0.112048723 0.142133027
vn 0.618977 0.5616558 0.549008369
vn 0.7291526 0.480113626 0.487675458
vn 0.9834853 0.112048723 0.142133027
vn 0.9950298 0.0994032547 0.0058910693
vn -0.6857068 0.173751459 -0.7068356
vn -0.8790754 0.4293766 -0.207031876
vn 0.8326179 0.231260836 -0.5032553
vn 0.107144952 0.291011751 -0.9507009
vn -0.6945252 0.6242346 0.3577232
vn -0.205961734 0.5749545 0.791837931
vn -0.347003579 0.8356481 0.425770819
vn 0.98501 0.0310435183 0.16968073
vn -0.5994599 0.7999273 0.0276438929
vn 0.3146679 0.8705768 0.378259331
vn 0.927278638 0.291993171 0.234295413
vn 0.138041854 0.7723971 0.6199574
vn 0.600285232 0.5478623 0.5826702
vn -0.714857936 0.6935208 -0.08948243
vn -0.638424754 0.0975232348 -0.763481
vn -0.627887666 0.0987870544 -0.7720092
vn -0.932714164 0.118039437 -0.340750635
vn -0.94496125 0.136694685 -0.297258854
vn 0.988317132 0.124832481 0.08744304
vn 0.9856941 0.134782642 0.101196773
vn 0.9381746 0.129056588 -0.321205556
vn 0.7583626 0.09740329 -0.6445144
vn -0.7932745 0.113123029 0.598263264
vn -0.9449124 0.111916192 0.307596147
vn -0.178905368 0.119572483 0.9765732
vn -0.180183187 0.148447528 0.972366869
vn -0.958770752 0.125000685 -0.255212635
vn 0.976103246 0.142181709 0.164337546
vn 0.9621342 0.140781432 0.233406186
vn 0.9804386 0.155504391 0.120659
vn 0.9797952 0.132743865 0.149600968
vn 0.164470613 0.0679681748 -0.984037459
vn 0.162752911 0.04933798 -0.9854326
vn -0.9824157 0.121696614 -0.141596481
vn -0.984095 0.130176991 -0.120876111
vn 0.688621 0.140752241 0.7113297
vn 0.694471955 0.114764117 0.7103083
vn -0.0188796557 0.9996949 0.015932437
vn -0.0188796557 0.9996949 0.015932437
vn -0.0188796557 0.9996949 0.015932437
vn -0.014210402 0.999827564 0.0119560389
vn -0.014210402 0.999827564 0.0119560389
vn -0.014210402 0.999827564 0.0119560389
vn 0.008468562 -0.999879837 0.0129892109
vn 0.008468562 -0.999879837 0.0129892109
vn 0.008468562 -0.999879837 0.0129892109
vn 0.006991091 -0.9999258 0.0099869445
vn 0.006991091 -0.9999258 0.0099869445
vn 0.006991091 -0.9999258 0.0099869445
vn -0.0145824719 0.9998915 0.0021005224
vn -0.0145824719 0.9998915 0.0021005224
vn -0.0145824719 0.9998915 0.0021005224
vn -0.01939655 0.9997913 -0.006407277
vn -0.01939655 0.9997913 -0.006407277
vn -0.01939655 0.9997913 -0.006407277
vn -0.004054559 -0.9968317 0.0794366449
vn -0.004054559 -0.9968317 0.0794366449
vn -0.004054559 -0.9968317 0.0794366449
vn -0.01066049 -0.9977042 0.0668792054
vn -0.01066049 -0.9977042 0.0668792054
vn -0.01066049 -0.9977042 0.0668792054
vn -0.0154724875 0.99987787 -0.00219046837
vn -0.0154724875 0.99987787 -0.00219046837
vn -0.0154724875 0.99987787 -0.00219046837
vn -0.0134787234 0.999900341 -0.00420206646
vn -0.0134787234 0.999900341 -0.00420206646
vn -0.0134787234 0.999900341 -0.00420206646
vn -0.159057975 -0.499302149 0.851703048
vn -0.159057975 -0.499302149 0.851703048
vn -0.159057975 -0.499302149 0.851703048
vn -0.155588672 -0.4638722 0.8721324
vn -0.155588672 -0.4638722 0.8721324
vn -0.155588672 -0.4638722 0.8721324
vn -0.180183187 0.148447528 0.972366869
vn -0.178905368 0.119572483 0.9765732
vn 0.162752911 0.04933798 -0.9854326
vn 0.164470613 0.0679681748 -0.984037459
vn -0.012512248 0.9999203 0.00173188187
vn -0.012512248 0.9999203 0.00173188187
vn -0.012512248 0.9999203 0.00173188187
vn 0.011026714 -0.999937356 -0.00197150046
vn 0.011026714 -0.999937356 -0.00197150046
vn 0.011026714 -0.999937356 -0.00197150046
vn -0.0175517872 0.999726 -0.015492348
vn -0.0175517872 0.999726 -0.015492348
vn -0.0175517872 0.999726 -0.015492348
vn -0.0290386472 -0.9869733 0.158242524
vn -0.0290386472 -0.9869733 0.158242524
vn -0.0290386472 -0.9869733 0.158242524
vn 0.008839876 -0.9999586 0.00219867215
vn 0.008839876 -0.9999586 0.00219867215
vn 0.008839876 -0.9999586 0.00219867215
vn 0.009362105 -0.999955535 0.00118224276
vn 0.009362105 -0.999955535 0.00118224276
vn 0.009362105 -0.999955535 0.00118224276
vn 0.11472781 -0.815183938 -0.567725956
vn 0.11472781 -0.815183938 -0.567725956
vn 0.11472781 -0.815183938 -0.567725956
vn 0.108445391 -0.823723435 -0.556524456
vn 0.108445391 -0.823723435 -0.556524456
vn 0.108445391 -0.823723435 -0.556524456
vn -0.96223855 0.112592816 -0.247830659
vn 0.8326179 0.231260836 -0.5032553
vn 0.113479912 0.187017247 -0.9757801
vn -0.0383212455 0.9853905 0.165943623
vn 0.0325387269 0.9631157 -0.267113149
vn -0.416197 0.908182859 -0.0445417948
vn -0.416197 0.908182859 -0.0445417948
vn -0.337609351 0.8284991 0.4467767
vn -0.337609351 0.8284991 0.4467767
vn 0.159696341 0.8341848 0.527856767
vn 0.159696341 0.8341848 0.527856767
vn 0.388460338 0.9173825 0.08664878
vn 0.388460338 0.9173825 0.08664878
vn 0.0325387269 0.9631157 -0.267113149
vn 0.0417192541 0.987235844 0.153704554
vn 0.421296 0.9054352 -0.0519305468
vn -0.0248843245 0.959756553 -0.27972874
vn 0.337348849 0.832464039 0.4395445
vn 0.421296 0.9054352 -0.0519305468
vn -0.160713553 0.8416869 0.515494466
vn 0.337348849 0.832464039 0.4395445
vn -0.384586036 0.920357764 0.07095922
vn -0.160713553 0.8416869 0.515494466
vn -0.0248843245 0.959756553 -0.27972874
vn -0.384586036 0.920357764 0.07095922
usemtl 9014003804_part_0_material_0
f 1/1/1 2/2/2 3/3/3
f 4/4/4 5/5/5 2/2/2
f 2/2/2 6/6/6 4/4/4
f 7/7/7 8/8/8 9/9/9
f 9/9/9 10/10/10 7/7/7
f 3/3/3 7/7/7 10/10/10
f 10/10/10 1/1/1 3/3/3
f 11/11/11 4/4/4 6/6/6
f 6/6/6 12/12/12 11/11/11
f 13/13/13 11/11/11 12/12/12
f 12/12/12 14/14/14 13/13/13
f 5/5/5 15/15/15 16/16/16
f 16/16/16 3/3/3 5/5/5
f 17/17/17 8/8/8 7/7/7
f 7/7/7 3/3/3 18/18/18
f 19/19/19 20/20/20 21/21/21
f 13/13/13 22/22/22 11/11/11
f 15/15/15 23/23/23 24/24/24
f 25/25/25 11/11/11 26/26/26
f 25/25/25 23/23/23 4/4/4
f 4/4/4 11/11/11 25/25/25
f 25/25/25 26/26/26 27/27/27
f 27/27/27 28/28/28 25/25/25
f 25/25/25 28/28/28 20/20/20
f 20/20/20 23/23/23 25/25/25
f 23/23/23 20/20/20 19/19/19
f 19/19/19 24/24/24 23/23/23
f 3/3/3 16/16/16 18/18/18
f 18/18/18 17/17/17 7/7/7
f 29/29/29 30/30/30 31/31/31
f 31/31/31 32/32/32 29/29/29
f 33/33/33 34/34/34 35/35/35
f 35/35/35 36/36/36 33/33/33
f 37/37/37 38/38/38 39/39/39
f 39/39/39 40/40/40 37/37/37
f 30/30/30 41/41/41 31/31/31
f 42/42/42 43/43/43 44/44/44
f 44/44/44 45/45/45 42/42/42
f 34/34/34 46/46/46 47/47/47
f 47/47/47 35/35/35 34/34/34
f 48/48/48 37/37/37 40/40/40
f 40/40/40 49/49/49 48/48/48
f 50/50/50 42/42/42 45/45/45
f 45/45/45 51/51/51 50/50/50
f 52/52/52 53/53/53 54/54/54
f 55/55/55 56/56/56 57/57/57
f 58/58/58 59/59/59 60/60/60
f 61/61/61 62/62/62 63/63/63
f 64/64/64 65/65/65 66/66/66
f 67/67/67 68/68/68 69/69/69
f 70/70/70 71/71/71 72/72/72
f 73/73/73 74/74/74 75/75/75
f 76/76/76 77/77/77 78/78/78
f 79/79/79 80/80/80 81/81/81
f 82/82/82 83/83/83 84/84/84
f 85/85/85 86/86/86 87/87/87
f 50/50/50 51/51/51 88/88/88
f 88/88/88 89/89/89 50/50/50
f 29/29/29 32/32/32 90/90/90
f 90/90/90 91/91/91 29/29/29
f 92/92/92 93/93/93 94/94/94
f 95/95/95 96/96/96 97/97/97
f 98/98/98 99/99/99 100/100/100
f 101/101/101 102/102/102 103/103/103
f 104/104/104 105/105/105 106/106/106
f 107/107/107 108/108/108 109/109/109
f 110/110/110 111/111/111 112/112/112
f 113/113/113 114/114/114 115/115/115
f 30/30/30 48/48/48 41/41/41
f 33/33/33 36/36/36 43/43/43
f 42/42/42 33/33/33 43/43/43
f 48/48/48 116/116/116 41/41/41
f 48/48/48 49/49/49 116/116/116
f 11/11/11 22/22/22 26/26/26
f 117/117/117 22/22/22 13/13/13
f 17/17/17 18/18/18 118/118/118
f 15/15/15 5/5/5 4/4/4
f 28/28/28 21/21/21 20/20/20
f 28/28/28 27/27/27 21/21/21
f 2/2/2 5/5/5 3/3/3
f 18/18/18 16/16/16 118/118/118
f 119/119/119 120/120/120 121/121/121
f 122/122/122 123/123/123 121/121/121
f 121/121/121 124/124/124 122/122/122
f 125/125/125 126/126/126 127/127/127
f 127/127/127 128/128/128 125/125/125
f 120/120/120 119/119/119 126/126/126
f 126/126/126 125/125/125 120/120/120
f 129/129/129 130/130/130 123/123/123
f 123/123/123 122/122/122 129/129/129
f 131/131/131 132/132/132 130/130/130
f 130/130/130 129/129/129 131/131/131
f 124/124/124 120/120/120 133/133/133
f 133/133/133 134/134/134 124/124/124
f 135/135/135 125/125/125 128/128/128
f 125/125/125 136/136/136 120/120/120
f 137/137/137 138/138/138 139/139/139
f 131/131/131 129/129/129 140/140/140
f 134/134/134 141/141/141 122/122/122
f 142/142/142 143/143/143 129/129/129
f 142/142/142 129/129/129 122/122/122
f 122/122/122 141/141/141 142/142/142
f 142/142/142 144/144/144 145/145/145
f 145/145/145 143/143/143 142/142/142
f 142/142/142 141/141/141 139/139/139
f 139/139/139 144/144/144 142/142/142
f 141/141/141 146/146/146 137/137/137
f 137/137/137 139/139/139 141/141/141
f 120/120/120 136/136/136 133/133/133
f 136/136/136 125/125/125 135/135/135
f 147/147/147 148/148/148 149/149/149
f 149/149/149 150/150/150 147/147/147
f 151/151/151 152/152/152 153/153/153
f 153/153/153 154/154/154 151/151/151
f 155/155/155 156/156/156 157/157/157
f 157/157/157 158/158/158 155/155/155
f 150/150/150 149/149/149 159/159/159
f 160/160/160 161/161/161 162/162/162
f 162/162/162 163/163/163 160/160/160
f 154/154/154 153/153/153 164/164/164
f 164/164/164 165/165/165 154/154/154
f 166/166/166 167/167/167 156/156/156
f 156/156/156 155/155/155 166/166/166
f 168/168/168 169/169/169 161/161/161
f 161/161/161 160/160/160 168/168/168
f 170/170/170 171/171/171 172/172/172
f 173/173/173 174/174/174 175/175/175
f 176/176/176 177/177/177 178/178/178
f 179/179/179 180/180/180 181/181/181
f 182/182/182 183/183/183 184/184/184
f 185/185/185 186/186/186 187/187/187
f 188/188/188 189/189/189 190/190/190
f 191/191/191 192/192/192 193/193/193
f 194/194/194 195/195/195 196/196/196
f 197/197/197 198/198/198 199/199/199
f 200/200/200 201/201/201 202/202/202
f 203/203/203 204/204/204 205/205/205
f 168/168/168 206/206/206 207/207/207
f 207/207/207 169/169/169 168/168/168
f 147/147/147 208/208/208 209/209/209
f 209/209/209 148/148/148 147/147/147
f 210/210/210 211/211/211 212/212/212
f 213/213/213 214/214/214 215/215/215
f 216/216/216 217/217/217 218/218/218
f 219/219/219 220/220/220 221/221/221
f 222/222/222 223/223/223 224/224/224
f 225/225/225 226/226/226 227/227/227
f 228/228/228 229/229/229 230/230/230
f 231/231/231 232/232/232 233/233/233
f 150/150/150 159/159/159 166/166/166
f 151/151/151 163/163/163 152/152/152
f 160/160/160 163/163/163 151/151/151
f 166/166/166 159/159/159 234/234/234
f 166/166/166 234/234/234 167/167/167
f 129/129/129 143/143/143 140/140/140
f 235/235/235 131/131/131 140/140/140
f 135/135/135 236/236/236 136/136/136
f 134/134/134 122/122/122 124/124/124
f 144/144/144 139/139/139 138/138/138
f 144/144/144 138/138/138 145/145/145
f 121/121/121 120/120/120 124/124/124
f 136/136/136 236/236/236 133/133/133
f 15/15/15 4/4/4 23/23/23
f 134/134/134 146/146/146 141/141/141
f 237/237/237 238/238/238 239/239/239
f 237/237/237 240/240/240 241/241/241
f 237/237/237 242/242/242 243/243/243
f 237/237/237 244/244/244 245/245/245
f 237/237/237 246/246/246 247/247/247
f 248/248/248 249/249/249 250/250/250
f 248/248/248 251/251/251 252/252/252
f 248/248/248 253/253/253 254/254/254
f 248/248/248 255/255/255 256/256/256
f 248/248/248 257/257/257 258/258/258
