mtllib 9014001101.mtl
o 9014001101_part_0
v 0.0589638054 1.03922164 -0.0122392029
v 0.00132526166 1.042647 -0.0489905328
v 0.0851637 1.083537 -0.0803043842
v 0.137027428 1.08156884 -0.0382403
v -0.08085867 1.0839473 -0.07894247
v 0.00173757679 1.08662581 -0.127487913
v -0.0571614578 1.039632 -0.011207819
v -0.129632547 1.08613837 -0.03126134
v 0.00209482224 1.20283628 -0.133515447
v 0.095479086 1.194731 -0.085395284
v 0.169672787 1.18421364 -0.0117316544
v -0.0904752 1.1951859 -0.08368816
v -0.166719347 1.18531084 -0.009097829
v 0.0005707493 1.14067686 -0.188745558
v 0.001383977 1.25595593 -0.164055631
v 0.1251688 1.2537905 -0.108782634
v 0.12933597 1.12198532 -0.130075976
v 0.150226623 1.11027622 -0.07350902
v 0.175794244 1.250752 -0.05405756
v -0.150152341 1.10936737 -0.0276448131
v -0.129044876 1.08426571 0.0117717087
v -0.168116316 1.17063737 0.008602664
v -0.174574435 1.25298452 -0.0330829546
v -0.176941857 1.23965228 0.021706596
v -0.112547062 1.25594068 -0.108546942
v -0.12975809 1.12601542 -0.1254651
v -0.1384129 1.039921 -0.0166575238
v -0.125728786 1.01710808 0.0495400727
v 0.119641952 1.02212477 -0.1408317
v 0.146445453 0.907176435 -0.193478048
v -0.00097032357 0.927386761 -0.266746759
v -6.90375455E-05 1.03062189 -0.211667463
v 0.169635653 0.908274531 -0.127472669
v 0.146593332 1.01824975 -0.08210954
v 0.132599741 1.013974 -0.0289198831
v -0.150475338 1.020005 -0.06459539
v -0.1319452 1.02934647 -0.12760517
v -0.00185014261 0.7851815 -0.294136584
v 0.140828907 0.774946 -0.25905323
v 0.13956061 0.594445348 -0.3316949
v -0.003539767 0.600589 -0.341353118
v 0.202716649 0.816012263 -0.171740711
v 0.245892137 0.6841402 -0.266913921
v 0.1772758 0.830140531 -0.226083711
v -0.148888975 0.7502654 -0.222813651
v -0.154867008 0.6423458 -0.266947985
v 0.0637628958 0.318288952 -0.448584676
v 0.0132808741 0.484263122 -0.364285231
v 0.13899523 0.4790094 -0.346140862
v 0.131004587 0.308369845 -0.441588938
v -0.17852591 0.429103732 -0.382770419
v -0.134653747 0.910559952 -0.1796513
v 0.119784161 0.161063433 -0.520623147
v 0.164652839 1.16458917 0.01164645
v 0.174430832 1.23892188 0.01675208
v 0.136851653 1.10177183 -0.004424572
v -0.1384129 1.039921 -0.0166575238
v -0.157556161 0.911479831 -0.116046906
v -0.147491008 1.011224 -0.0249225721
v 0.0005073847 1.14099932 -0.181604564
v 0.127448 1.12288129 -0.122861132
v 0.128827453 1.10953939 -0.07032847
v 0.175415829 1.25100219 -0.05290641
v -0.148154169 1.11088789 -0.0204259381
v -0.129011765 1.08429623 0.0119133592
v -0.172570288 1.2545085 -0.02613666
v -0.12795563 1.12693715 -0.118282691
v 0.117888056 1.02291465 -0.133299336
v -0.000134716276 1.02999163 -0.2044835
v -0.00103533035 0.9267565 -0.2595628
v 0.144295439 0.9074456 -0.185961127
v 0.1417577 1.01873243 -0.07846059
v -0.1483698 1.02141273 -0.0569684952
v -0.130114466 1.02251792 -0.117082313
v -0.0019132467 0.784551263 -0.286952555
v -0.00359406928 0.5999587 -0.3341692
v 0.174672872 0.8295193 -0.218877211
v 0.1290069 0.3077464 -0.434387743
v 0.136904463 0.478386343 -0.3389389
v -0.13279739 0.9108407 -0.172000438
v 0.0132808741 0.484263122 -0.364285231
v 0.136904463 0.478386343 -0.3389389
v 0.13956061 0.594445348 -0.3316949
v 0.13956061 0.594445348 -0.3316949
v -0.00359406928 0.5999587 -0.3341692
v 0.0132808741 0.484263122 -0.364285231
v 0.005544168 1.41990268 -0.0132625625
v 0.0341205373 1.42881274 -0.02015683
v 0.0059028375 1.387301 -0.108272254
v 0.130376086 1.37636065 0.0085490495
v 0.162220359 1.3484683 -0.07554643
v 0.07554525 1.42626548 -0.0642163455
v 0.0907199457 1.4158901 0.00534380972
v 0.15498282 1.30985975 0.0126112252
v 0.174430832 1.23892188 0.01675208
v 0.172334924 1.22236633 -0.04289607
v 0.196840525 1.23122215 -0.08465397
v 0.09950692 1.34822059 -0.166755021
v 0.170458272 1.22982 -0.118999153
v 0.153053418 1.20344269 -0.161855936
v 0.172464281 1.09646618 0.03164138
v 0.194489941 1.113301 -0.060356006
v 0.178658515 1.12896907 -0.138592437
v 0.0109442081 1.33938372 -0.180332333
v 0.0305066127 1.19554758 -0.210348919
v 0.09812783 1.20779061 -0.217517525
v 0.129549384 1.07696152 -0.191109791
v 0.0564894 1.08166957 -0.220788822
v -0.0504551157 1.4423939 -0.0281360522
v -0.058877714 1.43214834 0.0313971639
v 0.005544168 1.41990268 -0.0132625625
v -0.0143826734 1.41383541 -0.111514613
v 0.0059028375 1.387301 -0.108272254
v -0.112717785 1.37801874 -0.10679847
v -0.136747375 1.40444374 -0.026677452
v -0.132940426 1.39760637 0.0391531438
v -0.192274079 1.24323225 -0.0546132028
v -0.194430918 1.2431109 0.00528417528
v -0.160042763 1.25456381 0.0466038
v -0.0617066622 1.41142154 0.0469276
v -0.120573327 1.38583779 0.0465278774
v -0.061065428 1.34305847 -0.200641289
v 0.0109442081 1.33938372 -0.180332333
v -0.1664671 1.19759941 -0.156406045
v -0.1981788 1.24372113 -0.11785382
v -0.0519458726 1.19498825 -0.215675518
v -0.121356 1.1924423 -0.211084023
v -0.00746745151 1.202687 -0.236079365
v -0.145848915 1.07331419 -0.152563244
v -0.18431215 1.13624418 0.0344101936
v -0.175008282 1.1283524 -0.0103616267
v -0.1889671 1.15879714 -0.07281092
v -0.004234886 1.05784535 -0.2308245
v -0.08450739 1.05888891 -0.196104154
v -0.1664671 1.19759941 -0.156406045
v 0.0156970173 1.19089365 -0.21325779
v 0.02316217 1.38052547 0.1520464
v 0.031831935 1.41482949 0.09316121
v -0.0219986644 1.42897165 0.102819458
v -0.0321839 1.37833118 0.142091379
v -0.007185939 1.28686547 0.16961877
v -0.07298595 1.283848 0.151357338
v 0.075814 1.41206026 0.06158535
v 0.005544168 1.41990268 -0.0132625625
v -0.08127029 1.23668456 0.164497718
v 0.08044576 1.37321758 0.1079642
v 0.04332505 1.29940867 0.1661029
v -0.01980904 1.23265982 0.168164536
v 0.114018276 1.36158276 0.110965714
v 0.104000486 1.28428626 0.147106573
v 0.03564252 1.21565461 0.147785351
v 0.075814 1.41206026 0.06158535
v 0.103510536 1.42252624 0.0428543538
v 0.005544168 1.41990268 -0.0132625625
v 0.114018276 1.36158276 0.110965714
v 0.163746417 1.36112237 0.08137871
v 0.153362975 1.26401711 0.105910495
v 0.104000486 1.28428626 0.147106573
v 0.0907199457 1.4158901 0.00534380972
v 0.115908861 1.22093582 0.143577442
v 0.15498282 1.30985975 0.0126112252
v 0.130376086 1.37636065 0.0085490495
v 0.174430832 1.23892188 0.01675208
v 0.16033408 1.14626193 0.0621069074
v -0.126116708 1.3886857 0.0899916142
v -0.0904983357 1.37823129 0.113987789
v -0.0632576 1.4330169 0.0638916343
v -0.0219986644 1.42897165 0.102819458
v -0.0321839 1.37833118 0.142091379
v -0.153743908 1.27975273 0.09514101
v -0.112495892 1.28304744 0.141931787
v -0.149304464 1.17606521 0.09172563
v -0.07298595 1.283848 0.151357338
v -0.119469568 1.20579922 0.142989442
v 0.005544168 1.41990268 -0.0132625625
v -0.0617066622 1.41142154 0.0469276
v -0.120573327 1.38583779 0.0465278774
v -0.160042763 1.25456381 0.0466038
v -0.153445125 1.13165152 0.06818056
v 0.147383451 1.2893604 -0.112343915
v 0.192862108 1.26088834 -0.0321967751
v 0.1759598 1.17273319 -0.07305388
v 0.160898328 1.18901443 -0.136861086
v 0.00171477068 1.21867418 -0.208013132
v 0.00252856663 1.32734847 -0.159619853
v 0.000925210363 1.0471375 -0.228694245
v 0.113770463 1.04057789 -0.173203483
v 0.1583993 1.04797268 -0.09072809
v 0.157098144 1.07551789 -0.04143723
v -0.164751142 1.19058633 -0.149844289
v -0.141181678 1.28637874 -0.107746542
v -0.181385845 1.16694832 -0.07341216
v -0.156217083 1.05855632 -0.100729309
v -0.172700331 1.08240068 -0.05335127
v -0.130891651 1.12154675 0.00356701016
v -0.189133778 1.25734818 -0.0280817524
v -0.1880284 1.00111032 -0.0037193
v -0.116261832 1.042553 -0.174501374
v 0.150229424 1.13186252 -0.0131637752
v -0.1687574 1.23433328 0.0430746526
v 0.145307988 1.004835 0.0112912208
v 0.159703821 0.9484658 -0.181271762
v 0.0435471237 0.9575863 -0.261664271
v -0.0516661331 0.962857246 -0.272578716
v -0.166525185 0.959791 -0.150175869
v 0.136792317 1.0927186 -0.00681345165
v 0.174430832 1.23892188 0.01675208
v -0.129930943 1.09377909 0.0124509782
v -0.130891651 1.12154675 0.00356701016
v 0.174430832 1.23892188 0.01675208
v 0.16517137 1.25973845 0.04234256
v 0.138695031 1.12808681 0.05235359
v 0.1395344 1.2790153 0.0706239641
v 0.124440029 1.33703172 0.137159631
v 0.0519644469 1.35811067 0.1679133
v 0.050432995 1.31716561 0.183453187
v 0.124729916 1.310215 0.14949359
v 0.1964858 1.15260184 -0.0006272495
v 0.183857679 1.18396115 0.06351511
v 0.1703553 1.11445451 0.0450218022
v 0.005887087 1.31863356 0.192327455
v 0.005966896 1.40158677 0.168299869
v 0.214390963 1.24051142 0.009227306
v 0.227435753 1.22021019 -0.0595721453
v 0.241245687 1.28151941 -0.0522518978
v 0.176210925 1.22523522 0.07191707
v 0.150192916 1.198625 0.105363593
v 0.158935428 1.15061021 0.1113324
v 0.240494728 1.31298053 -0.1285822
v 0.252572954 1.35324931 -0.117461927
v 0.251875848 1.39410567 -0.165973812
v 0.256993979 1.41766441 -0.155632824
v 0.24095656 1.49000144 -0.187530965
v -0.0388186574 1.317481 0.18424587
v -0.0403364152 1.358437 0.168733045
v -0.113494 1.33787274 0.139272854
v -0.11375431 1.311058 0.151611641
v -0.189277768 1.153902 0.00279024243
v -0.1625259 1.11546957 0.0467877537
v -0.1806357 1.18125844 0.06338869
v 0.005887087 1.31863356 0.192327455
v -0.114228144 1.2741214 0.1439374
v -0.1697488 1.28829491 0.08278774
v -0.1697488 1.28829491 0.08278774
v -0.168368444 1.32718563 0.0735205
v -0.192548335 1.32896233 0.01905419
v -0.220790878 1.22165489 -0.05554866
v -0.206382915 1.24198031 0.0129689872
v -0.228057265 1.28299689 -0.0479707345
v -0.1406052 1.19965291 0.107946321
v -0.16710858 1.22644866 0.07496618
v -0.142212018 1.15374422 0.115265682
v -0.240395352 1.31475472 -0.124423593
v -0.2460109 1.35497844 -0.112980738
v -0.245886952 1.39586258 -0.161545366
v -0.250654131 1.41945875 -0.151124239
v -0.2346748 1.49168265 -0.183306754
v 0.201281816 1.32757044 0.01555647
v 0.2172911 1.34094 -0.05188714
v 0.235983372 1.39156437 -0.112490445
v 0.24183619 1.43995261 -0.152581826
v -0.209657773 1.34239852 -0.0480485037
v -0.229065433 1.39320159 -0.108348615
v -0.235287324 1.44163907 -0.148344338
v 0.1794381 1.28629375 0.0754174143
v 0.146524057 1.0912708 0.0801753551
v 0.100591458 1.07955992 0.118360475
v 0.104672037 1.1865927 0.132118151
v -0.140543088 1.092283 0.082724005
v 0.124806292 1.27327657 0.1418144
v 0.0486386046 1.27125812 0.171364114
v 0.124440029 1.33703172 0.137159631
v 0.201210737 1.32622838 0.00808619
v 0.00545944832 1.24411952 0.1738322
v 0.178156987 1.32596087 0.07044296
v 0.227435753 1.22021019 -0.0595721453
v 0.2172911 1.34094 -0.05188714
v 0.240494728 1.31298053 -0.1285822
v 0.235983372 1.39156437 -0.112490445
v 0.251875848 1.39410567 -0.165973812
v 0.24183619 1.43995261 -0.152581826
v 0.24095656 1.49000144 -0.187530965
v -0.113494 1.33787274 0.139272854
v -0.0375638232 1.27156281 0.172129735
v -0.1697488 1.28829491 0.08278774
v -0.1697488 1.28829491 0.08278774
v -0.192619428 1.32761931 0.0115846545
v -0.220790878 1.22165489 -0.05554866
v -0.209657773 1.34239852 -0.0480485037
v -0.240395352 1.31475472 -0.124423593
v -0.229065433 1.39320159 -0.108348615
v -0.235287324 1.44163907 -0.148344338
v -0.245886952 1.39586258 -0.161545366
v -0.2346748 1.49168265 -0.183306754
v -0.09623364 1.08150744 0.127077445
v -0.09478615 1.1872977 0.13388966
v 0.178156987 1.32596087 0.07044296
vt 0.00448245043 0.04391861
vt 0.0044823424 0.0328620672
vt 0.004482422 0.04057139
vt 0.004482479 0.0472657681
vt 0.004482422 0.04057139
vt 0.0044823424 0.0328620672
vt 0.00448245043 0.04391861
vt 0.004482479 0.0472657681
vt 0.0044823424 0.0328620672
vt 0.004482422 0.04057139
vt 0.004482479 0.0472657681
vt 0.004482422 0.04057139
vt 0.004482479 0.0472657681
vt 0.919707358 0.6974906
vt 0.9224014 0.7465923
vt 0.884714961 0.7428304
vt 0.888766766 0.690099
vt 0.8848125 0.6844567
vt 0.8697201 0.7438519
vt 0.9757465 0.681581855
vt 0.990197062 0.685971
vt 0.9912222 0.7093842
vt 0.978516638 0.742853761
vt 0.996588349 0.7487757
vt 0.9536006 0.7428304
vt 0.9551502 0.6854743
vt 0.982627869 0.671849
vt 0.991908967 0.6587218
vt 0.8880514 0.6625524
vt 0.887335956 0.635005832
vt 0.920913935 0.6367254
vt 0.9203106 0.667108
vt 0.878967464 0.6295471
vt 0.8839821 0.658366561
vt 0.879912853 0.654180765
vt 0.9669757 0.6553032
vt 0.9566775 0.6572494
vt 0.9226262 0.568667054
vt 0.88577193 0.566593647
vt 0.8871945 0.518943548
vt 0.930526555 0.5204271
vt 0.8717818 0.589565158
vt 0.8605326 0.5435562
vt 0.8784425 0.5948235
vt 0.960517645 0.559381843
vt 0.9618336 0.5355271
vt 0.905851841 0.4352026
vt 0.9189548 0.4767437
vt 0.88747406 0.475755334
vt 0.889116049 0.432344675
vt 0.967365444 0.45848155
vt 0.9582048 0.6290245
vt 0.8913837 0.394557834
vt 0.861129642 0.7044486
vt 0.8618553 0.7443876
vt 0.8808582 0.6788144
vt 0.9757465 0.681581855
vt 0.9582048 0.6290245
vt 0.9669757 0.6553032
vt 0.919707358 0.6974906
vt 0.888766766 0.690099
vt 0.8848125 0.6844567
vt 0.8697201 0.7438519
vt 0.9757465 0.681581855
vt 0.990197062 0.685971
vt 0.978516638 0.742853761
vt 0.9551502 0.6854743
vt 0.8880514 0.6625524
vt 0.9203106 0.667108
vt 0.920913935 0.6367254
vt 0.887335956 0.635005832
vt 0.8839821 0.658366561
vt 0.9669757 0.6553032
vt 0.9566775 0.6572494
vt 0.9226262 0.568667054
vt 0.930526555 0.5204271
vt 0.8784425 0.5948235
vt 0.889116049 0.432344675
vt 0.88747406 0.475755334
vt 0.9582048 0.6290245
vt 0.9189548 0.4767437
vt 0.88747406 0.475755334
vt 0.8871945 0.518943548
vt 0.8871945 0.518943548
vt 0.930526555 0.5204271
vt 0.9189548 0.4767437
vt 0.930270851 0.7686129
vt 0.9390499 0.7373572
vt 0.968617558 0.718670547
vt 0.913034 0.678124
vt 0.9328248 0.6534141
vt 0.945906937 0.7113032
vt 0.9186838 0.716564357
vt 0.909435868 0.6427659
vt 0.9043587 0.592873752
vt 0.9209573 0.5761896
vt 0.926309943 0.5678712
vt 0.962350845 0.6491118
vt 0.936531067 0.5519865
vt 0.9528344 0.5456105
vt 0.902673066 0.5034805
vt 0.916582346 0.498505235
vt 0.9380395 0.498893857
vt 0.982591569 0.6561932
vt 0.986330748 0.555854857
vt 0.969248056 0.545097053
vt 0.9490736 0.459703445
vt 0.975008 0.4631182
vt 0.9493349 0.6854555
vt 0.968614 0.690579236
vt 0.9573343 0.733326852
vt 0.9211054 0.694737136
vt 0.9186894 0.715002
vt 0.931777358 0.6178505
vt 0.957559466 0.6121027
vt 0.9744243 0.619492
vt 0.944217145 0.5145802
vt 0.9608208 0.520329535
vt 0.979566038 0.5284645
vt 0.9787003 0.7100895
vt 0.9878549 0.638106048
vt 0.900758445 0.605910361
vt 0.891833365 0.6669952
vt 0.9156007 0.489155769
vt 0.930479 0.535750449
vt 0.880693853 0.549792945
vt 0.892812252 0.518601954
vt 0.8725592 0.583251655
vt 0.9002417 0.414484262
vt 0.9791938 0.444344282
vt 0.9547778 0.4410652
vt 0.940232038 0.4490248
vt 0.8620431 0.5042828
vt 0.8663947 0.4445485
vt 0.92243284 0.503219664
vt 0.866099238 0.5974303
vt 0.9661228 0.59077543
vt 0.9683052 0.639538467
vt 0.9537572 0.639834
vt 0.9492405 0.589238465
vt 0.9627303 0.52290374
vt 0.948194563 0.53198725
vt 0.978307366 0.6632988
vt 0.9582836 0.693624556
vt 0.939619839 0.476514578
vt 0.9831004 0.602212369
vt 0.97560513 0.5310845
vt 0.962452531 0.485612273
vt 0.997668147 0.601954162
vt 0.9937104 0.5383063
vt 0.9767284 0.481003881
vt 0.952760756 0.6545028
vt 0.966042459 0.6690467
vt 0.957446039 0.7114708
vt 0.943327844 0.600936353
vt 0.9620345 0.595214069
vt 0.95625937 0.523142159
vt 0.9413825 0.5272835
vt 0.97726357 0.6925803
vt 0.940605164 0.490385175
vt 0.9841039 0.581486642
vt 0.982511342 0.6581252
vt 0.9745565 0.5041042
vt 0.954305232 0.4634248
vt 0.8889014 0.602659643
vt 0.9082796 0.5789426
vt 0.90616715 0.654341161
vt 0.9237027 0.6413968
vt 0.925284564 0.5836076
vt 0.879750431 0.5152498
vt 0.898582935 0.5080728
vt 0.8747182 0.4509964
vt 0.9116741 0.4987228
vt 0.8926845 0.451553226
vt 0.921656847 0.7177021
vt 0.896786332 0.6774387
vt 0.875069141 0.6238441
vt 0.863685369 0.534671843
vt 0.863163531 0.43513453
vt 0.913747549 0.6833363
vt 0.8937179 0.690502465
vt 0.9013838 0.651800632
vt 0.907035351 0.633359849
vt 0.930421233 0.6349544
vt 0.9381035 0.7063022
vt 0.92015177 0.5774837
vt 0.9107476 0.5778491
vt 0.9002298 0.5802569
vt 0.894314051 0.596314251
vt 0.951105833 0.617005765
vt 0.9588717 0.66722995
vt 0.9624188 0.586995542
vt 0.944613636 0.556505442
vt 0.9618851 0.5341694
vt 0.971994758 0.5585431
vt 0.976216733 0.602669
vt 0.9509225 0.492786169
vt 0.9317488 0.5646228
vt 0.888733 0.6455718
vt 0.9868128 0.589279234
vt 0.888054 0.5429961
vt 0.9023248 0.5216215
vt 0.910492241 0.535071552
vt 0.917457759 0.520377934
vt 0.9296396 0.5282745
vt 0.8841497 0.602905452
vt 0.885401666 0.69119066
vt 0.9583356 0.520770133
vt 0.9618851 0.5341694
vt 0.9651741 0.485409975
vt 0.977808833 0.474650383
vt 0.9936495 0.530019939
vt 0.9825713 0.4607334
vt 0.8807754 0.1891461
vt 0.85658294 0.192998648
vt 0.8590233 0.174488366
vt 0.8825958 0.174874008
vt 0.9354115 0.113302112
vt 0.920573235 0.120824873
vt 0.91963464 0.09063476
vt 0.835115731 0.168125927
vt 0.8353279 0.2060321
vt 0.9335349 0.151877761
vt 0.9539188 0.159762442
vt 0.9490603 0.183946609
vt 0.9136234 0.139681339
vt 0.896298468 0.111516237
vt 0.899646342 0.08795619
vt 0.965119541 0.221799731
vt 0.958605766 0.231358171
vt 0.9672552 0.2553332
vt 0.962926447 0.2645774
vt 0.9640041 0.3121302
vt 0.811664164 0.174529731
vt 0.8140729 0.192998648
vt 0.7897718 0.188694954
vt 0.7880304 0.175037324
vt 0.735244334 0.113302112
vt 0.7510212 0.09063476
vt 0.750087857 0.120831311
vt 0.835505545 0.168144047
vt 0.787670553 0.157076955
vt 0.7548932 0.173349738
vt 0.7548932 0.173349738
vt 0.754496634 0.18534863
vt 0.7389975 0.19045341
vt 0.7167495 0.160261273
vt 0.7371209 0.151877761
vt 0.7216352 0.1843698
vt 0.7743574 0.111516237
vt 0.757032454 0.139681339
vt 0.7710095 0.08795619
vt 0.707120359 0.2221961
vt 0.712927759 0.231933951
vt 0.7047124 0.256355524
vt 0.708611 0.265267134
vt 0.7063668 0.308346272
vt 0.9316583 0.19045341
vt 0.9440858 0.2094329
vt 0.9518107 0.242282689
vt 0.9582368 0.274343848
vt 0.7263393 0.20812726
vt 0.7187608 0.241507769
vt 0.71241945 0.2724924
vt 0.917241156 0.161816835
vt 0.9029942 0.06439608
vt 0.8800243 0.03565246
vt 0.8790816 0.101249516
vt 0.767661631 0.06439608
vt 0.8829853 0.157076955
vt 0.860982955 0.155956149
vt 0.880632341 0.188245058
vt 0.9316583 0.19045341
vt 0.8353279 0.136509538
vt 0.9161592 0.18534863
vt 0.9538853 0.160347462
vt 0.944236338 0.208477914
vt 0.9652932 0.221182764
vt 0.951773465 0.242109179
vt 0.9678983 0.255421519
vt 0.957929432 0.27422142
vt 0.9641553 0.313357651
vt 0.7900975 0.188109279
vt 0.8096729 0.155956149
vt 0.7540211 0.164219737
vt 0.7540211 0.164219737
vt 0.7389975 0.19045341
vt 0.7166511 0.159102321
vt 0.7265659 0.209466577
vt 0.7070169 0.221948743
vt 0.718872845 0.242186189
vt 0.7127095 0.274628878
vt 0.7044348 0.25590086
vt 0.7064216 0.31094718
vt 0.790631533 0.03565246
vt 0.79157424 0.101249516
vt 0.9161592 0.18534863
vn 0.269733518 -0.851144254 -0.4503302
vn -0.00772881 -0.875189364 -0.483718783
vn 0.464516431 -0.5099166 -0.724023163
vn 0.5965473 -0.38740617 -0.70288527
vn -0.5162185 -0.507188261 -0.69012934
vn -0.00174758257 -0.466568381 -0.8844834
vn -0.318560421 -0.8404305 -0.4384014
vn -0.6522939 -0.391101 -0.6492709
vn -0.000604679168 -0.0626384541 -0.9980361
vn 0.565121531 -0.0716339052 -0.821891844
vn 0.701224267 -0.0391756631 -0.711863637
vn -0.5901896 -0.0754557848 -0.8037305
vn -0.6929239 -0.09441023 -0.714802861
vn -0.011030647 0.20026736 -0.979679167
vn -0.0005329328 0.995473862 -0.0950342938
vn -0.131719232 0.956542969 -0.260145366
vn 0.752015054 0.0784109458 -0.6544655
vn 0.9892295 -0.0634577051 -0.131901786
vn 0.925248265 -0.131576866 -0.355813384
vn -0.9921996 -0.1246496 0.00154054258
vn -0.9419006 -0.116036378 0.31521225
vn -0.232140735 -0.07265312 0.969965041
vn -0.9008686 -0.150073558 -0.407325029
vn 0.471934646 -0.1058357 0.875257969
vn 0.230691642 0.920152366 -0.3163874
vn -0.796796739 0.1313639 -0.589795232
vn 0.1034362 0.906233 0.40993008
vn 0.9746882 -0.07212862 -0.211613968
vn 0.74000597 0.222157061 -0.6348523
vn 0.6924222 0.440465152 -0.5714385
vn -0.06949311 0.356967121 -0.9315284
vn -0.007234952 0.326034218 -0.945330262
vn 0.4501671 -0.365714252 0.8146181
vn 0.9949433 0.08305237 -0.0564812534
vn -0.2541982 -0.449694663 0.8562465
vn -0.996133268 0.07405184 -0.0472743623
vn -0.8161072 0.1555772 -0.556565166
vn -0.149870664 0.250763565 -0.956376731
vn 0.9171487 -0.39136675 0.0753013045
vn 0.159156233 0.16011253 -0.9741834
vn -0.117173284 0.304442644 -0.9452963
vn 0.476491541 -0.32605806 0.8164815
vn 0.957279265 0.125352725 0.2605822
vn 0.8428712 0.458932042 -0.280979574
vn -0.844746351 -0.454471141 0.2825944
vn -0.944543064 -0.08311168 0.317696065
vn -0.9655004 -0.0369519666 -0.2577663
vn 0.06302163 0.155926421 -0.985756159
vn 0.150242388 0.303888023 -0.940786541
vn 0.159348309 0.46664983 -0.869969
vn -0.9757187 0.17775771 -0.1279659
vn -0.7551172 0.243046686 -0.608873069
vn -0.900916159 -0.131505981 -0.4135895
vn 0.233966738 -0.2015396 0.951126337
vn 0.988654 -0.0292082615 0.14734371
vn -0.0974011645 -0.123658 0.987533152
vn 0.1034362 0.906233 0.40993008
vn -0.413906246 -0.5588789 0.7185652
vn -0.01260229 -0.2740854 0.9616228
vn 0.01168624 -0.169290364 0.985496938
vn -0.850225151 -0.0408191681 0.5248343
vn -0.984975636 0.04681534 0.1662268
vn -0.9002566 0.2022212 0.3855446
vn 0.9898996 0.141714633 0.003969592
vn 0.9389085 0.113316655 -0.32497716
vn 0.901068866 0.146543756 0.408166468
vn 0.8018323 -0.10496977 0.588257
vn -0.7541245 -0.2532358 0.6059438
vn 0.0198604483 -0.3199254 0.9472346
vn 0.08106396 -0.367037624 0.926667154
vn -0.671161056 -0.449231237 0.589689851
vn -0.97992 -0.174620822 0.09625136
vn 0.9937121 -0.09189473 0.06396528
vn 0.815494835 -0.1675854 0.5539705
vn 0.160901979 -0.2563691 0.9530926
vn 0.18029353 -0.33669886 0.9241905
vn -0.8067104 -0.4805553 0.343925685
vn -0.259511322 -0.469716549 0.8438129
vn -0.211339086 -0.484729648 0.848747849
vn 0.726641238 -0.2785282 0.62802434
vn -0.203101426 -0.0563662425 0.977533937
vn -0.203101426 -0.05636624 0.977534
vn -0.203101426 -0.056366235 0.977534
vn -0.0265426375 -0.2554444 0.966459334
vn -0.0265426375 -0.255444437 0.966459334
vn -0.0265426356 -0.2554444 0.966459334
vn 0.106963485 0.9941027 -0.017849721
vn -0.152082652 0.97782737 0.143960163
vn 0.40239197 0.8014224 -0.4424961
vn 0.8474244 0.521349251 0.100333653
vn 0.86641854 0.4685366 -0.17260462
vn 0.235386461 0.932405353 -0.2742507
vn 0.432081342 0.8933127 -0.123685621
vn 0.9564312 0.278828532 -0.0865677744
vn 0.988654 -0.0292082615 0.14734371
vn 0.9570461 0.1207767 0.263582617
vn 0.9879337 0.122024015 -0.09537924
vn 0.400222 0.549794555 -0.7331769
vn 0.8160529 0.176386222 -0.5504049
vn 0.793437362 0.175669432 -0.582749844
vn 0.9993935 -0.0169742126 -0.0304053258
vn 0.9994037 -0.0133614084 0.03183757
vn 0.8765336 0.159502551 -0.454145044
vn 0.220419675 0.545732558 -0.8084498
vn -0.0889426544 0.184525162 -0.978795
vn 0.299773335 0.2113467 -0.9303056
vn 0.7126416 0.0296809543 -0.700900137
vn -0.116696209 0.0642334 -0.991088331
vn -0.03777079 0.9946894 -0.0957412347
vn 0.07299822 0.840696037 0.536564469
vn 0.106963485 0.9941027 -0.017849721
vn 0.2907564 0.8562774 -0.4269072
vn 0.40239197 0.8014224 -0.4424961
vn -0.603323162 0.6616581 -0.445207477
vn -0.7306306 0.6728107 -0.116209961
vn -0.650269151 0.536705256 0.5376779
vn -0.9812582 0.192456633 -0.009631002
vn -0.9407827 0.1654419 0.2959001
vn -0.9280933 0.177999377 0.327045858
vn -0.522384048 0.8526691 -0.008385031
vn -0.5997505 0.559519768 0.5720462
vn -0.21875985 0.5294712 -0.8196367
vn 0.220419675 0.545732558 -0.8084498
vn -0.776858151 0.01745791 -0.6294336
vn -0.9271108 0.19263041 -0.321495175
vn -0.248806372 0.00430904469 -0.968543649
vn -0.469396383 0.06650856 -0.8804792
vn 0.196848914 0.09005655 -0.976289034
vn -0.7697495 -0.1469043 -0.6212123
vn -0.777978837 0.09558102 0.62097764
vn -0.986137152 -0.162015751 -0.0358379669
vn -0.9712693 -0.184851661 -0.149885833
vn 0.0539073758 -0.0350019857 -0.9979323
vn -0.0607962 -0.127809018 -0.98993367
vn -0.776858151 0.01745791 -0.6294336
vn 0.717789054 0.06920074 -0.6928132
vn 0.223792389 0.5094199 0.8309081
vn 0.318377554 0.8944922 0.313878119
vn -0.03229732 0.9059566 0.4221368
vn -0.280100077 0.43511048 0.8557002
vn -0.07795697 0.124135315 0.9891982
vn -0.271053731 0.239727929 0.9322341
vn 0.146505445 0.896018 0.419151336
vn 0.106963485 0.9941027 -0.017849721
vn -0.2677706 0.3019497 0.914945543
vn 0.351625055 0.619148552 0.7021502
vn 0.2564268 0.137628615 0.956715047
vn 0.0806018561 -0.04548299 0.9957081
vn 0.33167693 0.5215775 0.7860963
vn 0.49829793 0.186228991 0.8467691
vn 0.238609582 -0.228322834 0.9438931
vn 0.146505445 0.896018 0.419151336
vn 0.4076941 0.899195433 0.158849284
vn 0.106963485 0.9941027 -0.017849721
vn 0.33167693 0.5215775 0.7860963
vn 0.8308259 0.471867055 0.295075953
vn 0.848967969 0.06347691 0.524618
vn 0.49829793 0.186228991 0.8467691
vn 0.432081342 0.8933127 -0.123685621
vn 0.658223331 0.0820417255 0.748338938
vn 0.9564312 0.278828532 -0.0865677744
vn 0.8474244 0.521349251 0.100333653
vn 0.988654 -0.0292082615 0.14734371
vn 0.9707323 -0.0311179422 0.238139763
vn -0.730099 0.5821398 0.3578668
vn -0.423062235 0.469686985 0.7748629
vn -0.429119 0.897003233 -0.106028505
vn -0.03229732 0.9059566 0.4221368
vn -0.280100077 0.43511048 0.8557002
vn -0.912681162 0.158975735 0.37648347
vn -0.484470546 0.187380329 0.85450387
vn -0.7471704 -0.0538110547 0.6624506
vn -0.271053731 0.239727929 0.9322341
vn -0.2325708 0.0343035273 0.9719743
vn 0.106963485 0.9941027 -0.017849721
vn -0.522384048 0.8526691 -0.008385031
vn -0.5997505 0.559519768 0.5720462
vn -0.9280933 0.177999377 0.327045858
vn -0.9893365 -0.0280146953 0.142928436
vn 0.657895267 0.2123624 -0.7225483
vn 0.9840511 -0.127885878 -0.123647049
vn 0.9843797 -0.148294225 -0.094897
vn 0.792696536 0.102654867 -0.60091114
vn 0.0341483839 0.25940305 -0.965165257
vn 0.0202110987 0.401404232 -0.915677965
vn 0.0233811066 0.342005074 -0.93940717
vn 0.6694558 0.206067756 -0.7136981
vn 0.9767215 0.009588671 -0.214296758
vn 0.9747724 -0.0404186435 0.219511017
vn -0.770423949 0.159404486 -0.617282033
vn -0.6884229 0.3712659 -0.623085439
vn -0.997987568 -0.05854921 0.02434634
vn -0.9226769 -0.04503761 -0.38293466
vn -0.993897 0.0626433 0.09079936
vn -0.881571233 -0.04734169 0.469671071
vn -0.9899625 -0.117315374 -0.0788115561
vn -0.946592867 0.278104246 0.163156256
vn -0.644595444 0.178499267 -0.743394
vn 0.9192008 -0.162503287 0.358695716
vn -0.9210048 -0.360723734 0.147066817
vn 0.9653278 0.03222329 0.25904423
vn 0.778127432 0.428272218 -0.4594569
vn 0.4093494 0.480403364 -0.7756582
vn -0.3559577 0.5966322 -0.7192525
vn -0.7960234 0.335344583 -0.5038757
vn 0.8561169 -0.0280465987 0.516020536
vn 0.988654 -0.0292082615 0.14734371
vn -0.829895556 0.257678568 0.494848549
vn -0.881571233 -0.04734169 0.469671071
vn 0.988654 -0.0292082615 0.14734371
vn 0.7822862 -0.110711 0.6130019
vn 0.803109169 -0.117087752 0.5842141
vn 0.707079947 -0.08885459 0.7015289
vn 0.199950755 0.9549749 -0.219186291
vn 0.510368049 0.839461744 -0.186623842
vn 0.304187179 0.0496557429 0.951317251
vn 0.6042477 0.08786326 0.791937351
vn 0.07575272 -0.8300837 -0.5524695
vn 0.8935691 -0.09156859 0.439487725
vn 0.1451547 -0.7262192 -0.671964169
vn 0.009000024 0.03522041 0.999339044
vn 0.00247905147 0.9932273 -0.116161168
vn 0.9236764 -0.07871834 0.375000447
vn 0.150487289 -0.7591051 -0.6333349
vn 0.977863669 -0.007898396 0.2090938
vn -0.35443154 0.4385231 0.8258788
vn -0.07100085 0.9636698 0.25748688
vn 0.6935085 -0.125056386 0.7095117
vn -0.00122192851 -0.5404555 -0.8413717
vn 0.986146033 0.018214399 0.164876387
vn 0.08084688 -0.39105624 -0.916809
vn 0.9776001 0.183863446 0.102431707
vn -0.109188311 0.9092787 -0.4016095
vn -0.286884069 0.0517448373 0.9565668
vn -0.5076559 0.8430597 -0.177583218
vn -0.2275077 0.942106 -0.2463261
vn -0.584289551 0.09570539 0.8058822
vn -0.120786875 -0.746835053 -0.653947949
vn -0.0202449914 -0.877268 -0.479573727
vn -0.879659534 -0.123365454 0.4593257
vn 0.009000024 0.03522041 0.999339044
vn -0.210246548 -0.976874232 -0.0388995036
vn -0.6118243 -0.49075675 -0.6203458
vn 0.299741477 0.372493327 0.878295958
vn -0.0917766839 0.7012309 0.7070023
vn -0.9126821 0.157609954 0.37705493
vn -0.218503579 -0.6866427 -0.693381548
vn -0.9293185 -0.0524832234 0.3655306
vn -0.9620639 0.0233471673 0.271823347
vn 0.109526947 0.939176 0.325503
vn 0.381535023 0.478228658 0.79102993
vn -0.658655345 -0.0966499746 0.7462117
vn -0.159306124 -0.588463366 -0.792674243
vn -0.968878746 0.06660483 0.238406777
vn -0.119052805 -0.379309863 -0.9175786
vn -0.9743174 0.190765172 0.11964263
vn 0.108472139 0.908497453 -0.403566778
vn 0.906694651 0.159789756 0.390348673
vn -0.356131 0.8528798 0.381794125
vn -0.3998553 0.6694041 0.626110137
vn -0.486243039 0.5243117 0.6990457
vn 0.343277425 0.8569104 0.384532422
vn 0.4400962 0.5797084 0.6857503
vn 0.499168068 0.537038565 0.6800153
vn -0.225491822 0.313442916 0.9224462
vn 0.132837549 -0.888895154 -0.438428581
vn -0.5721394 -0.7826601 0.245152235
vn -0.657974064 0.611485541 0.4394947
vn -0.236685291 -0.849646151 -0.4712552
vn 0.2109607 -0.9767025 -0.039342422
vn 0.338429153 -0.937263668 -0.08368135
vn 0.199950755 0.9549749 -0.219186291
vn -0.9486256 -0.009277326 -0.316264719
vn -0.00408057449 -0.9980508 -0.06227316
vn -0.8786504 -0.06960953 -0.472364247
vn 0.150487289 -0.7591051 -0.6333349
vn -0.356131 0.8528798 0.381794125
vn -0.00122192851 -0.5404555 -0.8413717
vn -0.3998553 0.6694041 0.626110137
vn 0.08084688 -0.39105624 -0.916809
vn -0.486243039 0.5243117 0.6990457
vn -0.109188311 0.9092787 -0.4016095
vn -0.2275077 0.942106 -0.2463261
vn -0.346479237 -0.934842646 -0.07759776
vn -0.6118243 -0.49075675 -0.6203458
vn 0.299741477 0.372493327 0.878295958
vn 0.943855047 -0.0179775152 -0.3298703
vn -0.218503579 -0.6866427 -0.693381548
vn 0.343277425 0.8569104 0.384532422
vn -0.159306124 -0.588463366 -0.792674243
vn 0.4400962 0.5797084 0.6857503
vn 0.499168068 0.537038565 0.6800153
vn -0.119052805 -0.379309863 -0.9175786
vn 0.108472139 0.908497453 -0.403566778
vn 0.496401757 -0.80251807 0.3309834
vn 0.6585079 0.628004968 0.4147012
vn 0.877779245 0.08741804 0.471022
usemtl 9014001101_part_0_material_0
f 1/1/1 2/2/2 3/3/3
f 1/1/1 3/3/3 4/4/4
f 2/2/2 5/5/5 6/6/6
f 7/7/7 8/8/8 5/5/5
f 9/9/9 10/10/10 3/3/3
f 3/3/3 6/6/6 9/9/9
f 10/10/10 11/11/11 4/4/4
f 4/4/4 3/3/3 10/10/10
f 12/12/12 9/9/9 6/6/6
f 6/6/6 5/5/5 12/12/12
f 13/13/13 12/12/12 5/5/5
f 5/5/5 8/8/8 13/13/13
f 14/14/14 15/15/15 16/16/16
f 16/16/16 17/17/17 14/14/14
f 18/18/18 17/17/17 16/16/16
f 16/16/16 19/19/19 18/18/18
f 20/20/20 21/21/21 22/22/22
f 23/23/23 22/22/22 24/24/24
f 25/25/25 26/26/26 20/20/20
f 20/20/20 23/23/23 25/25/25
f 21/21/21 27/27/27 28/28/28
f 29/29/29 30/30/30 31/31/31
f 31/31/31 32/32/32 29/29/29
f 33/33/33 34/34/34 35/35/35
f 36/36/36 20/20/20 26/26/26
f 26/26/26 37/37/37 36/36/36
f 38/38/38 39/39/39 40/40/40
f 40/40/40 41/41/41 38/38/38
f 42/42/42 43/43/43 44/44/44
f 45/45/45 38/38/38 41/41/41
f 41/41/41 46/46/46 45/45/45
f 47/47/47 48/48/48 49/49/49
f 49/49/49 50/50/50 47/47/47
f 39/39/39 38/38/38 31/31/31
f 31/31/31 30/30/30 39/39/39
f 33/33/33 42/42/42 44/44/44
f 44/44/44 30/30/30 33/33/33
f 41/41/41 51/51/51 46/46/46
f 38/38/38 45/45/45 52/52/52
f 52/52/52 31/31/31 38/38/38
f 50/50/50 53/53/53 47/47/47
f 40/40/40 49/49/49 48/48/48
f 48/48/48 41/41/41 40/40/40
f 14/14/14 26/26/26 25/25/25
f 25/25/25 15/15/15 14/14/14
f 31/31/31 52/52/52 37/37/37
f 37/37/37 32/32/32 31/31/31
f 54/54/54 19/19/19 55/55/55
f 23/23/23 20/20/20 22/22/22
f 54/54/54 56/56/56 19/19/19
f 20/20/20 36/36/36 57/57/57
f 52/52/52 45/45/45 58/58/58
f 21/21/21 20/20/20 27/27/27
f 17/17/17 29/29/29 32/32/32
f 32/32/32 14/14/14 17/17/17
f 18/18/18 34/34/34 29/29/29
f 29/29/29 17/17/17 18/18/18
f 58/58/58 36/36/36 37/37/37
f 37/37/37 52/52/52 58/58/58
f 32/32/32 37/37/37 26/26/26
f 26/26/26 14/14/14 32/32/32
f 36/36/36 58/58/58 59/59/59
f 36/36/36 59/59/59 57/57/57
f 60/60/60 61/61/61 16/16/16
f 16/16/16 15/15/15 60/60/60
f 16/16/16 61/61/61 62/62/62
f 62/62/62 63/63/63 16/16/16
f 64/64/64 22/22/22 65/65/65
f 66/66/66 24/24/24 22/22/22
f 25/25/25 66/66/66 64/64/64
f 64/64/64 67/67/67 25/25/25
f 65/65/65 28/28/28 27/27/27
f 68/68/68 69/69/69 70/70/70
f 70/70/70 71/71/71 68/68/68
f 68/68/68 71/71/71 33/33/33
f 33/33/33 72/72/72 68/68/68
f 73/73/73 74/74/74 67/67/67
f 67/67/67 64/64/64 73/73/73
f 75/75/75 76/76/76 40/40/40
f 40/40/40 39/39/39 75/75/75
f 42/42/42 77/77/77 43/43/43
f 45/45/45 46/46/46 76/76/76
f 76/76/76 75/75/75 45/45/45
f 47/47/47 78/78/78 79/79/79
f 79/79/79 48/48/48 47/47/47
f 39/39/39 71/71/71 70/70/70
f 70/70/70 75/75/75 39/39/39
f 33/33/33 71/71/71 77/77/77
f 77/77/77 42/42/42 33/33/33
f 76/76/76 46/46/46 51/51/51
f 75/75/75 70/70/70 80/80/80
f 80/80/80 45/45/45 75/75/75
f 78/78/78 47/47/47 53/53/53
f 81/81/81 82/82/82 83/83/83
f 84/84/84 85/85/85 86/86/86
f 60/60/60 15/15/15 25/25/25
f 25/25/25 67/67/67 60/60/60
f 70/70/70 69/69/69 74/74/74
f 74/74/74 80/80/80 70/70/70
f 54/54/54 55/55/55 63/63/63
f 66/66/66 22/22/22 64/64/64
f 54/54/54 63/63/63 56/56/56
f 64/64/64 57/57/57 73/73/73
f 80/80/80 58/58/58 45/45/45
f 65/65/65 27/27/27 64/64/64
f 61/61/61 60/60/60 69/69/69
f 69/69/69 68/68/68 61/61/61
f 62/62/62 61/61/61 68/68/68
f 68/68/68 72/72/72 62/62/62
f 58/58/58 80/80/80 74/74/74
f 74/74/74 73/73/73 58/58/58
f 69/69/69 60/60/60 67/67/67
f 67/67/67 74/74/74 69/69/69
f 73/73/73 59/59/59 58/58/58
f 73/73/73 57/57/57 59/59/59
f 87/87/87 88/88/88 89/89/89
f 90/90/90 91/91/91 92/92/92
f 92/92/92 93/93/93 90/90/90
f 94/94/94 95/95/95 96/96/96
f 96/96/96 97/97/97 91/91/91
f 98/98/98 89/89/89 92/92/92
f 92/92/92 91/91/91 98/98/98
f 99/99/99 100/100/100 98/98/98
f 98/98/98 91/91/91 99/99/99
f 87/87/87 93/93/93 88/88/88
f 93/93/93 92/92/92 88/88/88
f 88/88/88 92/92/92 89/89/89
f 96/96/96 95/95/95 101/101/101
f 97/97/97 96/96/96 102/102/102
f 100/100/100 99/99/99 103/103/103
f 89/89/89 98/98/98 104/104/104
f 105/105/105 104/104/104 98/98/98
f 98/98/98 106/106/106 105/105/105
f 98/98/98 100/100/100 106/106/106
f 106/106/106 100/100/100 107/107/107
f 105/105/105 106/106/106 108/108/108
f 109/109/109 110/110/110 111/111/111
f 112/112/112 109/109/109 111/111/111
f 111/111/111 113/113/113 112/112/112
f 114/114/114 115/115/115 109/109/109
f 109/109/109 112/112/112 114/114/114
f 115/115/115 116/116/116 110/110/110
f 110/110/110 109/109/109 115/115/115
f 117/117/117 118/118/118 115/115/115
f 115/115/115 114/114/114 117/117/117
f 118/118/118 119/119/119 115/115/115
f 111/111/111 110/110/110 120/120/120
f 119/119/119 121/121/121 116/116/116
f 121/121/121 120/120/120 110/110/110
f 110/110/110 116/116/116 121/121/121
f 112/112/112 122/122/122 114/114/114
f 122/122/122 112/112/112 123/123/123
f 122/122/122 124/124/124 125/125/125
f 125/125/125 114/114/114 122/122/122
f 126/126/126 127/127/127 122/122/122
f 122/122/122 123/123/123 128/128/128
f 127/127/127 129/129/129 124/124/124
f 124/124/124 122/122/122 127/127/127
f 123/123/123 112/112/112 113/113/113
f 119/119/119 118/118/118 130/130/130
f 118/118/118 117/117/117 131/131/131
f 117/117/117 125/125/125 132/132/132
f 128/128/128 126/126/126 122/122/122
f 126/126/126 128/128/128 133/133/133
f 127/127/127 126/126/126 134/134/134
f 132/132/132 125/125/125 135/135/135
f 133/133/133 128/128/128 136/136/136
f 123/123/123 136/136/136 128/128/128
f 137/137/137 138/138/138 139/139/139
f 139/139/139 140/140/140 137/137/137
f 141/141/141 137/137/137 140/140/140
f 140/140/140 142/142/142 141/141/141
f 138/138/138 143/143/143 144/144/144
f 144/144/144 139/139/139 138/138/138
f 141/141/141 142/142/142 145/145/145
f 138/138/138 137/137/137 146/146/146
f 146/146/146 143/143/143 138/138/138
f 147/147/147 146/146/146 137/137/137
f 137/137/137 141/141/141 147/147/147
f 147/147/147 141/141/141 148/148/148
f 143/143/143 146/146/146 149/149/149
f 150/150/150 149/149/149 146/146/146
f 146/146/146 147/147/147 150/150/150
f 150/150/150 147/147/147 151/151/151
f 152/152/152 153/153/153 154/154/154
f 152/152/152 155/155/155 156/156/156
f 156/156/156 153/153/153 152/152/152
f 157/157/157 156/156/156 155/155/155
f 155/155/155 158/158/158 157/157/157
f 159/159/159 154/154/154 153/153/153
f 157/157/157 158/158/158 160/160/160
f 161/161/161 162/162/162 153/153/153
f 153/153/153 156/156/156 161/161/161
f 163/163/163 161/161/161 156/156/156
f 156/156/156 157/157/157 163/163/163
f 159/159/159 153/153/153 162/162/162
f 163/163/163 157/157/157 164/164/164
f 165/165/165 166/166/166 167/167/167
f 168/168/168 167/167/167 166/166/166
f 166/166/166 169/169/169 168/168/168
f 170/170/170 171/171/171 166/166/166
f 166/166/166 165/165/165 170/170/170
f 171/171/171 170/170/170 172/172/172
f 173/173/173 169/169/169 166/166/166
f 166/166/166 171/171/171 173/173/173
f 174/174/174 173/173/173 171/171/171
f 175/175/175 176/176/176 167/167/167
f 167/167/167 168/168/168 175/175/175
f 176/176/176 177/177/177 165/165/165
f 165/165/165 167/167/167 176/176/176
f 177/177/177 178/178/178 170/170/170
f 170/170/170 165/165/165 177/177/177
f 170/170/170 178/178/178 179/179/179
f 114/114/114 125/125/125 117/117/117
f 119/119/119 116/116/116 115/115/115
f 102/102/102 99/99/99 97/97/97
f 97/97/97 99/99/99 91/91/91
f 96/96/96 91/91/91 94/94/94
f 91/91/91 90/90/90 94/94/94
f 180/180/180 181/181/181 182/182/182
f 183/183/183 184/184/184 185/185/185
f 185/185/185 180/180/180 183/183/183
f 186/186/186 184/184/184 187/187/187
f 188/188/188 183/183/183 189/189/189
f 185/185/185 184/184/184 190/190/190
f 190/190/190 191/191/191 185/185/185
f 192/192/192 193/193/193 194/194/194
f 194/194/194 195/195/195 192/192/192
f 196/196/196 191/191/191 192/192/192
f 196/196/196 192/192/192 195/195/195
f 194/194/194 193/193/193 197/197/197
f 198/198/198 193/193/193 190/190/190
f 190/190/190 184/184/184 198/198/198
f 199/199/199 189/189/189 182/182/182
f 191/191/191 190/190/190 192/192/192
f 192/192/192 190/190/190 193/193/193
f 200/200/200 196/196/196 195/195/195
f 183/183/183 188/188/188 187/187/187
f 188/188/188 189/189/189 201/201/201
f 187/187/187 188/188/188 202/202/202
f 186/186/186 187/187/187 203/203/203
f 198/198/198 186/186/186 204/204/204
f 193/193/193 198/198/198 205/205/205
f 206/206/206 189/189/189 199/199/199
f 201/201/201 189/189/189 206/206/206
f 182/182/182 183/183/183 180/180/180
f 199/199/199 181/181/181 207/207/207
f 189/189/189 183/183/183 182/182/182
f 199/199/199 182/182/182 181/181/181
f 194/194/194 208/208/208 209/209/209
f 194/194/194 197/197/197 208/208/208
f 184/184/184 183/183/183 187/187/187
f 184/184/184 186/186/186 198/198/198
f 34/34/34 18/18/18 56/56/56
f 56/56/56 35/35/35 34/34/34
f 56/56/56 62/62/62 72/72/72
f 72/72/72 35/35/35 56/56/56
f 29/29/29 34/34/34 33/33/33
f 33/33/33 30/30/30 29/29/29
f 33/33/33 35/35/35 72/72/72
f 19/19/19 56/56/56 18/18/18
f 62/62/62 56/56/56 63/63/63
f 210/210/210 211/211/211 212/212/212
f 212/212/212 211/211/211 213/213/213
f 214/214/214 215/215/215 216/216/216
f 216/216/216 217/217/217 214/214/214
f 218/218/218 219/219/219 220/220/220
f 221/221/221 216/216/216 215/215/215
f 215/215/215 222/222/222 221/221/221
f 223/223/223 218/218/218 224/224/224
f 224/224/224 225/225/225 223/223/223
f 219/219/219 226/226/226 227/227/227
f 227/227/227 228/228/228 219/219/219
f 225/225/225 224/224/224 229/229/229
f 229/229/229 230/230/230 225/225/225
f 230/230/230 229/229/229 231/231/231
f 231/231/231 232/232/232 230/230/230
f 231/231/231 233/233/233 232/232/232
f 218/218/218 223/223/223 219/219/219
f 234/234/234 235/235/235 236/236/236
f 236/236/236 237/237/237 234/234/234
f 238/238/238 239/239/239 240/240/240
f 241/241/241 222/222/222 235/235/235
f 235/235/235 234/234/234 241/241/241
f 242/242/242 237/237/237 243/243/243
f 244/244/244 245/245/245 246/246/246
f 247/247/247 238/238/238 248/248/248
f 248/248/248 249/249/249 247/247/247
f 250/250/250 251/251/251 240/240/240
f 240/240/240 252/252/252 250/250/250
f 253/253/253 247/247/247 249/249/249
f 249/249/249 254/254/254 253/253/253
f 255/255/255 253/253/253 254/254/254
f 254/254/254 256/256/256 255/255/255
f 255/255/255 256/256/256 257/257/257
f 238/238/238 240/240/240 248/248/248
f 258/258/258 223/223/223 225/225/225
f 225/225/225 259/259/259 258/258/258
f 259/259/259 225/225/225 230/230/230
f 230/230/230 260/260/260 259/259/259
f 260/260/260 230/230/230 232/232/232
f 232/232/232 261/261/261 260/260/260
f 249/249/249 248/248/248 246/246/246
f 246/246/246 262/262/262 249/249/249
f 254/254/254 249/249/249 262/262/262
f 262/262/262 263/263/263 254/254/254
f 256/256/256 254/254/254 263/263/263
f 263/263/263 264/264/264 256/256/256
f 223/223/223 265/265/265 226/226/226
f 251/251/251 244/244/244 248/248/248
f 233/233/233 261/261/261 232/232/232
f 256/256/256 264/264/264 257/257/257
f 220/220/220 219/219/219 228/228/228
f 228/228/228 266/266/266 220/220/220
f 266/266/266 267/267/267 268/268/268
f 268/268/268 227/227/227 266/266/266
f 252/252/252 240/240/240 239/239/239
f 239/239/239 269/269/269 252/252/252
f 223/223/223 226/226/226 219/219/219
f 240/240/240 251/251/251 248/248/248
f 270/270/270 271/271/271 215/215/215
f 215/215/215 272/272/272 270/270/270
f 273/273/273 218/218/218 226/226/226
f 226/226/226 265/265/265 273/273/273
f 274/274/274 222/222/222 215/215/215
f 215/215/215 271/271/271 274/274/274
f 272/272/272 275/275/275 265/265/265
f 265/265/265 270/270/270 272/272/272
f 265/265/265 275/275/275 273/273/273
f 276/276/276 218/218/218 273/273/273
f 273/273/273 277/277/277 276/276/276
f 227/227/227 226/226/226 220/220/220
f 220/220/220 266/266/266 227/227/227
f 278/278/278 276/276/276 277/277/277
f 277/277/277 279/279/279 278/278/278
f 280/280/280 278/278/278 279/279/279
f 279/279/279 281/281/281 280/280/280
f 280/280/280 281/281/281 282/282/282
f 242/242/242 283/283/283 235/235/235
f 235/235/235 284/284/284 242/242/242
f 238/238/238 251/251/251 239/239/239
f 274/274/274 284/284/284 235/235/235
f 235/235/235 222/222/222 274/274/274
f 285/285/285 245/245/245 283/283/283
f 283/283/283 242/242/242 285/285/285
f 286/286/286 287/287/287 245/245/245
f 287/287/287 238/238/238 288/288/288
f 288/288/288 289/289/289 287/287/287
f 239/239/239 251/251/251 250/250/250
f 250/250/250 269/269/269 239/239/239
f 289/289/289 288/288/288 290/290/290
f 290/290/290 291/291/291 289/289/289
f 292/292/292 291/291/291 290/290/290
f 290/290/290 293/293/293 292/292/292
f 293/293/293 294/294/294 292/292/292
f 295/295/295 252/252/252 269/269/269
f 267/267/267 228/228/228 268/268/268
f 296/296/296 295/295/295 269/269/269
f 269/269/269 250/250/250 296/296/296
f 244/244/244 246/246/246 248/248/248
f 223/223/223 258/258/258 265/265/265
f 270/270/270 217/217/217 216/216/216
f 216/216/216 271/271/271 270/270/270
f 271/271/271 216/216/216 221/221/221
f 221/221/221 274/274/274 271/271/271
f 297/297/297 265/265/265 258/258/258
f 234/234/234 237/237/237 242/242/242
f 242/242/242 284/284/284 234/234/234
f 241/241/241 234/234/234 284/284/284
f 284/284/284 274/274/274 241/241/241
f 237/237/237 245/245/245 243/243/243
f 275/275/275 214/214/214 217/217/217
f 237/237/237 236/236/236 245/245/245
f 217/217/217 270/270/270 265/265/265
f 297/297/297 217/217/217 265/265/265
f 218/218/218 220/220/220 226/226/226
f 251/251/251 238/238/238 287/287/287
f 287/287/287 286/286/286 251/251/251
f 267/267/267 266/266/266 228/228/228
f 228/228/228 227/227/227 268/268/268
f 295/295/295 296/296/296 252/252/252
f 296/296/296 250/250/250 252/252/252
f 2/2/2 6/6/6 3/3/3
f 2/2/2 7/7/7 5/5/5
