mtllib 9SHADO0004.mtl
o 9SHADO0004_part_0
v 0.210259065 0.129057646 0.216953218
v 0.199736267 0.150400639 0.137407973
v 0.165153533 0.0886662 0.213219255
v 0.149904668 -0.0235799551 0.298902452
v 0.377959371 -0.02075851 0.2621625
v 0.3440202 -0.0146466494 0.349729419
v 0.199588984 -0.0165774822 0.371436417
v 0.311441123 0.0677804947 0.0469361655
v 0.295633137 0.0681045055 -0.0826818645
v 0.2768425 0.166524768 -0.0356269032
v 0.220451921 0.0360173 -0.148476675
v 0.139061943 0.0347383022 -0.116483852
v 0.1302262 0.07102251 -0.117440559
v 0.1302262 0.07102251 -0.117440559
v 0.216113925 0.07238281 -0.150077879
v 0.220451921 0.0360173 -0.148476675
v 0.139061943 0.0347383022 -0.116483852
v 0.129896373 0.0301861763 -0.0238491
v 0.121516719 0.06913066 -0.02059324
v 0.121516719 0.06913066 -0.02059324
v 0.1302262 0.07102251 -0.117440559
v 0.139061943 0.0347383022 -0.116483852
v 0.1302262 0.07102251 -0.117440559
v 0.1405571 0.167079091 -0.0851852
v 0.224288642 0.176304817 -0.119856119
v 0.224288642 0.176304817 -0.119856119
v 0.216113925 0.07238281 -0.150077879
v 0.1302262 0.07102251 -0.117440559
v 0.271714866 0.07649624 0.362811655
v 0.275931358 0.05491793 0.387891144
v 0.342498869 0.04858136 0.344568849
v 0.357632548 0.0352596045 0.186390743
v 0.317172319 0.03457737 0.046728652
v 0.311441123 0.0677804947 0.0469361655
v 0.311441123 0.0677804947 0.0469361655
v 0.334846258 0.0773443 0.191504061
v 0.357632548 0.0352596045 0.186390743
v 0.311441123 0.0677804947 0.0469361655
v 0.2768425 0.166524768 -0.0356269032
v 0.304623485 0.121595263 0.07427046
v 0.160990447 -0.02246654 0.196035057
v 0.162595 -0.020211935 0.0803343356
v 0.3160503 -0.0171592236 0.04336864
v 0.3160503 -0.0171592236 0.04336864
v 0.361081034 -0.0201368332 0.178900272
v 0.160990447 -0.02246654 0.196035057
v 0.162550569 0.17211771 0.0601447336
v 0.137086481 0.157455683 -0.011490155
v 0.121516719 0.06913066 -0.02059324
v 0.121516719 0.06913066 -0.02059324
v 0.153779671 0.0904715061 0.107172549
v 0.162550569 0.17211771 0.0601447336
v 0.121516719 0.06913066 -0.02059324
v 0.137086481 0.157455683 -0.011490155
v 0.1405571 0.167079091 -0.0851852
v 0.1405571 0.167079091 -0.0851852
v 0.1302262 0.07102251 -0.117440559
v 0.121516719 0.06913066 -0.02059324
v 0.317172319 0.03457737 0.046728652
v 0.29516536 0.03622043 -0.08336726
v 0.295633137 0.0681045055 -0.0826818645
v 0.295633137 0.0681045055 -0.0826818645
v 0.311441123 0.0677804947 0.0469361655
v 0.317172319 0.03457737 0.046728652
v 0.153779671 0.0904715061 0.107172549
v 0.153796673 0.0288097858 0.08911283
v 0.154989779 0.0329148769 0.202677846
v 0.154989779 0.0329148769 0.202677846
v 0.165153533 0.0886662 0.213219255
v 0.153779671 0.0904715061 0.107172549
v 0.1377551 -0.0217200518 -0.02527307
v 0.293858975 -0.01670897 -0.08110294
v 0.3160503 -0.0171592236 0.04336864
v 0.3160503 -0.0171592236 0.04336864
v 0.162595 -0.020211935 0.0803343356
v 0.1377551 -0.0217200518 -0.02527307
v 0.129896373 0.0301861763 -0.0238491
v 0.153796673 0.0288097858 0.08911283
v 0.153779671 0.0904715061 0.107172549
v 0.153779671 0.0904715061 0.107172549
v 0.121516719 0.06913066 -0.02059324
v 0.129896373 0.0301861763 -0.0238491
v 0.275931358 0.05491793 0.387891144
v 0.271714866 0.07649624 0.362811655
v 0.201721489 0.047231555 0.36806497
v 0.2245627 -0.01825869 -0.1432208
v 0.146275118 -0.0194958448 -0.113164648
v 0.139061943 0.0347383022 -0.116483852
v 0.139061943 0.0347383022 -0.116483852
v 0.220451921 0.0360173 -0.148476675
v 0.2245627 -0.01825869 -0.1432208
v 0.146275118 -0.0194958448 -0.113164648
v 0.1377551 -0.0217200518 -0.02527307
v 0.129896373 0.0301861763 -0.0238491
v 0.129896373 0.0301861763 -0.0238491
v 0.139061943 0.0347383022 -0.116483852
v 0.146275118 -0.0194958448 -0.113164648
v 0.1377551 -0.0217200518 -0.02527307
v 0.162595 -0.020211935 0.0803343356
v 0.153796673 0.0288097858 0.08911283
v 0.153796673 0.0288097858 0.08911283
v 0.129896373 0.0301861763 -0.0238491
v 0.1377551 -0.0217200518 -0.02527307
v 0.153796673 0.0288097858 0.08911283
v 0.162595 -0.020211935 0.0803343356
v 0.160990447 -0.02246654 0.196035057
v 0.160990447 -0.02246654 0.196035057
v 0.154989779 0.0329148769 0.202677846
v 0.153796673 0.0288097858 0.08911283
v 0.278607726 -0.006762624 0.39386183
v 0.275931358 0.05491793 0.387891144
v 0.201721489 0.047231555 0.36806497
v 0.201721489 0.047231555 0.36806497
v 0.199588984 -0.0165774822 0.371436417
v 0.278607726 -0.006762624 0.39386183
v 0.36855498 0.03923261 0.2714909
v 0.342498869 0.04858136 0.344568849
v 0.3440202 -0.0146466494 0.349729419
v 0.3440202 -0.0146466494 0.349729419
v 0.377959371 -0.02075851 0.2621625
v 0.36855498 0.03923261 0.2714909
v 0.361081034 -0.0201368332 0.178900272
v 0.3160503 -0.0171592236 0.04336864
v 0.317172319 0.03457737 0.046728652
v 0.317172319 0.03457737 0.046728652
v 0.357632548 0.0352596045 0.186390743
v 0.361081034 -0.0201368332 0.178900272
v 0.3160503 -0.0171592236 0.04336864
v 0.293858975 -0.01670897 -0.08110294
v 0.29516536 0.03622043 -0.08336726
v 0.29516536 0.03622043 -0.08336726
v 0.317172319 0.03457737 0.046728652
v 0.3160503 -0.0171592236 0.04336864
v 0.2768425 0.166524768 -0.0356269032
v 0.295633137 0.0681045055 -0.0826818645
v 0.224288642 0.176304817 -0.119856119
v 0.295633137 0.0681045055 -0.0826818645
v 0.29516536 0.03622043 -0.08336726
v 0.220451921 0.0360173 -0.148476675
v 0.220451921 0.0360173 -0.148476675
v 0.216113925 0.07238281 -0.150077879
v 0.295633137 0.0681045055 -0.0826818645
v 0.29516536 0.03622043 -0.08336726
v 0.293858975 -0.01670897 -0.08110294
v 0.2245627 -0.01825869 -0.1432208
v 0.2245627 -0.01825869 -0.1432208
v 0.220451921 0.0360173 -0.148476675
v 0.29516536 0.03622043 -0.08336726
v 0.199736267 0.150400639 0.137407973
v 0.162550569 0.17211771 0.0601447336
v 0.153779671 0.0904715061 0.107172549
v 0.304623485 0.121595263 0.07427046
v 0.266223 0.151019573 0.12455672
v 0.334846258 0.0773443 0.191504061
v 0.3496443 0.0628221 0.2829228
v 0.280350655 0.122139335 0.206504345
v 0.262849629 0.0898489952 0.310682654
v 0.3496443 0.0628221 0.2829228
v 0.36855498 0.03923261 0.2714909
v 0.357632548 0.0352596045 0.186390743
v 0.357632548 0.0352596045 0.186390743
v 0.334846258 0.0773443 0.191504061
v 0.3496443 0.0628221 0.2829228
v 0.36855498 0.03923261 0.2714909
v 0.377959371 -0.02075851 0.2621625
v 0.361081034 -0.0201368332 0.178900272
v 0.361081034 -0.0201368332 0.178900272
v 0.357632548 0.0352596045 0.186390743
v 0.36855498 0.03923261 0.2714909
v 0.377959371 -0.02075851 0.2621625
v 0.149904668 -0.0235799551 0.298902452
v 0.160990447 -0.02246654 0.196035057
v 0.361081034 -0.0201368332 0.178900272
v 0.154989779 0.0329148769 0.202677846
v 0.160990447 -0.02246654 0.196035057
v 0.149904668 -0.0235799551 0.298902452
v 0.149904668 -0.0235799551 0.298902452
v 0.15680185 0.03406799 0.302416921
v 0.154989779 0.0329148769 0.202677846
v 0.165153533 0.0886662 0.213219255
v 0.154989779 0.0329148769 0.202677846
v 0.15680185 0.03406799 0.302416921
v 0.15680185 0.03406799 0.302416921
v 0.1859796 0.07263219 0.3058635
v 0.165153533 0.0886662 0.213219255
v 0.210259065 0.129057646 0.216953218
v 0.1859796 0.07263219 0.3058635
v 0.262849629 0.0898489952 0.310682654
v 0.191588253 0.17205584 0.10715729
v 0.199736267 0.150400639 0.137407973
v 0.231557861 0.183583975 0.11420688
v 0.280350655 0.122139335 0.206504345
v 0.266223 0.151019573 0.12455672
v 0.199736267 0.150400639 0.137407973
v 0.199736267 0.150400639 0.137407973
v 0.210259065 0.129057646 0.216953218
v 0.280350655 0.122139335 0.206504345
v 0.191588253 0.17205584 0.10715729
v 0.231557861 0.183583975 0.11420688
v 0.227565736 0.2531104 0.09051782
v 0.227565736 0.2531104 0.09051782
v 0.176391855 0.243763566 0.08855596
v 0.191588253 0.17205584 0.10715729
v 0.266223 0.151019573 0.12455672
v 0.304623485 0.121595263 0.07427046
v 0.2684045 0.17177403 0.0861031562
v 0.140945673 0.232254267 -0.0807551742
v 0.221272439 0.2375912 -0.113991283
v 0.224288642 0.176304817 -0.119856119
v 0.224288642 0.176304817 -0.119856119
v 0.1405571 0.167079091 -0.0851852
v 0.140945673 0.232254267 -0.0807551742
v 0.159237623 0.225889564 0.0625005662
v 0.1322701 0.226009369 -0.00304672867
v 0.137086481 0.157455683 -0.011490155
v 0.137086481 0.157455683 -0.011490155
v 0.162550569 0.17211771 0.0601447336
v 0.159237623 0.225889564 0.0625005662
v 0.1322701 0.226009369 -0.00304672867
v 0.140945673 0.232254267 -0.0807551742
v 0.1405571 0.167079091 -0.0851852
v 0.1405571 0.167079091 -0.0851852
v 0.137086481 0.157455683 -0.011490155
v 0.1322701 0.226009369 -0.00304672867
v 0.221272439 0.2375912 -0.113991283
v 0.2705861 0.232274055 -0.0342909843
v 0.2768425 0.166524768 -0.0356269032
v 0.224288642 0.176304817 -0.119856119
v 0.2705861 0.232274055 -0.0342909843
v 0.282042444 0.2300759 0.0368347876
v 0.285720319 0.178799868 0.04309794
v 0.285720319 0.178799868 0.04309794
v 0.2768425 0.166524768 -0.0356269032
v 0.2705861 0.232274055 -0.0342909843
v 0.1377551 -0.0217200518 -0.02527307
v 0.146275118 -0.0194958448 -0.113164648
v 0.2245627 -0.01825869 -0.1432208
v 0.2245627 -0.01825869 -0.1432208
v 0.293858975 -0.01670897 -0.08110294
v 0.1377551 -0.0217200518 -0.02527307
v 0.311441123 0.0677804947 0.0469361655
v 0.304623485 0.121595263 0.07427046
v 0.334846258 0.0773443 0.191504061
v 0.304623485 0.121595263 0.07427046
v 0.2768425 0.166524768 -0.0356269032
v 0.285720319 0.178799868 0.04309794
v 0.2684045 0.17177403 0.0861031562
v 0.285720319 0.178799868 0.04309794
v 0.282042444 0.2300759 0.0368347876
v 0.282042444 0.2300759 0.0368347876
v 0.261499822 0.229941368 0.0673311651
v 0.2684045 0.17177403 0.0861031562
v 0.159237623 0.225889564 0.0625005662
v 0.162550569 0.17211771 0.0601447336
v 0.191588253 0.17205584 0.10715729
v 0.191588253 0.17205584 0.10715729
v 0.183903828 0.230905771 0.08611676
v 0.159237623 0.225889564 0.0625005662
v 0.210259065 0.129057646 0.216953218
v 0.165153533 0.0886662 0.213219255
v 0.1859796 0.07263219 0.3058635
v 0.295633137 0.0681045055 -0.0826818645
v 0.216113925 0.07238281 -0.150077879
v 0.224288642 0.176304817 -0.119856119
v 0.342498869 0.04858136 0.344568849
v 0.36855498 0.03923261 0.2714909
v 0.3496443 0.0628221 0.2829228
v 0.342498869 0.04858136 0.344568849
v 0.275931358 0.05491793 0.387891144
v 0.278607726 -0.006762624 0.39386183
v 0.278607726 -0.006762624 0.39386183
v 0.3440202 -0.0146466494 0.349729419
v 0.342498869 0.04858136 0.344568849
v 0.1859796 0.07263219 0.3058635
v 0.15680185 0.03406799 0.302416921
v 0.201721489 0.047231555 0.36806497
v 0.15680185 0.03406799 0.302416921
v 0.149904668 -0.0235799551 0.298902452
v 0.199588984 -0.0165774822 0.371436417
v 0.199588984 -0.0165774822 0.371436417
v 0.201721489 0.047231555 0.36806497
v 0.15680185 0.03406799 0.302416921
v 0.3440202 -0.0146466494 0.349729419
v 0.278607726 -0.006762624 0.39386183
v 0.199588984 -0.0165774822 0.371436417
v 0.199736267 0.150400639 0.137407973
v 0.153779671 0.0904715061 0.107172549
v 0.165153533 0.0886662 0.213219255
v 0.266223 0.151019573 0.12455672
v 0.280350655 0.122139335 0.206504345
v 0.334846258 0.0773443 0.191504061
v 0.304623485 0.121595263 0.07427046
v 0.285720319 0.178799868 0.04309794
v 0.2684045 0.17177403 0.0861031562
v 0.199736267 0.150400639 0.137407973
v 0.191588253 0.17205584 0.10715729
v 0.162550569 0.17211771 0.0601447336
v 0.227565736 0.2531104 0.09051782
v 0.231557861 0.183583975 0.11420688
v 0.2684045 0.17177403 0.0861031562
v 0.2684045 0.17177403 0.0861031562
v 0.272235781 0.2444191 0.0558188967
v 0.227565736 0.2531104 0.09051782
v 0.266223 0.151019573 0.12455672
v 0.2684045 0.17177403 0.0861031562
v 0.231557861 0.183583975 0.11420688
v 0.231557861 0.183583975 0.11420688
v 0.199736267 0.150400639 0.137407973
v 0.266223 0.151019573 0.12455672
v 0.262849629 0.0898489952 0.310682654
v 0.280350655 0.122139335 0.206504345
v 0.210259065 0.129057646 0.216953218
v 0.342498869 0.04858136 0.344568849
v 0.3496443 0.0628221 0.2829228
v 0.271714866 0.07649624 0.362811655
v 0.271714866 0.07649624 0.362811655
v 0.1859796 0.07263219 0.3058635
v 0.201721489 0.047231555 0.36806497
v 0.3496443 0.0628221 0.2829228
v 0.262849629 0.0898489952 0.310682654
v 0.271714866 0.07649624 0.362811655
v 0.271714866 0.07649624 0.362811655
v 0.262849629 0.0898489952 0.310682654
v 0.1859796 0.07263219 0.3058635
v 0.3496443 0.0628221 0.2829228
v 0.334846258 0.0773443 0.191504061
v 0.280350655 0.122139335 0.206504345
v -0.223933011 0.126064658 0.144601852
v -0.178782716 0.0856263638 0.14212814
v -0.210147351 0.147439957 0.0655822
v -0.167302758 -0.0279400349 0.226651579
v -0.219943613 -0.0219173431 0.2971598
v -0.363345176 -0.0193123817 0.2695108
v -0.393629819 -0.0240168571 0.180528253
v -0.3180761 0.0676105 -0.0303799957
v -0.2799414 0.167075574 -0.11035867
v -0.296842635 0.07000768 -0.159949869
v -0.219073683 0.0388736725 -0.222726628
v -0.214554444 0.07542944 -0.223696366
v -0.130151331 0.07311463 -0.187406659
v -0.130151331 0.07311463 -0.187406659
v -0.139107883 0.0367972851 -0.187407
v -0.219073683 0.0388736725 -0.222726628
v -0.139107883 0.0367972851 -0.187407
v -0.130151331 0.07311463 -0.187406659
v -0.125525579 0.06942189 -0.0901544541
v -0.125525579 0.06942189 -0.0901544541
v -0.133826941 0.0305994749 -0.09433029
v -0.139107883 0.0367972851 -0.187407
v -0.130151331 0.07311463 -0.187406659
v -0.214554444 0.07542944 -0.223696366
v -0.223693714 0.17919302 -0.191793144
v -0.223693714 0.17919302 -0.191793144
v -0.1416332 0.168585777 -0.15377216
v -0.130151331 0.07311463 -0.187406659
v -0.2914849 0.0714486837 0.2869678
v -0.3614995 0.043982625 0.2653809
v -0.296777159 0.0495033264 0.311519235
v -0.3700755 0.0330929756 0.1065267
v -0.347447067 0.07504082 0.113221079
v -0.3180761 0.0676105 -0.0303799957
v -0.3180761 0.0676105 -0.0303799957
v -0.323852271 0.03442812 -0.03133055
v -0.3700755 0.0330929756 0.1065267
v -0.3180761 0.0676105 -0.0303799957
v -0.312304467 0.120988727 -0.001970321
v -0.2799414 0.167075574 -0.11035867
v -0.174105644 -0.0252431631 0.123441741
v -0.3733077 -0.0221754313 0.09805718
v -0.322682917 -0.0172542334 -0.03542831
v -0.322682917 -0.0172542334 -0.03542831
v -0.170900583 -0.02123332 0.0078218095
v -0.174105644 -0.0252431631 0.123441741
v -0.169934064 0.169353724 -0.009597484
v -0.163110465 0.08832848 0.0362938978
v -0.125525579 0.06942189 -0.0901544541
v -0.125525579 0.06942189 -0.0901544541
v -0.141396523 0.156762123 -0.0803906247
v -0.169934064 0.169353724 -0.009597484
v -0.125525579 0.06942189 -0.0901544541
v -0.130151331 0.07311463 -0.187406659
v -0.1416332 0.168585777 -0.15377216
v -0.1416332 0.168585777 -0.15377216
v -0.141396523 0.156762123 -0.0803906247
v -0.125525579 0.06942189 -0.0901544541
v -0.323852271 0.03442812 -0.03133055
v -0.3180761 0.0676105 -0.0303799957
v -0.296842635 0.07000768 -0.159949869
v -0.296842635 0.07000768 -0.159949869
v -0.296452045 0.03807211 -0.160728678
v -0.323852271 0.03442812 -0.03133055
v -0.163110465 0.08832848 0.0362938978
v -0.178782716 0.0856263638 0.14212814
v -0.16828835 0.0300169 0.131170049
v -0.16828835 0.0300169 0.131170049
v -0.162387982 0.02762866 0.0177030228
v -0.163110465 0.08832848 0.0362938978
v -0.1416997 -0.0212022066 -0.09667471
v -0.170900583 -0.02123332 0.0078218095
v -0.322682917 -0.0172542334 -0.03542831
v -0.322682917 -0.0172542334 -0.03542831
v -0.295362025 -0.01490891 -0.159127608
v -0.1416997 -0.0212022066 -0.09667471
v -0.133826941 0.0305994749 -0.09433029
v -0.125525579 0.06942189 -0.0901544541
v -0.163110465 0.08832848 0.0362938978
v -0.163110465 0.08832848 0.0362938978
v -0.162387982 0.02762866 0.0177030228
v -0.133826941 0.0305994749 -0.09433029
v -0.296777159 0.0495033264 0.311519235
v -0.221821725 0.04194033 0.294674546
v -0.2914849 0.0714486837 0.2869678
v -0.2235286 -0.0157481432 -0.2180562
v -0.219073683 0.0388736725 -0.222726628
v -0.139107883 0.0367972851 -0.187407
v -0.139107883 0.0367972851 -0.187407
v -0.14656058 -0.0175403357 -0.185096636
v -0.2235286 -0.0157481432 -0.2180562
v -0.14656058 -0.0175403357 -0.185096636
v -0.139107883 0.0367972851 -0.187407
v -0.133826941 0.0305994749 -0.09433029
v -0.133826941 0.0305994749 -0.09433029
v -0.1416997 -0.0212022066 -0.09667471
v -0.14656058 -0.0175403357 -0.185096636
v -0.1416997 -0.0212022066 -0.09667471
v -0.133826941 0.0305994749 -0.09433029
v -0.162387982 0.02762866 0.0177030228
v -0.162387982 0.02762866 0.0177030228
v -0.170900583 -0.02123332 0.0078218095
v -0.1416997 -0.0212022066 -0.09667471
v -0.162387982 0.02762866 0.0177030228
v -0.16828835 0.0300169 0.131170049
v -0.174105644 -0.0252431631 0.123441741
v -0.174105644 -0.0252431631 0.123441741
v -0.170900583 -0.02123332 0.0078218095
v -0.162387982 0.02762866 0.0177030228
v -0.299807847 -0.012254 0.316434115
v -0.219943613 -0.0219173431 0.2971598
v -0.221821725 0.04194033 0.294674546
v -0.221821725 0.04194033 0.294674546
v -0.296777159 0.0495033264 0.311519235
v -0.299807847 -0.012254 0.316434115
v -0.3845151 0.0358034372 0.191150934
v -0.393629819 -0.0240168571 0.180528253
v -0.363345176 -0.0193123817 0.2695108
v -0.363345176 -0.0193123817 0.2695108
v -0.3614995 0.043982625 0.2653809
v -0.3845151 0.0358034372 0.191150934
v -0.3733077 -0.0221754313 0.09805718
v -0.3700755 0.0330929756 0.1065267
v -0.323852271 0.03442812 -0.03133055
v -0.323852271 0.03442812 -0.03133055
v -0.322682917 -0.0172542334 -0.03542831
v -0.3733077 -0.0221754313 0.09805718
v -0.322682917 -0.0172542334 -0.03542831
v -0.323852271 0.03442812 -0.03133055
v -0.296452045 0.03807211 -0.160728678
v -0.296452045 0.03807211 -0.160728678
v -0.295362025 -0.01490891 -0.159127608
v -0.322682917 -0.0172542334 -0.03542831
v -0.2799414 0.167075574 -0.11035867
v -0.223693714 0.17919302 -0.191793144
v -0.296842635 0.07000768 -0.159949869
v -0.296842635 0.07000768 -0.159949869
v -0.214554444 0.07542944 -0.223696366
v -0.219073683 0.0388736725 -0.222726628
v -0.219073683 0.0388736725 -0.222726628
v -0.296452045 0.03807211 -0.160728678
v -0.296842635 0.07000768 -0.159949869
v -0.296452045 0.03807211 -0.160728678
v -0.219073683 0.0388736725 -0.222726628
v -0.2235286 -0.0157481432 -0.2180562
v -0.2235286 -0.0157481432 -0.2180562
v -0.295362025 -0.01490891 -0.159127608
v -0.296452045 0.03807211 -0.160728678
v -0.210147351 0.147439957 0.0655822
v -0.163110465 0.08832848 0.0362938978
v -0.169934064 0.169353724 -0.009597484
v -0.312304467 0.120988727 -0.001970321
v -0.347447067 0.07504082 0.113221079
v -0.27697733 0.1453743 0.048992645
v -0.3660539 0.0591719151 0.2037155
v -0.280439228 0.08556771 0.235460758
v -0.293542475 0.11947298 0.131149709
v -0.3660539 0.0591719151 0.2037155
v -0.347447067 0.07504082 0.113221079
v -0.3700755 0.0330929756 0.1065267
v -0.3700755 0.0330929756 0.1065267
v -0.3845151 0.0358034372 0.191150934
v -0.3660539 0.0591719151 0.2037155
v -0.3845151 0.0358034372 0.191150934
v -0.3700755 0.0330929756 0.1065267
v -0.3733077 -0.0221754313 0.09805718
v -0.3733077 -0.0221754313 0.09805718
v -0.393629819 -0.0240168571 0.180528253
v -0.3845151 0.0358034372 0.191150934
v -0.393629819 -0.0240168571 0.180528253
v -0.3733077 -0.0221754313 0.09805718
v -0.174105644 -0.0252431631 0.123441741
v -0.167302758 -0.0279400349 0.226651579
v -0.16828835 0.0300169 0.131170049
v -0.174238265 0.0296646357 0.230754048
v -0.167302758 -0.0279400349 0.226651579
v -0.167302758 -0.0279400349 0.226651579
v -0.174105644 -0.0252431631 0.123441741
v -0.16828835 0.0300169 0.131170049
v -0.178782716 0.0856263638 0.14212814
v -0.203465879 0.0682418346 0.233573616
v -0.174238265 0.0296646357 0.230754048
v -0.174238265 0.0296646357 0.230754048
v -0.16828835 0.0300169 0.131170049
v -0.178782716 0.0856263638 0.14212814
v -0.223933011 0.126064658 0.144601852
v -0.280439228 0.08556771 0.235460758
v -0.203465879 0.0682418346 0.233573616
v -0.200703591 0.169481456 0.03615163
v -0.240797684 0.181002438 0.04174869
v -0.210147351 0.147439957 0.0655822
v -0.293542475 0.11947298 0.131149709
v -0.223933011 0.126064658 0.144601852
v -0.210147351 0.147439957 0.0655822
v -0.210147351 0.147439957 0.0655822
v -0.27697733 0.1453743 0.048992645
v -0.293542475 0.11947298 0.131149709
v -0.200703591 0.169481456 0.03615163
v -0.184857756 0.2401129 0.0202950351
v -0.236047626 0.249584079 0.0202786736
v -0.236047626 0.249584079 0.0202786736
v -0.240797684 0.181002438 0.04174869
v -0.200703591 0.169481456 0.03615163
v -0.27697733 0.1453743 0.048992645
v -0.276682 0.1695075 0.0117840879
v -0.312304467 0.120988727 -0.001970321
v -0.1420761 0.233563423 -0.147420555
v -0.1416332 0.168585777 -0.15377216
v -0.223693714 0.17919302 -0.191793144
v -0.223693714 0.17919302 -0.191793144
v -0.220860839 0.240196347 -0.183961108
v -0.1420761 0.233563423 -0.147420555
v -0.1666188 0.22297734 -0.00548362359
v -0.169934064 0.169353724 -0.009597484
v -0.141396523 0.156762123 -0.0803906247
v -0.141396523 0.156762123 -0.0803906247
v -0.13681531 0.224961281 -0.0696919858
v -0.1666188 0.22297734 -0.00548362359
v -0.13681531 0.224961281 -0.0696919858
v -0.141396523 0.156762123 -0.0803906247
v -0.1416332 0.168585777 -0.15377216
v -0.1416332 0.168585777 -0.15377216
v -0.1420761 0.233563423 -0.147420555
v -0.13681531 0.224961281 -0.0696919858
v -0.220860839 0.240196347 -0.183961108
v -0.223693714 0.17919302 -0.191793144
v -0.2799414 0.167075574 -0.11035867
v -0.27361688 0.2326814 -0.1067725
v -0.27361688 0.2326814 -0.1067725
v -0.2799414 0.167075574 -0.11035867
v -0.292223543 0.177007318 -0.0318324044
v -0.292223543 0.177007318 -0.0318324044
v -0.288172364 0.228395224 -0.0363772139
v -0.27361688 0.2326814 -0.1067725
v -0.1416997 -0.0212022066 -0.09667471
v -0.295362025 -0.01490891 -0.159127608
v -0.2235286 -0.0157481432 -0.2180562
v -0.2235286 -0.0157481432 -0.2180562
v -0.14656058 -0.0175403357 -0.185096636
v -0.1416997 -0.0212022066 -0.09667471
v -0.3180761 0.0676105 -0.0303799957
v -0.347447067 0.07504082 0.113221079
v -0.312304467 0.120988727 -0.001970321
v -0.312304467 0.120988727 -0.001970321
v -0.292223543 0.177007318 -0.0318324044
v -0.2799414 0.167075574 -0.11035867
v -0.276682 0.1695075 0.0117840879
v -0.268982261 0.227267742 -0.00504807755
v -0.288172364 0.228395224 -0.0363772139
v -0.288172364 0.228395224 -0.0363772139
v -0.292223543 0.177007318 -0.0318324044
v -0.276682 0.1695075 0.0117840879
v -0.1666188 0.22297734 -0.00548362359
v -0.1922817 0.227372527 0.0171435736
v -0.200703591 0.169481456 0.03615163
v -0.200703591 0.169481456 0.03615163
v -0.169934064 0.169353724 -0.009597484
v -0.1666188 0.22297734 -0.00548362359
v -0.223933011 0.126064658 0.144601852
v -0.203465879 0.0682418346 0.233573616
v -0.178782716 0.0856263638 0.14212814
v -0.296842635 0.07000768 -0.159949869
v -0.223693714 0.17919302 -0.191793144
v -0.214554444 0.07542944 -0.223696366
v -0.3614995 0.043982625 0.2653809
v -0.3660539 0.0591719151 0.2037155
v -0.3845151 0.0358034372 0.191150934
v -0.3614995 0.043982625 0.2653809
v -0.363345176 -0.0193123817 0.2695108
v -0.299807847 -0.012254 0.316434115
v -0.299807847 -0.012254 0.316434115
v -0.296777159 0.0495033264 0.311519235
v -0.3614995 0.043982625 0.2653809
v -0.203465879 0.0682418346 0.233573616
v -0.221821725 0.04194033 0.294674546
v -0.174238265 0.0296646357 0.230754048
v -0.174238265 0.0296646357 0.230754048
v -0.221821725 0.04194033 0.294674546
v -0.219943613 -0.0219173431 0.2971598
v -0.219943613 -0.0219173431 0.2971598
v -0.167302758 -0.0279400349 0.226651579
v -0.174238265 0.0296646357 0.230754048
v -0.363345176 -0.0193123817 0.2695108
v -0.219943613 -0.0219173431 0.2971598
v -0.299807847 -0.012254 0.316434115
v -0.210147351 0.147439957 0.0655822
v -0.178782716 0.0856263638 0.14212814
v -0.163110465 0.08832848 0.0362938978
v -0.27697733 0.1453743 0.048992645
v -0.347447067 0.07504082 0.113221079
v -0.293542475 0.11947298 0.131149709
v -0.312304467 0.120988727 -0.001970321
v -0.276682 0.1695075 0.0117840879
v -0.292223543 0.177007318 -0.0318324044
v -0.210147351 0.147439957 0.0655822
v -0.169934064 0.169353724 -0.009597484
v -0.200703591 0.169481456 0.03615163
v -0.236047626 0.249584079 0.0202786736
v -0.27917552 0.242114186 -0.0165721476
v -0.276682 0.1695075 0.0117840879
v -0.276682 0.1695075 0.0117840879
v -0.240797684 0.181002438 0.04174869
v -0.236047626 0.249584079 0.0202786736
v -0.27697733 0.1453743 0.048992645
v -0.240797684 0.181002438 0.04174869
v -0.276682 0.1695075 0.0117840879
v -0.240797684 0.181002438 0.04174869
v -0.27697733 0.1453743 0.048992645
v -0.210147351 0.147439957 0.0655822
v -0.280439228 0.08556771 0.235460758
v -0.223933011 0.126064658 0.144601852
v -0.293542475 0.11947298 0.131149709
v -0.3614995 0.043982625 0.2653809
v -0.2914849 0.0714486837 0.2869678
v -0.3660539 0.0591719151 0.2037155
v -0.2914849 0.0714486837 0.2869678
v -0.221821725 0.04194033 0.294674546
v -0.203465879 0.0682418346 0.233573616
v -0.3660539 0.0591719151 0.2037155
v -0.2914849 0.0714486837 0.2869678
v -0.280439228 0.08556771 0.235460758
v -0.2914849 0.0714486837 0.2869678
v -0.203465879 0.0682418346 0.233573616
v -0.280439228 0.08556771 0.235460758
v -0.3660539 0.0591719151 0.2037155
v -0.293542475 0.11947298 0.131149709
v -0.347447067 0.07504082 0.113221079
v 0.272235781 0.2444191 0.0558188967
v 0.2684045 0.17177403 0.0861031562
v 0.210914642 0.18012917 -0.00409361348
v 0.227565736 0.2531104 0.09051782
v 0.272235781 0.2444191 0.0558188967
v 0.210914642 0.18012917 -0.00409361348
v 0.191588253 0.17205584 0.10715729
v 0.176391855 0.243763566 0.08855596
v 0.210914642 0.18012917 -0.00409361348
v 0.221272439 0.2375912 -0.113991283
v 0.140945673 0.232254267 -0.0807551742
v 0.210914642 0.18012917 -0.00409361348
v 0.1322701 0.226009369 -0.00304672867
v 0.159237623 0.225889564 0.0625005662
v 0.210914642 0.18012917 -0.00409361348
v 0.140945673 0.232254267 -0.0807551742
v 0.1322701 0.226009369 -0.00304672867
v 0.210914642 0.18012917 -0.00409361348
v 0.2705861 0.232274055 -0.0342909843
v 0.221272439 0.2375912 -0.113991283
v 0.210914642 0.18012917 -0.00409361348
v 0.282042444 0.2300759 0.0368347876
v 0.2705861 0.232274055 -0.0342909843
v 0.210914642 0.18012917 -0.00409361348
v 0.261499822 0.229941368 0.0673311651
v 0.282042444 0.2300759 0.0368347876
v 0.210914642 0.18012917 -0.00409361348
v 0.2684045 0.17177403 0.0861031562
v 0.261499822 0.229941368 0.0673311651
v 0.210914642 0.18012917 -0.00409361348
v 0.183903828 0.230905771 0.08611676
v 0.191588253 0.17205584 0.10715729
v 0.210914642 0.18012917 -0.00409361348
v 0.159237623 0.225889564 0.0625005662
v 0.183903828 0.230905771 0.08611676
v 0.210914642 0.18012917 -0.00409361348
v 0.176391855 0.243763566 0.08855596
v 0.227565736 0.2531104 0.09051782
v 0.210914642 0.18012917 -0.00409361348
v -0.276682 0.1695075 0.0117840879
v -0.27917552 0.242114186 -0.0165721476
v -0.215428635 0.179466784 -0.07558188
v -0.27917552 0.242114186 -0.0165721476
v -0.236047626 0.249584079 0.0202786736
v -0.215428635 0.179466784 -0.07558188
v -0.184857756 0.2401129 0.0202950351
v -0.200703591 0.169481456 0.03615163
v -0.215428635 0.179466784 -0.07558188
v -0.1420761 0.233563423 -0.147420555
v -0.220860839 0.240196347 -0.183961108
v -0.215428635 0.179466784 -0.07558188
v -0.1666188 0.22297734 -0.00548362359
v -0.13681531 0.224961281 -0.0696919858
v -0.215428635 0.179466784 -0.07558188
v -0.13681531 0.224961281 -0.0696919858
v -0.1420761 0.233563423 -0.147420555
v -0.215428635 0.179466784 -0.07558188
v -0.220860839 0.240196347 -0.183961108
v -0.27361688 0.2326814 -0.1067725
v -0.215428635 0.179466784 -0.07558188
v -0.27361688 0.2326814 -0.1067725
v -0.288172364 0.228395224 -0.0363772139
v -0.215428635 0.179466784 -0.07558188
v -0.288172364 0.228395224 -0.0363772139
v -0.268982261 0.227267742 -0.00504807755
v -0.215428635 0.179466784 -0.07558188
v -0.268982261 0.227267742 -0.00504807755
v -0.276682 0.1695075 0.0117840879
v -0.215428635 0.179466784 -0.07558188
v -0.200703591 0.169481456 0.03615163
v -0.1922817 0.227372527 0.0171435736
v -0.215428635 0.179466784 -0.07558188
v -0.1922817 0.227372527 0.0171435736
v -0.1666188 0.22297734 -0.00548362359
v -0.215428635 0.179466784 -0.07558188
v -0.236047626 0.249584079 0.0202786736
v -0.184857756 0.2401129 0.0202950351
v -0.215428635 0.179466784 -0.07558188
vt 0.2560837 0.3160243
vt 0.3635936 0.376074851
vt 0.19260332 0.389172554
vt 0.07255544 0.83809346
vt 0.231129527 0.819823146
vt 0.202049479 0.867597044
vt 0.1092328 0.8885301
vt 0.517655 0.0590184927
vt 0.7135364 0.0591663122
vt 0.6436579 0.2149117
vt 0.376266 0.914016247
vt 0.327563 0.829969
vt 0.371072 0.8036601
vt 0.371072 0.8036601
vt 0.415510833 0.881849349
vt 0.376266 0.914016247
vt 0.327563 0.829969
vt 0.27608 0.718823
vt 0.326299459 0.6928195
vt 0.326299459 0.6928195
vt 0.371072 0.8036601
vt 0.327563 0.829969
vt 0.371072 0.8036601
vt 0.484213 0.71788
vt 0.537834 0.8094099
vt 0.537834 0.8094099
vt 0.415510833 0.881849349
vt 0.371072 0.8036601
vt 0.07780573 0.159255743
vt 0.0548920631 0.14219141
vt 0.115384549 0.0705002546
vt 0.329231 0.0117009878
vt 0.5174406 0.0141400695
vt 0.517655 0.0590184927
vt 0.517655 0.0590184927
vt 0.32524842 0.07115692
vt 0.329231 0.0117009878
vt 0.517655 0.0590184927
vt 0.6436579 0.2149117
vt 0.4758434 0.172870815
vt 0.052005 0.764802933
vt 0.0596300252 0.646565855
vt 0.182166 0.6084795
vt 0.182166 0.6084795
vt 0.228714347 0.7365288
vt 0.052005 0.764802933
vt 0.407812774 0.500864863
vt 0.432262 0.631279
vt 0.326299459 0.6928195
vt 0.326299459 0.6928195
vt 0.282658577 0.5187611
vt 0.407812774 0.500864863
vt 0.326299459 0.6928195
vt 0.432262 0.631279
vt 0.484213 0.71788
vt 0.484213 0.71788
vt 0.371072 0.8036601
vt 0.326299459 0.6928195
vt 0.5174406 0.0141400695
vt 0.7162517 0.0113855
vt 0.7135364 0.0591663122
vt 0.7135364 0.0591663122
vt 0.517655 0.0590184927
vt 0.5174406 0.0141400695
vt 0.282658577 0.5187611
vt 0.2048113 0.5654923
vt 0.137066 0.432339
vt 0.137066 0.432339
vt 0.19260332 0.389172554
vt 0.282658577 0.5187611
vt 0.021017 0.549795
vt 0.150140166 0.498710871
vt 0.182166 0.6084795
vt 0.182166 0.6084795
vt 0.0596300252 0.646565855
vt 0.021017 0.549795
vt 0.27608 0.718823
vt 0.2048113 0.5654923
vt 0.282658577 0.5187611
vt 0.282658577 0.5187611
vt 0.326299459 0.6928195
vt 0.27608 0.718823
vt 0.0548920631 0.14219141
vt 0.07780573 0.159255743
vt 0.03716802 0.192670345
vt 0.9858264 0.923865139
vt 0.913704 0.923865139
vt 0.912876 0.9889816
vt 0.912876 0.9889816
vt 0.984848261 0.9889816
vt 0.9858264 0.923865139
vt 0.913704 0.923865139
vt 0.792981 0.923865139
vt 0.792981 0.9889816
vt 0.792981 0.9889816
vt 0.912876 0.9889816
vt 0.913704 0.923865139
vt 0.792981 0.923865139
vt 0.486726761 0.923865139
vt 0.485150069 0.9889816
vt 0.485150069 0.9889816
vt 0.792981 0.9889816
vt 0.792981 0.923865139
vt 0.485150069 0.9889816
vt 0.486726761 0.923865139
vt 0.350796 0.923865139
vt 0.350796 0.923865139
vt 0.349366 0.9889816
vt 0.485150069 0.9889816
vt 0.0329015628 0.9245914
vt 0.0312020388 0.9889816
vt 0.119967259 0.988426268
vt 0.119967259 0.988426268
vt 0.122906335 0.9233962
vt 0.0329015628 0.9245914
vt 0.199469164 0.9873955
vt 0.0963342339 0.9885101
vt 0.09681189 0.9234516
vt 0.09681189 0.9234516
vt 0.201068684 0.9236456
vt 0.199469164 0.9873955
vt 0.346392 0.923865139
vt 0.5085055 0.923865139
vt 0.507113 0.9889816
vt 0.507113 0.9889816
vt 0.341145 0.9889816
vt 0.346392 0.923865139
vt 0.5085055 0.923865139
vt 0.8253279 0.923865139
vt 0.8259575 0.9889816
vt 0.8259575 0.9889816
vt 0.507113 0.9889816
vt 0.5085055 0.923865139
vt 0.6436579 0.2149117
vt 0.7135364 0.0591663122
vt 0.8337834 0.2193538
vt 0.7135364 0.0591663122
vt 0.7162517 0.0113855
vt 0.8632515 0.0174896121
vt 0.8632515 0.0174896121
vt 0.8659101 0.0695979
vt 0.7135364 0.0591663122
vt 0.8259575 0.9889816
vt 0.8253279 0.923865139
vt 0.950877547 0.923865139
vt 0.950877547 0.923865139
vt 0.9525465 0.9889816
vt 0.8259575 0.9889816
vt 0.3635936 0.376074851
vt 0.407812774 0.500864863
vt 0.282658577 0.5187611
vt 0.4758434 0.172870815
vt 0.41837436 0.271174669
vt 0.32524842 0.07115692
vt 0.181348532 0.070647
vt 0.298972517 0.215465844
vt 0.122257657 0.186046958
vt 0.181348532 0.070647
vt 0.193871349 0.0325467
vt 0.329231 0.0117009878
vt 0.329231 0.0117009878
vt 0.32524842 0.07115692
vt 0.181348532 0.070647
vt 0.199469164 0.9873955
vt 0.201068684 0.9236456
vt 0.346392 0.923865139
vt 0.346392 0.923865139
vt 0.341145 0.9889816
vt 0.199469164 0.9873955
vt 0.231129527 0.819823146
vt 0.07255544 0.83809346
vt 0.052005 0.764802933
vt 0.228714347 0.7365288
vt 0.349366 0.9889816
vt 0.350796 0.923865139
vt 0.210724428 0.9238969
vt 0.210724428 0.9238969
vt 0.207705557 0.989046633
vt 0.349366 0.9889816
vt 0.19260332 0.389172554
vt 0.137066 0.432339
vt 0.0444836132 0.294203281
vt 0.0444836132 0.294203281
vt 0.08651596 0.2517286
vt 0.19260332 0.389172554
vt 0.2560837 0.3160243
vt 0.08651596 0.2517286
vt 0.122257657 0.186046958
vt 0.414537 0.4046994
vt 0.3635936 0.376074851
vt 0.4459411 0.349592149
vt 0.298972517 0.215465844
vt 0.41837436 0.271174669
vt 0.3635936 0.376074851
vt 0.3635936 0.376074851
vt 0.2560837 0.3160243
vt 0.298972517 0.215465844
vt 0.414537 0.4046994
vt 0.4459411 0.349592149
vt 0.5129724 0.385731459
vt 0.5129724 0.385731459
vt 0.4823316 0.437366247
vt 0.414537 0.4046994
vt 0.41837436 0.271174669
vt 0.4758434 0.172870815
vt 0.476614 0.295768023
vt 0.57038 0.677929
vt 0.616997361 0.768899858
vt 0.537834 0.8094099
vt 0.537834 0.8094099
vt 0.484213 0.71788
vt 0.57038 0.677929
vt 0.486704171 0.493231654
vt 0.5244002 0.5886585
vt 0.432262 0.631279
vt 0.432262 0.631279
vt 0.407812774 0.500864863
vt 0.486704171 0.493231654
vt 0.5244002 0.5886585
vt 0.57038 0.677929
vt 0.484213 0.71788
vt 0.484213 0.71788
vt 0.432262 0.631279
vt 0.5244002 0.5886585
vt 0.827185869 0.3101424
vt 0.649961352 0.300935328
vt 0.6436579 0.2149117
vt 0.8337834 0.2193538
vt 0.649961352 0.300935328
vt 0.5835271 0.3128165
vt 0.548819542 0.248856008
vt 0.548819542 0.248856008
vt 0.6436579 0.2149117
vt 0.649961352 0.300935328
vt 0.021017 0.549795
vt 0.021527335 0.4761991
vt 0.09126377 0.4464594
vt 0.09126377 0.4464594
vt 0.150140166 0.498710871
vt 0.021017 0.549795
vt 0.517655 0.0590184927
vt 0.4758434 0.172870815
vt 0.32524842 0.07115692
vt 0.4758434 0.172870815
vt 0.6436579 0.2149117
vt 0.548819542 0.248856008
vt 0.476614 0.295768023
vt 0.548819542 0.248856008
vt 0.5835271 0.3128165
vt 0.5835271 0.3128165
vt 0.54467 0.330278039
vt 0.476614 0.295768023
vt 0.486704171 0.493231654
vt 0.407812774 0.500864863
vt 0.414537 0.4046994
vt 0.414537 0.4046994
vt 0.48144 0.442741036
vt 0.486704171 0.493231654
vt 0.2560837 0.3160243
vt 0.19260332 0.389172554
vt 0.08651596 0.2517286
vt 0.7135364 0.0591663122
vt 0.8659101 0.0695979
vt 0.8337834 0.2193538
vt 0.115384549 0.0705002546
vt 0.193871349 0.0325467
vt 0.181348532 0.070647
vt 0.0963342339 0.9885101
vt 0.0100237243 0.9889816
vt 0.0126269627 0.924695849
vt 0.0126269627 0.924695849
vt 0.09681189 0.9234516
vt 0.0963342339 0.9885101
vt 0.08651596 0.2517286
vt 0.0444836132 0.294203281
vt 0.03716802 0.192670345
vt 0.207705557 0.989046633
vt 0.210724428 0.9238969
vt 0.122906335 0.9233962
vt 0.122906335 0.9233962
vt 0.119967259 0.988426268
vt 0.207705557 0.989046633
vt 0.202049479 0.867597044
vt 0.159732178 0.9014449
vt 0.1092328 0.8885301
vt 0.3635936 0.376074851
vt 0.282658577 0.5187611
vt 0.19260332 0.389172554
vt 0.41837436 0.271174669
vt 0.298972517 0.215465844
vt 0.32524842 0.07115692
vt 0.4758434 0.172870815
vt 0.548819542 0.248856008
vt 0.476614 0.295768023
vt 0.3635936 0.376074851
vt 0.414537 0.4046994
vt 0.407812774 0.500864863
vt 0.5129724 0.385731459
vt 0.4459411 0.349592149
vt 0.476614 0.295768023
vt 0.476614 0.295768023
vt 0.542954 0.335207582
vt 0.5129724 0.385731459
vt 0.41837436 0.271174669
vt 0.476614 0.295768023
vt 0.4459411 0.349592149
vt 0.4459411 0.349592149
vt 0.3635936 0.376074851
vt 0.41837436 0.271174669
vt 0.122257657 0.186046958
vt 0.298972517 0.215465844
vt 0.2560837 0.3160243
vt 0.115384549 0.0705002546
vt 0.181348532 0.070647
vt 0.07780573 0.159255743
vt 0.07780573 0.159255743
vt 0.08651596 0.2517286
vt 0.03716802 0.192670345
vt 0.181348532 0.070647
vt 0.122257657 0.186046958
vt 0.07780573 0.159255743
vt 0.07780573 0.159255743
vt 0.122257657 0.186046958
vt 0.08651596 0.2517286
vt 0.181348532 0.070647
vt 0.32524842 0.07115692
vt 0.298972517 0.215465844
vt 0.2560837 0.3160243
vt 0.19260332 0.389172554
vt 0.3635936 0.376074851
vt 0.07255544 0.83809346
vt 0.1092328 0.8885301
vt 0.202049479 0.867597044
vt 0.231129527 0.819823146
vt 0.517655 0.0590184927
vt 0.6436579 0.2149117
vt 0.7135364 0.0591663122
vt 0.376266 0.914016247
vt 0.415510833 0.881849349
vt 0.371072 0.8036601
vt 0.371072 0.8036601
vt 0.327563 0.829969
vt 0.376266 0.914016247
vt 0.327563 0.829969
vt 0.371072 0.8036601
vt 0.326299459 0.6928195
vt 0.326299459 0.6928195
vt 0.27608 0.718823
vt 0.327563 0.829969
vt 0.371072 0.8036601
vt 0.415510833 0.881849349
vt 0.537834 0.8094099
vt 0.537834 0.8094099
vt 0.484213 0.71788
vt 0.371072 0.8036601
vt 0.07780573 0.159255743
vt 0.115384549 0.0705002546
vt 0.0548920631 0.14219141
vt 0.329231 0.0117009878
vt 0.32524842 0.07115692
vt 0.517655 0.0590184927
vt 0.517655 0.0590184927
vt 0.5174406 0.0141400695
vt 0.329231 0.0117009878
vt 0.517655 0.0590184927
vt 0.4758434 0.172870815
vt 0.6436579 0.2149117
vt 0.052005 0.764802933
vt 0.228714347 0.7365288
vt 0.182166 0.6084795
vt 0.182166 0.6084795
vt 0.0596300252 0.646565855
vt 0.052005 0.764802933
vt 0.407812774 0.500864863
vt 0.282658577 0.5187611
vt 0.326299459 0.6928195
vt 0.326299459 0.6928195
vt 0.432262 0.631279
vt 0.407812774 0.500864863
vt 0.326299459 0.6928195
vt 0.371072 0.8036601
vt 0.484213 0.71788
vt 0.484213 0.71788
vt 0.432262 0.631279
vt 0.326299459 0.6928195
vt 0.5174406 0.0141400695
vt 0.517655 0.0590184927
vt 0.7135364 0.0591663122
vt 0.7135364 0.0591663122
vt 0.7162517 0.0113855
vt 0.5174406 0.0141400695
vt 0.282658577 0.5187611
vt 0.19260332 0.389172554
vt 0.137066 0.432339
vt 0.137066 0.432339
vt 0.2048113 0.5654923
vt 0.282658577 0.5187611
vt 0.021017 0.549795
vt 0.0596300252 0.646565855
vt 0.182166 0.6084795
vt 0.182166 0.6084795
vt 0.150140166 0.498710871
vt 0.021017 0.549795
vt 0.27608 0.718823
vt 0.326299459 0.6928195
vt 0.282658577 0.5187611
vt 0.282658577 0.5187611
vt 0.2048113 0.5654923
vt 0.27608 0.718823
vt 0.0548920631 0.14219141
vt 0.03716802 0.192670345
vt 0.07780573 0.159255743
vt 0.9858264 0.923865139
vt 0.984848261 0.9889816
vt 0.912876 0.9889816
vt 0.912876 0.9889816
vt 0.913704 0.923865139
vt 0.9858264 0.923865139
vt 0.913704 0.923865139
vt 0.912876 0.9889816
vt 0.792981 0.9889816
vt 0.792981 0.9889816
vt 0.792981 0.923865139
vt 0.913704 0.923865139
vt 0.792981 0.923865139
vt 0.792981 0.9889816
vt 0.485150069 0.9889816
vt 0.485150069 0.9889816
vt 0.486726761 0.923865139
vt 0.792981 0.923865139
vt 0.485150069 0.9889816
vt 0.349366 0.9889816
vt 0.350796 0.923865139
vt 0.350796 0.923865139
vt 0.486726761 0.923865139
vt 0.485150069 0.9889816
vt 0.0329015628 0.9245914
vt 0.122906335 0.9233962
vt 0.119967259 0.988426268
vt 0.119967259 0.988426268
vt 0.0312020388 0.9889816
vt 0.0329015628 0.9245914
vt 0.199469164 0.9873955
vt 0.201068684 0.9236456
vt 0.09681189 0.9234516
vt 0.09681189 0.9234516
vt 0.0963342339 0.9885101
vt 0.199469164 0.9873955
vt 0.346392 0.923865139
vt 0.341145 0.9889816
vt 0.507113 0.9889816
vt 0.507113 0.9889816
vt 0.5085055 0.923865139
vt 0.346392 0.923865139
vt 0.5085055 0.923865139
vt 0.507113 0.9889816
vt 0.8259575 0.9889816
vt 0.8259575 0.9889816
vt 0.8253279 0.923865139
vt 0.5085055 0.923865139
vt 0.6436579 0.2149117
vt 0.8337834 0.2193538
vt 0.7135364 0.0591663122
vt 0.7135364 0.0591663122
vt 0.8659101 0.0695979
vt 0.8632515 0.0174896121
vt 0.8632515 0.0174896121
vt 0.7162517 0.0113855
vt 0.7135364 0.0591663122
vt 0.8259575 0.9889816
vt 0.9525465 0.9889816
vt 0.950877547 0.923865139
vt 0.950877547 0.923865139
vt 0.8253279 0.923865139
vt 0.8259575 0.9889816
vt 0.3635936 0.376074851
vt 0.282658577 0.5187611
vt 0.407812774 0.500864863
vt 0.4758434 0.172870815
vt 0.32524842 0.07115692
vt 0.41837436 0.271174669
vt 0.181348532 0.070647
vt 0.122257657 0.186046958
vt 0.298972517 0.215465844
vt 0.181348532 0.070647
vt 0.32524842 0.07115692
vt 0.329231 0.0117009878
vt 0.329231 0.0117009878
vt 0.193871349 0.0325467
vt 0.181348532 0.070647
vt 0.199469164 0.9873955
vt 0.341145 0.9889816
vt 0.346392 0.923865139
vt 0.346392 0.923865139
vt 0.201068684 0.9236456
vt 0.199469164 0.9873955
vt 0.231129527 0.819823146
vt 0.228714347 0.7365288
vt 0.052005 0.764802933
vt 0.07255544 0.83809346
vt 0.349366 0.9889816
vt 0.207705557 0.989046633
vt 0.210724428 0.9238969
vt 0.210724428 0.9238969
vt 0.350796 0.923865139
vt 0.349366 0.9889816
vt 0.19260332 0.389172554
vt 0.08651596 0.2517286
vt 0.0444836132 0.294203281
vt 0.0444836132 0.294203281
vt 0.137066 0.432339
vt 0.19260332 0.389172554
vt 0.2560837 0.3160243
vt 0.122257657 0.186046958
vt 0.08651596 0.2517286
vt 0.414537 0.4046994
vt 0.4459411 0.349592149
vt 0.3635936 0.376074851
vt 0.298972517 0.215465844
vt 0.2560837 0.3160243
vt 0.3635936 0.376074851
vt 0.3635936 0.376074851
vt 0.41837436 0.271174669
vt 0.298972517 0.215465844
vt 0.414537 0.4046994
vt 0.4823316 0.437366247
vt 0.5129724 0.385731459
vt 0.5129724 0.385731459
vt 0.4459411 0.349592149
vt 0.414537 0.4046994
vt 0.41837436 0.271174669
vt 0.476614 0.295768023
vt 0.4758434 0.172870815
vt 0.57038 0.677929
vt 0.484213 0.71788
vt 0.537834 0.8094099
vt 0.537834 0.8094099
vt 0.616997361 0.768899858
vt 0.57038 0.677929
vt 0.486704171 0.493231654
vt 0.407812774 0.500864863
vt 0.432262 0.631279
vt 0.432262 0.631279
vt 0.5244002 0.5886585
vt 0.486704171 0.493231654
vt 0.5244002 0.5886585
vt 0.432262 0.631279
vt 0.484213 0.71788
vt 0.484213 0.71788
vt 0.57038 0.677929
vt 0.5244002 0.5886585
vt 0.827185869 0.3101424
vt 0.8337834 0.2193538
vt 0.6436579 0.2149117
vt 0.649961352 0.300935328
vt 0.649961352 0.300935328
vt 0.6436579 0.2149117
vt 0.548819542 0.248856008
vt 0.548819542 0.248856008
vt 0.5835271 0.3128165
vt 0.649961352 0.300935328
vt 0.021017 0.549795
vt 0.150140166 0.498710871
vt 0.09126377 0.4464594
vt 0.09126377 0.4464594
vt 0.021527335 0.4761991
vt 0.021017 0.549795
vt 0.517655 0.0590184927
vt 0.32524842 0.07115692
vt 0.4758434 0.172870815
vt 0.4758434 0.172870815
vt 0.548819542 0.248856008
vt 0.6436579 0.2149117
vt 0.476614 0.295768023
vt 0.54467 0.330278039
vt 0.5835271 0.3128165
vt 0.5835271 0.3128165
vt 0.548819542 0.248856008
vt 0.476614 0.295768023
vt 0.486704171 0.493231654
vt 0.48144 0.442741036
vt 0.414537 0.4046994
vt 0.414537 0.4046994
vt 0.407812774 0.500864863
vt 0.486704171 0.493231654
vt 0.2560837 0.3160243
vt 0.08651596 0.2517286
vt 0.19260332 0.389172554
vt 0.7135364 0.0591663122
vt 0.8337834 0.2193538
vt 0.8659101 0.0695979
vt 0.115384549 0.0705002546
vt 0.181348532 0.070647
vt 0.193871349 0.0325467
vt 0.0963342339 0.9885101
vt 0.09681189 0.9234516
vt 0.0126269627 0.924695849
vt 0.0126269627 0.924695849
vt 0.0100237243 0.9889816
vt 0.0963342339 0.9885101
vt 0.08651596 0.2517286
vt 0.03716802 0.192670345
vt 0.0444836132 0.294203281
vt 0.207705557 0.989046633
vt 0.119967259 0.988426268
vt 0.122906335 0.9233962
vt 0.122906335 0.9233962
vt 0.210724428 0.9238969
vt 0.207705557 0.989046633
vt 0.202049479 0.867597044
vt 0.1092328 0.8885301
vt 0.159732178 0.9014449
vt 0.3635936 0.376074851
vt 0.19260332 0.389172554
vt 0.282658577 0.5187611
vt 0.41837436 0.271174669
vt 0.32524842 0.07115692
vt 0.298972517 0.215465844
vt 0.4758434 0.172870815
vt 0.476614 0.295768023
vt 0.548819542 0.248856008
vt 0.3635936 0.376074851
vt 0.407812774 0.500864863
vt 0.414537 0.4046994
vt 0.5129724 0.385731459
vt 0.542954 0.335207582
vt 0.476614 0.295768023
vt 0.476614 0.295768023
vt 0.4459411 0.349592149
vt 0.5129724 0.385731459
vt 0.41837436 0.271174669
vt 0.4459411 0.349592149
vt 0.476614 0.295768023
vt 0.4459411 0.349592149
vt 0.41837436 0.271174669
vt 0.3635936 0.376074851
vt 0.122257657 0.186046958
vt 0.2560837 0.3160243
vt 0.298972517 0.215465844
vt 0.115384549 0.0705002546
vt 0.07780573 0.159255743
vt 0.181348532 0.070647
vt 0.07780573 0.159255743
vt 0.03716802 0.192670345
vt 0.08651596 0.2517286
vt 0.181348532 0.070647
vt 0.07780573 0.159255743
vt 0.122257657 0.186046958
vt 0.07780573 0.159255743
vt 0.08651596 0.2517286
vt 0.122257657 0.186046958
vt 0.181348532 0.070647
vt 0.298972517 0.215465844
vt 0.32524842 0.07115692
vt 0.542954 0.335207582
vt 0.476614 0.295768023
vt 0.551619351 0.355568528
vt 0.5129724 0.385731459
vt 0.542954 0.335207582
vt 0.551619351 0.355568528
vt 0.414537 0.4046994
vt 0.4823316 0.437366247
vt 0.551619351 0.355568528
vt 0.616997361 0.768899858
vt 0.57038 0.677929
vt 0.5496204 0.6321798
vt 0.5244002 0.5886585
vt 0.486704171 0.493231654
vt 0.5496204 0.6321798
vt 0.57038 0.677929
vt 0.5244002 0.5886585
vt 0.5496204 0.6321798
vt 0.649961352 0.300935328
vt 0.827185869 0.3101424
vt 0.551619351 0.355568528
vt 0.5835271 0.3128165
vt 0.649961352 0.300935328
vt 0.551619351 0.355568528
vt 0.54467 0.330278039
vt 0.5835271 0.3128165
vt 0.551619351 0.355568528
vt 0.476614 0.295768023
vt 0.54467 0.330278039
vt 0.551619351 0.355568528
vt 0.48144 0.442741036
vt 0.414537 0.4046994
vt 0.551619351 0.355568528
vt 0.486704171 0.493231654
vt 0.48144 0.442741036
vt 0.5496204 0.6321798
vt 0.4823316 0.437366247
vt 0.5129724 0.385731459
vt 0.551619351 0.355568528
vt 0.476614 0.295768023
vt 0.542954 0.335207582
vt 0.5911264 0.324411333
vt 0.542954 0.335207582
vt 0.5129724 0.385731459
vt 0.5911264 0.324411333
vt 0.4823316 0.437366247
vt 0.414537 0.4046994
vt 0.5109701 0.544789433
vt 0.57038 0.677929
vt 0.616997361 0.768899858
vt 0.5109701 0.544789433
vt 0.486704171 0.493231654
vt 0.5244002 0.5886585
vt 0.5109701 0.544789433
vt 0.5244002 0.5886585
vt 0.57038 0.677929
vt 0.5109701 0.544789433
vt 0.827185869 0.3101424
vt 0.649961352 0.300935328
vt 0.5911264 0.324411333
vt 0.649961352 0.300935328
vt 0.5835271 0.3128165
vt 0.5911264 0.324411333
vt 0.5835271 0.3128165
vt 0.54467 0.330278039
vt 0.5911264 0.324411333
vt 0.54467 0.330278039
vt 0.476614 0.295768023
vt 0.5911264 0.324411333
vt 0.414537 0.4046994
vt 0.48144 0.442741036
vt 0.5109701 0.544789433
vt 0.48144 0.442741036
vt 0.486704171 0.493231654
vt 0.5109701 0.544789433
vt 0.5129724 0.385731459
vt 0.4823316 0.437366247
vt 0.5911264 0.324411333
vn -0.65383637 0.7046711 0.275566161
vn -0.65383637 0.7046711 0.275566161
vn -0.65383637 0.7046711 0.275566161
vn 0.0251016375 -0.996536 0.07928357
vn 0.0251016375 -0.996536 0.07928357
vn 0.0251016375 -0.996536 0.07928357
vn 0.0251888651 -0.9965599 0.0789546147
vn 0.9637283 0.23990418 -0.116934896
vn 0.9637283 0.23990418 -0.116934896
vn 0.9637283 0.23990418 -0.116934896
vn -0.3619759 -0.112545855 -0.9253685
vn -0.3619759 -0.112545855 -0.9253685
vn -0.3619759 -0.112545855 -0.9253685
vn -0.352837563 -0.08312564 -0.931984842
vn -0.352837563 -0.08312564 -0.931984842
vn -0.352837563 -0.08312564 -0.931984842
vn -0.97388345 -0.200669631 -0.106220074
vn -0.97388345 -0.200669631 -0.106220074
vn -0.97388345 -0.200669631 -0.106220074
vn -0.9669637 -0.237885535 -0.0916060358
vn -0.9669637 -0.237885535 -0.0916060358
vn -0.9669637 -0.237885535 -0.0916060358
vn -0.391931266 0.330464154 -0.8585938
vn -0.391931266 0.330464154 -0.8585938
vn -0.391931266 0.330464154 -0.8585938
vn -0.3442385 0.287043273 -0.893927336
vn -0.3442385 0.287043273 -0.893927336
vn -0.3442385 0.287043273 -0.893927336
vn 0.425288171 0.720186055 0.548144162
vn 0.425288171 0.720186055 0.548144162
vn 0.425288171 0.720186055 0.548144162
vn 0.94709307 0.165197685 -0.2751807
vn 0.94709307 0.165197685 -0.2751807
vn 0.94709307 0.165197685 -0.2751807
vn 0.857589245 0.485100627 -0.170932844
vn 0.857589245 0.485100627 -0.170932844
vn 0.857589245 0.485100627 -0.170932844
vn 0.965691745 0.203978091 -0.160724774
vn 0.965691745 0.203978091 -0.160724774
vn 0.965691745 0.203978091 -0.160724774
vn 0.0152454162 -0.9996981 -0.0192692168
vn 0.0152454162 -0.9996981 -0.0192692168
vn 0.0152454162 -0.9996981 -0.0192692168
vn 0.009488384 -0.9996396 -0.025114473
vn 0.009488384 -0.9996396 -0.025114473
vn 0.009488384 -0.9996396 -0.025114473
vn -0.9420543 0.134385243 0.307366878
vn -0.9420543 0.134385243 0.307366878
vn -0.9420543 0.134385243 0.307366878
vn -0.953894854 0.2200448 0.2041198
vn -0.953894854 0.2200448 0.2041198
vn -0.953894854 0.2200448 0.2041198
vn -0.9841321 0.175890416 -0.0233784784
vn -0.9841321 0.175890416 -0.0233784784
vn -0.9841321 0.175890416 -0.0233784784
vn -0.987083733 0.135082975 -0.086129725
vn -0.987083733 0.135082975 -0.086129725
vn -0.987083733 0.135082975 -0.086129725
vn 0.985911548 -0.010876446 -0.166913673
vn 0.985911548 -0.010876446 -0.166913673
vn 0.985911548 -0.010876446 -0.166913673
vn 0.978313744 0.169609889 -0.118889451
vn 0.978313744 0.169609889 -0.118889451
vn 0.978313744 0.169609889 -0.118889451
vn -0.9999378 -0.003388415 0.0106277615
vn -0.9999378 -0.003388415 0.0106277615
vn -0.9999378 -0.003388415 0.0106277615
vn -0.981437564 0.158507988 0.107960835
vn -0.981437564 0.158507988 0.107960835
vn -0.981437564 0.158507988 0.107960835
vn 0.0289473664 -0.9995424 -0.008776522
vn 0.0289473664 -0.9995424 -0.008776522
vn 0.0289473664 -0.9995424 -0.008776522
vn 0.02207571 -0.99971503 0.009083911
vn 0.02207571 -0.99971503 0.009083911
vn 0.02207571 -0.99971503 0.009083911
vn -0.976694345 -0.06057679 0.205909282
vn -0.976694345 -0.06057679 0.205909282
vn -0.976694345 -0.06057679 0.205909282
vn -0.9353553 -0.224136025 0.273630232
vn -0.9353553 -0.224136025 0.273630232
vn -0.9353553 -0.224136025 0.273630232
vn -0.24895452 0.713082433 0.6553893
vn -0.24895452 0.713082433 0.6553893
vn -0.24895452 0.713082433 0.6553893
vn -0.355032861 -0.104078174 -0.9290422
vn -0.355032861 -0.104078174 -0.9290422
vn -0.355032861 -0.104078174 -0.9290422
vn -0.361729115 -0.116962381 -0.9249172
vn -0.361729115 -0.116962381 -0.9249172
vn -0.361729115 -0.116962381 -0.9249172
vn -0.9842624 -0.146300539 -0.09911462
vn -0.9842624 -0.146300539 -0.09911462
vn -0.9842624 -0.146300539 -0.09911462
vn -0.9850202 -0.137386218 -0.104212195
vn -0.9850202 -0.137386218 -0.104212195
vn -0.9850202 -0.137386218 -0.104212195
vn -0.9507937 -0.211234257 0.2266526
vn -0.9507937 -0.211234257 0.2266526
vn -0.9507937 -0.211234257 0.2266526
vn -0.9673441 -0.152022123 0.20281674
vn -0.9673441 -0.152022123 0.20281674
vn -0.9673441 -0.152022123 0.20281674
vn -0.984656 -0.173672959 -0.0170396566
vn -0.984656 -0.173672959 -0.0170396566
vn -0.984656 -0.173672959 -0.0170396566
vn -0.9938917 -0.109416656 0.0143968957
vn -0.9938917 -0.109416656 0.0143968957
vn -0.9938917 -0.109416656 0.0143968957
vn -0.2651225 0.08149825 0.960764349
vn -0.2651225 0.08149825 0.960764349
vn -0.2651225 0.08149825 0.960764349
vn -0.27941224 0.05997104 0.958296537
vn -0.27941224 0.05997104 0.958296537
vn -0.27941224 0.05997104 0.958296537
vn 0.942749 0.0496006 0.329794019
vn 0.942749 0.0496006 0.329794019
vn 0.942749 0.0496006 0.329794019
vn 0.930684268 0.09079251 0.3543776
vn 0.930684268 0.09079251 0.3543776
vn 0.930684268 0.09079251 0.3543776
vn 0.9489898 -0.000103584687 -0.315306664
vn 0.9489898 -0.000103584687 -0.315306664
vn 0.9489898 -0.000103584687 -0.315306664
vn 0.955848932 0.09700931 -0.277384162
vn 0.955848932 0.09700931 -0.277384162
vn 0.955848932 0.09700931 -0.277384162
vn 0.98395884 -0.03179531 -0.17553933
vn 0.98395884 -0.03179531 -0.17553933
vn 0.98395884 -0.03179531 -0.17553933
vn 0.9859158 -0.0105419541 -0.166910127
vn 0.9859158 -0.0105419541 -0.166910127
vn 0.9859158 -0.0105419541 -0.166910127
vn 0.80585736 0.373513669 -0.45943597
vn 0.80585736 0.373513669 -0.45943597
vn 0.80585736 0.373513669 -0.45943597
vn 0.6569654 0.00656752754 -0.7538921
vn 0.6569654 0.00656752754 -0.7538921
vn 0.6569654 0.00656752754 -0.7538921
vn 0.647309542 0.0437104627 -0.760972857
vn 0.647309542 0.0437104627 -0.760972857
vn 0.647309542 0.0437104627 -0.760972857
vn 0.6673068 -0.0482651331 -0.7432174
vn 0.6673068 -0.0482651331 -0.7432174
vn 0.6673068 -0.0482651331 -0.7432174
vn 0.656848252 -0.02323338 -0.753664732
vn 0.656848252 -0.02323338 -0.753664732
vn 0.656848252 -0.02323338 -0.753664732
vn -0.79478246 0.364763469 0.485044837
vn -0.79478246 0.364763469 0.485044837
vn -0.79478246 0.364763469 0.485044837
vn 0.6825717 0.7242956 0.09742573
vn 0.6825717 0.7242956 0.09742573
vn 0.6825717 0.7242956 0.09742573
vn 0.3755068 0.865559042 0.331364125
vn 0.3755068 0.865559042 0.331364125
vn 0.3755068 0.865559042 0.331364125
vn 0.7433012 0.656969547 -0.12607263
vn 0.7433012 0.656969547 -0.12607263
vn 0.7433012 0.656969547 -0.12607263
vn 0.8741816 0.481220841 -0.06506101
vn 0.8741816 0.481220841 -0.06506101
vn 0.8741816 0.481220841 -0.06506101
vn 0.964084864 0.1813114 -0.194078758
vn 0.964084864 0.1813114 -0.194078758
vn 0.964084864 0.1813114 -0.194078758
vn 0.9882769 0.079172276 -0.130539566
vn 0.9882769 0.079172276 -0.130539566
vn 0.9882769 0.079172276 -0.130539566
vn 0.0108147068 -0.999894857 -0.009657174
vn 0.0108147068 -0.999894857 -0.009657174
vn 0.0108147068 -0.999894857 -0.009657174
vn 0.0108149694 -0.999894857 -0.009658037
vn -0.98970145 -0.09432013 -0.107678719
vn -0.98970145 -0.09432013 -0.107678719
vn -0.98970145 -0.09432013 -0.107678719
vn -0.9929 0.117776945 0.0166774672
vn -0.9929 0.117776945 0.0166774672
vn -0.9929 0.117776945 0.0166774672
vn -0.984186232 0.176427022 0.0158410836
vn -0.984186232 0.176427022 0.0158410836
vn -0.984186232 0.176427022 0.0158410836
vn -0.7787879 0.5648492 0.272827417
vn -0.7787879 0.5648492 0.272827417
vn -0.7787879 0.5648492 0.272827417
vn -0.220337972 0.849676 0.479063451
vn -0.220337972 0.849676 0.479063451
vn -0.220337972 0.849676 0.479063451
vn -0.317214936 0.7286207 0.6070309
vn -0.317214936 0.7286207 0.6070309
vn -0.317214936 0.7286207 0.6070309
vn 0.0537640676 0.944649041 0.32364735
vn 0.0537640676 0.944649041 0.32364735
vn 0.0537640676 0.944649041 0.32364735
vn 0.130815074 0.961733639 0.240740165
vn 0.130815074 0.961733639 0.240740165
vn 0.130815074 0.961733639 0.240740165
vn -0.248844057 0.299536049 0.921061754
vn -0.248844057 0.299536049 0.921061754
vn -0.248844057 0.299536049 0.921061754
vn -0.0799523443 0.234381109 0.968851447
vn -0.0799523443 0.234381109 0.968851447
vn -0.0799523443 0.234381109 0.968851447
vn 0.8027836 0.5044993 0.3178348
vn 0.8027836 0.5044993 0.3178348
vn 0.8027836 0.5044993 0.3178348
vn -0.385329157 0.0690940544 -0.920188844
vn -0.385329157 0.0690940544 -0.920188844
vn -0.385329157 0.0690940544 -0.920188844
vn -0.387855083 0.06480756 -0.9194392
vn -0.387855083 0.06480756 -0.9194392
vn -0.387855083 0.06480756 -0.9194392
vn -0.919133663 -0.111125648 0.3779476
vn -0.919133663 -0.111125648 0.3779476
vn -0.919133663 -0.111125648 0.3779476
vn -0.934942 -0.07281638 0.347248137
vn -0.934942 -0.07281638 0.347248137
vn -0.934942 -0.07281638 0.347248137
vn -0.9938546 0.0133940671 -0.109880134
vn -0.9938546 0.0133940671 -0.109880134
vn -0.9938546 0.0133940671 -0.109880134
vn -0.9964733 -0.06321272 -0.05518277
vn -0.9964733 -0.06321272 -0.05518277
vn -0.9964733 -0.06321272 -0.05518277
vn 0.8495403 0.09139473 -0.5195462
vn 0.8495403 0.09139473 -0.5195462
vn 0.8495403 0.09139473 -0.5195462
vn 0.84958 0.09152192 -0.5194589
vn 0.986212254 0.0515295938 -0.157258213
vn 0.986212254 0.0515295938 -0.157258213
vn 0.986212254 0.0515295938 -0.157258213
vn 0.987275243 0.09651252 -0.126383826
vn 0.987275243 0.09651252 -0.126383826
vn 0.987275243 0.09651252 -0.126383826
vn 0.00632035825 -0.9996753 -0.0246853586
vn 0.00632035825 -0.9996753 -0.0246853586
vn 0.00632035825 -0.9996753 -0.0246853586
vn 0.0293104835 -0.9995402 -0.007761035
vn 0.0293104835 -0.9995402 -0.007761035
vn 0.0293104835 -0.9995402 -0.007761035
vn 0.9632402 0.20823738 -0.1697217
vn 0.9632402 0.20823738 -0.1697217
vn 0.9632402 0.20823738 -0.1697217
vn 0.9602963 0.238086641 -0.1454162
vn 0.9602963 0.238086641 -0.1454162
vn 0.9602963 0.238086641 -0.1454162
vn 0.915169537 0.112904631 0.3869332
vn 0.915169537 0.112904631 0.3869332
vn 0.915169537 0.112904631 0.3869332
vn 0.798333 0.268697083 0.5389493
vn 0.798333 0.268697083 0.5389493
vn 0.798333 0.268697083 0.5389493
vn -0.848427236 -0.07522722 0.523938954
vn -0.848427236 -0.07522722 0.523938954
vn -0.848427236 -0.07522722 0.523938954
vn -0.6994552 0.1578725 0.697021246
vn -0.6994552 0.1578725 0.697021246
vn -0.6994552 0.1578725 0.697021246
vn -0.6547217 0.7062292 0.2694065
vn -0.6547217 0.7062292 0.2694065
vn -0.6547217 0.7062292 0.2694065
vn 0.6427024 0.166888937 -0.7477176
vn 0.6427024 0.166888937 -0.7477176
vn 0.6427024 0.166888937 -0.7477176
vn 0.8103611 0.5432897 0.219433889
vn 0.8103611 0.5432897 0.219433889
vn 0.8103611 0.5432897 0.219433889
vn 0.54943943 0.104090296 0.829024434
vn 0.54943943 0.104090296 0.829024434
vn 0.54943943 0.104090296 0.829024434
vn 0.5641296 0.0806424543 0.8217388
vn 0.5641296 0.0806424543 0.8217388
vn 0.5641296 0.0806424543 0.8217388
vn -0.746289 0.528476536 0.4046792
vn -0.746289 0.528476536 0.4046792
vn -0.746289 0.528476536 0.4046792
vn -0.8261836 0.06472727 0.5596705
vn -0.8261836 0.06472727 0.5596705
vn -0.8261836 0.06472727 0.5596705
vn -0.829244435 0.0570885763 0.5559627
vn -0.829244435 0.0570885763 0.5559627
vn -0.829244435 0.0570885763 0.5559627
vn 0.0500727966 -0.967697561 0.247091353
vn 0.0500727966 -0.967697561 0.247091353
vn 0.0500727966 -0.967697561 0.247091353
vn -0.8128178 0.5743925 0.0969557
vn -0.8128178 0.5743925 0.0969557
vn -0.8128178 0.5743925 0.0969557
vn 0.65209794 0.743245065 0.149516061
vn 0.65209794 0.743245065 0.149516061
vn 0.65209794 0.743245065 0.149516061
vn 0.7867467 0.474878162 0.394360751
vn 0.7867467 0.474878162 0.394360751
vn 0.7867467 0.474878162 0.394360751
vn -0.785696447 0.382992923 0.4857958
vn -0.785696447 0.382992923 0.4857958
vn -0.785696447 0.382992923 0.4857958
vn 0.6373371 0.2810618 0.7174996
vn 0.6373371 0.2810618 0.7174996
vn 0.6373371 0.2810618 0.7174996
vn 0.622722447 0.272865027 0.733322144
vn 0.622722447 0.272865027 0.733322144
vn 0.622722447 0.272865027 0.733322144
vn 0.5514799 0.7206137 0.42022112
vn 0.5514799 0.7206137 0.42022112
vn 0.5514799 0.7206137 0.42022112
vn 0.1650208 0.4539582 0.8756084
vn 0.1650208 0.4539582 0.8756084
vn 0.1650208 0.4539582 0.8756084
vn 0.139558315 0.938951 0.314474881
vn 0.139558315 0.938951 0.314474881
vn 0.139558315 0.938951 0.314474881
vn 0.410315216 0.8769654 0.250146121
vn 0.410315216 0.8769654 0.250146121
vn 0.410315216 0.8769654 0.250146121
vn -0.3214501 0.8453989 0.426580042
vn -0.3214501 0.8453989 0.426580042
vn -0.3214501 0.8453989 0.426580042
vn 0.34393844 0.922027469 0.177684337
vn 0.34393844 0.922027469 0.177684337
vn 0.34393844 0.922027469 0.177684337
vn -0.2265071 0.9335951 0.277659327
vn -0.2265071 0.9335951 0.277659327
vn -0.2265071 0.9335951 0.277659327
vn 0.638002932 0.7697992 0.0190111734
vn 0.638002932 0.7697992 0.0190111734
vn 0.638002932 0.7697992 0.0190111734
vn 0.6450775 0.701747537 0.302366346
vn 0.6450775 0.701747537 0.302366346
vn 0.6450775 0.701747537 0.302366346
vn -0.0302032251 -0.997577667 0.06266191
vn -0.0302032251 -0.997577667 0.06266191
vn -0.0302032251 -0.997577667 0.06266191
vn -0.0301295836 -0.997558951 0.0629949942
vn -0.9575752 0.244590044 -0.152398959
vn -0.9575752 0.244590044 -0.152398959
vn -0.9575752 0.244590044 -0.152398959
vn 0.392259628 -0.07281842 -0.91696775
vn 0.392259628 -0.07281842 -0.91696775
vn 0.392259628 -0.07281842 -0.91696775
vn 0.399915546 -0.09861821 -0.911231041
vn 0.399915546 -0.09861821 -0.911231041
vn 0.399915546 -0.09861821 -0.911231041
vn 0.9694303 -0.23907952 -0.055188518
vn 0.9694303 -0.23907952 -0.055188518
vn 0.9694303 -0.23907952 -0.055188518
vn 0.9770617 -0.201518044 -0.0688547641
vn 0.9770617 -0.201518044 -0.0688547641
vn 0.9770617 -0.201518044 -0.0688547641
vn 0.3835186 0.302107364 -0.8727225
vn 0.3835186 0.302107364 -0.8727225
vn 0.3835186 0.302107364 -0.8727225
vn 0.430906534 0.345511556 -0.8336314
vn 0.430906534 0.345511556 -0.8336314
vn 0.430906534 0.345511556 -0.8336314
vn -0.446411878 0.7128203 0.540928543
vn -0.446411878 0.7128203 0.540928543
vn -0.446411878 0.7128203 0.540928543
vn -0.8488961 0.489682436 -0.198963627
vn -0.8488961 0.489682436 -0.198963627
vn -0.8488961 0.489682436 -0.198963627
vn -0.9345573 0.17161034 -0.311692923
vn -0.9345573 0.17161034 -0.311692923
vn -0.9345573 0.17161034 -0.311692923
vn -0.957890868 0.208592892 -0.197317243
vn -0.957890868 0.208592892 -0.197317243
vn -0.957890868 0.208592892 -0.197317243
vn -0.0101997405 -0.9991192 -0.04070272
vn -0.0101997405 -0.9991192 -0.04070272
vn -0.0101997405 -0.9991192 -0.04070272
vn -0.0161932614 -0.999252439 -0.035104204
vn -0.0161932614 -0.999252439 -0.035104204
vn -0.0161932614 -0.999252439 -0.035104204
vn 0.943614 0.2197168 0.247623026
vn 0.943614 0.2197168 0.247623026
vn 0.943614 0.2197168 0.247623026
vn 0.927454054 0.129307553 0.350868344
vn 0.927454054 0.129307553 0.350868344
vn 0.927454054 0.129307553 0.350868344
vn 0.990107238 0.133875877 -0.0420105755
vn 0.990107238 0.133875877 -0.0420105755
vn 0.990107238 0.133875877 -0.0420105755
vn 0.9840673 0.176003382 0.0251847915
vn 0.9840673 0.176003382 0.0251847915
vn 0.9840673 0.176003382 0.0251847915
vn -0.9723381 0.173730642 -0.156129256
vn -0.9723381 0.173730642 -0.156129256
vn -0.9723381 0.173730642 -0.156129256
vn -0.9782447 -0.006908152 -0.207339182
vn -0.9782447 -0.006908152 -0.207339182
vn -0.9782447 -0.006908152 -0.207339182
vn 0.9766712 0.1550333 0.148586646
vn 0.9766712 0.1550333 0.148586646
vn 0.9766712 0.1550333 0.148586646
vn 0.9986381 -0.004044596 0.05201504
vn 0.9986381 -0.004044596 0.05201504
vn 0.9986381 -0.004044596 0.05201504
vn -0.0241959468 -0.9996823 -0.00705905538
vn -0.0241959468 -0.9996823 -0.00705905538
vn -0.0241959468 -0.9996823 -0.00705905538
vn -0.0304864384 -0.9992053 -0.02567821
vn -0.0304864384 -0.9992053 -0.02567821
vn -0.0304864384 -0.9992053 -0.02567821
vn 0.922783256 -0.230528027 0.30875212
vn 0.922783256 -0.230528027 0.30875212
vn 0.922783256 -0.230528027 0.30875212
vn 0.967452943 -0.0635077 0.2449521
vn 0.967452943 -0.0635077 0.2449521
vn 0.967452943 -0.0635077 0.2449521
vn 0.2227829 0.702479839 0.675936341
vn 0.2227829 0.702479839 0.675936341
vn 0.2227829 0.702479839 0.675936341
vn 0.399160236 -0.1103827 -0.910212457
vn 0.399160236 -0.1103827 -0.910212457
vn 0.399160236 -0.1103827 -0.910212457
vn 0.390143275 -0.0924617648 -0.9160999
vn 0.390143275 -0.0924617648 -0.9160999
vn 0.390143275 -0.0924617648 -0.9160999
vn 0.9882342 -0.138317257 -0.0652802438
vn 0.9882342 -0.138317257 -0.0652802438
vn 0.9882342 -0.138317257 -0.0652802438
vn 0.987246335 -0.147308215 -0.0603731275
vn 0.987246335 -0.147308215 -0.0603731275
vn 0.987246335 -0.147308215 -0.0603731275
vn 0.9580569 -0.156470373 0.2400916
vn 0.9580569 -0.156470373 0.2400916
vn 0.9580569 -0.156470373 0.2400916
vn 0.9401887 -0.216915116 0.262665153
vn 0.9401887 -0.216915116 0.262665153
vn 0.9401887 -0.216915116 0.262665153
vn 0.992242336 -0.1120003 0.053954687
vn 0.992242336 -0.1120003 0.053954687
vn 0.992242336 -0.1120003 0.053954687
vn 0.984206736 -0.175750509 0.0211876146
vn 0.984206736 -0.175750509 0.0211876146
vn 0.984206736 -0.175750509 0.0211876146
vn 0.239485547 0.044789236 0.9698663
vn 0.239485547 0.044789236 0.9698663
vn 0.239485547 0.044789236 0.9698663
vn 0.2251428 0.06631202 0.9720666
vn 0.2251428 0.06631202 0.9720666
vn 0.2251428 0.06631202 0.9720666
vn -0.9444347 0.087645866 0.3167985
vn -0.9444347 0.087645866 0.3167985
vn -0.9444347 0.087645866 0.3167985
vn -0.955541253 0.0468582325 0.291110367
vn -0.955541253 0.0468582325 0.291110367
vn -0.955541253 0.0468582325 0.291110367
vn -0.9433342 0.103485122 -0.3152956
vn -0.9433342 0.103485122 -0.3152956
vn -0.9433342 0.103485122 -0.3152956
vn -0.935077548 0.00694065262 -0.354375154
vn -0.935077548 0.00694065262 -0.354375154
vn -0.935077548 0.00694065262 -0.354375154
vn -0.9782591 -0.005696942 -0.207308114
vn -0.9782591 -0.005696942 -0.207308114
vn -0.9782591 -0.005696942 -0.207308114
vn -0.9760147 -0.0266099554 -0.216072381
vn -0.9760147 -0.0266099554 -0.216072381
vn -0.9760147 -0.0266099554 -0.216072381
vn -0.7852894 0.38460657 -0.485178679
vn -0.7852894 0.38460657 -0.485178679
vn -0.7852894 0.38460657 -0.485178679
vn -0.61374557 0.05498203 -0.787587047
vn -0.61374557 0.05498203 -0.787587047
vn -0.61374557 0.05498203 -0.787587047
vn -0.62531203 0.0113808019 -0.780291855
vn -0.62531203 0.0113808019 -0.780291855
vn -0.62531203 0.0113808019 -0.780291855
vn -0.6251039 -0.0157434884 -0.7803828
vn -0.6251039 -0.0157434884 -0.7803828
vn -0.6251039 -0.0157434884 -0.7803828
vn -0.6340757 -0.0363874622 -0.7724144
vn -0.6340757 -0.0363874622 -0.7724144
vn -0.6340757 -0.0363874622 -0.7724144
vn 0.775209 0.359487981 0.5194414
vn 0.775209 0.359487981 0.5194414
vn 0.775209 0.359487981 0.5194414
vn -0.6570004 0.7475277 0.09773855
vn -0.6570004 0.7475277 0.09773855
vn -0.6570004 0.7475277 0.09773855
vn -0.387415022 0.861340761 0.328636169
vn -0.387415022 0.861340761 0.328636169
vn -0.387415022 0.861340761 0.328636169
vn -0.86987704 0.484240323 -0.09394281
vn -0.86987704 0.484240323 -0.09394281
vn -0.86987704 0.484240323 -0.09394281
vn -0.736267149 0.66057837 -0.146788746
vn -0.736267149 0.66057837 -0.146788746
vn -0.736267149 0.66057837 -0.146788746
vn -0.9818629 0.08350524 -0.170211956
vn -0.9818629 0.08350524 -0.170211956
vn -0.9818629 0.08350524 -0.170211956
vn -0.954873443 0.186535686 -0.231130183
vn -0.954873443 0.186535686 -0.231130183
vn -0.954873443 0.186535686 -0.231130183
vn -0.0121677658 -0.9996054 -0.025317654
vn -0.0121677658 -0.9996054 -0.025317654
vn -0.0121677658 -0.9996054 -0.025317654
vn -0.0121677676 -0.9996054 -0.0253176633
vn 0.99155736 0.115133695 0.0596505366
vn 0.99155736 0.115133695 0.0596505366
vn 0.99155736 0.115133695 0.0596505366
vn 0.9931512 -0.09504786 -0.06794534
vn 0.9931512 -0.09504786 -0.06794534
vn 0.9931512 -0.09504786 -0.06794534
vn 0.7677816 0.558790445 0.313471884
vn 0.7677816 0.558790445 0.313471884
vn 0.7677816 0.558790445 0.313471884
vn 0.982989252 0.17381084 0.0593461655
vn 0.982989252 0.17381084 0.0593461655
vn 0.982989252 0.17381084 0.0593461655
vn 0.2017544 0.8417969 0.500672758
vn 0.2017544 0.8417969 0.500672758
vn 0.2017544 0.8417969 0.500672758
vn 0.294276774 0.7172647 0.631611
vn 0.294276774 0.7172647 0.631611
vn 0.294276774 0.7172647 0.631611
vn -0.136773348 0.9619904 0.236363
vn -0.136773348 0.9619904 0.236363
vn -0.136773348 0.9619904 0.236363
vn -0.0992436558 0.9545812 0.280936629
vn -0.0992436558 0.9545812 0.280936629
vn -0.0992436558 0.9545812 0.280936629
vn 0.0386564136 0.2106178 0.9768039
vn 0.0386564136 0.2106178 0.9768039
vn 0.0386564136 0.2106178 0.9768039
vn 0.2108814 0.278709352 0.936936557
vn 0.2108814 0.278709352 0.936936557
vn 0.2108814 0.278709352 0.936936557
vn -0.804929733 0.5007238 0.3183768
vn -0.804929733 0.5007238 0.3183768
vn -0.804929733 0.5007238 0.3183768
vn 0.428299069 0.0908034 -0.8990632
vn 0.428299069 0.0908034 -0.8990632
vn 0.428299069 0.0908034 -0.8990632
vn 0.425441056 0.09577939 -0.8999034
vn 0.425441056 0.09577939 -0.8999034
vn 0.425441056 0.09577939 -0.8999034
vn 0.9185896 -0.08637827 0.385657847
vn 0.9185896 -0.08637827 0.385657847
vn 0.9185896 -0.08637827 0.385657847
vn 0.9013461 -0.125570536 0.414496362
vn 0.9013461 -0.125570536 0.414496362
vn 0.9013461 -0.125570536 0.414496362
vn 0.997799337 -0.0648814 -0.0136722336
vn 0.997799337 -0.0648814 -0.0136722336
vn 0.997799337 -0.0648814 -0.0136722336
vn 0.9977275 0.0132582681 -0.06606053
vn 0.9977275 0.0132582681 -0.06606053
vn 0.9977275 0.0132582681 -0.06606053
vn -0.825405061 0.109435149 -0.5538325
vn -0.825405061 0.109435149 -0.5538325
vn -0.825405061 0.109435149 -0.5538325
vn -0.825546265 0.109842189 -0.553541362
vn -0.980584443 0.103630371 -0.166478068
vn -0.980584443 0.103630371 -0.166478068
vn -0.980584443 0.103630371 -0.166478068
vn -0.978260159 0.0595528223 -0.198646814
vn -0.978260159 0.0595528223 -0.198646814
vn -0.978260159 0.0595528223 -0.198646814
vn -0.031233374 -0.9992277 -0.02384267
vn -0.031233374 -0.9992277 -0.02384267
vn -0.031233374 -0.9992277 -0.02384267
vn -0.005679515 -0.9991403 -0.04106579
vn -0.005679515 -0.9991403 -0.04106579
vn -0.005679515 -0.9991403 -0.04106579
vn -0.9549933 0.213088259 -0.20635213
vn -0.9549933 0.213088259 -0.20635213
vn -0.9549933 0.213088259 -0.20635213
vn -0.9525366 0.245484129 -0.180032343
vn -0.9525366 0.245484129 -0.180032343
vn -0.9525366 0.245484129 -0.180032343
vn -0.819641531 0.2582775 0.511351645
vn -0.819641531 0.2582775 0.511351645
vn -0.819641531 0.2582775 0.511351645
vn -0.931039035 0.104325637 0.349689126
vn -0.931039035 0.104325637 0.349689126
vn -0.931039035 0.104325637 0.349689126
vn 0.6682195 0.142537713 0.730181932
vn 0.6682195 0.142537713 0.730181932
vn 0.6682195 0.142537713 0.730181932
vn 0.8260097 -0.0937082842 0.5558118
vn 0.8260097 -0.0937082842 0.5558118
vn 0.8260097 -0.0937082842 0.5558118
vn 0.6442168 0.7004994 0.30705902
vn 0.6442168 0.7004994 0.30705902
vn 0.6442168 0.7004994 0.30705902
vn -0.6095436 0.183437914 -0.771237433
vn -0.6095436 0.183437914 -0.771237433
vn -0.6095436 0.183437914 -0.771237433
vn -0.8178162 0.5418417 0.19386676
vn -0.8178162 0.5418417 0.19386676
vn -0.8178162 0.5418417 0.19386676
vn -0.5976205 0.06954453 0.7987573
vn -0.5976205 0.06954453 0.7987573
vn -0.5976205 0.06954453 0.7987573
vn -0.5832041 0.09284452 0.8070024
vn -0.5832041 0.09284452 0.8070024
vn -0.5832041 0.09284452 0.8070024
vn 0.7297717 0.5205041 0.4432931
vn 0.7297717 0.5205041 0.4432931
vn 0.7297717 0.5205041 0.4432931
vn 0.8055436 0.0466807336 0.590694845
vn 0.8055436 0.0466807336 0.590694845
vn 0.8055436 0.0466807336 0.590694845
vn 0.8023448 0.05427004 0.594388366
vn 0.8023448 0.05427004 0.594388366
vn 0.8023448 0.05427004 0.594388366
vn -0.06199576 -0.971204758 0.230038747
vn -0.06199576 -0.971204758 0.230038747
vn -0.06199576 -0.971204758 0.230038747
vn 0.8067394 0.575476646 0.13415724
vn 0.8067394 0.575476646 0.13415724
vn 0.8067394 0.575476646 0.13415724
vn -0.6530678 0.750016034 0.104777843
vn -0.6530678 0.750016034 0.104777843
vn -0.6530678 0.750016034 0.104777843
vn -0.7965032 0.4808943 0.3665015
vn -0.7965032 0.4808943 0.3665015
vn -0.7965032 0.4808943 0.3665015
vn 0.7739454 0.3620844 0.5195223
vn 0.7739454 0.3620844 0.5195223
vn 0.7739454 0.3620844 0.5195223
vn -0.65322113 0.2558776 0.7126211
vn -0.65322113 0.2558776 0.7126211
vn -0.65322113 0.2558776 0.7126211
vn -0.6666397 0.2643514 0.6969289
vn -0.6666397 0.2643514 0.6969289
vn -0.6666397 0.2643514 0.6969289
vn -0.584630966 0.6827768 0.438203752
vn -0.584630966 0.6827768 0.438203752
vn -0.584630966 0.6827768 0.438203752
vn -0.231345356 0.413934261 0.8804191
vn -0.231345356 0.413934261 0.8804191
vn -0.231345356 0.413934261 0.8804191
vn -0.1508411 0.9344147 0.3226704
vn -0.1508411 0.9344147 0.3226704
vn -0.1508411 0.9344147 0.3226704
vn -0.418801546 0.874057949 0.246227548
vn -0.418801546 0.874057949 0.246227548
vn -0.418801546 0.874057949 0.246227548
vn 0.304951131 0.838073 0.4523698
vn 0.304951131 0.838073 0.4523698
vn 0.304951131 0.838073 0.4523698
vn -0.349393457 0.920052946 0.177276149
vn -0.349393457 0.920052946 0.177276149
vn -0.349393457 0.920052946 0.177276149
vn 0.216429055 0.9287404 0.3009979
vn 0.216429055 0.9287404 0.3009979
vn 0.216429055 0.9287404 0.3009979
vn -0.636883259 0.7709486 0.00424026838
vn -0.636883259 0.7709486 0.00424026838
vn -0.636883259 0.7709486 0.00424026838
vn 0.8016602 -0.2655443 -0.535562456
vn 0.8016602 -0.2655443 -0.535562456
vn 0.8016602 -0.2655443 -0.535562456
vn -0.2788966 0.7834985 -0.555289745
vn -0.2788966 0.7834985 -0.555289745
vn -0.2788966 0.7834985 -0.555289745
vn -0.950983346 -0.249077126 -0.183279037
vn -0.950983346 -0.249077126 -0.183279037
vn -0.950983346 -0.249077126 -0.183279037
vn 0.136113 0.87260133 0.4690844
vn 0.136113 0.87260133 0.4690844
vn 0.136113 0.87260133 0.4690844
vn 0.491654634 0.8473393 -0.200728223
vn 0.491654634 0.8473393 -0.200728223
vn 0.491654634 0.8473393 -0.200728223
vn 0.5012065 0.8562853 0.124769814
vn 0.5012065 0.8562853 0.124769814
vn 0.5012065 0.8562853 0.124769814
vn -0.502148 0.784878433 0.363061041
vn -0.502148 0.784878433 0.363061041
vn -0.502148 0.784878433 0.363061041
vn -0.616856635 0.7773447 0.1233821
vn -0.616856635 0.7773447 0.1233821
vn -0.616856635 0.7773447 0.1233821
vn -0.433602154 0.8537361 -0.2883121
vn -0.433602154 0.8537361 -0.2883121
vn -0.433602154 0.8537361 -0.2883121
vn -0.837720454 0.07512309 0.540907562
vn -0.837720454 0.07512309 0.540907562
vn -0.837720454 0.07512309 0.540907562
vn 0.964708149 0.19083716 0.181436867
vn 0.964708149 0.19083716 0.181436867
vn 0.964708149 0.19083716 0.181436867
vn 0.228457332 0.8760395 -0.4246905
vn 0.228457332 0.8760395 -0.4246905
vn 0.228457332 0.8760395 -0.4246905
vn -0.122698821 0.7961452 -0.5925351
vn -0.122698821 0.7961452 -0.5925351
vn -0.122698821 0.7961452 -0.5925351
vn -0.77885747 -0.25119558 -0.574701548
vn -0.77885747 -0.25119558 -0.574701548
vn -0.77885747 -0.25119558 -0.574701548
vn 0.304846853 0.7987679 -0.5186889
vn 0.304846853 0.7987679 -0.5186889
vn 0.304846853 0.7987679 -0.5186889
vn 0.9573186 -0.248070091 -0.148331687
vn 0.9573186 -0.248070091 -0.148331687
vn 0.9573186 -0.248070091 -0.148331687
vn -0.154442891 0.85859 0.488846153
vn -0.154442891 0.85859 0.488846153
vn -0.154442891 0.85859 0.488846153
vn -0.480062157 0.8549634 -0.196412534
vn -0.480062157 0.8549634 -0.196412534
vn -0.480062157 0.8549634 -0.196412534
vn -0.5039247 0.854115963 0.128630608
vn -0.5039247 0.854115963 0.128630608
vn -0.5039247 0.854115963 0.128630608
vn 0.487232536 0.77201134 0.408170164
vn 0.487232536 0.77201134 0.408170164
vn 0.487232536 0.77201134 0.408170164
vn 0.6123381 0.7713066 0.173574567
vn 0.6123381 0.7713066 0.173574567
vn 0.6123381 0.7713066 0.173574567
vn 0.4476726 0.8604768 -0.243246764
vn 0.4476726 0.8604768 -0.243246764
vn 0.4476726 0.8604768 -0.243246764
vn 0.8141218 0.0597965866 0.5776073
vn 0.8141218 0.0597965866 0.5776073
vn 0.8141218 0.0597965866 0.5776073
vn -0.9712569 0.188866243 0.144877672
vn -0.9712569 0.188866243 0.144877672
vn -0.9712569 0.188866243 0.144877672
vn -0.207187667 0.8892892 -0.40772298
vn -0.207187667 0.8892892 -0.40772298
vn -0.207187667 0.8892892 -0.40772298
vn 0.150616154 0.813079536 -0.5623312
vn 0.150616154 0.813079536 -0.5623312
vn 0.150616154 0.813079536 -0.5623312
usemtl 9SHADO0004_part_0_material_0
f 1/1/1 2/2/2 3/3/3
f 4/4/4 5/5/5 6/6/6
f 6/6/6 7/7/7 4/4/4
f 8/8/8 9/9/9 10/10/10
f 11/11/11 12/12/12 13/13/13
f 14/14/14 15/15/15 16/16/16
f 17/17/17 18/18/18 19/19/19
f 20/20/20 21/21/21 22/22/22
f 23/23/23 24/24/24 25/25/25
f 26/26/26 27/27/27 28/28/28
f 29/29/29 30/30/30 31/31/31
f 32/32/32 33/33/33 34/34/34
f 35/35/35 36/36/36 37/37/37
f 38/38/38 39/39/39 40/40/40
f 41/41/41 42/42/42 43/43/43
f 44/44/44 45/45/45 46/46/46
f 47/47/47 48/48/48 49/49/49
f 50/50/50 51/51/51 52/52/52
f 53/53/53 54/54/54 55/55/55
f 56/56/56 57/57/57 58/58/58
f 59/59/59 60/60/60 61/61/61
f 62/62/62 63/63/63 64/64/64
f 65/65/65 66/66/66 67/67/67
f 68/68/68 69/69/69 70/70/70
f 71/71/71 72/72/72 73/73/73
f 74/74/74 75/75/75 76/76/76
f 77/77/77 78/78/78 79/79/79
f 80/80/80 81/81/81 82/82/82
f 83/83/83 84/84/84 85/85/85
f 86/86/86 87/87/87 88/88/88
f 89/89/89 90/90/90 91/91/91
f 92/92/92 93/93/93 94/94/94
f 95/95/95 96/96/96 97/97/97
f 98/98/98 99/99/99 100/100/100
f 101/101/101 102/102/102 103/103/103
f 104/104/104 105/105/105 106/106/106
f 107/107/107 108/108/108 109/109/109
f 110/110/110 111/111/111 112/112/112
f 113/113/113 114/114/114 115/115/115
f 116/116/116 117/117/117 118/118/118
f 119/119/119 120/120/120 121/121/121
f 122/122/122 123/123/123 124/124/124
f 125/125/125 126/126/126 127/127/127
f 128/128/128 129/129/129 130/130/130
f 131/131/131 132/132/132 133/133/133
f 134/134/134 135/135/135 136/136/136
f 137/137/137 138/138/138 139/139/139
f 140/140/140 141/141/141 142/142/142
f 143/143/143 144/144/144 145/145/145
f 146/146/146 147/147/147 148/148/148
f 149/149/149 150/150/150 151/151/151
f 152/152/152 153/153/153 154/154/154
f 155/155/155 156/156/156 157/157/157
f 158/158/158 159/159/159 160/160/160
f 161/161/161 162/162/162 163/163/163
f 164/164/164 165/165/165 166/166/166
f 167/167/167 168/168/168 169/169/169
f 170/170/170 171/171/171 172/172/172
f 172/172/172 173/173/173 170/170/170
f 174/174/174 175/175/175 176/176/176
f 177/177/177 178/178/178 179/179/179
f 180/180/180 181/181/181 182/182/182
f 183/183/183 184/184/184 185/185/185
f 186/186/186 187/187/187 188/188/188
f 189/189/189 190/190/190 191/191/191
f 192/192/192 193/193/193 194/194/194
f 195/195/195 196/196/196 197/197/197
f 198/198/198 199/199/199 200/200/200
f 201/201/201 202/202/202 203/203/203
f 204/204/204 205/205/205 206/206/206
f 207/207/207 208/208/208 209/209/209
f 210/210/210 211/211/211 212/212/212
f 213/213/213 214/214/214 215/215/215
f 216/216/216 217/217/217 218/218/218
f 219/219/219 220/220/220 221/221/221
f 222/222/222 223/223/223 224/224/224
f 225/225/225 226/226/226 227/227/227
f 227/227/227 228/228/228 225/225/225
f 229/229/229 230/230/230 231/231/231
f 232/232/232 233/233/233 234/234/234
f 235/235/235 236/236/236 237/237/237
f 238/238/238 239/239/239 240/240/240
f 241/241/241 242/242/242 243/243/243
f 244/244/244 245/245/245 246/246/246
f 247/247/247 248/248/248 249/249/249
f 250/250/250 251/251/251 252/252/252
f 253/253/253 254/254/254 255/255/255
f 256/256/256 257/257/257 258/258/258
f 259/259/259 260/260/260 261/261/261
f 262/262/262 263/263/263 264/264/264
f 265/265/265 266/266/266 267/267/267
f 268/268/268 269/269/269 270/270/270
f 271/271/271 272/272/272 273/273/273
f 274/274/274 275/275/275 276/276/276
f 277/277/277 278/278/278 279/279/279
f 280/280/280 281/281/281 282/282/282
f 283/283/283 284/284/284 285/285/285
f 286/286/286 287/287/287 288/288/288
f 289/289/289 290/290/290 291/291/291
f 292/292/292 293/293/293 294/294/294
f 295/295/295 296/296/296 297/297/297
f 298/298/298 299/299/299 300/300/300
f 301/301/301 302/302/302 303/303/303
f 304/304/304 305/305/305 306/306/306
f 307/307/307 308/308/308 309/309/309
f 310/310/310 311/311/311 312/312/312
f 313/313/313 314/314/314 315/315/315
f 316/316/316 317/317/317 318/318/318
f 319/319/319 320/320/320 321/321/321
f 322/322/322 323/323/323 324/324/324
f 325/325/325 326/326/326 327/327/327
f 328/328/328 329/329/329 330/330/330
f 331/331/331 332/332/332 333/333/333
f 333/333/333 334/334/334 331/331/331
f 335/335/335 336/336/336 337/337/337
f 338/338/338 339/339/339 340/340/340
f 341/341/341 342/342/342 343/343/343
f 344/344/344 345/345/345 346/346/346
f 347/347/347 348/348/348 349/349/349
f 350/350/350 351/351/351 352/352/352
f 353/353/353 354/354/354 355/355/355
f 356/356/356 357/357/357 358/358/358
f 359/359/359 360/360/360 361/361/361
f 362/362/362 363/363/363 364/364/364
f 365/365/365 366/366/366 367/367/367
f 368/368/368 369/369/369 370/370/370
f 371/371/371 372/372/372 373/373/373
f 374/374/374 375/375/375 376/376/376
f 377/377/377 378/378/378 379/379/379
f 380/380/380 381/381/381 382/382/382
f 383/383/383 384/384/384 385/385/385
f 386/386/386 387/387/387 388/388/388
f 389/389/389 390/390/390 391/391/391
f 392/392/392 393/393/393 394/394/394
f 395/395/395 396/396/396 397/397/397
f 398/398/398 399/399/399 400/400/400
f 401/401/401 402/402/402 403/403/403
f 404/404/404 405/405/405 406/406/406
f 407/407/407 408/408/408 409/409/409
f 410/410/410 411/411/411 412/412/412
f 413/413/413 414/414/414 415/415/415
f 416/416/416 417/417/417 418/418/418
f 419/419/419 420/420/420 421/421/421
f 422/422/422 423/423/423 424/424/424
f 425/425/425 426/426/426 427/427/427
f 428/428/428 429/429/429 430/430/430
f 431/431/431 432/432/432 433/433/433
f 434/434/434 435/435/435 436/436/436
f 437/437/437 438/438/438 439/439/439
f 440/440/440 441/441/441 442/442/442
f 443/443/443 444/444/444 445/445/445
f 446/446/446 447/447/447 448/448/448
f 449/449/449 450/450/450 451/451/451
f 452/452/452 453/453/453 454/454/454
f 455/455/455 456/456/456 457/457/457
f 458/458/458 459/459/459 460/460/460
f 461/461/461 462/462/462 463/463/463
f 464/464/464 465/465/465 466/466/466
f 467/467/467 468/468/468 469/469/469
f 470/470/470 471/471/471 472/472/472
f 473/473/473 474/474/474 475/475/475
f 476/476/476 477/477/477 478/478/478
f 479/479/479 480/480/480 481/481/481
f 482/482/482 483/483/483 484/484/484
f 485/485/485 486/486/486 487/487/487
f 488/488/488 489/489/489 490/490/490
f 491/491/491 492/492/492 493/493/493
f 494/494/494 495/495/495 496/496/496
f 497/497/497 498/498/498 499/499/499
f 499/499/499 500/500/500 497/497/497
f 501/501/501 502/502/502 503/503/503
f 504/504/504 505/505/505 506/506/506
f 507/507/507 508/508/508 509/509/509
f 510/510/510 511/511/511 512/512/512
f 513/513/513 514/514/514 515/515/515
f 516/516/516 517/517/517 518/518/518
f 519/519/519 520/520/520 521/521/521
f 522/522/522 523/523/523 524/524/524
f 525/525/525 526/526/526 527/527/527
f 528/528/528 529/529/529 530/530/530
f 531/531/531 532/532/532 533/533/533
f 534/534/534 535/535/535 536/536/536
f 537/537/537 538/538/538 539/539/539
f 540/540/540 541/541/541 542/542/542
f 543/543/543 544/544/544 545/545/545
f 546/546/546 547/547/547 548/548/548
f 549/549/549 550/550/550 551/551/551
f 552/552/552 553/553/553 554/554/554
f 554/554/554 555/555/555 552/552/552
f 556/556/556 557/557/557 558/558/558
f 559/559/559 560/560/560 561/561/561
f 562/562/562 563/563/563 564/564/564
f 565/565/565 566/566/566 567/567/567
f 568/568/568 569/569/569 570/570/570
f 571/571/571 572/572/572 573/573/573
f 574/574/574 575/575/575 576/576/576
f 577/577/577 578/578/578 579/579/579
f 580/580/580 581/581/581 582/582/582
f 583/583/583 584/584/584 585/585/585
f 586/586/586 587/587/587 588/588/588
f 589/589/589 590/590/590 591/591/591
f 592/592/592 593/593/593 594/594/594
f 595/595/595 596/596/596 597/597/597
f 598/598/598 599/599/599 600/600/600
f 601/601/601 602/602/602 603/603/603
f 604/604/604 605/605/605 606/606/606
f 607/607/607 608/608/608 609/609/609
f 610/610/610 611/611/611 612/612/612
f 613/613/613 614/614/614 615/615/615
f 616/616/616 617/617/617 618/618/618
f 619/619/619 620/620/620 621/621/621
f 622/622/622 623/623/623 624/624/624
f 625/625/625 626/626/626 627/627/627
f 628/628/628 629/629/629 630/630/630
f 631/631/631 632/632/632 633/633/633
f 634/634/634 635/635/635 636/636/636
f 637/637/637 638/638/638 639/639/639
f 640/640/640 641/641/641 642/642/642
f 643/643/643 644/644/644 645/645/645
f 646/646/646 647/647/647 648/648/648
f 649/649/649 650/650/650 651/651/651
f 652/652/652 653/653/653 654/654/654
f 655/655/655 656/656/656 657/657/657
f 658/658/658 659/659/659 660/660/660
f 661/661/661 662/662/662 663/663/663
f 664/664/664 665/665/665 666/666/666
f 667/667/667 668/668/668 669/669/669
f 670/670/670 671/671/671 672/672/672
f 673/673/673 674/674/674 675/675/675
f 676/676/676 677/677/677 678/678/678
f 679/679/679 680/680/680 681/681/681
f 682/682/682 683/683/683 684/684/684
f 685/685/685 686/686/686 687/687/687
f 688/688/688 689/689/689 690/690/690
f 691/691/691 692/692/692 693/693/693
f 694/694/694 695/695/695 696/696/696
f 697/697/697 698/698/698 699/699/699
f 700/700/700 701/701/701 702/702/702
f 703/703/703 704/704/704 705/705/705
f 706/706/706 707/707/707 708/708/708
f 709/709/709 710/710/710 711/711/711
f 712/712/712 713/713/713 714/714/714
f 715/715/715 716/716/716 717/717/717
f 718/718/718 719/719/719 720/720/720
f 721/721/721 722/722/722 723/723/723
f 724/724/724 725/725/725 726/726/726
f 727/727/727 728/728/728 729/729/729
f 730/730/730 731/731/731 732/732/732
