mtllib grego11003.mtl
o grego11003_part_0
v 0.359220326 1.27139878 -0.0450425036
v 0.369979769 1.19959128 0.0237988848
v 0.470414758 1.27353251 -0.109522887
v 0.5271947 1.21081245 -0.08551875
v 0.32336852 1.14252639 -0.1141032
v 0.3949609 1.14822888 0.009814006
v 0.375083953 1.08448315 -0.08724226
v 0.32336852 1.14252639 -0.1141032
v 0.433904082 1.1521374 -0.232503369
v 0.375083953 1.08448315 -0.08724226
v 0.457754821 1.10188365 -0.182839453
v 0.6068807 1.03294063 -0.0128705315
v 0.486648142 1.15192747 -0.07965788
v 0.546168864 1.04664135 0.05632383
v 0.3949609 1.14822888 0.009814006
v 0.486648142 1.15192747 -0.07965788
v 0.3641984 0.9864638 0.07495178
v 0.364295542 1.09016562 0.07136111
v 0.375083953 1.08448315 -0.08724226
v 0.3949609 1.14822888 0.009814006
v 0.364295542 1.09016562 0.07136111
v 0.4641521 1.03128088 0.08528899
v 0.5832057 0.982105434 -0.139067426
v 0.517338037 0.9482211 -0.15672113
v 0.457754821 1.10188365 -0.182839453
v 0.517338037 0.9482211 -0.15672113
v 0.510254443 0.9954837 0.06583615
v 0.58502394 0.9176494 0.09141102
v 0.5655602 0.82953614 0.111117966
v 0.607409954 0.894870162 0.0384877734
v 0.567003667 0.809376955 0.06534765
v 0.538237751 0.8782008 -0.125509724
v 0.5392616 0.9115508 0.0344879
v 0.542539656 0.9193696 0.0921034142
v 0.5374414 0.843346536 0.109808579
v 0.417643249 0.9211612 0.202755362
v 0.469650716 0.963080764 0.1903329
v 0.3742065 1.04173148 0.120859884
v 0.5362594 0.8281336 0.0624146461
v 0.5374414 0.843346536 0.109808579
v 0.542539656 0.9193696 0.0921034142
v 0.567003667 0.809376955 0.06534765
v 0.5655602 0.82953614 0.111117966
v 0.4632607 0.9068373 0.169149578
v 0.4764395 0.982959867 0.0847675651
v 0.3742065 1.04173148 0.120859884
v 0.417643249 0.9211612 0.202755362
v 0.4764395 0.982959867 0.0847675651
v 0.4632607 0.9068373 0.169149578
v 0.5890893 0.875845 -0.103982233
v 0.538237751 0.8782008 -0.125509724
v 0.510254443 0.9954837 0.06583615
v 0.5185861 0.8003881 -0.0900808349
v 0.477911025 0.8132047 0.03509008
v 0.5185861 0.8003881 -0.0900808349
v 0.5147791 0.789400637 0.0434597731
v 0.5147791 0.789400637 0.0434597731
v 0.477911025 0.8132047 0.03509008
v 0.5392616 0.9115508 0.0344879
v 0.607409954 0.894870162 0.0384877734
v 0.336443871 1.21142733 -0.160832912
v 0.336443871 1.21142733 -0.160832912
v 0.401856959 1.22204566 -0.199175134
v 0.457754821 1.10188365 -0.182839453
v -0.498769373 1.22286785 -0.04115037
v -0.333793372 1.21943557 0.0566449165
v -0.452351153 1.28692341 -0.0677122548
v -0.3368462 1.29020119 -0.01137095
v -0.342734158 1.10628164 -0.05806592
v -0.294649482 1.16351926 -0.08402173
v -0.355730057 1.16551256 0.0431641266
v -0.438632 1.11923361 -0.14111577
v -0.413690239 1.16735578 -0.194220021
v -0.342734158 1.10628164 -0.05806592
v -0.294649482 1.16351926 -0.08402173
v -0.355730057 1.16551256 0.0431641266
v -0.4585605 1.163673 -0.0330644846
v -0.479656875 1.03866708 0.106301248
v -0.550375044 1.02162325 0.04824992
v -0.4585605 1.163673 -0.0330644846
v -0.355730057 1.16551256 0.0431641266
v -0.304910362 1.10535657 0.09726805
v -0.342734158 1.10628164 -0.05806592
v -0.291367 1.00321066 0.0850305259
v -0.392939717 1.03117239 0.116768375
v -0.304910362 1.10535657 0.09726805
v -0.438632 1.11923361 -0.14111577
v -0.480434269 0.959987342 -0.116666988
v -0.5453116 0.9832923 -0.0843226
v -0.4366712 0.992343068 0.104361475
v -0.480434269 0.959987342 -0.116666988
v -0.477821469 0.8005898 0.103453122
v -0.473939925 0.8183485 0.150068134
v -0.5291044 0.882582843 0.08583488
v -0.504052341 0.9047993 0.137793735
v -0.463714868 0.9066223 0.0766284242
v -0.475027531 0.8820471 -0.08455656
v -0.447626442 0.835128069 0.147042125
v -0.4620978 0.9110007 0.134677038
v -0.3002982 1.04997456 0.1397626
v -0.372243822 0.949834 0.20988901
v -0.314102948 0.9147309 0.207949027
v -0.4620978 0.9110007 0.134677038
v -0.447626442 0.835128069 0.147042125
v -0.449568152 0.822645962 0.09888154
v -0.473939925 0.8183485 0.150068134
v -0.477821469 0.8005898 0.103453122
v -0.399058759 0.9820548 0.110752329
v -0.36258167 0.8983694 0.179707453
v -0.314102948 0.9147309 0.207949027
v -0.3002982 1.04997456 0.1397626
v -0.36258167 0.8983694 0.179707453
v -0.399058759 0.9820548 0.110752329
v -0.52302146 0.873151839 -0.0586274266
v -0.475027531 0.8820471 -0.08455656
v -0.4366712 0.992343068 0.104361475
v -0.3929733 0.815484047 0.06541865
v -0.444228053 0.805015564 -0.0560303219
v -0.444228053 0.805015564 -0.0560303219
v -0.42624557 0.7874769 0.0756410062
v -0.42624557 0.7874769 0.0756410062
v -0.463714868 0.9066223 0.0766284242
v -0.3929733 0.815484047 0.06541865
v -0.5291044 0.882582843 0.08583488
v -0.3197399 1.230478 -0.12826103
v -0.388138533 1.2379005 -0.161850929
v -0.3197399 1.230478 -0.12826103
v -0.438632 1.11923361 -0.14111577
vt 0.261791 0.991747
vt 0.261922 0.883455
vt 0.492543 0.992285
vt 0.49224 0.883484
vt 0.00792751 0.883444
vt 0.262052 0.763692
vt 0.00741423 0.76335
vt 0.992748 0.883444
vt 0.740019 0.88339
vt 0.992235 0.76335
vt 0.740785 0.763045
vt 0.275860846 0.455026865
vt 0.287526757 0.7309396
vt 0.396236241 0.449446976
vt 0.4559231 0.709495544
vt 0.491936 0.763479
vt 0.7054028 0.461267233
vt 0.663280845 0.3806523
vt 0.8489204 0.280954361
vt 0.7384728 0.254037142
vt 0.5579905 0.630068243
vt 0.474030375 0.459322453
vt 0.08386499 0.467186868
vt 0.008790305 0.474073768
vt 0.0835478455 0.742173254
vt 0.9948369 0.530017436
vt 0.787813962 0.490672231
vt 0.3953621 0.263776124
vt 0.409817666 0.115986764
vt 0.282779634 0.2588032
vt 0.3355705 0.109085858
vt 0.994547 0.613259
vt 0.8285941 0.5943997
vt 0.433110923 0.266638637
vt 0.4426645 0.126918375
vt 0.6256317 0.2970841
vt 0.569895864 0.332783461
vt 0.610111833 0.502421141
vt 0.7980543 0.663009
vt 0.753451765 0.6500769
vt 0.7680415 0.5790801
vt 0.8189635 0.7177722
vt 0.7421627 0.7028995
vt 0.5277778 0.265165329
vt 0.4719257 0.3709305
vt 0.646788239 0.436356425
vt 0.6068013 0.5903785
vt 0.741440058 0.5141357
vt 0.6801762 0.6202143
vt 0.08771634 0.272061229
vt 0.00497880857 0.273367763
vt 0.4356788 0.3801635
vt 0.992394567 0.703727663
vt 0.843074 0.703479
vt 0.09229689 0.09686315
vt 0.2604753 0.08087093
vt 0.8569876 0.7475586
vt 0.2909634 0.08862656
vt 0.3004402 0.175475955
vt 0.8379357 0.668400347
vt 0.00819816 0.991714
vt 0.993019 0.991714
vt 0.740321 0.991854
vt 0.9970256 0.300636768
vt 0.49224 0.883484
vt 0.261922 0.883455
vt 0.492543 0.992285
vt 0.261791 0.991747
vt 0.00741423 0.76335
vt 0.00792751 0.883444
vt 0.262052 0.763692
vt 0.740785 0.763045
vt 0.740019 0.88339
vt 0.992235 0.76335
vt 0.992748 0.883444
vt 0.4559231 0.709495544
vt 0.287526757 0.7309396
vt 0.396236241 0.449446976
vt 0.275860846 0.455026865
vt 0.491936 0.763479
vt 0.7384728 0.254037142
vt 0.663280845 0.3806523
vt 0.8489204 0.280954361
vt 0.7054028 0.461267233
vt 0.474030375 0.459322453
vt 0.5579905 0.630068243
vt 0.0835478455 0.742173254
vt 0.008790305 0.474073768
vt 0.08386499 0.467186868
vt 0.787813962 0.490672231
vt 0.9948369 0.530017436
vt 0.3355705 0.109085858
vt 0.409817666 0.115986764
vt 0.282779634 0.2588032
vt 0.3953621 0.263776124
vt 0.8285941 0.5943997
vt 0.994547 0.613259
vt 0.4426645 0.126918375
vt 0.433110923 0.266638637
vt 0.610111833 0.502421141
vt 0.569895864 0.332783461
vt 0.6256317 0.2970841
vt 0.7680415 0.5790801
vt 0.753451765 0.6500769
vt 0.7980543 0.663009
vt 0.7421627 0.7028995
vt 0.8189635 0.7177722
vt 0.4719257 0.3709305
vt 0.5277778 0.265165329
vt 0.6068013 0.5903785
vt 0.646788239 0.436356425
vt 0.6801762 0.6202143
vt 0.741440058 0.5141357
vt 0.08771634 0.272061229
vt 0.00497880857 0.273367763
vt 0.4356788 0.3801635
vt 0.843074 0.703479
vt 0.992394567 0.703727663
vt 0.09229689 0.09686315
vt 0.2604753 0.08087093
vt 0.8569876 0.7475586
vt 0.3004402 0.175475955
vt 0.2909634 0.08862656
vt 0.8379357 0.668400347
vt 0.00819816 0.991714
vt 0.740321 0.991854
vt 0.993019 0.991714
vt 0.9970256 0.300636768
vn -0.507953 0.555240154 0.658553064
vn -0.343580753 0.1700343 0.923602
vn 0.6893875 0.722194552 0.056390997
vn 0.9635642 0.1849913 0.193189576
vn -0.9392214 -0.316363275 -0.133332372
vn -0.281593949 0.3029141 0.9104658
vn -0.779027641 -0.6000733 -0.1817361
vn -0.9392214 -0.316363275 -0.133332372
vn 0.08702422 -0.1587151 -0.9834817
vn -0.779027641 -0.6000733 -0.1817361
vn 0.2236262 -0.3661648 -0.90327996
vn 0.89531225 0.435196251 0.09497497
vn 0.959000051 0.08771162 0.2694913
vn 0.4471013 0.529097438 0.721218646
vn -0.281593949 0.3029141 0.9104658
vn 0.959000051 0.08771162 0.2694913
vn -0.7603206 -0.6062419 -0.233202338
vn -0.6362984 0.5801227 0.5085095
vn -0.779027641 -0.6000733 -0.1817361
vn -0.281593949 0.3029141 0.9104658
vn -0.6362984 0.5801227 0.5085095
vn 0.436779052 0.5354738 0.722835958
vn 0.7431911 0.10460788 -0.660851061
vn -0.358394027 -0.500264943 -0.7882187
vn 0.2236262 -0.3661648 -0.90327996
vn -0.358394027 -0.500264943 -0.7882187
vn -0.3252237 -0.4422185 0.8358662
vn 0.592863 0.1735731 0.7863751
vn 0.309856117 -0.539974749 0.7825704
vn 0.9578633 -0.261856616 0.118021473
vn 0.247225031 -0.9254378 -0.287131727
vn -0.467054546 -0.382644325 -0.797147036
vn -0.98935014 -0.113776267 0.09078154
vn -0.6121135 0.110455476 0.7830177
vn -0.6597722 -0.211214021 0.721172154
vn -0.417464554 -0.505249441 0.755279
vn 0.630399048 0.2706066 0.727577567
vn -0.5404428 0.5085552 0.670293331
vn -0.735849261 -0.5321595 -0.418726832
vn -0.6597722 -0.211214021 0.721172154
vn -0.6121135 0.110455476 0.7830177
vn 0.247225031 -0.9254378 -0.287131727
vn 0.309856117 -0.539974749 0.7825704
vn 0.464084655 -0.883296 0.06643469
vn 0.723463058 -0.6621188 -0.195447981
vn -0.5404428 0.5085552 0.670293331
vn -0.417464554 -0.505249441 0.755279
vn 0.723463058 -0.6621188 -0.195447981
vn 0.464084655 -0.883296 0.06643469
vn 0.777169764 -0.406252176 -0.480589569
vn -0.467054546 -0.382644325 -0.797147036
vn -0.3252237 -0.4422185 0.8358662
vn -0.3537809 -0.742998362 -0.5681483
vn -0.90763706 -0.128052711 0.399746716
vn -0.3537809 -0.742998362 -0.5681483
vn 0.0621308871 -0.784077644 0.6175451
vn 0.0621308871 -0.784077644 0.6175451
vn -0.90763706 -0.128052711 0.399746716
vn -0.98935014 -0.113776267 0.09078154
vn 0.9578633 -0.261856616 0.118021473
vn -0.8219862 -0.247110382 -0.5131034
vn -0.8219862 -0.247110382 -0.5131034
vn -0.1249456 0.2779273 -0.9524416
vn 0.2236262 -0.3661648 -0.90327996
vn -0.9526513 0.152441189 0.2630916
vn 0.40543285 0.1957388 0.892922461
vn -0.74192977 0.65988183 0.118727416
vn 0.4992886 0.6115056 0.6138174
vn 0.779338837 -0.5445859 -0.3099309
vn 0.945607066 -0.252452433 -0.205170676
vn 0.301834464 0.291882545 0.9075795
vn -0.3756537 -0.339633018 -0.862284
vn -0.1266116 -0.166100562 -0.9779469
vn 0.779338837 -0.5445859 -0.3099309
vn 0.945607066 -0.252452433 -0.205170676
vn 0.301834464 0.291882545 0.9075795
vn -0.9127999 0.07397225 0.4016522
vn -0.349429131 0.429504484 0.832721531
vn -0.9101353 0.307290345 0.2778963
vn -0.9127999 0.07397225 0.4016522
vn 0.301834464 0.291882545 0.9075795
vn 0.6203503 0.6255551 0.473123938
vn 0.779338837 -0.5445859 -0.3099309
vn 0.7827141 -0.45605576 -0.423522949
vn -0.346311659 0.387449384 0.854371846
vn 0.6203503 0.6255551 0.473123938
vn -0.3756537 -0.339633018 -0.862284
vn 0.241467744 -0.391666323 -0.887857437
vn -0.869132638 0.02351743 -0.494019628
vn 0.551727057 -0.4452327 0.7052412
vn 0.241467744 -0.391666323 -0.887857437
vn -0.179359138 -0.9301035 -0.320527345
vn -0.175384939 -0.610408545 0.7724257
vn -0.905357063 -0.380041957 0.189464331
vn -0.5206858 0.06438915 0.8513168
vn 0.999397 -0.0100270389 -0.0332434736
vn 0.48164776 -0.235928923 -0.844010055
vn 0.745305657 -0.177359045 0.642699957
vn 0.6663719 0.132206351 0.7338051
vn 0.5780315 0.490759134 0.651947141
vn -0.5279753 0.07843896 0.8456296
vn 0.5976001 -0.532475 0.5994535
vn 0.6663719 0.132206351 0.7338051
vn 0.745305657 -0.177359045 0.642699957
vn 0.7412329 -0.427862227 -0.517211556
vn -0.175384939 -0.610408545 0.7724257
vn -0.179359138 -0.9301035 -0.320527345
vn -0.6617885 -0.699546635 -0.2695745
vn -0.33331573 -0.942815244 -0.000189031372
vn 0.5976001 -0.532475 0.5994535
vn 0.5780315 0.490759134 0.651947141
vn -0.33331573 -0.942815244 -0.000189031372
vn -0.6617885 -0.699546635 -0.2695745
vn -0.7639246 -0.495304227 -0.413633823
vn 0.48164776 -0.235928923 -0.844010055
vn 0.551727057 -0.4452327 0.7052412
vn 0.9507527 -0.051425375 0.305654645
vn 0.369632632 -0.670071959 -0.6437199
vn 0.369632632 -0.670071959 -0.6437199
vn 0.0783589855 -0.8176708 0.570328236
vn 0.0783589855 -0.8176708 0.570328236
vn 0.999397 -0.0100270389 -0.0332434736
vn 0.9507527 -0.051425375 0.305654645
vn -0.905357063 -0.380041957 0.189464331
vn 0.787375033 -0.15608573 -0.5963873
vn 0.0170226377 0.318892241 -0.9476381
vn 0.787375033 -0.15608573 -0.5963873
vn -0.3756537 -0.339633018 -0.862284
usemtl grego11003_part_0_material_0
f 1/1/1 2/2/2 3/3/3
f 4/4/4 3/3/3 2/2/2
f 2/2/2 5/5/5 6/6/6
f 7/7/7 6/6/6 5/5/5
f 8/8/8 9/9/9 10/10/10
f 11/11/11 10/10/10 9/9/9
f 12/12/12 13/13/13 14/14/14
f 15/15/15 14/14/14 13/13/13
f 9/9/9 4/4/4 11/11/11
f 16/16/16 11/11/11 4/4/4
f 17/17/17 18/18/18 19/19/19
f 20/20/20 19/19/19 18/18/18
f 15/15/15 21/21/21 22/22/22
f 23/23/23 24/24/24 25/25/25
f 26/26/26 27/27/27 19/19/19
f 28/28/28 29/29/29 30/30/30
f 31/31/31 30/30/30 29/29/29
f 32/32/32 33/33/33 26/26/26
f 27/27/27 26/26/26 33/33/33
f 28/28/28 34/34/34 29/29/29
f 35/35/35 29/29/29 34/34/34
f 36/36/36 37/37/37 38/38/38
f 39/39/39 40/40/40 33/33/33
f 41/41/41 33/33/33 40/40/40
f 39/39/39 42/42/42 40/40/40
f 43/43/43 40/40/40 42/42/42
f 44/44/44 45/45/45 37/37/37
f 22/22/22 37/37/37 45/45/45
f 46/46/46 17/17/17 47/47/47
f 37/37/37 36/36/36 44/44/44
f 22/22/22 21/21/21 38/38/38
f 17/17/17 46/46/46 18/18/18
f 17/17/17 19/19/19 27/27/27
f 17/17/17 48/48/48 49/49/49
f 47/47/47 17/17/17 49/49/49
f 25/25/25 13/13/13 23/23/23
f 12/12/12 23/23/23 13/13/13
f 30/30/30 50/50/50 12/12/12
f 23/23/23 12/12/12 50/50/50
f 23/23/23 50/50/50 24/24/24
f 51/51/51 24/24/24 50/50/50
f 52/52/52 34/34/34 14/14/14
f 28/28/28 14/14/14 34/34/34
f 30/30/30 12/12/12 28/28/28
f 14/14/14 28/28/28 12/12/12
f 32/32/32 53/53/53 33/33/33
f 54/54/54 33/33/33 53/53/53
f 33/33/33 41/41/41 27/27/27
f 50/50/50 55/55/55 51/51/51
f 55/55/55 50/50/50 56/56/56
f 30/30/30 56/56/56 50/50/50
f 53/53/53 57/57/57 54/54/54
f 58/58/58 56/56/56 59/59/59
f 30/30/30 59/59/59 56/56/56
f 39/39/39 33/33/33 42/42/42
f 60/60/60 42/42/42 33/33/33
f 45/45/45 52/52/52 22/22/22
f 14/14/14 22/22/22 52/52/52
f 17/17/17 27/27/27 48/48/48
f 15/15/15 22/22/22 14/14/14
f 38/38/38 37/37/37 22/22/22
f 16/16/16 4/4/4 6/6/6
f 2/2/2 6/6/6 4/4/4
f 1/1/1 61/61/61 2/2/2
f 5/5/5 2/2/2 61/61/61
f 62/62/62 63/63/63 8/8/8
f 9/9/9 8/8/8 63/63/63
f 63/63/63 3/3/3 9/9/9
f 4/4/4 9/9/9 3/3/3
f 64/64/64 26/26/26 19/19/19
f 65/65/65 66/66/66 67/67/67
f 68/68/68 67/67/67 66/66/66
f 69/69/69 70/70/70 71/71/71
f 66/66/66 71/71/71 70/70/70
f 72/72/72 73/73/73 74/74/74
f 75/75/75 74/74/74 73/73/73
f 76/76/76 77/77/77 78/78/78
f 79/79/79 78/78/78 77/77/77
f 80/80/80 65/65/65 72/72/72
f 73/73/73 72/72/72 65/65/65
f 81/81/81 82/82/82 83/83/83
f 84/84/84 83/83/83 82/82/82
f 85/85/85 86/86/86 76/76/76
f 87/87/87 88/88/88 89/89/89
f 83/83/83 90/90/90 91/91/91
f 92/92/92 93/93/93 94/94/94
f 95/95/95 94/94/94 93/93/93
f 90/90/90 96/96/96 91/91/91
f 97/97/97 91/91/91 96/96/96
f 98/98/98 99/99/99 93/93/93
f 95/95/95 93/93/93 99/99/99
f 100/100/100 101/101/101 102/102/102
f 103/103/103 104/104/104 96/96/96
f 105/105/105 96/96/96 104/104/104
f 106/106/106 107/107/107 104/104/104
f 105/105/105 104/104/104 107/107/107
f 85/85/85 108/108/108 101/101/101
f 109/109/109 101/101/101 108/108/108
f 110/110/110 84/84/84 111/111/111
f 109/109/109 102/102/102 101/101/101
f 100/100/100 86/86/86 85/85/85
f 82/82/82 111/111/111 84/84/84
f 90/90/90 83/83/83 84/84/84
f 112/112/112 113/113/113 84/84/84
f 112/112/112 84/84/84 110/110/110
f 79/79/79 77/77/77 89/89/89
f 87/87/87 89/89/89 77/77/77
f 89/89/89 114/114/114 79/79/79
f 94/94/94 79/79/79 114/114/114
f 115/115/115 114/114/114 88/88/88
f 89/89/89 88/88/88 114/114/114
f 95/95/95 99/99/99 78/78/78
f 116/116/116 78/78/78 99/99/99
f 78/78/78 79/79/79 95/95/95
f 94/94/94 95/95/95 79/79/79
f 117/117/117 118/118/118 96/96/96
f 97/97/97 96/96/96 118/118/118
f 90/90/90 103/103/103 96/96/96
f 115/115/115 119/119/119 114/114/114
f 94/94/94 114/114/114 120/120/120
f 119/119/119 120/120/120 114/114/114
f 117/117/117 121/121/121 118/118/118
f 94/94/94 120/120/120 122/122/122
f 123/123/123 122/122/122 120/120/120
f 124/124/124 96/96/96 107/107/107
f 105/105/105 107/107/107 96/96/96
f 78/78/78 116/116/116 85/85/85
f 108/108/108 85/85/85 116/116/116
f 113/113/113 90/90/90 84/84/84
f 78/78/78 85/85/85 76/76/76
f 85/85/85 101/101/101 100/100/100
f 66/66/66 65/65/65 71/71/71
f 80/80/80 71/71/71 65/65/65
f 70/70/70 125/125/125 66/66/66
f 68/68/68 66/66/66 125/125/125
f 73/73/73 126/126/126 75/75/75
f 127/127/127 75/75/75 126/126/126
f 65/65/65 67/67/67 73/73/73
f 126/126/126 73/73/73 67/67/67
f 83/83/83 91/91/91 128/128/128
