mtllib KeixJason2.mtl
o KeixJason2_part_0
v 0.3385309 1.06069231 -0.0192498565
v 0.3583203 1.16047716 -0.06153643
v 0.321492434 1.14623547 -0.04722753
v 0.3385309 1.06069231 -0.0192498565
v 0.321492434 1.14623547 -0.04722753
v 0.2803821 1.108112 -0.09551291
v 0.29174 1.04829121 -0.07617296
v 0.3546837 1.04265523 -0.1477609
v 0.304798841 1.12381554 -0.145013854
v 0.4153549 1.04861712 -0.08249429
v 0.3385309 1.06069231 -0.0192498565
v 0.388257623 0.944347858 -0.01234825
v 0.381587863 1.152456 -0.104460157
v 0.4153549 1.04861712 -0.08249429
v 0.3409161 1.14446843 -0.144432217
v 0.314635456 0.9918206 0.0200006962
v 0.3385309 1.06069231 -0.0192498565
v 0.29174 1.04829121 -0.07617296
v 0.2829221 0.9877542 -0.0330142081
v 0.314635456 0.9918206 0.0200006962
v 0.35364306 0.965606 0.0148895308
v 0.3546837 1.04265523 -0.1477609
v 0.416482568 0.9386921 -0.127121866
v 0.38333106 0.9432481 -0.13891609
v 0.340288818 0.952082753 -0.0195034668
v 0.3520481 0.7700575 -0.009455249
v 0.349003673 0.7686218 -0.03449685
v 0.402680278 0.8716254 -0.0421195924
v 0.421847343 0.8817325 -0.0111208856
v 0.375889778 0.9059498 -0.135432988
v 0.385942519 0.89667356 -0.0579624474
v 0.3885045 0.8837733 0.002116084
v 0.3360433 0.7883702 0.00113460422
v 0.268915832 0.890760839 0.0449817032
v 0.302259982 0.893015265 0.0491024554
v 0.3392735 0.780452 -0.0355075225
v 0.3360433 0.7883702 0.00113460422
v 0.3885045 0.8837733 0.002116084
v 0.349003673 0.7686218 -0.03449685
v 0.3520481 0.7700575 -0.009455249
v 0.340288818 0.952082753 -0.0195034668
v 0.27990675 0.878102541 0.0232449174
v 0.268915832 0.890760839 0.0449817032
v 0.27990675 0.878102541 0.0232449174
v 0.268915832 0.890760839 0.0449817032
v 0.39465636 0.8945638 -0.124084026
v 0.430238 0.9377711 -0.0455295444
v 0.303082526 0.789868236 -0.116969913
v 0.290209353 0.799745142 -0.05064922
v 0.312885821 0.7861792 -0.0544586778
v 0.312885821 0.7861792 -0.0544586778
v 0.385942519 0.89667356 -0.0579624474
v 0.290209353 0.799745142 -0.05064922
v 0.3392735 0.780452 -0.0355075225
v 0.33855474 1.060722 -0.019252941
v 0.291365 1.13218832 0.0008831471
v 0.251521617 1.09146214 -0.08842041
v 0.29174 1.04829121 -0.07617296
v 0.354683757 1.04265523 -0.147760883
v 0.308626741 1.10419786 -0.194175273
v 0.444805115 1.149714 -0.101369888
v 0.415426433 1.04870594 -0.0825035349
v 0.3887518 1.12992108 -0.168203026
v 0.399077415 1.15798366 -0.0259346
v 0.348078549 1.15239036 0.01429797
v 0.33855474 1.060722 -0.019252941
v 0.348078549 1.15239036 0.01429797
v 0.5090462 0.9086481 -0.052248463
v 0.4013347 0.9043374 -0.0550686046
v 0.4073918 0.936756432 -0.123228006
v 0.4999879 0.937895834 -0.108573943
v 0.4847182 1.00281668 -0.073472634
v 0.413352847 1.01935947 -0.07954178
v 0.496393621 0.9609566 -0.0155349523
v 0.404148936 0.964079142 -0.00819008052
v 0.5659806 0.9758432 -0.09783849
v 0.637034 1.070909 -0.08218369
v 0.5775526 0.948242366 -0.058408618
v 0.552767456 1.01766026 -0.0742791
v 0.56289953 0.992829442 -0.0343620181
v 0.4340541 1.1490283 -0.100385576
v 0.501688957 1.2955358 -0.120463945
v 0.402641684 1.29120374 0.0330816358
v 0.341210574 1.14789748 -0.009300001
v 0.350645065 1.12550986 -0.183800831
v 0.416535884 1.25399446 -0.261325538
v 0.413593352 1.06645644 -0.08618489
v 0.348104656 1.07552624 -0.0235032
v 0.352718472 1.06131411 -0.141406417
v -0.3572783 1.06851459 -0.0140017718
v -0.337780416 1.15463126 -0.043487072
v -0.374824584 1.16998577 -0.05597011
v -0.3572783 1.06851459 -0.0140017718
v -0.31445688 1.05125809 -0.0727551356
v -0.30042392 1.11504245 -0.09360859
v -0.337780416 1.15463126 -0.043487072
v -0.380722284 1.051395 -0.141511157
v -0.326836765 1.13133454 -0.141879156
v -0.4376077 1.06365156 -0.07376085
v -0.417771578 0.9576417 -0.00379480422
v -0.3572783 1.06851459 -0.0140017718
v -0.400503159 1.16255283 -0.09760577
v -0.362205982 1.15312874 -0.139561459
v -0.4376077 1.06365156 -0.07376085
v -0.338523239 0.997864366 0.0248789936
v -0.309708536 0.9904018 -0.0294061229
v -0.31445688 1.05125809 -0.0727551356
v -0.3572783 1.06851459 -0.0140017718
v -0.338523239 0.997864366 0.0248789936
v -0.380089 0.975566566 0.0217140317
v -0.380722284 1.051395 -0.141511157
v -0.4185192 0.955324769 -0.130439878
v -0.4514091 0.9541064 -0.117186353
v -0.369636118 0.960599661 -0.01308281
v -0.398651659 0.7806628 -0.0007007271
v -0.457225353 0.898625135 -0.000492654741
v -0.4405111 0.886508465 -0.03218285
v -0.396860659 0.7787894 -0.0258342773
v -0.422118247 0.9097039 -0.04898257
v -0.414608 0.917497933 -0.12690331
v -0.423295349 0.8974681 0.0112777576
v -0.3804881 0.797381639 0.009006023
v -0.3345874 0.898493946 0.0544182658
v -0.301834822 0.8929607 0.0488912165
v -0.423295349 0.8974681 0.0112777576
v -0.3804881 0.797381639 0.009006023
v -0.386076033 0.78960377 -0.0273815989
v -0.396860659 0.7787894 -0.0258342773
v -0.398651659 0.7806628 -0.0007007271
v -0.369636118 0.960599661 -0.01308281
v -0.3149492 0.8813127 0.0277758241
v -0.301834822 0.8929607 0.0488912165
v -0.3149492 0.8813127 0.0277758241
v -0.301834822 0.8929607 0.0488912165
v -0.433881462 0.90807116 -0.114643879
v -0.461604953 0.955014 -0.0350730866
v -0.336073041 0.8039102 -0.044812046
v -0.3527385 0.794953942 -0.110415071
v -0.360110044 0.7926082 -0.0475062057
v -0.360110044 0.7926082 -0.0475062057
v -0.336073041 0.8039102 -0.044812046
v -0.422118247 0.9097039 -0.04898257
v -0.386076033 0.78960377 -0.0273815989
v -0.3572992 1.06854641 -0.0140041411
v -0.31445688 1.05125809 -0.0727551356
v -0.2707287 1.09395623 -0.0875928551
v -0.3037026 1.13770354 0.00316764414
v -0.380722344 1.05139494 -0.141511157
v -0.33199653 1.10995817 -0.19063507
v -0.460808426 1.164789 -0.09185877
v -0.4092096 1.14103556 -0.161109924
v -0.437670469 1.06374693 -0.0737679154
v -0.410988361 1.17041838 -0.01873552
v -0.3572992 1.06854641 -0.0140041411
v -0.3584607 1.16167521 0.0190864652
v -0.3584607 1.16167521 0.0190864652
v -0.543097258 0.9337103 -0.0381043255
v -0.5337015 0.9616005 -0.09505956
v -0.442388952 0.951312542 -0.113667458
v -0.436547637 0.9188553 -0.0455074236
v -0.510647833 1.02491784 -0.06130436
v -0.438343048 1.03435624 -0.0706018
v -0.523806036 0.9847419 -0.00249865651
v -0.4314643 0.9788584 0.0008430481
v -0.5951428 1.00589049 -0.08188155
v -0.6076165 0.979786634 -0.0417140275
v -0.6558263 1.10754788 -0.06414831
v -0.576893568 1.04634964 -0.0593353063
v -0.587643862 1.0228641 -0.0187709183
v -0.450057715 1.16340673 -0.09137848
v -0.353001058 1.15662777 -0.00477425754
v -0.403131127 1.30424356 0.0393037349
v -0.509135962 1.31435657 -0.109425172
v -0.372134477 1.13407052 -0.178457439
v -0.433352858 1.26661658 -0.253824174
v -0.43427676 1.08121073 -0.07770372
v -0.365535617 1.08418953 -0.0179892927
v -0.3766694 1.0698086 -0.13543576
vt 0.09955592 0.714617133
vt 0.167935342 0.8458134
vt 0.1123678 0.842895865
vt 0.55188 0.722944856
vt 0.5401565 0.8510615
vt 0.427623123 0.82754904
vt 0.4464187 0.6910818
vt 0.3339119 0.677962363
vt 0.338516951 0.823632658
vt 0.220018178 0.4215356
vt 0.116104983 0.43510592
vt 0.147341937 0.27284658
vt 0.226216853 0.8488735
vt 0.199472442 0.702755034
vt 0.2704761 0.8389257
vt 0.641236 0.325187445
vt 0.586522 0.444632769
vt 0.476842284 0.408181429
vt 0.56925106 0.314083934
vt 0.0530416034 0.3124665
vt 0.104580387 0.2811283
vt 0.3791938 0.407006264
vt 0.3400578 0.2596352
vt 0.400291562 0.262537479
vt 0.5399099 0.262703538
vt 0.150751024 0.07190126
vt 0.182275012 0.06774557
vt 0.200596809 0.163624585
vt 0.159871459 0.166311622
vt 0.400955647 0.160347879
vt 0.4909444 0.149921536
vt 0.141526029 0.169639766
vt 0.136489347 0.09111583
vt 0.0308487676 0.155831754
vt 0.06800701 0.170341432
vt 0.50486815 0.0600689054
vt 0.5471605 0.0536844134
vt 0.5514925 0.136664212
vt 0.504012465 0.021861434
vt 0.5420748 0.0242812037
vt 0.124694377 0.241631329
vt 0.0696338043 0.14330703
vt 0.02997567 0.154223561
vt 0.632811368 0.152436376
vt 0.6721582 0.173611522
vt 0.341010034 0.167393446
vt 0.201660872 0.2713722
vt 0.3536219 0.09305626
vt 0.487762958 0.102540314
vt 0.205832854 0.06320006
vt 0.473166853 0.06327546
vt 0.198411912 0.111276627
vt 0.199023828 0.06845558
vt 0.191946909 0.06923944
vt 0.5855999 0.44087255
vt 0.5547121 0.6196486
vt 0.4815356 0.6023851
vt 0.476842284 0.429807246
vt 0.35047254 0.429807246
vt 0.3995143 0.591939747
vt 0.225005612 0.6174475
vt 0.220018178 0.429807246
vt 0.316047847 0.5990024
vt 0.163074687 0.6186183
vt 0.0836226344 0.6167359
vt 0.116104983 0.429807246
vt 0.5981604 0.62316
vt 0.9390955 0.2681564
vt 0.9480029 0.0547485352
vt 0.8616347 0.06246823
vt 0.862810552 0.245696783
vt 0.7632447 0.217835188
vt 0.7328805 0.0760073662
vt 0.862810552 0.245696783
vt 0.8616347 0.06246823
vt 0.797301 0.376303732
vt 0.6349134 0.5182753
vt 0.8645414 0.403067648
vt 0.734967053 0.352392733
vt 0.797301 0.376303732
vt 0.7774179 0.713488
vt 0.7816166 0.9310193
vt 0.5727187 0.8675781
vt 0.651902139 0.666231
vt 0.889970243 0.667823136
vt 0.9741954 0.8703161
vt 0.7716683 0.6072437
vt 0.662253857 0.5761707
vt 0.868746638 0.5766174
vt 0.09955592 0.714617133
vt 0.1123678 0.842895865
vt 0.167935342 0.8458134
vt 0.55188 0.722944856
vt 0.4464187 0.6910818
vt 0.427623123 0.82754904
vt 0.5401565 0.8510615
vt 0.3339119 0.677962363
vt 0.338516951 0.823632658
vt 0.220018178 0.4215356
vt 0.147341937 0.27284658
vt 0.116104983 0.43510592
vt 0.226216853 0.8488735
vt 0.2704761 0.8389257
vt 0.199472442 0.702755034
vt 0.641236 0.325187445
vt 0.56925106 0.314083934
vt 0.476842284 0.408181429
vt 0.586522 0.444632769
vt 0.0530416034 0.3124665
vt 0.104580387 0.2811283
vt 0.3791938 0.407006264
vt 0.400291562 0.262537479
vt 0.3400578 0.2596352
vt 0.5399099 0.262703538
vt 0.150751024 0.07190126
vt 0.159871459 0.166311622
vt 0.200596809 0.163624585
vt 0.182275012 0.06774557
vt 0.4909444 0.149921536
vt 0.400955647 0.160347879
vt 0.141526029 0.169639766
vt 0.136489347 0.09111583
vt 0.06800701 0.170341432
vt 0.0308487676 0.155831754
vt 0.5514925 0.136664212
vt 0.5471605 0.0536844134
vt 0.50486815 0.0600689054
vt 0.504012465 0.021861434
vt 0.5420748 0.0242812037
vt 0.124694377 0.241631329
vt 0.0696338043 0.14330703
vt 0.02997567 0.154223561
vt 0.632811368 0.152436376
vt 0.6721582 0.173611522
vt 0.341010034 0.167393446
vt 0.201660872 0.2713722
vt 0.487762958 0.102540314
vt 0.3536219 0.09305626
vt 0.205832854 0.06320006
vt 0.473166853 0.06327546
vt 0.199023828 0.06845558
vt 0.198411912 0.111276627
vt 0.191946909 0.06923944
vt 0.5855999 0.44087255
vt 0.476842284 0.429807246
vt 0.4815356 0.6023851
vt 0.5547121 0.6196486
vt 0.35047254 0.429807246
vt 0.3995143 0.591939747
vt 0.225005612 0.6174475
vt 0.316047847 0.5990024
vt 0.220018178 0.429807246
vt 0.163074687 0.6186183
vt 0.116104983 0.429807246
vt 0.0836226344 0.6167359
vt 0.5981604 0.62316
vt 0.9390955 0.2681564
vt 0.862810552 0.245696783
vt 0.8616347 0.06246823
vt 0.9480029 0.0547485352
vt 0.7632447 0.217835188
vt 0.7328805 0.0760073662
vt 0.862810552 0.245696783
vt 0.8616347 0.06246823
vt 0.797301 0.376303732
vt 0.8645414 0.403067648
vt 0.6349134 0.5182753
vt 0.734967053 0.352392733
vt 0.797301 0.376303732
vt 0.7774179 0.713488
vt 0.651902139 0.666231
vt 0.5727187 0.8675781
vt 0.7816166 0.9310193
vt 0.889970243 0.667823136
vt 0.9741954 0.8703161
vt 0.7716683 0.6072437
vt 0.662253857 0.5761707
vt 0.868746638 0.5766174
vn -0.0257100146 0.403544 0.914599061
vn 0.6199959 0.3225071 0.7152582
vn -0.249071926 0.25588578 0.9340694
vn -0.0257100146 0.403544 0.914599061
vn -0.249071926 0.25588578 0.9340694
vn -0.971553266 -0.23653686 -0.0115995985
vn -0.98524487 -0.157509059 -0.06695872
vn -0.026808802 -0.09628527 -0.9949927
vn -0.4373729 -0.239490911 -0.866803944
vn 0.9565109 0.288543224 0.0427774861
vn -0.0257100146 0.403544 0.914599061
vn 0.399929434 0.185519218 0.897574
vn 0.9380036 0.277050376 -0.2083083
vn 0.9565109 0.288543224 0.0427774861
vn 0.425858378 0.0870303 -0.9005945
vn -0.260202467 0.475758582 0.8402074
vn -0.0257100146 0.403544 0.914599061
vn -0.98524487 -0.157509059 -0.06695872
vn -0.917894363 -0.08047842 -0.388578683
vn -0.260202467 0.475758582 0.8402074
vn 0.6173372 -0.113062032 0.7785319
vn -0.026808802 -0.09628527 -0.9949927
vn 0.784197032 -0.129106969 -0.606932
vn -0.3459653 -0.2293857 -0.90977484
vn -0.318875 -0.905965745 -0.2784687
vn 0.19928655 -0.8731888 0.444776833
vn 0.04476725 -0.873047769 -0.485575438
vn 0.80421716 -0.49595803 -0.327506363
vn 0.8794957 -0.20761922 0.428231061
vn -0.4946269 0.109622128 -0.862164259
vn -0.99702096 0.0541645624 0.05491251
vn -0.291164368 0.0540232658 0.9551465
vn -0.679700434 -0.15596576 0.7167161
vn -0.7475626 -0.3190847 0.5825249
vn 0.460445225 -0.485375673 0.7432366
vn -0.786685 -0.2291486 -0.573251843
vn -0.679700434 -0.15596576 0.7167161
vn -0.291164368 0.0540232658 0.9551465
vn 0.04476725 -0.873047769 -0.485575438
vn 0.19928655 -0.8731888 0.444776833
vn -0.318875 -0.905965745 -0.2784687
vn -0.241939709 -0.9137055 -0.326508164
vn -0.7475626 -0.3190847 0.5825249
vn -0.241939709 -0.9137055 -0.326508164
vn -0.7475626 -0.3190847 0.5825249
vn 0.66304034 -0.4682691 -0.584039
vn 0.964673162 0.0370082147 0.260837644
vn -0.3751401 -0.5707473 -0.730422854
vn -0.804370344 -0.116238505 0.582646549
vn 0.1927843 -0.8361227 0.5135497
vn 0.1927843 -0.8361227 0.5135497
vn -0.99702096 0.0541645624 0.05491251
vn -0.804370344 -0.116238505 0.582646549
vn -0.786685 -0.2291486 -0.573251843
vn 0.00606614444 -0.488177657 0.8727232
vn -0.375652671 -0.472654551 0.7971717
vn -0.7061009 -0.704553843 0.07089012
vn -0.7433611 -0.65720284 0.12449412
vn 0.14475593 -0.6503091 -0.7457505
vn -0.143282682 -0.6620398 -0.735644937
vn 0.960035264 -0.279858917 -0.00336243515
vn 0.9162304 -0.3919101 0.08323665
vn 0.6256282 -0.3677021 -0.688029468
vn 0.68904376 -0.262468785 0.6755212
vn 0.334343642 -0.354364365 0.873292744
vn 0.00606614444 -0.488177657 0.8727232
vn 0.334343642 -0.354364365 0.873292744
vn 0.2947368 -0.923244655 0.246474624
vn 0.0472626574 -0.9702534 0.2374337
vn 0.151688769 -0.333913565 -0.9303185
vn 0.20047836 -0.338122278 -0.9195008
vn 0.02369203 0.971827567 -0.234499156
vn 0.214982525 0.952390432 -0.216182753
vn 0.140607417 0.07772786 0.9870096
vn 0.08185624 0.0817417949 0.9932864
vn 0.32455796 -0.138300642 -0.9357003
vn 0.654003859 0.7439733 -0.137050331
vn 0.7126217 -0.6706821 0.2058055
vn -0.3851886 0.8901134 -0.243573576
vn 0.220713586 0.268260032 0.937721848
vn 0.914437532 -0.404699832 0.004692796
vn 0.884291351 -0.464401126 0.0485862345
vn 0.731331 -0.37388742 0.570406139
vn 0.6717617 -0.2723887 0.6888691
vn 0.7319195 -0.4432496 -0.517516732
vn 0.7662623 -0.5708755 -0.294861764
vn 0.969666 -0.242304727 0.03219177
vn 0.683782935 -0.07726201 0.725583553
vn 0.6891113 -0.3396289 -0.6401389
vn 0.114834361 0.402587682 0.90815
vn 0.305266917 0.245872855 0.919977546
vn -0.5649432 0.354106337 0.7452838
vn 0.114834361 0.402587682 0.90815
vn 0.9663536 -0.22886622 -0.11739251
vn 0.959017634 -0.277649254 -0.0565342121
vn 0.305266917 0.245872855 0.919977546
vn -0.0135383941 -0.108857535 -0.993965268
vn 0.3834135 -0.26252687 -0.8854794
vn -0.928599834 0.361535668 0.0836332142
vn -0.340253323 0.229038626 0.9120137
vn 0.114834361 0.402587682 0.90815
vn -0.931262851 0.322752118 -0.169057921
vn -0.4647255 0.101441428 -0.879624963
vn -0.928599834 0.361535668 0.0836332142
vn 0.34190622 0.45289278 0.823400438
vn 0.887771666 -0.17225486 -0.426837146
vn 0.9663536 -0.22886622 -0.11739251
vn 0.114834361 0.402587682 0.90815
vn 0.34190622 0.45289278 0.823400438
vn -0.590760231 -0.0475065038 0.8054475
vn -0.0135383941 -0.108857535 -0.993965268
vn 0.281784058 -0.267480135 -0.921440363
vn -0.818858 -0.05523321 -0.5713327
vn 0.216449112 -0.9344521 -0.282752633
vn -0.263892531 -0.8468583 0.461727142
vn -0.87597245 -0.11798086 0.467710167
vn -0.8623361 -0.416719168 -0.287614
vn -0.150957912 -0.867290735 -0.474361151
vn 0.998991251 -0.0434180275 0.0114611788
vn 0.4647599 0.0556116365 -0.8836886
vn 0.3365644 0.0308320634 0.9411557
vn 0.691945732 -0.217588916 0.688379467
vn -0.4726466 -0.433594853 0.767203152
vn 0.737627745 -0.387351334 0.5530501
vn 0.3365644 0.0308320634 0.9411557
vn 0.691945732 -0.217588916 0.688379467
vn 0.734725535 -0.308437318 -0.6041894
vn -0.150957912 -0.867290735 -0.474361151
vn -0.263892531 -0.8468583 0.461727142
vn 0.216449112 -0.9344521 -0.282752633
vn 0.137097418 -0.9349009 -0.327360153
vn 0.737627745 -0.387351334 0.5530501
vn 0.137097418 -0.9349009 -0.327360153
vn 0.737627745 -0.387351334 0.5530501
vn -0.7304923 -0.4044903 -0.550244153
vn -0.944114268 0.132829323 0.301670074
vn 0.813910067 -0.191046789 0.5486816
vn 0.285326123 -0.6090032 -0.740070343
vn -0.25080058 -0.810206354 0.529778
vn -0.25080058 -0.810206354 0.529778
vn 0.813910067 -0.191046789 0.5486816
vn 0.998991251 -0.0434180275 0.0114611788
vn 0.734725535 -0.308437318 -0.6041894
vn 0.006938419 -0.479434043 0.8775505
vn 0.71117 -0.6973437 0.089157626
vn 0.6638962 -0.7466259 0.0423288271
vn 0.382851452 -0.491008669 0.782518566
vn -0.220225781 -0.640303969 -0.7358746
vn 0.06704507 -0.673370838 -0.736258566
vn -0.9755134 -0.21561265 0.0434164144
vn -0.6801668 -0.326121271 -0.6565198
vn -0.9365627 -0.326066077 0.128573641
vn -0.672632158 -0.209987864 0.709557056
vn 0.006938419 -0.479434043 0.8775505
vn -0.312016875 -0.3215509 0.8940082
vn -0.312016875 -0.3215509 0.8940082
vn -0.372357637 -0.888484657 0.268225253
vn -0.272562146 -0.322233349 -0.906573534
vn -0.224115327 -0.322886378 -0.919519842
vn -0.131286412 -0.959555745 0.249031827
vn 0.0610207431 0.9680885 -0.24306646
vn -0.130268067 0.96758616 -0.216350332
vn -0.0890244544 0.09689367 0.991305351
vn -0.029944079 0.09517142 0.995010436
vn -0.377139181 -0.11131905 -0.9194423
vn -0.7649785 -0.596452951 0.243005574
vn -0.583646059 0.803633451 -0.116320953
vn 0.459184885 0.84667176 -0.2688799
vn -0.152233154 0.294064134 0.9435843
vn -0.937220931 -0.344950378 0.05124614
vn -0.6546147 -0.223833427 0.7220653
vn -0.7255059 -0.322434783 0.6080107
vn -0.9091362 -0.405798435 0.09380332
vn -0.7824076 -0.395210683 -0.481297135
vn -0.814414144 -0.5212026 -0.255102783
vn -0.9801955 -0.1801891 0.08214986
vn -0.655000746 -0.0244385228 0.75523293
vn -0.740229964 -0.2963077 -0.603540659
usemtl KeixJason2_part_0_material_0
f 1/1/1 2/2/2 3/3/3
f 4/4/4 5/5/5 6/6/6
f 6/6/6 7/7/7 4/4/4
f 8/8/8 7/7/7 6/6/6
f 6/6/6 9/9/9 8/8/8
f 10/10/10 11/11/11 12/12/12
f 13/13/13 14/14/14 8/8/8
f 8/8/8 15/15/15 13/13/13
f 16/16/16 17/17/17 18/18/18
f 18/18/18 19/19/19 16/16/16
f 20/20/20 21/21/21 11/11/11
f 22/22/22 23/23/23 24/24/24
f 19/19/19 18/18/18 25/25/25
f 26/26/26 27/27/27 28/28/28
f 28/28/28 29/29/29 26/26/26
f 24/24/24 30/30/30 31/31/31
f 31/31/31 25/25/25 24/24/24
f 32/32/32 33/33/33 26/26/26
f 26/26/26 29/29/29 32/32/32
f 20/20/20 34/34/34 35/35/35
f 35/35/35 21/21/21 20/20/20
f 31/31/31 36/36/36 37/37/37
f 37/37/37 38/38/38 31/31/31
f 39/39/39 40/40/40 37/37/37
f 37/37/37 36/36/36 39/39/39
f 41/41/41 21/21/21 35/35/35
f 35/35/35 42/42/42 41/41/41
f 43/43/43 42/42/42 35/35/35
f 44/44/44 45/45/45 19/19/19
f 19/19/19 25/25/25 44/44/44
f 46/46/46 23/23/23 47/47/47
f 47/47/47 28/28/28 46/46/46
f 23/23/23 46/46/46 30/30/30
f 30/30/30 24/24/24 23/23/23
f 29/29/29 47/47/47 12/12/12
f 12/12/12 32/32/32 29/29/29
f 29/29/29 28/28/28 47/47/47
f 30/30/30 48/48/48 49/49/49
f 49/49/49 31/31/31 30/30/30
f 38/38/38 25/25/25 31/31/31
f 48/48/48 30/30/30 46/46/46
f 46/46/46 28/28/28 50/50/50
f 50/50/50 48/48/48 46/46/46
f 51/51/51 49/49/49 48/48/48
f 50/50/50 28/28/28 52/52/52
f 52/52/52 53/53/53 50/50/50
f 52/52/52 28/28/28 27/27/27
f 27/27/27 54/54/54 52/52/52
f 21/21/21 41/41/41 12/12/12
f 11/11/11 21/21/21 12/12/12
f 47/47/47 10/10/10 12/12/12
f 10/10/10 47/47/47 23/23/23
f 23/23/23 22/22/22 10/10/10
f 12/12/12 41/41/41 32/32/32
f 14/14/14 13/13/13 2/2/2
f 8/8/8 9/9/9 15/15/15
f 1/1/1 14/14/14 2/2/2
f 18/18/18 22/22/22 24/24/24
f 24/24/24 25/25/25 18/18/18
f 16/16/16 19/19/19 45/45/45
f 55/55/55 56/56/56 57/57/57
f 57/57/57 58/58/58 55/55/55
f 59/59/59 58/58/58 57/57/57
f 57/57/57 60/60/60 59/59/59
f 61/61/61 62/62/62 63/63/63
f 64/64/64 65/65/65 66/66/66
f 66/66/66 62/62/62 64/64/64
f 62/62/62 61/61/61 64/64/64
f 62/62/62 59/59/59 63/63/63
f 59/59/59 60/60/60 63/63/63
f 55/55/55 67/67/67 56/56/56
f 68/68/68 69/69/69 70/70/70
f 70/70/70 71/71/71 68/68/68
f 72/72/72 71/71/71 70/70/70
f 70/70/70 73/73/73 72/72/72
f 74/74/74 72/72/72 73/73/73
f 73/73/73 75/75/75 74/74/74
f 74/74/74 75/75/75 69/69/69
f 69/69/69 68/68/68 74/74/74
f 76/76/76 77/77/77 78/78/78
f 79/79/79 77/77/77 76/76/76
f 80/80/80 77/77/77 79/79/79
f 78/78/78 77/77/77 80/80/80
f 78/78/78 68/68/68 71/71/71
f 71/71/71 76/76/76 78/78/78
f 71/71/71 72/72/72 79/79/79
f 79/79/79 76/76/76 71/71/71
f 72/72/72 74/74/74 80/80/80
f 80/80/80 79/79/79 72/72/72
f 80/80/80 74/74/74 68/68/68
f 68/68/68 78/78/78 80/80/80
f 81/81/81 82/82/82 83/83/83
f 83/83/83 84/84/84 81/81/81
f 85/85/85 86/86/86 82/82/82
f 82/82/82 81/81/81 85/85/85
f 87/87/87 81/81/81 84/84/84
f 84/84/84 88/88/88 87/87/87
f 89/89/89 85/85/85 81/81/81
f 81/81/81 87/87/87 89/89/89
f 90/90/90 91/91/91 92/92/92
f 93/93/93 94/94/94 95/95/95
f 95/95/95 96/96/96 93/93/93
f 97/97/97 98/98/98 95/95/95
f 95/95/95 94/94/94 97/97/97
f 99/99/99 100/100/100 101/101/101
f 102/102/102 103/103/103 97/97/97
f 97/97/97 104/104/104 102/102/102
f 105/105/105 106/106/106 107/107/107
f 107/107/107 108/108/108 105/105/105
f 109/109/109 101/101/101 110/110/110
f 111/111/111 112/112/112 113/113/113
f 106/106/106 114/114/114 107/107/107
f 115/115/115 116/116/116 117/117/117
f 117/117/117 118/118/118 115/115/115
f 112/112/112 114/114/114 119/119/119
f 119/119/119 120/120/120 112/112/112
f 121/121/121 116/116/116 115/115/115
f 115/115/115 122/122/122 121/121/121
f 109/109/109 110/110/110 123/123/123
f 123/123/123 124/124/124 109/109/109
f 119/119/119 125/125/125 126/126/126
f 126/126/126 127/127/127 119/119/119
f 128/128/128 127/127/127 126/126/126
f 126/126/126 129/129/129 128/128/128
f 130/130/130 131/131/131 123/123/123
f 123/123/123 110/110/110 130/130/130
f 132/132/132 123/123/123 131/131/131
f 133/133/133 114/114/114 106/106/106
f 106/106/106 134/134/134 133/133/133
f 135/135/135 117/117/117 136/136/136
f 136/136/136 113/113/113 135/135/135
f 113/113/113 112/112/112 120/120/120
f 120/120/120 135/135/135 113/113/113
f 116/116/116 121/121/121 100/100/100
f 100/100/100 136/136/136 116/116/116
f 116/116/116 136/136/136 117/117/117
f 120/120/120 119/119/119 137/137/137
f 137/137/137 138/138/138 120/120/120
f 125/125/125 119/119/119 114/114/114
f 138/138/138 135/135/135 120/120/120
f 135/135/135 138/138/138 139/139/139
f 139/139/139 117/117/117 135/135/135
f 140/140/140 138/138/138 137/137/137
f 139/139/139 141/141/141 142/142/142
f 142/142/142 117/117/117 139/139/139
f 142/142/142 143/143/143 118/118/118
f 118/118/118 117/117/117 142/142/142
f 110/110/110 100/100/100 130/130/130
f 101/101/101 100/100/100 110/110/110
f 136/136/136 100/100/100 99/99/99
f 99/99/99 111/111/111 113/113/113
f 113/113/113 136/136/136 99/99/99
f 100/100/100 121/121/121 130/130/130
f 104/104/104 92/92/92 102/102/102
f 97/97/97 103/103/103 98/98/98
f 90/90/90 92/92/92 104/104/104
f 107/107/107 114/114/114 112/112/112
f 112/112/112 111/111/111 107/107/107
f 105/105/105 134/134/134 106/106/106
f 144/144/144 145/145/145 146/146/146
f 146/146/146 147/147/147 144/144/144
f 148/148/148 149/149/149 146/146/146
f 146/146/146 145/145/145 148/148/148
f 150/150/150 151/151/151 152/152/152
f 153/153/153 152/152/152 154/154/154
f 154/154/154 155/155/155 153/153/153
f 152/152/152 153/153/153 150/150/150
f 152/152/152 151/151/151 148/148/148
f 148/148/148 151/151/151 149/149/149
f 144/144/144 147/147/147 156/156/156
f 157/157/157 158/158/158 159/159/159
f 159/159/159 160/160/160 157/157/157
f 161/161/161 162/162/162 159/159/159
f 159/159/159 158/158/158 161/161/161
f 163/163/163 164/164/164 162/162/162
f 162/162/162 161/161/161 163/163/163
f 163/163/163 157/157/157 160/160/160
f 160/160/160 164/164/164 163/163/163
f 165/165/165 166/166/166 167/167/167
f 168/168/168 165/165/165 167/167/167
f 169/169/169 168/168/168 167/167/167
f 166/166/166 169/169/169 167/167/167
f 166/166/166 165/165/165 158/158/158
f 158/158/158 157/157/157 166/166/166
f 158/158/158 165/165/165 168/168/168
f 168/168/168 161/161/161 158/158/158
f 161/161/161 168/168/168 169/169/169
f 169/169/169 163/163/163 161/161/161
f 169/169/169 166/166/166 157/157/157
f 157/157/157 163/163/163 169/169/169
f 170/170/170 171/171/171 172/172/172
f 172/172/172 173/173/173 170/170/170
f 174/174/174 170/170/170 173/173/173
f 173/173/173 175/175/175 174/174/174
f 176/176/176 177/177/177 171/171/171
f 171/171/171 170/170/170 176/176/176
f 178/178/178 176/176/176 170/170/170
f 170/170/170 174/174/174 178/178/178
