mtllib by-bd049.mtl
o by-bd049_part_0
v 1.15440607 2.469785 -1.69384742
v 2.36942625 2.43601 -1.11451411
v 2.36942625 2.18603849 -1.11451411
v 1.15440607 2.21981359 -1.69384742
v 1.40348387 3.31041336 -0.869593143
v 1.048532 3.80872 -0.161340773
v 1.92731214 3.24500751 -0.148037657
v 2.211958 2.43601 -0.9152817
v 2.47128439 2.28078938 -0.176038444
v 2.70098066 2.187452 -0.1736714
v 2.70098066 1.93748069 -0.1736714
v 1.11149466 2.469785 -1.40305686
v 2.36942625 2.43601 -1.11451411
v 1.15440607 2.469785 -1.69384742
v 1.11149466 2.469785 -1.40305686
v 2.211958 2.43601 -0.9152817
v 2.70098066 2.187452 -0.1736714
v 2.47128439 2.28078938 -0.176038444
v 5.209412E-07 3.41807342 -0.876167953
v 4.16778533E-07 3.89472842 -0.161340863
v 6.97180269E-07 2.21981335 -1.69384754
v 6.75327044E-07 2.46978474 -1.69384754
v 6.4990536E-07 2.46978474 -1.403057
v 6.75327044E-07 2.46978474 -1.69384754
v 6.4990536E-07 2.46978474 -1.403057
v 2.36942625 2.18603849 1.07446408
v 2.36942625 2.43601 1.07446408
v 1.15440643 2.469785 1.65379691
v 1.15440547 2.21981359 1.65379739
v 1.92731214 3.24500751 0.107987419
v 1.04853261 3.80872 0.121290147
v 1.40348446 3.31041336 0.8295429
v 2.21195841 2.43601 0.875231564
v 2.471284 2.28078938 0.1359883
v 2.700981 1.93748069 0.133621544
v 2.700981 2.187452 0.133621544
v 1.11149418 2.469785 1.36300635
v 1.11149418 2.469785 1.36300635
v 1.15440643 2.469785 1.65379691
v 2.36942625 2.43601 1.07446408
v 2.21195841 2.43601 0.875231564
v 2.700981 2.187452 0.133621544
v 2.471284 2.28078938 0.1359883
v 1.98888755 3.57558584 0.112986825
v 1.98888731 3.57558584 -0.15303728
v 1.52843463 3.95426536 -0.156222835
v 1.52843463 3.95426488 0.1161723
v 2.26039648 2.86942816 -0.158822492
v 2.26039648 2.869428 0.118772313
v 3.0588038 2.34789824 0.135988355
v 3.05880427 2.34789848 -0.176038384
v 3.06358433 1.82624948 -0.173671365
v 3.063584 1.82624948 0.133621573
v 2.68035316 1.54144239 0.133621544
v 2.68035316 1.54144239 -0.1736714
v 2.471284 2.28078938 0.1359883
v 3.0588038 2.34789824 0.135988355
v 2.26039648 2.869428 0.118772313
v 1.92731214 3.24500751 0.107987419
v 2.700981 2.187452 0.133621544
v 3.063584 1.82624948 0.133621573
v 2.700981 1.93748069 0.133621544
v 2.68035316 1.54144239 0.133621544
v 2.70098066 1.93748069 -0.1736714
v 2.68035316 1.54144239 -0.1736714
v 2.68035316 1.54144239 0.133621544
v 2.700981 1.93748069 0.133621544
v 3.5356797E-07 3.54264617 0.913786
v 3.92070149E-07 3.89472842 0.121290058
v 4.04519852E-07 2.21981335 1.65379727
v -9.417045E-08 2.46978474 1.65379679
v -6.874873E-08 2.46978474 1.36300623
v -9.417045E-08 2.46978474 1.65379679
v -6.874873E-08 2.46978474 1.36300623
v 0.350723654 3.97798514 0.121290088
v 1.01156747 3.891977 0.121290147
v 1.01156747 3.891977 -0.161341012
v 0.350723684 3.97798562 -0.161341071
v 1.52843463 3.95426488 0.1161723
v 1.01156747 3.891977 0.121290147
v 1.04853261 3.80872 0.121290147
v 0.350723654 3.97798514 0.121290088
v 3.92070149E-07 3.89472842 0.121290058
v 1.98888755 3.57558584 0.112986825
v 1.01156747 3.891977 -0.161341012
v 1.52843463 3.95426536 -0.156222835
v 1.048532 3.80872 -0.161340773
v 4.16778533E-07 3.89472842 -0.161340863
v 0.350723684 3.97798562 -0.161341071
v 1.92731214 3.24500751 -0.148037657
v 1.98888731 3.57558584 -0.15303728
v 2.26039648 2.86942816 -0.158822492
v -2.36942458 2.1860373 -1.11451447
v -2.369425 2.43600869 -1.11451447
v -1.15440488 2.4697845 -1.69384766
v -1.15440488 2.219813 -1.69384766
v -1.927311 3.24500656 -0.148037985
v -1.048532 3.80871964 -0.161340952
v -1.40348339 3.31041265 -0.869593441
v -2.21195674 2.436009 -0.91528213
v -2.471283 2.28078842 -0.176038876
v -2.70097971 1.9374795 -0.173671871
v -2.70097971 2.187451 -0.173671871
v -1.111493 2.4697845 -1.4030571
v -1.111493 2.4697845 -1.4030571
v -1.15440488 2.4697845 -1.69384766
v -2.369425 2.43600869 -1.11451447
v -2.21195674 2.436009 -0.91528213
v -2.70097971 2.187451 -0.173671871
v -2.471283 2.28078842 -0.176038876
v -1.15440524 2.4697845 1.65379667
v -2.3694253 2.43600869 1.07446373
v -2.3694253 2.1860373 1.07446373
v -1.15440524 2.219813 1.65379715
v -1.40348351 3.31041265 0.8295426
v -1.04853213 3.80871964 0.121289961
v -1.927311 3.24500656 0.107987083
v -2.211957 2.436009 0.875231147
v -2.471283 2.28078818 0.135987863
v -2.70097971 2.187451 0.133621067
v -2.70097971 1.9374795 0.133621067
v -1.11149371 2.4697845 1.36300611
v -2.3694253 2.43600869 1.07446373
v -1.15440524 2.4697845 1.65379667
v -1.11149371 2.4697845 1.36300611
v -2.211957 2.436009 0.875231147
v -2.70097971 2.187451 0.133621067
v -2.471283 2.28078818 0.135987863
v -1.5284344 3.95426464 -0.1562231
v -1.98888731 3.575585 -0.153037637
v -1.98888683 3.575585 0.112986475
v -1.5284344 3.95426416 0.116172031
v -3.058803 2.347897 0.135987818
v -2.26039553 2.869427 0.118771918
v -2.26039553 2.8694272 -0.158822879
v -3.058803 2.34789729 -0.176038921
v -2.6803515 1.5414412 0.133621067
v -3.063583 1.82624817 0.133621037
v -3.06358266 1.82624817 -0.1736719
v -2.6803515 1.5414412 -0.173671871
v -2.26039553 2.869427 0.118771918
v -3.058803 2.347897 0.135987818
v -2.471283 2.28078818 0.135987863
v -1.927311 3.24500656 0.107987083
v -3.063583 1.82624817 0.133621037
v -2.70097971 2.187451 0.133621067
v -2.6803515 1.5414412 0.133621067
v -2.70097971 1.9374795 0.133621067
v -2.6803515 1.5414412 0.133621067
v -2.6803515 1.5414412 -0.173671871
v -2.70097971 1.9374795 -0.173671871
v -2.70097971 1.9374795 0.133621067
v -1.01156771 3.89197659 -0.16134119
v -1.01156771 3.89197659 0.121289968
v -0.350723356 3.97798514 0.121290028
v -0.350723326 3.97798562 -0.161341131
v -1.5284344 3.95426416 0.116172031
v -1.04853213 3.80871964 0.121289961
v -1.01156771 3.89197659 0.121289968
v -0.350723356 3.97798514 0.121290028
v -1.98888683 3.575585 0.112986475
v 1.91410291 0.007887619 1.1834023
v 1.914103 0.007887499 -0.0200249981
v 1.9141022 2.19568276 -0.0200249981
v 1.91410208 2.19568276 1.1834023
v -1.9368645 0.007886306 -1.22345269
v -1.93686461 0.007886426 -0.0200253353
v -1.93686569 2.19568157 -0.0200253353
v -1.93686509 2.19568133 -1.22345269
v 0.350723654 3.97798514 0.121290088
v -0.350723326 3.97798562 -0.161341131
v -0.296141237 4.205521 -0.161341131
v -0.296141267 4.20552063 0.121290028
v -0.00170290633 4.30797243 0.121290058
v -0.00170288165 4.307973 -0.1613411
v 0.350723654 3.97798514 0.121290088
v 0.350723684 3.97798562 -0.161341071
v 0.292735964 4.205521 -0.161341071
v 0.292735934 4.20552063 0.12129008
v -0.350723326 3.97798562 -0.161341131
v -0.350723356 3.97798514 0.121290028
v -0.296141267 4.20552063 0.121290028
v -0.296141237 4.205521 -0.161341131
v -0.00170290633 4.30797243 0.121290058
v -0.296141267 4.20552063 0.121290028
v 0.292735934 4.20552063 0.12129008
v -0.00170288165 4.307973 -0.1613411
v 0.292735964 4.205521 -0.161341071
v -0.296141237 4.205521 -0.161341131
v 0.4922816 0.00788726 1.18340218
v 1.91410291 0.007887619 1.1834023
v 1.91410208 2.19568276 1.1834023
v 0.49228093 2.19568229 1.18340218
v -1.28150928 0.715638161 1.11815488
v -1.28150928 0.715638161 1.18340206
v -0.479375273 0.7156384 1.18340206
v 0.343375772 0.715638638 1.18340218
v 0.3433758 0.715638638 1.11815488
v -1.2815094 1.48793042 1.11815476
v -1.2815094 1.48793042 1.18340206
v -1.28150928 0.715638161 1.18340206
v -1.28150928 0.715638161 1.11815488
v 0.3433758 0.715638638 1.11815488
v 0.343375772 0.715638638 1.18340218
v 0.343375236 1.487931 1.18340218
v 0.343375236 1.487931 1.11815488
v -0.479375869 2.195682 1.18340206
v -0.4793758 1.48793066 1.18340206
v 0.343375236 1.487931 1.18340218
v -0.479375273 0.7156384 1.18340206
v -0.4793752 0.007886902 1.18340206
v 0.4922816 0.00788726 1.18340218
v 0.343375772 0.715638638 1.18340218
v 0.49228093 2.19568229 1.18340218
v -1.28150928 0.715638161 1.18340206
v -1.93686581 2.19568157 1.183402
v -1.2815094 1.48793042 1.18340206
v -1.93686521 0.007886545 1.183402
v 1.91410339 0.007887436 -1.22345233
v 1.91410232 2.19568253 -1.22345233
v -1.93686521 0.007886545 1.183402
v -1.93686581 2.19568157 1.183402
v 0.100482792 2.84130383 1.93627763
v 0.59893 2.64084387 1.83509326
v 0.589643836 2.94779658 1.47908783
v 0.100482821 3.01856518 1.39109826
v 0.692084 2.69954252 1.34432077
v 0.100482851 2.83546567 1.2181983
v 0.100482874 2.15129113 1.67384708
v 0.587323368 2.28533578 1.63299048
v 0.593928 2.36045957 1.86936712
v 0.100482836 2.31229234 1.96876121
v 1.12911642 2.75594 1.92002463
v 1.12911642 3.01856565 1.391098
v 1.12911665 2.83546567 1.21819842
v 1.12911642 2.15129113 1.6738472
v 1.12911618 2.31229234 1.96876144
v 1.69752371 2.610479 1.70801806
v 1.69752371 2.72042632 1.56467688
v 1.69752371 2.54830885 1.50829577
v 1.69752347 2.48313975 1.61980307
v 1.69752324 2.51004863 1.70447075
v 1.82296288 2.48313951 1.61980283
v 1.8229624 2.55916762 1.55676115
v 1.82296312 2.54830837 1.50829566
v 1.82296312 2.72042632 1.56467664
v 1.82296312 2.6104784 1.708018
v 1.82296264 2.510048 1.70447063
v 1.82296312 2.6104784 1.708018
v 1.82296312 2.72042632 1.56467664
v 1.82296312 2.54830837 1.50829566
v 1.69752371 2.54830885 1.50829577
v 1.697523 2.559168 1.55676126
v 1.69752371 2.54830885 1.50829577
v 1.82296288 2.48313951 1.61980283
v 1.82296264 2.510048 1.70447063
v 1.69752347 2.48313975 1.61980307
v -0.3886782 2.94779658 1.47908747
v -0.3979646 2.64084387 1.83509314
v -0.491118044 2.69954252 1.34432077
v -0.392962545 2.36045957 1.869367
v -0.386357367 2.253493 1.620356
v -0.9281508 3.018566 1.39109778
v -0.9281508 2.7559402 1.92002439
v -0.9281507 2.835466 1.21819818
v -0.9281503 2.31229258 1.96876085
v -0.9281507 2.15129137 1.6738466
v -1.49655735 2.72042632 1.5646764
v -1.49655831 2.610479 1.70801783
v -1.49655831 2.54830885 1.5082953
v -1.49655783 2.51004863 1.70447052
v -1.49655831 2.48313975 1.61980283
v -1.62199748 2.61047864 1.70801771
v -1.621997 2.720426 1.56467617
v -1.621998 2.54830837 1.50829542
v -1.621997 2.55916762 1.556761
v -1.62199748 2.48313951 1.61980259
v -1.621997 2.51004815 1.7044704
v -1.621997 2.720426 1.56467617
v -1.62199748 2.61047864 1.70801771
v -1.49655831 2.54830885 1.5082953
v -1.621998 2.54830837 1.50829542
v -1.49655735 2.559168 1.556761
v -1.49655831 2.54830885 1.5082953
v -1.621997 2.51004815 1.7044704
v -1.62199748 2.48313951 1.61980259
v -1.49655831 2.48313975 1.61980283
v -1.3379178 1.45224082 2.27185941
v 0.3359813 1.452241 2.27185965
v 0.3359813 1.550121 2.2734592
v -1.33791792 1.550121 2.2734592
v 0.335981369 1.88584 1.21742713
v -1.3379178 1.88583994 1.217427
v -1.01156771 3.89197659 -0.16134119
v -1.048532 3.80871964 -0.161340952
v -1.5284344 3.95426464 -0.1562231
v -0.350723326 3.97798562 -0.161341131
v -1.927311 3.24500656 -0.148037985
v -1.98888731 3.575585 -0.153037637
v -2.26039553 2.8694272 -0.158822879
v -0.478047729 0.6351931 1.167162
v -1.35633552 0.635193169 1.1671617
v -1.35633552 0.3459083 1.931813
v -0.4780478 0.345908225 1.93181288
v 0.352930665 0.6351931 1.167162
v 0.3529306 0.345908165 1.93181288
v -0.4780478 0.345908225 1.93181288
v -1.35633552 0.3459083 1.931813
v -1.35633552 1.406402E-07 1.93181312
v -0.478047758 1.39191457E-07 1.931813
v 0.3529306 0.345908165 1.93181288
v 0.352930635 1.3733208E-07 1.93181312
v 0.352930665 0.6351931 1.167162
v 0.352930248 1.07529722E-07 1.16716206
v -1.35633552 0.635193169 1.1671617
v -1.35633552 1.10837867E-07 1.167162
v 2.00738263 0.557536542 0.970221758
v 1.91174448 0.557536542 0.970221758
v 1.91174448 0.557536542 1.0582087
v 2.00738263 0.557536542 1.0582087
v 2.00738263 0.557536542 1.0582087
v 1.91174448 0.557536542 1.0582087
v 1.91174424 0.00674069859 1.0582087
v 2.00738263 0.006740696 1.0582087
v 2.00738263 0.557536542 0.970221758
v 2.00738263 0.557536542 1.0582087
v 2.00738263 0.006740696 1.0582087
v 2.00738263 0.006740696 0.970221758
v 1.91174448 0.557536542 0.970221758
v 2.00738263 0.557536542 0.970221758
v 2.00738263 0.006740696 0.970221758
v 1.91174436 0.00674069859 0.970221758
v 2.00738263 0.557536542 -0.04703209
v 1.91174459 0.557536542 -0.0470321029
v 1.91174459 0.557536542 0.0409548432
v 2.00738263 0.557536542 0.0409548543
v 2.00738263 0.557536542 0.0409548543
v 1.91174459 0.557536542 0.0409548432
v 1.91174436 0.006740695 0.0409548432
v 2.00738263 0.006740696 0.0409548543
v 2.00738263 0.557536542 -0.04703209
v 2.00738263 0.557536542 0.0409548543
v 2.00738263 0.006740696 0.0409548543
v 2.00738263 0.006740696 -0.04703209
v 1.91174459 0.557536542 -0.0470321029
v 2.00738263 0.557536542 -0.04703209
v 2.00738263 0.006740696 -0.04703209
v 1.91174436 0.006740695 -0.0470321029
v 2.00738263 0.557536542 -1.109916
v 1.91174471 0.557536542 -1.109916
v 1.91174471 0.557536542 -1.021929
v 2.00738263 0.557536542 -1.021929
v 2.00738263 0.557536542 -1.021929
v 1.91174471 0.557536542 -1.021929
v 1.91174448 0.006740695 -1.021929
v 2.00738263 0.006740696 -1.021929
v 2.00738263 0.557536542 -1.109916
v 2.00738263 0.557536542 -1.021929
v 2.00738263 0.006740696 -1.021929
v 2.00738287 0.006740696 -1.109916
v 1.91174471 0.557536542 -1.109916
v 2.00738263 0.557536542 -1.109916
v 2.00738287 0.006740696 -1.109916
v 1.91174448 0.006740695 -1.109916
v 1.95941842 0.128279179 1.0039885
v 1.95941854 0.12827915 0.0100112166
v 1.95941854 0.4895344 0.0100112166
v 1.95941842 0.489534467 1.0039885
v 1.95941854 0.12827915 -0.03631089
v 1.95941865 0.12827912 -1.030288
v 1.95941865 0.4895344 -1.030288
v 1.95941854 0.489534467 -0.03631089
v -1.35681581 0.557536542 2.03644371
v -1.35681581 0.557536542 1.94080567
v -1.44480276 0.557536542 1.94080567
v -1.44480276 0.557536542 2.03644371
v -1.44480276 0.557536542 2.03644371
v -1.44480276 0.557536542 1.94080567
v -1.44480312 0.00674070651 1.94080544
v -1.44480312 0.00674070651 2.03644371
v -1.35681581 0.557536542 2.03644371
v -1.44480276 0.557536542 2.03644371
v -1.44480312 0.00674070651 2.03644371
v -1.35681617 0.006740707 2.03644371
v -1.35681581 0.557536542 1.94080567
v -1.35681581 0.557536542 2.03644371
v -1.35681617 0.006740707 2.03644371
v -1.35681617 0.006740707 1.94080544
v -1.37825286 0.12827912 2.001771
v -0.51437515 0.12827912 2.001771
v -0.51437515 0.489534378 2.001771
v -1.378253 0.4895344 2.001771
v -1.35681617 0.006740707 1.94080544
v -1.44480312 0.00674070651 1.94080544
v -1.44480276 0.557536542 1.94080567
v -1.35681581 0.557536542 1.94080567
v -0.446504563 0.557536542 2.03644371
v -0.446504533 0.557536542 1.94080567
v -0.5344915 0.557536542 1.94080567
v -0.5344915 0.557536542 2.03644371
v -0.5344915 0.557536542 2.03644371
v -0.5344915 0.557536542 1.94080567
v -0.5344919 0.00674071535 1.94080544
v -0.534491956 0.00674071535 2.03644371
v -0.446504563 0.557536542 2.03644371
v -0.5344915 0.557536542 2.03644371
v -0.534491956 0.00674071535 2.03644371
v -0.44650498 0.006740716 2.03644371
v -0.446504533 0.557536542 1.94080567
v -0.446504563 0.557536542 2.03644371
v -0.44650498 0.006740716 2.03644371
v -0.44650498 0.006740716 1.94080544
v -0.44650498 0.006740716 1.94080544
v -0.5344919 0.00674071535 1.94080544
v -0.5344915 0.557536542 1.94080567
v -0.446504533 0.557536542 1.94080567
v -0.469821364 0.12827912 2.001771
v 0.4352127 0.128279075 2.00177121
v 0.435212672 0.489534348 2.00177121
v -0.4698214 0.489534438 2.001771
v 0.437788516 0.557536542 2.036444
v 0.437788546 0.557536542 1.94080579
v 0.3498016 0.557536542 1.94080579
v 0.34980157 0.557536542 2.03644371
v 0.34980157 0.557536542 2.03644371
v 0.3498016 0.557536542 1.94080579
v 0.349801153 0.0067407107 1.94080555
v 0.349801153 0.0067407107 2.03644371
v 0.437788516 0.557536542 2.036444
v 0.34980157 0.557536542 2.03644371
v 0.349801153 0.0067407107 2.03644371
v 0.4377881 0.006740711 2.036444
v 0.437788546 0.557536542 1.94080579
v 0.437788516 0.557536542 2.036444
v 0.4377881 0.006740711 2.036444
v 0.4377881 0.006740711 1.94080555
v 0.4377881 0.006740711 1.94080555
v 0.349801153 0.0067407107 1.94080555
v 0.3498016 0.557536542 1.94080579
v 0.437788546 0.557536542 1.94080579
v 0.442500234 0.557536542 1.29149
v 0.442500234 0.557536542 1.19585192
v 0.3545133 0.557536542 1.19585192
v 0.3545133 0.557536542 1.29149
v 0.442500234 0.557536542 1.29149
v 0.3545133 0.557536542 1.29149
v 0.354512841 0.006740715 1.29149
v 0.4424998 0.00674071535 1.29149
v 0.442500234 0.557536542 1.19585192
v 0.442500234 0.557536542 1.29149
v 0.4424998 0.00674071535 1.29149
v 0.4424998 0.00674071535 1.19585168
v -1.36561906 0.557536542 1.27963042
v -1.36561906 0.557536542 1.18399239
v -1.453606 0.557536542 1.18399239
v -1.453606 0.557536542 1.27963042
v -1.453606 0.557536542 1.27963042
v -1.453606 0.557536542 1.18399239
v -1.45360649 0.00674070232 1.18399215
v -1.45360649 0.00674070232 1.27963042
v -1.36561906 0.557536542 1.27963042
v -1.453606 0.557536542 1.27963042
v -1.45360649 0.00674070232 1.27963042
v -1.36561954 0.00674070232 1.27963042
v -1.41889751 0.1282791 1.26593626
v -1.41889751 0.1282791 1.98569131
v -1.41889763 0.4895344 1.98569131
v -1.41889751 0.489534467 1.26593626
v 0.397523 0.4895344 1.98569143
v 0.397523016 0.1282791 1.98569143
v 0.397523075 0.1282791 1.26593637
v 0.397523046 0.489534467 1.26593637
v -2.0306704 0.557536542 1.05820835
v -1.93503225 0.557536542 1.05820835
v -1.93503225 0.557536542 0.97022146
v -2.0306704 0.557536542 0.9702214
v -2.0306704 0.557536542 0.9702214
v -1.93503225 0.557536542 0.97022146
v -1.93503213 0.00674069347 0.97022146
v -2.0306704 0.00674069254 0.9702214
v -2.0306704 0.557536542 1.05820835
v -2.0306704 0.557536542 0.9702214
v -2.0306704 0.00674069254 0.9702214
v -2.0306704 0.00674069254 1.05820835
v -1.93503225 0.557536542 1.05820835
v -2.0306704 0.557536542 1.05820835
v -2.0306704 0.00674069254 1.05820835
v -1.93503225 0.00674069347 1.05820835
v -2.030671 0.557536542 0.0409540236
v -1.93503261 0.557536542 0.04095403
v -1.93503261 0.557536542 -0.0470329151
v -2.030671 0.557536542 -0.0470329225
v -2.030671 0.557536542 -0.0470329225
v -1.93503261 0.557536542 -0.0470329151
v -1.93503261 0.00674069347 -0.0470329151
v -2.030671 0.00674069254 -0.0470329225
v -2.030671 0.557536542 0.0409540236
v -2.030671 0.557536542 -0.0470329225
v -2.030671 0.00674069254 -0.0470329225
v -2.0306704 0.00674069254 0.0409540236
v -1.93503261 0.557536542 0.04095403
v -2.030671 0.557536542 0.0409540236
v -2.0306704 0.00674069254 0.0409540236
v -1.93503213 0.00674069347 0.04095403
v -2.030671 0.557536542 -1.02193034
v -1.93503249 0.557536542 -1.02193034
v -1.93503249 0.557536542 -1.10991728
v -2.030671 0.557536542 -1.10991728
v -2.030671 0.557536542 -1.10991728
v -1.93503249 0.557536542 -1.10991728
v -1.935032 0.00674069347 -1.10991728
v -2.03067017 0.00674069254 -1.10991728
v -2.030671 0.557536542 -1.02193034
v -2.030671 0.557536542 -1.10991728
v -2.03067017 0.00674069254 -1.10991728
v -2.0306704 0.00674069254 -1.02193034
v -1.93503249 0.557536542 -1.02193034
v -2.030671 0.557536542 -1.02193034
v -2.0306704 0.00674069254 -1.02193034
v -1.935032 0.00674069347 -1.02193034
v -2.00690675 0.128279164 0.0100106318
v -2.00690627 0.128279135 1.00398791
v -2.00690675 0.489534438 1.00398791
v -2.00690675 0.4895345 0.0100106318
v -2.00690675 0.128279135 -1.03028834
v -2.00690675 0.1282791 -0.03631124
v -2.00690722 0.489534438 -0.03631124
v -2.00690722 0.4895345 -1.03028834
v 1.91410232 2.19568253 -1.22345233
v 1.91410339 0.007887436 -1.22345233
v 0.49228254 0.007887018 -1.22345245
v 0.492281854 2.195682 -1.22345245
v -1.28150856 0.7156379 -1.15820551
v 0.343376458 0.7156384 -1.15820491
v 0.343376458 0.7156384 -1.22345245
v -0.4793746 0.715638161 -1.22345257
v -1.28150856 0.7156379 -1.22345257
v -1.28150856 0.7156379 -1.22345257
v -1.28150868 1.48793 -1.22345257
v -1.28150868 1.48793 -1.158205
v -1.28150856 0.7156379 -1.15820551
v 0.343375921 1.48793066 -1.22345245
v 0.343376458 0.7156384 -1.22345245
v 0.343376458 0.7156384 -1.15820491
v 0.343375921 1.48793066 -1.15820491
v 0.343375921 1.48793066 -1.22345245
v -0.479375124 1.48793054 -1.22345257
v -0.479375184 2.19568181 -1.22345257
v 0.492281854 2.195682 -1.22345245
v 0.49228254 0.007887018 -1.22345245
v -0.4793745 0.007886657 -1.22345257
v -0.4793746 0.715638161 -1.22345257
v 0.343376458 0.7156384 -1.22345245
v -1.28150856 0.7156379 -1.22345257
v -1.9368645 0.007886306 -1.22345269
v -1.93686509 2.19568133 -1.22345269
v -1.28150868 1.48793 -1.22345257
v -1.35633433 0.345908374 -1.99118042
v -1.35633481 0.635193169 -1.22652912
v -0.47804752 0.6351931 -1.22652912
v -0.478046954 0.345908225 -1.99118
v 0.35293135 0.6351931 -1.226529
v 0.352931917 0.345908225 -1.99117982
v -1.35633469 1.59266691E-07 -1.99118042
v -1.35633433 0.345908374 -1.99118042
v -0.478046954 0.345908225 -1.99118
v -0.478046924 1.91345563E-07 -1.99118
v 0.352931917 0.345908225 -1.99117982
v 0.35293147 1.59683864E-07 -1.99117982
v 0.35293135 0.6351931 -1.226529
v 0.352930933 1.26156209E-07 -1.226529
v -1.35633481 1.25739078E-07 -1.22652912
v -1.35633481 0.635193169 -1.22652912
v -1.44480193 0.557536542 -2.000173
v -1.356815 0.557536542 -2.000173
v -1.356815 0.557536542 -2.095811
v -1.44480193 0.557536542 -2.095811
v -1.44480228 0.006740699 -2.00017262
v -1.44480193 0.557536542 -2.000173
v -1.44480193 0.557536542 -2.095811
v -1.44480228 0.006740703 -2.095811
v -1.44480228 0.006740703 -2.095811
v -1.44480193 0.557536542 -2.095811
v -1.356815 0.557536542 -2.095811
v -1.35681534 0.00674070325 -2.095811
v -1.35681534 0.00674070325 -2.095811
v -1.356815 0.557536542 -2.095811
v -1.356815 0.557536542 -2.000173
v -1.35681534 0.006740696 -2.00017262
v -0.5143743 0.489534378 -2.06113815
v -0.5143743 0.1282791 -2.06113815
v -1.378252 0.12827915 -2.06113815
v -1.37825215 0.4895344 -2.06113815
v -1.44480193 0.557536542 -2.000173
v -1.44480228 0.006740699 -2.00017262
v -1.35681534 0.006740696 -2.00017262
v -1.356815 0.557536542 -2.000173
v -0.534490645 0.557536542 -2.00017262
v -0.446503729 0.557536542 -2.00017262
v -0.446503729 0.557536542 -2.095811
v -0.534490645 0.557536542 -2.095811
v -0.5344911 0.00674068928 -2.00017262
v -0.534490645 0.557536542 -2.00017262
v -0.534490645 0.557536542 -2.095811
v -0.534491062 0.006740693 -2.095811
v -0.534491062 0.006740693 -2.095811
v -0.534490645 0.557536542 -2.095811
v -0.446503729 0.557536542 -2.095811
v -0.446504146 0.00674069347 -2.095811
v -0.446504146 0.00674069347 -2.095811
v -0.446503729 0.557536542 -2.095811
v -0.446503729 0.557536542 -2.00017262
v -0.446504146 0.006740686 -2.00017262
v -0.534490645 0.557536542 -2.00017262
v -0.5344911 0.00674068928 -2.00017262
v -0.446504146 0.006740686 -2.00017262
v -0.446503729 0.557536542 -2.00017262
v 0.4352135 0.489534348 -2.061138
v 0.435213536 0.128279045 -2.061138
v -0.469820529 0.128279135 -2.06113815
v -0.469820559 0.489534438 -2.06113815
v 0.3498024 0.557536542 -2.00017262
v 0.437789351 0.557536542 -2.00017238
v 0.437789351 0.557536542 -2.09581065
v 0.3498024 0.557536542 -2.095811
v 0.349802 0.006740707 -2.00017262
v 0.3498024 0.557536542 -2.00017262
v 0.3498024 0.557536542 -2.095811
v 0.349802 0.0067407107 -2.095811
v 0.349802 0.0067407107 -2.095811
v 0.3498024 0.557536542 -2.095811
v 0.437789351 0.557536542 -2.09581065
v 0.437788934 0.006740711 -2.09581065
v 0.437788934 0.006740711 -2.09581065
v 0.437789351 0.557536542 -2.09581065
v 0.437789351 0.557536542 -2.00017238
v 0.437788934 0.00674070371 -2.00017238
v 0.3498024 0.557536542 -2.00017262
v 0.349802 0.006740707 -2.00017262
v 0.437788934 0.00674070371 -2.00017238
v 0.437789351 0.557536542 -2.00017238
v 0.3545135 0.557536542 -1.25521886
v 0.442500442 0.557536542 -1.25521886
v 0.442500442 0.557536542 -1.35085666
v 0.3545135 0.557536542 -1.35085666
v 0.354513079 0.006740711 -1.35085666
v 0.3545135 0.557536542 -1.35085666
v 0.442500442 0.557536542 -1.35085666
v 0.442500025 0.00674071163 -1.35085666
v 0.442500025 0.00674071163 -1.35085666
v 0.442500442 0.557536542 -1.35085666
v 0.442500442 0.557536542 -1.25521886
v 0.442500025 0.006740708 -1.25521839
v -1.45360577 0.557536542 -1.24336
v -1.36561882 0.557536542 -1.24336
v -1.36561882 0.557536542 -1.33899832
v -1.45360577 0.557536542 -1.33899832
v -1.45360625 0.006740695 -1.24335957
v -1.45360577 0.557536542 -1.24336
v -1.45360577 0.557536542 -1.33899832
v -1.45360625 0.00674069859 -1.33899784
v -1.45360625 0.00674069859 -1.33899784
v -1.45360577 0.557536542 -1.33899832
v -1.36561882 0.557536542 -1.33899832
v -1.3656193 0.00674069859 -1.33899784
v -1.41889679 0.4895344 -2.0450592
v -1.41889668 0.1282791 -2.04505968
v -1.41889727 0.1282791 -1.32530451
v -1.41889727 0.489534467 -1.325304
v 0.397523284 0.1282791 -1.325303
v 0.39752385 0.1282791 -2.045058
v 0.3975238 0.4895344 -2.045058
v 0.397523254 0.489534467 -1.325303
v 3.05880427 2.34789848 -0.176038384
v 2.47128439 2.28078938 -0.176038444
v 3.06358433 1.82624948 -0.173671365
v 2.70098066 2.187452 -0.1736714
v 2.68035316 1.54144239 -0.1736714
v 2.70098066 1.93748069 -0.1736714
v -2.471283 2.28078842 -0.176038876
v -3.058803 2.34789729 -0.176038921
v -2.70097971 2.187451 -0.173671871
v -3.06358266 1.82624817 -0.1736719
v -2.70097971 1.9374795 -0.173671871
v -2.6803515 1.5414412 -0.173671871
v -0.987910867 2.7559402 1.8913002
v -0.924507737 2.7559402 1.90840733
v -0.0745430961 4.07919168 0.11701902
v -0.109559633 4.07919168 0.114121281
v 0.0725897253 2.850693 1.90755343
v 0.135992855 2.850693 1.92466056
v 0.0115593849 4.09134245 0.117019027
v -0.02345715 4.09134245 0.114121288
v 1.12127626 2.755116 1.91923618
v 1.17642391 2.744952 1.92744792
v 0.110555552 4.07919168 0.11167679
v 0.0755390152 4.07919168 0.10877905
v 1.48812485 1.95518231 -1.74942851
v 0.355538636 1.95518219 -1.89383829
v 0.329362541 3.08815956 -1.6929034
v 1.46194685 3.08815932 -1.54849362
v 0.414061338 1.97778809 -1.83829677
v -0.6814091 1.977788 -1.79847288
v -0.6748713 3.065554 -1.60403585
v 0.4205977 3.06555367 -1.64385974
v -0.07454308 4.13177824 -0.137766048
v -1.13895762 3.048712 -1.62783825
v -1.186 3.04480839 -1.6281482
v -0.109559618 4.13466644 -0.137535736
v 0.0444106236 4.13177824 -0.137766033
v -0.111227363 3.05789876 -1.62892139
v -0.160270065 3.06195235 -1.62755859
v 0.009394086 4.13466644 -0.137535721
v 0.1910533 4.13177824 -0.0299257189
v 0.9175664 3.06712437 -1.62967956
v 0.8687533 3.07084823 -1.630629
v 0.1604642 4.13466644 -0.04697003
v -1.33791745 1.45224082 -2.2718606
v -1.33791745 1.550121 -2.27346
v 0.3359817 1.550121 -2.27346
v 0.3359817 1.452241 -2.2718606
v -1.33791757 1.88583994 -1.21742773
v 0.335981578 1.88584 -1.21742761
v -0.637559652 1.97778821 -1.88435268
v -1.72563052 1.97778785 -1.75114882
v -1.70251787 3.065554 -1.5579797
v -0.614447951 3.065554 -1.69118357
v 0.329362541 3.08815956 -1.64517057
v 0.3555391 1.95518208 -1.84610546
v 1.48812485 1.95518219 -1.70169568
v 1.46194708 3.08815932 -1.50076079
v -0.6748718 3.065554 -1.556303
v -0.6814091 1.977788 -1.75074
v 0.4140613 1.97778809 -1.790564
v 0.420597225 3.06555367 -1.59612691
v -1.70251834 3.065554 -1.51024735
v -1.725631 1.97778785 -1.70341647
v -0.6375601 1.97778821 -1.83662033
v -0.6144489 3.065554 -1.64345121
v 0.5848436 0.0310679749 -1.79831994
v 1.60167956 0.0310679749 -1.7983197
v 1.60167956 0.00445621833 -1.7983197
v 0.5848436 0.00445621833 -1.79831994
v 0.5848436 0.0310679749 -1.79831994
v 0.5848436 0.00445621833 -1.79831994
v 0.584843457 0.00445624068 -0.8598305
v 0.584843457 0.0310680009 -0.8598305
v 1.60167956 0.0310679749 -1.7983197
v 0.584843457 0.0310680009 -0.8598305
v 1.60167956 0.0310680009 -0.85983026
v 1.60167956 0.00445621833 -1.7983197
v 1.60167956 0.00445624068 -0.85983026
v 1.59186268 0.0310679749 1.744859
v 0.532744169 0.0310679749 1.74485874
v 0.532744169 0.00445621833 1.74485874
v 1.59186268 0.00445621833 1.744859
v 1.59186268 0.0310679749 1.744859
v 1.59186268 0.00445621833 1.744859
v 1.59186292 0.00445624068 0.806369543
v 1.59186292 0.0310680009 0.806369543
v 0.532744169 0.0310679749 1.74485874
v 1.59186292 0.0310680009 0.806369543
v 0.532744169 0.0310680009 0.8063694
v 0.532744169 0.00445621833 1.74485874
v 0.532744169 0.00445624068 0.8063694
v 1.78730488 0.7824249 -1.21559024
v 1.78730512 0.7824249 -1.75587893
v 1.78730452 1.76465368 -1.75587893
v 1.78730452 1.76465392 -1.21559024
v 1.76236677 1.76465368 -1.75587893
v 1.76236737 0.7824249 -1.75587893
v 1.76236713 0.7824249 -1.21559024
v 1.76236677 1.76465392 -1.21559024
v 1.81207335 0.7108445 1.7938149
v 1.81207371 0.7108445 1.17477846
v 1.81207311 1.83623421 1.17477846
v 1.81207311 1.83623457 1.7938149
v 1.7871356 1.83623421 1.17477846
v 1.7871362 0.7108445 1.17477846
v 1.7871356 0.7108445 1.7938149
v 1.7871356 1.83623457 1.7938149
vt 0.44921875 0.99609375
vt 0.19921875 0.9921875
vt 0.19921875 0.9375
vt 0.44921875 0.9453125
vt 0.4453125 0.5859375
vt 0.4921875 0.80078125
vt 0.26953125 0.66015625
vt 0.25 0.3828125
vt 0.11328125 0.4609375
vt 0.01171875 0.9375
vt 0.01171875 0.890625
vt 0.5390625 0.359375
vt 0.0546875 0.828125
vt 0 0.58203125
vt 0.05859375 0.58984375
vt 0.08984375 0.8125
vt 0.21875 0.94140625
vt 0.2265625 0.8984375
vt 0.796875 0.68359375
vt 0.7265625 0.859375
vt 0.19921875 0.9375
vt 0.19921875 0.9921875
vt 0.796875 0.41015625
vt 0.0546875 0.828125
vt 0.08984375 0.8125
vt 0.19921875 0.9375
vt 0.19921875 0.9921875
vt 0.44921875 0.99609375
vt 0.44921875 0.9453125
vt 0.26953125 0.66015625
vt 0.4921875 0.80078125
vt 0.4453125 0.5859375
vt 0.25 0.3828125
vt 0.11328125 0.4609375
vt 0.01171875 0.890625
vt 0.01171875 0.9375
vt 0.5390625 0.359375
vt 0.05859375 0.58984375
vt 0 0.58203125
vt 0.0546875 0.828125
vt 0.08984375 0.8125
vt 0.21875 0.94140625
vt 0.2265625 0.8984375
vt 0.90625 0.71875
vt 0.99609375 0.71875
vt 0.99609375 0.98046875
vt 0.90625 0.98046875
vt 0.99609375 0.4296875
vt 0.90625 0.4296875
vt 0.90234375 0.78125
vt 1 0.78125
vt 1 0.98046875
vt 0.90234375 0.98046875
vt 0.90234375 0.81640625
vt 1 0.81640625
vt 0.15234375 0.53125
vt 0.01953125 0.546875
vt 0.203125 0.6640625
vt 0.28125 0.7578125
vt 0.1015625 0.50390625
vt 0.01953125 0.41796875
vt 0.1015625 0.4453125
vt 0.10546875 0.36328125
vt -1.92325354 -0.0697145462
vt -1.92325354 -0.169592619
vt -2.00007677 -0.169592619
vt -2.00007677 -0.0697145462
vt 0.796875 0.68359375
vt 0.7265625 0.859375
vt 0.19921875 0.9375
vt 0.19921875 0.9921875
vt 0.796875 0.41015625
vt 0.0546875 0.828125
vt 0.08984375 0.8125
vt 0.90234375 0.52734375
vt 0.90234375 0.78125
vt 1 0.78125
vt 1 0.52734375
vt 0.3828125 0.93359375
vt 0.50390625 0.921875
vt 0.49609375 0.8984375
vt 0.671875 0.94921875
vt 0.75390625 0.92578125
vt 0.2734375 0.84375
vt 0.50390625 0.921875
vt 0.3828125 0.93359375
vt 0.49609375 0.8984375
vt 0.7578125 0.921875
vt 0.671875 0.94921875
vt 0.28125 0.7578125
vt 0.2734375 0.84375
vt 0.203125 0.6640625
vt 0.19921875 0.9375
vt 0.19921875 0.9921875
vt 0.44921875 0.99609375
vt 0.44921875 0.9453125
vt 0.26953125 0.66015625
vt 0.4921875 0.80078125
vt 0.4453125 0.5859375
vt 0.25 0.3828125
vt 0.11328125 0.4609375
vt 0.01171875 0.890625
vt 0.01171875 0.9375
vt 0.5390625 0.359375
vt 0.05859375 0.58984375
vt 0 0.58203125
vt 0.0546875 0.828125
vt 0.08984375 0.8125
vt 0.21875 0.94140625
vt 0.2265625 0.8984375
vt 0.44921875 0.99609375
vt 0.19921875 0.9921875
vt 0.19921875 0.9375
vt 0.44921875 0.9453125
vt 0.4453125 0.5859375
vt 0.4921875 0.80078125
vt 0.26953125 0.66015625
vt 0.25 0.3828125
vt 0.11328125 0.4609375
vt 0.01171875 0.9375
vt 0.01171875 0.890625
vt 0.5390625 0.359375
vt 0.0546875 0.828125
vt 0 0.58203125
vt 0.05859375 0.58984375
vt 0.08984375 0.8125
vt 0.21875 0.94140625
vt 0.2265625 0.8984375
vt 0.99609375 0.98046875
vt 0.99609375 0.71875
vt 0.90625 0.71875
vt 0.90625 0.98046875
vt 0.90234375 0.78125
vt 0.90625 0.4296875
vt 0.99609375 0.4296875
vt 1 0.78125
vt 0.90234375 0.81640625
vt 0.90234375 0.98046875
vt 1 0.98046875
vt 1 0.81640625
vt 0.203125 0.6640625
vt 0.01953125 0.546875
vt 0.15234375 0.53125
vt 0.28125 0.7578125
vt 0.01953125 0.41796875
vt 0.1015625 0.50390625
vt 0.10546875 0.36328125
vt 0.1015625 0.4453125
vt -2.00007677 -0.169592619
vt -1.92325354 -0.169592619
vt -1.92325354 -0.0697145462
vt -2.00007677 -0.0697145462
vt 1 0.78125
vt 0.90234375 0.78125
vt 0.90234375 0.52734375
vt 1 0.52734375
vt 0.3828125 0.93359375
vt 0.49609375 0.8984375
vt 0.50390625 0.921875
vt 0.671875 0.94921875
vt 0.2734375 0.84375
vt 0.71875 0.0119947195
vt 0.9983443 0.0119947195
vt 0.9983443 0.5546875
vt 0.71875 0.5546875
vt 0.71875 0.0119947195
vt 0.9983443 0.0119947195
vt 0.9983443 0.5546875
vt 0.71875 0.5546875
vt 0.80859375 0.94921875
vt 0.80859375 0.94921875
vt 0.49609375 0.2734375
vt 0.41796875 0.2734375
vt 0.41796875 0.34375
vt 0.49609375 0.34375
vt 0.41796875 0.21484375
vt 0.49609375 0.21484375
vt 0.49609375 0.2734375
vt 0.41796875 0.2734375
vt 0.41796875 0.21484375
vt 0.49609375 0.21484375
vt 0.49609375 0.2734375
vt 0.41796875 0.2734375
vt 0.7421875 1
vt 0.69921875 0.984375
vt 0.78515625 0.98828125
vt 0.7421875 1
vt 0.69921875 0.984375
vt 0.78515625 0.98828125
vt 0.3671875 0.01171875
vt 0.71875 0.01171875
vt 0.71875 0.55859375
vt 0.3671875 0.55859375
vt 0.66796875 -0.86328125
vt 0.71484375 -0.86328125
vt 0.71484375 -0.69140625
vt 0.71484375 -0.51171875
vt 0.66796875 -0.51171875
vt 1.15234375 -0.52734375
vt 1.1171875 -0.52734375
vt 1.1171875 -0.71484375
vt 1.15234375 -0.71484375
vt 1.1171875 -0.71875
vt 1.15234375 -0.71875
vt 1.15234375 -0.52734375
vt 1.1171875 -0.52734375
vt 0.35546875 0.5625
vt 0.35546875 0.38671875
vt 0.15234375 0.38671875
vt 0.35546875 0.1953125
vt 0.35546875 0.01953125
vt 0.11328125 0.01953125
vt 0.15234375 0.1953125
vt 0.11328125 0.5625
vt 0.16015625 0.1953125
vt 0 0.5625
vt 0.16015625 0.38671875
vt 0 0.01953125
vt 0.71875 0.0119947195
vt 0.71875 0.5546875
vt 0.71875 0.0119947195
vt 0.71875 0.5546875
vt 0.31640625 0.98046875
vt 0.328125 0.875
vt 0.1796875 0.84765625
vt 0.140625 0.9296875
vt 0.078125 0.78125
vt 0.01953125 0.86328125
vt 0.58203125 0.9296875
vt 0.5390625 0.8203125
vt 0.4453125 0.85546875
vt 0.4765625 0.96484375
vt 0.34765625 0.75
vt 0.22265625 0.73828125
vt 0.1640625 0.69140625
vt 0.484375 0.6796875
vt 0.4375 0.734375
vt 0.3203125 0.6171875
vt 0.2890625 0.61328125
vt 0.28515625 0.6015625
vt 0.3671875 0.6015625
vt 0.34765625 0.61328125
vt 0.1015625 0.57421875
vt 0.125 0.6015625
vt 0.125 0.63671875
vt 0.109375 0.64453125
vt 0.07421875 0.60546875
vt 0.08203125 0.58203125
vt 0.31640625 0.58203125
vt 0.296875 0.58203125
vt 0.31640625 0.58203125
vt 0.3203125 0.6171875
vt 0.125 0.6015625
vt 0.125 0.63671875
vt 0.35546875 0.5703125
vt 0.3359375 0.57421875
vt 0.1015625 0.57421875
vt 0.1796875 0.84765625
vt 0.328125 0.875
vt 0.078125 0.78125
vt 0.4453125 0.85546875
vt 0.5390625 0.8203125
vt 0.22265625 0.73828125
vt 0.34765625 0.75
vt 0.1640625 0.69140625
vt 0.4375 0.734375
vt 0.484375 0.6796875
vt 0.2890625 0.61328125
vt 0.3203125 0.6171875
vt 0.28515625 0.6015625
vt 0.34765625 0.61328125
vt 0.3671875 0.6015625
vt 0.07421875 0.60546875
vt 0.109375 0.64453125
vt 0.125 0.63671875
vt 0.125 0.6015625
vt 0.1015625 0.57421875
vt 0.08203125 0.58203125
vt 0.296875 0.58203125
vt 0.31640625 0.58203125
vt 0.3203125 0.6171875
vt 0.31640625 0.58203125
vt 0.125 0.6015625
vt 0.125 0.63671875
vt 0.3359375 0.57421875
vt 0.35546875 0.5703125
vt 0.1015625 0.57421875
vt 0.9921875 0.0078125
vt 0.51171875 0.0078125
vt 0.51171875 0.046875
vt 0.9921875 0.046875
vt 0.51171875 0.33984375
vt 0.9921875 0.33984375
vt 0.50390625 0.921875
vt 0.49609375 0.8984375
vt 0.3828125 0.93359375
vt 0.671875 0.94921875
vt 0.28125 0.7578125
vt 0.2734375 0.84375
vt 0.203125 0.6640625
vt 0.60546875 0.79296875
vt 0.60546875 0.578125
vt 0.7890625 0.578125
vt 0.7890625 0.79296875
vt 0.60546875 0.99609375
vt 0.7890625 0.99609375
vt 0.8828125 0.98828125
vt 0.8828125 0.7734375
vt 1 0.7734375
vt 1 0.98828125
vt 0.8828125 0.7734375
vt 1 0.7734375
vt 0.81640625 0.578125
vt 1 0.578125
vt 0.81640625 0.578125
vt 1 0.578125
vt 0.7556345 0.435618043
vt 0.7164773 0.435618043
vt 0.7164773 0.394827247
vt 0.7556345 0.394827247
vt 0.71484375 0.51171875
vt 0.71484375 0.46484375
vt 0.9609375 0.46484375
vt 0.9609375 0.51171875
vt 0.71484375 0.51171875
vt 0.71484375 0.46484375
vt 0.9609375 0.46484375
vt 0.9609375 0.51171875
vt 0.71484375 0.51171875
vt 0.71484375 0.46484375
vt 0.9609375 0.46484375
vt 0.9609375 0.51171875
vt 0.7556345 0.435618043
vt 0.7164773 0.435618043
vt 0.7164773 0.394827247
vt 0.7556345 0.394827247
vt 0.71484375 0.51171875
vt 0.71484375 0.46484375
vt 0.9609375 0.46484375
vt 0.9609375 0.51171875
vt 0.71484375 0.51171875
vt 0.71484375 0.46484375
vt 0.9609375 0.46484375
vt 0.9609375 0.51171875
vt 0.71484375 0.51171875
vt 0.71484375 0.46484375
vt 0.9609375 0.46484375
vt 0.9609375 0.51171875
vt 0.7556345 0.435618043
vt 0.7164773 0.435618043
vt 0.7164773 0.394827247
vt 0.7556345 0.394827247
vt 0.71484375 0.51171875
vt 0.71484375 0.46484375
vt 0.9609375 0.46484375
vt 0.9609375 0.51171875
vt 0.71484375 0.51171875
vt 0.71484375 0.46484375
vt 0.9609375 0.46484375
vt 0.9609375 0.51171875
vt 0.71484375 0.51171875
vt 0.71484375 0.46484375
vt 0.9609375 0.46484375
vt 0.9609375 0.51171875
vt 0.0078125 0.00570976734
vt 0.474758983 0.00570976734
vt 0.474758983 0.1796875
vt 0.0078125 0.1796875
vt 0.0078125 0.00570976734
vt 0.474758983 0.00570976734
vt 0.474758983 0.1796875
vt 0.0078125 0.1796875
vt 0.7556345 0.435618043
vt 0.7164773 0.435618043
vt 0.7164773 0.394827247
vt 0.7556345 0.394827247
vt 0.71484375 0.51171875
vt 0.71484375 0.46484375
vt 0.9609375 0.46484375
vt 0.9609375 0.51171875
vt 0.71484375 0.51171875
vt 0.71484375 0.46484375
vt 0.9609375 0.46484375
vt 0.9609375 0.51171875
vt 0.71484375 0.51171875
vt 0.71484375 0.46484375
vt 0.9609375 0.46484375
vt 0.9609375 0.51171875
vt 0.0078125 0.00570976734
vt 0.474758983 0.00570976734
vt 0.474758983 0.1796875
vt 0.0078125 0.1796875
vt 0.9609375 0.46484375
vt 0.9609375 0.51171875
vt 0.71484375 0.51171875
vt 0.71484375 0.46484375
vt 0.7556345 0.435618043
vt 0.7164773 0.435618043
vt 0.7164773 0.394827247
vt 0.7556345 0.394827247
vt 0.71484375 0.51171875
vt 0.71484375 0.46484375
vt 0.9609375 0.46484375
vt 0.9609375 0.51171875
vt 0.71484375 0.51171875
vt 0.71484375 0.46484375
vt 0.9609375 0.46484375
vt 0.9609375 0.51171875
vt 0.71484375 0.51171875
vt 0.71484375 0.46484375
vt 0.9609375 0.46484375
vt 0.9609375 0.51171875
vt 0.9609375 0.46484375
vt 0.9609375 0.51171875
vt 0.71484375 0.51171875
vt 0.71484375 0.46484375
vt 0.0078125 0.00570976734
vt 0.474758983 0.00570976734
vt 0.474758983 0.1796875
vt 0.0078125 0.1796875
vt 0.7556345 0.435618043
vt 0.7164773 0.435618043
vt 0.7164773 0.394827247
vt 0.7556345 0.394827247
vt 0.71484375 0.51171875
vt 0.71484375 0.46484375
vt 0.9609375 0.46484375
vt 0.9609375 0.51171875
vt 0.71484375 0.51171875
vt 0.71484375 0.46484375
vt 0.9609375 0.46484375
vt 0.9609375 0.51171875
vt 0.71484375 0.51171875
vt 0.71484375 0.46484375
vt 0.9609375 0.46484375
vt 0.9609375 0.51171875
vt 0.9609375 0.46484375
vt 0.9609375 0.51171875
vt 0.71484375 0.51171875
vt 0.71484375 0.46484375
vt 0.7556345 0.435618043
vt 0.7164773 0.435618043
vt 0.7164773 0.394827247
vt 0.7556345 0.394827247
vt 0.71484375 0.51171875
vt 0.71484375 0.46484375
vt 0.9609375 0.46484375
vt 0.9609375 0.51171875
vt 0.71484375 0.51171875
vt 0.71484375 0.46484375
vt 0.9609375 0.46484375
vt 0.9609375 0.51171875
vt 0.7556345 0.435618043
vt 0.7164773 0.435618043
vt 0.7164773 0.394827247
vt 0.7556345 0.394827247
vt 0.71484375 0.51171875
vt 0.71484375 0.46484375
vt 0.9609375 0.46484375
vt 0.9609375 0.51171875
vt 0.71484375 0.51171875
vt 0.71484375 0.46484375
vt 0.9609375 0.46484375
vt 0.9609375 0.51171875
vt 0.0078125 0.00570976734
vt 0.474758983 0.00570976734
vt 0.474758983 0.1796875
vt 0.0078125 0.1796875
vt 0.474758983 0.1796875
vt 0.474758983 0.00570976734
vt 0.0078125 0.00570976734
vt 0.0078125 0.1796875
vt 0.7556345 0.435618043
vt 0.7164773 0.435618043
vt 0.7164773 0.394827247
vt 0.7556345 0.394827247
vt 0.71484375 0.51171875
vt 0.71484375 0.46484375
vt 0.9609375 0.46484375
vt 0.9609375 0.51171875
vt 0.71484375 0.51171875
vt 0.71484375 0.46484375
vt 0.9609375 0.46484375
vt 0.9609375 0.51171875
vt 0.71484375 0.51171875
vt 0.71484375 0.46484375
vt 0.9609375 0.46484375
vt 0.9609375 0.51171875
vt 0.7556345 0.435618043
vt 0.7164773 0.435618043
vt 0.7164773 0.394827247
vt 0.7556345 0.394827247
vt 0.71484375 0.51171875
vt 0.71484375 0.46484375
vt 0.9609375 0.46484375
vt 0.9609375 0.51171875
vt 0.71484375 0.51171875
vt 0.71484375 0.46484375
vt 0.9609375 0.46484375
vt 0.9609375 0.51171875
vt 0.71484375 0.51171875
vt 0.71484375 0.46484375
vt 0.9609375 0.46484375
vt 0.9609375 0.51171875
vt 0.7556345 0.435618043
vt 0.7164773 0.435618043
vt 0.7164773 0.394827247
vt 0.7556345 0.394827247
vt 0.71484375 0.51171875
vt 0.71484375 0.46484375
vt 0.9609375 0.46484375
vt 0.9609375 0.51171875
vt 0.71484375 0.51171875
vt 0.71484375 0.46484375
vt 0.9609375 0.46484375
vt 0.9609375 0.51171875
vt 0.71484375 0.51171875
vt 0.71484375 0.46484375
vt 0.9609375 0.46484375
vt 0.9609375 0.51171875
vt 0.0078125 0.00570976734
vt 0.474758983 0.00570976734
vt 0.474758983 0.1796875
vt 0.0078125 0.1796875
vt 0.0078125 0.00570976734
vt 0.474758983 0.00570976734
vt 0.474758983 0.1796875
vt 0.0078125 0.1796875
vt 0.71875 0.55859375
vt 0.71875 0.01171875
vt 0.3671875 0.01171875
vt 0.3671875 0.55859375
vt 0.66796875 -0.86328125
vt 0.66796875 -0.51171875
vt 0.71484375 -0.51171875
vt 0.71484375 -0.69140625
vt 0.71484375 -0.86328125
vt 1.1171875 -0.71484375
vt 1.1171875 -0.52734375
vt 1.15234375 -0.52734375
vt 1.15234375 -0.71484375
vt 1.15234375 -0.52734375
vt 1.15234375 -0.71875
vt 1.1171875 -0.71875
vt 1.1171875 -0.52734375
vt 0.15234375 0.38671875
vt 0.35546875 0.38671875
vt 0.35546875 0.5625
vt 0.11328125 0.5625
vt 0.11328125 0.01953125
vt 0.35546875 0.01953125
vt 0.35546875 0.1953125
vt 0.15234375 0.1953125
vt 0.16015625 0.1953125
vt 0 0.01953125
vt 0 0.5625
vt 0.16015625 0.38671875
vt 0.7890625 0.578125
vt 0.60546875 0.578125
vt 0.60546875 0.79296875
vt 0.7890625 0.79296875
vt 0.60546875 0.99609375
vt 0.7890625 0.99609375
vt 1 0.7734375
vt 0.8828125 0.7734375
vt 0.8828125 0.98828125
vt 1 0.98828125
vt 0.8828125 0.7734375
vt 1 0.7734375
vt 0.81640625 0.578125
vt 1 0.578125
vt 1 0.578125
vt 0.81640625 0.578125
vt 0.7164773 0.394827247
vt 0.7164773 0.435618043
vt 0.7556345 0.435618043
vt 0.7556345 0.394827247
vt 0.9609375 0.46484375
vt 0.71484375 0.46484375
vt 0.71484375 0.51171875
vt 0.9609375 0.51171875
vt 0.9609375 0.46484375
vt 0.71484375 0.46484375
vt 0.71484375 0.51171875
vt 0.9609375 0.51171875
vt 0.9609375 0.46484375
vt 0.71484375 0.46484375
vt 0.71484375 0.51171875
vt 0.9609375 0.51171875
vt 0.474758983 0.1796875
vt 0.474758983 0.00570976734
vt 0.0078125 0.00570976734
vt 0.0078125 0.1796875
vt 0.71484375 0.51171875
vt 0.9609375 0.51171875
vt 0.9609375 0.46484375
vt 0.71484375 0.46484375
vt 0.7164773 0.394827247
vt 0.7164773 0.435618043
vt 0.7556345 0.435618043
vt 0.7556345 0.394827247
vt 0.9609375 0.46484375
vt 0.71484375 0.46484375
vt 0.71484375 0.51171875
vt 0.9609375 0.51171875
vt 0.9609375 0.46484375
vt 0.71484375 0.46484375
vt 0.71484375 0.51171875
vt 0.9609375 0.51171875
vt 0.9609375 0.46484375
vt 0.71484375 0.46484375
vt 0.71484375 0.51171875
vt 0.9609375 0.51171875
vt 0.71484375 0.51171875
vt 0.9609375 0.51171875
vt 0.9609375 0.46484375
vt 0.71484375 0.46484375
vt 0.474758983 0.1796875
vt 0.474758983 0.00570976734
vt 0.0078125 0.00570976734
vt 0.0078125 0.1796875
vt 0.7164773 0.394827247
vt 0.7164773 0.435618043
vt 0.7556345 0.435618043
vt 0.7556345 0.394827247
vt 0.9609375 0.46484375
vt 0.71484375 0.46484375
vt 0.71484375 0.51171875
vt 0.9609375 0.51171875
vt 0.9609375 0.46484375
vt 0.71484375 0.46484375
vt 0.71484375 0.51171875
vt 0.9609375 0.51171875
vt 0.9609375 0.46484375
vt 0.71484375 0.46484375
vt 0.71484375 0.51171875
vt 0.9609375 0.51171875
vt 0.71484375 0.51171875
vt 0.9609375 0.51171875
vt 0.9609375 0.46484375
vt 0.71484375 0.46484375
vt 0.7164773 0.394827247
vt 0.7164773 0.435618043
vt 0.7556345 0.435618043
vt 0.7556345 0.394827247
vt 0.9609375 0.46484375
vt 0.71484375 0.46484375
vt 0.71484375 0.51171875
vt 0.9609375 0.51171875
vt 0.9609375 0.46484375
vt 0.71484375 0.46484375
vt 0.71484375 0.51171875
vt 0.9609375 0.51171875
vt 0.7164773 0.394827247
vt 0.7164773 0.435618043
vt 0.7556345 0.435618043
vt 0.7556345 0.394827247
vt 0.9609375 0.46484375
vt 0.71484375 0.46484375
vt 0.71484375 0.51171875
vt 0.9609375 0.51171875
vt 0.9609375 0.46484375
vt 0.71484375 0.46484375
vt 0.71484375 0.51171875
vt 0.9609375 0.51171875
vt 0.474758983 0.1796875
vt 0.474758983 0.00570976734
vt 0.0078125 0.00570976734
vt 0.0078125 0.1796875
vt 0.0078125 0.00570976734
vt 0.474758983 0.00570976734
vt 0.474758983 0.1796875
vt 0.0078125 0.1796875
vt 0.01953125 0.546875
vt 0.15234375 0.53125
vt 0.01953125 0.41796875
vt 0.1015625 0.50390625
vt 0.10546875 0.36328125
vt 0.1015625 0.4453125
vt 0.15234375 0.53125
vt 0.01953125 0.546875
vt 0.1015625 0.50390625
vt 0.01953125 0.41796875
vt 0.1015625 0.4453125
vt 0.10546875 0.36328125
vt 0.875 0.4140625
vt 0.88671875 0.4140625
vt 0.88671875 0.9921875
vt 0.875 0.9921875
vt 0.875 0.4140625
vt 0.88671875 0.4140625
vt 0.88671875 0.9921875
vt 0.875 0.9921875
vt 0.875 0.4140625
vt 0.88671875 0.4140625
vt 0.88671875 0.9921875
vt 0.875 0.9921875
vt 0.2125 0.162070215
vt 0.4 0.162070215
vt 0.4 0.3495702
vt 0.2125 0.3495702
vt 0.2125 0.162070215
vt 0.4 0.162070215
vt 0.4 0.3495702
vt 0.2125 0.3495702
vt 0.88671875 0.9921875
vt 0.88671875 0.4140625
vt 0.875 0.4140625
vt 0.875 0.9921875
vt 0.88671875 0.9921875
vt 0.88671875 0.4140625
vt 0.875 0.4140625
vt 0.875 0.9921875
vt 0.88671875 0.9921875
vt 0.88671875 0.4140625
vt 0.875 0.4140625
vt 0.875 0.9921875
vt 0.9921875 0.0078125
vt 0.9921875 0.046875
vt 0.51171875 0.046875
vt 0.51171875 0.0078125
vt 0.9921875 0.33984375
vt 0.51171875 0.33984375
vt 0.2125 0.162070215
vt 0.4 0.162070215
vt 0.4 0.3495702
vt 0.2125 0.3495702
vt 0.4 0.3495702
vt 0.4 0.162070215
vt 0.2125 0.162070215
vt 0.2125 0.3495702
vt 0.4 0.3495702
vt 0.4 0.162070215
vt 0.2125 0.162070215
vt 0.2125 0.3495702
vt 0.4 0.3495702
vt 0.4 0.162070215
vt 0.2125 0.162070215
vt 0.2125 0.3495702
vt 0.80078125 0.99609375
vt 0.8046875 0.76171875
vt 0.8203125 0.76171875
vt 0.8125 0.99609375
vt 0.8046875 0.7890625
vt 0.80078125 0.76171875
vt 1 0.76171875
vt 1 0.7890625
vt 0.80078125 0.76171875
vt 1 0.99609375
vt 1 0.76171875
vt 0.8046875 0.7890625
vt 1 0.7890625
vt 0.80078125 0.99609375
vt 0.8046875 0.76171875
vt 0.8203125 0.76171875
vt 0.8125 0.99609375
vt 0.8046875 0.7890625
vt 0.80078125 0.76171875
vt 1 0.76171875
vt 1 0.7890625
vt 0.80078125 0.76171875
vt 1 0.99609375
vt 1 0.76171875
vt 0.8046875 0.7890625
vt 1 0.7890625
vt 0.214352429 0.321319461
vt 0.214352429 0.187008679
vt 0.00194098568 0.187008679
vt 0.00194098568 0.321319461
vt 0.00194098568 0.187008679
vt 0.214352429 0.187008679
vt 0.214352429 0.321319461
vt 0.00194098568 0.321319461
vt 0.214352429 0.187008619
vt 0.214352429 0.3213194
vt 0.00194098568 0.3213194
vt 0.00194098568 0.187008619
vt 0.00194098568 0.3213194
vt 0.214352429 0.3213194
vt 0.214352429 0.187008619
vt 0.00194098568 0.187008619
vn 0.22063157 2.31394642E-15 -0.975357234
vn 0.743610144 0 -0.668613434
vn 0.7436102 0 -0.668613434
vn 0.220631555 0 -0.975357234
vn 0.358077019 0.683606744 -0.6359738
vn 0.224121928 0.8458573 -0.484040052
vn 0.690128446 0.652387857 -0.31322968
vn 0.6697993 0.5357323 -0.5141593
vn 0.851497948 0.486090541 -0.1966399
vn 0.94315 0 -0.3323675
vn 0.94315 0 -0.3323675
vn 0.144445911 0.4767057 -0.8671142
vn 0.09083116 0.9936645 0.06618553
vn 0.0129818544 0.9999139 0.0019157076
vn 0.0121714333 0.99991107 0.00544756
vn 0.209298819 0.97402674 0.08640569
vn 0.2998648 0.9464694 0.119485453
vn 0.375165761 0.9248427 0.06258311
vn -7.648682E-08 0.6864812 -0.7271476
vn -1.08284709E-07 0.8319946 -0.5547837
vn 1.03264661E-07 -1.47661644E-15 -1
vn 1.03264654E-07 7.80307927E-16 -1
vn -1.04291455E-08 0.4856866 -0.874133
vn -2.10516092E-07 1 7.153289E-14
vn -2.14502847E-07 1 -3.861704E-14
vn 0.743609965 4.30706031E-08 0.6686137
vn 0.743609965 2.145275E-08 0.6686137
vn 0.220631361 9.983511E-07 0.9753573
vn 0.220631376 1.01882108E-06 0.975357234
vn 0.6901287 0.652387857 0.313229144
vn 0.260195524 0.871767759 0.415113568
vn 0.3962016 0.6746981 0.622741342
vn 0.669799447 0.5357323 0.514159143
vn 0.851498246 0.486090332 0.196638972
vn 0.943149865 3.962586E-08 0.332367778
vn 0.943149865 3.962586E-08 0.332367778
vn 0.174497023 0.433176875 0.884255946
vn 0.0121714305 0.99991107 -0.005447564
vn 0.0129818423 0.9999139 -0.001915743
vn 0.09083133 0.9936645 -0.06618547
vn 0.209298655 0.97402674 -0.0864059
vn 0.29986456 0.9464694 -0.119485788
vn 0.3751648 0.924843 -0.0625840053
vn 0.8110789 0.5849368 6.578819E-08
vn 0.811078966 0.5849367 -7.269127E-07
vn 0.280352384 0.959897161 6.85381167E-07
vn 0.2803524 0.959897161 1.6803333E-06
vn 0.7778151 0.62849313 4.37759951E-07
vn 0.7778152 0.628493 5.397955E-07
vn 0.779301643 0.626648962 1.38820883E-06
vn 0.947942853 0.318440467 1.40934173E-06
vn 0.808521867 -0.5884661 4.56675878E-07
vn 0.957279146 -0.2891654 1.02266984E-06
vn 0.5964875 -0.8026223 2.31397664E-07
vn 0.5964874 -0.802622437 0
vn 1.92460066E-05 0.012633753 0.9999202
vn -0.00183673855 0.00123952073 0.999997556
vn -0.0143442787 0.0167297851 0.9997572
vn -0.008127002 0.0007808585 0.9999667
vn -0.000767021265 -0.008123073 0.999966741
vn -0.001520467 -0.001526279 0.9999977
vn -8.154364E-08 2.106778E-09 1
vn -8.089737E-08 4.213556E-09 1
vn -0.9986463 0.0520144 3.87408534E-07
vn -0.9986464 0.0520141 0
vn -0.9986463 0.0520144 3.87408534E-07
vn -0.9986463 0.0520147 7.748171E-07
vn -2.43444845E-07 0.6999233 0.714218
vn -2.31616028E-07 0.9138707 0.406005383
vn -1.03265045E-07 1.907567E-06 1
vn -1.03265023E-07 1.90756668E-06 1
vn -1.81775121E-07 0.386222541 0.92240566
vn -2.10516021E-07 1 1.2232141E-13
vn -2.14502819E-07 1 -1.41223262E-16
vn 0.129060745 0.9916367 8.365129E-07
vn -0.0369984172 0.9993153 5.787755E-07
vn 0.0464792065 0.998919249 5.615481E-07
vn 0.1290611 0.991636634 1.68663473E-06
vn 0.005571001 -0.004930926 0.999972343
vn 0.00469915941 0.00208637281 0.999986768
vn 0.005374474 -0.000140471617 0.9999856
vn -9.045962E-08 -2.07892175E-08 1
vn -8.688022E-08 -7.41556327E-09 1
vn -0.02280477 -0.01087064 0.9996808
vn 0.00469952449 0.00208363752 -0.999986768
vn 0.00557128852 -0.004932054 -0.999972343
vn 0.00537472 -0.000142439778 -0.9999856
vn 8.512012E-08 -2.37337258E-06 -1
vn -2.164006E-08 -1.5921654E-06 -1
vn -0.008127103 0.000780491857 -0.9999667
vn -0.0228051748 -0.0108712334 -0.9996808
vn -0.0143443262 0.0167295877 -0.9997572
vn -0.7436099 -7.306956E-07 -0.6686137
vn -0.743609846 -1.43993839E-06 -0.668613732
vn -0.22063145 -2.10434649E-07 -0.975357234
vn -0.2206315 -3.82787021E-15 -0.975357234
vn -0.690128863 0.6523875 -0.313229382
vn -0.22412236 0.8458572 -0.48404
vn -0.358077437 0.683606565 -0.635973752
vn -0.669799566 0.5357321 -0.5141592
vn -0.851498067 0.486090422 -0.1966397
vn -0.943149745 -3.96259061E-08 -0.332368165
vn -0.943149745 -9.391865E-07 -0.332368165
vn -0.144445911 0.476705581 -0.867114246
vn -0.0121719539 0.99991107 0.0054474473
vn -0.0129823275 0.9999139 0.00191579852
vn -0.09083189 0.993664443 0.06618523
vn -0.20929943 0.9740266 0.08640537
vn -0.2998653 0.946469247 0.119485289
vn -0.375165939 0.9248426 0.0625831559
vn -0.220631555 1.4192201E-06 0.975357234
vn -0.7436101 0 0.668613553
vn -0.743610144 4.66090569E-07 0.668613434
vn -0.220631629 1.86055911E-06 0.975357234
vn -0.396202147 0.674697936 0.622741163
vn -0.26019603 0.8717676 0.415113628
vn -0.690129 0.6523875 0.313229144
vn -0.6697996 0.53573215 0.514159
vn -0.8514982 0.486090362 0.196639329
vn -0.9431499 0 0.3323675
vn -0.9431499 0 0.3323675
vn -0.174497485 0.433176875 0.8842559
vn -0.09083196 0.993664443 -0.0661852062
vn -0.0129823359 0.9999139 -0.001915784
vn -0.0121719623 0.99991107 -0.005447437
vn -0.209299192 0.9740267 -0.0864056
vn -0.299865 0.9464693 -0.119485639
vn -0.375165135 0.9248429 -0.0625839159
vn -0.280352741 0.959897041 1.149738E-06
vn -0.8110793 0.5849362 1.45382592E-06
vn -0.811079264 0.584936261 1.15615717E-06
vn -0.28035295 0.959897 1.68033307E-06
vn -0.7793019 0.626648664 5.08354162E-07
vn -0.777815342 0.6284929 5.39795337E-07
vn -0.7778154 0.6284928 8.77527839E-07
vn -0.9479431 0.318439722 -4.806076E-08
vn -0.5964871 -0.8026227 -2.31397408E-07
vn -0.9572789 -0.289166242 -4.54094362E-07
vn -0.80852145 -0.588466763 -4.5667565E-07
vn -0.5964872 -0.802622557 0
vn 0.0143440738 0.0167297926 0.9997572
vn 0.0018365616 0.00123950583 0.999997556
vn -1.94186578E-05 0.0126337307 0.9999202
vn 0.00812680647 0.0007808684 0.9999667
vn 0.00152030145 -0.00152627961 0.9999977
vn 0.000766849669 -0.008123084 0.999966741
vn -8.089734E-08 -4.213652E-09 1
vn -8.154362E-08 -2.106826E-09 1
vn 0.998646259 0.0520159 0
vn 0.998646259 0.0520159 0
vn 0.998646259 0.0520159 0
vn 0.998646259 0.0520159 0
vn -0.04647972 0.998919249 5.569802E-07
vn 0.03699799 0.9993153 5.83343251E-07
vn -0.129061341 0.991636634 8.29708256E-07
vn -0.1290617 0.9916366 1.65941651E-06
vn -0.00557118235 -0.004930953 0.999972343
vn -0.00537465326 -0.000140505144 0.9999856
vn -0.004699346 0.00208632555 0.999986768
vn -9.084438E-08 -9.918618E-09 1
vn 0.0228045415 -0.0108706038 0.9996808
vn 1 3.81418261E-07 9.90581341E-08
vn 1 4.177438E-07 1.65096878E-07
vn 1 3.814183E-07 9.905812E-08
vn 1 3.81418261E-07 9.905815E-08
vn -1 -3.81418261E-07 -2.97174438E-07
vn -1 -4.177438E-07 -2.31135672E-07
vn -1 -4.177438E-07 -2.31135672E-07
vn -1 -2.724416E-07 -4.95290749E-07
vn -8.02483555E-08 4.75436268E-09 1
vn 9.346106E-08 -9.632307E-07 -1
vn -0.328630656 0.9444585 1.561755E-06
vn -0.328630656 0.944458544 1.55877706E-06
vn -0.115213349 0.9933408 1.66375219E-06
vn 0.115212843 0.99334085 1.68804957E-06
vn 0.969026268 0.246957615 5.18831E-07
vn 0.969026268 0.246957615 5.18831E-07
vn 0.844345868 0.5357985 9.929977E-07
vn 0.605796456 0.795619667 1.40397867E-06
vn -0.972412944 0.233266145 2.91014629E-07
vn -0.972412944 0.233266145 2.91014629E-07
vn -0.972412944 0.233266145 2.91014629E-07
vn -0.972412944 0.233266145 2.91014629E-07
vn -8.873557E-08 1.35850087E-08 1
vn -1.10435487E-07 2.64916888E-08 1
vn -7.079741E-08 1.47018842E-08 1
vn 1.02158573E-07 7.50759455E-10 -1
vn 1.11066406E-07 2.83054238E-08 -1
vn 1.10435494E-07 -2.64916942E-08 -1
vn -8.38426644E-08 -2.855279E-14 1
vn -8.38426644E-08 -3.31212346E-14 1
vn -8.38426644E-08 -2.855279E-14 1
vn -8.384267E-08 -2.39843478E-14 1
vn -2.9349053E-07 1 -3.05221057E-08
vn -2.97230372E-07 1 0
vn -2.93506275E-07 1 -4.57831568E-08
vn -2.9162058E-07 1 -4.57831568E-08
vn -2.93459E-07 1 0
vn 1 1.54357735E-07 0
vn 1 1.54357735E-07 0
vn 1 1.54357735E-07 0
vn 1 1.5435775E-07 0
vn -1 -7.13904456E-07 -2.28379747E-07
vn -1 -6.94609753E-07 -4.567595E-07
vn -1 -7.13904456E-07 -2.28379747E-07
vn -1 -7.33199158E-07 0
vn -1.16456171E-07 8.60411653E-09 1
vn -7.556065E-08 5.61446143E-08 1
vn -6.689443E-08 6.453089E-09 1
vn -8.919256E-08 -1.01613509E-08 1
vn -6.815913E-08 -3.089936E-08 1
vn -6.689442E-08 -7.621013E-09 1
vn -7.244554E-08 -1.5242021E-08 1
vn -6.13433144E-08 1.29061846E-08 1
vn -8.789694E-08 -3.089937E-08 1
vn -8.789695E-08 5.61446036E-08 1
vn -1.212667E-07 5.61445965E-08 1
vn -1.48530276E-07 -3.08993826E-08 1
vn 1 4.90394939E-07 2.97174438E-07
vn 1 4.359066E-07 1.98116254E-07
vn -1 -2.72441639E-07 -4.95290749E-07
vn -1 -3.81418261E-07 -2.97174438E-07
vn -7.93798947E-08 0.67336154 0.739313364
vn 0.0363028124 0.336118072 0.9411199
vn -0.03248846 0.995625854 -0.08759967
vn 6.685256E-08 0.871917 -0.4896537
vn 0.0591877364 0.5363471 -0.8419196
vn -6.245158E-08 0.6865661 -0.727067351
vn 0.0120306946 -0.9106808 0.412935585
vn -0.0378292352 -0.9316155 0.361471444
vn 0.0840433 -0.634149969 0.768629
vn -6.51391048E-08 -0.273317426 0.9619239
vn 0.113610469 0.648232 0.7529196
vn 0.2901962 0.888643861 -0.355103165
vn 0.00900657 0.5819802 -0.8131531
vn 0.259327918 -0.8742882 0.41032815
vn 0.0966318 -0.413305968 0.9054504
vn 0.223378912 0.284163743 0.9323909
vn 0.285250783 0.953535736 0.09696151
vn 0.509678 0.430392683 -0.7449768
vn 0.261649638 -0.9198252 0.2923373
vn 0.280989528 -0.715572953 0.639531255
vn 0.707099 -0.451358527 -0.5443221
vn -0.357641071 -0.8055506 -0.472420543
vn 0.447208345 -0.872790933 0.195552349
vn 1 0 0
vn 1 -2.42983265E-06 1.70567682E-06
vn 1 -4.90242564E-06 4.373977E-06
vn 2.59006219E-06 0.5734643 0.8192306
vn -1.92616454E-07 0.7387225 -0.6740097
vn 2.802249E-07 0.311295778 -0.9503131
vn -7.63001651E-07 0.311296463 -0.950312853
vn -3.891404E-06 -0.9918591 -0.127340481
vn -3.501582E-06 -0.975805461 0.218640462
vn -3.19101059E-06 -0.9530269 0.302885771
vn -1.44874923E-06 -0.406362623 0.9137119
vn -2.91712558E-06 -0.6382996 -0.7697881
vn 0.0324887969 0.9956258 -0.08759999
vn -0.0363029875 0.336117983 0.941119969
vn -0.0591874048 0.5363463 -0.841920137
vn -0.0668903962 -0.6033658 0.79465425
vn 0.0452536158 -0.90536356 0.422219068
vn -0.290196329 0.8886439 -0.355102926
vn -0.113610461 0.648232162 0.752919436
vn -0.009006237 0.5819798 -0.8131533
vn -0.09959493 -0.402543247 0.9099669
vn -0.2708834 -0.871332049 0.409148633
vn -0.2852509 0.953535855 0.0969603062
vn -0.223378539 0.2841641 0.9323909
vn -0.5096781 0.430393368 -0.744976342
vn -0.280989319 -0.715572536 0.6395318
vn -0.261649162 -0.9198251 0.292338
vn -1 -6.04205468E-07 3.66792415E-06
vn -1 5.29908448E-06 7.37983044E-07
vn -0.447208554 -0.872791052 0.195551381
vn 0.357640266 -0.8055503 -0.4724216
vn -0.707098544 -0.451360077 -0.544321358
vn -1 -5.003017E-06 7.22189E-06
vn -1.84504711E-06 0.7387221 -0.674010158
vn -2.61485957E-06 0.573465347 0.819229841
vn -4.35946845E-07 0.311296046 -0.950313
vn -2.08644724E-06 0.311294973 -0.9503133
vn 3.84995474E-06 -0.991859 -0.127341062
vn 3.917137E-06 -0.9758057 0.218639433
vn 6.763878E-07 -0.406361967 0.9137122
vn 2.285318E-06 -0.9530265 0.302886963
vn 2.551348E-06 -0.6382992 -0.7697884
vn -7.062519E-08 -0.0163409784 0.9998665
vn -1.41250382E-07 -0.01633977 0.9998665
vn -5.69604E-08 0.371126622 0.928582251
vn -3.6069693E-08 0.762021959 0.6475512
vn -4.47227926E-08 0.9530017 0.302965045
vn -8.94455852E-08 0.9530017 0.302965
vn -0.004699353 0.002083548 -0.999986768
vn -0.00537454849 -0.000142491117 -0.9999856
vn -0.005571106 -0.004932105 -0.999972343
vn 3.7552752E-07 -2.60454158E-06 -1
vn 0.008127258 0.000780498842 -0.9999667
vn 0.022805322 -0.0108712139 -0.9996808
vn 0.0143444575 0.0167296231 -0.9997572
vn 3.68859077E-08 0.93530345 0.35384658
vn -3.25805871E-08 0.9353035 0.353846431
vn 5.5328865E-08 0.9353035 0.35384655
vn 7.010867E-08 0.93530345 0.353846669
vn 3.354385E-08 0.93530345 0.353846669
vn 6.70877E-08 0.93530345 0.3538467
vn 9.048615E-08 3.44627068E-07 1
vn -0.8944272 1.54121878E-07 0.44721362
vn -0.447213471 3.082438E-07 0.89442724
vn -2.57577426E-09 4.595028E-07 1
vn 0.447213531 5.008963E-07 0.89442724
vn 0.89442724 5.30178745E-08 0.447213471
vn 1 -2.85351348E-07 -1.98065251E-07
vn 1 -6.568595E-07 -5.06675747E-07
vn -1 0 0
vn -1 0 0
vn 0 1 0
vn 0 1 0
vn 0 1 0
vn 0 1 0
vn 0 0 1
vn 0 0 1
vn 0 0 1
vn 0 0 1
vn 1 0 0
vn 1 0 0
vn 1 0 0
vn 1 0 0
vn 0 0 -1
vn 0 0 -1
vn 0 0 -1
vn 0 0 -1
vn 0 1 0
vn 0 1 0
vn 0 1 0
vn 0 1 0
vn -1.16855773E-07 2.52912417E-14 1
vn -1.16855915E-07 5.05824834E-14 1
vn -1.16855773E-07 2.52912417E-14 1
vn -1.16855624E-07 0 1
vn 1 0 0
vn 1 0 0
vn 1 0 0
vn 1 0 0
vn 1.16855773E-07 -2.5291179E-14 -1
vn 1.16855922E-07 0 -1
vn 1.16855773E-07 -2.5291179E-14 -1
vn 1.16855624E-07 -5.0582358E-14 -1
vn 0 1 0
vn 0 1 0
vn 0 1 0
vn 0 1 0
vn 0 0 1
vn 0 0 1
vn 0 0 1
vn 0 0 1
vn 1 2.1643099E-07 1.354852E-06
vn 1 0 0
vn 1 2.1643099E-07 1.354852E-06
vn 1 4.32861981E-07 2.709704E-06
vn 0 0 -1
vn 0 0 -1
vn 0 0 -1
vn 0 0 -1
vn 1 -6.802088E-15 1.199316E-07
vn 1 -6.802088E-15 1.199316E-07
vn 1 -6.802088E-15 1.199316E-07
vn 1 -6.8020875E-15 1.199316E-07
vn 1 7.420461E-15 1.19931627E-07
vn 1 7.420461E-15 1.19931627E-07
vn 1 7.420461E-15 1.19931627E-07
vn 1 7.42046E-15 1.19931627E-07
vn 0 1 0
vn 0 1 0
vn 0 1 0
vn 0 1 0
vn -1 6.49293E-07 0
vn -1 6.49293E-07 0
vn -1 6.49293E-07 0
vn -1 6.49293E-07 0
vn 0 0 1
vn 0 0 1
vn 0 0 1
vn 0 0 1
vn 1 -6.49293E-07 0
vn 1 -6.49293E-07 0
vn 1 -6.49293E-07 0
vn 1 -6.49293E-07 0
vn 0 0 1
vn 0 0 1
vn 0 0 1
vn 0 0 1
vn -1.14543736E-15 4.32862E-07 -1
vn -2.29087472E-15 4.32861981E-07 -1
vn -1.14543736E-15 4.32862E-07 -1
vn 0 4.32862E-07 -1
vn 0 1 0
vn 0 1 0
vn 0 1 0
vn 0 1 0
vn -1 8.11616246E-07 -3.11615025E-07
vn -1 7.575085E-07 0
vn -1 8.11616246E-07 -3.11615025E-07
vn -1 8.65724E-07 -6.23230051E-07
vn 0 0 1
vn 0 0 1
vn 0 0 1
vn 0 0 1
vn 1 -7.8456236E-07 1.558079E-07
vn 1 -7.575085E-07 3.116158E-07
vn 1 -7.8456236E-07 1.558079E-07
vn 1 -8.11616246E-07 0
vn -1.14543778E-15 4.32862E-07 -1
vn -2.29087557E-15 4.32861981E-07 -1
vn -1.14543778E-15 4.32862E-07 -1
vn 0 4.32862E-07 -1
vn -2.6343605E-07 -2.17325683E-14 1
vn -2.6343605E-07 -2.173257E-14 1
vn -2.6343605E-07 -2.17325683E-14 1
vn -2.63436021E-07 -2.17325666E-14 1
vn 0 1 0
vn 0 1 0
vn 0 1 0
vn 0 1 0
vn -1 7.845624E-07 -1.558081E-07
vn -1 8.116164E-07 -3.116162E-07
vn -1 7.845624E-07 -1.558081E-07
vn -1 7.575085E-07 0
vn -2.70970418E-06 2.052624E-12 1
vn -2.70970418E-06 2.052624E-12 1
vn -2.70970418E-06 2.052624E-12 1
vn -2.70970418E-06 2.052624E-12 1
vn 1 -7.8456236E-07 1.558077E-07
vn 1 -7.575085E-07 3.116154E-07
vn 1 -7.8456236E-07 1.558077E-07
vn 1 -8.11616246E-07 0
vn -1.14543736E-15 4.32862E-07 -1
vn -2.29087472E-15 4.32862E-07 -1
vn -1.14543736E-15 4.32862E-07 -1
vn 0 4.32862E-07 -1
vn 0 1 0
vn 0 1 0
vn 0 1 0
vn 0 1 0
vn 0 0 1
vn 0 0 1
vn 0 0 1
vn 0 0 1
vn 1 -8.11616246E-07 0
vn 1 -8.11616246E-07 0
vn 1 -8.11616246E-07 0
vn 1 -8.11616246E-07 0
vn 0 1 0
vn 0 1 0
vn 0 1 0
vn 0 1 0
vn -1 8.65723962E-07 0
vn -1 8.65723962E-07 0
vn -1 8.65723962E-07 0
vn -1 8.65723962E-07 0
vn 0 0 1
vn 0 0 1
vn 0 0 1
vn 0 0 1
vn -1 -1.64993125E-07 -8.28124E-08
vn -1 -3.2998625E-07 0
vn -1 -1.64993125E-07 -8.28124E-08
vn -1 0 -1.656248E-07
vn 1 8.24965554E-08 8.28124058E-08
vn 1 8.249656E-08 8.28124E-08
vn 1 8.24965554E-08 8.28124058E-08
vn 1 8.24965554E-08 8.281241E-08
vn 0 1 0
vn 0 1 0
vn 0 1 0
vn 0 1 0
vn 6.23230449E-07 6.744323E-14 -1
vn 6.232308E-07 1.3488646E-13 -1
vn 6.23230449E-07 6.744323E-14 -1
vn 6.23230051E-07 0 -1
vn -1 0 0
vn -1 0 0
vn -1 0 0
vn -1 0 0
vn 0 0 1
vn 0 0 1
vn 0 0 1
vn 0 0 1
vn 0 1 0
vn 0 1 0
vn 0 1 0
vn 0 1 0
vn 7.79037563E-08 0 -1
vn 7.79037563E-08 0 -1
vn 7.79037563E-08 0 -1
vn 7.79037563E-08 0 -1
vn -1 -4.32861981E-07 2.709704E-06
vn -1 0 0
vn -1 -4.32861981E-07 2.709704E-06
vn -1 -8.65723962E-07 5.419408E-06
vn -7.79037563E-08 -6.744314E-14 1
vn -7.79037563E-08 -6.744314E-14 1
vn -7.79037563E-08 -6.744314E-14 1
vn -7.79037563E-08 -6.744314E-14 1
vn 0 1 0
vn 0 1 0
vn 0 1 0
vn 0 1 0
vn 0 0 -1
vn 0 0 -1
vn 0 0 -1
vn 0 0 -1
vn -1 -1.08215488E-06 -1.354852E-06
vn -1 -1.29858586E-06 0
vn -1 -1.08215488E-06 -1.354852E-06
vn -1 -8.65723962E-07 -2.709704E-06
vn 0 0 1
vn 0 0 1
vn 0 0 1
vn 0 0 1
vn -1 -6.59972557E-07 2.39863226E-07
vn -1 -1.31994511E-06 4.79726452E-07
vn -1 -6.59972557E-07 2.39863226E-07
vn -1 0 0
vn -1 -1.31994489E-06 -5.936368E-14
vn -1 -1.319945E-06 -3.95757883E-14
vn -1 -1.31994489E-06 -5.936368E-14
vn -1 -1.31994489E-06 -7.915157E-14
vn 8.384271E-08 3.36923076E-14 -1
vn 8.384269E-08 4.111603E-14 -1
vn 8.384271E-08 3.36923076E-14 -1
vn 8.38427141E-08 2.62685839E-14 -1
vn -2.934905E-07 1 3.0522358E-08
vn -2.93459E-07 1 2.680794E-13
vn -2.9162058E-07 1 4.5783537E-08
vn -2.93506275E-07 1 4.5783402E-08
vn -2.97230372E-07 1 0
vn 1 1.54357764E-07 0
vn 1 1.54357764E-07 0
vn 1 1.54357764E-07 0
vn 1 1.54357778E-07 0
vn -1 -6.94609867E-07 0
vn -1 -6.94609867E-07 0
vn -1 -6.94609867E-07 0
vn -1 -6.94609867E-07 0
vn 6.68944153E-08 -6.453097E-09 -1
vn 7.556066E-08 -5.614459E-08 -1
vn 1.16456157E-07 -8.60413E-09 -1
vn 6.13433E-08 -1.29062006E-08 -1
vn 6.68944153E-08 7.621028E-09 -1
vn 6.81591246E-08 3.089936E-08 -1
vn 8.91925538E-08 1.01613713E-08 -1
vn 7.244554E-08 1.524205E-08 -1
vn 8.789694E-08 3.089937E-08 -1
vn 1.48530262E-07 3.08993826E-08 -1
vn 8.789696E-08 -5.61445823E-08 -1
vn 1.212667E-07 -5.614457E-08 -1
vn 2.07134235E-07 0.9353035 -0.35384655
vn 6.347403E-08 0.935303569 -0.3538464
vn 1.55010028E-07 0.9353035 -0.35384658
vn 1.5077255E-07 0.93530345 -0.353846669
vn 5.07615923E-08 0.93530345 -0.353846669
vn 5.07615923E-08 0.93530345 -0.353846669
vn -0.447213173 4.62365364E-07 -0.8944274
vn -0.894427 4.62365335E-07 -0.447213948
vn 4.0976343E-07 -1.67391939E-13 -1
vn 2.76609967E-07 -4.208686E-14 -1
vn 0.4472139 -5.77957564E-07 -0.894427061
vn 0.894427538 -8.717141E-07 -0.4472129
vn 1 -9.746055E-07 9.65502E-07
vn 1 -6.568594E-07 7.015513E-07
vn -1 5.169404E-07 -3.89750483E-07
vn -1 0 -6.2360084E-07
vn 0 1 0
vn 0 1 0
vn 0 1 0
vn 0 1 0
vn -1 6.49292929E-07 1.26455895E-14
vn -1 6.49293E-07 0
vn -1 6.49292929E-07 1.26455895E-14
vn -1 6.49292929E-07 2.5291179E-14
vn 0 0 -1
vn 0 0 -1
vn 0 0 -1
vn 0 0 -1
vn 1 -6.49292929E-07 -2.5291179E-14
vn 1 -6.49293E-07 0
vn 1 -6.49292929E-07 -2.5291179E-14
vn 1 -6.49292929E-07 -5.0582358E-14
vn 0 0 -1
vn 0 0 -1
vn 0 0 -1
vn 0 0 -1
vn 1.60361226E-14 8.65723962E-07 1
vn 3.20722453E-14 8.65723962E-07 1
vn 1.60361226E-14 8.65723962E-07 1
vn 0 8.65723962E-07 1
vn 0 1 0
vn 0 1 0
vn 0 1 0
vn 0 1 0
vn -1 8.11616246E-07 -3.11614968E-07
vn -1 8.65723962E-07 0
vn -1 8.11616246E-07 -3.11614968E-07
vn -1 7.575085E-07 -6.23229937E-07
vn 0 0 -1
vn 0 0 -1
vn 0 0 -1
vn 0 0 -1
vn 1 -7.575085E-07 -2.95063758E-14
vn 1 -7.575085E-07 0
vn 1 -7.575085E-07 -2.95063758E-14
vn 1 -7.575085E-07 -5.901275E-14
vn 0 0 1
vn 0 0 1
vn 0 0 1
vn 0 0 1
vn 2.63436021E-07 2.17325683E-14 -1
vn 2.63436021E-07 2.17325683E-14 -1
vn 2.63436021E-07 2.17325683E-14 -1
vn 2.63436021E-07 2.17325683E-14 -1
vn 0 1 0
vn 0 1 0
vn 0 1 0
vn 0 1 0
vn -1 7.575085E-07 1.475319E-14
vn -1 7.575085E-07 0
vn -1 7.575085E-07 1.475319E-14
vn -1 7.575085E-07 2.950638E-14
vn 2.70970418E-06 -2.052624E-12 -1
vn 2.70970418E-06 -2.052624E-12 -1
vn 2.70970418E-06 -2.052624E-12 -1
vn 2.70970418E-06 -2.052624E-12 -1
vn 1 -7.575085E-07 -2.95063758E-14
vn 1 -7.575085E-07 0
vn 1 -7.575085E-07 -2.95063758E-14
vn 1 -7.575085E-07 -5.901275E-14
vn -2.709704E-06 2.0526237E-12 1
vn -2.70970418E-06 2.052624E-12 1
vn -2.709704E-06 2.0526237E-12 1
vn -2.709704E-06 2.0526237E-12 1
vn 0 1 0
vn 0 1 0
vn 0 1 0
vn 0 1 0
vn 0 0 -1
vn 0 0 -1
vn 0 0 -1
vn 0 0 -1
vn 1 -7.575085E-07 -1.475319E-14
vn 1 -7.575085E-07 0
vn 1 -7.575085E-07 -1.475319E-14
vn 1 -7.575085E-07 -2.950638E-14
vn 0 1 0
vn 0 1 0
vn 0 1 0
vn 0 1 0
vn -1 8.65723962E-07 1.68607854E-14
vn -1 8.65723962E-07 0
vn -1 8.65723962E-07 1.68607854E-14
vn -1 8.65723962E-07 3.372157E-14
vn 0 -8.65723962E-07 -1
vn 0 -8.65723962E-07 -1
vn 0 -8.65723962E-07 -1
vn 0 -8.65723962E-07 -1
vn -1 -1.64992144E-07 -7.45311468E-07
vn -1 -3.2998517E-07 -8.281239E-07
vn -1 -1.64992144E-07 -7.45311468E-07
vn -1 8.74462232E-13 -6.62499E-07
vn 1 1.2374484E-07 7.660147E-07
vn 1 1.64993125E-07 7.86717749E-07
vn 1 1.2374484E-07 7.660147E-07
vn 1 8.24965554E-08 7.45311638E-07
vn -0.00183661876 0.00123867 -0.999997556
vn 1.95094071E-05 0.0126330527 -0.9999202
vn -0.00152045232 -0.00152643363 -0.9999977
vn -0.0007669106 -0.008123925 -0.9999667
vn 8.089728E-08 -4.213503E-09 -1
vn 8.154354E-08 -2.10675144E-09 -1
vn -1.93360574E-05 0.0126330834 -0.9999202
vn 0.00183679629 0.00123869791 -0.999997556
vn 0.0007670871 -0.008123904 -0.9999667
vn 0.00152061845 -0.00152642955 -0.9999977
vn 8.15436749E-08 2.10682738E-09 -1
vn 8.089739E-08 4.21365476E-09 -1
vn -0.0972960442 0.821165264 0.5623354
vn -0.146224692 0.827596068 0.541943848
vn -0.0972960442 0.821165264 0.5623354
vn -0.0480899848 0.8123932 0.5811236
vn -0.1001318 0.816234767 0.568976641
vn -0.15281257 0.809866965 0.5663601
vn -0.1001318 0.816234767 0.568976641
vn -0.04716841 0.820298553 0.5699872
vn 0.008594249 0.808972359 0.5877839
vn 0.06749608 0.822494745 0.5647536
vn 0.008594249 0.808972359 0.5877839
vn -0.0503435321 0.7920663 0.608355641
vn 0.124504983 0.17605564 -0.976474762
vn 0.124504849 0.1760555 -0.976474762
vn 0.124504983 0.17605564 -0.976474762
vn 0.12450511 0.176055759 -0.9764747
vn -0.0357617922 0.176055729 -0.9837304
vn -0.0357617959 0.176055714 -0.9837304
vn -0.0357617922 0.176055729 -0.9837304
vn -0.03576179 0.176055729 -0.9837304
vn -0.00224113418 0.8087404 -0.5881615
vn -0.06510673 0.828725636 -0.5558551
vn -0.00224113418 0.8087404 -0.5881615
vn 0.06063655 0.7843917 -0.6172948
vn 0.0565630868 0.8072655 -0.5874717
vn 0.0504639857 0.8079313 -0.5871119
vn 0.0565630868 0.8072655 -0.5874717
vn 0.0626600459 0.8065692 -0.5878093
vn 0.197972566 0.853560448 -0.481914371
vn 0.07478422 0.8454936 -0.5287228
vn 0.197972566 0.853560448 -0.481914371
vn 0.317709953 0.8467484 -0.42670542
vn 5.817441E-10 -0.0163373239 -0.999866545
vn -1.86681639E-08 0.762022853 -0.647550166
vn 4.69185857E-10 0.371129155 -0.928581238
vn 1.16348819E-09 -0.0163373332 -0.999866545
vn -4.629336E-08 0.9530017 -0.302965
vn -2.314668E-08 0.9530017 -0.302965015
vn -0.119616896 0.17605567 -0.9770856
vn -0.119616866 0.1760557 -0.9770856
vn -0.119616896 0.17605567 -0.9770856
vn -0.119616926 0.176055655 -0.9770856
vn -0.124505 -0.176055625 0.976474762
vn -0.124504909 -0.176055536 0.976474762
vn -0.124505 -0.176055625 0.976474762
vn -0.124505088 -0.176055714 0.9764747
vn 0.03576179 -0.1760557 0.9837304
vn 0.0357617959 -0.1760557 0.9837304
vn 0.03576179 -0.1760557 0.9837304
vn 0.0357617848 -0.176055714 0.9837304
vn 0.119616918 -0.17605564 0.9770856
vn 0.119616866 -0.1760557 0.9770856
vn 0.119616918 -0.17605564 0.9770856
vn 0.11961697 -0.1760556 0.9770856
vn 2.09717271E-07 0.4472136 -0.8944272
vn 2.34471045E-07 5.25165035E-13 -1
vn 2.34471045E-07 5.25165035E-13 -1
vn 2.34471045E-07 5.25165035E-13 -1
vn -1 0 -1.27022517E-07
vn -1 0 -1.27022517E-07
vn -1 0 -1.27022517E-07
vn -1 0 -1.27022517E-07
vn 0.4472136 0.8944272 -2.485271E-08
vn 6.51505259E-15 1 -2.77861751E-08
vn 0.8944272 0.4472136 -1.24263551E-08
vn 1 0 0
vn 1 0 0
vn -2.01344847E-07 0.4472136 0.8944272
vn -2.25110384E-07 0 1
vn -2.25110384E-07 0 1
vn -2.25110384E-07 0 1
vn 1 0 2.54045034E-07
vn 1 0 2.54045034E-07
vn 1 0 2.54045034E-07
vn 1 0 2.54045034E-07
vn -0.4472136 0.8944272 2.48527137E-08
vn -4.69121744E-15 1 2.77861787E-08
vn -0.8944272 0.4472136 1.24263568E-08
vn -1 0 0
vn -1 0 0
vn 1 4.854644E-07 2.206399E-07
vn 1 6.06830554E-07 4.4127998E-07
vn 1 4.854644E-07 2.206399E-07
vn 1 3.6409827E-07 -1.60669275E-13
vn -1 -4.854644E-07 -2.206399E-07
vn -1 -6.06830554E-07 -4.4127998E-07
vn -1 -4.854644E-07 -2.206399E-07
vn -1 -3.6409827E-07 1.60669275E-13
vn 1 3.70744885E-07 2.88858445E-07
vn 1 5.296356E-07 5.77717E-07
vn 1 3.70744885E-07 2.88858445E-07
vn 1 2.11854186E-07 -1.22391761E-13
vn -1 -2.648178E-07 -4.814308E-07
vn -1 -5.296356E-07 -9.628616E-07
vn -1 -2.648178E-07 -4.814308E-07
vn -1 0 0
usemtl by-bd049_part_0_material_0
f 1/1/1 2/2/2 3/3/3
f 3/3/3 4/4/4 1/1/1
f 5/5/5 6/6/6 7/7/7
f 7/7/7 8/8/8 5/5/5
f 9/9/9 8/8/8 7/7/7
f 10/10/10 11/11/11 3/3/3
f 3/3/3 2/2/2 10/10/10
f 5/5/5 8/8/8 12/12/12
f 13/13/13 14/14/14 15/15/15
f 15/15/15 16/16/16 13/13/13
f 17/17/17 13/13/13 16/16/16
f 16/16/16 18/18/18 17/17/17
f 6/6/6 5/5/5 19/19/19
f 19/19/19 20/20/20 6/6/6
f 1/1/1 4/4/4 21/21/21
f 21/21/21 22/22/22 1/1/1
f 19/19/19 5/5/5 12/12/12
f 12/12/12 23/23/23 19/19/19
f 15/15/15 14/14/14 24/24/24
f 24/24/24 25/25/25 15/15/15
f 26/26/26 27/27/27 28/28/28
f 28/28/28 29/29/29 26/26/26
f 30/30/30 31/31/31 32/32/32
f 32/32/32 33/33/33 30/30/30
f 34/34/34 30/30/30 33/33/33
f 26/26/26 35/35/35 36/36/36
f 36/36/36 27/27/27 26/26/26
f 32/32/32 37/37/37 33/33/33
f 38/38/38 39/39/39 40/40/40
f 40/40/40 41/41/41 38/38/38
f 41/41/41 40/40/40 42/42/42
f 42/42/42 43/43/43 41/41/41
f 44/44/44 45/45/45 46/46/46
f 46/46/46 47/47/47 44/44/44
f 48/48/48 49/49/49 50/50/50
f 50/50/50 51/51/51 48/48/48
f 52/52/52 53/53/53 54/54/54
f 54/54/54 55/55/55 52/52/52
f 53/53/53 52/52/52 51/51/51
f 51/51/51 50/50/50 53/53/53
f 56/56/56 57/57/57 58/58/58
f 58/58/58 59/59/59 56/56/56
f 60/60/60 61/61/61 57/57/57
f 57/57/57 56/56/56 60/60/60
f 62/62/62 63/63/63 61/61/61
f 61/61/61 60/60/60 62/62/62
f 64/64/64 65/65/65 66/66/66
f 66/66/66 67/67/67 64/64/64
f 68/68/68 32/32/32 31/31/31
f 31/31/31 69/69/69 68/68/68
f 70/70/70 29/29/29 28/28/28
f 28/28/28 71/71/71 70/70/70
f 37/37/37 32/32/32 68/68/68
f 68/68/68 72/72/72 37/37/37
f 73/73/73 39/39/39 38/38/38
f 38/38/38 74/74/74 73/73/73
f 75/75/75 76/76/76 77/77/77
f 77/77/77 78/78/78 75/75/75
f 79/79/79 80/80/80 81/81/81
f 82/82/82 83/83/83 81/81/81
f 81/81/81 80/80/80 82/82/82
f 46/46/46 77/77/77 76/76/76
f 76/76/76 47/47/47 46/46/46
f 79/79/79 81/81/81 59/59/59
f 59/59/59 84/84/84 79/79/79
f 84/84/84 59/59/59 58/58/58
f 44/44/44 49/49/49 48/48/48
f 48/48/48 45/45/45 44/44/44
f 85/85/85 86/86/86 87/87/87
f 87/87/87 88/88/88 89/89/89
f 89/89/89 85/85/85 87/87/87
f 90/90/90 87/87/87 86/86/86
f 86/86/86 91/91/91 90/90/90
f 90/90/90 91/91/91 92/92/92
f 93/93/93 94/94/94 95/95/95
f 95/95/95 96/96/96 93/93/93
f 97/97/97 98/98/98 99/99/99
f 99/99/99 100/100/100 97/97/97
f 101/101/101 97/97/97 100/100/100
f 93/93/93 102/102/102 103/103/103
f 103/103/103 94/94/94 93/93/93
f 99/99/99 104/104/104 100/100/100
f 105/105/105 106/106/106 107/107/107
f 107/107/107 108/108/108 105/105/105
f 108/108/108 107/107/107 109/109/109
f 109/109/109 110/110/110 108/108/108
f 19/19/19 99/99/99 98/98/98
f 98/98/98 20/20/20 19/19/19
f 21/21/21 96/96/96 95/95/95
f 95/95/95 22/22/22 21/21/21
f 104/104/104 99/99/99 19/19/19
f 19/19/19 23/23/23 104/104/104
f 24/24/24 106/106/106 105/105/105
f 105/105/105 25/25/25 24/24/24
f 111/111/111 112/112/112 113/113/113
f 113/113/113 114/114/114 111/111/111
f 115/115/115 116/116/116 117/117/117
f 117/117/117 118/118/118 115/115/115
f 119/119/119 118/118/118 117/117/117
f 120/120/120 121/121/121 113/113/113
f 113/113/113 112/112/112 120/120/120
f 115/115/115 118/118/118 122/122/122
f 123/123/123 124/124/124 125/125/125
f 125/125/125 126/126/126 123/123/123
f 127/127/127 123/123/123 126/126/126
f 126/126/126 128/128/128 127/127/127
f 129/129/129 130/130/130 131/131/131
f 131/131/131 132/132/132 129/129/129
f 133/133/133 134/134/134 135/135/135
f 135/135/135 136/136/136 133/133/133
f 137/137/137 138/138/138 139/139/139
f 139/139/139 140/140/140 137/137/137
f 136/136/136 139/139/139 138/138/138
f 138/138/138 133/133/133 136/136/136
f 141/141/141 142/142/142 143/143/143
f 143/143/143 144/144/144 141/141/141
f 142/142/142 145/145/145 146/146/146
f 146/146/146 143/143/143 142/142/142
f 145/145/145 147/147/147 148/148/148
f 148/148/148 146/146/146 145/145/145
f 149/149/149 150/150/150 151/151/151
f 151/151/151 152/152/152 149/149/149
f 116/116/116 115/115/115 68/68/68
f 68/68/68 69/69/69 116/116/116
f 111/111/111 114/114/114 70/70/70
f 70/70/70 71/71/71 111/111/111
f 68/68/68 115/115/115 122/122/122
f 122/122/122 72/72/72 68/68/68
f 125/125/125 124/124/124 73/73/73
f 73/73/73 74/74/74 125/125/125
f 153/153/153 154/154/154 155/155/155
f 155/155/155 156/156/156 153/153/153
f 157/157/157 158/158/158 159/159/159
f 158/158/158 83/83/83 160/160/160
f 160/160/160 159/159/159 158/158/158
f 154/154/154 153/153/153 129/129/129
f 129/129/129 132/132/132 154/154/154
f 144/144/144 158/158/158 157/157/157
f 157/157/157 161/161/161 144/144/144
f 161/161/161 141/141/141 144/144/144
f 135/135/135 134/134/134 131/131/131
f 131/131/131 130/130/130 135/135/135
f 170/170/170 160/160/160 83/83/83
f 89/89/89 88/88/88 171/171/171
f 172/172/172 173/173/173 174/174/174
f 174/174/174 175/175/175 172/172/172
f 176/176/176 177/177/177 178/178/178
f 178/178/178 179/179/179 176/176/176
f 180/180/180 181/181/181 182/182/182
f 182/182/182 183/183/183 180/180/180
f 184/184/184 185/185/185 160/160/160
f 184/184/184 160/160/160 170/170/170
f 184/184/184 170/170/170 186/186/186
f 187/187/187 188/188/188 89/89/89
f 187/187/187 89/89/89 171/171/171
f 187/187/187 171/171/171 189/189/189
f 175/175/175 174/174/174 179/179/179
f 179/179/179 178/178/178 175/175/175
f 288/288/288 289/289/289 290/290/290
f 290/290/290 291/291/291 288/288/288
f 291/291/291 290/290/290 292/292/292
f 292/292/292 293/293/293 291/291/291
f 294/294/294 295/295/295 296/296/296
f 297/297/297 88/88/88 295/295/295
f 295/295/295 294/294/294 297/297/297
f 296/296/296 295/295/295 298/298/298
f 298/298/298 299/299/299 296/296/296
f 298/298/298 300/300/300 299/299/299
f 365/365/365 366/366/366 367/367/367
f 367/367/367 368/368/368 365/365/365
f 369/369/369 370/370/370 371/371/371
f 371/371/371 372/372/372 369/369/369
f 389/389/389 390/390/390 391/391/391
f 391/391/391 392/392/392 389/389/389
f 417/417/417 418/418/418 419/419/419
f 419/419/419 420/420/420 417/417/417
f 465/465/465 466/466/466 467/467/467
f 467/467/467 468/468/468 465/465/465
f 469/469/469 470/470/470 471/471/471
f 471/471/471 472/472/472 469/469/469
f 521/521/521 522/522/522 523/523/523
f 523/523/523 524/524/524 521/521/521
f 525/525/525 526/526/526 527/527/527
f 527/527/527 528/528/528 525/525/525
f 590/590/590 591/591/591 592/592/592
f 592/592/592 593/593/593 590/590/590
f 618/618/618 619/619/619 620/620/620
f 620/620/620 621/621/621 618/618/618
f 666/666/666 667/667/667 668/668/668
f 668/668/668 669/669/669 666/666/666
f 670/670/670 671/671/671 672/672/672
f 672/672/672 673/673/673 670/670/670
f 92/92/92 674/674/674 675/675/675
f 675/675/675 90/90/90 92/92/92
f 674/674/674 676/676/676 677/677/677
f 677/677/677 675/675/675 674/674/674
f 676/676/676 678/678/678 679/679/679
f 679/679/679 677/677/677 676/676/676
f 680/680/680 681/681/681 300/300/300
f 300/300/300 298/298/298 680/680/680
f 682/682/682 683/683/683 681/681/681
f 681/681/681 680/680/680 682/682/682
f 684/684/684 685/685/685 683/683/683
f 683/683/683 682/682/682 684/684/684
f 686/686/686 687/687/687 688/688/688
f 688/688/688 689/689/689 686/686/686
f 690/690/690 691/691/691 692/692/692
f 692/692/692 693/693/693 690/690/690
f 694/694/694 695/695/695 696/696/696
f 696/696/696 697/697/697 694/694/694
f 698/698/698 699/699/699 700/700/700
f 700/700/700 701/701/701 698/698/698
f 702/702/702 703/703/703 704/704/704
f 704/704/704 705/705/705 702/702/702
f 706/706/706 707/707/707 708/708/708
f 708/708/708 709/709/709 706/706/706
f 710/710/710 711/711/711 712/712/712
f 712/712/712 713/713/713 710/710/710
f 714/714/714 715/715/715 716/716/716
f 716/716/716 717/717/717 714/714/714
f 718/718/718 719/719/719 720/720/720
f 720/720/720 721/721/721 718/718/718
f 719/719/719 722/722/722 723/723/723
f 723/723/723 720/720/720 719/719/719
f 724/724/724 725/725/725 726/726/726
f 726/726/726 727/727/727 724/724/724
f 728/728/728 729/729/729 730/730/730
f 730/730/730 731/731/731 728/728/728
f 732/732/732 733/733/733 734/734/734
f 734/734/734 735/735/735 732/732/732
f 736/736/736 737/737/737 738/738/738
f 738/738/738 739/739/739 736/736/736
f 766/766/766 767/767/767 768/768/768
f 768/768/768 769/769/769 766/766/766
f 770/770/770 771/771/771 772/772/772
f 772/772/772 773/773/773 770/770/770
f 774/774/774 775/775/775 776/776/776
f 776/776/776 777/777/777 774/774/774
f 778/778/778 779/779/779 780/780/780
f 780/780/780 781/781/781 778/778/778
usemtl by-bd049_part_0_material_1
f 162/162/162 163/163/163 164/164/164
f 164/164/164 165/165/165 162/162/162
f 166/166/166 167/167/167 168/168/168
f 168/168/168 169/169/169 166/166/166
f 190/190/190 191/191/191 192/192/192
f 192/192/192 193/193/193 190/190/190
f 194/194/194 195/195/195 196/196/196
f 194/194/194 196/196/196 197/197/197
f 194/194/194 197/197/197 198/198/198
f 199/199/199 200/200/200 201/201/201
f 201/201/201 202/202/202 199/199/199
f 203/203/203 204/204/204 205/205/205
f 205/205/205 206/206/206 203/203/203
f 207/207/207 208/208/208 209/209/209
f 210/210/210 211/211/211 212/212/212
f 213/213/213 210/210/210 212/212/212
f 209/209/209 213/213/213 212/212/212
f 209/209/209 212/212/212 214/214/214
f 207/207/207 209/209/209 214/214/214
f 211/211/211 210/210/210 215/215/215
f 208/208/208 207/207/207 216/216/216
f 217/217/217 208/208/208 216/216/216
f 217/217/217 216/216/216 218/218/218
f 215/215/215 217/217/217 218/218/218
f 211/211/211 215/215/215 218/218/218
f 163/163/163 219/219/219 220/220/220
f 220/220/220 164/164/164 163/163/163
f 167/167/167 221/221/221 222/222/222
f 222/222/222 168/168/168 167/167/167
f 223/223/223 224/224/224 225/225/225
f 225/225/225 226/226/226 223/223/223
f 226/226/226 225/225/225 227/227/227
f 227/227/227 228/228/228 226/226/226
f 229/229/229 230/230/230 231/231/231
f 231/231/231 232/232/232 229/229/229
f 232/232/232 231/231/231 224/224/224
f 224/224/224 223/223/223 232/232/232
f 225/225/225 224/224/224 233/233/233
f 233/233/233 234/234/234 225/225/225
f 225/225/225 234/234/234 235/235/235
f 235/235/235 227/227/227 225/225/225
f 230/230/230 236/236/236 237/237/237
f 237/237/237 231/231/231 230/230/230
f 224/224/224 231/231/231 237/237/237
f 237/237/237 233/233/233 224/224/224
f 233/233/233 238/238/238 239/239/239
f 239/239/239 234/234/234 233/233/233
f 234/234/234 239/239/239 240/240/240
f 240/240/240 235/235/235 234/234/234
f 236/236/236 241/241/241 242/242/242
f 242/242/242 237/237/237 236/236/236
f 237/237/237 242/242/242 238/238/238
f 238/238/238 233/233/233 237/237/237
f 243/243/243 244/244/244 245/245/245
f 245/245/245 246/246/246 247/247/247
f 243/243/243 245/245/245 247/247/247
f 243/243/243 247/247/247 248/248/248
f 249/249/249 250/250/250 239/239/239
f 239/239/239 238/238/238 249/249/249
f 250/250/250 251/251/251 252/252/252
f 252/252/252 239/239/239 250/250/250
f 245/245/245 244/244/244 253/253/253
f 253/253/253 254/254/254 245/245/245
f 255/255/255 256/256/256 242/242/242
f 242/242/242 241/241/241 255/255/255
f 256/256/256 249/249/249 238/238/238
f 238/238/238 242/242/242 256/256/256
f 244/244/244 243/243/243 257/257/257
f 257/257/257 253/253/253 244/244/244
f 258/258/258 259/259/259 223/223/223
f 223/223/223 226/226/226 258/258/258
f 260/260/260 258/258/258 226/226/226
f 226/226/226 228/228/228 260/260/260
f 261/261/261 262/262/262 229/229/229
f 229/229/229 232/232/232 261/261/261
f 259/259/259 261/261/261 232/232/232
f 232/232/232 223/223/223 259/259/259
f 258/258/258 263/263/263 264/264/264
f 264/264/264 259/259/259 258/258/258
f 265/265/265 263/263/263 258/258/258
f 258/258/258 260/260/260 265/265/265
f 266/266/266 267/267/267 262/262/262
f 262/262/262 261/261/261 266/266/266
f 259/259/259 264/264/264 266/266/266
f 266/266/266 261/261/261 259/259/259
f 268/268/268 269/269/269 264/264/264
f 264/264/264 263/263/263 268/268/268
f 270/270/270 268/268/268 263/263/263
f 263/263/263 265/265/265 270/270/270
f 271/271/271 272/272/272 267/267/267
f 267/267/267 266/266/266 271/271/271
f 269/269/269 271/271/271 266/266/266
f 266/266/266 264/264/264 269/269/269
f 273/273/273 274/274/274 275/275/275
f 275/275/275 276/276/276 277/277/277
f 273/273/273 275/275/275 277/277/277
f 273/273/273 277/277/277 278/278/278
f 268/268/268 279/279/279 280/280/280
f 280/280/280 269/269/269 268/268/268
f 281/281/281 282/282/282 279/279/279
f 279/279/279 268/268/268 281/281/281
f 283/283/283 276/276/276 275/275/275
f 275/275/275 284/284/284 283/283/283
f 271/271/271 285/285/285 286/286/286
f 286/286/286 272/272/272 271/271/271
f 269/269/269 280/280/280 285/285/285
f 285/285/285 271/271/271 269/269/269
f 287/287/287 277/277/277 276/276/276
f 276/276/276 283/283/283 287/287/287
f 301/301/301 302/302/302 303/303/303
f 303/303/303 304/304/304 301/301/301
f 305/305/305 301/301/301 304/304/304
f 304/304/304 306/306/306 305/305/305
f 307/307/307 308/308/308 309/309/309
f 309/309/309 310/310/310 307/307/307
f 311/311/311 307/307/307 310/310/310
f 310/310/310 312/312/312 311/311/311
f 313/313/313 311/311/311 312/312/312
f 312/312/312 314/314/314 313/313/313
f 308/308/308 315/315/315 316/316/316
f 316/316/316 309/309/309 308/308/308
f 317/317/317 318/318/318 319/319/319
f 319/319/319 320/320/320 317/317/317
f 321/321/321 322/322/322 323/323/323
f 323/323/323 324/324/324 321/321/321
f 325/325/325 326/326/326 327/327/327
f 327/327/327 328/328/328 325/325/325
f 329/329/329 330/330/330 331/331/331
f 331/331/331 332/332/332 329/329/329
f 333/333/333 334/334/334 335/335/335
f 335/335/335 336/336/336 333/333/333
f 337/337/337 338/338/338 339/339/339
f 339/339/339 340/340/340 337/337/337
f 341/341/341 342/342/342 343/343/343
f 343/343/343 344/344/344 341/341/341
f 345/345/345 346/346/346 347/347/347
f 347/347/347 348/348/348 345/345/345
f 349/349/349 350/350/350 351/351/351
f 351/351/351 352/352/352 349/349/349
f 353/353/353 354/354/354 355/355/355
f 355/355/355 356/356/356 353/353/353
f 357/357/357 358/358/358 359/359/359
f 359/359/359 360/360/360 357/357/357
f 361/361/361 362/362/362 363/363/363
f 363/363/363 364/364/364 361/361/361
f 373/373/373 374/374/374 375/375/375
f 375/375/375 376/376/376 373/373/373
f 377/377/377 378/378/378 379/379/379
f 379/379/379 380/380/380 377/377/377
f 381/381/381 382/382/382 383/383/383
f 383/383/383 384/384/384 381/381/381
f 385/385/385 386/386/386 387/387/387
f 387/387/387 388/388/388 385/385/385
f 393/393/393 394/394/394 395/395/395
f 395/395/395 396/396/396 393/393/393
f 397/397/397 398/398/398 399/399/399
f 399/399/399 400/400/400 397/397/397
f 401/401/401 402/402/402 403/403/403
f 403/403/403 404/404/404 401/401/401
f 405/405/405 406/406/406 407/407/407
f 407/407/407 408/408/408 405/405/405
f 409/409/409 410/410/410 411/411/411
f 411/411/411 412/412/412 409/409/409
f 413/413/413 414/414/414 415/415/415
f 415/415/415 416/416/416 413/413/413
f 421/421/421 422/422/422 423/423/423
f 423/423/423 424/424/424 421/421/421
f 425/425/425 426/426/426 427/427/427
f 427/427/427 428/428/428 425/425/425
f 429/429/429 430/430/430 431/431/431
f 431/431/431 432/432/432 429/429/429
f 433/433/433 434/434/434 435/435/435
f 435/435/435 436/436/436 433/433/433
f 437/437/437 438/438/438 439/439/439
f 439/439/439 440/440/440 437/437/437
f 441/441/441 442/442/442 443/443/443
f 443/443/443 444/444/444 441/441/441
f 445/445/445 446/446/446 447/447/447
f 447/447/447 448/448/448 445/445/445
f 449/449/449 450/450/450 451/451/451
f 451/451/451 452/452/452 449/449/449
f 453/453/453 454/454/454 455/455/455
f 455/455/455 456/456/456 453/453/453
f 457/457/457 458/458/458 459/459/459
f 459/459/459 460/460/460 457/457/457
f 461/461/461 462/462/462 463/463/463
f 463/463/463 464/464/464 461/461/461
f 473/473/473 474/474/474 475/475/475
f 475/475/475 476/476/476 473/473/473
f 477/477/477 478/478/478 479/479/479
f 479/479/479 480/480/480 477/477/477
f 481/481/481 482/482/482 483/483/483
f 483/483/483 484/484/484 481/481/481
f 485/485/485 486/486/486 487/487/487
f 487/487/487 488/488/488 485/485/485
f 489/489/489 490/490/490 491/491/491
f 491/491/491 492/492/492 489/489/489
f 493/493/493 494/494/494 495/495/495
f 495/495/495 496/496/496 493/493/493
f 497/497/497 498/498/498 499/499/499
f 499/499/499 500/500/500 497/497/497
f 501/501/501 502/502/502 503/503/503
f 503/503/503 504/504/504 501/501/501
f 505/505/505 506/506/506 507/507/507
f 507/507/507 508/508/508 505/505/505
f 509/509/509 510/510/510 511/511/511
f 511/511/511 512/512/512 509/509/509
f 513/513/513 514/514/514 515/515/515
f 515/515/515 516/516/516 513/513/513
f 517/517/517 518/518/518 519/519/519
f 519/519/519 520/520/520 517/517/517
f 529/529/529 530/530/530 531/531/531
f 531/531/531 532/532/532 529/529/529
f 533/533/533 534/534/534 535/535/535
f 533/533/533 535/535/535 536/536/536
f 533/533/533 536/536/536 537/537/537
f 538/538/538 539/539/539 540/540/540
f 540/540/540 541/541/541 538/538/538
f 542/542/542 543/543/543 544/544/544
f 544/544/544 545/545/545 542/542/542
f 546/546/546 547/547/547 548/548/548
f 546/546/546 548/548/548 549/549/549
f 546/546/546 549/549/549 550/550/550
f 550/550/550 551/551/551 552/552/552
f 550/550/550 552/552/552 553/553/553
f 546/546/546 550/550/550 553/553/553
f 554/554/554 552/552/552 551/551/551
f 554/554/554 551/551/551 555/555/555
f 556/556/556 548/548/548 547/547/547
f 556/556/556 547/547/547 557/557/557
f 555/555/555 556/556/556 557/557/557
f 554/554/554 555/555/555 557/557/557
f 558/558/558 559/559/559 560/560/560
f 560/560/560 561/561/561 558/558/558
f 561/561/561 560/560/560 562/562/562
f 562/562/562 563/563/563 561/561/561
f 564/564/564 565/565/565 566/566/566
f 566/566/566 567/567/567 564/564/564
f 567/567/567 566/566/566 568/568/568
f 568/568/568 569/569/569 567/567/567
f 569/569/569 568/568/568 570/570/570
f 570/570/570 571/571/571 569/569/569
f 572/572/572 573/573/573 565/565/565
f 565/565/565 564/564/564 572/572/572
f 574/574/574 575/575/575 576/576/576
f 576/576/576 577/577/577 574/574/574
f 578/578/578 579/579/579 580/580/580
f 580/580/580 581/581/581 578/578/578
f 582/582/582 583/583/583 584/584/584
f 584/584/584 585/585/585 582/582/582
f 586/586/586 587/587/587 588/588/588
f 588/588/588 589/589/589 586/586/586
f 594/594/594 595/595/595 596/596/596
f 596/596/596 597/597/597 594/594/594
f 598/598/598 599/599/599 600/600/600
f 600/600/600 601/601/601 598/598/598
f 602/602/602 603/603/603 604/604/604
f 604/604/604 605/605/605 602/602/602
f 606/606/606 607/607/607 608/608/608
f 608/608/608 609/609/609 606/606/606
f 610/610/610 611/611/611 612/612/612
f 612/612/612 613/613/613 610/610/610
f 614/614/614 615/615/615 616/616/616
f 616/616/616 617/617/617 614/614/614
f 622/622/622 623/623/623 624/624/624
f 624/624/624 625/625/625 622/622/622
f 626/626/626 627/627/627 628/628/628
f 628/628/628 629/629/629 626/626/626
f 630/630/630 631/631/631 632/632/632
f 632/632/632 633/633/633 630/630/630
f 634/634/634 635/635/635 636/636/636
f 636/636/636 637/637/637 634/634/634
f 638/638/638 639/639/639 640/640/640
f 640/640/640 641/641/641 638/638/638
f 642/642/642 643/643/643 644/644/644
f 644/644/644 645/645/645 642/642/642
f 646/646/646 647/647/647 648/648/648
f 648/648/648 649/649/649 646/646/646
f 650/650/650 651/651/651 652/652/652
f 652/652/652 653/653/653 650/650/650
f 654/654/654 655/655/655 656/656/656
f 656/656/656 657/657/657 654/654/654
f 658/658/658 659/659/659 660/660/660
f 660/660/660 661/661/661 658/658/658
f 662/662/662 663/663/663 664/664/664
f 664/664/664 665/665/665 662/662/662
f 740/740/740 741/741/741 742/742/742
f 742/742/742 743/743/743 740/740/740
f 744/744/744 745/745/745 746/746/746
f 746/746/746 747/747/747 744/744/744
f 748/748/748 740/740/740 749/749/749
f 749/749/749 750/750/750 748/748/748
f 751/751/751 748/748/748 750/750/750
f 750/750/750 752/752/752 751/751/751
f 753/753/753 754/754/754 755/755/755
f 755/755/755 756/756/756 753/753/753
f 757/757/757 758/758/758 759/759/759
f 759/759/759 760/760/760 757/757/757
f 761/761/761 753/753/753 762/762/762
f 762/762/762 763/763/763 761/761/761
f 764/764/764 761/761/761 763/763/763
f 763/763/763 765/765/765 764/764/764
