mtllib dd_bd013.mtl
o dd_bd013_part_0
v 1.35749817 3.46715069 6.5222435
v 1.13816833 3.20861721 6.953556
v 1.13816833 1.6366 6.953556
v 1.35749817 1.6366 6.5222435
v 1.33178711 3.64938259 6.03904343
v 1.33178711 1.6366 6.03904343
v 1.06791687 3.85796833 5.633442
v 1.06791687 1.6366 5.633442
v 0.6365967 3.858224 5.414112
v 0.6365967 1.6366 5.414112
v 0.1533966 3.858224 5.439831
v 0.1533966 1.6366 5.439831
v -0.2522049 3.65127039 5.703701
v -0.2522049 1.6366 5.703701
v -0.4715271 3.46949339 6.13501358
v -0.4715271 1.6366 6.13501358
v -0.44581604 3.20861721 6.61821365
v -0.4715271 3.46949339 6.13501358
v -0.44581604 1.6366 6.61821365
v -0.1819458 3.20861721 7.023815
v -0.1819458 1.63660026 7.023815
v 0.24936676 3.20861721 7.243145
v 0.24936676 1.63660026 7.243145
v 0.732566833 3.2079258 7.2174263
v 0.24936676 3.20861721 7.243145
v 0.732566833 1.63660026 7.2174263
v 1.35749817 3.46715069 6.5222435
v 1.33178711 3.64938259 6.03904343
v 1.06791687 3.85796833 5.633442
v 0.6365967 3.858224 5.414112
v 0.1533966 3.858224 5.439831
v -0.2522049 3.65127039 5.703701
v -0.4715271 3.46949339 6.13501358
v -0.44581604 3.20861721 6.61821365
v -0.1819458 3.20861721 7.023815
v 0.24936676 3.20861721 7.243145
v 0.732566833 3.2079258 7.2174263
v 1.13816833 3.20861721 6.953556
v -0.598327637 1.66173124 7.353733
v 1.47976685 1.66173124 7.353733
v 0.4407196 1.66173124 6.314686
v 1.47976685 1.66173124 5.275631
v -0.617332458 -0.0498669147 7.372738
v 1.49877167 -0.0498669147 7.372738
v 1.49877167 0.273421764 7.372738
v -0.617332458 0.273421764 7.372738
v 1.49877167 -0.0498669147 7.372738
v 1.49877167 -0.0498666763 5.25663376
v 1.49877167 0.273421764 5.25663376
v 1.49877167 0.273421764 7.372738
v 1.49877167 -0.0498666763 5.25663376
v -0.617332458 -0.0498666763 5.25663376
v -0.617332458 0.273421764 5.25663376
v 1.49877167 0.273421764 5.25663376
v -0.617332458 -0.0498666763 5.25663376
v -0.617332458 -0.0498669147 7.372738
v -0.617332458 0.273421764 7.372738
v -0.617332458 0.273421764 5.25663376
v -0.617332458 0.273421764 7.372738
v 1.49877167 0.273421764 7.372738
v 1.32060242 0.446484566 7.19456863
v -0.439170837 0.446484566 7.19456863
v 1.49877167 0.273421764 7.372738
v 1.49877167 0.273421764 5.25663376
v 1.32060242 0.446484566 5.43479538
v 1.32060242 0.446484566 7.19456863
v 1.49877167 0.273421764 5.25663376
v -0.617332458 0.273421764 5.25663376
v -0.439170837 0.446484566 5.43479538
v 1.32060242 0.446484566 5.43479538
v -0.617332458 0.273421764 5.25663376
v -0.617332458 0.273421764 7.372738
v -0.439170837 0.446484566 7.19456863
v -0.439170837 0.446484566 5.43479538
v -0.439170837 0.446484566 7.19456863
v 1.32060242 0.446484566 7.19456863
v 1.32060242 1.21283436 7.19456863
v -0.439170837 1.21283436 7.19456863
v 1.32060242 0.446484566 7.19456863
v 1.32060242 0.446484566 5.43479538
v 1.32060242 1.21283436 5.43479538
v 1.32060242 1.21283436 7.19456863
v 1.32060242 0.446484566 5.43479538
v -0.439170837 0.446484566 5.43479538
v -0.439170837 1.21283436 5.43479538
v 1.32060242 1.21283436 5.43479538
v -0.439170837 0.446484566 5.43479538
v -0.439170837 0.446484566 7.19456863
v -0.439170837 1.21283436 7.19456863
v -0.439170837 1.21283436 5.43479538
v -0.439170837 1.21283436 7.19456863
v 1.32060242 1.21283436 7.19456863
v 1.47976685 1.35663342 7.353733
v -0.598327637 1.35663342 7.353733
v 1.32060242 1.21283436 7.19456863
v 1.32060242 1.21283436 5.43479538
v 1.47976685 1.35663342 5.275631
v 1.47976685 1.35663342 7.353733
v 1.32060242 1.21283436 5.43479538
v -0.439170837 1.21283436 5.43479538
v -0.598327637 1.35663342 5.275631
v 1.47976685 1.35663342 5.275631
v -0.439170837 1.21283436 5.43479538
v -0.439170837 1.21283436 7.19456863
v -0.598327637 1.35663342 7.353733
v -0.598327637 1.35663342 5.275631
v -0.598327637 1.35663342 7.353733
v 1.47976685 1.35663342 7.353733
v 1.47976685 1.66173124 7.353733
v -0.598327637 1.66173124 7.353733
v 1.47976685 1.35663342 7.353733
v 1.47976685 1.35663342 5.275631
v 1.47976685 1.66173124 5.275631
v 1.47976685 1.66173124 7.353733
v 1.47976685 1.35663342 5.275631
v -0.598327637 1.35663342 5.275631
v -0.598327637 1.66173124 5.275631
v 1.47976685 1.66173124 5.275631
v -0.598327637 1.35663342 5.275631
v -0.598327637 1.35663342 7.353733
v -0.598327637 1.66173124 7.353733
v -0.598327637 1.66173124 5.275631
v -0.598327637 1.66173124 5.275631
v 0.725914 6.60912 5.55944443
v 1.1756134 6.59342241 5.73739243
v 1.22886658 3.85939026 5.6709404
v 0.7791748 3.87543583 5.4929924
v 0.2475586 6.62616968 5.6303215
v 0.725914 6.60912 5.55944443
v 0.7791748 3.87543583 5.4929924
v 0.7791748 3.87543583 5.4929924
v 0.300811768 4.08201456 5.661869
v 0.2475586 6.62616968 5.6303215
v -0.008781433 6.818672 5.9523735
v 0.2475586 6.62616968 5.6303215
v 0.300811768 4.08201456 5.661869
v 0.300811768 4.08201456 5.661869
v -0.0780563354 4.09473133 5.96258926
v -0.008781433 6.818672 5.9523735
v -0.132232666 7.078287 6.287403
v -0.008781433 6.818672 5.9523735
v -0.0780563354 4.09473133 5.96258926
v -0.0780563354 4.09473133 5.96258926
v -0.287109375 3.838355 6.33042526
v -0.132232666 7.078287 6.287403
v -0.06147003 7.073782 6.766056
v -0.132232666 7.078287 6.287403
v -0.287109375 3.838355 6.33042526
v -0.287109375 3.838355 6.33042526
v -0.158683777 3.37748623 6.71941757
v -0.06147003 7.073782 6.766056
v 0.238998413 7.06170654 7.14514542
v -0.06147003 7.073782 6.766056
v -0.158683777 3.37748623 6.71941757
v -0.158683777 3.37748623 6.71941757
v 0.0553588867 3.21018553 7.03766251
v 0.238998413 7.06170654 7.14514542
v 1.16699219 7.02707863 7.25221634
v 0.6886673 7.04504776 7.32309341
v 0.5050278 3.193593 7.215603
v 0.5050278 3.193593 7.215603
v 0.9979019 3.26472378 7.17291641
v 1.16699219 7.02707863 7.25221634
v 1.52433777 6.81147766 6.888645
v 1.16699219 7.02707863 7.25221634
v 0.9979019 3.26472378 7.17291641
v 0.9979019 3.26472378 7.17291641
v 1.40200043 3.44999266 6.93384933
v 1.52433777 6.81147766 6.888645
v 1.56288147 6.601897 6.508465
v 1.52433777 6.81147766 6.888645
v 1.40200043 3.44999266 6.93384933
v 1.40200043 3.44999266 6.93384933
v 1.56895447 3.56255722 6.544567
v 1.56288147 6.601897 6.508465
v 1.476059 6.58066034 6.116482
v 1.56288147 6.601897 6.508465
v 1.56895447 3.56255722 6.544567
v 1.56895447 3.56255722 6.544567
v 1.52932739 3.725576 6.148037
v 1.476059 6.58066034 6.116482
v 1.1756134 6.59342241 5.73739243
v 1.476059 6.58066034 6.116482
v 1.52932739 3.725576 6.148037
v 1.52932739 3.725576 6.148037
v 1.22886658 3.85939026 5.6709404
v 1.1756134 6.59342241 5.73739243
v 1.52433777 6.81147766 6.888645
v 1.56288147 6.601897 6.508465
v 1.476059 6.58066034 6.116482
v 1.52433777 6.81147766 6.888645
v 1.476059 6.58066034 6.116482
v 1.1756134 6.59342241 5.73739243
v 1.52433777 6.81147766 6.888645
v 1.1756134 6.59342241 5.73739243
v 0.725914 6.60912 5.55944443
v 1.52433777 6.81147766 6.888645
v 0.725914 6.60912 5.55944443
v 0.2475586 6.62616968 5.6303215
v 1.52433777 6.81147766 6.888645
v 0.2475586 6.62616968 5.6303215
v -0.008781433 6.818672 5.9523735
v 1.52433777 6.81147766 6.888645
v -0.008781433 6.818672 5.9523735
v -0.132232666 7.078287 6.287403
v 1.52433777 6.81147766 6.888645
v -0.132232666 7.078287 6.287403
v -0.06147003 7.073782 6.766056
v 1.52433777 6.81147766 6.888645
v -0.06147003 7.073782 6.766056
v 0.238998413 7.06170654 7.14514542
v 1.52433777 6.81147766 6.888645
v 0.238998413 7.06170654 7.14514542
v 0.6886673 7.04504776 7.32309341
v 1.52433777 6.81147766 6.888645
v 0.6886673 7.04504776 7.32309341
v 1.16699219 7.02707863 7.25221634
v 0.0553588867 3.21018553 7.03766251
v -0.158683777 3.37748623 6.71941757
v -0.287109375 3.838355 6.33042526
v 0.0553588867 3.21018553 7.03766251
v -0.287109375 3.838355 6.33042526
v -0.0780563354 4.09473133 5.96258926
v 0.0553588867 3.21018553 7.03766251
v -0.0780563354 4.09473133 5.96258926
v 0.300811768 4.08201456 5.661869
v 0.0553588867 3.21018553 7.03766251
v 0.300811768 4.08201456 5.661869
v 0.7791748 3.87543583 5.4929924
v 0.0553588867 3.21018553 7.03766251
v 0.7791748 3.87543583 5.4929924
v 1.22886658 3.85939026 5.6709404
v 0.0553588867 3.21018553 7.03766251
v 1.22886658 3.85939026 5.6709404
v 1.52932739 3.725576 6.148037
v 0.0553588867 3.21018553 7.03766251
v 1.52932739 3.725576 6.148037
v 1.56895447 3.56255722 6.544567
v 0.0553588867 3.21018553 7.03766251
v 1.56895447 3.56255722 6.544567
v 1.40200043 3.44999266 6.93384933
v 0.0553588867 3.21018553 7.03766251
v 1.40200043 3.44999266 6.93384933
v 0.9979019 3.26472378 7.17291641
v 0.0553588867 3.21018553 7.03766251
v 0.9979019 3.26472378 7.17291641
v 0.5050278 3.193593 7.215603
v 0.6886673 7.04504776 7.32309341
v 0.238998413 7.06170654 7.14514542
v 0.0553588867 3.21018553 7.03766251
v 0.5050278 3.193593 7.215603
vt 0.406124562 0.6877032
vt 0.274551421 0.721635163
vt 0.274551421 0.223573267
vt 0.406124562 0.223573267
vt 0.274551421 0.721603751
vt 0.274551421 0.223573267
vt 0.139974192 0.7973382
vt 0.139974192 0.223573267
vt 0.00528237224 0.8092148
vt 0.00528237224 0.223573267
vt 0.139974192 0.809216738
vt 0.139974192 0.223573267
vt 0.274551421 0.809216738
vt 0.274551421 0.223573267
vt 0.406124562 0.797329
vt 0.406124562 0.223573267
vt 0.274551421 0.722008348
vt 0.406124562 0.7971913
vt 0.274551421 0.223573267
vt 0.139974192 0.722008348
vt 0.139974192 0.223573267
vt 0.00528237224 0.722008348
vt 0.00528237224 0.223573267
vt 0.139974192 0.687627
vt 0.00528237224 0.721635163
vt 0.139974192 0.223573267
vt 0.799602866 0.5905193
vt 0.883882046 0.5928693
vt 0.896004438 0.7055593
vt 0.8853384 0.814679563
vt 0.864899933 0.893199742
vt 0.804598451 0.9654169
vt 0.7245127 0.939522266
vt 0.645950437 0.89702487
vt 0.5984987 0.800644
vt 0.594872832 0.7181552
vt 0.6360439 0.6450303
vt 0.6970424 0.585223556
vt 0.660387933 0.41085124
vt 0.3132951 0.41085124
vt 0.4868417 0.2373051
vt 0.660387933 0.41085124
vt 0.4141158 0.613658845
vt 0.7971352 0.613658845
vt 0.7971352 0.678316534
vt 0.4141158 0.678316534
vt 0.7997936 0.613658845
vt 0.4167742 0.613658845
vt 0.4167742 0.678316534
vt 0.7997936 0.678316534
vt 0.4141158 0.613658845
vt 0.7971352 0.613658845
vt 0.7971352 0.678316534
vt 0.4141158 0.678316534
vt 0.7997936 0.613658845
vt 0.4167742 0.613658845
vt 0.4167742 0.678316534
vt 0.7997936 0.678316534
vt 0.4141158 0.678316534
vt 0.7971352 0.678316534
vt 0.7735164 0.7279931
vt 0.44684276 0.7279931
vt 0.7997936 0.678316534
vt 0.4167742 0.678316534
vt 0.440392971 0.7279931
vt 0.7670666 0.7279931
vt 0.4141158 0.678316534
vt 0.7971352 0.678316534
vt 0.7735164 0.7279931
vt 0.44684276 0.7279931
vt 0.7997936 0.678316534
vt 0.4167742 0.678316534
vt 0.440392971 0.7279931
vt 0.7670666 0.7279931
vt 0.447299242 0.7279931
vt 0.7739729 0.7279931
vt 0.7739729 0.881263
vt 0.447299242 0.881263
vt 0.766610146 0.7279931
vt 0.439936459 0.7279931
vt 0.439936459 0.881263
vt 0.766610146 0.881263
vt 0.447299242 0.7279931
vt 0.7739729 0.7279931
vt 0.7739729 0.881263
vt 0.447299242 0.881263
vt 0.766610146 0.7279931
vt 0.439936459 0.7279931
vt 0.439936459 0.881263
vt 0.766610146 0.881263
vt 0.4472992 0.881263
vt 0.7739729 0.881263
vt 0.799793661 0.9241634
vt 0.418063283 0.9241634
vt 0.766610146 0.881263
vt 0.439936459 0.881263
vt 0.414115727 0.9241634
vt 0.7958461 0.9241634
vt 0.4472992 0.881263
vt 0.7739729 0.881263
vt 0.799793661 0.9241634
vt 0.418063283 0.9241634
vt 0.766610146 0.881263
vt 0.439936459 0.881263
vt 0.414115727 0.9241634
vt 0.7958461 0.9241634
vt 0.4175617 0.9241629
vt 0.799292 0.9241629
vt 0.799292 0.985182464
vt 0.4175617 0.985182464
vt 0.7963477 0.9241629
vt 0.41461736 0.9241629
vt 0.41461736 0.985182464
vt 0.7963477 0.985182464
vt 0.4175617 0.9241629
vt 0.799292 0.9241629
vt 0.799292 0.985182464
vt 0.4175617 0.985182464
vt 0.7963477 0.9241629
vt 0.41461736 0.9241629
vt 0.41461736 0.985182464
vt 0.7963477 0.985182464
vt 0.3132951 0.41085124
vt 0.254247427 0.926188052
vt 0.399095446 0.923696637
vt 0.400400281 0.387295485
vt 0.276539057 0.387432456
vt 0.109885879 0.928359032
vt 0.254247427 0.926188052
vt 0.276539057 0.387432456
vt 0.276539057 0.387432456
vt 0.132173359 0.389543533
vt 0.109885879 0.928359032
vt 0.0125180539 0.9578737
vt 0.109885879 0.928359032
vt 0.132173359 0.389543533
vt 0.132173359 0.389543533
vt 0.009113055 0.394656777
vt 0.0125180539 0.9578737
vt 0.106975354 0.9994965
vt 0.0125180539 0.9578737
vt 0.009113055 0.394656777
vt 0.009113055 0.394656777
vt 0.1450563 0.3503902
vt 0.106975354 0.9994965
vt 0.2629696 1.00076377
vt 0.106975354 0.9994965
vt 0.1450563 0.3503902
vt 0.1450563 0.3503902
vt 0.278136015 0.294192672
vt 0.2629696 1.00076377
vt 0.398540944 1.00153148
vt 0.2629696 1.00076377
vt 0.278136015 0.294192672
vt 0.278136015 0.294192672
vt 0.3913575 0.268654466
vt 0.398540944 1.00153148
vt 0.157390237 0.988289356
vt 0.300012827 0.9876826
vt 0.285750926 0.263864338
vt 0.285750926 0.263864338
vt 0.143351987 0.27916342
vt 0.157390237 0.988289356
vt 0.0132204033 0.955968261
vt 0.157390237 0.988289356
vt 0.143351987 0.27916342
vt 0.143351987 0.27916342
vt 0.0171871185 0.308479667
vt 0.0132204033 0.955968261
vt 0.1322881 0.9228232
vt 0.0132204033 0.955968261
vt 0.0171871185 0.308479667
vt 0.0171871185 0.308479667
vt 0.137722611 0.3409071
vt 0.1322881 0.9228232
vt 0.2614597 0.9203187
vt 0.1322881 0.9228232
vt 0.137722611 0.3409071
vt 0.137722611 0.3409071
vt 0.264084518 0.38638854
vt 0.2614597 0.9203187
vt 0.399095446 0.923696637
vt 0.2614597 0.9203187
vt 0.264084518 0.38638854
vt 0.264084518 0.38638854
vt 0.400400281 0.387295485
vt 0.399095446 0.923696637
vt 0.799602866 0.5905193
vt 0.883882046 0.5928693
vt 0.896004438 0.7055593
vt 0.799602866 0.5905193
vt 0.896004438 0.7055593
vt 0.8853384 0.814679563
vt 0.799602866 0.5905193
vt 0.8853384 0.814679563
vt 0.864899933 0.893199742
vt 0.799602866 0.5905193
vt 0.864899933 0.893199742
vt 0.804598451 0.9654169
vt 0.799602866 0.5905193
vt 0.804598451 0.9654169
vt 0.7245127 0.939522266
vt 0.799602866 0.5905193
vt 0.7245127 0.939522266
vt 0.645950437 0.89702487
vt 0.799602866 0.5905193
vt 0.645950437 0.89702487
vt 0.5984987 0.800644
vt 0.799602866 0.5905193
vt 0.5984987 0.800644
vt 0.594872832 0.7181552
vt 0.799602866 0.5905193
vt 0.594872832 0.7181552
vt 0.6360439 0.6450303
vt 0.799602866 0.5905193
vt 0.6360439 0.6450303
vt 0.6970424 0.585223556
vt 0.799602866 0.5905193
vt 0.883882046 0.5928693
vt 0.896004438 0.7055593
vt 0.799602866 0.5905193
vt 0.896004438 0.7055593
vt 0.8853384 0.814679563
vt 0.799602866 0.5905193
vt 0.8853384 0.814679563
vt 0.864899933 0.893199742
vt 0.799602866 0.5905193
vt 0.864899933 0.893199742
vt 0.804598451 0.9654169
vt 0.799602866 0.5905193
vt 0.804598451 0.9654169
vt 0.7245127 0.939522266
vt 0.799602866 0.5905193
vt 0.7245127 0.939522266
vt 0.645950437 0.89702487
vt 0.799602866 0.5905193
vt 0.645950437 0.89702487
vt 0.5984987 0.800644
vt 0.799602866 0.5905193
vt 0.5984987 0.800644
vt 0.594872832 0.7181552
vt 0.799602866 0.5905193
vt 0.594872832 0.7181552
vt 0.6360439 0.6450303
vt 0.799602866 0.5905193
vt 0.6360439 0.6450303
vt 0.6970424 0.585223556
vt 0.300012827 0.9876826
vt 0.157390237 0.988289356
vt 0.143351987 0.27916342
vt 0.285750926 0.263864338
vn 0.9911599 0 0.132672578
vn 0.7674582 0 0.641099036
vn 0.7436848 0 0.6685304
vn 0.9783137 0 0.207128733
vn 0.9289052 0 -0.3703176
vn 0.950806856 0 -0.3097843
vn 0.6383287 0 -0.769763947
vn 0.6685278 0 -0.743687153
vn 0.20707345 0 -0.9783254
vn 0.207117558 0 -0.978316069
vn -0.271965742 0 -0.9623069
vn -0.309791774 0 -0.9508044
vn -0.699326754 0 -0.714802146
vn -0.743689537 0 -0.668525159
vn -0.95978 0 -0.2807532
vn -0.9783152 0 -0.207121834
vn -0.961456954 0 0.274955481
vn -0.95978 0 -0.2807532
vn -0.950806856 0 0.309784263
vn -0.6685304 0 0.743684769
vn -0.6685304 0 0.743684769
vn -0.207240328 0 0.9782901
vn -0.207121029 0 0.978315353
vn 0.309791774 0 0.9508044
vn -0.207240328 0 0.9782901
vn 0.309791833 0 0.9508044
vn -0.00847855 0.921205759 0.388983339
vn 0.210801467 0.9182958 0.33510524
vn -0.189735755 0.8745114 0.446352035
vn -0.037983615 0.934307337 0.35443905
vn -0.08930163 0.900862157 0.4248207
vn -0.102033243 0.908592939 0.405028552
vn -0.0871827751 0.9045919 0.417268038
vn -0.117385723 0.9388959 0.323566169
vn -0.125688866 0.984573543 0.121725909
vn -0.0747341961 0.9696349 0.232858166
vn 0.07408174 0.910771549 0.406210631
vn 0.3969212 0.684119642 0.611910045
vn 0 1 0
vn 0 1 0
vn 0 1 0
vn 0 1 0
vn 0 0 1
vn 0 0 1
vn 0 0 1
vn 0 0 1
vn 1 0 0
vn 1 0 0
vn 1 0 0
vn 1 0 0
vn 0 0 -1
vn 0 0 -1
vn 0 0 -1
vn 0 0 -1
vn -1 0 0
vn -1 0 0
vn -1 0 0
vn -1 0 0
vn 0 0.7173114 0.6967527
vn 0 0.7173114 0.6967527
vn 0 0.7173114 0.6967527
vn 0 0.7173114 0.6967527
vn 0.6967527 0.7173114 0
vn 0.6967527 0.7173114 0
vn 0.6967527 0.7173114 0
vn 0.6967527 0.7173114 0
vn 0 0.7172965 -0.6967681
vn 0 0.7172965 -0.6967681
vn 0 0.7172965 -0.6967681
vn 0 0.7172965 -0.6967681
vn -0.6967681 0.7172965 0
vn -0.6967681 0.7172965 0
vn -0.6967681 0.7172965 0
vn -0.6967681 0.7172965 0
vn 0 0 1
vn 0 0 1
vn 0 0 1
vn 0 0 1
vn 1 0 0
vn 1 0 0
vn 1 0 0
vn 1 0 0
vn 0 0 -1
vn 0 0 -1
vn 0 0 -1
vn 0 0 -1
vn -1 0 0
vn -1 0 0
vn -1 0 0
vn -1 0 0
vn 0 -0.742015362 0.6703829
vn 0 -0.742015362 0.6703829
vn 0 -0.742015362 0.6703829
vn 0 -0.742015362 0.6703829
vn 0.6703829 -0.742015362 0
vn 0.6703829 -0.742015362 0
vn 0.6703829 -0.742015362 0
vn 0.6703829 -0.742015362 0
vn 0 -0.742015362 -0.6703829
vn 0 -0.742015362 -0.6703829
vn 0 -0.742015362 -0.6703829
vn 0 -0.742015362 -0.6703829
vn -0.6704006 -0.7419993 0
vn -0.6704006 -0.7419993 0
vn -0.6704006 -0.7419993 0
vn -0.6704006 -0.7419993 0
vn 0 0 1
vn 0 0 1
vn 0 0 1
vn 0 0 1
vn 1 0 0
vn 1 0 0
vn 1 0 0
vn 1 0 0
vn 0 0 -1
vn 0 0 -1
vn 0 0 -1
vn 0 0 -1
vn -1 0 0
vn -1 0 0
vn -1 0 0
vn -1 0 0
vn 0 1 0
vn 0.368679821 0.0297628567 -0.929079831
vn 0.368679821 0.0297628567 -0.929079831
vn 0.368679821 0.0297628567 -0.929079831
vn 0.368705243 0.0297679231 -0.9290696
vn -0.145795628 0.021202771 -0.9890875
vn -0.145795628 0.021202771 -0.9890875
vn -0.145795628 0.021202771 -0.9890875
vn -0.3400363 -0.018776292 -0.9402248
vn -0.3400363 -0.018776292 -0.9402248
vn -0.3400363 -0.018776292 -0.9402248
vn -0.789158762 -0.02412841 -0.6137152
vn -0.789158762 -0.02412841 -0.6137152
vn -0.789158762 -0.02412841 -0.6137152
vn -0.6213811 0.0128648384 -0.78340286
vn -0.6213811 0.0128648384 -0.78340286
vn -0.6213811 0.0128648384 -0.78340286
vn -0.9323462 0.022357896 -0.3608748
vn -0.9323462 0.022357896 -0.3608748
vn -0.9323462 0.022357896 -0.3608748
vn -0.879339039 0.03572911 -0.474854
vn -0.879339039 0.03572911 -0.474854
vn -0.879339039 0.03572911 -0.474854
vn -0.98798424 0.0491737165 0.146523491
vn -0.98798424 0.0491737165 0.146523491
vn -0.98798424 0.0491737165 0.146523491
vn -0.9418873 0.0205412377 0.335300356
vn -0.9418873 0.0205412377 0.335300356
vn -0.9418873 0.0205412377 0.335300356
vn -0.7834257 0.0127643235 0.6213544
vn -0.7834257 0.0127643235 0.6213544
vn -0.7834257 0.0127643235 0.6213544
vn -0.823795438 0.0234720185 0.566401
vn -0.823795438 0.0234720185 0.566401
vn -0.823795438 0.0234720185 0.566401
vn 0.1452208 -0.0345206149 0.9887969
vn 0.1452208 -0.0345206149 0.9887969
vn 0.1452208 -0.0345206149 0.9887969
vn 0.08984105 -0.0250230413 0.9956417
vn 0.08984105 -0.0250230413 0.9956417
vn 0.08984105 -0.0250230413 0.9956417
vn 0.6985104 -0.04644397 0.7140912
vn 0.6985104 -0.04644397 0.7140912
vn 0.6985104 -0.04644397 0.7140912
vn 0.511557758 -0.007063041 0.859219849
vn 0.511557758 -0.007063041 0.859219849
vn 0.511557758 -0.007063041 0.859219849
vn 0.9922208 -0.0345021933 0.119613916
vn 0.9922208 -0.0345021933 0.119613916
vn 0.9922208 -0.0345021933 0.119613916
vn 0.9183378 0.006535733 0.3957435
vn 0.9183378 0.006535733 0.3957435
vn 0.9183378 0.006535733 0.3957435
vn 0.9763439 -0.000617499463 -0.21622242
vn 0.9763439 -0.000617499463 -0.21622242
vn 0.9763439 -0.000617499463 -0.21622242
vn 0.995578766 0.0175550487 -0.0922756344
vn 0.995578766 0.0175550487 -0.0922756344
vn 0.995578766 0.0175550487 -0.0922756344
vn 0.7838141 0.007761051 -0.620947063
vn 0.7838141 0.007761051 -0.620947063
vn 0.7838141 0.007761051 -0.620947063
vn 0.849506438 0.029349789 -0.526761234
vn 0.849506438 0.029349789 -0.526761234
vn 0.849506438 0.029349789 -0.526761234
vn 0.819841444 0.5325171 -0.210441381
vn 0.819841444 0.5325171 -0.210441381
vn 0.819841444 0.5325171 -0.210441381
vn 0.3973274 0.872122645 -0.285539955
vn 0.3973274 0.872122645 -0.285539955
vn 0.3973274 0.872122645 -0.285539955
vn 0.120822564 0.968001246 -0.219944343
vn 0.120822564 0.968001246 -0.219944343
vn 0.120822564 0.968001246 -0.219944343
vn 0.0118651725 0.9874545 -0.157457426
vn 0.0118651725 0.9874545 -0.157457426
vn 0.0118651725 0.9874545 -0.157457426
vn 0.225093424 0.9047404 -0.361632079
vn 0.225093424 0.9047404 -0.361632079
vn 0.225093424 0.9047404 -0.361632079
vn 0.313306123 0.8030772 -0.5068592
vn 0.313306123 0.8030772 -0.5068592
vn 0.313306123 0.8030772 -0.5068592
vn 0.164300725 0.9862961 -0.0150065562
vn 0.164300725 0.9862961 -0.0150065562
vn 0.164300725 0.9862961 -0.0150065562
vn 0.170102715 0.979964435 -0.103608847
vn 0.170102715 0.979964435 -0.103608847
vn 0.170102715 0.979964435 -0.103608847
vn 0.13583976 0.9577224 -0.253604561
vn 0.13583976 0.9577224 -0.253604561
vn 0.13583976 0.9577224 -0.253604561
vn -0.0492869653 0.8370879 -0.5448437
vn -0.0492869653 0.8370879 -0.5448437
vn -0.0492869653 0.8370879 -0.5448437
vn 0.67974174 -0.353158325 -0.642829955
vn 0.67974174 -0.353158325 -0.642829955
vn 0.67974174 -0.353158325 -0.642829955
vn -0.140436471 -0.77304244 -0.6186138
vn -0.140436471 -0.77304244 -0.6186138
vn -0.140436471 -0.77304244 -0.6186138
vn -0.4480714 -0.7168437 -0.5341976
vn -0.4480714 -0.7168437 -0.5341976
vn -0.4480714 -0.7168437 -0.5341976
vn -0.4868819 -0.695921242 -0.5278633
vn -0.4868819 -0.695921242 -0.5278633
vn -0.4868819 -0.695921242 -0.5278633
vn 0.105747029 -0.9303393 -0.351121634
vn 0.105747029 -0.9303393 -0.351121634
vn 0.105747029 -0.9303393 -0.351121634
vn 0.121946543 -0.9330338 -0.338492185
vn 0.121946543 -0.9330338 -0.338492185
vn 0.121946543 -0.9330338 -0.338492185
vn 0.08792158 -0.9181878 -0.386265367
vn 0.08792158 -0.9181878 -0.386265367
vn 0.08792158 -0.9181878 -0.386265367
vn 0.15543595 -0.964761853 -0.212306991
vn 0.15543595 -0.964761853 -0.212306991
vn 0.15543595 -0.964761853 -0.212306991
vn 0.118632071 -0.8718729 -0.4751464
vn 0.118632071 -0.8718729 -0.4751464
vn 0.118632071 -0.8718729 -0.4751464
vn 0.104068294 -0.931024551 -0.349804282
vn 0.104068294 -0.931024551 -0.349804282
vn 0.104068294 -0.931024551 -0.349804282
vn -0.368222058 -0.008388048 0.9297
vn -0.368222058 -0.008388048 0.9297
vn -0.368222058 -0.008388048 0.9297
vn -0.368207425 -0.008390892 0.9297058
usemtl dd_bd013_part_0_material_0
f 27/27/27 28/28/28 29/29/29
f 27/27/27 29/29/29 30/30/30
f 27/27/27 30/30/30 31/31/31
f 27/27/27 31/31/31 32/32/32
f 27/27/27 32/32/32 33/33/33
f 27/27/27 33/33/33 34/34/34
f 27/27/27 34/34/34 35/35/35
f 27/27/27 35/35/35 36/36/36
f 27/27/27 36/36/36 37/37/37
f 27/27/27 37/37/37 38/38/38
f 39/39/39 40/40/40 41/41/41
f 42/42/42 41/41/41 40/40/40
f 42/42/42 123/123/123 41/41/41
f 39/39/39 41/41/41 123/123/123
f 188/188/188 189/189/189 190/190/190
f 191/191/191 192/192/192 193/193/193
f 194/194/194 195/195/195 196/196/196
f 197/197/197 198/198/198 199/199/199
f 200/200/200 201/201/201 202/202/202
f 203/203/203 204/204/204 205/205/205
f 206/206/206 207/207/207 208/208/208
f 209/209/209 210/210/210 211/211/211
f 212/212/212 213/213/213 214/214/214
f 215/215/215 216/216/216 217/217/217
f 218/218/218 219/219/219 220/220/220
f 221/221/221 222/222/222 223/223/223
f 224/224/224 225/225/225 226/226/226
f 227/227/227 228/228/228 229/229/229
f 230/230/230 231/231/231 232/232/232
f 233/233/233 234/234/234 235/235/235
f 236/236/236 237/237/237 238/238/238
f 239/239/239 240/240/240 241/241/241
f 242/242/242 243/243/243 244/244/244
f 245/245/245 246/246/246 247/247/247
usemtl dd_bd013_part_0_material_1
f 1/1/1 2/2/2 3/3/3
f 3/3/3 4/4/4 1/1/1
f 5/5/5 1/1/1 4/4/4
f 4/4/4 6/6/6 5/5/5
f 7/7/7 5/5/5 6/6/6
f 6/6/6 8/8/8 7/7/7
f 9/9/9 7/7/7 8/8/8
f 8/8/8 10/10/10 9/9/9
f 11/11/11 9/9/9 10/10/10
f 10/10/10 12/12/12 11/11/11
f 13/13/13 11/11/11 12/12/12
f 12/12/12 14/14/14 13/13/13
f 15/15/15 13/13/13 14/14/14
f 14/14/14 16/16/16 15/15/15
f 17/17/17 18/18/18 16/16/16
f 16/16/16 19/19/19 17/17/17
f 20/20/20 17/17/17 19/19/19
f 19/19/19 21/21/21 20/20/20
f 22/22/22 20/20/20 21/21/21
f 21/21/21 23/23/23 22/22/22
f 24/24/24 25/25/25 23/23/23
f 23/23/23 26/26/26 24/24/24
f 2/2/2 24/24/24 26/26/26
f 26/26/26 3/3/3 2/2/2
f 43/43/43 44/44/44 45/45/45
f 45/45/45 46/46/46 43/43/43
f 47/47/47 48/48/48 49/49/49
f 49/49/49 50/50/50 47/47/47
f 51/51/51 52/52/52 53/53/53
f 53/53/53 54/54/54 51/51/51
f 55/55/55 56/56/56 57/57/57
f 57/57/57 58/58/58 55/55/55
f 59/59/59 60/60/60 61/61/61
f 61/61/61 62/62/62 59/59/59
f 63/63/63 64/64/64 65/65/65
f 65/65/65 66/66/66 63/63/63
f 67/67/67 68/68/68 69/69/69
f 69/69/69 70/70/70 67/67/67
f 71/71/71 72/72/72 73/73/73
f 73/73/73 74/74/74 71/71/71
f 75/75/75 76/76/76 77/77/77
f 77/77/77 78/78/78 75/75/75
f 79/79/79 80/80/80 81/81/81
f 81/81/81 82/82/82 79/79/79
f 83/83/83 84/84/84 85/85/85
f 85/85/85 86/86/86 83/83/83
f 87/87/87 88/88/88 89/89/89
f 89/89/89 90/90/90 87/87/87
f 91/91/91 92/92/92 93/93/93
f 93/93/93 94/94/94 91/91/91
f 95/95/95 96/96/96 97/97/97
f 97/97/97 98/98/98 95/95/95
f 99/99/99 100/100/100 101/101/101
f 101/101/101 102/102/102 99/99/99
f 103/103/103 104/104/104 105/105/105
f 105/105/105 106/106/106 103/103/103
f 107/107/107 108/108/108 109/109/109
f 109/109/109 110/110/110 107/107/107
f 111/111/111 112/112/112 113/113/113
f 113/113/113 114/114/114 111/111/111
f 115/115/115 116/116/116 117/117/117
f 117/117/117 118/118/118 115/115/115
f 119/119/119 120/120/120 121/121/121
f 121/121/121 122/122/122 119/119/119
f 124/124/124 125/125/125 126/126/126
f 126/126/126 127/127/127 124/124/124
f 128/128/128 129/129/129 130/130/130
f 131/131/131 132/132/132 133/133/133
f 134/134/134 135/135/135 136/136/136
f 137/137/137 138/138/138 139/139/139
f 140/140/140 141/141/141 142/142/142
f 143/143/143 144/144/144 145/145/145
f 146/146/146 147/147/147 148/148/148
f 149/149/149 150/150/150 151/151/151
f 152/152/152 153/153/153 154/154/154
f 155/155/155 156/156/156 157/157/157
f 158/158/158 159/159/159 160/160/160
f 161/161/161 162/162/162 163/163/163
f 164/164/164 165/165/165 166/166/166
f 167/167/167 168/168/168 169/169/169
f 170/170/170 171/171/171 172/172/172
f 173/173/173 174/174/174 175/175/175
f 176/176/176 177/177/177 178/178/178
f 179/179/179 180/180/180 181/181/181
f 182/182/182 183/183/183 184/184/184
f 185/185/185 186/186/186 187/187/187
f 248/248/248 249/249/249 250/250/250
f 250/250/250 251/251/251 248/248/248
o dd_bd013_part_1
v -4.02713 1.12820292 -2.036335
v -4.86552429 1.12820292 -0.948082
v -4.33895874 1.12820292 -0.4314041
v -3.70713043 1.12820292 -0.5485382
v -3.40933228 1.12820292 -1.16860962
v -3.26691437 1.12820292 -1.61663055
v -4.33895874 1.12820292 -0.4314041
v -4.33895874 -0.04986477 -0.4314041
v -3.70713043 -0.04986477 -0.5485382
v -3.70713043 1.12820292 -0.5485382
v -3.26691437 -0.04986477 -1.61663055
v -4.02713 -0.04986477 -2.036335
v -4.02713 1.12820292 -2.036335
v -3.26691437 1.12820292 -1.61663055
v -4.02713 -0.04986477 -2.036335
v -4.86552429 -0.04986477 -0.948082
v -4.86552429 1.12820292 -0.948082
v -4.02713 1.12820292 -2.036335
v -4.86552429 -0.04986477 -0.948082
v -4.33895874 -0.04986477 -0.4314041
v -4.33895874 1.12820292 -0.4314041
v -4.86552429 1.12820292 -0.948082
v -3.26691437 1.12820292 -1.61663055
v -3.40933228 1.12820292 -1.16860962
v -3.40933228 -0.04986477 -1.16860962
v -3.26691437 -0.04986477 -1.61663055
v -3.70713043 1.12820292 -0.5485382
v -3.70713043 -0.04986477 -0.5485382
vt 0.272869378 0.391780734
vt 0.0141859939 0.380987525
vt 0.003381204 0.242371857
vt 0.09683444 0.165342093
vt 0.222434133 0.197466433
vt 0.304370582 0.231180608
vt 0.722424448 0.411020041
vt 0.722424448 0.175406635
vt 0.604187131 0.175406635
vt 0.604187131 0.411020041
vt 0.4366248 0.175406635
vt 0.310527116 0.175406635
vt 0.310527116 0.411020041
vt 0.4366248 0.411020041
vt 0.310527116 0.175406635
vt 0.5849773 0.175406635
vt 0.5849773 0.411020041
vt 0.310527116 0.411020041
vt 0.5849773 0.175406635
vt 0.722424448 0.175406635
vt 0.722424448 0.411020041
vt 0.5849773 0.411020041
vt 0.4366248 0.411020041
vt 0.5047378 0.411020041
vt 0.5047378 0.175406635
vt 0.4366248 0.175406635
vt 0.6044031 0.411020041
vt 0.6044031 0.175406635
vn 0 1 0
vn 0 1 0
vn 0 1 0
vn 0 1 0
vn 0 1 0
vn 0 1 0
vn 0.182283133 0 0.9832461
vn 0.182283133 0 0.9832461
vn 0.607718647 0 0.7941524
vn 0.607718647 0 0.7941524
vn 0.483320147 0 -0.8754437
vn 0.483320147 0 -0.8754437
vn 0.483320147 0 -0.8754437
vn 0.483320147 0 -0.8754437
vn -0.792174757 0 -0.610294342
vn -0.792174757 0 -0.610294342
vn -0.792174757 0 -0.610294342
vn -0.792174757 0 -0.610294342
vn -0.7003735 0 0.7137766
vn -0.7003734 0 0.7137766
vn -0.7003735 0 0.7137766
vn -0.7003734 0 0.7137766
vn 0.953008235 0 0.302944422
vn 0.929493964 0 0.368837237
vn 0.929493964 0 0.368837237
vn 0.953008235 0 0.302944422
vn 0.607718647 0 0.7941524
vn 0.607718647 0 0.7941524
usemtl dd_bd013_part_1_material_0
f 252/252/252 253/253/253 254/254/254
f 252/252/252 254/254/254 255/255/255
f 252/252/252 255/255/255 256/256/256
f 252/252/252 256/256/256 257/257/257
f 258/258/258 259/259/259 260/260/260
f 260/260/260 261/261/261 258/258/258
f 262/262/262 263/263/263 264/264/264
f 264/264/264 265/265/265 262/262/262
f 266/266/266 267/267/267 268/268/268
f 268/268/268 269/269/269 266/266/266
f 270/270/270 271/271/271 272/272/272
f 272/272/272 273/273/273 270/270/270
f 274/274/274 275/275/275 276/276/276
f 276/276/276 277/277/277 274/274/274
f 278/278/278 279/279/279 276/276/276
f 276/276/276 275/275/275 278/278/278
o dd_bd013_part_2
v 2.50296021 1.57108736 5.276699
v 2.86302185 1.66135669 4.966297
v 0.8780365 2.93544579 2.772541
v 0.517738342 2.84531546 3.08272171
v 3.14279175 1.52179313 4.596981
v 1.15756989 2.796022 2.40300369
v 3.26741028 1.18973351 4.267826
v 1.07862854 2.535675 2.03902817
v 3.42430115 0.71984005 4.23461533
v 0.863670349 2.31249714 1.72459793
v 3.40603638 0.2528293 4.50487137
v 0.629005432 1.88971031 1.70660019
v 3.242546 -0.06367004 4.72436142
v 0.28578186 1.59341741 1.87555313
v 2.88280487 -0.154124618 5.035084
v 2.52677155 -0.00339460373 5.351803
v -0.352813721 1.64197206 2.55649185
v -0.07387543 1.50291252 2.18635178
v 2.235855 0.35432744 5.5571785
v -0.310012817 1.94818914 3.015583
v 2.14526367 0.818058968 5.594654
v -0.05216217 2.21717548 3.24162674
v 2.15996552 1.27466011 5.445881
v 0.1749649 2.54875326 3.25211716
v -0.310012817 1.94818914 3.015583
v -0.05216217 2.21717548 3.24162674
v 0.1749649 2.54875326 3.25211716
v 0.517738342 2.84531546 3.08272171
v 0.8780365 2.93544579 2.772541
v 1.15756989 2.796022 2.40300369
v 1.07862854 2.535675 2.03902817
v 0.863670349 2.31249714 1.72459793
v 0.629005432 1.88971031 1.70660019
v 0.28578186 1.59341741 1.87555313
v -0.07387543 1.50291252 2.18635178
v -0.352813721 1.64197206 2.55649185
v 3.242546 -0.06367004 4.72436142
v 3.40603638 0.2528293 4.50487137
v 3.42430115 0.71984005 4.23461533
v 3.26741028 1.18973351 4.267826
v 3.14279175 1.52179313 4.596981
v 2.86302185 1.66135669 4.966297
v 2.50296021 1.57108736 5.276699
v 2.15996552 1.27466011 5.445881
v 2.14526367 0.818058968 5.594654
v 2.235855 0.35432744 5.5571785
v 2.52677155 -0.00339460373 5.351803
v 2.88280487 -0.154124618 5.035084
v 0.6799545 1.31111574 1.32578659
v 0.5055084 1.31111574 0.06453323
v -0.246818542 1.31111574 0.816864
v -2.591769 1.31111574 3.16181731
v -2.566585 1.31111562 4.77008772
v -1.94761658 1.31111574 5.38904953
v 1.22724152 1.31111574 2.21419144
v 1.22724152 1.31111574 2.21419144
v -1.94761658 1.31111574 5.38904953
v -1.94761658 -0.1617117 5.38904953
v 1.22724152 -0.161711216 2.21419144
v 0.6799545 -0.161711216 1.32578659
v 0.6799545 1.31111574 1.32578659
v 1.22724152 1.31111574 2.21419144
v 1.22724152 -0.161711216 2.21419144
v -0.246818542 -0.161711216 0.816864
v -2.59176874 -0.161711574 3.161817
v -2.591769 1.31111574 3.16181731
v -0.246818542 1.31111574 0.816864
v 0.5055084 -0.161711216 0.06453323
v 0.5055084 1.31111574 0.06453323
v -2.66546631 1.31111574 4.67120743
v -2.66546631 -0.1617117 4.67120743
v -1.94761658 -0.1617117 5.38904953
v -1.94761658 1.31111574 5.38904953
v -2.566585 1.31111562 4.77008772
v -0.246818542 -0.161711216 0.816864
v -0.246818542 1.31111574 0.816864
v 0.5055084 1.31111574 0.06453323
v 0.5055084 -0.161711216 0.06453323
vt 0.400400281 0.36458075
vt 0.276539057 0.364720762
vt 0.254247427 0.915852845
vt 0.399095446 0.91330415
vt 0.132173359 0.366880357
vt 0.109885879 0.918073654
vt 0.009113055 0.372111022
vt 0.0125180539 0.948266268
vt 0.1450563 0.326827645
vt 0.106975354 0.9908451
vt 0.278136015 0.269339085
vt 0.2629696 0.9921416
vt 0.3913575 0.24321425
vt 0.398540944 0.992926955
vt 0.285750926 0.238314033
vt 0.143351987 0.253964543
vt 0.157390237 0.9793805
vt 0.300012827 0.9787599
vt 0.0171871185 0.283954263
vt 0.0132204033 0.9463171
vt 0.137722611 0.317126632
vt 0.1322881 0.9124106
vt 0.264084518 0.363652885
vt 0.2614597 0.9098486
vt 0.799602866 0.5905193
vt 0.883882046 0.5928693
vt 0.896004438 0.7055593
vt 0.8853384 0.814679563
vt 0.864899933 0.893199742
vt 0.804598451 0.9654169
vt 0.7245127 0.939522266
vt 0.645950437 0.89702487
vt 0.5984987 0.800644
vt 0.594872832 0.7181552
vt 0.6360439 0.6450303
vt 0.6970424 0.585223556
vt 0.799602866 0.5905193
vt 0.883882046 0.5928693
vt 0.896004438 0.7055593
vt 0.8853384 0.814679563
vt 0.864899933 0.893199742
vt 0.804598451 0.9654169
vt 0.7245127 0.939522266
vt 0.645950437 0.89702487
vt 0.5984987 0.800644
vt 0.594872832 0.7181552
vt 0.6360439 0.6450303
vt 0.6970424 0.585223556
vt 0.8642929 0.8018755
vt 1.00710309 0.98645556
vt 0.813657 0.9864555
vt 0.210699618 0.9864554
vt 0.007170986 0.7764502
vt 0.00717099756 0.6172955
vt 0.819409966 0.6172955
vt 0.823865831 0.6235418
vt 0.00751405954 0.6235418
vt 0.00751405954 0.349532247
vt 0.823865831 0.349532247
vt 0.342931032 0.8014473
vt 0.5929696 0.765951
vt 0.624370158 0.9911644
vt 0.35407564 0.9911643
vt 0.810711145 0.3565058
vt 0.207753822 0.3565058
vt 0.207753778 0.6242925
vt 0.810711145 0.6242925
vt 0.347255647 0.4206925
vt 0.6311965 0.449709833
vt 0.190056086 0.6248262
vt 0.190056086 0.352932453
vt 0.00547606638 0.352932453
vt 0.00547606638 0.6248262
vt 0.164630875 0.6248262
vt 0.8126574 0.355141282
vt 0.8126574 0.6249472
vt 0.617752731 0.6249472
vt 0.617752731 0.355141282
vn -0.08527755 0.8261413 0.556972444
vn 0.317719132 0.916101 0.244568
vn 0.330183 0.914822161 0.232550278
vn -0.0724718943 0.832589865 0.549128354
vn 0.6321432 0.7602254 -0.149841011
vn 0.709354639 0.654441 -0.261769
vn 0.7556152 0.432351649 -0.492054582
vn 0.77002424 0.266624749 -0.5796326
vn 0.615277 -0.236206621 -0.7520909
vn 0.6647483 -0.108956553 -0.739079237
vn 0.366790026 -0.5916015 -0.717964351
vn 0.432136625 -0.5116046 -0.742643058
vn 0.3111876 -0.6448606 -0.698080957
vn 0.27011326 -0.689458251 -0.672076
vn -0.444235 -0.8933671 -0.06745715
vn -0.5541519 -0.8298413 0.06541493
vn -0.608631849 -0.773417532 0.177179635
vn -0.471184522 -0.8817127 -0.0238311328
vn -0.7458887 -0.535864055 0.3956005
vn -0.7512553 -0.353181541 0.5575646
vn -0.7477931 -0.050246466 0.6620278
vn -0.64886564 0.1794752 0.7394336
vn -0.510426 0.457961351 0.7278301
vn -0.4355197 0.54174453 0.7189127
vn -0.6284592 0.660753548 -0.410418957
vn -0.798308849 0.5382875 0.270091683
vn -0.721469462 0.6622595 -0.202223018
vn -0.6235319 0.611745 -0.486801833
vn -0.578540862 0.547331 -0.604747236
vn -0.5803262 0.6509625 -0.489356041
vn -0.5486858 0.7747701 -0.314126134
vn -0.6266534 0.6818766 -0.377292871
vn -0.7154416 0.45126003 -0.533392668
vn -0.6704038 0.5329838 -0.516223848
vn -0.552770734 0.6583351 -0.5109202
vn -0.27888748 0.8107121 -0.5147501
vn 0.694124639 0.116939828 0.710292935
vn 0.20453836 0.484277546 0.8506699
vn 0.7320847 0.230795532 0.640925467
vn 0.928016365 0.111107662 0.355585
vn 0.868210137 0.09377353 0.487255216
vn 0.716374755 0.06011908 0.6951208
vn 0.5671329 -0.0216055 0.82334286
vn 0.587145 0.03904467 0.8085396
vn 0.6892866 0.160462141 0.7064955
vn 0.6538871 0.07474087 0.7528914
vn 0.6606637 0.0979424641 0.7442652
vn 0.657534063 -0.0288277883 0.7528731
vn -1.06181517E-08 1 4.57963845E-09
vn 0 1 0
vn -4.57713062E-10 1 1.75273964E-08
vn 7.297996E-08 1 7.297987E-08
vn -6.329496E-08 1 -3.20570166E-08
vn -1.01221758E-07 1 -6.54566E-08
vn 0 1 0
vn 0.707106769 0 0.707106769
vn 0.707106769 0 0.707106769
vn 0.707106769 0 0.707106769
vn 0.707106769 0 0.707106769
vn 0.941149 0 -0.337992042
vn 0.941149 0 -0.337992042
vn 0.8514117 0 -0.524498
vn 0.8514117 0 -0.524498
vn -0.7071079 -1.85797948E-14 -0.7071057
vn -0.7071072 -1.39656366E-13 -0.707106352
vn -0.7071072 -1.02496774E-13 -0.707106352
vn -0.7071079 0 -0.7071057
vn 0.99057 0 -0.13700743
vn 0.99057 0 -0.13700743
vn -0.707103252 -2.08725965E-07 0.7071103
vn -0.707103 0 0.7071105
vn -0.707103 -1.4511774E-08 0.7071105
vn -0.707103 0 0.7071106
vn -0.707103252 -2.27329934E-07 0.7071103
vn -0.7071079 -1.85797948E-14 -0.7071057
vn -0.7071079 0 -0.7071057
vn -0.707108557 0 -0.707105
vn -0.707108557 0 -0.707105
usemtl dd_bd013_part_2_material_0
f 304/304/304 305/305/305 306/306/306
f 304/304/304 306/306/306 307/307/307
f 304/304/304 307/307/307 308/308/308
f 304/304/304 308/308/308 309/309/309
f 304/304/304 309/309/309 310/310/310
f 304/304/304 310/310/310 311/311/311
f 304/304/304 311/311/311 312/312/312
f 304/304/304 312/312/312 313/313/313
f 304/304/304 313/313/313 314/314/314
f 304/304/304 314/314/314 315/315/315
f 316/316/316 317/317/317 318/318/318
f 316/316/316 318/318/318 319/319/319
f 316/316/316 319/319/319 320/320/320
f 316/316/316 320/320/320 321/321/321
f 316/316/316 321/321/321 322/322/322
f 316/316/316 322/322/322 323/323/323
f 316/316/316 323/323/323 324/324/324
f 316/316/316 324/324/324 325/325/325
f 316/316/316 325/325/325 326/326/326
f 316/316/316 326/326/326 327/327/327
f 339/339/339 340/340/340 341/341/341
f 341/341/341 342/342/342 339/339/339
f 347/347/347 348/348/348 340/340/340
f 340/340/340 339/339/339 347/347/347
usemtl dd_bd013_part_2_material_1
f 280/280/280 281/281/281 282/282/282
f 282/282/282 283/283/283 280/280/280
f 281/281/281 284/284/284 285/285/285
f 285/285/285 282/282/282 281/281/281
f 284/284/284 286/286/286 287/287/287
f 287/287/287 285/285/285 284/284/284
f 286/286/286 288/288/288 289/289/289
f 289/289/289 287/287/287 286/286/286
f 288/288/288 290/290/290 291/291/291
f 291/291/291 289/289/289 288/288/288
f 290/290/290 292/292/292 293/293/293
f 293/293/293 291/291/291 290/290/290
f 294/294/294 295/295/295 296/296/296
f 296/296/296 297/297/297 294/294/294
f 295/295/295 298/298/298 299/299/299
f 299/299/299 296/296/296 295/295/295
f 298/298/298 300/300/300 301/301/301
f 301/301/301 299/299/299 298/298/298
f 300/300/300 302/302/302 303/303/303
f 303/303/303 301/301/301 300/300/300
f 302/302/302 280/280/280 283/283/283
f 283/283/283 303/303/303 302/302/302
usemtl dd_bd013_part_2_material_2
f 328/328/328 329/329/329 330/330/330
f 330/330/330 331/331/331 332/332/332
f 328/328/328 330/330/330 332/332/332
f 328/328/328 332/332/332 333/333/333
f 328/328/328 333/333/333 334/334/334
f 335/335/335 336/336/336 337/337/337
f 337/337/337 338/338/338 335/335/335
f 343/343/343 344/344/344 345/345/345
f 345/345/345 346/346/346 343/343/343
f 349/349/349 350/350/350 351/351/351
f 351/351/351 352/352/352 353/353/353
f 349/349/349 351/351/351 353/353/353
f 354/354/354 355/355/355 356/356/356
f 356/356/356 357/357/357 354/354/354
o dd_bd013_part_3
v -2.403473 1.66948533 0.433494568
v -2.403473 1.66948533 -0.723926544
v -3.60990143 1.66948533 -0.723926544
v -3.60990143 1.66948533 0.433494568
v -3.60990143 1.66948533 0.433494568
v -3.60990143 1.66948533 -0.723926544
v -3.60990143 1.36836481 -0.723926544
v -3.60990143 1.36836481 0.433494568
v -2.403473 1.66948533 0.433494568
v -3.60990143 1.66948533 0.433494568
v -3.60990143 1.36836481 0.433494568
v -2.403473 1.36836481 0.433494568
v -2.403473 1.66948533 -0.723926544
v -2.403473 1.66948533 0.433494568
v -2.403473 1.36836481 0.433494568
v -2.403473 1.36836481 -0.723926544
v -3.60990143 1.66948533 -0.723926544
v -2.403473 1.66948533 -0.723926544
v -2.403473 1.36836481 -0.723926544
v -3.60990143 1.36836481 -0.723926544
v -3.50246429 1.3660109 -0.6208534
v -3.50246429 0.4111195 -0.6208534
v -3.50246429 0.4111195 0.330425262
v -3.50246429 1.3660109 0.330425262
v -3.50246429 1.3660109 0.330425262
v -3.50246429 0.4111195 0.330425262
v -2.51091 0.4111195 0.330425262
v -2.51091 1.3660109 0.330425262
v -2.51091 1.3660109 0.330425262
v -2.51091 0.4111195 0.330425262
v -2.51091 0.4111195 -0.6208534
v -2.51091 1.3660109 -0.6208534
v -2.51091 1.3660109 -0.6208534
v -2.51091 0.4111195 -0.6208534
v -3.50246429 0.4111195 -0.6208534
v -3.50246429 1.3660109 -0.6208534
v -3.62869263 0.336766243 -0.741951
v -3.62869263 0.336766243 0.451519
v -3.50246429 0.4111195 0.330425262
v -3.50246429 0.4111195 -0.6208534
v -3.62869263 0.336766243 0.451519
v -2.38468933 0.336766243 0.451519
v -2.51091 0.4111195 0.330425262
v -3.50246429 0.4111195 0.330425262
v -2.38468933 0.336766243 0.451519
v -2.38468933 0.336766243 -0.741951
v -2.51091 0.4111195 -0.6208534
v -2.51091 0.4111195 0.330425262
v -2.38468933 0.336766243 -0.741951
v -3.62869263 0.336766243 -0.741951
v -3.50246429 0.4111195 -0.6208534
v -2.51091 0.4111195 -0.6208534
v -3.62869263 -0.03254366 -0.741951
v -3.62869263 -0.03254366 0.451519
v -3.62869263 0.336766243 0.451519
v -3.62869263 0.336766243 -0.741951
v -3.62869263 -0.03254366 0.451519
v -2.38468933 -0.03254366 0.451519
v -2.38468933 0.336766243 0.451519
v -3.62869263 0.336766243 0.451519
v -2.38468933 -0.03254366 0.451519
v -2.38468933 -0.03254366 -0.741951
v -2.38468933 0.336766243 -0.741951
v -2.38468933 0.336766243 0.451519
v -2.38468933 -0.03254366 -0.741951
v -3.62869263 -0.03254366 -0.741951
v -3.62869263 0.336766243 -0.741951
v -2.38468933 0.336766243 -0.741951
v -2.61363983 1.65058327 0.0034828186
v -2.62981415 1.65058327 -0.316082
v -2.62981415 4.64845657 -0.316082
v -2.61363983 4.64845657 0.0034828186
v -2.86722565 1.65058327 -0.5306053
v -2.86722565 4.64845657 -0.5306053
v -3.18678284 1.65058327 -0.514431
v -3.18678284 4.64845657 -0.514431
v -3.40131378 1.65058327 -0.27702713
v -3.40131378 4.64845657 -0.27702713
v -3.38513184 1.65058327 0.04253769
v -3.38513184 4.64845657 0.04253769
v -3.147728 1.65058327 0.257068634
v -3.147728 4.64845657 0.257068634
v -2.82816315 1.65058327 0.240886688
v -2.82816315 4.64845657 0.240886688
v -2.55841827 5.16669035 0.503826141
v -2.48571014 5.16669 -1.23490143
v -3.264862 5.16669 -1.30901337
v -3.66436768 5.16669 -0.848567963
v -3.631256 5.16669035 0.4589653
v -3.631256 4.556084 0.4589653
v -2.55841827 4.556084 0.503826141
v -2.55841827 5.16669035 0.503826141
v -3.631256 5.16669035 0.4589653
v -2.55841827 4.556084 0.503826141
v -2.48571014 4.55608463 -1.23490143
v -2.48571014 5.16669 -1.23490143
v -2.55841827 5.16669035 0.503826141
v -3.66436768 5.16669 -0.848567963
v -3.66436768 4.55608463 -0.848567963
v -3.631256 4.556084 0.4589653
v -3.631256 5.16669035 0.4589653
v -2.66546631 -0.1617117 4.67120743
v -2.66546631 1.31111574 4.67120743
v -3.38330841 1.31111574 3.9533577
v -3.38330841 -0.1617117 3.9533577
v -3.264862 5.16669 -1.30901337
v -3.264862 4.55608463 -1.30901337
v -2.48571014 4.55608463 -1.23490143
v -3.264862 4.55608463 -1.30901337
v -3.264862 5.16669 -1.30901337
v -2.48571014 5.16669 -1.23490143
v -2.66546631 1.31111574 4.67120743
v -2.566585 1.31111562 4.77008772
v -2.591769 1.31111574 3.16181731
v -3.38330841 1.31111574 3.9533577
v -3.38330841 -0.1617117 3.9533577
v -3.38330841 1.31111574 3.9533577
v -2.591769 1.31111574 3.16181731
v -2.59176874 -0.161711574 3.161817
vt 0.9666735 0.5745987
vt 0.9666735 0.3956973
vt 0.7421361 0.3956973
vt 0.7421361 0.5745987
vt 0.742122 0.39745307
vt 0.966015 0.39745307
vt 0.966015 0.337116361
vt 0.742122 0.337116361
vt 0.7417736 0.39745307
vt 0.966015 0.39745307
vt 0.966015 0.337536454
vt 0.7417736 0.337536454
vt 0.742122 0.39745307
vt 0.966015 0.39745307
vt 0.966015 0.337116361
vt 0.742122 0.337116361
vt 0.742122 0.393008351
vt 0.966015 0.393008351
vt 0.966015 0.337116361
vt 0.742122 0.337116361
vt 0.9553794 0.332008481
vt 0.9553794 0.131730437
vt 0.7534343 0.131730437
vt 0.7534343 0.332008481
vt 0.7523528 0.332008481
vt 0.7523528 0.131730437
vt 0.9542979 0.131730437
vt 0.9542979 0.332008481
vt 0.7523528 0.332008481
vt 0.7523528 0.131730437
vt 0.9542979 0.131730437
vt 0.9542979 0.332008481
vt 0.7523528 0.332008481
vt 0.7523528 0.131730437
vt 0.9542979 0.131730437
vt 0.9542979 0.332008481
vt 0.980537653 0.10739094
vt 0.727176249 0.10739094
vt 0.7534343 0.131730437
vt 0.9553794 0.131730437
vt 0.727194548 0.10739094
vt 0.980555952 0.10739094
vt 0.9542979 0.131730437
vt 0.7523528 0.131730437
vt 0.727194548 0.10739094
vt 0.980555952 0.10739094
vt 0.9542979 0.131730437
vt 0.7523528 0.131730437
vt 0.727194548 0.10739094
vt 0.980555952 0.10739094
vt 0.9542979 0.131730437
vt 0.7523528 0.131730437
vt 0.980555952 0.0309687853
vt 0.7271947 0.0309687853
vt 0.7271947 0.10739094
vt 0.980555952 0.10739094
vt 0.727176249 0.0309687853
vt 0.9805375 0.0309687853
vt 0.9805375 0.10739094
vt 0.727176249 0.10739094
vt 0.727176249 0.0309687853
vt 0.9805375 0.0309687853
vt 0.9805375 0.10739094
vt 0.727176249 0.10739094
vt 0.727176249 0.0309687853
vt 0.9805375 0.0309687853
vt 0.9805375 0.10739094
vt 0.727176249 0.10739094
vt 0.0681774 0.396836638
vt 0.00529168732 0.396836638
vt 0.00529168732 0.991297364
vt 0.0681774 0.991297364
vt 0.0681774 0.396836638
vt 0.0681774 0.991297364
vt 0.131102681 0.396836638
vt 0.131102681 0.991297364
vt 0.193988532 0.396836638
vt 0.193988532 0.991297364
vt 0.256873846 0.396836638
vt 0.256873846 0.9912975
vt 0.193988532 0.396836638
vt 0.193988532 0.991297364
vt 0.131102681 0.396836638
vt 0.131102681 0.991297364
vt 0.893273234 0.9838524
vt 0.883754134 0.5868793
vt 0.6959491 0.581476867
vt 0.6073746 0.6922015
vt 0.63556397 0.9894347
vt 0.722057 0.245769024
vt 0.4387372 0.245769024
vt 0.4387372 0.406880438
vt 0.722057 0.406880438
vt 0.3181623 0.2455138
vt 0.655649841 0.2455138
vt 0.655649841 0.4066252
vt 0.3181623 0.4066252
vt 0.3183746 0.406756043
vt 0.3183746 0.245644629
vt 0.722249746 0.245644629
vt 0.722249746 0.406756043
vt 0.190056086 0.352932453
vt 0.190056086 0.6248262
vt 0.00547606638 0.6248262
vt 0.00547606638 0.352932453
vt 0.449199378 0.406756043
vt 0.449199378 0.245644629
vt 0.6557387 0.24548161
vt 0.449228674 0.245481551
vt 0.449228674 0.406592965
vt 0.6557387 0.406592965
vt 0.00717098452 0.8018754
vt 0.007170986 0.7764502
vt 0.210699618 0.9864554
vt 0.00717097148 0.9864553
vt 0.004225135 0.3565058
vt 0.004225135 0.6242925
vt 0.207753778 0.6242925
vt 0.207753822 0.3565058
vn 0 1 0
vn 0 1 0
vn 0 1 0
vn 0 1 0
vn -1 0 0
vn -1 0 0
vn -1 0 0
vn -1 0 0
vn 0 0 1
vn 0 0 1
vn 0 0 1
vn 0 0 1
vn 1 0 0
vn 1 0 0
vn 1 0 0
vn 1 0 0
vn 0 0 -1
vn 0 0 -1
vn 0 0 -1
vn 0 0 -1
vn -1 0 0
vn -1 0 0
vn -1 0 0
vn -1 0 0
vn 0 0 1
vn 0 0 1
vn 0 0 1
vn 0 0 1
vn 1 0 0
vn 1 0 0
vn 1 0 0
vn 1 0 0
vn 0 0 -1
vn 0 0 -1
vn 0 0 -1
vn 0 0 -1
vn -0.507533669 0.86163193 0
vn -0.507533669 0.86163193 0
vn -0.507533669 0.86163193 0
vn -0.507533669 0.86163193 0
vn 0 0.8521793 0.5232499
vn 0 0.8521793 0.5232499
vn 0 0.8521793 0.5232499
vn 0 0.8521793 0.5232499
vn 0.507556438 0.8616185 0
vn 0.507556438 0.8616185 0
vn 0.507556438 0.8616185 0
vn 0.507556438 0.8616185 0
vn 0 0.8521866 -0.523237944
vn 0 0.8521866 -0.523237944
vn 0 0.8521866 -0.523237944
vn 0 0.8521866 -0.523237944
vn -1 0 0
vn -1 0 0
vn -1 0 0
vn -1 0 0
vn 0 0 1
vn 0 0 1
vn 0 0 1
vn 0 0 1
vn 1 0 0
vn 1 0 0
vn 1 0 0
vn 1 0 0
vn 0 0 -1
vn 0 0 -1
vn 0 0 -1
vn 0 0 -1
vn 0.9420452 0 0.335485965
vn 0.9033475 0 -0.4289094
vn 0.903347552 0 -0.428909332
vn 0.9420452 0 0.335486
vn 0.3354779 0 -0.9420481
vn 0.3354779 0 -0.9420481
vn -0.428894758 0 -0.903354466
vn -0.428894758 0 -0.903354466
vn -0.9420462 0 -0.335483044
vn -0.9420462 0 -0.335483134
vn -0.903349638 0 0.428904921
vn -0.903349638 0 0.4289049
vn -0.335483044 0 0.9420462
vn -0.335483134 0 0.9420462
vn 0.428912967 0 0.9033458
vn 0.4289129 0 0.9033458
vn -2.67694844E-08 1 -3.04201535E-07
vn 2.59824784E-08 1 -2.73158378E-07
vn -9.063427E-08 1 -2.27714125E-07
vn -1.47497E-07 1 -2.31968585E-07
vn 1.5265492E-08 1 -3.65071116E-07
vn -0.0417786054 0 0.9991269
vn -0.0417786054 0 0.9991269
vn -0.0417786054 0 0.9991269
vn -0.0417786054 0 0.9991269
vn 0.9991268 0 0.04178035
vn 0.9991268 0 0.04178035
vn 0.9991268 0 0.04178035
vn 0.9991268 0 0.0417803526
vn -0.941188037 0 -0.337883174
vn -0.941188037 0 -0.337883174
vn -0.9996795 0 0.0253155772
vn -0.9996795 0 0.025315579
vn -0.7071105 0 0.707103
vn -0.7071105 0 0.707103
vn -0.7071105 0 0.707103
vn -0.7071105 0 0.707103
vn -0.7553212 0 -0.655354738
vn -0.7553212 0 -0.655354738
vn 0.09469132 0 -0.9955067
vn 0.0946913362 0 -0.9955067
vn 0.09469132 0 -0.9955067
vn 0.0946913362 0 -0.9955067
vn 8.44243743E-07 1 4.12209573E-08
vn 1.1494576E-06 1 5.61233E-08
vn 9.247379E-08 1 4.51511628E-09
vn 0 1 0
vn -0.7071072 -8.085251E-14 -0.707106352
vn -0.7071072 0 -0.707106352
vn -0.7071072 -5.705898E-14 -0.707106352
vn -0.7071072 -1.37911492E-13 -0.707106352
usemtl dd_bd013_part_3_material_0
f 358/358/358 359/359/359 360/360/360
f 360/360/360 361/361/361 358/358/358
f 362/362/362 363/363/363 364/364/364
f 364/364/364 365/365/365 362/362/362
f 366/366/366 367/367/367 368/368/368
f 368/368/368 369/369/369 366/366/366
f 370/370/370 371/371/371 372/372/372
f 372/372/372 373/373/373 370/370/370
f 374/374/374 375/375/375 376/376/376
f 376/376/376 377/377/377 374/374/374
f 378/378/378 379/379/379 380/380/380
f 380/380/380 381/381/381 378/378/378
f 382/382/382 383/383/383 384/384/384
f 384/384/384 385/385/385 382/382/382
f 386/386/386 387/387/387 388/388/388
f 388/388/388 389/389/389 386/386/386
f 390/390/390 391/391/391 392/392/392
f 392/392/392 393/393/393 390/390/390
f 394/394/394 395/395/395 396/396/396
f 396/396/396 397/397/397 394/394/394
f 398/398/398 399/399/399 400/400/400
f 400/400/400 401/401/401 398/398/398
f 402/402/402 403/403/403 404/404/404
f 404/404/404 405/405/405 402/402/402
f 406/406/406 407/407/407 408/408/408
f 408/408/408 409/409/409 406/406/406
f 410/410/410 411/411/411 412/412/412
f 412/412/412 413/413/413 410/410/410
f 414/414/414 415/415/415 416/416/416
f 416/416/416 417/417/417 414/414/414
f 418/418/418 419/419/419 420/420/420
f 420/420/420 421/421/421 418/418/418
f 422/422/422 423/423/423 424/424/424
f 424/424/424 425/425/425 422/422/422
f 426/426/426 427/427/427 428/428/428
f 428/428/428 429/429/429 426/426/426
f 427/427/427 430/430/430 431/431/431
f 431/431/431 428/428/428 427/427/427
f 430/430/430 432/432/432 433/433/433
f 433/433/433 431/431/431 430/430/430
f 432/432/432 434/434/434 435/435/435
f 435/435/435 433/433/433 432/432/432
f 434/434/434 436/436/436 437/437/437
f 437/437/437 435/435/435 434/434/434
f 436/436/436 438/438/438 439/439/439
f 439/439/439 437/437/437 436/436/436
f 438/438/438 440/440/440 441/441/441
f 441/441/441 439/439/439 438/438/438
f 440/440/440 426/426/426 429/429/429
f 429/429/429 441/441/441 440/440/440
f 442/442/442 443/443/443 444/444/444
f 442/442/442 444/444/444 445/445/445
f 442/442/442 445/445/445 446/446/446
f 447/447/447 448/448/448 449/449/449
f 449/449/449 450/450/450 447/447/447
f 451/451/451 452/452/452 453/453/453
f 453/453/453 454/454/454 451/451/451
f 455/455/455 456/456/456 457/457/457
f 457/457/457 458/458/458 455/455/455
f 463/463/463 464/464/464 456/456/456
f 456/456/456 455/455/455 463/463/463
f 465/465/465 466/466/466 467/467/467
f 467/467/467 468/468/468 465/465/465
usemtl dd_bd013_part_3_material_1
f 459/459/459 460/460/460 461/461/461
f 461/461/461 462/462/462 459/459/459
f 469/469/469 470/470/470 471/471/471
f 471/471/471 472/472/472 469/469/469
f 473/473/473 474/474/474 475/475/475
f 475/475/475 476/476/476 473/473/473
