mtllib lt-bd025-02.mtl
o lt-bd025-02_part_0
v -4.13320875 6.305106 -0.14574413
v -4.13321638 6.305106 -0.08712703
v -4.133209 6.305106 -0.0225225426
v -0.0795414448 6.305106 -0.0352488272
v -0.0795414448 6.305106 -0.134188
v -0.8300297 6.267638 0.141398445
v -0.456263065 5.804455 -0.678718
v -0.456263781 5.804455 -1.85034931
v -0.8300295 6.26763868 -1.85034931
v -0.456263781 5.804455 -1.85034931
v -1.24756753 5.804455 -1.85034931
v -0.8738005 6.26763868 -1.85034931
v -0.8300295 6.26763868 -1.85034931
v -1.24756753 5.03423357 -1.85034931
v -0.456263781 5.03423357 -1.85034931
v -0.8300297 6.267638 0.141398445
v -0.8300295 6.26763868 -1.85034931
v -0.8738005 6.26763868 -1.85034931
v -0.873800755 6.267638 0.141398549
v -1.24756753 5.03423357 -1.85034931
v -1.24756694 5.03423357 -0.6787179
v -1.24756694 5.804455 -0.6787179
v -1.24756753 5.804455 -1.85034931
v -0.456263065 5.804455 -0.678718
v -0.456263542 5.03423357 -0.678718
v -0.456263781 5.03423357 -1.85034931
v -0.456263781 5.804455 -1.85034931
v -0.873800755 6.267638 0.141398549
v -0.8738005 6.26763868 -1.85034931
v -1.24756753 5.804455 -1.85034931
v -1.24756694 5.804455 -0.6787179
v -0.873800039 6.267638 -0.160527483
v -1.2475667 5.804455 0.659588933
v -1.24756622 5.804455 1.83122039
v -0.8738005 6.26763868 1.83122027
v -1.24756622 5.804455 1.83122039
v -0.4562626 5.804455 1.83122015
v -0.8300295 6.26763868 1.83122027
v -0.8738005 6.26763868 1.83122027
v -0.4562626 5.03423357 1.83122015
v -1.24756622 5.03423357 1.83122039
v -0.873800039 6.267638 -0.160527483
v -0.8738005 6.26763868 1.83122027
v -0.8300295 6.26763868 1.83122027
v -0.8300288 6.267638 -0.160527483
v -0.4562626 5.03423357 1.83122015
v -0.456263065 5.03423357 0.659588933
v -0.456263065 5.804455 0.659588933
v -0.4562626 5.804455 1.83122015
v -1.2475667 5.804455 0.659588933
v -1.24756622 5.03423357 0.659588933
v -1.24756622 5.03423357 1.83122039
v -1.24756622 5.804455 1.83122039
v -0.8300288 6.267638 -0.160527483
v -0.8300295 6.26763868 1.83122027
v -0.4562626 5.804455 1.83122015
v -0.456263065 5.804455 0.659588933
v -4.13807535 4.715871 -0.08712953
v -4.13808 0.0246434212 -0.08712929
v -4.138082 0.0246434212 1.691011
v -4.13807774 4.71587133 1.69101083
v -4.34664345 4.832766 2.04045486
v -4.40609741 5.00126 2.110007
v -4.4060955 5.00126 -0.08712813
v -4.34664154 4.83276558 -0.08712805
v -4.40609741 5.00126 2.110007
v -4.14447546 5.11170626 1.88648736
v -4.14470339 5.11158848 -0.08712738
v -4.4060955 5.00126 -0.08712813
v -4.13807344 4.71587038 -1.87783194
v -4.13807774 0.0246429443 -1.8778317
v -4.406094 5.00125933 -2.11001062
v -4.34664 4.83276558 -2.012594
v -4.14446974 5.111707 -1.87782991
v -4.406094 5.00125933 -2.11001062
v -4.133209 6.305106 -0.0225225426
v -4.13321638 6.305106 -0.08712703
v -4.14470339 5.11158848 -0.08712738
v -4.14447546 5.11170626 1.88648736
v -4.13320875 6.305106 -0.14574413
v -4.14446974 5.111707 -1.87782991
v -4.13807774 4.71587133 1.69101083
v -4.138082 0.0246434212 1.691011
v -0.721071243 0.0246434212 1.69101691
v -0.721071243 4.71585941 1.69101655
v -4.13807344 4.71587038 -1.87783194
v -0.721071243 4.71585941 -1.87782609
v -0.721071243 0.0246434212 -1.87782609
v -4.13807774 0.0246429443 -1.8778317
v -0.07954121 4.997426 2.11001062
v -4.40609741 5.00126 2.110007
v -4.34664345 4.832766 2.04045486
v -0.07954121 4.836077 2.04045844
v -0.0795414448 5.10316 1.88649082
v -4.14447546 5.11170626 1.88648736
v -4.40609741 5.00126 2.110007
v -0.07954121 4.997426 2.11001062
v -0.08898997 4.836077 -2.01259065
v -4.34664 4.83276558 -2.012594
v -4.406094 5.00125933 -2.11001062
v -0.07954121 4.99742556 -2.110007
v -0.07954121 4.99742556 -2.110007
v -4.406094 5.00125933 -2.11001062
v -4.14446974 5.111707 -1.87782991
v -0.07954168 5.10316 -1.877826
v -0.07954168 5.10316 -1.877826
v -4.14446974 5.111707 -1.87782991
v -4.13320875 6.305106 -0.14574413
v -0.0795414448 6.305106 -0.134188
v -2.45136642 3.19936538 -1.97311449
v -2.45136642 4.45250463 -1.97311532
v -1.26884747 4.45250463 -1.97311616
v -1.26884747 3.19936538 -1.97311449
v -0.0795414448 6.305106 -0.0352488272
v -4.133209 6.305106 -0.0225225426
v -4.14447546 5.11170626 1.88648736
v -0.0795414448 5.10316 1.88649082
vt 0.00241591735 0.9535368
vt 0.0024156298 0.9761054
vt 0.00241589826 1.0009793
vt 0.9943419 0.996079743
vt 0.9943419 0.9579866
vt 0.753852248 0.904917955
vt 0.463345468 0.6777499
vt 0.0161606018 0.6777486
vt 0.0161602441 0.9049171
vt 0.9891112 0.846428037
vt 0.7641137 0.853443563
vt 0.868256 0.9711305
vt 0.8807018 0.9707424
vt 0.764151454 0.639709353
vt 0.989052534 0.639710963
vt 0.00586234033 0.9921293
vt 0.996865 0.992345452
vt 0.9969602 0.965078354
vt 0.006302193 0.9650764
vt 0.997550547 0.408046365
vt 0.6842454 0.408046365
vt 0.6842454 0.6331828
vt 0.997550547 0.6331828
vt 0.6842454 0.6331828
vt 0.6842454 0.408046365
vt 0.997550547 0.408046365
vt 0.997550547 0.6331828
vt 0.7538524 0.9049167
vt 0.0161605421 0.9049179
vt 0.0161602441 0.6777494
vt 0.463345319 0.6777486
vt 0.753852248 0.904917955
vt 0.463345468 0.6777499
vt 0.0161606018 0.6777486
vt 0.0161602441 0.9049171
vt 0.9891112 0.846428037
vt 0.7641137 0.853443563
vt 0.8682561 0.9711305
vt 0.8807019 0.9707424
vt 0.764151454 0.639709353
vt 0.989052534 0.639710963
vt 0.00586234033 0.9921293
vt 0.996865 0.992345452
vt 0.9969602 0.965078354
vt 0.006302193 0.9650764
vt 0.997550547 0.408046365
vt 0.6842454 0.408046365
vt 0.6842454 0.6331828
vt 0.997550547 0.6331828
vt 0.6842454 0.6331828
vt 0.6842454 0.408046365
vt 0.997550547 0.408046365
vt 0.997550547 0.6331828
vt 0.7538524 0.9049167
vt 0.0161605421 0.9049179
vt 0.0161602441 0.6777494
vt 0.463345319 0.6777486
vt 0.5100587 0.9974726
vt 0.510058761 -0.00152826309
vt 0.000499665737 -0.00152826309
vt 0.0004995326 0.997472644
vt 0.9409608 0.995604634
vt 0.95949626 0.9400085
vt 0.5571429 0.9400079
vt 0.5571429 0.9956041
vt 0.9477326 0.943416
vt 0.906028032 0.99825716
vt 0.554646969 0.99825716
vt 0.554646969 0.943416
vt 0.000184834 0.9974726
vt 0.000184893608 -0.00152826309
vt 0.132486433 0.9400073
vt 0.155655518 0.9956037
vt 0.06743368 0.99825716
vt 0.0187785551 0.943416
vt 0.470834136 0.939460039
vt 0.4867375 0.939461
vt 0.4867376 0.6339505
vt 0.0009032488 0.6339507
vt 0.470770657 0.939460039
vt -0.001035098 0.633950233
vt 0.7734651 0.9951924
vt 0.7734651 0.00643157959
vt 0.004526362 0.00643157959
vt 0.004526362 0.9951924
vt 0.004526362 0.9951924
vt 0.7734651 0.9951924
vt 0.7734651 0.00643157959
vt 0.004526362 0.00643157959
vt 0.9399359 0.9552658
vt 0.0219378546 0.9552659
vt 0.03662671 0.9989029
vt 0.9399359 0.9989018
vt 0.9155437 0.998219669
vt 0.105283946 0.998219669
vt 0.0513484329 0.9434641
vt 0.9155437 0.9434641
vt 0.935880959 0.998907566
vt 0.0366277955 0.9989064
vt 0.0219389424 0.9546194
vt 0.9399359 0.9546195
vt 0.9155437 0.9434326
vt 0.0513495021 0.9434326
vt 0.105284117 0.9982138
vt 0.9155437 0.9982138
vt 0.00220662355 0.428206146
vt 0.9943743 0.428206146
vt 0.9943094 0.957071841
vt 0.00220662355 0.957089365
vt 0.99773407 0.005876541
vt 0.99773407 0.339606166
vt 0.7010571 0.339606166
vt 0.7010571 0.005876541
vt 0.00220662355 0.957240045
vt 0.9943094 0.9572595
vt 0.994374335 0.428296626
vt 0.00220662355 0.428296566
vn 0 1 0
vn 0 1 0
vn 0 1 0
vn 0 1 0
vn 0 1 0
vn 0.778223157 0.627987862 -1.15794023E-07
vn 0.7782224 0.627988756 -4.75088029E-07
vn 0.778223157 0.627987862 -1.15794023E-07
vn 0.7782239 0.6279869 2.43499983E-07
vn 0 0 -1
vn 0 0 -1
vn 0 0 -1
vn 0 0 -1
vn 0 0 -1
vn 0 0 -1
vn 1.630043E-13 1 2.394064E-07
vn -1.63004321E-13 1 2.394064E-07
vn 1.630043E-13 1 2.394064E-07
vn 4.890129E-13 1 2.39406376E-07
vn -1 -3.93689428E-14 5.08732057E-07
vn -1 -3.93689428E-14 5.08732057E-07
vn -1 -3.93689428E-14 5.08732057E-07
vn -1 -3.93689428E-14 5.08732057E-07
vn 1 -3.09545584E-07 -4.06985663E-07
vn 1 -6.19091168E-07 -2.03492831E-07
vn 1 -3.09545584E-07 -4.06985663E-07
vn 1 0 -6.104785E-07
vn -0.7782232 0.627987742 2.26547954E-07
vn -0.778222859 0.6279882 5.7188636E-08
vn -0.7782232 0.627987742 2.26547954E-07
vn -0.7782236 0.6279873 3.95907279E-07
vn -0.7782233 0.627987742 -9.965234E-09
vn -0.778222561 0.6279886 3.167254E-07
vn -0.7782233 0.627987742 -9.965234E-09
vn -0.778223932 0.6279869 -3.36655859E-07
vn 2.25973849E-07 6.078331E-08 1
vn 3.01298485E-07 -7.118007E-09 1
vn 1.50649242E-07 1.21566615E-07 1
vn 0 2.57369237E-07 1
vn 3.01298456E-07 0 1
vn 3.01298456E-07 0 1
vn 0 1 -2.394064E-07
vn 0 1 -2.394064E-07
vn 0 1 -2.394064E-07
vn 0 1 -2.394064E-07
vn 1 0 -4.0698572E-07
vn 1 0 -4.0698572E-07
vn 1 0 -4.0698572E-07
vn 1 0 -4.0698572E-07
vn -1 -3.09545584E-07 2.034928E-07
vn -1 -6.19091168E-07 0
vn -1 -3.09545584E-07 2.034928E-07
vn -1 0 4.069856E-07
vn 0.7782234 0.6279875 -9.380152E-08
vn 0.7782229 0.6279881 1.29122952E-07
vn 0.7782234 0.6279875 -9.380152E-08
vn 0.7782239 0.627986968 -3.16726E-07
vn -1 9.825627E-07 -1.15954538E-06
vn -1 9.825627E-07 -1.15641012E-06
vn -1 9.65622E-07 -1.206748E-06
vn -1 9.147998E-07 -1.34083132E-06
vn -0.9430159 -0.3327478 -7.94731761E-07
vn -0.943015754 -0.332748055 -8.186386E-07
vn -0.9430159 -0.3327477 -7.259651E-07
vn -0.9430158 -0.332747936 -6.866212E-07
vn -0.3888964 0.9212815 -5.19949E-06
vn -0.388931066 0.921266854 -1.00614061E-05
vn -0.3888848 0.9212864 -1.70033072E-08
vn -0.3888827 0.9212873 3.17273339E-06
vn -1 9.656221E-07 -1.19828269E-06
vn -1 9.147998E-07 -1.3314251E-06
vn -0.943015754 -0.332748145 -6.445195E-07
vn -0.9430155 -0.332748741 -7.00606847E-07
vn -0.3888932 0.9212828 4.92788649E-06
vn -0.3889247 0.921269536 -4.92197046E-07
vn -0.9999537 0.009623937 0.000112807946
vn -0.9999537 0.009624051 -9.72128E-06
vn -0.9999537 0.009623999 -8.592502E-06
vn -0.9999537 0.009623824 0.000114908005
vn -0.9999537 0.009624059 -0.000129992957
vn -0.9999537 0.009624067 -0.000129835462
vn -1.70946441E-06 5.08231075E-08 1
vn -1.74435058E-06 2.54127031E-08 1
vn -1.70946441E-06 5.08231075E-08 1
vn -1.67457836E-06 7.623351E-08 1
vn 1.67457961E-06 -2.54118575E-08 -1
vn 1.70946771E-06 0 -1
vn 1.67457961E-06 -2.54118575E-08 -1
vn 1.6396915E-06 -5.0823715E-08 -1
vn -1.6276088E-05 -0.38876915 0.9213352
vn -0.0003389542 -0.381660521 0.9243025
vn -1.6276088E-05 -0.38876915 0.9213352
vn 0.000306403 -0.395854682 0.918313146
vn 0.00134172593 0.899845362 0.436206967
vn 0.00188267988 0.895646036 0.4447636
vn 0.00134172593 0.899845362 0.436206967
vn 0.0008006498 0.903962731 0.427610546
vn -3.3679964E-05 -0.5086568 -0.860969365
vn 0.0003899122 -0.5004236 -0.8657806
vn -3.3679964E-05 -0.5086568 -0.860969365
vn -0.000457269052 -0.5168437 -0.856079638
vn 0.00135716842 0.9064126 -0.422391236
vn 0.0008002253 0.902682662 -0.4303062
vn 0.00135716842 0.9064126 -0.422391236
vn 0.00191400724 0.910072863 -0.414443821
vn 0.00167500228 0.823398 -0.5674618
vn 0.00173203519 0.823460162 -0.5673714
vn 0.00167500228 0.823398 -0.5674618
vn 0.00161796925 0.8233359 -0.567552149
vn -3.528337E-07 -9.988495E-07 -1
vn -7.056674E-07 -6.658997E-07 -1
vn -3.528337E-07 -9.988495E-07 -1
vn 0 -1.33179935E-06 -1
vn 0.0017231314 0.847882867 0.5301808
vn 0.001664194 0.8479391 0.5300911
vn 0.0017231314 0.847882867 0.5301808
vn 0.00178206875 0.8478266 0.5302706
usemtl lt-bd025-02_part_0_material_0
f 58/58/58 59/59/59 60/60/60
f 60/60/60 61/61/61 58/58/58
f 70/70/70 71/71/71 59/59/59
f 59/59/59 58/58/58 70/70/70
f 82/82/82 83/83/83 84/84/84
f 84/84/84 85/85/85 82/82/82
f 86/86/86 87/87/87 88/88/88
f 88/88/88 89/89/89 86/86/86
usemtl lt-bd025-02_part_0_material_1
f 10/10/10 11/11/11 12/12/12
f 12/12/12 13/13/13 10/10/10
f 14/14/14 11/11/11 10/10/10
f 14/14/14 10/10/10 15/15/15
f 20/20/20 21/21/21 22/22/22
f 22/22/22 23/23/23 20/20/20
f 24/24/24 25/25/25 26/26/26
f 26/26/26 27/27/27 24/24/24
f 36/36/36 37/37/37 38/38/38
f 38/38/38 39/39/39 36/36/36
f 40/40/40 37/37/37 36/36/36
f 40/40/40 36/36/36 41/41/41
f 46/46/46 47/47/47 48/48/48
f 48/48/48 49/49/49 46/46/46
f 50/50/50 51/51/51 52/52/52
f 52/52/52 53/53/53 50/50/50
f 110/110/110 111/111/111 112/112/112
f 112/112/112 113/113/113 110/110/110
usemtl lt-bd025-02_part_0_material_2
f 1/1/1 2/2/2 3/3/3
f 3/3/3 4/4/4 5/5/5
f 1/1/1 3/3/3 5/5/5
f 6/6/6 7/7/7 8/8/8
f 8/8/8 9/9/9 6/6/6
f 16/16/16 17/17/17 18/18/18
f 18/18/18 19/19/19 16/16/16
f 28/28/28 29/29/29 30/30/30
f 30/30/30 31/31/31 28/28/28
f 32/32/32 33/33/33 34/34/34
f 34/34/34 35/35/35 32/32/32
f 42/42/42 43/43/43 44/44/44
f 44/44/44 45/45/45 42/42/42
f 54/54/54 55/55/55 56/56/56
f 56/56/56 57/57/57 54/54/54
f 62/62/62 63/63/63 64/64/64
f 64/64/64 65/65/65 62/62/62
f 66/66/66 67/67/67 68/68/68
f 68/68/68 69/69/69 66/66/66
f 65/65/65 64/64/64 72/72/72
f 72/72/72 73/73/73 65/65/65
f 69/69/69 68/68/68 74/74/74
f 74/74/74 75/75/75 69/69/69
f 90/90/90 91/91/91 92/92/92
f 92/92/92 93/93/93 90/90/90
f 94/94/94 95/95/95 96/96/96
f 96/96/96 97/97/97 94/94/94
f 98/98/98 99/99/99 100/100/100
f 100/100/100 101/101/101 98/98/98
f 102/102/102 103/103/103 104/104/104
f 104/104/104 105/105/105 102/102/102
f 106/106/106 107/107/107 108/108/108
f 108/108/108 109/109/109 106/106/106
f 114/114/114 115/115/115 116/116/116
f 116/116/116 117/117/117 114/114/114
usemtl lt-bd025-02_part_0_material_3
f 76/76/76 77/77/77 78/78/78
f 78/78/78 79/79/79 76/76/76
f 78/78/78 77/77/77 80/80/80
f 80/80/80 81/81/81 78/78/78
o lt-bd025-02_part_1
v 4.138082 0.0246434212 1.691011
v 4.13808 0.0246434212 -0.08712932
v 4.13807535 4.715871 -0.08712915
v 4.13807774 4.71587133 1.69101119
v 4.4060955 5.00126 -0.08712774
v 4.40609741 5.00126 2.11000752
v 4.34664345 4.832766 2.04045534
v 4.34664154 4.832766 -0.08712766
v 4.14470339 5.11158848 -0.08712697
v 4.144475 5.11170673 1.88648772
v 4.40609741 5.00126 2.11000752
v 4.4060955 5.00126 -0.08712774
v 4.13807774 0.0246434212 -1.8778317
v 4.13807344 4.715871 -1.87783158
v 4.406094 5.00126 -2.11001015
v 4.34664 4.83276558 -2.01259375
v 4.14446926 5.11170769 -1.87782955
v 4.406094 5.00126 -2.11001015
v 4.13320875 6.305106 -0.145743981
v -0.0795413256 6.305106 -0.134188
v -0.0795413256 6.305106 -0.0352488272
v 4.133209 6.305106 -0.0225216225
v 4.13321638 6.305106 -0.08712652
v 4.13320875 6.305106 -0.145743981
v 4.13321638 6.305106 -0.08712652
v 4.14470339 5.11158848 -0.08712697
v 4.14446926 5.11170769 -1.87782955
v -0.721071243 0.0246434212 1.69101691
v 4.138082 0.0246434212 1.691011
v 4.13807774 4.71587133 1.69101119
v -0.721071243 4.71585941 1.69101655
v -0.721071243 0.0246434212 -1.87782609
v -0.721071243 4.71585941 -1.87782609
v 4.13807344 4.715871 -1.87783158
v 4.13807774 0.0246434212 -1.8778317
v 4.34664345 4.832766 2.04045534
v 4.40609741 5.00126 2.11000752
v -0.07954121 4.997426 2.11001062
v -0.0795413256 4.836077 2.04045844
v 4.406094 5.00126 -2.11001015
v 4.34664 4.83276558 -2.01259375
v -0.08898997 4.836077 -2.01259065
v -0.07954121 4.99742556 -2.110007
v 4.14446926 5.11170769 -1.87782955
v 4.406094 5.00126 -2.11001015
v -0.07954121 4.99742556 -2.110007
v -0.07954168 5.10316 -1.877826
v -0.079541564 5.10316 1.88649082
v 4.144475 5.11170673 1.88648772
v 4.133209 6.305106 -0.0225216225
v -0.0795413256 6.305106 -0.0352488272
v 2.65113664 6.267638 0.141398326
v 3.02490354 5.804455 -0.6787181
v 3.02490282 5.804455 -1.85034955
v 2.651137 6.26763868 -1.85034943
v 3.02490282 5.804455 -1.85034955
v 2.233599 5.804455 -1.85034943
v 2.60736632 6.26763868 -1.85034943
v 2.651137 6.26763868 -1.85034943
v 2.233599 5.034234 -1.85034943
v 3.02490282 5.034234 -1.85034955
v 2.65113664 6.267638 0.141398326
v 2.651137 6.26763868 -1.85034943
v 2.60736632 6.26763868 -1.85034943
v 2.60736513 6.267638 0.141398311
v 2.233599 5.034234 -1.85034943
v 2.23359966 5.034234 -0.6787181
v 2.23359966 5.804455 -0.6787181
v 2.233599 5.804455 -1.85034943
v 3.02490354 5.804455 -0.6787181
v 3.024903 5.034234 -0.6787181
v 3.02490282 5.034234 -1.85034955
v 3.02490282 5.804455 -1.85034955
v 2.60736513 6.267638 0.141398311
v 2.60736632 6.26763868 -1.85034943
v 2.233599 5.804455 -1.85034943
v 2.23359966 5.804455 -0.6787181
v 2.60736632 6.267638 -0.160527483
v 2.23359919 5.804455 0.659589
v 2.2336 5.804455 1.83122027
v 2.60736561 6.26763868 1.83122015
v 2.2336 5.804455 1.83122027
v 3.02490377 5.804455 1.83122039
v 2.65113664 6.26763868 1.83122015
v 2.60736561 6.26763868 1.83122015
v 3.02490377 5.034234 1.83122039
v 2.2336 5.034234 1.83122027
v 2.60736632 6.267638 -0.160527483
v 2.60736561 6.26763868 1.83122015
v 2.65113664 6.26763868 1.83122015
v 2.65113735 6.267638 -0.160527483
v 3.02490377 5.034234 1.83122039
v 3.024903 5.034234 0.659588933
v 3.024903 5.804455 0.659588933
v 3.02490377 5.804455 1.83122039
v 2.23359919 5.804455 0.659589
v 2.23359966 5.034234 0.659589
v 2.2336 5.034234 1.83122027
v 2.2336 5.804455 1.83122027
v 2.65113735 6.267638 -0.160527483
v 2.65113664 6.26763868 1.83122015
v 3.02490377 5.804455 1.83122039
v 3.024903 5.804455 0.659588933
v 2.3165977 3.20040584 1.702812
v 2.3165977 4.48613358 1.70281279
v 1.10332632 4.48613358 1.70281351
v 1.10332632 3.20040584 1.702812
v 4.28851938 2.09942818 0.8244734
v 4.28851938 2.16514444 1.15539682
v 4.28851938 0.0789752 1.15539682
v 4.28851938 0.0789752 0.8244734
v 4.28851938 2.30153465 0.632458568
v 4.28851843 2.54425216 0.834828
v 4.28851938 2.16514444 1.15539682
v 4.28851938 2.09942818 0.8244734
v 4.28851938 2.48006964 0.3221453
v 4.28851938 2.76772475 0.433327049
v 4.28851938 2.52360439 -0.09313873
v 4.28851938 2.834489 -0.0931405
v 4.28851938 2.76772475 0.433327049
v 4.28851938 2.09942818 0.8244734
v 4.28851938 0.0789752 0.8244734
v 4.11357546 0.0789752 0.8244734
v 4.11357546 2.09942818 0.8244734
v 4.11357546 2.09942818 0.8244734
v 4.11357546 2.30153465 0.632458568
v 4.28851843 2.54425216 0.834828
v 4.28851938 2.76772475 0.433327049
v 4.11357546 2.76772475 0.433327049
v 4.11357546 2.54425216 0.834828
v 4.28851938 2.16514444 1.15539682
v 4.11357546 2.54425216 0.834828
v 4.11357546 2.16514444 1.15539682
v 4.28851938 0.0789752 1.15539682
v 4.28851938 2.16514444 1.15539682
v 4.11357546 2.16514444 1.15539682
v 4.11357546 0.0789752 1.15539682
v 4.11357546 2.76772475 0.433327049
v 4.28851938 2.834489 -0.0931405
v 4.11357546 2.834489 -0.0931405
v 4.28852034 0.0789752 -1.34167719
v 4.28852034 2.165144 -1.34167719
v 4.28852034 2.09942818 -1.01075387
v 4.28852034 0.07897568 -1.01075387
v 4.28852034 2.165144 -1.34167719
v 4.28851938 2.54425216 -1.02110493
v 4.28852034 2.30153465 -0.818739
v 4.28852034 2.09942818 -1.01075387
v 4.28852034 2.76772475 -0.619605839
v 4.28852034 2.48006964 -0.508425653
v 4.28851938 2.834489 -0.0931405
v 4.28851938 2.52360439 -0.09313873
v 4.28852034 2.76772475 -0.619605839
v 4.11357641 0.07897568 -1.01075387
v 4.28852034 0.07897568 -1.01075387
v 4.28852034 2.09942818 -1.01075387
v 4.11357641 2.09942818 -1.01075387
v 4.11357641 2.09942818 -1.01075387
v 4.11357641 2.30153465 -0.818739
v 4.11357641 2.76772475 -0.619605839
v 4.28852034 2.76772475 -0.619605839
v 4.28851938 2.54425216 -1.02110493
v 4.11357641 2.54425216 -1.02110493
v 4.11357641 2.54425216 -1.02110493
v 4.28852034 2.165144 -1.34167719
v 4.11357641 2.165144 -1.34167719
v 4.11357641 2.165144 -1.34167719
v 4.28852034 2.165144 -1.34167719
v 4.28852034 0.0789752 -1.34167719
v 4.11357641 0.0789752 -1.34167719
v 4.28851938 2.834489 -0.0931405
v 4.28852034 2.76772475 -0.619605839
v 4.11357641 2.76772475 -0.619605839
v 4.11357546 2.834489 -0.0931405
v 4.133209 6.305106 -0.0225216225
v 4.144475 5.11170673 1.88648772
v -0.0795413256 6.305106 -0.134188
v 4.13320875 6.305106 -0.145743981
v 4.14446926 5.11170769 -1.87782955
v -0.07954168 5.10316 -1.877826
v 4.40609741 5.00126 2.11000752
v 4.144475 5.11170673 1.88648772
v -0.079541564 5.10316 1.88649082
v -0.07954121 4.997426 2.11001062
vt 0.000499665737 -0.00152826309
vt 0.438921779 -0.00152826309
vt 0.4389217 0.9974726
vt 0.0004995326 0.997472644
vt 0.5506489 0.946489751
vt 0.951649964 0.9464903
vt 0.933177054 0.9987632
vt 0.5506489 0.9987627
vt 0.548161268 0.9985106
vt 0.898361564 0.9985106
vt 0.939926 0.943818
vt 0.548161268 0.943818
vt 0.000184893608 -0.00152826309
vt 0.000184834 0.9974726
vt 0.127419457 0.946489155
vt 0.1505107 0.9987623
vt 0.0625853539 0.9985106
vt 0.014093712 0.943818
vt 0.0284576118 0.9529438
vt 0.9448495 0.9560014
vt 0.9449058 0.995863
vt 0.02852775 0.9969973
vt 0.0284890421 0.9749626
vt 0.470770568 0.93946
vt 0.4867375 0.939460933
vt 0.4867376 0.6339505
vt -0.001035098 0.633950233
vt 0.0204971582 0.00643157959
vt 0.998881459 0.00643157959
vt 0.998881459 0.9951924
vt 0.0204971582 0.9951924
vt 0.998881459 0.00643157959
vt 0.998881459 0.9951924
vt 0.0204971582 0.9951924
vt 0.0204971582 0.00643157959
vt 1.126486 0.9992515
vt 1.126486 0.955401659
vt 0.3443603 0.955401659
vt 0.3443603 0.9992515
vt 0.8013104 0.955400765
vt 0.8013104 0.99925077
vt 1.42823541 0.99925077
vt 1.42823541 0.955400765
vt 0.123691708 0.9982103
vt 0.07769287 0.943610966
vt 0.92572093 0.943610966
vt 0.923969448 0.9982103
vt 0.00464522839 0.4336313
vt 1.001816 0.4336313
vt 0.9960009 0.9567933
vt 0.00217025448 0.9603462
vt 0.753852248 0.904917955
vt 0.463345468 0.6777499
vt 0.0161606018 0.6777486
vt 0.0161602441 0.9049171
vt 0.9891112 0.846428037
vt 0.7641137 0.853443563
vt 0.8682562 0.9711305
vt 0.8807019 0.9707424
vt 0.764151454 0.639709353
vt 0.989052534 0.639710963
vt 0.00586234033 0.9921293
vt 0.996865 0.992345452
vt 0.9969602 0.965078354
vt 0.006302193 0.9650764
vt 0.997550547 0.408046365
vt 0.6842454 0.408046365
vt 0.6842454 0.6331828
vt 0.997550547 0.6331828
vt 0.6842454 0.6331828
vt 0.6842454 0.408046365
vt 0.997550547 0.408046365
vt 0.997550547 0.6331828
vt 0.7538524 0.9049167
vt 0.0161605421 0.9049179
vt 0.0161602441 0.6777494
vt 0.463345319 0.6777486
vt 0.753852248 0.904917955
vt 0.463345468 0.6777499
vt 0.0161606018 0.6777486
vt 0.0161602441 0.9049171
vt 0.9891112 0.846428037
vt 0.7641137 0.853443563
vt 0.868256 0.9711305
vt 0.8807018 0.9707424
vt 0.764151454 0.639709353
vt 0.989052534 0.639710963
vt 0.00586234033 0.9921293
vt 0.996865 0.992345452
vt 0.9969602 0.965078354
vt 0.006302193 0.9650764
vt 0.997550547 0.408046365
vt 0.6842454 0.408046365
vt 0.6842454 0.6331828
vt 0.997550547 0.6331828
vt 0.6842454 0.6331828
vt 0.6842454 0.408046365
vt 0.997550547 0.408046365
vt 0.997550547 0.6331828
vt 0.7538524 0.9049167
vt 0.0161605421 0.9049179
vt 0.0161602441 0.6777494
vt 0.463345319 0.6777486
vt 0.99773407 0.005876541
vt 0.99773407 0.339606166
vt 0.7010571 0.339606166
vt 0.7010571 0.005876541
vt 0.219609782 0.407704473
vt 0.154091015 0.42217356
vt 0.154506415 0.00220423937
vt 0.219609782 0.00220423937
vt 0.2720061 0.4464723
vt 0.227146372 0.5028614
vt 0.157206461 0.42217356
vt 0.22687915 0.407704473
vt 0.344935358 0.493030965
vt 0.3188061 0.552820265
vt 0.447347939 0.536707938
vt 0.4308753 0.5982028
vt 0.317033559 0.54927516
vt 0.222829074 0.407704473
vt 0.222829074 0.00220423937
vt 0.190428466 0.00220423937
vt 0.190428466 0.407704473
vt 0.22687915 0.407704473
vt 0.272006124 0.4464723
vt 0.228498235 0.5028614
vt 0.316839755 0.5491334
vt 0.332750231 0.5196523
vt 0.2510168 0.476745725
vt 0.163324937 0.429031253
vt 0.250507772 0.476673
vt 0.197252646 0.414356947
vt 0.157206491 0.00220423937
vt 0.159171 0.4248773
vt 0.1984428 0.4166432
vt 0.197707251 0.00220423937
vt 0.3324548 0.5184706
vt 0.430353016 0.598278463
vt 0.441770643 0.5563823
vt 0.154506415 0.00220423937
vt 0.154091015 0.42217356
vt 0.219609782 0.407704473
vt 0.219609782 0.00220423937
vt 0.157206461 0.42217356
vt 0.227146372 0.5028614
vt 0.2720061 0.4464723
vt 0.22687915 0.407704473
vt 0.3188061 0.552820265
vt 0.344935358 0.493030965
vt 0.43023175 0.5980936
vt 0.443442881 0.5368486
vt 0.3160092 0.5514218
vt 0.220129013 0.00220423937
vt 0.179628268 0.00220423937
vt 0.179628268 0.407704473
vt 0.220129013 0.407704473
vt 0.22687915 0.407704473
vt 0.272006124 0.4464723
vt 0.332750231 0.5196523
vt 0.316839755 0.5491334
vt 0.228498235 0.5028614
vt 0.2510168 0.476745725
vt 0.250507772 0.476673
vt 0.163324937 0.429031253
vt 0.197252646 0.414356947
vt 0.197092772 0.4166432
vt 0.159171 0.4248773
vt 0.157206491 0.00220423937
vt 0.19635722 0.00220423937
vt 0.430277854 0.598278463
vt 0.3154413 0.5516507
vt 0.331911147 0.5190929
vt 0.439596027 0.555247843
vt 0.470834047 0.939460039
vt 0.0009032488 0.6339507
vt 0.00220662355 0.957089365
vt 0.9943094 0.957071841
vt 0.9943743 0.428206146
vt 0.00220662355 0.428206146
vt 0.07313684 0.9436418
vt 0.126407817 0.9982161
vt 0.92668575 0.9982161
vt 0.92668575 0.9436418
vn 1 9.656221E-07 -1.206748E-06
vn 1 9.825629E-07 -1.15640989E-06
vn 1 9.825629E-07 -1.15954526E-06
vn 1 9.147999E-07 -1.34083132E-06
vn 0.9430157 -0.3327483 -7.76968932E-07
vn 0.943015754 -0.332748055 -8.18638568E-07
vn 0.9430157 -0.3327482 -8.320195E-07
vn 0.943015754 -0.332748175 -7.10156939E-07
vn 0.3888851 0.9212863 -1.25728548E-08
vn 0.388932 0.9212665 -1.01898931E-05
vn 0.388896823 0.921281338 -5.26373333E-06
vn 0.388882577 0.921287358 3.29238037E-06
vn 1 9.14799955E-07 -1.331425E-06
vn 1 9.656221E-07 -1.19828246E-06
vn 0.943015754 -0.332748145 -6.425353E-07
vn 0.9430158 -0.332747847 -6.182028E-07
vn 0.388892978 0.921282947 5.10735754E-06
vn 0.388924241 0.9212697 -2.75033585E-07
vn 0 1 0
vn 0 1 0
vn 0 1 0
vn 0 1 0
vn 0 1 0
vn 0.9999537 0.009624053 -0.0001301244
vn 0.9999537 0.009624051 -9.721232E-06
vn 0.9999537 0.009623991 -8.598592E-06
vn 0.9999537 0.009624054 -0.000130099172
vn 1.16531487E-06 1.27062112E-08 1
vn 1.22664676E-06 -5.082109E-08 1
vn 1.16531487E-06 1.27062112E-08 1
vn 1.10398287E-06 7.623351E-08 1
vn -1.14078284E-06 1.27050264E-08 -1
vn -1.12851694E-06 0 -1
vn -1.14078284E-06 1.27050264E-08 -1
vn -1.15304886E-06 2.54100527E-08 -1
vn 1.56716851E-05 -0.388767332 0.921336
vn 0.000326831883 -0.381656855 0.924304
vn 1.56716851E-05 -0.388767332 0.921336
vn -0.000295489444 -0.395854682 0.918313146
vn 3.35059922E-05 -0.5086773 -0.860957265
vn -0.000374222058 -0.5004258 -0.86577934
vn 3.35059922E-05 -0.5086773 -0.860957265
vn 0.000441230979 -0.5168823 -0.8560564
vn -0.00130699854 0.9064187 -0.4223783
vn -0.0007719062 0.902695 -0.430280358
vn -0.00130699854 0.9064187 -0.4223783
vn -0.00184199063 0.910073 -0.41444388
vn -0.00165866513 0.847882867 0.530181
vn -0.00171532121 0.8479389 0.5300912
vn -0.00165866513 0.847882867 0.530181
vn -0.001602009 0.847826838 0.530270755
vn 0.778223038 0.627988 -6.9216E-08
vn 0.7782222 0.627989 -4.75087859E-07
vn 0.778223038 0.627988 -6.9216E-08
vn 0.7782239 0.6279869 3.36655859E-07
vn -1.12986896E-07 9.4734E-08 -1
vn -1.50649186E-07 6.07833641E-08 -1
vn -7.532459E-08 1.89468E-07 -1
vn 0 2.57369265E-07 -1
vn -1.506492E-07 0 -1
vn -1.506492E-07 0 -1
vn -1.63003874E-13 1 2.394064E-07
vn -1.630052E-13 1 2.394064E-07
vn -1.63003874E-13 1 2.394064E-07
vn -1.63002546E-13 1 2.394064E-07
vn -1 0 6.104785E-07
vn -1 0 6.104785E-07
vn -1 0 6.104785E-07
vn -1 0 6.104785E-07
vn 1 -3.09545783E-07 -4.06985635E-07
vn 1 -6.19091566E-07 -2.03492817E-07
vn 1 -3.09545783E-07 -4.06985635E-07
vn 1 0 -6.104784E-07
vn -0.7782234 0.627987564 7.982749E-08
vn -0.778222561 0.6279886 -3.15434164E-07
vn -0.7782234 0.627987564 7.982749E-08
vn -0.77822423 0.62798655 4.75089138E-07
vn -0.778223 0.6279881 2.263802E-08
vn -0.778222 0.6279893 4.750878E-07
vn -0.778223 0.6279881 2.263802E-08
vn -0.778223932 0.6279869 -4.298118E-07
vn -1.12986896E-07 1.62635274E-07 1
vn -1.50649186E-07 1.96585916E-07 1
vn -7.532459E-08 3.25270548E-07 1
vn 0 2.57369237E-07 1
vn -1.506492E-07 0 1
vn -1.506492E-07 0 1
vn 0 1 -2.394064E-07
vn 0 1 -2.394064E-07
vn 0 1 -2.394064E-07
vn 0 1 -2.394064E-07
vn 1 0 -6.104784E-07
vn 1 0 -6.104784E-07
vn 1 0 -6.104784E-07
vn 1 0 -6.104784E-07
vn -1 -3.09545783E-07 4.069857E-07
vn -1 -6.19091566E-07 2.03492846E-07
vn -1 -3.09545783E-07 4.069857E-07
vn -1 0 6.10478537E-07
vn 0.7782234 0.627987564 -1.72983064E-07
vn 0.77822274 0.627988338 1.29122839E-07
vn 0.7782234 0.627987564 -1.72983064E-07
vn 0.778224 0.6279868 -4.75088967E-07
vn 2.947633E-07 -9.271737E-07 1
vn 5.895266E-07 -6.49021558E-07 1
vn 2.947633E-07 -9.271737E-07 1
vn 0 -1.20532582E-06 1
vn 1 0 0
vn 1 0 0
vn 1 0 0
vn 1 0 0
vn 0.832051039 -0.382062465 -0.402143449
vn 1 1.70906208E-06 1.44140938E-06
vn 1 1.61367018E-06 4.20869583E-07
vn 0.707106769 -0.487037629 -0.5126347
vn 1 4.74961439E-07 8.706222E-07
vn 1 -7.55531346E-07 1.95474968E-06
vn 1 0 0
vn 1 0 0
vn 1 0 0
vn 0 0 -1
vn 0 0 -1
vn 0 0 -1
vn 0 0 -1
vn 0 -0.688775241 -0.724975
vn 0 -0.688775241 -0.724975
vn 0 0.809421539 0.58722806
vn 0 0.9501697 0.311733246
vn 0 0.8737722 0.486335456
vn 0 0.8737722 0.486335427
vn 0 0.645690262 0.7635994
vn 0 0.645690262 0.7635994
vn 0 0.645690262 0.7635994
vn 0 0 1
vn 0 0 1
vn 0 0 1
vn 0 0 1
vn 0 0.9920546 0.1258081
vn 0 0.9920546 0.1258081
vn 0 0.9920546 0.1258081
vn 1 0 0
vn 1 0 0
vn 1 0 0
vn 1 0 0
vn 1 1.61367416E-06 -4.20872169E-07
vn 1 1.70907185E-06 -1.44141779E-06
vn 0.832051039 -0.3820625 0.4021434
vn 0.707106769 -0.4870377 0.512634635
vn 1 -7.55525548E-07 -1.95476173E-06
vn 1 6.418268E-07 1.35184479E-07
vn 1 3.33720067E-07 2.01162356E-06
vn 1 1.30433954E-11 2.29642137E-06
vn 1 6.674271E-07 1.72682587E-06
vn 0 0 1
vn 0 0 1
vn 0 0 1
vn 0 0 1
vn 0 -0.6887753 0.7249749
vn 0 -0.6887753 0.7249749
vn 0 0.87377125 -0.486337185
vn 0 0.87377125 -0.486337185
vn 0 0.809421659 -0.5872279
vn 0 0.87377125 -0.486337155
vn 0 0.645693839 -0.7635964
vn 0 0.645693839 -0.7635964
vn 0 0.645693839 -0.7635964
vn 0 0 -1
vn 0 0 -1
vn 0 0 -1
vn 0 0 -1
vn 0 0.9920545 -0.125808626
vn 0 0.9920545 -0.125808626
vn 0 0.9920545 -0.125808626
vn 0 0.9920545 -0.125808626
vn 0.9999537 0.009623931 0.00011292722
vn 0.9999537 0.009623811 0.000115147268
vn -0.00161147537 0.8233984 -0.5674614
vn -0.00155635329 0.823461 -0.5673707
vn -0.00161147537 0.8233984 -0.5674614
vn -0.00166659732 0.8233358 -0.5675521
vn -0.00129219843 0.8998613 0.436174273
vn -0.00181197969 0.895678461 0.444698572
vn -0.00129219843 0.8998613 0.436174273
vn -0.000772300351 0.903962731 0.427610546
usemtl lt-bd025-02_part_1_material_0
f 145/145/145 146/146/146 147/147/147
f 147/147/147 148/148/148 145/145/145
f 149/149/149 150/150/150 151/151/151
f 151/151/151 152/152/152 149/149/149
usemtl lt-bd025-02_part_1_material_1
f 118/118/118 119/119/119 120/120/120
f 120/120/120 121/121/121 118/118/118
f 119/119/119 130/130/130 131/131/131
f 131/131/131 120/120/120 119/119/119
f 173/173/173 174/174/174 175/175/175
f 175/175/175 176/176/176 173/173/173
f 177/177/177 174/174/174 173/173/173
f 177/177/177 173/173/173 178/178/178
f 183/183/183 184/184/184 185/185/185
f 185/185/185 186/186/186 183/183/183
f 187/187/187 188/188/188 189/189/189
f 189/189/189 190/190/190 187/187/187
f 199/199/199 200/200/200 201/201/201
f 201/201/201 202/202/202 199/199/199
f 203/203/203 200/200/200 199/199/199
f 203/203/203 199/199/199 204/204/204
f 209/209/209 210/210/210 211/211/211
f 211/211/211 212/212/212 209/209/209
f 213/213/213 214/214/214 215/215/215
f 215/215/215 216/216/216 213/213/213
f 221/221/221 222/222/222 223/223/223
f 223/223/223 224/224/224 221/221/221
f 225/225/225 226/226/226 227/227/227
f 227/227/227 228/228/228 225/225/225
f 229/229/229 230/230/230 231/231/231
f 231/231/231 232/232/232 229/229/229
f 233/233/233 234/234/234 230/230/230
f 230/230/230 229/229/229 233/233/233
f 233/233/233 235/235/235 236/236/236
f 236/236/236 237/237/237 233/233/233
f 238/238/238 239/239/239 240/240/240
f 240/240/240 241/241/241 238/238/238
f 229/229/229 232/232/232 242/242/242
f 242/242/242 243/243/243 229/229/229
f 244/244/244 245/245/245 246/246/246
f 246/246/246 247/247/247 244/244/244
f 248/248/248 244/244/244 249/249/249
f 249/249/249 250/250/250 248/248/248
f 251/251/251 252/252/252 253/253/253
f 253/253/253 254/254/254 251/251/251
f 255/255/255 245/245/245 256/256/256
f 256/256/256 257/257/257 255/255/255
f 258/258/258 259/259/259 260/260/260
f 260/260/260 261/261/261 258/258/258
f 262/262/262 263/263/263 264/264/264
f 264/264/264 265/265/265 262/262/262
f 263/263/263 266/266/266 267/267/267
f 267/267/267 264/264/264 263/263/263
f 268/268/268 269/269/269 267/267/267
f 267/267/267 270/270/270 268/268/268
f 271/271/271 272/272/272 273/273/273
f 273/273/273 274/274/274 271/271/271
f 275/275/275 265/265/265 264/264/264
f 264/264/264 276/276/276 275/275/275
f 277/277/277 278/278/278 279/279/279
f 279/279/279 280/280/280 277/277/277
f 281/281/281 279/279/279 282/282/282
f 282/282/282 283/283/283 281/281/281
f 284/284/284 285/285/285 286/286/286
f 286/286/286 287/287/287 284/284/284
f 288/288/288 289/289/289 290/290/290
f 290/290/290 291/291/291 288/288/288
usemtl lt-bd025-02_part_1_material_2
f 122/122/122 123/123/123 124/124/124
f 124/124/124 125/125/125 122/122/122
f 126/126/126 127/127/127 128/128/128
f 128/128/128 129/129/129 126/126/126
f 132/132/132 122/122/122 125/125/125
f 125/125/125 133/133/133 132/132/132
f 134/134/134 126/126/126 129/129/129
f 129/129/129 135/135/135 134/134/134
f 136/136/136 137/137/137 138/138/138
f 136/136/136 138/138/138 139/139/139
f 136/136/136 139/139/139 140/140/140
f 153/153/153 154/154/154 155/155/155
f 155/155/155 156/156/156 153/153/153
f 157/157/157 158/158/158 159/159/159
f 159/159/159 160/160/160 157/157/157
f 161/161/161 162/162/162 163/163/163
f 163/163/163 164/164/164 161/161/161
f 165/165/165 166/166/166 167/167/167
f 167/167/167 168/168/168 165/165/165
f 169/169/169 170/170/170 171/171/171
f 171/171/171 172/172/172 169/169/169
f 179/179/179 180/180/180 181/181/181
f 181/181/181 182/182/182 179/179/179
f 191/191/191 192/192/192 193/193/193
f 193/193/193 194/194/194 191/191/191
f 195/195/195 196/196/196 197/197/197
f 197/197/197 198/198/198 195/195/195
f 205/205/205 206/206/206 207/207/207
f 207/207/207 208/208/208 205/205/205
f 217/217/217 218/218/218 219/219/219
f 219/219/219 220/220/220 217/217/217
f 294/294/294 295/295/295 296/296/296
f 296/296/296 297/297/297 294/294/294
f 298/298/298 299/299/299 300/300/300
f 300/300/300 301/301/301 298/298/298
usemtl lt-bd025-02_part_1_material_3
f 141/141/141 142/142/142 143/143/143
f 143/143/143 144/144/144 141/141/141
f 292/292/292 293/293/293 143/143/143
f 143/143/143 142/142/142 292/292/292
