mtllib mz-bd009.mtl
o mz-bd009_part_0
v -0.197015464 1.99374056 -0.9698134
v -0.197015956 -0.00625956059 -0.969813347
v -0.197015643 1.99374056 1.03369617
v -0.197015762 -0.00625956059 1.03369617
v 0.2012502 1.99374056 1.03369617
v 0.201250374 1.99374056 -0.969813466
v -0.197015464 1.99374056 -0.9698134
v -0.197015643 1.99374056 1.03369617
v 0.201250464 -0.00625956059 -0.969813466
v 0.201250374 1.99374056 -0.969813466
v 0.2012502 1.99374056 1.03369617
v 0.201250225 -0.00625956059 1.03369617
v -0.19701618 -2.00625944 -0.969813049
v -0.197016224 -2.00625944 1.03369653
v 0.201250523 -2.00625944 -0.9698133
v 0.201250315 -2.00625944 1.03369641
v -0.197015956 -0.00625956059 -0.969813347
v -0.197015464 1.99374056 -0.9698134
v 0.201250464 -0.00625956059 -0.969813466
v 0.201250374 1.99374056 -0.969813466
v -0.19701618 -2.00625944 -0.969813049
v -0.197015956 -0.00625956059 -0.969813347
v 0.201250523 -2.00625944 -0.9698133
v 0.201250464 -0.00625956059 -0.969813466
v -0.197015643 1.99374056 1.03369617
v -0.197015762 -0.00625956059 1.03369617
v 0.201250225 -0.00625956059 1.03369617
v 0.2012502 1.99374056 1.03369617
v -0.197015762 -0.00625956059 1.03369617
v -0.197016224 -2.00625944 1.03369653
v 0.201250315 -2.00625944 1.03369641
v 0.201250225 -0.00625956059 1.03369617
vt 0.00209452631 0.445449829
vt 0.00209452631 0.081813395
vt 0.366369963 0.445449829
vt 0.366369963 0.081813395
vt 0.353831738 0.4507709
vt 0.00120615959 0.4507709
vt 0.00120615959 0.5234361
vt 0.353831738 0.5234361
vt 0.00209452654 0.0860481262
vt 0.00209452654 0.450613856
vt 0.35369876 0.450613856
vt 0.35369876 0.0860481262
vt 0.00209452631 0.445449829
vt 0.366369963 0.445449829
vt 0.00209452654 0.450613856
vt 0.35369876 0.450613856
vt 0.353512675 0.453024864
vt 0.00130229443 0.453024864
vt 0.353512675 0.5254369
vt 0.00130229443 0.5254369
vt 0.353512675 0.453024864
vt 0.00130229443 0.453024864
vt 0.353512675 0.5254369
vt 0.00130229443 0.5254369
vt 0.00130229443 0.453024864
vt 0.353512675 0.453024864
vt 0.353512675 0.5254369
vt 0.00130229443 0.5254369
vt 0.00130229443 0.453024864
vt 0.353512675 0.453024864
vt 0.353512675 0.5254369
vt 0.00130229443 0.5254369
vn -1 2.402812E-07 -8.553159E-08
vn -1 1.59721822E-07 1.9988363E-08
vn -1 1.4994292E-07 4.6484594E-09
vn -1 1.44355E-07 9.482851E-08
vn 4.37113847E-08 1 -1.03659807E-14
vn 4.37113847E-08 1 -1.02847045E-14
vn 4.37113847E-08 1 -1.03659807E-14
vn 4.37113847E-08 1 -1.04472578E-14
vn 1 3.35276162E-08 1.07844173E-07
vn 1 4.470348E-08 8.925035E-08
vn 1 2.980232E-08 1.04125405E-07
vn 1 2.980233E-08 1.19000468E-07
vn -1 1.09896064E-07 -2.41719711E-08
vn -1 1.69500709E-07 3.5328263E-08
vn 1 2.980233E-08 1.041254E-07
vn 1 3.72529172E-08 1.1156294E-07
vn -2.99320448E-07 -2.980225E-08 -1
vn -1.995471E-07 -9.934088E-09 -1
vn -1.995471E-07 -9.934088E-09 -1
vn -1.49660437E-07 -6.690343E-15 -1
vn -5.986405E-07 -1.49011541E-07 -1
vn -4.48980472E-07 -1.19209261E-07 -1
vn -4.48980472E-07 -1.19209261E-07 -1
vn -2.99320476E-07 -8.940698E-08 -1
vn 0 0 1
vn 0 0 1
vn 0 0 1
vn 0 0 1
vn 1.496602E-07 1.49011584E-07 1
vn 2.993204E-07 1.78813877E-07 1
vn 1.496602E-07 1.49011584E-07 1
vn 0 1.1920929E-07 1
usemtl mz-bd009_part_0_material_0
f 1/1/1 2/2/2 3/3/3
f 4/4/4 3/3/3 2/2/2
f 5/5/5 6/6/6 7/7/7
f 7/7/7 8/8/8 5/5/5
f 9/9/9 10/10/10 11/11/11
f 11/11/11 12/12/12 9/9/9
f 2/2/2 13/13/13 14/14/14
f 14/14/14 4/4/4 2/2/2
f 15/15/15 9/9/9 16/16/16
f 12/12/12 16/16/16 9/9/9
f 17/17/17 18/18/18 19/19/19
f 20/20/20 19/19/19 18/18/18
f 20/20/20 19/19/19 18/18/18
f 21/21/21 22/22/22 23/23/23
f 24/24/24 23/23/23 22/22/22
f 25/25/25 26/26/26 27/27/27
f 27/27/27 28/28/28 25/25/25
f 29/29/29 30/30/30 31/31/31
f 31/31/31 32/32/32 29/29/29
