mtllib nml-bd086.mtl
o nml-bd086_part_0
v 0.1925745 0.427182764 -1.06430352
v -0.464963377 0.8432004 0.142408609
v 0.7430092 0.285767674 0.009195924
v -1.30143487 0.415437758 -1.01778638
v -1.80309653 0.285767555 0.1423055
v -1.16625655 0.217937231 1.4152633
v 0.204642415 0.2857676 1.48379958
v 0.413644075 0.009976298 -1.43346107
v 1.31216872 0.009976298 0.214227319
v -1.56787848 0.009976238 -1.3278991
v -2.4106822 0.009976238 0.177738786
v -1.4592129 0.009976119 1.93700087
v 0.5292872 -0.0055167973 1.84422433
v 1.16111231 0.592093349 -0.320155263
v 0.179524243 0.536667764 1.51161015
v 2.74128628 -0.50144273 0.323223472
v 1.69943452 -0.189808786 -2.19488478
v -0.862327337 0.848301649 -1.00649774
v 0.275449932 0.561702549 -1.91766524
v -0.14748019 0.7185133 -0.4668584
v 1.69741774 0.639831245 -1.57628679
v 0.7888425 -0.336326331 -3.0179503
v -1.05605531 -0.2576442 -1.90852189
v -1.70094585 0.5707836 1.36790991
v -2.028821 0.14715378 2.51140141
v -0.5132582 0.47270298 1.61541629
v -1.31410468 0.311713427 0.202286839
v -2.82966757 -0.0138358176 1.09827185
v 0.790943861 0.553081155 2.00439453
v 0.304765 0.3208307 3.14642239
v 1.91748047 0.2727421 2.37018919
v 1.20927715 0.104708374 0.9092238
v -0.40343833 0.152796984 1.68545675
vt 0.325081438 0.137212276
vt 0.5068098 0.482206225
vt 0.161826625 0.3927701
vt 0.809631646 0.1922921
vt 0.851792932 0.5669002
vt 0.674238861 0.8532407
vt 0.2664783 0.8236545
vt 0.234553978 -0.00851655
vt -0.01694047 0.444300175
vt 0.927326143 0.0196053386
vt 1.02778065 0.609425962
vt 0.8847089 1.00258708
vt 0.1751519 1.000458
vt 0.5176161 0.5176161
vt 0.999500155 0.0004994869
vt 0.999500453 0.999500334
vt 0.000499844551 0.9995005
vt 0.0004995465 0.000499665737
vt 0.5176161 0.5176161
vt 0.999500155 0.0004994869
vt 0.999500453 0.999500334
vt 0.000499844551 0.9995005
vt 0.0004995465 0.000499665737
vt 0.5176161 0.5176161
vt 0.999500155 0.0004994869
vt 0.999500453 0.999500334
vt 0.000499844551 0.9995005
vt 0.0004995465 0.000499665737
vt 0.5176161 0.5176161
vt 0.999500155 0.0004994869
vt 0.999500453 0.999500334
vt 0.000499844551 0.9995005
vt 0.0004995465 0.000499665737
vn 0.231289878 0.83409214 -0.5007947
vn -0.000701379962 0.9983546 0.05733771
vn 0.504550934 0.860385537 -0.07186846
vn -0.319863617 0.8808311 -0.3490327
vn -0.3780824 0.920071542 0.102577344
vn -0.161998287 0.9066302 0.3895872
vn 0.246729478 0.907049239 0.341154218
vn 0.4277759 0.7668522 -0.478482485
vn 0.470132053 0.8817541 0.03854321
vn -0.249797031 0.695067 -0.674153745
vn -0.50023526 0.8625128 -0.07639587
vn -0.228365064 0.9351503 0.270819545
vn 0.1544845 0.878864944 0.45136565
vn 0.3668975 0.9297807 -0.0299010631
vn 0.2902537 0.9391027 0.183953643
vn 0.550349951 0.8325281 0.0633389652
vn 0.424524277 0.8724797 -0.2419884
vn 0.1650841 0.978790045 -0.121314965
vn -0.221233726 0.8697962 -0.441033065
vn -0.278341681 0.942877531 -0.183051541
vn 0.0382583775 0.927584469 -0.371649534
vn -0.147528037 0.7314055 -0.6657939
vn -0.462976933 0.747051835 -0.4770387
vn -0.198720366 0.980022252 0.008162988
vn -0.249260828 0.9292256 0.2727797
vn 0.0636327341 0.994035959 0.0885628462
vn -0.1332709 0.9571855 -0.256972373
vn -0.444999754 0.8925921 -0.0724890456
vn -0.0125771835 0.9947703 -0.101360053
vn -0.09146213 0.9827211 0.160915926
vn 0.2409843 0.970527649 0.00163802528
vn 0.0672243237 0.93209213 -0.35592857
vn -0.264060766 0.9443194 -0.196297437
usemtl nml-bd086_part_0_material_0
f 1/1/1 2/2/2 3/3/3
f 4/4/4 2/2/2 1/1/1
f 5/5/5 2/2/2 4/4/4
f 6/6/6 2/2/2 5/5/5
f 7/7/7 2/2/2 6/6/6
f 3/3/3 2/2/2 7/7/7
f 8/8/8 3/3/3 9/9/9
f 1/1/1 3/3/3 8/8/8
f 10/10/10 1/1/1 8/8/8
f 4/4/4 1/1/1 10/10/10
f 11/11/11 4/4/4 10/10/10
f 5/5/5 4/4/4 11/11/11
f 12/12/12 5/5/5 11/11/11
f 6/6/6 5/5/5 12/12/12
f 13/13/13 6/6/6 12/12/12
f 7/7/7 6/6/6 13/13/13
f 9/9/9 7/7/7 13/13/13
f 3/3/3 7/7/7 9/9/9
f 14/14/14 15/15/15 16/16/16
f 16/16/16 17/17/17 14/14/14
f 14/14/14 17/17/17 18/18/18
f 18/18/18 15/15/15 14/14/14
f 19/19/19 20/20/20 21/21/21
f 21/21/21 22/22/22 19/19/19
f 19/19/19 22/22/22 23/23/23
f 23/23/23 20/20/20 19/19/19
f 24/24/24 25/25/25 26/26/26
f 26/26/26 27/27/27 24/24/24
f 24/24/24 27/27/27 28/28/28
f 28/28/28 25/25/25 24/24/24
f 29/29/29 30/30/30 31/31/31
f 31/31/31 32/32/32 29/29/29
f 29/29/29 32/32/32 33/33/33
f 33/33/33 30/30/30 29/29/29
