mtllib nml-bd094.mtl
o nml-bd094_part_0
v -0.140558138 0.513394356 0.309634566
v 0.5992328 0.4808709 0.147858515
v 0.434518039 0.378058732 -0.58470124
v -0.305272877 0.410582244 -0.4229251
v -0.9068365 0.396998525 -0.5178389
v -0.93424046 0.4052016 0.06226757
v -0.354077816 0.4041692 0.08968896
v -0.3266737 0.395966053 -0.49041754
v -0.9338814 0.2942106 -0.09433998
v -0.5155088 0.333790839 -0.188295111
v -0.5656629 0.3202039 -0.4213103
v -0.984392762 0.2222433 -0.3198825
v -1.26081848 0.03860511 0.00542788859
v -0.8840844 0.249417067 0.146147683
v -0.4665109 0.317183465 0.0474343523
v -1.26081848 0.03860511 0.00542788859
v 0.189093992 0.315518379 -0.6650843
v 0.180472091 0.36833024 -0.245175421
v 0.423950553 0.3838632 -0.241906852
v 0.4325725 0.273195148 -0.6618157
v 0.197896361 0.0518991947 -0.991379142
v -0.0543845445 0.2421292 -0.668352962
v -0.06300646 0.35279727 -0.248443961
v 0.197896361 0.0518991947 -0.991379142
v 0.240277171 0.4608373 0.4527498
v 0.08136741 0.393276364 0.0612614155
v -0.155260533 0.422143 0.137080088
v 0.006076321 0.433451384 0.545338631
v 0.371070355 0.297051847 0.822196
v 0.479332149 0.375718236 0.393701434
v 0.317995369 0.3644097 -0.0145571837
v 0.371070355 0.297051847 0.822196
v -0.678092 0.366800725 -0.480681419
v -0.2682691 0.373690844 -0.117821813
v 0.09309688 0.245688632 -0.487229228
v -0.30277583 0.261369169 -0.871565
v 0.50490135 0.47855866 0.0220057368
v 1.13707757 0.171646968 0.08103332
v 1.18045223 0.125880972 -0.621462941
v 0.5482761 0.432792664 -0.6804904
v 0.603812456 0.389159143 -0.275853
v 0.540037 0.3354814 0.0286835544
v 0.745829046 0.269812167 0.0490965657
v 0.7911949 0.285683274 -0.254850477
v 0.6380904 0.11283873 0.28739056
v 0.9148019 0.1285295 0.07068871
v 0.9785774 0.1822073 -0.233847946
v 0.6380904 0.11283873 0.28739056
v 0.759905338 0.250339329 -0.5656498
v 0.924724638 0.08978543 -0.5350683
v 0.686593 0.0328444839 -0.9113439
v 0.7430041 0.2884881 -0.186286509
v 0.9078234 0.127934188 -0.155705035
v 0.5299664 0.281434417 -0.571927667
v 0.686593 0.0328444839 -0.9113439
v 0.513065159 0.319583118 -0.192564368
v -0.630862534 0.2651676 -0.793810248
v -0.34542948 0.283736348 -0.428531677
v -0.1518744 0.197261378 -0.5741997
v -0.460497677 0.120709531 -0.928458631
v -0.9402768 0.0267904513 -1.03651762
v -0.847607553 0.2936593 -0.63712275
v -0.550326169 0.3398533 -0.278603435
v -0.9402768 0.0267904513 -1.03651762
v 0.7296457 0.3945769 0.22633937
v 0.739930153 0.396073937 -0.1448808
v 0.380823433 0.4243136 -0.1710442
v 0.3590291 0.4427967 0.202318162
v 0.4243884 0.436453521 0.4214645
v 0.6745941 0.4400897 0.3608935
v 0.6140235 0.439632058 0.110661685
v 0.363817751 0.435995877 0.1712327
v 0.6333975 0.368954718 0.470863223
v 0.490064859 0.396270335 0.211968362
v 0.345450133 0.3868935 0.290357769
v 0.493801564 0.319287777 0.5480408
v 0.762855351 0.192553118 0.6680692
v 0.783030748 0.338041246 0.391261637
v 0.6367014 0.384809017 0.133818448
v 0.762855351 0.192553118 0.6680692
v -0.49459675 0.366800725 -0.8430328
v -0.08477382 0.373690844 -0.480173171
v 0.2765921 0.245688632 -0.8495806
v -0.119280562 0.261369169 -1.23391628
v -0.148069188 0.2651676 -1.26793516
v -0.105023548 0.283736348 -0.8063644
v 0.1931758 0.193672657 -0.824478269
v 0.0680284649 0.120709531 -1.28929365
v -0.243591428 0.026790455 -1.53814089
v -0.415105253 0.2936593 -1.25306606
v -0.408337831 0.3398533 -0.7856471
v -0.243591428 0.026790455 -1.53814089
v 0.611941159 0.318033636 -0.6183317
v 0.4840719 0.322443843 -0.903174758
v 0.19919768 0.3218888 -0.775300264
v 0.327067047 0.3174786 -0.490457237
v 0.6527783 0.2555145 -0.892533839
v 0.3781915 0.288380027 -0.665879548
v 0.502817154 0.27709806 -0.5121302
v 0.774863362 0.19575651 -0.744453132
v 0.857462645 0.04327257 -1.08916593
v 0.52561146 0.2183202 -1.05195141
v 0.253402859 0.274590075 -0.822073042
v 0.857462645 0.04327257 -1.08916593
v 1.2089951 0.422786355 -0.343981028
v 1.07055438 0.4296764 0.185600072
v 1.56340885 0.301674217 0.340975851
v 1.727312 0.317354769 -0.185868412
v 1.47259474 0.244414255 -0.268188566
v 1.34248471 0.300583422 -0.00167405675
v 1.49875391 0.244546309 0.0902018845
v 1.61329389 0.1447511 -0.182833463
v 1.49689674 0.0323457867 -0.471261859
v 1.300756 0.2568252 -0.3665853
v 1.179322 0.333759248 -0.0968971848
v 1.49689674 0.0323457867 -0.471261859
v 1.06639981 0.311896652 0.266095221
v 1.27702153 0.317533642 0.0480347276
v 1.15651631 0.322425723 -0.06907906
v 0.9439357 0.2756068 0.15321511
v 0.9114536 0.149032742 0.420203328
v 1.18494582 0.26582256 0.3874424
v 1.39550161 0.291459352 0.16704233
v 0.9114536 0.149032742 0.420203328
v -0.356216848 0.4476637 0.0846786052
v 0.010405153 0.38240543 -0.0946042538
v -0.07846402 0.410288185 -0.317553937
v -0.461083561 0.421211183 -0.134811819
v -0.7034775 0.2894606 0.2353955
v -0.283345461 0.365445733 0.3110874
v 0.09927422 0.354522616 0.128345445
v -0.7034775 0.2894606 0.2353955
v 1.69357193 0.244414255 0.141815633
v 1.405212 0.300583422 0.07248161
v 1.34934127 0.244546309 0.244933635
v 1.640697 0.1447511 0.297655255
v 1.89709091 0.0323457867 0.121583171
v 1.75243855 0.2568252 -0.0472483262
v 1.46285844 0.333759248 -0.107425064
v 1.89709091 0.0323457867 0.121583171
vt 0.00187055755 0.648220837
vt 0.3624568 0.648220837
vt 0.343751252 1.00337291
vt 0 1.00337291
vt 0.009212674 0.250968337
vt 0.00547155831 0.647632539
vt 0.3651738 0.647632539
vt 0.367044359 0.250968337
vt 0.5481351 0.7848509
vt 0.546265066 0.9959449
vt 0.7368799 0.9959436
vt 0.7386995 0.784895062
vt 0.529780746 0.474097133
vt 0.349002779 0.7848914
vt 0.345401257 0.9959461
vt 0.5300015 0.4740975
vt 0.5481351 0.7848509
vt 0.546265066 0.9959449
vt 0.7368799 0.9959436
vt 0.7386995 0.784895062
vt 0.529780746 0.474097133
vt 0.349002779 0.7848914
vt 0.345401257 0.9959461
vt 0.5300015 0.4740975
vt 0.5481351 0.7848509
vt 0.546265066 0.9959449
vt 0.7368799 0.9959436
vt 0.7386995 0.784895062
vt 0.530272841 0.474097133
vt 0.349002779 0.7848914
vt 0.345401257 0.9959461
vt 0.5300249 0.4740975
vt 0.00226337463 0.647312641
vt 0.00413393229 0.253735244
vt 0.3662915 0.253735244
vt 0.366291463 0.647312641
vt 0.3624568 0.648220837
vt 0.343751252 1.00337291
vt 0 1.00337291
vt 0.00187055755 0.648220837
vt 0.7368799 0.9959436
vt 0.7386995 0.784895062
vt 0.5481351 0.7848509
vt 0.546265066 0.9959449
vt 0.5303429 0.474097133
vt 0.349002779 0.7848914
vt 0.345401257 0.9959461
vt 0.5305051 0.4740975
vt 0.5491733 0.7856177
vt 0.7384275 0.785131752
vt 0.5302464 0.474337459
vt 0.5473021 0.9951588
vt 0.735998333 0.99516
vt 0.34889096 0.7851723
vt 0.530067 0.474337161
vt 0.3450958 0.9951575
vt 0.5481351 0.7848509
vt 0.546265066 0.9959449
vt 0.7368799 0.9959436
vt 0.7386995 0.784895062
vt 0.529780746 0.474097133
vt 0.349002779 0.7848914
vt 0.345401257 0.9959461
vt 0.5300015 0.4740975
vt 0.00226337463 0.647312641
vt 0.00413393229 0.253735244
vt 0.3662915 0.253735244
vt 0.366291463 0.647312641
vt 0.009212674 0.250968337
vt 0.00547155831 0.647632539
vt 0.3651738 0.647632539
vt 0.367044359 0.250968337
vt 0.5481351 0.7848509
vt 0.546265066 0.9959449
vt 0.7368799 0.9959436
vt 0.7386995 0.784895062
vt 0.529780746 0.474097133
vt 0.349002779 0.7848914
vt 0.345401257 0.9959461
vt 0.5300015 0.4740975
vt 0.00226337463 0.647312641
vt 0.00413393229 0.253735244
vt 0.3662915 0.253735244
vt 0.366291463 0.647312641
vt 0.5481351 0.7848509
vt 0.546265066 0.9959449
vt 0.7368799 0.9959436
vt 0.7386995 0.784895062
vt 0.529780746 0.474097133
vt 0.349002779 0.7848914
vt 0.345401257 0.9959461
vt 0.5300015 0.4740975
vt 0.009212674 0.250968337
vt 0.00547155831 0.647632539
vt 0.3651738 0.647632539
vt 0.367044359 0.250968337
vt 0.5481351 0.7848509
vt 0.546265066 0.9959449
vt 0.7368799 0.9959436
vt 0.7386995 0.784895062
vt 0.529780746 0.474097133
vt 0.349002779 0.7848914
vt 0.345401257 0.9959461
vt 0.5300015 0.4740975
vt 0.00226337463 0.647312641
vt 0.00413393229 0.253735244
vt 0.3662915 0.253735244
vt 0.366291463 0.647312641
vt 0.5481351 0.7848509
vt 0.546265066 0.9959449
vt 0.7368799 0.9959436
vt 0.7386995 0.784895062
vt 0.529780746 0.474097133
vt 0.349002779 0.7848914
vt 0.345401257 0.9959461
vt 0.5300015 0.4740975
vt 0.5481351 0.7848509
vt 0.546265066 0.9959449
vt 0.7368799 0.9959436
vt 0.7386995 0.784895062
vt 0.529780746 0.474097133
vt 0.349002779 0.7848914
vt 0.345401257 0.9959461
vt 0.5300015 0.4740975
vt 0.5481351 0.7848509
vt 0.546265066 0.9959449
vt 0.7368799 0.9959436
vt 0.7386995 0.784895062
vt 0.530272841 0.474097133
vt 0.349002779 0.7848914
vt 0.345401257 0.9959461
vt 0.5300249 0.4740975
vt 0.5481351 0.7848509
vt 0.546265066 0.9959449
vt 0.7368799 0.9959436
vt 0.7386995 0.784895062
vt 0.529780746 0.474097133
vt 0.349002779 0.7848914
vt 0.345401257 0.9959461
vt 0.5300015 0.4740975
vn 0.01252166 0.9898256 -0.141733959
vn 0.0125216218 0.9898256 -0.141733974
vn 0.01252166 0.9898256 -0.141733959
vn 0.0125216981 0.9898256 -0.141733944
vn 0.00244223187 0.9998987 -0.0140239093
vn 0.00244217855 0.9998987 -0.0140238609
vn 0.00244223187 0.9998987 -0.0140239093
vn 0.002442285 0.9998987 -0.0140239578
vn -0.337323129 0.941243351 0.0165556129
vn -0.09661882 0.991657436 0.08532458
vn -0.190407157 0.972077668 -0.13714987
vn -0.463656574 0.868879735 -0.173408628
vn -0.6320265 0.7680024 -0.103512853
vn -0.250811815 0.94929266 0.1895701
vn -0.136832356 0.9857458 0.0978882462
vn -0.543827 0.797526956 0.2611569
vn -0.05343696 0.92955035 -0.364802241
vn -0.135837525 0.9760012 -0.170205355
vn 0.0543047935 0.980569839 -0.188504189
vn 0.159274012 0.882028759 -0.443460375
vn 0.1424784 0.771795332 -0.619703054
vn -0.1935286 0.919099 -0.3432255
vn -0.058136005 0.9650503 -0.2555351
vn -0.219584271 0.755966842 -0.6166822
vn 0.134404689 0.9899771 0.0433664657
vn 0.141610429 0.973990262 -0.176888153
vn -0.0262890235 0.995674968 -0.08910782
vn -0.0321348943 0.977626741 0.207878053
vn 0.04703714 0.9192422 0.390872478
vn 0.256027758 0.966325164 -0.0257960074
vn 0.09967732 0.992768943 -0.06688994
vn 0.380141675 0.8879094 0.2590545
vn 0.152040347 0.976414144 -0.1532944
vn 0.150792092 0.9703819 -0.188734427
vn 0.152040347 0.976414144 -0.1532944
vn 0.153091848 0.981182933 -0.117656
vn 0.438892633 0.8979906 -0.0314031467
vn 0.4388926 0.8979906 -0.03140318
vn 0.438892633 0.8979906 -0.0314031467
vn 0.438892663 0.8979906 -0.03140311
vn 0.3756927 0.910948038 0.1703781
vn 0.237884358 0.8759359 0.419699132
vn 0.4210276 0.834998667 0.354278147
vn 0.517454565 0.839481652 0.165865332
vn 0.189094737 0.77858156 0.5983761
vn 0.524368346 0.7786013 0.34469974
vn 0.447428167 0.860024333 0.24528791
vn 0.452685148 0.6367964 0.6241526
vn 0.3786417 0.8836638 -0.275261372
vn 0.7025556 0.683462441 -0.198229119
vn 0.650603 0.5729458 -0.498446465
vn 0.5369264 0.841442943 -0.06069453
vn 0.7010413 0.7119774 -0.0403638966
vn 0.135348365 0.9342483 -0.3299407
vn 0.12681298 0.8272378 -0.5473537
vn 0.135926127 0.986332059 -0.09312971
vn 0.08555747 0.9017722 -0.423658848
vn 0.137578517 0.9732345 -0.184083566
vn 0.288475066 0.8895991 -0.354112446
vn 0.181167647 0.7763576 -0.6036946
vn 0.0248928815 0.697173834 -0.7164698
vn -0.02801394 0.960134566 -0.278130949
vn 0.1084883 0.9705669 -0.21501188
vn -0.250152946 0.8308436 -0.497114062
vn 0.104813807 0.9943361 -0.0175979026
vn 0.07794764 0.9969383 0.00617987243
vn 0.104813807 0.9943361 -0.0175979026
vn 0.131544352 0.9904474 -0.04135291
vn -0.01414511 0.9998987 0.00159524125
vn -0.0141451117 0.9998987 0.00159524009
vn -0.01414511 0.9998987 0.00159524125
vn -0.0141451079 0.9998987 0.00159524253
vn 0.110639416 0.9412433 0.319092363
vn 0.109028623 0.991657436 0.0687623248
vn -0.0781451538 0.972077668 0.221265286
vn -0.036191266 0.8688798 0.4936984
vn 0.0781837851 0.768002331 0.635656953
vn 0.2523885 0.94929266 0.187466055
vn 0.132382214 0.9857458 0.103827693
vn 0.403397948 0.797526836 0.448576659
vn 0.152040347 0.976414144 -0.1532944
vn 0.150792092 0.9703819 -0.188734442
vn 0.152040347 0.976414144 -0.1532944
vn 0.153091848 0.981182933 -0.117656
vn 0.278891325 0.885547042 -0.371518642
vn 0.188116953 0.979537 -0.0715493
vn 0.40695712 0.897787452 -0.168415084
vn 0.45013085 0.745937 -0.490877
vn 0.356405079 0.6345506 -0.685799539
vn 0.111996613 0.951439857 -0.286738425
vn 0.174460337 0.9796402 -0.0993415639
vn 0.0418856777 0.7418422 -0.669265032
vn 0.0041623693 0.9998987 0.0136128329
vn 0.00416236976 0.9998987 0.0136128329
vn 0.0041623693 0.9998987 0.0136128329
vn 0.0041623693 0.9998987 0.0136128338
vn 0.293390661 0.9412433 -0.167281166
vn 0.04760168 0.991657436 -0.119789876
vn 0.2318437 0.972077668 0.0362421758
vn 0.491962463 0.868879855 -0.0549615137
vn 0.6105384 0.7680023 -0.193430528
vn 0.1380015 0.9492926 -0.2824874
vn 0.0777895451 0.9857458 -0.149178028
vn 0.3669901 0.797526836 -0.478820682
vn 0.2054632 0.976414144 0.06633501
vn 0.236512154 0.9703819 0.0492029041
vn 0.2054632 0.976414144 0.06633501
vn 0.174148381 0.981182933 0.08338128
vn 0.467262655 0.837443531 -0.28346777
vn 0.260245919 0.9600831 -0.102530465
vn 0.4776218 0.8778607 -0.0351854041
vn 0.661258936 0.6978685 -0.2751656
vn 0.6819528 0.5451086 -0.487644285
vn 0.2918573 0.901648 -0.3191399
vn 0.278055936 0.9494582 -0.145650521
vn 0.410656363 0.6547256 -0.6345831
vn -0.182365745 0.9570067 0.225568041
vn 0.07894197 0.988172233 0.131467924
vn -0.123190016 0.9923812 -0.00194705115
vn -0.3989339 0.9059905 0.1415381
vn -0.5229307 0.793078065 0.312363
vn -0.0139562115 0.9478686 0.3183558
vn 0.0518958047 0.9850676 0.164160267
vn -0.267907083 0.7843228 0.559520841
vn -0.033965528 0.9899771 0.137082517
vn 0.18625994 0.973990262 0.129035622
vn 0.087076 0.995674968 -0.03238986
vn -0.209602937 0.977626741 -0.0176787246
vn -0.386682659 0.9192422 0.0739616752
vn 0.0434441678 0.966325164 0.25363028
vn 0.07362457 0.992768943 0.09481172
vn -0.232138887 0.887909353 0.397150546
vn 0.377892971 0.837443531 0.394823074
vn 0.156433687 0.9600831 0.23188132
vn 0.137739658 0.877860665 0.458681166
vn 0.411781 0.6978685 0.586016953
vn 0.623701453 0.545108557 0.560225964
vn 0.374750227 0.9016479 0.2158547
vn 0.202386633 0.9494582 0.239935055
vn 0.7084303 0.654725552 0.2635545
usemtl nml-bd094_part_0_material_0
f 1/1/1 2/2/2 3/3/3
f 3/3/3 4/4/4 1/1/1
f 5/5/5 6/6/6 7/7/7
f 7/7/7 8/8/8 5/5/5
f 9/9/9 10/10/10 11/11/11
f 11/11/11 12/12/12 9/9/9
f 13/13/13 9/9/9 12/12/12
f 14/14/14 15/15/15 10/10/10
f 10/10/10 9/9/9 14/14/14
f 16/16/16 14/14/14 9/9/9
f 17/17/17 18/18/18 19/19/19
f 19/19/19 20/20/20 17/17/17
f 21/21/21 17/17/17 20/20/20
f 22/22/22 23/23/23 18/18/18
f 18/18/18 17/17/17 22/22/22
f 24/24/24 22/22/22 17/17/17
f 25/25/25 26/26/26 27/27/27
f 27/27/27 28/28/28 25/25/25
f 29/29/29 25/25/25 28/28/28
f 30/30/30 31/31/31 26/26/26
f 26/26/26 25/25/25 30/30/30
f 32/32/32 30/30/30 25/25/25
f 33/33/33 34/34/34 35/35/35
f 35/35/35 36/36/36 33/33/33
f 37/37/37 38/38/38 39/39/39
f 39/39/39 40/40/40 37/37/37
f 41/41/41 42/42/42 43/43/43
f 43/43/43 44/44/44 41/41/41
f 45/45/45 43/43/43 42/42/42
f 44/44/44 43/43/43 46/46/46
f 46/46/46 47/47/47 44/44/44
f 48/48/48 46/46/46 43/43/43
f 49/49/49 50/50/50 51/51/51
f 52/52/52 53/53/53 50/50/50
f 50/50/50 49/49/49 52/52/52
f 54/54/54 49/49/49 55/55/55
f 56/56/56 52/52/52 49/49/49
f 49/49/49 54/54/54 56/56/56
f 57/57/57 58/58/58 59/59/59
f 59/59/59 60/60/60 57/57/57
f 61/61/61 57/57/57 60/60/60
f 62/62/62 63/63/63 58/58/58
f 58/58/58 57/57/57 62/62/62
f 64/64/64 62/62/62 57/57/57
f 65/65/65 66/66/66 67/67/67
f 67/67/67 68/68/68 65/65/65
f 69/69/69 70/70/70 71/71/71
f 71/71/71 72/72/72 69/69/69
f 73/73/73 74/74/74 75/75/75
f 75/75/75 76/76/76 73/73/73
f 77/77/77 73/73/73 76/76/76
f 78/78/78 79/79/79 74/74/74
f 74/74/74 73/73/73 78/78/78
f 80/80/80 78/78/78 73/73/73
f 81/81/81 82/82/82 83/83/83
f 83/83/83 84/84/84 81/81/81
f 85/85/85 86/86/86 87/87/87
f 87/87/87 88/88/88 85/85/85
f 89/89/89 85/85/85 88/88/88
f 90/90/90 91/91/91 86/86/86
f 86/86/86 85/85/85 90/90/90
f 92/92/92 90/90/90 85/85/85
f 93/93/93 94/94/94 95/95/95
f 95/95/95 96/96/96 93/93/93
f 97/97/97 98/98/98 99/99/99
f 99/99/99 100/100/100 97/97/97
f 101/101/101 97/97/97 100/100/100
f 102/102/102 103/103/103 98/98/98
f 98/98/98 97/97/97 102/102/102
f 104/104/104 102/102/102 97/97/97
f 105/105/105 106/106/106 107/107/107
f 107/107/107 108/108/108 105/105/105
f 109/109/109 110/110/110 111/111/111
f 111/111/111 112/112/112 109/109/109
f 113/113/113 109/109/109 112/112/112
f 114/114/114 115/115/115 110/110/110
f 110/110/110 109/109/109 114/114/114
f 116/116/116 114/114/114 109/109/109
f 117/117/117 118/118/118 119/119/119
f 119/119/119 120/120/120 117/117/117
f 121/121/121 117/117/117 120/120/120
f 122/122/122 123/123/123 118/118/118
f 118/118/118 117/117/117 122/122/122
f 124/124/124 122/122/122 117/117/117
f 125/125/125 126/126/126 127/127/127
f 127/127/127 128/128/128 125/125/125
f 129/129/129 125/125/125 128/128/128
f 130/130/130 131/131/131 126/126/126
f 126/126/126 125/125/125 130/130/130
f 132/132/132 130/130/130 125/125/125
f 133/133/133 134/134/134 135/135/135
f 135/135/135 136/136/136 133/133/133
f 137/137/137 133/133/133 136/136/136
f 138/138/138 139/139/139 134/134/134
f 134/134/134 133/133/133 138/138/138
f 140/140/140 138/138/138 133/133/133
