mtllib nml-bd123.mtl
o nml-bd123_part_0
v 0.6190308 0 -0.372803956
v 0.1692232 0.7705652 -0.5790829
v 0.562952161 0.7705653 -0.181140572
v 0.1692232 0.7705652 -0.5790829
v 0.6190308 0 -0.372803956
v 0.179677084 0 -0.5023513
v -0.139198884 0 -1.01259315
v -0.277014226 0.7705652 -0.6660954
v -0.139198884 0 -1.01259315
v -0.9308025 0 -0.6087976
v -0.7161209 0.7705652 -0.123977184
v -0.7161209 0.7705652 -0.123977184
v -0.9308025 0 -0.6087976
v -0.6656695 0 -0.146763891
v -0.845882356 0 0.220742822
v -0.277014136 0.7705652 0.303814262
v -0.7161209 0.7705652 -0.123977184
v -0.5185471 0 0.6338687
v 0.137516335 0 0.7274654
v 0.355052739 0.7705652 0.419432
v -0.277014136 0.7705652 0.303814262
v 0.355052739 0.7705652 0.419432
v 0.137516335 0 0.7274654
v 0.3245519 0 0.4688035
v 0.725236535 0 0.3609883
v 0.44554463 1.75 -0.181140572
v 0.224259585 1.75 -0.5644175
v 0.2505772 3.5 -0.604177237
v 0.450577229 3.5 -0.257767051
v 0.224259585 1.75 -0.5644175
v -0.218310446 1.75 -0.5644175
v -0.1494228 3.5 -0.604177237
v 0.2505772 3.5 -0.604177237
v -0.524388 1.75 -0.146369949
v -0.349422783 3.5 -0.257767022
v -0.524388 1.75 -0.146369949
v -0.218310386 1.75 0.202136308
v -0.149422735 3.5 0.08864313
v -0.349422783 3.5 -0.257767022
v -0.218310386 1.75 0.202136308
v 0.224259645 1.75 0.202136248
v 0.250577271 3.5 0.088643074
v -0.149422735 3.5 0.08864313
v 0.44554463 1.75 -0.181140572
v 0.450577229 3.5 -0.257767051
v 0.450577229 3.5 -0.257767051
v 0.2505772 3.5 -0.604177237
v 0.38740772 5.25 -0.6646117
v 0.587407649 5.25 -0.318201482
v 0.2505772 3.5 -0.604177237
v -0.1494228 3.5 -0.604177237
v -0.0125923026 5.25 -0.664611638
v 0.38740772 5.25 -0.6646117
v -0.1494228 3.5 -0.604177237
v -0.349422783 3.5 -0.257767022
v -0.212592319 5.25 -0.318201452
v -0.0125923026 5.25 -0.664611638
v -0.349422783 3.5 -0.257767022
v -0.149422735 3.5 0.08864313
v -0.012592243 5.25 0.0282087028
v -0.212592319 5.25 -0.318201452
v 0.250577271 3.5 0.088643074
v 0.38740778 5.25 0.0282086432
v 0.250577271 3.5 0.088643074
v 0.450577229 3.5 -0.257767051
v 0.587407649 5.25 -0.318201482
v 0.38740778 5.25 0.0282086432
v 0.224259585 1.75 -0.5644175
v 0.44554463 1.75 -0.181140572
v -0.218310446 1.75 -0.5644175
v -0.524388 1.75 -0.146369949
v -0.218310386 1.75 0.202136308
v 0.224259645 1.75 0.202136248
v 0.725236535 0 0.3609883
v -0.7161209 0.7705652 -0.123977184
v -0.845882356 0 0.220742822
vt 0.221636117 0.006202996
vt 0.4403273 0.436106682
vt 0.221636117 0.436106682
vt 0.6806174 0.370756149
vt 0.250713736 0.4591382
vt 0.250713736 0.3707561
vt 0.221636117 0.006202996
vt 0.221636057 0.436106682
vt 0.250713736 0.4591382
vt 0.440144151 0.006202996
vt 0.4403273 0.436106682
vt 0.6806174 0.370756149
vt 0.250713736 0.4591382
vt 0.250713736 0.3707561
vt 0.440144151 0.006202996
vt 0.221636057 0.4347136
vt 0.4403273 0.4347136
vt 0.221636117 0.006202996
vt 0.4394818 0.006202996
vt 0.4403273 0.436106682
vt 0.221636057 0.436106682
vt 0.6806174 0.370756149
vt 0.250713736 0.4591382
vt 0.250713736 0.3707561
vt 0.436203182 0.006202996
vt 1.44193971 0.0151785612
vt 1.66451585 0.0151785612
vt 1.66451585 0.9861829
vt 1.44193971 0.9861829
vt 1.66365778 0.0151785612
vt 1.44108164 0.0151785612
vt 1.44108164 0.9861829
vt 1.66365778 0.9861829
vt 1.66365778 0.0151785612
vt 1.66365778 0.9861829
vt 1.66417849 0.0151785612
vt 1.44160235 0.0151785612
vt 1.44160235 0.9861829
vt 1.66417849 0.9861829
vt 1.44108164 0.0151785612
vt 1.66365778 0.0151785612
vt 1.66365778 0.9861829
vt 1.44108164 0.9861829
vt 1.44108164 0.0151785612
vt 1.44108164 0.9861829
vt 0.000694589166 0.0126107931
vt 0.2226353 0.0126107931
vt 0.2226353 0.9871087
vt 0.000694589166 0.9871087
vt 1.66451585 0.0151785612
vt 1.44193971 0.0151785612
vt 1.44193971 0.9861829
vt 1.66451585 0.9861829
vt 1.44183433 0.0151785612
vt 1.66441071 0.0151785612
vt 1.66441071 0.9861829
vt 1.44183433 0.9861829
vt 0.2226353 0.0126107931
vt 0.000694589166 0.0126107931
vt 0.000694589166 0.9871087
vt 0.2226353 0.9871087
vt 0.2226353 0.0126107931
vt 0.2226353 0.9871087
vt 1.66451585 0.0151785612
vt 1.44193971 0.0151785612
vt 1.44193971 0.9861829
vt 1.66451585 0.9861829
vt 0.440327346 0.9862528
vt 0.221636117 0.9862528
vt 0.221636117 0.9862528
vt 0.440327346 0.9862528
vt 0.221636117 0.9862528
vt 0.440327346 0.9862528
vt 0.250713736 0.4591382
vt 0.6792243 0.370756149
vt 0.250713736 0.4591382
vn 0.7868543 0.07496016 -0.6125694
vn 0.486538142 0.117506452 -0.865721047
vn 0.956744432 0.182043687 -0.226936519
vn 0.486538142 0.117506452 -0.865721047
vn 0.7868543 0.07496016 -0.6125694
vn 0.5907332 -0.07201167 -0.8036471
vn 0.175502956 0.261307031 -0.949166656
vn -0.3138743 0.3206984 -0.893664062
vn 0.175502956 0.261307031 -0.949166656
vn -0.883759737 0.303865 -0.355857849
vn -0.9491302 0.30458653 0.07986811
vn -0.9491302 0.30458653 0.07986811
vn -0.883759737 0.303865 -0.355857849
vn -0.9969716 -0.06646867 0.0403671
vn -0.923233 0.30319497 0.236037374
vn -0.4276487 0.3039577 0.8513086
vn -0.9491302 0.30458653 0.07986811
vn -0.448349953 0.4669926 0.7621681
vn 0.265530556 0.303681552 0.9150252
vn 0.473954916 0.310159653 0.824116349
vn -0.4276487 0.3039577 0.8513086
vn 0.473954916 0.310159653 0.824116349
vn 0.265530556 0.303681552 0.9150252
vn 0.579634547 0.0292336475 0.814352036
vn 0.8288587 0.197842464 0.5233084
vn 0.9965087 0.082618095 -0.0120242368
vn 0.4886774 0.008349954 -0.8724246
vn 0.492377728 -0.0479179323 -0.8690616
vn 0.999156952 -0.04103799 -0.00112227572
vn 0.4886774 0.008349954 -0.8724246
vn -0.447675318 0.0468391962 -0.8929686
vn -0.505322158 0.0053983354 -0.862913847
vn 0.492377728 -0.0479179323 -0.8690616
vn -0.990546 0.131403968 0.03939099
vn -0.9967286 0.08008086 -0.0109145017
vn -0.990546 0.131403968 0.03939099
vn -0.402879059 0.105912507 0.9091045
vn -0.4969865 0.08534451 0.863551259
vn -0.9967286 0.08008086 -0.0109145017
vn -0.402879059 0.105912507 0.9091045
vn 0.472404242 0.1323477 0.871388733
vn 0.494662166 0.0207072943 0.8688386
vn -0.4969865 0.08534451 0.863551259
vn 0.9965087 0.082618095 -0.0120242368
vn 0.999156952 -0.04103799 -0.00112227572
vn 0.999156952 -0.04103799 -0.00112227572
vn 0.492377728 -0.0479179323 -0.8690616
vn 0.5121223 -0.069606334 -0.856087446
vn 0.9968735 -0.07830827 -0.0105369305
vn 0.492377728 -0.0479179323 -0.8690616
vn -0.505322158 0.0053983354 -0.862913847
vn -0.47635147 0.00688214926 -0.879228
vn 0.5121223 -0.069606334 -0.856087446
vn -0.505322158 0.0053983354 -0.862913847
vn -0.9967286 0.08008086 -0.0109145017
vn -0.9969235 0.07755691 -0.0113335121
vn -0.47635147 0.00688214926 -0.879228
vn -0.9967286 0.08008086 -0.0109145017
vn -0.4969865 0.08534451 0.863551259
vn -0.484488457 0.068000406 0.8721507
vn -0.9969235 0.07755691 -0.0113335121
vn 0.494662166 0.0207072943 0.8688386
vn 0.5230394 -0.0114649273 0.8522314
vn 0.494662166 0.0207072943 0.8688386
vn 0.999156952 -0.04103799 -0.00112227572
vn 0.9968735 -0.07830827 -0.0105369305
vn 0.5230394 -0.0114649273 0.8522314
vn 0.4886774 0.008349954 -0.8724246
vn 0.9965087 0.082618095 -0.0120242368
vn -0.447675318 0.0468391962 -0.8929686
vn -0.990546 0.131403968 0.03939099
vn -0.402879059 0.105912507 0.9091045
vn 0.472404242 0.1323477 0.871388733
vn 0.8288587 0.197842464 0.5233084
vn -0.9491302 0.30458653 0.07986811
vn -0.923233 0.30319497 0.236037374
usemtl nml-bd123_part_0_material_0
f 1/1/1 2/2/2 3/3/3
f 7/7/7 8/8/8 2/2/2
f 10/10/10 11/11/11 8/8/8
f 15/15/15 16/16/16 17/17/17
f 16/16/16 15/15/15 18/18/18
f 19/19/19 20/20/20 21/21/21
f 25/25/25 3/3/3 20/20/20
f 3/3/3 25/25/25 1/1/1
f 26/26/26 27/27/27 28/28/28
f 28/28/28 29/29/29 26/26/26
f 30/30/30 31/31/31 32/32/32
f 32/32/32 33/33/33 30/30/30
f 31/31/31 34/34/34 35/35/35
f 35/35/35 32/32/32 31/31/31
f 36/36/36 37/37/37 38/38/38
f 38/38/38 39/39/39 36/36/36
f 40/40/40 41/41/41 42/42/42
f 42/42/42 43/43/43 40/40/40
f 41/41/41 44/44/44 45/45/45
f 45/45/45 42/42/42 41/41/41
f 46/46/46 47/47/47 48/48/48
f 48/48/48 49/49/49 46/46/46
f 50/50/50 51/51/51 52/52/52
f 52/52/52 53/53/53 50/50/50
f 54/54/54 55/55/55 56/56/56
f 56/56/56 57/57/57 54/54/54
f 58/58/58 59/59/59 60/60/60
f 60/60/60 61/61/61 58/58/58
f 59/59/59 62/62/62 63/63/63
f 63/63/63 60/60/60 59/59/59
f 64/64/64 65/65/65 66/66/66
f 66/66/66 67/67/67 64/64/64
f 68/68/68 69/69/69 3/3/3
f 3/3/3 2/2/2 68/68/68
f 70/70/70 68/68/68 2/2/2
f 2/2/2 8/8/8 70/70/70
f 71/71/71 70/70/70 8/8/8
f 8/8/8 11/11/11 71/71/71
f 72/72/72 71/71/71 11/11/11
f 11/11/11 21/21/21 72/72/72
f 73/73/73 72/72/72 21/21/21
f 21/21/21 20/20/20 73/73/73
f 69/69/69 73/73/73 20/20/20
f 20/20/20 3/3/3 69/69/69
f 21/21/21 18/18/18 19/19/19
f 8/8/8 7/7/7 10/10/10
usemtl nml-bd123_part_0_material_1
f 4/4/4 5/5/5 6/6/6
f 4/4/4 6/6/6 9/9/9
f 12/12/12 13/13/13 14/14/14
f 22/22/22 23/23/23 24/24/24
f 22/22/22 24/24/24 74/74/74
f 75/75/75 14/14/14 76/76/76
o nml-bd123_part_1
v 0.5874077 5.25 -0.318201452
v 0.38740772 5.25 -0.664611638
v 0.459551036 7 -0.7090028
v 0.63874644 7 -0.3986272
v -0.0125922933 5.25 -0.6646116
v 0.1011602 7 -0.709002733
v -0.0125922933 5.25 -0.6646116
v -0.2125923 5.25 -0.318201423
v -0.0780352354 7 -0.398627162
v 0.1011602 7 -0.709002733
v -0.2125923 5.25 -0.318201423
v -0.0125922337 5.25 0.0282087326
v 0.101160258 7 -0.08825162
v 0.38740778 5.25 0.028208673
v 0.4595511 7 -0.08825165
v 0.38740778 5.25 0.028208673
v 0.5874077 5.25 -0.318201452
v 0.63874644 7 -0.3986272
v 0.4595511 7 -0.08825165
v 0.63874644 7 -0.3986272
v 0.459551036 7 -0.7090028
v 0.360592216 8.75 -0.62094295
v 0.524017334 8.75 -0.33788228
v 0.1011602 7 -0.709002733
v 0.03374186 8.75 -0.62094295
v -0.0780352354 7 -0.398627162
v -0.1296833 8.75 -0.33788228
v -0.0780352354 7 -0.398627162
v 0.101160258 7 -0.08825162
v 0.03374192 8.75 -0.05482158
v -0.1296833 8.75 -0.33788228
v 0.101160258 7 -0.08825162
v 0.4595511 7 -0.08825165
v 0.360592276 8.75 -0.05482164
v 0.03374192 8.75 -0.05482158
v 0.08362302 8.185802 -0.117635131
v 0.299726129 8.226427 -0.00604772568
v -0.325466424 8.699693 0.880859733
v -0.4502793 8.67623 0.816411138
v 0.293468118 8.4295435 -0.14571476
v -0.329080731 8.817005 0.800193548
v 0.293468118 8.4295435 -0.14571476
v 0.07736513 8.38892 -0.257302046
v -0.453893721 8.793543 0.7357451
v -0.329080731 8.817005 0.800193548
v 0.07736513 8.38892 -0.257302046
v 0.08362302 8.185802 -0.117635131
v -0.4502793 8.67623 0.816411138
v -0.453893721 8.793543 0.7357451
v -0.845174134 8.286257 3.956228
v -0.252555043 8.619216 2.30123258
v -1.404136 8.935916 1.83914065
v -1.99675465 8.602956 3.494136
v 0.33465156 8.522196 0.701215148
v -0.8169294 8.838895 0.239122987
v -2.56391954 8.516134 1.46420586
v -3.15653849 8.183174 3.11920142
v -1.976713 8.419113 -0.135811687
v -0.2441265 6.169218 -1.23194826
v -0.362007648 6.143199 -0.7673868
v 0.56675756 6.34819746 -0.52023375
v 0.6846389 6.374216 -0.9847945
v -2.78600287 9.06347 3.21252847
v -1.29049778 9.031451 2.111695
v -1.97509742 9.241731 0.9917425
v -3.47060275 9.27375 2.09257579
v 0.116328329 8.576078 1.13504994
v -0.5682716 8.786358 0.0150972605
v -2.80666375 8.725308 0.07926369
v -4.30217028 8.757327 1.1800971
v -1.39983845 8.269936 -0.897381544
v -0.642129242 5.95955324 -2.46948934
v -0.366751641 6.158404 -1.45639372
v 0.355179757 6.347544 -1.62364864
v 0.0798021853 6.148693 -2.63674426
v -0.107512861 6.100461 -0.472074032
v 0.6144187 6.289601 -0.639328957
v 1.051341 6.09684134 -1.83639371
v 0.7759636 5.89799 -2.84948945
v 1.31058 6.038898 -0.8520741
v 3.51583385 8.195644 -1.1806221
v 1.0616138 8.195644 -0.184785783
v 1.0616138 9.920843 -0.184785783
v 3.51583385 10.1324177 -1.1806221
v 3.52633119 8.195644 -1.13028741
v 3.52633119 10.1324177 -1.13028741
v 1.07211089 9.920843 -0.134451136
v 1.07211089 8.195644 -0.134451091
v -0.476360261 7.007959 2.26692629
v -0.476360381 8.643667 2.266926
v -1.94160533 8.429945 2.0017035
v -1.94160533 7.007959 2.0017035
v 2.66800022 9.684835 0.895735264
v 1.29961491 9.754093 -0.001701951
v 1.29961491 8.480545 -0.001701951
v 2.66800022 8.480545 0.895735264
v 0.4267768 8.778346 0.612645566
v -0.6058479 8.788553 0.228678465
v -0.736911237 8.789848 0.9504005
v 0.295712531 8.779639 1.33436656
v 2.80307961 9.78952 0.942322731
v 2.80307961 8.480545 0.942322731
v 1.43469429 8.480545 0.0448855162
v 1.43469429 9.858778 0.0448855162
v -0.4672019 7.00795937 2.21633053
v -1.93244743 7.007959 1.95110774
v -1.93244743 8.429945 1.95110774
v -0.4672019 8.643667 2.21633029
v 0.337290049 8.123814 0.197131872
v 0.243484676 8.539468 0.1297845
v -0.319630116 8.820522 0.831543446
v -0.331453919 8.570469 0.9114909
v 0.104753733 8.492903 -0.02173981
v -0.0757436156 8.472347 -0.0696629
v -0.5026011 8.798855 0.7539129
v -0.425574124 8.835669 0.7891512
v -0.0997253358 8.129508 -0.08432576
v -0.4811781 8.490471 0.787502766
v -1.29617882 7.3986783 2.66107965
v -1.296179 8.629516 2.66107965
v -0.199817955 8.538368 0.278957129
v -0.199817955 7.3986783 0.278957069
v -0.157799274 8.538368 0.308591366
v -1.25415993 8.629516 2.69071364
v -1.25415993 7.3986783 2.69071364
v -0.157799244 7.3986783 0.308591247
v 3.022851 10.24337 -0.9057423
v 3.022851 8.54758 -0.9057423
v 3.20219135 8.54758 -2.13749886
v 3.20219135 10.2786293 -2.13749838
v 3.16648769 8.54758 -2.145369
v 2.98714733 8.54758 -0.9136126
v 2.98714733 10.24337 -0.9136126
v 3.16648769 10.2786293 -2.14536881
vt 0.445597827 0.0100955367
vt 0.666242242 0.0100955367
vt 0.666242242 0.9906303
vt 0.445597827 0.9906303
vt 0.445597827 0.0100955367
vt 0.445597827 0.9906303
vt 0.445506662 0.0101377368
vt 0.666242242 0.0101377368
vt 0.666242242 0.9906303
vt 0.445506662 0.9906303
vt 0.666242242 0.0100955367
vt 0.445597827 0.0100955367
vt 0.445597827 0.9906303
vt 0.666242242 0.0100955367
vt 0.666242242 0.9906303
vt 0.666676641 0.0102343559
vt 0.444782645 0.0102343559
vt 0.444782645 0.9906303
vt 0.666676641 0.9906303
vt 0.223543525 0.0130278468
vt 0.4453584 0.0130278468
vt 0.4453584 0.9937707
vt 0.223543525 0.9937707
vt 0.223543525 0.0130278468
vt 0.223543525 0.9937707
vt 0.4453584 0.0130278468
vt 0.4453584 0.9937707
vt 0.444965363 0.0130278468
vt 0.223150417 0.0130278468
vt 0.223150417 0.9937707
vt 0.444965363 0.9937707
vt 0.223543525 0.0130278468
vt 0.4453584 0.0130278468
vt 0.4453584 0.9937707
vt 0.223543525 0.9937707
vt 0 0
vt 0.279835343 0
vt 0.279835343 1
vt 0 1
vt 0 0
vt 0 1
vt 0.279835343 0
vt 0 0
vt 0 1
vt 0.279835343 1
vt 0.336086273 0
vt 0.6159217 0
vt 0.6159217 1
vt 0.336086273 1
vt 0.9995005 0.3720674
vt 0.5000001 0.3720672
vt 0.5 0.7026936
vt 0.9995004 0.70269376
vt 0.000499725342 0.3720671
vt 0.000499606133 0.7026934
vt 0.49999994 0.9995003
vt 0.9995003 0.9995005
vt 0.0004994869 0.999500155
vt 0.490585923 0.3672521
vt 0.490585566 0.000499725342
vt 0.999500155 0.0004994869
vt 0.9995005 0.367251873
vt 0.9995005 0.3720674
vt 0.5000001 0.3720672
vt 0.5 0.7026936
vt 0.9995004 0.70269376
vt 0.000499725342 0.3720671
vt 0.000499606133 0.7026934
vt 0.49999994 0.9995003
vt 0.9995003 0.9995005
vt 0.0004994869 0.999500155
vt 0.9995005 0.3720674
vt 0.5000001 0.3720672
vt 0.5 0.7026936
vt 0.9995004 0.70269376
vt 0.000499725342 0.3720671
vt 0.000499606133 0.7026934
vt 0.49999994 0.9995003
vt 0.9995003 0.9995005
vt 0.0004994869 0.999500155
vt 0.424853563 0.726304531
vt 0.00902093947 0.7851482
vt 0.009020954 0.9937167
vt 0.424853563 0.9937167
vt 0.424853563 0.726304531
vt 0.424853563 0.9937167
vt 0.009020954 0.9937167
vt 0.00902093947 0.785148263
vt 0.502848148 0.716825545
vt 0.502848148 0.9937167
vt 0.999114752 0.9937167
vt 0.999114752 0.7723703
vt 0.999114752 0.9937167
vt 0.502848148 0.9937167
vt 0.502848148 0.758442342
vt 0.999114752 0.774469435
vt 0.9995005 0.367251873
vt 0.490585923 0.3672521
vt 0.490585566 0.000499725342
vt 0.999500155 0.0004994869
vt 0.999114752 0.9937167
vt 0.999114752 0.7502311
vt 0.502848148 0.7341558
vt 0.502848148 0.9937167
vt 0.502848148 0.7168256
vt 0.999114752 0.7723703
vt 0.999114752 0.9937167
vt 0.502848148 0.9937167
vt 0.0129838586 1.10730839
vt 0.0129838586 1.23093271
vt 0.6377101 1.23624945
vt 0.6377101 1.10730839
vt 0.0129838586 1.318042
vt 0.0129838586 1.23093271
vt 0.6377101 1.23624945
vt 0.6377101 1.318042
vt 0.0129838586 1.10730839
vt 0.6377101 1.10730839
vt 0.428594679 0.745579541
vt 0.428594679 0.9937167
vt 0.01276207 0.9937167
vt 0.0127620529 0.7710351
vt 0.01276207 0.9937167
vt 0.428594679 0.9937167
vt 0.4285947 0.7455795
vt 0.0127620529 0.7710351
vt 0.999114752 0.9937167
vt 0.9991147 0.756451964
vt 0.502848148 0.741573334
vt 0.502848148 0.9937167
vt 0.502848148 0.7415734
vt 0.999114752 0.7564521
vt 0.999114752 0.9937167
vt 0.502848148 0.9937167
vn 0.9994801 -0.0286407266 0.0148060955
vn 0.493076146 -0.04236914 -0.8689538
vn 0.5062089 0.0143313929 -0.8622918
vn 0.9997652 0.0176537354 -0.01256286
vn -0.518725753 0.012033321 -0.854856
vn -0.4823218 0.0171512328 -0.8758262
vn -0.518725753 0.012033321 -0.854856
vn -0.99690944 0.0772968158 0.014027833
vn -0.9996286 0.023863323 -0.0131622888
vn -0.4823218 0.0171512328 -0.8758262
vn -0.99690944 0.0772968158 0.014027833
vn -0.504001737 0.08992678 0.859008431
vn -0.4931649 0.0276058558 0.8694977
vn 0.480886579 0.0384681858 0.875938535
vn 0.5174148 0.0242203362 0.85539186
vn 0.480886579 0.0384681858 0.875938535
vn 0.9994801 -0.0286407266 0.0148060955
vn 0.9997652 0.0176537354 -0.01256286
vn 0.5174148 0.0242203362 0.85539186
vn 0.9997652 0.0176537354 -0.01256286
vn 0.5062089 0.0143313929 -0.8622918
vn 0.491950423 0.07148052 -0.8676839
vn 0.9978193 0.065022774 0.011343156
vn -0.4823218 0.0171512328 -0.8758262
vn -0.516061962 0.0232045818 -0.8562369
vn -0.9996286 0.023863323 -0.0131622888
vn -0.9994944 -0.0298760515 0.01088386
vn -0.9996286 0.023863323 -0.0131622888
vn -0.4931649 0.0276058558 0.8694977
vn -0.506109059 -0.03595905 0.861719549
vn -0.9994944 -0.0298760515 0.01088386
vn -0.4931649 0.0276058558 0.8694977
vn 0.5174148 0.0242203362 0.85539186
vn 0.483688384 0.0106331892 0.8751757
vn -0.506109059 -0.03595905 0.861719549
vn -0.6481456 -0.7609615 0.0290669389
vn 0.634131432 -0.40111506 0.6610477
vn 0.5725835 -0.4838756 0.6618251
vn -0.6044432 -0.7934677 0.07111535
vn 0.5447315 0.8384753 0.0150592858
vn 0.5880445 0.8068514 0.0565199
vn 0.5447315 0.8384753 0.0150592858
vn -0.63116765 0.539356 -0.557424843
vn -0.6927081 0.457942635 -0.55717504
vn 0.5880445 0.8068514 0.0565199
vn -0.63116765 0.539356 -0.557424843
vn -0.6481456 -0.7609615 0.0290669389
vn -0.6044432 -0.7934677 0.07111535
vn -0.6927081 0.457942635 -0.55717504
vn 0.162153482 0.9545441 0.2501034
vn 0.207305983 0.9672742 0.146304041
vn -0.0590976924 0.9972965 0.0436700732
vn -0.101881064 0.981678963 0.161017522
vn 0.2523216 0.9670472 0.03396328
vn -0.01868258 0.9975548 -0.06734557
vn -0.326113433 0.944098055 -0.0482590571
vn -0.356770217 0.9322757 0.05980793
vn -0.288717061 0.9434085 -0.163165137
vn -0.215533674 0.9764964 1.12762059E-07
vn -0.2155339 0.976496339 3.69495922E-07
vn -0.215533361 0.976496458 -2.61353563E-07
vn -0.215533152 0.9764965 -5.18087631E-07
vn 0.108647451 0.986944854 0.118893221
vn 0.204639643 0.9770957 0.058365792
vn 0.0446284562 0.9826718 -0.179901287
vn -0.05721124 0.992655158 -0.106595568
vn 0.3036994 0.952743948 -0.00675929431
vn 0.139213651 0.9590562 -0.2466389
vn -0.131592751 0.909330547 -0.39471668
vn -0.217854053 0.921071231 -0.322749674
vn -0.03746996 0.8839292 -0.466117084
vn -0.276102036 0.954544067 -0.112308912
vn -0.2537301 0.9672741 -0.00134680839
vn 0.0234736875 0.9972966 -0.06963177
vn -0.008594201 0.981678963 -0.190348551
vn -0.226357967 0.9670471 0.116541654
vn 0.053860262 0.9975548 0.04453719
vn 0.295053422 0.944098 -0.147045821
vn 0.258351684 0.932275653 -0.2532123
vn 0.3301419 0.9434084 -0.0314139649
vn -0.375991166 -1.80357311E-08 -0.9266232
vn -0.375991166 0 -0.9266232
vn -0.3759912 -1.13523653E-08 -0.9266232
vn -0.3759912 -2.85170341E-08 -0.9266232
vn 0.375991136 1.731173E-08 0.9266233
vn 0.375991166 2.85170376E-08 0.9266232
vn 0.375991136 1.01667048E-08 0.9266233
vn 0.3759911 -1.96983E-09 0.9266233
vn -0.178114712 6.71365044E-08 0.984009743
vn -0.178114638 1.3044702E-07 0.984009743
vn -0.1781147 6.889644E-08 0.984009743
vn -0.178114772 0 0.984009743
vn -0.5484148 2.15358185E-08 0.836206436
vn -0.5484148 5.13338527E-08 0.836206436
vn -0.5484148 3.06004146E-08 0.836206436
vn -0.5484148 0 0.836206436
vn 0.009884517 0.9999511 2.338042E-06
vn 0.009884001 0.9999511 5.593079E-07
vn 0.009884298 0.9999511 1.58361911E-06
vn 0.009884814 0.9999511 3.36235462E-06
vn 0.5484148 -2.10835154E-08 -0.836206436
vn 0.5484148 0 -0.836206436
vn 0.5484148 -2.7060798E-08 -0.836206436
vn 0.5484148 -4.74347459E-08 -0.836206436
vn 0.178114653 -7.381734E-08 -0.984009743
vn 0.178114712 0 -0.984009743
vn 0.178114638 -7.575236E-08 -0.984009743
vn 0.1781146 -1.4342794E-07 -0.984009743
vn 0.7957136 0.246495485 0.5532448
vn 0.5971685 0.7890142 0.144382626
vn 0.598417342 0.7762396 0.198365256
vn 0.768809855 0.1614763 0.618754268
vn 0.0239021163 0.9304517 -0.365634173
vn -0.6116031 0.6005618 -0.515040934
vn -0.614046 0.5497328 -0.5663404
vn -0.0105953487 0.9262268 -0.376817852
vn -0.9003239 0.08126445 -0.42756626
vn -0.90212065 -0.07372254 -0.4251392
vn -0.9084058 -5.93106151E-08 -0.4180896
vn -0.9084058 -8.79810855E-08 -0.418089628
vn -0.9084058 -8.561482E-09 -0.4180896
vn -0.9084058 2.18656666E-08 -0.418089569
vn 0.90840584 -1.44434233E-08 0.418089539
vn 0.9084058 0 0.418089569
vn 0.9084058 -5.21407451E-09 0.418089569
vn 0.90840584 -1.9976973E-08 0.418089539
vn 0.9895663 -1.19864394E-08 0.14407815
vn 0.9895663 0 0.144078135
vn 0.9895663 -7.999193E-09 0.14407815
vn 0.9895663 -1.98439754E-08 0.144078165
vn -0.9895663 3.999597E-09 -0.14407815
vn -0.9895663 0 -0.14407815
vn -0.9895663 5.9932197E-09 -0.14407815
vn -0.9895663 9.921988E-09 -0.144078165
usemtl nml-bd123_part_1_material_0
f 77/77/77 78/78/78 79/79/79
f 79/79/79 80/80/80 77/77/77
f 78/78/78 81/81/81 82/82/82
f 82/82/82 79/79/79 78/78/78
f 83/83/83 84/84/84 85/85/85
f 85/85/85 86/86/86 83/83/83
f 87/87/87 88/88/88 89/89/89
f 89/89/89 85/85/85 87/87/87
f 88/88/88 90/90/90 91/91/91
f 91/91/91 89/89/89 88/88/88
f 92/92/92 93/93/93 94/94/94
f 94/94/94 95/95/95 92/92/92
f 96/96/96 97/97/97 98/98/98
f 98/98/98 99/99/99 96/96/96
f 97/97/97 100/100/100 101/101/101
f 101/101/101 98/98/98 97/97/97
f 100/100/100 102/102/102 103/103/103
f 103/103/103 101/101/101 100/100/100
f 104/104/104 105/105/105 106/106/106
f 106/106/106 107/107/107 104/104/104
f 108/108/108 109/109/109 110/110/110
f 110/110/110 111/111/111 108/108/108
f 109/109/109 96/96/96 99/99/99
f 99/99/99 110/110/110 109/109/109
f 112/112/112 113/113/113 114/114/114
f 114/114/114 115/115/115 112/112/112
f 113/113/113 116/116/116 117/117/117
f 117/117/117 114/114/114 113/113/113
f 118/118/118 119/119/119 120/120/120
f 120/120/120 121/121/121 118/118/118
f 122/122/122 123/123/123 124/124/124
f 124/124/124 125/125/125 122/122/122
usemtl nml-bd123_part_1_material_1
f 126/126/126 127/127/127 128/128/128
f 128/128/128 129/129/129 126/126/126
f 127/127/127 130/130/130 131/131/131
f 131/131/131 128/128/128 127/127/127
f 129/129/129 128/128/128 132/132/132
f 132/132/132 133/133/133 129/129/129
f 128/128/128 131/131/131 134/134/134
f 134/134/134 132/132/132 128/128/128
f 135/135/135 136/136/136 137/137/137
f 137/137/137 138/138/138 135/135/135
f 139/139/139 140/140/140 141/141/141
f 141/141/141 142/142/142 139/139/139
f 140/140/140 143/143/143 144/144/144
f 144/144/144 141/141/141 140/140/140
f 142/142/142 141/141/141 145/145/145
f 145/145/145 146/146/146 142/142/142
f 141/141/141 144/144/144 147/147/147
f 147/147/147 145/145/145 141/141/141
f 148/148/148 149/149/149 150/150/150
f 150/150/150 151/151/151 148/148/148
f 149/149/149 152/152/152 153/153/153
f 153/153/153 150/150/150 149/149/149
f 151/151/151 150/150/150 154/154/154
f 154/154/154 155/155/155 151/151/151
f 150/150/150 153/153/153 156/156/156
f 156/156/156 154/154/154 150/150/150
f 173/173/173 174/174/174 175/175/175
f 175/175/175 176/176/176 173/173/173
usemtl nml-bd123_part_1_material_2
f 157/157/157 158/158/158 159/159/159
f 159/159/159 160/160/160 157/157/157
f 161/161/161 162/162/162 163/163/163
f 163/163/163 164/164/164 161/161/161
f 165/165/165 166/166/166 167/167/167
f 167/167/167 168/168/168 165/165/165
f 169/169/169 170/170/170 171/171/171
f 171/171/171 172/172/172 169/169/169
f 177/177/177 178/178/178 179/179/179
f 179/179/179 180/180/180 177/177/177
f 181/181/181 182/182/182 183/183/183
f 183/183/183 184/184/184 181/181/181
f 185/185/185 186/186/186 187/187/187
f 187/187/187 188/188/188 185/185/185
f 189/189/189 190/190/190 191/191/191
f 191/191/191 192/192/192 189/189/189
f 190/190/190 193/193/193 194/194/194
f 194/194/194 191/191/191 190/190/190
f 186/186/186 189/189/189 192/192/192
f 192/192/192 187/187/187 186/186/186
f 195/195/195 196/196/196 197/197/197
f 197/197/197 198/198/198 195/195/195
f 199/199/199 200/200/200 201/201/201
f 201/201/201 202/202/202 199/199/199
f 203/203/203 204/204/204 205/205/205
f 205/205/205 206/206/206 203/203/203
f 207/207/207 208/208/208 209/209/209
f 209/209/209 210/210/210 207/207/207
o nml-bd123_part_2
v 0.1646488 10.5 -0.495038539
v 0.3161543 10.5 -0.232623219
v 0.524017334 8.75 -0.33788234
v 0.360592216 8.75 -0.62094295
v -0.138362259 10.5 -0.495038539
v 0.0337418541 8.75 -0.62094295
v -0.289867848 10.5 -0.23262319
v -0.129683316 8.75 -0.33788228
v -0.1383622 10.5 0.02979207
v 0.0337419137 8.75 -0.05482161
v 0.164648846 10.5 0.02979201
v 0.360592276 8.75 -0.05482167
v 0.178442389 12.25 -0.5821524
v 0.3257205 12.25 -0.327059269
v 0.3161543 10.5 -0.232623219
v 0.1646488 10.5 -0.495038539
v -0.116113842 12.25 -0.5821524
v -0.138362259 10.5 -0.495038539
v -0.263392 12.25 -0.327059269
v -0.289867848 10.5 -0.23262319
v -0.116113782 12.25 -0.07196608
v -0.1383622 10.5 0.02979207
v 0.178442433 12.25 -0.07196614
v 0.164648846 10.5 0.02979201
v 0.149047092 14 -0.5312383
v 0.2669299 14 -0.327059269
v 0.3257205 12.25 -0.327059269
v 0.178442389 12.25 -0.5821524
v -0.0867185444 14 -0.5312383
v -0.116113842 12.25 -0.5821524
v -0.2046014 14 -0.327059269
v -0.263392 12.25 -0.327059269
v -0.0867185 14 -0.122880235
v -0.116113782 12.25 -0.07196608
v 0.149047136 14 -0.122880265
v 0.178442433 12.25 -0.07196614
v 1.73761535 10.0969057 -0.383645177
v 1.75501168 10.0659523 -0.1991449
v 0.337518424 9.418943 -0.126241118
v 0.307397932 9.472538 -0.445688426
v 1.65063345 10.2516737 -0.322145075
v 0.1567957 9.740504 -0.33920595
v 1.6680299 10.22072 -0.137644768
v 1.65063345 10.2516737 -0.322145075
v 0.1567957 9.740504 -0.33920595
v 0.1869163 9.686911 -0.0197586417
v 1.75501168 10.0659523 -0.1991449
v 1.6680299 10.22072 -0.137644768
v 0.1869163 9.686911 -0.0197586417
v 0.337518424 9.418943 -0.126241118
v 2.81224751 10.299408 -0.677083433
v 2.821201 10.2834768 -0.582123756
v 1.75501168 10.0659523 -0.1991449
v 1.73761535 10.0969057 -0.383645177
v 2.76747918 10.3790646 -0.645430148
v 1.65063345 10.2516737 -0.322145075
v 2.77643275 10.3631334 -0.550470531
v 2.76747918 10.3790646 -0.645430148
v 1.65063345 10.2516737 -0.322145075
v 1.6680299 10.22072 -0.137644768
v 2.821201 10.2834768 -0.582123756
v 1.75501168 10.0659523 -0.1991449
v 0.557481766 13.7077055 -1.76213944
v 0.7318318 13.6767521 -1.69932985
v 0.194304243 13.0297432 -0.3856838
v -0.10756886 13.0833378 -0.494433433
v 0.57609725 13.8624735 -1.657251
v -0.07533753 13.3513041 -0.3128275
v 0.7504474 13.83152 -1.59444153
v 0.57609725 13.8624735 -1.657251
v -0.07533753 13.3513041 -0.3128275
v 0.226535574 13.29771 -0.204078108
v 0.7318318 13.6767521 -1.69932985
v 0.7504474 13.83152 -1.59444153
v 0.226535574 13.29771 -0.204078108
v 0.194304243 13.0297432 -0.3856838
v 0.749488235 13.8611116 -2.85944247
v 0.839223742 13.8451805 -2.8271153
v 0.7318318 13.6767521 -1.69932985
v 0.557481766 13.7077055 -1.76213944
v 0.759069562 13.9407682 -2.80545783
v 0.57609725 13.8624735 -1.657251
v 0.848804951 13.9248371 -2.77313066
v 0.759069562 13.9407682 -2.80545783
v 0.57609725 13.8624735 -1.657251
v 0.7504474 13.83152 -1.59444153
v 0.839223742 13.8451805 -2.8271153
v 0.7318318 13.6767521 -1.69932985
v 0.2669299 14 -0.327059269
v 0.149047092 14 -0.5312383
v 0.0311642736 14 -0.327059269
v -0.0867185444 14 -0.5312383
v -0.2046014 14 -0.327059269
v -0.0867185 14 -0.122880235
v 0.149047136 14 -0.122880265
v 0.395096838 13.9491367 -1.858107
v 1.65907633 13.9491367 -2.02275181
v 1.17037845 13.9491367 -3.807728
v -0.09360108 13.9491367 -3.643083
v 1.52925658 14.0624714 -3.84294558
v 1.60921037 13.7466736 -5.602192
v 0.356696367 13.5088882 -5.723159
v 0.276742578 13.824688 -3.96391273
v 1.4122622 13.9505024 -2.143517
v 0.159747958 13.7127171 -2.26448441
v 2.719281 13.5674152 -3.817412
v 2.79923487 13.2516174 -5.57665825
v 2.60228658 13.4554462 -2.11798358
v 0.0440926179 14.09034 -2.77705812
v -0.883206964 13.9597158 -3.57929
v -1.42733467 13.5770741 -2.99920273
v -0.5000349 13.7076979 -2.1969707
v 0.95679915 13.9325686 -2.05154324
v 0.412671745 13.5499268 -1.47145569
v 0.567541242 13.97883 -3.48626447
v -0.3597588 13.8482075 -4.28849554
v 1.48024786 13.8210583 -2.760749
v 1.94027948 13.9838114 -2.26674271
v 2.96380734 13.7542648 -3.03550053
v 2.45239663 13.5814247 -3.79382968
v 1.42886865 13.81097 -3.02507234
v 0.9331665 13.9024239 -1.54642057
v 0.421755672 13.7295828 -2.30475
v 2.47630858 13.6239662 -1.58759117
v 3.49983621 13.3944187 -2.35634947
v 1.46919537 13.5425787 -0.867269158
v 1.59976864 13.8330517 -4.24111557
v 2.28512454 13.679347 -4.75587654
v 1.9426831 13.5636129 -5.263655
v 1.25732708 13.7173176 -4.74889374
v 0.925403953 13.7785549 -3.75878644
v 0.5829624 13.66282 -4.26656532
v 1.95869446 13.5920992 -3.7863543
v 2.64405036 13.4383936 -4.301116
v 1.28433 13.5376015 -3.30402541
v -1.48372066 10.822567 -0.6985984
v -2.760228 10.5916615 -0.5295234
v -2.68594813 10.4177971 0.387549341
v -1.40944088 10.6487036 0.218474329
v -0.245495915 10.7406979 -0.833308041
v -0.171216011 10.5668335 0.08376473
v -1.61863875 10.4605913 -1.55840111
v -2.89514613 10.2296858 -1.3893261
v -0.3804141 10.3787212 -1.69311059
v -1.95806217 10.8785486 0.318095446
v -2.5972147 10.7452469 1.39383292
v -1.91666865 10.3547621 1.83613515
v -1.27751613 10.4880629 0.7603979
v -1.39335072 10.7175426 -0.729189634
v -0.712804437 10.3270578 -0.28688693
v -2.76459432 10.7647524 -0.08022022
v -3.40374684 10.6314526 0.995517
v -2.19988275 10.6037474 -1.1275053
v -1.36285925 10.8335228 -1.473758
v -2.30598521 10.6024885 -2.35148835
v -2.96660638 10.4285278 -1.71035
v -2.02348065 10.6595621 -0.832619369
v -0.4706312 10.7516079 -0.603701651
v -1.13125229 10.5776472 0.0374368429
v -0.78504765 10.4713459 -2.12524676
v -1.72817361 10.2403126 -3.00297737
v 0.107180476 10.38943 -1.25519037
v 1.2714895 13.7078352 -2.20426369
v 0.44381693 13.8028479 -3.019667
v 0.443817019 11.995575 -3.019667
v 1.27148962 11.995575 -2.204264
v -1.71717823 10.5300617 0.735590458
v -1.71717823 9.23103 0.735590458
v -1.09564316 9.23103 -0.2576204
v -1.09564316 10.6982288 -0.257620335
v -0.192324817 9.468441 -0.345054448
v -2.44735718 9.356929 -0.09402403
v -2.44735718 10.5189781 -0.09402406
v -0.2751742 10.643712 -0.315565825
v -1.40381229 13.9127369 -0.105447143
v -2.565935 13.77408 0.4806589
v -2.2163682 13.3679085 1.24914408
v -1.05424619 13.5065651 0.663037658
v -0.322891057 13.7452631 -0.708224535
v 0.0266756415 13.33909 0.06026098
v -1.88847542 13.7943687 -0.905801535
v -3.050598 13.655714 -0.319695383
v -0.807554 13.6268959 -1.50857842
v -0.5974833 13.9054108 -2.621725
v -2.04580379 13.6282749 -3.16096187
v -2.48322487 13.4196033 -2.14701319
v -1.03490436 13.6967373 -1.6077764
v 0.790915 13.80715 -2.067606
v 0.353493452 13.5984783 -1.05365717
v -0.256574273 13.4709654 -3.60909414
v -1.70489573 13.1938324 -4.14833069
v 1.13182354 13.3727045 -3.054975
v -0.145209253 13.6916618 -2.17450523
v -0.145209253 11.735672 -2.17450547
v 1.185902 11.735672 -4.30161572
v 1.185902 13.79786 -4.30161572
v -0.188795835 13.6916628 -2.20178127
v 1.14231527 13.7978621 -4.32889175
v 1.14231539 11.735672 -4.32889175
v -0.188795775 11.735672 -2.20178151
v 2.04233384 10.32147 0.468510449
v 3.30631328 10.32147 0.303865969
v 2.81761575 10.32147 -1.48111033
v 1.55363607 10.32147 -1.31646538
v 1.783174 9.927754 0.8467665
v 3.06064558 9.659643 1.45648956
v 3.52474642 9.404626 0.5716543
v 2.24727464 9.672737 -0.03806877
v 0.549303055 9.849629 0.245863557
v 1.01340389 9.594612 -0.638972163
v 1.38822532 9.589731 1.7452817
v 2.66569734 9.321621 2.35500479
v 0.154354811 9.511607 1.14437854
v 0.488184929 14.1079216 0.635165453
v 1.10834539 14.1079216 -0.3357216
v -0.411534041 14.1079216 -1.03410411
v -1.03169429 14.1079216 -0.0632168949
v 0.8125218 13.5679188 -1.27175593
v -0.08780679 13.7061577 -1.65785575
v -0.32589373 14.3157215 -0.379186034
v 0.574435055 14.1774826 0.00691360235
v 0.183906138 13.5430021 -0.287743777
v -0.431801766 13.7666473 -1.02913558
v -1.35357976 13.9549046 0.0562833846
v -0.7378714 13.7312593 0.797675133
v 0.468280047 11.995575 -3.06489253
v 0.46828 13.8028479 -3.06489253
v 1.29595244 13.7078352 -2.24948931
v 1.29595256 11.995575 -2.24948931
v -2.45651579 10.5189781 -0.0434286
v -2.45651579 9.356476 -0.04342857
v -0.179514319 9.469074 -0.4287017
v -0.2535536 10.6871452 -0.456803
v -1.76076519 10.5300617 0.7083148
v -1.13922977 10.6982288 -0.284896135
v -1.13922977 9.23103 -0.284896225
v -1.76076508 9.23103 0.708314657
v 0.5221243 13.8242493 -1.570529
v 0.4596592 13.5517483 -1.62136436
v -0.0578575134 13.0607243 -0.7472506
v 0.0586559474 13.4886036 -0.657639861
v 0.7192656 13.8054619 -1.50493646
v 0.6305427 13.8393955 -1.53352082
v 0.159432232 13.4298115 -0.5113968
v 0.348014235 13.4092579 -0.4696818
v 0.7111025 13.4941978 -1.52167368
v 0.371601939 13.0664177 -0.4543931
v 1.64932942 10.2479725 -0.3273313
v 1.6696502 9.975471 -0.3758591
v 0.4437938 9.41299248 -0.497003257
v 0.4242338 9.840874 -0.351322532
v 1.6680994 10.226305 -0.129461363
v 1.662447 10.2631187 -0.213977069
v 0.347739071 9.782082 -0.191037059
v 0.40563634 9.761526 -0.00677847862
v 1.68745172 9.917921 -0.164285183
v 0.404149 9.418687 0.0212912858
v 0.143281162 13.3205423 -0.497347385
v 0.143281177 12.2539444 -0.497347355
v 0.6393715 12.73873 -1.96830273
v 0.6393716 13.7093878 -1.968303
v 0.61535275 12.7380142 -1.96612811
v 0.119262092 12.2532272 -0.49517262
v 0.119262047 13.3205423 -0.495172679
v 0.6153528 13.7093878 -1.96612811
vt 0.996923745 0.9890071
vt 0.779391468 0.9890071
vt 0.779391468 0.01008141
vt 0.996923745 0.01008141
vt 0.779391468 0.9890071
vt 0.779391468 0.01008141
vt 0.996923745 0.9890071
vt 0.996923745 0.01008141
vt 0.779391468 0.9890071
vt 0.779391468 0.01008141
vt 0.996923745 0.9890071
vt 0.996923745 0.01008141
vt 0.222254947 0.987306535
vt -0.000114033021 0.987306535
vt -0.000114033021 0.0102686286
vt 0.222254947 0.0102686286
vt -0.000114033021 0.987306535
vt -0.000114033021 0.0102686286
vt 0.222254947 0.987306535
vt 0.222254947 0.0102686286
vt -0.000114033021 0.987306535
vt -0.000114033021 0.0102686286
vt 0.222254947 0.987306535
vt 0.222254947 0.0102686286
vt 0.665554166 0.99090296
vt 0.445754528 0.99090296
vt 0.445754528 0.00989598
vt 0.665554166 0.00989598
vt 0.445754528 0.99090296
vt 0.445754528 0.00989598
vt 0.665554166 0.99090296
vt 0.665554166 0.00989598
vt 0.445754528 0.99090296
vt 0.445754528 0.00989598
vt 0.665554166 0.99090296
vt 0.665554166 0.00989598
vt 0.279835343 1
vt 0 1
vt 0 0
vt 0.279835343 0
vt 0 1
vt 0 0
vt 0 1
vt 0.279835343 1
vt 0.279835343 0
vt 0 0
vt 0.6159217 1
vt 0.336086273 1
vt 0.336086273 0
vt 0.6159217 0
vt 0.279835343 1
vt 0 1
vt 0 0
vt 0.279835343 0
vt 0 1
vt 0 0
vt 0 1
vt 0.279835343 1
vt 0.279835343 0
vt 0 0
vt 0.279835343 1
vt 0.279835343 0
vt 0.279835343 1
vt 0 1
vt 0 0
vt 0.279835343 0
vt 0 1
vt 0 0
vt 0 1
vt 0.279835343 1
vt 0.279835343 0
vt 0 0
vt 0.6159217 1
vt 0.336086273 1
vt 0.336086273 0
vt 0.6159217 0
vt 0.279835343 1
vt 0 1
vt 0 0
vt 0.279835343 0
vt 0 1
vt 0 0
vt 0 1
vt 0.279835343 1
vt 0.279835343 0
vt 0 0
vt 0.279835343 1
vt 0.279835343 0
vt 0.5685316 0.9201359
vt 0.6559407 0.9272465
vt 0.598014951 0.992879331
vt 0.5685316 0.9201359
vt 0.6559407 0.9272465
vt 0.5685316 0.9201359
vt 0.6559407 0.9272465
vt 0.999500155 0.0004994869
vt 0.9995005 0.364259
vt 0.493578821 0.364259243
vt 0.493578464 0.000499725342
vt 0.5 0.695664644
vt 0.9995004 0.6956648
vt 0.9995005 0.366514444
vt 0.5000001 0.366514266
vt 0.000499606133 0.695664465
vt 0.000499725342 0.3665141
vt 0.49999994 0.9995003
vt 0.9995003 0.9995005
vt 0.0004994869 0.999500155
vt 0.5 0.695664644
vt 0.9995004 0.6956648
vt 0.9995005 0.366514444
vt 0.5000001 0.366514266
vt 0.000499606133 0.695664465
vt 0.000499725342 0.3665141
vt 0.49999994 0.9995003
vt 0.9995003 0.9995005
vt 0.0004994869 0.999500155
vt 0.5 0.695664644
vt 0.9995004 0.6956648
vt 0.9995005 0.366514444
vt 0.5000001 0.366514266
vt 0.000499606133 0.695664465
vt 0.000499725342 0.3665141
vt 0.49999994 0.9995003
vt 0.9995003 0.9995005
vt 0.0004994869 0.999500155
vt 0.5 0.695664644
vt 0.9995004 0.6956648
vt 0.9995005 0.366514444
vt 0.5000001 0.366514266
vt 0.000499606133 0.695664465
vt 0.000499725342 0.3665141
vt 0.49999994 0.9995003
vt 0.9995003 0.9995005
vt 0.0004994869 0.999500155
vt 0.5 0.695664644
vt 0.9995004 0.6956648
vt 0.9995005 0.366514444
vt 0.5000001 0.366514266
vt 0.000499606133 0.695664465
vt 0.000499725342 0.3665141
vt 0.49999994 0.9995003
vt 0.9995003 0.9995005
vt 0.0004994869 0.999500155
vt 0.5 0.695664644
vt 0.9995004 0.6956648
vt 0.9995005 0.366514444
vt 0.5000001 0.366514266
vt 0.000499606133 0.695664465
vt 0.000499725342 0.3665141
vt 0.49999994 0.9995003
vt 0.9995003 0.9995005
vt 0.0004994869 0.999500155
vt 0.5 0.695664644
vt 0.9995004 0.6956648
vt 0.9995005 0.366514444
vt 0.5000001 0.366514266
vt 0.000499606133 0.695664465
vt 0.000499725342 0.3665141
vt 0.49999994 0.9995003
vt 0.9995003 0.9995005
vt 0.0004994869 0.999500155
vt 0.502848148 0.9937167
vt 0.999114752 0.9937167
vt 0.999114752 0.700808465
vt 0.502848148 0.732190847
vt 0.999114752 0.9937167
vt 0.9991148 0.7661005
vt 0.502848148 0.7661005
vt 0.502848148 0.9937167
vt 0.009020937 0.7518926
vt 0.424853563 0.7736553
vt 0.424853563 0.9937167
vt 0.009020954 0.9937167
vt 0.5 0.695664644
vt 0.9995004 0.6956648
vt 0.9995005 0.366514444
vt 0.5000001 0.366514266
vt 0.000499606133 0.695664465
vt 0.000499725342 0.3665141
vt 0.49999994 0.9995003
vt 0.9995003 0.9995005
vt 0.0004994869 0.999500155
vt 0.5 0.695664644
vt 0.9995004 0.6956648
vt 0.9995005 0.366514444
vt 0.5000001 0.366514266
vt 0.000499606133 0.695664465
vt 0.000499725342 0.3665141
vt 0.49999994 0.9995003
vt 0.9995003 0.9995005
vt 0.0004994869 0.999500155
vt 0.999114752 0.9937167
vt 0.999114752 0.755440056
vt 0.502848148 0.739061534
vt 0.502848148 0.9937167
vt 0.999114752 0.9937167
vt 0.502848148 0.9937167
vt 0.502848148 0.739061236
vt 0.999114752 0.755439937
vt 0.999500155 0.0004994869
vt 0.9995005 0.364259
vt 0.493578821 0.364259243
vt 0.493578464 0.000499725342
vt 0.5 0.695664644
vt 0.9995004 0.6956648
vt 0.9995005 0.366514444
vt 0.5000001 0.366514266
vt 0.000499606133 0.695664465
vt 0.000499725342 0.3665141
vt 0.49999994 0.9995003
vt 0.9995003 0.9995005
vt 0.0004994869 0.999500155
vt 0.999500155 0.0004994869
vt 0.9995005 0.364259
vt 0.493578821 0.364259243
vt 0.493578464 0.000499725342
vt 0.999500155 0.0004994869
vt 0.9995005 0.364259
vt 0.493578821 0.364259243
vt 0.493578464 0.000499725342
vt 0.999500155 0.0004994869
vt 0.9995005 0.364259
vt 0.493578821 0.364259243
vt 0.493578464 0.000499725342
vt 0.999114752 0.700808465
vt 0.999114752 0.9937167
vt 0.502848148 0.9937167
vt 0.502848148 0.732190847
vt 0.424853563 0.9937167
vt 0.424853563 0.773569465
vt 0.009020937 0.7505618
vt 0.009020954 0.9937167
vt 0.999114752 0.9937167
vt 0.502848148 0.9937167
vt 0.502848148 0.7661005
vt 0.999114752 0.7661005
vt 0.629229248 1.23660731
vt 0.629229248 1.10766625
vt 0.0045030117 1.10766625
vt 0.0045030117 1.23129058
vt 0.629229248 1.23660731
vt 0.629229248 1.3184
vt 0.0045030117 1.3184
vt 0.0045030117 1.23129058
vt 0.629229248 1.10766625
vt 0.0045030117 1.10766625
vt 0.629229248 1.23660731
vt 0.629229248 1.10766625
vt 0.0045030117 1.10766625
vt 0.0045030117 1.23129058
vt 0.629229248 1.23660731
vt 0.629229248 1.3184
vt 0.0045030117 1.3184
vt 0.0045030117 1.23129058
vt 0.629229248 1.10766625
vt 0.0045030117 1.10766625
vt 0.00715041161 0.9937167
vt 0.00715039531 0.7783027
vt 0.4342064 0.751281142
vt 0.4342064 0.9937167
vt 0.4342064 0.7511022
vt 0.007150396 0.778158
vt 0.00715041161 0.9937167
vt 0.4342064 0.9937167
vn 0.4932945 0.0357311778 -0.869128168
vn 0.998181641 0.0573242046 0.018636357
vn 0.9927346 0.118990563 -0.0178671945
vn 0.512087345 0.118542179 -0.850713968
vn -0.5214704 -0.0140294693 -0.853154
vn -0.466579884 0.0177355 -0.884301245
vn -0.999141 -0.0375043266 0.0176268332
vn -0.995749056 -0.08995376 -0.0198032688
vn -0.5054449 -0.0171753746 0.862687945
vn -0.480506718 -0.08943755 0.8724186
vn 0.478004068 0.0279337447 0.877913356
vn 0.5325131 0.01870918 0.84621495
vn 0.497559428 -0.006682407 -0.867404163
vn 0.9998718 0.0135101518 -0.00859487
vn 0.998181641 0.0573242046 0.018636357
vn 0.4932945 0.0357311778 -0.869128168
vn -0.4951353 -0.00175840838 -0.8688141
vn -0.5214704 -0.0140294693 -0.853154
vn -0.999678552 0.02381267 -0.008703442
vn -0.999141 -0.0375043266 0.0176268332
vn -0.502072036 0.0452144146 0.86364305
vn -0.5054449 -0.0171753746 0.862687945
vn 0.5047029 0.0398408175 0.8623733
vn 0.478004068 0.0279337447 0.877913356
vn 0.391277224 0.6225821 -0.6777121
vn 0.782554448 0.622582138 -7.27013756E-08
vn 0.9998718 0.0135101518 -0.00859487
vn 0.497559428 -0.006682407 -0.867404163
vn -0.391277224 0.622582138 -0.677712
vn -0.4951353 -0.00175840838 -0.8688141
vn -0.7825545 0.6225821 8.730151E-08
vn -0.999678552 0.02381267 -0.008703442
vn -0.391277045 0.622582138 0.677712142
vn -0.502072036 0.0452144146 0.86364305
vn 0.391277373 0.622582138 0.677711964
vn 0.5047029 0.0398408175 0.8623733
vn 0.03773064 -0.5137009 -0.8571393
vn 0.380476 -0.729724467 0.568102241
vn 0.374582678 -0.7609613 0.529741168
vn 0.213749141 -0.4011156 -0.8907399
vn -0.241180465 0.862849236 -0.444210768
vn -0.281585544 0.83847487 -0.4665506
vn 0.02912412 0.5502691 0.8344793
vn -0.241180465 0.862849236 -0.444210768
vn -0.281585544 0.83847487 -0.4665506
vn -0.128147125 0.539356 0.83227
vn 0.380476 -0.729724467 0.568102241
vn 0.02912412 0.5502691 0.8344793
vn -0.128147125 0.539356 0.83227
vn 0.374582678 -0.7609613 0.529741168
vn -0.09267444 -0.627931952 -0.7727308
vn 0.3034556 -0.890495241 0.3390176
vn 0.380476 -0.729724467 0.568102241
vn 0.03773064 -0.5137009 -0.8571393
vn -0.270956 0.7007722 -0.6599251
vn -0.241180465 0.862849236 -0.444210768
vn 0.228862822 0.549011648 0.8038706
vn -0.270956 0.7007722 -0.6599251
vn -0.241180465 0.862849236 -0.444210768
vn 0.02912412 0.5502691 0.8344793
vn 0.3034556 -0.890495241 0.3390176
vn 0.380476 -0.729724467 0.568102241
vn -0.7699653 -0.5080101 -0.3861078
vn 0.6761464 -0.731520355 -0.08777277
vn 0.6388098 -0.760961235 -0.11340227
vn -0.7149757 -0.401115716 -0.5726394
vn -0.494387 0.8691389 0.013381917
vn -0.5420389 0.83847487 0.056157805
vn 0.766972 0.5568291 0.318896919
vn -0.494387 0.8691389 0.013381917
vn -0.5420389 0.83847487 0.056157805
vn 0.69851464 0.539356 0.4702897
vn 0.6761464 -0.731520355 -0.08777277
vn 0.766972 0.5568291 0.318896919
vn 0.69851464 0.539356 0.4702897
vn 0.6388098 -0.760961235 -0.11340227
vn -0.733612239 -0.643538833 -0.218336523
vn 0.4112076 -0.9064495 -0.0962163657
vn 0.6761464 -0.731520355 -0.08777277
vn -0.7699653 -0.5080101 -0.3861078
vn -0.708513141 0.702698767 -0.06498855
vn -0.494387 0.8691389 0.013381917
vn 0.8369568 0.5356341 0.112247288
vn -0.708513141 0.702698767 -0.06498855
vn -0.494387 0.8691389 0.013381917
vn 0.766972 0.5568291 0.318896919
vn 0.4112076 -0.9064495 -0.0962163657
vn 0.6761464 -0.731520355 -0.08777277
vn 0.782554448 0.622582138 -7.27013756E-08
vn 0.391277224 0.6225821 -0.6777121
vn 0 1 0
vn -0.391277224 0.622582138 -0.677712
vn -0.7825545 0.6225821 8.730151E-08
vn -0.391277045 0.622582138 0.677712142
vn 0.391277373 0.622582138 0.677711964
vn 0 1 0
vn 0 1 0
vn 0 1 0
vn 0 1 0
vn 0.106234737 0.9932897 -0.045713868
vn 0.11313121 0.9788302 -0.170565888
vn -0.166463971 0.969191432 -0.1815427
vn -0.179628611 0.9813082 -0.0690485761
vn 0.0988649 0.9924784 0.07219705
vn -0.191060334 0.98023 0.05143098
vn 0.384494126 0.922504961 -0.0338949263
vn 0.38263455 0.912232757 -0.146363154
vn 0.381052852 0.920462251 0.08687879
vn -0.08900199 0.9867994 0.135297924
vn -0.184690773 0.9813286 0.05369859
vn -0.3528624 0.8983625 0.2615969
vn -0.2705282 0.9005678 0.3402823
vn 0.00251921872 0.9778124 0.209467351
vn -0.179222688 0.890109062 0.419028759
vn 0.08822374 0.991948962 -0.09085035
vn -0.00291665923 0.9875271 -0.157422215
vn 0.184460729 0.98266834 -0.0183612462
vn 0.102858372 0.9932897 0.0528740957
vn 0.20356898 0.978830159 -0.02124063
vn 0.03414811 0.9691915 -0.243929729
vn -0.0610164851 0.981308162 -0.182513759
vn 0.00720245438 0.99247843 0.122207649
vn -0.161238655 0.980229855 -0.114680044
vn 0.2707792 0.9225052 0.275068641
vn 0.356365 0.9122328 0.202077389
vn 0.17541416 0.92046237 0.349254847
vn 0.102858476 0.9932897 0.05287413
vn 0.20356898 0.978830159 -0.02124057
vn 0.0341481976 0.969191551 -0.243929684
vn -0.0610163026 0.9813082 -0.182513639
vn 0.0072025517 0.99247843 0.122207664
vn -0.1612388 0.980229855 -0.114680052
vn 0.270779133 0.9225052 0.275068671
vn 0.3563652 0.9122327 0.202077538
vn 0.1754142 0.9204623 0.349254847
vn -0.0637150854 0.9932897 -0.09651937
vn -0.187828973 0.9788303 -0.08131155
vn -0.149376124 0.9691914 0.1958439
vn -0.0363224335 0.9813082 0.188983709
vn 0.0536497124 0.9924784 -0.1100383
vn 0.08428681 0.98023 0.179011136
vn -0.101103485 0.9225051 -0.372508347
vn -0.211484775 0.9122331 -0.3508631
vn 0.0183870438 0.920462132 -0.390399069
vn 0.148861781 0.9867994 0.06377338
vn 0.0853972957 0.981328547 0.172341332
vn 0.319671482 0.8983625 0.3012556
vn 0.382620424 0.900567949 0.206346691
vn 0.205747023 0.9778124 -0.0393832363
vn 0.444049239 0.8901092 0.102595985
vn -0.1049721 0.991949 -0.0708381161
vn -0.154445767 0.987527132 0.0306050815
vn -0.050571695 0.98266834 -0.178340629
vn 0.0339258946 0.9932897 -0.110564746
vn -0.056773 0.9788301 -0.196642965
vn -0.246131316 0.9691913 0.009360711
vn -0.168909729 0.981308043 0.0922174
vn 0.119027846 0.9924784 -0.0286196955
vn -0.0844793245 0.9802302 0.178919032
vn 0.223061681 0.922504842 -0.3150053
vn 0.136133164 0.9122334 -0.386390924
vn 0.312889069 0.920462 -0.234201044
vn -0.701806962 -5.7715468E-08 0.7123672
vn -0.701806962 -3.47188376E-08 0.7123672
vn -0.701806962 -7.426502E-08 0.7123672
vn -0.7018069 -9.8456205E-08 0.712367237
vn 0.8476996 -1.53995945E-08 0.53047657
vn 0.847699642 0 0.5304765
vn 0.847699642 -1.25857129E-08 0.5304765
vn 0.8476996 -2.69381371E-08 0.53047657
vn -0.105012394 0.0122007038 -0.9943961
vn -0.110636689 -2.54889088E-08 -0.9938609
vn -0.108174831 0.0053458293 -0.9941175
vn -0.102455795 0.0177324 -0.9945795
vn 0.09123779 0.9867994 0.133800447
vn -0.0206408873 0.9813286 0.191227958
vn 0.107598506 0.8983626 0.425872266
vn 0.2116999 0.90056777 0.3796852
vn 0.194659933 0.9778123 0.077398926
vn 0.3192729 0.8901085 0.3252255
vn -0.0504317023 0.991949 -0.116162859
vn -0.146682531 0.9875272 -0.0572213344
vn 0.0532310978 0.9826684 -0.177564964
vn -0.0110120121 0.9932897 -0.115127191
vn -0.127764434 0.9788301 -0.1598995
vn -0.22377409 0.9691913 0.102924056
vn -0.120705 0.981308043 0.14988263
vn 0.09898726 0.9924784 -0.0720294
vn -0.009504031 0.980230153 0.197632164
vn 0.085390985 0.922504961 -0.3764213
vn -0.02225113 0.912233353 -0.40906626
vn 0.199318171 0.920462 -0.336187333
vn 0.8476995 -4.49943833E-08 0.5304767
vn 0.8476995 -3.23303055E-08 0.5304767
vn 0.8476995 -4.910654E-08 0.5304767
vn 0.8476995 -6.13307236E-08 0.5304767
vn -0.8476995 -1.77383E-08 -0.5304767
vn -0.8476996 -4.90030736E-08 -0.5304766
vn -0.8476995 -2.56082E-08 -0.5304766
vn -0.8476995 6.49845333E-09 -0.5304767
vn 0 1 0
vn 0 1 0
vn 0 1 0
vn 0 1 0
vn 0.0374597572 0.9972965 0.06321725
vn 0.149870411 0.981678963 0.117665969
vn 0.265241563 0.954544067 -0.135987341
vn 0.166549012 0.9672742 -0.191421077
vn -0.06889179 0.9975548 0.0117650609
vn 0.0593448579 0.9670471 -0.247584626
vn -0.08104172 0.9440979 0.319548815
vn 0.0233641453 0.932275832 0.360992879
vn -0.19156909 0.9434084 0.2707061
vn 0 1 0
vn 0 1 0
vn 0 1 0
vn 0 1 0
vn 0.2927732 0.8831541 -0.3665007
vn 0.292773217 0.8831541 -0.366500646
vn 0.2927732 0.883154035 -0.3665007
vn 0.292773128 0.883154035 -0.366500765
vn 0.2716071 0.9602707 0.06410752
vn 0.2716071 0.9602707 0.0641075745
vn 0.2716071 0.9602707 0.06410749
vn 0.2716071 0.9602707 0.06410744
vn 0.7018071 3.910066E-08 -0.712367058
vn 0.701807141 2.31458976E-08 -0.712367
vn 0.7018071 3.24238059E-08 -0.712367058
vn 0.7018071 4.88605068E-08 -0.712367058
vn 0.171430245 0.0102847535 0.9851426
vn 0.166830674 2.527708E-08 0.9859856
vn 0.1772982 0.0234753843 0.9838772
vn 0.181833625 0.0337249637 0.982750833
vn -0.8476996 2.93039881E-09 -0.5304766
vn -0.8476995 2.69381477E-08 -0.5304767
vn -0.8476995 -2.92431745E-09 -0.5304766
vn -0.8476995 -2.91108648E-08 -0.5304766
vn -0.6073252 0.794068933 -0.0247104559
vn -0.887226343 0.272783518 -0.372046471
vn -0.888437867 0.3054196 -0.342632562
vn -0.5381163 0.8409735 0.05651944
vn 0.636472642 0.6024798 0.4815814
vn 0.008544077 0.933092356 0.3595354
vn 0.0188481919 0.928720057 0.370302349
vn 0.6672728 0.596728861 0.4457148
vn 0.9456037 -0.0235884041 0.32446447
vn 0.94029665 0.07945204 0.330952585
vn -0.223670721 0.7774601 -0.587815642
vn 0.01628368 0.176477969 -0.9841699
vn -0.07172333 0.297038734 -0.9521679
vn -0.285409033 0.83752346 -0.4659358
vn -0.152056053 0.572128356 0.805945456
vn -0.321304858 0.931027532 0.173063412
vn -0.326988935 0.923913 0.198653027
vn -0.116079263 0.5979468 0.7930859
vn 0.131031036 -0.0786542743 0.9882532
vn 0.111869276 0.0806069449 0.9904483
vn 0.947562 2.0582922E-08 0.3195721
vn 0.947562 2.07195345E-08 0.3195721
vn 0.947562 2.04537436E-08 0.319572121
vn 0.947562 2.0308752E-08 0.319572121
vn -0.94756186 -5.24420229E-10 -0.31957233
vn -0.94756186 -5.47264E-08 -0.31957233
vn -0.94756186 -2.68389435E-08 -0.319572359
vn -0.94756186 2.90717583E-08 -0.319572359
usemtl nml-bd123_part_2_material_0
f 211/211/211 212/212/212 213/213/213
f 213/213/213 214/214/214 211/211/211
f 215/215/215 211/211/211 214/214/214
f 214/214/214 216/216/216 215/215/215
f 217/217/217 215/215/215 216/216/216
f 216/216/216 218/218/218 217/217/217
f 219/219/219 217/217/217 218/218/218
f 218/218/218 220/220/220 219/219/219
f 221/221/221 219/219/219 220/220/220
f 220/220/220 222/222/222 221/221/221
f 212/212/212 221/221/221 222/222/222
f 222/222/222 213/213/213 212/212/212
f 223/223/223 224/224/224 225/225/225
f 225/225/225 226/226/226 223/223/223
f 227/227/227 223/223/223 226/226/226
f 226/226/226 228/228/228 227/227/227
f 229/229/229 227/227/227 228/228/228
f 228/228/228 230/230/230 229/229/229
f 231/231/231 229/229/229 230/230/230
f 230/230/230 232/232/232 231/231/231
f 233/233/233 231/231/231 232/232/232
f 232/232/232 234/234/234 233/233/233
f 224/224/224 233/233/233 234/234/234
f 234/234/234 225/225/225 224/224/224
f 235/235/235 236/236/236 237/237/237
f 237/237/237 238/238/238 235/235/235
f 239/239/239 235/235/235 238/238/238
f 238/238/238 240/240/240 239/239/239
f 241/241/241 239/239/239 240/240/240
f 240/240/240 242/242/242 241/241/241
f 243/243/243 241/241/241 242/242/242
f 242/242/242 244/244/244 243/243/243
f 245/245/245 243/243/243 244/244/244
f 244/244/244 246/246/246 245/245/245
f 236/236/236 245/245/245 246/246/246
f 246/246/246 237/237/237 236/236/236
f 247/247/247 248/248/248 249/249/249
f 249/249/249 250/250/250 247/247/247
f 251/251/251 247/247/247 250/250/250
f 250/250/250 252/252/252 251/251/251
f 253/253/253 254/254/254 255/255/255
f 255/255/255 256/256/256 253/253/253
f 257/257/257 258/258/258 259/259/259
f 259/259/259 260/260/260 257/257/257
f 261/261/261 262/262/262 263/263/263
f 263/263/263 264/264/264 261/261/261
f 265/265/265 261/261/261 264/264/264
f 264/264/264 266/266/266 265/265/265
f 267/267/267 268/268/268 269/269/269
f 269/269/269 270/270/270 267/267/267
f 271/271/271 267/267/267 270/270/270
f 270/270/270 272/272/272 271/271/271
f 273/273/273 274/274/274 275/275/275
f 275/275/275 276/276/276 273/273/273
f 277/277/277 273/273/273 276/276/276
f 276/276/276 278/278/278 277/277/277
f 279/279/279 280/280/280 281/281/281
f 281/281/281 282/282/282 279/279/279
f 283/283/283 284/284/284 285/285/285
f 285/285/285 286/286/286 283/283/283
f 287/287/287 288/288/288 289/289/289
f 289/289/289 290/290/290 287/287/287
f 291/291/291 287/287/287 290/290/290
f 290/290/290 292/292/292 291/291/291
f 293/293/293 294/294/294 295/295/295
f 295/295/295 296/296/296 293/293/293
f 297/297/297 293/293/293 296/296/296
f 296/296/296 298/298/298 297/297/297
f 299/299/299 300/300/300 301/301/301
f 300/300/300 302/302/302 301/301/301
f 302/302/302 303/303/303 301/301/301
f 303/303/303 304/304/304 301/301/301
f 304/304/304 305/305/305 301/301/301
f 305/305/305 299/299/299 301/301/301
usemtl nml-bd123_part_2_material_1
f 306/306/306 307/307/307 308/308/308
f 308/308/308 309/309/309 306/306/306
f 310/310/310 311/311/311 312/312/312
f 312/312/312 313/313/313 310/310/310
f 314/314/314 310/310/310 313/313/313
f 313/313/313 315/315/315 314/314/314
f 316/316/316 317/317/317 311/311/311
f 311/311/311 310/310/310 316/316/316
f 318/318/318 316/316/316 310/310/310
f 310/310/310 314/314/314 318/318/318
f 319/319/319 320/320/320 321/321/321
f 321/321/321 322/322/322 319/319/319
f 323/323/323 319/319/319 322/322/322
f 322/322/322 324/324/324 323/323/323
f 325/325/325 326/326/326 320/320/320
f 320/320/320 319/319/319 325/325/325
f 327/327/327 325/325/325 319/319/319
f 319/319/319 323/323/323 327/327/327
f 328/328/328 329/329/329 330/330/330
f 330/330/330 331/331/331 328/328/328
f 332/332/332 328/328/328 331/331/331
f 331/331/331 333/333/333 332/332/332
f 334/334/334 335/335/335 329/329/329
f 329/329/329 328/328/328 334/334/334
f 336/336/336 334/334/334 328/328/328
f 328/328/328 332/332/332 336/336/336
f 337/337/337 338/338/338 339/339/339
f 339/339/339 340/340/340 337/337/337
f 341/341/341 337/337/337 340/340/340
f 340/340/340 342/342/342 341/341/341
f 343/343/343 344/344/344 338/338/338
f 338/338/338 337/337/337 343/343/343
f 345/345/345 343/343/343 337/337/337
f 337/337/337 341/341/341 345/345/345
f 346/346/346 347/347/347 348/348/348
f 348/348/348 349/349/349 346/346/346
f 350/350/350 346/346/346 349/349/349
f 349/349/349 351/351/351 350/350/350
f 352/352/352 353/353/353 347/347/347
f 347/347/347 346/346/346 352/352/352
f 354/354/354 352/352/352 346/346/346
f 346/346/346 350/350/350 354/354/354
f 355/355/355 356/356/356 357/357/357
f 357/357/357 358/358/358 355/355/355
f 359/359/359 355/355/355 358/358/358
f 358/358/358 360/360/360 359/359/359
f 361/361/361 362/362/362 356/356/356
f 356/356/356 355/355/355 361/361/361
f 363/363/363 361/361/361 355/355/355
f 355/355/355 359/359/359 363/363/363
f 364/364/364 365/365/365 366/366/366
f 366/366/366 367/367/367 364/364/364
f 368/368/368 364/364/364 367/367/367
f 367/367/367 369/369/369 368/368/368
f 370/370/370 371/371/371 365/365/365
f 365/365/365 364/364/364 370/370/370
f 372/372/372 370/370/370 364/364/364
f 364/364/364 368/368/368 372/372/372
f 385/385/385 386/386/386 387/387/387
f 387/387/387 388/388/388 385/385/385
f 389/389/389 385/385/385 388/388/388
f 388/388/388 390/390/390 389/389/389
f 391/391/391 392/392/392 386/386/386
f 386/386/386 385/385/385 391/391/391
f 393/393/393 391/391/391 385/385/385
f 385/385/385 389/389/389 393/393/393
f 394/394/394 395/395/395 396/396/396
f 396/396/396 397/397/397 394/394/394
f 398/398/398 394/394/394 397/397/397
f 397/397/397 399/399/399 398/398/398
f 400/400/400 401/401/401 395/395/395
f 395/395/395 394/394/394 400/400/400
f 402/402/402 400/400/400 394/394/394
f 394/394/394 398/398/398 402/402/402
f 411/411/411 412/412/412 413/413/413
f 413/413/413 414/414/414 411/411/411
f 415/415/415 416/416/416 417/417/417
f 417/417/417 418/418/418 415/415/415
f 419/419/419 415/415/415 418/418/418
f 418/418/418 420/420/420 419/419/419
f 421/421/421 422/422/422 416/416/416
f 416/416/416 415/415/415 421/421/421
f 423/423/423 421/421/421 415/415/415
f 415/415/415 419/419/419 423/423/423
f 424/424/424 425/425/425 426/426/426
f 426/426/426 427/427/427 424/424/424
f 428/428/428 429/429/429 430/430/430
f 430/430/430 431/431/431 428/428/428
f 432/432/432 433/433/433 434/434/434
f 434/434/434 435/435/435 432/432/432
usemtl nml-bd123_part_2_material_2
f 373/373/373 374/374/374 375/375/375
f 375/375/375 376/376/376 373/373/373
f 377/377/377 378/378/378 379/379/379
f 379/379/379 380/380/380 377/377/377
f 381/381/381 382/382/382 383/383/383
f 383/383/383 384/384/384 381/381/381
f 403/403/403 404/404/404 405/405/405
f 405/405/405 406/406/406 403/403/403
f 407/407/407 408/408/408 409/409/409
f 409/409/409 410/410/410 407/407/407
f 436/436/436 437/437/437 438/438/438
f 438/438/438 439/439/439 436/436/436
f 440/440/440 441/441/441 442/442/442
f 442/442/442 443/443/443 440/440/440
f 444/444/444 445/445/445 446/446/446
f 446/446/446 447/447/447 444/444/444
f 448/448/448 449/449/449 450/450/450
f 450/450/450 451/451/451 448/448/448
f 452/452/452 453/453/453 454/454/454
f 454/454/454 455/455/455 452/452/452
f 456/456/456 452/452/452 455/455/455
f 455/455/455 457/457/457 456/456/456
f 453/453/453 448/448/448 451/451/451
f 451/451/451 454/454/454 453/453/453
f 458/458/458 459/459/459 460/460/460
f 460/460/460 461/461/461 458/458/458
f 462/462/462 463/463/463 464/464/464
f 464/464/464 465/465/465 462/462/462
f 466/466/466 462/462/462 465/465/465
f 465/465/465 467/467/467 466/466/466
f 463/463/463 458/458/458 461/461/461
f 461/461/461 464/464/464 463/463/463
f 468/468/468 469/469/469 470/470/470
f 470/470/470 471/471/471 468/468/468
f 472/472/472 473/473/473 474/474/474
f 474/474/474 475/475/475 472/472/472
o nml-bd123_part_3
v 4.18955946 10.5656767 -0.527865052
v 5.82800245 10.2327166 -1.1648221
v 5.422361 9.916018 -2.33747816
v 3.78391862 10.2489767 -1.70052123
v 2.59619117 10.4686556 0.07715088
v 2.19055 10.1519566 -1.09550548
v 4.66640949 10.145895 0.593869269
v 6.304852 9.812935 -0.0430875421
v 3.0730412 10.0488739 1.1988852
v 2.89249277 10.3604422 -1.37388158
v 3.48041582 10.0923309 -2.66153169
v 2.58782053 9.837314 -3.1105268
v 1.99989748 10.1054249 -1.82287657
v 2.31264758 10.2823172 -0.129976034
v 1.42005181 10.0273 -0.578971148
v 3.79759073 10.022419 -0.994261265
v 4.385514 9.754309 -2.28191161
v 3.2177453 9.944295 0.2496441
vt 0.5 0.695664644
vt 0.9995004 0.6956648
vt 0.9995005 0.366514444
vt 0.5000001 0.366514266
vt 0.000499606133 0.695664465
vt 0.000499725342 0.3665141
vt 0.49999994 0.9995003
vt 0.9995003 0.9995005
vt 0.0004994869 0.999500155
vt 0.5 0.695664644
vt 0.9995004 0.6956648
vt 0.9995005 0.366514444
vt 0.5000001 0.366514266
vt 0.000499606133 0.695664465
vt 0.000499725342 0.3665141
vt 0.49999994 0.9995003
vt 0.9995003 0.9995005
vt 0.0004994869 0.999500155
vn 0.07171448 0.9972966 0.0160198715
vn 0.1883888 0.981678963 -0.0285666063
vn 0.0826463848 0.9545442 -0.286382616
vn -0.0253470726 0.9672742 -0.2524642
vn -0.0386250541 0.9975548 0.0582457781
vn -0.1397025 0.9670472 -0.212844849
vn 0.177263021 0.944098 0.277951
vn 0.2789804 0.9322757 0.230286747
vn 0.06596318 0.9434085 0.325006574
vn 0.062571466 0.9972965 -0.0385287665
vn 0.11510177 0.981678963 -0.151848614
vn -0.14047575 0.954544067 -0.262891978
vn -0.194224074 0.9672742 -0.163271546
vn 0.0129342275 0.9975548 0.06868189
vn -0.2485575 0.9670471 -0.05512833
vn 0.3208801 0.9440979 0.07559894
vn 0.360543638 0.932275832 -0.02949622
vn 0.2739229 0.9434084 0.186940491
usemtl nml-bd123_part_3_material_0
f 476/476/476 477/477/477 478/478/478
f 478/478/478 479/479/479 476/476/476
f 480/480/480 476/476/476 479/479/479
f 479/479/479 481/481/481 480/480/480
f 482/482/482 483/483/483 477/477/477
f 477/477/477 476/476/476 482/482/482
f 484/484/484 482/482/482 476/476/476
f 476/476/476 480/480/480 484/484/484
f 485/485/485 486/486/486 487/487/487
f 487/487/487 488/488/488 485/485/485
f 489/489/489 485/485/485 488/488/488
f 488/488/488 490/490/490 489/489/489
f 491/491/491 492/492/492 486/486/486
f 486/486/486 485/485/485 491/491/491
f 493/493/493 491/491/491 485/485/485
f 485/485/485 489/489/489 493/493/493
