mtllib nml-bd025.mtl
o nml-bd025_part_0
v 0.9674413 0.7754101 0.6960758
v 0.885091 -0.07963097 -0.3118481
v 0.413579524 0.6713716 0.8277809
v 0.332277179 -0.06800777 -0.100879192
v -0.2232374 0.638574 0.931298852
v -0.280509472 -0.05165553 0.0932820439
v 0.775426 1.69449174 0.9997368
v 0.263731122 1.46060038 1.24041414
v -0.3207035 1.28061521 1.282873
v 0.327186644 0.7088353 -0.7482708
v -0.163574338 0.130312145 -0.195318162
v 0.6774813 0.630272448 -0.52425
v 0.227748573 0.024461925 -0.0122306943
v 1.05532825 0.6034358 -0.242070019
v 0.6407989 -0.0595116019 0.211024642
v 0.5874042 1.379917 -0.798769057
v 0.973159432 1.20657361 -0.6526789
v 1.29180825 1.07236481 -0.3674726
v 0.350357383 1.434997 0.6362946
v 0.687246561 -0.03300011 0.2306189
v -0.183760285 1.30784762 0.6572855
v 0.08809012 -0.12238735 0.174202979
v -0.8255564 1.18812048 0.7973322
v -0.557093 -0.220493972 0.175585389
v 0.07647246 2.32738543 1.54553
v -0.5016496 2.205176 1.36655021
v -1.05732679 1.93572283 1.34670281
v 0.6718463 -0.097771585 -0.275388658
v -0.199140191 1.28035712 -0.7306971
v -0.496040225 1.22683215 -0.236805022
v 0.3361803 0.00161981583 0.229133666
v -0.91588366 1.13772345 0.250237
v -0.110083878 0.09157783 0.731085658
v -1.19275963 1.85466707 -1.25069952
v -1.368313 1.89406407 -0.6600873
v -1.63555372 1.74332106 -0.123771191
v -0.608630061 0.589257 -0.351042569
v -0.137241662 -0.0943735242 0.1654836
v -0.146586537 0.727643669 -0.589552462
v 0.324801832 0.0440131426 -0.07302606
v 0.315457 0.866030335 -0.828062236
v 0.7868453 0.182399839 -0.311535776
v -1.13436294 1.14156437 -1.20941257
v -0.607931137 1.3086741 -1.30652308
v -0.210275769 1.41833782 -1.68643236
v 0.289499462 0.7648892 -0.08999318
v 0.0797089338 0.332428336 -0.0002449751
v 0.402148932 0.760938168 0.154291451
v 0.192358434 0.328477234 0.244039774
v 0.5147984 0.7569871 0.39857614
v 0.305007875 0.3245262 0.488324255
v 0.6767595 1.16728091 -0.222920835
v 0.7179008 1.15642321 0.0542271733
v 0.9020584 1.15937877 0.265648276
vt 0.0007899526 0.5040755
vt 0.0007899526 0.0180186629
vt 0.172685727 0.5040755
vt 0.172685727 0.0180186629
vt 0.353186041 0.5040755
vt 0.353186041 0.0180186629
vt 0.0007899526 0.9901325
vt 0.172685727 0.9901325
vt 0.353186041 0.9901325
vt 0.0007899526 0.5040755
vt 0.0007899526 0.0180186629
vt 0.172685727 0.5040755
vt 0.172685727 0.0180186629
vt 0.353186041 0.5040755
vt 0.353186041 0.0180186629
vt 0.0007899526 0.9901325
vt 0.172685727 0.9901325
vt 0.353186041 0.9901325
vt 0.3510662 0.50160867
vt 0.3510662 0.00321733952
vt 0.678526 0.50160867
vt 0.678526 0.00321733952
vt 1 0.50160867
vt 1 0.00321733952
vt 0.3510662 1
vt 0.678526 1
vt 1 1
vt 0.350598574 0.00321733952
vt 0.350598574 0.50160867
vt 0.678292155 0.50160867
vt 0.678292155 0.00321733952
vt 1 0.50160867
vt 1 0.00321733952
vt 0.350598574 1
vt 0.678292155 1
vt 1 1
vt 0.349195629 0.50160867
vt 0.349195629 0.00321733952
vt 0.677590668 0.50160867
vt 0.677590668 0.00321733952
vt 1 0.50160867
vt 1 0.00321733952
vt 0.349195629 1
vt 0.677590668 1
vt 1 1
vt 0.349195629 0.50160867
vt 0.349195629 0.00321733952
vt 0.677590668 0.50160867
vt 0.677590668 0.00321733952
vt 1 0.50160867
vt 1 0.00321733952
vt 0.349195629 1
vt 0.677590668 1
vt 1 1
vn -0.333640754 0.5554501 -0.761681736
vn -0.233963922 0.764535964 -0.600621045
vn -0.2243192 0.6120042 -0.7583744
vn -0.1904752 0.7727693 -0.6054311
vn -0.162158132 0.6186487 -0.768751264
vn -0.175602168 0.7657474 -0.6187041
vn -0.485196978 0.181257024 -0.855412066
vn -0.314654678 0.3424682 -0.8852728
vn -0.183736652 0.4364638 -0.880761147
vn -0.304692984 0.569500148 0.7634342
vn -0.161908239 0.717850149 0.677109241
vn -0.379702538 0.600149155 0.70402205
vn -0.213759691 0.6920849 0.689438343
vn -0.434125334 0.5869179 0.6834198
vn -0.255248785 0.649265 0.7164517
vn -0.2772856 0.178558618 0.944049537
vn -0.4165372 0.340813518 0.842818439
vn -0.503836334 0.435602635 0.7459218
vn -0.099621594 0.4404678 -0.892224
vn 0.009946186 0.309071332 -0.950986862
vn -0.186115548 0.410356283 -0.8927311
vn -0.03478851 0.34521544 -0.9378785
vn -0.2436572 0.4201242 -0.8741435
vn -0.0617495 0.393159181 -0.9173946
vn 0.061019253 0.7214849 -0.6897363
vn -0.110856265 0.630587637 -0.7681602
vn -0.248867378 0.538034 -0.8053474
vn 0.699734151 0.605923 0.378456682
vn 0.5748776 0.7260163 0.37738058
vn 0.532508552 0.7043026 0.469459742
vn 0.661795139 0.6309944 0.404812634
vn 0.484898031 0.7041614 0.518681645
vn 0.612247765 0.666848 0.4248134
vn 0.467064142 0.8805888 0.08008993
vn 0.443855852 0.8492845 0.285845727
vn 0.4056022 0.79688 0.447737753
vn 0.09125952 0.7374288 0.669231236
vn 0.174025461 0.6672147 0.724251151
vn 0.127552837 0.7494113 0.6497022
vn 0.174025357 0.6672147 0.724251151
vn 0.09715976 0.7675615 0.633568764
vn 0.174025342 0.667214751 0.7242511
vn -0.14123261 0.7909143 0.5954057
vn 0.09318016 0.8239362 0.5589692
vn 0.17909798 0.8371834 0.5167667
vn -0.755787432 0.567794144 0.326182723
vn -0.800372243 0.466428727 0.3766278
vn -0.7374432 0.568300664 0.364982069
vn -0.800372243 0.4664287 0.376627862
vn -0.724143863 0.5979571 0.343603015
vn -0.800372243 0.4664286 0.376627952
vn -0.6924494 0.7095494 0.13058871
vn -0.6573288 0.6607296 0.3624297
vn -0.6159873 0.64743793 0.448757976
usemtl nml-bd025_part_0_material_0
f 1/1/1 2/2/2 3/3/3
f 4/4/4 3/3/3 2/2/2
f 3/3/3 4/4/4 5/5/5
f 6/6/6 5/5/5 4/4/4
f 7/7/7 1/1/1 8/8/8
f 3/3/3 8/8/8 1/1/1
f 8/8/8 3/3/3 9/9/9
f 5/5/5 9/9/9 3/3/3
f 10/10/10 11/11/11 12/12/12
f 13/13/13 12/12/12 11/11/11
f 12/12/12 13/13/13 14/14/14
f 15/15/15 14/14/14 13/13/13
f 16/16/16 10/10/10 17/17/17
f 12/12/12 17/17/17 10/10/10
f 17/17/17 12/12/12 18/18/18
f 14/14/14 18/18/18 12/12/12
f 19/19/19 20/20/20 21/21/21
f 22/22/22 21/21/21 20/20/20
f 21/21/21 22/22/22 23/23/23
f 24/24/24 23/23/23 22/22/22
f 25/25/25 19/19/19 26/26/26
f 21/21/21 26/26/26 19/19/19
f 26/26/26 21/21/21 27/27/27
f 23/23/23 27/27/27 21/21/21
f 28/28/28 29/29/29 30/30/30
f 30/30/30 31/31/31 28/28/28
f 31/31/31 30/30/30 32/32/32
f 32/32/32 33/33/33 31/31/31
f 29/29/29 34/34/34 35/35/35
f 35/35/35 30/30/30 29/29/29
f 30/30/30 35/35/35 36/36/36
f 36/36/36 32/32/32 30/30/30
f 37/37/37 38/38/38 39/39/39
f 40/40/40 39/39/39 38/38/38
f 39/39/39 40/40/40 41/41/41
f 42/42/42 41/41/41 40/40/40
f 43/43/43 37/37/37 44/44/44
f 39/39/39 44/44/44 37/37/37
f 44/44/44 39/39/39 45/45/45
f 41/41/41 45/45/45 39/39/39
f 46/46/46 47/47/47 48/48/48
f 49/49/49 48/48/48 47/47/47
f 48/48/48 49/49/49 50/50/50
f 51/51/51 50/50/50 49/49/49
f 52/52/52 46/46/46 53/53/53
f 48/48/48 53/53/53 46/46/46
f 53/53/53 48/48/48 54/54/54
f 50/50/50 54/54/54 48/48/48
