mtllib nml-bd122.mtl
o nml-bd122_part_0
v 0.7274294 0.174811244 -0.9802816
v 0.44200933 1.24319959 -1.01884151
v 0.603028059 1.24319959 -0.7320062
v 1.04500425 0.174811244 -0.481407017
v -0.04109189 0.174811244 -1.40443516
v 0.07886946 1.24319959 -1.08029246
v 0.44200933 1.24319959 -1.01884151
v 0.440114647 0.174811244 -0.963481247
v 0.340285033 0.174811244 -1.24646378
v -0.6254758 0.174811244 -1.25702024
v -0.304250479 1.24319959 -1.01884151
v -0.899107754 0.174811244 -0.71483326
v -0.3445239 1.24319959 -0.547663748
v -0.3445239 1.24319959 -0.547663748
v -0.899107754 0.174811244 -0.71483326
v -0.598942459 0.174811244 0.0221104026
v -0.196656525 1.24319959 -0.29565382
v -0.047930032 0.174811244 0.1796124
v 0.0808385462 1.24319959 -0.3141976
v -0.2309438 0.174811244 -0.07991743
v -0.196656525 1.24319959 -0.29565382
v -0.598942459 0.174811244 0.0221104026
v 0.742398441 0.174811244 0.06070572
v 0.437117517 1.24319959 -0.3814057
v 0.497249 2.39528322 -0.761291862
v 0.363854349 2.39528322 -0.940451145
v 0.1345988 4.12036657 -0.9048639
v 0.3611379 4.12036657 -0.75296855
v 0.363854349 2.39528322 -0.940451145
v 0.02861178 2.39528322 -0.953917861
v 0.1345988 4.12036657 -0.9048639
v 0.02861178 2.39528322 -0.953917861
v -0.205286622 2.39528322 -0.855505168
v -0.172012031 4.12036657 -0.819524765
v 0.1345988 4.12036657 -0.9048639
v -0.205286622 2.39528322 -0.855505168
v -0.242679 2.39528322 -0.5581764
v -0.200673759 4.12036657 -0.5232137
v -0.172012031 4.12036657 -0.819524765
v -0.242679 2.39528322 -0.5581764
v 0.0411566123 2.39528322 -0.3960205
v 0.09116688 4.12036657 -0.423277318
v -0.200673759 4.12036657 -0.5232137
v 0.402940452 2.39528322 -0.488900244
v 0.497249 2.39528322 -0.761291862
v 0.3611379 4.12036657 -0.75296855
v 0.3343063 4.12036657 -0.520149469
v 0.3611379 4.12036657 -0.75296855
v 0.1345988 4.12036657 -0.9048639
v 0.122987382 6.18054962 -0.902905345
v 0.340200663 6.18054962 -0.7628585
v 0.1345988 4.12036657 -0.9048639
v -0.172012031 4.12036657 -0.819524765
v -0.1681065 6.18054962 -0.825232863
v 0.122987382 6.18054962 -0.902905345
v -0.200673759 4.12036657 -0.5232137
v -0.167087555 6.18054962 -0.501929045
v 0.09116688 4.12036657 -0.423277318
v 0.113114044 6.18054962 -0.417532861
v 0.3343063 4.12036657 -0.520149469
v 0.3611379 4.12036657 -0.75296855
v 0.340200663 6.18054962 -0.7628585
v 0.294085115 6.18054962 -0.5059567
v 0.340200663 6.18054962 -0.7628585
v 0.122987382 6.18054962 -0.902905345
v 0.111457296 8.240733 -0.955356538
v 0.332612485 8.240733 -0.7535325
v 0.122987382 6.18054962 -0.902905345
v -0.1681065 6.18054962 -0.825232863
v -0.176048458 8.240733 -0.890639544
v 0.111457296 8.240733 -0.955356538
v -0.167087555 6.18054962 -0.501929045
v -0.14278695 8.240733 -0.5611547
v 0.113114044 6.18054962 -0.417532861
v 0.09495203 8.240733 -0.4166122
v 0.294085115 6.18054962 -0.5059567
v 0.340200663 6.18054962 -0.7628585
v 0.332612485 8.240733 -0.7535325
v 0.332499385 8.240733 -0.490423679
v 0.363854349 2.39528322 -0.940451145
v 0.497249 2.39528322 -0.761291862
v 0.02861178 2.39528322 -0.953917861
v -0.205286622 2.39528322 -0.855505168
v -0.242679 2.39528322 -0.5581764
v -0.196656525 1.24319959 -0.29565382
v -0.3445239 1.24319959 -0.547663748
v 0.0411566123 2.39528322 -0.3960205
v 0.402940452 2.39528322 -0.488900244
v 0.0396686271 6.641351 -0.7859311
v -0.0306928679 6.53070831 -0.841143131
v -0.6292146 6.98805237 -1.36810315
v -0.0306928679 6.53070831 -0.841143131
v -0.146138608 6.481292 -0.7742758
v -0.723045647 6.950355 -1.310816
v -0.6292146 6.98805237 -1.36810315
v -0.1620782 6.5633316 -0.6591409
v -0.723045647 6.950355 -1.310816
v -0.1620782 6.5633316 -0.6591409
v -0.0306928679 6.676511 -0.66738224
v -0.650028765 7.04158449 -1.2816329
v 0.0396686271 6.641351 -0.7859311
v 0.131425738 8.16782 -0.621837
v 0.214421511 8.057178 -0.655165851
v 1.02261281 8.361315 -0.8064197
v 0.214421511 8.057178 -0.655165851
v 0.214235544 8.007761 -0.788578451
v 1.0199163 8.323616 -0.9163233
v 1.02261281 8.361315 -0.8064197
v 0.1224956 8.089801 -0.85995
v 1.0199163 8.323616 -0.9163233
v 0.1224956 8.089801 -0.85995
v 0.0639401749 8.20298 -0.7420463
v 0.958134353 8.414846 -0.86768043
v 0.131425738 8.16782 -0.621837
v -0.2512864 6.868885 -1.33755827
v -1.12147868 7.027649 -2.077784
v -1.52335107 7.227324 -1.56154418
v -0.6764283 6.936088 -0.823354363
v -2.05081439 6.849713 -2.823184
v -2.45268655 7.04938841 -2.306944
v -1.94856584 7.29411364 -1.04734659
v -1.101643 7.002877 -0.309156746
v -2.90124345 6.98329163 -1.7947886
v -3.15670562 6.85855341 -3.87420583
v -3.18026185 7.228102 -3.11701918
v -2.34003568 7.2946763 -3.12337184
v -2.31647968 6.92512751 -3.88055825
v -2.16061521 6.91572857 -2.594852
v -2.65245628 6.85491133 -1.91305614
v -2.11570263 7.341644 -1.4824295
v -1.62386119 7.40246153 -2.164225
v -0.6473878 7.112927 -0.9383185
v -0.1753372 6.81486273 -1.425467
v -0.738299251 6.67832327 -1.8874402
v -1.21035016 6.976388 -1.40029168
v 0.2882298 8.27676 -0.485484958
v 1.70240951 8.27016 -0.4854852
v 1.70240927 8.435603 -1.30766749
v 0.288229644 8.277275 -1.30766726
v 3.11658883 7.844367 -0.485485554
v 3.11658859 8.00981 -1.30766773
v 1.70240915 8.435603 -2.12985
v 0.2882295 8.277275 -2.12984943
v 3.11658835 7.844367 -2.12985
v 2.279045 8.239819 -0.866153061
v 2.64506149 7.814026 -2.23214555
v 1.85089457 7.9794693 -2.444942
v 1.48487806 8.405262 -1.07894945
v 1.05672753 7.814026 -2.65773821
v 0.6907109 8.405262 -1.2917459
v -1.76807272 6.904945 -1.58587468
v -1.92729986 7.063709 -2.7171638
v -2.57056952 7.263384 -2.59796047
v -2.42739081 6.972148 -1.48364329
v -2.12731719 6.88577271 -3.89159083
v -2.77058673 7.08544827 -3.77238727
v -3.22993755 7.33017349 -2.49578238
v -3.08675885 7.038937 -1.3814652
v -3.4460535 7.01935148 -3.68723464
v -2.3182776 5.887458 -2.20520878
v -0.649131 5.88745737 -1.33759952
v -0.672254264 7.109986 -1.35176826
v -2.31827712 7.109986 -2.20520878
v -0.6982563 7.109986 -1.303828
v -0.632065952 5.887458 -1.36350048
v -2.27760959 5.88745737 -2.27157784
v -2.27760959 7.109986 -2.27157784
v 0.402940452 2.39528322 -0.488900244
v 0.3343063 4.12036657 -0.520149469
v 0.3343063 4.12036657 -0.520149469
v 0.294085115 6.18054962 -0.5059567
v 0.741076052 7.047222 -0.7730402
v 2.52073359 7.047222 -1.25929761
v 2.50101352 8.284317 -1.25427985
v 0.7293847 8.362413 -0.7990208
v 2.48181939 8.284317 -1.32971406
v 2.50153947 7.047222 -1.33473182
v 0.7218818 7.047222 -0.8484743
v 0.710190535 8.362413 -0.874455
v 0.205930352 -0.1960201 0.952389359
v 0.9756988 -0.1960201 0.782321334
v 0.742398441 0.174811244 0.06070572
v -0.047930032 0.174811244 0.1796124
v 0.7274294 0.174811244 -0.9802816
v 1.35646272 -0.22205916 -1.7004503
v 0.440114647 0.174811244 -0.963481247
v 1.04500425 0.174811244 -0.481407017
v 1.89902139 -0.22205916 -1.10739326
v -1.49232292 -0.178341582 -0.388350576
v -1.10929 -0.178341582 0.310168445
v -0.598942459 0.174811244 0.0221104026
v -0.899107754 0.174811244 -0.71483326
v 0.769063354 -0.26494202 -1.91168368
v 0.193241835 -0.26494205 -2.22865987
v -0.04109189 0.174811244 -1.40443516
v 0.340285033 0.174811244 -1.24646378
v 0.440114647 0.174811244 -0.963481247
v 1.35646272 -0.22205916 -1.7004503
v 0.7274294 0.174811244 -0.9802816
v 0.340285033 0.174811244 -1.24646378
v -0.047930032 0.174811244 0.1796124
v -0.3445239 1.24319959 -0.547663748
v -0.196656525 1.24319959 -0.29565382
v -0.5931014 -0.173312247 -2.17775464
v -1.06349742 -0.173312247 -1.74177945
v -0.6254758 0.174811244 -1.25702024
v -0.04109189 0.174811244 -1.40443516
vt 0.349289536 0
vt 0.4416548 0.440785825
vt 0.226056576 0.440785825
vt 0.226056591 0
vt 0.226056591 0
vt 0.226056576 0.440785825
vt 0.6882724 0.369357944
vt 0.2504574 0.369357944
vt 0.2504574 0.461833239
vt 0.4416548 0
vt 0.4416548 0.440785825
vt 0.226056591 0
vt 0.226056576 0.440785825
vt 0.4416548 0.440785825
vt 0.4416548 0
vt 0.226056591 0
vt 0.4078937 0.454208732
vt 0.226056591 0
vt 0.342473149 0.440785825
vt 0.2504574 0.369357944
vt 0.6882724 0.369357944
vt 0.2504574 0.461833239
vt 0.4416548 0
vt 0.4416548 0.440785825
vt 0.00556153059 0
vt 0.216970488 0
vt 0.216970488 1
vt 0.00556153059 1
vt 0.661955357 0
vt 0.450546384 0
vt 0.450546384 1
vt 0.00556153059 0
vt 0.216970488 0
vt 0.216970488 1
vt 0.00556153059 1
vt 0.661955357 0
vt 0.450546384 0
vt 0.450546384 1
vt 0.661955357 1
vt 0.00556153059 0
vt 0.135345787 0
vt 0.142035514 1
vt 0.00556153059 1
vt 0.660931647 0
vt 0.4495227 0
vt 0.4495227 1
vt 0.660931647 1
vt 0.4495227 0
vt 0.660931647 0
vt 0.660931647 1
vt 0.4495227 1
vt 0.00556153059 0
vt 0.216970488 0
vt 0.216970488 1
vt 0.00556153059 1
vt 0.00556153059 0
vt 0.00556153059 1
vt 0.142035514 0
vt 0.143831134 1
vt 0.00556153059 1
vt 0.216970488 1
vt 0.216970488 0
vt 0.00556153059 0
vt 0.00556153059 0
vt 0.216970488 0
vt 0.216970488 1
vt 0.00556153059 1
vt 0.4508385 0
vt 0.6622474 0
vt 0.6622474 1
vt 0.4508385 1
vt 0.4508385 0
vt 0.4508385 1
vt 0.5891081 0
vt 0.5889999 1
vt 0.6622474 0
vt 0.4508385 0
vt 0.4508385 1
vt 0.6622474 1
vt 0.4416548 1
vt 0.226056591 1
vt 0.226056591 1
vt 0.4416548 1
vt 0.226056591 1
vt 0.28716293 0.440785825
vt 0.226056576 0.440785825
vt 0.358412653 1
vt 0.4416548 1
vt 0.235640109 0
vt 0.447049081 0
vt 0.447049081 1
vt 0.235640109 0
vt 0.447049081 0
vt 0.447049081 1
vt 0.235640109 1
vt 0.235640109 0
vt 0.235640109 1
vt 0.447049081 0
vt 0.235640109 0
vt 0.235640109 1
vt 0.447049081 0
vt 0.235640109 0
vt 0.447049081 0
vt 0.447049081 1
vt 0.235640109 0
vt 0.447049081 0
vt 0.447049081 1
vt 0.235640109 1
vt 0.235640109 0
vt 0.235640109 1
vt 0.447049081 0
vt 0.235640109 0
vt 0.235640109 1
vt 0.447049081 0
vt 0.0004995167 0.36899972
vt 0.49999994 0.3689996
vt 0.5 0.694538
vt 0.00049957633 0.6945382
vt 0.999500334 0.368999362
vt 0.9995004 0.694537759
vt 0.50000006 0.9995003
vt 0.000499665737 0.999500453
vt 0.9995005 0.999500036
vt 0.484974146 0.369122624
vt 0.4849739 0.000499725342
vt 0.9938886 0.0004994869
vt 0.993888855 0.3691224
vt 0.484974146 0.369122624
vt 0.4849739 0.000499725342
vt 0.9938886 0.0004994869
vt 0.993888855 0.3691224
vt 0.484974146 0.369122624
vt 0.4849739 0.000499725342
vt 0.9938886 0.0004994869
vt 0.993888855 0.3691224
vt 0.0004995167 0.36899972
vt 0.49999994 0.3689996
vt 0.5 0.694538
vt 0.00049957633 0.6945382
vt 0.999500334 0.368999362
vt 0.9995004 0.694537759
vt 0.50000006 0.9995003
vt 0.000499665737 0.999500453
vt 0.9995005 0.999500036
vt 0.49999994 0.3689996
vt 0.999500334 0.368999362
vt 0.9995004 0.694537759
vt 0.5 0.694538
vt 0.9995005 0.999500036
vt 0.50000006 0.9995003
vt 0.0004995167 0.36899972
vt 0.49999994 0.3689996
vt 0.5 0.694538
vt 0.00049957633 0.6945382
vt 0.999500334 0.368999362
vt 0.9995004 0.694537759
vt 0.50000006 0.9995003
vt 0.000499665737 0.999500453
vt 0.9995005 0.999500036
vt 0 0.7463717
vt 0.496076941 0.7463716
vt 0.488918722 1
vt 0 1
vt 0.488918722 1
vt 0.496076971 0.7463717
vt 0 0.7463716
vt 0 1
vt 0.216970488 0
vt 0.216970488 1
vt 0.216970488 0
vt 0.216970488 1
vt 0 0.7594787
vt 0.494289815 0.7668383
vt 0.488918722 1
vt 0 1
vt 0.488918722 1
vt 0.494289815 0.7668383
vt 0 0.7594787
vt 0 1
vt 0.009530604 0.336863518
vt 0.231796622 0.336863518
vt 0.237441838 0.738015354
vt 0.0120375864 0.738015354
vt 0.1808557 0.7399023
vt 0.228625119 0.3421055
vt 0.237940729 0.7399023
vt 0.0143571869 0.7399023
vt 0.000128783286 0.3400581
vt 0.009530604 0.336863518
vt 0.231796622 0.336863518
vt 0.237441838 0.738015354
vt 0.0120375864 0.738015354
vt 0.0263387971 0.3410589
vt 0.247327864 0.34112227
vt 0.235614061 0.739710748
vt 0.09768232 0.739710748
vt 0.0157878175 0.739710748
vt 0.228546649 0.342696369
vt 0.2504574 0.4617232
vt 0.3491795 0
vt 0.2504574 0.4617232
vt 0.4416548 0.440785825
vt 0.342473149 0.440785825
vt 0.009530604 0.336863518
vt 0.231796622 0.336863518
vt 0.237441838 0.738015354
vt 0.0120375864 0.738015354
vn 0.3179873 0.690831542 -0.649334967
vn 0.5734283 0.162191808 -0.8030403
vn 0.969082534 0.233923644 -0.0784779638
vn 0.7541674 0.653665245 -0.0628751144
vn 0.0598606 0.64956826 -0.757943153
vn -0.00234518922 0.205315 -0.9786931
vn 0.5734283 0.162191808 -0.8030403
vn 0.5291582 0.33948797 -0.77765
vn 0.581835 0.5982896 -0.550924361
vn -0.447621644 0.651222765 -0.6128163
vn -0.6592104 0.302812546 -0.688292265
vn -0.7842508 0.6184068 0.05023677
vn -0.9327891 0.286076248 0.219237
vn -0.9327891 0.286076248 0.219237
vn -0.7842508 0.6184068 0.05023677
vn -0.483799517 0.6557726 0.5795691
vn -0.4435526 0.2920099 0.8473437
vn -0.182956725 0.601226449 0.7778519
vn 0.125131756 0.253321171 0.959255159
vn -0.3437814 0.196456209 0.918269753
vn -0.4435526 0.2920099 0.8473437
vn -0.483799517 0.6557726 0.5795691
vn 0.3575781 0.6725507 0.647930145
vn 0.580342 0.3031164 0.7558595
vn 0.983400643 0.0873476639 -0.159039572
vn 0.479022026 0.07900669 -0.87424016
vn 0.158972219 0.0268752128 -0.9869172
vn 0.908226848 0.03183269 -0.4172657
vn 0.479022026 0.07900669 -0.87424016
vn -0.176120386 0.0562024079 -0.9827629
vn 0.158972219 0.0268752128 -0.9869172
vn -0.176120386 0.0562024079 -0.9827629
vn -0.7929848 0.07496002 -0.60461235
vn -0.7702899 0.023422407 -0.6372636
vn 0.158972219 0.0268752128 -0.9869172
vn -0.7929848 0.07496002 -0.60461235
vn -0.896241963 0.09456912 0.433367074
vn -0.839240551 0.008816857 0.5436888
vn -0.7702899 0.023422407 -0.6372636
vn -0.896241963 0.09456912 0.433367074
vn -0.116674729 0.0802366 0.9899238
vn 0.02227743 -0.00034627656 0.999751747
vn -0.839240551 0.008816857 0.5436888
vn 0.6834172 0.06773954 0.726878464
vn 0.983400643 0.0873476639 -0.159039572
vn 0.908226848 0.03183269 -0.4172657
vn 0.791278839 0.0177843068 0.6111968
vn 0.908226848 0.03183269 -0.4172657
vn 0.158972219 0.0268752128 -0.9869172
vn 0.15710789 -0.0132439882 -0.9874926
vn 0.917303443 0.00166998035 -0.3981854
vn 0.158972219 0.0268752128 -0.9869172
vn -0.7702899 0.023422407 -0.6372636
vn -0.797972 -0.006139874 -0.6026632
vn 0.15710789 -0.0132439882 -0.9874926
vn -0.839240551 0.008816857 0.5436888
vn -0.8023797 0.00299382233 0.5968064
vn 0.02227743 -0.00034627656 0.999751747
vn 0.0793003961 -0.007649617 0.9968214
vn 0.791278839 0.0177843068 0.6111968
vn 0.908226848 0.03183269 -0.4172657
vn 0.917303443 0.00166998035 -0.3981854
vn 0.797201157 -0.0007668302 0.6037133
vn 0.917303443 0.00166998035 -0.3981854
vn 0.15710789 -0.0132439882 -0.9874926
vn 0.2465226 -0.01257143 -0.9690555
vn 0.9180664 -0.00611866731 -0.3963795
vn 0.15710789 -0.0132439882 -0.9874926
vn -0.797972 -0.006139874 -0.6026632
vn -0.806477964 -0.0183505137 -0.590979338
vn 0.2465226 -0.01257143 -0.9690555
vn -0.8023797 0.00299382233 0.5968064
vn -0.8510633 0.0173281152 0.524777055
vn 0.0793003961 -0.007649617 0.9968214
vn -0.113183059 0.0164120663 0.9934386
vn 0.797201157 -0.0007668302 0.6037133
vn 0.917303443 0.00166998035 -0.3981854
vn 0.9180664 -0.00611866731 -0.3963795
vn 0.8089176 -0.0108760614 0.5878215
vn 0.479022026 0.07900669 -0.87424016
vn 0.983400643 0.0873476639 -0.159039572
vn -0.176120386 0.0562024079 -0.9827629
vn -0.7929848 0.07496002 -0.60461235
vn -0.896241963 0.09456912 0.433367074
vn -0.4435526 0.2920099 0.8473437
vn -0.9327891 0.286076248 0.219237
vn -0.116674729 0.0802366 0.9899238
vn 0.6834172 0.06773954 0.726878464
vn 0.675034165 0.6130491 -0.4104872
vn 0.383083433 -0.434086651 -0.8153624
vn 0.5187499 -0.17563346 -0.8366908
vn 0.383083433 -0.434086651 -0.8153624
vn -0.5026382 -0.8420546 -0.195700824
vn -0.7630331 -0.6438715 0.05665685
vn 0.5187499 -0.17563346 -0.8366908
vn -0.7191257 0.0554626547 0.6926631
vn -0.7630331 -0.6438715 0.05665685
vn -0.7191257 0.0554626547 0.6926631
vn 0.05562762 0.896881163 0.4387594
vn 0.0302608814 0.903383732 0.427764148
vn 0.675034165 0.6130491 -0.4104872
vn 0.006961433 0.673257768 0.739375055
vn 0.3450512 -0.5241117 0.7786184
vn 0.347830147 -0.333509326 0.8762338
vn 0.3450512 -0.5241117 0.7786184
vn 0.289591551 -0.8855723 -0.3631782
vn 0.3201133 -0.743810534 -0.5867481
vn 0.347830147 -0.333509326 0.8762338
vn -0.142212063 0.19525671 -0.9703868
vn 0.3201133 -0.743810534 -0.5867481
vn -0.142212063 0.19525671 -0.9703868
vn -0.232355639 0.946527 -0.22382468
vn -0.20367302 0.965186656 -0.164109841
vn 0.006961433 0.673257768 0.739375055
vn 0.2696105 0.96292 0.009759807
vn 0.180032745 0.9564433 -0.229792014
vn 0.141686291 0.983106136 -0.1158765
vn 0.2559632 0.96283567 0.08619922
vn 0.06926895 0.9473842 -0.312513977
vn -0.0590435751 0.9744516 -0.216697857
vn 0.07181424 0.9969684 -0.029946642
vn 0.255765855 0.962866664 0.08643828
vn -0.244643092 0.9654584 -0.08966547
vn -0.074257724 0.8952861 -0.439259171
vn -0.07425778 0.8952861 -0.439259142
vn -0.07425773 0.8952861 -0.439259171
vn -0.07425767 0.8952861 -0.4392592
vn -0.5039633 0.8132233 -0.291013449
vn -0.5039631 0.8132234 -0.2910135
vn -0.503963351 0.8132233 -0.291013479
vn -0.50396353 0.8132232 -0.29101342
vn 0.129662022 0.896778643 -0.4230554
vn 0.129661664 0.8967787 -0.423055351
vn 0.129662022 0.896778643 -0.4230554
vn 0.12966238 0.8967786 -0.423055381
vn -0.0724842846 0.995078 0.06757069
vn 0.147825629 0.969578445 0.195103139
vn 0.107418031 0.990926743 0.0807807744
vn -0.111262396 0.993791044 0.0003112631
vn 0.283096522 0.940244436 0.189200357
vn 0.322163582 0.9461542 0.0316687934
vn 0.106907174 0.993791938 -0.0307975989
vn -0.111262396 0.993791044 2.01651034E-08
vn 0.3792436 0.9071139 -0.18253389
vn 0.256024331 0.940244436 -0.224481538
vn 0.256024331 0.940244436 -0.224481523
vn 0.113971837 0.9461542 -0.3029896
vn 0.16439189 0.9533643 -0.253123969
vn -0.07815866 0.9071139 -0.413564473
vn 0.0247091744 0.945633 -0.32429567
vn 0.195126891 0.96292 0.186307713
vn 0.287195146 0.956443369 -0.0522979125
vn 0.18288587 0.983106136 0.007424395
vn 0.134169459 0.96283567 0.2344057
vn 0.259293 0.9473842 -0.1876974
vn 0.09972682 0.9744516 -0.20124276
vn 0.07358393 0.9969683 0.02528832
vn 0.1338631 0.962866664 0.23445347
vn -0.123403035 0.9654584 -0.229481578
vn -0.4606334 0.0005790625 0.8875903
vn -0.4612069 0.0015600787 0.887291253
vn -0.4608733 0.000989237 0.8874654
vn -0.460294664 1.79534211E-07 0.8877662
vn 0.497220248 0.04359514 -0.8665284
vn 0.4820128 0.06873161 -0.873464167
vn 0.5078207 0.02558991 -0.8610826
vn 0.5224675 8.31431848E-08 -0.852659166
vn 0.6834172 0.06773954 0.726878464
vn 0.791278839 0.0177843068 0.6111968
vn 0.791278839 0.0177843068 0.6111968
vn 0.797201157 -0.0007668302 0.6037133
vn 0.254975826 0.0133760814 0.96685493
vn 0.263569534 0.000288852578 0.9646404
vn 0.258159935 0.008538729 0.966064453
vn 0.249711663 0.0213436075 0.968085
vn -0.258159935 -0.008538719 -0.966064453
vn -0.263569534 -0.000288852316 -0.9646404
vn -0.254975826 -0.0133760655 -0.96685493
vn -0.249711663 -0.021343587 -0.968085
vn 0.07946788 0.9025607 0.4231655
vn 0.0951121151 0.897565246 0.43050012
vn 0.3575781 0.6725507 0.647930145
vn -0.182956725 0.601226449 0.7778519
vn 0.3179873 0.690831542 -0.649334967
vn 0.2524227 0.9236068 -0.288501769
vn 0.5291582 0.33948797 -0.77765
vn 0.7541674 0.653665245 -0.0628751144
vn 0.288655847 0.927816033 -0.236294866
vn -0.4409172 0.872976243 0.20857726
vn -0.4525933 0.8564848 0.24817954
vn -0.483799517 0.6557726 0.5795691
vn -0.7842508 0.6184068 0.05023677
vn 0.261439383 0.8813401 -0.393559545
vn 0.224700734 0.8848095 -0.40819326
vn 0.0598606 0.64956826 -0.757943153
vn 0.581835 0.5982896 -0.550924361
vn 0.5291582 0.33948797 -0.77765
vn 0.2524227 0.9236068 -0.288501769
vn 0.3179873 0.690831542 -0.649334967
vn 0.581835 0.5982896 -0.550924361
vn -0.182956725 0.601226449 0.7778519
vn -0.9327891 0.286076248 0.219237
vn -0.4435526 0.2920099 0.8473437
vn -0.2248383 0.9087838 -0.3515107
vn -0.319676161 0.882519543 -0.344915032
vn -0.447621644 0.651222765 -0.6128163
vn 0.0598606 0.64956826 -0.757943153
usemtl nml-bd122_part_0_material_0
f 1/1/1 2/2/2 3/3/3
f 3/3/3 4/4/4 1/1/1
f 5/5/5 6/6/6 2/2/2
f 10/10/10 11/11/11 6/6/6
f 6/6/6 5/5/5 10/10/10
f 12/12/12 13/13/13 11/11/11
f 11/11/11 10/10/10 12/12/12
f 14/14/14 15/15/15 16/16/16
f 17/17/17 18/18/18 19/19/19
f 19/19/19 18/18/18 23/23/23
f 23/23/23 24/24/24 19/19/19
f 4/4/4 3/3/3 24/24/24
f 24/24/24 23/23/23 4/4/4
f 25/25/25 26/26/26 27/27/27
f 27/27/27 28/28/28 25/25/25
f 29/29/29 30/30/30 31/31/31
f 32/32/32 33/33/33 34/34/34
f 34/34/34 35/35/35 32/32/32
f 36/36/36 37/37/37 38/38/38
f 38/38/38 39/39/39 36/36/36
f 40/40/40 41/41/41 42/42/42
f 42/42/42 43/43/43 40/40/40
f 44/44/44 45/45/45 46/46/46
f 46/46/46 47/47/47 44/44/44
f 48/48/48 49/49/49 50/50/50
f 50/50/50 51/51/51 48/48/48
f 52/52/52 53/53/53 54/54/54
f 54/54/54 55/55/55 52/52/52
f 53/53/53 56/56/56 57/57/57
f 57/57/57 54/54/54 53/53/53
f 56/56/56 58/58/58 59/59/59
f 59/59/59 57/57/57 56/56/56
f 60/60/60 61/61/61 62/62/62
f 62/62/62 63/63/63 60/60/60
f 64/64/64 65/65/65 66/66/66
f 66/66/66 67/67/67 64/64/64
f 68/68/68 69/69/69 70/70/70
f 70/70/70 71/71/71 68/68/68
f 69/69/69 72/72/72 73/73/73
f 73/73/73 70/70/70 69/69/69
f 72/72/72 74/74/74 75/75/75
f 75/75/75 73/73/73 72/72/72
f 76/76/76 77/77/77 78/78/78
f 78/78/78 79/79/79 76/76/76
f 80/80/80 81/81/81 3/3/3
f 3/3/3 2/2/2 80/80/80
f 82/82/82 80/80/80 2/2/2
f 2/2/2 6/6/6 82/82/82
f 83/83/83 82/82/82 6/6/6
f 6/6/6 11/11/11 83/83/83
f 84/84/84 83/83/83 11/11/11
f 11/11/11 13/13/13 84/84/84
f 85/85/85 84/84/84 86/86/86
f 85/85/85 19/19/19 87/87/87
f 81/81/81 88/88/88 24/24/24
f 24/24/24 3/3/3 81/81/81
f 89/89/89 90/90/90 91/91/91
f 92/92/92 93/93/93 94/94/94
f 94/94/94 95/95/95 92/92/92
f 93/93/93 96/96/96 97/97/97
f 98/98/98 99/99/99 100/100/100
f 100/100/100 94/94/94 98/98/98
f 99/99/99 101/101/101 91/91/91
f 91/91/91 100/100/100 99/99/99
f 102/102/102 103/103/103 104/104/104
f 105/105/105 106/106/106 107/107/107
f 107/107/107 108/108/108 105/105/105
f 106/106/106 109/109/109 110/110/110
f 111/111/111 112/112/112 113/113/113
f 113/113/113 107/107/107 111/111/111
f 112/112/112 114/114/114 104/104/104
f 104/104/104 113/113/113 112/112/112
f 19/19/19 24/24/24 88/88/88
f 88/88/88 87/87/87 19/19/19
f 41/41/41 168/168/168 169/169/169
f 169/169/169 42/42/42 41/41/41
f 58/58/58 170/170/170 171/171/171
f 171/171/171 59/59/59 58/58/58
f 74/74/74 76/76/76 79/79/79
f 79/79/79 75/75/75 74/74/74
f 2/2/2 200/200/200 5/5/5
f 84/84/84 85/85/85 87/87/87
f 202/202/202 16/16/16 203/203/203
usemtl nml-bd122_part_0_material_1
f 115/115/115 116/116/116 117/117/117
f 117/117/117 118/118/118 115/115/115
f 116/116/116 119/119/119 120/120/120
f 120/120/120 117/117/117 116/116/116
f 118/118/118 117/117/117 121/121/121
f 121/121/121 122/122/122 118/118/118
f 120/120/120 123/123/123 121/121/121
f 121/121/121 117/117/117 120/120/120
f 124/124/124 125/125/125 126/126/126
f 126/126/126 127/127/127 124/124/124
f 128/128/128 129/129/129 130/130/130
f 130/130/130 131/131/131 128/128/128
f 132/132/132 133/133/133 134/134/134
f 134/134/134 135/135/135 132/132/132
f 136/136/136 137/137/137 138/138/138
f 138/138/138 139/139/139 136/136/136
f 137/137/137 140/140/140 141/141/141
f 141/141/141 138/138/138 137/137/137
f 139/139/139 138/138/138 142/142/142
f 142/142/142 143/143/143 139/139/139
f 141/141/141 144/144/144 142/142/142
f 142/142/142 138/138/138 141/141/141
f 145/145/145 146/146/146 147/147/147
f 147/147/147 148/148/148 145/145/145
f 147/147/147 149/149/149 150/150/150
f 150/150/150 148/148/148 147/147/147
f 151/151/151 152/152/152 153/153/153
f 153/153/153 154/154/154 151/151/151
f 152/152/152 155/155/155 156/156/156
f 156/156/156 153/153/153 152/152/152
f 154/154/154 153/153/153 157/157/157
f 157/157/157 158/158/158 154/154/154
f 156/156/156 159/159/159 157/157/157
f 157/157/157 153/153/153 156/156/156
usemtl nml-bd122_part_0_material_2
f 7/7/7 8/8/8 9/9/9
f 20/20/20 21/21/21 22/22/22
f 160/160/160 161/161/161 162/162/162
f 162/162/162 163/163/163 160/160/160
f 164/164/164 165/165/165 166/166/166
f 166/166/166 167/167/167 164/164/164
f 172/172/172 173/173/173 174/174/174
f 174/174/174 175/175/175 172/172/172
f 176/176/176 177/177/177 178/178/178
f 178/178/178 179/179/179 176/176/176
f 180/180/180 181/181/181 182/182/182
f 182/182/182 183/183/183 180/180/180
f 184/184/184 185/185/185 186/186/186
f 184/184/184 187/187/187 188/188/188
f 189/189/189 190/190/190 191/191/191
f 191/191/191 192/192/192 189/189/189
f 193/193/193 194/194/194 195/195/195
f 196/196/196 197/197/197 193/193/193
f 198/198/198 184/184/184 188/188/188
f 7/7/7 199/199/199 8/8/8
f 195/195/195 196/196/196 193/193/193
f 21/21/21 20/20/20 201/201/201
f 204/204/204 205/205/205 206/206/206
f 206/206/206 207/207/207 204/204/204
o nml-bd122_part_1
v 0.136930734 10.3009167 -0.93809706
v 0.353646457 10.3009167 -0.74971664
v 0.332612485 8.240733 -0.7535325
v 0.111457288 8.240733 -0.9553566
v -0.14610371 10.3009167 -0.860694766
v 0.136930734 10.3009167 -0.93809706
v 0.111457288 8.240733 -0.9553566
v -0.176048458 8.240733 -0.890639544
v -0.138861433 10.3009167 -0.5690193
v -0.14610371 10.3009167 -0.860694766
v -0.176048458 8.240733 -0.890639544
v -0.14278695 8.240733 -0.5611547
v 0.09038098 10.3009167 -0.451662123
v 0.09495203 8.240733 -0.4166122
v 0.353646457 10.3009167 -0.74971664
v 0.3157041 10.3009167 -0.520627439
v 0.332499385 8.240733 -0.490423679
v 0.332612485 8.240733 -0.7535325
v 0.11534375 12.3610992 -0.9165101
v 0.333225042 12.3610992 -0.778577447
v 0.353646457 10.3009167 -0.74971664
v 0.136930734 10.3009167 -0.93809706
v -0.124516726 12.3610992 -0.8391078
v 0.11534375 12.3610992 -0.9165101
v 0.136930734 10.3009167 -0.93809706
v -0.14610371 10.3009167 -0.860694766
v -0.12971586 12.3610992 -0.576474667
v -0.124516726 12.3610992 -0.8391078
v -0.14610371 10.3009167 -0.860694766
v -0.138861433 10.3009167 -0.5690193
v 0.0872533 12.3610992 -0.4712519
v -0.12971586 12.3610992 -0.576474667
v -0.138861433 10.3009167 -0.5690193
v 0.09038098 10.3009167 -0.451662123
v 0.333225042 12.3610992 -0.778577447
v 0.2959003 12.3610992 -0.54398036
v 0.3157041 10.3009167 -0.520627439
v 0.353646457 10.3009167 -0.74971664
v 0.09946707 14.4212818 -0.900633454
v 0.271544456 14.4212818 -0.758024931
v 0.333225042 12.3610992 -0.778577447
v 0.11534375 12.3610992 -0.9165101
v -0.108640045 14.4212818 -0.823231161
v 0.09946707 14.4212818 -0.900633454
v 0.11534375 12.3610992 -0.9165101
v -0.124516726 12.3610992 -0.8391078
v -0.09206782 14.4212818 -0.6078303
v -0.108640045 14.4212818 -0.823231161
v -0.124516726 12.3610992 -0.8391078
v -0.12971586 12.3610992 -0.576474667
v 0.08377515 14.4212818 -0.485787123
v -0.09206782 14.4212818 -0.6078303
v -0.12971586 12.3610992 -0.576474667
v 0.0872533 12.3610992 -0.4712519
v 0.271544456 14.4212818 -0.758024931
v 0.25595358 14.4212818 -0.575526655
v 0.2959003 12.3610992 -0.54398036
v 0.333225042 12.3610992 -0.778577447
v -0.768113 11.5241365 -1.48484206
v -0.7139994 11.6092291 -1.44237971
v 0.128441676 11.1159973 -0.706831
v 0.0369771272 10.97217 -0.778602362
v -0.8569001 11.4861317 -1.43341613
v -0.768113 11.5241365 -1.48484206
v 0.0369771272 10.97217 -0.778602362
v -0.113093719 10.9079323 -0.691679835
v -0.869159 11.5492268 -1.34486771
v -0.133814067 11.0145779 -0.5420131
v -0.768113 11.6362705 -1.35120606
v -0.869159 11.5492268 -1.34486771
v -0.133814067 11.0145779 -0.5420131
v 0.0369771272 11.1617022 -0.5527263
v -0.7139994 11.6092291 -1.44237971
v 0.128441676 11.1159973 -0.706831
v 1.3813343 13.8605356 -0.605620146
v 1.31402278 13.9456282 -0.591461
v 0.137366712 13.4523964 -0.4189158
v 0.251139 13.308569 -0.4428478
v 1.39901114 13.8225307 -0.7066909
v 1.3813343 13.8605356 -0.605620146
v 0.251139 13.308569 -0.4428478
v 0.2810163 13.2443314 -0.613681555
v 1.33905888 13.8856258 -0.7729996
v 0.179683626 13.3509769 -0.7257581
v 1.27896333 13.97267 -0.691519856
v 1.33905888 13.8856258 -0.7729996
v 0.179683626 13.3509769 -0.7257581
v 0.07810789 13.4981012 -0.5880382
v 1.31402278 13.9456282 -0.591461
v 0.137366712 13.4523964 -0.4189158
v -2.10573888 11.4058142 -3.512082
v -2.10573888 11.5149622 -2.20556
v -1.34614706 11.5144863 -2.20555973
v -1.34614682 11.252965 -3.512082
v -2.10573864 10.84915 -4.81860447
v -1.34614682 10.6963005 -4.81860447
v -2.8653307 11.4058142 -3.51208234
v -2.865331 11.5149622 -2.20556
v -2.8653307 10.6963005 -4.81860447
v -2.002059 11.6461182 -2.08107257
v -0.934736252 11.4602165 -0.8090873
v -0.19522357 11.4596119 -1.4296124
v -1.2625463 11.4518623 -2.70159769
v -3.06938171 11.1461735 -3.35305762
v -2.329869 10.9519176 -3.97358274
v -2.74157166 11.6461182 -1.46054757
v -1.6742487 11.4602165 -0.1885624
v -3.80889416 10.9519176 -2.73253274
v -3.137048 11.110548 -1.35629392
v -1.63216114 11.6104927 -2.058034
v -2.0401423 11.4162369 -2.93295217
v -3.54502916 10.9162922 -2.231212
v -1.22418 11.6104927 -1.18311584
v -2.72906685 10.9162922 -0.481375515
v -1.660394 11.6458015 -0.303995669
v -0.4254725 11.49325 -0.879848957
v -0.7602647 11.492753 -1.59781349
v -1.99518633 11.4863939 -1.02196014
v -2.89531541 11.2355433 0.271857679
v -3.230108 11.0761356 -0.446106553
v -1.32560182 11.6458015 0.4139688
v -0.09068008 11.49325 -0.161884785
v -2.56052327 11.0761356 0.9898219
v -2.33596087 11.4625368 -0.297614485
v -3.09661341 11.0238762 -0.7671846
v -3.49497128 10.774827 0.110766292
v -2.73431849 11.2134886 0.5803367
v -1.89644814 11.6457825 0.43923223
v -2.72701716 11.5496292 -0.101526558
v -3.1532588 11.0441856 0.643025041
v -2.32268977 11.1403389 1.183784
v -0.07365851 11.5514441 -1.66697681
v -0.931818247 11.44166 -2.159948
v -1.42695093 11.4328938 -1.29607344
v -0.5687912 11.5426779 -0.803102553
v 0.6037418 13.8594961 -0.508660257
v 1.30506968 13.749712 0.189621985
v 2.00691867 13.7409458 -0.516666651
v 1.30559087 13.85073 -1.21494842
v 0.500607967 11.4532766 0.8906889
v 0.500607848 11.2949486 -0.523490667
v -0.32157433 11.2944326 -0.523490667
v -0.3215743 11.2878323 0.890689
v 0.500607967 11.0274839 2.30486822
v -0.3215742 10.86204 2.30486846
v 1.32279015 11.4532766 0.8906889
v 1.32279015 11.2949486 -0.523490667
v 1.32279015 10.86204 2.30486822
v 1.63788223 10.9971428 1.03917444
v 0.271889985 11.4229355 0.6731577
v 0.0590934232 11.2574911 1.46732473
v 1.42508578 10.8316984 1.8333416
v 0.4846866 11.4229355 -0.121009409
v 1.85067892 10.8316984 0.245007336
v -0.5596978 14.4504738 -0.696997941
v 0.141630113 14.3543854 0.00330030918
v 0.843479 14.33179 -0.702681243
v 0.142151177 14.4278784 -1.402979
v -0.118628815 13.6053486 0.556388855
v 0.8933707 14.2112923 -0.300906867
v -0.14912124 14.6508732 -1.22082245
v -1.16112018 14.0449314 -0.3635269
v 0.863684535 13.9440632 -2.06785369
v -0.503214955 14.1621313 -1.609272
v -0.0237686932 14.2825623 -0.2374509
v 1.34312963 14.0644941 -0.696032166
v -0.960518837 13.7922544 -1.89857233
v -0.999251246 13.67958 -0.445276082
v 0.352580637 14.22063 -0.367300451
v 0.391312927 14.3333054 -1.8205955
v -1.411407 14.2358341 -0.842455268
v -0.4114309 14.0775061 0.15752089
v 0.169939935 14.07699 -0.423849821
v -0.8300362 14.07039 -1.42382622
v -2.411383 13.8100414 -1.84243119
v -1.83001232 13.6445971 -2.42380238
v -1.99277759 14.2358341 -0.261084676
v -0.992801666 14.0775061 0.7388917
v -2.99275374 13.6445971 -1.2610606
v -1.56948662 13.7796993 -0.52343297
v -0.344770849 14.205492 -1.23052239
v -0.755861938 14.0400476 -1.94255328
v -1.98057771 13.614255 -1.23546386
v 0.06632 14.205492 -0.518491268
v -1.15839553 13.614255 0.188597977
v -2.52448821 11.6461182 -1.39146268
v -0.9509064 11.4602165 -0.8614013
v -0.6427369 11.4596119 -1.77625763
v -2.21631861 11.4518623 -2.30631876
v -4.098069 11.1461735 -1.92152393
v -3.7899003 10.9519176 -2.83638024
v -2.83265781 11.6461182 -0.4766065
v -1.25907588 11.4602165 0.0534546375
v -4.40623856 10.9519176 -1.006668
v -1.62625861 14.2214384 0.05211377
v -0.26945734 14.06311 -0.346627772
v -0.5012796 14.0625944 -1.13545132
v -1.85808086 14.055994 -0.7367099
v -2.98305964 13.7956457 0.450855374
v -3.214882 13.6302013 -0.337968171
v -1.39443636 14.2214384 0.8409364
v -0.03763485 14.06311 0.4421959
v -2.75123739 13.6302013 1.23967838
v -0.479656816 14.2358341 0.3177817
v 0.6249677 14.0775061 -0.5652297
v 0.111598492 14.07699 -1.20744169
v -0.9930264 14.07039 -0.3244302
v -1.58428109 13.8100414 1.20079339
v -2.09765077 13.6445971 0.558581233
v 0.03371215 14.2358341 0.9599931
v 1.13833725 14.0775061 0.0769822
v -1.070912 13.6445971 1.843005
v 0.0683483 11.3699913 -0.6338036
v 0.487336338 11.3699913 1.46859932
v 0.487336367 9.885601 1.46859956
v 0.07275742 9.885601 -0.654325962
v 0.411235064 9.885601 1.45224977
v 0.411235034 11.3699913 1.45224953
v -0.00775299966 11.3699913 -0.650153458
v -0.00334386528 9.885601 -0.6706759
v -2.159312 11.2055559 -4.2318325
v -2.159312 11.3336258 -2.29560161
v -2.159312 9.810414 -2.29560161
v -2.159312 9.810414 -4.215887
v -2.23715 9.810414 -2.29560161
v -2.23715 11.3336258 -2.29560161
v -2.23715 11.2055559 -4.2318325
v -2.23715 9.810414 -4.215887
v 0.2959003 12.3610992 -0.54398036
v 0.3157041 10.3009167 -0.520627439
v 0.25595358 14.4212818 -0.575526655
v 0.2959003 12.3610992 -0.54398036
v -1.83339953 14.0381527 -1.24275339
v -0.06340265 14.1861992 -0.564050853
v -0.06340265 13.0727825 -0.564050853
v -1.8260771 13.0727825 -1.23749948
v -0.114357084 13.0727825 -0.5661114
v -0.114357084 14.1861992 -0.5661114
v -1.88435423 14.0381527 -1.24481416
v -1.8770318 13.0727825 -1.23956013
v -3.11206412 11.2055559 -2.72900224
v -0.465803623 11.3336258 -1.11729169
v -0.465803623 9.810614 -1.11729169
v -3.10103655 9.810614 -2.72109
v -0.537956357 9.810614 -1.12020946
v -0.537956357 11.3336258 -1.12020946
v -3.18421721 11.2055559 -2.73192024
v -3.17318964 9.810614 -2.72400784
v -0.800982535 11.4265251 -1.147346
v -2.4978056 11.4265251 0.162783921
v -2.49780583 10.1501293 0.16278398
v -0.780304134 10.1501293 -1.15260768
v -2.517 10.1501293 0.08734983
v -2.51699972 11.4265251 0.08734977
v -0.8201766 11.4265251 -1.22278023
v -0.7994982 10.1501293 -1.22804177
vt 0.663443 1
vt 0.452034056 1
vt 0.452034056 0
vt 0.663443 0
vt 0.660931647 1
vt 0.4495227 1
vt 0.4495227 0
vt 0.660931647 0
vt 0.00556153059 1
vt 0.216970488 1
vt 0.216970488 0
vt 0.00556153059 0
vt 0.111545257 1
vt 0.1113634 0
vt 0.00556153059 1
vt 0.216970488 1
vt 0.216970488 0
vt 0.00556153059 0
vt 0.216970488 1
vt 0.00556153059 1
vt 0.00556153059 0
vt 0.216970488 0
vt 0.661955357 1
vt 0.450546384 1
vt 0.450546384 0
vt 0.661955357 0
vt 0.4495227 1
vt 0.660931647 1
vt 0.660931647 0
vt 0.4495227 0
vt 0.110958554 1
vt 0.00556153059 1
vt 0.00556153059 0
vt 0.111545257 0
vt 0.661955357 1
vt 0.450546384 1
vt 0.450546384 0
vt 0.661955357 0
vt 0.663443 1
vt 0.452034056 1
vt 0.452034056 0
vt 0.663443 0
vt 0.216970488 1
vt 0.00556153059 1
vt 0.00556153059 0
vt 0.216970488 0
vt 0.450546384 1
vt 0.661955357 1
vt 0.661955357 0
vt 0.450546384 0
vt 0.109658733 1
vt 0.00556153059 1
vt 0.00556153059 0
vt 0.110958554 0
vt 0.216970488 1
vt 0.00556153059 1
vt 0.00556153059 0
vt 0.216970488 0
vt 0.447049081 1
vt 0.235640109 1
vt 0.235640109 0
vt 0.447049081 0
vt 0.447049081 1
vt 0.235640109 1
vt 0.235640109 0
vt 0.447049081 0
vt 0.235640109 1
vt 0.235640109 0
vt 0.235640109 1
vt 0.447049081 1
vt 0.447049081 0
vt 0.235640109 0
vt 0.447049081 1
vt 0.447049081 0
vt 0.447049081 1
vt 0.235640109 1
vt 0.235640109 0
vt 0.447049081 0
vt 0.447049081 1
vt 0.235640109 1
vt 0.235640109 0
vt 0.447049081 0
vt 0.235640109 1
vt 0.235640109 0
vt 0.235640109 1
vt 0.447049081 1
vt 0.447049081 0
vt 0.235640109 0
vt 0.447049081 1
vt 0.447049081 0
vt 0.5 0.694538
vt 0.00049957633 0.6945382
vt 0.0004995167 0.36899972
vt 0.49999994 0.3689996
vt 0.9995004 0.694537759
vt 0.999500334 0.368999362
vt 0.50000006 0.9995003
vt 0.000499665737 0.999500453
vt 0.9995005 0.999500036
vt 0.5 0.694538
vt 0.00049957633 0.6945382
vt 0.0004995167 0.36899972
vt 0.49999994 0.3689996
vt 0.9995004 0.694537759
vt 0.999500334 0.368999362
vt 0.50000006 0.9995003
vt 0.000499665737 0.999500453
vt 0.9995005 0.999500036
vt 0.9995004 0.694537759
vt 0.5 0.694538
vt 0.49999994 0.3689996
vt 0.999500334 0.368999362
vt 0.50000006 0.9995003
vt 0.9995005 0.999500036
vt 0.5 0.694538
vt 0.00049957633 0.6945382
vt 0.0004995167 0.36899972
vt 0.49999994 0.3689996
vt 0.9995004 0.694537759
vt 0.999500334 0.368999362
vt 0.50000006 0.9995003
vt 0.000499665737 0.999500453
vt 0.9995005 0.999500036
vt 0.9938886 0.0004994869
vt 0.993888855 0.3691224
vt 0.484974146 0.369122624
vt 0.4849739 0.000499725342
vt 0.9938886 0.0004994869
vt 0.993888855 0.3691224
vt 0.484974146 0.369122624
vt 0.4849739 0.000499725342
vt 0.9938886 0.0004994869
vt 0.993888855 0.3691224
vt 0.484974146 0.369122624
vt 0.4849739 0.000499725342
vt 0.9938886 0.0004994869
vt 0.993888855 0.3691224
vt 0.484974146 0.369122624
vt 0.4849739 0.000499725342
vt 0.5 0.694538
vt 0.00049957633 0.6945382
vt 0.0004995167 0.36899972
vt 0.49999994 0.3689996
vt 0.9995004 0.694537759
vt 0.999500334 0.368999362
vt 0.50000006 0.9995003
vt 0.000499665737 0.999500453
vt 0.9995005 0.999500036
vt 0.9995004 0.694537759
vt 0.5 0.694538
vt 0.49999994 0.3689996
vt 0.999500334 0.368999362
vt 0.50000006 0.9995003
vt 0.9995005 0.999500036
vt 0.9938886 0.0004994869
vt 0.993888855 0.3691224
vt 0.484974146 0.369122624
vt 0.4849739 0.000499725342
vt 0.9938886 0.0004994869
vt 0.993888855 0.3691224
vt 0.484974146 0.369122624
vt 0.4849739 0.000499725342
vt 0.9938886 0.0004994869
vt 0.993888855 0.3691224
vt 0.484974146 0.369122624
vt 0.4849739 0.000499725342
vt 0.9938886 0.0004994869
vt 0.993888855 0.3691224
vt 0.484974146 0.369122624
vt 0.4849739 0.000499725342
vt 0.5 0.694538
vt 0.00049957633 0.6945382
vt 0.0004995167 0.36899972
vt 0.49999994 0.3689996
vt 0.9995004 0.694537759
vt 0.999500334 0.368999362
vt 0.50000006 0.9995003
vt 0.000499665737 0.999500453
vt 0.9995005 0.999500036
vt 0.9995004 0.694537759
vt 0.5 0.694538
vt 0.49999994 0.3689996
vt 0.999500334 0.368999362
vt 0.50000006 0.9995003
vt 0.9995005 0.999500036
vt 0.5 0.694538
vt 0.00049957633 0.6945382
vt 0.0004995167 0.36899972
vt 0.49999994 0.3689996
vt 0.9995004 0.694537759
vt 0.999500334 0.368999362
vt 0.50000006 0.9995003
vt 0.000499665737 0.999500453
vt 0.9995005 0.999500036
vt 0.5 0.694538
vt 0.00049957633 0.6945382
vt 0.0004995167 0.36899972
vt 0.49999994 0.3689996
vt 0.9995004 0.694537759
vt 0.999500334 0.368999362
vt 0.50000006 0.9995003
vt 0.000499665737 0.999500453
vt 0.9995005 0.999500036
vt 0.5 0.694538
vt 0.00049957633 0.6945382
vt 0.0004995167 0.36899972
vt 0.49999994 0.3689996
vt 0.9995004 0.694537759
vt 0.999500334 0.368999362
vt 0.50000006 0.9995003
vt 0.000499665737 0.999500453
vt 0.9995005 0.999500036
vt 0.990201533 1
vt 0.5012828 1
vt 0.5012828 0.7620932
vt 0.986274242 0.7620932
vt 0.5012828 0.7620932
vt 0.5012828 1
vt 0.990201533 1
vt 0.986274242 0.7620932
vt 0.488918722 1
vt 1 1
vt 1 0.692039251
vt 0.493127763 0.7615637
vt 1 0.6920393
vt 1 1
vt 0.488918722 1
vt 0.493127763 0.7615637
vt 0.216970488 1
vt 0.216970488 0
vt 0.216970488 1
vt 0.216970488 0
vt 0.488918722 1
vt 1 1
vt 1 0.7215692
vt 0.492287248 0.7622961
vt 1 0.7215692
vt 1 1
vt 0.488918722 1
vt 0.492287248 0.7622961
vt 0.488918722 1
vt 1 1
vt 1 0.6984559
vt 0.492501259 0.7488751
vt 1 0.6984559
vt 1 1
vt 0.488918722 1
vt 0.492501259 0.748875
vt 0.990201533 1
vt 0.5012828 1
vt 0.5012828 0.7570705
vt 0.9862094 0.7570705
vt 0.5012828 0.7570705
vt 0.5012828 1
vt 0.990201533 1
vt 0.9862094 0.7570705
vn 0.225311667 0.009457509 -0.974240839
vn 0.939869761 0.008213536 -0.34143424
vn 0.9139268 -0.0068938327 -0.4058205
vn 0.2502809 0.008374484 -0.968137
vn -0.8012589 0.0139783919 -0.5981545
vn 0.225311667 0.009457509 -0.974240839
vn 0.2502809 0.008374484 -0.968137
vn -0.8084644 0.0138153452 -0.5883829
vn -0.845456839 0.008532316 0.5339756
vn -0.8012589 0.0139783919 -0.5981545
vn -0.8084644 0.0138153452 -0.5883829
vn -0.843982756 0.008366084 0.53630507
vn -0.08903311 0.0116319675 0.9959608
vn -0.121227749 0.01636863 0.992489755
vn 0.939869761 0.008213536 -0.34143424
vn 0.75292623 0.0155780651 0.657920539
vn 0.8000499 0.00480633043 0.599914253
vn 0.9139268 -0.0068938327 -0.4058205
vn 0.1280065 0.006110684 -0.991754532
vn 0.9111796 0.0132114077 -0.411797523
vn 0.939869761 0.008213536 -0.34143424
vn 0.225311667 0.009457509 -0.974240839
vn -0.80288136 0.0138081079 -0.5959789
vn 0.1280065 0.006110684 -0.991754532
vn 0.225311667 0.009457509 -0.974240839
vn -0.8012589 0.0139783919 -0.5981545
vn -0.853161037 0.0118441461 0.521513164
vn -0.80288136 0.0138081079 -0.5959789
vn -0.8012589 0.0139783919 -0.5981545
vn -0.845456839 0.008532316 0.5339756
vn -0.05632433 0.0109751215 0.9983522
vn -0.853161037 0.0118441461 0.521513164
vn -0.845456839 0.008532316 0.5339756
vn -0.08903311 0.0116319675 0.9959608
vn 0.9111796 0.0132114077 -0.411797523
vn 0.7674106 0.0202032 0.6408376
vn 0.75292623 0.0155780651 0.657920539
vn 0.939869761 0.008213536 -0.34143424
vn 0.160148859 0.0172614045 -0.986941934
vn 0.9227342 0.0270875376 -0.3844838
vn 0.9111796 0.0132114077 -0.411797523
vn 0.1280065 0.006110684 -0.991754532
vn -0.8419992 0.00754166627 -0.5394261
vn 0.160148859 0.0172614045 -0.986941934
vn 0.1280065 0.006110684 -0.991754532
vn -0.80288136 0.0138081079 -0.5959789
vn -0.869980037 0.0171087589 0.492790073
vn -0.8419992 0.00754166627 -0.5394261
vn -0.80288136 0.0138081079 -0.5959789
vn -0.853161037 0.0118441461 0.521513164
vn -0.0580162667 0.016715128 0.9981757
vn -0.869980037 0.0171087589 0.492790073
vn -0.853161037 0.0118441461 0.521513164
vn -0.05632433 0.0109751215 0.9983522
vn 0.9227342 0.0270875376 -0.3844838
vn 0.8296504 0.01636562 0.558043361
vn 0.7674106 0.0202032 0.6408376
vn 0.9111796 0.0132114077 -0.411797523
vn 0.32951045 -0.5241581 -0.7852905
vn 0.7201257 0.473123729 -0.5075165
vn 0.698610663 0.5903458 -0.404270977
vn 0.405304134 -0.436543822 -0.8032173
vn -0.4621888 -0.861940563 -0.208422452
vn 0.32951045 -0.5241581 -0.7852905
vn 0.405304134 -0.436543822 -0.8032173
vn -0.494453669 -0.8526508 -0.168825865
vn -0.7673311 -0.105578266 0.632499933
vn -0.7179653 0.05457372 0.6939362
vn 0.0294254012 0.872010648 0.4886017
vn -0.7673311 -0.105578266 0.632499933
vn -0.7179653 0.05457372 0.6939362
vn 0.0628592 0.884489059 0.462307036
vn 0.7201257 0.473123729 -0.5075165
vn 0.698610663 0.5903458 -0.404270977
vn 0.3725272 -0.540268242 0.754542053
vn -0.06669581 0.467475355 0.881486535
vn -0.135900915 0.599999249 0.788372934
vn 0.336288065 -0.443594158 0.8307434
vn 0.4347601 -0.8749414 -0.21321626
vn 0.3725272 -0.540268242 0.754542053
vn 0.336288065 -0.443594158 0.8307434
vn 0.424283862 -0.863996 -0.2710979
vn 0.0126048429 -0.11509832 -0.993274152
vn -0.0707776546 0.0655320361 -0.9953372
vn -0.373135656 0.880304 -0.292975515
vn 0.0126048429 -0.11509832 -0.993274152
vn -0.0707776546 0.0655320361 -0.9953372
vn -0.3744317 0.893090665 -0.249379173
vn -0.06669581 0.467475355 0.881486535
vn -0.135900915 0.599999249 0.788372934
vn 0.07814687 0.963500857 -0.256045222
vn 0.000312167773 0.996528566 -0.08325088
vn 0.06641352 0.9904292 -0.120992385
vn 0.18855235 0.937020659 -0.2940072
vn 0.0297911149 0.905995965 -0.4222367
vn 0.182030037 0.9046075 -0.385422349
vn -0.0281073973 0.966563344 -0.254882932
vn 0 0.9965286 -0.0832508653
vn -0.174131349 0.8653548 -0.469935536
vn -0.007165098 0.990926743 -0.134211868
vn 0.07175679 0.993791 0.0850321949
vn 0.0983544663 0.995077968 0.0120927691
vn 0.05443754 0.9695784 -0.238651127
vn -0.1828231 0.9461541 -0.267148048
vn -0.03703478 0.9402443 -0.338480443
vn -0.09231088 0.993791938 -0.06209918
vn 0.07151838 0.993791044 0.08523225
vn -0.383602649 0.907113731 -0.1731869
vn -0.305363327 0.9461541 0.107450455
vn -0.299573421 0.9533643 0.03677335
vn -0.3365323 0.9402443 -0.0518324
vn -0.3365323 0.9402443 -0.051832404
vn -0.2643077 0.945632935 0.189525113
vn -0.2665694 0.9071138 0.325707436
vn -0.131493241 0.990926743 -0.02781561
vn 0.100706227 0.993791044 -0.0473039672
vn 0.0371363051 0.995077968 -0.091873616
vn -0.216429546 0.969578445 -0.114349954
vn -0.3053632 0.9461542 0.10745047
vn -0.336532116 0.940244436 -0.05183218
vn -0.08387524 0.9937919 0.0730930343
vn 0.100837938 0.993791044 -0.0470215343
vn -0.2665694 0.90711385 0.3257073
vn -0.5063668 0.862190843 0.0148213161
vn -0.5063666 0.8621909 0.0148217948
vn -0.5063667 0.862190843 0.0148213161
vn -0.5063669 0.8621908 0.0148208356
vn -0.347867042 0.856163144 0.3820644
vn -0.347867042 0.8561631 0.382064462
vn -0.347867072 0.8561631 0.382064432
vn -0.347867072 0.856163144 0.3820644
vn -0.10001009 0.993864536 -0.04723588
vn -0.10001009 0.993864536 -0.04723587
vn -0.100010082 0.993864536 -0.0472358838
vn -0.10001009 0.993864536 -0.0472359
vn 0.08437674 0.993864536 0.0715109259
vn 0.08437674 0.993864536 0.0715109
vn 0.08437674 0.993864536 0.0715109259
vn 0.08437674 0.993864536 0.0715109557
vn -0.08078133 0.9909267 0.107418008
vn -0.00031182167 0.993791044 -0.111262381
vn -0.0675718337 0.9950779 -0.0724842846
vn -0.195104226 0.9695782 0.147825569
vn -0.0316690281 0.9461541 0.322163761
vn -0.189201429 0.940244257 0.283096433
vn 0.0307977423 0.9937919 0.106907256
vn -2.01651029E-09 0.993791044 -0.1112624
vn 0.182534769 0.907113552 0.3792441
vn 0.3029897 0.9461541 0.113972142
vn 0.25312382 0.9533643 0.164392456
vn 0.22448118 0.9402442 0.2560254
vn 0.224481151 0.940244257 0.256025344
vn 0.3242959 0.945632935 0.02470899
vn 0.413565129 0.907113552 -0.0781593
vn 0.08437669 0.9950744 0.05203411
vn 0.08437669 0.9950744 0.0520340875
vn 0.0843767 0.9950744 0.05203411
vn 0.0843767 0.9950744 0.0520341359
vn -0.0849208161 0.858160853 0.506308556
vn -0.08492114 0.858160853 0.506308556
vn -0.0849208161 0.858160853 0.506308556
vn -0.08492047 0.8581609 0.5063086
vn 0.114719175 0.9852989 -0.126592532
vn 0.1147193 0.9852989 -0.126592457
vn 0.114719182 0.9852989 -0.126592532
vn 0.114719056 0.9852989 -0.126592591
vn -0.373938352 0.9253936 0.0617803857
vn -0.373938173 0.9253937 0.0617802031
vn -0.373938382 0.9253936 0.06178039
vn -0.37393856 0.925393462 0.06178057
vn -0.0188349728 0.990926743 -0.133077011
vn 0.07889487 0.993791044 0.07845389
vn 0.09903461 0.9950779 0.00347364182
vn 0.03343105 0.969578266 -0.242487952
vn -0.205410764 0.9461541 -0.2501975
vn -0.06639381 0.940244257 -0.3339649
vn -0.09737212 0.9937919 -0.05381755
vn 0.07867438 0.993791044 0.078674376
vn -0.39723748 0.9071136 -0.1390945
vn -0.294836551 0.9461541 0.133655563
vn -0.295228541 0.9533643 0.0627424642
vn -0.339769363 0.940244257 -0.0223051682
vn -0.339769363 0.940244257 -0.0223051682
vn -0.246783733 0.945632935 0.21183987
vn -0.237167731 0.907113552 0.347701669
vn -0.0760103 0.990926743 -0.110844977
vn 0.105540752 0.993791 0.0352230147
vn 0.09026249 0.995077968 -0.0408964343
vn -0.077809006 0.9695784 -0.232085213
vn -0.295198172 0.9461541 -0.132854924
vn -0.207886785 0.9402444 -0.2696732
vn -0.111144945 0.993791938 -0.00494122133
vn 0.105441406 0.993791044 0.0355179645
vn -0.417671055 0.907113731 0.05191932
vn -0.12583673 0.990926743 -0.0472161658
vn 0.106660113 0.993791044 -0.03167067
vn 0.0504907928 0.9950779 -0.08526781
vn -0.196839184 0.969578266 -0.145507231
vn -0.3180217 0.9461541 0.06045314
vn -0.324957281 0.940244257 -0.101703085
vn -0.09388581 0.993791938 0.0596916825
vn 0.106748052 0.993791044 -0.0313715227
vn -0.312389165 0.907113552 0.282060236
vn -0.134344548 0.990926743 0.00397283025
vn 0.08671303 0.993791044 -0.06971559
vn 0.014426196 0.9950779 -0.09803979
vn -0.237290114 0.969578266 -0.0600950122
vn -0.271418065 0.9461541 0.176421657
vn -0.339265317 0.940244257 0.0289785769
vn -0.06427583 0.9937919 0.09080898
vn 0.08690771 0.993791044 -0.06947204
vn -0.182255372 0.9071136 0.379378259
vn 0.9811709 0.00343703129 -0.193110928
vn 0.9807143 -1.17021468E-08 -0.19544664
vn 0.9810014 0.0021456487 -0.1939889
vn 0.981445 0.005565042 -0.191663072
vn -0.9810014 -0.00214565382 0.193988889
vn -0.9807143 1.1702145E-08 0.19544661
vn -0.9811709 -0.00343703968 0.193110913
vn -0.981445 -0.00556505565 0.191663057
vn 1 0 0
vn 1 0 0
vn 1 0 0
vn 1 0 0
vn -1 0 0
vn -1 0 0
vn -1 0 0
vn -1 0 0
vn 0.7674106 0.0202032 0.6408376
vn 0.75292623 0.0155780651 0.657920539
vn 0.8296504 0.01636562 0.558043361
vn 0.7674106 0.0202032 0.6408376
vn 0.357277364 -0.00158109167 -0.933997
vn 0.3580297 0 -0.9337102
vn 0.357690722 -0.0007127255 -0.933839858
vn 0.356898278 -0.00237683859 -0.9341402
vn -0.357690722 0.00071272545 0.933839858
vn -0.358029753 0 0.933710158
vn -0.3572774 0.00158109155 0.933997
vn -0.3568983 0.00237683835 0.9341402
vn 0.519968152 -0.0005222593 -0.854185462
vn 0.5201691 0 -0.854063332
vn 0.5200929 -0.0001980336 -0.854109645
vn 0.519886136 -0.000735343667 -0.854235232
vn -0.5200929 0.00019807303 0.854109645
vn -0.5201691 0 0.854063332
vn -0.5199681 0.0005223633 0.8541855
vn -0.5198861 0.0007354901 0.8542353
vn 0.6090821 0.004350682 0.793095231
vn 0.6111404 -7.719302E-08 0.7915222
vn 0.6100784 0.00224884041 0.7923379
vn 0.608022451 0.006577751 0.793892562
vn -0.610078335 -0.00224884669 -0.7923379
vn -0.6111404 7.719302E-08 -0.791522264
vn -0.6090821 -0.00435069343 -0.793095231
vn -0.608022451 -0.00657776976 -0.793892562
usemtl nml-bd122_part_1_material_0
f 208/208/208 209/209/209 210/210/210
f 210/210/210 211/211/211 208/208/208
f 212/212/212 213/213/213 214/214/214
f 214/214/214 215/215/215 212/212/212
f 216/216/216 217/217/217 218/218/218
f 218/218/218 219/219/219 216/216/216
f 220/220/220 216/216/216 219/219/219
f 219/219/219 221/221/221 220/220/220
f 222/222/222 223/223/223 224/224/224
f 224/224/224 225/225/225 222/222/222
f 226/226/226 227/227/227 228/228/228
f 228/228/228 229/229/229 226/226/226
f 230/230/230 231/231/231 232/232/232
f 232/232/232 233/233/233 230/230/230
f 234/234/234 235/235/235 236/236/236
f 236/236/236 237/237/237 234/234/234
f 238/238/238 239/239/239 240/240/240
f 240/240/240 241/241/241 238/238/238
f 242/242/242 243/243/243 244/244/244
f 244/244/244 245/245/245 242/242/242
f 246/246/246 247/247/247 248/248/248
f 248/248/248 249/249/249 246/246/246
f 250/250/250 251/251/251 252/252/252
f 252/252/252 253/253/253 250/250/250
f 254/254/254 255/255/255 256/256/256
f 256/256/256 257/257/257 254/254/254
f 258/258/258 259/259/259 260/260/260
f 260/260/260 261/261/261 258/258/258
f 262/262/262 263/263/263 264/264/264
f 264/264/264 265/265/265 262/262/262
f 266/266/266 267/267/267 268/268/268
f 268/268/268 269/269/269 266/266/266
f 270/270/270 271/271/271 272/272/272
f 272/272/272 273/273/273 270/270/270
f 274/274/274 270/270/270 273/273/273
f 273/273/273 275/275/275 274/274/274
f 276/276/276 277/277/277 278/278/278
f 278/278/278 279/279/279 276/276/276
f 280/280/280 276/276/276 279/279/279
f 279/279/279 281/281/281 280/280/280
f 282/282/282 283/283/283 284/284/284
f 284/284/284 285/285/285 282/282/282
f 286/286/286 287/287/287 288/288/288
f 288/288/288 289/289/289 286/286/286
f 290/290/290 286/286/286 289/289/289
f 289/289/289 291/291/291 290/290/290
f 292/292/292 293/293/293 294/294/294
f 294/294/294 295/295/295 292/292/292
f 296/296/296 292/292/292 295/295/295
f 295/295/295 297/297/297 296/296/296
f 223/223/223 220/220/220 221/221/221
f 221/221/221 224/224/224 223/223/223
f 436/436/436 238/238/238 241/241/241
f 241/241/241 437/437/437 436/436/436
f 438/438/438 258/258/258 261/261/261
f 261/261/261 439/439/439 438/438/438
usemtl nml-bd122_part_1_material_1
f 298/298/298 299/299/299 300/300/300
f 300/300/300 301/301/301 298/298/298
f 302/302/302 298/298/298 301/301/301
f 301/301/301 303/303/303 302/302/302
f 304/304/304 305/305/305 299/299/299
f 299/299/299 298/298/298 304/304/304
f 304/304/304 298/298/298 302/302/302
f 302/302/302 306/306/306 304/304/304
f 307/307/307 308/308/308 309/309/309
f 309/309/309 310/310/310 307/307/307
f 311/311/311 307/307/307 310/310/310
f 310/310/310 312/312/312 311/311/311
f 313/313/313 314/314/314 308/308/308
f 308/308/308 307/307/307 313/313/313
f 313/313/313 307/307/307 311/311/311
f 311/311/311 315/315/315 313/313/313
f 316/316/316 317/317/317 318/318/318
f 318/318/318 319/319/319 316/316/316
f 320/320/320 317/317/317 316/316/316
f 316/316/316 321/321/321 320/320/320
f 322/322/322 323/323/323 324/324/324
f 324/324/324 325/325/325 322/322/322
f 326/326/326 322/322/322 325/325/325
f 325/325/325 327/327/327 326/326/326
f 328/328/328 329/329/329 323/323/323
f 323/323/323 322/322/322 328/328/328
f 328/328/328 322/322/322 326/326/326
f 326/326/326 330/330/330 328/328/328
f 331/331/331 332/332/332 333/333/333
f 333/333/333 334/334/334 331/331/331
f 335/335/335 336/336/336 337/337/337
f 337/337/337 338/338/338 335/335/335
f 339/339/339 340/340/340 341/341/341
f 341/341/341 342/342/342 339/339/339
f 343/343/343 344/344/344 345/345/345
f 345/345/345 346/346/346 343/343/343
f 347/347/347 348/348/348 349/349/349
f 349/349/349 350/350/350 347/347/347
f 351/351/351 347/347/347 350/350/350
f 350/350/350 352/352/352 351/351/351
f 353/353/353 354/354/354 348/348/348
f 348/348/348 347/347/347 353/353/353
f 353/353/353 347/347/347 351/351/351
f 351/351/351 355/355/355 353/353/353
f 356/356/356 357/357/357 358/358/358
f 358/358/358 359/359/359 356/356/356
f 360/360/360 357/357/357 356/356/356
f 356/356/356 361/361/361 360/360/360
f 362/362/362 363/363/363 364/364/364
f 364/364/364 365/365/365 362/362/362
f 366/366/366 367/367/367 368/368/368
f 368/368/368 369/369/369 366/366/366
f 370/370/370 371/371/371 372/372/372
f 372/372/372 373/373/373 370/370/370
f 374/374/374 375/375/375 376/376/376
f 376/376/376 377/377/377 374/374/374
f 378/378/378 379/379/379 380/380/380
f 380/380/380 381/381/381 378/378/378
f 382/382/382 378/378/378 381/381/381
f 381/381/381 383/383/383 382/382/382
f 384/384/384 385/385/385 379/379/379
f 379/379/379 378/378/378 384/384/384
f 384/384/384 378/378/378 382/382/382
f 382/382/382 386/386/386 384/384/384
f 387/387/387 388/388/388 389/389/389
f 389/389/389 390/390/390 387/387/387
f 391/391/391 388/388/388 387/387/387
f 387/387/387 392/392/392 391/391/391
f 393/393/393 394/394/394 395/395/395
f 395/395/395 396/396/396 393/393/393
f 397/397/397 393/393/393 396/396/396
f 396/396/396 398/398/398 397/397/397
f 399/399/399 400/400/400 394/394/394
f 394/394/394 393/393/393 399/399/399
f 399/399/399 393/393/393 397/397/397
f 397/397/397 401/401/401 399/399/399
f 402/402/402 403/403/403 404/404/404
f 404/404/404 405/405/405 402/402/402
f 406/406/406 402/402/402 405/405/405
f 405/405/405 407/407/407 406/406/406
f 408/408/408 409/409/409 403/403/403
f 403/403/403 402/402/402 408/408/408
f 408/408/408 402/402/402 406/406/406
f 406/406/406 410/410/410 408/408/408
f 411/411/411 412/412/412 413/413/413
f 413/413/413 414/414/414 411/411/411
f 415/415/415 411/411/411 414/414/414
f 414/414/414 416/416/416 415/415/415
f 417/417/417 418/418/418 412/412/412
f 412/412/412 411/411/411 417/417/417
f 417/417/417 411/411/411 415/415/415
f 415/415/415 419/419/419 417/417/417
usemtl nml-bd122_part_1_material_2
f 420/420/420 421/421/421 422/422/422
f 422/422/422 423/423/423 420/420/420
f 424/424/424 425/425/425 426/426/426
f 426/426/426 427/427/427 424/424/424
f 428/428/428 429/429/429 430/430/430
f 430/430/430 431/431/431 428/428/428
f 432/432/432 433/433/433 434/434/434
f 434/434/434 435/435/435 432/432/432
f 440/440/440 441/441/441 442/442/442
f 442/442/442 443/443/443 440/440/440
f 444/444/444 445/445/445 446/446/446
f 446/446/446 447/447/447 444/444/444
f 448/448/448 449/449/449 450/450/450
f 450/450/450 451/451/451 448/448/448
f 452/452/452 453/453/453 454/454/454
f 454/454/454 455/455/455 452/452/452
f 456/456/456 457/457/457 458/458/458
f 458/458/458 459/459/459 456/456/456
f 460/460/460 461/461/461 462/462/462
f 462/462/462 463/463/463 460/460/460
o nml-bd122_part_2
v 1.72166181 13.8225384 0.464844823
v 1.383508 13.561017 1.72684813
v 2.1172173 13.7138662 1.92344546
v 2.455371 13.8230143 0.661442161
v 1.04535437 13.0043526 2.98885155
v 1.7790637 13.1572018 3.185449
v 2.85092664 13.7138662 2.1200428
v 3.18908024 13.8230143 0.8580395
v 2.5127728 13.0043526 3.382046
v 0.810785532 13.767664 -0.5825443
v 1.51252532 13.7599144 0.922343
v 2.38744354 13.95417 0.5143622
v 1.68570375 13.7682686 -0.9905251
v 2.214265 13.25997 2.42723012
v 3.08918333 13.4542255 2.0192492
v 3.26236176 13.95417 0.106381536
v 2.560622 13.7682686 -1.39850569
v 3.96410155 13.25997 1.61126852
v 2.203746 13.7242889 1.34707141
v 3.838979 13.2243443 1.05873656
v 3.67134547 13.4186 0.108037174
v 2.03611255 13.9185448 0.396371841
v 3.50371218 13.2243443 -0.842662454
v 1.86847925 13.9185448 -0.5543276
v 1.31303954 13.8008051 -0.2738309
v 2.65492415 13.794446 -0.510440469
v 2.51736283 13.9538536 -1.29059172
v 1.17547846 13.801302 -1.053982
v 3.99680877 13.3841877 -0.7470504
v 3.85924745 13.5435953 -1.52720141
v 2.37980175 13.9538536 -2.07074285
v 1.03791714 13.801302 -1.83413315
v 3.72168612 13.3841877 -2.3073523
v 4.396777 13.0828791 -1.21639633
v 3.78357673 13.5215406 -1.86683846
v 3.17156172 13.7705889 -1.12190557
v 3.784762 13.3319283 -0.4714638
v 4.204467 13.3522377 -1.81896067
v 3.542158 13.448391 -2.556261
v 2.93773556 13.9538345 -1.94739914
v 3.60004473 13.8576813 -1.21009874
v 3.1288693 13.5697956 1.8099153
v 2.42754149 13.67958 1.11163318
v 1.72569251 13.6883459 1.81792164
v 2.42702031 13.5785618 2.51620388
v 2.16453171 13.7589054 -0.628978252
v 3.409471 13.7525463 -0.0751149654
v 3.73147869 13.9119539 -0.7989036
v 2.4865396 13.7594023 -1.35276687
v 4.65441036 13.342288 0.478748083
v 4.97641754 13.5016956 -0.245040178
v 4.053487 13.9119539 -1.5226922
v 2.808547 13.7594023 -2.07655549
v 5.29842472 13.342288 -0.968828559
v 3.41569 12.1421232 -1.37335956
v 1.03145671 12.1421232 -0.141892433
v 1.05287957 13.7069063 -0.136183083
v 3.41568971 13.7069063 -1.37335944
v 1.01141238 12.1421232 -0.0666797161
v 3.39564562 12.1421232 -1.298147
v 3.39564562 13.7069063 -1.29814684
v 1.03283525 13.7069063 -0.060970366
v 2.02330971 13.8302956 1.21037853
v 2.02330971 12.7822828 1.21037841
v 1.60639775 12.7822828 -0.901688457
v 1.60432148 13.8302956 -0.8920244
v 1.94720829 13.8302956 1.19402874
v 1.52822018 13.8302956 -0.9083743
v 1.53029644 12.7822828 -0.918038368
v 1.94720829 12.7822828 1.19402885
vt 0.0004995167 0.36899972
vt 0.49999994 0.3689996
vt 0.5 0.694538
vt 0.00049957633 0.6945382
vt 0.999500334 0.368999362
vt 0.9995004 0.694537759
vt 0.50000006 0.9995003
vt 0.000499665737 0.999500453
vt 0.9995005 0.999500036
vt 0.0004995167 0.36899972
vt 0.49999994 0.3689996
vt 0.5 0.694538
vt 0.00049957633 0.6945382
vt 0.999500334 0.368999362
vt 0.9995004 0.694537759
vt 0.50000006 0.9995003
vt 0.000499665737 0.999500453
vt 0.9995005 0.999500036
vt 0.49999994 0.3689996
vt 0.999500334 0.368999362
vt 0.9995004 0.694537759
vt 0.5 0.694538
vt 0.9995005 0.999500036
vt 0.50000006 0.9995003
vt 0.0004995167 0.36899972
vt 0.49999994 0.3689996
vt 0.5 0.694538
vt 0.00049957633 0.6945382
vt 0.999500334 0.368999362
vt 0.9995004 0.694537759
vt 0.50000006 0.9995003
vt 0.000499665737 0.999500453
vt 0.9995005 0.999500036
vt 0.484974146 0.369122624
vt 0.4849739 0.000499725342
vt 0.9938886 0.0004994869
vt 0.993888855 0.3691224
vt 0.484974146 0.369122624
vt 0.4849739 0.000499725342
vt 0.9938886 0.0004994869
vt 0.993888855 0.3691224
vt 0.484974146 0.369122624
vt 0.4849739 0.000499725342
vt 0.9938886 0.0004994869
vt 0.993888855 0.3691224
vt 0.0004995167 0.36899972
vt 0.49999994 0.3689996
vt 0.5 0.694538
vt 0.00049957633 0.6945382
vt 0.999500334 0.368999362
vt 0.9995004 0.694537759
vt 0.50000006 0.9995003
vt 0.000499665737 0.999500453
vt 0.9995005 0.999500036
vt 0 0.7512547
vt 0.494770825 0.7512547
vt 0.488918722 1
vt 0 1
vt 0.494770855 0.7512547
vt 0 0.7512547
vt 0 1
vt 0.488918722 1
vt 0 1
vt 0 0.764547944
vt 0.491527855 0.7645479
vt 0.488918722 1
vt 0 1
vt 0.488918722 1
vt 0.491527855 0.764547944
vt 0 0.7645479
vn -0.09546571 0.9904292 0.09968051
vn -0.258222431 0.937020659 0.235188052
vn -0.1417536 0.963500857 0.22709471
vn -0.0218484886 0.996528566 0.08033337
vn -0.275582343 0.9046075 0.325176358
vn -0.13805908 0.905995965 0.400138766
vn -0.03881898 0.966563344 0.253472656
vn -0.0215469673 0.9965286 0.08041417
vn 0.04656958 0.8653548 0.4989914
vn -0.09187326 0.995077968 -0.037136782
vn -0.1143502 0.9695784 0.216429725
vn -0.0278157014 0.990926743 0.131493166
vn -0.04730373 0.993791 -0.100706853
vn -0.0518325 0.9402443 0.336532265
vn 0.107450388 0.9461541 0.3053634
vn 0.0730929747 0.993791938 0.08387505
vn -0.0470216535 0.993791044 -0.100838386
vn 0.3257074 0.9071138 0.266569525
vn 0.311649978 0.9402443 0.137167364
vn 0.311649978 0.9402443 0.1371674
vn 0.322768569 0.9461541 -0.024755124
vn 0.2988833 0.9533643 0.0420151837
vn 0.341785729 0.9071138 -0.245615765
vn 0.3043544 0.945632935 -0.114659049
vn -0.0596496053 0.995077968 0.07913149
vn 0.179458857 0.969578445 0.166469768
vn 0.119813457 0.990926743 0.06090083
vn -0.109517947 0.993791044 0.0196273644
vn 0.3116499 0.9402444 0.137167215
vn 0.32276848 0.9461542 -0.02475519
vn 0.09993514 0.9937919 -0.0488939025
vn -0.10957206 0.993791044 0.0193204582
vn 0.34178564 0.90711385 -0.245615721
vn 0.492948562 0.8621909 0.1167413
vn 0.4929486 0.862190843 0.116741836
vn 0.4929486 0.8621909 0.116741292
vn 0.4929486 0.862190962 0.116740748
vn 0.434899539 0.8561631 -0.2790111
vn 0.434899539 0.856163144 -0.279010952
vn 0.4348995 0.8561631 -0.279011071
vn 0.434899539 0.856163 -0.27901122
vn 0.08437674 0.993864536 0.0715109259
vn 0.08437674 0.993864536 0.0715109259
vn 0.0843767449 0.993864536 0.0715109259
vn 0.08437674 0.993864536 0.07151091
vn -0.09369243 0.995077968 0.0322737247
vn 0.0557565466 0.969578445 0.238346145
vn 0.06530765 0.990926743 0.117469534
vn -0.101782642 0.993791044 -0.04494116
vn 0.18174763 0.9402444 0.287938029
vn 0.281475216 0.9461541 0.159887612
vn 0.11019548 0.9937919 0.0153171
vn -0.10165596 0.993791044 -0.04522587
vn 0.420696378 0.907113731 -0.01261914
vn -0.4621886 0.003217161 -0.8867758
vn -0.4588855 0.009524056 -0.888444364
vn -0.460562229 0.006328413 -0.887604833
vn -0.463863969 -3.18607252E-09 -0.885906458
vn 0.462178916 -0.00634054327 0.88676405
vn 0.458906323 -6.768709E-08 0.888484657
vn 0.4605717 -0.003220685 0.887616634
vn 0.4638427 -0.009582515 0.885865748
vn 0.9809665 0.0010801875 -0.194174051
vn 0.981069 2.20282441E-08 -0.193658322
vn 0.9808141 0.00265905075 -0.1949274
vn 0.980707467 0.00374519126 -0.1954453
vn -0.9809665 -0.00108015572 0.194174036
vn -0.980707467 -0.00374519126 0.195445284
vn -0.9808141 -0.00265903841 0.1949274
vn -0.981069 2.202824E-08 0.193658292
usemtl nml-bd122_part_2_material_0
f 464/464/464 465/465/465 466/466/466
f 466/466/466 467/467/467 464/464/464
f 465/465/465 468/468/468 469/469/469
f 469/469/469 466/466/466 465/465/465
f 467/467/467 466/466/466 470/470/470
f 470/470/470 471/471/471 467/467/467
f 469/469/469 472/472/472 470/470/470
f 470/470/470 466/466/466 469/469/469
f 473/473/473 474/474/474 475/475/475
f 475/475/475 476/476/476 473/473/473
f 474/474/474 477/477/477 478/478/478
f 478/478/478 475/475/475 474/474/474
f 476/476/476 475/475/475 479/479/479
f 479/479/479 480/480/480 476/476/476
f 478/478/478 481/481/481 479/479/479
f 479/479/479 475/475/475 478/478/478
f 482/482/482 483/483/483 484/484/484
f 484/484/484 485/485/485 482/482/482
f 484/484/484 486/486/486 487/487/487
f 487/487/487 485/485/485 484/484/484
f 488/488/488 489/489/489 490/490/490
f 490/490/490 491/491/491 488/488/488
f 489/489/489 492/492/492 493/493/493
f 493/493/493 490/490/490 489/489/489
f 491/491/491 490/490/490 494/494/494
f 494/494/494 495/495/495 491/491/491
f 493/493/493 496/496/496 494/494/494
f 494/494/494 490/490/490 493/493/493
f 497/497/497 498/498/498 499/499/499
f 499/499/499 500/500/500 497/497/497
f 501/501/501 502/502/502 503/503/503
f 503/503/503 504/504/504 501/501/501
f 505/505/505 506/506/506 507/507/507
f 507/507/507 508/508/508 505/505/505
f 509/509/509 510/510/510 511/511/511
f 511/511/511 512/512/512 509/509/509
f 510/510/510 513/513/513 514/514/514
f 514/514/514 511/511/511 510/510/510
f 512/512/512 511/511/511 515/515/515
f 515/515/515 516/516/516 512/512/512
f 514/514/514 517/517/517 515/515/515
f 515/515/515 511/511/511 514/514/514
usemtl nml-bd122_part_2_material_1
f 518/518/518 519/519/519 520/520/520
f 520/520/520 521/521/521 518/518/518
f 522/522/522 523/523/523 524/524/524
f 524/524/524 525/525/525 522/522/522
f 526/526/526 527/527/527 528/528/528
f 528/528/528 529/529/529 526/526/526
f 530/530/530 531/531/531 532/532/532
f 532/532/532 533/533/533 530/530/530
