mtllib nml-bd120.mtl
o nml-bd120_part_0
v 0.717235565 1.873771 2.68962049
v 1.82408047 1.873771 2.68962049
v 1.82408047 1.873771 1.61671686
v 0.717235565 1.873771 1.61671686
vt 0.0004994869 0.000499606133
vt 0.999500155 0.0004994869
vt 0.9995005 0.9995004
vt 0.000499844551 0.9995005
vn 0 1 0
vn 0 1 0
vn 0 1 0
vn 0 1 0
usemtl nml-bd120_part_0_material_0
f 1/1/1 2/2/2 3/3/3
f 3/3/3 4/4/4 1/1/1
o nml-bd120_part_1
v 2.2978406 1.87385118 -2.42970228
v 3.0128603 1.87385118 -2.42970228
v 3.0128603 1.87385118 -3.12279558
v 2.2978406 1.87385118 -3.12279558
vt 0.0004994869 0.000499606133
vt 0.999500155 0.0004994869
vt 0.9995005 0.9995004
vt 0.000499844551 0.9995005
vn 0 1 0
vn 0 1 0
vn 0 1 0
vn 0 1 0
usemtl nml-bd120_part_1_material_0
f 5/5/5 6/6/6 7/7/7
f 7/7/7 8/8/8 5/5/5
o nml-bd120_part_2
v 5.30298853 1.87385619 -1.12348306
v 5.74656534 1.87385619 -1.12348306
v 5.74656534 1.87385619 -1.55345786
v 5.30298853 1.87385619 -1.55345786
vt 0.0004994869 0.000499606133
vt 0.999500155 0.0004994869
vt 0.9995005 0.9995004
vt 0.000499844551 0.9995005
vn 0 1 0
vn 0 1 0
vn 0 1 0
vn 0 1 0
usemtl nml-bd120_part_2_material_0
f 9/9/9 10/10/10 11/11/11
f 11/11/11 12/12/12 9/9/9
o nml-bd120_part_3
v 0.008004457 1.873783 4.639397
v 0.5323198 1.873783 4.639397
v 0.5323198 1.873783 4.13116026
v 0.008004457 1.873783 4.13116026
vt 0.0004994869 0.000499606133
vt 0.999500155 0.0004994869
vt 0.9995005 0.9995004
vt 0.000499844551 0.9995005
vn 0 1 0
vn 0 1 0
vn 0 1 0
vn 0 1 0
usemtl nml-bd120_part_3_material_0
f 13/13/13 14/14/14 15/15/15
f 15/15/15 16/16/16 13/13/13
o nml-bd120_part_4
v -1.59060466 1.41611779 -3.106276
v -0.639187932 1.41611779 -3.106276
v -0.639187932 2.331354 -3.21973228
v -1.59060466 2.331354 -3.21973228
vt 0.0004994869 0.000499606133
vt 0.999500155 0.0004994869
vt 0.9995005 0.9995004
vt 0.000499844551 0.9995005
vn 0 0.123022147 0.9924039
vn 0 0.123022147 0.9924039
vn 0 0.123022147 0.9924039
vn 0 0.123022147 0.9924039
usemtl nml-bd120_part_4_material_0
f 17/17/17 18/18/18 19/19/19
f 19/19/19 20/20/20 17/17/17
o nml-bd120_part_5
v 0.7470178 1.31045818 0.113078743
v 1.91810751 1.31045818 0.113078743
v 1.91810751 2.43701363 -0.02657336
v 0.7470178 2.43701363 -0.02657336
vt 0.0004994869 0.000499606133
vt 0.999500155 0.0004994869
vt 0.9995005 0.9995004
vt 0.000499844551 0.9995005
vn 0 0.123022161 0.9924039
vn 0 0.123022161 0.9924039
vn 0 0.123022161 0.9924039
vn 0 0.123022161 0.9924039
usemtl nml-bd120_part_5_material_0
f 21/21/21 22/22/22 23/23/23
f 23/23/23 24/24/24 21/21/21
o nml-bd120_part_6
v 0.448506653 1.43882871 -3.51518035
v 0.9675968 1.43882871 -4.25553274
v 0.8793101 2.308643 -4.317434
v 0.3602198 2.308643 -3.57708168
vt 0.0004994869 0.000499606133
vt 0.999500155 0.0004994869
vt 0.9995005 0.9995004
vt 0.000499844551 0.9995005
vn 0.8125738 0.123022147 0.5697275
vn 0.8125738 0.123022109 0.5697275
vn 0.8125738 0.123022147 0.5697275
vn 0.8125738 0.123022169 0.5697275
usemtl nml-bd120_part_6_material_0
f 25/25/25 26/26/26 27/27/27
f 27/27/27 28/28/28 25/25/25
o nml-bd120_part_7
v -2.58897567 1.87373531 -1.88318729
v -2.28013349 1.87373531 -1.88318729
v -2.28013349 1.87373531 -2.18255877
v -2.58897567 1.87373531 -2.18255877
vt 0.0004994869 0.000499606133
vt 0.999500155 0.0004994869
vt 0.9995005 0.9995004
vt 0.000499844551 0.9995005
vn 0 1 0
vn 0 1 0
vn 0 1 0
vn 0 1 0
usemtl nml-bd120_part_7_material_0
f 29/29/29 30/30/30 31/31/31
f 31/31/31 32/32/32 29/29/29
o nml-bd120_part_8
v -2.68500662 1.87365854 5.518969
v -1.33246863 1.87365854 5.518969
v -1.33246863 1.87365854 4.20790672
v -2.68500662 1.87365854 4.20790672
vt 0.0004994869 0.000499606133
vt 0.999500155 0.0004994869
vt 0.9995005 0.9995004
vt 0.000499844551 0.9995005
vn 0 1 0
vn 0 1 0
vn 0 1 0
vn 0 1 0
usemtl nml-bd120_part_8_material_0
f 33/33/33 34/34/34 35/35/35
f 35/35/35 36/36/36 33/33/33
o nml-bd120_part_9
v -2.9050858 1.87381911 -1.00746572
v -2.68206477 1.87381911 -1.00746572
v -2.68206477 1.87381911 -1.22364771
v -2.9050858 1.87381911 -1.22364771
vt 0.0004994869 0.000499606133
vt 0.999500155 0.0004994869
vt 0.9995005 0.9995004
vt 0.000499844551 0.9995005
vn 0 1 0
vn 0 1 0
vn 0 1 0
vn 0 1 0
usemtl nml-bd120_part_9_material_0
f 37/37/37 38/38/38 39/39/39
f 39/39/39 40/40/40 37/37/37
o nml-bd120_part_10
v -4.319797 1.87373781 1.63971686
v -3.421867 1.87373781 1.63971686
v -3.421867 1.87373781 0.7693219
v -4.319797 1.87373781 0.7693219
vt 0.0004994869 0.000499606133
vt 0.999500155 0.0004994869
vt 0.9995005 0.9995004
vt 0.000499844551 0.9995005
vn 0 1 0
vn 0 1 0
vn 0 1 0
vn 0 1 0
usemtl nml-bd120_part_10_material_0
f 41/41/41 42/42/42 43/43/43
f 43/43/43 44/44/44 41/41/41
o nml-bd120_part_11
v 1.366362 1.87371778 0.328592062
v 2.24127579 1.87371778 0.328592062
v 2.24127579 1.87371778 -0.5194927
v 1.366362 1.87371778 -0.5194927
vt 0.0004994869 0.000499606133
vt 0.999500155 0.0004994869
vt 0.9995005 0.9995004
vt 0.000499844551 0.9995005
vn 0 1 0
vn 0 1 0
vn 0 1 0
vn 0 1 0
usemtl nml-bd120_part_11_material_0
f 45/45/45 46/46/46 47/47/47
f 47/47/47 48/48/48 45/45/45
o nml-bd120_part_12
v 6.36023235 1.87374437 0.5192168
v 6.89381027 1.87374437 0.5192168
v 6.89381027 1.87374437 0.00200051069
v 6.36023235 1.87374437 0.00200051069
vt 0.0004994869 0.000499606133
vt 0.999500155 0.0004994869
vt 0.9995005 0.9995004
vt 0.000499844551 0.9995005
vn 0 1 0
vn 0 1 0
vn 0 1 0
vn 0 1 0
usemtl nml-bd120_part_12_material_0
f 49/49/49 50/50/50 51/51/51
f 51/51/51 52/52/52 49/49/49
o nml-bd120_part_13
v -4.96955442 1.87387478 -0.10756883
v -4.19564772 1.87387478 -0.10756883
v -4.19564772 1.87387478 -0.857744
v -4.96955442 1.87387478 -0.857744
vt 0.0004994869 0.000499606133
vt 0.999500155 0.0004994869
vt 0.9995005 0.9995004
vt 0.000499844551 0.9995005
vn 0 1 0
vn 0 1 0
vn 0 1 0
vn 0 1 0
usemtl nml-bd120_part_13_material_0
f 53/53/53 54/54/54 55/55/55
f 55/55/55 56/56/56 53/53/53
o nml-bd120_part_14
v 3.75773787 1.87371647 5.408185
v 4.87332058 1.87371647 5.408185
v 4.87332058 1.87371647 4.326812
v 3.75773787 1.87371647 4.326812
vt 0.0004994869 0.000499606133
vt 0.999500155 0.0004994869
vt 0.9995005 0.9995004
vt 0.000499844551 0.9995005
vn 0 1 0
vn 0 1 0
vn 0 1 0
vn 0 1 0
usemtl nml-bd120_part_14_material_0
f 57/57/57 58/58/58 59/59/59
f 59/59/59 60/60/60 57/57/57
