mtllib nml-bd006.mtl
o nml-bd006_part_0
v -0.791372359 0.72847867 -2.2975235
v -2.17149925 0.72847867 -1.92771959
v -1.91820872 0.72847867 -0.9824275
v -0.5380821 0.72847867 -1.35223126
v -0.5380821 0.72847867 -1.35223126
v -1.91820872 0.72847867 -0.9824275
v -1.91820872 0 -0.9824275
v -0.5380821 0 -1.35223126
v -0.791372359 0.72847867 -2.2975235
v -0.5380821 0.72847867 -1.35223126
v -0.5380821 0 -1.35223126
v -0.791372359 0 -2.2975235
v -2.17149925 0.72847867 -1.92771959
v -0.791372359 0.72847867 -2.2975235
v -0.791372359 0 -2.2975235
v -2.17149925 0 -1.92771959
v -1.91820872 0.72847867 -0.9824275
v -2.17149925 0.72847867 -1.92771959
v -2.17149925 0 -1.92771959
v -1.91820872 0 -0.9824275
v 2.493053 1.06567621 1.268639
v 2.493053 1.06567621 -0.9024405
v 0.8512927 1.06567621 -0.902440548
v 0.851292968 1.06567621 1.26863873
v 2.61493587 0 1.32115209
v 2.61493587 0.875334561 1.32115209
v 0.8512927 0.8753346 1.32115185
v 0.8512925 0 1.32115185
v 0.8512927 0.8753346 1.32115185
v 2.61493587 0.875334561 1.32115209
v 2.493053 1.06567621 1.268639
v 0.851292968 1.06567621 1.26863873
v 2.61493587 0.875334561 -0.954953432
v 2.61493587 0.875334561 1.32115209
v 2.61493587 0 1.32115209
v 2.61493587 0 -0.954953432
v 2.493053 1.06567621 -0.9024405
v 2.493053 1.06567621 1.268639
v 2.61493587 0.875334561 1.32115209
v 2.61493587 0.875334561 -0.954953432
v -2.66792917 0 -0.9549536
v -2.66792917 0.875334561 -0.9549536
v -0.9840802 0.875334561 -0.954953551
v -0.9840801 0 -0.954953551
v -0.9840802 0.875334561 -0.954953551
v -2.66792917 0.875334561 -0.9549536
v -2.54604626 1.06567621 -0.902440548
v -0.984080136 1.06567621 -0.902440548
v -2.66792941 0.875334561 1.32115209
v -2.66792917 0.875334561 -0.9549536
v -2.66792917 0 -0.9549536
v -2.66792941 0 1.32115209
v -2.54604626 1.06567621 1.268639
v -2.54604626 1.06567621 -0.902440548
v -2.66792917 0.875334561 -0.9549536
v -2.66792941 0.875334561 1.32115209
v -0.8396365 1.42489958 1.04019964
v -0.839636564 1.75238192 -0.6254358
v -2.33882236 1.75238192 -0.6254358
v -2.338822 1.42489958 1.04019964
v -0.8396365 1.06772852 1.04019964
v -0.8396365 1.42489958 1.04019964
v -2.338822 1.42489958 1.04019964
v -2.338822 1.06772852 1.04019964
v 2.28582859 1.75238192 -0.6254357
v 2.28582859 1.42489958 1.04019988
v 2.28582859 1.06772852 1.04019988
v 2.28582859 1.06772852 -0.6254357
v 0.781216264 1.06772852 -0.6254358
v 0.781216264 1.75238192 -0.6254358
v 2.28582859 1.75238192 -0.6254357
v 2.28582859 1.06772852 -0.6254357
v -2.338822 1.42489958 1.04019964
v -2.33882236 1.75238192 -0.6254358
v -2.33882236 1.06772852 -0.6254358
v -2.338822 1.06772852 1.04019964
v 2.67698336 2.485972 1.70660412
v 2.67698383 2.84074545 1.70021808
v -2.67698383 2.84074545 1.70021856
v -2.67698383 2.485972 1.70660412
v -2.67698431 3.90879965 0.2517295
v 2.67698336 3.90879965 0.251729369
v 2.67698336 3.92346931 0.169403791
v -2.67698431 3.92346931 0.169403791
v -2.67698431 3.90879965 0.08707845
v 2.67698336 3.90879965 0.08707833
v 2.67698336 2.84074569 -1.36141086
v -2.67698383 2.84074569 -1.36141038
v 2.67698383 2.485972 -1.36779642
v -2.67698383 2.485972 -1.36779642
v -2.67698383 2.84074569 -1.36141038
v -2.35060072 2.82584238 1.67872679
v -2.41507 2.82584214 1.67872679
v -2.41506958 2.3081367 1.21253383
v -2.35060072 2.3081367 1.21253383
v -2.350601 2.86894751 1.61482418
v -2.35060072 2.82584238 1.67872679
v -2.35060072 2.3081367 1.21253383
v -2.35060024 2.37164712 1.14902341
v -2.41507053 2.86894751 1.61482418
v -2.350601 2.86894751 1.61482418
v -2.35060024 2.37164712 1.14902341
v -2.41507 2.37164712 1.14902341
v -2.41507 2.82584214 1.67872679
v -2.41507053 2.86894751 1.61482418
v -2.41507 2.37164712 1.14902341
v -2.41506958 2.3081367 1.21253383
v -2.427744 1.06005418 1.14504468
v -2.42774439 3.20404816 1.14504421
v -2.33792686 3.20404816 1.145044
v -2.33792663 1.06005418 1.14504492
v -2.33792663 1.06005418 1.14504492
v -2.33792686 3.20404816 1.145044
v -2.33792639 3.13679814 1.23486149
v -2.33792639 1.06005418 1.23486221
v -2.33792639 1.06005418 1.23486221
v -2.33792639 3.13679814 1.23486149
v -2.427744 3.13679814 1.23486125
v -2.427744 1.06005418 1.23486245
v -2.427744 1.06005418 1.23486245
v -2.427744 3.13679814 1.23486125
v -2.42774439 3.20404816 1.14504421
v -2.427744 1.06005418 1.14504468
v -2.35552573 3.19260359 -0.856378436
v -2.35552549 3.19260359 1.15630925
v -2.355526 3.90870667 0.178271651
v 2.27172947 3.91799617 0.178183436
v 2.271729 3.18954563 1.1514827
v 2.271729 3.18954563 -0.8612051
v -2.67698383 2.822289 1.67737877
v 2.67698383 2.822289 1.6773783
v 2.67698336 2.46751547 1.68366921
v -2.67698383 2.46751547 1.68366921
v -2.676984 3.90347719 0.217146754
v 2.67698336 3.90347719 0.217146635
v -2.67698383 3.91152263 0.169403791
v -2.676984 3.90347719 0.121661186
v 2.67698336 3.90347719 0.121661067
v 2.67698336 3.91152263 0.169403791
v -2.67698383 2.46751547 -1.34486163
v 2.67698383 2.46751547 -1.34486163
v 2.67698336 2.82228923 -1.33857131
v -2.67698383 2.82228923 -1.33857083
v 0.781216264 1.42489958 1.04019964
v 0.781216264 1.75238192 -0.6254358
v -0.839636564 1.75238192 -0.6254358
v -0.8396365 1.42489958 1.04019964
v 0.781216264 1.06772852 1.04019964
v 0.781216264 1.42489958 1.04019964
v -0.8396365 1.42489958 1.04019964
v -0.8396365 1.06772852 1.04019964
v -2.33882236 1.06772852 -0.6254358
v -2.33882236 1.75238192 -0.6254358
v -0.839636564 1.75238192 -0.6254358
v -0.839636564 1.06772852 -0.6254358
v -0.839636564 1.06772852 -0.6254358
v -0.839636564 1.75238192 -0.6254358
v 0.781216264 1.75238192 -0.6254358
v 0.781216264 1.06772852 -0.6254358
v 2.28582859 1.42489958 1.04019988
v 2.28582859 1.75238192 -0.6254357
v 0.781216264 1.75238192 -0.6254358
v 0.781216264 1.42489958 1.04019964
v 2.28582859 1.06772852 1.04019988
v 2.28582859 1.42489958 1.04019988
v 0.781216264 1.42489958 1.04019964
v 0.781216264 1.06772852 1.04019964
v -0.984080136 1.06567621 1.26863873
v -0.984080136 1.06567621 -0.902440548
v -2.54604626 1.06567621 -0.902440548
v -2.54604626 1.06567621 1.268639
v -0.984080255 0 1.32115185
v -0.984080255 0.8753346 1.32115185
v -2.66792941 0.875334561 1.32115209
v -2.66792941 0 1.32115209
v -0.984080255 0.8753346 1.32115185
v -0.984080136 1.06567621 1.26863873
v -2.54604626 1.06567621 1.268639
v -2.66792941 0.875334561 1.32115209
v 0.8512927 0.875334561 -0.9549535
v 0.8512927 0 -0.954953432
v -0.9840802 0.875334561 -0.954953551
v -0.984080136 1.06567621 -0.902440548
v 0.8512927 1.06567621 -0.902440548
v 0.8512927 0.875334561 -0.9549535
v 0.851292968 1.06567621 1.26863873
v 0.8512927 1.06567621 -0.902440548
v -0.984080136 1.06567621 -0.902440548
v -0.984080136 1.06567621 1.26863873
v 0.8512925 0 1.32115185
v 0.8512927 0.8753346 1.32115185
v -0.984080255 0.8753346 1.32115185
v -0.984080255 0 1.32115185
v 0.8512927 0.8753346 1.32115185
v 0.851292968 1.06567621 1.26863873
v -0.984080136 1.06567621 1.26863873
v -0.984080255 0.8753346 1.32115185
v 0.8512927 0 -0.954953432
v 0.8512927 0.875334561 -0.9549535
v 2.61493587 0.875334561 -0.954953432
v 2.61493587 0 -0.954953432
v 0.8512927 0.875334561 -0.9549535
v 0.8512927 1.06567621 -0.902440548
v 2.493053 1.06567621 -0.9024405
v 2.61493587 0.875334561 -0.954953432
v 2.32390165 2.82584238 1.68150818
v 2.25943232 2.82584214 1.68150818
v 2.25943279 2.3081367 1.21531522
v 2.32390165 2.3081367 1.21531522
v 2.32390165 2.86894751 1.61760557
v 2.32390165 2.82584238 1.68150818
v 2.32390165 2.3081367 1.21531522
v 2.32390213 2.37164712 1.1518048
v 2.25943184 2.86894751 1.61760557
v 2.32390165 2.86894751 1.61760557
v 2.32390213 2.37164712 1.1518048
v 2.25943232 2.37164712 1.1518048
v 2.25943232 2.82584214 1.68150818
v 2.25943184 2.86894751 1.61760557
v 2.25943232 2.37164712 1.1518048
v 2.25943279 2.3081367 1.21531522
v 2.24675846 1.06005418 1.14782584
v 2.246758 3.20404816 1.14782536
v 2.33657551 3.20404816 1.14782512
v 2.336576 1.06005418 1.14782608
v 2.336576 1.06005418 1.14782608
v 2.33657551 3.20404816 1.14782512
v 2.336576 3.13679814 1.23764265
v 2.336576 1.06005418 1.23764336
v 2.336576 1.06005418 1.23764336
v 2.336576 3.13679814 1.23764265
v 2.24675846 3.13679814 1.23764241
v 2.24675846 1.06005418 1.2376436
v 2.24675846 1.06005418 1.2376436
v 2.24675846 3.13679814 1.23764241
v 2.246758 3.20404816 1.14782536
v 2.24675846 1.06005418 1.14782584
v 2.25943279 2.3081367 -0.8556403
v 2.25943232 2.82584214 -1.32183325
v 2.32390165 2.82584238 -1.32183325
v 2.32390165 2.3081367 -0.8556403
v 2.32390165 2.3081367 -0.8556403
v 2.32390165 2.82584238 -1.32183325
v 2.32390165 2.86894751 -1.25793064
v 2.32390213 2.37164712 -0.7921299
v 2.32390213 2.37164712 -0.7921299
v 2.32390165 2.86894751 -1.25793064
v 2.25943184 2.86894751 -1.25793064
v 2.25943232 2.37164712 -0.7921299
v 2.25943232 2.37164712 -0.7921299
v 2.25943184 2.86894751 -1.25793064
v 2.25943232 2.82584214 -1.32183325
v 2.25943279 2.3081367 -0.8556403
v 2.33657551 3.20404816 -0.7881502
v 2.246758 3.20404816 -0.7881504
v 2.24675846 1.06005418 -0.7881509
v 2.336576 1.06005418 -0.788151145
v 2.336576 3.13679814 -0.8779677
v 2.33657551 3.20404816 -0.7881502
v 2.336576 1.06005418 -0.788151145
v 2.336576 1.06005418 -0.877968431
v 2.24675846 3.13679814 -0.8779675
v 2.336576 3.13679814 -0.8779677
v 2.336576 1.06005418 -0.877968431
v 2.24675846 1.06005418 -0.877968669
v 2.246758 3.20404816 -0.7881504
v 2.24675846 3.13679814 -0.8779675
v 2.24675846 1.06005418 -0.877968669
v 2.24675846 1.06005418 -0.7881509
v -2.41506958 2.3081367 -0.8556403
v -2.41507 2.82584214 -1.32183325
v -2.35060072 2.82584238 -1.32183325
v -2.35060072 2.3081367 -0.8556403
v -2.35060072 2.3081367 -0.8556403
v -2.35060072 2.82584238 -1.32183325
v -2.350601 2.86894751 -1.25793064
v -2.35060024 2.37164712 -0.7921299
v -2.35060024 2.37164712 -0.7921299
v -2.350601 2.86894751 -1.25793064
v -2.41507053 2.86894751 -1.25793064
v -2.41507 2.37164712 -0.7921299
v -2.41507 2.37164712 -0.7921299
v -2.41507053 2.86894751 -1.25793064
v -2.41507 2.82584214 -1.32183325
v -2.41506958 2.3081367 -0.8556403
v -2.33792686 3.20404816 -0.7881502
v -2.42774439 3.20404816 -0.7881504
v -2.427744 1.06005418 -0.7881509
v -2.33792663 1.06005418 -0.788151145
v -2.33792639 3.13679814 -0.8779677
v -2.33792686 3.20404816 -0.7881502
v -2.33792663 1.06005418 -0.788151145
v -2.33792639 1.06005418 -0.877968431
v -2.427744 3.13679814 -0.8779675
v -2.33792639 3.13679814 -0.8779677
v -2.33792639 1.06005418 -0.877968431
v -2.427744 1.06005418 -0.877968669
v -2.42774439 3.20404816 -0.7881504
v -2.427744 3.13679814 -0.8779675
v -2.427744 1.06005418 -0.877968669
v -2.427744 1.06005418 -0.7881509
v 0.8663043 0.72847867 2.2975235
v 2.29511642 0.72847867 2.2975235
v 2.295117 0.72847867 1.318885
v 0.8663045 0.72847867 1.318885
v 0.8663043 0.72847867 2.2975235
v 0.8663045 0.72847867 1.318885
v 0.8663045 0 1.318885
v 0.8663043 0 2.2975235
v 2.29511642 0.72847867 2.2975235
v 0.8663043 0.72847867 2.2975235
v 0.8663043 0 2.2975235
v 2.29511642 0 2.2975235
v 2.295117 0.72847867 1.318885
v 2.29511642 0.72847867 2.2975235
v 2.29511642 0 2.2975235
v 2.295117 0 1.318885
v -2.30462313 2.28357959 0.999221
v -2.30462313 3.30583858 0.999221
v -2.30462313 2.28357959 0.18685928
v -2.30462313 3.30583858 0.18685928
v -2.30487943 2.23778725 0.139128119
v -2.30487943 3.26004624 0.139128119
v -2.30487943 2.23778725 -0.6732345
v -2.30487943 3.26004624 -0.6732345
v -2.67698431 3.92346931 0.169403791
v 2.67698336 3.92346931 0.169403791
v -2.34596467 2.75629425 0.584699035
v -2.34596467 3.189093 1.15770042
v -2.34596467 3.189093 0.584699035
v -2.34596467 2.75629425 1.15770066
v -2.34596467 3.19105577 -0.797624052
v -2.34596467 2.764613 -0.233038068
v -2.34596443 3.19105577 -0.233038068
v -2.34596467 2.76461267 -0.7976243
v 2.25271988 3.19257545 -0.228107452
v 2.25271988 2.76237822 -0.228107452
v 2.25271988 3.19257545 -0.797664642
v 2.25271988 2.76237822 -0.797664642
v 2.25271988 3.18389273 0.593797565
v 2.25271988 3.18389273 1.160261
v 2.25271988 2.756032 0.5937973
v 2.25271988 2.756032 1.16026127
v 2.223479 3.30583858 0.999221
v 2.223479 2.28357959 0.999221
v 2.223479 2.28357959 0.18685928
v 2.223479 3.30583858 0.18685928
v 2.22322249 3.26004624 0.139128119
v 2.22322249 2.23778725 0.139128119
v 2.22322249 2.23778725 -0.6732345
v 2.22322249 3.26004624 -0.6732345
vt 0.9938307 0.436936736
vt 0.6380752 0.436936736
vt 0.6380753 0.205511808
vt 0.9938307 0.205511808
vt 0.9956086 0.189472973
vt 0.639853239 0.189472973
vt 0.639853239 0.00442391634
vt 0.9956086 0.00442391634
vt 0.9956086 0.189472973
vt 0.639853239 0.189472973
vt 0.639853239 0.00442391634
vt 0.9956086 0.00442391634
vt 0.9956086 0.189472973
vt 0.639853239 0.189472973
vt 0.639853239 0.00442391634
vt 0.9956086 0.00442391634
vt 0.9956086 0.189472973
vt 0.639853239 0.189472973
vt 0.639853239 0.00442391634
vt 0.9956086 0.00442391634
vt 0.5298235 0.9931636
vt 0.5298235 0.633692265
vt 0.186068118 0.6336922
vt 0.186068088 0.9931636
vt 0.0753001049 0.6347649
vt 0.0753001049 0.9370855
vt 0.5374946 0.9370855
vt 0.5374946 0.6347649
vt 0.537889063 0.9393612
vt 0.537889242 0.6370808
vt 0.6100613 0.6370807
vt 0.6100613 0.9393612
vt 0.008712878 0.63595444
vt 0.6729802 0.63595444
vt 0.6729803 0.942834139
vt 0.00871294 0.942834258
vt 0.537889063 0.9393612
vt 0.537889242 0.6370808
vt 0.6100613 0.6370807
vt 0.6100613 0.9393612
vt 0.0777168 0.6347649
vt 0.0777168 0.9370855
vt 0.5347832 0.9370855
vt 0.5347832 0.6347649
vt 0.5377471 0.940689862
vt 0.5377554 0.639231145
vt 0.6076244 0.639883041
vt 0.607616 0.9410033
vt 0.008712878 0.63595444
vt 0.6729802 0.63595444
vt 0.6729803 0.942834139
vt 0.00871294 0.942834258
vt 0.537889063 0.9393612
vt 0.537889242 0.6370808
vt 0.6100613 0.6370807
vt 0.6100613 0.9393612
vt 0.424721777 0.3209952
vt 0.424721777 0.6298985
vt 0.00632965565 0.62989527
vt 0.00632965565 0.320992053
vt 0.859612763 0.00379520655
vt 0.994099438 0.00379520655
vt 0.9940995 0.3802855
vt 0.8596128 0.3802855
vt 0.7425321 0.748532236
vt 0.8693878 0.380685985
vt 0.997617662 0.380685985
vt 0.997617543 0.748532236
vt 0.9956086 0.00442391634
vt 0.9956086 0.189472973
vt 0.639853239 0.189472973
vt 0.639853239 0.00442391634
vt 0.8693878 0.380685985
vt 0.7425321 0.748532236
vt 0.997617543 0.748532236
vt 0.997617662 0.380685985
vt 0 0.4428724
vt 0 0.5418459
vt 1 0.5418459
vt 0.99999994 0.4428724
vt 0.99999994 0.976802051
vt 0 0.9768022
vt 0 0.9922322
vt 0.99999994 0.9922321
vt 0.9984057 0.9816587
vt 0.002016899 0.9816496
vt 0.00201844168 0.527660966
vt 0.9984073 0.527670145
vt 0.00201844168 0.443706453
vt 0.998407066 0.44329524
vt 0.9984073 0.527255654
vt 0.3339728 -0.6718054
vt 0.3339728 -0.6442964
vt 0.09918317 -0.6442964
vt 0.09918317 -0.6718054
vt 0.3339728 -0.6994698
vt 0.3339728 -0.6718054
vt 0.09918317 -0.6718054
vt 0.09918317 -0.6994698
vt 0.3339728 -0.728374958
vt 0.3339728 -0.6994698
vt 0.09918317 -0.6994698
vt 0.09918317 -0.7283747
vt 0.3339728 -0.6442964
vt 0.3339728 -0.6170511
vt 0.09918317 -0.6170511
vt 0.09918317 -0.6442964
vt 0.00259926543 0.2696743
vt 0.627622545 0.269674182
vt 0.627622545 0.301262736
vt 0.00259926543 0.301262915
vt 0.00259926543 0.301262915
vt 0.627622545 0.301262617
vt 0.6080177 0.328959346
vt 0.00259926543 0.328959465
vt 0.00259926543 0.328959465
vt 0.6080177 0.328959465
vt 0.6080177 0.3569877
vt 0.00259926543 0.3569877
vt 0.00259926543 0.3569877
vt 0.6080177 0.356987953
vt 0.627622545 0.382776558
vt 0.00259926543 0.38277638
vt 0.506079137 0.006103337
vt -0.007766083 0.00476640463
vt 0.238732517 0.206831992
vt 0.238732517 0.206831992
vt -0.007766083 0.00476640463
vt 0.506079137 0.006103337
vt 1 0.5418459
vt 0 0.5418459
vt 0 0.4428724
vt 0.99999994 0.4428724
vt 0.99999994 0.984369457
vt 0 0.9843696
vt 0.99999994 0.9922321
vt 0.99999994 0.984369457
vt 0 0.9843696
vt 0 0.9922322
vt 0.99999994 0.4428724
vt 0 0.4428724
vt 0 0.5418459
vt 1 0.5418459
vt 0.855255067 0.00344276428
vt 0.855255067 0.3082022
vt 0.422860563 0.3082022
vt 0.422860563 0.00344276428
vt 0.859612763 0.00379520655
vt 0.994099438 0.00379520655
vt 0.9940995 0.3802855
vt 0.8596128 0.3802855
vt 0.9956086 0.00442391634
vt 0.9956086 0.189472973
vt 0.639853239 0.189472973
vt 0.639853239 0.00442391634
vt 0.9956086 0.00442391634
vt 0.9956086 0.189472973
vt 0.639853239 0.189472973
vt 0.639853239 0.00442391634
vt 0.425375581 0.00143170357
vt 0.425375581 0.310620785
vt 0.00118542183 0.310617447
vt 0.00118542183 0.00142848492
vt 0.859612763 0.00379520655
vt 0.994099438 0.00379520655
vt 0.9940995 0.3802855
vt 0.8596128 0.3802855
vt 0.187438011 0.9931636
vt 0.187438041 0.6336922
vt 0.5298235 0.633692265
vt 0.5298235 0.9931636
vt 0.5347832 0.6347649
vt 0.5347832 0.9370855
vt 0.07801155 0.9370855
vt 0.07801155 0.6347649
vt 0.537889242 0.6370808
vt 0.6100613 0.6370807
vt 0.6100613 0.9393612
vt 0.537889063 0.9393612
vt 0.07507499 0.9370855
vt 0.07507499 0.6347649
vt 0.5377554 0.639231145
vt 0.6076244 0.639883041
vt 0.607616 0.9410033
vt 0.5377471 0.940689862
vt 0.486784667 0.9931636
vt 0.486784667 0.6345434
vt 0.189038247 0.634543359
vt 0.189038217 0.9931636
vt 0.5347832 0.6347649
vt 0.5347832 0.9370855
vt 0.07394441 0.9370855
vt 0.07394441 0.6347649
vt 0.537889242 0.6370808
vt 0.6100613 0.6370807
vt 0.6100613 0.9393612
vt 0.537889063 0.9393612
vt 0.5347832 0.6347649
vt 0.5347832 0.9370855
vt 0.07694214 0.9370855
vt 0.07694214 0.6347649
vt 0.5377554 0.639231145
vt 0.6076244 0.639883041
vt 0.607616 0.9410033
vt 0.5377471 0.940689862
vt 0.3339728 -0.6718054
vt 0.3339728 -0.6442964
vt 0.09918317 -0.6442964
vt 0.09918317 -0.6718054
vt 0.3339728 -0.6994698
vt 0.3339728 -0.6718054
vt 0.09918317 -0.6718054
vt 0.09918317 -0.6994698
vt 0.3339728 -0.728374958
vt 0.3339728 -0.6994698
vt 0.09918317 -0.6994698
vt 0.09918317 -0.7283747
vt 0.3339728 -0.6442964
vt 0.3339728 -0.6170511
vt 0.09918317 -0.6170511
vt 0.09918317 -0.6442964
vt 0.00259926543 0.2696743
vt 0.627622545 0.269674182
vt 0.627622545 0.301262736
vt 0.00259926543 0.301262915
vt 0.00259926543 0.301262915
vt 0.627622545 0.301262617
vt 0.6080177 0.328959346
vt 0.00259926543 0.328959465
vt 0.00259926543 0.328959465
vt 0.6080177 0.328959465
vt 0.6080177 0.3569877
vt 0.00259926543 0.3569877
vt 0.00259926543 0.3569877
vt 0.6080177 0.356987953
vt 0.627622545 0.382776558
vt 0.00259926543 0.38277638
vt 0.09918317 -0.6442964
vt 0.3339728 -0.6442964
vt 0.3339728 -0.6718054
vt 0.09918317 -0.6718054
vt 0.09918317 -0.6718054
vt 0.3339728 -0.6718054
vt 0.3339728 -0.6994698
vt 0.09918317 -0.6994698
vt 0.09918317 -0.6994698
vt 0.3339728 -0.6994698
vt 0.3339728 -0.728374958
vt 0.09918317 -0.7283747
vt 0.09918317 -0.6170511
vt 0.3339728 -0.6170511
vt 0.3339728 -0.6442964
vt 0.09918317 -0.6442964
vt 0.627622545 0.301262736
vt 0.627622545 0.269674182
vt 0.00259926543 0.2696743
vt 0.00259926543 0.301262915
vt 0.6080177 0.328959346
vt 0.627622545 0.301262617
vt 0.00259926543 0.301262915
vt 0.00259926543 0.328959465
vt 0.6080177 0.3569877
vt 0.6080177 0.328959465
vt 0.00259926543 0.328959465
vt 0.00259926543 0.3569877
vt 0.627622545 0.382776558
vt 0.6080177 0.356987953
vt 0.00259926543 0.3569877
vt 0.00259926543 0.38277638
vt 0.09918317 -0.6442964
vt 0.3339728 -0.6442964
vt 0.3339728 -0.6718054
vt 0.09918317 -0.6718054
vt 0.09918317 -0.6718054
vt 0.3339728 -0.6718054
vt 0.3339728 -0.6994698
vt 0.09918317 -0.6994698
vt 0.09918317 -0.6994698
vt 0.3339728 -0.6994698
vt 0.3339728 -0.728374958
vt 0.09918317 -0.7283747
vt 0.09918317 -0.6170511
vt 0.3339728 -0.6170511
vt 0.3339728 -0.6442964
vt 0.09918317 -0.6442964
vt 0.627622545 0.301262736
vt 0.627622545 0.269674182
vt 0.00259926543 0.2696743
vt 0.00259926543 0.301262915
vt 0.6080177 0.328959346
vt 0.627622545 0.301262617
vt 0.00259926543 0.301262915
vt 0.00259926543 0.328959465
vt 0.6080177 0.3569877
vt 0.6080177 0.328959465
vt 0.00259926543 0.328959465
vt 0.00259926543 0.3569877
vt 0.627622545 0.382776558
vt 0.6080177 0.356987953
vt 0.00259926543 0.3569877
vt 0.00259926543 0.38277638
vt 0.9938307 0.436936736
vt 0.6380752 0.436936736
vt 0.6380753 0.205511808
vt 0.9938307 0.205511808
vt 0.9956086 0.189472973
vt 0.639853239 0.189472973
vt 0.639853239 0.00442391634
vt 0.9956086 0.00442391634
vt 0.9956086 0.189472973
vt 0.639853239 0.189472973
vt 0.639853239 0.00442391634
vt 0.9956086 0.00442391634
vt 0.9956086 0.189472973
vt 0.639853239 0.189472973
vt 0.639853239 0.00442391634
vt 0.9956086 0.00442391634
vt 0.748092055 0.329190433
vt 0.748092055 0.6192934
vt 0.4398705 0.329190433
vt 0.4398705 0.6192934
vt 0.748092055 0.329190433
vt 0.748092055 0.6192934
vt 0.4398705 0.329190433
vt 0.4398705 0.6192934
vt 0.998405635 0.997763932
vt 0.00201684423 0.9977548
vt 0.39115423 0.107461154
vt 0.6242784 0.251115441
vt 0.39115423 0.251115441
vt 0.6242784 0.107461154
vt 0.6242784 0.251115441
vt 0.39115423 0.107461154
vt 0.39115423 0.251115441
vt 0.6242784 0.107461154
vt 0.39115423 0.251115441
vt 0.39115423 0.107461154
vt 0.6242784 0.251115441
vt 0.6242784 0.107461154
vt 0.39115423 0.251115441
vt 0.6242784 0.251115441
vt 0.39115423 0.107461154
vt 0.6242784 0.107461154
vt 0.748092055 0.6192934
vt 0.748092055 0.329190433
vt 0.4398705 0.329190433
vt 0.4398705 0.6192934
vt 0.748092055 0.6192934
vt 0.748092055 0.329190433
vt 0.4398705 0.329190433
vt 0.4398705 0.6192934
vn 0 1 0
vn 0 1 0
vn 0 1 0
vn 0 1 0
vn 0.258819 0 0.9659258
vn 0.258818984 0 0.9659258
vn 0.258818984 0 0.9659258
vn 0.258818984 0 0.9659258
vn 0.9659259 0 -0.258818954
vn 0.9659259 0 -0.258818954
vn 0.9659259 0 -0.258818954
vn 0.9659259 0 -0.258818954
vn -0.258819133 0 -0.9659258
vn -0.258819133 0 -0.9659258
vn -0.258819133 0 -0.9659258
vn -0.258819133 0 -0.9659258
vn -0.965925753 0 0.2588193
vn -0.965925753 0 0.2588193
vn -0.965925753 0 0.2588193
vn -0.965925753 0 0.2588193
vn 0 1 0
vn 0 1 0
vn 0 1 0
vn 0 1 0
vn -1.3518526E-07 1.07992694E-14 1
vn -1.30866425E-07 0.105477333 0.9944217
vn -6.906324E-08 0.134190157 0.9909556
vn -6.75926159E-08 1.8410483E-14 1
vn -6.906324E-08 0.134190157 0.9909556
vn -1.30866425E-07 0.105477333 0.9944217
vn -1.22380271E-07 0.265952826 0.963986039
vn -6.999572E-08 0.265952975 0.963986
vn 0.965914845 0.258860022 0
vn 0.965914845 0.25886 0
vn 1 0 0
vn 1 0 0
vn 0.8421423 0.5392554 0
vn 0.8421423 0.5392554 0
vn 0.965914845 0.25886 0
vn 0.965914845 0.258860022 0
vn 3.53978535E-08 1.4712489E-15 -1
vn 3.52003973E-08 0.105477251 -0.9944217
vn 1.835119E-08 0.134189844 -0.990955651
vn 3.853694E-08 -9.64568247E-09 -1
vn 1.835119E-08 0.134189844 -0.990955651
vn 3.52003973E-08 0.105477251 -0.9944217
vn 3.21027045E-08 0.2659526 -0.9639861
vn 0 0.265952349 -0.963986158
vn -0.9659148 0.25886032 -1.01178095E-07
vn -0.965914845 0.258860022 -6.202811E-08
vn -1 0 -1.04748473E-07
vn -1 0 -1.04748466E-07
vn -0.842141867 0.539256036 -8.324615E-08
vn -0.8421423 0.5392554 0
vn -0.965914845 0.258860022 -6.202811E-08
vn -0.9659148 0.25886032 -1.01178095E-07
vn 0 0.981214941 0.19291769
vn 0 0.981214941 0.19291769
vn 0 0.981214941 0.192917675
vn 0 0.981214941 0.19291769
vn 0 0 1
vn 0 0 1
vn 0 0 1
vn 0 0 1
vn 1 0 0
vn 1 0 0
vn 1 0 0
vn 1 0 0
vn 3.96146227E-08 0 -1
vn 3.961462E-08 0 -1
vn 7.922924E-08 0 -1
vn 7.922924E-08 0 -1
vn -1 0 2.862794E-07
vn -1 0 2.862794E-07
vn -1 0 2.862794E-07
vn -1 0 2.862794E-07
vn 8.52963851E-08 0.01799736 0.999838054
vn 7.913248E-08 0.458864868 0.888506055
vn 1.40243968E-08 0.4588642 0.8885064
vn 0 0.0179960746 0.999838054
vn 6.804811E-09 0.9187671 0.3948
vn 2.49430823E-08 0.918767035 0.394800127
vn 1.96403871E-09 1 -1.15760059E-07
vn -1.96404382E-09 1 -3.74946438E-07
vn -2.494308E-08 0.918767 -0.3948003
vn -6.80481E-09 0.918767035 -0.394800156
vn -1.402439E-08 0.458864 -0.888506532
vn -7.91324837E-08 0.458864748 -0.8885061
vn 0 0.0179960616 -0.999838054
vn -8.529639E-08 0.0179973487 -0.999838054
vn -7.91324837E-08 0.458864748 -0.8885061
vn 2.32932666E-06 -0.6691693 0.743109941
vn 2.47470211E-06 -0.669169366 0.743109941
vn 1.453757E-07 -0.6691692 0.743110061
vn 0 -0.6691692 0.743110061
vn 1 1.71476711E-06 -1.79780943E-06
vn 1 2.09013024E-06 -2.32108232E-06
vn 1 -2.52520931E-06 4.11290875E-06
vn 1 -2.88856813E-06 4.619447E-06
vn 0 0.6836143 -0.7298435
vn 0 0.6836143 -0.7298435
vn 0 0.6836143 -0.7298435
vn 0 0.683614254 -0.7298435
vn -1 -4.79608434E-06 4.11241E-06
vn -1 -4.87071657E-06 4.17640376E-06
vn -1 -4.09858E-06 3.51433459E-06
vn -1 -4.042105E-06 3.46590969E-06
vn 2.512981E-06 -4.38883831E-07 -1
vn -2.65447716E-06 -2.22406612E-07 -1
vn -2.51297433E-06 -2.28334528E-07 -1
vn 2.65448421E-06 -4.44811747E-07 -1
vn 1 3.05896863E-09 -2.72523516E-06
vn 1 1.11200677E-07 -5.225694E-06
vn 1 1.09029244E-07 -5.175486E-06
vn 1 -9.142366E-13 -2.65448443E-06
vn 2.50839457E-06 5.677022E-07 1
vn -2.65447738E-06 3.44412058E-07 1
vn -2.50839457E-06 3.50730033E-07 1
vn 2.65447738E-06 5.74020135E-07 1
vn -1 -2.164779E-07 1.4150622E-07
vn -1 3.04746441E-12 5.30898524E-06
vn -1 -1.00302913E-08 5.06948572E-06
vn -1 -2.22406015E-07 0
vn -1 -5.040908E-07 1.18457805E-07
vn -1 -5.040908E-07 1.18457812E-07
vn -1 -5.040908E-07 1.18457812E-07
vn 1 -6.54590963E-07 0
vn 1 -6.54591E-07 0
vn 1 -6.54590963E-07 0
vn -1.40913112E-08 -0.457864076 -0.889022231
vn -7.917841E-08 -0.4578648 -0.8890219
vn -8.52968E-08 -0.01772935 -0.9998428
vn 0 -0.0177280623 -0.9998428
vn -8.714612E-09 -0.9202234 -0.3913935
vn -2.30034143E-08 -0.9202234 -0.391393453
vn 1.33631806E-14 -1 5.982297E-07
vn 8.714623E-09 -0.9202232 0.391394049
vn 2.30034036E-08 -0.9202234 0.391393453
vn 0 -1 1.897668E-07
vn 8.52968043E-08 -0.017729003 0.9998428
vn 0 -0.0177277159 0.9998428
vn 3.163281E-08 -0.4578638 0.88902235
vn 6.16369249E-08 -0.457864583 0.889021933
vn -1.52847228E-08 0.981214941 0.19291769
vn -1.11707887E-08 0.981214941 0.19291769
vn 0 0.981214941 0.19291769
vn 0 0.981214941 0.19291769
vn -7.922924E-08 0 1
vn -7.922924E-08 0 1
vn 0 0 1
vn 0 0 1
vn 0 0 -1
vn 0 0 -1
vn 0 0 -1
vn 0 0 -1
vn 0 0 -1
vn 0 0 -1
vn 3.961462E-08 0 -1
vn 3.96146227E-08 0 -1
vn -2.3512591E-08 0.981214941 0.19291769
vn -1.5284721E-08 0.981214941 0.1929177
vn -1.11707887E-08 0.981214941 0.19291769
vn -1.52847228E-08 0.981214941 0.19291769
vn -1.58458477E-07 0 1
vn -1.58458477E-07 0 1
vn -7.922924E-08 0 1
vn -7.922924E-08 0 1
vn 0 1 0
vn 0 1 0
vn 0 1 0
vn 0 1 0
vn 7.079571E-08 0 1
vn 7.24371745E-08 0.134190157 0.9909556
vn 1.370679E-07 0.105477281 0.9944217
vn 1.41591414E-07 0 1
vn 7.24371745E-08 0.134190157 0.9909556
vn 7.35714E-08 0.265952975 0.963986
vn 1.28265967E-07 0.265952855 0.963986039
vn 1.370679E-07 0.105477281 0.9944217
vn 3.92717467E-08 0.134189665 -0.990955651
vn 4.44175718E-08 -5.81079362E-08 -1
vn 1.835119E-08 0.134189844 -0.990955651
vn 0 0.265952349 -0.963986158
vn 3.208394E-08 0.26595208 -0.9639863
vn 3.92717467E-08 0.134189665 -0.990955651
vn 0 1 0
vn 0 1 0
vn 0 1 0
vn 0 1 0
vn -6.75926159E-08 1.8410483E-14 1
vn -6.906324E-08 0.134190157 0.9909556
vn 7.24371745E-08 0.134190157 0.9909556
vn 7.079571E-08 0 1
vn -6.906324E-08 0.134190157 0.9909556
vn -6.999572E-08 0.265952975 0.963986
vn 7.35714E-08 0.265952975 0.963986
vn 7.24371745E-08 0.134190157 0.9909556
vn 4.44175718E-08 -5.81079362E-08 -1
vn 3.92717467E-08 0.134189665 -0.990955651
vn 1.89882261E-08 0.10547702 -0.9944217
vn 0 0 -1
vn 3.92717467E-08 0.134189665 -0.990955651
vn 3.208394E-08 0.26595208 -0.9639863
vn 3.27154979E-08 0.265952051 -0.9639863
vn 1.89882261E-08 0.10547702 -0.9944217
vn 2.32932666E-06 -0.6691693 0.743109941
vn 2.47470211E-06 -0.669169366 0.743109941
vn 1.453757E-07 -0.6691692 0.743110061
vn 0 -0.6691692 0.743110061
vn 1 -2.36444251E-07 3.296139E-07
vn 1 0 0
vn 1 -2.9072387E-06 4.052821E-06
vn 1 -3.13612145E-06 4.37189374E-06
vn 0 0.6836143 -0.7298435
vn 0 0.683614254 -0.7298435
vn 0 0.6836143 -0.7298435
vn 0 0.683614254 -0.7298435
vn -1 -4.79608434E-06 4.11241E-06
vn -1 -4.87071657E-06 4.17640376E-06
vn -1 -4.09858E-06 3.51433459E-06
vn -1 -4.042105E-06 3.46590969E-06
vn 2.512974E-06 -4.38883546E-07 -1
vn -2.65447716E-06 -2.22406612E-07 -1
vn -2.512974E-06 -2.28334528E-07 -1
vn 2.65447716E-06 -4.448114E-07 -1
vn 1 6.11978024E-09 -1.41501914E-07
vn 1 2.22403713E-07 -5.14243175E-06
vn 1 2.18060833E-07 -5.04201535E-06
vn 1 0 0
vn 2.50839457E-06 5.677022E-07 1
vn -2.65447738E-06 3.44412058E-07 1
vn -2.50839457E-06 3.50730033E-07 1
vn 2.65447738E-06 5.74020135E-07 1
vn -1 -2.164779E-07 1.4150622E-07
vn -1 3.04746441E-12 5.30898524E-06
vn -1 -1.00302913E-08 5.06948572E-06
vn -1 -2.22406015E-07 0
vn 1.45374912E-07 -0.6691691 -0.7431101
vn 2.47470166E-06 -0.6691693 -0.74311
vn 2.32932734E-06 -0.6691693 -0.743109941
vn 0 -0.6691691 -0.7431101
vn 1 -2.90723847E-06 -4.05282162E-06
vn 1 0 0
vn 1 -2.3644462E-07 -3.29614437E-07
vn 1 -3.13612054E-06 -4.37189374E-06
vn 0 0.683614254 0.7298435
vn 0 0.683614254 0.7298435
vn 0 0.683614254 0.7298435
vn 0 0.683614254 0.7298435
vn -1 -4.09858058E-06 -3.514335E-06
vn -1 -4.87071657E-06 -4.176404E-06
vn -1 -4.79608434E-06 -4.11241035E-06
vn -1 -4.042105E-06 -3.46591E-06
vn -2.512974E-06 -2.28334528E-07 1
vn -2.65447716E-06 -2.22406612E-07 1
vn 2.512974E-06 -4.38883546E-07 1
vn 2.65447716E-06 -4.448114E-07 1
vn 1 2.18060833E-07 5.04201535E-06
vn 1 2.22403713E-07 5.14243175E-06
vn 1 6.11978024E-09 1.41501914E-07
vn 1 0 0
vn -2.50839457E-06 3.50730033E-07 -1
vn -2.65447738E-06 3.44412058E-07 -1
vn 2.50839457E-06 5.677022E-07 -1
vn 2.65447738E-06 5.74020135E-07 -1
vn -1 -1.00302913E-08 -5.06948572E-06
vn -1 3.04746441E-12 -5.30898524E-06
vn -1 -2.164779E-07 -1.4150622E-07
vn -1 -2.22406015E-07 0
vn 1.45374912E-07 -0.6691691 -0.7431101
vn 2.47470166E-06 -0.6691693 -0.74311
vn 2.32932734E-06 -0.6691693 -0.743109941
vn 0 -0.6691691 -0.7431101
vn 1 -2.52520977E-06 -4.112909E-06
vn 1 2.09013024E-06 2.32108277E-06
vn 1 1.71476631E-06 1.79780864E-06
vn 1 -2.888568E-06 -4.619447E-06
vn 0 0.683614254 0.7298435
vn 0 0.6836143 0.7298435
vn 0 0.683614254 0.7298435
vn 0 0.683614254 0.7298435
vn -1 -4.09858058E-06 -3.514335E-06
vn -1 -4.87071657E-06 -4.176404E-06
vn -1 -4.79608434E-06 -4.11241035E-06
vn -1 -4.042105E-06 -3.46591E-06
vn -2.51297433E-06 -2.28334528E-07 1
vn -2.65447716E-06 -2.22406612E-07 1
vn 2.512981E-06 -4.38883831E-07 1
vn 2.65448421E-06 -4.44811747E-07 1
vn 1 1.09029244E-07 5.175486E-06
vn 1 1.11200677E-07 5.225694E-06
vn 1 3.05896863E-09 2.72523516E-06
vn 1 -9.142366E-13 2.65448443E-06
vn -2.50839457E-06 3.50730033E-07 -1
vn -2.65447738E-06 3.44412058E-07 -1
vn 2.50839457E-06 5.677022E-07 -1
vn 2.65447738E-06 5.74020135E-07 -1
vn -1 -1.00302913E-08 -5.06948572E-06
vn -1 3.04746441E-12 -5.30898524E-06
vn -1 -2.164779E-07 -1.4150622E-07
vn -1 -2.22406015E-07 0
vn 0 1 0
vn 0 1 0
vn 0 1 0
vn 0 1 0
vn -1 0 -2.43622736E-07
vn -1 0 -2.43622736E-07
vn -1 0 -2.43622736E-07
vn -1 0 -2.43622736E-07
vn 0 0 1
vn 0 0 1
vn 0 0 1
vn 0 0 1
vn 1 0 4.872455E-07
vn 1 0 4.872455E-07
vn 1 0 4.872455E-07
vn 1 0 4.872455E-07
vn -1 0 0
vn -1 0 0
vn -1 0 0
vn -1 0 0
vn -1 0 0
vn -1 0 0
vn -1 0 0
vn -1 0 0
vn -1.96404382E-09 1 -3.74946438E-07
vn 1.96403871E-09 1 -1.15760059E-07
vn -1 0 0
vn -1 0 0
vn -1 0 0
vn -1 0 0
vn -1 2.30247181E-07 1.739102E-07
vn -1 3.28839462E-07 2.48378882E-07
vn -1 5.590868E-07 4.22289219E-07
vn -1 0 0
vn 1 0 0
vn 1 0 0
vn 1 0 0
vn 1 0 0
vn 1 0 0
vn 1 0 0
vn 1 0 0
vn 1 0 0
vn 1 0 0
vn 1 0 0
vn 1 0 0
vn 1 0 0
vn 1 0 0
vn 1 0 0
vn 1 0 0
vn 1 0 0
usemtl nml-bd006_part_0_material_0
f 1/1/1 2/2/2 3/3/3
f 3/3/3 4/4/4 1/1/1
f 5/5/5 6/6/6 7/7/7
f 7/7/7 8/8/8 5/5/5
f 9/9/9 10/10/10 11/11/11
f 11/11/11 12/12/12 9/9/9
f 13/13/13 14/14/14 15/15/15
f 15/15/15 16/16/16 13/13/13
f 17/17/17 18/18/18 19/19/19
f 19/19/19 20/20/20 17/17/17
f 69/69/69 70/70/70 71/71/71
f 71/71/71 72/72/72 69/69/69
f 77/77/77 78/78/78 79/79/79
f 79/79/79 80/80/80 77/77/77
f 81/81/81 82/82/82 83/83/83
f 83/83/83 84/84/84 81/81/81
f 85/85/85 86/86/86 87/87/87
f 87/87/87 88/88/88 85/85/85
f 87/87/87 89/89/89 90/90/90
f 90/90/90 91/91/91 87/87/87
f 92/92/92 93/93/93 94/94/94
f 94/94/94 95/95/95 92/92/92
f 96/96/96 97/97/97 98/98/98
f 98/98/98 99/99/99 96/96/96
f 100/100/100 101/101/101 102/102/102
f 102/102/102 103/103/103 100/100/100
f 104/104/104 105/105/105 106/106/106
f 106/106/106 107/107/107 104/104/104
f 108/108/108 109/109/109 110/110/110
f 110/110/110 111/111/111 108/108/108
f 112/112/112 113/113/113 114/114/114
f 114/114/114 115/115/115 112/112/112
f 116/116/116 117/117/117 118/118/118
f 118/118/118 119/119/119 116/116/116
f 120/120/120 121/121/121 122/122/122
f 122/122/122 123/123/123 120/120/120
f 124/124/124 125/125/125 126/126/126
f 127/127/127 128/128/128 129/129/129
f 130/130/130 131/131/131 132/132/132
f 132/132/132 133/133/133 130/130/130
f 130/130/130 134/134/134 135/135/135
f 135/135/135 131/131/131 130/130/130
f 136/136/136 137/137/137 138/138/138
f 138/138/138 139/139/139 136/136/136
f 140/140/140 141/141/141 142/142/142
f 142/142/142 143/143/143 140/140/140
f 152/152/152 153/153/153 154/154/154
f 154/154/154 155/155/155 152/152/152
f 156/156/156 157/157/157 158/158/158
f 158/158/158 159/159/159 156/156/156
f 206/206/206 207/207/207 208/208/208
f 208/208/208 209/209/209 206/206/206
f 210/210/210 211/211/211 212/212/212
f 212/212/212 213/213/213 210/210/210
f 214/214/214 215/215/215 216/216/216
f 216/216/216 217/217/217 214/214/214
f 218/218/218 219/219/219 220/220/220
f 220/220/220 221/221/221 218/218/218
f 222/222/222 223/223/223 224/224/224
f 224/224/224 225/225/225 222/222/222
f 226/226/226 227/227/227 228/228/228
f 228/228/228 229/229/229 226/226/226
f 230/230/230 231/231/231 232/232/232
f 232/232/232 233/233/233 230/230/230
f 234/234/234 235/235/235 236/236/236
f 236/236/236 237/237/237 234/234/234
f 238/238/238 239/239/239 240/240/240
f 240/240/240 241/241/241 238/238/238
f 242/242/242 243/243/243 244/244/244
f 244/244/244 245/245/245 242/242/242
f 246/246/246 247/247/247 248/248/248
f 248/248/248 249/249/249 246/246/246
f 250/250/250 251/251/251 252/252/252
f 252/252/252 253/253/253 250/250/250
f 254/254/254 255/255/255 256/256/256
f 256/256/256 257/257/257 254/254/254
f 258/258/258 259/259/259 260/260/260
f 260/260/260 261/261/261 258/258/258
f 262/262/262 263/263/263 264/264/264
f 264/264/264 265/265/265 262/262/262
f 266/266/266 267/267/267 268/268/268
f 268/268/268 269/269/269 266/266/266
f 270/270/270 271/271/271 272/272/272
f 272/272/272 273/273/273 270/270/270
f 274/274/274 275/275/275 276/276/276
f 276/276/276 277/277/277 274/274/274
f 278/278/278 279/279/279 280/280/280
f 280/280/280 281/281/281 278/278/278
f 282/282/282 283/283/283 284/284/284
f 284/284/284 285/285/285 282/282/282
f 286/286/286 287/287/287 288/288/288
f 288/288/288 289/289/289 286/286/286
f 290/290/290 291/291/291 292/292/292
f 292/292/292 293/293/293 290/290/290
f 294/294/294 295/295/295 296/296/296
f 296/296/296 297/297/297 294/294/294
f 298/298/298 299/299/299 300/300/300
f 300/300/300 301/301/301 298/298/298
f 302/302/302 303/303/303 304/304/304
f 304/304/304 305/305/305 302/302/302
f 306/306/306 307/307/307 308/308/308
f 308/308/308 309/309/309 306/306/306
f 310/310/310 311/311/311 312/312/312
f 312/312/312 313/313/313 310/310/310
f 314/314/314 315/315/315 316/316/316
f 316/316/316 317/317/317 314/314/314
f 79/79/79 78/78/78 82/82/82
f 82/82/82 81/81/81 79/79/79
f 326/326/326 327/327/327 86/86/86
f 86/86/86 85/85/85 326/326/326
f 136/136/136 139/139/139 135/135/135
f 135/135/135 134/134/134 136/136/136
f 143/143/143 142/142/142 138/138/138
f 138/138/138 137/137/137 143/143/143
f 328/328/328 329/329/329 330/330/330
f 329/329/329 328/328/328 331/331/331
f 332/332/332 333/333/333 334/334/334
f 333/333/333 332/332/332 335/335/335
f 336/336/336 337/337/337 338/338/338
f 339/339/339 338/338/338 337/337/337
f 340/340/340 341/341/341 342/342/342
f 343/343/343 342/342/342 341/341/341
usemtl nml-bd006_part_0_material_1
f 21/21/21 22/22/22 23/23/23
f 23/23/23 24/24/24 21/21/21
f 25/25/25 26/26/26 27/27/27
f 27/27/27 28/28/28 25/25/25
f 29/29/29 30/30/30 31/31/31
f 31/31/31 32/32/32 29/29/29
f 33/33/33 34/34/34 35/35/35
f 35/35/35 36/36/36 33/33/33
f 37/37/37 38/38/38 39/39/39
f 39/39/39 40/40/40 37/37/37
f 41/41/41 42/42/42 43/43/43
f 43/43/43 44/44/44 41/41/41
f 45/45/45 46/46/46 47/47/47
f 47/47/47 48/48/48 45/45/45
f 49/49/49 50/50/50 51/51/51
f 51/51/51 52/52/52 49/49/49
f 53/53/53 54/54/54 55/55/55
f 55/55/55 56/56/56 53/53/53
f 57/57/57 58/58/58 59/59/59
f 59/59/59 60/60/60 57/57/57
f 61/61/61 62/62/62 63/63/63
f 63/63/63 64/64/64 61/61/61
f 65/65/65 66/66/66 67/67/67
f 67/67/67 68/68/68 65/65/65
f 73/73/73 74/74/74 75/75/75
f 75/75/75 76/76/76 73/73/73
f 144/144/144 145/145/145 146/146/146
f 146/146/146 147/147/147 144/144/144
f 148/148/148 149/149/149 150/150/150
f 150/150/150 151/151/151 148/148/148
f 160/160/160 161/161/161 162/162/162
f 162/162/162 163/163/163 160/160/160
f 164/164/164 165/165/165 166/166/166
f 166/166/166 167/167/167 164/164/164
f 168/168/168 169/169/169 170/170/170
f 170/170/170 171/171/171 168/168/168
f 172/172/172 173/173/173 174/174/174
f 174/174/174 175/175/175 172/172/172
f 176/176/176 177/177/177 178/178/178
f 178/178/178 179/179/179 176/176/176
f 44/44/44 43/43/43 180/180/180
f 180/180/180 181/181/181 44/44/44
f 182/182/182 183/183/183 184/184/184
f 184/184/184 185/185/185 182/182/182
f 186/186/186 187/187/187 188/188/188
f 188/188/188 189/189/189 186/186/186
f 190/190/190 191/191/191 192/192/192
f 192/192/192 193/193/193 190/190/190
f 194/194/194 195/195/195 196/196/196
f 196/196/196 197/197/197 194/194/194
f 198/198/198 199/199/199 200/200/200
f 200/200/200 201/201/201 198/198/198
f 202/202/202 203/203/203 204/204/204
f 204/204/204 205/205/205 202/202/202
f 318/318/318 319/319/319 320/320/320
f 321/321/321 320/320/320 319/319/319
f 322/322/322 323/323/323 324/324/324
f 325/325/325 324/324/324 323/323/323
f 344/344/344 345/345/345 346/346/346
f 346/346/346 347/347/347 344/344/344
f 348/348/348 349/349/349 350/350/350
f 350/350/350 351/351/351 348/348/348
