mtllib nml-bd044.mtl
o nml-bd044_part_0
v -0.453823268 -0.07318919 -1.76179993
v -0.696347356 -0.0798211843 -1.86423445
v -0.6158073 0.002828303 -1.93758512
v -0.3566261 0.0439680479 -1.87356281
v -0.696347356 -0.0798211843 -1.86423445
v -0.453823268 -0.07318919 -1.76179993
v -0.405414343 0.001171025 -1.72331834
v 0.4639277 0.194102675 -1.51831782
v 0.424874 0.07554472 -1.3780055
v 0.452342749 -0.004350064 -1.43786764
v 0.491396368 0.114207879 -1.57818007
v 0.4639277 0.194102675 -1.51831782
v 0.491396368 0.114207879 -1.57818007
v -0.3566261 0.0439680479 -1.87356281
v -0.5024035 0.09442507 -1.87150347
v -0.6158073 0.002828303 -1.93758512
v 0.491396368 0.114207879 -1.57818007
v 0.452342749 -0.004350064 -1.43786764
v 0.424874 0.07554472 -1.3780055
v 0.452342749 -0.004350064 -1.43786764
vt 0.115785122 0.0171006322
vt 0.0180474762 0.0191310644
vt 0.056264244 0.0778648257
vt 0.139617637 0.08168435
vt 0.0153011866 0.109534621
vt 0.126273945 0.09528142
vt 0.14483045 0.119274139
vt 0.9509689 0.8677803
vt 0.9509676 0.978498161
vt 0.873075247 0.9784973
vt 0.873076558 0.867779553
vt 0.4708118 0.149299741
vt 0.469570428 0.185163915
vt 0.123010457 0.180893183
vt 0.111034177 0.150092363
vt 0.03741897 0.142228425
vt 0.473651171 0.08058202
vt 0.473651171 0.006492555
vt 0.472086161 0.119407833
vt 0.470854133 0.09355372
vn 0.26528728 -0.771608233 -0.5781379
vn 0.2652873 -0.771608233 -0.5781379
vn 0.26528728 -0.771608233 -0.5781379
vn 0.26528728 -0.771608233 -0.5781379
vn -0.485320717 0.3471014 0.8024864
vn -0.340071917 -0.248037875 0.9070988
vn -0.477137029 0.142652735 0.867173851
vn 0.9414764 0.07798045 0.3279348
vn 0.9414763 0.07798058 0.327935129
vn 0.9414764 0.07798045 0.3279348
vn 0.9414765 0.0779803246 0.3279345
vn 0.0573133081 0.9087918 -0.413294852
vn 0.207953647 0.6313 -0.747138262
vn 0.188046649 0.5757677 -0.795694649
vn -0.305847079 0.948551357 0.0819019
vn -0.5070577 0.8549134 0.109615117
vn 0.2652873 -0.771608233 -0.5781379
vn 0.2652873 -0.771608233 -0.5781379
vn -0.378900677 0.3590594 0.852942348
vn -0.282500148 -0.463371515 0.839928865
usemtl nml-bd044_part_0_material_0
f 1/1/1 2/2/2 3/3/3
f 3/3/3 4/4/4 1/1/1
f 5/5/5 6/6/6 7/7/7
f 8/8/8 9/9/9 10/10/10
f 10/10/10 11/11/11 8/8/8
f 12/12/12 13/13/13 14/14/14
f 14/14/14 15/15/15 12/12/12
f 7/7/7 15/15/15 16/16/16
f 16/16/16 5/5/5 7/7/7
f 1/1/1 4/4/4 17/17/17
f 17/17/17 18/18/18 1/1/1
f 15/15/15 7/7/7 19/19/19
f 19/19/19 12/12/12 15/15/15
f 7/7/7 6/6/6 20/20/20
f 20/20/20 19/19/19 7/7/7
f 14/14/14 16/16/16 15/15/15
o nml-bd044_part_1
v -1.25056577 0.07472949 -1.18122876
v -1.22208142 0.0402201451 -1.39117277
v -1.22720528 0.107128195 -1.40640366
v -1.2556895 0.141637549 -1.19645953
v -1.25056577 0.07472949 -1.18122876
v -1.2556895 0.141637549 -1.19645953
v -2.2919805 0.05359314 -1.300133
v -2.2940197 -0.0211057346 -1.25734138
v -2.31335855 -0.0548606254 -1.49122012
v -2.352473 0.0182235148 -1.47304547
v -1.22720528 0.107128195 -1.40640366
v -2.2940197 -0.0211057346 -1.25734138
v -2.31335855 -0.0548606254 -1.49122012
v -1.22208142 0.0402201451 -1.39117277
v -1.25056577 0.07472949 -1.18122876
v -1.22208142 0.0402201451 -1.39117277
vt 0.750247836 0.8419468
vt 0.750248551 0.6840253
vt 0.8522041 0.6840255
vt 0.852203369 0.841947138
vt 0.492948562 0.5737081
vt 0.491778523 0.551520646
vt 0.0678867847 0.5507166
vt 0.05118826 0.5743126
vt 0.0141777191 0.471924
vt 0.0389255844 0.487265229
vt 0.491637766 0.488837
vt 0.0333658271 0.663233042
vt 0.011496664 0.5880813
vt 0.495144576 0.588934839
vt 0.495144576 0.66016984
vt 0.491637766 0.472405434
vn 0.9878222 0.102326229 0.117203563
vn 0.9878222 0.102326222 0.117203563
vn 0.9878222 0.102326229 0.117203563
vn 0.9878222 0.102326237 0.117203571
vn -0.113079756 0.358412951 0.9266893
vn -0.109010816 0.9558134 0.2730154
vn -0.6441451 0.3912147 0.6572885
vn -0.7109966 0.364053041 0.601622164
vn -0.7261436 -0.175421461 -0.6647878
vn -0.407072067 0.801404953 -0.4382265
vn 0.0326750875 0.4388759 -0.8979534
vn 0.07561822 -0.985133469 0.154252991
vn 0.0735601559 -0.9879054 0.136498436
vn 0.07561822 -0.985133469 0.154252991
vn 0.07765156 -0.9820392 0.1719571
vn 0.107577734 -0.212832719 -0.971148431
usemtl nml-bd044_part_1_material_0
f 21/21/21 22/22/22 23/23/23
f 23/23/23 24/24/24 21/21/21
f 25/25/25 26/26/26 27/27/27
f 27/27/27 28/28/28 25/25/25
f 29/29/29 28/28/28 27/27/27
f 27/27/27 30/30/30 29/29/29
f 30/30/30 27/27/27 26/26/26
f 26/26/26 31/31/31 30/30/30
f 32/32/32 33/33/33 34/34/34
f 34/34/34 35/35/35 32/32/32
f 29/29/29 30/30/30 31/31/31
f 31/31/31 36/36/36 29/29/29
o nml-bd044_part_2
v -1.81866884 0.008792938 0.7243538
v -1.948391 0.006443198 0.485842317
v -1.643398 0.0150761344 0.5949725
v -2.2301352 0.08794572 -0.386891961
v -1.9924041 0.0961952657 -0.522746
v -1.99029624 0.0276897661 -0.523217559
v -2.22802758 0.0194402318 -0.387363434
v -2.2301352 0.08794572 -0.386891961
v -2.22802758 0.0194402318 -0.387363434
v -1.948391 0.006443198 0.485842317
v -1.93213284 0.08792749 0.395891577
v -1.67222691 0.0871871859 0.396568149
v -1.81866884 0.008792938 0.7243538
v -1.643398 0.0150761344 0.5949725
v -2.22802758 0.0194402318 -0.387363434
v -1.99029624 0.0276897661 -0.523217559
v -1.9924041 0.0961952657 -0.522746
v -1.99029624 0.0276897661 -0.523217559
vt 0.0304388348 0.268874526
vt 0.123039685 0.271634459
vt 0.0510122366 0.20468235
vt 0.881996155 0.859975338
vt 0.8819969 0.685955
vt 0.965466261 0.6859552
vt 0.965465665 0.8599756
vt 0.472296536 0.364285827
vt 0.47235474 0.3973981
vt 0.120709971 0.400858641
vt 0.135333329 0.369957447
vt 0.129383162 0.3150702
vt 0.02630752 0.352734566
vt 0.05478032 0.2915492
vt 0.470956743 0.2694065
vt 0.473626 0.193369865
vt 0.472551018 0.312351048
vt 0.472507328 0.2955209
vn 0.03075273 -0.9995034 -0.006879057
vn 0.03434949 -0.999266148 -0.0169499069
vn 0.0308961887 -0.9993687 -0.01753927
vn -0.495895922 -0.009281417 -0.8683324
vn -0.495895922 -0.009281253 -0.8683324
vn -0.495895922 -0.009281417 -0.8683324
vn -0.495895952 -0.00928158 -0.8683323
vn -0.746237636 0.612844944 0.259904623
vn -0.9520238 -0.03138679 0.304410249
vn -0.864501 0.362656564 0.348020464
vn -0.35053435 0.9118132 0.213827789
vn 0.623487651 0.781673551 -0.0157980137
vn -0.194889814 0.9180357 0.345294774
vn 0.897488 0.440049231 0.02952979
vn 0.0309666 -0.999258757 -0.0228688046
vn 0.0239888337 -0.999537 -0.01871728
vn 0.4081392 0.902545869 -0.137234464
vn 0.9310808 -0.1931587 -0.3094806
usemtl nml-bd044_part_2_material_0
f 37/37/37 38/38/38 39/39/39
f 40/40/40 41/41/41 42/42/42
f 42/42/42 43/43/43 40/40/40
f 44/44/44 45/45/45 46/46/46
f 46/46/46 47/47/47 44/44/44
f 48/48/48 47/47/47 49/49/49
f 49/49/49 50/50/50 48/48/48
f 39/39/39 38/38/38 51/51/51
f 51/51/51 52/52/52 39/39/39
f 47/47/47 48/48/48 53/53/53
f 53/53/53 44/44/44 47/47/47
f 48/48/48 50/50/50 54/54/54
f 54/54/54 53/53/53 48/48/48
f 46/46/46 49/49/49 47/47/47
o nml-bd044_part_3
v -0.301798731 0.123627357 1.79246736
v -0.403669566 0.06407714 1.98194838
v -0.390000582 -0.00174769515 1.96860981
v -0.288129777 0.057802517 1.77912879
v -0.301798731 0.123627357 1.79246736
v -0.288129777 0.057802517 1.77912879
v -0.8265887 0.0118887443 1.27553844
v -0.8615333 0.0326053649 1.300582
v -1.01633167 0.0192488879 1.14307582
v -0.8265887 0.0118887443 1.27553844
v -0.9023722 0.0214746259 1.28891087
v -1.01633167 0.0192488879 1.14307582
v -1.1022501 -0.004330245 1.17139018
v -0.934312761 0.0268724319 1.35723877
v -0.9813773 -0.00530435564 1.34010088
v -0.390000582 -0.00174769515 1.96860981
v -0.9813773 -0.00530435564 1.34010088
v -0.288129777 0.057802517 1.77912879
v -0.403669566 0.06407714 1.98194838
v -0.390000582 -0.00174769515 1.96860981
v -1.1022501 -0.004330245 1.17139018
vt 0.8827497 0.857971549
vt 0.8827504 0.6862316
vt 0.965775967 0.6862319
vt 0.965775251 0.8579719
vt 0.992379069 0.6502232
vt 0.988541 0.666702
vt 0.625241935 0.66724956
vt 0.616593 0.6490379
vt 0.53086096 0.5028953
vt 0.630918145 0.492234647
vt 0.6129254 0.517799
vt 0.5226494 0.6493058
vt 0.515068948 0.6179376
vt 0.6177488 0.6025632
vt 0.602028251 0.5832616
vt 0.9884831 0.5587402
vt 0.603571057 0.551596
vt 0.960789 0.4944061
vt 0.988368452 0.5887715
vt 0.986653149 0.5721542
vt 0.5121523 0.534235954
vn 0.8671521 0.0804737359 0.491498917
vn 0.867152035 0.08047391 0.491499
vn 0.8671521 0.0804737359 0.491498917
vn 0.8671522 0.08047357 0.4914988
vn 0.243598446 0.878726542 -0.4104869
vn 0.643354952 0.278129965 -0.7132588
vn 0.412366658 0.738941133 -0.5328412
vn 0.0132535873 0.991358042 -0.130512953
vn 0.111400858 -0.991007149 -0.0741263852
vn 0.005939315 -0.9999638 -0.00609435374
vn 0.05202739 -0.997419655 -0.04946905
vn -0.0168593563 0.994588256 -0.102518283
vn -0.449672043 0.8535888 0.263023168
vn -0.4799558 0.8054331 0.3477355
vn -0.605299652 0.618456662 0.5011224
vn 0.112011194 -0.988318145 -0.1033479
vn 0.2133099 -0.96241343 -0.168105125
vn 0.241067812 -0.9553866 -0.170654029
vn -0.506454468 0.780661166 0.3661585
vn -0.732782 0.165085927 0.660134256
vn 0.212605715 -0.9642976 -0.157889172
usemtl nml-bd044_part_3_material_0
f 55/55/55 56/56/56 57/57/57
f 57/57/57 58/58/58 55/55/55
f 59/59/59 60/60/60 61/61/61
f 61/61/61 62/62/62 59/59/59
f 63/63/63 64/64/64 65/65/65
f 66/66/66 67/67/67 68/68/68
f 68/68/68 62/62/62 66/66/66
f 69/69/69 68/68/68 67/67/67
f 61/61/61 66/66/66 62/62/62
f 70/70/70 71/71/71 65/65/65
f 70/70/70 65/65/65 64/64/64
f 70/70/70 64/64/64 72/72/72
f 62/62/62 68/68/68 73/73/73
f 73/73/73 59/59/59 62/62/62
f 68/68/68 69/69/69 74/74/74
f 74/74/74 73/73/73 68/68/68
f 63/63/63 65/65/65 71/71/71
f 71/71/71 75/75/75 63/63/63
o nml-bd044_part_4
v -0.007962912 -0.05501391 -0.662191033
v -0.0981365442 -0.0399137549 -0.406531572
v -0.218397364 -0.0199598074 -0.706771
v -0.5432432 0.11976929 0.3834488
v -0.7995105 0.162448853 0.296580821
v -0.8107766 0.09484158 0.296600252
v -0.554509342 0.05216203 0.3834683
v -0.5432432 0.11976929 0.3834488
v -0.554509342 0.05216203 0.3834683
v -0.0981365442 -0.0399137549 -0.406531572
v -0.163830936 0.0524796322 -0.360240549
v -0.335447937 0.07217367 -0.5544359
v -0.007962912 -0.05501391 -0.662191033
v -0.218397364 -0.0199598074 -0.706771
v -0.554509342 0.05216203 0.3834683
v -0.8107766 0.09484158 0.296600252
v -0.7995105 0.162448853 0.296580821
v -0.8107766 0.09484158 0.296600252
vt 0.0304388348 0.268874526
vt 0.123039685 0.271634459
vt 0.0510122366 0.20468235
vt 0.881996155 0.859975338
vt 0.8819969 0.685955
vt 0.965466261 0.6859552
vt 0.965465665 0.8599756
vt 0.472296536 0.364285827
vt 0.47235474 0.3973981
vt 0.120709971 0.400858641
vt 0.135333329 0.369957447
vt 0.129383162 0.3150702
vt 0.02630752 0.352734566
vt 0.05478032 0.2915492
vt 0.470956743 0.2694065
vt 0.473626 0.193369865
vt 0.472551018 0.312351048
vt 0.472507328 0.2955209
vn -0.164374 -0.986398041 0.000283825357
vn -0.17414017 -0.984711468 0.004307758
vn -0.17230311 -0.9850171 0.00727675064
vn -0.312753916 0.05239062 0.9483882
vn -0.3127539 0.05239026 0.9483882
vn -0.312753916 0.05239062 0.9483882
vn -0.312753975 0.0523909777 0.948388159
vn 0.770538568 0.517769 0.3717332
vn 0.8499556 -0.141490966 0.507499456
vn 0.878937364 0.250504345 0.405853
vn 0.5162725 0.850344658 0.101865835
vn -0.315607727 0.8249685 -0.468848258
vn 0.510973632 0.8535385 -0.1018723
vn -0.5110508 0.503082335 -0.696947038
vn -0.176260456 -0.984284639 0.01077302
vn -0.168622822 -0.985592067 0.013214129
vn -0.24573715 0.9417393 -0.229652569
vn -0.871047 -0.08189893 -0.4843239
usemtl nml-bd044_part_4_material_0
f 76/76/76 77/77/77 78/78/78
f 79/79/79 80/80/80 81/81/81
f 81/81/81 82/82/82 79/79/79
f 83/83/83 84/84/84 85/85/85
f 85/85/85 86/86/86 83/83/83
f 87/87/87 86/86/86 88/88/88
f 88/88/88 89/89/89 87/87/87
f 78/78/78 77/77/77 90/90/90
f 90/90/90 91/91/91 78/78/78
f 86/86/86 87/87/87 92/92/92
f 92/92/92 83/83/83 86/86/86
f 87/87/87 89/89/89 93/93/93
f 93/93/93 92/92/92 87/87/87
f 85/85/85 88/88/88 86/86/86
o nml-bd044_part_5
v 1.01747167 0.09411568 -1.01713836
v 1.23885679 0.09411568 -1.04569662
v 1.23885679 0.0255761426 -1.04569662
v 1.01747167 0.0255761445 -1.01713836
v 1.01747167 0.09411568 -1.01713836
v 1.01747167 0.0255761445 -1.01713836
v 0.941251636 -0.009137805 -0.2832209
v 0.9747594 0.0226011351 -0.2710818
v 0.9429722 0.009992819 -0.052496016
v 0.941251636 -0.009137805 -0.2832209
v 0.991742432 0.01778448 -0.230878562
v 0.9429722 0.009992819 -0.052496016
v 1.019931 0.009992819 0.0005797148
v 1.06148648 0.04263588 -0.246247888
v 1.08350468 0.01778448 -0.196834
v 1.23885679 0.0255761426 -1.04569662
v 1.08350468 0.01778448 -0.196834
v 1.01747167 0.0255761445 -1.01713836
v 1.23885679 0.09411568 -1.04569662
v 1.23885679 0.0255761426 -1.04569662
v 1.019931 0.009992819 0.0005797148
vt 0.8827497 0.857971549
vt 0.8827504 0.6862316
vt 0.965775967 0.6862319
vt 0.965775251 0.8579719
vt 0.992379069 0.6502232
vt 0.988541 0.666702
vt 0.625241935 0.66724956
vt 0.616593 0.6490379
vt 0.53086096 0.5028953
vt 0.630918145 0.492234647
vt 0.6129254 0.517799
vt 0.5226494 0.6493058
vt 0.515068948 0.6179376
vt 0.6177488 0.6025632
vt 0.602028251 0.5832616
vt 0.9884831 0.5587402
vt 0.603571057 0.551596
vt 0.960789 0.4944061
vt 0.988368452 0.5887715
vt 0.986653149 0.5721542
vt 0.5121523 0.534235954
vn -0.1279381 -1.39074929E-08 -0.9917821
vn -0.1279381 -1.39074929E-08 -0.9917821
vn -0.1279381 -1.39074929E-08 -0.9917821
vn -0.1279381 -1.39074929E-08 -0.9917821
vn -0.698597252 0.715455234 0.009255813
vn -0.9946504 0 -0.103298083
vn -0.8505979 0.5237371 -0.046719186
vn -0.381644964 0.9240499 0.0218825769
vn 0.151884422 -0.988398254 0.000151035361
vn 0.2667774 -0.9627279 0.04455103
vn 0.206315771 -0.9779172 0.033342775
vn -0.343754619 0.9386058 0.0291881561
vn 0.22367622 0.960646451 0.164703727
vn 0.319970965 0.9369236 0.140686542
vn 0.56149447 0.8122015 0.1582804
vn 0.12803784 -0.9916243 0.0169567224
vn 0.0133832395 -0.999550343 -0.0268323664
vn -0.006177202 -0.9988337 -0.04788589
vn 0.3560655 0.922002852 0.152079314
vn 0.881832063 0.4331574 0.186405078
vn 0.02225625 -0.999231339 -0.03227111
usemtl nml-bd044_part_5_material_0
f 94/94/94 95/95/95 96/96/96
f 96/96/96 97/97/97 94/94/94
f 98/98/98 99/99/99 100/100/100
f 100/100/100 101/101/101 98/98/98
f 102/102/102 103/103/103 104/104/104
f 105/105/105 106/106/106 107/107/107
f 107/107/107 101/101/101 105/105/105
f 108/108/108 107/107/107 106/106/106
f 100/100/100 105/105/105 101/101/101
f 109/109/109 110/110/110 104/104/104
f 109/109/109 104/104/104 103/103/103
f 109/109/109 103/103/103 111/111/111
f 101/101/101 107/107/107 112/112/112
f 112/112/112 98/98/98 101/101/101
f 107/107/107 108/108/108 113/113/113
f 113/113/113 112/112/112 107/107/107
f 102/102/102 104/104/104 110/110/110
f 110/110/110 114/114/114 102/102/102
o nml-bd044_part_6
v 1.73548651 0.008792938 -1.47087693
v 1.51916623 0.0064431983 -1.63495338
v 1.84205592 0.0150761353 -1.66088307
v 0.903488457 0.08794572 -2.31464887
v 1.06433225 0.0961952657 -2.536238
v 1.06605983 0.0276897643 -2.53753448
v 0.9052159 0.01944023 -2.31594539
v 0.903488457 0.08794572 -2.31464887
v 0.9052159 0.01944023 -2.31594539
v 1.51916623 0.0064431983 -1.63495338
v 1.49700022 0.08792749 -1.72363329
v 1.73419642 0.0871871859 -1.82988524
v 1.73548651 0.008792938 -1.47087693
v 1.84205592 0.0150761353 -1.66088307
v 0.9052159 0.01944023 -2.31594539
v 1.06605983 0.0276897643 -2.53753448
v 1.06433225 0.0961952657 -2.536238
v 1.06605983 0.0276897643 -2.53753448
vt 0.0304388348 0.268874526
vt 0.123039685 0.271634459
vt 0.0510122366 0.20468235
vt 0.881996155 0.859975338
vt 0.8819969 0.685955
vt 0.965466261 0.6859552
vt 0.965465665 0.8599756
vt 0.472296536 0.364285827
vt 0.47235474 0.3973981
vt 0.120709971 0.400858641
vt 0.135333329 0.369957447
vt 0.129383162 0.3150702
vt 0.02630752 0.352734566
vt 0.05478032 0.2915492
vt 0.470956743 0.2694065
vt 0.473626 0.193369865
vt 0.472551018 0.312351048
vt 0.472507328 0.2955209
vn 0.0207704343 -0.9995034 0.0236989688
vn 0.03133353 -0.999266148 0.0220317263
vn 0.03019656 -0.9993687 0.0187181272
vn 0.5246531 -0.009281437 -0.85126555
vn 0.524653 -0.009281809 -0.85126555
vn 0.5246531 -0.009281437 -0.85126555
vn 0.524653137 -0.009281064 -0.8512655
vn -0.585625768 0.612845 -0.5305313
vn -0.723274052 -0.03138669 -0.689847469
vn -0.7196268 0.362656683 -0.5921296
vn -0.3556187 0.911813259 -0.205260724
vn 0.3125488 0.781673431 0.539722
vn -0.396457434 0.9180357 -0.00565867173
vn 0.4040202 0.440049231 0.801950336
vn 0.0349084921 -0.999258757 0.0162268244
vn 0.0279216412 -0.999537 0.0120906131
vn 0.3159817 0.9025458 0.2925177
vn 0.717691958 -0.193159059 0.669035
usemtl nml-bd044_part_6_material_0
f 115/115/115 116/116/116 117/117/117
f 118/118/118 119/119/119 120/120/120
f 120/120/120 121/121/121 118/118/118
f 122/122/122 123/123/123 124/124/124
f 124/124/124 125/125/125 122/122/122
f 126/126/126 125/125/125 127/127/127
f 127/127/127 128/128/128 126/126/126
f 117/117/117 116/116/116 129/129/129
f 129/129/129 130/130/130 117/117/117
f 125/125/125 126/126/126 131/131/131
f 131/131/131 122/122/122 125/125/125
f 126/126/126 128/128/128 132/132/132
f 132/132/132 131/131/131 126/126/126
f 124/124/124 127/127/127 125/125/125
o nml-bd044_part_7
v 0.223184347 -0.07415323 1.21593392
v 0.425195 -0.0566796139 1.03535867
v 0.383382469 -0.0243776087 1.35506618
v 1.188823 0.12127614 0.5527699
v 1.36809945 0.182350129 0.750685036
v 1.381452 0.115661323 0.75916934
v 1.20217538 0.0545873344 0.5612542
v 1.188823 0.12127614 0.5527699
v 1.20217538 0.0545873344 0.5612542
v 0.425195 -0.0566796139 1.03535867
v 0.5002018 0.039254263 1.02248144
v 0.554697156 0.07323564 1.2743299
v 0.223184347 -0.07415323 1.21593392
v 0.383382469 -0.0243776087 1.35506618
v 1.20217538 0.0545873344 0.5612542
v 1.381452 0.115661323 0.75916934
v 1.36809945 0.182350129 0.750685036
v 1.381452 0.115661323 0.75916934
vt 0.0304388348 0.268874526
vt 0.123039685 0.271634459
vt 0.0510122366 0.20468235
vt 0.881996155 0.859975338
vt 0.8819969 0.685955
vt 0.965466261 0.6859552
vt 0.965465665 0.8599756
vt 0.472296536 0.364285827
vt 0.47235474 0.3973981
vt 0.120709971 0.400858641
vt 0.135333329 0.369957447
vt 0.129383162 0.3150702
vt 0.02630752 0.352734566
vt 0.05478032 0.2915492
vt 0.470956743 0.2694065
vt 0.473626 0.193369865
vt 0.472551018 0.312351048
vt 0.472507328 0.2955209
vn 0.198653713 -0.9729976 0.117526054
vn 0.209073424 -0.970715165 0.118323088
vn 0.208816811 -0.9711863 0.114859655
vn 0.7085683 0.059739504 -0.7031089
vn 0.7085683 0.0597397462 -0.7031089
vn 0.7085683 0.059739504 -0.7031089
vn 0.7085683 0.0597392619 -0.703108966
vn -0.541609466 0.459345937 -0.7040316
vn -0.5148542 -0.205641344 -0.832248032
vn -0.6079752 0.184929192 -0.772118747
vn -0.457057953 0.8121146 -0.362722933
vn 0.0217403937 0.850972831 0.5247596
vn -0.5457016 0.818575144 -0.179288849
vn 0.10808371 0.5462733 0.8306042
vn 0.213889584 -0.9702392 0.1135215
vn 0.208295882 -0.9720927 0.107928939
vn 0.0628818646 0.9593377 0.275167316
vn 0.556090653 -0.0161308143 0.8309651
usemtl nml-bd044_part_7_material_0
f 133/133/133 134/134/134 135/135/135
f 136/136/136 137/137/137 138/138/138
f 138/138/138 139/139/139 136/136/136
f 140/140/140 141/141/141 142/142/142
f 142/142/142 143/143/143 140/140/140
f 144/144/144 143/143/143 145/145/145
f 145/145/145 146/146/146 144/144/144
f 135/135/135 134/134/134 147/147/147
f 147/147/147 148/148/148 135/135/135
f 143/143/143 144/144/144 149/149/149
f 149/149/149 140/140/140 143/143/143
f 144/144/144 146/146/146 150/150/150
f 150/150/150 149/149/149 144/144/144
f 142/142/142 145/145/145 143/143/143
