mtllib nml-bd108.mtl
o nml-bd108_part_0
v 1.07788861 1.76552236 1.08099719E-07
v 0.98781 1.348177 0.743550062
v 1.10901392 1.30735588 2.56184E-08
v 0.963316441 1.70868146 0.743550062
v 0.731905162 2.06748366 1.18737276E-07
v 0.963316441 1.70868146 0.743550062
v 1.07788861 1.76552236 1.08099719E-07
v 0.691084 1.94627988 0.7435501
v 0.273738772 2.03635836 6.981709E-08
v 0.731905162 2.06748366 1.18737276E-07
v 0.330579549 1.92178619 0.743550062
v -0.0282227155 1.69037509 8.511956E-09
v 0.330579549 1.92178619 0.743550062
v 0.273738772 2.03635836 6.981709E-08
v 0.09298112 1.64955389 0.743550062
v 0.963316441 1.7086817 -0.743551552
v 0.9878102 1.34817719 -0.7435516
v 1.07788861 1.76552236 1.08099719E-07
v 0.691084146 1.94628024 -0.743551552
v 0.963316441 1.7086817 -0.743551552
v 0.731905162 2.06748366 1.18737276E-07
v 0.330579549 1.92178643 -0.7435515
v 0.273738772 2.03635836 6.981709E-08
v 0.09298116 1.64955389 -0.743551552
v 0.330579549 1.92178643 -0.7435515
v -0.0282227155 1.69037509 8.511956E-09
v 0.9878102 1.34817719 -0.7435516
v 0.5403956 1.4988656 -0.743551552
v 0.963316441 1.7086817 -0.743551552
v 0.691084146 1.94628024 -0.743551552
v 0.330579549 1.92178643 -0.7435515
v 0.09298116 1.64955389 -0.743551552
v 1.10901392 1.30735588 2.56184E-08
v 0.98781 1.348177 0.743550062
v 0.8070524 0.961372435 -3.568673E-08
v 0.750211656 1.07594454 0.74355
v 0.348885953 0.9302472 -8.460694E-08
v 0.3897072 1.051451 0.743549943
v 0.00290254224 1.23220861 -7.396937E-08
v 0.117474876 1.28904927 0.743549943
v 0.00290254224 1.23220861 -7.396937E-08
v 0.117474876 1.28904927 0.743549943
v 0.9878102 1.34817719 -0.7435516
v 0.7502118 1.0759449 -0.7435517
v 0.8070524 0.961372435 -3.568673E-08
v 0.389707267 1.05145109 -0.7435517
v 0.117474951 1.28904951 -0.7435516
v 0.00290254224 1.23220861 -7.396937E-08
v 0.117474951 1.28904951 -0.7435516
v 0.7502118 1.0759449 -0.7435517
v 0.389707267 1.05145109 -0.7435517
v 0.117474951 1.28904951 -0.7435516
v 0.540395737 1.49886549 0.7435486
v 0.98781 1.348177 0.743550062
v 0.963316441 1.70868146 0.743550062
v 0.691084 1.94627988 0.7435501
v 0.330579549 1.92178619 0.743550062
v 0.09298112 1.64955389 0.743550062
v 0.750211656 1.07594454 0.74355
v 0.3897072 1.051451 0.743549943
v 0.117474876 1.28904927 0.743549943
v -0.7272726 0.910033345 -2.677802E-06
v -0.964770138 1.26483774 0.7435473
v -1.078353 1.20605314 -2.8023278E-06
v -0.6885232 1.031919 0.7435473
v 0.026316015 1.3000505 -2.69934617E-06
v -0.328488469 1.062553 0.7435474
v -0.269703835 0.94897 -2.67217865E-06
v -0.0955699161 1.3388 0.7435473
v -0.0126206689 1.75761914 -2.70635587E-06
v -0.0955699161 1.3388 0.7435473
v 0.026316015 1.3000505 -2.69934617E-06
v -0.12620385 1.69883466 0.7435474
v -0.688523 1.031919 -0.743554354
v -0.96476984 1.26483762 -0.7435544
v -0.7272726 0.910033345 -2.677802E-06
v -0.0955697149 1.33879983 -0.743554354
v -0.328488261 1.06255293 -0.743554354
v 0.026316015 1.3000505 -2.69934617E-06
v -0.126203656 1.69883466 -0.743554354
v -0.0955697149 1.33879983 -0.743554354
v -0.0126206689 1.75761914 -2.70635587E-06
v -0.96476984 1.26483762 -0.7435544
v -0.5454868 1.48183608 -0.7435544
v -0.688523 1.031919 -0.743554354
v -0.328488261 1.06255293 -0.743554354
v -0.0955697149 1.33879983 -0.743554354
v -0.126203656 1.69883466 -0.743554354
v -1.078353 1.20605314 -2.8023278E-06
v -0.964770138 1.26483774 0.7435473
v -1.11728978 1.6636219 -2.8093375E-06
v -0.995404065 1.62487233 0.7435472
v -1.11728978 1.6636219 -2.8093375E-06
v -0.995404065 1.62487233 0.7435472
v -0.8212699 2.01470232 -2.83650479E-06
v -0.762485445 1.90111923 0.7435472
v -0.8212699 2.01470232 -2.83650479E-06
v -0.762485445 1.90111923 0.7435472
v -0.3637011 2.05363917 -2.83088161E-06
v -0.40245083 1.93175316 0.743547261
v -0.3637011 2.05363917 -2.83088161E-06
v -0.40245083 1.93175316 0.743547261
v -0.96476984 1.26483762 -0.7435544
v -0.9954039 1.62487233 -0.743554533
v -1.11728978 1.6636219 -2.8093375E-06
v -0.9954039 1.62487233 -0.743554533
v -0.762485266 1.90111911 -0.7435545
v -0.8212699 2.01470232 -2.83650479E-06
v -0.762485266 1.90111911 -0.7435545
v -0.402450562 1.93175328 -0.7435545
v -0.3637011 2.05363917 -2.83088161E-06
v -0.402450562 1.93175328 -0.7435545
v -0.9954039 1.62487233 -0.743554533
v -0.762485266 1.90111911 -0.7435545
v -0.402450562 1.93175328 -0.7435545
v -0.545487 1.48183608 0.74354583
v -0.964770138 1.26483774 0.7435473
v -0.6885232 1.031919 0.7435473
v -0.328488469 1.062553 0.7435474
v -0.0955699161 1.3388 0.7435473
v -0.12620385 1.69883466 0.7435474
v -0.995404065 1.62487233 0.7435472
v -0.762485445 1.90111923 0.7435472
v -0.40245083 1.93175316 0.743547261
v -0.4311865 2.8948288 -2.67941573E-06
v -0.00423517544 2.89676857 0.7435474
v 0.009518144 3.02392054 -2.65752988E-06
v -0.350999326 2.79519081 0.7435474
v -0.6515275 2.49192047 -2.66179586E-06
v -0.350999326 2.79519081 0.7435474
v -0.4311865 2.8948288 -2.67941573E-06
v -0.524375737 2.4781673 0.74354744
v -0.522435844 2.051216 -2.65202539E-06
v -0.6515275 2.49192047 -2.66179586E-06
v -0.422797978 2.131403 0.7435473
v -0.119527593 1.83087492 -2.69286079E-06
v -0.422797978 2.131403 0.7435473
v -0.522435844 2.051216 -2.65202539E-06
v -0.1057742 1.95802665 0.7435474
v -0.350999445 2.795191 -0.743554235
v -0.004235269 2.89676881 -0.7435544
v -0.524375856 2.47816753 -0.743554235
v -0.350999445 2.795191 -0.743554235
v -0.6515275 2.49192047 -2.66179586E-06
v -0.422798038 2.13140321 -0.743554354
v -0.522435844 2.051216 -2.65202539E-06
v -0.105774291 1.95802653 -0.7435544
v -0.422798038 2.13140321 -0.743554354
v -0.119527593 1.83087492 -2.69286079E-06
v -0.004235269 2.89676881 -0.7435544
v -0.05500478 2.42739773 -0.743554354
v -0.350999445 2.795191 -0.743554235
v -0.524375856 2.47816753 -0.743554235
v -0.422798038 2.13140321 -0.743554354
v -0.105774291 1.95802653 -0.7435544
v 0.009518144 3.02392054 -2.65752988E-06
v -0.00423517544 2.89676857 0.7435474
v 0.412426442 2.80357933 -2.69836528E-06
v 0.312788576 2.72339225 0.7435473
v 0.412426442 2.80357933 -2.69836528E-06
v 0.312788576 2.72339225 0.7435473
v 0.5415181 2.36287451 -2.77800177E-06
v 0.414366364 2.37662816 0.743547261
v 0.5415181 2.36287451 -2.77800177E-06
v 0.414366364 2.37662816 0.743547261
v 0.321177036 1.95996642 -2.760382E-06
v 0.240989968 2.05960441 0.7435473
v 0.321177036 1.95996642 -2.760382E-06
v 0.240989968 2.05960441 0.7435473
v -0.004235269 2.89676881 -0.7435544
v 0.312788516 2.72339225 -0.7435544
v 0.312788516 2.72339225 -0.7435544
v 0.4143663 2.37662816 -0.7435544
v 0.5415181 2.36287451 -2.77800177E-06
v 0.4143663 2.37662816 -0.7435544
v 0.2409899 2.05960441 -0.7435544
v 0.321177036 1.95996642 -2.760382E-06
v 0.2409899 2.05960441 -0.7435544
v 0.312788516 2.72339225 -0.7435544
v 0.4143663 2.37662816 -0.7435544
v 0.2409899 2.05960441 -0.7435544
v -0.05500473 2.42739773 0.743545949
v -0.00423517544 2.89676857 0.7435474
v -0.350999326 2.79519081 0.7435474
v -0.524375737 2.4781673 0.74354744
v -0.422797978 2.131403 0.7435473
v -0.1057742 1.95802665 0.7435474
v 0.312788576 2.72339225 0.7435473
v 0.414366364 2.37662816 0.743547261
v 0.240989968 2.05960441 0.7435473
v -1.5998801 0.17597872 -2.80717086E-06
v -1.5665555 0.601631939 0.743547261
v -1.69213724 0.6258386 -2.815406E-06
v -1.49396086 0.247663811 0.7435473
v -1.21654379 -0.07688213 -2.76438823E-06
v -1.49396086 0.247663811 0.7435473
v -1.5998801 0.17597872 -2.80717086E-06
v -1.19233727 0.04869963 0.7435473
v -0.513823152 0.398711145 -2.77039112E-06
v -0.83836925 0.121294424 0.7435473
v -0.766684 0.0153749352 -2.74915374E-06
v -0.639404953 0.422917873 0.7435474
v -1.49396074 0.247663677 -0.743554354
v -1.56655538 0.601631761 -0.743554533
v -1.5998801 0.17597872 -2.80717086E-06
v -1.192337 0.0486994833 -0.743554354
v -1.49396074 0.247663677 -0.743554354
v -1.21654379 -0.07688213 -2.76438823E-06
v -0.639404833 0.422917753 -0.7435544
v -0.838369131 0.12129426 -0.7435544
v -0.513823152 0.398711145 -2.77039112E-06
v -1.56655538 0.601631761 -0.743554533
v -1.10298026 0.512274742 -0.7435545
v -1.49396074 0.247663677 -0.743554354
v -1.192337 0.0486994833 -0.743554354
v -0.838369131 0.12129426 -0.7435544
v -0.639404833 0.422917753 -0.7435544
v -1.69213724 0.6258386 -2.815406E-06
v -1.5665555 0.601631939 0.743547261
v -1.43927622 1.00917482 -2.83664349E-06
v -1.36759138 0.9032554 0.7435472
v -1.43927622 1.00917482 -2.83664349E-06
v -1.36759138 0.9032554 0.7435472
v -0.989416361 1.10143185 -2.91081574E-06
v -1.01362336 0.975850046 0.7435472
v -0.989416361 1.10143185 -2.91081574E-06
v -1.01362336 0.975850046 0.7435472
v -0.606080234 0.848571 -2.868033E-06
v -0.711999834 0.776886 0.7435472
v -0.606080234 0.848571 -2.868033E-06
v -0.711999834 0.776886 0.7435472
v -1.56655538 0.601631761 -0.743554533
v -1.36759114 0.9032553 -0.743554533
v -1.43927622 1.00917482 -2.83664349E-06
v -1.36759114 0.9032553 -0.743554533
v -1.01362312 0.9758499 -0.743554533
v -0.989416361 1.10143185 -2.91081574E-06
v -1.01362312 0.9758499 -0.743554533
v -0.7119997 0.776885867 -0.7435545
v -0.606080234 0.848571 -2.868033E-06
v -0.7119997 0.776885867 -0.7435545
v -1.36759114 0.9032553 -0.743554533
v -1.01362312 0.9758499 -0.743554533
v -0.7119997 0.776885867 -0.7435545
v -1.10298038 0.512274861 0.74354583
v -1.5665555 0.601631939 0.743547261
v -1.49396086 0.247663811 0.7435473
v -1.19233727 0.04869963 0.7435473
v -0.83836925 0.121294424 0.7435473
v -0.639404953 0.422917873 0.7435474
v -1.36759138 0.9032554 0.7435472
v -1.01362336 0.975850046 0.7435472
v -0.711999834 0.776886 0.7435472
v 0.5690581 0.5932129 -2.64927075E-06
v 0.3503508 0.226527274 0.7435473
v 0.452157736 0.149118766 -2.72877583E-06
v 0.442329973 0.57596004 0.7435474
v 0.337694645 0.9898943 -2.57724241E-06
v 0.442329973 0.57596004 0.7435474
v 0.5690581 0.5932129 -2.64927075E-06
v 0.2602861 0.888087332 0.7435474
v -0.106399447 1.10679483 -2.64429059E-06
v 0.337694645 0.9898943 -2.57724241E-06
v -0.08914671 0.9800666 0.7435474
v -0.503080964 0.87543124 -2.77410618E-06
v -0.08914671 0.9800666 0.7435474
v -0.106399447 1.10679483 -2.64429059E-06
v -0.401274055 0.7980226 0.7435473
v 0.4423301 0.5759602 -0.743554354
v 0.350350857 0.226527467 -0.7435544
v 0.5690581 0.5932129 -2.64927075E-06
v 0.260286152 0.8880876 -0.7435543
v 0.4423301 0.5759602 -0.743554354
v 0.337694645 0.9898943 -2.57724241E-06
v -0.0891466141 0.9800667 -0.743554354
v -0.106399447 1.10679483 -2.64429059E-06
v -0.401273936 0.798022866 -0.7435544
v -0.0891466141 0.9800667 -0.743554354
v -0.503080964 0.87543124 -2.77410618E-06
v 0.350350857 0.226527467 -0.7435544
v -0.0254615415 0.512275159 -0.7435544
v 0.4423301 0.5759602 -0.743554354
v 0.260286152 0.8880876 -0.7435543
v -0.0891466141 0.9800667 -0.743554354
v -0.401273936 0.798022866 -0.7435544
v -0.3886179 0.0346557237 -2.83623262E-06
v -0.311209351 0.136462539 0.7435472
v -0.619981349 0.431337178 -2.85361148E-06
v -0.493253171 0.4485898 0.7435472
v -0.619981349 0.431337178 -2.85361148E-06
v -0.493253171 0.4485898 0.7435472
v -0.311209261 0.136462763 -0.7435545
v -0.493253052 0.44859004 -0.7435544
v -0.619981349 0.431337178 -2.85361148E-06
v -0.493253052 0.44859004 -0.7435544
v 0.03822353 0.04448356 -0.7435545
v -0.311209261 0.136462763 -0.7435545
v -0.493253052 0.44859004 -0.7435544
v -0.0254615676 0.512275 0.74354583
v 0.3503508 0.226527274 0.7435473
v 0.442329973 0.57596004 0.7435474
v 0.2602861 0.888087332 0.7435474
v -0.08914671 0.9800666 0.7435474
v -0.401274055 0.7980226 0.7435473
v 0.03822343 0.04448335 0.7435472
v -0.311209351 0.136462539 0.7435472
v -0.493253171 0.4485898 0.7435472
v 1.31793988 1.05015123 -2.56936E-06
v 1.499254 0.663607 0.7435474
v 1.62039876 0.7046026 -2.632408E-06
v 1.261264 0.9354972 0.74354744
v 0.859729052 1.08061731 -2.56250132E-06
v 1.261264 0.9354972 0.74354744
v 1.31793988 1.05015123 -2.56936E-06
v 0.9007246 0.9594723 0.74354744
v 0.5141804 0.778158247 -2.61584864E-06
v 0.859729052 1.08061731 -2.56250132E-06
v 0.6288344 0.7214824 0.7435474
v 0.4837144 0.319947451 -2.69815246E-06
v 0.6288344 0.7214824 0.7435474
v 0.5141804 0.778158247 -2.61584864E-06
v 0.6048594 0.360943019 0.7435474
v 1.261264 0.935497344 -0.7435543
v 1.49925387 0.6636072 -0.743554354
v 1.31793988 1.05015123 -2.56936E-06
v 0.9007246 0.9594724 -0.7435543
v 1.261264 0.935497344 -0.7435543
v 0.859729052 1.08061731 -2.56250132E-06
v 0.6288344 0.721482635 -0.743554354
v 0.5141804 0.778158247 -2.61584864E-06
v 0.604859352 0.360943168 -0.743554354
v 0.6288344 0.721482635 -0.743554354
v 0.4837144 0.319947451 -2.69815246E-06
v 1.49925387 0.6636072 -0.743554354
v 1.05205667 0.5122751 -0.743554354
v 1.261264 0.935497344 -0.7435543
v 0.9007246 0.9594724 -0.7435543
v 0.6288344 0.721482635 -0.743554354
v 0.604859352 0.360943168 -0.743554354
v 1.62039876 0.7046026 -2.632408E-06
v 1.499254 0.663607 0.7435474
v 1.5899328 0.246391848 -2.71471163E-06
v 1.47527885 0.303067625 0.7435473
v 1.5899328 0.246391848 -2.71471163E-06
v 1.47527885 0.303067625 0.7435473
v 1.24438429 -0.05606715 -2.76805872E-06
v 1.20338869 0.0650778562 0.7435473
v 0.7861734 -0.0256011412 -2.7612E-06
v 0.842849255 0.0890528 0.743547261
v 1.49925387 0.6636072 -0.743554354
v 1.47527874 0.3030678 -0.7435544
v 1.5899328 0.246391848 -2.71471163E-06
v 1.47527874 0.3030678 -0.7435544
v 1.20338857 0.06507793 -0.7435545
v 1.24438429 -0.05606715 -2.76805872E-06
v 0.842849135 0.08905296 -0.7435545
v 1.47527874 0.3030678 -0.7435544
v 1.20338857 0.06507793 -0.7435545
v 0.842849135 0.08905296 -0.7435545
v 1.05205667 0.5122751 0.7435459
v 1.499254 0.663607 0.7435474
v 1.261264 0.9354972 0.74354744
v 0.9007246 0.9594723 0.74354744
v 0.6288344 0.7214824 0.7435474
v 0.6048594 0.360943019 0.7435474
v 1.47527885 0.303067625 0.7435473
v 1.20338869 0.0650778562 0.7435473
v 0.842849255 0.0890528 0.743547261
vt 0.2245897 0.556635559
vt 0.01139482 0.6409954
vt 0.224590912 0.6510581
vt 0.0113938972 0.5666995
vt 0.223805055 0.451486945
vt 0.0113938972 0.551273167
vt 0.223804981 0.563176155
vt 0.0113939494 0.463391125
vt 0.223803878 0.363604784
vt 0.223805159 0.450468183
vt 0.0113928746 0.375509083
vt 0.223286048 0.474886417
vt 0.00894477 0.3760342
vt 0.223285839 0.364242554
vt 0.008944911 0.463093638
vt 0.439073652 0.566698432
vt 0.439073652 0.640994251
vt 0.224591121 0.556635559
vt 0.439073652 0.4633898
vt 0.439073652 0.551271856
vt 0.223803952 0.451486945
vt 0.439073652 0.375507772
vt 0.223805547 0.363604784
vt 0.439073652 0.4630949
vt 0.439073652 0.376035452
vt 0.223284721 0.474886417
vt 0.8004179 0.6580624
vt 0.6278545 0.6580624
vt 0.749875247 0.5345543
vt 0.6278545 0.483395576
vt 0.5058339 0.5345543
vt 0.455291271 0.6580624
vt 0.223806068 0.6510581
vt 0.0113948174 0.6391552
vt 0.223804876 0.563809335
vt 0.009780143 0.56522423
vt 0.223195329 0.458104074
vt 0.0113939466 0.447248042
vt 0.223194048 0.35623765
vt 0.0113928746 0.367095
vt 0.223285839 0.364242554
vt 0.00894477 0.3760342
vt 0.439073652 0.6391539
vt 0.439073652 0.565233052
vt 0.223806277 0.563809335
vt 0.4378458 0.44724685
vt 0.4378458 0.3670938
vt 0.223195717 0.35623765
vt 0.439073652 0.376035452
vt 0.749875247 0.5345543
vt 0.6278545 0.483395576
vt 0.5058339 0.5345543
vt 0.6278545 0.6580624
vt 0.8004179 0.6580624
vt 0.749875247 0.5345543
vt 0.6278545 0.483395576
vt 0.5058339 0.5345543
vt 0.455291271 0.6580624
vt 0.749875247 0.5345543
vt 0.6278545 0.483395576
vt 0.5058339 0.5345543
vt 0.2245897 0.556635559
vt 0.01139482 0.6409954
vt 0.224590912 0.6510581
vt 0.0113938972 0.5666995
vt 0.223803878 0.363604784
vt 0.0113939494 0.463391125
vt 0.223805159 0.450468183
vt 0.0113928746 0.375509083
vt 0.223286048 0.474886417
vt 0.00894477 0.3760342
vt 0.223285839 0.364242554
vt 0.008944911 0.463093638
vt 0.439073652 0.566698432
vt 0.439073652 0.640994251
vt 0.224591121 0.556635559
vt 0.439073652 0.375507772
vt 0.439073652 0.4633898
vt 0.223805547 0.363604784
vt 0.439073652 0.4630949
vt 0.439073652 0.376035452
vt 0.223284721 0.474886417
vt 0.8004179 0.6580624
vt 0.6278545 0.6580624
vt 0.749875247 0.5345543
vt 0.6278545 0.483395576
vt 0.5058339 0.5345543
vt 0.455291271 0.6580624
vt 0.223806068 0.6510581
vt 0.0113948174 0.6391552
vt 0.223804876 0.563809335
vt 0.009780143 0.56522423
vt 0.223804981 0.563176155
vt 0.0113938972 0.551273167
vt 0.223805055 0.451486945
vt 0.0113939494 0.463391125
vt 0.223195329 0.458104074
vt 0.0113939466 0.447248042
vt 0.223194048 0.35623765
vt 0.0113928746 0.367095
vt 0.223285839 0.364242554
vt 0.00894477 0.3760342
vt 0.439073652 0.6391539
vt 0.439073652 0.565233052
vt 0.223806277 0.563809335
vt 0.439073652 0.551271856
vt 0.439073652 0.4633898
vt 0.223803952 0.451486945
vt 0.4378458 0.44724685
vt 0.4378458 0.3670938
vt 0.223195717 0.35623765
vt 0.439073652 0.376035452
vt 0.749875247 0.5345543
vt 0.6278545 0.483395576
vt 0.5058339 0.5345543
vt 0.6278545 0.6580624
vt 0.8004179 0.6580624
vt 0.749875247 0.5345543
vt 0.6278545 0.483395576
vt 0.5058339 0.5345543
vt 0.455291271 0.6580624
vt 0.749875247 0.5345543
vt 0.6278545 0.483395576
vt 0.5058339 0.5345543
vt 0.221533149 0.5477876
vt 0.01139482 0.6409954
vt 0.224590912 0.6510581
vt 0.0113938972 0.5666995
vt 0.223805055 0.451486945
vt 0.0113938972 0.551273167
vt 0.223804981 0.563176155
vt 0.0113939494 0.463391125
vt 0.223803878 0.363604784
vt 0.223805159 0.450468183
vt 0.0113928746 0.375509083
vt 0.223286048 0.474886417
vt 0.00894477 0.3760342
vt 0.223285839 0.364242554
vt 0.008944911 0.463093638
vt 0.439073652 0.566698432
vt 0.439073652 0.640994251
vt 0.439073652 0.4633898
vt 0.439073652 0.551271856
vt 0.223803952 0.451486945
vt 0.439073652 0.375507772
vt 0.223805547 0.363604784
vt 0.439073652 0.4630949
vt 0.439073652 0.376035452
vt 0.223284721 0.474886417
vt 0.8004179 0.6580624
vt 0.6278545 0.6580624
vt 0.749875247 0.5345543
vt 0.6278545 0.483395576
vt 0.5058339 0.5345543
vt 0.455291271 0.6580624
vt 0.223806068 0.6510581
vt 0.0113948174 0.6391552
vt 0.221533149 0.5477876
vt 0.009780143 0.56522423
vt 0.223804981 0.563176155
vt 0.0113938972 0.551273167
vt 0.223805055 0.451486945
vt 0.0113939494 0.463391125
vt 0.223195329 0.458104074
vt 0.0113939466 0.447248042
vt 0.223194048 0.35623765
vt 0.0113928746 0.367095
vt 0.223285839 0.364242554
vt 0.00894477 0.3760342
vt 0.439073652 0.6391539
vt 0.439073652 0.565233052
vt 0.439073652 0.551271856
vt 0.439073652 0.4633898
vt 0.223803952 0.451486945
vt 0.4378458 0.44724685
vt 0.4378458 0.3670938
vt 0.223195717 0.35623765
vt 0.439073652 0.376035452
vt 0.749875247 0.5345543
vt 0.6278545 0.483395576
vt 0.5058339 0.5345543
vt 0.6278545 0.6580624
vt 0.8004179 0.6580624
vt 0.749875247 0.5345543
vt 0.6278545 0.483395576
vt 0.5058339 0.5345543
vt 0.455291271 0.6580624
vt 0.749875247 0.5345543
vt 0.6278545 0.483395576
vt 0.5058339 0.5345543
vt 0.2245897 0.556635559
vt 0.01139482 0.6409954
vt 0.224590912 0.6510581
vt 0.0113938972 0.5666995
vt 0.223805055 0.451486945
vt 0.0113938972 0.551273167
vt 0.223804981 0.563176155
vt 0.0113939494 0.463391125
vt 0.223286048 0.474886417
vt 0.00894477 0.3760342
vt 0.223285839 0.364242554
vt 0.008944911 0.463093638
vt 0.439073652 0.566698432
vt 0.439073652 0.640994251
vt 0.224591121 0.556635559
vt 0.439073652 0.4633898
vt 0.439073652 0.551271856
vt 0.223803952 0.451486945
vt 0.439073652 0.4630949
vt 0.439073652 0.376035452
vt 0.223284721 0.474886417
vt 0.8004179 0.6580624
vt 0.6278545 0.6580624
vt 0.749875247 0.5345543
vt 0.6278545 0.483395576
vt 0.5058339 0.5345543
vt 0.455291271 0.6580624
vt 0.223806068 0.6510581
vt 0.0113948174 0.6391552
vt 0.223804876 0.563809335
vt 0.009780143 0.56522423
vt 0.223804981 0.563176155
vt 0.0113938972 0.551273167
vt 0.223805055 0.451486945
vt 0.0113939494 0.463391125
vt 0.223195329 0.458104074
vt 0.0113939466 0.447248042
vt 0.223194048 0.35623765
vt 0.0113928746 0.367095
vt 0.223285839 0.364242554
vt 0.00894477 0.3760342
vt 0.439073652 0.6391539
vt 0.439073652 0.565233052
vt 0.223806277 0.563809335
vt 0.439073652 0.551271856
vt 0.439073652 0.4633898
vt 0.223803952 0.451486945
vt 0.4378458 0.44724685
vt 0.4378458 0.3670938
vt 0.223195717 0.35623765
vt 0.439073652 0.376035452
vt 0.749875247 0.5345543
vt 0.6278545 0.483395576
vt 0.5058339 0.5345543
vt 0.6278545 0.6580624
vt 0.8004179 0.6580624
vt 0.749875247 0.5345543
vt 0.6278545 0.483395576
vt 0.5058339 0.5345543
vt 0.455291271 0.6580624
vt 0.749875247 0.5345543
vt 0.6278545 0.483395576
vt 0.5058339 0.5345543
vt 0.2245897 0.556635559
vt 0.01139482 0.6409954
vt 0.224590912 0.6510581
vt 0.0113938972 0.5666995
vt 0.223805055 0.451486945
vt 0.0113938972 0.551273167
vt 0.223804981 0.563176155
vt 0.0113939494 0.463391125
vt 0.223803878 0.363604784
vt 0.223805159 0.450468183
vt 0.0113928746 0.375509083
vt 0.223286048 0.474886417
vt 0.00894477 0.3760342
vt 0.223285839 0.364242554
vt 0.008944911 0.463093638
vt 0.439073652 0.566698432
vt 0.439073652 0.640994251
vt 0.224591121 0.556635559
vt 0.439073652 0.4633898
vt 0.439073652 0.551271856
vt 0.223803952 0.451486945
vt 0.439073652 0.375507772
vt 0.223805547 0.363604784
vt 0.439073652 0.4630949
vt 0.439073652 0.376035452
vt 0.223284721 0.474886417
vt 0.8004179 0.6580624
vt 0.6278545 0.6580624
vt 0.749875247 0.5345543
vt 0.6278545 0.483395576
vt 0.5058339 0.5345543
vt 0.455291271 0.6580624
vt 0.223195329 0.458104074
vt 0.0113939466 0.447248042
vt 0.223194048 0.35623765
vt 0.0113928746 0.367095
vt 0.223285839 0.364242554
vt 0.00894477 0.3760342
vt 0.4378458 0.44724685
vt 0.4378458 0.3670938
vt 0.223195717 0.35623765
vt 0.439073652 0.376035452
vt 0.749875247 0.5345543
vt 0.6278545 0.483395576
vt 0.5058339 0.5345543
vt 0.6278545 0.6580624
vt 0.8004179 0.6580624
vt 0.749875247 0.5345543
vt 0.6278545 0.483395576
vt 0.5058339 0.5345543
vt 0.455291271 0.6580624
vt 0.749875247 0.5345543
vt 0.6278545 0.483395576
vt 0.5058339 0.5345543
vt 0.2245897 0.556635559
vt 0.01139482 0.6409954
vt 0.224590912 0.6510581
vt 0.0113938972 0.5666995
vt 0.223805055 0.451486945
vt 0.0113938972 0.551273167
vt 0.223804981 0.563176155
vt 0.0113939494 0.463391125
vt 0.223803878 0.363604784
vt 0.223805159 0.450468183
vt 0.0113928746 0.375509083
vt 0.223286048 0.474886417
vt 0.00894477 0.3760342
vt 0.223285839 0.364242554
vt 0.008944911 0.463093638
vt 0.439073652 0.566698432
vt 0.439073652 0.640994251
vt 0.224591121 0.556635559
vt 0.439073652 0.4633898
vt 0.439073652 0.551271856
vt 0.223803952 0.451486945
vt 0.439073652 0.375507772
vt 0.223805547 0.363604784
vt 0.439073652 0.4630949
vt 0.439073652 0.376035452
vt 0.223284721 0.474886417
vt 0.8004179 0.6580624
vt 0.6278545 0.6580624
vt 0.749875247 0.5345543
vt 0.6278545 0.483395576
vt 0.5058339 0.5345543
vt 0.455291271 0.6580624
vt 0.223806068 0.6510581
vt 0.0113948174 0.6391552
vt 0.223804876 0.563809335
vt 0.009780143 0.56522423
vt 0.223804981 0.563176155
vt 0.0113938972 0.551273167
vt 0.223805055 0.451486945
vt 0.0113939494 0.463391125
vt 0.223285839 0.364242554
vt 0.00894477 0.3760342
vt 0.439073652 0.6391539
vt 0.439073652 0.565233052
vt 0.223806277 0.563809335
vt 0.439073652 0.551271856
vt 0.439073652 0.4633898
vt 0.223803952 0.451486945
vt 0.439073652 0.376035452
vt 0.749875247 0.5345543
vt 0.6278545 0.483395576
vt 0.5058339 0.5345543
vt 0.6278545 0.6580624
vt 0.8004179 0.6580624
vt 0.749875247 0.5345543
vt 0.6278545 0.483395576
vt 0.5058339 0.5345543
vt 0.455291271 0.6580624
vt 0.749875247 0.5345543
vt 0.6278545 0.483395576
vt 0.5058339 0.5345543
vn 0.895815969 0.444425136 2.959546E-07
vn 0.933977664 -0.314562231 0.169517919
vn 0.9476935 -0.319181651 -1.378503E-06
vn 0.8828504 0.437994272 0.169517413
vn 0.319181353 0.947693646 4.62810135E-07
vn 0.8828504 0.437994272 0.169517413
vn 0.895815969 0.444425136 2.959546E-07
vn 0.3145637 0.9339775 0.169516325
vn -0.444425166 0.895815969 4.048422E-07
vn 0.319181353 0.947693646 4.62810135E-07
vn -0.437994272 0.8828504 0.169517577
vn -0.9476935 0.319181651 1.75335254E-06
vn -0.437994272 0.8828504 0.169517577
vn -0.444425166 0.895815969 4.048422E-07
vn -0.9339782 0.31456238 0.169514671
vn 0.8828519 0.43799147 -0.16951701
vn 0.9339783 -0.314562321 -0.169514224
vn 0.895815969 0.444425136 2.959546E-07
vn 0.314560682 0.9339786 -0.16951558
vn 0.8828519 0.43799147 -0.16951701
vn 0.319181353 0.947693646 4.62810135E-07
vn -0.437991738 0.882851839 -0.1695167
vn -0.444425166 0.895815969 4.048422E-07
vn -0.9339777 0.3145621 -0.169517681
vn -0.437991738 0.882851839 -0.1695167
vn -0.9476935 0.319181651 1.75335254E-06
vn -1.53812437E-07 3.34407758E-07 -1
vn -1.29650346E-07 2.61332815E-07 -1
vn -1.19026254E-07 2.3991808E-07 -1
vn -1.28911466E-07 1.76637315E-07 -1
vn -1.12219581E-07 2.2619794E-07 -1
vn -6.2658934E-08 2.09506069E-07 -1
vn 0.9476935 -0.319181651 -1.378503E-06
vn 0.933977664 -0.314562231 0.169517919
vn 0.753410459 -0.6575505 -1.36110657E-06
vn 0.744069 -0.6494069 0.156946063
vn -0.657550454 -0.7534105 -1.377259E-06
vn -0.6494048 -0.744071066 0.156944677
vn -0.895815969 -0.444425166 6.443413E-08
vn -0.88285166 -0.4379917 0.169517517
vn -0.895815969 -0.444425166 6.443413E-08
vn -0.88285166 -0.4379917 0.169517517
vn 0.9339783 -0.314562321 -0.169514224
vn 0.7440712 -0.6494052 -0.156942621
vn 0.753410459 -0.6575505 -1.36110657E-06
vn -0.6494078 -0.7440692 -0.156941012
vn -0.8828504 -0.437994331 -0.1695173
vn -0.895815969 -0.444425166 6.443413E-08
vn -0.8828504 -0.437994331 -0.1695173
vn -1.68329365E-07 3.39296975E-07 -1
vn -1.73218567E-07 3.24780046E-07 -1
vn -1.19026232E-07 2.399181E-07 -1
vn 3.33333539E-08 -2.38649022E-07 1
vn -2.92854543E-06 7.9792693E-07 1
vn -2.7084493E-06 -1.64266214E-06 1
vn -1.00342265E-06 -3.258995E-06 1
vn 1.37888128E-06 -2.98024952E-06 1
vn 3.05386152E-06 -1.216938E-06 1
vn -1.37049676E-06 2.56160138E-06 1
vn 1.01144224E-06 2.72341185E-06 1
vn 2.833401E-06 1.10671613E-06 1
vn -0.6446102 -0.7645114 -1.2205162E-06
vn -0.8752537 -0.452984184 0.169517949
vn -0.8881071 -0.4596366 -1.34540221E-06
vn -0.636616349 -0.7550414 0.1569461
vn 0.9529987 -0.302974373 2.06297E-07
vn 0.75503993 -0.636618435 0.156944722
vn 0.7645114 -0.644610167 -1.1772421E-06
vn 0.9392066 -0.298588 0.1695175
vn 0.8881071 0.45963648 1.78623407E-06
vn 0.9392066 -0.298588 0.1695175
vn 0.9529987 -0.302974373 2.06297E-07
vn 0.875254035 0.45298475 0.169514567
vn -0.636618733 -0.755040169 -0.156942487
vn -0.875254154 -0.452984631 -0.169514254
vn -0.6446102 -0.7645114 -1.2205162E-06
vn 0.9392057 -0.2985911 -0.16951707
vn 0.755042255 -0.636616647 -0.156940773
vn 0.9529987 -0.302974373 2.06297E-07
vn 0.8752536 0.452984333 -0.1695177
vn 0.9392057 -0.2985911 -0.16951707
vn 0.8881071 0.45963648 1.78623407E-06
vn 4.10335943E-08 -7.928486E-08 -1
vn 2.05168043E-08 -3.964242E-08 -1
vn 0 0 -1
vn 0 0 -1
vn 0 0 -1
vn 4.10336156E-08 -7.928487E-08 -1
vn -0.8881071 -0.4596366 -1.34540221E-06
vn -0.8752537 -0.452984184 0.169517949
vn -0.952998638 0.3029745 1.70876973E-07
vn -0.939205647 0.298590958 0.169517413
vn -0.952998638 0.3029745 1.70876973E-07
vn -0.939205647 0.298590958 0.169517413
vn -0.459636748 0.888107 1.9302E-07
vn -0.452985942 0.8752531 0.169516414
vn -0.459636748 0.888107 1.9302E-07
vn -0.452985942 0.8752531 0.169516414
vn 0.302974343 0.9529987 3.132174E-07
vn 0.2985909 0.939205647 0.169517651
vn 0.302974343 0.9529987 3.132174E-07
vn 0.2985909 0.939205647 0.169517651
vn -0.875254154 -0.452984631 -0.169514254
vn -0.9392066 0.298588127 -0.169517159
vn -0.952998638 0.3029745 1.70876973E-07
vn -0.9392066 0.298588127 -0.169517159
vn -0.45298326 0.8752546 -0.169515952
vn -0.459636748 0.888107 1.9302E-07
vn -0.45298326 0.8752546 -0.169515952
vn 0.2985878 0.9392067 -0.16951713
vn 0.302974343 0.9529987 3.132174E-07
vn 0.2985878 0.9392067 -0.16951713
vn 1.20318461E-07 -3.825126E-08 -1
vn 2.21543449E-14 6.645925E-15 -1
vn -3.82512E-08 -1.20318447E-07 -1
vn -1.45075356E-08 2.80316819E-08 1
vn 2.80313134E-06 1.45075E-06 1
vn 9.180304E-07 2.887643E-06 1
vn -1.450751E-06 2.80313134E-06 1
vn -2.88764318E-06 9.18030537E-07 1
vn -2.80313066E-06 -1.45075046E-06 1
vn 2.91469041E-06 -8.329529E-07 1
vn 1.39272E-06 -2.69100565E-06 1
vn -1.00310774E-06 -2.86059571E-06 1
vn -0.626965642 0.7790469 4.30838185E-07
vn 0.105981365 0.979811966 0.169518232
vn 0.107537821 0.994201 -1.1574632E-06
vn -0.617892742 0.767771065 0.169517577
vn -0.994201 0.107537657 3.87548852E-07
vn -0.617892742 0.767771065 0.169517577
vn -0.626965642 0.7790469 4.30838185E-07
vn -0.9798121 0.105983317 0.16951634
vn -0.779046953 -0.626965642 2.686375E-07
vn -0.994201 0.107537657 3.87548852E-07
vn -0.767770946 -0.617892861 0.1695175
vn -0.107537851 -0.994201 1.70583314E-06
vn -0.767770946 -0.617892861 0.1695175
vn -0.779046953 -0.626965642 2.686375E-07
vn -0.10598135 -0.9798126 0.169514447
vn -0.6178903 0.767773151 -0.1695169
vn 0.105981641 0.9798127 -0.169514075
vn -0.9798125 0.105980165 -0.1695158
vn -0.6178903 0.767773151 -0.1695169
vn -0.994201 0.107537657 3.87548852E-07
vn -0.767773151 -0.6178902 -0.169517174
vn -0.779046953 -0.626965642 2.686375E-07
vn -0.105981581 -0.979812 -0.16951786
vn -0.767773151 -0.6178902 -0.169517174
vn -0.107537851 -0.994201 1.70583314E-06
vn -3.55025179E-07 3.840132E-08 -1
vn -2.70248819E-07 1.283246E-07 -1
vn -4.46112779E-07 1.271555E-07 -1
vn -3.573586E-07 2.18243173E-07 -1
vn -3.22242357E-07 1.9903726E-07 -1
vn -2.52691962E-07 1.54320759E-07 -1
vn 0.107537821 0.994201 -1.1574632E-06
vn 0.105981365 0.979811966 0.169518232
vn 0.7790471 0.6269654 1.49574049E-07
vn 0.7677729 0.6178904 0.169517338
vn 0.7790471 0.6269654 1.49574049E-07
vn 0.7677729 0.6178904 0.169517338
vn 0.994200945 -0.107538022 7.28491258E-08
vn 0.9798125 -0.10597977 0.169516161
vn 0.994200945 -0.107538022 7.28491258E-08
vn 0.9798125 -0.10597977 0.169516161
vn 0.626965344 -0.779047132 1.24452768E-07
vn 0.617890358 -0.767773 0.169517428
vn 0.626965344 -0.779047132 1.24452768E-07
vn 0.617890358 -0.767773 0.169517428
vn 0.105981641 0.9798127 -0.169514075
vn 0.767771065 0.6178928 -0.169517159
vn 0.767771065 0.6178928 -0.169517159
vn 0.979812145 -0.105982974 -0.169516131
vn 0.994200945 -0.107538022 7.28491258E-08
vn 0.979812145 -0.105982974 -0.169516131
vn 0.6178928 -0.767771065 -0.169517323
vn 0.626965344 -0.779047132 1.24452768E-07
vn 0.6178928 -0.767771065 -0.169517323
vn -1.54328077E-07 -9.607648E-09 -1
vn -1.15919441E-07 1.02333139E-07 -1
vn -1.583119E-07 1.96713216E-07 -1
vn 2.0608195E-07 -9.893604E-08 1
vn -1.6190873E-07 -3.15719672E-06 1
vn 2.04844787E-06 -2.40294526E-06 1
vn 3.25391443E-06 -4.417552E-07 1
vn 2.47250136E-06 1.76064634E-06 1
vn 5.033567E-07 2.993274E-06 1
vn -2.094288E-06 -2.02923252E-06 1
vn -2.7710355E-06 2.09934385E-07 1
vn -1.60233435E-06 2.27578835E-06 1
vn -0.82816124 -0.5604899 1.58364344E-07
vn -0.9677133 0.186533049 0.169518039
vn -0.9819246 0.189272389 -1.24560245E-06
vn -0.8161746 -0.5523793 0.169517353
vn -0.5506292 -0.834749937 1.467288E-06
vn -0.8161746 -0.5523793 0.169517353
vn -0.82816124 -0.5604899 1.58364344E-07
vn -0.543811738 -0.824401736 0.156941161
vn 0.981924653 -0.189272165 1.68111467E-06
vn 0.8244029 -0.5438095 0.156942829
vn 0.8347499 -0.550629258 1.56117869E-06
vn 0.967713952 -0.186533034 0.169514522
vn -0.816176355 -0.552376747 -0.16951707
vn -0.967713952 0.186533183 -0.169514164
vn -0.82816124 -0.5604899 1.58364344E-07
vn -0.543809056 -0.8244029 -0.156944349
vn -0.816176355 -0.552376747 -0.16951707
vn -0.5506292 -0.834749937 1.467288E-06
vn 0.967713356 -0.1865329 -0.169517845
vn 0.8244009 -0.5438116 -0.156946108
vn 0.981924653 -0.189272165 1.68111467E-06
vn -3.379418E-08 -1.75320665E-07 -1
vn -6.4226704E-08 -9.736659E-08 -1
vn -1.09040904E-07 -2.893924E-07 -1
vn -2.23112679E-07 -2.14145658E-07 -1
vn -1.47865919E-07 -1.00073933E-07 -1
vn 0 0 -1
vn -0.9819246 0.189272389 -1.24560245E-06
vn -0.9677133 0.186533049 0.169518039
vn -0.5604898 0.828161359 1.94768845E-07
vn -0.5523767 0.816176355 0.169517487
vn -0.5604898 0.828161359 1.94768845E-07
vn -0.5523767 0.816176355 0.169517487
vn 0.189272344 0.981924653 1.79876437E-07
vn 0.186531425 0.9677139 0.169516429
vn 0.189272344 0.981924653 1.79876437E-07
vn 0.186531425 0.9677139 0.169516429
vn 0.82816124 0.5604899 2.11503E-07
vn 0.8161762 0.5523769 0.169517517
vn 0.82816124 0.5604899 2.11503E-07
vn 0.8161762 0.5523769 0.169517517
vn -0.967713952 0.186533183 -0.169514164
vn -0.552379251 0.8161747 -0.169517115
vn -0.5604898 0.828161359 1.94768845E-07
vn -0.552379251 0.8161747 -0.169517115
vn 0.18653442 0.967713356 -0.169516131
vn 0.189272344 0.981924653 1.79876437E-07
vn 0.18653442 0.967713356 -0.169516131
vn 0.8161745 0.5523795 -0.169517308
vn 0.82816124 0.5604899 2.11503E-07
vn 0.8161745 0.5523795 -0.169517308
vn 0 0 -1
vn 0 0 -1
vn 0 0 -1
vn 5.82530362E-08 6.63739357E-08 1
vn 3.1161444E-06 -5.097398E-07 1
vn 2.613935E-06 1.76908077E-06 1
vn 6.85059433E-07 3.08234985E-06 1
vn -1.69831776E-06 2.509378E-06 1
vn -3.08234939E-06 6.85059831E-07 1
vn 1.77225047E-06 -2.45934143E-06 1
vn -4.85843429E-07 -2.99217459E-06 1
vn -2.45485717E-06 -1.553622E-06 1
vn 0.9908598 0.134895518 2.20548216E-07
vn 0.9550736 -0.251401633 0.1569446
vn 0.9670569 -0.254560381 -1.25906172E-06
vn 0.9765191 0.132944614 0.169517383
vn 0.605258346 0.7960291 3.26574138E-07
vn 0.9765191 0.132944614 0.169517383
vn 0.9908598 0.134895518 2.20548216E-07
vn 0.5964999 0.7845075 0.1695164
vn -0.134895384 0.990859866 3.66564933E-07
vn 0.605258346 0.7960291 3.26574138E-07
vn -0.132944658 0.976519048 0.1695177
vn -0.79602927 0.605258167 1.8219439E-06
vn -0.132944658 0.976519048 0.1695177
vn -0.134895384 0.990859866 3.66564933E-07
vn -0.7845089 0.5964986 0.169514686
vn 0.9765196 0.132941633 -0.169517055
vn 0.9550749 -0.25139904 -0.156941012
vn 0.9908598 0.134895518 2.20548216E-07
vn 0.596497238 0.7845097 -0.16951564
vn 0.9765196 0.132941633 -0.169517055
vn 0.605258346 0.7960291 3.26574138E-07
vn -0.1329415 0.976519644 -0.1695169
vn -0.134895384 0.990859866 3.66564933E-07
vn -0.784508348 0.5964985 -0.169517711
vn -0.1329415 0.976519644 -0.1695169
vn -0.79602927 0.605258167 1.8219439E-06
vn 7.567395E-09 2.185444E-07 -1
vn 1.33917384E-08 2.325316E-07 -1
vn -3.612781E-08 2.65372847E-07 -1
vn 8.17653145E-08 2.55034251E-07 -1
vn 7.142673E-08 1.37141114E-07 -1
vn -4.64664E-08 1.4747971E-07 -1
vn -0.863811851 -0.5038145 -1.32205878E-06
vn -0.8531091 -0.4975672 0.156944767
vn -0.990859866 -0.134895444 1.51402986E-07
vn -0.976519465 -0.132941619 0.169517592
vn -0.990859866 -0.134895444 1.51402986E-07
vn -0.976519465 -0.132941619 0.169517592
vn -0.8531112 -0.497564852 -0.156941026
vn -0.9765191 -0.1329447 -0.169517234
vn -0.990859866 -0.134895444 1.51402986E-07
vn -0.9765191 -0.1329447 -0.169517234
vn 5.43958478E-08 2.622396E-07 -1
vn 1.07006368E-08 3.090681E-07 -1
vn -3.612782E-08 2.65372876E-07 -1
vn -7.168358E-08 -2.723218E-07 1
vn -2.574107E-06 1.62076651E-06 1
vn -3.103378E-06 -6.026873E-07 1
vn -1.91572622E-06 -2.66703978E-06 1
vn 4.42802985E-07 -3.25256133E-06 1
vn 2.45090428E-06 -2.199984E-06 1
vn -5.515945E-07 2.728082E-06 1
vn 1.752195E-06 2.1569706E-06 1
vn 2.925436E-06 3.78801026E-08 1
vn 0.443135947 0.896454453 2.507121E-07
vn 0.9335242 0.315905362 0.169518039
vn 0.947233438 0.320544571 -1.42784324E-06
vn 0.436721 0.8834809 0.169517592
vn -0.32054463 0.947233438 3.737313E-07
vn 0.436721 0.8834809 0.169517592
vn 0.443135947 0.896454453 2.507121E-07
vn -0.315904021 0.933524966 0.169516474
vn -0.896454453 0.4431359 3.53142269E-07
vn -0.32054463 0.947233438 3.737313E-07
vn -0.883480966 0.436720937 0.1695177
vn -0.9472334 -0.3205447 1.69859129E-06
vn -0.883480966 0.436720937 0.1695177
vn -0.896454453 0.4431359 3.53142269E-07
vn -0.9335247 -0.315905631 0.169514656
vn 0.4367239 0.8834796 -0.169516981
vn 0.9335248 0.31590575 -0.169514149
vn 0.443135947 0.896454453 2.507121E-07
vn -0.315906972 0.9335241 -0.169515729
vn 0.4367239 0.8834796 -0.169516981
vn -0.32054463 0.947233438 3.737313E-07
vn -0.883479536 0.436724 -0.169516951
vn -0.896454453 0.4431359 3.53142269E-07
vn -0.933524251 -0.3159053 -0.169517756
vn -0.883479536 0.436724 -0.169516951
vn -0.9472334 -0.3205447 1.69859129E-06
vn -8.584894E-08 2.536899E-07 -1
vn -9.35111757E-08 2.76332486E-07 -1
vn -1.04112431E-07 1.9230022E-07 -1
vn -8.093872E-08 2.39180054E-07 -1
vn -3.40588926E-08 2.160064E-07 -1
vn -8.584885E-08 2.536899E-07 -1
vn 0.947233438 0.320544571 -1.42784324E-06
vn 0.9335242 0.315905362 0.169518039
vn 0.896454453 -0.443135828 -6.132216E-08
vn 0.883479536 -0.436723918 0.169517308
vn 0.896454453 -0.443135828 -6.132216E-08
vn 0.883479536 -0.436723918 0.169517308
vn 0.658633769 -0.752463639 1.27375381E-06
vn 0.6504773 -0.743134439 0.156941146
vn -0.7524637 -0.6586337 1.48970571E-06
vn -0.743136048 -0.650474966 0.156942859
vn 0.9335248 0.31590575 -0.169514149
vn 0.883480966 -0.436721 -0.169517323
vn 0.896454453 -0.443135828 -6.132216E-08
vn 0.883480966 -0.436721 -0.169517323
vn 0.6504749 -0.74313575 -0.156944737
vn 0.658633769 -0.752463639 1.27375381E-06
vn -0.7431339 -0.650476754 -0.156946018
vn -1.07678275E-07 3.51983147E-07 -1
vn -1.21408164E-07 3.58770166E-07 -1
vn -1.28195069E-07 3.45040235E-07 -1
vn 8.3393914E-08 -2.464357E-07 1
vn -2.90390176E-06 -1.26542409E-06 1
vn -1.294563E-06 -3.02179114E-06 1
vn 1.09267341E-06 -3.228931E-06 1
vn 2.86354975E-06 -1.6146812E-06 1
vn 3.07559958E-06 7.58044564E-07 1
vn -2.68225085E-06 1.12672171E-06 1
vn -9.307959E-07 2.75057027E-06 1
vn 1.44683975E-06 2.52400969E-06 1
usemtl nml-bd108_part_0_material_0
f 1/1/1 2/2/2 3/3/3
f 4/4/4 2/2/2 1/1/1
f 5/5/5 6/6/6 7/7/7
f 8/8/8 6/6/6 5/5/5
f 9/9/9 8/8/8 10/10/10
f 11/11/11 8/8/8 9/9/9
f 12/12/12 13/13/13 14/14/14
f 15/15/15 13/13/13 12/12/12
f 16/16/16 3/3/3 17/17/17
f 18/18/18 3/3/3 16/16/16
f 19/19/19 7/7/7 20/20/20
f 21/21/21 7/7/7 19/19/19
f 22/22/22 10/10/10 19/19/19
f 23/23/23 10/10/10 22/22/22
f 24/24/24 14/14/14 25/25/25
f 26/26/26 14/14/14 24/24/24
f 27/27/27 28/28/28 29/29/29
f 29/29/29 28/28/28 30/30/30
f 30/30/30 28/28/28 31/31/31
f 31/31/31 28/28/28 32/32/32
f 33/33/33 34/34/34 35/35/35
f 35/35/35 34/34/34 36/36/36
f 37/37/37 38/38/38 39/39/39
f 39/39/39 38/38/38 40/40/40
f 41/41/41 42/42/42 12/12/12
f 12/12/12 42/42/42 15/15/15
f 43/43/43 33/33/33 44/44/44
f 44/44/44 33/33/33 45/45/45
f 46/46/46 37/37/37 47/47/47
f 47/47/47 37/37/37 48/48/48
f 49/49/49 41/41/41 24/24/24
f 24/24/24 41/41/41 26/26/26
f 50/50/50 28/28/28 27/27/27
f 51/51/51 28/28/28 50/50/50
f 52/52/52 28/28/28 51/51/51
f 32/32/32 28/28/28 52/52/52
f 53/53/53 54/54/54 55/55/55
f 53/53/53 55/55/55 56/56/56
f 53/53/53 56/56/56 57/57/57
f 53/53/53 57/57/57 58/58/58
f 53/53/53 59/59/59 54/54/54
f 53/53/53 60/60/60 59/59/59
f 53/53/53 61/61/61 60/60/60
f 53/53/53 58/58/58 61/61/61
f 62/62/62 63/63/63 64/64/64
f 65/65/65 63/63/63 62/62/62
f 66/66/66 67/67/67 68/68/68
f 69/69/69 67/67/67 66/66/66
f 70/70/70 71/71/71 72/72/72
f 73/73/73 71/71/71 70/70/70
f 74/74/74 64/64/64 75/75/75
f 76/76/76 64/64/64 74/74/74
f 77/77/77 68/68/68 78/78/78
f 79/79/79 68/68/68 77/77/77
f 80/80/80 72/72/72 81/81/81
f 82/82/82 72/72/72 80/80/80
f 83/83/83 84/84/84 85/85/85
f 85/85/85 84/84/84 86/86/86
f 86/86/86 84/84/84 87/87/87
f 87/87/87 84/84/84 88/88/88
f 89/89/89 90/90/90 91/91/91
f 91/91/91 90/90/90 92/92/92
f 93/93/93 94/94/94 95/95/95
f 95/95/95 94/94/94 96/96/96
f 97/97/97 98/98/98 99/99/99
f 99/99/99 98/98/98 100/100/100
f 101/101/101 102/102/102 70/70/70
f 70/70/70 102/102/102 73/73/73
f 103/103/103 89/89/89 104/104/104
f 104/104/104 89/89/89 105/105/105
f 106/106/106 93/93/93 107/107/107
f 107/107/107 93/93/93 108/108/108
f 109/109/109 97/97/97 110/110/110
f 110/110/110 97/97/97 111/111/111
f 112/112/112 101/101/101 80/80/80
f 80/80/80 101/101/101 82/82/82
f 113/113/113 84/84/84 83/83/83
f 114/114/114 84/84/84 113/113/113
f 115/115/115 84/84/84 114/114/114
f 88/88/88 84/84/84 115/115/115
f 116/116/116 117/117/117 118/118/118
f 116/116/116 118/118/118 119/119/119
f 116/116/116 119/119/119 120/120/120
f 116/116/116 120/120/120 121/121/121
f 116/116/116 122/122/122 117/117/117
f 116/116/116 123/123/123 122/122/122
f 116/116/116 124/124/124 123/123/123
f 116/116/116 121/121/121 124/124/124
f 125/125/125 126/126/126 127/127/127
f 128/128/128 126/126/126 125/125/125
f 129/129/129 130/130/130 131/131/131
f 132/132/132 130/130/130 129/129/129
f 133/133/133 132/132/132 134/134/134
f 135/135/135 132/132/132 133/133/133
f 136/136/136 137/137/137 138/138/138
f 139/139/139 137/137/137 136/136/136
f 140/140/140 127/127/127 141/141/141
f 125/125/125 127/127/127 140/140/140
f 142/142/142 131/131/131 143/143/143
f 144/144/144 131/131/131 142/142/142
f 145/145/145 134/134/134 142/142/142
f 146/146/146 134/134/134 145/145/145
f 147/147/147 138/138/138 148/148/148
f 149/149/149 138/138/138 147/147/147
f 150/150/150 151/151/151 152/152/152
f 152/152/152 151/151/151 153/153/153
f 153/153/153 151/151/151 154/154/154
f 154/154/154 151/151/151 155/155/155
f 156/156/156 157/157/157 158/158/158
f 158/158/158 157/157/157 159/159/159
f 160/160/160 161/161/161 162/162/162
f 162/162/162 161/161/161 163/163/163
f 164/164/164 165/165/165 166/166/166
f 166/166/166 165/165/165 167/167/167
f 168/168/168 169/169/169 136/136/136
f 136/136/136 169/169/169 139/139/139
f 170/170/170 156/156/156 171/171/171
f 171/171/171 156/156/156 158/158/158
f 172/172/172 160/160/160 173/173/173
f 173/173/173 160/160/160 174/174/174
f 175/175/175 164/164/164 176/176/176
f 176/176/176 164/164/164 177/177/177
f 178/178/178 168/168/168 147/147/147
f 147/147/147 168/168/168 149/149/149
f 179/179/179 151/151/151 150/150/150
f 180/180/180 151/151/151 179/179/179
f 181/181/181 151/151/151 180/180/180
f 155/155/155 151/151/151 181/181/181
f 182/182/182 183/183/183 184/184/184
f 182/182/182 184/184/184 185/185/185
f 182/182/182 185/185/185 186/186/186
f 182/182/182 186/186/186 187/187/187
f 182/182/182 188/188/188 183/183/183
f 182/182/182 189/189/189 188/188/188
f 182/182/182 190/190/190 189/189/189
f 182/182/182 187/187/187 190/190/190
f 191/191/191 192/192/192 193/193/193
f 194/194/194 192/192/192 191/191/191
f 195/195/195 196/196/196 197/197/197
f 198/198/198 196/196/196 195/195/195
f 199/199/199 200/200/200 201/201/201
f 202/202/202 200/200/200 199/199/199
f 203/203/203 193/193/193 204/204/204
f 205/205/205 193/193/193 203/203/203
f 206/206/206 197/197/197 207/207/207
f 208/208/208 197/197/197 206/206/206
f 209/209/209 201/201/201 210/210/210
f 211/211/211 201/201/201 209/209/209
f 212/212/212 213/213/213 214/214/214
f 214/214/214 213/213/213 215/215/215
f 215/215/215 213/213/213 216/216/216
f 216/216/216 213/213/213 217/217/217
f 218/218/218 219/219/219 220/220/220
f 220/220/220 219/219/219 221/221/221
f 222/222/222 223/223/223 224/224/224
f 224/224/224 223/223/223 225/225/225
f 226/226/226 227/227/227 228/228/228
f 228/228/228 227/227/227 229/229/229
f 230/230/230 231/231/231 199/199/199
f 199/199/199 231/231/231 202/202/202
f 232/232/232 218/218/218 233/233/233
f 233/233/233 218/218/218 234/234/234
f 235/235/235 222/222/222 236/236/236
f 236/236/236 222/222/222 237/237/237
f 238/238/238 226/226/226 239/239/239
f 239/239/239 226/226/226 240/240/240
f 241/241/241 230/230/230 209/209/209
f 209/209/209 230/230/230 211/211/211
f 242/242/242 213/213/213 212/212/212
f 243/243/243 213/213/213 242/242/242
f 244/244/244 213/213/213 243/243/243
f 217/217/217 213/213/213 244/244/244
f 245/245/245 246/246/246 247/247/247
f 245/245/245 247/247/247 248/248/248
f 245/245/245 248/248/248 249/249/249
f 245/245/245 249/249/249 250/250/250
f 245/245/245 251/251/251 246/246/246
f 245/245/245 252/252/252 251/251/251
f 245/245/245 253/253/253 252/252/252
f 245/245/245 250/250/250 253/253/253
f 254/254/254 255/255/255 256/256/256
f 257/257/257 255/255/255 254/254/254
f 258/258/258 259/259/259 260/260/260
f 261/261/261 259/259/259 258/258/258
f 262/262/262 261/261/261 263/263/263
f 264/264/264 261/261/261 262/262/262
f 265/265/265 266/266/266 267/267/267
f 268/268/268 266/266/266 265/265/265
f 269/269/269 256/256/256 270/270/270
f 271/271/271 256/256/256 269/269/269
f 272/272/272 260/260/260 273/273/273
f 274/274/274 260/260/260 272/272/272
f 275/275/275 263/263/263 272/272/272
f 276/276/276 263/263/263 275/275/275
f 277/277/277 267/267/267 278/278/278
f 279/279/279 267/267/267 277/277/277
f 280/280/280 281/281/281 282/282/282
f 282/282/282 281/281/281 283/283/283
f 283/283/283 281/281/281 284/284/284
f 284/284/284 281/281/281 285/285/285
f 286/286/286 287/287/287 288/288/288
f 288/288/288 287/287/287 289/289/289
f 290/290/290 291/291/291 265/265/265
f 265/265/265 291/291/291 268/268/268
f 292/292/292 286/286/286 293/293/293
f 293/293/293 286/286/286 294/294/294
f 295/295/295 290/290/290 277/277/277
f 277/277/277 290/290/290 279/279/279
f 296/296/296 281/281/281 280/280/280
f 297/297/297 281/281/281 296/296/296
f 298/298/298 281/281/281 297/297/297
f 285/285/285 281/281/281 298/298/298
f 299/299/299 300/300/300 301/301/301
f 299/299/299 301/301/301 302/302/302
f 299/299/299 302/302/302 303/303/303
f 299/299/299 303/303/303 304/304/304
f 299/299/299 305/305/305 300/300/300
f 299/299/299 306/306/306 305/305/305
f 299/299/299 307/307/307 306/306/306
f 299/299/299 304/304/304 307/307/307
f 308/308/308 309/309/309 310/310/310
f 311/311/311 309/309/309 308/308/308
f 312/312/312 313/313/313 314/314/314
f 315/315/315 313/313/313 312/312/312
f 316/316/316 315/315/315 317/317/317
f 318/318/318 315/315/315 316/316/316
f 319/319/319 320/320/320 321/321/321
f 322/322/322 320/320/320 319/319/319
f 323/323/323 310/310/310 324/324/324
f 325/325/325 310/310/310 323/323/323
f 326/326/326 314/314/314 327/327/327
f 328/328/328 314/314/314 326/326/326
f 329/329/329 317/317/317 326/326/326
f 330/330/330 317/317/317 329/329/329
f 331/331/331 321/321/321 332/332/332
f 333/333/333 321/321/321 331/331/331
f 334/334/334 335/335/335 336/336/336
f 336/336/336 335/335/335 337/337/337
f 337/337/337 335/335/335 338/338/338
f 338/338/338 335/335/335 339/339/339
f 340/340/340 341/341/341 342/342/342
f 342/342/342 341/341/341 343/343/343
f 344/344/344 345/345/345 346/346/346
f 346/346/346 345/345/345 347/347/347
f 348/348/348 349/349/349 319/319/319
f 319/319/319 349/349/349 322/322/322
f 350/350/350 340/340/340 351/351/351
f 351/351/351 340/340/340 352/352/352
f 353/353/353 344/344/344 354/354/354
f 354/354/354 344/344/344 355/355/355
f 356/356/356 348/348/348 331/331/331
f 331/331/331 348/348/348 333/333/333
f 357/357/357 335/335/335 334/334/334
f 358/358/358 335/335/335 357/357/357
f 359/359/359 335/335/335 358/358/358
f 339/339/339 335/335/335 359/359/359
f 360/360/360 361/361/361 362/362/362
f 360/360/360 362/362/362 363/363/363
f 360/360/360 363/363/363 364/364/364
f 360/360/360 364/364/364 365/365/365
f 360/360/360 366/366/366 361/361/361
f 360/360/360 367/367/367 366/366/366
f 360/360/360 368/368/368 367/367/367
f 360/360/360 365/365/365 368/368/368
