mtllib nml-bd012.mtl
o nml-bd012_part_0
v 0.300023079 0.1 -0.2999994
v 0.2999655 0.00103009492 -0.30000183
v 0.300034583 0.00103008 0.5
v 0.299954 0.09999999 0.49999997
v 0.5000033 0.00103008747 0.5
v 0.49998647 0.09999999 0.49999997
v 0.299954 0.09999999 0.49999997
v 0.300034583 0.00103008 0.5
v 0.5000033 0.00103008747 0.5
v 0.300034583 0.00103008 0.5
v -0.49999854 0.100000016 -0.300000638
v -0.49999854 0.100000016 -0.500158548
v -0.499995649 0.00103008747 -0.5001616
v -0.4999986 0.00103010237 -0.2999982
v -0.49999854 0.100000016 -0.500158548
v 0.500009358 0.09999999 -0.5001569
v 0.5000002 0.00103008747 -0.500162
v -0.499995649 0.00103008747 -0.5001616
v -0.49999854 0.100000016 -0.300000638
v -0.4999986 0.00103010237 -0.2999982
v 0.49998647 0.09999999 0.49999997
v 0.5000033 0.00103008747 0.5
v 0.299954 0.09999999 0.49999997
v 0.49998647 0.09999999 0.49999997
v 0.500009358 0.09999999 -0.5001569
v 0.300023079 0.1 -0.2999994
v -0.49999854 0.100000016 -0.500158548
v -0.49999854 0.100000016 -0.300000638
v 0.500009358 0.09999999 -0.5001569
v 0.300023079 0.1 -0.2999994
vt 0.62806046 0.732043
vt 0.6280509 0.566806138
vt 0.935506046 0.5668057
vt 0.935506046 0.732043
vt 0.7022523 0.7453037
vt 0.7022794 0.992626548
vt 0.7854495 0.992626548
vt 0.7854495 0.7453037
vt 0.5750544 0.500260651
vt 0.7793702 0.500260651
vt 0.7854494 0.9926268
vt 0.7022794 0.9926268
vt 0.7022794 0.7453039
vt 0.785672545 0.7453039
vt 0.138717249 0.7308919
vt 0.5339256 0.7308919
vt 0.533938348 0.572304666
vt 0.138717249 0.5723051
vt 0.338696927 0.732043
vt 0.338696927 0.5668065
vt 0.9355724 0.7308919
vt 0.9355724 0.5723043
vt 0.9977803 0.98633796
vt 0.9977803 0.7345535
vt 0.7312511 0.735937059
vt 0.784421 0.9863384
vt 1.40787125 0.7360606
vt 1.40787125 0.9840056
vt 1.13418818 0.7360606
vt 1.18823314 0.984006
vn -0.8944273 -0.000115006253 0.4472134
vn -0.44719702 0.0002601677 0.894435465
vn -1 -0.000116235315 -1.27329286E-10
vn -0.999999642 -0.000814242 -8.635229E-05
vn -5.60977046E-15 3.011251E-07 1
vn 0 3.01125141E-07 1
vn -5.60977046E-15 3.011251E-07 1
vn -1.12195409E-14 3.011251E-07 1
vn NaN NaN NaN
vn NaN NaN NaN
vn -1 -1.430362E-05 -7.370054E-06
vn -1 -2.92091263E-05 0
vn -1 -1.430362E-05 -7.370054E-06
vn -1 6.018862E-07 -1.47401079E-05
vn 6.25842063E-07 4.125405E-05 -1
vn 0.7071155 -2.89594082E-05 -0.7070981
vn 0.707110465 5.64256E-05 -0.7071031
vn -4.17234247E-07 3.071474E-05 -1
vn 1.49023913E-06 4.52018867E-10 1
vn 4.54505835E-06 2.46922518E-05 1
vn 1 3.854342E-05 9.892827E-06
vn 1 0.000169834559 -3.09893949E-06
vn 4.658069E-08 1 9.317255E-09
vn 0 1 0
vn 4.658069E-08 1 9.317255E-09
vn 9.316138E-08 1 1.863451E-08
vn 2.98020879E-08 1 0
vn 2.42140619E-08 1 -2.79185386E-08
vn 2.42140619E-08 1 -2.79185386E-08
vn 1.86260358E-08 1 -5.58370772E-08
usemtl nml-bd012_part_0_material_0
f 1/1/1 2/2/2 3/3/3
f 3/3/3 4/4/4 1/1/1
f 5/5/5 6/6/6 7/7/7
f 5/5/5 7/7/7 8/8/8
f 9/9/9 10/10/10 9/9/9
f 11/11/11 12/12/12 13/13/13
f 13/13/13 14/14/14 11/11/11
f 15/15/15 16/16/16 17/17/17
f 17/17/17 18/18/18 15/15/15
f 19/19/19 20/20/20 2/2/2
f 2/2/2 1/1/1 19/19/19
f 21/21/21 22/22/22 17/17/17
f 17/17/17 16/16/16 21/21/21
f 23/23/23 24/24/24 25/25/25
f 25/25/25 26/26/26 23/23/23
f 27/27/27 28/28/28 29/29/29
f 30/30/30 29/29/29 28/28/28
