mtllib nml-bd139.mtl
o nml-bd139_part_0
v 1.10233247 -0.109377228 0.6867155
v 1.25898957 -0.0773413 0.735192835
v 1.32510841 0 0.8556448
v 1.26195765 0.0773413852 0.977512062
v 1.10653019 0.109377228 1.02940667
v 0.94987303 0.0773413852 0.9809297
v 0.8837542 0 0.8604777
v 0.946904838 -0.0773413 0.738610268
v 0.8837542 0 0.8604777
v 0.94987303 0.0773413852 0.9809297
v 0.596852958 2.15915227 -0.5937312
v 0.530734 2.081811 -0.7141832
v 1.10653019 0.109377228 1.02940667
v 0.753510058 2.191188 -0.545253754
v 1.26195765 0.0773413852 0.977512062
v 0.908937633 2.15915227 -0.597148538
v 1.32510841 0 0.8556448
v 0.9720885 2.081811 -0.719015956
v 1.25898957 -0.0773413 0.735192835
v 0.9059696 2.00446963 -0.8394678
v 1.10233247 -0.109377228 0.6867155
v 0.749312341 1.97243381 -0.8879452
v 0.946904838 -0.0773413 0.738610268
v 0.5938848 2.00446963 -0.83605057
v 0.747543931 2.541729 -1.06447709
v 1.1023308 0.2641866 -1.156153
v 1.2589879 0.217030346 -1.12220216
v 1.32510674 0.09977113 -1.04010081
v 1.26195621 -0.01890228 -0.9579428
v 1.10652852 -0.0694727153 -0.923854947
v 0.949871242 -0.0223168042 -0.9578058
v 0.883752465 0.09494242 -1.039907
v 0.9469033 0.213615909 -1.12206507
v 0.883752465 0.09494242 -1.039907
v 0.949871242 -0.0223168042 -0.9578058
v 0.5968544 1.6344223 1.059299
v 0.5307355 1.75168157 0.9771976
v 1.10652852 -0.0694727153 -0.923854947
v 0.7535114 1.58726609 1.09324944
v 1.26195621 -0.01890228 -0.9579428
v 0.9089391 1.63783658 1.05916214
v 1.32510674 0.09977113 -1.04010081
v 0.972089946 1.75651026 0.977003932
v 1.2589879 0.217030346 -1.12220216
v 0.9059711 1.87376928 0.8949025
v 1.1023308 0.2641866 -1.156153
v 0.749314 1.92092562 0.8609519
v 0.9469033 0.213615909 -1.12206507
v 0.5938864 1.870355 0.8950395
v 0.7475461 2.12010622 1.42272389
v -1.24299169 -0.09322098 0.913920462
v -1.085191 -0.1190386 0.9623979
v -0.9958748 -0.07029403 1.08285
v -1.02736378 0.0244591329 1.2047174
v -1.16121221 0.109715693 1.25661182
v -1.31901336 0.135533392 1.20813465
v -1.40832925 0.0867887437 1.087683
v -1.37684047 -0.007964333 0.965815246
v -1.40832925 0.0867887437 1.087683
v -1.31901336 0.135533392 1.20813465
v -0.9079787 2.20667028 -0.366526842
v -0.9972947 2.15792561 -0.486978859
v -1.16121221 0.109715693 1.25661182
v -0.7501772 2.18085241 -0.31804952
v -1.02736378 0.0244591329 1.2047174
v -0.6163291 2.095596 -0.3699441
v -0.9958748 -0.07029403 1.08285
v -0.5848402 2.00084281 -0.491811574
v -1.085191 -0.1190386 0.9623979
v -0.6741564 1.95209825 -0.6122633
v -1.24299169 -0.09322098 0.913920462
v -0.8319576 1.97791624 -0.6607409
v -1.37684047 -0.007964333 0.965815246
v -0.9658059 2.06317258 -0.6088461
v -0.717424631 2.51056337 -0.8372728
v -1.06103051 0.246865585 -0.928948045
v -0.931415141 0.147041351 -0.894997
v -0.9113594 0.0139278909 -0.8128956
v -1.0126121 -0.07449876 -0.730737865
v -1.17586112 -0.06643945 -0.69665
v -1.30547738 0.0333846174 -0.7306008
v -1.32553267 0.16649808 -0.8127021
v -1.22427988 0.2549248 -0.8948604
v -1.32553267 0.16649808 -0.8127021
v -1.30547738 0.0333846174 -0.7306008
v -1.045727 1.7072835 1.28650355
v -1.06578267 1.84039712 1.20440209
v -1.17586112 -0.06643945 -0.69665
v -0.916111 1.60745907 1.320454
v -1.0126121 -0.07449876 -0.730737865
v -0.7528626 1.59939981 1.28636658
v -0.9113594 0.0139278909 -0.8128956
v -0.651609361 1.68782675 1.20420837
v -0.931415141 0.147041351 -0.894997
v -0.671665251 1.82094 1.122107
v -1.06103051 0.246865585 -0.928948045
v -0.801281035 1.92076457 1.088156
v -1.22427988 0.2549248 -0.8948604
v -0.964529932 1.92882359 1.122244
v -0.902097166 2.107532 1.64992809
v -1.33616638 1.59536529 0.515624344
v -1.39014888 1.51063156 0.382119238
v -1.41368783 1.35841966 0.348362118
v -1.39299476 1.22789335 0.4341292
v -1.34019029 1.19551277 0.5891786
v -1.28620756 1.28024626 0.722684443
v -1.26266861 1.43245816 0.756441236
v -1.28336191 1.5629847 0.670674443
v -1.26266861 1.43245816 0.756441236
v -1.28620756 1.28024626 0.722684443
v 1.41922128 1.3566798 0.305031776
v 1.43899238 1.50889182 0.3408671
v -1.34019029 1.19551277 0.5891786
v 1.37971258 1.27194631 0.167371243
v -1.39299476 1.22789335 0.4341292
v 1.30696273 1.30256462 0.0133714415
v -1.41368783 1.35841966 0.348362118
v 1.28626966 1.433091 -0.07239529
v -1.39014888 1.51063156 0.382119238
v 1.30980861 1.58530307 -0.0386385322
v -1.33616638 1.59536529 0.515624344
v 1.39134192 1.671799 0.09504015
v -1.28336191 1.5629847 0.670674443
v 1.42744458 1.63941836 0.253886074
v 1.30980861 1.58530307 -0.0386385322
v 1.39134192 1.671799 0.09504015
v 1.28626966 1.433091 -0.07239529
v 1.30696273 1.30256462 0.0133714415
v 1.37971258 1.27194631 0.167371243
v 1.41922128 1.3566798 0.305031776
v 1.43899238 1.50889182 0.3408671
v 1.42744458 1.63941836 0.253886074
v -1.01968825 1.27782214 0.6833387
v -0.9443862 1.28186166 0.661265731
v -0.9509739 1.44337285 0.703879
v -1.02627575 1.4393276 0.7258727
v -1.01606429 1.188973 0.5298922
v -0.940761447 1.192991 0.507717967
v -1.01751077 1.224438 0.3549775
v -0.942205369 1.22839248 0.3326943
v -1.02320814 1.36411619 0.261644632
v -0.9479025 1.36807072 0.23936145
v -0.954488933 1.52955043 0.281270266
v -1.02979457 1.52559578 0.303553432
v -0.9581279 1.61876369 0.436226845
v -1.03343117 1.61475682 0.4582752
v -0.9566661 1.58292663 0.6106657
v -1.03196847 1.57889509 0.632649362
v -0.9466647 1.28506625 0.683338761
v -0.8713626 1.28910577 0.661265731
v -0.8779504 1.450617 0.703879
v -0.953252137 1.44657171 0.7258727
v -0.9430407 1.19621706 0.5298922
v -0.8677379 1.20023513 0.507717967
v -0.944487333 1.23168206 0.354977459
v -0.8691819 1.23563659 0.332694232
v -0.950184464 1.3713603 0.261644632
v -0.874879 1.37531483 0.239361465
v -0.881465435 1.53679454 0.2812702
v -0.956770957 1.53283989 0.3035534
v -0.8851043 1.6260078 0.436226815
v -0.9604076 1.62200093 0.4582752
v -0.883642554 1.59017074 0.6106657
v -0.958944857 1.5861392 0.632649362
vt 0.171327949 0.145960808
vt 0.09375962 0.10822773
vt 0.06987804 0.02940017
vt 0.093759656 0.1078614
vt 0.171328 0.145594478
vt 0.240081728 0.109750211
vt 0.271518677 0.0338075161
vt 0.2400817 0.1101166
vt 0.163210869 0.153996348
vt 0.213325158 0.153996348
vt 0.213325277 0.872105837
vt 0.163211018 0.872105837
vt 0.263011366 0.153996348
vt 0.2630115 0.872105837
vt 0.2133251 0.153996348
vt 0.213325277 0.872105837
vt 0.163210809 0.153996348
vt 0.163210928 0.872105837
vt 0.121148422 0.153996348
vt 0.121148542 0.872105837
vt 0.07231221 0.153996348
vt 0.07231233 0.872105837
vt 0.121148452 0.153996348
vt 0.1211486 0.872105837
vt 0.163211018 0.991638958
vt 0.171327949 0.145960808
vt 0.09375962 0.10822773
vt 0.06987804 0.02940017
vt 0.093759656 0.1078614
vt 0.171328 0.145594478
vt 0.240081728 0.109750211
vt 0.271518677 0.0338075161
vt 0.2400817 0.1101166
vt 0.163210869 0.153996348
vt 0.213325158 0.153996348
vt 0.213325277 0.872105837
vt 0.163211018 0.872105837
vt 0.263011366 0.153996348
vt 0.2630115 0.872105837
vt 0.2133251 0.153996348
vt 0.213325277 0.872105837
vt 0.163210809 0.153996348
vt 0.163210928 0.872105837
vt 0.121148422 0.153996348
vt 0.121148542 0.872105837
vt 0.07231221 0.153996348
vt 0.07231233 0.872105837
vt 0.121148452 0.153996348
vt 0.1211486 0.872105837
vt 0.163211018 0.991638958
vt 0.171327949 0.145960808
vt 0.09375962 0.10822773
vt 0.06987804 0.02940017
vt 0.093759656 0.1078614
vt 0.171328 0.145594478
vt 0.240081728 0.109750211
vt 0.271518677 0.0338075161
vt 0.2400817 0.1101166
vt 0.163210869 0.153996348
vt 0.213325158 0.153996348
vt 0.213325277 0.872105837
vt 0.163211018 0.872105837
vt 0.263011366 0.153996348
vt 0.2630115 0.872105837
vt 0.2133251 0.153996348
vt 0.213325277 0.872105837
vt 0.163210809 0.153996348
vt 0.163210928 0.872105837
vt 0.121148422 0.153996348
vt 0.121148542 0.872105837
vt 0.07231221 0.153996348
vt 0.07231233 0.872105837
vt 0.121148452 0.153996348
vt 0.1211486 0.872105837
vt 0.163211018 0.991638958
vt 0.171327949 0.145960808
vt 0.09375962 0.10822773
vt 0.06987804 0.02940017
vt 0.093759656 0.1078614
vt 0.171328 0.145594478
vt 0.240081728 0.109750211
vt 0.271518677 0.0338075161
vt 0.2400817 0.1101166
vt 0.163210869 0.153996348
vt 0.213325158 0.153996348
vt 0.213325277 0.872105837
vt 0.163211018 0.872105837
vt 0.263011366 0.153996348
vt 0.2630115 0.872105837
vt 0.2133251 0.153996348
vt 0.213325277 0.872105837
vt 0.163210809 0.153996348
vt 0.163210928 0.872105837
vt 0.121148422 0.153996348
vt 0.121148542 0.872105837
vt 0.07231221 0.153996348
vt 0.07231233 0.872105837
vt 0.121148452 0.153996348
vt 0.1211486 0.872105837
vt 0.163211018 0.991638958
vt 0.171567038 0.145960808
vt 0.09399871 0.10822773
vt 0.07011712 0.02940017
vt 0.09399874 0.1078614
vt 0.1715671 0.145594478
vt 0.240320846 0.109750211
vt 0.271757752 0.0338075161
vt 0.240320846 0.1101166
vt 0.163449958 0.153996348
vt 0.213564262 0.153996348
vt 0.213564381 0.872105837
vt 0.1634501 0.872105837
vt 0.2632505 0.153996348
vt 0.263250619 0.872105837
vt 0.2135642 0.153996348
vt 0.213564381 0.872105837
vt 0.1634499 0.153996348
vt 0.163450018 0.872105837
vt 0.121387489 0.153996348
vt 0.121387608 0.872105837
vt 0.07255129 0.153996348
vt 0.07255141 0.872105837
vt 0.121387549 0.153996348
vt 0.121387668 0.872105837
vt 0.09399871 0.10822773
vt 0.171567038 0.145960808
vt 0.07011712 0.02940017
vt 0.09399874 0.1078614
vt 0.1715671 0.145594478
vt 0.240320846 0.109750211
vt 0.271757752 0.0338075161
vt 0.240320846 0.1101166
vt 0.315762877 0.705653667
vt 0.280252457 0.705653667
vt 0.280252457 0.6555394
vt 0.315762877 0.6555394
vt 0.315762877 0.7553399
vt 0.280252457 0.7553399
vt 0.315762877 0.705653667
vt 0.280252457 0.705653667
vt 0.315762877 0.655539334
vt 0.280252457 0.655539334
vt 0.280252457 0.613476932
vt 0.315762877 0.613476932
vt 0.280252457 0.5646407
vt 0.315762877 0.5646407
vt 0.280252457 0.613477
vt 0.315762877 0.613477
vt 0.315762877 0.705653667
vt 0.280252457 0.705653667
vt 0.280252457 0.6555394
vt 0.315762877 0.6555394
vt 0.315762877 0.7553399
vt 0.280252457 0.7553399
vt 0.315762877 0.705653667
vt 0.280252457 0.705653667
vt 0.315762877 0.655539334
vt 0.280252457 0.655539334
vt 0.280252457 0.613476932
vt 0.315762877 0.613476932
vt 0.280252457 0.5646407
vt 0.315762877 0.5646407
vt 0.280252457 0.613477
vt 0.315762877 0.613477
vn 0.019182181 -0.9616304 -0.2736768
vn 0.5581943 -0.8177785 -0.140204981
vn 0.820714355 -0.477250963 0.314100981
vn 0.57597214 -0.166873634 0.8002558
vn 0.0335408337 -0.07928861 0.9962873
vn -0.4975732 -0.2278229 0.8369693
vn -0.7359583 -0.557549059 0.384063
vn -0.496458262 -0.864605 -0.07737823
vn -0.7359583 -0.557549059 0.384063
vn -0.4975732 -0.2278229 0.8369693
vn -0.6817287 0.5261702 0.508321643
vn -0.994346559 0.09334128 -0.05061922
vn 0.0335408337 -0.07928861 0.9962873
vn -0.008046319 0.7189417 0.695023835
vn 0.57597214 -0.166873634 0.8002558
vn 0.661823332 0.602037966 0.4466991
vn 0.820714355 -0.477250963 0.314100981
vn 0.9698887 0.197460487 -0.14256683
vn 0.5581943 -0.8177785 -0.140204981
vn 0.6615176 -0.2582506 -0.704060435
vn 0.019182181 -0.9616304 -0.2736768
vn -0.0244362652 -0.4616825 -0.8867086
vn -0.496458262 -0.864605 -0.07737823
vn -0.7009257 -0.3231251 -0.635840654
vn -0.006616394 0.802323163 -0.5968532
vn 0.0191817116 0.234960914 -0.9718155
vn 0.5581935 0.107353829 -0.8227364
vn 0.8207139 -0.332954973 -0.464294821
vn 0.5759718 -0.806294739 -0.1347044
vn 0.0335399173 -0.99866277 -0.0393412076
vn -0.4975738 -0.845418334 -0.194134414
vn -0.735959 -0.406074673 -0.5417266
vn -0.496458381 0.0427035838 -0.8670095
vn -0.735959 -0.406074673 -0.5417266
vn -0.4975738 -0.845418334 -0.194134414
vn -0.6817285 -0.486849874 0.5460984
vn -0.9943465 0.05431617 0.09124049
vn 0.0335399173 -0.99866277 -0.0393412076
vn -0.008046798 -0.6656859 0.7461887
vn 0.5759718 -0.806294739 -0.1347044
vn 0.661823 -0.422240674 0.619437754
vn 0.8207139 -0.332954973 -0.464294821
vn 0.9698889 0.150357246 0.1915939
vn 0.5581935 0.107353829 -0.8227364
vn 0.661518157 0.6931569 -0.286229253
vn 0.0191817116 0.234960914 -0.9718155
vn -0.024435766 0.8675156 -0.496809363
vn -0.496458381 0.0427035838 -0.8670095
vn -0.7009255 0.6223958 -0.348319978
vn -0.006615224 0.6284939 0.7777864
vn -0.324327528 -0.9054902 -0.273677081
vn 0.230587363 -0.9628978 -0.140204713
vn 0.59711504 -0.7381017 0.31410104
vn 0.478864819 -0.3609412 0.8002562
vn 0.00312426733 -0.0860336 0.996287346
vn -0.5460767 -0.0358129255 0.8369693
vn -0.886205256 -0.2591051 0.384063542
vn -0.7716722 -0.631296 -0.07737855
vn -0.886205256 -0.2591051 0.384063542
vn -0.5460767 -0.0358129255 0.8369693
vn -0.4476266 0.721123 0.5287836
vn -0.914970934 0.4031399 -0.017505832
vn 0.00312426733 -0.0860336 0.996287346
vn 0.263742745 0.6842964 0.679836869
vn 0.478864819 -0.3609412 0.8002562
vn 0.839120448 0.360685 0.407164842
vn 0.59711504 -0.7381017 0.31410104
vn 0.9790309 -0.107642792 -0.172949418
vn 0.230587363 -0.9628978 -0.140204713
vn 0.543231249 -0.4398489 -0.7151453
vn -0.324327528 -0.9054902 -0.273677081
vn -0.1757609 -0.433212519 -0.883988142
vn -0.7716722 -0.631296 -0.07737855
vn -0.7819045 -0.09650723 -0.6158828
vn 0.15148145 0.7740475 -0.6147389
vn 0.101552181 0.212747768 -0.9718156
vn 0.5598519 -0.09834314 -0.822735965
vn 0.6484718 -0.603253841 -0.464294285
vn 0.2512876 -0.958493054 -0.134705529
vn -0.324090332 -0.9452078 -0.03934127
vn -0.7658862 -0.612968564 -0.194133833
vn -0.8322945 -0.117549442 -0.5417268
vn -0.448751152 0.216601431 -0.867009938
vn -0.8322945 -0.117549442 -0.5417268
vn -0.7658862 -0.612968564 -0.194133833
vn -0.8316997 -0.28315115 0.477599174
vn -0.9372306 0.34850508 -0.0119580142
vn -0.324090332 -0.9452078 -0.03934127
vn -0.225903064 -0.6404002 0.7340677
vn 0.2512876 -0.958493054 -0.134705529
vn 0.4891754 -0.578431964 0.652781665
vn 0.6484718 -0.603253841 -0.464294285
vn 0.9531854 -0.131574377 0.272260517
vn 0.5598519 -0.09834314 -0.822735965
vn 0.8706332 0.456027716 -0.18449007
vn 0.101552181 0.212747768 -0.9718156
vn 0.3177735 0.8336055 -0.4517984
vn -0.448751152 0.216601431 -0.867009938
vn -0.4188956 0.81454283 -0.4013059
vn -0.04474701 0.602538764 0.79683423
vn -0.621040165 0.7822119 0.04953389
vn -0.748764 0.496860147 -0.4387283
vn -0.8011423 -0.113486931 -0.5876153
vn -0.7298805 -0.6380727 -0.24522981
vn -0.589646757 -0.7438609 0.314623
vn -0.460031122 -0.431711733 0.7758842
vn -0.413430661 0.155872762 0.8970946
vn -0.4877666 0.654102 0.57813
vn -0.413430661 0.155872762 0.8970946
vn -0.460031122 -0.431711733 0.7758842
vn 0.725922 -0.491697729 0.480906039
vn 0.7828917 0.10604959 0.6130531
vn -0.589646757 -0.7438609 0.314623
vn 0.659124434 -0.748991549 -0.0675769
vn -0.7298805 -0.6380727 -0.24522981
vn 0.4201437 -0.681162536 -0.5995806
vn -0.8011423 -0.113486931 -0.5876153
vn 0.3914304 -0.161065653 -0.9060022
vn -0.748764 0.496860147 -0.4387283
vn 0.3674085 0.451164722 -0.813302755
vn -0.621040165 0.7822119 0.04953389
vn 0.6404642 0.6963113 -0.323969364
vn -0.4877666 0.654102 0.57813
vn 0.7168877 0.631851554 0.294678956
vn 0.3674085 0.451164722 -0.813302755
vn 0.6404642 0.6963113 -0.323969364
vn 0.3914304 -0.161065653 -0.9060022
vn 0.4201437 -0.681162536 -0.5995806
vn 0.659124434 -0.748991549 -0.0675769
vn 0.725922 -0.491697729 0.480906039
vn 0.7828917 0.10604959 0.6130531
vn 0.7168877 0.631851554 0.294678956
vn 0.261786073 -0.5502109 0.792928755
vn 0.2522971 -0.6136249 0.748205
vn 0.2664111 0.185657665 0.9458099
vn 0.269153535 0.156461626 0.9503032
vn 0.116888769 -0.9680714 0.221753746
vn 0.08159009 -0.9918438 0.09792293
vn -0.102463983 -0.860233366 -0.49949944
vn -0.134240508 -0.7929035 -0.5943766
vn -0.26965484 -0.187387809 -0.9445486
vn -0.272510558 -0.158309713 -0.9490395
vn -0.263576567 0.5487174 -0.7933704
vn -0.253396422 0.6135061 -0.7479308
vn -0.115901895 0.968748748 -0.219300255
vn -0.0809365958 0.9920971 -0.09587829
vn 0.100593619 0.85907805 0.5018624
vn 0.131392092 0.792601168 0.595415354
vn 0.2617866 -0.5502108 0.7929287
vn 0.25229758 -0.61362493 0.748204768
vn 0.266411364 0.185657769 0.9458098
vn 0.269153744 0.156461656 0.950303137
vn 0.116888821 -0.968071461 0.221753687
vn 0.081590116 -0.9918438 0.09792298
vn -0.10246399 -0.860233366 -0.49949944
vn -0.134240523 -0.7929034 -0.5943767
vn -0.26965487 -0.187387884 -0.9445486
vn -0.272510618 -0.158309728 -0.9490395
vn -0.263576746 0.5487173 -0.793370366
vn -0.2533966 0.6135061 -0.7479308
vn -0.115901887 0.968748748 -0.219300166
vn -0.08093658 0.9920971 -0.0958782658
vn 0.100593664 0.85907805 0.501862347
vn 0.131392211 0.792601168 0.5954154
usemtl nml-bd139_part_0_material_0
f 1/1/1 2/2/2 3/3/3
f 3/3/3 4/4/4 5/5/5
f 5/5/5 6/6/6 7/7/7
f 3/3/3 5/5/5 7/7/7
f 1/1/1 3/3/3 7/7/7
f 1/1/1 7/7/7 8/8/8
f 9/9/9 10/10/10 11/11/11
f 11/11/11 12/12/12 9/9/9
f 10/10/10 13/13/13 14/14/14
f 14/14/14 11/11/11 10/10/10
f 13/13/13 15/15/15 16/16/16
f 16/16/16 14/14/14 13/13/13
f 15/15/15 17/17/17 18/18/18
f 18/18/18 16/16/16 15/15/15
f 17/17/17 19/19/19 20/20/20
f 20/20/20 18/18/18 17/17/17
f 19/19/19 21/21/21 22/22/22
f 22/22/22 20/20/20 19/19/19
f 21/21/21 23/23/23 24/24/24
f 24/24/24 22/22/22 21/21/21
f 23/23/23 9/9/9 12/12/12
f 12/12/12 24/24/24 23/23/23
f 12/12/12 11/11/11 25/25/25
f 11/11/11 14/14/14 25/25/25
f 14/14/14 16/16/16 25/25/25
f 16/16/16 18/18/18 25/25/25
f 18/18/18 20/20/20 25/25/25
f 20/20/20 22/22/22 25/25/25
f 22/22/22 24/24/24 25/25/25
f 24/24/24 12/12/12 25/25/25
f 26/26/26 27/27/27 28/28/28
f 28/28/28 29/29/29 30/30/30
f 30/30/30 31/31/31 32/32/32
f 28/28/28 30/30/30 32/32/32
f 26/26/26 28/28/28 32/32/32
f 26/26/26 32/32/32 33/33/33
f 34/34/34 35/35/35 36/36/36
f 36/36/36 37/37/37 34/34/34
f 35/35/35 38/38/38 39/39/39
f 39/39/39 36/36/36 35/35/35
f 38/38/38 40/40/40 41/41/41
f 41/41/41 39/39/39 38/38/38
f 40/40/40 42/42/42 43/43/43
f 43/43/43 41/41/41 40/40/40
f 42/42/42 44/44/44 45/45/45
f 45/45/45 43/43/43 42/42/42
f 44/44/44 46/46/46 47/47/47
f 47/47/47 45/45/45 44/44/44
f 46/46/46 48/48/48 49/49/49
f 49/49/49 47/47/47 46/46/46
f 48/48/48 34/34/34 37/37/37
f 37/37/37 49/49/49 48/48/48
f 37/37/37 36/36/36 50/50/50
f 36/36/36 39/39/39 50/50/50
f 39/39/39 41/41/41 50/50/50
f 41/41/41 43/43/43 50/50/50
f 43/43/43 45/45/45 50/50/50
f 45/45/45 47/47/47 50/50/50
f 47/47/47 49/49/49 50/50/50
f 49/49/49 37/37/37 50/50/50
f 51/51/51 52/52/52 53/53/53
f 53/53/53 54/54/54 55/55/55
f 55/55/55 56/56/56 57/57/57
f 53/53/53 55/55/55 57/57/57
f 51/51/51 53/53/53 57/57/57
f 51/51/51 57/57/57 58/58/58
f 59/59/59 60/60/60 61/61/61
f 61/61/61 62/62/62 59/59/59
f 60/60/60 63/63/63 64/64/64
f 64/64/64 61/61/61 60/60/60
f 63/63/63 65/65/65 66/66/66
f 66/66/66 64/64/64 63/63/63
f 65/65/65 67/67/67 68/68/68
f 68/68/68 66/66/66 65/65/65
f 67/67/67 69/69/69 70/70/70
f 70/70/70 68/68/68 67/67/67
f 69/69/69 71/71/71 72/72/72
f 72/72/72 70/70/70 69/69/69
f 71/71/71 73/73/73 74/74/74
f 74/74/74 72/72/72 71/71/71
f 73/73/73 59/59/59 62/62/62
f 62/62/62 74/74/74 73/73/73
f 62/62/62 61/61/61 75/75/75
f 61/61/61 64/64/64 75/75/75
f 64/64/64 66/66/66 75/75/75
f 66/66/66 68/68/68 75/75/75
f 68/68/68 70/70/70 75/75/75
f 70/70/70 72/72/72 75/75/75
f 72/72/72 74/74/74 75/75/75
f 74/74/74 62/62/62 75/75/75
f 76/76/76 77/77/77 78/78/78
f 78/78/78 79/79/79 80/80/80
f 80/80/80 81/81/81 82/82/82
f 78/78/78 80/80/80 82/82/82
f 76/76/76 78/78/78 82/82/82
f 76/76/76 82/82/82 83/83/83
f 84/84/84 85/85/85 86/86/86
f 86/86/86 87/87/87 84/84/84
f 85/85/85 88/88/88 89/89/89
f 89/89/89 86/86/86 85/85/85
f 88/88/88 90/90/90 91/91/91
f 91/91/91 89/89/89 88/88/88
f 90/90/90 92/92/92 93/93/93
f 93/93/93 91/91/91 90/90/90
f 92/92/92 94/94/94 95/95/95
f 95/95/95 93/93/93 92/92/92
f 94/94/94 96/96/96 97/97/97
f 97/97/97 95/95/95 94/94/94
f 96/96/96 98/98/98 99/99/99
f 99/99/99 97/97/97 96/96/96
f 98/98/98 84/84/84 87/87/87
f 87/87/87 99/99/99 98/98/98
f 87/87/87 86/86/86 100/100/100
f 86/86/86 89/89/89 100/100/100
f 89/89/89 91/91/91 100/100/100
f 91/91/91 93/93/93 100/100/100
f 93/93/93 95/95/95 100/100/100
f 95/95/95 97/97/97 100/100/100
f 97/97/97 99/99/99 100/100/100
f 99/99/99 87/87/87 100/100/100
f 101/101/101 102/102/102 103/103/103
f 103/103/103 104/104/104 105/105/105
f 105/105/105 106/106/106 107/107/107
f 103/103/103 105/105/105 107/107/107
f 101/101/101 103/103/103 107/107/107
f 101/101/101 107/107/107 108/108/108
f 109/109/109 110/110/110 111/111/111
f 111/111/111 112/112/112 109/109/109
f 110/110/110 113/113/113 114/114/114
f 114/114/114 111/111/111 110/110/110
f 113/113/113 115/115/115 116/116/116
f 116/116/116 114/114/114 113/113/113
f 115/115/115 117/117/117 118/118/118
f 118/118/118 116/116/116 115/115/115
f 117/117/117 119/119/119 120/120/120
f 120/120/120 118/118/118 117/117/117
f 119/119/119 121/121/121 122/122/122
f 122/122/122 120/120/120 119/119/119
f 121/121/121 123/123/123 124/124/124
f 124/124/124 122/122/122 121/121/121
f 123/123/123 109/109/109 112/112/112
f 112/112/112 124/124/124 123/123/123
f 125/125/125 126/126/126 127/127/127
f 128/128/128 127/127/127 129/129/129
f 130/130/130 129/129/129 131/131/131
f 129/129/129 127/127/127 131/131/131
f 127/127/127 126/126/126 131/131/131
f 131/131/131 126/126/126 132/132/132
f 133/133/133 134/134/134 135/135/135
f 135/135/135 136/136/136 133/133/133
f 137/137/137 138/138/138 134/134/134
f 134/134/134 133/133/133 137/137/137
f 139/139/139 140/140/140 138/138/138
f 138/138/138 137/137/137 139/139/139
f 141/141/141 142/142/142 140/140/140
f 140/140/140 139/139/139 141/141/141
f 143/143/143 142/142/142 141/141/141
f 141/141/141 144/144/144 143/143/143
f 145/145/145 143/143/143 144/144/144
f 144/144/144 146/146/146 145/145/145
f 147/147/147 145/145/145 146/146/146
f 146/146/146 148/148/148 147/147/147
f 135/135/135 147/147/147 148/148/148
f 148/148/148 136/136/136 135/135/135
f 149/149/149 150/150/150 151/151/151
f 151/151/151 152/152/152 149/149/149
f 153/153/153 154/154/154 150/150/150
f 150/150/150 149/149/149 153/153/153
f 155/155/155 156/156/156 154/154/154
f 154/154/154 153/153/153 155/155/155
f 157/157/157 158/158/158 156/156/156
f 156/156/156 155/155/155 157/157/157
f 159/159/159 158/158/158 157/157/157
f 157/157/157 160/160/160 159/159/159
f 161/161/161 159/159/159 160/160/160
f 160/160/160 162/162/162 161/161/161
f 163/163/163 161/161/161 162/162/162
f 162/162/162 164/164/164 163/163/163
f 151/151/151 163/163/163 164/164/164
f 164/164/164 152/152/152 151/151/151
