mtllib sl-bd038.mtl
o sl-bd038_part_0
v -0.64098084 -0.00637865067 0.610289335
v 0.608757 -0.00637865067 0.610289335
v 0.585475564 1.1967963 0.587008
v -0.6176994 1.1967963 0.587008
v 0.326821864 2.399971 0.553584039
v 0.115579605 2.399971 0.559485137
v 0.585475564 2.399971 0.356993228
v 0.326821864 2.399971 0.553584039
v 0.585475564 1.1967963 0.587008
v 0.608757 -0.00637865067 0.610289335
v 0.608757 -0.00637865067 -0.6394484
v 0.585475564 1.1967963 -0.616167068
v 0.585475564 1.1967963 0.587008
v 0.585475564 2.399971 0.164333716
v 0.585475564 2.399971 0.356993228
v 0.585475564 2.399971 -0.616167068
v 0.608757 -0.00637865067 -0.6394484
v -0.64098084 -0.00637865067 -0.6394484
v -0.6176994 1.1967963 -0.616167068
v 0.585475564 1.1967963 -0.616167068
v -0.6176994 2.399971 -0.616167068
v 0.585475564 2.399971 -0.616167068
v 0.585475564 3.360106 -0.587007761
v -0.6176994 3.360106 -0.587007761
v -0.64098084 -0.00637865067 -0.6394484
v -0.64098084 -0.00637865067 0.610289335
v -0.6176994 1.1967963 0.587008
v -0.6176994 1.1967963 -0.616167068
v -0.6176994 2.399971 0.587008
v -0.6176994 2.399971 -0.616167068
v -0.6176994 3.360106 -0.587007761
v -0.617699265 3.360106 0.587008
v 0.115579605 2.399971 0.559485137
v 0.585475564 2.399971 0.164333716
v 0.0294153541 2.88003874 0.6008445
v 0.115579605 2.399971 0.559485137
v 0.326821864 2.399971 0.553584039
v 0.585475564 2.399971 0.356993228
v -0.08568838 3.3220644 0.7346698
v 0.769028664 3.3220644 0.0718148
v 0.769028664 3.70009422 0.0572763868
v -0.0573358834 3.70060682 0.734669745
v -0.05391112 3.69942427 -0.723209143
v 0.5421456 3.69942427 -0.723209143
v 0.5421456 3.3220644 -0.7346697
v -0.769028664 3.3220644 -0.7346697
v -0.769028664 3.428183 -0.723209143
v -0.769028544 3.3220644 0.7346698
v -0.769028544 3.70060682 0.7346697
v -0.769028544 3.7001133 0.126329139
v -0.769028664 3.428183 -0.723209143
v -0.769028664 3.3220644 -0.7346697
v 0.5421456 3.69942427 -0.723209143
v 0.769028664 3.70009422 0.0572763868
v 0.769028664 3.3220644 0.0718148
v 0.5421456 3.3220644 -0.7346697
v -0.769028664 3.428183 -0.723209143
v -0.769028544 3.7001133 0.126329139
v -0.05391112 3.69942427 -0.723209143
v -0.769028544 3.3220644 0.7346698
v -0.08568838 3.3220644 0.7346698
v -0.0573358834 3.70060682 0.734669745
v -0.769028544 3.70060682 0.7346697
v 0.585475564 3.360106 -0.587007761
v 0.585475564 3.360106 0.159435377
v 0.585475564 2.88003874 0.142824486
v 0.0294153541 2.88003874 0.6008445
v 0.136967152 3.360106 0.5192142
v -0.617699265 3.360106 0.587008
v -0.6176994 2.399971 0.587008
v 0.769028664 3.70009422 0.0572763868
v 0.5421456 3.69942427 -0.723209143
v -0.05391112 3.69942427 -0.723209143
v -0.769028544 3.7001133 0.126329139
v -0.769028544 3.70060682 0.7346697
v -0.0573358834 3.70060682 0.734669745
v 0.585475564 2.88003874 0.142824486
v 0.585475564 3.360106 0.159435377
v 0.136967152 3.360106 0.5192142
v 0.585475564 2.399971 0.164333716
v 0.115579605 2.399971 0.559485137
v 0.585475564 2.399971 0.164333716
v -0.6176994 2.399971 0.587008
vt 0.73065263 -0.00113713741
vt 0.98842293 -0.00113713741
vt 0.98842293 0.235679626
vt 0.73065263 0.235679626
vt 0.9389537 0.47388953
vt 0.9021775 0.47388953
vt 0.98842293 0.47388953
vt 0.9303204 0.47388953
vt 0.9639618 0.235679626
vt 0.9883848 -0.000995636
vt 0.7306915 -0.0009959936
vt 0.7306915 0.236739337
vt 0.9883848 0.236739516
vt 0.8898278 0.4744581
vt 0.9291091 0.4744581
vt 0.7306915 0.4744581
vt 0.988423 -0.00113713741
vt 0.73065263 -0.00113713741
vt 0.73065263 0.235679626
vt 0.988423 0.235679626
vt 0.73065263 0.47388953
vt 0.988423 0.47388953
vt 0.988423 0.641045
vt 0.73065263 0.641045
vt 0.7306915 -0.0009959936
vt 0.9883848 -0.000995636
vt 0.9883848 0.236739516
vt 0.7306915 0.236739337
vt 0.9883847 0.474458158
vt 0.7306915 0.4744581
vt 0.7307319 0.64118284
vt 0.988384664 0.6410679
vt 0.06908669 0.33485204
vt 0.187412 0.335406423
vt 0.0447230861 0.467802763
vt 0.8255258 0.5078786
vt 0.872741342 0.474458158
vt 0.972556949 0.474458158
vt 0.245635882 0.469034553
vt 0.0161161982 0.469088554
vt 0.0185983721 0.581908941
vt 0.245635882 0.581915259
vt 0.492816925 0.127352357
vt 0.6908669 0.127352357
vt 0.6908669 0.0144633055
vt 0.313702047 0.0144633055
vt 0.313702047 0.0693650842
vt 0.690828562 0.0144890547
vt 0.690828562 0.127369821
vt 0.5335004 0.127363741
vt 0.313794017 0.0693680048
vt 0.313781321 0.0146177411
vt 0.313794017 0.127355278
vt 0.52739 0.1273635
vt 0.532390058 0.0145431161
vt 0.313781321 0.0146177411
vt 0.121300444 0.352217078
vt 0.263425827 0.5841296
vt 0.00559008028 0.5726762
vt 0.313781321 0.0144780278
vt 0.4848836 0.0144830346
vt 0.4919895 0.127362132
vt 0.313794017 0.127355278
vt 0.7307319 0.64118284
vt 0.9049596 0.641094267
vt 0.904875755 0.5577762
vt 0.87974 0.557762146
vt 0.912207067 0.6410661
vt 0.7307319 0.6410581
vt 0.7306915 0.4744581
vt 0.5386926 0.5374713
vt 0.316622019 0.537471
vt 0.316623867 0.305203021
vt 0.5229122 0.138920486
vt 0.708619237 0.138920665
vt 0.708617568 0.327285171
vt 0.189843714 0.4678036
vt 0.187411934 0.5686773
vt 0.07213963 0.5686755
vt 0.904792249 0.4744581
vt 0.901787043 0.4742086
vt 0.9883847 0.50987184
vt 0.73065263 0.47388953
vn 0 0.0193462968 0.999812841
vn 0 0.0193462949 0.999812841
vn 0 0.02215407 0.999754548
vn 0.01636111 0.0132433875 0.99977845
vn 0.013964124 0.0168109965 0.999761164
vn 0.03271621 0.002923848 0.9994604
vn 0.5982213 0.150468066 0.787077248
vn 0.5982213 0.150468066 0.787077248
vn 0.5982213 0.150468066 0.787077248
vn 0.999812841 0.0193463936 0
vn 0.999812841 0.0193463936 0
vn 0.9999168 0.0128981322 0
vn 0.9999883 0.004836769 0
vn 1 0 0
vn 1 0 0
vn 1 0 0
vn 0 0.0193462968 -0.999812841
vn 0 0.0193462949 -0.999812841
vn 0 0.0128980679 -0.9999168
vn 0 0.006449034 -0.9999792
vn 0 0.0151797552 -0.9998848
vn 0 0.0151797552 -0.9998848
vn 0 0.0303560123 -0.999539137
vn 0 0.0303560123 -0.999539137
vn -0.999812841 0.0193463936 0
vn -0.999812841 0.0193463936 0
vn -0.9999168 0.0128981322 0
vn -0.9999792 0.00644906657 0
vn -1 3.10397219E-08 2.53849421E-08
vn -1 0 0
vn -1 6.20794438E-08 5.07698843E-08
vn -1 1.24158888E-07 1.01539769E-07
vn 0.6428215 0.04951918 0.7644138
vn 0.639137 0.04204264 0.7679429
vn 0.6382076 0.0243063513 0.769480467
vn 0 1 0
vn 0 1 0
vn 0 1 0
vn 0.62341404 -0.008533008 0.781845331
vn 0.612548351 0.0303762 0.7898492
vn 0.62341404 -0.008533008 0.781845331
vn 0.633222342 -0.0474277437 0.7725154
vn -0.00360112428 0.0246727336 -0.9996891
vn 0 0.0303563122 -0.999539137
vn -0.00240256917 0.05227984 -0.99862957
vn 0 0.10737282 -0.9942188
vn -0.00360460184 0.063242875 -0.9979917
vn -1 4.67579646E-08 5.79161679E-08
vn -1 0 0
vn -1 7.451792E-08 4.630865E-08
vn -1 7.013695E-08 8.687425E-08
vn -1 -8.76194051E-09 8.11312049E-08
vn 0.961451 -0.00125506765 -0.274973541
vn 0.9601976 -0.0107343234 -0.2791152
vn 0.961451 -0.00125506765 -0.274973541
vn 0.962599933 0.008224324 -0.270802
vn -0.339752525 0.8957452 -0.286720634
vn -0.339752525 0.8957452 -0.286720634
vn -0.339752525 0.8957452 -0.286720634
vn -4.18752677E-08 2.36187276E-07 1
vn 0 1.57458189E-07 1
vn -4.18752677E-08 2.36187276E-07 1
vn -8.37505354E-08 3.14916377E-07 1
vn 1 0 0
vn 1 0 0
vn 1 0 0
vn 0.0350260437 0.022979917 0.999122143
vn 0.0884915143 0.147675276 0.985069156
vn 0.03370122 0.0741543546 0.99667716
vn 0.008016269 -0.0396040976 0.9991833
vn -1.59261963E-05 0.999999642 -0.0008250067
vn 2.68240256E-11 0.999999642 -0.0008583836
vn -1.24778308E-05 0.999999642 -0.000845227041
vn -1.5926189E-05 0.9999997 -0.000809301
vn 5.0958E-11 0.999999642 -0.0008112665
vn -1.14114382E-05 0.9999997 -0.0007979164
vn 0.63244 -0.00120239321 0.7746085
vn 0.625497639 -0.0269805919 0.7797594
vn 0.6306519 -0.0190852638 0.775831163
vn 1 0 0
vn 0.03738999 -0.0791118443 0.9961643
vn 0 1 0
vn 0.0375075452 0 0.999296367
usemtl sl-bd038_part_0_material_0
f 1/1/1 2/2/2 3/3/3
f 3/3/3 4/4/4 1/1/1
f 5/5/5 6/6/6 4/4/4
f 4/4/4 3/3/3 5/5/5
f 7/7/7 8/8/8 9/9/9
f 10/10/10 11/11/11 12/12/12
f 12/12/12 13/13/13 10/10/10
f 14/14/14 15/15/15 13/13/13
f 13/13/13 12/12/12 16/16/16
f 17/17/17 18/18/18 19/19/19
f 19/19/19 20/20/20 17/17/17
f 20/20/20 19/19/19 21/21/21
f 21/21/21 22/22/22 20/20/20
f 23/23/23 22/22/22 21/21/21
f 21/21/21 24/24/24 23/23/23
f 25/25/25 26/26/26 27/27/27
f 27/27/27 28/28/28 25/25/25
f 28/28/28 27/27/27 29/29/29
f 29/29/29 30/30/30 28/28/28
f 31/31/31 30/30/30 29/29/29
f 29/29/29 32/32/32 31/31/31
f 33/33/33 34/34/34 35/35/35
f 36/36/36 37/37/37 38/38/38
f 39/39/39 40/40/40 41/41/41
f 41/41/41 42/42/42 39/39/39
f 43/43/43 44/44/44 45/45/45
f 45/45/45 46/46/46 47/47/47
f 43/43/43 45/45/45 47/47/47
f 48/48/48 49/49/49 50/50/50
f 48/48/48 50/50/50 51/51/51
f 48/48/48 51/51/51 52/52/52
f 53/53/53 54/54/54 55/55/55
f 55/55/55 56/56/56 53/53/53
f 57/57/57 58/58/58 59/59/59
f 60/60/60 61/61/61 62/62/62
f 62/62/62 63/63/63 60/60/60
f 64/64/64 65/65/65 66/66/66
f 64/64/64 66/66/66 16/16/16
f 67/67/67 68/68/68 69/69/69
f 70/70/70 67/67/67 69/69/69
f 71/71/71 72/72/72 73/73/73
f 71/71/71 73/73/73 74/74/74
f 74/74/74 75/75/75 76/76/76
f 71/71/71 74/74/74 76/76/76
f 77/77/77 78/78/78 79/79/79
f 79/79/79 35/35/35 77/77/77
f 16/16/16 66/66/66 80/80/80
f 16/16/16 14/14/14 13/13/13
f 34/34/34 77/77/77 35/35/35
f 81/81/81 67/67/67 70/70/70
f 82/82/82 36/36/36 38/38/38
f 6/6/6 83/83/83 4/4/4
