mtllib sl-bd039.mtl
o sl-bd039_part_0
v -0.467597127 2.45188546 3.99757648
v 0.503064036 2.45188546 3.99757648
v 0.5002461 2.54249835 3.83603549
v -0.48494935 2.528588 3.72912741
v -0.296928585 2.52577043 1.43670046
v -0.476273239 2.56537938 0.817001641
v -0.48494935 2.52577043 1.3249253
v 0.494387925 2.56537938 0.817001641
v 0.484829336 2.6086123 1.65869558
v -0.48494935 -0.004507916 3.99382
v 0.4857118 -0.004507916 3.99382
v 0.503064036 2.45188546 3.99757648
v -0.467597127 2.45188546 3.99757648
v 0.4857118 -0.004507916 3.99382
v 0.4857118 -0.004507916 2.96305728
v 0.4857118 2.32762456 2.96305728
v 0.5002461 2.54249835 3.83603549
v 0.503064036 2.45188546 3.99757648
v 0.4857118 -0.004507916 2.01829815
v 0.4857118 2.42920232 2.01829815
v 0.4857118 -0.004507916 0.8151234
v 0.494387925 2.56537938 0.817001641
v 0.484829336 2.6086123 1.65869558
v -0.476273239 2.56537938 0.817001641
v -0.48494935 -0.004507916 0.8151234
v -0.48494935 -0.004507916 1.32492507
v -0.48494935 2.35508037 1.3831743
v -0.48494935 2.52577043 1.3249253
v -0.48494935 -0.004507916 3.99382
v -0.467597127 2.45188546 3.99757648
v -0.48494935 2.528588 3.72912741
v -0.48494935 2.59692025 2.96305728
v -0.48494935 -0.004507916 2.96305728
v 0.4857118 2.32762456 2.96305728
v 0.292137 2.32762456 2.96305728
v 0.18716836 2.55714774 3.04217267
v 0.5002461 2.54249835 3.83603549
v 0.292137 2.32762456 2.96305728
v 0.398917526 2.55429149 2.176613
v 0.4857118 2.42920232 2.01829815
v 0.398917526 2.55429149 2.176613
v 0.4857118 2.42920232 2.01829815
v 0.484829336 2.6086123 1.65869558
v 0.455678225 2.774566 2.07634258
v -0.312631518 2.69208312 2.965031
v 0.18716836 2.55714774 3.04217267
v -0.48494935 2.59692025 2.96305728
v -0.108784676 2.72302079 1.96042907
v 0.455678225 2.774566 2.07634258
v -0.48494935 2.35508037 2.01829815
v -0.48494935 -0.004507916 2.01829815
v -0.25570938 2.35508037 2.01829815
v -0.108784676 2.72302079 1.96042907
v -0.296928585 2.52577043 1.43670046
v -0.333595753 2.35508037 1.49081147
v -0.48494935 2.52577043 1.3249253
v -0.48494935 2.35508037 1.3831743
v -0.48494935 2.35508037 2.01829815
v -0.318768978 2.54981637 2.87682152
v -0.25570938 2.35508037 2.01829815
v -0.48494935 2.35508037 1.3831743
v -0.333595753 2.35508037 1.49081147
v 0.41895175 2.63632226 -0.0242658854
v 0.2237154 2.829983 -0.354686737
v -0.48494935 2.829983 -0.3880515
v -0.476273239 2.56537938 0.817001641
v 0.494387925 2.56537938 0.817001641
v 0.4857118 -0.004507916 -0.3880515
v 0.4857118 2.42920232 -0.3880515
v 0.41895175 2.63632226 -0.0242658854
v 0.4857118 -0.004507916 0.8151234
v 0.494387925 2.56537938 0.817001641
v -0.48494935 -0.004507916 -0.3880515
v -0.48494935 2.829983 -0.3880515
v 0.292137 2.42920232 -0.3880515
v 0.2237154 2.829983 -0.354686737
v 0.41895175 2.63632226 -0.0242658854
v 0.4857118 2.42920232 -0.3880515
v 0.455678225 2.774566 2.07634258
v -0.108784676 2.72302079 1.96042907
v -0.25570938 2.35508037 2.01829815
v 0.398917526 2.55429149 2.176613
vt 0.9995021 0.693983436
vt 0.999498665 0.9964818
vt 0.9487595 0.9956036
vt 0.915183842 0.6885757
vt 0.189532891 0.7827107
vt 0.0005012415 0.691278756
vt 0.130108356 0.7128922
vt 0.00049774826 0.9937771
vt 0.264869183 0.9907985
vt 0.0004995167 0.00155174732
vt 0.999499559 0.00155174732
vt 0.999499559 0.7273589
vt 0.0004995167 0.7273589
vt 1.678054 0.009675264
vt 1.37152278 0.009675264
vt 1.37152267 0.6672215
vt 1.63113153 0.7278053
vt 1.67917109 0.702256858
vt 1.09056747 0.009675264
vt 1.09056747 0.69586134
vt 0.7327638 0.009675264
vt 0.7333223 0.7342566
vt 0.9836276 0.7464461
vt 0.7489146 0.695390165
vt 0.748378 0.007866979
vt 0.8940538 0.007866979
vt 0.8940538 0.639128745
vt 0.8940538 0.684793532
vt 1.65669072 0.007866979
vt 1.65776408 0.665027
vt 1.58105481 0.685547352
vt 1.36215019 0.7038282
vt 1.36215019 0.007866979
vt 0.674562 0.991073847
vt 0.661468744 0.9270068
vt 0.5086357 0.7876724
vt 0.2854767 0.9132991
vt 0.574638069 0.878372252
vt 0.4238034 0.926613748
vt 0.377818376 0.991073549
vt 0.423722118 0.9266757
vt 0.377873182 0.9909401
vt 0.264796019 0.9908984
vt 0.366215467 0.9238354
vt 0.6882786 0.7478885
vt 0.706895 0.8924236
vt 0.661471546 0.6960577
vt 0.337197423 0.82263875
vt 0.366121 0.9237266
vt 1.09218526 0.639128745
vt 1.09218526 0.007866979
vt 0.377603024 0.760142
vt 0.337351084 0.822689533
vt 0.18962121 0.7827391
vt 0.214503542 0.722680867
vt 0.130072281 0.7129773
vt 0.165623 0.682798862
vt 0.377821863 0.6885752
vt 0.641867042 0.7590697
vt 0.377821028 0.7600159
vt 0.165648952 0.6829633
vt 0.2144211 0.7226493
vt 0.8249401 0.98326993
vt 0.7494569 0.913225234
vt 0.7494596 0.735076547
vt 0.9995021 0.7373872
vt 0.999498665 0.995876551
vt 0.6725673 0.009675264
vt 0.6725673 0.6958614
vt 0.7484857 0.754259
vt 0.923657656 0.009675264
vt 0.9240495 0.7342566
vt 0.404570639 0.007866979
vt 0.40457058 0.7661796
vt 0.7376675 0.9566831
vt 0.7499219 0.91317296
vt 0.824984252 0.983204544
vt 0.7406409 0.991728067
vt 0.366153419 0.92387253
vt 0.337395579 0.8227779
vt 0.378034055 0.760092
vt 0.4236665 0.9267196
vn -0.02195999 0.9223256 0.385789126
vn 0 0.8721607 0.4892195
vn 0.04036077 0.9902296 0.133477733
vn -0.19243589 0.9626413 0.190499648
vn -0.0343742743 0.9971514 -0.06713845
vn -0.0228609964 0.997259855 0.07035743
vn -0.0457090437 0.995991349 0.07688872
vn -0.0454182327 0.9989509 0.00585317053
vn -0.0332217664 0.964669 -0.261362
vn 0 -0.00152928219 0.9999988
vn 0 -0.00152928219 0.9999988
vn 0 -0.00152928219 0.9999988
vn 0 -0.00152928219 0.9999988
vn 0.999916 -0.004555321 -0.0121326437
vn 1 0 0
vn 0.9999916 -0.00165897375 -0.00375347957
vn 0.999811053 -0.00683270628 -0.0181982312
vn 0.9997466 -0.007029616 -0.0213827379
vn 0.999998033 -0.000844016962 0.00180553622
vn 0.999948442 0.008363347 0.005762353
vn 0.9999943 -0.00337604759 0
vn 0.9999572 0.00723798573 0.005762415
vn 0.999634564 0.0250880588 0.0100635933
vn -0.999986947 0.000227891767 -0.00510608
vn -0.9999943 0.00337604759 0
vn -0.9999924 0.0009377367 -0.00379587477
vn -0.9999387 -0.00187096291 -0.01090993
vn -0.99982816 -0.00598750962 -0.01754551
vn -0.9994407 0.00347526465 0.0332581326
vn -0.997763634 0.00694664242 0.0664790645
vn -0.9997515 0.00231669913 0.02217071
vn -1 0 0
vn -1 0 0
vn 0.327997833 0.943986833 0.03614244
vn 0.114246748 0.9388287 -0.324881971
vn 0.817969263 0.482210726 -0.3136863
vn 0.817969263 0.482210726 -0.3136863
vn 0.817969263 0.482210726 -0.3136863
vn 0.206655055 0.9534748 0.219498247
vn 0.852081537 0.520409763 0.0559529439
vn 0.979316 0.104293764 0.173386931
vn 0.9028088 0.385689735 0.190209657
vn 0.979316 0.104293764 0.173386931
vn 0.972267866 -0.186000556 0.141770825
vn 0.004415961 0.8773229 -0.4798802
vn 0.295770943 0.781382442 -0.5495098
vn -0.234571308 0.897086143 -0.3744499
vn -0.003940111 0.932439268 -0.3613052
vn -0.008902788 0.929072 -0.369791716
vn -1 0 0
vn -1 0 0
vn -0.9335217 0.320698172 0.160280913
vn -0.903856337 0.388953418 0.178210348
vn -0.841584563 0.35859406 0.403913
vn -0.716914952 0.314893216 0.621992946
vn -0.5188027 0.313082576 0.795501769
vn -0.5583623 0.267933339 0.785139
vn 0.048544284 0.986423969 -0.156879455
vn 0.115935259 0.8554062 -0.504816
vn 0.005495837 0.9992593 -0.0380876847
vn 0 1 0
vn 0 1 0
vn 0.03338627 0.9604594 0.276411027
vn -0.02430106 0.856152 0.516152263
vn 0.0498476028 0.927693665 0.3699996
vn 0.0614480972 0.986983359 0.148620173
vn 0 0.9964632 0.08403031
vn 0.9958038 0.0126891518 0.09063037
vn 0.983574867 0 0.1805006
vn 0.999507546 0.007372397 0.0305009037
vn 0.9989335 0.0109996228 -0.044842992
vn 0.9959736 -0.003296997 -0.08958665
vn -0.9999921 0.00168803707 0.003599823
vn -0.9999741 -1.5139541E-10 0.0071995887
vn 0.537920654 0.6381366 -0.5508385
vn 0.8898231 0.186577857 -0.4164175
vn 0.537920654 0.6381366 -0.5508385
vn 0 0.8690216 -0.494774133
vn -0.280231774 0.35163945 0.8932076
vn -0.216078937 0.235319957 0.947594
vn -0.280231774 0.35163945 0.8932076
vn -0.338610768 0.4607139 0.8204179
usemtl sl-bd039_part_0_material_0
f 1/1/1 2/2/2 3/3/3
f 3/3/3 4/4/4 1/1/1
f 5/5/5 6/6/6 7/7/7
f 8/8/8 6/6/6 5/5/5
f 8/8/8 5/5/5 9/9/9
f 10/10/10 11/11/11 12/12/12
f 12/12/12 13/13/13 10/10/10
f 14/14/14 15/15/15 16/16/16
f 14/14/14 16/16/16 17/17/17
f 14/14/14 17/17/17 18/18/18
f 16/16/16 15/15/15 19/19/19
f 19/19/19 20/20/20 16/16/16
f 19/19/19 21/21/21 22/22/22
f 20/20/20 19/19/19 22/22/22
f 23/23/23 20/20/20 22/22/22
f 24/24/24 25/25/25 26/26/26
f 24/24/24 26/26/26 27/27/27
f 24/24/24 27/27/27 28/28/28
f 29/29/29 30/30/30 31/31/31
f 31/31/31 32/32/32 33/33/33
f 29/29/29 31/31/31 33/33/33
f 34/34/34 35/35/35 3/3/3
f 39/39/39 35/35/35 34/34/34
f 34/34/34 40/40/40 39/39/39
f 41/41/41 42/42/42 43/43/43
f 45/45/45 4/4/4 3/3/3
f 3/3/3 46/46/46 45/45/45
f 9/9/9 5/5/5 48/48/48
f 9/9/9 48/48/48 49/49/49
f 50/50/50 27/27/27 26/26/26
f 26/26/26 51/51/51 50/50/50
f 51/51/51 33/33/33 32/32/32
f 32/32/32 50/50/50 51/51/51
f 58/58/58 47/47/47 59/59/59
f 59/59/59 60/60/60 58/58/58
f 61/61/61 58/58/58 60/60/60
f 60/60/60 62/62/62 61/61/61
f 60/60/60 59/59/59 35/35/35
f 35/35/35 39/39/39 60/60/60
f 63/63/63 64/64/64 65/65/65
f 63/63/63 65/65/65 66/66/66
f 63/63/63 66/66/66 67/67/67
f 68/68/68 69/69/69 70/70/70
f 71/71/71 68/68/68 70/70/70
f 72/72/72 71/71/71 70/70/70
f 73/73/73 25/25/25 24/24/24
f 24/24/24 74/74/74 73/73/73
usemtl sl-bd039_part_0_material_1
f 36/36/36 37/37/37 38/38/38
f 43/43/43 44/44/44 41/41/41
f 47/47/47 4/4/4 45/45/45
f 52/52/52 53/53/53 54/54/54
f 54/54/54 55/55/55 52/52/52
f 56/56/56 57/57/57 55/55/55
f 55/55/55 54/54/54 56/56/56
f 45/45/45 59/59/59 47/47/47
f 75/75/75 76/76/76 77/77/77
f 77/77/77 78/78/78 75/75/75
f 45/45/45 46/46/46 35/35/35
f 35/35/35 59/59/59 45/45/45
f 79/79/79 80/80/80 81/81/81
f 81/81/81 82/82/82 79/79/79
o sl-bd039_part_1
v 0.4857118 2.45396185 -3.99757624
v -0.48494935 2.45396185 -3.99757624
v -0.503064036 2.68677855 -3.57960367
v -0.246971786 2.68677855 -3.37253118
v 0.485081345 2.70880747 -3.48777437
v 0.4857118 2.429202 -0.3880515
v 0.4857118 -0.004507916 -0.3880515
v 0.4857118 -0.004507916 -1.59122646
v 0.4857118 2.32762432 -1.59122646
v 0.4857118 -0.004507916 -2.79440165
v 0.4857118 2.429202 -2.79440165
v 0.485081345 2.70880747 -3.48777437
v 0.484577328 2.771862 -3.080195
v 0.4857118 -0.004507916 -3.99757624
v 0.4857118 2.45396185 -3.99757624
v 0.4857118 -0.004507916 -3.99757624
v -0.48494935 -0.004507916 -3.99757624
v -0.48494935 2.45396185 -3.99757624
v 0.4857118 2.45396185 -3.99757624
v -0.48494935 2.45396185 -3.99757624
v -0.48494935 -0.004507916 -3.99757624
v -0.48494935 -0.004507916 -3.48777485
v -0.48494935 2.35508013 -3.48777437
v -0.503064036 2.68677855 -3.57960367
v -0.200713992 2.84072161 -2.80549955
v -0.25570938 2.35508013 -2.79440165
v -0.318768978 2.54981661 -1.677462
v -0.292618334 2.9417038 -1.6475395
v -0.48494935 2.82998276 -0.3880515
v -0.469060242 2.89364433 -1.52394331
v -0.48494935 2.54981661 -1.59122646
v -0.48494935 -0.004507916 -1.59122646
v -0.48494935 -0.004507916 -0.3880515
v 0.2237154 2.82998276 -0.354686618
v 0.292137 2.429202 -0.3880515
v 0.292137 2.32762432 -1.59122646
v 0.202344149 2.80676842 -1.59122646
v 0.32017827 2.429202 -2.6891284
v 0.292086631 2.86051226 -2.79440165
v 0.4857118 2.429202 -0.3880515
v 0.4857118 2.32762432 -1.59122646
v 0.4857118 2.429202 -2.79440165
v 0.484577328 2.771862 -3.080195
v 0.2237154 2.82998276 -0.354686618
v 0.202344149 2.80676842 -1.59122646
v -0.292618334 2.9417038 -1.6475395
v -0.469060242 2.89364433 -1.52394331
v -0.48494935 2.82998276 -0.3880515
v 0.484577328 2.771862 -3.080195
v -0.200713992 2.84072161 -2.80549955
v 0.292086631 2.86051226 -2.79440165
v -0.48494935 2.35508013 -2.79440165
v -0.48494935 -0.004507916 -2.79440165
v -0.246971786 2.68677855 -3.37253118
v -0.337335676 2.35508013 -3.33984065
v -0.503064036 2.68677855 -3.57960367
v -0.48494935 2.35508013 -3.48777437
v -0.48494935 2.35508013 -2.79440165
v -0.48494935 2.54981661 -1.59122646
v -0.469060242 2.89364433 -1.52394331
vt 0.0004978075 0.99356544
vt 0.0005012076 0.73507607
vt 0.07837383 0.738000035
vt 0.11469835 0.8239075
vt 0.106279127 0.993397653
vt 0.6725673 0.6958614
vt 0.6725673 0.009675264
vt 0.42147705 0.009675264
vt 0.42147696 0.6672215
vt 0.1703866 0.009675264
vt 0.170386508 0.69586134
vt 0.02568669 0.774696231
vt 0.110744387 0.792474568
vt -0.0807036161 0.009675205
vt -0.08070372 0.702842355
vt 0.0004995167 0.00155174732
vt 0.999499559 0.00155174732
vt 0.999499559 0.5947739
vt 0.0004995167 0.5947739
vt -0.626851439 0.6655826
vt -0.6268513 0.007866919
vt -0.481175482 0.007866919
vt -0.481175452 0.639128745
vt -0.481175452 0.7278682
vt 0.247773632 0.842897058
vt 0.25496757 0.777149737
vt 0.4959583 0.775421
vt 0.5166708 0.8172997
vt 0.40457058 0.7661796
vt 0.0607633069 0.783211052
vt 0.0607633069 0.6912266
vt 0.0607633777 0.007866979
vt 0.404570639 0.007866979
vt 0.7499219 0.91317296
vt 0.7376675 0.9566831
vt 0.501982033 0.960159361
vt 0.5043806 0.8980308
vt 0.2744007 0.9558398
vt 0.2426003 0.9223989
vt 0.7406409 0.991728067
vt 0.498679817 0.994335532
vt 0.257005 0.9942501
vt 0.190374121 0.993128
vt 0.7494569 0.913225234
vt 0.5055599 0.8979598
vt 0.5168993 0.8172861
vt 0.5436523 0.7448419
vt 0.7494596 0.735076547
vt 0.190849841 0.9932634
vt 0.247850209 0.8428672
vt 0.242956728 0.9218583
vt -0.2830441 0.639128745
vt -0.28304404 0.007866979
vt 0.1147857 0.8240365
vt 0.13080354 0.774707258
vt 0.0783294141 0.7379577
vt 0.117241159 0.727360964
vt 0.261417419 0.7288176
vt 0.503465354 0.7332497
vt 0.543668 0.744957149
vn 0.0180340372 0.92556 -0.3781712
vn 0 0.873615742 -0.486616462
vn 0.0762528852 0.9368094 -0.3414288
vn -0.00208605966 0.9644417 -0.264287382
vn -0.0762274042 0.95006156 -0.3026094
vn 1 0 0
vn 1 0 0
vn 1 0 0
vn 1 0 0
vn 1 0 0
vn 0.999998748 0.00155550952 0.000172628614
vn 0.9999951 0.00311101577 0.000345256849
vn 0.9999924 0.00384592963 0.0006416164
vn 1 0 0
vn 0.9999997 0.000792033738 1.62990236E-05
vn 0 0 -1
vn 0 0 -1
vn 0 0 -1
vn 0 0 -1
vn -0.9998085 -0.0192111488 -0.003726215
vn -1 0 0
vn -1 0 0
vn -0.9998085 -0.0192111488 -0.003726215
vn -0.998276532 -0.05761137 -0.0111743631
vn -0.9943901 0.09915092 -0.0368443467
vn -0.644364 0.76462543 -0.0119601637
vn -0.691709161 0.6162709 -0.3764952
vn -0.75394696 0.129313648 -0.644082248
vn -0.999862969 0.0161240865 -0.00375458552
vn -0.998766541 0.0483589955 -0.0112606678
vn -0.999922931 0.0120925466 -0.00281581841
vn -1 0 0
vn -1 0 0
vn 0.9840939 0.176797479 -0.0173730031
vn 0.6441939 0.762150943 -0.06434441
vn 0.7387625 0.6739657 0.000485810626
vn 0.9824336 0.184110612 0.03045378
vn 0.5943996 0.719399452 0.359379441
vn 0.9653816 0.149324715 0.2138702
vn 0 0.9964552 -0.08412549
vn 0.01787287 0.999366343 0.0307802986
vn 0.2703769 0.8637984 0.425145537
vn 0.669770241 0.395748 0.6283242
vn 0.03436764 0.9974962 0.0618080162
vn 0.166424915 0.98594445 -0.0147065045
vn 0.12750484 0.9915991 0.0217655525
vn -0.08242 0.991281033 0.1028047
vn -0.00263282354 0.998431742 0.055920735
vn -0.0309242252 0.969354868 -0.243710548
vn 0.0482457355 0.9871605 -0.152270958
vn -0.03661046 0.9896067 -0.1390623
vn -1 0 0
vn -1 0 0
vn -0.913666 0.224440336 0.338881969
vn -0.6997233 0.516475 0.493599862
vn -0.656319261 0.198276773 0.727963865
vn -0.294990122 0.9090312 0.294351935
vn -0.0276487675 0.993463159 -0.110754281
vn -0.456357449 0.5063103 -0.73170197
vn -0.5968224 0.180568278 -0.7817916
usemtl sl-bd039_part_1_material_0
f 83/83/83 84/84/84 85/85/85
f 83/83/83 85/85/85 86/86/86
f 83/83/83 86/86/86 87/87/87
f 88/88/88 89/89/89 90/90/90
f 90/90/90 91/91/91 88/88/88
f 91/91/91 90/90/90 92/92/92
f 92/92/92 93/93/93 91/91/91
f 94/94/94 95/95/95 93/93/93
f 92/92/92 96/96/96 97/97/97
f 93/93/93 92/92/92 97/97/97
f 94/94/94 93/93/93 97/97/97
f 98/98/98 99/99/99 100/100/100
f 100/100/100 101/101/101 98/98/98
f 102/102/102 103/103/103 104/104/104
f 102/102/102 104/104/104 105/105/105
f 102/102/102 105/105/105 106/106/106
f 111/111/111 112/112/112 113/113/113
f 111/111/111 113/113/113 114/114/114
f 111/111/111 114/114/114 115/115/115
f 118/118/118 117/117/117 122/122/122
f 122/122/122 123/123/123 118/118/118
f 120/120/120 118/118/118 123/123/123
f 123/123/123 124/124/124 120/120/120
f 126/126/126 127/127/127 128/128/128
f 126/126/126 128/128/128 129/129/129
f 126/126/126 129/129/129 130/130/130
f 131/131/131 87/87/87 86/86/86
f 131/131/131 86/86/86 132/132/132
f 131/131/131 132/132/132 133/133/133
f 134/134/134 105/105/105 104/104/104
f 104/104/104 135/135/135 134/134/134
f 135/135/135 114/114/114 113/113/113
f 113/113/113 134/134/134 135/135/135
f 140/140/140 141/141/141 109/109/109
f 109/109/109 108/108/108 140/140/140
f 139/139/139 140/140/140 108/108/108
f 108/108/108 137/137/137 139/139/139
f 132/132/132 128/128/128 127/127/127
f 127/127/127 133/133/133 132/132/132
usemtl sl-bd039_part_1_material_1
f 107/107/107 108/108/108 109/109/109
f 109/109/109 110/110/110 107/107/107
f 116/116/116 117/117/117 118/118/118
f 118/118/118 119/119/119 116/116/116
f 118/118/118 120/120/120 121/121/121
f 121/121/121 119/119/119 118/118/118
f 120/120/120 124/124/124 125/125/125
f 125/125/125 121/121/121 120/120/120
f 108/108/108 107/107/107 136/136/136
f 136/136/136 137/137/137 108/108/108
f 138/138/138 139/139/139 137/137/137
f 137/137/137 136/136/136 138/138/138
f 110/110/110 109/109/109 141/141/141
f 141/141/141 142/142/142 110/110/110
