mtllib gelf.mtl
o gelf_part_0
v 0.0243305769 4.37500763 -8.744578
v 0.02131602 5.111175 -6.91968346
v -1.47805452 5.59278774 -8.339516
v 0.0162118729 6.021835 -9.609759
v 1.51522076 5.607107 -8.340347
v -9.923059E-08 3.760855 -2.21503282
v -3.626693E-07 2.27715564 -3.59187174
v -1.55532622 3.89239788 -1.50529087
v -3.626693E-07 2.27715564 -3.59187174
v -3.415733 2.2771554 -1.97207415
v -3.679941 2.2771554 0.986037433
v -1.98143852 4.175833 0.0239913445
v -1.55532587 4.459269 1.55327332
v -2.20103168 2.27715564 3.41573334
v 5.293365E-07 2.3508215 4.218966
v 2.91155459E-07 4.518968 2.1145823
v 2.20103264 2.27715564 3.41573262
v 1.55532622 4.459269 1.55327272
v 3.679941 2.2771554 0.9860365
v 1.98143864 4.175833 0.0239908379
v 3.41573262 2.27715564 -1.9720751
v 1.55532563 3.89239788 -1.50529122
v 1.55532563 3.89239788 -1.50529122
v 3.41573262 2.27715564 -1.9720751
v -3.626693E-07 2.27715564 -3.59187174
v -9.923059E-08 3.760855 -2.21503282
v -3.944149 6.744859E-08 -2.277155
v -3.633954E-07 1.03068693E-07 -4.147536
v -4.24923 1.7197312E-08 1.13857794
v -2.277155 -1.93088017E-08 3.944149
v 5.96985558E-07 -2.328286E-08 4.554311
v 2.27715588 -9.537713E-09 3.9441483
v 4.24923 3.543042E-08 1.13857687
v 3.9441483 8.437264E-08 -2.277156
v -3.633954E-07 1.03068693E-07 -4.147536
v 3.41573262 2.27715564 -1.9720751
v 3.9441483 8.437264E-08 -2.277156
v -3.415733 -2.2771554 -1.97207415
v -3.63634626E-07 -2.27715516 -3.59187174
v -3.679941 -2.2771554 0.986037552
v -2.20103168 -2.27715564 3.41573334
v 5.162225E-07 -2.2771554 3.94414878
v 2.20103264 -2.27715564 3.41573262
v 3.679941 -2.2771554 0.986036539
v 3.41573262 -2.27715516 -1.9720751
v -3.63634626E-07 -2.27715516 -3.59187174
v 3.41573262 -2.27715516 -1.9720751
v -1.55532587 -3.94414878 -1.55532563
v -1.03606411E-07 -3.94414878 -2.277155
v -1.91624033 -3.94414878 0.7776631
v 2.96539071E-07 -3.94414878 2.277155
v 1.91624057 -3.94414878 0.7776626
v 1.55532551 -3.94414878 -1.555326
v 1.55532551 -3.94414878 -1.555326
v -1.03606411E-07 -3.94414878 -2.277155
v -3.20059357E-09 -4.55431032 -2.96711935E-08
v -1.03606411E-07 -3.94414878 -2.277155
v -1.59346151 6.75436449 -1.212192
v -1.06286955 9.883258 -3.454998
v 0.00463536428 8.775999 -3.85684276
v -1.45080435E-07 6.04209757 -2.057722
v -1.479056 7.56292248 -0.252357572
v 2.107427E-07 8.00567 0.273227066
v -0.0038878324 10.5958815 -3.19987416
v 1.47905612 7.56292152 -0.2523577
v 1.06172109 9.893421 -3.45558882
v 1.59346151 6.75436449 -1.21219242
v -9.923059E-08 3.760855 -2.21503282
v -9.923059E-08 3.760855 -2.21503282
v -0.5267488 8.630944 -7.15996838
v 0.00655905064 8.20564651 -6.75195932
v 0.003024952 8.905626 -7.419737
v 0.53554666 8.636026 -7.16026354
v -0.252587944 6.792581 -7.928519
v 0.0134239374 6.71392 -7.72831726
v 0.0125546744 6.86970234 -8.17473
v 0.2785598 6.795121 -7.928666
v -4.63129663 1.97922277 -0.0683781654
v -9.432382 4.90203762 -1.9070431
v -10.4351559 3.37268543 1.53713155
v -13.3111944 6.744051 -2.46339679
v -14.1391983 4.64969063 1.86817884
v -16.183754 7.287638 -1.40740132
v -16.6203175 6.211308 0.826467752
v 4.65046024 1.96350515 -0.0683823451
v 10.4755087 3.26555228 1.53712606
v 9.496906 4.810466 -1.90705621
v 14.1991682 4.48416471 1.86817086
v 13.4041977 6.591265 -2.46341467
v 16.7045345 6.006575 0.826454937
v 16.28495 7.08962631 -1.40741932
v -0.533424258 -12.0362425 -2.11435413
v -0.496656716 -12.8980646 -3.10095763
v -0.1701457 -11.9191618 -4.75883436
v -0.975173533 -10.92016 -2.93915415
v 0.218222022 -14.4608135 -6.50581
v 0.458867967 -7.27204561 -2.96104264
v -0.09849967 -8.30754852 -0.8058644
v -0.421879143 -9.888713 -0.00346796564
v -0.231468767 -9.301269 -5.326978
v 0.295471162 -6.04462242 -0.9009395
v -0.0437122546 -6.39611864 -0.00405797362
v 0.529287457 -14.4817419 -2.227269
v -0.1579903 -16.2683773 -4.473286
v -0.42588824 -13.81077 -1.22905171
v 0.309355229 -17.1630058 -2.56139779
v 1.72192642E-07 -2.115516 0.4251723
v -0.533424258 -12.0362425 -2.11435413
v -0.975173533 -10.92016 -2.93915415
v -0.1701457 -11.9191618 -4.75883436
v -0.496656716 -12.8980646 -3.10095763
v 0.218222022 -14.4608135 -6.50581
v -0.421879143 -9.888713 -0.00346796564
v -0.09849967 -8.30754852 -0.8058644
v 0.458867967 -7.27204561 -2.96104264
v -0.231468767 -9.301269 -5.326978
v -0.0437122546 -6.39611864 -0.00405797362
v 0.295471162 -6.04462242 -0.9009395
v 0.529287457 -14.4817419 -2.227269
v -0.1579903 -16.2683773 -4.473286
v -0.42588824 -13.81077 -1.22905171
v 0.309355229 -17.1630058 -2.56139779
v 1.72192642E-07 -2.115516 0.4251723
vt 0.503110766 0.9822927
vt 0.503110766 0.969651163
vt 0.3442212 0.9232397
vt 0.503110766 0.9400788
vt 0.6652218 0.9232397
vt 0.2605108 0.672017634
vt 0.205541432 0.5631572
vt 0.11465922 0.5388621
vt 0.205541432 0.5657748
vt 0.07220575 0.434895337
vt 0.143340528 0.5422165
vt 0.304546148 0.7244486
vt 0.345007032 0.7817736
vt 0.301937819 0.6024211
vt 0.514416754 0.626799047
vt 0.5043491 0.823326468
vt 0.7478364 0.5840979
vt 0.678591251 0.763450444
vt 0.877640247 0.5762451
vt 0.72428745 0.740154147
vt 0.8728651 0.5840979
vt 0.6785914 0.7482692
vt 1.01364279 0.366101265
vt 1.04039085 0.335427046
vt 0.8442331 0.5893331
vt 0.9384663 0.4285819
vt 0.09144874 0.300083041
vt 0.1427193 0.4047866
vt 0.132024631 0.386463463
vt 0.2780688 0.42310977
vt 0.511799157 0.3969338
vt 0.7664702 0.402169
vt 0.9674839 0.3969338
vt 0.929532051 0.3969338
vt 0.8442331 0.402169
vt 1.04300845 0.340662181
vt 0.992354035 0.2582016
vt 0.07744093 0.215004742
vt 0.195071071 0.222857535
vt 0.117164642 0.2097696
vt 0.27837953 0.118153989
vt 0.511799157 0.07103735
vt 0.737366 0.08412534
vt 0.9064337 0.2097696
vt 0.8728651 0.2097696
vt 0.8625562 0.215004742
vt 1.0089798 0.17312336
vt 0.161775813 0.127725184
vt 0.247422859 0.109402061
vt 0.306302816 0.0361095667
vt 0.511799157 0.0125513673
vt 0.70420754 0.0230216384
vt 0.673356056 0.03349197
vt 0.940350056 0.122489989
vt 0.8913497 0.13296032
vt 0.5117993 0.0147525668
vt 0.509181738 -0.0005366802
vt 0.385223478 0.777079344
vt 0.407352865 0.8334158
vt 0.504721344 0.845699251
vt 0.502103746 0.814728439
vt 0.378837883 0.796741247
vt 0.504721344 0.8075076
vt 0.504721344 0.830498338
vt 0.630604565 0.796741247
vt 0.602089942 0.8334158
vt 0.624218941 0.777079344
vt 0.31809774 0.6981936
vt 0.545828 0.7871915
vt 0.426115781 0.853291035
vt 0.504721463 0.864774466
vt 0.5047216 0.8459865
vt 0.583327055 0.853291035
vt 0.476241171 0.895560861
vt 0.5047216 0.8980555
vt 0.5047216 0.893035531
vt 0.5332019 0.895560861
vt 0.0257486179 0.533361852
vt 0.05058858 0.7473866
vt 0.1879446 0.68813
vt 0.108680382 0.902995348
vt 0.272821367 0.8128174
vt 0.201755852 0.977531552
vt 0.286595851 0.931370258
vt 0.0257486179 0.533361852
vt 0.1879446 0.68813
vt 0.05058858 0.7473866
vt 0.272821367 0.8128174
vt 0.108680382 0.902995348
vt 0.286595851 0.931370258
vt 0.201755852 0.977531552
vt 0.8143934 0.796396136
vt 0.8150679 0.842006
vt 0.8774446 0.8624405
vt 0.863844752 0.791299343
vt 0.8513695 0.967170238
vt 0.9686501 0.7143272
vt 0.8954087 0.6759879
vt 0.8341804 0.686077058
vt 0.9584763 0.824116945
vt 0.9617175 0.6320039
vt 0.9334186 0.6147986
vt 0.750279248 0.8573233
vt 0.759227455 0.9562789
vt 0.7479149 0.8149059
vt 0.690109134 0.928133667
vt 0.9854251 0.4881071
vt 0.8143934 0.796396136
vt 0.863844752 0.791299343
vt 0.8774446 0.8624405
vt 0.8150679 0.842006
vt 0.8513695 0.967170238
vt 0.8341804 0.686077058
vt 0.8954087 0.6759879
vt 0.9686501 0.7143272
vt 0.9584763 0.824116945
vt 0.9334186 0.6147986
vt 0.9617175 0.6320039
vt 0.750279248 0.8573233
vt 0.759227455 0.9562789
vt 0.7479149 0.8149059
vt 0.690109134 0.928133667
vt 0.9854251 0.4881071
vn 0.004407335 -0.9409609 -0.338486642
vn 0.001950976 -0.3534823 0.935439169
vn -0.999059737 -0.0290960986 -0.0321420543
vn -0.0008378278 0.28294012 -0.9591372
vn 0.99928546 -0.0183245726 -0.0330580734
vn -4.12016625E-08 0.448338151 -0.893864036
vn -1.04237813E-07 0.436471283 -0.899718165
vn -0.646319151 0.436579525 -0.6258353
vn -1.04237813E-07 0.436471283 -0.899718165
vn -0.7237718 0.489350438 -0.4865085
vn -0.874711156 0.4463497 0.188818142
vn -0.9157609 0.3927334 -0.08451325
vn -0.6182465 0.558577657 0.5529578
vn -0.574472964 0.404872626 0.7113782
vn -0.0132340929 0.431119621 0.9021977
vn -6.932436E-05 0.6006522 0.7995104
vn 0.5693443 0.424502462 0.7040204
vn 0.6182755 0.558610141 0.5528925
vn 0.8766186 0.441084117 0.19231385
vn 0.8916832 0.45079425 -0.04105594
vn 0.7278331 0.4623933 -0.5064103
vn 0.6021696 0.455548942 -0.6556424
vn 0.6021696 0.455548942 -0.6556424
vn 0.7278331 0.4623933 -0.5064103
vn -1.04237813E-07 0.436471283 -0.899718165
vn -4.12016625E-08 0.448338151 -0.893864036
vn -0.824016035 1.77793886E-08 -0.566566467
vn -1.05453836E-07 -1.64692473E-08 -1
vn -0.9680863 0.008362812 0.250477463
vn -0.559628963 0.00369082484 0.828735054
vn -0.0142888408 -0.04373213 0.9989411
vn 0.5717144 -0.0207210165 0.820191
vn 0.968086362 -0.008362789 0.2504772
vn 0.8240159 -3.76488662E-09 -0.566566646
vn -1.05453836E-07 -1.64692473E-08 -1
vn 0.7278331 0.4623933 -0.5064103
vn 0.8240159 -3.76488662E-09 -0.566566646
vn -0.7288437 -0.475973517 -0.492174864
vn -9.65933964E-08 -0.415496945 -0.9095946
vn -0.8523299 -0.486052841 0.193096608
vn -0.518573 -0.4812078 0.7067681
vn 0.0227844268 -0.5088554 0.860550463
vn 0.5032368 -0.5148627 0.694023848
vn 0.852317 -0.4827392 0.20129241
vn 0.7281662 -0.481651485 -0.4876329
vn -9.65933964E-08 -0.415496945 -0.9095946
vn 0.7281662 -0.481651485 -0.4876329
vn -0.410072625 -0.8252581 -0.388316274
vn -2.91736413E-08 -0.7964196 -0.604744434
vn -0.484812379 -0.857563138 0.171879068
vn 0.07199942 -0.844349563 0.530933
vn 0.485123724 -0.853958368 0.188175574
vn 0.417810053 -0.823603332 -0.383552223
vn 0.417810053 -0.823603332 -0.383552223
vn -2.91736413E-08 -0.7964196 -0.604744434
vn -9.640644E-09 -0.999911666 0.0132913413
vn -2.91736413E-08 -0.7964196 -0.604744434
vn -0.918987036 -0.00710899569 -0.39422372
vn -0.905835748 0.40223065 -0.1329363
vn 0.00485856459 -0.894221067 -0.447599262
vn -0.00020772581 -0.183755189 -0.982972
vn -0.785595655 0.449667573 0.425015926
vn 0.000109195731 0.6627218 0.748865664
vn -0.00541934138 0.991378665 0.130915731
vn 0.7855127 0.4497997 0.425029457
vn 0.90500176 0.407285333 -0.122843213
vn 0.9191087 -0.007238375 -0.393937558
vn -4.12016625E-08 0.448338151 -0.893864036
vn -4.12016625E-08 0.448338151 -0.893864036
vn -0.949961841 0.1369004 -0.2807682
vn 0.003443066 -0.851677656 0.524054646
vn -0.0124344761 0.69092077 -0.72282356
vn 0.9504241 0.14222014 -0.276527673
vn -0.8998802 0.412172675 0.1425812
vn -3.906062E-05 0.06607133 0.9978149
vn -0.004251544 0.6881103 -0.7255936
vn 0.908497 0.395448953 0.135104954
vn 0.325752169 0.82528013 0.461300552
vn 0.325752079 0.8252802 0.461300522
vn 0.325752079 0.8252802 0.461300552
vn 0.325752139 0.8252802 0.4613005
vn 0.3257521 0.8252802 0.461300522
vn 0.3257522 0.82528013 0.461300582
vn 0.325752079 0.82528013 0.461300641
vn -0.3127369 0.8303018 0.461296529
vn -0.312736958 0.830301762 0.461296618
vn -0.312736928 0.8303018 0.461296529
vn -0.312736869 0.830301762 0.461296678
vn -0.3127369 0.830301762 0.461296648
vn -0.312736839 0.830301762 0.461296678
vn -0.312736839 0.830301762 0.4612967
vn 0.9659057 0.216302261 0.14226526
vn 0.9675762 0.224759534 0.115236267
vn 0.9808357 -0.0133189959 0.1943811
vn 0.957611 -0.056063015 0.282556325
vn 0.9992614 0.03570815 0.0141984
vn 0.9613004 -0.241780415 0.132075086
vn 0.9682063 -0.23979634 0.07123429
vn 0.964625239 -0.245731965 -0.09546727
vn 0.9666171 -0.0325147249 -0.254153848
vn 0.9411266 -0.183167592 0.2841309
vn 0.9542199 -0.120328151 0.273834944
vn 0.94723016 0.320515662 0.004970617
vn 0.9707863 -0.191210076 -0.144957647
vn 0.7292684 0.625473857 0.277398825
vn 0.965028167 -0.0470191352 -0.257894933
vn 0.939986348 -0.0435337536 0.33842352
vn -0.9659057 -0.216302261 -0.142265275
vn -0.957611 0.056063015 -0.282556266
vn -0.9808357 0.0133189959 -0.1943811
vn -0.9675762 -0.224759534 -0.115236267
vn -0.9992614 -0.03570816 -0.0141984
vn -0.964625239 0.245731965 0.09546727
vn -0.9682063 0.239796326 -0.0712342858
vn -0.9613004 0.2417804 -0.132075071
vn -0.9666171 0.0325147249 0.254153848
vn -0.9542199 0.120328151 -0.273834944
vn -0.9411266 0.183167592 -0.2841309
vn -0.94723016 -0.3205157 -0.004970617
vn -0.9707863 0.191210076 0.144957647
vn -0.7292684 -0.625473857 -0.277398825
vn -0.965028167 0.0470191352 0.257894933
vn -0.939986348 0.0435337536 -0.33842352
usemtl gelf_part_0_material_0
f 1/1/1 2/2/2 3/3/3
f 1/1/1 3/3/3 4/4/4
f 1/1/1 4/4/4 5/5/5
f 1/1/1 5/5/5 2/2/2
f 6/6/6 7/7/7 8/8/8
f 8/8/8 9/9/9 10/10/10
f 11/11/11 12/12/12 8/8/8
f 8/8/8 10/10/10 11/11/11
f 12/12/12 11/11/11 13/13/13
f 13/13/13 11/11/11 14/14/14
f 15/15/15 16/16/16 13/13/13
f 13/13/13 14/14/14 15/15/15
f 17/17/17 18/18/18 16/16/16
f 16/16/16 15/15/15 17/17/17
f 18/18/18 17/17/17 19/19/19
f 18/18/18 19/19/19 20/20/20
f 21/21/21 22/22/22 20/20/20
f 20/20/20 19/19/19 21/21/21
f 23/23/23 24/24/24 25/25/25
f 23/23/23 25/25/25 26/26/26
f 27/27/27 10/10/10 9/9/9
f 9/9/9 28/28/28 27/27/27
f 29/29/29 11/11/11 10/10/10
f 10/10/10 27/27/27 29/29/29
f 30/30/30 14/14/14 11/11/11
f 11/11/11 29/29/29 30/30/30
f 31/31/31 15/15/15 14/14/14
f 14/14/14 30/30/30 31/31/31
f 32/32/32 17/17/17 15/15/15
f 15/15/15 31/31/31 32/32/32
f 33/33/33 19/19/19 17/17/17
f 17/17/17 32/32/32 33/33/33
f 34/34/34 21/21/21 19/19/19
f 19/19/19 33/33/33 34/34/34
f 35/35/35 25/25/25 36/36/36
f 36/36/36 37/37/37 35/35/35
f 38/38/38 27/27/27 28/28/28
f 28/28/28 39/39/39 38/38/38
f 40/40/40 29/29/29 27/27/27
f 27/27/27 38/38/38 40/40/40
f 41/41/41 30/30/30 29/29/29
f 29/29/29 40/40/40 41/41/41
f 42/42/42 31/31/31 30/30/30
f 30/30/30 41/41/41 42/42/42
f 43/43/43 32/32/32 31/31/31
f 31/31/31 42/42/42 43/43/43
f 44/44/44 33/33/33 32/32/32
f 32/32/32 43/43/43 44/44/44
f 45/45/45 34/34/34 33/33/33
f 33/33/33 44/44/44 45/45/45
f 46/46/46 35/35/35 37/37/37
f 37/37/37 47/47/47 46/46/46
f 48/48/48 38/38/38 39/39/39
f 39/39/39 49/49/49 48/48/48
f 50/50/50 40/40/40 38/38/38
f 38/38/38 48/48/48 50/50/50
f 40/40/40 50/50/50 41/41/41
f 51/51/51 42/42/42 41/41/41
f 41/41/41 50/50/50 51/51/51
f 52/52/52 43/43/43 42/42/42
f 42/42/42 51/51/51 52/52/52
f 43/43/43 52/52/52 44/44/44
f 53/53/53 45/45/45 44/44/44
f 44/44/44 52/52/52 53/53/53
f 54/54/54 55/55/55 46/46/46
f 46/46/46 47/47/47 54/54/54
f 56/56/56 50/50/50 48/48/48
f 48/48/48 57/57/57 56/56/56
f 56/56/56 51/51/51 50/50/50
f 56/56/56 52/52/52 51/51/51
f 56/56/56 57/57/57 53/53/53
f 53/53/53 52/52/52 56/56/56
f 58/58/58 59/59/59 60/60/60
f 60/60/60 61/61/61 58/58/58
f 59/59/59 58/58/58 62/62/62
f 62/62/62 63/63/63 64/64/64
f 64/64/64 59/59/59 62/62/62
f 64/64/64 63/63/63 65/65/65
f 65/65/65 66/66/66 64/64/64
f 66/66/66 65/65/65 67/67/67
f 67/67/67 61/61/61 60/60/60
f 60/60/60 66/66/66 67/67/67
f 8/8/8 58/58/58 61/61/61
f 61/61/61 68/68/68 8/8/8
f 58/58/58 8/8/8 12/12/12
f 58/58/58 12/12/12 62/62/62
f 13/13/13 16/16/16 63/63/63
f 63/63/63 62/62/62 13/13/13
f 18/18/18 65/65/65 63/63/63
f 63/63/63 16/16/16 18/18/18
f 65/65/65 20/20/20 67/67/67
f 67/67/67 20/20/20 22/22/22
f 22/22/22 69/69/69 61/61/61
f 61/61/61 67/67/67 22/22/22
f 59/59/59 70/70/70 71/71/71
f 71/71/71 60/60/60 59/59/59
f 64/64/64 72/72/72 70/70/70
f 70/70/70 59/59/59 64/64/64
f 66/66/66 73/73/73 72/72/72
f 72/72/72 64/64/64 66/66/66
f 60/60/60 71/71/71 73/73/73
f 73/73/73 66/66/66 60/60/60
f 70/70/70 74/74/74 75/75/75
f 75/75/75 71/71/71 70/70/70
f 72/72/72 76/76/76 74/74/74
f 74/74/74 70/70/70 72/72/72
f 73/73/73 77/77/77 76/76/76
f 76/76/76 72/72/72 73/73/73
f 73/73/73 71/71/71 75/75/75
f 75/75/75 77/77/77 73/73/73
f 74/74/74 3/3/3 2/2/2
f 2/2/2 75/75/75 74/74/74
f 76/76/76 4/4/4 3/3/3
f 3/3/3 74/74/74 76/76/76
f 77/77/77 5/5/5 4/4/4
f 4/4/4 76/76/76 77/77/77
f 77/77/77 75/75/75 2/2/2
f 2/2/2 5/5/5 77/77/77
f 65/65/65 18/18/18 20/20/20
f 12/12/12 13/13/13 62/62/62
f 78/78/78 79/79/79 80/80/80
f 80/80/80 79/79/79 81/81/81
f 81/81/81 82/82/82 80/80/80
f 82/82/82 81/81/81 83/83/83
f 83/83/83 84/84/84 82/82/82
f 85/85/85 86/86/86 87/87/87
f 86/86/86 88/88/88 89/89/89
f 89/89/89 87/87/87 86/86/86
f 88/88/88 90/90/90 91/91/91
f 91/91/91 89/89/89 88/88/88
f 92/92/92 93/93/93 94/94/94
f 94/94/94 95/95/95 92/92/92
f 93/93/93 96/96/96 94/94/94
f 95/95/95 97/97/97 98/98/98
f 98/98/98 99/99/99 95/95/95
f 94/94/94 100/100/100 97/97/97
f 97/97/97 101/101/101 102/102/102
f 102/102/102 98/98/98 97/97/97
f 103/103/103 104/104/104 96/96/96
f 96/96/96 93/93/93 103/103/103
f 105/105/105 103/103/103 93/93/93
f 103/103/103 106/106/106 104/104/104
f 95/95/95 94/94/94 97/97/97
f 101/101/101 107/107/107 102/102/102
f 108/108/108 109/109/109 110/110/110
f 110/110/110 111/111/111 108/108/108
f 111/111/111 110/110/110 112/112/112
f 109/109/109 113/113/113 114/114/114
f 114/114/114 115/115/115 109/109/109
f 110/110/110 115/115/115 116/116/116
f 115/115/115 114/114/114 117/117/117
f 117/117/117 118/118/118 115/115/115
f 119/119/119 111/111/111 112/112/112
f 112/112/112 120/120/120 119/119/119
f 121/121/121 111/111/111 119/119/119
f 119/119/119 120/120/120 122/122/122
f 109/109/109 115/115/115 110/110/110
f 118/118/118 117/117/117 123/123/123
