mtllib 01010064.mtl
o 01010064_part_0
v 0.166384265 -0.0404559746 -0.502511144
v 0.152772829 0.002390794 -0.119952463
v 0.05772334 -0.3265636 -0.5141461
v 0.03377622 -0.307951242 -0.1282095
v 0.05772334 -0.3265636 -0.5141461
v 0.03377622 -0.307951242 -0.1282095
v -0.193412513 -0.3355575 -0.5276323
v 0.128227055 0.17391476 -0.158087671
v 0.0148913078 0.239173725 -0.498850942
v 0.00264917756 0.264098138 -0.190626144
v 0.0148913078 0.239173725 -0.498850942
v -0.23299399 0.209265858 -0.5108752
v 0.06999359 0.420791239 -0.0185815766
v -0.120151125 0.3375185 0.09666157
v -0.142059773 -0.375926167 0.19017458
v -0.271349877 -0.233674169 -0.109557934
v -0.169596642 0.0132867964 0.5149522
v -0.182361037 0.113633431 0.7875242
v -0.249204189 0.2069035 0.5904383
v -0.341119856 0.26953876 0.766884
v -0.126398951 0.25277 0.434671
v -0.312026083 0.138245836 0.4027914
v -0.120151125 0.3375185 0.09666157
v 0.08788389 0.43959263 0.4547069
v 0.12224786 0.4251962 0.21739614
v -0.134390444 0.3495096 0.935647547
v 0.113186948 0.302428871 1.14469087
v -0.09277278 0.275155574 0.9264199
v -0.120151125 0.3375185 0.09666157
v 0.0958123 0.237037078 0.3070113
v 0.08788389 0.43959263 0.4547069
v 0.198523626 0.363315046 0.4344799
v 0.2605215 0.278303146 0.655003846
v -0.277525485 0.111557193 -0.111183345
v 0.06999359 0.420791239 -0.0185815766
v 0.00264917756 0.264098138 -0.190626144
v 0.1980931 0.250073582 0.03503697
v 0.203182638 -0.08977693 0.3851154
v 0.0958123 0.237037078 0.3070113
v 0.1980931 0.250073582 0.03503697
v 0.257229745 0.485376239 0.4112942
v -0.2952776 -0.09601281 0.260558933
v -0.2651261 0.10261856 0.2355668
v -0.1915217 0.238305315 0.202306256
v -0.1915217 0.238305315 0.202306256
v -0.126398951 0.25277 0.434671
v -0.120151125 0.3375185 0.09666157
v -0.2683823 -0.176317781 -0.288523436
v -0.345542 -0.07793549 -0.5190659
v -0.272314131 -0.100949019 0.5902217
v -0.323576182 -0.100677162 0.401583225
v -0.09583216 -0.105890229 0.9802133
v 0.165991351 -0.09653528 1.25073731
v -0.149455234 -0.167108014 0.9923855
v -0.15537037 -0.3077074 0.7900381
v 0.004851164 -0.400221646 0.807840645
v -0.00303289318 -0.336482078 0.5667035
v -0.149455234 -0.167108014 0.9923855
v 0.165991351 -0.09653528 1.25073731
v -0.190750584 -0.105322331 1.06220555
v -0.315310627 -0.31262362 0.378695637
v -0.26222536 -0.369624585 0.5526913
v -0.172185242 -0.203487992 0.503234148
v -0.147989824 -0.03879041 1.0014677
v -0.143845424 -0.423232 0.416687
v -0.272650182 -0.2563226 0.225090265
v -0.247019038 -0.420874923 0.735684156
v -0.327901423 -0.445081949 0.7051096
v -0.10215833 -0.5170178 0.723901153
v -0.10215833 -0.5170178 0.723901153
v -0.350405216 -0.137905762 0.092088975
v -0.014625228 0.158295289 0.584677756
v -0.182361037 0.113633431 0.7875242
v -0.0231946 0.224942222 0.817398667
v -0.0253612269 -0.09104236 0.570026338
v -0.172185242 -0.203487992 0.503234148
v -0.169596642 0.0132867964 0.5149522
v 0.09072417 -0.3041726 0.359709263
v -0.142059773 -0.375926167 0.19017458
v -0.346645266 0.043582093 0.09714251
v -0.410795152 -0.0610953942 -0.123322986
v 0.113186948 0.302428871 1.14469087
v -0.179392636 0.314181536 0.9963282
v -0.15956293 0.2205366 0.960575
v -0.134390444 0.3495096 0.935647547
v -0.12891905 0.3515562 0.745400548
v -0.147989824 -0.03879041 1.0014677
v -0.159119233 -0.219415724 0.788894
v -0.0296861939 -0.09846628 0.839763
v 0.206101954 -0.4417609 1.16555941
v -0.05227436 -0.4361805 0.911652446
v -0.125462532 -0.391029149 0.949212968
v -0.282466084 -0.101220846 0.7856117
v 0.206101954 -0.4417609 1.16555941
v -0.125462532 -0.391029149 0.949212968
v -0.154392213 -0.490861267 0.9891067
v -0.158535644 0.0076795 0.7868407
v -0.09649303 -0.5215997 0.9098919
v -0.09649303 -0.5215997 0.9098919
v -0.15956293 0.2205366 0.960575
v -0.3123724 -0.06172993 -0.301258773
v -0.270893842 0.06303469 -0.289853841
v -0.369657427 -0.0624579452 -0.236549929
v 0.06999359 0.420791239 -0.0185815766
v 0.1980931 0.250073582 0.03503697
v 0.150253877 0.56096977 0.441858977
v 0.2141874 0.4488003 0.6065001
v 0.257229745 0.485376239 0.4112942
v -0.268288434 -0.376223058 -0.179474741
v -0.2683823 -0.176317781 -0.288523436
v -0.253441751 -0.2591039 -0.343310684
v -0.271349877 -0.233674169 -0.109557934
v -0.243088052 -0.487153351 -0.3435852
v -0.2441677 -0.303247839 -0.4656979
v -0.227402523 -0.497056544 -0.559179
v -0.235793665 -0.256400377 -0.584232867
v -0.224951878 -0.358051032 -0.7571615
v -0.270893842 0.06303469 -0.289853841
v -0.269724458 0.258046716 -0.192946419
v -0.254877448 0.140927464 -0.356782436
v -0.277525485 0.111557193 -0.111183345
v -0.2456038 0.185071364 -0.479169667
v -0.244524255 0.36897707 -0.3570566
v -0.237229779 0.138223857 -0.597704
v -0.228838429 0.37888 -0.5726506
v -0.226387933 0.239874691 -0.7706332
v -0.211211756 -0.169969752 -0.846071959
v -0.223173752 -0.167569235 -0.6356305
v -0.2246096 0.0493928045 -0.649101734
v -0.212647319 0.0517932139 -0.8595436
v -0.282466084 -0.101220846 0.7856117
v -0.371391416 -0.101214767 0.762978256
v -0.159119233 -0.219415724 0.788894
v -0.2535916 0.256137818 0.7916803
v -0.247019038 -0.420874923 0.735684156
v -0.143845424 -0.423232 0.416687
v 0.2605215 0.278303146 0.655003846
v -0.12891905 0.3515562 0.745400548
v -0.158535644 0.0076795 0.7868407
v -0.15537037 -0.3077074 0.7900381
v 0.05772334 -0.3265636 -0.5141461
v -0.193412513 -0.3355575 -0.5276323
v 0.166384265 -0.0404559746 -0.502511144
v -0.345542 -0.07793549 -0.5190659
v 0.166384265 -0.0404559746 -0.502511144
v -0.193412513 -0.3355575 -0.5276323
v -0.345542 -0.07793549 -0.5190659
v -0.23299399 0.209265858 -0.5108752
v 0.166384265 -0.0404559746 -0.502511144
v 0.0148913078 0.239173725 -0.498850942
v 0.166384265 -0.0404559746 -0.502511144
v -0.23299399 0.209265858 -0.5108752
v -0.371391416 -0.101214767 0.762978256
v -0.159119233 -0.219415724 0.788894
v -0.327901423 -0.445081949 0.7051096
v -0.10215833 -0.5170178 0.723901153
v -0.2535916 0.256137818 0.7916803
v -0.12891905 0.3515562 0.745400548
v -0.341119856 0.26953876 0.766884
v -0.182361037 0.113633431 0.7875242
v -0.158535644 0.0076795 0.7868407
v -0.15537037 -0.3077074 0.7900381
v 0.196722537 -0.0393124521 -0.528555
v 0.192199022 -0.00342935 -0.1233731
v 0.07979399 -0.356742352 -0.5283633
v 0.0535129681 -0.3426984 -0.129968971
v -0.199769765 -0.4047541 -0.5608271
v 0.162900358 0.189827666 -0.1701102
v 0.0300964378 0.270497531 -0.5185391
v 0.00300475419 0.301847428 -0.2038498
v -0.250450462 0.274333656 -0.5413302
v 0.07669659 0.456959873 -0.03429461
v -0.1448498 0.3689178 0.0986763
v -0.150609091 -0.414628059 0.184782714
v -0.304769963 -0.287353784 -0.06253335
v -0.196830869 0.02195704 0.5429365
v -0.1907832 0.07815354 0.8039633
v -0.287909061 0.215994582 0.586046934
v -0.378164828 0.2798276 0.7779208
v -0.1308478 0.292494923 0.4332085
v -0.351233542 0.145807222 0.400425
v 0.05143445 0.441570848 0.4710631
v 0.123948574 0.4636358 0.206464276
v -0.131986946 0.389424 0.9346163
v 0.14519681 0.3040776 1.168621
v -0.0531074367 0.270448774 0.9242971
v 0.116413981 0.248778924 0.339224637
v 0.2144911 0.327595 0.4427936
v 0.272241741 0.251182616 0.681968868
v -0.314962566 0.161031023 -0.06472546
v 0.2363407 0.258926123 0.0273719355
v 0.238482028 -0.09651406 0.4026814
v 0.292954 0.502123654 0.40471375
v -0.333374858 -0.0968494 0.2727203
v -0.301676035 0.117460072 0.2421873
v -0.217812508 0.267457843 0.209982365
v -0.305563867 -0.190477625 -0.292650342
v -0.377829224 -0.07996918 -0.5425904
v -0.3123102 -0.101276688 0.5897649
v -0.3635494 -0.101975851 0.402256727
v -0.05631401 -0.105169415 0.9740654
v 0.197703868 -0.09584844 1.27510619
v -0.150188982 -0.206307054 1.00031626
v -0.162653118 -0.272173136 0.806898654
v 0.0430073775 -0.3954545 0.8188578
v 0.0365878567 -0.332591236 0.57058394
v -0.220122144 -0.1068619 1.08931541
v -0.354757637 -0.3187057 0.376060933
v -0.301444083 -0.3774914 0.5527566
v -0.196447819 -0.214300334 0.533141
v -0.148647264 0.0004481871 1.00920725
v -0.14938736 -0.461480141 0.40637368
v -0.3081575 -0.2746152 0.227237329
v -0.274749219 -0.434621125 0.7610234
v -0.3649602 -0.4578581 0.713073134
v -0.09432816 -0.5559174 0.7188504
v -0.388036937 -0.149315789 0.0994146
v 0.0207596868 0.160006166 0.6032514
v 0.0142604485 0.220577508 0.8307429
v 0.012757035 -0.09080578 0.5821483
v 0.118579425 -0.329354644 0.3734915
v -0.383137375 0.0573672652 0.105990984
v -0.4504037 -0.0617192239 -0.128870443
v -0.2074287 0.328202039 1.02117586
v -0.169863641 0.188242018 0.9818107
v -0.12202514 0.3906903 0.7408182
v -0.1583034 -0.259130776 0.7935897
v 0.009109955 -0.09700563 0.849392354
v 0.238550425 -0.439941972 1.18887866
v -0.01397191 -0.425141722 0.908325732
v -0.135524377 -0.3574869 0.9685437
v -0.3116995 -0.100421734 0.812902153
v -0.181392908 -0.5068301 1.01392519
v -0.1583104 0.04730629 0.79228735
v -0.08922592 -0.5608204 0.9069041
v -0.350742817 -0.0629361 -0.312495142
v -0.309015542 0.07446552 -0.29386276
v -0.405857921 -0.063356936 -0.253541559
v 0.1413295 0.5998534 0.4447609
v 0.215151981 0.471255183 0.6395886
v -0.312790215 -0.420772076 -0.1422286
v -0.293118358 -0.261499077 -0.347786039
v -0.284167826 -0.5471338 -0.328464985
v -0.284017026 -0.3051118 -0.46862334
v -0.266443253 -0.5582828 -0.57218945
v -0.2757048 -0.256250978 -0.5868933
v -0.263707459 -0.3982681 -0.797003031
v -0.314371 0.3032257 -0.1579305
v -0.2945641 0.143263742 -0.361199647
v -0.2854531 0.1869353 -0.4820951
v -0.285798579 0.429314941 -0.3437611
v -0.2770942 0.137903571 -0.6009793
v -0.268073648 0.440463722 -0.5874858
v -0.265347 0.279874444 -0.8120744
v -0.248000622 -0.1822975 -0.8984727
v -0.2628744 -0.163263246 -0.6379363
v -0.264389038 0.0468788855 -0.65245986
v -0.249706864 0.0649100542 -0.912951648
v -0.410053968 -0.100690812 0.77322197
v -0.2829875 0.265332758 0.8172015
v 0.07979399 -0.356742352 -0.5283633
v -0.199769765 -0.4047541 -0.5608271
v 0.196722537 -0.0393124521 -0.528555
v -0.377829224 -0.07996918 -0.5425904
v 0.196722537 -0.0393124521 -0.528555
v -0.199769765 -0.4047541 -0.5608271
v -0.377829224 -0.07996918 -0.5425904
v -0.250450462 0.274333656 -0.5413302
v 0.196722537 -0.0393124521 -0.528555
v 0.0300964378 0.270497531 -0.5185391
v 0.196722537 -0.0393124521 -0.528555
v -0.250450462 0.274333656 -0.5413302
vt 0.7986454 0.938022852
vt 0.808238447 0.744540334
vt 0.72420156 0.9543969
vt 0.685718536 0.7718149
vt 0.577801168 0.963227451
vt 0.584646 0.772513151
vt 0.505637467 0.974894166
vt 0.850990534 0.7552615
vt 0.8690663 0.9519587
vt 0.230365947 0.773479
vt 0.266481161 0.9575738
vt 0.335508436 0.9682098
vt 0.189379647 0.6745998
vt 0.239332691 0.635080934
vt 0.5780185 0.5571451
vt 0.490520447 0.7846029
vt 0.388607174 0.437147379
vt 0.3620132 0.248714626
vt 0.331181169 0.3992163
vt 0.316436946 0.252906144
vt 0.274624139 0.4405858
vt 0.338650584 0.4940998
vt 0.0369151123 0.9435411
vt 0.0134737669 0.7549432
vt 0.08844367 0.8620664
vt 0.9231987 0.198053718
vt 0.909990668 0.0379145145
vt 0.8952708 0.225651264
vt 0.2264046 0.528507054
vt 0.1761086 0.455947518
vt 0.230438963 0.3462457
vt 0.196054041 0.346681535
vt 0.232599586 0.221153021
vt 0.331727475 0.7832845
vt 0.9586308 0.7035782
vt 0.9043218 0.7739171
vt 0.9335604 0.6621494
vt 0.777025759 0.5378553
vt 0.875300348 0.5367284
vt 0.09577263 0.492997766
vt 0.157868147 0.320757627
vt 0.4430804 0.569316745
vt 0.342917979 0.5685207
vt 0.2623648 0.562511742
vt 0.9312426 0.522975147
vt 0.928058863 0.44530493
vt 0.9361957 0.597364366
vt 0.4719363 0.8844171
vt 0.41769436 0.976981
vt 0.444754869 0.401400566
vt 0.443836421 0.497003317
vt 0.761196136 0.202197015
vt 0.7580751 0.01624757
vt 0.731924951 0.178316414
vt 0.6803505 0.250485063
vt 0.651556969 0.309128046
vt 0.6624586 0.406734824
vt 0.471474558 0.169149339
vt 0.4366495 0.0216180682
vt 0.442957968 0.155512929
vt 0.5351921 0.509095967
vt 0.5463845 0.4170717
vt 0.4914727 0.443694651
vt 0.792100132 0.17815733
vt 0.595907569 0.4538865
vt 0.527988851 0.574524462
vt 0.412271917 0.2693326
vt 0.4122672 0.269313335
vt 0.412250668 0.269362926
vt 0.6081514 0.257675469
vt 0.470954418 0.656324565
vt 0.8665302 0.4019264
vt 0.8477876 0.265365183
vt 0.8809005 0.313788831
vt 0.7678305 0.40500927
vt 0.714040339 0.445940852
vt 0.815674543 0.440798163
vt 0.6854376 0.5444638
vt 0.6260213 0.552950859
vt 0.363174021 0.6541008
vt 0.4135676 0.7923615
vt 0.284977585 0.0364102721
vt 0.30578202 0.166164339
vt 0.342210561 0.179512441
vt 0.278469115 0.179400563
vt 0.9245614 0.2673782
vt 0.410538 0.168218017
vt 0.7268367 0.254456162
vt 0.764513254 0.3036031
vt 0.6391502 0.01918763
vt 0.6406554 0.211521149
vt 0.668788135 0.183404565
vt 0.446921676 0.247382522
vt 0.571294 0.0376178026
vt 0.535331249 0.193232954
vt 0.569166839 0.182277322
vt 0.799203455 0.2572952
vt 0.597792149 0.194486856
vt 0.607098341 0.183847249
vt 0.86024195 0.197327554
vt 0.409134656 0.8947685
vt 0.345054448 0.882805467
vt 0.412970573 0.8487239
vt 0.102058128 0.987119436
vt 0.143936187 0.9229041
vt 0.0748292059 0.7370134
vt 0.06475687 0.6123718
vt 0.1326029 0.741025865
vt 0.110200971 0.056012392
vt 0.0177307352 0.11060673
vt 0.0553543866 0.142649889
vt 0.04252146 0.0159711242
vt 0.16214937 0.143247724
vt 0.07602686 0.207289457
vt 0.1667869 0.2570864
vt 0.05408831 0.2698676
vt 0.101691067 0.3611018
vt 0.0177307352 0.11060673
vt 0.110200971 0.056012392
vt 0.0553543866 0.142649889
vt 0.04252146 0.0159711242
vt 0.07602686 0.207289457
vt 0.16214937 0.143247724
vt 0.05408831 0.2698676
vt 0.1667869 0.2570864
vt 0.101691067 0.3611018
vt 0.01361309 0.4083674
vt 0.0124889985 0.297395945
vt 0.0124889985 0.297395945
vt 0.01361309 0.4083674
vt 0.4123396 0.269329071
vt 0.412340045 0.269308567
vt 0.412313938 0.269355476
vt 0.3162216 0.249200463
vt 0.5600737 0.264328122
vt 0.6109656 0.454972684
vt 0.0478915572 0.482948184
vt 0.2705539 0.2498383
vt 0.400253981 0.24925071
vt 0.522024453 0.257228255
vt 0.772699237 0.7087988
vt 0.773138762 0.715181768
vt 0.778491735 0.7058194
vt 0.779121041 0.7201664
vt 0.778491735 0.7058194
vt 0.773138762 0.715181768
vt 0.779121041 0.7201664
vt 0.784766138 0.715500653
vt 0.778491735 0.7058194
vt 0.784718752 0.7086442
vt 0.778491735 0.7058194
vt 0.784766138 0.715500653
vt 0.4469151 0.254044175
vt 0.480839938 0.247258067
vt 0.559855759 0.27278018
vt 0.5993794 0.265122116
vt 0.4124144 0.269337416
vt 0.412433237 0.26936245
vt 0.41241768 0.26931715
vt 0.412383974 0.269351959
vt 0.4123616 0.2693566
vt 0.4122954 0.269355953
vt 0.449365467 0.823996544
vt 0.480250329 0.6390028
vt 0.176151067 0.823909044
vt 0.188238829 0.642014265
vt 0.134827018 0.83873105
vt 0.646588147 0.6603415
vt 0.7160213 0.8194236
vt 0.743004441 0.675746
vt 0.7193231 0.8298294
vt 0.876510859 0.5983323
vt 0.8007324 0.5376218
vt 0.126328409 0.498308182
vt 0.235874385 0.611225247
vt 0.5021006 0.334786057
vt 0.550469339 0.215609133
vt 0.669110239 0.315103173
vt 0.7240518 0.227499366
vt 0.734954655 0.384884536
vt 0.608699441 0.3998525
vt 0.863265455 0.367601216
vt 0.8822569 0.488409042
vt 0.818382263 0.155956864
vt 0.744923949 0.0491174459
vt 0.715979338 0.160668373
vt 0.697328 0.4277947
vt 0.765165567 0.380508184
vt 0.699396849 0.271308064
vt 0.6218027 0.6122261
vt 0.7060617 0.570177138
vt 0.400131583 0.3988222
vt 0.9153837 0.397894323
vt 0.399842978 0.4581586
vt 0.5843008 0.472099066
vt 0.713405 0.486802816
vt 0.319256425 0.7162897
vt 0.4143719 0.830404758
vt 0.3960324 0.313405633
vt 0.3954306 0.3990162
vt 0.392681867 0.137945652
vt 0.4007045 0.0004994869
vt 0.305631936 0.12596029
vt 0.248940468 0.214268923
vt 0.142831236 0.20880872
vt 0.196938127 0.322163045
vt 0.391225129 0.08532596
vt 0.208889544 0.4109764
vt 0.1582922 0.330302477
vt 0.29875204 0.339258373
vt 0.483587772 0.121900916
vt 0.08600247 0.3971365
vt 0.24683857 0.478924751
vt 0.10912022 0.235214174
vt 0.08912 0.257106841
vt 0.004719585 0.2544691
vt 0.35468477 0.537284732
vt 0.620920539 0.307248056
vt 0.673054755 0.203382373
vt 0.405044764 0.3168831
vt 0.1997239 0.4121495
vt 0.532578468 0.534282148
vt 0.4300798 0.641512752
vt 0.765688062 0.116436481
vt 0.6452234 0.134409428
vt 0.8194722 0.244439244
vt 0.260166138 0.220345378
vt 0.3997085 0.194867611
vt 0.104540527 0.0398683548
vt 0.117279232 0.1679604
vt 0.175510257 0.14046669
vt 0.396768242 0.211527944
vt 0.0469694138 0.119746923
vt 0.523918867 0.22094
vt 0.0004995167 0.1686095
vt 0.429032415 0.725350261
vt 0.547295034 0.716843247
vt 0.4286702 0.6984338
vt 0.999500453 0.379610062
vt 0.888815 0.29065758
vt 0.121040225 0.6476117
vt 0.258127719 0.741463
vt 0.0122796893 0.7326416
vt 0.2205899 0.7966336
vt 0.00268366933 0.8439188
vt 0.2626448 0.850632131
vt 0.140409559 0.9465618
vt 0.7441907 0.6547807
vt 0.6065102 0.7475872
vt 0.644098639 0.802784443
vt 0.8527167 0.739625335
vt 0.6018967 0.857063353
vt 0.862312555 0.8509026
vt 0.7240921 0.953443
vt 0.326297134 0.9928898
vt 0.342680067 0.8739368
vt 0.523551047 0.8805678
vt 0.5390706 0.9995005
vt 0.396536648 0.229644716
vt 0.711576 0.209564984
vt 0.176151067 0.823909044
vt 0.134827018 0.83873105
vt 0.449365467 0.823996544
vt 0.4143719 0.830404758
vt 0.449365467 0.823996544
vt 0.134827018 0.83873105
vt 0.4143719 0.830404758
vt 0.7193231 0.8298294
vt 0.449365467 0.823996544
vt 0.7160213 0.8194236
vt 0.449365467 0.823996544
vt 0.7193231 0.8298294
vn 0.9995109 -0.0203172788 -0.0237733033
vn 0.985655 -0.145503566 -0.0855158642
vn 0.568307936 -0.8194659 0.07417359
vn 0.503611147 -0.8629105 -0.0419670939
vn 0.568307936 -0.8194659 0.07417359
vn 0.503611147 -0.8629105 -0.0419670939
vn -0.481485 -0.872518 0.08297299
vn 0.87082994 0.386989623 -0.30314067
vn 0.416897148 0.8976124 -0.1431389
vn 0.035893485 0.9464359 -0.320890456
vn 0.416897148 0.8976124 -0.1431389
vn -0.650879443 0.757857442 0.04481151
vn 0.167574912 0.904215932 -0.392825872
vn -0.6174672 0.7849823 0.0503683276
vn -0.200033814 -0.9708001 -0.132414758
vn -0.742109239 -0.6651702 -0.08259849
vn -0.680855751 0.216756091 0.6996087
vn -0.2105542 -0.886997342 0.4109777
vn -0.964032 0.240381 -0.113398887
vn -0.9261242 0.257221222 0.275918841
vn -0.111221261 0.9931228 -0.0365632959
vn -0.9938864 0.09213904 -0.06082881
vn -0.6174672 0.7849823 0.0503683276
vn -0.9112359 0.04945541 0.40890488
vn 0.08577043 0.945142031 -0.3151984
vn 0.0588303171 0.997936 -0.025742596
vn 0.800246358 0.04121742 0.5982532
vn 0.9777644 -0.163876727 -0.130847752
vn -0.6174672 0.7849823 0.0503683276
vn 0.5888929 0.127855092 0.798033953
vn -0.9112359 0.04945541 0.40890488
vn 0.405998081 -0.907316864 0.109278075
vn 0.293005347 -0.6780135 0.674125731
vn -0.8121362 0.5764492 -0.09022802
vn 0.167574912 0.904215932 -0.392825872
vn 0.035893485 0.9464359 -0.320890456
vn 0.9561902 0.221313834 -0.191625878
vn 0.8824848 -0.168428153 0.439149767
vn 0.5888929 0.127855092 0.798033953
vn 0.9561902 0.221313834 -0.191625878
vn 0.893106 0.418685734 -0.164511263
vn -0.9524315 -0.02091474 0.304034144
vn -0.9137486 0.371037722 0.165512875
vn -0.6572705 0.72881335 0.191902623
vn -0.6572705 0.72881335 0.191902623
vn -0.111221261 0.9931228 -0.0365632959
vn -0.6174672 0.7849823 0.0503683276
vn -0.9335743 -0.342978448 -0.103945889
vn -0.9904891 -0.08771369 0.106007531
vn -0.999901235 -0.008191659 -0.01142021
vn -0.9988234 -0.0330601223 -0.0354804881
vn 0.966378 -0.0209752433 -0.2562687
vn 0.792812645 0.0171695743 0.609223545
vn -0.04921815 -0.977754056 0.20389846
vn -0.202274635 0.8827457 0.424081445
vn 0.953905344 0.119178593 0.275428832
vn 0.9905186 0.09727135 0.09701085
vn -0.04921815 -0.977754056 0.20389846
vn 0.792812645 0.0171695743 0.609223545
vn -0.7342888 -0.0384894125 0.677745163
vn -0.98986876 -0.115245581 -0.08293582
vn -0.9804682 -0.19667092 0.00163357472
vn -0.6065646 -0.270308554 0.747671545
vn -0.0550048649 0.978426337 0.199139059
vn 0.0382525437 -0.9678356 -0.248658419
vn -0.8876832 -0.457315326 0.05367651
vn -0.481360227 -0.32916078 0.8123703
vn -0.9264692 -0.319403559 0.19908829
vn 0.195754543 -0.9724898 -0.126268819
vn 0.195754543 -0.9724898 -0.126268819
vn -0.936607361 -0.307277083 0.168367162
vn 0.8846229 0.0427719057 0.464341372
vn -0.2105542 -0.886997342 0.4109777
vn 0.9363762 -0.109117925 0.333605945
vn 0.9063942 0.0219239928 0.421863616
vn -0.6065646 -0.270308554 0.747671545
vn -0.680855751 0.216756091 0.6996087
vn 0.6941898 -0.64868176 0.311949641
vn -0.200033814 -0.9708001 -0.132414758
vn -0.8815706 0.430549473 0.193546981
vn -0.9902136 -0.015595695 -0.138686225
vn 0.800246358 0.04121742 0.5982532
vn -0.700901449 0.350512534 0.621190846
vn -0.240316972 -0.8113441 0.532887
vn 0.0588303171 0.997936 -0.025742596
vn 0.172347814 0.978351951 -0.114558525
vn -0.0550048649 0.978426337 0.199139059
vn 0.0203961 -0.992876053 0.11739336
vn 0.9699038 0.0365165658 0.2407346
vn 0.811211944 0.0454727039 0.582981467
vn 0.936254144 0.288738519 -0.200145632
vn -0.2722977 0.8311181 0.484867662
vn -0.5022821 0.0230524465 0.864396453
vn 0.811211944 0.0454727039 0.582981467
vn -0.2722977 0.8311181 0.484867662
vn -0.6750174 -0.399220139 0.6204633
vn 0.005631298 0.990669847 0.136167362
vn 0.163015842 -0.9838188 -0.0743393
vn 0.163015842 -0.9838188 -0.0743393
vn -0.240316972 -0.8113441 0.532887
vn -0.9587633 -0.0162213929 -0.283742517
vn -0.960646152 0.260680854 -0.0959401354
vn -0.9050124 -0.022474777 -0.424790949
vn 0.167574912 0.904215932 -0.392825872
vn 0.9561902 0.221313834 -0.191625878
vn -0.223109588 0.97209 0.07254755
vn 0.08698925 0.5090749 0.856315136
vn 0.893106 0.418685734 -0.164511263
vn -0.9952329 -0.0390111 -0.0893845856
vn -0.9335743 -0.342978448 -0.103945889
vn -0.991847336 -0.06015053 -0.112342246
vn -0.742109239 -0.6651702 -0.08259849
vn -0.995043159 -0.04794936 -0.08712054
vn -0.996232748 -0.0465988927 -0.0731358156
vn -0.996926546 -0.0458441153 -0.06352783
vn -0.997778654 0.00373486429 -0.06651206
vn -0.997957468 0.00217325916 -0.0638445839
vn -0.960646152 0.260680854 -0.0959401354
vn -0.994137168 0.045011 -0.09831208
vn -0.9921662 0.0584069453 -0.110430032
vn -0.8121362 0.5764492 -0.09022802
vn -0.9962328 0.0465985574 -0.0731355846
vn -0.995043159 0.04794827 -0.08712075
vn -0.99660933 -0.008017681 -0.08188722
vn -0.9969265 0.0458447225 -0.06352841
vn -0.998154461 -0.01482854 -0.0588881448
vn -0.995632 0.0553180352 -0.0752117
vn -0.9925163 0.1076498 -0.057644967
vn -0.994485855 -0.06284798 -0.08395252
vn -0.9973102 -0.0458141752 -0.0572133139
vn -0.5022821 0.0230524465 0.864396453
vn -0.966563463 0.0130988639 0.256092727
vn 0.0203961 -0.992876053 0.11739336
vn -0.5721348 0.237344787 0.785066366
vn -0.481360227 -0.32916078 0.8123703
vn 0.0382525437 -0.9678356 -0.248658419
vn 0.293005347 -0.6780135 0.674125731
vn 0.172347814 0.978351951 -0.114558525
vn 0.005631298 0.990669847 0.136167362
vn -0.202274635 0.8827457 0.424081445
vn 0.05287959 0.0205176976 -0.9983901
vn 0.05287959 0.0205176976 -0.9983901
vn 0.05287959 0.0205176976 -0.9983901
vn 0.0286167469 0.0500949547 -0.9983344
vn 0.0286167469 0.0500949547 -0.9983344
vn 0.0286167469 0.0500949547 -0.9983344
vn 0.0311245434 0.0163043384 -0.9993825
vn 0.0311245434 0.0163043384 -0.9993825
vn 0.0311245434 0.0163043384 -0.9993825
vn 0.0439763 0.0368926 -0.998351157
vn 0.0439763 0.0368926 -0.998351157
vn 0.0439763 0.0368926 -0.998351157
vn -0.966563463 0.0130988639 0.256092727
vn 0.0203961 -0.992876053 0.11739336
vn -0.9264692 -0.319403559 0.19908829
vn 0.195754543 -0.9724898 -0.126268819
vn -0.5721348 0.237344787 0.785066366
vn 0.172347814 0.978351951 -0.114558525
vn -0.9261242 0.257221222 0.275918841
vn -0.2105542 -0.886997342 0.4109777
vn 0.005631298 0.990669847 0.136167362
vn -0.202274635 0.8827457 0.424081445
vn 0.99855715 -0.008986105 -0.0529426374
vn 0.983958662 -0.154276639 -0.08957735
vn 0.6208233 -0.7817557 0.0586212426
vn 0.53224653 -0.8463542 -0.0199567433
vn -0.437749863 -0.8962931 0.07094878
vn 0.864844263 0.396680027 -0.307716429
vn 0.474287719 0.8678619 -0.147874236
vn 0.0596777163 0.9505361 -0.304827422
vn -0.606861651 0.794368565 0.0264104921
vn 0.169881269 0.9031572 -0.394268245
vn -0.593132734 0.8035679 0.04972107
vn -0.17970714 -0.9764677 -0.119231492
vn -0.7619057 -0.644873142 -0.06031783
vn -0.8191016 0.197418526 0.538607955
vn -0.2000313 -0.9034367 0.379195929
vn -0.966527045 0.238099888 -0.0955712944
vn -0.930912852 0.25503844 0.261450976
vn -0.08800786 0.9938731 -0.06686391
vn -0.9961844 0.04374998 -0.07551519
vn -0.9060832 0.0460284352 0.4205884
vn 0.07853158 0.9536775 -0.29039976
vn 0.0419540256 0.9983741 0.0385879837
vn 0.806127965 0.0348885842 0.5907119
vn 0.9898971 -0.1374715 -0.03471844
vn 0.582585335 -0.0154301748 0.8126231
vn 0.393771827 -0.913376868 0.103375308
vn 0.291802675 -0.6936874 0.658520341
vn -0.832187533 0.5505693 -0.06585904
vn 0.9515777 0.2353271 -0.197790325
vn 0.8765726 -0.171848714 0.449542463
vn 0.8927212 0.4331593 -0.124185063
vn -0.9537778 -0.0251291934 0.2994602
vn -0.909020543 0.373525321 0.18482542
vn -0.6349704 0.7365647 0.232991412
vn -0.9339877 -0.336322248 -0.120641246
vn -0.993870258 -0.08386852 0.0720277
vn -0.999793649 -0.0119485017 -0.0164272282
vn -0.9972968 -0.04034798 -0.0614093579
vn 0.9854329 -0.0157549921 -0.169333085
vn 0.7961436 0.01711719 0.6048656
vn -0.0589023866 -0.96545434 0.253827631
vn -0.193511009 0.900845647 0.388626635
vn 0.948775351 0.108758353 0.296642721
vn 0.979927957 0.197036043 0.0302989967
vn -0.7266003 -0.0346900634 0.6861841
vn -0.9953884 -0.044253055 -0.08510928
vn -0.9848439 -0.173436046 0.00156646431
vn -0.797013 -0.217794374 0.563325763
vn -0.065139316 0.9649044 0.254394025
vn 0.02631815 -0.968036234 -0.249425739
vn -0.88471967 -0.46098426 0.06902601
vn -0.6199633 -0.278553069 0.733521461
vn -0.929316759 -0.3212248 0.1821674
vn 0.203436986 -0.970198154 -0.131639242
vn -0.9433464 -0.274217129 0.186822385
vn 0.8783745 0.0106689977 0.4778539
vn 0.9295608 -0.11489924 0.3503069
vn 0.912350059 0.04351975 0.407091439
vn 0.6729963 -0.6604337 0.333021551
vn -0.902393758 0.371516764 0.218313619
vn -0.989782631 -0.01316938 -0.141975075
vn -0.689542532 0.350357741 0.6338616
vn -0.239021122 -0.7797757 0.5786353
vn 0.1752657 0.97697854 -0.121634029
vn 0.0251728743 -0.9961484 0.08399211
vn 0.9664815 0.0352047235 0.254311174
vn 0.8146002 0.0474985 0.5780747
vn 0.955840349 0.2757685 -0.101592451
vn -0.2765287 0.800060868 0.5323857
vn -0.6271881 0.0219721869 0.778557837
vn -0.666902 -0.397351056 0.6303601
vn 0.0112793529 0.9946047 0.103122324
vn 0.1547152 -0.987797737 -0.01785763
vn -0.9532352 -0.01672885 -0.301766068
vn -0.9587618 0.260274649 -0.114161529
vn -0.893609762 -0.02209353 -0.44830063
vn -0.228559181 0.9713789 0.0646812841
vn 0.0907553062 0.488204777 0.867997468
vn -0.9977581 -0.00691518746 -0.06656583
vn -0.9926923 -0.04773449 -0.110830851
vn -0.9950567 -0.0391569845 -0.09126312
vn -0.9966583 -0.03627279 -0.07318776
vn -0.9975279 -0.0363940448 -0.0601127259
vn -0.9977638 0.0107426411 -0.06596953
vn -0.9982165 0.003812197 -0.0595752671
vn -0.9959744 0.0219477825 -0.0869096
vn -0.9925948 0.04728227 -0.111892805
vn -0.9967059 0.035075888 -0.07312381
vn -0.9950736 0.0378089473 -0.09164613
vn -0.9966089 -0.0151152723 -0.0808839649
vn -0.997590959 0.0351749547 -0.0597909
vn -0.998385549 -0.0144966338 -0.0549197644
vn -0.995741963 0.05182846 -0.0762352
vn -0.992738366 0.101785839 -0.06411073
vn -0.9943091 -0.06296036 -0.08593808
vn -0.9972375 -0.0447262861 -0.0593035221
vn -0.97138536 0.01242114 0.237183809
vn -0.65497607 0.2382652 0.7171025
vn 0.12300197 -0.04590768 -0.991344035
vn 0.12300197 -0.04590768 -0.991344035
vn 0.12300197 -0.04590768 -0.991344035
vn 0.0196434371 0.06678314 -0.997574151
vn 0.0196434371 0.06678314 -0.997574151
vn 0.0196434371 0.06678314 -0.997574151
vn 0.0247998964 -0.005360455 -0.9996781
vn 0.0247998964 -0.005360455 -0.9996781
vn 0.0247998964 -0.005360455 -0.9996781
vn 0.08177047 0.07610572 -0.993741155
vn 0.08177047 0.07610572 -0.993741155
vn 0.08177047 0.07610572 -0.993741155
usemtl 01010064_part_0_material_0
f 1/1/1 2/2/2 3/3/3
f 4/4/4 3/3/3 2/2/2
f 5/5/5 6/6/6 7/7/7
f 8/8/8 1/1/1 9/9/9
f 1/1/1 8/8/8 2/2/2
f 10/10/10 11/11/11 12/12/12
f 13/13/13 10/10/10 14/14/14
f 6/6/6 15/15/15 16/16/16
f 17/17/17 18/18/18 19/19/19
f 20/20/20 19/19/19 18/18/18
f 19/19/19 21/21/21 22/22/22
f 23/23/23 24/24/24 25/25/25
f 26/26/26 27/27/27 28/28/28
f 29/29/29 30/30/30 31/31/31
f 32/32/32 31/31/31 30/30/30
f 33/33/33 31/31/31 32/32/32
f 34/34/34 14/14/14 10/10/10
f 35/35/35 8/8/8 36/36/36
f 2/2/2 8/8/8 37/37/37
f 2/2/2 37/37/37 38/38/38
f 39/39/39 38/38/38 37/37/37
f 30/30/30 40/40/40 32/32/32
f 41/41/41 32/32/32 40/40/40
f 42/42/42 17/17/17 43/43/43
f 21/21/21 44/44/44 43/43/43
f 39/39/39 45/45/45 46/46/46
f 43/43/43 17/17/17 22/22/22
f 44/44/44 34/34/34 43/43/43
f 47/47/47 45/45/45 39/39/39
f 16/16/16 48/48/48 7/7/7
f 49/49/49 7/7/7 48/48/48
f 10/10/10 12/12/12 34/34/34
f 50/50/50 17/17/17 51/51/51
f 52/52/52 53/53/53 54/54/54
f 55/55/55 56/56/56 57/57/57
f 58/58/58 59/59/59 60/60/60
f 61/61/61 62/62/62 63/63/63
f 64/64/64 53/53/53 52/52/52
f 15/15/15 65/65/65 66/66/66
f 67/67/67 68/68/68 69/69/69
f 56/56/56 70/70/70 57/57/57
f 66/66/66 63/63/63 42/42/42
f 51/51/51 42/42/42 63/63/63
f 61/61/61 63/63/63 66/66/66
f 61/61/61 66/66/66 65/65/65
f 16/16/16 15/15/15 66/66/66
f 71/71/71 16/16/16 66/66/66
f 6/6/6 16/16/16 7/7/7
f 38/38/38 39/39/39 72/72/72
f 73/73/73 72/72/72 74/74/74
f 75/75/75 76/76/76 38/38/38
f 75/75/75 38/38/38 77/77/77
f 78/78/78 57/57/57 79/79/79
f 38/38/38 76/76/76 78/78/78
f 57/57/57 78/78/78 76/76/76
f 22/22/22 21/21/21 43/43/43
f 80/80/80 34/34/34 81/81/81
f 82/82/82 83/83/83 84/84/84
f 82/82/82 85/85/85 83/83/83
f 74/74/74 72/72/72 86/86/86
f 59/59/59 87/87/87 60/60/60
f 88/88/88 75/75/75 89/89/89
f 90/90/90 91/91/91 92/92/92
f 60/60/60 93/93/93 58/58/58
f 94/94/94 95/95/95 96/96/96
f 89/89/89 75/75/75 97/97/97
f 94/94/94 96/96/96 98/98/98
f 90/90/90 99/99/99 91/91/91
f 27/27/27 100/100/100 28/28/28
f 51/51/51 17/17/17 42/42/42
f 49/49/49 48/48/48 101/101/101
f 49/49/49 101/101/101 102/102/102
f 102/102/102 101/101/101 103/103/103
f 103/103/103 101/101/101 48/48/48
f 48/48/48 16/16/16 103/103/103
f 34/34/34 12/12/12 102/102/102
f 49/49/49 102/102/102 12/12/12
f 34/34/34 80/80/80 43/43/43
f 42/42/42 43/43/43 80/80/80
f 104/104/104 25/25/25 105/105/105
f 106/106/106 24/24/24 107/107/107
f 108/108/108 106/106/106 107/107/107
f 41/41/41 33/33/33 32/32/32
f 78/78/78 79/79/79 4/4/4
f 2/2/2 38/38/38 4/4/4
f 78/78/78 4/4/4 38/38/38
f 42/42/42 80/80/80 71/71/71
f 71/71/71 66/66/66 42/42/42
f 71/71/71 80/80/80 81/81/81
f 109/109/109 110/110/110 111/111/111
f 110/110/110 109/109/109 112/112/112
f 113/113/113 111/111/111 114/114/114
f 115/115/115 116/116/116 117/117/117
f 116/116/116 115/115/115 114/114/114
f 113/113/113 114/114/114 115/115/115
f 109/109/109 111/111/111 113/113/113
f 118/118/118 119/119/119 120/120/120
f 119/119/119 118/118/118 121/121/121
f 122/122/122 120/120/120 123/123/123
f 124/124/124 125/125/125 126/126/126
f 125/125/125 124/124/124 122/122/122
f 125/125/125 122/122/122 123/123/123
f 123/123/123 120/120/120 119/119/119
f 117/117/117 116/116/116 127/127/127
f 128/128/128 127/127/127 116/116/116
f 124/124/124 126/126/126 129/129/129
f 130/130/130 129/129/129 126/126/126
f 131/131/131 132/132/132 133/133/133
f 83/83/83 85/85/85 134/134/134
f 83/83/83 134/134/134 84/84/84
f 60/60/60 87/87/87 93/93/93
f 96/96/96 95/95/95 135/135/135
f 96/96/96 135/135/135 98/98/98
f 136/136/136 79/79/79 57/57/57
f 137/137/137 108/108/108 107/107/107
f 137/137/137 107/107/107 24/24/24
f 44/44/44 14/14/14 34/34/34
f 20/20/20 138/138/138 19/19/19
f 21/21/21 19/19/19 138/138/138
f 22/22/22 17/17/17 19/19/19
f 139/139/139 93/93/93 87/87/87
f 51/51/51 63/63/63 50/50/50
f 140/140/140 135/135/135 95/95/95
f 61/61/61 65/65/65 62/62/62
f 104/104/104 23/23/23 25/25/25
f 106/106/106 25/25/25 24/24/24
f 106/106/106 108/108/108 25/25/25
f 105/105/105 25/25/25 108/108/108
f 141/141/141 142/142/142 143/143/143
f 144/144/144 145/145/145 146/146/146
f 147/147/147 148/148/148 149/149/149
f 150/150/150 151/151/151 152/152/152
f 85/85/85 138/138/138 134/134/134
f 84/84/84 134/134/134 18/18/18
f 153/153/153 139/139/139 50/50/50
f 17/17/17 50/50/50 139/139/139
f 58/58/58 93/93/93 154/154/154
f 155/155/155 140/140/140 62/62/62
f 63/63/63 62/62/62 140/140/140
f 98/98/98 135/135/135 156/156/156
f 136/136/136 57/57/57 70/70/70
f 99/99/99 70/70/70 91/91/91
f 92/92/92 91/91/91 55/55/55
f 76/76/76 55/55/55 57/57/57
f 76/76/76 75/75/75 88/88/88
f 54/54/54 88/88/88 52/52/52
f 64/64/64 52/52/52 97/97/97
f 77/77/77 97/97/97 75/75/75
f 77/77/77 72/72/72 73/73/73
f 100/100/100 73/73/73 28/28/28
f 26/26/26 28/28/28 86/86/86
f 46/46/46 86/86/86 72/72/72
f 91/91/91 70/70/70 56/56/56
f 91/91/91 56/56/56 55/55/55
f 52/52/52 88/88/88 89/89/89
f 52/52/52 89/89/89 97/97/97
f 28/28/28 73/73/73 74/74/74
f 28/28/28 74/74/74 86/86/86
f 72/72/72 39/39/39 46/46/46
f 157/157/157 158/158/158 159/159/159
f 157/157/157 159/159/159 160/160/160
f 131/131/131 161/161/161 132/132/132
f 153/153/153 50/50/50 154/154/154
f 63/63/63 154/154/154 50/50/50
f 67/67/67 162/162/162 68/68/68
f 155/155/155 62/62/62 156/156/156
f 65/65/65 156/156/156 62/62/62
f 77/77/77 38/38/38 72/72/72
f 71/71/71 81/81/81 16/16/16
f 103/103/103 81/81/81 34/34/34
f 102/102/102 103/103/103 34/34/34
f 81/81/81 103/103/103 16/16/16
f 8/8/8 35/35/35 37/37/37
f 36/36/36 8/8/8 9/9/9
usemtl 01010064_part_0_material_1
f 163/163/163 164/164/164 165/165/165
f 166/166/166 165/165/165 164/164/164
f 165/165/165 166/166/166 167/167/167
f 168/168/168 163/163/163 169/169/169
f 163/163/163 168/168/168 164/164/164
f 170/170/170 169/169/169 171/171/171
f 172/172/172 170/170/170 173/173/173
f 166/166/166 174/174/174 175/175/175
f 176/176/176 177/177/177 178/178/178
f 179/179/179 178/178/178 177/177/177
f 178/178/178 180/180/180 181/181/181
f 173/173/173 182/182/182 183/183/183
f 184/184/184 185/185/185 186/186/186
f 173/173/173 187/187/187 182/182/182
f 188/188/188 182/182/182 187/187/187
f 189/189/189 182/182/182 188/188/188
f 190/190/190 173/173/173 170/170/170
f 172/172/172 168/168/168 170/170/170
f 164/164/164 168/168/168 191/191/191
f 164/164/164 191/191/191 192/192/192
f 187/187/187 192/192/192 191/191/191
f 187/187/187 191/191/191 188/188/188
f 193/193/193 188/188/188 191/191/191
f 194/194/194 176/176/176 195/195/195
f 180/180/180 196/196/196 195/195/195
f 187/187/187 196/196/196 180/180/180
f 195/195/195 176/176/176 181/181/181
f 196/196/196 190/190/190 195/195/195
f 173/173/173 196/196/196 187/187/187
f 175/175/175 197/197/197 167/167/167
f 198/198/198 167/167/167 197/197/197
f 170/170/170 171/171/171 190/190/190
f 199/199/199 176/176/176 200/200/200
f 201/201/201 202/202/202 203/203/203
f 204/204/204 205/205/205 206/206/206
f 203/203/203 202/202/202 207/207/207
f 208/208/208 209/209/209 210/210/210
f 211/211/211 202/202/202 201/201/201
f 174/174/174 212/212/212 213/213/213
f 214/214/214 215/215/215 216/216/216
f 205/205/205 216/216/216 206/206/206
f 213/213/213 210/210/210 194/194/194
f 200/200/200 194/194/194 210/210/210
f 208/208/208 210/210/210 213/213/213
f 208/208/208 213/213/213 212/212/212
f 175/175/175 174/174/174 213/213/213
f 217/217/217 175/175/175 213/213/213
f 166/166/166 175/175/175 167/167/167
f 192/192/192 187/187/187 218/218/218
f 177/177/177 218/218/218 219/219/219
f 220/220/220 210/210/210 192/192/192
f 220/220/220 192/192/192 176/176/176
f 221/221/221 206/206/206 174/174/174
f 192/192/192 210/210/210 221/221/221
f 206/206/206 221/221/221 210/210/210
f 181/181/181 180/180/180 195/195/195
f 222/222/222 190/190/190 223/223/223
f 185/185/185 224/224/224 225/225/225
f 185/185/185 184/184/184 224/224/224
f 219/219/219 218/218/218 226/226/226
f 202/202/202 211/211/211 207/207/207
f 227/227/227 220/220/220 228/228/228
f 229/229/229 230/230/230 231/231/231
f 207/207/207 232/232/232 203/203/203
f 229/229/229 231/231/231 233/233/233
f 228/228/228 220/220/220 234/234/234
f 229/229/229 233/233/233 235/235/235
f 229/229/229 235/235/235 230/230/230
f 185/185/185 225/225/225 186/186/186
f 200/200/200 176/176/176 194/194/194
f 198/198/198 197/197/197 236/236/236
f 198/198/198 236/236/236 237/237/237
f 237/237/237 236/236/236 238/238/238
f 238/238/238 236/236/236 197/197/197
f 197/197/197 175/175/175 238/238/238
f 190/190/190 171/171/171 237/237/237
f 198/198/198 237/237/237 171/171/171
f 190/190/190 222/222/222 195/195/195
f 194/194/194 195/195/195 222/222/222
f 172/172/172 183/183/183 191/191/191
f 239/239/239 182/182/182 240/240/240
f 193/193/193 239/239/239 240/240/240
f 193/193/193 189/189/189 188/188/188
f 221/221/221 174/174/174 166/166/166
f 164/164/164 192/192/192 166/166/166
f 221/221/221 166/166/166 192/192/192
f 194/194/194 222/222/222 217/217/217
f 217/217/217 213/213/213 194/194/194
f 217/217/217 222/222/222 223/223/223
f 241/241/241 197/197/197 242/242/242
f 197/197/197 241/241/241 175/175/175
f 243/243/243 242/242/242 244/244/244
f 245/245/245 246/246/246 247/247/247
f 246/246/246 245/245/245 244/244/244
f 243/243/243 244/244/244 245/245/245
f 241/241/241 242/242/242 243/243/243
f 237/237/237 248/248/248 249/249/249
f 248/248/248 237/237/237 190/190/190
f 250/250/250 249/249/249 251/251/251
f 252/252/252 253/253/253 254/254/254
f 253/253/253 252/252/252 250/250/250
f 253/253/253 250/250/250 251/251/251
f 251/251/251 249/249/249 248/248/248
f 247/247/247 246/246/246 255/255/255
f 256/256/256 255/255/255 246/246/246
f 252/252/252 254/254/254 257/257/257
f 258/258/258 257/257/257 254/254/254
f 232/232/232 259/259/259 227/227/227
f 224/224/224 184/184/184 260/260/260
f 224/224/224 260/260/260 225/225/225
f 207/207/207 211/211/211 232/232/232
f 233/233/233 231/231/231 214/214/214
f 233/233/233 214/214/214 235/235/235
f 212/212/212 174/174/174 206/206/206
f 189/189/189 193/193/193 240/240/240
f 189/189/189 240/240/240 182/182/182
f 196/196/196 173/173/173 190/190/190
f 179/179/179 226/226/226 178/178/178
f 180/180/180 178/178/178 226/226/226
f 181/181/181 176/176/176 178/178/178
f 234/234/234 232/232/232 211/211/211
f 200/200/200 210/210/210 199/199/199
f 204/204/204 214/214/214 231/231/231
f 208/208/208 212/212/212 209/209/209
f 172/172/172 173/173/173 183/183/183
f 239/239/239 183/183/183 182/182/182
f 239/239/239 193/193/193 183/183/183
f 191/191/191 183/183/183 193/193/193
f 261/261/261 262/262/262 263/263/263
f 264/264/264 265/265/265 266/266/266
f 267/267/267 268/268/268 269/269/269
f 270/270/270 271/271/271 272/272/272
f 184/184/184 226/226/226 260/260/260
f 225/225/225 260/260/260 177/177/177
f 259/259/259 234/234/234 199/199/199
f 176/176/176 199/199/199 234/234/234
f 203/203/203 232/232/232 227/227/227
f 215/215/215 204/204/204 209/209/209
f 210/210/210 209/209/209 204/204/204
f 235/235/235 214/214/214 216/216/216
f 212/212/212 206/206/206 216/216/216
f 235/235/235 216/216/216 230/230/230
f 231/231/231 230/230/230 204/204/204
f 210/210/210 204/204/204 206/206/206
f 210/210/210 220/220/220 227/227/227
f 203/203/203 227/227/227 201/201/201
f 211/211/211 201/201/201 234/234/234
f 176/176/176 234/234/234 220/220/220
f 176/176/176 218/218/218 177/177/177
f 225/225/225 177/177/177 186/186/186
f 184/184/184 186/186/186 226/226/226
f 180/180/180 226/226/226 218/218/218
f 230/230/230 216/216/216 205/205/205
f 230/230/230 205/205/205 204/204/204
f 201/201/201 227/227/227 228/228/228
f 201/201/201 228/228/228 234/234/234
f 186/186/186 177/177/177 219/219/219
f 186/186/186 219/219/219 226/226/226
f 218/218/218 187/187/187 180/180/180
f 260/260/260 226/226/226 179/179/179
f 260/260/260 179/179/179 177/177/177
f 232/232/232 234/234/234 259/259/259
f 259/259/259 199/199/199 227/227/227
f 210/210/210 227/227/227 199/199/199
f 214/214/214 204/204/204 215/215/215
f 215/215/215 209/209/209 216/216/216
f 212/212/212 216/216/216 209/209/209
f 176/176/176 192/192/192 218/218/218
f 217/217/217 223/223/223 175/175/175
f 238/238/238 223/223/223 190/190/190
f 237/237/237 238/238/238 190/190/190
f 223/223/223 238/238/238 175/175/175
f 168/168/168 172/172/172 191/191/191
f 170/170/170 168/168/168 169/169/169
