mtllib 01010039.mtl
o 01010039_part_0
v 0.1918087 0.204149738 0.7387915
v 0.143655956 0.160026267 0.800328
v 0.307662785 -0.0347525962 0.7098263
v 0.196940422 0.222029656 0.6565877
v -0.0703917742 0.282649368 0.6637921
v -0.06850188 0.263177335 0.745806634
v -0.284770459 0.112894468 0.643029332
v -0.277249843 0.09788112 0.725589156
v -0.284764171 -0.15940623 0.6099342
v -0.277243674 -0.167267516 0.693363249
v -0.07037759 -0.3292047 0.5894279
v -0.068488054 -0.332606167 0.6733957
v 0.196951792 -0.2686392 0.5969523
v 0.1918198 -0.2736314 0.680722356
v 0.315919518 -0.02331687 0.6268412
v 0.09549392 0.08678257 0.849127
v 0.230422482 -0.0471726321 0.799963653
v -0.0512687862 0.204226986 0.805581152
v -0.20756945 0.0521455556 0.8117671
v -0.207564816 -0.146401882 0.787635863
v -0.0512425825 -0.289568722 0.7747664
v 0.14367269 -0.243425772 0.7658716
v 0.0546636 0.0471555665 0.9013924
v 0.1451724 -0.0545654371 0.8536217
v -0.029319955 0.112088993 0.8521265
v -0.1382337 0.00229794765 0.8603598
v -0.138231084 -0.111371279 0.8465445
v -0.0293017235 -0.2028357 0.8354945
v 0.08976968 -0.174722165 0.8389841
v 0.0847507343 -0.05825034 0.901253
v -0.014613892 0.0598094948 0.90288806
v -0.0786267743 -0.0004417962 0.895526
v -0.07861781 -0.111473054 0.8946845
v -0.0146023445 -0.1626638 0.888502
v 0.0486721471 -0.1523382 0.8897956
v 0.0206630863 -0.0609210879 0.962533
v 0.033083573 -0.113623776 0.9624617
v -0.00723571563 -0.05459481 0.9632848
v -0.0296082888 -0.07231044 0.961118042
v -0.0296038073 -0.127826065 0.960697234
v -0.00723041128 -0.145546228 0.9585573
v 0.0206680968 -0.139225617 0.9593426
v 0.1839316 0.2104101 0.6215406
v 0.295064658 -0.0187570788 0.5937557
v -0.000108580905 -0.0130792707 0.5525953
v 0.183942229 -0.247901723 0.5658379
v -0.06575829 -0.3044732 0.5588097
v -0.266007274 -0.145872071 0.57796365
v -0.266013145 0.108471848 0.6088763
v -0.0657715648 0.267032325 0.62827003
v 0.295064658 -0.0187570788 0.5937557
v 0.1839316 0.2104101 0.6215406
v -0.0657715648 0.267032325 0.62827003
v -0.266013145 0.108471848 0.6088763
v -0.266007274 -0.145872071 0.57796365
v -0.06575829 -0.3044732 0.5588097
v 0.183942229 -0.247901723 0.5658379
v 0.0001558299 -0.103717767 1.06109011
v 0.00454038335 -0.0572886765 0.6112484
v 0.00508183427 -0.018638853 0.355972528
v 0.0218327641 0.0042236 0.358951271
v 0.02024829 -0.0358197279 0.6138673
v -0.0208765343 -0.0490850769 0.612229943
v -0.02202175 -0.009906172 0.357110322
v -0.02087715 -0.0225460213 0.6154555
v -0.0220217481 0.0183533709 0.360792249
v -0.02202175 -0.009906172 0.357110322
v -0.0208765343 -0.0490850769 0.612229943
v 0.004539394 -0.0143475831 0.6164675
v 0.005081836 0.02708605 0.36193
v -0.0434111021 -0.0273511913 -0.08697943
v -0.0434111 0.0317283571 -0.07928198
v 0.0132518038 0.0499849431 -0.0769033358
v 0.0132517945 -0.04560777 -0.08935808
v 0.0482713878 0.00218858151 -0.0831307
v 0.0132517945 -0.04560777 -0.08935808
v 0.0482713878 0.00218858151 -0.0831307
v -0.0434111021 -0.0273511913 -0.08697943
v -0.0434111 0.0317283571 -0.07928198
v -0.0434111021 -0.0273511913 -0.08697943
v 0.0132518038 0.0499849431 -0.0769033358
v 0.215167612 0.230613232 0.757607639
v 0.160938159 0.177007839 0.8321549
v 0.34487012 -0.0364386924 0.724413
v 0.221358508 0.253423572 0.652324
v -0.0791071355 0.32155323 0.6605468
v -0.07668461 0.297431469 0.764772356
v 0.215167612 0.230613232 0.757607639
v -0.32003358 0.1307761 0.636966348
v -0.310521245 0.112356059 0.742426336
v -0.319975734 -0.175157413 0.599348962
v -0.311206251 -0.1844935 0.705602944
v -0.0790653154 -0.3658758 0.576020658
v -0.07720335 -0.3709489 0.680735767
v 0.221305609 -0.2978425 0.5845403
v 0.215402886 -0.304364055 0.690689445
v 0.355024844 -0.02226048 0.618495047
v 0.111810334 0.102903135 0.881897449
v 0.257196963 -0.0509937741 0.8294344
v -0.0548242778 0.22789599 0.837630153
v 0.160938159 0.177007839 0.8321549
v -0.230792418 0.0618438236 0.8428579
v -0.232823342 -0.1595966 0.815705538
v -0.0583361574 -0.320046544 0.7996819
v 0.160262 -0.2700163 0.790725946
v 0.071450755 0.06404546 0.9335315
v 0.168586344 -0.0587240867 0.8857852
v -0.03288141 0.133736491 0.8855735
v 0.111810334 0.102903135 0.881897449
v -0.157895684 0.009560912 0.8944282
v -0.160652325 -0.12335334 0.8774268
v -0.0369573161 -0.228696555 0.865034461
v 0.105404019 -0.197281539 0.8680812
v 0.112644635 -0.060786318 0.9298099
v -0.0202797428 0.0831426 0.934879661
v 0.071450755 0.06404546 0.9335315
v -0.10022106 0.0107150609 0.9272941
v -0.106506042 -0.124106504 0.9204263
v -0.0243473928 -0.196763039 0.9070027
v 0.06760286 -0.180676311 0.9107379
v 0.04321418 -0.0427603275 0.9901307
v 0.0682590753 -0.121143967 0.9799583
v -0.01529024 -0.02842217 0.992441535
v -0.06000919 -0.0611032881 0.9845741
v -0.060826838 -0.147273272 0.976411164
v -0.0152210649 -0.1826241 0.9712609
v 0.04128811 -0.170483291 0.9734058
v 0.198144853 0.2319791 0.5909995
v 0.319068223 -0.0149481753 0.5619859
v -8.53177844E-05 -0.008239173 0.512889266
v 0.1976056 -0.262521565 0.5312031
v -0.07179673 -0.322680652 0.5237095
v -0.287315875 -0.151141793 0.54452455
v -0.2867094 0.123285793 0.578018367
v -0.07006226 0.2939178 0.5989654
v 0.319068223 -0.0149481753 0.5619859
v 0.198144853 0.2319791 0.5909995
v 0.221358508 0.253423572 0.652324
v 0.000274920225 -0.105011553 1.101069
vt 0.67772305 0.437716842
vt 0.643501639 0.4834411
vt 0.43168813 0.340827942
vt 0.7106842 0.3757388
vt 0.783827662 0.6791856
vt 0.7312315 0.6677183
vt 0.5841752 0.906784534
vt 0.5668146 0.8572973
vt 0.271790773 0.9052454
vt 0.316863984 0.860085
vt 0.07673212 0.65933454
vt 0.164476886 0.6682158
vt 0.133537248 0.389210284
vt 0.201075226 0.443206668
vt 0.426219076 0.258644223
vt 0.5881267 0.530048847
vt 0.436666936 0.419595778
vt 0.681159735 0.6570693
vt 0.5375643 0.7930281
vt 0.3626915 0.804436564
vt 0.2266346 0.657271266
vt 0.264299065 0.485807538
vt 0.5440545 0.5827894
vt 0.441326618 0.4939685
vt 0.623238862 0.6512078
vt 0.5208216 0.757155538
vt 0.392025024 0.7682594
vt 0.292277068 0.666643858
vt 0.3174401 0.5512582
vt 0.430697054 0.5691055
vt 0.5598076 0.6489463
vt 0.511129439 0.718565345
vt 0.3966036 0.726331949
vt 0.340666831 0.666528463
vt 0.3492047 0.6053679
vt 0.48630023 0.6378497
vt 0.431536943 0.629705548
vt 0.493933231 0.6644506
vt 0.476179451 0.686548948
vt 0.418916583 0.6904321
vt 0.3995458 0.669525146
vt 0.4051624 0.6424992
vt 0.227486923 0.260103226
vt 0.281720161 0.1503104
vt 0.13767834 0.1503104
vt 0.227486923 0.04051751
vt 0.1056261 0.0134009123
vt 0.007901271 0.08937991
vt 0.007901271 0.211240828
vt 0.105626062 0.287219822
vt 0.412752032 0.17885077
vt 0.7718045 0.319963336
vt 0.842179239 0.684458137
vt 0.6075116 0.9577135
vt 0.23792997 0.9430895
vt 0.0200107712 0.6540828
vt 0.08623189 0.3417157
vt 0.456939936 0.6700424
vt 0.889010668 0.735084
vt 0.889010668 0.5181825
vt 0.943186343 0.5181825
vt 0.943186343 0.735084
vt 0.8500128 0.735084
vt 0.8500128 0.5181825
vt 0.9241108 0.735084
vt 0.9241108 0.5181825
vt 0.850796461 0.5181825
vt 0.850796461 0.735084
vt 0.997183144 0.735084
vt 0.997183144 0.5181825
vt 0.621973932 0.0171468258
vt 0.5777392 0.154975235
vt 0.6951224 0.239248455
vt 0.7661567 0.0171468258
vt 0.8115448 0.153652132
vt 0.889010668 0.01598984
vt 0.943186343 0.01598984
vt 0.8500128 0.01598984
vt 0.9241108 0.01598984
vt 0.850796461 0.01598984
vt 0.997183144 0.01598984
vt 0.895166636 0.452101827
vt 0.9016005 0.532677531
vt 0.744358063 0.421390533
vt -0.100603819 0.366208434
vt 0.0432749875 0.37735492
vt 0.04526123 0.460662723
vt -0.104833364 0.452101827
vt 0.181195527 0.3636338
vt 0.186967745 0.443017483
vt 0.3166188 0.3368333
vt 0.321954519 0.413653731
vt 0.45605877 0.3157447
vt 0.457487017 0.391869
vt 0.60212326 0.3155285
vt 0.598064363 0.3954301
vt 0.7512901 0.337896347
vt 0.8986249 0.640819669
vt 0.732586443 0.529501259
vt 0.04438846 0.5374512
vt -0.09839952 0.532677531
vt 0.1966543 0.543333769
vt 0.328674942 0.509526
vt 0.459998846 0.491895318
vt 0.5838902 0.48135674
vt 0.912897766 0.781681955
vt 0.7146206 0.6497152
vt 0.0490334854 0.641048849
vt -0.1013751 0.640819669
vt 0.2194204 0.6449556
vt 0.330567837 0.6057698
vt 0.4585028 0.5849243
vt 0.574943841 0.596823752
vt 0.6920185 0.779592335
vt 0.05371815 0.768379748
vt -0.0871022344 0.781681955
vt 0.2037284 0.7467255
vt 0.357690722 0.697017968
vt 0.462067 0.66317606
vt 0.549421549 0.679228
vt 0.6513564 0.9456154
vt 0.576923966 0.8205868
vt 0.269409269 0.943894744
vt 0.320362449 0.8567764
vt 0.40966472 0.7737583
vt 0.467540562 0.7524412
vt 0.525701642 0.768440545
vt -0.09750557 0.308567166
vt -0.244651735 0.282931864
vt 0.128026381 0.0263553858
vt 0.6033009 0.262095571
vt 0.453597337 0.264396846
vt 0.3123978 0.285939932
vt 0.1777881 0.310827136
vt 0.0426413119 0.3216442
vt 0.755348265 0.282931864
vt 0.902494431 0.308567166
vt 0.8993962 0.366208434
vt 0.4665714 0.912812054
vn 0.588554144 0.663679957 0.461663246
vn 0.3983986 0.475777954 0.7841645
vn 0.9301834 -0.04215243 0.364666969
vn 0.610452 0.7848481 -0.106591806
vn -0.217884138 0.972596467 -0.08113298
vn -0.213491589 0.8566106 0.4697229
vn -0.8815777 0.447041184 -0.151574925
vn -0.838162363 0.354408383 0.414582372
vn -0.880288959 -0.3937793 -0.264630318
vn -0.846747041 -0.439282179 0.300084382
vn -0.217193112 -0.9167773 -0.335181326
vn -0.211492583 -0.96060133 0.180321962
vn 0.608845234 -0.7300827 -0.310300976
vn 0.59390074 -0.765673459 0.24703452
vn 0.977633059 0.0264095776 -0.208653286
vn 0.3793749 0.412416935 0.8282433
vn 0.67414546 -0.07455046 0.734826565
vn -0.141029984 0.591961265 0.7935316
vn -0.6073813 0.211824417 0.765649
vn -0.6267124 -0.360328317 0.6909378
vn -0.148260459 -0.780068755 0.607874632
vn 0.439653158 -0.6499725 0.6198717
vn 0.381741345 0.476308316 0.7920883
vn 0.5822047 -0.08431747 0.8086583
vn -0.126315013 0.5152334 0.8476904
vn -0.5135803 0.14068009 0.846430361
vn -0.5460508 -0.3214781 0.7736151
vn -0.151536271 -0.6426709 0.751006544
vn 0.41724205 -0.5365525 0.7334988
vn 0.693357 -0.0504071265 0.718829036
vn -0.183063626 0.5798673 0.7938776
vn -0.5358979 0.284159958 0.7950261
vn -0.662302136 -0.388634 0.6405619
vn -0.205755219 -0.8536566 0.4784717
vn 0.4864795 -0.6904414 0.5353768
vn 0.553197265 0.455537438 0.6974657
vn 0.87923336 -0.192444086 0.4357912
vn -0.2013631 0.6543161 0.7289193
vn -0.76002264 0.280178726 0.586400449
vn -0.780575633 -0.4861805 0.392848879
vn -0.194900289 -0.9303093 0.310706466
vn 0.5265713 -0.7726975 0.35448733
vn 0.3870625 0.578363538 -0.7181074
vn 0.618576467 0.09742614 -0.779661
vn 0.00058157515 0.121002458 -0.992652059
vn 0.384677321 -0.3805592 -0.840950668
vn -0.136840552 -0.498319864 -0.8561261
vn -0.5561199 -0.16828458 -0.813886344
vn -0.5580288 0.36406067 -0.7456968
vn -0.137878612 0.697791636 -0.702905655
vn 0.618576467 0.09742614 -0.779661
vn 0.3870625 0.578363538 -0.7181074
vn -0.137878612 0.697791636 -0.702905655
vn -0.5580288 0.36406067 -0.7456968
vn -0.5561199 -0.16828458 -0.813886344
vn -0.136840552 -0.498319864 -0.8561261
vn 0.384677321 -0.3805592 -0.840950668
vn 0.00297752256 -0.03234427 0.9994724
vn 0.305260956 -0.941634834 -0.141914144
vn 0.317586958 -0.9475436 -0.03605079
vn 0.999067366 0.02682054 0.0338394344
vn 0.9998983 -0.013665895 0.004068507
vn -0.8027122 -0.5899859 -0.08700437
vn -0.8223992 -0.568828464 -0.009685501
vn -0.814988 0.571561635 0.0954558849
vn -0.7946372 0.602134049 0.07737085
vn -0.8223992 -0.568828464 -0.009685501
vn -0.8027122 -0.5899859 -0.08700437
vn 0.312818348 0.9373678 0.1532524
vn 0.3004953 0.9479979 0.104892768
vn -7.728581E-08 0.129197642 -0.9916189
vn 1.1455884E-09 0.129197583 -0.9916189
vn 1.86382487E-09 0.129197642 -0.9916189
vn -3.735188E-08 0.129197672 -0.9916189
vn 1.20947433E-07 0.129197672 -0.9916189
vn 0.2905943 -0.954760134 0.06315083
vn 0.996605754 -0.05651086 0.05986194
vn -0.7784565 -0.624626 0.0620309077
vn -0.832380235 0.55124414 0.0572107
vn -0.7784565 -0.624626 0.0620309077
vn 0.3236144 0.944570839 0.0553138144
vn 0.590559065 0.6676422 0.4533144
vn 0.4094302 0.4756615 0.7785326
vn 0.9330407 -0.0416027531 0.357357323
vn 0.609158754 0.7847987 -0.114090614
vn -0.2185261 0.97186023 -0.0879433155
vn -0.214174867 0.8609005 0.4614969
vn 0.590559065 0.6676422 0.4533144
vn -0.8807531 0.4465435 -0.157711282
vn -0.8399761 0.3577756 0.407966733
vn -0.878678 -0.393283218 -0.270653427
vn -0.8494779 -0.438441277 0.2935243
vn -0.215516016 -0.9145303 -0.342326224
vn -0.212176681 -0.9614523 0.1749016
vn 0.6088883 -0.7277882 -0.31556192
vn 0.5959156 -0.7665941 0.239202917
vn 0.9768339 0.0270429719 -0.212283537
vn 0.386044651 0.4096649 0.8265254
vn 0.681121647 -0.0774779543 0.7280594
vn -0.1366777 0.599932969 0.78828907
vn 0.4094302 0.4756615 0.7785326
vn -0.6103199 0.220892787 0.760733843
vn -0.6341741 -0.3600301 0.68425256
vn -0.153656244 -0.781485 0.6047073
vn 0.4408307 -0.6556767 0.612989664
vn 0.385101736 0.472369224 0.7928203
vn 0.5828164 -0.08891769 0.807724357
vn -0.122819811 0.521193445 0.8445547
vn 0.386044651 0.4096649 0.8265254
vn -0.5101083 0.141343027 0.848417163
vn -0.548588037 -0.3151528 0.7744223
vn -0.158854455 -0.6446062 0.74782896
vn 0.4195965 -0.538906336 0.7304237
vn 0.689315856 -0.04519947 0.7230495
vn -0.17078875 0.583314836 0.7940875
vn 0.385101736 0.472369224 0.7928203
vn -0.5277267 0.297458321 0.7956275
vn -0.669534564 -0.375681818 0.6407704
vn -0.211704731 -0.8529085 0.477208823
vn 0.475710541 -0.711310148 0.517433465
vn 0.5373722 0.4072132 0.7385178
vn 0.8373607 -0.224088222 0.498609632
vn -0.190108418 0.5977674 0.7788022
vn -0.731144965 0.225808039 0.6437684
vn -0.737576067 -0.5012883 0.4524286
vn -0.183370829 -0.913116455 0.364133835
vn 0.481888652 -0.773553133 0.41158095
vn 0.385752916 0.574765444 -0.721692
vn 0.6211474 0.09591676 -0.777801931
vn 0.0006593472 0.121070892 -0.992643654
vn 0.3807716 -0.3828325 -0.8416961
vn -0.140440732 -0.497204751 -0.856191456
vn -0.5570823 -0.165589288 -0.813780963
vn -0.556376934 0.3664278 -0.7457717
vn -0.134452909 0.698149264 -0.703214049
vn 0.6211474 0.09591676 -0.777801931
vn 0.385752916 0.574765444 -0.721692
vn 0.609158754 0.7847987 -0.114090614
vn 0.00223950343 -0.030330414 0.9995374
usemtl 01010039_part_0_material_0
f 1/1/1 2/2/2 3/3/3
f 4/4/4 5/5/5 6/6/6
f 6/6/6 1/1/1 4/4/4
f 5/5/5 7/7/7 8/8/8
f 8/8/8 6/6/6 5/5/5
f 7/7/7 9/9/9 10/10/10
f 10/10/10 8/8/8 7/7/7
f 9/9/9 11/11/11 12/12/12
f 12/12/12 10/10/10 9/9/9
f 11/11/11 13/13/13 14/14/14
f 14/14/14 12/12/12 11/11/11
f 13/13/13 15/15/15 3/3/3
f 3/3/3 14/14/14 13/13/13
f 2/2/2 16/16/16 17/17/17
f 1/1/1 6/6/6 18/18/18
f 18/18/18 2/2/2 1/1/1
f 6/6/6 8/8/8 19/19/19
f 19/19/19 18/18/18 6/6/6
f 8/8/8 10/10/10 20/20/20
f 20/20/20 19/19/19 8/8/8
f 10/10/10 12/12/12 21/21/21
f 21/21/21 20/20/20 10/10/10
f 12/12/12 14/14/14 22/22/22
f 22/22/22 21/21/21 12/12/12
f 14/14/14 3/3/3 17/17/17
f 17/17/17 22/22/22 14/14/14
f 16/16/16 23/23/23 24/24/24
f 24/24/24 17/17/17 16/16/16
f 2/2/2 18/18/18 25/25/25
f 25/25/25 16/16/16 2/2/2
f 18/18/18 19/19/19 26/26/26
f 26/26/26 25/25/25 18/18/18
f 19/19/19 20/20/20 27/27/27
f 27/27/27 26/26/26 19/19/19
f 20/20/20 21/21/21 28/28/28
f 28/28/28 27/27/27 20/20/20
f 21/21/21 22/22/22 29/29/29
f 29/29/29 28/28/28 21/21/21
f 22/22/22 17/17/17 24/24/24
f 24/24/24 29/29/29 22/22/22
f 24/24/24 23/23/23 30/30/30
f 16/16/16 25/25/25 31/31/31
f 31/31/31 23/23/23 16/16/16
f 25/25/25 26/26/26 32/32/32
f 32/32/32 31/31/31 25/25/25
f 26/26/26 27/27/27 33/33/33
f 33/33/33 32/32/32 26/26/26
f 27/27/27 28/28/28 34/34/34
f 34/34/34 33/33/33 27/27/27
f 28/28/28 29/29/29 35/35/35
f 35/35/35 34/34/34 28/28/28
f 29/29/29 24/24/24 30/30/30
f 30/30/30 35/35/35 29/29/29
f 30/30/30 23/23/23 36/36/36
f 36/36/36 37/37/37 30/30/30
f 23/23/23 31/31/31 38/38/38
f 38/38/38 36/36/36 23/23/23
f 32/32/32 39/39/39 38/38/38
f 38/38/38 31/31/31 32/32/32
f 33/33/33 40/40/40 39/39/39
f 39/39/39 32/32/32 33/33/33
f 34/34/34 41/41/41 40/40/40
f 40/40/40 33/33/33 34/34/34
f 34/34/34 35/35/35 42/42/42
f 42/42/42 41/41/41 34/34/34
f 35/35/35 30/30/30 37/37/37
f 37/37/37 42/42/42 35/35/35
f 43/43/43 44/44/44 45/45/45
f 44/44/44 46/46/46 45/45/45
f 46/46/46 47/47/47 45/45/45
f 47/47/47 48/48/48 45/45/45
f 48/48/48 49/49/49 45/45/45
f 49/49/49 50/50/50 45/45/45
f 50/50/50 43/43/43 45/45/45
f 51/51/51 52/52/52 4/4/4
f 4/4/4 15/15/15 51/51/51
f 53/53/53 5/5/5 4/4/4
f 4/4/4 52/52/52 53/53/53
f 54/54/54 7/7/7 5/5/5
f 5/5/5 53/53/53 54/54/54
f 55/55/55 9/9/9 7/7/7
f 7/7/7 54/54/54 55/55/55
f 56/56/56 11/11/11 9/9/9
f 9/9/9 55/55/55 56/56/56
f 57/57/57 13/13/13 11/11/11
f 11/11/11 56/56/56 57/57/57
f 51/51/51 15/15/15 13/13/13
f 13/13/13 57/57/57 51/51/51
f 4/4/4 1/1/1 3/3/3
f 3/3/3 15/15/15 4/4/4
f 17/17/17 3/3/3 2/2/2
f 36/36/36 58/58/58 37/37/37
f 38/38/38 58/58/58 36/36/36
f 39/39/39 58/58/58 38/38/38
f 40/40/40 58/58/58 39/39/39
f 41/41/41 58/58/58 40/40/40
f 42/42/42 58/58/58 41/41/41
f 37/37/37 58/58/58 42/42/42
f 59/59/59 60/60/60 61/61/61
f 61/61/61 62/62/62 59/59/59
f 63/63/63 64/64/64 60/60/60
f 60/60/60 59/59/59 63/63/63
f 65/65/65 66/66/66 67/67/67
f 67/67/67 68/68/68 65/65/65
f 69/69/69 70/70/70 66/66/66
f 66/66/66 65/65/65 69/69/69
f 62/62/62 61/61/61 70/70/70
f 70/70/70 69/69/69 62/62/62
f 71/71/71 72/72/72 73/73/73
f 74/74/74 71/71/71 73/73/73
f 75/75/75 74/74/74 73/73/73
f 76/76/76 77/77/77 61/61/61
f 61/61/61 60/60/60 76/76/76
f 78/78/78 76/76/76 60/60/60
f 60/60/60 64/64/64 78/78/78
f 79/79/79 80/80/80 67/67/67
f 67/67/67 66/66/66 79/79/79
f 81/81/81 79/79/79 66/66/66
f 66/66/66 70/70/70 81/81/81
f 77/77/77 81/81/81 70/70/70
f 70/70/70 61/61/61 77/77/77
usemtl 01010039_part_0_material_1
f 82/82/82 83/83/83 84/84/84
f 85/85/85 86/86/86 87/87/87
f 87/87/87 88/88/88 85/85/85
f 86/86/86 89/89/89 90/90/90
f 90/90/90 87/87/87 86/86/86
f 89/89/89 91/91/91 92/92/92
f 92/92/92 90/90/90 89/89/89
f 91/91/91 93/93/93 94/94/94
f 94/94/94 92/92/92 91/91/91
f 93/93/93 95/95/95 96/96/96
f 96/96/96 94/94/94 93/93/93
f 95/95/95 97/97/97 84/84/84
f 84/84/84 96/96/96 95/95/95
f 83/83/83 98/98/98 99/99/99
f 88/88/88 87/87/87 100/100/100
f 100/100/100 101/101/101 88/88/88
f 87/87/87 90/90/90 102/102/102
f 102/102/102 100/100/100 87/87/87
f 90/90/90 92/92/92 103/103/103
f 103/103/103 102/102/102 90/90/90
f 92/92/92 94/94/94 104/104/104
f 104/104/104 103/103/103 92/92/92
f 94/94/94 96/96/96 105/105/105
f 105/105/105 104/104/104 94/94/94
f 96/96/96 84/84/84 99/99/99
f 99/99/99 105/105/105 96/96/96
f 98/98/98 106/106/106 107/107/107
f 107/107/107 99/99/99 98/98/98
f 101/101/101 100/100/100 108/108/108
f 108/108/108 109/109/109 101/101/101
f 100/100/100 102/102/102 110/110/110
f 110/110/110 108/108/108 100/100/100
f 102/102/102 103/103/103 111/111/111
f 111/111/111 110/110/110 102/102/102
f 103/103/103 104/104/104 112/112/112
f 112/112/112 111/111/111 103/103/103
f 104/104/104 105/105/105 113/113/113
f 113/113/113 112/112/112 104/104/104
f 105/105/105 99/99/99 107/107/107
f 107/107/107 113/113/113 105/105/105
f 107/107/107 106/106/106 114/114/114
f 109/109/109 108/108/108 115/115/115
f 115/115/115 116/116/116 109/109/109
f 108/108/108 110/110/110 117/117/117
f 117/117/117 115/115/115 108/108/108
f 110/110/110 111/111/111 118/118/118
f 118/118/118 117/117/117 110/110/110
f 111/111/111 112/112/112 119/119/119
f 119/119/119 118/118/118 111/111/111
f 112/112/112 113/113/113 120/120/120
f 120/120/120 119/119/119 112/112/112
f 113/113/113 107/107/107 114/114/114
f 114/114/114 120/120/120 113/113/113
f 114/114/114 106/106/106 121/121/121
f 121/121/121 122/122/122 114/114/114
f 116/116/116 115/115/115 123/123/123
f 123/123/123 121/121/121 116/116/116
f 117/117/117 124/124/124 123/123/123
f 123/123/123 115/115/115 117/117/117
f 118/118/118 125/125/125 124/124/124
f 124/124/124 117/117/117 118/118/118
f 119/119/119 126/126/126 125/125/125
f 125/125/125 118/118/118 119/119/119
f 119/119/119 120/120/120 127/127/127
f 127/127/127 126/126/126 119/119/119
f 120/120/120 114/114/114 122/122/122
f 122/122/122 127/127/127 120/120/120
f 128/128/128 129/129/129 130/130/130
f 129/129/129 131/131/131 130/130/130
f 131/131/131 132/132/132 130/130/130
f 132/132/132 133/133/133 130/130/130
f 133/133/133 134/134/134 130/130/130
f 134/134/134 135/135/135 130/130/130
f 135/135/135 128/128/128 130/130/130
f 136/136/136 137/137/137 138/138/138
f 138/138/138 97/97/97 136/136/136
f 135/135/135 86/86/86 85/85/85
f 85/85/85 128/128/128 135/135/135
f 134/134/134 89/89/89 86/86/86
f 86/86/86 135/135/135 134/134/134
f 133/133/133 91/91/91 89/89/89
f 89/89/89 134/134/134 133/133/133
f 132/132/132 93/93/93 91/91/91
f 91/91/91 133/133/133 132/132/132
f 131/131/131 95/95/95 93/93/93
f 93/93/93 132/132/132 131/131/131
f 136/136/136 97/97/97 95/95/95
f 95/95/95 131/131/131 136/136/136
f 138/138/138 82/82/82 84/84/84
f 84/84/84 97/97/97 138/138/138
f 99/99/99 84/84/84 83/83/83
f 121/121/121 139/139/139 122/122/122
f 123/123/123 139/139/139 121/121/121
f 124/124/124 139/139/139 123/123/123
f 125/125/125 139/139/139 124/124/124
f 126/126/126 139/139/139 125/125/125
f 127/127/127 139/139/139 126/126/126
f 122/122/122 139/139/139 127/127/127
