mtllib 01120005.mtl
o 01120005_part_0
v -0.006714545 -0.744666457 0.809363544
v 0.0127012245 -0.209872842 0.9083592
v -0.005392328 -0.28952232 1.05654216
v -0.182143718 -0.290168375 1.03343773
v -0.155908436 -0.209032819 0.8863336
v -0.1142469 -0.7451271 0.795459569
v -0.006714545 -0.744666457 0.809363544
v -0.1142469 -0.7451271 0.795459569
v -0.155908436 -0.209032819 0.8863336
v 0.0127012245 -0.209872842 0.9083592
v -0.005392328 -0.28952232 1.05654216
v -0.182143718 -0.290168375 1.03343773
v -0.1142469 -0.7451271 0.795459569
v -0.006714545 -0.744666457 0.809363544
v -0.00190735608 -0.0526973456 1.10389721
v -0.193999678 -0.0531851724 1.07865334
v -0.146755368 -0.0242287647 1.12256646
v -0.142994344 -0.138286531 1.11049664
v -0.0588428453 -0.08141477 1.13140857
v -0.0588428453 -0.08141477 1.13140857
v -0.142994344 -0.138286531 1.11049664
v 0.180127 0.0590546727 -0.656801
v -0.142994344 -0.138286531 1.11049664
v 0.08722301 0.119063869 -0.6646453
v 0.180127 0.0590546727 -0.656801
v -0.146755368 -0.0242287647 1.12256646
v 0.178082451 0.167034119 -0.6437099
v 0.08722301 0.119063869 -0.6646453
v 0.178082451 0.167034119 -0.6437099
v 0.180127 0.0590546727 -0.656801
v -0.146755368 -0.0242287647 1.12256646
v 0.178082451 0.167034119 -0.6437099
v -0.193999678 -0.0531851724 1.07865334
v -0.168067783 -0.0355734825 0.9055565
v -0.168067783 -0.0355734825 0.9055565
v 0.0201856568 -0.03564945 0.9303089
v -0.00190735608 -0.0526973456 1.10389721
v -0.00190735608 -0.0526973456 1.10389721
v -0.0124431849 0.188388839 1.10411358
v -0.1838255 0.18838957 1.0817064
v -0.193999678 -0.0531851724 1.07865334
v 0.008346844 0.1394412 0.9416587
v -0.0124431849 0.188388839 1.10411358
v -0.00190735608 -0.0526973456 1.10389721
v -0.193999678 -0.0531851724 1.07865334
v -0.1838255 0.18838957 1.0817064
v -0.158943772 0.138753146 0.919635832
v 0.0201856568 -0.03564945 0.9303089
v -0.0221362337 0.622983456 0.92413193
v -0.129680127 0.623316348 0.910314
v -0.0221362337 0.622983456 0.92413193
v 0.008346844 0.1394412 0.9416587
v -0.158943772 0.138753146 0.919635832
v -0.129680127 0.623316348 0.910314
v -0.0221362337 0.622983456 0.92413193
v -0.129680127 0.623316348 0.910314
v 0.0201856568 -0.03564945 0.9303089
v -0.168067783 -0.0355734825 0.9055565
v 0.0201856568 -0.03564945 0.9303089
v -0.168067783 -0.0355734825 0.9055565
vt 0.317137182 0.03417778
vt 0.317083 0.646902442
vt 0.007173817 0.649079561
vt 0.00590943033 0.6483545
vt 0.317082882 0.6480456
vt 0.317135632 0.03367251
vt 0.3477222 0.03464955
vt 0.6492412 0.03402841
vt 0.6334543 0.6423261
vt 0.3640667 0.6409208
vt 0.324056357 0.647933066
vt 0.6679876 0.647042
vt 0.667153955 0.03402841
vt 0.324168444 0.03464955
vt 0.324043274 0.980720937
vt 0.668121755 0.9806887
vt 0.230159551 0.09799409
vt 0.0230611283 0.0309496522
vt 0.07293765 0.221519947
vt 0.777221859 0.0299284458
vt 0.6850366 0.030810833
vt 0.685201168 0.987360835
vt 0.996230364 0.0314126
vt 0.9071529 0.987360835
vt 0.9965162 0.987360835
vt 0.868907332 0.030810833
vt 0.820591569 0.986478448
vt 0.0766634941 0.232272565
vt 0.221372455 0.0953217745
vt 0.0264467467 0.0276343226
vt 0.8689943 0.0314126
vt 0.823985457 0.9864775
vt 0.006305904 0.980373263
vt 0.317082375 0.980298936
vt 0.6336199 0.980653465
vt 0.364055544 0.9806727
vt 0.007402112 0.9803813
vt 0.324043274 0.980722547
vt 0.324058473 0.649033964
vt 0.667876065 0.6489285
vt 0.668121755 0.98070997
vt 0.3170833 0.6457131
vt 0.008750405 0.646429241
vt 0.007610957 0.980374336
vt 0.006568565 0.980383456
vt 0.00764965033 0.646415353
vt 0.31708315 0.646575868
vt 0.3170825 0.9802964
vt 0.317133546 0.0342139
vt 0.317131937 0.0337789059
vt 0.3477222 0.0374488235
vt 0.3640664 0.647476435
vt 0.6334293 0.648464262
vt 0.6492412 0.0368276238
vt 0.324168444 0.0374488235
vt 0.667153955 0.0368276238
vt 0.364055544 0.9807707
vt 0.6336199 0.9807452
vt 0.317082226 0.980310738
vt 0.317082077 0.9803091
vn 0.5423002 -0.8119716 -0.215899453
vn 0.7915482 0.06767053 -0.6073485
vn 0.589232743 -0.276632 0.7591308
vn -0.7757654 -0.2711578 0.5697907
vn -0.597307742 0.07588152 -0.7984143
vn -0.4657958 -0.8145035 -0.3458589
vn 0.5423002 -0.8119716 -0.215899453
vn -0.4657958 -0.8145035 -0.3458589
vn -0.597307742 0.07588152 -0.7984143
vn 0.7915482 0.06767053 -0.6073485
vn 0.589232743 -0.276632 0.7591308
vn -0.7757654 -0.2711578 0.5697907
vn -0.4657958 -0.8145035 -0.3458589
vn 0.5423002 -0.8119716 -0.215899453
vn 0.601994753 -0.0707086548 0.7953632
vn -0.790780544 -0.0667126551 0.6084534
vn -0.491916478 0.6593013 0.5686299
vn -0.4526293 -0.7891759 0.415124148
vn 0.720760167 -0.058114104 0.690744162
vn 0.720760167 -0.058114104 0.690744162
vn -0.4526293 -0.7891759 0.415124148
vn 0.4864353 -0.6566934 -0.5763111
vn -0.4526293 -0.7891759 0.415124148
vn -0.725803137 0.102190591 -0.6802697
vn 0.4864353 -0.6566934 -0.5763111
vn -0.491916478 0.6593013 0.5686299
vn 0.496837229 0.7654262 -0.408993244
vn -0.725803137 0.102190591 -0.6802697
vn 0.496837229 0.7654262 -0.408993244
vn 0.4864353 -0.6566934 -0.5763111
vn -0.491916478 0.6593013 0.5686299
vn 0.496837229 0.7654262 -0.408993244
vn -0.790780544 -0.0667126551 0.6084534
vn -0.6222074 0.06942589 -0.779767931
vn -0.6222074 0.06942589 -0.779767931
vn 0.8068448 0.06607849 -0.587056339
vn 0.601994753 -0.0707086548 0.7953632
vn 0.601994753 -0.0707086548 0.7953632
vn 0.5715567 0.173115179 0.802093565
vn -0.7636951 0.171229541 0.622455
vn -0.790780544 -0.0667126551 0.6084534
vn 0.79766655 0.05701188 -0.600397944
vn 0.5715567 0.173115179 0.802093565
vn 0.601994753 -0.0707086548 0.7953632
vn -0.790780544 -0.0667126551 0.6084534
vn -0.7636951 0.171229541 0.622455
vn -0.60727 0.0546652563 -0.7926127
vn 0.8068448 0.06607849 -0.587056339
vn 0.5253001 0.8435562 -0.111681461
vn -0.480596274 0.843379557 -0.240287676
vn 0.5253001 0.8435562 -0.111681461
vn 0.79766655 0.05701188 -0.600397944
vn -0.60727 0.0546652563 -0.7926127
vn -0.480596274 0.843379557 -0.240287676
vn 0.5253001 0.8435562 -0.111681461
vn -0.480596274 0.843379557 -0.240287676
vn 0.8068448 0.06607849 -0.587056339
vn -0.6222074 0.06942589 -0.779767931
vn 0.8068448 0.06607849 -0.587056339
vn -0.6222074 0.06942589 -0.779767931
usemtl 01120005_part_0_material_0
f 1/1/1 2/2/2 3/3/3
f 4/4/4 5/5/5 6/6/6
f 7/7/7 8/8/8 9/9/9
f 9/9/9 10/10/10 7/7/7
f 11/11/11 12/12/12 13/13/13
f 13/13/13 14/14/14 11/11/11
f 12/12/12 11/11/11 15/15/15
f 15/15/15 16/16/16 12/12/12
f 17/17/17 18/18/18 19/19/19
f 20/20/20 21/21/21 22/22/22
f 23/23/23 24/24/24 25/25/25
f 26/26/26 20/20/20 27/27/27
f 28/28/28 29/29/29 30/30/30
f 23/23/23 31/31/31 24/24/24
f 32/32/32 24/24/24 31/31/31
f 22/22/22 27/27/27 20/20/20
f 33/33/33 34/34/34 5/5/5
f 35/35/35 36/36/36 10/10/10
f 10/10/10 9/9/9 35/35/35
f 2/2/2 37/37/37 3/3/3
f 38/38/38 39/39/39 40/40/40
f 40/40/40 41/41/41 38/38/38
f 42/42/42 43/43/43 44/44/44
f 5/5/5 4/4/4 33/33/33
f 45/45/45 46/46/46 47/47/47
f 37/37/37 2/2/2 48/48/48
f 43/43/43 42/42/42 49/49/49
f 46/46/46 50/50/50 47/47/47
f 51/51/51 52/52/52 53/53/53
f 53/53/53 54/54/54 51/51/51
f 39/39/39 55/55/55 56/56/56
f 56/56/56 40/40/40 39/39/39
f 53/53/53 52/52/52 57/57/57
f 57/57/57 58/58/58 53/53/53
f 59/59/59 42/42/42 44/44/44
f 45/45/45 47/47/47 60/60/60
