mtllib 02010032.mtl
o 02010032_part_0
v 0.09064714 -0.00940565 0.6248527
v 0.09064707 -0.147502482 0.419164181
v 0.09064715 0.09904077 0.418689728
v 0.009326436 -0.1354976 0.8494742
v 0.009326439 -0.214748114 0.7515765
v 0.09064714 -0.00940565 0.6248527
v 0.009326408 -0.3639256 0.546457469
v 0.009326384 -0.387234569 0.3226912
v 0.06650913 -0.300006062 0.210693821
v 0.06650913 -0.300006062 0.210693821
v 0.09064707 -0.147502482 0.419164181
v 0.009326408 -0.3639256 0.546457469
v 0.009326408 -0.3639256 0.546457469
v 0.09064707 -0.147502482 0.419164181
v 0.09064714 -0.00940565 0.6248527
v 0.09064714 -0.00940565 0.6248527
v 0.009326439 -0.214748114 0.7515765
v 0.009326408 -0.3639256 0.546457469
v 0.009326384 -0.387234569 0.3226912
v 0.00932628848 -0.3304155 0.0453144833
v 0.06650913 -0.300006062 0.210693821
v 0.00932628848 -0.3304155 0.0453144833
v 0.009326272 -0.154144824 -0.166797459
v 0.06650913 -0.300006062 0.210693821
v 0.009326272 -0.154144824 -0.166797459
v 0.009326327 -0.224071726 0.12689589
v 0.06650913 -0.300006062 0.210693821
v 0.009326327 -0.224071726 0.12689589
v 0.009326325 -0.182115555 0.182837367
v 0.06650913 -0.300006062 0.210693821
v 0.009326325 -0.182115555 0.182837367
v 0.00932631548 -0.191439152 0.280735016
v 0.06650913 -0.300006062 0.210693821
v 0.09064707 -0.147502482 0.419164181
v 0.06650913 -0.300006062 0.210693821
v 0.00932631548 -0.191439152 0.280735016
v 0.00932631548 -0.191439152 0.280735016
v 0.009326353 -0.126174018 0.3736486
v 0.09064707 -0.147502482 0.419164181
v 0.09064715 0.09904077 0.418689728
v 0.09064707 -0.147502482 0.419164181
v 0.009326353 -0.126174018 0.3736486
v 0.009326353 -0.126174018 0.3736486
v 0.009326358 0.0323270261 0.3786327
v 0.09064715 0.09904077 0.418689728
v 0.0629224852 0.21961154 0.370474517
v 0.09064715 0.09904077 0.418689728
v 0.009326358 0.0323270261 0.3786327
v 0.009326358 0.0323270261 0.3786327
v 0.009326327 0.120901145 0.327367276
v 0.0629224852 0.21961154 0.370474517
v 0.009326327 0.120901145 0.327367276
v 0.009326332 0.195489883 0.304043978
v 0.0629224852 0.21961154 0.370474517
v 0.009326332 0.195489883 0.304043978
v 0.00932634 0.218798861 0.215469837
v 0.0629224852 0.21961154 0.370474517
v 0.00932634 0.218798861 0.215469837
v 0.009326333 0.2654168 0.318029433
v 0.0629224852 0.21961154 0.370474517
v 0.009326333 0.2654168 0.318029433
v 0.009326365 0.265416831 0.42525062
v 0.0629224852 0.21961154 0.370474517
v 0.09064715 0.09904077 0.418689728
v 0.0629224852 0.21961154 0.370474517
v 0.009326365 0.265416831 0.42525062
v 0.009326365 0.265416831 0.42525062
v 0.009326399 0.218798861 0.4811923
v 0.09064715 0.09904077 0.418689728
v 0.09064714 -0.00940565 0.6248527
v 0.09064715 0.09904077 0.418689728
v 0.009326399 0.218798861 0.4811923
v 0.009326399 0.218798861 0.4811923
v 0.009326391 0.218798876 0.588413656
v 0.09064714 -0.00940565 0.6248527
v 0.009326391 0.218798876 0.588413656
v 0.009326392 0.270078629 0.5977372
v 0.09064714 -0.00940565 0.6248527
v 0.009326392 0.270078629 0.5977372
v 0.009326422 0.246769652 0.72826755
v 0.09064714 -0.00940565 0.6248527
v 0.009326422 0.246769652 0.72826755
v 0.009326443 0.13022472 0.896092057
v 0.09064714 -0.00940565 0.6248527
v -0.07199435 -0.009405633 0.624852836
v -0.07199441 0.0990408 0.418689758
v -0.0719944462 -0.147502452 0.4191642
v 0.009326436 -0.1354976 0.8494742
v -0.07199435 -0.009405633 0.624852836
v 0.009326439 -0.214748114 0.7515765
v -0.07199435 -0.009405633 0.624852836
v -0.0719944462 -0.147502452 0.4191642
v 0.009326408 -0.3639256 0.546457469
v 0.009326408 -0.3639256 0.546457469
v 0.009326439 -0.214748114 0.7515765
v -0.07199435 -0.009405633 0.624852836
v -0.0478564538 -0.300006062 0.210693836
v 0.009326384 -0.387234569 0.3226912
v 0.009326408 -0.3639256 0.546457469
v 0.009326408 -0.3639256 0.546457469
v -0.0719944462 -0.147502452 0.4191642
v -0.0478564538 -0.300006062 0.210693836
v 0.009326384 -0.387234569 0.3226912
v -0.0478564538 -0.300006062 0.210693836
v 0.00932628848 -0.3304155 0.0453144833
v 0.00932628848 -0.3304155 0.0453144833
v -0.0478564538 -0.300006062 0.210693836
v 0.009326272 -0.154144824 -0.166797459
v 0.009326272 -0.154144824 -0.166797459
v -0.0478564538 -0.300006062 0.210693836
v 0.009326327 -0.224071726 0.12689589
v 0.009326327 -0.224071726 0.12689589
v -0.0478564538 -0.300006062 0.210693836
v 0.009326325 -0.182115555 0.182837367
v 0.009326325 -0.182115555 0.182837367
v -0.0478564538 -0.300006062 0.210693836
v 0.00932631548 -0.191439152 0.280735016
v 0.00932631548 -0.191439152 0.280735016
v -0.0478564538 -0.300006062 0.210693836
v -0.0719944462 -0.147502452 0.4191642
v -0.0719944462 -0.147502452 0.4191642
v 0.009326353 -0.126174018 0.3736486
v 0.00932631548 -0.191439152 0.280735016
v 0.009326353 -0.126174018 0.3736486
v -0.0719944462 -0.147502452 0.4191642
v -0.07199441 0.0990408 0.418689758
v -0.07199441 0.0990408 0.418689758
v 0.009326358 0.0323270261 0.3786327
v 0.009326353 -0.126174018 0.3736486
v 0.009326358 0.0323270261 0.3786327
v -0.07199441 0.0990408 0.418689758
v -0.0442698263 0.219611585 0.370474547
v -0.0442698263 0.219611585 0.370474547
v 0.009326327 0.120901145 0.327367276
v 0.009326358 0.0323270261 0.3786327
v 0.009326327 0.120901145 0.327367276
v -0.0442698263 0.219611585 0.370474547
v 0.009326332 0.195489883 0.304043978
v 0.009326332 0.195489883 0.304043978
v -0.0442698263 0.219611585 0.370474547
v 0.00932634 0.218798861 0.215469837
v 0.00932634 0.218798861 0.215469837
v -0.0442698263 0.219611585 0.370474547
v 0.009326333 0.2654168 0.318029433
v 0.009326333 0.2654168 0.318029433
v -0.0442698263 0.219611585 0.370474547
v 0.009326365 0.265416831 0.42525062
v 0.009326365 0.265416831 0.42525062
v -0.0442698263 0.219611585 0.370474547
v -0.07199441 0.0990408 0.418689758
v -0.07199441 0.0990408 0.418689758
v 0.009326399 0.218798861 0.4811923
v 0.009326365 0.265416831 0.42525062
v 0.009326399 0.218798861 0.4811923
v -0.07199441 0.0990408 0.418689758
v -0.07199435 -0.009405633 0.624852836
v -0.07199435 -0.009405633 0.624852836
v 0.009326391 0.218798876 0.588413656
v 0.009326399 0.218798861 0.4811923
v 0.009326391 0.218798876 0.588413656
v -0.07199435 -0.009405633 0.624852836
v 0.009326392 0.270078629 0.5977372
v 0.009326392 0.270078629 0.5977372
v -0.07199435 -0.009405633 0.624852836
v 0.009326422 0.246769652 0.72826755
v 0.009326422 0.246769652 0.72826755
v -0.07199435 -0.009405633 0.624852836
v 0.009326443 0.13022472 0.896092057
v 0.03846662 0.0719093755 1.6842159
v 0.03811868 0.08797645 0.714814842
v 0.009326416 0.120901354 0.714259148
v 0.009326621 0.111577772 1.6983273
v 0.0384991355 -0.0157528315 1.77076519
v 0.03846662 0.0719093755 1.6842159
v 0.009326621 0.111577772 1.6983273
v 0.009326651 0.0230036825 1.78757334
v 0.038410347 -0.0415161625 2.03412867
v 0.0384991355 -0.0157528315 1.77076519
v 0.009326651 0.0230036825 1.78757334
v 0.00932671 -0.000305299269 2.0269835
v 0.0380227 0.0294155646 2.195541
v 0.009326742 0.0649598241 2.19272614
v 0.03785391 -0.01842942 2.411255
v 0.0380227 0.0294155646 2.195541
v 0.009326742 0.0649598241 2.19272614
v 0.009326763 0.0230036955 2.41371655
v 0.028523583 -0.0267628971 2.74150085
v 0.03785391 -0.01842942 2.411255
v 0.009326763 0.0230036955 2.41371655
v 0.009326854 0.023003703 2.78345037
v 0.02311268 -0.013223175 2.81798625
v 0.028523583 -0.0267628971 2.74150085
v 0.009326854 0.023003703 2.78345037
v 0.009326918 0.0463126861 3.0086906
v 0.009326918 0.0463126861 3.0086906
v 0.009326889 -0.112188339 2.76220131
v 0.02311268 -0.013223175 2.81798625
v 0.00932678953 -0.242718637 2.42221618
v 0.009326732 -0.2893366 2.1119802
v 0.009326761 -0.191438884 2.315971
v 0.028523583 -0.0267628971 2.74150085
v 0.02311268 -0.013223175 2.81798625
v 0.009326889 -0.112188339 2.76220131
v 0.00932678953 -0.242718637 2.42221618
v 0.009326761 -0.139640436 2.34031677
v 0.009326706 -0.130835563 2.030631
v 0.038410347 -0.0415161625 2.03412867
v 0.0380227 0.0294155646 2.195541
v 0.03785391 -0.01842942 2.411255
v 0.009326326 -0.130835608 0.7161496
v 0.0384991355 -0.0157528315 1.77076519
v 0.03811868 0.08797645 0.714814842
v 0.03846662 0.0719093755 1.6842159
v -0.0194658451 0.08797645 0.7148148
v -0.01981338 0.0719094 1.6842159
v -0.01981338 0.0719094 1.6842159
v -0.0198458359 -0.0157528259 1.77076507
v -0.0198458359 -0.0157528259 1.77076507
v -0.0200117156 -0.0415132232 2.03420043
v -0.0193692576 0.0294155665 2.195541
v -0.0193692576 0.0294155665 2.195541
v -0.01920035 -0.01842942 2.411255
v -0.01920035 -0.01842942 2.411255
v -0.009869872 -0.02676289 2.74150038
v -0.009869872 -0.02676289 2.74150038
v -0.00445894152 -0.0132231787 2.817986
v -0.00445894152 -0.0132231787 2.817986
v 0.00932678953 -0.242718637 2.42221618
v 0.009326761 -0.191438884 2.315971
v 0.009326732 -0.2893366 2.1119802
v -0.01920035 -0.01842942 2.411255
v -0.009869872 -0.02676289 2.74150038
v -0.00445894152 -0.0132231787 2.817986
v 0.009326761 -0.139640436 2.34031677
v -0.01920035 -0.01842942 2.411255
v 0.009326761 -0.139640436 2.34031677
v 0.00932678953 -0.242718637 2.42221618
v -0.0200117156 -0.0415132232 2.03420043
v -0.0193692576 0.0294155665 2.195541
v -0.01981338 0.0719094 1.6842159
v -0.0194658451 0.08797645 0.7148148
v -0.0198458359 -0.0157528259 1.77076507
v 0.0365603045 -0.00729631772 -0.473512173
v 0.0365603343 -0.00496542268 0.259546131
v 0.009326443 -0.04808702 0.260711551
v 0.009326374 -0.05507971 -0.471181333
v 0.009326299 -0.124787644 -0.580210149
v -0.03450742 -0.06901968 -0.624843657
v 0.00932631 0.0178158227 -0.6383501
v 0.05316003 -0.0690197051 -0.624843538
v 0.0365603343 -0.00496542268 0.259546131
v 0.0365603045 -0.00729631772 -0.473512173
v 0.009326339 0.040487092 -0.475843042
v 0.009326448 0.0381562 0.258380681
v -0.0179074015 -0.00496541755 0.259546161
v -0.0179075934 -0.007296312 -0.473512173
v -0.0179075934 -0.007296312 -0.473512173
v -0.0179074015 -0.00496541755 0.259546161
v 0.009326299 -0.124787644 -0.580210149
v 0.05316003 -0.0690197051 -0.624843538
v 0.0365603045 -0.00729631772 -0.473512173
v 0.0365603045 -0.00729631772 -0.473512173
v 0.009326374 -0.05507971 -0.471181333
v 0.009326299 -0.124787644 -0.580210149
v 0.05316003 -0.0690197051 -0.624843538
v 0.00932631 0.0178158227 -0.6383501
v 0.009326339 0.040487092 -0.475843042
v 0.009326339 0.040487092 -0.475843042
v 0.0365603045 -0.00729631772 -0.473512173
v 0.05316003 -0.0690197051 -0.624843538
v -0.03450742 -0.06901968 -0.624843657
v 0.009326299 -0.124787644 -0.580210149
v 0.009326374 -0.05507971 -0.471181333
v 0.009326374 -0.05507971 -0.471181333
v -0.0179075934 -0.007296312 -0.473512173
v -0.03450742 -0.06901968 -0.624843657
v 0.00932631 0.0178158227 -0.6383501
v -0.03450742 -0.06901968 -0.624843657
v -0.0179075934 -0.007296312 -0.473512173
v -0.0179075934 -0.007296312 -0.473512173
v 0.009326339 0.040487092 -0.475843042
v 0.00932631 0.0178158227 -0.6383501
v 0.0515358672 -0.04519985 0.2973536
v 0.051535897 -0.05140993 0.40890336
v 0.009326468 -0.148315609 0.408958673
v 0.009326443 -0.129668459 0.220894828
v 0.0515358672 -0.0180307236 0.275618285
v 0.0515358672 -0.04519985 0.2973536
v 0.009326443 -0.129668459 0.220894828
v 0.009326412 -0.04808703 0.15562965
v 0.05153587 0.0122434441 0.276394546
v 0.0515358672 -0.0180307236 0.275618285
v 0.009326412 -0.04808703 0.15562965
v 0.009326415 0.04281796 0.157960519
v 0.0515358672 0.0409651 0.3066687
v 0.05153587 0.0122434441 0.276394546
v 0.009326415 0.04281796 0.157960519
v 0.009326453 0.129061222 0.24886556
v 0.05153586 0.0432938747 0.411232173
v 0.0515358672 0.0409651 0.3066687
v 0.009326453 0.129061222 0.24886556
v 0.009326483 0.13605389 0.376232862
v 0.05153586 0.0432938747 0.411232173
v 0.051535897 -0.05140993 0.40890336
v 0.0515358672 -0.04519985 0.2973536
v 0.0515358672 -0.0180307236 0.275618285
v 0.05153587 0.0122434441 0.276394546
v 0.0515358672 0.0409651 0.3066687
v -0.0328829139 -0.05140994 0.40890336
v -0.0328829437 -0.0451998524 0.2973536
v -0.0328829437 -0.0451998524 0.2973536
v -0.03288298 -0.0180307273 0.2756183
v -0.03288298 -0.0180307273 0.2756183
v -0.03288298 0.0122434413 0.276394546
v -0.03288298 0.0122434413 0.276394546
v -0.03288298 0.0409650952 0.3066687
v -0.03288298 0.0409650952 0.3066687
v -0.03288295 0.0432938747 0.411232173
v -0.03288298 0.0122434413 0.276394546
v -0.03288298 -0.0180307273 0.2756183
v -0.0328829437 -0.0451998524 0.2973536
v -0.03288298 0.0409650952 0.3066687
v -0.03288295 0.0432938747 0.411232173
v -0.0328829139 -0.05140994 0.40890336
v 0.009326443 0.13022472 0.896092057
v 0.009326436 -0.1354976 0.8494742
v 0.09064714 -0.00940565 0.6248527
v 0.009326443 0.13022472 0.896092057
v -0.07199435 -0.009405633 0.624852836
v 0.009326436 -0.1354976 0.8494742
v 0.1474347 -0.008087867 0.633401155
v 0.14602755 -0.147161588 0.403915435
v 0.145185485 0.109320149 0.4038727
v 0.009326454 -0.164469585 0.8990752
v 0.009326454 -0.260327578 0.7865358
v 0.1474347 -0.008087867 0.633401155
v 0.009326429 -0.415941 0.570830345
v 0.009326385 -0.44462046 0.320141643
v 0.123483963 -0.301859856 0.203617752
v 0.123483963 -0.301859856 0.203617752
v 0.14602755 -0.147161588 0.403915435
v 0.009326429 -0.415941 0.570830345
v 0.009326429 -0.415941 0.570830345
v 0.14602755 -0.147161588 0.403915435
v 0.1474347 -0.008087867 0.633401155
v 0.1474347 -0.008087867 0.633401155
v 0.009326454 -0.260327578 0.7865358
v 0.009326429 -0.415941 0.570830345
v 0.009326385 -0.44462046 0.320141643
v 0.009326281 -0.381871372 0.0197815616
v 0.123483963 -0.301859856 0.203617752
v 0.009326281 -0.381871372 0.0197815616
v 0.009326265 -0.130065441 -0.218949363
v 0.123483963 -0.301859856 0.203617752
v 0.009326265 -0.130065441 -0.218949363
v 0.009326324 -0.168692574 0.111638427
v 0.123483963 -0.301859856 0.203617752
v 0.009326324 -0.168692574 0.111638427
v 0.009326331 -0.126716539 0.167652249
v 0.123483963 -0.301859856 0.203617752
v 0.009326331 -0.126716539 0.167652249
v 0.00932631 -0.140402138 0.254374743
v 0.123483963 -0.301859856 0.203617752
v 0.14602755 -0.147161588 0.403915435
v 0.123483963 -0.301859856 0.203617752
v 0.00932631 -0.140402138 0.254374743
v 0.00932631 -0.140402138 0.254374743
v 0.009326357 -0.103643954 0.3208089
v 0.14602755 -0.147161588 0.403915435
v 0.145185485 0.109320149 0.4038727
v 0.14602755 -0.147161588 0.403915435
v 0.009326357 -0.103643954 0.3208089
v 0.009326357 -0.103643954 0.3208089
v 0.009326351 0.0235220566 0.321869045
v 0.145185485 0.109320149 0.4038727
v 0.116944611 0.235559851 0.3592095
v 0.145185485 0.109320149 0.4038727
v 0.009326351 0.0235220566 0.321869045
v 0.009326351 0.0235220566 0.321869045
v 0.009326318 0.09762611 0.274851441
v 0.116944611 0.235559851 0.3592095
v 0.009326318 0.09762611 0.274851441
v 0.00932634249 0.157391861 0.261053532
v 0.116944611 0.235559851 0.3592095
v 0.00932634249 0.157391861 0.261053532
v 0.009326335 0.21536544 0.15813005
v 0.116944611 0.235559851 0.3592095
v 0.009326335 0.21536544 0.15813005
v 0.009326362 0.321394056 0.305138171
v 0.116944611 0.235559851 0.3592095
v 0.009326362 0.321394056 0.305138171
v 0.009326385 0.3168716 0.450785756
v 0.116944611 0.235559851 0.3592095
v 0.145185485 0.109320149 0.4038727
v 0.116944611 0.235559851 0.3592095
v 0.009326385 0.3168716 0.450785756
v 0.009326385 0.3168716 0.450785756
v 0.009326391 0.269806564 0.5076092
v 0.145185485 0.109320149 0.4038727
v 0.1474347 -0.008087867 0.633401155
v 0.145185485 0.109320149 0.4038727
v 0.009326391 0.269806564 0.5076092
v 0.009326391 0.269806564 0.5076092
v 0.009326377 0.2674138 0.5578158
v 0.1474347 -0.008087867 0.633401155
v 0.009326377 0.2674138 0.5578158
v 0.00932637 0.321282983 0.571703434
v 0.1474347 -0.008087867 0.633401155
v 0.00932637 0.321282983 0.571703434
v 0.009326422 0.299877852 0.7501572
v 0.1474347 -0.008087867 0.633401155
v 0.009326422 0.299877852 0.7501572
v 0.009326434 0.153283492 0.94870317
v 0.1474347 -0.008087867 0.633401155
v -0.128781915 -0.00808784552 0.6334012
v -0.126532748 0.1093202 0.403872758
v -0.127374947 -0.147161588 0.4039155
v 0.009326454 -0.164469585 0.8990752
v -0.128781915 -0.00808784552 0.6334012
v 0.009326454 -0.260327578 0.7865358
v -0.128781915 -0.00808784552 0.6334012
v -0.127374947 -0.147161588 0.4039155
v 0.009326429 -0.415941 0.570830345
v 0.009326429 -0.415941 0.570830345
v 0.009326454 -0.260327578 0.7865358
v -0.128781915 -0.00808784552 0.6334012
v -0.104831293 -0.3018599 0.2036178
v 0.009326385 -0.44462046 0.320141643
v 0.009326429 -0.415941 0.570830345
v 0.009326429 -0.415941 0.570830345
v -0.127374947 -0.147161588 0.4039155
v -0.104831293 -0.3018599 0.2036178
v 0.009326385 -0.44462046 0.320141643
v -0.104831293 -0.3018599 0.2036178
v 0.009326281 -0.381871372 0.0197815616
v 0.009326281 -0.381871372 0.0197815616
v -0.104831293 -0.3018599 0.2036178
v 0.009326265 -0.130065441 -0.218949363
v 0.009326265 -0.130065441 -0.218949363
v -0.104831293 -0.3018599 0.2036178
v 0.009326324 -0.168692574 0.111638427
v 0.009326324 -0.168692574 0.111638427
v -0.104831293 -0.3018599 0.2036178
v 0.009326331 -0.126716539 0.167652249
v 0.009326331 -0.126716539 0.167652249
v -0.104831293 -0.3018599 0.2036178
v 0.00932631 -0.140402138 0.254374743
v 0.00932631 -0.140402138 0.254374743
v -0.104831293 -0.3018599 0.2036178
v -0.127374947 -0.147161588 0.4039155
v -0.127374947 -0.147161588 0.4039155
v 0.009326357 -0.103643954 0.3208089
v 0.00932631 -0.140402138 0.254374743
v 0.009326357 -0.103643954 0.3208089
v -0.127374947 -0.147161588 0.4039155
v -0.126532748 0.1093202 0.403872758
v -0.126532748 0.1093202 0.403872758
v 0.009326351 0.0235220566 0.321869045
v 0.009326357 -0.103643954 0.3208089
v 0.009326351 0.0235220566 0.321869045
v -0.126532748 0.1093202 0.403872758
v -0.09829196 0.235559911 0.3592096
v -0.09829196 0.235559911 0.3592096
v 0.009326318 0.09762611 0.274851441
v 0.009326351 0.0235220566 0.321869045
v 0.009326318 0.09762611 0.274851441
v -0.09829196 0.235559911 0.3592096
v 0.00932634249 0.157391861 0.261053532
v 0.00932634249 0.157391861 0.261053532
v -0.09829196 0.235559911 0.3592096
v 0.009326335 0.21536544 0.15813005
v 0.009326335 0.21536544 0.15813005
v -0.09829196 0.235559911 0.3592096
v 0.009326362 0.321394056 0.305138171
v 0.009326362 0.321394056 0.305138171
v -0.09829196 0.235559911 0.3592096
v 0.009326385 0.3168716 0.450785756
v 0.009326385 0.3168716 0.450785756
v -0.09829196 0.235559911 0.3592096
v -0.126532748 0.1093202 0.403872758
v -0.126532748 0.1093202 0.403872758
v 0.009326391 0.269806564 0.5076092
v 0.009326385 0.3168716 0.450785756
v 0.009326391 0.269806564 0.5076092
v -0.126532748 0.1093202 0.403872758
v -0.128781915 -0.00808784552 0.6334012
v -0.128781915 -0.00808784552 0.6334012
v 0.009326377 0.2674138 0.5578158
v 0.009326391 0.269806564 0.5076092
v 0.009326377 0.2674138 0.5578158
v -0.128781915 -0.00808784552 0.6334012
v 0.00932637 0.321282983 0.571703434
v 0.00932637 0.321282983 0.571703434
v -0.128781915 -0.00808784552 0.6334012
v 0.009326422 0.299877852 0.7501572
v 0.009326422 0.299877852 0.7501572
v -0.128781915 -0.00808784552 0.6334012
v 0.009326434 0.153283492 0.94870317
v 0.09143297 0.09261052 1.69231939
v 0.09310481 0.104592651 0.715070546
v 0.00932634249 0.178336531 0.7151762
v 0.009326631 0.16470395 1.72017324
v 0.09118014 0.005008496 1.78042531
v 0.09143297 0.09261052 1.69231939
v 0.009326631 0.16470395 1.72017324
v 0.009324631 0.076147534 1.80937636
v 0.09554058 -0.03593557 2.03197622
v 0.09118014 0.005008496 1.78042531
v 0.009324631 0.076147534 1.80937636
v 0.009467831 0.05613609 2.01630688
v 0.0917481 0.0495902039 2.19305
v 0.00932676 0.122217193 2.18811822
v 0.0941685 -0.007174505 2.41253281
v 0.0917481 0.0495902039 2.19305
v 0.00932676 0.122217193 2.18811822
v 0.009326725 0.08001286 2.420759
v 0.08588101 -0.0247913525 2.743925
v 0.0941685 -0.007174505 2.41253281
v 0.009326725 0.08001286 2.420759
v 0.009326832 0.08042856 2.78202724
v 0.08015339 -0.006926725 2.82050681
v 0.08588101 -0.0247913525 2.743925
v 0.009326832 0.08042856 2.78202724
v 0.009326918 0.0647042245 3.0631094
v 0.009326918 0.0647042245 3.0631094
v 0.009326939 -0.166291282 2.78150177
v 0.08015339 -0.006926725 2.82050681
v 0.0093268035 -0.2991309 2.41138577
v 0.009326732 -0.3173453 1.98131156
v 0.009326761 -0.183595076 2.24671626
v 0.08588101 -0.0247913525 2.743925
v 0.08015339 -0.006926725 2.82050681
v 0.009326939 -0.166291282 2.78150177
v 0.0093268035 -0.2991309 2.41138577
v 0.009326761 -0.183595076 2.24671626
v 0.009329602 -0.185108364 2.249673
v 0.009442192 -0.188272044 2.02980781
v 0.09554058 -0.03593557 2.03197622
v 0.0917481 0.0495902039 2.19305
v 0.0941685 -0.007174505 2.41253281
v 0.009326219 -0.18825081 0.7143795
v 0.09118014 0.005008496 1.78042531
v 0.09310481 0.104592651 0.715070546
v 0.09143297 0.09261052 1.69231939
v -0.0744519755 0.104592666 0.7150705
v -0.07277972 0.09261054 1.69231951
v -0.07277972 0.09261054 1.69231951
v -0.07252147 0.00503135845 1.78040528
v -0.07252147 0.00503135845 1.78040528
v -0.07713828 -0.0358950943 2.03204846
v -0.07308462 0.0496187881 2.1930654
v -0.07308462 0.0496187881 2.1930654
v -0.075514935 -0.00717451423 2.412533
v -0.075514935 -0.00717451423 2.412533
v -0.067227304 -0.0247913748 2.743925
v -0.067227304 -0.0247913748 2.743925
v -0.06149964 -0.00692673726 2.82050657
v -0.06149964 -0.00692673726 2.82050657
v -0.075514935 -0.00717451423 2.412533
v -0.067227304 -0.0247913748 2.743925
v -0.06149964 -0.00692673726 2.82050657
v -0.07713828 -0.0358950943 2.03204846
v -0.07308462 0.0496187881 2.1930654
v -0.07277972 0.09261054 1.69231951
v -0.0744519755 0.104592666 0.7150705
v -0.07252147 0.00503135845 1.78040528
v 0.0939191356 -0.007435705 -0.4704163
v 0.0940025747 -0.005046999 0.259692043
v 0.009326379 -0.105528839 0.260988474
v -0.00431644032 -0.108374491 -0.4546532
v 0.0139767947 -0.181851432 -0.5848723
v -0.08701396 -0.0801702 -0.645297647
v 0.009647642 0.0575590953 -0.67982316
v 0.1057883 -0.0796890557 -0.6452414
v 0.0940025747 -0.005046999 0.259692043
v 0.0939191356 -0.007435705 -0.4704163
v 0.009587788 0.0977394953 -0.48050493
v 0.009326369 0.0955981538 0.258627117
v -0.07534965 -0.00504703447 0.2596921
v -0.0752138942 -0.00427146768 -0.470967084
v -0.0752138942 -0.00427146768 -0.470967084
v -0.07534965 -0.00504703447 0.2596921
v 0.0139767947 -0.181851432 -0.5848723
v 0.1057883 -0.0796890557 -0.6452414
v 0.0939191356 -0.007435705 -0.4704163
v 0.0939191356 -0.007435705 -0.4704163
v -0.00431644032 -0.108374491 -0.4546532
v 0.0139767947 -0.181851432 -0.5848723
v 0.1057883 -0.0796890557 -0.6452414
v 0.009647642 0.0575590953 -0.67982316
v 0.009587788 0.0977394953 -0.48050493
v 0.009587788 0.0977394953 -0.48050493
v 0.0939191356 -0.007435705 -0.4704163
v 0.1057883 -0.0796890557 -0.6452414
v -0.08701396 -0.0801702 -0.645297647
v 0.0139767947 -0.181851432 -0.5848723
v -0.00431644032 -0.108374491 -0.4546532
v -0.00431644032 -0.108374491 -0.4546532
v -0.0752138942 -0.00427146768 -0.470967084
v -0.08701396 -0.0801702 -0.645297647
v 0.009647642 0.0575590953 -0.67982316
v -0.08701396 -0.0801702 -0.645297647
v -0.0752138942 -0.00427146768 -0.470967084
v -0.0752138942 -0.00427146768 -0.470967084
v 0.009587788 0.0977394953 -0.48050493
v 0.009647642 0.0575590953 -0.67982316
v 0.107503496 -0.0572744161 0.2927201
v 0.107783906 -0.06304527 0.4082556
v 0.009326468 -0.205590665 0.404576123
v 0.009326439 -0.178973347 0.191421658
v 0.106824718 -0.0241940022 0.261307567
v 0.107503496 -0.0572744161 0.2927201
v 0.009326439 -0.178973347 0.191421658
v 0.009326395 -0.0657184 0.100959957
v 0.107646488 0.0162794888 0.2647778
v 0.106824718 -0.0241940022 0.261307567
v 0.009326395 -0.0657184 0.100959957
v 0.009326422 0.06465608 0.104831092
v 0.107640684 0.0519998856 0.301180333
v 0.107646488 0.0162794888 0.2647778
v 0.009326422 0.06465608 0.104831092
v 0.009326456 0.181303218 0.224982247
v 0.107901052 0.0543576255 0.410787165
v 0.107640684 0.0519998856 0.301180333
v 0.009326456 0.181303218 0.224982247
v 0.00932649 0.193410009 0.373083919
v 0.107901052 0.0543576255 0.410787165
v 0.107783906 -0.06304527 0.4082556
v 0.107503496 -0.0572744161 0.2927201
v 0.106824718 -0.0241940022 0.261307567
v 0.107646488 0.0162794888 0.2647778
v 0.107640684 0.0519998856 0.301180333
v -0.0891309157 -0.06304529 0.408255637
v -0.08885057 -0.0572744347 0.292720169
v -0.08885057 -0.0572744347 0.292720169
v -0.08817184 -0.0241940171 0.261307627
v -0.08817184 -0.0241940171 0.261307627
v -0.0889936 0.0162794739 0.264777839
v -0.0889936 0.0162794739 0.264777839
v -0.0889878 0.051999867 0.301180363
v -0.0889878 0.051999867 0.301180363
v -0.08924814 0.05435762 0.410787165
v -0.0889936 0.0162794739 0.264777839
v -0.08817184 -0.0241940171 0.261307627
v -0.08885057 -0.0572744347 0.292720169
v -0.0889878 0.051999867 0.301180363
v -0.08924814 0.05435762 0.410787165
v -0.0891309157 -0.06304529 0.408255637
v 0.009326434 0.153283492 0.94870317
v 0.009326454 -0.164469585 0.8990752
v 0.1474347 -0.008087867 0.633401155
v 0.009326434 0.153283492 0.94870317
v -0.128781915 -0.00808784552 0.6334012
v 0.009326454 -0.164469585 0.8990752
vt 0.180731639 0.28283757
vt 0.3145025 0.189432979
vt 0.314811081 0.356187582
vt 0.0319152363 0.2013607
vt 0.09831606 0.143949986
vt 0.180731639 0.28283757
vt 0.2317165 0.0430507064
vt 0.3772443 0.0272852182
vt 0.450082541 0.08628404
vt 0.450082541 0.08628404
vt 0.3145025 0.189432979
vt 0.2317165 0.0430507064
vt 0.2317165 0.0430507064
vt 0.3145025 0.189432979
vt 0.180731639 0.28283757
vt 0.180731639 0.28283757
vt 0.09831606 0.143949986
vt 0.2317165 0.0430507064
vt 0.3772443 0.0272852182
vt 0.557638049 0.06571597
vt 0.450082541 0.08628404
vt 0.557638049 0.06571597
vt 0.6932553 0.181861043
vt 0.450082541 0.08628404
vt 0.6932553 0.181861043
vt 0.5194978 0.148039579
vt 0.450082541 0.08628404
vt 0.5194978 0.148039579
vt 0.461992353 0.18023181
vt 0.450082541 0.08628404
vt 0.461992353 0.18023181
vt 0.410618424 0.1721121
vt 0.450082541 0.08628404
vt 0.3145025 0.189432979
vt 0.450082541 0.08628404
vt 0.410618424 0.1721121
vt 0.410618424 0.1721121
vt 0.357053846 0.213931143
vt 0.3145025 0.189432979
vt 0.314811081 0.356187582
vt 0.3145025 0.189432979
vt 0.357053846 0.213931143
vt 0.357053846 0.213931143
vt 0.340862453 0.311064363
vt 0.314811081 0.356187582
vt 0.34616816 0.437738121
vt 0.314811081 0.356187582
vt 0.340862453 0.311064363
vt 0.340862453 0.311064363
vt 0.374203175 0.3709733
vt 0.34616816 0.437738121
vt 0.374203175 0.3709733
vt 0.3893716 0.421422958
vt 0.34616816 0.437738121
vt 0.3893716 0.421422958
vt 0.446976364 0.4371884
vt 0.34616816 0.437738121
vt 0.446976364 0.4371884
vt 0.3802761 0.468719482
vt 0.34616816 0.437738121
vt 0.3802761 0.468719482
vt 0.310544133 0.468719482
vt 0.34616816 0.437738121
vt 0.314811081 0.356187582
vt 0.34616816 0.437738121
vt 0.310544133 0.468719482
vt 0.310544133 0.468719482
vt 0.274162143 0.4371884
vt 0.314811081 0.356187582
vt 0.180731639 0.28283757
vt 0.314811081 0.356187582
vt 0.274162143 0.4371884
vt 0.274162143 0.4371884
vt 0.204430029 0.4371884
vt 0.180731639 0.28283757
vt 0.204430029 0.4371884
vt 0.195934713 0.471872568
vt 0.180731639 0.28283757
vt 0.195934713 0.471872568
vt 0.113475174 0.45610702
vt 0.180731639 0.28283757
vt 0.113475174 0.45610702
vt 0.003477991 0.390289545
vt 0.180731639 0.28283757
vt 0.1807316 0.28283757
vt 0.314811021 0.356187582
vt 0.3145025 0.189432979
vt 0.0319152363 0.2013607
vt 0.1807316 0.28283757
vt 0.09831606 0.143949986
vt 0.1807316 0.28283757
vt 0.3145025 0.189432979
vt 0.2317165 0.0430507064
vt 0.2317165 0.0430507064
vt 0.09831606 0.143949986
vt 0.1807316 0.28283757
vt 0.450082481 0.08628404
vt 0.3772443 0.0272852182
vt 0.2317165 0.0430507064
vt 0.2317165 0.0430507064
vt 0.3145025 0.189432979
vt 0.450082481 0.08628404
vt 0.3772443 0.0272852182
vt 0.450082481 0.08628404
vt 0.557638049 0.06571597
vt 0.557638049 0.06571597
vt 0.450082481 0.08628404
vt 0.6932553 0.181861043
vt 0.6932553 0.181861043
vt 0.450082481 0.08628404
vt 0.5194978 0.148039579
vt 0.5194978 0.148039579
vt 0.450082481 0.08628404
vt 0.461992353 0.18023181
vt 0.461992353 0.18023181
vt 0.450082481 0.08628404
vt 0.410618424 0.1721121
vt 0.410618424 0.1721121
vt 0.450082481 0.08628404
vt 0.3145025 0.189432979
vt 0.3145025 0.189432979
vt 0.357053846 0.213931143
vt 0.410618424 0.1721121
vt 0.357053846 0.213931143
vt 0.3145025 0.189432979
vt 0.314811021 0.356187582
vt 0.314811021 0.356187582
vt 0.340862453 0.311064363
vt 0.357053846 0.213931143
vt 0.340862453 0.311064363
vt 0.314811021 0.356187582
vt 0.3461681 0.437738121
vt 0.3461681 0.437738121
vt 0.374203175 0.3709733
vt 0.340862453 0.311064363
vt 0.374203175 0.3709733
vt 0.3461681 0.437738121
vt 0.3893716 0.421422958
vt 0.3893716 0.421422958
vt 0.3461681 0.437738121
vt 0.446976364 0.4371884
vt 0.446976364 0.4371884
vt 0.3461681 0.437738121
vt 0.3802761 0.468719482
vt 0.3802761 0.468719482
vt 0.3461681 0.437738121
vt 0.310544133 0.468719482
vt 0.310544133 0.468719482
vt 0.3461681 0.437738121
vt 0.314811021 0.356187582
vt 0.314811021 0.356187582
vt 0.274162143 0.4371884
vt 0.310544133 0.468719482
vt 0.274162143 0.4371884
vt 0.314811021 0.356187582
vt 0.1807316 0.28283757
vt 0.1807316 0.28283757
vt 0.204430029 0.4371884
vt 0.274162143 0.4371884
vt 0.204430029 0.4371884
vt 0.1807316 0.28283757
vt 0.195934713 0.471872568
vt 0.195934713 0.471872568
vt 0.1807316 0.28283757
vt 0.113475174 0.45610702
vt 0.113475174 0.45610702
vt 0.1807316 0.28283757
vt 0.003477991 0.390289545
vt 0.5813519 0.483299971
vt 0.948284149 0.1481322
vt 0.96066153 0.161255836
vt 0.590659261 0.5040883
vt 0.5071028 0.489336
vt 0.5813519 0.483299971
vt 0.590659261 0.5040883
vt 0.5150458 0.5106678
vt 0.3779907 0.604530036
vt 0.5071028 0.489336
vt 0.5150458 0.5106678
vt 0.395962119 0.6187553
vt 0.337249458 0.6833107
vt 0.3514749 0.6967119
vt 0.24515906 0.7424486
vt 0.337249458 0.6833107
vt 0.3514749 0.6967119
vt 0.259554774 0.7600114
vt 0.116335228 0.850725055
vt 0.24515906 0.7424486
vt 0.259554774 0.7600114
vt 0.118780315 0.8850019
vt 0.09222443 0.882048666
vt 0.116335228 0.850725055
vt 0.118780315 0.8850019
vt 0.03733035 0.967679858
vt 0.03733035 0.967679858
vt 0.08619291 0.82509923
vt 0.09222443 0.882048666
vt 0.16920577 0.6593284
vt 0.270074964 0.5356272
vt 0.228635415 0.6441182
vt 0.116335228 0.850725055
vt 0.09222443 0.882048666
vt 0.08619291 0.82509923
vt 0.16920577 0.6593284
vt 0.2516468 0.6631325
vt 0.352909029 0.56728065
vt 0.3779907 0.604530036
vt 0.337249458 0.6833107
vt 0.24515906 0.7424486
vt 0.884554148 0.07789779
vt 0.5071028 0.489336
vt 0.948284149 0.1481322
vt 0.5813519 0.483299971
vt 0.948284149 0.1481322
vt 0.581351936 0.483299851
vt 0.581351936 0.483299851
vt 0.5071028 0.489336
vt 0.5071028 0.489336
vt 0.377964467 0.604555249
vt 0.337249458 0.6833107
vt 0.337249458 0.6833107
vt 0.24515906 0.7424486
vt 0.24515906 0.7424486
vt 0.116335288 0.850725
vt 0.116335288 0.850725
vt 0.09222448 0.8820486
vt 0.09222448 0.8820486
vt 0.162058339 0.6709283
vt 0.2182842 0.6546383
vt 0.268772751 0.542389333
vt 0.24515906 0.7424486
vt 0.116335288 0.850725
vt 0.09222448 0.8820486
vt 0.228144139 0.678371131
vt 0.240068957 0.74740535
vt 0.228144139 0.678371131
vt 0.162058339 0.6709283
vt 0.377964467 0.604555249
vt 0.337249458 0.6833107
vt 0.581351936 0.483299851
vt 0.948284149 0.1481322
vt 0.5071028 0.489336
vt 0.6780152 0.926118433
vt 0.242013961 0.9281434
vt 0.2410765 0.890690863
vt 0.6761404 0.884616852
vt 0.5021316 0.8260128
vt 0.598699331 0.790626049
vt 0.719259739 0.8260128
vt 0.598699331 0.8613994
vt 0.242013961 0.9281434
vt 0.6780152 0.926118433
vt 0.679889739 0.9676201
vt 0.242951125 0.9655962
vt 0.242013723 0.9281434
vt 0.6780152 0.926118433
vt 0.6780152 0.926118433
vt 0.242013723 0.9281434
vt 0.7638263 0.8240729
vt 0.7997226 0.872509241
vt 0.6780152 0.926118433
vt 0.6780152 0.926118433
vt 0.6761404 0.884616852
vt 0.7638263 0.8240729
vt 0.7997226 0.872509241
vt 0.810585 0.9479292
vt 0.679889739 0.9676201
vt 0.679889739 0.9676201
vt 0.6780152 0.926118433
vt 0.7997226 0.872509241
vt 0.7997226 0.872509241
vt 0.7638263 0.8240729
vt 0.6761404 0.884616852
vt 0.6761404 0.884616852
vt 0.6780152 0.926118433
vt 0.7997226 0.872509241
vt 0.810585 0.9479292
vt 0.7997226 0.872509241
vt 0.6780152 0.926118433
vt 0.6780152 0.926118433
vt 0.679889739 0.9676201
vt 0.810585 0.9479292
vt 0.868666947 0.463677645
vt 0.7909512 0.459005356
vt 0.7909129 0.386095166
vt 0.9219351 0.4001248
vt 0.8838097 0.4841193
vt 0.868666947 0.463677645
vt 0.9219351 0.4001248
vt 0.967404664 0.4615053
vt 0.883268952 0.506897
vt 0.8838097 0.4841193
vt 0.967404664 0.4615053
vt 0.965780735 0.5299008
vt 0.8621772 0.5285068
vt 0.883268952 0.506897
vt 0.965780735 0.5299008
vt 0.902448058 0.594788849
vt 0.789328933 0.530259
vt 0.8621772 0.5285068
vt 0.902448058 0.594788849
vt 0.813712537 0.600050151
vt 0.789328933 0.530259
vt 0.7909512 0.459005356
vt 0.868666947 0.463677645
vt 0.8838097 0.4841193
vt 0.883268952 0.506897
vt 0.8621772 0.5285068
vt 0.7909512 0.459005356
vt 0.868666768 0.463677645
vt 0.868666768 0.463677645
vt 0.8838097 0.4841193
vt 0.8838097 0.4841193
vt 0.883268952 0.506897
vt 0.883268952 0.506897
vt 0.8621772 0.5285068
vt 0.8621772 0.5285068
vt 0.789328933 0.530259
vt 0.883268952 0.506897
vt 0.8838097 0.4841193
vt 0.868666768 0.463677645
vt 0.8621772 0.5285068
vt 0.789328933 0.530259
vt 0.7909512 0.459005356
vt 0.003477991 0.390289545
vt 0.0319152363 0.2013607
vt 0.180731639 0.28283757
vt 0.003477991 0.390289545
vt 0.1807316 0.28283757
vt 0.0319152363 0.2013607
vt 0.569805264 0.6838558
vt 0.388431728 0.7483987
vt 0.722923458 0.748410761
vt 0.365859449 0.6091349
vt 0.240845859 0.640786648
vt 0.569805264 0.6838558
vt 0.0379019678 0.701453865
vt 0.0004995465 0.771960139
vt 0.18668136 0.804732561
vt 0.18668136 0.804732561
vt 0.388431728 0.7483987
vt 0.0379019678 0.701453865
vt 0.0379019678 0.701453865
vt 0.388431728 0.7483987
vt 0.569805264 0.6838558
vt 0.569805264 0.6838558
vt 0.240845859 0.640786648
vt 0.0379019678 0.701453865
vt 0.0004995465 0.771960139
vt 0.08233401 0.856436551
vt 0.18668136 0.804732561
vt 0.08233401 0.856436551
vt 0.410727739 0.9235797
vt 0.18668136 0.804732561
vt 0.410727739 0.9235797
vt 0.360352 0.830601752
vt 0.18668136 0.804732561
vt 0.360352 0.830601752
vt 0.41509524 0.8148478
vt 0.18668136 0.804732561
vt 0.41509524 0.8148478
vt 0.397247076 0.7904571
vt 0.18668136 0.804732561
vt 0.388431728 0.7483987
vt 0.18668136 0.804732561
vt 0.397247076 0.7904571
vt 0.397247076 0.7904571
vt 0.445185423 0.7717725
vt 0.388431728 0.7483987
vt 0.722923458 0.748410761
vt 0.388431728 0.7483987
vt 0.445185423 0.7717725
vt 0.445185423 0.7717725
vt 0.6110295 0.771474361
vt 0.722923458 0.748410761
vt 0.8875595 0.760972261
vt 0.722923458 0.748410761
vt 0.6110295 0.771474361
vt 0.6110295 0.771474361
vt 0.7076726 0.784698
vt 0.8875595 0.760972261
vt 0.7076726 0.784698
vt 0.7856164 0.788578749
vt 0.8875595 0.760972261
vt 0.7856164 0.788578749
vt 0.861222863 0.817526
vt 0.8875595 0.760972261
vt 0.861222863 0.817526
vt 0.9995005 0.7761799
vt 0.8875595 0.760972261
vt 0.9995005 0.7761799
vt 0.9936025 0.735216439
vt 0.8875595 0.760972261
vt 0.722923458 0.748410761
vt 0.8875595 0.760972261
vt 0.9936025 0.735216439
vt 0.9936025 0.735216439
vt 0.9322225 0.7192348
vt 0.722923458 0.748410761
vt 0.569805264 0.6838558
vt 0.722923458 0.748410761
vt 0.9322225 0.7192348
vt 0.9322225 0.7192348
vt 0.929101944 0.705114245
vt 0.569805264 0.6838558
vt 0.929101944 0.705114245
vt 0.9993557 0.7012083
vt 0.569805264 0.6838558
vt 0.9993557 0.7012083
vt 0.9714401 0.651018143
vt 0.569805264 0.6838558
vt 0.9714401 0.651018143
vt 0.7802584 0.595177
vt 0.569805264 0.6838558
vt 0.5698053 0.6838558
vt 0.7229235 0.748410761
vt 0.388431758 0.7483987
vt 0.365859449 0.6091349
vt 0.5698053 0.6838558
vt 0.240845859 0.640786648
vt 0.5698053 0.6838558
vt 0.388431758 0.7483987
vt 0.0379019678 0.701453865
vt 0.0379019678 0.701453865
vt 0.240845859 0.640786648
vt 0.5698053 0.6838558
vt 0.18668133 0.804732561
vt 0.0004995465 0.771960139
vt 0.0379019678 0.701453865
vt 0.0379019678 0.701453865
vt 0.388431758 0.7483987
vt 0.18668133 0.804732561
vt 0.0004995465 0.771960139
vt 0.18668133 0.804732561
vt 0.08233401 0.856436551
vt 0.08233401 0.856436551
vt 0.18668133 0.804732561
vt 0.410727739 0.9235797
vt 0.410727739 0.9235797
vt 0.18668133 0.804732561
vt 0.360352 0.830601752
vt 0.360352 0.830601752
vt 0.18668133 0.804732561
vt 0.41509524 0.8148478
vt 0.41509524 0.8148478
vt 0.18668133 0.804732561
vt 0.397247076 0.7904571
vt 0.397247076 0.7904571
vt 0.18668133 0.804732561
vt 0.388431758 0.7483987
vt 0.388431758 0.7483987
vt 0.445185423 0.7717725
vt 0.397247076 0.7904571
vt 0.445185423 0.7717725
vt 0.388431758 0.7483987
vt 0.7229235 0.748410761
vt 0.7229235 0.748410761
vt 0.6110295 0.771474361
vt 0.445185423 0.7717725
vt 0.6110295 0.771474361
vt 0.7229235 0.748410761
vt 0.887559533 0.760972261
vt 0.887559533 0.760972261
vt 0.7076726 0.784698
vt 0.6110295 0.771474361
vt 0.7076726 0.784698
vt 0.887559533 0.760972261
vt 0.7856164 0.788578749
vt 0.7856164 0.788578749
vt 0.887559533 0.760972261
vt 0.861222863 0.817526
vt 0.861222863 0.817526
vt 0.887559533 0.760972261
vt 0.9995005 0.7761799
vt 0.9995005 0.7761799
vt 0.887559533 0.760972261
vt 0.9936025 0.735216439
vt 0.9936025 0.735216439
vt 0.887559533 0.760972261
vt 0.7229235 0.748410761
vt 0.7229235 0.748410761
vt 0.9322225 0.7192348
vt 0.9936025 0.735216439
vt 0.9322225 0.7192348
vt 0.7229235 0.748410761
vt 0.5698053 0.6838558
vt 0.5698053 0.6838558
vt 0.929101944 0.705114245
vt 0.9322225 0.7192348
vt 0.929101944 0.705114245
vt 0.5698053 0.6838558
vt 0.9993557 0.7012083
vt 0.9993557 0.7012083
vt 0.5698053 0.6838558
vt 0.9714401 0.651018143
vt 0.9714401 0.651018143
vt 0.5698053 0.6838558
vt 0.7802584 0.595177
vt 0.7011315 0.386034667
vt 0.7167581 0.6608863
vt 0.8129314 0.660856545
vt 0.7951524 0.378200769
vt 0.586885 0.3612548
vt 0.7011315 0.386034667
vt 0.7951524 0.378200769
vt 0.6796613 0.35311234
vt 0.5334876 0.290506065
vt 0.586885 0.3612548
vt 0.6796613 0.35311234
vt 0.653563261 0.294913054
vt 0.6450264 0.245204031
vt 0.7397432 0.246591091
vt 0.570996463 0.183474422
vt 0.6450264 0.245204031
vt 0.7397432 0.246591091
vt 0.6847022 0.181160748
vt 0.5480214 0.09027016
vt 0.570996463 0.183474422
vt 0.6847022 0.181160748
vt 0.6852444 0.07955396
vt 0.5713196 0.06873155
vt 0.5480214 0.09027016
vt 0.6852444 0.07955396
vt 0.6647374 0.0004994869
vt 0.6647374 0.0004994869
vt 0.363483667 0.07970172
vt 0.5713196 0.06873155
vt 0.190240353 0.183797
vt 0.166485965 0.304755569
vt 0.340916872 0.230110347
vt 0.5480214 0.09027016
vt 0.5713196 0.06873155
vt 0.363483667 0.07970172
vt 0.190240353 0.183797
vt 0.340916872 0.230110347
vt 0.3389433 0.2292788
vt 0.33481735 0.29111594
vt 0.5334876 0.290506065
vt 0.6450264 0.245204031
vt 0.570996463 0.183474422
vt 0.334845066 0.6610806
vt 0.586885 0.3612548
vt 0.7167581 0.6608863
vt 0.7011315 0.386034667
vt 0.7167581 0.6608863
vt 0.7011315 0.3860346
vt 0.7011315 0.3860346
vt 0.5869148 0.361260474
vt 0.5869148 0.361260474
vt 0.533540368 0.29048574
vt 0.645063639 0.24519968
vt 0.645063639 0.24519968
vt 0.570996463 0.1834743
vt 0.570996463 0.1834743
vt 0.5480214 0.09027016
vt 0.5480214 0.09027016
vt 0.5713196 0.0687316656
vt 0.5713196 0.0687316656
vt 0.570996463 0.1834743
vt 0.5480214 0.09027016
vt 0.5713196 0.0687316656
vt 0.533540368 0.29048574
vt 0.645063639 0.24519968
vt 0.7011315 0.3860346
vt 0.7167581 0.6608863
vt 0.5869148 0.361260474
vt 0.5706558 0.9406048
vt 0.57377106 0.788961649
vt 0.442727268 0.788597
vt 0.439016074 0.9361714
vt 0.3431908 0.9727956
vt 0.475798815 0.989790261
vt 0.655419052 0.9995006
vt 0.4764263 0.989774466
vt 0.57377106 0.788961649
vt 0.5706558 0.9406048
vt 0.7078205 0.9434422
vt 0.7050278 0.7892611
vt 0.573771 0.788961649
vt 0.5747825 0.9407597
vt 0.5747825 0.9407597
vt 0.573771 0.788961649
vt 0.3431908 0.9727956
vt 0.4764263 0.989774466
vt 0.5706558 0.9406048
vt 0.5706558 0.9406048
vt 0.439016074 0.9361714
vt 0.3431908 0.9727956
vt 0.4764263 0.989774466
vt 0.655419052 0.9995006
vt 0.7078205 0.9434422
vt 0.7078205 0.9434422
vt 0.5706558 0.9406048
vt 0.4764263 0.989774466
vt 0.475798815 0.989790261
vt 0.3431908 0.9727956
vt 0.439016074 0.9361714
vt 0.439016074 0.9361714
vt 0.5747825 0.9407597
vt 0.475798815 0.989790261
vt 0.655419052 0.9995006
vt 0.475798815 0.989790261
vt 0.5747825 0.9407597
vt 0.5747825 0.9407597
vt 0.7078205 0.9434422
vt 0.655419052 0.9995006
vt 0.505658448 0.7796725
vt 0.498132378 0.7471781
vt 0.312231243 0.748212934
vt 0.3469443 0.8081627
vt 0.5488004 0.7885072
vt 0.505658448 0.7796725
vt 0.3469443 0.8081627
vt 0.494646221 0.833605051
vt 0.6015841 0.787531257
vt 0.5488004 0.7885072
vt 0.494646221 0.833605051
vt 0.66467464 0.8325163
vt 0.648169 0.777293
vt 0.6015841 0.787531257
vt 0.66467464 0.8325163
vt 0.8168005 0.798723757
vt 0.6512438 0.746466041
vt 0.648169 0.777293
vt 0.8168005 0.798723757
vt 0.8325896 0.7570701
vt 0.6512438 0.746466041
vt 0.498132378 0.7471781
vt 0.505658448 0.7796725
vt 0.5488004 0.7885072
vt 0.6015841 0.787531257
vt 0.648169 0.777293
vt 0.498132348 0.7471781
vt 0.505658448 0.7796725
vt 0.505658448 0.7796725
vt 0.5488004 0.7885072
vt 0.5488004 0.7885072
vt 0.6015841 0.787531257
vt 0.6015841 0.787531257
vt 0.648169 0.777293
vt 0.648169 0.777293
vt 0.651243865 0.746466041
vt 0.6015841 0.787531257
vt 0.5488004 0.7885072
vt 0.505658448 0.7796725
vt 0.648169 0.777293
vt 0.651243865 0.746466041
vt 0.498132348 0.7471781
vt 0.7802584 0.595177
vt 0.365859449 0.6091349
vt 0.569805264 0.6838558
vt 0.7802584 0.595177
vt 0.5698053 0.6838558
vt 0.365859449 0.6091349
vn 1 -3.3261955E-07 -1.026869E-07
vn 1 -3.3261955E-07 -1.02686911E-07
vn 1 -3.3261955E-07 -1.02686904E-07
vn 0.9468372 -0.250049919 0.202421367
vn 0.9468372 -0.250049919 0.202421367
vn 0.9468372 -0.250049919 0.202421367
vn 0.864525735 -0.4998839 0.0520710945
vn 0.864525735 -0.4998839 0.0520710945
vn 0.864525735 -0.4998839 0.0520710945
vn 0.9497251 -0.294725239 0.10563729
vn 0.9497251 -0.294725239 0.10563729
vn 0.9497251 -0.294725239 0.10563729
vn 0.9511861 -0.256226 0.172026768
vn 0.9511861 -0.256226 0.172026768
vn 0.9511861 -0.256226 0.172026768
vn 0.947352469 -0.258951366 0.188328162
vn 0.947352469 -0.258951366 0.188328162
vn 0.947352469 -0.258951366 0.188328162
vn 0.7403529 -0.658543646 -0.134899259
vn 0.7403529 -0.658543646 -0.134899259
vn 0.7403529 -0.658543646 -0.134899259
vn 0.914308965 -0.3114961 -0.258861631
vn 0.914308965 -0.3114961 -0.258861631
vn 0.914308965 -0.3114961 -0.258861631
vn 0.6896572 0.704444051 0.167724445
vn 0.6896572 0.704444051 0.167724445
vn 0.6896572 0.704444051 0.167724445
vn 0.889015436 0.366301626 -0.2747266
vn 0.889015436 0.366301626 -0.2747266
vn 0.889015436 0.366301626 -0.2747266
vn 0.894977 0.444102764 0.04229564
vn 0.894977 0.444102764 0.04229564
vn 0.894977 0.444102764 0.04229564
vn 0.559227943 0.6369078 -0.5306718
vn 0.559227943 0.6369078 -0.5306718
vn 0.559227943 0.6369078 -0.5306718
vn 0.472646475 0.7211262 -0.5065396
vn 0.472646475 0.7211262 -0.5065396
vn 0.472646475 0.7211262 -0.5065396
vn 0.488070816 -0.00167980138 -0.872802436
vn 0.488070816 -0.00167980138 -0.872802436
vn 0.488070816 -0.00167980138 -0.872802436
vn 0.422800869 0.0284821652 -0.9057749
vn 0.422800869 0.0284821652 -0.9057749
vn 0.422800869 0.0284821652 -0.9057749
vn 0.5572839 -0.194641948 -0.807185948
vn 0.5572839 -0.194641948 -0.807185948
vn 0.5572839 -0.194641948 -0.807185948
vn 0.85074687 -0.263277084 -0.454879016
vn 0.85074687 -0.263277084 -0.454879016
vn 0.85074687 -0.263277084 -0.454879016
vn 0.796495855 -0.18045114 -0.577089
vn 0.796495855 -0.18045114 -0.577089
vn 0.796495855 -0.18045114 -0.577089
vn 0.600348 -0.773407161 -0.203528091
vn 0.600348 -0.773407161 -0.203528091
vn 0.600348 -0.773407161 -0.203528091
vn 0.76369065 0.587716639 -0.267143548
vn 0.76369065 0.587716639 -0.267143548
vn 0.76369065 0.587716639 -0.267143548
vn 0.649692833 0.760196865 -4.03167832E-07
vn 0.649692833 0.760196865 -4.03167832E-07
vn 0.649692833 0.760196865 -4.03167832E-07
vn 0.7996578 0.372275949 0.4711242
vn 0.7996578 0.372275949 0.4711242
vn 0.7996578 0.372275949 0.4711242
vn 0.85142386 0.4029159 0.335762084
vn 0.85142386 0.4029159 0.335762084
vn 0.85142386 0.4029159 0.335762084
vn 0.8567399 0.456450582 0.240103453
vn 0.8567399 0.456450582 0.240103453
vn 0.8567399 0.456450582 0.240103453
vn 0.941978157 0.3356742 2.698748E-08
vn 0.941978157 0.3356742 2.698748E-08
vn 0.941978157 0.3356742 2.698748E-08
vn 0.6860114 0.130154654 -0.7158548
vn 0.6860114 0.130154654 -0.7158548
vn 0.6860114 0.130154654 -0.7158548
vn 0.957620263 0.283548474 0.0506334081
vn 0.957620263 0.283548474 0.0506334081
vn 0.957620263 0.283548474 0.0506334081
vn 0.95733577 0.237357691 0.1648318
vn 0.95733577 0.237357691 0.1648318
vn 0.95733577 0.237357691 0.1648318
vn -1 1.51810951E-07 3.68970063E-07
vn -1 1.51810937E-07 3.68970035E-07
vn -1 1.51810937E-07 3.68970035E-07
vn -0.946837068 -0.250050247 0.202421561
vn -0.946837068 -0.250050247 0.202421561
vn -0.946837068 -0.250050247 0.202421561
vn -0.9511859 -0.256226242 0.172027618
vn -0.9511859 -0.256226242 0.172027618
vn -0.9511859 -0.256226242 0.172027618
vn -0.94735235 -0.258951545 0.188328579
vn -0.94735235 -0.258951545 0.188328579
vn -0.94735235 -0.258951545 0.188328579
vn -0.864525437 -0.499884367 0.0520713255
vn -0.864525437 -0.499884367 0.0520713255
vn -0.864525437 -0.499884367 0.0520713255
vn -0.9497249 -0.294725835 0.10563755
vn -0.9497249 -0.294725835 0.10563755
vn -0.9497249 -0.294725835 0.10563755
vn -0.7403529 -0.658543766 -0.134898782
vn -0.7403529 -0.658543766 -0.134898782
vn -0.7403529 -0.658543766 -0.134898782
vn -0.914309144 -0.311495781 -0.2588612
vn -0.914309144 -0.311495781 -0.2588612
vn -0.914309144 -0.311495781 -0.2588612
vn -0.6896571 0.7044441 0.167724714
vn -0.6896571 0.7044441 0.167724714
vn -0.6896571 0.7044441 0.167724714
vn -0.8890155 0.366301477 -0.27472654
vn -0.8890155 0.366301477 -0.27472654
vn -0.8890155 0.366301477 -0.27472654
vn -0.8949771 0.4441026 0.0422954522
vn -0.8949771 0.4441026 0.0422954522
vn -0.8949771 0.4441026 0.0422954522
vn -0.5592281 0.636907637 -0.530671835
vn -0.5592281 0.636907637 -0.530671835
vn -0.5592281 0.636907637 -0.530671835
vn -0.472645968 0.721126556 -0.506539464
vn -0.472645968 0.721126556 -0.506539464
vn -0.472645968 0.721126556 -0.506539464
vn -0.488070726 -0.00167956552 -0.872802436
vn -0.488070726 -0.00167956552 -0.872802436
vn -0.488070726 -0.00167956552 -0.872802436
vn -0.422801256 0.02848219 -0.9057747
vn -0.422801256 0.02848219 -0.9057747
vn -0.422801256 0.02848219 -0.9057747
vn -0.557284355 -0.194642067 -0.8071856
vn -0.557284355 -0.194642067 -0.8071856
vn -0.557284355 -0.194642067 -0.8071856
vn -0.8507472 -0.263277262 -0.4548783
vn -0.8507472 -0.263277262 -0.4548783
vn -0.8507472 -0.263277262 -0.4548783
vn -0.796496034 -0.180450976 -0.5770889
vn -0.796496034 -0.180450976 -0.5770889
vn -0.796496034 -0.180450976 -0.5770889
vn -0.6003485 -0.773406744 -0.203528076
vn -0.6003485 -0.773406744 -0.203528076
vn -0.6003485 -0.773406744 -0.203528076
vn -0.763690531 0.5877168 -0.267143726
vn -0.763690531 0.5877168 -0.267143726
vn -0.763690531 0.5877168 -0.267143726
vn -0.6496922 0.7601974 -1.94286738E-08
vn -0.6496922 0.7601974 -1.94286738E-08
vn -0.6496922 0.7601974 -1.94286738E-08
vn -0.7996572 0.3722757 0.471125424
vn -0.7996572 0.3722757 0.471125424
vn -0.7996572 0.3722757 0.471125424
vn -0.851423562 0.402915776 0.335763037
vn -0.851423562 0.402915776 0.335763037
vn -0.851423562 0.402915776 0.335763037
vn -0.85673964 0.45645085 0.2401037
vn -0.85673964 0.45645085 0.2401037
vn -0.85673964 0.45645085 0.2401037
vn -0.941978157 0.335674167 -1.20288576E-07
vn -0.941978157 0.335674167 -1.20288576E-07
vn -0.941978157 0.335674167 -1.20288576E-07
vn -0.686012 0.13015458 -0.7158543
vn -0.686012 0.13015458 -0.7158543
vn -0.686012 0.13015458 -0.7158543
vn -0.9576202 0.283548534 0.0506338552
vn -0.9576202 0.283548534 0.0506338552
vn -0.9576202 0.283548534 0.0506338552
vn -0.9573357 0.237357825 0.16483213
vn -0.9573357 0.237357825 0.16483213
vn -0.9573357 0.237357825 0.16483213
vn 0.8056016 0.592430055 0.00572079467
vn 0.752638 0.65834856 0.010641478
vn -2.91678873E-07 0.999872565 0.01596489
vn 2.603094E-07 0.9999551 0.009474103
vn 0.8006405 0.424164236 0.423154116
vn 0.792904735 0.428260028 0.4334691
vn -2.45954965E-07 0.7047096 0.709495842
vn 4.65534669E-07 0.7097737 0.704429746
vn 0.820889831 0.5639639 -0.0899144858
vn 0.809450269 0.5843724 0.05743867
vn 0.000320142717 0.995273054 0.0971157253
vn 0.00212273374 0.988614857 -0.150453344
vn 0.7731544 0.588889062 -0.235461161
vn 3.802583E-07 0.93046093 -0.366391182
vn 0.8148354 0.569012344 0.110761456
vn 0.7649626 0.628667 0.140035808
vn 2.54384076E-07 0.97703743 0.213067815
vn -2.62882935E-07 0.982450545 0.18652311
vn 0.9271975 0.374564 0.0025673334
vn 0.824112833 0.565179944 0.03754522
vn -4.84111752E-07 0.998079062 0.0619528666
vn 8.028821E-06 1 -2.015317E-08
vn 0.9410082 0.33770743 -0.02138326
vn 0.9337538 0.357905865 0.002699919
vn -3.511482E-06 0.9993956 -0.0347624347
vn 2.04951834E-06 0.994688034 -0.102935284
vn -2.68545477E-06 -0.841110766 0.5408629
vn -7.196889E-06 -0.841110766 0.5408629
vn 0.9678761 -0.211478576 0.135987818
vn 1 1.3527179E-07 -2.06449613E-07
vn 1 1.3527179E-07 -2.064496E-07
vn 1 1.3527179E-07 -2.064496E-07
vn 0.976934731 -0.205309853 0.0587055869
vn 0.9755065 -0.194162592 0.103382841
vn 2.233872E-06 -0.9605009 0.27827692
vn 0.9380184 -0.34637633 0.0120381592
vn 0.935416937 -0.333716452 -0.116741307
vn 0.00129278493 -0.9999013 -0.013990907
vn 0.9643086 -0.26467663 0.00742596434
vn 0.98933 -0.142676279 0.0294902269
vn 0.9862996 -0.162861079 -0.0262568928
vn -1.5228411E-06 -0.99952507 -0.030815253
vn 0.9939841 -0.10839837 -0.0156668685
vn 0.9914484 -0.130474955 -0.002518377
vn 0.9991462 -0.03440518 -0.0228702724
vn -0.752638 0.6583485 0.0106417779
vn -0.805601537 0.5924301 0.005721128
vn -0.7929044 0.4282597 0.43347
vn -0.8006408 0.42416358 0.423154235
vn -0.809327543 0.5846185 0.0566581264
vn -0.818753242 0.5670401 -0.09004819
vn -0.7728074 0.589336455 -0.23548089
vn -0.7649621 0.628667533 0.140036345
vn -0.814835668 0.569012046 0.1107616
vn -0.8241132 0.5651794 0.03754563
vn -0.9271977 0.3745636 0.00256778137
vn -0.9337539 0.3579055 0.002700381
vn -0.94100827 0.337707251 -0.0213827044
vn -0.967875957 -0.211478829 0.135988221
vn -1 -1.3527179E-07 2.06449613E-07
vn -1 -1.3527179E-07 2.064496E-07
vn -1 -1.3527179E-07 2.064496E-07
vn -0.98564744 -0.168788061 0.00311005139
vn -0.9769347 -0.205310211 0.0587057136
vn -0.9755064 -0.194162771 0.103382871
vn -1 -1.04104188E-07 2.214928E-07
vn -0.9770819 -0.132419109 -0.166661724
vn -0.9770819 -0.132419109 -0.166661724
vn -0.9770819 -0.132419124 -0.166661724
vn -0.9639001 -0.2661552 0.007613723
vn -0.989407837 -0.141954333 0.0303492155
vn -0.9991463 -0.03440512 -0.0228696764
vn -0.9914485 -0.13047415 -0.002517943
vn -0.994351 -0.104919866 -0.0160559956
vn 0.8678673 -0.496774882 0.00459203543
vn 0.8455155 -0.5339482 0.00169775309
vn -5.589135E-07 -0.999994 0.00346502732
vn 1.69870262E-07 -0.999954343 0.009553817
vn 9.564144E-07 -0.377532274 -0.9259964
vn 0.419831485 -0.342649072 -0.8404363
vn 1.26701411E-06 -0.377532274 -0.9259964
vn -0.419829726 -0.342649341 -0.840437055
vn 0.8466391 0.5321652 0.00153780263
vn 0.86882937 0.495109081 -0.00157432677
vn -3.63417115E-07 0.9999959 -0.00286963675
vn -5.199261E-07 0.999994934 0.00317461812
vn -0.845515966 -0.533947468 0.00169800606
vn -0.867867053 -0.49677527 0.00459220726
vn -0.8688296 0.495108724 -0.00157406228
vn -0.8466394 0.532164752 0.00153805257
vn 0.8505465 -0.447712779 0.2759057
vn 0.8505465 -0.447712779 0.2759057
vn 0.8505465 -0.447712779 0.2759057
vn 0.8361367 -0.462139547 0.29546988
vn 0.8361367 -0.462139547 0.29546988
vn 0.8361367 -0.462139547 0.29546988
vn 0.894837 0.442111284 -0.0616788454
vn 0.894837 0.442111284 -0.0616788454
vn 0.894837 0.442111284 -0.0616788454
vn 0.866240859 0.488624 -0.104275592
vn 0.866240859 0.488624 -0.104275592
vn 0.866240859 0.488624 -0.104275592
vn -0.850994051 -0.442469746 0.2828951
vn -0.850994051 -0.442469746 0.2828951
vn -0.850994051 -0.442469746 0.2828951
vn -0.839477062 -0.464719146 0.281628162
vn -0.839477062 -0.464719146 0.281628162
vn -0.839477062 -0.464719146 0.281628162
vn -0.89478904 0.439091355 -0.08094056
vn -0.89478904 0.439091355 -0.08094056
vn -0.89478904 0.439091355 -0.08094056
vn -0.868188262 0.4914753 -0.06856528
vn -0.868188262 0.4914753 -0.06856528
vn -0.868188262 0.4914753 -0.06856528
vn 0.9110729 -0.4107614 -0.0349458456
vn 0.916574 -0.3992469 -0.0222267
vn -4.31177725E-08 -0.997085333 -0.07629448
vn -8.888421E-09 -0.9951203 -0.09866944
vn 0.9362398 -0.21949394 -0.274367481
vn 0.9362398 -0.219493985 -0.274367362
vn -5.70112419E-08 -0.6246954 -0.78086853
vn -1.753415E-07 -0.6246953 -0.7808686
vn 0.9426265 0.008557306 -0.333739549
vn 0.9426265 0.008557312 -0.333739549
vn -3.90029129E-07 0.02563224 -0.999671459
vn -1.52434026E-07 0.0256322958 -0.999671459
vn 0.9262057 0.2735131 -0.259487063
vn 0.926205635 0.273513317 -0.259487063
vn -5.097215E-07 0.725463569 -0.688260555
vn 1.78701839E-07 0.7254636 -0.6882605
vn 0.9092877 0.415831864 -0.0167257022
vn 0.9042056 0.426991552 -0.009509639
vn -1.0356559E-07 0.999226332 -0.039329
vn 4.29403542E-07 0.9984963 -0.0548190363
vn 1 2.28857232E-07 -1.12416636E-07
vn 1 3.99385272E-07 -2.44932E-07
vn 1 1.01834011E-07 -4.510434E-08
vn 1 -1.192303E-07 -1.490378E-07
vn 1 -3.1466616E-08 9.149958E-08
vn 1 -9.800737E-09 9.06570747E-08
vn -0.9165741 -0.3992466 -0.0222262181
vn -0.911073 -0.410761237 -0.0349455178
vn -0.936239958 -0.219494358 -0.2743666
vn -0.9362399 -0.219494253 -0.274366766
vn -0.9426267 0.008557085 -0.333738953
vn -0.942626655 0.008557181 -0.333739
vn -0.9262059 0.2735129 -0.2594868
vn -0.9262058 0.273513168 -0.259486765
vn -0.9042055 0.4269918 -0.009509466
vn -0.9092875 0.4158323 -0.0167254042
vn -1 -4.11746555E-07 6.489237E-07
vn -1 -4.258072E-08 1.66071106E-06
vn -1 -3.88017241E-07 5.0457777E-07
vn -1 -4.69391921E-07 3.42693653E-07
vn -1 -4.26565862E-07 2.66053718E-07
vn -1 -3.99385243E-07 2.44931982E-07
vn 0.9483194 -0.0548322126 0.312544018
vn 0.9483194 -0.0548322126 0.312544018
vn 0.9483194 -0.0548322126 0.312544018
vn -0.948319256 -0.054832235 0.312544465
vn -0.948319256 -0.054832235 0.312544465
vn -0.948319256 -0.054832235 0.312544465
vn 0.9999617 0.00328165782 -0.008120265
vn 0.9999617 0.00328165782 -0.008120265
vn 0.9999617 0.00328165758 -0.008120265
vn 0.9036007 -0.326110929 0.277772367
vn 0.9036007 -0.326110929 0.277772367
vn 0.9036007 -0.326110929 0.277772367
vn 0.805332661 -0.5889814 0.06738091
vn 0.805332661 -0.5889814 0.06738091
vn 0.805332661 -0.5889814 0.06738091
vn 0.917185545 -0.358593732 0.173727319
vn 0.917185545 -0.358593732 0.173727319
vn 0.917185545 -0.358593732 0.173727319
vn 0.917941749 -0.3417454 0.20147714
vn 0.917941749 -0.3417454 0.20147714
vn 0.917941749 -0.3417454 0.20147714
vn 0.905195951 -0.344666034 0.248647586
vn 0.905195951 -0.344666034 0.248647586
vn 0.905195951 -0.344666034 0.248647586
vn 0.7124864 -0.686857164 -0.143493548
vn 0.7124864 -0.686857164 -0.143493548
vn 0.7124864 -0.686857164 -0.143493548
vn 0.8553176 -0.356463283 -0.3759864
vn 0.8553176 -0.356463283 -0.3759864
vn 0.8553176 -0.356463283 -0.3759864
vn 0.729045451 0.679840267 0.07943499
vn 0.729045451 0.679840267 0.07943499
vn 0.729045451 0.679840267 0.07943499
vn 0.8169688 0.461481154 -0.345828146
vn 0.8169688 0.461481154 -0.345828146
vn 0.8169688 0.461481154 -0.345828146
vn 0.8261723 0.556530356 0.08782576
vn 0.8261723 0.556530356 0.08782576
vn 0.8261723 0.556530356 0.08782576
vn 0.6065684 0.594732344 -0.5276061
vn 0.6065684 0.594732344 -0.5276061
vn 0.6065684 0.594732344 -0.5276061
vn 0.4970838 0.759233356 -0.420086145
vn 0.4970838 0.759233356 -0.420086145
vn 0.4970838 0.759233356 -0.420086145
vn 0.5198406 0.00156436558 -0.8542619
vn 0.5198406 0.00156436558 -0.8542619
vn 0.5198406 0.00156436558 -0.8542619
vn 0.513427436 0.007153864 -0.8581032
vn 0.513427436 0.007153864 -0.8581032
vn 0.513427436 0.007153864 -0.8581032
vn 0.5798373 -0.15338105 -0.8001643
vn 0.5798373 -0.15338105 -0.8001643
vn 0.5798373 -0.15338105 -0.8001643
vn 0.803248644 -0.319112062 -0.50295043
vn 0.803248644 -0.319112062 -0.50295043
vn 0.803248644 -0.319112062 -0.50295043
vn 0.7248226 -0.154976 -0.6712784
vn 0.7248226 -0.154976 -0.6712784
vn 0.7248226 -0.154976 -0.6712784
vn 0.733909845 -0.5918205 -0.333354026
vn 0.733909845 -0.5918205 -0.333354026
vn 0.733909845 -0.5918205 -0.333354026
vn 0.6852161 0.59072423 -0.426056
vn 0.6852161 0.59072423 -0.426056
vn 0.6852161 0.59072423 -0.426056
vn 0.615816653 0.78751 0.0244525466
vn 0.615816653 0.78751 0.0244525466
vn 0.615816653 0.78751 0.0244525466
vn 0.7476444 0.363815665 0.555577159
vn 0.7476444 0.363815665 0.555577159
vn 0.7476444 0.363815665 0.555577159
vn 0.8131034 0.4483112 0.3713219
vn 0.8131034 0.4483112 0.3713219
vn 0.8131034 0.4483112 0.3713219
vn 0.8132538 0.521259069 0.25866428
vn 0.8132538 0.521259069 0.25866428
vn 0.8132538 0.521259069 0.25866428
vn 0.8913703 0.4527619 0.0215781778
vn 0.8913703 0.4527619 0.0215781778
vn 0.8913703 0.4527619 0.0215781778
vn 0.7167849 0.174073115 -0.675217
vn 0.7167849 0.174073115 -0.675217
vn 0.7167849 0.174073115 -0.675217
vn 0.917994261 0.393771142 0.04723171
vn 0.917994261 0.393771142 0.04723171
vn 0.917994261 0.393771142 0.04723171
vn 0.9168189 0.3212316 0.237177938
vn 0.9168189 0.3212316 0.237177938
vn 0.9168189 0.3212316 0.237177938
vn -0.9999617 0.00328218 -0.008119803
vn -0.9999617 0.00328218 -0.008119802
vn -0.9999617 0.00328217982 -0.008119803
vn -0.9036005 -0.3261112 0.2777726
vn -0.9036005 -0.3261112 0.2777726
vn -0.9036005 -0.3261112 0.2777726
vn -0.917941451 -0.341745615 0.201478019
vn -0.917941451 -0.341745615 0.201478019
vn -0.917941451 -0.341745615 0.201478019
vn -0.9051958 -0.3446662 0.248647928
vn -0.9051958 -0.3446662 0.248647928
vn -0.9051958 -0.3446662 0.248647928
vn -0.8053324 -0.5889817 0.0673812255
vn -0.8053324 -0.5889817 0.0673812255
vn -0.8053324 -0.5889817 0.0673812255
vn -0.917185247 -0.358594358 0.173727557
vn -0.917185247 -0.358594358 0.173727557
vn -0.917185247 -0.358594358 0.173727557
vn -0.7124863 -0.686857343 -0.1434931
vn -0.7124863 -0.686857343 -0.1434931
vn -0.7124863 -0.686857343 -0.1434931
vn -0.855317831 -0.356463075 -0.375986069
vn -0.855317831 -0.356463075 -0.375986069
vn -0.855317831 -0.356463075 -0.375986069
vn -0.729045451 0.679840267 0.0794352442
vn -0.729045451 0.679840267 0.0794352442
vn -0.729045451 0.679840267 0.0794352442
vn -0.816969 0.461481124 -0.345827878
vn -0.816969 0.461481124 -0.345827878
vn -0.816969 0.461481124 -0.345827878
vn -0.8261724 0.556530237 0.08782533
vn -0.8261724 0.556530237 0.08782533
vn -0.8261724 0.556530237 0.08782533
vn -0.6065686 0.594732046 -0.5276062
vn -0.6065686 0.594732046 -0.5276062
vn -0.6065686 0.594732046 -0.5276062
vn -0.497083455 0.759233832 -0.4200857
vn -0.497083455 0.759233832 -0.4200857
vn -0.497083455 0.759233832 -0.4200857
vn -0.5198406 0.00156463718 -0.8542618
vn -0.5198406 0.00156463718 -0.8542618
vn -0.5198406 0.00156463718 -0.8542618
vn -0.513427854 0.007153809 -0.858103
vn -0.513427854 0.007153809 -0.858103
vn -0.513427854 0.007153809 -0.858103
vn -0.579837739 -0.153381065 -0.800164044
vn -0.579837739 -0.153381065 -0.800164044
vn -0.579837739 -0.153381065 -0.800164044
vn -0.803249 -0.3191123 -0.502949655
vn -0.803249 -0.3191123 -0.502949655
vn -0.803249 -0.3191123 -0.502949655
vn -0.7248226 -0.154975414 -0.6712785
vn -0.7248226 -0.154975414 -0.6712785
vn -0.7248226 -0.154975414 -0.6712785
vn -0.733909965 -0.591820359 -0.333353847
vn -0.733909965 -0.591820359 -0.333353847
vn -0.733909965 -0.591820359 -0.333353847
vn -0.6852159 0.5907245 -0.426055968
vn -0.6852159 0.5907245 -0.426055968
vn -0.6852159 0.5907245 -0.426055968
vn -0.615816057 0.787510455 0.024452759
vn -0.615816057 0.787510455 0.024452759
vn -0.615816057 0.787510455 0.024452759
vn -0.74764365 0.363815278 0.5555784
vn -0.74764365 0.363815278 0.5555784
vn -0.74764365 0.363815278 0.5555784
vn -0.8131032 0.448311359 0.371322185
vn -0.8131032 0.448311359 0.371322185
vn -0.8131032 0.448311359 0.371322185
vn -0.813253641 0.521259248 0.258664578
vn -0.813253641 0.521259248 0.258664578
vn -0.813253641 0.521259248 0.258664578
vn -0.8913704 0.452761739 0.0215776749
vn -0.8913704 0.452761739 0.0215776749
vn -0.8913704 0.452761739 0.0215776749
vn -0.716784954 0.174072951 -0.675217
vn -0.716784954 0.174072951 -0.675217
vn -0.716784954 0.174072951 -0.675217
vn -0.9179942 0.393771172 0.04723224
vn -0.9179942 0.393771172 0.04723224
vn -0.9179942 0.393771172 0.04723224
vn -0.9168188 0.321231723 0.237178147
vn -0.9168188 0.321231723 0.237178147
vn -0.9168188 0.321231723 0.237178147
vn 0.661649346 0.7497443 0.0101794582
vn 0.660695 0.7505833 0.0103332577
vn -5.98501231E-07 0.999905467 0.0137514332
vn -1.13688195E-07 0.99990803 0.0135635491
vn 0.6536532 0.5364439 0.5338215
vn 0.6525526 0.536402762 0.53520757
vn -1.60077E-06 0.7087292 0.705480635
vn 2.71469144E-05 0.7096746 0.704529643
vn 0.728417 0.6747161 -0.119024642
vn 0.6735403 0.731312335 0.10735786
vn 0.000224516582 0.9912633 0.131897867
vn 0.0019086434 0.9858541 -0.167595074
vn 0.6736897 0.6804057 -0.288427323
vn -0.000272353238 0.933345854 -0.3589784
vn 0.697319031 0.7026539 0.141505137
vn 0.6434531 0.7427912 0.185011744
vn 0.000100731915 0.9749621 0.222370952
vn -9.42422332E-07 0.983939767 0.178500667
vn 0.792271554 0.6100838 0.0101729874
vn 0.7181841 0.693689048 0.0548369959
vn 2.49382651E-07 0.9980452 0.0624964051
vn -3.57266E-08 0.999999344 -0.00115068187
vn 0.781367242 0.623670638 -0.022365747
vn 0.791522741 0.6056036 -0.08207365
vn -3.41780833E-07 0.9999765 -0.00685029849
vn 4.851742E-07 0.9984389 0.05585482
vn -3.3436686E-07 -0.7731638 0.6342064
vn -1.27515239E-06 -0.7731638 0.6342064
vn 0.811837 -0.451438069 0.3703031
vn -1 -2.381177E-07 -1.86762151E-07
vn 1 -1.32167912E-07 -2.37102938E-07
vn 1 2.87001717E-06 6.376073E-07
vn 0.885191739 -0.459379375 0.07352645
vn 0.885037243 -0.434336841 0.167512849
vn 1.33802314E-06 -0.984134555 0.17742385
vn -2.40170471E-06 -0.994112551 -0.108352259
vn -0.9999829 0.00170982769 -0.00559510943
vn 9.43701743E-05 -0.981409848 -0.191923812
vn 0.00129863678 -0.999973953 0.007100449
vn 0.9098778 -0.411723 0.0510549
vn 0.9460531 -0.32007587 0.0503492281
vn 0.943857253 -0.327788651 -0.0410859659
vn 1.05063327E-06 -0.9996459 -0.0266110431
vn 0.9883336 -0.1439352 -0.0497935042
vn 0.961429 -0.275047868 -0.00172760535
vn 0.9939595 -0.09413707 -0.0564158559
vn -0.6606956 0.750582755 0.0103335269
vn -0.6616493 0.749744356 0.0101798335
vn -0.652548432 0.5363936 0.5352219
vn -0.653670549 0.536435664 0.5338086
vn -0.6733918 0.7315565 0.106623538
vn -0.726543546 0.676760435 -0.1188688
vn -0.672802866 0.6809916 -0.289113641
vn -0.6433145 0.7428848 0.185118064
vn -0.6972881 0.7026793 0.141531512
vn -0.718184531 0.6936886 0.05483735
vn -0.7922719 0.6100834 0.0101734335
vn -0.791523039 0.6056032 -0.0820734352
vn -0.78136754 0.6236702 -0.0223655086
vn -0.811836958 -0.451438129 0.370303065
vn -0.943860233 -0.327775478 -0.0411225036
vn -0.8851913 -0.45938012 0.07352716
vn -0.885036767 -0.4343374 0.167514041
vn -0.909397542 -0.412753 0.0512936562
vn -0.946087241 -0.3198593 0.0510778353
vn -0.9939562 -0.09417975 -0.0564024933
vn -0.961429358 -0.275046617 -0.00172718614
vn -0.9886124 -0.141870663 -0.0501813143
vn 0.7219111 -0.691923261 -0.009303299
vn 0.7646978 -0.6443859 0.0020208545
vn -0.000788862468 -0.9999988 0.00131300592
vn -0.103370078 -0.99462533 0.00592561439
vn -0.00194279221 -0.368696272 -0.9295479
vn 0.18538931 -0.359377354 -0.9145921
vn 0.00150360167 -0.368642747 -0.92956996
vn -0.1930614 -0.364745378 -0.910872161
vn 0.7669492 0.641705751 0.00164392754
vn 0.7802747 0.6254333 -0.00213541137
vn 0.006868294 0.9999761 -0.000766039069
vn -0.0001747884 0.999995768 0.002897029
vn -0.7646815 -0.644407868 -0.0008260928
vn -0.8204458 -0.5715087 0.01569937
vn -0.7689651 0.6392905 0.000535708154
vn -0.7656229 0.643287957 0.00147431984
vn 0.7903658 -0.5453865 0.2790617
vn 0.7903658 -0.5453865 0.2790617
vn 0.7903658 -0.5453865 0.2790617
vn 0.6794739 -0.5940268 0.4306361
vn 0.6794739 -0.5940268 0.4306361
vn 0.6794739 -0.5940268 0.4306361
vn 0.8269065 0.551298141 -0.110887423
vn 0.8269065 0.551298141 -0.110887423
vn 0.8269065 0.551298141 -0.110887423
vn 0.7741128 0.6018781 -0.196194053
vn 0.7741128 0.6018781 -0.196194053
vn 0.7741128 0.6018781 -0.196194053
vn -0.756133 -0.6096848 0.23779659
vn -0.756133 -0.6096848 0.23779659
vn -0.756133 -0.6096848 0.23779659
vn -0.81375587 -0.510717154 0.2774336
vn -0.81375587 -0.510717154 0.2774336
vn -0.81375587 -0.510717154 0.2774336
vn -0.8259165 0.5352458 -0.17712675
vn -0.8259165 0.5352458 -0.17712675
vn -0.8259165 0.5352458 -0.17712675
vn -0.7685868 0.627085 -0.126644343
vn -0.7685868 0.627085 -0.126644343
vn -0.7685868 0.627085 -0.126644343
vn 0.813555956 -0.5790045 -0.05366968
vn 0.8227944 -0.5675285 -0.0303443074
vn -1.89705212E-08 -0.995274961 -0.09709683
vn 9.857275E-08 -0.992293358 -0.123911023
vn 0.844951153 -0.349418163 -0.404925227
vn 0.847527444 -0.3562223 -0.39345
vn -2.513687E-07 -0.632004261 -0.7749649
vn -2.63257732E-07 -0.6240964 -0.781347334
vn 0.8520602 0.0230677 -0.5229353
vn 0.850917637 0.02770013 -0.5245683
vn -3.935142E-07 0.0329657868 -0.999456465
vn 3.199986E-08 0.0296793543 -0.999559462
vn 0.829838157 0.399308532 -0.3897708
vn 0.8304084 0.3977427 -0.390157223
vn -3.32516436E-07 0.716821 -0.6972572
vn 4.64950922E-09 0.7174916 -0.6965671
vn 0.810053945 0.5856048 -0.02965904
vn 0.800128162 0.599646449 -0.014799607
vn -1.5707327E-08 0.9981384 -0.06098907
vn 2.95176079E-07 0.996675432 -0.081474714
vn 0.9999966 -0.0010065221 -0.00241552619
vn 0.9999965 -0.0009444525 -0.00247421255
vn 0.9999622 -0.00372479018 -0.00785565
vn 0.9990807 -0.0169075467 -0.0393938944
vn 0.999972761 -0.0042396253 -0.00604293076
vn 0.9999986 -0.00116310571 -0.001192614
vn -0.8227945 -0.567528367 -0.0303438473
vn -0.813556 -0.579004467 -0.0536693558
vn -0.8475276 -0.3562227 -0.393449247
vn -0.8449514 -0.3494185 -0.404924572
vn -0.850917935 0.0276998486 -0.5245678
vn -0.852060437 0.0230676569 -0.5229349
vn -0.8304085 0.397742569 -0.390157074
vn -0.8298383 0.3993086 -0.389770567
vn -0.800128162 0.5996465 -0.0147995306
vn -0.8100538 0.5856049 -0.0296588354
vn -0.999972761 -0.004239919 -0.00604236452
vn -0.9990808 -0.0169075169 -0.03939244
vn -0.9999622 -0.003725203 -0.007855086
vn -0.9999986 -0.00116346683 -0.001192357
vn -0.9999966 -0.00100706273 -0.00241514249
vn -0.9999965 -0.0009451628 -0.0024736682
vn 0.9008735 -0.06698451 0.4288823
vn 0.9008735 -0.06698451 0.4288823
vn 0.9008735 -0.06698451 0.4288823
vn -0.9008733 -0.06698468 0.428882629
vn -0.9008733 -0.06698468 0.428882629
vn -0.9008733 -0.06698468 0.428882629
usemtl 02010032_part_0_material_0
f 1/1/1 2/2/2 3/3/3
f 4/4/4 5/5/5 6/6/6
f 7/7/7 8/8/8 9/9/9
f 10/10/10 11/11/11 12/12/12
f 13/13/13 14/14/14 15/15/15
f 16/16/16 17/17/17 18/18/18
f 19/19/19 20/20/20 21/21/21
f 22/22/22 23/23/23 24/24/24
f 25/25/25 26/26/26 27/27/27
f 28/28/28 29/29/29 30/30/30
f 31/31/31 32/32/32 33/33/33
f 34/34/34 35/35/35 36/36/36
f 37/37/37 38/38/38 39/39/39
f 40/40/40 41/41/41 42/42/42
f 43/43/43 44/44/44 45/45/45
f 46/46/46 47/47/47 48/48/48
f 49/49/49 50/50/50 51/51/51
f 52/52/52 53/53/53 54/54/54
f 55/55/55 56/56/56 57/57/57
f 58/58/58 59/59/59 60/60/60
f 61/61/61 62/62/62 63/63/63
f 64/64/64 65/65/65 66/66/66
f 67/67/67 68/68/68 69/69/69
f 70/70/70 71/71/71 72/72/72
f 73/73/73 74/74/74 75/75/75
f 76/76/76 77/77/77 78/78/78
f 79/79/79 80/80/80 81/81/81
f 82/82/82 83/83/83 84/84/84
f 85/85/85 86/86/86 87/87/87
f 88/88/88 89/89/89 90/90/90
f 91/91/91 92/92/92 93/93/93
f 94/94/94 95/95/95 96/96/96
f 97/97/97 98/98/98 99/99/99
f 100/100/100 101/101/101 102/102/102
f 103/103/103 104/104/104 105/105/105
f 106/106/106 107/107/107 108/108/108
f 109/109/109 110/110/110 111/111/111
f 112/112/112 113/113/113 114/114/114
f 115/115/115 116/116/116 117/117/117
f 118/118/118 119/119/119 120/120/120
f 121/121/121 122/122/122 123/123/123
f 124/124/124 125/125/125 126/126/126
f 127/127/127 128/128/128 129/129/129
f 130/130/130 131/131/131 132/132/132
f 133/133/133 134/134/134 135/135/135
f 136/136/136 137/137/137 138/138/138
f 139/139/139 140/140/140 141/141/141
f 142/142/142 143/143/143 144/144/144
f 145/145/145 146/146/146 147/147/147
f 148/148/148 149/149/149 150/150/150
f 151/151/151 152/152/152 153/153/153
f 154/154/154 155/155/155 156/156/156
f 157/157/157 158/158/158 159/159/159
f 160/160/160 161/161/161 162/162/162
f 163/163/163 164/164/164 165/165/165
f 166/166/166 167/167/167 168/168/168
f 169/169/169 170/170/170 171/171/171
f 171/171/171 172/172/172 169/169/169
f 173/173/173 174/174/174 175/175/175
f 175/175/175 176/176/176 173/173/173
f 177/177/177 178/178/178 179/179/179
f 179/179/179 180/180/180 177/177/177
f 181/181/181 177/177/177 180/180/180
f 180/180/180 182/182/182 181/181/181
f 183/183/183 184/184/184 185/185/185
f 185/185/185 186/186/186 183/183/183
f 187/187/187 188/188/188 189/189/189
f 189/189/189 190/190/190 187/187/187
f 191/191/191 192/192/192 193/193/193
f 193/193/193 194/194/194 191/191/191
f 195/195/195 196/196/196 197/197/197
f 198/198/198 199/199/199 200/200/200
f 201/201/201 202/202/202 203/203/203
f 204/204/204 200/200/200 205/205/205
f 205/205/205 206/206/206 207/207/207
f 205/205/205 207/207/207 208/208/208
f 205/205/205 208/208/208 209/209/209
f 204/204/204 205/205/205 209/209/209
f 203/203/203 204/204/204 209/209/209
f 201/201/201 203/203/203 209/209/209
f 207/207/207 206/206/206 210/210/210
f 211/211/211 207/207/207 210/210/210
f 210/210/210 212/212/212 213/213/213
f 211/211/211 210/210/210 213/213/213
f 171/171/171 214/214/214 215/215/215
f 215/215/215 172/172/172 171/171/171
f 175/175/175 216/216/216 217/217/217
f 217/217/217 176/176/176 175/175/175
f 179/179/179 218/218/218 219/219/219
f 219/219/219 180/180/180 179/179/179
f 180/180/180 219/219/219 220/220/220
f 220/220/220 182/182/182 180/180/180
f 185/185/185 221/221/221 222/222/222
f 222/222/222 186/186/186 185/185/185
f 189/189/189 223/223/223 224/224/224
f 224/224/224 190/190/190 189/189/189
f 193/193/193 225/225/225 226/226/226
f 226/226/226 194/194/194 193/193/193
f 195/195/195 227/227/227 196/196/196
f 228/228/228 229/229/229 230/230/230
f 231/231/231 204/204/204 203/203/203
f 232/232/232 231/231/231 203/203/203
f 232/232/232 203/203/203 233/233/233
f 228/228/228 234/234/234 229/229/229
f 235/235/235 236/236/236 237/237/237
f 238/238/238 206/206/206 205/205/205
f 239/239/239 238/238/238 205/205/205
f 239/239/239 205/205/205 231/231/231
f 240/240/240 241/241/241 210/210/210
f 242/242/242 240/240/240 210/210/210
f 238/238/238 242/242/242 210/210/210
f 238/238/238 210/210/210 206/206/206
f 243/243/243 244/244/244 245/245/245
f 245/245/245 246/246/246 243/243/243
f 247/247/247 248/248/248 249/249/249
f 249/249/249 250/250/250 247/247/247
f 251/251/251 252/252/252 253/253/253
f 253/253/253 254/254/254 251/251/251
f 245/245/245 255/255/255 256/256/256
f 256/256/256 246/246/246 245/245/245
f 253/253/253 257/257/257 258/258/258
f 258/258/258 254/254/254 253/253/253
f 259/259/259 260/260/260 261/261/261
f 262/262/262 263/263/263 264/264/264
f 265/265/265 266/266/266 267/267/267
f 268/268/268 269/269/269 270/270/270
f 271/271/271 272/272/272 273/273/273
f 274/274/274 275/275/275 276/276/276
f 277/277/277 278/278/278 279/279/279
f 280/280/280 281/281/281 282/282/282
f 283/283/283 284/284/284 285/285/285
f 285/285/285 286/286/286 283/283/283
f 287/287/287 288/288/288 289/289/289
f 289/289/289 290/290/290 287/287/287
f 291/291/291 292/292/292 293/293/293
f 293/293/293 294/294/294 291/291/291
f 295/295/295 296/296/296 297/297/297
f 297/297/297 298/298/298 295/295/295
f 299/299/299 300/300/300 301/301/301
f 301/301/301 302/302/302 299/299/299
f 303/303/303 304/304/304 305/305/305
f 305/305/305 306/306/306 307/307/307
f 305/305/305 307/307/307 308/308/308
f 303/303/303 305/305/305 308/308/308
f 285/285/285 309/309/309 310/310/310
f 310/310/310 286/286/286 285/285/285
f 289/289/289 311/311/311 312/312/312
f 312/312/312 290/290/290 289/289/289
f 293/293/293 313/313/313 314/314/314
f 314/314/314 294/294/294 293/293/293
f 297/297/297 315/315/315 316/316/316
f 316/316/316 298/298/298 297/297/297
f 301/301/301 317/317/317 318/318/318
f 318/318/318 302/302/302 301/301/301
f 319/319/319 320/320/320 321/321/321
f 322/322/322 319/319/319 321/321/321
f 323/323/323 322/322/322 321/321/321
f 323/323/323 321/321/321 324/324/324
f 325/325/325 326/326/326 327/327/327
f 328/328/328 329/329/329 330/330/330
usemtl 02010032_part_0_material_1
f 331/331/331 332/332/332 333/333/333
f 334/334/334 335/335/335 336/336/336
f 337/337/337 338/338/338 339/339/339
f 340/340/340 341/341/341 342/342/342
f 343/343/343 344/344/344 345/345/345
f 346/346/346 347/347/347 348/348/348
f 349/349/349 350/350/350 351/351/351
f 352/352/352 353/353/353 354/354/354
f 355/355/355 356/356/356 357/357/357
f 358/358/358 359/359/359 360/360/360
f 361/361/361 362/362/362 363/363/363
f 364/364/364 365/365/365 366/366/366
f 367/367/367 368/368/368 369/369/369
f 370/370/370 371/371/371 372/372/372
f 373/373/373 374/374/374 375/375/375
f 376/376/376 377/377/377 378/378/378
f 379/379/379 380/380/380 381/381/381
f 382/382/382 383/383/383 384/384/384
f 385/385/385 386/386/386 387/387/387
f 388/388/388 389/389/389 390/390/390
f 391/391/391 392/392/392 393/393/393
f 394/394/394 395/395/395 396/396/396
f 397/397/397 398/398/398 399/399/399
f 400/400/400 401/401/401 402/402/402
f 403/403/403 404/404/404 405/405/405
f 406/406/406 407/407/407 408/408/408
f 409/409/409 410/410/410 411/411/411
f 412/412/412 413/413/413 414/414/414
f 415/415/415 416/416/416 417/417/417
f 418/418/418 419/419/419 420/420/420
f 421/421/421 422/422/422 423/423/423
f 424/424/424 425/425/425 426/426/426
f 427/427/427 428/428/428 429/429/429
f 430/430/430 431/431/431 432/432/432
f 433/433/433 434/434/434 435/435/435
f 436/436/436 437/437/437 438/438/438
f 439/439/439 440/440/440 441/441/441
f 442/442/442 443/443/443 444/444/444
f 445/445/445 446/446/446 447/447/447
f 448/448/448 449/449/449 450/450/450
f 451/451/451 452/452/452 453/453/453
f 454/454/454 455/455/455 456/456/456
f 457/457/457 458/458/458 459/459/459
f 460/460/460 461/461/461 462/462/462
f 463/463/463 464/464/464 465/465/465
f 466/466/466 467/467/467 468/468/468
f 469/469/469 470/470/470 471/471/471
f 472/472/472 473/473/473 474/474/474
f 475/475/475 476/476/476 477/477/477
f 478/478/478 479/479/479 480/480/480
f 481/481/481 482/482/482 483/483/483
f 484/484/484 485/485/485 486/486/486
f 487/487/487 488/488/488 489/489/489
f 490/490/490 491/491/491 492/492/492
f 493/493/493 494/494/494 495/495/495
f 496/496/496 497/497/497 498/498/498
f 499/499/499 500/500/500 501/501/501
f 501/501/501 502/502/502 499/499/499
f 503/503/503 504/504/504 505/505/505
f 505/505/505 506/506/506 503/503/503
f 507/507/507 508/508/508 509/509/509
f 509/509/509 510/510/510 507/507/507
f 511/511/511 507/507/507 510/510/510
f 510/510/510 512/512/512 511/511/511
f 513/513/513 514/514/514 515/515/515
f 515/515/515 516/516/516 513/513/513
f 517/517/517 518/518/518 519/519/519
f 519/519/519 520/520/520 517/517/517
f 521/521/521 522/522/522 523/523/523
f 523/523/523 524/524/524 521/521/521
f 525/525/525 526/526/526 527/527/527
f 528/528/528 529/529/529 530/530/530
f 531/531/531 532/532/532 533/533/533
f 534/534/534 535/535/535 536/536/536
f 536/536/536 537/537/537 538/538/538
f 536/536/536 538/538/538 539/539/539
f 536/536/536 539/539/539 540/540/540
f 534/534/534 536/536/536 540/540/540
f 533/533/533 534/534/534 540/540/540
f 531/531/531 533/533/533 540/540/540
f 538/538/538 537/537/537 541/541/541
f 542/542/542 538/538/538 541/541/541
f 541/541/541 543/543/543 544/544/544
f 542/542/542 541/541/541 544/544/544
f 501/501/501 545/545/545 546/546/546
f 546/546/546 502/502/502 501/501/501
f 505/505/505 547/547/547 548/548/548
f 548/548/548 506/506/506 505/505/505
f 509/509/509 549/549/549 550/550/550
f 550/550/550 510/510/510 509/509/509
f 510/510/510 550/550/550 551/551/551
f 551/551/551 512/512/512 510/510/510
f 515/515/515 552/552/552 553/553/553
f 553/553/553 516/516/516 515/515/515
f 519/519/519 554/554/554 555/555/555
f 555/555/555 520/520/520 519/519/519
f 523/523/523 556/556/556 557/557/557
f 557/557/557 524/524/524 523/523/523
f 525/525/525 558/558/558 526/526/526
f 528/528/528 530/530/530 529/529/529
f 559/559/559 534/534/534 533/533/533
f 560/560/560 559/559/559 533/533/533
f 560/560/560 533/533/533 561/561/561
f 534/534/534 536/536/536 535/535/535
f 559/559/559 536/536/536 534/534/534
f 562/562/562 537/537/537 536/536/536
f 563/563/563 562/562/562 536/536/536
f 563/563/563 536/536/536 559/559/559
f 564/564/564 565/565/565 541/541/541
f 566/566/566 564/564/564 541/541/541
f 562/562/562 566/566/566 541/541/541
f 562/562/562 541/541/541 537/537/537
f 567/567/567 568/568/568 569/569/569
f 569/569/569 570/570/570 567/567/567
f 571/571/571 572/572/572 573/573/573
f 573/573/573 574/574/574 571/571/571
f 575/575/575 576/576/576 577/577/577
f 577/577/577 578/578/578 575/575/575
f 569/569/569 579/579/579 580/580/580
f 580/580/580 570/570/570 569/569/569
f 577/577/577 581/581/581 582/582/582
f 582/582/582 578/578/578 577/577/577
f 583/583/583 584/584/584 585/585/585
f 586/586/586 587/587/587 588/588/588
f 589/589/589 590/590/590 591/591/591
f 592/592/592 593/593/593 594/594/594
f 595/595/595 596/596/596 597/597/597
f 598/598/598 599/599/599 600/600/600
f 601/601/601 602/602/602 603/603/603
f 604/604/604 605/605/605 606/606/606
f 607/607/607 608/608/608 609/609/609
f 609/609/609 610/610/610 607/607/607
f 611/611/611 612/612/612 613/613/613
f 613/613/613 614/614/614 611/611/611
f 615/615/615 616/616/616 617/617/617
f 617/617/617 618/618/618 615/615/615
f 619/619/619 620/620/620 621/621/621
f 621/621/621 622/622/622 619/619/619
f 623/623/623 624/624/624 625/625/625
f 625/625/625 626/626/626 623/623/623
f 627/627/627 628/628/628 629/629/629
f 629/629/629 630/630/630 631/631/631
f 629/629/629 631/631/631 632/632/632
f 627/627/627 629/629/629 632/632/632
f 609/609/609 633/633/633 634/634/634
f 634/634/634 610/610/610 609/609/609
f 613/613/613 635/635/635 636/636/636
f 636/636/636 614/614/614 613/613/613
f 617/617/617 637/637/637 638/638/638
f 638/638/638 618/618/618 617/617/617
f 621/621/621 639/639/639 640/640/640
f 640/640/640 622/622/622 621/621/621
f 625/625/625 641/641/641 642/642/642
f 642/642/642 626/626/626 625/625/625
f 643/643/643 644/644/644 645/645/645
f 646/646/646 643/643/643 645/645/645
f 647/647/647 646/646/646 645/645/645
f 647/647/647 645/645/645 648/648/648
f 649/649/649 650/650/650 651/651/651
f 652/652/652 653/653/653 654/654/654
