mtllib 02060005.mtl
o 02060005_part_0
v -0.231895924 -0.197563082 1.2924962
v -0.20943661 0.00295232353 1.31318736
v -0.221617669 0.105009556 1.85506928
v -0.197018564 -0.0296159 0.96297127
v -0.236067265 -0.324573338 0.8982702
v -0.179676354 -0.002681314 0.5908422
v -0.211923048 -0.123225361 0.661786
v -0.213829324 -0.282848984 0.5002188
v -0.231895924 -0.197563082 1.2924962
v -0.221617669 0.105009556 1.85506928
v -0.240055814 0.004043987 1.31315982
v -0.236067265 -0.324573338 0.8982702
v -0.254128277 -0.0275797937 0.9629196
v -0.237436727 -0.371699274 0.555105269
v -0.254336149 -0.284742475 0.5020683
v -0.268835247 0.000497454952 0.5907615
v -0.245331988 -0.121217 0.663613
v -0.179676354 -0.002681314 0.5908422
v -0.211923048 -0.123225361 0.661786
v -0.268835247 0.000497454952 0.5907615
v -0.245331988 -0.121217 0.663613
v -0.197018564 -0.0296159 0.96297127
v -0.179676354 -0.002681314 0.5908422
v -0.254128277 -0.0275797937 0.9629196
v -0.268835247 0.000497454952 0.5907615
v -0.20943661 0.00295232353 1.31318736
v -0.240055814 0.004043987 1.31315982
v -0.221617669 0.105009556 1.85506928
v -0.2470805 -0.09074182 0.109866433
v -0.245331988 -0.121217 0.663613
v -0.207003742 -0.09217067 0.109902717
v -0.211923048 -0.123225361 0.661786
v -0.211923048 -0.123225361 0.661786
v -0.213829324 -0.282848984 0.5002188
v -0.207003742 -0.09217067 0.109902717
v -0.220505655 -0.290363729 0.139812633
v -0.237436727 -0.371699274 0.555105269
v -0.238511682 -0.415794849 0.00597772654
v -0.237533346 -0.381753 0.200562209
v -0.245331988 -0.121217 0.663613
v -0.2470805 -0.09074182 0.109866433
v -0.247344881 -0.291271776 0.138237387
v -0.254336149 -0.284742475 0.5020683
v -0.238511682 -0.415794849 0.00597772654
v -0.237533346 -0.381753 0.200562209
v -0.244499788 -0.02789748 -0.265778542
v -0.20442304 -0.02932633 -0.265742242
v -0.224879831 -0.0474604 -0.4469618
v -0.2470805 -0.09074182 0.109866433
v -0.207003742 -0.09217067 0.109902717
v -0.245591134 -0.05408254 -0.09155425
v -0.205514371 -0.05551139 -0.09151794
v -0.207003742 -0.09217067 0.109902717
v -0.238511682 -0.415794849 0.00597772654
v -0.205514371 -0.05551139 -0.09151794
v -0.238133371 -0.4097652 -0.174414575
v -0.205514371 -0.05551139 -0.09151794
v -0.238511682 -0.415794849 0.00597772654
v -0.238511682 -0.415794849 0.00597772654
v -0.2470805 -0.09074182 0.109866433
v -0.238133371 -0.4097652 -0.174414575
v -0.245591134 -0.05408254 -0.09155425
v -0.238133371 -0.4097652 -0.174414575
v -0.2470805 -0.09074182 0.109866433
v -0.245591134 -0.05408254 -0.09155425
v -0.205514371 -0.05551139 -0.09151794
v -0.244499788 -0.02789748 -0.265778542
v -0.20442304 -0.02932633 -0.265742242
v -0.238133371 -0.4097652 -0.174414575
v -0.245591134 -0.05408254 -0.09155425
v -0.2329901 -0.273081243 -0.4727402
v -0.244499788 -0.02789748 -0.265778542
v -0.2329901 -0.273081243 -0.4727402
v -0.245591134 -0.05408254 -0.09155425
v -0.205514371 -0.05551139 -0.09151794
v -0.238133371 -0.4097652 -0.174414575
v -0.20442304 -0.02932633 -0.265742242
v -0.2329901 -0.273081243 -0.4727402
v -0.20442304 -0.02932633 -0.265742242
v -0.238133371 -0.4097652 -0.174414575
v -0.2329901 -0.273081243 -0.4727402
v -0.244499788 -0.02789748 -0.265778542
v -0.224879831 -0.0474604 -0.4469618
v -0.224879831 -0.0474604 -0.4469618
v -0.20442304 -0.02932633 -0.265742242
v -0.2329901 -0.273081243 -0.4727402
v -0.242238626 -0.5276398 -0.2819154
v -0.236219183 -0.3669757 -0.6036039
v -0.238133371 -0.4097652 -0.174414575
v -0.2329901 -0.273081243 -0.4727402
v -0.221640661 0.03093309 -1.03643477
v -0.225570783 -0.0697801039 -0.6616013
v -0.236219183 -0.3669757 -0.6036039
v -0.242238626 -0.5276398 -0.2819154
v -0.238133371 -0.4097652 -0.174414575
v -0.2329901 -0.273081243 -0.4727402
v -0.221640661 0.03093309 -1.03643477
v -0.225570783 -0.0697801039 -0.6616013
v -0.234871969 -0.311233521 0.3806838
v -0.235305071 -0.3194123 0.448684484
v -0.254336149 -0.284742475 0.5020683
v -0.247344881 -0.291271776 0.138237387
v -0.235305071 -0.3194123 0.448684484
v -0.234871969 -0.311233521 0.3806838
v -0.220505655 -0.290363729 0.139812633
v -0.213829324 -0.282848984 0.5002188
v -0.234871969 -0.311233521 0.3806838
v -0.247344881 -0.291271776 0.138237387
v -0.220505655 -0.290363729 0.139812633
v -0.213829324 -0.282848984 0.5002188
v -0.254336149 -0.284742475 0.5020683
v -0.235305071 -0.3194123 0.448684484
v -0.237436727 -0.371699274 0.555105269
v -0.254336149 -0.284742475 0.5020683
v -0.213829324 -0.282848984 0.5002188
v -0.220505655 -0.290363729 0.139812633
v -0.247344881 -0.291271776 0.138237387
v -0.237533346 -0.381753 0.200562209
v -0.2732913 0.20014599 -0.0576921664
v -0.212429971 0.304908276 -0.07313915
v -0.275917172 0.12292707 -0.198199138
v -0.216531038 0.184307933 -0.292582572
v -0.280989647 -0.0204139724 -0.240238488
v -0.224453241 -0.039561905 -0.35823983
v -0.285537332 -0.145910025 -0.159184411
v -0.231555834 -0.23556143 -0.231649429
v -0.286896259 -0.18004714 -0.00251701148
v -0.2336782 -0.288876653 0.0130332485
v -0.2842704 -0.102828264 0.137989864
v -0.229577124 -0.16827637 0.232476681
v -0.2791979 0.0405128263 0.180029258
v -0.221654937 0.05559349 0.298133731
v -0.274650216 0.166008919 0.0989751145
v -0.214552358 0.251592934 0.171543524
v -0.331984937 0.0118994722 -0.0301516484
v -0.161837786 0.11885982 -0.198095828
v -0.212429971 0.304908276 -0.07313915
v -0.159211919 0.196078673 -0.05758883
v -0.216531038 0.184307933 -0.292582572
v -0.166910261 -0.024481263 -0.240135163
v -0.224453241 -0.039561905 -0.35823983
v -0.171457961 -0.149977311 -0.159081087
v -0.231555834 -0.23556143 -0.231649429
v -0.1728169 -0.1841144 -0.00241374131
v -0.2336782 -0.288876653 0.0130332485
v -0.170191035 -0.106895529 0.138093174
v -0.229577124 -0.16827637 0.232476681
v -0.16511853 0.036445573 0.180132613
v -0.221654937 0.05559349 0.298133731
v -0.160570845 0.161941588 0.0990784
v -0.214552358 0.251592934 0.171543524
v -0.114123277 0.00413208362 -0.0299543161
v -0.224879831 -0.0474604 -0.4469618
v -0.224879831 -0.0474604 -0.4469618
v -0.23319748 -0.233632118 1.30973947
v -0.181124 0.0310349539 1.310063
v -0.221247077 0.116379417 1.8934176
v -0.16532445 -0.005229675 0.9638627
v -0.237459227 -0.363335222 0.9080466
v -0.1552365 0.0130923968 0.563385248
v -0.17700392 -0.118642285 0.64282155
v -0.179251 -0.302770525 0.4974853
v -0.23319748 -0.233632118 1.30973947
v -0.221247077 0.116379417 1.8934176
v -0.265895545 0.034409672 1.309961
v -0.237459227 -0.363335222 0.9080466
v -0.2835969 -0.0005461388 0.963803232
v -0.2385747 -0.409018844 0.5407542
v -0.2864578 -0.3079568 0.4966559
v -0.2920698 0.0179199837 0.563254952
v -0.281153977 -0.111408189 0.648761332
v -0.1552365 0.0130923968 0.563385248
v -0.17700392 -0.118642285 0.64282155
v -0.2920698 0.0179199837 0.563254952
v -0.281153977 -0.111408189 0.648761332
v -0.16532445 -0.005229675 0.9638627
v -0.2835969 -0.0005461388 0.963803232
v -0.181124 0.0310349539 1.310063
v -0.265895545 0.034409672 1.309961
v -0.221247077 0.116379417 1.8934176
v -0.275647223 -0.0629050061 0.112875514
v -0.176589012 -0.0663440153 0.112718314
v -0.176589012 -0.0663440153 0.112718314
v -0.183556765 -0.302379459 0.149320632
v -0.2385747 -0.409018844 0.5407542
v -0.206452638 -0.4395625 0.00327285239
v -0.2384277 -0.403530777 0.23410216
v -0.275647223 -0.0629050061 0.112875514
v -0.285449475 -0.298656046 0.147907615
v -0.206452638 -0.4395625 0.00327285239
v -0.2384277 -0.403530777 0.23410216
v -0.263926 0.007068057 -0.2659597
v -0.175240859 -0.001971521 -0.266080528
v -0.223969251 -0.0228995737 -0.478520244
v -0.275647223 -0.0629050061 0.112875514
v -0.176589012 -0.0663440153 0.112718314
v -0.2730806 -0.0253696889 -0.08709316
v -0.175632522 -0.029319806 -0.08692704
v -0.2730806 -0.0253696889 -0.08709316
v -0.176589012 -0.0663440153 0.112718314
v -0.176589012 -0.0663440153 0.112718314
v -0.206452638 -0.4395625 0.00327285239
v -0.175632522 -0.029319806 -0.08692704
v -0.239537984 -0.448743463 -0.183287233
v -0.175632522 -0.029319806 -0.08692704
v -0.206452638 -0.4395625 0.00327285239
v -0.206452638 -0.4395625 0.00327285239
v -0.275647223 -0.0629050061 0.112875514
v -0.239537984 -0.448743463 -0.183287233
v -0.2730806 -0.0253696889 -0.08709316
v -0.239537984 -0.448743463 -0.183287233
v -0.275647223 -0.0629050061 0.112875514
v -0.2730806 -0.0253696889 -0.08709316
v -0.175632522 -0.029319806 -0.08692704
v -0.263926 0.007068057 -0.2659597
v -0.175240859 -0.001971521 -0.266080528
v -0.263926 0.007068057 -0.2659597
v -0.175632522 -0.029319806 -0.08692704
v -0.239537984 -0.448743463 -0.183287233
v -0.2730806 -0.0253696889 -0.08709316
v -0.2338473 -0.2960347 -0.5054878
v -0.263926 0.007068057 -0.2659597
v -0.2338473 -0.2960347 -0.5054878
v -0.2730806 -0.0253696889 -0.08709316
v -0.175632522 -0.029319806 -0.08692704
v -0.239537984 -0.448743463 -0.183287233
v -0.175240859 -0.001971521 -0.266080528
v -0.2338473 -0.2960347 -0.5054878
v -0.175240859 -0.001971521 -0.266080528
v -0.239537984 -0.448743463 -0.183287233
v -0.2338473 -0.2960347 -0.5054878
v -0.263926 0.007068057 -0.2659597
v -0.223969251 -0.0228995737 -0.478520244
v -0.223969251 -0.0228995737 -0.478520244
v -0.175240859 -0.001971521 -0.266080528
v -0.2338473 -0.2960347 -0.5054878
v -0.242238626 -0.5652131 -0.2681998
v -0.236219183 -0.395813465 -0.6243398
v -0.239537984 -0.448743463 -0.183287233
v -0.2338473 -0.2960347 -0.5054878
v -0.239537984 -0.448743463 -0.183287233
v -0.236219183 -0.395813465 -0.6243398
v -0.221640661 0.0552179441 -1.09521878
v -0.225570783 -0.0319377147 -0.717232168
v -0.236219183 -0.395813465 -0.6243398
v -0.242238626 -0.5652131 -0.2681998
v -0.239537984 -0.448743463 -0.183287233
v -0.239537984 -0.448743463 -0.183287233
v -0.2338473 -0.2960347 -0.5054878
v -0.236219183 -0.395813465 -0.6243398
v -0.221640661 0.0552179441 -1.09521878
v -0.225570783 -0.0319377147 -0.717232168
v -0.26614356 -0.3361092 0.378870159
v -0.234482273 -0.358339578 0.4578491
v -0.2864578 -0.3079568 0.4966559
v -0.285449475 -0.298656046 0.147907615
v -0.183556765 -0.302379459 0.149320632
v -0.179251 -0.302770525 0.4974853
v -0.26614356 -0.3361092 0.378870159
v -0.285449475 -0.298656046 0.147907615
v -0.183556765 -0.302379459 0.149320632
v -0.179251 -0.302770525 0.4974853
v -0.2864578 -0.3079568 0.4966559
v -0.234482273 -0.358339578 0.4578491
v -0.2385747 -0.409018844 0.5407542
v -0.2864578 -0.3079568 0.4966559
v -0.179251 -0.302770525 0.4974853
v -0.183556765 -0.302379459 0.149320632
v -0.285449475 -0.298656046 0.147907615
v -0.2384277 -0.403530777 0.23410216
v -0.309743732 0.216553167 -0.0591147728
v -0.211014315 0.3444688 -0.078880325
v -0.31270057 0.134226322 -0.209121957
v -0.215625823 0.208896741 -0.3241194
v -0.318432242 -0.0199888144 -0.254305184
v -0.224622 -0.0453007072 -0.397825658
v -0.323207736 -0.155904844 -0.168186843
v -0.232694611 -0.2680924 -0.2548968
v -0.3244271 -0.193816587 -0.00116138614
v -0.235093847 -0.328437179 0.0187744275
v -0.3217848 -0.111478575 0.148845419
v -0.23048234 -0.192865178 0.2640135
v -0.316601068 0.04275615 0.1940282
v -0.221486166 0.0613323078 0.33771956
v -0.311529428 0.178661659 0.107910044
v -0.213413581 0.2841239 0.1947909
v -0.3719595 0.0133246845 -0.0301878415
v -0.1243234 0.12751013 -0.208951384
v -0.211014315 0.3444688 -0.078880325
v -0.121681072 0.209848121 -0.05894445
v -0.1295071 -0.0267245825 -0.2541341
v -0.224622 -0.0453007072 -0.397825658
v -0.134578764 -0.162630051 -0.168016016
v -0.232694611 -0.2680924 -0.2548968
v -0.13636446 -0.200521573 -0.0009911316
v -0.235093847 -0.328437179 0.0187744275
v -0.133407623 -0.118194781 0.149016
v -0.23048234 -0.192865178 0.2640135
v -0.127675951 0.03602042 0.194199324
v -0.221486166 0.0613323078 0.33771956
v -0.122900434 0.171936408 0.108080827
v -0.07414869 0.0027068702 -0.029918123
v -0.2338473 -0.2960347 -0.5054878
v -0.223969251 -0.0228995737 -0.478520244
v -0.225570783 -0.0319377147 -0.717232168
v -0.225570783 -0.0319377147 -0.717232168
v -0.223969251 -0.0228995737 -0.478520244
v -0.2338473 -0.2960347 -0.5054878
vt 0.0155115463 0.4428413
vt 0.156801775 0.376240432
vt 0.139700353 0.0270161629
vt 0.198027551 0.5958883
vt 0.0130851716 0.7013207
vt 0.329808056 0.8420964
vt 0.220131636 0.8210743
vt 0.143604547 0.9797984
vt 0.0156040862 0.441946328
vt 0.139337257 0.0315461159
vt 0.156817928 0.375468135
vt 0.012947917 0.70132035
vt 0.1984895 0.596985757
vt 0.066599 0.9629552
vt 0.144365177 0.9790199
vt 0.329203218 0.8416276
vt 0.2207184 0.8201457
vt 0.5444666 0.8652609
vt 0.6305935 0.86669296
vt 0.5444666 0.9152373
vt 0.6303589 0.915698767
vt 0.6638702 0.8685053
vt 0.5439236 0.867196441
vt 0.664492846 0.915268064
vt 0.5444971 0.9129963
vt 0.781387866 0.878364563
vt 0.7815847 0.915878
vt 0.954024553 0.89909184
vt 0.55859375 0.81640625
vt 0.9140625 0.8125
vt 0.55859375 0.77734375
vt 0.9140625 0.78125
vt 0.422367662 0.03794664
vt 0.334069937 0.123197138
vt 0.449739 0.3274591
vt 0.334262758 0.3062054
vt 0.06685923 0.962006867
vt 0.2683521 0.381672561
vt 0.285303771 0.273453
vt 0.4221106 0.0377744436
vt 0.44948718 0.327652216
vt 0.334080547 0.306128561
vt 0.333925843 0.12323302
vt 0.2683864 0.381887078
vt 0.285024 0.273177266
vt 0.90625 0.71484375
vt 0.90625 0.66015625
vt 0.6484375 0.6875
vt 1.86112535 1.55862069
vt 1.86112535 1.55862069
vt 1.93412924 1.6481601
vt 1.93412924 1.6481601
vt 0.449739 0.3274591
vt 0.2683521 0.381672561
vt 0.464139163 0.4358827
vt 0.265703082 0.476305127
vt 0.464139163 0.4358827
vt 0.2683521 0.381672561
vt 0.2683864 0.381887078
vt 0.44948718 0.327652216
vt 0.265828729 0.476482749
vt 0.464077324 0.436032772
vt 0.265828729 0.476482749
vt 0.44948718 0.327652216
vt 1.93412924 1.6481601
vt 1.93412924 1.6481601
vt 1.99747968 1.71689415
vt 1.99747968 1.71689415
vt 0.265828729 0.476482749
vt 0.464077324 0.436032772
vt 0.340360224 0.637536645
vt 0.479802579 0.5401134
vt 0.340360224 0.637536645
vt 0.464077324 0.436032772
vt 0.464139163 0.4358827
vt 0.265703082 0.476305127
vt 0.479792327 0.539827645
vt 0.340358138 0.6373729
vt 0.479792327 0.539827645
vt 0.265703082 0.476305127
vt 0.340360224 0.637536645
vt 0.479802579 0.5401134
vt 0.464637518 0.6312959
vt 0.464916825 0.629362047
vt 0.479792327 0.539827645
vt 0.340358138 0.6373729
vt 0.207776278 0.5325775
vt 0.291005164 0.7048311
vt 0.265703082 0.476305127
vt 0.340358138 0.6373729
vt 0.498682737 0.9339883
vt 0.446976334 0.7373444
vt 0.291025847 0.705425441
vt 0.207548127 0.532771468
vt 0.265828729 0.476482749
vt 0.340360224 0.637536645
vt 0.49881652 0.934148848
vt 0.446993828 0.7373818
vt 0.318761915 0.187477052
vt 0.314505428 0.15129751
vt 0.333925843 0.12323302
vt 0.334080547 0.306128561
vt 0.31490916 0.150560617
vt 0.319038659 0.1867156
vt 0.334262758 0.3062054
vt 0.334069937 0.123197138
vt 0.703125 0.76171875
vt 0.91015625 0.7734375
vt 0.91015625 0.734375
vt 0.578125 0.6953125
vt 0.578125 0.7578125
vt 0.67578125 0.7265625
vt 1.70710111 1.04641461
vt 1.723494 1.19082189
vt 1.72406733 1.19637775
vt 1.84235525 1.25263667
vt 1.84299636 1.2499423
vt 1.83086586 1.0921433
vt 0.884478867 0.309846222
vt 0.979125 0.309813857
vt 0.835133433 0.4403975
vt 0.9019511 0.513709068
vt 0.7163486 0.4946254
vt 0.7163486 0.598280251
vt 0.597293556 0.4404081
vt 0.530237734 0.5136549
vt 0.547822058 0.3098383
vt 0.4533067 0.309851766
vt 0.597284853 0.179416478
vt 0.530293 0.106032252
vt 0.7162066 0.125365734
vt 0.7162089 0.0216923356
vt 0.8351084 0.179441512
vt 0.901941657 0.106101036
vt 0.7163486 0.310119748
vt 0.835292757 0.440231681
vt 0.9791665 0.309798241
vt 0.884595633 0.309765935
vt 0.902271867 0.5135591
vt 0.7159198 0.494120777
vt 0.715919733 0.59784466
vt 0.596816957 0.440221071
vt 0.530076265 0.5136133
vt 0.5476403 0.3097738
vt 0.452938646 0.309760332
vt 0.5968258 0.179178417
vt 0.5300212 0.105923653
vt 0.7160618 0.125112355
vt 0.7160595 0.0214069486
vt 0.83531785 0.179153562
vt 0.9022811 0.105854988
vt 0.7159198 0.3094924
vt 0.464637518 0.6312959
vt 0.464916825 0.629362047
vt 0.364637464 0.195603609
vt 0.655291438 0.195495427
vt 0.7490156 0.0004995465
vt 0.615466058 0.31121856
vt 0.2221992 0.329876
vt 0.635587156 0.445084751
vt 0.4909178 0.4185319
vt 0.288710564 0.4671129
vt 0.364637464 0.195603609
vt 0.7490156 0.0004995465
vt 0.658997536 0.19552958
vt 0.2221992 0.329876
vt 0.620609462 0.311238468
vt 0.172030032 0.4526496
vt 0.283015043 0.46739012
vt 0.640888751 0.445128322
vt 0.4988622 0.4165464
vt 0.635587156 0.445084751
vt 0.4909178 0.4185319
vt 0.640888751 0.445128322
vt 0.4988622 0.4165464
vt 0.615466058 0.31121856
vt 0.620609462 0.311238468
vt 0.655291438 0.195495427
vt 0.658997536 0.19552958
vt 0.7490156 0.0004995465
vt 0.5521278 0.595675051
vt 0.5483511 0.595727563
vt 0.5483511 0.595727563
vt 0.289140046 0.583492637
vt 0.172030032 0.4526496
vt 0.138487369 0.6323115
vt 0.178056955 0.555153
vt 0.5521278 0.595675051
vt 0.293229043 0.583965
vt 0.138487369 0.6323115
vt 0.178056955 0.555153
vt 0.6289713 0.722306967
vt 0.6190441 0.7223473
vt 0.5960612 0.7933588
vt 0.5521278 0.595675051
vt 0.5483511 0.595727563
vt 0.593348563 0.662517846
vt 0.5890106 0.662462354
vt 0.593348563 0.662517846
vt 0.5483511 0.595727563
vt 0.5483511 0.595727563
vt 0.138487369 0.6323115
vt 0.5890106 0.662462354
vt 0.128404975 0.694672346
vt 0.5890106 0.662462354
vt 0.138487369 0.6323115
vt 0.138487369 0.6323115
vt 0.5521278 0.595675051
vt 0.128404975 0.694672346
vt 0.593348563 0.662517846
vt 0.128404975 0.694672346
vt 0.5521278 0.595675051
vt 0.593348563 0.662517846
vt 0.5890106 0.662462354
vt 0.6289713 0.722306967
vt 0.6190441 0.7223473
vt 0.6289713 0.722306967
vt 0.5890106 0.662462354
vt 0.128404975 0.694672346
vt 0.593348563 0.662517846
vt 0.296107769 0.8023732
vt 0.6289713 0.722306967
vt 0.296107769 0.8023732
vt 0.593348563 0.662517846
vt 0.5890106 0.662462354
vt 0.128404975 0.694672346
vt 0.6190441 0.7223473
vt 0.296107769 0.8023732
vt 0.6190441 0.7223473
vt 0.128404975 0.694672346
vt 0.296107769 0.8023732
vt 0.6289713 0.722306967
vt 0.5960612 0.7933588
vt 0.5960612 0.7933588
vt 0.6190441 0.7223473
vt 0.296107769 0.8023732
vt 0.0004995465 0.7230557
vt 0.186532021 0.8421014
vt 0.128404975 0.694672346
vt 0.296107769 0.8023732
vt 0.128404975 0.694672346
vt 0.186532021 0.8421014
vt 0.6818489 0.9995004
vt 0.5861356 0.8731522
vt 0.186532021 0.8421014
vt 0.0004995465 0.7230557
vt 0.128404975 0.694672346
vt 0.128404975 0.694672346
vt 0.296107769 0.8023732
vt 0.186532021 0.8421014
vt 0.6818489 0.9995004
vt 0.5861356 0.8731522
vt 0.252098471 0.506761968
vt 0.227685362 0.480361938
vt 0.283015043 0.46739012
vt 0.293229043 0.583965
vt 0.289140046 0.583492637
vt 0.288710564 0.4671129
vt 0.252098471 0.506761968
vt 0.293229043 0.583965
vt 0.289140046 0.583492637
vt 0.288710564 0.4671129
vt 0.283015043 0.46739012
vt 0.227685362 0.480361938
vt 0.172030032 0.4526496
vt 0.283015043 0.46739012
vt 0.288710564 0.4671129
vt 0.289140046 0.583492637
vt 0.293229043 0.583965
vt 0.178056955 0.555153
vt 0.8590251 0.653165638
vt 0.9995004 0.6597726
vt 0.7686149 0.703308
vt 0.850616932 0.7417478
vt 0.599257767 0.7184112
vt 0.5714606 0.7663853
vt 0.449996561 0.6896248
vt 0.326793641 0.718609
vt 0.4083624 0.6337938
vt 0.2605238 0.6271299
vt 0.49878493 0.583651543
vt 0.4094072 0.5451547
vt 0.668163538 0.568548441
vt 0.6885636 0.52051723
vt 0.8174132 0.597334862
vt 0.9332304 0.568293452
vt 0.635842264 0.643496335
vt 0.761239231 0.703251
vt 0.9995004 0.6597726
vt 0.851661742 0.6531087
vt 0.591860652 0.718354046
vt 0.5714606 0.7663853
vt 0.442611 0.6895677
vt 0.326793641 0.718609
vt 0.400999039 0.633736849
vt 0.2605238 0.6271299
vt 0.491409272 0.5835945
vt 0.4094072 0.5451547
vt 0.6607664 0.5684912
vt 0.6885636 0.52051723
vt 0.8100276 0.597277761
vt 0.624181867 0.643406153
vt 0.296107769 0.8023732
vt 0.5960612 0.7933588
vt 0.5861356 0.8731522
vt 0.5861356 0.8731522
vt 0.5960612 0.7933588
vt 0.296107769 0.8023732
vn 0.991649747 -0.1218595 0.0422020666
vn 0.992260754 -0.11577329 0.0448904
vn 0.992305338 -0.115696341 0.0440962836
vn 0.9901774 -0.13483052 0.03700562
vn 0.9896132 -0.141089141 0.02756067
vn 0.9792006 -0.200600386 -0.0304254983
vn 0.968658864 -0.225000128 -0.105237328
vn 0.996377647 -0.08300863 0.0184705816
vn -0.99788487 -0.05092669 0.04040068
vn -0.9981033 -0.0447323769 0.0422941558
vn -0.99806577 -0.04481226 0.0430883169
vn -0.9972023 -0.0701838955 0.0257259551
vn -0.9973306 -0.06396998 0.035206046
vn -0.9842989 -0.174296618 0.0278637167
vn -0.999972343 0.005860787 0.004579995
vn -0.99078536 -0.131303087 -0.03322431
vn -0.97907275 -0.16520074 -0.118849754
vn 0.0224952959 0.61086154 -0.7914178
vn 0.0008885531 0.4460462 -0.8950095
vn 0.0128843207 0.6098632 -0.792401969
vn -0.0280809514 0.391246855 -0.919857264
vn 0.0356351174 0.9993427 -0.006656719
vn 0.0224952959 0.61086154 -0.7914178
vn 0.03563514 0.9993427 -0.00665678363
vn 0.0128843207 0.6098632 -0.792401969
vn 0.035417635 0.9899471 -0.1369318
vn 0.0354176424 0.9899471 -0.136932164
vn 0.035186 0.982257664 -0.184206
vn 0.0355270877 0.997864842 0.05480483
vn -0.0280809514 0.391246855 -0.919857264
vn 0.0365849659 0.9978227 0.054875847
vn 0.0008885531 0.4460462 -0.8950095
vn 0.968658864 -0.225000128 -0.105237328
vn 0.996377647 -0.08300863 0.0184705816
vn 0.9978675 -0.061142914 -0.02284656
vn 0.9947846 -0.0989973247 -0.0245593768
vn 0.9703699 -0.239869371 0.0290681943
vn 0.9919234 -0.125891775 -0.0154657178
vn 0.9855794 -0.1674539 0.0243401378
vn -0.97907275 -0.16520074 -0.118849754
vn -0.999923766 -0.000427727238 -0.0123410868
vn -0.9995424 -0.02325093 -0.0193479583
vn -0.999972343 0.005860787 0.004579995
vn -0.9984392 -0.0533789545 -0.0164260287
vn -0.995414 -0.0932548642 0.0213193633
vn 0.03553254 0.9939969 -0.103477195
vn 0.03553254 0.9939969 -0.103477195
vn 0.03553254 0.9939969 -0.103477195
vn 0.0348913781 0.9831933 0.179202676
vn 0.0348913781 0.9831933 0.179202676
vn 0.0348913781 0.9831933 0.179202676
vn 0.0348912776 0.9831933 0.179202691
vn 0.995543063 -0.09380698 -0.009711832
vn 0.995543063 -0.09380698 -0.009711832
vn 0.995543063 -0.09380698 -0.009711832
vn 0.995807767 -0.09146532 -0.0009688761
vn 0.995807767 -0.09146532 -0.0009688761
vn 0.995807767 -0.09146532 -0.0009688761
vn -0.9996728 -0.0254111756 -0.00294584082
vn -0.9996728 -0.0254111756 -0.00294584082
vn -0.9996728 -0.0254111756 -0.00294584082
vn -0.999771833 -0.0184578672 -0.0107520409
vn -0.999771833 -0.0184578672 -0.0107520409
vn -0.999771833 -0.0184578672 -0.0107520409
vn 0.03509922 0.988251865 0.148749277
vn 0.03509922 0.988251865 0.148749277
vn 0.03509922 0.988251865 0.148749277
vn 0.03509926 0.988251865 0.148749262
vn -0.9995887 -0.0153100016 -0.0242479555
vn -0.9995887 -0.0153100016 -0.0242479555
vn -0.9995887 -0.0153100016 -0.0242479555
vn -0.9992477 -0.0369380862 -0.01181093
vn -0.9992477 -0.0369380862 -0.01181093
vn -0.9992477 -0.0369380862 -0.01181093
vn 0.9959154 -0.0899966 -0.007287689
vn 0.9959154 -0.0899966 -0.007287689
vn 0.9959154 -0.0899966 -0.007287689
vn 0.995186746 -0.0944523662 -0.0261178035
vn 0.995186746 -0.0944523662 -0.0261178035
vn 0.995186746 -0.0944523662 -0.0261178035
vn -0.99244076 0.04855266 -0.112711728
vn -0.99244076 0.04855266 -0.112711728
vn -0.99244076 0.04855266 -0.112711728
vn 0.9936779 -0.0231680088 -0.109852009
vn 0.9936779 -0.0231680088 -0.109852009
vn 0.9936779 -0.0231680088 -0.109852009
vn 0.9993646 -0.0356304236 0.0009048766
vn 0.9993646 -0.0356304236 0.0009048766
vn 0.9993646 -0.0356304236 0.0009048766
vn 0.9993646 -0.0356299244 0.000904926565
vn 0.9993646 -0.035630092 0.000905047462
vn 0.9993646 -0.03563046 0.000904847053
vn -0.9993646 0.0356304236 -0.0009048766
vn -0.9993646 0.0356304236 -0.0009048766
vn -0.9993646 0.0356304236 -0.0009048766
vn -0.9993646 0.0356299244 -0.000904926565
vn -0.9993646 0.035630092 -0.000905047462
vn -0.9993646 0.03563046 -0.000904847053
vn -0.6974017 -0.7142695 -0.0587361231
vn -0.07847249 -0.9945801 -0.06820954
vn -0.877293646 -0.478584766 -0.03622859
vn -0.8174342 -0.575996935 -0.005370747
vn -0.07847249 -0.9945801 -0.06820954
vn -0.6974017 -0.7142695 -0.0587361231
vn 0.8091513 -0.5873695 -0.0164705
vn 0.865677357 -0.500571 -0.00559892
vn 0.03861632 -0.99571985 -0.083968915
vn 0.03861632 -0.99571985 -0.083968915
vn 0.03861632 -0.99571985 -0.083968915
vn 0.0641735643 -0.8263229 0.5595285
vn 0.0641735643 -0.8263229 0.5595285
vn 0.0641735643 -0.8263229 0.5595285
vn -0.0144847054 -0.522707164 -0.8523892
vn -0.0144847054 -0.522707164 -0.8523892
vn -0.0144847054 -0.522707164 -0.8523892
vn -0.06740497 0.561006367 0.8250627
vn -0.06740497 0.561006367 0.8250627
vn -0.06740497 0.561006367 0.8250627
vn -0.90744257 0.416361243 -0.0564917475
vn 0.0353913344 0.989013 -0.143529356
vn -0.9177298 0.27228263 -0.2891958
vn 0.0226306878 0.614720345 -0.788420439
vn -0.933589041 -0.0185269378 -0.3578663
vn -0.004219028 -0.143470109 -0.98964566
vn -0.93743 -0.2782407 -0.2093014
vn -0.028469475 -0.8132741 -0.58118397
vn -0.9348905 -0.3506766 0.05482382
vn -0.035391178 -0.989013 0.1435295
vn -0.9353119 -0.206216067 0.2875179
vn -0.0226304028 -0.6147203 0.7884205
vn -0.9305448 0.08498904 0.356178641
vn 0.00421906635 0.143470481 0.9896456
vn -0.915611744 0.344307333 0.20762369
vn 0.02846957 0.8132738 0.5811843
vn -0.9993646 0.03563031 -0.0009048301
vn 0.9353119 0.206216037 -0.287517875
vn 0.0353913344 0.989013 -0.143529356
vn 0.9348906 0.350676417 -0.0548235923
vn 0.0226306878 0.614720345 -0.788420439
vn 0.930545 -0.0849889144 -0.3561783
vn -0.004219028 -0.143470109 -0.98964566
vn 0.9156118 -0.3443072 -0.2076236
vn -0.028469475 -0.8132741 -0.58118397
vn 0.90744257 -0.4163612 0.05649183
vn -0.035391178 -0.989013 0.1435295
vn 0.917729855 -0.2722827 0.289195448
vn -0.0226304028 -0.6147203 0.7884205
vn 0.9335889 0.01852722 0.3578665
vn 0.00421906635 0.143470481 0.9896456
vn 0.937429965 0.27824086 0.209301367
vn 0.02846957 0.8132738 0.5811843
vn 0.9993646 -0.03563034 0.0009048201
vn -0.9993523 0.0359831266 -0.000524732633
vn 0.9993523 -0.0359831266 0.000524732633
vn 0.977769256 -0.196589038 0.0729384348
vn 0.977932036 -0.192508221 0.08117612
vn 0.9767003 -0.192283154 0.09530828
vn 0.9789258 -0.200302765 0.03978733
vn 0.9760137 -0.2090048 0.0609444268
vn 0.983887136 -0.172763661 0.0460303
vn 0.990072 -0.0658856 0.124163352
vn 0.9876873 -0.150530145 0.04259667
vn -0.9896472 -0.124948405 0.0706139952
vn -0.98836875 -0.120646305 0.09258356
vn -0.989548266 -0.120778792 0.0787830353
vn -0.9886209 -0.13852489 0.0586478822
vn -0.9909262 -0.1288037 0.03840371
vn -0.91124177 -0.408374429 0.05356083
vn -0.9942757 -0.09928847 0.0394673459
vn -0.994055569 -0.09608244 0.05120195
vn -0.9870847 0.030325029 0.15730311
vn 0.02132941 0.557592869 -0.8298405
vn 0.0202540178 0.490001738 -0.8714861
vn -0.00675777066 0.545408 -0.838143468
vn -0.027626846 0.422321767 -0.9060249
vn 0.0395893678 0.9988721 -0.02621391
vn 0.0391069949 0.9988864 -0.0263923127
vn 0.0396297462 0.9918122 -0.1214
vn 0.0395998433 0.991811156 -0.121418513
vn 0.0395457149 0.989079 -0.141981781
vn 0.03469731 0.9952972 0.09044119
vn 0.03955796 0.9950313 0.091367
vn 0.99895525 -0.0302474238 -0.0342568345
vn 0.991978168 -0.126406983 0.000734973233
vn 0.8812482 -0.469360083 0.05570239
vn 0.974925339 -0.216681808 0.0506909639
vn 0.9201423 -0.346921563 0.1816138
vn -0.9914838 0.0221549366 -0.128331587
vn -0.9700085 -0.121996529 -0.210238889
vn -0.931086838 -0.2683928 -0.247068122
vn -0.893720865 -0.445326835 -0.0542863756
vn 0.1005042 0.9876312 -0.120347582
vn 0.1005042 0.9876312 -0.120347582
vn 0.1005042 0.9876312 -0.120347582
vn 0.0343914554 0.982174 0.184801355
vn 0.0343914554 0.982174 0.184801355
vn 0.0343914554 0.982174 0.184801355
vn 0.0395126455 0.982433558 0.1823815
vn 0.0395126455 0.982433558 0.1823815
vn 0.0395126455 0.982433558 0.1823815
vn 0.9969867 -0.0769891739 -0.009501122
vn 0.9969867 -0.0769891739 -0.009501122
vn 0.9969867 -0.0769891739 -0.009501122
vn 0.979518354 -0.110585235 -0.168269783
vn 0.979518354 -0.110585235 -0.168269783
vn 0.979518354 -0.110585235 -0.168269783
vn -0.956621051 -0.22837463 0.180889919
vn -0.956621051 -0.22837463 0.180889919
vn -0.956621051 -0.22837463 0.180889919
vn -0.996982336 -0.0729684 -0.0264930613
vn -0.996982336 -0.0729684 -0.0264930613
vn -0.996982336 -0.0729684 -0.0264930613
vn 0.0395321 0.982824266 0.1802601
vn 0.0395321 0.982824266 0.1802601
vn 0.0395321 0.982824266 0.1802601
vn 0.100453451 0.9835152 0.15035598
vn 0.100453451 0.9835152 0.15035598
vn 0.100453451 0.9835152 0.15035598
vn -0.9964712 -0.067662254 -0.0496684946
vn -0.9964712 -0.067662254 -0.0496684946
vn -0.9964712 -0.067662254 -0.0496684946
vn -0.9968623 -0.0512592755 -0.06031647
vn -0.9968623 -0.0512592755 -0.06031647
vn -0.9968623 -0.0512592755 -0.06031647
vn 0.9890688 -0.146073237 -0.0201362073
vn 0.9890688 -0.146073237 -0.0201362073
vn 0.9890688 -0.146073237 -0.0201362073
vn 0.9868426 -0.1521553 -0.0546853319
vn 0.9868426 -0.1521553 -0.0546853319
vn 0.9868426 -0.1521553 -0.0546853319
vn -0.9799126 0.0543828867 -0.191869333
vn -0.9799126 0.0543828867 -0.191869333
vn -0.9799126 0.0543828867 -0.191869333
vn 0.974886656 -0.0133084143 -0.222303718
vn 0.974886656 -0.0133084143 -0.222303718
vn 0.974886656 -0.0133084143 -0.222303718
vn 0.9996431 -0.0263571627 0.00435896451
vn 0.9996431 -0.0263571627 0.00435896451
vn 0.9996431 -0.0263571627 0.00435896451
vn 0.999581754 -0.0286284052 0.00408593472
vn 0.999581754 -0.0286284052 0.00408593472
vn 0.999581754 -0.0286284052 0.00408593472
vn 0.9995917 -0.0283169132 0.00382423354
vn 0.9995945 -0.0282080732 0.00388911855
vn -0.9996431 0.0263571627 -0.00435896451
vn -0.9996431 0.0263571627 -0.00435896451
vn -0.9996431 0.0263571627 -0.00435896451
vn -0.999581754 0.0286284052 -0.00408593472
vn -0.999581754 0.0286284052 -0.00408593472
vn -0.999581754 0.0286284052 -0.00408593472
vn -0.9995917 0.0283169132 -0.00382423354
vn -0.9995945 0.0282080732 -0.00388911855
vn -0.5883173 -0.803428054 -0.0915758461
vn 0.0365363173 -0.9992875 -0.009467358
vn -0.724241436 -0.6884067 0.0396301448
vn -0.8428151 -0.5379415 -0.0167831834
vn 0.380556047 -0.918907642 -0.103854835
vn 0.712642133 -0.70146203 -0.009601168
vn -0.0338865444 -0.9869824 -0.157217637
vn -0.0338865444 -0.9869824 -0.157217637
vn -0.0338865444 -0.9869824 -0.157217637
vn 0.0225863066 -0.5953291 0.8031644
vn 0.0225863066 -0.5953291 0.8031644
vn 0.0225863066 -0.5953291 0.8031644
vn 0.0259625334 -0.389439225 -0.9206862
vn 0.0259625334 -0.389439225 -0.9206862
vn 0.0259625334 -0.389439225 -0.9206862
vn 0.01265019 0.6382764 0.7697033
vn 0.01265019 0.6382764 0.7697033
vn 0.01265019 0.6382764 0.7697033
vn -0.8733488 0.4828448 -0.06420937
vn 0.03539131 0.9890116 -0.143539354
vn -0.884694755 0.315753 -0.3429508
vn 0.0226338524 0.614816844 -0.788345039
vn -0.9030348 -0.0272018015 -0.4287053
vn -0.00423719734 -0.143979192 -0.989571631
vn -0.908304751 -0.334113061 -0.25169614
vn -0.02848088 -0.8135822 -0.580752
vn -0.905631959 -0.4194188 0.06259874
vn -0.035391096 -0.9890116 0.143539488
vn -0.905553758 -0.25192523 0.341329783
vn -0.0226338468 -0.6148168 0.7883451
vn -0.8995785 0.09147049 0.4270734
vn 0.00423730072 0.143979535 0.9895716
vn -0.8826582 0.3979663 0.2500746
vn 0.0284808539 0.8135819 0.580752432
vn -0.9993646 0.03563029 -0.0009048412
vn 0.905553758 0.251925141 -0.341329843
vn 0.03539131 0.9890116 -0.143539354
vn 0.9056321 0.4194186 -0.0625985041
vn 0.8995787 -0.09147037 -0.427073061
vn -0.00423719734 -0.143979192 -0.989571631
vn 0.882658243 -0.397966236 -0.250074536
vn -0.02848088 -0.8135822 -0.580752
vn 0.873348832 -0.4828447 0.0642093942
vn -0.035391096 -0.9890116 0.143539488
vn 0.8846948 -0.315753043 0.342950523
vn -0.0226338468 -0.6148168 0.7883451
vn 0.9030347 0.02720208 0.428705454
vn 0.00423730072 0.143979535 0.9895716
vn 0.908304751 0.334113151 0.25169608
vn 0.9993646 -0.0356303453 0.000904811954
vn -0.9993513 0.035613142 0.00535631645
vn -0.9993513 0.035613142 0.00535631645
vn -0.9993513 0.035613142 0.00535631645
vn 0.9993513 -0.035613142 -0.00535631645
vn 0.9993513 -0.035613142 -0.00535631645
vn 0.9993513 -0.035613142 -0.00535631645
usemtl 02060005_part_0_material_0
f 1/1/1 2/2/2 3/3/3
f 2/2/2 1/1/1 4/4/4
f 5/5/5 4/4/4 1/1/1
f 4/4/4 5/5/5 6/6/6
f 7/7/7 6/6/6 5/5/5
f 5/5/5 8/8/8 7/7/7
f 9/9/9 10/10/10 11/11/11
f 12/12/12 9/9/9 13/13/13
f 11/11/11 13/13/13 9/9/9
f 14/14/14 12/12/12 15/15/15
f 13/13/13 16/16/16 12/12/12
f 16/16/16 17/17/17 12/12/12
f 18/18/18 19/19/19 20/20/20
f 21/21/21 20/20/20 19/19/19
f 22/22/22 23/23/23 24/24/24
f 25/25/25 24/24/24 23/23/23
f 26/26/26 22/22/22 27/27/27
f 24/24/24 27/27/27 22/22/22
f 27/27/27 28/28/28 26/26/26
f 29/29/29 30/30/30 31/31/31
f 32/32/32 31/31/31 30/30/30
f 33/33/33 34/34/34 35/35/35
f 34/34/34 36/36/36 35/35/35
f 5/5/5 37/37/37 8/8/8
f 38/38/38 36/36/36 39/39/39
f 38/38/38 35/35/35 36/36/36
f 40/40/40 41/41/41 42/42/42
f 40/40/40 42/42/42 43/43/43
f 15/15/15 12/12/12 17/17/17
f 42/42/42 41/41/41 44/44/44
f 45/45/45 42/42/42 44/44/44
f 46/46/46 47/47/47 48/48/48
f 49/49/49 50/50/50 51/51/51
f 52/52/52 51/51/51 50/50/50
f 53/53/53 54/54/54 55/55/55
f 56/56/56 57/57/57 58/58/58
f 59/59/59 60/60/60 61/61/61
f 62/62/62 63/63/63 64/64/64
f 65/65/65 66/66/66 67/67/67
f 68/68/68 67/67/67 66/66/66
f 69/69/69 70/70/70 71/71/71
f 72/72/72 73/73/73 74/74/74
f 75/75/75 76/76/76 77/77/77
f 78/78/78 79/79/79 80/80/80
f 81/81/81 82/82/82 83/83/83
f 84/84/84 85/85/85 86/86/86
f 87/87/87 88/88/88 89/89/89
f 90/90/90 89/89/89 88/88/88
f 88/88/88 91/91/91 90/90/90
f 92/92/92 90/90/90 91/91/91
f 93/93/93 94/94/94 95/95/95
f 95/95/95 96/96/96 93/93/93
f 97/97/97 93/93/93 96/96/96
f 96/96/96 98/98/98 97/97/97
f 99/99/99 100/100/100 101/101/101
f 101/101/101 102/102/102 99/99/99
f 103/103/103 104/104/104 105/105/105
f 105/105/105 106/106/106 103/103/103
f 107/107/107 108/108/108 109/109/109
f 110/110/110 111/111/111 112/112/112
f 113/113/113 114/114/114 115/115/115
f 116/116/116 117/117/117 118/118/118
f 119/119/119 120/120/120 121/121/121
f 121/121/121 120/120/120 122/122/122
f 121/121/121 122/122/122 123/123/123
f 123/123/123 122/122/122 124/124/124
f 123/123/123 124/124/124 125/125/125
f 125/125/125 124/124/124 126/126/126
f 125/125/125 126/126/126 127/127/127
f 127/127/127 126/126/126 128/128/128
f 127/127/127 128/128/128 129/129/129
f 129/129/129 128/128/128 130/130/130
f 129/129/129 130/130/130 131/131/131
f 131/131/131 130/130/130 132/132/132
f 131/131/131 132/132/132 133/133/133
f 133/133/133 132/132/132 134/134/134
f 133/133/133 134/134/134 119/119/119
f 119/119/119 134/134/134 120/120/120
f 121/121/121 135/135/135 119/119/119
f 123/123/123 135/135/135 121/121/121
f 125/125/125 135/135/135 123/123/123
f 127/127/127 135/135/135 125/125/125
f 129/129/129 135/135/135 127/127/127
f 131/131/131 135/135/135 129/129/129
f 133/133/133 135/135/135 131/131/131
f 119/119/119 135/135/135 133/133/133
f 136/136/136 137/137/137 138/138/138
f 139/139/139 137/137/137 136/136/136
f 140/140/140 139/139/139 136/136/136
f 141/141/141 139/139/139 140/140/140
f 142/142/142 141/141/141 140/140/140
f 143/143/143 141/141/141 142/142/142
f 144/144/144 143/143/143 142/142/142
f 145/145/145 143/143/143 144/144/144
f 146/146/146 145/145/145 144/144/144
f 147/147/147 145/145/145 146/146/146
f 148/148/148 147/147/147 146/146/146
f 149/149/149 147/147/147 148/148/148
f 150/150/150 149/149/149 148/148/148
f 151/151/151 149/149/149 150/150/150
f 138/138/138 151/151/151 150/150/150
f 137/137/137 151/151/151 138/138/138
f 138/138/138 152/152/152 136/136/136
f 136/136/136 152/152/152 140/140/140
f 140/140/140 152/152/152 142/142/142
f 142/142/142 152/152/152 144/144/144
f 144/144/144 152/152/152 146/146/146
f 146/146/146 152/152/152 148/148/148
f 148/148/148 152/152/152 150/150/150
f 150/150/150 152/152/152 138/138/138
f 96/96/96 153/153/153 98/98/98
f 92/92/92 154/154/154 90/90/90
usemtl 02060005_part_0_material_1
f 155/155/155 156/156/156 157/157/157
f 156/156/156 155/155/155 158/158/158
f 159/159/159 158/158/158 155/155/155
f 158/158/158 159/159/159 160/160/160
f 161/161/161 160/160/160 159/159/159
f 159/159/159 162/162/162 161/161/161
f 163/163/163 164/164/164 165/165/165
f 166/166/166 163/163/163 167/167/167
f 165/165/165 167/167/167 163/163/163
f 168/168/168 166/166/166 169/169/169
f 167/167/167 170/170/170 166/166/166
f 170/170/170 171/171/171 166/166/166
f 172/172/172 173/173/173 174/174/174
f 175/175/175 174/174/174 173/173/173
f 176/176/176 172/172/172 177/177/177
f 174/174/174 177/177/177 172/172/172
f 178/178/178 176/176/176 179/179/179
f 177/177/177 179/179/179 176/176/176
f 179/179/179 180/180/180 178/178/178
f 181/181/181 175/175/175 182/182/182
f 173/173/173 182/182/182 175/175/175
f 161/161/161 162/162/162 183/183/183
f 162/162/162 184/184/184 183/183/183
f 159/159/159 185/185/185 162/162/162
f 186/186/186 184/184/184 187/187/187
f 186/186/186 183/183/183 184/184/184
f 171/171/171 188/188/188 189/189/189
f 171/171/171 189/189/189 169/169/169
f 169/169/169 166/166/166 171/171/171
f 189/189/189 188/188/188 190/190/190
f 191/191/191 189/189/189 190/190/190
f 192/192/192 193/193/193 194/194/194
f 195/195/195 196/196/196 197/197/197
f 198/198/198 199/199/199 200/200/200
f 201/201/201 202/202/202 203/203/203
f 204/204/204 205/205/205 206/206/206
f 207/207/207 208/208/208 209/209/209
f 210/210/210 211/211/211 212/212/212
f 213/213/213 214/214/214 215/215/215
f 216/216/216 217/217/217 218/218/218
f 219/219/219 220/220/220 221/221/221
f 222/222/222 223/223/223 224/224/224
f 225/225/225 226/226/226 227/227/227
f 228/228/228 229/229/229 230/230/230
f 231/231/231 232/232/232 233/233/233
f 234/234/234 235/235/235 236/236/236
f 237/237/237 238/238/238 239/239/239
f 240/240/240 241/241/241 242/242/242
f 242/242/242 243/243/243 240/240/240
f 244/244/244 240/240/240 243/243/243
f 245/245/245 246/246/246 247/247/247
f 248/248/248 249/249/249 250/250/250
f 251/251/251 250/250/250 249/249/249
f 249/249/249 252/252/252 251/251/251
f 253/253/253 254/254/254 255/255/255
f 255/255/255 256/256/256 253/253/253
f 254/254/254 253/253/253 257/257/257
f 257/257/257 258/258/258 254/254/254
f 259/259/259 260/260/260 261/261/261
f 262/262/262 263/263/263 264/264/264
f 265/265/265 266/266/266 267/267/267
f 268/268/268 269/269/269 270/270/270
f 271/271/271 272/272/272 273/273/273
f 273/273/273 272/272/272 274/274/274
f 273/273/273 274/274/274 275/275/275
f 275/275/275 274/274/274 276/276/276
f 275/275/275 276/276/276 277/277/277
f 277/277/277 276/276/276 278/278/278
f 277/277/277 278/278/278 279/279/279
f 279/279/279 278/278/278 280/280/280
f 279/279/279 280/280/280 281/281/281
f 281/281/281 280/280/280 282/282/282
f 281/281/281 282/282/282 283/283/283
f 283/283/283 282/282/282 284/284/284
f 283/283/283 284/284/284 285/285/285
f 285/285/285 284/284/284 286/286/286
f 285/285/285 286/286/286 271/271/271
f 271/271/271 286/286/286 272/272/272
f 273/273/273 287/287/287 271/271/271
f 275/275/275 287/287/287 273/273/273
f 277/277/277 287/287/287 275/275/275
f 279/279/279 287/287/287 277/277/277
f 281/281/281 287/287/287 279/279/279
f 283/283/283 287/287/287 281/281/281
f 285/285/285 287/287/287 283/283/283
f 271/271/271 287/287/287 285/285/285
f 288/288/288 289/289/289 290/290/290
f 274/274/274 289/289/289 288/288/288
f 291/291/291 274/274/274 288/288/288
f 292/292/292 274/274/274 291/291/291
f 293/293/293 292/292/292 291/291/291
f 294/294/294 292/292/292 293/293/293
f 295/295/295 294/294/294 293/293/293
f 296/296/296 294/294/294 295/295/295
f 297/297/297 296/296/296 295/295/295
f 298/298/298 296/296/296 297/297/297
f 299/299/299 298/298/298 297/297/297
f 300/300/300 298/298/298 299/299/299
f 301/301/301 300/300/300 299/299/299
f 286/286/286 300/300/300 301/301/301
f 290/290/290 286/286/286 301/301/301
f 289/289/289 286/286/286 290/290/290
f 290/290/290 302/302/302 288/288/288
f 288/288/288 302/302/302 291/291/291
f 291/291/291 302/302/302 293/293/293
f 293/293/293 302/302/302 295/295/295
f 295/295/295 302/302/302 297/297/297
f 297/297/297 302/302/302 299/299/299
f 299/299/299 302/302/302 301/301/301
f 301/301/301 302/302/302 290/290/290
f 303/303/303 304/304/304 305/305/305
f 306/306/306 307/307/307 308/308/308
