mtllib 03010010.mtl
o 03010010_part_0
v 0.07350599 0.0991478339 0.713315845
v 0.03838503 0.0259879511 0.909237
v 0.117433138 -0.0119597064 0.909237
v 0.1525541 0.061200168 0.713315845
v -0.0464044437 -0.15063554 0.9903903
v 0.03264366 -0.18858321 0.9903902
v -0.131193921 -0.327259 0.909237
v -0.0521458276 -0.3652067 0.909237
v -0.16631487 -0.400418848 0.713315845
v -0.08726677 -0.4383665 0.713315845
v -0.1311939 -0.327258974 0.517394662
v -0.0521458127 -0.365206629 0.517394662
v -0.0464044325 -0.150635466 0.436241418
v 0.03264367 -0.188583121 0.436241418
v 0.03838504 0.0259880163 0.517394662
v 0.117433153 -0.011959644 0.517394662
v -0.16631487 -0.400418848 0.713315845
v -0.131193921 -0.327259 0.909237
v -0.0464044437 -0.15063554 0.9903903
v -0.1311939 -0.327258974 0.517394662
v -0.0464044325 -0.150635466 0.436241418
v 0.117433138 -0.0119597064 0.909237
v 0.03264366 -0.18858321 0.9903902
v 0.03264366 -0.188583151 0.713315845
v 0.1525541 0.061200168 0.713315845
v -0.0521458276 -0.3652067 0.909237
v -0.08726677 -0.4383665 0.713315845
v -0.0521458127 -0.365206629 0.517394662
v 0.03264367 -0.188583121 0.436241418
v 0.117433153 -0.011959644 0.517394662
v 0.07350599 0.0991478339 0.713315845
v 0.03838504 0.0259880163 0.517394662
v 0.03838503 0.0259879511 0.909237
v -0.121269166 -0.3185864 0.624244332
v -0.121269196 -0.3185864 -0.253275216
v -0.0971514359 -0.302099645 -0.253275216
v -0.0971514 -0.302099645 0.624244332
v -0.147606015 -0.305943221 0.624244332
v -0.14760603 -0.3059432 -0.253275216
v -0.1498251 -0.2768132 0.624244332
v -0.149825126 -0.2768132 -0.253275216
v -0.125707328 -0.260326445 0.624244332
v -0.125707358 -0.260326445 -0.253275216
v -0.09937048 -0.272969663 0.624244332
v -0.0993705 -0.272969663 -0.253275216
v -0.157979012 -0.272898883 -0.318433672
v -0.126394376 -0.2513078 -0.318433672
v -0.09190364 -0.26786536 -0.318433672
v -0.08899754 -0.306013972 -0.318433672
v -0.120582163 -0.327605069 -0.318433672
v -0.08899754 -0.306013972 -0.318433672
v -0.1550729 -0.3110475 -0.318433672
v -0.157979012 -0.272898883 -0.318433672
v -0.126394376 -0.2513078 -0.318433672
v -0.09190364 -0.26786536 -0.318433672
v -0.120582163 -0.327605069 -0.318433672
v -0.1550729 -0.3110475 -0.318433672
v 0.01938771 -0.0255865287 0.624244332
v 0.0193876866 -0.0255865231 -0.2532752
v 0.04350544 -0.009099765 -0.2532752
v 0.04350547 -0.009099761 0.624244332
v -0.006949141 -0.0129433284 0.624244332
v -0.006949159 -0.0129433144 -0.2532752
v -0.009168217 0.0161866676 0.624244332
v -0.009168224 0.01618669 -0.2532752
v 0.0149495462 0.0326734334 0.624244332
v 0.0149495266 0.0326734371 -0.2532752
v 0.041286394 0.0200302247 0.624244332
v 0.04128636 0.02003021 -0.2532752
v -0.0173221286 0.0201010145 -0.318433672
v 0.0142624844 0.04169207 -0.318433672
v 0.04875323 0.0251345169 -0.318433672
v 0.0516593233 -0.013014107 -0.318433672
v 0.020074714 -0.0346051753 -0.318433672
v 0.0516593233 -0.013014107 -0.318433672
v -0.0144160213 -0.0180476159 -0.318433672
v -0.0173221286 0.0201010145 -0.318433672
v 0.0142624844 0.04169207 -0.318433672
v 0.04875323 0.0251345169 -0.318433672
v 0.020074714 -0.0346051753 -0.318433672
v -0.0144160213 -0.0180476159 -0.318433672
v 0.005658185 -0.0189955831 0.7865198
v -0.178561047 0.06944034 -0.06507827
v -0.154860392 0.08612732 -0.06872538
v 0.0293588825 -0.002308575 0.7828727
v -0.01984451 -0.00675280252 0.7938141
v -0.204063743 0.0816831 -0.057783898
v -0.0216465127 0.0221769754 0.797461331
v -0.205865756 0.110612877 -0.05413679
v 0.00205418351 0.03886397 0.7938141
v -0.182165056 0.127299845 -0.05778398
v 0.0275568739 0.0266211815 0.7865198
v -0.156662375 0.115057096 -0.06507827
v -0.228427872 0.121444009 -0.114973262
v -0.1973895 0.143297285 -0.119749531
v -0.163991138 0.127264157 -0.129302174
v -0.161631227 0.08937771 -0.134078532
v -0.19266966 0.0675244555 -0.129302174
v -0.161631227 0.08937771 -0.134078532
v -0.226068 0.0835575759 -0.119749539
v -0.228427872 0.121444009 -0.114973262
v -0.1973895 0.143297285 -0.119749531
v -0.163991138 0.127264157 -0.129302174
v -0.19266966 0.0675244555 -0.129302174
v -0.226068 0.0835575759 -0.119749539
v -0.134998679 -0.311995447 0.7865198
v -0.31921795 -0.223559543 -0.06507829
v -0.295517266 -0.206872568 -0.0687253848
v -0.111297995 -0.295308471 0.7828727
v -0.160501391 -0.299752682 0.7938141
v -0.344720632 -0.211316779 -0.05778391
v -0.1623034 -0.2708229 0.797461331
v -0.346522629 -0.182387009 -0.05413672
v -0.1386027 -0.254135936 0.7938141
v -0.322821945 -0.165700033 -0.05778391
v -0.1131 -0.2663787 0.7865198
v -0.297319233 -0.1779428 -0.06507828
v -0.3690848 -0.171555877 -0.114973277
v -0.338046342 -0.1497026 -0.119749546
v -0.304648 -0.165735736 -0.129302189
v -0.302288115 -0.203622147 -0.134078458
v -0.333326519 -0.22547546 -0.129302189
v -0.302288115 -0.203622147 -0.134078458
v -0.366724849 -0.209442288 -0.119749546
v -0.3690848 -0.171555877 -0.114973277
v -0.338046342 -0.1497026 -0.119749546
v -0.304648 -0.165735736 -0.129302189
v -0.333326519 -0.22547546 -0.129302189
v -0.366724849 -0.209442288 -0.119749546
v -0.283677816 -0.202583209 0.00177780539
v -0.295764983 -0.196780667 -0.0149815092
v -0.164211169 0.07725667 -0.0149815446
v -0.152124077 0.07145414 0.00177777035
v -0.314892918 -0.187598154 -0.0117497854
v -0.183339134 0.0864392 -0.0117497733
v -0.3219338 -0.184218124 0.008241347
v -0.190380037 0.08981921 0.008241324
v -0.309846669 -0.190020651 0.0250007547
v -0.1782929 0.0840166956 0.0250007324
v -0.2907187 -0.199203178 0.0217689034
v -0.15916495 0.07483417 0.0217689145
v -0.103143878 -0.289249957 -0.1967946
v -0.112818174 -0.284605742 -0.215381771
v 0.0187356025 -0.0105683655 -0.215381756
v 0.0284098815 -0.0152126038 -0.196794584
v -0.132166758 -0.275317281 -0.215381771
v -0.0006129891 -0.00127992209 -0.215381756
v -0.141841054 -0.270673066 -0.1967946
v -0.0102872942 0.00336427824 -0.196794584
v -0.132166758 -0.275317281 -0.178207442
v -0.0006129891 -0.00127994816 -0.178207427
v -0.112818174 -0.284605742 -0.178207442
v 0.0187355913 -0.0105683859 -0.178207427
v -0.0160829667 0.05670602 0.8023106
v 0.0562402159 0.0219866373 0.737351358
v 0.0260705538 -0.04085928 0.737351358
v -0.046252653 -0.0061398996 0.8023106
v -0.046252653 -0.0061398996 0.8023106
v 0.0260705538 -0.04085928 0.737351358
v 0.0260705743 -0.040859282 0.867269933
v -0.046252653 -0.0061398996 0.8023106
v 0.0260705743 -0.040859282 0.867269933
v 0.05624023 0.0219866242 0.867269933
v -0.0160829667 0.05670602 0.8023106
v -0.0160829667 0.05670602 0.8023106
v 0.05624023 0.0219866242 0.867269933
v 0.0562402159 0.0219866373 0.737351358
v -0.156738251 -0.236290514 0.8023106
v -0.08441505 -0.2710099 0.737351358
v -0.114584714 -0.3338558 0.737351358
v -0.186907932 -0.29913643 0.8023106
v -0.186907932 -0.29913643 0.8023106
v -0.114584714 -0.3338558 0.737351358
v -0.114584707 -0.333855838 0.867269933
v -0.186907932 -0.29913643 0.8023106
v -0.114584707 -0.333855838 0.867269933
v -0.08441504 -0.271009922 0.867269933
v -0.156738251 -0.236290514 0.8023106
v -0.156738251 -0.236290514 0.8023106
v -0.08441504 -0.271009922 0.867269933
v -0.08441505 -0.2710099 0.737351358
v -0.156738251 -0.236290514 0.6282617
v -0.08441506 -0.2710099 0.5633024
v -0.114584714 -0.3338558 0.5633024
v -0.186907932 -0.29913646 0.6282616
v -0.186907932 -0.29913646 0.6282616
v -0.114584714 -0.3338558 0.5633024
v -0.114584707 -0.333855838 0.693221
v -0.186907932 -0.29913646 0.6282616
v -0.114584707 -0.333855838 0.693221
v -0.08441504 -0.271009922 0.693221
v -0.156738251 -0.236290514 0.6282617
v -0.156738251 -0.236290514 0.6282617
v -0.08441504 -0.271009922 0.693221
v -0.08441506 -0.2710099 0.5633024
v -0.016082976 0.0567060038 0.6282616
v 0.0562402159 0.0219866466 0.5633024
v 0.02607055 -0.040859282 0.5633024
v -0.046252653 -0.0061399024 0.6282617
v -0.046252653 -0.0061399024 0.6282617
v 0.02607055 -0.040859282 0.5633024
v 0.02607057 -0.0408592857 0.693221
v -0.046252653 -0.0061399024 0.6282617
v 0.02607057 -0.0408592857 0.693221
v 0.05624023 0.0219866335 0.693221
v -0.016082976 0.0567060038 0.6282616
v -0.016082976 0.0567060038 0.6282616
v 0.05624023 0.0219866335 0.693221
v 0.0562402159 0.0219866466 0.5633024
v 0.06804665 0.122018054 0.713315845
v 0.0306117665 0.044038076 0.922145247
v 0.136379033 -0.0067363237 0.922145247
v 0.173813924 0.07124365 0.713315845
v -0.0597640127 -0.14422217 1.00864518
v 0.0460032523 -0.194996566 1.008645
v -0.150139809 -0.3324824 0.922145247
v -0.04437169 -0.38325724 0.922144
v -0.150139809 -0.3324824 0.922145247
v -0.1875747 -0.4104623 0.713315845
v -0.08180743 -0.461236745 0.713315845
v -0.04437169 -0.38325724 0.922144
v -0.1501398 -0.332482338 0.5044865
v -0.04437255 -0.383256733 0.5044865
v -0.0597640127 -0.1442221 0.4179865
v 0.04600325 -0.194996491 0.4179865
v -0.0597640127 -0.1442221 0.4179865
v 0.0306117777 0.044038143 0.5044865
v 0.136379048 -0.006736258 0.5044865
v 0.04600325 -0.194996491 0.4179865
v -0.1875747 -0.4104623 0.713315845
v -0.150139809 -0.3324824 0.922145247
v -0.0597640127 -0.14422217 1.00864518
v -0.1501398 -0.332482338 0.5044865
v -0.0597640127 -0.1442221 0.4179865
v 0.136379033 -0.0067363237 0.922145247
v 0.0460032523 -0.194996566 1.008645
v 0.0538405143 -0.19875887 0.713315845
v 0.173813924 0.07124365 0.713315845
v -0.04437169 -0.38325724 0.922144
v -0.08180743 -0.461236745 0.713315845
v -0.04437255 -0.383256733 0.5044865
v 0.04600325 -0.194996491 0.4179865
v 0.136379048 -0.006736258 0.5044865
v 0.06804665 0.122018054 0.713315845
v 0.0306117777 0.044038143 0.5044865
v 0.0306117665 0.044038076 0.922145247
v -0.119483165 -0.3420313 0.624244332
v -0.119487658 -0.341972977 -0.251618266
v -0.0760072842 -0.312250078 -0.251618266
v -0.07595455 -0.31227535 0.624244332
v -0.167016864 -0.319212377 0.624244332
v -0.166968629 -0.319179326 -0.251618266
v -0.119487658 -0.341972977 -0.251618266
v -0.119483165 -0.3420313 0.624244332
v -0.171021953 -0.2666375 0.624244332
v -0.170969278 -0.2666628 -0.251618266
v -0.127493337 -0.236881569 0.624244332
v -0.127488911 -0.236939877 -0.251618266
v -0.07995962 -0.2597005 0.624244332
v -0.0800078958 -0.2597335 -0.2516183
v -0.0800078958 -0.2597335 -0.2516183
v -0.07995962 -0.2597005 0.624244332
v -0.175572053 -0.2644532 -0.33154884
v -0.127876729 -0.231848925 -0.3315488
v -0.07579296 -0.25685218 -0.33154884
v -0.0714045 -0.314459682 -0.33154884
v -0.119099818 -0.3470639 -0.3315488
v -0.0714045 -0.314459682 -0.33154884
v -0.0760072842 -0.312250078 -0.251618266
v -0.171183586 -0.3220607 -0.33154884
v -0.175572053 -0.2644532 -0.33154884
v -0.127876729 -0.231848925 -0.3315488
v -0.07579296 -0.25685218 -0.33154884
v -0.127876729 -0.231848925 -0.3315488
v -0.127488911 -0.236939877 -0.251618266
v -0.0714045 -0.314459682 -0.33154884
v -0.119099818 -0.3470639 -0.3315488
v -0.171183586 -0.3220607 -0.33154884
v 0.0211752 -0.0490312837 0.624244332
v 0.0211692434 -0.0489731058 -0.251618266
v 0.0646496 -0.0192501824 -0.251618266
v 0.0647029653 -0.0192741342 0.624244332
v -0.0263599921 -0.0262124818 0.624244332
v -0.0263117589 -0.026179472 -0.251618266
v -0.0303650629 0.0263623875 0.624244332
v -0.03031237 0.02633712 -0.251618266
v 0.0131635508 0.0561183 0.624244332
v 0.013167982 0.05606002 -0.251618266
v 0.06069725 0.0332993753 0.624244332
v 0.0606489629 0.0332663655 -0.251618266
v -0.0349151641 0.0285466984 -0.3315488
v 0.0127801346 0.0611509271 -0.3315488
v 0.06486393 0.036147695 -0.3315488
v 0.0692523643 -0.0214597881 -0.3315488
v 0.021557061 -0.05406404 -0.3315488
v 0.0692523643 -0.0214597881 -0.3315488
v -0.0305267125 -0.0290607922 -0.3315488
v -0.0349151641 0.0285466984 -0.3315488
v 0.0127801346 0.0611509271 -0.3315488
v 0.06486393 0.036147695 -0.3315488
v 0.021557061 -0.05406404 -0.3315488
v -0.0305267125 -0.0290607922 -0.3315488
v 0.007046043 -0.0423091 0.7837986
v -0.17666772 0.0460366234 -0.0663162842
v -0.133981526 0.0761042461 -0.07278279
v 0.04997063 -0.0122034037 0.777386367
v -0.0390224271 -0.0200723987 0.79657954
v -0.222716987 0.06807016 -0.05335716
v -0.0422582738 0.03207178 0.80294764
v -0.226023331 0.120289691 -0.0468646921
v 0.0004532405 0.06215863 0.79657954
v -0.183208972 0.150368571 -0.0533572324
v 0.0466162376 0.0401188433 0.7837986
v -0.137216508 0.128216758 -0.0663162842
v -0.248415783 0.131039366 -0.122800417
v -0.201545328 0.164039582 -0.130012974
v -0.151111141 0.139828265 -0.144438222
v -0.147547483 0.08261669 -0.1516509
v -0.194418 0.04961651 -0.144438237
v -0.147547483 0.08261669 -0.1516509
v -0.244852185 0.07382782 -0.130012974
v -0.248415783 0.131039366 -0.122800417
v -0.201545328 0.164039582 -0.130012974
v -0.151111141 0.139828265 -0.144438222
v -0.194418 0.04961651 -0.144438237
v -0.244852185 0.07382782 -0.130012974
v -0.1336108 -0.335308939 0.7837986
v -0.317324638 -0.246963263 -0.06631629
v -0.2746384 -0.21689567 -0.0727828145
v -0.09068625 -0.3052033 0.777386367
v -0.179679319 -0.313072264 0.79657954
v -0.363373876 -0.22492972 -0.0533571728
v -0.317324638 -0.246963263 -0.06631629
v -0.1336108 -0.335308939 0.7837986
v -0.182915136 -0.260928035 0.80294764
v -0.366680235 -0.172710225 -0.04686462
v -0.140203655 -0.230841264 0.79657954
v -0.3238659 -0.1426313 -0.05335716
v -0.0940406248 -0.25288105 0.7837986
v -0.277873367 -0.16478312 -0.0663163
v -0.277873367 -0.16478312 -0.0663163
v -0.0940406248 -0.25288105 0.7837986
v -0.389072716 -0.161960542 -0.122800447
v -0.342202157 -0.128960311 -0.130012989
v -0.291768 -0.153171659 -0.144438267
v -0.288204372 -0.210383147 -0.151650831
v -0.335074842 -0.2433834 -0.144438267
v -0.288204372 -0.210383147 -0.151650831
v -0.2746384 -0.21689567 -0.0727828145
v -0.385509044 -0.21917206 -0.130012989
v -0.389072716 -0.161960542 -0.122800447
v -0.342202157 -0.128960311 -0.130012989
v -0.291768 -0.153171659 -0.144438267
v -0.335074842 -0.2433834 -0.144438267
v -0.385509044 -0.21917206 -0.130012989
v -0.262722641 -0.212642908 -0.00176268641
v -0.288051516 -0.200483575 -0.0368822627
v -0.156497747 0.07355377 -0.0368823
v -0.1311689 0.06139445 -0.00176272145
v -0.3281346 -0.181241378 -0.0301100723
v -0.196580842 0.09279599 -0.0301100481
v -0.342889 -0.174158424 0.0117818033
v -0.211335212 0.09987891 0.01178178
v -0.3175601 -0.186317757 0.04690151
v -0.186006323 0.08771959 0.0469014868
v -0.277476966 -0.205559984 0.0401291549
v -0.145924255 0.06847787 0.0401301
v -0.0819470361 -0.299425662 -0.1967946
v -0.102219738 -0.2896936 -0.235744447
v 0.0293340348 -0.0156562235 -0.235744432
v 0.04960673 -0.0253883172 -0.196794584
v -0.1427652 -0.270229429 -0.235744447
v -0.0112114176 0.00380793633 -0.235744432
v -0.163037911 -0.260497361 -0.1967946
v -0.0314841457 0.01353999 -0.196794584
v -0.163037911 -0.260497361 -0.1967946
v -0.1427652 -0.270229429 -0.157844752
v -0.011211413 0.00380790723 -0.157844737
v -0.0314841457 0.01353999 -0.196794584
v -0.102219738 -0.2896936 -0.157844752
v 0.0293340217 -0.0156562459 -0.157844737
v -0.102219738 -0.2896936 -0.157844752
v 0.0293340217 -0.0156562459 -0.157844737
v -0.0277704522 0.07710833 0.8023106
v 0.04965217 0.038008403 0.72145313
v 0.00944862 -0.0457389168 0.72145313
v -0.069481954 -0.009780117 0.8023106
v -0.069481954 -0.009780117 0.8023106
v 0.00944862 -0.0457389168 0.72145313
v 0.009448632 -0.0457389057 0.883168161
v -0.069481954 -0.009780117 0.8023106
v 0.009448632 -0.0457389057 0.883168161
v 0.0496521741 0.03800839 0.883168161
v -0.0277704522 0.07710833 0.8023106
v -0.0277704522 0.07710833 0.8023106
v 0.0496521741 0.03800839 0.883168161
v 0.04965217 0.038008403 0.72145313
v -0.168425724 -0.215888217 0.8023106
v -0.0910031 -0.2549881 0.72145313
v -0.131206855 -0.3387375 0.721453965
v -0.210137427 -0.302775443 0.802307963
v -0.210137427 -0.302775443 0.802307963
v -0.131206855 -0.3387375 0.721453965
v -0.131206647 -0.338735461 0.883168161
v -0.210137427 -0.302775443 0.802307963
v -0.131206647 -0.338735461 0.883168161
v -0.0910031 -0.254988134 0.883168161
v -0.168425724 -0.215888217 0.8023106
v -0.168425724 -0.215888217 0.8023106
v -0.0910031 -0.254988134 0.883168161
v -0.0910031 -0.2549881 0.72145313
v -0.168424681 -0.2158876 0.628259063
v -0.09100312 -0.2549881 0.5474042
v -0.131206647 -0.338735461 0.5474042
v -0.210137233 -0.302776664 0.6282616
v -0.210137233 -0.302776664 0.6282616
v -0.131206647 -0.338735461 0.5474042
v -0.131206647 -0.338735461 0.7091192
v -0.210137233 -0.302776664 0.6282616
v -0.131206647 -0.338735461 0.7091192
v -0.09100456 -0.2549896 0.709120035
v -0.168424681 -0.2158876 0.628259063
v -0.168424681 -0.2158876 0.628259063
v -0.09100456 -0.2549896 0.709120035
v -0.09100312 -0.2549881 0.5474042
v -0.0277704634 0.0771083161 0.6282616
v 0.04965217 0.0380084142 0.54740417
v 0.009448609 -0.0457389131 0.5474042
v -0.06948215 -0.00977893 0.6282643
v -0.06948215 -0.00977893 0.6282643
v 0.009448609 -0.0457389131 0.5474042
v 0.009448417 -0.04574095 0.7091183
v -0.06948215 -0.00977893 0.6282643
v 0.009448417 -0.04574095 0.7091183
v 0.0496521667 0.0380083956 0.7091192
v -0.0277704634 0.0771083161 0.6282616
v -0.0277704634 0.0771083161 0.6282616
v 0.0496521667 0.0380083956 0.7091192
v 0.04965217 0.0380084142 0.54740417
vt 0.381058753 0.4894938
vt 0.381058753 0.746291935
vt 0.5050559 0.746291935
vt 0.505056 0.4894938
vt 0.381058723 0.992534935
vt 0.5050559 0.992534935
vt 0.381058753 0.746291935
vt 0.5050559 0.746291935
vt 0.381058753 0.4894938
vt 0.505056 0.4894938
vt 0.381058782 0.245544612
vt 0.505056 0.245544612
vt 0.3810588 0.01536268
vt 0.505056 0.01536268
vt 0.381058782 0.245544612
vt 0.505056 0.245544612
vt 0.221365362 0.64310956
vt 0.116088621 0.6292495
vt 0.03185398 0.6938777
vt 0.286006778 0.7273519
vt 0.27215457 0.832615256
vt 0.103651971 0.574974835
vt 0.33456707 0.670623064
vt 0.33456707 0.3440597
vt 0.008003755 0.3440597
vt 0.103651971 0.574974835
vt 0.008003755 0.3440597
vt 0.103651926 0.113144636
vt 0.33456707 0.017496407
vt 0.103651926 0.113144636
vt 0.2213808 0.643082857
vt 0.2860222 0.7273251
vt 0.116104029 0.62922287
vt 0.59520334 0.991008162
vt 0.59520334 0.116527915
vt 0.5486941 0.116527915
vt 0.5486941 0.991008162
vt 0.6419571 0.991008162
vt 0.6419571 0.116527915
vt 0.688466251 0.991008162
vt 0.688466251 0.116527915
vt 0.6419571 0.991008162
vt 0.6419571 0.116527915
vt 0.59520334 0.991008162
vt 0.59520334 0.116527915
vt 0.212122962 0.994964242
vt 0.2518182 0.9151432
vt 0.331208766 0.9151432
vt 0.370904 0.994964242
vt 0.5902941 0.0200281143
vt 0.534018 0.0200281143
vt 0.646866262 0.0200281143
vt 0.7031423 0.0200281143
vt 0.646866262 0.0200281143
vt 0.5902941 0.0200281143
vt 0.331208766 0.9151432
vt 0.2518182 0.9151432
vt 0.59520334 0.991008162
vt 0.59520334 0.116527915
vt 0.5486941 0.116527915
vt 0.5486941 0.991008162
vt 0.6419571 0.991008162
vt 0.6419571 0.116527915
vt 0.688466251 0.991008162
vt 0.688466251 0.116527915
vt 0.6419571 0.991008162
vt 0.6419571 0.116527915
vt 0.59520334 0.991008162
vt 0.59520334 0.116527915
vt 0.212122962 0.994964242
vt 0.2518182 0.9151432
vt 0.331208766 0.9151432
vt 0.370904 0.994964242
vt 0.5902941 0.0200281143
vt 0.534018 0.0200281143
vt 0.646866262 0.0200281143
vt 0.7031423 0.0200281143
vt 0.646866262 0.0200281143
vt 0.5902941 0.0200281143
vt 0.331208766 0.9151432
vt 0.2518182 0.9151432
vt 0.59520334 0.991008162
vt 0.59520334 0.116527915
vt 0.5486941 0.116527915
vt 0.5486941 0.991008162
vt 0.6419571 0.991008162
vt 0.6419571 0.116527915
vt 0.688466251 0.991008162
vt 0.688466251 0.116527915
vt 0.6419571 0.991008162
vt 0.6419571 0.116527915
vt 0.59520334 0.991008162
vt 0.59520334 0.116527915
vt 0.212122962 0.994964242
vt 0.2518182 0.9151432
vt 0.331208766 0.9151432
vt 0.370904 0.994964242
vt 0.5902941 0.0200281143
vt 0.534018 0.0200281143
vt 0.646866262 0.0200281143
vt 0.7031423 0.0200281143
vt 0.646866262 0.0200281143
vt 0.5902941 0.0200281143
vt 0.331208766 0.9151432
vt 0.2518182 0.9151432
vt 0.59520334 0.991008162
vt 0.59520334 0.116527915
vt 0.5486941 0.116527915
vt 0.5486941 0.991008162
vt 0.6419571 0.991008162
vt 0.6419571 0.116527915
vt 0.688466251 0.991008162
vt 0.688466251 0.116527915
vt 0.6419571 0.991008162
vt 0.6419571 0.116527915
vt 0.59520334 0.991008162
vt 0.59520334 0.116527915
vt 0.212122962 0.994964242
vt 0.2518182 0.9151432
vt 0.331208766 0.9151432
vt 0.370904 0.994964242
vt 0.5902941 0.0200281143
vt 0.534018 0.0200281143
vt 0.646866262 0.0200281143
vt 0.7031423 0.0200281143
vt 0.646866262 0.0200281143
vt 0.5902941 0.0200281143
vt 0.331208766 0.9151432
vt 0.2518182 0.9151432
vt 0.9103562 0.9925782
vt 0.993605554 0.9925782
vt 0.993605554 0.0097031
vt 0.9103562 0.0097031
vt 0.9103561 0.9925781
vt 0.9103561 0.0097031
vt 0.826653957 0.9925781
vt 0.826653957 0.0097031
vt 0.733055 0.9925781
vt 0.733055 0.0097031
vt 0.8266541 0.9925782
vt 0.8266541 0.0097031
vt 0.9103562 0.9925782
vt 0.993605554 0.9925782
vt 0.993605554 0.0097031
vt 0.9103562 0.0097031
vt 0.9103561 0.9925781
vt 0.9103561 0.0097031
vt 0.826653957 0.9925781
vt 0.826653957 0.0097031
vt 0.733055 0.9925781
vt 0.733055 0.0097031
vt 0.8266541 0.9925782
vt 0.8266541 0.0097031
vt 0.00325815752 0.8851734
vt 0.003237553 0.769533932
vt 0.127338514 0.76951164
vt 0.127359077 0.8851512
vt 0.270097822 0.8854278
vt 0.1304502 0.772353351
vt 0.130450189 0.9985021
vt 0.127359077 0.8851512
vt 0.127379879 1.00079083
vt 0.00327891856 1.000813
vt 0.00325815752 0.8851734
vt 0.270097822 0.8854278
vt 0.130450189 0.9985021
vt 0.1304502 0.772353351
vt 0.00325815752 0.8851734
vt 0.003237553 0.769533932
vt 0.127338514 0.76951164
vt 0.127359077 0.8851512
vt 0.270097822 0.8854278
vt 0.1304502 0.772353351
vt 0.130450189 0.9985021
vt 0.127359077 0.8851512
vt 0.127379879 1.00079083
vt 0.00327891856 1.000813
vt 0.00325815752 0.8851734
vt 0.270097822 0.8854278
vt 0.130450189 0.9985021
vt 0.1304502 0.772353351
vt 0.00325815752 0.8851734
vt 0.003237553 0.769533932
vt 0.127338514 0.76951164
vt 0.127359077 0.8851512
vt 0.270097822 0.8854278
vt 0.1304502 0.772353351
vt 0.130450189 0.9985021
vt 0.127359077 0.8851512
vt 0.127379879 1.00079083
vt 0.00327891856 1.000813
vt 0.00325815752 0.8851734
vt 0.270097822 0.8854278
vt 0.130450189 0.9985021
vt 0.1304502 0.772353351
vt 0.00325815752 0.8851734
vt 0.003237553 0.769533932
vt 0.127338514 0.76951164
vt 0.127359077 0.8851512
vt 0.270097822 0.8854278
vt 0.1304502 0.772353351
vt 0.130450189 0.9985021
vt 0.127359077 0.8851512
vt 0.127379879 1.00079083
vt 0.00327891856 1.000813
vt 0.00325815752 0.8851734
vt 0.270097822 0.8854278
vt 0.130450189 0.9985021
vt 0.1304502 0.772353351
vt 0.591639936 0.2206425
vt 0.5990672 0.0649778843
vt 0.666186154 0.0649778843
vt 0.6444604 0.2206425
vt 0.7354886 0.0004995465
vt 0.7966796 0.000499606133
vt 1.03615844 0.064978
vt 0.958092332 0.06497884
vt 0.03615846 0.064978
vt 0.0471586473 0.220642567
vt -0.013115406 0.220642567
vt -0.0419076681 0.06497884
vt 0.0361583978 0.37630713
vt -0.04190725 0.37630713
vt -0.2645117 0.440785527
vt -0.203320563 0.440785468
vt 0.7354883 0.440785527
vt 0.5990672 0.37630707
vt 0.666186154 0.376307
vt 0.796679437 0.440785468
vt 1.0471586 0.220642567
vt 1.03615844 0.064978
vt 0.7354886 0.0004995465
vt 1.03615844 0.37630713
vt 0.7354883 0.440785527
vt 0.666186154 0.0649778843
vt 0.7966796 0.000499606133
vt 0.797937 0.220642567
vt 0.6444604 0.2206425
vt 0.958092332 0.06497884
vt 0.9868846 0.220642567
vt 0.958092749 0.37630713
vt 0.796679437 0.440785468
vt 0.666186154 0.376307
vt 0.591639936 0.2206425
vt 0.5990672 0.37630707
vt 0.5990672 0.0649778843
vt 1.00974107 0.287037849
vt 1.00974751 0.939919055
vt 0.969621 0.939919055
vt 0.969576359 0.287037849
vt 0.05331132 0.287037849
vt 0.0532806069 0.939919055
vt 0.00974755548 0.939919055
vt 0.009741077 0.287037849
vt 0.07843877 0.287037849
vt 0.07836927 0.939919055
vt 0.03522387 0.287037849
vt 0.0351935066 0.939919055
vt -0.03884691 0.287037849
vt -0.0387709737 0.939919055
vt 0.961229 0.939919055
vt 0.9611531 0.287037849
vt 1.08441484 0.9995005
vt 1.03797066 0.9995005
vt 0.9544772 0.9995005
vt 0.96577704 0.9995005
vt 0.009188152 0.9995005
vt -0.03422296 0.9995005
vt -0.0303789973 0.939919055
vt 0.055894807 0.9995005
vt 0.0844148546 0.9995005
vt 0.0379707 0.9995005
vt 0.9544772 0.9995005
vt 1.03797066 0.9995005
vt 1.03519356 0.939919055
vt 0.96577704 0.9995005
vt 1.00918818 0.9995005
vt 1.05589485 0.9995005
vt 0.6452655 0.2870378
vt 0.645217061 0.939919
vt 0.6475014 0.939919
vt 0.647539139 0.2870378
vt 0.5932938 0.2870378
vt 0.5933177 0.939919
vt 0.5661852 0.2870378
vt 0.5662339 0.939919
vt 0.5848407 0.2870378
vt 0.5848632 0.939919
vt 0.618835747 0.2870378
vt 0.618827462 0.939919
vt 0.56199193 0.999500453
vt 0.5829405 0.999500453
vt 0.6195433 0.999500453
vt 0.6508118 0.999500453
vt 0.649457037 0.999500453
vt 0.6508118 0.999500453
vt 0.5911731 0.999500453
vt 0.56199193 0.999500453
vt 0.5829405 0.999500453
vt 0.6195433 0.999500453
vt 0.649457037 0.999500453
vt 0.5911731 0.999500453
vt 0.631037235 0.168103635
vt 0.4457503 0.801792145
vt 0.481419951 0.8066124
vt 0.6364594 0.172883391
vt 0.578036547 0.158576488
vt 0.4222894 0.792132258
vt 0.5552538 0.153829634
vt 0.433988 0.7872926
vt 0.5754169 0.158576488
vt 0.460591 0.792132258
vt 0.6090566 0.168103635
vt 0.483053267 0.801792145
vt 0.425768346 0.84389627
vt 0.4535551 0.8492726
vt 0.476185977 0.8600254
vt 0.472791016 0.865401864
vt 0.434316069 0.8600254
vt 0.472791016 0.865401864
vt 0.4120225 0.8492726
vt 0.425768346 0.84389627
vt 0.4535551 0.8492726
vt 0.476185977 0.8600254
vt 0.434316069 0.8600254
vt 0.4120225 0.8492726
vt 1.0220058 0.1681037
vt 1.180193 0.801792145
vt 1.1882174 0.8066124
vt 0.98284775 0.172883391
vt 0.06571251 0.158576548
vt 0.203837231 0.792132258
vt 0.180192992 0.801792145
vt 0.022005748 0.1681037
vt 0.09397478 0.1538297
vt 0.235228926 0.7872926
vt 0.0600203648 0.158576548
vt 0.254390955 0.792132258
vt -0.02062273 0.1681037
vt 0.234915 0.801792145
vt 1.234915 0.801792145
vt 0.97937727 0.1681037
vt 0.242449552 0.8438963
vt 0.263293356 0.849272668
vt 0.246048227 0.860025465
vt 0.197531611 0.865401864
vt 0.187157571 0.860025465
vt 0.197531611 0.865401864
vt 0.188217387 0.8066124
vt 0.210416108 0.849272668
vt 0.242449552 0.8438963
vt 0.263293356 0.849272668
vt 0.246048227 0.860025465
vt 0.187157571 0.860025465
vt 0.210416108 0.849272668
vt 0.187672988 0.753672957
vt 0.2054335 0.779851556
vt 0.465538532 0.779851556
vt 0.482233465 0.753672957
vt 0.22660917 0.7748035
vt 0.443810225 0.77480346
vt 0.232776135 0.743576646
vt 0.4370724 0.743576646
vt 0.221705824 0.7173979
vt 0.44903186 0.7173979
vt 0.198500574 0.7224461
vt 0.472209156 0.722445369
vt 0.9731569 0.8990526
vt 0.9939008 0.92808646
vt 0.627370954 0.9280864
vt 0.644216 0.8990526
vt 1.044757 0.92808646
vt 0.5897749 0.9280864
vt 0.07317511 0.8990526
vt 0.56987834 0.8990526
vt -0.926824868 0.8990526
vt 0.0447569974 0.87001884
vt -0.4102251 0.87001884
vt -0.43012166 0.8990526
vt -0.006099224 0.87001884
vt -0.372629046 0.87001884
vt 0.9939008 0.87001884
vt 0.627370954 0.87001884
vt 0.554123938 0.1543045
vt 0.6114606 0.21457684
vt 0.6352746 0.21457684
vt 0.54268223 0.1543045
vt 0.54268223 0.1543045
vt 0.6352746 0.21457684
vt 0.6352745 0.09403205
vt 0.54268223 0.1543045
vt 0.6352745 0.09403205
vt 0.6114606 0.09403205
vt 0.554123938 0.1543045
vt 0.554123938 0.1543045
vt 0.6114606 0.09403205
vt 0.6114606 0.21457684
vt 0.116938666 0.1543045
vt -0.0246726871 0.21457684
vt 0.01963527 0.214576244
vt 0.0933857858 0.154306471
vt 0.0933857858 0.154306471
vt 0.01963527 0.214576244
vt 0.0196353272 0.09403205
vt 0.0933857858 0.154306471
vt 0.0196353272 0.09403205
vt -0.0246726274 0.09403205
vt 0.116938666 0.1543045
vt 0.116938666 0.1543045
vt -0.0246726274 0.09403205
vt -0.0246726871 0.21457684
vt 0.116937995 0.28404516
vt -0.0246726871 0.3443156
vt 0.019635275 0.3443156
vt 0.09338505 0.284043252
vt 0.09338505 0.284043252
vt 0.019635275 0.3443156
vt 0.0196352936 0.223770857
vt 0.09338505 0.284043252
vt 0.0196352936 0.223770857
vt -0.0246702433 0.223770142
vt 0.116937995 0.28404516
vt 0.116937995 0.28404516
vt -0.0246702433 0.223770142
vt -0.0246726871 0.3443156
vt 0.554123938 0.2840432
vt 0.6114606 0.3443156
vt 0.6352746 0.344315529
vt 0.542681754 0.2840413
vt 0.542681754 0.2840413
vt 0.6352746 0.344315529
vt 0.635276 0.223771453
vt 0.542681754 0.2840413
vt 0.635276 0.223771453
vt 0.6114606 0.223770738
vt 0.554123938 0.2840432
vt 0.554123938 0.2840432
vt 0.6114606 0.223770738
vt 0.6114606 0.3443156
vn 0.432773471 0.9015027 1.335182E-07
vn 0.3060171 0.637458563 0.7071069
vn 0.306016922 0.6374585 0.707106948
vn 0.432773471 0.9015027 1.39906575E-07
vn 1.14569332E-06 -3.0691416E-07 1
vn 1.13931731E-06 -3.52997E-07 1
vn -0.30601722 -0.6374587 0.7071067
vn -0.306017131 -0.6374588 0.70710665
vn -0.4327734 -0.9015027 -6.62569661E-08
vn -0.4327734 -0.9015027 -7.377782E-08
vn -0.306016982 -0.6374587 -0.7071068
vn -0.306017 -0.6374587 -0.707106769
vn 7.974965E-09 1.992358E-08 -1
vn 4.11849E-09 1.08984519E-08 -1
vn 0.306017041 0.6374588 -0.70710665
vn 0.306017041 0.637458742 -0.7071067
vn -0.9015027 0.4327734 5.23564347E-09
vn -0.9015027 0.432773441 -3.83565677E-08
vn -0.9015027 0.432773381 2.2603313E-08
vn -0.9015027 0.4327734 3.132175E-08
vn -0.9015027 0.432773352 4.34700453E-08
vn 0.9015027 -0.4327734 -7.599177E-08
vn 0.9015027 -0.4327734 -9.309887E-08
vn 0.9015027 -0.432773441 -4.539716E-08
vn 0.9015027 -0.432773441 -3.463388E-08
vn 0.9015027 -0.4327734 -6.91002242E-08
vn 0.9015027 -0.4327734 -3.15480619E-08
vn 0.9015027 -0.4327734 -2.015118E-08
vn 0.9015027 -0.432773441 -2.23078462E-08
vn 0.9015027 -0.4327734 -1.63454636E-08
vn -0.9015027 0.4327734 4.37863044E-08
vn -0.9015027 0.432773352 6.031799E-08
vn -0.9015027 0.4327734 4.01637159E-08
vn 0.0759587958 -0.997110963 -5.28748E-09
vn 0.07576935 -0.9946321 0.0704690143
vn 0.8992614 -0.4316979 0.07046896
vn 0.9015026 -0.43277362 -2.87024946E-08
vn -0.82554394 -0.56433785 1.630767E-08
vn -0.8234918 -0.5629346 0.07046892
vn -0.9015026 0.43277362 1.959045E-08
vn -0.8992616 0.4316975 0.07046894
vn -0.07595831 0.997111 2.579696E-09
vn -0.07576947 0.9946321 0.07046898
vn 0.8255442 0.564337432 -2.31043611E-08
vn 0.823492 0.562934339 0.0704689249
vn 0 0 -1
vn 0 0 -1
vn 0 0 -1
vn 0 0 -1
vn 0.0752370059 -0.987641037 0.137493759
vn 0.8929409 -0.4286632 0.137493566
vn -0.8177038 -0.5589776 0.137493744
vn -0.892940938 0.428663015 0.137493581
vn -0.07523687 0.9876411 0.137493759
vn 0.8177039 0.5589775 0.1374937
vn 0 0 -1
vn 0 0 -1
vn 0.07595875 -0.997110963 -5.5249787E-09
vn 0.07576954 -0.9946321 0.07046891
vn 0.8992615 -0.4316977 0.0704688653
vn 0.9015027 -0.432773471 -3.171843E-08
vn -0.8255441 -0.5643376 1.43461349E-08
vn -0.823492 -0.562934339 0.07046894
vn -0.901502669 0.4327736 2.56659956E-08
vn -0.8992613 0.431698143 0.07046898
vn -0.07595853 0.997110963 1.14284786E-08
vn -0.07576911 0.9946322 0.0704688951
vn 0.8255442 0.5643375 -2.64175117E-08
vn 0.82349205 0.5629343 0.07046889
vn 0 0 -1
vn 0 0 -1
vn 0 0 -1
vn 0 0 -1
vn 0.07523696 -0.9876411 0.137493655
vn 0.89294076 -0.428663462 0.13749361
vn -0.8177038 -0.558977664 0.13749361
vn -0.89294076 0.428663373 0.1374936
vn -0.07523708 0.9876411 0.1374934
vn 0.817703843 0.558977544 0.137493581
vn 0 0 -1
vn 0 0 -1
vn 0.0590270571 -0.991524637 -0.11573571
vn 0.080523096 -0.9953611 -0.0526525751
vn 0.8879787 -0.42628172 -0.172562391
vn 0.8766184 -0.420827448 -0.233333334
vn -0.815637648 -0.566482544 0.117612712
vn -0.793323457 -0.578958154 0.188269451
vn -0.8766183 0.420827657 0.233333319
vn -0.8573019 0.411555141 0.30928275
vn -0.06808859 0.9907226 0.117612593
vn -0.04439822 0.9811133 0.18826969
vn 0.810596 0.5740552 -0.115735695
vn 0.827033341 0.559681654 -0.0526523851
vn -0.225089312 0.108055957 -0.9683278
vn -0.225088865 0.108056933 -0.968327761
vn -0.225088865 0.108056881 -0.9683278
vn -0.2250893 0.108055919 -0.9683278
vn 0.0920447 -0.9957097 0.009483393
vn 0.895607531 -0.429944068 -0.114172168
vn -0.772614956 -0.5806225 0.2567949
vn -0.833710968 0.4002297 0.38045
vn -0.0301489 0.9659956 0.25679478
vn 0.8345112 0.5509093 0.009483223
vn -0.225089744 0.108054996 -0.9683278
vn -0.225089684 0.108055033 -0.9683278
vn 0.0590271242 -0.9915246 -0.11573571
vn 0.08052251 -0.995361149 -0.0526522622
vn 0.8879785 -0.426282048 -0.1725624
vn 0.8766182 -0.420827776 -0.233333364
vn -0.8156374 -0.5664829 0.117612623
vn -0.7933234 -0.5789582 0.188269377
vn -0.8766182 0.4208278 0.233333349
vn -0.857302 0.411555022 0.309282631
vn -0.06808874 0.990722537 0.117612645
vn -0.0443985872 0.9811133 0.188269511
vn 0.810595751 0.5740556 -0.11573559
vn 0.8270336 0.559681356 -0.05265252
vn -0.225088865 0.108055651 -0.96832794
vn -0.225088686 0.108057581 -0.968327761
vn -0.225088567 0.108055525 -0.968328
vn -0.225088283 0.108055338 -0.9683281
vn 0.09204451 -0.9957097 0.009483487
vn 0.8956078 -0.4299433 -0.114172675
vn -0.7726149 -0.580622852 0.256794363
vn -0.833711147 0.400229335 0.38044998
vn -0.030148074 0.965995669 0.256794542
vn 0.8345113 0.5509092 0.00948307849
vn -0.225088567 0.108055457 -0.968328
vn -0.225090161 0.10805434 -0.968327761
vn 0.891223967 -0.427839041 -0.15057759
vn 0.328052461 -0.157484248 -0.9314399
vn 0.328052431 -0.1574842 -0.931439936
vn 0.891223967 -0.427839041 -0.150577486
vn -0.563170135 0.270354241 -0.7808636
vn -0.563170552 0.2703544 -0.7808633
vn -0.891224146 0.42783916 0.150576234
vn -0.8912242 0.4278392 0.150575608
vn -0.328051746 0.157483786 0.931440234
vn -0.328052431 0.1574842 0.931439936
vn 0.5631721 -0.2703551 0.7808619
vn 0.5631719 -0.270355016 0.7808621
vn 0.9015027 -0.4327734 1.56947479E-07
vn 0.450751662 -0.216386825 -0.8660252
vn 0.450751454 -0.2163867 -0.8660253
vn 0.9015027 -0.4327734 8.53305551E-08
vn -0.450751424 0.21638675 -0.8660254
vn -0.450751424 0.216386765 -0.8660253
vn -0.9015027 0.4327734 1.17608081E-07
vn -0.9015027 0.4327734 2.66046584E-07
vn -0.450751364 0.216386691 0.8660254
vn -0.450751156 0.216386572 0.866025567
vn 0.450751543 -0.21638684 0.866025269
vn 0.450751454 -0.21638678 0.8660253
vn -0.5673032 0.272338361 -0.777173638
vn -0.5673033 0.2723383 -0.777173638
vn -0.56730324 0.272338361 -0.777173638
vn -0.5673031 0.27233842 -0.7771737
vn -0.432773978 -0.90150243 4.240186E-08
vn -0.432773978 -0.90150243 4.240186E-08
vn -0.432774 -0.90150243 4.24018651E-08
vn -0.5673038 0.272338659 0.777173162
vn -0.5673038 0.2723385 0.7771732
vn -0.5673038 0.2723386 0.777173162
vn -0.5673038 0.272338718 0.7771731
vn 0.4327742 0.9015024 4.083646E-08
vn 0.4327742 0.9015024 4.08364649E-08
vn 0.4327742 0.9015024 4.083646E-08
vn -0.5673032 0.272338331 -0.7771737
vn -0.56730324 0.272338271 -0.7771737
vn -0.5673032 0.272338331 -0.7771737
vn -0.5673031 0.272338361 -0.7771737
vn -0.4327741 -0.90150243 -1.81978947E-07
vn -0.432774067 -0.90150243 -1.81978947E-07
vn -0.4327741 -0.90150243 -1.81978962E-07
vn -0.5673037 0.2723386 0.777173162
vn -0.5673037 0.2723385 0.7771732
vn -0.5673037 0.2723386 0.7771732
vn -0.5673037 0.272338659 0.777173162
vn 0.432774156 0.9015024 1.81978947E-07
vn 0.432774127 0.9015024 1.81978947E-07
vn 0.432774156 0.9015024 1.81978947E-07
vn -0.5673032 0.2723387 -0.7771735
vn -0.567303658 0.272338361 -0.77717334
vn -0.56730336 0.272338569 -0.77717346
vn -0.567302942 0.2723389 -0.7771737
vn -0.432773769 -0.90150255 -1.81979E-07
vn -0.432773769 -0.90150255 -1.81979E-07
vn -0.432773769 -0.90150255 -1.81979E-07
vn -0.5673037 0.2723381 0.77717334
vn -0.5673038 0.272338539 0.777173162
vn -0.5673038 0.272338271 0.7771733
vn -0.5673038 0.2723378 0.77717346
vn 0.4327742 0.9015024 1.323414E-07
vn 0.4327742 0.9015024 1.323414E-07
vn 0.4327742 0.9015024 1.323414E-07
vn -0.5673036 0.272338063 -0.77717346
vn -0.5673033 0.2723383 -0.7771736
vn -0.5673035 0.272338152 -0.7771735
vn -0.5673038 0.272337943 -0.7771734
vn -0.432774 -0.90150243 4.240187E-08
vn -0.432774 -0.90150243 4.240187E-08
vn -0.432774037 -0.90150243 4.240187E-08
vn -0.5673035 0.272338927 0.7771733
vn -0.5673035 0.272338331 0.77717346
vn -0.5673035 0.272338718 0.77717334
vn -0.5673035 0.272339284 0.7771731
vn 0.4327739 0.9015025 4.08365075E-08
vn 0.4327739 0.9015025 4.08365075E-08
vn 0.432773918 0.9015025 4.08365075E-08
vn 0.4327734 0.9015027 6.572743E-08
vn 0.306017071 0.637458444 0.707106948
vn 0.306016922 0.6374585 0.707107
vn 0.4327734 0.9015027 7.935629E-08
vn 1.54533416E-06 -2.47670255E-06 1
vn -4.908481E-07 -2.99595854E-06 1
vn -0.306010216 -0.63746 0.707108557
vn -0.306012154 -0.637462258 0.707105637
vn -0.306010216 -0.63746 0.707108557
vn -0.432773739 -0.90150255 -2.35199749E-07
vn -0.432773173 -0.901502848 6.589959E-07
vn -0.306012154 -0.637462258 0.707105637
vn -0.306017071 -0.6374587 -0.707106769
vn -0.3060171 -0.6374586 -0.7071068
vn 3.47129436E-09 -8.406733E-09 -1
vn 1.91496352E-09 1.08984519E-08 -1
vn 3.47129436E-09 -8.406733E-09 -1
vn 0.306017041 0.637458742 -0.7071067
vn 0.306017071 0.6374588 -0.70710665
vn 1.91496352E-09 1.08984519E-08 -1
vn -0.901502669 0.43277353 4.16816359E-09
vn -0.9015027 0.4327734 1.72053149E-07
vn -0.9015027 0.4327734 6.01674657E-08
vn -0.9015027 0.432773441 2.659047E-08
vn -0.9015027 0.4327734 5.311271E-08
vn 0.9101167 -0.413829356 0.02080593
vn 0.9011134 -0.432584 0.0294240247
vn 0.901502967 -0.4327729 -6.157806E-07
vn 0.9138464 -0.406060129 -3.36425927E-08
vn 0.892109156 -0.451340675 0.02080365
vn 0.888378441 -0.4591119 -2.3615155E-06
vn 0.892108142 -0.451342642 -0.0208060686
vn 0.9011124 -0.432586044 -0.0294241346
vn 0.9101167 -0.4138294 -0.0208060164
vn -0.9015027 0.432773352 4.24344151E-08
vn -0.9015027 0.4327734 6.174309E-08
vn -0.9015027 0.4327734 4.925098E-08
vn 0.0759587362 -0.997110963 -6.674871E-05
vn 0.0759185255 -0.9965945 0.0321846455
vn 0.901035368 -0.432549864 0.0321845524
vn 0.9015028 -0.432773352 -6.675088E-05
vn -0.8255441 -0.5643376 -6.673643E-05
vn -0.8251167 -0.5640449 0.032184694
vn 0.0759185255 -0.9965945 0.0321846455
vn 0.0759587362 -0.997110963 -6.674871E-05
vn -0.9015028 0.432773352 -6.67227E-05
vn -0.9010357 0.4325492 0.03218458
vn -0.07595853 0.997110963 -6.67519853E-05
vn -0.07591914 0.9965944 0.0321846157
vn 0.825544238 0.564337432 -6.676685E-05
vn 0.8251165 0.5640451 0.032184463
vn 0.8251165 0.5640451 0.032184463
vn 0.825544238 0.564337432 -6.676685E-05
vn 6.444433E-08 1.342428E-07 -1
vn -7.836467E-08 1.02869785E-06 -1
vn -1.95911785E-08 2.571746E-07 -1
vn -1.28888772E-07 -2.68485763E-07 -1
vn 0.07580402 -0.995083 0.06374642
vn 0.899669051 -0.431893528 0.0637463853
vn 0.901035368 -0.432549864 0.0321845524
vn -0.823865 -0.563189864 0.06374656
vn -0.8996693 0.431893021 0.0637464449
vn -0.07580382 0.995083 0.06374671
vn 0.823865235 0.563189566 0.0637463555
vn -0.07580382 0.995083 0.06374671
vn -0.07591914 0.9965944 0.0321846157
vn 0.899669051 -0.431893528 0.0637463853
vn -4.485328E-08 -3.91417672E-07 -1
vn 5.939196E-07 4.52440432E-08 -1
vn 0.07597989 -0.997109354 -6.57989949E-05
vn 0.0759189352 -0.9965944 0.03218433
vn 0.9010356 -0.4325494 0.0321840271
vn 0.901511967 -0.4327541 -6.62971142E-05
vn -0.8255403 -0.564343154 -6.624802E-05
vn -0.825116634 -0.564044952 0.0321845561
vn -0.9015026 0.43277365 -6.67070053E-05
vn -0.9010354 0.432549775 0.0321846046
vn -0.07595843 0.997110963 -6.671961E-05
vn -0.07591862 0.9965945 0.03218453
vn 0.825540245 0.5643433 -6.67596E-05
vn 0.825116634 0.564044952 0.0321843
vn 0 0 -1
vn 0 0 -1
vn 0 0 -1
vn 0 0 -1
vn 0.0758038461 -0.995083 0.06374655
vn 0.8996691 -0.431893378 0.06374643
vn -0.8238652 -0.563189566 0.0637464449
vn -0.8996691 0.4318934 0.06374641
vn -0.0758039951 0.995083 0.06374622
vn 0.823865235 0.5631895 0.06374641
vn 0 0 -1
vn 0 0 -1
vn 0.0594520457 -0.9914753 -0.11594075
vn 0.0728820562 -0.9932484 -0.0902543142
vn 0.881325662 -0.423165381 -0.21022886
vn 0.8766054 -0.420856476 -0.233329847
vn -0.8153901 -0.5668985 0.117324434
vn -0.802889764 -0.576638937 0.151180461
vn -0.87666136 0.420813 0.233197883
vn -0.8673709 0.416312039 0.272675574
vn -0.06760401 0.990770042 0.117492154
vn -0.0522336625 0.987105668 0.151307777
vn 0.810876548 0.57364887 -0.115785435
vn 0.820665836 0.564251542 -0.09015449
vn -0.225089327 0.108055912 -0.9683278
vn -0.22508882 0.108056754 -0.9683278
vn -0.22508882 0.108056813 -0.9683278
vn -0.225089237 0.108056 -0.9683278
vn 0.07582798 -0.995147467 -0.06270247
vn 0.88546586 -0.4251796 -0.187543467
vn -0.795214236 -0.5769165 0.1865522
vn -0.8568333 0.411227673 0.311012149
vn -0.04735029 0.9813667 0.18621847
vn 0.8239156 0.563190341 -0.0630851239
vn -0.225089744 0.108055107 -0.968327761
vn -0.22509 0.108054914 -0.968327761
vn 0.0594523139 -0.9914752 -0.115940735
vn 0.07288135 -0.993248463 -0.09025401
vn 0.881325364 -0.423165947 -0.21022886
vn 0.8766053 -0.420856774 -0.233329833
vn -0.81539005 -0.566898644 0.117324449
vn -0.802889764 -0.576639 0.151180387
vn 0.07288135 -0.993248463 -0.09025401
vn 0.0594523139 -0.9914752 -0.115940735
vn -0.8766611 0.420813531 0.233197868
vn -0.8673712 0.416311532 0.272675425
vn -0.06760381 0.990770042 0.117492087
vn -0.05223429 0.987105668 0.151307538
vn 0.8108765 0.5736489 -0.115785405
vn 0.8206658 0.564251542 -0.09015467
vn 0.8206658 0.564251542 -0.09015467
vn 0.8108765 0.5736489 -0.115785405
vn -0.2250891 0.10805583 -0.9683279
vn -0.225088909 0.108058 -0.968327641
vn -0.22508876 0.108055815 -0.96832794
vn -0.225088537 0.108055465 -0.968328
vn 0.0758281946 -0.995147467 -0.06270284
vn 0.8854661 -0.4251787 -0.187544137
vn 0.881325364 -0.423165947 -0.21022886
vn -0.795214057 -0.5769169 0.1865518
vn -0.8568334 0.4112275 0.31101203
vn -0.0473494455 0.9813668 0.186218187
vn 0.8239157 0.563190162 -0.06308533
vn -0.225088865 0.108055472 -0.96832794
vn -0.225090414 0.1080544 -0.9683277
vn 0.891224 -0.427839 -0.150577173
vn 0.328052968 -0.157484412 -0.9314397
vn 0.328052521 -0.157484263 -0.9314399
vn 0.8912255 -0.4278384 -0.15057008
vn -0.563169956 0.270354182 -0.780863762
vn -0.5631706 0.27035436 -0.7808632
vn -0.891224146 0.4278392 0.150575876
vn -0.8912242 0.4278392 0.1505759
vn -0.328053385 0.157483175 0.931439757
vn -0.328059524 0.157487631 0.931436837
vn 0.5631717 -0.270356357 0.780861735
vn 0.563160062 -0.270347953 0.78087306
vn 0.9015027 -0.432773441 -2.48782972E-09
vn 0.4507516 -0.21638678 -0.866025269
vn 0.450751454 -0.216386721 -0.8660253
vn 0.9015027 -0.432773441 -9.066739E-08
vn -0.450751454 0.21638678 -0.8660253
vn -0.450751364 0.21638675 -0.8660254
vn -0.9015027 0.432773441 2.361841E-08
vn -0.9015027 0.4327734 1.1211452E-07
vn -0.9015027 0.432773441 2.361841E-08
vn -0.450751543 0.2163868 0.866025269
vn -0.450751334 0.216386661 0.866025448
vn -0.9015027 0.4327734 1.1211452E-07
vn 0.450751543 -0.21638684 0.866025269
vn 0.450751483 -0.2163868 0.8660253
vn 0.450751543 -0.21638684 0.866025269
vn 0.450751483 -0.2163868 0.8660253
vn -0.6147887 0.295134217 -0.7313895
vn -0.61478883 0.295134157 -0.731389463
vn -0.6147887 0.2951342 -0.7313895
vn -0.6147887 0.295134276 -0.7313895
vn -0.4145792 -0.9100132 9.392808E-08
vn -0.4145792 -0.9100132 9.392808E-08
vn -0.4145792 -0.9100132 9.392807E-08
vn -0.6147892 0.295134455 0.731389
vn -0.6147892 0.295134336 0.731389046
vn -0.614789248 0.295134425 0.731389
vn -0.6147892 0.295134544 0.731389
vn 0.450794429 0.8926278 5.13035374E-08
vn 0.450794458 0.8926278 5.13035374E-08
vn 0.450794429 0.8926278 5.13035374E-08
vn -0.6147737 0.295137435 -0.731400847
vn -0.6147941 0.295123637 -0.7313893
vn -0.614778757 0.295134038 -0.731398
vn -0.61475873 0.295147568 -0.7314093
vn -0.414600164 -0.910003662 1.19387641E-05
vn -0.414600164 -0.910003662 1.19387641E-05
vn -0.414600164 -0.910003662 1.19387632E-05
vn -0.6147964 0.295128375 0.7313854
vn -0.614797235 0.2951381 0.7313808
vn -0.614796638 0.295130759 0.7313843
vn -0.614795864 0.295121223 0.731388748
vn 0.450794131 0.892627954 1.64501643E-07
vn 0.450794131 0.892627954 1.64501643E-07
vn 0.450794131 0.892627954 1.64501628E-07
vn -0.61478883 0.295124769 -0.7313933
vn -0.614781 0.295130074 -0.7313977
vn -0.614786863 0.295126081 -0.731394351
vn -0.614794552 0.2951209 -0.73139
vn -0.4145792 -0.9100132 0
vn -0.4145792 -0.910013258 0
vn -0.4145792 -0.9100132 0
vn -0.614796042 0.2951478 0.73137784
vn -0.614794135 0.2951238 0.731389165
vn -0.614795566 0.295141876 0.731380641
vn -0.6147975 0.295165449 0.731369555
vn 0.450814724 0.8926176 1.223355E-05
vn 0.450814724 0.8926175 1.223355E-05
vn 0.450814754 0.8926175 1.22335505E-05
vn -0.6147973 0.295128226 -0.731384754
vn -0.614789069 0.29513377 -0.7313894
vn -0.614795268 0.2951296 -0.7313859
vn -0.6148034 0.2951241 -0.7313813
vn -0.414599955 -0.9100038 -1.19586848E-05
vn -0.414599955 -0.9100038 -1.19586848E-05
vn -0.414599985 -0.9100038 -1.19586839E-05
vn -0.6147766 0.295138776 0.731397867
vn -0.6147746 0.2951138 0.7314096
vn -0.6147761 0.2951326 0.7314008
vn -0.6147781 0.295157135 0.7313892
vn 0.4507942 0.8926279 1.1319807E-07
vn 0.4507942 0.8926279 1.13198077E-07
vn 0.4507942 0.8926279 1.1319807E-07
usemtl 03010010_part_0_material_0
f 1/1/1 2/2/2 3/3/3
f 3/3/3 4/4/4 1/1/1
f 2/2/2 5/5/5 6/6/6
f 6/6/6 3/3/3 2/2/2
f 5/5/5 7/7/7 8/8/8
f 8/8/8 6/6/6 5/5/5
f 7/7/7 9/9/9 10/10/10
f 10/10/10 8/8/8 7/7/7
f 9/9/9 11/11/11 12/12/12
f 12/12/12 10/10/10 9/9/9
f 11/11/11 13/13/13 14/14/14
f 14/14/14 12/12/12 11/11/11
f 13/13/13 15/15/15 16/16/16
f 16/16/16 14/14/14 13/13/13
f 15/15/15 1/1/1 4/4/4
f 4/4/4 16/16/16 15/15/15
f 17/17/17 18/18/18 19/19/19
f 20/20/20 17/17/17 19/19/19
f 21/21/21 20/20/20 19/19/19
f 22/22/22 23/23/23 24/24/24
f 24/24/24 25/25/25 22/22/22
f 26/26/26 27/27/27 24/24/24
f 24/24/24 23/23/23 26/26/26
f 28/28/28 29/29/29 24/24/24
f 24/24/24 27/27/27 28/28/28
f 24/24/24 29/29/29 30/30/30
f 30/30/30 25/25/25 24/24/24
f 31/31/31 32/32/32 21/21/21
f 33/33/33 31/31/31 21/21/21
f 19/19/19 33/33/33 21/21/21
f 34/34/34 35/35/35 36/36/36
f 36/36/36 37/37/37 34/34/34
f 38/38/38 39/39/39 35/35/35
f 35/35/35 34/34/34 38/38/38
f 40/40/40 41/41/41 39/39/39
f 39/39/39 38/38/38 40/40/40
f 42/42/42 43/43/43 41/41/41
f 41/41/41 40/40/40 42/42/42
f 44/44/44 45/45/45 43/43/43
f 43/43/43 42/42/42 44/44/44
f 37/37/37 36/36/36 45/45/45
f 45/45/45 44/44/44 37/37/37
f 46/46/46 47/47/47 48/48/48
f 48/48/48 49/49/49 46/46/46
f 50/50/50 51/51/51 36/36/36
f 36/36/36 35/35/35 50/50/50
f 52/52/52 50/50/50 35/35/35
f 35/35/35 39/39/39 52/52/52
f 53/53/53 52/52/52 39/39/39
f 39/39/39 41/41/41 53/53/53
f 54/54/54 53/53/53 41/41/41
f 41/41/41 43/43/43 54/54/54
f 55/55/55 54/54/54 43/43/43
f 43/43/43 45/45/45 55/55/55
f 51/51/51 55/55/55 45/45/45
f 45/45/45 36/36/36 51/51/51
f 56/56/56 57/57/57 46/46/46
f 46/46/46 49/49/49 56/56/56
f 58/58/58 59/59/59 60/60/60
f 60/60/60 61/61/61 58/58/58
f 62/62/62 63/63/63 59/59/59
f 59/59/59 58/58/58 62/62/62
f 64/64/64 65/65/65 63/63/63
f 63/63/63 62/62/62 64/64/64
f 66/66/66 67/67/67 65/65/65
f 65/65/65 64/64/64 66/66/66
f 68/68/68 69/69/69 67/67/67
f 67/67/67 66/66/66 68/68/68
f 61/61/61 60/60/60 69/69/69
f 69/69/69 68/68/68 61/61/61
f 70/70/70 71/71/71 72/72/72
f 72/72/72 73/73/73 70/70/70
f 74/74/74 75/75/75 60/60/60
f 60/60/60 59/59/59 74/74/74
f 76/76/76 74/74/74 59/59/59
f 59/59/59 63/63/63 76/76/76
f 77/77/77 76/76/76 63/63/63
f 63/63/63 65/65/65 77/77/77
f 78/78/78 77/77/77 65/65/65
f 65/65/65 67/67/67 78/78/78
f 79/79/79 78/78/78 67/67/67
f 67/67/67 69/69/69 79/79/79
f 75/75/75 79/79/79 69/69/69
f 69/69/69 60/60/60 75/75/75
f 80/80/80 81/81/81 70/70/70
f 70/70/70 73/73/73 80/80/80
f 82/82/82 83/83/83 84/84/84
f 84/84/84 85/85/85 82/82/82
f 86/86/86 87/87/87 83/83/83
f 83/83/83 82/82/82 86/86/86
f 88/88/88 89/89/89 87/87/87
f 87/87/87 86/86/86 88/88/88
f 90/90/90 91/91/91 89/89/89
f 89/89/89 88/88/88 90/90/90
f 92/92/92 93/93/93 91/91/91
f 91/91/91 90/90/90 92/92/92
f 85/85/85 84/84/84 93/93/93
f 93/93/93 92/92/92 85/85/85
f 94/94/94 95/95/95 96/96/96
f 96/96/96 97/97/97 94/94/94
f 98/98/98 99/99/99 84/84/84
f 84/84/84 83/83/83 98/98/98
f 100/100/100 98/98/98 83/83/83
f 83/83/83 87/87/87 100/100/100
f 101/101/101 100/100/100 87/87/87
f 87/87/87 89/89/89 101/101/101
f 102/102/102 101/101/101 89/89/89
f 89/89/89 91/91/91 102/102/102
f 103/103/103 102/102/102 91/91/91
f 91/91/91 93/93/93 103/103/103
f 99/99/99 103/103/103 93/93/93
f 93/93/93 84/84/84 99/99/99
f 104/104/104 105/105/105 94/94/94
f 94/94/94 97/97/97 104/104/104
f 106/106/106 107/107/107 108/108/108
f 108/108/108 109/109/109 106/106/106
f 110/110/110 111/111/111 107/107/107
f 107/107/107 106/106/106 110/110/110
f 112/112/112 113/113/113 111/111/111
f 111/111/111 110/110/110 112/112/112
f 114/114/114 115/115/115 113/113/113
f 113/113/113 112/112/112 114/114/114
f 116/116/116 117/117/117 115/115/115
f 115/115/115 114/114/114 116/116/116
f 109/109/109 108/108/108 117/117/117
f 117/117/117 116/116/116 109/109/109
f 118/118/118 119/119/119 120/120/120
f 120/120/120 121/121/121 118/118/118
f 122/122/122 123/123/123 108/108/108
f 108/108/108 107/107/107 122/122/122
f 124/124/124 122/122/122 107/107/107
f 107/107/107 111/111/111 124/124/124
f 125/125/125 124/124/124 111/111/111
f 111/111/111 113/113/113 125/125/125
f 126/126/126 125/125/125 113/113/113
f 113/113/113 115/115/115 126/126/126
f 127/127/127 126/126/126 115/115/115
f 115/115/115 117/117/117 127/127/127
f 123/123/123 127/127/127 117/117/117
f 117/117/117 108/108/108 123/123/123
f 128/128/128 129/129/129 118/118/118
f 118/118/118 121/121/121 128/128/128
f 130/130/130 131/131/131 132/132/132
f 132/132/132 133/133/133 130/130/130
f 131/131/131 134/134/134 135/135/135
f 135/135/135 132/132/132 131/131/131
f 134/134/134 136/136/136 137/137/137
f 137/137/137 135/135/135 134/134/134
f 136/136/136 138/138/138 139/139/139
f 139/139/139 137/137/137 136/136/136
f 138/138/138 140/140/140 141/141/141
f 141/141/141 139/139/139 138/138/138
f 140/140/140 130/130/130 133/133/133
f 133/133/133 141/141/141 140/140/140
f 142/142/142 143/143/143 144/144/144
f 144/144/144 145/145/145 142/142/142
f 143/143/143 146/146/146 147/147/147
f 147/147/147 144/144/144 143/143/143
f 146/146/146 148/148/148 149/149/149
f 149/149/149 147/147/147 146/146/146
f 148/148/148 150/150/150 151/151/151
f 151/151/151 149/149/149 148/148/148
f 150/150/150 152/152/152 153/153/153
f 153/153/153 151/151/151 150/150/150
f 152/152/152 142/142/142 145/145/145
f 145/145/145 153/153/153 152/152/152
f 154/154/154 155/155/155 156/156/156
f 156/156/156 157/157/157 154/154/154
f 158/158/158 159/159/159 160/160/160
f 161/161/161 162/162/162 163/163/163
f 163/163/163 164/164/164 161/161/161
f 165/165/165 166/166/166 167/167/167
f 168/168/168 169/169/169 170/170/170
f 170/170/170 171/171/171 168/168/168
f 172/172/172 173/173/173 174/174/174
f 175/175/175 176/176/176 177/177/177
f 177/177/177 178/178/178 175/175/175
f 179/179/179 180/180/180 181/181/181
f 182/182/182 183/183/183 184/184/184
f 184/184/184 185/185/185 182/182/182
f 186/186/186 187/187/187 188/188/188
f 189/189/189 190/190/190 191/191/191
f 191/191/191 192/192/192 189/189/189
f 193/193/193 194/194/194 195/195/195
f 196/196/196 197/197/197 198/198/198
f 198/198/198 199/199/199 196/196/196
f 200/200/200 201/201/201 202/202/202
f 203/203/203 204/204/204 205/205/205
f 205/205/205 206/206/206 203/203/203
f 207/207/207 208/208/208 209/209/209
usemtl 03010010_part_0_material_1
f 210/210/210 211/211/211 212/212/212
f 212/212/212 213/213/213 210/210/210
f 211/211/211 214/214/214 215/215/215
f 215/215/215 212/212/212 211/211/211
f 214/214/214 216/216/216 217/217/217
f 217/217/217 215/215/215 214/214/214
f 218/218/218 219/219/219 220/220/220
f 220/220/220 221/221/221 218/218/218
f 219/219/219 222/222/222 223/223/223
f 223/223/223 220/220/220 219/219/219
f 222/222/222 224/224/224 225/225/225
f 225/225/225 223/223/223 222/222/222
f 226/226/226 227/227/227 228/228/228
f 228/228/228 229/229/229 226/226/226
f 227/227/227 210/210/210 213/213/213
f 213/213/213 228/228/228 227/227/227
f 230/230/230 231/231/231 232/232/232
f 233/233/233 230/230/230 232/232/232
f 234/234/234 233/233/233 232/232/232
f 235/235/235 236/236/236 237/237/237
f 237/237/237 238/238/238 235/235/235
f 239/239/239 240/240/240 237/237/237
f 237/237/237 236/236/236 239/239/239
f 241/241/241 242/242/242 237/237/237
f 237/237/237 240/240/240 241/241/241
f 237/237/237 242/242/242 243/243/243
f 243/243/243 238/238/238 237/237/237
f 244/244/244 245/245/245 234/234/234
f 246/246/246 244/244/244 234/234/234
f 232/232/232 246/246/246 234/234/234
f 247/247/247 248/248/248 249/249/249
f 249/249/249 250/250/250 247/247/247
f 251/251/251 252/252/252 253/253/253
f 253/253/253 254/254/254 251/251/251
f 255/255/255 256/256/256 252/252/252
f 252/252/252 251/251/251 255/255/255
f 257/257/257 258/258/258 256/256/256
f 256/256/256 255/255/255 257/257/257
f 259/259/259 260/260/260 258/258/258
f 258/258/258 257/257/257 259/259/259
f 250/250/250 249/249/249 261/261/261
f 261/261/261 262/262/262 250/250/250
f 263/263/263 264/264/264 265/265/265
f 265/265/265 266/266/266 263/263/263
f 267/267/267 268/268/268 269/269/269
f 269/269/269 253/253/253 267/267/267
f 270/270/270 267/267/267 253/253/253
f 253/253/253 252/252/252 270/270/270
f 271/271/271 270/270/270 252/252/252
f 252/252/252 256/256/256 271/271/271
f 272/272/272 271/271/271 256/256/256
f 256/256/256 258/258/258 272/272/272
f 273/273/273 274/274/274 275/275/275
f 275/275/275 261/261/261 273/273/273
f 276/276/276 273/273/273 261/261/261
f 261/261/261 249/249/249 276/276/276
f 277/277/277 278/278/278 263/263/263
f 263/263/263 266/266/266 277/277/277
f 279/279/279 280/280/280 281/281/281
f 281/281/281 282/282/282 279/279/279
f 283/283/283 284/284/284 280/280/280
f 280/280/280 279/279/279 283/283/283
f 285/285/285 286/286/286 284/284/284
f 284/284/284 283/283/283 285/285/285
f 287/287/287 288/288/288 286/286/286
f 286/286/286 285/285/285 287/287/287
f 289/289/289 290/290/290 288/288/288
f 288/288/288 287/287/287 289/289/289
f 282/282/282 281/281/281 290/290/290
f 290/290/290 289/289/289 282/282/282
f 291/291/291 292/292/292 293/293/293
f 293/293/293 294/294/294 291/291/291
f 295/295/295 296/296/296 281/281/281
f 281/281/281 280/280/280 295/295/295
f 297/297/297 295/295/295 280/280/280
f 280/280/280 284/284/284 297/297/297
f 298/298/298 297/297/297 284/284/284
f 284/284/284 286/286/286 298/298/298
f 299/299/299 298/298/298 286/286/286
f 286/286/286 288/288/288 299/299/299
f 300/300/300 299/299/299 288/288/288
f 288/288/288 290/290/290 300/300/300
f 296/296/296 300/300/300 290/290/290
f 290/290/290 281/281/281 296/296/296
f 301/301/301 302/302/302 291/291/291
f 291/291/291 294/294/294 301/301/301
f 303/303/303 304/304/304 305/305/305
f 305/305/305 306/306/306 303/303/303
f 307/307/307 308/308/308 304/304/304
f 304/304/304 303/303/303 307/307/307
f 309/309/309 310/310/310 308/308/308
f 308/308/308 307/307/307 309/309/309
f 311/311/311 312/312/312 310/310/310
f 310/310/310 309/309/309 311/311/311
f 313/313/313 314/314/314 312/312/312
f 312/312/312 311/311/311 313/313/313
f 306/306/306 305/305/305 314/314/314
f 314/314/314 313/313/313 306/306/306
f 315/315/315 316/316/316 317/317/317
f 317/317/317 318/318/318 315/315/315
f 319/319/319 320/320/320 305/305/305
f 305/305/305 304/304/304 319/319/319
f 321/321/321 319/319/319 304/304/304
f 304/304/304 308/308/308 321/321/321
f 322/322/322 321/321/321 308/308/308
f 308/308/308 310/310/310 322/322/322
f 323/323/323 322/322/322 310/310/310
f 310/310/310 312/312/312 323/323/323
f 324/324/324 323/323/323 312/312/312
f 312/312/312 314/314/314 324/324/324
f 320/320/320 324/324/324 314/314/314
f 314/314/314 305/305/305 320/320/320
f 325/325/325 326/326/326 315/315/315
f 315/315/315 318/318/318 325/325/325
f 327/327/327 328/328/328 329/329/329
f 329/329/329 330/330/330 327/327/327
f 331/331/331 332/332/332 333/333/333
f 333/333/333 334/334/334 331/331/331
f 335/335/335 336/336/336 332/332/332
f 332/332/332 331/331/331 335/335/335
f 337/337/337 338/338/338 336/336/336
f 336/336/336 335/335/335 337/337/337
f 339/339/339 340/340/340 338/338/338
f 338/338/338 337/337/337 339/339/339
f 330/330/330 329/329/329 341/341/341
f 341/341/341 342/342/342 330/330/330
f 343/343/343 344/344/344 345/345/345
f 345/345/345 346/346/346 343/343/343
f 347/347/347 348/348/348 349/349/349
f 349/349/349 333/333/333 347/347/347
f 350/350/350 347/347/347 333/333/333
f 333/333/333 332/332/332 350/350/350
f 351/351/351 350/350/350 332/332/332
f 332/332/332 336/336/336 351/351/351
f 352/352/352 351/351/351 336/336/336
f 336/336/336 338/338/338 352/352/352
f 353/353/353 352/352/352 338/338/338
f 338/338/338 340/340/340 353/353/353
f 348/348/348 353/353/353 340/340/340
f 340/340/340 349/349/349 348/348/348
f 354/354/354 355/355/355 343/343/343
f 343/343/343 346/346/346 354/354/354
f 356/356/356 357/357/357 358/358/358
f 358/358/358 359/359/359 356/356/356
f 357/357/357 360/360/360 361/361/361
f 361/361/361 358/358/358 357/357/357
f 360/360/360 362/362/362 363/363/363
f 363/363/363 361/361/361 360/360/360
f 362/362/362 364/364/364 365/365/365
f 365/365/365 363/363/363 362/362/362
f 364/364/364 366/366/366 367/367/367
f 367/367/367 365/365/365 364/364/364
f 366/366/366 356/356/356 359/359/359
f 359/359/359 367/367/367 366/366/366
f 368/368/368 369/369/369 370/370/370
f 370/370/370 371/371/371 368/368/368
f 369/369/369 372/372/372 373/373/373
f 373/373/373 370/370/370 369/369/369
f 372/372/372 374/374/374 375/375/375
f 375/375/375 373/373/373 372/372/372
f 376/376/376 377/377/377 378/378/378
f 378/378/378 379/379/379 376/376/376
f 377/377/377 380/380/380 381/381/381
f 381/381/381 378/378/378 377/377/377
f 382/382/382 368/368/368 371/371/371
f 371/371/371 383/383/383 382/382/382
f 384/384/384 385/385/385 386/386/386
f 386/386/386 387/387/387 384/384/384
f 388/388/388 389/389/389 390/390/390
f 391/391/391 392/392/392 393/393/393
f 393/393/393 394/394/394 391/391/391
f 395/395/395 396/396/396 397/397/397
f 398/398/398 399/399/399 400/400/400
f 400/400/400 401/401/401 398/398/398
f 402/402/402 403/403/403 404/404/404
f 405/405/405 406/406/406 407/407/407
f 407/407/407 408/408/408 405/405/405
f 409/409/409 410/410/410 411/411/411
f 412/412/412 413/413/413 414/414/414
f 414/414/414 415/415/415 412/412/412
f 416/416/416 417/417/417 418/418/418
f 419/419/419 420/420/420 421/421/421
f 421/421/421 422/422/422 419/419/419
f 423/423/423 424/424/424 425/425/425
f 426/426/426 427/427/427 428/428/428
f 428/428/428 429/429/429 426/426/426
f 430/430/430 431/431/431 432/432/432
f 433/433/433 434/434/434 435/435/435
f 435/435/435 436/436/436 433/433/433
f 437/437/437 438/438/438 439/439/439
