mtllib 03010112.mtl
o 03010112_part_0
v 0.0556370579 -0.09938371 1.57985365
v 0.000705653 0.0234287325 1.58019257
v 0.0217610728 0.02494885 0.471561968
v 0.0541468374 -0.0653922558 0.485394329
v 0.05441839 -0.01423474 0.0509695932
v 0.0536575429 -0.05069366 0.08694104
v 0.00325405621 0.0260161478 0.115524128
v 0.0146552706 0.0258711874 0.05112464
v 0.054225035 -0.0310588628 0.143653408
v 0.0543355867 -0.0310784336 0.197190627
v 0.0120552583 0.0256122556 0.227450177
v 0.0534198545 -0.01359878 -0.437687665
v 0.0133831743 0.0267830584 -0.4375315
v -0.00443663448 0.0271963831 -0.440260559
v 0.05305886 -0.0283267014 -0.4490293
v 0.05441839 -0.01423474 0.0509695932
v 0.0146552706 0.0258711874 0.05112464
v 0.0133831743 0.0267830584 -0.4375315
v 0.0534198545 -0.01359878 -0.437687665
v 0.0528285019 -0.0281165168 -0.562460065
v 0.05240349 -0.05179195 -0.505787253
v -0.02719317 0.02783573 -0.5054781
v -0.00654133037 0.0274649616 -0.5622365
v 0.0540203974 0.0261217747 -0.5870213
v 0.059121348 0.0214675274 1.92476141
v 0.0276575014 0.0250713639 0.3289379
v 0.0548988357 -0.021597378 0.364073217
v -7.399195E-05 0.0255610384 0.4096869
v 0.0547954254 -0.0345470756 0.457319051
v 0.0536871776 -0.0520451479 0.116173111
v 0.0112928394 -0.01401065 0.281272739
v 0.0433506258 -0.03495044 0.364261419
v 0.0769110247 -0.0354079343 0.36531508
v 0.052891355 -0.10392195 0.3056743
v 0.02603129 -0.04783583 0.350351363
v 0.0514677763 -0.168603227 0.333911955
v 0.0353660248 -0.180001348 0.388940573
v 0.07645309 -0.0608260781 0.4253656
v 0.0769110247 -0.0354079343 0.36531508
v 0.03342919 -0.0598391779 0.4253107
v 0.0344221368 -0.1852523 0.4521291
v 0.07363658 -0.186153308 0.452020258
v 0.053432975 -0.07515064 0.248926118
v 0.0521890633 -0.131697372 0.2739151
v 0.0495238975 -0.252383858 0.322281063
v 0.0475238562 -0.35124138 0.450191438
v 0.05924684 -0.283598334 0.4872845
v 0.0396371074 -0.283257574 0.4873412
v 0.044927258 -0.381331474 0.5595674
v 0.04493228 -0.38111195 0.559562862
v 0.05196477 -0.1336781 0.18762818
v 0.05378756 -0.0524652377 0.1692315
v 0.0217610728 0.02494885 0.471561968
v 0.0548988357 -0.021597378 0.364073217
v 0.090579 0.0233719461 0.4714193
v 0.116137028 0.0207837336 1.57995331
v 0.0959771 0.0240077674 0.0509560555
v 0.107639767 0.0236242339 0.115307726
v 0.0992932543 0.0236132722 0.227269322
v 0.113073044 0.0245037451 -0.440504164
v 0.09526446 0.0249068234 -0.437701285
v 0.09526446 0.0249068234 -0.437701285
v 0.0959771 0.0240077674 0.0509560555
v 0.114682287 0.02468721 -0.5624879
v 0.135564491 0.0241062753 -0.505815566
v 0.08410335 0.0237779468 0.328820825
v 0.112162568 0.0229892284 0.409454167
v 0.0984630361 -0.0160080865 0.281092018
v 0.08247714 -0.0491292328 0.35023433
v 0.06725848 -0.180732116 0.3888744
v 0.07645309 -0.0608260781 0.4253656
v 0.07363658 -0.186153308 0.452020258
v 0.05924684 -0.283598334 0.4872845
v 0.090579 0.0233719461 0.4714193
v 0.0612056628 0.1435962 1.58029258
v 0.0582503676 0.113660917 0.485717773
v 0.05621397 0.06411369 0.05111111
v 0.0571212 0.100439072 0.0872140452
v 0.0567839 0.0805942342 0.14385511
v 0.0568907931 0.0804154 0.197392046
v 0.05522779 0.06528867 -0.437545121
v 0.05554282 0.0800585151 -0.4488335
v 0.05621397 0.06411369 0.05111111
v 0.05522779 0.06528867 -0.437545121
v 0.05531247 0.0802687 -0.562264264
v 0.05596783 0.103733957 -0.5055063
v 0.0570053 0.07031595 0.3642393
v 0.057487525 0.08292001 0.4575313
v 0.0572102964 0.1016822 0.116450787
v 0.0131043717 0.06503389 0.281415522
v 0.07962696 0.0830990151 0.36552918
v 0.046080932 0.08418327 0.364476651
v 0.02937122 0.0978987 0.350614637
v 0.0587761849 0.1528564 0.306138217
v 0.0603149273 0.217432618 0.33460933
v 0.04474769 0.22935763 0.389680028
v 0.080328986 0.10829445 0.4256711
v 0.0373050533 0.109279789 0.425616235
v 0.07962696 0.0830990151 0.36552918
v 0.04404012 0.234418124 0.452887177
v 0.08325467 0.233522072 0.452778369
v 0.05934969 0.180749327 0.2744795
v 0.0580038652 0.124295585 0.249286368
v 0.06221218 0.301255822 0.323281169
v 0.06473248 0.3996386 0.4515479
v 0.0733381361 0.3313989 0.486862719
v 0.06350299 0.429201454 0.561026633
v 0.06350804 0.429420948 0.561032057
v 0.0537333861 0.331956625 0.4869198
v 0.05922352 0.1830498 0.18820034
v 0.0573254228 0.101905666 0.169510335
v 0.0570053 0.07031595 0.3642393
v 0.100274578 0.06303646 0.281234771
v 0.08581707 0.096605286 0.3504976
v 0.076640144 0.228626832 0.389613956
v 0.080328986 0.10829445 0.4256711
v 0.08325467 0.233522072 0.452778369
v 0.0733381361 0.3313989 0.486862719
v 0.0548519343 -0.134070411 1.58446085
v -0.0341925621 0.024223838 1.58273661
v -0.0132101476 0.02575239 0.470393717
v 0.05337411 -0.09795825 0.4725935
v 0.0591925941 0.021402495 2.00987267
v 0.0540415235 -0.06607621 0.442141831
v 0.0541051738 -0.0564818829 0.3668016
v -0.0330695845 0.026296163 0.421338
v 0.125545278 0.0225729141 0.470106035
v 0.151045561 0.0199792 1.58235264
v 0.145205289 0.0222111158 0.420968324
v 0.06201004 0.1782653 1.58502507
v 0.058971446 0.146274045 0.47303465
v 0.0581800975 0.11450509 0.4424681
v 0.0578103773 0.105190031 0.367093682
vt 0.9899129 0.7489644
vt 0.8965865 0.7489644
vt 0.8965865 0.0975860357
vt 0.9580321 0.10723722
vt 0.061105568 0.177629411
vt 0.140056074 0.230388165
vt 0.0149924 0.271875858
vt 0.0150738163 0.177629411
vt 0.117649622 0.3133633
vt 0.117517918 0.43748492
vt 0.0151913268 0.481505275
vt 0.453164637 0.4648257
vt 0.350381255 0.4648257
vt 0.3203144 0.431656837
vt 0.5203635 0.431656837
vt 0.752370954 0.7767803
vt 0.665555656 0.7767803
vt 0.665555656 0.0130495429
vt 0.752370954 0.0130495429
vt 0.5203635 0.1142298
vt 0.607453048 0.272943318
vt 0.3203144 0.272943318
vt 0.3203144 0.1142298
vt 0.4170755 0.0303715467
vt 0.8965865 0.985475957
vt 0.0149924 0.630130947
vt 0.0835988 0.6768136
vt 0.0149924 0.7482636
vt 0.936897635 0.08793491
vt 0.142202869 0.273187637
vt 0.0804117 0.5604066
vt 0.113706104 0.683272243
vt 0.113706104 0.683272243
vt 0.227465346 0.5964982
vt 0.135589853 0.6616733
vt 0.358256817 0.6548318
vt 0.378331929 0.7353766
vt 0.105296835 0.822488844
vt 0.0873403 0.711937845
vt 0.134597346 0.772974253
vt 0.384031534 0.827007353
vt 0.352689236 0.8719465
vt 0.180029765 0.5133424
vt 0.2735242 0.550076
vt 0.5025191 0.6380257
vt 0.672290444 0.82554847
vt 0.5378009 0.9289279
vt 0.553472042 0.9064583
vt 0.7229126 0.9859093
vt 0.7229126 0.9859093
vt 0.27706638 0.423756778
vt 0.142735273 0.3966092
vt 0.0149924 0.838915169
vt 0.9281283 0.0239375234
vt 0.8965865 0.0975860357
vt 0.8965865 0.7489644
vt 0.0150738163 0.177629411
vt 0.0149924 0.271875858
vt 0.0151913268 0.481505275
vt 0.3203144 0.431656837
vt 0.350381255 0.4648257
vt 0.665555656 0.0130495429
vt 0.665555656 0.7767803
vt 0.3203144 0.1142298
vt 0.3203144 0.272943318
vt 0.0149924 0.630130947
vt 0.0149924 0.7482636
vt 0.0804117 0.5604066
vt 0.135589853 0.6616733
vt 0.378331929 0.7353766
vt 0.134597346 0.772974253
vt 0.384031534 0.827007353
vt 0.553472042 0.9064583
vt 0.0149924 0.838915169
vt 0.803260148 0.7489644
vt 0.8351409 0.10723722
vt 0.061105568 0.177629411
vt 0.140056074 0.230388165
vt 0.117649622 0.3133633
vt 0.117517918 0.43748492
vt 0.453164637 0.4648257
vt 0.5203635 0.431656837
vt 0.752370954 0.7767803
vt 0.752370954 0.0130495429
vt 0.5203635 0.1142298
vt 0.607453048 0.272943318
vt 0.0835988 0.6768136
vt 0.8562754 0.08793491
vt 0.142202869 0.273187637
vt 0.0804117 0.5604066
vt 0.113706104 0.683272243
vt 0.113706104 0.683272243
vt 0.135589853 0.6616733
vt 0.227465346 0.5964982
vt 0.358256817 0.6548318
vt 0.378331929 0.7353766
vt 0.105296835 0.822488844
vt 0.134597346 0.772974253
vt 0.0873403 0.711937845
vt 0.384031534 0.827007353
vt 0.352689236 0.8719465
vt 0.2735242 0.550076
vt 0.180029765 0.5133424
vt 0.5025191 0.6380257
vt 0.672290444 0.82554847
vt 0.5378009 0.9289279
vt 0.7229126 0.9859093
vt 0.7229126 0.9859093
vt 0.553472042 0.9064583
vt 0.27706638 0.423756778
vt 0.142735273 0.3966092
vt 0.8650446 0.0239375234
vt 0.0804117 0.5604066
vt 0.135589853 0.6616733
vt 0.378331929 0.7353766
vt 0.134597346 0.772974253
vt 0.384031534 0.827007353
vt 0.553472042 0.9064583
vt 0.000499606133 0.235863566
vt 0.506801248 0.236944914
vt 0.5116903 0.934534252
vt 0.116003782 0.9331547
vt 0.497777224 0.0004994869
vt 0.217977971 0.95225203
vt 0.248665273 0.9995005
vt 0.5134296 0.965298831
vt 0.5015208 0.9347147
vt 0.493224829 0.237185717
vt 0.5003636 0.965530634
vt 0.999500453 0.235509753
vt 0.8971769 0.932878
vt 0.7955644 0.952047348
vt 0.7657703 0.9993173
vn -0.0224359371 -0.991044343 0.131634653
vn -0.9970959 0.0227201022 0.0726884156
vn -0.999179 0.0229594782 -0.0333788879
vn -0.02234566 -0.945897043 -0.323696584
vn -0.02255147 -0.9584309 -0.284432173
vn -0.021833485 -0.9167464 -0.398872644
vn -0.9988714 0.0229672864 -0.0415751
vn -0.9956772 0.0229815245 -0.08999357
vn -0.0209565032 -0.944281459 0.328471273
vn -0.0033865415 -0.05745774 -0.9983422
vn -0.9918656 0.0229577031 -0.125202417
vn -0.0174456369 -0.8138891 0.580758333
vn -0.5297384 0.0106079774 0.848094761
vn -0.7504068 0.01600405 0.6607825
vn -0.01829559 -0.8465704 0.531962335
vn -0.02255147 -0.9584309 -0.284432173
vn -0.9956772 0.0229815245 -0.08999357
vn -0.5297384 0.0106079774 0.848094761
vn -0.0174456369 -0.8138891 0.580758333
vn -0.0192993488 -0.786366761 -0.6174584
vn -0.0229119956 -0.999735832 -0.00180591492
vn -0.999734044 0.0229165647 -0.00258380827
vn -0.7945042 0.01930495 -0.6069517
vn -0.0020314022 0.00185298349 -0.999996245
vn 0.00203108788 -0.00185302657 0.999996245
vn -0.98355794 0.02221741 0.179221034
vn -0.207858592 -0.364788264 0.9075926
vn -0.994845748 0.0226212665 0.09884462
vn -0.0206177272 -0.8525254 -0.522279
vn -0.0215955973 -0.96582365 0.258298874
vn -0.9946082 -0.1036718 0.00257910346
vn -0.5057685 0.7415237 0.440841138
vn 0.6967028 0.48902905 0.524838865
vn -0.0229940861 -0.992979944 -0.116026133
vn -0.981629431 0.07181984 0.1767641
vn -0.008310924 -0.27572003 -0.961202
vn -0.9917145 -0.0575983673 -0.114825115
vn 0.622105837 0.474555254 0.622721136
vn 0.6967028 0.48902905 0.524838865
vn -0.5940849 0.507433951 0.624158561
vn -0.7369427 0.1524537 0.658538759
vn 0.782261431 0.09546277 0.61559236
vn -0.0223236363 -0.988033533 0.152615219
vn -0.0229217764 -0.9846868 -0.172819361
vn -0.01246403 -0.4637854 -0.8858599
vn -0.0210186914 -0.9109345 -0.4120152
vn 0.7797197 0.211467952 0.589337349
vn -0.769619 0.267270029 0.5798736
vn -0.0337660722 -0.6511458 0.7582012
vn -0.984623253 0.0031525935 -0.174662963
vn -0.0218622312 -0.9183269 -0.3952186
vn 0.00249503 0.197584018 -0.9802828
vn -0.999179 0.0229594782 -0.0333788879
vn -0.207858592 -0.364788264 0.9075926
vn 0.999035 -0.0228280853 -0.0375219
vn 0.9973827 -0.0229818933 0.06855318
vn 0.9953033 -0.0226403344 -0.09412152
vn 0.998694062 -0.0228055418 -0.0457167663
vn 0.9913486 -0.0224862434 -0.129314408
vn 0.753083944 -0.0184473731 0.6576657
vn 0.533176541 -0.0137478169 0.8458923
vn 0.533176541 -0.0137478169 0.8458923
vn 0.9953033 -0.0226403344 -0.09412152
vn 0.792031944 -0.0170495976 -0.610241532
vn 0.999715149 -0.0228993557 -0.0067294864
vn 0.986773133 -0.0229047872 0.160480991
vn 0.995238841 -0.0229800511 0.0947183743
vn 0.9888178 -0.149120554 -0.00153327547
vn 0.9932219 -0.100058325 0.05914918
vn 0.9823906 -0.108819731 -0.151878208
vn 0.622105837 0.474555254 0.622721136
vn 0.782261431 0.09546277 0.61559236
vn 0.7797197 0.211467952 0.589337349
vn 0.999035 -0.0228280853 -0.0375219
vn 0.02297809 0.990549862 0.135214448
vn 0.02103787 0.947090268 -0.320277154
vn 0.0214031581 0.9594786 -0.280967325
vn 0.0202202927 0.918218553 -0.395557553
vn 0.0222976226 0.943057954 0.331880361
vn -0.0006684189 0.0611556433 -0.998128
vn 0.0198103655 0.8117319 0.58369416
vn 0.02046242 0.8445934 0.5350171
vn 0.0214031581 0.9594786 -0.280967325
vn 0.0198103655 0.8117319 0.58369416
vn 0.0167969577 0.7886498 -0.6146131
vn 0.0229120348 0.999735832 0.00180629338
vn -0.191003412 0.370649368 0.908920646
vn 0.0185027868 0.8544548 -0.5191961
vn 0.0226518549 0.9648599 0.26178658
vn -0.9888148 0.149117723 0.003035711
vn 0.673525 -0.5223245 0.5230117
vn -0.5392446 -0.7191615 0.438203156
vn -0.983903646 -0.027411893 0.176584885
vn 0.0225299317 0.9934032 -0.11243888
vn 0.00440867571 0.279280424 -0.9601995
vn -0.988025069 0.103384428 -0.114534341
vn 0.5996612 -0.5048024 0.6209517
vn -0.616759062 -0.4819356 0.622371554
vn 0.673525 -0.5223245 0.5230117
vn -0.7413811 -0.117024556 0.660802066
vn 0.775217056 -0.130279943 0.61811465
vn 0.0222269055 0.9853207 -0.169260621
vn 0.022950843 0.98746115 0.156184912
vn 0.008869266 0.4670656 -0.884178162
vn 0.0208537132 0.9121731 -0.409274161
vn 0.772403955 -0.245436728 0.585792542
vn 0.09907652 0.242127761 -0.9651725
vn 0.09211175 -0.8313925 0.5479981
vn -0.784672558 -0.23045145 0.5754834
vn 0.0202635266 0.919785559 -0.3918979
vn -0.006478217 -0.193949714 -0.980990052
vn -0.191003412 0.370649368 0.908920646
vn 0.994611263 0.10366904 -0.00107669982
vn 0.996758044 0.05423783 0.0594278052
vn 0.9863416 0.06413233 -0.151714578
vn 0.5996612 -0.5048024 0.6209517
vn 0.775217056 -0.130279943 0.61811465
vn 0.772403955 -0.245436728 0.585792542
vn -0.0223306548 -0.989435136 0.1432463
vn -0.995333 0.0226131938 0.09381255
vn -0.9995195 0.0228692945 0.0209227521
vn -0.022230925 -0.9391571 -0.342767745
vn 0.00179899507 -0.00165214017 0.999997
vn -0.0210468769 -0.874681234 -0.484241426
vn -0.0228663236 -0.9995692 0.0183998141
vn -0.926648259 0.0205590874 0.3753669
vn 0.999596059 -0.0229391418 0.0167776067
vn 0.995685041 -0.023010157 0.08989923
vn 0.9281653 -0.021943 0.371520758
vn 0.02300911 0.98891896 0.146662533
vn 0.0208455753 0.940421 -0.339372665
vn 0.019086156 0.876469553 -0.481078833
vn 0.0229485612 0.9994943 0.0220113136
usemtl 03010112_part_0_material_0
f 1/1/1 2/2/2 3/3/3
f 3/3/3 4/4/4 1/1/1
f 5/5/5 6/6/6 7/7/7
f 7/7/7 8/8/8 5/5/5
f 9/9/9 10/10/10 11/11/11
f 11/11/11 7/7/7 9/9/9
f 12/12/12 13/13/13 14/14/14
f 14/14/14 15/15/15 12/12/12
f 16/16/16 17/17/17 18/18/18
f 18/18/18 19/19/19 16/16/16
f 20/20/20 21/21/21 22/22/22
f 22/22/22 23/23/23 20/20/20
f 20/20/20 23/23/23 24/24/24
f 1/1/1 25/25/25 2/2/2
f 26/26/26 27/27/27 28/28/28
f 29/29/29 4/4/4 3/3/3
f 30/30/30 9/9/9 7/7/7
f 15/15/15 14/14/14 22/22/22
f 22/22/22 21/21/21 15/15/15
f 31/31/31 26/26/26 11/11/11
f 27/27/27 32/32/32 33/33/33
f 31/31/31 34/34/34 35/35/35
f 35/35/35 26/26/26 31/31/31
f 36/36/36 37/37/37 35/35/35
f 35/35/35 34/34/34 36/36/36
f 38/38/38 39/39/39 32/32/32
f 32/32/32 40/40/40 38/38/38
f 41/41/41 42/42/42 38/38/38
f 38/38/38 40/40/40 41/41/41
f 7/7/7 6/6/6 30/30/30
f 31/31/31 43/43/43 44/44/44
f 44/44/44 34/34/34 31/31/31
f 31/31/31 11/11/11 10/10/10
f 45/45/45 46/46/46 37/37/37
f 37/37/37 36/36/36 45/45/45
f 47/47/47 48/48/48 49/49/49
f 49/49/49 50/50/50 47/47/47
f 51/51/51 43/43/43 31/31/31
f 52/52/52 51/51/51 31/31/31
f 10/10/10 52/52/52 31/31/31
f 27/27/27 53/53/53 28/28/28
f 54/54/54 29/29/29 3/3/3
f 1/1/1 4/4/4 55/55/55
f 55/55/55 56/56/56 1/1/1
f 5/5/5 57/57/57 58/58/58
f 58/58/58 6/6/6 5/5/5
f 9/9/9 58/58/58 59/59/59
f 59/59/59 10/10/10 9/9/9
f 12/12/12 15/15/15 60/60/60
f 60/60/60 61/61/61 12/12/12
f 16/16/16 19/19/19 62/62/62
f 62/62/62 63/63/63 16/16/16
f 20/20/20 64/64/64 65/65/65
f 65/65/65 21/21/21 20/20/20
f 20/20/20 24/24/24 64/64/64
f 1/1/1 56/56/56 25/25/25
f 66/66/66 67/67/67 27/27/27
f 29/29/29 55/55/55 4/4/4
f 30/30/30 58/58/58 9/9/9
f 15/15/15 21/21/21 65/65/65
f 65/65/65 60/60/60 15/15/15
f 68/68/68 59/59/59 66/66/66
f 66/66/66 27/27/27 33/33/33
f 33/33/33 69/69/69 66/66/66
f 68/68/68 66/66/66 69/69/69
f 69/69/69 34/34/34 68/68/68
f 36/36/36 34/34/34 69/69/69
f 69/69/69 70/70/70 36/36/36
f 33/33/33 71/71/71 69/69/69
f 70/70/70 69/69/69 71/71/71
f 71/71/71 72/72/72 70/70/70
f 58/58/58 30/30/30 6/6/6
f 68/68/68 34/34/34 44/44/44
f 44/44/44 43/43/43 68/68/68
f 68/68/68 10/10/10 59/59/59
f 45/45/45 36/36/36 70/70/70
f 70/70/70 46/46/46 45/45/45
f 70/70/70 72/72/72 73/73/73
f 73/73/73 50/50/50 49/49/49
f 73/73/73 49/49/49 46/46/46
f 70/70/70 73/73/73 46/46/46
f 68/68/68 43/43/43 51/51/51
f 68/68/68 51/51/51 52/52/52
f 10/10/10 68/68/68 52/52/52
f 27/27/27 67/67/67 74/74/74
f 54/54/54 55/55/55 29/29/29
f 27/27/27 26/26/26 35/35/35
f 35/35/35 32/32/32 27/27/27
f 32/32/32 35/35/35 40/40/40
f 40/40/40 35/35/35 37/37/37
f 37/37/37 41/41/41 40/40/40
f 41/41/41 37/37/37 46/46/46
f 46/46/46 49/49/49 48/48/48
f 41/41/41 46/46/46 48/48/48
f 75/75/75 76/76/76 3/3/3
f 3/3/3 2/2/2 75/75/75
f 77/77/77 8/8/8 7/7/7
f 7/7/7 78/78/78 77/77/77
f 79/79/79 7/7/7 11/11/11
f 11/11/11 80/80/80 79/79/79
f 81/81/81 82/82/82 14/14/14
f 14/14/14 13/13/13 81/81/81
f 83/83/83 84/84/84 18/18/18
f 18/18/18 17/17/17 83/83/83
f 85/85/85 23/23/23 22/22/22
f 22/22/22 86/86/86 85/85/85
f 85/85/85 24/24/24 23/23/23
f 75/75/75 2/2/2 25/25/25
f 26/26/26 28/28/28 87/87/87
f 88/88/88 3/3/3 76/76/76
f 89/89/89 7/7/7 79/79/79
f 82/82/82 86/86/86 22/22/22
f 22/22/22 14/14/14 82/82/82
f 90/90/90 11/11/11 26/26/26
f 87/87/87 91/91/91 92/92/92
f 90/90/90 26/26/26 93/93/93
f 93/93/93 94/94/94 90/90/90
f 95/95/95 94/94/94 93/93/93
f 93/93/93 96/96/96 95/95/95
f 97/97/97 98/98/98 92/92/92
f 92/92/92 99/99/99 97/97/97
f 100/100/100 98/98/98 97/97/97
f 97/97/97 101/101/101 100/100/100
f 7/7/7 89/89/89 78/78/78
f 90/90/90 94/94/94 102/102/102
f 102/102/102 103/103/103 90/90/90
f 90/90/90 80/80/80 11/11/11
f 104/104/104 95/95/95 96/96/96
f 96/96/96 105/105/105 104/104/104
f 106/106/106 107/107/107 108/108/108
f 108/108/108 109/109/109 106/106/106
f 90/90/90 103/103/103 110/110/110
f 90/90/90 110/110/110 111/111/111
f 80/80/80 90/90/90 111/111/111
f 87/87/87 28/28/28 53/53/53
f 112/112/112 3/3/3 88/88/88
f 75/75/75 56/56/56 55/55/55
f 55/55/55 76/76/76 75/75/75
f 77/77/77 78/78/78 58/58/58
f 58/58/58 57/57/57 77/77/77
f 79/79/79 80/80/80 59/59/59
f 59/59/59 58/58/58 79/79/79
f 81/81/81 61/61/61 60/60/60
f 60/60/60 82/82/82 81/81/81
f 83/83/83 63/63/63 62/62/62
f 62/62/62 84/84/84 83/83/83
f 85/85/85 86/86/86 65/65/65
f 65/65/65 64/64/64 85/85/85
f 85/85/85 64/64/64 24/24/24
f 75/75/75 25/25/25 56/56/56
f 66/66/66 87/87/87 67/67/67
f 88/88/88 76/76/76 55/55/55
f 89/89/89 79/79/79 58/58/58
f 82/82/82 60/60/60 65/65/65
f 65/65/65 86/86/86 82/82/82
f 113/113/113 66/66/66 59/59/59
f 66/66/66 114/114/114 91/91/91
f 91/91/91 87/87/87 66/66/66
f 113/113/113 94/94/94 114/114/114
f 114/114/114 66/66/66 113/113/113
f 95/95/95 115/115/115 114/114/114
f 114/114/114 94/94/94 95/95/95
f 91/91/91 114/114/114 116/116/116
f 115/115/115 117/117/117 116/116/116
f 116/116/116 114/114/114 115/115/115
f 58/58/58 78/78/78 89/89/89
f 113/113/113 103/103/103 102/102/102
f 102/102/102 94/94/94 113/113/113
f 113/113/113 59/59/59 80/80/80
f 104/104/104 105/105/105 115/115/115
f 115/115/115 95/95/95 104/104/104
f 105/105/105 108/108/108 107/107/107
f 105/105/105 107/107/107 118/118/118
f 115/115/115 105/105/105 118/118/118
f 115/115/115 118/118/118 117/117/117
f 110/110/110 103/103/103 113/113/113
f 111/111/111 110/110/110 113/113/113
f 80/80/80 111/111/111 113/113/113
f 87/87/87 74/74/74 67/67/67
f 112/112/112 88/88/88 55/55/55
f 87/87/87 92/92/92 93/93/93
f 93/93/93 26/26/26 87/87/87
f 92/92/92 98/98/98 93/93/93
f 98/98/98 100/100/100 96/96/96
f 96/96/96 93/93/93 98/98/98
f 109/109/109 108/108/108 105/105/105
f 100/100/100 109/109/109 105/105/105
f 100/100/100 105/105/105 96/96/96
f 100/100/100 101/101/101 106/106/106
f 106/106/106 109/109/109 100/100/100
f 47/47/47 42/42/42 41/41/41
f 41/41/41 48/48/48 47/47/47
usemtl 03010112_part_0_material_1
f 119/119/119 120/120/120 121/121/121
f 121/121/121 122/122/122 119/119/119
f 119/119/119 123/123/123 120/120/120
f 124/124/124 122/122/122 121/121/121
f 125/125/125 121/121/121 126/126/126
f 125/125/125 124/124/124 121/121/121
f 119/119/119 122/122/122 127/127/127
f 127/127/127 128/128/128 119/119/119
f 119/119/119 128/128/128 123/123/123
f 124/124/124 127/127/127 122/122/122
f 125/125/125 129/129/129 127/127/127
f 125/125/125 127/127/127 124/124/124
f 130/130/130 131/131/131 121/121/121
f 121/121/121 120/120/120 130/130/130
f 130/130/130 120/120/120 123/123/123
f 132/132/132 121/121/121 131/131/131
f 133/133/133 126/126/126 121/121/121
f 133/133/133 121/121/121 132/132/132
f 130/130/130 128/128/128 127/127/127
f 127/127/127 131/131/131 130/130/130
f 130/130/130 123/123/123 128/128/128
f 132/132/132 131/131/131 127/127/127
f 133/133/133 127/127/127 129/129/129
f 133/133/133 132/132/132 127/127/127
