mtllib 03070007.mtl
o 03070007_part_0
v 0.0199690424 -0.10057582 0.319875151
v 0.01996901 -0.0493278541 0.68565166
v 0.00386114581 -0.0332339555 0.223777071
v 0.019969048 -0.0764836 0.175835073
v 0.0122330394 -0.111583494 0.236947671
v 0.0199690871 -0.09248108 -0.254870176
v 0.0199690778 -0.0594755858 -0.174277455
v -0.0134061156 -0.0165150929 -0.1724564
v 0.0199690536 -0.160033047 0.2362175
v 0.0199690331 -0.192725956 0.572137535
v 0.01223304 -0.111583494 0.236947685
v 0.01996903 0.02681125 0.331820726
v -0.002182022 -0.0270811412 0.07680906
v 0.0199690666 -0.0521836281 -0.0465954058
v 0.0199690554 -0.0562914871 0.07980031
v 0.0199690554 -0.08624163 0.112192214
v 0.0199690517 -0.08966754 0.145446226
v -0.00608538976 -0.029514581 0.134216741
v 0.0199690554 -0.0562914871 0.07980031
v -0.002182022 -0.0270811412 0.07680906
v 0.01996905 0.008276651 0.08563253
v 0.0199690461 0.0303290952 0.09731973
v 0.01996904 0.0306354165 0.1557306
v 0.0199690741 0.06585605 -0.251315832
v 0.0199690741 0.04082504 -0.240537986
v 0.019969061 0.0151466541 -0.0498505421
v 0.01996907 0.0257779062 -0.168562248
v 0.01996908 0.005589338 -0.268077642
v 0.0199690852 -0.010977813 -0.3030868
v 0.01996904 0.009868899 0.1756891
v 0.0122330291 0.04450813 0.2437621
v 0.0122330319 0.04450813 0.2437621
v 0.0199690312 0.09218156 0.252401263
v 0.0199690834 -0.03330685 -0.2705629
v 0.019969048 -0.0764836 0.175835073
v 0.00386114581 -0.0332339555 0.223777071
v 0.01996904 0.009868899 0.1756891
v 0.01996905 0.008276651 0.08563253
v 0.019969007 0.103122458 0.5789486
v 0.0199690852 -0.06577031 -0.245679259
v 0.0360769369 -0.03323395 0.223777071
v 0.0277050566 -0.111583494 0.236947671
v 0.05334426 -0.0165150873 -0.1724564
v 0.0277050566 -0.111583494 0.236947685
v 0.0421201326 -0.0270811375 0.07680907
v 0.046023488 -0.0295145772 0.134216741
v 0.0421201326 -0.0270811375 0.07680907
v 0.027705038 0.04450813 0.2437621
v 0.0277050361 0.04450813 0.2437621
v 0.0360769369 -0.03323395 0.223777071
v 0.0415431559 -0.174131036 0.151332885
v 0.0539585 -0.230534047 0.100510024
v 0.0539585 -0.21611622 0.136572942
v 0.0415431522 -0.221131966 0.0599132553
v 0.0261880271 -0.175445974 0.0907070339
v 0.04154315 -0.187303409 0.0277342629
v 0.0199690461 -0.115610763 0.134968549
v 0.0199690443 -0.137339219 0.108938552
v 0.0199690461 -0.08966754 0.145446226
v 0.0199690443 -0.08624163 0.112192214
v 0.01996904 -0.0562914871 0.07980031
v 0.0162740853 0.06977199 0.12998499
v 0.0118812369 0.0814841539 0.09341861
v 0.0199690443 0.0306354165 0.1557306
v 0.00492319232 0.116192006 0.0937595
v 0.017277414 0.09768665 0.142304212
v -0.00252938434 0.150114492 0.110091828
v -0.00252938434 0.150114492 0.110091828
v -0.00252938364 0.161857814 0.147940025
v 0.01727741 0.09758849 0.153057471
v 0.01727741 0.09758849 0.153057471
v 0.0199690387 0.0438898 0.104506537
v 0.0199690387 0.0303290952 0.09731973
v 0.0212992281 0.07760166 0.16678
v 0.02129923 0.06740746 0.197202414
v 0.0212992281 0.07996269 0.20676893
v -0.00252937758 0.14718248 0.189022243
v 0.01705802 0.08862398 0.2209367
v 0.0319099277 -0.166146383 0.07148105
v 0.0415431447 -0.151701182 0.0329000466
v 0.04154315 -0.176973388 0.0147285108
v 0.0415431447 -0.152978152 0.0558464676
v 0.0199690573 -0.115981519 0.4624286
v 0.0199690666 -0.0501844548 0.756925046
v -0.0172993578 -0.0332132652 0.2236366
v 0.0199690629 -0.10462711 0.14800714
v -0.008724873 -0.114142321 0.23553142
v 0.0199691057 -0.205670059 0.2256906
v 0.0199690517 -0.212039188 0.6552076
v -0.008835905 -0.1125521 0.23866488
v 0.01996906 0.0356376246 0.464488268
v 0.01996906 0.0345584266 0.1574345
v -0.00154102745 0.05987519 0.239080757
v 0.00107035355 0.0614561662 0.2377667
v 0.0199690536 0.136035085 0.24472785
v -0.0271110181 -0.0290947426 0.133865654
v 0.01996909 0.115629956 0.6630181
v 0.05723748 -0.03321326 0.2236366
v 0.04858915 -0.11445573 0.2351055
v 0.0487889946 -0.113010272 0.238052413
v 0.04147915 0.059875194 0.239080742
v 0.03886777 0.0614561662 0.237766683
v 0.06704914 -0.0290947426 0.13386564
vt 0.373694 0.198727727
vt 0.268358916 0.697975159
vt 0.268358916 0.0743778348
vt 0.342473269 0.0138251185
vt 0.396319181 0.09149295
vt 0.97074616 0.1105634
vt 0.90021354 0.293778181
vt 0.796484768 0.293778181
vt 0.47593537 0.0905516148
vt 0.511350453 0.5218334
vt 0.396319181 0.09149301
vt 0.164216012 0.2046318
vt 0.796484649 0.895633757
vt 0.869594 0.6007707
vt 0.8665815 0.9058276
vt 0.46008715 0.7794239
vt 0.463631958 0.838142335
vt 0.358715266 0.8139173
vt 0.4098464 0.720244467
vt 0.358715326 0.7128087
vt 0.295896024 0.725686133
vt 0.25625512 0.7445897
vt 0.251363724 0.847257733
vt 0.6232623 0.103855968
vt 0.677141 0.129005909
vt 0.7076481 0.586046457
vt 0.694153 0.298843026
vt 0.7569546 0.07367492
vt 0.7965317 0.0145952106
vt 0.2009079 0.007575631
vt 0.140010223 0.08996481
vt 0.140010223 0.08996481
vt 0.06146378 0.09574288
vt 0.842465341 0.0718978643
vt 0.438189358 0.8905754
vt 0.358715266 0.9684558
vt 0.286386281 0.883874
vt 0.7103645 0.91328764
vt 0.0258305967 0.5124394
vt 0.9113286 0.127682924
vt 0.268358916 0.0743778348
vt 0.396319181 0.09149295
vt 0.796484768 0.293778181
vt 0.396319181 0.09149301
vt 0.796484649 0.895633757
vt 0.358715266 0.8139173
vt 0.358715326 0.7128087
vt 0.140010223 0.08996481
vt 0.140010223 0.08996481
vt 0.358715266 0.9684558
vt 0.6049938 0.817865849
vt 0.6764929 0.7050108
vt 0.6691493 0.772956967
vt 0.634040833 0.6362912
vt 0.571211934 0.710125566
vt 0.547399044 0.6232975
vt 0.498067945 0.817865849
vt 0.5225549 0.7634575
vt 0.463631958 0.838142335
vt 0.46008715 0.7794239
vt 0.4098464 0.720244467
vt 0.18447721 0.799078345
vt 0.166611344 0.7339191
vt 0.251363724 0.847257733
vt 0.105566859 0.7319318
vt 0.13448301 0.818656266
vt 0.04471135 0.7581173
vt 0.04471135 0.7581173
vt 0.0212451816 0.823782265
vt 0.13385424 0.837568641
vt 0.13385424 0.837568641
vt 0.231878847 0.756214142
vt 0.25625512 0.7445897
vt 0.167975217 0.863059461
vt 0.183792919 0.913467169
vt 0.1611112 0.926890135
vt 0.0440741479 0.8949746
vt 0.144999713 0.9471059
vt 0.5322763 0.707458735
vt 0.489513844 0.648923
vt 0.523730159 0.6061526
vt 0.5025518 0.6872039
vt 0.276192755 0.4726892
vt 0.4650355 0.0004994869
vt 0.5137443 0.8555635
vt 0.3087809 0.9768263
vt 0.281471461 0.836491644
vt 0.0187796056 0.8522702
vt 0.00049957633 0.163591266
vt 0.286035538 0.8314675
vt 0.711351752 0.469386816
vt 0.708254457 0.9617107
vt 0.780915558 0.830800653
vt 0.7854531 0.8329076
vt 0.9995005 0.82174623
vt 0.5255648 0.9995005
vt 0.9409361 0.151067972
vt 0.5137443 0.8555635
vt 0.280571938 0.837174535
vt 0.28472054 0.8324495
vt 0.780915558 0.830800653
vt 0.7854531 0.8329076
vt 0.5255648 0.999500453
vn 1.81939754E-07 -0.1350644 0.9908368
vn 1.3764701E-06 -0.03585556 0.999357
vn -0.999977469 0.0009786576 -0.006638346
vn -7.878098E-08 -0.9999242 -0.0123150786
vn -0.9888628 -0.124397025 -0.0817049146
vn 2.59874966E-08 -0.712175965 -0.702001
vn 1.03636566E-08 -0.96946 0.2452495
vn -0.999888659 -0.00325333164 0.0145618636
vn 1.50742121E-08 -0.910917342 -0.412588924
vn -4.946262E-07 -0.226254612 0.9740682
vn -0.9964344 0.04132593 0.0735574961
vn 2.86203573E-07 0.2114329 0.9773925
vn -0.998582363 -0.0465383828 -0.0258344449
vn -9.863896E-09 -0.9999534 0.009656952
vn -5.68816141E-08 -0.9717288 -0.23609975
vn 2.3262114E-08 -0.914485 -0.404619843
vn -3.18764641E-08 -0.987678051 0.156499431
vn -0.999956131 -0.00754530355 -0.00554850837
vn -5.68816141E-08 -0.9717288 -0.23609975
vn -0.998582363 -0.0465383828 -0.0258344449
vn -8.48398543E-08 0.9365972 -0.350407839
vn 3.93973245E-08 0.8545655 -0.5193436
vn -3.20556381E-08 0.9248423 0.380350828
vn -1.3287071E-08 0.7225437 -0.6913252
vn -2.43067539E-08 -0.1622119 -0.986755967
vn 1.89882652E-08 0.99544704 0.09531602
vn 2.44003679E-08 0.9586383 0.28462714
vn -4.789411E-08 0.8464286 -0.5325023
vn 9.99921639E-08 0.06842932 -0.997656
vn 5.60813973E-08 0.970698833 0.2402993
vn -0.6666941 0.714007258 -0.213805065
vn -0.6394005 0.7124533 -0.2890974
vn -1.46306718E-07 0.9498919 -0.31257844
vn 3.62033248E-08 -0.771238 -0.63654685
vn -7.878098E-08 -0.9999242 -0.0123150786
vn -0.999977469 0.0009786576 -0.006638346
vn 5.60813973E-08 0.970698833 0.2402993
vn -8.48398543E-08 0.9365972 -0.350407839
vn -3.39283559E-07 0.211784035 0.9773165
vn -2.52651553E-08 0.0395432822 -0.999217868
vn 0.999977469 0.0009786618 -0.00663837045
vn 0.985432148 -0.136694059 -0.101184048
vn 0.999888659 -0.00325334142 0.0145618515
vn 0.9963659 -0.07941314 0.03079803
vn 0.998582363 -0.0465384 -0.02583442
vn 0.999956131 -0.007545302 -0.005548499
vn 0.998582363 -0.0465384 -0.02583442
vn 0.666694164 0.7140072 -0.213805079
vn 0.6394005 0.7124533 -0.2890974
vn 0.999977469 0.0009786618 -0.00663837045
vn -0.9192166 -0.331405342 0.21262975
vn -0.9143894 -0.362919 0.179393053
vn -0.9376956 -0.3226291 0.12898609
vn -0.952958763 -0.3030985 0.0009448414
vn -0.9479973 -0.299480051 0.107763015
vn -0.9561008 -0.2219445 -0.191342175
vn -0.9935939 -0.0867560059 0.0724195242
vn -0.967548668 -0.190982848 0.165454283
vn -1 7.270353E-08 1.75528044E-07
vn -1 6.435524E-08 1.71091912E-07
vn -1 6.193577E-08 1.72273786E-07
vn -0.989327848 -0.05664942 0.134243429
vn -0.98281306 -0.180533469 0.03854999
vn -0.994285047 -0.10641665 0.008531134
vn -0.9670677 -0.2159152 0.134761527
vn -0.9704849 -0.212732881 0.113594748
vn -0.9515519 -0.2751437 0.137276545
vn -0.9489985 -0.301119149 0.0934296548
vn -0.95332104 -0.301909417 -0.00544673437
vn -0.9753759 -0.218219385 -0.031971693
vn -0.9493779 -0.311626017 -0.0396331251
vn -0.99195087 -0.12258625 -0.03171939
vn -1 3.60554751E-08 1.91142945E-07
vn -0.978964269 -0.202692747 -0.0233363155
vn -1 -7.43259E-08 9.754638E-08
vn -0.9303108 -0.366134524 0.0216174237
vn -0.944413543 -0.318725526 -0.0806044862
vn -0.9369982 -0.348238856 -0.02764182
vn -0.9582351 0.227269769 -0.173591271
vn -0.961883962 0.2245212 -0.156107292
vn -0.9807991 -0.0196508914 -0.194028422
vn -0.786775351 0.6162859 0.0342968777
vn 0.00146958255 -0.0411557741 0.999151647
vn 8.32935655E-07 -0.03248693 0.999472141
vn -0.9994344 0.0251429621 -0.0223325361
vn -0.000362971623 -0.859881043 -0.5104943
vn -0.969075739 -0.200220734 -0.144235268
vn -0.0002738283 -0.9225789 -0.385808468
vn -9.807328E-05 -0.23433423 0.9721561
vn -0.993412137 -0.09815712 0.0591394342
vn -5.09079371E-07 0.4736441 0.8807163
vn 7.05859861E-07 0.9244 -0.381424516
vn -0.84962213 0.509531736 -0.136086926
vn -0.812847 0.534631252 -0.231190592
vn -1.10034485E-07 0.95286417 -0.303397179
vn -0.993965864 0.0109669147 0.109140322
vn 5.99706036E-05 0.158189237 0.9874088
vn 0.999431431 0.0253199879 -0.0222637635
vn 0.9664794 -0.206275836 -0.152865142
vn 0.991983533 -0.1179607 0.045320496
vn 0.84962225 0.5095315 -0.1360871
vn 0.812847 0.5346312 -0.231190875
vn 0.993965864 0.0109667443 0.109140113
usemtl 03070007_part_0_material_0
f 1/1/1 2/2/2 3/3/3
f 3/3/3 4/4/4 5/5/5
f 6/6/6 7/7/7 8/8/8
f 5/5/5 9/9/9 10/10/10
f 10/10/10 11/11/11 5/5/5
f 9/9/9 5/5/5 4/4/4
f 12/12/12 3/3/3 2/2/2
f 13/13/13 14/14/14 15/15/15
f 16/16/16 17/17/17 18/18/18
f 18/18/18 19/19/19 16/16/16
f 20/20/20 19/19/19 18/18/18
f 20/20/20 18/18/18 21/21/21
f 22/22/22 21/21/21 18/18/18
f 22/22/22 18/18/18 23/23/23
f 24/24/24 25/25/25 8/8/8
f 8/8/8 26/26/26 27/27/27
f 28/28/28 8/8/8 25/25/25
f 28/28/28 29/29/29 8/8/8
f 30/30/30 31/31/31 32/32/32
f 32/32/32 33/33/33 30/30/30
f 8/8/8 29/29/29 34/34/34
f 35/35/35 36/36/36 18/18/18
f 18/18/18 36/36/36 37/37/37
f 17/17/17 35/35/35 18/18/18
f 18/18/18 37/37/37 23/23/23
f 8/8/8 7/7/7 14/14/14
f 14/14/14 13/13/13 8/8/8
f 13/13/13 38/38/38 26/26/26
f 26/26/26 8/8/8 13/13/13
f 31/31/31 30/30/30 3/3/3
f 3/3/3 5/5/5 11/11/11
f 11/11/11 1/1/1 3/3/3
f 3/3/3 12/12/12 31/31/31
f 39/39/39 32/32/32 31/31/31
f 31/31/31 12/12/12 39/39/39
f 39/39/39 33/33/33 32/32/32
f 10/10/10 1/1/1 11/11/11
f 8/8/8 34/34/34 40/40/40
f 8/8/8 27/27/27 24/24/24
f 8/8/8 40/40/40 6/6/6
f 2/2/2 1/1/1 41/41/41
f 4/4/4 41/41/41 42/42/42
f 7/7/7 6/6/6 43/43/43
f 9/9/9 42/42/42 10/10/10
f 44/44/44 10/10/10 42/42/42
f 42/42/42 9/9/9 4/4/4
f 41/41/41 12/12/12 2/2/2
f 14/14/14 45/45/45 15/15/15
f 17/17/17 16/16/16 46/46/46
f 19/19/19 46/46/46 16/16/16
f 19/19/19 47/47/47 46/46/46
f 46/46/46 47/47/47 21/21/21
f 21/21/21 22/22/22 46/46/46
f 46/46/46 22/22/22 23/23/23
f 25/25/25 24/24/24 43/43/43
f 26/26/26 43/43/43 27/27/27
f 43/43/43 28/28/28 25/25/25
f 29/29/29 28/28/28 43/43/43
f 48/48/48 30/30/30 49/49/49
f 33/33/33 49/49/49 30/30/30
f 29/29/29 43/43/43 34/34/34
f 50/50/50 35/35/35 46/46/46
f 50/50/50 46/46/46 37/37/37
f 35/35/35 17/17/17 46/46/46
f 37/37/37 46/46/46 23/23/23
f 7/7/7 43/43/43 14/14/14
f 45/45/45 14/14/14 43/43/43
f 38/38/38 45/45/45 26/26/26
f 43/43/43 26/26/26 45/45/45
f 30/30/30 48/48/48 41/41/41
f 42/42/42 41/41/41 44/44/44
f 1/1/1 44/44/44 41/41/41
f 12/12/12 41/41/41 48/48/48
f 49/49/49 39/39/39 48/48/48
f 12/12/12 48/48/48 39/39/39
f 33/33/33 39/39/39 49/49/49
f 1/1/1 10/10/10 44/44/44
f 34/34/34 43/43/43 40/40/40
f 27/27/27 43/43/43 24/24/24
f 40/40/40 43/43/43 6/6/6
f 51/51/51 52/52/52 53/53/53
f 54/54/54 55/55/55 56/56/56
f 51/51/51 57/57/57 58/58/58
f 57/57/57 59/59/59 60/60/60
f 60/60/60 58/58/58 57/57/57
f 54/54/54 51/51/51 55/55/55
f 55/55/55 51/51/51 58/58/58
f 58/58/58 60/60/60 61/61/61
f 62/62/62 63/63/63 64/64/64
f 65/65/65 62/62/62 66/66/66
f 67/67/67 65/65/65 66/66/66
f 67/67/67 66/66/66 68/68/68
f 69/69/69 67/67/67 68/68/68
f 69/69/69 68/68/68 66/66/66
f 66/66/66 70/70/70 71/71/71
f 69/69/69 66/66/66 71/71/71
f 72/72/72 64/64/64 63/63/63
f 73/73/73 64/64/64 72/72/72
f 51/51/51 54/54/54 52/52/52
f 62/62/62 65/65/65 63/63/63
f 74/74/74 75/75/75 76/76/76
f 77/77/77 69/69/69 71/71/71
f 78/78/78 77/77/77 71/71/71
f 78/78/78 71/71/71 70/70/70
f 78/78/78 70/70/70 74/74/74
f 76/76/76 78/78/78 74/74/74
f 79/79/79 80/80/80 81/81/81
f 81/81/81 55/55/55 79/79/79
f 55/55/55 81/81/81 56/56/56
f 79/79/79 82/82/82 80/80/80
usemtl 03070007_part_0_material_1
f 83/83/83 84/84/84 85/85/85
f 85/85/85 86/86/86 87/87/87
f 87/87/87 88/88/88 89/89/89
f 89/89/89 90/90/90 87/87/87
f 88/88/88 87/87/87 86/86/86
f 91/91/91 85/85/85 84/84/84
f 92/92/92 93/93/93 94/94/94
f 94/94/94 95/95/95 92/92/92
f 86/86/86 85/85/85 96/96/96
f 96/96/96 85/85/85 92/92/92
f 93/93/93 92/92/92 85/85/85
f 85/85/85 87/87/87 90/90/90
f 90/90/90 83/83/83 85/85/85
f 85/85/85 91/91/91 93/93/93
f 97/97/97 94/94/94 93/93/93
f 93/93/93 91/91/91 97/97/97
f 97/97/97 95/95/95 94/94/94
f 89/89/89 83/83/83 90/90/90
f 84/84/84 83/83/83 98/98/98
f 86/86/86 98/98/98 99/99/99
f 88/88/88 99/99/99 89/89/89
f 100/100/100 89/89/89 99/99/99
f 99/99/99 88/88/88 86/86/86
f 98/98/98 91/91/91 84/84/84
f 101/101/101 92/92/92 102/102/102
f 95/95/95 102/102/102 92/92/92
f 98/98/98 86/86/86 103/103/103
f 98/98/98 103/103/103 92/92/92
f 92/92/92 101/101/101 98/98/98
f 99/99/99 98/98/98 100/100/100
f 83/83/83 100/100/100 98/98/98
f 91/91/91 98/98/98 101/101/101
f 102/102/102 97/97/97 101/101/101
f 91/91/91 101/101/101 97/97/97
f 95/95/95 97/97/97 102/102/102
f 83/83/83 89/89/89 100/100/100
