mtllib 03070026.mtl
o 03070026_part_0
v 0.05042225 -0.05875633 0.571232
v 0.06138001 -0.0806447938 0.306324929
v 0.0196287278 0.04062661 0.367028981
v 0.0347671732 -0.00602707732 0.538002
v 0.0196287278 -0.09085415 0.896318
v 0.0196287278 -0.217684776 0.9807119
v 0.0367492661 -0.122297674 0.8483657
v 0.03873637 -0.0254968852 0.6811574
v 0.0196287185 -0.3381561 0.1751699
v 0.0196287166 -0.3822807 0.05217294
v 0.0196287185 -0.3060038 0.1140727
v 0.043029584 -0.185456187 0.296186149
v 0.0196287222 -0.226810545 0.340521634
v 0.0196287222 -0.226810545 0.340521634
v 0.01962872 -0.27114585 0.08319789
v 0.01962872 -0.250870734 0.121114962
v 0.0400686972 -0.207962379 0.169909656
v 0.0196287222 -0.171102554 0.07160707
v 0.0600692257 -0.0110530751 0.178073481
v 0.056787692 -0.06087496 0.215214
v 0.0196287222 -0.200047418 0.115286872
v 0.0196287222 -0.149622589 0.06667983
v 0.0196287222 -0.186278373 0.00287449313
v 0.0196287259 -0.161022112 0.548356235
v 0.0484485067 -0.111769125 0.6048914
v 0.0196287278 -0.144832283 0.6832969
v 0.0196287278 0.06440446 0.304074258
v 0.01962873 0.113908142 0.2826594
v 0.01962873 0.10887292 0.313750446
v 0.0196287315 0.162288964 0.25387308
v 0.01962873 0.133599445 0.260480225
v 0.0196287278 0.0394038931 0.152289182
v 0.0196287315 0.177749589 0.2286414
v 0.0196287278 -0.155893281 0.817199469
v 0.0196287222 -0.09541254 0.07321898
v 0.01962873 0.0205493271 0.5212535
v 0.01962873 0.07758881 0.403003544
v 0.01962873 -0.007719784 0.7399124
v -0.0111647919 -0.05875633 0.571232
v 0.004490284 -0.00602707732 0.538002
v -0.02212256 -0.08064479 0.306324929
v 0.00250818767 -0.122297674 0.8483657
v 0.000521091 -0.0254968815 0.6811574
v 0.0196287222 -0.226810545 0.340521634
v -0.00377213559 -0.185456187 0.296186149
v -0.000811256 -0.207962379 0.169909656
v -0.0175302383 -0.06087495 0.215214
v -0.020811772 -0.0110530732 0.178073481
v -0.009191053 -0.111769125 0.6048914
v 0.0523533 -0.07234372 0.145999685
v 0.0482098535 -0.0303235371 0.132509872
v 0.0157825071 -0.08923349 0.151105613
v 0.01578251 0.0694261342 0.168812633
v 0.01578251 -0.0153553095 0.2702151
v 0.04414338 -0.0052295113 0.257900655
v 0.0523533076 0.02703539 0.219513848
v 0.04414338 -0.0052295113 0.257900655
v 0.04329422 -0.009908698 0.18773064
v 0.0523533076 0.00630046055 0.148095727
v 0.0523533 -0.00399464928 0.08511223
v 0.0363858119 -0.117646888 -0.25249213
v 0.0279522836 -0.148116753 -0.2998203
v 0.0157825034 -0.116794854 -0.326889634
v 0.0157825053 -0.0638238639 -0.3071707
v 0.0477190241 -0.055383727 -0.214958683
v 0.0157825053 -0.0167776626 -0.279413551
v 0.0157825071 0.0214056782 -0.183684483
v 0.0523533 -0.0218141712 -0.137143716
v 0.0477190241 -0.055383727 -0.214958683
v 0.0157825053 -0.06977165 -0.1895375
v 0.0157825053 -0.12469396 -0.218580961
v 0.0363858119 -0.117646888 -0.25249213
v 0.0374398157 -0.168875545 -0.133008823
v 0.0157825034 -0.179222152 -0.117229052
v 0.0157825034 -0.218101516 -0.151960477
v 0.03633403 -0.195984 -0.1584868
v 0.0157825034 -0.196561232 -0.231523365
v 0.03620371 -0.180975035 -0.20965147
v 0.0523533 -0.0543159172 0.0806196
v 0.0157825071 -0.06816739 0.0808786
v 0.0157825034 -0.179222152 -0.117229052
v 0.0374398157 -0.168875545 -0.133008823
v 0.0157825053 -0.165776163 -0.142448455
v 0.0523533039 -0.0218145754 -0.0353336222
v 0.015782509 0.03166906 -0.07111604
v 0.0523533076 0.02703539 0.219513848
v 0.03620371 -0.180975035 -0.20965147
v 0.0157825034 -0.1708891 -0.195582747
v 0.0523533 -0.0218141712 -0.137143716
v 0.0157825071 -0.043014653 -0.110458858
v 0.0523533039 -0.0218145754 -0.0353336222
v 0.0157825071 -0.04968498 -0.0136816921
v 0.01578251 -0.0153553095 0.2702151
v 0.015782509 -0.0200345255 0.2000451
v 0.015782509 -0.0404493362 0.1448243
v 0.0523533076 0.02703539 0.219513848
v 0.0523533076 0.00630046055 0.148095727
v 0.01578251 0.032635428 0.09614636
v 0.01578251 0.0694261342 0.168812633
v 0.0523533 -0.00399464928 0.08511223
v 0.015782509 0.0324600674 0.0254001059
v 0.0374398157 -0.168875545 -0.133008823
v 0.03633403 -0.195984 -0.1584868
v 0.0157825034 -0.188412353 -0.163870573
v 0.0157825053 -0.165776163 -0.142448455
v 0.0157825034 -0.161464363 -0.2558794
v 0.0157825034 -0.161508739 -0.290000319
v 0.0157825015 -0.188698947 -0.332780153
v -0.0207882859 -0.07234372 0.145999685
v -0.0166448336 -0.0303235371 0.132509872
v -0.0125783579 -0.00522951037 0.257900655
v -0.0207882877 0.0270353928 0.219513848
v -0.0207882877 0.00630046241 0.148095727
v -0.0117291994 -0.009908696 0.18773064
v -0.0125783579 -0.00522951037 0.257900655
v -0.0207882822 -0.00399464741 0.08511223
v -0.00482080458 -0.117646888 -0.25249213
v 0.00361272157 -0.148116708 -0.299820364
v -0.016154008 -0.055383727 -0.214958683
v -0.0207882859 -0.0218141675 -0.137143716
v -0.016154008 -0.055383727 -0.214958683
v -0.00482080458 -0.117646888 -0.25249213
v -0.005874804 -0.168875545 -0.133008823
v -0.00476902723 -0.195984 -0.1584868
v -0.00463870447 -0.180975035 -0.20965147
v -0.0207882859 -0.0543159172 0.0806196
v -0.005874804 -0.168875545 -0.133008823
v -0.0207882915 -0.0218145754 -0.0353336222
v -0.0207882877 0.0270353928 0.219513848
v -0.00463870447 -0.180975035 -0.20965147
v -0.0207882859 -0.0218141675 -0.137143716
v -0.0207882915 -0.0218145754 -0.0353336222
v -0.0207882877 0.0270353928 0.219513848
v -0.0207882877 0.00630046241 0.148095727
v -0.0207882822 -0.00399464741 0.08511223
v -0.005874804 -0.168875545 -0.133008823
v -0.00476902723 -0.195984 -0.1584868
v 0.07554062 -0.05517947 0.5720657
v 0.086702615 -0.0789845139 0.306787461
v 0.0196287278 0.0659088641 0.367322743
v 0.0577875078 0.00463768467 0.538388848
v 0.01962863 -0.07272473 0.914085567
v 0.01962873 -0.233205274 1.00080013
v 0.06197503 -0.123571157 0.8508168
v 0.0618485659 -0.0153063433 0.683557153
v 0.0196287185 -0.363164246 0.176676542
v 0.0196287166 -0.406142235 0.03501238
v 0.01962872 -0.3063999 0.0845551938
v 0.06719563 -0.189713955 0.294481218
v 0.0196287222 -0.251362532 0.3446515
v 0.02962872 -0.26767695 0.0657935
v 0.0196287185 -0.231553018 0.104798995
v 0.06477216 -0.2111596 0.165103436
v 0.0196287278 -0.196374565 0.06964985
v 0.08444587 -0.00675552059 0.172449
v 0.08214307 -0.06087205 0.214010075
v 0.01962872 -0.208838731 0.0915018544
v 0.0196287241 -0.129991218 0.0506461374
v 0.0196287222 -0.185112357 -0.0155606763
v 0.0196287259 -0.185498372 0.555087566
v 0.0725543 -0.119598761 0.6061892
v 0.0196287259 -0.170187846 0.6820731
v 0.0196287278 0.0641492456 0.3294152
v 0.0196287315 0.1393385 0.2901224
v 0.01962873 0.108379513 0.3270469
v 0.0196287371 0.179144472 0.27285403
v 0.0196287278 0.0517950468 0.1301336
v 0.0196287315 0.211560026 0.224467263
v 0.0196287278 -0.180915579 0.8129222
v 0.0196287222 -0.100051582 0.06354702
v 0.0196287315 0.0443211 0.530145645
v 0.01962873 0.103820294 0.400888145
v 0.0196287334 0.0157130547 0.749674737
v -0.03628316 -0.0551794656 0.5720657
v -0.01853005 0.00463768467 0.538388848
v -0.04744517 -0.0789845139 0.306787461
v -0.0227175727 -0.123571157 0.8508168
v -0.0225911047 -0.01530634 0.683557153
v -0.0279381853 -0.189713955 0.294481218
v -0.02551472 -0.2111596 0.16510345
v -0.04288562 -0.060872037 0.214010075
v -0.04518842 -0.006755517 0.172449
v -0.03329685 -0.119598761 0.6061892
vt 0.213359222 0.49953407
vt 0.396097124 0.7422038
vt 0.257055253 0.7472473
vt 0.187029392 0.557051063
vt 0.046307154 0.165937662
vt 0.11789953 0.00738275051
vt 0.1060464 0.193177938
vt 0.12055248 0.413516283
vt 0.677814841 0.7015276
vt 0.824309349 0.7932537
vt 0.732144 0.7869126
vt 0.500214458 0.691448331
vt 0.5013523 0.6331433
vt 0.5013523 0.6331433
vt 0.707344055 0.825327337
vt 0.6741554 0.8177978
vt 0.59747833 0.795538545
vt 0.6329748 0.898778856
vt 0.4110012 0.908379734
vt 0.436715931 0.8422418
vt 0.6264521 0.8542888
vt 0.612036943 0.9190993
vt 0.680301666 0.952699
vt 0.31948632 0.486067653
vt 0.239845544 0.438408375
vt 0.235885173 0.339794755
vt 0.257843 0.832452
vt 0.226149425 0.883202136
vt 0.217540056 0.846827447
vt 0.196762934 0.940393031
vt 0.2205678 0.916588843
vt 0.373542 0.9475485
vt 0.196054563 0.9686995
vt 0.157639742 0.202892423
vt 0.546775043 0.9533755
vt 0.17375873 0.5860405
vt 0.199264452 0.7320915
vt 0.0709474757 0.36754
vt 0.213359222 0.49953407
vt 0.187029392 0.557051063
vt 0.396097124 0.7422038
vt 0.1060464 0.193177938
vt 0.12055248 0.413516283
vt 0.5013523 0.6331433
vt 0.500214458 0.691448331
vt 0.59747833 0.795538545
vt 0.436715931 0.8422418
vt 0.4110012 0.908379734
vt 0.239845544 0.438408375
vt 0.594989657 0.272661328
vt 0.554836869 0.294787049
vt 0.600449 0.241422
vt 0.440980434 0.31105417
vt 0.4503337 0.184605539
vt 0.448028028 0.202527285
vt 0.444687754 0.25235343
vt 0.448028028 0.202527285
vt 0.489969015 0.269620776
vt 0.5009554 0.305147052
vt 0.5581756 0.3561424
vt 0.853946745 0.5639722
vt 0.911337256 0.5837897
vt 0.902460337 0.6273481
vt 0.82909447 0.6495698
vt 0.768315 0.5735277
vt 0.7771859 0.6361184
vt 0.6922783 0.593152642
vt 0.693657458 0.5410601
vt 0.768315 0.5735277
vt 0.7632046 0.5472011
vt 0.8379408 0.5288727
vt 0.853946745 0.5639722
vt 0.8157712 0.420261621
vt 0.801587343 0.408655047
vt 0.8512577 0.403802931
vt 0.8476508 0.418300033
vt 0.881810963 0.453483164
vt 0.871711433 0.465286136
vt 0.608213842 0.330110073
vt 0.6214354 0.3215093
vt 0.801587343 0.408655047
vt 0.8157712 0.420261621
vt 0.813730955 0.42650193
vt 0.6288875 0.459675729
vt 0.60962 0.523616135
vt 0.444687754 0.25235343
vt 0.871711433 0.465286136
vt 0.862251341 0.469238639
vt 0.693657458 0.5410601
vt 0.6937492 0.5024369
vt 0.6288875 0.459675729
vt 0.628168941 0.4221313
vt 0.4503337 0.184605539
vt 0.4922747 0.2516989
vt 0.5506801 0.278804064
vt 0.444687754 0.25235343
vt 0.5009554 0.305147052
vt 0.517390847 0.3592413
vt 0.440980434 0.31105417
vt 0.5581756 0.3561424
vt 0.5592088 0.43541944
vt 0.8157712 0.420261621
vt 0.8476508 0.418300033
vt 0.846622944 0.428407848
vt 0.813730955 0.42650193
vt 0.883792162 0.534505665
vt 0.9155333 0.5664875
vt 0.9659309 0.5795262
vt 0.594989657 0.272661328
vt 0.554836869 0.294787049
vt 0.448028028 0.202527285
vt 0.444687754 0.25235343
vt 0.5009554 0.305147052
vt 0.489969015 0.269620776
vt 0.448028028 0.202527285
vt 0.5581756 0.3561424
vt 0.853946745 0.5639722
vt 0.911337256 0.5837897
vt 0.768315 0.5735277
vt 0.693657458 0.5410601
vt 0.768315 0.5735277
vt 0.853946745 0.5639722
vt 0.8157712 0.420261621
vt 0.8476508 0.418300033
vt 0.871711433 0.465286136
vt 0.608213842 0.330110073
vt 0.8157712 0.420261621
vt 0.6288875 0.459675729
vt 0.444687754 0.25235343
vt 0.871711433 0.465286136
vt 0.693657458 0.5410601
vt 0.6288875 0.459675729
vt 0.444687754 0.25235343
vt 0.5009554 0.305147052
vt 0.5581756 0.3561424
vt 0.8157712 0.420261621
vt 0.8476508 0.418300033
vt 0.568068445 0.4177109
vt 0.5291234 0.6803542
vt 0.7561413 0.6192235
vt 0.6628036 0.4507656
vt 0.5292676 0.0855900645
vt 0.283069044 0.0004994869
vt 0.4570592 0.142514884
vt 0.6297725 0.3080144
vt 0.07233301 0.8090656
vt 0.0004995167 0.9494016
vt 0.1476556 0.890561044
vt 0.3511014 0.6929961
vt 0.2920927 0.6467566
vt 0.215216726 0.9189091
vt 0.264085025 0.873085856
vt 0.312345535 0.818378031
vt 0.350930274 0.9136574
vt 0.6482756 0.810986638
vt 0.560747743 0.771497
vt 0.320253253 0.8843647
vt 0.433152169 0.9271387
vt 0.3365013 0.9995005
vt 0.368720055 0.436754227
vt 0.4683254 0.38410455
vt 0.394860148 0.308000565
vt 0.7687895 0.6676459
vt 0.8851708 0.7044699
vt 0.8604724 0.660105
vt 0.9508137 0.721131563
vt 0.741104 0.8465001
vt 0.9995005 0.7617229
vt 0.37672013 0.177169442
vt 0.51210016 0.9211345
vt 0.7208962 0.462150335
vt 0.819424033 0.586956
vt 0.6734001 0.245181978
vt 0.568068445 0.4177109
vt 0.66280365 0.4507656
vt 0.5291234 0.6803542
vt 0.457059234 0.142514884
vt 0.629772544 0.3080144
vt 0.3511014 0.692996144
vt 0.312345564 0.818378031
vt 0.5607478 0.771497
vt 0.6482756 0.810986638
vt 0.468325436 0.38410455
vn 0.989175 0.143573567 0.0303208325
vn 0.9989322 0.0426150821 0.0178457219
vn 1.50675646E-07 0.9848548 0.173381
vn 0.9134665 0.405709833 0.0312798731
vn 3.189238E-08 0.719757438 0.6942256
vn -4.53589344E-08 -0.610712767 0.7918522
vn 0.996602356 -0.0357728153 0.0741891339
vn 0.9209872 0.3801411 0.08529582
vn -8.145634E-08 -0.994182765 -0.107706048
vn 1 2.68844857E-08 -5.22336E-10
vn 3.34059337E-07 -0.6299156 -0.7766636
vn 0.9661872 -0.2470561 0.07379444
vn 6.3955E-08 -0.829468966 0.558552861
vn 0.91425097 -0.3862588 0.122267224
vn -1 -2.89915061E-08 1.917765E-08
vn 2.30042971E-08 0.06468852 -0.9979055
vn 0.9797197 -0.1041488 -0.171179324
vn 3.8336637E-08 -0.6167639 -0.787148237
vn 0.9682319 0.1661737 -0.186850965
vn 0.9992745 -0.00428275345 -0.03784312
vn -4.40148575E-08 -0.311082631 -0.9503829
vn -3.74785678E-08 -0.130372286 -0.9914651
vn 1 0 0
vn -3.343471E-08 -0.9803054 0.197487712
vn 0.9545576 -0.292641938 0.05639541
vn -1.41962229E-08 -0.9986021 -0.0528571568
vn -9.13941349E-08 0.5195239 0.8544559
vn -1.12858729E-07 0.7254933 0.6882292
vn 1 -6.30428261E-08 -1.39482594E-08
vn 5.779931E-07 0.958786249 0.284128338
vn -1.17912904E-07 0.357562125 0.9338893
vn -4.006417E-09 0.588729858 -0.8083298
vn -1 -6.53694059E-08 -3.42330679E-08
vn 3.50186866E-08 -0.996494353 -0.08365979
vn -5.82847122E-08 0.2177305 -0.976008952
vn 8.847409E-08 0.9916673 0.128825575
vn 1 -9.838924E-08 -4.91684169E-08
vn 1.72721471E-07 0.9093481 0.416036159
vn -0.989175 0.1435736 0.0303208474
vn -0.9134665 0.405709863 0.03127988
vn -0.9989322 0.0426151454 0.017845748
vn -0.996602356 -0.03577281 0.07418913
vn -0.9209872 0.3801411 0.08529581
vn -0.914251 -0.386258721 0.122267224
vn -0.9661872 -0.247056052 0.0737944543
vn -0.9797197 -0.10414876 -0.171179324
vn -0.9992745 -0.004282681 -0.0378430858
vn -0.9682319 0.166173726 -0.186850935
vn -0.954557657 -0.2926419 0.0563954338
vn 0.6995366 -0.387463033 0.600433946
vn 0.927593052 -0.170513347 0.332409859
vn 8.601928E-09 -0.7791143 0.6268819
vn 3.77921339E-08 0.7665019 0.642242
vn 1.26867148E-08 0.7671807 0.641431034
vn 0.003130496 0.766946435 0.6417035
vn 0.964929461 -0.26097697 0.0283223782
vn 0.5890106 -0.8067765 0.04667086
vn 0.775110662 -0.6081122 0.171472892
vn 0.977403164 -0.18736735 0.09785995
vn 0.998998046 -0.0284361318 0.0345579647
vn 0.955946267 -0.122649111 -0.266690761
vn 0.974376 -0.216300517 -0.061688602
vn 9.507325E-08 0.294973522 -0.955505431
vn -3.6063355E-08 0.342197537 -0.939628065
vn 0.9150516 0.306705475 -0.261939675
vn -5.08056921E-08 0.7272013 -0.686424255
vn -6.052445E-09 0.9563364 -0.292268246
vn 0.8044273 0.5877504 -0.08629125
vn 0.691586554 -0.5636792 0.451634556
vn -5.51900818E-08 -0.805447042 0.592667758
vn -6.841895E-09 0.031232411 0.999512136
vn 0.859436154 -0.103429377 0.5006714
vn 0.6684709 -0.5044886 0.546477735
vn -3.37430279E-08 -0.6662047 0.7457689
vn -2.57589718E-08 -0.961701751 0.274098068
vn 0.749494731 -0.6404051 0.167746663
vn 5.08390663E-08 -0.786151 -0.6180345
vn 0.7726 -0.5392244 -0.3351511
vn 0.835528851 -0.5367884 -0.117259048
vn 9.989225E-10 -0.9701038 -0.242690369
vn 4.91385954E-09 0.882416248 0.470469475
vn -0.07853442 0.8796908 0.469016373
vn -2.57173371E-09 0.882416248 0.4704695
vn 0.8360214 0.545189261 -0.06194192
vn 9.270535E-08 0.995662153 -0.0930420756
vn -0.003629082 0.7658857 0.6429665
vn 0.662118256 0.569281161 0.48735857
vn 2.44310634E-08 0.7796141 0.6262602
vn 0.596227467 -0.7849621 0.168366462
vn -4.24189572E-08 -0.9975936 0.06933316
vn 0.6588961 -0.7488773 -0.07098412
vn 1.765633E-08 -0.983628333 -0.1802092
vn -5.87707261E-09 -0.997998238 0.06324138
vn -5.15255572E-08 -0.981847346 0.189672783
vn -9.022345E-09 -0.488663375 0.8724724
vn 0.812959969 0.540596247 -0.216452777
vn 0.7286419 0.6673432 -0.154058456
vn 4.580495E-08 0.995939255 -0.09002767
vn -1.44085863E-08 0.89216876 -0.4517022
vn 0.782166064 0.617121756 -0.08588932
vn 1.49254E-08 0.9997252 -0.0234409049
vn 0.391891658 0.627856433 -0.672471
vn 0.451068729 0.8610683 -0.234730318
vn 2.24009149E-08 0.9976605 -0.06836259
vn 1.68348766E-08 0.6873608 -0.7263161
vn 1.11214264E-08 -0.789213657 -0.6141187
vn -7.8686E-07 -0.9252301 0.379406452
vn 7.818592E-08 -0.833069742 -0.553168
vn -0.6995366 -0.387463 0.600433946
vn -0.927593052 -0.170513287 0.332409918
vn -0.00313045434 0.766946435 0.6417035
vn -0.964929461 -0.260977 0.0283223726
vn -0.977403164 -0.18736738 0.09785998
vn -0.775110662 -0.6081122 0.1714729
vn -0.5890106 -0.8067765 0.04667084
vn -0.998998046 -0.02843608 0.0345580131
vn -0.955946267 -0.122649066 -0.266690731
vn -0.9743762 -0.2162994 -0.0616896227
vn -0.9150516 0.3067055 -0.261939675
vn -0.804427266 0.587750435 -0.08629126
vn -0.6915866 -0.563679159 0.451634556
vn -0.8594361 -0.10342928 0.5006715
vn -0.6684709 -0.5044885 0.5464778
vn -0.7494947 -0.6404051 0.167746782
vn -0.772599936 -0.539224446 -0.335151136
vn -0.835528851 -0.5367884 -0.117259026
vn 0.07853442 0.8796908 0.469016373
vn -0.8360214 0.5451893 -0.0619419
vn 0.00362920156 0.765885651 0.6429665
vn -0.6621182 0.5692812 0.48735857
vn -0.5962276 -0.784962058 0.168366447
vn -0.658896 -0.748877347 -0.07098413
vn -0.812959969 0.540596247 -0.216452777
vn -0.728641868 0.667343259 -0.154058471
vn -0.782166 0.6171218 -0.0858893
vn -0.391891658 0.6278565 -0.6724709
vn -0.45106864 0.8610684 -0.234730214
vn 0.9893676 0.144149184 0.01930676
vn 0.995899737 0.0875210762 0.022886496
vn 3.25831664E-08 0.99986583 -0.0163788646
vn 0.883602142 0.4680803 -0.0121696191
vn -1.02477611E-06 0.6975776 0.7165093
vn 1.92352061E-07 -0.613244 0.789893568
vn 0.9866367 -0.05273228 0.154166624
vn 0.8813313 0.4567207 0.121083841
vn 8.18685351E-08 -0.992529631 -0.12200366
vn -1 1.44651748E-08 -4.46203158E-10
vn -2.31413068E-07 -0.5394634 -0.842009068
vn 0.94256264 -0.321938634 0.0890572
vn -6.491752E-09 -0.9111878 0.411991149
vn -0.80730927 -0.135065436 0.574464142
vn -1.86672025E-07 -0.07775737 -0.9969723
vn 0.9511863 -0.198178083 -0.236580059
vn 1.00097154E-07 -0.657240331 -0.753681064
vn 0.953293145 0.19544597 -0.230289012
vn 0.9977705 0.016712578 -0.0646122843
vn -3.977528E-08 -0.5029274 -0.8643286
vn -7.13958457E-08 -0.06941871 -0.9975876
vn -1 8.056659E-08 -1.2287372E-08
vn -2.50507259E-08 -0.982269049 0.187476784
vn 0.9319896 -0.3576146 0.0592210963
vn -2.94618263E-09 -0.9993957 -0.03475841
vn -3.59392E-08 0.7488492 0.6627404
vn -1.332281E-07 0.508832037 0.860865831
vn -1 3.16392912E-09 2.06979287E-08
vn -6.354132E-08 0.9561869 0.292756855
vn 6.74276324E-09 0.6095777 -0.7927263
vn 1 -5.95221969E-08 1.43784646E-07
vn -3.796882E-09 -0.9962646 -0.08635333
vn -8.9315364E-08 0.396867931 -0.9178757
vn 5.920518E-08 0.9914484 0.13049911
vn 1 1.20985355E-08 1.01918133E-07
vn 4.34401919E-08 0.9147433 0.404035479
vn -0.9893676 0.144149274 0.0193067882
vn -0.883602142 0.468080342 -0.01216959
vn -0.995899737 0.0875211 0.0228865072
vn -0.986636758 -0.05273277 0.154166
vn -0.8813313 0.45672074 0.121083856
vn -0.94256264 -0.321938634 0.0890572444
vn -0.9511863 -0.198178127 -0.23657997
vn -0.9977705 0.0167126544 -0.0646123
vn -0.953293145 0.195446014 -0.230288982
vn -0.9319896 -0.357614577 0.0592211224
usemtl 03070026_part_0_material_0
f 1/1/1 2/2/2 3/3/3
f 3/3/3 4/4/4 1/1/1
f 5/5/5 6/6/6 7/7/7
f 8/8/8 1/1/1 4/4/4
f 7/7/7 1/1/1 8/8/8
f 9/9/9 10/10/10 11/11/11
f 9/9/9 11/11/11 12/12/12
f 13/13/13 9/9/9 12/12/12
f 13/13/13 12/12/12 14/14/14
f 11/11/11 15/15/15 16/16/16
f 16/16/16 17/17/17 11/11/11
f 18/18/18 19/19/19 20/20/20
f 20/20/20 21/21/21 18/18/18
f 16/16/16 21/21/21 17/17/17
f 22/22/22 19/19/19 18/18/18
f 18/18/18 23/23/23 22/22/22
f 24/24/24 13/13/13 14/14/14
f 24/24/24 14/14/14 12/12/12
f 25/25/25 24/24/24 12/12/12
f 26/26/26 24/24/24 25/25/25
f 2/2/2 27/27/27 3/3/3
f 28/28/28 29/29/29 27/27/27
f 28/28/28 27/27/27 2/2/2
f 20/20/20 28/28/28 2/2/2
f 19/19/19 30/30/30 31/31/31
f 31/31/31 20/20/20 19/19/19
f 20/20/20 31/31/31 28/28/28
f 32/32/32 33/33/33 30/30/30
f 30/30/30 19/19/19 32/32/32
f 6/6/6 34/34/34 7/7/7
f 35/35/35 32/32/32 19/19/19
f 19/19/19 22/22/22 35/35/35
f 21/21/21 20/20/20 17/17/17
f 17/17/17 20/20/20 2/2/2
f 11/11/11 17/17/17 12/12/12
f 12/12/12 17/17/17 2/2/2
f 2/2/2 1/1/1 25/25/25
f 25/25/25 12/12/12 2/2/2
f 36/36/36 4/4/4 3/3/3
f 3/3/3 37/37/37 36/36/36
f 4/4/4 36/36/36 38/38/38
f 38/38/38 8/8/8 4/4/4
f 38/38/38 5/5/5 7/7/7
f 7/7/7 8/8/8 38/38/38
f 1/1/1 7/7/7 25/25/25
f 25/25/25 7/7/7 34/34/34
f 34/34/34 26/26/26 25/25/25
f 39/39/39 40/40/40 3/3/3
f 3/3/3 41/41/41 39/39/39
f 5/5/5 42/42/42 6/6/6
f 43/43/43 40/40/40 39/39/39
f 42/42/42 43/43/43 39/39/39
f 13/13/13 44/44/44 45/45/45
f 11/11/11 10/10/10 9/9/9
f 45/45/45 11/11/11 9/9/9
f 13/13/13 45/45/45 9/9/9
f 11/11/11 46/46/46 16/16/16
f 16/16/16 15/15/15 11/11/11
f 18/18/18 21/21/21 47/47/47
f 47/47/47 48/48/48 18/18/18
f 16/16/16 46/46/46 21/21/21
f 22/22/22 23/23/23 18/18/18
f 18/18/18 48/48/48 22/22/22
f 44/44/44 13/13/13 24/24/24
f 45/45/45 44/44/44 24/24/24
f 49/49/49 45/45/45 24/24/24
f 26/26/26 49/49/49 24/24/24
f 41/41/41 3/3/3 27/27/27
f 27/27/27 29/29/29 28/28/28
f 41/41/41 27/27/27 28/28/28
f 47/47/47 41/41/41 28/28/28
f 48/48/48 47/47/47 31/31/31
f 31/31/31 30/30/30 48/48/48
f 47/47/47 28/28/28 31/31/31
f 32/32/32 48/48/48 30/30/30
f 30/30/30 33/33/33 32/32/32
f 6/6/6 42/42/42 34/34/34
f 35/35/35 22/22/22 48/48/48
f 48/48/48 32/32/32 35/35/35
f 21/21/21 46/46/46 47/47/47
f 46/46/46 41/41/41 47/47/47
f 11/11/11 45/45/45 46/46/46
f 45/45/45 41/41/41 46/46/46
f 41/41/41 45/45/45 49/49/49
f 49/49/49 39/39/39 41/41/41
f 36/36/36 37/37/37 3/3/3
f 3/3/3 40/40/40 36/36/36
f 40/40/40 43/43/43 38/38/38
f 38/38/38 36/36/36 40/40/40
f 38/38/38 43/43/43 42/42/42
f 42/42/42 5/5/5 38/38/38
f 39/39/39 49/49/49 42/42/42
f 49/49/49 26/26/26 34/34/34
f 34/34/34 42/42/42 49/49/49
f 50/50/50 51/51/51 52/52/52
f 53/53/53 54/54/54 55/55/55
f 56/56/56 57/57/57 58/58/58
f 58/58/58 59/59/59 56/56/56
f 59/59/59 58/58/58 51/51/51
f 51/51/51 60/60/60 59/59/59
f 61/61/61 62/62/62 63/63/63
f 63/63/63 64/64/64 61/61/61
f 65/65/65 66/66/66 67/67/67
f 67/67/67 68/68/68 65/65/65
f 69/69/69 70/70/70 71/71/71
f 71/71/71 72/72/72 69/69/69
f 73/73/73 74/74/74 75/75/75
f 75/75/75 76/76/76 73/73/73
f 76/76/76 75/75/75 77/77/77
f 77/77/77 78/78/78 76/76/76
f 79/79/79 50/50/50 52/52/52
f 52/52/52 80/80/80 79/79/79
f 81/81/81 82/82/82 83/83/83
f 84/84/84 68/68/68 67/67/67
f 67/67/67 85/85/85 84/84/84
f 55/55/55 86/86/86 53/53/53
f 87/87/87 72/72/72 71/71/71
f 71/71/71 88/88/88 87/87/87
f 69/69/69 89/89/89 90/90/90
f 90/90/90 70/70/70 69/69/69
f 89/89/89 91/91/91 92/92/92
f 92/92/92 90/90/90 89/89/89
f 93/93/93 94/94/94 58/58/58
f 58/58/58 57/57/57 93/93/93
f 94/94/94 95/95/95 51/51/51
f 51/51/51 58/58/58 94/94/94
f 96/96/96 97/97/97 98/98/98
f 98/98/98 99/99/99 96/96/96
f 97/97/97 100/100/100 101/101/101
f 101/101/101 98/98/98 97/97/97
f 100/100/100 84/84/84 85/85/85
f 85/85/85 101/101/101 100/100/100
f 92/92/92 79/79/79 80/80/80
f 51/51/51 95/95/95 52/52/52
f 102/102/102 103/103/103 104/104/104
f 104/104/104 105/105/105 102/102/102
f 103/103/103 87/87/87 88/88/88
f 88/88/88 104/104/104 103/103/103
f 65/65/65 61/61/61 64/64/64
f 64/64/64 66/66/66 65/65/65
f 79/79/79 92/92/92 91/91/91
f 91/91/91 60/60/60 79/79/79
f 79/79/79 60/60/60 51/51/51
f 51/51/51 50/50/50 79/79/79
f 78/78/78 77/77/77 106/106/106
f 106/106/106 61/61/61 78/78/78
f 61/61/61 106/106/106 107/107/107
f 107/107/107 62/62/62 61/61/61
f 62/62/62 108/108/108 63/63/63
f 107/107/107 108/108/108 62/62/62
f 109/109/109 52/52/52 110/110/110
f 53/53/53 111/111/111 54/54/54
f 112/112/112 113/113/113 114/114/114
f 114/114/114 115/115/115 112/112/112
f 113/113/113 116/116/116 110/110/110
f 110/110/110 114/114/114 113/113/113
f 117/117/117 64/64/64 63/63/63
f 63/63/63 118/118/118 117/117/117
f 119/119/119 120/120/120 67/67/67
f 67/67/67 66/66/66 119/119/119
f 121/121/121 122/122/122 71/71/71
f 71/71/71 70/70/70 121/121/121
f 123/123/123 124/124/124 75/75/75
f 75/75/75 74/74/74 123/123/123
f 124/124/124 125/125/125 77/77/77
f 77/77/77 75/75/75 124/124/124
f 126/126/126 80/80/80 52/52/52
f 52/52/52 109/109/109 126/126/126
f 81/81/81 83/83/83 127/127/127
f 128/128/128 85/85/85 67/67/67
f 67/67/67 120/120/120 128/128/128
f 111/111/111 53/53/53 129/129/129
f 130/130/130 88/88/88 71/71/71
f 71/71/71 122/122/122 130/130/130
f 121/121/121 70/70/70 90/90/90
f 90/90/90 131/131/131 121/121/121
f 131/131/131 90/90/90 92/92/92
f 92/92/92 132/132/132 131/131/131
f 93/93/93 115/115/115 114/114/114
f 114/114/114 94/94/94 93/93/93
f 94/94/94 114/114/114 110/110/110
f 110/110/110 95/95/95 94/94/94
f 133/133/133 99/99/99 98/98/98
f 98/98/98 134/134/134 133/133/133
f 134/134/134 98/98/98 101/101/101
f 101/101/101 135/135/135 134/134/134
f 135/135/135 101/101/101 85/85/85
f 85/85/85 128/128/128 135/135/135
f 92/92/92 80/80/80 126/126/126
f 110/110/110 52/52/52 95/95/95
f 136/136/136 105/105/105 104/104/104
f 104/104/104 137/137/137 136/136/136
f 137/137/137 104/104/104 88/88/88
f 88/88/88 130/130/130 137/137/137
f 119/119/119 66/66/66 64/64/64
f 64/64/64 117/117/117 119/119/119
f 126/126/126 116/116/116 132/132/132
f 132/132/132 92/92/92 126/126/126
f 126/126/126 109/109/109 110/110/110
f 110/110/110 116/116/116 126/126/126
f 125/125/125 117/117/117 106/106/106
f 106/106/106 77/77/77 125/125/125
f 117/117/117 118/118/118 107/107/107
f 107/107/107 106/106/106 117/117/117
f 118/118/118 63/63/63 108/108/108
f 107/107/107 118/118/118 108/108/108
usemtl 03070026_part_0_material_1
f 138/138/138 139/139/139 140/140/140
f 140/140/140 141/141/141 138/138/138
f 142/142/142 143/143/143 144/144/144
f 145/145/145 138/138/138 141/141/141
f 144/144/144 138/138/138 145/145/145
f 146/146/146 147/147/147 148/148/148
f 146/146/146 148/148/148 149/149/149
f 150/150/150 146/146/146 149/149/149
f 148/148/148 151/151/151 152/152/152
f 152/152/152 153/153/153 148/148/148
f 154/154/154 155/155/155 156/156/156
f 156/156/156 157/157/157 154/154/154
f 152/152/152 157/157/157 153/153/153
f 158/158/158 155/155/155 154/154/154
f 154/154/154 159/159/159 158/158/158
f 160/160/160 150/150/150 149/149/149
f 149/149/149 161/161/161 160/160/160
f 162/162/162 160/160/160 161/161/161
f 139/139/139 163/163/163 140/140/140
f 164/164/164 165/165/165 163/163/163
f 164/164/164 163/163/163 139/139/139
f 156/156/156 164/164/164 139/139/139
f 155/155/155 166/166/166 164/164/164
f 164/164/164 156/156/156 155/155/155
f 167/167/167 168/168/168 166/166/166
f 166/166/166 155/155/155 167/167/167
f 143/143/143 169/169/169 144/144/144
f 170/170/170 167/167/167 155/155/155
f 155/155/155 158/158/158 170/170/170
f 157/157/157 156/156/156 153/153/153
f 153/153/153 156/156/156 139/139/139
f 148/148/148 153/153/153 149/149/149
f 149/149/149 153/153/153 139/139/139
f 139/139/139 138/138/138 161/161/161
f 161/161/161 149/149/149 139/139/139
f 171/171/171 141/141/141 140/140/140
f 140/140/140 172/172/172 171/171/171
f 141/141/141 171/171/171 173/173/173
f 173/173/173 145/145/145 141/141/141
f 173/173/173 142/142/142 144/144/144
f 144/144/144 145/145/145 173/173/173
f 138/138/138 144/144/144 161/161/161
f 161/161/161 144/144/144 169/169/169
f 169/169/169 162/162/162 161/161/161
f 174/174/174 175/175/175 140/140/140
f 140/140/140 176/176/176 174/174/174
f 142/142/142 177/177/177 143/143/143
f 178/178/178 175/175/175 174/174/174
f 177/177/177 178/178/178 174/174/174
f 148/148/148 147/147/147 146/146/146
f 179/179/179 148/148/148 146/146/146
f 150/150/150 179/179/179 146/146/146
f 148/148/148 180/180/180 152/152/152
f 152/152/152 151/151/151 148/148/148
f 154/154/154 157/157/157 181/181/181
f 181/181/181 182/182/182 154/154/154
f 152/152/152 180/180/180 157/157/157
f 158/158/158 159/159/159 154/154/154
f 154/154/154 182/182/182 158/158/158
f 179/179/179 150/150/150 160/160/160
f 160/160/160 183/183/183 179/179/179
f 162/162/162 183/183/183 160/160/160
f 176/176/176 140/140/140 163/163/163
f 163/163/163 165/165/165 164/164/164
f 176/176/176 163/163/163 164/164/164
f 181/181/181 176/176/176 164/164/164
f 182/182/182 181/181/181 164/164/164
f 164/164/164 166/166/166 182/182/182
f 167/167/167 182/182/182 166/166/166
f 166/166/166 168/168/168 167/167/167
f 143/143/143 177/177/177 169/169/169
f 170/170/170 158/158/158 182/182/182
f 182/182/182 167/167/167 170/170/170
f 157/157/157 180/180/180 181/181/181
f 180/180/180 176/176/176 181/181/181
f 148/148/148 179/179/179 180/180/180
f 179/179/179 176/176/176 180/180/180
f 176/176/176 179/179/179 183/183/183
f 183/183/183 174/174/174 176/176/176
f 171/171/171 172/172/172 140/140/140
f 140/140/140 175/175/175 171/171/171
f 175/175/175 178/178/178 173/173/173
f 173/173/173 171/171/171 175/175/175
f 173/173/173 178/178/178 177/177/177
f 177/177/177 142/142/142 173/173/173
f 174/174/174 183/183/183 177/177/177
f 183/183/183 162/162/162 169/169/169
f 169/169/169 177/177/177 183/183/183
