mtllib 03110003.mtl
o 03110003_part_0
v 0.0717980042 -0.16692248 0.2796585
v 0.08074765 -0.1510891 -0.6951593
v -0.04465605 -0.289450765 -0.576861143
v -0.04465509 -0.28945154 0.279658556
v 0.126121879 0.0300490037 0.279658675
v 0.126120731 0.0300498176 -0.745438039
v 0.07179839 0.227020591 0.279658854
v 0.080748 0.211188838 -0.695159256
v -0.0446544625 0.349549741 0.279659033
v -0.0446554236 0.349550515 -0.576860666
v -0.0446548164 -0.289451569 0.514646769
v 0.0279990435 -0.226429626 0.4645924
v 0.08860919 -0.13554737 0.506783545
v 0.105783254 -0.09330903 0.5912401
v 0.1057835 0.15340656 0.591240168
v 0.0886094943 0.195645168 0.5067837
v 0.02799953 0.286527663 0.464592874
v -0.04465422 0.3495497 0.514647245
v 0.1608509 -0.220087066 0.279658377
v 0.012966075 -0.3756878 0.2796584
v 0.0129651194 -0.375687033 -0.5768615
v 0.1722165 -0.199980378 -0.6951597
v 0.229837313 0.0300489012 0.279658467
v 0.2298362 0.0300497226 -0.7454381
v 0.160851389 0.280185 0.279658765
v 0.1722169 0.2600799 -0.695159256
v 0.0129668256 0.435785919 0.279659
v 0.012965872 0.435786754 -0.576860666
v 0.105230168 -0.2956558 0.4645923
v 0.0129663274 -0.375688 0.5146464
v 0.204009041 -0.126604557 0.59124
v 0.182199568 -0.180243492 0.5067833
v 0.18219991 0.240341038 0.5067837
v 0.204009354 0.186701909 0.591240168
v 0.0129670864 0.43578577 0.514647245
v 0.1052308 0.355753422 0.464592874
v -0.04465605 -0.289450765 -0.576861143
v 0.08074765 -0.1510891 -0.6951593
v 0.126120731 0.0300498176 -0.745438039
v 0.080748 0.211188838 -0.695159256
v -0.0446554236 0.349550515 -0.576860666
v -0.0446544625 0.349549741 0.279659033
v -0.04465422 0.3495497 0.514647245
v 0.02799953 0.286527663 0.464592874
v 0.0886094943 0.195645168 0.5067837
v 0.1057835 0.15340656 0.591240168
v 0.105783254 -0.09330903 0.5912401
v 0.08860919 -0.13554737 0.506783545
v 0.0279990435 -0.226429626 0.4645924
v -0.0446548164 -0.289451569 0.514646769
v -0.04465509 -0.28945154 0.279658556
v 0.287127 0.027509531 -0.0433106534
v 0.262099564 0.027509449 0.08286132
v 0.262099445 -0.0617075525 0.0459063351
v 0.2620994 -0.0986624 -0.0433107354
v 0.262099266 -0.0617074 -0.132527769
v 0.2620994 0.0275096726 -0.169482559
v 0.262099415 0.116726644 -0.13252759
v 0.262099534 0.1536815 -0.0433105081
v 0.262099624 0.116726473 0.04590651
v 0.201677635 -0.0986624 0.08286127
v 0.201677829 0.0275094584 0.135123521
v 0.201677456 -0.150924474 -0.04331072
v 0.201677367 -0.09866218 -0.169482619
v 0.201677427 0.0275097732 -0.221744627
v 0.2016776 0.153681681 -0.169482365
v 0.2016778 0.205943644 -0.04331039
v 0.201677844 0.1536814 0.0828615
vt 0.115667783 0.404794216
vt 0.122900337 0.0776959658
vt 0.0478983372 0.117390692
vt 0.0478983372 0.404794216
vt 0.197902322 0.404794216
vt 0.197902322 0.06082505
vt 0.280136824 0.404794216
vt 0.272904277 0.0776959658
vt 0.347906262 0.404794216
vt 0.347906262 0.117390692
vt 0.0478983372 0.483643949
vt 0.08624231 0.466848373
vt 0.129826486 0.481005549
vt 0.147967577 0.5093447
vt 0.247837067 0.5093447
vt 0.265978128 0.481005549
vt 0.309562325 0.466848373
vt 0.347906262 0.483643949
vt 0.5475094 0.6889493
vt 0.441296756 0.6889493
vt 0.441296756 0.240000546
vt 0.5588447 0.177994072
vt 0.6763926 0.6889493
vt 0.6763926 0.151640177
vt 0.805275857 0.6889493
vt 0.793940544 0.177994072
vt 0.9114885 0.6889493
vt 0.9114885 0.240000546
vt 0.5013919 0.7858832
vt 0.441296756 0.812119365
vt 0.598131657 0.852266133
vt 0.5696998 0.8079979
vt 0.7830854 0.8079979
vt 0.7546536 0.852266133
vt 0.9114885 0.812119365
vt 0.851393342 0.7858832
vt 0.396628559 0.186248839
vt 0.5365106 0.11246115
vt 0.6763926 0.08110005
vt 0.816274643 0.11246115
vt 0.9561567 0.186248839
vt 0.9561567 0.7204979
vt 0.9561567 0.867070258
vt 0.8846435 0.8358492
vt 0.803357 0.8621657
vt 0.769523144 0.91484493
vt 0.5832621 0.91484493
vt 0.549428165 0.8621657
vt 0.468141735 0.8358492
vt 0.396628559 0.867070258
vt 0.396628559 0.7204979
vt 0.6759769 0.5194073
vt 0.6759768 0.5826935
vt 0.631226659 0.5641574
vt 0.6126906 0.5194073
vt 0.631226659 0.474657059
vt 0.6759769 0.456121027
vt 0.720726967 0.474657178
vt 0.7392631 0.5194073
vt 0.720726967 0.5641574
vt 0.6126906 0.5826935
vt 0.6759768 0.6089075
vt 0.5864765 0.5194073
vt 0.6126906 0.456121027
vt 0.6759769 0.429906964
vt 0.7392631 0.456121027
vt 0.7654771 0.5194073
vt 0.739263058 0.5826935
vn -0.868101537 0.496283442 0.01012121
vn -0.692715347 -0.0249612257 -0.720779061
vn -0.913583457 0.00598338339 -0.40660724
vn -0.99635005 0.08536144 1.09068583E-06
vn -0.9999776 0.000217453911 0.00669539766
vn -0.5936827 -0.0206440687 -0.8044344
vn -0.867475867 -0.497292161 0.0136412131
vn -0.697621047 -0.00100395014 -0.716466248
vn -0.9964101 -0.08464861 0.00127661286
vn -0.9276262 -0.00537765352 -0.3734712
vn -0.661166668 0.171968222 0.730264068
vn -0.5196848 0.5443175 0.6585182
vn -0.870906949 -0.06908191 0.486568362
vn -0.661613166 -0.263991535 0.701837957
vn -0.6591675 0.288498342 0.6944544
vn -0.8648328 0.05999614 0.498462319
vn -0.4980917 -0.5693421 0.65402925
vn -0.680926144 -0.171602979 0.7119635
vn 0.8702812 -0.492164224 -0.0196213182
vn -0.0944698453 -0.9954021 -0.01581605
vn -0.11137 -0.9001491 -0.421103716
vn 0.536461 -0.53035444 -0.656455457
vn 0.9999865 0.00192368438 -0.00481595332
vn 0.7089204 -0.009275867 -0.705227435
vn 0.8677248 0.4968091 -0.0153127974
vn 0.556808 0.5239403 -0.6445552
vn -0.08446771 0.9964243 -0.00195600372
vn -0.109987773 0.9125695 -0.393852144
vn 0.622920752 -0.536971 0.5688866
vn -0.03222193 -0.7199495 0.6932781
vn 0.546727836 -0.479552478 0.686380446
vn 0.595578432 -0.664673746 0.451104373
vn 0.604462862 0.6474459 0.464153439
vn 0.5347791 0.499753565 0.6813646
vn -0.0190117471 0.743307 0.668680251
vn 0.622522831 0.574528337 0.5313968
vn -0.913583457 0.00598338339 -0.40660724
vn -0.692715347 -0.0249612257 -0.720779061
vn -0.5936827 -0.0206440687 -0.8044344
vn -0.697621047 -0.00100395014 -0.716466248
vn -0.9276262 -0.00537765352 -0.3734712
vn -0.9964101 -0.08464861 0.00127661286
vn -0.680926144 -0.171602979 0.7119635
vn -0.4980917 -0.5693421 0.65402925
vn -0.8648328 0.05999614 0.498462319
vn -0.6591675 0.288498342 0.6944544
vn -0.661613166 -0.263991535 0.701837957
vn -0.870906949 -0.06908191 0.486568362
vn -0.5196848 0.5443175 0.6585182
vn -0.661166668 0.171968222 0.730264068
vn -0.99635005 0.08536144 1.09068583E-06
vn 1 -7.07550953E-07 -8.594309E-07
vn 0.8296684 -1.29419232E-06 0.558256567
vn 0.829667747 -0.394748658 0.394746721
vn 0.8296673 -0.5582581 -1.10903977E-06
vn 0.829666853 -0.394748181 -0.394748956
vn 0.82966727 -1.58504562E-07 -0.558258235
vn 0.8296677 0.394747466 -0.394747943
vn 0.829668164 0.5582569 -4.39476935E-07
vn 0.829668462 0.394746721 0.394747168
vn 0.6541907 -0.5348068 0.5348048
vn 0.654191554 -1.19406218E-06 0.75632894
vn 0.6541899 -0.7563304 -1.1607583E-06
vn 0.6541894 -0.5348061 -0.534807146
vn 0.6541895 4.65478074E-08 -0.756330669
vn 0.6541907 0.534805834 -0.5348058
vn 0.6541913 0.7563291 7.92998236E-08
vn 0.654191434 0.5348051 0.534805655
usemtl 03110003_part_0_material_0
f 1/1/1 2/2/2 3/3/3
f 3/3/3 4/4/4 1/1/1
f 5/5/5 6/6/6 2/2/2
f 2/2/2 1/1/1 5/5/5
f 7/7/7 8/8/8 6/6/6
f 6/6/6 5/5/5 7/7/7
f 9/9/9 10/10/10 8/8/8
f 8/8/8 7/7/7 9/9/9
f 11/11/11 12/12/12 1/1/1
f 1/1/1 4/4/4 11/11/11
f 13/13/13 14/14/14 5/5/5
f 5/5/5 1/1/1 13/13/13
f 15/15/15 16/16/16 7/7/7
f 7/7/7 5/5/5 15/15/15
f 7/7/7 17/17/17 18/18/18
f 18/18/18 9/9/9 7/7/7
f 19/19/19 20/20/20 21/21/21
f 21/21/21 22/22/22 19/19/19
f 23/23/23 19/19/19 22/22/22
f 22/22/22 24/24/24 23/23/23
f 25/25/25 23/23/23 24/24/24
f 24/24/24 26/26/26 25/25/25
f 27/27/27 25/25/25 26/26/26
f 26/26/26 28/28/28 27/27/27
f 20/20/20 19/19/19 29/29/29
f 29/29/29 30/30/30 20/20/20
f 19/19/19 23/23/23 31/31/31
f 31/31/31 32/32/32 19/19/19
f 23/23/23 25/25/25 33/33/33
f 33/33/33 34/34/34 23/23/23
f 25/25/25 27/27/27 35/35/35
f 35/35/35 36/36/36 25/25/25
f 22/22/22 21/21/21 37/37/37
f 37/37/37 38/38/38 22/22/22
f 24/24/24 22/22/22 38/38/38
f 38/38/38 39/39/39 24/24/24
f 26/26/26 24/24/24 39/39/39
f 39/39/39 40/40/40 26/26/26
f 28/28/28 26/26/26 40/40/40
f 40/40/40 41/41/41 28/28/28
f 27/27/27 28/28/28 41/41/41
f 41/41/41 42/42/42 27/27/27
f 35/35/35 27/27/27 42/42/42
f 42/42/42 43/43/43 35/35/35
f 36/36/36 35/35/35 43/43/43
f 43/43/43 44/44/44 36/36/36
f 34/34/34 33/33/33 45/45/45
f 45/45/45 46/46/46 34/34/34
f 32/32/32 31/31/31 47/47/47
f 47/47/47 48/48/48 32/32/32
f 30/30/30 29/29/29 49/49/49
f 49/49/49 50/50/50 30/30/30
f 20/20/20 30/30/30 50/50/50
f 50/50/50 51/51/51 20/20/20
f 21/21/21 20/20/20 51/51/51
f 51/51/51 37/37/37 21/21/21
f 5/5/5 14/14/14 15/15/15
f 31/31/31 23/23/23 34/34/34
f 46/46/46 47/47/47 31/31/31
f 31/31/31 34/34/34 46/46/46
f 1/1/1 12/12/12 13/13/13
f 7/7/7 16/16/16 17/17/17
f 29/29/29 19/19/19 32/32/32
f 33/33/33 25/25/25 36/36/36
f 44/44/44 45/45/45 33/33/33
f 33/33/33 36/36/36 44/44/44
f 48/48/48 49/49/49 29/29/29
f 29/29/29 32/32/32 48/48/48
f 52/52/52 53/53/53 54/54/54
f 52/52/52 54/54/54 55/55/55
f 52/52/52 55/55/55 56/56/56
f 52/52/52 56/56/56 57/57/57
f 52/52/52 57/57/57 58/58/58
f 52/52/52 58/58/58 59/59/59
f 52/52/52 59/59/59 60/60/60
f 52/52/52 60/60/60 53/53/53
f 61/61/61 54/54/54 53/53/53
f 53/53/53 62/62/62 61/61/61
f 63/63/63 55/55/55 54/54/54
f 54/54/54 61/61/61 63/63/63
f 64/64/64 56/56/56 55/55/55
f 55/55/55 63/63/63 64/64/64
f 65/65/65 57/57/57 56/56/56
f 56/56/56 64/64/64 65/65/65
f 66/66/66 58/58/58 57/57/57
f 57/57/57 65/65/65 66/66/66
f 67/67/67 59/59/59 58/58/58
f 58/58/58 66/66/66 67/67/67
f 68/68/68 60/60/60 59/59/59
f 59/59/59 67/67/67 68/68/68
f 62/62/62 53/53/53 60/60/60
f 60/60/60 68/68/68 62/62/62
