mtllib 03140004.mtl
o 03140004_part_0
v 0.4495702 -0.16473645 0.6998768
v 0.018607147 -0.16473645 0.7582613
v -0.002011859 -0.282471448 0.6422442
v 0.4379694 -0.282889873 0.582215667
v 0.4495702 -0.16473645 0.6998768
v 0.4379694 -0.282889873 0.582215667
v 0.4323069 -0.295676857 0.5404178
v 0.447971344 -0.116145171 0.719467342
v -0.007730577 -0.295676857 0.6000317
v -0.002011859 -0.282471448 0.6422442
v 0.018607147 -0.16473645 0.7582613
v 0.0259020384 -0.116145141 0.776647031
v 0.447971344 -0.116145171 0.719467342
v 0.0259020384 -0.116145141 0.776647031
v -0.007730577 -0.295676857 0.6000317
v 0.4323069 -0.295676857 0.5404178
v 0.428935945 -0.313527882 0.5408745
v -0.003922798 -0.313527882 0.5995158
v -0.0288650375 -0.313527882 0.346679419
v 0.386757 -0.313527882 0.290373236
v 0.386757 -0.313527882 0.290373236
v -0.0288650375 -0.313527882 0.346679419
v -0.0322848558 -0.295676827 0.347142667
v 0.389784455 -0.295676827 0.289963067
v -0.003922798 -0.313527882 0.5995158
v 0.428935945 -0.313527882 0.5408745
v 0.4323069 -0.295676857 0.5404178
v -0.007730577 -0.295676857 0.6000317
v -0.0288650375 -0.313527882 0.346679419
v -0.003922798 -0.313527882 0.5995158
v -0.0322848558 -0.295676827 0.347142667
v 0.428935945 -0.313527882 0.5408745
v 0.386757 -0.313527882 0.290373236
v 0.389784455 -0.295676827 0.289963067
v 0.447971344 -0.116145171 0.719467342
v 0.4323069 -0.295676857 0.5404178
v -0.007730577 -0.295676827 0.6000317
v 0.0259020384 -0.116145141 0.776647031
v 0.389784455 -0.295676827 0.289963067
v -0.0322848558 -0.295676827 0.347142667
v -0.007730577 -0.295676827 0.6000317
v 0.4323069 -0.295676857 0.5404178
vt 0.898654461 0.308947563
vt 0.8986546 0.8543709
vt 0.6862811 0.8543927
vt 0.685526133 0.308871031
vt 0.7823555 0.970698059
vt 0.19044441 0.970698059
vt 0.05617502 0.9193908
vt 0.9555719 0.9193908
vt 0.05617549 0.9193907
vt 0.192541018 0.970697939
vt 0.782355964 0.970697939
vt 0.955572367 0.9193907
vt 0.961024046 0.309022665
vt 0.9610243 0.8543495
vt 0.6371802 0.8543927
vt 0.6371801 0.308871031
vt 0.614052653 0.308862329
vt 0.614052534 0.8543744
vt 0.3491258 0.8543326
vt 0.3491259 0.309008956
vt 0.984477043 0.309054255
vt 0.9849436 0.85434556
vt 0.9610243 0.8543495
vt 0.961024046 0.309022665
vt 0.614052534 0.8543744
vt 0.614052653 0.308862329
vt 0.6371801 0.308871031
vt 0.6371802 0.8543927
vt 0.955572367 0.869582832
vt 0.05617549 0.869582832
vt 0.955572367 0.9193907
vt 0.05617502 0.869582951
vt 0.9555719 0.869582951
vt 0.9555719 0.9193908
vt 0.272674024 0.295963049
vt 0.2723037 0.022158742
vt 0.757823467 0.022158742
vt 0.7575642 0.2959631
vt 0.037682578 0.849145353
vt 0.03768245 0.312095821
vt 0.328365952 0.3116274
vt 0.3283661 0.8494024
vn 0.111703232 -0.554678559 0.8245326
vn 0.11163269 -0.555466 0.8240119
vn 0.06880401 -0.8572535 0.5102768
vn 0.06874842 -0.8588358 0.507616639
vn 0.974642158 0.109293148 -0.195263058
vn 0.9873534 0.05214652 -0.149713024
vn 0.978130341 -0.127659485 -0.164207608
vn 0.9740489 0.111469239 -0.196985736
vn -0.9847524 -0.143299654 0.09863031
vn -0.9914954 0.0596746467 0.115654111
vn -0.9903856 0.123212263 0.06288985
vn -0.9902087 0.125629738 0.0608598627
vn 0.124856055 -0.367461383 0.921619833
vn 0.124856077 -0.367461652 0.9216197
vn 0.0391235277 -0.955273867 0.2931231
vn 0.0389476456 -0.956991255 0.2874905
vn 0 -1 0
vn 0 -1 0
vn 0 -1 0
vn 0 -1 0
vn -0.134248078 -1.40809254E-06 -0.9909478
vn -0.134248137 -2.82344649E-06 -0.9909477
vn -0.134248137 -2.7790968E-06 -0.9909477
vn -0.134248078 -1.372928E-06 -0.9909478
vn 0.134248212 -1.12163025E-06 0.9909477
vn 0.134248137 7.961148E-07 0.9909477
vn 0.134248137 7.385865E-07 0.9909477
vn 0.134248212 -1.166241E-06 0.9909477
vn -0.9770611 -0.190626785 0.09493715
vn -0.9729133 -0.210304528 0.0959776342
vn -0.9772504 -0.18967925 0.09488619
vn 0.9686492 -0.186259255 -0.164396614
vn 0.9720008 -0.168608069 -0.163663775
vn 0.9718488 -0.169447049 -0.163699761
vn -0.09492778 0.707106769 -0.7007059
vn -0.09492778 0.707106769 -0.7007059
vn -0.09492778 0.707106769 -0.7007059
vn -0.094927825 0.7071068 -0.7007058
vn 0 1 0
vn 0 1 0
vn 0 1 0
vn 8.196208E-08 1 1.05077255E-07
usemtl 03140004_part_0_material_0
f 1/1/1 2/2/2 3/3/3
f 3/3/3 4/4/4 1/1/1
f 5/5/5 6/6/6 7/7/7
f 7/7/7 8/8/8 5/5/5
f 9/9/9 10/10/10 11/11/11
f 11/11/11 12/12/12 9/9/9
f 13/13/13 14/14/14 2/2/2
f 2/2/2 1/1/1 13/13/13
f 15/15/15 16/16/16 4/4/4
f 4/4/4 3/3/3 15/15/15
f 17/17/17 18/18/18 19/19/19
f 19/19/19 20/20/20 17/17/17
f 21/21/21 22/22/22 23/23/23
f 23/23/23 24/24/24 21/21/21
f 25/25/25 26/26/26 27/27/27
f 27/27/27 28/28/28 25/25/25
f 29/29/29 30/30/30 9/9/9
f 9/9/9 31/31/31 29/29/29
f 32/32/32 33/33/33 34/34/34
f 34/34/34 7/7/7 32/32/32
f 35/35/35 36/36/36 37/37/37
f 37/37/37 38/38/38 35/35/35
f 39/39/39 40/40/40 41/41/41
f 41/41/41 42/42/42 39/39/39
