mtllib 03140003.mtl
o 03140003_part_0
v 0.346493423 -0.3208841 0.290369928
v 0.393192917 -0.3208841 0.619868636
v 0.0723907351 -0.3208841 0.6680995
v 0.02569127 -0.3208841 0.338600755
v 0.0389408022 -0.3208841 0.321172863
v 0.328959733 -0.3208841 0.277570069
v 0.328959733 -0.2912244 0.277570069
v 0.0389408022 -0.2912244 0.321172863
v 0.02569127 -0.290475726 0.338600755
v 0.063272886 -0.277340651 0.603766441
v 0.384075046 -0.277340651 0.555535555
v 0.346493423 -0.290475726 0.290369928
v 0.328959733 -0.3208841 0.277570069
v 0.0389408022 -0.3208841 0.321172863
v 0.0389408022 -0.2912244 0.321172863
v 0.328959733 -0.2912244 0.277570069
v 0.02569127 -0.3208841 0.338600755
v 0.0723907351 -0.3208841 0.6680995
v 0.063272886 -0.277340651 0.603766441
v 0.02569127 -0.290475726 0.338600755
v 0.409028351 -0.244212 0.731599331
v 0.395363033 -0.235853642 0.7460936
v 0.105344087 -0.235853642 0.7896964
v 0.08822621 -0.244212 0.7798302
v 0.384075046 -0.277340651 0.555535555
v 0.405988038 -0.2110682 0.7101473
v 0.409028351 -0.244212 0.731599331
v 0.393192917 -0.3208841 0.619868636
v 0.08518583 -0.2110682 0.758378148
v 0.102529086 -0.2051659 0.7698341
v 0.392547965 -0.2051659 0.7262313
v 0.405988038 -0.2110682 0.7101473
v 0.392547965 -0.2051659 0.7262313
v 0.102529086 -0.2051659 0.7698341
v 0.105344087 -0.235853642 0.7896964
v 0.395363033 -0.235853642 0.7460936
v 0.08822621 -0.244212 0.7798302
v 0.08518583 -0.2110682 0.758378148
v 0.346493423 -0.3208841 0.290369928
v 0.346493423 -0.290475726 0.290369928
v 0.0389408022 -0.3208841 0.321172863
v 0.0389408022 -0.2912244 0.321172863
v 0.328959733 -0.2912244 0.277570069
v 0.328959733 -0.3208841 0.277570069
v 0.105344087 -0.235853642 0.7896964
v 0.102529086 -0.2051659 0.7698341
v 0.395363033 -0.235853642 0.7460936
v 0.392547965 -0.2051659 0.7262313
vt 0.0261269547 0.3135761
vt 0.0261269547 0.7442393
vt 0.463034481 0.7442393
vt 0.463034481 0.3135761
vt 0.442072362 0.2938218
vt 0.047089193 0.2938218
vt 0.5107056 0.247694969
vt 0.955061555 0.247694969
vt 0.978644 0.271367669
vt 0.978644 0.661268234
vt 0.4871231 0.661268234
vt 0.4871231 0.271367669
vt 0.5107056 0.202770591
vt 0.955061555 0.202770591
vt 0.955061555 0.247694969
vt 0.5107056 0.247694969
vt 0.8794143 0.0342460871
vt 0.313863158 0.0352144837
vt 0.424423456 0.116268814
vt 0.8795114 0.09098208
vt 0.0261269547 0.918575
vt 0.047089193 0.9344948
vt 0.442072362 0.9344948
vt 0.463034481 0.918575
vt 0.424423456 0.116268814
vt 0.159259826 0.240374327
vt 0.122333765 0.178597629
vt 0.313863158 0.0352144837
vt 0.978644 0.9008555
vt 0.955061555 0.9211028
vt 0.5107056 0.9211028
vt 0.4871231 0.9008555
vt 0.5107056 0.9211028
vt 0.955061555 0.9211028
vt 0.955061555 0.971031666
vt 0.5107056 0.971031666
vt 0.122333765 0.178597629
vt 0.159259826 0.240374327
vt 0.8794143 0.0342460871
vt 0.8795114 0.09098208
vt 0.923145 0.03420168
vt 0.923239768 0.08954084
vt 0.923239768 0.08954084
vt 0.923145 0.03420168
vt 0.09065819 0.20142585
vt 0.124847904 0.258624673
vt 0.09065819 0.20142585
vt 0.124847904 0.258624673
vn 0 -1 0
vn 0.0434947871 -0.9562497 0.289300323
vn 0.04392377 -0.9553624 0.29215318
vn 0 -1 0
vn 0 -1 0
vn 0 -1 0
vn -0.00728308968 0.9987994 -0.04844363
vn -0.00728320936 0.9987994 -0.0484432876
vn -0.00728324847 0.9987994 -0.0484435149
vn -0.0333306268 0.9745464 -0.221694469
vn -0.0330647081 0.9749561 -0.219925642
vn -0.007282695 0.9987994 -0.04844372
vn 0.238363132 0 -0.9711761
vn -0.5098393 0 -0.860269666
vn -0.513595045 0 -0.8580327
vn 0.242692634 0 -0.970103264
vn -0.96775955 7.282953E-10 -0.2518759
vn -0.9901052 1.55987067E-07 0.140326858
vn -0.9901052 4.91193219E-08 0.140326813
vn -0.9704716 0 -0.241215244
vn 0.0835531056 -0.827135444 0.555757
vn 0.08355463 -0.8271353 0.5557569
vn 0.08355532 -0.827134967 0.5557574
vn 0.08355529 -0.8271352 0.555757046
vn 0.9901052 -2.30318165E-07 -0.140326872
vn 0.9675844 0.193668813 0.16208908
vn 0.9580632 0.212391987 0.19236578
vn 0.9901053 -4.82373963E-08 -0.140326783
vn -0.0580831878 0.9205257 -0.3863402
vn -0.05808394 0.9205257 -0.386340022
vn -0.0580843128 0.9205256 -0.386340231
vn -0.0580842756 0.9205257 -0.386340022
vn 0.496061653 0.5034039 0.70746547
vn -0.267996579 0.506035864 0.819820464
vn -0.2567468 0.5084354 0.8219334
vn 0.482641578 0.506656349 0.714392364
vn -0.8655339 0.213764086 0.4529415
vn -0.8825352 0.1957739 0.427555978
vn 0.857451439 0 -0.5145649
vn 0.86314714 -1.20529338E-08 -0.504952431
vn -0.5098393 0 -0.860269666
vn -0.513595045 0 -0.8580327
vn 0.242692634 0 -0.970103264
vn 0.238363132 0 -0.9711761
vn -0.2567468 0.5084354 0.8219334
vn -0.267996579 0.506035864 0.819820464
vn 0.482641578 0.506656349 0.714392364
vn 0.496061653 0.5034039 0.70746547
usemtl 03140003_part_0_material_0
f 1/1/1 2/2/2 3/3/3
f 3/3/3 4/4/4 5/5/5
f 1/1/1 3/3/3 5/5/5
f 6/6/6 1/1/1 5/5/5
f 7/7/7 8/8/8 9/9/9
f 9/9/9 10/10/10 11/11/11
f 7/7/7 9/9/9 11/11/11
f 12/12/12 7/7/7 11/11/11
f 13/13/13 14/14/14 15/15/15
f 15/15/15 16/16/16 13/13/13
f 17/17/17 18/18/18 19/19/19
f 19/19/19 20/20/20 17/17/17
f 2/2/2 21/21/21 22/22/22
f 22/22/22 23/23/23 24/24/24
f 2/2/2 22/22/22 24/24/24
f 3/3/3 2/2/2 24/24/24
f 25/25/25 26/26/26 27/27/27
f 27/27/27 28/28/28 25/25/25
f 10/10/10 29/29/29 30/30/30
f 30/30/30 31/31/31 32/32/32
f 30/30/30 32/32/32 11/11/11
f 10/10/10 30/30/30 11/11/11
f 33/33/33 34/34/34 35/35/35
f 35/35/35 36/36/36 33/33/33
f 37/37/37 38/38/38 19/19/19
f 19/19/19 18/18/18 37/37/37
f 28/28/28 39/39/39 40/40/40
f 40/40/40 25/25/25 28/28/28
f 41/41/41 17/17/17 20/20/20
f 20/20/20 42/42/42 41/41/41
f 43/43/43 40/40/40 39/39/39
f 39/39/39 44/44/44 43/43/43
f 37/37/37 45/45/45 46/46/46
f 46/46/46 38/38/38 37/37/37
f 47/47/47 27/27/27 26/26/26
f 26/26/26 48/48/48 47/47/47
