mtllib 04070035.mtl
o 04070035_part_0
v 0.0402249172 -0.173886582 0.198372558
v 0.0402248576 -0.113474391 0.09351839
v 0.048697602 -0.09355063 0.11417
v 0.0402248353 -0.0755674 0.132768884
v 0.02922507 -0.09438353 0.11329513
v 0.0402249172 -0.173886582 0.198372558
v 0.06090846 0.0173215717 0.107472017
v 0.0497664735 -0.0112090064 0.107520841
v 0.05205675 -0.0165828224 -0.08898648
v 0.0609085076 0.0173217263 -0.08903527
v 0.0194994453 0.00513702026 0.107472025
v 0.0194995031 0.005137175 -0.0890352651
v 0.0283512231 0.0390416719 -0.08898643
v 0.0306414086 0.0336675458 0.107520871
v 0.0402040929 -0.0735518262 0.3254503
v 0.040204186 -0.0286954753 0.6269678
v 0.0195789654 -0.0349016227 0.3446237
v 0.0608291 -0.0349014029 0.344623655
v 0.0608290844 0.0573597625 0.344623655
v 0.0402041525 0.0511535779 0.626967847
v 0.0402042158 0.0112289712 0.734379649
v 0.0195789356 0.011229204 0.276706517
v 0.04020406 -0.04191776 0.259844959
v 0.0195788834 0.0112293521 0.1900189
v 0.0402040258 -0.0305107087 0.189984813
v 0.0195788722 0.0112293735 0.148363516
v 0.0195788871 -0.00648491131 0.148363486
v 0.0402040072 -0.0273370743 0.1483294
v 0.0402040258 -0.0305107087 0.189984813
v 0.040204037 -0.0530267842 0.17231743
v 0.0402037166 -0.0291228555 -0.339328
v 0.0609106272 0.0112295449 -0.2606765
v 0.0608288236 -0.0258810632 -0.198898375
v 0.0402036756 0.0112295663 -0.4088686
v 0.0402037241 -0.0449649 -0.179725
v 0.019578686 -0.02588087 -0.198898345
v 0.0402037054 -0.0265933648 -0.152706653
v 0.0608288161 0.0112294881 -0.152157351
v 0.06082882 0.0112295281 -0.1289242
v 0.0402037241 -0.0190518275 -0.128890231
v 0.0402040854 0.09601029 0.3254504
v 0.01957896 0.05735993 0.3446237
v 0.0402040333 0.0643763 0.259845018
v 0.06082905 0.0112293158 0.276706517
v 0.0402040035 0.05296927 0.189984873
v 0.06082901 0.0112293623 0.1900189
v 0.040204 0.0497956276 0.148329467
v 0.0195788685 0.02894345 0.148363516
v 0.0608290173 0.0112293828 0.1483635
v 0.0402040035 0.05296927 0.189984873
v 0.04020401 0.07548532 0.17231755
v 0.0402037166 0.06742385 -0.179724962
v 0.0608288236 0.0483400933 -0.19889836
v 0.040203698 0.0515820645 -0.339327842
v 0.0402037054 0.04905233 -0.152706638
v 0.04020372 0.04151072 -0.128890187
v 0.0195786785 0.011229529 -0.150498286
v 0.0195786748 0.0112295179 -0.128924191
v 0.0195787027 0.0483398736 -0.19889833
v 0.04020389 0.137766883 0.162112042
v 0.062168207 0.137408674 0.1325053
v 0.0402038433 0.172493011 0.130748764
v 0.04020406 -0.0792441443 0.137270287
v 0.0621683933 -0.06454214 0.122389346
v 0.0621683449 -0.0518348068 0.128290236
v 0.0402040221 -0.0517413653 0.148614287
v 0.0182396788 -0.0518348664 0.128290281
v 0.0182397086 -0.06454219 0.122389384
v 0.0402040072 -0.0514734574 0.107761912
v 0.04020408 -0.141588837 0.09510787
v 0.0621684268 -0.121890791 0.08606665
v 0.0182397421 -0.121890828 0.08606667
v 0.04020405 -0.10244251 0.07709956
v 0.0402040631 -0.158678949 0.0128989695
v 0.06216839 -0.1412578 0.0128990412
v 0.0182397217 -0.141257867 0.0128990682
v 0.0402040333 -0.117095582 0.0128990617
v 0.04020375 0.118189655 -0.108865544
v 0.062394347 0.0890203044 -0.109706059
v 0.0402037241 0.0897234753 -0.139257848
v 0.04020377 0.06571315 -0.129121959
v 0.0182394534 0.06569452 -0.108962469
v 0.0180131532 0.0888320655 -0.109706029
v 0.0402037241 0.0897234753 -0.139257848
v 0.04020375 0.08865679 -0.07847316
v 0.0402038 0.0657311156 -0.088700816
v 0.04020391 -0.0792439654 -0.118039533
v 0.0402038619 -0.0517412163 -0.129383489
v 0.06216821 -0.0518346727 -0.109059446
v 0.0621682554 -0.064542 -0.103158586
v 0.018239541 -0.0518347323 -0.109059423
v 0.0182395726 -0.06454207 -0.103158556
v 0.04020389 -0.0514733 -0.08853114
v 0.0402040035 -0.1415887 -0.0720967948
v 0.0621683337 -0.121890657 -0.0630556941
v 0.0182396639 -0.121890709 -0.0630556643
v 0.0402039848 -0.102442466 -0.0540885963
v 0.0621682741 0.0675019845 0.1281934
v 0.04020394 0.06759507 0.148352981
v 0.018239595 0.0675019249 0.128193438
v 0.0402039178 0.06768514 0.107931748
v 0.04020389 0.103242971 0.127971575
v 0.0621682256 0.1081663 0.103336252
v 0.01823954 0.108166292 0.103336282
v 0.0402038619 0.1035765 0.08204377
v 0.0621681362 0.06569453 -0.108962491
v 0.0402038246 0.152359977 0.08321337
v 0.0182395261 0.1374087 0.12994732
v 0.0402248241 -0.2504625 0.017853478
v 0.04869755 -0.127069086 0.0111521035
v 0.0402248278 -0.12589024 0.03982362
v 0.0402248241 -0.2504625 0.017853478
v 0.02922502 -0.127011463 0.0123586822
v 0.0402247645 -0.128103256 -0.0146983564
v 0.04022468 -0.177474946 -0.175157458
v 0.04869748 -0.09641645 -0.0818817839
v 0.0402247533 -0.1183221 -0.06334568
v 0.04022468 -0.177474946 -0.175157458
v 0.029224949 -0.09733332 -0.08109537
v 0.04022469 -0.07664845 -0.09857141
v 0.03992943 -0.08808311 0.322316557
v 0.04077177 -0.03664374 0.628461838
v 0.005091487 -0.03821136 0.3441633
v 0.053001903 0.012108963 0.6293456
v 0.0404695757 0.0106656011 0.749234438
v 0.07530852 -0.0382579155 0.344257474
v 0.004773723 0.0111869192 0.275343716
v 0.0401860774 -0.0561158322 0.2554327
v 0.00474446733 0.01138924 0.175439492
v 0.0422068946 -0.06062964 0.174175039
v 0.005387704 0.0112293707 0.143929049
v 0.00863158 -0.0108614024 0.139305
v 0.04263894 -0.0389984623 0.139433548
v 0.04016879 -0.0386066027 -0.343110085
v 0.05346007 0.0112295905 -0.3451091
v 0.07467071 -0.0311882477 -0.197762832
v 0.039988406 0.0115584387 -0.423731267
v 0.040203657 -0.05921625 -0.175487965
v 0.00558680575 -0.0308582317 -0.198186681
v 0.0725249648 0.0112295384 -0.119745217
v 0.03714386 -0.0294262934 -0.118689165
v 0.0401413031 -0.03959605 -0.145496964
v 0.07558425 0.0112294946 -0.1503323
v 0.0402040966 0.110608213 0.32263
v 0.005100373 0.06071829 0.344242364
v 0.040857628 0.0586878322 0.6279438
v 0.0402040333 0.07820348 0.254380316
v 0.075619 0.011229326 0.2751863
v 0.07530851 0.0155411828 0.344257534
v 0.0406807363 0.08321629 0.174521565
v 0.07569627 0.0112111671 0.174316511
v 0.00610531727 0.03433307 0.145127952
v 0.04263932 0.06145898 0.139436275
v 0.07255333 0.01122816 0.139220521
v 0.0402036421 0.0816751942 -0.175487921
v 0.07467071 0.0536472872 -0.197762832
v 0.0399605669 0.06487442 -0.3458367
v 0.0401412919 0.0620550178 -0.14549692
v 0.00488346955 0.0112295393 -0.148238972
v 0.007683192 0.0112295253 -0.120005049
v 0.0371438563 0.0518851653 -0.118689105
v 0.005596864 0.0533520281 -0.19823505
v 0.00509609 0.0131027605 0.344204336
v 0.0280544013 0.0113681192 0.6324833
v 0.0753084943 0.0607162826 0.344257534
v 0.0315494761 0.0162340384 -0.34455508
v 0.005591969 0.0124468748 -0.198211536
vt 0.537959456 0.340536
vt 0.6024045 0.040914
vt 0.5279939 0.0422486067
vt 0.460906476 0.0433778763
vt 0.531125963 0.0421718359
vt 0.537959456 0.340536
vt 0.8881266 0.388894618
vt 0.952118635 0.388985217
vt 0.9674447 0.0264322162
vt 0.8881268 0.02634132
vt 0.8881266 0.388894618
vt 0.8881268 0.02634132
vt 0.8088092 0.0264320374
vt 0.8241352 0.388985217
vt 0.325430483 0.308943868
vt 0.245084465 0.7753684
vt 0.2562013 0.3432867
vt 0.25620085 0.3432867
vt 0.09094545 0.3432865
vt 0.102061383 0.7753684
vt 0.173572972 0.923363
vt 0.1735731 0.24648118
vt 0.26876846 0.216279387
vt 0.173573032 0.109917581
vt 0.248336554 0.109856606
vt 0.173573017 0.0255575776
vt 0.205302313 0.0255575776
vt 0.242652133 0.0254966021
vt 0.248336554 0.109856606
vt 0.288666725 0.07821143
vt 0.744228959 0.374806523
vt 0.6509338 0.5329622
vt 0.7367338 0.657188356
vt 0.6509339 0.219088137
vt 0.780855536 0.695742965
vt 0.7367331 0.657188356
vt 0.7383805 0.750072658
vt 0.650933564 0.7511771
vt 0.6509335 0.797895253
vt 0.720944166 0.7979636
vt 0.021715695 0.308943748
vt 0.09094511 0.3432865
vt 0.0783777758 0.216279268
vt 0.173573017 0.24648124
vt 0.09880976 0.109856486
vt 0.173572987 0.109917581
vt 0.104494356 0.0254965425
vt 0.141844064 0.0255575776
vt 0.173573047 0.0255575776
vt 0.09880976 0.109856486
vt 0.0584796742 0.07821131
vt 0.5210119 0.695742846
vt 0.56513375 0.657188237
vt 0.5576386 0.3748067
vt 0.563487053 0.7500724
vt 0.5809231 0.7979636
vt 0.6509335 0.754513144
vt 0.650933444 0.797895253
vt 0.5651343 0.657188237
vt 0.35057953 0.3821206
vt 0.3920583 0.367106557
vt 0.395679951 0.294769228
vt 0.38223362 0.8138039
vt 0.41291523 0.783491254
vt 0.400748849 0.757291257
vt 0.358844459 0.757098436
vt 0.400748849 0.757291257
vt 0.41291523 0.783491254
vt 0.4430743 0.756546
vt 0.4691646 0.942346931
vt 0.487805665 0.9017332
vt 0.487805665 0.9017335
vt 0.50629425 0.8616347
vt 0.63866365 0.9775836
vt 0.6386635 0.941664755
vt 0.6386635 0.941664755
vt 0.6386635 0.8918468
vt 0.8897195 0.406733155
vt 0.891452253 0.456873775
vt 0.9523825 0.465424955
vt 0.9314843 0.5149296
vt 0.889919341 0.5149681
vt 0.891452253 0.456873775
vt 0.9523825 0.465424955
vt 0.8270559 0.467624247
vt 0.848143458 0.514892459
vt 0.9086343 0.813803732
vt 0.9320234 0.7570986
vt 0.890119 0.7572912
vt 0.8779526 0.783491135
vt 0.890119 0.7572912
vt 0.8779526 0.783491135
vt 0.84779346 0.756545842
vt 0.8139088 0.942346931
vt 0.7952679 0.9017332
vt 0.7952679 0.901733339
vt 0.7767794 0.8616345
vt 0.400948524 0.511241257
vt 0.359383225 0.511049151
vt 0.400948524 0.511241257
vt 0.4427244 0.5108634
vt 0.401405931 0.437550068
vt 0.452199221 0.4273991
vt 0.45219934 0.427399039
vt 0.4961005 0.4368623
vt 0.889919341 0.5149681
vt 0.49368906 0.33628
vt 0.3920583 0.367106557
vt 0.537959456 0.340536
vt 0.5279939 0.0422486067
vt 0.6024045 0.040914
vt 0.537959456 0.340536
vt 0.531125963 0.0421718359
vt 0.460906476 0.0433778763
vt 0.537959456 0.340536
vt 0.5279939 0.0422486067
vt 0.6024045 0.040914
vt 0.537959456 0.340536
vt 0.531125963 0.0421718359
vt 0.460906476 0.0433778763
vt 0.9995005 0.364100337
vt 0.7408674 0.103360116
vt 0.74875 0.3454938
vt 0.495743483 0.102607429
vt 0.5030002 0.0004994869
vt 0.7489842 0.345413566
vt 0.500380337 0.404106617
vt 0.8387723 0.421064615
vt 0.4993634 0.489193857
vt 0.86146754 0.490270734
vt 0.5001673 0.5160309
vt 0.6112376 0.519969165
vt 0.7527081 0.5198597
vt 0.7507392 0.9308364
vt 0.5001676 0.932538867
vt 0.7134401 0.8070458
vt 0.4985144 0.9995005
vt 0.85436213 0.7880746
vt 0.7117807 0.8074068
vt 0.5001673 0.7405992
vt 0.7045809 0.7396997
vt 0.7557136 0.762531638
vt 0.5001676 0.766649842
vt 0.0004995167 0.3638335
vt 0.251341134 0.3454265
vt 0.261549354 0.10380137
vt 0.163427621 0.42196095
vt 0.500167251 0.404240727
vt 0.478487432 0.345413566
vt 0.138223916 0.4899757
vt 0.5002588 0.490150332
vt 0.3840041 0.5150098
vt 0.247617662 0.5198574
vt 0.5001735 0.520041168
vt 0.145973325 0.7880746
vt 0.286895156 0.8070459
vt 0.230446577 0.933158636
vt 0.244621664 0.762531638
vt 0.500167251 0.764866948
vt 0.500167251 0.740820467
vt 0.2957546 0.7396997
vt 0.28837955 0.807448
vt 0.490747482 0.345458865
vt 0.499468327 0.0999351144
vt 0.251351357 0.345413566
vt 0.475005716 0.932067037
vt 0.494046748 0.807428
vn 0.9048936 0.118035994 0.4089439
vn 0.03861113 -0.8658276 -0.498850346
vn 0.9973526 -0.04726844 0.0552583933
vn 0.0306365322 0.5547768 0.831434965
vn -0.9954699 -0.07444943 0.0591350719
vn -0.9231557 -0.3330955 -0.191913813
vn 0.75654453 0.278270572 0.5917819
vn 0.275836676 -0.7674454 0.5787415
vn 0.2918299 -0.7789544 -0.555036366
vn 0.7496634 0.2851601 -0.5972341
vn -0.762253 -0.2797256 0.5837157
vn -0.7545845 -0.286509067 -0.590351462
vn -0.300311238 0.776156068 -0.5544321
vn -0.285590917 0.7643379 0.5781223
vn -0.0102337124 -0.977283 -0.211691365
vn 0.0346570127 -0.8449858 0.5336646
vn -0.9635112 -0.2664026 -0.0259950347
vn 0.96470803 -0.263062626 -0.0116834743
vn 0.9647082 0.263062 -0.0116831874
vn 0.08796071 0.8949255 0.437460124
vn 0.0178514253 -0.0378919 0.9991224
vn -0.9957861 -0.00284387358 -0.0916626
vn 0.00121888961 -0.9548916 -0.296952039
vn -0.9977505 0.009535473 0.06635513
vn 0.04262378 -0.99883 -0.0228443239
vn -0.7076915 7.793409E-07 -0.7065216
vn -0.736307 -0.29435873 -0.6092659
vn -0.184903577 -0.7915646 -0.5824399
vn -1 -7.095207E-07 4.8252997E-07
vn -1 -7.095208E-07 4.8253E-07
vn 0.00131054036 -0.8988996 -0.438152671
vn 0.9933761 6.86741941E-10 -0.114908643
vn 0.8993893 -0.434067279 0.05181104
vn -0.014477374 0.02211991 -0.9996505
vn -2.02845717E-06 -0.9482825 0.317427635
vn -0.908672452 -0.4166078 0.027427515
vn -0.004197589 -0.8745494 0.484918267
vn 0.992554 -4.57003864E-07 0.1218053
vn 0.786672533 4.15859773E-07 0.6173705
vn -0.0303650349 -0.7477096 0.6633313
vn 2.01803073E-06 0.9814728 -0.191601515
vn -0.964667737 0.2631689 -0.0125790946
vn 5.75991066E-07 0.935951233 -0.352129668
vn 0.994759 4.848994E-07 -0.102247059
vn 0.0320643745 0.9994618 0.006921144
vn 0.9999581 9.066712E-07 -0.009155275
vn -0.184778258 0.7917094 -0.5822827
vn -0.73663336 0.294378847 -0.608861566
vn 0.78886193 -8.23852E-05 -0.614570439
vn -1 6.66995163E-07 2.17476384E-07
vn -1 6.669951E-07 2.17476384E-07
vn -2.20704237E-06 0.9482822 0.317428529
vn 0.8993892 0.434067518 0.0518114641
vn -0.0564118028 0.8855996 -0.461010873
vn -0.00419732835 0.8745492 0.484918654
vn -0.0303652883 0.7477082 0.6633328
vn -0.9883867 8.577609E-07 0.151959509
vn -0.8004174 5.97424958E-07 0.599443
vn -0.909041464 0.416065544 0.0230878778
vn -0.0149682565 -0.0145702595 0.9997818
vn 0.959439456 0.08505731 0.2687772
vn -0.00162452506 0.98593533 0.167119533
vn 1.18862215E-06 -0.488224447 0.8727181
vn 0.9997692 -0.008297621 0.0198151916
vn 0.994691133 -0.0355436429 0.09657246
vn -0.000172217333 -0.178883821 0.9838702
vn -0.994684935 -0.03523486 0.09674882
vn -0.9997692 -0.008301093 0.0198157486
vn -1.44677654E-06 0.290307 -0.956933558
vn 6.277285E-07 -0.828235 0.560380936
vn 0.983982444 -0.117535166 0.134030059
vn -0.983982146 -0.117536172 0.134031177
vn -1.29585248E-06 0.7825095 -0.6226386
vn 9.18806734E-07 -0.9999954 0.003037919
vn 0.98295 -0.18387191 0.0006874793
vn -0.9829496 -0.183873832 0.0006888384
vn -1.05526817E-06 0.9999873 -0.0050361664
vn -0.00118739041 0.99990505 0.0137272431
vn 0.959162 0.2822547 -0.0184543561
vn 0.2560944 0.5958927 -0.7611357
vn -0.0378723741 -0.175870985 -0.9836844
vn -0.9983933 -0.04816682 -0.02984644
vn -0.9664632 0.252034277 -0.0492711551
vn -0.351189077 -0.364141822 -0.8625932
vn -0.000402078847 0.2037986 0.9790127
vn 1.03109846E-06 -0.228843987 0.9734631
vn -1.469031E-07 -0.506795466 -0.8620663
vn 0.000175366615 -0.1788691 -0.9838729
vn 0.9946847 -0.0352273434 -0.0967539847
vn 0.9994909 -0.0114717241 -0.0297718253
vn -0.994690835 -0.0355460048 -0.0965744257
vn -0.9994909 -0.0114749214 -0.029769687
vn 9.22385155E-08 0.311488032 0.9502501
vn 2.13602462E-07 -0.840139449 -0.5423705
vn 0.985877156 -0.1165258 -0.120283112
vn -0.985877156 -0.116527371 -0.120281532
vn -6.26368148E-08 0.8071059 0.5904067
vn 0.991125762 0.06432297 0.116328113
vn -0.00017761247 0.23409611 0.972213447
vn -0.991124332 0.0640071 0.116514646
vn -8.74624959E-07 -0.3224988 -0.94656986
vn -0.007925945 -0.07008122 0.9975098
vn 0.967098 -0.114480145 -0.227191061
vn -0.96804 -0.115813531 -0.222454116
vn -9.438732E-07 -0.28597948 -0.958235741
vn 0.996646941 -0.08182178 0.000304287852
vn 0.00345258368 0.6065689 -0.795023441
vn -0.9667144 0.0959549248 0.237183392
vn 0.9094673 -0.219001755 -0.3534226
vn 0.9974971 -0.06926453 -0.0142127611
vn 0.0404421464 -0.173542067 0.983995736
vn -0.9253707 -0.0658371 0.373302281
vn -0.99605453 -0.08874335 0.0001684522
vn 0.0298034456 -0.256978422 -0.965957463
vn 0.9094677 0.144466951 -0.389868975
vn 0.997497 -0.03131486 -0.06339586
vn 0.0404399373 -0.8832009 0.4672481
vn -0.925370932 -0.3350624 0.1772621
vn -0.9960546 -0.0546249375 -0.0699385852
vn 0.02980214 0.6046038 -0.7959686
vn -0.0174176432 -0.9809147 -0.1936567
vn 0.009153375 -0.9468973 0.321405828
vn -0.94420135 -0.328131229 -0.0285258032
vn 0.9958324 0.005107839 0.0910590962
vn -0.000299373671 -0.004088998 0.9999916
vn 0.9453635 -0.325827569 -0.01114622
vn -0.9937394 -0.0115398541 -0.111125119
vn -0.0228267089 -0.9775146 -0.209628433
vn -0.9966577 -0.0227605365 0.07845614
vn 0.052682858 -0.9859325 -0.158623859
vn -0.8232266 0.0356753 -0.566590965
vn -0.71379447 -0.3036433 -0.631108761
vn 0.200227827 -0.6277878 -0.752191
vn -0.038661886 -0.841561556 -0.5387758
vn 0.982556343 -0.0109541966 -0.185642287
vn 0.8907814 -0.4526705 0.03997306
vn -0.0225722287 -0.0213853288 -0.9995165
vn -0.0014282919 -0.9595908 0.2813956
vn -0.8940663 -0.4470719 0.0277883653
vn 0.769901752 4.58411E-07 0.638162434
vn -0.09804274 -0.706378639 0.7010113
vn 0.004898977 -0.870822251 0.491573572
vn 0.9800039 -3.61854944E-07 0.198978215
vn -0.0002937479 0.9851058 -0.171948835
vn -0.9458916 0.3243657 -0.008713264
vn 0.007039258 0.946412861 0.322882652
vn -0.00252529862 0.9742602 -0.225412175
vn 0.994183958 0.00101514731 -0.107690178
vn 0.998174 1.9295805E-05 0.0604040436
vn 0.03728198 0.988013566 -0.149797246
vn 0.997343063 0.005595047 -0.07263296
vn -0.800454855 0.330357283 -0.5001361
vn 0.197037518 0.623406947 -0.75666374
vn 0.7661728 0.00036080982 -0.6426345
vn -0.0012780684 0.956988931 0.290121675
vn 0.893339753 0.4470152 0.04605969
vn -0.0282773022 0.8412468 -0.5399113
vn 0.00486367336 0.8708374 0.491547137
vn -0.978942156 3.4536406E-05 0.2041379
vn -0.780053854 5.78683171E-07 0.6257124
vn -0.0980428457 0.7063769 0.701013
vn -0.896706641 0.441250741 0.0348566324
vn -0.9980476 0.000137128678 0.06245786
vn -0.995650232 0.0032560383 0.09311301
vn 0.945957 0.324108332 -0.0109158037
vn -0.9870777 0.007750854 -0.160054818
vn -0.9955041 6.468245E-05 -0.09471842
usemtl 04070035_part_0_material_0
f 1/1/1 2/2/2 3/3/3
f 1/1/1 4/4/4 5/5/5
f 5/5/5 6/6/6 1/1/1
f 5/5/5 2/2/2 6/6/6
f 3/3/3 4/4/4 1/1/1
f 7/7/7 8/8/8 9/9/9
f 9/9/9 10/10/10 7/7/7
f 8/8/8 11/11/11 12/12/12
f 12/12/12 9/9/9 8/8/8
f 7/7/7 10/10/10 13/13/13
f 13/13/13 14/14/14 7/7/7
f 14/14/14 13/13/13 12/12/12
f 12/12/12 11/11/11 14/14/14
f 15/15/15 16/16/16 17/17/17
f 16/16/16 18/18/18 19/19/19
f 16/16/16 19/19/19 20/20/20
f 16/16/16 20/20/20 21/21/21
f 15/15/15 18/18/18 16/16/16
f 15/15/15 17/17/17 22/22/22
f 22/22/22 23/23/23 15/15/15
f 23/23/23 22/22/22 24/24/24
f 24/24/24 25/25/25 23/23/23
f 24/24/24 26/26/26 27/27/27
f 25/25/25 24/24/24 27/27/27
f 25/25/25 27/27/27 28/28/28
f 29/29/29 28/28/28 30/30/30
f 31/31/31 32/32/32 33/33/33
f 32/32/32 31/31/31 34/34/34
f 35/35/35 36/36/36 31/31/31
f 37/37/37 38/38/38 39/39/39
f 39/39/39 40/40/40 37/37/37
f 41/41/41 42/42/42 20/20/20
f 43/43/43 22/22/22 42/42/42
f 41/41/41 43/43/43 42/42/42
f 18/18/18 44/44/44 19/19/19
f 45/45/45 24/24/24 22/22/22
f 22/22/22 43/43/43 45/45/45
f 25/25/25 46/46/46 44/44/44
f 44/44/44 23/23/23 25/25/25
f 45/45/45 47/47/47 48/48/48
f 48/48/48 26/26/26 24/24/24
f 45/45/45 48/48/48 24/24/24
f 28/28/28 49/49/49 46/46/46
f 46/46/46 25/25/25 28/28/28
f 50/50/50 51/51/51 47/47/47
f 52/52/52 53/53/53 54/54/54
f 32/32/32 34/34/34 54/54/54
f 52/52/52 55/55/55 53/53/53
f 56/56/56 55/55/55 57/57/57
f 57/57/57 58/58/58 56/56/56
f 55/55/55 56/56/56 39/39/39
f 39/39/39 38/38/38 55/55/55
f 59/59/59 52/52/52 54/54/54
f 53/53/53 33/33/33 32/32/32
f 32/32/32 54/54/54 53/53/53
f 33/33/33 35/35/35 31/31/31
f 42/42/42 17/17/17 16/16/16
f 42/42/42 16/16/16 21/21/21
f 42/42/42 21/21/21 20/20/20
f 19/19/19 41/41/41 20/20/20
f 60/60/60 61/61/61 62/62/62
f 63/63/63 64/64/64 65/65/65
f 65/65/65 66/66/66 63/63/63
f 67/67/67 68/68/68 63/63/63
f 63/63/63 66/66/66 67/67/67
f 65/65/65 64/64/64 69/69/69
f 69/69/69 68/68/68 67/67/67
f 70/70/70 71/71/71 64/64/64
f 64/64/64 63/63/63 70/70/70
f 68/68/68 72/72/72 70/70/70
f 70/70/70 63/63/63 68/68/68
f 71/71/71 73/73/73 69/69/69
f 69/69/69 64/64/64 71/71/71
f 69/69/69 73/73/73 72/72/72
f 72/72/72 68/68/68 69/69/69
f 70/70/70 74/74/74 75/75/75
f 75/75/75 71/71/71 70/70/70
f 76/76/76 74/74/74 70/70/70
f 70/70/70 72/72/72 76/76/76
f 71/71/71 75/75/75 77/77/77
f 77/77/77 73/73/73 71/71/71
f 77/77/77 76/76/76 72/72/72
f 72/72/72 73/73/73 77/77/77
f 78/78/78 79/79/79 80/80/80
f 81/81/81 82/82/82 83/83/83
f 84/84/84 81/81/81 83/83/83
f 84/84/84 83/83/83 80/80/80
f 78/78/78 85/85/85 79/79/79
f 85/85/85 83/83/83 82/82/82
f 82/82/82 86/86/86 85/85/85
f 87/87/87 88/88/88 89/89/89
f 89/89/89 90/90/90 87/87/87
f 91/91/91 88/88/88 87/87/87
f 87/87/87 92/92/92 91/91/91
f 89/89/89 93/93/93 90/90/90
f 93/93/93 91/91/91 92/92/92
f 94/94/94 87/87/87 90/90/90
f 90/90/90 95/95/95 94/94/94
f 92/92/92 87/87/87 94/94/94
f 94/94/94 96/96/96 92/92/92
f 95/95/95 90/90/90 93/93/93
f 93/93/93 97/97/97 95/95/95
f 93/93/93 92/92/92 96/96/96
f 96/96/96 97/97/97 93/93/93
f 94/94/94 95/95/95 75/75/75
f 75/75/75 74/74/74 94/94/94
f 76/76/76 96/96/96 94/94/94
f 94/94/94 74/74/74 76/76/76
f 95/95/95 97/97/97 77/77/77
f 77/77/77 75/75/75 95/95/95
f 77/77/77 97/97/97 96/96/96
f 96/96/96 76/76/76 77/77/77
f 66/66/66 65/65/65 98/98/98
f 98/98/98 99/99/99 66/66/66
f 67/67/67 66/66/66 99/99/99
f 99/99/99 100/100/100 67/67/67
f 98/98/98 65/65/65 69/69/69
f 69/69/69 101/101/101 98/98/98
f 69/69/69 67/67/67 100/100/100
f 100/100/100 101/101/101 69/69/69
f 102/102/102 99/99/99 98/98/98
f 98/98/98 103/103/103 102/102/102
f 100/100/100 99/99/99 102/102/102
f 102/102/102 104/104/104 100/100/100
f 103/103/103 98/98/98 101/101/101
f 101/101/101 105/105/105 103/103/103
f 101/101/101 100/100/100 104/104/104
f 104/104/104 105/105/105 101/101/101
f 89/89/89 88/88/88 81/81/81
f 81/81/81 106/106/106 89/89/89
f 88/88/88 91/91/91 82/82/82
f 82/82/82 81/81/81 88/88/88
f 93/93/93 89/89/89 106/106/106
f 106/106/106 86/86/86 93/93/93
f 82/82/82 91/91/91 93/93/93
f 93/93/93 86/86/86 82/82/82
f 85/85/85 78/78/78 83/83/83
f 83/83/83 78/78/78 80/80/80
f 85/85/85 86/86/86 106/106/106
f 106/106/106 79/79/79 85/85/85
f 106/106/106 81/81/81 84/84/84
f 106/106/106 84/84/84 80/80/80
f 79/79/79 106/106/106 80/80/80
f 107/107/107 105/105/105 104/104/104
f 104/104/104 108/108/108 107/107/107
f 60/60/60 62/62/62 108/108/108
f 107/107/107 62/62/62 61/61/61
f 109/109/109 110/110/110 111/111/111
f 109/109/109 112/112/112 113/113/113
f 113/113/113 114/114/114 109/109/109
f 113/113/113 112/112/112 111/111/111
f 110/110/110 109/109/109 114/114/114
f 115/115/115 116/116/116 117/117/117
f 115/115/115 118/118/118 119/119/119
f 119/119/119 120/120/120 115/115/115
f 119/119/119 118/118/118 117/117/117
f 116/116/116 115/115/115 120/120/120
f 39/39/39 56/56/56 58/58/58
f 58/58/58 40/40/40 39/39/39
f 7/7/7 14/14/14 11/11/11
f 11/11/11 8/8/8 7/7/7
f 12/12/12 13/13/13 10/10/10
f 10/10/10 9/9/9 12/12/12
f 26/26/26 48/48/48 47/47/47
f 27/27/27 26/26/26 47/47/47
f 27/27/27 47/47/47 49/49/49
f 28/28/28 27/27/27 49/49/49
f 22/22/22 17/17/17 42/42/42
f 18/18/18 15/15/15 23/23/23
f 23/23/23 44/44/44 18/18/18
f 43/43/43 41/41/41 19/19/19
f 19/19/19 44/44/44 43/43/43
f 47/47/47 45/45/45 46/46/46
f 46/46/46 49/49/49 47/47/47
f 45/45/45 43/43/43 44/44/44
f 44/44/44 46/46/46 45/45/45
f 34/34/34 31/31/31 36/36/36
f 54/54/54 34/34/34 36/36/36
f 59/59/59 54/54/54 36/36/36
f 40/40/40 58/58/58 57/57/57
f 57/57/57 37/37/37 40/40/40
f 55/55/55 52/52/52 59/59/59
f 36/36/36 37/37/37 57/57/57
f 36/36/36 35/35/35 37/37/37
f 59/59/59 36/36/36 57/57/57
f 57/57/57 55/55/55 59/59/59
f 37/37/37 35/35/35 33/33/33
f 55/55/55 38/38/38 53/53/53
f 38/38/38 37/37/37 33/33/33
f 38/38/38 33/33/33 53/53/53
f 108/108/108 102/102/102 60/60/60
f 60/60/60 102/102/102 61/61/61
f 108/108/108 104/104/104 102/102/102
f 102/102/102 103/103/103 61/61/61
f 108/108/108 62/62/62 107/107/107
f 103/103/103 105/105/105 107/107/107
f 107/107/107 61/61/61 103/103/103
usemtl 04070035_part_0_material_1
f 121/121/121 122/122/122 123/123/123
f 122/122/122 124/124/124 125/125/125
f 121/121/121 126/126/126 122/122/122
f 127/127/127 128/128/128 121/121/121
f 121/121/121 123/123/123 127/127/127
f 129/129/129 130/130/130 128/128/128
f 128/128/128 127/127/127 129/129/129
f 129/129/129 131/131/131 132/132/132
f 132/132/132 133/133/133 130/130/130
f 129/129/129 132/132/132 130/130/130
f 134/134/134 135/135/135 136/136/136
f 135/135/135 134/134/134 137/137/137
f 138/138/138 139/139/139 134/134/134
f 140/140/140 141/141/141 142/142/142
f 142/142/142 143/143/143 140/140/140
f 144/144/144 145/145/145 146/146/146
f 145/145/145 144/144/144 147/147/147
f 147/147/147 127/127/127 145/145/145
f 126/126/126 148/148/148 149/149/149
f 127/127/127 147/147/147 150/150/150
f 150/150/150 129/129/129 127/127/127
f 148/148/148 128/128/128 130/130/130
f 130/130/130 151/151/151 148/148/148
f 152/152/152 131/131/131 129/129/129
f 152/152/152 129/129/129 150/150/150
f 152/152/152 150/150/150 153/153/153
f 151/151/151 130/130/130 133/133/133
f 133/133/133 154/154/154 151/151/151
f 155/155/155 156/156/156 157/157/157
f 135/135/135 137/137/137 157/157/157
f 155/155/155 158/158/158 156/156/156
f 159/159/159 160/160/160 161/161/161
f 161/161/161 158/158/158 159/159/159
f 140/140/140 143/143/143 158/158/158
f 158/158/158 161/161/161 140/140/140
f 162/162/162 155/155/155 157/157/157
f 135/135/135 157/157/157 156/156/156
f 156/156/156 136/136/136 135/135/135
f 136/136/136 138/138/138 134/134/134
f 163/163/163 164/164/164 146/146/146
f 146/146/146 145/145/145 163/163/163
f 165/165/165 144/144/144 146/146/146
f 160/160/160 141/141/141 140/140/140
f 140/140/140 161/161/161 160/160/160
f 131/131/131 152/152/152 153/153/153
f 154/154/154 133/133/133 132/132/132
f 153/153/153 154/154/154 132/132/132
f 131/131/131 153/153/153 132/132/132
f 127/127/127 163/163/163 145/145/145
f 128/128/128 148/148/148 126/126/126
f 126/126/126 121/121/121 128/128/128
f 165/165/165 148/148/148 147/147/147
f 147/147/147 144/144/144 165/165/165
f 151/151/151 154/154/154 153/153/153
f 153/153/153 150/150/150 151/151/151
f 148/148/148 151/151/151 150/150/150
f 150/150/150 147/147/147 148/148/148
f 137/137/137 166/166/166 157/157/157
f 159/159/159 142/142/142 141/141/141
f 141/141/141 160/160/160 159/159/159
f 158/158/158 155/155/155 162/162/162
f 139/139/139 142/142/142 159/159/159
f 139/139/139 138/138/138 142/142/142
f 162/162/162 167/167/167 159/159/159
f 159/159/159 158/158/158 162/162/162
f 142/142/142 138/138/138 136/136/136
f 158/158/158 143/143/143 156/156/156
f 143/143/143 142/142/142 136/136/136
f 143/143/143 136/136/136 156/156/156
f 163/163/163 123/123/123 122/122/122
f 122/122/122 164/164/164 163/163/163
f 127/127/127 123/123/123 163/163/163
f 149/149/149 165/165/165 146/146/146
f 146/146/146 124/124/124 149/149/149
f 148/148/148 165/165/165 149/149/149
f 122/122/122 126/126/126 149/149/149
f 149/149/149 124/124/124 122/122/122
f 164/164/164 125/125/125 146/146/146
f 122/122/122 125/125/125 164/164/164
f 146/146/146 125/125/125 124/124/124
f 139/139/139 167/167/167 166/166/166
f 166/166/166 134/134/134 139/139/139
f 137/137/137 134/134/134 166/166/166
f 167/167/167 139/139/139 159/159/159
f 162/162/162 157/157/157 166/166/166
f 166/166/166 167/167/167 162/162/162
