mtllib 04070005.mtl
o 04070005_part_0
v 0.04510088 0.0499425046 0.200825721
v 0.0425626561 0.0714242458 0.169647634
v 0.0428172424 0.07089082 0.203232884
v 0.0535654649 0.0430570059 0.130135089
v 0.0595178381 0.0227045082 0.233656824
v 0.0595178343 0.0213738941 0.08623724
v 0.0595178381 -0.008734268 0.1985741
v 0.04715953 -0.126333088 0.154156923
v 0.0471595265 -0.08853632 0.111788467
v 0.0490895845 -0.09433298 0.157822624
v 0.0595178343 -0.033773765 0.08012661
v 0.0595178343 -0.0423858762 0.118810609
v 0.05271354 -0.06750449 0.1256372
v 0.05338237 0.03976276 -0.122751914
v 0.05951783 -0.035209123 0.00655120565
v 0.05951783 -0.0440540276 -0.08794465
v 0.05951783 -0.04838624 0.04389004
v 0.0533823743 0.0215724558 -0.155061737
v 0.03787998 0.05757794 -0.161536515
v 0.0595178269 -0.0216990672 -0.17405881
v 0.0595178269 -0.008384771 -0.176873192
v 0.0595178232 -0.0689409 -0.177297175
v 0.0595178269 -0.0552303866 -0.19279021
v 0.0595178232 -0.0413129963 -0.188934356
v 0.0378800668 0.0109971343 0.441985875
v 0.03788007 -0.03696382 0.4855541
v 0.0437009633 -0.0257818419 0.44233343
v 0.0519766 0.00635186257 0.344801456
v 0.0378800519 0.05111062 0.34418273
v 0.0378800258 -0.107206918 0.155446172
v 0.0490895845 -0.09433298 0.157822624
v 0.0595178381 -0.008734268 0.1985741
v 0.0286005214 -0.126333088 0.154156953
v 0.02860051 -0.08853632 0.111788467
v 0.0471595265 -0.08853632 0.111788467
v 0.04715953 -0.126333088 0.154156923
v 0.02860051 -0.08853632 0.111788467
v 0.0230465047 -0.06750449 0.1256372
v 0.05271354 -0.06750449 0.1256372
v 0.0471595265 -0.08853632 0.111788467
v 0.0230465047 -0.06750449 0.1256372
v 0.016242208 -0.0423858762 0.118810616
v 0.0595178343 -0.0423858762 0.118810609
v 0.05271354 -0.06750449 0.1256372
v 0.016242208 -0.0423858762 0.118810616
v 0.0162421968 -0.033773765 0.08012662
v 0.0595178343 -0.033773765 0.08012661
v 0.0595178343 -0.0423858762 0.118810609
v 0.0162421968 -0.033773765 0.08012662
v 0.01624219 -0.04838624 0.0438900441
v 0.05951783 -0.04838624 0.04389004
v 0.0595178343 -0.033773765 0.08012661
v 0.01624219 -0.04838624 0.0438900441
v 0.0162421763 -0.035209123 0.006551211
v 0.05951783 -0.035209123 0.00655120565
v 0.05951783 -0.04838624 0.04389004
v 0.05951783 -0.0440540276 -0.08794465
v 0.05951783 -0.035209123 0.00655120565
v 0.0162421763 -0.035209123 0.006551211
v 0.0162421521 -0.0440540276 -0.08794464
v 0.05951783 -0.0440540276 -0.08794465
v 0.0162421521 -0.0440540276 -0.08794464
v 0.0222064685 -0.07030431 -0.115942553
v 0.053553503 -0.07030431 -0.115942553
v 0.0222064685 -0.07030431 -0.115942553
v 0.0378799848 -0.101626694 -0.114326008
v 0.053553503 -0.07030431 -0.115942553
v 0.0222064648 -0.08153941 -0.133680448
v 0.053553503 -0.08153941 -0.133680463
v 0.0378799848 -0.101626694 -0.114326008
v 0.0162421335 -0.0689409 -0.177297175
v 0.0595178232 -0.0689409 -0.177297175
v 0.053553503 -0.08153941 -0.133680463
v 0.0222064648 -0.08153941 -0.133680448
v 0.0162421279 -0.0552303866 -0.1927902
v 0.0595178269 -0.0552303866 -0.19279021
v 0.0595178232 -0.0689409 -0.177297175
v 0.0162421335 -0.0689409 -0.177297175
v 0.0162421279 -0.0413129963 -0.188934356
v 0.0595178232 -0.0413129963 -0.188934356
v 0.0595178269 -0.0552303866 -0.19279021
v 0.0162421279 -0.0552303866 -0.1927902
v 0.01624213 -0.0216990672 -0.1740588
v 0.0595178269 -0.0216990672 -0.17405881
v 0.0595178232 -0.0413129963 -0.188934356
v 0.0162421279 -0.0413129963 -0.188934356
v 0.01624213 -0.0216990672 -0.1740588
v 0.01624213 -0.008384771 -0.176873177
v 0.0595178269 -0.008384771 -0.176873192
v 0.0595178269 -0.0216990672 -0.17405881
v 0.01624213 -0.008384771 -0.176873177
v 0.02237759 0.0215724558 -0.155061737
v 0.0533823743 0.0215724558 -0.155061737
v 0.0595178269 -0.008384771 -0.176873192
v 0.02237759 0.0215724558 -0.155061737
v 0.03787998 0.05757794 -0.161536515
v 0.0533823743 0.0215724558 -0.155061737
v 0.03787998 0.05757794 -0.161536515
v 0.022377599 0.03976276 -0.122751914
v 0.05338237 0.03976276 -0.122751914
v 0.05338237 0.03976276 -0.122751914
v 0.022377599 0.03976276 -0.122751914
v 0.0162421968 0.0213738941 0.0862372443
v 0.0595178343 0.0213738941 0.08623724
v 0.0221945774 0.0430570059 0.1301351
v 0.0535654649 0.0430570059 0.130135089
v 0.0595178343 0.0213738941 0.08623724
v 0.0162421968 0.0213738941 0.0862372443
v 0.0331974 0.0714242458 0.169647634
v 0.0425626561 0.0714242458 0.169647634
v 0.0535654649 0.0430570059 0.130135089
v 0.0221945774 0.0430570059 0.1301351
v 0.0329428241 0.07089082 0.203232884
v 0.0428172424 0.07089082 0.203232884
v 0.0425626561 0.0714242458 0.169647634
v 0.0331974 0.0714242458 0.169647634
v 0.0306591857 0.0499425046 0.200825721
v 0.04510088 0.0499425046 0.200825721
v 0.0428172424 0.07089082 0.203232884
v 0.0329428241 0.07089082 0.203232884
v 0.037880078 -0.112588793 0.5148939
v 0.0378800668 -0.06966478 0.448488057
v 0.0378800519 -0.05073952 0.345420182
v 0.037880037 -0.069869794 0.238735572
v 0.0378800258 -0.107206918 0.155446172
v 0.0306591857 0.0499425046 0.200825721
v 0.03788004 0.05606245 0.27250427
v 0.04510088 0.0499425046 0.200825721
v 0.03788004 0.05606245 0.27250427
v 0.0221945774 0.0430570059 0.1301351
v 0.016242234 0.0227045082 0.233656824
v 0.0306591857 0.0499425046 0.200825721
v 0.0331974 0.0714242458 0.169647634
v 0.0329428241 0.07089082 0.203232884
v 0.0162421968 0.0213738941 0.0862372443
v 0.0162422266 -0.008734268 0.1985741
v 0.02860051 -0.08853632 0.111788467
v 0.0286005214 -0.126333088 0.154156953
v 0.0266704671 -0.09433298 0.157822624
v 0.0162421968 -0.033773765 0.08012662
v 0.016242208 -0.0423858762 0.118810616
v 0.0230465047 -0.06750449 0.1256372
v 0.01624219 -0.04838624 0.0438900441
v 0.0162421763 -0.035209123 0.006551211
v 0.022377599 0.03976276 -0.122751914
v 0.0162421521 -0.0440540276 -0.08794464
v 0.02237759 0.0215724558 -0.155061737
v 0.01624213 -0.008384771 -0.176873177
v 0.01624213 -0.0216990672 -0.1740588
v 0.0162421279 -0.0413129963 -0.188934356
v 0.0162421279 -0.0552303866 -0.1927902
v 0.0162421335 -0.0689409 -0.177297175
v 0.03205917 -0.0257818419 0.44233343
v 0.0237835068 0.00635186257 0.344801456
v 0.0266704671 -0.09433298 0.157822624
v 0.0162422266 -0.008734268 0.1985741
v 0.053553503 -0.07030431 -0.115942553
v 0.0378799848 -0.101626694 -0.114326008
v 0.053553503 -0.08153941 -0.133680463
v 0.0222064648 -0.08153941 -0.133680448
v 0.0222064685 -0.07030431 -0.115942553
v 0.0286005214 -0.126333088 0.154156953
v 0.04715953 -0.126333088 0.154156923
v 0.0490895845 -0.09433298 0.157822624
v 0.0266704671 -0.09433298 0.157822624
v 0.0378800668 0.0227618665 0.451291323
v 0.0378800742 -0.029190762 0.498382956
v 0.0586633235 -0.0257200561 0.443393618
v 0.0669112653 0.0071553397 0.3459461
v 0.03788005 0.06539509 0.348760277
v 0.03788007 -0.1241799 0.5244147
v 0.0378800668 -0.08368752 0.443162382
v 0.0378800519 -0.06570327 0.3464623
v 0.0378800333 -0.08379722 0.244305745
v 0.0743032 0.0241467636 0.2319444
v 0.07390135 -0.0122486977 0.19596152
v 0.0378800258 -0.1157658 0.147280887
v 0.0251550432 0.0580462366 0.190146089
v 0.03788004 0.07103736 0.273371518
v 0.05060502 0.0580462366 0.190146089
v 0.05060502 0.0580462366 0.190146089
v 0.03788004 0.07103736 0.273371518
v 0.0170968119 -0.0257200561 0.443393618
v 0.008848844 0.00715534063 0.345946133
v 0.001456868 0.0241467562 0.2319444
v 0.0018587152 -0.0122486977 0.195961535
v 0.0251550432 0.0580462366 0.190146089
vt 0.447075754 0.920619667
vt 0.489471853 0.982575953
vt 0.4438025 0.981037438
vt 0.5432011 0.9007612
vt 0.402431935 0.842061758
vt 0.6028936 0.838224053
vt 0.450137526 0.7513881
vt 0.5105361 0.412217379
vt 0.568148851 0.5212284
vt 0.505551457 0.5045102
vt 0.611202836 0.6791709
vt 0.5586002 0.6543324
vt 0.54931736 0.581887066
vt 0.887423158 0.8662506
vt 0.7112509 0.675031066
vt 0.840092063 0.624511659
vt 0.6604774 0.6370265
vt 0.9313581 0.813787162
vt 0.940162539 0.9176319
vt 0.9571904 0.68898654
vt 0.9610174 0.7273866
vt 0.961594 0.552734733
vt 0.9826615 0.5922775
vt 0.9774183 0.632417262
vt 0.119145326 0.8082961
vt 0.05990108 0.6699704
vt 0.1186727 0.702220738
vt 0.251297057 0.7948985
vt 0.2521384 0.92398876
vt 0.599206 0.46835047
vt 0.62580353 0.4206159
vt 0.824884236 0.376208365
vt 0.732468963 0.308616281
vt 0.6332217 0.308616281
vt 0.6332217 0.241526723
vt 0.732468963 0.241526723
vt 0.6332217 0.308616281
vt 0.5885851 0.328694046
vt 0.5885851 0.221449018
vt 0.6332217 0.241526723
vt 0.5885851 0.328694046
vt 0.5418659 0.3532911
vt 0.5418659 0.196851969
vt 0.5885851 0.221449018
vt 0.5418659 0.3532911
vt 0.474133819 0.3532911
vt 0.474133819 0.196851969
vt 0.5418659 0.196851969
vt 0.474133819 0.3532911
vt 0.406998217 0.3532911
vt 0.4069981 0.196851969
vt 0.474133819 0.196851969
vt 0.406998217 0.3532911
vt 0.339076638 0.3532911
vt 0.339076638 0.196851969
vt 0.4069981 0.196851969
vt 0.174534783 0.196851969
vt 0.339076638 0.196851969
vt 0.339076638 0.3532911
vt 0.174534783 0.3532911
vt 0.174534783 0.196851969
vt 0.174534783 0.3532911
vt 0.10735593 0.3317306
vt 0.10735593 0.2184127
vt 0.10735593 0.3317306
vt 0.0508663841 0.27507174
vt 0.10735593 0.2184127
vt 0.3982048 0.51862663
vt 0.3982048 0.407232
vt 0.4463373 0.462929249
vt 0.3217983 0.5398213
vt 0.3217983 0.38603723
vt 0.3982048 0.407232
vt 0.3982048 0.51862663
vt 0.286256433 0.539821446
vt 0.286256433 0.38603723
vt 0.3217983 0.38603723
vt 0.3217983 0.5398213
vt 0.260779262 0.539821446
vt 0.260779262 0.38603723
vt 0.286256433 0.38603723
vt 0.286256433 0.539821446
vt 0.218030527 0.539821446
vt 0.218030527 0.38603723
vt 0.260779262 0.38603723
vt 0.260779262 0.539821446
vt 0.218030527 0.539821446
vt 0.193987086 0.539821446
vt 0.193987086 0.38603723
vt 0.218030527 0.38603723
vt 0.193987086 0.539821446
vt 0.1295708 0.5180186
vt 0.1295708 0.407840133
vt 0.193987086 0.38603723
vt 0.1295708 0.5180186
vt 0.0648971647 0.462929249
vt 0.1295708 0.407840133
vt 0.03007423 0.09088051
vt 0.09819479 0.03892851
vt 0.09819479 0.1428327
vt 0.09819479 0.1428327
vt 0.09819479 0.03892851
vt 0.429203272 0.0183671713
vt 0.429203272 0.163393974
vt 0.5074458 0.03831476
vt 0.5074458 0.143445849
vt 0.429203272 0.163393974
vt 0.429203272 0.0183671713
vt 0.5858147 0.0751878
vt 0.5858147 0.106572866
vt 0.5074458 0.143445849
vt 0.5074458 0.03831476
vt 0.6388879 0.07433468
vt 0.6388879 0.107426047
vt 0.5858147 0.106572866
vt 0.5858147 0.0751878
vt 0.6740762 0.0666818
vt 0.6740762 0.115079284
vt 0.6388879 0.107426047
vt 0.6388879 0.07433468
vt 0.0200047866 0.4518578
vt 0.110303655 0.5756563
vt 0.250455767 0.6302393
vt 0.395525873 0.5750652
vt 0.508783 0.4673798
vt 0.6740762 0.0666818
vt 0.787790656 0.09088051
vt 0.6740762 0.115079284
vt 0.34960705 0.9382705
vt 0.5432011 0.9007612
vt 0.402431935 0.842061758
vt 0.447075754 0.920619667
vt 0.489471853 0.982575953
vt 0.4438025 0.981037438
vt 0.6028936 0.838224053
vt 0.450137526 0.7513881
vt 0.568148851 0.5212284
vt 0.5105361 0.412217379
vt 0.505551457 0.5045102
vt 0.611202836 0.6791709
vt 0.5586002 0.6543324
vt 0.54931736 0.581887066
vt 0.6604774 0.6370265
vt 0.7112509 0.675031066
vt 0.887423158 0.8662506
vt 0.840092063 0.624511659
vt 0.9313581 0.813787162
vt 0.9610174 0.7273866
vt 0.9571904 0.68898654
vt 0.9774183 0.632417262
vt 0.9826615 0.5922775
vt 0.961594 0.552734733
vt 0.1186727 0.702220738
vt 0.251297057 0.7948985
vt 0.62580353 0.516085148
vt 0.824884236 0.5604927
vt 0.8781637 0.548802257
vt 0.8759656 0.458464384
vt 0.9022838 0.516399
vt 0.9022838 0.516399
vt 0.8781637 0.548802257
vt 0.732468963 0.308616281
vt 0.732468963 0.241526723
vt 0.7904497 0.234549463
vt 0.7904497 0.3155936
vt 0.7524564 0.194198251
vt 0.486595035 0.06945574
vt 0.504355967 0.215118647
vt 0.672591865 0.47325027
vt 0.970626831 0.465795755
vt 0.0004994571 0.0004994869
vt 0.207714379 0.2157312
vt 0.299746633 0.47188288
vt 0.207153022 0.742488444
vt 0.7595434 0.7752328
vt 0.573294044 0.870548844
vt 0.0435576141 0.999500453
vt 0.93302 0.885953546
vt 0.9995005 0.6654953
vt 0.93302 0.885953546
vt 0.93302 0.885953546
vt 0.9995005 0.6654953
vt 0.504355967 0.215118647
vt 0.672591865 0.4732502
vt 0.7595434 0.7752328
vt 0.573294044 0.870548844
vt 0.93302 0.885953546
vn 0.918673456 0.3925075 0.0444633365
vn 0.974299431 0.21457994 0.0685276762
vn 0.9940217 0.109028034 -0.005803326
vn 0.9562506 0.291989982 0.0180739537
vn 0.982717156 0.173126116 0.0655312762
vn 0.999147 0.0409533344 -0.005298438
vn 0.98805064 -0.124156527 0.09132978
vn 0.997322 -0.05457529 -0.0486865342
vn 0.985589862 -0.157700986 -0.0611803047
vn 0.8590591 -0.311043471 0.4065334
vn 1 -5.03480369E-10 -7.19512343E-08
vn 0.9972137 -0.07422439 0.00744921342
vn 0.957708061 -0.264704555 -0.112812944
vn 0.986778259 0.14351806 -0.07530721
vn 0.999340057 0.032741338 -0.0157322716
vn 0.9997111 0.0189538337 0.0147796953
vn 1 -2.91451556E-08 -3.99582625E-08
vn 0.9800969 0.191282645 -0.0531135947
vn -8.55754436E-08 0.871390939 -0.4905893
vn 1 -6.94503E-08 -6.128898E-08
vn 0.9952734 0.09013275 0.03615222
vn 0.9987012 -0.0490812361 0.0136703318
vn 1 1.614665E-07 3.83338659E-07
vn 1 -1.90271319E-08 3.531572E-08
vn 1.14124639E-07 0.784315467 0.620362163
vn -2.1755497E-07 0.455968022 0.8899962
vn 0.9967948 0.0156917013 0.07844617
vn 0.99656105 0.03739016 0.0739463344
vn 8.516472E-08 0.952298 0.3051698
vn -4.4999954E-08 -0.62497133 0.7806477
vn 0.8590591 -0.311043471 0.4065334
vn 0.98805064 -0.124156527 0.09132978
vn 0 -0.7462197 -0.6656998
vn 0 -0.7462197 -0.6656998
vn 0 -0.7462197 -0.6656998
vn -1.06899063E-06 -0.746219456 -0.6657
vn 0 0.549949169 -0.835198164
vn 0 0.549949169 -0.835198164
vn 0 0.549949169 -0.835198164
vn 0 0.549949169 -0.835198164
vn -1.66139415E-07 -0.262261182 -0.964996934
vn -1.66139415E-07 -0.262261182 -0.964996934
vn -1.66139415E-07 -0.262261182 -0.964996934
vn 0 -0.2622614 -0.9649969
vn -3.74128426E-08 -0.976103246 -0.21730718
vn -3.74128426E-08 -0.976103246 -0.21730718
vn -3.74128426E-08 -0.976103246 -0.21730718
vn -3.74128533E-08 -0.976103246 -0.21730718
vn 3.219406E-08 -0.927433 0.373989254
vn 3.219406E-08 -0.927433 0.373989254
vn 3.219406E-08 -0.927433 0.373989254
vn 6.438813E-08 -0.927433 0.373989284
vn -3.93904322E-08 -0.9430006 -0.332791
vn -3.93904322E-08 -0.9430006 -0.332791
vn -3.93904322E-08 -0.9430006 -0.332791
vn -2.86475963E-08 -0.9430006 -0.332791
vn 1.10307594E-08 -0.995648 0.09319363
vn 1.10307594E-08 -0.995648 0.09319363
vn 1.10307594E-08 -0.995648 0.09319363
vn 1.60447318E-08 -0.995648 0.09319363
vn 1.1775645E-07 -0.729508042 0.683972239
vn 1.1775645E-07 -0.729508042 0.683972239
vn 1.1775645E-07 -0.729508042 0.683972239
vn 0 -0.729508 0.6839723
vn 0 0.0515413024 0.9986709
vn 0 0.0515413024 0.9986709
vn 0 0.0515413024 0.9986709
vn -3.4231735E-07 -0.6938488 -0.7201207
vn -3.4231735E-07 -0.6938488 -0.7201207
vn -3.4231735E-07 -0.6938488 -0.7201207
vn 0 -0.9607252 -0.2775015
vn 0 -0.9607252 -0.2775015
vn 0 -0.9607252 -0.2775015
vn -1.31913353E-07 -0.960725248 -0.2775014
vn -2.28192633E-07 -0.748873353 -0.66271317
vn -2.28192633E-07 -0.748873353 -0.66271317
vn -2.28192633E-07 -0.748873353 -0.66271317
vn 0 -0.748873055 -0.6627135
vn 0 0.266995341 -0.9636978
vn 0 0.266995341 -0.9636978
vn 0 0.266995341 -0.9636978
vn -3.31831046E-07 0.2669944 -0.9636981
vn -2.743523E-07 0.6042837 -0.796769261
vn -2.743523E-07 0.6042837 -0.796769261
vn -2.743523E-07 0.6042837 -0.796769261
vn 0 0.6042841 -0.796768963
vn -3.36886842E-07 -0.206810638 -0.978381
vn -3.36886842E-07 -0.206810638 -0.978381
vn -3.36886842E-07 -0.206810638 -0.978381
vn -3.36886842E-07 -0.206810638 -0.978381
vn 0 0.5886017 -0.808423162
vn 0 0.5886017 -0.808423162
vn 0 0.5886017 -0.808423162
vn -2.78365064E-07 0.588601947 -0.808423042
vn 0 -0.176988587 -0.9842129
vn 0 -0.176988587 -0.9842129
vn 0 -0.176988587 -0.9842129
vn 0 0.908719242 0.41740787
vn 0 0.908719242 0.41740787
vn 0 0.908719242 0.41740787
vn 0 0.996151268 0.0876509249
vn 0 0.996151268 0.0876509249
vn 0 0.996151268 0.0876509249
vn 1.50904835E-08 0.996151268 0.08765093
vn -2.10360753E-07 0.896588266 -0.442865074
vn -2.10360753E-07 0.896588266 -0.442865074
vn -2.10360753E-07 0.896588266 -0.442865074
vn -7.624616E-08 0.8965883 -0.442864984
vn 0 0.812330961 -0.583196759
vn 0 0.812330961 -0.583196759
vn 0 0.812330961 -0.583196759
vn -2.770183E-07 0.8123309 -0.5831968
vn 0 0.9998739 0.0158806928
vn 0 0.9998739 0.0158806928
vn 0 0.9998739 0.0158806928
vn 0 0.9998739 0.0158806928
vn 0 -0.114158414 0.993462563
vn 0 -0.114158414 0.993462563
vn 0 -0.114158414 0.993462563
vn 0 -0.114158414 0.993462563
vn 9.240465E-07 -0.772740841 0.634721637
vn -9.415069E-08 -0.898413539 -0.439150423
vn -1.45065144E-07 -0.9975837 0.06947531
vn 9.78687638E-08 -0.9284949 0.3713452
vn -4.4999954E-08 -0.62497133 0.7806477
vn 0 0.9963749 -0.0850709
vn 0 0.9963749 -0.0850709
vn 0 0.9963749 -0.0850709
vn -2.98286729E-08 0.9973645 0.0725536
vn -0.9562506 0.291989923 0.0180742331
vn -0.982717156 0.173126131 0.06553153
vn -0.9186734 0.392507523 0.0444636159
vn -0.974299431 0.21458 0.068528
vn -0.9940217 0.109028086 -0.005802994
vn -0.999147 0.0409532972 -0.00529814046
vn -0.9880506 -0.124156557 0.09133007
vn -0.985589862 -0.157700941 -0.0611799844
vn -0.997322 -0.0545753725 -0.04868622
vn -0.8590591 -0.311043382 0.4065335
vn -1 -3.25062679E-08 2.35638467E-07
vn -0.9972137 -0.074224405 0.00744948862
vn -0.9577081 -0.264704466 -0.112812661
vn -1 -6.996036E-08 2.91188684E-07
vn -0.999340057 0.0327413268 -0.01573197
vn -0.9867783 0.143518031 -0.075307
vn -0.9997111 0.018953925 0.0147799011
vn -0.9800969 0.191282645 -0.0531133674
vn -0.995273352 0.09013282 0.0361525454
vn -1 -1.23315873E-08 2.5635822E-07
vn -1 -9.111898E-08 2.49902683E-07
vn -1 -8.025008E-08 2.896572E-07
vn -0.9987012 -0.0490813 0.0136705646
vn -0.9967948 0.0156916976 0.0784464255
vn -0.99656105 0.0373901539 0.07394663
vn -0.8590591 -0.311043382 0.4065335
vn -0.9880506 -0.124156557 0.09133007
vn 0.79934907 -0.5076098 0.3215173
vn 3.54241536E-07 -0.8447955 0.535089254
vn 0.9343568 -0.321059257 0.15459083
vn -0.9343568 -0.321059167 0.154591113
vn -0.799348652 -0.5076101 0.321517885
vn 1.59538092E-06 -0.113808565 0.9935027
vn 1.59538092E-06 -0.113808565 0.9935027
vn 1.59538092E-06 -0.113808565 0.9935027
vn 0 -0.113807552 0.9935028
vn 6.807785E-08 0.8241068 0.566434443
vn 1.41942081E-07 0.42306447 0.906099558
vn 0.9891877 0.02353812 0.144753814
vn 0.9953254 0.0516004078 0.08163836
vn -2.89882216E-08 0.9602157 0.2792594
vn 1.70620368E-07 -0.7724205 0.6351114
vn 3.37351125E-08 -0.938267 -0.34591198
vn 2.19749925E-08 -0.9995059 -0.0314324126
vn -2.70610734E-08 -0.9472572 0.3204742
vn 0.9815101 0.161648721 0.102506667
vn 0.92290014 -0.3155948 0.220579371
vn 1.93902849E-07 -0.9497731 0.3129394
vn 0 0.9880353 -0.154227957
vn 0 0.9880353 -0.154227957
vn 0 0.9880353 -0.154227957
vn 0.801827967 0.596829534 0.0294352267
vn 1.90068654E-08 0.997688234 0.06795682
vn -0.989187658 0.0235381 0.144754037
vn -0.9953253 0.05160039 0.08163865
vn -0.9815101 0.161648676 0.102506906
vn -0.92290014 -0.3155947 0.22057952
vn -0.801827967 0.5968295 0.0294353981
usemtl 04070005_part_0_material_0
f 1/1/1 2/2/2 3/3/3
f 4/4/4 2/2/2 1/1/1
f 4/4/4 1/1/1 5/5/5
f 6/6/6 4/4/4 5/5/5
f 5/5/5 7/7/7 6/6/6
f 8/8/8 9/9/9 10/10/10
f 6/6/6 7/7/7 11/11/11
f 7/7/7 10/10/10 12/12/12
f 11/11/11 7/7/7 12/12/12
f 10/10/10 9/9/9 13/13/13
f 12/12/12 10/10/10 13/13/13
f 14/14/14 6/6/6 15/15/15
f 15/15/15 16/16/16 14/14/14
f 6/6/6 11/11/11 17/17/17
f 15/15/15 6/6/6 17/17/17
f 18/18/18 19/19/19 14/14/14
f 16/16/16 20/20/20 21/21/21
f 21/21/21 18/18/18 16/16/16
f 22/22/22 23/23/23 24/24/24
f 24/24/24 20/20/20 16/16/16
f 22/22/22 24/24/24 16/16/16
f 25/25/25 26/26/26 27/27/27
f 28/28/28 29/29/29 25/25/25
f 25/25/25 27/27/27 28/28/28
f 30/30/30 31/31/31 32/32/32
f 33/33/33 34/34/34 35/35/35
f 35/35/35 36/36/36 33/33/33
f 37/37/37 38/38/38 39/39/39
f 39/39/39 40/40/40 37/37/37
f 41/41/41 42/42/42 43/43/43
f 43/43/43 44/44/44 41/41/41
f 45/45/45 46/46/46 47/47/47
f 47/47/47 48/48/48 45/45/45
f 49/49/49 50/50/50 51/51/51
f 51/51/51 52/52/52 49/49/49
f 53/53/53 54/54/54 55/55/55
f 55/55/55 56/56/56 53/53/53
f 57/57/57 58/58/58 59/59/59
f 57/57/57 59/59/59 60/60/60
f 61/61/61 62/62/62 63/63/63
f 61/61/61 63/63/63 64/64/64
f 65/65/65 66/66/66 67/67/67
f 68/68/68 69/69/69 70/70/70
f 71/71/71 72/72/72 73/73/73
f 73/73/73 74/74/74 71/71/71
f 75/75/75 76/76/76 77/77/77
f 77/77/77 78/78/78 75/75/75
f 79/79/79 80/80/80 81/81/81
f 81/81/81 82/82/82 79/79/79
f 83/83/83 84/84/84 85/85/85
f 85/85/85 86/86/86 83/83/83
f 87/87/87 88/88/88 89/89/89
f 89/89/89 90/90/90 87/87/87
f 91/91/91 92/92/92 93/93/93
f 93/93/93 94/94/94 91/91/91
f 95/95/95 96/96/96 97/97/97
f 98/98/98 99/99/99 100/100/100
f 101/101/101 102/102/102 103/103/103
f 103/103/103 104/104/104 101/101/101
f 105/105/105 106/106/106 107/107/107
f 107/107/107 108/108/108 105/105/105
f 109/109/109 110/110/110 111/111/111
f 111/111/111 112/112/112 109/109/109
f 113/113/113 114/114/114 115/115/115
f 115/115/115 116/116/116 113/113/113
f 117/117/117 118/118/118 119/119/119
f 119/119/119 120/120/120 117/117/117
f 121/121/121 122/122/122 27/27/27
f 123/123/123 28/28/28 27/27/27
f 27/27/27 122/122/122 123/123/123
f 123/123/123 124/124/124 5/5/5
f 5/5/5 28/28/28 123/123/123
f 7/7/7 5/5/5 124/124/124
f 124/124/124 125/125/125 7/7/7
f 126/126/126 127/127/127 128/128/128
f 5/5/5 1/1/1 129/129/129
f 5/5/5 129/129/129 29/29/29
f 5/5/5 29/29/29 28/28/28
f 26/26/26 121/121/121 27/27/27
f 130/130/130 131/131/131 132/132/132
f 133/133/133 132/132/132 134/134/134
f 130/130/130 132/132/132 133/133/133
f 131/131/131 130/130/130 135/135/135
f 135/135/135 136/136/136 131/131/131
f 137/137/137 138/138/138 139/139/139
f 136/136/136 135/135/135 140/140/140
f 139/139/139 136/136/136 141/141/141
f 136/136/136 140/140/140 141/141/141
f 137/137/137 139/139/139 142/142/142
f 139/139/139 141/141/141 142/142/142
f 143/143/143 140/140/140 135/135/135
f 144/144/144 143/143/143 135/135/135
f 145/145/145 146/146/146 144/144/144
f 144/144/144 135/135/135 145/145/145
f 147/147/147 146/146/146 145/145/145
f 148/148/148 149/149/149 146/146/146
f 146/146/146 147/147/147 148/148/148
f 150/150/150 151/151/151 152/152/152
f 150/150/150 152/152/152 146/146/146
f 150/150/150 146/146/146 149/149/149
f 26/26/26 25/25/25 153/153/153
f 25/25/25 29/29/29 154/154/154
f 154/154/154 153/153/153 25/25/25
f 155/155/155 30/30/30 156/156/156
f 122/122/122 121/121/121 153/153/153
f 153/153/153 154/154/154 123/123/123
f 123/123/123 122/122/122 153/153/153
f 131/131/131 124/124/124 123/123/123
f 123/123/123 154/154/154 131/131/131
f 124/124/124 131/131/131 136/136/136
f 136/136/136 125/125/125 124/124/124
f 129/129/129 132/132/132 131/131/131
f 29/29/29 129/129/129 131/131/131
f 29/29/29 131/131/131 154/154/154
f 121/121/121 26/26/26 153/153/153
f 14/14/14 16/16/16 18/18/18
f 145/145/145 19/19/19 147/147/147
f 157/157/157 158/158/158 159/159/159
f 160/160/160 158/158/158 161/161/161
f 159/159/159 22/22/22 16/16/16
f 16/16/16 157/157/157 159/159/159
f 146/146/146 152/152/152 160/160/160
f 160/160/160 161/161/161 146/146/146
f 162/162/162 163/163/163 164/164/164
f 164/164/164 165/165/165 162/162/162
usemtl 04070005_part_0_material_1
f 166/166/166 167/167/167 168/168/168
f 169/169/169 170/170/170 166/166/166
f 166/166/166 168/168/168 169/169/169
f 171/171/171 172/172/172 168/168/168
f 173/173/173 169/169/169 168/168/168
f 168/168/168 172/172/172 173/173/173
f 173/173/173 174/174/174 175/175/175
f 175/175/175 169/169/169 173/173/173
f 176/176/176 175/175/175 174/174/174
f 174/174/174 177/177/177 176/176/176
f 178/178/178 179/179/179 180/180/180
f 175/175/175 181/181/181 182/182/182
f 175/175/175 182/182/182 170/170/170
f 175/175/175 170/170/170 169/169/169
f 167/167/167 171/171/171 168/168/168
f 167/167/167 166/166/166 183/183/183
f 166/166/166 170/170/170 184/184/184
f 184/184/184 183/183/183 166/166/166
f 172/172/172 171/171/171 183/183/183
f 183/183/183 184/184/184 173/173/173
f 173/173/173 172/172/172 183/183/183
f 185/185/185 174/174/174 173/173/173
f 173/173/173 184/184/184 185/185/185
f 174/174/174 185/185/185 186/186/186
f 186/186/186 177/177/177 174/174/174
f 182/182/182 187/187/187 185/185/185
f 170/170/170 182/182/182 185/185/185
f 170/170/170 185/185/185 184/184/184
f 171/171/171 167/167/167 183/183/183
