mtllib 10100007.mtl
o 10100007_part_0
v 0.176318213 0.7556176 -0.0409202352
v 0.0620688349 0.8096836 -0.0614686571
v 0.06206881 0.8096836 5.55429764E-08
v 0.187005043 0.7505603 1.04681938E-07
v -0.0521805659 0.8637496 -0.0409203246
v -0.06286742 0.868806958 6.40401732E-09
v 0.0346955359 0.7518398 -0.061468672
v -0.0795538649 0.8059058 -0.0409203358
v -0.0521805659 0.8637496 -0.0409203246
v 0.0620688349 0.8096836 -0.0614686571
v 0.148944914 0.6977738 -0.0409202464
v 0.176318213 0.7556176 -0.0409202352
v -0.09024072 0.810963154 -6.64858835E-09
v -0.06286742 0.868806958 6.40401732E-09
v 0.159631744 0.692716539 9.162933E-08
v 0.187005043 0.7505603 1.04681938E-07
v -0.09024072 0.810963154 -6.64858835E-09
v -0.0795538649 0.8059058 -0.0409203358
v 0.0346955359 0.7518398 -0.061468672
v 0.148944914 0.6977738 -0.0409202464
v 0.159631744 0.692716539 9.162933E-08
v 0.199577615 1.0567584 1.19707437E-07
v 0.249257922 1.01200414 1.38561262E-07
v 0.187008515 1.0414623 -0.05232014
v 0.124759056 1.07092047 8.9594316E-08
v 0.108709119 0.784232736 7.37780539E-08
v 0.06033908 0.8071228 -0.0430481359
v 0.0119689927 0.8300129 3.57289665E-08
v -0.0587022677 0.79603827 5.755873E-09
v 0.0350217335 0.7516855 -0.0370790847
v -0.169553742 0.320231259 -5.490326E-08
v 0.128093287 0.7076414 7.922487E-08
v 0.176318184 0.7556176 0.04092044
v 0.06206879 0.8096836 0.0614687763
v -0.0521806 0.8637496 0.04092035
v 0.03469549 0.7518398 0.06146876
v -0.0521806 0.8637496 0.04092035
v -0.0795538947 0.8059058 0.0409203358
v 0.06206879 0.8096836 0.0614687763
v 0.148944885 0.6977738 0.04092043
v 0.176318184 0.7556176 0.04092044
v 0.03469549 0.7518398 0.06146876
v -0.0795538947 0.8059058 0.0409203358
v 0.148944885 0.6977738 0.04092043
v 0.18700847 1.0414623 0.0523203649
v 0.06033905 0.8071228 0.04304825
v 0.0350217074 0.751685441 0.03707917
vt 0.4810537 0.6341698
vt 0.630965531 0.6097985
vt 0.630965531 0.682703137
vt 0.467031121 0.682703137
vt 0.780877233 0.6341698
vt 0.79489994 0.682703137
vt 0.9733641 0.345818758
vt 0.9733641 0.6019705
vt 0.843676 0.6019705
vt 0.843676 0.345818758
vt 0.9733641 0.08966702
vt 0.843676 0.08966702
vt 0.9733641 0.6583558
vt 0.843676 0.6583558
vt 0.9733641 0.0294671059
vt 0.843676 0.0294671059
vt 0.467031121 0.8494691
vt 0.4810537 0.800935745
vt 0.630965531 0.7765645
vt 0.780877233 0.800935745
vt 0.79489994 0.8494691
vt 0.592506766 0.563721538
vt 0.478023022 0.514319241
vt 0.592506766 0.488326132
vt 0.7073637 0.514057755
vt 0.483811647 0.04562044
vt 0.592506766 0.0196345448
vt 0.7004012 0.04537344
vt 0.4520146 0.9703487
vt 0.235320464 0.9474096
vt 0.234882265 0.0184144378
vt 0.0201347731 0.970841169
vt 0.4810537 0.731236458
vt 0.630965531 0.7556077
vt 0.780877233 0.731236458
vt 0.9733641 0.345818758
vt 0.843676 0.6019705
vt 0.9733641 0.6019705
vt 0.843676 0.345818758
vt 0.9733641 0.08966702
vt 0.843676 0.08966702
vt 0.630965531 0.9223738
vt 0.4810537 0.8980024
vt 0.780877233 0.8980024
vt 0.592506766 0.488326132
vt 0.592506766 0.0196345448
vt 0.235320464 0.9474096
vn 0.427749455 0.903897345 1.80210364E-07
vn 0.4277495 0.9038973 2.22275176E-07
vn 0.427749485 0.903897345 2.071407E-07
vn 0.427749455 0.903897345 2.00778047E-07
vn 0.4277495 0.9038973 2.779714E-07
vn 0.4277495 0.9038973 1.96673355E-07
vn -0.0489102751 0.0231459532 -0.998535
vn -0.726322234 0.3437161 -0.5952438
vn -0.447134942 0.211596921 -0.8690783
vn 0.04891112 -0.0231458731 -0.9985349
vn 0.447135568 -0.211596832 -0.869078
vn 0.726322651 -0.343716025 -0.5952434
vn -0.9038973 0.4277495 -3.1021338E-07
vn -0.903897345 0.427749485 -3.48990056E-07
vn 0.903897345 -0.4277495 2.869474E-07
vn 0.903897345 -0.4277495 2.94702716E-07
vn -0.4277495 -0.903897345 -2.172406E-07
vn -0.4277495 -0.9038973 -2.698948E-07
vn -0.4277495 -0.9038973 -2.76373527E-07
vn -0.427749485 -0.903897345 -2.07175759E-07
vn -0.427749485 -0.903897345 -1.86623424E-07
vn 0.442284167 0.896874964 4.27004323E-07
vn 0.949897051 0.3125629 5.69698443E-07
vn 0.371542364 0.353148162 -0.858628333
vn -0.5393571 0.842077136 -6.869552E-08
vn 0.854801953 -0.518954337 3.134913E-07
vn -0.235690832 0.08488141 -0.968114138
vn -0.90565443 0.424016625 -3.80369E-07
vn -0.9739182 0.226899281 -3.46941079E-07
vn -0.03212095 -0.0704514 -0.9969979
vn -0.414851367 -0.9098892 -2.0439677E-07
vn 0.792980731 -0.609246731 3.44812E-07
vn 0.427749485 0.903897345 2.17927919E-07
vn 0.4277495 0.9038973 1.7152945E-07
vn 0.427749544 0.9038973 6.215438E-08
vn -0.04891112 0.023145847 0.9985349
vn -0.447135657 0.211596832 0.8690779
vn -0.72632277 0.343716055 0.5952433
vn 0.0489103 -0.02314596 0.998535
vn 0.4471349 -0.2115969 0.869078338
vn 0.7263222 -0.3437161 0.595243931
vn -0.427749455 -0.903897345 -1.887248E-07
vn -0.427749455 -0.903897345 -2.14390283E-07
vn -0.427749485 -0.903897345 -2.02403442E-07
vn 0.371541619 0.353147924 0.85862875
vn -0.235691547 0.08488136 0.968113959
vn -0.03212176 -0.07045147 0.9969979
usemtl 10100007_part_0_material_0
f 1/1/1 2/2/2 3/3/3
f 3/3/3 4/4/4 1/1/1
f 2/2/2 5/5/5 6/6/6
f 6/6/6 3/3/3 2/2/2
f 7/7/7 8/8/8 9/9/9
f 9/9/9 10/10/10 7/7/7
f 11/11/11 7/7/7 10/10/10
f 10/10/10 12/12/12 11/11/11
f 8/8/8 13/13/13 14/14/14
f 14/14/14 9/9/9 8/8/8
f 15/15/15 11/11/11 12/12/12
f 12/12/12 16/16/16 15/15/15
f 17/17/17 18/18/18 19/19/19
f 17/17/17 19/19/19 20/20/20
f 17/17/17 20/20/20 21/21/21
f 22/22/22 23/23/23 24/24/24
f 25/25/25 22/22/22 24/24/24
f 26/26/26 27/27/27 24/24/24
f 24/24/24 23/23/23 26/26/26
f 27/27/27 28/28/28 25/25/25
f 25/25/25 24/24/24 27/27/27
f 29/29/29 30/30/30 31/31/31
f 30/30/30 32/32/32 31/31/31
f 33/33/33 3/3/3 34/34/34
f 3/3/3 33/33/33 4/4/4
f 34/34/34 6/6/6 35/35/35
f 6/6/6 34/34/34 3/3/3
f 36/36/36 37/37/37 38/38/38
f 37/37/37 36/36/36 39/39/39
f 40/40/40 39/39/39 36/36/36
f 39/39/39 40/40/40 41/41/41
f 38/38/38 14/14/14 13/13/13
f 14/14/14 38/38/38 37/37/37
f 15/15/15 41/41/41 40/40/40
f 41/41/41 15/15/15 16/16/16
f 17/17/17 42/42/42 43/43/43
f 17/17/17 44/44/44 42/42/42
f 17/17/17 21/21/21 44/44/44
f 22/22/22 45/45/45 23/23/23
f 25/25/25 45/45/45 22/22/22
f 26/26/26 45/45/45 46/46/46
f 45/45/45 26/26/26 23/23/23
f 46/46/46 25/25/25 28/28/28
f 25/25/25 46/46/46 45/45/45
f 29/29/29 31/31/31 47/47/47
f 47/47/47 31/31/31 32/32/32
