mtllib PaulBow123.mtl
o PaulBow123_part_0
v -0.1379 0.9573 0.0405022651
v -0.071 0.7179 0.0973022655
v -0.0956 0.6245 0.100702263
v -0.1518 0.838 0.0405022651
v -0.211 0.8872 0.0405022651
v 0.106 0.7517 0.0405022651
v 0.2012 0.7318 0.0405022651
v 0.0521 0.6891 0.0405022651
v 0.106 0.6589 0.0405022651
v -0.024 0.5798 0.0405022651
v -0.1934 0.4921 0.0405022651
v -0.2467 0.5537 0.0405022651
v -0.1045 0.394 0.0881022662
v -0.0765 0.3954 0.0405022651
v -0.2165 0.3981 0.0405022651
v -0.2876 0.3322 0.0405022651
v -0.2576 0.3005 0.0605022646
v -0.3078 0.2332 0.0405022651
v -0.2133 0.2884 0.0425022654
v -0.1586 0.2636 0.0405022651
v -0.2577 0.2791 0.0417022668
v -0.2628 0.7199 0.0405022651
v -0.2663 0.6332 0.0621022657
v -0.3499 0.5398 0.0518022664
v -0.3152 0.5265 0.0405022651
v -0.3582 0.4699 0.0405022651
v -0.3066 0.8071 0.0405022651
v -0.3088 0.7226 0.0405022651
v -0.384 0.5597 0.0405022651
v -0.3355 0.642 0.0405022651
v -0.3328 0.6704 0.0405022651
v -0.0623 0.7069 -0.0168977343
v -0.0956 0.6245 -0.0198977347
v -0.119 0.3989 -0.007397734
v -0.3496 0.5397 0.0290022641
v -0.2671 0.6329 0.0166022647
v -0.2569 0.3 0.0206022654
v -0.0163 0.8128 0.0938022658
v 0.1473 0.8211 0.0405022651
v 0.2466 0.7946 0.0405022651
v -0.0157 0.9571 0.0405022651
v 0.0744 1.135 0.0405022651
v -0.041 1.0481 0.0405022651
v -0.0729 0.9181 0.0405022651
v -0.0163 0.8128 -0.0130977342
v 0.5072 1.2709 0.0405022651
v 0.2965 1.0112 0.0405022651
v 0.2583 1.0199 0.08390226
v 0.1137 0.9049 0.0894022658
v 0.4484 1.0811 0.0405022651
v 0.4344 1.0355 0.0405022651
v 0.3188 0.8967 0.0405022651
v 0.1293 0.9173 -0.008097734
v 0.1786 1.1696 0.0405022651
v 0.0652 1.0103 0.0405022651
v 0.2271 0.8878 0.0405022651
v 0.3044 1.2579 0.0405022651
v 0.168 1.046 0.0405022651
v 0.2583 1.0199 -0.00319773424
v 0.508 1.3393 0.0405022651
v 0.2484 1.0708 0.0405022651
v 0.3159 1.2201 0.0405022651
v -0.1268 0.2006 0.0405022651
v -0.1872 0.0776 0.0405022651
v -0.0933 0.2069 0.00360226561
v -0.0212 0.2138 -0.000397734315
v -0.0506 0.1742 0.0006022657
v -0.0174 0.1509 0.0405022651
v -0.0714 0.2815 -0.005397734
v 0.0735 0.2053 0.0405022651
v -0.0312 0.2575 0.0405022651
v -0.0788 0.1435 0.0405022651
v -0.0481 0.1572 0.0138022657
v -0.0714 0.2815 0.08640227
v -0.0174 -0.1509 0.0405022651
v 0.0735 -0.2053 0.0405022651
v -0.0212 -0.2138 0.0814022645
v -0.0506 -0.1742 0.08040226
v -0.0212 0.2138 0.0814022645
v -0.0506 0.1742 0.08040226
v -0.0481 0.1572 0.066902265
v -0.0933 0.2069 0.0774022639
v -0.0788 -0.1435 0.0405022651
v -0.1872 -0.0776 0.0405022651
v -0.0933 -0.2069 0.00360226561
v -0.0212 -0.2138 -0.000397734315
v -0.0506 -0.1742 0.0006022657
v -0.0481 -0.1572 0.0138022657
v -0.0481 -0.1572 0.066902265
v -0.0933 -0.2069 0.0774022639
v -0.0788 0.1435 0.0405022651
v -0.0481 0.1572 0.066902265
v -0.0481 -0.1572 0.066902265
v -0.0788 -0.1435 0.0405022651
v -0.0481 0.1572 0.0138022657
v -0.0174 -0.1509 0.0405022651
v -0.0174 0.1509 0.0405022651
v -0.0481 -0.1572 0.0138022657
v -0.0312 -0.2575 0.0405022651
v -0.2628 -0.7199 0.0405022651
v -0.3066 -0.8071 0.0405022651
v -0.2663 -0.6332 0.0621022657
v -0.2876 -0.3322 0.0405022651
v -0.3078 -0.2332 0.0405022651
v -0.2576 -0.3005 0.0605022646
v -0.2577 -0.2791 0.0417022668
v -0.1045 -0.394 0.0881022662
v -0.2133 -0.2884 0.0425022654
v -0.0714 -0.2815 0.08640227
v -0.1268 -0.2006 0.0405022651
v -0.1586 -0.2636 0.0405022651
v 0.106 -0.6589 0.0405022651
v 0.0521 -0.6891 0.0405022651
v -0.0956 -0.6245 0.100702263
v -0.024 -0.5798 0.0405022651
v -0.0765 -0.3954 0.0405022651
v -0.1934 -0.4921 0.0405022651
v -0.2467 -0.5537 0.0405022651
v -0.1379 -0.9573 0.0405022651
v -0.1518 -0.838 0.0405022651
v -0.211 -0.8872 0.0405022651
v -0.3088 -0.7226 0.0405022651
v -0.3328 -0.6704 0.0405022651
v -0.3355 -0.642 0.0405022651
v -0.071 -0.7179 0.0973022655
v 0.2012 -0.7318 0.0405022651
v -0.3499 -0.5398 0.0518022664
v -0.384 -0.5597 0.0405022651
v -0.3582 -0.4699 0.0405022651
v 0.106 -0.7517 0.0405022651
v -0.3152 -0.5265 0.0405022651
v -0.0623 -0.7069 -0.0168977343
v -0.0956 -0.6245 -0.0198977347
v -0.2671 -0.6329 0.0166022647
v -0.3496 -0.5397 0.0290022641
v -0.2165 -0.3981 0.0405022651
v -0.119 -0.3989 -0.007397734
v -0.2569 -0.3 0.0206022654
v -0.0714 -0.2815 -0.005397734
v 0.2466 -0.7946 0.0405022651
v -0.0163 -0.8128 0.0938022658
v 0.1293 -0.9173 -0.008097734
v 0.2965 -1.0112 0.0405022651
v 0.4484 -1.0811 0.0405022651
v -0.0729 -0.9181 0.0405022651
v -0.0163 -0.8128 -0.0130977342
v 0.1473 -0.8211 0.0405022651
v 0.3188 -0.8967 0.0405022651
v 0.1137 -0.9049 0.0894022658
v 0.4344 -1.0355 0.0405022651
v 0.2271 -0.8878 0.0405022651
v 0.2583 -1.0199 0.08390226
v 0.5072 -1.2709 0.0405022651
v 0.508 -1.3393 0.0405022651
v 0.2484 -1.0708 0.0405022651
v 0.2583 -1.0199 -0.00319773424
v 0.3159 -1.2201 0.0405022651
v 0.3044 -1.2579 0.0405022651
v 0.168 -1.046 0.0405022651
v 0.1786 -1.1696 0.0405022651
v 0.0652 -1.0103 0.0405022651
v 0.0744 -1.135 0.0405022651
v -0.0157 -0.9571 0.0405022651
v -0.041 -1.0481 0.0405022651
v -0.1379 0.9573 0.0405022651
v -0.071 0.7179 0.0973022655
v -0.1518 0.838 0.0405022651
v -0.1379 0.9573 0.0405022651
v -0.211 0.8872 0.0405022651
v -0.1518 0.838 0.0405022651
v -0.071 0.7179 0.0973022655
v 0.106 0.7517 0.0405022651
v -0.071 0.7179 0.0973022655
v 0.2012 0.7318 0.0405022651
v -0.0956 0.6245 0.100702263
v -0.071 0.7179 0.0973022655
v -0.0956 0.6245 0.100702263
v 0.0521 0.6891 0.0405022651
v -0.0956 0.6245 0.100702263
v 0.106 0.6589 0.0405022651
v -0.1934 0.4921 0.0405022651
v -0.2467 0.5537 0.0405022651
v -0.1934 0.4921 0.0405022651
v -0.0956 0.6245 0.100702263
v -0.1045 0.394 0.0881022662
v -0.0956 0.6245 0.100702263
v -0.024 0.5798 0.0405022651
v -0.0765 0.3954 0.0405022651
v -0.2165 0.3981 0.0405022651
v -0.1934 0.4921 0.0405022651
v -0.2876 0.3322 0.0405022651
v -0.2165 0.3981 0.0405022651
v -0.2576 0.3005 0.0605022646
v -0.3078 0.2332 0.0405022651
v -0.2876 0.3322 0.0405022651
v -0.1045 0.394 0.0881022662
v -0.2133 0.2884 0.0425022654
v -0.2576 0.3005 0.0605022646
v -0.1586 0.2636 0.0405022651
v -0.2133 0.2884 0.0425022654
v -0.2577 0.2791 0.0417022668
v -0.3078 0.2332 0.0405022651
v -0.2576 0.3005 0.0605022646
v -0.2133 0.2884 0.0425022654
v -0.2628 0.7199 0.0405022651
v -0.211 0.8872 0.0405022651
v -0.2663 0.6332 0.0621022657
v -0.2628 0.7199 0.0405022651
v -0.2467 0.5537 0.0405022651
v -0.2663 0.6332 0.0621022657
v -0.3499 0.5398 0.0518022664
v -0.2663 0.6332 0.0621022657
v -0.2467 0.5537 0.0405022651
v -0.3152 0.5265 0.0405022651
v -0.3152 0.5265 0.0405022651
v -0.3582 0.4699 0.0405022651
v -0.2663 0.6332 0.0621022657
v -0.3066 0.8071 0.0405022651
v -0.2663 0.6332 0.0621022657
v -0.3088 0.7226 0.0405022651
v -0.3499 0.5398 0.0518022664
v -0.3582 0.4699 0.0405022651
v -0.3499 0.5398 0.0518022664
v -0.384 0.5597 0.0405022651
v -0.3355 0.642 0.0405022651
v -0.2663 0.6332 0.0621022657
v -0.2663 0.6332 0.0621022657
v -0.3355 0.642 0.0405022651
v -0.2663 0.6332 0.0621022657
v -0.3328 0.6704 0.0405022651
v -0.0623 0.7069 -0.0168977343
v -0.1379 0.9573 0.0405022651
v -0.1379 0.9573 0.0405022651
v -0.1518 0.838 0.0405022651
v -0.1518 0.838 0.0405022651
v -0.211 0.8872 0.0405022651
v -0.0623 0.7069 -0.0168977343
v -0.0956 0.6245 -0.0198977347
v -0.0623 0.7069 -0.0168977343
v 0.0521 0.6891 0.0405022651
v -0.0623 0.7069 -0.0168977343
v 0.2012 0.7318 0.0405022651
v -0.119 0.3989 -0.007397734
v -0.0765 0.3954 0.0405022651
v -0.024 0.5798 0.0405022651
v -0.0956 0.6245 -0.0198977347
v -0.0956 0.6245 -0.0198977347
v -0.024 0.5798 0.0405022651
v -0.0956 0.6245 -0.0198977347
v 0.106 0.6589 0.0405022651
v -0.384 0.5597 0.0405022651
v -0.3582 0.4699 0.0405022651
v -0.3496 0.5397 0.0290022641
v -0.3582 0.4699 0.0405022651
v -0.2671 0.6329 0.0166022647
v -0.3496 0.5397 0.0290022641
v -0.3152 0.5265 0.0405022651
v -0.2467 0.5537 0.0405022651
v -0.0956 0.6245 -0.0198977347
v -0.2671 0.6329 0.0166022647
v -0.0956 0.6245 -0.0198977347
v -0.2467 0.5537 0.0405022651
v -0.119 0.3989 -0.007397734
v -0.0956 0.6245 -0.0198977347
v -0.119 0.3989 -0.007397734
v -0.1934 0.4921 0.0405022651
v -0.119 0.3989 -0.007397734
v -0.2165 0.3981 0.0405022651
v -0.3088 0.7226 0.0405022651
v -0.3328 0.6704 0.0405022651
v -0.3328 0.6704 0.0405022651
v -0.3355 0.642 0.0405022651
v -0.3355 0.642 0.0405022651
v -0.3496 0.5397 0.0290022641
v -0.3355 0.642 0.0405022651
v -0.384 0.5597 0.0405022651
v -0.2569 0.3 0.0206022654
v -0.3078 0.2332 0.0405022651
v -0.2876 0.3322 0.0405022651
v -0.3078 0.2332 0.0405022651
v -0.2569 0.3 0.0206022654
v -0.119 0.3989 -0.007397734
v -0.2577 0.2791 0.0417022668
v -0.2133 0.2884 0.0425022654
v -0.119 0.3989 -0.007397734
v -0.2569 0.3 0.0206022654
v -0.119 0.3989 -0.007397734
v -0.2133 0.2884 0.0425022654
v -0.3066 0.8071 0.0405022651
v -0.3088 0.7226 0.0405022651
v -0.2628 0.7199 0.0405022651
v -0.3066 0.8071 0.0405022651
v -0.2628 0.7199 0.0405022651
v -0.2671 0.6329 0.0166022647
v -0.211 0.8872 0.0405022651
v -0.2628 0.7199 0.0405022651
v -0.071 0.7179 0.0973022655
v -0.0163 0.8128 0.0938022658
v -0.0163 0.8128 0.0938022658
v 0.1473 0.8211 0.0405022651
v -0.0163 0.8128 0.0938022658
v 0.2466 0.7946 0.0405022651
v -0.0157 0.9571 0.0405022651
v 0.0744 1.135 0.0405022651
v -0.041 1.0481 0.0405022651
v -0.0157 0.9571 0.0405022651
v -0.0729 0.9181 0.0405022651
v -0.041 1.0481 0.0405022651
v -0.0729 0.9181 0.0405022651
v -0.0163 0.8128 0.0938022658
v -0.1379 0.9573 0.0405022651
v -0.0729 0.9181 0.0405022651
v -0.0623 0.7069 -0.0168977343
v -0.0163 0.8128 -0.0130977342
v -0.0623 0.7069 -0.0168977343
v -0.0729 0.9181 0.0405022651
v 0.5072 1.2709 0.0405022651
v 0.2965 1.0112 0.0405022651
v 0.1137 0.9049 0.0894022658
v 0.2583 1.0199 0.08390226
v 0.1137 0.9049 0.0894022658
v 0.2965 1.0112 0.0405022651
v 0.1137 0.9049 0.0894022658
v 0.4484 1.0811 0.0405022651
v -0.0163 0.8128 -0.0130977342
v -0.0623 0.7069 -0.0168977343
v -0.0163 0.8128 -0.0130977342
v 0.106 0.7517 0.0405022651
v -0.0163 0.8128 -0.0130977342
v 0.2466 0.7946 0.0405022651
v 0.1473 0.8211 0.0405022651
v 0.3188 0.8967 0.0405022651
v 0.1293 0.9173 -0.008097734
v 0.1786 1.1696 0.0405022651
v -0.0163 0.8128 -0.0130977342
v 0.1293 0.9173 -0.008097734
v 0.2271 0.8878 0.0405022651
v 0.1293 0.9173 -0.008097734
v -0.0163 0.8128 -0.0130977342
v 0.3188 0.8967 0.0405022651
v 0.1293 0.9173 -0.008097734
v 0.3044 1.2579 0.0405022651
v 0.1293 0.9173 -0.008097734
v 0.168 1.046 0.0405022651
v -0.0163 0.8128 -0.0130977342
v 0.0652 1.0103 0.0405022651
v -0.0163 0.8128 -0.0130977342
v 0.0744 1.135 0.0405022651
v -0.0163 0.8128 -0.0130977342
v -0.0157 0.9571 0.0405022651
v -0.0163 0.8128 -0.0130977342
v -0.041 1.0481 0.0405022651
v 0.4484 1.0811 0.0405022651
v 0.2965 1.0112 0.0405022651
v 0.4344 1.0355 0.0405022651
v 0.4484 1.0811 0.0405022651
v 0.2271 0.8878 0.0405022651
v 0.4344 1.0355 0.0405022651
v 0.2965 1.0112 0.0405022651
v 0.2583 1.0199 -0.00319773424
v 0.2583 1.0199 -0.00319773424
v 0.2965 1.0112 0.0405022651
v 0.5072 1.2709 0.0405022651
v 0.508 1.3393 0.0405022651
v 0.2583 1.0199 -0.00319773424
v 0.508 1.3393 0.0405022651
v 0.1293 0.9173 -0.008097734
v 0.2583 1.0199 -0.00319773424
v 0.1293 0.9173 -0.008097734
v 0.2484 1.0708 0.0405022651
v 0.1293 0.9173 -0.008097734
v 0.3159 1.2201 0.0405022651
v 0.2583 1.0199 0.08390226
v 0.508 1.3393 0.0405022651
v 0.1137 0.9049 0.0894022658
v 0.4344 1.0355 0.0405022651
v -0.0163 0.8128 0.0938022658
v 0.1137 0.9049 0.0894022658
v 0.0652 1.0103 0.0405022651
v 0.1137 0.9049 0.0894022658
v 0.0744 1.135 0.0405022651
v 0.0652 1.0103 0.0405022651
v 0.2271 0.8878 0.0405022651
v 0.3188 0.8967 0.0405022651
v -0.0163 0.8128 0.0938022658
v 0.3188 0.8967 0.0405022651
v 0.168 1.046 0.0405022651
v 0.3044 1.2579 0.0405022651
v 0.1786 1.1696 0.0405022651
v 0.168 1.046 0.0405022651
v 0.0652 1.0103 0.0405022651
v 0.1786 1.1696 0.0405022651
v 0.3044 1.2579 0.0405022651
v 0.3159 1.2201 0.0405022651
v 0.2484 1.0708 0.0405022651
v 0.508 1.3393 0.0405022651
v 0.2484 1.0708 0.0405022651
v 0.2583 1.0199 0.08390226
v 0.3159 1.2201 0.0405022651
v 0.2484 1.0708 0.0405022651
v -0.1268 0.2006 0.0405022651
v -0.1586 0.2636 0.0405022651
v -0.1268 0.2006 0.0405022651
v -0.1872 0.0776 0.0405022651
v -0.0212 0.2138 -0.000397734315
v -0.0506 0.1742 0.0006022657
v -0.0933 0.2069 0.00360226561
v -0.0714 0.2815 -0.005397734
v -0.0174 0.1509 0.0405022651
v 0.0735 0.2053 0.0405022651
v -0.0212 0.2138 -0.000397734315
v 0.0735 0.2053 0.0405022651
v -0.0312 0.2575 0.0405022651
v -0.0714 0.2815 -0.005397734
v -0.119 0.3989 -0.007397734
v -0.0714 0.2815 -0.005397734
v -0.0714 0.2815 -0.005397734
v -0.119 0.3989 -0.007397734
v -0.119 0.3989 -0.007397734
v -0.1586 0.2636 0.0405022651
v -0.0933 0.2069 0.00360226561
v -0.1872 0.0776 0.0405022651
v -0.0788 0.1435 0.0405022651
v -0.0506 0.1742 0.0006022657
v -0.0788 0.1435 0.0405022651
v -0.0481 0.1572 0.0138022657
v -0.0506 0.1742 0.0006022657
v -0.0481 0.1572 0.0138022657
v -0.0312 0.2575 0.0405022651
v -0.0765 0.3954 0.0405022651
v -0.1268 0.2006 0.0405022651
v -0.1045 0.394 0.0881022662
v -0.0714 0.2815 0.08640227
v -0.1045 0.394 0.0881022662
v -0.0765 0.3954 0.0405022651
v -0.0312 0.2575 0.0405022651
v -0.0174 -0.1509 0.0405022651
v 0.0735 -0.2053 0.0405022651
v -0.0506 -0.1742 0.08040226
v -0.0174 -0.1509 0.0405022651
v -0.0714 0.2815 0.08640227
v -0.0312 0.2575 0.0405022651
v -0.0312 0.2575 0.0405022651
v 0.0735 0.2053 0.0405022651
v -0.0212 0.2138 0.0814022645
v 0.0735 0.2053 0.0405022651
v -0.0212 0.2138 0.0814022645
v -0.0174 0.1509 0.0405022651
v -0.0174 0.1509 0.0405022651
v -0.0481 0.1572 0.066902265
v -0.0506 0.1742 0.08040226
v -0.0481 0.1572 0.066902265
v -0.0933 0.2069 0.0774022639
v -0.0506 0.1742 0.08040226
v -0.0788 0.1435 0.0405022651
v -0.1872 0.0776 0.0405022651
v -0.1872 0.0776 0.0405022651
v -0.1268 0.2006 0.0405022651
v -0.0933 0.2069 0.0774022639
v -0.1268 0.2006 0.0405022651
v -0.0788 -0.1435 0.0405022651
v -0.1872 -0.0776 0.0405022651
v -0.0212 -0.2138 -0.000397734315
v 0.0735 -0.2053 0.0405022651
v -0.0174 -0.1509 0.0405022651
v -0.0506 -0.1742 0.0006022657
v -0.0174 -0.1509 0.0405022651
v -0.0481 -0.1572 0.0138022657
v -0.0506 -0.1742 0.0006022657
v -0.0481 -0.1572 0.0138022657
v -0.0933 -0.2069 0.00360226561
v -0.0506 -0.1742 0.0006022657
v -0.0506 -0.1742 0.08040226
v -0.0481 -0.1572 0.066902265
v -0.0788 -0.1435 0.0405022651
v -0.0481 -0.1572 0.066902265
v -0.0788 -0.1435 0.0405022651
v -0.0506 -0.1742 0.08040226
v -0.0933 -0.2069 0.0774022639
v -0.1872 -0.0776 0.0405022651
v -0.0788 0.1435 0.0405022651
v -0.0481 0.1572 0.066902265
v -0.0481 -0.1572 0.066902265
v -0.0788 -0.1435 0.0405022651
v -0.0481 0.1572 0.0138022657
v -0.0788 0.1435 0.0405022651
v -0.0174 -0.1509 0.0405022651
v -0.0481 -0.1572 0.066902265
v -0.0481 0.1572 0.066902265
v -0.0174 0.1509 0.0405022651
v -0.0788 -0.1435 0.0405022651
v -0.0481 -0.1572 0.0138022657
v -0.0174 0.1509 0.0405022651
v -0.0481 0.1572 0.0138022657
v -0.0481 -0.1572 0.0138022657
v -0.0174 -0.1509 0.0405022651
v -0.0212 -0.2138 0.0814022645
v 0.0735 -0.2053 0.0405022651
v -0.2628 -0.7199 0.0405022651
v -0.3066 -0.8071 0.0405022651
v -0.2876 -0.3322 0.0405022651
v -0.3078 -0.2332 0.0405022651
v -0.2576 -0.3005 0.0605022646
v -0.3078 -0.2332 0.0405022651
v -0.1045 -0.394 0.0881022662
v -0.2576 -0.3005 0.0605022646
v -0.2577 -0.2791 0.0417022668
v -0.2133 -0.2884 0.0425022654
v -0.0714 -0.2815 0.08640227
v -0.1045 -0.394 0.0881022662
v -0.1045 -0.394 0.0881022662
v -0.1586 -0.2636 0.0405022651
v -0.1045 -0.394 0.0881022662
v -0.2133 -0.2884 0.0425022654
v 0.106 -0.6589 0.0405022651
v 0.0521 -0.6891 0.0405022651
v -0.024 -0.5798 0.0405022651
v 0.106 -0.6589 0.0405022651
v -0.024 -0.5798 0.0405022651
v -0.0956 -0.6245 0.100702263
v -0.1045 -0.394 0.0881022662
v -0.0765 -0.3954 0.0405022651
v -0.0765 -0.3954 0.0405022651
v -0.1045 -0.394 0.0881022662
v -0.0714 -0.2815 0.08640227
v -0.0312 -0.2575 0.0405022651
v -0.1045 -0.394 0.0881022662
v -0.0956 -0.6245 0.100702263
v -0.0956 -0.6245 0.100702263
v -0.2467 -0.5537 0.0405022651
v -0.0956 -0.6245 0.100702263
v -0.1379 -0.9573 0.0405022651
v -0.0956 -0.6245 0.100702263
v -0.1518 -0.838 0.0405022651
v -0.3066 -0.8071 0.0405022651
v -0.3088 -0.7226 0.0405022651
v -0.3088 -0.7226 0.0405022651
v -0.3328 -0.6704 0.0405022651
v -0.3328 -0.6704 0.0405022651
v -0.3355 -0.642 0.0405022651
v -0.0956 -0.6245 0.100702263
v -0.071 -0.7179 0.0973022655
v 0.0521 -0.6891 0.0405022651
v -0.071 -0.7179 0.0973022655
v 0.0521 -0.6891 0.0405022651
v 0.2012 -0.7318 0.0405022651
v -0.3499 -0.5398 0.0518022664
v -0.2663 -0.6332 0.0621022657
v -0.3355 -0.642 0.0405022651
v -0.384 -0.5597 0.0405022651
v -0.384 -0.5597 0.0405022651
v -0.3582 -0.4699 0.0405022651
v 0.2012 -0.7318 0.0405022651
v 0.106 -0.7517 0.0405022651
v -0.3499 -0.5398 0.0518022664
v -0.3582 -0.4699 0.0405022651
v -0.3499 -0.5398 0.0518022664
v -0.3152 -0.5265 0.0405022651
v -0.2467 -0.5537 0.0405022651
v -0.2663 -0.6332 0.0621022657
v 0.106 -0.7517 0.0405022651
v 0.2012 -0.7318 0.0405022651
v 0.2012 -0.7318 0.0405022651
v 0.0521 -0.6891 0.0405022651
v 0.0521 -0.6891 0.0405022651
v -0.0956 -0.6245 -0.0198977347
v 0.0521 -0.6891 0.0405022651
v 0.106 -0.6589 0.0405022651
v -0.0956 -0.6245 0.100702263
v -0.2663 -0.6332 0.0621022657
v -0.0956 -0.6245 0.100702263
v -0.2628 -0.7199 0.0405022651
v -0.0956 -0.6245 0.100702263
v -0.211 -0.8872 0.0405022651
v -0.2576 -0.3005 0.0605022646
v -0.1045 -0.394 0.0881022662
v 0.106 -0.6589 0.0405022651
v -0.024 -0.5798 0.0405022651
v -0.2671 -0.6329 0.0166022647
v -0.3088 -0.7226 0.0405022651
v -0.2671 -0.6329 0.0166022647
v -0.3066 -0.8071 0.0405022651
v -0.0956 -0.6245 -0.0198977347
v -0.2671 -0.6329 0.0166022647
v -0.3496 -0.5397 0.0290022641
v -0.3582 -0.4699 0.0405022651
v -0.3152 -0.5265 0.0405022651
v -0.3582 -0.4699 0.0405022651
v -0.3152 -0.5265 0.0405022651
v -0.3496 -0.5397 0.0290022641
v -0.2671 -0.6329 0.0166022647
v -0.2467 -0.5537 0.0405022651
v -0.2467 -0.5537 0.0405022651
v -0.2671 -0.6329 0.0166022647
v -0.1045 -0.394 0.0881022662
v -0.2165 -0.3981 0.0405022651
v -0.1045 -0.394 0.0881022662
v -0.1934 -0.4921 0.0405022651
v -0.1934 -0.4921 0.0405022651
v -0.2467 -0.5537 0.0405022651
v -0.1934 -0.4921 0.0405022651
v -0.0956 -0.6245 -0.0198977347
v -0.2165 -0.3981 0.0405022651
v -0.1934 -0.4921 0.0405022651
v -0.2876 -0.3322 0.0405022651
v -0.2165 -0.3981 0.0405022651
v -0.0714 -0.2815 0.08640227
v -0.1268 -0.2006 0.0405022651
v -0.0933 -0.2069 0.0774022639
v -0.1268 -0.2006 0.0405022651
v -0.2876 -0.3322 0.0405022651
v -0.119 -0.3989 -0.007397734
v -0.2569 -0.3 0.0206022654
v -0.3078 -0.2332 0.0405022651
v -0.0212 -0.2138 0.0814022645
v -0.0312 -0.2575 0.0405022651
v -0.0956 -0.6245 -0.0198977347
v -0.1379 -0.9573 0.0405022651
v -0.0956 -0.6245 -0.0198977347
v -0.1518 -0.838 0.0405022651
v -0.2671 -0.6329 0.0166022647
v -0.3328 -0.6704 0.0405022651
v -0.2671 -0.6329 0.0166022647
v -0.3355 -0.642 0.0405022651
v -0.2671 -0.6329 0.0166022647
v -0.3496 -0.5397 0.0290022641
v -0.3496 -0.5397 0.0290022641
v -0.384 -0.5597 0.0405022651
v -0.0956 -0.6245 -0.0198977347
v -0.211 -0.8872 0.0405022651
v -0.0312 -0.2575 0.0405022651
v 0.0735 -0.2053 0.0405022651
v -0.0212 -0.2138 -0.000397734315
v -0.0714 -0.2815 -0.005397734
v -0.0956 -0.6245 -0.0198977347
v -0.2628 -0.7199 0.0405022651
v -0.0933 -0.2069 0.00360226561
v -0.1872 -0.0776 0.0405022651
v -0.1268 -0.2006 0.0405022651
v -0.0714 -0.2815 -0.005397734
v -0.1268 -0.2006 0.0405022651
v -0.119 -0.3989 -0.007397734
v -0.0312 -0.2575 0.0405022651
v -0.0714 -0.2815 -0.005397734
v -0.119 -0.3989 -0.007397734
v -0.0765 -0.3954 0.0405022651
v -0.1268 -0.2006 0.0405022651
v -0.1586 -0.2636 0.0405022651
v -0.1586 -0.2636 0.0405022651
v -0.2133 -0.2884 0.0425022654
v -0.2133 -0.2884 0.0425022654
v -0.2569 -0.3 0.0206022654
v -0.2569 -0.3 0.0206022654
v -0.2133 -0.2884 0.0425022654
v -0.2577 -0.2791 0.0417022668
v -0.3078 -0.2332 0.0405022651
v -0.119 -0.3989 -0.007397734
v -0.0956 -0.6245 -0.0198977347
v -0.024 -0.5798 0.0405022651
v -0.0765 -0.3954 0.0405022651
v 0.106 -0.7517 0.0405022651
v 0.2466 -0.7946 0.0405022651
v 0.1293 -0.9173 -0.008097734
v 0.2965 -1.0112 0.0405022651
v -0.0729 -0.9181 0.0405022651
v -0.0163 -0.8128 -0.0130977342
v 0.106 -0.7517 0.0405022651
v -0.0623 -0.7069 -0.0168977343
v 0.2466 -0.7946 0.0405022651
v 0.106 -0.7517 0.0405022651
v 0.1473 -0.8211 0.0405022651
v 0.2466 -0.7946 0.0405022651
v -0.0163 -0.8128 -0.0130977342
v 0.3188 -0.8967 0.0405022651
v 0.4484 -1.0811 0.0405022651
v 0.2965 -1.0112 0.0405022651
v 0.4344 -1.0355 0.0405022651
v 0.4484 -1.0811 0.0405022651
v 0.2271 -0.8878 0.0405022651
v 0.4344 -1.0355 0.0405022651
v 0.2965 -1.0112 0.0405022651
v 0.2583 -1.0199 0.08390226
v 0.2583 -1.0199 0.08390226
v 0.2965 -1.0112 0.0405022651
v 0.5072 -1.2709 0.0405022651
v 0.508 -1.3393 0.0405022651
v 0.2583 -1.0199 0.08390226
v 0.508 -1.3393 0.0405022651
v 0.1293 -0.9173 -0.008097734
v 0.4344 -1.0355 0.0405022651
v 0.1293 -0.9173 -0.008097734
v 0.2583 -1.0199 -0.00319773424
v 0.5072 -1.2709 0.0405022651
v 0.2965 -1.0112 0.0405022651
v 0.2583 -1.0199 -0.00319773424
v 0.508 -1.3393 0.0405022651
v 0.2484 -1.0708 0.0405022651
v 0.508 -1.3393 0.0405022651
v 0.2484 -1.0708 0.0405022651
v 0.2583 -1.0199 -0.00319773424
v 0.3159 -1.2201 0.0405022651
v 0.2484 -1.0708 0.0405022651
v 0.3044 -1.2579 0.0405022651
v 0.3159 -1.2201 0.0405022651
v 0.1137 -0.9049 0.0894022658
v 0.2583 -1.0199 0.08390226
v 0.1137 -0.9049 0.0894022658
v 0.2484 -1.0708 0.0405022651
v 0.1137 -0.9049 0.0894022658
v 0.3159 -1.2201 0.0405022651
v 0.1137 -0.9049 0.0894022658
v 0.3044 -1.2579 0.0405022651
v 0.1137 -0.9049 0.0894022658
v 0.168 -1.046 0.0405022651
v 0.1137 -0.9049 0.0894022658
v 0.1786 -1.1696 0.0405022651
v -0.0163 -0.8128 0.0938022658
v 0.1137 -0.9049 0.0894022658
v 0.2271 -0.8878 0.0405022651
v 0.1137 -0.9049 0.0894022658
v -0.0163 -0.8128 0.0938022658
v 0.3188 -0.8967 0.0405022651
v 0.1473 -0.8211 0.0405022651
v 0.3188 -0.8967 0.0405022651
v -0.0163 -0.8128 0.0938022658
v 0.0652 -1.0103 0.0405022651
v -0.0163 -0.8128 0.0938022658
v -0.0157 -0.9571 0.0405022651
v -0.0163 -0.8128 0.0938022658
v 0.0744 -1.135 0.0405022651
v 0.106 -0.7517 0.0405022651
v -0.0163 -0.8128 0.0938022658
v -0.071 -0.7179 0.0973022655
v -0.0163 -0.8128 0.0938022658
v -0.0163 -0.8128 0.0938022658
v -0.041 -1.0481 0.0405022651
v -0.071 -0.7179 0.0973022655
v -0.0729 -0.9181 0.0405022651
v 0.2466 -0.7946 0.0405022651
v 0.1473 -0.8211 0.0405022651
v -0.1379 -0.9573 0.0405022651
v -0.0729 -0.9181 0.0405022651
v 0.0744 -1.135 0.0405022651
v 0.0652 -1.0103 0.0405022651
v -0.0157 -0.9571 0.0405022651
v 0.0744 -1.135 0.0405022651
v -0.041 -1.0481 0.0405022651
v -0.0157 -0.9571 0.0405022651
v -0.0729 -0.9181 0.0405022651
v -0.041 -1.0481 0.0405022651
v 0.0652 -1.0103 0.0405022651
v 0.1786 -1.1696 0.0405022651
v 0.0652 -1.0103 0.0405022651
v 0.1293 -0.9173 -0.008097734
v -0.0163 -0.8128 -0.0130977342
v 0.1293 -0.9173 -0.008097734
v 0.2271 -0.8878 0.0405022651
v 0.3188 -0.8967 0.0405022651
v 0.168 -1.046 0.0405022651
v 0.3044 -1.2579 0.0405022651
v 0.1786 -1.1696 0.0405022651
v 0.168 -1.046 0.0405022651
v 0.1293 -0.9173 -0.008097734
v 0.4484 -1.0811 0.0405022651
v -0.0212 0.2138 -0.000397734315
v -0.0645 0.2137 -0.0224977359
v -0.0506 0.1742 0.0006022657
v -0.0933 0.2069 0.00360226561
v -0.0506 0.1742 0.08040226
v -0.0645 0.2161 0.103602268
v -0.0212 0.2138 0.0814022645
v -0.0506 -0.1742 0.08040226
v -0.0645 -0.2137 0.103602268
v -0.0933 -0.2069 0.0774022639
v -0.0212 -0.2138 0.0814022645
v -0.0933 0.2069 0.0774022639
v -0.0506 -0.1742 0.0006022657
v -0.0645 -0.2139 -0.0224977359
v -0.0212 -0.2138 -0.000397734315
v -0.0933 -0.2069 0.00360226561
v -0.0714 -0.2815 0.08640227
v -0.0714 -0.2815 -0.005397734
v -0.0714 0.2815 0.08640227
v -0.0714 0.2815 -0.005397734
v -0.0212 0.2138 -0.000397734315
v -0.0645 0.2137 -0.0224977359
v -0.0506 0.1742 0.0006022657
v -0.0645 0.2137 -0.0224977359
v -0.0506 0.1742 0.08040226
v -0.0645 0.2161 0.103602268
v -0.0506 -0.1742 0.08040226
v -0.0645 -0.2137 0.103602268
v -0.0212 -0.2138 0.0814022645
v -0.0645 -0.2137 0.103602268
v -0.0933 0.2069 0.0774022639
v -0.0645 0.2161 0.103602268
v -0.0506 -0.1742 0.0006022657
v -0.0645 -0.2139 -0.0224977359
v -0.0933 -0.2069 0.00360226561
v -0.0645 -0.2139 -0.0224977359
v -0.0933 -0.2069 0.0774022639
v -0.0645 -0.2137 0.103602268
v -0.0212 -0.2138 0.0814022645
v -0.0714 -0.2815 0.08640227
v -0.0714 -0.2815 -0.005397734
v -0.0645 -0.2139 -0.0224977359
v -0.0645 -0.2139 -0.0224977359
v -0.0714 -0.2815 -0.005397734
v -0.0714 0.2815 0.08640227
v -0.0645 0.2161 0.103602268
v -0.0933 0.2069 0.00360226561
v -0.0645 0.2137 -0.0224977359
v -0.0212 0.2138 -0.000397734315
v -0.0714 0.2815 -0.005397734
v -0.0645 0.2161 0.103602268
v -0.0714 0.2815 0.08640227
vt 0.0958 1.2214
vt 0.4787 1.3853
vt 0.5916 1.38179994
vt 0.2295 1.2212
vt 0.1465 1.141
vt 0.4496 1.5531
vt 0.4679 1.6989
vt 0.5157 1.5336
vt 0.5471 1.597
vt 0.6548 1.6077
vt 0.6942 1.16560006
vt 0.6806 1.12680006
vt 0.7447 1.3999
vt 0.7595 1.5625
vt 0.7407 1.1696
vt 0.8438 1.1086
vt 0.8757 1.1182
vt 0.9598 1.0316
vt 0.8831 1.1275
vt 0.8847 1.2111
vt 0.9205 1.0911
vt 0.3571 1.1202
vt 0.5848 1.0963
vt 0.6615 1.0512
vt 0.6928 1.0916
vt 0.7608 1.029
vt 0.2778 1.0399
vt 0.4758 1.0776
vt 0.6505 1.0073
vt 0.5375 1.0072
vt 0.5056 1.0351
vt 0.488 1.3803
vt 0.5916 1.38179994
vt 0.7447 1.3999
vt 0.6616 1.0514
vt 0.5849 1.0954
vt 0.8754 1.1173
vt 0.375 1.38330007
vt 0.3834 1.61949992
vt 0.4046 1.7879
vt 0.1378 1.3899
vt 0.043 1.5273
vt 0.0325 1.3482
vt 0.1679 1.30559993
vt 0.375 1.38330007
vt 0.0548 1.9593
vt 0.2189 1.83439994
vt 0.1853 1.78469992
vt 0.2838 1.5602
vt 0.2128 1.94300008
vt 0.2116 1.96600008
vt 0.3097 1.9151
vt 0.2798 1.56220007
vt 0.0429 1.63669991
vt 0.1581 1.52749991
vt 0.3067 1.7307
vt 0.0242 1.7753
vt 0.1282 1.6369
vt 0.1853 1.78469992
vt 0.0361 1.9735
vt 0.1458 1.7389
vt 0.0451 1.769
vt 0.9481 1.2313
vt 0.9894 1.17919993
vt 0.9406 1.3457
vt 0.9444 1.4783
vt 0.9946 1.42070007
vt 0.9945 1.5495
vt 0.8729 1.4201
vt 0.9917 1.6584
vt 0.8867 1.56929994
vt 0.9896 1.3647
vt 0.999 1.42070007
vt 0.8733 1.42070007
vt 0.9945 1.5321
vt 0.9917 1.6584
vt 0.9443 1.4782
vt 0.9952 1.4204
vt 0.9443 1.4782
vt 0.9947 1.4204
vt 0.999 1.4208
vt 0.9409 1.3458
vt 0.9896 1.3647
vt 0.9894 1.17919993
vt 0.9406 1.3457
vt 0.9444 1.4783
vt 0.9951 1.42070007
vt 0.999 1.42070007
vt 0.999 1.4208
vt 0.9409 1.3458
vt 0.5108 1.7034
vt 0.5122 1.8529
vt 0.9901 1.8529
vt 0.9895 1.7034
vt 0.5122 1.8529
vt 0.9897 1.9782
vt 0.5125 1.9782
vt 0.9901 1.8529
vt 0.8867 1.56929994
vt 0.3571 1.1202
vt 0.2778 1.0399
vt 0.5848 1.0963
vt 0.8438 1.1086
vt 0.9598 1.0316
vt 0.8757 1.1182
vt 0.9205 1.0911
vt 0.7447 1.3999
vt 0.8831 1.1275
vt 0.8733 1.42070007
vt 0.9481 1.2313
vt 0.8847 1.2111
vt 0.5471 1.597
vt 0.5157 1.5336
vt 0.5916 1.38179994
vt 0.6548 1.6077
vt 0.7595 1.5625
vt 0.6942 1.16560006
vt 0.6806 1.12680006
vt 0.0958 1.2214
vt 0.2295 1.2212
vt 0.1465 1.141
vt 0.4758 1.0776
vt 0.5056 1.0351
vt 0.5375 1.0072
vt 0.4787 1.3853
vt 0.4679 1.6989
vt 0.6615 1.0512
vt 0.6505 1.0073
vt 0.7608 1.029
vt 0.4496 1.5531
vt 0.6928 1.0916
vt 0.488 1.3803
vt 0.5916 1.38179994
vt 0.5849 1.0954
vt 0.6616 1.0514
vt 0.7407 1.1696
vt 0.7447 1.3999
vt 0.8754 1.1173
vt 0.8729 1.4201
vt 0.4046 1.7879
vt 0.375 1.38330007
vt 0.2798 1.56220007
vt 0.2189 1.83439994
vt 0.2128 1.94300008
vt 0.1679 1.30559993
vt 0.375 1.38330007
vt 0.3834 1.61949992
vt 0.3097 1.9151
vt 0.2838 1.5602
vt 0.2116 1.96600008
vt 0.3067 1.7307
vt 0.1853 1.78469992
vt 0.0548 1.9593
vt 0.0361 1.9735
vt 0.1458 1.7389
vt 0.1853 1.78469992
vt 0.0451 1.769
vt 0.0242 1.7753
vt 0.1282 1.6369
vt 0.0429 1.63669991
vt 0.1581 1.52749991
vt 0.043 1.5273
vt 0.1378 1.3899
vt 0.0325 1.3482
vt 0.0958 1.2214
vt 0.4787 1.3853
vt 0.2295 1.2212
vt 0.0958 1.2214
vt 0.1465 1.141
vt 0.2295 1.2212
vt 0.4787 1.3853
vt 0.4496 1.5531
vt 0.4787 1.3853
vt 0.4679 1.6989
vt 0.5916 1.38179994
vt 0.4787 1.3853
vt 0.5916 1.38179994
vt 0.5157 1.5336
vt 0.5916 1.38179994
vt 0.5471 1.597
vt 0.6942 1.16560006
vt 0.6806 1.12680006
vt 0.6942 1.16560006
vt 0.5916 1.38179994
vt 0.7447 1.3999
vt 0.5916 1.38179994
vt 0.6548 1.6077
vt 0.7595 1.5625
vt 0.7407 1.1696
vt 0.6942 1.16560006
vt 0.8438 1.1086
vt 0.7407 1.1696
vt 0.8757 1.1182
vt 0.9598 1.0316
vt 0.8438 1.1086
vt 0.7447 1.3999
vt 0.8831 1.1275
vt 0.8757 1.1182
vt 0.8847 1.2111
vt 0.8831 1.1275
vt 0.9205 1.0911
vt 0.9598 1.0316
vt 0.8757 1.1182
vt 0.8831 1.1275
vt 0.3571 1.1202
vt 0.1465 1.141
vt 0.5848 1.0963
vt 0.3571 1.1202
vt 0.6806 1.12680006
vt 0.5848 1.0963
vt 0.6615 1.0512
vt 0.5848 1.0963
vt 0.6806 1.12680006
vt 0.6928 1.0916
vt 0.6928 1.0916
vt 0.7608 1.029
vt 0.5848 1.0963
vt 0.2778 1.0399
vt 0.5848 1.0963
vt 0.4758 1.0776
vt 0.6615 1.0512
vt 0.7608 1.029
vt 0.6615 1.0512
vt 0.6505 1.0073
vt 0.5375 1.0072
vt 0.5848 1.0963
vt 0.5848 1.0963
vt 0.5375 1.0072
vt 0.5848 1.0963
vt 0.5056 1.0351
vt 0.488 1.3803
vt 0.0958 1.2214
vt 0.0958 1.2214
vt 0.2295 1.2212
vt 0.2295 1.2212
vt 0.1465 1.141
vt 0.488 1.3803
vt 0.5916 1.38179994
vt 0.488 1.3803
vt 0.5157 1.5336
vt 0.488 1.3803
vt 0.4679 1.6989
vt 0.7447 1.3999
vt 0.7595 1.5625
vt 0.6548 1.6077
vt 0.5916 1.38179994
vt 0.5916 1.38179994
vt 0.6548 1.6077
vt 0.5916 1.38179994
vt 0.5471 1.597
vt 0.6505 1.0073
vt 0.7608 1.029
vt 0.6616 1.0514
vt 0.7608 1.029
vt 0.5849 1.0954
vt 0.6616 1.0514
vt 0.6928 1.0916
vt 0.6806 1.12680006
vt 0.5916 1.38179994
vt 0.5849 1.0954
vt 0.5916 1.38179994
vt 0.6806 1.12680006
vt 0.7447 1.3999
vt 0.5916 1.38179994
vt 0.7447 1.3999
vt 0.6942 1.16560006
vt 0.7447 1.3999
vt 0.7407 1.1696
vt 0.4758 1.0776
vt 0.5056 1.0351
vt 0.5056 1.0351
vt 0.5375 1.0072
vt 0.5375 1.0072
vt 0.6616 1.0514
vt 0.5375 1.0072
vt 0.6505 1.0073
vt 0.8754 1.1173
vt 0.9598 1.0316
vt 0.8438 1.1086
vt 0.9598 1.0316
vt 0.8754 1.1173
vt 0.7447 1.3999
vt 0.9205 1.0911
vt 0.8831 1.1275
vt 0.7447 1.3999
vt 0.8754 1.1173
vt 0.7447 1.3999
vt 0.8831 1.1275
vt 0.2778 1.0399
vt 0.4758 1.0776
vt 0.3571 1.1202
vt 0.2778 1.0399
vt 0.3571 1.1202
vt 0.5849 1.0954
vt 0.1465 1.141
vt 0.3571 1.1202
vt 0.4787 1.3853
vt 0.375 1.38330007
vt 0.375 1.38330007
vt 0.3834 1.61949992
vt 0.375 1.38330007
vt 0.4046 1.7879
vt 0.1378 1.3899
vt 0.043 1.5273
vt 0.0325 1.3482
vt 0.1378 1.3899
vt 0.1679 1.30559993
vt 0.0325 1.3482
vt 0.1679 1.30559993
vt 0.375 1.38330007
vt 0.0958 1.2214
vt 0.1679 1.30559993
vt 0.488 1.3803
vt 0.375 1.38330007
vt 0.488 1.3803
vt 0.1679 1.30559993
vt 0.0548 1.9593
vt 0.2189 1.83439994
vt 0.2838 1.5602
vt 0.1853 1.78469992
vt 0.2838 1.5602
vt 0.2189 1.83439994
vt 0.2838 1.5602
vt 0.2128 1.94300008
vt 0.375 1.38330007
vt 0.488 1.3803
vt 0.375 1.38330007
vt 0.4496 1.5531
vt 0.375 1.38330007
vt 0.4046 1.7879
vt 0.3834 1.61949992
vt 0.3097 1.9151
vt 0.2798 1.56220007
vt 0.0429 1.63669991
vt 0.375 1.38330007
vt 0.2798 1.56220007
vt 0.3067 1.7307
vt 0.2798 1.56220007
vt 0.375 1.38330007
vt 0.3097 1.9151
vt 0.2798 1.56220007
vt 0.0242 1.7753
vt 0.2798 1.56220007
vt 0.1282 1.6369
vt 0.375 1.38330007
vt 0.1581 1.52749991
vt 0.375 1.38330007
vt 0.043 1.5273
vt 0.375 1.38330007
vt 0.1378 1.3899
vt 0.375 1.38330007
vt 0.0325 1.3482
vt 0.2128 1.94300008
vt 0.2189 1.83439994
vt 0.2116 1.96600008
vt 0.2128 1.94300008
vt 0.3067 1.7307
vt 0.2116 1.96600008
vt 0.2189 1.83439994
vt 0.1853 1.78469992
vt 0.1853 1.78469992
vt 0.2189 1.83439994
vt 0.0548 1.9593
vt 0.0361 1.9735
vt 0.1853 1.78469992
vt 0.0361 1.9735
vt 0.2798 1.56220007
vt 0.1853 1.78469992
vt 0.2798 1.56220007
vt 0.1458 1.7389
vt 0.2798 1.56220007
vt 0.0451 1.769
vt 0.1853 1.78469992
vt 0.0361 1.9735
vt 0.2838 1.5602
vt 0.2116 1.96600008
vt 0.375 1.38330007
vt 0.2838 1.5602
vt 0.1581 1.52749991
vt 0.2838 1.5602
vt 0.043 1.5273
vt 0.1581 1.52749991
vt 0.3067 1.7307
vt 0.3097 1.9151
vt 0.375 1.38330007
vt 0.3097 1.9151
vt 0.1282 1.6369
vt 0.0242 1.7753
vt 0.0429 1.63669991
vt 0.1282 1.6369
vt 0.1581 1.52749991
vt 0.0429 1.63669991
vt 0.0242 1.7753
vt 0.0451 1.769
vt 0.1458 1.7389
vt 0.0361 1.9735
vt 0.1458 1.7389
vt 0.1853 1.78469992
vt 0.0451 1.769
vt 0.1458 1.7389
vt 0.9481 1.2313
vt 0.8847 1.2111
vt 0.9481 1.2313
vt 0.9894 1.17919993
vt 0.9444 1.4783
vt 0.9946 1.42070007
vt 0.9406 1.3457
vt 0.8729 1.4201
vt 0.9945 1.5495
vt 0.9917 1.6584
vt 0.9444 1.4783
vt 0.9917 1.6584
vt 0.8867 1.56929994
vt 0.8729 1.4201
vt 0.7447 1.3999
vt 0.8729 1.4201
vt 0.8729 1.4201
vt 0.7447 1.3999
vt 0.7447 1.3999
vt 0.8847 1.2111
vt 0.9406 1.3457
vt 0.9894 1.17919993
vt 0.9896 1.3647
vt 0.9946 1.42070007
vt 0.9896 1.3647
vt 0.999 1.42070007
vt 0.9946 1.42070007
vt 0.999 1.42070007
vt 0.8867 1.56929994
vt 0.7595 1.5625
vt 0.9481 1.2313
vt 0.7447 1.3999
vt 0.8733 1.42070007
vt 0.7447 1.3999
vt 0.7595 1.5625
vt 0.8867 1.56929994
vt 0.9945 1.5321
vt 0.9917 1.6584
vt 0.9952 1.4204
vt 0.9945 1.5321
vt 0.8733 1.42070007
vt 0.8867 1.56929994
vt 0.8867 1.56929994
vt 0.9917 1.6584
vt 0.9443 1.4782
vt 0.9917 1.6584
vt 0.9443 1.4782
vt 0.9945 1.5495
vt 0.9945 1.5495
vt 0.999 1.4208
vt 0.9947 1.4204
vt 0.999 1.4208
vt 0.9409 1.3458
vt 0.9947 1.4204
vt 0.9896 1.3647
vt 0.9894 1.17919993
vt 0.9894 1.17919993
vt 0.9481 1.2313
vt 0.9409 1.3458
vt 0.9481 1.2313
vt 0.9896 1.3647
vt 0.9894 1.17919993
vt 0.9444 1.4783
vt 0.9917 1.6584
vt 0.9945 1.5321
vt 0.9951 1.42070007
vt 0.9945 1.5321
vt 0.999 1.42070007
vt 0.9951 1.42070007
vt 0.999 1.42070007
vt 0.9406 1.3457
vt 0.9951 1.42070007
vt 0.9952 1.4204
vt 0.999 1.4208
vt 0.9896 1.3647
vt 0.999 1.4208
vt 0.9896 1.3647
vt 0.9952 1.4204
vt 0.9409 1.3458
vt 0.9894 1.17919993
vt 0.5108 1.7034
vt 0.5122 1.8529
vt 0.9901 1.8529
vt 0.9895 1.7034
vt 0.5122 1.8529
vt 0.5108 1.7034
vt 0.9897 1.9782
vt 0.9901 1.8529
vt 0.5122 1.8529
vt 0.5125 1.9782
vt 0.9895 1.7034
vt 0.9901 1.8529
vt 0.5125 1.9782
vt 0.5122 1.8529
vt 0.9901 1.8529
vt 0.9897 1.9782
vt 0.9443 1.4782
vt 0.9917 1.6584
vt 0.3571 1.1202
vt 0.2778 1.0399
vt 0.8438 1.1086
vt 0.9598 1.0316
vt 0.8757 1.1182
vt 0.9598 1.0316
vt 0.7447 1.3999
vt 0.8757 1.1182
vt 0.9205 1.0911
vt 0.8831 1.1275
vt 0.8733 1.42070007
vt 0.7447 1.3999
vt 0.7447 1.3999
vt 0.8847 1.2111
vt 0.7447 1.3999
vt 0.8831 1.1275
vt 0.5471 1.597
vt 0.5157 1.5336
vt 0.6548 1.6077
vt 0.5471 1.597
vt 0.6548 1.6077
vt 0.5916 1.38179994
vt 0.7447 1.3999
vt 0.7595 1.5625
vt 0.7595 1.5625
vt 0.7447 1.3999
vt 0.8733 1.42070007
vt 0.8867 1.56929994
vt 0.7447 1.3999
vt 0.5916 1.38179994
vt 0.5916 1.38179994
vt 0.6806 1.12680006
vt 0.5916 1.38179994
vt 0.0958 1.2214
vt 0.5916 1.38179994
vt 0.2295 1.2212
vt 0.2778 1.0399
vt 0.4758 1.0776
vt 0.4758 1.0776
vt 0.5056 1.0351
vt 0.5056 1.0351
vt 0.5375 1.0072
vt 0.5916 1.38179994
vt 0.4787 1.3853
vt 0.5157 1.5336
vt 0.4787 1.3853
vt 0.5157 1.5336
vt 0.4679 1.6989
vt 0.6615 1.0512
vt 0.5848 1.0963
vt 0.5375 1.0072
vt 0.6505 1.0073
vt 0.6505 1.0073
vt 0.7608 1.029
vt 0.4679 1.6989
vt 0.4496 1.5531
vt 0.6615 1.0512
vt 0.7608 1.029
vt 0.6615 1.0512
vt 0.6928 1.0916
vt 0.6806 1.12680006
vt 0.5848 1.0963
vt 0.4496 1.5531
vt 0.4679 1.6989
vt 0.4679 1.6989
vt 0.5157 1.5336
vt 0.5157 1.5336
vt 0.5916 1.38179994
vt 0.5157 1.5336
vt 0.5471 1.597
vt 0.5916 1.38179994
vt 0.5848 1.0963
vt 0.5916 1.38179994
vt 0.3571 1.1202
vt 0.5916 1.38179994
vt 0.1465 1.141
vt 0.8757 1.1182
vt 0.7447 1.3999
vt 0.5471 1.597
vt 0.6548 1.6077
vt 0.5849 1.0954
vt 0.4758 1.0776
vt 0.5849 1.0954
vt 0.2778 1.0399
vt 0.5916 1.38179994
vt 0.5849 1.0954
vt 0.6616 1.0514
vt 0.7608 1.029
vt 0.6928 1.0916
vt 0.7608 1.029
vt 0.6928 1.0916
vt 0.6616 1.0514
vt 0.5849 1.0954
vt 0.6806 1.12680006
vt 0.6806 1.12680006
vt 0.5849 1.0954
vt 0.7447 1.3999
vt 0.7407 1.1696
vt 0.7447 1.3999
vt 0.6942 1.16560006
vt 0.6942 1.16560006
vt 0.6806 1.12680006
vt 0.6942 1.16560006
vt 0.5916 1.38179994
vt 0.7407 1.1696
vt 0.6942 1.16560006
vt 0.8438 1.1086
vt 0.7407 1.1696
vt 0.8733 1.42070007
vt 0.9481 1.2313
vt 0.9409 1.3458
vt 0.9481 1.2313
vt 0.8438 1.1086
vt 0.7447 1.3999
vt 0.8754 1.1173
vt 0.9598 1.0316
vt 0.9443 1.4782
vt 0.8867 1.56929994
vt 0.5916 1.38179994
vt 0.0958 1.2214
vt 0.5916 1.38179994
vt 0.2295 1.2212
vt 0.5849 1.0954
vt 0.5056 1.0351
vt 0.5849 1.0954
vt 0.5375 1.0072
vt 0.5849 1.0954
vt 0.6616 1.0514
vt 0.6616 1.0514
vt 0.6505 1.0073
vt 0.5916 1.38179994
vt 0.1465 1.141
vt 0.8867 1.56929994
vt 0.9917 1.6584
vt 0.9444 1.4783
vt 0.8729 1.4201
vt 0.5916 1.38179994
vt 0.3571 1.1202
vt 0.9406 1.3457
vt 0.9894 1.17919993
vt 0.9481 1.2313
vt 0.8729 1.4201
vt 0.9481 1.2313
vt 0.7447 1.3999
vt 0.8867 1.56929994
vt 0.8729 1.4201
vt 0.7447 1.3999
vt 0.7595 1.5625
vt 0.9481 1.2313
vt 0.8847 1.2111
vt 0.8847 1.2111
vt 0.8831 1.1275
vt 0.8831 1.1275
vt 0.8754 1.1173
vt 0.8754 1.1173
vt 0.8831 1.1275
vt 0.9205 1.0911
vt 0.9598 1.0316
vt 0.7447 1.3999
vt 0.5916 1.38179994
vt 0.6548 1.6077
vt 0.7595 1.5625
vt 0.4496 1.5531
vt 0.4046 1.7879
vt 0.2798 1.56220007
vt 0.2189 1.83439994
vt 0.1679 1.30559993
vt 0.375 1.38330007
vt 0.4496 1.5531
vt 0.488 1.3803
vt 0.4046 1.7879
vt 0.4496 1.5531
vt 0.3834 1.61949992
vt 0.4046 1.7879
vt 0.375 1.38330007
vt 0.3097 1.9151
vt 0.2128 1.94300008
vt 0.2189 1.83439994
vt 0.2116 1.96600008
vt 0.2128 1.94300008
vt 0.3067 1.7307
vt 0.2116 1.96600008
vt 0.2189 1.83439994
vt 0.1853 1.78469992
vt 0.1853 1.78469992
vt 0.2189 1.83439994
vt 0.0548 1.9593
vt 0.0361 1.9735
vt 0.1853 1.78469992
vt 0.0361 1.9735
vt 0.2798 1.56220007
vt 0.2116 1.96600008
vt 0.2798 1.56220007
vt 0.1853 1.78469992
vt 0.0548 1.9593
vt 0.2189 1.83439994
vt 0.1853 1.78469992
vt 0.0361 1.9735
vt 0.1458 1.7389
vt 0.0361 1.9735
vt 0.1458 1.7389
vt 0.1853 1.78469992
vt 0.0451 1.769
vt 0.1458 1.7389
vt 0.0242 1.7753
vt 0.0451 1.769
vt 0.2838 1.5602
vt 0.1853 1.78469992
vt 0.2838 1.5602
vt 0.1458 1.7389
vt 0.2838 1.5602
vt 0.0451 1.769
vt 0.2838 1.5602
vt 0.0242 1.7753
vt 0.2838 1.5602
vt 0.1282 1.6369
vt 0.2838 1.5602
vt 0.0429 1.63669991
vt 0.375 1.38330007
vt 0.2838 1.5602
vt 0.3067 1.7307
vt 0.2838 1.5602
vt 0.375 1.38330007
vt 0.3097 1.9151
vt 0.3834 1.61949992
vt 0.3097 1.9151
vt 0.375 1.38330007
vt 0.1581 1.52749991
vt 0.375 1.38330007
vt 0.1378 1.3899
vt 0.375 1.38330007
vt 0.043 1.5273
vt 0.4496 1.5531
vt 0.375 1.38330007
vt 0.4787 1.3853
vt 0.375 1.38330007
vt 0.375 1.38330007
vt 0.0325 1.3482
vt 0.4787 1.3853
vt 0.1679 1.30559993
vt 0.4046 1.7879
vt 0.3834 1.61949992
vt 0.0958 1.2214
vt 0.1679 1.30559993
vt 0.043 1.5273
vt 0.1581 1.52749991
vt 0.1378 1.3899
vt 0.043 1.5273
vt 0.0325 1.3482
vt 0.1378 1.3899
vt 0.1679 1.30559993
vt 0.0325 1.3482
vt 0.1581 1.52749991
vt 0.0429 1.63669991
vt 0.1581 1.52749991
vt 0.2798 1.56220007
vt 0.375 1.38330007
vt 0.2798 1.56220007
vt 0.3067 1.7307
vt 0.3097 1.9151
vt 0.1282 1.6369
vt 0.0242 1.7753
vt 0.0429 1.63669991
vt 0.1282 1.6369
vt 0.2798 1.56220007
vt 0.2128 1.94300008
vt 0.9426 1.4744
vt 0.9367 1.4181
vt 0.9916 1.4205
vt 0.9406 1.3493
vt 0.9906 1.4195
vt 0.9393 1.4181
vt 0.9436 1.4749
vt 0.9898 1.4205
vt 0.941 1.4176
vt 0.9406 1.35100007
vt 0.9413 1.4715
vt 0.9401 1.3498
vt 0.9906 1.419
vt 0.9415 1.4181
vt 0.9441 1.4744
vt 0.9406 1.3498
vt 0.8819 1.4203
vt 0.8807 1.4208
vt 0.8812 1.4203
vt 0.8807 1.4208
vt 0.9426 1.4744
vt 0.9367 1.4181
vt 0.9916 1.4205
vt 0.9367 1.4181
vt 0.9906 1.4195
vt 0.9393 1.4181
vt 0.9898 1.4205
vt 0.941 1.4176
vt 0.9413 1.4715
vt 0.941 1.4176
vt 0.9401 1.3498
vt 0.9393 1.4181
vt 0.9906 1.419
vt 0.9415 1.4181
vt 0.9406 1.3498
vt 0.9415 1.4181
vt 0.9406 1.35100007
vt 0.941 1.4176
vt 0.9413 1.4715
vt 0.8819 1.4203
vt 0.8807 1.4208
vt 0.9415 1.4181
vt 0.9415 1.4181
vt 0.8807 1.4208
vt 0.8812 1.4203
vt 0.9393 1.4181
vt 0.9406 1.3493
vt 0.9367 1.4181
vt 0.9426 1.4744
vt 0.8807 1.4208
vt 0.9393 1.4181
vt 0.8812 1.4203
vn -0.0797 0.6935 -0.7161
vn -0.0321 0.0567 0.9979
vn -0.0437 -0.0492 0.9978
vn -0.6813 0.732 0.0017
vn -0.3201 0.9474 0.0002
vn 0.9403 0.3326 -0.0727
vn 0.9729 0.0213 0.2303
vn 0.7879 -0.6141 0.0451
vn 0.9503 0.0594 0.3055
vn 0.7715 -0.5258 0.3583
vn -0.8554 -0.1442 -0.4975
vn -0.2904 -0.9548 0.0628
vn 0.152 -0.0598 0.9866
vn 0.9982 0.0598 0.009
vn -0.8085 0.5356 -0.2438
vn -0.8739 0.4671 -0.1343
vn -0.1212 -0.1318 0.9838
vn -0.5287 -0.8488 -0.0021
vn 0.2168 -0.9403 -0.2623
vn -0.6816 -0.6237 -0.3827
vn 0.5207 -0.8536 0.0146
vn 0.4613 0.6434 0.611
vn -0.1648 0.0071 0.9863
vn -0.0542 -0.1087 0.9926
vn 0.4568 -0.6282 -0.6298
vn -0.1641 -0.9864 0.001
vn -0.4671 0.3908 0.7931
vn -0.9508 0.1169 0.287
vn -0.9056 0.1021 0.4116
vn -0.9345 0.3059 0.182
vn -0.8405 0.2167 0.4965
vn 0.0622 0.0033 -0.9981
vn -0.0155 -0.0219 -0.9996
vn 0.2582 0.0198 -0.9659
vn -0.1788 -0.0677 -0.9815
vn -0.1682 0.0164 -0.9856
vn -0.1443 -0.2506 -0.9573
vn -0.0842 0.1036 0.991
vn 0.9781 0.2049 0.0353
vn 0.8905 -0.012 -0.4549
vn -0.0479 0.8639 -0.5015
vn 0.6482 0.3652 -0.6682
vn 0.5278 0.7381 -0.4203
vn -0.7375 0.4828 -0.4722
vn -0.0424 0.0077 -0.9991
vn 0.5613 -0.091 0.8226
vn 0.6281 0.6914 0.3572
vn 0.114 -0.06 0.9917
vn 0.0105 0.0178 0.9998
vn 0.3886 0.9038 0.1791
vn 0.5033 -0.2242 0.8345
vn 0.9683 0.2498 0.0003
vn 0.1016 -0.0927 -0.9905
vn 0.7755 0.5363 -0.3331
vn 0.2466 0.6046 -0.7574
vn 0.5775 0.8082 0.1157
vn 0.2266 0.3075 -0.9242
vn -0.3119 0.873 -0.375
vn 0.1119 -0.0626 -0.9917
vn 0.4597 0.8881 0.0003
vn -0.1814 0.8255 -0.5345
vn 0.9926 0.0573 -0.1072
vn -0.9558 0.1751 -0.2361
vn -0.6475 -0.762 0
vn -0.6033 -0.1715 -0.7788
vn 0.5512 0.0368 -0.8336
vn 0.0826 -0.5324 -0.8425
vn 0.8496 -0.5271 0.0211
vn 0.1238 0.2063 -0.9706
vn 1 0.0006 0
vn 0.7575 0.6359 -0.1477
vn -0.5003 -0.8554 -0.134
vn 0.0737 -0.4101 -0.9091
vn 0.0976 0.1383 0.9856
vn 0.8488 0.5167 -0.1124
vn 1 -0.0006 0
vn 0.5144 0.0788 0.8539
vn 0.0846 0.535 0.8406
vn 0.5329 0.1954 0.8233
vn 0.1463 -0.541 0.8282
vn 0.1039 -0.4163 0.9033
vn -0.5685 -0.0795 0.8188
vn -0.501 0.8544 0.1378
vn -0.8864 0.2298 0.4018
vn -0.593 0.0717 -0.802
vn 0.5123 -0.107 -0.8521
vn 0.0463 0.5565 -0.8296
vn 0.1038 0.4092 -0.9065
vn 0.0742 0.4172 0.9058
vn -0.6215 0.1549 0.7679
vn -0.5003 -0.8554 -0.134
vn 0.1039 -0.4163 0.9033
vn 0.0742 0.4172 0.9058
vn -0.501 0.8544 0.1378
vn 0.0737 -0.4101 -0.9091
vn 0.8488 0.5167 -0.1124
vn 0.8496 -0.5271 0.0211
vn 0.1038 0.4092 -0.9065
vn 0.7696 -0.6384 -0.013
vn 0.3217 -0.8461 -0.425
vn -0.5044 -0.3899 -0.7704
vn -0.1727 -0.0638 0.9829
vn -0.867 -0.477 0.1438
vn -0.5287 0.8488 -0.0021
vn -0.1705 0.2104 0.9626
vn 0.5127 0.8544 0.0841
vn 0.2767 0.0225 0.9607
vn 0.1944 0.9225 0.3335
vn 0.2485 -0.257 0.9339
vn -0.9693 -0.2444 -0.0252
vn -0.6512 0.6308 0.4219
vn 0.998 -0.0633 0.0003
vn 0.763 0.6402 0.0892
vn 0.1349 0.1079 0.985
vn 0.8506 0.4872 -0.1981
vn 0.998 -0.0367 -0.0516
vn -0.8372 0.1551 0.5244
vn -0.3297 0.8375 0.4357
vn -0.2959 -0.7257 0.6211
vn -0.6807 -0.7322 -0.02
vn -0.3042 -0.8979 -0.3182
vn -0.963 -0.1207 -0.2411
vn -0.8558 -0.2182 -0.4691
vn -0.9309 -0.3514 -0.0992
vn 0.0481 0.0138 0.9987
vn 0.9988 -0.0483 0.0028
vn -0.1603 0.0785 0.9839
vn -0.9063 -0.1016 -0.4103
vn -0.1641 0.9864 0.001
vn 0.9138 -0.4034 -0.0471
vn 0.5743 0.8078 0.1331
vn 0.0375 -0.0136 -0.9992
vn 0.0539 0.1419 -0.9884
vn -0.1516 0.0113 -0.9884
vn -0.0408 0.1128 -0.9928
vn -0.7836 -0.5246 0.3327
vn 0.0741 0.0283 -0.9968
vn -0.0963 0.1825 -0.9785
vn 0.0083 -0.0896 -0.9959
vn 0.9999 0.0103 0.0004
vn -0.0033 0.0087 1
vn 0.0054 -0.0264 -0.9996
vn 0.6612 -0.7409 -0.1178
vn 0.3773 -0.9154 -0.1401
vn -0.7324 -0.4858 0.4771
vn -0.0157 -0.0571 -0.9982
vn 0.8167 0.2901 -0.4988
vn 0.9683 -0.2498 0.0003
vn 0.0981 0.0897 0.9911
vn 0.5104 0.2268 -0.8295
vn 0.5734 -0.8103 -0.1207
vn 0.1118 0.0627 0.9918
vn 0.5622 0.0909 -0.822
vn 0.4597 -0.8881 0.0003
vn -0.1708 -0.7711 0.6134
vn 0.1142 0.0599 -0.9916
vn 0.9894 -0.0595 0.1327
vn 0.2163 -0.2992 0.9294
vn -0.3315 -0.8365 0.4363
vn 0.7175 -0.5172 0.4665
vn 0.2349 -0.6151 0.7526
vn 0.6463 -0.366 0.6696
vn -0.0467 -0.8605 0.5073
vn 0.5258 -0.7387 0.4217
vn -0.3443 0.1246 0.9306
vn -0.3443 0.1246 0.9306
vn -0.5947 0.0693 0.8009
vn -0.5947 0.0693 0.8009
vn 0.2715 0.3267 0.9053
vn 0.2715 0.3267 0.9053
vn 0.1297 0.6205 0.7734
vn 0.1297 0.6205 0.7734
vn 0.1867 -0.6518 0.7351
vn 0.1867 -0.6518 0.7351
vn 0.4037 -0.0731 0.912
vn 0.4037 -0.0731 0.912
vn 0.2073 0.37 0.9056
vn 0.2073 0.37 0.9056
vn 0.3243 -0.533 0.7815
vn 0.3243 -0.533 0.7815
vn -0.2654 -0.2297 0.9364
vn -0.2654 -0.2297 0.9364
vn -0.4959 -0.0283 0.8679
vn -0.4959 -0.0283 0.8679
vn 0.6174 -0.0667 0.7838
vn 0.6174 -0.0667 0.7838
vn 0.84 -0.2391 0.4871
vn 0.84 -0.2391 0.4871
vn -0.3864 0.095 0.9174
vn -0.3864 0.095 0.9174
vn -0.3504 0.378 0.8569
vn -0.3504 0.378 0.8569
vn -0.4786 0.0976 0.8726
vn -0.4786 0.0976 0.8726
vn -0.3254 0.2648 0.9078
vn -0.3254 0.2648 0.9078
vn 0.1843 -0.5435 0.8189
vn 0.1843 -0.5435 0.8189
vn -0.1028 -0.3032 0.9474
vn -0.1028 -0.3032 0.9474
vn 0.5069 -0.5702 0.6464
vn 0.5069 -0.5702 0.6464
vn 0.1238 -0.6552 0.7452
vn 0.1238 -0.6552 0.7452
vn -0.2914 0.0902 0.9523
vn -0.2914 0.0902 0.9523
vn -0.202 0.2444 0.9484
vn -0.202 0.2444 0.9484
vn -0.2248 -0.3067 0.9249
vn -0.2248 -0.3067 0.9249
vn 0.1363 -0.2283 0.964
vn 0.1363 -0.2283 0.964
vn 0.1512 -0.3807 0.9123
vn 0.1512 -0.3807 0.9123
vn 0.2404 -0.1827 0.9533
vn 0.2404 -0.1827 0.9533
vn 0.4084 0.2051 0.8895
vn 0.4084 0.2051 0.8895
vn -0.4341 0.0113 0.9008
vn -0.4341 0.0113 0.9008
vn -0.3678 -0.1057 0.9239
vn -0.3678 -0.1057 0.9239
vn -0.2371 0.1397 0.9614
vn -0.2371 0.1397 0.9614
vn -0.2781 0.1442 0.9497
vn -0.2781 0.1442 0.9497
vn -0.2946 0.028 0.9552
vn -0.2946 0.028 0.9552
vn -0.2485 0.1143 0.9619
vn -0.2485 0.1143 0.9619
vn -0.2609 0.1402 -0.9551
vn -0.2609 0.1402 -0.9551
vn -0.596 0.0694 -0.8
vn -0.596 0.0694 -0.8
vn 0.2723 0.3276 -0.9047
vn 0.2723 0.3276 -0.9047
vn 0.4266 -0.1399 -0.8936
vn 0.4266 -0.1399 -0.8936
vn 0.2101 -0.7336 -0.6462
vn 0.2101 -0.7336 -0.6462
vn 0.121 0.5788 -0.8065
vn 0.121 0.5788 -0.8065
vn 0.7244 -0.2062 -0.6578
vn 0.7244 -0.2062 -0.6578
vn 0.6015 -0.1063 -0.7917
vn 0.6015 -0.1063 -0.7917
vn 0.325 -0.5341 -0.7805
vn 0.325 -0.5341 -0.7805
vn 0.2079 0.371 -0.9051
vn 0.2079 0.371 -0.9051
vn -0.3703 -0.1064 -0.9228
vn -0.3703 -0.1064 -0.9228
vn 0.2462 -0.187 -0.951
vn 0.2462 -0.187 -0.951
vn 0.1974 -0.299 -0.9336
vn 0.1974 -0.299 -0.9336
vn 0.1043 -0.2626 -0.9593
vn 0.1043 -0.2626 -0.9593
vn -0.2119 -0.332 -0.9192
vn -0.2119 -0.332 -0.9192
vn -0.2662 -0.2303 -0.936
vn -0.2662 -0.2303 -0.936
vn -0.5338 0.0085 -0.8456
vn -0.5338 0.0085 -0.8456
vn -0.4391 0.1079 -0.8919
vn -0.4391 0.1079 -0.8919
vn -0.4005 0.4321 -0.808
vn -0.4005 0.4321 -0.808
vn -0.2747 0.1263 -0.9532
vn -0.2747 0.1263 -0.9532
vn -0.326 0.031 -0.9449
vn -0.326 0.031 -0.9449
vn -0.3086 0.1482 -0.9396
vn -0.3086 0.1482 -0.9396
vn -0.2392 0.141 -0.9607
vn -0.2392 0.141 -0.9607
vn 0.5618 -0.5983 -0.5713
vn 0.5618 -0.5983 -0.5713
vn -0.4688 0.0957 -0.8781
vn -0.4688 0.0957 -0.8781
vn -0.3488 0.2291 -0.9088
vn -0.3488 0.2291 -0.9088
vn 0.16 -0.7043 -0.6916
vn 0.16 -0.7043 -0.6916
vn 0.2453 -0.5651 -0.7877
vn 0.2453 -0.5651 -0.7877
vn -0.1642 -0.2861 -0.944
vn -0.1642 -0.2861 -0.944
vn -0.477 0.0124 -0.8788
vn -0.477 0.0124 -0.8788
vn 0.435 0.2185 -0.8735
vn 0.435 0.2185 -0.8735
vn -0.1879 0.2688 -0.9447
vn -0.1879 0.2688 -0.9447
vn -0.2923 0.0905 -0.952
vn -0.2923 0.0905 -0.952
vn 0.3286 -0.155 0.9317
vn 0.3286 -0.155 0.9317
vn 0.1877 0.7033 0.6856
vn 0.1877 0.7033 0.6856
vn 0.1438 -0.4713 0.8702
vn 0.1438 -0.4713 0.8702
vn -0.5674 0.2874 0.7716
vn -0.5674 0.2874 0.7716
vn 0.7759 0.2157 0.5928
vn 0.7759 0.2157 0.5928
vn -0.5382 0.1321 0.8324
vn -0.5382 0.1321 0.8324
vn -0.376 0.2496 0.8924
vn -0.376 0.2496 0.8924
vn 0.1633 0.2707 0.9487
vn 0.1633 0.2707 0.9487
vn -0.4273 0.2171 -0.8777
vn -0.4273 0.2171 -0.8777
vn 0.1606 0.2664 -0.9504
vn 0.1606 0.2664 -0.9504
vn 0.6035 -0.4896 0.6293
vn 0.6035 -0.4896 0.6293
vn 0.5194 -0.6252 0.5825
vn 0.5194 -0.6252 0.5825
vn -0.3865 0.8399 0.381
vn -0.3865 0.8399 0.381
vn 0.1714 -0.0526 0.9838
vn 0.1714 -0.0526 0.9838
vn 0.3485 -0.118 -0.9298
vn 0.3485 -0.118 -0.9298
vn 0.1444 -0.4733 -0.869
vn 0.1444 -0.4733 -0.869
vn 0.1882 0.7052 -0.6836
vn 0.1882 0.7052 -0.6836
vn 0.2728 -0.6188 -0.7367
vn 0.2728 -0.6188 -0.7367
vn -0.3391 0.2414 -0.9092
vn -0.3391 0.2414 -0.9092
vn -0.2094 0.3356 -0.9184
vn -0.2094 0.3356 -0.9184
vn 0.3115 -0.3927 -0.8653
vn 0.3115 -0.3927 -0.8653
vn -0.0699 0.7202 -0.6903
vn -0.0699 0.7202 -0.6903
vn -0.6682 0.4301 -0.607
vn -0.6682 0.4301 -0.607
vn 0.8667 -0.0743 -0.4933
vn 0.8667 -0.0743 -0.4933
vn 0.6244 -0.0461 -0.7797
vn 0.6244 -0.0461 -0.7797
vn -0.5693 0.2883 -0.7699
vn -0.5693 0.2883 -0.7699
vn 0.7775 0.2162 -0.5906
vn 0.7775 0.2162 -0.5906
vn -0.5403 0.1326 -0.831
vn -0.5403 0.1326 -0.831
vn -0.3985 0.866 -0.3022
vn -0.3985 0.866 -0.3022
vn 0.1776 -0.0545 -0.9826
vn 0.1776 -0.0545 -0.9826
vn 0.2992 -0.4199 -0.8569
vn 0.2992 -0.4199 -0.8569
vn 0.5205 -0.6268 -0.5798
vn 0.5205 -0.6268 -0.5798
vn 0.6051 -0.491 -0.6267
vn 0.6051 -0.491 -0.6267
vn 0.1749 -0.002 -0.9846
vn 0.1749 -0.002 -0.9846
vn -0.5154 0.4983 -0.6972
vn -0.5154 0.4983 -0.6972
vn -0.4079 0.5478 -0.7304
vn -0.4079 0.5478 -0.7304
vn 0.6666 -0.3014 -0.6817
vn 0.6666 -0.3014 -0.6817
vn 0.1715 0.0522 -0.9838
vn 0.1715 0.0522 -0.9838
vn 0.1738 -0.002 0.9848
vn 0.1738 -0.002 0.9848
vn 0.3034 -0.4258 0.8524
vn 0.3034 -0.4258 0.8524
vn 0.3117 -0.3988 0.8624
vn 0.3117 -0.3988 0.8624
vn -0.2047 0.3329 0.9205
vn -0.2047 0.3329 0.9205
vn 0.6223 -0.0459 0.7814
vn 0.6223 -0.0459 0.7814
vn -0.0697 0.7182 0.6923
vn -0.0697 0.7182 0.6923
vn 0.2719 -0.6169 0.7386
vn 0.2719 -0.6169 0.7386
vn -0.7121 0.4584 0.5319
vn -0.7121 0.4584 0.5319
vn 0.7555 -0.0648 0.652
vn 0.7555 -0.0648 0.652
vn -0.356 0.2535 0.8994
vn -0.356 0.2535 0.8994
vn 0.1617 0.0492 0.9856
vn 0.1617 0.0492 0.9856
vn -0.5137 0.4966 0.6996
vn -0.5137 0.4966 0.6996
vn -0.4062 0.5458 0.7328
vn -0.4062 0.5458 0.7328
vn 0.6092 -0.2754 0.7437
vn 0.6092 -0.2754 0.7437
vn -0.3627 -0.1831 0.9137
vn -0.3627 -0.1831 0.9137
vn -0.7217 0.3544 -0.5947
vn -0.7217 0.3544 -0.5947
vn 0.5547 -0.4298 -0.7125
vn 0.5547 -0.4298 -0.7125
vn -0.7449 0.14 -0.6523
vn -0.7449 0.14 -0.6523
vn 0.3031 -0.5065 -0.8072
vn 0.3031 -0.5065 -0.8072
vn 0.3405 0.6829 -0.6464
vn 0.3405 0.6829 -0.6464
vn 0.7552 0.5317 -0.3834
vn 0.7552 0.5317 -0.3834
vn 0.7896 0.3111 -0.5289
vn 0.7896 0.3111 -0.5289
vn -0.442 -0.1941 -0.8757
vn -0.442 -0.1941 -0.8757
vn -0.3975 -0.2006 -0.8954
vn -0.3975 -0.2006 -0.8954
vn 0.2666 -0.4385 -0.8583
vn 0.2666 -0.4385 -0.8583
vn -0.4518 -0.5237 -0.7222
vn -0.4518 -0.5237 -0.7222
vn -0.3506 -0.606 -0.714
vn -0.3506 -0.606 -0.714
vn 0.5201 -0.4748 -0.71
vn 0.5201 -0.4748 -0.71
vn 0.7346 0.2413 -0.6341
vn 0.7346 0.2413 -0.6341
vn -0.4853 -0.1558 0.8603
vn -0.4853 -0.1558 0.8603
vn 0.8341 0.2379 0.4977
vn 0.8341 0.2379 0.4977
vn 0.7897 0.2594 0.556
vn 0.7897 0.2594 0.556
vn 0.3031 0.5065 0.8072
vn 0.3031 0.5065 0.8072
vn 0.5547 0.4298 0.7125
vn 0.5547 0.4298 0.7125
vn 0.7552 0.5317 0.3834
vn 0.7552 0.5317 0.3834
vn 0.3405 0.6829 0.6464
vn 0.3405 0.6829 0.6464
vn 0.3031 -0.5065 0.8072
vn 0.3031 -0.5065 0.8072
vn 0.5547 -0.4298 0.7125
vn 0.5547 -0.4298 0.7125
vn 0.5094 -0.488 0.7088
vn 0.5094 -0.488 0.7088
vn -0.3379 -0.6153 0.7122
vn -0.3379 -0.6153 0.7122
vn -0.4518 -0.5237 0.7222
vn -0.4518 -0.5237 0.7222
vn 0.2666 -0.4385 0.8583
vn 0.2666 -0.4385 0.8583
vn -0.7217 0.3544 0.5947
vn -0.7217 0.3544 0.5947
vn -0.7449 0.14 0.6523
vn -0.7449 0.14 0.6523
vn 0.2666 0.4385 -0.8583
vn 0.2666 0.4385 -0.8583
vn 0.3031 0.5065 -0.8072
vn 0.3031 0.5065 -0.8072
vn 0.5547 0.4298 -0.7125
vn 0.5547 0.4298 -0.7125
vn 0.5201 0.4748 -0.71
vn 0.5201 0.4748 -0.71
vn -0.3506 0.606 -0.714
vn -0.3506 0.606 -0.714
vn -0.4518 0.5237 -0.7222
vn -0.4518 0.5237 -0.7222
vn 0.5094 0.488 0.7088
vn 0.5094 0.488 0.7088
vn -0.3379 0.6153 0.7122
vn -0.3379 0.6153 0.7122
vn -0.4518 0.5237 0.7222
vn -0.4518 0.5237 0.7222
vn 0.2666 0.4385 0.8583
vn 0.2666 0.4385 0.8583
vn -0.652 0 0.7582
vn -0.652 0 0.7582
vn -0.652 0 0.7582
vn -0.652 0 0.7582
vn -0.6562 0 -0.7546
vn -0.6562 0 -0.7546
vn 0.652 0 0.7582
vn 0.652 0 0.7582
vn 0.652 0 0.7582
vn 0.652 0 0.7582
vn -0.6562 0 -0.7546
vn -0.6562 0 -0.7546
vn 0.6562 0 -0.7546
vn 0.6562 0 -0.7546
vn 0.6562 0 -0.7546
vn 0.6562 0 -0.7546
vn 0.3405 -0.6829 0.6464
vn 0.3405 -0.6829 0.6464
vn 0.4084 -0.2051 0.8895
vn 0.4084 -0.2051 0.8895
vn -0.4786 -0.0976 0.8726
vn -0.4786 -0.0976 0.8726
vn 0.5069 0.5702 0.6464
vn 0.5069 0.5702 0.6464
vn 0.1843 0.5435 0.8189
vn 0.1843 0.5435 0.8189
vn 0.1238 0.6552 0.7452
vn 0.1238 0.6552 0.7452
vn -0.4853 0.1558 0.8603
vn -0.4853 0.1558 0.8603
vn -0.3627 0.1831 0.9137
vn -0.3627 0.1831 0.9137
vn -0.1028 0.3032 0.9474
vn -0.1028 0.3032 0.9474
vn 0.2073 -0.37 0.9056
vn 0.2073 -0.37 0.9056
vn 0.3243 0.533 0.7815
vn 0.3243 0.533 0.7815
vn 0.6174 0.0667 0.7838
vn 0.6174 0.0667 0.7838
vn 0.84 0.2391 0.4871
vn 0.84 0.2391 0.4871
vn 0.8341 -0.2379 0.4977
vn 0.8341 -0.2379 0.4977
vn 0.7897 -0.2594 0.556
vn 0.7897 -0.2594 0.556
vn -0.4959 0.0283 0.8679
vn -0.4959 0.0283 0.8679
vn -0.2654 0.2297 0.9364
vn -0.2654 0.2297 0.9364
vn -0.5947 -0.0693 0.8009
vn -0.5947 -0.0693 0.8009
vn 0.2715 -0.3267 0.9053
vn 0.2715 -0.3267 0.9053
vn -0.4341 -0.0113 0.9008
vn -0.4341 -0.0113 0.9008
vn -0.2485 -0.1143 0.9619
vn -0.2485 -0.1143 0.9619
vn -0.2946 -0.028 0.9552
vn -0.2946 -0.028 0.9552
vn -0.3443 -0.1246 0.9306
vn -0.3443 -0.1246 0.9306
vn 0.4037 0.0731 0.912
vn 0.4037 0.0731 0.912
vn 0.1867 0.6518 0.7351
vn 0.1867 0.6518 0.7351
vn -0.2781 -0.1442 0.9497
vn -0.2781 -0.1442 0.9497
vn -0.2371 -0.1397 0.9614
vn -0.2371 -0.1397 0.9614
vn -0.3678 0.1057 0.9239
vn -0.3678 0.1057 0.9239
vn 0.1297 -0.6205 0.7734
vn 0.1297 -0.6205 0.7734
vn 0.2404 0.1827 0.9533
vn 0.2404 0.1827 0.9533
vn 0.1512 0.3807 0.9123
vn 0.1512 0.3807 0.9123
vn 0.1363 0.2283 0.964
vn 0.1363 0.2283 0.964
vn 0.121 -0.5788 -0.8065
vn 0.121 -0.5788 -0.8065
vn 0.2101 0.7336 -0.6462
vn 0.2101 0.7336 -0.6462
vn 0.4266 0.1399 -0.8936
vn 0.4266 0.1399 -0.8936
vn 0.2079 -0.371 -0.9051
vn 0.2079 -0.371 -0.9051
vn -0.2248 0.3067 0.9249
vn -0.2248 0.3067 0.9249
vn -0.202 -0.2444 0.9484
vn -0.202 -0.2444 0.9484
vn -0.2914 -0.0902 0.9523
vn -0.2914 -0.0902 0.9523
vn -0.3254 -0.2648 0.9078
vn -0.3254 -0.2648 0.9078
vn 0.325 0.5341 -0.7805
vn 0.325 0.5341 -0.7805
vn -0.477 -0.0124 -0.8788
vn -0.477 -0.0124 -0.8788
vn 0.435 -0.2185 -0.8735
vn 0.435 -0.2185 -0.8735
vn -0.1879 -0.2688 -0.9447
vn -0.1879 -0.2688 -0.9447
vn -0.3703 0.1064 -0.9228
vn -0.3703 0.1064 -0.9228
vn 0.2462 0.187 -0.951
vn 0.2462 0.187 -0.951
vn 0.1974 0.299 -0.9336
vn 0.1974 0.299 -0.9336
vn 0.1043 0.2626 -0.9593
vn 0.1043 0.2626 -0.9593
vn -0.2119 0.332 -0.9192
vn -0.2119 0.332 -0.9192
vn -0.3504 -0.378 0.8569
vn -0.3504 -0.378 0.8569
vn -0.3864 -0.095 0.9174
vn -0.3864 -0.095 0.9174
vn -0.2662 0.2303 -0.936
vn -0.2662 0.2303 -0.936
vn -0.5338 -0.0085 -0.8456
vn -0.5338 -0.0085 -0.8456
vn -0.4391 -0.1079 -0.8919
vn -0.4391 -0.1079 -0.8919
vn -0.4005 -0.4321 -0.808
vn -0.4005 -0.4321 -0.808
vn -0.7449 -0.14 0.6523
vn -0.7449 -0.14 0.6523
vn -0.7217 -0.3544 0.5947
vn -0.7217 -0.3544 0.5947
vn -0.3488 -0.2291 -0.9088
vn -0.3488 -0.2291 -0.9088
vn -0.4688 -0.0957 -0.8781
vn -0.4688 -0.0957 -0.8781
vn 0.7552 -0.5317 0.3834
vn 0.7552 -0.5317 0.3834
vn -0.2609 -0.1402 -0.9551
vn -0.2609 -0.1402 -0.9551
vn -0.596 -0.0694 -0.8
vn -0.596 -0.0694 -0.8
vn -0.2747 -0.1263 -0.9532
vn -0.2747 -0.1263 -0.9532
vn -0.326 -0.031 -0.9449
vn -0.326 -0.031 -0.9449
vn -0.3086 -0.1482 -0.9396
vn -0.3086 -0.1482 -0.9396
vn -0.2392 -0.141 -0.9607
vn -0.2392 -0.141 -0.9607
vn 0.2723 -0.3276 -0.9047
vn 0.2723 -0.3276 -0.9047
vn 0.3405 -0.6829 -0.6464
vn 0.3405 -0.6829 -0.6464
vn 0.7552 -0.5317 -0.3834
vn 0.7552 -0.5317 -0.3834
vn -0.2923 -0.0905 -0.952
vn -0.2923 -0.0905 -0.952
vn -0.7217 -0.3544 -0.5947
vn -0.7217 -0.3544 -0.5947
vn -0.7449 -0.14 -0.6523
vn -0.7449 -0.14 -0.6523
vn -0.442 0.1941 -0.8757
vn -0.442 0.1941 -0.8757
vn 0.7896 -0.3111 -0.5289
vn 0.7896 -0.3111 -0.5289
vn 0.7346 -0.2413 -0.6341
vn 0.7346 -0.2413 -0.6341
vn -0.3975 0.2006 -0.8954
vn -0.3975 0.2006 -0.8954
vn -0.1642 0.2861 -0.944
vn -0.1642 0.2861 -0.944
vn 0.2453 0.5651 -0.7877
vn 0.2453 0.5651 -0.7877
vn 0.16 0.7043 -0.6916
vn 0.16 0.7043 -0.6916
vn 0.5618 0.5983 -0.5713
vn 0.5618 0.5983 -0.5713
vn 0.6015 0.1063 -0.7917
vn 0.6015 0.1063 -0.7917
vn 0.7244 0.2062 -0.6578
vn 0.7244 0.2062 -0.6578
vn 0.1438 0.4713 0.8702
vn 0.1438 0.4713 0.8702
vn -0.3985 -0.866 -0.3022
vn -0.3985 -0.866 -0.3022
vn -0.4273 -0.2171 -0.8777
vn -0.4273 -0.2171 -0.8777
vn 0.3485 0.118 -0.9298
vn 0.3485 0.118 -0.9298
vn 0.1444 0.4733 -0.869
vn 0.1444 0.4733 -0.869
vn 0.1882 -0.7052 -0.6836
vn 0.1882 -0.7052 -0.6836
vn 0.2728 0.6188 -0.7367
vn 0.2728 0.6188 -0.7367
vn -0.3865 -0.8399 0.381
vn -0.3865 -0.8399 0.381
vn 0.1714 0.0526 0.9838
vn 0.1714 0.0526 0.9838
vn 0.3034 0.4258 0.8524
vn 0.3034 0.4258 0.8524
vn 0.5194 0.6252 0.5825
vn 0.5194 0.6252 0.5825
vn 0.6035 0.4896 0.6293
vn 0.6035 0.4896 0.6293
vn 0.1738 0.002 0.9848
vn 0.1738 0.002 0.9848
vn -0.5137 -0.4966 0.6996
vn -0.5137 -0.4966 0.6996
vn 0.2992 0.4199 -0.8569
vn 0.2992 0.4199 -0.8569
vn 0.5205 0.6268 -0.5798
vn 0.5205 0.6268 -0.5798
vn 0.6051 0.491 -0.6267
vn 0.6051 0.491 -0.6267
vn 0.1749 0.002 -0.9846
vn 0.1749 0.002 -0.9846
vn -0.5154 -0.4983 -0.6972
vn -0.5154 -0.4983 -0.6972
vn -0.4079 -0.5478 -0.7304
vn -0.4079 -0.5478 -0.7304
vn 0.6666 0.3014 -0.6817
vn 0.6666 0.3014 -0.6817
vn 0.1715 -0.0522 -0.9838
vn 0.1715 -0.0522 -0.9838
vn -0.4062 -0.5458 0.7328
vn -0.4062 -0.5458 0.7328
vn 0.6092 0.2754 0.7437
vn 0.6092 0.2754 0.7437
vn 0.1617 -0.0492 0.9856
vn 0.1617 -0.0492 0.9856
vn -0.7121 -0.4584 0.5319
vn -0.7121 -0.4584 0.5319
vn 0.7555 0.0648 0.652
vn 0.7555 0.0648 0.652
vn -0.356 -0.2535 0.8994
vn -0.356 -0.2535 0.8994
vn -0.2047 -0.3329 0.9205
vn -0.2047 -0.3329 0.9205
vn 0.3117 0.3988 0.8624
vn 0.3117 0.3988 0.8624
vn -0.0697 -0.7182 0.6923
vn -0.0697 -0.7182 0.6923
vn 0.2719 0.6169 0.7386
vn 0.2719 0.6169 0.7386
vn 0.6223 0.0459 0.7814
vn 0.6223 0.0459 0.7814
vn 0.7759 -0.2157 0.5928
vn 0.7759 -0.2157 0.5928
vn -0.5674 -0.2874 0.7716
vn -0.5674 -0.2874 0.7716
vn 0.3286 0.155 0.9317
vn 0.3286 0.155 0.9317
vn -0.376 -0.2496 0.8924
vn -0.376 -0.2496 0.8924
vn -0.5382 -0.1321 0.8324
vn -0.5382 -0.1321 0.8324
vn 0.1633 -0.2707 0.9487
vn 0.1633 -0.2707 0.9487
vn 0.1877 -0.7033 0.6856
vn 0.1877 -0.7033 0.6856
vn 0.1606 -0.2664 -0.9504
vn 0.1606 -0.2664 -0.9504
vn 0.6244 0.0461 -0.7797
vn 0.6244 0.0461 -0.7797
vn -0.5693 -0.2883 -0.7699
vn -0.5693 -0.2883 -0.7699
vn 0.7775 -0.2162 -0.5906
vn 0.7775 -0.2162 -0.5906
vn -0.5403 -0.1326 -0.831
vn -0.5403 -0.1326 -0.831
vn -0.3391 -0.2414 -0.9092
vn -0.3391 -0.2414 -0.9092
vn -0.2094 -0.3356 -0.9184
vn -0.2094 -0.3356 -0.9184
vn 0.3115 0.3927 -0.8653
vn 0.3115 0.3927 -0.8653
vn -0.0699 -0.7202 -0.6903
vn -0.0699 -0.7202 -0.6903
vn -0.6682 -0.4301 -0.607
vn -0.6682 -0.4301 -0.607
vn 0.8667 0.0743 -0.4933
vn 0.8667 0.0743 -0.4933
vn 0.1776 0.0545 -0.9826
vn 0.1776 0.0545 -0.9826
vn 0.5512 0.0368 -0.8336
vn 0.0287 -0.0231 -0.9993
vn 0.0826 -0.5324 -0.8425
vn -0.6033 -0.1715 -0.7788
vn 0.1463 -0.541 0.8282
vn -0.1176 -0.0985 0.9882
vn 0.5329 0.1954 0.8233
vn 0.0846 0.535 0.8406
vn 0.0293 0.0226 0.9993
vn -0.6215 0.1549 0.7679
vn 0.5144 0.0788 0.8539
vn -0.5685 -0.0795 0.8188
vn 0.0463 0.5565 -0.8296
vn -0.1212 0.1223 -0.9851
vn 0.5123 -0.107 -0.8521
vn -0.593 0.0717 -0.802
vn 0.2485 -0.257 0.9339
vn 0.0083 -0.0896 -0.9959
vn 0.0976 0.1383 0.9856
vn 0.1238 0.2063 -0.9706
vn 0.4283 -0.3391 -0.8376
vn 0.4283 -0.3391 -0.8376
vn -0.4783 -0.5626 -0.6743
vn -0.4783 -0.5626 -0.6743
vn 0.4166 -0.3307 0.8468
vn 0.4166 -0.3307 0.8468
vn -0.479 0.5638 0.6729
vn -0.479 0.5638 0.6729
vn 0.4297 0.3401 0.8365
vn 0.4297 0.3401 0.8365
vn -0.4642 -0.5419 0.7006
vn -0.4642 -0.5419 0.7006
vn 0.4272 0.3383 -0.8385
vn 0.4272 0.3383 -0.8385
vn -0.477 0.5608 -0.6767
vn -0.477 0.5608 -0.6767
vn -0.6831 -0.1135 0.7214
vn -0.6831 -0.1135 0.7214
vn 0.4397 -0.2626 0.8589
vn 0.4397 -0.2626 0.8589
vn -0.6822 -0.1131 -0.7224
vn -0.6822 -0.1131 -0.7224
vn 0.4392 -0.2622 -0.8593
vn 0.4392 -0.2622 -0.8593
vn -0.6884 0.1157 0.7161
vn -0.6884 0.1157 0.7161
vn -0.6817 0.1129 -0.7228
vn -0.6817 0.1129 -0.7228
vn 0.4383 0.2615 -0.8599
vn 0.4383 0.2615 -0.8599
vn 0.4505 0.2712 0.8506
vn 0.4505 0.2712 0.8506
usemtl PaulBow123_part_0_material_0
f 1/1/1 3/3/3 2/2/2
f 4/4/4 3/3/3 1/1/1
f 5/5/5 3/3/3 4/4/4
f 2/2/2 7/7/7 6/6/6
f 2/2/2 8/8/8 7/7/7
f 3/3/3 8/8/8 2/2/2
f 3/3/3 9/9/9 8/8/8
f 3/3/3 10/10/10 9/9/9
f 11/11/11 3/3/3 12/12/12
f 11/11/11 13/13/13 3/3/3
f 13/13/13 10/10/10 3/3/3
f 10/10/10 13/13/13 14/14/14
f 15/15/15 13/13/13 11/11/11
f 16/16/16 13/13/13 15/15/15
f 17/17/17 16/16/16 18/18/18
f 16/16/16 17/17/17 13/13/13
f 19/19/19 13/13/13 17/17/17
f 20/20/20 13/13/13 19/19/19
f 21/21/21 17/17/17 18/18/18
f 17/17/17 21/21/21 19/19/19
f 22/22/22 3/3/3 5/5/5
f 23/23/23 3/3/3 22/22/22
f 12/12/12 3/3/3 23/23/23
f 24/24/24 12/12/12 23/23/23
f 12/12/12 24/24/24 25/25/25
f 25/25/25 24/24/24 26/26/26
f 23/23/23 22/22/22 27/27/27
f 23/23/23 27/27/27 28/28/28
f 24/24/24 29/29/29 26/26/26
f 24/24/24 30/30/30 29/29/29
f 30/30/30 24/24/24 23/23/23
f 23/23/23 31/31/31 30/30/30
f 23/23/23 28/28/28 31/31/31
f 32/32/32 33/33/33 1/1/1
f 1/1/1 33/33/33 4/4/4
f 4/4/4 33/33/33 5/5/5
f 32/32/32 8/8/8 33/33/33
f 32/32/32 7/7/7 8/8/8
f 32/32/32 6/6/6 7/7/7
f 34/34/34 10/10/10 14/14/14
f 10/10/10 34/34/34 33/33/33
f 33/33/33 9/9/9 10/10/10
f 33/33/33 8/8/8 9/9/9
f 29/29/29 35/35/35 26/26/26
f 35/35/35 25/25/25 26/26/26
f 36/36/36 25/25/25 35/35/35
f 25/25/25 36/36/36 12/12/12
f 33/33/33 12/12/12 36/36/36
f 33/33/33 11/11/11 12/12/12
f 34/34/34 11/11/11 33/33/33
f 34/34/34 15/15/15 11/11/11
f 34/34/34 16/16/16 15/15/15
f 28/28/28 36/36/36 31/31/31
f 31/31/31 36/36/36 30/30/30
f 30/30/30 36/36/36 35/35/35
f 30/30/30 35/35/35 29/29/29
f 37/37/37 21/21/21 18/18/18
f 16/16/16 37/37/37 18/18/18
f 37/37/37 16/16/16 34/34/34
f 21/21/21 37/37/37 19/19/19
f 34/34/34 19/19/19 37/37/37
f 34/34/34 20/20/20 19/19/19
f 27/27/27 36/36/36 28/28/28
f 22/22/22 36/36/36 27/27/27
f 22/22/22 33/33/33 36/36/36
f 5/5/5 33/33/33 22/22/22
f 2/2/2 6/6/6 38/38/38
f 38/38/38 40/40/40 39/39/39
f 38/38/38 6/6/6 40/40/40
f 41/41/41 38/38/38 42/42/42
f 43/43/43 38/38/38 41/41/41
f 44/44/44 38/38/38 43/43/43
f 44/44/44 2/2/2 38/38/38
f 1/1/1 2/2/2 44/44/44
f 32/32/32 44/44/44 45/45/45
f 32/32/32 1/1/1 44/44/44
f 46/46/46 48/48/48 47/47/47
f 49/49/49 47/47/47 48/48/48
f 49/49/49 50/50/50 47/47/47
f 49/49/49 51/51/51 50/50/50
f 45/45/45 6/6/6 32/32/32
f 45/45/45 40/40/40 6/6/6
f 45/45/45 39/39/39 40/40/40
f 39/39/39 45/45/45 52/52/52
f 53/53/53 55/55/55 54/54/54
f 45/45/45 55/55/55 53/53/53
f 56/56/56 45/45/45 53/53/53
f 45/45/45 56/56/56 52/52/52
f 53/53/53 58/58/58 57/57/57
f 53/53/53 54/54/54 58/58/58
f 45/45/45 42/42/42 55/55/55
f 45/45/45 41/41/41 42/42/42
f 45/45/45 43/43/43 41/41/41
f 45/45/45 44/44/44 43/43/43
f 50/50/50 53/53/53 47/47/47
f 51/51/51 53/53/53 50/50/50
f 56/56/56 53/53/53 51/51/51
f 47/47/47 53/53/53 59/59/59
f 59/59/59 46/46/46 47/47/47
f 46/46/46 59/59/59 60/60/60
f 59/59/59 61/61/61 60/60/60
f 53/53/53 61/61/61 59/59/59
f 53/53/53 62/62/62 61/61/61
f 53/53/53 57/57/57 62/62/62
f 48/48/48 46/46/46 60/60/60
f 49/49/49 56/56/56 51/51/51
f 38/38/38 56/56/56 49/49/49
f 55/55/55 38/38/38 49/49/49
f 42/42/42 38/38/38 55/55/55
f 56/56/56 38/38/38 52/52/52
f 38/38/38 39/39/39 52/52/52
f 58/58/58 49/49/49 57/57/57
f 54/54/54 49/49/49 58/58/58
f 55/55/55 49/49/49 54/54/54
f 57/57/57 49/49/49 62/62/62
f 61/61/61 48/48/48 60/60/60
f 61/61/61 49/49/49 48/48/48
f 62/62/62 49/49/49 61/61/61
f 63/63/63 13/13/13 20/20/20
f 63/63/63 65/65/65 64/64/64
f 66/66/66 68/68/68 67/67/67
f 65/65/65 63/63/63 69/69/69
f 68/68/68 66/66/66 70/70/70
f 66/66/66 71/71/71 70/70/70
f 71/71/71 66/66/66 69/69/69
f 34/34/34 71/71/71 69/69/69
f 69/69/69 63/63/63 34/34/34
f 34/34/34 63/63/63 20/20/20
f 65/65/65 72/72/72 64/64/64
f 72/72/72 65/65/65 67/67/67
f 72/72/72 67/67/67 73/73/73
f 67/67/67 68/68/68 73/73/73
f 71/71/71 34/34/34 14/14/14
f 63/63/63 74/74/74 13/13/13
f 74/74/74 14/14/14 13/13/13
f 14/14/14 74/74/74 71/71/71
f 75/75/75 77/77/77 76/76/76
f 78/78/78 77/77/77 75/75/75
f 74/74/74 79/79/79 71/71/71
f 71/71/71 79/79/79 70/70/70
f 79/79/79 68/68/68 70/70/70
f 79/79/79 80/80/80 68/68/68
f 68/68/68 80/80/80 81/81/81
f 80/80/80 72/72/72 81/81/81
f 82/82/82 72/72/72 80/80/80
f 72/72/72 82/82/82 64/64/64
f 64/64/64 82/82/82 63/63/63
f 82/82/82 74/74/74 63/63/63
f 83/83/83 85/85/85 84/84/84
f 86/86/86 75/75/75 76/76/76
f 75/75/75 86/86/86 87/87/87
f 75/75/75 87/87/87 88/88/88
f 87/87/87 83/83/83 88/88/88
f 85/85/85 83/83/83 87/87/87
f 78/78/78 75/75/75 89/89/89
f 83/83/83 78/78/78 89/89/89
f 83/83/83 90/90/90 78/78/78
f 90/90/90 83/83/83 84/84/84
f 91/91/91 93/93/93 92/92/92
f 93/93/93 91/91/91 94/94/94
f 95/95/95 94/94/94 91/91/91
f 96/96/96 92/92/92 93/93/93
f 92/92/92 96/96/96 97/97/97
f 94/94/94 95/95/95 98/98/98
f 97/97/97 98/98/98 95/95/95
f 98/98/98 97/97/97 96/96/96
f 77/77/77 99/99/99 76/76/76
f 100/100/100 102/102/102 101/101/101
f 103/103/103 105/105/105 104/104/104
f 105/105/105 106/106/106 104/104/104
f 107/107/107 108/108/108 105/105/105
f 106/106/106 105/105/105 108/108/108
f 109/109/109 110/110/110 107/107/107
f 107/107/107 110/110/110 111/111/111
f 107/107/107 111/111/111 108/108/108
f 112/112/112 114/114/114 113/113/113
f 115/115/115 114/114/114 112/112/112
f 115/115/115 107/107/107 114/114/114
f 107/107/107 115/115/115 116/116/116
f 116/116/116 109/109/109 107/107/107
f 109/109/109 116/116/116 99/99/99
f 107/107/107 117/117/117 114/114/114
f 114/114/114 117/117/117 118/118/118
f 114/114/114 120/120/120 119/119/119
f 114/114/114 121/121/121 120/120/120
f 101/101/101 102/102/102 122/122/122
f 122/122/122 102/102/102 123/123/123
f 123/123/123 102/102/102 124/124/124
f 114/114/114 119/119/119 125/125/125
f 113/113/113 114/114/114 125/125/125
f 113/113/113 125/125/125 126/126/126
f 127/127/127 124/124/124 102/102/102
f 124/124/124 127/127/127 128/128/128
f 128/128/128 127/127/127 129/129/129
f 126/126/126 125/125/125 130/130/130
f 127/127/127 131/131/131 129/129/129
f 127/127/127 118/118/118 131/131/131
f 118/118/118 127/127/127 102/102/102
f 130/130/130 132/132/132 126/126/126
f 126/126/126 132/132/132 113/113/113
f 113/113/113 132/132/132 133/133/133
f 113/113/113 133/133/133 112/112/112
f 114/114/114 118/118/118 102/102/102
f 114/114/114 102/102/102 100/100/100
f 114/114/114 100/100/100 121/121/121
f 105/105/105 103/103/103 107/107/107
f 112/112/112 133/133/133 115/115/115
f 134/134/134 101/101/101 122/122/122
f 134/134/134 100/100/100 101/101/101
f 133/133/133 100/100/100 134/134/134
f 135/135/135 128/128/128 129/129/129
f 131/131/131 135/135/135 129/129/129
f 131/131/131 134/134/134 135/135/135
f 134/134/134 131/131/131 118/118/118
f 118/118/118 133/133/133 134/134/134
f 107/107/107 103/103/103 136/136/136
f 107/107/107 136/136/136 117/117/117
f 117/117/117 133/133/133 118/118/118
f 117/117/117 137/137/137 133/133/133
f 136/136/136 137/137/137 117/117/117
f 103/103/103 137/137/137 136/136/136
f 109/109/109 90/90/90 110/110/110
f 90/90/90 84/84/84 110/110/110
f 103/103/103 138/138/138 137/137/137
f 138/138/138 103/103/103 104/104/104
f 77/77/77 109/109/109 99/99/99
f 133/133/133 132/132/132 119/119/119
f 133/133/133 119/119/119 120/120/120
f 134/134/134 122/122/122 123/123/123
f 134/134/134 123/123/123 124/124/124
f 134/134/134 124/124/124 135/135/135
f 135/135/135 124/124/124 128/128/128
f 133/133/133 120/120/120 121/121/121
f 99/99/99 86/86/86 76/76/76
f 86/86/86 99/99/99 139/139/139
f 133/133/133 121/121/121 100/100/100
f 85/85/85 110/110/110 84/84/84
f 110/110/110 85/85/85 139/139/139
f 110/110/110 139/139/139 137/137/137
f 99/99/99 137/137/137 139/139/139
f 137/137/137 99/99/99 116/116/116
f 110/110/110 137/137/137 111/111/111
f 111/111/111 137/137/137 108/108/108
f 108/108/108 137/137/137 138/138/138
f 138/138/138 106/106/106 108/108/108
f 106/106/106 138/138/138 104/104/104
f 137/137/137 115/115/115 133/133/133
f 115/115/115 137/137/137 116/116/116
f 130/130/130 141/141/141 140/140/140
f 142/142/142 144/144/144 143/143/143
f 145/145/145 132/132/132 146/146/146
f 130/130/130 146/146/146 132/132/132
f 140/140/140 146/146/146 130/130/130
f 147/147/147 146/146/146 140/140/140
f 146/146/146 147/147/147 148/148/148
f 144/144/144 149/149/149 143/143/143
f 150/150/150 149/149/149 144/144/144
f 151/151/151 149/149/149 150/150/150
f 143/143/143 149/149/149 152/152/152
f 152/152/152 153/153/153 143/143/143
f 153/153/153 152/152/152 154/154/154
f 152/152/152 155/155/155 154/154/154
f 142/142/142 151/151/151 150/150/150
f 142/142/142 143/143/143 156/156/156
f 153/153/153 156/156/156 143/143/143
f 156/156/156 153/153/153 154/154/154
f 155/155/155 156/156/156 154/154/154
f 155/155/155 142/142/142 156/156/156
f 157/157/157 142/142/142 155/155/155
f 158/158/158 142/142/142 157/157/157
f 149/149/149 155/155/155 152/152/152
f 149/149/149 157/157/157 155/155/155
f 149/149/149 158/158/158 157/157/157
f 149/149/149 159/159/159 158/158/158
f 149/149/149 160/160/160 159/159/159
f 149/149/149 161/161/161 160/160/160
f 141/141/141 161/161/161 149/149/149
f 151/151/151 141/141/141 149/149/149
f 141/141/141 151/151/151 148/148/148
f 147/147/147 141/141/141 148/148/148
f 141/141/141 162/162/162 161/161/161
f 141/141/141 164/164/164 163/163/163
f 141/141/141 163/163/163 162/162/162
f 130/130/130 125/125/125 141/141/141
f 125/125/125 145/145/145 141/141/141
f 141/141/141 145/145/145 164/164/164
f 125/125/125 119/119/119 145/145/145
f 140/140/140 141/141/141 147/147/147
f 119/119/119 132/132/132 145/145/145
f 162/162/162 146/146/146 161/161/161
f 163/163/163 146/146/146 162/162/162
f 164/164/164 146/146/146 163/163/163
f 145/145/145 146/146/146 164/164/164
f 161/161/161 142/142/142 160/160/160
f 161/161/161 146/146/146 142/142/142
f 146/146/146 151/151/151 142/142/142
f 151/151/151 146/146/146 148/148/148
f 159/159/159 142/142/142 158/158/158
f 160/160/160 142/142/142 159/159/159
f 142/142/142 150/150/150 144/144/144
f 165/165/165 3/3/3 166/166/166
f 167/167/167 3/3/3 168/168/168
f 169/169/169 3/3/3 170/170/170
f 171/171/171 7/7/7 172/172/172
f 173/173/173 8/8/8 174/174/174
f 175/175/175 8/8/8 176/176/176
f 177/177/177 9/9/9 178/178/178
f 179/179/179 10/10/10 180/180/180
f 181/181/181 3/3/3 182/182/182
f 183/183/183 13/13/13 184/184/184
f 185/185/185 10/10/10 186/186/186
f 187/187/187 13/13/13 188/188/188
f 189/189/189 13/13/13 190/190/190
f 191/191/191 13/13/13 192/192/192
f 193/193/193 16/16/16 194/194/194
f 195/195/195 17/17/17 196/196/196
f 197/197/197 13/13/13 198/198/198
f 199/199/199 13/13/13 200/200/200
f 201/201/201 17/17/17 202/202/202
f 203/203/203 21/21/21 204/204/204
f 205/205/205 3/3/3 206/206/206
f 207/207/207 3/3/3 208/208/208
f 209/209/209 3/3/3 210/210/210
f 211/211/211 12/12/12 212/212/212
f 213/213/213 24/24/24 214/214/214
f 215/215/215 24/24/24 216/216/216
f 217/217/217 22/22/22 218/218/218
f 219/219/219 27/27/27 220/220/220
f 221/221/221 29/29/29 222/222/222
f 223/223/223 30/30/30 224/224/224
f 225/225/225 24/24/24 226/226/226
f 227/227/227 31/31/31 228/228/228
f 229/229/229 28/28/28 230/230/230
f 231/231/231 33/33/33 232/232/232
f 233/233/233 33/33/33 234/234/234
f 235/235/235 33/33/33 236/236/236
f 237/237/237 8/8/8 238/238/238
f 239/239/239 7/7/7 240/240/240
f 241/241/241 6/6/6 242/242/242
f 243/243/243 10/10/10 244/244/244
f 245/245/245 34/34/34 246/246/246
f 247/247/247 9/9/9 248/248/248
f 249/249/249 8/8/8 250/250/250
f 251/251/251 35/35/35 252/252/252
f 253/253/253 25/25/25 254/254/254
f 255/255/255 25/25/25 256/256/256
f 257/257/257 36/36/36 258/258/258
f 259/259/259 12/12/12 260/260/260
f 261/261/261 11/11/11 262/262/262
f 263/263/263 11/11/11 264/264/264
f 265/265/265 15/15/15 266/266/266
f 267/267/267 16/16/16 268/268/268
f 269/269/269 36/36/36 270/270/270
f 271/271/271 36/36/36 272/272/272
f 273/273/273 36/36/36 274/274/274
f 275/275/275 35/35/35 276/276/276
f 277/277/277 21/21/21 278/278/278
f 279/279/279 37/37/37 280/280/280
f 281/281/281 16/16/16 282/282/282
f 283/283/283 37/37/37 284/284/284
f 285/285/285 19/19/19 286/286/286
f 287/287/287 20/20/20 288/288/288
f 289/289/289 36/36/36 290/290/290
f 291/291/291 36/36/36 292/292/292
f 293/293/293 33/33/33 294/294/294
f 295/295/295 33/33/33 296/296/296
f 297/297/297 6/6/6 298/298/298
f 299/299/299 40/40/40 300/300/300
f 301/301/301 6/6/6 302/302/302
f 303/303/303 38/38/38 304/304/304
f 305/305/305 38/38/38 306/306/306
f 307/307/307 38/38/38 308/308/308
f 309/309/309 2/2/2 310/310/310
f 311/311/311 2/2/2 312/312/312
f 313/313/313 44/44/44 314/314/314
f 315/315/315 1/1/1 316/316/316
f 317/317/317 48/48/48 318/318/318
f 319/319/319 47/47/47 320/320/320
f 321/321/321 50/50/50 322/322/322
f 323/323/323 51/51/51 324/324/324
f 325/325/325 6/6/6 326/326/326
f 327/327/327 40/40/40 328/328/328
f 329/329/329 39/39/39 330/330/330
f 331/331/331 45/45/45 332/332/332
f 333/333/333 55/55/55 334/334/334
f 335/335/335 55/55/55 336/336/336
f 337/337/337 45/45/45 338/338/338
f 339/339/339 56/56/56 340/340/340
f 341/341/341 58/58/58 342/342/342
f 343/343/343 54/54/54 344/344/344
f 345/345/345 42/42/42 346/346/346
f 347/347/347 41/41/41 348/348/348
f 349/349/349 43/43/43 350/350/350
f 351/351/351 44/44/44 352/352/352
f 353/353/353 53/53/53 354/354/354
f 355/355/355 53/53/53 356/356/356
f 357/357/357 53/53/53 358/358/358
f 359/359/359 53/53/53 360/360/360
f 361/361/361 46/46/46 362/362/362
f 363/363/363 59/59/59 364/364/364
f 365/365/365 61/61/61 366/366/366
f 367/367/367 61/61/61 368/368/368
f 369/369/369 62/62/62 370/370/370
f 371/371/371 57/57/57 372/372/372
f 373/373/373 46/46/46 374/374/374
f 375/375/375 56/56/56 376/376/376
f 377/377/377 56/56/56 378/378/378
f 379/379/379 38/38/38 380/380/380
f 381/381/381 38/38/38 382/382/382
f 383/383/383 38/38/38 384/384/384
f 385/385/385 39/39/39 386/386/386
f 387/387/387 49/49/49 388/388/388
f 389/389/389 49/49/49 390/390/390
f 391/391/391 49/49/49 392/392/392
f 393/393/393 49/49/49 394/394/394
f 395/395/395 48/48/48 396/396/396
f 397/397/397 49/49/49 398/398/398
f 399/399/399 49/49/49 400/400/400
f 401/401/401 13/13/13 402/402/402
f 403/403/403 65/65/65 404/404/404
f 405/405/405 68/68/68 406/406/406
f 407/407/407 63/63/63 408/408/408
f 409/409/409 66/66/66 410/410/410
f 411/411/411 71/71/71 412/412/412
f 413/413/413 66/66/66 414/414/414
f 415/415/415 71/71/71 416/416/416
f 417/417/417 63/63/63 418/418/418
f 419/419/419 63/63/63 420/420/420
f 421/421/421 72/72/72 422/422/422
f 423/423/423 65/65/65 424/424/424
f 425/425/425 67/67/67 426/426/426
f 427/427/427 68/68/68 428/428/428
f 429/429/429 34/34/34 430/430/430
f 431/431/431 74/74/74 432/432/432
f 433/433/433 14/14/14 434/434/434
f 435/435/435 74/74/74 436/436/436
f 437/437/437 77/77/77 438/438/438
f 439/439/439 77/77/77 440/440/440
f 441/441/441 79/79/79 442/442/442
f 443/443/443 79/79/79 444/444/444
f 445/445/445 68/68/68 446/446/446
f 447/447/447 80/80/80 448/448/448
f 449/449/449 80/80/80 450/450/450
f 451/451/451 72/72/72 452/452/452
f 453/453/453 72/72/72 454/454/454
f 455/455/455 82/82/82 456/456/456
f 457/457/457 82/82/82 458/458/458
f 459/459/459 74/74/74 460/460/460
f 461/461/461 85/85/85 462/462/462
f 463/463/463 75/75/75 464/464/464
f 465/465/465 86/86/86 466/466/466
f 467/467/467 87/87/87 468/468/468
f 469/469/469 83/83/83 470/470/470
f 471/471/471 83/83/83 472/472/472
f 473/473/473 75/75/75 474/474/474
f 475/475/475 78/78/78 476/476/476
f 477/477/477 90/90/90 478/478/478
f 479/479/479 83/83/83 480/480/480
f 481/481/481 93/93/93 482/482/482
f 483/483/483 91/91/91 484/484/484
f 485/485/485 94/94/94 486/486/486
f 487/487/487 92/92/92 488/488/488
f 489/489/489 96/96/96 490/490/490
f 491/491/491 95/95/95 492/492/492
f 493/493/493 98/98/98 494/494/494
f 495/495/495 97/97/97 496/496/496
f 497/497/497 99/99/99 498/498/498
f 499/499/499 102/102/102 500/500/500
f 501/501/501 105/105/105 502/502/502
f 503/503/503 106/106/106 504/504/504
f 505/505/505 108/108/108 506/506/506
f 507/507/507 105/105/105 508/508/508
f 509/509/509 110/110/110 510/510/510
f 511/511/511 110/110/110 512/512/512
f 513/513/513 111/111/111 514/514/514
f 515/515/515 114/114/114 516/516/516
f 517/517/517 114/114/114 518/518/518
f 519/519/519 107/107/107 520/520/520
f 521/521/521 115/115/115 522/522/522
f 523/523/523 109/109/109 524/524/524
f 525/525/525 116/116/116 526/526/526
f 527/527/527 117/117/117 528/528/528
f 529/529/529 117/117/117 530/530/530
f 531/531/531 120/120/120 532/532/532
f 533/533/533 121/121/121 534/534/534
f 535/535/535 102/102/102 536/536/536
f 537/537/537 102/102/102 538/538/538
f 539/539/539 102/102/102 540/540/540
f 541/541/541 119/119/119 542/542/542
f 543/543/543 114/114/114 544/544/544
f 545/545/545 125/125/125 546/546/546
f 547/547/547 124/124/124 548/548/548
f 549/549/549 127/127/127 550/550/550
f 551/551/551 127/127/127 552/552/552
f 553/553/553 125/125/125 554/554/554
f 555/555/555 131/131/131 556/556/556
f 557/557/557 118/118/118 558/558/558
f 559/559/559 127/127/127 560/560/560
f 561/561/561 132/132/132 562/562/562
f 563/563/563 132/132/132 564/564/564
f 565/565/565 132/132/132 566/566/566
f 567/567/567 133/133/133 568/568/568
f 569/569/569 118/118/118 570/570/570
f 571/571/571 102/102/102 572/572/572
f 573/573/573 100/100/100 574/574/574
f 575/575/575 103/103/103 576/576/576
f 577/577/577 133/133/133 578/578/578
f 579/579/579 101/101/101 580/580/580
f 581/581/581 100/100/100 582/582/582
f 583/583/583 100/100/100 584/584/584
f 585/585/585 128/128/128 586/586/586
f 587/587/587 135/135/135 588/588/588
f 589/589/589 134/134/134 590/590/590
f 591/591/591 131/131/131 592/592/592
f 593/593/593 133/133/133 594/594/594
f 595/595/595 103/103/103 596/596/596
f 597/597/597 136/136/136 598/598/598
f 599/599/599 133/133/133 600/600/600
f 601/601/601 137/137/137 602/602/602
f 603/603/603 137/137/137 604/604/604
f 605/605/605 137/137/137 606/606/606
f 607/607/607 90/90/90 608/608/608
f 609/609/609 84/84/84 610/610/610
f 611/611/611 138/138/138 612/612/612
f 613/613/613 103/103/103 614/614/614
f 615/615/615 109/109/109 616/616/616
f 617/617/617 132/132/132 618/618/618
f 619/619/619 119/119/119 620/620/620
f 621/621/621 122/122/122 622/622/622
f 623/623/623 123/123/123 624/624/624
f 625/625/625 124/124/124 626/626/626
f 627/627/627 124/124/124 628/628/628
f 629/629/629 120/120/120 630/630/630
f 631/631/631 86/86/86 632/632/632
f 633/633/633 99/99/99 634/634/634
f 635/635/635 121/121/121 636/636/636
f 637/637/637 110/110/110 638/638/638
f 639/639/639 85/85/85 640/640/640
f 641/641/641 139/139/139 642/642/642
f 643/643/643 137/137/137 644/644/644
f 645/645/645 99/99/99 646/646/646
f 647/647/647 137/137/137 648/648/648
f 649/649/649 137/137/137 650/650/650
f 651/651/651 137/137/137 652/652/652
f 653/653/653 106/106/106 654/654/654
f 655/655/655 138/138/138 656/656/656
f 657/657/657 115/115/115 658/658/658
f 659/659/659 137/137/137 660/660/660
f 661/661/661 141/141/141 662/662/662
f 663/663/663 144/144/144 664/664/664
f 665/665/665 132/132/132 666/666/666
f 667/667/667 146/146/146 668/668/668
f 669/669/669 146/146/146 670/670/670
f 671/671/671 146/146/146 672/672/672
f 673/673/673 147/147/147 674/674/674
f 675/675/675 149/149/149 676/676/676
f 677/677/677 149/149/149 678/678/678
f 679/679/679 149/149/149 680/680/680
f 681/681/681 149/149/149 682/682/682
f 683/683/683 153/153/153 684/684/684
f 685/685/685 152/152/152 686/686/686
f 687/687/687 155/155/155 688/688/688
f 689/689/689 151/151/151 690/690/690
f 691/691/691 143/143/143 692/692/692
f 693/693/693 156/156/156 694/694/694
f 695/695/695 153/153/153 696/696/696
f 697/697/697 156/156/156 698/698/698
f 699/699/699 142/142/142 700/700/700
f 701/701/701 142/142/142 702/702/702
f 703/703/703 142/142/142 704/704/704
f 705/705/705 155/155/155 706/706/706
f 707/707/707 157/157/157 708/708/708
f 709/709/709 158/158/158 710/710/710
f 711/711/711 159/159/159 712/712/712
f 713/713/713 160/160/160 714/714/714
f 715/715/715 161/161/161 716/716/716
f 717/717/717 161/161/161 718/718/718
f 719/719/719 141/141/141 720/720/720
f 721/721/721 151/151/151 722/722/722
f 723/723/723 141/141/141 724/724/724
f 725/725/725 162/162/162 726/726/726
f 727/727/727 164/164/164 728/728/728
f 729/729/729 163/163/163 730/730/730
f 731/731/731 125/125/125 732/732/732
f 733/733/733 145/145/145 734/734/734
f 735/735/735 145/145/145 736/736/736
f 737/737/737 119/119/119 738/738/738
f 739/739/739 141/141/141 740/740/740
f 741/741/741 132/132/132 742/742/742
f 743/743/743 146/146/146 744/744/744
f 745/745/745 146/146/146 746/746/746
f 747/747/747 146/146/146 748/748/748
f 749/749/749 146/146/146 750/750/750
f 751/751/751 142/142/142 752/752/752
f 753/753/753 146/146/146 754/754/754
f 755/755/755 151/151/151 756/756/756
f 757/757/757 146/146/146 758/758/758
f 759/759/759 142/142/142 760/760/760
f 761/761/761 142/142/142 762/762/762
f 763/763/763 150/150/150 764/764/764
f 765/765/765 767/767/767 766/766/766
f 767/767/767 768/768/768 766/766/766
f 769/769/769 771/771/771 770/770/770
f 772/772/772 774/774/774 773/773/773
f 775/775/775 772/772/772 773/773/773
f 776/776/776 769/769/769 770/770/770
f 777/777/777 779/779/779 778/778/778
f 780/780/780 777/777/777 778/778/778
f 774/774/774 781/781/781 773/773/773
f 775/775/775 773/773/773 781/781/781
f 782/782/782 780/780/780 778/778/778
f 778/778/778 779/779/779 782/782/782
f 783/783/783 776/776/776 770/770/770
f 768/768/768 784/784/784 766/766/766
f 765/765/765 766/766/766 784/784/784
f 770/770/770 771/771/771 783/783/783
f 785/785/785 767/767/767 786/786/786
f 787/787/787 768/768/768 788/788/788
f 789/789/789 771/771/771 790/790/790
f 791/791/791 774/774/774 792/792/792
f 793/793/793 772/772/772 794/794/794
f 795/795/795 769/769/769 796/796/796
f 797/797/797 779/779/779 798/798/798
f 799/799/799 777/777/777 800/800/800
f 801/801/801 781/781/781 802/802/802
f 803/803/803 773/773/773 804/804/804
f 805/805/805 780/780/780 806/806/806
f 807/807/807 779/779/779 808/808/808
f 809/809/809 776/776/776 810/810/810
f 811/811/811 784/784/784 812/812/812
f 813/813/813 766/766/766 814/814/814
f 815/815/815 771/771/771 816/816/816
