mtllib STTOBBOW.mtl
o STTOBBOW_part_0
v -0.0154964011 0.06573089 0.142371252
v -0.0154963993 0.06318626 0.202419654
v 0.003910336 0.0182074159 0.182926968
v -0.0154965036 -0.02677153 0.195933819
v 0.0162252672 -0.016779324 0.101042323
v -0.03490325 0.0182074513 0.182926983
v -0.04721826 -0.0167792514 0.101042323
v -0.0154965594 -0.07162253 0.121487781
v -0.015496457 0.0187831875 0.09006684
v 0.007325363 -0.0172396321 0.104939178
v 0.00732534146 -0.0134892212 -6.452011E-08
v -0.0154964626 0.0197064355 -3.07507868E-08
v -0.0154965445 -0.05206214 -1.006229E-07
v -0.0154965473 -0.0592167526 0.119811535
v -0.03831835 -0.0172395837 0.104939178
v -0.03831834 -0.0134891635 -6.161836E-08
v -0.0154964346 0.038063895 0.08059687
v -0.0575316548 -0.136734679 0.119406693
v -0.0366804749 0.0689888 1.16504824
v -0.0154951159 0.537896931 1.05512607
v -0.0154963154 0.126448691 0.119406924
v -0.0154972458 -0.3999183 0.1194064
v -0.01549732 -0.3999196 1.27497029
v 0.0265382063 -0.136734813 0.119406685
v 0.005688018 0.0689887255 1.16504824
v -0.0154963667 0.112347908 0.176127508
v -0.0154967215 -0.168894351 0.176127136
v -0.0154967038 -0.168894708 0.4573695
v -0.0154963611 0.1123476 0.457369566
v -0.0154963089 0.173022032 0.379565477
v -0.0154966228 -0.108220264 0.379565269
v -0.0154966358 -0.108220562 0.6608076
v -0.0154962856 0.173021734 0.6608076
v -0.0154962009 0.236927062 0.752996445
v -0.01549655 -0.0443153344 0.752996445
v -0.0154965445 -0.04431561 1.03423858
v -0.0154962083 0.2369267 1.0342387
v -0.0154964244 0.0631866455 -0.202419609
v -0.0154964188 0.0657311752 -0.1423712
v 0.003910313 0.0182077661 -0.182927132
v 0.0162252542 -0.0167791247 -0.101042464
v -0.0154965287 -0.0267711524 -0.195933938
v -0.034903273 0.0182078015 -0.182927117
v -0.0472182669 -0.01677905 -0.101042457
v -0.0154965753 -0.07162228 -0.121488
v 0.007325349 -0.0172394272 -0.104939319
v -0.0154964691 0.01878336 -0.0900668949
v -0.0383183621 -0.0172393769 -0.104939319
v -0.0154965613 -0.05921653 -0.119811736
v -0.0154964449 0.0380640551 -0.08059691
v -0.0154953422 0.5378992 -1.05512583
v -0.03668074 0.06899105 -1.16504836
v -0.05753157 -0.136734486 -0.11940708
v -0.0154962018 0.126449019 -0.119406804
v -0.0154976286 -0.399916947 -1.27497041
v -0.0154971313 -0.3999183 -0.119407296
v 0.0265382882 -0.136734545 -0.119407088
v 0.005687751 0.06899104 -1.16504836
v -0.0154967615 -0.168893725 -0.457369655
v -0.0154967755 -0.168894067 -0.176127627
v -0.015496389 0.1123482 -0.17612727
v -0.0154964207 0.112348542 -0.457369626
v -0.01549672 -0.108219266 -0.6608077
v -0.0154966712 -0.108219527 -0.3795653
v -0.0154963573 0.173022687 -0.37956512
v -0.0154963685 0.173022956 -0.6608077
v -0.0154966759 -0.0443135835 -1.0342387
v -0.0154966451 -0.0443138666 -0.7529963
v -0.0154962968 0.236928418 -0.752996445
v -0.0154963406 0.236928746 -1.03423858
v -0.0154962847 0.123405389 0.129331514
v -0.0154950358 0.527043164 1.04728818
v -0.0154972812 -0.392971069 1.26295912
v -0.015497176 -0.392969757 0.129331
v -0.0154970381 -0.392969757 -0.1293318
v -0.01549755 -0.392968416 -1.26295924
v -0.0154953245 0.5270454 -1.047288
v -0.0154962353 0.123405688 -0.129331321
vt 0.9726825 0.5120087
vt 0.9582445 0.619402
vt 0.8806926 0.577012539
vt 0.79779917 0.5929726
vt 0.831334949 0.424245477
vt 0.8806926 0.577012539
vt 0.831334949 0.424245477
vt 0.7295086 0.451939821
vt 0.864398956 0.9248021
vt 0.9182837 0.947049
vt 0.9126738 0.7900757
vt 0.8630179 0.7900757
vt 0.9703731 0.7900757
vt 0.981075 0.9692959
vt 0.9182837 0.947049
vt 0.9126738 0.7900757
vt 0.933161557 0.396551132
vt 0.242539927 0.0192707181
vt 0.4157665 0.899733663
vt 0.81060195 0.807175756
vt 0.46414876 0.0192707181
vt 0.0209310949 0.0192707181
vt 0.0209310949 0.9922917
vt 0.2425399 0.0192707181
vt 0.415766537 0.8997337
vt 0.980853438 0.345954657
vt 0.980853438 0.018876493
vt 0.653775334 0.018876493
vt 0.653775334 0.345954657
vt 0.980853438 0.345954657
vt 0.980853438 0.018876493
vt 0.653775334 0.018876493
vt 0.653775334 0.345954657
vt 0.980853438 0.345954657
vt 0.980853438 0.018876493
vt 0.653775334 0.018876493
vt 0.653775334 0.345954657
vt 0.9582445 0.619402
vt 0.9726825 0.5120087
vt 0.8806926 0.577012539
vt 0.831334949 0.424245477
vt 0.79779917 0.5929726
vt 0.8806926 0.577012539
vt 0.831334949 0.424245477
vt 0.7295086 0.451939821
vt 0.9182837 0.947049
vt 0.864398956 0.9248021
vt 0.9182837 0.947049
vt 0.981075 0.9692959
vt 0.933161557 0.396551132
vt 0.81060195 0.807175756
vt 0.4157665 0.899733663
vt 0.242539927 0.0192707181
vt 0.46414876 0.0192707181
vt 0.0209310949 0.9922917
vt 0.0209310949 0.0192707181
vt 0.2425399 0.0192707181
vt 0.415766537 0.8997337
vt 0.653775334 0.018876493
vt 0.980853438 0.018876493
vt 0.980853438 0.345954657
vt 0.653775334 0.345954657
vt 0.653775334 0.018876493
vt 0.980853438 0.018876493
vt 0.980853438 0.345954657
vt 0.653775334 0.345954657
vt 0.653775334 0.018876493
vt 0.980853438 0.018876493
vt 0.980853438 0.345954657
vt 0.653775334 0.345954657
vt 0.46414876 0.0192707181
vt 0.81060195 0.807175756
vt 0.0209310949 0.9922917
vt 0.0209310949 0.0192707181
vt 0.0209310949 0.0192707181
vt 0.0209310949 0.9922917
vt 0.81060195 0.807175756
vt 0.46414876 0.0192707181
vn 1.06134655E-06 0.9868767 -0.161475569
vn 8.725501E-07 0.373276532 0.9277201
vn 0.7857633 0.09163927 0.611701131
vn -3.33700655E-07 -0.5072211 0.861816
vn 0.9054272 -0.15739426 -0.394244343
vn -0.785762846 0.09164089 0.6117015
vn -0.905427635 -0.157392412 -0.394244134
vn -1.04432866E-06 -0.9369991 -0.349331856
vn 1.04941569E-06 0.9997425 0.0226922985
vn 0.9847766 -0.173498183 -0.0106507931
vn 0.973079443 0.230469838 5.274972E-08
vn 1.05212507E-06 1 8.823877E-07
vn -1.1238E-06 -1 -8.798417E-07
vn -1.16459387E-06 -0.9982218 -0.0596092679
vn -0.984777 -0.173496068 -0.0106504587
vn -0.973079 0.230471835 3.46999855E-07
vn 2.925781E-07 0.365911543 -0.930649638
vn -0.9998689 0.0159661435 -0.00268486654
vn -0.9984434 -0.05187722 0.0204802472
vn 1.67773976E-06 0.961426437 -0.275062233
vn 1.21373648E-06 0.915411651 -0.4025189
vn -1.71209786E-06 -0.9701492 0.242508814
vn -1.98102043E-06 -1 -1.03161142E-06
vn 0.999869 0.0159623884 -0.0026855
vn 0.998443246 -0.0518814661 0.02048005
vn -1 1.152388E-06 1.29148219E-07
vn -1 1.17556829E-06 1.52328482E-07
vn -1 1.152388E-06 1.29148219E-07
vn -1 1.12920782E-06 1.05967942E-07
vn -1 1.09278176E-06 1.05967807E-07
vn -1 1.02655258E-06 3.973849E-08
vn -1 1.09278176E-06 1.05967807E-07
vn -1 1.15901094E-06 1.72197119E-07
vn -1 1.13086332E-06 8.444342E-08
vn -1 1.15238765E-06 1.059678E-07
vn -1 1.13086332E-06 8.444342E-08
vn -1 1.109339E-06 6.291904E-08
vn 2.32679625E-07 0.373279423 -0.927718937
vn 1.0860291E-06 0.9868764 0.161477312
vn 0.7857628 0.091640085 -0.611701667
vn 0.9054273 -0.15739505 0.394243866
vn -7.95747E-07 -0.5072207 -0.8618162
vn -0.7857629 0.0916417 -0.6117013
vn -0.905427456 -0.157393187 0.394244224
vn -9.493898E-07 -0.9369996 0.3493304
vn 0.9847766 -0.173498139 0.0106501943
vn 9.955995E-07 0.9997425 -0.0226905346
vn -0.984777 -0.173495978 0.0106504476
vn -1.10329961E-06 -0.9982219 0.0596075654
vn 5.433593E-07 0.365909755 0.930650353
vn 1.53792894E-06 0.96142596 0.275063753
vn -0.9984435 -0.0518771932 -0.0204798244
vn -0.9998689 0.0159661379 0.00268540462
vn 1.387128E-06 0.915411055 0.402520329
vn -1.9810202E-06 -1 -1.05740082E-06
vn -1.71209888E-06 -0.970148742 -0.242510617
vn 0.999869 0.0159624033 0.0026849932
vn 0.998443246 -0.051881358 -0.02048065
vn -1 1.20702725E-06 1.17558159E-07
vn -1 1.28815793E-06 3.64275259E-08
vn -1 1.20702725E-06 1.17558159E-07
vn -1 1.12589646E-06 1.986888E-07
vn -1 1.09443772E-06 1.93721192E-07
vn -1 1.02655258E-06 2.61606061E-07
vn -1 1.09443772E-06 1.93721192E-07
vn -1 1.16232275E-06 1.25836323E-07
vn -1 1.1292077E-06 2.18557531E-07
vn -1 1.15238822E-06 1.9537714E-07
vn -1 1.1292077E-06 2.18557531E-07
vn -1 1.1060273E-06 2.41737922E-07
vn 1 -2.02711271E-06 -1.70833516E-07
vn 1 -2.41477346E-06 -3.474161E-07
vn 1 -2.02711271E-06 -1.70833516E-07
vn 1 -1.63945185E-06 5.749067E-09
vn 1 -1.84617193E-06 -1.59039473E-07
vn 1 -2.226036E-06 -5.39755547E-07
vn 1 -1.84617193E-06 -1.59039473E-07
vn 1 -1.46630782E-06 2.21676615E-07
usemtl STTOBBOW_part_0_material_0
f 1/1/1 2/2/2 3/3/3
f 4/4/4 5/5/5 3/3/3
f 6/6/6 3/3/3 2/2/2
f 7/7/7 5/5/5 8/8/8
f 9/9/9 10/10/10 11/11/11
f 11/11/11 12/12/12 9/9/9
f 13/13/13 14/14/14 15/15/15
f 15/15/15 16/16/16 13/13/13
f 1/1/1 17/17/17 7/7/7
f 8/8/8 4/4/4 7/7/7
f 6/6/6 4/4/4 3/3/3
f 7/7/7 17/17/17 5/5/5
f 9/9/9 12/12/12 16/16/16
f 16/16/16 15/15/15 9/9/9
f 13/13/13 11/11/11 10/10/10
f 10/10/10 14/14/14 13/13/13
f 6/6/6 2/2/2 1/1/1
f 3/3/3 5/5/5 1/1/1
f 4/4/4 8/8/8 5/5/5
f 5/5/5 17/17/17 1/1/1
f 4/4/4 6/6/6 7/7/7
f 7/7/7 6/6/6 1/1/1
f 26/26/26 27/27/27 28/28/28
f 28/28/28 29/29/29 26/26/26
f 30/30/30 31/31/31 32/32/32
f 32/32/32 33/33/33 30/30/30
f 34/34/34 35/35/35 36/36/36
f 36/36/36 37/37/37 34/34/34
f 38/38/38 39/39/39 40/40/40
f 41/41/41 42/42/42 40/40/40
f 40/40/40 43/43/43 38/38/38
f 41/41/41 44/44/44 45/45/45
f 11/11/11 46/46/46 47/47/47
f 47/47/47 12/12/12 11/11/11
f 48/48/48 49/49/49 13/13/13
f 13/13/13 16/16/16 48/48/48
f 50/50/50 39/39/39 44/44/44
f 42/42/42 45/45/45 44/44/44
f 42/42/42 43/43/43 40/40/40
f 50/50/50 44/44/44 41/41/41
f 16/16/16 12/12/12 47/47/47
f 47/47/47 48/48/48 16/16/16
f 46/46/46 11/11/11 13/13/13
f 13/13/13 49/49/49 46/46/46
f 38/38/38 43/43/43 39/39/39
f 41/41/41 40/40/40 39/39/39
f 45/45/45 42/42/42 41/41/41
f 50/50/50 41/41/41 39/39/39
f 43/43/43 42/42/42 44/44/44
f 43/43/43 44/44/44 39/39/39
f 59/59/59 60/60/60 61/61/61
f 61/61/61 62/62/62 59/59/59
f 63/63/63 64/64/64 65/65/65
f 65/65/65 66/66/66 63/63/63
f 67/67/67 68/68/68 69/69/69
f 69/69/69 70/70/70 67/67/67
f 71/71/71 72/72/72 73/73/73
f 73/73/73 74/74/74 71/71/71
f 75/75/75 76/76/76 77/77/77
f 77/77/77 78/78/78 75/75/75
usemtl STTOBBOW_part_0_material_1
f 18/18/18 19/19/19 20/20/20
f 20/20/20 21/21/21 18/18/18
f 22/22/22 23/23/23 19/19/19
f 19/19/19 18/18/18 22/22/22
f 24/24/24 21/21/21 20/20/20
f 20/20/20 25/25/25 24/24/24
f 22/22/22 24/24/24 25/25/25
f 25/25/25 23/23/23 22/22/22
f 51/51/51 52/52/52 53/53/53
f 53/53/53 54/54/54 51/51/51
f 52/52/52 55/55/55 56/56/56
f 56/56/56 53/53/53 52/52/52
f 51/51/51 54/54/54 57/57/57
f 57/57/57 58/58/58 51/51/51
f 58/58/58 57/57/57 56/56/56
f 56/56/56 55/55/55 58/58/58
